{
    "header": {
        "PPQ": 240,
        "timeSignature": [
            6,
            8
        ],
        "bpm": 88.00002346667293,
        "name": "======================="
    },
    "startTime": 0,
    "duration": 296.52833001666596,
    "tracks": [
        {
            "startTime": 0,
            "duration": 0,
            "length": 0,
            "notes": [],
            "controlChanges": {},
            "id": 0
        },
        {
            "startTime": 1.3607950916666665,
            "duration": 293.11639910833225,
            "length": 584,
            "notes": [
                {
                    "name": "D#7",
                    "midi": 99,
                    "time": 1.3607950916666665,
                    "velocity": 0.6456692913385826,
                    "duration": 0.25568174999999993
                },
                {
                    "name": "D#7",
                    "midi": 99,
                    "time": 1.7017040916666664,
                    "velocity": 0.6377952755905512,
                    "duration": 0.25568174999999993
                },
                {
                    "name": "D#7",
                    "midi": 99,
                    "time": 2.039772183333333,
                    "velocity": 0.6377952755905512,
                    "duration": 0.25568174999999993
                },
                {
                    "name": "D#7",
                    "midi": 99,
                    "time": 3.411930908333333,
                    "velocity": 0.6220472440944882,
                    "duration": 0.25568174999999993
                },
                {
                    "name": "D#7",
                    "midi": 99,
                    "time": 3.755680816666666,
                    "velocity": 0.6456692913385826,
                    "duration": 0.2556817500000004
                },
                {
                    "name": "D#7",
                    "midi": 99,
                    "time": 4.085226183333333,
                    "velocity": 0.6141732283464567,
                    "duration": 0.25568174999999993
                },
                {
                    "name": "D#7",
                    "midi": 99,
                    "time": 4.7755669083333325,
                    "velocity": 0.6141732283464567,
                    "duration": 0.25568174999999993
                },
                {
                    "name": "D#7",
                    "midi": 99,
                    "time": 5.1136349999999995,
                    "velocity": 0.6299212598425197,
                    "duration": 0.25568174999999993
                },
                {
                    "name": "D#7",
                    "midi": 99,
                    "time": 5.798293908333333,
                    "velocity": 0.6220472440944882,
                    "duration": 0.25568174999999993
                },
                {
                    "name": "D#7",
                    "midi": 99,
                    "time": 6.139202908333333,
                    "velocity": 0.6220472440944882,
                    "duration": 0.25568174999999993
                },
                {
                    "name": "D#7",
                    "midi": 99,
                    "time": 8.008520591666667,
                    "velocity": 0.6456692913385826,
                    "duration": 0.1278408750000004
                },
                {
                    "name": "D#7",
                    "midi": 99,
                    "time": 8.349429591666667,
                    "velocity": 0.6220472440944882,
                    "duration": 0.1278408750000004
                },
                {
                    "name": "D#7",
                    "midi": 99,
                    "time": 8.6931795,
                    "velocity": 0.6299212598425197,
                    "duration": 0.1278408750000004
                },
                {
                    "name": "D#7",
                    "midi": 99,
                    "time": 9.028406683333333,
                    "velocity": 0.6141732283464567,
                    "duration": 0.1278408750000004
                },
                {
                    "name": "D#7",
                    "midi": 99,
                    "time": 9.374997500000001,
                    "velocity": 0.6141732283464567,
                    "duration": 0.1278408750000004
                },
                {
                    "name": "D#7",
                    "midi": 99,
                    "time": 9.713065591666668,
                    "velocity": 0.6220472440944882,
                    "duration": 0.1278408750000004
                },
                {
                    "name": "D#7",
                    "midi": 99,
                    "time": 10.0568155,
                    "velocity": 0.6299212598425197,
                    "duration": 0.1278408750000004
                },
                {
                    "name": "D#7",
                    "midi": 99,
                    "time": 10.394883591666668,
                    "velocity": 0.6456692913385826,
                    "duration": 0.1278408750000004
                },
                {
                    "name": "D#7",
                    "midi": 99,
                    "time": 10.735792591666668,
                    "velocity": 0.6141732283464567,
                    "duration": 0.1278408750000004
                },
                {
                    "name": "D#7",
                    "midi": 99,
                    "time": 11.076701591666668,
                    "velocity": 0.6377952755905512,
                    "duration": 0.1278408750000004
                },
                {
                    "name": "D#7",
                    "midi": 99,
                    "time": 11.417610591666667,
                    "velocity": 0.6377952755905512,
                    "duration": 0.1278408750000004
                },
                {
                    "name": "D#7",
                    "midi": 99,
                    "time": 16.187495683333335,
                    "velocity": 0.6299212598425197,
                    "duration": 0.1278408750000004
                },
                {
                    "name": "D#7",
                    "midi": 99,
                    "time": 16.5340865,
                    "velocity": 0.6456692913385826,
                    "duration": 0.1278408750000004
                },
                {
                    "name": "D#7",
                    "midi": 99,
                    "time": 16.880677316666667,
                    "velocity": 0.6456692913385826,
                    "duration": 0.1278408750000004
                },
                {
                    "name": "D#7",
                    "midi": 99,
                    "time": 17.218745408333334,
                    "velocity": 0.6456692913385826,
                    "duration": 0.1278408750000004
                },
                {
                    "name": "D#7",
                    "midi": 99,
                    "time": 17.551131683333335,
                    "velocity": 0.6141732283464567,
                    "duration": 0.1278408750000004
                },
                {
                    "name": "D#7",
                    "midi": 99,
                    "time": 17.894881591666667,
                    "velocity": 0.6141732283464567,
                    "duration": 0.1278408750000004
                },
                {
                    "name": "D#7",
                    "midi": 99,
                    "time": 18.244313316666666,
                    "velocity": 0.6456692913385826,
                    "duration": 0.1278408750000004
                },
                {
                    "name": "D#7",
                    "midi": 99,
                    "time": 18.585222316666666,
                    "velocity": 0.6456692913385826,
                    "duration": 0.1278408750000004
                },
                {
                    "name": "D#7",
                    "midi": 99,
                    "time": 18.923290408333333,
                    "velocity": 0.6377952755905512,
                    "duration": 0.1278408750000004
                },
                {
                    "name": "D#7",
                    "midi": 99,
                    "time": 19.267040316666666,
                    "velocity": 0.6377952755905512,
                    "duration": 0.1278408750000004
                },
                {
                    "name": "D#7",
                    "midi": 99,
                    "time": 19.605108408333333,
                    "velocity": 0.6220472440944882,
                    "duration": 0.1278408750000004
                },
                {
                    "name": "D#7",
                    "midi": 99,
                    "time": 21.9886305,
                    "velocity": 0.6377952755905512,
                    "duration": 0.1278408750000004
                },
                {
                    "name": "D#7",
                    "midi": 99,
                    "time": 23.005675683333333,
                    "velocity": 0.6141732283464567,
                    "duration": 0.1278408750000004
                },
                {
                    "name": "D#7",
                    "midi": 99,
                    "time": 24.207379908333333,
                    "velocity": 0.6141732283464567,
                    "duration": 0.10227270000000033
                },
                {
                    "name": "D#7",
                    "midi": 99,
                    "time": 24.548288908333333,
                    "velocity": 0.6377952755905512,
                    "duration": 0.10227270000000033
                },
                {
                    "name": "D#7",
                    "midi": 99,
                    "time": 24.889197908333333,
                    "velocity": 0.6377952755905512,
                    "duration": 0.10227270000000033
                },
                {
                    "name": "D#7",
                    "midi": 99,
                    "time": 25.397720500000002,
                    "velocity": 0.6299212598425197,
                    "duration": 0.10227270000000033
                },
                {
                    "name": "D#7",
                    "midi": 99,
                    "time": 25.738629500000002,
                    "velocity": 0.6456692913385826,
                    "duration": 0.10227270000000033
                },
                {
                    "name": "D#7",
                    "midi": 99,
                    "time": 26.073856683333336,
                    "velocity": 0.6141732283464567,
                    "duration": 0.10227270000000033
                },
                {
                    "name": "D#7",
                    "midi": 99,
                    "time": 26.41760659166667,
                    "velocity": 0.6456692913385826,
                    "duration": 0.10227270000000033
                },
                {
                    "name": "D#7",
                    "midi": 99,
                    "time": 26.764197408333334,
                    "velocity": 0.6299212598425197,
                    "duration": 0.10227270000000033
                },
                {
                    "name": "D#7",
                    "midi": 99,
                    "time": 27.096583683333336,
                    "velocity": 0.6141732283464567,
                    "duration": 0.10227270000000033
                },
                {
                    "name": "D#7",
                    "midi": 99,
                    "time": 27.44033359166667,
                    "velocity": 0.6220472440944882,
                    "duration": 0.10227270000000033
                },
                {
                    "name": "D#7",
                    "midi": 99,
                    "time": 27.78124259166667,
                    "velocity": 0.6456692913385826,
                    "duration": 0.10227270000000033
                },
                {
                    "name": "D#7",
                    "midi": 99,
                    "time": 32.562491316666666,
                    "velocity": 0.6220472440944882,
                    "duration": 0.10227270000000033
                },
                {
                    "name": "D#7",
                    "midi": 99,
                    "time": 32.89203668333333,
                    "velocity": 0.6456692913385826,
                    "duration": 0.10227270000000033
                },
                {
                    "name": "D#7",
                    "midi": 99,
                    "time": 33.24146840833333,
                    "velocity": 0.6220472440944882,
                    "duration": 0.10227270000000033
                },
                {
                    "name": "D#7",
                    "midi": 99,
                    "time": 33.57669559166666,
                    "velocity": 0.6220472440944882,
                    "duration": 0.10227270000000033
                },
                {
                    "name": "D#7",
                    "midi": 99,
                    "time": 33.92328640833333,
                    "velocity": 0.6220472440944882,
                    "duration": 0.10227270000000033
                },
                {
                    "name": "D#7",
                    "midi": 99,
                    "time": 34.25851359166666,
                    "velocity": 0.6456692913385826,
                    "duration": 0.10227270000000033
                },
                {
                    "name": "D#7",
                    "midi": 99,
                    "time": 34.596581683333326,
                    "velocity": 0.6220472440944882,
                    "duration": 0.10227270000000033
                },
                {
                    "name": "D#7",
                    "midi": 99,
                    "time": 34.94601340833333,
                    "velocity": 0.6456692913385826,
                    "duration": 0.10227270000000033
                },
                {
                    "name": "D#7",
                    "midi": 99,
                    "time": 35.289763316666665,
                    "velocity": 0.6456692913385826,
                    "duration": 0.10227270000000033
                },
                {
                    "name": "D#7",
                    "midi": 99,
                    "time": 35.61930868333333,
                    "velocity": 0.6299212598425197,
                    "duration": 0.10227270000000033
                },
                {
                    "name": "D#7",
                    "midi": 99,
                    "time": 35.96874040833333,
                    "velocity": 0.6299212598425197,
                    "duration": 0.10227270000000033
                },
                {
                    "name": "D#7",
                    "midi": 99,
                    "time": 38.34942159166667,
                    "velocity": 0.6141732283464567,
                    "duration": 0.10227270000000033
                },
                {
                    "name": "D#7",
                    "midi": 99,
                    "time": 39.374989500000005,
                    "velocity": 0.6299212598425197,
                    "duration": 0.10227270000000033
                },
                {
                    "name": "C#7",
                    "midi": 97,
                    "time": 52.33521331666667,
                    "velocity": 0.6377952755905512,
                    "duration": 0.12784087499999686
                },
                {
                    "name": "C#7",
                    "midi": 97,
                    "time": 52.66475868333333,
                    "velocity": 0.6377952755905512,
                    "duration": 0.12784087499999686
                },
                {
                    "name": "C#7",
                    "midi": 97,
                    "time": 53.35509940833333,
                    "velocity": 0.6456692913385826,
                    "duration": 0.12784087499999686
                },
                {
                    "name": "C#7",
                    "midi": 97,
                    "time": 53.68748568333333,
                    "velocity": 0.6377952755905512,
                    "duration": 0.12784087499999686
                },
                {
                    "name": "C#7",
                    "midi": 97,
                    "time": 54.374985499999994,
                    "velocity": 0.6220472440944882,
                    "duration": 0.1590908666666664
                },
                {
                    "name": "E7",
                    "midi": 100,
                    "time": 54.38066731666666,
                    "velocity": 0.6377952755905512,
                    "duration": 0.1590908666666664
                },
                {
                    "name": "F#7",
                    "midi": 102,
                    "time": 60.33805209166666,
                    "velocity": 0.6299212598425197,
                    "duration": 0.2556817500000008
                },
                {
                    "name": "E7",
                    "midi": 100,
                    "time": 60.681802,
                    "velocity": 0.6141732283464567,
                    "duration": 0.2556817500000008
                },
                {
                    "name": "D#7",
                    "midi": 99,
                    "time": 61.01987009166667,
                    "velocity": 0.6141732283464567,
                    "duration": 0.2556817500000008
                },
                {
                    "name": "C#7",
                    "midi": 97,
                    "time": 61.36077909166667,
                    "velocity": 0.6141732283464567,
                    "duration": 0.2556817500000008
                },
                {
                    "name": "D#7",
                    "midi": 99,
                    "time": 61.70452900000001,
                    "velocity": 0.6220472440944882,
                    "duration": 0.2556817500000008
                },
                {
                    "name": "E7",
                    "midi": 100,
                    "time": 62.039756183333346,
                    "velocity": 0.6141732283464567,
                    "duration": 0.2556817500000008
                },
                {
                    "name": "C#7",
                    "midi": 97,
                    "time": 62.38350609166668,
                    "velocity": 0.6299212598425197,
                    "duration": 0.2556817500000008
                },
                {
                    "name": "E7",
                    "midi": 100,
                    "time": 64.42611918333336,
                    "velocity": 0.6141732283464567,
                    "duration": 0.2556817499999937
                },
                {
                    "name": "D#7",
                    "midi": 99,
                    "time": 64.77271000000002,
                    "velocity": 0.6456692913385826,
                    "duration": 0.2556817499999937
                },
                {
                    "name": "C#7",
                    "midi": 97,
                    "time": 65.11361900000001,
                    "velocity": 0.6377952755905512,
                    "duration": 0.2556817499999937
                },
                {
                    "name": "C#7",
                    "midi": 97,
                    "time": 65.80111881666667,
                    "velocity": 0.6141732283464567,
                    "duration": 0.2556817499999937
                },
                {
                    "name": "D#7",
                    "midi": 99,
                    "time": 66.13066418333334,
                    "velocity": 0.6220472440944882,
                    "duration": 0.2556817499999937
                },
                {
                    "name": "D#7",
                    "midi": 99,
                    "time": 71.58520818333334,
                    "velocity": 0.6377952755905512,
                    "duration": 0.1363635999999957
                },
                {
                    "name": "D#7",
                    "midi": 99,
                    "time": 71.92895809166666,
                    "velocity": 0.6299212598425197,
                    "duration": 0.1363635999999957
                },
                {
                    "name": "D#7",
                    "midi": 99,
                    "time": 72.27554890833332,
                    "velocity": 0.6456692913385826,
                    "duration": 0.1363635999999957
                },
                {
                    "name": "D#7",
                    "midi": 99,
                    "time": 72.61645790833332,
                    "velocity": 0.6141732283464567,
                    "duration": 0.1363635999999957
                },
                {
                    "name": "D#7",
                    "midi": 99,
                    "time": 72.95168509166665,
                    "velocity": 0.6377952755905512,
                    "duration": 0.1363635999999957
                },
                {
                    "name": "E7",
                    "midi": 100,
                    "time": 73.29827590833331,
                    "velocity": 0.6141732283464567,
                    "duration": 0.1363635999999957
                },
                {
                    "name": "D#7",
                    "midi": 99,
                    "time": 73.4687304083333,
                    "velocity": 0.6377952755905512,
                    "duration": 0.1363635999999957
                },
                {
                    "name": "C#7",
                    "midi": 97,
                    "time": 73.63350309166663,
                    "velocity": 0.6220472440944882,
                    "duration": 0.1363635999999957
                },
                {
                    "name": "D#7",
                    "midi": 99,
                    "time": 75.33804809166662,
                    "velocity": 0.6220472440944882,
                    "duration": 0.1363635999999957
                },
                {
                    "name": "D#7",
                    "midi": 99,
                    "time": 76.36077509166661,
                    "velocity": 0.6535433070866141,
                    "duration": 0.1363635999999957
                },
                {
                    "name": "D#7",
                    "midi": 99,
                    "time": 77.3835020916666,
                    "velocity": 0.6692913385826772,
                    "duration": 0.1363635999999957
                },
                {
                    "name": "D#7",
                    "midi": 99,
                    "time": 78.06816099999993,
                    "velocity": 0.6692913385826772,
                    "duration": 0.1363635999999957
                },
                {
                    "name": "D#7",
                    "midi": 99,
                    "time": 78.74429718333326,
                    "velocity": 0.6850393700787402,
                    "duration": 0.1363635999999957
                },
                {
                    "name": "D#7",
                    "midi": 99,
                    "time": 79.43747881666658,
                    "velocity": 0.7007874015748031,
                    "duration": 0.1363635999999957
                },
                {
                    "name": "D#7",
                    "midi": 99,
                    "time": 79.77838781666658,
                    "velocity": 0.7007874015748031,
                    "duration": 0.1363635999999957
                },
                {
                    "name": "D#7",
                    "midi": 99,
                    "time": 80.11645590833324,
                    "velocity": 0.7086614173228346,
                    "duration": 0.1363635999999957
                },
                {
                    "name": "D#7",
                    "midi": 99,
                    "time": 80.46020581666656,
                    "velocity": 0.7007874015748031,
                    "duration": 0.1363635999999957
                },
                {
                    "name": "D#7",
                    "midi": 99,
                    "time": 80.80111481666655,
                    "velocity": 0.7244094488188977,
                    "duration": 0.1363635999999957
                },
                {
                    "name": "D#7",
                    "midi": 99,
                    "time": 81.14202381666655,
                    "velocity": 0.7322834645669292,
                    "duration": 0.1363635999999957
                },
                {
                    "name": "D#7",
                    "midi": 99,
                    "time": 81.48009190833321,
                    "velocity": 0.7401574803149606,
                    "duration": 0.1363635999999957
                },
                {
                    "name": "D#7",
                    "midi": 99,
                    "time": 81.81815999999986,
                    "velocity": 0.7244094488188977,
                    "duration": 0.1363635999999957
                },
                {
                    "name": "D#7",
                    "midi": 99,
                    "time": 82.1533871833332,
                    "velocity": 0.7322834645669292,
                    "duration": 0.1363635999999957
                },
                {
                    "name": "D#7",
                    "midi": 99,
                    "time": 82.49713709166652,
                    "velocity": 0.7401574803149606,
                    "duration": 0.1363635999999957
                },
                {
                    "name": "D#7",
                    "midi": 99,
                    "time": 82.84656881666652,
                    "velocity": 0.7322834645669292,
                    "duration": 0.1363635999999957
                },
                {
                    "name": "D#7",
                    "midi": 99,
                    "time": 83.18463690833318,
                    "velocity": 0.7165354330708661,
                    "duration": 0.1363635999999957
                },
                {
                    "name": "D#7",
                    "midi": 99,
                    "time": 83.5198640916665,
                    "velocity": 0.6850393700787402,
                    "duration": 0.1363635999999957
                },
                {
                    "name": "D#7",
                    "midi": 99,
                    "time": 84.20736390833316,
                    "velocity": 0.6456692913385826,
                    "duration": 0.1363635999999957
                },
                {
                    "name": "D#7",
                    "midi": 99,
                    "time": 84.88634099999983,
                    "velocity": 0.6220472440944882,
                    "duration": 0.1363635999999957
                },
                {
                    "name": "D#7",
                    "midi": 99,
                    "time": 85.57099990833316,
                    "velocity": 0.5275590551181102,
                    "duration": 0.1363635999999957
                },
                {
                    "name": "D#7",
                    "midi": 99,
                    "time": 86.24429518333316,
                    "velocity": 0.5196850393700787,
                    "duration": 0.1363635999999957
                },
                {
                    "name": "D#7",
                    "midi": 99,
                    "time": 86.93747681666649,
                    "velocity": 0.5275590551181102,
                    "duration": 0.1363635999999957
                },
                {
                    "name": "D#7",
                    "midi": 99,
                    "time": 87.60793118333315,
                    "velocity": 0.5196850393700787,
                    "duration": 0.1363635999999957
                },
                {
                    "name": "D#7",
                    "midi": 99,
                    "time": 88.29259009166648,
                    "velocity": 0.5196850393700787,
                    "duration": 0.1363635999999957
                },
                {
                    "name": "D#7",
                    "midi": 99,
                    "time": 88.98293081666648,
                    "velocity": 0.5039370078740157,
                    "duration": 0.1363635999999957
                },
                {
                    "name": "D#7",
                    "midi": 99,
                    "time": 89.65338518333314,
                    "velocity": 0.49606299212598426,
                    "duration": 0.1363635999999957
                },
                {
                    "name": "D#7",
                    "midi": 99,
                    "time": 90.33520318333314,
                    "velocity": 0.5196850393700787,
                    "duration": 0.1363635999999957
                },
                {
                    "name": "D#7",
                    "midi": 99,
                    "time": 91.01986209166647,
                    "velocity": 0.5118110236220472,
                    "duration": 0.1363635999999957
                },
                {
                    "name": "D#7",
                    "midi": 99,
                    "time": 91.70736190833313,
                    "velocity": 0.5196850393700787,
                    "duration": 0.1363635999999957
                },
                {
                    "name": "D#7",
                    "midi": 99,
                    "time": 92.38065718333313,
                    "velocity": 0.5196850393700787,
                    "duration": 0.1363635999999957
                },
                {
                    "name": "D#7",
                    "midi": 99,
                    "time": 93.06247518333312,
                    "velocity": 0.5039370078740157,
                    "duration": 0.1363635999999957
                },
                {
                    "name": "D#7",
                    "midi": 99,
                    "time": 93.75281590833312,
                    "velocity": 0.5196850393700787,
                    "duration": 0.1363635999999957
                },
                {
                    "name": "D#7",
                    "midi": 99,
                    "time": 94.42611118333312,
                    "velocity": 0.5196850393700787,
                    "duration": 0.1363635999999957
                },
                {
                    "name": "D#7",
                    "midi": 99,
                    "time": 95.11077009166645,
                    "velocity": 0.5196850393700787,
                    "duration": 0.1363635999999957
                },
                {
                    "name": "D#7",
                    "midi": 99,
                    "time": 95.79542899999979,
                    "velocity": 0.5039370078740157,
                    "duration": 0.1363635999999957
                },
                {
                    "name": "D#7",
                    "midi": 99,
                    "time": 96.47724699999978,
                    "velocity": 0.5275590551181102,
                    "duration": 0.1363635999999957
                },
                {
                    "name": "D#7",
                    "midi": 99,
                    "time": 97.16474681666644,
                    "velocity": 0.5118110236220472,
                    "duration": 0.1363635999999957
                },
                {
                    "name": "D#7",
                    "midi": 99,
                    "time": 99.71304159166644,
                    "velocity": 0.5275590551181102,
                    "duration": 0.1363635999999957
                },
                {
                    "name": "D#7",
                    "midi": 99,
                    "time": 100.73860949999977,
                    "velocity": 0.5118110236220472,
                    "duration": 0.1363635999999957
                },
                {
                    "name": "D#7",
                    "midi": 99,
                    "time": 102.15338184999976,
                    "velocity": 0.6456692913385826,
                    "duration": 0.09090906666666854
                },
                {
                    "name": "D#7",
                    "midi": 99,
                    "time": 102.49997266666642,
                    "velocity": 0.6141732283464567,
                    "duration": 0.09090906666666854
                },
                {
                    "name": "C#7",
                    "midi": 97,
                    "time": 102.84656348333309,
                    "velocity": 0.6141732283464567,
                    "duration": 0.09090906666666854
                },
                {
                    "name": "D#7",
                    "midi": 99,
                    "time": 110.33803875833308,
                    "velocity": 0.6141732283464567,
                    "duration": 0.09090906666666854
                },
                {
                    "name": "D#7",
                    "midi": 99,
                    "time": 110.68178866666642,
                    "velocity": 0.6299212598425197,
                    "duration": 0.09090906666666854
                },
                {
                    "name": "C#7",
                    "midi": 97,
                    "time": 111.01985675833309,
                    "velocity": 0.6377952755905512,
                    "duration": 0.09090906666666854
                },
                {
                    "name": "D#7",
                    "midi": 99,
                    "time": 119.54826357499977,
                    "velocity": 0.6220472440944882,
                    "duration": 0.09090906666666854
                },
                {
                    "name": "D#7",
                    "midi": 99,
                    "time": 119.88917257499976,
                    "velocity": 0.6377952755905512,
                    "duration": 0.09090906666666854
                },
                {
                    "name": "D#7",
                    "midi": 99,
                    "time": 120.22155884999977,
                    "velocity": 0.6377952755905512,
                    "duration": 0.09090906666666854
                },
                {
                    "name": "D#7",
                    "midi": 99,
                    "time": 120.56814966666643,
                    "velocity": 0.6299212598425197,
                    "duration": 0.09090906666666854
                },
                {
                    "name": "D#7",
                    "midi": 99,
                    "time": 120.9062177583331,
                    "velocity": 0.6377952755905512,
                    "duration": 0.09090906666666854
                },
                {
                    "name": "D#7",
                    "midi": 99,
                    "time": 121.2556494833331,
                    "velocity": 0.6299212598425197,
                    "duration": 0.09090906666666854
                },
                {
                    "name": "C#7",
                    "midi": 97,
                    "time": 125.90905733333311,
                    "velocity": 0.6456692913385826,
                    "duration": 0.09090906666666854
                },
                {
                    "name": "C#7",
                    "midi": 97,
                    "time": 126.01985275833312,
                    "velocity": 0.6299212598425197,
                    "duration": 0.09090906666666854
                },
                {
                    "name": "D#7",
                    "midi": 99,
                    "time": 126.25280724166645,
                    "velocity": 0.6377952755905512,
                    "duration": 0.09090906666666854
                },
                {
                    "name": "D#7",
                    "midi": 99,
                    "time": 126.36360266666645,
                    "velocity": 0.6220472440944882,
                    "duration": 0.09090906666666854
                },
                {
                    "name": "F7",
                    "midi": 101,
                    "time": 130.00280624166646,
                    "velocity": 0.6141732283464567,
                    "duration": 0.09090906666665433
                },
                {
                    "name": "F7",
                    "midi": 101,
                    "time": 130.10791984999977,
                    "velocity": 0.6220472440944882,
                    "duration": 0.09090906666665433
                },
                {
                    "name": "F#7",
                    "midi": 102,
                    "time": 130.3408743333331,
                    "velocity": 0.6141732283464567,
                    "duration": 0.09090906666665433
                },
                {
                    "name": "F#7",
                    "midi": 102,
                    "time": 130.4545106666664,
                    "velocity": 0.6456692913385826,
                    "duration": 0.09090906666665433
                },
                {
                    "name": "C#7",
                    "midi": 97,
                    "time": 133.7528052416664,
                    "velocity": 0.6377952755905512,
                    "duration": 0.09090906666665433
                },
                {
                    "name": "C#7",
                    "midi": 97,
                    "time": 133.86644157499973,
                    "velocity": 0.6377952755905512,
                    "duration": 0.09090906666665433
                },
                {
                    "name": "C#7",
                    "midi": 97,
                    "time": 133.97155518333304,
                    "velocity": 0.6377952755905512,
                    "duration": 0.09090906666665433
                },
                {
                    "name": "C#7",
                    "midi": 97,
                    "time": 134.0965551499997,
                    "velocity": 0.6141732283464567,
                    "duration": 0.09090906666665433
                },
                {
                    "name": "C#7",
                    "midi": 97,
                    "time": 134.20450966666635,
                    "velocity": 0.6299212598425197,
                    "duration": 0.09090906666665433
                },
                {
                    "name": "C#7",
                    "midi": 97,
                    "time": 134.31530509166635,
                    "velocity": 0.6141732283464567,
                    "duration": 0.06818179999999074
                },
                {
                    "name": "D#7",
                    "midi": 99,
                    "time": 134.406214158333,
                    "velocity": 0.6141732283464567,
                    "duration": 0.06818179999999074
                },
                {
                    "name": "C#7",
                    "midi": 97,
                    "time": 134.49428231666633,
                    "velocity": 0.6456692913385826,
                    "duration": 0.06818179999999074
                },
                {
                    "name": "D#7",
                    "midi": 99,
                    "time": 134.57382774999965,
                    "velocity": 0.6299212598425197,
                    "duration": 0.06818179999999074
                },
                {
                    "name": "C#7",
                    "midi": 97,
                    "time": 134.6562140916663,
                    "velocity": 0.6141732283464567,
                    "duration": 0.06818179999999074
                },
                {
                    "name": "D#7",
                    "midi": 99,
                    "time": 134.74712315833295,
                    "velocity": 0.6456692913385826,
                    "duration": 0.06818179999999074
                },
                {
                    "name": "C#7",
                    "midi": 97,
                    "time": 134.8295094999996,
                    "velocity": 0.6456692913385826,
                    "duration": 0.06818179999999074
                },
                {
                    "name": "D#7",
                    "midi": 99,
                    "time": 134.91189584166625,
                    "velocity": 0.6299212598425197,
                    "duration": 0.06818179999999074
                },
                {
                    "name": "C#7",
                    "midi": 97,
                    "time": 134.99996399999958,
                    "velocity": 0.6220472440944882,
                    "duration": 0.06818179999999074
                },
                {
                    "name": "D#7",
                    "midi": 99,
                    "time": 135.08519124999958,
                    "velocity": 0.6220472440944882,
                    "duration": 0.06818179999999074
                },
                {
                    "name": "C#7",
                    "midi": 97,
                    "time": 135.1647366833329,
                    "velocity": 0.6141732283464567,
                    "duration": 0.06818179999999074
                },
                {
                    "name": "D#7",
                    "midi": 99,
                    "time": 135.25848665833288,
                    "velocity": 0.6299212598425197,
                    "duration": 0.06818179999999074
                },
                {
                    "name": "C#7",
                    "midi": 97,
                    "time": 135.43178206666622,
                    "velocity": 0.6377952755905512,
                    "duration": 0.06818179999999074
                },
                {
                    "name": "C#7",
                    "midi": 97,
                    "time": 135.6022365666662,
                    "velocity": 0.6141732283464567,
                    "duration": 0.06818179999999074
                },
                {
                    "name": "C#7",
                    "midi": 97,
                    "time": 135.76132743333284,
                    "velocity": 0.6299212598425197,
                    "duration": 0.06818179999999074
                },
                {
                    "name": "C#7",
                    "midi": 97,
                    "time": 135.93178193333281,
                    "velocity": 0.6456692913385826,
                    "duration": 0.06818179999999074
                },
                {
                    "name": "C#7",
                    "midi": 97,
                    "time": 136.10507734166615,
                    "velocity": 0.6141732283464567,
                    "duration": 0.06818179999999074
                },
                {
                    "name": "C#7",
                    "midi": 97,
                    "time": 136.28405456666613,
                    "velocity": 0.6299212598425197,
                    "duration": 0.06818179999999074
                },
                {
                    "name": "F#7",
                    "midi": 102,
                    "time": 140.79257609166612,
                    "velocity": 0.6377952755905512,
                    "duration": 0.2556817500000079
                },
                {
                    "name": "E7",
                    "midi": 100,
                    "time": 141.13632599999946,
                    "velocity": 0.6220472440944882,
                    "duration": 0.2556817500000079
                },
                {
                    "name": "D#7",
                    "midi": 99,
                    "time": 141.47439409166614,
                    "velocity": 0.6141732283464567,
                    "duration": 0.2556817500000079
                },
                {
                    "name": "C#7",
                    "midi": 97,
                    "time": 141.81530309166615,
                    "velocity": 0.6456692913385826,
                    "duration": 0.2556817500000079
                },
                {
                    "name": "D#7",
                    "midi": 99,
                    "time": 142.16189390833281,
                    "velocity": 0.6299212598425197,
                    "duration": 0.2556817500000079
                },
                {
                    "name": "E7",
                    "midi": 100,
                    "time": 142.50280290833282,
                    "velocity": 0.6456692913385826,
                    "duration": 0.2556817500000079
                },
                {
                    "name": "C#7",
                    "midi": 97,
                    "time": 142.83518918333283,
                    "velocity": 0.6220472440944882,
                    "duration": 0.1363636000000099
                },
                {
                    "name": "E7",
                    "midi": 100,
                    "time": 144.88064318333284,
                    "velocity": 0.6220472440944882,
                    "duration": 0.2556817500000079
                },
                {
                    "name": "D#7",
                    "midi": 99,
                    "time": 145.23007490833285,
                    "velocity": 0.6299212598425197,
                    "duration": 0.2556817500000079
                },
                {
                    "name": "C#7",
                    "midi": 97,
                    "time": 145.56530209166618,
                    "velocity": 0.6141732283464567,
                    "duration": 0.2556817500000079
                },
                {
                    "name": "C#7",
                    "midi": 97,
                    "time": 146.25280190833286,
                    "velocity": 0.6220472440944882,
                    "duration": 0.2556817500000079
                },
                {
                    "name": "D#7",
                    "midi": 99,
                    "time": 146.59371090833287,
                    "velocity": 0.6299212598425197,
                    "duration": 0.2556817500000079
                },
                {
                    "name": "C7",
                    "midi": 96,
                    "time": 149.3834828916662,
                    "velocity": 0.6141732283464567,
                    "duration": 0.05113635000000727
                },
                {
                    "name": "C#7",
                    "midi": 97,
                    "time": 149.44598287499954,
                    "velocity": 0.6141732283464567,
                    "duration": 0.05113635000000727
                },
                {
                    "name": "D7",
                    "midi": 98,
                    "time": 149.5170055833329,
                    "velocity": 0.6377952755905512,
                    "duration": 0.05113635000000727
                },
                {
                    "name": "D#7",
                    "midi": 99,
                    "time": 149.5766646583329,
                    "velocity": 0.6377952755905512,
                    "duration": 0.05113635000000727
                },
                {
                    "name": "E7",
                    "midi": 100,
                    "time": 149.63064191666624,
                    "velocity": 0.6220472440944882,
                    "duration": 0.05397725833333311
                },
                {
                    "name": "F#7",
                    "midi": 102,
                    "time": 149.70166462499958,
                    "velocity": 0.6299212598425197,
                    "duration": 0.05397725833333311
                },
                {
                    "name": "E7",
                    "midi": 100,
                    "time": 149.77552824166625,
                    "velocity": 0.6141732283464567,
                    "duration": 0.05397725833333311
                },
                {
                    "name": "D#7",
                    "midi": 99,
                    "time": 149.8465509499996,
                    "velocity": 0.6456692913385826,
                    "duration": 0.05397725833333311
                },
                {
                    "name": "D7",
                    "midi": 98,
                    "time": 149.91189184166626,
                    "velocity": 0.6220472440944882,
                    "duration": 0.05397725833333311
                },
                {
                    "name": "C#7",
                    "midi": 97,
                    "time": 149.9829145499996,
                    "velocity": 0.6141732283464567,
                    "duration": 0.05397725833333311
                },
                {
                    "name": "C7",
                    "midi": 96,
                    "time": 150.04825544166627,
                    "velocity": 0.6456692913385826,
                    "duration": 0.05397725833333311
                },
                {
                    "name": "C7",
                    "midi": 96,
                    "time": 153.47439089166627,
                    "velocity": 0.6141732283464567,
                    "duration": 0.05113635000000727
                },
                {
                    "name": "C#7",
                    "midi": 97,
                    "time": 153.5340499666663,
                    "velocity": 0.6220472440944882,
                    "duration": 0.05113635000000727
                },
                {
                    "name": "D7",
                    "midi": 98,
                    "time": 153.59654994999963,
                    "velocity": 0.6377952755905512,
                    "duration": 0.05113635000000727
                },
                {
                    "name": "D#7",
                    "midi": 99,
                    "time": 153.6704135666663,
                    "velocity": 0.6220472440944882,
                    "duration": 0.05113635000000727
                },
                {
                    "name": "E7",
                    "midi": 100,
                    "time": 153.7215499166663,
                    "velocity": 0.6377952755905512,
                    "duration": 0.05397725833333311
                },
                {
                    "name": "F#7",
                    "midi": 102,
                    "time": 153.7897317166663,
                    "velocity": 0.6377952755905512,
                    "duration": 0.05397725833333311
                },
                {
                    "name": "E7",
                    "midi": 100,
                    "time": 153.8579135166663,
                    "velocity": 0.6456692913385826,
                    "duration": 0.05397725833333311
                },
                {
                    "name": "D#7",
                    "midi": 99,
                    "time": 153.92893622499963,
                    "velocity": 0.6377952755905512,
                    "duration": 0.05397725833333311
                },
                {
                    "name": "D7",
                    "midi": 98,
                    "time": 153.9942771166663,
                    "velocity": 0.6456692913385826,
                    "duration": 0.05397725833333311
                },
                {
                    "name": "C#7",
                    "midi": 97,
                    "time": 154.0624589166663,
                    "velocity": 0.6456692913385826,
                    "duration": 0.05397725833333311
                },
                {
                    "name": "C7",
                    "midi": 96,
                    "time": 154.13348162499963,
                    "velocity": 0.6220472440944882,
                    "duration": 0.05397725833333311
                },
                {
                    "name": "C7",
                    "midi": 96,
                    "time": 155.5880266916663,
                    "velocity": 0.6456692913385826,
                    "duration": 0.05113635000000727
                },
                {
                    "name": "C#7",
                    "midi": 97,
                    "time": 155.65336758333297,
                    "velocity": 0.6456692913385826,
                    "duration": 0.05113635000000727
                },
                {
                    "name": "D7",
                    "midi": 98,
                    "time": 155.7073448416663,
                    "velocity": 0.6141732283464567,
                    "duration": 0.05113635000000727
                },
                {
                    "name": "D#7",
                    "midi": 99,
                    "time": 155.77268573333296,
                    "velocity": 0.6377952755905512,
                    "duration": 0.05113635000000727
                },
                {
                    "name": "E7",
                    "midi": 100,
                    "time": 155.8351857166663,
                    "velocity": 0.6220472440944882,
                    "duration": 0.05397725833333311
                },
                {
                    "name": "F#7",
                    "midi": 102,
                    "time": 155.89768569999964,
                    "velocity": 0.6141732283464567,
                    "duration": 0.05397725833333311
                },
                {
                    "name": "E7",
                    "midi": 100,
                    "time": 155.96586749999963,
                    "velocity": 0.6456692913385826,
                    "duration": 0.05397725833333311
                },
                {
                    "name": "D#7",
                    "midi": 99,
                    "time": 156.03404929999962,
                    "velocity": 0.6220472440944882,
                    "duration": 0.05397725833333311
                },
                {
                    "name": "D7",
                    "midi": 98,
                    "time": 156.1079129166663,
                    "velocity": 0.6141732283464567,
                    "duration": 0.05397725833333311
                },
                {
                    "name": "C#7",
                    "midi": 97,
                    "time": 156.17041289999963,
                    "velocity": 0.6220472440944882,
                    "duration": 0.05397725833333311
                },
                {
                    "name": "C7",
                    "midi": 96,
                    "time": 156.2442765166663,
                    "velocity": 0.6377952755905512,
                    "duration": 0.05397725833333311
                },
                {
                    "name": "C7",
                    "midi": 96,
                    "time": 157.6249579666663,
                    "velocity": 0.6220472440944882,
                    "duration": 0.05113635000000727
                },
                {
                    "name": "C#7",
                    "midi": 97,
                    "time": 157.69029885833297,
                    "velocity": 0.6456692913385826,
                    "duration": 0.05113635000000727
                },
                {
                    "name": "D7",
                    "midi": 98,
                    "time": 157.75563974999963,
                    "velocity": 0.6141732283464567,
                    "duration": 0.05113635000000727
                },
                {
                    "name": "D#7",
                    "midi": 99,
                    "time": 157.81813973333297,
                    "velocity": 0.6299212598425197,
                    "duration": 0.05113635000000727
                },
                {
                    "name": "E7",
                    "midi": 100,
                    "time": 157.88348062499963,
                    "velocity": 0.6141732283464567,
                    "duration": 0.05113635000000727
                },
                {
                    "name": "F#7",
                    "midi": 102,
                    "time": 157.93745788333297,
                    "velocity": 0.6456692913385826,
                    "duration": 0.05113635000000727
                },
                {
                    "name": "E7",
                    "midi": 100,
                    "time": 157.9999578666663,
                    "velocity": 0.6299212598425197,
                    "duration": 0.05113635000000727
                },
                {
                    "name": "D#7",
                    "midi": 99,
                    "time": 158.06529875833297,
                    "velocity": 0.6141732283464567,
                    "duration": 0.05113635000000727
                },
                {
                    "name": "D7",
                    "midi": 98,
                    "time": 158.133480558333,
                    "velocity": 0.6456692913385826,
                    "duration": 0.05113635000000727
                },
                {
                    "name": "D#7",
                    "midi": 99,
                    "time": 158.19598054166633,
                    "velocity": 0.6299212598425197,
                    "duration": 0.05113635000000727
                },
                {
                    "name": "C#7",
                    "midi": 97,
                    "time": 158.24995779999966,
                    "velocity": 0.6141732283464567,
                    "duration": 0.05113635000000727
                },
                {
                    "name": "C7",
                    "midi": 96,
                    "time": 158.31529869166633,
                    "velocity": 0.6299212598425197,
                    "duration": 0.05113635000000727
                },
                {
                    "name": "C#7",
                    "midi": 97,
                    "time": 158.38632139999967,
                    "velocity": 0.6456692913385826,
                    "duration": 0.05113635000000727
                },
                {
                    "name": "C7",
                    "midi": 96,
                    "time": 158.4459804749997,
                    "velocity": 0.6377952755905512,
                    "duration": 0.05113635000000727
                },
                {
                    "name": "C7",
                    "midi": 96,
                    "time": 166.24995566666635,
                    "velocity": 0.6220472440944882,
                    "duration": 0.05113635000000727
                },
                {
                    "name": "C#7",
                    "midi": 97,
                    "time": 166.36927381666635,
                    "velocity": 0.6456692913385826,
                    "duration": 0.05113635000000727
                },
                {
                    "name": "C7",
                    "midi": 96,
                    "time": 166.4317737999997,
                    "velocity": 0.6377952755905512,
                    "duration": 0.05113635000000727
                },
                {
                    "name": "D7",
                    "midi": 98,
                    "time": 166.4999555999997,
                    "velocity": 0.6141732283464567,
                    "duration": 0.05113635000000727
                },
                {
                    "name": "C#7",
                    "midi": 97,
                    "time": 166.5567737666664,
                    "velocity": 0.6220472440944882,
                    "duration": 0.05113635000000727
                },
                {
                    "name": "D#7",
                    "midi": 99,
                    "time": 166.62495556666642,
                    "velocity": 0.6299212598425197,
                    "duration": 0.05113635000000727
                },
                {
                    "name": "D7",
                    "midi": 98,
                    "time": 166.6817737333331,
                    "velocity": 0.6220472440944882,
                    "duration": 0.05113635000000727
                },
                {
                    "name": "D#7",
                    "midi": 99,
                    "time": 166.74711462499977,
                    "velocity": 0.6299212598425197,
                    "duration": 0.05113635000000727
                },
                {
                    "name": "D7",
                    "midi": 98,
                    "time": 166.8096146083331,
                    "velocity": 0.6456692913385826,
                    "duration": 0.05113635000000727
                },
                {
                    "name": "E7",
                    "midi": 100,
                    "time": 166.87779640833313,
                    "velocity": 0.6377952755905512,
                    "duration": 0.05113635000000727
                },
                {
                    "name": "D7",
                    "midi": 98,
                    "time": 166.9346145749998,
                    "velocity": 0.6456692913385826,
                    "duration": 0.05113635000000727
                },
                {
                    "name": "D#7",
                    "midi": 99,
                    "time": 167.00279637499983,
                    "velocity": 0.6377952755905512,
                    "duration": 0.05113634999997885
                },
                {
                    "name": "D7",
                    "midi": 98,
                    "time": 167.03972818333315,
                    "velocity": 0.6456692913385826,
                    "duration": 0.05113634999997885
                },
                {
                    "name": "E7",
                    "midi": 100,
                    "time": 167.1050690749998,
                    "velocity": 0.6377952755905512,
                    "duration": 0.05113635000000727
                },
                {
                    "name": "D7",
                    "midi": 98,
                    "time": 167.1647281499998,
                    "velocity": 0.6377952755905512,
                    "duration": 0.05113635000000727
                },
                {
                    "name": "D#7",
                    "midi": 99,
                    "time": 167.23859176666647,
                    "velocity": 0.6141732283464567,
                    "duration": 0.05113635000000727
                },
                {
                    "name": "D7",
                    "midi": 98,
                    "time": 167.29540993333316,
                    "velocity": 0.6141732283464567,
                    "duration": 0.05113635000000727
                },
                {
                    "name": "E7",
                    "midi": 100,
                    "time": 167.35506900833317,
                    "velocity": 0.6141732283464567,
                    "duration": 0.05113635000000727
                },
                {
                    "name": "D7",
                    "midi": 98,
                    "time": 167.4147280833332,
                    "velocity": 0.6220472440944882,
                    "duration": 0.05113635000000727
                },
                {
                    "name": "D#7",
                    "midi": 99,
                    "time": 167.4829098833332,
                    "velocity": 0.6141732283464567,
                    "duration": 0.05113635000000727
                },
                {
                    "name": "D7",
                    "midi": 98,
                    "time": 167.54825077499987,
                    "velocity": 0.6377952755905512,
                    "duration": 0.05113635000000727
                },
                {
                    "name": "E7",
                    "midi": 100,
                    "time": 167.60790984999988,
                    "velocity": 0.6377952755905512,
                    "duration": 0.05113635000000727
                },
                {
                    "name": "D7",
                    "midi": 98,
                    "time": 167.6675689249999,
                    "velocity": 0.6299212598425197,
                    "duration": 0.05113635000000727
                },
                {
                    "name": "D#7",
                    "midi": 99,
                    "time": 167.73290981666656,
                    "velocity": 0.6141732283464567,
                    "duration": 0.05113635000000727
                },
                {
                    "name": "D7",
                    "midi": 98,
                    "time": 167.7954097999999,
                    "velocity": 0.6220472440944882,
                    "duration": 0.05113635000000727
                },
                {
                    "name": "E7",
                    "midi": 100,
                    "time": 167.86075069166657,
                    "velocity": 0.6141732283464567,
                    "duration": 0.05113635000000727
                },
                {
                    "name": "D7",
                    "midi": 98,
                    "time": 167.9232506749999,
                    "velocity": 0.6377952755905512,
                    "duration": 0.05113635000000727
                },
                {
                    "name": "D#7",
                    "midi": 99,
                    "time": 167.98575065833325,
                    "velocity": 0.6299212598425197,
                    "duration": 0.05113635000000727
                },
                {
                    "name": "D7",
                    "midi": 98,
                    "time": 168.04540973333326,
                    "velocity": 0.6456692913385826,
                    "duration": 0.05113635000000727
                },
                {
                    "name": "D#7",
                    "midi": 99,
                    "time": 168.11359153333328,
                    "velocity": 0.6220472440944882,
                    "duration": 0.05113635000000727
                },
                {
                    "name": "E7",
                    "midi": 100,
                    "time": 168.16472788333328,
                    "velocity": 0.6220472440944882,
                    "duration": 0.05113635000000727
                },
                {
                    "name": "D#7",
                    "midi": 99,
                    "time": 168.22722786666662,
                    "velocity": 0.6299212598425197,
                    "duration": 0.05113635000000727
                },
                {
                    "name": "E7",
                    "midi": 100,
                    "time": 168.28972784999996,
                    "velocity": 0.6377952755905512,
                    "duration": 0.05113635000000727
                },
                {
                    "name": "D#7",
                    "midi": 99,
                    "time": 168.36359146666663,
                    "velocity": 0.6220472440944882,
                    "duration": 0.05113635000000727
                },
                {
                    "name": "E7",
                    "midi": 100,
                    "time": 168.42609144999997,
                    "velocity": 0.6220472440944882,
                    "duration": 0.05113635000000727
                },
                {
                    "name": "D#7",
                    "midi": 99,
                    "time": 168.47722779999998,
                    "velocity": 0.6377952755905512,
                    "duration": 0.05113635000000727
                },
                {
                    "name": "E7",
                    "midi": 100,
                    "time": 168.54825050833333,
                    "velocity": 0.6377952755905512,
                    "duration": 0.05113635000000727
                },
                {
                    "name": "D#7",
                    "midi": 99,
                    "time": 168.60222776666666,
                    "velocity": 0.6377952755905512,
                    "duration": 0.05113635000000727
                },
                {
                    "name": "E7",
                    "midi": 100,
                    "time": 168.67609138333333,
                    "velocity": 0.6299212598425197,
                    "duration": 0.05113635000000727
                },
                {
                    "name": "D#7",
                    "midi": 99,
                    "time": 168.73859136666667,
                    "velocity": 0.6299212598425197,
                    "duration": 0.05113635000000727
                },
                {
                    "name": "E7",
                    "midi": 100,
                    "time": 168.78972771666668,
                    "velocity": 0.6299212598425197,
                    "duration": 0.05113635000000727
                },
                {
                    "name": "D#7",
                    "midi": 99,
                    "time": 168.85506860833334,
                    "velocity": 0.6220472440944882,
                    "duration": 0.05113635000000727
                },
                {
                    "name": "E7",
                    "midi": 100,
                    "time": 168.91756859166668,
                    "velocity": 0.6299212598425197,
                    "duration": 0.05113635000000727
                },
                {
                    "name": "D#7",
                    "midi": 99,
                    "time": 168.98006857500002,
                    "velocity": 0.6141732283464567,
                    "duration": 0.05113635000000727
                },
                {
                    "name": "E7",
                    "midi": 100,
                    "time": 169.04540946666668,
                    "velocity": 0.6377952755905512,
                    "duration": 0.05113634999997885
                },
                {
                    "name": "D#7",
                    "midi": 99,
                    "time": 169.09370490833334,
                    "velocity": 0.6141732283464567,
                    "duration": 0.05113634999997885
                },
                {
                    "name": "E7",
                    "midi": 100,
                    "time": 169.15620489166665,
                    "velocity": 0.6456692913385826,
                    "duration": 0.05113635000000727
                },
                {
                    "name": "D#7",
                    "midi": 99,
                    "time": 169.2215457833333,
                    "velocity": 0.6220472440944882,
                    "duration": 0.05113635000000727
                },
                {
                    "name": "E7",
                    "midi": 100,
                    "time": 169.27836395,
                    "velocity": 0.6456692913385826,
                    "duration": 0.05113635000000727
                },
                {
                    "name": "D#7",
                    "midi": 99,
                    "time": 169.34086393333334,
                    "velocity": 0.6141732283464567,
                    "duration": 0.05113635000000727
                },
                {
                    "name": "E7",
                    "midi": 100,
                    "time": 169.406204825,
                    "velocity": 0.6141732283464567,
                    "duration": 0.05113635000000727
                },
                {
                    "name": "D#7",
                    "midi": 99,
                    "time": 169.46870480833334,
                    "velocity": 0.6456692913385826,
                    "duration": 0.05113635000000727
                },
                {
                    "name": "E7",
                    "midi": 100,
                    "time": 169.52268206666668,
                    "velocity": 0.6456692913385826,
                    "duration": 0.05113635000000727
                },
                {
                    "name": "D#7",
                    "midi": 99,
                    "time": 169.59654568333335,
                    "velocity": 0.6141732283464567,
                    "duration": 0.05113635000000727
                },
                {
                    "name": "E7",
                    "midi": 100,
                    "time": 169.65620475833336,
                    "velocity": 0.6456692913385826,
                    "duration": 0.05113635000000727
                },
                {
                    "name": "D#7",
                    "midi": 99,
                    "time": 169.72154565000002,
                    "velocity": 0.6456692913385826,
                    "duration": 0.05113635000000727
                },
                {
                    "name": "E7",
                    "midi": 100,
                    "time": 169.78120472500004,
                    "velocity": 0.6456692913385826,
                    "duration": 0.05113635000000727
                },
                {
                    "name": "D#7",
                    "midi": 99,
                    "time": 169.8465456166667,
                    "velocity": 0.6141732283464567,
                    "duration": 0.05113635000000727
                },
                {
                    "name": "E7",
                    "midi": 100,
                    "time": 169.9033637833334,
                    "velocity": 0.6299212598425197,
                    "duration": 0.05113635000000727
                },
                {
                    "name": "D#7",
                    "midi": 99,
                    "time": 169.9715455833334,
                    "velocity": 0.6141732283464567,
                    "duration": 0.05113635000000727
                },
                {
                    "name": "E7",
                    "midi": 100,
                    "time": 170.03404556666675,
                    "velocity": 0.6141732283464567,
                    "duration": 0.05113635000000727
                },
                {
                    "name": "D#7",
                    "midi": 99,
                    "time": 170.08518191666676,
                    "velocity": 0.6377952755905512,
                    "duration": 0.05113635000000727
                },
                {
                    "name": "E7",
                    "midi": 100,
                    "time": 170.1476819000001,
                    "velocity": 0.6456692913385826,
                    "duration": 0.05113635000000727
                },
                {
                    "name": "D#7",
                    "midi": 99,
                    "time": 170.2158637000001,
                    "velocity": 0.6456692913385826,
                    "duration": 0.05113635000000727
                },
                {
                    "name": "E7",
                    "midi": 100,
                    "time": 170.28404550000013,
                    "velocity": 0.6141732283464567,
                    "duration": 0.05113635000000727
                },
                {
                    "name": "D#7",
                    "midi": 99,
                    "time": 170.34086366666682,
                    "velocity": 0.6299212598425197,
                    "duration": 0.05113635000000727
                },
                {
                    "name": "E7",
                    "midi": 100,
                    "time": 170.40052274166683,
                    "velocity": 0.6220472440944882,
                    "duration": 0.05113635000000727
                },
                {
                    "name": "D#7",
                    "midi": 99,
                    "time": 170.46302272500017,
                    "velocity": 0.6456692913385826,
                    "duration": 0.05113635000000727
                },
                {
                    "name": "E7",
                    "midi": 100,
                    "time": 170.5312045250002,
                    "velocity": 0.6377952755905512,
                    "duration": 0.05113635000000727
                },
                {
                    "name": "D#7",
                    "midi": 99,
                    "time": 170.58518178333352,
                    "velocity": 0.6299212598425197,
                    "duration": 0.05113635000000727
                },
                {
                    "name": "E7",
                    "midi": 100,
                    "time": 170.6590454000002,
                    "velocity": 0.6141732283464567,
                    "duration": 0.05113635000000727
                },
                {
                    "name": "D#7",
                    "midi": 99,
                    "time": 170.7101817500002,
                    "velocity": 0.6456692913385826,
                    "duration": 0.05113635000000727
                },
                {
                    "name": "E7",
                    "midi": 100,
                    "time": 170.78120445833355,
                    "velocity": 0.6141732283464567,
                    "duration": 0.05113635000000727
                },
                {
                    "name": "D#7",
                    "midi": 99,
                    "time": 170.83518171666688,
                    "velocity": 0.6456692913385826,
                    "duration": 0.05113635000000727
                },
                {
                    "name": "E7",
                    "midi": 100,
                    "time": 170.90052260833355,
                    "velocity": 0.6377952755905512,
                    "duration": 0.05113635000000727
                },
                {
                    "name": "D#7",
                    "midi": 99,
                    "time": 170.96018168333356,
                    "velocity": 0.6141732283464567,
                    "duration": 0.05113635000000727
                },
                {
                    "name": "E7",
                    "midi": 100,
                    "time": 171.02552257500022,
                    "velocity": 0.6220472440944882,
                    "duration": 0.05113635000000727
                },
                {
                    "name": "D#7",
                    "midi": 99,
                    "time": 171.08518165000024,
                    "velocity": 0.6299212598425197,
                    "duration": 0.05113635000000727
                },
                {
                    "name": "D#7",
                    "midi": 99,
                    "time": 171.13915890833357,
                    "velocity": 0.6456692913385826,
                    "duration": 0.03409089999999537
                },
                {
                    "name": "E7",
                    "midi": 100,
                    "time": 171.1846134416669,
                    "velocity": 0.6456692913385826,
                    "duration": 0.03409089999999537
                },
                {
                    "name": "D#7",
                    "midi": 99,
                    "time": 171.21586343333357,
                    "velocity": 0.6220472440944882,
                    "duration": 0.03409089999999537
                },
                {
                    "name": "E7",
                    "midi": 100,
                    "time": 171.26699978333357,
                    "velocity": 0.6456692913385826,
                    "duration": 0.03409089999999537
                },
                {
                    "name": "D#7",
                    "midi": 99,
                    "time": 171.3124543166669,
                    "velocity": 0.6141732283464567,
                    "duration": 0.03409089999999537
                },
                {
                    "name": "E7",
                    "midi": 100,
                    "time": 171.3465452166669,
                    "velocity": 0.6141732283464567,
                    "duration": 0.03409089999999537
                },
                {
                    "name": "D#7",
                    "midi": 99,
                    "time": 171.39199975000022,
                    "velocity": 0.6377952755905512,
                    "duration": 0.03409089999999537
                },
                {
                    "name": "E7",
                    "midi": 100,
                    "time": 171.42893155833355,
                    "velocity": 0.6220472440944882,
                    "duration": 0.03409089999999537
                },
                {
                    "name": "D#7",
                    "midi": 99,
                    "time": 171.4772270000002,
                    "velocity": 0.6377952755905512,
                    "duration": 0.03409089999999537
                },
                {
                    "name": "E7",
                    "midi": 100,
                    "time": 171.51699971666687,
                    "velocity": 0.6220472440944882,
                    "duration": 0.03409089999999537
                },
                {
                    "name": "D#7",
                    "midi": 99,
                    "time": 171.56529515833353,
                    "velocity": 0.6220472440944882,
                    "duration": 0.03409089999999537
                },
                {
                    "name": "E7",
                    "midi": 100,
                    "time": 171.60790878333353,
                    "velocity": 0.6141732283464567,
                    "duration": 0.03409089999999537
                },
                {
                    "name": "D#7",
                    "midi": 99,
                    "time": 171.64199968333352,
                    "velocity": 0.6141732283464567,
                    "duration": 0.03409089999999537
                },
                {
                    "name": "E7",
                    "midi": 100,
                    "time": 171.69597694166686,
                    "velocity": 0.6377952755905512,
                    "duration": 0.03409089999999537
                },
                {
                    "name": "D#7",
                    "midi": 99,
                    "time": 171.73574965833353,
                    "velocity": 0.6456692913385826,
                    "duration": 0.03409089999999537
                },
                {
                    "name": "E7",
                    "midi": 100,
                    "time": 171.76984055833353,
                    "velocity": 0.6456692913385826,
                    "duration": 0.03409089999999537
                },
                {
                    "name": "D#7",
                    "midi": 99,
                    "time": 171.81813600000018,
                    "velocity": 0.6377952755905512,
                    "duration": 0.03409089999999537
                },
                {
                    "name": "E7",
                    "midi": 100,
                    "time": 171.8550678083335,
                    "velocity": 0.6141732283464567,
                    "duration": 0.03409089999999537
                },
                {
                    "name": "D#7",
                    "midi": 99,
                    "time": 171.90052234166683,
                    "velocity": 0.6220472440944882,
                    "duration": 0.03409089999999537
                },
                {
                    "name": "E7",
                    "midi": 100,
                    "time": 171.9402950583335,
                    "velocity": 0.6377952755905512,
                    "duration": 0.03409089999999537
                },
                {
                    "name": "D#7",
                    "midi": 99,
                    "time": 171.98859050000016,
                    "velocity": 0.6220472440944882,
                    "duration": 0.03409089999999537
                },
                {
                    "name": "E7",
                    "midi": 100,
                    "time": 172.03120412500016,
                    "velocity": 0.6377952755905512,
                    "duration": 0.03409089999999537
                },
                {
                    "name": "D#7",
                    "midi": 99,
                    "time": 172.0794995666668,
                    "velocity": 0.6141732283464567,
                    "duration": 0.03409089999999537
                },
                {
                    "name": "E7",
                    "midi": 100,
                    "time": 172.1221131916668,
                    "velocity": 0.6299212598425197,
                    "duration": 0.03409089999999537
                },
                {
                    "name": "D#7",
                    "midi": 99,
                    "time": 172.1562040916668,
                    "velocity": 0.6141732283464567,
                    "duration": 0.06818179999999074
                },
                {
                    "name": "E7",
                    "midi": 100,
                    "time": 172.24427225000014,
                    "velocity": 0.6299212598425197,
                    "duration": 0.06818179999999074
                },
                {
                    "name": "D#7",
                    "midi": 99,
                    "time": 172.33234040833347,
                    "velocity": 0.6299212598425197,
                    "duration": 0.06818179999999074
                },
                {
                    "name": "E7",
                    "midi": 100,
                    "time": 172.40904493333346,
                    "velocity": 0.6377952755905512,
                    "duration": 0.06818179999999074
                },
                {
                    "name": "D#7",
                    "midi": 99,
                    "time": 172.49995400000012,
                    "velocity": 0.6299212598425197,
                    "duration": 0.06818179999999074
                },
                {
                    "name": "E7",
                    "midi": 100,
                    "time": 172.58802215833344,
                    "velocity": 0.6141732283464567,
                    "duration": 0.06818179999999074
                },
                {
                    "name": "D#7",
                    "midi": 99,
                    "time": 172.67324940833345,
                    "velocity": 0.6299212598425197,
                    "duration": 0.06818179999999074
                },
                {
                    "name": "E7",
                    "midi": 100,
                    "time": 172.76131756666678,
                    "velocity": 0.6377952755905512,
                    "duration": 0.06818179999999074
                },
                {
                    "name": "D#7",
                    "midi": 99,
                    "time": 172.8408630000001,
                    "velocity": 0.6456692913385826,
                    "duration": 0.06818179999999074
                },
                {
                    "name": "E7",
                    "midi": 100,
                    "time": 172.92893115833343,
                    "velocity": 0.6377952755905512,
                    "duration": 0.06818179999999074
                },
                {
                    "name": "D#7",
                    "midi": 99,
                    "time": 173.01415840833343,
                    "velocity": 0.6377952755905512,
                    "duration": 0.06818179999999074
                },
                {
                    "name": "E7",
                    "midi": 100,
                    "time": 173.10222656666676,
                    "velocity": 0.6377952755905512,
                    "duration": 0.06818179999999074
                },
                {
                    "name": "D#7",
                    "midi": 99,
                    "time": 173.17893109166675,
                    "velocity": 0.6299212598425197,
                    "duration": 0.06818179999999074
                },
                {
                    "name": "E7",
                    "midi": 100,
                    "time": 173.2698401583334,
                    "velocity": 0.6456692913385826,
                    "duration": 0.06818179999999074
                },
                {
                    "name": "D#7",
                    "midi": 99,
                    "time": 173.3465446833334,
                    "velocity": 0.6377952755905512,
                    "duration": 0.06818179999999074
                },
                {
                    "name": "E7",
                    "midi": 100,
                    "time": 173.44313556666674,
                    "velocity": 0.6299212598425197,
                    "duration": 0.06818179999999074
                },
                {
                    "name": "D#7",
                    "midi": 99,
                    "time": 173.51984009166674,
                    "velocity": 0.6220472440944882,
                    "duration": 0.06818179999999074
                },
                {
                    "name": "E7",
                    "midi": 100,
                    "time": 173.60790825000007,
                    "velocity": 0.6456692913385826,
                    "duration": 0.06818179999999074
                },
                {
                    "name": "D#7",
                    "midi": 99,
                    "time": 173.69313550000007,
                    "velocity": 0.6141732283464567,
                    "duration": 0.06818179999999074
                },
                {
                    "name": "E7",
                    "midi": 100,
                    "time": 173.77836275000007,
                    "velocity": 0.6456692913385826,
                    "duration": 0.06818179999999074
                },
                {
                    "name": "D#7",
                    "midi": 99,
                    "time": 173.86074909166672,
                    "velocity": 0.6377952755905512,
                    "duration": 0.06818179999999074
                },
                {
                    "name": "E7",
                    "midi": 100,
                    "time": 173.95165815833337,
                    "velocity": 0.6141732283464567,
                    "duration": 0.06818179999999074
                },
                {
                    "name": "D#7",
                    "midi": 99,
                    "time": 174.0312035916667,
                    "velocity": 0.6299212598425197,
                    "duration": 0.06818179999999074
                },
                {
                    "name": "E7",
                    "midi": 100,
                    "time": 174.12211265833335,
                    "velocity": 0.6141732283464567,
                    "duration": 0.06818179999999074
                },
                {
                    "name": "D#7",
                    "midi": 99,
                    "time": 174.20165809166667,
                    "velocity": 0.6299212598425197,
                    "duration": 0.06818179999999074
                },
                {
                    "name": "E7",
                    "midi": 100,
                    "time": 174.28404443333332,
                    "velocity": 0.6220472440944882,
                    "duration": 0.06818179999999074
                },
                {
                    "name": "D#7",
                    "midi": 99,
                    "time": 174.37211259166665,
                    "velocity": 0.6141732283464567,
                    "duration": 0.06818179999999074
                },
                {
                    "name": "E7",
                    "midi": 100,
                    "time": 174.4544989333333,
                    "velocity": 0.6456692913385826,
                    "duration": 0.06818179999999074
                },
                {
                    "name": "D#7",
                    "midi": 99,
                    "time": 174.5397261833333,
                    "velocity": 0.6220472440944882,
                    "duration": 0.06818179999999074
                },
                {
                    "name": "E7",
                    "midi": 100,
                    "time": 174.6249534333333,
                    "velocity": 0.6141732283464567,
                    "duration": 0.06818179999999074
                },
                {
                    "name": "D#7",
                    "midi": 99,
                    "time": 174.71302159166663,
                    "velocity": 0.6220472440944882,
                    "duration": 0.06818179999999074
                },
                {
                    "name": "E7",
                    "midi": 100,
                    "time": 174.80108974999996,
                    "velocity": 0.6456692913385826,
                    "duration": 0.06818179999999074
                },
                {
                    "name": "D#7",
                    "midi": 99,
                    "time": 174.88631699999996,
                    "velocity": 0.6220472440944882,
                    "duration": 0.06818179999999074
                },
                {
                    "name": "E7",
                    "midi": 100,
                    "time": 174.9687033416666,
                    "velocity": 0.6141732283464567,
                    "duration": 0.06818179999999074
                },
                {
                    "name": "D#7",
                    "midi": 99,
                    "time": 175.05108968333326,
                    "velocity": 0.6456692913385826,
                    "duration": 0.06818179999999074
                },
                {
                    "name": "E7",
                    "midi": 100,
                    "time": 175.13631693333326,
                    "velocity": 0.6141732283464567,
                    "duration": 0.06818179999999074
                },
                {
                    "name": "D#7",
                    "midi": 99,
                    "time": 175.23006690833324,
                    "velocity": 0.6377952755905512,
                    "duration": 0.06818179999999074
                },
                {
                    "name": "E7",
                    "midi": 100,
                    "time": 175.31529415833324,
                    "velocity": 0.6141732283464567,
                    "duration": 0.06818179999999074
                },
                {
                    "name": "D#7",
                    "midi": 99,
                    "time": 175.40336231666657,
                    "velocity": 0.6377952755905512,
                    "duration": 0.06818179999999074
                },
                {
                    "name": "E7",
                    "midi": 100,
                    "time": 175.4829077499999,
                    "velocity": 0.6141732283464567,
                    "duration": 0.06818179999999074
                },
                {
                    "name": "D#7",
                    "midi": 99,
                    "time": 175.57097590833322,
                    "velocity": 0.6456692913385826,
                    "duration": 0.06818179999999074
                },
                {
                    "name": "E7",
                    "midi": 100,
                    "time": 175.65904406666655,
                    "velocity": 0.6377952755905512,
                    "duration": 0.06818179999999074
                },
                {
                    "name": "D#7",
                    "midi": 99,
                    "time": 175.73858949999988,
                    "velocity": 0.6299212598425197,
                    "duration": 0.06818179999999074
                },
                {
                    "name": "E7",
                    "midi": 100,
                    "time": 175.82381674999988,
                    "velocity": 0.6141732283464567,
                    "duration": 0.06818179999999074
                },
                {
                    "name": "D#7",
                    "midi": 99,
                    "time": 175.9033621833332,
                    "velocity": 0.6141732283464567,
                    "duration": 0.06818179999999074
                },
                {
                    "name": "E7",
                    "midi": 100,
                    "time": 175.99711215833318,
                    "velocity": 0.6377952755905512,
                    "duration": 0.06818179999999074
                },
                {
                    "name": "D#7",
                    "midi": 99,
                    "time": 176.0851803166665,
                    "velocity": 0.6220472440944882,
                    "duration": 0.06818179999999074
                },
                {
                    "name": "E7",
                    "midi": 100,
                    "time": 176.15904393333318,
                    "velocity": 0.6141732283464567,
                    "duration": 0.06818179999999074
                },
                {
                    "name": "D#7",
                    "midi": 99,
                    "time": 176.25563481666651,
                    "velocity": 0.6220472440944882,
                    "duration": 0.06818179999999074
                },
                {
                    "name": "E7",
                    "midi": 100,
                    "time": 176.34086206666652,
                    "velocity": 0.6456692913385826,
                    "duration": 0.06818179999999074
                },
                {
                    "name": "D#7",
                    "midi": 99,
                    "time": 176.42608931666652,
                    "velocity": 0.6141732283464567,
                    "duration": 0.06818179999999074
                },
                {
                    "name": "E7",
                    "midi": 100,
                    "time": 176.50847565833317,
                    "velocity": 0.6141732283464567,
                    "duration": 0.06818179999999074
                },
                {
                    "name": "D#7",
                    "midi": 99,
                    "time": 176.58518018333316,
                    "velocity": 0.6141732283464567,
                    "duration": 0.06818179999999074
                },
                {
                    "name": "E7",
                    "midi": 100,
                    "time": 176.67893015833315,
                    "velocity": 0.6299212598425197,
                    "duration": 0.06818179999999074
                },
                {
                    "name": "D#7",
                    "midi": 99,
                    "time": 176.76699831666647,
                    "velocity": 0.6377952755905512,
                    "duration": 0.06818179999999074
                },
                {
                    "name": "E7",
                    "midi": 100,
                    "time": 176.84370284166647,
                    "velocity": 0.6299212598425197,
                    "duration": 0.06818179999999074
                },
                {
                    "name": "D#7",
                    "midi": 99,
                    "time": 176.92608918333312,
                    "velocity": 0.6456692913385826,
                    "duration": 0.06818179999999074
                },
                {
                    "name": "E7",
                    "midi": 100,
                    "time": 177.0198391583331,
                    "velocity": 0.6456692913385826,
                    "duration": 0.06818179999999074
                },
                {
                    "name": "D#7",
                    "midi": 99,
                    "time": 177.1050664083331,
                    "velocity": 0.6220472440944882,
                    "duration": 0.06818179999999074
                },
                {
                    "name": "E7",
                    "midi": 100,
                    "time": 177.19313456666643,
                    "velocity": 0.6456692913385826,
                    "duration": 0.06818179999999074
                },
                {
                    "name": "D#7",
                    "midi": 99,
                    "time": 177.2669981833331,
                    "velocity": 0.6220472440944882,
                    "duration": 0.06818179999999074
                },
                {
                    "name": "E7",
                    "midi": 100,
                    "time": 177.35506634166643,
                    "velocity": 0.6220472440944882,
                    "duration": 0.06818179999999074
                },
                {
                    "name": "D#7",
                    "midi": 99,
                    "time": 177.44313449999976,
                    "velocity": 0.6377952755905512,
                    "duration": 0.06818179999999074
                },
                {
                    "name": "E7",
                    "midi": 100,
                    "time": 177.52267993333308,
                    "velocity": 0.6141732283464567,
                    "duration": 0.06818179999999074
                },
                {
                    "name": "D#7",
                    "midi": 99,
                    "time": 177.60790718333308,
                    "velocity": 0.6141732283464567,
                    "duration": 0.06818179999999074
                },
                {
                    "name": "E7",
                    "midi": 100,
                    "time": 177.6959753416664,
                    "velocity": 0.6141732283464567,
                    "duration": 0.06818179999999074
                },
                {
                    "name": "D#7",
                    "midi": 99,
                    "time": 177.77836168333306,
                    "velocity": 0.6141732283464567,
                    "duration": 0.06818179999999074
                },
                {
                    "name": "E7",
                    "midi": 100,
                    "time": 177.8749525666664,
                    "velocity": 0.6456692913385826,
                    "duration": 0.06818179999999074
                },
                {
                    "name": "D#7",
                    "midi": 99,
                    "time": 177.95733890833304,
                    "velocity": 0.6299212598425197,
                    "duration": 0.06818179999999074
                },
                {
                    "name": "E7",
                    "midi": 100,
                    "time": 178.04256615833305,
                    "velocity": 0.6377952755905512,
                    "duration": 0.06818179999999074
                },
                {
                    "name": "D#7",
                    "midi": 99,
                    "time": 178.11927068333304,
                    "velocity": 0.6377952755905512,
                    "duration": 0.06818179999999074
                },
                {
                    "name": "E7",
                    "midi": 100,
                    "time": 178.2101797499997,
                    "velocity": 0.6220472440944882,
                    "duration": 0.06818179999999074
                },
                {
                    "name": "D#7",
                    "midi": 99,
                    "time": 178.30108881666635,
                    "velocity": 0.6141732283464567,
                    "duration": 0.06818179999999074
                },
                {
                    "name": "E7",
                    "midi": 100,
                    "time": 178.37495243333302,
                    "velocity": 0.6141732283464567,
                    "duration": 0.06818179999999074
                },
                {
                    "name": "D#7",
                    "midi": 99,
                    "time": 178.47154331666636,
                    "velocity": 0.6377952755905512,
                    "duration": 0.06818179999999074
                },
                {
                    "name": "E7",
                    "midi": 100,
                    "time": 178.553929658333,
                    "velocity": 0.6377952755905512,
                    "duration": 0.06818179999999074
                },
                {
                    "name": "D#7",
                    "midi": 99,
                    "time": 178.63631599999965,
                    "velocity": 0.6220472440944882,
                    "duration": 0.06818179999999074
                },
                {
                    "name": "E7",
                    "midi": 100,
                    "time": 178.7272250666663,
                    "velocity": 0.6377952755905512,
                    "duration": 0.06818179999999074
                },
                {
                    "name": "D#7",
                    "midi": 99,
                    "time": 178.80108868333298,
                    "velocity": 0.6377952755905512,
                    "duration": 0.06818179999999074
                },
                {
                    "name": "E7",
                    "midi": 100,
                    "time": 178.89199774999963,
                    "velocity": 0.6141732283464567,
                    "duration": 0.06818179999999074
                },
                {
                    "name": "D#7",
                    "midi": 99,
                    "time": 178.98006590833296,
                    "velocity": 0.6141732283464567,
                    "duration": 0.06818179999999074
                },
                {
                    "name": "E7",
                    "midi": 100,
                    "time": 179.05677043333296,
                    "velocity": 0.6141732283464567,
                    "duration": 0.06818179999999074
                },
                {
                    "name": "D#7",
                    "midi": 99,
                    "time": 179.1533613166663,
                    "velocity": 0.6456692913385826,
                    "duration": 0.06818179999999074
                },
                {
                    "name": "E7",
                    "midi": 100,
                    "time": 179.2300658416663,
                    "velocity": 0.6141732283464567,
                    "duration": 0.06818179999999074
                },
                {
                    "name": "D#7",
                    "midi": 99,
                    "time": 179.3152930916663,
                    "velocity": 0.6456692913385826,
                    "duration": 0.06818179999999074
                },
                {
                    "name": "E7",
                    "midi": 100,
                    "time": 179.4005203416663,
                    "velocity": 0.6456692913385826,
                    "duration": 0.06818179999999074
                },
                {
                    "name": "D#7",
                    "midi": 99,
                    "time": 179.49427031666627,
                    "velocity": 0.6299212598425197,
                    "duration": 0.06818179999999074
                },
                {
                    "name": "E7",
                    "midi": 100,
                    "time": 179.56813393333294,
                    "velocity": 0.6299212598425197,
                    "duration": 0.06818179999999074
                },
                {
                    "name": "D#7",
                    "midi": 99,
                    "time": 179.6590429999996,
                    "velocity": 0.6141732283464567,
                    "duration": 0.06818179999999074
                },
                {
                    "name": "E7",
                    "midi": 100,
                    "time": 179.74995206666625,
                    "velocity": 0.6299212598425197,
                    "duration": 0.06818179999999074
                },
                {
                    "name": "D#7",
                    "midi": 99,
                    "time": 179.82665659166625,
                    "velocity": 0.6299212598425197,
                    "duration": 0.06818179999999074
                },
                {
                    "name": "E7",
                    "midi": 100,
                    "time": 179.91472474999958,
                    "velocity": 0.6141732283464567,
                    "duration": 0.06818179999999074
                },
                {
                    "name": "D#7",
                    "midi": 99,
                    "time": 180.00563381666623,
                    "velocity": 0.6299212598425197,
                    "duration": 0.06818179999999074
                },
                {
                    "name": "E7",
                    "midi": 100,
                    "time": 180.09086106666624,
                    "velocity": 0.6299212598425197,
                    "duration": 0.06818179999999074
                },
                {
                    "name": "D#7",
                    "midi": 99,
                    "time": 180.17608831666624,
                    "velocity": 0.6141732283464567,
                    "duration": 0.06818179999999074
                },
                {
                    "name": "E7",
                    "midi": 100,
                    "time": 180.2584746583329,
                    "velocity": 0.6141732283464567,
                    "duration": 0.06818179999999074
                },
                {
                    "name": "D#7",
                    "midi": 99,
                    "time": 180.34086099999953,
                    "velocity": 0.6456692913385826,
                    "duration": 0.06818179999999074
                },
                {
                    "name": "E7",
                    "midi": 100,
                    "time": 180.42324734166618,
                    "velocity": 0.6299212598425197,
                    "duration": 0.06818179999999074
                },
                {
                    "name": "D#7",
                    "midi": 99,
                    "time": 180.50563368333283,
                    "velocity": 0.6456692913385826,
                    "duration": 0.06818179999999074
                },
                {
                    "name": "E7",
                    "midi": 100,
                    "time": 180.5993836583328,
                    "velocity": 0.6299212598425197,
                    "duration": 0.06818179999999074
                },
                {
                    "name": "D#7",
                    "midi": 99,
                    "time": 180.68176999999946,
                    "velocity": 0.6299212598425197,
                    "duration": 0.06818179999999074
                },
                {
                    "name": "E7",
                    "midi": 100,
                    "time": 180.7698381583328,
                    "velocity": 0.6141732283464567,
                    "duration": 0.06818179999999074
                },
                {
                    "name": "D#7",
                    "midi": 99,
                    "time": 180.85790631666612,
                    "velocity": 0.6141732283464567,
                    "duration": 0.06818179999999074
                },
                {
                    "name": "E7",
                    "midi": 100,
                    "time": 180.93745174999944,
                    "velocity": 0.6377952755905512,
                    "duration": 0.06818179999999074
                },
                {
                    "name": "D#7",
                    "midi": 99,
                    "time": 181.02267899999944,
                    "velocity": 0.6456692913385826,
                    "duration": 0.06818179999999074
                },
                {
                    "name": "E7",
                    "midi": 100,
                    "time": 181.1050653416661,
                    "velocity": 0.6377952755905512,
                    "duration": 0.06818179999999074
                },
                {
                    "name": "D#7",
                    "midi": 99,
                    "time": 181.1902925916661,
                    "velocity": 0.6299212598425197,
                    "duration": 0.06818179999999074
                },
                {
                    "name": "E7",
                    "midi": 100,
                    "time": 181.27267893333274,
                    "velocity": 0.6141732283464567,
                    "duration": 0.06818179999999074
                },
                {
                    "name": "D#7",
                    "midi": 99,
                    "time": 181.35790618333274,
                    "velocity": 0.6141732283464567,
                    "duration": 0.06818179999999074
                },
                {
                    "name": "E7",
                    "midi": 100,
                    "time": 181.44597434166607,
                    "velocity": 0.6377952755905512,
                    "duration": 0.06818179999999074
                },
                {
                    "name": "D#7",
                    "midi": 99,
                    "time": 181.53688340833273,
                    "velocity": 0.6220472440944882,
                    "duration": 0.06818179999999074
                },
                {
                    "name": "D#7",
                    "midi": 99,
                    "time": 182.38631499999937,
                    "velocity": 0.6377952755905512,
                    "duration": 0.06818179999999074
                },
                {
                    "name": "E7",
                    "midi": 100,
                    "time": 182.46870134166602,
                    "velocity": 0.6141732283464567,
                    "duration": 0.06818179999999074
                },
                {
                    "name": "D#7",
                    "midi": 99,
                    "time": 182.55108768333267,
                    "velocity": 0.6299212598425197,
                    "duration": 0.06818179999999074
                },
                {
                    "name": "D#7",
                    "midi": 99,
                    "time": 183.40336018333267,
                    "velocity": 0.6377952755905512,
                    "duration": 0.06818179999999074
                },
                {
                    "name": "E7",
                    "midi": 100,
                    "time": 183.49426924999932,
                    "velocity": 0.6220472440944882,
                    "duration": 0.06818179999999074
                },
                {
                    "name": "D#7",
                    "midi": 99,
                    "time": 183.58517831666597,
                    "velocity": 0.6141732283464567,
                    "duration": 0.06818179999999074
                },
                {
                    "name": "D#7",
                    "midi": 99,
                    "time": 184.43745081666597,
                    "velocity": 0.6377952755905512,
                    "duration": 0.06818179999999074
                },
                {
                    "name": "E7",
                    "midi": 100,
                    "time": 184.52267806666597,
                    "velocity": 0.6377952755905512,
                    "duration": 0.06818179999999074
                },
                {
                    "name": "D#7",
                    "midi": 99,
                    "time": 184.59654168333265,
                    "velocity": 0.6220472440944882,
                    "duration": 0.06818179999999074
                },
                {
                    "name": "D#7",
                    "midi": 99,
                    "time": 185.45165509166597,
                    "velocity": 0.6456692913385826,
                    "duration": 0.06818179999999074
                },
                {
                    "name": "E7",
                    "midi": 100,
                    "time": 185.53688234166597,
                    "velocity": 0.6141732283464567,
                    "duration": 0.06818179999999074
                },
                {
                    "name": "D#7",
                    "midi": 99,
                    "time": 185.62210959166597,
                    "velocity": 0.6220472440944882,
                    "duration": 0.06818179999999074
                },
                {
                    "name": "D#7",
                    "midi": 99,
                    "time": 186.48290481666598,
                    "velocity": 0.6377952755905512,
                    "duration": 0.0823863416666768
                },
                {
                    "name": "E7",
                    "midi": 100,
                    "time": 186.55676843333265,
                    "velocity": 0.6141732283464567,
                    "duration": 0.0823863416666768
                },
                {
                    "name": "D#7",
                    "midi": 99,
                    "time": 186.65335931666598,
                    "velocity": 0.6220472440944882,
                    "duration": 0.0823863416666768
                },
                {
                    "name": "D#7",
                    "midi": 99,
                    "time": 188.60790424999934,
                    "velocity": 0.6141732283464567,
                    "duration": 0.06818179999999074
                },
                {
                    "name": "E7",
                    "midi": 100,
                    "time": 188.69029059166598,
                    "velocity": 0.6456692913385826,
                    "duration": 0.06818179999999074
                },
                {
                    "name": "D#7",
                    "midi": 99,
                    "time": 188.78404056666596,
                    "velocity": 0.6141732283464567,
                    "duration": 0.06818179999999074
                },
                {
                    "name": "D#7",
                    "midi": 99,
                    "time": 188.9488132499993,
                    "velocity": 0.6141732283464567,
                    "duration": 0.06818179999999074
                },
                {
                    "name": "E7",
                    "midi": 100,
                    "time": 189.0283586833326,
                    "velocity": 0.6456692913385826,
                    "duration": 0.06818179999999074
                },
                {
                    "name": "D#7",
                    "midi": 99,
                    "time": 189.12494956666595,
                    "velocity": 0.6141732283464567,
                    "duration": 0.06818179999999074
                },
                {
                    "name": "C#7",
                    "midi": 97,
                    "time": 189.2925631583326,
                    "velocity": 0.6377952755905512,
                    "duration": 0.06818179999999074
                },
                {
                    "name": "D#7",
                    "midi": 99,
                    "time": 189.3777904083326,
                    "velocity": 0.6299212598425197,
                    "duration": 0.06818179999999074
                },
                {
                    "name": "C#7",
                    "midi": 97,
                    "time": 189.4630176583326,
                    "velocity": 0.6456692913385826,
                    "duration": 0.06818179999999074
                },
                {
                    "name": "C#7",
                    "midi": 97,
                    "time": 189.71301759166593,
                    "velocity": 0.6456692913385826,
                    "duration": 0.06818179999999074
                },
                {
                    "name": "C#7",
                    "midi": 97,
                    "time": 190.0596084083326,
                    "velocity": 0.6299212598425197,
                    "duration": 0.06818179999999074
                },
                {
                    "name": "D#7",
                    "midi": 99,
                    "time": 196.78403843333257,
                    "velocity": 0.6377952755905512,
                    "duration": 0.06818179999999074
                },
                {
                    "name": "E7",
                    "midi": 100,
                    "time": 196.8721065916659,
                    "velocity": 0.6299212598425197,
                    "duration": 0.06818179999999074
                },
                {
                    "name": "D#7",
                    "midi": 99,
                    "time": 196.96585656666588,
                    "velocity": 0.6141732283464567,
                    "duration": 0.06818179999999074
                },
                {
                    "name": "D#7",
                    "midi": 99,
                    "time": 197.12494743333252,
                    "velocity": 0.6141732283464567,
                    "duration": 0.06818179999999074
                },
                {
                    "name": "E7",
                    "midi": 100,
                    "time": 197.22153831666586,
                    "velocity": 0.6299212598425197,
                    "duration": 0.06818179999999074
                },
                {
                    "name": "D#7",
                    "midi": 99,
                    "time": 197.3039246583325,
                    "velocity": 0.6299212598425197,
                    "duration": 0.06818179999999074
                },
                {
                    "name": "C#7",
                    "midi": 97,
                    "time": 197.47437915833248,
                    "velocity": 0.6456692913385826,
                    "duration": 0.06818179999999074
                },
                {
                    "name": "D#7",
                    "midi": 99,
                    "time": 197.55960640833248,
                    "velocity": 0.6141732283464567,
                    "duration": 0.06818179999999074
                },
                {
                    "name": "C#7",
                    "midi": 97,
                    "time": 197.6476745666658,
                    "velocity": 0.6456692913385826,
                    "duration": 0.06818179999999074
                },
                {
                    "name": "C7",
                    "midi": 96,
                    "time": 197.80676543333246,
                    "velocity": 0.6141732283464567,
                    "duration": 0.06818179999999074
                },
                {
                    "name": "C#7",
                    "midi": 97,
                    "time": 197.8948335916658,
                    "velocity": 0.6299212598425197,
                    "duration": 0.06818179999999074
                },
                {
                    "name": "C7",
                    "midi": 96,
                    "time": 197.98574265833244,
                    "velocity": 0.6299212598425197,
                    "duration": 0.06818179999999074
                },
                {
                    "name": "C7",
                    "midi": 96,
                    "time": 198.15051534166577,
                    "velocity": 0.6220472440944882,
                    "duration": 0.06818179999999074
                },
                {
                    "name": "C#7",
                    "midi": 97,
                    "time": 198.2385834999991,
                    "velocity": 0.6220472440944882,
                    "duration": 0.06818179999999074
                },
                {
                    "name": "C7",
                    "midi": 96,
                    "time": 198.32665165833242,
                    "velocity": 0.6220472440944882,
                    "duration": 0.06818179999999074
                },
                {
                    "name": "C7",
                    "midi": 96,
                    "time": 203.12778674166574,
                    "velocity": 0.6220472440944882,
                    "duration": 0.04545453333332716
                },
                {
                    "name": "C#7",
                    "midi": 97,
                    "time": 203.17892309166575,
                    "velocity": 0.6377952755905512,
                    "duration": 0.04545453333332716
                },
                {
                    "name": "D7",
                    "midi": 98,
                    "time": 203.24426398333242,
                    "velocity": 0.6299212598425197,
                    "duration": 0.04545453333332716
                },
                {
                    "name": "D#7",
                    "midi": 99,
                    "time": 203.29824124166575,
                    "velocity": 0.6377952755905512,
                    "duration": 0.04545453333332716
                },
                {
                    "name": "F#7",
                    "midi": 102,
                    "time": 203.34937759166576,
                    "velocity": 0.6299212598425197,
                    "duration": 0.04545453333332716
                },
                {
                    "name": "E7",
                    "midi": 100,
                    "time": 203.4118775749991,
                    "velocity": 0.6456692913385826,
                    "duration": 0.04545453333332716
                },
                {
                    "name": "C#7",
                    "midi": 97,
                    "time": 203.46869574166575,
                    "velocity": 0.6220472440944882,
                    "duration": 0.04545453333332716
                },
                {
                    "name": "D#7",
                    "midi": 99,
                    "time": 213.92607931666575,
                    "velocity": 0.6220472440944882,
                    "duration": 0.10227269999998612
                },
                {
                    "name": "C#7",
                    "midi": 97,
                    "time": 217.5027829083324,
                    "velocity": 0.6377952755905512,
                    "duration": 0.10227269999998612
                },
                {
                    "name": "C#7",
                    "midi": 97,
                    "time": 217.67607831666572,
                    "velocity": 0.6220472440944882,
                    "duration": 0.10227269999998612
                },
                {
                    "name": "F#7",
                    "midi": 102,
                    "time": 223.63630399999903,
                    "velocity": 0.6456692913385826,
                    "duration": 0.10227269999998612
                },
                {
                    "name": "F#7",
                    "midi": 102,
                    "time": 223.806758499999,
                    "velocity": 0.6377952755905512,
                    "duration": 0.10227269999998612
                },
                {
                    "name": "E7",
                    "midi": 100,
                    "time": 223.97721299999898,
                    "velocity": 0.6220472440944882,
                    "duration": 0.10227269999998612
                },
                {
                    "name": "E7",
                    "midi": 100,
                    "time": 224.14482659166563,
                    "velocity": 0.6377952755905512,
                    "duration": 0.10227269999998612
                },
                {
                    "name": "D#7",
                    "midi": 99,
                    "time": 224.31812199999897,
                    "velocity": 0.6377952755905512,
                    "duration": 0.10227269999998612
                },
                {
                    "name": "D#7",
                    "midi": 99,
                    "time": 224.48573559166562,
                    "velocity": 0.6220472440944882,
                    "duration": 0.10227269999998612
                },
                {
                    "name": "C#7",
                    "midi": 97,
                    "time": 224.6561900916656,
                    "velocity": 0.6377952755905512,
                    "duration": 0.10227269999998612
                },
                {
                    "name": "C#7",
                    "midi": 97,
                    "time": 224.82948549999892,
                    "velocity": 0.6141732283464567,
                    "duration": 0.10227269999998612
                },
                {
                    "name": "D#7",
                    "midi": 99,
                    "time": 225.00278090833226,
                    "velocity": 0.6377952755905512,
                    "duration": 0.10227269999998612
                },
                {
                    "name": "D#7",
                    "midi": 99,
                    "time": 225.16471268333225,
                    "velocity": 0.6299212598425197,
                    "duration": 0.10227269999998612
                },
                {
                    "name": "E7",
                    "midi": 100,
                    "time": 225.33800809166559,
                    "velocity": 0.6377952755905512,
                    "duration": 0.2727271999999914
                },
                {
                    "name": "E7",
                    "midi": 100,
                    "time": 227.72153018333225,
                    "velocity": 0.6141732283464567,
                    "duration": 0.10227269999998612
                },
                {
                    "name": "E7",
                    "midi": 100,
                    "time": 227.8976664999989,
                    "velocity": 0.6220472440944882,
                    "duration": 0.10227269999998612
                },
                {
                    "name": "D#7",
                    "midi": 99,
                    "time": 228.06243918333223,
                    "velocity": 0.6220472440944882,
                    "duration": 0.10227269999998612
                },
                {
                    "name": "D#7",
                    "midi": 99,
                    "time": 228.23573459166556,
                    "velocity": 0.6456692913385826,
                    "duration": 0.10227269999998612
                },
                {
                    "name": "C#7",
                    "midi": 97,
                    "time": 228.4033481833322,
                    "velocity": 0.6299212598425197,
                    "duration": 0.10227269999998612
                },
                {
                    "name": "C#7",
                    "midi": 97,
                    "time": 228.57948449999887,
                    "velocity": 0.6299212598425197,
                    "duration": 0.10227269999998612
                },
                {
                    "name": "C#7",
                    "midi": 97,
                    "time": 229.09084799999886,
                    "velocity": 0.6299212598425197,
                    "duration": 0.10227269999998612
                },
                {
                    "name": "C#7",
                    "midi": 97,
                    "time": 229.25562068333218,
                    "velocity": 0.6377952755905512,
                    "duration": 0.10227269999998612
                },
                {
                    "name": "D#7",
                    "midi": 99,
                    "time": 229.4374388166655,
                    "velocity": 0.6377952755905512,
                    "duration": 0.2727271999999914
                },
                {
                    "name": "D#7",
                    "midi": 99,
                    "time": 235.90334618333216,
                    "velocity": 0.7165354330708661,
                    "duration": 0.10227269999998612
                },
                {
                    "name": "D#7",
                    "midi": 99,
                    "time": 236.08516431666547,
                    "velocity": 0.7086614173228346,
                    "duration": 0.10227269999998612
                },
                {
                    "name": "D#7",
                    "midi": 99,
                    "time": 236.25277790833212,
                    "velocity": 0.7244094488188977,
                    "duration": 0.10227269999998612
                },
                {
                    "name": "D#7",
                    "midi": 99,
                    "time": 236.42039149999877,
                    "velocity": 0.7401574803149606,
                    "duration": 0.10227269999998612
                },
                {
                    "name": "E7",
                    "midi": 100,
                    "time": 236.5851641833321,
                    "velocity": 0.7322834645669292,
                    "duration": 0.10227269999998612
                },
                {
                    "name": "D#7",
                    "midi": 99,
                    "time": 236.75845959166543,
                    "velocity": 0.7244094488188977,
                    "duration": 0.10227269999998612
                },
                {
                    "name": "C#7",
                    "midi": 97,
                    "time": 236.92607318333208,
                    "velocity": 0.7165354330708661,
                    "duration": 0.10227269999998612
                },
                {
                    "name": "D7",
                    "midi": 98,
                    "time": 248.18459290833206,
                    "velocity": 0.8267716535433071,
                    "duration": 0.10227269999998612
                },
                {
                    "name": "D#7",
                    "midi": 99,
                    "time": 248.52550190833205,
                    "velocity": 0.8661417322834646,
                    "duration": 0.10227269999998612
                },
                {
                    "name": "D7",
                    "midi": 98,
                    "time": 248.86072909166538,
                    "velocity": 0.8346456692913385,
                    "duration": 0.10227269999998612
                },
                {
                    "name": "D#7",
                    "midi": 99,
                    "time": 249.19879718333203,
                    "velocity": 0.8740157480314961,
                    "duration": 0.10227269999998612
                },
                {
                    "name": "D7",
                    "midi": 98,
                    "time": 249.5453879999987,
                    "velocity": 0.8503937007874016,
                    "duration": 0.10227269999998612
                },
                {
                    "name": "D#7",
                    "midi": 99,
                    "time": 249.88061518333203,
                    "velocity": 0.8582677165354331,
                    "duration": 0.10227269999998612
                },
                {
                    "name": "D#7",
                    "midi": 99,
                    "time": 250.2272059999987,
                    "velocity": 0.8503937007874016,
                    "duration": 0.10227269999998612
                },
                {
                    "name": "D#7",
                    "midi": 99,
                    "time": 250.57379681666535,
                    "velocity": 0.8346456692913385,
                    "duration": 0.10227269999998612
                },
                {
                    "name": "D#7",
                    "midi": 99,
                    "time": 250.90902399999868,
                    "velocity": 0.8188976377952756,
                    "duration": 0.10227269999998612
                },
                {
                    "name": "D#7",
                    "midi": 99,
                    "time": 251.252773908332,
                    "velocity": 0.8031496062992126,
                    "duration": 0.10227269999998612
                },
                {
                    "name": "D#7",
                    "midi": 99,
                    "time": 251.59084199999864,
                    "velocity": 0.7637795275590551,
                    "duration": 0.10227269999998612
                },
                {
                    "name": "D#7",
                    "midi": 99,
                    "time": 251.93175099999863,
                    "velocity": 0.7322834645669292,
                    "duration": 0.10227269999998612
                },
                {
                    "name": "D#7",
                    "midi": 99,
                    "time": 252.2726599999986,
                    "velocity": 0.7244094488188977,
                    "duration": 0.10227269999998612
                },
                {
                    "name": "D#7",
                    "midi": 99,
                    "time": 252.61925081666527,
                    "velocity": 0.7086614173228346,
                    "duration": 0.10227269999998612
                },
                {
                    "name": "D#7",
                    "midi": 99,
                    "time": 252.95731890833193,
                    "velocity": 0.7086614173228346,
                    "duration": 0.10227269999998612
                },
                {
                    "name": "D#7",
                    "midi": 99,
                    "time": 253.29254609166526,
                    "velocity": 0.6850393700787402,
                    "duration": 0.10227269999998612
                },
                {
                    "name": "D#7",
                    "midi": 99,
                    "time": 253.63913690833192,
                    "velocity": 0.6535433070866141,
                    "duration": 0.10227269999998612
                },
                {
                    "name": "D#7",
                    "midi": 99,
                    "time": 253.9800459083319,
                    "velocity": 0.6456692913385826,
                    "duration": 0.10227269999998612
                },
                {
                    "name": "D#7",
                    "midi": 99,
                    "time": 254.14481859166523,
                    "velocity": 0.6377952755905512,
                    "duration": 0.10227269999998612
                },
                {
                    "name": "D#7",
                    "midi": 99,
                    "time": 254.31243218333188,
                    "velocity": 0.6220472440944882,
                    "duration": 0.10227269999998612
                },
                {
                    "name": "D#7",
                    "midi": 99,
                    "time": 254.4857275916652,
                    "velocity": 0.6377952755905512,
                    "duration": 0.10227269999998612
                },
                {
                    "name": "D#7",
                    "midi": 99,
                    "time": 254.66186390833187,
                    "velocity": 0.6141732283464567,
                    "duration": 0.10227269999998612
                },
                {
                    "name": "D#7",
                    "midi": 99,
                    "time": 254.82947749999852,
                    "velocity": 0.6220472440944882,
                    "duration": 0.10227269999998612
                },
                {
                    "name": "D#7",
                    "midi": 99,
                    "time": 254.99709109166517,
                    "velocity": 0.6377952755905512,
                    "duration": 0.10227269999998612
                },
                {
                    "name": "D#7",
                    "midi": 99,
                    "time": 255.16470468333182,
                    "velocity": 0.6220472440944882,
                    "duration": 0.10227269999998612
                },
                {
                    "name": "D#7",
                    "midi": 99,
                    "time": 255.33800009166515,
                    "velocity": 0.6141732283464567,
                    "duration": 0.10227269999998612
                },
                {
                    "name": "D#7",
                    "midi": 99,
                    "time": 255.51129549999848,
                    "velocity": 0.6141732283464567,
                    "duration": 0.10227269999998612
                },
                {
                    "name": "D#7",
                    "midi": 99,
                    "time": 255.68743181666514,
                    "velocity": 0.6220472440944882,
                    "duration": 0.10227269999998612
                },
                {
                    "name": "D#7",
                    "midi": 99,
                    "time": 255.84652268333178,
                    "velocity": 0.6377952755905512,
                    "duration": 0.10227269999998612
                },
                {
                    "name": "D#7",
                    "midi": 99,
                    "time": 256.0198180916651,
                    "velocity": 0.6141732283464567,
                    "duration": 0.10227270000001454
                },
                {
                    "name": "D#7",
                    "midi": 99,
                    "time": 256.1902725916651,
                    "velocity": 0.6456692913385826,
                    "duration": 0.10227270000001454
                },
                {
                    "name": "D#7",
                    "midi": 99,
                    "time": 256.3578861833318,
                    "velocity": 0.6141732283464567,
                    "duration": 0.10227270000001454
                },
                {
                    "name": "D#7",
                    "midi": 99,
                    "time": 256.53970431666517,
                    "velocity": 0.6299212598425197,
                    "duration": 0.10227270000001454
                },
                {
                    "name": "D#7",
                    "midi": 99,
                    "time": 256.7016360916652,
                    "velocity": 0.6456692913385826,
                    "duration": 0.10227270000001454
                },
                {
                    "name": "D#7",
                    "midi": 99,
                    "time": 256.87777240833185,
                    "velocity": 0.6220472440944882,
                    "duration": 0.10227270000001454
                },
                {
                    "name": "D#7",
                    "midi": 99,
                    "time": 257.04822690833186,
                    "velocity": 0.6377952755905512,
                    "duration": 0.10227270000001454
                },
                {
                    "name": "D#7",
                    "midi": 99,
                    "time": 257.2101586833319,
                    "velocity": 0.6299212598425197,
                    "duration": 0.10227270000001454
                },
                {
                    "name": "D#7",
                    "midi": 99,
                    "time": 257.3806131833319,
                    "velocity": 0.6299212598425197,
                    "duration": 0.10227270000001454
                },
                {
                    "name": "D#7",
                    "midi": 99,
                    "time": 257.56243131666525,
                    "velocity": 0.6456692913385826,
                    "duration": 0.10227270000001454
                },
                {
                    "name": "C#7",
                    "midi": 97,
                    "time": 257.7272039999986,
                    "velocity": 0.6456692913385826,
                    "duration": 0.10227270000001454
                },
                {
                    "name": "C#7",
                    "midi": 97,
                    "time": 257.8948175916653,
                    "velocity": 0.6220472440944882,
                    "duration": 0.10227270000001454
                },
                {
                    "name": "D#7",
                    "midi": 99,
                    "time": 265.23004290833194,
                    "velocity": 0.6692913385826772,
                    "duration": 0.10227270000001454
                },
                {
                    "name": "D#7",
                    "midi": 99,
                    "time": 265.40049740833194,
                    "velocity": 0.6850393700787402,
                    "duration": 0.10227270000001454
                },
                {
                    "name": "D#7",
                    "midi": 99,
                    "time": 265.562429183332,
                    "velocity": 0.6771653543307087,
                    "duration": 0.10227270000001454
                },
                {
                    "name": "D#7",
                    "midi": 99,
                    "time": 265.73856549999863,
                    "velocity": 0.6771653543307087,
                    "duration": 0.10227270000001454
                },
                {
                    "name": "C#7",
                    "midi": 97,
                    "time": 265.9147018166653,
                    "velocity": 0.6850393700787402,
                    "duration": 0.10227270000001454
                },
                {
                    "name": "C#7",
                    "midi": 97,
                    "time": 266.073792683332,
                    "velocity": 0.7086614173228346,
                    "duration": 0.10227270000001454
                },
                {
                    "name": "C7",
                    "midi": 96,
                    "time": 266.25561081666535,
                    "velocity": 0.7165354330708661,
                    "duration": 0.10227270000001454
                },
                {
                    "name": "C7",
                    "midi": 96,
                    "time": 266.42322440833203,
                    "velocity": 0.7165354330708661,
                    "duration": 0.10227270000001454
                },
                {
                    "name": "C7",
                    "midi": 96,
                    "time": 266.58515618333206,
                    "velocity": 0.7244094488188977,
                    "duration": 0.10227270000001454
                },
                {
                    "name": "C7",
                    "midi": 96,
                    "time": 266.7612924999987,
                    "velocity": 0.7086614173228346,
                    "duration": 0.10227270000001454
                },
                {
                    "name": "C#7",
                    "midi": 97,
                    "time": 273.92322240833204,
                    "velocity": 0.8818897637795275,
                    "duration": 0.10227270000001454
                },
                {
                    "name": "D7",
                    "midi": 98,
                    "time": 274.09367690833204,
                    "velocity": 0.8503937007874016,
                    "duration": 0.10227270000001454
                },
                {
                    "name": "D#7",
                    "midi": 99,
                    "time": 274.25560868333207,
                    "velocity": 0.8661417322834646,
                    "duration": 0.10227270000001454
                },
                {
                    "name": "C#7",
                    "midi": 97,
                    "time": 279.8891299083321,
                    "velocity": 0.8503937007874016,
                    "duration": 0.2727272000000198
                },
                {
                    "name": "C#7",
                    "midi": 97,
                    "time": 280.7328796833321,
                    "velocity": 0.8503937007874016,
                    "duration": 0.1363635999999815
                },
                {
                    "name": "D#7",
                    "midi": 99,
                    "time": 280.9118569083321,
                    "velocity": 0.8503937007874016,
                    "duration": 0.2727272000000198
                },
                {
                    "name": "C#7",
                    "midi": 97,
                    "time": 281.24992499999877,
                    "velocity": 0.8503937007874016,
                    "duration": 0.1363635999999815
                },
                {
                    "name": "C#7",
                    "midi": 97,
                    "time": 281.9289020916654,
                    "velocity": 0.8661417322834646,
                    "duration": 0.2727272000000198
                },
                {
                    "name": "D#7",
                    "midi": 99,
                    "time": 290.45162709166544,
                    "velocity": 0.8503937007874016,
                    "duration": 0.2727272000000198
                },
                {
                    "name": "D#7",
                    "midi": 99,
                    "time": 290.7896951833321,
                    "velocity": 0.8503937007874016,
                    "duration": 0.2727272000000198
                },
                {
                    "name": "D#7",
                    "midi": 99,
                    "time": 291.1391269083322,
                    "velocity": 0.8661417322834646,
                    "duration": 0.2727272000000198
                },
                {
                    "name": "D#7",
                    "midi": 99,
                    "time": 291.47435409166553,
                    "velocity": 0.8661417322834646,
                    "duration": 0.2727272000000198
                },
                {
                    "name": "D#7",
                    "midi": 99,
                    "time": 291.8209449083322,
                    "velocity": 0.8740157480314961,
                    "duration": 0.2727272000000198
                },
                {
                    "name": "D#7",
                    "midi": 99,
                    "time": 292.1590129999989,
                    "velocity": 0.8582677165354331,
                    "duration": 0.2727272000000198
                },
                {
                    "name": "D#7",
                    "midi": 99,
                    "time": 292.4999219999989,
                    "velocity": 0.8582677165354331,
                    "duration": 0.2727272000000198
                },
                {
                    "name": "D#7",
                    "midi": 99,
                    "time": 292.8436719083322,
                    "velocity": 0.8818897637795275,
                    "duration": 0.2727272000000198
                }
            ],
            "controlChanges": {
                "7": [
                    {
                        "number": 7,
                        "time": 0,
                        "value": 1
                    }
                ],
                "10": [
                    {
                        "number": 10,
                        "time": 0,
                        "value": 0.7559055118110236
                    },
                    {
                        "number": 10,
                        "time": 294.8862849999989,
                        "value": 0.5039370078740157
                    }
                ],
                "93": [
                    {
                        "number": 93,
                        "time": 0,
                        "value": 0.15748031496062992
                    }
                ],
                "121": [
                    {
                        "number": 121,
                        "time": 0,
                        "value": 0
                    }
                ]
            },
            "id": 1,
            "name": "Piano",
            "instrumentNumber": 0,
            "instrument": "acoustic grand piano",
            "instrumentFamily": "piano",
            "channelNumber": 0,
            "isPercussion": false
        },
        {
            "startTime": 36.653399316666665,
            "duration": 296.5254891083317,
            "length": 445,
            "notes": [
                {
                    "name": "G#6",
                    "midi": 92,
                    "time": 36.653399316666665,
                    "velocity": 0.6220472440944882,
                    "duration": 0.10227270000000033
                },
                {
                    "name": "G#6",
                    "midi": 92,
                    "time": 36.988626499999995,
                    "velocity": 0.6141732283464567,
                    "duration": 0.10227270000000033
                },
                {
                    "name": "G#6",
                    "midi": 92,
                    "time": 37.33237640833333,
                    "velocity": 0.6220472440944882,
                    "duration": 0.10227270000000033
                },
                {
                    "name": "G#6",
                    "midi": 92,
                    "time": 40.90339818333333,
                    "velocity": 0.6220472440944882,
                    "duration": 0.10227270000000033
                },
                {
                    "name": "F#6",
                    "midi": 90,
                    "time": 44.1477155,
                    "velocity": 0.6456692913385826,
                    "duration": 0.12784087499999686
                },
                {
                    "name": "F#6",
                    "midi": 90,
                    "time": 44.491465408333326,
                    "velocity": 0.6220472440944882,
                    "duration": 0.12784087499999686
                },
                {
                    "name": "F#6",
                    "midi": 90,
                    "time": 45.17044249999999,
                    "velocity": 0.6299212598425197,
                    "duration": 0.12784087499999686
                },
                {
                    "name": "F#6",
                    "midi": 90,
                    "time": 45.50566968333332,
                    "velocity": 0.6299212598425197,
                    "duration": 0.12784087499999686
                },
                {
                    "name": "F#6",
                    "midi": 90,
                    "time": 46.18748768333332,
                    "velocity": 0.6141732283464567,
                    "duration": 0.12784087499999686
                },
                {
                    "name": "F#6",
                    "midi": 90,
                    "time": 48.24146440833332,
                    "velocity": 0.6299212598425197,
                    "duration": 0.12784087499999686
                },
                {
                    "name": "F#6",
                    "midi": 90,
                    "time": 48.57669159166665,
                    "velocity": 0.6377952755905512,
                    "duration": 0.12784087499999686
                },
                {
                    "name": "F#6",
                    "midi": 90,
                    "time": 49.261350499999985,
                    "velocity": 0.6299212598425197,
                    "duration": 0.12784087499999686
                },
                {
                    "name": "F#6",
                    "midi": 90,
                    "time": 49.60794131666665,
                    "velocity": 0.6220472440944882,
                    "duration": 0.12784087499999686
                },
                {
                    "name": "F#6",
                    "midi": 90,
                    "time": 50.28975931666665,
                    "velocity": 0.6220472440944882,
                    "duration": 0.12784087499999686
                },
                {
                    "name": "B6",
                    "midi": 95,
                    "time": 55.40055340833331,
                    "velocity": 0.6377952755905512,
                    "duration": 0.1590908666666664
                },
                {
                    "name": "A#6",
                    "midi": 94,
                    "time": 56.423280408333305,
                    "velocity": 0.6456692913385826,
                    "duration": 0.1590908666666664
                },
                {
                    "name": "G#6",
                    "midi": 92,
                    "time": 57.44316649999997,
                    "velocity": 0.6456692913385826,
                    "duration": 0.1590908666666664
                },
                {
                    "name": "F#6",
                    "midi": 90,
                    "time": 58.12498449999997,
                    "velocity": 0.6141732283464567,
                    "duration": 0.1363636000000028
                },
                {
                    "name": "G#6",
                    "midi": 92,
                    "time": 59.31532509166664,
                    "velocity": 0.6141732283464567,
                    "duration": 0.2556817500000008
                },
                {
                    "name": "G#6",
                    "midi": 92,
                    "time": 59.65907499999997,
                    "velocity": 0.6299212598425197,
                    "duration": 0.2556817500000008
                },
                {
                    "name": "G#6",
                    "midi": 92,
                    "time": 60.00566581666664,
                    "velocity": 0.6141732283464567,
                    "duration": 0.2556817500000008
                },
                {
                    "name": "F#6",
                    "midi": 90,
                    "time": 63.40339218333331,
                    "velocity": 0.6377952755905512,
                    "duration": 0.2556817500000008
                },
                {
                    "name": "F#6",
                    "midi": 90,
                    "time": 63.74430118333331,
                    "velocity": 0.6141732283464567,
                    "duration": 0.2556817500000008
                },
                {
                    "name": "F#6",
                    "midi": 90,
                    "time": 64.09373290833331,
                    "velocity": 0.6456692913385826,
                    "duration": 0.2556817499999937
                },
                {
                    "name": "B6",
                    "midi": 95,
                    "time": 65.46020981666663,
                    "velocity": 0.6220472440944882,
                    "duration": 0.2556817499999937
                },
                {
                    "name": "B6",
                    "midi": 95,
                    "time": 66.47157318333329,
                    "velocity": 0.6377952755905512,
                    "duration": 0.2556817499999937
                },
                {
                    "name": "A6",
                    "midi": 93,
                    "time": 73.46304859166662,
                    "velocity": 0.6377952755905512,
                    "duration": 0.1363635999999957
                },
                {
                    "name": "B6",
                    "midi": 95,
                    "time": 73.80111668333328,
                    "velocity": 0.6377952755905512,
                    "duration": 0.1363635999999957
                },
                {
                    "name": "A#6",
                    "midi": 94,
                    "time": 73.98009390833327,
                    "velocity": 0.6220472440944882,
                    "duration": 0.1363635999999957
                },
                {
                    "name": "G#6",
                    "midi": 92,
                    "time": 74.1533893166666,
                    "velocity": 0.6220472440944882,
                    "duration": 0.1363635999999957
                },
                {
                    "name": "G6",
                    "midi": 91,
                    "time": 74.31816199999993,
                    "velocity": 0.6299212598425197,
                    "duration": 0.1363635999999957
                },
                {
                    "name": "A#6",
                    "midi": 94,
                    "time": 74.49145740833326,
                    "velocity": 0.6220472440944882,
                    "duration": 0.1363635999999957
                },
                {
                    "name": "F#6",
                    "midi": 90,
                    "time": 77.89770649999993,
                    "velocity": 0.5748031496062992,
                    "duration": 0.1363635999999957
                },
                {
                    "name": "G6",
                    "midi": 91,
                    "time": 78.58520631666659,
                    "velocity": 0.6141732283464567,
                    "duration": 0.1363635999999957
                },
                {
                    "name": "G#6",
                    "midi": 92,
                    "time": 79.26702431666658,
                    "velocity": 0.6141732283464567,
                    "duration": 0.1363635999999957
                },
                {
                    "name": "B6",
                    "midi": 95,
                    "time": 103.18747248333324,
                    "velocity": 0.6377952755905512,
                    "duration": 0.09090906666666854
                },
                {
                    "name": "B6",
                    "midi": 95,
                    "time": 103.52269966666657,
                    "velocity": 0.6299212598425197,
                    "duration": 0.09090906666666854
                },
                {
                    "name": "A#6",
                    "midi": 94,
                    "time": 103.86929048333323,
                    "velocity": 0.6141732283464567,
                    "duration": 0.09090906666666854
                },
                {
                    "name": "G#6",
                    "midi": 92,
                    "time": 104.21019948333323,
                    "velocity": 0.6220472440944882,
                    "duration": 0.09090906666666854
                },
                {
                    "name": "G6",
                    "midi": 91,
                    "time": 104.53974484999989,
                    "velocity": 0.6377952755905512,
                    "duration": 0.09090906666666854
                },
                {
                    "name": "G#6",
                    "midi": 92,
                    "time": 104.89201748333322,
                    "velocity": 0.6456692913385826,
                    "duration": 0.09090906666666854
                },
                {
                    "name": "A#6",
                    "midi": 94,
                    "time": 105.23292648333322,
                    "velocity": 0.6141732283464567,
                    "duration": 0.09090906666666854
                },
                {
                    "name": "B6",
                    "midi": 95,
                    "time": 111.36928848333322,
                    "velocity": 0.6377952755905512,
                    "duration": 0.09090906666666854
                },
                {
                    "name": "B6",
                    "midi": 95,
                    "time": 111.70735657499989,
                    "velocity": 0.6456692913385826,
                    "duration": 0.09090906666666854
                },
                {
                    "name": "A#6",
                    "midi": 94,
                    "time": 112.0397428499999,
                    "velocity": 0.6220472440944882,
                    "duration": 0.09090906666666854
                },
                {
                    "name": "G#6",
                    "midi": 92,
                    "time": 112.3891745749999,
                    "velocity": 0.6377952755905512,
                    "duration": 0.09090906666666854
                },
                {
                    "name": "G6",
                    "midi": 91,
                    "time": 112.72724266666657,
                    "velocity": 0.6456692913385826,
                    "duration": 0.09090906666666854
                },
                {
                    "name": "G#6",
                    "midi": 92,
                    "time": 113.0709925749999,
                    "velocity": 0.6220472440944882,
                    "duration": 0.09090906666666854
                },
                {
                    "name": "A#6",
                    "midi": 94,
                    "time": 113.40337884999991,
                    "velocity": 0.6377952755905512,
                    "duration": 0.09090906666666854
                },
                {
                    "name": "F#6",
                    "midi": 90,
                    "time": 120.33803609166658,
                    "velocity": 0.6377952755905512,
                    "duration": 0.09090906666666854
                },
                {
                    "name": "F#6",
                    "midi": 90,
                    "time": 120.45451333333325,
                    "velocity": 0.6377952755905512,
                    "duration": 0.09090906666666854
                },
                {
                    "name": "G6",
                    "midi": 91,
                    "time": 120.67894509166659,
                    "velocity": 0.6220472440944882,
                    "duration": 0.09090906666666854
                },
                {
                    "name": "G6",
                    "midi": 91,
                    "time": 120.80110414999993,
                    "velocity": 0.6377952755905512,
                    "duration": 0.09090906666666854
                },
                {
                    "name": "G#6",
                    "midi": 92,
                    "time": 121.02553590833327,
                    "velocity": 0.6141732283464567,
                    "duration": 0.09090906666666854
                },
                {
                    "name": "G#6",
                    "midi": 92,
                    "time": 121.1391722416666,
                    "velocity": 0.6377952755905512,
                    "duration": 0.09090906666666854
                },
                {
                    "name": "F#6",
                    "midi": 90,
                    "time": 125.54258015833327,
                    "velocity": 0.6377952755905512,
                    "duration": 0.06818180000000496
                },
                {
                    "name": "F#6",
                    "midi": 90,
                    "time": 125.62496649999994,
                    "velocity": 0.6377952755905512,
                    "duration": 0.06818180000000496
                },
                {
                    "name": "F#6",
                    "midi": 90,
                    "time": 125.71587556666661,
                    "velocity": 0.6299212598425197,
                    "duration": 0.06818180000000496
                },
                {
                    "name": "F#6",
                    "midi": 90,
                    "time": 125.91189824166662,
                    "velocity": 0.6456692913385826,
                    "duration": 0.09090906666666854
                },
                {
                    "name": "F#6",
                    "midi": 90,
                    "time": 126.02553457499995,
                    "velocity": 0.6220472440944882,
                    "duration": 0.09090906666666854
                },
                {
                    "name": "F#6",
                    "midi": 90,
                    "time": 126.24996633333329,
                    "velocity": 0.6220472440944882,
                    "duration": 0.09090906666666854
                },
                {
                    "name": "F#6",
                    "midi": 90,
                    "time": 126.36644357499996,
                    "velocity": 0.6456692913385826,
                    "duration": 0.09090906666666854
                },
                {
                    "name": "A#6",
                    "midi": 94,
                    "time": 129.6334881583333,
                    "velocity": 0.6141732283464567,
                    "duration": 0.06818179999999074
                },
                {
                    "name": "A#6",
                    "midi": 94,
                    "time": 129.72155631666664,
                    "velocity": 0.6377952755905512,
                    "duration": 0.06818179999999074
                },
                {
                    "name": "A#6",
                    "midi": 94,
                    "time": 129.7954199333333,
                    "velocity": 0.6220472440944882,
                    "duration": 0.06818179999999074
                },
                {
                    "name": "A#6",
                    "midi": 94,
                    "time": 129.9999653333333,
                    "velocity": 0.6299212598425197,
                    "duration": 0.09090906666665433
                },
                {
                    "name": "A#6",
                    "midi": 94,
                    "time": 130.10791984999997,
                    "velocity": 0.6377952755905512,
                    "duration": 0.09090906666665433
                },
                {
                    "name": "F#6",
                    "midi": 90,
                    "time": 130.22439709166662,
                    "velocity": 0.6141732283464567,
                    "duration": 0.2556817500000079
                },
                {
                    "name": "A#6",
                    "midi": 94,
                    "time": 130.3408743333333,
                    "velocity": 0.6456692913385826,
                    "duration": 0.09090906666665433
                },
                {
                    "name": "A#6",
                    "midi": 94,
                    "time": 130.45166975833328,
                    "velocity": 0.6299212598425197,
                    "duration": 0.09090906666668275
                },
                {
                    "name": "F#6",
                    "midi": 90,
                    "time": 133.0340554333333,
                    "velocity": 0.6377952755905512,
                    "duration": 0.06818179999999074
                },
                {
                    "name": "F#6",
                    "midi": 90,
                    "time": 133.12496449999995,
                    "velocity": 0.6141732283464567,
                    "duration": 0.06818179999999074
                },
                {
                    "name": "F#6",
                    "midi": 90,
                    "time": 133.2073508416666,
                    "velocity": 0.6377952755905512,
                    "duration": 0.06818179999999074
                },
                {
                    "name": "G#6",
                    "midi": 92,
                    "time": 133.37780534166657,
                    "velocity": 0.6456692913385826,
                    "duration": 0.06818179999999074
                },
                {
                    "name": "G#6",
                    "midi": 92,
                    "time": 133.46871440833323,
                    "velocity": 0.6220472440944882,
                    "duration": 0.06818179999999074
                },
                {
                    "name": "G#6",
                    "midi": 92,
                    "time": 133.54541893333322,
                    "velocity": 0.6141732283464567,
                    "duration": 0.06818179999999074
                },
                {
                    "name": "G#6",
                    "midi": 92,
                    "time": 133.74428251666654,
                    "velocity": 0.6220472440944882,
                    "duration": 0.09090906666665433
                },
                {
                    "name": "G#6",
                    "midi": 92,
                    "time": 133.86644157499987,
                    "velocity": 0.6456692913385826,
                    "duration": 0.09090906666665433
                },
                {
                    "name": "G#6",
                    "midi": 92,
                    "time": 133.9800779083332,
                    "velocity": 0.6299212598425197,
                    "duration": 0.09090906666665433
                },
                {
                    "name": "G#6",
                    "midi": 92,
                    "time": 134.09655514999983,
                    "velocity": 0.6456692913385826,
                    "duration": 0.09090906666665433
                },
                {
                    "name": "G#6",
                    "midi": 92,
                    "time": 134.19882784999982,
                    "velocity": 0.6299212598425197,
                    "duration": 0.09090906666665433
                },
                {
                    "name": "A#6",
                    "midi": 94,
                    "time": 134.3181459999998,
                    "velocity": 0.6299212598425197,
                    "duration": 0.1363636000000099
                },
                {
                    "name": "A6",
                    "midi": 93,
                    "time": 134.49144140833315,
                    "velocity": 0.6141732283464567,
                    "duration": 0.1363636000000099
                },
                {
                    "name": "G#6",
                    "midi": 92,
                    "time": 134.65905499999982,
                    "velocity": 0.6377952755905512,
                    "duration": 0.1363636000000099
                },
                {
                    "name": "G6",
                    "midi": 91,
                    "time": 134.82950949999983,
                    "velocity": 0.6220472440944882,
                    "duration": 0.1363636000000099
                },
                {
                    "name": "F#6",
                    "midi": 90,
                    "time": 134.99996399999984,
                    "velocity": 0.6299212598425197,
                    "duration": 0.2556817500000079
                },
                {
                    "name": "G#6",
                    "midi": 92,
                    "time": 135.33519118333317,
                    "velocity": 0.6377952755905512,
                    "duration": 0.1363635999999815
                },
                {
                    "name": "B6",
                    "midi": 95,
                    "time": 135.33519118333317,
                    "velocity": 0.6456692913385826,
                    "duration": 0.06818179999999074
                },
                {
                    "name": "G6",
                    "midi": 91,
                    "time": 135.51132749999982,
                    "velocity": 0.6377952755905512,
                    "duration": 0.1363635999999815
                },
                {
                    "name": "B6",
                    "midi": 95,
                    "time": 135.51416840833315,
                    "velocity": 0.6220472440944882,
                    "duration": 0.06818179999999074
                },
                {
                    "name": "F#6",
                    "midi": 90,
                    "time": 135.67894109166647,
                    "velocity": 0.6299212598425197,
                    "duration": 0.1363635999999815
                },
                {
                    "name": "B6",
                    "midi": 95,
                    "time": 135.67894109166647,
                    "velocity": 0.6220472440944882,
                    "duration": 0.06818179999999074
                },
                {
                    "name": "B6",
                    "midi": 95,
                    "time": 135.85507740833313,
                    "velocity": 0.6377952755905512,
                    "duration": 0.06818179999999074
                },
                {
                    "name": "B6",
                    "midi": 95,
                    "time": 136.02269099999978,
                    "velocity": 0.6141732283464567,
                    "duration": 0.06818179999999074
                },
                {
                    "name": "B6",
                    "midi": 95,
                    "time": 136.19314549999976,
                    "velocity": 0.6220472440944882,
                    "duration": 0.06818179999999074
                },
                {
                    "name": "F#6",
                    "midi": 90,
                    "time": 136.36359999999974,
                    "velocity": 0.6377952755905512,
                    "duration": 0.1363635999999815
                },
                {
                    "name": "A#6",
                    "midi": 94,
                    "time": 136.36644090833306,
                    "velocity": 0.6141732283464567,
                    "duration": 0.06818179999999074
                },
                {
                    "name": "B6",
                    "midi": 95,
                    "time": 136.4488272499997,
                    "velocity": 0.6220472440944882,
                    "duration": 0.06818180000001917
                },
                {
                    "name": "A#6",
                    "midi": 94,
                    "time": 136.5397363166664,
                    "velocity": 0.6299212598425197,
                    "duration": 0.06818179999999074
                },
                {
                    "name": "B6",
                    "midi": 95,
                    "time": 136.61359993333306,
                    "velocity": 0.6141732283464567,
                    "duration": 0.06818179999999074
                },
                {
                    "name": "A#6",
                    "midi": 94,
                    "time": 136.7101908166664,
                    "velocity": 0.6220472440944882,
                    "duration": 0.06818179999999074
                },
                {
                    "name": "B6",
                    "midi": 95,
                    "time": 136.78973624999972,
                    "velocity": 0.6141732283464567,
                    "duration": 0.06818179999999074
                },
                {
                    "name": "A#6",
                    "midi": 94,
                    "time": 136.88064531666637,
                    "velocity": 0.6456692913385826,
                    "duration": 0.06818179999999074
                },
                {
                    "name": "B6",
                    "midi": 95,
                    "time": 136.95734984166637,
                    "velocity": 0.6456692913385826,
                    "duration": 0.06818179999999074
                },
                {
                    "name": "A#6",
                    "midi": 94,
                    "time": 137.04825890833303,
                    "velocity": 0.6299212598425197,
                    "duration": 0.06818179999999074
                },
                {
                    "name": "B6",
                    "midi": 95,
                    "time": 137.12496343333302,
                    "velocity": 0.6220472440944882,
                    "duration": 0.06818179999999074
                },
                {
                    "name": "A#6",
                    "midi": 94,
                    "time": 137.218713408333,
                    "velocity": 0.6220472440944882,
                    "duration": 0.06818179999999074
                },
                {
                    "name": "B6",
                    "midi": 95,
                    "time": 137.29825884166632,
                    "velocity": 0.6299212598425197,
                    "duration": 0.06818179999999074
                },
                {
                    "name": "G#6",
                    "midi": 92,
                    "time": 137.3920088166663,
                    "velocity": 0.6377952755905512,
                    "duration": 0.06818179999999074
                },
                {
                    "name": "A#6",
                    "midi": 94,
                    "time": 137.47155424999963,
                    "velocity": 0.6456692913385826,
                    "duration": 0.06818179999999074
                },
                {
                    "name": "G#6",
                    "midi": 92,
                    "time": 137.55109968333295,
                    "velocity": 0.6299212598425197,
                    "duration": 0.06818179999999074
                },
                {
                    "name": "A#6",
                    "midi": 94,
                    "time": 137.6420087499996,
                    "velocity": 0.6456692913385826,
                    "duration": 0.06818179999999074
                },
                {
                    "name": "G#6",
                    "midi": 92,
                    "time": 137.73291781666626,
                    "velocity": 0.6456692913385826,
                    "duration": 0.06818179999999074
                },
                {
                    "name": "A#6",
                    "midi": 94,
                    "time": 137.81246324999958,
                    "velocity": 0.6220472440944882,
                    "duration": 0.06818179999999074
                },
                {
                    "name": "G#6",
                    "midi": 92,
                    "time": 137.8920086833329,
                    "velocity": 0.6220472440944882,
                    "duration": 0.06818179999999074
                },
                {
                    "name": "A#6",
                    "midi": 94,
                    "time": 137.98575865833288,
                    "velocity": 0.6377952755905512,
                    "duration": 0.06818179999999074
                },
                {
                    "name": "G#6",
                    "midi": 92,
                    "time": 138.0653040916662,
                    "velocity": 0.6141732283464567,
                    "duration": 0.06818179999999074
                },
                {
                    "name": "F#6",
                    "midi": 90,
                    "time": 138.40337218333286,
                    "velocity": 0.6377952755905512,
                    "duration": 0.05397725833333311
                },
                {
                    "name": "G#6",
                    "midi": 92,
                    "time": 138.47155398333285,
                    "velocity": 0.6377952755905512,
                    "duration": 0.05397725833333311
                },
                {
                    "name": "F#6",
                    "midi": 90,
                    "time": 138.54541759999952,
                    "velocity": 0.6377952755905512,
                    "duration": 0.05397725833333311
                },
                {
                    "name": "G#6",
                    "midi": 92,
                    "time": 138.6107584916662,
                    "velocity": 0.6220472440944882,
                    "duration": 0.05397725833333311
                },
                {
                    "name": "F#6",
                    "midi": 90,
                    "time": 138.67894029166618,
                    "velocity": 0.6220472440944882,
                    "duration": 0.05397725833333311
                },
                {
                    "name": "F#6",
                    "midi": 90,
                    "time": 138.84087206666618,
                    "velocity": 0.6299212598425197,
                    "duration": 0.06818179999999074
                },
                {
                    "name": "G#6",
                    "midi": 92,
                    "time": 138.92325840833283,
                    "velocity": 0.6299212598425197,
                    "duration": 0.06818179999999074
                },
                {
                    "name": "F#6",
                    "midi": 90,
                    "time": 138.99996293333282,
                    "velocity": 0.6456692913385826,
                    "duration": 0.06818179999999074
                },
                {
                    "name": "G6",
                    "midi": 91,
                    "time": 139.1789401583328,
                    "velocity": 0.6299212598425197,
                    "duration": 0.06818179999999074
                },
                {
                    "name": "G#6",
                    "midi": 92,
                    "time": 139.26132649999946,
                    "velocity": 0.6377952755905512,
                    "duration": 0.06818179999999074
                },
                {
                    "name": "G6",
                    "midi": 91,
                    "time": 139.34939465833278,
                    "velocity": 0.6377952755905512,
                    "duration": 0.06818179999999074
                },
                {
                    "name": "G#6",
                    "midi": 92,
                    "time": 139.51132643333278,
                    "velocity": 0.6456692913385826,
                    "duration": 0.06818179999999074
                },
                {
                    "name": "A6",
                    "midi": 93,
                    "time": 139.60791731666612,
                    "velocity": 0.6377952755905512,
                    "duration": 0.06818179999999074
                },
                {
                    "name": "G#6",
                    "midi": 92,
                    "time": 139.69030365833277,
                    "velocity": 0.6299212598425197,
                    "duration": 0.06818179999999074
                },
                {
                    "name": "A6",
                    "midi": 93,
                    "time": 139.77268999999941,
                    "velocity": 0.6220472440944882,
                    "duration": 0.03409089999999537
                },
                {
                    "name": "G#6",
                    "midi": 92,
                    "time": 139.81814453333274,
                    "velocity": 0.6299212598425197,
                    "duration": 0.03409089999999537
                },
                {
                    "name": "A6",
                    "midi": 93,
                    "time": 139.85507634166606,
                    "velocity": 0.6456692913385826,
                    "duration": 0.03409089999999537
                },
                {
                    "name": "G#6",
                    "midi": 92,
                    "time": 139.89484905833274,
                    "velocity": 0.6220472440944882,
                    "duration": 0.03409089999999537
                },
                {
                    "name": "A6",
                    "midi": 93,
                    "time": 139.9431444999994,
                    "velocity": 0.6377952755905512,
                    "duration": 0.03409089999999537
                },
                {
                    "name": "G#6",
                    "midi": 92,
                    "time": 139.9857581249994,
                    "velocity": 0.6141732283464567,
                    "duration": 0.03409089999999537
                },
                {
                    "name": "A6",
                    "midi": 93,
                    "time": 140.0283717499994,
                    "velocity": 0.6377952755905512,
                    "duration": 0.03409089999999537
                },
                {
                    "name": "G#6",
                    "midi": 92,
                    "time": 140.06814446666607,
                    "velocity": 0.6220472440944882,
                    "duration": 0.03409089999999537
                },
                {
                    "name": "A6",
                    "midi": 93,
                    "time": 140.11643990833272,
                    "velocity": 0.6141732283464567,
                    "duration": 0.03409089999999537
                },
                {
                    "name": "G#6",
                    "midi": 92,
                    "time": 140.15053080833272,
                    "velocity": 0.6377952755905512,
                    "duration": 0.03409089999999537
                },
                {
                    "name": "A6",
                    "midi": 93,
                    "time": 140.19882624999937,
                    "velocity": 0.6456692913385826,
                    "duration": 0.03409089999999537
                },
                {
                    "name": "G#6",
                    "midi": 92,
                    "time": 140.2357580583327,
                    "velocity": 0.6299212598425197,
                    "duration": 0.03409089999999537
                },
                {
                    "name": "A6",
                    "midi": 93,
                    "time": 140.2868944083327,
                    "velocity": 0.6377952755905512,
                    "duration": 0.03409089999999537
                },
                {
                    "name": "G#6",
                    "midi": 92,
                    "time": 140.32382621666602,
                    "velocity": 0.6220472440944882,
                    "duration": 0.03409089999999537
                },
                {
                    "name": "A6",
                    "midi": 93,
                    "time": 140.37212165833267,
                    "velocity": 0.6299212598425197,
                    "duration": 0.03409089999999537
                },
                {
                    "name": "G#6",
                    "midi": 92,
                    "time": 140.409053466666,
                    "velocity": 0.6220472440944882,
                    "duration": 0.03409089999999537
                },
                {
                    "name": "G#6",
                    "midi": 92,
                    "time": 140.460189816666,
                    "velocity": 0.6220472440944882,
                    "duration": 0.06818179999999074
                },
                {
                    "name": "A6",
                    "midi": 93,
                    "time": 140.53405343333267,
                    "velocity": 0.6299212598425197,
                    "duration": 0.06818179999999074
                },
                {
                    "name": "G#6",
                    "midi": 92,
                    "time": 140.622121591666,
                    "velocity": 0.6456692913385826,
                    "duration": 0.06818179999999074
                },
                {
                    "name": "A6",
                    "midi": 93,
                    "time": 140.707348841666,
                    "velocity": 0.6299212598425197,
                    "duration": 0.06818179999999074
                },
                {
                    "name": "G#6",
                    "midi": 92,
                    "time": 140.78973518333265,
                    "velocity": 0.6299212598425197,
                    "duration": 0.06818179999999074
                },
                {
                    "name": "A6",
                    "midi": 93,
                    "time": 140.87780334166598,
                    "velocity": 0.6299212598425197,
                    "duration": 0.06818179999999074
                },
                {
                    "name": "G#6",
                    "midi": 92,
                    "time": 140.96018968333263,
                    "velocity": 0.6141732283464567,
                    "duration": 0.06818179999999074
                },
                {
                    "name": "A6",
                    "midi": 93,
                    "time": 141.05678056666596,
                    "velocity": 0.6456692913385826,
                    "duration": 0.06818179999999074
                },
                {
                    "name": "G#6",
                    "midi": 92,
                    "time": 141.1363259999993,
                    "velocity": 0.6220472440944882,
                    "duration": 0.06818179999999074
                },
                {
                    "name": "A6",
                    "midi": 93,
                    "time": 141.22439415833261,
                    "velocity": 0.6220472440944882,
                    "duration": 0.06818179999999074
                },
                {
                    "name": "G#6",
                    "midi": 92,
                    "time": 141.3010986833326,
                    "velocity": 0.6141732283464567,
                    "duration": 0.06818179999999074
                },
                {
                    "name": "A6",
                    "midi": 93,
                    "time": 141.3948486583326,
                    "velocity": 0.6377952755905512,
                    "duration": 0.06818179999999074
                },
                {
                    "name": "G#6",
                    "midi": 92,
                    "time": 141.4743940916659,
                    "velocity": 0.6141732283464567,
                    "duration": 0.06818179999999074
                },
                {
                    "name": "A6",
                    "midi": 93,
                    "time": 141.55678043333256,
                    "velocity": 0.6377952755905512,
                    "duration": 0.06818179999999074
                },
                {
                    "name": "G#6",
                    "midi": 92,
                    "time": 141.6448485916659,
                    "velocity": 0.6220472440944882,
                    "duration": 0.06818179999999074
                },
                {
                    "name": "A6",
                    "midi": 93,
                    "time": 141.73291674999922,
                    "velocity": 0.6456692913385826,
                    "duration": 0.06818179999999074
                },
                {
                    "name": "G#6",
                    "midi": 92,
                    "time": 141.81530309166587,
                    "velocity": 0.6141732283464567,
                    "duration": 0.06818179999999074
                },
                {
                    "name": "A6",
                    "midi": 93,
                    "time": 141.9033712499992,
                    "velocity": 0.6456692913385826,
                    "duration": 0.06818179999999074
                },
                {
                    "name": "G#6",
                    "midi": 92,
                    "time": 141.99428031666585,
                    "velocity": 0.6141732283464567,
                    "duration": 0.06818179999999074
                },
                {
                    "name": "A6",
                    "midi": 93,
                    "time": 142.07950756666585,
                    "velocity": 0.6456692913385826,
                    "duration": 0.06818179999999074
                },
                {
                    "name": "G#6",
                    "midi": 92,
                    "time": 142.16473481666586,
                    "velocity": 0.6141732283464567,
                    "duration": 0.06818179999999074
                },
                {
                    "name": "A6",
                    "midi": 93,
                    "time": 142.2471211583325,
                    "velocity": 0.6299212598425197,
                    "duration": 0.06818179999999074
                },
                {
                    "name": "G#6",
                    "midi": 92,
                    "time": 142.3238256833325,
                    "velocity": 0.6456692913385826,
                    "duration": 0.06818179999999074
                },
                {
                    "name": "A6",
                    "midi": 93,
                    "time": 142.4090529333325,
                    "velocity": 0.6456692913385826,
                    "duration": 0.06818179999999074
                },
                {
                    "name": "G#6",
                    "midi": 92,
                    "time": 142.49712109166583,
                    "velocity": 0.6141732283464567,
                    "duration": 0.06818179999999074
                },
                {
                    "name": "A6",
                    "midi": 93,
                    "time": 142.5880301583325,
                    "velocity": 0.6377952755905512,
                    "duration": 0.06818179999999074
                },
                {
                    "name": "G#6",
                    "midi": 92,
                    "time": 142.66473468333248,
                    "velocity": 0.6141732283464567,
                    "duration": 0.06818179999999074
                },
                {
                    "name": "A6",
                    "midi": 93,
                    "time": 142.7499619333325,
                    "velocity": 0.6220472440944882,
                    "duration": 0.06818179999999074
                },
                {
                    "name": "G#6",
                    "midi": 92,
                    "time": 142.84371190833247,
                    "velocity": 0.6141732283464567,
                    "duration": 0.1363635999999815
                },
                {
                    "name": "G#6",
                    "midi": 92,
                    "time": 142.8465528166658,
                    "velocity": 0.5433070866141733,
                    "duration": 0.1363635999999815
                },
                {
                    "name": "G6",
                    "midi": 91,
                    "time": 143.2670072499991,
                    "velocity": 0.6220472440944882,
                    "duration": 0.06818179999999074
                },
                {
                    "name": "A6",
                    "midi": 93,
                    "time": 143.35507540833243,
                    "velocity": 0.6220472440944882,
                    "duration": 0.06818179999999074
                },
                {
                    "name": "G6",
                    "midi": 91,
                    "time": 143.43177993333242,
                    "velocity": 0.6141732283464567,
                    "duration": 0.06818179999999074
                },
                {
                    "name": "F#6",
                    "midi": 90,
                    "time": 143.6107571583324,
                    "velocity": 0.6220472440944882,
                    "duration": 0.06818179999999074
                },
                {
                    "name": "G#6",
                    "midi": 92,
                    "time": 143.6874616833324,
                    "velocity": 0.6377952755905512,
                    "duration": 0.06818179999999074
                },
                {
                    "name": "F#6",
                    "midi": 90,
                    "time": 143.77552984166573,
                    "velocity": 0.6377952755905512,
                    "duration": 0.06818179999999074
                },
                {
                    "name": "G#6",
                    "midi": 92,
                    "time": 143.8692798166657,
                    "velocity": 0.6377952755905512,
                    "duration": 0.03409089999999537
                },
                {
                    "name": "F#6",
                    "midi": 90,
                    "time": 143.90621162499903,
                    "velocity": 0.6141732283464567,
                    "duration": 0.03409089999999537
                },
                {
                    "name": "G#6",
                    "midi": 92,
                    "time": 143.95166615833236,
                    "velocity": 0.6377952755905512,
                    "duration": 0.03409089999999537
                },
                {
                    "name": "F#6",
                    "midi": 90,
                    "time": 143.98859796666568,
                    "velocity": 0.6377952755905512,
                    "duration": 0.03409089999999537
                },
                {
                    "name": "G#6",
                    "midi": 92,
                    "time": 144.03121159166568,
                    "velocity": 0.6377952755905512,
                    "duration": 0.03409089999999537
                },
                {
                    "name": "F#6",
                    "midi": 90,
                    "time": 144.07382521666568,
                    "velocity": 0.6456692913385826,
                    "duration": 0.03409089999999537
                },
                {
                    "name": "G#6",
                    "midi": 92,
                    "time": 144.12212065833234,
                    "velocity": 0.6299212598425197,
                    "duration": 0.03409089999999537
                },
                {
                    "name": "F#6",
                    "midi": 90,
                    "time": 144.15621155833233,
                    "velocity": 0.6456692913385826,
                    "duration": 0.03409089999999537
                },
                {
                    "name": "G#6",
                    "midi": 92,
                    "time": 144.20734790833234,
                    "velocity": 0.6220472440944882,
                    "duration": 0.03409089999999537
                },
                {
                    "name": "F#6",
                    "midi": 90,
                    "time": 144.24427971666566,
                    "velocity": 0.6377952755905512,
                    "duration": 0.03409089999999537
                },
                {
                    "name": "G#6",
                    "midi": 92,
                    "time": 144.28405243333233,
                    "velocity": 0.6141732283464567,
                    "duration": 0.03409089999999537
                },
                {
                    "name": "F#6",
                    "midi": 90,
                    "time": 144.332347874999,
                    "velocity": 0.6377952755905512,
                    "duration": 0.03409089999999537
                },
                {
                    "name": "G#6",
                    "midi": 92,
                    "time": 144.37212059166566,
                    "velocity": 0.6456692913385826,
                    "duration": 0.03409089999999537
                },
                {
                    "name": "F#6",
                    "midi": 90,
                    "time": 144.41189330833234,
                    "velocity": 0.6220472440944882,
                    "duration": 0.03409089999999537
                },
                {
                    "name": "G#6",
                    "midi": 92,
                    "time": 144.460188749999,
                    "velocity": 0.6299212598425197,
                    "duration": 0.03409089999999537
                },
                {
                    "name": "F#6",
                    "midi": 90,
                    "time": 144.50564328333232,
                    "velocity": 0.6220472440944882,
                    "duration": 0.03409089999999537
                },
                {
                    "name": "F#6",
                    "midi": 90,
                    "time": 144.54825690833232,
                    "velocity": 0.6456692913385826,
                    "duration": 0.06818179999999074
                },
                {
                    "name": "G#6",
                    "midi": 92,
                    "time": 144.62496143333232,
                    "velocity": 0.6220472440944882,
                    "duration": 0.06818179999999074
                },
                {
                    "name": "F#6",
                    "midi": 90,
                    "time": 144.71018868333232,
                    "velocity": 0.6299212598425197,
                    "duration": 0.06818179999999074
                },
                {
                    "name": "G#6",
                    "midi": 92,
                    "time": 144.79825684166565,
                    "velocity": 0.6456692913385826,
                    "duration": 0.06818179999999074
                },
                {
                    "name": "F#6",
                    "midi": 90,
                    "time": 144.88348409166565,
                    "velocity": 0.6141732283464567,
                    "duration": 0.06818179999999074
                },
                {
                    "name": "G#6",
                    "midi": 92,
                    "time": 144.97723406666563,
                    "velocity": 0.6220472440944882,
                    "duration": 0.06818179999999074
                },
                {
                    "name": "F#6",
                    "midi": 90,
                    "time": 145.06246131666563,
                    "velocity": 0.6220472440944882,
                    "duration": 0.06818179999999074
                },
                {
                    "name": "G#6",
                    "midi": 92,
                    "time": 145.14484765833228,
                    "velocity": 0.6299212598425197,
                    "duration": 0.06818179999999074
                },
                {
                    "name": "F#6",
                    "midi": 90,
                    "time": 145.23007490833228,
                    "velocity": 0.6141732283464567,
                    "duration": 0.06818179999999074
                },
                {
                    "name": "G#6",
                    "midi": 92,
                    "time": 145.3153021583323,
                    "velocity": 0.6299212598425197,
                    "duration": 0.06818179999999074
                },
                {
                    "name": "F#6",
                    "midi": 90,
                    "time": 145.39768849999894,
                    "velocity": 0.6456692913385826,
                    "duration": 0.06818179999999074
                },
                {
                    "name": "G#6",
                    "midi": 92,
                    "time": 145.48575665833226,
                    "velocity": 0.6377952755905512,
                    "duration": 0.06818179999999074
                },
                {
                    "name": "F#6",
                    "midi": 90,
                    "time": 145.57098390833227,
                    "velocity": 0.6299212598425197,
                    "duration": 0.06818179999999074
                },
                {
                    "name": "G#6",
                    "midi": 92,
                    "time": 145.65337024999891,
                    "velocity": 0.6299212598425197,
                    "duration": 0.06818179999999074
                },
                {
                    "name": "F#6",
                    "midi": 90,
                    "time": 145.74143840833224,
                    "velocity": 0.6299212598425197,
                    "duration": 0.06818179999999074
                },
                {
                    "name": "G#6",
                    "midi": 92,
                    "time": 145.81814293333224,
                    "velocity": 0.6299212598425197,
                    "duration": 0.06818179999999074
                },
                {
                    "name": "B6",
                    "midi": 95,
                    "time": 145.90621109166557,
                    "velocity": 0.6220472440944882,
                    "duration": 0.2556817499999511
                },
                {
                    "name": "F#6",
                    "midi": 90,
                    "time": 145.91473381666557,
                    "velocity": 0.6377952755905512,
                    "duration": 0.06818179999999074
                },
                {
                    "name": "G#6",
                    "midi": 92,
                    "time": 145.99712015833222,
                    "velocity": 0.6299212598425197,
                    "duration": 0.06818179999999074
                },
                {
                    "name": "F#6",
                    "midi": 90,
                    "time": 146.07950649999887,
                    "velocity": 0.6299212598425197,
                    "duration": 0.06818179999999074
                },
                {
                    "name": "G#6",
                    "midi": 92,
                    "time": 146.1675746583322,
                    "velocity": 0.6141732283464567,
                    "duration": 0.06818179999999074
                },
                {
                    "name": "F#6",
                    "midi": 90,
                    "time": 146.25564281666553,
                    "velocity": 0.6220472440944882,
                    "duration": 0.06818179999999074
                },
                {
                    "name": "G#6",
                    "midi": 92,
                    "time": 146.33802915833218,
                    "velocity": 0.6299212598425197,
                    "duration": 0.06818179999999074
                },
                {
                    "name": "F#6",
                    "midi": 90,
                    "time": 146.4260973166655,
                    "velocity": 0.6456692913385826,
                    "duration": 0.06818179999999074
                },
                {
                    "name": "G#6",
                    "midi": 92,
                    "time": 146.50564274999883,
                    "velocity": 0.6299212598425197,
                    "duration": 0.06818179999999074
                },
                {
                    "name": "F#6",
                    "midi": 90,
                    "time": 146.59655181666548,
                    "velocity": 0.6299212598425197,
                    "duration": 0.06818179999999074
                },
                {
                    "name": "G#6",
                    "midi": 92,
                    "time": 146.67325634166548,
                    "velocity": 0.6299212598425197,
                    "duration": 0.06818179999999074
                },
                {
                    "name": "F#6",
                    "midi": 90,
                    "time": 146.76700631666546,
                    "velocity": 0.6220472440944882,
                    "duration": 0.06818179999999074
                },
                {
                    "name": "G#6",
                    "midi": 92,
                    "time": 146.84086993333213,
                    "velocity": 0.6299212598425197,
                    "duration": 0.06818179999999074
                },
                {
                    "name": "B6",
                    "midi": 95,
                    "time": 146.9346199083321,
                    "velocity": 0.6456692913385826,
                    "duration": 0.1363635999999815
                },
                {
                    "name": "F#6",
                    "midi": 90,
                    "time": 146.93746081666544,
                    "velocity": 0.6456692913385826,
                    "duration": 0.1363635999999815
                },
                {
                    "name": "F#6",
                    "midi": 90,
                    "time": 149.0084829916654,
                    "velocity": 0.6299212598425197,
                    "duration": 0.05113635000000727
                },
                {
                    "name": "G6",
                    "midi": 91,
                    "time": 149.07950569999875,
                    "velocity": 0.6141732283464567,
                    "duration": 0.05113635000000727
                },
                {
                    "name": "G#6",
                    "midi": 92,
                    "time": 149.13916477499876,
                    "velocity": 0.6141732283464567,
                    "duration": 0.05113635000000727
                },
                {
                    "name": "A6",
                    "midi": 93,
                    "time": 149.2016647583321,
                    "velocity": 0.6141732283464567,
                    "duration": 0.05113635000000727
                },
                {
                    "name": "A#6",
                    "midi": 94,
                    "time": 149.2584829249988,
                    "velocity": 0.6220472440944882,
                    "duration": 0.05113635000000727
                },
                {
                    "name": "B6",
                    "midi": 95,
                    "time": 149.32950563333213,
                    "velocity": 0.6456692913385826,
                    "duration": 0.05113635000000727
                },
                {
                    "name": "B6",
                    "midi": 95,
                    "time": 150.1107554249988,
                    "velocity": 0.6456692913385826,
                    "duration": 0.05397725833333311
                },
                {
                    "name": "A#6",
                    "midi": 94,
                    "time": 150.1874599499988,
                    "velocity": 0.6141732283464567,
                    "duration": 0.05397725833333311
                },
                {
                    "name": "A6",
                    "midi": 93,
                    "time": 150.24427811666547,
                    "velocity": 0.6456692913385826,
                    "duration": 0.05397725833333311
                },
                {
                    "name": "G#6",
                    "midi": 92,
                    "time": 150.31814173333214,
                    "velocity": 0.6299212598425197,
                    "duration": 0.05397725833333311
                },
                {
                    "name": "G6",
                    "midi": 91,
                    "time": 150.3834826249988,
                    "velocity": 0.6377952755905512,
                    "duration": 0.05397725833333311
                },
                {
                    "name": "F#6",
                    "midi": 90,
                    "time": 150.45734624166548,
                    "velocity": 0.6141732283464567,
                    "duration": 0.05397725833333311
                },
                {
                    "name": "F#6",
                    "midi": 90,
                    "time": 153.10791371666548,
                    "velocity": 0.6220472440944882,
                    "duration": 0.05113635000000727
                },
                {
                    "name": "G6",
                    "midi": 91,
                    "time": 153.1618909749988,
                    "velocity": 0.6299212598425197,
                    "duration": 0.05113635000000727
                },
                {
                    "name": "G#6",
                    "midi": 92,
                    "time": 153.23007277499883,
                    "velocity": 0.6299212598425197,
                    "duration": 0.05113635000000727
                },
                {
                    "name": "A6",
                    "midi": 93,
                    "time": 153.29257275833217,
                    "velocity": 0.6299212598425197,
                    "duration": 0.05113635000000727
                },
                {
                    "name": "A#6",
                    "midi": 94,
                    "time": 153.3550727416655,
                    "velocity": 0.6299212598425197,
                    "duration": 0.05113635000000727
                },
                {
                    "name": "B6",
                    "midi": 95,
                    "time": 153.42041363333217,
                    "velocity": 0.6456692913385826,
                    "duration": 0.05113635000000727
                },
                {
                    "name": "B6",
                    "midi": 95,
                    "time": 154.20450433333218,
                    "velocity": 0.6456692913385826,
                    "duration": 0.05397725833333311
                },
                {
                    "name": "A#6",
                    "midi": 94,
                    "time": 154.27268613333217,
                    "velocity": 0.6141732283464567,
                    "duration": 0.05397725833333311
                },
                {
                    "name": "A6",
                    "midi": 93,
                    "time": 154.34370884166552,
                    "velocity": 0.6141732283464567,
                    "duration": 0.05397725833333311
                },
                {
                    "name": "G#6",
                    "midi": 92,
                    "time": 154.41473154999886,
                    "velocity": 0.6141732283464567,
                    "duration": 0.05397725833333311
                },
                {
                    "name": "G6",
                    "midi": 91,
                    "time": 154.47154971666552,
                    "velocity": 0.6377952755905512,
                    "duration": 0.05397725833333311
                },
                {
                    "name": "F#6",
                    "midi": 90,
                    "time": 154.54257242499887,
                    "velocity": 0.6220472440944882,
                    "duration": 0.05397725833333311
                },
                {
                    "name": "F#6",
                    "midi": 90,
                    "time": 155.21586769999885,
                    "velocity": 0.6299212598425197,
                    "duration": 0.05113635000000727
                },
                {
                    "name": "G6",
                    "midi": 91,
                    "time": 155.26700404999886,
                    "velocity": 0.6299212598425197,
                    "duration": 0.05113635000000727
                },
                {
                    "name": "G#6",
                    "midi": 92,
                    "time": 155.33518584999888,
                    "velocity": 0.6456692913385826,
                    "duration": 0.05113635000000727
                },
                {
                    "name": "A6",
                    "midi": 93,
                    "time": 155.40052674166554,
                    "velocity": 0.6299212598425197,
                    "duration": 0.05113635000000727
                },
                {
                    "name": "A#6",
                    "midi": 94,
                    "time": 155.4658676333322,
                    "velocity": 0.6141732283464567,
                    "duration": 0.05113635000000727
                },
                {
                    "name": "B6",
                    "midi": 95,
                    "time": 155.52836761666555,
                    "velocity": 0.6141732283464567,
                    "duration": 0.05113635000000727
                },
                {
                    "name": "B6",
                    "midi": 95,
                    "time": 156.31814013333224,
                    "velocity": 0.6299212598425197,
                    "duration": 0.05397725833333311
                },
                {
                    "name": "A#6",
                    "midi": 94,
                    "time": 156.3749582999989,
                    "velocity": 0.6220472440944882,
                    "duration": 0.05397725833333311
                },
                {
                    "name": "A6",
                    "midi": 93,
                    "time": 156.44598100833224,
                    "velocity": 0.6299212598425197,
                    "duration": 0.05397725833333311
                },
                {
                    "name": "G#6",
                    "midi": 92,
                    "time": 156.5198446249989,
                    "velocity": 0.6220472440944882,
                    "duration": 0.05397725833333311
                },
                {
                    "name": "G6",
                    "midi": 91,
                    "time": 156.59086733333226,
                    "velocity": 0.6141732283464567,
                    "duration": 0.05397725833333311
                },
                {
                    "name": "F#6",
                    "midi": 90,
                    "time": 156.65620822499892,
                    "velocity": 0.6299212598425197,
                    "duration": 0.05397725833333311
                },
                {
                    "name": "F#6",
                    "midi": 90,
                    "time": 157.26132169999892,
                    "velocity": 0.6141732283464567,
                    "duration": 0.05113635000000727
                },
                {
                    "name": "G6",
                    "midi": 91,
                    "time": 157.32382168333226,
                    "velocity": 0.6141732283464567,
                    "duration": 0.05113635000000727
                },
                {
                    "name": "G#6",
                    "midi": 92,
                    "time": 157.38063984999894,
                    "velocity": 0.6220472440944882,
                    "duration": 0.05113635000000727
                },
                {
                    "name": "A6",
                    "midi": 93,
                    "time": 157.43745801666563,
                    "velocity": 0.6220472440944882,
                    "duration": 0.05113635000000727
                },
                {
                    "name": "A#6",
                    "midi": 94,
                    "time": 157.50848072499898,
                    "velocity": 0.6141732283464567,
                    "duration": 0.05113635000000727
                },
                {
                    "name": "B6",
                    "midi": 95,
                    "time": 157.57382161666564,
                    "velocity": 0.6377952755905512,
                    "duration": 0.05113635000000727
                },
                {
                    "name": "B6",
                    "midi": 95,
                    "time": 158.4999577333323,
                    "velocity": 0.6220472440944882,
                    "duration": 0.05113635000000727
                },
                {
                    "name": "A#6",
                    "midi": 94,
                    "time": 158.56529862499897,
                    "velocity": 0.6456692913385826,
                    "duration": 0.05113635000000727
                },
                {
                    "name": "B6",
                    "midi": 95,
                    "time": 158.63632133333232,
                    "velocity": 0.6299212598425197,
                    "duration": 0.05113635000000727
                },
                {
                    "name": "A#6",
                    "midi": 94,
                    "time": 158.69598040833233,
                    "velocity": 0.6377952755905512,
                    "duration": 0.05113635000000727
                },
                {
                    "name": "A6",
                    "midi": 93,
                    "time": 158.75279857499902,
                    "velocity": 0.6220472440944882,
                    "duration": 0.05113635000000727
                },
                {
                    "name": "G#6",
                    "midi": 92,
                    "time": 158.81813946666568,
                    "velocity": 0.6220472440944882,
                    "duration": 0.045454533333355585
                },
                {
                    "name": "A6",
                    "midi": 93,
                    "time": 158.85791218333236,
                    "velocity": 0.6299212598425197,
                    "duration": 0.05113635000000727
                },
                {
                    "name": "G#6",
                    "midi": 92,
                    "time": 158.9204121666657,
                    "velocity": 0.6220472440944882,
                    "duration": 0.05113635000000727
                },
                {
                    "name": "G6",
                    "midi": 91,
                    "time": 158.98575305833236,
                    "velocity": 0.6299212598425197,
                    "duration": 0.05113635000000727
                },
                {
                    "name": "F#6",
                    "midi": 90,
                    "time": 159.04541213333238,
                    "velocity": 0.6299212598425197,
                    "duration": 0.05113635000000727
                },
                {
                    "name": "G6",
                    "midi": 91,
                    "time": 159.11075302499904,
                    "velocity": 0.6220472440944882,
                    "duration": 0.05113635000000727
                },
                {
                    "name": "F#6",
                    "midi": 90,
                    "time": 159.17325300833238,
                    "velocity": 0.6299212598425197,
                    "duration": 0.05113635000000727
                },
                {
                    "name": "F#6",
                    "midi": 90,
                    "time": 165.4971149583324,
                    "velocity": 0.6299212598425197,
                    "duration": 0.05113635000000727
                },
                {
                    "name": "G6",
                    "midi": 91,
                    "time": 165.63063764999907,
                    "velocity": 0.6141732283464567,
                    "duration": 0.05113635000000727
                },
                {
                    "name": "F#6",
                    "midi": 90,
                    "time": 165.68745581666576,
                    "velocity": 0.6141732283464567,
                    "duration": 0.05113635000000727
                },
                {
                    "name": "G#6",
                    "midi": 92,
                    "time": 165.75279670833243,
                    "velocity": 0.6299212598425197,
                    "duration": 0.05113635000000727
                },
                {
                    "name": "G6",
                    "midi": 91,
                    "time": 165.80677396666576,
                    "velocity": 0.6220472440944882,
                    "duration": 0.05113635000000727
                },
                {
                    "name": "A6",
                    "midi": 93,
                    "time": 165.8692739499991,
                    "velocity": 0.6377952755905512,
                    "duration": 0.05113635000000727
                },
                {
                    "name": "G#6",
                    "midi": 92,
                    "time": 165.93177393333244,
                    "velocity": 0.6377952755905512,
                    "duration": 0.05113635000000727
                },
                {
                    "name": "A#6",
                    "midi": 94,
                    "time": 165.9971148249991,
                    "velocity": 0.6220472440944882,
                    "duration": 0.05113635000000727
                },
                {
                    "name": "A6",
                    "midi": 93,
                    "time": 166.05677389999911,
                    "velocity": 0.6377952755905512,
                    "duration": 0.05113635000000727
                },
                {
                    "name": "B6",
                    "midi": 95,
                    "time": 166.12211479166578,
                    "velocity": 0.6220472440944882,
                    "duration": 0.05113635000000727
                },
                {
                    "name": "A#6",
                    "midi": 94,
                    "time": 166.1902965916658,
                    "velocity": 0.6377952755905512,
                    "duration": 0.05113635000000727
                },
                {
                    "name": "B6",
                    "midi": 95,
                    "time": 166.31245564999915,
                    "velocity": 0.6220472440944882,
                    "duration": 0.05113635000000727
                },
                {
                    "name": "B6",
                    "midi": 95,
                    "time": 189.63063124999917,
                    "velocity": 0.6377952755905512,
                    "duration": 0.06818179999999074
                },
                {
                    "name": "B6",
                    "midi": 95,
                    "time": 189.80108574999915,
                    "velocity": 0.6141732283464567,
                    "duration": 0.06818179999999074
                },
                {
                    "name": "B6",
                    "midi": 95,
                    "time": 189.9772220666658,
                    "velocity": 0.6220472440944882,
                    "duration": 0.06818179999999074
                },
                {
                    "name": "B6",
                    "midi": 95,
                    "time": 190.13631293333245,
                    "velocity": 0.6377952755905512,
                    "duration": 0.06818179999999074
                },
                {
                    "name": "A#6",
                    "midi": 94,
                    "time": 190.3124492499991,
                    "velocity": 0.6456692913385826,
                    "duration": 0.06818179999999074
                },
                {
                    "name": "B6",
                    "midi": 95,
                    "time": 190.3976764999991,
                    "velocity": 0.6456692913385826,
                    "duration": 0.06818179999999074
                },
                {
                    "name": "A#6",
                    "midi": 94,
                    "time": 190.47722193333243,
                    "velocity": 0.6377952755905512,
                    "duration": 0.06818179999999074
                },
                {
                    "name": "G#6",
                    "midi": 92,
                    "time": 190.6561991583324,
                    "velocity": 0.6141732283464567,
                    "duration": 0.06818179999999074
                },
                {
                    "name": "A#6",
                    "midi": 94,
                    "time": 190.73574459166574,
                    "velocity": 0.6377952755905512,
                    "duration": 0.06818179999999074
                },
                {
                    "name": "G#6",
                    "midi": 92,
                    "time": 190.82949456666572,
                    "velocity": 0.6299212598425197,
                    "duration": 0.06818179999999074
                },
                {
                    "name": "G6",
                    "midi": 91,
                    "time": 190.99710815833237,
                    "velocity": 0.6377952755905512,
                    "duration": 0.06818179999999074
                },
                {
                    "name": "G#6",
                    "midi": 92,
                    "time": 191.08233540833237,
                    "velocity": 0.6377952755905512,
                    "duration": 0.06818179999999074
                },
                {
                    "name": "G6",
                    "midi": 91,
                    "time": 191.15903993333237,
                    "velocity": 0.6220472440944882,
                    "duration": 0.06818179999999074
                },
                {
                    "name": "G#6",
                    "midi": 92,
                    "time": 191.32949443333234,
                    "velocity": 0.6141732283464567,
                    "duration": 0.06818179999999074
                },
                {
                    "name": "A#6",
                    "midi": 94,
                    "time": 191.41472168333235,
                    "velocity": 0.6456692913385826,
                    "duration": 0.06818179999999074
                },
                {
                    "name": "G#6",
                    "midi": 92,
                    "time": 191.49994893333235,
                    "velocity": 0.6141732283464567,
                    "duration": 0.06818179999999074
                },
                {
                    "name": "A#6",
                    "midi": 94,
                    "time": 191.67892615833233,
                    "velocity": 0.6377952755905512,
                    "duration": 0.06818179999999074
                },
                {
                    "name": "B6",
                    "midi": 95,
                    "time": 191.75847159166565,
                    "velocity": 0.6220472440944882,
                    "duration": 0.06818179999999074
                },
                {
                    "name": "A#6",
                    "midi": 94,
                    "time": 191.8408579333323,
                    "velocity": 0.6456692913385826,
                    "duration": 0.06818179999999074
                },
                {
                    "name": "F#6",
                    "midi": 90,
                    "time": 192.7783576833323,
                    "velocity": 0.6220472440944882,
                    "duration": 0.06818179999999074
                },
                {
                    "name": "A6",
                    "midi": 93,
                    "time": 198.49426524999896,
                    "velocity": 0.6141732283464567,
                    "duration": 0.06818179999999074
                },
                {
                    "name": "B6",
                    "midi": 95,
                    "time": 198.5823334083323,
                    "velocity": 0.6456692913385826,
                    "duration": 0.06818179999999074
                },
                {
                    "name": "A6",
                    "midi": 93,
                    "time": 198.67040156666562,
                    "velocity": 0.6299212598425197,
                    "duration": 0.06818179999999074
                },
                {
                    "name": "G#6",
                    "midi": 92,
                    "time": 198.83233334166562,
                    "velocity": 0.6456692913385826,
                    "duration": 0.06818179999999074
                },
                {
                    "name": "A6",
                    "midi": 93,
                    "time": 198.91471968333227,
                    "velocity": 0.6299212598425197,
                    "duration": 0.06818179999999074
                },
                {
                    "name": "G#6",
                    "midi": 92,
                    "time": 199.0027878416656,
                    "velocity": 0.6141732283464567,
                    "duration": 0.06818179999999074
                },
                {
                    "name": "G#6",
                    "midi": 92,
                    "time": 199.18176506666558,
                    "velocity": 0.6220472440944882,
                    "duration": 0.06818179999999074
                },
                {
                    "name": "A6",
                    "midi": 93,
                    "time": 199.25846959166557,
                    "velocity": 0.6377952755905512,
                    "duration": 0.06818179999999074
                },
                {
                    "name": "G#6",
                    "midi": 92,
                    "time": 199.3465377499989,
                    "velocity": 0.6456692913385826,
                    "duration": 0.06818179999999074
                },
                {
                    "name": "F#6",
                    "midi": 90,
                    "time": 199.51131043333223,
                    "velocity": 0.6141732283464567,
                    "duration": 0.06818179999999074
                },
                {
                    "name": "G#6",
                    "midi": 92,
                    "time": 199.60790131666556,
                    "velocity": 0.6299212598425197,
                    "duration": 0.06818179999999074
                },
                {
                    "name": "F#6",
                    "midi": 90,
                    "time": 199.68176493333223,
                    "velocity": 0.6141732283464567,
                    "duration": 0.06818179999999074
                },
                {
                    "name": "F#6",
                    "midi": 90,
                    "time": 199.94028759166557,
                    "velocity": 0.6299212598425197,
                    "duration": 0.06818179999999074
                },
                {
                    "name": "F#6",
                    "midi": 90,
                    "time": 200.96301459166557,
                    "velocity": 0.6456692913385826,
                    "duration": 0.06818179999999074
                },
                {
                    "name": "F#6",
                    "midi": 90,
                    "time": 202.77835501666556,
                    "velocity": 0.6220472440944882,
                    "duration": 0.04545453333332716
                },
                {
                    "name": "G6",
                    "midi": 91,
                    "time": 202.83517318333222,
                    "velocity": 0.6141732283464567,
                    "duration": 0.04545453333332716
                },
                {
                    "name": "G#6",
                    "midi": 92,
                    "time": 202.89199134999888,
                    "velocity": 0.6299212598425197,
                    "duration": 0.04545453333332716
                },
                {
                    "name": "A6",
                    "midi": 93,
                    "time": 202.95449133333221,
                    "velocity": 0.6456692913385826,
                    "duration": 0.04545453333332716
                },
                {
                    "name": "A#6",
                    "midi": 94,
                    "time": 203.00562768333222,
                    "velocity": 0.6377952755905512,
                    "duration": 0.04545453333332716
                },
                {
                    "name": "B6",
                    "midi": 95,
                    "time": 203.0709685749989,
                    "velocity": 0.6456692913385826,
                    "duration": 0.04545453333332716
                },
                {
                    "name": "A#6",
                    "midi": 94,
                    "time": 203.52551390833221,
                    "velocity": 0.6220472440944882,
                    "duration": 0.04545453333332716
                },
                {
                    "name": "G6",
                    "midi": 91,
                    "time": 203.57949116666555,
                    "velocity": 0.6377952755905512,
                    "duration": 0.04545453333332716
                },
                {
                    "name": "F#6",
                    "midi": 90,
                    "time": 203.74994566666555,
                    "velocity": 0.6299212598425197,
                    "duration": 0.04545453333332716
                },
                {
                    "name": "B6",
                    "midi": 95,
                    "time": 205.17324074166555,
                    "velocity": 0.6377952755905512,
                    "duration": 0.04545453333332716
                },
                {
                    "name": "G#6",
                    "midi": 92,
                    "time": 205.2215361833322,
                    "velocity": 0.6299212598425197,
                    "duration": 0.2727271999999914
                },
                {
                    "name": "B6",
                    "midi": 95,
                    "time": 209.82948949999886,
                    "velocity": 0.6456692913385826,
                    "duration": 0.10227269999998612
                },
                {
                    "name": "F#6",
                    "midi": 90,
                    "time": 213.06812499999884,
                    "velocity": 0.6299212598425197,
                    "duration": 0.10227269999998612
                },
                {
                    "name": "F#6",
                    "midi": 90,
                    "time": 213.74994299999884,
                    "velocity": 0.6299212598425197,
                    "duration": 0.10227269999998612
                },
                {
                    "name": "F#6",
                    "midi": 90,
                    "time": 214.26698831666548,
                    "velocity": 0.6299212598425197,
                    "duration": 0.10227269999998612
                },
                {
                    "name": "F#6",
                    "midi": 90,
                    "time": 214.4317609999988,
                    "velocity": 0.6377952755905512,
                    "duration": 0.10227269999998612
                },
                {
                    "name": "F#6",
                    "midi": 90,
                    "time": 214.59937459166545,
                    "velocity": 0.6141732283464567,
                    "duration": 0.10227269999998612
                },
                {
                    "name": "F#6",
                    "midi": 90,
                    "time": 214.7755109083321,
                    "velocity": 0.6220472440944882,
                    "duration": 0.10227269999998612
                },
                {
                    "name": "F#6",
                    "midi": 90,
                    "time": 214.94028359166543,
                    "velocity": 0.6299212598425197,
                    "duration": 0.10227269999998612
                },
                {
                    "name": "F#6",
                    "midi": 90,
                    "time": 215.10789718333208,
                    "velocity": 0.6141732283464567,
                    "duration": 0.10227269999998612
                },
                {
                    "name": "F#6",
                    "midi": 90,
                    "time": 215.8010788166654,
                    "velocity": 0.6141732283464567,
                    "duration": 0.10227269999998612
                },
                {
                    "name": "G#6",
                    "midi": 92,
                    "time": 216.13914690833207,
                    "velocity": 0.6299212598425197,
                    "duration": 0.10227269999998612
                },
                {
                    "name": "G#6",
                    "midi": 92,
                    "time": 216.82380581666538,
                    "velocity": 0.6299212598425197,
                    "duration": 0.10227269999998612
                },
                {
                    "name": "A6",
                    "midi": 93,
                    "time": 217.15335118333203,
                    "velocity": 0.6220472440944882,
                    "duration": 0.10227269999998612
                },
                {
                    "name": "F#6",
                    "midi": 90,
                    "time": 217.16471481666537,
                    "velocity": 0.6141732283464567,
                    "duration": 0.10227269999998612
                },
                {
                    "name": "B6",
                    "midi": 95,
                    "time": 217.323805683332,
                    "velocity": 0.6220472440944882,
                    "duration": 0.10227269999998612
                },
                {
                    "name": "G#6",
                    "midi": 92,
                    "time": 217.33516931666534,
                    "velocity": 0.6141732283464567,
                    "duration": 0.10227269999998612
                },
                {
                    "name": "A#6",
                    "midi": 94,
                    "time": 217.49994199999867,
                    "velocity": 0.6141732283464567,
                    "duration": 0.10227269999998612
                },
                {
                    "name": "A#6",
                    "midi": 94,
                    "time": 217.664714683332,
                    "velocity": 0.6220472440944882,
                    "duration": 0.10227269999998612
                },
                {
                    "name": "B6",
                    "midi": 95,
                    "time": 217.84085099999865,
                    "velocity": 0.6456692913385826,
                    "duration": 0.10227269999998612
                },
                {
                    "name": "G#6",
                    "midi": 92,
                    "time": 217.84085099999865,
                    "velocity": 0.6377952755905512,
                    "duration": 0.10227269999998612
                },
                {
                    "name": "F#6",
                    "midi": 90,
                    "time": 218.00562368333198,
                    "velocity": 0.6456692913385826,
                    "duration": 0.10227270000001454
                },
                {
                    "name": "A#6",
                    "midi": 94,
                    "time": 218.01414640833198,
                    "velocity": 0.6456692913385826,
                    "duration": 0.10227270000001454
                },
                {
                    "name": "G#6",
                    "midi": 92,
                    "time": 218.184600908332,
                    "velocity": 0.6141732283464567,
                    "duration": 0.10227269999998612
                },
                {
                    "name": "A#6",
                    "midi": 94,
                    "time": 218.35221449999864,
                    "velocity": 0.6141732283464567,
                    "duration": 0.10227269999998612
                },
                {
                    "name": "B6",
                    "midi": 95,
                    "time": 218.52266899999861,
                    "velocity": 0.6220472440944882,
                    "duration": 0.10227269999998612
                },
                {
                    "name": "B6",
                    "midi": 95,
                    "time": 218.69596440833195,
                    "velocity": 0.6141732283464567,
                    "duration": 0.10227269999998612
                },
                {
                    "name": "A#6",
                    "midi": 94,
                    "time": 218.86641890833192,
                    "velocity": 0.6456692913385826,
                    "duration": 0.10227269999998612
                },
                {
                    "name": "G#6",
                    "midi": 92,
                    "time": 219.03403249999857,
                    "velocity": 0.6299212598425197,
                    "duration": 0.10227269999998612
                },
                {
                    "name": "F#6",
                    "midi": 90,
                    "time": 219.1988051833319,
                    "velocity": 0.6220472440944882,
                    "duration": 0.10227269999998612
                },
                {
                    "name": "G#6",
                    "midi": 92,
                    "time": 219.3806233166652,
                    "velocity": 0.6220472440944882,
                    "duration": 0.10227269999998612
                },
                {
                    "name": "A#6",
                    "midi": 94,
                    "time": 219.5425550916652,
                    "velocity": 0.6220472440944882,
                    "duration": 0.10227269999998612
                },
                {
                    "name": "A#6",
                    "midi": 94,
                    "time": 219.71869140833186,
                    "velocity": 0.6377952755905512,
                    "duration": 0.10227269999998612
                },
                {
                    "name": "G#6",
                    "midi": 92,
                    "time": 219.88630499999852,
                    "velocity": 0.6220472440944882,
                    "duration": 0.10227269999998612
                },
                {
                    "name": "F#6",
                    "midi": 90,
                    "time": 220.06244131666517,
                    "velocity": 0.6141732283464567,
                    "duration": 0.10227269999998612
                },
                {
                    "name": "F#6",
                    "midi": 90,
                    "time": 220.39482759166515,
                    "velocity": 0.6377952755905512,
                    "duration": 0.10227269999998612
                },
                {
                    "name": "G#6",
                    "midi": 92,
                    "time": 220.5709639083318,
                    "velocity": 0.6456692913385826,
                    "duration": 0.10227269999998612
                },
                {
                    "name": "G#6",
                    "midi": 92,
                    "time": 220.74425931666514,
                    "velocity": 0.6456692913385826,
                    "duration": 0.10227269999998612
                },
                {
                    "name": "F#6",
                    "midi": 90,
                    "time": 221.2527819083318,
                    "velocity": 0.6141732283464567,
                    "duration": 0.2727271999999914
                },
                {
                    "name": "G#6",
                    "midi": 92,
                    "time": 223.29255409166512,
                    "velocity": 0.6141732283464567,
                    "duration": 0.2727271999999914
                },
                {
                    "name": "F#6",
                    "midi": 90,
                    "time": 223.6334630916651,
                    "velocity": 0.6141732283464567,
                    "duration": 0.10227269999998612
                },
                {
                    "name": "F#6",
                    "midi": 90,
                    "time": 223.80959940833176,
                    "velocity": 0.6299212598425197,
                    "duration": 0.10227269999998612
                },
                {
                    "name": "F#6",
                    "midi": 90,
                    "time": 227.3863029999984,
                    "velocity": 0.6299212598425197,
                    "duration": 0.2727271999999914
                },
                {
                    "name": "B6",
                    "midi": 95,
                    "time": 228.74425718333174,
                    "velocity": 0.6456692913385826,
                    "duration": 0.10227269999998612
                },
                {
                    "name": "B6",
                    "midi": 95,
                    "time": 228.92607531666505,
                    "velocity": 0.6456692913385826,
                    "duration": 0.10227269999998612
                },
                {
                    "name": "B6",
                    "midi": 95,
                    "time": 237.09936859166504,
                    "velocity": 0.7086614173228346,
                    "duration": 0.10227269999998612
                },
                {
                    "name": "A#6",
                    "midi": 94,
                    "time": 237.2669821833317,
                    "velocity": 0.7165354330708661,
                    "duration": 0.10227269999998612
                },
                {
                    "name": "G#6",
                    "midi": 92,
                    "time": 237.44027759166502,
                    "velocity": 0.7480314960629921,
                    "duration": 0.10227269999998612
                },
                {
                    "name": "G6",
                    "midi": 91,
                    "time": 237.61357299999835,
                    "velocity": 0.7401574803149606,
                    "duration": 0.10227269999998612
                },
                {
                    "name": "F#6",
                    "midi": 90,
                    "time": 237.78402749999833,
                    "velocity": 0.7401574803149606,
                    "duration": 0.10227269999998612
                },
                {
                    "name": "A6",
                    "midi": 93,
                    "time": 247.50277490833165,
                    "velocity": 0.8188976377952756,
                    "duration": 0.10227269999998612
                },
                {
                    "name": "A#6",
                    "midi": 94,
                    "time": 247.83516118333162,
                    "velocity": 0.8503937007874016,
                    "duration": 0.10227269999998612
                },
                {
                    "name": "B6",
                    "midi": 95,
                    "time": 258.07379481666493,
                    "velocity": 0.6220472440944882,
                    "duration": 0.10227270000001454
                },
                {
                    "name": "B6",
                    "midi": 95,
                    "time": 258.23572659166496,
                    "velocity": 0.6377952755905512,
                    "duration": 0.10227270000001454
                },
                {
                    "name": "B6",
                    "midi": 95,
                    "time": 258.4090219999983,
                    "velocity": 0.6141732283464567,
                    "duration": 0.10227270000001454
                },
                {
                    "name": "B6",
                    "midi": 95,
                    "time": 258.5794764999983,
                    "velocity": 0.6299212598425197,
                    "duration": 0.10227270000001454
                },
                {
                    "name": "A#6",
                    "midi": 94,
                    "time": 258.7527719083316,
                    "velocity": 0.6456692913385826,
                    "duration": 0.10227270000001454
                },
                {
                    "name": "A#6",
                    "midi": 94,
                    "time": 258.92606731666496,
                    "velocity": 0.6141732283464567,
                    "duration": 0.10227270000001454
                },
                {
                    "name": "G#6",
                    "midi": 92,
                    "time": 259.09652181666496,
                    "velocity": 0.6377952755905512,
                    "duration": 0.10227270000001454
                },
                {
                    "name": "G#6",
                    "midi": 92,
                    "time": 259.26697631666497,
                    "velocity": 0.6299212598425197,
                    "duration": 0.10227270000001454
                },
                {
                    "name": "G6",
                    "midi": 91,
                    "time": 259.428908091665,
                    "velocity": 0.6141732283464567,
                    "duration": 0.10227270000001454
                },
                {
                    "name": "G6",
                    "midi": 91,
                    "time": 259.60504440833165,
                    "velocity": 0.6141732283464567,
                    "duration": 0.10227270000001454
                },
                {
                    "name": "G#6",
                    "midi": 92,
                    "time": 259.77549890833166,
                    "velocity": 0.6377952755905512,
                    "duration": 0.10227270000001454
                },
                {
                    "name": "G#6",
                    "midi": 92,
                    "time": 259.94595340833166,
                    "velocity": 0.6220472440944882,
                    "duration": 0.10227270000001454
                },
                {
                    "name": "A#6",
                    "midi": 94,
                    "time": 260.11356699999834,
                    "velocity": 0.6141732283464567,
                    "duration": 0.10227270000001454
                },
                {
                    "name": "A#6",
                    "midi": 94,
                    "time": 260.289703316665,
                    "velocity": 0.6299212598425197,
                    "duration": 0.10227270000001454
                },
                {
                    "name": "A6",
                    "midi": 93,
                    "time": 266.9317469999983,
                    "velocity": 0.7244094488188977,
                    "duration": 0.10227270000001454
                },
                {
                    "name": "A6",
                    "midi": 93,
                    "time": 267.099360591665,
                    "velocity": 0.7480314960629921,
                    "duration": 0.10227270000001454
                },
                {
                    "name": "G#6",
                    "midi": 92,
                    "time": 267.269815091665,
                    "velocity": 0.7559055118110236,
                    "duration": 0.10227270000001454
                },
                {
                    "name": "G#6",
                    "midi": 92,
                    "time": 267.44879231666505,
                    "velocity": 0.7559055118110236,
                    "duration": 0.10227270000001454
                },
                {
                    "name": "G#6",
                    "midi": 92,
                    "time": 267.6164059083317,
                    "velocity": 0.7716535433070866,
                    "duration": 0.10227270000001454
                },
                {
                    "name": "G#6",
                    "midi": 92,
                    "time": 267.77833768333176,
                    "velocity": 0.7480314960629921,
                    "duration": 0.10227270000001454
                },
                {
                    "name": "F#6",
                    "midi": 90,
                    "time": 267.9544739999984,
                    "velocity": 0.7637795275590551,
                    "duration": 0.10227270000001454
                },
                {
                    "name": "F#6",
                    "midi": 90,
                    "time": 268.13061031666507,
                    "velocity": 0.7874015748031497,
                    "duration": 0.10227270000001454
                },
                {
                    "name": "F#6",
                    "midi": 90,
                    "time": 272.89481359166507,
                    "velocity": 0.8740157480314961,
                    "duration": 0.10227270000001454
                },
                {
                    "name": "G6",
                    "midi": 91,
                    "time": 273.06242718333175,
                    "velocity": 0.8503937007874016,
                    "duration": 0.10227270000001454
                },
                {
                    "name": "G#6",
                    "midi": 92,
                    "time": 273.23288168333175,
                    "velocity": 0.8818897637795275,
                    "duration": 0.10227270000001454
                },
                {
                    "name": "A6",
                    "midi": 93,
                    "time": 273.4061770916651,
                    "velocity": 0.8740157480314961,
                    "duration": 0.10227270000001454
                },
                {
                    "name": "A#6",
                    "midi": 94,
                    "time": 273.5794724999984,
                    "velocity": 0.8661417322834646,
                    "duration": 0.10227270000001454
                },
                {
                    "name": "B6",
                    "midi": 95,
                    "time": 273.7556088166651,
                    "velocity": 0.8661417322834646,
                    "duration": 0.10227270000001454
                },
                {
                    "name": "B6",
                    "midi": 95,
                    "time": 279.19878918333177,
                    "velocity": 0.8503937007874016,
                    "duration": 0.2727272000000198
                },
                {
                    "name": "A#6",
                    "midi": 94,
                    "time": 279.54537999999843,
                    "velocity": 0.8661417322834646,
                    "duration": 0.1363635999999815
                },
                {
                    "name": "B6",
                    "midi": 95,
                    "time": 279.71867540833176,
                    "velocity": 0.8503937007874016,
                    "duration": 0.1363635999999815
                },
                {
                    "name": "B6",
                    "midi": 95,
                    "time": 280.22435709166507,
                    "velocity": 0.8582677165354331,
                    "duration": 0.1363635999999815
                },
                {
                    "name": "A#6",
                    "midi": 94,
                    "time": 280.40333431666505,
                    "velocity": 0.8818897637795275,
                    "duration": 0.1363635999999815
                },
                {
                    "name": "B6",
                    "midi": 95,
                    "time": 280.5709479083317,
                    "velocity": 0.8818897637795275,
                    "duration": 0.1363635999999815
                },
                {
                    "name": "B6",
                    "midi": 95,
                    "time": 281.4203794999983,
                    "velocity": 0.8582677165354331,
                    "duration": 0.1363635999999815
                },
                {
                    "name": "A#6",
                    "midi": 94,
                    "time": 281.59367490833165,
                    "velocity": 0.8661417322834646,
                    "duration": 0.1363635999999815
                },
                {
                    "name": "B6",
                    "midi": 95,
                    "time": 281.766970316665,
                    "velocity": 0.8740157480314961,
                    "duration": 0.1363635999999815
                },
                {
                    "name": "B6",
                    "midi": 95,
                    "time": 282.27833381666494,
                    "velocity": 0.8503937007874016,
                    "duration": 0.1363635999999815
                },
                {
                    "name": "A#6",
                    "midi": 94,
                    "time": 282.44878831666495,
                    "velocity": 0.8740157480314961,
                    "duration": 0.1363635999999815
                },
                {
                    "name": "B6",
                    "midi": 95,
                    "time": 282.61640190833157,
                    "velocity": 0.8661417322834646,
                    "duration": 0.1363635999999815
                },
                {
                    "name": "A#6",
                    "midi": 94,
                    "time": 282.77833368333154,
                    "velocity": 0.8740157480314961,
                    "duration": 0.1363635999999815
                },
                {
                    "name": "G#6",
                    "midi": 92,
                    "time": 282.9573109083315,
                    "velocity": 0.8740157480314961,
                    "duration": 0.2727272000000198
                },
                {
                    "name": "G#6",
                    "midi": 92,
                    "time": 288.40333218333154,
                    "velocity": 0.8582677165354331,
                    "duration": 0.2727272000000198
                },
                {
                    "name": "B6",
                    "midi": 95,
                    "time": 289.4317409999982,
                    "velocity": 0.8740157480314961,
                    "duration": 0.2727272000000198
                },
                {
                    "name": "A#6",
                    "midi": 94,
                    "time": 290.4601498166649,
                    "velocity": 0.8582677165354331,
                    "duration": 0.2727272000000198
                },
                {
                    "name": "A#6",
                    "midi": 94,
                    "time": 290.8010588166649,
                    "velocity": 0.8503937007874016,
                    "duration": 0.2727272000000198
                },
                {
                    "name": "A#6",
                    "midi": 94,
                    "time": 291.14196781666493,
                    "velocity": 0.8582677165354331,
                    "duration": 0.2727272000000198
                },
                {
                    "name": "A#6",
                    "midi": 94,
                    "time": 291.4800359083316,
                    "velocity": 0.8740157480314961,
                    "duration": 0.2727272000000198
                },
                {
                    "name": "A#6",
                    "midi": 94,
                    "time": 291.8209449083316,
                    "velocity": 0.8503937007874016,
                    "duration": 0.2727272000000198
                },
                {
                    "name": "A#6",
                    "midi": 94,
                    "time": 292.15333118333166,
                    "velocity": 0.8582677165354331,
                    "duration": 0.2727272000000198
                },
                {
                    "name": "A#6",
                    "midi": 94,
                    "time": 292.49424018333167,
                    "velocity": 0.8740157480314961,
                    "duration": 0.2727272000000198
                },
                {
                    "name": "A#6",
                    "midi": 94,
                    "time": 292.84651281666504,
                    "velocity": 0.8582677165354331,
                    "duration": 0.2727272000000198
                },
                {
                    "name": "G#6",
                    "midi": 92,
                    "time": 294.8891259083317,
                    "velocity": 0.8818897637795275,
                    "duration": 1.6363632000000052
                }
            ],
            "controlChanges": {
                "7": [
                    {
                        "number": 7,
                        "time": 0,
                        "value": 0.984251968503937
                    }
                ],
                "10": [
                    {
                        "number": 10,
                        "time": 0,
                        "value": 0.6929133858267716
                    },
                    {
                        "number": 10,
                        "time": 294.8862849999984,
                        "value": 0.5039370078740157
                    }
                ],
                "91": [
                    {
                        "number": 91,
                        "time": 0,
                        "value": 0
                    },
                    {
                        "number": 91,
                        "time": 0,
                        "value": 0.031496062992125984
                    },
                    {
                        "number": 91,
                        "time": 0,
                        "value": 0.031496062992125984
                    },
                    {
                        "number": 91,
                        "time": 294.8862849999984,
                        "value": 0
                    }
                ],
                "93": [
                    {
                        "number": 93,
                        "time": 0,
                        "value": 0.14173228346456693
                    }
                ],
                "121": [
                    {
                        "number": 121,
                        "time": 0,
                        "value": 0
                    }
                ]
            },
            "id": 2,
            "instrumentNumber": 0,
            "instrument": "acoustic grand piano",
            "instrumentFamily": "piano",
            "channelNumber": 11,
            "isPercussion": false
        },
        {
            "startTime": 1.3579541833333333,
            "duration": 296.522648199999,
            "length": 643,
            "notes": [
                {
                    "name": "D#6",
                    "midi": 87,
                    "time": 1.3579541833333333,
                    "velocity": 0.6141732283464567,
                    "duration": 0.25568174999999993
                },
                {
                    "name": "D#6",
                    "midi": 87,
                    "time": 1.704545,
                    "velocity": 0.6141732283464567,
                    "duration": 0.25568174999999993
                },
                {
                    "name": "D#6",
                    "midi": 87,
                    "time": 2.039772183333333,
                    "velocity": 0.6456692913385826,
                    "duration": 0.25568174999999993
                },
                {
                    "name": "D#6",
                    "midi": 87,
                    "time": 3.4090899999999995,
                    "velocity": 0.6456692913385826,
                    "duration": 0.25568174999999993
                },
                {
                    "name": "D#6",
                    "midi": 87,
                    "time": 3.7499989999999994,
                    "velocity": 0.6377952755905512,
                    "duration": 0.2556817500000004
                },
                {
                    "name": "D#6",
                    "midi": 87,
                    "time": 4.090908,
                    "velocity": 0.6299212598425197,
                    "duration": 0.25568174999999993
                },
                {
                    "name": "D#6",
                    "midi": 87,
                    "time": 4.778407816666666,
                    "velocity": 0.6377952755905512,
                    "duration": 0.25568174999999993
                },
                {
                    "name": "D#6",
                    "midi": 87,
                    "time": 5.119316816666666,
                    "velocity": 0.6456692913385826,
                    "duration": 0.25568174999999993
                },
                {
                    "name": "D#6",
                    "midi": 87,
                    "time": 5.7897711833333325,
                    "velocity": 0.6456692913385826,
                    "duration": 0.25568174999999993
                },
                {
                    "name": "D#6",
                    "midi": 87,
                    "time": 6.142043816666666,
                    "velocity": 0.6377952755905512,
                    "duration": 0.25568174999999993
                },
                {
                    "name": "D#6",
                    "midi": 87,
                    "time": 7.667611591666666,
                    "velocity": 0.6141732283464567,
                    "duration": 0.1278408750000004
                },
                {
                    "name": "D#6",
                    "midi": 87,
                    "time": 7.838066091666667,
                    "velocity": 0.6220472440944882,
                    "duration": 0.2556817500000008
                },
                {
                    "name": "D#6",
                    "midi": 87,
                    "time": 8.176134183333334,
                    "velocity": 0.6377952755905512,
                    "duration": 0.2556817500000008
                },
                {
                    "name": "C#6",
                    "midi": 85,
                    "time": 8.528406816666667,
                    "velocity": 0.6299212598425197,
                    "duration": 0.2556817500000008
                },
                {
                    "name": "D#6",
                    "midi": 87,
                    "time": 11.755678683333334,
                    "velocity": 0.6377952755905512,
                    "duration": 0.1278408750000004
                },
                {
                    "name": "D#6",
                    "midi": 87,
                    "time": 12.102269500000002,
                    "velocity": 0.6220472440944882,
                    "duration": 0.1278408750000004
                },
                {
                    "name": "D#6",
                    "midi": 87,
                    "time": 12.446019408333335,
                    "velocity": 0.6141732283464567,
                    "duration": 0.1278408750000004
                },
                {
                    "name": "D#6",
                    "midi": 87,
                    "time": 12.781246591666669,
                    "velocity": 0.6141732283464567,
                    "duration": 0.1278408750000004
                },
                {
                    "name": "D#6",
                    "midi": 87,
                    "time": 13.127837408333336,
                    "velocity": 0.6456692913385826,
                    "duration": 0.1278408750000004
                },
                {
                    "name": "D#6",
                    "midi": 87,
                    "time": 13.46306459166667,
                    "velocity": 0.6456692913385826,
                    "duration": 0.1278408750000004
                },
                {
                    "name": "D#6",
                    "midi": 87,
                    "time": 13.812496316666671,
                    "velocity": 0.6456692913385826,
                    "duration": 0.1278408750000004
                },
                {
                    "name": "D#6",
                    "midi": 87,
                    "time": 14.147723500000005,
                    "velocity": 0.6220472440944882,
                    "duration": 0.1278408750000004
                },
                {
                    "name": "D#6",
                    "midi": 87,
                    "time": 14.485791591666672,
                    "velocity": 0.6299212598425197,
                    "duration": 0.1278408750000004
                },
                {
                    "name": "D#6",
                    "midi": 87,
                    "time": 14.835223316666672,
                    "velocity": 0.6299212598425197,
                    "duration": 0.1278408750000004
                },
                {
                    "name": "D#6",
                    "midi": 87,
                    "time": 15.176132316666672,
                    "velocity": 0.6377952755905512,
                    "duration": 0.1278408750000004
                },
                {
                    "name": "D#6",
                    "midi": 87,
                    "time": 15.85510940833334,
                    "velocity": 0.6456692913385826,
                    "duration": 0.1278408750000004
                },
                {
                    "name": "D#6",
                    "midi": 87,
                    "time": 16.022723000000006,
                    "velocity": 0.6141732283464567,
                    "duration": 0.2556817500000008
                },
                {
                    "name": "D#6",
                    "midi": 87,
                    "time": 16.36647290833334,
                    "velocity": 0.6299212598425197,
                    "duration": 0.2556817500000008
                },
                {
                    "name": "C#6",
                    "midi": 85,
                    "time": 16.70738190833334,
                    "velocity": 0.6220472440944882,
                    "duration": 0.2556817500000008
                },
                {
                    "name": "D#6",
                    "midi": 87,
                    "time": 19.940335591666674,
                    "velocity": 0.6299212598425197,
                    "duration": 0.1278408750000004
                },
                {
                    "name": "D#6",
                    "midi": 87,
                    "time": 20.284085500000007,
                    "velocity": 0.6299212598425197,
                    "duration": 0.1278408750000004
                },
                {
                    "name": "D#6",
                    "midi": 87,
                    "time": 20.62783540833334,
                    "velocity": 0.6141732283464567,
                    "duration": 0.1278408750000004
                },
                {
                    "name": "D#6",
                    "midi": 87,
                    "time": 20.96022168333334,
                    "velocity": 0.6377952755905512,
                    "duration": 0.1278408750000004
                },
                {
                    "name": "D#6",
                    "midi": 87,
                    "time": 21.312494316666676,
                    "velocity": 0.6456692913385826,
                    "duration": 0.1278408750000004
                },
                {
                    "name": "D#6",
                    "midi": 87,
                    "time": 21.821016908333345,
                    "velocity": 0.6220472440944882,
                    "duration": 0.2556817500000008
                },
                {
                    "name": "D#6",
                    "midi": 87,
                    "time": 22.323857683333344,
                    "velocity": 0.6141732283464567,
                    "duration": 0.1278408750000004
                },
                {
                    "name": "D#6",
                    "midi": 87,
                    "time": 22.846584816666677,
                    "velocity": 0.6456692913385826,
                    "duration": 0.2556817500000008
                },
                {
                    "name": "D#6",
                    "midi": 87,
                    "time": 24.03976631666668,
                    "velocity": 0.6456692913385826,
                    "duration": 0.10227270000000033
                },
                {
                    "name": "D#6",
                    "midi": 87,
                    "time": 24.37215259166668,
                    "velocity": 0.6456692913385826,
                    "duration": 0.10227270000000033
                },
                {
                    "name": "D#6",
                    "midi": 87,
                    "time": 24.718743408333346,
                    "velocity": 0.6141732283464567,
                    "duration": 0.10227270000000033
                },
                {
                    "name": "C#6",
                    "midi": 85,
                    "time": 25.056811500000013,
                    "velocity": 0.6141732283464567,
                    "duration": 0.10227270000000033
                },
                {
                    "name": "C#6",
                    "midi": 85,
                    "time": 25.20737964166668,
                    "velocity": 0.6220472440944882,
                    "duration": 0.022727266666667134
                },
                {
                    "name": "D#6",
                    "midi": 87,
                    "time": 28.13067431666668,
                    "velocity": 0.6299212598425197,
                    "duration": 0.10227270000000033
                },
                {
                    "name": "D#6",
                    "midi": 87,
                    "time": 28.465901500000015,
                    "velocity": 0.6377952755905512,
                    "duration": 0.10227270000000033
                },
                {
                    "name": "D#6",
                    "midi": 87,
                    "time": 28.81249231666668,
                    "velocity": 0.6299212598425197,
                    "duration": 0.10227270000000033
                },
                {
                    "name": "D#6",
                    "midi": 87,
                    "time": 29.15340131666668,
                    "velocity": 0.6141732283464567,
                    "duration": 0.10227270000000033
                },
                {
                    "name": "D#6",
                    "midi": 87,
                    "time": 29.48294668333335,
                    "velocity": 0.6299212598425197,
                    "duration": 0.10227270000000033
                },
                {
                    "name": "D#6",
                    "midi": 87,
                    "time": 29.829537500000015,
                    "velocity": 0.6220472440944882,
                    "duration": 0.10227270000000033
                },
                {
                    "name": "D#6",
                    "midi": 87,
                    "time": 30.17612831666668,
                    "velocity": 0.6220472440944882,
                    "duration": 0.10227270000000033
                },
                {
                    "name": "D#6",
                    "midi": 87,
                    "time": 30.514196408333348,
                    "velocity": 0.6456692913385826,
                    "duration": 0.10227270000000033
                },
                {
                    "name": "D#6",
                    "midi": 87,
                    "time": 30.84942359166668,
                    "velocity": 0.6299212598425197,
                    "duration": 0.10227270000000033
                },
                {
                    "name": "D#6",
                    "midi": 87,
                    "time": 31.196014408333347,
                    "velocity": 0.6220472440944882,
                    "duration": 0.10227270000000033
                },
                {
                    "name": "D#6",
                    "midi": 87,
                    "time": 31.534082500000014,
                    "velocity": 0.6377952755905512,
                    "duration": 0.10227270000000033
                },
                {
                    "name": "D#6",
                    "midi": 87,
                    "time": 32.21590050000002,
                    "velocity": 0.6220472440944882,
                    "duration": 0.10227270000000033
                },
                {
                    "name": "D#6",
                    "midi": 87,
                    "time": 32.38351409166668,
                    "velocity": 0.6456692913385826,
                    "duration": 0.2556817500000008
                },
                {
                    "name": "D#6",
                    "midi": 87,
                    "time": 32.732945816666685,
                    "velocity": 0.6299212598425197,
                    "duration": 0.2556817500000008
                },
                {
                    "name": "C#6",
                    "midi": 85,
                    "time": 33.06533209166668,
                    "velocity": 0.6220472440944882,
                    "duration": 0.2556817500000008
                },
                {
                    "name": "C#6",
                    "midi": 85,
                    "time": 33.372150191666684,
                    "velocity": 0.6299212598425197,
                    "duration": 0.03409090000000248
                },
                {
                    "name": "D#6",
                    "midi": 87,
                    "time": 36.31249031666668,
                    "velocity": 0.6141732283464567,
                    "duration": 0.10227270000000033
                },
                {
                    "name": "D#6",
                    "midi": 87,
                    "time": 37.67328540833335,
                    "velocity": 0.6141732283464567,
                    "duration": 0.10227270000000033
                },
                {
                    "name": "D#6",
                    "midi": 87,
                    "time": 38.18464890833335,
                    "velocity": 0.6220472440944882,
                    "duration": 0.2556817500000008
                },
                {
                    "name": "D#6",
                    "midi": 87,
                    "time": 38.69033059166669,
                    "velocity": 0.6299212598425197,
                    "duration": 0.10227270000000033
                },
                {
                    "name": "D#6",
                    "midi": 87,
                    "time": 39.207375908333354,
                    "velocity": 0.6299212598425197,
                    "duration": 0.2556817500000008
                },
                {
                    "name": "D#6",
                    "midi": 87,
                    "time": 40.735784591666686,
                    "velocity": 0.6141732283464567,
                    "duration": 0.10227270000000033
                },
                {
                    "name": "C#6",
                    "midi": 85,
                    "time": 54.21021281666668,
                    "velocity": 0.6377952755905512,
                    "duration": 0.1590908666666664
                },
                {
                    "name": "D#6",
                    "midi": 87,
                    "time": 55.39203068333335,
                    "velocity": 0.6220472440944882,
                    "duration": 0.1590908666666664
                },
                {
                    "name": "C#6",
                    "midi": 85,
                    "time": 56.42043950000002,
                    "velocity": 0.6299212598425197,
                    "duration": 0.1590908666666664
                },
                {
                    "name": "D#6",
                    "midi": 87,
                    "time": 67.49998200000002,
                    "velocity": 0.6141732283464567,
                    "duration": 0.1363635999999957
                },
                {
                    "name": "D#6",
                    "midi": 87,
                    "time": 67.83520918333335,
                    "velocity": 0.6220472440944882,
                    "duration": 0.1363635999999957
                },
                {
                    "name": "D#6",
                    "midi": 87,
                    "time": 68.17895909166667,
                    "velocity": 0.6141732283464567,
                    "duration": 0.1363635999999957
                },
                {
                    "name": "D#6",
                    "midi": 87,
                    "time": 68.51702718333333,
                    "velocity": 0.6299212598425197,
                    "duration": 0.1363635999999957
                },
                {
                    "name": "D#6",
                    "midi": 87,
                    "time": 68.86645890833333,
                    "velocity": 0.6141732283464567,
                    "duration": 0.1363635999999957
                },
                {
                    "name": "E6",
                    "midi": 88,
                    "time": 69.20736790833332,
                    "velocity": 0.6299212598425197,
                    "duration": 0.1363635999999957
                },
                {
                    "name": "D#6",
                    "midi": 87,
                    "time": 69.37498149999999,
                    "velocity": 0.6141732283464567,
                    "duration": 0.1363635999999957
                },
                {
                    "name": "C#6",
                    "midi": 85,
                    "time": 69.54827690833332,
                    "velocity": 0.6299212598425197,
                    "duration": 0.1363635999999957
                },
                {
                    "name": "D6",
                    "midi": 86,
                    "time": 71.08236740833331,
                    "velocity": 0.5669291338582677,
                    "duration": 0.1363635999999957
                },
                {
                    "name": "D#6",
                    "midi": 87,
                    "time": 71.41759459166664,
                    "velocity": 0.6456692913385826,
                    "duration": 0.1363635999999957
                },
                {
                    "name": "D#6",
                    "midi": 87,
                    "time": 71.76702631666664,
                    "velocity": 0.6377952755905512,
                    "duration": 0.1363635999999957
                },
                {
                    "name": "D6",
                    "midi": 86,
                    "time": 72.09657168333331,
                    "velocity": 0.6456692913385826,
                    "duration": 0.1363635999999957
                },
                {
                    "name": "C#6",
                    "midi": 85,
                    "time": 72.44032159166663,
                    "velocity": 0.6220472440944882,
                    "duration": 0.1363635999999957
                },
                {
                    "name": "C#6",
                    "midi": 85,
                    "time": 72.78123059166663,
                    "velocity": 0.6456692913385826,
                    "duration": 0.1363635999999957
                },
                {
                    "name": "E6",
                    "midi": 88,
                    "time": 73.29543499999996,
                    "velocity": 0.6299212598425197,
                    "duration": 0.1363635999999957
                },
                {
                    "name": "C#6",
                    "midi": 85,
                    "time": 73.63350309166661,
                    "velocity": 0.6141732283464567,
                    "duration": 0.1363635999999957
                },
                {
                    "name": "E6",
                    "midi": 88,
                    "time": 73.81248031666661,
                    "velocity": 0.6456692913385826,
                    "duration": 0.1363635999999957
                },
                {
                    "name": "F6",
                    "midi": 89,
                    "time": 74.1448665916666,
                    "velocity": 0.6299212598425197,
                    "duration": 0.1363635999999957
                },
                {
                    "name": "C#6",
                    "midi": 85,
                    "time": 74.32100290833326,
                    "velocity": 0.6456692913385826,
                    "duration": 0.1363635999999957
                },
                {
                    "name": "D#6",
                    "midi": 87,
                    "time": 74.48293468333326,
                    "velocity": 0.6220472440944882,
                    "duration": 0.1363635999999957
                },
                {
                    "name": "D6",
                    "midi": 86,
                    "time": 74.83520731666658,
                    "velocity": 0.5669291338582677,
                    "duration": 0.1363635999999957
                },
                {
                    "name": "D#6",
                    "midi": 87,
                    "time": 75.17043449999991,
                    "velocity": 0.5433070866141733,
                    "duration": 0.1363635999999957
                },
                {
                    "name": "D#6",
                    "midi": 87,
                    "time": 75.51134349999991,
                    "velocity": 0.6377952755905512,
                    "duration": 0.1363635999999957
                },
                {
                    "name": "D#6",
                    "midi": 87,
                    "time": 75.85793431666657,
                    "velocity": 0.5748031496062992,
                    "duration": 0.1363635999999957
                },
                {
                    "name": "E6",
                    "midi": 88,
                    "time": 76.19032059166656,
                    "velocity": 0.5748031496062992,
                    "duration": 0.1363635999999957
                },
                {
                    "name": "D#6",
                    "midi": 87,
                    "time": 76.53122959166656,
                    "velocity": 0.6771653543307087,
                    "duration": 0.1363635999999957
                },
                {
                    "name": "E6",
                    "midi": 88,
                    "time": 76.88066131666656,
                    "velocity": 0.5748031496062992,
                    "duration": 0.1363635999999957
                },
                {
                    "name": "F6",
                    "midi": 89,
                    "time": 77.21872940833322,
                    "velocity": 0.5826771653543307,
                    "duration": 0.1363635999999957
                },
                {
                    "name": "D#6",
                    "midi": 87,
                    "time": 77.55395659166655,
                    "velocity": 0.6614173228346457,
                    "duration": 0.1363635999999957
                },
                {
                    "name": "D#6",
                    "midi": 87,
                    "time": 78.23293368333321,
                    "velocity": 0.6692913385826772,
                    "duration": 0.1363635999999957
                },
                {
                    "name": "D#6",
                    "midi": 87,
                    "time": 78.92327440833321,
                    "velocity": 0.6850393700787402,
                    "duration": 0.1363635999999957
                },
                {
                    "name": "C6",
                    "midi": 84,
                    "time": 80.62497849999987,
                    "velocity": 0.7007874015748031,
                    "duration": 0.1363635999999957
                },
                {
                    "name": "C#6",
                    "midi": 85,
                    "time": 80.9602056833332,
                    "velocity": 0.7322834645669292,
                    "duration": 0.1363635999999957
                },
                {
                    "name": "D6",
                    "midi": 86,
                    "time": 81.3011146833332,
                    "velocity": 0.7086614173228346,
                    "duration": 0.1363635999999957
                },
                {
                    "name": "D#6",
                    "midi": 87,
                    "time": 81.6505464083332,
                    "velocity": 0.7401574803149606,
                    "duration": 0.1363635999999957
                },
                {
                    "name": "D#6",
                    "midi": 87,
                    "time": 81.98861449999985,
                    "velocity": 0.7244094488188977,
                    "duration": 0.1363635999999957
                },
                {
                    "name": "D#6",
                    "midi": 87,
                    "time": 82.32952349999985,
                    "velocity": 0.7322834645669292,
                    "duration": 0.1363635999999957
                },
                {
                    "name": "D#6",
                    "midi": 87,
                    "time": 82.66759159166651,
                    "velocity": 0.7322834645669292,
                    "duration": 0.1363635999999957
                },
                {
                    "name": "D#6",
                    "midi": 87,
                    "time": 83.01418240833317,
                    "velocity": 0.7165354330708661,
                    "duration": 0.1363635999999957
                },
                {
                    "name": "D#6",
                    "midi": 87,
                    "time": 83.35509140833317,
                    "velocity": 0.7086614173228346,
                    "duration": 0.1363635999999957
                },
                {
                    "name": "D#6",
                    "midi": 87,
                    "time": 83.6903185916665,
                    "velocity": 0.6850393700787402,
                    "duration": 0.1363635999999957
                },
                {
                    "name": "D#6",
                    "midi": 87,
                    "time": 84.0312275916665,
                    "velocity": 0.6692913385826772,
                    "duration": 0.1363635999999957
                },
                {
                    "name": "D#6",
                    "midi": 87,
                    "time": 84.36929568333315,
                    "velocity": 0.6299212598425197,
                    "duration": 0.1363635999999957
                },
                {
                    "name": "D#6",
                    "midi": 87,
                    "time": 84.71872740833315,
                    "velocity": 0.6141732283464567,
                    "duration": 0.1363635999999957
                },
                {
                    "name": "D#6",
                    "midi": 87,
                    "time": 85.05679549999981,
                    "velocity": 0.6141732283464567,
                    "duration": 0.1363635999999957
                },
                {
                    "name": "D#6",
                    "midi": 87,
                    "time": 85.39486359166646,
                    "velocity": 0.6456692913385826,
                    "duration": 0.1363635999999957
                },
                {
                    "name": "D#6",
                    "midi": 87,
                    "time": 85.74429531666647,
                    "velocity": 0.5118110236220472,
                    "duration": 0.1363635999999957
                },
                {
                    "name": "D#6",
                    "midi": 87,
                    "time": 86.08236340833312,
                    "velocity": 0.5196850393700787,
                    "duration": 0.1363635999999957
                },
                {
                    "name": "D#6",
                    "midi": 87,
                    "time": 86.42611331666645,
                    "velocity": 0.5196850393700787,
                    "duration": 0.1363635999999957
                },
                {
                    "name": "D#6",
                    "midi": 87,
                    "time": 86.76134049999978,
                    "velocity": 0.5039370078740157,
                    "duration": 0.1363635999999957
                },
                {
                    "name": "D#6",
                    "midi": 87,
                    "time": 87.10224949999977,
                    "velocity": 0.5118110236220472,
                    "duration": 0.1363635999999957
                },
                {
                    "name": "D#6",
                    "midi": 87,
                    "time": 87.44031759166643,
                    "velocity": 0.49606299212598426,
                    "duration": 0.1363635999999957
                },
                {
                    "name": "D#6",
                    "midi": 87,
                    "time": 87.78690840833309,
                    "velocity": 0.49606299212598426,
                    "duration": 0.1363635999999957
                },
                {
                    "name": "D#6",
                    "midi": 87,
                    "time": 88.12497649999975,
                    "velocity": 0.5275590551181102,
                    "duration": 0.1363635999999957
                },
                {
                    "name": "D#6",
                    "midi": 87,
                    "time": 88.46020368333308,
                    "velocity": 0.5118110236220472,
                    "duration": 0.1363635999999957
                },
                {
                    "name": "D#6",
                    "midi": 87,
                    "time": 88.8124763166664,
                    "velocity": 0.5196850393700787,
                    "duration": 0.1363635999999957
                },
                {
                    "name": "D#6",
                    "midi": 87,
                    "time": 89.14770349999974,
                    "velocity": 0.5196850393700787,
                    "duration": 0.1363635999999957
                },
                {
                    "name": "D#6",
                    "midi": 87,
                    "time": 89.48861249999973,
                    "velocity": 0.5275590551181102,
                    "duration": 0.1363635999999957
                },
                {
                    "name": "D#6",
                    "midi": 87,
                    "time": 89.8352033166664,
                    "velocity": 0.5196850393700787,
                    "duration": 0.1363635999999957
                },
                {
                    "name": "D#6",
                    "midi": 87,
                    "time": 90.16474868333306,
                    "velocity": 0.5196850393700787,
                    "duration": 0.1363635999999957
                },
                {
                    "name": "D#6",
                    "midi": 87,
                    "time": 90.50565768333306,
                    "velocity": 0.5275590551181102,
                    "duration": 0.1363635999999957
                },
                {
                    "name": "D#6",
                    "midi": 87,
                    "time": 90.85508940833306,
                    "velocity": 0.5196850393700787,
                    "duration": 0.1363635999999957
                },
                {
                    "name": "D#6",
                    "midi": 87,
                    "time": 91.19315749999971,
                    "velocity": 0.5039370078740157,
                    "duration": 0.1363635999999957
                },
                {
                    "name": "D#6",
                    "midi": 87,
                    "time": 91.53974831666638,
                    "velocity": 0.5196850393700787,
                    "duration": 0.1363635999999957
                },
                {
                    "name": "D#6",
                    "midi": 87,
                    "time": 91.8749754999997,
                    "velocity": 0.5039370078740157,
                    "duration": 0.1363635999999957
                },
                {
                    "name": "D#6",
                    "midi": 87,
                    "time": 92.21872540833303,
                    "velocity": 0.5039370078740157,
                    "duration": 0.1363635999999957
                },
                {
                    "name": "D#6",
                    "midi": 87,
                    "time": 92.55111168333302,
                    "velocity": 0.5196850393700787,
                    "duration": 0.1363635999999957
                },
                {
                    "name": "D#6",
                    "midi": 87,
                    "time": 92.89486159166634,
                    "velocity": 0.5039370078740157,
                    "duration": 0.1363635999999957
                },
                {
                    "name": "D#6",
                    "midi": 87,
                    "time": 93.23577059166634,
                    "velocity": 0.5039370078740157,
                    "duration": 0.1363635999999957
                },
                {
                    "name": "D#6",
                    "midi": 87,
                    "time": 93.58520231666634,
                    "velocity": 0.5196850393700787,
                    "duration": 0.1363635999999957
                },
                {
                    "name": "D#6",
                    "midi": 87,
                    "time": 93.92042949999967,
                    "velocity": 0.5196850393700787,
                    "duration": 0.1363635999999957
                },
                {
                    "name": "D#6",
                    "midi": 87,
                    "time": 94.26702031666633,
                    "velocity": 0.5118110236220472,
                    "duration": 0.1363635999999957
                },
                {
                    "name": "D#6",
                    "midi": 87,
                    "time": 94.60508840833299,
                    "velocity": 0.5039370078740157,
                    "duration": 0.1363635999999957
                },
                {
                    "name": "D#6",
                    "midi": 87,
                    "time": 94.94883831666631,
                    "velocity": 0.5118110236220472,
                    "duration": 0.1363635999999957
                },
                {
                    "name": "D#6",
                    "midi": 87,
                    "time": 95.28974731666631,
                    "velocity": 0.5118110236220472,
                    "duration": 0.1363635999999957
                },
                {
                    "name": "D#6",
                    "midi": 87,
                    "time": 95.6221335916663,
                    "velocity": 0.5196850393700787,
                    "duration": 0.1363635999999957
                },
                {
                    "name": "D#6",
                    "midi": 87,
                    "time": 95.96588349999962,
                    "velocity": 0.5275590551181102,
                    "duration": 0.1363635999999957
                },
                {
                    "name": "D#6",
                    "midi": 87,
                    "time": 96.30395159166628,
                    "velocity": 0.5275590551181102,
                    "duration": 0.1363635999999957
                },
                {
                    "name": "D#6",
                    "midi": 87,
                    "time": 96.6477014999996,
                    "velocity": 0.49606299212598426,
                    "duration": 0.1363635999999957
                },
                {
                    "name": "D#6",
                    "midi": 87,
                    "time": 96.98292868333293,
                    "velocity": 0.5275590551181102,
                    "duration": 0.1363635999999957
                },
                {
                    "name": "D#6",
                    "midi": 87,
                    "time": 97.33520131666626,
                    "velocity": 0.5039370078740157,
                    "duration": 0.1363635999999957
                },
                {
                    "name": "D#6",
                    "midi": 87,
                    "time": 97.66758759166625,
                    "velocity": 0.49606299212598426,
                    "duration": 0.1363635999999957
                },
                {
                    "name": "D#6",
                    "midi": 87,
                    "time": 98.01133749999957,
                    "velocity": 0.5275590551181102,
                    "duration": 0.1363635999999957
                },
                {
                    "name": "D#6",
                    "midi": 87,
                    "time": 98.35508740833289,
                    "velocity": 0.5039370078740157,
                    "duration": 0.1363635999999957
                },
                {
                    "name": "D#6",
                    "midi": 87,
                    "time": 98.68747368333288,
                    "velocity": 0.5118110236220472,
                    "duration": 0.1363635999999957
                },
                {
                    "name": "D#6",
                    "midi": 87,
                    "time": 99.03690540833288,
                    "velocity": 0.5118110236220472,
                    "duration": 0.1363635999999957
                },
                {
                    "name": "D#6",
                    "midi": 87,
                    "time": 99.53974618333288,
                    "velocity": 0.5196850393700787,
                    "duration": 0.1363635999999957
                },
                {
                    "name": "D#6",
                    "midi": 87,
                    "time": 100.05395059166621,
                    "velocity": 0.5118110236220472,
                    "duration": 0.1363635999999957
                },
                {
                    "name": "D#6",
                    "midi": 87,
                    "time": 100.5738368166662,
                    "velocity": 0.5118110236220472,
                    "duration": 0.1363635999999957
                },
                {
                    "name": "D#6",
                    "midi": 87,
                    "time": 101.70167742499953,
                    "velocity": 0.6220472440944882,
                    "duration": 0.09090906666666854
                },
                {
                    "name": "D#6",
                    "midi": 87,
                    "time": 101.8181546666662,
                    "velocity": 0.6141732283464567,
                    "duration": 0.09090906666666854
                },
                {
                    "name": "D#6",
                    "midi": 87,
                    "time": 101.9374728166662,
                    "velocity": 0.6456692913385826,
                    "duration": 0.09090906666666854
                },
                {
                    "name": "D#6",
                    "midi": 87,
                    "time": 102.04542733333287,
                    "velocity": 0.6220472440944882,
                    "duration": 0.09090906666666854
                },
                {
                    "name": "D#6",
                    "midi": 87,
                    "time": 102.27269999999953,
                    "velocity": 0.6141732283464567,
                    "duration": 0.09090906666666854
                },
                {
                    "name": "D#6",
                    "midi": 87,
                    "time": 102.3806545166662,
                    "velocity": 0.6299212598425197,
                    "duration": 0.09090906666666854
                },
                {
                    "name": "C#6",
                    "midi": 85,
                    "time": 102.6107680916662,
                    "velocity": 0.6299212598425197,
                    "duration": 0.09090906666666854
                },
                {
                    "name": "C#6",
                    "midi": 85,
                    "time": 102.7300862416662,
                    "velocity": 0.6141732283464567,
                    "duration": 0.09090906666666854
                },
                {
                    "name": "D#6",
                    "midi": 87,
                    "time": 105.5681536666662,
                    "velocity": 0.6456692913385826,
                    "duration": 0.09090906666666854
                },
                {
                    "name": "D#6",
                    "midi": 87,
                    "time": 105.91474448333287,
                    "velocity": 0.6141732283464567,
                    "duration": 0.09090906666666854
                },
                {
                    "name": "E6",
                    "midi": 88,
                    "time": 106.24713075833287,
                    "velocity": 0.6456692913385826,
                    "duration": 0.09090906666666854
                },
                {
                    "name": "D#6",
                    "midi": 87,
                    "time": 106.59372157499953,
                    "velocity": 0.6220472440944882,
                    "duration": 0.09090906666666854
                },
                {
                    "name": "C#6",
                    "midi": 85,
                    "time": 106.92610784999954,
                    "velocity": 0.6377952755905512,
                    "duration": 0.09090906666666854
                },
                {
                    "name": "D#6",
                    "midi": 87,
                    "time": 110.11928881666621,
                    "velocity": 0.6141732283464567,
                    "duration": 0.09090906666666854
                },
                {
                    "name": "D#6",
                    "midi": 87,
                    "time": 110.22440242499955,
                    "velocity": 0.6141732283464567,
                    "duration": 0.09090906666666854
                },
                {
                    "name": "D#6",
                    "midi": 87,
                    "time": 110.45735690833288,
                    "velocity": 0.6377952755905512,
                    "duration": 0.09090906666666854
                },
                {
                    "name": "D#6",
                    "midi": 87,
                    "time": 110.56815233333289,
                    "velocity": 0.6299212598425197,
                    "duration": 0.09090906666666854
                },
                {
                    "name": "C#6",
                    "midi": 85,
                    "time": 110.79258409166623,
                    "velocity": 0.6299212598425197,
                    "duration": 0.09090906666666854
                },
                {
                    "name": "C#6",
                    "midi": 85,
                    "time": 110.91190224166623,
                    "velocity": 0.6456692913385826,
                    "duration": 0.09090906666666854
                },
                {
                    "name": "D#6",
                    "midi": 87,
                    "time": 113.7556514833329,
                    "velocity": 0.6299212598425197,
                    "duration": 0.09090906666666854
                },
                {
                    "name": "D#6",
                    "midi": 87,
                    "time": 114.08519684999956,
                    "velocity": 0.6377952755905512,
                    "duration": 0.09090906666666854
                },
                {
                    "name": "E6",
                    "midi": 88,
                    "time": 114.43462857499956,
                    "velocity": 0.6220472440944882,
                    "duration": 0.09090906666666854
                },
                {
                    "name": "D#6",
                    "midi": 87,
                    "time": 114.77269666666623,
                    "velocity": 0.6377952755905512,
                    "duration": 0.09090906666666854
                },
                {
                    "name": "C#6",
                    "midi": 85,
                    "time": 115.1192874833329,
                    "velocity": 0.6456692913385826,
                    "duration": 0.09090906666666854
                },
                {
                    "name": "D#6",
                    "midi": 87,
                    "time": 115.4516737583329,
                    "velocity": 0.6377952755905512,
                    "duration": 0.09090906666666854
                },
                {
                    "name": "D#6",
                    "midi": 87,
                    "time": 115.79542366666624,
                    "velocity": 0.6377952755905512,
                    "duration": 0.09090906666666854
                },
                {
                    "name": "D#6",
                    "midi": 87,
                    "time": 116.13633266666623,
                    "velocity": 0.6141732283464567,
                    "duration": 0.09090906666666854
                },
                {
                    "name": "D#6",
                    "midi": 87,
                    "time": 116.47724166666623,
                    "velocity": 0.6456692913385826,
                    "duration": 0.09090906666666854
                },
                {
                    "name": "D#6",
                    "midi": 87,
                    "time": 116.82099157499957,
                    "velocity": 0.6377952755905512,
                    "duration": 0.09090906666666854
                },
                {
                    "name": "D#6",
                    "midi": 87,
                    "time": 117.15337784999957,
                    "velocity": 0.6456692913385826,
                    "duration": 0.09090906666666854
                },
                {
                    "name": "D#6",
                    "midi": 87,
                    "time": 117.49996866666623,
                    "velocity": 0.6220472440944882,
                    "duration": 0.09090906666666854
                },
                {
                    "name": "D#6",
                    "midi": 87,
                    "time": 117.84371857499957,
                    "velocity": 0.6141732283464567,
                    "duration": 0.09090906666666854
                },
                {
                    "name": "D#6",
                    "midi": 87,
                    "time": 118.17610484999958,
                    "velocity": 0.6299212598425197,
                    "duration": 0.09090906666666854
                },
                {
                    "name": "C6",
                    "midi": 84,
                    "time": 118.29542299999957,
                    "velocity": 0.6141732283464567,
                    "duration": 0.09090906666666854
                },
                {
                    "name": "C6",
                    "midi": 84,
                    "time": 118.41190024166625,
                    "velocity": 0.6141732283464567,
                    "duration": 0.09090906666666854
                },
                {
                    "name": "D#6",
                    "midi": 87,
                    "time": 118.51985475833291,
                    "velocity": 0.6377952755905512,
                    "duration": 0.09090906666666854
                },
                {
                    "name": "C#6",
                    "midi": 85,
                    "time": 118.64201381666625,
                    "velocity": 0.6377952755905512,
                    "duration": 0.09090906666666854
                },
                {
                    "name": "C#6",
                    "midi": 85,
                    "time": 118.74712742499959,
                    "velocity": 0.6377952755905512,
                    "duration": 0.09090906666666854
                },
                {
                    "name": "D#6",
                    "midi": 87,
                    "time": 118.86360466666626,
                    "velocity": 0.6220472440944882,
                    "duration": 0.09090906666666854
                },
                {
                    "name": "D6",
                    "midi": 86,
                    "time": 118.98292281666626,
                    "velocity": 0.6141732283464567,
                    "duration": 0.09090906666666854
                },
                {
                    "name": "D6",
                    "midi": 86,
                    "time": 119.08519551666626,
                    "velocity": 0.6141732283464567,
                    "duration": 0.09090906666666854
                },
                {
                    "name": "D#6",
                    "midi": 87,
                    "time": 119.20167275833293,
                    "velocity": 0.6141732283464567,
                    "duration": 0.09090906666666854
                },
                {
                    "name": "D#6",
                    "midi": 87,
                    "time": 119.3181499999996,
                    "velocity": 0.6299212598425197,
                    "duration": 0.09090906666666854
                },
                {
                    "name": "D#6",
                    "midi": 87,
                    "time": 119.4374681499996,
                    "velocity": 0.6377952755905512,
                    "duration": 0.09090906666666854
                },
                {
                    "name": "E6",
                    "midi": 88,
                    "time": 119.66474081666627,
                    "velocity": 0.6220472440944882,
                    "duration": 0.09090906666666854
                },
                {
                    "name": "E6",
                    "midi": 88,
                    "time": 119.76985442499961,
                    "velocity": 0.6299212598425197,
                    "duration": 0.09090906666666854
                },
                {
                    "name": "F6",
                    "midi": 89,
                    "time": 120.00280890833294,
                    "velocity": 0.6220472440944882,
                    "duration": 0.09090906666666854
                },
                {
                    "name": "F6",
                    "midi": 89,
                    "time": 120.11928614999961,
                    "velocity": 0.6377952755905512,
                    "duration": 0.09090906666666854
                },
                {
                    "name": "C#6",
                    "midi": 85,
                    "time": 125.19314843333295,
                    "velocity": 0.6220472440944882,
                    "duration": 0.06818180000000496
                },
                {
                    "name": "C#6",
                    "midi": 85,
                    "time": 125.27837568333295,
                    "velocity": 0.6456692913385826,
                    "duration": 0.06818180000000496
                },
                {
                    "name": "C#6",
                    "midi": 85,
                    "time": 125.36928474999962,
                    "velocity": 0.6377952755905512,
                    "duration": 0.06818180000000496
                },
                {
                    "name": "C#6",
                    "midi": 85,
                    "time": 125.78973918333296,
                    "velocity": 0.6377952755905512,
                    "duration": 0.2556817499999937
                },
                {
                    "name": "D#6",
                    "midi": 87,
                    "time": 126.13348909166628,
                    "velocity": 0.6299212598425197,
                    "duration": 0.2556817499999937
                },
                {
                    "name": "D#6",
                    "midi": 87,
                    "time": 128.94598834166626,
                    "velocity": 0.6141732283464567,
                    "duration": 0.06818179999999074
                },
                {
                    "name": "D#6",
                    "midi": 87,
                    "time": 129.03973831666625,
                    "velocity": 0.6220472440944882,
                    "duration": 0.06818179999999074
                },
                {
                    "name": "D#6",
                    "midi": 87,
                    "time": 129.1221246583329,
                    "velocity": 0.6456692913385826,
                    "duration": 0.06818179999999074
                },
                {
                    "name": "F6",
                    "midi": 89,
                    "time": 129.28973824999954,
                    "velocity": 0.6141732283464567,
                    "duration": 0.06818179999999074
                },
                {
                    "name": "F6",
                    "midi": 89,
                    "time": 129.3806473166662,
                    "velocity": 0.6456692913385826,
                    "duration": 0.06818179999999074
                },
                {
                    "name": "F6",
                    "midi": 89,
                    "time": 129.4573518416662,
                    "velocity": 0.6141732283464567,
                    "duration": 0.06818179999999074
                },
                {
                    "name": "F6",
                    "midi": 89,
                    "time": 129.88064718333285,
                    "velocity": 0.6141732283464567,
                    "duration": 0.2556817500000079
                },
                {
                    "name": "D#6",
                    "midi": 87,
                    "time": 130.56814699999953,
                    "velocity": 0.6456692913385826,
                    "duration": 0.1363636000000099
                },
                {
                    "name": "C#6",
                    "midi": 85,
                    "time": 132.70451006666622,
                    "velocity": 0.6377952755905512,
                    "duration": 0.06818179999999074
                },
                {
                    "name": "C#6",
                    "midi": 85,
                    "time": 132.78973731666622,
                    "velocity": 0.6299212598425197,
                    "duration": 0.06818179999999074
                },
                {
                    "name": "C#6",
                    "midi": 85,
                    "time": 132.86644184166622,
                    "velocity": 0.6141732283464567,
                    "duration": 0.06818179999999074
                },
                {
                    "name": "C#6",
                    "midi": 85,
                    "time": 133.63916890833286,
                    "velocity": 0.6456692913385826,
                    "duration": 0.2556817500000079
                },
                {
                    "name": "C#6",
                    "midi": 85,
                    "time": 135.0056458166662,
                    "velocity": 0.5669291338582677,
                    "duration": 0.2727271999999914
                },
                {
                    "name": "F6",
                    "midi": 89,
                    "time": 135.8493955916662,
                    "velocity": 0.6141732283464567,
                    "duration": 0.1363636000000099
                },
                {
                    "name": "D#6",
                    "midi": 87,
                    "time": 136.02553190833288,
                    "velocity": 0.6141732283464567,
                    "duration": 0.2556817500000079
                },
                {
                    "name": "F6",
                    "midi": 89,
                    "time": 136.5368954083329,
                    "velocity": 0.6141732283464567,
                    "duration": 0.1363636000000099
                },
                {
                    "name": "D#6",
                    "midi": 87,
                    "time": 136.70450899999958,
                    "velocity": 0.6377952755905512,
                    "duration": 0.1363636000000099
                },
                {
                    "name": "D6",
                    "midi": 86,
                    "time": 136.86928168333293,
                    "velocity": 0.6377952755905512,
                    "duration": 0.1363636000000099
                },
                {
                    "name": "C#6",
                    "midi": 85,
                    "time": 137.04825890833294,
                    "velocity": 0.6141732283464567,
                    "duration": 0.2556817500000079
                },
                {
                    "name": "E6",
                    "midi": 88,
                    "time": 137.39200881666628,
                    "velocity": 0.6141732283464567,
                    "duration": 0.1363636000000099
                },
                {
                    "name": "D#6",
                    "midi": 87,
                    "time": 137.56246331666628,
                    "velocity": 0.6456692913385826,
                    "duration": 0.1363636000000099
                },
                {
                    "name": "D6",
                    "midi": 86,
                    "time": 137.72439509166628,
                    "velocity": 0.6141732283464567,
                    "duration": 0.1363636000000099
                },
                {
                    "name": "C#6",
                    "midi": 85,
                    "time": 137.8976904999996,
                    "velocity": 0.6456692913385826,
                    "duration": 0.1363636000000099
                },
                {
                    "name": "D#6",
                    "midi": 87,
                    "time": 138.1505313416663,
                    "velocity": 0.6456692913385826,
                    "duration": 0.06818179999999074
                },
                {
                    "name": "E6",
                    "midi": 88,
                    "time": 138.24144040833295,
                    "velocity": 0.6377952755905512,
                    "duration": 0.06818179999999074
                },
                {
                    "name": "F6",
                    "midi": 89,
                    "time": 138.32098584166627,
                    "velocity": 0.6220472440944882,
                    "duration": 0.06818179999999074
                },
                {
                    "name": "D#6",
                    "midi": 87,
                    "time": 140.7954169999996,
                    "velocity": 0.5511811023622047,
                    "duration": 0.2727271999999914
                },
                {
                    "name": "C#6",
                    "midi": 85,
                    "time": 141.13348509166624,
                    "velocity": 0.5433070866141733,
                    "duration": 0.2727271999999914
                },
                {
                    "name": "C6",
                    "midi": 84,
                    "time": 141.51984862499958,
                    "velocity": 0.5354330708661418,
                    "duration": 0.2727271999999914
                },
                {
                    "name": "C#6",
                    "midi": 85,
                    "time": 142.5028029083329,
                    "velocity": 0.5590551181102362,
                    "duration": 0.2727271999999914
                },
                {
                    "name": "C#6",
                    "midi": 85,
                    "time": 144.88348409166625,
                    "velocity": 0.5354330708661418,
                    "duration": 0.2727271999999914
                },
                {
                    "name": "D#6",
                    "midi": 87,
                    "time": 146.92893809166623,
                    "velocity": 0.5590551181102362,
                    "duration": 0.1363636000000099
                },
                {
                    "name": "D6",
                    "midi": 86,
                    "time": 147.35507434166624,
                    "velocity": 0.6456692913385826,
                    "duration": 0.06818179999999074
                },
                {
                    "name": "D#6",
                    "midi": 87,
                    "time": 147.4374606833329,
                    "velocity": 0.6141732283464567,
                    "duration": 0.06818179999999074
                },
                {
                    "name": "D6",
                    "midi": 86,
                    "time": 147.53121065833287,
                    "velocity": 0.6220472440944882,
                    "duration": 0.06818179999999074
                },
                {
                    "name": "D#6",
                    "midi": 87,
                    "time": 147.7045060666662,
                    "velocity": 0.6377952755905512,
                    "duration": 0.06818179999999074
                },
                {
                    "name": "E6",
                    "midi": 88,
                    "time": 147.7812105916662,
                    "velocity": 0.6377952755905512,
                    "duration": 0.06818179999999074
                },
                {
                    "name": "D#6",
                    "midi": 87,
                    "time": 147.86359693333284,
                    "velocity": 0.6141732283464567,
                    "duration": 0.06818179999999074
                },
                {
                    "name": "E6",
                    "midi": 88,
                    "time": 147.96018781666618,
                    "velocity": 0.6377952755905512,
                    "duration": 0.06818179999999074
                },
                {
                    "name": "D#6",
                    "midi": 87,
                    "time": 148.0397332499995,
                    "velocity": 0.6141732283464567,
                    "duration": 0.06818179999999074
                },
                {
                    "name": "E6",
                    "midi": 88,
                    "time": 148.1249604999995,
                    "velocity": 0.6141732283464567,
                    "duration": 0.06818179999999074
                },
                {
                    "name": "D#6",
                    "midi": 87,
                    "time": 148.21586956666616,
                    "velocity": 0.6141732283464567,
                    "duration": 0.06818179999999074
                },
                {
                    "name": "E6",
                    "midi": 88,
                    "time": 148.28973318333283,
                    "velocity": 0.6220472440944882,
                    "duration": 0.06818179999999074
                },
                {
                    "name": "D#6",
                    "midi": 87,
                    "time": 148.37780134166616,
                    "velocity": 0.6220472440944882,
                    "duration": 0.06818179999999074
                },
                {
                    "name": "E6",
                    "midi": 88,
                    "time": 148.46302859166616,
                    "velocity": 0.6456692913385826,
                    "duration": 0.06818179999999074
                },
                {
                    "name": "D#6",
                    "midi": 87,
                    "time": 148.5510967499995,
                    "velocity": 0.6456692913385826,
                    "duration": 0.06818179999999074
                },
                {
                    "name": "E6",
                    "midi": 88,
                    "time": 148.63916490833282,
                    "velocity": 0.6299212598425197,
                    "duration": 0.05113635000000727
                },
                {
                    "name": "D#6",
                    "midi": 87,
                    "time": 148.70166489166616,
                    "velocity": 0.6220472440944882,
                    "duration": 0.05113635000000727
                },
                {
                    "name": "D6",
                    "midi": 86,
                    "time": 148.76700578333282,
                    "velocity": 0.6299212598425197,
                    "duration": 0.05113635000000727
                },
                {
                    "name": "D#6",
                    "midi": 87,
                    "time": 148.82666485833283,
                    "velocity": 0.6141732283464567,
                    "duration": 0.05113635000000727
                },
                {
                    "name": "E6",
                    "midi": 88,
                    "time": 148.88348302499952,
                    "velocity": 0.6141732283464567,
                    "duration": 0.05113635000000727
                },
                {
                    "name": "F6",
                    "midi": 89,
                    "time": 148.95166482499954,
                    "velocity": 0.6456692913385826,
                    "duration": 0.05113635000000727
                },
                {
                    "name": "F6",
                    "midi": 89,
                    "time": 150.52836894999956,
                    "velocity": 0.6377952755905512,
                    "duration": 0.05397725833333311
                },
                {
                    "name": "E6",
                    "midi": 88,
                    "time": 150.58802802499957,
                    "velocity": 0.6141732283464567,
                    "duration": 0.05397725833333311
                },
                {
                    "name": "D#6",
                    "midi": 87,
                    "time": 150.6846189083329,
                    "velocity": 0.6299212598425197,
                    "duration": 0.2727271999999914
                },
                {
                    "name": "D6",
                    "midi": 86,
                    "time": 151.44882324999958,
                    "velocity": 0.6299212598425197,
                    "duration": 0.06818179999999074
                },
                {
                    "name": "D#6",
                    "midi": 87,
                    "time": 151.5283686833329,
                    "velocity": 0.6220472440944882,
                    "duration": 0.06818179999999074
                },
                {
                    "name": "D6",
                    "midi": 86,
                    "time": 151.61927774999955,
                    "velocity": 0.6220472440944882,
                    "duration": 0.06818179999999074
                },
                {
                    "name": "D#6",
                    "midi": 87,
                    "time": 151.78405043333288,
                    "velocity": 0.6220472440944882,
                    "duration": 0.06818179999999074
                },
                {
                    "name": "E6",
                    "midi": 88,
                    "time": 151.87495949999953,
                    "velocity": 0.6377952755905512,
                    "duration": 0.06818179999999074
                },
                {
                    "name": "D#6",
                    "midi": 87,
                    "time": 151.95734584166618,
                    "velocity": 0.6141732283464567,
                    "duration": 0.06818179999999074
                },
                {
                    "name": "E6",
                    "midi": 88,
                    "time": 152.0454139999995,
                    "velocity": 0.6456692913385826,
                    "duration": 0.06818179999999074
                },
                {
                    "name": "D#6",
                    "midi": 87,
                    "time": 152.12495943333283,
                    "velocity": 0.6220472440944882,
                    "duration": 0.06818179999999074
                },
                {
                    "name": "E6",
                    "midi": 88,
                    "time": 152.21302759166616,
                    "velocity": 0.6299212598425197,
                    "duration": 0.06818179999999074
                },
                {
                    "name": "D#6",
                    "midi": 87,
                    "time": 152.3010957499995,
                    "velocity": 0.6220472440944882,
                    "duration": 0.06818179999999074
                },
                {
                    "name": "E6",
                    "midi": 88,
                    "time": 152.38348209166614,
                    "velocity": 0.6141732283464567,
                    "duration": 0.06818179999999074
                },
                {
                    "name": "D#6",
                    "midi": 87,
                    "time": 152.47155024999947,
                    "velocity": 0.6377952755905512,
                    "duration": 0.06818179999999074
                },
                {
                    "name": "E6",
                    "midi": 88,
                    "time": 152.5510956833328,
                    "velocity": 0.6299212598425197,
                    "duration": 0.06818179999999074
                },
                {
                    "name": "D#6",
                    "midi": 87,
                    "time": 152.64768656666612,
                    "velocity": 0.6377952755905512,
                    "duration": 0.06818179999999074
                },
                {
                    "name": "E6",
                    "midi": 88,
                    "time": 152.73007290833277,
                    "velocity": 0.6220472440944882,
                    "duration": 0.05113635000000727
                },
                {
                    "name": "D#6",
                    "midi": 87,
                    "time": 152.78689107499946,
                    "velocity": 0.6377952755905512,
                    "duration": 0.05113635000000727
                },
                {
                    "name": "D6",
                    "midi": 86,
                    "time": 152.85223196666612,
                    "velocity": 0.6141732283464567,
                    "duration": 0.05113635000000727
                },
                {
                    "name": "D#6",
                    "midi": 87,
                    "time": 152.9090501333328,
                    "velocity": 0.6377952755905512,
                    "duration": 0.05113635000000727
                },
                {
                    "name": "E6",
                    "midi": 88,
                    "time": 152.97723193333283,
                    "velocity": 0.6456692913385826,
                    "duration": 0.05113635000000727
                },
                {
                    "name": "F6",
                    "midi": 89,
                    "time": 153.03689100833284,
                    "velocity": 0.6141732283464567,
                    "duration": 0.05113635000000727
                },
                {
                    "name": "F6",
                    "midi": 89,
                    "time": 154.61359513333286,
                    "velocity": 0.6220472440944882,
                    "duration": 0.05397725833333311
                },
                {
                    "name": "E6",
                    "midi": 88,
                    "time": 154.6760951166662,
                    "velocity": 0.6377952755905512,
                    "duration": 0.05397725833333311
                },
                {
                    "name": "D#6",
                    "midi": 87,
                    "time": 154.77552690833286,
                    "velocity": 0.6141732283464567,
                    "duration": 0.05113635000000727
                },
                {
                    "name": "E6",
                    "midi": 88,
                    "time": 154.83234507499955,
                    "velocity": 0.6141732283464567,
                    "duration": 0.05113635000000727
                },
                {
                    "name": "D#6",
                    "midi": 87,
                    "time": 154.89200414999956,
                    "velocity": 0.6377952755905512,
                    "duration": 0.05113635000000727
                },
                {
                    "name": "D6",
                    "midi": 86,
                    "time": 154.9545041333329,
                    "velocity": 0.6377952755905512,
                    "duration": 0.05113635000000727
                },
                {
                    "name": "D#6",
                    "midi": 87,
                    "time": 155.01700411666624,
                    "velocity": 0.6456692913385826,
                    "duration": 0.05113635000000727
                },
                {
                    "name": "E6",
                    "midi": 88,
                    "time": 155.07950409999958,
                    "velocity": 0.6377952755905512,
                    "duration": 0.05113635000000727
                },
                {
                    "name": "F6",
                    "midi": 89,
                    "time": 155.14200408333292,
                    "velocity": 0.6456692913385826,
                    "duration": 0.05113635000000727
                },
                {
                    "name": "F6",
                    "midi": 89,
                    "time": 156.7158672999996,
                    "velocity": 0.6220472440944882,
                    "duration": 0.05397725833333311
                },
                {
                    "name": "E6",
                    "midi": 88,
                    "time": 156.78973091666626,
                    "velocity": 0.6377952755905512,
                    "duration": 0.028409083333343688
                },
                {
                    "name": "D#6",
                    "midi": 87,
                    "time": 156.82098090833293,
                    "velocity": 0.6220472440944882,
                    "duration": 0.05113635000000727
                },
                {
                    "name": "E6",
                    "midi": 88,
                    "time": 156.87779907499961,
                    "velocity": 0.6220472440944882,
                    "duration": 0.05113635000000727
                },
                {
                    "name": "D#6",
                    "midi": 87,
                    "time": 156.94882178333296,
                    "velocity": 0.6456692913385826,
                    "duration": 0.05113635000000727
                },
                {
                    "name": "D6",
                    "midi": 86,
                    "time": 157.0113217666663,
                    "velocity": 0.6377952755905512,
                    "duration": 0.05113635000000727
                },
                {
                    "name": "D#6",
                    "midi": 87,
                    "time": 157.06529902499963,
                    "velocity": 0.6299212598425197,
                    "duration": 0.05113635000000727
                },
                {
                    "name": "E6",
                    "midi": 88,
                    "time": 157.13632173333298,
                    "velocity": 0.6299212598425197,
                    "duration": 0.05113635000000727
                },
                {
                    "name": "F6",
                    "midi": 89,
                    "time": 157.195980808333,
                    "velocity": 0.6141732283464567,
                    "duration": 0.05113635000000727
                },
                {
                    "name": "F6",
                    "midi": 89,
                    "time": 159.232912083333,
                    "velocity": 0.6220472440944882,
                    "duration": 0.05113635000000727
                },
                {
                    "name": "E6",
                    "midi": 88,
                    "time": 159.30393479166634,
                    "velocity": 0.6141732283464567,
                    "duration": 0.05113635000000727
                },
                {
                    "name": "F6",
                    "midi": 89,
                    "time": 159.369275683333,
                    "velocity": 0.6377952755905512,
                    "duration": 0.05113635000000727
                },
                {
                    "name": "E6",
                    "midi": 88,
                    "time": 159.43177566666634,
                    "velocity": 0.6141732283464567,
                    "duration": 0.05113635000000727
                },
                {
                    "name": "D#6",
                    "midi": 87,
                    "time": 159.48859383333303,
                    "velocity": 0.6299212598425197,
                    "duration": 0.05113635000000727
                },
                {
                    "name": "D6",
                    "midi": 86,
                    "time": 159.55677563333305,
                    "velocity": 0.6456692913385826,
                    "duration": 0.05113635000000727
                },
                {
                    "name": "D#6",
                    "midi": 87,
                    "time": 159.61927561666639,
                    "velocity": 0.6377952755905512,
                    "duration": 0.05113635000000727
                },
                {
                    "name": "D6",
                    "midi": 86,
                    "time": 159.68177559999972,
                    "velocity": 0.6377952755905512,
                    "duration": 0.05113635000000727
                },
                {
                    "name": "C#6",
                    "midi": 85,
                    "time": 159.73575285833306,
                    "velocity": 0.6299212598425197,
                    "duration": 0.05113635000000727
                },
                {
                    "name": "C6",
                    "midi": 84,
                    "time": 159.79541193333307,
                    "velocity": 0.6141732283464567,
                    "duration": 0.05113635000000727
                },
                {
                    "name": "C#6",
                    "midi": 85,
                    "time": 159.86075282499974,
                    "velocity": 0.6141732283464567,
                    "duration": 0.05113635000000727
                },
                {
                    "name": "C6",
                    "midi": 84,
                    "time": 159.92893462499975,
                    "velocity": 0.6377952755905512,
                    "duration": 0.05113635000000727
                },
                {
                    "name": "C6",
                    "midi": 84,
                    "time": 164.76984242499975,
                    "velocity": 0.6377952755905512,
                    "duration": 0.05113635000000727
                },
                {
                    "name": "C#6",
                    "midi": 85,
                    "time": 164.88631966666642,
                    "velocity": 0.6377952755905512,
                    "duration": 0.05113635000000727
                },
                {
                    "name": "C6",
                    "midi": 84,
                    "time": 164.95734237499977,
                    "velocity": 0.6377952755905512,
                    "duration": 0.045454533333355585
                },
                {
                    "name": "D6",
                    "midi": 86,
                    "time": 164.99711509166644,
                    "velocity": 0.6141732283464567,
                    "duration": 0.05113635000000727
                },
                {
                    "name": "C#6",
                    "midi": 85,
                    "time": 165.0681377999998,
                    "velocity": 0.6299212598425197,
                    "duration": 0.05113635000000727
                },
                {
                    "name": "D#6",
                    "midi": 87,
                    "time": 165.13063778333313,
                    "velocity": 0.6299212598425197,
                    "duration": 0.05113635000000727
                },
                {
                    "name": "D6",
                    "midi": 86,
                    "time": 165.18745594999982,
                    "velocity": 0.6456692913385826,
                    "duration": 0.05113635000000727
                },
                {
                    "name": "E6",
                    "midi": 88,
                    "time": 165.2442741166665,
                    "velocity": 0.6377952755905512,
                    "duration": 0.05113635000000727
                },
                {
                    "name": "D#6",
                    "midi": 87,
                    "time": 165.31813773333317,
                    "velocity": 0.6456692913385826,
                    "duration": 0.05113635000000727
                },
                {
                    "name": "F6",
                    "midi": 89,
                    "time": 165.3806377166665,
                    "velocity": 0.6220472440944882,
                    "duration": 0.05113635000000727
                },
                {
                    "name": "E6",
                    "midi": 88,
                    "time": 165.44029679166653,
                    "velocity": 0.6299212598425197,
                    "duration": 0.05113635000000727
                },
                {
                    "name": "F6",
                    "midi": 89,
                    "time": 165.55961494166652,
                    "velocity": 0.6299212598425197,
                    "duration": 0.05113635000000727
                },
                {
                    "name": "D#6",
                    "midi": 87,
                    "time": 172.16472681666653,
                    "velocity": 0.5669291338582677,
                    "duration": 0.2727271999999914
                },
                {
                    "name": "D#6",
                    "midi": 87,
                    "time": 172.49711309166653,
                    "velocity": 0.6299212598425197,
                    "duration": 0.1363636000000099
                },
                {
                    "name": "D#6",
                    "midi": 87,
                    "time": 172.50279490833321,
                    "velocity": 0.5433070866141733,
                    "duration": 0.2727271999999914
                },
                {
                    "name": "C#6",
                    "midi": 85,
                    "time": 172.83802209166655,
                    "velocity": 0.5354330708661418,
                    "duration": 0.2727272000000198
                },
                {
                    "name": "D#6",
                    "midi": 87,
                    "time": 172.84654481666655,
                    "velocity": 0.6377952755905512,
                    "duration": 0.1363636000000099
                },
                {
                    "name": "D#6",
                    "midi": 87,
                    "time": 173.17893109166656,
                    "velocity": 0.6456692913385826,
                    "duration": 0.1363636000000099
                },
                {
                    "name": "D#6",
                    "midi": 87,
                    "time": 173.52552190833325,
                    "velocity": 0.6141732283464567,
                    "duration": 0.1363636000000099
                },
                {
                    "name": "D#6",
                    "midi": 87,
                    "time": 173.86074909166658,
                    "velocity": 0.6299212598425197,
                    "duration": 0.1363636000000099
                },
                {
                    "name": "D#6",
                    "midi": 87,
                    "time": 174.20733990833327,
                    "velocity": 0.6377952755905512,
                    "duration": 0.1363636000000099
                },
                {
                    "name": "D#6",
                    "midi": 87,
                    "time": 174.53972618333327,
                    "velocity": 0.6456692913385826,
                    "duration": 0.1363636000000099
                },
                {
                    "name": "D#6",
                    "midi": 87,
                    "time": 174.88063518333328,
                    "velocity": 0.6299212598425197,
                    "duration": 0.1363636000000099
                },
                {
                    "name": "D#6",
                    "midi": 87,
                    "time": 175.23290781666662,
                    "velocity": 0.6220472440944882,
                    "duration": 0.1363636000000099
                },
                {
                    "name": "D#6",
                    "midi": 87,
                    "time": 175.56529409166663,
                    "velocity": 0.6377952755905512,
                    "duration": 0.1363636000000099
                },
                {
                    "name": "D#6",
                    "midi": 87,
                    "time": 175.90336218333331,
                    "velocity": 0.6299212598425197,
                    "duration": 0.1363636000000099
                },
                {
                    "name": "D#6",
                    "midi": 87,
                    "time": 176.25279390833333,
                    "velocity": 0.6299212598425197,
                    "duration": 0.1363636000000099
                },
                {
                    "name": "D#6",
                    "midi": 87,
                    "time": 176.59086200000002,
                    "velocity": 0.6299212598425197,
                    "duration": 0.1363636000000099
                },
                {
                    "name": "D#6",
                    "midi": 87,
                    "time": 176.93177100000003,
                    "velocity": 0.6299212598425197,
                    "duration": 0.1363636000000099
                },
                {
                    "name": "D#6",
                    "midi": 87,
                    "time": 177.2698390916667,
                    "velocity": 0.6299212598425197,
                    "duration": 0.1363636000000099
                },
                {
                    "name": "D#6",
                    "midi": 87,
                    "time": 177.6164299083334,
                    "velocity": 0.6141732283464567,
                    "duration": 0.1363636000000099
                },
                {
                    "name": "D#6",
                    "midi": 87,
                    "time": 177.96017981666674,
                    "velocity": 0.6456692913385826,
                    "duration": 0.1363636000000099
                },
                {
                    "name": "D#6",
                    "midi": 87,
                    "time": 178.29540700000007,
                    "velocity": 0.6456692913385826,
                    "duration": 0.1363636000000099
                },
                {
                    "name": "D#6",
                    "midi": 87,
                    "time": 178.63631600000008,
                    "velocity": 0.6141732283464567,
                    "duration": 0.1363636000000099
                },
                {
                    "name": "D#6",
                    "midi": 87,
                    "time": 178.98006590833342,
                    "velocity": 0.6299212598425197,
                    "duration": 0.1363636000000099
                },
                {
                    "name": "D#6",
                    "midi": 87,
                    "time": 179.32381581666675,
                    "velocity": 0.6141732283464567,
                    "duration": 0.1363636000000099
                },
                {
                    "name": "D#6",
                    "midi": 87,
                    "time": 179.66188390833344,
                    "velocity": 0.6377952755905512,
                    "duration": 0.1363636000000099
                },
                {
                    "name": "D#6",
                    "midi": 87,
                    "time": 179.99427018333344,
                    "velocity": 0.6456692913385826,
                    "duration": 0.1363636000000099
                },
                {
                    "name": "D#6",
                    "midi": 87,
                    "time": 180.33517918333345,
                    "velocity": 0.6377952755905512,
                    "duration": 0.1363636000000099
                },
                {
                    "name": "D#6",
                    "midi": 87,
                    "time": 180.6789290916668,
                    "velocity": 0.6456692913385826,
                    "duration": 0.1363636000000099
                },
                {
                    "name": "D#6",
                    "midi": 87,
                    "time": 181.02551990833348,
                    "velocity": 0.6299212598425197,
                    "duration": 0.1363636000000099
                },
                {
                    "name": "D#6",
                    "midi": 87,
                    "time": 181.62495156666682,
                    "velocity": 0.6456692913385826,
                    "duration": 0.06818179999999074
                },
                {
                    "name": "D#6",
                    "midi": 87,
                    "time": 181.70449700000015,
                    "velocity": 0.6299212598425197,
                    "duration": 0.06818179999999074
                },
                {
                    "name": "E6",
                    "midi": 88,
                    "time": 181.78972425000015,
                    "velocity": 0.6141732283464567,
                    "duration": 0.06818179999999074
                },
                {
                    "name": "D#6",
                    "midi": 87,
                    "time": 181.8806333166668,
                    "velocity": 0.6377952755905512,
                    "duration": 0.06818179999999074
                },
                {
                    "name": "D#6",
                    "midi": 87,
                    "time": 182.04824690833345,
                    "velocity": 0.6377952755905512,
                    "duration": 0.09090906666665433
                },
                {
                    "name": "E6",
                    "midi": 88,
                    "time": 182.15336051666677,
                    "velocity": 0.6456692913385826,
                    "duration": 0.09090906666665433
                },
                {
                    "name": "D#6",
                    "midi": 87,
                    "time": 182.2755195750001,
                    "velocity": 0.6141732283464567,
                    "duration": 0.09090906666665433
                },
                {
                    "name": "D#6",
                    "midi": 87,
                    "time": 182.64483765833342,
                    "velocity": 0.6141732283464567,
                    "duration": 0.06818179999999074
                },
                {
                    "name": "D#6",
                    "midi": 87,
                    "time": 182.73006490833342,
                    "velocity": 0.6377952755905512,
                    "duration": 0.06818179999999074
                },
                {
                    "name": "E6",
                    "midi": 88,
                    "time": 182.81529215833342,
                    "velocity": 0.6141732283464567,
                    "duration": 0.06818179999999074
                },
                {
                    "name": "D#6",
                    "midi": 87,
                    "time": 182.89483759166674,
                    "velocity": 0.6299212598425197,
                    "duration": 0.06818179999999074
                },
                {
                    "name": "D#6",
                    "midi": 87,
                    "time": 183.06529209166672,
                    "velocity": 0.6299212598425197,
                    "duration": 0.09090906666665433
                },
                {
                    "name": "E6",
                    "midi": 88,
                    "time": 183.1760875166667,
                    "velocity": 0.6456692913385826,
                    "duration": 0.09090906666665433
                },
                {
                    "name": "D#6",
                    "midi": 87,
                    "time": 183.30108748333336,
                    "velocity": 0.6141732283464567,
                    "duration": 0.09090906666665433
                },
                {
                    "name": "D#6",
                    "midi": 87,
                    "time": 183.66472375,
                    "velocity": 0.6299212598425197,
                    "duration": 0.06818179999999074
                },
                {
                    "name": "D#6",
                    "midi": 87,
                    "time": 183.75563281666666,
                    "velocity": 0.6377952755905512,
                    "duration": 0.06818179999999074
                },
                {
                    "name": "E6",
                    "midi": 88,
                    "time": 183.83517824999998,
                    "velocity": 0.6299212598425197,
                    "duration": 0.06818179999999074
                },
                {
                    "name": "D#6",
                    "midi": 87,
                    "time": 183.9204055,
                    "velocity": 0.6456692913385826,
                    "duration": 0.06818179999999074
                },
                {
                    "name": "D#6",
                    "midi": 87,
                    "time": 184.08801909166664,
                    "velocity": 0.6220472440944882,
                    "duration": 0.09090906666665433
                },
                {
                    "name": "E6",
                    "midi": 88,
                    "time": 184.19881451666663,
                    "velocity": 0.6299212598425197,
                    "duration": 0.09090906666665433
                },
                {
                    "name": "D#6",
                    "midi": 87,
                    "time": 184.31813266666663,
                    "velocity": 0.6299212598425197,
                    "duration": 0.09090906666665433
                },
                {
                    "name": "D#6",
                    "midi": 87,
                    "time": 184.68745074999995,
                    "velocity": 0.6299212598425197,
                    "duration": 0.06818179999999074
                },
                {
                    "name": "D#6",
                    "midi": 87,
                    "time": 184.77267799999996,
                    "velocity": 0.6141732283464567,
                    "duration": 0.06818179999999074
                },
                {
                    "name": "E6",
                    "midi": 88,
                    "time": 184.85790524999996,
                    "velocity": 0.6141732283464567,
                    "duration": 0.06818179999999074
                },
                {
                    "name": "D#6",
                    "midi": 87,
                    "time": 184.93745068333328,
                    "velocity": 0.6220472440944882,
                    "duration": 0.06818179999999074
                },
                {
                    "name": "D#6",
                    "midi": 87,
                    "time": 185.11642790833326,
                    "velocity": 0.6220472440944882,
                    "duration": 0.09090906666665433
                },
                {
                    "name": "E6",
                    "midi": 88,
                    "time": 185.22438242499993,
                    "velocity": 0.6377952755905512,
                    "duration": 0.09090906666665433
                },
                {
                    "name": "D#6",
                    "midi": 87,
                    "time": 185.33517784999992,
                    "velocity": 0.6299212598425197,
                    "duration": 0.09090906666665433
                },
                {
                    "name": "D#6",
                    "midi": 87,
                    "time": 185.71585956666658,
                    "velocity": 0.6220472440944882,
                    "duration": 0.06818179999999074
                },
                {
                    "name": "D#6",
                    "midi": 87,
                    "time": 186.13915490833324,
                    "velocity": 0.6456692913385826,
                    "duration": 0.2727271999999914
                },
                {
                    "name": "D#6",
                    "midi": 87,
                    "time": 186.73858656666656,
                    "velocity": 0.6141732283464567,
                    "duration": 0.0823863416666768
                },
                {
                    "name": "D#6",
                    "midi": 87,
                    "time": 187.15620009166656,
                    "velocity": 0.6456692913385826,
                    "duration": 0.2727271999999914
                },
                {
                    "name": "D#6",
                    "midi": 87,
                    "time": 188.27267706666655,
                    "velocity": 0.6377952755905512,
                    "duration": 0.06818179999999074
                },
                {
                    "name": "E6",
                    "midi": 88,
                    "time": 188.34654068333322,
                    "velocity": 0.6456692913385826,
                    "duration": 0.06818179999999074
                },
                {
                    "name": "D#6",
                    "midi": 87,
                    "time": 188.43744974999987,
                    "velocity": 0.6220472440944882,
                    "duration": 0.06818179999999074
                },
                {
                    "name": "D#6",
                    "midi": 87,
                    "time": 188.52835881666653,
                    "velocity": 0.6141732283464567,
                    "duration": 0.2556817500000079
                },
                {
                    "name": "D#6",
                    "midi": 87,
                    "time": 188.8579041833332,
                    "velocity": 0.6456692913385826,
                    "duration": 0.2556817500000079
                },
                {
                    "name": "C#6",
                    "midi": 85,
                    "time": 189.20733590833322,
                    "velocity": 0.6377952755905512,
                    "duration": 0.2556817500000079
                },
                {
                    "name": "D#6",
                    "midi": 87,
                    "time": 192.0169942499999,
                    "velocity": 0.6220472440944882,
                    "duration": 0.06818179999999074
                },
                {
                    "name": "E6",
                    "midi": 88,
                    "time": 192.1022214999999,
                    "velocity": 0.6377952755905512,
                    "duration": 0.06818179999999074
                },
                {
                    "name": "D#6",
                    "midi": 87,
                    "time": 192.19313056666655,
                    "velocity": 0.6377952755905512,
                    "duration": 0.06818179999999074
                },
                {
                    "name": "D#6",
                    "midi": 87,
                    "time": 192.35790324999988,
                    "velocity": 0.6456692913385826,
                    "duration": 0.06818179999999074
                },
                {
                    "name": "E6",
                    "midi": 88,
                    "time": 192.44313049999988,
                    "velocity": 0.6456692913385826,
                    "duration": 0.06818179999999074
                },
                {
                    "name": "D#6",
                    "midi": 87,
                    "time": 192.53403956666654,
                    "velocity": 0.6377952755905512,
                    "duration": 0.06818179999999074
                },
                {
                    "name": "E6",
                    "midi": 88,
                    "time": 192.69313043333318,
                    "velocity": 0.6141732283464567,
                    "duration": 0.06818179999999074
                },
                {
                    "name": "E6",
                    "midi": 88,
                    "time": 192.87210765833316,
                    "velocity": 0.6456692913385826,
                    "duration": 0.06818179999999074
                },
                {
                    "name": "D#6",
                    "midi": 87,
                    "time": 193.0368803416665,
                    "velocity": 0.6456692913385826,
                    "duration": 0.06818179999999074
                },
                {
                    "name": "E6",
                    "midi": 88,
                    "time": 193.12778940833314,
                    "velocity": 0.6141732283464567,
                    "duration": 0.06818179999999074
                },
                {
                    "name": "D#6",
                    "midi": 87,
                    "time": 193.21301665833315,
                    "velocity": 0.6220472440944882,
                    "duration": 0.06818179999999074
                },
                {
                    "name": "C#6",
                    "midi": 85,
                    "time": 193.38631206666648,
                    "velocity": 0.6299212598425197,
                    "duration": 0.06818179999999074
                },
                {
                    "name": "D#6",
                    "midi": 87,
                    "time": 193.46869840833313,
                    "velocity": 0.6456692913385826,
                    "duration": 0.06818179999999074
                },
                {
                    "name": "C#6",
                    "midi": 85,
                    "time": 193.54540293333312,
                    "velocity": 0.6141732283464567,
                    "duration": 0.06818179999999074
                },
                {
                    "name": "C#6",
                    "midi": 85,
                    "time": 193.80676649999978,
                    "velocity": 0.6299212598425197,
                    "duration": 0.06818179999999074
                },
                {
                    "name": "C#6",
                    "midi": 85,
                    "time": 194.14483459166644,
                    "velocity": 0.6377952755905512,
                    "duration": 0.06818179999999074
                },
                {
                    "name": "D#6",
                    "midi": 87,
                    "time": 196.44597034166642,
                    "velocity": 0.6220472440944882,
                    "duration": 0.06818179999999074
                },
                {
                    "name": "E6",
                    "midi": 88,
                    "time": 196.5397203166664,
                    "velocity": 0.6141732283464567,
                    "duration": 0.06818179999999074
                },
                {
                    "name": "D#6",
                    "midi": 87,
                    "time": 196.62210665833305,
                    "velocity": 0.6299212598425197,
                    "duration": 0.06818179999999074
                },
                {
                    "name": "D#6",
                    "midi": 87,
                    "time": 196.70733390833306,
                    "velocity": 0.6220472440944882,
                    "duration": 0.06818179999999074
                },
                {
                    "name": "D#6",
                    "midi": 87,
                    "time": 197.0510838166664,
                    "velocity": 0.6377952755905512,
                    "duration": 0.2556817500000079
                },
                {
                    "name": "C#6",
                    "midi": 85,
                    "time": 197.3834700916664,
                    "velocity": 0.6299212598425197,
                    "duration": 0.2556817500000079
                },
                {
                    "name": "C6",
                    "midi": 84,
                    "time": 197.7329018166664,
                    "velocity": 0.6299212598425197,
                    "duration": 0.2556817500000079
                },
                {
                    "name": "C6",
                    "midi": 84,
                    "time": 198.0624471833331,
                    "velocity": 0.6299212598425197,
                    "duration": 0.2556817500000079
                },
                {
                    "name": "E6",
                    "midi": 88,
                    "time": 199.85790124999977,
                    "velocity": 0.6141732283464567,
                    "duration": 0.06818179999999074
                },
                {
                    "name": "E6",
                    "midi": 88,
                    "time": 200.0311966583331,
                    "velocity": 0.6456692913385826,
                    "duration": 0.06818179999999074
                },
                {
                    "name": "C#6",
                    "midi": 85,
                    "time": 200.1931284333331,
                    "velocity": 0.6377952755905512,
                    "duration": 0.06818179999999074
                },
                {
                    "name": "D#6",
                    "midi": 87,
                    "time": 200.28403749999976,
                    "velocity": 0.6456692913385826,
                    "duration": 0.06818179999999074
                },
                {
                    "name": "C#6",
                    "midi": 85,
                    "time": 200.36926474999976,
                    "velocity": 0.6299212598425197,
                    "duration": 0.06818179999999074
                },
                {
                    "name": "D#6",
                    "midi": 87,
                    "time": 200.53971924999973,
                    "velocity": 0.6299212598425197,
                    "duration": 0.06818179999999074
                },
                {
                    "name": "E6",
                    "midi": 88,
                    "time": 200.62494649999974,
                    "velocity": 0.6220472440944882,
                    "duration": 0.06818179999999074
                },
                {
                    "name": "D#6",
                    "midi": 87,
                    "time": 200.70449193333306,
                    "velocity": 0.6456692913385826,
                    "duration": 0.06818179999999074
                },
                {
                    "name": "E6",
                    "midi": 88,
                    "time": 200.88062824999972,
                    "velocity": 0.6141732283464567,
                    "duration": 0.06818179999999074
                },
                {
                    "name": "E6",
                    "midi": 88,
                    "time": 201.04540093333304,
                    "velocity": 0.6377952755905512,
                    "duration": 0.06818179999999074
                },
                {
                    "name": "D#6",
                    "midi": 87,
                    "time": 201.21585543333302,
                    "velocity": 0.6299212598425197,
                    "duration": 0.06818179999999074
                },
                {
                    "name": "E6",
                    "midi": 88,
                    "time": 201.309605408333,
                    "velocity": 0.6456692913385826,
                    "duration": 0.06818179999999074
                },
                {
                    "name": "D#6",
                    "midi": 87,
                    "time": 201.38915084166632,
                    "velocity": 0.6141732283464567,
                    "duration": 0.06818179999999074
                },
                {
                    "name": "C#6",
                    "midi": 85,
                    "time": 201.5681280666663,
                    "velocity": 0.6299212598425197,
                    "duration": 0.06818179999999074
                },
                {
                    "name": "D#6",
                    "midi": 87,
                    "time": 201.64199168333298,
                    "velocity": 0.6220472440944882,
                    "duration": 0.06818179999999074
                },
                {
                    "name": "C#6",
                    "midi": 85,
                    "time": 201.72721893333298,
                    "velocity": 0.6220472440944882,
                    "duration": 0.06818179999999074
                },
                {
                    "name": "D#6",
                    "midi": 87,
                    "time": 201.9005143416663,
                    "velocity": 0.6456692913385826,
                    "duration": 0.06818179999999074
                },
                {
                    "name": "C6",
                    "midi": 84,
                    "time": 202.43744601666629,
                    "velocity": 0.6220472440944882,
                    "duration": 0.04545453333332716
                },
                {
                    "name": "C#6",
                    "midi": 85,
                    "time": 202.49994599999962,
                    "velocity": 0.6220472440944882,
                    "duration": 0.04545453333332716
                },
                {
                    "name": "D6",
                    "midi": 86,
                    "time": 202.5596050749996,
                    "velocity": 0.6456692913385826,
                    "duration": 0.04545453333332716
                },
                {
                    "name": "D#6",
                    "midi": 87,
                    "time": 202.61358233333294,
                    "velocity": 0.6220472440944882,
                    "duration": 0.04545453333332716
                },
                {
                    "name": "E6",
                    "midi": 88,
                    "time": 202.6704004999996,
                    "velocity": 0.6456692913385826,
                    "duration": 0.04545453333332716
                },
                {
                    "name": "F6",
                    "midi": 89,
                    "time": 202.73290048333294,
                    "velocity": 0.6377952755905512,
                    "duration": 0.04545453333332716
                },
                {
                    "name": "D6",
                    "midi": 86,
                    "time": 203.6334684249996,
                    "velocity": 0.6377952755905512,
                    "duration": 0.04545453333332716
                },
                {
                    "name": "D#6",
                    "midi": 87,
                    "time": 203.69028659166625,
                    "velocity": 0.6141732283464567,
                    "duration": 0.04545453333332716
                },
                {
                    "name": "E6",
                    "midi": 88,
                    "time": 203.81244564999957,
                    "velocity": 0.6299212598425197,
                    "duration": 0.04545453333332716
                },
                {
                    "name": "C#6",
                    "midi": 85,
                    "time": 203.8579001833329,
                    "velocity": 0.6299212598425197,
                    "duration": 0.04545453333332716
                },
                {
                    "name": "D#6",
                    "midi": 87,
                    "time": 205.11642257499958,
                    "velocity": 0.6220472440944882,
                    "duration": 0.04545453333332716
                },
                {
                    "name": "C#6",
                    "midi": 85,
                    "time": 207.9573309083329,
                    "velocity": 0.6141732283464567,
                    "duration": 0.10227269999998612
                },
                {
                    "name": "C#6",
                    "midi": 85,
                    "time": 208.6334670916662,
                    "velocity": 0.6141732283464567,
                    "duration": 0.10227269999998612
                },
                {
                    "name": "D#6",
                    "midi": 87,
                    "time": 208.97153518333286,
                    "velocity": 0.6141732283464567,
                    "duration": 0.10227269999998612
                },
                {
                    "name": "D#6",
                    "midi": 87,
                    "time": 209.66187590833286,
                    "velocity": 0.6377952755905512,
                    "duration": 0.10227269999998612
                },
                {
                    "name": "D#6",
                    "midi": 87,
                    "time": 210.17323940833285,
                    "velocity": 0.6377952755905512,
                    "duration": 0.10227269999998612
                },
                {
                    "name": "D#6",
                    "midi": 87,
                    "time": 210.33517118333285,
                    "velocity": 0.6456692913385826,
                    "duration": 0.10227269999998612
                },
                {
                    "name": "D#6",
                    "midi": 87,
                    "time": 210.50562568333282,
                    "velocity": 0.6141732283464567,
                    "duration": 0.10227269999998612
                },
                {
                    "name": "D#6",
                    "midi": 87,
                    "time": 210.67892109166615,
                    "velocity": 0.6299212598425197,
                    "duration": 0.10227269999998612
                },
                {
                    "name": "D#6",
                    "midi": 87,
                    "time": 210.8465346833328,
                    "velocity": 0.6220472440944882,
                    "duration": 0.10227269999998612
                },
                {
                    "name": "D#6",
                    "midi": 87,
                    "time": 211.02267099999946,
                    "velocity": 0.6141732283464567,
                    "duration": 0.10227269999998612
                },
                {
                    "name": "D#6",
                    "midi": 87,
                    "time": 211.69880718333278,
                    "velocity": 0.6220472440944882,
                    "duration": 0.10227269999998612
                },
                {
                    "name": "F6",
                    "midi": 89,
                    "time": 212.04255709166608,
                    "velocity": 0.6141732283464567,
                    "duration": 0.10227269999998612
                },
                {
                    "name": "F6",
                    "midi": 89,
                    "time": 212.72153418333275,
                    "velocity": 0.6377952755905512,
                    "duration": 0.10227269999998612
                },
                {
                    "name": "D#6",
                    "midi": 87,
                    "time": 213.58517031666608,
                    "velocity": 0.6220472440944882,
                    "duration": 0.10227269999998612
                },
                {
                    "name": "C#6",
                    "midi": 85,
                    "time": 215.44880618333272,
                    "velocity": 0.6456692913385826,
                    "duration": 0.10227269999998612
                },
                {
                    "name": "C#6",
                    "midi": 85,
                    "time": 216.47437409166605,
                    "velocity": 0.6456692913385826,
                    "duration": 0.10227269999998612
                },
                {
                    "name": "C#6",
                    "midi": 85,
                    "time": 217.16471481666605,
                    "velocity": 0.6456692913385826,
                    "duration": 0.10227269999998612
                },
                {
                    "name": "C#6",
                    "midi": 85,
                    "time": 217.3323284083327,
                    "velocity": 0.6299212598425197,
                    "duration": 0.10227269999998612
                },
                {
                    "name": "C#6",
                    "midi": 85,
                    "time": 217.50562381666603,
                    "velocity": 0.6141732283464567,
                    "duration": 0.10227269999998612
                },
                {
                    "name": "C#6",
                    "midi": 85,
                    "time": 217.66471468333268,
                    "velocity": 0.6141732283464567,
                    "duration": 0.10227269999998612
                },
                {
                    "name": "C#6",
                    "midi": 85,
                    "time": 217.838010091666,
                    "velocity": 0.6377952755905512,
                    "duration": 0.10227269999998612
                },
                {
                    "name": "C#6",
                    "midi": 85,
                    "time": 218.01130549999934,
                    "velocity": 0.6141732283464567,
                    "duration": 0.10227269999998612
                },
                {
                    "name": "D#6",
                    "midi": 87,
                    "time": 218.18175999999931,
                    "velocity": 0.6220472440944882,
                    "duration": 0.10227269999998612
                },
                {
                    "name": "D#6",
                    "midi": 87,
                    "time": 218.34937359166597,
                    "velocity": 0.6456692913385826,
                    "duration": 0.10227269999998612
                },
                {
                    "name": "C#6",
                    "midi": 85,
                    "time": 218.3522144999993,
                    "velocity": 0.6299212598425197,
                    "duration": 0.10227269999998612
                },
                {
                    "name": "D#6",
                    "midi": 87,
                    "time": 218.52266899999927,
                    "velocity": 0.6456692913385826,
                    "duration": 0.10227269999998612
                },
                {
                    "name": "D#6",
                    "midi": 87,
                    "time": 218.69880531666593,
                    "velocity": 0.6220472440944882,
                    "duration": 0.10227269999998612
                },
                {
                    "name": "D#6",
                    "midi": 87,
                    "time": 218.86357799999925,
                    "velocity": 0.6220472440944882,
                    "duration": 0.10227269999998612
                },
                {
                    "name": "C#6",
                    "midi": 85,
                    "time": 218.86641890833258,
                    "velocity": 0.6377952755905512,
                    "duration": 0.10227269999998612
                },
                {
                    "name": "D#6",
                    "midi": 87,
                    "time": 219.0311915916659,
                    "velocity": 0.6377952755905512,
                    "duration": 0.10227269999998612
                },
                {
                    "name": "C#6",
                    "midi": 85,
                    "time": 219.19880518333255,
                    "velocity": 0.6220472440944882,
                    "duration": 0.10227269999998612
                },
                {
                    "name": "C#6",
                    "midi": 85,
                    "time": 219.36925968333253,
                    "velocity": 0.6377952755905512,
                    "duration": 0.10227269999998612
                },
                {
                    "name": "C#6",
                    "midi": 85,
                    "time": 219.5453959999992,
                    "velocity": 0.6220472440944882,
                    "duration": 0.10227269999998612
                },
                {
                    "name": "C#6",
                    "midi": 85,
                    "time": 219.71300959166584,
                    "velocity": 0.6220472440944882,
                    "duration": 0.10227269999998612
                },
                {
                    "name": "C#6",
                    "midi": 85,
                    "time": 219.8891459083325,
                    "velocity": 0.6299212598425197,
                    "duration": 0.10227269999998612
                },
                {
                    "name": "C#6",
                    "midi": 85,
                    "time": 220.06244131666583,
                    "velocity": 0.6141732283464567,
                    "duration": 0.10227269999998612
                },
                {
                    "name": "F6",
                    "midi": 89,
                    "time": 220.22721399999915,
                    "velocity": 0.6377952755905512,
                    "duration": 0.10227270000001454
                },
                {
                    "name": "C#6",
                    "midi": 85,
                    "time": 220.23289581666583,
                    "velocity": 0.6220472440944882,
                    "duration": 0.10227270000001454
                },
                {
                    "name": "C#6",
                    "midi": 85,
                    "time": 220.39482759166586,
                    "velocity": 0.6456692913385826,
                    "duration": 0.10227269999998612
                },
                {
                    "name": "C#6",
                    "midi": 85,
                    "time": 220.5624411833325,
                    "velocity": 0.6377952755905512,
                    "duration": 0.10227269999998612
                },
                {
                    "name": "C#6",
                    "midi": 85,
                    "time": 220.74425931666582,
                    "velocity": 0.6220472440944882,
                    "duration": 0.10227269999998612
                },
                {
                    "name": "C#6",
                    "midi": 85,
                    "time": 220.90335018333246,
                    "velocity": 0.6377952755905512,
                    "duration": 0.10227269999998612
                },
                {
                    "name": "D#6",
                    "midi": 87,
                    "time": 220.9061910916658,
                    "velocity": 0.6220472440944882,
                    "duration": 0.10227269999998612
                },
                {
                    "name": "F6",
                    "midi": 89,
                    "time": 221.07664559166577,
                    "velocity": 0.6377952755905512,
                    "duration": 0.10227270000001454
                },
                {
                    "name": "C#6",
                    "midi": 85,
                    "time": 221.08232740833245,
                    "velocity": 0.6377952755905512,
                    "duration": 0.10227270000001454
                },
                {
                    "name": "C#6",
                    "midi": 85,
                    "time": 221.2471000916658,
                    "velocity": 0.6220472440944882,
                    "duration": 0.2727271999999914
                },
                {
                    "name": "E6",
                    "midi": 88,
                    "time": 223.98005390833245,
                    "velocity": 0.6220472440944882,
                    "duration": 0.10227269999998612
                },
                {
                    "name": "E6",
                    "midi": 88,
                    "time": 224.15050840833243,
                    "velocity": 0.6220472440944882,
                    "duration": 0.10227269999998612
                },
                {
                    "name": "D#6",
                    "midi": 87,
                    "time": 224.31528109166575,
                    "velocity": 0.6377952755905512,
                    "duration": 0.10227269999998612
                },
                {
                    "name": "D#6",
                    "midi": 87,
                    "time": 224.4828946833324,
                    "velocity": 0.6299212598425197,
                    "duration": 0.10227269999998612
                },
                {
                    "name": "C#6",
                    "midi": 85,
                    "time": 224.65334918333238,
                    "velocity": 0.6377952755905512,
                    "duration": 0.10227269999998612
                },
                {
                    "name": "C#6",
                    "midi": 85,
                    "time": 224.83232640833236,
                    "velocity": 0.6299212598425197,
                    "duration": 0.10227269999998612
                },
                {
                    "name": "D#6",
                    "midi": 87,
                    "time": 225.0056218166657,
                    "velocity": 0.6299212598425197,
                    "duration": 0.10227269999998612
                },
                {
                    "name": "D#6",
                    "midi": 87,
                    "time": 225.17323540833235,
                    "velocity": 0.6456692913385826,
                    "duration": 0.10227269999998612
                },
                {
                    "name": "E6",
                    "midi": 88,
                    "time": 225.34368990833232,
                    "velocity": 0.6220472440944882,
                    "duration": 0.2727271999999914
                },
                {
                    "name": "E6",
                    "midi": 88,
                    "time": 227.73289381666564,
                    "velocity": 0.6141732283464567,
                    "duration": 0.10227269999998612
                },
                {
                    "name": "E6",
                    "midi": 88,
                    "time": 227.9005074083323,
                    "velocity": 0.6299212598425197,
                    "duration": 0.10227269999998612
                },
                {
                    "name": "D#6",
                    "midi": 87,
                    "time": 228.07380281666562,
                    "velocity": 0.6141732283464567,
                    "duration": 0.10227269999998612
                },
                {
                    "name": "D#6",
                    "midi": 87,
                    "time": 228.24141640833227,
                    "velocity": 0.6220472440944882,
                    "duration": 0.10227269999998612
                },
                {
                    "name": "C#6",
                    "midi": 85,
                    "time": 228.4147118166656,
                    "velocity": 0.6456692913385826,
                    "duration": 0.10227269999998612
                },
                {
                    "name": "C#6",
                    "midi": 85,
                    "time": 228.58516631666558,
                    "velocity": 0.6456692913385826,
                    "duration": 0.10227269999998612
                },
                {
                    "name": "C#6",
                    "midi": 85,
                    "time": 229.08800709166556,
                    "velocity": 0.6535433070866141,
                    "duration": 0.10227269999998612
                },
                {
                    "name": "C#6",
                    "midi": 85,
                    "time": 229.26698431666554,
                    "velocity": 0.6377952755905512,
                    "duration": 0.10227269999998612
                },
                {
                    "name": "D#6",
                    "midi": 87,
                    "time": 229.43175699999887,
                    "velocity": 0.6299212598425197,
                    "duration": 0.2727271999999914
                },
                {
                    "name": "D#6",
                    "midi": 87,
                    "time": 231.47721099999885,
                    "velocity": 0.6850393700787402,
                    "duration": 0.2727271999999914
                },
                {
                    "name": "D#6",
                    "midi": 87,
                    "time": 231.81811999999883,
                    "velocity": 0.6771653543307087,
                    "duration": 0.10227269999998612
                },
                {
                    "name": "D#6",
                    "midi": 87,
                    "time": 231.98289268333215,
                    "velocity": 0.6850393700787402,
                    "duration": 0.10227269999998612
                },
                {
                    "name": "D#6",
                    "midi": 87,
                    "time": 232.1590289999988,
                    "velocity": 0.6614173228346457,
                    "duration": 0.10227269999998612
                },
                {
                    "name": "D#6",
                    "midi": 87,
                    "time": 232.33232440833214,
                    "velocity": 0.6771653543307087,
                    "duration": 0.10227269999998612
                },
                {
                    "name": "E6",
                    "midi": 88,
                    "time": 232.4999379999988,
                    "velocity": 0.6850393700787402,
                    "duration": 0.10227269999998612
                },
                {
                    "name": "D#6",
                    "midi": 87,
                    "time": 232.67323340833212,
                    "velocity": 0.6929133858267716,
                    "duration": 0.10227269999998612
                },
                {
                    "name": "C#6",
                    "midi": 85,
                    "time": 232.8436879083321,
                    "velocity": 0.6929133858267716,
                    "duration": 0.10227269999998612
                },
                {
                    "name": "D#6",
                    "midi": 87,
                    "time": 235.5709599083321,
                    "velocity": 0.6929133858267716,
                    "duration": 0.2727271999999914
                },
                {
                    "name": "D#6",
                    "midi": 87,
                    "time": 235.91186890833208,
                    "velocity": 0.7086614173228346,
                    "duration": 0.10227269999998612
                },
                {
                    "name": "D#6",
                    "midi": 87,
                    "time": 236.07380068333208,
                    "velocity": 0.7165354330708661,
                    "duration": 0.10227269999998612
                },
                {
                    "name": "D#6",
                    "midi": 87,
                    "time": 236.24993699999874,
                    "velocity": 0.7086614173228346,
                    "duration": 0.10227269999998612
                },
                {
                    "name": "D#6",
                    "midi": 87,
                    "time": 236.42323240833207,
                    "velocity": 0.7401574803149606,
                    "duration": 0.10227269999998612
                },
                {
                    "name": "E6",
                    "midi": 88,
                    "time": 236.59368690833205,
                    "velocity": 0.7322834645669292,
                    "duration": 0.10227269999998612
                },
                {
                    "name": "D#6",
                    "midi": 87,
                    "time": 236.75845959166537,
                    "velocity": 0.7086614173228346,
                    "duration": 0.10227269999998612
                },
                {
                    "name": "C#6",
                    "midi": 85,
                    "time": 236.93459590833203,
                    "velocity": 0.7322834645669292,
                    "duration": 0.10227269999998612
                },
                {
                    "name": "F6",
                    "midi": 89,
                    "time": 237.94880018333203,
                    "velocity": 0.7401574803149606,
                    "duration": 0.10227269999998612
                },
                {
                    "name": "E6",
                    "midi": 88,
                    "time": 238.12209559166536,
                    "velocity": 0.7401574803149606,
                    "duration": 0.10227269999998612
                },
                {
                    "name": "D6",
                    "midi": 86,
                    "time": 238.2953909999987,
                    "velocity": 0.7480314960629921,
                    "duration": 0.10227269999998612
                },
                {
                    "name": "D#6",
                    "midi": 87,
                    "time": 238.460163683332,
                    "velocity": 0.7244094488188977,
                    "duration": 0.10227269999998612
                },
                {
                    "name": "E6",
                    "midi": 88,
                    "time": 238.639140908332,
                    "velocity": 0.7480314960629921,
                    "duration": 0.10227269999998612
                },
                {
                    "name": "D#6",
                    "midi": 87,
                    "time": 238.80391359166532,
                    "velocity": 0.7559055118110236,
                    "duration": 0.10227269999998612
                },
                {
                    "name": "C#6",
                    "midi": 85,
                    "time": 238.97152718333197,
                    "velocity": 0.7401574803149606,
                    "duration": 0.10227269999998612
                },
                {
                    "name": "D6",
                    "midi": 86,
                    "time": 246.81243418333196,
                    "velocity": 0.8188976377952756,
                    "duration": 0.10227269999998612
                },
                {
                    "name": "D#6",
                    "midi": 87,
                    "time": 247.16186590833195,
                    "velocity": 0.8267716535433071,
                    "duration": 0.10227269999998612
                },
                {
                    "name": "D6",
                    "midi": 86,
                    "time": 248.18743381666528,
                    "velocity": 0.84251968503937,
                    "duration": 0.10227269999998612
                },
                {
                    "name": "D6",
                    "midi": 86,
                    "time": 248.34652468333192,
                    "velocity": 0.8582677165354331,
                    "duration": 0.10227269999998612
                },
                {
                    "name": "D#6",
                    "midi": 87,
                    "time": 248.5255019083319,
                    "velocity": 0.84251968503937,
                    "duration": 0.10227269999998612
                },
                {
                    "name": "D#6",
                    "midi": 87,
                    "time": 248.6874336833319,
                    "velocity": 0.8503937007874016,
                    "duration": 0.10227269999998612
                },
                {
                    "name": "D6",
                    "midi": 86,
                    "time": 248.8692518166652,
                    "velocity": 0.84251968503937,
                    "duration": 0.10227269999998612
                },
                {
                    "name": "D6",
                    "midi": 86,
                    "time": 249.03686540833186,
                    "velocity": 0.8661417322834646,
                    "duration": 0.10227269999998612
                },
                {
                    "name": "D#6",
                    "midi": 87,
                    "time": 249.19879718333186,
                    "velocity": 0.8661417322834646,
                    "duration": 0.10227269999998612
                },
                {
                    "name": "D#6",
                    "midi": 87,
                    "time": 249.36925168333184,
                    "velocity": 0.84251968503937,
                    "duration": 0.10227269999998612
                },
                {
                    "name": "D6",
                    "midi": 86,
                    "time": 249.54822890833182,
                    "velocity": 0.8661417322834646,
                    "duration": 0.10227269999998612
                },
                {
                    "name": "D6",
                    "midi": 86,
                    "time": 249.71016068333182,
                    "velocity": 0.8582677165354331,
                    "duration": 0.10227269999998612
                },
                {
                    "name": "D#6",
                    "midi": 87,
                    "time": 249.8806151833318,
                    "velocity": 0.8661417322834646,
                    "duration": 0.10227269999998612
                },
                {
                    "name": "C#6",
                    "midi": 85,
                    "time": 250.05959240833178,
                    "velocity": 0.8582677165354331,
                    "duration": 0.10227269999998612
                },
                {
                    "name": "D#6",
                    "midi": 87,
                    "time": 250.2328878166651,
                    "velocity": 0.84251968503937,
                    "duration": 0.10227269999998612
                },
                {
                    "name": "D#6",
                    "midi": 87,
                    "time": 250.57095590833177,
                    "velocity": 0.8110236220472441,
                    "duration": 0.10227269999998612
                },
                {
                    "name": "D#6",
                    "midi": 87,
                    "time": 250.90334218333174,
                    "velocity": 0.8267716535433071,
                    "duration": 0.10227269999998612
                },
                {
                    "name": "D#6",
                    "midi": 87,
                    "time": 251.25277390833173,
                    "velocity": 0.7952755905511811,
                    "duration": 0.10227269999998612
                },
                {
                    "name": "D#6",
                    "midi": 87,
                    "time": 251.58800109166506,
                    "velocity": 0.7795275590551181,
                    "duration": 0.10227269999998612
                },
                {
                    "name": "D#6",
                    "midi": 87,
                    "time": 251.93175099999837,
                    "velocity": 0.7480314960629921,
                    "duration": 0.10227269999998612
                },
                {
                    "name": "D#6",
                    "midi": 87,
                    "time": 252.26981909166503,
                    "velocity": 0.7244094488188977,
                    "duration": 0.10227269999998612
                },
                {
                    "name": "D#6",
                    "midi": 87,
                    "time": 252.60788718333168,
                    "velocity": 0.7244094488188977,
                    "duration": 0.10227269999998612
                },
                {
                    "name": "D#6",
                    "midi": 87,
                    "time": 252.95447799999835,
                    "velocity": 0.7007874015748031,
                    "duration": 0.10227269999998612
                },
                {
                    "name": "D#6",
                    "midi": 87,
                    "time": 253.29538699999833,
                    "velocity": 0.6614173228346457,
                    "duration": 0.10227269999998612
                },
                {
                    "name": "D#6",
                    "midi": 87,
                    "time": 253.63345509166498,
                    "velocity": 0.6614173228346457,
                    "duration": 0.10227269999998612
                },
                {
                    "name": "D#6",
                    "midi": 87,
                    "time": 253.97436409166497,
                    "velocity": 0.6377952755905512,
                    "duration": 0.10227269999998612
                },
                {
                    "name": "D#6",
                    "midi": 87,
                    "time": 254.14197768333162,
                    "velocity": 0.6377952755905512,
                    "duration": 0.10227269999998612
                },
                {
                    "name": "D#6",
                    "midi": 87,
                    "time": 254.3124321833316,
                    "velocity": 0.6299212598425197,
                    "duration": 0.10227269999998612
                },
                {
                    "name": "D#6",
                    "midi": 87,
                    "time": 254.48572759166493,
                    "velocity": 0.6141732283464567,
                    "duration": 0.10227269999998612
                },
                {
                    "name": "D#6",
                    "midi": 87,
                    "time": 254.65902299999826,
                    "velocity": 0.6299212598425197,
                    "duration": 0.10227269999998612
                },
                {
                    "name": "D#6",
                    "midi": 87,
                    "time": 254.82947749999823,
                    "velocity": 0.6141732283464567,
                    "duration": 0.10227269999998612
                },
                {
                    "name": "D#6",
                    "midi": 87,
                    "time": 255.00277290833156,
                    "velocity": 0.6220472440944882,
                    "duration": 0.10227269999998612
                },
                {
                    "name": "D#6",
                    "midi": 87,
                    "time": 255.17322740833154,
                    "velocity": 0.6456692913385826,
                    "duration": 0.10227269999998612
                },
                {
                    "name": "D#6",
                    "midi": 87,
                    "time": 255.34368190833152,
                    "velocity": 0.6377952755905512,
                    "duration": 0.10227269999998612
                },
                {
                    "name": "D#6",
                    "midi": 87,
                    "time": 255.50561368333152,
                    "velocity": 0.6141732283464567,
                    "duration": 0.10227269999998612
                },
                {
                    "name": "D#6",
                    "midi": 87,
                    "time": 255.67890909166485,
                    "velocity": 0.6456692913385826,
                    "duration": 0.10227269999998612
                },
                {
                    "name": "D#6",
                    "midi": 87,
                    "time": 255.8550454083315,
                    "velocity": 0.6377952755905512,
                    "duration": 0.10227269999998612
                },
                {
                    "name": "D#6",
                    "midi": 87,
                    "time": 256.02265899999816,
                    "velocity": 0.6299212598425197,
                    "duration": 0.10227270000001454
                },
                {
                    "name": "D#6",
                    "midi": 87,
                    "time": 256.19027259166484,
                    "velocity": 0.6141732283464567,
                    "duration": 0.10227270000001454
                },
                {
                    "name": "D#6",
                    "midi": 87,
                    "time": 256.3692498166649,
                    "velocity": 0.6377952755905512,
                    "duration": 0.10227270000001454
                },
                {
                    "name": "D#6",
                    "midi": 87,
                    "time": 256.5397043166649,
                    "velocity": 0.6220472440944882,
                    "duration": 0.10227270000001454
                },
                {
                    "name": "D#6",
                    "midi": 87,
                    "time": 256.70447699999823,
                    "velocity": 0.6220472440944882,
                    "duration": 0.10227270000001454
                },
                {
                    "name": "D#6",
                    "midi": 87,
                    "time": 256.87777240833157,
                    "velocity": 0.6377952755905512,
                    "duration": 0.10227270000001454
                },
                {
                    "name": "D#6",
                    "midi": 87,
                    "time": 257.0397041833316,
                    "velocity": 0.6377952755905512,
                    "duration": 0.10227270000001454
                },
                {
                    "name": "D#6",
                    "midi": 87,
                    "time": 257.2129995916649,
                    "velocity": 0.6377952755905512,
                    "duration": 0.10227270000001454
                },
                {
                    "name": "D#6",
                    "midi": 87,
                    "time": 257.39197681666496,
                    "velocity": 0.6377952755905512,
                    "duration": 0.10227270000001454
                },
                {
                    "name": "D#6",
                    "midi": 87,
                    "time": 257.55959040833164,
                    "velocity": 0.6299212598425197,
                    "duration": 0.10227270000001454
                },
                {
                    "name": "C#6",
                    "midi": 85,
                    "time": 257.724363091665,
                    "velocity": 0.6456692913385826,
                    "duration": 0.10227270000001454
                },
                {
                    "name": "C#6",
                    "midi": 85,
                    "time": 257.894817591665,
                    "velocity": 0.6220472440944882,
                    "duration": 0.10227270000001454
                },
                {
                    "name": "D#6",
                    "midi": 87,
                    "time": 260.451635091665,
                    "velocity": 0.6456692913385826,
                    "duration": 0.10227270000001454
                },
                {
                    "name": "D#6",
                    "midi": 87,
                    "time": 260.6277714083317,
                    "velocity": 0.6141732283464567,
                    "duration": 0.10227270000001454
                },
                {
                    "name": "D#6",
                    "midi": 87,
                    "time": 260.7982259083317,
                    "velocity": 0.6141732283464567,
                    "duration": 0.10227270000001454
                },
                {
                    "name": "D#6",
                    "midi": 87,
                    "time": 260.96583949999837,
                    "velocity": 0.6299212598425197,
                    "duration": 0.10227270000001454
                },
                {
                    "name": "E6",
                    "midi": 88,
                    "time": 261.141975816665,
                    "velocity": 0.6141732283464567,
                    "duration": 0.10227270000001454
                },
                {
                    "name": "E6",
                    "midi": 88,
                    "time": 261.31243031666503,
                    "velocity": 0.6220472440944882,
                    "duration": 0.10227270000001454
                },
                {
                    "name": "D#6",
                    "midi": 87,
                    "time": 261.48288481666503,
                    "velocity": 0.6141732283464567,
                    "duration": 0.10227270000001454
                },
                {
                    "name": "D#6",
                    "midi": 87,
                    "time": 261.6504984083317,
                    "velocity": 0.6377952755905512,
                    "duration": 0.10227270000001454
                },
                {
                    "name": "C#6",
                    "midi": 85,
                    "time": 261.81243018333174,
                    "velocity": 0.6220472440944882,
                    "duration": 0.10227270000001454
                },
                {
                    "name": "C#6",
                    "midi": 85,
                    "time": 261.9942483166651,
                    "velocity": 0.6220472440944882,
                    "duration": 0.10227270000001454
                },
                {
                    "name": "D#6",
                    "midi": 87,
                    "time": 264.89197481666514,
                    "velocity": 0.6614173228346457,
                    "duration": 0.10227270000001454
                },
                {
                    "name": "D#6",
                    "midi": 87,
                    "time": 265.0567474999985,
                    "velocity": 0.6692913385826772,
                    "duration": 0.10227270000001454
                },
                {
                    "name": "D#6",
                    "midi": 87,
                    "time": 265.2272019999985,
                    "velocity": 0.6850393700787402,
                    "duration": 0.10227270000001454
                },
                {
                    "name": "D#6",
                    "midi": 87,
                    "time": 265.3976564999985,
                    "velocity": 0.6535433070866141,
                    "duration": 0.10227270000001454
                },
                {
                    "name": "D#6",
                    "midi": 87,
                    "time": 265.56242918333186,
                    "velocity": 0.6929133858267716,
                    "duration": 0.10227270000001454
                },
                {
                    "name": "D#6",
                    "midi": 87,
                    "time": 265.7357245916652,
                    "velocity": 0.6692913385826772,
                    "duration": 0.10227270000001454
                },
                {
                    "name": "C#6",
                    "midi": 85,
                    "time": 265.9061790916652,
                    "velocity": 0.6929133858267716,
                    "duration": 0.10227270000001454
                },
                {
                    "name": "C#6",
                    "midi": 85,
                    "time": 266.08515631666523,
                    "velocity": 0.7165354330708661,
                    "duration": 0.10227270000001454
                },
                {
                    "name": "C6",
                    "midi": 84,
                    "time": 266.24424718333194,
                    "velocity": 0.7165354330708661,
                    "duration": 0.10227270000001454
                },
                {
                    "name": "C6",
                    "midi": 84,
                    "time": 266.4203834999986,
                    "velocity": 0.7165354330708661,
                    "duration": 0.10227270000001454
                },
                {
                    "name": "C6",
                    "midi": 84,
                    "time": 266.58515618333195,
                    "velocity": 0.7322834645669292,
                    "duration": 0.10227270000001454
                },
                {
                    "name": "C6",
                    "midi": 84,
                    "time": 266.7669743166653,
                    "velocity": 0.7086614173228346,
                    "duration": 0.10227270000001454
                },
                {
                    "name": "E6",
                    "midi": 88,
                    "time": 268.298223908332,
                    "velocity": 0.7795275590551181,
                    "duration": 0.2727272000000198
                },
                {
                    "name": "C6",
                    "midi": 84,
                    "time": 271.8720865916653,
                    "velocity": 0.8661417322834646,
                    "duration": 0.10227270000001454
                },
                {
                    "name": "C#6",
                    "midi": 85,
                    "time": 272.04538199999865,
                    "velocity": 0.8582677165354331,
                    "duration": 0.10227270000001454
                },
                {
                    "name": "D6",
                    "midi": 86,
                    "time": 272.218677408332,
                    "velocity": 0.8582677165354331,
                    "duration": 0.10227270000001454
                },
                {
                    "name": "D#6",
                    "midi": 87,
                    "time": 272.38629099999866,
                    "velocity": 0.8503937007874016,
                    "duration": 0.10227270000001454
                },
                {
                    "name": "E6",
                    "midi": 88,
                    "time": 272.551063683332,
                    "velocity": 0.8661417322834646,
                    "duration": 0.10227270000001454
                },
                {
                    "name": "F6",
                    "midi": 89,
                    "time": 272.72435909166535,
                    "velocity": 0.8740157480314961,
                    "duration": 0.10227270000001454
                },
                {
                    "name": "C#6",
                    "midi": 85,
                    "time": 273.914699683332,
                    "velocity": 0.8740157480314961,
                    "duration": 0.10227270000001454
                },
                {
                    "name": "D6",
                    "midi": 86,
                    "time": 274.09367690833204,
                    "velocity": 0.8818897637795275,
                    "duration": 0.10227270000001454
                },
                {
                    "name": "D#6",
                    "midi": 87,
                    "time": 274.25560868333207,
                    "velocity": 0.8818897637795275,
                    "duration": 0.10227270000001454
                },
                {
                    "name": "C#6",
                    "midi": 85,
                    "time": 275.79254009166544,
                    "velocity": 0.8503937007874016,
                    "duration": 0.2727272000000198
                },
                {
                    "name": "C#6",
                    "midi": 85,
                    "time": 276.64197168333214,
                    "velocity": 0.8740157480314961,
                    "duration": 0.1363635999999815
                },
                {
                    "name": "D#6",
                    "midi": 87,
                    "time": 276.82378981666545,
                    "velocity": 0.8661417322834646,
                    "duration": 0.2727272000000198
                },
                {
                    "name": "C#6",
                    "midi": 85,
                    "time": 277.1561760916655,
                    "velocity": 0.8582677165354331,
                    "duration": 0.1363635999999815
                },
                {
                    "name": "C#6",
                    "midi": 85,
                    "time": 277.84367590833216,
                    "velocity": 0.8661417322834646,
                    "duration": 0.2727272000000198
                },
                {
                    "name": "D#6",
                    "midi": 87,
                    "time": 279.2016300916655,
                    "velocity": 0.8818897637795275,
                    "duration": 0.2727272000000198
                },
                {
                    "name": "D#6",
                    "midi": 87,
                    "time": 279.5396981833322,
                    "velocity": 0.8818897637795275,
                    "duration": 0.1363635999999815
                },
                {
                    "name": "C#6",
                    "midi": 85,
                    "time": 279.88912990833217,
                    "velocity": 0.8503937007874016,
                    "duration": 0.2727272000000198
                },
                {
                    "name": "D#6",
                    "midi": 87,
                    "time": 280.2215161833322,
                    "velocity": 0.8582677165354331,
                    "duration": 0.1363635999999815
                },
                {
                    "name": "D#6",
                    "midi": 87,
                    "time": 280.5709479083322,
                    "velocity": 0.8740157480314961,
                    "duration": 0.1363635999999815
                },
                {
                    "name": "C#6",
                    "midi": 85,
                    "time": 280.7414024083322,
                    "velocity": 0.8503937007874016,
                    "duration": 0.1363635999999815
                },
                {
                    "name": "D#6",
                    "midi": 87,
                    "time": 280.9090159999988,
                    "velocity": 0.8503937007874016,
                    "duration": 0.2727272000000198
                },
                {
                    "name": "C#6",
                    "midi": 85,
                    "time": 281.25276590833215,
                    "velocity": 0.8503937007874016,
                    "duration": 0.1363635999999815
                },
                {
                    "name": "D#6",
                    "midi": 87,
                    "time": 281.5908339999988,
                    "velocity": 0.8740157480314961,
                    "duration": 0.1363635999999815
                },
                {
                    "name": "C#6",
                    "midi": 85,
                    "time": 281.9289020916654,
                    "velocity": 0.8582677165354331,
                    "duration": 0.2727272000000198
                },
                {
                    "name": "D#6",
                    "midi": 87,
                    "time": 282.27833381666545,
                    "velocity": 0.8740157480314961,
                    "duration": 0.1363635999999815
                },
                {
                    "name": "D#6",
                    "midi": 87,
                    "time": 282.6107200916654,
                    "velocity": 0.8582677165354331,
                    "duration": 0.1363635999999815
                },
                {
                    "name": "D#6",
                    "midi": 87,
                    "time": 285.34651481666543,
                    "velocity": 0.8740157480314961,
                    "duration": 0.2727272000000198
                },
                {
                    "name": "D#6",
                    "midi": 87,
                    "time": 287.38344609166546,
                    "velocity": 0.8740157480314961,
                    "duration": 0.2727272000000198
                },
                {
                    "name": "D#6",
                    "midi": 87,
                    "time": 288.41185490833215,
                    "velocity": 0.8818897637795275,
                    "duration": 0.2727272000000198
                },
                {
                    "name": "D#6",
                    "midi": 87,
                    "time": 289.43174099999885,
                    "velocity": 0.8582677165354331,
                    "duration": 0.2727272000000198
                },
                {
                    "name": "D#6",
                    "midi": 87,
                    "time": 290.45162709166556,
                    "velocity": 0.8740157480314961,
                    "duration": 0.2727272000000198
                },
                {
                    "name": "D#6",
                    "midi": 87,
                    "time": 290.78969518333224,
                    "velocity": 0.8503937007874016,
                    "duration": 0.2727272000000198
                },
                {
                    "name": "D#6",
                    "midi": 87,
                    "time": 291.13060418333225,
                    "velocity": 0.8582677165354331,
                    "duration": 0.2727272000000198
                },
                {
                    "name": "D#6",
                    "midi": 87,
                    "time": 291.4800359083323,
                    "velocity": 0.8582677165354331,
                    "duration": 0.2727272000000198
                },
                {
                    "name": "D#6",
                    "midi": 87,
                    "time": 291.818103999999,
                    "velocity": 0.8818897637795275,
                    "duration": 0.2727272000000198
                },
                {
                    "name": "D#6",
                    "midi": 87,
                    "time": 292.15333118333234,
                    "velocity": 0.8661417322834646,
                    "duration": 0.2727272000000198
                },
                {
                    "name": "D#6",
                    "midi": 87,
                    "time": 292.49424018333235,
                    "velocity": 0.8740157480314961,
                    "duration": 0.2727272000000198
                },
                {
                    "name": "D#6",
                    "midi": 87,
                    "time": 292.84367190833234,
                    "velocity": 0.8582677165354331,
                    "duration": 0.2727272000000198
                },
                {
                    "name": "D#6",
                    "midi": 87,
                    "time": 294.886284999999,
                    "velocity": 0.8503937007874016,
                    "duration": 1.6363632000000052
                }
            ],
            "controlChanges": {
                "7": [
                    {
                        "number": 7,
                        "time": 0,
                        "value": 0.968503937007874
                    }
                ],
                "10": [
                    {
                        "number": 10,
                        "time": 0,
                        "value": 0.6299212598425197
                    },
                    {
                        "number": 10,
                        "time": 292.840830999999,
                        "value": 0.5039370078740157
                    },
                    {
                        "number": 10,
                        "time": 294.545375999999,
                        "value": 0.5039370078740157
                    },
                    {
                        "number": 10,
                        "time": 296.590829999999,
                        "value": 0.5039370078740157
                    }
                ],
                "91": [
                    {
                        "number": 91,
                        "time": 0,
                        "value": 0
                    },
                    {
                        "number": 91,
                        "time": 0,
                        "value": 0.09448818897637795
                    },
                    {
                        "number": 91,
                        "time": 294.886284999999,
                        "value": 0
                    }
                ],
                "93": [
                    {
                        "number": 93,
                        "time": 0,
                        "value": 0.12598425196850394
                    }
                ],
                "121": [
                    {
                        "number": 121,
                        "time": 0,
                        "value": 0
                    }
                ]
            },
            "id": 3,
            "instrumentNumber": 0,
            "instrument": "acoustic grand piano",
            "instrumentFamily": "piano",
            "channelNumber": 1,
            "isPercussion": false
        },
        {
            "startTime": 8.866474908333332,
            "duration": 296.5198072916665,
            "length": 503,
            "notes": [
                {
                    "name": "B5",
                    "midi": 83,
                    "time": 8.866474908333332,
                    "velocity": 0.6456692913385826,
                    "duration": 0.2556817500000008
                },
                {
                    "name": "B5",
                    "midi": 83,
                    "time": 9.210224816666667,
                    "velocity": 0.6377952755905512,
                    "duration": 0.2556817500000008
                },
                {
                    "name": "A#5",
                    "midi": 82,
                    "time": 9.542611091666668,
                    "velocity": 0.6141732283464567,
                    "duration": 0.2556817500000008
                },
                {
                    "name": "G#5",
                    "midi": 80,
                    "time": 9.886361000000003,
                    "velocity": 0.6299212598425197,
                    "duration": 0.2556817500000008
                },
                {
                    "name": "G5",
                    "midi": 79,
                    "time": 10.221588183333337,
                    "velocity": 0.6299212598425197,
                    "duration": 0.2556817500000008
                },
                {
                    "name": "G#5",
                    "midi": 80,
                    "time": 10.565338091666671,
                    "velocity": 0.6141732283464567,
                    "duration": 0.2556817500000008
                },
                {
                    "name": "A#5",
                    "midi": 82,
                    "time": 10.906247091666673,
                    "velocity": 0.6377952755905512,
                    "duration": 0.2556817500000008
                },
                {
                    "name": "G5",
                    "midi": 79,
                    "time": 10.991474341666674,
                    "velocity": 0.5511811023622047,
                    "duration": 0.2556817500000008
                },
                {
                    "name": "B5",
                    "midi": 83,
                    "time": 17.03976818333334,
                    "velocity": 0.6220472440944882,
                    "duration": 0.2556817500000008
                },
                {
                    "name": "B5",
                    "midi": 83,
                    "time": 17.389199908333342,
                    "velocity": 0.6141732283464567,
                    "duration": 0.2556817500000008
                },
                {
                    "name": "A#5",
                    "midi": 82,
                    "time": 17.732949816666675,
                    "velocity": 0.6220472440944882,
                    "duration": 0.2556817500000008
                },
                {
                    "name": "G#5",
                    "midi": 80,
                    "time": 18.073858816666675,
                    "velocity": 0.6299212598425197,
                    "duration": 0.2556817500000008
                },
                {
                    "name": "G5",
                    "midi": 79,
                    "time": 18.403404183333343,
                    "velocity": 0.6220472440944882,
                    "duration": 0.2556817500000008
                },
                {
                    "name": "G#5",
                    "midi": 80,
                    "time": 18.752835908333346,
                    "velocity": 0.6220472440944882,
                    "duration": 0.2556817500000008
                },
                {
                    "name": "A#5",
                    "midi": 82,
                    "time": 19.09658581666668,
                    "velocity": 0.6456692913385826,
                    "duration": 0.2556817500000008
                },
                {
                    "name": "G5",
                    "midi": 79,
                    "time": 19.178972158333345,
                    "velocity": 0.5669291338582677,
                    "duration": 0.2556817500000008
                },
                {
                    "name": "G#5",
                    "midi": 80,
                    "time": 21.477267000000012,
                    "velocity": 0.6377952755905512,
                    "duration": 0.1278408750000004
                },
                {
                    "name": "B5",
                    "midi": 83,
                    "time": 21.647721500000014,
                    "velocity": 0.6220472440944882,
                    "duration": 0.1278408750000004
                },
                {
                    "name": "G5",
                    "midi": 79,
                    "time": 22.494312183333346,
                    "velocity": 0.6141732283464567,
                    "duration": 0.1278408750000004
                },
                {
                    "name": "A#5",
                    "midi": 82,
                    "time": 22.67613031666668,
                    "velocity": 0.6456692913385826,
                    "duration": 0.1278408750000004
                },
                {
                    "name": "G#5",
                    "midi": 80,
                    "time": 23.69033459166668,
                    "velocity": 0.5669291338582677,
                    "duration": 0.10227270000000033
                },
                {
                    "name": "B5",
                    "midi": 83,
                    "time": 25.22158418333335,
                    "velocity": 0.6220472440944882,
                    "duration": 0.2556817500000008
                },
                {
                    "name": "B5",
                    "midi": 83,
                    "time": 25.573856816666684,
                    "velocity": 0.6299212598425197,
                    "duration": 0.2556817500000008
                },
                {
                    "name": "A#5",
                    "midi": 82,
                    "time": 25.903402183333352,
                    "velocity": 0.6299212598425197,
                    "duration": 0.2556817500000008
                },
                {
                    "name": "A#5",
                    "midi": 82,
                    "time": 26.221583916666685,
                    "velocity": 0.6299212598425197,
                    "duration": 0.051136350000000164
                },
                {
                    "name": "G#5",
                    "midi": 80,
                    "time": 26.249993000000018,
                    "velocity": 0.6299212598425197,
                    "duration": 0.2556817500000008
                },
                {
                    "name": "G5",
                    "midi": 79,
                    "time": 26.588061091666685,
                    "velocity": 0.6377952755905512,
                    "duration": 0.2556817500000008
                },
                {
                    "name": "G#5",
                    "midi": 80,
                    "time": 26.931811000000017,
                    "velocity": 0.6377952755905512,
                    "duration": 0.2556817500000008
                },
                {
                    "name": "G5",
                    "midi": 79,
                    "time": 27.218742741666684,
                    "velocity": 0.6141732283464567,
                    "duration": 0.051136350000000164
                },
                {
                    "name": "G#5",
                    "midi": 80,
                    "time": 27.244310916666684,
                    "velocity": 0.6456692913385826,
                    "duration": 0.02840908333333303
                },
                {
                    "name": "A#5",
                    "midi": 82,
                    "time": 27.272720000000017,
                    "velocity": 0.6456692913385826,
                    "duration": 0.2556817500000008
                },
                {
                    "name": "B5",
                    "midi": 83,
                    "time": 33.41192290833335,
                    "velocity": 0.6456692913385826,
                    "duration": 0.2556817500000008
                },
                {
                    "name": "B5",
                    "midi": 83,
                    "time": 33.752831908333356,
                    "velocity": 0.6220472440944882,
                    "duration": 0.2556817500000008
                },
                {
                    "name": "A#5",
                    "midi": 82,
                    "time": 34.09374090833336,
                    "velocity": 0.6141732283464567,
                    "duration": 0.2556817500000008
                },
                {
                    "name": "A#5",
                    "midi": 82,
                    "time": 34.40339991666669,
                    "velocity": 0.6456692913385826,
                    "duration": 0.05113634999999306
                },
                {
                    "name": "G#5",
                    "midi": 80,
                    "time": 34.42896809166669,
                    "velocity": 0.6220472440944882,
                    "duration": 0.2556817499999937
                },
                {
                    "name": "G5",
                    "midi": 79,
                    "time": 34.76703618333335,
                    "velocity": 0.6299212598425197,
                    "duration": 0.2556817500000008
                },
                {
                    "name": "G#5",
                    "midi": 80,
                    "time": 35.116467908333355,
                    "velocity": 0.6377952755905512,
                    "duration": 0.2556817500000008
                },
                {
                    "name": "G5",
                    "midi": 79,
                    "time": 35.40055874166669,
                    "velocity": 0.6141732283464567,
                    "duration": 0.051136350000000164
                },
                {
                    "name": "G#5",
                    "midi": 80,
                    "time": 35.434649641666695,
                    "velocity": 0.6377952755905512,
                    "duration": 0.02272726666666358
                },
                {
                    "name": "A#5",
                    "midi": 82,
                    "time": 35.44885418333336,
                    "velocity": 0.6456692913385826,
                    "duration": 0.2556817500000008
                },
                {
                    "name": "F#5",
                    "midi": 78,
                    "time": 36.44317210000003,
                    "velocity": 0.6377952755905512,
                    "duration": 0.051136350000000164
                },
                {
                    "name": "G#5",
                    "midi": 80,
                    "time": 37.846580816666695,
                    "velocity": 0.6299212598425197,
                    "duration": 0.10227270000000033
                },
                {
                    "name": "B5",
                    "midi": 83,
                    "time": 38.01703531666669,
                    "velocity": 0.6299212598425197,
                    "duration": 0.10227270000000033
                },
                {
                    "name": "G5",
                    "midi": 79,
                    "time": 38.86646690833336,
                    "velocity": 0.6299212598425197,
                    "duration": 0.10227270000000033
                },
                {
                    "name": "A#5",
                    "midi": 82,
                    "time": 39.036921408333356,
                    "velocity": 0.6141732283464567,
                    "duration": 0.10227270000000033
                },
                {
                    "name": "G#5",
                    "midi": 80,
                    "time": 40.39487559166669,
                    "velocity": 0.6456692913385826,
                    "duration": 0.10227270000000033
                },
                {
                    "name": "B5",
                    "midi": 83,
                    "time": 40.56817100000002,
                    "velocity": 0.6377952755905512,
                    "duration": 0.10227270000000033
                },
                {
                    "name": "F#5",
                    "midi": 78,
                    "time": 48.747146091666686,
                    "velocity": 0.6377952755905512,
                    "duration": 0.07386361666666375
                },
                {
                    "name": "G#5",
                    "midi": 80,
                    "time": 49.76987309166668,
                    "velocity": 0.6456692913385826,
                    "duration": 0.07386361666666375
                },
                {
                    "name": "F#5",
                    "midi": 78,
                    "time": 49.85510034166668,
                    "velocity": 0.6141732283464567,
                    "duration": 0.07386361666666375
                },
                {
                    "name": "F#5",
                    "midi": 78,
                    "time": 50.034077566666674,
                    "velocity": 0.6220472440944882,
                    "duration": 0.07386361666666375
                },
                {
                    "name": "F#5",
                    "midi": 78,
                    "time": 50.45737290833334,
                    "velocity": 0.6299212598425197,
                    "duration": 0.12784087499999686
                },
                {
                    "name": "F#5",
                    "midi": 78,
                    "time": 50.79260009166667,
                    "velocity": 0.6456692913385826,
                    "duration": 0.12784087499999686
                },
                {
                    "name": "F#5",
                    "midi": 78,
                    "time": 51.13350909166667,
                    "velocity": 0.6377952755905512,
                    "duration": 0.12784087499999686
                },
                {
                    "name": "F#5",
                    "midi": 78,
                    "time": 51.47157718333333,
                    "velocity": 0.6220472440944882,
                    "duration": 0.12784087499999686
                },
                {
                    "name": "G#5",
                    "midi": 80,
                    "time": 51.82384981666666,
                    "velocity": 0.6141732283464567,
                    "duration": 0.07386361666666375
                },
                {
                    "name": "F#5",
                    "midi": 78,
                    "time": 51.900554341666655,
                    "velocity": 0.6220472440944882,
                    "duration": 0.07386361666666375
                },
                {
                    "name": "F#5",
                    "midi": 78,
                    "time": 52.07669065833332,
                    "velocity": 0.6220472440944882,
                    "duration": 0.07386361666666375
                },
                {
                    "name": "F#5",
                    "midi": 78,
                    "time": 52.499985999999986,
                    "velocity": 0.6141732283464567,
                    "duration": 0.12784087499999686
                },
                {
                    "name": "A#5",
                    "midi": 82,
                    "time": 52.83805409166665,
                    "velocity": 0.6377952755905512,
                    "duration": 0.07386361666666375
                },
                {
                    "name": "G#5",
                    "midi": 80,
                    "time": 52.93180406666664,
                    "velocity": 0.6220472440944882,
                    "duration": 0.07386361666666375
                },
                {
                    "name": "G5",
                    "midi": 79,
                    "time": 53.00850859166664,
                    "velocity": 0.6299212598425197,
                    "duration": 0.07386361666666375
                },
                {
                    "name": "G#5",
                    "midi": 80,
                    "time": 53.093735841666636,
                    "velocity": 0.6220472440944882,
                    "duration": 0.07386361666666375
                },
                {
                    "name": "G#5",
                    "midi": 80,
                    "time": 53.52271299999997,
                    "velocity": 0.6456692913385826,
                    "duration": 0.12784087499999686
                },
                {
                    "name": "A#5",
                    "midi": 82,
                    "time": 53.86078109166663,
                    "velocity": 0.6141732283464567,
                    "duration": 0.1363635999999957
                },
                {
                    "name": "F#5",
                    "midi": 78,
                    "time": 53.8664629083333,
                    "velocity": 0.5511811023622047,
                    "duration": 0.1363635999999957
                },
                {
                    "name": "G#5",
                    "midi": 80,
                    "time": 54.03123559166663,
                    "velocity": 0.5511811023622047,
                    "duration": 0.1363636000000028
                },
                {
                    "name": "B5",
                    "midi": 83,
                    "time": 54.03407649999996,
                    "velocity": 0.6220472440944882,
                    "duration": 0.1363636000000028
                },
                {
                    "name": "A#5",
                    "midi": 82,
                    "time": 54.24714462499996,
                    "velocity": 0.5590551181102362,
                    "duration": 0.2727271999999985
                },
                {
                    "name": "B5",
                    "midi": 83,
                    "time": 54.54543999999996,
                    "velocity": 0.6141732283464567,
                    "duration": 0.1363635999999957
                },
                {
                    "name": "G#5",
                    "midi": 80,
                    "time": 54.55112181666662,
                    "velocity": 0.5354330708661418,
                    "duration": 0.1363635999999957
                },
                {
                    "name": "F#5",
                    "midi": 78,
                    "time": 54.715894499999955,
                    "velocity": 0.5354330708661418,
                    "duration": 0.1363635999999957
                },
                {
                    "name": "A#5",
                    "midi": 82,
                    "time": 54.72157631666662,
                    "velocity": 0.6220472440944882,
                    "duration": 0.1363635999999957
                },
                {
                    "name": "G#5",
                    "midi": 80,
                    "time": 54.88350809166661,
                    "velocity": 0.6141732283464567,
                    "duration": 0.1363636000000028
                },
                {
                    "name": "A#5",
                    "midi": 82,
                    "time": 55.059644408333284,
                    "velocity": 0.6456692913385826,
                    "duration": 0.1363636000000028
                },
                {
                    "name": "B5",
                    "midi": 83,
                    "time": 55.227257999999956,
                    "velocity": 0.6141732283464567,
                    "duration": 0.1590908666666664
                },
                {
                    "name": "A#5",
                    "midi": 82,
                    "time": 55.573848816666626,
                    "velocity": 0.6299212598425197,
                    "duration": 0.1363636000000028
                },
                {
                    "name": "G#5",
                    "midi": 80,
                    "time": 55.7414624083333,
                    "velocity": 0.6456692913385826,
                    "duration": 0.1363636000000028
                },
                {
                    "name": "F#5",
                    "midi": 78,
                    "time": 55.9119169083333,
                    "velocity": 0.6456692913385826,
                    "duration": 0.1363636000000028
                },
                {
                    "name": "G#5",
                    "midi": 80,
                    "time": 56.07668959166664,
                    "velocity": 0.6456692913385826,
                    "duration": 0.1363636000000028
                },
                {
                    "name": "A#5",
                    "midi": 82,
                    "time": 56.24714409166665,
                    "velocity": 0.6456692913385826,
                    "duration": 0.1590908666666664
                },
                {
                    "name": "G#5",
                    "midi": 80,
                    "time": 56.590893999999984,
                    "velocity": 0.6220472440944882,
                    "duration": 0.1363636000000028
                },
                {
                    "name": "F#5",
                    "midi": 78,
                    "time": 56.755666683333324,
                    "velocity": 0.6220472440944882,
                    "duration": 0.1363636000000028
                },
                {
                    "name": "F#5",
                    "midi": 78,
                    "time": 57.10793931666666,
                    "velocity": 0.6141732283464567,
                    "duration": 0.1363636000000028
                },
                {
                    "name": "G#5",
                    "midi": 80,
                    "time": 57.27555290833333,
                    "velocity": 0.6299212598425197,
                    "duration": 0.1590908666666664
                },
                {
                    "name": "B5",
                    "midi": 83,
                    "time": 57.43748468333333,
                    "velocity": 0.6377952755905512,
                    "duration": 0.1590908666666664
                },
                {
                    "name": "F#5",
                    "midi": 78,
                    "time": 57.960211816666664,
                    "velocity": 0.6141732283464567,
                    "duration": 0.1363636000000028
                },
                {
                    "name": "A#5",
                    "midi": 82,
                    "time": 58.13066631666667,
                    "velocity": 0.6456692913385826,
                    "duration": 0.1363636000000028
                },
                {
                    "name": "F#5",
                    "midi": 78,
                    "time": 58.47157531666667,
                    "velocity": 0.6456692913385826,
                    "duration": 0.1363636000000028
                },
                {
                    "name": "G5",
                    "midi": 79,
                    "time": 58.812484316666676,
                    "velocity": 0.6456692913385826,
                    "duration": 0.1363636000000028
                },
                {
                    "name": "G#5",
                    "midi": 80,
                    "time": 59.15339331666668,
                    "velocity": 0.6299212598425197,
                    "duration": 0.1363636000000028
                },
                {
                    "name": "G#5",
                    "midi": 80,
                    "time": 59.49430231666668,
                    "velocity": 0.6377952755905512,
                    "duration": 0.1363636000000028
                },
                {
                    "name": "F#5",
                    "midi": 78,
                    "time": 59.83521131666669,
                    "velocity": 0.6377952755905512,
                    "duration": 0.1363636000000028
                },
                {
                    "name": "G#5",
                    "midi": 80,
                    "time": 60.505665683333355,
                    "velocity": 0.6377952755905512,
                    "duration": 0.1363636000000028
                },
                {
                    "name": "G#5",
                    "midi": 80,
                    "time": 60.85509740833336,
                    "velocity": 0.6299212598425197,
                    "duration": 0.1363636000000028
                },
                {
                    "name": "G#5",
                    "midi": 80,
                    "time": 61.19316550000003,
                    "velocity": 0.6377952755905512,
                    "duration": 0.1363636000000028
                },
                {
                    "name": "G#5",
                    "midi": 80,
                    "time": 61.5312335916667,
                    "velocity": 0.6456692913385826,
                    "duration": 0.1363636000000028
                },
                {
                    "name": "G#5",
                    "midi": 80,
                    "time": 61.874983500000035,
                    "velocity": 0.6377952755905512,
                    "duration": 0.1363636000000028
                },
                {
                    "name": "G#5",
                    "midi": 80,
                    "time": 62.221574316666704,
                    "velocity": 0.6220472440944882,
                    "duration": 0.1363636000000028
                },
                {
                    "name": "G#5",
                    "midi": 80,
                    "time": 62.559642408333374,
                    "velocity": 0.6220472440944882,
                    "duration": 0.1363636000000028
                },
                {
                    "name": "G5",
                    "midi": 79,
                    "time": 62.89486959166671,
                    "velocity": 0.6299212598425197,
                    "duration": 0.1363636000000028
                },
                {
                    "name": "F#5",
                    "midi": 78,
                    "time": 63.244301316666714,
                    "velocity": 0.6141732283464567,
                    "duration": 0.1363636000000028
                },
                {
                    "name": "F#5",
                    "midi": 78,
                    "time": 63.573846683333386,
                    "velocity": 0.6141732283464567,
                    "duration": 0.1363636000000028
                },
                {
                    "name": "F#5",
                    "midi": 78,
                    "time": 64.60225550000006,
                    "velocity": 0.6377952755905512,
                    "duration": 0.1363635999999957
                },
                {
                    "name": "F#5",
                    "midi": 78,
                    "time": 64.94600540833338,
                    "velocity": 0.6299212598425197,
                    "duration": 0.1363635999999957
                },
                {
                    "name": "F#5",
                    "midi": 78,
                    "time": 65.28691440833337,
                    "velocity": 0.6299212598425197,
                    "duration": 0.1363635999999957
                },
                {
                    "name": "F#5",
                    "midi": 78,
                    "time": 65.6306643166667,
                    "velocity": 0.6377952755905512,
                    "duration": 0.1363635999999957
                },
                {
                    "name": "F#5",
                    "midi": 78,
                    "time": 65.96589150000003,
                    "velocity": 0.6377952755905512,
                    "duration": 0.1363635999999957
                },
                {
                    "name": "F#5",
                    "midi": 78,
                    "time": 66.30395959166668,
                    "velocity": 0.6220472440944882,
                    "duration": 0.1363635999999957
                },
                {
                    "name": "F#5",
                    "midi": 78,
                    "time": 66.65339131666668,
                    "velocity": 0.6456692913385826,
                    "duration": 0.1363635999999957
                },
                {
                    "name": "A#5",
                    "midi": 82,
                    "time": 69.37782240833334,
                    "velocity": 0.6220472440944882,
                    "duration": 0.1363635999999957
                },
                {
                    "name": "B5",
                    "midi": 83,
                    "time": 69.7158905,
                    "velocity": 0.6141732283464567,
                    "duration": 0.1363635999999957
                },
                {
                    "name": "A#5",
                    "midi": 82,
                    "time": 69.88634499999999,
                    "velocity": 0.6141732283464567,
                    "duration": 0.1363635999999957
                },
                {
                    "name": "G#5",
                    "midi": 80,
                    "time": 70.06248131666665,
                    "velocity": 0.6377952755905512,
                    "duration": 0.1363635999999957
                },
                {
                    "name": "G5",
                    "midi": 79,
                    "time": 70.23009490833331,
                    "velocity": 0.6141732283464567,
                    "duration": 0.1363635999999957
                },
                {
                    "name": "A#5",
                    "midi": 82,
                    "time": 70.39770849999998,
                    "velocity": 0.6220472440944882,
                    "duration": 0.1363635999999957
                },
                {
                    "name": "B5",
                    "midi": 83,
                    "time": 70.57100390833331,
                    "velocity": 0.6141732283464567,
                    "duration": 0.1363635999999957
                },
                {
                    "name": "F#5",
                    "midi": 78,
                    "time": 70.57100390833331,
                    "velocity": 0.6220472440944882,
                    "duration": 0.1363635999999957
                },
                {
                    "name": "A#5",
                    "midi": 82,
                    "time": 70.73861749999998,
                    "velocity": 0.6456692913385826,
                    "duration": 0.1363635999999957
                },
                {
                    "name": "G5",
                    "midi": 79,
                    "time": 72.26986709166664,
                    "velocity": 0.5669291338582677,
                    "duration": 0.2727272000000056
                },
                {
                    "name": "G5",
                    "midi": 79,
                    "time": 72.61929881666664,
                    "velocity": 0.5669291338582677,
                    "duration": 0.2727272000000056
                },
                {
                    "name": "G#5",
                    "midi": 80,
                    "time": 72.95736690833331,
                    "velocity": 0.5433070866141733,
                    "duration": 0.2727272000000056
                },
                {
                    "name": "B5",
                    "midi": 83,
                    "time": 73.12498049999998,
                    "velocity": 0.6220472440944882,
                    "duration": 0.1363636000000099
                },
                {
                    "name": "A5",
                    "midi": 81,
                    "time": 73.30111681666665,
                    "velocity": 0.5669291338582677,
                    "duration": 0.2727272000000056
                },
                {
                    "name": "B5",
                    "midi": 83,
                    "time": 73.98293481666666,
                    "velocity": 0.6299212598425197,
                    "duration": 0.1363635999999957
                },
                {
                    "name": "G5",
                    "midi": 79,
                    "time": 74.32384381666665,
                    "velocity": 0.5433070866141733,
                    "duration": 0.2727272000000056
                },
                {
                    "name": "F#5",
                    "midi": 78,
                    "time": 77.73009290833332,
                    "velocity": 0.6062992125984252,
                    "duration": 0.1363635999999957
                },
                {
                    "name": "G5",
                    "midi": 79,
                    "time": 78.40338818333332,
                    "velocity": 0.5905511811023622,
                    "duration": 0.1363635999999957
                },
                {
                    "name": "G#5",
                    "midi": 80,
                    "time": 79.08804709166665,
                    "velocity": 0.6220472440944882,
                    "duration": 0.1363635999999957
                },
                {
                    "name": "A5",
                    "midi": 81,
                    "time": 79.60509240833332,
                    "velocity": 0.6850393700787402,
                    "duration": 0.1363635999999957
                },
                {
                    "name": "A#5",
                    "midi": 82,
                    "time": 79.94316049999998,
                    "velocity": 0.7007874015748031,
                    "duration": 0.1363635999999957
                },
                {
                    "name": "B5",
                    "midi": 83,
                    "time": 80.2869104083333,
                    "velocity": 0.7165354330708661,
                    "duration": 0.1363635999999957
                },
                {
                    "name": "G#5",
                    "midi": 80,
                    "time": 99.1988371833333,
                    "velocity": 0.5196850393700787,
                    "duration": 0.1363635999999957
                },
                {
                    "name": "B5",
                    "midi": 83,
                    "time": 99.38065531666662,
                    "velocity": 0.5039370078740157,
                    "duration": 0.1363635999999957
                },
                {
                    "name": "G5",
                    "midi": 79,
                    "time": 100.22156418333329,
                    "velocity": 0.5118110236220472,
                    "duration": 0.1363635999999957
                },
                {
                    "name": "A#5",
                    "midi": 82,
                    "time": 100.40054140833328,
                    "velocity": 0.5118110236220472,
                    "duration": 0.1363635999999957
                },
                {
                    "name": "G#5",
                    "midi": 80,
                    "time": 101.42610931666661,
                    "velocity": 0.5433070866141733,
                    "duration": 0.1363635999999957
                },
                {
                    "name": "B5",
                    "midi": 83,
                    "time": 102.9601998166666,
                    "velocity": 0.6220472440944882,
                    "duration": 0.09090906666666854
                },
                {
                    "name": "B5",
                    "midi": 83,
                    "time": 103.07383614999993,
                    "velocity": 0.6377952755905512,
                    "duration": 0.09090906666666854
                },
                {
                    "name": "B5",
                    "midi": 83,
                    "time": 103.3011088166666,
                    "velocity": 0.6141732283464567,
                    "duration": 0.09090906666666854
                },
                {
                    "name": "B5",
                    "midi": 83,
                    "time": 103.4119042416666,
                    "velocity": 0.6299212598425197,
                    "duration": 0.09090906666666854
                },
                {
                    "name": "A#5",
                    "midi": 82,
                    "time": 103.64201781666661,
                    "velocity": 0.6377952755905512,
                    "duration": 0.09090906666666854
                },
                {
                    "name": "A#5",
                    "midi": 82,
                    "time": 103.75281324166662,
                    "velocity": 0.6220472440944882,
                    "duration": 0.09090906666666854
                },
                {
                    "name": "G#5",
                    "midi": 80,
                    "time": 103.97156318333329,
                    "velocity": 0.6141732283464567,
                    "duration": 0.09090906666666854
                },
                {
                    "name": "G#5",
                    "midi": 80,
                    "time": 104.09372224166663,
                    "velocity": 0.6456692913385826,
                    "duration": 0.09090906666666854
                },
                {
                    "name": "G5",
                    "midi": 79,
                    "time": 104.32099490833329,
                    "velocity": 0.6456692913385826,
                    "duration": 0.09090906666666854
                },
                {
                    "name": "G5",
                    "midi": 79,
                    "time": 104.42894942499996,
                    "velocity": 0.6299212598425197,
                    "duration": 0.09090906666666854
                },
                {
                    "name": "G#5",
                    "midi": 80,
                    "time": 104.65906299999996,
                    "velocity": 0.6220472440944882,
                    "duration": 0.09090906666666854
                },
                {
                    "name": "G#5",
                    "midi": 80,
                    "time": 104.77554024166663,
                    "velocity": 0.6377952755905512,
                    "duration": 0.09090906666666854
                },
                {
                    "name": "A#5",
                    "midi": 82,
                    "time": 105.0028129083333,
                    "velocity": 0.6220472440944882,
                    "duration": 0.09090906666666854
                },
                {
                    "name": "A#5",
                    "midi": 82,
                    "time": 105.11929014999997,
                    "velocity": 0.6220472440944882,
                    "duration": 0.09090906666666854
                },
                {
                    "name": "B5",
                    "midi": 83,
                    "time": 107.27553957499997,
                    "velocity": 0.6299212598425197,
                    "duration": 0.09090906666666854
                },
                {
                    "name": "B5",
                    "midi": 83,
                    "time": 107.60792584999997,
                    "velocity": 0.6141732283464567,
                    "duration": 0.09090906666666854
                },
                {
                    "name": "A#5",
                    "midi": 82,
                    "time": 107.95167575833331,
                    "velocity": 0.6299212598425197,
                    "duration": 0.09090906666666854
                },
                {
                    "name": "G#5",
                    "midi": 80,
                    "time": 108.28974384999998,
                    "velocity": 0.6220472440944882,
                    "duration": 0.09090906666666854
                },
                {
                    "name": "G5",
                    "midi": 79,
                    "time": 108.63349375833332,
                    "velocity": 0.6456692913385826,
                    "duration": 0.09090906666666854
                },
                {
                    "name": "G#5",
                    "midi": 80,
                    "time": 108.97440275833331,
                    "velocity": 0.6141732283464567,
                    "duration": 0.09090906666666854
                },
                {
                    "name": "A#5",
                    "midi": 82,
                    "time": 109.32099357499997,
                    "velocity": 0.6141732283464567,
                    "duration": 0.09090906666666854
                },
                {
                    "name": "B5",
                    "midi": 83,
                    "time": 111.13349309166664,
                    "velocity": 0.6456692913385826,
                    "duration": 0.09090906666666854
                },
                {
                    "name": "B5",
                    "midi": 83,
                    "time": 111.25281124166663,
                    "velocity": 0.6299212598425197,
                    "duration": 0.09090906666666854
                },
                {
                    "name": "B5",
                    "midi": 83,
                    "time": 111.47724299999997,
                    "velocity": 0.6220472440944882,
                    "duration": 0.09090906666666854
                },
                {
                    "name": "B5",
                    "midi": 83,
                    "time": 111.5908793333333,
                    "velocity": 0.6220472440944882,
                    "duration": 0.09090906666666854
                },
                {
                    "name": "A#5",
                    "midi": 82,
                    "time": 111.81815199999997,
                    "velocity": 0.6456692913385826,
                    "duration": 0.09090906666666854
                },
                {
                    "name": "A#5",
                    "midi": 82,
                    "time": 111.93462924166664,
                    "velocity": 0.6141732283464567,
                    "duration": 0.09090906666666854
                },
                {
                    "name": "G#5",
                    "midi": 80,
                    "time": 112.15906099999998,
                    "velocity": 0.6377952755905512,
                    "duration": 0.09090906666666854
                },
                {
                    "name": "G#5",
                    "midi": 80,
                    "time": 112.27553824166665,
                    "velocity": 0.6141732283464567,
                    "duration": 0.09090906666666854
                },
                {
                    "name": "G5",
                    "midi": 79,
                    "time": 112.49712909166665,
                    "velocity": 0.6456692913385826,
                    "duration": 0.09090906666666854
                },
                {
                    "name": "G5",
                    "midi": 79,
                    "time": 112.61076542499998,
                    "velocity": 0.6141732283464567,
                    "duration": 0.09090906666666854
                },
                {
                    "name": "G#5",
                    "midi": 80,
                    "time": 112.84656081666665,
                    "velocity": 0.6377952755905512,
                    "duration": 0.09090906666666854
                },
                {
                    "name": "G#5",
                    "midi": 80,
                    "time": 112.951674425,
                    "velocity": 0.6377952755905512,
                    "duration": 0.09090906666666854
                },
                {
                    "name": "A#5",
                    "midi": 82,
                    "time": 113.17610618333333,
                    "velocity": 0.6377952755905512,
                    "duration": 0.09090906666666854
                },
                {
                    "name": "A#5",
                    "midi": 82,
                    "time": 113.292583425,
                    "velocity": 0.6141732283464567,
                    "duration": 0.09090906666666854
                },
                {
                    "name": "F#5",
                    "midi": 78,
                    "time": 116.25280990833333,
                    "velocity": 0.6220472440944882,
                    "duration": 0.09090906666666854
                },
                {
                    "name": "F#5",
                    "midi": 78,
                    "time": 116.36644624166667,
                    "velocity": 0.6141732283464567,
                    "duration": 0.09090906666666854
                },
                {
                    "name": "G5",
                    "midi": 79,
                    "time": 116.58519618333334,
                    "velocity": 0.6377952755905512,
                    "duration": 0.09090906666666854
                },
                {
                    "name": "G5",
                    "midi": 79,
                    "time": 116.70451433333334,
                    "velocity": 0.6220472440944882,
                    "duration": 0.09090906666666854
                },
                {
                    "name": "G#5",
                    "midi": 80,
                    "time": 116.92894609166667,
                    "velocity": 0.6377952755905512,
                    "duration": 0.09090906666666854
                },
                {
                    "name": "G#5",
                    "midi": 80,
                    "time": 117.042582425,
                    "velocity": 0.6377952755905512,
                    "duration": 0.09090906666666854
                },
                {
                    "name": "A5",
                    "midi": 81,
                    "time": 117.26985509166667,
                    "velocity": 0.6141732283464567,
                    "duration": 0.09090906666666854
                },
                {
                    "name": "A5",
                    "midi": 81,
                    "time": 117.38065051666668,
                    "velocity": 0.6141732283464567,
                    "duration": 0.09090906666666854
                },
                {
                    "name": "A#5",
                    "midi": 82,
                    "time": 117.61644590833335,
                    "velocity": 0.6220472440944882,
                    "duration": 0.09090906666666854
                },
                {
                    "name": "A#5",
                    "midi": 82,
                    "time": 117.72440042500001,
                    "velocity": 0.6141732283464567,
                    "duration": 0.09090906666666854
                },
                {
                    "name": "B5",
                    "midi": 83,
                    "time": 117.94883218333335,
                    "velocity": 0.6141732283464567,
                    "duration": 0.09090906666666854
                },
                {
                    "name": "B5",
                    "midi": 83,
                    "time": 118.07383215000002,
                    "velocity": 0.6377952755905512,
                    "duration": 0.09090906666666854
                },
                {
                    "name": "F#5",
                    "midi": 78,
                    "time": 124.51985315833335,
                    "velocity": 0.6141732283464567,
                    "duration": 0.06818180000000496
                },
                {
                    "name": "F#5",
                    "midi": 78,
                    "time": 124.59939859166668,
                    "velocity": 0.6220472440944882,
                    "duration": 0.06818180000000496
                },
                {
                    "name": "F#5",
                    "midi": 78,
                    "time": 124.68178493333336,
                    "velocity": 0.6220472440944882,
                    "duration": 0.06818180000000496
                },
                {
                    "name": "B5",
                    "midi": 83,
                    "time": 124.86076215833337,
                    "velocity": 0.6456692913385826,
                    "duration": 0.06818180000000496
                },
                {
                    "name": "B5",
                    "midi": 83,
                    "time": 124.94883031666672,
                    "velocity": 0.6456692913385826,
                    "duration": 0.06818180000000496
                },
                {
                    "name": "B5",
                    "midi": 83,
                    "time": 125.02269393333339,
                    "velocity": 0.6377952755905512,
                    "duration": 0.06818180000000496
                },
                {
                    "name": "F#5",
                    "midi": 78,
                    "time": 125.46019381666673,
                    "velocity": 0.6377952755905512,
                    "duration": 0.2556817499999937
                },
                {
                    "name": "A#5",
                    "midi": 82,
                    "time": 128.60223843333338,
                    "velocity": 0.6141732283464567,
                    "duration": 0.06818179999999074
                },
                {
                    "name": "A#5",
                    "midi": 82,
                    "time": 128.69314750000004,
                    "velocity": 0.6141732283464567,
                    "duration": 0.06818179999999074
                },
                {
                    "name": "A#5",
                    "midi": 82,
                    "time": 128.7840565666667,
                    "velocity": 0.6456692913385826,
                    "duration": 0.06818179999999074
                },
                {
                    "name": "A#5",
                    "midi": 82,
                    "time": 129.5511018166667,
                    "velocity": 0.6377952755905512,
                    "duration": 0.2556817500000079
                },
                {
                    "name": "F#5",
                    "midi": 78,
                    "time": 130.9062150916667,
                    "velocity": 0.6456692913385826,
                    "duration": 0.1363636000000099
                },
                {
                    "name": "F#5",
                    "midi": 78,
                    "time": 131.24996500000003,
                    "velocity": 0.6220472440944882,
                    "duration": 0.1363636000000099
                },
                {
                    "name": "F#5",
                    "midi": 78,
                    "time": 131.42041950000004,
                    "velocity": 0.6141732283464567,
                    "duration": 0.1363636000000099
                },
                {
                    "name": "F#5",
                    "midi": 78,
                    "time": 131.5851921833334,
                    "velocity": 0.6456692913385826,
                    "duration": 0.1363636000000099
                },
                {
                    "name": "F#5",
                    "midi": 78,
                    "time": 131.76132850000008,
                    "velocity": 0.6141732283464567,
                    "duration": 0.1363636000000099
                },
                {
                    "name": "F#5",
                    "midi": 78,
                    "time": 131.92894209166676,
                    "velocity": 0.6299212598425197,
                    "duration": 0.1363636000000099
                },
                {
                    "name": "F#5",
                    "midi": 78,
                    "time": 132.10507840833344,
                    "velocity": 0.6299212598425197,
                    "duration": 0.1363636000000099
                },
                {
                    "name": "G#5",
                    "midi": 80,
                    "time": 132.27553290833345,
                    "velocity": 0.6220472440944882,
                    "duration": 0.07386361666667085
                },
                {
                    "name": "F#5",
                    "midi": 78,
                    "time": 132.36360106666677,
                    "velocity": 0.6456692913385826,
                    "duration": 0.07386361666667085
                },
                {
                    "name": "F#5",
                    "midi": 78,
                    "time": 132.52553284166677,
                    "velocity": 0.6141732283464567,
                    "duration": 0.07386361666667085
                },
                {
                    "name": "F#5",
                    "midi": 78,
                    "time": 132.96019181666676,
                    "velocity": 0.6299212598425197,
                    "duration": 0.2556817500000079
                },
                {
                    "name": "G#5",
                    "midi": 80,
                    "time": 133.29825990833345,
                    "velocity": 0.6377952755905512,
                    "duration": 0.2556817500000079
                },
                {
                    "name": "F#5",
                    "midi": 78,
                    "time": 134.65337318333346,
                    "velocity": 0.5590551181102362,
                    "duration": 0.1363636000000099
                },
                {
                    "name": "A#5",
                    "midi": 82,
                    "time": 134.65337318333346,
                    "velocity": 0.5511811023622047,
                    "duration": 0.1363636000000099
                },
                {
                    "name": "B5",
                    "midi": 83,
                    "time": 134.82382768333346,
                    "velocity": 0.5669291338582677,
                    "duration": 0.1363636000000099
                },
                {
                    "name": "G#5",
                    "midi": 80,
                    "time": 134.82950950000014,
                    "velocity": 0.5590551181102362,
                    "duration": 0.1363636000000099
                },
                {
                    "name": "A#5",
                    "midi": 82,
                    "time": 135.00564581666683,
                    "velocity": 0.5669291338582677,
                    "duration": 0.2727271999999914
                },
                {
                    "name": "G#5",
                    "midi": 80,
                    "time": 135.67894109166681,
                    "velocity": 0.5669291338582677,
                    "duration": 0.1363636000000099
                },
                {
                    "name": "A#5",
                    "midi": 82,
                    "time": 135.8465546833335,
                    "velocity": 0.5590551181102362,
                    "duration": 0.1363636000000099
                },
                {
                    "name": "B5",
                    "midi": 83,
                    "time": 136.02269100000018,
                    "velocity": 0.5669291338582677,
                    "duration": 0.2727271999999914
                },
                {
                    "name": "F#5",
                    "midi": 78,
                    "time": 136.70450900000017,
                    "velocity": 0.5590551181102362,
                    "duration": 0.1363636000000099
                },
                {
                    "name": "G#5",
                    "midi": 80,
                    "time": 136.88064531666686,
                    "velocity": 0.5669291338582677,
                    "duration": 0.1363636000000099
                },
                {
                    "name": "A#5",
                    "midi": 82,
                    "time": 137.0454180000002,
                    "velocity": 0.5590551181102362,
                    "duration": 0.2727271999999914
                },
                {
                    "name": "F#5",
                    "midi": 78,
                    "time": 137.89484959166688,
                    "velocity": 0.5433070866141733,
                    "duration": 0.1363636000000099
                },
                {
                    "name": "B5",
                    "midi": 83,
                    "time": 138.06814500000021,
                    "velocity": 0.6220472440944882,
                    "duration": 0.2556817499999795
                },
                {
                    "name": "G#5",
                    "midi": 80,
                    "time": 138.07098590833354,
                    "velocity": 0.5511811023622047,
                    "duration": 0.2727271999999914
                },
                {
                    "name": "A#5",
                    "midi": 82,
                    "time": 138.49144034166687,
                    "velocity": 0.5433070866141733,
                    "duration": 0.2727271999999914
                },
                {
                    "name": "F#5",
                    "midi": 78,
                    "time": 138.74428118333353,
                    "velocity": 0.6220472440944882,
                    "duration": 0.2556817500000079
                },
                {
                    "name": "G5",
                    "midi": 79,
                    "time": 139.08519018333354,
                    "velocity": 0.6220472440944882,
                    "duration": 0.2556817500000079
                },
                {
                    "name": "G#5",
                    "midi": 80,
                    "time": 139.4317810000002,
                    "velocity": 0.6456692913385826,
                    "duration": 0.2556817500000079
                },
                {
                    "name": "G#5",
                    "midi": 80,
                    "time": 139.8124627166669,
                    "velocity": 0.5590551181102362,
                    "duration": 0.2727271999999914
                },
                {
                    "name": "F#5",
                    "midi": 78,
                    "time": 140.15621262500022,
                    "velocity": 0.5511811023622047,
                    "duration": 0.2727271999999914
                },
                {
                    "name": "A#5",
                    "midi": 82,
                    "time": 141.8153030916669,
                    "velocity": 0.5669291338582677,
                    "duration": 0.2727271999999914
                },
                {
                    "name": "B5",
                    "midi": 83,
                    "time": 142.15621209166687,
                    "velocity": 0.5669291338582677,
                    "duration": 0.2727271999999914
                },
                {
                    "name": "G5",
                    "midi": 79,
                    "time": 143.17609818333352,
                    "velocity": 0.6141732283464567,
                    "duration": 0.06818179999999074
                },
                {
                    "name": "F#5",
                    "midi": 78,
                    "time": 143.5255299083335,
                    "velocity": 0.6220472440944882,
                    "duration": 0.06818179999999074
                },
                {
                    "name": "F#5",
                    "midi": 78,
                    "time": 143.90621162500017,
                    "velocity": 0.5590551181102362,
                    "duration": 0.2727271999999914
                },
                {
                    "name": "B5",
                    "midi": 83,
                    "time": 145.22439309166683,
                    "velocity": 0.5511811023622047,
                    "duration": 0.2727271999999914
                },
                {
                    "name": "A#5",
                    "midi": 82,
                    "time": 145.6079157166668,
                    "velocity": 0.5511811023622047,
                    "duration": 0.2727271999999914
                },
                {
                    "name": "G#5",
                    "midi": 80,
                    "time": 145.91189290833347,
                    "velocity": 0.5590551181102362,
                    "duration": 0.2727271999999914
                },
                {
                    "name": "A#5",
                    "midi": 82,
                    "time": 146.2471200916668,
                    "velocity": 0.5590551181102362,
                    "duration": 0.2727271999999914
                },
                {
                    "name": "B5",
                    "midi": 83,
                    "time": 146.58518818333346,
                    "velocity": 0.5669291338582677,
                    "duration": 0.2727271999999914
                },
                {
                    "name": "G5",
                    "midi": 79,
                    "time": 150.72723253333345,
                    "velocity": 0.5590551181102362,
                    "duration": 0.2727271999999914
                },
                {
                    "name": "A#5",
                    "midi": 82,
                    "time": 151.10507334166678,
                    "velocity": 0.6299212598425197,
                    "duration": 0.06818179999999074
                },
                {
                    "name": "B5",
                    "midi": 83,
                    "time": 151.19882331666676,
                    "velocity": 0.6456692913385826,
                    "duration": 0.06818179999999074
                },
                {
                    "name": "A#5",
                    "midi": 82,
                    "time": 151.28405056666676,
                    "velocity": 0.6377952755905512,
                    "duration": 0.06818179999999074
                },
                {
                    "name": "G5",
                    "midi": 79,
                    "time": 154.85507234166676,
                    "velocity": 0.5511811023622047,
                    "duration": 0.2727271999999914
                },
                {
                    "name": "B5",
                    "midi": 83,
                    "time": 159.98575279166676,
                    "velocity": 0.6377952755905512,
                    "duration": 0.05113635000000727
                },
                {
                    "name": "A#5",
                    "midi": 82,
                    "time": 160.05109368333342,
                    "velocity": 0.6141732283464567,
                    "duration": 0.05113635000000727
                },
                {
                    "name": "B5",
                    "midi": 83,
                    "time": 160.11643457500008,
                    "velocity": 0.6141732283464567,
                    "duration": 0.05113635000000727
                },
                {
                    "name": "A#5",
                    "midi": 82,
                    "time": 160.17893455833342,
                    "velocity": 0.6299212598425197,
                    "duration": 0.05113635000000727
                },
                {
                    "name": "A5",
                    "midi": 81,
                    "time": 160.2357527250001,
                    "velocity": 0.6456692913385826,
                    "duration": 0.05113635000000727
                },
                {
                    "name": "G#5",
                    "midi": 80,
                    "time": 160.29825270833345,
                    "velocity": 0.6220472440944882,
                    "duration": 0.05113635000000727
                },
                {
                    "name": "A5",
                    "midi": 81,
                    "time": 160.36643450833347,
                    "velocity": 0.6456692913385826,
                    "duration": 0.05113635000000727
                },
                {
                    "name": "G#5",
                    "midi": 80,
                    "time": 160.42609358333348,
                    "velocity": 0.6377952755905512,
                    "duration": 0.05113635000000727
                },
                {
                    "name": "G5",
                    "midi": 79,
                    "time": 160.49143447500015,
                    "velocity": 0.6456692913385826,
                    "duration": 0.05113635000000727
                },
                {
                    "name": "F#5",
                    "midi": 78,
                    "time": 160.5567753666668,
                    "velocity": 0.6141732283464567,
                    "duration": 0.05113635000000727
                },
                {
                    "name": "G5",
                    "midi": 79,
                    "time": 160.6135935333335,
                    "velocity": 0.6220472440944882,
                    "duration": 0.05113635000000727
                },
                {
                    "name": "F#5",
                    "midi": 78,
                    "time": 160.68177533333352,
                    "velocity": 0.6299212598425197,
                    "duration": 0.05113635000000727
                },
                {
                    "name": "F#5",
                    "midi": 78,
                    "time": 164.0113199000002,
                    "velocity": 0.6220472440944882,
                    "duration": 0.05113635000000727
                },
                {
                    "name": "G5",
                    "midi": 79,
                    "time": 164.13631986666687,
                    "velocity": 0.6377952755905512,
                    "duration": 0.05113635000000727
                },
                {
                    "name": "F#5",
                    "midi": 78,
                    "time": 164.2073425750002,
                    "velocity": 0.6299212598425197,
                    "duration": 0.05113635000000727
                },
                {
                    "name": "G#5",
                    "midi": 80,
                    "time": 164.26700165000022,
                    "velocity": 0.6220472440944882,
                    "duration": 0.05113635000000727
                },
                {
                    "name": "G5",
                    "midi": 79,
                    "time": 164.32666072500024,
                    "velocity": 0.6220472440944882,
                    "duration": 0.05113635000000727
                },
                {
                    "name": "A5",
                    "midi": 81,
                    "time": 164.39768343333358,
                    "velocity": 0.6377952755905512,
                    "duration": 0.05113635000000727
                },
                {
                    "name": "G#5",
                    "midi": 80,
                    "time": 164.45450160000027,
                    "velocity": 0.6456692913385826,
                    "duration": 0.05113635000000727
                },
                {
                    "name": "A#5",
                    "midi": 82,
                    "time": 164.51416067500028,
                    "velocity": 0.6299212598425197,
                    "duration": 0.05113635000000727
                },
                {
                    "name": "A5",
                    "midi": 81,
                    "time": 164.57950156666695,
                    "velocity": 0.6141732283464567,
                    "duration": 0.05113635000000727
                },
                {
                    "name": "B5",
                    "midi": 83,
                    "time": 164.63631973333364,
                    "velocity": 0.6299212598425197,
                    "duration": 0.05113635000000727
                },
                {
                    "name": "A#5",
                    "midi": 82,
                    "time": 164.7016606250003,
                    "velocity": 0.6220472440944882,
                    "duration": 0.05113635000000727
                },
                {
                    "name": "B5",
                    "midi": 83,
                    "time": 164.82666059166698,
                    "velocity": 0.6220472440944882,
                    "duration": 0.05113635000000727
                },
                {
                    "name": "B5",
                    "midi": 83,
                    "time": 173.230067441667,
                    "velocity": 0.5669291338582677,
                    "duration": 0.2727271999999914
                },
                {
                    "name": "B5",
                    "midi": 83,
                    "time": 173.52836281666697,
                    "velocity": 0.5354330708661418,
                    "duration": 0.2727271999999914
                },
                {
                    "name": "A#5",
                    "midi": 82,
                    "time": 173.86927181666695,
                    "velocity": 0.5511811023622047,
                    "duration": 0.2727271999999914
                },
                {
                    "name": "G#5",
                    "midi": 80,
                    "time": 174.21018081666693,
                    "velocity": 0.5590551181102362,
                    "duration": 0.2727271999999914
                },
                {
                    "name": "G5",
                    "midi": 79,
                    "time": 174.54256709166694,
                    "velocity": 0.5433070866141733,
                    "duration": 0.2727271999999914
                },
                {
                    "name": "G#5",
                    "midi": 80,
                    "time": 174.88347609166692,
                    "velocity": 0.5669291338582677,
                    "duration": 0.2727271999999914
                },
                {
                    "name": "G5",
                    "midi": 79,
                    "time": 175.22154418333358,
                    "velocity": 0.5511811023622047,
                    "duration": 0.2727271999999914
                },
                {
                    "name": "A#5",
                    "midi": 82,
                    "time": 175.22154418333358,
                    "velocity": 0.5669291338582677,
                    "duration": 0.2727271999999914
                },
                {
                    "name": "G#5",
                    "midi": 80,
                    "time": 185.7925640916669,
                    "velocity": 0.5433070866141733,
                    "duration": 0.1363636000000099
                },
                {
                    "name": "B5",
                    "midi": 83,
                    "time": 185.96017768333357,
                    "velocity": 0.5590551181102362,
                    "duration": 0.1363636000000099
                },
                {
                    "name": "G#5",
                    "midi": 80,
                    "time": 186.13631400000025,
                    "velocity": 0.6456692913385826,
                    "duration": 0.2727271999999914
                },
                {
                    "name": "G5",
                    "midi": 79,
                    "time": 186.81245018333357,
                    "velocity": 0.5354330708661418,
                    "duration": 0.1363636000000099
                },
                {
                    "name": "A#5",
                    "midi": 82,
                    "time": 186.98290468333357,
                    "velocity": 0.5354330708661418,
                    "duration": 0.1363636000000099
                },
                {
                    "name": "G5",
                    "midi": 79,
                    "time": 187.15904100000026,
                    "velocity": 0.6299212598425197,
                    "duration": 0.2727271999999914
                },
                {
                    "name": "G#5",
                    "midi": 80,
                    "time": 187.96017715000025,
                    "velocity": 0.5354330708661418,
                    "duration": 0.04545453333332716
                },
                {
                    "name": "B5",
                    "midi": 83,
                    "time": 189.53972218333357,
                    "velocity": 0.6377952755905512,
                    "duration": 0.2556817500000079
                },
                {
                    "name": "B5",
                    "midi": 83,
                    "time": 189.8834720916669,
                    "velocity": 0.6377952755905512,
                    "duration": 0.2556817500000079
                },
                {
                    "name": "A#5",
                    "midi": 82,
                    "time": 190.23006290833357,
                    "velocity": 0.6456692913385826,
                    "duration": 0.2556817500000079
                },
                {
                    "name": "G#5",
                    "midi": 80,
                    "time": 190.56244918333357,
                    "velocity": 0.6456692913385826,
                    "duration": 0.2556817500000079
                },
                {
                    "name": "G5",
                    "midi": 79,
                    "time": 190.9118809083336,
                    "velocity": 0.6377952755905512,
                    "duration": 0.2556817500000079
                },
                {
                    "name": "G#5",
                    "midi": 80,
                    "time": 191.24994900000027,
                    "velocity": 0.6299212598425197,
                    "duration": 0.2556817500000079
                },
                {
                    "name": "A#5",
                    "midi": 82,
                    "time": 191.5851761833336,
                    "velocity": 0.6299212598425197,
                    "duration": 0.2556817500000079
                },
                {
                    "name": "B5",
                    "midi": 83,
                    "time": 193.72153925000026,
                    "velocity": 0.6456692913385826,
                    "duration": 0.06818179999999074
                },
                {
                    "name": "B5",
                    "midi": 83,
                    "time": 193.8863119333336,
                    "velocity": 0.6299212598425197,
                    "duration": 0.06818179999999074
                },
                {
                    "name": "B5",
                    "midi": 83,
                    "time": 194.06244825000024,
                    "velocity": 0.6299212598425197,
                    "duration": 0.06818179999999074
                },
                {
                    "name": "B5",
                    "midi": 83,
                    "time": 194.23574365833358,
                    "velocity": 0.6299212598425197,
                    "duration": 0.06818179999999074
                },
                {
                    "name": "A#5",
                    "midi": 82,
                    "time": 194.39767543333357,
                    "velocity": 0.6141732283464567,
                    "duration": 0.06818179999999074
                },
                {
                    "name": "B5",
                    "midi": 83,
                    "time": 194.4942663166669,
                    "velocity": 0.6377952755905512,
                    "duration": 0.06818179999999074
                },
                {
                    "name": "A#5",
                    "midi": 82,
                    "time": 194.5794935666669,
                    "velocity": 0.6377952755905512,
                    "duration": 0.06818179999999074
                },
                {
                    "name": "G#5",
                    "midi": 80,
                    "time": 194.74710715833356,
                    "velocity": 0.6141732283464567,
                    "duration": 0.06818179999999074
                },
                {
                    "name": "A#5",
                    "midi": 82,
                    "time": 194.82381168333356,
                    "velocity": 0.6299212598425197,
                    "duration": 0.06818179999999074
                },
                {
                    "name": "G#5",
                    "midi": 80,
                    "time": 194.91756165833354,
                    "velocity": 0.6141732283464567,
                    "duration": 0.06818179999999074
                },
                {
                    "name": "G5",
                    "midi": 79,
                    "time": 195.07949343333354,
                    "velocity": 0.6299212598425197,
                    "duration": 0.06818179999999074
                },
                {
                    "name": "G#5",
                    "midi": 80,
                    "time": 195.16472068333354,
                    "velocity": 0.6456692913385826,
                    "duration": 0.06818179999999074
                },
                {
                    "name": "G5",
                    "midi": 79,
                    "time": 195.26131156666688,
                    "velocity": 0.6456692913385826,
                    "duration": 0.06818179999999074
                },
                {
                    "name": "G#5",
                    "midi": 80,
                    "time": 195.4260842500002,
                    "velocity": 0.6299212598425197,
                    "duration": 0.06818179999999074
                },
                {
                    "name": "A#5",
                    "midi": 82,
                    "time": 195.5113115000002,
                    "velocity": 0.6141732283464567,
                    "duration": 0.06818179999999074
                },
                {
                    "name": "G#5",
                    "midi": 80,
                    "time": 195.60222056666686,
                    "velocity": 0.6220472440944882,
                    "duration": 0.06818179999999074
                },
                {
                    "name": "A#5",
                    "midi": 82,
                    "time": 195.77267506666684,
                    "velocity": 0.6220472440944882,
                    "duration": 0.06818179999999074
                },
                {
                    "name": "B5",
                    "midi": 83,
                    "time": 195.85222050000016,
                    "velocity": 0.6220472440944882,
                    "duration": 0.06818179999999074
                },
                {
                    "name": "A#5",
                    "midi": 82,
                    "time": 195.93176593333348,
                    "velocity": 0.6299212598425197,
                    "duration": 0.06818179999999074
                },
                {
                    "name": "G5",
                    "midi": 79,
                    "time": 196.70449300000013,
                    "velocity": 0.5669291338582677,
                    "duration": 0.2727272000000198
                },
                {
                    "name": "A#5",
                    "midi": 82,
                    "time": 196.7101748166668,
                    "velocity": 0.5433070866141733,
                    "duration": 0.2727272000000198
                },
                {
                    "name": "A5",
                    "midi": 81,
                    "time": 198.4118789083335,
                    "velocity": 0.6377952755905512,
                    "duration": 0.2556817500000079
                },
                {
                    "name": "G#5",
                    "midi": 80,
                    "time": 198.7499470000002,
                    "velocity": 0.6377952755905512,
                    "duration": 0.2556817500000079
                },
                {
                    "name": "G#5",
                    "midi": 80,
                    "time": 199.0908560000002,
                    "velocity": 0.6220472440944882,
                    "duration": 0.2556817500000079
                },
                {
                    "name": "F#5",
                    "midi": 78,
                    "time": 199.43460590833354,
                    "velocity": 0.6220472440944882,
                    "duration": 0.2556817500000079
                },
                {
                    "name": "F#5",
                    "midi": 78,
                    "time": 202.09937792500023,
                    "velocity": 0.6220472440944882,
                    "duration": 0.04545453333332716
                },
                {
                    "name": "G5",
                    "midi": 79,
                    "time": 202.1647188166669,
                    "velocity": 0.6377952755905512,
                    "duration": 0.04545453333332716
                },
                {
                    "name": "G#5",
                    "midi": 80,
                    "time": 202.2158551666669,
                    "velocity": 0.6220472440944882,
                    "duration": 0.04545453333332716
                },
                {
                    "name": "A5",
                    "midi": 81,
                    "time": 202.27551424166688,
                    "velocity": 0.6377952755905512,
                    "duration": 0.04545453333332716
                },
                {
                    "name": "A#5",
                    "midi": 82,
                    "time": 202.32380968333354,
                    "velocity": 0.6141732283464567,
                    "duration": 0.04545453333332716
                },
                {
                    "name": "B5",
                    "midi": 83,
                    "time": 202.39199148333353,
                    "velocity": 0.6377952755905512,
                    "duration": 0.04545453333332716
                },
                {
                    "name": "A#5",
                    "midi": 82,
                    "time": 203.9232410750002,
                    "velocity": 0.6220472440944882,
                    "duration": 0.04545453333332716
                },
                {
                    "name": "G5",
                    "midi": 79,
                    "time": 203.97721833333352,
                    "velocity": 0.6299212598425197,
                    "duration": 0.04545453333332716
                },
                {
                    "name": "G#5",
                    "midi": 80,
                    "time": 204.9459680750002,
                    "velocity": 0.6377952755905512,
                    "duration": 0.04545453333332716
                },
                {
                    "name": "G#5",
                    "midi": 80,
                    "time": 204.99426351666685,
                    "velocity": 0.6377952755905512,
                    "duration": 0.04545453333332716
                },
                {
                    "name": "B5",
                    "midi": 83,
                    "time": 205.0596044083335,
                    "velocity": 0.6377952755905512,
                    "duration": 0.04545453333332716
                },
                {
                    "name": "B5",
                    "midi": 83,
                    "time": 206.08233140833352,
                    "velocity": 0.6299212598425197,
                    "duration": 0.1363636000000099
                },
                {
                    "name": "B5",
                    "midi": 83,
                    "time": 206.24710409166687,
                    "velocity": 0.6456692913385826,
                    "duration": 0.1363636000000099
                },
                {
                    "name": "B5",
                    "midi": 83,
                    "time": 206.4203995000002,
                    "velocity": 0.6141732283464567,
                    "duration": 0.1363636000000099
                },
                {
                    "name": "B5",
                    "midi": 83,
                    "time": 206.5908540000002,
                    "velocity": 0.6220472440944882,
                    "duration": 0.1363636000000099
                },
                {
                    "name": "B5",
                    "midi": 83,
                    "time": 206.7669903166669,
                    "velocity": 0.6299212598425197,
                    "duration": 0.1363636000000099
                },
                {
                    "name": "B5",
                    "midi": 83,
                    "time": 206.9374448166669,
                    "velocity": 0.6377952755905512,
                    "duration": 0.10227269999998612
                },
                {
                    "name": "F#5",
                    "midi": 78,
                    "time": 207.26983109166687,
                    "velocity": 0.6456692913385826,
                    "duration": 0.10227269999998612
                },
                {
                    "name": "B5",
                    "midi": 83,
                    "time": 207.61926281666686,
                    "velocity": 0.6456692913385826,
                    "duration": 0.10227269999998612
                },
                {
                    "name": "F#5",
                    "midi": 78,
                    "time": 208.29823990833353,
                    "velocity": 0.6220472440944882,
                    "duration": 0.10227269999998612
                },
                {
                    "name": "B5",
                    "midi": 83,
                    "time": 209.48573959166686,
                    "velocity": 0.6220472440944882,
                    "duration": 0.10227269999998612
                },
                {
                    "name": "A#5",
                    "midi": 82,
                    "time": 211.36358000000018,
                    "velocity": 0.6377952755905512,
                    "duration": 0.10227269999998612
                },
                {
                    "name": "A#5",
                    "midi": 82,
                    "time": 212.3806251833335,
                    "velocity": 0.6220472440944882,
                    "duration": 0.10227269999998612
                },
                {
                    "name": "F#5",
                    "midi": 78,
                    "time": 213.40903400000016,
                    "velocity": 0.6456692913385826,
                    "duration": 0.10227269999998612
                },
                {
                    "name": "F#5",
                    "midi": 78,
                    "time": 214.26130650000016,
                    "velocity": 0.6377952755905512,
                    "duration": 0.10227269999998612
                },
                {
                    "name": "F#5",
                    "midi": 78,
                    "time": 214.42607918333348,
                    "velocity": 0.6141732283464567,
                    "duration": 0.10227269999998612
                },
                {
                    "name": "F#5",
                    "midi": 78,
                    "time": 214.59653368333346,
                    "velocity": 0.6456692913385826,
                    "duration": 0.10227269999998612
                },
                {
                    "name": "F#5",
                    "midi": 78,
                    "time": 214.76698818333344,
                    "velocity": 0.6141732283464567,
                    "duration": 0.10227269999998612
                },
                {
                    "name": "F#5",
                    "midi": 78,
                    "time": 214.94596540833342,
                    "velocity": 0.6456692913385826,
                    "duration": 0.10227269999998612
                },
                {
                    "name": "F#5",
                    "midi": 78,
                    "time": 215.4488061833334,
                    "velocity": 0.6456692913385826,
                    "duration": 0.10227269999998612
                },
                {
                    "name": "G#5",
                    "midi": 80,
                    "time": 216.47721500000006,
                    "velocity": 0.6220472440944882,
                    "duration": 0.10227269999998612
                },
                {
                    "name": "F#5",
                    "midi": 78,
                    "time": 217.84085100000004,
                    "velocity": 0.5511811023622047,
                    "duration": 0.10227269999998612
                },
                {
                    "name": "A#5",
                    "midi": 82,
                    "time": 218.0169873166667,
                    "velocity": 0.5354330708661418,
                    "duration": 0.10227269999998612
                },
                {
                    "name": "B5",
                    "midi": 83,
                    "time": 218.18744181666668,
                    "velocity": 0.6141732283464567,
                    "duration": 0.10227269999998612
                },
                {
                    "name": "G#5",
                    "midi": 80,
                    "time": 219.03687340833332,
                    "velocity": 0.5590551181102362,
                    "duration": 0.10227269999998612
                },
                {
                    "name": "B5",
                    "midi": 83,
                    "time": 219.03687340833332,
                    "velocity": 0.6456692913385826,
                    "duration": 0.10227269999998612
                },
                {
                    "name": "A#5",
                    "midi": 82,
                    "time": 219.2073279083333,
                    "velocity": 0.6377952755905512,
                    "duration": 0.10227269999998612
                },
                {
                    "name": "B5",
                    "midi": 83,
                    "time": 219.37210059166662,
                    "velocity": 0.6220472440944882,
                    "duration": 0.10227269999998612
                },
                {
                    "name": "B5",
                    "midi": 83,
                    "time": 219.89198681666662,
                    "velocity": 0.6299212598425197,
                    "duration": 0.10227269999998612
                },
                {
                    "name": "A#5",
                    "midi": 82,
                    "time": 220.05107768333326,
                    "velocity": 0.6141732283464567,
                    "duration": 0.10227269999998612
                },
                {
                    "name": "F#5",
                    "midi": 78,
                    "time": 220.0624413166666,
                    "velocity": 0.5590551181102362,
                    "duration": 0.10227269999998612
                },
                {
                    "name": "G#5",
                    "midi": 80,
                    "time": 220.23289581666657,
                    "velocity": 0.6377952755905512,
                    "duration": 0.10227269999998612
                },
                {
                    "name": "A#5",
                    "midi": 82,
                    "time": 220.3976684999999,
                    "velocity": 0.6377952755905512,
                    "duration": 0.10227269999998612
                },
                {
                    "name": "B5",
                    "midi": 83,
                    "time": 220.57380481666655,
                    "velocity": 0.6220472440944882,
                    "duration": 0.10227269999998612
                },
                {
                    "name": "B5",
                    "midi": 83,
                    "time": 220.74425931666653,
                    "velocity": 0.6141732283464567,
                    "duration": 0.10227269999998612
                },
                {
                    "name": "F#5",
                    "midi": 78,
                    "time": 220.90903199999985,
                    "velocity": 0.6220472440944882,
                    "duration": 0.10227269999998612
                },
                {
                    "name": "G#5",
                    "midi": 80,
                    "time": 221.0851683166665,
                    "velocity": 0.6456692913385826,
                    "duration": 0.10227269999998612
                },
                {
                    "name": "F#5",
                    "midi": 78,
                    "time": 221.24994099999984,
                    "velocity": 0.6299212598425197,
                    "duration": 0.2727271999999914
                },
                {
                    "name": "G#5",
                    "midi": 80,
                    "time": 222.94880418333315,
                    "velocity": 0.5511811023622047,
                    "duration": 0.10227269999998612
                },
                {
                    "name": "G#5",
                    "midi": 80,
                    "time": 223.12778140833314,
                    "velocity": 0.5433070866141733,
                    "duration": 0.10227269999998612
                },
                {
                    "name": "G#5",
                    "midi": 80,
                    "time": 223.2953949999998,
                    "velocity": 0.6299212598425197,
                    "duration": 0.2727271999999914
                },
                {
                    "name": "G#5",
                    "midi": 80,
                    "time": 223.63914490833312,
                    "velocity": 0.5590551181102362,
                    "duration": 0.10227269999998612
                },
                {
                    "name": "G#5",
                    "midi": 80,
                    "time": 223.81244031666645,
                    "velocity": 0.5590551181102362,
                    "duration": 0.10227269999998612
                },
                {
                    "name": "G#5",
                    "midi": 80,
                    "time": 223.9715311833331,
                    "velocity": 0.5511811023622047,
                    "duration": 0.10227269999998612
                },
                {
                    "name": "G#5",
                    "midi": 80,
                    "time": 224.14766749999976,
                    "velocity": 0.5511811023622047,
                    "duration": 0.10227269999998612
                },
                {
                    "name": "G#5",
                    "midi": 80,
                    "time": 224.3209629083331,
                    "velocity": 0.5433070866141733,
                    "duration": 0.10227269999998612
                },
                {
                    "name": "G#5",
                    "midi": 80,
                    "time": 224.48857649999974,
                    "velocity": 0.5511811023622047,
                    "duration": 0.10227269999998612
                },
                {
                    "name": "G#5",
                    "midi": 80,
                    "time": 224.65903099999971,
                    "velocity": 0.5354330708661418,
                    "duration": 0.10227269999998612
                },
                {
                    "name": "G#5",
                    "midi": 80,
                    "time": 224.82380368333304,
                    "velocity": 0.5511811023622047,
                    "duration": 0.10227269999998612
                },
                {
                    "name": "G#5",
                    "midi": 80,
                    "time": 224.9999399999997,
                    "velocity": 0.5669291338582677,
                    "duration": 0.10227269999998612
                },
                {
                    "name": "G#5",
                    "midi": 80,
                    "time": 225.17039449999967,
                    "velocity": 0.5590551181102362,
                    "duration": 0.10227269999998612
                },
                {
                    "name": "G#5",
                    "midi": 80,
                    "time": 225.33800809166632,
                    "velocity": 0.5511811023622047,
                    "duration": 0.2727271999999914
                },
                {
                    "name": "F#5",
                    "midi": 78,
                    "time": 227.04255309166632,
                    "velocity": 0.5511811023622047,
                    "duration": 0.10227269999998612
                },
                {
                    "name": "F#5",
                    "midi": 78,
                    "time": 227.21584849999965,
                    "velocity": 0.5433070866141733,
                    "duration": 0.10227269999998612
                },
                {
                    "name": "F#5",
                    "midi": 78,
                    "time": 227.38062118333298,
                    "velocity": 0.6377952755905512,
                    "duration": 0.2727271999999914
                },
                {
                    "name": "F#5",
                    "midi": 78,
                    "time": 227.7243710916663,
                    "velocity": 0.5669291338582677,
                    "duration": 0.10227269999998612
                },
                {
                    "name": "F#5",
                    "midi": 78,
                    "time": 227.89766649999964,
                    "velocity": 0.5354330708661418,
                    "duration": 0.10227269999998612
                },
                {
                    "name": "F#5",
                    "midi": 78,
                    "time": 228.0738028166663,
                    "velocity": 0.5511811023622047,
                    "duration": 0.10227269999998612
                },
                {
                    "name": "F#5",
                    "midi": 78,
                    "time": 228.23289368333295,
                    "velocity": 0.5669291338582677,
                    "duration": 0.10227269999998612
                },
                {
                    "name": "F#5",
                    "midi": 78,
                    "time": 228.41187090833293,
                    "velocity": 0.5590551181102362,
                    "duration": 0.10227269999998612
                },
                {
                    "name": "F#5",
                    "midi": 78,
                    "time": 228.57380268333293,
                    "velocity": 0.5590551181102362,
                    "duration": 0.10227269999998612
                },
                {
                    "name": "F#5",
                    "midi": 78,
                    "time": 228.74993899999959,
                    "velocity": 0.5590551181102362,
                    "duration": 0.10227270000001454
                },
                {
                    "name": "B5",
                    "midi": 83,
                    "time": 228.75562081666627,
                    "velocity": 0.6377952755905512,
                    "duration": 0.10227270000001454
                },
                {
                    "name": "B5",
                    "midi": 83,
                    "time": 228.91471168333294,
                    "velocity": 0.6377952755905512,
                    "duration": 0.10227270000001454
                },
                {
                    "name": "F#5",
                    "midi": 78,
                    "time": 228.92039349999962,
                    "velocity": 0.5748031496062992,
                    "duration": 0.10227270000001454
                },
                {
                    "name": "F#5",
                    "midi": 78,
                    "time": 229.0880070916663,
                    "velocity": 0.5669291338582677,
                    "duration": 0.10227269999998612
                },
                {
                    "name": "F#5",
                    "midi": 78,
                    "time": 229.25562068333295,
                    "velocity": 0.5748031496062992,
                    "duration": 0.10227269999998612
                },
                {
                    "name": "F#5",
                    "midi": 78,
                    "time": 229.43459790833293,
                    "velocity": 0.5669291338582677,
                    "duration": 0.2727271999999914
                },
                {
                    "name": "B5",
                    "midi": 83,
                    "time": 233.01414240833293,
                    "velocity": 0.6850393700787402,
                    "duration": 0.10227269999998612
                },
                {
                    "name": "A#5",
                    "midi": 82,
                    "time": 233.18175599999958,
                    "velocity": 0.6929133858267716,
                    "duration": 0.10227269999998612
                },
                {
                    "name": "G#5",
                    "midi": 80,
                    "time": 233.3550514083329,
                    "velocity": 0.6929133858267716,
                    "duration": 0.10227269999998612
                },
                {
                    "name": "G5",
                    "midi": 79,
                    "time": 233.5169831833329,
                    "velocity": 0.6850393700787402,
                    "duration": 0.2727271999999914
                },
                {
                    "name": "F#5",
                    "midi": 78,
                    "time": 236.59084599999957,
                    "velocity": 0.6299212598425197,
                    "duration": 0.10227269999998612
                },
                {
                    "name": "F#5",
                    "midi": 78,
                    "time": 236.76130049999955,
                    "velocity": 0.6299212598425197,
                    "duration": 0.10227269999998612
                },
                {
                    "name": "G5",
                    "midi": 79,
                    "time": 236.9289140916662,
                    "velocity": 0.6299212598425197,
                    "duration": 0.10227269999998612
                },
                {
                    "name": "B5",
                    "midi": 83,
                    "time": 237.10220949999953,
                    "velocity": 0.7244094488188977,
                    "duration": 0.10227269999998612
                },
                {
                    "name": "G5",
                    "midi": 79,
                    "time": 237.10505040833286,
                    "velocity": 0.6220472440944882,
                    "duration": 0.10227269999998612
                },
                {
                    "name": "A#5",
                    "midi": 82,
                    "time": 237.27550490833283,
                    "velocity": 0.7401574803149606,
                    "duration": 0.10227269999998612
                },
                {
                    "name": "G#5",
                    "midi": 80,
                    "time": 237.43743668333283,
                    "velocity": 0.7165354330708661,
                    "duration": 0.10227269999998612
                },
                {
                    "name": "G5",
                    "midi": 79,
                    "time": 237.61073209166616,
                    "velocity": 0.7480314960629921,
                    "duration": 0.10227269999998612
                },
                {
                    "name": "F#5",
                    "midi": 78,
                    "time": 237.78970931666615,
                    "velocity": 0.7480314960629921,
                    "duration": 0.10227269999998612
                },
                {
                    "name": "B5",
                    "midi": 83,
                    "time": 239.15334531666613,
                    "velocity": 0.7637795275590551,
                    "duration": 0.10227269999998612
                },
                {
                    "name": "A#5",
                    "midi": 82,
                    "time": 239.3237998166661,
                    "velocity": 0.7480314960629921,
                    "duration": 0.10227269999998612
                },
                {
                    "name": "G#5",
                    "midi": 80,
                    "time": 239.48289068333276,
                    "velocity": 0.7401574803149606,
                    "duration": 0.10227269999998612
                },
                {
                    "name": "G5",
                    "midi": 79,
                    "time": 239.66470881666606,
                    "velocity": 0.7637795275590551,
                    "duration": 0.10227269999998612
                },
                {
                    "name": "F#5",
                    "midi": 78,
                    "time": 239.82664059166606,
                    "velocity": 0.7559055118110236,
                    "duration": 0.10227269999998612
                },
                {
                    "name": "A5",
                    "midi": 81,
                    "time": 246.14197981666604,
                    "velocity": 0.8346456692913385,
                    "duration": 0.10227269999998612
                },
                {
                    "name": "A#5",
                    "midi": 82,
                    "time": 246.47720699999937,
                    "velocity": 0.8267716535433071,
                    "duration": 0.10227269999998612
                },
                {
                    "name": "A5",
                    "midi": 81,
                    "time": 247.50561581666602,
                    "velocity": 0.8188976377952756,
                    "duration": 0.10227269999998612
                },
                {
                    "name": "A5",
                    "midi": 81,
                    "time": 247.66470668333267,
                    "velocity": 0.84251968503937,
                    "duration": 0.10227269999998612
                },
                {
                    "name": "A#5",
                    "midi": 82,
                    "time": 247.838002091666,
                    "velocity": 0.8267716535433071,
                    "duration": 0.10227269999998612
                },
                {
                    "name": "A#5",
                    "midi": 82,
                    "time": 248.00845659166598,
                    "velocity": 0.84251968503937,
                    "duration": 0.10227269999998612
                },
                {
                    "name": "A#5",
                    "midi": 82,
                    "time": 250.3976604999993,
                    "velocity": 0.8582677165354331,
                    "duration": 0.10227269999998612
                },
                {
                    "name": "G5",
                    "midi": 79,
                    "time": 250.7414104083326,
                    "velocity": 0.8346456692913385,
                    "duration": 0.10227269999998612
                },
                {
                    "name": "B5",
                    "midi": 83,
                    "time": 258.07095390833257,
                    "velocity": 0.6377952755905512,
                    "duration": 0.10227270000001454
                },
                {
                    "name": "B5",
                    "midi": 83,
                    "time": 258.23856749999925,
                    "velocity": 0.6141732283464567,
                    "duration": 0.10227270000001454
                },
                {
                    "name": "B5",
                    "midi": 83,
                    "time": 258.40902199999925,
                    "velocity": 0.6220472440944882,
                    "duration": 0.10227270000001454
                },
                {
                    "name": "B5",
                    "midi": 83,
                    "time": 258.57663559166593,
                    "velocity": 0.6299212598425197,
                    "duration": 0.10227270000001454
                },
                {
                    "name": "A#5",
                    "midi": 82,
                    "time": 258.755612816666,
                    "velocity": 0.6456692913385826,
                    "duration": 0.10227270000001454
                },
                {
                    "name": "A#5",
                    "midi": 82,
                    "time": 258.917544591666,
                    "velocity": 0.6141732283464567,
                    "duration": 0.10227270000001454
                },
                {
                    "name": "G#5",
                    "midi": 80,
                    "time": 259.0851581833327,
                    "velocity": 0.6141732283464567,
                    "duration": 0.10227270000001454
                },
                {
                    "name": "G#5",
                    "midi": 80,
                    "time": 259.2556126833327,
                    "velocity": 0.6299212598425197,
                    "duration": 0.10227270000001454
                },
                {
                    "name": "G5",
                    "midi": 79,
                    "time": 259.43743081666605,
                    "velocity": 0.6141732283464567,
                    "duration": 0.10227270000001454
                },
                {
                    "name": "G5",
                    "midi": 79,
                    "time": 259.59652168333275,
                    "velocity": 0.6456692913385826,
                    "duration": 0.10227270000001454
                },
                {
                    "name": "G#5",
                    "midi": 80,
                    "time": 259.7698170916661,
                    "velocity": 0.6220472440944882,
                    "duration": 0.10227270000001454
                },
                {
                    "name": "G#5",
                    "midi": 80,
                    "time": 259.94595340833274,
                    "velocity": 0.6299212598425197,
                    "duration": 0.10227270000001454
                },
                {
                    "name": "A#5",
                    "midi": 82,
                    "time": 260.1107260916661,
                    "velocity": 0.6456692913385826,
                    "duration": 0.10227270000001454
                },
                {
                    "name": "A#5",
                    "midi": 82,
                    "time": 260.28970331666613,
                    "velocity": 0.6456692913385826,
                    "duration": 0.10227270000001454
                },
                {
                    "name": "B5",
                    "midi": 83,
                    "time": 262.15618009166616,
                    "velocity": 0.6377952755905512,
                    "duration": 0.10227270000001454
                },
                {
                    "name": "B5",
                    "midi": 83,
                    "time": 262.3294754999995,
                    "velocity": 0.6456692913385826,
                    "duration": 0.10227270000001454
                },
                {
                    "name": "B5",
                    "midi": 83,
                    "time": 262.49708909166617,
                    "velocity": 0.6299212598425197,
                    "duration": 0.10227270000001454
                },
                {
                    "name": "B5",
                    "midi": 83,
                    "time": 262.6732254083328,
                    "velocity": 0.6220472440944882,
                    "duration": 0.10227270000001454
                },
                {
                    "name": "A#5",
                    "midi": 82,
                    "time": 262.84652081666616,
                    "velocity": 0.6141732283464567,
                    "duration": 0.10227270000001454
                },
                {
                    "name": "A#5",
                    "midi": 82,
                    "time": 263.0084525916662,
                    "velocity": 0.6456692913385826,
                    "duration": 0.10227270000001454
                },
                {
                    "name": "G#5",
                    "midi": 80,
                    "time": 263.1874298166662,
                    "velocity": 0.6377952755905512,
                    "duration": 0.10227270000001454
                },
                {
                    "name": "G#5",
                    "midi": 80,
                    "time": 263.3522024999996,
                    "velocity": 0.6141732283464567,
                    "duration": 0.10227270000001454
                },
                {
                    "name": "G5",
                    "midi": 79,
                    "time": 263.51697518333293,
                    "velocity": 0.6377952755905512,
                    "duration": 0.10227270000001454
                },
                {
                    "name": "G5",
                    "midi": 79,
                    "time": 263.68742968333294,
                    "velocity": 0.6220472440944882,
                    "duration": 0.10227270000001454
                },
                {
                    "name": "G#5",
                    "midi": 80,
                    "time": 263.85788418333294,
                    "velocity": 0.6377952755905512,
                    "duration": 0.10227270000001454
                },
                {
                    "name": "G#5",
                    "midi": 80,
                    "time": 264.02833868333295,
                    "velocity": 0.6141732283464567,
                    "duration": 0.10227270000001454
                },
                {
                    "name": "A#5",
                    "midi": 82,
                    "time": 264.19879318333295,
                    "velocity": 0.6141732283464567,
                    "duration": 0.10227270000001454
                },
                {
                    "name": "A#5",
                    "midi": 82,
                    "time": 264.377770408333,
                    "velocity": 0.6141732283464567,
                    "duration": 0.10227270000001454
                },
                {
                    "name": "A5",
                    "midi": 81,
                    "time": 266.934587908333,
                    "velocity": 0.7480314960629921,
                    "duration": 0.10227270000001454
                },
                {
                    "name": "A5",
                    "midi": 81,
                    "time": 267.09936059166637,
                    "velocity": 0.7401574803149606,
                    "duration": 0.10227270000001454
                },
                {
                    "name": "G#5",
                    "midi": 80,
                    "time": 267.2783378166664,
                    "velocity": 0.7637795275590551,
                    "duration": 0.10227270000001454
                },
                {
                    "name": "G#5",
                    "midi": 80,
                    "time": 267.4459514083331,
                    "velocity": 0.7401574803149606,
                    "duration": 0.10227270000001454
                },
                {
                    "name": "G#5",
                    "midi": 80,
                    "time": 267.61072409166644,
                    "velocity": 0.7559055118110236,
                    "duration": 0.10227270000001454
                },
                {
                    "name": "G#5",
                    "midi": 80,
                    "time": 267.7783376833331,
                    "velocity": 0.7716535433070866,
                    "duration": 0.10227270000001454
                },
                {
                    "name": "F#5",
                    "midi": 78,
                    "time": 267.95163309166645,
                    "velocity": 0.7874015748031497,
                    "duration": 0.10227270000001454
                },
                {
                    "name": "F#5",
                    "midi": 78,
                    "time": 268.11924668333313,
                    "velocity": 0.7637795275590551,
                    "duration": 0.10227270000001454
                },
                {
                    "name": "F#5",
                    "midi": 78,
                    "time": 270.8493595916665,
                    "velocity": 0.8503937007874016,
                    "duration": 0.10227270000001454
                },
                {
                    "name": "G5",
                    "midi": 79,
                    "time": 271.01697318333316,
                    "velocity": 0.8818897637795275,
                    "duration": 0.10227270000001454
                },
                {
                    "name": "G#5",
                    "midi": 80,
                    "time": 271.19879131666653,
                    "velocity": 0.8818897637795275,
                    "duration": 0.10227270000001454
                },
                {
                    "name": "A5",
                    "midi": 81,
                    "time": 271.3635639999999,
                    "velocity": 0.8661417322834646,
                    "duration": 0.10227270000001454
                },
                {
                    "name": "A#5",
                    "midi": 82,
                    "time": 271.5368594083332,
                    "velocity": 0.8818897637795275,
                    "duration": 0.10227270000001454
                },
                {
                    "name": "B5",
                    "midi": 83,
                    "time": 271.70163209166657,
                    "velocity": 0.8740157480314961,
                    "duration": 0.10227270000001454
                },
                {
                    "name": "G5",
                    "midi": 79,
                    "time": 272.38060918333326,
                    "velocity": 0.8818897637795275,
                    "duration": 0.10227270000001454
                },
                {
                    "name": "A#5",
                    "midi": 82,
                    "time": 272.3919728166666,
                    "velocity": 0.8818897637795275,
                    "duration": 0.10227270000001454
                },
                {
                    "name": "F#5",
                    "midi": 78,
                    "time": 272.9004954083333,
                    "velocity": 0.8503937007874016,
                    "duration": 0.10227270000001454
                },
                {
                    "name": "G5",
                    "midi": 79,
                    "time": 273.07379081666664,
                    "velocity": 0.8503937007874016,
                    "duration": 0.10227270000001454
                },
                {
                    "name": "G#5",
                    "midi": 80,
                    "time": 273.2357225916667,
                    "velocity": 0.8740157480314961,
                    "duration": 0.10227270000001454
                },
                {
                    "name": "A5",
                    "midi": 81,
                    "time": 273.40333618333335,
                    "velocity": 0.8582677165354331,
                    "duration": 0.10227270000001454
                },
                {
                    "name": "A#5",
                    "midi": 82,
                    "time": 273.57379068333336,
                    "velocity": 0.8818897637795275,
                    "duration": 0.10227270000001454
                },
                {
                    "name": "B5",
                    "midi": 83,
                    "time": 273.7556088166667,
                    "velocity": 0.8503937007874016,
                    "duration": 0.10227270000001454
                },
                {
                    "name": "B5",
                    "midi": 83,
                    "time": 275.1164039083334,
                    "velocity": 0.8503937007874016,
                    "duration": 0.2727272000000198
                },
                {
                    "name": "A#5",
                    "midi": 82,
                    "time": 275.45163109166674,
                    "velocity": 0.8740157480314961,
                    "duration": 0.1363635999999815
                },
                {
                    "name": "B5",
                    "midi": 83,
                    "time": 275.62208559166675,
                    "velocity": 0.8818897637795275,
                    "duration": 0.1363635999999815
                },
                {
                    "name": "B5",
                    "midi": 83,
                    "time": 276.1306081833334,
                    "velocity": 0.8740157480314961,
                    "duration": 0.1363635999999815
                },
                {
                    "name": "A#5",
                    "midi": 82,
                    "time": 276.3010626833334,
                    "velocity": 0.8503937007874016,
                    "duration": 0.1363635999999815
                },
                {
                    "name": "B5",
                    "midi": 83,
                    "time": 276.4743580916667,
                    "velocity": 0.8740157480314961,
                    "duration": 0.1363635999999815
                },
                {
                    "name": "B5",
                    "midi": 83,
                    "time": 277.33231240833334,
                    "velocity": 0.8503937007874016,
                    "duration": 0.1363635999999815
                },
                {
                    "name": "A#5",
                    "midi": 82,
                    "time": 277.49708509166663,
                    "velocity": 0.8582677165354331,
                    "duration": 0.1363635999999815
                },
                {
                    "name": "B5",
                    "midi": 83,
                    "time": 277.67038049999996,
                    "velocity": 0.8503937007874016,
                    "duration": 0.1363635999999815
                },
                {
                    "name": "B5",
                    "midi": 83,
                    "time": 278.1789030916666,
                    "velocity": 0.8740157480314961,
                    "duration": 0.1363635999999815
                },
                {
                    "name": "A#5",
                    "midi": 82,
                    "time": 278.35219849999993,
                    "velocity": 0.8503937007874016,
                    "duration": 0.1363635999999815
                },
                {
                    "name": "B5",
                    "midi": 83,
                    "time": 278.52549390833326,
                    "velocity": 0.8740157480314961,
                    "duration": 0.1363635999999815
                },
                {
                    "name": "A#5",
                    "midi": 82,
                    "time": 278.6987893166666,
                    "velocity": 0.8503937007874016,
                    "duration": 0.1363635999999815
                },
                {
                    "name": "G#5",
                    "midi": 80,
                    "time": 278.8692438166666,
                    "velocity": 0.8818897637795275,
                    "duration": 0.2727272000000198
                },
                {
                    "name": "B5",
                    "midi": 83,
                    "time": 279.1987891833333,
                    "velocity": 0.8503937007874016,
                    "duration": 0.2727272000000198
                },
                {
                    "name": "A#5",
                    "midi": 82,
                    "time": 279.54253909166664,
                    "velocity": 0.8661417322834646,
                    "duration": 0.1363635999999815
                },
                {
                    "name": "B5",
                    "midi": 83,
                    "time": 279.71015268333326,
                    "velocity": 0.8818897637795275,
                    "duration": 0.1363635999999815
                },
                {
                    "name": "B5",
                    "midi": 83,
                    "time": 280.22719799999993,
                    "velocity": 0.8661417322834646,
                    "duration": 0.1363635999999815
                },
                {
                    "name": "A#5",
                    "midi": 82,
                    "time": 280.40049340833326,
                    "velocity": 0.8818897637795275,
                    "duration": 0.1363635999999815
                },
                {
                    "name": "B5",
                    "midi": 83,
                    "time": 280.56526609166656,
                    "velocity": 0.8818897637795275,
                    "duration": 0.1363635999999815
                },
                {
                    "name": "B5",
                    "midi": 83,
                    "time": 281.42037949999985,
                    "velocity": 0.8582677165354331,
                    "duration": 0.1363635999999815
                },
                {
                    "name": "A#5",
                    "midi": 82,
                    "time": 281.58515218333315,
                    "velocity": 0.8818897637795275,
                    "duration": 0.1363635999999815
                },
                {
                    "name": "B5",
                    "midi": 83,
                    "time": 281.7612884999998,
                    "velocity": 0.8818897637795275,
                    "duration": 0.1363635999999815
                },
                {
                    "name": "B5",
                    "midi": 83,
                    "time": 282.27265199999977,
                    "velocity": 0.8740157480314961,
                    "duration": 0.1363635999999815
                },
                {
                    "name": "A#5",
                    "midi": 82,
                    "time": 282.4487883166664,
                    "velocity": 0.8582677165354331,
                    "duration": 0.1363635999999815
                },
                {
                    "name": "B5",
                    "midi": 83,
                    "time": 282.6107200916664,
                    "velocity": 0.8818897637795275,
                    "duration": 0.1363635999999815
                },
                {
                    "name": "A#5",
                    "midi": 82,
                    "time": 282.7840154999997,
                    "velocity": 0.8661417322834646,
                    "duration": 0.1363635999999815
                },
                {
                    "name": "G#5",
                    "midi": 80,
                    "time": 282.95446999999973,
                    "velocity": 0.8582677165354331,
                    "duration": 0.2727272000000198
                },
                {
                    "name": "A#5",
                    "midi": 82,
                    "time": 285.3465148166664,
                    "velocity": 0.8740157480314961,
                    "duration": 0.2727272000000198
                },
                {
                    "name": "A#5",
                    "midi": 82,
                    "time": 287.3834460916664,
                    "velocity": 0.8503937007874016,
                    "duration": 0.2727272000000198
                },
                {
                    "name": "G#5",
                    "midi": 80,
                    "time": 288.40333218333313,
                    "velocity": 0.8661417322834646,
                    "duration": 0.2727272000000198
                },
                {
                    "name": "B5",
                    "midi": 83,
                    "time": 289.4289000916665,
                    "velocity": 0.8818897637795275,
                    "duration": 0.2727272000000198
                },
                {
                    "name": "G#5",
                    "midi": 80,
                    "time": 291.8237858166665,
                    "velocity": 0.7637795275590551,
                    "duration": 0.2727272000000198
                },
                {
                    "name": "G#5",
                    "midi": 80,
                    "time": 294.88060318333316,
                    "velocity": 0.8503937007874016,
                    "duration": 1.6363632000000052
                },
                {
                    "name": "B5",
                    "midi": 83,
                    "time": 294.8834440916665,
                    "velocity": 0.8740157480314961,
                    "duration": 1.6363632000000052
                }
            ],
            "controlChanges": {
                "7": [
                    {
                        "number": 7,
                        "time": 0,
                        "value": 0.952755905511811
                    }
                ],
                "10": [
                    {
                        "number": 10,
                        "time": 0,
                        "value": 0.5669291338582677
                    },
                    {
                        "number": 10,
                        "time": 294.8862849999998,
                        "value": 0.5039370078740157
                    }
                ],
                "91": [
                    {
                        "number": 91,
                        "time": 0,
                        "value": 0
                    },
                    {
                        "number": 91,
                        "time": 0,
                        "value": 0.12598425196850394
                    },
                    {
                        "number": 91,
                        "time": 294.8862849999998,
                        "value": 0
                    }
                ],
                "93": [
                    {
                        "number": 93,
                        "time": 0,
                        "value": 0.11023622047244094
                    }
                ],
                "121": [
                    {
                        "number": 121,
                        "time": 0,
                        "value": 0
                    }
                ]
            },
            "id": 4,
            "instrumentNumber": 0,
            "instrument": "acoustic grand piano",
            "instrumentFamily": "piano",
            "channelNumber": 12,
            "isPercussion": false
        },
        {
            "startTime": 0.34659081666666663,
            "duration": 292.0965130166655,
            "length": 472,
            "notes": [
                {
                    "name": "D#5",
                    "midi": 75,
                    "time": 0.34659081666666663,
                    "velocity": 0.5590551181102362,
                    "duration": 0.25568175
                },
                {
                    "name": "D#5",
                    "midi": 75,
                    "time": 0.6789770916666666,
                    "velocity": 0.5590551181102362,
                    "duration": 0.25568174999999993
                },
                {
                    "name": "D#5",
                    "midi": 75,
                    "time": 1.022727,
                    "velocity": 0.5354330708661418,
                    "duration": 0.25568174999999993
                },
                {
                    "name": "D#5",
                    "midi": 75,
                    "time": 2.392044816666666,
                    "velocity": 0.5511811023622047,
                    "duration": 0.25568174999999993
                },
                {
                    "name": "D#5",
                    "midi": 75,
                    "time": 2.724431091666666,
                    "velocity": 0.5511811023622047,
                    "duration": 0.25568174999999993
                },
                {
                    "name": "D#5",
                    "midi": 75,
                    "time": 3.068180999999999,
                    "velocity": 0.5433070866141733,
                    "duration": 0.25568174999999993
                },
                {
                    "name": "D#5",
                    "midi": 75,
                    "time": 4.428976091666666,
                    "velocity": 0.5433070866141733,
                    "duration": 0.25568174999999993
                },
                {
                    "name": "D#5",
                    "midi": 75,
                    "time": 5.460225816666665,
                    "velocity": 0.5354330708661418,
                    "duration": 0.25568174999999993
                },
                {
                    "name": "D#5",
                    "midi": 75,
                    "time": 7.499997999999998,
                    "velocity": 0.6141732283464567,
                    "duration": 0.25568174999999993
                },
                {
                    "name": "D#5",
                    "midi": 75,
                    "time": 9.96590643333333,
                    "velocity": 0.5669291338582677,
                    "duration": 0.2556817500000008
                },
                {
                    "name": "D#5",
                    "midi": 75,
                    "time": 11.252837908333332,
                    "velocity": 0.6377952755905512,
                    "duration": 0.2556817500000008
                },
                {
                    "name": "D#5",
                    "midi": 75,
                    "time": 11.590905999999999,
                    "velocity": 0.6456692913385826,
                    "duration": 0.2556817500000008
                },
                {
                    "name": "E5",
                    "midi": 76,
                    "time": 11.937496816666666,
                    "velocity": 0.6299212598425197,
                    "duration": 0.2556817500000008
                },
                {
                    "name": "D#5",
                    "midi": 75,
                    "time": 12.269883091666667,
                    "velocity": 0.6456692913385826,
                    "duration": 0.2556817500000008
                },
                {
                    "name": "C#5",
                    "midi": 73,
                    "time": 12.607951183333334,
                    "velocity": 0.6141732283464567,
                    "duration": 0.2556817500000008
                },
                {
                    "name": "D#5",
                    "midi": 75,
                    "time": 15.505677683333335,
                    "velocity": 0.6377952755905512,
                    "duration": 0.1278408750000004
                },
                {
                    "name": "D#5",
                    "midi": 75,
                    "time": 15.684654908333336,
                    "velocity": 0.6299212598425197,
                    "duration": 0.1278408750000004
                },
                {
                    "name": "D#5",
                    "midi": 75,
                    "time": 18.15056334166667,
                    "velocity": 0.5433070866141733,
                    "duration": 0.2556817500000008
                },
                {
                    "name": "D#5",
                    "midi": 75,
                    "time": 19.42897209166667,
                    "velocity": 0.6377952755905512,
                    "duration": 0.2556817500000008
                },
                {
                    "name": "D#5",
                    "midi": 75,
                    "time": 19.772722,
                    "velocity": 0.6141732283464567,
                    "duration": 0.2556817500000008
                },
                {
                    "name": "E5",
                    "midi": 76,
                    "time": 20.119312816666667,
                    "velocity": 0.6141732283464567,
                    "duration": 0.2556817500000008
                },
                {
                    "name": "D#5",
                    "midi": 75,
                    "time": 20.457380908333334,
                    "velocity": 0.6377952755905512,
                    "duration": 0.2556817500000008
                },
                {
                    "name": "D#5",
                    "midi": 75,
                    "time": 20.789767183333336,
                    "velocity": 0.6299212598425197,
                    "duration": 0.2556817500000008
                },
                {
                    "name": "C#5",
                    "midi": 73,
                    "time": 20.795449,
                    "velocity": 0.6220472440944882,
                    "duration": 0.1278408750000004
                },
                {
                    "name": "D#5",
                    "midi": 75,
                    "time": 21.14203981666667,
                    "velocity": 0.6220472440944882,
                    "duration": 0.2556817500000008
                },
                {
                    "name": "D#5",
                    "midi": 75,
                    "time": 22.161925908333338,
                    "velocity": 0.6141732283464567,
                    "duration": 0.2556817500000008
                },
                {
                    "name": "C#5",
                    "midi": 73,
                    "time": 22.16476681666667,
                    "velocity": 0.5590551181102362,
                    "duration": 0.2556817500000008
                },
                {
                    "name": "D#5",
                    "midi": 75,
                    "time": 23.863630000000004,
                    "velocity": 0.6299212598425197,
                    "duration": 0.10227270000000033
                },
                {
                    "name": "D#5",
                    "midi": 75,
                    "time": 27.61931081666667,
                    "velocity": 0.6456692913385826,
                    "duration": 0.2556817500000008
                },
                {
                    "name": "D#5",
                    "midi": 75,
                    "time": 27.954538000000003,
                    "velocity": 0.6220472440944882,
                    "duration": 0.2556817500000008
                },
                {
                    "name": "F5",
                    "midi": 77,
                    "time": 28.261356100000004,
                    "velocity": 0.6299212598425197,
                    "duration": 0.051136350000000164
                },
                {
                    "name": "E5",
                    "midi": 76,
                    "time": 28.289765183333337,
                    "velocity": 0.6299212598425197,
                    "duration": 0.2556817500000008
                },
                {
                    "name": "D#5",
                    "midi": 75,
                    "time": 28.63919690833334,
                    "velocity": 0.6141732283464567,
                    "duration": 0.2556817500000008
                },
                {
                    "name": "C#5",
                    "midi": 73,
                    "time": 28.982946816666672,
                    "velocity": 0.6456692913385826,
                    "duration": 0.2556817500000008
                },
                {
                    "name": "C#5",
                    "midi": 73,
                    "time": 29.281242191666674,
                    "velocity": 0.6220472440944882,
                    "duration": 0.034090899999998925
                },
                {
                    "name": "D#5",
                    "midi": 75,
                    "time": 31.874991500000007,
                    "velocity": 0.6456692913385826,
                    "duration": 0.10227270000000033
                },
                {
                    "name": "D#5",
                    "midi": 75,
                    "time": 32.05112781666667,
                    "velocity": 0.6141732283464567,
                    "duration": 0.10227270000000033
                },
                {
                    "name": "D#5",
                    "midi": 75,
                    "time": 35.792604091666675,
                    "velocity": 0.6377952755905512,
                    "duration": 0.2556817500000008
                },
                {
                    "name": "D#5",
                    "midi": 75,
                    "time": 36.13351309166668,
                    "velocity": 0.6456692913385826,
                    "duration": 0.2556817500000008
                },
                {
                    "name": "E5",
                    "midi": 76,
                    "time": 36.47442209166668,
                    "velocity": 0.6377952755905512,
                    "duration": 0.2556817500000008
                },
                {
                    "name": "D#5",
                    "midi": 75,
                    "time": 36.823853816666684,
                    "velocity": 0.6456692913385826,
                    "duration": 0.2556817500000008
                },
                {
                    "name": "C#5",
                    "midi": 73,
                    "time": 37.16476281666669,
                    "velocity": 0.6456692913385826,
                    "duration": 0.2556817500000008
                },
                {
                    "name": "D#5",
                    "midi": 75,
                    "time": 37.50283090833336,
                    "velocity": 0.6141732283464567,
                    "duration": 0.2556817500000008
                },
                {
                    "name": "D#5",
                    "midi": 75,
                    "time": 38.519876091666696,
                    "velocity": 0.6456692913385826,
                    "duration": 0.2556817500000008
                },
                {
                    "name": "D#5",
                    "midi": 75,
                    "time": 40.2329438166667,
                    "velocity": 0.6377952755905512,
                    "duration": 0.10227270000000033
                },
                {
                    "name": "C#5",
                    "midi": 73,
                    "time": 43.63635200000003,
                    "velocity": 0.6377952755905512,
                    "duration": 0.07386361666666375
                },
                {
                    "name": "D#5",
                    "midi": 75,
                    "time": 44.66476081666669,
                    "velocity": 0.6299212598425197,
                    "duration": 0.07386361666666375
                },
                {
                    "name": "C#5",
                    "midi": 73,
                    "time": 44.747147158333355,
                    "velocity": 0.6220472440944882,
                    "duration": 0.07386361666666375
                },
                {
                    "name": "C5",
                    "midi": 72,
                    "time": 44.82953350000002,
                    "velocity": 0.6377952755905512,
                    "duration": 0.07386361666666375
                },
                {
                    "name": "C#5",
                    "midi": 73,
                    "time": 44.90907893333335,
                    "velocity": 0.6141732283464567,
                    "duration": 0.07386361666666375
                },
                {
                    "name": "C#5",
                    "midi": 73,
                    "time": 45.343737908333345,
                    "velocity": 0.6299212598425197,
                    "duration": 0.12784087499999686
                },
                {
                    "name": "E5",
                    "midi": 76,
                    "time": 45.68180600000001,
                    "velocity": 0.6220472440944882,
                    "duration": 0.07386361666666375
                },
                {
                    "name": "D#5",
                    "midi": 75,
                    "time": 45.76135143333334,
                    "velocity": 0.6141732283464567,
                    "duration": 0.07386361666666375
                },
                {
                    "name": "D5",
                    "midi": 74,
                    "time": 45.84941959166667,
                    "velocity": 0.6141732283464567,
                    "duration": 0.07386361666666375
                },
                {
                    "name": "D#5",
                    "midi": 75,
                    "time": 45.93464684166666,
                    "velocity": 0.6299212598425197,
                    "duration": 0.07386361666666375
                },
                {
                    "name": "D#5",
                    "midi": 75,
                    "time": 46.36930581666666,
                    "velocity": 0.6299212598425197,
                    "duration": 0.12784087499999686
                },
                {
                    "name": "D5",
                    "midi": 74,
                    "time": 46.536919408333326,
                    "velocity": 0.6141732283464567,
                    "duration": 0.12784087499999686
                },
                {
                    "name": "D#5",
                    "midi": 75,
                    "time": 46.70453299999999,
                    "velocity": 0.6299212598425197,
                    "duration": 0.12784087499999686
                },
                {
                    "name": "C#5",
                    "midi": 73,
                    "time": 46.872146591666656,
                    "velocity": 0.6299212598425197,
                    "duration": 0.12784087499999686
                },
                {
                    "name": "D#5",
                    "midi": 75,
                    "time": 47.04828290833332,
                    "velocity": 0.6377952755905512,
                    "duration": 0.12784087499999686
                },
                {
                    "name": "C5",
                    "midi": 72,
                    "time": 47.215896499999985,
                    "velocity": 0.6377952755905512,
                    "duration": 0.12784087499999686
                },
                {
                    "name": "D#5",
                    "midi": 75,
                    "time": 47.38066918333332,
                    "velocity": 0.6377952755905512,
                    "duration": 0.12784087499999686
                },
                {
                    "name": "F5",
                    "midi": 77,
                    "time": 47.72441909166665,
                    "velocity": 0.6456692913385826,
                    "duration": 0.07386361666666375
                },
                {
                    "name": "D#5",
                    "midi": 75,
                    "time": 47.81532815833331,
                    "velocity": 0.6141732283464567,
                    "duration": 0.07386361666666375
                },
                {
                    "name": "D5",
                    "midi": 74,
                    "time": 47.90339631666664,
                    "velocity": 0.6377952755905512,
                    "duration": 0.07386361666666375
                },
                {
                    "name": "D#5",
                    "midi": 75,
                    "time": 47.98862356666663,
                    "velocity": 0.6456692913385826,
                    "duration": 0.07386361666666375
                },
                {
                    "name": "D#5",
                    "midi": 75,
                    "time": 48.4119189083333,
                    "velocity": 0.6377952755905512,
                    "duration": 0.12784087499999686
                },
                {
                    "name": "F5",
                    "midi": 77,
                    "time": 48.84089606666663,
                    "velocity": 0.6377952755905512,
                    "duration": 0.07386361666666375
                },
                {
                    "name": "E5",
                    "midi": 76,
                    "time": 48.91760059166663,
                    "velocity": 0.6299212598425197,
                    "duration": 0.07386361666666375
                },
                {
                    "name": "F5",
                    "midi": 77,
                    "time": 49.00282784166662,
                    "velocity": 0.6377952755905512,
                    "duration": 0.07386361666666375
                },
                {
                    "name": "F5",
                    "midi": 77,
                    "time": 49.43464590833329,
                    "velocity": 0.6141732283464567,
                    "duration": 0.12784087499999686
                },
                {
                    "name": "F5",
                    "midi": 77,
                    "time": 49.948850316666615,
                    "velocity": 0.6141732283464567,
                    "duration": 0.07386361666666375
                },
                {
                    "name": "D#5",
                    "midi": 75,
                    "time": 50.11646390833328,
                    "velocity": 0.6456692913385826,
                    "duration": 0.12784087499999686
                },
                {
                    "name": "F5",
                    "midi": 77,
                    "time": 50.62498649999994,
                    "velocity": 0.6141732283464567,
                    "duration": 0.12784087499999686
                },
                {
                    "name": "D5",
                    "midi": 74,
                    "time": 50.63066831666661,
                    "velocity": 0.6299212598425197,
                    "duration": 0.12784087499999686
                },
                {
                    "name": "C#5",
                    "midi": 73,
                    "time": 50.963054591666605,
                    "velocity": 0.6220472440944882,
                    "duration": 0.12784087499999686
                },
                {
                    "name": "E5",
                    "midi": 76,
                    "time": 50.971577316666604,
                    "velocity": 0.6299212598425197,
                    "duration": 0.12784087499999686
                },
                {
                    "name": "C5",
                    "midi": 72,
                    "time": 51.30964540833327,
                    "velocity": 0.6141732283464567,
                    "duration": 0.12784087499999686
                },
                {
                    "name": "D#5",
                    "midi": 75,
                    "time": 51.3124863166666,
                    "velocity": 0.6377952755905512,
                    "duration": 0.12784087499999686
                },
                {
                    "name": "D5",
                    "midi": 74,
                    "time": 51.6533953166666,
                    "velocity": 0.6220472440944882,
                    "duration": 0.12784087499999686
                },
                {
                    "name": "F5",
                    "midi": 77,
                    "time": 51.99430431666659,
                    "velocity": 0.6220472440944882,
                    "duration": 0.07386361666666375
                },
                {
                    "name": "C#5",
                    "midi": 73,
                    "time": 52.16475881666659,
                    "velocity": 0.6299212598425197,
                    "duration": 0.12784087499999686
                },
                {
                    "name": "C#5",
                    "midi": 73,
                    "time": 52.494304183333256,
                    "velocity": 0.5433070866141733,
                    "duration": 0.2727271999999985
                },
                {
                    "name": "C#5",
                    "midi": 73,
                    "time": 53.18180399999992,
                    "velocity": 0.6377952755905512,
                    "duration": 0.12784087499999686
                },
                {
                    "name": "C#5",
                    "midi": 73,
                    "time": 53.519872091666585,
                    "velocity": 0.5669291338582677,
                    "duration": 0.2727271999999985
                },
                {
                    "name": "C#5",
                    "midi": 73,
                    "time": 55.05396259166658,
                    "velocity": 0.5433070866141733,
                    "duration": 0.1363636000000028
                },
                {
                    "name": "D#5",
                    "midi": 75,
                    "time": 55.26987162499992,
                    "velocity": 0.5669291338582677,
                    "duration": 0.2727271999999985
                },
                {
                    "name": "C#5",
                    "midi": 73,
                    "time": 55.56816699999992,
                    "velocity": 0.5433070866141733,
                    "duration": 0.1363636000000028
                },
                {
                    "name": "C#5",
                    "midi": 73,
                    "time": 56.28691680833325,
                    "velocity": 0.5511811023622047,
                    "duration": 0.2727271999999985
                },
                {
                    "name": "F5",
                    "midi": 77,
                    "time": 56.928962091666584,
                    "velocity": 0.6377952755905512,
                    "duration": 0.1363636000000028
                },
                {
                    "name": "D#5",
                    "midi": 75,
                    "time": 57.61646190833326,
                    "velocity": 0.6220472440944882,
                    "duration": 0.1363636000000028
                },
                {
                    "name": "E5",
                    "midi": 76,
                    "time": 57.778393683333256,
                    "velocity": 0.6456692913385826,
                    "duration": 0.1363636000000028
                },
                {
                    "name": "E5",
                    "midi": 76,
                    "time": 60.170438499999925,
                    "velocity": 0.6377952755905512,
                    "duration": 0.1363636000000028
                },
                {
                    "name": "D#5",
                    "midi": 75,
                    "time": 60.335211183333264,
                    "velocity": 0.5669291338582677,
                    "duration": 0.2727271999999985
                },
                {
                    "name": "C#5",
                    "midi": 73,
                    "time": 60.68180199999993,
                    "velocity": 0.5511811023622047,
                    "duration": 0.2727271999999985
                },
                {
                    "name": "C5",
                    "midi": 72,
                    "time": 61.07100644166659,
                    "velocity": 0.5354330708661418,
                    "duration": 0.2727271999999985
                },
                {
                    "name": "C5",
                    "midi": 72,
                    "time": 61.70452899999992,
                    "velocity": 0.5669291338582677,
                    "duration": 0.2727271999999985
                },
                {
                    "name": "C#5",
                    "midi": 73,
                    "time": 62.051119816666585,
                    "velocity": 0.5354330708661418,
                    "duration": 0.2727271999999985
                },
                {
                    "name": "E5",
                    "midi": 76,
                    "time": 62.38350609166658,
                    "velocity": 0.5433070866141733,
                    "duration": 0.2727271999999985
                },
                {
                    "name": "E5",
                    "midi": 76,
                    "time": 63.923278408333246,
                    "velocity": 0.6220472440944882,
                    "duration": 0.1363635999999957
                },
                {
                    "name": "D#5",
                    "midi": 75,
                    "time": 64.26702831666657,
                    "velocity": 0.6220472440944882,
                    "duration": 0.1363635999999957
                },
                {
                    "name": "C#5",
                    "midi": 73,
                    "time": 64.43748281666656,
                    "velocity": 0.5433070866141733,
                    "duration": 0.2727272000000056
                },
                {
                    "name": "D#5",
                    "midi": 75,
                    "time": 66.48009590833323,
                    "velocity": 0.5354330708661418,
                    "duration": 0.2727272000000056
                },
                {
                    "name": "D5",
                    "midi": 74,
                    "time": 66.98577759166656,
                    "velocity": 0.5590551181102362,
                    "duration": 0.1363635999999957
                },
                {
                    "name": "D#5",
                    "midi": 75,
                    "time": 67.32952749999988,
                    "velocity": 0.6377952755905512,
                    "duration": 0.1363635999999957
                },
                {
                    "name": "D#5",
                    "midi": 75,
                    "time": 67.6732774083332,
                    "velocity": 0.6299212598425197,
                    "duration": 0.1363635999999957
                },
                {
                    "name": "D5",
                    "midi": 74,
                    "time": 68.01702731666653,
                    "velocity": 0.6299212598425197,
                    "duration": 0.1363635999999957
                },
                {
                    "name": "C#5",
                    "midi": 73,
                    "time": 68.34941359166652,
                    "velocity": 0.6299212598425197,
                    "duration": 0.1363635999999957
                },
                {
                    "name": "C#5",
                    "midi": 73,
                    "time": 68.69316349999984,
                    "velocity": 0.6220472440944882,
                    "duration": 0.1363635999999957
                },
                {
                    "name": "E5",
                    "midi": 76,
                    "time": 69.20736790833317,
                    "velocity": 0.6299212598425197,
                    "duration": 0.1363635999999957
                },
                {
                    "name": "C#5",
                    "midi": 73,
                    "time": 69.5425950916665,
                    "velocity": 0.6299212598425197,
                    "duration": 0.1363635999999957
                },
                {
                    "name": "E5",
                    "midi": 76,
                    "time": 69.71020868333316,
                    "velocity": 0.6456692913385826,
                    "duration": 0.1363635999999957
                },
                {
                    "name": "F5",
                    "midi": 77,
                    "time": 70.05964040833317,
                    "velocity": 0.6456692913385826,
                    "duration": 0.1363635999999957
                },
                {
                    "name": "C#5",
                    "midi": 73,
                    "time": 70.22157218333317,
                    "velocity": 0.6377952755905512,
                    "duration": 0.1363635999999957
                },
                {
                    "name": "D#5",
                    "midi": 75,
                    "time": 70.40339031666649,
                    "velocity": 0.6377952755905512,
                    "duration": 0.1363635999999957
                },
                {
                    "name": "D#5",
                    "midi": 75,
                    "time": 70.73861749999982,
                    "velocity": 0.6220472440944882,
                    "duration": 0.1363635999999957
                },
                {
                    "name": "D5",
                    "midi": 74,
                    "time": 70.90623109166648,
                    "velocity": 0.5354330708661418,
                    "duration": 0.1363635999999957
                },
                {
                    "name": "D#5",
                    "midi": 75,
                    "time": 71.24714009166648,
                    "velocity": 0.6299212598425197,
                    "duration": 0.1363635999999957
                },
                {
                    "name": "D#5",
                    "midi": 75,
                    "time": 71.59657181666648,
                    "velocity": 0.5511811023622047,
                    "duration": 0.2727272000000056
                },
                {
                    "name": "F5",
                    "midi": 77,
                    "time": 71.92895809166649,
                    "velocity": 0.5669291338582677,
                    "duration": 0.2727272000000056
                },
                {
                    "name": "C#5",
                    "midi": 73,
                    "time": 73.29259409166649,
                    "velocity": 0.5433070866141733,
                    "duration": 0.2727272000000056
                },
                {
                    "name": "C#5",
                    "midi": 73,
                    "time": 73.97157118333315,
                    "velocity": 0.5433070866141733,
                    "duration": 0.2727271999999914
                },
                {
                    "name": "F5",
                    "midi": 77,
                    "time": 73.98293481666649,
                    "velocity": 0.5590551181102362,
                    "duration": 0.2727271999999914
                },
                {
                    "name": "D#5",
                    "midi": 75,
                    "time": 74.32384381666648,
                    "velocity": 0.5590551181102362,
                    "duration": 0.2727272000000056
                },
                {
                    "name": "D5",
                    "midi": 74,
                    "time": 74.65623009166649,
                    "velocity": 0.5433070866141733,
                    "duration": 0.1363635999999957
                },
                {
                    "name": "D#5",
                    "midi": 75,
                    "time": 74.99713909166648,
                    "velocity": 0.5511811023622047,
                    "duration": 0.1363635999999957
                },
                {
                    "name": "D#5",
                    "midi": 75,
                    "time": 75.68179799999982,
                    "velocity": 0.5748031496062992,
                    "duration": 0.1363635999999957
                },
                {
                    "name": "E5",
                    "midi": 76,
                    "time": 76.01702518333315,
                    "velocity": 0.5590551181102362,
                    "duration": 0.1363635999999957
                },
                {
                    "name": "E5",
                    "midi": 76,
                    "time": 76.70736590833314,
                    "velocity": 0.5590551181102362,
                    "duration": 0.1363635999999957
                },
                {
                    "name": "F5",
                    "midi": 77,
                    "time": 77.04259309166648,
                    "velocity": 0.5905511811023622,
                    "duration": 0.1363635999999957
                },
                {
                    "name": "D#5",
                    "midi": 75,
                    "time": 83.86077309166647,
                    "velocity": 0.6535433070866141,
                    "duration": 0.1363635999999957
                },
                {
                    "name": "D#5",
                    "midi": 75,
                    "time": 84.53975018333314,
                    "velocity": 0.6456692913385826,
                    "duration": 0.1363635999999957
                },
                {
                    "name": "D#5",
                    "midi": 75,
                    "time": 85.22440909166647,
                    "velocity": 0.6456692913385826,
                    "duration": 0.1363635999999957
                },
                {
                    "name": "D#5",
                    "midi": 75,
                    "time": 85.56531809166647,
                    "velocity": 0.4645669291338583,
                    "duration": 0.2727272000000056
                },
                {
                    "name": "D#5",
                    "midi": 75,
                    "time": 85.90338618333314,
                    "velocity": 0.4330708661417323,
                    "duration": 0.1477272333333275
                },
                {
                    "name": "D#5",
                    "midi": 75,
                    "time": 85.91474981666647,
                    "velocity": 0.5275590551181102,
                    "duration": 0.2613635666666596
                },
                {
                    "name": "C#5",
                    "midi": 73,
                    "time": 86.2499769999998,
                    "velocity": 0.4409448818897638,
                    "duration": 0.2727272000000056
                },
                {
                    "name": "D#5",
                    "midi": 75,
                    "time": 86.58804509166647,
                    "velocity": 0.5275590551181102,
                    "duration": 0.1363635999999957
                },
                {
                    "name": "D#5",
                    "midi": 75,
                    "time": 87.27554490833313,
                    "velocity": 0.5196850393700787,
                    "duration": 0.1363635999999957
                },
                {
                    "name": "D#5",
                    "midi": 75,
                    "time": 87.96020381666646,
                    "velocity": 0.5275590551181102,
                    "duration": 0.1363635999999957
                },
                {
                    "name": "D#5",
                    "midi": 75,
                    "time": 88.64202181666646,
                    "velocity": 0.5275590551181102,
                    "duration": 0.1363635999999957
                },
                {
                    "name": "D#5",
                    "midi": 75,
                    "time": 89.31247618333312,
                    "velocity": 0.5118110236220472,
                    "duration": 0.1363635999999957
                },
                {
                    "name": "D#5",
                    "midi": 75,
                    "time": 89.99997599999978,
                    "velocity": 0.5196850393700787,
                    "duration": 0.1363635999999957
                },
                {
                    "name": "D#5",
                    "midi": 75,
                    "time": 90.68179399999977,
                    "velocity": 0.5196850393700787,
                    "duration": 0.1363635999999957
                },
                {
                    "name": "D#5",
                    "midi": 75,
                    "time": 91.36077109166644,
                    "velocity": 0.5118110236220472,
                    "duration": 0.1363635999999957
                },
                {
                    "name": "D#5",
                    "midi": 75,
                    "time": 92.0397481833331,
                    "velocity": 0.5118110236220472,
                    "duration": 0.1363635999999957
                },
                {
                    "name": "D#5",
                    "midi": 75,
                    "time": 92.72440709166644,
                    "velocity": 0.5118110236220472,
                    "duration": 0.1363635999999957
                },
                {
                    "name": "D#5",
                    "midi": 75,
                    "time": 93.40906599999977,
                    "velocity": 0.49606299212598426,
                    "duration": 0.1363635999999957
                },
                {
                    "name": "D#5",
                    "midi": 75,
                    "time": 94.08804309166644,
                    "velocity": 0.4645669291338583,
                    "duration": 0.14488632500000165
                },
                {
                    "name": "D#5",
                    "midi": 75,
                    "time": 94.09656581666644,
                    "velocity": 0.5196850393700787,
                    "duration": 0.26420447499999966
                },
                {
                    "name": "C#5",
                    "midi": 73,
                    "time": 94.4261111833331,
                    "velocity": 0.4566929133858268,
                    "duration": 0.2727272000000056
                },
                {
                    "name": "D#5",
                    "midi": 75,
                    "time": 94.77554290833311,
                    "velocity": 0.5039370078740157,
                    "duration": 0.1363635999999957
                },
                {
                    "name": "D#5",
                    "midi": 75,
                    "time": 95.45451999999977,
                    "velocity": 0.5196850393700787,
                    "duration": 0.1363635999999957
                },
                {
                    "name": "D#5",
                    "midi": 75,
                    "time": 96.13349709166644,
                    "velocity": 0.5196850393700787,
                    "duration": 0.1363635999999957
                },
                {
                    "name": "D#5",
                    "midi": 75,
                    "time": 96.81531509166643,
                    "velocity": 0.49606299212598426,
                    "duration": 0.1363635999999957
                },
                {
                    "name": "D#5",
                    "midi": 75,
                    "time": 97.5028149083331,
                    "velocity": 0.5275590551181102,
                    "duration": 0.1363635999999957
                },
                {
                    "name": "E5",
                    "midi": 76,
                    "time": 97.84656481666642,
                    "velocity": 0.5196850393700787,
                    "duration": 0.1363635999999957
                },
                {
                    "name": "D#5",
                    "midi": 75,
                    "time": 98.18747381666641,
                    "velocity": 0.5275590551181102,
                    "duration": 0.1363635999999957
                },
                {
                    "name": "C#5",
                    "midi": 73,
                    "time": 98.51701918333308,
                    "velocity": 0.5039370078740157,
                    "duration": 0.1363635999999957
                },
                {
                    "name": "D#5",
                    "midi": 75,
                    "time": 98.85792818333307,
                    "velocity": 0.5196850393700787,
                    "duration": 0.1363635999999957
                },
                {
                    "name": "C#5",
                    "midi": 73,
                    "time": 99.88065518333306,
                    "velocity": 0.44881889763779526,
                    "duration": 0.2727272000000056
                },
                {
                    "name": "D#5",
                    "midi": 75,
                    "time": 99.8834960916664,
                    "velocity": 0.5196850393700787,
                    "duration": 0.1363635999999957
                },
                {
                    "name": "D#5",
                    "midi": 75,
                    "time": 101.58520018333307,
                    "velocity": 0.6456692913385826,
                    "duration": 0.09090906666666854
                },
                {
                    "name": "D#5",
                    "midi": 75,
                    "time": 105.3380400916664,
                    "velocity": 0.6141732283464567,
                    "duration": 0.09090906666666854
                },
                {
                    "name": "D#5",
                    "midi": 75,
                    "time": 105.4488355166664,
                    "velocity": 0.6141732283464567,
                    "duration": 0.09090906666666854
                },
                {
                    "name": "D#5",
                    "midi": 75,
                    "time": 105.68463090833308,
                    "velocity": 0.6377952755905512,
                    "duration": 0.09090906666666854
                },
                {
                    "name": "D#5",
                    "midi": 75,
                    "time": 105.79826724166641,
                    "velocity": 0.6377952755905512,
                    "duration": 0.09090906666666854
                },
                {
                    "name": "E5",
                    "midi": 76,
                    "time": 106.02269899999975,
                    "velocity": 0.6456692913385826,
                    "duration": 0.09090906666666854
                },
                {
                    "name": "E5",
                    "midi": 76,
                    "time": 106.13349442499975,
                    "velocity": 0.6299212598425197,
                    "duration": 0.09090906666666854
                },
                {
                    "name": "D#5",
                    "midi": 75,
                    "time": 106.36076709166642,
                    "velocity": 0.6220472440944882,
                    "duration": 0.09090906666666854
                },
                {
                    "name": "D#5",
                    "midi": 75,
                    "time": 106.47156251666642,
                    "velocity": 0.6377952755905512,
                    "duration": 0.09090906666666854
                },
                {
                    "name": "C#5",
                    "midi": 73,
                    "time": 106.70167609166643,
                    "velocity": 0.6299212598425197,
                    "duration": 0.09090906666666854
                },
                {
                    "name": "C#5",
                    "midi": 73,
                    "time": 106.8181533333331,
                    "velocity": 0.6220472440944882,
                    "duration": 0.09090906666666854
                },
                {
                    "name": "D#5",
                    "midi": 75,
                    "time": 109.65337984999977,
                    "velocity": 0.6456692913385826,
                    "duration": 0.09090906666666854
                },
                {
                    "name": "D#5",
                    "midi": 75,
                    "time": 109.7670161833331,
                    "velocity": 0.6141732283464567,
                    "duration": 0.09090906666666854
                },
                {
                    "name": "D#5",
                    "midi": 75,
                    "time": 109.88065251666643,
                    "velocity": 0.6299212598425197,
                    "duration": 0.09090906666666854
                },
                {
                    "name": "D#5",
                    "midi": 75,
                    "time": 109.99997066666643,
                    "velocity": 0.6141732283464567,
                    "duration": 0.09090906666666854
                },
                {
                    "name": "D#5",
                    "midi": 75,
                    "time": 113.5170151833331,
                    "velocity": 0.6220472440944882,
                    "duration": 0.09090906666666854
                },
                {
                    "name": "D#5",
                    "midi": 75,
                    "time": 113.63065151666643,
                    "velocity": 0.6299212598425197,
                    "duration": 0.09090906666666854
                },
                {
                    "name": "D#5",
                    "midi": 75,
                    "time": 113.86076509166644,
                    "velocity": 0.6377952755905512,
                    "duration": 0.09090906666666854
                },
                {
                    "name": "D#5",
                    "midi": 75,
                    "time": 113.97440142499977,
                    "velocity": 0.6141732283464567,
                    "duration": 0.09090906666666854
                },
                {
                    "name": "E5",
                    "midi": 76,
                    "time": 114.19883318333311,
                    "velocity": 0.6377952755905512,
                    "duration": 0.09090906666666854
                },
                {
                    "name": "E5",
                    "midi": 76,
                    "time": 114.32383314999977,
                    "velocity": 0.6456692913385826,
                    "duration": 0.09090906666666854
                },
                {
                    "name": "D#5",
                    "midi": 75,
                    "time": 114.55110581666644,
                    "velocity": 0.6299212598425197,
                    "duration": 0.09090906666666854
                },
                {
                    "name": "D#5",
                    "midi": 75,
                    "time": 114.66474214999977,
                    "velocity": 0.6141732283464567,
                    "duration": 0.09090906666666854
                },
                {
                    "name": "C#5",
                    "midi": 73,
                    "time": 114.8806511833331,
                    "velocity": 0.6377952755905512,
                    "duration": 0.09090906666666854
                },
                {
                    "name": "C#5",
                    "midi": 73,
                    "time": 114.9999693333331,
                    "velocity": 0.6456692913385826,
                    "duration": 0.09090906666666854
                },
                {
                    "name": "D#5",
                    "midi": 75,
                    "time": 115.22440109166644,
                    "velocity": 0.6377952755905512,
                    "duration": 0.09090906666666854
                },
                {
                    "name": "D#5",
                    "midi": 75,
                    "time": 115.33803742499977,
                    "velocity": 0.6299212598425197,
                    "duration": 0.09090906666666854
                },
                {
                    "name": "E5",
                    "midi": 76,
                    "time": 115.57383281666644,
                    "velocity": 0.6299212598425197,
                    "duration": 0.09090906666666854
                },
                {
                    "name": "E5",
                    "midi": 76,
                    "time": 115.67610551666644,
                    "velocity": 0.6456692913385826,
                    "duration": 0.09090906666666854
                },
                {
                    "name": "F5",
                    "midi": 77,
                    "time": 115.90905999999977,
                    "velocity": 0.6299212598425197,
                    "duration": 0.09090906666666854
                },
                {
                    "name": "F5",
                    "midi": 77,
                    "time": 116.0226963333331,
                    "velocity": 0.6220472440944882,
                    "duration": 0.09090906666666854
                },
                {
                    "name": "C#5",
                    "midi": 73,
                    "time": 124.08803509166644,
                    "velocity": 0.6299212598425197,
                    "duration": 0.07386361666667085
                },
                {
                    "name": "C#5",
                    "midi": 73,
                    "time": 125.11076209166644,
                    "velocity": 0.6299212598425197,
                    "duration": 0.2556817499999937
                },
                {
                    "name": "D#5",
                    "midi": 75,
                    "time": 126.8209889083331,
                    "velocity": 0.6299212598425197,
                    "duration": 0.2556817499999937
                },
                {
                    "name": "D5",
                    "midi": 74,
                    "time": 126.9829206833331,
                    "velocity": 0.6377952755905512,
                    "duration": 0.1363635999999957
                },
                {
                    "name": "D#5",
                    "midi": 75,
                    "time": 127.1533751833331,
                    "velocity": 0.6220472440944882,
                    "duration": 0.1363636000000099
                },
                {
                    "name": "C#5",
                    "midi": 73,
                    "time": 127.15621609166644,
                    "velocity": 0.6377952755905512,
                    "duration": 0.1363636000000099
                },
                {
                    "name": "D#5",
                    "midi": 75,
                    "time": 127.32382968333312,
                    "velocity": 0.6299212598425197,
                    "duration": 0.1363635999999957
                },
                {
                    "name": "C5",
                    "midi": 72,
                    "time": 127.32951149999978,
                    "velocity": 0.6299212598425197,
                    "duration": 0.1363635999999957
                },
                {
                    "name": "D#5",
                    "midi": 75,
                    "time": 127.49712509166645,
                    "velocity": 0.6456692913385826,
                    "duration": 0.1363635999999957
                },
                {
                    "name": "D#5",
                    "midi": 75,
                    "time": 127.6732614083331,
                    "velocity": 0.6377952755905512,
                    "duration": 0.1363635999999957
                },
                {
                    "name": "D#5",
                    "midi": 75,
                    "time": 127.8437159083331,
                    "velocity": 0.6299212598425197,
                    "duration": 0.1363635999999957
                },
                {
                    "name": "D#5",
                    "midi": 75,
                    "time": 128.0170113166664,
                    "velocity": 0.6220472440944882,
                    "duration": 0.1363636000000099
                },
                {
                    "name": "F5",
                    "midi": 77,
                    "time": 128.1846249083331,
                    "velocity": 0.6299212598425197,
                    "duration": 0.07386361666667085
                },
                {
                    "name": "D#5",
                    "midi": 75,
                    "time": 128.2613294333331,
                    "velocity": 0.6299212598425197,
                    "duration": 0.07386361666667085
                },
                {
                    "name": "D5",
                    "midi": 74,
                    "time": 128.3465566833331,
                    "velocity": 0.6141732283464567,
                    "duration": 0.07386361666667085
                },
                {
                    "name": "D#5",
                    "midi": 75,
                    "time": 128.4403066583331,
                    "velocity": 0.6141732283464567,
                    "duration": 0.07386361666667085
                },
                {
                    "name": "D#5",
                    "midi": 75,
                    "time": 128.86360199999976,
                    "velocity": 0.6141732283464567,
                    "duration": 0.2556817500000079
                },
                {
                    "name": "F5",
                    "midi": 77,
                    "time": 129.1988291833331,
                    "velocity": 0.6456692913385826,
                    "duration": 0.2556817500000079
                },
                {
                    "name": "D#5",
                    "midi": 75,
                    "time": 130.90337418333309,
                    "velocity": 0.5511811023622047,
                    "duration": 0.1363636000000099
                },
                {
                    "name": "D5",
                    "midi": 74,
                    "time": 131.0738286833331,
                    "velocity": 0.5669291338582677,
                    "duration": 0.1363636000000099
                },
                {
                    "name": "F5",
                    "midi": 77,
                    "time": 131.0823514083331,
                    "velocity": 0.6456692913385826,
                    "duration": 0.1363636000000099
                },
                {
                    "name": "E5",
                    "midi": 76,
                    "time": 131.24712409166645,
                    "velocity": 0.6456692913385826,
                    "duration": 0.1363636000000099
                },
                {
                    "name": "C#5",
                    "midi": 73,
                    "time": 131.25280590833313,
                    "velocity": 0.5511811023622047,
                    "duration": 0.1363636000000099
                },
                {
                    "name": "C5",
                    "midi": 72,
                    "time": 131.41473768333313,
                    "velocity": 0.5590551181102362,
                    "duration": 0.1363636000000099
                },
                {
                    "name": "D#5",
                    "midi": 75,
                    "time": 131.4204194999998,
                    "velocity": 0.6141732283464567,
                    "duration": 0.1363636000000099
                },
                {
                    "name": "D5",
                    "midi": 74,
                    "time": 131.5965558166665,
                    "velocity": 0.6141732283464567,
                    "duration": 0.1363636000000099
                },
                {
                    "name": "C#5",
                    "midi": 73,
                    "time": 131.7670103166665,
                    "velocity": 0.6299212598425197,
                    "duration": 0.1363636000000099
                },
                {
                    "name": "C5",
                    "midi": 72,
                    "time": 131.93462390833318,
                    "velocity": 0.6377952755905512,
                    "duration": 0.1363636000000099
                },
                {
                    "name": "F5",
                    "midi": 77,
                    "time": 132.44314649999987,
                    "velocity": 0.6220472440944882,
                    "duration": 0.07386361666667085
                },
                {
                    "name": "C#5",
                    "midi": 73,
                    "time": 132.61928281666653,
                    "velocity": 0.6377952755905512,
                    "duration": 0.2556817500000079
                },
                {
                    "name": "C#5",
                    "midi": 73,
                    "time": 132.9573509083332,
                    "velocity": 0.5433070866141733,
                    "duration": 0.2727271999999914
                },
                {
                    "name": "C#5",
                    "midi": 73,
                    "time": 133.98291881666654,
                    "velocity": 0.5354330708661418,
                    "duration": 0.2727271999999914
                },
                {
                    "name": "C#5",
                    "midi": 73,
                    "time": 135.8550774083332,
                    "velocity": 0.5354330708661418,
                    "duration": 0.1363636000000099
                },
                {
                    "name": "D#5",
                    "midi": 75,
                    "time": 136.0170091833332,
                    "velocity": 0.5511811023622047,
                    "duration": 0.2727271999999914
                },
                {
                    "name": "C#5",
                    "midi": 73,
                    "time": 137.04541799999984,
                    "velocity": 0.5433070866141733,
                    "duration": 0.2727271999999914
                },
                {
                    "name": "F5",
                    "midi": 77,
                    "time": 137.72155418333315,
                    "velocity": 0.5590551181102362,
                    "duration": 0.1363636000000099
                },
                {
                    "name": "C#5",
                    "midi": 73,
                    "time": 138.4488267166665,
                    "velocity": 0.5590551181102362,
                    "duration": 0.2727271999999914
                },
                {
                    "name": "E5",
                    "midi": 76,
                    "time": 140.4516670916665,
                    "velocity": 0.5669291338582677,
                    "duration": 0.2727271999999914
                },
                {
                    "name": "C#5",
                    "midi": 73,
                    "time": 142.50280290833317,
                    "velocity": 0.5590551181102362,
                    "duration": 0.2727271999999914
                },
                {
                    "name": "E5",
                    "midi": 76,
                    "time": 144.24996153333316,
                    "velocity": 0.5511811023622047,
                    "duration": 0.2727271999999914
                },
                {
                    "name": "D#5",
                    "midi": 75,
                    "time": 144.59087053333315,
                    "velocity": 0.5354330708661418,
                    "duration": 0.2727271999999914
                },
                {
                    "name": "D5",
                    "midi": 74,
                    "time": 147.2726879999998,
                    "velocity": 0.6220472440944882,
                    "duration": 0.06818179999999074
                },
                {
                    "name": "D#5",
                    "midi": 75,
                    "time": 147.61927881666645,
                    "velocity": 0.6456692913385826,
                    "duration": 0.06818179999999074
                },
                {
                    "name": "D#5",
                    "midi": 75,
                    "time": 147.95166509166646,
                    "velocity": 0.5354330708661418,
                    "duration": 0.2727271999999914
                },
                {
                    "name": "D5",
                    "midi": 74,
                    "time": 148.2954149999998,
                    "velocity": 0.5590551181102362,
                    "duration": 0.2727271999999914
                },
                {
                    "name": "C#5",
                    "midi": 73,
                    "time": 148.63348309166645,
                    "velocity": 0.5354330708661418,
                    "duration": 0.2727271999999914
                },
                {
                    "name": "E5",
                    "midi": 76,
                    "time": 149.66473281666643,
                    "velocity": 0.5669291338582677,
                    "duration": 0.2727271999999914
                },
                {
                    "name": "D5",
                    "midi": 74,
                    "time": 151.36927781666643,
                    "velocity": 0.6141732283464567,
                    "duration": 0.2556817500000079
                },
                {
                    "name": "D#5",
                    "midi": 75,
                    "time": 151.70166409166643,
                    "velocity": 0.6220472440944882,
                    "duration": 0.2556817500000079
                },
                {
                    "name": "D#5",
                    "midi": 75,
                    "time": 152.04257309166644,
                    "velocity": 0.5590551181102362,
                    "duration": 0.2727271999999914
                },
                {
                    "name": "D5",
                    "midi": 74,
                    "time": 152.38632299999978,
                    "velocity": 0.5433070866141733,
                    "duration": 0.2727271999999914
                },
                {
                    "name": "C#5",
                    "midi": 73,
                    "time": 152.7300729083331,
                    "velocity": 0.5590551181102362,
                    "duration": 0.2727271999999914
                },
                {
                    "name": "E5",
                    "midi": 76,
                    "time": 153.74995899999976,
                    "velocity": 0.5669291338582677,
                    "duration": 0.2727271999999914
                },
                {
                    "name": "F5",
                    "midi": 77,
                    "time": 160.7329116833331,
                    "velocity": 0.6377952755905512,
                    "duration": 0.05113635000000727
                },
                {
                    "name": "E5",
                    "midi": 76,
                    "time": 160.80109348333312,
                    "velocity": 0.6456692913385826,
                    "duration": 0.05113635000000727
                },
                {
                    "name": "F5",
                    "midi": 77,
                    "time": 160.86359346666646,
                    "velocity": 0.6141732283464567,
                    "duration": 0.04545453333332716
                },
                {
                    "name": "E5",
                    "midi": 76,
                    "time": 160.9118889083331,
                    "velocity": 0.6141732283464567,
                    "duration": 0.05113635000000727
                },
                {
                    "name": "D#5",
                    "midi": 75,
                    "time": 160.97722979999978,
                    "velocity": 0.6456692913385826,
                    "duration": 0.05113635000000727
                },
                {
                    "name": "D5",
                    "midi": 74,
                    "time": 161.03404796666646,
                    "velocity": 0.6377952755905512,
                    "duration": 0.05113635000000727
                },
                {
                    "name": "D#5",
                    "midi": 75,
                    "time": 161.09086613333315,
                    "velocity": 0.6220472440944882,
                    "duration": 0.05113635000000727
                },
                {
                    "name": "D5",
                    "midi": 74,
                    "time": 161.15620702499982,
                    "velocity": 0.6299212598425197,
                    "duration": 0.05113635000000727
                },
                {
                    "name": "C#5",
                    "midi": 73,
                    "time": 161.21586609999983,
                    "velocity": 0.6456692913385826,
                    "duration": 0.05113635000000727
                },
                {
                    "name": "C5",
                    "midi": 72,
                    "time": 161.27836608333317,
                    "velocity": 0.6299212598425197,
                    "duration": 0.05113635000000727
                },
                {
                    "name": "C#5",
                    "midi": 73,
                    "time": 161.3408660666665,
                    "velocity": 0.6377952755905512,
                    "duration": 0.05113635000000727
                },
                {
                    "name": "C5",
                    "midi": 72,
                    "time": 161.40620695833317,
                    "velocity": 0.6299212598425197,
                    "duration": 0.05113635000000727
                },
                {
                    "name": "C5",
                    "midi": 72,
                    "time": 163.26132009999984,
                    "velocity": 0.6299212598425197,
                    "duration": 0.05113635000000727
                },
                {
                    "name": "C#5",
                    "midi": 73,
                    "time": 163.39200188333317,
                    "velocity": 0.6456692913385826,
                    "duration": 0.05113635000000727
                },
                {
                    "name": "C5",
                    "midi": 72,
                    "time": 163.4545018666665,
                    "velocity": 0.6220472440944882,
                    "duration": 0.05113635000000727
                },
                {
                    "name": "D5",
                    "midi": 74,
                    "time": 163.52268366666652,
                    "velocity": 0.6456692913385826,
                    "duration": 0.05113635000000727
                },
                {
                    "name": "C#5",
                    "midi": 73,
                    "time": 163.58518364999986,
                    "velocity": 0.6141732283464567,
                    "duration": 0.05113635000000727
                },
                {
                    "name": "D#5",
                    "midi": 75,
                    "time": 163.6476836333332,
                    "velocity": 0.6377952755905512,
                    "duration": 0.05113635000000727
                },
                {
                    "name": "D5",
                    "midi": 74,
                    "time": 163.6988199833332,
                    "velocity": 0.6456692913385826,
                    "duration": 0.05113635000000727
                },
                {
                    "name": "E5",
                    "midi": 76,
                    "time": 163.76131996666655,
                    "velocity": 0.6220472440944882,
                    "duration": 0.05113635000000727
                },
                {
                    "name": "D#5",
                    "midi": 75,
                    "time": 163.8238199499999,
                    "velocity": 0.6141732283464567,
                    "duration": 0.05113635000000727
                },
                {
                    "name": "F5",
                    "midi": 77,
                    "time": 163.88916084166655,
                    "velocity": 0.6141732283464567,
                    "duration": 0.05113635000000727
                },
                {
                    "name": "E5",
                    "midi": 76,
                    "time": 163.9516608249999,
                    "velocity": 0.6299212598425197,
                    "duration": 0.05113635000000727
                },
                {
                    "name": "F5",
                    "midi": 77,
                    "time": 164.0795016999999,
                    "velocity": 0.6377952755905512,
                    "duration": 0.05113635000000727
                },
                {
                    "name": "D#5",
                    "midi": 75,
                    "time": 171.81529509166657,
                    "velocity": 0.5590551181102362,
                    "duration": 0.2727271999999914
                },
                {
                    "name": "D#5",
                    "midi": 75,
                    "time": 175.57097590833322,
                    "velocity": 0.5590551181102362,
                    "duration": 0.2727271999999914
                },
                {
                    "name": "D#5",
                    "midi": 75,
                    "time": 175.90620309166655,
                    "velocity": 0.5433070866141733,
                    "duration": 0.2727271999999914
                },
                {
                    "name": "E5",
                    "midi": 76,
                    "time": 176.2499529999999,
                    "velocity": 0.5433070866141733,
                    "duration": 0.2727271999999914
                },
                {
                    "name": "D#5",
                    "midi": 75,
                    "time": 176.58518018333322,
                    "velocity": 0.5590551181102362,
                    "duration": 0.2727271999999914
                },
                {
                    "name": "C#5",
                    "midi": 73,
                    "time": 176.9260891833332,
                    "velocity": 0.5433070866141733,
                    "duration": 0.2727271999999914
                },
                {
                    "name": "D#5",
                    "midi": 75,
                    "time": 180.3351791833332,
                    "velocity": 0.5590551181102362,
                    "duration": 0.2727271999999914
                },
                {
                    "name": "D#5",
                    "midi": 75,
                    "time": 180.6874518166665,
                    "velocity": 0.5590551181102362,
                    "duration": 0.2727271999999914
                },
                {
                    "name": "C#5",
                    "midi": 73,
                    "time": 181.02551990833317,
                    "velocity": 0.5354330708661418,
                    "duration": 0.2727271999999914
                },
                {
                    "name": "D#5",
                    "midi": 75,
                    "time": 181.9658605666665,
                    "velocity": 0.6377952755905512,
                    "duration": 0.06818179999999074
                },
                {
                    "name": "D#5",
                    "midi": 75,
                    "time": 182.9885875666665,
                    "velocity": 0.6456692913385826,
                    "duration": 0.06818179999999074
                },
                {
                    "name": "D#5",
                    "midi": 75,
                    "time": 184.00847365833314,
                    "velocity": 0.6377952755905512,
                    "duration": 0.06818179999999074
                },
                {
                    "name": "D#5",
                    "midi": 75,
                    "time": 185.02551884166647,
                    "velocity": 0.6456692913385826,
                    "duration": 0.06818179999999074
                },
                {
                    "name": "D#5",
                    "midi": 75,
                    "time": 185.9658594999998,
                    "velocity": 0.5669291338582677,
                    "duration": 0.1363636000000099
                },
                {
                    "name": "C#5",
                    "midi": 73,
                    "time": 186.9885864999998,
                    "velocity": 0.5511811023622047,
                    "duration": 0.1363636000000099
                },
                {
                    "name": "D#5",
                    "midi": 75,
                    "time": 188.1817679999998,
                    "velocity": 0.6456692913385826,
                    "duration": 0.2556817500000079
                },
                {
                    "name": "D#5",
                    "midi": 75,
                    "time": 191.9374488166665,
                    "velocity": 0.6299212598425197,
                    "duration": 0.2556817500000079
                },
                {
                    "name": "D#5",
                    "midi": 75,
                    "time": 192.27267599999982,
                    "velocity": 0.6141732283464567,
                    "duration": 0.2556817500000079
                },
                {
                    "name": "E5",
                    "midi": 76,
                    "time": 192.6107440916665,
                    "velocity": 0.6299212598425197,
                    "duration": 0.2556817500000079
                },
                {
                    "name": "D#5",
                    "midi": 75,
                    "time": 192.95733490833317,
                    "velocity": 0.6220472440944882,
                    "duration": 0.2556817500000079
                },
                {
                    "name": "C#5",
                    "midi": 73,
                    "time": 193.29540299999985,
                    "velocity": 0.6220472440944882,
                    "duration": 0.2556817500000079
                },
                {
                    "name": "D#5",
                    "midi": 75,
                    "time": 196.11358406666653,
                    "velocity": 0.6377952755905512,
                    "duration": 0.06818179999999074
                },
                {
                    "name": "E5",
                    "midi": 76,
                    "time": 196.19312949999986,
                    "velocity": 0.6377952755905512,
                    "duration": 0.06818179999999074
                },
                {
                    "name": "D#5",
                    "midi": 75,
                    "time": 196.2840385666665,
                    "velocity": 0.6141732283464567,
                    "duration": 0.06818179999999074
                },
                {
                    "name": "D#5",
                    "midi": 75,
                    "time": 196.3692658166665,
                    "velocity": 0.6456692913385826,
                    "duration": 0.2556817500000079
                },
                {
                    "name": "E5",
                    "midi": 76,
                    "time": 199.76699218333317,
                    "velocity": 0.6456692913385826,
                    "duration": 0.2556817500000079
                },
                {
                    "name": "C#5",
                    "midi": 73,
                    "time": 200.10790118333318,
                    "velocity": 0.6456692913385826,
                    "duration": 0.2556817500000079
                },
                {
                    "name": "D#5",
                    "midi": 75,
                    "time": 200.45165109166652,
                    "velocity": 0.6141732283464567,
                    "duration": 0.2556817500000079
                },
                {
                    "name": "E5",
                    "midi": 76,
                    "time": 200.80108281666654,
                    "velocity": 0.6299212598425197,
                    "duration": 0.2556817500000079
                },
                {
                    "name": "D#5",
                    "midi": 75,
                    "time": 201.13630999999987,
                    "velocity": 0.6141732283464567,
                    "duration": 0.2556817500000079
                },
                {
                    "name": "C#5",
                    "midi": 73,
                    "time": 201.4715371833332,
                    "velocity": 0.6299212598425197,
                    "duration": 0.2556817500000079
                },
                {
                    "name": "D#5",
                    "midi": 75,
                    "time": 201.8209689083332,
                    "velocity": 0.6141732283464567,
                    "duration": 0.06818179999999074
                },
                {
                    "name": "E5",
                    "midi": 76,
                    "time": 201.9829006833332,
                    "velocity": 0.6141732283464567,
                    "duration": 0.04545453333332716
                },
                {
                    "name": "F5",
                    "midi": 77,
                    "time": 202.0425597583332,
                    "velocity": 0.6141732283464567,
                    "duration": 0.04545453333332716
                },
                {
                    "name": "E5",
                    "midi": 76,
                    "time": 204.03971831666652,
                    "velocity": 0.6220472440944882,
                    "duration": 0.04545453333332716
                },
                {
                    "name": "C#5",
                    "midi": 73,
                    "time": 204.09085466666653,
                    "velocity": 0.6299212598425197,
                    "duration": 0.04545453333332716
                },
                {
                    "name": "D#5",
                    "midi": 75,
                    "time": 204.8891499083332,
                    "velocity": 0.6456692913385826,
                    "duration": 0.04545453333332716
                },
                {
                    "name": "C#5",
                    "midi": 73,
                    "time": 208.3010808166665,
                    "velocity": 0.6299212598425197,
                    "duration": 0.10227269999998612
                },
                {
                    "name": "D#5",
                    "midi": 75,
                    "time": 209.3238078166665,
                    "velocity": 0.6456692913385826,
                    "duration": 0.10227269999998612
                },
                {
                    "name": "D#5",
                    "midi": 75,
                    "time": 210.16755759166648,
                    "velocity": 0.6220472440944882,
                    "duration": 0.10227269999998612
                },
                {
                    "name": "D5",
                    "midi": 74,
                    "time": 210.34369390833314,
                    "velocity": 0.5669291338582677,
                    "duration": 0.10227269999998612
                },
                {
                    "name": "D#5",
                    "midi": 75,
                    "time": 210.34653481666646,
                    "velocity": 0.6299212598425197,
                    "duration": 0.10227269999998612
                },
                {
                    "name": "D#5",
                    "midi": 75,
                    "time": 210.5113074999998,
                    "velocity": 0.6456692913385826,
                    "duration": 0.10227270000001454
                },
                {
                    "name": "C#5",
                    "midi": 73,
                    "time": 210.51698931666647,
                    "velocity": 0.5354330708661418,
                    "duration": 0.10227270000001454
                },
                {
                    "name": "D#5",
                    "midi": 75,
                    "time": 210.6789210916665,
                    "velocity": 0.6456692913385826,
                    "duration": 0.10227270000001454
                },
                {
                    "name": "C5",
                    "midi": 72,
                    "time": 210.6874438166665,
                    "velocity": 0.5433070866141733,
                    "duration": 0.10227270000001454
                },
                {
                    "name": "D#5",
                    "midi": 75,
                    "time": 210.84653468333318,
                    "velocity": 0.6299212598425197,
                    "duration": 0.10227269999998612
                },
                {
                    "name": "D#5",
                    "midi": 75,
                    "time": 211.3607390916665,
                    "velocity": 0.6220472440944882,
                    "duration": 0.10227269999998612
                },
                {
                    "name": "F5",
                    "midi": 77,
                    "time": 212.39198881666647,
                    "velocity": 0.6456692913385826,
                    "duration": 0.10227269999998612
                },
                {
                    "name": "D#5",
                    "midi": 75,
                    "time": 214.2613064999998,
                    "velocity": 0.5669291338582677,
                    "duration": 0.10227269999998612
                },
                {
                    "name": "F5",
                    "midi": 77,
                    "time": 214.43744281666645,
                    "velocity": 0.5669291338582677,
                    "duration": 0.10227269999998612
                },
                {
                    "name": "D5",
                    "midi": 74,
                    "time": 214.43744281666645,
                    "velocity": 0.5511811023622047,
                    "duration": 0.10227269999998612
                },
                {
                    "name": "E5",
                    "midi": 76,
                    "time": 214.59937459166645,
                    "velocity": 0.5354330708661418,
                    "duration": 0.10227270000001454
                },
                {
                    "name": "C#5",
                    "midi": 73,
                    "time": 214.60505640833313,
                    "velocity": 0.5590551181102362,
                    "duration": 0.10227270000001454
                },
                {
                    "name": "C5",
                    "midi": 72,
                    "time": 214.76698818333315,
                    "velocity": 0.5511811023622047,
                    "duration": 0.10227269999998612
                },
                {
                    "name": "D#5",
                    "midi": 75,
                    "time": 214.76982909166648,
                    "velocity": 0.5433070866141733,
                    "duration": 0.10227269999998612
                },
                {
                    "name": "D5",
                    "midi": 74,
                    "time": 214.94880631666646,
                    "velocity": 0.5590551181102362,
                    "duration": 0.10227269999998612
                },
                {
                    "name": "C#5",
                    "midi": 73,
                    "time": 215.28971531666645,
                    "velocity": 0.6456692913385826,
                    "duration": 0.10227269999998612
                },
                {
                    "name": "C#5",
                    "midi": 73,
                    "time": 215.6277834083331,
                    "velocity": 0.6141732283464567,
                    "duration": 0.10227269999998612
                },
                {
                    "name": "C#5",
                    "midi": 73,
                    "time": 215.96869240833308,
                    "velocity": 0.6377952755905512,
                    "duration": 0.10227269999998612
                },
                {
                    "name": "C#5",
                    "midi": 73,
                    "time": 216.30676049999974,
                    "velocity": 0.6456692913385826,
                    "duration": 0.10227269999998612
                },
                {
                    "name": "C#5",
                    "midi": 73,
                    "time": 216.65051040833305,
                    "velocity": 0.6141732283464567,
                    "duration": 0.10227269999998612
                },
                {
                    "name": "C#5",
                    "midi": 73,
                    "time": 216.99426031666636,
                    "velocity": 0.6141732283464567,
                    "duration": 0.10227269999998612
                },
                {
                    "name": "D#5",
                    "midi": 75,
                    "time": 218.857896183333,
                    "velocity": 0.5433070866141733,
                    "duration": 0.10227269999998612
                },
                {
                    "name": "C#5",
                    "midi": 73,
                    "time": 219.88630499999965,
                    "velocity": 0.5354330708661418,
                    "duration": 0.10227269999998612
                },
                {
                    "name": "F5",
                    "midi": 77,
                    "time": 220.56812299999964,
                    "velocity": 0.5511811023622047,
                    "duration": 0.10227269999998612
                },
                {
                    "name": "D#5",
                    "midi": 75,
                    "time": 223.63062218333297,
                    "velocity": 0.5354330708661418,
                    "duration": 0.10227269999998612
                },
                {
                    "name": "C#5",
                    "midi": 73,
                    "time": 223.97437209166628,
                    "velocity": 0.5590551181102362,
                    "duration": 0.10227269999998612
                },
                {
                    "name": "C5",
                    "midi": 72,
                    "time": 224.32096290833294,
                    "velocity": 0.5354330708661418,
                    "duration": 0.10227269999998612
                },
                {
                    "name": "C5",
                    "midi": 72,
                    "time": 225.00278090833294,
                    "velocity": 0.5354330708661418,
                    "duration": 0.10227269999998612
                },
                {
                    "name": "C#5",
                    "midi": 73,
                    "time": 225.3408489999996,
                    "velocity": 0.5669291338582677,
                    "duration": 0.2727271999999914
                },
                {
                    "name": "C#5",
                    "midi": 73,
                    "time": 227.73289381666626,
                    "velocity": 0.5433070866141733,
                    "duration": 0.10227269999998612
                },
                {
                    "name": "D#5",
                    "midi": 75,
                    "time": 231.13346109166625,
                    "velocity": 0.5748031496062992,
                    "duration": 0.10227269999998612
                },
                {
                    "name": "D#5",
                    "midi": 75,
                    "time": 231.3010746833329,
                    "velocity": 0.5826771653543307,
                    "duration": 0.10227269999998612
                },
                {
                    "name": "D#5",
                    "midi": 75,
                    "time": 231.48005190833288,
                    "velocity": 0.6614173228346457,
                    "duration": 0.2727271999999914
                },
                {
                    "name": "D#5",
                    "midi": 75,
                    "time": 231.82380181666622,
                    "velocity": 0.6535433070866141,
                    "duration": 0.10227269999998612
                },
                {
                    "name": "D#5",
                    "midi": 75,
                    "time": 231.98289268333286,
                    "velocity": 0.6692913385826772,
                    "duration": 0.10227269999998612
                },
                {
                    "name": "D#5",
                    "midi": 75,
                    "time": 232.15902899999952,
                    "velocity": 0.6771653543307087,
                    "duration": 0.10227269999998612
                },
                {
                    "name": "D#5",
                    "midi": 75,
                    "time": 232.33516531666618,
                    "velocity": 0.6614173228346457,
                    "duration": 0.10227269999998612
                },
                {
                    "name": "E5",
                    "midi": 76,
                    "time": 232.50561981666615,
                    "velocity": 0.6614173228346457,
                    "duration": 0.10227269999998612
                },
                {
                    "name": "D#5",
                    "midi": 75,
                    "time": 232.6732334083328,
                    "velocity": 0.6771653543307087,
                    "duration": 0.10227269999998612
                },
                {
                    "name": "C#5",
                    "midi": 73,
                    "time": 232.8351651833328,
                    "velocity": 0.6850393700787402,
                    "duration": 0.10227269999998612
                },
                {
                    "name": "D#5",
                    "midi": 75,
                    "time": 235.23289181666613,
                    "velocity": 0.6220472440944882,
                    "duration": 0.10227269999998612
                },
                {
                    "name": "D#5",
                    "midi": 75,
                    "time": 235.39766449999945,
                    "velocity": 0.6299212598425197,
                    "duration": 0.10227269999998612
                },
                {
                    "name": "D#5",
                    "midi": 75,
                    "time": 235.5652780916661,
                    "velocity": 0.7165354330708661,
                    "duration": 0.2727271999999914
                },
                {
                    "name": "D#5",
                    "midi": 75,
                    "time": 235.90618709166608,
                    "velocity": 0.6220472440944882,
                    "duration": 0.10227269999998612
                },
                {
                    "name": "D#5",
                    "midi": 75,
                    "time": 236.07380068333273,
                    "velocity": 0.6220472440944882,
                    "duration": 0.10227269999998612
                },
                {
                    "name": "F5",
                    "midi": 77,
                    "time": 236.24709609166607,
                    "velocity": 0.6141732283464567,
                    "duration": 0.10227269999998612
                },
                {
                    "name": "F5",
                    "midi": 77,
                    "time": 236.41755059166604,
                    "velocity": 0.6456692913385826,
                    "duration": 0.10227269999998612
                },
                {
                    "name": "D5",
                    "midi": 74,
                    "time": 237.2669821833327,
                    "velocity": 0.6456692913385826,
                    "duration": 0.10227269999998612
                },
                {
                    "name": "F5",
                    "midi": 77,
                    "time": 237.2669821833327,
                    "velocity": 0.6456692913385826,
                    "duration": 0.10227269999998612
                },
                {
                    "name": "D5",
                    "midi": 74,
                    "time": 237.43743668333266,
                    "velocity": 0.6456692913385826,
                    "duration": 0.10227269999998612
                },
                {
                    "name": "F5",
                    "midi": 77,
                    "time": 237.448800316666,
                    "velocity": 0.6377952755905512,
                    "duration": 0.10227269999998612
                },
                {
                    "name": "D#5",
                    "midi": 75,
                    "time": 237.61641390833265,
                    "velocity": 0.6456692913385826,
                    "duration": 0.10227269999998612
                },
                {
                    "name": "D#5",
                    "midi": 75,
                    "time": 237.7840274999993,
                    "velocity": 0.6299212598425197,
                    "duration": 0.10227269999998612
                },
                {
                    "name": "F5",
                    "midi": 77,
                    "time": 237.94880018333262,
                    "velocity": 0.7322834645669292,
                    "duration": 0.10227269999998612
                },
                {
                    "name": "E5",
                    "midi": 76,
                    "time": 238.1277774083326,
                    "velocity": 0.7480314960629921,
                    "duration": 0.10227269999998612
                },
                {
                    "name": "D5",
                    "midi": 74,
                    "time": 238.29255009166593,
                    "velocity": 0.7244094488188977,
                    "duration": 0.10227269999998612
                },
                {
                    "name": "D#5",
                    "midi": 75,
                    "time": 238.46584549999926,
                    "velocity": 0.7244094488188977,
                    "duration": 0.10227269999998612
                },
                {
                    "name": "E5",
                    "midi": 76,
                    "time": 238.63629999999924,
                    "velocity": 0.7401574803149606,
                    "duration": 0.10227269999998612
                },
                {
                    "name": "D#5",
                    "midi": 75,
                    "time": 238.80959540833257,
                    "velocity": 0.7401574803149606,
                    "duration": 0.10227269999998612
                },
                {
                    "name": "C#5",
                    "midi": 73,
                    "time": 238.97152718333257,
                    "velocity": 0.7322834645669292,
                    "duration": 0.10227269999998612
                },
                {
                    "name": "F5",
                    "midi": 77,
                    "time": 239.9970950916659,
                    "velocity": 0.7637795275590551,
                    "duration": 0.10227269999998612
                },
                {
                    "name": "E5",
                    "midi": 76,
                    "time": 240.16754959166587,
                    "velocity": 0.7480314960629921,
                    "duration": 0.10227269999998612
                },
                {
                    "name": "D5",
                    "midi": 74,
                    "time": 240.34652681666586,
                    "velocity": 0.7795275590551181,
                    "duration": 0.10227269999998612
                },
                {
                    "name": "D#5",
                    "midi": 75,
                    "time": 240.50845859166586,
                    "velocity": 0.7795275590551181,
                    "duration": 0.10227269999998612
                },
                {
                    "name": "E5",
                    "midi": 76,
                    "time": 240.6760721833325,
                    "velocity": 0.7559055118110236,
                    "duration": 0.10227269999998612
                },
                {
                    "name": "D#5",
                    "midi": 75,
                    "time": 240.8550494083325,
                    "velocity": 0.7795275590551181,
                    "duration": 0.10227269999998612
                },
                {
                    "name": "C#5",
                    "midi": 73,
                    "time": 241.02266299999914,
                    "velocity": 0.7874015748031497,
                    "duration": 0.10227269999998612
                },
                {
                    "name": "D5",
                    "midi": 74,
                    "time": 245.45732090833246,
                    "velocity": 0.8267716535433071,
                    "duration": 0.10227269999998612
                },
                {
                    "name": "D#5",
                    "midi": 75,
                    "time": 245.79538899999912,
                    "velocity": 0.8031496062992126,
                    "duration": 0.10227269999998612
                },
                {
                    "name": "D5",
                    "midi": 74,
                    "time": 246.8181159999991,
                    "velocity": 0.8267716535433071,
                    "duration": 0.10227269999998612
                },
                {
                    "name": "D5",
                    "midi": 74,
                    "time": 246.99141140833243,
                    "velocity": 0.8346456692913385,
                    "duration": 0.10227269999998612
                },
                {
                    "name": "D#5",
                    "midi": 75,
                    "time": 247.15618409166575,
                    "velocity": 0.8267716535433071,
                    "duration": 0.10227269999998612
                },
                {
                    "name": "D#5",
                    "midi": 75,
                    "time": 247.3323204083324,
                    "velocity": 0.8188976377952756,
                    "duration": 0.10227269999998612
                },
                {
                    "name": "D5",
                    "midi": 74,
                    "time": 248.35220649999906,
                    "velocity": 0.8582677165354331,
                    "duration": 0.10227269999998612
                },
                {
                    "name": "D#5",
                    "midi": 75,
                    "time": 248.6874336833324,
                    "velocity": 0.8582677165354331,
                    "duration": 0.10227269999998612
                },
                {
                    "name": "D5",
                    "midi": 74,
                    "time": 249.0311835916657,
                    "velocity": 0.84251968503937,
                    "duration": 0.10227269999998612
                },
                {
                    "name": "D#5",
                    "midi": 75,
                    "time": 249.374933499999,
                    "velocity": 0.8503937007874016,
                    "duration": 0.10227269999998612
                },
                {
                    "name": "D5",
                    "midi": 74,
                    "time": 249.71300159166566,
                    "velocity": 0.8740157480314961,
                    "duration": 0.10227269999998612
                },
                {
                    "name": "C#5",
                    "midi": 73,
                    "time": 250.06243331666565,
                    "velocity": 0.8503937007874016,
                    "duration": 0.10227269999998612
                },
                {
                    "name": "D#5",
                    "midi": 75,
                    "time": 251.07947849999897,
                    "velocity": 0.8110236220472441,
                    "duration": 0.10227269999998612
                },
                {
                    "name": "C#5",
                    "midi": 73,
                    "time": 251.42606931666563,
                    "velocity": 0.7952755905511811,
                    "duration": 0.10227269999998612
                },
                {
                    "name": "D#5",
                    "midi": 75,
                    "time": 257.0482269083323,
                    "velocity": 0.5669291338582677,
                    "duration": 0.2727272000000198
                },
                {
                    "name": "D#5",
                    "midi": 75,
                    "time": 260.454475999999,
                    "velocity": 0.6456692913385826,
                    "duration": 0.10227270000001454
                },
                {
                    "name": "D#5",
                    "midi": 75,
                    "time": 260.61924868333233,
                    "velocity": 0.6456692913385826,
                    "duration": 0.10227270000001454
                },
                {
                    "name": "D#5",
                    "midi": 75,
                    "time": 260.78970318333234,
                    "velocity": 0.6220472440944882,
                    "duration": 0.10227270000001454
                },
                {
                    "name": "D#5",
                    "midi": 75,
                    "time": 260.9715213166657,
                    "velocity": 0.6141732283464567,
                    "duration": 0.10227270000001454
                },
                {
                    "name": "E5",
                    "midi": 76,
                    "time": 261.1391349083324,
                    "velocity": 0.6141732283464567,
                    "duration": 0.10227270000001454
                },
                {
                    "name": "E5",
                    "midi": 76,
                    "time": 261.30674849999906,
                    "velocity": 0.6456692913385826,
                    "duration": 0.10227270000001454
                },
                {
                    "name": "D#5",
                    "midi": 75,
                    "time": 261.4800439083324,
                    "velocity": 0.6220472440944882,
                    "duration": 0.10227270000001454
                },
                {
                    "name": "D#5",
                    "midi": 75,
                    "time": 261.6504984083324,
                    "velocity": 0.6220472440944882,
                    "duration": 0.10227270000001454
                },
                {
                    "name": "C#5",
                    "midi": 73,
                    "time": 261.8124301833324,
                    "velocity": 0.6377952755905512,
                    "duration": 0.10227270000001454
                },
                {
                    "name": "C#5",
                    "midi": 73,
                    "time": 261.98288468333243,
                    "velocity": 0.6456692913385826,
                    "duration": 0.10227270000001454
                },
                {
                    "name": "D#5",
                    "midi": 75,
                    "time": 264.5425430916658,
                    "velocity": 0.6456692913385826,
                    "duration": 0.10227270000001454
                },
                {
                    "name": "D#5",
                    "midi": 75,
                    "time": 264.71867940833243,
                    "velocity": 0.6535433070866141,
                    "duration": 0.10227270000001454
                },
                {
                    "name": "D#5",
                    "midi": 75,
                    "time": 264.8862929999991,
                    "velocity": 0.6614173228346457,
                    "duration": 0.10227270000001454
                },
                {
                    "name": "D#5",
                    "midi": 75,
                    "time": 265.0539065916658,
                    "velocity": 0.6692913385826772,
                    "duration": 0.10227270000001454
                },
                {
                    "name": "D#5",
                    "midi": 75,
                    "time": 265.23004290833245,
                    "velocity": 0.5905511811023622,
                    "duration": 0.2727272000000198
                },
                {
                    "name": "E5",
                    "midi": 76,
                    "time": 268.2925420916658,
                    "velocity": 0.7874015748031497,
                    "duration": 0.2727272000000198
                },
                {
                    "name": "C#5",
                    "midi": 73,
                    "time": 268.6362919999991,
                    "velocity": 0.8110236220472441,
                    "duration": 0.10227270000001454
                },
                {
                    "name": "C#5",
                    "midi": 73,
                    "time": 268.8039055916658,
                    "velocity": 0.7874015748031497,
                    "duration": 0.10227270000001454
                },
                {
                    "name": "D#5",
                    "midi": 75,
                    "time": 268.9743600916658,
                    "velocity": 0.8188976377952756,
                    "duration": 0.10227270000001454
                },
                {
                    "name": "D#5",
                    "midi": 75,
                    "time": 269.14765549999913,
                    "velocity": 0.8267716535433071,
                    "duration": 0.10227270000001454
                },
                {
                    "name": "E5",
                    "midi": 76,
                    "time": 269.3237918166658,
                    "velocity": 0.84251968503937,
                    "duration": 0.10227270000001454
                },
                {
                    "name": "E5",
                    "midi": 76,
                    "time": 269.49140540833247,
                    "velocity": 0.8188976377952756,
                    "duration": 0.10227270000001454
                },
                {
                    "name": "D#5",
                    "midi": 75,
                    "time": 269.6533371833325,
                    "velocity": 0.8188976377952756,
                    "duration": 0.10227270000001454
                },
                {
                    "name": "D#5",
                    "midi": 75,
                    "time": 269.82947349999915,
                    "velocity": 0.8582677165354331,
                    "duration": 0.10227270000001454
                },
                {
                    "name": "C#5",
                    "midi": 73,
                    "time": 269.9942461833325,
                    "velocity": 0.8346456692913385,
                    "duration": 0.10227270000001454
                },
                {
                    "name": "C#5",
                    "midi": 73,
                    "time": 270.1647006833325,
                    "velocity": 0.8661417322834646,
                    "duration": 0.10227270000001454
                },
                {
                    "name": "D#5",
                    "midi": 75,
                    "time": 270.33799609166584,
                    "velocity": 0.8661417322834646,
                    "duration": 0.10227270000001454
                },
                {
                    "name": "E5",
                    "midi": 76,
                    "time": 270.5056096833325,
                    "velocity": 0.8661417322834646,
                    "duration": 0.10227270000001454
                },
                {
                    "name": "F5",
                    "midi": 77,
                    "time": 270.6760641833325,
                    "velocity": 0.8661417322834646,
                    "duration": 0.10227270000001454
                },
                {
                    "name": "C5",
                    "midi": 72,
                    "time": 271.87776840833254,
                    "velocity": 0.8740157480314961,
                    "duration": 0.10227270000001454
                },
                {
                    "name": "C#5",
                    "midi": 73,
                    "time": 272.03970018333257,
                    "velocity": 0.8661417322834646,
                    "duration": 0.10227270000001454
                },
                {
                    "name": "D5",
                    "midi": 74,
                    "time": 272.2129955916659,
                    "velocity": 0.8503937007874016,
                    "duration": 0.10227270000001454
                },
                {
                    "name": "D#5",
                    "midi": 75,
                    "time": 272.38913190833256,
                    "velocity": 0.8818897637795275,
                    "duration": 0.10227270000001454
                },
                {
                    "name": "E5",
                    "midi": 76,
                    "time": 272.55958640833256,
                    "velocity": 0.8582677165354331,
                    "duration": 0.10227270000001454
                },
                {
                    "name": "F5",
                    "midi": 77,
                    "time": 272.72719999999924,
                    "velocity": 0.8818897637795275,
                    "duration": 0.10227270000001454
                },
                {
                    "name": "D#5",
                    "midi": 75,
                    "time": 275.1164039083326,
                    "velocity": 0.8661417322834646,
                    "duration": 0.2727272000000198
                },
                {
                    "name": "D#5",
                    "midi": 75,
                    "time": 275.4601538166659,
                    "velocity": 0.8661417322834646,
                    "duration": 0.1363635999999815
                },
                {
                    "name": "C#5",
                    "midi": 73,
                    "time": 275.7896991833326,
                    "velocity": 0.8818897637795275,
                    "duration": 0.2727272000000198
                },
                {
                    "name": "D#5",
                    "midi": 75,
                    "time": 276.13628999999924,
                    "velocity": 0.8582677165354331,
                    "duration": 0.1363635999999815
                },
                {
                    "name": "D#5",
                    "midi": 75,
                    "time": 276.4771989999992,
                    "velocity": 0.8582677165354331,
                    "duration": 0.1363635999999815
                },
                {
                    "name": "C#5",
                    "midi": 73,
                    "time": 276.6504944083325,
                    "velocity": 0.8503937007874016,
                    "duration": 0.1363635999999815
                },
                {
                    "name": "D#5",
                    "midi": 75,
                    "time": 276.8209489083325,
                    "velocity": 0.8582677165354331,
                    "duration": 0.2727272000000198
                },
                {
                    "name": "C#5",
                    "midi": 73,
                    "time": 277.16469881666586,
                    "velocity": 0.8503937007874016,
                    "duration": 0.1363635999999815
                },
                {
                    "name": "D#5",
                    "midi": 75,
                    "time": 277.49708509166584,
                    "velocity": 0.8661417322834646,
                    "duration": 0.1363635999999815
                },
                {
                    "name": "C#5",
                    "midi": 73,
                    "time": 277.8379940916658,
                    "velocity": 0.8818897637795275,
                    "duration": 0.2727272000000198
                },
                {
                    "name": "D#5",
                    "midi": 75,
                    "time": 278.1817439999991,
                    "velocity": 0.8582677165354331,
                    "duration": 0.1363635999999815
                },
                {
                    "name": "D#5",
                    "midi": 75,
                    "time": 278.5226529999991,
                    "velocity": 0.8818897637795275,
                    "duration": 0.1363635999999815
                },
                {
                    "name": "D#5",
                    "midi": 75,
                    "time": 283.29253809166573,
                    "velocity": 0.8740157480314961,
                    "duration": 0.2727272000000198
                },
                {
                    "name": "D#5",
                    "midi": 75,
                    "time": 283.6391289083324,
                    "velocity": 0.8818897637795275,
                    "duration": 0.1363635999999815
                },
                {
                    "name": "D#5",
                    "midi": 75,
                    "time": 283.8095834083324,
                    "velocity": 0.8818897637795275,
                    "duration": 0.1363635999999815
                },
                {
                    "name": "C#5",
                    "midi": 73,
                    "time": 283.9715151833324,
                    "velocity": 0.8503937007874016,
                    "duration": 0.2727272000000198
                },
                {
                    "name": "D#5",
                    "midi": 75,
                    "time": 283.9743560916657,
                    "velocity": 0.8503937007874016,
                    "duration": 0.2727272000000198
                },
                {
                    "name": "D#5",
                    "midi": 75,
                    "time": 284.3152650916657,
                    "velocity": 0.8503937007874016,
                    "duration": 0.1363635999999815
                },
                {
                    "name": "D#5",
                    "midi": 75,
                    "time": 284.49140140833237,
                    "velocity": 0.8818897637795275,
                    "duration": 0.1363635999999815
                },
                {
                    "name": "D#5",
                    "midi": 75,
                    "time": 284.6646968166657,
                    "velocity": 0.8818897637795275,
                    "duration": 0.1363635999999815
                },
                {
                    "name": "D#5",
                    "midi": 75,
                    "time": 284.8323104083323,
                    "velocity": 0.8740157480314961,
                    "duration": 0.1363635999999815
                },
                {
                    "name": "D#5",
                    "midi": 75,
                    "time": 284.9942421833323,
                    "velocity": 0.8818897637795275,
                    "duration": 0.2727272000000198
                },
                {
                    "name": "D#5",
                    "midi": 75,
                    "time": 285.34083299999895,
                    "velocity": 0.8818897637795275,
                    "duration": 0.2727272000000198
                },
                {
                    "name": "D#5",
                    "midi": 75,
                    "time": 285.67890109166564,
                    "velocity": 0.8661417322834646,
                    "duration": 0.1363635999999815
                },
                {
                    "name": "D#5",
                    "midi": 75,
                    "time": 285.8578783166656,
                    "velocity": 0.8661417322834646,
                    "duration": 0.1363635999999815
                },
                {
                    "name": "C#5",
                    "midi": 73,
                    "time": 286.01696918333226,
                    "velocity": 0.8818897637795275,
                    "duration": 0.272727199999963
                },
                {
                    "name": "D#5",
                    "midi": 75,
                    "time": 286.0226509999989,
                    "velocity": 0.8582677165354331,
                    "duration": 0.272727199999963
                },
                {
                    "name": "D#5",
                    "midi": 75,
                    "time": 286.36355999999887,
                    "velocity": 0.8740157480314961,
                    "duration": 0.1363635999999815
                },
                {
                    "name": "D#5",
                    "midi": 75,
                    "time": 286.52833268333217,
                    "velocity": 0.8503937007874016,
                    "duration": 0.1363635999999815
                },
                {
                    "name": "D#5",
                    "midi": 75,
                    "time": 286.6987871833322,
                    "velocity": 0.8661417322834646,
                    "duration": 0.1363635999999815
                },
                {
                    "name": "D#5",
                    "midi": 75,
                    "time": 286.87492349999883,
                    "velocity": 0.8503937007874016,
                    "duration": 0.1363635999999815
                },
                {
                    "name": "D#5",
                    "midi": 75,
                    "time": 287.0396961833321,
                    "velocity": 0.8582677165354331,
                    "duration": 0.2727272000000198
                },
                {
                    "name": "D#5",
                    "midi": 75,
                    "time": 287.3919688166655,
                    "velocity": 0.8582677165354331,
                    "duration": 0.2727272000000198
                },
                {
                    "name": "D#5",
                    "midi": 75,
                    "time": 287.7300369083322,
                    "velocity": 0.8818897637795275,
                    "duration": 0.1363635999999815
                },
                {
                    "name": "D#5",
                    "midi": 75,
                    "time": 287.89196868333215,
                    "velocity": 0.8503937007874016,
                    "duration": 0.1363635999999815
                },
                {
                    "name": "D#5",
                    "midi": 75,
                    "time": 288.07094590833213,
                    "velocity": 0.8582677165354331,
                    "duration": 0.2727272000000198
                },
                {
                    "name": "D#5",
                    "midi": 75,
                    "time": 288.74992299999883,
                    "velocity": 0.8818897637795275,
                    "duration": 0.1363635999999815
                },
                {
                    "name": "D#5",
                    "midi": 75,
                    "time": 288.91753659166545,
                    "velocity": 0.8503937007874016,
                    "duration": 0.1363635999999815
                },
                {
                    "name": "D#5",
                    "midi": 75,
                    "time": 289.08799109166546,
                    "velocity": 0.8503937007874016,
                    "duration": 0.2727272000000198
                },
                {
                    "name": "D#5",
                    "midi": 75,
                    "time": 289.76696818333215,
                    "velocity": 0.8740157480314961,
                    "duration": 0.1363635999999815
                },
                {
                    "name": "D#5",
                    "midi": 75,
                    "time": 289.9431044999988,
                    "velocity": 0.8818897637795275,
                    "duration": 0.1363635999999815
                },
                {
                    "name": "D#5",
                    "midi": 75,
                    "time": 290.1078771833321,
                    "velocity": 0.8740157480314961,
                    "duration": 0.2727272000000198
                },
                {
                    "name": "D#5",
                    "midi": 75,
                    "time": 291.82378581666546,
                    "velocity": 0.7716535433070866,
                    "duration": 0.2727272000000198
                }
            ],
            "controlChanges": {
                "7": [
                    {
                        "number": 7,
                        "time": 0,
                        "value": 0.937007874015748
                    }
                ],
                "10": [
                    {
                        "number": 10,
                        "time": 0,
                        "value": 0.5039370078740157
                    },
                    {
                        "number": 10,
                        "time": 294.8862849999988,
                        "value": 0.5039370078740157
                    },
                    {
                        "number": 10,
                        "time": 296.5908299999988,
                        "value": 0.5039370078740157
                    }
                ],
                "91": [
                    {
                        "number": 91,
                        "time": 0,
                        "value": 0
                    },
                    {
                        "number": 91,
                        "time": 0,
                        "value": 0.15748031496062992
                    },
                    {
                        "number": 91,
                        "time": 294.8862849999988,
                        "value": 0
                    }
                ],
                "93": [
                    {
                        "number": 93,
                        "time": 0,
                        "value": 0.09448818897637795
                    }
                ],
                "121": [
                    {
                        "number": 121,
                        "time": 0,
                        "value": 0
                    }
                ]
            },
            "id": 5,
            "instrumentNumber": 0,
            "instrument": "acoustic grand piano",
            "instrumentFamily": "piano",
            "channelNumber": 2,
            "isPercussion": false
        },
        {
            "startTime": 8.943179433333333,
            "duration": 296.52833001666596,
            "length": 571,
            "notes": [
                {
                    "name": "B4",
                    "midi": 71,
                    "time": 8.943179433333333,
                    "velocity": 0.5511811023622047,
                    "duration": 0.2556817500000008
                },
                {
                    "name": "G#4",
                    "midi": 68,
                    "time": 9.931815533333333,
                    "velocity": 0.5433070866141733,
                    "duration": 0.2556817500000008
                },
                {
                    "name": "A#4",
                    "midi": 70,
                    "time": 10.946019808333334,
                    "velocity": 0.5354330708661418,
                    "duration": 0.2556817500000008
                },
                {
                    "name": "G4",
                    "midi": 67,
                    "time": 11.926133183333334,
                    "velocity": 0.5511811023622047,
                    "duration": 0.2556817500000008
                },
                {
                    "name": "A#4",
                    "midi": 70,
                    "time": 11.977269533333335,
                    "velocity": 0.5354330708661418,
                    "duration": 0.2556817500000008
                },
                {
                    "name": "G#4",
                    "midi": 68,
                    "time": 12.951701091666669,
                    "velocity": 0.5590551181102362,
                    "duration": 0.2556817500000008
                },
                {
                    "name": "B4",
                    "midi": 71,
                    "time": 12.951701091666669,
                    "velocity": 0.6299212598425197,
                    "duration": 0.2556817500000008
                },
                {
                    "name": "B4",
                    "midi": 71,
                    "time": 13.298291908333336,
                    "velocity": 0.6141732283464567,
                    "duration": 0.2556817500000008
                },
                {
                    "name": "A#4",
                    "midi": 70,
                    "time": 13.630678183333337,
                    "velocity": 0.6299212598425197,
                    "duration": 0.2556817500000008
                },
                {
                    "name": "G#4",
                    "midi": 68,
                    "time": 13.977269000000005,
                    "velocity": 0.6377952755905512,
                    "duration": 0.25568174999999904
                },
                {
                    "name": "G#4",
                    "midi": 68,
                    "time": 14.059655341666671,
                    "velocity": 0.5354330708661418,
                    "duration": 0.25568174999999904
                },
                {
                    "name": "G4",
                    "midi": 67,
                    "time": 14.312496183333337,
                    "velocity": 0.6220472440944882,
                    "duration": 0.25568174999999904
                },
                {
                    "name": "G#4",
                    "midi": 68,
                    "time": 14.659087000000003,
                    "velocity": 0.6456692913385826,
                    "duration": 0.2556817500000008
                },
                {
                    "name": "A#4",
                    "midi": 70,
                    "time": 14.99715509166667,
                    "velocity": 0.6377952755905512,
                    "duration": 0.25568174999999904
                },
                {
                    "name": "G4",
                    "midi": 67,
                    "time": 15.002836908333336,
                    "velocity": 0.5511811023622047,
                    "duration": 0.25568174999999904
                },
                {
                    "name": "B4",
                    "midi": 71,
                    "time": 17.136359066666667,
                    "velocity": 0.5511811023622047,
                    "duration": 0.2556817500000008
                },
                {
                    "name": "G#4",
                    "midi": 68,
                    "time": 18.107949716666667,
                    "velocity": 0.5354330708661418,
                    "duration": 0.2556817500000008
                },
                {
                    "name": "A#4",
                    "midi": 70,
                    "time": 19.133517625,
                    "velocity": 0.5354330708661418,
                    "duration": 0.2556817500000008
                },
                {
                    "name": "G4",
                    "midi": 67,
                    "time": 20.107949183333332,
                    "velocity": 0.5669291338582677,
                    "duration": 0.2556817500000008
                },
                {
                    "name": "A#4",
                    "midi": 70,
                    "time": 20.159085533333332,
                    "velocity": 0.5590551181102362,
                    "duration": 0.2556817500000008
                },
                {
                    "name": "G#4",
                    "midi": 68,
                    "time": 21.133517091666665,
                    "velocity": 0.5354330708661418,
                    "duration": 0.2556817500000008
                },
                {
                    "name": "B4",
                    "midi": 71,
                    "time": 21.13919890833333,
                    "velocity": 0.5669291338582677,
                    "duration": 0.2556817500000008
                },
                {
                    "name": "G4",
                    "midi": 67,
                    "time": 22.156244091666665,
                    "velocity": 0.5433070866141733,
                    "duration": 0.2556817500000008
                },
                {
                    "name": "B4",
                    "midi": 71,
                    "time": 23.519880091666664,
                    "velocity": 0.5511811023622047,
                    "duration": 0.10227270000000033
                },
                {
                    "name": "G4",
                    "midi": 67,
                    "time": 27.610788091666663,
                    "velocity": 0.5511811023622047,
                    "duration": 0.20454540000000065
                },
                {
                    "name": "A#4",
                    "midi": 70,
                    "time": 28.292606091666663,
                    "velocity": 0.5590551181102362,
                    "duration": 0.20454540000000065
                },
                {
                    "name": "G4",
                    "midi": 67,
                    "time": 28.295446999999996,
                    "velocity": 0.5433070866141733,
                    "duration": 0.20454540000000065
                },
                {
                    "name": "G4",
                    "midi": 67,
                    "time": 28.63067418333333,
                    "velocity": 0.5590551181102362,
                    "duration": 0.20454540000000065
                },
                {
                    "name": "A#4",
                    "midi": 70,
                    "time": 28.636355999999996,
                    "velocity": 0.5590551181102362,
                    "duration": 0.20454540000000065
                },
                {
                    "name": "G#4",
                    "midi": 68,
                    "time": 29.318173999999996,
                    "velocity": 0.5433070866141733,
                    "duration": 0.20454540000000065
                },
                {
                    "name": "B4",
                    "midi": 71,
                    "time": 29.32385581666666,
                    "velocity": 0.6377952755905512,
                    "duration": 0.2556817500000008
                },
                {
                    "name": "G#4",
                    "midi": 68,
                    "time": 29.659082999999995,
                    "velocity": 0.5669291338582677,
                    "duration": 0.20454540000000065
                },
                {
                    "name": "B4",
                    "midi": 71,
                    "time": 29.66476481666666,
                    "velocity": 0.6377952755905512,
                    "duration": 0.2556817500000008
                },
                {
                    "name": "A#4",
                    "midi": 70,
                    "time": 29.999991999999995,
                    "velocity": 0.6456692913385826,
                    "duration": 0.2556817500000008
                },
                {
                    "name": "A#4",
                    "midi": 70,
                    "time": 30.30112828333333,
                    "velocity": 0.6377952755905512,
                    "duration": 0.05113634999999661
                },
                {
                    "name": "G#4",
                    "midi": 68,
                    "time": 30.33521918333333,
                    "velocity": 0.6456692913385826,
                    "duration": 0.2045453999999971
                },
                {
                    "name": "G#4",
                    "midi": 68,
                    "time": 30.34658281666666,
                    "velocity": 0.5354330708661418,
                    "duration": 0.25568174999999727
                },
                {
                    "name": "G#4",
                    "midi": 68,
                    "time": 30.676128183333326,
                    "velocity": 0.5669291338582677,
                    "duration": 0.2045453999999971
                },
                {
                    "name": "G4",
                    "midi": 67,
                    "time": 30.687491816666657,
                    "velocity": 0.6299212598425197,
                    "duration": 0.25568174999999727
                },
                {
                    "name": "G#4",
                    "midi": 68,
                    "time": 31.02555990833332,
                    "velocity": 0.6377952755905512,
                    "duration": 0.2556817500000008
                },
                {
                    "name": "G4",
                    "midi": 67,
                    "time": 31.357946183333322,
                    "velocity": 0.5669291338582677,
                    "duration": 0.20454540000000065
                },
                {
                    "name": "A#4",
                    "midi": 70,
                    "time": 31.360787091666655,
                    "velocity": 0.6299212598425197,
                    "duration": 0.2556817500000008
                },
                {
                    "name": "G4",
                    "midi": 67,
                    "time": 35.78976318333332,
                    "velocity": 0.5669291338582677,
                    "duration": 0.20454540000000065
                },
                {
                    "name": "G#4",
                    "midi": 68,
                    "time": 36.47442209166665,
                    "velocity": 0.5669291338582677,
                    "duration": 0.32954536666666456
                },
                {
                    "name": "A#4",
                    "midi": 70,
                    "time": 36.47726299999999,
                    "velocity": 0.5511811023622047,
                    "duration": 0.32954536666666456
                },
                {
                    "name": "G#4",
                    "midi": 68,
                    "time": 36.81249018333332,
                    "velocity": 0.5669291338582677,
                    "duration": 0.32954536666666456
                },
                {
                    "name": "A#4",
                    "midi": 70,
                    "time": 36.821012908333316,
                    "velocity": 0.5669291338582677,
                    "duration": 0.32954536666666456
                },
                {
                    "name": "A#4",
                    "midi": 70,
                    "time": 37.156240091666646,
                    "velocity": 0.5590551181102362,
                    "duration": 0.32954536666666456
                },
                {
                    "name": "G#4",
                    "midi": 68,
                    "time": 37.164762816666645,
                    "velocity": 0.5354330708661418,
                    "duration": 0.32954536666666456
                },
                {
                    "name": "G#4",
                    "midi": 68,
                    "time": 37.49430818333331,
                    "velocity": 0.5354330708661418,
                    "duration": 0.32954536666666456
                },
                {
                    "name": "B4",
                    "midi": 71,
                    "time": 37.49430818333331,
                    "velocity": 0.5590551181102362,
                    "duration": 0.32954536666666456
                },
                {
                    "name": "G4",
                    "midi": 67,
                    "time": 38.60510334166664,
                    "velocity": 0.5511811023622047,
                    "duration": 0.20454540000000065
                },
                {
                    "name": "G#4",
                    "midi": 68,
                    "time": 40.053966591666644,
                    "velocity": 0.6220472440944882,
                    "duration": 0.10227270000000033
                },
                {
                    "name": "B4",
                    "midi": 71,
                    "time": 42.272715999999974,
                    "velocity": 0.6299212598425197,
                    "duration": 0.12784087499999686
                },
                {
                    "name": "A#4",
                    "midi": 70,
                    "time": 42.44032959166664,
                    "velocity": 0.6377952755905512,
                    "duration": 0.12784087499999686
                },
                {
                    "name": "G4",
                    "midi": 67,
                    "time": 42.446011408333305,
                    "velocity": 0.6141732283464567,
                    "duration": 0.12784087499999686
                },
                {
                    "name": "B4",
                    "midi": 71,
                    "time": 42.61362499999997,
                    "velocity": 0.6220472440944882,
                    "duration": 0.12784087499999686
                },
                {
                    "name": "A4",
                    "midi": 69,
                    "time": 42.7783976833333,
                    "velocity": 0.6299212598425197,
                    "duration": 0.12784087499999686
                },
                {
                    "name": "F#4",
                    "midi": 66,
                    "time": 42.78407949999997,
                    "velocity": 0.6456692913385826,
                    "duration": 0.12784087499999686
                },
                {
                    "name": "B4",
                    "midi": 71,
                    "time": 42.9488521833333,
                    "velocity": 0.6299212598425197,
                    "duration": 0.12784087499999686
                },
                {
                    "name": "G#4",
                    "midi": 68,
                    "time": 43.12214759166663,
                    "velocity": 0.6220472440944882,
                    "duration": 0.12784087499999686
                },
                {
                    "name": "B4",
                    "midi": 71,
                    "time": 43.29260209166663,
                    "velocity": 0.6456692913385826,
                    "duration": 0.12784087499999686
                },
                {
                    "name": "G4",
                    "midi": 67,
                    "time": 43.46305659166663,
                    "velocity": 0.6299212598425197,
                    "duration": 0.12784087499999686
                },
                {
                    "name": "B4",
                    "midi": 71,
                    "time": 43.721579249999955,
                    "velocity": 0.6456692913385826,
                    "duration": 0.07386361666666375
                },
                {
                    "name": "A#4",
                    "midi": 70,
                    "time": 43.809647408333284,
                    "velocity": 0.6377952755905512,
                    "duration": 0.07386361666666375
                },
                {
                    "name": "B4",
                    "midi": 71,
                    "time": 43.88919284166661,
                    "velocity": 0.6299212598425197,
                    "duration": 0.07386361666666375
                },
                {
                    "name": "F#4",
                    "midi": 66,
                    "time": 43.98294281666661,
                    "velocity": 0.6456692913385826,
                    "duration": 0.12784087499999686
                },
                {
                    "name": "B4",
                    "midi": 71,
                    "time": 44.31248818333327,
                    "velocity": 0.6377952755905512,
                    "duration": 0.12784087499999686
                },
                {
                    "name": "F#4",
                    "midi": 66,
                    "time": 44.31248818333327,
                    "velocity": 0.5354330708661418,
                    "duration": 0.2727271999999985
                },
                {
                    "name": "F#4",
                    "midi": 66,
                    "time": 45.00282890833327,
                    "velocity": 0.6456692913385826,
                    "duration": 0.12784087499999686
                },
                {
                    "name": "F#4",
                    "midi": 66,
                    "time": 45.33521518333327,
                    "velocity": 0.5354330708661418,
                    "duration": 0.2727271999999985
                },
                {
                    "name": "B4",
                    "midi": 71,
                    "time": 46.01703318333327,
                    "velocity": 0.6299212598425197,
                    "duration": 0.12784087499999686
                },
                {
                    "name": "B4",
                    "midi": 71,
                    "time": 46.5397603166666,
                    "velocity": 0.6220472440944882,
                    "duration": 0.12784087499999686
                },
                {
                    "name": "A#4",
                    "midi": 70,
                    "time": 46.8806693166666,
                    "velocity": 0.6456692913385826,
                    "duration": 0.12784087499999686
                },
                {
                    "name": "A4",
                    "midi": 69,
                    "time": 47.21589649999993,
                    "velocity": 0.6141732283464567,
                    "duration": 0.12784087499999686
                },
                {
                    "name": "B4",
                    "midi": 71,
                    "time": 47.556805499999925,
                    "velocity": 0.6456692913385826,
                    "duration": 0.12784087499999686
                },
                {
                    "name": "G#4",
                    "midi": 68,
                    "time": 47.55964640833326,
                    "velocity": 0.6141732283464567,
                    "duration": 0.12784087499999686
                },
                {
                    "name": "F#4",
                    "midi": 66,
                    "time": 48.06248718333325,
                    "velocity": 0.5433070866141733,
                    "duration": 0.2727271999999985
                },
                {
                    "name": "A#4",
                    "midi": 70,
                    "time": 48.065328091666586,
                    "velocity": 0.6299212598425197,
                    "duration": 0.12784087499999686
                },
                {
                    "name": "F#4",
                    "midi": 66,
                    "time": 48.40339618333325,
                    "velocity": 0.5354330708661418,
                    "duration": 0.2727271999999985
                },
                {
                    "name": "A#4",
                    "midi": 70,
                    "time": 48.41475981666658,
                    "velocity": 0.5590551181102362,
                    "duration": 0.2727271999999985
                },
                {
                    "name": "A#4",
                    "midi": 70,
                    "time": 49.09657781666658,
                    "velocity": 0.6299212598425197,
                    "duration": 0.12784087499999686
                },
                {
                    "name": "G#4",
                    "midi": 68,
                    "time": 49.09657781666658,
                    "velocity": 0.5354330708661418,
                    "duration": 0.2727271999999985
                },
                {
                    "name": "G#4",
                    "midi": 68,
                    "time": 49.434645908333245,
                    "velocity": 0.5433070866141733,
                    "duration": 0.2727271999999985
                },
                {
                    "name": "A#4",
                    "midi": 70,
                    "time": 49.434645908333245,
                    "velocity": 0.5669291338582677,
                    "duration": 0.2727271999999985
                },
                {
                    "name": "F#4",
                    "midi": 66,
                    "time": 50.11362299999991,
                    "velocity": 0.5590551181102362,
                    "duration": 0.32954536666666456
                },
                {
                    "name": "B4",
                    "midi": 71,
                    "time": 51.64487259166658,
                    "velocity": 0.6220472440944882,
                    "duration": 0.12784087499999686
                },
                {
                    "name": "A#4",
                    "midi": 70,
                    "time": 52.15339518333324,
                    "velocity": 0.5433070866141733,
                    "duration": 0.2727271999999985
                },
                {
                    "name": "F#4",
                    "midi": 66,
                    "time": 52.15623609166657,
                    "velocity": 0.5433070866141733,
                    "duration": 0.2727271999999985
                },
                {
                    "name": "A#4",
                    "midi": 70,
                    "time": 52.505667816666566,
                    "velocity": 0.5354330708661418,
                    "duration": 0.2727271999999985
                },
                {
                    "name": "B4",
                    "midi": 71,
                    "time": 53.187485816666566,
                    "velocity": 0.5354330708661418,
                    "duration": 0.2727271999999985
                },
                {
                    "name": "B4",
                    "midi": 71,
                    "time": 53.52555390833323,
                    "velocity": 0.5669291338582677,
                    "duration": 0.2727271999999985
                },
                {
                    "name": "F#4",
                    "midi": 66,
                    "time": 54.19884918333323,
                    "velocity": 0.5354330708661418,
                    "duration": 0.2727271999999985
                },
                {
                    "name": "B4",
                    "midi": 71,
                    "time": 54.886348999999896,
                    "velocity": 0.5433070866141733,
                    "duration": 0.1363636000000028
                },
                {
                    "name": "B4",
                    "midi": 71,
                    "time": 55.741462408333234,
                    "velocity": 0.5669291338582677,
                    "duration": 0.1363636000000028
                },
                {
                    "name": "A#4",
                    "midi": 70,
                    "time": 55.906235091666574,
                    "velocity": 0.5511811023622047,
                    "duration": 0.1363636000000028
                },
                {
                    "name": "B4",
                    "midi": 71,
                    "time": 56.073848683333246,
                    "velocity": 0.5354330708661418,
                    "duration": 0.1363636000000028
                },
                {
                    "name": "B4",
                    "midi": 71,
                    "time": 56.59089399999991,
                    "velocity": 0.5590551181102362,
                    "duration": 0.1363636000000028
                },
                {
                    "name": "A#4",
                    "midi": 70,
                    "time": 56.76418940833325,
                    "velocity": 0.5511811023622047,
                    "duration": 0.1363636000000028
                },
                {
                    "name": "G#4",
                    "midi": 68,
                    "time": 56.93464390833326,
                    "velocity": 0.5669291338582677,
                    "duration": 0.1363636000000028
                },
                {
                    "name": "A#4",
                    "midi": 70,
                    "time": 57.10509840833326,
                    "velocity": 0.5511811023622047,
                    "duration": 0.1363636000000028
                },
                {
                    "name": "B4",
                    "midi": 71,
                    "time": 57.30964380833326,
                    "velocity": 0.5669291338582677,
                    "duration": 0.2727271999999985
                },
                {
                    "name": "F#4",
                    "midi": 66,
                    "time": 57.6193028166666,
                    "velocity": 0.5669291338582677,
                    "duration": 0.1363636000000028
                },
                {
                    "name": "G#4",
                    "midi": 68,
                    "time": 57.781234591666596,
                    "velocity": 0.5354330708661418,
                    "duration": 0.1363636000000028
                },
                {
                    "name": "A#4",
                    "midi": 70,
                    "time": 57.9602118166666,
                    "velocity": 0.5511811023622047,
                    "duration": 0.2727271999999985
                },
                {
                    "name": "F#4",
                    "midi": 66,
                    "time": 58.298279908333264,
                    "velocity": 0.6141732283464567,
                    "duration": 0.1363636000000028
                },
                {
                    "name": "G4",
                    "midi": 67,
                    "time": 58.6335070916666,
                    "velocity": 0.6141732283464567,
                    "duration": 0.1363636000000028
                },
                {
                    "name": "G#4",
                    "midi": 68,
                    "time": 58.974416091666605,
                    "velocity": 0.6220472440944882,
                    "duration": 0.1363636000000028
                },
                {
                    "name": "G#4",
                    "midi": 68,
                    "time": 59.32384781666661,
                    "velocity": 0.5511811023622047,
                    "duration": 0.2727271999999985
                },
                {
                    "name": "G#4",
                    "midi": 68,
                    "time": 59.656234091666605,
                    "velocity": 0.5354330708661418,
                    "duration": 0.2727271999999985
                },
                {
                    "name": "G#4",
                    "midi": 68,
                    "time": 59.999983999999934,
                    "velocity": 0.5354330708661418,
                    "duration": 0.2727271999999985
                },
                {
                    "name": "A#4",
                    "midi": 70,
                    "time": 61.3693018166666,
                    "velocity": 0.5511811023622047,
                    "duration": 0.2727271999999985
                },
                {
                    "name": "G4",
                    "midi": 67,
                    "time": 62.7244150916666,
                    "velocity": 0.6141732283464567,
                    "duration": 0.1363636000000028
                },
                {
                    "name": "F#4",
                    "midi": 66,
                    "time": 63.07100590833327,
                    "velocity": 0.6141732283464567,
                    "duration": 0.1363636000000028
                },
                {
                    "name": "F#4",
                    "midi": 66,
                    "time": 63.403392183333274,
                    "velocity": 0.5354330708661418,
                    "duration": 0.2727271999999985
                },
                {
                    "name": "F#4",
                    "midi": 66,
                    "time": 63.75282390833327,
                    "velocity": 0.5669291338582677,
                    "duration": 0.2727272000000056
                },
                {
                    "name": "F#4",
                    "midi": 66,
                    "time": 64.0965738166666,
                    "velocity": 0.5511811023622047,
                    "duration": 0.2727272000000056
                },
                {
                    "name": "B4",
                    "midi": 71,
                    "time": 64.76702818333328,
                    "velocity": 0.5511811023622047,
                    "duration": 0.2727272000000056
                },
                {
                    "name": "A#4",
                    "midi": 70,
                    "time": 65.10793718333329,
                    "velocity": 0.5433070866141733,
                    "duration": 0.2727272000000056
                },
                {
                    "name": "G#4",
                    "midi": 68,
                    "time": 65.46020981666663,
                    "velocity": 0.5669291338582677,
                    "duration": 0.2727272000000056
                },
                {
                    "name": "A#4",
                    "midi": 70,
                    "time": 65.79259609166664,
                    "velocity": 0.5590551181102362,
                    "duration": 0.2727272000000056
                },
                {
                    "name": "B4",
                    "midi": 71,
                    "time": 66.13918690833331,
                    "velocity": 0.5669291338582677,
                    "duration": 0.2727272000000056
                },
                {
                    "name": "G4",
                    "midi": 67,
                    "time": 68.17895909166666,
                    "velocity": 0.5511811023622047,
                    "duration": 0.2727272000000056
                },
                {
                    "name": "G4",
                    "midi": 67,
                    "time": 68.52270899999999,
                    "velocity": 0.5354330708661418,
                    "duration": 0.2727272000000056
                },
                {
                    "name": "G#4",
                    "midi": 68,
                    "time": 68.86645890833333,
                    "velocity": 0.5590551181102362,
                    "duration": 0.2727272000000056
                },
                {
                    "name": "B4",
                    "midi": 71,
                    "time": 69.03691340833333,
                    "velocity": 0.6377952755905512,
                    "duration": 0.1363635999999957
                },
                {
                    "name": "A#4",
                    "midi": 70,
                    "time": 69.20168609166666,
                    "velocity": 0.5354330708661418,
                    "duration": 0.2727272000000056
                },
                {
                    "name": "B4",
                    "midi": 71,
                    "time": 69.88634499999999,
                    "velocity": 0.6456692913385826,
                    "duration": 0.1363635999999957
                },
                {
                    "name": "G4",
                    "midi": 67,
                    "time": 70.23009490833331,
                    "velocity": 0.5433070866141733,
                    "duration": 0.2727272000000056
                },
                {
                    "name": "G4",
                    "midi": 67,
                    "time": 71.58804909166665,
                    "velocity": 0.5590551181102362,
                    "duration": 0.2727272000000056
                },
                {
                    "name": "G#4",
                    "midi": 68,
                    "time": 71.93463990833332,
                    "velocity": 0.5669291338582677,
                    "duration": 0.2727272000000056
                },
                {
                    "name": "A#4",
                    "midi": 70,
                    "time": 72.27838981666666,
                    "velocity": 0.5433070866141733,
                    "duration": 0.2727272000000056
                },
                {
                    "name": "A#4",
                    "midi": 70,
                    "time": 72.613617,
                    "velocity": 0.5511811023622047,
                    "duration": 0.2727272000000056
                },
                {
                    "name": "B4",
                    "midi": 71,
                    "time": 72.95452600000002,
                    "velocity": 0.5590551181102362,
                    "duration": 0.2727272000000056
                },
                {
                    "name": "B4",
                    "midi": 71,
                    "time": 86.63349962500001,
                    "velocity": 0.44881889763779526,
                    "duration": 0.2727272000000056
                },
                {
                    "name": "B4",
                    "midi": 71,
                    "time": 86.93463590833335,
                    "velocity": 0.4645669291338583,
                    "duration": 0.2727272000000056
                },
                {
                    "name": "A#4",
                    "midi": 70,
                    "time": 87.27554490833336,
                    "velocity": 0.4409448818897638,
                    "duration": 0.2727272000000056
                },
                {
                    "name": "G#4",
                    "midi": 68,
                    "time": 87.6107720916667,
                    "velocity": 0.4645669291338583,
                    "duration": 0.2727272000000056
                },
                {
                    "name": "G4",
                    "midi": 67,
                    "time": 87.94884018333337,
                    "velocity": 0.4409448818897638,
                    "duration": 0.2727272000000056
                },
                {
                    "name": "G#4",
                    "midi": 68,
                    "time": 88.28974918333338,
                    "velocity": 0.4566929133858268,
                    "duration": 0.2727272000000056
                },
                {
                    "name": "G4",
                    "midi": 67,
                    "time": 88.63918090833339,
                    "velocity": 0.4645669291338583,
                    "duration": 0.2727272000000056
                },
                {
                    "name": "A#4",
                    "midi": 70,
                    "time": 88.67611271666672,
                    "velocity": 0.4645669291338583,
                    "duration": 0.2727272000000056
                },
                {
                    "name": "B4",
                    "midi": 71,
                    "time": 94.80963380833339,
                    "velocity": 0.4566929133858268,
                    "duration": 0.2727272000000056
                },
                {
                    "name": "B4",
                    "midi": 71,
                    "time": 95.11929281666673,
                    "velocity": 0.4566929133858268,
                    "duration": 0.2727272000000056
                },
                {
                    "name": "A#4",
                    "midi": 70,
                    "time": 95.44883818333341,
                    "velocity": 0.4409448818897638,
                    "duration": 0.2727272000000056
                },
                {
                    "name": "G#4",
                    "midi": 68,
                    "time": 95.79258809166674,
                    "velocity": 0.4409448818897638,
                    "duration": 0.2727272000000056
                },
                {
                    "name": "G4",
                    "midi": 67,
                    "time": 96.13917890833342,
                    "velocity": 0.44881889763779526,
                    "duration": 0.2727272000000056
                },
                {
                    "name": "G#4",
                    "midi": 68,
                    "time": 96.48008790833343,
                    "velocity": 0.44881889763779526,
                    "duration": 0.2727272000000056
                },
                {
                    "name": "A#4",
                    "midi": 70,
                    "time": 96.8181560000001,
                    "velocity": 0.4645669291338583,
                    "duration": 0.2727272000000056
                },
                {
                    "name": "G4",
                    "midi": 67,
                    "time": 96.82383781666677,
                    "velocity": 0.4566929133858268,
                    "duration": 0.2727272000000056
                },
                {
                    "name": "G#4",
                    "midi": 68,
                    "time": 97.83804209166678,
                    "velocity": 0.4645669291338583,
                    "duration": 0.2727272000000056
                },
                {
                    "name": "A#4",
                    "midi": 70,
                    "time": 97.84656481666678,
                    "velocity": 0.4409448818897638,
                    "duration": 0.2727272000000056
                },
                {
                    "name": "G#4",
                    "midi": 68,
                    "time": 98.17611018333346,
                    "velocity": 0.4566929133858268,
                    "duration": 0.2727272000000056
                },
                {
                    "name": "A#4",
                    "midi": 70,
                    "time": 98.18463290833347,
                    "velocity": 0.4566929133858268,
                    "duration": 0.2727272000000056
                },
                {
                    "name": "G#4",
                    "midi": 68,
                    "time": 98.51701918333347,
                    "velocity": 0.44881889763779526,
                    "duration": 0.2727272000000056
                },
                {
                    "name": "A#4",
                    "midi": 70,
                    "time": 98.51986009166681,
                    "velocity": 0.4645669291338583,
                    "duration": 0.2727272000000056
                },
                {
                    "name": "G#4",
                    "midi": 68,
                    "time": 98.86361000000015,
                    "velocity": 0.44881889763779526,
                    "duration": 0.2727272000000056
                },
                {
                    "name": "B4",
                    "midi": 71,
                    "time": 98.86929181666682,
                    "velocity": 0.4645669291338583,
                    "duration": 0.2727272000000056
                },
                {
                    "name": "G4",
                    "midi": 67,
                    "time": 99.88349609166683,
                    "velocity": 0.4566929133858268,
                    "duration": 0.2727272000000056
                },
                {
                    "name": "B4",
                    "midi": 71,
                    "time": 101.24997300000017,
                    "velocity": 0.5590551181102362,
                    "duration": 0.1363635999999957
                },
                {
                    "name": "G4",
                    "midi": 67,
                    "time": 105.34656281666683,
                    "velocity": 0.5590551181102362,
                    "duration": 0.2727272000000056
                },
                {
                    "name": "G4",
                    "midi": 67,
                    "time": 105.68747181666684,
                    "velocity": 0.5511811023622047,
                    "duration": 0.2727272000000056
                },
                {
                    "name": "A#4",
                    "midi": 70,
                    "time": 106.36076709166684,
                    "velocity": 0.5354330708661418,
                    "duration": 0.2727272000000056
                },
                {
                    "name": "A#4",
                    "midi": 70,
                    "time": 106.69883518333351,
                    "velocity": 0.5354330708661418,
                    "duration": 0.2727272000000056
                },
                {
                    "name": "B4",
                    "midi": 71,
                    "time": 107.04542600000019,
                    "velocity": 0.6299212598425197,
                    "duration": 0.09090906666666854
                },
                {
                    "name": "B4",
                    "midi": 71,
                    "time": 107.15906233333352,
                    "velocity": 0.6141732283464567,
                    "duration": 0.09090906666666854
                },
                {
                    "name": "G#4",
                    "midi": 68,
                    "time": 107.38633500000019,
                    "velocity": 0.5433070866141733,
                    "duration": 0.2727272000000198
                },
                {
                    "name": "B4",
                    "midi": 71,
                    "time": 107.38917590833353,
                    "velocity": 0.6220472440944882,
                    "duration": 0.09090906666666854
                },
                {
                    "name": "B4",
                    "midi": 71,
                    "time": 107.49428951666687,
                    "velocity": 0.6377952755905512,
                    "duration": 0.09090906666666854
                },
                {
                    "name": "G#4",
                    "midi": 68,
                    "time": 107.72724400000021,
                    "velocity": 0.5354330708661418,
                    "duration": 0.2727272000000056
                },
                {
                    "name": "A#4",
                    "midi": 70,
                    "time": 107.73292581666688,
                    "velocity": 0.6377952755905512,
                    "duration": 0.09090906666666854
                },
                {
                    "name": "A#4",
                    "midi": 70,
                    "time": 107.83803942500022,
                    "velocity": 0.6141732283464567,
                    "duration": 0.09090906666666854
                },
                {
                    "name": "G#4",
                    "midi": 68,
                    "time": 108.07383481666689,
                    "velocity": 0.6141732283464567,
                    "duration": 0.09090906666666854
                },
                {
                    "name": "G#4",
                    "midi": 68,
                    "time": 108.17610751666689,
                    "velocity": 0.6299212598425197,
                    "duration": 0.09090906666666854
                },
                {
                    "name": "G4",
                    "midi": 67,
                    "time": 108.4062210916669,
                    "velocity": 0.6456692913385826,
                    "duration": 0.09090906666666854
                },
                {
                    "name": "G4",
                    "midi": 67,
                    "time": 108.52838015000023,
                    "velocity": 0.6220472440944882,
                    "duration": 0.09090906666666854
                },
                {
                    "name": "G#4",
                    "midi": 68,
                    "time": 108.7556528166669,
                    "velocity": 0.6220472440944882,
                    "duration": 0.09090906666666854
                },
                {
                    "name": "G#4",
                    "midi": 68,
                    "time": 108.8664482416669,
                    "velocity": 0.6299212598425197,
                    "duration": 0.09090906666666854
                },
                {
                    "name": "A#4",
                    "midi": 70,
                    "time": 109.08519818333357,
                    "velocity": 0.6456692913385826,
                    "duration": 0.09090906666666854
                },
                {
                    "name": "A#4",
                    "midi": 70,
                    "time": 109.20735724166691,
                    "velocity": 0.6220472440944882,
                    "duration": 0.09090906666666854
                },
                {
                    "name": "G4",
                    "midi": 67,
                    "time": 109.42894809166691,
                    "velocity": 0.5511811023622047,
                    "duration": 0.2727272000000056
                },
                {
                    "name": "G4",
                    "midi": 67,
                    "time": 113.52553790833358,
                    "velocity": 0.5511811023622047,
                    "duration": 0.2727272000000056
                },
                {
                    "name": "G4",
                    "midi": 67,
                    "time": 113.86076509166692,
                    "velocity": 0.5354330708661418,
                    "duration": 0.2727272000000056
                },
                {
                    "name": "A#4",
                    "midi": 70,
                    "time": 113.86928781666693,
                    "velocity": 0.5590551181102362,
                    "duration": 0.2727272000000056
                },
                {
                    "name": "B4",
                    "midi": 71,
                    "time": 114.20167409166693,
                    "velocity": 0.5590551181102362,
                    "duration": 0.2727272000000056
                },
                {
                    "name": "G#4",
                    "midi": 68,
                    "time": 114.2073559083336,
                    "velocity": 0.5511811023622047,
                    "duration": 0.2727272000000056
                },
                {
                    "name": "F#4",
                    "midi": 66,
                    "time": 114.5397421833336,
                    "velocity": 0.5433070866141733,
                    "duration": 0.2727271999999914
                },
                {
                    "name": "A#4",
                    "midi": 70,
                    "time": 114.55110581666693,
                    "velocity": 0.5669291338582677,
                    "duration": 0.2727271999999914
                },
                {
                    "name": "G#4",
                    "midi": 68,
                    "time": 114.88917390833359,
                    "velocity": 0.5590551181102362,
                    "duration": 0.2727272000000056
                },
                {
                    "name": "B4",
                    "midi": 71,
                    "time": 115.22440109166693,
                    "velocity": 0.5433070866141733,
                    "duration": 0.2727272000000056
                },
                {
                    "name": "G#4",
                    "midi": 68,
                    "time": 115.23292381666694,
                    "velocity": 0.5433070866141733,
                    "duration": 0.2727272000000056
                },
                {
                    "name": "G4",
                    "midi": 67,
                    "time": 117.36360506666695,
                    "velocity": 0.5354330708661418,
                    "duration": 0.2727272000000056
                },
                {
                    "name": "G#4",
                    "midi": 68,
                    "time": 119.44314996666695,
                    "velocity": 0.5354330708661418,
                    "duration": 0.2727272000000056
                },
                {
                    "name": "B4",
                    "midi": 71,
                    "time": 122.72155818333363,
                    "velocity": 0.6377952755905512,
                    "duration": 0.1363635999999957
                },
                {
                    "name": "G#4",
                    "midi": 68,
                    "time": 122.7272400000003,
                    "velocity": 0.5669291338582677,
                    "duration": 0.1363635999999957
                },
                {
                    "name": "A#4",
                    "midi": 70,
                    "time": 122.89485359166696,
                    "velocity": 0.6377952755905512,
                    "duration": 0.1363636000000099
                },
                {
                    "name": "G4",
                    "midi": 67,
                    "time": 122.8976945000003,
                    "velocity": 0.5354330708661418,
                    "duration": 0.1363636000000099
                },
                {
                    "name": "B4",
                    "midi": 71,
                    "time": 123.06246718333364,
                    "velocity": 0.6377952755905512,
                    "duration": 0.1363636000000099
                },
                {
                    "name": "A4",
                    "midi": 69,
                    "time": 123.07098990833364,
                    "velocity": 0.6220472440944882,
                    "duration": 0.1363636000000099
                },
                {
                    "name": "F#4",
                    "midi": 66,
                    "time": 123.07383081666698,
                    "velocity": 0.5669291338582677,
                    "duration": 0.1363636000000099
                },
                {
                    "name": "G#4",
                    "midi": 68,
                    "time": 123.24144440833366,
                    "velocity": 0.6299212598425197,
                    "duration": 0.1363635999999957
                },
                {
                    "name": "B4",
                    "midi": 71,
                    "time": 123.24144440833366,
                    "velocity": 0.6220472440944882,
                    "duration": 0.1363635999999957
                },
                {
                    "name": "G4",
                    "midi": 67,
                    "time": 123.40337618333366,
                    "velocity": 0.6299212598425197,
                    "duration": 0.1363635999999957
                },
                {
                    "name": "B4",
                    "midi": 71,
                    "time": 123.40905800000033,
                    "velocity": 0.6377952755905512,
                    "duration": 0.1363635999999957
                },
                {
                    "name": "B4",
                    "midi": 71,
                    "time": 123.576671591667,
                    "velocity": 0.6456692913385826,
                    "duration": 0.1363635999999957
                },
                {
                    "name": "F#4",
                    "midi": 66,
                    "time": 123.58235340833366,
                    "velocity": 0.6377952755905512,
                    "duration": 0.1363635999999957
                },
                {
                    "name": "B4",
                    "midi": 71,
                    "time": 123.75280790833365,
                    "velocity": 0.6299212598425197,
                    "duration": 0.1363635999999957
                },
                {
                    "name": "B4",
                    "midi": 71,
                    "time": 123.92042150000032,
                    "velocity": 0.6220472440944882,
                    "duration": 0.1363635999999957
                },
                {
                    "name": "B4",
                    "midi": 71,
                    "time": 124.17042143333364,
                    "velocity": 0.6456692913385826,
                    "duration": 0.07386361666667085
                },
                {
                    "name": "A#4",
                    "midi": 70,
                    "time": 124.25564868333365,
                    "velocity": 0.6299212598425197,
                    "duration": 0.07386361666667085
                },
                {
                    "name": "B4",
                    "midi": 71,
                    "time": 124.34087593333365,
                    "velocity": 0.6299212598425197,
                    "duration": 0.07386361666667085
                },
                {
                    "name": "F#4",
                    "midi": 66,
                    "time": 124.43462590833366,
                    "velocity": 0.6377952755905512,
                    "duration": 0.2556817499999937
                },
                {
                    "name": "B4",
                    "midi": 71,
                    "time": 124.76701218333365,
                    "velocity": 0.6220472440944882,
                    "duration": 0.2556817499999937
                },
                {
                    "name": "F#4",
                    "midi": 66,
                    "time": 124.77269400000031,
                    "velocity": 0.5511811023622047,
                    "duration": 0.2727271999999914
                },
                {
                    "name": "F#4",
                    "midi": 66,
                    "time": 125.79826190833364,
                    "velocity": 0.5590551181102362,
                    "duration": 0.2727272000000056
                },
                {
                    "name": "B4",
                    "midi": 71,
                    "time": 126.48007990833365,
                    "velocity": 0.6141732283464567,
                    "duration": 0.1363635999999957
                },
                {
                    "name": "B4",
                    "midi": 71,
                    "time": 126.8181480000003,
                    "velocity": 0.5433070866141733,
                    "duration": 0.2727272000000056
                },
                {
                    "name": "A#4",
                    "midi": 70,
                    "time": 127.15621609166698,
                    "velocity": 0.5511811023622047,
                    "duration": 0.1363635999999957
                },
                {
                    "name": "A4",
                    "midi": 69,
                    "time": 127.32382968333364,
                    "velocity": 0.5669291338582677,
                    "duration": 0.1363635999999957
                },
                {
                    "name": "B4",
                    "midi": 71,
                    "time": 127.49712509166697,
                    "velocity": 0.6299212598425197,
                    "duration": 0.1363635999999957
                },
                {
                    "name": "G#4",
                    "midi": 68,
                    "time": 127.50280690833364,
                    "velocity": 0.5433070866141733,
                    "duration": 0.1363635999999957
                },
                {
                    "name": "G4",
                    "midi": 67,
                    "time": 127.6704205000003,
                    "velocity": 0.5669291338582677,
                    "duration": 0.1363636000000099
                },
                {
                    "name": "A#4",
                    "midi": 70,
                    "time": 127.67326140833364,
                    "velocity": 0.6141732283464567,
                    "duration": 0.1363636000000099
                },
                {
                    "name": "F#4",
                    "midi": 66,
                    "time": 127.84087500000032,
                    "velocity": 0.5590551181102362,
                    "duration": 0.1363635999999957
                },
                {
                    "name": "A4",
                    "midi": 69,
                    "time": 127.84087500000032,
                    "velocity": 0.6456692913385826,
                    "duration": 0.1363635999999957
                },
                {
                    "name": "G#4",
                    "midi": 68,
                    "time": 128.01132950000033,
                    "velocity": 0.6299212598425197,
                    "duration": 0.1363636000000099
                },
                {
                    "name": "A#4",
                    "midi": 70,
                    "time": 128.51701118333366,
                    "velocity": 0.6456692913385826,
                    "duration": 0.2556817500000079
                },
                {
                    "name": "F#4",
                    "midi": 66,
                    "time": 128.52553390833367,
                    "velocity": 0.5590551181102362,
                    "duration": 0.2727271999999914
                },
                {
                    "name": "F#4",
                    "midi": 66,
                    "time": 128.86360200000033,
                    "velocity": 0.5511811023622047,
                    "duration": 0.2727272000000198
                },
                {
                    "name": "A#4",
                    "midi": 70,
                    "time": 128.869283816667,
                    "velocity": 0.5354330708661418,
                    "duration": 0.2727272000000198
                },
                {
                    "name": "G#4",
                    "midi": 68,
                    "time": 129.55110181666703,
                    "velocity": 0.5669291338582677,
                    "duration": 0.2727271999999914
                },
                {
                    "name": "A#4",
                    "midi": 70,
                    "time": 129.88916990833368,
                    "velocity": 0.5511811023622047,
                    "duration": 0.2727271999999914
                },
                {
                    "name": "F#4",
                    "midi": 66,
                    "time": 130.573828816667,
                    "velocity": 0.5433070866141733,
                    "duration": 0.1363636000000099
                },
                {
                    "name": "B4",
                    "midi": 71,
                    "time": 131.596555816667,
                    "velocity": 0.5433070866141733,
                    "duration": 0.1363636000000099
                },
                {
                    "name": "A#4",
                    "midi": 70,
                    "time": 131.767010316667,
                    "velocity": 0.5354330708661418,
                    "duration": 0.1363636000000099
                },
                {
                    "name": "A4",
                    "midi": 69,
                    "time": 131.928942091667,
                    "velocity": 0.5669291338582677,
                    "duration": 0.1363636000000099
                },
                {
                    "name": "G#4",
                    "midi": 68,
                    "time": 132.0965556833337,
                    "velocity": 0.5669291338582677,
                    "duration": 0.1363636000000099
                },
                {
                    "name": "B4",
                    "midi": 71,
                    "time": 132.0965556833337,
                    "velocity": 0.6456692913385826,
                    "duration": 0.1363636000000099
                },
                {
                    "name": "F#4",
                    "midi": 66,
                    "time": 132.6079191833337,
                    "velocity": 0.5354330708661418,
                    "duration": 0.2727272000000198
                },
                {
                    "name": "A#4",
                    "midi": 70,
                    "time": 132.6164419083337,
                    "velocity": 0.5354330708661418,
                    "duration": 0.2727272000000198
                },
                {
                    "name": "A#4",
                    "midi": 70,
                    "time": 132.9545100000004,
                    "velocity": 0.5511811023622047,
                    "duration": 0.2727271999999914
                },
                {
                    "name": "B4",
                    "midi": 71,
                    "time": 133.6363280000004,
                    "velocity": 0.5669291338582677,
                    "duration": 0.2727271999999914
                },
                {
                    "name": "F#4",
                    "midi": 66,
                    "time": 134.31530509166706,
                    "velocity": 0.5590551181102362,
                    "duration": 0.2727271999999914
                },
                {
                    "name": "B4",
                    "midi": 71,
                    "time": 135.68746381666705,
                    "velocity": 0.5590551181102362,
                    "duration": 0.1363636000000099
                },
                {
                    "name": "A#4",
                    "midi": 70,
                    "time": 136.69882718333372,
                    "velocity": 0.5590551181102362,
                    "duration": 0.1363636000000099
                },
                {
                    "name": "B4",
                    "midi": 71,
                    "time": 136.87780440833373,
                    "velocity": 0.5590551181102362,
                    "duration": 0.1363636000000099
                },
                {
                    "name": "G#4",
                    "midi": 68,
                    "time": 137.73007690833373,
                    "velocity": 0.5433070866141733,
                    "duration": 0.1363636000000099
                },
                {
                    "name": "A#4",
                    "midi": 70,
                    "time": 137.90053140833373,
                    "velocity": 0.5354330708661418,
                    "duration": 0.1363636000000099
                },
                {
                    "name": "B4",
                    "midi": 71,
                    "time": 138.06246318333373,
                    "velocity": 0.5669291338582677,
                    "duration": 0.2727271999999914
                },
                {
                    "name": "F#4",
                    "midi": 66,
                    "time": 138.41473581666705,
                    "velocity": 0.5669291338582677,
                    "duration": 0.2727271999999914
                },
                {
                    "name": "G#4",
                    "midi": 68,
                    "time": 141.47439409166705,
                    "velocity": 0.5511811023622047,
                    "duration": 0.2727271999999914
                },
                {
                    "name": "F#4",
                    "midi": 66,
                    "time": 145.56530209166704,
                    "velocity": 0.5354330708661418,
                    "duration": 0.2727271999999914
                },
                {
                    "name": "B4",
                    "midi": 71,
                    "time": 146.59087000000036,
                    "velocity": 0.5354330708661418,
                    "duration": 0.2727271999999914
                },
                {
                    "name": "G4",
                    "midi": 67,
                    "time": 147.95734690833368,
                    "velocity": 0.5590551181102362,
                    "duration": 0.2727271999999914
                },
                {
                    "name": "G#4",
                    "midi": 68,
                    "time": 148.292574091667,
                    "velocity": 0.5511811023622047,
                    "duration": 0.2727271999999914
                },
                {
                    "name": "A#4",
                    "midi": 70,
                    "time": 148.63064218333366,
                    "velocity": 0.5354330708661418,
                    "duration": 0.2727271999999914
                },
                {
                    "name": "G4",
                    "midi": 67,
                    "time": 148.642005816667,
                    "velocity": 0.5354330708661418,
                    "duration": 0.2727271999999914
                },
                {
                    "name": "B4",
                    "midi": 71,
                    "time": 149.65336918333367,
                    "velocity": 0.5669291338582677,
                    "duration": 0.2727272000000198
                },
                {
                    "name": "G#4",
                    "midi": 68,
                    "time": 149.66189190833367,
                    "velocity": 0.5511811023622047,
                    "duration": 0.2727272000000198
                },
                {
                    "name": "A#4",
                    "midi": 70,
                    "time": 151.01700518333368,
                    "velocity": 0.6456692913385826,
                    "duration": 0.2556817500000079
                },
                {
                    "name": "G4",
                    "midi": 67,
                    "time": 152.05109581666702,
                    "velocity": 0.5590551181102362,
                    "duration": 0.2727271999999914
                },
                {
                    "name": "G#4",
                    "midi": 68,
                    "time": 152.38348209166702,
                    "velocity": 0.5511811023622047,
                    "duration": 0.2727271999999914
                },
                {
                    "name": "G4",
                    "midi": 67,
                    "time": 152.724391091667,
                    "velocity": 0.5669291338582677,
                    "duration": 0.2727271999999914
                },
                {
                    "name": "A#4",
                    "midi": 70,
                    "time": 152.72723200000033,
                    "velocity": 0.5433070866141733,
                    "duration": 0.2727271999999914
                },
                {
                    "name": "B4",
                    "midi": 71,
                    "time": 153.74427718333365,
                    "velocity": 0.5669291338582677,
                    "duration": 0.2727271999999914
                },
                {
                    "name": "G#4",
                    "midi": 68,
                    "time": 153.75564081666698,
                    "velocity": 0.5354330708661418,
                    "duration": 0.2727271999999914
                },
                {
                    "name": "A#4",
                    "midi": 70,
                    "time": 154.81245871666698,
                    "velocity": 0.5511811023622047,
                    "duration": 0.2727271999999914
                },
                {
                    "name": "B4",
                    "midi": 71,
                    "time": 155.84086753333364,
                    "velocity": 0.5433070866141733,
                    "duration": 0.2727271999999914
                },
                {
                    "name": "G4",
                    "midi": 67,
                    "time": 156.86359453333364,
                    "velocity": 0.5354330708661418,
                    "duration": 0.2727271999999914
                },
                {
                    "name": "B4",
                    "midi": 71,
                    "time": 161.47722966666697,
                    "velocity": 0.6220472440944882,
                    "duration": 0.05113635000000727
                },
                {
                    "name": "A#4",
                    "midi": 70,
                    "time": 161.5397296500003,
                    "velocity": 0.6141732283464567,
                    "duration": 0.05113635000000727
                },
                {
                    "name": "B4",
                    "midi": 71,
                    "time": 161.60222963333365,
                    "velocity": 0.6141732283464567,
                    "duration": 0.05113635000000727
                },
                {
                    "name": "A#4",
                    "midi": 70,
                    "time": 161.65620689166698,
                    "velocity": 0.6299212598425197,
                    "duration": 0.05113635000000727
                },
                {
                    "name": "A4",
                    "midi": 69,
                    "time": 161.72722960000033,
                    "velocity": 0.6299212598425197,
                    "duration": 0.05113635000000727
                },
                {
                    "name": "G#4",
                    "midi": 68,
                    "time": 161.77836595000034,
                    "velocity": 0.6377952755905512,
                    "duration": 0.05113635000000727
                },
                {
                    "name": "A4",
                    "midi": 69,
                    "time": 161.852229566667,
                    "velocity": 0.6377952755905512,
                    "duration": 0.05113635000000727
                },
                {
                    "name": "G#4",
                    "midi": 68,
                    "time": 161.9090477333337,
                    "velocity": 0.6377952755905512,
                    "duration": 0.05113635000000727
                },
                {
                    "name": "G4",
                    "midi": 67,
                    "time": 161.9772295333337,
                    "velocity": 0.6299212598425197,
                    "duration": 0.05113635000000727
                },
                {
                    "name": "F#4",
                    "midi": 66,
                    "time": 162.03120679166705,
                    "velocity": 0.6377952755905512,
                    "duration": 0.05113635000000727
                },
                {
                    "name": "G4",
                    "midi": 67,
                    "time": 162.0965476833337,
                    "velocity": 0.6456692913385826,
                    "duration": 0.05113635000000727
                },
                {
                    "name": "F#4",
                    "midi": 66,
                    "time": 162.16472948333373,
                    "velocity": 0.6299212598425197,
                    "duration": 0.05113635000000727
                },
                {
                    "name": "F#4",
                    "midi": 66,
                    "time": 162.66188844166706,
                    "velocity": 0.6141732283464567,
                    "duration": 0.05113635000000727
                },
                {
                    "name": "G4",
                    "midi": 67,
                    "time": 162.78972931666706,
                    "velocity": 0.6377952755905512,
                    "duration": 0.05113635000000727
                },
                {
                    "name": "F#4",
                    "midi": 66,
                    "time": 162.84654748333375,
                    "velocity": 0.6456692913385826,
                    "duration": 0.05113635000000727
                },
                {
                    "name": "G#4",
                    "midi": 68,
                    "time": 162.85222930000043,
                    "velocity": 0.6220472440944882,
                    "duration": 0.05113635000000727
                },
                {
                    "name": "G4",
                    "midi": 67,
                    "time": 162.90904746666712,
                    "velocity": 0.6377952755905512,
                    "duration": 0.04545453333332716
                },
                {
                    "name": "A4",
                    "midi": 69,
                    "time": 162.95166109166712,
                    "velocity": 0.6456692913385826,
                    "duration": 0.05113634999997885
                },
                {
                    "name": "G#4",
                    "midi": 68,
                    "time": 162.95166109166712,
                    "velocity": 0.6220472440944882,
                    "duration": 0.05113634999997885
                },
                {
                    "name": "A#4",
                    "midi": 70,
                    "time": 163.01700198333376,
                    "velocity": 0.6220472440944882,
                    "duration": 0.05113635000000727
                },
                {
                    "name": "A4",
                    "midi": 69,
                    "time": 163.08518378333378,
                    "velocity": 0.6220472440944882,
                    "duration": 0.05113635000000727
                },
                {
                    "name": "B4",
                    "midi": 71,
                    "time": 163.1448428583338,
                    "velocity": 0.6299212598425197,
                    "duration": 0.05113635000000727
                },
                {
                    "name": "A#4",
                    "midi": 70,
                    "time": 163.21018375000045,
                    "velocity": 0.6220472440944882,
                    "duration": 0.05113635000000727
                },
                {
                    "name": "B4",
                    "midi": 71,
                    "time": 163.33518371666713,
                    "velocity": 0.6299212598425197,
                    "duration": 0.05113635000000727
                },
                {
                    "name": "G#4",
                    "midi": 68,
                    "time": 173.1760901833338,
                    "velocity": 0.5669291338582677,
                    "duration": 0.2727271999999914
                },
                {
                    "name": "B4",
                    "midi": 71,
                    "time": 174.21018081666713,
                    "velocity": 0.5511811023622047,
                    "duration": 0.2727271999999914
                },
                {
                    "name": "G4",
                    "midi": 67,
                    "time": 176.24711209166713,
                    "velocity": 0.5511811023622047,
                    "duration": 0.2727272000000198
                },
                {
                    "name": "A#4",
                    "midi": 70,
                    "time": 176.25563481666714,
                    "velocity": 0.5669291338582677,
                    "duration": 0.2727272000000198
                },
                {
                    "name": "G#4",
                    "midi": 68,
                    "time": 177.26983909166717,
                    "velocity": 0.5433070866141733,
                    "duration": 0.2727272000000198
                },
                {
                    "name": "B4",
                    "midi": 71,
                    "time": 177.27552090833385,
                    "velocity": 0.5433070866141733,
                    "duration": 0.2727272000000198
                },
                {
                    "name": "B4",
                    "midi": 71,
                    "time": 177.61358900000053,
                    "velocity": 0.5433070866141733,
                    "duration": 0.2727271999999914
                },
                {
                    "name": "G#4",
                    "midi": 68,
                    "time": 177.61642990833386,
                    "velocity": 0.5511811023622047,
                    "duration": 0.2727271999999914
                },
                {
                    "name": "A#4",
                    "midi": 70,
                    "time": 177.9516570916672,
                    "velocity": 0.5590551181102362,
                    "duration": 0.2727271999999914
                },
                {
                    "name": "G4",
                    "midi": 67,
                    "time": 177.9544980000005,
                    "velocity": 0.5669291338582677,
                    "duration": 0.2727271999999914
                },
                {
                    "name": "G#4",
                    "midi": 68,
                    "time": 178.28972518333384,
                    "velocity": 0.5590551181102362,
                    "duration": 0.2727271999999914
                },
                {
                    "name": "G4",
                    "midi": 67,
                    "time": 178.63915690833383,
                    "velocity": 0.5511811023622047,
                    "duration": 0.2727271999999914
                },
                {
                    "name": "G#4",
                    "midi": 68,
                    "time": 178.97438409166716,
                    "velocity": 0.5511811023622047,
                    "duration": 0.2727271999999914
                },
                {
                    "name": "G4",
                    "midi": 67,
                    "time": 179.3181340000005,
                    "velocity": 0.5669291338582677,
                    "duration": 0.2727271999999914
                },
                {
                    "name": "A#4",
                    "midi": 70,
                    "time": 179.32097490833382,
                    "velocity": 0.5433070866141733,
                    "duration": 0.2727271999999914
                },
                {
                    "name": "B4",
                    "midi": 71,
                    "time": 181.41188344166716,
                    "velocity": 0.5354330708661418,
                    "duration": 0.2727271999999914
                },
                {
                    "name": "B4",
                    "midi": 71,
                    "time": 181.7073379083338,
                    "velocity": 0.5669291338582677,
                    "duration": 0.2727271999999914
                },
                {
                    "name": "A#4",
                    "midi": 70,
                    "time": 182.03972418333382,
                    "velocity": 0.5354330708661418,
                    "duration": 0.2727271999999914
                },
                {
                    "name": "G#4",
                    "midi": 68,
                    "time": 182.38347409166715,
                    "velocity": 0.5669291338582677,
                    "duration": 0.2727271999999914
                },
                {
                    "name": "G4",
                    "midi": 67,
                    "time": 182.72438309166714,
                    "velocity": 0.5590551181102362,
                    "duration": 0.2727271999999914
                },
                {
                    "name": "G#4",
                    "midi": 68,
                    "time": 183.06813300000047,
                    "velocity": 0.5590551181102362,
                    "duration": 0.2727271999999914
                },
                {
                    "name": "A#4",
                    "midi": 70,
                    "time": 183.40620109166713,
                    "velocity": 0.5511811023622047,
                    "duration": 0.2727272000000198
                },
                {
                    "name": "G4",
                    "midi": 67,
                    "time": 183.41472381666713,
                    "velocity": 0.5433070866141733,
                    "duration": 0.2727272000000198
                },
                {
                    "name": "G#4",
                    "midi": 68,
                    "time": 184.43745081666717,
                    "velocity": 0.5354330708661418,
                    "duration": 0.2727271999999914
                },
                {
                    "name": "F#4",
                    "midi": 66,
                    "time": 184.7726780000005,
                    "velocity": 0.5669291338582677,
                    "duration": 0.2727271999999914
                },
                {
                    "name": "B4",
                    "midi": 71,
                    "time": 185.80108681666715,
                    "velocity": 0.5669291338582677,
                    "duration": 0.1363636000000099
                },
                {
                    "name": "A#4",
                    "midi": 70,
                    "time": 186.8181320000005,
                    "velocity": 0.5669291338582677,
                    "duration": 0.1363636000000099
                },
                {
                    "name": "B4",
                    "midi": 71,
                    "time": 187.90335898333385,
                    "velocity": 0.5354330708661418,
                    "duration": 0.04545453333332716
                },
                {
                    "name": "G4",
                    "midi": 67,
                    "time": 191.92892609166717,
                    "velocity": 0.5433070866141733,
                    "duration": 0.2727271999999914
                },
                {
                    "name": "G4",
                    "midi": 67,
                    "time": 192.26983509166715,
                    "velocity": 0.5354330708661418,
                    "duration": 0.2727271999999914
                },
                {
                    "name": "A#4",
                    "midi": 70,
                    "time": 192.95449400000047,
                    "velocity": 0.5354330708661418,
                    "duration": 0.2727271999999914
                },
                {
                    "name": "A#4",
                    "midi": 70,
                    "time": 193.29540300000045,
                    "velocity": 0.5354330708661418,
                    "duration": 0.2727271999999914
                },
                {
                    "name": "B4",
                    "midi": 71,
                    "time": 193.63063018333378,
                    "velocity": 0.6377952755905512,
                    "duration": 0.2556817500000079
                },
                {
                    "name": "G#4",
                    "midi": 68,
                    "time": 193.9715391833338,
                    "velocity": 0.5590551181102362,
                    "duration": 0.2727271999999914
                },
                {
                    "name": "B4",
                    "midi": 71,
                    "time": 193.97438009166711,
                    "velocity": 0.6299212598425197,
                    "duration": 0.2556817500000079
                },
                {
                    "name": "A#4",
                    "midi": 70,
                    "time": 194.31813000000045,
                    "velocity": 0.6141732283464567,
                    "duration": 0.2556817500000079
                },
                {
                    "name": "G#4",
                    "midi": 68,
                    "time": 194.6647208166671,
                    "velocity": 0.6377952755905512,
                    "duration": 0.2556817500000079
                },
                {
                    "name": "G4",
                    "midi": 67,
                    "time": 194.9942661833338,
                    "velocity": 0.6141732283464567,
                    "duration": 0.2556817500000079
                },
                {
                    "name": "G#4",
                    "midi": 68,
                    "time": 195.34085700000045,
                    "velocity": 0.6299212598425197,
                    "duration": 0.2556817500000079
                },
                {
                    "name": "A#4",
                    "midi": 70,
                    "time": 195.68744781666712,
                    "velocity": 0.6377952755905512,
                    "duration": 0.2556817500000079
                },
                {
                    "name": "G4",
                    "midi": 67,
                    "time": 196.36642490833378,
                    "velocity": 0.5511811023622047,
                    "duration": 0.2727271999999914
                },
                {
                    "name": "A#4",
                    "midi": 70,
                    "time": 196.3692658166671,
                    "velocity": 0.5354330708661418,
                    "duration": 0.2727271999999914
                },
                {
                    "name": "F#4",
                    "midi": 66,
                    "time": 198.0738108166671,
                    "velocity": 0.5511811023622047,
                    "duration": 0.2727271999999914
                },
                {
                    "name": "F#4",
                    "midi": 66,
                    "time": 198.4147198166671,
                    "velocity": 0.5590551181102362,
                    "duration": 0.2727271999999914
                },
                {
                    "name": "F#4",
                    "midi": 66,
                    "time": 199.0908560000004,
                    "velocity": 0.5354330708661418,
                    "duration": 0.2727271999999914
                },
                {
                    "name": "F#4",
                    "midi": 66,
                    "time": 199.42892409166706,
                    "velocity": 0.5669291338582677,
                    "duration": 0.2727271999999914
                },
                {
                    "name": "A4",
                    "midi": 69,
                    "time": 200.1164239083337,
                    "velocity": 0.5669291338582677,
                    "duration": 0.2727271999999914
                },
                {
                    "name": "A4",
                    "midi": 69,
                    "time": 200.45733290833368,
                    "velocity": 0.5354330708661418,
                    "duration": 0.2727271999999914
                },
                {
                    "name": "A4",
                    "midi": 69,
                    "time": 200.79540100000034,
                    "velocity": 0.5669291338582677,
                    "duration": 0.2727271999999914
                },
                {
                    "name": "A4",
                    "midi": 69,
                    "time": 201.13915090833368,
                    "velocity": 0.5354330708661418,
                    "duration": 0.2727271999999914
                },
                {
                    "name": "F#4",
                    "midi": 66,
                    "time": 201.13915090833368,
                    "velocity": 0.5511811023622047,
                    "duration": 0.2727271999999914
                },
                {
                    "name": "A4",
                    "midi": 69,
                    "time": 201.47153718333368,
                    "velocity": 0.5354330708661418,
                    "duration": 0.2727271999999914
                },
                {
                    "name": "G#4",
                    "midi": 68,
                    "time": 201.81244618333366,
                    "velocity": 0.5354330708661418,
                    "duration": 0.2727271999999914
                },
                {
                    "name": "B4",
                    "midi": 71,
                    "time": 201.823809816667,
                    "velocity": 0.5590551181102362,
                    "duration": 0.2727271999999914
                },
                {
                    "name": "G4",
                    "midi": 67,
                    "time": 203.17608218333365,
                    "velocity": 0.5354330708661418,
                    "duration": 0.2727271999999914
                },
                {
                    "name": "A#4",
                    "midi": 70,
                    "time": 204.14483192500032,
                    "velocity": 0.6141732283464567,
                    "duration": 0.04545453333332716
                },
                {
                    "name": "G4",
                    "midi": 67,
                    "time": 204.2044910000003,
                    "velocity": 0.6220472440944882,
                    "duration": 0.04545453333332716
                },
                {
                    "name": "G#4",
                    "midi": 68,
                    "time": 204.7755135750003,
                    "velocity": 0.6141732283464567,
                    "duration": 0.04545453333332716
                },
                {
                    "name": "B4",
                    "midi": 71,
                    "time": 204.82380901666696,
                    "velocity": 0.6299212598425197,
                    "duration": 0.04545453333332716
                },
                {
                    "name": "G#4",
                    "midi": 68,
                    "time": 206.07380868333362,
                    "velocity": 0.5511811023622047,
                    "duration": 0.1363635999999815
                },
                {
                    "name": "B4",
                    "midi": 71,
                    "time": 206.07664959166695,
                    "velocity": 0.6220472440944882,
                    "duration": 0.1363635999999815
                },
                {
                    "name": "A#4",
                    "midi": 70,
                    "time": 206.24710409166693,
                    "velocity": 0.5511811023622047,
                    "duration": 0.1363636000000099
                },
                {
                    "name": "B4",
                    "midi": 71,
                    "time": 206.2527859083336,
                    "velocity": 0.6456692913385826,
                    "duration": 0.1363636000000099
                },
                {
                    "name": "G4",
                    "midi": 67,
                    "time": 206.25562681666693,
                    "velocity": 0.5354330708661418,
                    "duration": 0.1363636000000099
                },
                {
                    "name": "F#4",
                    "midi": 66,
                    "time": 206.4203995000003,
                    "velocity": 0.5511811023622047,
                    "duration": 0.1363635999999815
                },
                {
                    "name": "B4",
                    "midi": 71,
                    "time": 206.4203995000003,
                    "velocity": 0.6141732283464567,
                    "duration": 0.1363635999999815
                },
                {
                    "name": "A4",
                    "midi": 69,
                    "time": 206.4232404083336,
                    "velocity": 0.5590551181102362,
                    "duration": 0.1363635999999815
                },
                {
                    "name": "B4",
                    "midi": 71,
                    "time": 206.5936949083336,
                    "velocity": 0.6141732283464567,
                    "duration": 0.1363635999999815
                },
                {
                    "name": "G#4",
                    "midi": 68,
                    "time": 206.59653581666691,
                    "velocity": 0.5511811023622047,
                    "duration": 0.1363635999999815
                },
                {
                    "name": "B4",
                    "midi": 71,
                    "time": 206.75846759166689,
                    "velocity": 0.6456692913385826,
                    "duration": 0.1363635999999815
                },
                {
                    "name": "G4",
                    "midi": 67,
                    "time": 206.7613085000002,
                    "velocity": 0.5433070866141733,
                    "duration": 0.1363635999999815
                },
                {
                    "name": "F#4",
                    "midi": 66,
                    "time": 207.1022175000002,
                    "velocity": 0.6299212598425197,
                    "duration": 0.10227269999998612
                },
                {
                    "name": "B4",
                    "midi": 71,
                    "time": 207.26983109166684,
                    "velocity": 0.6220472440944882,
                    "duration": 0.10227269999998612
                },
                {
                    "name": "F#4",
                    "midi": 66,
                    "time": 207.4459674083335,
                    "velocity": 0.6141732283464567,
                    "duration": 0.10227269999998612
                },
                {
                    "name": "F#4",
                    "midi": 66,
                    "time": 207.77835368333348,
                    "velocity": 0.6456692913385826,
                    "duration": 0.10227269999998612
                },
                {
                    "name": "F#4",
                    "midi": 66,
                    "time": 208.12494450000014,
                    "velocity": 0.6299212598425197,
                    "duration": 0.10227269999998612
                },
                {
                    "name": "F#4",
                    "midi": 66,
                    "time": 208.4715353166668,
                    "velocity": 0.6220472440944882,
                    "duration": 0.10227269999998612
                },
                {
                    "name": "F#4",
                    "midi": 66,
                    "time": 208.80960340833346,
                    "velocity": 0.6220472440944882,
                    "duration": 0.10227269999998612
                },
                {
                    "name": "F#4",
                    "midi": 66,
                    "time": 209.15335331666677,
                    "velocity": 0.6220472440944882,
                    "duration": 0.10227269999998612
                },
                {
                    "name": "B4",
                    "midi": 71,
                    "time": 210.17608031666674,
                    "velocity": 0.5669291338582677,
                    "duration": 0.10227269999998612
                },
                {
                    "name": "B4",
                    "midi": 71,
                    "time": 210.34085300000007,
                    "velocity": 0.5354330708661418,
                    "duration": 0.10227269999998612
                },
                {
                    "name": "A#4",
                    "midi": 70,
                    "time": 210.51130750000004,
                    "velocity": 0.5433070866141733,
                    "duration": 0.10227269999998612
                },
                {
                    "name": "A4",
                    "midi": 69,
                    "time": 210.68176200000002,
                    "velocity": 0.5354330708661418,
                    "duration": 0.10227269999998612
                },
                {
                    "name": "B4",
                    "midi": 71,
                    "time": 210.85789831666668,
                    "velocity": 0.5590551181102362,
                    "duration": 0.10227269999998612
                },
                {
                    "name": "G#4",
                    "midi": 68,
                    "time": 210.85789831666668,
                    "velocity": 0.5511811023622047,
                    "duration": 0.10227269999998612
                },
                {
                    "name": "A#4",
                    "midi": 70,
                    "time": 211.19880731666666,
                    "velocity": 0.6299212598425197,
                    "duration": 0.10227269999998612
                },
                {
                    "name": "F#4",
                    "midi": 66,
                    "time": 211.19880731666666,
                    "velocity": 0.5354330708661418,
                    "duration": 0.10227269999998612
                },
                {
                    "name": "A#4",
                    "midi": 70,
                    "time": 211.53687540833332,
                    "velocity": 0.6299212598425197,
                    "duration": 0.10227269999998612
                },
                {
                    "name": "F#4",
                    "midi": 66,
                    "time": 211.53971631666664,
                    "velocity": 0.5354330708661418,
                    "duration": 0.10227269999998612
                },
                {
                    "name": "A#4",
                    "midi": 70,
                    "time": 211.87210259166662,
                    "velocity": 0.6141732283464567,
                    "duration": 0.10227270000001454
                },
                {
                    "name": "F#4",
                    "midi": 66,
                    "time": 211.8777844083333,
                    "velocity": 0.5669291338582677,
                    "duration": 0.10227270000001454
                },
                {
                    "name": "G#4",
                    "midi": 68,
                    "time": 212.21585249999998,
                    "velocity": 0.5511811023622047,
                    "duration": 0.10227270000001454
                },
                {
                    "name": "A#4",
                    "midi": 70,
                    "time": 212.22153431666666,
                    "velocity": 0.6299212598425197,
                    "duration": 0.10227270000001454
                },
                {
                    "name": "A#4",
                    "midi": 70,
                    "time": 212.55960240833335,
                    "velocity": 0.6141732283464567,
                    "duration": 0.10227269999998612
                },
                {
                    "name": "G#4",
                    "midi": 68,
                    "time": 212.55960240833335,
                    "velocity": 0.5433070866141733,
                    "duration": 0.10227269999998612
                },
                {
                    "name": "G#4",
                    "midi": 68,
                    "time": 212.8976705,
                    "velocity": 0.5433070866141733,
                    "duration": 0.10227269999998612
                },
                {
                    "name": "A#4",
                    "midi": 70,
                    "time": 212.90051140833333,
                    "velocity": 0.6299212598425197,
                    "duration": 0.10227269999998612
                },
                {
                    "name": "A#4",
                    "midi": 70,
                    "time": 213.2414204083333,
                    "velocity": 0.6456692913385826,
                    "duration": 0.10227269999998612
                },
                {
                    "name": "F#4",
                    "midi": 66,
                    "time": 213.2414204083333,
                    "velocity": 0.5354330708661418,
                    "duration": 0.10227269999998612
                },
                {
                    "name": "B4",
                    "midi": 71,
                    "time": 214.94312449999995,
                    "velocity": 0.5511811023622047,
                    "duration": 0.10227269999998612
                },
                {
                    "name": "A#4",
                    "midi": 70,
                    "time": 215.27835168333328,
                    "velocity": 0.5433070866141733,
                    "duration": 0.10227269999998612
                },
                {
                    "name": "F#4",
                    "midi": 66,
                    "time": 215.4601698166666,
                    "velocity": 0.5590551181102362,
                    "duration": 0.10227269999998612
                },
                {
                    "name": "A#4",
                    "midi": 70,
                    "time": 215.6221015916666,
                    "velocity": 0.5354330708661418,
                    "duration": 0.10227269999998612
                },
                {
                    "name": "A#4",
                    "midi": 70,
                    "time": 215.97153331666658,
                    "velocity": 0.5590551181102362,
                    "duration": 0.10227269999998612
                },
                {
                    "name": "B4",
                    "midi": 71,
                    "time": 216.31244231666656,
                    "velocity": 0.5511811023622047,
                    "duration": 0.10227269999998612
                },
                {
                    "name": "B4",
                    "midi": 71,
                    "time": 216.64482859166654,
                    "velocity": 0.5669291338582677,
                    "duration": 0.10227269999998612
                },
                {
                    "name": "B4",
                    "midi": 71,
                    "time": 216.98857849999985,
                    "velocity": 0.5433070866141733,
                    "duration": 0.10227269999998612
                },
                {
                    "name": "A#4",
                    "midi": 70,
                    "time": 217.6675555916665,
                    "velocity": 0.5669291338582677,
                    "duration": 0.10227269999998612
                },
                {
                    "name": "G#4",
                    "midi": 68,
                    "time": 218.69312349999984,
                    "velocity": 0.5354330708661418,
                    "duration": 0.10227269999998612
                },
                {
                    "name": "F#4",
                    "midi": 66,
                    "time": 219.71016868333317,
                    "velocity": 0.5433070866141733,
                    "duration": 0.10227269999998612
                },
                {
                    "name": "G#4",
                    "midi": 68,
                    "time": 220.73857749999982,
                    "velocity": 0.5669291338582677,
                    "duration": 0.10227269999998612
                },
                {
                    "name": "B4",
                    "midi": 71,
                    "time": 221.0794864999998,
                    "velocity": 0.5590551181102362,
                    "duration": 0.10227269999998612
                },
                {
                    "name": "F#4",
                    "midi": 66,
                    "time": 221.24710009166645,
                    "velocity": 0.5433070866141733,
                    "duration": 0.2727272000000198
                },
                {
                    "name": "A#4",
                    "midi": 70,
                    "time": 221.25278190833313,
                    "velocity": 0.5511811023622047,
                    "duration": 0.2727272000000198
                },
                {
                    "name": "G#4",
                    "midi": 68,
                    "time": 222.6107360916665,
                    "velocity": 0.6456692913385826,
                    "duration": 0.10227269999998612
                },
                {
                    "name": "G#4",
                    "midi": 68,
                    "time": 222.77834968333315,
                    "velocity": 0.6377952755905512,
                    "duration": 0.10227269999998612
                },
                {
                    "name": "G#4",
                    "midi": 68,
                    "time": 222.94880418333312,
                    "velocity": 0.5354330708661418,
                    "duration": 0.10227269999998612
                },
                {
                    "name": "G#4",
                    "midi": 68,
                    "time": 223.13062231666643,
                    "velocity": 0.5669291338582677,
                    "duration": 0.10227269999998612
                },
                {
                    "name": "A#4",
                    "midi": 70,
                    "time": 224.65619009166642,
                    "velocity": 0.5669291338582677,
                    "duration": 0.10227269999998612
                },
                {
                    "name": "F#4",
                    "midi": 66,
                    "time": 226.70448499999975,
                    "velocity": 0.6299212598425197,
                    "duration": 0.10227269999998612
                },
                {
                    "name": "F#4",
                    "midi": 66,
                    "time": 226.8720985916664,
                    "velocity": 0.6299212598425197,
                    "duration": 0.10227269999998612
                },
                {
                    "name": "F#4",
                    "midi": 66,
                    "time": 227.04823490833306,
                    "velocity": 0.5354330708661418,
                    "duration": 0.10227269999998612
                },
                {
                    "name": "F#4",
                    "midi": 66,
                    "time": 227.2215303166664,
                    "velocity": 0.5669291338582677,
                    "duration": 0.10227269999998612
                },
                {
                    "name": "B4",
                    "midi": 71,
                    "time": 228.06243918333305,
                    "velocity": 0.5354330708661418,
                    "duration": 0.10227269999998612
                },
                {
                    "name": "A#4",
                    "midi": 70,
                    "time": 228.40618909166636,
                    "velocity": 0.5748031496062992,
                    "duration": 0.10227269999998612
                },
                {
                    "name": "G#4",
                    "midi": 68,
                    "time": 228.75562081666635,
                    "velocity": 0.5669291338582677,
                    "duration": 0.10227269999998612
                },
                {
                    "name": "A#4",
                    "midi": 70,
                    "time": 229.085166183333,
                    "velocity": 0.5748031496062992,
                    "duration": 0.10227269999998612
                },
                {
                    "name": "B4",
                    "midi": 71,
                    "time": 229.4289160916663,
                    "velocity": 0.5748031496062992,
                    "duration": 0.2727271999999914
                },
                {
                    "name": "G4",
                    "midi": 67,
                    "time": 231.8152790916663,
                    "velocity": 0.5905511811023622,
                    "duration": 0.10227269999998612
                },
                {
                    "name": "G4",
                    "midi": 67,
                    "time": 231.99141540833295,
                    "velocity": 0.5984251968503937,
                    "duration": 0.10227269999998612
                },
                {
                    "name": "G#4",
                    "midi": 68,
                    "time": 232.15334718333295,
                    "velocity": 0.5748031496062992,
                    "duration": 0.10227269999998612
                },
                {
                    "name": "G#4",
                    "midi": 68,
                    "time": 232.33516531666626,
                    "velocity": 0.5984251968503937,
                    "duration": 0.10227269999998612
                },
                {
                    "name": "A4",
                    "midi": 69,
                    "time": 232.49709709166626,
                    "velocity": 0.5905511811023622,
                    "duration": 0.10227270000001454
                },
                {
                    "name": "F#4",
                    "midi": 66,
                    "time": 232.50277890833294,
                    "velocity": 0.5984251968503937,
                    "duration": 0.10227270000001454
                },
                {
                    "name": "A4",
                    "midi": 69,
                    "time": 232.67323340833295,
                    "velocity": 0.5984251968503937,
                    "duration": 0.10227269999998612
                },
                {
                    "name": "F#4",
                    "midi": 66,
                    "time": 232.67607431666627,
                    "velocity": 0.6062992125984252,
                    "duration": 0.10227269999998612
                },
                {
                    "name": "G4",
                    "midi": 67,
                    "time": 232.84652881666625,
                    "velocity": 0.5984251968503937,
                    "duration": 0.10227269999998612
                },
                {
                    "name": "B4",
                    "midi": 71,
                    "time": 233.01130149999958,
                    "velocity": 0.6692913385826772,
                    "duration": 0.10227269999998612
                },
                {
                    "name": "G4",
                    "midi": 67,
                    "time": 233.0141424083329,
                    "velocity": 0.5984251968503937,
                    "duration": 0.10227269999998612
                },
                {
                    "name": "A#4",
                    "midi": 70,
                    "time": 233.18175599999955,
                    "velocity": 0.7007874015748031,
                    "duration": 0.10227269999998612
                },
                {
                    "name": "G#4",
                    "midi": 68,
                    "time": 233.3578923166662,
                    "velocity": 0.6929133858267716,
                    "duration": 0.10227269999998612
                },
                {
                    "name": "G4",
                    "midi": 67,
                    "time": 233.52550590833286,
                    "velocity": 0.6929133858267716,
                    "duration": 0.2727271999999914
                },
                {
                    "name": "G4",
                    "midi": 67,
                    "time": 235.90902799999952,
                    "velocity": 0.6141732283464567,
                    "duration": 0.10227269999998612
                },
                {
                    "name": "G4",
                    "midi": 67,
                    "time": 236.07380068333285,
                    "velocity": 0.6456692913385826,
                    "duration": 0.10227269999998612
                },
                {
                    "name": "A#4",
                    "midi": 70,
                    "time": 236.24709609166618,
                    "velocity": 0.6377952755905512,
                    "duration": 0.10227269999998612
                },
                {
                    "name": "A#4",
                    "midi": 70,
                    "time": 236.4203914999995,
                    "velocity": 0.6220472440944882,
                    "duration": 0.10227269999998612
                },
                {
                    "name": "A4",
                    "midi": 69,
                    "time": 236.59652781666617,
                    "velocity": 0.6141732283464567,
                    "duration": 0.10227269999998612
                },
                {
                    "name": "A4",
                    "midi": 69,
                    "time": 236.76698231666614,
                    "velocity": 0.6377952755905512,
                    "duration": 0.10227269999998612
                },
                {
                    "name": "A#4",
                    "midi": 70,
                    "time": 236.9260731833328,
                    "velocity": 0.6141732283464567,
                    "duration": 0.10227269999998612
                },
                {
                    "name": "A#4",
                    "midi": 70,
                    "time": 237.09652768333277,
                    "velocity": 0.6299212598425197,
                    "duration": 0.10227269999998612
                },
                {
                    "name": "A#4",
                    "midi": 70,
                    "time": 237.61073209166608,
                    "velocity": 0.6220472440944882,
                    "duration": 0.10227269999998612
                },
                {
                    "name": "A#4",
                    "midi": 70,
                    "time": 237.78686840833274,
                    "velocity": 0.6456692913385826,
                    "duration": 0.10227269999998612
                },
                {
                    "name": "B4",
                    "midi": 71,
                    "time": 237.94880018333274,
                    "velocity": 0.6456692913385826,
                    "duration": 0.10227269999998612
                },
                {
                    "name": "G#4",
                    "midi": 68,
                    "time": 237.96016381666607,
                    "velocity": 0.6299212598425197,
                    "duration": 0.10227269999998612
                },
                {
                    "name": "G#4",
                    "midi": 68,
                    "time": 238.12209559166607,
                    "velocity": 0.6456692913385826,
                    "duration": 0.10227270000001454
                },
                {
                    "name": "B4",
                    "midi": 71,
                    "time": 238.13061831666607,
                    "velocity": 0.6377952755905512,
                    "duration": 0.10227270000001454
                },
                {
                    "name": "A4",
                    "midi": 69,
                    "time": 238.2925500916661,
                    "velocity": 0.6614173228346457,
                    "duration": 0.10227270000001454
                },
                {
                    "name": "F#4",
                    "midi": 66,
                    "time": 238.3010728166661,
                    "velocity": 0.6614173228346457,
                    "duration": 0.10227270000001454
                },
                {
                    "name": "A4",
                    "midi": 69,
                    "time": 238.46584549999946,
                    "velocity": 0.6299212598425197,
                    "duration": 0.10227269999998612
                },
                {
                    "name": "F#4",
                    "midi": 66,
                    "time": 238.4686864083328,
                    "velocity": 0.6456692913385826,
                    "duration": 0.10227269999998612
                },
                {
                    "name": "A#4",
                    "midi": 70,
                    "time": 238.63629999999944,
                    "velocity": 0.6535433070866141,
                    "duration": 0.10227269999998612
                },
                {
                    "name": "G4",
                    "midi": 67,
                    "time": 238.63629999999944,
                    "velocity": 0.6456692913385826,
                    "duration": 0.10227269999998612
                },
                {
                    "name": "A#4",
                    "midi": 70,
                    "time": 238.8067544999994,
                    "velocity": 0.6535433070866141,
                    "duration": 0.10227270000001454
                },
                {
                    "name": "G4",
                    "midi": 67,
                    "time": 238.8124363166661,
                    "velocity": 0.6692913385826772,
                    "duration": 0.10227270000001454
                },
                {
                    "name": "G4",
                    "midi": 67,
                    "time": 238.97436809166612,
                    "velocity": 0.6614173228346457,
                    "duration": 0.10227269999998612
                },
                {
                    "name": "G4",
                    "midi": 67,
                    "time": 239.14198168333277,
                    "velocity": 0.6535433070866141,
                    "duration": 0.10227270000001454
                },
                {
                    "name": "B4",
                    "midi": 71,
                    "time": 239.14766349999945,
                    "velocity": 0.7322834645669292,
                    "duration": 0.10227270000001454
                },
                {
                    "name": "A#4",
                    "midi": 70,
                    "time": 239.3124361833328,
                    "velocity": 0.7637795275590551,
                    "duration": 0.10227269999998612
                },
                {
                    "name": "G#4",
                    "midi": 68,
                    "time": 239.49425431666612,
                    "velocity": 0.7716535433070866,
                    "duration": 0.10227269999998612
                },
                {
                    "name": "G4",
                    "midi": 67,
                    "time": 239.6647088166661,
                    "velocity": 0.7716535433070866,
                    "duration": 0.10227269999998612
                },
                {
                    "name": "F#4",
                    "midi": 66,
                    "time": 239.83232240833274,
                    "velocity": 0.7716535433070866,
                    "duration": 0.10227269999998612
                },
                {
                    "name": "B4",
                    "midi": 71,
                    "time": 241.19879931666605,
                    "velocity": 0.7637795275590551,
                    "duration": 0.10227269999998612
                },
                {
                    "name": "A#4",
                    "midi": 70,
                    "time": 241.3664129083327,
                    "velocity": 0.7637795275590551,
                    "duration": 0.10227269999998612
                },
                {
                    "name": "G#4",
                    "midi": 68,
                    "time": 241.5283446833327,
                    "velocity": 0.7795275590551181,
                    "duration": 0.10227269999998612
                },
                {
                    "name": "G4",
                    "midi": 67,
                    "time": 241.70164009166604,
                    "velocity": 0.7795275590551181,
                    "duration": 0.10227269999998612
                },
                {
                    "name": "F#4",
                    "midi": 66,
                    "time": 241.8777764083327,
                    "velocity": 0.7952755905511811,
                    "duration": 0.10227269999998612
                },
                {
                    "name": "G4",
                    "midi": 67,
                    "time": 244.7669801833327,
                    "velocity": 0.8267716535433071,
                    "duration": 0.10227269999998612
                },
                {
                    "name": "A#4",
                    "midi": 70,
                    "time": 245.110730091666,
                    "velocity": 0.8031496062992126,
                    "duration": 0.10227269999998612
                },
                {
                    "name": "A4",
                    "midi": 69,
                    "time": 246.13913890833265,
                    "velocity": 0.8110236220472441,
                    "duration": 0.10227269999998612
                },
                {
                    "name": "A4",
                    "midi": 69,
                    "time": 246.31243431666599,
                    "velocity": 0.8267716535433071,
                    "duration": 0.10227269999998612
                },
                {
                    "name": "A#4",
                    "midi": 70,
                    "time": 246.47152518333263,
                    "velocity": 0.8346456692913385,
                    "duration": 0.10227269999998612
                },
                {
                    "name": "A#4",
                    "midi": 70,
                    "time": 246.6419796833326,
                    "velocity": 0.84251968503937,
                    "duration": 0.10227269999998612
                },
                {
                    "name": "A4",
                    "midi": 69,
                    "time": 247.66470668333258,
                    "velocity": 0.8267716535433071,
                    "duration": 0.10227269999998612
                },
                {
                    "name": "A#4",
                    "midi": 70,
                    "time": 248.01413840833257,
                    "velocity": 0.8503937007874016,
                    "duration": 0.10227269999998612
                },
                {
                    "name": "A#4",
                    "midi": 70,
                    "time": 250.39481959166588,
                    "velocity": 0.8267716535433071,
                    "duration": 0.10227269999998612
                },
                {
                    "name": "G4",
                    "midi": 67,
                    "time": 250.73288768333254,
                    "velocity": 0.8110236220472441,
                    "duration": 0.10227269999998612
                },
                {
                    "name": "A#4",
                    "midi": 70,
                    "time": 251.7556146833325,
                    "velocity": 0.7480314960629921,
                    "duration": 0.10227269999998612
                },
                {
                    "name": "G4",
                    "midi": 67,
                    "time": 252.10788731666582,
                    "velocity": 0.7244094488188977,
                    "duration": 0.10227269999998612
                },
                {
                    "name": "G4",
                    "midi": 67,
                    "time": 260.4516350916658,
                    "velocity": 0.5354330708661418,
                    "duration": 0.10227270000001454
                },
                {
                    "name": "G4",
                    "midi": 67,
                    "time": 260.62493049999915,
                    "velocity": 0.5433070866141733,
                    "duration": 0.10227270000001454
                },
                {
                    "name": "G4",
                    "midi": 67,
                    "time": 260.8010668166658,
                    "velocity": 0.5590551181102362,
                    "duration": 0.2727272000000198
                },
                {
                    "name": "A#4",
                    "midi": 70,
                    "time": 261.4800439083325,
                    "velocity": 0.5590551181102362,
                    "duration": 0.10227270000001454
                },
                {
                    "name": "A#4",
                    "midi": 70,
                    "time": 261.6476574999992,
                    "velocity": 0.5669291338582677,
                    "duration": 0.10227270000001454
                },
                {
                    "name": "A#4",
                    "midi": 70,
                    "time": 261.81243018333254,
                    "velocity": 0.5590551181102362,
                    "duration": 0.2727272000000198
                },
                {
                    "name": "B4",
                    "midi": 71,
                    "time": 262.1561800916659,
                    "velocity": 0.6377952755905512,
                    "duration": 0.10227270000001454
                },
                {
                    "name": "B4",
                    "midi": 71,
                    "time": 262.33231640833253,
                    "velocity": 0.6377952755905512,
                    "duration": 0.10227270000001454
                },
                {
                    "name": "B4",
                    "midi": 71,
                    "time": 262.49424818333256,
                    "velocity": 0.6220472440944882,
                    "duration": 0.1022726999999577
                },
                {
                    "name": "G#4",
                    "midi": 68,
                    "time": 262.4999299999992,
                    "velocity": 0.5669291338582677,
                    "duration": 0.1022726999999577
                },
                {
                    "name": "B4",
                    "midi": 71,
                    "time": 262.67038449999916,
                    "velocity": 0.6377952755905512,
                    "duration": 0.10227270000001454
                },
                {
                    "name": "G#4",
                    "midi": 68,
                    "time": 262.6732254083325,
                    "velocity": 0.5590551181102362,
                    "duration": 0.10227270000001454
                },
                {
                    "name": "A#4",
                    "midi": 70,
                    "time": 262.8351571833325,
                    "velocity": 0.6220472440944882,
                    "duration": 0.10227270000001454
                },
                {
                    "name": "A#4",
                    "midi": 70,
                    "time": 263.0169753166659,
                    "velocity": 0.6377952755905512,
                    "duration": 0.10227270000001454
                },
                {
                    "name": "G#4",
                    "midi": 68,
                    "time": 263.18458890833256,
                    "velocity": 0.6299212598425197,
                    "duration": 0.10227270000001454
                },
                {
                    "name": "G#4",
                    "midi": 68,
                    "time": 263.3578843166659,
                    "velocity": 0.6456692913385826,
                    "duration": 0.10227270000001454
                },
                {
                    "name": "G4",
                    "midi": 67,
                    "time": 263.52265699999924,
                    "velocity": 0.6220472440944882,
                    "duration": 0.10227270000001454
                },
                {
                    "name": "G4",
                    "midi": 67,
                    "time": 263.6959524083326,
                    "velocity": 0.6299212598425197,
                    "duration": 0.10227270000001454
                },
                {
                    "name": "G#4",
                    "midi": 68,
                    "time": 263.8607250916659,
                    "velocity": 0.6299212598425197,
                    "duration": 0.10227270000001454
                },
                {
                    "name": "G#4",
                    "midi": 68,
                    "time": 264.0368614083326,
                    "velocity": 0.6377952755905512,
                    "duration": 0.10227270000001454
                },
                {
                    "name": "A#4",
                    "midi": 70,
                    "time": 264.2073159083326,
                    "velocity": 0.6456692913385826,
                    "duration": 0.10227270000001454
                },
                {
                    "name": "A#4",
                    "midi": 70,
                    "time": 264.3777704083326,
                    "velocity": 0.6377952755905512,
                    "duration": 0.10227270000001454
                },
                {
                    "name": "A#4",
                    "midi": 70,
                    "time": 265.2215201833326,
                    "velocity": 0.5669291338582677,
                    "duration": 0.2727272000000198
                },
                {
                    "name": "G4",
                    "midi": 67,
                    "time": 265.23288381666595,
                    "velocity": 0.5984251968503937,
                    "duration": 0.2727272000000198
                },
                {
                    "name": "A4",
                    "midi": 69,
                    "time": 267.61924681666596,
                    "velocity": 0.6692913385826772,
                    "duration": 0.10227270000001454
                },
                {
                    "name": "A4",
                    "midi": 69,
                    "time": 267.78970131666597,
                    "velocity": 0.6692913385826772,
                    "duration": 0.10227270000001454
                },
                {
                    "name": "A4",
                    "midi": 69,
                    "time": 267.9544739999993,
                    "velocity": 0.6692913385826772,
                    "duration": 0.2727272000000198
                },
                {
                    "name": "A4",
                    "midi": 69,
                    "time": 268.641973816666,
                    "velocity": 0.7874015748031497,
                    "duration": 0.10227270000001454
                },
                {
                    "name": "A4",
                    "midi": 69,
                    "time": 268.812428316666,
                    "velocity": 0.8188976377952756,
                    "duration": 0.10227270000001454
                },
                {
                    "name": "A4",
                    "midi": 69,
                    "time": 268.9800419083327,
                    "velocity": 0.8110236220472441,
                    "duration": 0.10227270000001454
                },
                {
                    "name": "A4",
                    "midi": 69,
                    "time": 269.14765549999936,
                    "velocity": 0.8110236220472441,
                    "duration": 0.10227270000001454
                },
                {
                    "name": "A4",
                    "midi": 69,
                    "time": 269.3209509083327,
                    "velocity": 0.84251968503937,
                    "duration": 0.10227270000001454
                },
                {
                    "name": "A4",
                    "midi": 69,
                    "time": 269.4914054083327,
                    "velocity": 0.8267716535433071,
                    "duration": 0.10227270000001454
                },
                {
                    "name": "A4",
                    "midi": 69,
                    "time": 269.65617809166605,
                    "velocity": 0.8188976377952756,
                    "duration": 0.10227270000001454
                },
                {
                    "name": "A4",
                    "midi": 69,
                    "time": 269.8323144083327,
                    "velocity": 0.8582677165354331,
                    "duration": 0.10227270000001454
                },
                {
                    "name": "A4",
                    "midi": 69,
                    "time": 269.99424618333273,
                    "velocity": 0.8661417322834646,
                    "duration": 0.10227270000001454
                },
                {
                    "name": "A4",
                    "midi": 69,
                    "time": 270.16754159166607,
                    "velocity": 0.8503937007874016,
                    "duration": 0.10227270000001454
                },
                {
                    "name": "B4",
                    "midi": 71,
                    "time": 270.33799609166607,
                    "velocity": 0.8740157480314961,
                    "duration": 0.1022726999999577
                },
                {
                    "name": "G#4",
                    "midi": 68,
                    "time": 270.3436779083327,
                    "velocity": 0.8582677165354331,
                    "duration": 0.1022726999999577
                },
                {
                    "name": "F#4",
                    "midi": 66,
                    "time": 270.857882316666,
                    "velocity": 0.8503937007874016,
                    "duration": 0.10227270000001454
                },
                {
                    "name": "G4",
                    "midi": 67,
                    "time": 271.0169731833327,
                    "velocity": 0.8661417322834646,
                    "duration": 0.10227270000001454
                },
                {
                    "name": "G#4",
                    "midi": 68,
                    "time": 271.19595040833275,
                    "velocity": 0.8818897637795275,
                    "duration": 0.10227270000001454
                },
                {
                    "name": "A4",
                    "midi": 69,
                    "time": 271.36640490833275,
                    "velocity": 0.8818897637795275,
                    "duration": 0.10227270000001454
                },
                {
                    "name": "A#4",
                    "midi": 70,
                    "time": 271.53401849999943,
                    "velocity": 0.8818897637795275,
                    "duration": 0.10227270000001454
                },
                {
                    "name": "B4",
                    "midi": 71,
                    "time": 271.7016320916661,
                    "velocity": 0.8740157480314961,
                    "duration": 0.10227270000001454
                },
                {
                    "name": "G#4",
                    "midi": 68,
                    "time": 274.42890409166614,
                    "velocity": 0.8818897637795275,
                    "duration": 0.2727272000000198
                },
                {
                    "name": "B4",
                    "midi": 71,
                    "time": 275.10788118333284,
                    "velocity": 0.8661417322834646,
                    "duration": 0.2727272000000198
                },
                {
                    "name": "A#4",
                    "midi": 70,
                    "time": 275.44879018333285,
                    "velocity": 0.8582677165354331,
                    "duration": 0.1363635999999815
                },
                {
                    "name": "B4",
                    "midi": 71,
                    "time": 275.6249264999995,
                    "velocity": 0.8661417322834646,
                    "duration": 0.1363635999999815
                },
                {
                    "name": "B4",
                    "midi": 71,
                    "time": 276.1306081833328,
                    "velocity": 0.8818897637795275,
                    "duration": 0.1363635999999815
                },
                {
                    "name": "A#4",
                    "midi": 70,
                    "time": 276.30674449999947,
                    "velocity": 0.8818897637795275,
                    "duration": 0.1363635999999815
                },
                {
                    "name": "B4",
                    "midi": 71,
                    "time": 276.4800399083328,
                    "velocity": 0.8740157480314961,
                    "duration": 0.1363635999999815
                },
                {
                    "name": "B4",
                    "midi": 71,
                    "time": 277.3266305916661,
                    "velocity": 0.8818897637795275,
                    "duration": 0.1363635999999815
                },
                {
                    "name": "A#4",
                    "midi": 70,
                    "time": 277.5027669083328,
                    "velocity": 0.8818897637795275,
                    "duration": 0.1363635999999815
                },
                {
                    "name": "B4",
                    "midi": 71,
                    "time": 277.6703804999994,
                    "velocity": 0.8818897637795275,
                    "duration": 0.1363635999999815
                },
                {
                    "name": "B4",
                    "midi": 71,
                    "time": 278.18742581666606,
                    "velocity": 0.8503937007874016,
                    "duration": 0.1363635999999815
                },
                {
                    "name": "A#4",
                    "midi": 70,
                    "time": 278.35788031666607,
                    "velocity": 0.8661417322834646,
                    "duration": 0.1363635999999815
                },
                {
                    "name": "B4",
                    "midi": 71,
                    "time": 278.5254939083327,
                    "velocity": 0.8661417322834646,
                    "duration": 0.1363635999999815
                },
                {
                    "name": "A#4",
                    "midi": 70,
                    "time": 278.68742568333266,
                    "velocity": 0.8818897637795275,
                    "duration": 0.1363635999999815
                },
                {
                    "name": "G#4",
                    "midi": 68,
                    "time": 278.86640290833265,
                    "velocity": 0.8740157480314961,
                    "duration": 0.2727272000000198
                },
                {
                    "name": "B4",
                    "midi": 71,
                    "time": 283.2896971833327,
                    "velocity": 0.8503937007874016,
                    "duration": 0.2727272000000198
                },
                {
                    "name": "A#4",
                    "midi": 70,
                    "time": 283.63628799999935,
                    "velocity": 0.8503937007874016,
                    "duration": 0.1363635999999815
                },
                {
                    "name": "B4",
                    "midi": 71,
                    "time": 283.80674249999936,
                    "velocity": 0.8503937007874016,
                    "duration": 0.1363635999999815
                },
                {
                    "name": "B4",
                    "midi": 71,
                    "time": 284.323787816666,
                    "velocity": 0.8582677165354331,
                    "duration": 0.1363635999999815
                },
                {
                    "name": "A#4",
                    "midi": 70,
                    "time": 284.4885604999993,
                    "velocity": 0.8582677165354331,
                    "duration": 0.1363635999999815
                },
                {
                    "name": "B4",
                    "midi": 71,
                    "time": 284.664696816666,
                    "velocity": 0.8503937007874016,
                    "duration": 0.1363635999999815
                },
                {
                    "name": "A#4",
                    "midi": 70,
                    "time": 284.8294694999993,
                    "velocity": 0.8503937007874016,
                    "duration": 0.1363635999999815
                },
                {
                    "name": "G#4",
                    "midi": 68,
                    "time": 284.9942421833326,
                    "velocity": 0.8503937007874016,
                    "duration": 0.2727272000000198
                },
                {
                    "name": "A#4",
                    "midi": 70,
                    "time": 285.6789010916659,
                    "velocity": 0.8582677165354331,
                    "duration": 0.1363635999999815
                },
                {
                    "name": "B4",
                    "midi": 71,
                    "time": 285.84651468333254,
                    "velocity": 0.8740157480314961,
                    "duration": 0.1363635999999815
                },
                {
                    "name": "B4",
                    "midi": 71,
                    "time": 286.3578781833325,
                    "velocity": 0.8582677165354331,
                    "duration": 0.1363635999999815
                },
                {
                    "name": "A#4",
                    "midi": 70,
                    "time": 286.53117359166583,
                    "velocity": 0.8503937007874016,
                    "duration": 0.1363635999999815
                },
                {
                    "name": "B4",
                    "midi": 71,
                    "time": 286.7101508166658,
                    "velocity": 0.8503937007874016,
                    "duration": 0.1363635999999815
                },
                {
                    "name": "A#4",
                    "midi": 70,
                    "time": 286.86924168333246,
                    "velocity": 0.8582677165354331,
                    "duration": 0.1363635999999815
                },
                {
                    "name": "G#4",
                    "midi": 68,
                    "time": 287.03969618333247,
                    "velocity": 0.8661417322834646,
                    "duration": 0.2727272000000198
                },
                {
                    "name": "B4",
                    "midi": 71,
                    "time": 287.7215141833325,
                    "velocity": 0.8503937007874016,
                    "duration": 0.1363635999999815
                },
                {
                    "name": "A#4",
                    "midi": 70,
                    "time": 287.89765049999914,
                    "velocity": 0.8661417322834646,
                    "duration": 0.1363635999999815
                },
                {
                    "name": "G#4",
                    "midi": 68,
                    "time": 288.0737868166658,
                    "velocity": 0.8818897637795275,
                    "duration": 0.2727272000000198
                },
                {
                    "name": "B4",
                    "midi": 71,
                    "time": 288.74992299999917,
                    "velocity": 0.8503937007874016,
                    "duration": 0.1363635999999815
                },
                {
                    "name": "A#4",
                    "midi": 70,
                    "time": 288.9203774999992,
                    "velocity": 0.8582677165354331,
                    "duration": 0.1363635999999815
                },
                {
                    "name": "G#4",
                    "midi": 68,
                    "time": 289.0851501833325,
                    "velocity": 0.8661417322834646,
                    "duration": 0.2727272000000198
                },
                {
                    "name": "B4",
                    "midi": 71,
                    "time": 289.77264999999915,
                    "velocity": 0.8503937007874016,
                    "duration": 0.1363635999999815
                },
                {
                    "name": "A#4",
                    "midi": 70,
                    "time": 289.9459454083325,
                    "velocity": 0.8661417322834646,
                    "duration": 0.1363635999999815
                },
                {
                    "name": "G#4",
                    "midi": 68,
                    "time": 290.1163999083325,
                    "velocity": 0.8661417322834646,
                    "duration": 0.2727272000000198
                },
                {
                    "name": "G#4",
                    "midi": 68,
                    "time": 291.4715131833325,
                    "velocity": 0.7401574803149606,
                    "duration": 0.2727272000000198
                },
                {
                    "name": "G#4",
                    "midi": 68,
                    "time": 291.82378581666586,
                    "velocity": 0.7716535433070866,
                    "duration": 0.2727272000000198
                },
                {
                    "name": "G#4",
                    "midi": 68,
                    "time": 292.1590129999992,
                    "velocity": 0.7401574803149606,
                    "duration": 0.2727272000000198
                },
                {
                    "name": "G#4",
                    "midi": 68,
                    "time": 293.8663989083326,
                    "velocity": 0.8818897637795275,
                    "duration": 0.2727272000000198
                },
                {
                    "name": "G#4",
                    "midi": 68,
                    "time": 294.883444091666,
                    "velocity": 0.7401574803149606,
                    "duration": 1.6363632000000052
                },
                {
                    "name": "B4",
                    "midi": 71,
                    "time": 294.89196681666596,
                    "velocity": 0.7401574803149606,
                    "duration": 1.6363632000000052
                }
            ],
            "controlChanges": {
                "7": [
                    {
                        "number": 7,
                        "time": 0,
                        "value": 0.9212598425196851
                    }
                ],
                "10": [
                    {
                        "number": 10,
                        "time": 0,
                        "value": 0.4409448818897638
                    },
                    {
                        "number": 10,
                        "time": 294.8862849999993,
                        "value": 0.5039370078740157
                    }
                ],
                "91": [
                    {
                        "number": 91,
                        "time": 0,
                        "value": 0
                    },
                    {
                        "number": 91,
                        "time": 0,
                        "value": 0.1889763779527559
                    },
                    {
                        "number": 91,
                        "time": 294.8862849999993,
                        "value": 0
                    }
                ],
                "93": [
                    {
                        "number": 93,
                        "time": 0,
                        "value": 0.07874015748031496
                    }
                ],
                "121": [
                    {
                        "number": 121,
                        "time": 0,
                        "value": 0
                    }
                ]
            },
            "id": 6,
            "instrumentNumber": 0,
            "instrument": "acoustic grand piano",
            "instrumentFamily": "piano",
            "channelNumber": 13,
            "isPercussion": false
        },
        {
            "startTime": 43.11930668333333,
            "duration": 270.7840186999998,
            "length": 27,
            "notes": [
                {
                    "name": "F4",
                    "midi": 65,
                    "time": 43.11930668333333,
                    "velocity": 0.6299212598425197,
                    "duration": 0.12784087499999686
                },
                {
                    "name": "F4",
                    "midi": 65,
                    "time": 53.18748581666666,
                    "velocity": 0.5590551181102362,
                    "duration": 0.2727271999999985
                },
                {
                    "name": "F4",
                    "midi": 65,
                    "time": 67.83520918333332,
                    "velocity": 0.5511811023622047,
                    "duration": 0.2727272000000056
                },
                {
                    "name": "F4",
                    "midi": 65,
                    "time": 69.88350409166665,
                    "velocity": 0.5433070866141733,
                    "duration": 0.2727272000000056
                },
                {
                    "name": "F4",
                    "midi": 65,
                    "time": 108.41474381666666,
                    "velocity": 0.5590551181102362,
                    "duration": 0.2727272000000056
                },
                {
                    "name": "F4",
                    "midi": 65,
                    "time": 108.74713009166666,
                    "velocity": 0.5354330708661418,
                    "duration": 0.2727272000000056
                },
                {
                    "name": "F4",
                    "midi": 65,
                    "time": 123.23576259166667,
                    "velocity": 0.5354330708661418,
                    "duration": 0.1363635999999957
                },
                {
                    "name": "F4",
                    "midi": 65,
                    "time": 123.74428518333333,
                    "velocity": 0.6220472440944882,
                    "duration": 0.1363635999999957
                },
                {
                    "name": "F4",
                    "midi": 65,
                    "time": 128.00848859166666,
                    "velocity": 0.5511811023622047,
                    "duration": 0.1363636000000099
                },
                {
                    "name": "F4",
                    "midi": 65,
                    "time": 133.64200981666667,
                    "velocity": 0.5511811023622047,
                    "duration": 0.2727271999999914
                },
                {
                    "name": "F4",
                    "midi": 65,
                    "time": 133.98007790833333,
                    "velocity": 0.5669291338582677,
                    "duration": 0.2727271999999914
                },
                {
                    "name": "F4",
                    "midi": 65,
                    "time": 148.30109681666664,
                    "velocity": 0.5433070866141733,
                    "duration": 0.2727271999999914
                },
                {
                    "name": "F4",
                    "midi": 65,
                    "time": 152.38632299999998,
                    "velocity": 0.5590551181102362,
                    "duration": 0.2727271999999914
                },
                {
                    "name": "F4",
                    "midi": 65,
                    "time": 162.22722946666664,
                    "velocity": 0.6220472440944882,
                    "duration": 0.05113635000000727
                },
                {
                    "name": "F4",
                    "midi": 65,
                    "time": 162.5312066583333,
                    "velocity": 0.6141732283464567,
                    "duration": 0.05113635000000727
                },
                {
                    "name": "F4",
                    "midi": 65,
                    "time": 162.7272293333333,
                    "velocity": 0.6377952755905512,
                    "duration": 0.05113635000000727
                },
                {
                    "name": "F4",
                    "midi": 65,
                    "time": 206.5851721833333,
                    "velocity": 0.5669291338582677,
                    "duration": 0.1363636000000099
                },
                {
                    "name": "F4",
                    "midi": 65,
                    "time": 216.47721499999997,
                    "velocity": 0.5590551181102362,
                    "duration": 0.10227269999998612
                },
                {
                    "name": "F4",
                    "midi": 65,
                    "time": 232.1533471833333,
                    "velocity": 0.5826771653543307,
                    "duration": 0.10227269999998612
                },
                {
                    "name": "F4",
                    "midi": 65,
                    "time": 232.32380168333327,
                    "velocity": 0.5984251968503937,
                    "duration": 0.10227269999998612
                },
                {
                    "name": "F4",
                    "midi": 65,
                    "time": 233.1874378166666,
                    "velocity": 0.5826771653543307,
                    "duration": 0.10227269999998612
                },
                {
                    "name": "F4",
                    "midi": 65,
                    "time": 233.35789231666658,
                    "velocity": 0.6141732283464567,
                    "duration": 0.10227269999998612
                },
                {
                    "name": "F4",
                    "midi": 65,
                    "time": 239.32379981666656,
                    "velocity": 0.6535433070866141,
                    "duration": 0.10227269999998612
                },
                {
                    "name": "F4",
                    "midi": 65,
                    "time": 239.4885724999999,
                    "velocity": 0.6614173228346457,
                    "duration": 0.10227269999998612
                },
                {
                    "name": "F4",
                    "midi": 65,
                    "time": 239.9942541833332,
                    "velocity": 0.7401574803149606,
                    "duration": 0.10227269999998612
                },
                {
                    "name": "F4",
                    "midi": 65,
                    "time": 242.0510718166665,
                    "velocity": 0.7795275590551181,
                    "duration": 0.10227269999998612
                },
                {
                    "name": "F4",
                    "midi": 65,
                    "time": 270.6817459999998,
                    "velocity": 0.8661417322834646,
                    "duration": 0.10227270000001454
                }
            ],
            "controlChanges": {
                "7": [
                    {
                        "number": 7,
                        "time": 0,
                        "value": 0.905511811023622
                    }
                ],
                "10": [
                    {
                        "number": 10,
                        "time": 0,
                        "value": 0.3779527559055118
                    },
                    {
                        "number": 10,
                        "time": 293.86355799999984,
                        "value": 0.5039370078740157
                    },
                    {
                        "number": 10,
                        "time": 296.5908299999998,
                        "value": 0.5039370078740157
                    }
                ],
                "91": [
                    {
                        "number": 91,
                        "time": 0,
                        "value": 0
                    },
                    {
                        "number": 91,
                        "time": 0,
                        "value": 0.1889763779527559
                    },
                    {
                        "number": 91,
                        "time": 294.8862849999998,
                        "value": 0
                    }
                ],
                "93": [
                    {
                        "number": 93,
                        "time": 0,
                        "value": 0.06299212598425197
                    }
                ],
                "121": [
                    {
                        "number": 121,
                        "time": 0,
                        "value": 0
                    }
                ]
            },
            "id": 7,
            "instrumentNumber": 0,
            "instrument": "acoustic grand piano",
            "instrumentFamily": "piano",
            "channelNumber": 3,
            "isPercussion": false
        },
        {
            "startTime": 0.3437499083333333,
            "duration": 296.525489108332,
            "length": 457,
            "notes": [
                {
                    "name": "D#4",
                    "midi": 63,
                    "time": 0.3437499083333333,
                    "velocity": 0.5354330708661418,
                    "duration": 0.25568174999999993
                },
                {
                    "name": "D#4",
                    "midi": 63,
                    "time": 0.6846589083333332,
                    "velocity": 0.5511811023622047,
                    "duration": 0.25568174999999993
                },
                {
                    "name": "D#4",
                    "midi": 63,
                    "time": 1.0227269999999997,
                    "velocity": 0.5511811023622047,
                    "duration": 0.25568174999999993
                },
                {
                    "name": "D#4",
                    "midi": 63,
                    "time": 2.3863629999999993,
                    "velocity": 0.5354330708661418,
                    "duration": 0.25568174999999993
                },
                {
                    "name": "D#4",
                    "midi": 63,
                    "time": 2.7215901833333325,
                    "velocity": 0.5433070866141733,
                    "duration": 0.25568174999999993
                },
                {
                    "name": "D#4",
                    "midi": 63,
                    "time": 3.0624991833333324,
                    "velocity": 0.5669291338582677,
                    "duration": 0.25568174999999993
                },
                {
                    "name": "D#4",
                    "midi": 63,
                    "time": 4.434657908333332,
                    "velocity": 0.5354330708661418,
                    "duration": 0.25568174999999993
                },
                {
                    "name": "D#4",
                    "midi": 63,
                    "time": 5.451703091666665,
                    "velocity": 0.5669291338582677,
                    "duration": 0.25568174999999993
                },
                {
                    "name": "D#4",
                    "midi": 63,
                    "time": 8.906247624999997,
                    "velocity": 0.5669291338582677,
                    "duration": 0.2556817500000008
                },
                {
                    "name": "B3",
                    "midi": 59,
                    "time": 9.883520091666664,
                    "velocity": 0.5669291338582677,
                    "duration": 0.2556817500000008
                },
                {
                    "name": "D#4",
                    "midi": 63,
                    "time": 10.914769816666665,
                    "velocity": 0.5590551181102362,
                    "duration": 0.2556817500000008
                },
                {
                    "name": "B3",
                    "midi": 59,
                    "time": 13.977268999999998,
                    "velocity": 0.5354330708661418,
                    "duration": 0.2556817500000008
                },
                {
                    "name": "D4",
                    "midi": 62,
                    "time": 14.025564441666665,
                    "velocity": 0.5669291338582677,
                    "duration": 0.2556817500000008
                },
                {
                    "name": "D#4",
                    "midi": 63,
                    "time": 14.997155091666666,
                    "velocity": 0.5354330708661418,
                    "duration": 0.2556817500000008
                },
                {
                    "name": "D#4",
                    "midi": 63,
                    "time": 15.335223183333333,
                    "velocity": 0.6377952755905512,
                    "duration": 0.2556817500000008
                },
                {
                    "name": "D#4",
                    "midi": 63,
                    "time": 17.090904533333333,
                    "velocity": 0.5669291338582677,
                    "duration": 0.2556817500000008
                },
                {
                    "name": "B3",
                    "midi": 59,
                    "time": 18.062495183333333,
                    "velocity": 0.5433070866141733,
                    "duration": 0.2556817500000008
                },
                {
                    "name": "D#4",
                    "midi": 63,
                    "time": 19.090904000000002,
                    "velocity": 0.5590551181102362,
                    "duration": 0.2556817500000008
                },
                {
                    "name": "D#4",
                    "midi": 63,
                    "time": 22.159085,
                    "velocity": 0.5433070866141733,
                    "duration": 0.2556817500000008
                },
                {
                    "name": "D#4",
                    "midi": 63,
                    "time": 23.34942559166667,
                    "velocity": 0.5511811023622047,
                    "duration": 0.10227270000000033
                },
                {
                    "name": "B3",
                    "midi": 59,
                    "time": 25.56533409166667,
                    "velocity": 0.5590551181102362,
                    "duration": 0.20454540000000065
                },
                {
                    "name": "D#4",
                    "midi": 63,
                    "time": 26.596583816666673,
                    "velocity": 0.5590551181102362,
                    "duration": 0.20454540000000065
                },
                {
                    "name": "A#3",
                    "midi": 58,
                    "time": 27.619310816666673,
                    "velocity": 0.5354330708661418,
                    "duration": 0.20454540000000065
                },
                {
                    "name": "B3",
                    "midi": 59,
                    "time": 30.33521918333334,
                    "velocity": 0.5669291338582677,
                    "duration": 0.20454540000000065
                },
                {
                    "name": "D4",
                    "midi": 62,
                    "time": 30.338060091666673,
                    "velocity": 0.5511811023622047,
                    "duration": 0.20454540000000065
                },
                {
                    "name": "D4",
                    "midi": 62,
                    "time": 30.68465090833334,
                    "velocity": 0.5590551181102362,
                    "duration": 0.20454540000000065
                },
                {
                    "name": "B3",
                    "midi": 59,
                    "time": 30.68749181666667,
                    "velocity": 0.5669291338582677,
                    "duration": 0.20454540000000065
                },
                {
                    "name": "D#4",
                    "midi": 63,
                    "time": 31.704537000000006,
                    "velocity": 0.6141732283464567,
                    "duration": 0.10227270000000033
                },
                {
                    "name": "B3",
                    "midi": 59,
                    "time": 33.75283190833334,
                    "velocity": 0.5511811023622047,
                    "duration": 0.20454540000000065
                },
                {
                    "name": "D#4",
                    "midi": 63,
                    "time": 34.77839981666668,
                    "velocity": 0.5511811023622047,
                    "duration": 0.20454540000000065
                },
                {
                    "name": "A#3",
                    "midi": 58,
                    "time": 35.78976318333334,
                    "velocity": 0.5354330708661418,
                    "duration": 0.20454540000000065
                },
                {
                    "name": "C#4",
                    "midi": 61,
                    "time": 36.47726300000001,
                    "velocity": 0.5511811023622047,
                    "duration": 0.32954536666666456
                },
                {
                    "name": "D#4",
                    "midi": 63,
                    "time": 36.82385381666667,
                    "velocity": 0.5669291338582677,
                    "duration": 0.32954536666666456
                },
                {
                    "name": "E4",
                    "midi": 64,
                    "time": 37.153399183333335,
                    "velocity": 0.5511811023622047,
                    "duration": 0.32954536666666456
                },
                {
                    "name": "D#4",
                    "midi": 63,
                    "time": 37.49430818333333,
                    "velocity": 0.5590551181102362,
                    "duration": 0.32954536666666456
                },
                {
                    "name": "C#4",
                    "midi": 61,
                    "time": 38.56817153333333,
                    "velocity": 0.5354330708661418,
                    "duration": 0.20454540000000065
                },
                {
                    "name": "B3",
                    "midi": 59,
                    "time": 39.715898499999994,
                    "velocity": 0.6141732283464567,
                    "duration": 0.10227270000000033
                },
                {
                    "name": "D#4",
                    "midi": 63,
                    "time": 39.88351209166666,
                    "velocity": 0.6456692913385826,
                    "duration": 0.10227270000000033
                },
                {
                    "name": "E4",
                    "midi": 64,
                    "time": 43.46589749999999,
                    "velocity": 0.6299212598425197,
                    "duration": 0.12784087499999686
                },
                {
                    "name": "B3",
                    "midi": 59,
                    "time": 43.97442009166665,
                    "velocity": 0.5354330708661418,
                    "duration": 0.2727271999999985
                },
                {
                    "name": "D#4",
                    "midi": 63,
                    "time": 43.98294281666665,
                    "velocity": 0.5354330708661418,
                    "duration": 0.2727271999999985
                },
                {
                    "name": "D#4",
                    "midi": 63,
                    "time": 44.32385181666665,
                    "velocity": 0.5354330708661418,
                    "duration": 0.2727271999999985
                },
                {
                    "name": "E4",
                    "midi": 64,
                    "time": 45.00282890833331,
                    "velocity": 0.5354330708661418,
                    "duration": 0.2727271999999985
                },
                {
                    "name": "A#3",
                    "midi": 58,
                    "time": 45.00282890833331,
                    "velocity": 0.5433070866141733,
                    "duration": 0.2727271999999985
                },
                {
                    "name": "E4",
                    "midi": 64,
                    "time": 45.34657881666664,
                    "velocity": 0.5433070866141733,
                    "duration": 0.2727271999999985
                },
                {
                    "name": "B3",
                    "midi": 59,
                    "time": 46.01703318333331,
                    "velocity": 0.5433070866141733,
                    "duration": 0.2727271999999985
                },
                {
                    "name": "D#4",
                    "midi": 63,
                    "time": 46.02271499999998,
                    "velocity": 0.5354330708661418,
                    "duration": 0.2727271999999985
                },
                {
                    "name": "D#4",
                    "midi": 63,
                    "time": 48.06248718333331,
                    "velocity": 0.5511811023622047,
                    "duration": 0.2727271999999985
                },
                {
                    "name": "A#3",
                    "midi": 58,
                    "time": 48.40623709166664,
                    "velocity": 0.5511811023622047,
                    "duration": 0.2727271999999985
                },
                {
                    "name": "D4",
                    "midi": 62,
                    "time": 49.09089599999997,
                    "velocity": 0.5511811023622047,
                    "duration": 0.2727271999999985
                },
                {
                    "name": "A#3",
                    "midi": 58,
                    "time": 49.4261231833333,
                    "velocity": 0.5669291338582677,
                    "duration": 0.2727271999999985
                },
                {
                    "name": "D#4",
                    "midi": 63,
                    "time": 50.11362299999997,
                    "velocity": 0.5669291338582677,
                    "duration": 0.32954536666666456
                },
                {
                    "name": "C#4",
                    "midi": 61,
                    "time": 52.49714509166663,
                    "velocity": 0.5354330708661418,
                    "duration": 0.2727271999999985
                },
                {
                    "name": "C#4",
                    "midi": 61,
                    "time": 53.517031183333295,
                    "velocity": 0.5511811023622047,
                    "duration": 0.2727271999999985
                },
                {
                    "name": "B3",
                    "midi": 59,
                    "time": 55.22441709166662,
                    "velocity": 0.5511811023622047,
                    "duration": 0.2727271999999985
                },
                {
                    "name": "C#4",
                    "midi": 61,
                    "time": 56.252825908333286,
                    "velocity": 0.5590551181102362,
                    "duration": 0.2727271999999985
                },
                {
                    "name": "C#4",
                    "midi": 61,
                    "time": 57.27271199999995,
                    "velocity": 0.5511811023622047,
                    "duration": 0.2727271999999985
                },
                {
                    "name": "E4",
                    "midi": 64,
                    "time": 59.32100690833328,
                    "velocity": 0.5433070866141733,
                    "duration": 0.2727271999999985
                },
                {
                    "name": "D#4",
                    "midi": 63,
                    "time": 59.65339318333328,
                    "velocity": 0.5669291338582677,
                    "duration": 0.2727271999999985
                },
                {
                    "name": "C#4",
                    "midi": 61,
                    "time": 59.994302183333275,
                    "velocity": 0.5354330708661418,
                    "duration": 0.2727271999999985
                },
                {
                    "name": "C#4",
                    "midi": 61,
                    "time": 62.04827890833327,
                    "velocity": 0.5590551181102362,
                    "duration": 0.2727271999999985
                },
                {
                    "name": "D#4",
                    "midi": 63,
                    "time": 63.41191490833327,
                    "velocity": 0.5511811023622047,
                    "duration": 0.2727271999999985
                },
                {
                    "name": "C#4",
                    "midi": 61,
                    "time": 63.74430118333327,
                    "velocity": 0.5669291338582677,
                    "duration": 0.2727271999999985
                },
                {
                    "name": "B3",
                    "midi": 59,
                    "time": 64.0880510916666,
                    "velocity": 0.5669291338582677,
                    "duration": 0.2727272000000056
                },
                {
                    "name": "B3",
                    "midi": 59,
                    "time": 66.1420278166666,
                    "velocity": 0.5354330708661418,
                    "duration": 0.2727272000000056
                },
                {
                    "name": "D4",
                    "midi": 62,
                    "time": 66.8238458166666,
                    "velocity": 0.5511811023622047,
                    "duration": 0.1363635999999957
                },
                {
                    "name": "D#4",
                    "midi": 63,
                    "time": 67.15339118333327,
                    "velocity": 0.6299212598425197,
                    "duration": 0.1363635999999957
                },
                {
                    "name": "D#4",
                    "midi": 63,
                    "time": 67.49714109166659,
                    "velocity": 0.5590551181102362,
                    "duration": 0.2727272000000056
                },
                {
                    "name": "A#3",
                    "midi": 58,
                    "time": 68.18179999999992,
                    "velocity": 0.5354330708661418,
                    "duration": 0.2727272000000056
                },
                {
                    "name": "A#3",
                    "midi": 58,
                    "time": 68.52270899999994,
                    "velocity": 0.5669291338582677,
                    "duration": 0.2727272000000056
                },
                {
                    "name": "B3",
                    "midi": 59,
                    "time": 68.8607770916666,
                    "velocity": 0.5669291338582677,
                    "duration": 0.2727272000000056
                },
                {
                    "name": "C#4",
                    "midi": 61,
                    "time": 69.20736790833328,
                    "velocity": 0.5590551181102362,
                    "duration": 0.2727272000000056
                },
                {
                    "name": "D4",
                    "midi": 62,
                    "time": 69.88918590833329,
                    "velocity": 0.5511811023622047,
                    "duration": 0.2727272000000056
                },
                {
                    "name": "D#4",
                    "midi": 63,
                    "time": 70.22441309166663,
                    "velocity": 0.5669291338582677,
                    "duration": 0.2727272000000056
                },
                {
                    "name": "D#4",
                    "midi": 63,
                    "time": 85.23009090833331,
                    "velocity": 0.4330708661417323,
                    "duration": 0.2727272000000056
                },
                {
                    "name": "B3",
                    "midi": 59,
                    "time": 87.61645390833331,
                    "velocity": 0.4409448818897638,
                    "duration": 0.2727272000000056
                },
                {
                    "name": "D#4",
                    "midi": 63,
                    "time": 88.98008990833331,
                    "velocity": 0.4645669291338583,
                    "duration": 0.2727272000000056
                },
                {
                    "name": "D#4",
                    "midi": 63,
                    "time": 89.32099890833332,
                    "velocity": 0.4566929133858268,
                    "duration": 0.2727272000000056
                },
                {
                    "name": "E4",
                    "midi": 64,
                    "time": 89.65338518333333,
                    "velocity": 0.44881889763779526,
                    "duration": 0.2727272000000056
                },
                {
                    "name": "D#4",
                    "midi": 63,
                    "time": 90.00565781666667,
                    "velocity": 0.4409448818897638,
                    "duration": 0.2727272000000056
                },
                {
                    "name": "C#4",
                    "midi": 61,
                    "time": 90.33804409166667,
                    "velocity": 0.4566929133858268,
                    "duration": 0.2727272000000056
                },
                {
                    "name": "B3",
                    "midi": 59,
                    "time": 90.67895309166668,
                    "velocity": 0.4330708661417323,
                    "duration": 0.2727272000000056
                },
                {
                    "name": "B3",
                    "midi": 59,
                    "time": 91.0198620916667,
                    "velocity": 0.4645669291338583,
                    "duration": 0.2727272000000056
                },
                {
                    "name": "A#3",
                    "midi": 58,
                    "time": 91.3692938166667,
                    "velocity": 0.4409448818897638,
                    "duration": 0.2727272000000056
                },
                {
                    "name": "A#3",
                    "midi": 58,
                    "time": 92.7329298166667,
                    "velocity": 0.4409448818897638,
                    "duration": 0.2727272000000056
                },
                {
                    "name": "D#4",
                    "midi": 63,
                    "time": 94.00849765833337,
                    "velocity": 0.4330708661417323,
                    "duration": 0.06818180000000496
                },
                {
                    "name": "B3",
                    "midi": 59,
                    "time": 95.80111081666671,
                    "velocity": 0.44881889763779526,
                    "duration": 0.2727272000000056
                },
                {
                    "name": "D#4",
                    "midi": 63,
                    "time": 97.15622409166672,
                    "velocity": 0.4330708661417323,
                    "duration": 0.2727272000000056
                },
                {
                    "name": "C#4",
                    "midi": 61,
                    "time": 97.84656481666671,
                    "velocity": 0.4645669291338583,
                    "duration": 0.2727272000000056
                },
                {
                    "name": "D#4",
                    "midi": 63,
                    "time": 98.18179200000006,
                    "velocity": 0.44881889763779526,
                    "duration": 0.2727272000000056
                },
                {
                    "name": "E4",
                    "midi": 64,
                    "time": 98.51986009166673,
                    "velocity": 0.4409448818897638,
                    "duration": 0.2727272000000056
                },
                {
                    "name": "D#4",
                    "midi": 63,
                    "time": 98.8579281833334,
                    "velocity": 0.4566929133858268,
                    "duration": 0.2727272000000056
                },
                {
                    "name": "D#4",
                    "midi": 63,
                    "time": 99.88633700000007,
                    "velocity": 0.44881889763779526,
                    "duration": 0.2727272000000056
                },
                {
                    "name": "D#4",
                    "midi": 63,
                    "time": 101.07383668333341,
                    "velocity": 0.5354330708661418,
                    "duration": 0.1363635999999957
                },
                {
                    "name": "B3",
                    "midi": 59,
                    "time": 103.30110881666674,
                    "velocity": 0.5511811023622047,
                    "duration": 0.2727272000000056
                },
                {
                    "name": "B3",
                    "midi": 59,
                    "time": 103.63917690833341,
                    "velocity": 0.5511811023622047,
                    "duration": 0.2727272000000056
                },
                {
                    "name": "D#4",
                    "midi": 63,
                    "time": 104.32099490833342,
                    "velocity": 0.5354330708661418,
                    "duration": 0.2727272000000056
                },
                {
                    "name": "D#4",
                    "midi": 63,
                    "time": 104.65906300000009,
                    "velocity": 0.5354330708661418,
                    "duration": 0.2727272000000056
                },
                {
                    "name": "A#3",
                    "midi": 58,
                    "time": 105.34372190833342,
                    "velocity": 0.5433070866141733,
                    "duration": 0.2727272000000056
                },
                {
                    "name": "A#3",
                    "midi": 58,
                    "time": 105.67610818333343,
                    "velocity": 0.5511811023622047,
                    "duration": 0.2727272000000056
                },
                {
                    "name": "D#4",
                    "midi": 63,
                    "time": 106.36644890833342,
                    "velocity": 0.5511811023622047,
                    "duration": 0.2727272000000056
                },
                {
                    "name": "D#4",
                    "midi": 63,
                    "time": 106.70167609166677,
                    "velocity": 0.5669291338582677,
                    "duration": 0.2727272000000056
                },
                {
                    "name": "B3",
                    "midi": 59,
                    "time": 107.04826690833345,
                    "velocity": 0.5590551181102362,
                    "duration": 0.2727272000000056
                },
                {
                    "name": "D#4",
                    "midi": 63,
                    "time": 107.38917590833346,
                    "velocity": 0.5590551181102362,
                    "duration": 0.2727272000000056
                },
                {
                    "name": "D#4",
                    "midi": 63,
                    "time": 107.72156218333346,
                    "velocity": 0.5669291338582677,
                    "duration": 0.2727272000000056
                },
                {
                    "name": "B3",
                    "midi": 59,
                    "time": 108.0653120916668,
                    "velocity": 0.5511811023622047,
                    "duration": 0.2727272000000056
                },
                {
                    "name": "D4",
                    "midi": 62,
                    "time": 108.41190290833347,
                    "velocity": 0.5669291338582677,
                    "duration": 0.2727272000000056
                },
                {
                    "name": "D4",
                    "midi": 62,
                    "time": 108.74428918333348,
                    "velocity": 0.5590551181102362,
                    "duration": 0.2727272000000056
                },
                {
                    "name": "D#4",
                    "midi": 63,
                    "time": 109.43462990833348,
                    "velocity": 0.6456692913385826,
                    "duration": 0.09090906666666854
                },
                {
                    "name": "A#3",
                    "midi": 58,
                    "time": 109.43747081666682,
                    "velocity": 0.5590551181102362,
                    "duration": 0.2727271999999914
                },
                {
                    "name": "D#4",
                    "midi": 63,
                    "time": 109.54826624166681,
                    "velocity": 0.6141732283464567,
                    "duration": 0.09090906666666854
                },
                {
                    "name": "B3",
                    "midi": 59,
                    "time": 111.4744020916668,
                    "velocity": 0.5511811023622047,
                    "duration": 0.2727272000000056
                },
                {
                    "name": "B3",
                    "midi": 59,
                    "time": 111.81247018333347,
                    "velocity": 0.5669291338582677,
                    "duration": 0.2727272000000056
                },
                {
                    "name": "D#4",
                    "midi": 63,
                    "time": 112.49428818333348,
                    "velocity": 0.5511811023622047,
                    "duration": 0.2727272000000056
                },
                {
                    "name": "D#4",
                    "midi": 63,
                    "time": 112.83803809166682,
                    "velocity": 0.5590551181102362,
                    "duration": 0.2727272000000056
                },
                {
                    "name": "A#3",
                    "midi": 58,
                    "time": 113.52553790833349,
                    "velocity": 0.5354330708661418,
                    "duration": 0.2727272000000056
                },
                {
                    "name": "E4",
                    "midi": 64,
                    "time": 114.88917390833349,
                    "velocity": 0.5511811023622047,
                    "duration": 0.2727272000000056
                },
                {
                    "name": "D#4",
                    "midi": 63,
                    "time": 115.23292381666683,
                    "velocity": 0.5590551181102362,
                    "duration": 0.2727272000000056
                },
                {
                    "name": "C#4",
                    "midi": 61,
                    "time": 117.31246871666683,
                    "velocity": 0.5669291338582677,
                    "duration": 0.2727272000000056
                },
                {
                    "name": "B3",
                    "midi": 59,
                    "time": 119.3976954333335,
                    "velocity": 0.5669291338582677,
                    "duration": 0.2727272000000056
                },
                {
                    "name": "E4",
                    "midi": 64,
                    "time": 123.4033761833335,
                    "velocity": 0.5511811023622047,
                    "duration": 0.1363635999999957
                },
                {
                    "name": "D#4",
                    "midi": 63,
                    "time": 123.58519431666683,
                    "velocity": 0.5433070866141733,
                    "duration": 0.1363635999999957
                },
                {
                    "name": "D4",
                    "midi": 62,
                    "time": 123.75564881666682,
                    "velocity": 0.5590551181102362,
                    "duration": 0.1363635999999957
                },
                {
                    "name": "E4",
                    "midi": 64,
                    "time": 123.91758059166682,
                    "velocity": 0.6299212598425197,
                    "duration": 0.1363636000000099
                },
                {
                    "name": "C#4",
                    "midi": 61,
                    "time": 123.92042150000016,
                    "velocity": 0.5511811023622047,
                    "duration": 0.1363636000000099
                },
                {
                    "name": "D#4",
                    "midi": 63,
                    "time": 124.42610318333351,
                    "velocity": 0.5590551181102362,
                    "duration": 0.2727271999999914
                },
                {
                    "name": "B3",
                    "midi": 59,
                    "time": 124.43746681666684,
                    "velocity": 0.5433070866141733,
                    "duration": 0.2727271999999914
                },
                {
                    "name": "D#4",
                    "midi": 63,
                    "time": 124.7755349083335,
                    "velocity": 0.5669291338582677,
                    "duration": 0.2727272000000056
                },
                {
                    "name": "E4",
                    "midi": 64,
                    "time": 125.4573529083335,
                    "velocity": 0.5433070866141733,
                    "duration": 0.2727272000000056
                },
                {
                    "name": "A#3",
                    "midi": 58,
                    "time": 125.46019381666684,
                    "velocity": 0.5511811023622047,
                    "duration": 0.2727272000000056
                },
                {
                    "name": "A#3",
                    "midi": 58,
                    "time": 125.79258009166685,
                    "velocity": 0.5354330708661418,
                    "duration": 0.2727272000000056
                },
                {
                    "name": "D#4",
                    "midi": 63,
                    "time": 126.47439809166686,
                    "velocity": 0.5511811023622047,
                    "duration": 0.1363635999999957
                },
                {
                    "name": "D#4",
                    "midi": 63,
                    "time": 128.52269300000017,
                    "velocity": 0.5433070866141733,
                    "duration": 0.2727271999999914
                },
                {
                    "name": "A#3",
                    "midi": 58,
                    "time": 128.8579201833335,
                    "velocity": 0.5354330708661418,
                    "duration": 0.2727271999999914
                },
                {
                    "name": "D4",
                    "midi": 62,
                    "time": 129.54542000000015,
                    "velocity": 0.5590551181102362,
                    "duration": 0.2727271999999914
                },
                {
                    "name": "A#3",
                    "midi": 58,
                    "time": 129.88064718333348,
                    "velocity": 0.5433070866141733,
                    "duration": 0.2727271999999914
                },
                {
                    "name": "C#4",
                    "midi": 61,
                    "time": 129.8834880916668,
                    "velocity": 0.5590551181102362,
                    "duration": 0.2727271999999914
                },
                {
                    "name": "A#3",
                    "midi": 58,
                    "time": 130.57098790833345,
                    "velocity": 0.5354330708661418,
                    "duration": 0.1363636000000099
                },
                {
                    "name": "C#4",
                    "midi": 61,
                    "time": 132.95735090833347,
                    "velocity": 0.5354330708661418,
                    "duration": 0.2727271999999914
                },
                {
                    "name": "C#4",
                    "midi": 61,
                    "time": 133.97155518333346,
                    "velocity": 0.5511811023622047,
                    "duration": 0.2727271999999914
                },
                {
                    "name": "B3",
                    "midi": 59,
                    "time": 135.33519118333345,
                    "velocity": 0.5433070866141733,
                    "duration": 0.2727271999999914
                },
                {
                    "name": "C#4",
                    "midi": 61,
                    "time": 136.36644090833343,
                    "velocity": 0.5590551181102362,
                    "duration": 0.2727271999999914
                },
                {
                    "name": "C#4",
                    "midi": 61,
                    "time": 137.39200881666676,
                    "velocity": 0.5511811023622047,
                    "duration": 0.2727271999999914
                },
                {
                    "name": "E4",
                    "midi": 64,
                    "time": 139.77553090833342,
                    "velocity": 0.5669291338582677,
                    "duration": 0.2727271999999914
                },
                {
                    "name": "D#4",
                    "midi": 63,
                    "time": 140.11359900000008,
                    "velocity": 0.5669291338582677,
                    "duration": 0.2727271999999914
                },
                {
                    "name": "C#4",
                    "midi": 61,
                    "time": 140.4488261833334,
                    "velocity": 0.5354330708661418,
                    "duration": 0.2727271999999914
                },
                {
                    "name": "D#4",
                    "midi": 63,
                    "time": 143.86075709166673,
                    "velocity": 0.5433070866141733,
                    "duration": 0.2727271999999914
                },
                {
                    "name": "C#4",
                    "midi": 61,
                    "time": 144.19882518333338,
                    "velocity": 0.5590551181102362,
                    "duration": 0.2727271999999914
                },
                {
                    "name": "B3",
                    "midi": 59,
                    "time": 144.54257509166672,
                    "velocity": 0.5590551181102362,
                    "duration": 0.2727271999999914
                },
                {
                    "name": "D#4",
                    "midi": 63,
                    "time": 147.9516650916667,
                    "velocity": 0.5669291338582677,
                    "duration": 0.2727271999999914
                },
                {
                    "name": "D#4",
                    "midi": 63,
                    "time": 150.67609618333336,
                    "velocity": 0.5433070866141733,
                    "duration": 0.2727271999999914
                },
                {
                    "name": "D#4",
                    "midi": 63,
                    "time": 152.05109581666667,
                    "velocity": 0.5590551181102362,
                    "duration": 0.2727271999999914
                },
                {
                    "name": "D#4",
                    "midi": 63,
                    "time": 154.77552690833332,
                    "velocity": 0.5354330708661418,
                    "duration": 0.2727271999999914
                },
                {
                    "name": "B3",
                    "midi": 59,
                    "time": 157.88348062499998,
                    "velocity": 0.5511811023622047,
                    "duration": 0.2727271999999914
                },
                {
                    "name": "A#3",
                    "midi": 58,
                    "time": 161.98007044166664,
                    "velocity": 0.5511811023622047,
                    "duration": 0.5454544000000681
                },
                {
                    "name": "C#4",
                    "midi": 61,
                    "time": 162.0113204333333,
                    "velocity": 0.5590551181102362,
                    "duration": 0.5454544000000681
                },
                {
                    "name": "E4",
                    "midi": 64,
                    "time": 162.28688854166666,
                    "velocity": 0.6456692913385826,
                    "duration": 0.05113635000000727
                },
                {
                    "name": "D4",
                    "midi": 62,
                    "time": 162.34654761666667,
                    "velocity": 0.6141732283464567,
                    "duration": 0.05113635000000727
                },
                {
                    "name": "E4",
                    "midi": 64,
                    "time": 162.40620669166668,
                    "velocity": 0.6299212598425197,
                    "duration": 0.05113635000000727
                },
                {
                    "name": "D#4",
                    "midi": 63,
                    "time": 162.46870667500002,
                    "velocity": 0.6299212598425197,
                    "duration": 0.05113635000000727
                },
                {
                    "name": "E4",
                    "midi": 64,
                    "time": 162.59654755000005,
                    "velocity": 0.6377952755905512,
                    "duration": 0.05113635000000727
                },
                {
                    "name": "E4",
                    "midi": 64,
                    "time": 178.2982479083334,
                    "velocity": 0.5511811023622047,
                    "duration": 0.2727271999999914
                },
                {
                    "name": "D#4",
                    "midi": 63,
                    "time": 179.65620209166673,
                    "velocity": 0.5669291338582677,
                    "duration": 0.2727271999999914
                },
                {
                    "name": "D#4",
                    "midi": 63,
                    "time": 180.16756559166672,
                    "velocity": 0.5433070866141733,
                    "duration": 0.1363636000000099
                },
                {
                    "name": "B3",
                    "midi": 59,
                    "time": 182.39199681666673,
                    "velocity": 0.5354330708661418,
                    "duration": 0.2727271999999914
                },
                {
                    "name": "D#4",
                    "midi": 63,
                    "time": 183.7471100916667,
                    "velocity": 0.5433070866141733,
                    "duration": 0.2727271999999914
                },
                {
                    "name": "D#4",
                    "midi": 63,
                    "time": 184.0965418166667,
                    "velocity": 0.5433070866141733,
                    "duration": 0.2727271999999914
                },
                {
                    "name": "B3",
                    "midi": 59,
                    "time": 184.43176900000003,
                    "velocity": 0.5354330708661418,
                    "duration": 0.2727271999999914
                },
                {
                    "name": "C4",
                    "midi": 60,
                    "time": 184.772678,
                    "velocity": 0.5669291338582677,
                    "duration": 0.2727271999999914
                },
                {
                    "name": "E4",
                    "midi": 64,
                    "time": 185.10790518333334,
                    "velocity": 0.5669291338582677,
                    "duration": 0.2727272000000198
                },
                {
                    "name": "C#4",
                    "midi": 61,
                    "time": 185.11642790833335,
                    "velocity": 0.5669291338582677,
                    "duration": 0.2727272000000198
                },
                {
                    "name": "D#4",
                    "midi": 63,
                    "time": 185.4516550916667,
                    "velocity": 0.5669291338582677,
                    "duration": 0.2727271999999914
                },
                {
                    "name": "D#4",
                    "midi": 63,
                    "time": 186.4829048166667,
                    "velocity": 0.5669291338582677,
                    "duration": 0.2727271999999914
                },
                {
                    "name": "D#4",
                    "midi": 63,
                    "time": 187.84654081666667,
                    "velocity": 0.5511811023622047,
                    "duration": 0.04545453333332716
                },
                {
                    "name": "B3",
                    "midi": 59,
                    "time": 189.88063118333332,
                    "velocity": 0.5354330708661418,
                    "duration": 0.2727272000000198
                },
                {
                    "name": "D#4",
                    "midi": 63,
                    "time": 189.886313,
                    "velocity": 0.5511811023622047,
                    "duration": 0.2727272000000198
                },
                {
                    "name": "D#4",
                    "midi": 63,
                    "time": 190.2243810916667,
                    "velocity": 0.5590551181102362,
                    "duration": 0.2727272000000198
                },
                {
                    "name": "B3",
                    "midi": 59,
                    "time": 190.23006290833337,
                    "velocity": 0.5354330708661418,
                    "duration": 0.2727272000000198
                },
                {
                    "name": "D#4",
                    "midi": 63,
                    "time": 190.9061990916667,
                    "velocity": 0.5669291338582677,
                    "duration": 0.2727271999999914
                },
                {
                    "name": "B3",
                    "midi": 59,
                    "time": 190.9061990916667,
                    "velocity": 0.5669291338582677,
                    "duration": 0.2727271999999914
                },
                {
                    "name": "B3",
                    "midi": 59,
                    "time": 191.2556308166667,
                    "velocity": 0.5511811023622047,
                    "duration": 0.2727271999999914
                },
                {
                    "name": "D#4",
                    "midi": 63,
                    "time": 191.2556308166667,
                    "velocity": 0.5354330708661418,
                    "duration": 0.2727271999999914
                },
                {
                    "name": "D#4",
                    "midi": 63,
                    "time": 191.9374488166667,
                    "velocity": 0.5511811023622047,
                    "duration": 0.2727271999999914
                },
                {
                    "name": "D#4",
                    "midi": 63,
                    "time": 192.26699418333334,
                    "velocity": 0.5354330708661418,
                    "duration": 0.2727271999999914
                },
                {
                    "name": "A#3",
                    "midi": 58,
                    "time": 192.27835781666667,
                    "velocity": 0.5590551181102362,
                    "duration": 0.2727271999999914
                },
                {
                    "name": "D#4",
                    "midi": 63,
                    "time": 192.94881218333333,
                    "velocity": 0.5354330708661418,
                    "duration": 0.2727272000000198
                },
                {
                    "name": "C#4",
                    "midi": 61,
                    "time": 192.95733490833334,
                    "velocity": 0.5511811023622047,
                    "duration": 0.2727272000000198
                },
                {
                    "name": "D#4",
                    "midi": 63,
                    "time": 193.2925620916667,
                    "velocity": 0.5354330708661418,
                    "duration": 0.2727271999999914
                },
                {
                    "name": "A#3",
                    "midi": 58,
                    "time": 193.2925620916667,
                    "velocity": 0.5354330708661418,
                    "duration": 0.2727271999999914
                },
                {
                    "name": "D#4",
                    "midi": 63,
                    "time": 193.9829028166667,
                    "velocity": 0.5354330708661418,
                    "duration": 0.2727271999999914
                },
                {
                    "name": "D#4",
                    "midi": 63,
                    "time": 194.32097090833335,
                    "velocity": 0.5590551181102362,
                    "duration": 0.2727271999999914
                },
                {
                    "name": "B3",
                    "midi": 59,
                    "time": 194.32381181666668,
                    "velocity": 0.5354330708661418,
                    "duration": 0.2727271999999914
                },
                {
                    "name": "D4",
                    "midi": 62,
                    "time": 194.99426618333334,
                    "velocity": 0.5433070866141733,
                    "duration": 0.2727271999999914
                },
                {
                    "name": "B3",
                    "midi": 59,
                    "time": 195.00562981666667,
                    "velocity": 0.5354330708661418,
                    "duration": 0.2727271999999914
                },
                {
                    "name": "D4",
                    "midi": 62,
                    "time": 195.33517518333332,
                    "velocity": 0.5590551181102362,
                    "duration": 0.2727271999999914
                },
                {
                    "name": "A#3",
                    "midi": 58,
                    "time": 195.33517518333332,
                    "velocity": 0.5511811023622047,
                    "duration": 0.2727271999999914
                },
                {
                    "name": "D#4",
                    "midi": 63,
                    "time": 196.0169931833333,
                    "velocity": 0.6220472440944882,
                    "duration": 0.2556817500000079
                },
                {
                    "name": "A#3",
                    "midi": 58,
                    "time": 196.02551590833332,
                    "velocity": 0.5669291338582677,
                    "duration": 0.2727271999999914
                },
                {
                    "name": "D#4",
                    "midi": 63,
                    "time": 198.06812899999997,
                    "velocity": 0.5354330708661418,
                    "duration": 0.2727271999999914
                },
                {
                    "name": "A3",
                    "midi": 57,
                    "time": 198.06812899999997,
                    "velocity": 0.5669291338582677,
                    "duration": 0.2727271999999914
                },
                {
                    "name": "D#4",
                    "midi": 63,
                    "time": 198.40903799999995,
                    "velocity": 0.5590551181102362,
                    "duration": 0.2727272000000198
                },
                {
                    "name": "C4",
                    "midi": 60,
                    "time": 198.41471981666663,
                    "velocity": 0.5669291338582677,
                    "duration": 0.2727272000000198
                },
                {
                    "name": "A#3",
                    "midi": 58,
                    "time": 199.08517418333332,
                    "velocity": 0.5433070866141733,
                    "duration": 0.2727272000000198
                },
                {
                    "name": "D#4",
                    "midi": 63,
                    "time": 199.09369690833333,
                    "velocity": 0.5511811023622047,
                    "duration": 0.2727272000000198
                },
                {
                    "name": "B3",
                    "midi": 59,
                    "time": 199.42608318333336,
                    "velocity": 0.5590551181102362,
                    "duration": 0.2727272000000198
                },
                {
                    "name": "D#4",
                    "midi": 63,
                    "time": 199.43460590833337,
                    "velocity": 0.5511811023622047,
                    "duration": 0.2727272000000198
                },
                {
                    "name": "E4",
                    "midi": 64,
                    "time": 200.10790118333338,
                    "velocity": 0.5590551181102362,
                    "duration": 0.2727271999999914
                },
                {
                    "name": "C4",
                    "midi": 60,
                    "time": 200.45733290833337,
                    "velocity": 0.5669291338582677,
                    "duration": 0.2727271999999914
                },
                {
                    "name": "C#4",
                    "midi": 61,
                    "time": 200.78971918333337,
                    "velocity": 0.5433070866141733,
                    "duration": 0.2727271999999914
                },
                {
                    "name": "E4",
                    "midi": 64,
                    "time": 201.4743780916667,
                    "velocity": 0.5590551181102362,
                    "duration": 0.2727271999999914
                },
                {
                    "name": "D#4",
                    "midi": 63,
                    "time": 201.81244618333335,
                    "velocity": 0.5511811023622047,
                    "duration": 0.2727271999999914
                },
                {
                    "name": "C#4",
                    "midi": 61,
                    "time": 203.18744581666667,
                    "velocity": 0.5511811023622047,
                    "duration": 0.2727271999999914
                },
                {
                    "name": "E4",
                    "midi": 64,
                    "time": 204.25562735,
                    "velocity": 0.6456692913385826,
                    "duration": 0.04545453333332716
                },
                {
                    "name": "C#4",
                    "midi": 61,
                    "time": 204.32096824166666,
                    "velocity": 0.6456692913385826,
                    "duration": 0.04545453333332716
                },
                {
                    "name": "A#3",
                    "midi": 58,
                    "time": 204.37778640833332,
                    "velocity": 0.6220472440944882,
                    "duration": 0.04545453333332716
                },
                {
                    "name": "B3",
                    "midi": 59,
                    "time": 204.66471814999997,
                    "velocity": 0.6220472440944882,
                    "duration": 0.04545453333332716
                },
                {
                    "name": "D#4",
                    "midi": 63,
                    "time": 204.7186954083333,
                    "velocity": 0.6141732283464567,
                    "duration": 0.04545453333332716
                },
                {
                    "name": "E4",
                    "midi": 64,
                    "time": 206.75846759166663,
                    "velocity": 0.5669291338582677,
                    "duration": 0.1363636000000099
                },
                {
                    "name": "D#4",
                    "midi": 63,
                    "time": 207.10221749999997,
                    "velocity": 0.5590551181102362,
                    "duration": 0.10227269999998612
                },
                {
                    "name": "B3",
                    "midi": 59,
                    "time": 207.27267199999994,
                    "velocity": 0.5354330708661418,
                    "duration": 0.10227269999998612
                },
                {
                    "name": "D#4",
                    "midi": 63,
                    "time": 207.44596740833327,
                    "velocity": 0.5354330708661418,
                    "duration": 0.10227269999998612
                },
                {
                    "name": "D#4",
                    "midi": 63,
                    "time": 207.77835368333325,
                    "velocity": 0.5669291338582677,
                    "duration": 0.10227269999998612
                },
                {
                    "name": "E4",
                    "midi": 64,
                    "time": 208.13062631666656,
                    "velocity": 0.5433070866141733,
                    "duration": 0.10227269999998612
                },
                {
                    "name": "A#3",
                    "midi": 58,
                    "time": 208.2897171833332,
                    "velocity": 0.5511811023622047,
                    "duration": 0.10227269999998612
                },
                {
                    "name": "E4",
                    "midi": 64,
                    "time": 208.4601716833332,
                    "velocity": 0.5354330708661418,
                    "duration": 0.10227269999998612
                },
                {
                    "name": "E4",
                    "midi": 64,
                    "time": 208.80108068333317,
                    "velocity": 0.5354330708661418,
                    "duration": 0.10227269999998612
                },
                {
                    "name": "D#4",
                    "midi": 63,
                    "time": 209.14767149999983,
                    "velocity": 0.5354330708661418,
                    "duration": 0.10227269999998612
                },
                {
                    "name": "A#3",
                    "midi": 58,
                    "time": 211.35789818333316,
                    "velocity": 0.5354330708661418,
                    "duration": 0.10227269999998612
                },
                {
                    "name": "D#4",
                    "midi": 63,
                    "time": 211.3692618166665,
                    "velocity": 0.5669291338582677,
                    "duration": 0.10227269999998612
                },
                {
                    "name": "D4",
                    "midi": 62,
                    "time": 212.38062518333314,
                    "velocity": 0.5511811023622047,
                    "duration": 0.10227269999998612
                },
                {
                    "name": "A#3",
                    "midi": 58,
                    "time": 212.39198881666647,
                    "velocity": 0.5669291338582677,
                    "duration": 0.10227269999998612
                },
                {
                    "name": "A#3",
                    "midi": 58,
                    "time": 213.4090339999998,
                    "velocity": 0.5511811023622047,
                    "duration": 0.10227269999998612
                },
                {
                    "name": "C#4",
                    "midi": 61,
                    "time": 215.45164709166644,
                    "velocity": 0.5354330708661418,
                    "duration": 0.10227269999998612
                },
                {
                    "name": "C#4",
                    "midi": 61,
                    "time": 216.47437409166642,
                    "velocity": 0.5590551181102362,
                    "duration": 0.10227269999998612
                },
                {
                    "name": "C#4",
                    "midi": 61,
                    "time": 217.50278290833307,
                    "velocity": 0.5590551181102362,
                    "duration": 0.10227269999998612
                },
                {
                    "name": "B3",
                    "midi": 59,
                    "time": 218.5283508166664,
                    "velocity": 0.5511811023622047,
                    "duration": 0.10227269999998612
                },
                {
                    "name": "A#3",
                    "midi": 58,
                    "time": 219.5425550916664,
                    "velocity": 0.5590551181102362,
                    "duration": 0.10227269999998612
                },
                {
                    "name": "C#4",
                    "midi": 61,
                    "time": 220.2243730916664,
                    "velocity": 0.5511811023622047,
                    "duration": 0.2727271999999914
                },
                {
                    "name": "C#4",
                    "midi": 61,
                    "time": 220.9061910916664,
                    "velocity": 0.5511811023622047,
                    "duration": 0.10227269999998612
                },
                {
                    "name": "D#4",
                    "midi": 63,
                    "time": 230.7953929999997,
                    "velocity": 0.6535433070866141,
                    "duration": 0.10227269999998612
                },
                {
                    "name": "D#4",
                    "midi": 63,
                    "time": 230.96868840833304,
                    "velocity": 0.6771653543307087,
                    "duration": 0.10227269999998612
                },
                {
                    "name": "D#4",
                    "midi": 63,
                    "time": 231.139142908333,
                    "velocity": 0.5905511811023622,
                    "duration": 0.10227269999998612
                },
                {
                    "name": "D#4",
                    "midi": 63,
                    "time": 231.301074683333,
                    "velocity": 0.5748031496062992,
                    "duration": 0.10227269999998612
                },
                {
                    "name": "D#4",
                    "midi": 63,
                    "time": 231.81811999999965,
                    "velocity": 0.5984251968503937,
                    "duration": 0.10227269999998612
                },
                {
                    "name": "D#4",
                    "midi": 63,
                    "time": 231.98857449999963,
                    "velocity": 0.5984251968503937,
                    "duration": 0.10227269999998612
                },
                {
                    "name": "E4",
                    "midi": 64,
                    "time": 232.83800609166627,
                    "velocity": 0.6141732283464567,
                    "duration": 0.10227269999998612
                },
                {
                    "name": "E4",
                    "midi": 64,
                    "time": 233.01698331666626,
                    "velocity": 0.5826771653543307,
                    "duration": 0.10227269999998612
                },
                {
                    "name": "D4",
                    "midi": 62,
                    "time": 233.18175599999958,
                    "velocity": 0.5984251968503937,
                    "duration": 0.10227269999998612
                },
                {
                    "name": "D4",
                    "midi": 62,
                    "time": 233.34936959166623,
                    "velocity": 0.5984251968503937,
                    "duration": 0.10227269999998612
                },
                {
                    "name": "D#4",
                    "midi": 63,
                    "time": 233.5198240916662,
                    "velocity": 0.6141732283464567,
                    "duration": 0.2727271999999914
                },
                {
                    "name": "D#4",
                    "midi": 63,
                    "time": 234.88061918333287,
                    "velocity": 0.7007874015748031,
                    "duration": 0.10227269999998612
                },
                {
                    "name": "D#4",
                    "midi": 63,
                    "time": 235.05675549999953,
                    "velocity": 0.7165354330708661,
                    "duration": 0.10227269999998612
                },
                {
                    "name": "D#4",
                    "midi": 63,
                    "time": 235.22436909166618,
                    "velocity": 0.6299212598425197,
                    "duration": 0.10227269999998612
                },
                {
                    "name": "D#4",
                    "midi": 63,
                    "time": 235.39198268333283,
                    "velocity": 0.6141732283464567,
                    "duration": 0.10227269999998612
                },
                {
                    "name": "E4",
                    "midi": 64,
                    "time": 238.97152718333282,
                    "velocity": 0.6456692913385826,
                    "duration": 0.10227269999998612
                },
                {
                    "name": "E4",
                    "midi": 64,
                    "time": 239.1419816833328,
                    "velocity": 0.6456692913385826,
                    "duration": 0.10227269999998612
                },
                {
                    "name": "D4",
                    "midi": 62,
                    "time": 239.31243618333278,
                    "velocity": 0.6535433070866141,
                    "duration": 0.10227269999998612
                },
                {
                    "name": "D4",
                    "midi": 62,
                    "time": 239.49141340833276,
                    "velocity": 0.6771653543307087,
                    "duration": 0.10227269999998612
                },
                {
                    "name": "A#3",
                    "midi": 58,
                    "time": 239.6647088166661,
                    "velocity": 0.6535433070866141,
                    "duration": 0.10227269999998612
                },
                {
                    "name": "D#4",
                    "midi": 63,
                    "time": 239.6647088166661,
                    "velocity": 0.6535433070866141,
                    "duration": 0.10227269999998612
                },
                {
                    "name": "D#4",
                    "midi": 63,
                    "time": 239.83232240833274,
                    "velocity": 0.6456692913385826,
                    "duration": 0.10227269999998612
                },
                {
                    "name": "A#3",
                    "midi": 58,
                    "time": 239.83516331666607,
                    "velocity": 0.6456692913385826,
                    "duration": 0.10227269999998612
                },
                {
                    "name": "B3",
                    "midi": 59,
                    "time": 239.99709509166607,
                    "velocity": 0.6614173228346457,
                    "duration": 0.10227269999998612
                },
                {
                    "name": "B3",
                    "midi": 59,
                    "time": 240.16754959166605,
                    "velocity": 0.6850393700787402,
                    "duration": 0.10227270000001454
                },
                {
                    "name": "E4",
                    "midi": 64,
                    "time": 240.17323140833273,
                    "velocity": 0.7559055118110236,
                    "duration": 0.10227270000001454
                },
                {
                    "name": "D4",
                    "midi": 62,
                    "time": 240.34368590833273,
                    "velocity": 0.7795275590551181,
                    "duration": 0.10227269999998612
                },
                {
                    "name": "A3",
                    "midi": 57,
                    "time": 240.34652681666606,
                    "velocity": 0.6614173228346457,
                    "duration": 0.10227269999998612
                },
                {
                    "name": "D#4",
                    "midi": 63,
                    "time": 240.50845859166606,
                    "velocity": 0.7795275590551181,
                    "duration": 0.10227269999998612
                },
                {
                    "name": "A3",
                    "midi": 57,
                    "time": 240.50845859166606,
                    "velocity": 0.6850393700787402,
                    "duration": 0.10227269999998612
                },
                {
                    "name": "A#3",
                    "midi": 58,
                    "time": 240.6760721833327,
                    "velocity": 0.6535433070866141,
                    "duration": 0.10227269999998612
                },
                {
                    "name": "E4",
                    "midi": 64,
                    "time": 240.6760721833327,
                    "velocity": 0.7795275590551181,
                    "duration": 0.10227269999998612
                },
                {
                    "name": "D#4",
                    "midi": 63,
                    "time": 240.85220849999936,
                    "velocity": 0.7559055118110236,
                    "duration": 0.10227270000001454
                },
                {
                    "name": "A#3",
                    "midi": 58,
                    "time": 240.85789031666604,
                    "velocity": 0.6614173228346457,
                    "duration": 0.10227270000001454
                },
                {
                    "name": "C#4",
                    "midi": 61,
                    "time": 241.02834481666605,
                    "velocity": 0.7559055118110236,
                    "duration": 0.10227269999998612
                },
                {
                    "name": "B3",
                    "midi": 59,
                    "time": 241.19311749999937,
                    "velocity": 0.7716535433070866,
                    "duration": 0.10227269999998612
                },
                {
                    "name": "A#3",
                    "midi": 58,
                    "time": 241.36925381666603,
                    "velocity": 0.7795275590551181,
                    "duration": 0.10227269999998612
                },
                {
                    "name": "E4",
                    "midi": 64,
                    "time": 242.2101626833327,
                    "velocity": 0.7952755905511811,
                    "duration": 0.10227269999998612
                },
                {
                    "name": "D4",
                    "midi": 62,
                    "time": 242.38061718333267,
                    "velocity": 0.7716535433070866,
                    "duration": 0.10227269999998612
                },
                {
                    "name": "D#4",
                    "midi": 63,
                    "time": 242.55675349999933,
                    "velocity": 0.8031496062992126,
                    "duration": 0.10227269999998612
                },
                {
                    "name": "E4",
                    "midi": 64,
                    "time": 242.72436709166598,
                    "velocity": 0.7952755905511811,
                    "duration": 0.10227269999998612
                },
                {
                    "name": "D#4",
                    "midi": 63,
                    "time": 242.89198068333263,
                    "velocity": 0.7874015748031497,
                    "duration": 0.10227269999998612
                },
                {
                    "name": "C#4",
                    "midi": 61,
                    "time": 243.07379881666594,
                    "velocity": 0.7795275590551181,
                    "duration": 0.10227269999998612
                },
                {
                    "name": "B3",
                    "midi": 59,
                    "time": 243.24425331666592,
                    "velocity": 0.7795275590551181,
                    "duration": 0.10227269999998612
                },
                {
                    "name": "A#3",
                    "midi": 58,
                    "time": 243.40902599999924,
                    "velocity": 0.7874015748031497,
                    "duration": 0.10227269999998612
                },
                {
                    "name": "D4",
                    "midi": 62,
                    "time": 244.08516218333256,
                    "velocity": 0.8188976377952756,
                    "duration": 0.10227269999998612
                },
                {
                    "name": "D#4",
                    "midi": 63,
                    "time": 244.42607118333254,
                    "velocity": 0.8031496062992126,
                    "duration": 0.10227269999998612
                },
                {
                    "name": "A#3",
                    "midi": 58,
                    "time": 245.11925281666586,
                    "velocity": 0.7952755905511811,
                    "duration": 0.10227269999998612
                },
                {
                    "name": "A#3",
                    "midi": 58,
                    "time": 245.28118459166586,
                    "velocity": 0.8267716535433071,
                    "duration": 0.10227269999998612
                },
                {
                    "name": "D4",
                    "midi": 62,
                    "time": 245.45732090833252,
                    "velocity": 0.8346456692913385,
                    "duration": 0.10227269999998612
                },
                {
                    "name": "D4",
                    "midi": 62,
                    "time": 245.63061631666585,
                    "velocity": 0.8031496062992126,
                    "duration": 0.10227269999998612
                },
                {
                    "name": "D#4",
                    "midi": 63,
                    "time": 245.80107081666583,
                    "velocity": 0.8031496062992126,
                    "duration": 0.10227269999998612
                },
                {
                    "name": "D#4",
                    "midi": 63,
                    "time": 245.96300259166583,
                    "velocity": 0.8110236220472441,
                    "duration": 0.10227269999998612
                },
                {
                    "name": "A3",
                    "midi": 57,
                    "time": 246.30107068333248,
                    "velocity": 0.8110236220472441,
                    "duration": 0.10227269999998612
                },
                {
                    "name": "A#3",
                    "midi": 58,
                    "time": 246.6448205916658,
                    "velocity": 0.8267716535433071,
                    "duration": 0.10227269999998612
                },
                {
                    "name": "D4",
                    "midi": 62,
                    "time": 246.98288868333245,
                    "velocity": 0.8346456692913385,
                    "duration": 0.10227269999998612
                },
                {
                    "name": "D#4",
                    "midi": 63,
                    "time": 247.33516131666576,
                    "velocity": 0.84251968503937,
                    "duration": 0.10227269999998612
                },
                {
                    "name": "D#4",
                    "midi": 63,
                    "time": 251.08516031666574,
                    "velocity": 0.7874015748031497,
                    "duration": 0.10227269999998612
                },
                {
                    "name": "C#4",
                    "midi": 61,
                    "time": 251.42606931666572,
                    "velocity": 0.7795275590551181,
                    "duration": 0.10227269999998612
                },
                {
                    "name": "A#3",
                    "midi": 58,
                    "time": 251.75561468333237,
                    "velocity": 0.7637795275590551,
                    "duration": 0.10227269999998612
                },
                {
                    "name": "D#4",
                    "midi": 63,
                    "time": 252.44595540833237,
                    "velocity": 0.7244094488188977,
                    "duration": 0.10227269999998612
                },
                {
                    "name": "C#4",
                    "midi": 61,
                    "time": 252.78402349999902,
                    "velocity": 0.7007874015748031,
                    "duration": 0.10227269999998612
                },
                {
                    "name": "A#3",
                    "midi": 58,
                    "time": 253.11925068333235,
                    "velocity": 0.6850393700787402,
                    "duration": 0.10227269999998612
                },
                {
                    "name": "D#4",
                    "midi": 63,
                    "time": 256.7101588166657,
                    "velocity": 0.5511811023622047,
                    "duration": 0.2727272000000198
                },
                {
                    "name": "B3",
                    "midi": 59,
                    "time": 258.4061810916657,
                    "velocity": 0.5669291338582677,
                    "duration": 0.1022726999999577
                },
                {
                    "name": "D#4",
                    "midi": 63,
                    "time": 258.41186290833235,
                    "velocity": 0.5433070866141733,
                    "duration": 0.1022726999999577
                },
                {
                    "name": "D#4",
                    "midi": 63,
                    "time": 258.5737946833323,
                    "velocity": 0.5590551181102362,
                    "duration": 0.1022726999999577
                },
                {
                    "name": "B3",
                    "midi": 59,
                    "time": 258.579476499999,
                    "velocity": 0.5354330708661418,
                    "duration": 0.1022726999999577
                },
                {
                    "name": "D#4",
                    "midi": 63,
                    "time": 258.7470900916656,
                    "velocity": 0.5511811023622047,
                    "duration": 0.2727272000000198
                },
                {
                    "name": "B3",
                    "midi": 59,
                    "time": 258.7499309999989,
                    "velocity": 0.5354330708661418,
                    "duration": 0.2727272000000198
                },
                {
                    "name": "B3",
                    "midi": 59,
                    "time": 259.43174899999894,
                    "velocity": 0.5590551181102362,
                    "duration": 0.10227270000001454
                },
                {
                    "name": "D#4",
                    "midi": 63,
                    "time": 259.43458990833227,
                    "velocity": 0.5590551181102362,
                    "duration": 0.10227270000001454
                },
                {
                    "name": "B3",
                    "midi": 59,
                    "time": 259.5965216833323,
                    "velocity": 0.5511811023622047,
                    "duration": 0.10227270000001454
                },
                {
                    "name": "D#4",
                    "midi": 63,
                    "time": 259.5993625916656,
                    "velocity": 0.5511811023622047,
                    "duration": 0.10227270000001454
                },
                {
                    "name": "D#4",
                    "midi": 63,
                    "time": 259.7669761833323,
                    "velocity": 0.5669291338582677,
                    "duration": 0.2727272000000198
                },
                {
                    "name": "B3",
                    "midi": 59,
                    "time": 259.77833981666566,
                    "velocity": 0.5590551181102362,
                    "duration": 0.2727272000000198
                },
                {
                    "name": "D#4",
                    "midi": 63,
                    "time": 260.4601578166657,
                    "velocity": 0.5511811023622047,
                    "duration": 0.10227270000001454
                },
                {
                    "name": "D#4",
                    "midi": 63,
                    "time": 260.62777140833236,
                    "velocity": 0.5511811023622047,
                    "duration": 0.10227270000001454
                },
                {
                    "name": "A#3",
                    "midi": 58,
                    "time": 260.79538499999904,
                    "velocity": 0.5590551181102362,
                    "duration": 0.272727199999963
                },
                {
                    "name": "D#4",
                    "midi": 63,
                    "time": 260.8010668166657,
                    "velocity": 0.5354330708661418,
                    "duration": 0.272727199999963
                },
                {
                    "name": "D#4",
                    "midi": 63,
                    "time": 261.4715211833323,
                    "velocity": 0.5590551181102362,
                    "duration": 0.10227270000001454
                },
                {
                    "name": "C#4",
                    "midi": 61,
                    "time": 261.48288481666566,
                    "velocity": 0.5354330708661418,
                    "duration": 0.10227270000001454
                },
                {
                    "name": "D#4",
                    "midi": 63,
                    "time": 261.65049840833234,
                    "velocity": 0.5511811023622047,
                    "duration": 0.10227270000001454
                },
                {
                    "name": "C#4",
                    "midi": 61,
                    "time": 261.65333931666567,
                    "velocity": 0.5433070866141733,
                    "duration": 0.10227270000001454
                },
                {
                    "name": "D#4",
                    "midi": 63,
                    "time": 261.818111999999,
                    "velocity": 0.5511811023622047,
                    "duration": 0.2727272000000198
                },
                {
                    "name": "C#4",
                    "midi": 61,
                    "time": 261.818111999999,
                    "velocity": 0.5354330708661418,
                    "duration": 0.2727272000000198
                },
                {
                    "name": "B3",
                    "midi": 59,
                    "time": 262.4942481833324,
                    "velocity": 0.5590551181102362,
                    "duration": 0.1022726999999577
                },
                {
                    "name": "D#4",
                    "midi": 63,
                    "time": 262.50277090833237,
                    "velocity": 0.5590551181102362,
                    "duration": 0.1022726999999577
                },
                {
                    "name": "B3",
                    "midi": 59,
                    "time": 262.66754359166566,
                    "velocity": 0.5354330708661418,
                    "duration": 0.1022726999999577
                },
                {
                    "name": "D#4",
                    "midi": 63,
                    "time": 262.6732254083323,
                    "velocity": 0.5669291338582677,
                    "duration": 0.1022726999999577
                },
                {
                    "name": "D#4",
                    "midi": 63,
                    "time": 262.8351571833323,
                    "velocity": 0.5433070866141733,
                    "duration": 0.272727199999963
                },
                {
                    "name": "B3",
                    "midi": 59,
                    "time": 262.84083899999894,
                    "velocity": 0.5433070866141733,
                    "duration": 0.272727199999963
                },
                {
                    "name": "D4",
                    "midi": 62,
                    "time": 263.5254979083322,
                    "velocity": 0.5590551181102362,
                    "duration": 0.10227270000001454
                },
                {
                    "name": "A#3",
                    "midi": 58,
                    "time": 263.52833881666555,
                    "velocity": 0.5433070866141733,
                    "duration": 0.10227270000001454
                },
                {
                    "name": "D4",
                    "midi": 62,
                    "time": 263.6902705916656,
                    "velocity": 0.5669291338582677,
                    "duration": 0.1022726999999577
                },
                {
                    "name": "A#3",
                    "midi": 58,
                    "time": 263.69595240833223,
                    "velocity": 0.5669291338582677,
                    "duration": 0.1022726999999577
                },
                {
                    "name": "D4",
                    "midi": 62,
                    "time": 263.86356599999885,
                    "velocity": 0.5433070866141733,
                    "duration": 0.272727199999963
                },
                {
                    "name": "A#3",
                    "midi": 58,
                    "time": 263.8692478166655,
                    "velocity": 0.5590551181102362,
                    "duration": 0.272727199999963
                },
                {
                    "name": "A#3",
                    "midi": 58,
                    "time": 264.54822490833214,
                    "velocity": 0.5433070866141733,
                    "duration": 0.10227270000001454
                },
                {
                    "name": "D#4",
                    "midi": 63,
                    "time": 264.54822490833214,
                    "velocity": 0.6535433070866141,
                    "duration": 0.10227270000001454
                },
                {
                    "name": "A#3",
                    "midi": 58,
                    "time": 264.7129975916655,
                    "velocity": 0.5748031496062992,
                    "duration": 0.10227270000001454
                },
                {
                    "name": "D#4",
                    "midi": 63,
                    "time": 264.7158384999988,
                    "velocity": 0.6535433070866141,
                    "duration": 0.10227270000001454
                },
                {
                    "name": "D#4",
                    "midi": 63,
                    "time": 264.8806111833322,
                    "velocity": 0.5748031496062992,
                    "duration": 0.2727272000000198
                },
                {
                    "name": "A#3",
                    "midi": 58,
                    "time": 264.8834520916655,
                    "velocity": 0.5905511811023622,
                    "duration": 0.2727272000000198
                },
                {
                    "name": "D#4",
                    "midi": 63,
                    "time": 266.5851561833322,
                    "velocity": 0.6220472440944882,
                    "duration": 0.1022726999999577
                },
                {
                    "name": "A3",
                    "midi": 57,
                    "time": 266.5908379999988,
                    "velocity": 0.6220472440944882,
                    "duration": 0.1022726999999577
                },
                {
                    "name": "A3",
                    "midi": 57,
                    "time": 266.75845159166545,
                    "velocity": 0.6299212598425197,
                    "duration": 0.10227270000001454
                },
                {
                    "name": "D#4",
                    "midi": 63,
                    "time": 266.75845159166545,
                    "velocity": 0.6141732283464567,
                    "duration": 0.10227270000001454
                },
                {
                    "name": "A3",
                    "midi": 57,
                    "time": 266.9317469999988,
                    "velocity": 0.6299212598425197,
                    "duration": 0.2727272000000198
                },
                {
                    "name": "D#4",
                    "midi": 63,
                    "time": 266.9317469999988,
                    "velocity": 0.6220472440944882,
                    "duration": 0.2727272000000198
                },
                {
                    "name": "A3",
                    "midi": 57,
                    "time": 267.60788318333215,
                    "velocity": 0.6614173228346457,
                    "duration": 0.10227270000001454
                },
                {
                    "name": "D#4",
                    "midi": 63,
                    "time": 267.60788318333215,
                    "velocity": 0.6535433070866141,
                    "duration": 0.10227270000001454
                },
                {
                    "name": "D#4",
                    "midi": 63,
                    "time": 267.7811785916655,
                    "velocity": 0.6692913385826772,
                    "duration": 0.10227270000001454
                },
                {
                    "name": "A3",
                    "midi": 57,
                    "time": 267.7811785916655,
                    "velocity": 0.6614173228346457,
                    "duration": 0.10227270000001454
                },
                {
                    "name": "D#4",
                    "midi": 63,
                    "time": 267.9544739999988,
                    "velocity": 0.6929133858267716,
                    "duration": 0.2727272000000198
                },
                {
                    "name": "A3",
                    "midi": 57,
                    "time": 267.9544739999988,
                    "velocity": 0.6850393700787402,
                    "duration": 0.2727272000000198
                },
                {
                    "name": "C#4",
                    "midi": 61,
                    "time": 268.6306101833322,
                    "velocity": 0.7086614173228346,
                    "duration": 0.10227270000001454
                },
                {
                    "name": "E4",
                    "midi": 64,
                    "time": 268.6334510916655,
                    "velocity": 0.7952755905511811,
                    "duration": 0.10227270000001454
                },
                {
                    "name": "A3",
                    "midi": 57,
                    "time": 268.6334510916655,
                    "velocity": 0.7086614173228346,
                    "duration": 0.10227270000001454
                },
                {
                    "name": "A3",
                    "midi": 57,
                    "time": 268.8010646833322,
                    "velocity": 0.7165354330708661,
                    "duration": 0.1022726999999577
                },
                {
                    "name": "E4",
                    "midi": 64,
                    "time": 268.8010646833322,
                    "velocity": 0.7874015748031497,
                    "duration": 0.1022726999999577
                },
                {
                    "name": "C#4",
                    "midi": 61,
                    "time": 268.80958740833216,
                    "velocity": 0.7165354330708661,
                    "duration": 0.1022726999999577
                },
                {
                    "name": "C#4",
                    "midi": 61,
                    "time": 268.97436009166546,
                    "velocity": 0.7086614173228346,
                    "duration": 0.1022726999999577
                },
                {
                    "name": "E4",
                    "midi": 64,
                    "time": 268.9772009999988,
                    "velocity": 0.8267716535433071,
                    "duration": 0.1022726999999577
                },
                {
                    "name": "A3",
                    "midi": 57,
                    "time": 268.9800419083321,
                    "velocity": 0.7007874015748031,
                    "duration": 0.1022726999999577
                },
                {
                    "name": "E4",
                    "midi": 64,
                    "time": 269.1419736833321,
                    "velocity": 0.8031496062992126,
                    "duration": 0.1022726999999577
                },
                {
                    "name": "C#4",
                    "midi": 61,
                    "time": 269.14765549999873,
                    "velocity": 0.7165354330708661,
                    "duration": 0.1022726999999577
                },
                {
                    "name": "A3",
                    "midi": 57,
                    "time": 269.14765549999873,
                    "velocity": 0.7322834645669292,
                    "duration": 0.1022726999999577
                },
                {
                    "name": "C#4",
                    "midi": 61,
                    "time": 269.31526909166536,
                    "velocity": 0.7244094488188977,
                    "duration": 0.10227270000001454
                },
                {
                    "name": "A3",
                    "midi": 57,
                    "time": 269.31526909166536,
                    "velocity": 0.7401574803149606,
                    "duration": 0.10227270000001454
                },
                {
                    "name": "E4",
                    "midi": 64,
                    "time": 269.3181099999987,
                    "velocity": 0.8110236220472441,
                    "duration": 0.10227270000001454
                },
                {
                    "name": "A3",
                    "midi": 57,
                    "time": 269.4885644999987,
                    "velocity": 0.7322834645669292,
                    "duration": 0.10227270000001454
                },
                {
                    "name": "E4",
                    "midi": 64,
                    "time": 269.4885644999987,
                    "velocity": 0.8346456692913385,
                    "duration": 0.10227270000001454
                },
                {
                    "name": "C#4",
                    "midi": 61,
                    "time": 269.491405408332,
                    "velocity": 0.7244094488188977,
                    "duration": 0.10227270000001454
                },
                {
                    "name": "C#4",
                    "midi": 61,
                    "time": 269.65333718333204,
                    "velocity": 0.7322834645669292,
                    "duration": 0.10227270000001454
                },
                {
                    "name": "E4",
                    "midi": 64,
                    "time": 269.6647008166654,
                    "velocity": 0.84251968503937,
                    "duration": 0.10227270000001454
                },
                {
                    "name": "A3",
                    "midi": 57,
                    "time": 269.6647008166654,
                    "velocity": 0.7244094488188977,
                    "duration": 0.10227270000001454
                },
                {
                    "name": "C#4",
                    "midi": 61,
                    "time": 269.82663259166543,
                    "velocity": 0.7559055118110236,
                    "duration": 0.1022726999999577
                },
                {
                    "name": "A3",
                    "midi": 57,
                    "time": 269.8323144083321,
                    "velocity": 0.7244094488188977,
                    "duration": 0.1022726999999577
                },
                {
                    "name": "E4",
                    "midi": 64,
                    "time": 269.8351553166654,
                    "velocity": 0.84251968503937,
                    "duration": 0.1022726999999577
                },
                {
                    "name": "E4",
                    "midi": 64,
                    "time": 269.9970870916654,
                    "velocity": 0.8661417322834646,
                    "duration": 0.1022726999999577
                },
                {
                    "name": "C#4",
                    "midi": 61,
                    "time": 270.00560981666536,
                    "velocity": 0.7637795275590551,
                    "duration": 0.1022726999999577
                },
                {
                    "name": "A3",
                    "midi": 57,
                    "time": 270.00560981666536,
                    "velocity": 0.7480314960629921,
                    "duration": 0.1022726999999577
                },
                {
                    "name": "E4",
                    "midi": 64,
                    "time": 270.164700683332,
                    "velocity": 0.84251968503937,
                    "duration": 0.1022726999999577
                },
                {
                    "name": "A3",
                    "midi": 57,
                    "time": 270.173223408332,
                    "velocity": 0.7637795275590551,
                    "duration": 0.1022726999999577
                },
                {
                    "name": "C#4",
                    "midi": 61,
                    "time": 270.1760643166653,
                    "velocity": 0.7480314960629921,
                    "duration": 0.1022726999999577
                },
                {
                    "name": "D#4",
                    "midi": 63,
                    "time": 270.3408369999986,
                    "velocity": 0.8503937007874016,
                    "duration": 0.10227270000001454
                },
                {
                    "name": "B3",
                    "midi": 59,
                    "time": 270.3436779083319,
                    "velocity": 0.7480314960629921,
                    "duration": 0.10227270000001454
                },
                {
                    "name": "D4",
                    "midi": 62,
                    "time": 270.5112914999986,
                    "velocity": 0.7480314960629921,
                    "duration": 0.10227270000001454
                },
                {
                    "name": "E4",
                    "midi": 64,
                    "time": 270.51413240833193,
                    "velocity": 0.8818897637795275,
                    "duration": 0.10227270000001454
                },
                {
                    "name": "C#4",
                    "midi": 61,
                    "time": 270.68458690833194,
                    "velocity": 0.7480314960629921,
                    "duration": 0.10227270000001454
                },
                {
                    "name": "C4",
                    "midi": 60,
                    "time": 270.8522004999986,
                    "velocity": 0.7480314960629921,
                    "duration": 0.10227270000001454
                },
                {
                    "name": "B3",
                    "midi": 59,
                    "time": 271.02549590833195,
                    "velocity": 0.7637795275590551,
                    "duration": 0.10227270000001454
                },
                {
                    "name": "A#3",
                    "midi": 58,
                    "time": 271.1987913166653,
                    "velocity": 0.7480314960629921,
                    "duration": 0.10227270000001454
                },
                {
                    "name": "A3",
                    "midi": 57,
                    "time": 271.36640490833196,
                    "velocity": 0.7716535433070866,
                    "duration": 0.10227270000001454
                },
                {
                    "name": "D#4",
                    "midi": 63,
                    "time": 274.42606318333196,
                    "velocity": 0.8582677165354331,
                    "duration": 0.2727272000000198
                },
                {
                    "name": "B3",
                    "midi": 59,
                    "time": 274.42606318333196,
                    "velocity": 0.8582677165354331,
                    "duration": 0.2727272000000198
                },
                {
                    "name": "D#4",
                    "midi": 63,
                    "time": 275.11640390833196,
                    "velocity": 0.7559055118110236,
                    "duration": 0.2727272000000198
                },
                {
                    "name": "D#4",
                    "midi": 63,
                    "time": 276.139130908332,
                    "velocity": 0.7401574803149606,
                    "duration": 0.2727272000000198
                },
                {
                    "name": "D#4",
                    "midi": 63,
                    "time": 277.153335183332,
                    "velocity": 0.7716535433070866,
                    "duration": 0.2727272000000198
                },
                {
                    "name": "D#4",
                    "midi": 63,
                    "time": 278.17890309166535,
                    "velocity": 0.7716535433070866,
                    "duration": 0.2727272000000198
                },
                {
                    "name": "D#4",
                    "midi": 63,
                    "time": 279.19878918333205,
                    "velocity": 0.7401574803149606,
                    "duration": 0.2727272000000198
                },
                {
                    "name": "D#4",
                    "midi": 63,
                    "time": 280.23003890833206,
                    "velocity": 0.7637795275590551,
                    "duration": 0.2727272000000198
                },
                {
                    "name": "D#4",
                    "midi": 63,
                    "time": 281.2527659083321,
                    "velocity": 0.7559055118110236,
                    "duration": 0.2727272000000198
                },
                {
                    "name": "D#4",
                    "midi": 63,
                    "time": 282.2726519999988,
                    "velocity": 0.7559055118110236,
                    "duration": 0.2727272000000198
                },
                {
                    "name": "D#4",
                    "midi": 63,
                    "time": 283.2925380916655,
                    "velocity": 0.8740157480314961,
                    "duration": 0.2727272000000198
                },
                {
                    "name": "B3",
                    "midi": 59,
                    "time": 283.2925380916655,
                    "velocity": 0.7716535433070866,
                    "duration": 0.2727272000000198
                },
                {
                    "name": "D#4",
                    "midi": 63,
                    "time": 283.6306061833322,
                    "velocity": 0.8740157480314961,
                    "duration": 0.13636360000003833
                },
                {
                    "name": "B3",
                    "midi": 59,
                    "time": 283.64196981666555,
                    "velocity": 0.7716535433070866,
                    "duration": 0.13636360000003833
                },
                {
                    "name": "D#4",
                    "midi": 63,
                    "time": 283.80106068333225,
                    "velocity": 0.8503937007874016,
                    "duration": 0.1363635999999815
                },
                {
                    "name": "B3",
                    "midi": 59,
                    "time": 283.80106068333225,
                    "velocity": 0.7716535433070866,
                    "duration": 0.1363635999999815
                },
                {
                    "name": "D#4",
                    "midi": 63,
                    "time": 283.9743560916656,
                    "velocity": 0.8582677165354331,
                    "duration": 0.272727199999963
                },
                {
                    "name": "C#4",
                    "midi": 61,
                    "time": 283.98003790833224,
                    "velocity": 0.7716535433070866,
                    "duration": 0.272727199999963
                },
                {
                    "name": "B3",
                    "midi": 59,
                    "time": 284.31810599999886,
                    "velocity": 0.7480314960629921,
                    "duration": 0.1363635999999815
                },
                {
                    "name": "D#4",
                    "midi": 63,
                    "time": 284.3237878166655,
                    "velocity": 0.8582677165354331,
                    "duration": 0.1363635999999815
                },
                {
                    "name": "A#3",
                    "midi": 58,
                    "time": 284.48287868333216,
                    "velocity": 0.7480314960629921,
                    "duration": 0.1363635999999815
                },
                {
                    "name": "D#4",
                    "midi": 63,
                    "time": 284.4857195916655,
                    "velocity": 0.8818897637795275,
                    "duration": 0.1363635999999815
                },
                {
                    "name": "D#4",
                    "midi": 63,
                    "time": 284.6533331833321,
                    "velocity": 0.8740157480314961,
                    "duration": 0.13636360000003833
                },
                {
                    "name": "B3",
                    "midi": 59,
                    "time": 284.66469681666547,
                    "velocity": 0.7559055118110236,
                    "duration": 0.13636360000003833
                },
                {
                    "name": "A#3",
                    "midi": 58,
                    "time": 284.82378768333217,
                    "velocity": 0.7716535433070866,
                    "duration": 0.13636360000003833
                },
                {
                    "name": "D#4",
                    "midi": 63,
                    "time": 284.83515131666553,
                    "velocity": 0.8503937007874016,
                    "duration": 0.13636360000003833
                },
                {
                    "name": "D#4",
                    "midi": 63,
                    "time": 284.9999239999989,
                    "velocity": 0.8818897637795275,
                    "duration": 0.2727272000000198
                },
                {
                    "name": "A#3",
                    "midi": 58,
                    "time": 285.67606018333225,
                    "velocity": 0.7637795275590551,
                    "duration": 0.1363635999999815
                },
                {
                    "name": "D#4",
                    "midi": 63,
                    "time": 285.6789010916656,
                    "velocity": 0.8740157480314961,
                    "duration": 0.1363635999999815
                },
                {
                    "name": "D#4",
                    "midi": 63,
                    "time": 285.8465146833322,
                    "velocity": 0.8740157480314961,
                    "duration": 0.1363635999999815
                },
                {
                    "name": "B3",
                    "midi": 59,
                    "time": 285.85219649999885,
                    "velocity": 0.7559055118110236,
                    "duration": 0.1363635999999815
                },
                {
                    "name": "C#4",
                    "midi": 61,
                    "time": 286.02265099999886,
                    "velocity": 0.7716535433070866,
                    "duration": 0.272727199999963
                },
                {
                    "name": "D#4",
                    "midi": 63,
                    "time": 286.0283328166655,
                    "velocity": 0.8740157480314961,
                    "duration": 0.272727199999963
                },
                {
                    "name": "D#4",
                    "midi": 63,
                    "time": 286.36640090833214,
                    "velocity": 0.8661417322834646,
                    "duration": 0.1363635999999815
                },
                {
                    "name": "B3",
                    "midi": 59,
                    "time": 286.36640090833214,
                    "velocity": 0.7480314960629921,
                    "duration": 0.1363635999999815
                },
                {
                    "name": "D#4",
                    "midi": 63,
                    "time": 286.5283326833321,
                    "velocity": 0.8582677165354331,
                    "duration": 0.1363635999999815
                },
                {
                    "name": "A#3",
                    "midi": 58,
                    "time": 286.5283326833321,
                    "velocity": 0.7559055118110236,
                    "duration": 0.1363635999999815
                },
                {
                    "name": "D#4",
                    "midi": 63,
                    "time": 286.6987871833321,
                    "velocity": 0.8582677165354331,
                    "duration": 0.1363635999999815
                },
                {
                    "name": "B3",
                    "midi": 59,
                    "time": 286.7073099083321,
                    "velocity": 0.7637795275590551,
                    "duration": 0.1363635999999815
                },
                {
                    "name": "D#4",
                    "midi": 63,
                    "time": 286.8749234999987,
                    "velocity": 0.8582677165354331,
                    "duration": 0.1363635999999815
                },
                {
                    "name": "A#3",
                    "midi": 58,
                    "time": 286.88060531666537,
                    "velocity": 0.7637795275590551,
                    "duration": 0.1363635999999815
                },
                {
                    "name": "D#4",
                    "midi": 63,
                    "time": 287.04537799999866,
                    "velocity": 0.8818897637795275,
                    "duration": 0.2727272000000198
                },
                {
                    "name": "B3",
                    "midi": 59,
                    "time": 287.7271959999987,
                    "velocity": 0.7559055118110236,
                    "duration": 0.1363635999999815
                },
                {
                    "name": "D#4",
                    "midi": 63,
                    "time": 287.730036908332,
                    "velocity": 0.8661417322834646,
                    "duration": 0.1363635999999815
                },
                {
                    "name": "D#4",
                    "midi": 63,
                    "time": 287.90333231666534,
                    "velocity": 0.8818897637795275,
                    "duration": 0.1363635999999815
                },
                {
                    "name": "A#3",
                    "midi": 58,
                    "time": 287.90333231666534,
                    "velocity": 0.7401574803149606,
                    "duration": 0.1363635999999815
                },
                {
                    "name": "D#4",
                    "midi": 63,
                    "time": 288.07094590833196,
                    "velocity": 0.8503937007874016,
                    "duration": 0.2727272000000198
                },
                {
                    "name": "D#4",
                    "midi": 63,
                    "time": 288.752763908332,
                    "velocity": 0.8661417322834646,
                    "duration": 0.1363635999999815
                },
                {
                    "name": "B3",
                    "midi": 59,
                    "time": 288.752763908332,
                    "velocity": 0.7559055118110236,
                    "duration": 0.1363635999999815
                },
                {
                    "name": "D#4",
                    "midi": 63,
                    "time": 288.91469568333196,
                    "velocity": 0.8661417322834646,
                    "duration": 0.13636360000003833
                },
                {
                    "name": "A#3",
                    "midi": 58,
                    "time": 288.9260593166653,
                    "velocity": 0.7559055118110236,
                    "duration": 0.13636360000003833
                },
                {
                    "name": "D#4",
                    "midi": 63,
                    "time": 289.09083199999867,
                    "velocity": 0.8582677165354331,
                    "duration": 0.2727272000000198
                },
                {
                    "name": "B3",
                    "midi": 59,
                    "time": 289.76696818333204,
                    "velocity": 0.7480314960629921,
                    "duration": 0.1363635999999815
                },
                {
                    "name": "D#4",
                    "midi": 63,
                    "time": 289.775490908332,
                    "velocity": 0.8582677165354331,
                    "duration": 0.1363635999999815
                },
                {
                    "name": "D#4",
                    "midi": 63,
                    "time": 289.9402635916653,
                    "velocity": 0.8818897637795275,
                    "duration": 0.1363635999999815
                },
                {
                    "name": "A#3",
                    "midi": 58,
                    "time": 289.94310449999864,
                    "velocity": 0.7559055118110236,
                    "duration": 0.1363635999999815
                },
                {
                    "name": "D#4",
                    "midi": 63,
                    "time": 290.11071809166526,
                    "velocity": 0.8740157480314961,
                    "duration": 0.2727272000000198
                },
                {
                    "name": "D#4",
                    "midi": 63,
                    "time": 291.47719499999863,
                    "velocity": 0.7637795275590551,
                    "duration": 0.2727272000000198
                },
                {
                    "name": "D#4",
                    "midi": 63,
                    "time": 292.1646948166653,
                    "velocity": 0.7637795275590551,
                    "duration": 0.2727272000000198
                },
                {
                    "name": "D#4",
                    "midi": 63,
                    "time": 293.86355799999865,
                    "velocity": 0.8582677165354331,
                    "duration": 0.2727272000000198
                },
                {
                    "name": "B3",
                    "midi": 59,
                    "time": 293.866398908332,
                    "velocity": 0.8661417322834646,
                    "duration": 0.2727272000000198
                },
                {
                    "name": "B3",
                    "midi": 59,
                    "time": 294.88344409166535,
                    "velocity": 0.7401574803149606,
                    "duration": 1.6363632000000052
                },
                {
                    "name": "D#4",
                    "midi": 63,
                    "time": 294.889125908332,
                    "velocity": 0.7559055118110236,
                    "duration": 1.6363632000000052
                }
            ],
            "controlChanges": {
                "7": [
                    {
                        "number": 7,
                        "time": 0,
                        "value": 0.889763779527559
                    }
                ],
                "10": [
                    {
                        "number": 10,
                        "time": 0,
                        "value": 0.3779527559055118
                    },
                    {
                        "number": 10,
                        "time": 293.86355799999865,
                        "value": 0.5039370078740157
                    },
                    {
                        "number": 10,
                        "time": 296.5908299999987,
                        "value": 0.5039370078740157
                    }
                ],
                "91": [
                    {
                        "number": 91,
                        "time": 0,
                        "value": 0
                    },
                    {
                        "number": 91,
                        "time": 0,
                        "value": 0.2204724409448819
                    },
                    {
                        "number": 91,
                        "time": 294.8862849999987,
                        "value": 0
                    }
                ],
                "93": [
                    {
                        "number": 93,
                        "time": 0,
                        "value": 0.047244094488188976
                    }
                ],
                "121": [
                    {
                        "number": 121,
                        "time": 0,
                        "value": 0
                    }
                ]
            },
            "id": 8,
            "instrumentNumber": 0,
            "instrument": "acoustic grand piano",
            "instrumentFamily": "piano",
            "channelNumber": 4,
            "isPercussion": false
        },
        {
            "startTime": 8.869315816666665,
            "duration": 294.1391261083323,
            "length": 261,
            "notes": [
                {
                    "name": "G#3",
                    "midi": 56,
                    "time": 8.869315816666665,
                    "velocity": 0.5433070866141733,
                    "duration": 0.2556817500000008
                },
                {
                    "name": "G#3",
                    "midi": 56,
                    "time": 17.048290908333332,
                    "velocity": 0.5354330708661418,
                    "duration": 0.2556817500000008
                },
                {
                    "name": "G#3",
                    "midi": 56,
                    "time": 23.184652908333334,
                    "velocity": 0.5590551181102362,
                    "duration": 0.10227270000000033
                },
                {
                    "name": "D#3",
                    "midi": 51,
                    "time": 25.562493183333334,
                    "velocity": 0.5669291338582677,
                    "duration": 0.20454540000000065
                },
                {
                    "name": "G#3",
                    "midi": 56,
                    "time": 26.588061091666667,
                    "velocity": 0.5590551181102362,
                    "duration": 0.20454540000000065
                },
                {
                    "name": "D#3",
                    "midi": 51,
                    "time": 27.267038183333334,
                    "velocity": 0.5433070866141733,
                    "duration": 0.20454540000000065
                },
                {
                    "name": "D#3",
                    "midi": 51,
                    "time": 31.369309816666668,
                    "velocity": 0.5590551181102362,
                    "duration": 0.20454540000000065
                },
                {
                    "name": "D#3",
                    "midi": 51,
                    "time": 33.74715009166667,
                    "velocity": 0.5354330708661418,
                    "duration": 0.20454540000000065
                },
                {
                    "name": "G#3",
                    "midi": 56,
                    "time": 34.772718000000005,
                    "velocity": 0.5354330708661418,
                    "duration": 0.20454540000000065
                },
                {
                    "name": "D#3",
                    "midi": 51,
                    "time": 35.44885418333334,
                    "velocity": 0.5354330708661418,
                    "duration": 0.20454540000000065
                },
                {
                    "name": "D#3",
                    "midi": 51,
                    "time": 38.52839881666667,
                    "velocity": 0.5354330708661418,
                    "duration": 0.20454540000000065
                },
                {
                    "name": "F#3",
                    "midi": 54,
                    "time": 44.32101090833334,
                    "velocity": 0.5590551181102362,
                    "duration": 0.2727271999999985
                },
                {
                    "name": "F#3",
                    "midi": 54,
                    "time": 45.33521518333334,
                    "velocity": 0.5433070866141733,
                    "duration": 0.2727271999999985
                },
                {
                    "name": "F#3",
                    "midi": 54,
                    "time": 57.95737090833334,
                    "velocity": 0.5590551181102362,
                    "duration": 0.2727271999999985
                },
                {
                    "name": "G#3",
                    "midi": 56,
                    "time": 61.01987009166667,
                    "velocity": 0.5511811023622047,
                    "duration": 0.2727271999999985
                },
                {
                    "name": "F#3",
                    "midi": 54,
                    "time": 65.113619,
                    "velocity": 0.5433070866141733,
                    "duration": 0.2727272000000056
                },
                {
                    "name": "G3",
                    "midi": 55,
                    "time": 67.49430018333334,
                    "velocity": 0.5590551181102362,
                    "duration": 0.2727272000000056
                },
                {
                    "name": "G#3",
                    "midi": 56,
                    "time": 67.84373190833334,
                    "velocity": 0.5354330708661418,
                    "duration": 0.2727272000000056
                },
                {
                    "name": "G#3",
                    "midi": 56,
                    "time": 86.58520418333335,
                    "velocity": 0.44881889763779526,
                    "duration": 0.2727272000000056
                },
                {
                    "name": "G3",
                    "midi": 55,
                    "time": 89.66474881666669,
                    "velocity": 0.44881889763779526,
                    "duration": 0.2727272000000056
                },
                {
                    "name": "G#3",
                    "midi": 56,
                    "time": 90.6789530916667,
                    "velocity": 0.4645669291338583,
                    "duration": 0.2727272000000056
                },
                {
                    "name": "E3",
                    "midi": 52,
                    "time": 91.71020281666671,
                    "velocity": 0.4330708661417323,
                    "duration": 0.2727271999999914
                },
                {
                    "name": "G#3",
                    "midi": 56,
                    "time": 91.7442937166667,
                    "velocity": 0.44881889763779526,
                    "duration": 0.2727271999999914
                },
                {
                    "name": "G3",
                    "midi": 55,
                    "time": 92.04827090833336,
                    "velocity": 0.4566929133858268,
                    "duration": 0.2727272000000056
                },
                {
                    "name": "G#3",
                    "midi": 56,
                    "time": 92.38065718333337,
                    "velocity": 0.44881889763779526,
                    "duration": 0.2727272000000056
                },
                {
                    "name": "G3",
                    "midi": 55,
                    "time": 92.72724800000005,
                    "velocity": 0.4409448818897638,
                    "duration": 0.2727272000000056
                },
                {
                    "name": "D#3",
                    "midi": 51,
                    "time": 93.06815700000006,
                    "velocity": 0.4566929133858268,
                    "duration": 0.1363635999999957
                },
                {
                    "name": "G#3",
                    "midi": 56,
                    "time": 94.77270200000005,
                    "velocity": 0.4409448818897638,
                    "duration": 0.2727272000000056
                },
                {
                    "name": "G#3",
                    "midi": 56,
                    "time": 100.90622309166672,
                    "velocity": 0.5511811023622047,
                    "duration": 0.1363635999999957
                },
                {
                    "name": "D#3",
                    "midi": 51,
                    "time": 103.29542700000005,
                    "velocity": 0.5669291338582677,
                    "duration": 0.2727272000000056
                },
                {
                    "name": "D#3",
                    "midi": 51,
                    "time": 103.63917690833338,
                    "velocity": 0.5433070866141733,
                    "duration": 0.2727272000000056
                },
                {
                    "name": "G#3",
                    "midi": 56,
                    "time": 104.31247218333338,
                    "velocity": 0.5669291338582677,
                    "duration": 0.2727272000000056
                },
                {
                    "name": "G#3",
                    "midi": 56,
                    "time": 104.66474481666673,
                    "velocity": 0.5354330708661418,
                    "duration": 0.2727272000000056
                },
                {
                    "name": "D#3",
                    "midi": 51,
                    "time": 105.00565381666674,
                    "velocity": 0.5354330708661418,
                    "duration": 0.2727272000000056
                },
                {
                    "name": "G3",
                    "midi": 55,
                    "time": 106.02269900000007,
                    "velocity": 0.5669291338582677,
                    "duration": 0.2727272000000056
                },
                {
                    "name": "D#3",
                    "midi": 51,
                    "time": 109.09656181666675,
                    "velocity": 0.5433070866141733,
                    "duration": 0.2727272000000056
                },
                {
                    "name": "D#3",
                    "midi": 51,
                    "time": 111.47440209166676,
                    "velocity": 0.5590551181102362,
                    "duration": 0.2727272000000056
                },
                {
                    "name": "D#3",
                    "midi": 51,
                    "time": 111.82383381666676,
                    "velocity": 0.5590551181102362,
                    "duration": 0.2727272000000056
                },
                {
                    "name": "G#3",
                    "midi": 56,
                    "time": 112.49428818333344,
                    "velocity": 0.5669291338582677,
                    "duration": 0.2727272000000056
                },
                {
                    "name": "G#3",
                    "midi": 56,
                    "time": 112.83519718333345,
                    "velocity": 0.5669291338582677,
                    "duration": 0.2727272000000056
                },
                {
                    "name": "D#3",
                    "midi": 51,
                    "time": 113.17894709166679,
                    "velocity": 0.5669291338582677,
                    "duration": 0.2727272000000056
                },
                {
                    "name": "D#3",
                    "midi": 51,
                    "time": 117.27269600000012,
                    "velocity": 0.5511811023622047,
                    "duration": 0.2727272000000056
                },
                {
                    "name": "D#3",
                    "midi": 51,
                    "time": 119.35508180833347,
                    "velocity": 0.5354330708661418,
                    "duration": 0.2727272000000056
                },
                {
                    "name": "F#3",
                    "midi": 54,
                    "time": 124.77269400000014,
                    "velocity": 0.5354330708661418,
                    "duration": 0.2727272000000056
                },
                {
                    "name": "F#3",
                    "midi": 54,
                    "time": 125.79826190833349,
                    "velocity": 0.5433070866141733,
                    "duration": 0.2727272000000056
                },
                {
                    "name": "F#3",
                    "midi": 54,
                    "time": 126.47439809166683,
                    "velocity": 0.5433070866141733,
                    "duration": 0.1363635999999957
                },
                {
                    "name": "D#3",
                    "midi": 51,
                    "time": 130.22439709166682,
                    "velocity": 0.5354330708661418,
                    "duration": 0.2727271999999914
                },
                {
                    "name": "G#3",
                    "midi": 56,
                    "time": 155.7925720916668,
                    "velocity": 0.5511811023622047,
                    "duration": 0.2727271999999914
                },
                {
                    "name": "D#3",
                    "midi": 51,
                    "time": 156.81245818333346,
                    "velocity": 0.5511811023622047,
                    "duration": 0.2727271999999914
                },
                {
                    "name": "G#3",
                    "midi": 56,
                    "time": 181.3635880000001,
                    "velocity": 0.5669291338582677,
                    "duration": 0.2727271999999914
                },
                {
                    "name": "G#3",
                    "midi": 56,
                    "time": 187.4999500000001,
                    "velocity": 0.5669291338582677,
                    "duration": 0.2727271999999914
                },
                {
                    "name": "D#3",
                    "midi": 51,
                    "time": 189.88347209166676,
                    "velocity": 0.5511811023622047,
                    "duration": 0.2727271999999914
                },
                {
                    "name": "G#3",
                    "midi": 56,
                    "time": 190.22154018333342,
                    "velocity": 0.5511811023622047,
                    "duration": 0.2727271999999914
                },
                {
                    "name": "D#3",
                    "midi": 51,
                    "time": 190.91188090833342,
                    "velocity": 0.5590551181102362,
                    "duration": 0.2727271999999914
                },
                {
                    "name": "G#3",
                    "midi": 56,
                    "time": 191.24426718333342,
                    "velocity": 0.5669291338582677,
                    "duration": 0.2727271999999914
                },
                {
                    "name": "D#3",
                    "midi": 51,
                    "time": 191.5851761833334,
                    "velocity": 0.5354330708661418,
                    "duration": 0.2727271999999914
                },
                {
                    "name": "G3",
                    "midi": 55,
                    "time": 191.92608518333338,
                    "velocity": 0.5669291338582677,
                    "duration": 0.2727271999999914
                },
                {
                    "name": "G3",
                    "midi": 55,
                    "time": 196.01699318333337,
                    "velocity": 0.5354330708661418,
                    "duration": 0.2727271999999914
                },
                {
                    "name": "C3",
                    "midi": 48,
                    "time": 198.75278790833335,
                    "velocity": 0.5590551181102362,
                    "duration": 0.2727271999999914
                },
                {
                    "name": "C#3",
                    "midi": 49,
                    "time": 199.76699218333334,
                    "velocity": 0.5433070866141733,
                    "duration": 0.2727271999999914
                },
                {
                    "name": "D#3",
                    "midi": 51,
                    "time": 203.17892309166666,
                    "velocity": 0.5590551181102362,
                    "duration": 0.2727271999999914
                },
                {
                    "name": "D#3",
                    "midi": 51,
                    "time": 204.54255909166665,
                    "velocity": 0.6141732283464567,
                    "duration": 0.04545453333332716
                },
                {
                    "name": "G#3",
                    "midi": 56,
                    "time": 204.6078999833333,
                    "velocity": 0.6456692913385826,
                    "duration": 0.04545453333332716
                },
                {
                    "name": "F#3",
                    "midi": 54,
                    "time": 207.27835381666665,
                    "velocity": 0.5669291338582677,
                    "duration": 0.10227269999998612
                },
                {
                    "name": "F#3",
                    "midi": 54,
                    "time": 208.30108081666663,
                    "velocity": 0.5433070866141733,
                    "duration": 0.10227269999998612
                },
                {
                    "name": "F#3",
                    "midi": 54,
                    "time": 209.31244418333327,
                    "velocity": 0.5354330708661418,
                    "duration": 0.10227269999998612
                },
                {
                    "name": "D#3",
                    "midi": 51,
                    "time": 211.0283528166666,
                    "velocity": 0.5590551181102362,
                    "duration": 0.10227269999998612
                },
                {
                    "name": "D#3",
                    "midi": 51,
                    "time": 211.7044889999999,
                    "velocity": 0.5511811023622047,
                    "duration": 0.10227269999998612
                },
                {
                    "name": "D#3",
                    "midi": 51,
                    "time": 213.06244318333322,
                    "velocity": 0.5433070866141733,
                    "duration": 0.10227269999998612
                },
                {
                    "name": "D#3",
                    "midi": 51,
                    "time": 213.57664759166653,
                    "velocity": 0.5511811023622047,
                    "duration": 0.10227269999998612
                },
                {
                    "name": "F#3",
                    "midi": 54,
                    "time": 215.11926081666653,
                    "velocity": 0.5590551181102362,
                    "duration": 0.10227269999998612
                },
                {
                    "name": "F#3",
                    "midi": 54,
                    "time": 215.7897151833332,
                    "velocity": 0.5669291338582677,
                    "duration": 0.10227269999998612
                },
                {
                    "name": "C#3",
                    "midi": 49,
                    "time": 216.13630599999985,
                    "velocity": 0.5669291338582677,
                    "duration": 0.10227269999998612
                },
                {
                    "name": "C#3",
                    "midi": 49,
                    "time": 216.81528309166652,
                    "velocity": 0.5669291338582677,
                    "duration": 0.10227269999998612
                },
                {
                    "name": "F#3",
                    "midi": 54,
                    "time": 217.15335118333317,
                    "velocity": 0.5511811023622047,
                    "duration": 0.2727271999999914
                },
                {
                    "name": "C#3",
                    "midi": 49,
                    "time": 219.2016460916665,
                    "velocity": 0.5354330708661418,
                    "duration": 0.2727271999999914
                },
                {
                    "name": "F#3",
                    "midi": 54,
                    "time": 221.5880090916665,
                    "velocity": 0.5590551181102362,
                    "duration": 0.10227269999998612
                },
                {
                    "name": "F#3",
                    "midi": 54,
                    "time": 221.76414540833315,
                    "velocity": 0.5669291338582677,
                    "duration": 0.10227269999998612
                },
                {
                    "name": "G3",
                    "midi": 55,
                    "time": 221.92607718333315,
                    "velocity": 0.5669291338582677,
                    "duration": 0.10227269999998612
                },
                {
                    "name": "G3",
                    "midi": 55,
                    "time": 222.10505440833313,
                    "velocity": 0.5433070866141733,
                    "duration": 0.10227269999998612
                },
                {
                    "name": "G#3",
                    "midi": 56,
                    "time": 222.27266799999978,
                    "velocity": 0.5354330708661418,
                    "duration": 0.10227269999998612
                },
                {
                    "name": "G#3",
                    "midi": 56,
                    "time": 222.4374406833331,
                    "velocity": 0.5590551181102362,
                    "duration": 0.10227269999998612
                },
                {
                    "name": "G#3",
                    "midi": 56,
                    "time": 222.61073609166644,
                    "velocity": 0.6220472440944882,
                    "duration": 0.10227269999998612
                },
                {
                    "name": "G#3",
                    "midi": 56,
                    "time": 222.78971331666642,
                    "velocity": 0.6456692913385826,
                    "duration": 0.10227269999998612
                },
                {
                    "name": "G#3",
                    "midi": 56,
                    "time": 225.68175799999975,
                    "velocity": 0.5669291338582677,
                    "duration": 0.10227269999998612
                },
                {
                    "name": "G#3",
                    "midi": 56,
                    "time": 225.8578943166664,
                    "velocity": 0.5590551181102362,
                    "duration": 0.10227269999998612
                },
                {
                    "name": "G3",
                    "midi": 55,
                    "time": 226.01698518333305,
                    "velocity": 0.5433070866141733,
                    "duration": 0.10227269999998612
                },
                {
                    "name": "G3",
                    "midi": 55,
                    "time": 226.1931214999997,
                    "velocity": 0.5590551181102362,
                    "duration": 0.10227269999998612
                },
                {
                    "name": "F#3",
                    "midi": 54,
                    "time": 226.36073509166636,
                    "velocity": 0.5511811023622047,
                    "duration": 0.10227269999998612
                },
                {
                    "name": "F#3",
                    "midi": 54,
                    "time": 226.53118959166633,
                    "velocity": 0.5354330708661418,
                    "duration": 0.10227269999998612
                },
                {
                    "name": "F#3",
                    "midi": 54,
                    "time": 226.69880318333298,
                    "velocity": 0.6141732283464567,
                    "duration": 0.10227269999998612
                },
                {
                    "name": "F#3",
                    "midi": 54,
                    "time": 226.86925768333296,
                    "velocity": 0.6377952755905512,
                    "duration": 0.10227269999998612
                },
                {
                    "name": "F3",
                    "midi": 53,
                    "time": 229.76698418333294,
                    "velocity": 0.5669291338582677,
                    "duration": 0.10227269999998612
                },
                {
                    "name": "F3",
                    "midi": 53,
                    "time": 229.94027959166627,
                    "velocity": 0.5590551181102362,
                    "duration": 0.10227269999998612
                },
                {
                    "name": "E3",
                    "midi": 52,
                    "time": 230.1135749999996,
                    "velocity": 0.5748031496062992,
                    "duration": 0.10227269999998612
                },
                {
                    "name": "E3",
                    "midi": 52,
                    "time": 230.28402949999958,
                    "velocity": 0.5669291338582677,
                    "duration": 0.10227269999998612
                },
                {
                    "name": "D#3",
                    "midi": 51,
                    "time": 230.4573249083329,
                    "velocity": 0.5748031496062992,
                    "duration": 0.10227269999998612
                },
                {
                    "name": "D#3",
                    "midi": 51,
                    "time": 230.62493849999956,
                    "velocity": 0.5826771653543307,
                    "duration": 0.10227269999998612
                },
                {
                    "name": "D#3",
                    "midi": 51,
                    "time": 230.7982339083329,
                    "velocity": 0.6614173228346457,
                    "duration": 0.10227269999998612
                },
                {
                    "name": "D#3",
                    "midi": 51,
                    "time": 230.9601656833329,
                    "velocity": 0.6771653543307087,
                    "duration": 0.10227269999998612
                },
                {
                    "name": "D3",
                    "midi": 50,
                    "time": 234.2101648166662,
                    "velocity": 0.6220472440944882,
                    "duration": 0.10227269999998612
                },
                {
                    "name": "D3",
                    "midi": 50,
                    "time": 234.37777840833286,
                    "velocity": 0.6220472440944882,
                    "duration": 0.10227269999998612
                },
                {
                    "name": "D#3",
                    "midi": 51,
                    "time": 234.5510738166662,
                    "velocity": 0.6220472440944882,
                    "duration": 0.10227269999998612
                },
                {
                    "name": "D#3",
                    "midi": 51,
                    "time": 234.72152831666617,
                    "velocity": 0.6141732283464567,
                    "duration": 0.10227269999998612
                },
                {
                    "name": "D#3",
                    "midi": 51,
                    "time": 234.89198281666614,
                    "velocity": 0.7244094488188977,
                    "duration": 0.10227269999998612
                },
                {
                    "name": "D#3",
                    "midi": 51,
                    "time": 235.0510736833328,
                    "velocity": 0.7165354330708661,
                    "duration": 0.10227269999998612
                },
                {
                    "name": "G#3",
                    "midi": 56,
                    "time": 239.99425418333277,
                    "velocity": 0.6535433070866141,
                    "duration": 0.10227269999998612
                },
                {
                    "name": "G#3",
                    "midi": 56,
                    "time": 240.16470868333275,
                    "velocity": 0.6771653543307087,
                    "duration": 0.10227269999998612
                },
                {
                    "name": "F#3",
                    "midi": 54,
                    "time": 240.33800409166608,
                    "velocity": 0.6771653543307087,
                    "duration": 0.10227269999998612
                },
                {
                    "name": "F#3",
                    "midi": 54,
                    "time": 240.5112994999994,
                    "velocity": 0.6535433070866141,
                    "duration": 0.10227269999998612
                },
                {
                    "name": "G3",
                    "midi": 55,
                    "time": 240.68743581666607,
                    "velocity": 0.6771653543307087,
                    "duration": 0.10227269999998612
                },
                {
                    "name": "G3",
                    "midi": 55,
                    "time": 240.8465266833327,
                    "velocity": 0.6850393700787402,
                    "duration": 0.10227269999998612
                },
                {
                    "name": "G3",
                    "midi": 55,
                    "time": 241.0169811833327,
                    "velocity": 0.6771653543307087,
                    "duration": 0.10227269999998612
                },
                {
                    "name": "E3",
                    "midi": 52,
                    "time": 241.01982209166601,
                    "velocity": 0.6614173228346457,
                    "duration": 0.10227269999998612
                },
                {
                    "name": "E3",
                    "midi": 52,
                    "time": 241.190276591666,
                    "velocity": 0.6771653543307087,
                    "duration": 0.10227270000001454
                },
                {
                    "name": "G3",
                    "midi": 55,
                    "time": 241.198799316666,
                    "velocity": 0.6771653543307087,
                    "duration": 0.10227270000001454
                },
                {
                    "name": "F3",
                    "midi": 53,
                    "time": 241.36641290833268,
                    "velocity": 0.6771653543307087,
                    "duration": 0.10227269999998612
                },
                {
                    "name": "D3",
                    "midi": 50,
                    "time": 241.369253816666,
                    "velocity": 0.6614173228346457,
                    "duration": 0.10227269999998612
                },
                {
                    "name": "G#3",
                    "midi": 56,
                    "time": 241.52834468333265,
                    "velocity": 0.7559055118110236,
                    "duration": 0.10227270000001454
                },
                {
                    "name": "D3",
                    "midi": 50,
                    "time": 241.52834468333265,
                    "velocity": 0.6771653543307087,
                    "duration": 0.10227270000001454
                },
                {
                    "name": "F3",
                    "midi": 53,
                    "time": 241.53402649999933,
                    "velocity": 0.6929133858267716,
                    "duration": 0.10227270000001454
                },
                {
                    "name": "D#3",
                    "midi": 51,
                    "time": 241.69879918333268,
                    "velocity": 0.7007874015748031,
                    "duration": 0.10227269999998612
                },
                {
                    "name": "G3",
                    "midi": 55,
                    "time": 241.701640091666,
                    "velocity": 0.7637795275590551,
                    "duration": 0.10227269999998612
                },
                {
                    "name": "D#3",
                    "midi": 51,
                    "time": 241.86925368333266,
                    "velocity": 0.6771653543307087,
                    "duration": 0.10227270000001454
                },
                {
                    "name": "F#3",
                    "midi": 54,
                    "time": 241.87777640833266,
                    "velocity": 0.7637795275590551,
                    "duration": 0.10227270000001454
                },
                {
                    "name": "F3",
                    "midi": 53,
                    "time": 242.04538999999934,
                    "velocity": 0.7874015748031497,
                    "duration": 0.10227269999998612
                },
                {
                    "name": "E3",
                    "midi": 52,
                    "time": 242.221526316666,
                    "velocity": 0.7716535433070866,
                    "duration": 0.10227269999998612
                },
                {
                    "name": "D3",
                    "midi": 50,
                    "time": 242.383458091666,
                    "velocity": 0.7716535433070866,
                    "duration": 0.10227269999998612
                },
                {
                    "name": "D#3",
                    "midi": 51,
                    "time": 242.55107168333265,
                    "velocity": 0.7716535433070866,
                    "duration": 0.10227269999998612
                },
                {
                    "name": "E3",
                    "midi": 52,
                    "time": 242.7272079999993,
                    "velocity": 0.7952755905511811,
                    "duration": 0.10227269999998612
                },
                {
                    "name": "D#3",
                    "midi": 51,
                    "time": 242.89482159166596,
                    "velocity": 0.7874015748031497,
                    "duration": 0.10227269999998612
                },
                {
                    "name": "C#3",
                    "midi": 49,
                    "time": 243.07379881666594,
                    "velocity": 0.8031496062992126,
                    "duration": 0.10227269999998612
                },
                {
                    "name": "E3",
                    "midi": 52,
                    "time": 243.2328896833326,
                    "velocity": 0.7795275590551181,
                    "duration": 0.10227269999998612
                },
                {
                    "name": "F3",
                    "midi": 53,
                    "time": 243.4147078166659,
                    "velocity": 0.7795275590551181,
                    "duration": 0.10227269999998612
                },
                {
                    "name": "G#3",
                    "midi": 56,
                    "time": 243.57379868333254,
                    "velocity": 0.7952755905511811,
                    "duration": 0.10227269999998612
                },
                {
                    "name": "F3",
                    "midi": 53,
                    "time": 243.58516231666587,
                    "velocity": 0.7874015748031497,
                    "duration": 0.10227269999998612
                },
                {
                    "name": "G3",
                    "midi": 55,
                    "time": 243.75561681666585,
                    "velocity": 0.8110236220472441,
                    "duration": 0.2727271999999914
                },
                {
                    "name": "D3",
                    "midi": 50,
                    "time": 244.08800309166585,
                    "velocity": 0.7952755905511811,
                    "duration": 0.10227269999998612
                },
                {
                    "name": "D3",
                    "midi": 50,
                    "time": 244.25845759166583,
                    "velocity": 0.8031496062992126,
                    "duration": 0.10227269999998612
                },
                {
                    "name": "D#3",
                    "midi": 51,
                    "time": 244.4374348166658,
                    "velocity": 0.8031496062992126,
                    "duration": 0.10227269999998612
                },
                {
                    "name": "D#3",
                    "midi": 51,
                    "time": 244.60220749999914,
                    "velocity": 0.7952755905511811,
                    "duration": 0.10227269999998612
                },
                {
                    "name": "G3",
                    "midi": 55,
                    "time": 244.76698018333246,
                    "velocity": 0.7952755905511811,
                    "duration": 0.10227269999998612
                },
                {
                    "name": "G3",
                    "midi": 55,
                    "time": 244.9402755916658,
                    "velocity": 0.8267716535433071,
                    "duration": 0.10227269999998612
                },
                {
                    "name": "D3",
                    "midi": 50,
                    "time": 245.62777540833244,
                    "velocity": 0.8110236220472441,
                    "duration": 0.10227269999998612
                },
                {
                    "name": "D#3",
                    "midi": 51,
                    "time": 245.97152531666575,
                    "velocity": 0.8346456692913385,
                    "duration": 0.10227269999998612
                },
                {
                    "name": "G3",
                    "midi": 55,
                    "time": 252.1050464083324,
                    "velocity": 0.7401574803149606,
                    "duration": 0.10227269999998612
                },
                {
                    "name": "D#3",
                    "midi": 51,
                    "time": 252.44879631666572,
                    "velocity": 0.7322834645669292,
                    "duration": 0.10227269999998612
                },
                {
                    "name": "C#3",
                    "midi": 49,
                    "time": 252.78686440833238,
                    "velocity": 0.6929133858267716,
                    "duration": 0.10227269999998612
                },
                {
                    "name": "G3",
                    "midi": 55,
                    "time": 253.4715233166657,
                    "velocity": 0.6535433070866141,
                    "duration": 0.10227269999998612
                },
                {
                    "name": "D#3",
                    "midi": 51,
                    "time": 253.81243231666568,
                    "velocity": 0.6299212598425197,
                    "duration": 0.10227269999998612
                },
                {
                    "name": "D#3",
                    "midi": 51,
                    "time": 258.4033401833323,
                    "velocity": 0.5669291338582677,
                    "duration": 0.10227270000001454
                },
                {
                    "name": "D#3",
                    "midi": 51,
                    "time": 258.57663559166565,
                    "velocity": 0.5590551181102362,
                    "duration": 0.10227270000001454
                },
                {
                    "name": "G#3",
                    "midi": 56,
                    "time": 258.749930999999,
                    "velocity": 0.5511811023622047,
                    "duration": 0.2727272000000198
                },
                {
                    "name": "D#3",
                    "midi": 51,
                    "time": 259.43743081666565,
                    "velocity": 0.5354330708661418,
                    "duration": 0.10227270000001454
                },
                {
                    "name": "D#3",
                    "midi": 51,
                    "time": 259.5993625916657,
                    "velocity": 0.5433070866141733,
                    "duration": 0.10227270000001454
                },
                {
                    "name": "G#3",
                    "midi": 56,
                    "time": 259.772657999999,
                    "velocity": 0.5590551181102362,
                    "duration": 0.2727272000000198
                },
                {
                    "name": "D#3",
                    "midi": 51,
                    "time": 260.10788518333237,
                    "velocity": 0.5669291338582677,
                    "duration": 0.2727272000000198
                },
                {
                    "name": "G3",
                    "midi": 55,
                    "time": 260.4487941833324,
                    "velocity": 0.5433070866141733,
                    "duration": 0.10227270000001454
                },
                {
                    "name": "G3",
                    "midi": 55,
                    "time": 260.63061231666575,
                    "velocity": 0.5354330708661418,
                    "duration": 0.10227270000001454
                },
                {
                    "name": "G3",
                    "midi": 55,
                    "time": 261.1306121833324,
                    "velocity": 0.5354330708661418,
                    "duration": 0.2727272000000198
                },
                {
                    "name": "G#3",
                    "midi": 56,
                    "time": 262.1618619083324,
                    "velocity": 0.5354330708661418,
                    "duration": 0.2727272000000198
                },
                {
                    "name": "G3",
                    "midi": 55,
                    "time": 264.5425430916658,
                    "velocity": 0.5669291338582677,
                    "duration": 0.10227270000001454
                },
                {
                    "name": "G3",
                    "midi": 55,
                    "time": 264.7158384999991,
                    "velocity": 0.5826771653543307,
                    "duration": 0.10227270000001454
                },
                {
                    "name": "G3",
                    "midi": 55,
                    "time": 264.8862929999991,
                    "velocity": 0.5669291338582677,
                    "duration": 0.2727272000000198
                },
                {
                    "name": "F#3",
                    "midi": 54,
                    "time": 266.58515618333246,
                    "velocity": 0.6299212598425197,
                    "duration": 0.10227270000001454
                },
                {
                    "name": "F#3",
                    "midi": 54,
                    "time": 266.7669743166658,
                    "velocity": 0.6456692913385826,
                    "duration": 0.10227270000001454
                },
                {
                    "name": "F#3",
                    "midi": 54,
                    "time": 266.92890609166585,
                    "velocity": 0.6535433070866141,
                    "duration": 0.2727272000000198
                },
                {
                    "name": "C3",
                    "midi": 48,
                    "time": 267.2726559999992,
                    "velocity": 0.6692913385826772,
                    "duration": 0.2727272000000198
                },
                {
                    "name": "C#3",
                    "midi": 49,
                    "time": 268.29822390833255,
                    "velocity": 0.6929133858267716,
                    "duration": 0.2727272000000198
                },
                {
                    "name": "E3",
                    "midi": 52,
                    "time": 268.63913290833256,
                    "velocity": 0.6850393700787402,
                    "duration": 0.10227270000001454
                },
                {
                    "name": "E3",
                    "midi": 52,
                    "time": 268.8124283166659,
                    "velocity": 0.7007874015748031,
                    "duration": 0.10227270000001454
                },
                {
                    "name": "D#3",
                    "midi": 51,
                    "time": 268.98004190833257,
                    "velocity": 0.7007874015748031,
                    "duration": 0.10227270000001454
                },
                {
                    "name": "D#3",
                    "midi": 51,
                    "time": 269.1419736833326,
                    "velocity": 0.7086614173228346,
                    "duration": 0.10227270000001454
                },
                {
                    "name": "C#3",
                    "midi": 49,
                    "time": 269.3152690916659,
                    "velocity": 0.7401574803149606,
                    "duration": 0.10227270000001454
                },
                {
                    "name": "C#3",
                    "midi": 49,
                    "time": 269.4914054083326,
                    "velocity": 0.7401574803149606,
                    "duration": 0.10227270000001454
                },
                {
                    "name": "D#3",
                    "midi": 51,
                    "time": 269.6533371833326,
                    "velocity": 0.7165354330708661,
                    "duration": 0.10227270000001454
                },
                {
                    "name": "D#3",
                    "midi": 51,
                    "time": 269.82663259166594,
                    "velocity": 0.7322834645669292,
                    "duration": 0.10227270000001454
                },
                {
                    "name": "E3",
                    "midi": 52,
                    "time": 270.005609816666,
                    "velocity": 0.7401574803149606,
                    "duration": 0.10227270000001454
                },
                {
                    "name": "E3",
                    "midi": 52,
                    "time": 270.17038249999933,
                    "velocity": 0.7559055118110236,
                    "duration": 0.10227270000001454
                },
                {
                    "name": "G#3",
                    "midi": 56,
                    "time": 270.34083699999934,
                    "velocity": 0.7637795275590551,
                    "duration": 0.1022726999999577
                },
                {
                    "name": "D#3",
                    "midi": 51,
                    "time": 270.346518816666,
                    "velocity": 0.7637795275590551,
                    "duration": 0.1022726999999577
                },
                {
                    "name": "D3",
                    "midi": 50,
                    "time": 270.50845059166596,
                    "velocity": 0.7559055118110236,
                    "duration": 0.10227270000001454
                },
                {
                    "name": "C#3",
                    "midi": 49,
                    "time": 270.687427816666,
                    "velocity": 0.7716535433070866,
                    "duration": 0.10227270000001454
                },
                {
                    "name": "C3",
                    "midi": 48,
                    "time": 270.8550414083327,
                    "velocity": 0.7637795275590551,
                    "duration": 0.10227270000001454
                },
                {
                    "name": "G#3",
                    "midi": 56,
                    "time": 271.53117759166605,
                    "velocity": 0.7401574803149606,
                    "duration": 0.10227270000001454
                },
                {
                    "name": "G3",
                    "midi": 55,
                    "time": 271.7101548166661,
                    "velocity": 0.7401574803149606,
                    "duration": 0.10227270000001454
                },
                {
                    "name": "F#3",
                    "midi": 54,
                    "time": 271.87776840833277,
                    "velocity": 0.7637795275590551,
                    "duration": 0.10227270000001454
                },
                {
                    "name": "F3",
                    "midi": 53,
                    "time": 272.0425410916661,
                    "velocity": 0.7401574803149606,
                    "duration": 0.10227270000001454
                },
                {
                    "name": "E3",
                    "midi": 52,
                    "time": 272.21299559166613,
                    "velocity": 0.7559055118110236,
                    "duration": 0.10227270000001454
                },
                {
                    "name": "D#3",
                    "midi": 51,
                    "time": 272.38345009166613,
                    "velocity": 0.7716535433070866,
                    "duration": 0.10227270000001454
                },
                {
                    "name": "D3",
                    "midi": 50,
                    "time": 272.5510636833328,
                    "velocity": 0.7401574803149606,
                    "duration": 0.10227270000001454
                },
                {
                    "name": "C#3",
                    "midi": 49,
                    "time": 272.7328818166662,
                    "velocity": 0.7559055118110236,
                    "duration": 0.10227270000001454
                },
                {
                    "name": "C3",
                    "midi": 48,
                    "time": 272.89765449999953,
                    "velocity": 0.7480314960629921,
                    "duration": 0.10227270000001454
                },
                {
                    "name": "D#3",
                    "midi": 51,
                    "time": 274.7783358166662,
                    "velocity": 0.7480314960629921,
                    "duration": 0.1363635999999815
                },
                {
                    "name": "G#3",
                    "midi": 56,
                    "time": 274.9487903166662,
                    "velocity": 0.7480314960629921,
                    "duration": 0.1363635999999815
                },
                {
                    "name": "D#3",
                    "midi": 51,
                    "time": 275.1164039083328,
                    "velocity": 0.7401574803149606,
                    "duration": 0.2727272000000198
                },
                {
                    "name": "D#3",
                    "midi": 51,
                    "time": 275.80106281666616,
                    "velocity": 0.7637795275590551,
                    "duration": 0.1363635999999815
                },
                {
                    "name": "G#3",
                    "midi": 56,
                    "time": 275.96299459166613,
                    "velocity": 0.7401574803149606,
                    "duration": 0.1363635999999815
                },
                {
                    "name": "D#3",
                    "midi": 51,
                    "time": 276.1419718166661,
                    "velocity": 0.7401574803149606,
                    "duration": 0.2727272000000198
                },
                {
                    "name": "D#3",
                    "midi": 51,
                    "time": 276.8124261833328,
                    "velocity": 0.7401574803149606,
                    "duration": 0.1363635999999815
                },
                {
                    "name": "G#3",
                    "midi": 56,
                    "time": 276.98856249999943,
                    "velocity": 0.7716535433070866,
                    "duration": 0.1363635999999815
                },
                {
                    "name": "D#3",
                    "midi": 51,
                    "time": 277.15617609166605,
                    "velocity": 0.7637795275590551,
                    "duration": 0.2727272000000198
                },
                {
                    "name": "D#3",
                    "midi": 51,
                    "time": 277.8408349999994,
                    "velocity": 0.7480314960629921,
                    "duration": 0.1363635999999815
                },
                {
                    "name": "G#3",
                    "midi": 56,
                    "time": 278.0112894999994,
                    "velocity": 0.7716535433070866,
                    "duration": 0.1363635999999815
                },
                {
                    "name": "D#3",
                    "midi": 51,
                    "time": 278.18458490833274,
                    "velocity": 0.7637795275590551,
                    "duration": 0.2727272000000198
                },
                {
                    "name": "D#3",
                    "midi": 51,
                    "time": 278.8607210916661,
                    "velocity": 0.7637795275590551,
                    "duration": 0.1363635999999815
                },
                {
                    "name": "G#3",
                    "midi": 56,
                    "time": 279.03401649999944,
                    "velocity": 0.7401574803149606,
                    "duration": 0.1363635999999815
                },
                {
                    "name": "D#3",
                    "midi": 51,
                    "time": 279.20731190833277,
                    "velocity": 0.7637795275590551,
                    "duration": 0.2727272000000198
                },
                {
                    "name": "D#3",
                    "midi": 51,
                    "time": 279.8891299083328,
                    "velocity": 0.7637795275590551,
                    "duration": 0.1363635999999815
                },
                {
                    "name": "G#3",
                    "midi": 56,
                    "time": 280.0624253166661,
                    "velocity": 0.7401574803149606,
                    "duration": 0.1363635999999815
                },
                {
                    "name": "D#3",
                    "midi": 51,
                    "time": 280.23003890833274,
                    "velocity": 0.7480314960629921,
                    "duration": 0.2727272000000198
                },
                {
                    "name": "G#3",
                    "midi": 56,
                    "time": 280.56810699999943,
                    "velocity": 0.7559055118110236,
                    "duration": 0.2727272000000198
                },
                {
                    "name": "D#3",
                    "midi": 51,
                    "time": 280.91185690833277,
                    "velocity": 0.7559055118110236,
                    "duration": 0.1363635999999815
                },
                {
                    "name": "G#3",
                    "midi": 56,
                    "time": 281.0794704999994,
                    "velocity": 0.7637795275590551,
                    "duration": 0.1363635999999815
                },
                {
                    "name": "D#3",
                    "midi": 51,
                    "time": 281.247084091666,
                    "velocity": 0.7401574803149606,
                    "duration": 0.2727272000000198
                },
                {
                    "name": "D#3",
                    "midi": 51,
                    "time": 281.937424816666,
                    "velocity": 0.7637795275590551,
                    "duration": 0.1363635999999815
                },
                {
                    "name": "G#3",
                    "midi": 56,
                    "time": 282.099356591666,
                    "velocity": 0.7716535433070866,
                    "duration": 0.1363635999999815
                },
                {
                    "name": "D#3",
                    "midi": 51,
                    "time": 282.27549290833264,
                    "velocity": 0.7637795275590551,
                    "duration": 0.2727272000000198
                },
                {
                    "name": "D#3",
                    "midi": 51,
                    "time": 282.9487881833327,
                    "velocity": 0.7401574803149606,
                    "duration": 0.1363635999999815
                },
                {
                    "name": "G#3",
                    "midi": 56,
                    "time": 283.12776540833266,
                    "velocity": 0.7401574803149606,
                    "duration": 0.1363635999999815
                },
                {
                    "name": "D#3",
                    "midi": 51,
                    "time": 283.2953789999993,
                    "velocity": 0.7401574803149606,
                    "duration": 0.2727272000000198
                },
                {
                    "name": "D#3",
                    "midi": 51,
                    "time": 283.63060618333265,
                    "velocity": 0.7480314960629921,
                    "duration": 0.1363635999999815
                },
                {
                    "name": "D#3",
                    "midi": 51,
                    "time": 283.8067424999993,
                    "velocity": 0.7637795275590551,
                    "duration": 0.1363635999999815
                },
                {
                    "name": "D#3",
                    "midi": 51,
                    "time": 283.98003790833263,
                    "velocity": 0.7637795275590551,
                    "duration": 0.2727272000000198
                },
                {
                    "name": "C#3",
                    "midi": 49,
                    "time": 283.98287881666596,
                    "velocity": 0.7716535433070866,
                    "duration": 0.2727272000000198
                },
                {
                    "name": "D#3",
                    "midi": 51,
                    "time": 284.32094690833264,
                    "velocity": 0.7480314960629921,
                    "duration": 0.1363635999999815
                },
                {
                    "name": "D#3",
                    "midi": 51,
                    "time": 284.48856049999927,
                    "velocity": 0.7716535433070866,
                    "duration": 0.1363635999999815
                },
                {
                    "name": "D#3",
                    "midi": 51,
                    "time": 284.65333318333256,
                    "velocity": 0.7716535433070866,
                    "duration": 0.1363635999999815
                },
                {
                    "name": "D#3",
                    "midi": 51,
                    "time": 284.8294694999992,
                    "velocity": 0.7716535433070866,
                    "duration": 0.1363635999999815
                },
                {
                    "name": "D#3",
                    "midi": 51,
                    "time": 284.9942421833325,
                    "velocity": 0.7637795275590551,
                    "duration": 0.272727199999963
                },
                {
                    "name": "G#3",
                    "midi": 56,
                    "time": 284.99992399999917,
                    "velocity": 0.7401574803149606,
                    "duration": 0.272727199999963
                },
                {
                    "name": "D#3",
                    "midi": 51,
                    "time": 285.6789010916658,
                    "velocity": 0.7716535433070866,
                    "duration": 0.1363635999999815
                },
                {
                    "name": "D#3",
                    "midi": 51,
                    "time": 285.84651468333243,
                    "velocity": 0.7480314960629921,
                    "duration": 0.1363635999999815
                },
                {
                    "name": "C#3",
                    "midi": 49,
                    "time": 286.01981009166576,
                    "velocity": 0.7401574803149606,
                    "duration": 0.272727199999963
                },
                {
                    "name": "D#3",
                    "midi": 51,
                    "time": 286.0254919083324,
                    "velocity": 0.7559055118110236,
                    "duration": 0.272727199999963
                },
                {
                    "name": "D#3",
                    "midi": 51,
                    "time": 286.36640090833237,
                    "velocity": 0.7559055118110236,
                    "duration": 0.1363635999999815
                },
                {
                    "name": "D#3",
                    "midi": 51,
                    "time": 286.5396963166657,
                    "velocity": 0.7637795275590551,
                    "duration": 0.1363635999999815
                },
                {
                    "name": "D#3",
                    "midi": 51,
                    "time": 286.7101508166657,
                    "velocity": 0.7716535433070866,
                    "duration": 0.1363635999999815
                },
                {
                    "name": "D#3",
                    "midi": 51,
                    "time": 286.8777644083323,
                    "velocity": 0.7559055118110236,
                    "duration": 0.1363635999999815
                },
                {
                    "name": "D#3",
                    "midi": 51,
                    "time": 287.04821890833233,
                    "velocity": 0.7637795275590551,
                    "duration": 0.2727272000000198
                },
                {
                    "name": "G#3",
                    "midi": 56,
                    "time": 287.05105981666566,
                    "velocity": 0.7401574803149606,
                    "duration": 0.2727272000000198
                },
                {
                    "name": "D#3",
                    "midi": 51,
                    "time": 287.73003690833235,
                    "velocity": 0.7637795275590551,
                    "duration": 0.1363635999999815
                },
                {
                    "name": "D#3",
                    "midi": 51,
                    "time": 287.8919686833323,
                    "velocity": 0.7637795275590551,
                    "duration": 0.1363635999999815
                },
                {
                    "name": "G#3",
                    "midi": 56,
                    "time": 288.0624231833323,
                    "velocity": 0.7480314960629921,
                    "duration": 0.272727199999963
                },
                {
                    "name": "D#3",
                    "midi": 51,
                    "time": 288.068104999999,
                    "velocity": 0.7637795275590551,
                    "duration": 0.272727199999963
                },
                {
                    "name": "D#3",
                    "midi": 51,
                    "time": 288.7442411833323,
                    "velocity": 0.7637795275590551,
                    "duration": 0.1363635999999815
                },
                {
                    "name": "D#3",
                    "midi": 51,
                    "time": 288.92037749999895,
                    "velocity": 0.7637795275590551,
                    "duration": 0.1363635999999815
                },
                {
                    "name": "G#3",
                    "midi": 56,
                    "time": 289.09083199999895,
                    "velocity": 0.7637795275590551,
                    "duration": 0.2727272000000198
                },
                {
                    "name": "D#3",
                    "midi": 51,
                    "time": 289.0936729083323,
                    "velocity": 0.7401574803149606,
                    "duration": 0.2727272000000198
                },
                {
                    "name": "D#3",
                    "midi": 51,
                    "time": 289.772649999999,
                    "velocity": 0.7716535433070866,
                    "duration": 0.1363635999999815
                },
                {
                    "name": "D#3",
                    "midi": 51,
                    "time": 289.9459454083323,
                    "velocity": 0.7480314960629921,
                    "duration": 0.1363635999999815
                },
                {
                    "name": "G#3",
                    "midi": 56,
                    "time": 290.1078771833323,
                    "velocity": 0.7637795275590551,
                    "duration": 0.2727272000000198
                },
                {
                    "name": "D#3",
                    "midi": 51,
                    "time": 290.1107180916656,
                    "velocity": 0.7401574803149606,
                    "duration": 0.2727272000000198
                },
                {
                    "name": "D#3",
                    "midi": 51,
                    "time": 291.13344509166564,
                    "velocity": 0.7637795275590551,
                    "duration": 0.272727199999963
                },
                {
                    "name": "G#3",
                    "midi": 56,
                    "time": 291.1419678166656,
                    "velocity": 0.7716535433070866,
                    "duration": 0.272727199999963
                },
                {
                    "name": "G#3",
                    "midi": 56,
                    "time": 291.48003590833224,
                    "velocity": 0.7637795275590551,
                    "duration": 0.2727272000000198
                },
                {
                    "name": "G#3",
                    "midi": 56,
                    "time": 292.1561720916656,
                    "velocity": 0.7480314960629921,
                    "duration": 0.2727272000000198
                },
                {
                    "name": "G#3",
                    "midi": 56,
                    "time": 292.5027629083323,
                    "velocity": 0.7480314960629921,
                    "duration": 0.2727272000000198
                },
                {
                    "name": "D#3",
                    "midi": 51,
                    "time": 292.5027629083323,
                    "velocity": 0.7716535433070866,
                    "duration": 0.2727272000000198
                },
                {
                    "name": "G#3",
                    "midi": 56,
                    "time": 293.86639890833226,
                    "velocity": 0.7637795275590551,
                    "duration": 0.2727272000000198
                },
                {
                    "name": "D#3",
                    "midi": 51,
                    "time": 293.86639890833226,
                    "velocity": 0.7480314960629921,
                    "duration": 0.2727272000000198
                }
            ],
            "controlChanges": {
                "7": [
                    {
                        "number": 7,
                        "time": 0,
                        "value": 0.8740157480314961
                    }
                ],
                "10": [
                    {
                        "number": 10,
                        "time": 0,
                        "value": 0.31496062992125984
                    },
                    {
                        "number": 10,
                        "time": 293.86355799999893,
                        "value": 0.5039370078740157
                    },
                    {
                        "number": 10,
                        "time": 296.59082999999896,
                        "value": 0.5039370078740157
                    }
                ],
                "91": [
                    {
                        "number": 91,
                        "time": 0,
                        "value": 0
                    },
                    {
                        "number": 91,
                        "time": 0,
                        "value": 0.25196850393700787
                    },
                    {
                        "number": 91,
                        "time": 294.88628499999896,
                        "value": 0
                    }
                ],
                "93": [
                    {
                        "number": 93,
                        "time": 0,
                        "value": 0.031496062992125984
                    }
                ],
                "121": [
                    {
                        "number": 121,
                        "time": 0,
                        "value": 0
                    }
                ]
            },
            "id": 9,
            "instrumentNumber": 0,
            "instrument": "acoustic grand piano",
            "instrumentFamily": "piano",
            "channelNumber": 5,
            "isPercussion": false
        },
        {
            "startTime": 25.230106908333333,
            "duration": 294.14196701666594,
            "length": 185,
            "notes": [
                {
                    "name": "G#2",
                    "midi": 44,
                    "time": 25.230106908333333,
                    "velocity": 0.5590551181102362,
                    "duration": 0.20454540000000065
                },
                {
                    "name": "B2",
                    "midi": 47,
                    "time": 26.255674816666666,
                    "velocity": 0.5590551181102362,
                    "duration": 0.20454540000000065
                },
                {
                    "name": "G#2",
                    "midi": 44,
                    "time": 33.409082,
                    "velocity": 0.5433070866141733,
                    "duration": 0.20454540000000065
                },
                {
                    "name": "B2",
                    "midi": 47,
                    "time": 34.431809,
                    "velocity": 0.5590551181102362,
                    "duration": 0.20454540000000065
                },
                {
                    "name": "G#2",
                    "midi": 44,
                    "time": 39.54260309166667,
                    "velocity": 0.6377952755905512,
                    "duration": 0.10227270000000033
                },
                {
                    "name": "G#2",
                    "midi": 44,
                    "time": 102.95451800000001,
                    "velocity": 0.5354330708661418,
                    "duration": 0.2727272000000056
                },
                {
                    "name": "B2",
                    "midi": 47,
                    "time": 103.97440409166668,
                    "velocity": 0.5511811023622047,
                    "duration": 0.2727272000000056
                },
                {
                    "name": "G#2",
                    "midi": 44,
                    "time": 111.13633400000002,
                    "velocity": 0.5590551181102362,
                    "duration": 0.2727272000000056
                },
                {
                    "name": "B2",
                    "midi": 47,
                    "time": 112.15337918333336,
                    "velocity": 0.5511811023622047,
                    "duration": 0.2727272000000056
                },
                {
                    "name": "G#2",
                    "midi": 44,
                    "time": 119.32099090833336,
                    "velocity": 0.5354330708661418,
                    "duration": 0.2727272000000056
                },
                {
                    "name": "B2",
                    "midi": 47,
                    "time": 126.13917090833336,
                    "velocity": 0.5511811023622047,
                    "duration": 0.2727272000000056
                },
                {
                    "name": "G#2",
                    "midi": 44,
                    "time": 157.84654881666668,
                    "velocity": 0.5511811023622047,
                    "duration": 0.2727271999999914
                },
                {
                    "name": "G2",
                    "midi": 43,
                    "time": 161.92893409166666,
                    "velocity": 0.5511811023622047,
                    "duration": 0.5454544000000112
                },
                {
                    "name": "G#2",
                    "midi": 44,
                    "time": 189.55108581666667,
                    "velocity": 0.5354330708661418,
                    "duration": 0.2727271999999914
                },
                {
                    "name": "B2",
                    "midi": 47,
                    "time": 190.568131,
                    "velocity": 0.5669291338582677,
                    "duration": 0.2727271999999914
                },
                {
                    "name": "D#2",
                    "midi": 39,
                    "time": 191.590858,
                    "velocity": 0.5433070866141733,
                    "duration": 0.2727271999999914
                },
                {
                    "name": "G2",
                    "midi": 43,
                    "time": 192.61074409166665,
                    "velocity": 0.5354330708661418,
                    "duration": 0.2727271999999914
                },
                {
                    "name": "G#2",
                    "midi": 44,
                    "time": 193.63347109166665,
                    "velocity": 0.5354330708661418,
                    "duration": 0.2727271999999914
                },
                {
                    "name": "E2",
                    "midi": 40,
                    "time": 194.6618799083333,
                    "velocity": 0.5590551181102362,
                    "duration": 0.2727271999999914
                },
                {
                    "name": "D#2",
                    "midi": 39,
                    "time": 195.6760841833333,
                    "velocity": 0.5590551181102362,
                    "duration": 0.2727271999999914
                },
                {
                    "name": "G#2",
                    "midi": 44,
                    "time": 197.72437909166663,
                    "velocity": 0.5590551181102362,
                    "duration": 0.2727271999999914
                },
                {
                    "name": "G2",
                    "midi": 43,
                    "time": 204.4289227583333,
                    "velocity": 0.6456692913385826,
                    "duration": 0.04545453333332716
                },
                {
                    "name": "G#2",
                    "midi": 44,
                    "time": 204.48290001666663,
                    "velocity": 0.6456692913385826,
                    "duration": 0.04545453333332716
                },
                {
                    "name": "B2",
                    "midi": 47,
                    "time": 206.9346039083333,
                    "velocity": 0.5354330708661418,
                    "duration": 0.10227269999998612
                },
                {
                    "name": "B2",
                    "midi": 47,
                    "time": 207.6107400916666,
                    "velocity": 0.5669291338582677,
                    "duration": 0.10227269999998612
                },
                {
                    "name": "F#2",
                    "midi": 42,
                    "time": 207.9544899999999,
                    "velocity": 0.5669291338582677,
                    "duration": 0.10227269999998612
                },
                {
                    "name": "F#2",
                    "midi": 42,
                    "time": 208.64198981666655,
                    "velocity": 0.5354330708661418,
                    "duration": 0.10227269999998612
                },
                {
                    "name": "B2",
                    "midi": 47,
                    "time": 208.98289881666653,
                    "velocity": 0.5590551181102362,
                    "duration": 0.10227269999998612
                },
                {
                    "name": "B2",
                    "midi": 47,
                    "time": 209.4828986833332,
                    "velocity": 0.5669291338582677,
                    "duration": 0.10227269999998612
                },
                {
                    "name": "F#2",
                    "midi": 42,
                    "time": 209.65335318333317,
                    "velocity": 0.5669291338582677,
                    "duration": 0.10227269999998612
                },
                {
                    "name": "A#2",
                    "midi": 46,
                    "time": 212.03971618333316,
                    "velocity": 0.5669291338582677,
                    "duration": 0.10227269999998612
                },
                {
                    "name": "A#2",
                    "midi": 46,
                    "time": 212.72153418333315,
                    "velocity": 0.5590551181102362,
                    "duration": 0.10227269999998612
                },
                {
                    "name": "A#2",
                    "midi": 46,
                    "time": 213.75278390833313,
                    "velocity": 0.5590551181102362,
                    "duration": 0.10227269999998612
                },
                {
                    "name": "D#2",
                    "midi": 39,
                    "time": 213.91471568333313,
                    "velocity": 0.5433070866141733,
                    "duration": 0.10227269999998612
                },
                {
                    "name": "B2",
                    "midi": 47,
                    "time": 218.18460090833312,
                    "velocity": 0.5511811023622047,
                    "duration": 0.2727271999999914
                },
                {
                    "name": "F#2",
                    "midi": 42,
                    "time": 221.59653181666644,
                    "velocity": 0.5590551181102362,
                    "duration": 0.10227269999998612
                },
                {
                    "name": "F#2",
                    "midi": 42,
                    "time": 221.7556226833331,
                    "velocity": 0.5590551181102362,
                    "duration": 0.10227269999998612
                },
                {
                    "name": "G2",
                    "midi": 43,
                    "time": 221.93175899999974,
                    "velocity": 0.5669291338582677,
                    "duration": 0.10227269999998612
                },
                {
                    "name": "G2",
                    "midi": 43,
                    "time": 222.10221349999972,
                    "velocity": 0.5590551181102362,
                    "duration": 0.10227269999998612
                },
                {
                    "name": "G#2",
                    "midi": 44,
                    "time": 222.27550890833305,
                    "velocity": 0.5590551181102362,
                    "duration": 0.10227269999998612
                },
                {
                    "name": "G#2",
                    "midi": 44,
                    "time": 222.43744068333305,
                    "velocity": 0.5433070866141733,
                    "duration": 0.10227269999998612
                },
                {
                    "name": "G#2",
                    "midi": 44,
                    "time": 225.67607618333304,
                    "velocity": 0.5669291338582677,
                    "duration": 0.10227269999998612
                },
                {
                    "name": "G#2",
                    "midi": 44,
                    "time": 225.85789431666635,
                    "velocity": 0.5511811023622047,
                    "duration": 0.10227269999998612
                },
                {
                    "name": "G2",
                    "midi": 43,
                    "time": 226.025507908333,
                    "velocity": 0.5511811023622047,
                    "duration": 0.10227269999998612
                },
                {
                    "name": "G2",
                    "midi": 43,
                    "time": 226.19880331666633,
                    "velocity": 0.5433070866141733,
                    "duration": 0.10227269999998612
                },
                {
                    "name": "F#2",
                    "midi": 42,
                    "time": 226.36073509166633,
                    "velocity": 0.5433070866141733,
                    "duration": 0.10227269999998612
                },
                {
                    "name": "F#2",
                    "midi": 42,
                    "time": 226.5311895916663,
                    "velocity": 0.5354330708661418,
                    "duration": 0.10227269999998612
                },
                {
                    "name": "F2",
                    "midi": 41,
                    "time": 229.76698418333297,
                    "velocity": 0.5669291338582677,
                    "duration": 0.10227269999998612
                },
                {
                    "name": "F2",
                    "midi": 41,
                    "time": 229.94596140833295,
                    "velocity": 0.5826771653543307,
                    "duration": 0.10227269999998612
                },
                {
                    "name": "E2",
                    "midi": 40,
                    "time": 230.1135749999996,
                    "velocity": 0.5826771653543307,
                    "duration": 0.10227269999998612
                },
                {
                    "name": "E2",
                    "midi": 40,
                    "time": 230.28971131666626,
                    "velocity": 0.5826771653543307,
                    "duration": 0.10227269999998612
                },
                {
                    "name": "D#2",
                    "midi": 39,
                    "time": 230.4488021833329,
                    "velocity": 0.5905511811023622,
                    "duration": 0.10227269999998612
                },
                {
                    "name": "D#2",
                    "midi": 39,
                    "time": 230.62493849999956,
                    "velocity": 0.5905511811023622,
                    "duration": 0.10227269999998612
                },
                {
                    "name": "A#2",
                    "midi": 46,
                    "time": 233.86925581666623,
                    "velocity": 0.6062992125984252,
                    "duration": 0.10227269999998612
                },
                {
                    "name": "A#2",
                    "midi": 46,
                    "time": 234.0397103166662,
                    "velocity": 0.6220472440944882,
                    "duration": 0.10227269999998612
                },
                {
                    "name": "D2",
                    "midi": 38,
                    "time": 234.20448299999953,
                    "velocity": 0.6299212598425197,
                    "duration": 0.10227269999998612
                },
                {
                    "name": "D2",
                    "midi": 38,
                    "time": 234.3749374999995,
                    "velocity": 0.6062992125984252,
                    "duration": 0.10227269999998612
                },
                {
                    "name": "D#2",
                    "midi": 39,
                    "time": 234.54255109166616,
                    "velocity": 0.6141732283464567,
                    "duration": 0.10227269999998612
                },
                {
                    "name": "D#2",
                    "midi": 39,
                    "time": 234.72152831666614,
                    "velocity": 0.5984251968503937,
                    "duration": 0.10227269999998612
                },
                {
                    "name": "A#2",
                    "midi": 46,
                    "time": 241.70164009166612,
                    "velocity": 0.6692913385826772,
                    "duration": 0.10227269999998612
                },
                {
                    "name": "A#2",
                    "midi": 46,
                    "time": 241.87493549999945,
                    "velocity": 0.6929133858267716,
                    "duration": 0.10227269999998612
                },
                {
                    "name": "G#2",
                    "midi": 44,
                    "time": 242.0425490916661,
                    "velocity": 0.6771653543307087,
                    "duration": 0.10227269999998612
                },
                {
                    "name": "B2",
                    "midi": 47,
                    "time": 242.04538999999943,
                    "velocity": 0.6771653543307087,
                    "duration": 0.10227269999998612
                },
                {
                    "name": "B2",
                    "midi": 47,
                    "time": 242.21300359166608,
                    "velocity": 0.6850393700787402,
                    "duration": 0.10227269999998612
                },
                {
                    "name": "G#2",
                    "midi": 44,
                    "time": 242.2158444999994,
                    "velocity": 0.6850393700787402,
                    "duration": 0.10227269999998612
                },
                {
                    "name": "F#2",
                    "midi": 42,
                    "time": 242.38061718333273,
                    "velocity": 0.7007874015748031,
                    "duration": 0.10227270000001454
                },
                {
                    "name": "A2",
                    "midi": 45,
                    "time": 242.38913990833274,
                    "velocity": 0.6850393700787402,
                    "duration": 0.10227270000001454
                },
                {
                    "name": "A2",
                    "midi": 45,
                    "time": 242.55107168333276,
                    "velocity": 0.6771653543307087,
                    "duration": 0.10227270000001454
                },
                {
                    "name": "F#2",
                    "midi": 42,
                    "time": 242.55959440833277,
                    "velocity": 0.6850393700787402,
                    "duration": 0.10227270000001454
                },
                {
                    "name": "G2",
                    "midi": 43,
                    "time": 242.72436709166612,
                    "velocity": 0.7007874015748031,
                    "duration": 0.10227270000001454
                },
                {
                    "name": "A#2",
                    "midi": 46,
                    "time": 242.73288981666613,
                    "velocity": 0.7086614173228346,
                    "duration": 0.10227270000001454
                },
                {
                    "name": "G2",
                    "midi": 43,
                    "time": 242.8919806833328,
                    "velocity": 0.6771653543307087,
                    "duration": 0.10227270000001454
                },
                {
                    "name": "A#2",
                    "midi": 46,
                    "time": 242.9005034083328,
                    "velocity": 0.7086614173228346,
                    "duration": 0.10227270000001454
                },
                {
                    "name": "A#2",
                    "midi": 46,
                    "time": 243.06243518333284,
                    "velocity": 0.7007874015748031,
                    "duration": 0.10227270000001454
                },
                {
                    "name": "G2",
                    "midi": 43,
                    "time": 243.07095790833284,
                    "velocity": 0.7007874015748031,
                    "duration": 0.10227270000001454
                },
                {
                    "name": "G2",
                    "midi": 43,
                    "time": 243.23857149999952,
                    "velocity": 0.7086614173228346,
                    "duration": 0.10227270000001454
                },
                {
                    "name": "A#2",
                    "midi": 46,
                    "time": 243.2442533166662,
                    "velocity": 0.7007874015748031,
                    "duration": 0.10227270000001454
                },
                {
                    "name": "D2",
                    "midi": 38,
                    "time": 243.40618509166623,
                    "velocity": 0.6850393700787402,
                    "duration": 0.10227269999998612
                },
                {
                    "name": "B2",
                    "midi": 47,
                    "time": 243.40902599999956,
                    "velocity": 0.7086614173228346,
                    "duration": 0.10227269999998612
                },
                {
                    "name": "B2",
                    "midi": 47,
                    "time": 243.57948049999953,
                    "velocity": 0.6929133858267716,
                    "duration": 0.10227270000001454
                },
                {
                    "name": "D2",
                    "midi": 38,
                    "time": 243.5851623166662,
                    "velocity": 0.6929133858267716,
                    "duration": 0.10227270000001454
                },
                {
                    "name": "A#2",
                    "midi": 46,
                    "time": 243.74993499999957,
                    "velocity": 0.6771653543307087,
                    "duration": 0.2727271999999914
                },
                {
                    "name": "D#2",
                    "midi": 39,
                    "time": 243.7527759083329,
                    "velocity": 0.6850393700787402,
                    "duration": 0.2727271999999914
                },
                {
                    "name": "A#2",
                    "midi": 46,
                    "time": 253.1192506833329,
                    "velocity": 0.6929133858267716,
                    "duration": 0.10227269999998612
                },
                {
                    "name": "G2",
                    "midi": 43,
                    "time": 253.46584149999956,
                    "velocity": 0.6614173228346457,
                    "duration": 0.10227269999998612
                },
                {
                    "name": "D#2",
                    "midi": 39,
                    "time": 253.80675049999954,
                    "velocity": 0.6377952755905512,
                    "duration": 0.10227269999998612
                },
                {
                    "name": "G#2",
                    "midi": 44,
                    "time": 258.0737948166662,
                    "velocity": 0.5433070866141733,
                    "duration": 0.2727272000000198
                },
                {
                    "name": "B2",
                    "midi": 47,
                    "time": 259.0879990916662,
                    "velocity": 0.5354330708661418,
                    "duration": 0.2727272000000198
                },
                {
                    "name": "D#2",
                    "midi": 39,
                    "time": 260.1078851833329,
                    "velocity": 0.5590551181102362,
                    "duration": 0.2727272000000198
                },
                {
                    "name": "G2",
                    "midi": 43,
                    "time": 261.13629399999957,
                    "velocity": 0.5511811023622047,
                    "duration": 0.2727272000000198
                },
                {
                    "name": "G#2",
                    "midi": 44,
                    "time": 262.1618619083329,
                    "velocity": 0.5511811023622047,
                    "duration": 0.2727272000000198
                },
                {
                    "name": "E2",
                    "midi": 40,
                    "time": 263.18458890833296,
                    "velocity": 0.5590551181102362,
                    "duration": 0.2727272000000198
                },
                {
                    "name": "D#2",
                    "midi": 39,
                    "time": 264.19879318333295,
                    "velocity": 0.5511811023622047,
                    "duration": 0.2727272000000198
                },
                {
                    "name": "G#2",
                    "midi": 44,
                    "time": 266.2499289999996,
                    "velocity": 0.6141732283464567,
                    "duration": 0.2727272000000198
                },
                {
                    "name": "C2",
                    "midi": 36,
                    "time": 267.27549690833297,
                    "velocity": 0.6535433070866141,
                    "duration": 0.2727272000000198
                },
                {
                    "name": "C#2",
                    "midi": 37,
                    "time": 268.28970118333297,
                    "velocity": 0.6771653543307087,
                    "duration": 0.2727272000000198
                },
                {
                    "name": "B2",
                    "midi": 47,
                    "time": 271.0283368166663,
                    "velocity": 0.7716535433070866,
                    "duration": 0.10227270000001454
                },
                {
                    "name": "A#2",
                    "midi": 46,
                    "time": 271.19310949999965,
                    "velocity": 0.7401574803149606,
                    "duration": 0.10227270000001454
                },
                {
                    "name": "A2",
                    "midi": 45,
                    "time": 271.3692458166663,
                    "velocity": 0.7401574803149606,
                    "duration": 0.10227270000001454
                },
                {
                    "name": "G#2",
                    "midi": 44,
                    "time": 271.53117759166634,
                    "velocity": 0.7480314960629921,
                    "duration": 0.10227270000001454
                },
                {
                    "name": "G2",
                    "midi": 43,
                    "time": 271.698791183333,
                    "velocity": 0.7559055118110236,
                    "duration": 0.10227270000001454
                },
                {
                    "name": "F#2",
                    "midi": 42,
                    "time": 271.87776840833305,
                    "velocity": 0.7401574803149606,
                    "duration": 0.10227270000001454
                },
                {
                    "name": "F2",
                    "midi": 41,
                    "time": 272.04822290833306,
                    "velocity": 0.7559055118110236,
                    "duration": 0.10227270000001454
                },
                {
                    "name": "E2",
                    "midi": 40,
                    "time": 272.21583649999974,
                    "velocity": 0.7480314960629921,
                    "duration": 0.10227270000001454
                },
                {
                    "name": "D#2",
                    "midi": 39,
                    "time": 272.3834500916664,
                    "velocity": 0.7716535433070866,
                    "duration": 0.1022726999999577
                },
                {
                    "name": "A#2",
                    "midi": 46,
                    "time": 272.3834500916664,
                    "velocity": 0.7401574803149606,
                    "duration": 0.1022726999999577
                },
                {
                    "name": "G2",
                    "midi": 43,
                    "time": 272.38913190833307,
                    "velocity": 0.7637795275590551,
                    "duration": 0.1022726999999577
                },
                {
                    "name": "D2",
                    "midi": 38,
                    "time": 272.55106368333304,
                    "velocity": 0.7401574803149606,
                    "duration": 0.10227270000001454
                },
                {
                    "name": "C#2",
                    "midi": 37,
                    "time": 272.7243590916664,
                    "velocity": 0.7401574803149606,
                    "duration": 0.10227270000001454
                },
                {
                    "name": "C2",
                    "midi": 36,
                    "time": 272.9033363166664,
                    "velocity": 0.7716535433070866,
                    "duration": 0.10227270000001454
                },
                {
                    "name": "B2",
                    "midi": 47,
                    "time": 273.06526809166644,
                    "velocity": 0.7637795275590551,
                    "duration": 0.10227270000001454
                },
                {
                    "name": "A#2",
                    "midi": 46,
                    "time": 273.2414044083331,
                    "velocity": 0.7401574803149606,
                    "duration": 0.10227270000001454
                },
                {
                    "name": "A2",
                    "midi": 45,
                    "time": 273.4146998166664,
                    "velocity": 0.7401574803149606,
                    "duration": 0.10227270000001454
                },
                {
                    "name": "G#2",
                    "midi": 44,
                    "time": 273.5794724999998,
                    "velocity": 0.7480314960629921,
                    "duration": 0.10227270000001454
                },
                {
                    "name": "G2",
                    "midi": 43,
                    "time": 273.75560881666644,
                    "velocity": 0.7401574803149606,
                    "duration": 0.10227270000001454
                },
                {
                    "name": "F#2",
                    "midi": 42,
                    "time": 273.9232224083331,
                    "velocity": 0.7637795275590551,
                    "duration": 0.10227270000001454
                },
                {
                    "name": "E2",
                    "midi": 40,
                    "time": 274.0936769083331,
                    "velocity": 0.7716535433070866,
                    "duration": 0.10227270000001454
                },
                {
                    "name": "D#2",
                    "midi": 39,
                    "time": 274.26697231666645,
                    "velocity": 0.7480314960629921,
                    "duration": 0.10227270000001454
                },
                {
                    "name": "G#2",
                    "midi": 44,
                    "time": 274.4317449999998,
                    "velocity": 0.7637795275590551,
                    "duration": 0.2727272000000198
                },
                {
                    "name": "D#2",
                    "midi": 39,
                    "time": 274.77549490833314,
                    "velocity": 0.7637795275590551,
                    "duration": 0.1363635999999815
                },
                {
                    "name": "G#2",
                    "midi": 44,
                    "time": 274.94026759166644,
                    "velocity": 0.7716535433070866,
                    "duration": 0.1363635999999815
                },
                {
                    "name": "G#2",
                    "midi": 44,
                    "time": 275.4516310916664,
                    "velocity": 0.7637795275590551,
                    "duration": 0.2727272000000198
                },
                {
                    "name": "D#2",
                    "midi": 39,
                    "time": 275.79538099999974,
                    "velocity": 0.7637795275590551,
                    "duration": 0.1363635999999815
                },
                {
                    "name": "G#2",
                    "midi": 44,
                    "time": 275.96867640833307,
                    "velocity": 0.7637795275590551,
                    "duration": 0.1363635999999815
                },
                {
                    "name": "G#2",
                    "midi": 44,
                    "time": 276.4743580916664,
                    "velocity": 0.7480314960629921,
                    "duration": 0.2727272000000198
                },
                {
                    "name": "D#2",
                    "midi": 39,
                    "time": 276.8237898166664,
                    "velocity": 0.7480314960629921,
                    "duration": 0.1363635999999815
                },
                {
                    "name": "G#2",
                    "midi": 44,
                    "time": 276.9942443166664,
                    "velocity": 0.7480314960629921,
                    "duration": 0.1363635999999815
                },
                {
                    "name": "G#2",
                    "midi": 44,
                    "time": 277.49992599999973,
                    "velocity": 0.7559055118110236,
                    "duration": 0.2727272000000198
                },
                {
                    "name": "D#2",
                    "midi": 39,
                    "time": 277.8351531833331,
                    "velocity": 0.7480314960629921,
                    "duration": 0.1363635999999815
                },
                {
                    "name": "G#2",
                    "midi": 44,
                    "time": 278.0169713166664,
                    "velocity": 0.7716535433070866,
                    "duration": 0.1363635999999815
                },
                {
                    "name": "G#2",
                    "midi": 44,
                    "time": 278.52549390833303,
                    "velocity": 0.7716535433070866,
                    "duration": 0.2727272000000198
                },
                {
                    "name": "D#2",
                    "midi": 39,
                    "time": 278.8607210916664,
                    "velocity": 0.7480314960629921,
                    "duration": 0.1363635999999815
                },
                {
                    "name": "G#2",
                    "midi": 44,
                    "time": 279.028334683333,
                    "velocity": 0.7559055118110236,
                    "duration": 0.1363635999999815
                },
                {
                    "name": "G#2",
                    "midi": 44,
                    "time": 279.539698183333,
                    "velocity": 0.7559055118110236,
                    "duration": 0.2727272000000198
                },
                {
                    "name": "D#2",
                    "midi": 39,
                    "time": 279.88628899999964,
                    "velocity": 0.7401574803149606,
                    "duration": 0.1363635999999815
                },
                {
                    "name": "G#2",
                    "midi": 44,
                    "time": 280.05674349999964,
                    "velocity": 0.7401574803149606,
                    "duration": 0.1363635999999815
                },
                {
                    "name": "D#2",
                    "midi": 39,
                    "time": 280.9061750916663,
                    "velocity": 0.7480314960629921,
                    "duration": 0.1363635999999815
                },
                {
                    "name": "G#2",
                    "midi": 44,
                    "time": 281.0794704999996,
                    "velocity": 0.7401574803149606,
                    "duration": 0.1363635999999815
                },
                {
                    "name": "G#2",
                    "midi": 44,
                    "time": 281.59367490833296,
                    "velocity": 0.7716535433070866,
                    "duration": 0.2727272000000198
                },
                {
                    "name": "D#2",
                    "midi": 39,
                    "time": 281.93174299999964,
                    "velocity": 0.7559055118110236,
                    "duration": 0.1363635999999815
                },
                {
                    "name": "G#2",
                    "midi": 44,
                    "time": 282.1078793166663,
                    "velocity": 0.7637795275590551,
                    "duration": 0.1363635999999815
                },
                {
                    "name": "G#2",
                    "midi": 44,
                    "time": 282.61924281666626,
                    "velocity": 0.7559055118110236,
                    "duration": 0.2727272000000198
                },
                {
                    "name": "D#2",
                    "midi": 39,
                    "time": 282.9544699999996,
                    "velocity": 0.7716535433070866,
                    "duration": 0.1363635999999815
                },
                {
                    "name": "G#2",
                    "midi": 44,
                    "time": 283.1249244999996,
                    "velocity": 0.7637795275590551,
                    "duration": 0.1363635999999815
                },
                {
                    "name": "B2",
                    "midi": 47,
                    "time": 283.3010608166663,
                    "velocity": 0.7559055118110236,
                    "duration": 0.2727272000000198
                },
                {
                    "name": "A#2",
                    "midi": 46,
                    "time": 283.6419698166663,
                    "velocity": 0.7480314960629921,
                    "duration": 0.1363635999999815
                },
                {
                    "name": "B2",
                    "midi": 47,
                    "time": 283.8095834083329,
                    "velocity": 0.7716535433070866,
                    "duration": 0.1363635999999815
                },
                {
                    "name": "B2",
                    "midi": 47,
                    "time": 284.31810599999955,
                    "velocity": 0.7716535433070866,
                    "duration": 0.1363635999999815
                },
                {
                    "name": "A#2",
                    "midi": 46,
                    "time": 284.4942423166662,
                    "velocity": 0.7480314960629921,
                    "duration": 0.1363635999999815
                },
                {
                    "name": "B2",
                    "midi": 47,
                    "time": 284.6590149999995,
                    "velocity": 0.7716535433070866,
                    "duration": 0.1363635999999815
                },
                {
                    "name": "A#2",
                    "midi": 46,
                    "time": 284.8266285916661,
                    "velocity": 0.7559055118110236,
                    "duration": 0.1363635999999815
                },
                {
                    "name": "G#2",
                    "midi": 44,
                    "time": 285.0056058166661,
                    "velocity": 0.7716535433070866,
                    "duration": 0.2727272000000198
                },
                {
                    "name": "D#2",
                    "midi": 39,
                    "time": 285.33799209166614,
                    "velocity": 0.7401574803149606,
                    "duration": 0.2727272000000198
                },
                {
                    "name": "G#2",
                    "midi": 44,
                    "time": 285.34083299999946,
                    "velocity": 0.7637795275590551,
                    "duration": 0.2727272000000198
                },
                {
                    "name": "A#2",
                    "midi": 46,
                    "time": 285.6874238166661,
                    "velocity": 0.7716535433070866,
                    "duration": 0.1363635999999815
                },
                {
                    "name": "B2",
                    "midi": 47,
                    "time": 285.85787831666613,
                    "velocity": 0.7637795275590551,
                    "duration": 0.1363635999999815
                },
                {
                    "name": "B2",
                    "midi": 47,
                    "time": 286.3692418166661,
                    "velocity": 0.7716535433070866,
                    "duration": 0.1363635999999815
                },
                {
                    "name": "A#2",
                    "midi": 46,
                    "time": 286.53117359166606,
                    "velocity": 0.7401574803149606,
                    "duration": 0.1363635999999815
                },
                {
                    "name": "B2",
                    "midi": 47,
                    "time": 286.7044689999994,
                    "velocity": 0.7716535433070866,
                    "duration": 0.1363635999999815
                },
                {
                    "name": "A#2",
                    "midi": 46,
                    "time": 286.8749234999994,
                    "velocity": 0.7716535433070866,
                    "duration": 0.1363635999999815
                },
                {
                    "name": "G#2",
                    "midi": 44,
                    "time": 287.0453779999994,
                    "velocity": 0.7559055118110236,
                    "duration": 0.2727272000000198
                },
                {
                    "name": "G#2",
                    "midi": 44,
                    "time": 287.3834460916661,
                    "velocity": 0.7559055118110236,
                    "duration": 0.272727199999963
                },
                {
                    "name": "D#2",
                    "midi": 39,
                    "time": 287.38912790833274,
                    "velocity": 0.7559055118110236,
                    "duration": 0.272727199999963
                },
                {
                    "name": "B2",
                    "midi": 47,
                    "time": 287.72719599999937,
                    "velocity": 0.7559055118110236,
                    "duration": 0.1363635999999815
                },
                {
                    "name": "A#2",
                    "midi": 46,
                    "time": 287.903332316666,
                    "velocity": 0.7401574803149606,
                    "duration": 0.1363635999999815
                },
                {
                    "name": "G#2",
                    "midi": 44,
                    "time": 288.0681049999993,
                    "velocity": 0.7559055118110236,
                    "duration": 0.2727272000000198
                },
                {
                    "name": "D#2",
                    "midi": 39,
                    "time": 288.406173091666,
                    "velocity": 0.7716535433070866,
                    "duration": 0.2727272000000198
                },
                {
                    "name": "G#2",
                    "midi": 44,
                    "time": 288.40901399999933,
                    "velocity": 0.7716535433070866,
                    "duration": 0.2727272000000198
                },
                {
                    "name": "B2",
                    "midi": 47,
                    "time": 288.747082091666,
                    "velocity": 0.7637795275590551,
                    "duration": 0.1363635999999815
                },
                {
                    "name": "A#2",
                    "midi": 46,
                    "time": 288.917536591666,
                    "velocity": 0.7480314960629921,
                    "duration": 0.1363635999999815
                },
                {
                    "name": "G#2",
                    "midi": 44,
                    "time": 289.0936729083327,
                    "velocity": 0.7401574803149606,
                    "duration": 0.2727272000000198
                },
                {
                    "name": "G#2",
                    "midi": 44,
                    "time": 289.43174099999936,
                    "velocity": 0.7480314960629921,
                    "duration": 0.272727199999963
                },
                {
                    "name": "D#2",
                    "midi": 39,
                    "time": 289.437422816666,
                    "velocity": 0.7401574803149606,
                    "duration": 0.272727199999963
                },
                {
                    "name": "B2",
                    "midi": 47,
                    "time": 289.7726499999993,
                    "velocity": 0.7480314960629921,
                    "duration": 0.1363635999999815
                },
                {
                    "name": "A#2",
                    "midi": 46,
                    "time": 289.9431044999993,
                    "velocity": 0.7480314960629921,
                    "duration": 0.1363635999999815
                },
                {
                    "name": "G#2",
                    "midi": 44,
                    "time": 290.1078771833326,
                    "velocity": 0.7716535433070866,
                    "duration": 0.2727272000000198
                },
                {
                    "name": "D#2",
                    "midi": 39,
                    "time": 290.45162709166596,
                    "velocity": 0.7480314960629921,
                    "duration": 0.272727199999963
                },
                {
                    "name": "G#2",
                    "midi": 44,
                    "time": 290.46014981666593,
                    "velocity": 0.7716535433070866,
                    "duration": 0.272727199999963
                },
                {
                    "name": "G#2",
                    "midi": 44,
                    "time": 290.7896951833326,
                    "velocity": 0.7401574803149606,
                    "duration": 0.2727272000000198
                },
                {
                    "name": "D#2",
                    "midi": 39,
                    "time": 290.7925360916659,
                    "velocity": 0.7480314960629921,
                    "duration": 0.2727272000000198
                },
                {
                    "name": "G#2",
                    "midi": 44,
                    "time": 291.13912690833257,
                    "velocity": 0.7401574803149606,
                    "duration": 0.2727272000000198
                },
                {
                    "name": "G#2",
                    "midi": 44,
                    "time": 292.49992199999923,
                    "velocity": 0.7716535433070866,
                    "duration": 0.2727272000000198
                },
                {
                    "name": "D#2",
                    "midi": 39,
                    "time": 292.84083099999924,
                    "velocity": 0.7716535433070866,
                    "duration": 0.2727272000000198
                },
                {
                    "name": "G#2",
                    "midi": 44,
                    "time": 292.84367190833257,
                    "velocity": 0.7637795275590551,
                    "duration": 0.2727272000000198
                },
                {
                    "name": "G#2",
                    "midi": 44,
                    "time": 293.8692398166659,
                    "velocity": 0.7716535433070866,
                    "duration": 0.2727272000000198
                }
            ],
            "controlChanges": {
                "7": [
                    {
                        "number": 7,
                        "time": 0,
                        "value": 0.8582677165354331
                    }
                ],
                "10": [
                    {
                        "number": 10,
                        "time": 0,
                        "value": 0.25196850393700787
                    },
                    {
                        "number": 10,
                        "time": 292.84083099999924,
                        "value": 0.5039370078740157
                    },
                    {
                        "number": 10,
                        "time": 296.5908299999993,
                        "value": 0.5039370078740157
                    }
                ],
                "91": [
                    {
                        "number": 91,
                        "time": 0,
                        "value": 0
                    },
                    {
                        "number": 91,
                        "time": 0,
                        "value": 0.25196850393700787
                    },
                    {
                        "number": 91,
                        "time": 294.8862849999993,
                        "value": 0
                    }
                ],
                "93": [
                    {
                        "number": 93,
                        "time": 0,
                        "value": 0.015748031496062992
                    }
                ],
                "121": [
                    {
                        "number": 121,
                        "time": 0,
                        "value": 0
                    }
                ]
            },
            "id": 10,
            "instrumentNumber": 0,
            "instrument": "acoustic grand piano",
            "instrumentFamily": "piano",
            "channelNumber": 6,
            "isPercussion": false
        },
        {
            "startTime": 189.545404,
            "duration": 293.1135582000005,
            "length": 31,
            "notes": [
                {
                    "name": "G#1",
                    "midi": 32,
                    "time": 189.545404,
                    "velocity": 0.5511811023622047,
                    "duration": 0.2727271999999914
                },
                {
                    "name": "B1",
                    "midi": 35,
                    "time": 190.57381281666665,
                    "velocity": 0.5669291338582677,
                    "duration": 0.2727271999999914
                },
                {
                    "name": "B1",
                    "midi": 35,
                    "time": 209.82948949999997,
                    "velocity": 0.5511811023622047,
                    "duration": 0.10227269999998612
                },
                {
                    "name": "A#1",
                    "midi": 34,
                    "time": 233.86925581666662,
                    "velocity": 0.6220472440944882,
                    "duration": 0.10227269999998612
                },
                {
                    "name": "A#1",
                    "midi": 34,
                    "time": 234.02834668333327,
                    "velocity": 0.5905511811023622,
                    "duration": 0.10227269999998612
                },
                {
                    "name": "G#1",
                    "midi": 32,
                    "time": 258.0737948166666,
                    "velocity": 0.5669291338582677,
                    "duration": 0.2727272000000198
                },
                {
                    "name": "B1",
                    "midi": 35,
                    "time": 259.0965218166666,
                    "velocity": 0.5511811023622047,
                    "duration": 0.2727272000000198
                },
                {
                    "name": "G#1",
                    "midi": 32,
                    "time": 266.24992899999995,
                    "velocity": 0.6062992125984252,
                    "duration": 0.2727272000000198
                },
                {
                    "name": "B1",
                    "midi": 35,
                    "time": 273.07379081666664,
                    "velocity": 0.7480314960629921,
                    "duration": 0.10227270000001454
                },
                {
                    "name": "A#1",
                    "midi": 34,
                    "time": 273.23288168333335,
                    "velocity": 0.7401574803149606,
                    "duration": 0.10227270000001454
                },
                {
                    "name": "A1",
                    "midi": 33,
                    "time": 273.409018,
                    "velocity": 0.7637795275590551,
                    "duration": 0.10227270000001454
                },
                {
                    "name": "G#1",
                    "midi": 32,
                    "time": 273.57379068333336,
                    "velocity": 0.7401574803149606,
                    "duration": 0.10227270000001454
                },
                {
                    "name": "G1",
                    "midi": 31,
                    "time": 273.7527679083334,
                    "velocity": 0.7401574803149606,
                    "duration": 0.10227270000001454
                },
                {
                    "name": "F#1",
                    "midi": 30,
                    "time": 273.91754059166675,
                    "velocity": 0.7401574803149606,
                    "duration": 0.10227270000001454
                },
                {
                    "name": "E1",
                    "midi": 28,
                    "time": 274.0965178166668,
                    "velocity": 0.7716535433070866,
                    "duration": 0.10227270000001454
                },
                {
                    "name": "D#1",
                    "midi": 27,
                    "time": 274.2556086833335,
                    "velocity": 0.7401574803149606,
                    "duration": 0.10227270000001454
                },
                {
                    "name": "G#1",
                    "midi": 32,
                    "time": 274.43742681666686,
                    "velocity": 0.7637795275590551,
                    "duration": 0.2727272000000198
                },
                {
                    "name": "G#1",
                    "midi": 32,
                    "time": 275.45447200000024,
                    "velocity": 0.7559055118110236,
                    "duration": 0.2727272000000198
                },
                {
                    "name": "G#1",
                    "midi": 32,
                    "time": 276.4715171833336,
                    "velocity": 0.7716535433070866,
                    "duration": 0.2727272000000198
                },
                {
                    "name": "G#1",
                    "midi": 32,
                    "time": 277.50560781666695,
                    "velocity": 0.7637795275590551,
                    "duration": 0.2727272000000198
                },
                {
                    "name": "G#1",
                    "midi": 32,
                    "time": 278.5169711833336,
                    "velocity": 0.7637795275590551,
                    "duration": 0.2727272000000198
                },
                {
                    "name": "G#1",
                    "midi": 32,
                    "time": 279.54822090833363,
                    "velocity": 0.7716535433070866,
                    "duration": 0.2727272000000198
                },
                {
                    "name": "G#1",
                    "midi": 32,
                    "time": 281.59367490833364,
                    "velocity": 0.7716535433070866,
                    "duration": 0.2727272000000198
                },
                {
                    "name": "G#1",
                    "midi": 32,
                    "time": 282.61356100000035,
                    "velocity": 0.7716535433070866,
                    "duration": 0.2727272000000198
                },
                {
                    "name": "G#1",
                    "midi": 32,
                    "time": 285.3436739083337,
                    "velocity": 0.7716535433070866,
                    "duration": 0.2727272000000198
                },
                {
                    "name": "G#1",
                    "midi": 32,
                    "time": 287.3806051833337,
                    "velocity": 0.7637795275590551,
                    "duration": 0.2727272000000198
                },
                {
                    "name": "G#1",
                    "midi": 32,
                    "time": 288.41469581666706,
                    "velocity": 0.7401574803149606,
                    "duration": 0.2727272000000198
                },
                {
                    "name": "G#1",
                    "midi": 32,
                    "time": 289.4374228166671,
                    "velocity": 0.7480314960629921,
                    "duration": 0.2727272000000198
                },
                {
                    "name": "G#1",
                    "midi": 32,
                    "time": 290.4516270916671,
                    "velocity": 0.7637795275590551,
                    "duration": 0.2727272000000198
                },
                {
                    "name": "G#1",
                    "midi": 32,
                    "time": 290.80105881666714,
                    "velocity": 0.7559055118110236,
                    "duration": 0.2727272000000198
                },
                {
                    "name": "G#1",
                    "midi": 32,
                    "time": 292.8408310000005,
                    "velocity": 0.7401574803149606,
                    "duration": 0.2727272000000198
                }
            ],
            "controlChanges": {
                "7": [
                    {
                        "number": 7,
                        "time": 0,
                        "value": 0.84251968503937
                    }
                ],
                "10": [
                    {
                        "number": 10,
                        "time": 0,
                        "value": 0.1889763779527559
                    },
                    {
                        "number": 10,
                        "time": 292.8408310000005,
                        "value": 0.5039370078740157
                    },
                    {
                        "number": 10,
                        "time": 296.5908300000005,
                        "value": 0.5039370078740157
                    }
                ],
                "91": [
                    {
                        "number": 91,
                        "time": 0,
                        "value": 0
                    },
                    {
                        "number": 91,
                        "time": 0,
                        "value": 0.25196850393700787
                    },
                    {
                        "number": 91,
                        "time": 294.8862850000005,
                        "value": 0
                    }
                ],
                "121": [
                    {
                        "number": 121,
                        "time": 0,
                        "value": 0
                    }
                ]
            },
            "id": 11,
            "instrumentNumber": 0,
            "instrument": "acoustic grand piano",
            "instrumentFamily": "piano",
            "channelNumber": 7,
            "isPercussion": false
        },
        {
            "startTime": 0,
            "duration": 0,
            "length": 0,
            "notes": [],
            "controlChanges": {},
            "id": 12,
            "name": "======================="
        },
        {
            "startTime": 0,
            "duration": 0,
            "length": 0,
            "notes": [],
            "controlChanges": {},
            "id": 13,
            "name": "jaenfield@worldnet.att.net"
        }
    ]
}