{
    "header": {
        "PPQ": 480,
        "timeSignature": [
            4,
            4
        ],
        "bpm": 61.7499948541671,
        "name": "Mendelssohn: Lieder ohne Worte Opus 30 Nr. 3"
    },
    "startTime": 0,
    "duration": 101.53846999999996,
    "tracks": [
        {
            "startTime": 0,
            "duration": 0,
            "length": 0,
            "notes": [],
            "controlChanges": {},
            "id": 0,
            "name": "Mendelssohn: Lieder ohne Worte Opus 30 Nr. 3"
        },
        {
            "startTime": 0.97166,
            "duration": 101.53846999999982,
            "length": 295,
            "notes": [
                {
                    "name": "B3",
                    "midi": 59,
                    "time": 0.97166,
                    "velocity": 0.3700787401574803,
                    "duration": 0.242915
                },
                {
                    "name": "E4",
                    "midi": 64,
                    "time": 1.214575,
                    "velocity": 0.31496062992125984,
                    "duration": 0.242915
                },
                {
                    "name": "G#4",
                    "midi": 68,
                    "time": 1.45749,
                    "velocity": 0.31496062992125984,
                    "duration": 0.242915
                },
                {
                    "name": "B4",
                    "midi": 71,
                    "time": 1.700405,
                    "velocity": 0.31496062992125984,
                    "duration": 0.242915
                },
                {
                    "name": "B4",
                    "midi": 71,
                    "time": 2.91498,
                    "velocity": 0.36220472440944884,
                    "duration": 0.242915
                },
                {
                    "name": "E5",
                    "midi": 76,
                    "time": 3.157895,
                    "velocity": 0.31496062992125984,
                    "duration": 0.242915
                },
                {
                    "name": "G#5",
                    "midi": 80,
                    "time": 3.40081,
                    "velocity": 0.31496062992125984,
                    "duration": 0.242915
                },
                {
                    "name": "B5",
                    "midi": 83,
                    "time": 3.643725,
                    "velocity": 0.31496062992125984,
                    "duration": 0.242915
                },
                {
                    "name": "B3",
                    "midi": 59,
                    "time": 3.88664,
                    "velocity": 0.3543307086614173,
                    "duration": 0.242915
                },
                {
                    "name": "G#4",
                    "midi": 68,
                    "time": 4.129555,
                    "velocity": 0.31496062992125984,
                    "duration": 0.242915
                },
                {
                    "name": "B4",
                    "midi": 71,
                    "time": 4.37247,
                    "velocity": 0.31496062992125984,
                    "duration": 0.242915
                },
                {
                    "name": "E5",
                    "midi": 76,
                    "time": 4.615385,
                    "velocity": 0.31496062992125984,
                    "duration": 0.242915
                },
                {
                    "name": "G#5",
                    "midi": 80,
                    "time": 4.8583,
                    "velocity": 0.3700787401574803,
                    "duration": 0.242915
                },
                {
                    "name": "B5",
                    "midi": 83,
                    "time": 5.101215,
                    "velocity": 0.3228346456692913,
                    "duration": 0.242915
                },
                {
                    "name": "E6",
                    "midi": 88,
                    "time": 5.34413,
                    "velocity": 0.33070866141732286,
                    "duration": 0.242915
                },
                {
                    "name": "G#6",
                    "midi": 92,
                    "time": 5.587045,
                    "velocity": 0.3543307086614173,
                    "duration": 0.242915
                },
                {
                    "name": "B6",
                    "midi": 95,
                    "time": 5.82996,
                    "velocity": 0.3700787401574803,
                    "duration": 0.48583
                },
                {
                    "name": "D#4",
                    "midi": 63,
                    "time": 6.80162,
                    "velocity": 0.2992125984251969,
                    "duration": 0.48583
                },
                {
                    "name": "B3",
                    "midi": 59,
                    "time": 6.80162,
                    "velocity": 0.25196850393700787,
                    "duration": 0.48583
                },
                {
                    "name": "A3",
                    "midi": 57,
                    "time": 6.80162,
                    "velocity": 0.25196850393700787,
                    "duration": 0.48583
                },
                {
                    "name": "G#3",
                    "midi": 56,
                    "time": 7.77328,
                    "velocity": 0.2677165354330709,
                    "duration": 0.48583
                },
                {
                    "name": "B3",
                    "midi": 59,
                    "time": 7.77328,
                    "velocity": 0.2677165354330709,
                    "duration": 0.48583
                },
                {
                    "name": "E4",
                    "midi": 64,
                    "time": 7.77328,
                    "velocity": 0.31496062992125984,
                    "duration": 0.48583
                },
                {
                    "name": "G#4",
                    "midi": 68,
                    "time": 9.7166,
                    "velocity": 0.4015748031496063,
                    "duration": 0.97166
                },
                {
                    "name": "B3",
                    "midi": 59,
                    "time": 9.7166,
                    "velocity": 0.33858267716535434,
                    "duration": 0.97166
                },
                {
                    "name": "E4",
                    "midi": 64,
                    "time": 9.7166,
                    "velocity": 0.33858267716535434,
                    "duration": 0.97166
                },
                {
                    "name": "F#4",
                    "midi": 66,
                    "time": 10.68826,
                    "velocity": 0.3700787401574803,
                    "duration": 0.728745
                },
                {
                    "name": "E4",
                    "midi": 64,
                    "time": 11.417005,
                    "velocity": 0.33070866141732286,
                    "duration": 0.22267208333333244
                },
                {
                    "name": "E4",
                    "midi": 64,
                    "time": 11.65992,
                    "velocity": 0.33070866141732286,
                    "duration": 1.94332
                },
                {
                    "name": "B4",
                    "midi": 71,
                    "time": 11.65992,
                    "velocity": 0.3937007874015748,
                    "duration": 0.48583
                },
                {
                    "name": "A4",
                    "midi": 69,
                    "time": 12.14575,
                    "velocity": 0.31496062992125984,
                    "duration": 0.97166
                },
                {
                    "name": "G#4",
                    "midi": 68,
                    "time": 13.11741,
                    "velocity": 0.31496062992125984,
                    "duration": 0.4372469999999993
                },
                {
                    "name": "F#4",
                    "midi": 66,
                    "time": 13.60324,
                    "velocity": 0.33858267716535434,
                    "duration": 0.4372469999999993
                },
                {
                    "name": "A#3",
                    "midi": 58,
                    "time": 13.60324,
                    "velocity": 0.28346456692913385,
                    "duration": 1.94332
                },
                {
                    "name": "E4",
                    "midi": 64,
                    "time": 14.08907,
                    "velocity": 0.31496062992125984,
                    "duration": 0.4372469999999993
                },
                {
                    "name": "D#4",
                    "midi": 63,
                    "time": 14.5749,
                    "velocity": 0.31496062992125984,
                    "duration": 0.4372469999999993
                },
                {
                    "name": "E4",
                    "midi": 64,
                    "time": 15.06073,
                    "velocity": 0.31496062992125984,
                    "duration": 0.4372469999999993
                },
                {
                    "name": "G#4",
                    "midi": 68,
                    "time": 15.54656,
                    "velocity": 0.3543307086614173,
                    "duration": 0.97166
                },
                {
                    "name": "B3",
                    "midi": 59,
                    "time": 15.54656,
                    "velocity": 0.2992125984251969,
                    "duration": 1.45749
                },
                {
                    "name": "F#4",
                    "midi": 66,
                    "time": 16.51822,
                    "velocity": 0.2992125984251969,
                    "duration": 0.48583
                },
                {
                    "name": "F#4",
                    "midi": 66,
                    "time": 17.48988,
                    "velocity": 0.47244094488188976,
                    "duration": 0.97166
                },
                {
                    "name": "D4",
                    "midi": 62,
                    "time": 17.48988,
                    "velocity": 0.3937007874015748,
                    "duration": 0.97166
                },
                {
                    "name": "B3",
                    "midi": 59,
                    "time": 17.48988,
                    "velocity": 0.3937007874015748,
                    "duration": 0.97166
                },
                {
                    "name": "F#4",
                    "midi": 66,
                    "time": 18.46154,
                    "velocity": 0.5590551181102362,
                    "duration": 0.728745
                },
                {
                    "name": "C#4",
                    "midi": 61,
                    "time": 18.46154,
                    "velocity": 0.4409448818897638,
                    "duration": 0.728745
                },
                {
                    "name": "B3",
                    "midi": 59,
                    "time": 19.190285,
                    "velocity": 0.4409448818897638,
                    "duration": 0.242915
                },
                {
                    "name": "F4",
                    "midi": 65,
                    "time": 19.190285,
                    "velocity": 0.4409448818897638,
                    "duration": 0.242915
                },
                {
                    "name": "G#4",
                    "midi": 68,
                    "time": 19.190285,
                    "velocity": 0.5275590551181102,
                    "duration": 0.242915
                },
                {
                    "name": "A3",
                    "midi": 57,
                    "time": 19.4332,
                    "velocity": 0.44881889763779526,
                    "duration": 1.45749
                },
                {
                    "name": "F#4",
                    "midi": 66,
                    "time": 19.4332,
                    "velocity": 0.44881889763779526,
                    "duration": 1.45749
                },
                {
                    "name": "A4",
                    "midi": 69,
                    "time": 19.4332,
                    "velocity": 0.5354330708661418,
                    "duration": 1.45749
                },
                {
                    "name": "F#4",
                    "midi": 66,
                    "time": 20.89069,
                    "velocity": 0.33070866141732286,
                    "duration": 0.48583
                },
                {
                    "name": "C#4",
                    "midi": 61,
                    "time": 21.37652,
                    "velocity": 0.3543307086614173,
                    "duration": 0.48583
                },
                {
                    "name": "A3",
                    "midi": 57,
                    "time": 21.37652,
                    "velocity": 0.2992125984251969,
                    "duration": 1.94332
                },
                {
                    "name": "D#4",
                    "midi": 63,
                    "time": 21.86235,
                    "velocity": 0.29133858267716534,
                    "duration": 0.48583
                },
                {
                    "name": "G#4",
                    "midi": 68,
                    "time": 22.34818,
                    "velocity": 0.3543307086614173,
                    "duration": 0.728745
                },
                {
                    "name": "F#4",
                    "midi": 66,
                    "time": 23.076925,
                    "velocity": 0.3228346456692913,
                    "duration": 0.242915
                },
                {
                    "name": "E4",
                    "midi": 64,
                    "time": 23.31984,
                    "velocity": 0.3228346456692913,
                    "duration": 0.97166
                },
                {
                    "name": "G#3",
                    "midi": 56,
                    "time": 23.31984,
                    "velocity": 0.2677165354330709,
                    "duration": 0.97166
                },
                {
                    "name": "G#4",
                    "midi": 68,
                    "time": 25.26316,
                    "velocity": 0.4015748031496063,
                    "duration": 0.97166
                },
                {
                    "name": "B3",
                    "midi": 59,
                    "time": 25.26316,
                    "velocity": 0.33858267716535434,
                    "duration": 0.97166
                },
                {
                    "name": "E4",
                    "midi": 64,
                    "time": 25.26316,
                    "velocity": 0.33858267716535434,
                    "duration": 0.97166
                },
                {
                    "name": "F#4",
                    "midi": 66,
                    "time": 26.23482,
                    "velocity": 0.3700787401574803,
                    "duration": 0.728745
                },
                {
                    "name": "E4",
                    "midi": 64,
                    "time": 26.963565,
                    "velocity": 0.33070866141732286,
                    "duration": 0.22267208333333244
                },
                {
                    "name": "E4",
                    "midi": 64,
                    "time": 27.20648,
                    "velocity": 0.3937007874015748,
                    "duration": 2.91498
                },
                {
                    "name": "E5",
                    "midi": 76,
                    "time": 27.20648,
                    "velocity": 0.5275590551181102,
                    "duration": 1.45749
                },
                {
                    "name": "D#5",
                    "midi": 75,
                    "time": 28.66397,
                    "velocity": 0.4330708661417323,
                    "duration": 0.4372469999999993
                },
                {
                    "name": "C#5",
                    "midi": 73,
                    "time": 29.1498,
                    "velocity": 0.4566929133858268,
                    "duration": 0.4372469999999993
                },
                {
                    "name": "B4",
                    "midi": 71,
                    "time": 29.63563,
                    "velocity": 0.4330708661417323,
                    "duration": 0.4372469999999993
                },
                {
                    "name": "F4",
                    "midi": 65,
                    "time": 30.12146,
                    "velocity": 0.3858267716535433,
                    "duration": 1.94332
                },
                {
                    "name": "A4",
                    "midi": 69,
                    "time": 30.12146,
                    "velocity": 0.4330708661417323,
                    "duration": 0.4372469999999993
                },
                {
                    "name": "G#4",
                    "midi": 68,
                    "time": 30.60729,
                    "velocity": 0.4330708661417323,
                    "duration": 0.4372469999999993
                },
                {
                    "name": "C#5",
                    "midi": 73,
                    "time": 31.09312,
                    "velocity": 0.4881889763779528,
                    "duration": 0.97166
                },
                {
                    "name": "F#4",
                    "midi": 66,
                    "time": 32.06478,
                    "velocity": 0.2992125984251969,
                    "duration": 0.48583
                },
                {
                    "name": "F#4",
                    "midi": 66,
                    "time": 33.03644,
                    "velocity": 0.3779527559055118,
                    "duration": 0.97166
                },
                {
                    "name": "D4",
                    "midi": 62,
                    "time": 33.03644,
                    "velocity": 0.31496062992125984,
                    "duration": 0.97166
                },
                {
                    "name": "B3",
                    "midi": 59,
                    "time": 33.03644,
                    "velocity": 0.31496062992125984,
                    "duration": 0.97166
                },
                {
                    "name": "F#4",
                    "midi": 66,
                    "time": 34.0081,
                    "velocity": 0.4409448818897638,
                    "duration": 0.7287450000000035
                },
                {
                    "name": "C#4",
                    "midi": 61,
                    "time": 34.0081,
                    "velocity": 0.3464566929133858,
                    "duration": 0.7287450000000035
                },
                {
                    "name": "B3",
                    "midi": 59,
                    "time": 34.736845,
                    "velocity": 0.3464566929133858,
                    "duration": 0.24291499999999644
                },
                {
                    "name": "F4",
                    "midi": 65,
                    "time": 34.736845,
                    "velocity": 0.3464566929133858,
                    "duration": 0.24291499999999644
                },
                {
                    "name": "G#4",
                    "midi": 68,
                    "time": 34.736845,
                    "velocity": 0.41732283464566927,
                    "duration": 0.24291499999999644
                },
                {
                    "name": "A3",
                    "midi": 57,
                    "time": 34.97976,
                    "velocity": 0.3543307086614173,
                    "duration": 1.45749
                },
                {
                    "name": "F#4",
                    "midi": 66,
                    "time": 34.97976,
                    "velocity": 0.3543307086614173,
                    "duration": 1.45749
                },
                {
                    "name": "A4",
                    "midi": 69,
                    "time": 34.97976,
                    "velocity": 0.4251968503937008,
                    "duration": 1.45749
                },
                {
                    "name": "F#4",
                    "midi": 66,
                    "time": 36.43725,
                    "velocity": 0.33070866141732286,
                    "duration": 0.48583
                },
                {
                    "name": "C#4",
                    "midi": 61,
                    "time": 36.92308,
                    "velocity": 0.3543307086614173,
                    "duration": 0.48583
                },
                {
                    "name": "A3",
                    "midi": 57,
                    "time": 36.92308,
                    "velocity": 0.2992125984251969,
                    "duration": 1.94332
                },
                {
                    "name": "D#4",
                    "midi": 63,
                    "time": 37.40891,
                    "velocity": 0.29133858267716534,
                    "duration": 0.48583
                },
                {
                    "name": "G#4",
                    "midi": 68,
                    "time": 37.89474,
                    "velocity": 0.3543307086614173,
                    "duration": 0.7287450000000035
                },
                {
                    "name": "F#4",
                    "midi": 66,
                    "time": 38.623485,
                    "velocity": 0.3228346456692913,
                    "duration": 0.24291499999999644
                },
                {
                    "name": "E4",
                    "midi": 64,
                    "time": 38.8664,
                    "velocity": 0.3228346456692913,
                    "duration": 1.45749
                },
                {
                    "name": "G#3",
                    "midi": 56,
                    "time": 38.8664,
                    "velocity": 0.2677165354330709,
                    "duration": 1.45749
                },
                {
                    "name": "B3",
                    "midi": 59,
                    "time": 40.80972,
                    "velocity": 0.47244094488188976,
                    "duration": 0.97166
                },
                {
                    "name": "G#3",
                    "midi": 56,
                    "time": 40.80972,
                    "velocity": 0.3937007874015748,
                    "duration": 0.97166
                },
                {
                    "name": "F#3",
                    "midi": 54,
                    "time": 41.78138,
                    "velocity": 0.4409448818897638,
                    "duration": 0.7287450000000035
                },
                {
                    "name": "C#4",
                    "midi": 61,
                    "time": 41.78138,
                    "velocity": 0.5590551181102362,
                    "duration": 0.7287450000000035
                },
                {
                    "name": "A#3",
                    "midi": 58,
                    "time": 41.78138,
                    "velocity": 0.4409448818897638,
                    "duration": 0.7287450000000035
                },
                {
                    "name": "C4",
                    "midi": 60,
                    "time": 42.510125,
                    "velocity": 0.4409448818897638,
                    "duration": 0.24291499999999644
                },
                {
                    "name": "D#4",
                    "midi": 63,
                    "time": 42.510125,
                    "velocity": 0.5275590551181102,
                    "duration": 0.24291499999999644
                },
                {
                    "name": "E4",
                    "midi": 64,
                    "time": 42.75304,
                    "velocity": 0.5748031496062992,
                    "duration": 1.45749
                },
                {
                    "name": "C#4",
                    "midi": 61,
                    "time": 42.75304,
                    "velocity": 0.4881889763779528,
                    "duration": 1.45749
                },
                {
                    "name": "G#3",
                    "midi": 56,
                    "time": 42.75304,
                    "velocity": 0.4881889763779528,
                    "duration": 1.45749
                },
                {
                    "name": "G#4",
                    "midi": 68,
                    "time": 44.21053,
                    "velocity": 0.4881889763779528,
                    "duration": 0.4372469999999993
                },
                {
                    "name": "E4",
                    "midi": 64,
                    "time": 44.21053,
                    "velocity": 0.4094488188976378,
                    "duration": 0.4372469999999993
                },
                {
                    "name": "C#4",
                    "midi": 61,
                    "time": 44.21053,
                    "velocity": 0.4094488188976378,
                    "duration": 0.4372469999999993
                },
                {
                    "name": "F#4",
                    "midi": 66,
                    "time": 44.69636,
                    "velocity": 0.4645669291338583,
                    "duration": 0.4372469999999993
                },
                {
                    "name": "E4",
                    "midi": 64,
                    "time": 44.69636,
                    "velocity": 0.4645669291338583,
                    "duration": 0.4372469999999993
                },
                {
                    "name": "C#4",
                    "midi": 61,
                    "time": 44.69636,
                    "velocity": 0.4645669291338583,
                    "duration": 0.4372469999999993
                },
                {
                    "name": "A#4",
                    "midi": 70,
                    "time": 45.18219,
                    "velocity": 0.5039370078740157,
                    "duration": 0.4372469999999993
                },
                {
                    "name": "E4",
                    "midi": 64,
                    "time": 45.18219,
                    "velocity": 0.4251968503937008,
                    "duration": 0.4372469999999993
                },
                {
                    "name": "C#4",
                    "midi": 61,
                    "time": 45.18219,
                    "velocity": 0.4251968503937008,
                    "duration": 0.4372469999999993
                },
                {
                    "name": "C#5",
                    "midi": 73,
                    "time": 45.66802,
                    "velocity": 0.5748031496062992,
                    "duration": 0.6923077499999977
                },
                {
                    "name": "E4",
                    "midi": 64,
                    "time": 45.66802,
                    "velocity": 0.4881889763779528,
                    "duration": 0.6923077499999977
                },
                {
                    "name": "C#4",
                    "midi": 61,
                    "time": 45.66802,
                    "velocity": 0.4881889763779528,
                    "duration": 0.6923077499999977
                },
                {
                    "name": "C#4",
                    "midi": 61,
                    "time": 46.396764999999995,
                    "velocity": 0.4330708661417323,
                    "duration": 0.21862349999999964
                },
                {
                    "name": "E4",
                    "midi": 64,
                    "time": 46.396764999999995,
                    "velocity": 0.4330708661417323,
                    "duration": 0.21862349999999964
                },
                {
                    "name": "B4",
                    "midi": 71,
                    "time": 46.396764999999995,
                    "velocity": 0.5118110236220472,
                    "duration": 0.21862349999999964
                },
                {
                    "name": "C#4",
                    "midi": 61,
                    "time": 46.63967999999999,
                    "velocity": 0.47244094488188976,
                    "duration": 0.97166
                },
                {
                    "name": "B4",
                    "midi": 71,
                    "time": 46.63967999999999,
                    "velocity": 0.5905511811023622,
                    "duration": 0.97166
                },
                {
                    "name": "E4",
                    "midi": 64,
                    "time": 46.63967999999999,
                    "velocity": 0.47244094488188976,
                    "duration": 0.97166
                },
                {
                    "name": "A#4",
                    "midi": 70,
                    "time": 47.61133999999999,
                    "velocity": 0.5354330708661418,
                    "duration": 0.48583
                },
                {
                    "name": "B4",
                    "midi": 71,
                    "time": 48.58299999999999,
                    "velocity": 0.6220472440944882,
                    "duration": 0.97166
                },
                {
                    "name": "E5",
                    "midi": 76,
                    "time": 48.58299999999999,
                    "velocity": 0.6220472440944882,
                    "duration": 0.97166
                },
                {
                    "name": "G#4",
                    "midi": 68,
                    "time": 48.58299999999999,
                    "velocity": 0.5275590551181102,
                    "duration": 0.97166
                },
                {
                    "name": "A#4",
                    "midi": 70,
                    "time": 49.55465999999999,
                    "velocity": 0.5118110236220472,
                    "duration": 0.7287449999999964
                },
                {
                    "name": "D#5",
                    "midi": 75,
                    "time": 49.55465999999999,
                    "velocity": 0.6062992125984252,
                    "duration": 0.7287449999999964
                },
                {
                    "name": "F#4",
                    "midi": 66,
                    "time": 49.55465999999999,
                    "velocity": 0.5118110236220472,
                    "duration": 0.7287449999999964
                },
                {
                    "name": "C#5",
                    "midi": 73,
                    "time": 50.28340499999999,
                    "velocity": 0.49606299212598426,
                    "duration": 0.24291499999999644
                },
                {
                    "name": "E4",
                    "midi": 64,
                    "time": 50.28340499999999,
                    "velocity": 0.41732283464566927,
                    "duration": 0.24291499999999644
                },
                {
                    "name": "D#4",
                    "midi": 63,
                    "time": 50.526319999999984,
                    "velocity": 0.5118110236220472,
                    "duration": 0.97166
                },
                {
                    "name": "F#4",
                    "midi": 66,
                    "time": 50.526319999999984,
                    "velocity": 0.5118110236220472,
                    "duration": 0.97166
                },
                {
                    "name": "B4",
                    "midi": 71,
                    "time": 50.526319999999984,
                    "velocity": 0.6062992125984252,
                    "duration": 0.97166
                },
                {
                    "name": "C#4",
                    "midi": 61,
                    "time": 51.497979999999984,
                    "velocity": 0.4094488188976378,
                    "duration": 0.7287450000000035
                },
                {
                    "name": "A#4",
                    "midi": 70,
                    "time": 51.497979999999984,
                    "velocity": 0.4881889763779528,
                    "duration": 0.7287450000000035
                },
                {
                    "name": "E4",
                    "midi": 64,
                    "time": 51.497979999999984,
                    "velocity": 0.4094488188976378,
                    "duration": 0.7287450000000035
                },
                {
                    "name": "B3",
                    "midi": 59,
                    "time": 52.22672499999999,
                    "velocity": 0.3464566929133858,
                    "duration": 0.24291499999999644
                },
                {
                    "name": "D#4",
                    "midi": 63,
                    "time": 52.22672499999999,
                    "velocity": 0.3464566929133858,
                    "duration": 0.24291499999999644
                },
                {
                    "name": "G#4",
                    "midi": 68,
                    "time": 52.22672499999999,
                    "velocity": 0.4094488188976378,
                    "duration": 0.24291499999999644
                },
                {
                    "name": "A#3",
                    "midi": 58,
                    "time": 52.469639999999984,
                    "velocity": 0.4566929133858268,
                    "duration": 0.48583
                },
                {
                    "name": "E4",
                    "midi": 64,
                    "time": 52.469639999999984,
                    "velocity": 0.4566929133858268,
                    "duration": 0.48583
                },
                {
                    "name": "F#4",
                    "midi": 66,
                    "time": 52.469639999999984,
                    "velocity": 0.5433070866141733,
                    "duration": 0.48583
                },
                {
                    "name": "C#4",
                    "midi": 61,
                    "time": 52.955469999999984,
                    "velocity": 0.3779527559055118,
                    "duration": 0.48583
                },
                {
                    "name": "E4",
                    "midi": 64,
                    "time": 52.955469999999984,
                    "velocity": 0.44881889763779526,
                    "duration": 0.48583
                },
                {
                    "name": "A#3",
                    "midi": 58,
                    "time": 53.441299999999984,
                    "velocity": 0.4409448818897638,
                    "duration": 0.48583
                },
                {
                    "name": "E4",
                    "midi": 64,
                    "time": 53.441299999999984,
                    "velocity": 0.4409448818897638,
                    "duration": 0.48583
                },
                {
                    "name": "G#4",
                    "midi": 68,
                    "time": 53.441299999999984,
                    "velocity": 0.5196850393700787,
                    "duration": 0.48583
                },
                {
                    "name": "E4",
                    "midi": 64,
                    "time": 53.927129999999984,
                    "velocity": 0.4409448818897638,
                    "duration": 0.48583
                },
                {
                    "name": "C#4",
                    "midi": 61,
                    "time": 53.927129999999984,
                    "velocity": 0.3700787401574803,
                    "duration": 0.48583
                },
                {
                    "name": "B3",
                    "midi": 59,
                    "time": 54.412959999999984,
                    "velocity": 0.4251968503937008,
                    "duration": 0.4372469999999993
                },
                {
                    "name": "D#4",
                    "midi": 63,
                    "time": 54.412959999999984,
                    "velocity": 0.5039370078740157,
                    "duration": 0.4372469999999993
                },
                {
                    "name": "D#4",
                    "midi": 63,
                    "time": 54.898789999999984,
                    "velocity": 0.30708661417322836,
                    "duration": 0.48583
                },
                {
                    "name": "B3",
                    "midi": 59,
                    "time": 54.898789999999984,
                    "velocity": 0.30708661417322836,
                    "duration": 0.48583
                },
                {
                    "name": "F#4",
                    "midi": 66,
                    "time": 54.898789999999984,
                    "velocity": 0.3700787401574803,
                    "duration": 0.97166
                },
                {
                    "name": "C#4",
                    "midi": 61,
                    "time": 55.384619999999984,
                    "velocity": 0.30708661417322836,
                    "duration": 0.48583
                },
                {
                    "name": "A#3",
                    "midi": 58,
                    "time": 55.384619999999984,
                    "velocity": 0.30708661417322836,
                    "duration": 0.48583
                },
                {
                    "name": "B3",
                    "midi": 59,
                    "time": 55.870449999999984,
                    "velocity": 0.30708661417322836,
                    "duration": 0.4372469999999993
                },
                {
                    "name": "G#3",
                    "midi": 56,
                    "time": 55.870449999999984,
                    "velocity": 0.30708661417322836,
                    "duration": 0.4372469999999993
                },
                {
                    "name": "E4",
                    "midi": 64,
                    "time": 55.870449999999984,
                    "velocity": 0.3700787401574803,
                    "duration": 0.4372469999999993
                },
                {
                    "name": "F#3",
                    "midi": 54,
                    "time": 56.356279999999984,
                    "velocity": 0.30708661417322836,
                    "duration": 0.97166
                },
                {
                    "name": "B3",
                    "midi": 59,
                    "time": 56.356279999999984,
                    "velocity": 0.30708661417322836,
                    "duration": 0.97166
                },
                {
                    "name": "D#4",
                    "midi": 63,
                    "time": 56.356279999999984,
                    "velocity": 0.4015748031496063,
                    "duration": 0.4372469999999993
                },
                {
                    "name": "E4",
                    "midi": 64,
                    "time": 56.842109999999984,
                    "velocity": 0.3700787401574803,
                    "duration": 0.4372469999999993
                },
                {
                    "name": "F#3",
                    "midi": 54,
                    "time": 57.327939999999984,
                    "velocity": 0.30708661417322836,
                    "duration": 0.97166
                },
                {
                    "name": "A#3",
                    "midi": 58,
                    "time": 57.327939999999984,
                    "velocity": 0.30708661417322836,
                    "duration": 0.97166
                },
                {
                    "name": "D#4",
                    "midi": 63,
                    "time": 57.327939999999984,
                    "velocity": 0.4094488188976378,
                    "duration": 0.7287450000000035
                },
                {
                    "name": "C#4",
                    "midi": 61,
                    "time": 58.05668499999999,
                    "velocity": 0.33070866141732286,
                    "duration": 0.24291499999999644
                },
                {
                    "name": "F#3",
                    "midi": 54,
                    "time": 58.299599999999984,
                    "velocity": 0.33858267716535434,
                    "duration": 0.4372469999999993
                },
                {
                    "name": "B3",
                    "midi": 59,
                    "time": 58.299599999999984,
                    "velocity": 0.3858267716535433,
                    "duration": 0.4372469999999993
                },
                {
                    "name": "D#4",
                    "midi": 63,
                    "time": 58.785429999999984,
                    "velocity": 0.30708661417322836,
                    "duration": 0.48583
                },
                {
                    "name": "B3",
                    "midi": 59,
                    "time": 58.785429999999984,
                    "velocity": 0.30708661417322836,
                    "duration": 0.48583
                },
                {
                    "name": "F#4",
                    "midi": 66,
                    "time": 58.785429999999984,
                    "velocity": 0.3700787401574803,
                    "duration": 0.97166
                },
                {
                    "name": "C#4",
                    "midi": 61,
                    "time": 59.271259999999984,
                    "velocity": 0.30708661417322836,
                    "duration": 0.48583
                },
                {
                    "name": "A#3",
                    "midi": 58,
                    "time": 59.271259999999984,
                    "velocity": 0.30708661417322836,
                    "duration": 0.48583
                },
                {
                    "name": "B3",
                    "midi": 59,
                    "time": 59.757089999999984,
                    "velocity": 0.30708661417322836,
                    "duration": 0.4372469999999993
                },
                {
                    "name": "G#3",
                    "midi": 56,
                    "time": 59.757089999999984,
                    "velocity": 0.30708661417322836,
                    "duration": 0.4372469999999993
                },
                {
                    "name": "E4",
                    "midi": 64,
                    "time": 59.757089999999984,
                    "velocity": 0.3700787401574803,
                    "duration": 0.4372469999999993
                },
                {
                    "name": "F#3",
                    "midi": 54,
                    "time": 60.242919999999984,
                    "velocity": 0.30708661417322836,
                    "duration": 0.97166
                },
                {
                    "name": "B3",
                    "midi": 59,
                    "time": 60.242919999999984,
                    "velocity": 0.30708661417322836,
                    "duration": 0.97166
                },
                {
                    "name": "D#4",
                    "midi": 63,
                    "time": 60.242919999999984,
                    "velocity": 0.4015748031496063,
                    "duration": 0.4372469999999993
                },
                {
                    "name": "E4",
                    "midi": 64,
                    "time": 60.728749999999984,
                    "velocity": 0.3700787401574803,
                    "duration": 0.4372469999999993
                },
                {
                    "name": "F#3",
                    "midi": 54,
                    "time": 61.214579999999984,
                    "velocity": 0.30708661417322836,
                    "duration": 0.97166
                },
                {
                    "name": "A#3",
                    "midi": 58,
                    "time": 61.214579999999984,
                    "velocity": 0.30708661417322836,
                    "duration": 0.97166
                },
                {
                    "name": "D#4",
                    "midi": 63,
                    "time": 61.214579999999984,
                    "velocity": 0.4094488188976378,
                    "duration": 0.7287450000000035
                },
                {
                    "name": "C#4",
                    "midi": 61,
                    "time": 61.94332499999999,
                    "velocity": 0.33070866141732286,
                    "duration": 0.24291499999999644
                },
                {
                    "name": "B3",
                    "midi": 59,
                    "time": 62.186239999999984,
                    "velocity": 0.3858267716535433,
                    "duration": 0.4372469999999993
                },
                {
                    "name": "B4",
                    "midi": 71,
                    "time": 62.672069999999984,
                    "velocity": 0.4330708661417323,
                    "duration": 0.97166
                },
                {
                    "name": "D#4",
                    "midi": 63,
                    "time": 62.672069999999984,
                    "velocity": 0.36220472440944884,
                    "duration": 0.48583
                },
                {
                    "name": "F#4",
                    "midi": 66,
                    "time": 62.672069999999984,
                    "velocity": 0.36220472440944884,
                    "duration": 0.48583
                },
                {
                    "name": "E4",
                    "midi": 64,
                    "time": 63.157899999999984,
                    "velocity": 0.4881889763779528,
                    "duration": 0.48583
                },
                {
                    "name": "A4",
                    "midi": 69,
                    "time": 63.643729999999984,
                    "velocity": 0.48031496062992124,
                    "duration": 0.4372470000000064
                },
                {
                    "name": "F#4",
                    "midi": 66,
                    "time": 63.643729999999984,
                    "velocity": 0.4015748031496063,
                    "duration": 0.4372470000000064
                },
                {
                    "name": "G#4",
                    "midi": 68,
                    "time": 64.12955999999998,
                    "velocity": 0.4015748031496063,
                    "duration": 0.97166
                },
                {
                    "name": "B3",
                    "midi": 59,
                    "time": 64.12955999999998,
                    "velocity": 0.33858267716535434,
                    "duration": 0.97166
                },
                {
                    "name": "E4",
                    "midi": 64,
                    "time": 64.12955999999998,
                    "velocity": 0.33858267716535434,
                    "duration": 0.97166
                },
                {
                    "name": "F#4",
                    "midi": 66,
                    "time": 65.10121999999998,
                    "velocity": 0.3937007874015748,
                    "duration": 0.7287450000000035
                },
                {
                    "name": "E4",
                    "midi": 64,
                    "time": 65.82996499999999,
                    "velocity": 0.33070866141732286,
                    "duration": 0.222672083333336
                },
                {
                    "name": "E4",
                    "midi": 64,
                    "time": 66.07287999999998,
                    "velocity": 0.33070866141732286,
                    "duration": 1.94332
                },
                {
                    "name": "B4",
                    "midi": 71,
                    "time": 66.07287999999998,
                    "velocity": 0.3937007874015748,
                    "duration": 0.4858300000000071
                },
                {
                    "name": "A4",
                    "midi": 69,
                    "time": 66.55870999999999,
                    "velocity": 0.31496062992125984,
                    "duration": 0.97166
                },
                {
                    "name": "G#4",
                    "midi": 68,
                    "time": 67.53036999999999,
                    "velocity": 0.31496062992125984,
                    "duration": 0.4372469999999993
                },
                {
                    "name": "F#4",
                    "midi": 66,
                    "time": 68.01619999999998,
                    "velocity": 0.33858267716535434,
                    "duration": 0.4372469999999993
                },
                {
                    "name": "A#3",
                    "midi": 58,
                    "time": 68.01619999999998,
                    "velocity": 0.28346456692913385,
                    "duration": 1.9433199999999715
                },
                {
                    "name": "E4",
                    "midi": 64,
                    "time": 68.50202999999998,
                    "velocity": 0.31496062992125984,
                    "duration": 0.4372469999999993
                },
                {
                    "name": "D#4",
                    "midi": 63,
                    "time": 68.98785999999997,
                    "velocity": 0.31496062992125984,
                    "duration": 0.4372469999999993
                },
                {
                    "name": "E4",
                    "midi": 64,
                    "time": 69.47368999999996,
                    "velocity": 0.31496062992125984,
                    "duration": 0.4372469999999993
                },
                {
                    "name": "G#4",
                    "midi": 68,
                    "time": 69.95951999999996,
                    "velocity": 0.3543307086614173,
                    "duration": 0.97166
                },
                {
                    "name": "B3",
                    "midi": 59,
                    "time": 69.95951999999996,
                    "velocity": 0.2992125984251969,
                    "duration": 1.4574899999999928
                },
                {
                    "name": "F#4",
                    "midi": 66,
                    "time": 70.93117999999996,
                    "velocity": 0.2992125984251969,
                    "duration": 0.4858299999999929
                },
                {
                    "name": "F#4",
                    "midi": 66,
                    "time": 71.90283999999994,
                    "velocity": 0.47244094488188976,
                    "duration": 0.97166
                },
                {
                    "name": "D4",
                    "midi": 62,
                    "time": 71.90283999999994,
                    "velocity": 0.3937007874015748,
                    "duration": 0.97166
                },
                {
                    "name": "B3",
                    "midi": 59,
                    "time": 71.90283999999994,
                    "velocity": 0.3937007874015748,
                    "duration": 0.97166
                },
                {
                    "name": "F#4",
                    "midi": 66,
                    "time": 72.87449999999994,
                    "velocity": 0.5590551181102362,
                    "duration": 0.7287450000000035
                },
                {
                    "name": "C#4",
                    "midi": 61,
                    "time": 72.87449999999994,
                    "velocity": 0.4409448818897638,
                    "duration": 0.7287450000000035
                },
                {
                    "name": "B3",
                    "midi": 59,
                    "time": 73.60324499999994,
                    "velocity": 0.4409448818897638,
                    "duration": 0.24291499999999644
                },
                {
                    "name": "F4",
                    "midi": 65,
                    "time": 73.60324499999994,
                    "velocity": 0.4409448818897638,
                    "duration": 0.24291499999999644
                },
                {
                    "name": "G#4",
                    "midi": 68,
                    "time": 73.60324499999994,
                    "velocity": 0.5275590551181102,
                    "duration": 0.24291499999999644
                },
                {
                    "name": "A3",
                    "midi": 57,
                    "time": 73.84615999999994,
                    "velocity": 0.44881889763779526,
                    "duration": 1.457490000000007
                },
                {
                    "name": "F#4",
                    "midi": 66,
                    "time": 73.84615999999994,
                    "velocity": 0.44881889763779526,
                    "duration": 1.4493928333333344
                },
                {
                    "name": "A4",
                    "midi": 69,
                    "time": 73.84615999999994,
                    "velocity": 0.5354330708661418,
                    "duration": 1.457490000000007
                },
                {
                    "name": "F#4",
                    "midi": 66,
                    "time": 75.30364999999995,
                    "velocity": 0.33070866141732286,
                    "duration": 0.4858299999999929
                },
                {
                    "name": "C#4",
                    "midi": 61,
                    "time": 75.78947999999994,
                    "velocity": 0.3543307086614173,
                    "duration": 0.4858299999999929
                },
                {
                    "name": "A3",
                    "midi": 57,
                    "time": 75.78947999999994,
                    "velocity": 0.2992125984251969,
                    "duration": 1.9433199999999857
                },
                {
                    "name": "D#4",
                    "midi": 63,
                    "time": 76.27530999999993,
                    "velocity": 0.29133858267716534,
                    "duration": 0.4858299999999929
                },
                {
                    "name": "G#4",
                    "midi": 68,
                    "time": 76.76113999999993,
                    "velocity": 0.3543307086614173,
                    "duration": 0.7287450000000035
                },
                {
                    "name": "F#4",
                    "midi": 66,
                    "time": 77.48988499999993,
                    "velocity": 0.3228346456692913,
                    "duration": 0.24291499999999644
                },
                {
                    "name": "E4",
                    "midi": 64,
                    "time": 77.73279999999993,
                    "velocity": 0.3228346456692913,
                    "duration": 0.97166
                },
                {
                    "name": "G#3",
                    "midi": 56,
                    "time": 77.73279999999993,
                    "velocity": 0.2677165354330709,
                    "duration": 0.97166
                },
                {
                    "name": "G#4",
                    "midi": 68,
                    "time": 79.67611999999993,
                    "velocity": 0.5433070866141733,
                    "duration": 0.97166
                },
                {
                    "name": "B4",
                    "midi": 71,
                    "time": 79.67611999999993,
                    "velocity": 0.5433070866141733,
                    "duration": 0.97166
                },
                {
                    "name": "E4",
                    "midi": 64,
                    "time": 79.67611999999993,
                    "velocity": 0.4566929133858268,
                    "duration": 0.97166
                },
                {
                    "name": "F#4",
                    "midi": 66,
                    "time": 80.64777999999993,
                    "velocity": 0.5511811023622047,
                    "duration": 0.7287450000000035
                },
                {
                    "name": "B4",
                    "midi": 71,
                    "time": 80.64777999999993,
                    "velocity": 0.6535433070866141,
                    "duration": 0.7287450000000035
                },
                {
                    "name": "C#5",
                    "midi": 73,
                    "time": 81.37652499999993,
                    "velocity": 0.5826771653543307,
                    "duration": 0.24291499999999644
                },
                {
                    "name": "A#4",
                    "midi": 70,
                    "time": 81.37652499999993,
                    "velocity": 0.4881889763779528,
                    "duration": 0.24291499999999644
                },
                {
                    "name": "G4",
                    "midi": 67,
                    "time": 81.37652499999993,
                    "velocity": 0.4881889763779528,
                    "duration": 0.24291499999999644
                },
                {
                    "name": "E4",
                    "midi": 64,
                    "time": 81.37652499999993,
                    "velocity": 0.4881889763779528,
                    "duration": 0.24291499999999644
                },
                {
                    "name": "D#4",
                    "midi": 63,
                    "time": 81.61943999999993,
                    "velocity": 0.5748031496062992,
                    "duration": 1.94332
                },
                {
                    "name": "D#5",
                    "midi": 75,
                    "time": 81.61943999999993,
                    "velocity": 0.6771653543307087,
                    "duration": 1.94332
                },
                {
                    "name": "B4",
                    "midi": 71,
                    "time": 81.61943999999993,
                    "velocity": 0.5748031496062992,
                    "duration": 1.94332
                },
                {
                    "name": "F#4",
                    "midi": 66,
                    "time": 81.61943999999993,
                    "velocity": 0.5748031496062992,
                    "duration": 1.94332
                },
                {
                    "name": "G#4",
                    "midi": 68,
                    "time": 83.56275999999993,
                    "velocity": 0.5433070866141733,
                    "duration": 0.97166
                },
                {
                    "name": "B4",
                    "midi": 71,
                    "time": 83.56275999999993,
                    "velocity": 0.5433070866141733,
                    "duration": 0.97166
                },
                {
                    "name": "E4",
                    "midi": 64,
                    "time": 83.56275999999993,
                    "velocity": 0.4566929133858268,
                    "duration": 0.97166
                },
                {
                    "name": "F#4",
                    "midi": 66,
                    "time": 84.53441999999993,
                    "velocity": 0.5511811023622047,
                    "duration": 0.7287450000000035
                },
                {
                    "name": "B4",
                    "midi": 71,
                    "time": 84.53441999999993,
                    "velocity": 0.6535433070866141,
                    "duration": 0.7287450000000035
                },
                {
                    "name": "C#5",
                    "midi": 73,
                    "time": 85.26316499999993,
                    "velocity": 0.5826771653543307,
                    "duration": 0.24291499999999644
                },
                {
                    "name": "A#4",
                    "midi": 70,
                    "time": 85.26316499999993,
                    "velocity": 0.4881889763779528,
                    "duration": 0.24291499999999644
                },
                {
                    "name": "G4",
                    "midi": 67,
                    "time": 85.26316499999993,
                    "velocity": 0.4881889763779528,
                    "duration": 0.24291499999999644
                },
                {
                    "name": "E4",
                    "midi": 64,
                    "time": 85.26316499999993,
                    "velocity": 0.4881889763779528,
                    "duration": 0.24291499999999644
                },
                {
                    "name": "D#4",
                    "midi": 63,
                    "time": 85.50607999999993,
                    "velocity": 0.5748031496062992,
                    "duration": 1.8461539999999985
                },
                {
                    "name": "D#5",
                    "midi": 75,
                    "time": 85.50607999999993,
                    "velocity": 0.6771653543307087,
                    "duration": 1.8461539999999985
                },
                {
                    "name": "B4",
                    "midi": 71,
                    "time": 85.50607999999993,
                    "velocity": 0.5748031496062992,
                    "duration": 1.8461539999999985
                },
                {
                    "name": "F#4",
                    "midi": 66,
                    "time": 85.50607999999993,
                    "velocity": 0.5748031496062992,
                    "duration": 1.8461539999999985
                },
                {
                    "name": "F#4",
                    "midi": 66,
                    "time": 87.44939999999993,
                    "velocity": 0.4251968503937008,
                    "duration": 0.97166
                },
                {
                    "name": "D4",
                    "midi": 62,
                    "time": 87.44939999999993,
                    "velocity": 0.3543307086614173,
                    "duration": 0.97166
                },
                {
                    "name": "B3",
                    "midi": 59,
                    "time": 87.44939999999993,
                    "velocity": 0.3543307086614173,
                    "duration": 0.97166
                },
                {
                    "name": "F#4",
                    "midi": 66,
                    "time": 88.42105999999993,
                    "velocity": 0.49606299212598426,
                    "duration": 0.7287450000000035
                },
                {
                    "name": "C#4",
                    "midi": 61,
                    "time": 88.42105999999993,
                    "velocity": 0.3937007874015748,
                    "duration": 0.7287450000000035
                },
                {
                    "name": "B3",
                    "midi": 59,
                    "time": 89.14980499999993,
                    "velocity": 0.3937007874015748,
                    "duration": 0.24291499999999644
                },
                {
                    "name": "F4",
                    "midi": 65,
                    "time": 89.14980499999993,
                    "velocity": 0.3937007874015748,
                    "duration": 0.24291499999999644
                },
                {
                    "name": "G#4",
                    "midi": 68,
                    "time": 89.14980499999993,
                    "velocity": 0.47244094488188976,
                    "duration": 0.24291499999999644
                },
                {
                    "name": "A3",
                    "midi": 57,
                    "time": 89.39271999999993,
                    "velocity": 0.4015748031496063,
                    "duration": 1.4574899999999928
                },
                {
                    "name": "F#4",
                    "midi": 66,
                    "time": 89.39271999999993,
                    "velocity": 0.4015748031496063,
                    "duration": 1.4574899999999928
                },
                {
                    "name": "A4",
                    "midi": 69,
                    "time": 89.39271999999993,
                    "velocity": 0.48031496062992124,
                    "duration": 1.4574899999999928
                },
                {
                    "name": "F#4",
                    "midi": 66,
                    "time": 90.85020999999992,
                    "velocity": 0.29133858267716534,
                    "duration": 0.4858299999999929
                },
                {
                    "name": "C#4",
                    "midi": 61,
                    "time": 91.33603999999991,
                    "velocity": 0.31496062992125984,
                    "duration": 0.4858299999999929
                },
                {
                    "name": "A3",
                    "midi": 57,
                    "time": 91.33603999999991,
                    "velocity": 0.2677165354330709,
                    "duration": 1.9433199999999857
                },
                {
                    "name": "D#4",
                    "midi": 63,
                    "time": 91.8218699999999,
                    "velocity": 0.25984251968503935,
                    "duration": 0.4858299999999929
                },
                {
                    "name": "G#4",
                    "midi": 68,
                    "time": 92.3076999999999,
                    "velocity": 0.31496062992125984,
                    "duration": 0.7287450000000035
                },
                {
                    "name": "F#4",
                    "midi": 66,
                    "time": 93.0364449999999,
                    "velocity": 0.28346456692913385,
                    "duration": 0.24291499999999644
                },
                {
                    "name": "E4",
                    "midi": 64,
                    "time": 93.2793599999999,
                    "velocity": 0.28346456692913385,
                    "duration": 0.97166
                },
                {
                    "name": "B3",
                    "midi": 59,
                    "time": 94.2510199999999,
                    "velocity": 0.30708661417322836,
                    "duration": 0.24291499999999644
                },
                {
                    "name": "E4",
                    "midi": 64,
                    "time": 94.4939349999999,
                    "velocity": 0.2677165354330709,
                    "duration": 0.24291499999999644
                },
                {
                    "name": "G#4",
                    "midi": 68,
                    "time": 94.73684999999989,
                    "velocity": 0.2677165354330709,
                    "duration": 0.24291499999999644
                },
                {
                    "name": "B4",
                    "midi": 71,
                    "time": 94.97976499999989,
                    "velocity": 0.2677165354330709,
                    "duration": 0.24291499999999644
                },
                {
                    "name": "B4",
                    "midi": 71,
                    "time": 96.19433999999988,
                    "velocity": 0.30708661417322836,
                    "duration": 0.24291499999999644
                },
                {
                    "name": "E5",
                    "midi": 76,
                    "time": 96.43725499999988,
                    "velocity": 0.2677165354330709,
                    "duration": 0.24291499999999644
                },
                {
                    "name": "G#5",
                    "midi": 80,
                    "time": 96.68016999999988,
                    "velocity": 0.2677165354330709,
                    "duration": 0.24291499999999644
                },
                {
                    "name": "B5",
                    "midi": 83,
                    "time": 96.92308499999987,
                    "velocity": 0.2677165354330709,
                    "duration": 0.24291499999999644
                },
                {
                    "name": "B3",
                    "midi": 59,
                    "time": 97.16599999999987,
                    "velocity": 0.2992125984251969,
                    "duration": 0.24291499999999644
                },
                {
                    "name": "G#4",
                    "midi": 68,
                    "time": 97.40891499999987,
                    "velocity": 0.2677165354330709,
                    "duration": 0.24291499999999644
                },
                {
                    "name": "B4",
                    "midi": 71,
                    "time": 97.65182999999986,
                    "velocity": 0.2677165354330709,
                    "duration": 0.24291499999999644
                },
                {
                    "name": "E5",
                    "midi": 76,
                    "time": 97.89474499999986,
                    "velocity": 0.2677165354330709,
                    "duration": 0.24291499999999644
                },
                {
                    "name": "G#5",
                    "midi": 80,
                    "time": 98.13765999999985,
                    "velocity": 0.30708661417322836,
                    "duration": 0.24291499999999644
                },
                {
                    "name": "B5",
                    "midi": 83,
                    "time": 98.38057499999985,
                    "velocity": 0.2677165354330709,
                    "duration": 0.24291499999999644
                },
                {
                    "name": "E6",
                    "midi": 88,
                    "time": 98.62348999999985,
                    "velocity": 0.2755905511811024,
                    "duration": 0.24291499999999644
                },
                {
                    "name": "G#6",
                    "midi": 92,
                    "time": 98.86640499999984,
                    "velocity": 0.2992125984251969,
                    "duration": 0.24291499999999644
                },
                {
                    "name": "B6",
                    "midi": 95,
                    "time": 99.10931999999984,
                    "velocity": 0.30708661417322836,
                    "duration": 0.4858300000000071
                },
                {
                    "name": "D#4",
                    "midi": 63,
                    "time": 100.08097999999984,
                    "velocity": 0.25196850393700787,
                    "duration": 0.4858299999999929
                },
                {
                    "name": "B3",
                    "midi": 59,
                    "time": 100.08097999999984,
                    "velocity": 0.2125984251968504,
                    "duration": 0.4858299999999929
                },
                {
                    "name": "A3",
                    "midi": 57,
                    "time": 100.08097999999984,
                    "velocity": 0.2125984251968504,
                    "duration": 0.4858299999999929
                },
                {
                    "name": "G#3",
                    "midi": 56,
                    "time": 101.05263999999983,
                    "velocity": 0.2204724409448819,
                    "duration": 0.4858299999999929
                },
                {
                    "name": "B3",
                    "midi": 59,
                    "time": 101.05263999999983,
                    "velocity": 0.2204724409448819,
                    "duration": 0.4858299999999929
                },
                {
                    "name": "E4",
                    "midi": 64,
                    "time": 101.05263999999983,
                    "velocity": 0.2677165354330709,
                    "duration": 0.4858299999999929
                }
            ],
            "controlChanges": {},
            "id": 1,
            "name": "Piano right",
            "instrumentNumber": 0,
            "instrument": "acoustic grand piano",
            "instrumentFamily": "piano",
            "channelNumber": 0,
            "isPercussion": false
        },
        {
            "startTime": 0,
            "duration": 101.53846999999996,
            "length": 147,
            "notes": [
                {
                    "name": "E2",
                    "midi": 40,
                    "time": 0,
                    "velocity": 0.3858267716535433,
                    "duration": 0.242915
                },
                {
                    "name": "B2",
                    "midi": 47,
                    "time": 0.242915,
                    "velocity": 0.31496062992125984,
                    "duration": 0.242915
                },
                {
                    "name": "E3",
                    "midi": 52,
                    "time": 0.48583,
                    "velocity": 0.31496062992125984,
                    "duration": 0.242915
                },
                {
                    "name": "G#3",
                    "midi": 56,
                    "time": 0.728745,
                    "velocity": 0.31496062992125984,
                    "duration": 0.242915
                },
                {
                    "name": "G#3",
                    "midi": 56,
                    "time": 1.94332,
                    "velocity": 0.3543307086614173,
                    "duration": 0.242915
                },
                {
                    "name": "B3",
                    "midi": 59,
                    "time": 2.186235,
                    "velocity": 0.31496062992125984,
                    "duration": 0.242915
                },
                {
                    "name": "E4",
                    "midi": 64,
                    "time": 2.42915,
                    "velocity": 0.31496062992125984,
                    "duration": 0.242915
                },
                {
                    "name": "G#4",
                    "midi": 68,
                    "time": 2.672065,
                    "velocity": 0.31496062992125984,
                    "duration": 0.242915
                },
                {
                    "name": "B2",
                    "midi": 47,
                    "time": 6.80162,
                    "velocity": 0.2283464566929134,
                    "duration": 0.48583
                },
                {
                    "name": "E2",
                    "midi": 40,
                    "time": 7.77328,
                    "velocity": 0.29133858267716534,
                    "duration": 0.48583
                },
                {
                    "name": "G#3",
                    "midi": 56,
                    "time": 9.7166,
                    "velocity": 0.25196850393700787,
                    "duration": 1.94332
                },
                {
                    "name": "E3",
                    "midi": 52,
                    "time": 9.7166,
                    "velocity": 0.2125984251968504,
                    "duration": 1.94332
                },
                {
                    "name": "A3",
                    "midi": 57,
                    "time": 11.65992,
                    "velocity": 0.25196850393700787,
                    "duration": 1.94332
                },
                {
                    "name": "E3",
                    "midi": 52,
                    "time": 11.65992,
                    "velocity": 0.2125984251968504,
                    "duration": 1.94332
                },
                {
                    "name": "C#3",
                    "midi": 49,
                    "time": 11.65992,
                    "velocity": 0.2125984251968504,
                    "duration": 1.94332
                },
                {
                    "name": "E3",
                    "midi": 52,
                    "time": 13.60324,
                    "velocity": 0.25196850393700787,
                    "duration": 1.94332
                },
                {
                    "name": "C#3",
                    "midi": 49,
                    "time": 13.60324,
                    "velocity": 0.2125984251968504,
                    "duration": 1.94332
                },
                {
                    "name": "E3",
                    "midi": 52,
                    "time": 15.54656,
                    "velocity": 0.2440944881889764,
                    "duration": 0.97166
                },
                {
                    "name": "B2",
                    "midi": 47,
                    "time": 15.54656,
                    "velocity": 0.2047244094488189,
                    "duration": 1.45749
                },
                {
                    "name": "D#3",
                    "midi": 51,
                    "time": 16.51822,
                    "velocity": 0.2047244094488189,
                    "duration": 0.48583
                },
                {
                    "name": "F#3",
                    "midi": 54,
                    "time": 17.48988,
                    "velocity": 0.3543307086614173,
                    "duration": 0.97166
                },
                {
                    "name": "B2",
                    "midi": 47,
                    "time": 17.48988,
                    "velocity": 0.2992125984251969,
                    "duration": 0.97166
                },
                {
                    "name": "F#3",
                    "midi": 54,
                    "time": 18.46154,
                    "velocity": 0.3543307086614173,
                    "duration": 0.728745
                },
                {
                    "name": "A2",
                    "midi": 45,
                    "time": 18.46154,
                    "velocity": 0.2992125984251969,
                    "duration": 0.728745
                },
                {
                    "name": "G#2",
                    "midi": 44,
                    "time": 19.190285,
                    "velocity": 0.3464566929133858,
                    "duration": 0.242915
                },
                {
                    "name": "F#3",
                    "midi": 54,
                    "time": 19.190285,
                    "velocity": 0.4094488188976378,
                    "duration": 0.242915
                },
                {
                    "name": "F#3",
                    "midi": 54,
                    "time": 19.4332,
                    "velocity": 0.4015748031496063,
                    "duration": 1.94332
                },
                {
                    "name": "F#2",
                    "midi": 42,
                    "time": 19.4332,
                    "velocity": 0.33858267716535434,
                    "duration": 1.94332
                },
                {
                    "name": "F#3",
                    "midi": 54,
                    "time": 21.37652,
                    "velocity": 0.23622047244094488,
                    "duration": 1.94332
                },
                {
                    "name": "B2",
                    "midi": 47,
                    "time": 21.37652,
                    "velocity": 0.1968503937007874,
                    "duration": 1.94332
                },
                {
                    "name": "E2",
                    "midi": 40,
                    "time": 23.31984,
                    "velocity": 0.2440944881889764,
                    "duration": 0.97166
                },
                {
                    "name": "G#3",
                    "midi": 56,
                    "time": 25.26316,
                    "velocity": 0.25196850393700787,
                    "duration": 1.94332
                },
                {
                    "name": "E3",
                    "midi": 52,
                    "time": 25.26316,
                    "velocity": 0.2125984251968504,
                    "duration": 1.94332
                },
                {
                    "name": "C#4",
                    "midi": 61,
                    "time": 27.20648,
                    "velocity": 0.2992125984251969,
                    "duration": 1.94332
                },
                {
                    "name": "G#3",
                    "midi": 56,
                    "time": 27.20648,
                    "velocity": 0.25196850393700787,
                    "duration": 1.94332
                },
                {
                    "name": "C#3",
                    "midi": 49,
                    "time": 27.20648,
                    "velocity": 0.25196850393700787,
                    "duration": 1.94332
                },
                {
                    "name": "C#4",
                    "midi": 61,
                    "time": 29.1498,
                    "velocity": 0.33858267716535434,
                    "duration": 1.94332
                },
                {
                    "name": "B3",
                    "midi": 59,
                    "time": 30.12146,
                    "velocity": 0.28346456692913385,
                    "duration": 0.97166
                },
                {
                    "name": "C#4",
                    "midi": 61,
                    "time": 31.09312,
                    "velocity": 0.33070866141732286,
                    "duration": 1.45749
                },
                {
                    "name": "A3",
                    "midi": 57,
                    "time": 31.09312,
                    "velocity": 0.2755905511811024,
                    "duration": 1.45749
                },
                {
                    "name": "F#3",
                    "midi": 54,
                    "time": 33.03644,
                    "velocity": 0.28346456692913385,
                    "duration": 0.97166
                },
                {
                    "name": "B2",
                    "midi": 47,
                    "time": 33.03644,
                    "velocity": 0.23622047244094488,
                    "duration": 0.97166
                },
                {
                    "name": "F#3",
                    "midi": 54,
                    "time": 34.0081,
                    "velocity": 0.28346456692913385,
                    "duration": 0.7287450000000035
                },
                {
                    "name": "A2",
                    "midi": 45,
                    "time": 34.0081,
                    "velocity": 0.23622047244094488,
                    "duration": 0.7287450000000035
                },
                {
                    "name": "G#2",
                    "midi": 44,
                    "time": 34.736845,
                    "velocity": 0.2755905511811024,
                    "duration": 0.24291499999999644
                },
                {
                    "name": "F#3",
                    "midi": 54,
                    "time": 34.736845,
                    "velocity": 0.3228346456692913,
                    "duration": 0.24291499999999644
                },
                {
                    "name": "F#3",
                    "midi": 54,
                    "time": 34.97976,
                    "velocity": 0.31496062992125984,
                    "duration": 1.94332
                },
                {
                    "name": "F#2",
                    "midi": 42,
                    "time": 34.97976,
                    "velocity": 0.2677165354330709,
                    "duration": 1.94332
                },
                {
                    "name": "B2",
                    "midi": 47,
                    "time": 36.92308,
                    "velocity": 0.23622047244094488,
                    "duration": 1.94332
                },
                {
                    "name": "B1",
                    "midi": 35,
                    "time": 36.92308,
                    "velocity": 0.1968503937007874,
                    "duration": 1.94332
                },
                {
                    "name": "E2",
                    "midi": 40,
                    "time": 38.8664,
                    "velocity": 0.2440944881889764,
                    "duration": 1.45749
                },
                {
                    "name": "E2",
                    "midi": 40,
                    "time": 40.80972,
                    "velocity": 0.30708661417322836,
                    "duration": 0.97166
                },
                {
                    "name": "E3",
                    "midi": 52,
                    "time": 40.80972,
                    "velocity": 0.36220472440944884,
                    "duration": 0.97166
                },
                {
                    "name": "D#2",
                    "midi": 39,
                    "time": 41.78138,
                    "velocity": 0.33858267716535434,
                    "duration": 0.97166
                },
                {
                    "name": "D#3",
                    "midi": 51,
                    "time": 41.78138,
                    "velocity": 0.4015748031496063,
                    "duration": 0.97166
                },
                {
                    "name": "C#2",
                    "midi": 37,
                    "time": 42.75304,
                    "velocity": 0.4015748031496063,
                    "duration": 0.97166
                },
                {
                    "name": "C#3",
                    "midi": 49,
                    "time": 42.75304,
                    "velocity": 0.47244094488188976,
                    "duration": 0.97166
                },
                {
                    "name": "B2",
                    "midi": 47,
                    "time": 43.7247,
                    "velocity": 0.49606299212598426,
                    "duration": 0.97166
                },
                {
                    "name": "B1",
                    "midi": 35,
                    "time": 43.7247,
                    "velocity": 0.41732283464566927,
                    "duration": 0.97166
                },
                {
                    "name": "A#1",
                    "midi": 34,
                    "time": 44.69636,
                    "velocity": 0.4409448818897638,
                    "duration": 0.97166
                },
                {
                    "name": "A#2",
                    "midi": 46,
                    "time": 44.69636,
                    "velocity": 0.5196850393700787,
                    "duration": 0.97166
                },
                {
                    "name": "G#2",
                    "midi": 44,
                    "time": 45.66802,
                    "velocity": 0.5590551181102362,
                    "duration": 0.97166
                },
                {
                    "name": "G#1",
                    "midi": 32,
                    "time": 45.66802,
                    "velocity": 0.47244094488188976,
                    "duration": 0.97166
                },
                {
                    "name": "F#1",
                    "midi": 30,
                    "time": 46.63968,
                    "velocity": 0.4881889763779528,
                    "duration": 1.94332
                },
                {
                    "name": "F#2",
                    "midi": 42,
                    "time": 46.63968,
                    "velocity": 0.5826771653543307,
                    "duration": 1.94332
                },
                {
                    "name": "F#2",
                    "midi": 42,
                    "time": 48.583,
                    "velocity": 0.5511811023622047,
                    "duration": 1.94332
                },
                {
                    "name": "F#1",
                    "midi": 30,
                    "time": 48.583,
                    "velocity": 0.4645669291338583,
                    "duration": 1.94332
                },
                {
                    "name": "F#2",
                    "midi": 42,
                    "time": 50.52632,
                    "velocity": 0.5590551181102362,
                    "duration": 1.94332
                },
                {
                    "name": "F#1",
                    "midi": 30,
                    "time": 50.52632,
                    "velocity": 0.47244094488188976,
                    "duration": 1.94332
                },
                {
                    "name": "F#2",
                    "midi": 42,
                    "time": 52.46964,
                    "velocity": 0.49606299212598426,
                    "duration": 1.94332
                },
                {
                    "name": "F#1",
                    "midi": 30,
                    "time": 52.46964,
                    "velocity": 0.41732283464566927,
                    "duration": 1.94332
                },
                {
                    "name": "B1",
                    "midi": 35,
                    "time": 54.41296,
                    "velocity": 0.3228346456692913,
                    "duration": 2.91498
                },
                {
                    "name": "B2",
                    "midi": 47,
                    "time": 54.41296,
                    "velocity": 0.3858267716535433,
                    "duration": 2.91498
                },
                {
                    "name": "E3",
                    "midi": 52,
                    "time": 57.32794,
                    "velocity": 0.2992125984251969,
                    "duration": 0.97166
                },
                {
                    "name": "F#2",
                    "midi": 42,
                    "time": 57.32794,
                    "velocity": 0.25196850393700787,
                    "duration": 0.97166
                },
                {
                    "name": "B2",
                    "midi": 47,
                    "time": 58.2996,
                    "velocity": 0.29133858267716534,
                    "duration": 0.97166
                },
                {
                    "name": "D#3",
                    "midi": 51,
                    "time": 58.2996,
                    "velocity": 0.3464566929133858,
                    "duration": 0.97166
                },
                {
                    "name": "E3",
                    "midi": 52,
                    "time": 61.21458,
                    "velocity": 0.2992125984251969,
                    "duration": 0.97166
                },
                {
                    "name": "F#2",
                    "midi": 42,
                    "time": 61.21458,
                    "velocity": 0.25196850393700787,
                    "duration": 0.97166
                },
                {
                    "name": "B2",
                    "midi": 47,
                    "time": 62.18624,
                    "velocity": 0.29133858267716534,
                    "duration": 0.4372469999999993
                },
                {
                    "name": "D#3",
                    "midi": 51,
                    "time": 62.18624,
                    "velocity": 0.3464566929133858,
                    "duration": 0.4372469999999993
                },
                {
                    "name": "B2",
                    "midi": 47,
                    "time": 62.67207,
                    "velocity": 0.33070866141732286,
                    "duration": 0.48583
                },
                {
                    "name": "B3",
                    "midi": 59,
                    "time": 62.67207,
                    "velocity": 0.3937007874015748,
                    "duration": 0.48583
                },
                {
                    "name": "B3",
                    "midi": 59,
                    "time": 63.1579,
                    "velocity": 0.4645669291338583,
                    "duration": 0.48583
                },
                {
                    "name": "C#3",
                    "midi": 49,
                    "time": 63.1579,
                    "velocity": 0.3937007874015748,
                    "duration": 0.48583
                },
                {
                    "name": "B3",
                    "midi": 59,
                    "time": 63.64373,
                    "velocity": 0.41732283464566927,
                    "duration": 0.4372470000000064
                },
                {
                    "name": "D#3",
                    "midi": 51,
                    "time": 63.64373,
                    "velocity": 0.3543307086614173,
                    "duration": 0.4372470000000064
                },
                {
                    "name": "G#3",
                    "midi": 56,
                    "time": 64.12956,
                    "velocity": 0.25196850393700787,
                    "duration": 1.94332
                },
                {
                    "name": "E3",
                    "midi": 52,
                    "time": 64.12956,
                    "velocity": 0.2125984251968504,
                    "duration": 1.94332
                },
                {
                    "name": "D#3",
                    "midi": 51,
                    "time": 65.10122,
                    "velocity": 0.2125984251968504,
                    "duration": 0.97166
                },
                {
                    "name": "A3",
                    "midi": 57,
                    "time": 66.07288,
                    "velocity": 0.25196850393700787,
                    "duration": 1.94332
                },
                {
                    "name": "E3",
                    "midi": 52,
                    "time": 66.07288,
                    "velocity": 0.2125984251968504,
                    "duration": 1.94332
                },
                {
                    "name": "C#3",
                    "midi": 49,
                    "time": 66.07288,
                    "velocity": 0.2125984251968504,
                    "duration": 1.94332
                },
                {
                    "name": "E3",
                    "midi": 52,
                    "time": 68.0162,
                    "velocity": 0.25196850393700787,
                    "duration": 1.94332
                },
                {
                    "name": "C#3",
                    "midi": 49,
                    "time": 68.0162,
                    "velocity": 0.2125984251968504,
                    "duration": 1.94332
                },
                {
                    "name": "E3",
                    "midi": 52,
                    "time": 69.95952,
                    "velocity": 0.2440944881889764,
                    "duration": 0.97166
                },
                {
                    "name": "B2",
                    "midi": 47,
                    "time": 69.95952,
                    "velocity": 0.2047244094488189,
                    "duration": 1.457490000000007
                },
                {
                    "name": "D#3",
                    "midi": 51,
                    "time": 70.93118,
                    "velocity": 0.2047244094488189,
                    "duration": 0.4858300000000071
                },
                {
                    "name": "F#3",
                    "midi": 54,
                    "time": 71.90284,
                    "velocity": 0.3543307086614173,
                    "duration": 0.97166
                },
                {
                    "name": "B2",
                    "midi": 47,
                    "time": 71.90284,
                    "velocity": 0.2992125984251969,
                    "duration": 0.97166
                },
                {
                    "name": "F#3",
                    "midi": 54,
                    "time": 72.8745,
                    "velocity": 0.3543307086614173,
                    "duration": 0.7287450000000035
                },
                {
                    "name": "A2",
                    "midi": 45,
                    "time": 72.8745,
                    "velocity": 0.2992125984251969,
                    "duration": 0.7287450000000035
                },
                {
                    "name": "G#2",
                    "midi": 44,
                    "time": 73.603245,
                    "velocity": 0.3464566929133858,
                    "duration": 0.24291499999999644
                },
                {
                    "name": "F#3",
                    "midi": 54,
                    "time": 73.603245,
                    "velocity": 0.4094488188976378,
                    "duration": 0.24291499999999644
                },
                {
                    "name": "F#3",
                    "midi": 54,
                    "time": 73.84616,
                    "velocity": 0.4015748031496063,
                    "duration": 1.94332
                },
                {
                    "name": "F#2",
                    "midi": 42,
                    "time": 73.84616,
                    "velocity": 0.33858267716535434,
                    "duration": 1.94332
                },
                {
                    "name": "F#3",
                    "midi": 54,
                    "time": 75.78948,
                    "velocity": 0.23622047244094488,
                    "duration": 1.94332
                },
                {
                    "name": "B2",
                    "midi": 47,
                    "time": 75.78948,
                    "velocity": 0.1968503937007874,
                    "duration": 1.94332
                },
                {
                    "name": "E2",
                    "midi": 40,
                    "time": 77.7328,
                    "velocity": 0.2440944881889764,
                    "duration": 0.97166
                },
                {
                    "name": "B3",
                    "midi": 59,
                    "time": 79.67612,
                    "velocity": 0.41732283464566927,
                    "duration": 0.97166
                },
                {
                    "name": "E3",
                    "midi": 52,
                    "time": 79.67612,
                    "velocity": 0.3543307086614173,
                    "duration": 0.97166
                },
                {
                    "name": "B3",
                    "midi": 59,
                    "time": 80.64778,
                    "velocity": 0.47244094488188976,
                    "duration": 0.7287450000000035
                },
                {
                    "name": "D#3",
                    "midi": 51,
                    "time": 80.64778,
                    "velocity": 0.3937007874015748,
                    "duration": 0.7287450000000035
                },
                {
                    "name": "B3",
                    "midi": 59,
                    "time": 81.376525,
                    "velocity": 0.4015748031496063,
                    "duration": 0.222672083333336
                },
                {
                    "name": "C#3",
                    "midi": 49,
                    "time": 81.376525,
                    "velocity": 0.33858267716535434,
                    "duration": 0.24291499999999644
                },
                {
                    "name": "B3",
                    "midi": 59,
                    "time": 81.61944,
                    "velocity": 0.48031496062992124,
                    "duration": 1.94332
                },
                {
                    "name": "B2",
                    "midi": 47,
                    "time": 81.61944,
                    "velocity": 0.4015748031496063,
                    "duration": 1.94332
                },
                {
                    "name": "B3",
                    "midi": 59,
                    "time": 83.56276,
                    "velocity": 0.41732283464566927,
                    "duration": 0.97166
                },
                {
                    "name": "E3",
                    "midi": 52,
                    "time": 83.56276,
                    "velocity": 0.3543307086614173,
                    "duration": 0.97166
                },
                {
                    "name": "B3",
                    "midi": 59,
                    "time": 84.53442,
                    "velocity": 0.47244094488188976,
                    "duration": 0.7287450000000035
                },
                {
                    "name": "D#3",
                    "midi": 51,
                    "time": 84.53442,
                    "velocity": 0.3937007874015748,
                    "duration": 0.7287450000000035
                },
                {
                    "name": "B3",
                    "midi": 59,
                    "time": 85.263165,
                    "velocity": 0.4015748031496063,
                    "duration": 0.24291499999999644
                },
                {
                    "name": "C#3",
                    "midi": 49,
                    "time": 85.263165,
                    "velocity": 0.33858267716535434,
                    "duration": 0.24291499999999644
                },
                {
                    "name": "B3",
                    "midi": 59,
                    "time": 85.50608,
                    "velocity": 0.48031496062992124,
                    "duration": 1.8461539999999985
                },
                {
                    "name": "B2",
                    "midi": 47,
                    "time": 85.50608,
                    "velocity": 0.4015748031496063,
                    "duration": 1.8461539999999985
                },
                {
                    "name": "F#3",
                    "midi": 54,
                    "time": 87.4494,
                    "velocity": 0.31496062992125984,
                    "duration": 0.97166
                },
                {
                    "name": "B2",
                    "midi": 47,
                    "time": 87.4494,
                    "velocity": 0.2677165354330709,
                    "duration": 0.97166
                },
                {
                    "name": "F#3",
                    "midi": 54,
                    "time": 88.42106,
                    "velocity": 0.31496062992125984,
                    "duration": 0.7287450000000035
                },
                {
                    "name": "A2",
                    "midi": 45,
                    "time": 88.42106,
                    "velocity": 0.2677165354330709,
                    "duration": 0.7287450000000035
                },
                {
                    "name": "G#2",
                    "midi": 44,
                    "time": 89.149805,
                    "velocity": 0.30708661417322836,
                    "duration": 0.24291499999999644
                },
                {
                    "name": "F#3",
                    "midi": 54,
                    "time": 89.149805,
                    "velocity": 0.36220472440944884,
                    "duration": 0.24291499999999644
                },
                {
                    "name": "F#3",
                    "midi": 54,
                    "time": 89.39272,
                    "velocity": 0.3543307086614173,
                    "duration": 1.94332
                },
                {
                    "name": "F#2",
                    "midi": 42,
                    "time": 89.39272,
                    "velocity": 0.2992125984251969,
                    "duration": 1.94332
                },
                {
                    "name": "B2",
                    "midi": 47,
                    "time": 91.33604,
                    "velocity": 0.2125984251968504,
                    "duration": 1.94332
                },
                {
                    "name": "B1",
                    "midi": 35,
                    "time": 91.33604,
                    "velocity": 0.1732283464566929,
                    "duration": 1.94332
                },
                {
                    "name": "E2",
                    "midi": 40,
                    "time": 93.27936,
                    "velocity": 0.3228346456692913,
                    "duration": 0.24291499999999644
                },
                {
                    "name": "B2",
                    "midi": 47,
                    "time": 93.522275,
                    "velocity": 0.2677165354330709,
                    "duration": 0.24291499999999644
                },
                {
                    "name": "E3",
                    "midi": 52,
                    "time": 93.76518999999999,
                    "velocity": 0.2677165354330709,
                    "duration": 0.24291499999999644
                },
                {
                    "name": "G#3",
                    "midi": 56,
                    "time": 94.00810499999999,
                    "velocity": 0.2677165354330709,
                    "duration": 0.24291499999999644
                },
                {
                    "name": "G#3",
                    "midi": 56,
                    "time": 95.22267999999998,
                    "velocity": 0.2992125984251969,
                    "duration": 0.24291499999999644
                },
                {
                    "name": "B3",
                    "midi": 59,
                    "time": 95.46559499999998,
                    "velocity": 0.2677165354330709,
                    "duration": 0.24291499999999644
                },
                {
                    "name": "E4",
                    "midi": 64,
                    "time": 95.70850999999998,
                    "velocity": 0.2677165354330709,
                    "duration": 0.24291499999999644
                },
                {
                    "name": "G#4",
                    "midi": 68,
                    "time": 95.95142499999997,
                    "velocity": 0.2677165354330709,
                    "duration": 0.24291499999999644
                },
                {
                    "name": "B1",
                    "midi": 35,
                    "time": 100.08097999999997,
                    "velocity": 0.15748031496062992,
                    "duration": 0.4858300000000071
                },
                {
                    "name": "B2",
                    "midi": 47,
                    "time": 100.08097999999997,
                    "velocity": 0.1889763779527559,
                    "duration": 0.4858300000000071
                },
                {
                    "name": "E1",
                    "midi": 28,
                    "time": 101.05263999999997,
                    "velocity": 0.2047244094488189,
                    "duration": 0.4858299999999929
                },
                {
                    "name": "E2",
                    "midi": 40,
                    "time": 101.05263999999997,
                    "velocity": 0.2440944881889764,
                    "duration": 0.4858299999999929
                }
            ],
            "controlChanges": {},
            "id": 2,
            "name": "Piano left",
            "instrumentNumber": 0,
            "instrument": "acoustic grand piano",
            "instrumentFamily": "piano",
            "channelNumber": 0,
            "isPercussion": false
        },
        {
            "startTime": 0,
            "duration": 0,
            "length": 0,
            "notes": [],
            "controlChanges": {
                "64": [
                    {
                        "number": 64,
                        "time": 0.12955466666666665,
                        "value": 1
                    },
                    {
                        "number": 64,
                        "time": 6.388664499999999,
                        "value": 0
                    },
                    {
                        "number": 64,
                        "time": 9.959515,
                        "value": 1
                    },
                    {
                        "number": 64,
                        "time": 10.730770125,
                        "value": 0
                    },
                    {
                        "number": 64,
                        "time": 10.874494833333333,
                        "value": 1
                    },
                    {
                        "number": 64,
                        "time": 11.668017166666667,
                        "value": 0
                    },
                    {
                        "number": 64,
                        "time": 15.72874625,
                        "value": 1
                    },
                    {
                        "number": 64,
                        "time": 16.576924458333334,
                        "value": 0
                    },
                    {
                        "number": 64,
                        "time": 17.663969083333335,
                        "value": 1
                    },
                    {
                        "number": 64,
                        "time": 18.516195875,
                        "value": 0
                    },
                    {
                        "number": 64,
                        "time": 18.657896291666667,
                        "value": 1
                    },
                    {
                        "number": 64,
                        "time": 19.4332,
                        "value": 0
                    },
                    {
                        "number": 64,
                        "time": 19.633604875,
                        "value": 1
                    },
                    {
                        "number": 64,
                        "time": 20.921054375,
                        "value": 0
                    },
                    {
                        "number": 64,
                        "time": 21.576924875,
                        "value": 1
                    },
                    {
                        "number": 64,
                        "time": 23.327937166666665,
                        "value": 0
                    },
                    {
                        "number": 64,
                        "time": 23.91498175,
                        "value": 1
                    },
                    {
                        "number": 64,
                        "time": 24.99392920833333,
                        "value": 0
                    },
                    {
                        "number": 64,
                        "time": 25.506074999999996,
                        "value": 1
                    },
                    {
                        "number": 64,
                        "time": 26.277330124999995,
                        "value": 0
                    },
                    {
                        "number": 64,
                        "time": 26.42105483333333,
                        "value": 1
                    },
                    {
                        "number": 64,
                        "time": 27.21457716666666,
                        "value": 0
                    },
                    {
                        "number": 64,
                        "time": 31.242917583333327,
                        "value": 1
                    },
                    {
                        "number": 64,
                        "time": 32.12348445833333,
                        "value": 0
                    },
                    {
                        "number": 64,
                        "time": 33.21052908333333,
                        "value": 1
                    },
                    {
                        "number": 64,
                        "time": 34.06275587499999,
                        "value": 0
                    },
                    {
                        "number": 64,
                        "time": 34.20445629166666,
                        "value": 1
                    },
                    {
                        "number": 64,
                        "time": 34.97975999999999,
                        "value": 0
                    },
                    {
                        "number": 64,
                        "time": 35.18016487499999,
                        "value": 1
                    },
                    {
                        "number": 64,
                        "time": 36.46761437499999,
                        "value": 0
                    },
                    {
                        "number": 64,
                        "time": 37.12348487499999,
                        "value": 1
                    },
                    {
                        "number": 64,
                        "time": 38.87449716666666,
                        "value": 0
                    },
                    {
                        "number": 64,
                        "time": 39.46154174999999,
                        "value": 1
                    },
                    {
                        "number": 64,
                        "time": 40.75303983333332,
                        "value": 0
                    },
                    {
                        "number": 64,
                        "time": 40.98380908333332,
                        "value": 1
                    },
                    {
                        "number": 64,
                        "time": 41.836035874999986,
                        "value": 0
                    },
                    {
                        "number": 64,
                        "time": 41.97773629166665,
                        "value": 1
                    },
                    {
                        "number": 64,
                        "time": 42.753039999999984,
                        "value": 0
                    },
                    {
                        "number": 64,
                        "time": 42.95344487499998,
                        "value": 1
                    },
                    {
                        "number": 64,
                        "time": 44.24089437499998,
                        "value": 0
                    },
                    {
                        "number": 64,
                        "time": 44.89676487499998,
                        "value": 1
                    },
                    {
                        "number": 64,
                        "time": 45.710530124999984,
                        "value": 0
                    },
                    {
                        "number": 64,
                        "time": 45.896764958333314,
                        "value": 1
                    },
                    {
                        "number": 64,
                        "time": 46.64777716666665,
                        "value": 0
                    },
                    {
                        "number": 64,
                        "time": 47.23482174999998,
                        "value": 1
                    },
                    {
                        "number": 64,
                        "time": 47.52631974999998,
                        "value": 0
                    },
                    {
                        "number": 64,
                        "time": 48.75708908333331,
                        "value": 1
                    },
                    {
                        "number": 64,
                        "time": 49.60931587499998,
                        "value": 0
                    },
                    {
                        "number": 64,
                        "time": 49.751016291666645,
                        "value": 1
                    },
                    {
                        "number": 64,
                        "time": 50.52631999999998,
                        "value": 0
                    },
                    {
                        "number": 64,
                        "time": 50.726724874999974,
                        "value": 1
                    },
                    {
                        "number": 64,
                        "time": 52.014174374999975,
                        "value": 0
                    },
                    {
                        "number": 64,
                        "time": 52.670044874999974,
                        "value": 1
                    },
                    {
                        "number": 64,
                        "time": 54.42105716666664,
                        "value": 0
                    },
                    {
                        "number": 64,
                        "time": 54.58502479166664,
                        "value": 1
                    },
                    {
                        "number": 64,
                        "time": 54.93725154166664,
                        "value": 0
                    },
                    {
                        "number": 64,
                        "time": 56.45749458333331,
                        "value": 1
                    },
                    {
                        "number": 64,
                        "time": 57.36640154166664,
                        "value": 0
                    },
                    {
                        "number": 64,
                        "time": 57.54251491666664,
                        "value": 1
                    },
                    {
                        "number": 64,
                        "time": 58.31781862499997,
                        "value": 0
                    },
                    {
                        "number": 64,
                        "time": 58.82389154166664,
                        "value": 0
                    },
                    {
                        "number": 64,
                        "time": 60.34413458333331,
                        "value": 1
                    },
                    {
                        "number": 64,
                        "time": 61.25304154166664,
                        "value": 0
                    },
                    {
                        "number": 64,
                        "time": 61.42915491666664,
                        "value": 1
                    },
                    {
                        "number": 64,
                        "time": 62.20445862499997,
                        "value": 0
                    },
                    {
                        "number": 64,
                        "time": 62.71053154166664,
                        "value": 0
                    },
                    {
                        "number": 64,
                        "time": 64.37247499999998,
                        "value": 1
                    },
                    {
                        "number": 64,
                        "time": 65.14373012499998,
                        "value": 0
                    },
                    {
                        "number": 64,
                        "time": 65.28745483333331,
                        "value": 1
                    },
                    {
                        "number": 64,
                        "time": 66.08097716666664,
                        "value": 0
                    },
                    {
                        "number": 64,
                        "time": 70.14170624999997,
                        "value": 1
                    },
                    {
                        "number": 64,
                        "time": 70.98988445833331,
                        "value": 0
                    },
                    {
                        "number": 64,
                        "time": 72.07692908333331,
                        "value": 1
                    },
                    {
                        "number": 64,
                        "time": 72.92915587499998,
                        "value": 0
                    },
                    {
                        "number": 64,
                        "time": 73.07085629166664,
                        "value": 1
                    },
                    {
                        "number": 64,
                        "time": 73.84615999999998,
                        "value": 0
                    },
                    {
                        "number": 64,
                        "time": 74.04656487499999,
                        "value": 1
                    },
                    {
                        "number": 64,
                        "time": 75.33401437499998,
                        "value": 0
                    },
                    {
                        "number": 64,
                        "time": 75.98988487499999,
                        "value": 1
                    },
                    {
                        "number": 64,
                        "time": 77.74089716666666,
                        "value": 0
                    },
                    {
                        "number": 64,
                        "time": 78.00203079166666,
                        "value": 1
                    },
                    {
                        "number": 64,
                        "time": 78.90486487499999,
                        "value": 0
                    },
                    {
                        "number": 64,
                        "time": 79.85020908333333,
                        "value": 1
                    },
                    {
                        "number": 64,
                        "time": 80.70243587499999,
                        "value": 0
                    },
                    {
                        "number": 64,
                        "time": 80.84413629166666,
                        "value": 1
                    },
                    {
                        "number": 64,
                        "time": 81.39271933333332,
                        "value": 0
                    },
                    {
                        "number": 64,
                        "time": 81.48178816666665,
                        "value": 1
                    },
                    {
                        "number": 64,
                        "time": 81.62551287499998,
                        "value": 0
                    },
                    {
                        "number": 64,
                        "time": 82.10526999999999,
                        "value": 1
                    },
                    {
                        "number": 64,
                        "time": 83.60324583333332,
                        "value": 0
                    },
                    {
                        "number": 64,
                        "time": 83.73684908333331,
                        "value": 1
                    },
                    {
                        "number": 64,
                        "time": 84.58907587499998,
                        "value": 0
                    },
                    {
                        "number": 64,
                        "time": 84.73077629166664,
                        "value": 1
                    },
                    {
                        "number": 64,
                        "time": 85.2793593333333,
                        "value": 0
                    },
                    {
                        "number": 64,
                        "time": 85.36842816666663,
                        "value": 1
                    },
                    {
                        "number": 64,
                        "time": 85.51215287499997,
                        "value": 0
                    },
                    {
                        "number": 64,
                        "time": 85.99190999999998,
                        "value": 1
                    },
                    {
                        "number": 64,
                        "time": 87.42713279166664,
                        "value": 0
                    },
                    {
                        "number": 64,
                        "time": 87.6234890833333,
                        "value": 1
                    },
                    {
                        "number": 64,
                        "time": 88.47571587499996,
                        "value": 0
                    },
                    {
                        "number": 64,
                        "time": 88.61741629166663,
                        "value": 1
                    },
                    {
                        "number": 64,
                        "time": 89.39271999999997,
                        "value": 0
                    },
                    {
                        "number": 64,
                        "time": 89.59312487499997,
                        "value": 1
                    },
                    {
                        "number": 64,
                        "time": 90.88057437499997,
                        "value": 0
                    },
                    {
                        "number": 64,
                        "time": 91.53644487499997,
                        "value": 1
                    },
                    {
                        "number": 64,
                        "time": 93.28745716666664,
                        "value": 0
                    },
                    {
                        "number": 64,
                        "time": 93.40891466666665,
                        "value": 1
                    },
                    {
                        "number": 64,
                        "time": 99.66802449999997,
                        "value": 0
                    }
                ]
            },
            "id": 3,
            "name": "Pedale",
            "instrumentNumber": 0,
            "instrument": "acoustic grand piano",
            "instrumentFamily": "piano",
            "channelNumber": 0,
            "isPercussion": false
        },
        {
            "startTime": 0,
            "duration": 0,
            "length": 0,
            "notes": [],
            "controlChanges": {},
            "id": 4,
            "name": "Mendelssohn: Songs without words Opus 30 No. 3"
        },
        {
            "startTime": 0,
            "duration": 0,
            "length": 0,
            "notes": [],
            "controlChanges": {},
            "id": 5,
            "name": "Copyright  2010 by Bernd Krueger"
        },
        {
            "startTime": 0,
            "duration": 0,
            "length": 0,
            "notes": [],
            "controlChanges": {},
            "id": 6,
            "name": "http://www.piano-midi.de/"
        },
        {
            "startTime": 0,
            "duration": 0,
            "length": 0,
            "notes": [],
            "controlChanges": {},
            "id": 7,
            "name": "Edition: 2015-02-23"
        },
        {
            "startTime": 0,
            "duration": 0,
            "length": 0,
            "notes": [],
            "controlChanges": {},
            "id": 8,
            "name": "Spur 8"
        },
        {
            "startTime": 0,
            "duration": 0,
            "length": 0,
            "notes": [],
            "controlChanges": {},
            "id": 9,
            "name": "Spur 9"
        },
        {
            "startTime": 0,
            "duration": 0,
            "length": 0,
            "notes": [],
            "controlChanges": {},
            "id": 10,
            "name": "Spur 10"
        },
        {
            "startTime": 0,
            "duration": 0,
            "length": 0,
            "notes": [],
            "controlChanges": {},
            "id": 11,
            "name": "Spur 11"
        },
        {
            "startTime": 0,
            "duration": 0,
            "length": 0,
            "notes": [],
            "controlChanges": {},
            "id": 12,
            "name": "Spur 12"
        },
        {
            "startTime": 0,
            "duration": 0,
            "length": 0,
            "notes": [],
            "controlChanges": {},
            "id": 13,
            "name": "Spur 13"
        },
        {
            "startTime": 0,
            "duration": 0,
            "length": 0,
            "notes": [],
            "controlChanges": {},
            "id": 14,
            "name": "Spur 14"
        },
        {
            "startTime": 0,
            "duration": 0,
            "length": 0,
            "notes": [],
            "controlChanges": {},
            "id": 15,
            "name": "Spur 15"
        },
        {
            "startTime": 0,
            "duration": 0,
            "length": 0,
            "notes": [],
            "controlChanges": {},
            "id": 16,
            "name": "Spur 16"
        }
    ]
}