{
    "header": {
        "PPQ": 480,
        "timeSignature": [
            3,
            8
        ],
        "bpm": 132.6999124180578,
        "name": "Impromptu D 935 Nr. 4"
    },
    "startTime": 0,
    "duration": 369.1788420000024,
    "tracks": [
        {
            "startTime": 0,
            "duration": 0,
            "length": 0,
            "notes": [],
            "controlChanges": {},
            "id": 0,
            "name": "Impromptu D 935 Nr. 4"
        },
        {
            "startTime": 0,
            "duration": 366.9181019999972,
            "length": 2970,
            "notes": [
                {
                    "name": "C#5",
                    "midi": 73,
                    "time": 0,
                    "velocity": 0.31496062992125984,
                    "duration": 0.0565185
                },
                {
                    "name": "C5",
                    "midi": 72,
                    "time": 0.0565185,
                    "velocity": 0.4015748031496063,
                    "duration": 0.0565185
                },
                {
                    "name": "C5",
                    "midi": 72,
                    "time": 0.226074,
                    "velocity": 0.3543307086614173,
                    "duration": 0.113037
                },
                {
                    "name": "C#5",
                    "midi": 73,
                    "time": 0.339111,
                    "velocity": 0.30708661417322836,
                    "duration": 0.113037
                },
                {
                    "name": "C5",
                    "midi": 72,
                    "time": 0.452148,
                    "velocity": 0.36220472440944884,
                    "duration": 0.05651850000000003
                },
                {
                    "name": "C#5",
                    "midi": 73,
                    "time": 0.678222,
                    "velocity": 0.31496062992125984,
                    "duration": 0.05651850000000003
                },
                {
                    "name": "C5",
                    "midi": 72,
                    "time": 0.7347405,
                    "velocity": 0.3858267716535433,
                    "duration": 0.05651850000000003
                },
                {
                    "name": "C5",
                    "midi": 72,
                    "time": 0.904296,
                    "velocity": 0.3464566929133858,
                    "duration": 0.11303700000000005
                },
                {
                    "name": "C#5",
                    "midi": 73,
                    "time": 1.017333,
                    "velocity": 0.28346456692913385,
                    "duration": 0.11303700000000005
                },
                {
                    "name": "C5",
                    "midi": 72,
                    "time": 1.13037,
                    "velocity": 0.33070866141732286,
                    "duration": 0.056518499999999916
                },
                {
                    "name": "C5",
                    "midi": 72,
                    "time": 1.356444,
                    "velocity": 0.31496062992125984,
                    "duration": 0.056518499999999916
                },
                {
                    "name": "B4",
                    "midi": 71,
                    "time": 1.4129625,
                    "velocity": 0.4094488188976378,
                    "duration": 0.056518499999999916
                },
                {
                    "name": "B4",
                    "midi": 71,
                    "time": 1.5825179999999999,
                    "velocity": 0.3700787401574803,
                    "duration": 0.11303700000000005
                },
                {
                    "name": "D5",
                    "midi": 74,
                    "time": 1.695555,
                    "velocity": 0.31496062992125984,
                    "duration": 0.11303700000000005
                },
                {
                    "name": "C5",
                    "midi": 72,
                    "time": 1.808592,
                    "velocity": 0.3543307086614173,
                    "duration": 0.11303700000000005
                },
                {
                    "name": "B4",
                    "midi": 71,
                    "time": 1.921629,
                    "velocity": 0.28346456692913385,
                    "duration": 0.11303700000000005
                },
                {
                    "name": "C5",
                    "midi": 72,
                    "time": 2.034666,
                    "velocity": 0.36220472440944884,
                    "duration": 0.05651850000000014
                },
                {
                    "name": "G4",
                    "midi": 67,
                    "time": 2.26074,
                    "velocity": 0.30708661417322836,
                    "duration": 0.4521480000000002
                },
                {
                    "name": "C5",
                    "midi": 72,
                    "time": 2.7128880000000004,
                    "velocity": 0.36220472440944884,
                    "duration": 0.05651850000000014
                },
                {
                    "name": "G4",
                    "midi": 67,
                    "time": 2.9389620000000005,
                    "velocity": 0.30708661417322836,
                    "duration": 0.05651850000000014
                },
                {
                    "name": "C5",
                    "midi": 72,
                    "time": 3.1650360000000006,
                    "velocity": 0.36220472440944884,
                    "duration": 0.05651850000000014
                },
                {
                    "name": "A#4",
                    "midi": 70,
                    "time": 3.3911100000000007,
                    "velocity": 0.36220472440944884,
                    "duration": 0.2260740000000001
                },
                {
                    "name": "G#4",
                    "midi": 68,
                    "time": 3.617184000000001,
                    "velocity": 0.30708661417322836,
                    "duration": 0.11303699999999983
                },
                {
                    "name": "G4",
                    "midi": 67,
                    "time": 3.7302210000000007,
                    "velocity": 0.30708661417322836,
                    "duration": 0.11303699999999983
                },
                {
                    "name": "F4",
                    "midi": 65,
                    "time": 3.8432580000000005,
                    "velocity": 0.33858267716535434,
                    "duration": 0.22607399999999966
                },
                {
                    "name": "G4",
                    "midi": 67,
                    "time": 4.069332,
                    "velocity": 0.36220472440944884,
                    "duration": 0.11303700000000028
                },
                {
                    "name": "A#4",
                    "midi": 70,
                    "time": 4.1823690000000004,
                    "velocity": 0.2992125984251969,
                    "duration": 0.11303700000000028
                },
                {
                    "name": "G4",
                    "midi": 67,
                    "time": 4.295406000000001,
                    "velocity": 0.36220472440944884,
                    "duration": 0.11303700000000028
                },
                {
                    "name": "A#4",
                    "midi": 70,
                    "time": 4.408443000000001,
                    "velocity": 0.31496062992125984,
                    "duration": 0.11303700000000028
                },
                {
                    "name": "E4",
                    "midi": 64,
                    "time": 4.521480000000001,
                    "velocity": 0.36220472440944884,
                    "duration": 0.11303700000000028
                },
                {
                    "name": "G4",
                    "midi": 67,
                    "time": 4.6345170000000016,
                    "velocity": 0.31496062992125984,
                    "duration": 0.11303700000000028
                },
                {
                    "name": "F4",
                    "midi": 65,
                    "time": 4.747554000000002,
                    "velocity": 0.36220472440944884,
                    "duration": 0.11303700000000028
                },
                {
                    "name": "G#4",
                    "midi": 68,
                    "time": 4.860591000000002,
                    "velocity": 0.29133858267716534,
                    "duration": 0.11303700000000028
                },
                {
                    "name": "C5",
                    "midi": 72,
                    "time": 4.973628000000002,
                    "velocity": 0.33070866141732286,
                    "duration": 0.11303700000000028
                },
                {
                    "name": "F5",
                    "midi": 77,
                    "time": 5.086665000000003,
                    "velocity": 0.3700787401574803,
                    "duration": 0.11303700000000028
                },
                {
                    "name": "G#5",
                    "midi": 80,
                    "time": 5.199702000000003,
                    "velocity": 0.4094488188976378,
                    "duration": 0.11303700000000028
                },
                {
                    "name": "A#5",
                    "midi": 82,
                    "time": 5.312739000000003,
                    "velocity": 0.44881889763779526,
                    "duration": 0.11303700000000028
                },
                {
                    "name": "C6",
                    "midi": 84,
                    "time": 5.4257760000000035,
                    "velocity": 0.5118110236220472,
                    "duration": 0.05651850000000014
                },
                {
                    "name": "C6",
                    "midi": 84,
                    "time": 5.651850000000004,
                    "velocity": 0.4251968503937008,
                    "duration": 0.11303700000000028
                },
                {
                    "name": "C#6",
                    "midi": 85,
                    "time": 5.764887000000004,
                    "velocity": 0.36220472440944884,
                    "duration": 0.11303700000000028
                },
                {
                    "name": "C6",
                    "midi": 84,
                    "time": 5.877924000000005,
                    "velocity": 0.4330708661417323,
                    "duration": 0.05651850000000014
                },
                {
                    "name": "C#6",
                    "midi": 85,
                    "time": 6.103998000000005,
                    "velocity": 0.3779527559055118,
                    "duration": 0.05651850000000014
                },
                {
                    "name": "C6",
                    "midi": 84,
                    "time": 6.160516500000005,
                    "velocity": 0.5039370078740157,
                    "duration": 0.05651850000000014
                },
                {
                    "name": "C6",
                    "midi": 84,
                    "time": 6.330072000000006,
                    "velocity": 0.4094488188976378,
                    "duration": 0.11303700000000028
                },
                {
                    "name": "C#6",
                    "midi": 85,
                    "time": 6.443109000000006,
                    "velocity": 0.33858267716535434,
                    "duration": 0.11303700000000028
                },
                {
                    "name": "C6",
                    "midi": 84,
                    "time": 6.556146000000006,
                    "velocity": 0.3937007874015748,
                    "duration": 0.05651850000000014
                },
                {
                    "name": "C6",
                    "midi": 84,
                    "time": 6.782220000000007,
                    "velocity": 0.48031496062992124,
                    "duration": 0.11303700000000028
                },
                {
                    "name": "B5",
                    "midi": 83,
                    "time": 6.895257000000007,
                    "velocity": 0.3779527559055118,
                    "duration": 0.11303700000000028
                },
                {
                    "name": "F6",
                    "midi": 89,
                    "time": 7.008294000000007,
                    "velocity": 0.4409448818897638,
                    "duration": 0.11303700000000028
                },
                {
                    "name": "B5",
                    "midi": 83,
                    "time": 7.121331000000008,
                    "velocity": 0.3779527559055118,
                    "duration": 0.11303700000000028
                },
                {
                    "name": "F6",
                    "midi": 89,
                    "time": 7.234368000000008,
                    "velocity": 0.4251968503937008,
                    "duration": 0.11303700000000028
                },
                {
                    "name": "B5",
                    "midi": 83,
                    "time": 7.347405000000008,
                    "velocity": 0.33858267716535434,
                    "duration": 0.11303700000000028
                },
                {
                    "name": "C6",
                    "midi": 84,
                    "time": 7.4604420000000085,
                    "velocity": 0.4330708661417323,
                    "duration": 0.05651850000000014
                },
                {
                    "name": "G5",
                    "midi": 79,
                    "time": 7.686516000000009,
                    "velocity": 0.36220472440944884,
                    "duration": 0.4521480000000002
                },
                {
                    "name": "C6",
                    "midi": 84,
                    "time": 8.13866400000001,
                    "velocity": 0.44881889763779526,
                    "duration": 0.05651849999999925
                },
                {
                    "name": "G5",
                    "midi": 79,
                    "time": 8.364738000000008,
                    "velocity": 0.36220472440944884,
                    "duration": 0.05651849999999925
                },
                {
                    "name": "C6",
                    "midi": 84,
                    "time": 8.590812000000007,
                    "velocity": 0.4330708661417323,
                    "duration": 0.05651849999999925
                },
                {
                    "name": "A#5",
                    "midi": 82,
                    "time": 8.816886000000006,
                    "velocity": 0.4330708661417323,
                    "duration": 0.22607400000000055
                },
                {
                    "name": "G#5",
                    "midi": 80,
                    "time": 9.042960000000006,
                    "velocity": 0.36220472440944884,
                    "duration": 0.11303700000000028
                },
                {
                    "name": "G5",
                    "midi": 79,
                    "time": 9.155997000000006,
                    "velocity": 0.36220472440944884,
                    "duration": 0.11303700000000028
                },
                {
                    "name": "F5",
                    "midi": 77,
                    "time": 9.269034000000007,
                    "velocity": 0.4015748031496063,
                    "duration": 0.22607400000000055
                },
                {
                    "name": "G5",
                    "midi": 79,
                    "time": 9.495108000000007,
                    "velocity": 0.4330708661417323,
                    "duration": 0.11303700000000028
                },
                {
                    "name": "A#5",
                    "midi": 82,
                    "time": 9.608145000000007,
                    "velocity": 0.3543307086614173,
                    "duration": 0.11303700000000028
                },
                {
                    "name": "G5",
                    "midi": 79,
                    "time": 9.721182000000008,
                    "velocity": 0.4330708661417323,
                    "duration": 0.11303700000000028
                },
                {
                    "name": "A#5",
                    "midi": 82,
                    "time": 9.834219000000008,
                    "velocity": 0.3779527559055118,
                    "duration": 0.11303700000000028
                },
                {
                    "name": "E5",
                    "midi": 76,
                    "time": 9.947256000000008,
                    "velocity": 0.4330708661417323,
                    "duration": 0.11303700000000028
                },
                {
                    "name": "G5",
                    "midi": 79,
                    "time": 10.060293000000009,
                    "velocity": 0.3779527559055118,
                    "duration": 0.11303700000000028
                },
                {
                    "name": "F5",
                    "midi": 77,
                    "time": 10.173330000000009,
                    "velocity": 0.4330708661417323,
                    "duration": 0.22607400000000055
                },
                {
                    "name": "F4",
                    "midi": 65,
                    "time": 10.39940400000001,
                    "velocity": 0.5354330708661418,
                    "duration": 0.11303700000000028
                },
                {
                    "name": "G4",
                    "midi": 67,
                    "time": 10.51244100000001,
                    "velocity": 0.5433070866141733,
                    "duration": 0.11303700000000028
                },
                {
                    "name": "G#4",
                    "midi": 68,
                    "time": 10.62547800000001,
                    "velocity": 0.5590551181102362,
                    "duration": 0.11303700000000028
                },
                {
                    "name": "A#4",
                    "midi": 70,
                    "time": 10.73851500000001,
                    "velocity": 0.5748031496062992,
                    "duration": 0.11303700000000028
                },
                {
                    "name": "C5",
                    "midi": 72,
                    "time": 10.85155200000001,
                    "velocity": 0.5826771653543307,
                    "duration": 0.05651849999999925
                },
                {
                    "name": "C4",
                    "midi": 60,
                    "time": 11.07762600000001,
                    "velocity": 0.5354330708661418,
                    "duration": 0.05651849999999925
                },
                {
                    "name": "C5",
                    "midi": 72,
                    "time": 11.303700000000008,
                    "velocity": 0.5905511811023622,
                    "duration": 0.05651849999999925
                },
                {
                    "name": "C4",
                    "midi": 60,
                    "time": 11.529774000000007,
                    "velocity": 0.47244094488188976,
                    "duration": 0.05651849999999925
                },
                {
                    "name": "C5",
                    "midi": 72,
                    "time": 11.755848000000006,
                    "velocity": 0.5826771653543307,
                    "duration": 0.05651849999999925
                },
                {
                    "name": "C4",
                    "midi": 60,
                    "time": 11.981922000000004,
                    "velocity": 0.47244094488188976,
                    "duration": 0.05651849999999925
                },
                {
                    "name": "A#4",
                    "midi": 70,
                    "time": 12.207996000000003,
                    "velocity": 0.4645669291338583,
                    "duration": 0.05651849999999925
                },
                {
                    "name": "G4",
                    "midi": 67,
                    "time": 12.207996000000003,
                    "velocity": 0.4645669291338583,
                    "duration": 0.05651849999999925
                },
                {
                    "name": "F4",
                    "midi": 65,
                    "time": 12.434070000000002,
                    "velocity": 0.36220472440944884,
                    "duration": 0.11303700000000028
                },
                {
                    "name": "G#4",
                    "midi": 68,
                    "time": 12.434070000000002,
                    "velocity": 0.36220472440944884,
                    "duration": 0.11303700000000028
                },
                {
                    "name": "E4",
                    "midi": 64,
                    "time": 12.547107000000002,
                    "velocity": 0.36220472440944884,
                    "duration": 0.11303700000000028
                },
                {
                    "name": "G4",
                    "midi": 67,
                    "time": 12.547107000000002,
                    "velocity": 0.36220472440944884,
                    "duration": 0.11303700000000028
                },
                {
                    "name": "G#4",
                    "midi": 68,
                    "time": 12.660144000000003,
                    "velocity": 0.36220472440944884,
                    "duration": 0.11303700000000028
                },
                {
                    "name": "F4",
                    "midi": 65,
                    "time": 12.660144000000003,
                    "velocity": 0.36220472440944884,
                    "duration": 0.11303700000000028
                },
                {
                    "name": "A#4",
                    "midi": 70,
                    "time": 12.773181000000003,
                    "velocity": 0.36220472440944884,
                    "duration": 0.11303700000000028
                },
                {
                    "name": "G4",
                    "midi": 67,
                    "time": 12.773181000000003,
                    "velocity": 0.36220472440944884,
                    "duration": 0.11303700000000028
                },
                {
                    "name": "G4",
                    "midi": 67,
                    "time": 12.886218000000003,
                    "velocity": 0.4094488188976378,
                    "duration": 0.6782219999999999
                },
                {
                    "name": "E4",
                    "midi": 64,
                    "time": 12.886218000000003,
                    "velocity": 0.4094488188976378,
                    "duration": 0.6782219999999999
                },
                {
                    "name": "C5",
                    "midi": 72,
                    "time": 13.564440000000003,
                    "velocity": 0.5826771653543307,
                    "duration": 0.05651849999999925
                },
                {
                    "name": "C4",
                    "midi": 60,
                    "time": 13.790514000000002,
                    "velocity": 0.5354330708661418,
                    "duration": 0.05651849999999925
                },
                {
                    "name": "C5",
                    "midi": 72,
                    "time": 14.016588,
                    "velocity": 0.5905511811023622,
                    "duration": 0.22607400000000055
                },
                {
                    "name": "C#5",
                    "midi": 73,
                    "time": 14.242662000000001,
                    "velocity": 0.6062992125984252,
                    "duration": 0.22607400000000055
                },
                {
                    "name": "C#4",
                    "midi": 61,
                    "time": 14.468736000000002,
                    "velocity": 0.4881889763779528,
                    "duration": 0.05651849999999925
                },
                {
                    "name": "C#5",
                    "midi": 73,
                    "time": 14.69481,
                    "velocity": 0.5826771653543307,
                    "duration": 0.05651849999999925
                },
                {
                    "name": "G#4",
                    "midi": 68,
                    "time": 14.920884,
                    "velocity": 0.4094488188976378,
                    "duration": 0.11303700000000028
                },
                {
                    "name": "C5",
                    "midi": 72,
                    "time": 14.920884,
                    "velocity": 0.4094488188976378,
                    "duration": 0.11303700000000028
                },
                {
                    "name": "A#4",
                    "midi": 70,
                    "time": 15.033921,
                    "velocity": 0.36220472440944884,
                    "duration": 0.11303700000000028
                },
                {
                    "name": "G4",
                    "midi": 67,
                    "time": 15.033921,
                    "velocity": 0.36220472440944884,
                    "duration": 0.11303700000000028
                },
                {
                    "name": "G#4",
                    "midi": 68,
                    "time": 15.146958,
                    "velocity": 0.3464566929133858,
                    "duration": 0.11303700000000028
                },
                {
                    "name": "F4",
                    "midi": 65,
                    "time": 15.146958,
                    "velocity": 0.3464566929133858,
                    "duration": 0.11303700000000028
                },
                {
                    "name": "G4",
                    "midi": 67,
                    "time": 15.259995,
                    "velocity": 0.33070866141732286,
                    "duration": 0.11303700000000028
                },
                {
                    "name": "A#4",
                    "midi": 70,
                    "time": 15.259995,
                    "velocity": 0.33070866141732286,
                    "duration": 0.11303700000000028
                },
                {
                    "name": "G#4",
                    "midi": 68,
                    "time": 15.373032,
                    "velocity": 0.31496062992125984,
                    "duration": 0.11303700000000028
                },
                {
                    "name": "F4",
                    "midi": 65,
                    "time": 15.373032,
                    "velocity": 0.31496062992125984,
                    "duration": 0.11303700000000028
                },
                {
                    "name": "E4",
                    "midi": 64,
                    "time": 15.486069,
                    "velocity": 0.2992125984251969,
                    "duration": 0.11303700000000028
                },
                {
                    "name": "G4",
                    "midi": 67,
                    "time": 15.486069,
                    "velocity": 0.2992125984251969,
                    "duration": 0.11303700000000028
                },
                {
                    "name": "F4",
                    "midi": 65,
                    "time": 15.599106,
                    "velocity": 0.3858267716535433,
                    "duration": 0.22607400000000055
                },
                {
                    "name": "F5",
                    "midi": 77,
                    "time": 15.825180000000001,
                    "velocity": 0.5826771653543307,
                    "duration": 0.11303700000000028
                },
                {
                    "name": "G5",
                    "midi": 79,
                    "time": 15.938217000000002,
                    "velocity": 0.5905511811023622,
                    "duration": 0.1130369999999985
                },
                {
                    "name": "G#5",
                    "midi": 80,
                    "time": 16.051254,
                    "velocity": 0.6141732283464567,
                    "duration": 0.1130369999999985
                },
                {
                    "name": "A#5",
                    "midi": 82,
                    "time": 16.164291,
                    "velocity": 0.6299212598425197,
                    "duration": 0.1130369999999985
                },
                {
                    "name": "C6",
                    "midi": 84,
                    "time": 16.277327999999997,
                    "velocity": 0.6377952755905512,
                    "duration": 0.05651849999999925
                },
                {
                    "name": "C5",
                    "midi": 72,
                    "time": 16.503401999999998,
                    "velocity": 0.5826771653543307,
                    "duration": 0.05651849999999925
                },
                {
                    "name": "C6",
                    "midi": 84,
                    "time": 16.729476,
                    "velocity": 0.6456692913385826,
                    "duration": 0.05651849999999925
                },
                {
                    "name": "C5",
                    "midi": 72,
                    "time": 16.95555,
                    "velocity": 0.5196850393700787,
                    "duration": 0.05651849999999925
                },
                {
                    "name": "C6",
                    "midi": 84,
                    "time": 17.181624,
                    "velocity": 0.6377952755905512,
                    "duration": 0.05651849999999925
                },
                {
                    "name": "C5",
                    "midi": 72,
                    "time": 17.407698,
                    "velocity": 0.5196850393700787,
                    "duration": 0.05651849999999925
                },
                {
                    "name": "A#5",
                    "midi": 82,
                    "time": 17.633772,
                    "velocity": 0.5039370078740157,
                    "duration": 0.05651849999999925
                },
                {
                    "name": "G5",
                    "midi": 79,
                    "time": 17.633772,
                    "velocity": 0.5039370078740157,
                    "duration": 0.05651849999999925
                },
                {
                    "name": "G#5",
                    "midi": 80,
                    "time": 17.859846,
                    "velocity": 0.3937007874015748,
                    "duration": 0.1130369999999985
                },
                {
                    "name": "F5",
                    "midi": 77,
                    "time": 17.859846,
                    "velocity": 0.3937007874015748,
                    "duration": 0.1130369999999985
                },
                {
                    "name": "G5",
                    "midi": 79,
                    "time": 17.972883,
                    "velocity": 0.3937007874015748,
                    "duration": 0.1130369999999985
                },
                {
                    "name": "E5",
                    "midi": 76,
                    "time": 17.972883,
                    "velocity": 0.3937007874015748,
                    "duration": 0.1130369999999985
                },
                {
                    "name": "G#5",
                    "midi": 80,
                    "time": 18.085919999999998,
                    "velocity": 0.3937007874015748,
                    "duration": 0.1130369999999985
                },
                {
                    "name": "F5",
                    "midi": 77,
                    "time": 18.085919999999998,
                    "velocity": 0.3937007874015748,
                    "duration": 0.1130369999999985
                },
                {
                    "name": "A#5",
                    "midi": 82,
                    "time": 18.198956999999996,
                    "velocity": 0.3937007874015748,
                    "duration": 0.1130369999999985
                },
                {
                    "name": "G5",
                    "midi": 79,
                    "time": 18.198956999999996,
                    "velocity": 0.3937007874015748,
                    "duration": 0.1130369999999985
                },
                {
                    "name": "G5",
                    "midi": 79,
                    "time": 18.311993999999995,
                    "velocity": 0.44881889763779526,
                    "duration": 0.6782220000000017
                },
                {
                    "name": "E5",
                    "midi": 76,
                    "time": 18.311993999999995,
                    "velocity": 0.44881889763779526,
                    "duration": 0.6782220000000017
                },
                {
                    "name": "C6",
                    "midi": 84,
                    "time": 18.990215999999997,
                    "velocity": 0.6377952755905512,
                    "duration": 0.05651849999999925
                },
                {
                    "name": "C5",
                    "midi": 72,
                    "time": 19.216289999999997,
                    "velocity": 0.5826771653543307,
                    "duration": 0.05651849999999925
                },
                {
                    "name": "C6",
                    "midi": 84,
                    "time": 19.442363999999998,
                    "velocity": 0.6456692913385826,
                    "duration": 0.22607400000000055
                },
                {
                    "name": "C#6",
                    "midi": 85,
                    "time": 19.668438,
                    "velocity": 0.6614173228346457,
                    "duration": 0.22607400000000055
                },
                {
                    "name": "C#5",
                    "midi": 73,
                    "time": 19.894512,
                    "velocity": 0.5354330708661418,
                    "duration": 0.05651849999999925
                },
                {
                    "name": "C#6",
                    "midi": 85,
                    "time": 20.120586,
                    "velocity": 0.6377952755905512,
                    "duration": 0.05651849999999925
                },
                {
                    "name": "C#5",
                    "midi": 73,
                    "time": 20.34666,
                    "velocity": 0.4094488188976378,
                    "duration": 0.1130369999999985
                },
                {
                    "name": "A#4",
                    "midi": 70,
                    "time": 20.34666,
                    "velocity": 0.4094488188976378,
                    "duration": 0.1130369999999985
                },
                {
                    "name": "B4",
                    "midi": 71,
                    "time": 20.459697,
                    "velocity": 0.36220472440944884,
                    "duration": 0.1130369999999985
                },
                {
                    "name": "G#4",
                    "midi": 68,
                    "time": 20.459697,
                    "velocity": 0.36220472440944884,
                    "duration": 0.1130369999999985
                },
                {
                    "name": "A#4",
                    "midi": 70,
                    "time": 20.572733999999997,
                    "velocity": 0.3464566929133858,
                    "duration": 0.1130369999999985
                },
                {
                    "name": "F#4",
                    "midi": 66,
                    "time": 20.572733999999997,
                    "velocity": 0.3464566929133858,
                    "duration": 0.1130369999999985
                },
                {
                    "name": "G#4",
                    "midi": 68,
                    "time": 20.685770999999995,
                    "velocity": 0.33070866141732286,
                    "duration": 0.1130369999999985
                },
                {
                    "name": "B4",
                    "midi": 71,
                    "time": 20.685770999999995,
                    "velocity": 0.33070866141732286,
                    "duration": 0.1130369999999985
                },
                {
                    "name": "A#4",
                    "midi": 70,
                    "time": 20.798807999999994,
                    "velocity": 0.31496062992125984,
                    "duration": 0.1130369999999985
                },
                {
                    "name": "F#4",
                    "midi": 66,
                    "time": 20.798807999999994,
                    "velocity": 0.31496062992125984,
                    "duration": 0.1130369999999985
                },
                {
                    "name": "F4",
                    "midi": 65,
                    "time": 20.911844999999992,
                    "velocity": 0.2992125984251969,
                    "duration": 0.1130369999999985
                },
                {
                    "name": "G#4",
                    "midi": 68,
                    "time": 20.911844999999992,
                    "velocity": 0.2992125984251969,
                    "duration": 0.1130369999999985
                },
                {
                    "name": "F#4",
                    "midi": 66,
                    "time": 21.02488199999999,
                    "velocity": 0.36220472440944884,
                    "duration": 0.1130369999999985
                },
                {
                    "name": "A#4",
                    "midi": 70,
                    "time": 21.02488199999999,
                    "velocity": 0.36220472440944884,
                    "duration": 0.1130369999999985
                },
                {
                    "name": "A#4",
                    "midi": 70,
                    "time": 21.250955999999988,
                    "velocity": 0.2992125984251969,
                    "duration": 0.1130369999999985
                },
                {
                    "name": "F#4",
                    "midi": 66,
                    "time": 21.250955999999988,
                    "velocity": 0.2992125984251969,
                    "duration": 0.1130369999999985
                },
                {
                    "name": "A#4",
                    "midi": 70,
                    "time": 21.477029999999985,
                    "velocity": 0.2992125984251969,
                    "duration": 0.1130369999999985
                },
                {
                    "name": "F#4",
                    "midi": 66,
                    "time": 21.477029999999985,
                    "velocity": 0.2992125984251969,
                    "duration": 0.1130369999999985
                },
                {
                    "name": "B4",
                    "midi": 71,
                    "time": 21.703103999999982,
                    "velocity": 0.3937007874015748,
                    "duration": 0.1130369999999985
                },
                {
                    "name": "F4",
                    "midi": 65,
                    "time": 21.703103999999982,
                    "velocity": 0.33070866141732286,
                    "duration": 0.1130369999999985
                },
                {
                    "name": "G#4",
                    "midi": 68,
                    "time": 21.703103999999982,
                    "velocity": 0.3937007874015748,
                    "duration": 0.1130369999999985
                },
                {
                    "name": "G#4",
                    "midi": 68,
                    "time": 21.92917799999998,
                    "velocity": 0.4015748031496063,
                    "duration": 0.1130369999999985
                },
                {
                    "name": "F4",
                    "midi": 65,
                    "time": 21.92917799999998,
                    "velocity": 0.33858267716535434,
                    "duration": 0.1130369999999985
                },
                {
                    "name": "B4",
                    "midi": 71,
                    "time": 21.92917799999998,
                    "velocity": 0.4015748031496063,
                    "duration": 0.1130369999999985
                },
                {
                    "name": "G#4",
                    "midi": 68,
                    "time": 22.155251999999976,
                    "velocity": 0.4409448818897638,
                    "duration": 0.1130369999999985
                },
                {
                    "name": "B4",
                    "midi": 71,
                    "time": 22.155251999999976,
                    "velocity": 0.4409448818897638,
                    "duration": 0.1130369999999985
                },
                {
                    "name": "F4",
                    "midi": 65,
                    "time": 22.155251999999976,
                    "velocity": 0.3700787401574803,
                    "duration": 0.1130369999999985
                },
                {
                    "name": "G#5",
                    "midi": 80,
                    "time": 22.381325999999973,
                    "velocity": 0.4645669291338583,
                    "duration": 0.1130369999999985
                },
                {
                    "name": "B5",
                    "midi": 83,
                    "time": 22.381325999999973,
                    "velocity": 0.4645669291338583,
                    "duration": 0.1130369999999985
                },
                {
                    "name": "F5",
                    "midi": 77,
                    "time": 22.381325999999973,
                    "velocity": 0.3937007874015748,
                    "duration": 0.1130369999999985
                },
                {
                    "name": "F5",
                    "midi": 77,
                    "time": 22.60739999999997,
                    "velocity": 0.4251968503937008,
                    "duration": 0.1130369999999985
                },
                {
                    "name": "G#5",
                    "midi": 80,
                    "time": 22.60739999999997,
                    "velocity": 0.5039370078740157,
                    "duration": 0.1130369999999985
                },
                {
                    "name": "B5",
                    "midi": 83,
                    "time": 22.60739999999997,
                    "velocity": 0.5039370078740157,
                    "duration": 0.1130369999999985
                },
                {
                    "name": "B5",
                    "midi": 83,
                    "time": 22.833473999999967,
                    "velocity": 0.5511811023622047,
                    "duration": 0.1130369999999985
                },
                {
                    "name": "G#5",
                    "midi": 80,
                    "time": 22.833473999999967,
                    "velocity": 0.5511811023622047,
                    "duration": 0.1130369999999985
                },
                {
                    "name": "F5",
                    "midi": 77,
                    "time": 22.833473999999967,
                    "velocity": 0.4645669291338583,
                    "duration": 0.1130369999999985
                },
                {
                    "name": "G#6",
                    "midi": 92,
                    "time": 23.059547999999964,
                    "velocity": 0.4881889763779528,
                    "duration": 0.1130369999999985
                },
                {
                    "name": "C7",
                    "midi": 96,
                    "time": 23.059547999999964,
                    "velocity": 0.5826771653543307,
                    "duration": 0.1130369999999985
                },
                {
                    "name": "A#6",
                    "midi": 94,
                    "time": 23.172584999999962,
                    "velocity": 0.5196850393700787,
                    "duration": 0.1130369999999985
                },
                {
                    "name": "G6",
                    "midi": 91,
                    "time": 23.172584999999962,
                    "velocity": 0.4409448818897638,
                    "duration": 0.1130369999999985
                },
                {
                    "name": "G#6",
                    "midi": 92,
                    "time": 23.28562199999996,
                    "velocity": 0.5748031496062992,
                    "duration": 0.1130369999999985
                },
                {
                    "name": "F6",
                    "midi": 89,
                    "time": 23.28562199999996,
                    "velocity": 0.48031496062992124,
                    "duration": 0.1130369999999985
                },
                {
                    "name": "G6",
                    "midi": 91,
                    "time": 23.39865899999996,
                    "velocity": 0.4330708661417323,
                    "duration": 0.1130369999999985
                },
                {
                    "name": "A#6",
                    "midi": 94,
                    "time": 23.39865899999996,
                    "velocity": 0.5039370078740157,
                    "duration": 0.1130369999999985
                },
                {
                    "name": "G#6",
                    "midi": 92,
                    "time": 23.511695999999958,
                    "velocity": 0.5748031496062992,
                    "duration": 0.1130369999999985
                },
                {
                    "name": "F6",
                    "midi": 89,
                    "time": 23.511695999999958,
                    "velocity": 0.48031496062992124,
                    "duration": 0.1130369999999985
                },
                {
                    "name": "G6",
                    "midi": 91,
                    "time": 23.624732999999956,
                    "velocity": 0.5039370078740157,
                    "duration": 0.1130369999999985
                },
                {
                    "name": "E6",
                    "midi": 88,
                    "time": 23.624732999999956,
                    "velocity": 0.4330708661417323,
                    "duration": 0.1130369999999985
                },
                {
                    "name": "F6",
                    "midi": 89,
                    "time": 23.737769999999955,
                    "velocity": 0.5748031496062992,
                    "duration": 0.1130369999999985
                },
                {
                    "name": "F4",
                    "midi": 65,
                    "time": 23.963843999999952,
                    "velocity": 0.5354330708661418,
                    "duration": 0.1130369999999985
                },
                {
                    "name": "G4",
                    "midi": 67,
                    "time": 24.07688099999995,
                    "velocity": 0.5433070866141733,
                    "duration": 0.1130369999999985
                },
                {
                    "name": "G#4",
                    "midi": 68,
                    "time": 24.18991799999995,
                    "velocity": 0.5590551181102362,
                    "duration": 0.1130369999999985
                },
                {
                    "name": "A#4",
                    "midi": 70,
                    "time": 24.302954999999947,
                    "velocity": 0.5748031496062992,
                    "duration": 0.1130369999999985
                },
                {
                    "name": "C5",
                    "midi": 72,
                    "time": 24.415991999999946,
                    "velocity": 0.5826771653543307,
                    "duration": 0.05651849999999925
                },
                {
                    "name": "C4",
                    "midi": 60,
                    "time": 24.642065999999947,
                    "velocity": 0.5354330708661418,
                    "duration": 0.05651849999999925
                },
                {
                    "name": "C5",
                    "midi": 72,
                    "time": 24.868139999999947,
                    "velocity": 0.5905511811023622,
                    "duration": 0.05651849999999925
                },
                {
                    "name": "C4",
                    "midi": 60,
                    "time": 25.094213999999948,
                    "velocity": 0.47244094488188976,
                    "duration": 0.05651849999999925
                },
                {
                    "name": "C5",
                    "midi": 72,
                    "time": 25.320287999999948,
                    "velocity": 0.5826771653543307,
                    "duration": 0.05651849999999925
                },
                {
                    "name": "C4",
                    "midi": 60,
                    "time": 25.54636199999995,
                    "velocity": 0.47244094488188976,
                    "duration": 0.05651849999999925
                },
                {
                    "name": "G4",
                    "midi": 67,
                    "time": 25.77243599999995,
                    "velocity": 0.4645669291338583,
                    "duration": 0.05651849999999925
                },
                {
                    "name": "A#4",
                    "midi": 70,
                    "time": 25.77243599999995,
                    "velocity": 0.4645669291338583,
                    "duration": 0.05651849999999925
                },
                {
                    "name": "F4",
                    "midi": 65,
                    "time": 25.99850999999995,
                    "velocity": 0.36220472440944884,
                    "duration": 0.1130369999999985
                },
                {
                    "name": "G#4",
                    "midi": 68,
                    "time": 25.99850999999995,
                    "velocity": 0.36220472440944884,
                    "duration": 0.1130369999999985
                },
                {
                    "name": "G4",
                    "midi": 67,
                    "time": 26.11154699999995,
                    "velocity": 0.36220472440944884,
                    "duration": 0.1130369999999985
                },
                {
                    "name": "E4",
                    "midi": 64,
                    "time": 26.11154699999995,
                    "velocity": 0.36220472440944884,
                    "duration": 0.1130369999999985
                },
                {
                    "name": "G#4",
                    "midi": 68,
                    "time": 26.224583999999947,
                    "velocity": 0.36220472440944884,
                    "duration": 0.1130369999999985
                },
                {
                    "name": "F4",
                    "midi": 65,
                    "time": 26.224583999999947,
                    "velocity": 0.36220472440944884,
                    "duration": 0.1130369999999985
                },
                {
                    "name": "G4",
                    "midi": 67,
                    "time": 26.337620999999945,
                    "velocity": 0.36220472440944884,
                    "duration": 0.1130369999999985
                },
                {
                    "name": "A#4",
                    "midi": 70,
                    "time": 26.337620999999945,
                    "velocity": 0.36220472440944884,
                    "duration": 0.1130369999999985
                },
                {
                    "name": "E4",
                    "midi": 64,
                    "time": 26.450657999999944,
                    "velocity": 0.4094488188976378,
                    "duration": 0.6782220000000017
                },
                {
                    "name": "G4",
                    "midi": 67,
                    "time": 26.450657999999944,
                    "velocity": 0.4094488188976378,
                    "duration": 0.6782220000000017
                },
                {
                    "name": "C5",
                    "midi": 72,
                    "time": 27.128879999999945,
                    "velocity": 0.5826771653543307,
                    "duration": 0.05651849999999925
                },
                {
                    "name": "C4",
                    "midi": 60,
                    "time": 27.354953999999946,
                    "velocity": 0.5354330708661418,
                    "duration": 0.05651849999999925
                },
                {
                    "name": "C5",
                    "midi": 72,
                    "time": 27.581027999999947,
                    "velocity": 0.5905511811023622,
                    "duration": 0.22607400000000055
                },
                {
                    "name": "C#5",
                    "midi": 73,
                    "time": 27.807101999999947,
                    "velocity": 0.6062992125984252,
                    "duration": 0.22607400000000055
                },
                {
                    "name": "C#4",
                    "midi": 61,
                    "time": 28.033175999999948,
                    "velocity": 0.4881889763779528,
                    "duration": 0.05651849999999925
                },
                {
                    "name": "C#5",
                    "midi": 73,
                    "time": 28.25924999999995,
                    "velocity": 0.5826771653543307,
                    "duration": 0.05651849999999925
                },
                {
                    "name": "G#4",
                    "midi": 68,
                    "time": 28.48532399999995,
                    "velocity": 0.4094488188976378,
                    "duration": 0.1130369999999985
                },
                {
                    "name": "C5",
                    "midi": 72,
                    "time": 28.48532399999995,
                    "velocity": 0.4094488188976378,
                    "duration": 0.1130369999999985
                },
                {
                    "name": "A#4",
                    "midi": 70,
                    "time": 28.598360999999947,
                    "velocity": 0.36220472440944884,
                    "duration": 0.1130369999999985
                },
                {
                    "name": "G4",
                    "midi": 67,
                    "time": 28.598360999999947,
                    "velocity": 0.36220472440944884,
                    "duration": 0.1130369999999985
                },
                {
                    "name": "G#4",
                    "midi": 68,
                    "time": 28.711397999999946,
                    "velocity": 0.3464566929133858,
                    "duration": 0.1130369999999985
                },
                {
                    "name": "F4",
                    "midi": 65,
                    "time": 28.711397999999946,
                    "velocity": 0.3464566929133858,
                    "duration": 0.1130369999999985
                },
                {
                    "name": "G4",
                    "midi": 67,
                    "time": 28.824434999999944,
                    "velocity": 0.33070866141732286,
                    "duration": 0.1130369999999985
                },
                {
                    "name": "A#4",
                    "midi": 70,
                    "time": 28.824434999999944,
                    "velocity": 0.33070866141732286,
                    "duration": 0.1130369999999985
                },
                {
                    "name": "F4",
                    "midi": 65,
                    "time": 28.937471999999943,
                    "velocity": 0.31496062992125984,
                    "duration": 0.1130369999999985
                },
                {
                    "name": "G#4",
                    "midi": 68,
                    "time": 28.937471999999943,
                    "velocity": 0.31496062992125984,
                    "duration": 0.1130369999999985
                },
                {
                    "name": "G4",
                    "midi": 67,
                    "time": 29.05050899999994,
                    "velocity": 0.2992125984251969,
                    "duration": 0.1130369999999985
                },
                {
                    "name": "E4",
                    "midi": 64,
                    "time": 29.05050899999994,
                    "velocity": 0.2992125984251969,
                    "duration": 0.1130369999999985
                },
                {
                    "name": "F4",
                    "midi": 65,
                    "time": 29.16354599999994,
                    "velocity": 0.3858267716535433,
                    "duration": 0.22607400000000055
                },
                {
                    "name": "F5",
                    "midi": 77,
                    "time": 29.38961999999994,
                    "velocity": 0.5826771653543307,
                    "duration": 0.1130369999999985
                },
                {
                    "name": "G5",
                    "midi": 79,
                    "time": 29.50265699999994,
                    "velocity": 0.5905511811023622,
                    "duration": 0.1130369999999985
                },
                {
                    "name": "G#5",
                    "midi": 80,
                    "time": 29.615693999999937,
                    "velocity": 0.6141732283464567,
                    "duration": 0.1130369999999985
                },
                {
                    "name": "A#5",
                    "midi": 82,
                    "time": 29.728730999999936,
                    "velocity": 0.6299212598425197,
                    "duration": 0.1130369999999985
                },
                {
                    "name": "C6",
                    "midi": 84,
                    "time": 29.841767999999934,
                    "velocity": 0.6377952755905512,
                    "duration": 0.05651849999999925
                },
                {
                    "name": "C5",
                    "midi": 72,
                    "time": 30.067841999999935,
                    "velocity": 0.5826771653543307,
                    "duration": 0.05651849999999925
                },
                {
                    "name": "C6",
                    "midi": 84,
                    "time": 30.293915999999935,
                    "velocity": 0.6456692913385826,
                    "duration": 0.05651849999999925
                },
                {
                    "name": "C5",
                    "midi": 72,
                    "time": 30.519989999999936,
                    "velocity": 0.5196850393700787,
                    "duration": 0.05651849999999925
                },
                {
                    "name": "C6",
                    "midi": 84,
                    "time": 30.746063999999937,
                    "velocity": 0.6377952755905512,
                    "duration": 0.05651849999999925
                },
                {
                    "name": "C5",
                    "midi": 72,
                    "time": 30.972137999999937,
                    "velocity": 0.5196850393700787,
                    "duration": 0.05651849999999925
                },
                {
                    "name": "A#5",
                    "midi": 82,
                    "time": 31.198211999999938,
                    "velocity": 0.5039370078740157,
                    "duration": 0.05651849999999925
                },
                {
                    "name": "G5",
                    "midi": 79,
                    "time": 31.198211999999938,
                    "velocity": 0.5039370078740157,
                    "duration": 0.05651849999999925
                },
                {
                    "name": "F5",
                    "midi": 77,
                    "time": 31.424285999999938,
                    "velocity": 0.3937007874015748,
                    "duration": 0.1130369999999985
                },
                {
                    "name": "G#5",
                    "midi": 80,
                    "time": 31.424285999999938,
                    "velocity": 0.3937007874015748,
                    "duration": 0.1130369999999985
                },
                {
                    "name": "G5",
                    "midi": 79,
                    "time": 31.537322999999937,
                    "velocity": 0.3937007874015748,
                    "duration": 0.1130369999999985
                },
                {
                    "name": "E5",
                    "midi": 76,
                    "time": 31.537322999999937,
                    "velocity": 0.3937007874015748,
                    "duration": 0.1130369999999985
                },
                {
                    "name": "F5",
                    "midi": 77,
                    "time": 31.650359999999935,
                    "velocity": 0.3937007874015748,
                    "duration": 0.1130369999999985
                },
                {
                    "name": "G#5",
                    "midi": 80,
                    "time": 31.650359999999935,
                    "velocity": 0.3937007874015748,
                    "duration": 0.1130369999999985
                },
                {
                    "name": "G5",
                    "midi": 79,
                    "time": 31.763396999999934,
                    "velocity": 0.3937007874015748,
                    "duration": 0.1130369999999985
                },
                {
                    "name": "A#5",
                    "midi": 82,
                    "time": 31.763396999999934,
                    "velocity": 0.3937007874015748,
                    "duration": 0.1130369999999985
                },
                {
                    "name": "G5",
                    "midi": 79,
                    "time": 31.876433999999932,
                    "velocity": 0.44881889763779526,
                    "duration": 0.6782219999999981
                },
                {
                    "name": "E5",
                    "midi": 76,
                    "time": 31.876433999999932,
                    "velocity": 0.44881889763779526,
                    "duration": 0.6782219999999981
                },
                {
                    "name": "C6",
                    "midi": 84,
                    "time": 32.55465599999993,
                    "velocity": 0.6377952755905512,
                    "duration": 0.0565185000000028
                },
                {
                    "name": "C5",
                    "midi": 72,
                    "time": 32.780729999999934,
                    "velocity": 0.5826771653543307,
                    "duration": 0.0565185000000028
                },
                {
                    "name": "C6",
                    "midi": 84,
                    "time": 33.00680399999994,
                    "velocity": 0.6456692913385826,
                    "duration": 0.226073999999997
                },
                {
                    "name": "C#6",
                    "midi": 85,
                    "time": 33.232877999999936,
                    "velocity": 0.6614173228346457,
                    "duration": 0.226073999999997
                },
                {
                    "name": "C#5",
                    "midi": 73,
                    "time": 33.45895199999993,
                    "velocity": 0.5354330708661418,
                    "duration": 0.0565185000000028
                },
                {
                    "name": "C#6",
                    "midi": 85,
                    "time": 33.68502599999994,
                    "velocity": 0.6377952755905512,
                    "duration": 0.0565185000000028
                },
                {
                    "name": "C#5",
                    "midi": 73,
                    "time": 33.91109999999994,
                    "velocity": 0.4094488188976378,
                    "duration": 0.1130369999999985
                },
                {
                    "name": "A#4",
                    "midi": 70,
                    "time": 33.91109999999994,
                    "velocity": 0.4094488188976378,
                    "duration": 0.1130369999999985
                },
                {
                    "name": "G#4",
                    "midi": 68,
                    "time": 34.02413699999994,
                    "velocity": 0.36220472440944884,
                    "duration": 0.1130369999999985
                },
                {
                    "name": "B4",
                    "midi": 71,
                    "time": 34.02413699999994,
                    "velocity": 0.36220472440944884,
                    "duration": 0.1130369999999985
                },
                {
                    "name": "F#4",
                    "midi": 66,
                    "time": 34.13717399999994,
                    "velocity": 0.3464566929133858,
                    "duration": 0.1130369999999985
                },
                {
                    "name": "A#4",
                    "midi": 70,
                    "time": 34.13717399999994,
                    "velocity": 0.3464566929133858,
                    "duration": 0.1130369999999985
                },
                {
                    "name": "G#4",
                    "midi": 68,
                    "time": 34.250210999999936,
                    "velocity": 0.33070866141732286,
                    "duration": 0.1130369999999985
                },
                {
                    "name": "B4",
                    "midi": 71,
                    "time": 34.250210999999936,
                    "velocity": 0.33070866141732286,
                    "duration": 0.1130369999999985
                },
                {
                    "name": "F#4",
                    "midi": 66,
                    "time": 34.363247999999935,
                    "velocity": 0.31496062992125984,
                    "duration": 0.1130369999999985
                },
                {
                    "name": "A#4",
                    "midi": 70,
                    "time": 34.363247999999935,
                    "velocity": 0.31496062992125984,
                    "duration": 0.1130369999999985
                },
                {
                    "name": "G#4",
                    "midi": 68,
                    "time": 34.47628499999993,
                    "velocity": 0.2992125984251969,
                    "duration": 0.1130369999999985
                },
                {
                    "name": "F4",
                    "midi": 65,
                    "time": 34.47628499999993,
                    "velocity": 0.2992125984251969,
                    "duration": 0.1130369999999985
                },
                {
                    "name": "F#4",
                    "midi": 66,
                    "time": 34.58932199999993,
                    "velocity": 0.36220472440944884,
                    "duration": 0.1130369999999985
                },
                {
                    "name": "A#4",
                    "midi": 70,
                    "time": 34.58932199999993,
                    "velocity": 0.36220472440944884,
                    "duration": 0.1130369999999985
                },
                {
                    "name": "F#4",
                    "midi": 66,
                    "time": 34.81539599999993,
                    "velocity": 0.2992125984251969,
                    "duration": 0.1130369999999985
                },
                {
                    "name": "A#4",
                    "midi": 70,
                    "time": 34.81539599999993,
                    "velocity": 0.2992125984251969,
                    "duration": 0.1130369999999985
                },
                {
                    "name": "A#4",
                    "midi": 70,
                    "time": 35.041469999999926,
                    "velocity": 0.2992125984251969,
                    "duration": 0.1130369999999985
                },
                {
                    "name": "F#4",
                    "midi": 66,
                    "time": 35.041469999999926,
                    "velocity": 0.2992125984251969,
                    "duration": 0.1130369999999985
                },
                {
                    "name": "B4",
                    "midi": 71,
                    "time": 35.26754399999992,
                    "velocity": 0.3937007874015748,
                    "duration": 0.1130369999999985
                },
                {
                    "name": "G#4",
                    "midi": 68,
                    "time": 35.26754399999992,
                    "velocity": 0.3937007874015748,
                    "duration": 0.1130369999999985
                },
                {
                    "name": "F4",
                    "midi": 65,
                    "time": 35.26754399999992,
                    "velocity": 0.33070866141732286,
                    "duration": 0.1130369999999985
                },
                {
                    "name": "G#4",
                    "midi": 68,
                    "time": 35.49361799999992,
                    "velocity": 0.4015748031496063,
                    "duration": 0.1130369999999985
                },
                {
                    "name": "B4",
                    "midi": 71,
                    "time": 35.49361799999992,
                    "velocity": 0.4015748031496063,
                    "duration": 0.1130369999999985
                },
                {
                    "name": "F4",
                    "midi": 65,
                    "time": 35.49361799999992,
                    "velocity": 0.33858267716535434,
                    "duration": 0.1130369999999985
                },
                {
                    "name": "G#4",
                    "midi": 68,
                    "time": 35.71969199999992,
                    "velocity": 0.4409448818897638,
                    "duration": 0.1130369999999985
                },
                {
                    "name": "B4",
                    "midi": 71,
                    "time": 35.71969199999992,
                    "velocity": 0.4409448818897638,
                    "duration": 0.1130369999999985
                },
                {
                    "name": "F4",
                    "midi": 65,
                    "time": 35.71969199999992,
                    "velocity": 0.3700787401574803,
                    "duration": 0.1130369999999985
                },
                {
                    "name": "B5",
                    "midi": 83,
                    "time": 35.945765999999914,
                    "velocity": 0.4645669291338583,
                    "duration": 0.1130369999999985
                },
                {
                    "name": "G#5",
                    "midi": 80,
                    "time": 35.945765999999914,
                    "velocity": 0.4645669291338583,
                    "duration": 0.1130369999999985
                },
                {
                    "name": "F5",
                    "midi": 77,
                    "time": 35.945765999999914,
                    "velocity": 0.3937007874015748,
                    "duration": 0.1130369999999985
                },
                {
                    "name": "B5",
                    "midi": 83,
                    "time": 36.17183999999991,
                    "velocity": 0.5039370078740157,
                    "duration": 0.1130369999999985
                },
                {
                    "name": "G#5",
                    "midi": 80,
                    "time": 36.17183999999991,
                    "velocity": 0.5039370078740157,
                    "duration": 0.1130369999999985
                },
                {
                    "name": "F5",
                    "midi": 77,
                    "time": 36.17183999999991,
                    "velocity": 0.4251968503937008,
                    "duration": 0.1130369999999985
                },
                {
                    "name": "F5",
                    "midi": 77,
                    "time": 36.39791399999991,
                    "velocity": 0.4645669291338583,
                    "duration": 0.1130369999999985
                },
                {
                    "name": "G#5",
                    "midi": 80,
                    "time": 36.39791399999991,
                    "velocity": 0.5511811023622047,
                    "duration": 0.1130369999999985
                },
                {
                    "name": "B5",
                    "midi": 83,
                    "time": 36.39791399999991,
                    "velocity": 0.5511811023622047,
                    "duration": 0.1130369999999985
                },
                {
                    "name": "C7",
                    "midi": 96,
                    "time": 36.623987999999905,
                    "velocity": 0.5826771653543307,
                    "duration": 0.1130369999999985
                },
                {
                    "name": "G#6",
                    "midi": 92,
                    "time": 36.623987999999905,
                    "velocity": 0.4881889763779528,
                    "duration": 0.1130369999999985
                },
                {
                    "name": "A#6",
                    "midi": 94,
                    "time": 36.7370249999999,
                    "velocity": 0.5196850393700787,
                    "duration": 0.1130369999999985
                },
                {
                    "name": "G6",
                    "midi": 91,
                    "time": 36.7370249999999,
                    "velocity": 0.4409448818897638,
                    "duration": 0.1130369999999985
                },
                {
                    "name": "G#6",
                    "midi": 92,
                    "time": 36.8500619999999,
                    "velocity": 0.5748031496062992,
                    "duration": 0.1130369999999985
                },
                {
                    "name": "F6",
                    "midi": 89,
                    "time": 36.8500619999999,
                    "velocity": 0.48031496062992124,
                    "duration": 0.1130369999999985
                },
                {
                    "name": "G6",
                    "midi": 91,
                    "time": 36.9630989999999,
                    "velocity": 0.4330708661417323,
                    "duration": 0.1130369999999985
                },
                {
                    "name": "A#6",
                    "midi": 94,
                    "time": 36.9630989999999,
                    "velocity": 0.5039370078740157,
                    "duration": 0.1130369999999985
                },
                {
                    "name": "F6",
                    "midi": 89,
                    "time": 37.0761359999999,
                    "velocity": 0.48031496062992124,
                    "duration": 0.1130369999999985
                },
                {
                    "name": "G#6",
                    "midi": 92,
                    "time": 37.0761359999999,
                    "velocity": 0.5748031496062992,
                    "duration": 0.1130369999999985
                },
                {
                    "name": "G6",
                    "midi": 91,
                    "time": 37.1891729999999,
                    "velocity": 0.5039370078740157,
                    "duration": 0.1130369999999985
                },
                {
                    "name": "E6",
                    "midi": 88,
                    "time": 37.1891729999999,
                    "velocity": 0.4330708661417323,
                    "duration": 0.1130369999999985
                },
                {
                    "name": "F6",
                    "midi": 89,
                    "time": 37.302209999999896,
                    "velocity": 0.5748031496062992,
                    "duration": 0.1130369999999985
                },
                {
                    "name": "G6",
                    "midi": 91,
                    "time": 37.52828399999989,
                    "velocity": 0.5748031496062992,
                    "duration": 0.0565185000000028
                },
                {
                    "name": "G#6",
                    "midi": 92,
                    "time": 37.584802499999896,
                    "velocity": 0.5275590551181102,
                    "duration": 0.0565185000000028
                },
                {
                    "name": "G6",
                    "midi": 91,
                    "time": 37.6413209999999,
                    "velocity": 0.4566929133858268,
                    "duration": 0.0565185000000028
                },
                {
                    "name": "G#6",
                    "midi": 92,
                    "time": 37.6978394999999,
                    "velocity": 0.4251968503937008,
                    "duration": 0.0565185000000028
                },
                {
                    "name": "G6",
                    "midi": 91,
                    "time": 37.754357999999904,
                    "velocity": 0.4566929133858268,
                    "duration": 0.0565185000000028
                },
                {
                    "name": "G#6",
                    "midi": 92,
                    "time": 37.81087649999991,
                    "velocity": 0.4094488188976378,
                    "duration": 0.0565185000000028
                },
                {
                    "name": "G6",
                    "midi": 91,
                    "time": 37.86739499999991,
                    "velocity": 0.4566929133858268,
                    "duration": 0.0565185000000028
                },
                {
                    "name": "G#6",
                    "midi": 92,
                    "time": 37.92391349999991,
                    "velocity": 0.4094488188976378,
                    "duration": 0.0565185000000028
                },
                {
                    "name": "G6",
                    "midi": 91,
                    "time": 37.980431999999915,
                    "velocity": 0.4566929133858268,
                    "duration": 0.0565185000000028
                },
                {
                    "name": "G#6",
                    "midi": 92,
                    "time": 38.03695049999992,
                    "velocity": 0.4094488188976378,
                    "duration": 0.0565185000000028
                },
                {
                    "name": "G6",
                    "midi": 91,
                    "time": 38.09346899999992,
                    "velocity": 0.4566929133858268,
                    "duration": 0.07535800000000137
                },
                {
                    "name": "G#6",
                    "midi": 92,
                    "time": 38.16882699999992,
                    "velocity": 0.4251968503937008,
                    "duration": 0.07535800000000137
                },
                {
                    "name": "G6",
                    "midi": 91,
                    "time": 38.24418499999992,
                    "velocity": 0.4566929133858268,
                    "duration": 0.07535800000000137
                },
                {
                    "name": "F#6",
                    "midi": 90,
                    "time": 38.319542999999925,
                    "velocity": 0.4251968503937008,
                    "duration": 0.0565185000000028
                },
                {
                    "name": "G6",
                    "midi": 91,
                    "time": 38.37606149999993,
                    "velocity": 0.4409448818897638,
                    "duration": 0.0565185000000028
                },
                {
                    "name": "G#6",
                    "midi": 92,
                    "time": 38.43257999999993,
                    "velocity": 0.5433070866141733,
                    "duration": 0.1130369999999985
                },
                {
                    "name": "G6",
                    "midi": 91,
                    "time": 38.54561699999993,
                    "velocity": 0.48031496062992124,
                    "duration": 0.1130369999999985
                },
                {
                    "name": "F6",
                    "midi": 89,
                    "time": 38.65865399999993,
                    "velocity": 0.6377952755905512,
                    "duration": 0.1130369999999985
                },
                {
                    "name": "G5",
                    "midi": 79,
                    "time": 38.884727999999924,
                    "velocity": 0.5748031496062992,
                    "duration": 0.0565185000000028
                },
                {
                    "name": "G#5",
                    "midi": 80,
                    "time": 38.94124649999993,
                    "velocity": 0.5275590551181102,
                    "duration": 0.0565185000000028
                },
                {
                    "name": "G5",
                    "midi": 79,
                    "time": 38.99776499999993,
                    "velocity": 0.4566929133858268,
                    "duration": 0.0565185000000028
                },
                {
                    "name": "G#5",
                    "midi": 80,
                    "time": 39.05428349999993,
                    "velocity": 0.4251968503937008,
                    "duration": 0.0565185000000028
                },
                {
                    "name": "G5",
                    "midi": 79,
                    "time": 39.110801999999936,
                    "velocity": 0.4566929133858268,
                    "duration": 0.0565185000000028
                },
                {
                    "name": "G#5",
                    "midi": 80,
                    "time": 39.16732049999994,
                    "velocity": 0.4094488188976378,
                    "duration": 0.0565185000000028
                },
                {
                    "name": "G5",
                    "midi": 79,
                    "time": 39.22383899999994,
                    "velocity": 0.4566929133858268,
                    "duration": 0.0565185000000028
                },
                {
                    "name": "G#5",
                    "midi": 80,
                    "time": 39.280357499999944,
                    "velocity": 0.4094488188976378,
                    "duration": 0.0565185000000028
                },
                {
                    "name": "G5",
                    "midi": 79,
                    "time": 39.33687599999995,
                    "velocity": 0.4566929133858268,
                    "duration": 0.0565185000000028
                },
                {
                    "name": "G#5",
                    "midi": 80,
                    "time": 39.39339449999995,
                    "velocity": 0.4094488188976378,
                    "duration": 0.0565185000000028
                },
                {
                    "name": "G5",
                    "midi": 79,
                    "time": 39.44991299999995,
                    "velocity": 0.4566929133858268,
                    "duration": 0.07535800000000137
                },
                {
                    "name": "G#5",
                    "midi": 80,
                    "time": 39.525270999999954,
                    "velocity": 0.4251968503937008,
                    "duration": 0.07535800000000137
                },
                {
                    "name": "G5",
                    "midi": 79,
                    "time": 39.600628999999955,
                    "velocity": 0.4566929133858268,
                    "duration": 0.07535800000000137
                },
                {
                    "name": "F#5",
                    "midi": 78,
                    "time": 39.67598699999996,
                    "velocity": 0.4251968503937008,
                    "duration": 0.0565185000000028
                },
                {
                    "name": "G5",
                    "midi": 79,
                    "time": 39.73250549999996,
                    "velocity": 0.4409448818897638,
                    "duration": 0.0565185000000028
                },
                {
                    "name": "G#5",
                    "midi": 80,
                    "time": 39.78902399999996,
                    "velocity": 0.5433070866141733,
                    "duration": 0.1130369999999985
                },
                {
                    "name": "G5",
                    "midi": 79,
                    "time": 39.90206099999996,
                    "velocity": 0.49606299212598426,
                    "duration": 0.1130369999999985
                },
                {
                    "name": "F5",
                    "midi": 77,
                    "time": 40.01509799999996,
                    "velocity": 0.6377952755905512,
                    "duration": 0.1130369999999985
                },
                {
                    "name": "G6",
                    "midi": 91,
                    "time": 40.241171999999956,
                    "velocity": 0.5748031496062992,
                    "duration": 0.0565185000000028
                },
                {
                    "name": "G#6",
                    "midi": 92,
                    "time": 40.29769049999996,
                    "velocity": 0.5275590551181102,
                    "duration": 0.0565185000000028
                },
                {
                    "name": "G6",
                    "midi": 91,
                    "time": 40.35420899999996,
                    "velocity": 0.4566929133858268,
                    "duration": 0.0565185000000028
                },
                {
                    "name": "G#6",
                    "midi": 92,
                    "time": 40.410727499999965,
                    "velocity": 0.4251968503937008,
                    "duration": 0.0565185000000028
                },
                {
                    "name": "G6",
                    "midi": 91,
                    "time": 40.46724599999997,
                    "velocity": 0.4566929133858268,
                    "duration": 0.0565185000000028
                },
                {
                    "name": "G#6",
                    "midi": 92,
                    "time": 40.52376449999997,
                    "velocity": 0.4094488188976378,
                    "duration": 0.0565185000000028
                },
                {
                    "name": "G6",
                    "midi": 91,
                    "time": 40.58028299999997,
                    "velocity": 0.4566929133858268,
                    "duration": 0.0565185000000028
                },
                {
                    "name": "G#6",
                    "midi": 92,
                    "time": 40.636801499999976,
                    "velocity": 0.4094488188976378,
                    "duration": 0.0565185000000028
                },
                {
                    "name": "F#6",
                    "midi": 90,
                    "time": 40.69331999999998,
                    "velocity": 0.4566929133858268,
                    "duration": 0.0565185000000028
                },
                {
                    "name": "G6",
                    "midi": 91,
                    "time": 40.74983849999998,
                    "velocity": 0.41732283464566927,
                    "duration": 0.0565185000000028
                },
                {
                    "name": "G#6",
                    "midi": 92,
                    "time": 40.806356999999984,
                    "velocity": 0.4251968503937008,
                    "duration": 0.0565185000000028
                },
                {
                    "name": "A#6",
                    "midi": 94,
                    "time": 40.86287549999999,
                    "velocity": 0.4409448818897638,
                    "duration": 0.0565185000000028
                },
                {
                    "name": "C7",
                    "midi": 96,
                    "time": 40.91939399999999,
                    "velocity": 0.44881889763779526,
                    "duration": 0.0565185000000028
                },
                {
                    "name": "C#7",
                    "midi": 97,
                    "time": 40.97591249999999,
                    "velocity": 0.4566929133858268,
                    "duration": 0.0565185000000028
                },
                {
                    "name": "E7",
                    "midi": 100,
                    "time": 41.032430999999995,
                    "velocity": 0.47244094488188976,
                    "duration": 0.0565185000000028
                },
                {
                    "name": "F7",
                    "midi": 101,
                    "time": 41.0889495,
                    "velocity": 0.4881889763779528,
                    "duration": 0.0565185000000028
                },
                {
                    "name": "E7",
                    "midi": 100,
                    "time": 41.145468,
                    "velocity": 0.49606299212598426,
                    "duration": 0.03767899999999713
                },
                {
                    "name": "C#7",
                    "midi": 97,
                    "time": 41.183147,
                    "velocity": 0.4881889763779528,
                    "duration": 0.03767899999999713
                },
                {
                    "name": "C7",
                    "midi": 96,
                    "time": 41.221767975,
                    "velocity": 0.48031496062992124,
                    "duration": 0.03767899999999713
                },
                {
                    "name": "A#6",
                    "midi": 94,
                    "time": 41.259446974999996,
                    "velocity": 0.48031496062992124,
                    "duration": 0.03767900000000424
                },
                {
                    "name": "G#6",
                    "midi": 92,
                    "time": 41.296184,
                    "velocity": 0.47244094488188976,
                    "duration": 0.03767900000000424
                },
                {
                    "name": "G6",
                    "midi": 91,
                    "time": 41.333863,
                    "velocity": 0.4645669291338583,
                    "duration": 0.03767899999999713
                },
                {
                    "name": "F6",
                    "midi": 89,
                    "time": 41.371542,
                    "velocity": 0.6377952755905512,
                    "duration": 0.1130369999999985
                },
                {
                    "name": "G5",
                    "midi": 79,
                    "time": 41.597615999999995,
                    "velocity": 0.5748031496062992,
                    "duration": 0.0565185000000028
                },
                {
                    "name": "G#5",
                    "midi": 80,
                    "time": 41.6541345,
                    "velocity": 0.41732283464566927,
                    "duration": 0.0565185000000028
                },
                {
                    "name": "G5",
                    "midi": 79,
                    "time": 41.710653,
                    "velocity": 0.4566929133858268,
                    "duration": 0.0565185000000028
                },
                {
                    "name": "G#5",
                    "midi": 80,
                    "time": 41.7671715,
                    "velocity": 0.4251968503937008,
                    "duration": 0.0565185000000028
                },
                {
                    "name": "G5",
                    "midi": 79,
                    "time": 41.823690000000006,
                    "velocity": 0.4566929133858268,
                    "duration": 0.0565185000000028
                },
                {
                    "name": "G#5",
                    "midi": 80,
                    "time": 41.88020850000001,
                    "velocity": 0.4094488188976378,
                    "duration": 0.0565185000000028
                },
                {
                    "name": "G5",
                    "midi": 79,
                    "time": 41.93672700000001,
                    "velocity": 0.4566929133858268,
                    "duration": 0.0565185000000028
                },
                {
                    "name": "G#5",
                    "midi": 80,
                    "time": 41.993245500000015,
                    "velocity": 0.4094488188976378,
                    "duration": 0.0565185000000028
                },
                {
                    "name": "F#5",
                    "midi": 78,
                    "time": 42.04976400000002,
                    "velocity": 0.4566929133858268,
                    "duration": 0.04521479999999656
                },
                {
                    "name": "G5",
                    "midi": 79,
                    "time": 42.094978800000014,
                    "velocity": 0.41732283464566927,
                    "duration": 0.04521479999999656
                },
                {
                    "name": "G#5",
                    "midi": 80,
                    "time": 42.14019360000001,
                    "velocity": 0.4251968503937008,
                    "duration": 0.04521479999999656
                },
                {
                    "name": "A#5",
                    "midi": 82,
                    "time": 42.18540840000001,
                    "velocity": 0.4409448818897638,
                    "duration": 0.04521479999999656
                },
                {
                    "name": "C6",
                    "midi": 84,
                    "time": 42.230623200000004,
                    "velocity": 0.44881889763779526,
                    "duration": 0.04521479999999656
                },
                {
                    "name": "C#6",
                    "midi": 85,
                    "time": 42.275838,
                    "velocity": 0.4566929133858268,
                    "duration": 0.04521479999999656
                },
                {
                    "name": "E6",
                    "midi": 88,
                    "time": 42.3210528,
                    "velocity": 0.47244094488188976,
                    "duration": 0.04521479999999656
                },
                {
                    "name": "F6",
                    "midi": 89,
                    "time": 42.36626759999999,
                    "velocity": 0.4881889763779528,
                    "duration": 0.04521479999999656
                },
                {
                    "name": "G6",
                    "midi": 91,
                    "time": 42.41148239999999,
                    "velocity": 0.4881889763779528,
                    "duration": 0.04521479999999656
                },
                {
                    "name": "F6",
                    "midi": 89,
                    "time": 42.45669719999999,
                    "velocity": 0.4881889763779528,
                    "duration": 0.04521479999999656
                },
                {
                    "name": "E6",
                    "midi": 88,
                    "time": 42.50191199999998,
                    "velocity": 0.49606299212598426,
                    "duration": 0.031085175000001186
                },
                {
                    "name": "C#6",
                    "midi": 85,
                    "time": 42.532997174999984,
                    "velocity": 0.49606299212598426,
                    "duration": 0.031085175000001186
                },
                {
                    "name": "C6",
                    "midi": 84,
                    "time": 42.564082349999985,
                    "velocity": 0.4881889763779528,
                    "duration": 0.031085175000001186
                },
                {
                    "name": "A#5",
                    "midi": 82,
                    "time": 42.59516752499999,
                    "velocity": 0.48031496062992124,
                    "duration": 0.031085175000001186
                },
                {
                    "name": "G#5",
                    "midi": 80,
                    "time": 42.62625269999999,
                    "velocity": 0.48031496062992124,
                    "duration": 0.031085175000001186
                },
                {
                    "name": "G5",
                    "midi": 79,
                    "time": 42.65733787499999,
                    "velocity": 0.47244094488188976,
                    "duration": 0.031085175000001186
                },
                {
                    "name": "F5",
                    "midi": 77,
                    "time": 42.68842304999999,
                    "velocity": 0.4645669291338583,
                    "duration": 0.03956294999999699
                },
                {
                    "name": "E5",
                    "midi": 76,
                    "time": 42.72798599999999,
                    "velocity": 0.4566929133858268,
                    "duration": 0.0565185000000028
                },
                {
                    "name": "C#5",
                    "midi": 73,
                    "time": 42.78450449999999,
                    "velocity": 0.4330708661417323,
                    "duration": 0.0565185000000028
                },
                {
                    "name": "C5",
                    "midi": 72,
                    "time": 42.84102299999999,
                    "velocity": 0.41732283464566927,
                    "duration": 0.0565185000000028
                },
                {
                    "name": "A#4",
                    "midi": 70,
                    "time": 42.897541499999996,
                    "velocity": 0.4015748031496063,
                    "duration": 0.0565185000000028
                },
                {
                    "name": "G#4",
                    "midi": 68,
                    "time": 42.95406,
                    "velocity": 0.3858267716535433,
                    "duration": 0.0565185000000028
                },
                {
                    "name": "G4",
                    "midi": 67,
                    "time": 43.0105785,
                    "velocity": 0.3700787401574803,
                    "duration": 0.0565185000000028
                },
                {
                    "name": "F#4",
                    "midi": 66,
                    "time": 43.067097000000004,
                    "velocity": 0.3543307086614173,
                    "duration": 0.0565185000000028
                },
                {
                    "name": "G4",
                    "midi": 67,
                    "time": 43.12361550000001,
                    "velocity": 0.33070866141732286,
                    "duration": 0.0565185000000028
                },
                {
                    "name": "G#4",
                    "midi": 68,
                    "time": 43.18013400000001,
                    "velocity": 0.31496062992125984,
                    "duration": 0.03767899999999713
                },
                {
                    "name": "A4",
                    "midi": 69,
                    "time": 43.21781300000001,
                    "velocity": 0.31496062992125984,
                    "duration": 0.03767899999999713
                },
                {
                    "name": "A#4",
                    "midi": 70,
                    "time": 43.255492000000004,
                    "velocity": 0.30708661417322836,
                    "duration": 0.03767899999999713
                },
                {
                    "name": "B4",
                    "midi": 71,
                    "time": 43.293171,
                    "velocity": 0.30708661417322836,
                    "duration": 0.03767899999999713
                },
                {
                    "name": "C5",
                    "midi": 72,
                    "time": 43.33085,
                    "velocity": 0.29133858267716534,
                    "duration": 0.03767899999999713
                },
                {
                    "name": "C#5",
                    "midi": 73,
                    "time": 43.368528999999995,
                    "velocity": 0.29133858267716534,
                    "duration": 0.03767899999999713
                },
                {
                    "name": "C5",
                    "midi": 72,
                    "time": 43.40620799999999,
                    "velocity": 0.4409448818897638,
                    "duration": 0.0565185000000028
                },
                {
                    "name": "C5",
                    "midi": 72,
                    "time": 43.632282,
                    "velocity": 0.3543307086614173,
                    "duration": 0.1130369999999985
                },
                {
                    "name": "C#5",
                    "midi": 73,
                    "time": 43.745318999999995,
                    "velocity": 0.30708661417322836,
                    "duration": 0.1130369999999985
                },
                {
                    "name": "C5",
                    "midi": 72,
                    "time": 43.85835599999999,
                    "velocity": 0.36220472440944884,
                    "duration": 0.0565185000000028
                },
                {
                    "name": "C#5",
                    "midi": 73,
                    "time": 44.08443,
                    "velocity": 0.31496062992125984,
                    "duration": 0.0565185000000028
                },
                {
                    "name": "C5",
                    "midi": 72,
                    "time": 44.1409485,
                    "velocity": 0.3858267716535433,
                    "duration": 0.0565185000000028
                },
                {
                    "name": "C5",
                    "midi": 72,
                    "time": 44.310504,
                    "velocity": 0.3464566929133858,
                    "duration": 0.1130369999999985
                },
                {
                    "name": "C#5",
                    "midi": 73,
                    "time": 44.423541,
                    "velocity": 0.28346456692913385,
                    "duration": 0.1130369999999985
                },
                {
                    "name": "C5",
                    "midi": 72,
                    "time": 44.536578,
                    "velocity": 0.33070866141732286,
                    "duration": 0.0565185000000028
                },
                {
                    "name": "C5",
                    "midi": 72,
                    "time": 44.762652,
                    "velocity": 0.31496062992125984,
                    "duration": 0.1130369999999985
                },
                {
                    "name": "B4",
                    "midi": 71,
                    "time": 44.875689,
                    "velocity": 0.4094488188976378,
                    "duration": 0.0565185000000028
                },
                {
                    "name": "B4",
                    "midi": 71,
                    "time": 44.98872600000001,
                    "velocity": 0.3700787401574803,
                    "duration": 0.1130369999999985
                },
                {
                    "name": "D5",
                    "midi": 74,
                    "time": 45.101763000000005,
                    "velocity": 0.31496062992125984,
                    "duration": 0.1130369999999985
                },
                {
                    "name": "C5",
                    "midi": 72,
                    "time": 45.214800000000004,
                    "velocity": 0.3543307086614173,
                    "duration": 0.1130369999999985
                },
                {
                    "name": "B4",
                    "midi": 71,
                    "time": 45.327837,
                    "velocity": 0.28346456692913385,
                    "duration": 0.1130369999999985
                },
                {
                    "name": "C5",
                    "midi": 72,
                    "time": 45.440874,
                    "velocity": 0.36220472440944884,
                    "duration": 0.0565185000000028
                },
                {
                    "name": "G4",
                    "midi": 67,
                    "time": 45.666948000000005,
                    "velocity": 0.30708661417322836,
                    "duration": 0.4521480000000011
                },
                {
                    "name": "C5",
                    "midi": 72,
                    "time": 46.119096000000006,
                    "velocity": 0.36220472440944884,
                    "duration": 0.0565185000000028
                },
                {
                    "name": "G4",
                    "midi": 67,
                    "time": 46.34517000000001,
                    "velocity": 0.30708661417322836,
                    "duration": 0.0565185000000028
                },
                {
                    "name": "C5",
                    "midi": 72,
                    "time": 46.571244000000014,
                    "velocity": 0.36220472440944884,
                    "duration": 0.0565185000000028
                },
                {
                    "name": "A#4",
                    "midi": 70,
                    "time": 46.79731800000002,
                    "velocity": 0.36220472440944884,
                    "duration": 0.226073999999997
                },
                {
                    "name": "G#4",
                    "midi": 68,
                    "time": 47.023392000000015,
                    "velocity": 0.30708661417322836,
                    "duration": 0.1130369999999985
                },
                {
                    "name": "G4",
                    "midi": 67,
                    "time": 47.136429000000014,
                    "velocity": 0.30708661417322836,
                    "duration": 0.1130369999999985
                },
                {
                    "name": "F4",
                    "midi": 65,
                    "time": 47.24946600000001,
                    "velocity": 0.33858267716535434,
                    "duration": 0.226073999999997
                },
                {
                    "name": "G4",
                    "midi": 67,
                    "time": 47.47554000000001,
                    "velocity": 0.36220472440944884,
                    "duration": 0.1130369999999985
                },
                {
                    "name": "A#4",
                    "midi": 70,
                    "time": 47.58857700000001,
                    "velocity": 0.2992125984251969,
                    "duration": 0.1130369999999985
                },
                {
                    "name": "G4",
                    "midi": 67,
                    "time": 47.701614000000006,
                    "velocity": 0.36220472440944884,
                    "duration": 0.1130369999999985
                },
                {
                    "name": "A#4",
                    "midi": 70,
                    "time": 47.814651000000005,
                    "velocity": 0.31496062992125984,
                    "duration": 0.1130369999999985
                },
                {
                    "name": "E4",
                    "midi": 64,
                    "time": 47.927688,
                    "velocity": 0.36220472440944884,
                    "duration": 0.1130369999999985
                },
                {
                    "name": "G4",
                    "midi": 67,
                    "time": 48.040725,
                    "velocity": 0.31496062992125984,
                    "duration": 0.1130369999999985
                },
                {
                    "name": "F4",
                    "midi": 65,
                    "time": 48.153762,
                    "velocity": 0.36220472440944884,
                    "duration": 0.1130369999999985
                },
                {
                    "name": "G#4",
                    "midi": 68,
                    "time": 48.266799,
                    "velocity": 0.29133858267716534,
                    "duration": 0.1130369999999985
                },
                {
                    "name": "C5",
                    "midi": 72,
                    "time": 48.379836,
                    "velocity": 0.33070866141732286,
                    "duration": 0.1130369999999985
                },
                {
                    "name": "F5",
                    "midi": 77,
                    "time": 48.492872999999996,
                    "velocity": 0.3700787401574803,
                    "duration": 0.1130369999999985
                },
                {
                    "name": "G#5",
                    "midi": 80,
                    "time": 48.605909999999994,
                    "velocity": 0.4094488188976378,
                    "duration": 0.1130369999999985
                },
                {
                    "name": "A#5",
                    "midi": 82,
                    "time": 48.71894699999999,
                    "velocity": 0.44881889763779526,
                    "duration": 0.1130369999999985
                },
                {
                    "name": "C6",
                    "midi": 84,
                    "time": 48.83198399999999,
                    "velocity": 0.5118110236220472,
                    "duration": 0.0565185000000028
                },
                {
                    "name": "C6",
                    "midi": 84,
                    "time": 49.058057999999996,
                    "velocity": 0.4251968503937008,
                    "duration": 0.1130369999999985
                },
                {
                    "name": "C#6",
                    "midi": 85,
                    "time": 49.171094999999994,
                    "velocity": 0.36220472440944884,
                    "duration": 0.1130369999999985
                },
                {
                    "name": "C6",
                    "midi": 84,
                    "time": 49.28413199999999,
                    "velocity": 0.4330708661417323,
                    "duration": 0.0565185000000028
                },
                {
                    "name": "C#6",
                    "midi": 85,
                    "time": 49.510206,
                    "velocity": 0.3779527559055118,
                    "duration": 0.0565185000000028
                },
                {
                    "name": "C6",
                    "midi": 84,
                    "time": 49.5667245,
                    "velocity": 0.5039370078740157,
                    "duration": 0.0565185000000028
                },
                {
                    "name": "C6",
                    "midi": 84,
                    "time": 49.73628,
                    "velocity": 0.4094488188976378,
                    "duration": 0.1130369999999985
                },
                {
                    "name": "C#6",
                    "midi": 85,
                    "time": 49.849317,
                    "velocity": 0.33858267716535434,
                    "duration": 0.1130369999999985
                },
                {
                    "name": "C6",
                    "midi": 84,
                    "time": 49.962354,
                    "velocity": 0.3937007874015748,
                    "duration": 0.0565185000000028
                },
                {
                    "name": "C6",
                    "midi": 84,
                    "time": 50.188428,
                    "velocity": 0.48031496062992124,
                    "duration": 0.1130369999999985
                },
                {
                    "name": "B5",
                    "midi": 83,
                    "time": 50.301465,
                    "velocity": 0.3779527559055118,
                    "duration": 0.1130369999999985
                },
                {
                    "name": "F6",
                    "midi": 89,
                    "time": 50.414502,
                    "velocity": 0.4409448818897638,
                    "duration": 0.1130369999999985
                },
                {
                    "name": "B5",
                    "midi": 83,
                    "time": 50.527539,
                    "velocity": 0.3779527559055118,
                    "duration": 0.1130369999999985
                },
                {
                    "name": "F6",
                    "midi": 89,
                    "time": 50.640575999999996,
                    "velocity": 0.4251968503937008,
                    "duration": 0.1130369999999985
                },
                {
                    "name": "B5",
                    "midi": 83,
                    "time": 50.753612999999994,
                    "velocity": 0.33858267716535434,
                    "duration": 0.1130369999999985
                },
                {
                    "name": "C6",
                    "midi": 84,
                    "time": 50.86664999999999,
                    "velocity": 0.4330708661417323,
                    "duration": 0.0565185000000028
                },
                {
                    "name": "G5",
                    "midi": 79,
                    "time": 51.092724,
                    "velocity": 0.36220472440944884,
                    "duration": 0.4521480000000011
                },
                {
                    "name": "C6",
                    "midi": 84,
                    "time": 51.544872,
                    "velocity": 0.44881889763779526,
                    "duration": 0.0565185000000028
                },
                {
                    "name": "G5",
                    "midi": 79,
                    "time": 51.770946,
                    "velocity": 0.36220472440944884,
                    "duration": 0.0565185000000028
                },
                {
                    "name": "C6",
                    "midi": 84,
                    "time": 51.997020000000006,
                    "velocity": 0.4330708661417323,
                    "duration": 0.0565185000000028
                },
                {
                    "name": "A#5",
                    "midi": 82,
                    "time": 52.22309400000001,
                    "velocity": 0.4881889763779528,
                    "duration": 0.226073999999997
                },
                {
                    "name": "G#5",
                    "midi": 80,
                    "time": 52.44916800000001,
                    "velocity": 0.3858267716535433,
                    "duration": 0.1130369999999985
                },
                {
                    "name": "G5",
                    "midi": 79,
                    "time": 52.562205000000006,
                    "velocity": 0.3858267716535433,
                    "duration": 0.1130369999999985
                },
                {
                    "name": "F5",
                    "midi": 77,
                    "time": 52.675242000000004,
                    "velocity": 0.44881889763779526,
                    "duration": 0.226073999999997
                },
                {
                    "name": "A#5",
                    "midi": 82,
                    "time": 52.901316,
                    "velocity": 0.48031496062992124,
                    "duration": 0.0565185000000028
                },
                {
                    "name": "F5",
                    "midi": 77,
                    "time": 53.127390000000005,
                    "velocity": 0.3779527559055118,
                    "duration": 0.0565185000000028
                },
                {
                    "name": "A#5",
                    "midi": 82,
                    "time": 53.35346400000001,
                    "velocity": 0.44881889763779526,
                    "duration": 0.0565185000000028
                },
                {
                    "name": "G#5",
                    "midi": 80,
                    "time": 53.579538000000014,
                    "velocity": 0.49606299212598426,
                    "duration": 0.226073999999997
                },
                {
                    "name": "G5",
                    "midi": 79,
                    "time": 53.80561200000001,
                    "velocity": 0.3937007874015748,
                    "duration": 0.1130369999999985
                },
                {
                    "name": "F5",
                    "midi": 77,
                    "time": 53.91864900000001,
                    "velocity": 0.3937007874015748,
                    "duration": 0.1130369999999985
                },
                {
                    "name": "D#5",
                    "midi": 75,
                    "time": 54.03168600000001,
                    "velocity": 0.4330708661417323,
                    "duration": 0.226073999999997
                },
                {
                    "name": "G#5",
                    "midi": 80,
                    "time": 54.257760000000005,
                    "velocity": 0.5039370078740157,
                    "duration": 0.0565185000000028
                },
                {
                    "name": "D#5",
                    "midi": 75,
                    "time": 54.48383400000001,
                    "velocity": 0.3858267716535433,
                    "duration": 0.0565185000000028
                },
                {
                    "name": "G#5",
                    "midi": 80,
                    "time": 54.70990800000001,
                    "velocity": 0.4566929133858268,
                    "duration": 0.0565185000000028
                },
                {
                    "name": "A5",
                    "midi": 81,
                    "time": 54.93598200000002,
                    "velocity": 0.49606299212598426,
                    "duration": 0.0565185000000028
                },
                {
                    "name": "D#5",
                    "midi": 75,
                    "time": 55.16205600000002,
                    "velocity": 0.41732283464566927,
                    "duration": 0.0565185000000028
                },
                {
                    "name": "A5",
                    "midi": 81,
                    "time": 55.388130000000025,
                    "velocity": 0.48031496062992124,
                    "duration": 0.0565185000000028
                },
                {
                    "name": "A#5",
                    "midi": 82,
                    "time": 55.61420400000003,
                    "velocity": 0.5905511811023622,
                    "duration": 0.0565185000000028
                },
                {
                    "name": "D5",
                    "midi": 74,
                    "time": 55.84027800000003,
                    "velocity": 0.5433070866141733,
                    "duration": 0.0565185000000028
                },
                {
                    "name": "F5",
                    "midi": 77,
                    "time": 55.84027800000003,
                    "velocity": 0.5433070866141733,
                    "duration": 0.0565185000000028
                },
                {
                    "name": "D6",
                    "midi": 86,
                    "time": 56.06635200000004,
                    "velocity": 0.6299212598425197,
                    "duration": 0.0565185000000028
                },
                {
                    "name": "A#5",
                    "midi": 82,
                    "time": 56.29242600000004,
                    "velocity": 0.5590551181102362,
                    "duration": 0.0565185000000028
                },
                {
                    "name": "F5",
                    "midi": 77,
                    "time": 56.29242600000004,
                    "velocity": 0.5590551181102362,
                    "duration": 0.0565185000000028
                },
                {
                    "name": "F6",
                    "midi": 89,
                    "time": 56.518500000000046,
                    "velocity": 0.6535433070866141,
                    "duration": 0.0565185000000028
                },
                {
                    "name": "A#5",
                    "midi": 82,
                    "time": 56.74457400000005,
                    "velocity": 0.5748031496062992,
                    "duration": 0.0565185000000028
                },
                {
                    "name": "D6",
                    "midi": 86,
                    "time": 56.74457400000005,
                    "velocity": 0.5748031496062992,
                    "duration": 0.0565185000000028
                },
                {
                    "name": "G#6",
                    "midi": 92,
                    "time": 56.970648000000054,
                    "velocity": 0.6141732283464567,
                    "duration": 0.1130369999999985
                },
                {
                    "name": "F#6",
                    "midi": 90,
                    "time": 57.08368500000005,
                    "velocity": 0.5196850393700787,
                    "duration": 0.1130369999999985
                },
                {
                    "name": "F6",
                    "midi": 89,
                    "time": 57.19672200000005,
                    "velocity": 0.6062992125984252,
                    "duration": 0.1130369999999985
                },
                {
                    "name": "F#6",
                    "midi": 90,
                    "time": 57.30975900000005,
                    "velocity": 0.4881889763779528,
                    "duration": 0.1130369999999985
                },
                {
                    "name": "D#6",
                    "midi": 87,
                    "time": 57.42279600000005,
                    "velocity": 0.5590551181102362,
                    "duration": 0.1130369999999985
                },
                {
                    "name": "C6",
                    "midi": 84,
                    "time": 57.648870000000045,
                    "velocity": 0.5196850393700787,
                    "duration": 0.1130369999999985
                },
                {
                    "name": "A5",
                    "midi": 81,
                    "time": 57.87494400000004,
                    "velocity": 0.48031496062992124,
                    "duration": 0.1130369999999985
                },
                {
                    "name": "F#5",
                    "midi": 78,
                    "time": 58.10101800000004,
                    "velocity": 0.4094488188976378,
                    "duration": 0.1130369999999985
                },
                {
                    "name": "A#5",
                    "midi": 82,
                    "time": 58.327092000000036,
                    "velocity": 0.5905511811023622,
                    "duration": 0.0565185000000028
                },
                {
                    "name": "F5",
                    "midi": 77,
                    "time": 58.55316600000004,
                    "velocity": 0.5433070866141733,
                    "duration": 0.0565185000000028
                },
                {
                    "name": "D5",
                    "midi": 74,
                    "time": 58.55316600000004,
                    "velocity": 0.5433070866141733,
                    "duration": 0.0565185000000028
                },
                {
                    "name": "D6",
                    "midi": 86,
                    "time": 58.779240000000044,
                    "velocity": 0.6299212598425197,
                    "duration": 0.0565185000000028
                },
                {
                    "name": "F5",
                    "midi": 77,
                    "time": 59.00531400000005,
                    "velocity": 0.5590551181102362,
                    "duration": 0.0565185000000028
                },
                {
                    "name": "A#5",
                    "midi": 82,
                    "time": 59.00531400000005,
                    "velocity": 0.5590551181102362,
                    "duration": 0.0565185000000028
                },
                {
                    "name": "F6",
                    "midi": 89,
                    "time": 59.23138800000005,
                    "velocity": 0.6535433070866141,
                    "duration": 0.0565185000000028
                },
                {
                    "name": "D6",
                    "midi": 86,
                    "time": 59.457462000000056,
                    "velocity": 0.5748031496062992,
                    "duration": 0.0565185000000028
                },
                {
                    "name": "A#5",
                    "midi": 82,
                    "time": 59.457462000000056,
                    "velocity": 0.5748031496062992,
                    "duration": 0.0565185000000028
                },
                {
                    "name": "G#6",
                    "midi": 92,
                    "time": 59.68353600000006,
                    "velocity": 0.6141732283464567,
                    "duration": 0.1130369999999985
                },
                {
                    "name": "F#6",
                    "midi": 90,
                    "time": 59.79657300000006,
                    "velocity": 0.5196850393700787,
                    "duration": 0.1130369999999985
                },
                {
                    "name": "F6",
                    "midi": 89,
                    "time": 59.90961000000006,
                    "velocity": 0.6062992125984252,
                    "duration": 0.1130369999999985
                },
                {
                    "name": "F#6",
                    "midi": 90,
                    "time": 60.022647000000056,
                    "velocity": 0.4881889763779528,
                    "duration": 0.1130369999999985
                },
                {
                    "name": "D#6",
                    "midi": 87,
                    "time": 60.135684000000055,
                    "velocity": 0.5433070866141733,
                    "duration": 0.1130369999999985
                },
                {
                    "name": "C6",
                    "midi": 84,
                    "time": 60.36175800000005,
                    "velocity": 0.5196850393700787,
                    "duration": 0.1130369999999985
                },
                {
                    "name": "A5",
                    "midi": 81,
                    "time": 60.58783200000005,
                    "velocity": 0.48031496062992124,
                    "duration": 0.1130369999999985
                },
                {
                    "name": "F#5",
                    "midi": 78,
                    "time": 60.813906000000046,
                    "velocity": 0.4094488188976378,
                    "duration": 0.1130369999999985
                },
                {
                    "name": "A#5",
                    "midi": 82,
                    "time": 61.03998000000004,
                    "velocity": 0.5905511811023622,
                    "duration": 0.0565185000000028
                },
                {
                    "name": "F5",
                    "midi": 77,
                    "time": 61.26605400000005,
                    "velocity": 0.5433070866141733,
                    "duration": 0.0565185000000028
                },
                {
                    "name": "D5",
                    "midi": 74,
                    "time": 61.26605400000005,
                    "velocity": 0.5433070866141733,
                    "duration": 0.0565185000000028
                },
                {
                    "name": "B5",
                    "midi": 83,
                    "time": 61.49212800000005,
                    "velocity": 0.6062992125984252,
                    "duration": 0.0565185000000028
                },
                {
                    "name": "D5",
                    "midi": 74,
                    "time": 61.718202000000055,
                    "velocity": 0.5590551181102362,
                    "duration": 0.0565185000000028
                },
                {
                    "name": "F5",
                    "midi": 77,
                    "time": 61.718202000000055,
                    "velocity": 0.5590551181102362,
                    "duration": 0.0565185000000028
                },
                {
                    "name": "D6",
                    "midi": 86,
                    "time": 61.94427600000006,
                    "velocity": 0.6535433070866141,
                    "duration": 0.0565185000000028
                },
                {
                    "name": "B5",
                    "midi": 83,
                    "time": 62.17035000000006,
                    "velocity": 0.5748031496062992,
                    "duration": 0.0565185000000028
                },
                {
                    "name": "F5",
                    "midi": 77,
                    "time": 62.17035000000006,
                    "velocity": 0.5748031496062992,
                    "duration": 0.0565185000000028
                },
                {
                    "name": "C6",
                    "midi": 84,
                    "time": 62.39642400000007,
                    "velocity": 0.5905511811023622,
                    "duration": 0.0565185000000028
                },
                {
                    "name": "E5",
                    "midi": 76,
                    "time": 62.62249800000007,
                    "velocity": 0.5433070866141733,
                    "duration": 0.0565185000000028
                },
                {
                    "name": "G5",
                    "midi": 79,
                    "time": 62.62249800000007,
                    "velocity": 0.5433070866141733,
                    "duration": 0.0565185000000028
                },
                {
                    "name": "E6",
                    "midi": 88,
                    "time": 62.848572000000075,
                    "velocity": 0.6062992125984252,
                    "duration": 0.0565185000000028
                },
                {
                    "name": "G5",
                    "midi": 79,
                    "time": 63.07464600000008,
                    "velocity": 0.5590551181102362,
                    "duration": 0.0565185000000028
                },
                {
                    "name": "C#6",
                    "midi": 85,
                    "time": 63.07464600000008,
                    "velocity": 0.5590551181102362,
                    "duration": 0.0565185000000028
                },
                {
                    "name": "G6",
                    "midi": 91,
                    "time": 63.300720000000084,
                    "velocity": 0.6535433070866141,
                    "duration": 0.0565185000000028
                },
                {
                    "name": "C#6",
                    "midi": 85,
                    "time": 63.52679400000009,
                    "velocity": 0.5748031496062992,
                    "duration": 0.0565185000000028
                },
                {
                    "name": "A#5",
                    "midi": 82,
                    "time": 63.52679400000009,
                    "velocity": 0.5748031496062992,
                    "duration": 0.0565185000000028
                },
                {
                    "name": "E6",
                    "midi": 88,
                    "time": 63.52679400000009,
                    "velocity": 0.5748031496062992,
                    "duration": 0.0565185000000028
                },
                {
                    "name": "F6",
                    "midi": 89,
                    "time": 63.75286800000009,
                    "velocity": 0.5905511811023622,
                    "duration": 0.0565185000000028
                },
                {
                    "name": "F5",
                    "midi": 77,
                    "time": 63.978942000000096,
                    "velocity": 0.5433070866141733,
                    "duration": 0.0565185000000028
                },
                {
                    "name": "C6",
                    "midi": 84,
                    "time": 63.978942000000096,
                    "velocity": 0.5433070866141733,
                    "duration": 0.0565185000000028
                },
                {
                    "name": "A#6",
                    "midi": 94,
                    "time": 64.2050160000001,
                    "velocity": 0.6062992125984252,
                    "duration": 0.0565184999999957
                },
                {
                    "name": "A#5",
                    "midi": 82,
                    "time": 64.4310900000001,
                    "velocity": 0.5590551181102362,
                    "duration": 0.0565184999999957
                },
                {
                    "name": "C7",
                    "midi": 96,
                    "time": 64.6571640000001,
                    "velocity": 0.6535433070866141,
                    "duration": 0.0565184999999957
                },
                {
                    "name": "C6",
                    "midi": 84,
                    "time": 64.88323800000009,
                    "velocity": 0.5748031496062992,
                    "duration": 0.0565184999999957
                },
                {
                    "name": "F7",
                    "midi": 101,
                    "time": 65.10931200000009,
                    "velocity": 0.6850393700787402,
                    "duration": 0.1130370000000056
                },
                {
                    "name": "F6",
                    "midi": 89,
                    "time": 65.10931200000009,
                    "velocity": 0.5748031496062992,
                    "duration": 0.1130370000000056
                },
                {
                    "name": "G6",
                    "midi": 91,
                    "time": 65.3353860000001,
                    "velocity": 0.5748031496062992,
                    "duration": 0.0565184999999957
                },
                {
                    "name": "G#6",
                    "midi": 92,
                    "time": 65.3919045000001,
                    "velocity": 0.5275590551181102,
                    "duration": 0.0565184999999957
                },
                {
                    "name": "G6",
                    "midi": 91,
                    "time": 65.44842300000009,
                    "velocity": 0.4566929133858268,
                    "duration": 0.0565184999999957
                },
                {
                    "name": "G#6",
                    "midi": 92,
                    "time": 65.50494150000009,
                    "velocity": 0.4251968503937008,
                    "duration": 0.0565184999999957
                },
                {
                    "name": "G6",
                    "midi": 91,
                    "time": 65.56146000000008,
                    "velocity": 0.4566929133858268,
                    "duration": 0.0565184999999957
                },
                {
                    "name": "G#6",
                    "midi": 92,
                    "time": 65.61797850000008,
                    "velocity": 0.4094488188976378,
                    "duration": 0.0565184999999957
                },
                {
                    "name": "G6",
                    "midi": 91,
                    "time": 65.67449700000007,
                    "velocity": 0.4566929133858268,
                    "duration": 0.0565184999999957
                },
                {
                    "name": "G#6",
                    "midi": 92,
                    "time": 65.73101550000007,
                    "velocity": 0.4094488188976378,
                    "duration": 0.0565184999999957
                },
                {
                    "name": "G6",
                    "midi": 91,
                    "time": 65.78753400000006,
                    "velocity": 0.4566929133858268,
                    "duration": 0.0565184999999957
                },
                {
                    "name": "G#6",
                    "midi": 92,
                    "time": 65.84405250000006,
                    "velocity": 0.4094488188976378,
                    "duration": 0.0565184999999957
                },
                {
                    "name": "G6",
                    "midi": 91,
                    "time": 65.90057100000006,
                    "velocity": 0.4566929133858268,
                    "duration": 0.07535799999999426
                },
                {
                    "name": "G#6",
                    "midi": 92,
                    "time": 65.97592900000005,
                    "velocity": 0.4251968503937008,
                    "duration": 0.07535799999999426
                },
                {
                    "name": "G6",
                    "midi": 91,
                    "time": 66.05128700000004,
                    "velocity": 0.4566929133858268,
                    "duration": 0.07535799999999426
                },
                {
                    "name": "F#6",
                    "midi": 90,
                    "time": 66.12664500000004,
                    "velocity": 0.4251968503937008,
                    "duration": 0.0565184999999957
                },
                {
                    "name": "G6",
                    "midi": 91,
                    "time": 66.18316350000003,
                    "velocity": 0.4409448818897638,
                    "duration": 0.0565184999999957
                },
                {
                    "name": "G#6",
                    "midi": 92,
                    "time": 66.23968200000003,
                    "velocity": 0.5039370078740157,
                    "duration": 0.1130370000000056
                },
                {
                    "name": "G6",
                    "midi": 91,
                    "time": 66.35271900000004,
                    "velocity": 0.4566929133858268,
                    "duration": 0.1130370000000056
                },
                {
                    "name": "F6",
                    "midi": 89,
                    "time": 66.46575600000004,
                    "velocity": 0.6377952755905512,
                    "duration": 0.1130370000000056
                },
                {
                    "name": "G5",
                    "midi": 79,
                    "time": 66.69183000000005,
                    "velocity": 0.5748031496062992,
                    "duration": 0.0565184999999957
                },
                {
                    "name": "G#5",
                    "midi": 80,
                    "time": 66.74834850000005,
                    "velocity": 0.5275590551181102,
                    "duration": 0.0565184999999957
                },
                {
                    "name": "G5",
                    "midi": 79,
                    "time": 66.80486700000004,
                    "velocity": 0.4566929133858268,
                    "duration": 0.0565184999999957
                },
                {
                    "name": "G#5",
                    "midi": 80,
                    "time": 66.86138550000004,
                    "velocity": 0.4251968503937008,
                    "duration": 0.0565184999999957
                },
                {
                    "name": "G5",
                    "midi": 79,
                    "time": 66.91790400000004,
                    "velocity": 0.4566929133858268,
                    "duration": 0.0565184999999957
                },
                {
                    "name": "G#5",
                    "midi": 80,
                    "time": 66.97442250000003,
                    "velocity": 0.4094488188976378,
                    "duration": 0.0565184999999957
                },
                {
                    "name": "G5",
                    "midi": 79,
                    "time": 67.03094100000003,
                    "velocity": 0.4566929133858268,
                    "duration": 0.0565184999999957
                },
                {
                    "name": "G#5",
                    "midi": 80,
                    "time": 67.08745950000002,
                    "velocity": 0.4094488188976378,
                    "duration": 0.0565184999999957
                },
                {
                    "name": "G5",
                    "midi": 79,
                    "time": 67.14397800000002,
                    "velocity": 0.4566929133858268,
                    "duration": 0.0565184999999957
                },
                {
                    "name": "G#5",
                    "midi": 80,
                    "time": 67.20049650000001,
                    "velocity": 0.4094488188976378,
                    "duration": 0.0565184999999957
                },
                {
                    "name": "G5",
                    "midi": 79,
                    "time": 67.25701500000001,
                    "velocity": 0.4566929133858268,
                    "duration": 0.07535799999999426
                },
                {
                    "name": "G#5",
                    "midi": 80,
                    "time": 67.332373,
                    "velocity": 0.4251968503937008,
                    "duration": 0.07535799999999426
                },
                {
                    "name": "G5",
                    "midi": 79,
                    "time": 67.407731,
                    "velocity": 0.4566929133858268,
                    "duration": 0.07535799999999426
                },
                {
                    "name": "F#5",
                    "midi": 78,
                    "time": 67.48308899999999,
                    "velocity": 0.4251968503937008,
                    "duration": 0.0565184999999957
                },
                {
                    "name": "G5",
                    "midi": 79,
                    "time": 67.53960749999999,
                    "velocity": 0.4409448818897638,
                    "duration": 0.0565184999999957
                },
                {
                    "name": "G#5",
                    "midi": 80,
                    "time": 67.59612599999998,
                    "velocity": 0.5039370078740157,
                    "duration": 0.1130370000000056
                },
                {
                    "name": "G5",
                    "midi": 79,
                    "time": 67.70916299999999,
                    "velocity": 0.4566929133858268,
                    "duration": 0.1130370000000056
                },
                {
                    "name": "F5",
                    "midi": 77,
                    "time": 67.8222,
                    "velocity": 0.6377952755905512,
                    "duration": 0.1130370000000056
                },
                {
                    "name": "G6",
                    "midi": 91,
                    "time": 68.048274,
                    "velocity": 0.5748031496062992,
                    "duration": 0.0565184999999957
                },
                {
                    "name": "G#6",
                    "midi": 92,
                    "time": 68.1047925,
                    "velocity": 0.5275590551181102,
                    "duration": 0.0565184999999957
                },
                {
                    "name": "G6",
                    "midi": 91,
                    "time": 68.161311,
                    "velocity": 0.4566929133858268,
                    "duration": 0.0565184999999957
                },
                {
                    "name": "G#6",
                    "midi": 92,
                    "time": 68.2178295,
                    "velocity": 0.4251968503937008,
                    "duration": 0.0565184999999957
                },
                {
                    "name": "G6",
                    "midi": 91,
                    "time": 68.27434799999999,
                    "velocity": 0.4566929133858268,
                    "duration": 0.0565184999999957
                },
                {
                    "name": "G#6",
                    "midi": 92,
                    "time": 68.33086649999998,
                    "velocity": 0.4094488188976378,
                    "duration": 0.0565184999999957
                },
                {
                    "name": "G6",
                    "midi": 91,
                    "time": 68.38738499999998,
                    "velocity": 0.4566929133858268,
                    "duration": 0.0565184999999957
                },
                {
                    "name": "G#6",
                    "midi": 92,
                    "time": 68.44390349999998,
                    "velocity": 0.4094488188976378,
                    "duration": 0.0565184999999957
                },
                {
                    "name": "F#6",
                    "midi": 90,
                    "time": 68.50042199999997,
                    "velocity": 0.4566929133858268,
                    "duration": 0.0565184999999957
                },
                {
                    "name": "G6",
                    "midi": 91,
                    "time": 68.55694049999997,
                    "velocity": 0.41732283464566927,
                    "duration": 0.0565184999999957
                },
                {
                    "name": "G#6",
                    "midi": 92,
                    "time": 68.61345899999996,
                    "velocity": 0.4251968503937008,
                    "duration": 0.0565184999999957
                },
                {
                    "name": "A#6",
                    "midi": 94,
                    "time": 68.66997749999996,
                    "velocity": 0.4409448818897638,
                    "duration": 0.0565184999999957
                },
                {
                    "name": "C7",
                    "midi": 96,
                    "time": 68.72649599999995,
                    "velocity": 0.44881889763779526,
                    "duration": 0.0565184999999957
                },
                {
                    "name": "C#7",
                    "midi": 97,
                    "time": 68.78301449999995,
                    "velocity": 0.4566929133858268,
                    "duration": 0.0565184999999957
                },
                {
                    "name": "E7",
                    "midi": 100,
                    "time": 68.83953299999995,
                    "velocity": 0.47244094488188976,
                    "duration": 0.0565184999999957
                },
                {
                    "name": "F7",
                    "midi": 101,
                    "time": 68.89605149999994,
                    "velocity": 0.4881889763779528,
                    "duration": 0.0565184999999957
                },
                {
                    "name": "E7",
                    "midi": 100,
                    "time": 68.95256999999994,
                    "velocity": 0.49606299212598426,
                    "duration": 0.03767899999999713
                },
                {
                    "name": "C#7",
                    "midi": 97,
                    "time": 68.99024899999993,
                    "velocity": 0.4881889763779528,
                    "duration": 0.03767899999999713
                },
                {
                    "name": "C7",
                    "midi": 96,
                    "time": 69.02886997499994,
                    "velocity": 0.48031496062992124,
                    "duration": 0.03767899999999713
                },
                {
                    "name": "A#6",
                    "midi": 94,
                    "time": 69.06654897499993,
                    "velocity": 0.48031496062992124,
                    "duration": 0.03767899999999713
                },
                {
                    "name": "G#6",
                    "midi": 92,
                    "time": 69.10328599999993,
                    "velocity": 0.47244094488188976,
                    "duration": 0.03767899999999713
                },
                {
                    "name": "G6",
                    "midi": 91,
                    "time": 69.14096499999992,
                    "velocity": 0.4645669291338583,
                    "duration": 0.03767899999999713
                },
                {
                    "name": "F6",
                    "midi": 89,
                    "time": 69.17864399999992,
                    "velocity": 0.6377952755905512,
                    "duration": 0.1130370000000056
                },
                {
                    "name": "G5",
                    "midi": 79,
                    "time": 69.40471799999993,
                    "velocity": 0.5748031496062992,
                    "duration": 0.0565184999999957
                },
                {
                    "name": "G#5",
                    "midi": 80,
                    "time": 69.46123649999993,
                    "velocity": 0.5275590551181102,
                    "duration": 0.0565184999999957
                },
                {
                    "name": "G5",
                    "midi": 79,
                    "time": 69.51775499999992,
                    "velocity": 0.4566929133858268,
                    "duration": 0.0565184999999957
                },
                {
                    "name": "G#5",
                    "midi": 80,
                    "time": 69.57427349999992,
                    "velocity": 0.4251968503937008,
                    "duration": 0.0565184999999957
                },
                {
                    "name": "G5",
                    "midi": 79,
                    "time": 69.63079199999991,
                    "velocity": 0.4566929133858268,
                    "duration": 0.0565184999999957
                },
                {
                    "name": "G#5",
                    "midi": 80,
                    "time": 69.68731049999991,
                    "velocity": 0.4094488188976378,
                    "duration": 0.0565184999999957
                },
                {
                    "name": "G5",
                    "midi": 79,
                    "time": 69.7438289999999,
                    "velocity": 0.4566929133858268,
                    "duration": 0.0565184999999957
                },
                {
                    "name": "G#5",
                    "midi": 80,
                    "time": 69.8003474999999,
                    "velocity": 0.4094488188976378,
                    "duration": 0.0565184999999957
                },
                {
                    "name": "F#5",
                    "midi": 78,
                    "time": 69.8568659999999,
                    "velocity": 0.4566929133858268,
                    "duration": 0.04521479999999656
                },
                {
                    "name": "G5",
                    "midi": 79,
                    "time": 69.9020807999999,
                    "velocity": 0.41732283464566927,
                    "duration": 0.04521479999999656
                },
                {
                    "name": "G#5",
                    "midi": 80,
                    "time": 69.94729559999989,
                    "velocity": 0.4251968503937008,
                    "duration": 0.04521479999999656
                },
                {
                    "name": "A#5",
                    "midi": 82,
                    "time": 69.99251039999989,
                    "velocity": 0.4409448818897638,
                    "duration": 0.04521479999999656
                },
                {
                    "name": "C6",
                    "midi": 84,
                    "time": 70.03772519999988,
                    "velocity": 0.44881889763779526,
                    "duration": 0.04521479999999656
                },
                {
                    "name": "D6",
                    "midi": 86,
                    "time": 70.08293999999988,
                    "velocity": 0.4566929133858268,
                    "duration": 0.04521479999999656
                },
                {
                    "name": "E6",
                    "midi": 88,
                    "time": 70.12815479999988,
                    "velocity": 0.47244094488188976,
                    "duration": 0.04521479999999656
                },
                {
                    "name": "F6",
                    "midi": 89,
                    "time": 70.17336959999987,
                    "velocity": 0.4881889763779528,
                    "duration": 0.04521479999999656
                },
                {
                    "name": "G6",
                    "midi": 91,
                    "time": 70.21858439999987,
                    "velocity": 0.4881889763779528,
                    "duration": 0.04521479999999656
                },
                {
                    "name": "F6",
                    "midi": 89,
                    "time": 70.26379919999987,
                    "velocity": 0.4881889763779528,
                    "duration": 0.04521479999999656
                },
                {
                    "name": "E6",
                    "midi": 88,
                    "time": 70.30901399999986,
                    "velocity": 0.47244094488188976,
                    "duration": 0.016013575000002334
                },
                {
                    "name": "D6",
                    "midi": 86,
                    "time": 70.32502757499987,
                    "velocity": 0.4645669291338583,
                    "duration": 0.016013575000002334
                },
                {
                    "name": "C6",
                    "midi": 84,
                    "time": 70.34104114999987,
                    "velocity": 0.44881889763779526,
                    "duration": 0.016013575000002334
                },
                {
                    "name": "A#5",
                    "midi": 82,
                    "time": 70.35705472499987,
                    "velocity": 0.4409448818897638,
                    "duration": 0.016013575000002334
                },
                {
                    "name": "G#5",
                    "midi": 80,
                    "time": 70.37212632499987,
                    "velocity": 0.4330708661417323,
                    "duration": 0.016013575000002334
                },
                {
                    "name": "G5",
                    "midi": 79,
                    "time": 70.38813989999987,
                    "velocity": 0.41732283464566927,
                    "duration": 0.016013575000002334
                },
                {
                    "name": "F5",
                    "midi": 77,
                    "time": 70.40415347499987,
                    "velocity": 0.4015748031496063,
                    "duration": 0.016013575000002334
                },
                {
                    "name": "E5",
                    "midi": 76,
                    "time": 70.42016704999988,
                    "velocity": 0.3937007874015748,
                    "duration": 0.016013575000002334
                },
                {
                    "name": "C#5",
                    "midi": 73,
                    "time": 70.43618062499988,
                    "velocity": 0.3779527559055118,
                    "duration": 0.016013575000002334
                },
                {
                    "name": "C5",
                    "midi": 72,
                    "time": 70.45125222499988,
                    "velocity": 0.3700787401574803,
                    "duration": 0.020723450000005528
                },
                {
                    "name": "A#4",
                    "midi": 70,
                    "time": 70.47197567499988,
                    "velocity": 0.36220472440944884,
                    "duration": 0.020723450000005528
                },
                {
                    "name": "G#4",
                    "midi": 68,
                    "time": 70.49269912499989,
                    "velocity": 0.3464566929133858,
                    "duration": 0.020723450000005528
                },
                {
                    "name": "G4",
                    "midi": 67,
                    "time": 70.5134225749999,
                    "velocity": 0.33070866141732286,
                    "duration": 0.021665424999994798
                },
                {
                    "name": "F4",
                    "midi": 65,
                    "time": 70.53508799999989,
                    "velocity": 0.5511811023622047,
                    "duration": 0.226073999999997
                },
                {
                    "name": "C#5",
                    "midi": 73,
                    "time": 71.21330999999988,
                    "velocity": 0.5275590551181102,
                    "duration": 0.226073999999997
                },
                {
                    "name": "A#4",
                    "midi": 70,
                    "time": 71.21330999999988,
                    "velocity": 0.5275590551181102,
                    "duration": 0.226073999999997
                },
                {
                    "name": "D#5",
                    "midi": 75,
                    "time": 71.21330999999988,
                    "velocity": 0.5275590551181102,
                    "duration": 0.226073999999997
                },
                {
                    "name": "G4",
                    "midi": 67,
                    "time": 71.21330999999988,
                    "velocity": 0.5275590551181102,
                    "duration": 0.226073999999997
                },
                {
                    "name": "G5",
                    "midi": 79,
                    "time": 71.21330999999988,
                    "velocity": 0.6220472440944882,
                    "duration": 0.226073999999997
                },
                {
                    "name": "G#5",
                    "midi": 80,
                    "time": 71.89153199999987,
                    "velocity": 0.31496062992125984,
                    "duration": 0.1130370000000056
                },
                {
                    "name": "A#5",
                    "midi": 82,
                    "time": 72.00456899999988,
                    "velocity": 0.30708661417322836,
                    "duration": 0.1130370000000056
                },
                {
                    "name": "C6",
                    "midi": 84,
                    "time": 72.11760599999988,
                    "velocity": 0.3228346456692913,
                    "duration": 0.1130370000000056
                },
                {
                    "name": "C#6",
                    "midi": 85,
                    "time": 72.23064299999989,
                    "velocity": 0.33858267716535434,
                    "duration": 0.1130370000000056
                },
                {
                    "name": "D#6",
                    "midi": 87,
                    "time": 72.34367999999989,
                    "velocity": 0.36220472440944884,
                    "duration": 0.1130370000000056
                },
                {
                    "name": "C#6",
                    "midi": 85,
                    "time": 72.4567169999999,
                    "velocity": 0.36220472440944884,
                    "duration": 0.1130370000000056
                },
                {
                    "name": "C6",
                    "midi": 84,
                    "time": 72.5697539999999,
                    "velocity": 0.36220472440944884,
                    "duration": 0.1130370000000056
                },
                {
                    "name": "A#5",
                    "midi": 82,
                    "time": 72.68279099999991,
                    "velocity": 0.3543307086614173,
                    "duration": 0.1130370000000056
                },
                {
                    "name": "G#5",
                    "midi": 80,
                    "time": 72.79582799999991,
                    "velocity": 0.3464566929133858,
                    "duration": 0.1130370000000056
                },
                {
                    "name": "G5",
                    "midi": 79,
                    "time": 72.90886499999992,
                    "velocity": 0.33858267716535434,
                    "duration": 0.1130370000000056
                },
                {
                    "name": "F5",
                    "midi": 77,
                    "time": 73.02190199999993,
                    "velocity": 0.33070866141732286,
                    "duration": 0.1130370000000056
                },
                {
                    "name": "D#5",
                    "midi": 75,
                    "time": 73.13493899999993,
                    "velocity": 0.3228346456692913,
                    "duration": 0.1130370000000056
                },
                {
                    "name": "C#5",
                    "midi": 73,
                    "time": 73.24797599999994,
                    "velocity": 0.3228346456692913,
                    "duration": 0.1130370000000056
                },
                {
                    "name": "C5",
                    "midi": 72,
                    "time": 73.36101299999994,
                    "velocity": 0.30708661417322836,
                    "duration": 0.1130370000000056
                },
                {
                    "name": "A#4",
                    "midi": 70,
                    "time": 73.47404999999995,
                    "velocity": 0.2992125984251969,
                    "duration": 0.1130370000000056
                },
                {
                    "name": "G#4",
                    "midi": 68,
                    "time": 73.58708699999995,
                    "velocity": 0.2992125984251969,
                    "duration": 0.1130370000000056
                },
                {
                    "name": "G4",
                    "midi": 67,
                    "time": 73.70012399999996,
                    "velocity": 0.28346456692913385,
                    "duration": 0.1130370000000056
                },
                {
                    "name": "G#4",
                    "midi": 68,
                    "time": 73.81316099999997,
                    "velocity": 0.2755905511811024,
                    "duration": 0.1130370000000056
                },
                {
                    "name": "A#4",
                    "midi": 70,
                    "time": 73.92619799999997,
                    "velocity": 0.25984251968503935,
                    "duration": 0.1130370000000056
                },
                {
                    "name": "C5",
                    "midi": 72,
                    "time": 74.03923499999998,
                    "velocity": 0.25984251968503935,
                    "duration": 0.1130370000000056
                },
                {
                    "name": "C#5",
                    "midi": 73,
                    "time": 74.15227199999998,
                    "velocity": 0.2677165354330709,
                    "duration": 0.1130370000000056
                },
                {
                    "name": "D#5",
                    "midi": 75,
                    "time": 74.26530899999999,
                    "velocity": 0.28346456692913385,
                    "duration": 0.1130370000000056
                },
                {
                    "name": "F5",
                    "midi": 77,
                    "time": 74.378346,
                    "velocity": 0.29133858267716534,
                    "duration": 0.1130370000000056
                },
                {
                    "name": "G5",
                    "midi": 79,
                    "time": 74.491383,
                    "velocity": 0.30708661417322836,
                    "duration": 0.1130370000000056
                },
                {
                    "name": "G#5",
                    "midi": 80,
                    "time": 74.60442,
                    "velocity": 0.31496062992125984,
                    "duration": 0.1130370000000056
                },
                {
                    "name": "A#5",
                    "midi": 82,
                    "time": 74.71745700000001,
                    "velocity": 0.30708661417322836,
                    "duration": 0.1130370000000056
                },
                {
                    "name": "C6",
                    "midi": 84,
                    "time": 74.83049400000002,
                    "velocity": 0.3228346456692913,
                    "duration": 0.1130370000000056
                },
                {
                    "name": "C#6",
                    "midi": 85,
                    "time": 74.94353100000002,
                    "velocity": 0.33858267716535434,
                    "duration": 0.1130369999999914
                },
                {
                    "name": "F6",
                    "midi": 89,
                    "time": 75.04997417500002,
                    "velocity": 0.36220472440944884,
                    "duration": 0.1130369999999914
                },
                {
                    "name": "D#6",
                    "midi": 87,
                    "time": 75.169605,
                    "velocity": 0.36220472440944884,
                    "duration": 0.1130370000000056
                },
                {
                    "name": "C#6",
                    "midi": 85,
                    "time": 75.28264200000001,
                    "velocity": 0.36220472440944884,
                    "duration": 0.1130370000000056
                },
                {
                    "name": "C6",
                    "midi": 84,
                    "time": 75.39567900000002,
                    "velocity": 0.3543307086614173,
                    "duration": 0.1130370000000056
                },
                {
                    "name": "A#5",
                    "midi": 82,
                    "time": 75.50871600000002,
                    "velocity": 0.3464566929133858,
                    "duration": 0.1130370000000056
                },
                {
                    "name": "G#5",
                    "midi": 80,
                    "time": 75.62175300000003,
                    "velocity": 0.33858267716535434,
                    "duration": 0.1130370000000056
                },
                {
                    "name": "G5",
                    "midi": 79,
                    "time": 75.73479000000003,
                    "velocity": 0.33070866141732286,
                    "duration": 0.1130370000000056
                },
                {
                    "name": "F5",
                    "midi": 77,
                    "time": 75.84782700000004,
                    "velocity": 0.3228346456692913,
                    "duration": 0.1130370000000056
                },
                {
                    "name": "D#5",
                    "midi": 75,
                    "time": 75.96086400000004,
                    "velocity": 0.3228346456692913,
                    "duration": 0.1130370000000056
                },
                {
                    "name": "F5",
                    "midi": 77,
                    "time": 76.07390100000005,
                    "velocity": 0.25984251968503935,
                    "duration": 0.1130370000000056
                },
                {
                    "name": "C#5",
                    "midi": 73,
                    "time": 76.18693800000005,
                    "velocity": 0.2992125984251969,
                    "duration": 0.1130370000000056
                },
                {
                    "name": "D#5",
                    "midi": 75,
                    "time": 76.29997500000006,
                    "velocity": 0.25196850393700787,
                    "duration": 0.1130370000000056
                },
                {
                    "name": "C5",
                    "midi": 72,
                    "time": 76.41301200000007,
                    "velocity": 0.28346456692913385,
                    "duration": 0.1130370000000056
                },
                {
                    "name": "D#5",
                    "midi": 75,
                    "time": 76.52604900000007,
                    "velocity": 0.2283464566929134,
                    "duration": 0.1130370000000056
                },
                {
                    "name": "A#4",
                    "midi": 70,
                    "time": 76.63908600000008,
                    "velocity": 0.25984251968503935,
                    "duration": 0.1130370000000056
                },
                {
                    "name": "D#5",
                    "midi": 75,
                    "time": 76.75212300000008,
                    "velocity": 0.23622047244094488,
                    "duration": 0.1130370000000056
                },
                {
                    "name": "G#4",
                    "midi": 68,
                    "time": 76.86516000000009,
                    "velocity": 0.2992125984251969,
                    "duration": 0.1130370000000056
                },
                {
                    "name": "D#5",
                    "midi": 75,
                    "time": 76.9781970000001,
                    "velocity": 0.2440944881889764,
                    "duration": 0.1130370000000056
                },
                {
                    "name": "G4",
                    "midi": 67,
                    "time": 77.0912340000001,
                    "velocity": 0.31496062992125984,
                    "duration": 0.1130370000000056
                },
                {
                    "name": "D#5",
                    "midi": 75,
                    "time": 77.2042710000001,
                    "velocity": 0.25984251968503935,
                    "duration": 0.1130370000000056
                },
                {
                    "name": "G#5",
                    "midi": 80,
                    "time": 77.31730800000011,
                    "velocity": 0.31496062992125984,
                    "duration": 0.1130370000000056
                },
                {
                    "name": "A#5",
                    "midi": 82,
                    "time": 77.43034500000012,
                    "velocity": 0.30708661417322836,
                    "duration": 0.1130370000000056
                },
                {
                    "name": "B5",
                    "midi": 83,
                    "time": 77.54338200000012,
                    "velocity": 0.3228346456692913,
                    "duration": 0.1130370000000056
                },
                {
                    "name": "C#6",
                    "midi": 85,
                    "time": 77.65641900000013,
                    "velocity": 0.33858267716535434,
                    "duration": 0.1130370000000056
                },
                {
                    "name": "D#6",
                    "midi": 87,
                    "time": 77.76945600000013,
                    "velocity": 0.36220472440944884,
                    "duration": 0.1130370000000056
                },
                {
                    "name": "C#6",
                    "midi": 85,
                    "time": 77.88249300000014,
                    "velocity": 0.36220472440944884,
                    "duration": 0.1130370000000056
                },
                {
                    "name": "B5",
                    "midi": 83,
                    "time": 77.99553000000014,
                    "velocity": 0.36220472440944884,
                    "duration": 0.1130370000000056
                },
                {
                    "name": "A#5",
                    "midi": 82,
                    "time": 78.10856700000015,
                    "velocity": 0.3543307086614173,
                    "duration": 0.1130370000000056
                },
                {
                    "name": "G#5",
                    "midi": 80,
                    "time": 78.22160400000016,
                    "velocity": 0.3464566929133858,
                    "duration": 0.1130370000000056
                },
                {
                    "name": "F#5",
                    "midi": 78,
                    "time": 78.33464100000016,
                    "velocity": 0.33858267716535434,
                    "duration": 0.1130370000000056
                },
                {
                    "name": "E5",
                    "midi": 76,
                    "time": 78.44767800000017,
                    "velocity": 0.33070866141732286,
                    "duration": 0.1130370000000056
                },
                {
                    "name": "D#5",
                    "midi": 75,
                    "time": 78.56071500000017,
                    "velocity": 0.3228346456692913,
                    "duration": 0.1130370000000056
                },
                {
                    "name": "C#5",
                    "midi": 73,
                    "time": 78.67375200000018,
                    "velocity": 0.3228346456692913,
                    "duration": 0.1130370000000056
                },
                {
                    "name": "B4",
                    "midi": 71,
                    "time": 78.78678900000018,
                    "velocity": 0.30708661417322836,
                    "duration": 0.1130370000000056
                },
                {
                    "name": "A#4",
                    "midi": 70,
                    "time": 78.89982600000019,
                    "velocity": 0.2992125984251969,
                    "duration": 0.1130370000000056
                },
                {
                    "name": "G#4",
                    "midi": 68,
                    "time": 79.0128630000002,
                    "velocity": 0.2992125984251969,
                    "duration": 0.1130370000000056
                },
                {
                    "name": "G4",
                    "midi": 67,
                    "time": 79.1259000000002,
                    "velocity": 0.28346456692913385,
                    "duration": 0.1130370000000056
                },
                {
                    "name": "G#4",
                    "midi": 68,
                    "time": 79.2389370000002,
                    "velocity": 0.2755905511811024,
                    "duration": 0.1130370000000056
                },
                {
                    "name": "A#4",
                    "midi": 70,
                    "time": 79.35197400000021,
                    "velocity": 0.25984251968503935,
                    "duration": 0.1130370000000056
                },
                {
                    "name": "B4",
                    "midi": 71,
                    "time": 79.46501100000022,
                    "velocity": 0.25984251968503935,
                    "duration": 0.1130370000000056
                },
                {
                    "name": "C#5",
                    "midi": 73,
                    "time": 79.57804800000022,
                    "velocity": 0.2677165354330709,
                    "duration": 0.1130370000000056
                },
                {
                    "name": "D#5",
                    "midi": 75,
                    "time": 79.69108500000023,
                    "velocity": 0.28346456692913385,
                    "duration": 0.1130370000000056
                },
                {
                    "name": "E5",
                    "midi": 76,
                    "time": 79.80412200000023,
                    "velocity": 0.29133858267716534,
                    "duration": 0.1130370000000056
                },
                {
                    "name": "G5",
                    "midi": 79,
                    "time": 79.91715900000024,
                    "velocity": 0.30708661417322836,
                    "duration": 0.1130370000000056
                },
                {
                    "name": "G#5",
                    "midi": 80,
                    "time": 80.03019600000025,
                    "velocity": 0.31496062992125984,
                    "duration": 0.1130370000000056
                },
                {
                    "name": "A#5",
                    "midi": 82,
                    "time": 80.14323300000025,
                    "velocity": 0.30708661417322836,
                    "duration": 0.1130370000000056
                },
                {
                    "name": "B5",
                    "midi": 83,
                    "time": 80.25627000000026,
                    "velocity": 0.3228346456692913,
                    "duration": 0.1130370000000056
                },
                {
                    "name": "C#6",
                    "midi": 85,
                    "time": 80.36930700000026,
                    "velocity": 0.33858267716535434,
                    "duration": 0.1130370000000056
                },
                {
                    "name": "E6",
                    "midi": 88,
                    "time": 80.48234400000027,
                    "velocity": 0.36220472440944884,
                    "duration": 0.1130370000000056
                },
                {
                    "name": "D#6",
                    "midi": 87,
                    "time": 80.59538100000027,
                    "velocity": 0.36220472440944884,
                    "duration": 0.1130370000000056
                },
                {
                    "name": "C#6",
                    "midi": 85,
                    "time": 80.70841800000028,
                    "velocity": 0.36220472440944884,
                    "duration": 0.1130370000000056
                },
                {
                    "name": "B5",
                    "midi": 83,
                    "time": 80.82145500000028,
                    "velocity": 0.3543307086614173,
                    "duration": 0.1130370000000056
                },
                {
                    "name": "A#5",
                    "midi": 82,
                    "time": 80.93449200000029,
                    "velocity": 0.3464566929133858,
                    "duration": 0.1130370000000056
                },
                {
                    "name": "G#5",
                    "midi": 80,
                    "time": 81.0475290000003,
                    "velocity": 0.33858267716535434,
                    "duration": 0.1130370000000056
                },
                {
                    "name": "F#5",
                    "midi": 78,
                    "time": 81.1605660000003,
                    "velocity": 0.33070866141732286,
                    "duration": 0.1130370000000056
                },
                {
                    "name": "E5",
                    "midi": 76,
                    "time": 81.2736030000003,
                    "velocity": 0.3228346456692913,
                    "duration": 0.1130370000000056
                },
                {
                    "name": "D#5",
                    "midi": 75,
                    "time": 81.38664000000031,
                    "velocity": 0.36220472440944884,
                    "duration": 0.226073999999997
                },
                {
                    "name": "C#5",
                    "midi": 73,
                    "time": 81.61271400000031,
                    "velocity": 0.2992125984251969,
                    "duration": 0.1130370000000056
                },
                {
                    "name": "D#5",
                    "midi": 75,
                    "time": 81.72575100000032,
                    "velocity": 0.25196850393700787,
                    "duration": 0.1130370000000056
                },
                {
                    "name": "B4",
                    "midi": 71,
                    "time": 81.83878800000032,
                    "velocity": 0.28346456692913385,
                    "duration": 0.1130370000000056
                },
                {
                    "name": "D#5",
                    "midi": 75,
                    "time": 81.95182500000033,
                    "velocity": 0.2283464566929134,
                    "duration": 0.1130370000000056
                },
                {
                    "name": "A#4",
                    "midi": 70,
                    "time": 82.06486200000033,
                    "velocity": 0.25984251968503935,
                    "duration": 0.1130370000000056
                },
                {
                    "name": "D#5",
                    "midi": 75,
                    "time": 82.17789900000034,
                    "velocity": 0.23622047244094488,
                    "duration": 0.1130370000000056
                },
                {
                    "name": "G#4",
                    "midi": 68,
                    "time": 82.29093600000034,
                    "velocity": 0.2992125984251969,
                    "duration": 0.1130370000000056
                },
                {
                    "name": "D#5",
                    "midi": 75,
                    "time": 82.40397300000035,
                    "velocity": 0.2440944881889764,
                    "duration": 0.1130370000000056
                },
                {
                    "name": "G4",
                    "midi": 67,
                    "time": 82.51701000000035,
                    "velocity": 0.31496062992125984,
                    "duration": 0.1130370000000056
                },
                {
                    "name": "G#5",
                    "midi": 80,
                    "time": 82.74308400000037,
                    "velocity": 0.36220472440944884,
                    "duration": 0.1130370000000056
                },
                {
                    "name": "A#5",
                    "midi": 82,
                    "time": 82.85612100000037,
                    "velocity": 0.3464566929133858,
                    "duration": 0.1130370000000056
                },
                {
                    "name": "C6",
                    "midi": 84,
                    "time": 82.96915800000038,
                    "velocity": 0.3700787401574803,
                    "duration": 0.1130370000000056
                },
                {
                    "name": "C#6",
                    "midi": 85,
                    "time": 83.08219500000038,
                    "velocity": 0.3858267716535433,
                    "duration": 0.1130370000000056
                },
                {
                    "name": "D#6",
                    "midi": 87,
                    "time": 83.19523200000039,
                    "velocity": 0.4094488188976378,
                    "duration": 0.1130370000000056
                },
                {
                    "name": "C#6",
                    "midi": 85,
                    "time": 83.3082690000004,
                    "velocity": 0.4094488188976378,
                    "duration": 0.1130370000000056
                },
                {
                    "name": "C6",
                    "midi": 84,
                    "time": 83.4213060000004,
                    "velocity": 0.4094488188976378,
                    "duration": 0.1130370000000056
                },
                {
                    "name": "A#5",
                    "midi": 82,
                    "time": 83.5343430000004,
                    "velocity": 0.4015748031496063,
                    "duration": 0.1130370000000056
                },
                {
                    "name": "G#5",
                    "midi": 80,
                    "time": 83.64738000000041,
                    "velocity": 0.3937007874015748,
                    "duration": 0.1130370000000056
                },
                {
                    "name": "G5",
                    "midi": 79,
                    "time": 83.76041700000042,
                    "velocity": 0.3858267716535433,
                    "duration": 0.1130370000000056
                },
                {
                    "name": "F5",
                    "midi": 77,
                    "time": 83.87345400000042,
                    "velocity": 0.3779527559055118,
                    "duration": 0.1130370000000056
                },
                {
                    "name": "D#5",
                    "midi": 75,
                    "time": 83.98649100000043,
                    "velocity": 0.3700787401574803,
                    "duration": 0.1130370000000056
                },
                {
                    "name": "C#5",
                    "midi": 73,
                    "time": 84.09952800000043,
                    "velocity": 0.3700787401574803,
                    "duration": 0.1130370000000056
                },
                {
                    "name": "C5",
                    "midi": 72,
                    "time": 84.21256500000044,
                    "velocity": 0.3464566929133858,
                    "duration": 0.1130370000000056
                },
                {
                    "name": "A#4",
                    "midi": 70,
                    "time": 84.32560200000044,
                    "velocity": 0.33858267716535434,
                    "duration": 0.1130370000000056
                },
                {
                    "name": "G#4",
                    "midi": 68,
                    "time": 84.43863900000045,
                    "velocity": 0.33858267716535434,
                    "duration": 0.1130370000000056
                },
                {
                    "name": "G4",
                    "midi": 67,
                    "time": 84.55167600000046,
                    "velocity": 0.3228346456692913,
                    "duration": 0.1130370000000056
                },
                {
                    "name": "G#4",
                    "midi": 68,
                    "time": 84.66471300000046,
                    "velocity": 0.31496062992125984,
                    "duration": 0.1130370000000056
                },
                {
                    "name": "A#4",
                    "midi": 70,
                    "time": 84.77775000000047,
                    "velocity": 0.29133858267716534,
                    "duration": 0.1130370000000056
                },
                {
                    "name": "C5",
                    "midi": 72,
                    "time": 84.89078700000047,
                    "velocity": 0.29133858267716534,
                    "duration": 0.1130370000000056
                },
                {
                    "name": "C#5",
                    "midi": 73,
                    "time": 85.00382400000048,
                    "velocity": 0.30708661417322836,
                    "duration": 0.1130370000000056
                },
                {
                    "name": "D#5",
                    "midi": 75,
                    "time": 85.11686100000048,
                    "velocity": 0.3228346456692913,
                    "duration": 0.1130370000000056
                },
                {
                    "name": "F5",
                    "midi": 77,
                    "time": 85.22989800000049,
                    "velocity": 0.33070866141732286,
                    "duration": 0.1130370000000056
                },
                {
                    "name": "G5",
                    "midi": 79,
                    "time": 85.3429350000005,
                    "velocity": 0.3464566929133858,
                    "duration": 0.1130370000000056
                },
                {
                    "name": "G#5",
                    "midi": 80,
                    "time": 85.4559720000005,
                    "velocity": 0.36220472440944884,
                    "duration": 0.1130370000000056
                },
                {
                    "name": "A#5",
                    "midi": 82,
                    "time": 85.5690090000005,
                    "velocity": 0.3700787401574803,
                    "duration": 0.1130370000000056
                },
                {
                    "name": "C6",
                    "midi": 84,
                    "time": 85.68204600000051,
                    "velocity": 0.3858267716535433,
                    "duration": 0.1130370000000056
                },
                {
                    "name": "C#6",
                    "midi": 85,
                    "time": 85.79508300000052,
                    "velocity": 0.4094488188976378,
                    "duration": 0.1130370000000056
                },
                {
                    "name": "D#6",
                    "midi": 87,
                    "time": 85.90812000000052,
                    "velocity": 0.4251968503937008,
                    "duration": 0.1130370000000056
                },
                {
                    "name": "F6",
                    "midi": 89,
                    "time": 86.02115700000053,
                    "velocity": 0.4409448818897638,
                    "duration": 0.1130370000000056
                },
                {
                    "name": "G6",
                    "midi": 91,
                    "time": 86.13419400000053,
                    "velocity": 0.4645669291338583,
                    "duration": 0.1130370000000056
                },
                {
                    "name": "G#6",
                    "midi": 92,
                    "time": 86.24723100000054,
                    "velocity": 0.48031496062992124,
                    "duration": 0.1130370000000056
                },
                {
                    "name": "A#6",
                    "midi": 94,
                    "time": 86.36026800000054,
                    "velocity": 0.49606299212598426,
                    "duration": 0.1130370000000056
                },
                {
                    "name": "C7",
                    "midi": 96,
                    "time": 86.47330500000055,
                    "velocity": 0.5196850393700787,
                    "duration": 0.1130370000000056
                },
                {
                    "name": "C#7",
                    "midi": 97,
                    "time": 86.58634200000056,
                    "velocity": 0.5354330708661418,
                    "duration": 0.1130370000000056
                },
                {
                    "name": "D#7",
                    "midi": 99,
                    "time": 86.69937900000056,
                    "velocity": 0.5511811023622047,
                    "duration": 0.1130370000000056
                },
                {
                    "name": "F7",
                    "midi": 101,
                    "time": 86.81241600000057,
                    "velocity": 0.5748031496062992,
                    "duration": 0.1130370000000056
                },
                {
                    "name": "D#7",
                    "midi": 99,
                    "time": 86.92545300000057,
                    "velocity": 0.5748031496062992,
                    "duration": 0.1130370000000056
                },
                {
                    "name": "C#7",
                    "midi": 97,
                    "time": 87.03849000000058,
                    "velocity": 0.5669291338582677,
                    "duration": 0.1130370000000056
                },
                {
                    "name": "C7",
                    "midi": 96,
                    "time": 87.15152700000058,
                    "velocity": 0.5590551181102362,
                    "duration": 0.1130370000000056
                },
                {
                    "name": "A#6",
                    "midi": 94,
                    "time": 87.26456400000059,
                    "velocity": 0.5511811023622047,
                    "duration": 0.1130370000000056
                },
                {
                    "name": "G#6",
                    "midi": 92,
                    "time": 87.3776010000006,
                    "velocity": 0.5433070866141733,
                    "duration": 0.1130370000000056
                },
                {
                    "name": "G6",
                    "midi": 91,
                    "time": 87.4906380000006,
                    "velocity": 0.5354330708661418,
                    "duration": 0.1130370000000056
                },
                {
                    "name": "F6",
                    "midi": 89,
                    "time": 87.6036750000006,
                    "velocity": 0.5275590551181102,
                    "duration": 0.1130370000000056
                },
                {
                    "name": "D#6",
                    "midi": 87,
                    "time": 87.71671200000061,
                    "velocity": 0.5196850393700787,
                    "duration": 0.1130370000000056
                },
                {
                    "name": "C#6",
                    "midi": 85,
                    "time": 87.82974900000062,
                    "velocity": 0.5196850393700787,
                    "duration": 0.1130370000000056
                },
                {
                    "name": "C6",
                    "midi": 84,
                    "time": 87.94278600000062,
                    "velocity": 0.5118110236220472,
                    "duration": 0.1130370000000056
                },
                {
                    "name": "A#5",
                    "midi": 82,
                    "time": 88.05582300000063,
                    "velocity": 0.5039370078740157,
                    "duration": 0.1130370000000056
                },
                {
                    "name": "G#5",
                    "midi": 80,
                    "time": 88.16886000000063,
                    "velocity": 0.5275590551181102,
                    "duration": 0.1130370000000056
                },
                {
                    "name": "A#5",
                    "midi": 82,
                    "time": 88.28189700000064,
                    "velocity": 0.5354330708661418,
                    "duration": 0.1130370000000056
                },
                {
                    "name": "B5",
                    "midi": 83,
                    "time": 88.39493400000065,
                    "velocity": 0.5433070866141733,
                    "duration": 0.1130370000000056
                },
                {
                    "name": "C#6",
                    "midi": 85,
                    "time": 88.50797100000065,
                    "velocity": 0.5590551181102362,
                    "duration": 0.1130370000000056
                },
                {
                    "name": "D#6",
                    "midi": 87,
                    "time": 88.62100800000066,
                    "velocity": 0.5669291338582677,
                    "duration": 0.1130370000000056
                },
                {
                    "name": "C#6",
                    "midi": 85,
                    "time": 88.73404500000066,
                    "velocity": 0.5748031496062992,
                    "duration": 0.1130370000000056
                },
                {
                    "name": "B5",
                    "midi": 83,
                    "time": 88.84708200000067,
                    "velocity": 0.5826771653543307,
                    "duration": 0.1130370000000056
                },
                {
                    "name": "A#5",
                    "midi": 82,
                    "time": 88.96011900000067,
                    "velocity": 0.5748031496062992,
                    "duration": 0.1130370000000056
                },
                {
                    "name": "G#5",
                    "midi": 80,
                    "time": 89.07315600000068,
                    "velocity": 0.5590551181102362,
                    "duration": 0.1130370000000056
                },
                {
                    "name": "F#5",
                    "midi": 78,
                    "time": 89.18619300000069,
                    "velocity": 0.5511811023622047,
                    "duration": 0.1130370000000056
                },
                {
                    "name": "E5",
                    "midi": 76,
                    "time": 89.29923000000069,
                    "velocity": 0.5354330708661418,
                    "duration": 0.1130370000000056
                },
                {
                    "name": "D#5",
                    "midi": 75,
                    "time": 89.4122670000007,
                    "velocity": 0.5275590551181102,
                    "duration": 0.1130370000000056
                },
                {
                    "name": "C#5",
                    "midi": 73,
                    "time": 89.5253040000007,
                    "velocity": 0.5118110236220472,
                    "duration": 0.1130370000000056
                },
                {
                    "name": "B4",
                    "midi": 71,
                    "time": 89.63834100000071,
                    "velocity": 0.5039370078740157,
                    "duration": 0.1130370000000056
                },
                {
                    "name": "A#4",
                    "midi": 70,
                    "time": 89.75137800000071,
                    "velocity": 0.4881889763779528,
                    "duration": 0.1130370000000056
                },
                {
                    "name": "G#4",
                    "midi": 68,
                    "time": 89.86441500000072,
                    "velocity": 0.48031496062992124,
                    "duration": 0.1130370000000056
                },
                {
                    "name": "G4",
                    "midi": 67,
                    "time": 89.97745200000072,
                    "velocity": 0.4645669291338583,
                    "duration": 0.1130370000000056
                },
                {
                    "name": "G#4",
                    "midi": 68,
                    "time": 90.09048900000073,
                    "velocity": 0.4566929133858268,
                    "duration": 0.1130370000000056
                },
                {
                    "name": "A#4",
                    "midi": 70,
                    "time": 90.20352600000074,
                    "velocity": 0.4409448818897638,
                    "duration": 0.1130370000000056
                },
                {
                    "name": "B4",
                    "midi": 71,
                    "time": 90.31656300000074,
                    "velocity": 0.4330708661417323,
                    "duration": 0.1130370000000056
                },
                {
                    "name": "C#5",
                    "midi": 73,
                    "time": 90.42960000000075,
                    "velocity": 0.4409448818897638,
                    "duration": 0.1130370000000056
                },
                {
                    "name": "D#5",
                    "midi": 75,
                    "time": 90.54263700000075,
                    "velocity": 0.4566929133858268,
                    "duration": 0.1130370000000056
                },
                {
                    "name": "E5",
                    "midi": 76,
                    "time": 90.65567400000076,
                    "velocity": 0.47244094488188976,
                    "duration": 0.1130370000000056
                },
                {
                    "name": "G5",
                    "midi": 79,
                    "time": 90.76871100000076,
                    "velocity": 0.4881889763779528,
                    "duration": 0.1130370000000056
                },
                {
                    "name": "G#5",
                    "midi": 80,
                    "time": 90.88174800000077,
                    "velocity": 0.5118110236220472,
                    "duration": 0.1130370000000056
                },
                {
                    "name": "A#5",
                    "midi": 82,
                    "time": 90.99478500000077,
                    "velocity": 0.49606299212598426,
                    "duration": 0.1130370000000056
                },
                {
                    "name": "B5",
                    "midi": 83,
                    "time": 91.10782200000078,
                    "velocity": 0.5118110236220472,
                    "duration": 0.1130370000000056
                },
                {
                    "name": "C#6",
                    "midi": 85,
                    "time": 91.22085900000079,
                    "velocity": 0.5196850393700787,
                    "duration": 0.1130370000000056
                },
                {
                    "name": "D#6",
                    "midi": 87,
                    "time": 91.33389600000079,
                    "velocity": 0.5275590551181102,
                    "duration": 0.1130370000000056
                },
                {
                    "name": "F6",
                    "midi": 89,
                    "time": 91.4469330000008,
                    "velocity": 0.5354330708661418,
                    "duration": 0.1130370000000056
                },
                {
                    "name": "G6",
                    "midi": 91,
                    "time": 91.5599700000008,
                    "velocity": 0.5433070866141733,
                    "duration": 0.1130370000000056
                },
                {
                    "name": "G#6",
                    "midi": 92,
                    "time": 91.67300700000081,
                    "velocity": 0.5511811023622047,
                    "duration": 0.1130370000000056
                },
                {
                    "name": "A#6",
                    "midi": 94,
                    "time": 91.78604400000081,
                    "velocity": 0.5669291338582677,
                    "duration": 0.1130370000000056
                },
                {
                    "name": "B6",
                    "midi": 95,
                    "time": 91.89908100000082,
                    "velocity": 0.5748031496062992,
                    "duration": 0.1130370000000056
                },
                {
                    "name": "C#7",
                    "midi": 97,
                    "time": 92.01211800000083,
                    "velocity": 0.5826771653543307,
                    "duration": 0.1130370000000056
                },
                {
                    "name": "D#7",
                    "midi": 99,
                    "time": 92.12515500000083,
                    "velocity": 0.5905511811023622,
                    "duration": 0.1130370000000056
                },
                {
                    "name": "E7",
                    "midi": 100,
                    "time": 92.23819200000084,
                    "velocity": 0.5984251968503937,
                    "duration": 0.1130370000000056
                },
                {
                    "name": "D#7",
                    "midi": 99,
                    "time": 92.35122900000084,
                    "velocity": 0.6062992125984252,
                    "duration": 0.1130370000000056
                },
                {
                    "name": "C#7",
                    "midi": 97,
                    "time": 92.46426600000085,
                    "velocity": 0.5669291338582677,
                    "duration": 0.1130370000000056
                },
                {
                    "name": "B6",
                    "midi": 95,
                    "time": 92.57730300000085,
                    "velocity": 0.5590551181102362,
                    "duration": 0.1130370000000056
                },
                {
                    "name": "A#6",
                    "midi": 94,
                    "time": 92.69034000000086,
                    "velocity": 0.5511811023622047,
                    "duration": 0.1130370000000056
                },
                {
                    "name": "G#6",
                    "midi": 92,
                    "time": 92.80337700000086,
                    "velocity": 0.5433070866141733,
                    "duration": 0.1130370000000056
                },
                {
                    "name": "G6",
                    "midi": 91,
                    "time": 92.91641400000087,
                    "velocity": 0.5590551181102362,
                    "duration": 0.1130370000000056
                },
                {
                    "name": "E6",
                    "midi": 88,
                    "time": 93.02945100000088,
                    "velocity": 0.5354330708661418,
                    "duration": 0.1130370000000056
                },
                {
                    "name": "D#6",
                    "midi": 87,
                    "time": 93.14248800000088,
                    "velocity": 0.5118110236220472,
                    "duration": 0.1130370000000056
                },
                {
                    "name": "C#6",
                    "midi": 85,
                    "time": 93.25552500000089,
                    "velocity": 0.4881889763779528,
                    "duration": 0.1130370000000056
                },
                {
                    "name": "B5",
                    "midi": 83,
                    "time": 93.36856200000089,
                    "velocity": 0.47244094488188976,
                    "duration": 0.1130370000000056
                },
                {
                    "name": "A#5",
                    "midi": 82,
                    "time": 93.4815990000009,
                    "velocity": 0.44881889763779526,
                    "duration": 0.1130370000000056
                },
                {
                    "name": "D#6",
                    "midi": 87,
                    "time": 93.5946360000009,
                    "velocity": 0.49606299212598426,
                    "duration": 0.1130370000000056
                },
                {
                    "name": "C#6",
                    "midi": 85,
                    "time": 93.70767300000091,
                    "velocity": 0.4881889763779528,
                    "duration": 0.1130370000000056
                },
                {
                    "name": "B5",
                    "midi": 83,
                    "time": 93.82071000000091,
                    "velocity": 0.47244094488188976,
                    "duration": 0.1130370000000056
                },
                {
                    "name": "A#5",
                    "midi": 82,
                    "time": 93.93374700000092,
                    "velocity": 0.4566929133858268,
                    "duration": 0.1130370000000056
                },
                {
                    "name": "G#5",
                    "midi": 80,
                    "time": 94.04678400000093,
                    "velocity": 0.44881889763779526,
                    "duration": 0.1130370000000056
                },
                {
                    "name": "F#5",
                    "midi": 78,
                    "time": 94.15982100000093,
                    "velocity": 0.4330708661417323,
                    "duration": 0.1130370000000056
                },
                {
                    "name": "E5",
                    "midi": 76,
                    "time": 94.27285800000094,
                    "velocity": 0.41732283464566927,
                    "duration": 0.1130370000000056
                },
                {
                    "name": "D#5",
                    "midi": 75,
                    "time": 94.38589500000094,
                    "velocity": 0.4094488188976378,
                    "duration": 0.1130370000000056
                },
                {
                    "name": "C#5",
                    "midi": 73,
                    "time": 94.49893200000095,
                    "velocity": 0.3937007874015748,
                    "duration": 0.1130370000000056
                },
                {
                    "name": "B4",
                    "midi": 71,
                    "time": 94.61196900000095,
                    "velocity": 0.3779527559055118,
                    "duration": 0.1130370000000056
                },
                {
                    "name": "A#4",
                    "midi": 70,
                    "time": 94.72500600000096,
                    "velocity": 0.36220472440944884,
                    "duration": 0.1130370000000056
                },
                {
                    "name": "G#4",
                    "midi": 68,
                    "time": 94.83804300000097,
                    "velocity": 0.3543307086614173,
                    "duration": 0.1130370000000056
                },
                {
                    "name": "A4",
                    "midi": 69,
                    "time": 94.95108000000097,
                    "velocity": 0.36220472440944884,
                    "duration": 0.1130370000000056
                },
                {
                    "name": "C#5",
                    "midi": 73,
                    "time": 95.06411700000098,
                    "velocity": 0.33858267716535434,
                    "duration": 0.1130370000000056
                },
                {
                    "name": "A4",
                    "midi": 69,
                    "time": 95.17715400000098,
                    "velocity": 0.3779527559055118,
                    "duration": 0.1130370000000056
                },
                {
                    "name": "C#5",
                    "midi": 73,
                    "time": 95.29019100000099,
                    "velocity": 0.33070866141732286,
                    "duration": 0.1130370000000056
                },
                {
                    "name": "E5",
                    "midi": 76,
                    "time": 95.403228000001,
                    "velocity": 0.41732283464566927,
                    "duration": 0.1130370000000056
                },
                {
                    "name": "G4",
                    "midi": 67,
                    "time": 95.629302000001,
                    "velocity": 0.36220472440944884,
                    "duration": 0.1130370000000056
                },
                {
                    "name": "A#4",
                    "midi": 70,
                    "time": 95.74233900000101,
                    "velocity": 0.33858267716535434,
                    "duration": 0.1130370000000056
                },
                {
                    "name": "G4",
                    "midi": 67,
                    "time": 95.85537600000102,
                    "velocity": 0.3779527559055118,
                    "duration": 0.1130370000000056
                },
                {
                    "name": "A#4",
                    "midi": 70,
                    "time": 95.96841300000102,
                    "velocity": 0.33070866141732286,
                    "duration": 0.1130370000000056
                },
                {
                    "name": "D#5",
                    "midi": 75,
                    "time": 96.08145000000103,
                    "velocity": 0.41732283464566927,
                    "duration": 0.1130370000000056
                },
                {
                    "name": "D#7",
                    "midi": 99,
                    "time": 96.30752400000104,
                    "velocity": 0.5511811023622047,
                    "duration": 0.1130370000000056
                },
                {
                    "name": "C#7",
                    "midi": 97,
                    "time": 96.42056100000104,
                    "velocity": 0.5433070866141733,
                    "duration": 0.1130370000000056
                },
                {
                    "name": "B6",
                    "midi": 95,
                    "time": 96.53359800000105,
                    "velocity": 0.5275590551181102,
                    "duration": 0.1130370000000056
                },
                {
                    "name": "A#6",
                    "midi": 94,
                    "time": 96.64663500000106,
                    "velocity": 0.5118110236220472,
                    "duration": 0.1130370000000056
                },
                {
                    "name": "G#6",
                    "midi": 92,
                    "time": 96.75967200000106,
                    "velocity": 0.49606299212598426,
                    "duration": 0.1130370000000056
                },
                {
                    "name": "F#6",
                    "midi": 90,
                    "time": 96.87270900000107,
                    "velocity": 0.4881889763779528,
                    "duration": 0.1130370000000056
                },
                {
                    "name": "E6",
                    "midi": 88,
                    "time": 96.98574600000107,
                    "velocity": 0.47244094488188976,
                    "duration": 0.1130370000000056
                },
                {
                    "name": "D#6",
                    "midi": 87,
                    "time": 97.09878300000108,
                    "velocity": 0.4566929133858268,
                    "duration": 0.1130370000000056
                },
                {
                    "name": "C#6",
                    "midi": 85,
                    "time": 97.21182000000108,
                    "velocity": 0.44881889763779526,
                    "duration": 0.1130370000000056
                },
                {
                    "name": "B5",
                    "midi": 83,
                    "time": 97.32485700000109,
                    "velocity": 0.4330708661417323,
                    "duration": 0.1130370000000056
                },
                {
                    "name": "A#5",
                    "midi": 82,
                    "time": 97.4378940000011,
                    "velocity": 0.41732283464566927,
                    "duration": 0.1130370000000056
                },
                {
                    "name": "G#5",
                    "midi": 80,
                    "time": 97.5509310000011,
                    "velocity": 0.4094488188976378,
                    "duration": 0.1130370000000056
                },
                {
                    "name": "A5",
                    "midi": 81,
                    "time": 97.6639680000011,
                    "velocity": 0.3937007874015748,
                    "duration": 0.1130370000000056
                },
                {
                    "name": "C#6",
                    "midi": 85,
                    "time": 97.77700500000111,
                    "velocity": 0.3543307086614173,
                    "duration": 0.1130370000000056
                },
                {
                    "name": "A5",
                    "midi": 81,
                    "time": 97.89004200000112,
                    "velocity": 0.4094488188976378,
                    "duration": 0.1130370000000056
                },
                {
                    "name": "C#6",
                    "midi": 85,
                    "time": 98.00307900000112,
                    "velocity": 0.36220472440944884,
                    "duration": 0.1130370000000056
                },
                {
                    "name": "E6",
                    "midi": 88,
                    "time": 98.11611600000113,
                    "velocity": 0.4251968503937008,
                    "duration": 0.1130370000000056
                },
                {
                    "name": "G5",
                    "midi": 79,
                    "time": 98.34219000000114,
                    "velocity": 0.4015748031496063,
                    "duration": 0.1130370000000056
                },
                {
                    "name": "A#5",
                    "midi": 82,
                    "time": 98.45522700000114,
                    "velocity": 0.3464566929133858,
                    "duration": 0.1130370000000056
                },
                {
                    "name": "G5",
                    "midi": 79,
                    "time": 98.56826400000115,
                    "velocity": 0.4015748031496063,
                    "duration": 0.1130370000000056
                },
                {
                    "name": "A#5",
                    "midi": 82,
                    "time": 98.68130100000116,
                    "velocity": 0.3543307086614173,
                    "duration": 0.1130370000000056
                },
                {
                    "name": "D#6",
                    "midi": 87,
                    "time": 98.79433800000116,
                    "velocity": 0.41732283464566927,
                    "duration": 0.1130370000000056
                },
                {
                    "name": "G#6",
                    "midi": 92,
                    "time": 99.02041200000117,
                    "velocity": 0.5511811023622047,
                    "duration": 0.1130370000000056
                },
                {
                    "name": "D#6",
                    "midi": 87,
                    "time": 99.13344900000118,
                    "velocity": 0.5354330708661418,
                    "duration": 0.1130370000000056
                },
                {
                    "name": "C#6",
                    "midi": 85,
                    "time": 99.24648600000118,
                    "velocity": 0.5196850393700787,
                    "duration": 0.1130370000000056
                },
                {
                    "name": "B5",
                    "midi": 83,
                    "time": 99.35952300000119,
                    "velocity": 0.5039370078740157,
                    "duration": 0.1130370000000056
                },
                {
                    "name": "A#5",
                    "midi": 82,
                    "time": 99.4725600000012,
                    "velocity": 0.4881889763779528,
                    "duration": 0.07535799999999426
                },
                {
                    "name": "G#5",
                    "midi": 80,
                    "time": 99.54791800000119,
                    "velocity": 0.47244094488188976,
                    "duration": 0.07535799999999426
                },
                {
                    "name": "F#5",
                    "midi": 78,
                    "time": 99.62327600000118,
                    "velocity": 0.4645669291338583,
                    "duration": 0.07535799999999426
                },
                {
                    "name": "E5",
                    "midi": 76,
                    "time": 99.69863400000118,
                    "velocity": 0.44881889763779526,
                    "duration": 0.1130370000000056
                },
                {
                    "name": "D#5",
                    "midi": 75,
                    "time": 99.81167100000118,
                    "velocity": 0.4330708661417323,
                    "duration": 0.1130370000000056
                },
                {
                    "name": "C#5",
                    "midi": 73,
                    "time": 99.92470800000119,
                    "velocity": 0.41732283464566927,
                    "duration": 0.1130370000000056
                },
                {
                    "name": "B4",
                    "midi": 71,
                    "time": 100.0377450000012,
                    "velocity": 0.4015748031496063,
                    "duration": 0.1130370000000056
                },
                {
                    "name": "A#4",
                    "midi": 70,
                    "time": 100.1507820000012,
                    "velocity": 0.3858267716535433,
                    "duration": 0.1130370000000056
                },
                {
                    "name": "G#4",
                    "midi": 68,
                    "time": 100.2638190000012,
                    "velocity": 0.3700787401574803,
                    "duration": 0.1130370000000056
                },
                {
                    "name": "A4",
                    "midi": 69,
                    "time": 100.37685600000121,
                    "velocity": 0.4015748031496063,
                    "duration": 0.1130370000000056
                },
                {
                    "name": "C#5",
                    "midi": 73,
                    "time": 100.48989300000122,
                    "velocity": 0.3543307086614173,
                    "duration": 0.1130370000000056
                },
                {
                    "name": "A4",
                    "midi": 69,
                    "time": 100.60293000000122,
                    "velocity": 0.3937007874015748,
                    "duration": 0.1130370000000056
                },
                {
                    "name": "C#5",
                    "midi": 73,
                    "time": 100.71596700000123,
                    "velocity": 0.3543307086614173,
                    "duration": 0.1130370000000056
                },
                {
                    "name": "E5",
                    "midi": 76,
                    "time": 100.82900400000123,
                    "velocity": 0.3937007874015748,
                    "duration": 0.452147999999994
                },
                {
                    "name": "D#5",
                    "midi": 75,
                    "time": 101.28115200000123,
                    "velocity": 0.30708661417322836,
                    "duration": 0.226073999999997
                },
                {
                    "name": "G4",
                    "midi": 67,
                    "time": 101.50722600000122,
                    "velocity": 0.2677165354330709,
                    "duration": 0.226073999999997
                },
                {
                    "name": "G#4",
                    "midi": 68,
                    "time": 101.73330000000122,
                    "velocity": 0.33070866141732286,
                    "duration": 0.1130370000000056
                },
                {
                    "name": "B4",
                    "midi": 71,
                    "time": 101.84633700000123,
                    "velocity": 0.2755905511811024,
                    "duration": 0.1130370000000056
                },
                {
                    "name": "G#4",
                    "midi": 68,
                    "time": 101.95937400000123,
                    "velocity": 0.33070866141732286,
                    "duration": 0.1130370000000056
                },
                {
                    "name": "B4",
                    "midi": 71,
                    "time": 102.07241100000124,
                    "velocity": 0.2755905511811024,
                    "duration": 0.1130370000000056
                },
                {
                    "name": "G#5",
                    "midi": 80,
                    "time": 102.18544800000124,
                    "velocity": 0.41732283464566927,
                    "duration": 0.1130370000000056
                },
                {
                    "name": "A#4",
                    "midi": 70,
                    "time": 102.41152200000126,
                    "velocity": 0.33070866141732286,
                    "duration": 0.1130370000000056
                },
                {
                    "name": "C#5",
                    "midi": 73,
                    "time": 102.52455900000126,
                    "velocity": 0.2755905511811024,
                    "duration": 0.1130370000000056
                },
                {
                    "name": "A#4",
                    "midi": 70,
                    "time": 102.63759600000127,
                    "velocity": 0.33070866141732286,
                    "duration": 0.1130370000000056
                },
                {
                    "name": "C#5",
                    "midi": 73,
                    "time": 102.75063300000127,
                    "velocity": 0.2755905511811024,
                    "duration": 0.1130370000000056
                },
                {
                    "name": "A#5",
                    "midi": 82,
                    "time": 102.86367000000128,
                    "velocity": 0.41732283464566927,
                    "duration": 0.1130370000000056
                },
                {
                    "name": "B4",
                    "midi": 71,
                    "time": 103.08974400000129,
                    "velocity": 0.33070866141732286,
                    "duration": 0.1130370000000056
                },
                {
                    "name": "D#5",
                    "midi": 75,
                    "time": 103.2027810000013,
                    "velocity": 0.2755905511811024,
                    "duration": 0.1130370000000056
                },
                {
                    "name": "B4",
                    "midi": 71,
                    "time": 103.3158180000013,
                    "velocity": 0.33070866141732286,
                    "duration": 0.1130370000000056
                },
                {
                    "name": "D#5",
                    "midi": 75,
                    "time": 103.4288550000013,
                    "velocity": 0.2755905511811024,
                    "duration": 0.1130370000000056
                },
                {
                    "name": "B5",
                    "midi": 83,
                    "time": 103.54189200000131,
                    "velocity": 0.41732283464566927,
                    "duration": 0.1130370000000056
                },
                {
                    "name": "A#4",
                    "midi": 70,
                    "time": 103.76796600000132,
                    "velocity": 0.30708661417322836,
                    "duration": 0.0565184999999957
                },
                {
                    "name": "C#5",
                    "midi": 73,
                    "time": 103.76796600000132,
                    "velocity": 0.30708661417322836,
                    "duration": 0.0565184999999957
                },
                {
                    "name": "A#5",
                    "midi": 82,
                    "time": 103.76796600000132,
                    "velocity": 0.36220472440944884,
                    "duration": 0.0565184999999957
                },
                {
                    "name": "C#5",
                    "midi": 73,
                    "time": 103.99404000000132,
                    "velocity": 0.28346456692913385,
                    "duration": 0.0565184999999957
                },
                {
                    "name": "A#4",
                    "midi": 70,
                    "time": 103.99404000000132,
                    "velocity": 0.28346456692913385,
                    "duration": 0.0565184999999957
                },
                {
                    "name": "A#5",
                    "midi": 82,
                    "time": 103.99404000000132,
                    "velocity": 0.33858267716535434,
                    "duration": 0.0565184999999957
                },
                {
                    "name": "G#4",
                    "midi": 68,
                    "time": 104.22011400000132,
                    "velocity": 0.28346456692913385,
                    "duration": 0.0565184999999957
                },
                {
                    "name": "B4",
                    "midi": 71,
                    "time": 104.22011400000132,
                    "velocity": 0.28346456692913385,
                    "duration": 0.0565184999999957
                },
                {
                    "name": "G#5",
                    "midi": 80,
                    "time": 104.22011400000132,
                    "velocity": 0.33858267716535434,
                    "duration": 0.0565184999999957
                },
                {
                    "name": "G4",
                    "midi": 67,
                    "time": 104.44618800000131,
                    "velocity": 0.33070866141732286,
                    "duration": 0.1130370000000056
                },
                {
                    "name": "A#4",
                    "midi": 70,
                    "time": 104.55922500000132,
                    "velocity": 0.2755905511811024,
                    "duration": 0.1130370000000056
                },
                {
                    "name": "G4",
                    "midi": 67,
                    "time": 104.67226200000133,
                    "velocity": 0.33070866141732286,
                    "duration": 0.1130370000000056
                },
                {
                    "name": "A#4",
                    "midi": 70,
                    "time": 104.78529900000133,
                    "velocity": 0.2755905511811024,
                    "duration": 0.1130370000000056
                },
                {
                    "name": "G5",
                    "midi": 79,
                    "time": 104.89833600000134,
                    "velocity": 0.41732283464566927,
                    "duration": 0.1130370000000056
                },
                {
                    "name": "G#4",
                    "midi": 68,
                    "time": 105.12441000000135,
                    "velocity": 0.33070866141732286,
                    "duration": 0.1130370000000056
                },
                {
                    "name": "B4",
                    "midi": 71,
                    "time": 105.23744700000135,
                    "velocity": 0.2755905511811024,
                    "duration": 0.1130370000000056
                },
                {
                    "name": "G#4",
                    "midi": 68,
                    "time": 105.35048400000136,
                    "velocity": 0.33070866141732286,
                    "duration": 0.1130370000000056
                },
                {
                    "name": "B4",
                    "midi": 71,
                    "time": 105.46352100000136,
                    "velocity": 0.2755905511811024,
                    "duration": 0.1130370000000056
                },
                {
                    "name": "G#5",
                    "midi": 80,
                    "time": 105.57655800000137,
                    "velocity": 0.41732283464566927,
                    "duration": 0.1130370000000056
                },
                {
                    "name": "A#4",
                    "midi": 70,
                    "time": 105.80263200000138,
                    "velocity": 0.33070866141732286,
                    "duration": 0.1130370000000056
                },
                {
                    "name": "C#5",
                    "midi": 73,
                    "time": 105.91566900000139,
                    "velocity": 0.2755905511811024,
                    "duration": 0.1130370000000056
                },
                {
                    "name": "A#4",
                    "midi": 70,
                    "time": 106.02870600000139,
                    "velocity": 0.33070866141732286,
                    "duration": 0.1130370000000056
                },
                {
                    "name": "C#5",
                    "midi": 73,
                    "time": 106.1417430000014,
                    "velocity": 0.2755905511811024,
                    "duration": 0.1130370000000056
                },
                {
                    "name": "A#5",
                    "midi": 82,
                    "time": 106.2547800000014,
                    "velocity": 0.41732283464566927,
                    "duration": 0.1130370000000056
                },
                {
                    "name": "B4",
                    "midi": 71,
                    "time": 106.48085400000141,
                    "velocity": 0.30708661417322836,
                    "duration": 0.0565184999999957
                },
                {
                    "name": "G#4",
                    "midi": 68,
                    "time": 106.48085400000141,
                    "velocity": 0.30708661417322836,
                    "duration": 0.0565184999999957
                },
                {
                    "name": "G#5",
                    "midi": 80,
                    "time": 106.48085400000141,
                    "velocity": 0.36220472440944884,
                    "duration": 0.0565184999999957
                },
                {
                    "name": "G#4",
                    "midi": 68,
                    "time": 106.70692800000141,
                    "velocity": 0.28346456692913385,
                    "duration": 0.0565184999999957
                },
                {
                    "name": "G#5",
                    "midi": 80,
                    "time": 106.70692800000141,
                    "velocity": 0.33858267716535434,
                    "duration": 0.0565184999999957
                },
                {
                    "name": "B4",
                    "midi": 71,
                    "time": 106.70692800000141,
                    "velocity": 0.28346456692913385,
                    "duration": 0.0565184999999957
                },
                {
                    "name": "A#4",
                    "midi": 70,
                    "time": 106.93300200000141,
                    "velocity": 0.28346456692913385,
                    "duration": 0.0565184999999957
                },
                {
                    "name": "G5",
                    "midi": 79,
                    "time": 106.93300200000141,
                    "velocity": 0.33858267716535434,
                    "duration": 0.0565184999999957
                },
                {
                    "name": "G4",
                    "midi": 67,
                    "time": 106.93300200000141,
                    "velocity": 0.28346456692913385,
                    "duration": 0.0565184999999957
                },
                {
                    "name": "G#4",
                    "midi": 68,
                    "time": 107.1590760000014,
                    "velocity": 0.36220472440944884,
                    "duration": 0.1130370000000056
                },
                {
                    "name": "B4",
                    "midi": 71,
                    "time": 107.27211300000141,
                    "velocity": 0.2992125984251969,
                    "duration": 0.1130370000000056
                },
                {
                    "name": "G#4",
                    "midi": 68,
                    "time": 107.38515000000142,
                    "velocity": 0.36220472440944884,
                    "duration": 0.1130370000000056
                },
                {
                    "name": "B4",
                    "midi": 71,
                    "time": 107.49818700000142,
                    "velocity": 0.2992125984251969,
                    "duration": 0.1130370000000056
                },
                {
                    "name": "G#5",
                    "midi": 80,
                    "time": 107.61122400000143,
                    "velocity": 0.4566929133858268,
                    "duration": 0.1130370000000056
                },
                {
                    "name": "A#4",
                    "midi": 70,
                    "time": 107.83729800000144,
                    "velocity": 0.36220472440944884,
                    "duration": 0.1130370000000056
                },
                {
                    "name": "C#5",
                    "midi": 73,
                    "time": 107.95033500000144,
                    "velocity": 0.2992125984251969,
                    "duration": 0.1130370000000056
                },
                {
                    "name": "A#4",
                    "midi": 70,
                    "time": 108.06337200000145,
                    "velocity": 0.36220472440944884,
                    "duration": 0.1130370000000056
                },
                {
                    "name": "C#5",
                    "midi": 73,
                    "time": 108.17640900000146,
                    "velocity": 0.2992125984251969,
                    "duration": 0.1130370000000056
                },
                {
                    "name": "A#5",
                    "midi": 82,
                    "time": 108.28944600000146,
                    "velocity": 0.4566929133858268,
                    "duration": 0.1130370000000056
                },
                {
                    "name": "B4",
                    "midi": 71,
                    "time": 108.51552000000147,
                    "velocity": 0.36220472440944884,
                    "duration": 0.1130370000000056
                },
                {
                    "name": "D#5",
                    "midi": 75,
                    "time": 108.62855700000148,
                    "velocity": 0.2992125984251969,
                    "duration": 0.1130370000000056
                },
                {
                    "name": "B4",
                    "midi": 71,
                    "time": 108.74159400000148,
                    "velocity": 0.36220472440944884,
                    "duration": 0.1130370000000056
                },
                {
                    "name": "D#5",
                    "midi": 75,
                    "time": 108.85463100000149,
                    "velocity": 0.2992125984251969,
                    "duration": 0.1130370000000056
                },
                {
                    "name": "B5",
                    "midi": 83,
                    "time": 108.9676680000015,
                    "velocity": 0.4566929133858268,
                    "duration": 0.1130370000000056
                },
                {
                    "name": "E5",
                    "midi": 76,
                    "time": 109.1937420000015,
                    "velocity": 0.3937007874015748,
                    "duration": 0.0565184999999957
                },
                {
                    "name": "C#6",
                    "midi": 85,
                    "time": 109.1937420000015,
                    "velocity": 0.4645669291338583,
                    "duration": 0.0565184999999957
                },
                {
                    "name": "C#5",
                    "midi": 73,
                    "time": 109.1937420000015,
                    "velocity": 0.3937007874015748,
                    "duration": 0.0565184999999957
                },
                {
                    "name": "E5",
                    "midi": 76,
                    "time": 109.4198160000015,
                    "velocity": 0.36220472440944884,
                    "duration": 0.0565184999999957
                },
                {
                    "name": "C#5",
                    "midi": 73,
                    "time": 109.4198160000015,
                    "velocity": 0.36220472440944884,
                    "duration": 0.0565184999999957
                },
                {
                    "name": "C#6",
                    "midi": 85,
                    "time": 109.4198160000015,
                    "velocity": 0.4330708661417323,
                    "duration": 0.0565184999999957
                },
                {
                    "name": "F#5",
                    "midi": 78,
                    "time": 109.6458900000015,
                    "velocity": 0.36220472440944884,
                    "duration": 0.0565184999999957
                },
                {
                    "name": "D#5",
                    "midi": 75,
                    "time": 109.6458900000015,
                    "velocity": 0.36220472440944884,
                    "duration": 0.0565184999999957
                },
                {
                    "name": "D#6",
                    "midi": 87,
                    "time": 109.6458900000015,
                    "velocity": 0.4330708661417323,
                    "duration": 0.0565184999999957
                },
                {
                    "name": "B4",
                    "midi": 71,
                    "time": 109.8719640000015,
                    "velocity": 0.36220472440944884,
                    "duration": 0.1130370000000056
                },
                {
                    "name": "D#5",
                    "midi": 75,
                    "time": 109.9850010000015,
                    "velocity": 0.2992125984251969,
                    "duration": 0.1130370000000056
                },
                {
                    "name": "B4",
                    "midi": 71,
                    "time": 110.09803800000151,
                    "velocity": 0.36220472440944884,
                    "duration": 0.1130370000000056
                },
                {
                    "name": "D#5",
                    "midi": 75,
                    "time": 110.21107500000151,
                    "velocity": 0.2992125984251969,
                    "duration": 0.1130370000000056
                },
                {
                    "name": "B5",
                    "midi": 83,
                    "time": 110.32411200000152,
                    "velocity": 0.4566929133858268,
                    "duration": 0.1130370000000056
                },
                {
                    "name": "C#6",
                    "midi": 85,
                    "time": 110.55018600000153,
                    "velocity": 0.4645669291338583,
                    "duration": 0.0565184999999957
                },
                {
                    "name": "C#5",
                    "midi": 73,
                    "time": 110.55018600000153,
                    "velocity": 0.3937007874015748,
                    "duration": 0.0565184999999957
                },
                {
                    "name": "E5",
                    "midi": 76,
                    "time": 110.55018600000153,
                    "velocity": 0.3937007874015748,
                    "duration": 0.0565184999999957
                },
                {
                    "name": "E5",
                    "midi": 76,
                    "time": 110.77626000000153,
                    "velocity": 0.36220472440944884,
                    "duration": 0.0565184999999957
                },
                {
                    "name": "C#5",
                    "midi": 73,
                    "time": 110.77626000000153,
                    "velocity": 0.36220472440944884,
                    "duration": 0.0565184999999957
                },
                {
                    "name": "C#6",
                    "midi": 85,
                    "time": 110.77626000000153,
                    "velocity": 0.4330708661417323,
                    "duration": 0.0565184999999957
                },
                {
                    "name": "D#5",
                    "midi": 75,
                    "time": 111.00233400000153,
                    "velocity": 0.36220472440944884,
                    "duration": 0.0565184999999957
                },
                {
                    "name": "F#5",
                    "midi": 78,
                    "time": 111.00233400000153,
                    "velocity": 0.36220472440944884,
                    "duration": 0.0565184999999957
                },
                {
                    "name": "D#6",
                    "midi": 87,
                    "time": 111.00233400000153,
                    "velocity": 0.4330708661417323,
                    "duration": 0.0565184999999957
                },
                {
                    "name": "A#4",
                    "midi": 70,
                    "time": 111.22840800000152,
                    "velocity": 0.4094488188976378,
                    "duration": 0.1130370000000056
                },
                {
                    "name": "D#5",
                    "midi": 75,
                    "time": 111.34144500000153,
                    "velocity": 0.33858267716535434,
                    "duration": 0.1130370000000056
                },
                {
                    "name": "A#4",
                    "midi": 70,
                    "time": 111.45448200000153,
                    "velocity": 0.4094488188976378,
                    "duration": 0.1130370000000056
                },
                {
                    "name": "D#5",
                    "midi": 75,
                    "time": 111.56751900000154,
                    "velocity": 0.33858267716535434,
                    "duration": 0.1130370000000056
                },
                {
                    "name": "A#5",
                    "midi": 82,
                    "time": 111.68055600000154,
                    "velocity": 0.5196850393700787,
                    "duration": 0.1695555000000013
                },
                {
                    "name": "B4",
                    "midi": 71,
                    "time": 111.90663000000154,
                    "velocity": 0.4094488188976378,
                    "duration": 0.1130370000000056
                },
                {
                    "name": "D#5",
                    "midi": 75,
                    "time": 112.01966700000155,
                    "velocity": 0.33858267716535434,
                    "duration": 0.1130370000000056
                },
                {
                    "name": "B4",
                    "midi": 71,
                    "time": 112.13270400000155,
                    "velocity": 0.4094488188976378,
                    "duration": 0.1130370000000056
                },
                {
                    "name": "D#5",
                    "midi": 75,
                    "time": 112.24574100000156,
                    "velocity": 0.33858267716535434,
                    "duration": 0.1130370000000056
                },
                {
                    "name": "B5",
                    "midi": 83,
                    "time": 112.35877800000156,
                    "velocity": 0.5196850393700787,
                    "duration": 0.1695555000000013
                },
                {
                    "name": "C#5",
                    "midi": 73,
                    "time": 112.58485200000156,
                    "velocity": 0.4094488188976378,
                    "duration": 0.1130370000000056
                },
                {
                    "name": "E5",
                    "midi": 76,
                    "time": 112.69788900000157,
                    "velocity": 0.33858267716535434,
                    "duration": 0.1130370000000056
                },
                {
                    "name": "C#5",
                    "midi": 73,
                    "time": 112.81092600000157,
                    "velocity": 0.4094488188976378,
                    "duration": 0.1130370000000056
                },
                {
                    "name": "E5",
                    "midi": 76,
                    "time": 112.92396300000158,
                    "velocity": 0.33858267716535434,
                    "duration": 0.1130370000000056
                },
                {
                    "name": "C#6",
                    "midi": 85,
                    "time": 113.03700000000158,
                    "velocity": 0.5196850393700787,
                    "duration": 0.1695555000000013
                },
                {
                    "name": "D#5",
                    "midi": 75,
                    "time": 113.26307400000158,
                    "velocity": 0.44881889763779526,
                    "duration": 0.0565184999999957
                },
                {
                    "name": "B5",
                    "midi": 83,
                    "time": 113.26307400000158,
                    "velocity": 0.5275590551181102,
                    "duration": 0.0565184999999957
                },
                {
                    "name": "G#5",
                    "midi": 80,
                    "time": 113.26307400000158,
                    "velocity": 0.44881889763779526,
                    "duration": 0.0565184999999957
                },
                {
                    "name": "B4",
                    "midi": 71,
                    "time": 113.26307400000158,
                    "velocity": 0.44881889763779526,
                    "duration": 0.0565184999999957
                },
                {
                    "name": "D#5",
                    "midi": 75,
                    "time": 113.48914800000158,
                    "velocity": 0.4094488188976378,
                    "duration": 0.0565184999999957
                },
                {
                    "name": "B5",
                    "midi": 83,
                    "time": 113.48914800000158,
                    "velocity": 0.49606299212598426,
                    "duration": 0.0565184999999957
                },
                {
                    "name": "B4",
                    "midi": 71,
                    "time": 113.48914800000158,
                    "velocity": 0.4094488188976378,
                    "duration": 0.0565184999999957
                },
                {
                    "name": "G#5",
                    "midi": 80,
                    "time": 113.48914800000158,
                    "velocity": 0.4094488188976378,
                    "duration": 0.0565184999999957
                },
                {
                    "name": "A#4",
                    "midi": 70,
                    "time": 113.71522200000157,
                    "velocity": 0.4094488188976378,
                    "duration": 0.0565184999999957
                },
                {
                    "name": "A#5",
                    "midi": 82,
                    "time": 113.71522200000157,
                    "velocity": 0.49606299212598426,
                    "duration": 0.0565184999999957
                },
                {
                    "name": "D#5",
                    "midi": 75,
                    "time": 113.71522200000157,
                    "velocity": 0.4094488188976378,
                    "duration": 0.0565184999999957
                },
                {
                    "name": "G5",
                    "midi": 79,
                    "time": 113.71522200000157,
                    "velocity": 0.4094488188976378,
                    "duration": 0.0565184999999957
                },
                {
                    "name": "A#4",
                    "midi": 70,
                    "time": 113.94129600000157,
                    "velocity": 0.44881889763779526,
                    "duration": 0.1130370000000056
                },
                {
                    "name": "D#5",
                    "midi": 75,
                    "time": 114.05433300000158,
                    "velocity": 0.3700787401574803,
                    "duration": 0.1130370000000056
                },
                {
                    "name": "A#4",
                    "midi": 70,
                    "time": 114.16737000000158,
                    "velocity": 0.44881889763779526,
                    "duration": 0.1130370000000056
                },
                {
                    "name": "D#5",
                    "midi": 75,
                    "time": 114.28040700000159,
                    "velocity": 0.3700787401574803,
                    "duration": 0.1130370000000056
                },
                {
                    "name": "A#5",
                    "midi": 82,
                    "time": 114.3934440000016,
                    "velocity": 0.5669291338582677,
                    "duration": 0.1695555000000013
                },
                {
                    "name": "B4",
                    "midi": 71,
                    "time": 114.61951800000159,
                    "velocity": 0.44881889763779526,
                    "duration": 0.1130370000000056
                },
                {
                    "name": "D#5",
                    "midi": 75,
                    "time": 114.7325550000016,
                    "velocity": 0.3700787401574803,
                    "duration": 0.1130370000000056
                },
                {
                    "name": "B4",
                    "midi": 71,
                    "time": 114.8455920000016,
                    "velocity": 0.44881889763779526,
                    "duration": 0.1130370000000056
                },
                {
                    "name": "D#5",
                    "midi": 75,
                    "time": 114.95862900000161,
                    "velocity": 0.3700787401574803,
                    "duration": 0.1130370000000056
                },
                {
                    "name": "B5",
                    "midi": 83,
                    "time": 115.07166600000161,
                    "velocity": 0.5669291338582677,
                    "duration": 0.1695555000000013
                },
                {
                    "name": "C#5",
                    "midi": 73,
                    "time": 115.29774000000161,
                    "velocity": 0.44881889763779526,
                    "duration": 0.1130370000000056
                },
                {
                    "name": "E5",
                    "midi": 76,
                    "time": 115.41077700000162,
                    "velocity": 0.3700787401574803,
                    "duration": 0.1130370000000056
                },
                {
                    "name": "C#5",
                    "midi": 73,
                    "time": 115.52381400000162,
                    "velocity": 0.44881889763779526,
                    "duration": 0.1130370000000056
                },
                {
                    "name": "E5",
                    "midi": 76,
                    "time": 115.63685100000163,
                    "velocity": 0.3700787401574803,
                    "duration": 0.1130370000000056
                },
                {
                    "name": "C#6",
                    "midi": 85,
                    "time": 115.74988800000163,
                    "velocity": 0.5669291338582677,
                    "duration": 0.1695555000000013
                },
                {
                    "name": "B5",
                    "midi": 83,
                    "time": 115.97596200000163,
                    "velocity": 0.5275590551181102,
                    "duration": 0.0565184999999957
                },
                {
                    "name": "G#5",
                    "midi": 80,
                    "time": 115.97596200000163,
                    "velocity": 0.44881889763779526,
                    "duration": 0.0565184999999957
                },
                {
                    "name": "B4",
                    "midi": 71,
                    "time": 115.97596200000163,
                    "velocity": 0.44881889763779526,
                    "duration": 0.0565184999999957
                },
                {
                    "name": "D#5",
                    "midi": 75,
                    "time": 115.97596200000163,
                    "velocity": 0.44881889763779526,
                    "duration": 0.0565184999999957
                },
                {
                    "name": "B5",
                    "midi": 83,
                    "time": 116.20203600000163,
                    "velocity": 0.49606299212598426,
                    "duration": 0.0565184999999957
                },
                {
                    "name": "B4",
                    "midi": 71,
                    "time": 116.20203600000163,
                    "velocity": 0.4094488188976378,
                    "duration": 0.0565184999999957
                },
                {
                    "name": "G#5",
                    "midi": 80,
                    "time": 116.20203600000163,
                    "velocity": 0.4094488188976378,
                    "duration": 0.0565184999999957
                },
                {
                    "name": "D#5",
                    "midi": 75,
                    "time": 116.20203600000163,
                    "velocity": 0.4094488188976378,
                    "duration": 0.0565184999999957
                },
                {
                    "name": "G5",
                    "midi": 79,
                    "time": 116.42811000000162,
                    "velocity": 0.4094488188976378,
                    "duration": 0.0565184999999957
                },
                {
                    "name": "A#4",
                    "midi": 70,
                    "time": 116.42811000000162,
                    "velocity": 0.4094488188976378,
                    "duration": 0.0565184999999957
                },
                {
                    "name": "A#5",
                    "midi": 82,
                    "time": 116.42811000000162,
                    "velocity": 0.49606299212598426,
                    "duration": 0.0565184999999957
                },
                {
                    "name": "D#5",
                    "midi": 75,
                    "time": 116.42811000000162,
                    "velocity": 0.4094488188976378,
                    "duration": 0.0565184999999957
                },
                {
                    "name": "C#5",
                    "midi": 73,
                    "time": 116.65418400000162,
                    "velocity": 0.4881889763779528,
                    "duration": 0.1130370000000056
                },
                {
                    "name": "A#5",
                    "midi": 82,
                    "time": 116.76722100000163,
                    "velocity": 0.4015748031496063,
                    "duration": 0.1130370000000056
                },
                {
                    "name": "C#5",
                    "midi": 73,
                    "time": 116.88025800000163,
                    "velocity": 0.4881889763779528,
                    "duration": 0.1130370000000056
                },
                {
                    "name": "A#5",
                    "midi": 82,
                    "time": 116.99329500000164,
                    "velocity": 0.4015748031496063,
                    "duration": 0.1130370000000056
                },
                {
                    "name": "C#6",
                    "midi": 85,
                    "time": 117.10633200000164,
                    "velocity": 0.6220472440944882,
                    "duration": 0.1695555000000013
                },
                {
                    "name": "D#5",
                    "midi": 75,
                    "time": 117.33240600000164,
                    "velocity": 0.4881889763779528,
                    "duration": 0.1130370000000056
                },
                {
                    "name": "B5",
                    "midi": 83,
                    "time": 117.44544300000165,
                    "velocity": 0.4015748031496063,
                    "duration": 0.1130370000000056
                },
                {
                    "name": "D#5",
                    "midi": 75,
                    "time": 117.55848000000165,
                    "velocity": 0.4881889763779528,
                    "duration": 0.1130370000000056
                },
                {
                    "name": "B5",
                    "midi": 83,
                    "time": 117.67151700000166,
                    "velocity": 0.4015748031496063,
                    "duration": 0.1130370000000056
                },
                {
                    "name": "D#6",
                    "midi": 87,
                    "time": 117.78455400000166,
                    "velocity": 0.6220472440944882,
                    "duration": 0.1695555000000013
                },
                {
                    "name": "E5",
                    "midi": 76,
                    "time": 118.01062800000166,
                    "velocity": 0.4881889763779528,
                    "duration": 0.1130370000000056
                },
                {
                    "name": "C#6",
                    "midi": 85,
                    "time": 118.12366500000167,
                    "velocity": 0.4015748031496063,
                    "duration": 0.1130370000000056
                },
                {
                    "name": "E5",
                    "midi": 76,
                    "time": 118.23670200000167,
                    "velocity": 0.4881889763779528,
                    "duration": 0.1130370000000056
                },
                {
                    "name": "C#6",
                    "midi": 85,
                    "time": 118.34973900000168,
                    "velocity": 0.4015748031496063,
                    "duration": 0.1130370000000056
                },
                {
                    "name": "E6",
                    "midi": 88,
                    "time": 118.46277600000168,
                    "velocity": 0.6220472440944882,
                    "duration": 0.1695555000000013
                },
                {
                    "name": "C#6",
                    "midi": 85,
                    "time": 118.68885000000168,
                    "velocity": 0.5748031496062992,
                    "duration": 0.0565184999999957
                },
                {
                    "name": "A#5",
                    "midi": 82,
                    "time": 118.68885000000168,
                    "velocity": 0.4881889763779528,
                    "duration": 0.0565184999999957
                },
                {
                    "name": "C#5",
                    "midi": 73,
                    "time": 118.68885000000168,
                    "velocity": 0.4881889763779528,
                    "duration": 0.0565184999999957
                },
                {
                    "name": "A#5",
                    "midi": 82,
                    "time": 118.91492400000168,
                    "velocity": 0.44881889763779526,
                    "duration": 0.0565184999999957
                },
                {
                    "name": "C#5",
                    "midi": 73,
                    "time": 118.91492400000168,
                    "velocity": 0.44881889763779526,
                    "duration": 0.0565184999999957
                },
                {
                    "name": "C#6",
                    "midi": 85,
                    "time": 118.91492400000168,
                    "velocity": 0.5433070866141733,
                    "duration": 0.0565184999999957
                },
                {
                    "name": "A#4",
                    "midi": 70,
                    "time": 119.14099800000167,
                    "velocity": 0.44881889763779526,
                    "duration": 0.0565184999999957
                },
                {
                    "name": "A#5",
                    "midi": 82,
                    "time": 119.14099800000167,
                    "velocity": 0.5433070866141733,
                    "duration": 0.0565184999999957
                },
                {
                    "name": "G5",
                    "midi": 79,
                    "time": 119.14099800000167,
                    "velocity": 0.44881889763779526,
                    "duration": 0.0565184999999957
                },
                {
                    "name": "E5",
                    "midi": 76,
                    "time": 119.36707200000167,
                    "velocity": 0.4881889763779528,
                    "duration": 0.1130370000000056
                },
                {
                    "name": "C#6",
                    "midi": 85,
                    "time": 119.48010900000168,
                    "velocity": 0.4015748031496063,
                    "duration": 0.1130370000000056
                },
                {
                    "name": "E5",
                    "midi": 76,
                    "time": 119.59314600000168,
                    "velocity": 0.4881889763779528,
                    "duration": 0.1130370000000056
                },
                {
                    "name": "C#6",
                    "midi": 85,
                    "time": 119.70618300000169,
                    "velocity": 0.4015748031496063,
                    "duration": 0.1130370000000056
                },
                {
                    "name": "E6",
                    "midi": 88,
                    "time": 119.81922000000169,
                    "velocity": 0.6220472440944882,
                    "duration": 0.1695555000000013
                },
                {
                    "name": "C#5",
                    "midi": 73,
                    "time": 120.04529400000169,
                    "velocity": 0.4881889763779528,
                    "duration": 0.0565184999999957
                },
                {
                    "name": "A#5",
                    "midi": 82,
                    "time": 120.04529400000169,
                    "velocity": 0.4881889763779528,
                    "duration": 0.0565184999999957
                },
                {
                    "name": "C#6",
                    "midi": 85,
                    "time": 120.04529400000169,
                    "velocity": 0.5748031496062992,
                    "duration": 0.0565184999999957
                },
                {
                    "name": "C#6",
                    "midi": 85,
                    "time": 120.27136800000169,
                    "velocity": 0.5433070866141733,
                    "duration": 0.0565184999999957
                },
                {
                    "name": "C#5",
                    "midi": 73,
                    "time": 120.27136800000169,
                    "velocity": 0.44881889763779526,
                    "duration": 0.0565184999999957
                },
                {
                    "name": "A#5",
                    "midi": 82,
                    "time": 120.27136800000169,
                    "velocity": 0.44881889763779526,
                    "duration": 0.0565184999999957
                },
                {
                    "name": "A#4",
                    "midi": 70,
                    "time": 120.49744200000168,
                    "velocity": 0.44881889763779526,
                    "duration": 0.0565184999999957
                },
                {
                    "name": "G5",
                    "midi": 79,
                    "time": 120.49744200000168,
                    "velocity": 0.44881889763779526,
                    "duration": 0.0565184999999957
                },
                {
                    "name": "A#5",
                    "midi": 82,
                    "time": 120.49744200000168,
                    "velocity": 0.5433070866141733,
                    "duration": 0.0565184999999957
                },
                {
                    "name": "E5",
                    "midi": 76,
                    "time": 120.72351600000168,
                    "velocity": 0.4881889763779528,
                    "duration": 0.1130370000000056
                },
                {
                    "name": "C#6",
                    "midi": 85,
                    "time": 120.83655300000169,
                    "velocity": 0.4015748031496063,
                    "duration": 0.1130370000000056
                },
                {
                    "name": "E5",
                    "midi": 76,
                    "time": 120.94959000000169,
                    "velocity": 0.4881889763779528,
                    "duration": 0.1130370000000056
                },
                {
                    "name": "C#6",
                    "midi": 85,
                    "time": 121.0626270000017,
                    "velocity": 0.4015748031496063,
                    "duration": 0.1130370000000056
                },
                {
                    "name": "E6",
                    "midi": 88,
                    "time": 121.1756640000017,
                    "velocity": 0.6220472440944882,
                    "duration": 0.1695555000000013
                },
                {
                    "name": "G5",
                    "midi": 79,
                    "time": 121.4017380000017,
                    "velocity": 0.5354330708661418,
                    "duration": 0.1130370000000056
                },
                {
                    "name": "E6",
                    "midi": 88,
                    "time": 121.5147750000017,
                    "velocity": 0.4409448818897638,
                    "duration": 0.1130370000000056
                },
                {
                    "name": "G5",
                    "midi": 79,
                    "time": 121.62781200000171,
                    "velocity": 0.5354330708661418,
                    "duration": 0.1130370000000056
                },
                {
                    "name": "E6",
                    "midi": 88,
                    "time": 121.74084900000172,
                    "velocity": 0.44881889763779526,
                    "duration": 0.1130370000000056
                },
                {
                    "name": "G6",
                    "midi": 91,
                    "time": 121.85388600000172,
                    "velocity": 0.7007874015748031,
                    "duration": 0.1695555000000013
                },
                {
                    "name": "A#5",
                    "midi": 82,
                    "time": 122.07996000000172,
                    "velocity": 0.5590551181102362,
                    "duration": 0.1130370000000056
                },
                {
                    "name": "G6",
                    "midi": 91,
                    "time": 122.19299700000172,
                    "velocity": 0.4566929133858268,
                    "duration": 0.1130370000000056
                },
                {
                    "name": "A#5",
                    "midi": 82,
                    "time": 122.30603400000173,
                    "velocity": 0.5590551181102362,
                    "duration": 0.1130370000000056
                },
                {
                    "name": "G6",
                    "midi": 91,
                    "time": 122.41907100000174,
                    "velocity": 0.4645669291338583,
                    "duration": 0.1130370000000056
                },
                {
                    "name": "A#6",
                    "midi": 94,
                    "time": 122.53210800000174,
                    "velocity": 0.7322834645669292,
                    "duration": 0.1695555000000013
                },
                {
                    "name": "C#6",
                    "midi": 85,
                    "time": 122.75818200000174,
                    "velocity": 0.5826771653543307,
                    "duration": 0.1130370000000056
                },
                {
                    "name": "A#6",
                    "midi": 94,
                    "time": 122.87121900000174,
                    "velocity": 0.48031496062992124,
                    "duration": 0.1130370000000056
                },
                {
                    "name": "C#6",
                    "midi": 85,
                    "time": 122.98425600000175,
                    "velocity": 0.5905511811023622,
                    "duration": 0.1130370000000056
                },
                {
                    "name": "A#6",
                    "midi": 94,
                    "time": 123.09729300000176,
                    "velocity": 0.4881889763779528,
                    "duration": 0.1130370000000056
                },
                {
                    "name": "C#7",
                    "midi": 97,
                    "time": 123.21033000000176,
                    "velocity": 0.7637795275590551,
                    "duration": 0.1695555000000013
                },
                {
                    "name": "E6",
                    "midi": 88,
                    "time": 123.43640400000176,
                    "velocity": 0.6062992125984252,
                    "duration": 0.1130370000000056
                },
                {
                    "name": "C#7",
                    "midi": 97,
                    "time": 123.54944100000176,
                    "velocity": 0.49606299212598426,
                    "duration": 0.1130370000000056
                },
                {
                    "name": "E6",
                    "midi": 88,
                    "time": 123.66247800000177,
                    "velocity": 0.6141732283464567,
                    "duration": 0.1130370000000056
                },
                {
                    "name": "C#7",
                    "midi": 97,
                    "time": 123.77551500000177,
                    "velocity": 0.5039370078740157,
                    "duration": 0.1130370000000056
                },
                {
                    "name": "E7",
                    "midi": 100,
                    "time": 123.88855200000178,
                    "velocity": 0.7952755905511811,
                    "duration": 0.1695555000000013
                },
                {
                    "name": "E5",
                    "midi": 76,
                    "time": 124.79284800000178,
                    "velocity": 0.33070866141732286,
                    "duration": 0.1130370000000056
                },
                {
                    "name": "C#6",
                    "midi": 85,
                    "time": 124.90588500000179,
                    "velocity": 0.2755905511811024,
                    "duration": 0.1130370000000056
                },
                {
                    "name": "E5",
                    "midi": 76,
                    "time": 125.0189220000018,
                    "velocity": 0.33070866141732286,
                    "duration": 0.1130370000000056
                },
                {
                    "name": "C#6",
                    "midi": 85,
                    "time": 125.1319590000018,
                    "velocity": 0.2755905511811024,
                    "duration": 0.1130370000000056
                },
                {
                    "name": "E6",
                    "midi": 88,
                    "time": 125.2449960000018,
                    "velocity": 0.41732283464566927,
                    "duration": 0.1130370000000056
                },
                {
                    "name": "E5",
                    "midi": 76,
                    "time": 125.47107000000182,
                    "velocity": 0.33070866141732286,
                    "duration": 0.1130370000000056
                },
                {
                    "name": "C#6",
                    "midi": 85,
                    "time": 125.58410700000182,
                    "velocity": 0.2755905511811024,
                    "duration": 0.1130370000000056
                },
                {
                    "name": "E5",
                    "midi": 76,
                    "time": 125.69714400000183,
                    "velocity": 0.33070866141732286,
                    "duration": 0.1130370000000056
                },
                {
                    "name": "C#6",
                    "midi": 85,
                    "time": 125.81018100000183,
                    "velocity": 0.2755905511811024,
                    "duration": 0.1130370000000056
                },
                {
                    "name": "E6",
                    "midi": 88,
                    "time": 125.92321800000184,
                    "velocity": 0.41732283464566927,
                    "duration": 0.1130370000000056
                },
                {
                    "name": "E5",
                    "midi": 76,
                    "time": 126.14929200000185,
                    "velocity": 0.33070866141732286,
                    "duration": 0.1130370000000056
                },
                {
                    "name": "C#6",
                    "midi": 85,
                    "time": 126.26232900000186,
                    "velocity": 0.2755905511811024,
                    "duration": 0.1130370000000056
                },
                {
                    "name": "E5",
                    "midi": 76,
                    "time": 126.37536600000186,
                    "velocity": 0.33070866141732286,
                    "duration": 0.1130370000000056
                },
                {
                    "name": "C#6",
                    "midi": 85,
                    "time": 126.48840300000187,
                    "velocity": 0.2755905511811024,
                    "duration": 0.1130370000000056
                },
                {
                    "name": "E6",
                    "midi": 88,
                    "time": 126.60144000000187,
                    "velocity": 0.41732283464566927,
                    "duration": 0.1130370000000056
                },
                {
                    "name": "B5",
                    "midi": 83,
                    "time": 126.82751400000188,
                    "velocity": 0.30708661417322836,
                    "duration": 0.0565184999999957
                },
                {
                    "name": "D5",
                    "midi": 74,
                    "time": 126.82751400000188,
                    "velocity": 0.30708661417322836,
                    "duration": 0.0565184999999957
                },
                {
                    "name": "D6",
                    "midi": 86,
                    "time": 126.82751400000188,
                    "velocity": 0.36220472440944884,
                    "duration": 0.0565184999999957
                },
                {
                    "name": "B5",
                    "midi": 83,
                    "time": 127.05358800000188,
                    "velocity": 0.28346456692913385,
                    "duration": 0.0565184999999957
                },
                {
                    "name": "D6",
                    "midi": 86,
                    "time": 127.05358800000188,
                    "velocity": 0.33858267716535434,
                    "duration": 0.0565184999999957
                },
                {
                    "name": "D5",
                    "midi": 74,
                    "time": 127.05358800000188,
                    "velocity": 0.28346456692913385,
                    "duration": 0.0565184999999957
                },
                {
                    "name": "C#6",
                    "midi": 85,
                    "time": 127.27966200000188,
                    "velocity": 0.33858267716535434,
                    "duration": 0.0565184999999957
                },
                {
                    "name": "C#5",
                    "midi": 73,
                    "time": 127.27966200000188,
                    "velocity": 0.28346456692913385,
                    "duration": 0.0565184999999957
                },
                {
                    "name": "A5",
                    "midi": 81,
                    "time": 127.27966200000188,
                    "velocity": 0.28346456692913385,
                    "duration": 0.0565184999999957
                },
                {
                    "name": "D5",
                    "midi": 74,
                    "time": 127.50573600000187,
                    "velocity": 0.33070866141732286,
                    "duration": 0.1130370000000056
                },
                {
                    "name": "B5",
                    "midi": 83,
                    "time": 127.61877300000188,
                    "velocity": 0.2755905511811024,
                    "duration": 0.1130370000000056
                },
                {
                    "name": "D5",
                    "midi": 74,
                    "time": 127.73181000000189,
                    "velocity": 0.33070866141732286,
                    "duration": 0.1130370000000056
                },
                {
                    "name": "B5",
                    "midi": 83,
                    "time": 127.84484700000189,
                    "velocity": 0.2755905511811024,
                    "duration": 0.1130370000000056
                },
                {
                    "name": "D6",
                    "midi": 86,
                    "time": 127.9578840000019,
                    "velocity": 0.41732283464566927,
                    "duration": 0.1130370000000056
                },
                {
                    "name": "D5",
                    "midi": 74,
                    "time": 128.1839580000019,
                    "velocity": 0.33070866141732286,
                    "duration": 0.1130369999999914
                },
                {
                    "name": "B5",
                    "midi": 83,
                    "time": 128.29699500000189,
                    "velocity": 0.2755905511811024,
                    "duration": 0.1130369999999914
                },
                {
                    "name": "D5",
                    "midi": 74,
                    "time": 128.41003200000188,
                    "velocity": 0.33070866141732286,
                    "duration": 0.1130369999999914
                },
                {
                    "name": "B5",
                    "midi": 83,
                    "time": 128.52306900000187,
                    "velocity": 0.2755905511811024,
                    "duration": 0.1130369999999914
                },
                {
                    "name": "D6",
                    "midi": 86,
                    "time": 128.63610600000186,
                    "velocity": 0.41732283464566927,
                    "duration": 0.1130369999999914
                },
                {
                    "name": "D5",
                    "midi": 74,
                    "time": 128.86218000000184,
                    "velocity": 0.33070866141732286,
                    "duration": 0.1130369999999914
                },
                {
                    "name": "B5",
                    "midi": 83,
                    "time": 128.97521700000183,
                    "velocity": 0.2755905511811024,
                    "duration": 0.1130369999999914
                },
                {
                    "name": "D5",
                    "midi": 74,
                    "time": 129.08825400000183,
                    "velocity": 0.33070866141732286,
                    "duration": 0.1130369999999914
                },
                {
                    "name": "B5",
                    "midi": 83,
                    "time": 129.20129100000182,
                    "velocity": 0.2755905511811024,
                    "duration": 0.1130369999999914
                },
                {
                    "name": "D6",
                    "midi": 86,
                    "time": 129.3143280000018,
                    "velocity": 0.41732283464566927,
                    "duration": 0.1130369999999914
                },
                {
                    "name": "A5",
                    "midi": 81,
                    "time": 129.5404020000018,
                    "velocity": 0.30708661417322836,
                    "duration": 0.05651850000000991
                },
                {
                    "name": "C#6",
                    "midi": 85,
                    "time": 129.5404020000018,
                    "velocity": 0.36220472440944884,
                    "duration": 0.05651850000000991
                },
                {
                    "name": "C#5",
                    "midi": 73,
                    "time": 129.5404020000018,
                    "velocity": 0.30708661417322836,
                    "duration": 0.05651850000000991
                },
                {
                    "name": "C#5",
                    "midi": 73,
                    "time": 129.7664760000018,
                    "velocity": 0.28346456692913385,
                    "duration": 0.05651850000000991
                },
                {
                    "name": "C#6",
                    "midi": 85,
                    "time": 129.7664760000018,
                    "velocity": 0.33858267716535434,
                    "duration": 0.05651850000000991
                },
                {
                    "name": "A5",
                    "midi": 81,
                    "time": 129.7664760000018,
                    "velocity": 0.28346456692913385,
                    "duration": 0.05651850000000991
                },
                {
                    "name": "G#5",
                    "midi": 80,
                    "time": 129.9925500000018,
                    "velocity": 0.28346456692913385,
                    "duration": 0.05651850000000991
                },
                {
                    "name": "B5",
                    "midi": 83,
                    "time": 129.9925500000018,
                    "velocity": 0.33858267716535434,
                    "duration": 0.05651850000000991
                },
                {
                    "name": "B4",
                    "midi": 71,
                    "time": 129.9925500000018,
                    "velocity": 0.28346456692913385,
                    "duration": 0.05651850000000991
                },
                {
                    "name": "E5",
                    "midi": 76,
                    "time": 130.21862400000182,
                    "velocity": 0.33070866141732286,
                    "duration": 0.1130369999999914
                },
                {
                    "name": "C#6",
                    "midi": 85,
                    "time": 130.33166100000182,
                    "velocity": 0.2755905511811024,
                    "duration": 0.1130369999999914
                },
                {
                    "name": "E5",
                    "midi": 76,
                    "time": 130.4446980000018,
                    "velocity": 0.33070866141732286,
                    "duration": 0.1130369999999914
                },
                {
                    "name": "C#6",
                    "midi": 85,
                    "time": 130.5577350000018,
                    "velocity": 0.2755905511811024,
                    "duration": 0.1130369999999914
                },
                {
                    "name": "E6",
                    "midi": 88,
                    "time": 130.6707720000018,
                    "velocity": 0.41732283464566927,
                    "duration": 0.1130369999999914
                },
                {
                    "name": "E5",
                    "midi": 76,
                    "time": 130.89684600000177,
                    "velocity": 0.33070866141732286,
                    "duration": 0.1130369999999914
                },
                {
                    "name": "C#6",
                    "midi": 85,
                    "time": 131.00988300000176,
                    "velocity": 0.2755905511811024,
                    "duration": 0.1130369999999914
                },
                {
                    "name": "E5",
                    "midi": 76,
                    "time": 131.12292000000176,
                    "velocity": 0.33070866141732286,
                    "duration": 0.1130369999999914
                },
                {
                    "name": "C#6",
                    "midi": 85,
                    "time": 131.23595700000175,
                    "velocity": 0.2755905511811024,
                    "duration": 0.1130369999999914
                },
                {
                    "name": "E6",
                    "midi": 88,
                    "time": 131.34899400000174,
                    "velocity": 0.41732283464566927,
                    "duration": 0.1130369999999914
                },
                {
                    "name": "E5",
                    "midi": 76,
                    "time": 131.57506800000172,
                    "velocity": 0.33070866141732286,
                    "duration": 0.1130369999999914
                },
                {
                    "name": "C#6",
                    "midi": 85,
                    "time": 131.6881050000017,
                    "velocity": 0.2755905511811024,
                    "duration": 0.1130369999999914
                },
                {
                    "name": "E5",
                    "midi": 76,
                    "time": 131.8011420000017,
                    "velocity": 0.33070866141732286,
                    "duration": 0.1130369999999914
                },
                {
                    "name": "C#6",
                    "midi": 85,
                    "time": 131.9141790000017,
                    "velocity": 0.2755905511811024,
                    "duration": 0.1130369999999914
                },
                {
                    "name": "E6",
                    "midi": 88,
                    "time": 132.0272160000017,
                    "velocity": 0.41732283464566927,
                    "duration": 0.1130369999999914
                },
                {
                    "name": "G#6",
                    "midi": 92,
                    "time": 132.25329000000167,
                    "velocity": 0.47244094488188976,
                    "duration": 0.05651850000000991
                },
                {
                    "name": "G#5",
                    "midi": 80,
                    "time": 132.25329000000167,
                    "velocity": 0.3937007874015748,
                    "duration": 0.05651850000000991
                },
                {
                    "name": "E6",
                    "midi": 88,
                    "time": 132.25329000000167,
                    "velocity": 0.3937007874015748,
                    "duration": 0.05651850000000991
                },
                {
                    "name": "G#5",
                    "midi": 80,
                    "time": 132.47936400000168,
                    "velocity": 0.36220472440944884,
                    "duration": 0.05651850000000991
                },
                {
                    "name": "G#6",
                    "midi": 92,
                    "time": 132.47936400000168,
                    "velocity": 0.4409448818897638,
                    "duration": 0.05651850000000991
                },
                {
                    "name": "E6",
                    "midi": 88,
                    "time": 132.47936400000168,
                    "velocity": 0.36220472440944884,
                    "duration": 0.05651850000000991
                },
                {
                    "name": "A5",
                    "midi": 81,
                    "time": 132.7054380000017,
                    "velocity": 0.36220472440944884,
                    "duration": 0.05651850000000991
                },
                {
                    "name": "E6",
                    "midi": 88,
                    "time": 132.7054380000017,
                    "velocity": 0.36220472440944884,
                    "duration": 0.05651850000000991
                },
                {
                    "name": "A6",
                    "midi": 93,
                    "time": 132.7054380000017,
                    "velocity": 0.4409448818897638,
                    "duration": 0.05651850000000991
                },
                {
                    "name": "D5",
                    "midi": 74,
                    "time": 132.9315120000017,
                    "velocity": 0.33070866141732286,
                    "duration": 0.1130369999999914
                },
                {
                    "name": "B5",
                    "midi": 83,
                    "time": 133.0445490000017,
                    "velocity": 0.2755905511811024,
                    "duration": 0.1130369999999914
                },
                {
                    "name": "D5",
                    "midi": 74,
                    "time": 133.1575860000017,
                    "velocity": 0.33070866141732286,
                    "duration": 0.1130369999999914
                },
                {
                    "name": "B5",
                    "midi": 83,
                    "time": 133.27062300000168,
                    "velocity": 0.2755905511811024,
                    "duration": 0.1130369999999914
                },
                {
                    "name": "D6",
                    "midi": 86,
                    "time": 133.38366000000167,
                    "velocity": 0.41732283464566927,
                    "duration": 0.1130369999999914
                },
                {
                    "name": "D5",
                    "midi": 74,
                    "time": 133.60973400000165,
                    "velocity": 0.33070866141732286,
                    "duration": 0.1130369999999914
                },
                {
                    "name": "B5",
                    "midi": 83,
                    "time": 133.72277100000164,
                    "velocity": 0.2755905511811024,
                    "duration": 0.1130369999999914
                },
                {
                    "name": "D5",
                    "midi": 74,
                    "time": 133.83580800000163,
                    "velocity": 0.33070866141732286,
                    "duration": 0.1130369999999914
                },
                {
                    "name": "B5",
                    "midi": 83,
                    "time": 133.94884500000163,
                    "velocity": 0.2755905511811024,
                    "duration": 0.1130369999999914
                },
                {
                    "name": "D6",
                    "midi": 86,
                    "time": 134.06188200000162,
                    "velocity": 0.41732283464566927,
                    "duration": 0.1130369999999914
                },
                {
                    "name": "D5",
                    "midi": 74,
                    "time": 134.2879560000016,
                    "velocity": 0.33070866141732286,
                    "duration": 0.1130369999999914
                },
                {
                    "name": "B5",
                    "midi": 83,
                    "time": 134.4009930000016,
                    "velocity": 0.2755905511811024,
                    "duration": 0.1130369999999914
                },
                {
                    "name": "D5",
                    "midi": 74,
                    "time": 134.51403000000158,
                    "velocity": 0.33070866141732286,
                    "duration": 0.1130369999999914
                },
                {
                    "name": "B5",
                    "midi": 83,
                    "time": 134.62706700000157,
                    "velocity": 0.2755905511811024,
                    "duration": 0.1130369999999914
                },
                {
                    "name": "D6",
                    "midi": 86,
                    "time": 134.74010400000157,
                    "velocity": 0.41732283464566927,
                    "duration": 0.1130369999999914
                },
                {
                    "name": "A5",
                    "midi": 81,
                    "time": 134.96617800000155,
                    "velocity": 0.3937007874015748,
                    "duration": 0.05651850000000991
                },
                {
                    "name": "C#6",
                    "midi": 85,
                    "time": 134.96617800000155,
                    "velocity": 0.3937007874015748,
                    "duration": 0.05651850000000991
                },
                {
                    "name": "A6",
                    "midi": 93,
                    "time": 134.96617800000155,
                    "velocity": 0.47244094488188976,
                    "duration": 0.05651850000000991
                },
                {
                    "name": "A5",
                    "midi": 81,
                    "time": 135.19225200000156,
                    "velocity": 0.36220472440944884,
                    "duration": 0.05651850000000991
                },
                {
                    "name": "A6",
                    "midi": 93,
                    "time": 135.19225200000156,
                    "velocity": 0.4409448818897638,
                    "duration": 0.05651850000000991
                },
                {
                    "name": "C#6",
                    "midi": 85,
                    "time": 135.19225200000156,
                    "velocity": 0.36220472440944884,
                    "duration": 0.05651850000000991
                },
                {
                    "name": "B5",
                    "midi": 83,
                    "time": 135.41832600000157,
                    "velocity": 0.36220472440944884,
                    "duration": 0.05651850000000991
                },
                {
                    "name": "D6",
                    "midi": 86,
                    "time": 135.41832600000157,
                    "velocity": 0.36220472440944884,
                    "duration": 0.05651850000000991
                },
                {
                    "name": "B6",
                    "midi": 95,
                    "time": 135.41832600000157,
                    "velocity": 0.4409448818897638,
                    "duration": 0.05651850000000991
                },
                {
                    "name": "C#5",
                    "midi": 73,
                    "time": 135.64440000000158,
                    "velocity": 0.36220472440944884,
                    "duration": 0.1130369999999914
                },
                {
                    "name": "A5",
                    "midi": 81,
                    "time": 135.75743700000157,
                    "velocity": 0.2992125984251969,
                    "duration": 0.1130369999999914
                },
                {
                    "name": "C#5",
                    "midi": 73,
                    "time": 135.87047400000156,
                    "velocity": 0.3700787401574803,
                    "duration": 0.1130369999999914
                },
                {
                    "name": "A5",
                    "midi": 81,
                    "time": 135.98351100000156,
                    "velocity": 0.30708661417322836,
                    "duration": 0.1130369999999914
                },
                {
                    "name": "C#6",
                    "midi": 85,
                    "time": 136.09654800000155,
                    "velocity": 0.47244094488188976,
                    "duration": 0.1130369999999914
                },
                {
                    "name": "B4",
                    "midi": 71,
                    "time": 136.32262200000153,
                    "velocity": 0.3858267716535433,
                    "duration": 0.1130369999999914
                },
                {
                    "name": "G#5",
                    "midi": 80,
                    "time": 136.43565900000152,
                    "velocity": 0.3228346456692913,
                    "duration": 0.1130369999999914
                },
                {
                    "name": "B4",
                    "midi": 71,
                    "time": 136.5486960000015,
                    "velocity": 0.3937007874015748,
                    "duration": 0.1130369999999914
                },
                {
                    "name": "G#5",
                    "midi": 80,
                    "time": 136.6617330000015,
                    "velocity": 0.33070866141732286,
                    "duration": 0.1130369999999914
                },
                {
                    "name": "B5",
                    "midi": 83,
                    "time": 136.7747700000015,
                    "velocity": 0.5039370078740157,
                    "duration": 0.1130369999999914
                },
                {
                    "name": "C#5",
                    "midi": 73,
                    "time": 137.00084400000148,
                    "velocity": 0.4094488188976378,
                    "duration": 0.1130369999999914
                },
                {
                    "name": "A5",
                    "midi": 81,
                    "time": 137.11388100000147,
                    "velocity": 0.3464566929133858,
                    "duration": 0.1130369999999914
                },
                {
                    "name": "C#5",
                    "midi": 73,
                    "time": 137.22691800000146,
                    "velocity": 0.41732283464566927,
                    "duration": 0.1130369999999914
                },
                {
                    "name": "A5",
                    "midi": 81,
                    "time": 137.33995500000145,
                    "velocity": 0.3464566929133858,
                    "duration": 0.1130369999999914
                },
                {
                    "name": "C#6",
                    "midi": 85,
                    "time": 137.45299200000144,
                    "velocity": 0.5354330708661418,
                    "duration": 0.1130369999999914
                },
                {
                    "name": "D5",
                    "midi": 74,
                    "time": 137.67906600000143,
                    "velocity": 0.4330708661417323,
                    "duration": 0.1130369999999914
                },
                {
                    "name": "B5",
                    "midi": 83,
                    "time": 137.79210300000142,
                    "velocity": 0.36220472440944884,
                    "duration": 0.1130369999999914
                },
                {
                    "name": "D5",
                    "midi": 74,
                    "time": 137.9051400000014,
                    "velocity": 0.4409448818897638,
                    "duration": 0.1130369999999914
                },
                {
                    "name": "B5",
                    "midi": 83,
                    "time": 138.0181770000014,
                    "velocity": 0.3700787401574803,
                    "duration": 0.1130369999999914
                },
                {
                    "name": "D6",
                    "midi": 86,
                    "time": 138.1312140000014,
                    "velocity": 0.5669291338582677,
                    "duration": 0.1130369999999914
                },
                {
                    "name": "C6",
                    "midi": 84,
                    "time": 138.35728800000138,
                    "velocity": 0.5826771653543307,
                    "duration": 0.1130369999999914
                },
                {
                    "name": "D#6",
                    "midi": 87,
                    "time": 138.47032500000137,
                    "velocity": 0.5196850393700787,
                    "duration": 0.1130369999999914
                },
                {
                    "name": "C6",
                    "midi": 84,
                    "time": 138.58336200000136,
                    "velocity": 0.5590551181102362,
                    "duration": 0.1130369999999914
                },
                {
                    "name": "D#6",
                    "midi": 87,
                    "time": 138.69639900000135,
                    "velocity": 0.4881889763779528,
                    "duration": 0.1130369999999914
                },
                {
                    "name": "G#6",
                    "midi": 92,
                    "time": 138.80943600000134,
                    "velocity": 0.5826771653543307,
                    "duration": 0.1130369999999914
                },
                {
                    "name": "G6",
                    "midi": 91,
                    "time": 138.92247300000133,
                    "velocity": 0.5118110236220472,
                    "duration": 0.1130369999999914
                },
                {
                    "name": "F6",
                    "midi": 89,
                    "time": 139.03551000000132,
                    "velocity": 0.5748031496062992,
                    "duration": 0.1130369999999914
                },
                {
                    "name": "D#6",
                    "midi": 87,
                    "time": 139.14854700000132,
                    "velocity": 0.47244094488188976,
                    "duration": 0.1130369999999914
                },
                {
                    "name": "C#6",
                    "midi": 85,
                    "time": 139.2615840000013,
                    "velocity": 0.5196850393700787,
                    "duration": 0.1130369999999914
                },
                {
                    "name": "C6",
                    "midi": 84,
                    "time": 139.3746210000013,
                    "velocity": 0.5039370078740157,
                    "duration": 0.1130369999999914
                },
                {
                    "name": "A#5",
                    "midi": 82,
                    "time": 139.4876580000013,
                    "velocity": 0.4881889763779528,
                    "duration": 0.1130369999999914
                },
                {
                    "name": "G#5",
                    "midi": 80,
                    "time": 139.60069500000128,
                    "velocity": 0.47244094488188976,
                    "duration": 0.1130369999999914
                },
                {
                    "name": "G5",
                    "midi": 79,
                    "time": 139.71373200000127,
                    "velocity": 0.4566929133858268,
                    "duration": 0.1130369999999914
                },
                {
                    "name": "F5",
                    "midi": 77,
                    "time": 139.82676900000126,
                    "velocity": 0.4409448818897638,
                    "duration": 0.1130369999999914
                },
                {
                    "name": "D#5",
                    "midi": 75,
                    "time": 139.93980600000125,
                    "velocity": 0.4251968503937008,
                    "duration": 0.1130369999999914
                },
                {
                    "name": "C#5",
                    "midi": 73,
                    "time": 140.05284300000125,
                    "velocity": 0.4094488188976378,
                    "duration": 0.1130369999999914
                },
                {
                    "name": "C5",
                    "midi": 72,
                    "time": 140.16588000000124,
                    "velocity": 0.3937007874015748,
                    "duration": 0.1130369999999914
                },
                {
                    "name": "A#4",
                    "midi": 70,
                    "time": 140.27891700000123,
                    "velocity": 0.3779527559055118,
                    "duration": 0.1130369999999914
                },
                {
                    "name": "G#4",
                    "midi": 68,
                    "time": 140.39195400000122,
                    "velocity": 0.3543307086614173,
                    "duration": 0.1130369999999914
                },
                {
                    "name": "G4",
                    "midi": 67,
                    "time": 140.5049910000012,
                    "velocity": 0.3464566929133858,
                    "duration": 0.1130369999999914
                },
                {
                    "name": "F4",
                    "midi": 65,
                    "time": 140.6180280000012,
                    "velocity": 0.3228346456692913,
                    "duration": 0.1130369999999914
                },
                {
                    "name": "E4",
                    "midi": 64,
                    "time": 140.7310650000012,
                    "velocity": 0.30708661417322836,
                    "duration": 0.1130369999999914
                },
                {
                    "name": "D#4",
                    "midi": 63,
                    "time": 140.8441020000012,
                    "velocity": 0.29133858267716534,
                    "duration": 0.2260740000000112
                },
                {
                    "name": "D#6",
                    "midi": 87,
                    "time": 141.0701760000012,
                    "velocity": 0.5826771653543307,
                    "duration": 0.1130369999999914
                },
                {
                    "name": "G#6",
                    "midi": 92,
                    "time": 141.1832130000012,
                    "velocity": 0.5196850393700787,
                    "duration": 0.1130369999999914
                },
                {
                    "name": "D#6",
                    "midi": 87,
                    "time": 141.29625000000118,
                    "velocity": 0.5590551181102362,
                    "duration": 0.1130369999999914
                },
                {
                    "name": "G#6",
                    "midi": 92,
                    "time": 141.40928700000117,
                    "velocity": 0.4881889763779528,
                    "duration": 0.1130369999999914
                },
                {
                    "name": "C7",
                    "midi": 96,
                    "time": 141.52232400000116,
                    "velocity": 0.5826771653543307,
                    "duration": 0.1130369999999914
                },
                {
                    "name": "A#6",
                    "midi": 94,
                    "time": 141.63536100000115,
                    "velocity": 0.5118110236220472,
                    "duration": 0.1130369999999914
                },
                {
                    "name": "G#6",
                    "midi": 92,
                    "time": 141.74839800000115,
                    "velocity": 0.5748031496062992,
                    "duration": 0.1130369999999914
                },
                {
                    "name": "G6",
                    "midi": 91,
                    "time": 141.86143500000114,
                    "velocity": 0.47244094488188976,
                    "duration": 0.1130369999999914
                },
                {
                    "name": "F6",
                    "midi": 89,
                    "time": 141.97447200000113,
                    "velocity": 0.5196850393700787,
                    "duration": 0.1130369999999914
                },
                {
                    "name": "D#6",
                    "midi": 87,
                    "time": 142.08750900000112,
                    "velocity": 0.5039370078740157,
                    "duration": 0.1130369999999914
                },
                {
                    "name": "C#6",
                    "midi": 85,
                    "time": 142.2005460000011,
                    "velocity": 0.4881889763779528,
                    "duration": 0.1130369999999914
                },
                {
                    "name": "C6",
                    "midi": 84,
                    "time": 142.3135830000011,
                    "velocity": 0.47244094488188976,
                    "duration": 0.1130369999999914
                },
                {
                    "name": "A#5",
                    "midi": 82,
                    "time": 142.4266200000011,
                    "velocity": 0.4566929133858268,
                    "duration": 0.1130369999999914
                },
                {
                    "name": "G#5",
                    "midi": 80,
                    "time": 142.53965700000109,
                    "velocity": 0.4409448818897638,
                    "duration": 0.1130369999999914
                },
                {
                    "name": "G5",
                    "midi": 79,
                    "time": 142.65269400000108,
                    "velocity": 0.4251968503937008,
                    "duration": 0.1130369999999914
                },
                {
                    "name": "F5",
                    "midi": 77,
                    "time": 142.76573100000107,
                    "velocity": 0.4094488188976378,
                    "duration": 0.1130369999999914
                },
                {
                    "name": "D#5",
                    "midi": 75,
                    "time": 142.87876800000106,
                    "velocity": 0.3937007874015748,
                    "duration": 0.1130369999999914
                },
                {
                    "name": "C#5",
                    "midi": 73,
                    "time": 142.99180500000105,
                    "velocity": 0.3779527559055118,
                    "duration": 0.1130369999999914
                },
                {
                    "name": "C5",
                    "midi": 72,
                    "time": 143.10484200000104,
                    "velocity": 0.3543307086614173,
                    "duration": 0.1130369999999914
                },
                {
                    "name": "A#4",
                    "midi": 70,
                    "time": 143.21787900000103,
                    "velocity": 0.3464566929133858,
                    "duration": 0.1130369999999914
                },
                {
                    "name": "G#4",
                    "midi": 68,
                    "time": 143.33091600000103,
                    "velocity": 0.3228346456692913,
                    "duration": 0.1130369999999914
                },
                {
                    "name": "G4",
                    "midi": 67,
                    "time": 143.44395300000102,
                    "velocity": 0.30708661417322836,
                    "duration": 0.1130369999999914
                },
                {
                    "name": "F4",
                    "midi": 65,
                    "time": 143.556990000001,
                    "velocity": 0.29133858267716534,
                    "duration": 0.1130369999999914
                },
                {
                    "name": "D#4",
                    "midi": 63,
                    "time": 143.670027000001,
                    "velocity": 0.29133858267716534,
                    "duration": 0.1130369999999914
                },
                {
                    "name": "G#6",
                    "midi": 92,
                    "time": 143.783064000001,
                    "velocity": 0.5984251968503937,
                    "duration": 0.1130369999999914
                },
                {
                    "name": "C7",
                    "midi": 96,
                    "time": 143.89610100000098,
                    "velocity": 0.5196850393700787,
                    "duration": 0.1130369999999914
                },
                {
                    "name": "G#6",
                    "midi": 92,
                    "time": 144.00913800000097,
                    "velocity": 0.5590551181102362,
                    "duration": 0.1130369999999914
                },
                {
                    "name": "C7",
                    "midi": 96,
                    "time": 144.12217500000096,
                    "velocity": 0.4881889763779528,
                    "duration": 0.1130369999999914
                },
                {
                    "name": "D#7",
                    "midi": 99,
                    "time": 144.23521200000096,
                    "velocity": 0.6062992125984252,
                    "duration": 0.1130369999999914
                },
                {
                    "name": "C#7",
                    "midi": 97,
                    "time": 144.34824900000095,
                    "velocity": 0.5433070866141733,
                    "duration": 0.1130369999999914
                },
                {
                    "name": "C7",
                    "midi": 96,
                    "time": 144.46128600000094,
                    "velocity": 0.6220472440944882,
                    "duration": 0.1130369999999914
                },
                {
                    "name": "A#6",
                    "midi": 94,
                    "time": 144.57432300000093,
                    "velocity": 0.5590551181102362,
                    "duration": 0.1130369999999914
                },
                {
                    "name": "G#6",
                    "midi": 92,
                    "time": 144.68736000000092,
                    "velocity": 0.5826771653543307,
                    "duration": 0.1130369999999914
                },
                {
                    "name": "G6",
                    "midi": 91,
                    "time": 144.8003970000009,
                    "velocity": 0.5669291338582677,
                    "duration": 0.1130369999999914
                },
                {
                    "name": "F6",
                    "midi": 89,
                    "time": 144.9134340000009,
                    "velocity": 0.5511811023622047,
                    "duration": 0.1130369999999914
                },
                {
                    "name": "D#6",
                    "midi": 87,
                    "time": 145.0264710000009,
                    "velocity": 0.5354330708661418,
                    "duration": 0.1130369999999914
                },
                {
                    "name": "C#6",
                    "midi": 85,
                    "time": 145.1395080000009,
                    "velocity": 0.5118110236220472,
                    "duration": 0.1130369999999914
                },
                {
                    "name": "C6",
                    "midi": 84,
                    "time": 145.25254500000088,
                    "velocity": 0.49606299212598426,
                    "duration": 0.1130369999999914
                },
                {
                    "name": "A#5",
                    "midi": 82,
                    "time": 145.36558200000087,
                    "velocity": 0.48031496062992124,
                    "duration": 0.1130369999999914
                },
                {
                    "name": "G#5",
                    "midi": 80,
                    "time": 145.47861900000086,
                    "velocity": 0.4645669291338583,
                    "duration": 0.1130369999999914
                },
                {
                    "name": "G5",
                    "midi": 79,
                    "time": 145.59165600000085,
                    "velocity": 0.44881889763779526,
                    "duration": 0.1130369999999914
                },
                {
                    "name": "F5",
                    "midi": 77,
                    "time": 145.70469300000084,
                    "velocity": 0.4251968503937008,
                    "duration": 0.1130369999999914
                },
                {
                    "name": "D#5",
                    "midi": 75,
                    "time": 145.81773000000084,
                    "velocity": 0.4094488188976378,
                    "duration": 0.07535799999999426
                },
                {
                    "name": "C#5",
                    "midi": 73,
                    "time": 145.89308800000083,
                    "velocity": 0.4094488188976378,
                    "duration": 0.07535799999999426
                },
                {
                    "name": "C5",
                    "midi": 72,
                    "time": 145.96844600000082,
                    "velocity": 0.41732283464566927,
                    "duration": 0.07535799999999426
                },
                {
                    "name": "A#4",
                    "midi": 70,
                    "time": 146.04380400000082,
                    "velocity": 0.41732283464566927,
                    "duration": 0.05651850000000991
                },
                {
                    "name": "G#4",
                    "midi": 68,
                    "time": 146.10032250000083,
                    "velocity": 0.4251968503937008,
                    "duration": 0.05651850000000991
                },
                {
                    "name": "G4",
                    "midi": 67,
                    "time": 146.15684100000084,
                    "velocity": 0.4330708661417323,
                    "duration": 0.05651850000000991
                },
                {
                    "name": "F4",
                    "midi": 65,
                    "time": 146.21335950000085,
                    "velocity": 0.4409448818897638,
                    "duration": 0.05651850000000991
                },
                {
                    "name": "D#4",
                    "midi": 63,
                    "time": 146.26987800000086,
                    "velocity": 0.44881889763779526,
                    "duration": 0.05651850000000991
                },
                {
                    "name": "C#4",
                    "midi": 61,
                    "time": 146.32639650000087,
                    "velocity": 0.4566929133858268,
                    "duration": 0.05651850000000991
                },
                {
                    "name": "C4",
                    "midi": 60,
                    "time": 146.38291500000088,
                    "velocity": 0.47244094488188976,
                    "duration": 0.05651850000000991
                },
                {
                    "name": "A#3",
                    "midi": 58,
                    "time": 146.4394335000009,
                    "velocity": 0.48031496062992124,
                    "duration": 0.05651850000000991
                },
                {
                    "name": "G#3",
                    "midi": 56,
                    "time": 146.4959520000009,
                    "velocity": 0.5511811023622047,
                    "duration": 0.2260740000000112
                },
                {
                    "name": "G#3",
                    "midi": 56,
                    "time": 146.7220260000009,
                    "velocity": 0.5511811023622047,
                    "duration": 0.12434070000000474
                },
                {
                    "name": "C4",
                    "midi": 60,
                    "time": 146.8350630000009,
                    "velocity": 0.4881889763779528,
                    "duration": 0.12434070000003317
                },
                {
                    "name": "D#4",
                    "midi": 63,
                    "time": 146.94810000000092,
                    "velocity": 0.5511811023622047,
                    "duration": 0.12434070000003317
                },
                {
                    "name": "C#4",
                    "midi": 61,
                    "time": 147.06113700000094,
                    "velocity": 0.5354330708661418,
                    "duration": 0.12434070000003317
                },
                {
                    "name": "C4",
                    "midi": 60,
                    "time": 147.17417400000096,
                    "velocity": 0.5354330708661418,
                    "duration": 0.12434070000003317
                },
                {
                    "name": "A#3",
                    "midi": 58,
                    "time": 147.28721100000098,
                    "velocity": 0.5275590551181102,
                    "duration": 0.12434070000003317
                },
                {
                    "name": "G#3",
                    "midi": 56,
                    "time": 147.400248000001,
                    "velocity": 0.5196850393700787,
                    "duration": 0.12434070000003317
                },
                {
                    "name": "G3",
                    "midi": 55,
                    "time": 147.51328500000102,
                    "velocity": 0.5118110236220472,
                    "duration": 0.12434070000003317
                },
                {
                    "name": "F3",
                    "midi": 53,
                    "time": 147.62632200000104,
                    "velocity": 0.5039370078740157,
                    "duration": 0.12434070000003317
                },
                {
                    "name": "D#3",
                    "midi": 51,
                    "time": 147.73935900000106,
                    "velocity": 0.49606299212598426,
                    "duration": 0.12434070000003317
                },
                {
                    "name": "C#3",
                    "midi": 49,
                    "time": 147.85239600000108,
                    "velocity": 0.4881889763779528,
                    "duration": 0.12434070000003317
                },
                {
                    "name": "C3",
                    "midi": 48,
                    "time": 147.9654330000011,
                    "velocity": 0.48031496062992124,
                    "duration": 0.12434070000003317
                },
                {
                    "name": "A#2",
                    "midi": 46,
                    "time": 148.07847000000112,
                    "velocity": 0.47244094488188976,
                    "duration": 0.12434070000003317
                },
                {
                    "name": "G#2",
                    "midi": 44,
                    "time": 148.19150700000114,
                    "velocity": 0.4645669291338583,
                    "duration": 0.12434070000003317
                },
                {
                    "name": "G2",
                    "midi": 43,
                    "time": 148.30454400000116,
                    "velocity": 0.4566929133858268,
                    "duration": 0.12434070000003317
                },
                {
                    "name": "G#2",
                    "midi": 44,
                    "time": 148.41758100000118,
                    "velocity": 0.44881889763779526,
                    "duration": 0.12434070000003317
                },
                {
                    "name": "A#2",
                    "midi": 46,
                    "time": 148.5306180000012,
                    "velocity": 0.4409448818897638,
                    "duration": 0.12434070000003317
                },
                {
                    "name": "C3",
                    "midi": 48,
                    "time": 148.64365500000122,
                    "velocity": 0.4566929133858268,
                    "duration": 0.12434070000003317
                },
                {
                    "name": "C#3",
                    "midi": 49,
                    "time": 148.75669200000124,
                    "velocity": 0.4645669291338583,
                    "duration": 0.12434070000003317
                },
                {
                    "name": "D#3",
                    "midi": 51,
                    "time": 148.86972900000126,
                    "velocity": 0.47244094488188976,
                    "duration": 0.12434070000003317
                },
                {
                    "name": "F3",
                    "midi": 53,
                    "time": 148.98276600000128,
                    "velocity": 0.48031496062992124,
                    "duration": 0.12434070000003317
                },
                {
                    "name": "G3",
                    "midi": 55,
                    "time": 149.0958030000013,
                    "velocity": 0.4881889763779528,
                    "duration": 0.12434070000003317
                },
                {
                    "name": "G#3",
                    "midi": 56,
                    "time": 149.20884000000132,
                    "velocity": 0.49606299212598426,
                    "duration": 0.12434070000003317
                },
                {
                    "name": "A#3",
                    "midi": 58,
                    "time": 149.32187700000134,
                    "velocity": 0.5039370078740157,
                    "duration": 0.12434070000003317
                },
                {
                    "name": "C4",
                    "midi": 60,
                    "time": 149.43491400000136,
                    "velocity": 0.5118110236220472,
                    "duration": 0.12434070000003317
                },
                {
                    "name": "C#4",
                    "midi": 61,
                    "time": 149.54795100000138,
                    "velocity": 0.5196850393700787,
                    "duration": 0.12434070000003317
                },
                {
                    "name": "D#4",
                    "midi": 63,
                    "time": 149.6609880000014,
                    "velocity": 0.5275590551181102,
                    "duration": 0.12434070000003317
                },
                {
                    "name": "F4",
                    "midi": 65,
                    "time": 149.77402500000142,
                    "velocity": 0.5354330708661418,
                    "duration": 0.12434070000003317
                },
                {
                    "name": "G4",
                    "midi": 67,
                    "time": 149.88706200000144,
                    "velocity": 0.5511811023622047,
                    "duration": 0.12434070000003317
                },
                {
                    "name": "G#4",
                    "midi": 68,
                    "time": 150.00009900000146,
                    "velocity": 0.5590551181102362,
                    "duration": 0.12434070000003317
                },
                {
                    "name": "A#4",
                    "midi": 70,
                    "time": 150.11313600000148,
                    "velocity": 0.5748031496062992,
                    "duration": 0.12434070000003317
                },
                {
                    "name": "C5",
                    "midi": 72,
                    "time": 150.2261730000015,
                    "velocity": 0.5826771653543307,
                    "duration": 0.12434070000003317
                },
                {
                    "name": "C#5",
                    "midi": 73,
                    "time": 150.33921000000151,
                    "velocity": 0.5984251968503937,
                    "duration": 0.12434070000003317
                },
                {
                    "name": "D#5",
                    "midi": 75,
                    "time": 150.45224700000153,
                    "velocity": 0.6141732283464567,
                    "duration": 0.12434070000003317
                },
                {
                    "name": "F5",
                    "midi": 77,
                    "time": 150.56528400000155,
                    "velocity": 0.6220472440944882,
                    "duration": 0.12434070000003317
                },
                {
                    "name": "D#5",
                    "midi": 75,
                    "time": 150.67832100000157,
                    "velocity": 0.6220472440944882,
                    "duration": 0.12434070000003317
                },
                {
                    "name": "C#5",
                    "midi": 73,
                    "time": 150.7913580000016,
                    "velocity": 0.6062992125984252,
                    "duration": 0.12434070000003317
                },
                {
                    "name": "C5",
                    "midi": 72,
                    "time": 150.9043950000016,
                    "velocity": 0.5905511811023622,
                    "duration": 0.12434070000003317
                },
                {
                    "name": "A#4",
                    "midi": 70,
                    "time": 151.01743200000163,
                    "velocity": 0.5748031496062992,
                    "duration": 0.12434070000003317
                },
                {
                    "name": "G#4",
                    "midi": 68,
                    "time": 151.13046900000165,
                    "velocity": 0.5590551181102362,
                    "duration": 0.12434070000003317
                },
                {
                    "name": "G4",
                    "midi": 67,
                    "time": 151.24350600000167,
                    "velocity": 0.5433070866141733,
                    "duration": 0.12434070000003317
                },
                {
                    "name": "F4",
                    "midi": 65,
                    "time": 151.3565430000017,
                    "velocity": 0.5275590551181102,
                    "duration": 0.12434070000003317
                },
                {
                    "name": "D#4",
                    "midi": 63,
                    "time": 151.4695800000017,
                    "velocity": 0.5118110236220472,
                    "duration": 0.12434070000003317
                },
                {
                    "name": "C#4",
                    "midi": 61,
                    "time": 151.58261700000173,
                    "velocity": 0.49606299212598426,
                    "duration": 0.12434070000003317
                },
                {
                    "name": "C4",
                    "midi": 60,
                    "time": 151.69565400000175,
                    "velocity": 0.48031496062992124,
                    "duration": 0.12434070000003317
                },
                {
                    "name": "A#3",
                    "midi": 58,
                    "time": 151.80869100000177,
                    "velocity": 0.4645669291338583,
                    "duration": 0.12434070000003317
                },
                {
                    "name": "G#3",
                    "midi": 56,
                    "time": 151.9217280000018,
                    "velocity": 0.4881889763779528,
                    "duration": 0.2260740000000112
                },
                {
                    "name": "G#4",
                    "midi": 68,
                    "time": 152.1478020000018,
                    "velocity": 0.3858267716535433,
                    "duration": 0.12434070000000474
                },
                {
                    "name": "C5",
                    "midi": 72,
                    "time": 152.2608390000018,
                    "velocity": 0.33858267716535434,
                    "duration": 0.12434070000003317
                },
                {
                    "name": "D#5",
                    "midi": 75,
                    "time": 152.37387600000181,
                    "velocity": 0.3858267716535433,
                    "duration": 0.12434070000003317
                },
                {
                    "name": "C#5",
                    "midi": 73,
                    "time": 152.48691300000183,
                    "velocity": 0.3700787401574803,
                    "duration": 0.12434070000003317
                },
                {
                    "name": "C5",
                    "midi": 72,
                    "time": 152.59995000000185,
                    "velocity": 0.3700787401574803,
                    "duration": 0.12434070000003317
                },
                {
                    "name": "A#4",
                    "midi": 70,
                    "time": 152.71298700000187,
                    "velocity": 0.36220472440944884,
                    "duration": 0.12434070000003317
                },
                {
                    "name": "G#4",
                    "midi": 68,
                    "time": 152.8260240000019,
                    "velocity": 0.36220472440944884,
                    "duration": 0.12434070000003317
                },
                {
                    "name": "G4",
                    "midi": 67,
                    "time": 152.9390610000019,
                    "velocity": 0.3543307086614173,
                    "duration": 0.12434070000003317
                },
                {
                    "name": "F4",
                    "midi": 65,
                    "time": 153.05209800000193,
                    "velocity": 0.3464566929133858,
                    "duration": 0.12434070000003317
                },
                {
                    "name": "D#4",
                    "midi": 63,
                    "time": 153.16513500000195,
                    "velocity": 0.3464566929133858,
                    "duration": 0.12434070000003317
                },
                {
                    "name": "C#4",
                    "midi": 61,
                    "time": 153.27817200000197,
                    "velocity": 0.33858267716535434,
                    "duration": 0.12434070000003317
                },
                {
                    "name": "C4",
                    "midi": 60,
                    "time": 153.391209000002,
                    "velocity": 0.33070866141732286,
                    "duration": 0.12434070000003317
                },
                {
                    "name": "A#3",
                    "midi": 58,
                    "time": 153.504246000002,
                    "velocity": 0.33070866141732286,
                    "duration": 0.12434070000003317
                },
                {
                    "name": "G#3",
                    "midi": 56,
                    "time": 153.61728300000203,
                    "velocity": 0.3228346456692913,
                    "duration": 0.12434070000003317
                },
                {
                    "name": "G3",
                    "midi": 55,
                    "time": 153.73032000000205,
                    "velocity": 0.31496062992125984,
                    "duration": 0.12434070000003317
                },
                {
                    "name": "G#3",
                    "midi": 56,
                    "time": 153.84335700000207,
                    "velocity": 0.30708661417322836,
                    "duration": 0.12434070000003317
                },
                {
                    "name": "A#3",
                    "midi": 58,
                    "time": 153.9563940000021,
                    "velocity": 0.30708661417322836,
                    "duration": 0.12434070000003317
                },
                {
                    "name": "C4",
                    "midi": 60,
                    "time": 154.0694310000021,
                    "velocity": 0.31496062992125984,
                    "duration": 0.12434070000003317
                },
                {
                    "name": "C#4",
                    "midi": 61,
                    "time": 154.18246800000213,
                    "velocity": 0.3228346456692913,
                    "duration": 0.12434070000003317
                },
                {
                    "name": "D#4",
                    "midi": 63,
                    "time": 154.29550500000215,
                    "velocity": 0.33070866141732286,
                    "duration": 0.12434070000003317
                },
                {
                    "name": "F4",
                    "midi": 65,
                    "time": 154.40854200000217,
                    "velocity": 0.33070866141732286,
                    "duration": 0.12434070000003317
                },
                {
                    "name": "G4",
                    "midi": 67,
                    "time": 154.5215790000022,
                    "velocity": 0.33858267716535434,
                    "duration": 0.12434070000003317
                },
                {
                    "name": "G#4",
                    "midi": 68,
                    "time": 154.6346160000022,
                    "velocity": 0.3464566929133858,
                    "duration": 0.12434070000003317
                },
                {
                    "name": "A#4",
                    "midi": 70,
                    "time": 154.74765300000223,
                    "velocity": 0.3464566929133858,
                    "duration": 0.12434070000003317
                },
                {
                    "name": "C5",
                    "midi": 72,
                    "time": 154.86069000000225,
                    "velocity": 0.3543307086614173,
                    "duration": 0.12434070000003317
                },
                {
                    "name": "C#5",
                    "midi": 73,
                    "time": 154.97372700000227,
                    "velocity": 0.36220472440944884,
                    "duration": 0.12434070000003317
                },
                {
                    "name": "D#5",
                    "midi": 75,
                    "time": 155.0867640000023,
                    "velocity": 0.36220472440944884,
                    "duration": 0.12434070000003317
                },
                {
                    "name": "F5",
                    "midi": 77,
                    "time": 155.1998010000023,
                    "velocity": 0.3700787401574803,
                    "duration": 0.12434070000003317
                },
                {
                    "name": "G5",
                    "midi": 79,
                    "time": 155.31283800000233,
                    "velocity": 0.3858267716535433,
                    "duration": 0.12434070000003317
                },
                {
                    "name": "G#5",
                    "midi": 80,
                    "time": 155.42587500000235,
                    "velocity": 0.3858267716535433,
                    "duration": 0.12434070000003317
                },
                {
                    "name": "A#5",
                    "midi": 82,
                    "time": 155.53891200000237,
                    "velocity": 0.4015748031496063,
                    "duration": 0.12434070000003317
                },
                {
                    "name": "C6",
                    "midi": 84,
                    "time": 155.6519490000024,
                    "velocity": 0.4015748031496063,
                    "duration": 0.12434070000003317
                },
                {
                    "name": "C#6",
                    "midi": 85,
                    "time": 155.7649860000024,
                    "velocity": 0.41732283464566927,
                    "duration": 0.12434070000003317
                },
                {
                    "name": "D#6",
                    "midi": 87,
                    "time": 155.87802300000243,
                    "velocity": 0.4251968503937008,
                    "duration": 0.12434070000003317
                },
                {
                    "name": "F6",
                    "midi": 89,
                    "time": 155.99106000000245,
                    "velocity": 0.4330708661417323,
                    "duration": 0.12434070000003317
                },
                {
                    "name": "D#6",
                    "midi": 87,
                    "time": 156.10409700000247,
                    "velocity": 0.4330708661417323,
                    "duration": 0.12434070000003317
                },
                {
                    "name": "C#6",
                    "midi": 85,
                    "time": 156.2171340000025,
                    "velocity": 0.41732283464566927,
                    "duration": 0.12434070000003317
                },
                {
                    "name": "C6",
                    "midi": 84,
                    "time": 156.3301710000025,
                    "velocity": 0.4094488188976378,
                    "duration": 0.12434070000003317
                },
                {
                    "name": "A#5",
                    "midi": 82,
                    "time": 156.44320800000253,
                    "velocity": 0.4015748031496063,
                    "duration": 0.12434070000003317
                },
                {
                    "name": "G#5",
                    "midi": 80,
                    "time": 156.55624500000255,
                    "velocity": 0.3858267716535433,
                    "duration": 0.12434070000003317
                },
                {
                    "name": "G5",
                    "midi": 79,
                    "time": 156.66928200000257,
                    "velocity": 0.3779527559055118,
                    "duration": 0.12434070000003317
                },
                {
                    "name": "F5",
                    "midi": 77,
                    "time": 156.7823190000026,
                    "velocity": 0.36220472440944884,
                    "duration": 0.12434070000003317
                },
                {
                    "name": "D#5",
                    "midi": 75,
                    "time": 156.8953560000026,
                    "velocity": 0.3543307086614173,
                    "duration": 0.12434070000003317
                },
                {
                    "name": "C#5",
                    "midi": 73,
                    "time": 157.00839300000263,
                    "velocity": 0.3464566929133858,
                    "duration": 0.12434070000003317
                },
                {
                    "name": "C5",
                    "midi": 72,
                    "time": 157.12143000000265,
                    "velocity": 0.33070866141732286,
                    "duration": 0.12434070000003317
                },
                {
                    "name": "A#4",
                    "midi": 70,
                    "time": 157.23446700000267,
                    "velocity": 0.3228346456692913,
                    "duration": 0.12434070000003317
                },
                {
                    "name": "G#4",
                    "midi": 68,
                    "time": 157.3475040000027,
                    "velocity": 0.33858267716535434,
                    "duration": 0.2260740000000112
                },
                {
                    "name": "G#4",
                    "midi": 68,
                    "time": 157.5735780000027,
                    "velocity": 0.5511811023622047,
                    "duration": 0.12434070000000474
                },
                {
                    "name": "B4",
                    "midi": 71,
                    "time": 157.6866150000027,
                    "velocity": 0.4881889763779528,
                    "duration": 0.12434070000003317
                },
                {
                    "name": "D#5",
                    "midi": 75,
                    "time": 157.7996520000027,
                    "velocity": 0.5511811023622047,
                    "duration": 0.12434070000003317
                },
                {
                    "name": "C#5",
                    "midi": 73,
                    "time": 157.91268900000273,
                    "velocity": 0.5354330708661418,
                    "duration": 0.12434070000003317
                },
                {
                    "name": "B4",
                    "midi": 71,
                    "time": 158.02572600000275,
                    "velocity": 0.5354330708661418,
                    "duration": 0.12434070000003317
                },
                {
                    "name": "A#4",
                    "midi": 70,
                    "time": 158.13876300000277,
                    "velocity": 0.5275590551181102,
                    "duration": 0.12434070000003317
                },
                {
                    "name": "G#4",
                    "midi": 68,
                    "time": 158.2518000000028,
                    "velocity": 0.5196850393700787,
                    "duration": 0.12434070000003317
                },
                {
                    "name": "F#4",
                    "midi": 66,
                    "time": 158.3648370000028,
                    "velocity": 0.5118110236220472,
                    "duration": 0.12434070000003317
                },
                {
                    "name": "E4",
                    "midi": 64,
                    "time": 158.47787400000283,
                    "velocity": 0.5039370078740157,
                    "duration": 0.12434070000003317
                },
                {
                    "name": "D#4",
                    "midi": 63,
                    "time": 158.59091100000285,
                    "velocity": 0.49606299212598426,
                    "duration": 0.12434070000003317
                },
                {
                    "name": "C#4",
                    "midi": 61,
                    "time": 158.70394800000287,
                    "velocity": 0.4881889763779528,
                    "duration": 0.12434070000003317
                },
                {
                    "name": "B3",
                    "midi": 59,
                    "time": 158.8169850000029,
                    "velocity": 0.48031496062992124,
                    "duration": 0.12434070000003317
                },
                {
                    "name": "A#3",
                    "midi": 58,
                    "time": 158.9300220000029,
                    "velocity": 0.47244094488188976,
                    "duration": 0.12434070000003317
                },
                {
                    "name": "G#3",
                    "midi": 56,
                    "time": 159.04305900000293,
                    "velocity": 0.4645669291338583,
                    "duration": 0.12434070000003317
                },
                {
                    "name": "G3",
                    "midi": 55,
                    "time": 159.15609600000295,
                    "velocity": 0.4566929133858268,
                    "duration": 0.12434070000003317
                },
                {
                    "name": "G#3",
                    "midi": 56,
                    "time": 159.26913300000297,
                    "velocity": 0.44881889763779526,
                    "duration": 0.12434070000003317
                },
                {
                    "name": "A#3",
                    "midi": 58,
                    "time": 159.382170000003,
                    "velocity": 0.4409448818897638,
                    "duration": 0.12434070000003317
                },
                {
                    "name": "B3",
                    "midi": 59,
                    "time": 159.495207000003,
                    "velocity": 0.4566929133858268,
                    "duration": 0.12434070000003317
                },
                {
                    "name": "C#4",
                    "midi": 61,
                    "time": 159.60824400000303,
                    "velocity": 0.4645669291338583,
                    "duration": 0.12434070000003317
                },
                {
                    "name": "D#4",
                    "midi": 63,
                    "time": 159.72128100000305,
                    "velocity": 0.47244094488188976,
                    "duration": 0.12434070000003317
                },
                {
                    "name": "F4",
                    "midi": 65,
                    "time": 159.83431800000307,
                    "velocity": 0.48031496062992124,
                    "duration": 0.12434070000003317
                },
                {
                    "name": "G4",
                    "midi": 67,
                    "time": 159.94735500000309,
                    "velocity": 0.4881889763779528,
                    "duration": 0.12434070000003317
                },
                {
                    "name": "G#4",
                    "midi": 68,
                    "time": 160.0603920000031,
                    "velocity": 0.49606299212598426,
                    "duration": 0.12434070000003317
                },
                {
                    "name": "A#4",
                    "midi": 70,
                    "time": 160.17342900000313,
                    "velocity": 0.5118110236220472,
                    "duration": 0.12434070000003317
                },
                {
                    "name": "B4",
                    "midi": 71,
                    "time": 160.28646600000314,
                    "velocity": 0.5275590551181102,
                    "duration": 0.12434070000003317
                },
                {
                    "name": "C#5",
                    "midi": 73,
                    "time": 160.39950300000316,
                    "velocity": 0.5354330708661418,
                    "duration": 0.12434070000003317
                },
                {
                    "name": "D#5",
                    "midi": 75,
                    "time": 160.51254000000318,
                    "velocity": 0.5511811023622047,
                    "duration": 0.12434070000003317
                },
                {
                    "name": "F5",
                    "midi": 77,
                    "time": 160.6255770000032,
                    "velocity": 0.5669291338582677,
                    "duration": 0.12434070000003317
                },
                {
                    "name": "G5",
                    "midi": 79,
                    "time": 160.73861400000322,
                    "velocity": 0.5826771653543307,
                    "duration": 0.12434070000003317
                },
                {
                    "name": "G#5",
                    "midi": 80,
                    "time": 160.85165100000324,
                    "velocity": 0.5984251968503937,
                    "duration": 0.12434070000003317
                },
                {
                    "name": "A#5",
                    "midi": 82,
                    "time": 160.96468800000326,
                    "velocity": 0.6141732283464567,
                    "duration": 0.12434070000003317
                },
                {
                    "name": "B5",
                    "midi": 83,
                    "time": 161.07772500000328,
                    "velocity": 0.6299212598425197,
                    "duration": 0.12434070000003317
                },
                {
                    "name": "C#6",
                    "midi": 85,
                    "time": 161.1907620000033,
                    "velocity": 0.6535433070866141,
                    "duration": 0.12434070000003317
                },
                {
                    "name": "D#6",
                    "midi": 87,
                    "time": 161.30379900000332,
                    "velocity": 0.6692913385826772,
                    "duration": 0.12434070000003317
                },
                {
                    "name": "E6",
                    "midi": 88,
                    "time": 161.41683600000334,
                    "velocity": 0.7086614173228346,
                    "duration": 0.12434070000003317
                },
                {
                    "name": "D6",
                    "midi": 86,
                    "time": 161.52987300000336,
                    "velocity": 0.7007874015748031,
                    "duration": 0.12434070000003317
                },
                {
                    "name": "C#6",
                    "midi": 85,
                    "time": 161.64291000000338,
                    "velocity": 0.6929133858267716,
                    "duration": 0.12434070000003317
                },
                {
                    "name": "B5",
                    "midi": 83,
                    "time": 161.7559470000034,
                    "velocity": 0.6771653543307087,
                    "duration": 0.12434070000003317
                },
                {
                    "name": "A5",
                    "midi": 81,
                    "time": 161.86898400000342,
                    "velocity": 0.6692913385826772,
                    "duration": 0.12434070000003317
                },
                {
                    "name": "G#5",
                    "midi": 80,
                    "time": 161.98202100000344,
                    "velocity": 0.6535433070866141,
                    "duration": 0.12434070000003317
                },
                {
                    "name": "F#5",
                    "midi": 78,
                    "time": 162.09505800000346,
                    "velocity": 0.6456692913385826,
                    "duration": 0.12434070000003317
                },
                {
                    "name": "E5",
                    "midi": 76,
                    "time": 162.20809500000348,
                    "velocity": 0.6377952755905512,
                    "duration": 0.12434070000003317
                },
                {
                    "name": "D5",
                    "midi": 74,
                    "time": 162.3211320000035,
                    "velocity": 0.6220472440944882,
                    "duration": 0.12434070000003317
                },
                {
                    "name": "C#5",
                    "midi": 73,
                    "time": 162.43416900000352,
                    "velocity": 0.6141732283464567,
                    "duration": 0.12434070000003317
                },
                {
                    "name": "B4",
                    "midi": 71,
                    "time": 162.54720600000354,
                    "velocity": 0.5984251968503937,
                    "duration": 0.12434070000003317
                },
                {
                    "name": "A4",
                    "midi": 69,
                    "time": 162.66024300000356,
                    "velocity": 0.5905511811023622,
                    "duration": 0.12434070000003317
                },
                {
                    "name": "G#4",
                    "midi": 68,
                    "time": 162.77328000000358,
                    "velocity": 0.5826771653543307,
                    "duration": 0.12434070000003317
                },
                {
                    "name": "F#4",
                    "midi": 66,
                    "time": 162.8863170000036,
                    "velocity": 0.5669291338582677,
                    "duration": 0.12434070000003317
                },
                {
                    "name": "E4",
                    "midi": 64,
                    "time": 162.99935400000362,
                    "velocity": 0.5590551181102362,
                    "duration": 0.12434070000003317
                },
                {
                    "name": "D4",
                    "midi": 62,
                    "time": 163.11239100000364,
                    "velocity": 0.5433070866141733,
                    "duration": 0.12434070000003317
                },
                {
                    "name": "C#4",
                    "midi": 61,
                    "time": 163.22542800000366,
                    "velocity": 0.5354330708661418,
                    "duration": 0.12434070000003317
                },
                {
                    "name": "B3",
                    "midi": 59,
                    "time": 163.33846500000368,
                    "velocity": 0.5275590551181102,
                    "duration": 0.12434070000003317
                },
                {
                    "name": "A3",
                    "midi": 57,
                    "time": 163.4515020000037,
                    "velocity": 0.5433070866141733,
                    "duration": 0.12434070000003317
                },
                {
                    "name": "G#3",
                    "midi": 56,
                    "time": 163.56453900000372,
                    "velocity": 0.5590551181102362,
                    "duration": 0.12434070000003317
                },
                {
                    "name": "F#3",
                    "midi": 54,
                    "time": 163.67757600000374,
                    "velocity": 0.5748031496062992,
                    "duration": 0.12434070000003317
                },
                {
                    "name": "E3",
                    "midi": 52,
                    "time": 163.79061300000376,
                    "velocity": 0.5905511811023622,
                    "duration": 0.12434070000003317
                },
                {
                    "name": "D3",
                    "midi": 50,
                    "time": 163.90365000000378,
                    "velocity": 0.6062992125984252,
                    "duration": 0.08383577500001138
                },
                {
                    "name": "C#3",
                    "midi": 49,
                    "time": 163.9799499750038,
                    "velocity": 0.6141732283464567,
                    "duration": 0.08289379999999369
                },
                {
                    "name": "B2",
                    "midi": 47,
                    "time": 164.0543660000038,
                    "velocity": 0.6220472440944882,
                    "duration": 0.07535799999999426
                },
                {
                    "name": "A2",
                    "midi": 45,
                    "time": 164.1297240000038,
                    "velocity": 0.6141732283464567,
                    "duration": 0.1130369999999914
                },
                {
                    "name": "C#3",
                    "midi": 49,
                    "time": 164.24276100000378,
                    "velocity": 0.5275590551181102,
                    "duration": 0.1130369999999914
                },
                {
                    "name": "A2",
                    "midi": 45,
                    "time": 164.35579800000377,
                    "velocity": 0.6141732283464567,
                    "duration": 0.1130369999999914
                },
                {
                    "name": "C#3",
                    "midi": 49,
                    "time": 164.46883500000376,
                    "velocity": 0.5118110236220472,
                    "duration": 0.1130369999999914
                },
                {
                    "name": "E3",
                    "midi": 52,
                    "time": 164.58187200000376,
                    "velocity": 0.5748031496062992,
                    "duration": 0.2260740000000112
                },
                {
                    "name": "C#3",
                    "midi": 49,
                    "time": 164.80794600000377,
                    "velocity": 0.4881889763779528,
                    "duration": 0.1130369999999914
                },
                {
                    "name": "E3",
                    "midi": 52,
                    "time": 164.92098300000376,
                    "velocity": 0.41732283464566927,
                    "duration": 0.1130369999999914
                },
                {
                    "name": "C#3",
                    "midi": 49,
                    "time": 165.03402000000375,
                    "velocity": 0.4881889763779528,
                    "duration": 0.1130369999999914
                },
                {
                    "name": "E3",
                    "midi": 52,
                    "time": 165.14705700000374,
                    "velocity": 0.4094488188976378,
                    "duration": 0.1130369999999914
                },
                {
                    "name": "A3",
                    "midi": 57,
                    "time": 165.26009400000373,
                    "velocity": 0.4566929133858268,
                    "duration": 0.2260740000000112
                },
                {
                    "name": "E3",
                    "midi": 52,
                    "time": 165.48616800000374,
                    "velocity": 0.4881889763779528,
                    "duration": 0.1130369999999914
                },
                {
                    "name": "A3",
                    "midi": 57,
                    "time": 165.59920500000374,
                    "velocity": 0.41732283464566927,
                    "duration": 0.1130369999999914
                },
                {
                    "name": "E3",
                    "midi": 52,
                    "time": 165.71224200000373,
                    "velocity": 0.4881889763779528,
                    "duration": 0.1130369999999914
                },
                {
                    "name": "A3",
                    "midi": 57,
                    "time": 165.82527900000372,
                    "velocity": 0.4094488188976378,
                    "duration": 0.1130369999999914
                },
                {
                    "name": "C#4",
                    "midi": 61,
                    "time": 165.9383160000037,
                    "velocity": 0.4566929133858268,
                    "duration": 0.2260740000000112
                },
                {
                    "name": "A3",
                    "midi": 57,
                    "time": 166.16439000000372,
                    "velocity": 0.4881889763779528,
                    "duration": 0.1130369999999914
                },
                {
                    "name": "C#4",
                    "midi": 61,
                    "time": 166.2774270000037,
                    "velocity": 0.41732283464566927,
                    "duration": 0.1130369999999914
                },
                {
                    "name": "A3",
                    "midi": 57,
                    "time": 166.3904640000037,
                    "velocity": 0.4881889763779528,
                    "duration": 0.1130369999999914
                },
                {
                    "name": "C#4",
                    "midi": 61,
                    "time": 166.5035010000037,
                    "velocity": 0.4094488188976378,
                    "duration": 0.1130369999999914
                },
                {
                    "name": "E4",
                    "midi": 64,
                    "time": 166.6165380000037,
                    "velocity": 0.4566929133858268,
                    "duration": 0.2260740000000112
                },
                {
                    "name": "C#4",
                    "midi": 61,
                    "time": 166.8426120000037,
                    "velocity": 0.4881889763779528,
                    "duration": 0.1130369999999914
                },
                {
                    "name": "E4",
                    "midi": 64,
                    "time": 166.9556490000037,
                    "velocity": 0.41732283464566927,
                    "duration": 0.1130369999999914
                },
                {
                    "name": "C#4",
                    "midi": 61,
                    "time": 167.06868600000368,
                    "velocity": 0.4881889763779528,
                    "duration": 0.1130369999999914
                },
                {
                    "name": "E4",
                    "midi": 64,
                    "time": 167.18172300000367,
                    "velocity": 0.4094488188976378,
                    "duration": 0.1130369999999914
                },
                {
                    "name": "A4",
                    "midi": 69,
                    "time": 167.29476000000366,
                    "velocity": 0.4566929133858268,
                    "duration": 0.2260740000000112
                },
                {
                    "name": "E4",
                    "midi": 64,
                    "time": 167.52083400000367,
                    "velocity": 0.4881889763779528,
                    "duration": 0.1130369999999914
                },
                {
                    "name": "A4",
                    "midi": 69,
                    "time": 167.63387100000367,
                    "velocity": 0.41732283464566927,
                    "duration": 0.1130369999999914
                },
                {
                    "name": "E4",
                    "midi": 64,
                    "time": 167.74690800000366,
                    "velocity": 0.4881889763779528,
                    "duration": 0.1130369999999914
                },
                {
                    "name": "A4",
                    "midi": 69,
                    "time": 167.85994500000365,
                    "velocity": 0.4094488188976378,
                    "duration": 0.1130369999999914
                },
                {
                    "name": "C#5",
                    "midi": 73,
                    "time": 167.97298200000364,
                    "velocity": 0.4566929133858268,
                    "duration": 0.2260740000000112
                },
                {
                    "name": "A4",
                    "midi": 69,
                    "time": 168.19905600000365,
                    "velocity": 0.4566929133858268,
                    "duration": 0.1130369999999914
                },
                {
                    "name": "C#5",
                    "midi": 73,
                    "time": 168.31209300000364,
                    "velocity": 0.36220472440944884,
                    "duration": 0.1130369999999914
                },
                {
                    "name": "A4",
                    "midi": 69,
                    "time": 168.42513000000363,
                    "velocity": 0.4409448818897638,
                    "duration": 0.1130369999999914
                },
                {
                    "name": "C#5",
                    "midi": 73,
                    "time": 168.53816700000363,
                    "velocity": 0.3543307086614173,
                    "duration": 0.1130369999999914
                },
                {
                    "name": "E5",
                    "midi": 76,
                    "time": 168.65120400000362,
                    "velocity": 0.4566929133858268,
                    "duration": 0.2260740000000112
                },
                {
                    "name": "B4",
                    "midi": 71,
                    "time": 168.87727800000363,
                    "velocity": 0.3858267716535433,
                    "duration": 0.1130369999999914
                },
                {
                    "name": "D5",
                    "midi": 74,
                    "time": 168.99031500000362,
                    "velocity": 0.33070866141732286,
                    "duration": 0.1130369999999914
                },
                {
                    "name": "B4",
                    "midi": 71,
                    "time": 169.1033520000036,
                    "velocity": 0.3858267716535433,
                    "duration": 0.1130369999999914
                },
                {
                    "name": "D5",
                    "midi": 74,
                    "time": 169.2163890000036,
                    "velocity": 0.3228346456692913,
                    "duration": 0.1130369999999914
                },
                {
                    "name": "B5",
                    "midi": 83,
                    "time": 169.3294260000036,
                    "velocity": 0.4251968503937008,
                    "duration": 0.2260740000000112
                },
                {
                    "name": "C5",
                    "midi": 72,
                    "time": 169.5555000000036,
                    "velocity": 0.3858267716535433,
                    "duration": 0.1130369999999914
                },
                {
                    "name": "D#5",
                    "midi": 75,
                    "time": 169.6685370000036,
                    "velocity": 0.33070866141732286,
                    "duration": 0.1130369999999914
                },
                {
                    "name": "C5",
                    "midi": 72,
                    "time": 169.7815740000036,
                    "velocity": 0.3858267716535433,
                    "duration": 0.1130369999999914
                },
                {
                    "name": "D#5",
                    "midi": 75,
                    "time": 169.89461100000358,
                    "velocity": 0.3228346456692913,
                    "duration": 0.1130369999999914
                },
                {
                    "name": "C6",
                    "midi": 84,
                    "time": 170.00764800000357,
                    "velocity": 0.4251968503937008,
                    "duration": 0.1130369999999914
                },
                {
                    "name": "D#5",
                    "midi": 75,
                    "time": 170.23372200000355,
                    "velocity": 0.3858267716535433,
                    "duration": 0.1130369999999914
                },
                {
                    "name": "C6",
                    "midi": 84,
                    "time": 170.34675900000354,
                    "velocity": 0.33070866141732286,
                    "duration": 0.1130369999999914
                },
                {
                    "name": "D#5",
                    "midi": 75,
                    "time": 170.45979600000354,
                    "velocity": 0.3858267716535433,
                    "duration": 0.1130369999999914
                },
                {
                    "name": "C6",
                    "midi": 84,
                    "time": 170.57283300000353,
                    "velocity": 0.3228346456692913,
                    "duration": 0.1130369999999914
                },
                {
                    "name": "D#6",
                    "midi": 87,
                    "time": 170.68587000000352,
                    "velocity": 0.4409448818897638,
                    "duration": 0.1130369999999914
                },
                {
                    "name": "C#5",
                    "midi": 73,
                    "time": 170.9119440000035,
                    "velocity": 0.3858267716535433,
                    "duration": 0.1130369999999914
                },
                {
                    "name": "A#5",
                    "midi": 82,
                    "time": 171.0249810000035,
                    "velocity": 0.33070866141732286,
                    "duration": 0.1130369999999914
                },
                {
                    "name": "C#5",
                    "midi": 73,
                    "time": 171.13801800000348,
                    "velocity": 0.3858267716535433,
                    "duration": 0.1130369999999914
                },
                {
                    "name": "A#5",
                    "midi": 82,
                    "time": 171.25105500000348,
                    "velocity": 0.3228346456692913,
                    "duration": 0.1130369999999914
                },
                {
                    "name": "C#6",
                    "midi": 85,
                    "time": 171.36409200000347,
                    "velocity": 0.4330708661417323,
                    "duration": 0.1130369999999914
                },
                {
                    "name": "A#4",
                    "midi": 70,
                    "time": 171.59016600000345,
                    "velocity": 0.3858267716535433,
                    "duration": 0.1130369999999914
                },
                {
                    "name": "G5",
                    "midi": 79,
                    "time": 171.70320300000344,
                    "velocity": 0.33070866141732286,
                    "duration": 0.1130369999999914
                },
                {
                    "name": "A#4",
                    "midi": 70,
                    "time": 171.81624000000343,
                    "velocity": 0.3858267716535433,
                    "duration": 0.1130369999999914
                },
                {
                    "name": "G5",
                    "midi": 79,
                    "time": 171.92927700000342,
                    "velocity": 0.3228346456692913,
                    "duration": 0.1130369999999914
                },
                {
                    "name": "A#5",
                    "midi": 82,
                    "time": 172.04231400000342,
                    "velocity": 0.4330708661417323,
                    "duration": 0.1130369999999914
                },
                {
                    "name": "C5",
                    "midi": 72,
                    "time": 172.2683880000034,
                    "velocity": 0.3858267716535433,
                    "duration": 0.1130369999999914
                },
                {
                    "name": "D#5",
                    "midi": 75,
                    "time": 172.3814250000034,
                    "velocity": 0.33070866141732286,
                    "duration": 0.1130369999999914
                },
                {
                    "name": "C5",
                    "midi": 72,
                    "time": 172.49446200000338,
                    "velocity": 0.3858267716535433,
                    "duration": 0.1130369999999914
                },
                {
                    "name": "D#5",
                    "midi": 75,
                    "time": 172.60749900000337,
                    "velocity": 0.3228346456692913,
                    "duration": 0.1130369999999914
                },
                {
                    "name": "C6",
                    "midi": 84,
                    "time": 172.72053600000336,
                    "velocity": 0.4409448818897638,
                    "duration": 0.1130369999999914
                },
                {
                    "name": "G#5",
                    "midi": 80,
                    "time": 172.94661000000335,
                    "velocity": 0.44881889763779526,
                    "duration": 0.1130369999999914
                },
                {
                    "name": "D#6",
                    "midi": 87,
                    "time": 173.05964700000334,
                    "velocity": 0.3700787401574803,
                    "duration": 0.1130369999999914
                },
                {
                    "name": "G#5",
                    "midi": 80,
                    "time": 173.17268400000333,
                    "velocity": 0.4409448818897638,
                    "duration": 0.1130369999999914
                },
                {
                    "name": "D#6",
                    "midi": 87,
                    "time": 173.28572100000332,
                    "velocity": 0.3858267716535433,
                    "duration": 0.1130369999999914
                },
                {
                    "name": "G#6",
                    "midi": 92,
                    "time": 173.3987580000033,
                    "velocity": 0.4645669291338583,
                    "duration": 0.1130369999999914
                },
                {
                    "name": "G5",
                    "midi": 79,
                    "time": 173.6248320000033,
                    "velocity": 0.4566929133858268,
                    "duration": 0.1130369999999914
                },
                {
                    "name": "C#6",
                    "midi": 85,
                    "time": 173.7378690000033,
                    "velocity": 0.3937007874015748,
                    "duration": 0.1130369999999914
                },
                {
                    "name": "G5",
                    "midi": 79,
                    "time": 173.85090600000328,
                    "velocity": 0.4566929133858268,
                    "duration": 0.1130369999999914
                },
                {
                    "name": "C#6",
                    "midi": 85,
                    "time": 173.96394300000327,
                    "velocity": 0.3858267716535433,
                    "duration": 0.1130369999999914
                },
                {
                    "name": "G6",
                    "midi": 91,
                    "time": 174.07698000000326,
                    "velocity": 0.5118110236220472,
                    "duration": 0.1130369999999914
                },
                {
                    "name": "C#5",
                    "midi": 73,
                    "time": 174.30305400000324,
                    "velocity": 0.4566929133858268,
                    "duration": 0.1130369999999914
                },
                {
                    "name": "G5",
                    "midi": 79,
                    "time": 174.41609100000323,
                    "velocity": 0.3937007874015748,
                    "duration": 0.1130369999999914
                },
                {
                    "name": "C#5",
                    "midi": 73,
                    "time": 174.52912800000323,
                    "velocity": 0.4566929133858268,
                    "duration": 0.1130369999999914
                },
                {
                    "name": "G5",
                    "midi": 79,
                    "time": 174.64216500000322,
                    "velocity": 0.3858267716535433,
                    "duration": 0.1130369999999914
                },
                {
                    "name": "C#6",
                    "midi": 85,
                    "time": 174.7552020000032,
                    "velocity": 0.5196850393700787,
                    "duration": 0.1130369999999914
                },
                {
                    "name": "C5",
                    "midi": 72,
                    "time": 174.9812760000032,
                    "velocity": 0.4566929133858268,
                    "duration": 0.1130369999999914
                },
                {
                    "name": "G#5",
                    "midi": 80,
                    "time": 175.09431300000318,
                    "velocity": 0.3937007874015748,
                    "duration": 0.1130369999999914
                },
                {
                    "name": "C5",
                    "midi": 72,
                    "time": 175.20735000000317,
                    "velocity": 0.4566929133858268,
                    "duration": 0.1130369999999914
                },
                {
                    "name": "G#5",
                    "midi": 80,
                    "time": 175.32038700000317,
                    "velocity": 0.3858267716535433,
                    "duration": 0.1130369999999914
                },
                {
                    "name": "C6",
                    "midi": 84,
                    "time": 175.43342400000316,
                    "velocity": 0.5196850393700787,
                    "duration": 0.1130369999999914
                },
                {
                    "name": "D#6",
                    "midi": 87,
                    "time": 175.65949800000314,
                    "velocity": 0.5669291338582677,
                    "duration": 0.1130369999999914
                },
                {
                    "name": "C7",
                    "midi": 96,
                    "time": 175.77253500000313,
                    "velocity": 0.5039370078740157,
                    "duration": 0.1130369999999914
                },
                {
                    "name": "D#6",
                    "midi": 87,
                    "time": 175.88557200000312,
                    "velocity": 0.5748031496062992,
                    "duration": 0.1130369999999914
                },
                {
                    "name": "C7",
                    "midi": 96,
                    "time": 175.9986090000031,
                    "velocity": 0.5039370078740157,
                    "duration": 0.1130369999999914
                },
                {
                    "name": "D#7",
                    "midi": 99,
                    "time": 176.1116460000031,
                    "velocity": 0.6141732283464567,
                    "duration": 0.1130369999999914
                },
                {
                    "name": "C#6",
                    "midi": 85,
                    "time": 176.3377200000031,
                    "velocity": 0.5511811023622047,
                    "duration": 0.1130369999999914
                },
                {
                    "name": "A#6",
                    "midi": 94,
                    "time": 176.45075700000308,
                    "velocity": 0.48031496062992124,
                    "duration": 0.1130369999999914
                },
                {
                    "name": "C#6",
                    "midi": 85,
                    "time": 176.56379400000307,
                    "velocity": 0.5590551181102362,
                    "duration": 0.1130369999999914
                },
                {
                    "name": "A#6",
                    "midi": 94,
                    "time": 176.67683100000306,
                    "velocity": 0.48031496062992124,
                    "duration": 0.1130369999999914
                },
                {
                    "name": "C#7",
                    "midi": 97,
                    "time": 176.78986800000305,
                    "velocity": 0.6141732283464567,
                    "duration": 0.1130369999999914
                },
                {
                    "name": "A#5",
                    "midi": 82,
                    "time": 177.01594200000304,
                    "velocity": 0.5433070866141733,
                    "duration": 0.1130369999999914
                },
                {
                    "name": "G6",
                    "midi": 91,
                    "time": 177.12897900000303,
                    "velocity": 0.47244094488188976,
                    "duration": 0.1130369999999914
                },
                {
                    "name": "A#5",
                    "midi": 82,
                    "time": 177.24201600000302,
                    "velocity": 0.5275590551181102,
                    "duration": 0.1130369999999914
                },
                {
                    "name": "G6",
                    "midi": 91,
                    "time": 177.355053000003,
                    "velocity": 0.48031496062992124,
                    "duration": 0.1130369999999914
                },
                {
                    "name": "A#6",
                    "midi": 94,
                    "time": 177.468090000003,
                    "velocity": 0.5905511811023622,
                    "duration": 0.1130369999999914
                },
                {
                    "name": "C5",
                    "midi": 72,
                    "time": 177.69416400000298,
                    "velocity": 0.3858267716535433,
                    "duration": 0.1130369999999914
                },
                {
                    "name": "G5",
                    "midi": 79,
                    "time": 177.80720100000298,
                    "velocity": 0.33070866141732286,
                    "duration": 0.1130369999999914
                },
                {
                    "name": "C5",
                    "midi": 72,
                    "time": 177.92023800000297,
                    "velocity": 0.3858267716535433,
                    "duration": 0.1130369999999914
                },
                {
                    "name": "G5",
                    "midi": 79,
                    "time": 178.03327500000296,
                    "velocity": 0.3228346456692913,
                    "duration": 0.1130369999999914
                },
                {
                    "name": "C6",
                    "midi": 84,
                    "time": 178.14631200000295,
                    "velocity": 0.36220472440944884,
                    "duration": 0.1130369999999914
                },
                {
                    "name": "C5",
                    "midi": 72,
                    "time": 178.37238600000293,
                    "velocity": 0.3858267716535433,
                    "duration": 0.1130369999999914
                },
                {
                    "name": "G5",
                    "midi": 79,
                    "time": 178.48542300000292,
                    "velocity": 0.33070866141732286,
                    "duration": 0.1130369999999914
                },
                {
                    "name": "C5",
                    "midi": 72,
                    "time": 178.59846000000292,
                    "velocity": 0.3858267716535433,
                    "duration": 0.1130369999999914
                },
                {
                    "name": "G5",
                    "midi": 79,
                    "time": 178.7114970000029,
                    "velocity": 0.3228346456692913,
                    "duration": 0.1130369999999914
                },
                {
                    "name": "C6",
                    "midi": 84,
                    "time": 178.8245340000029,
                    "velocity": 0.36220472440944884,
                    "duration": 0.1130369999999914
                },
                {
                    "name": "G5",
                    "midi": 79,
                    "time": 179.05060800000288,
                    "velocity": 0.3858267716535433,
                    "duration": 0.1130369999999914
                },
                {
                    "name": "C6",
                    "midi": 84,
                    "time": 179.16364500000287,
                    "velocity": 0.33070866141732286,
                    "duration": 0.1130369999999914
                },
                {
                    "name": "G5",
                    "midi": 79,
                    "time": 179.27668200000286,
                    "velocity": 0.3858267716535433,
                    "duration": 0.1130369999999914
                },
                {
                    "name": "C6",
                    "midi": 84,
                    "time": 179.38971900000286,
                    "velocity": 0.3228346456692913,
                    "duration": 0.1130369999999914
                },
                {
                    "name": "G6",
                    "midi": 91,
                    "time": 179.50275600000285,
                    "velocity": 0.36220472440944884,
                    "duration": 0.1130369999999914
                },
                {
                    "name": "C6",
                    "midi": 84,
                    "time": 179.72883000000283,
                    "velocity": 0.3858267716535433,
                    "duration": 0.1130369999999914
                },
                {
                    "name": "G6",
                    "midi": 91,
                    "time": 179.84186700000282,
                    "velocity": 0.33070866141732286,
                    "duration": 0.1130369999999914
                },
                {
                    "name": "C6",
                    "midi": 84,
                    "time": 179.9549040000028,
                    "velocity": 0.3858267716535433,
                    "duration": 0.1130369999999914
                },
                {
                    "name": "G6",
                    "midi": 91,
                    "time": 180.0679410000028,
                    "velocity": 0.3228346456692913,
                    "duration": 0.1130369999999914
                },
                {
                    "name": "C7",
                    "midi": 96,
                    "time": 180.1809780000028,
                    "velocity": 0.36220472440944884,
                    "duration": 0.1130369999999914
                },
                {
                    "name": "C6",
                    "midi": 84,
                    "time": 180.40705200000278,
                    "velocity": 0.41732283464566927,
                    "duration": 0.1130369999999914
                },
                {
                    "name": "D#6",
                    "midi": 87,
                    "time": 180.52008900000277,
                    "velocity": 0.36220472440944884,
                    "duration": 0.1130369999999914
                },
                {
                    "name": "C6",
                    "midi": 84,
                    "time": 180.63312600000276,
                    "velocity": 0.4566929133858268,
                    "duration": 0.1130369999999914
                },
                {
                    "name": "D#6",
                    "midi": 87,
                    "time": 180.74616300000275,
                    "velocity": 0.3937007874015748,
                    "duration": 0.1130369999999914
                },
                {
                    "name": "G#6",
                    "midi": 92,
                    "time": 180.85920000000274,
                    "velocity": 0.48031496062992124,
                    "duration": 0.1130369999999914
                },
                {
                    "name": "G6",
                    "midi": 91,
                    "time": 180.97223700000274,
                    "velocity": 0.3858267716535433,
                    "duration": 0.1130369999999914
                },
                {
                    "name": "F6",
                    "midi": 89,
                    "time": 181.08527400000273,
                    "velocity": 0.5039370078740157,
                    "duration": 0.1130369999999914
                },
                {
                    "name": "D#6",
                    "midi": 87,
                    "time": 181.19831100000272,
                    "velocity": 0.4015748031496063,
                    "duration": 0.1130369999999914
                },
                {
                    "name": "C#6",
                    "midi": 85,
                    "time": 181.3113480000027,
                    "velocity": 0.4094488188976378,
                    "duration": 0.1130369999999914
                },
                {
                    "name": "C6",
                    "midi": 84,
                    "time": 181.4243850000027,
                    "velocity": 0.4015748031496063,
                    "duration": 0.1130369999999914
                },
                {
                    "name": "A#5",
                    "midi": 82,
                    "time": 181.5374220000027,
                    "velocity": 0.3937007874015748,
                    "duration": 0.1130369999999914
                },
                {
                    "name": "G#5",
                    "midi": 80,
                    "time": 181.65045900000268,
                    "velocity": 0.3858267716535433,
                    "duration": 0.1130369999999914
                },
                {
                    "name": "G5",
                    "midi": 79,
                    "time": 181.76349600000268,
                    "velocity": 0.3700787401574803,
                    "duration": 0.1130369999999914
                },
                {
                    "name": "F5",
                    "midi": 77,
                    "time": 181.87653300000267,
                    "velocity": 0.36220472440944884,
                    "duration": 0.1130369999999914
                },
                {
                    "name": "D#5",
                    "midi": 75,
                    "time": 181.98957000000266,
                    "velocity": 0.3543307086614173,
                    "duration": 0.1130369999999914
                },
                {
                    "name": "C#5",
                    "midi": 73,
                    "time": 182.10260700000265,
                    "velocity": 0.3464566929133858,
                    "duration": 0.1130369999999914
                },
                {
                    "name": "C5",
                    "midi": 72,
                    "time": 182.21564400000264,
                    "velocity": 0.33070866141732286,
                    "duration": 0.1130369999999914
                },
                {
                    "name": "A#4",
                    "midi": 70,
                    "time": 182.32868100000263,
                    "velocity": 0.3228346456692913,
                    "duration": 0.1130369999999914
                },
                {
                    "name": "G#4",
                    "midi": 68,
                    "time": 182.44171800000262,
                    "velocity": 0.31496062992125984,
                    "duration": 0.1130369999999914
                },
                {
                    "name": "G4",
                    "midi": 67,
                    "time": 182.55475500000261,
                    "velocity": 0.2992125984251969,
                    "duration": 0.1130369999999914
                },
                {
                    "name": "F4",
                    "midi": 65,
                    "time": 182.6677920000026,
                    "velocity": 0.29133858267716534,
                    "duration": 0.1130369999999914
                },
                {
                    "name": "E4",
                    "midi": 64,
                    "time": 182.7808290000026,
                    "velocity": 0.28346456692913385,
                    "duration": 0.1130369999999914
                },
                {
                    "name": "D#4",
                    "midi": 63,
                    "time": 182.8938660000026,
                    "velocity": 0.2677165354330709,
                    "duration": 0.2260740000000112
                },
                {
                    "name": "C5",
                    "midi": 72,
                    "time": 183.1199400000026,
                    "velocity": 0.4566929133858268,
                    "duration": 0.1130369999999914
                },
                {
                    "name": "G5",
                    "midi": 79,
                    "time": 183.2329770000026,
                    "velocity": 0.3937007874015748,
                    "duration": 0.1130369999999914
                },
                {
                    "name": "C5",
                    "midi": 72,
                    "time": 183.34601400000258,
                    "velocity": 0.4566929133858268,
                    "duration": 0.1130369999999914
                },
                {
                    "name": "G5",
                    "midi": 79,
                    "time": 183.45905100000257,
                    "velocity": 0.3858267716535433,
                    "duration": 0.1130369999999914
                },
                {
                    "name": "C6",
                    "midi": 84,
                    "time": 183.57208800000257,
                    "velocity": 0.4330708661417323,
                    "duration": 0.1130369999999914
                },
                {
                    "name": "C5",
                    "midi": 72,
                    "time": 183.79816200000255,
                    "velocity": 0.4566929133858268,
                    "duration": 0.1130369999999914
                },
                {
                    "name": "G5",
                    "midi": 79,
                    "time": 183.91119900000254,
                    "velocity": 0.3937007874015748,
                    "duration": 0.1130369999999914
                },
                {
                    "name": "C5",
                    "midi": 72,
                    "time": 184.02423600000253,
                    "velocity": 0.4566929133858268,
                    "duration": 0.1130369999999914
                },
                {
                    "name": "G5",
                    "midi": 79,
                    "time": 184.13727300000252,
                    "velocity": 0.3858267716535433,
                    "duration": 0.1130369999999914
                },
                {
                    "name": "C6",
                    "midi": 84,
                    "time": 184.25031000000251,
                    "velocity": 0.4330708661417323,
                    "duration": 0.1130369999999914
                },
                {
                    "name": "G5",
                    "midi": 79,
                    "time": 184.4763840000025,
                    "velocity": 0.4566929133858268,
                    "duration": 0.1130369999999914
                },
                {
                    "name": "C6",
                    "midi": 84,
                    "time": 184.5894210000025,
                    "velocity": 0.3937007874015748,
                    "duration": 0.1130369999999914
                },
                {
                    "name": "G5",
                    "midi": 79,
                    "time": 184.70245800000248,
                    "velocity": 0.4566929133858268,
                    "duration": 0.1130369999999914
                },
                {
                    "name": "C6",
                    "midi": 84,
                    "time": 184.81549500000247,
                    "velocity": 0.3858267716535433,
                    "duration": 0.1130369999999914
                },
                {
                    "name": "G6",
                    "midi": 91,
                    "time": 184.92853200000246,
                    "velocity": 0.4330708661417323,
                    "duration": 0.1130369999999914
                },
                {
                    "name": "C6",
                    "midi": 84,
                    "time": 185.15460600000245,
                    "velocity": 0.4566929133858268,
                    "duration": 0.1130369999999914
                },
                {
                    "name": "G6",
                    "midi": 91,
                    "time": 185.26764300000244,
                    "velocity": 0.3937007874015748,
                    "duration": 0.1130369999999914
                },
                {
                    "name": "C6",
                    "midi": 84,
                    "time": 185.38068000000243,
                    "velocity": 0.4566929133858268,
                    "duration": 0.1130369999999914
                },
                {
                    "name": "G6",
                    "midi": 91,
                    "time": 185.49371700000242,
                    "velocity": 0.3858267716535433,
                    "duration": 0.1130369999999914
                },
                {
                    "name": "C7",
                    "midi": 96,
                    "time": 185.6067540000024,
                    "velocity": 0.4330708661417323,
                    "duration": 0.1130369999999914
                },
                {
                    "name": "D#6",
                    "midi": 87,
                    "time": 185.8328280000024,
                    "velocity": 0.49606299212598426,
                    "duration": 0.1130369999999914
                },
                {
                    "name": "G#6",
                    "midi": 92,
                    "time": 185.94586500000239,
                    "velocity": 0.4330708661417323,
                    "duration": 0.1130369999999914
                },
                {
                    "name": "D#6",
                    "midi": 87,
                    "time": 186.05890200000238,
                    "velocity": 0.5433070866141733,
                    "duration": 0.1130369999999914
                },
                {
                    "name": "G#6",
                    "midi": 92,
                    "time": 186.17193900000237,
                    "velocity": 0.47244094488188976,
                    "duration": 0.1130369999999914
                },
                {
                    "name": "C7",
                    "midi": 96,
                    "time": 186.28497600000236,
                    "velocity": 0.5748031496062992,
                    "duration": 0.1130369999999914
                },
                {
                    "name": "A#6",
                    "midi": 94,
                    "time": 186.39801300000235,
                    "velocity": 0.4566929133858268,
                    "duration": 0.1130369999999914
                },
                {
                    "name": "G#6",
                    "midi": 92,
                    "time": 186.51105000000234,
                    "velocity": 0.5984251968503937,
                    "duration": 0.1130369999999914
                },
                {
                    "name": "G6",
                    "midi": 91,
                    "time": 186.62408700000233,
                    "velocity": 0.48031496062992124,
                    "duration": 0.1130369999999914
                },
                {
                    "name": "F6",
                    "midi": 89,
                    "time": 186.73712400000232,
                    "velocity": 0.4881889763779528,
                    "duration": 0.1130369999999914
                },
                {
                    "name": "D#6",
                    "midi": 87,
                    "time": 186.85016100000232,
                    "velocity": 0.48031496062992124,
                    "duration": 0.1130369999999914
                },
                {
                    "name": "C#6",
                    "midi": 85,
                    "time": 186.9631980000023,
                    "velocity": 0.47244094488188976,
                    "duration": 0.1130369999999914
                },
                {
                    "name": "C6",
                    "midi": 84,
                    "time": 187.0762350000023,
                    "velocity": 0.4566929133858268,
                    "duration": 0.1130369999999914
                },
                {
                    "name": "A#5",
                    "midi": 82,
                    "time": 187.1892720000023,
                    "velocity": 0.4409448818897638,
                    "duration": 0.1130369999999914
                },
                {
                    "name": "G#5",
                    "midi": 80,
                    "time": 187.30230900000228,
                    "velocity": 0.4330708661417323,
                    "duration": 0.1130369999999914
                },
                {
                    "name": "G5",
                    "midi": 79,
                    "time": 187.41534600000227,
                    "velocity": 0.4251968503937008,
                    "duration": 0.1130369999999914
                },
                {
                    "name": "F5",
                    "midi": 77,
                    "time": 187.52838300000226,
                    "velocity": 0.4094488188976378,
                    "duration": 0.1130369999999914
                },
                {
                    "name": "D#5",
                    "midi": 75,
                    "time": 187.64142000000226,
                    "velocity": 0.3937007874015748,
                    "duration": 0.1130369999999914
                },
                {
                    "name": "C#5",
                    "midi": 73,
                    "time": 187.75445700000225,
                    "velocity": 0.3858267716535433,
                    "duration": 0.1130369999999914
                },
                {
                    "name": "C5",
                    "midi": 72,
                    "time": 187.86749400000224,
                    "velocity": 0.3779527559055118,
                    "duration": 0.1130369999999914
                },
                {
                    "name": "A#4",
                    "midi": 70,
                    "time": 187.98053100000223,
                    "velocity": 0.3543307086614173,
                    "duration": 0.1130369999999914
                },
                {
                    "name": "G#4",
                    "midi": 68,
                    "time": 188.09356800000222,
                    "velocity": 0.3464566929133858,
                    "duration": 0.07535799999999426
                },
                {
                    "name": "G4",
                    "midi": 67,
                    "time": 188.16892600000222,
                    "velocity": 0.33858267716535434,
                    "duration": 0.07535799999999426
                },
                {
                    "name": "F4",
                    "midi": 65,
                    "time": 188.2442840000022,
                    "velocity": 0.33070866141732286,
                    "duration": 0.07535799999999426
                },
                {
                    "name": "D#4",
                    "midi": 63,
                    "time": 188.3196420000022,
                    "velocity": 0.31496062992125984,
                    "duration": 0.2260740000000112
                },
                {
                    "name": "C5",
                    "midi": 72,
                    "time": 188.54571600000222,
                    "velocity": 0.5433070866141733,
                    "duration": 0.1130369999999914
                },
                {
                    "name": "G5",
                    "midi": 79,
                    "time": 188.6587530000022,
                    "velocity": 0.47244094488188976,
                    "duration": 0.1130369999999914
                },
                {
                    "name": "C5",
                    "midi": 72,
                    "time": 188.7717900000022,
                    "velocity": 0.5433070866141733,
                    "duration": 0.1130369999999914
                },
                {
                    "name": "G5",
                    "midi": 79,
                    "time": 188.8848270000022,
                    "velocity": 0.4566929133858268,
                    "duration": 0.1130369999999914
                },
                {
                    "name": "C6",
                    "midi": 84,
                    "time": 188.99786400000218,
                    "velocity": 0.5196850393700787,
                    "duration": 0.1130369999999914
                },
                {
                    "name": "C5",
                    "midi": 72,
                    "time": 189.22393800000216,
                    "velocity": 0.5433070866141733,
                    "duration": 0.1130369999999914
                },
                {
                    "name": "G5",
                    "midi": 79,
                    "time": 189.33697500000216,
                    "velocity": 0.47244094488188976,
                    "duration": 0.1130369999999914
                },
                {
                    "name": "C5",
                    "midi": 72,
                    "time": 189.45001200000215,
                    "velocity": 0.5433070866141733,
                    "duration": 0.1130369999999914
                },
                {
                    "name": "G5",
                    "midi": 79,
                    "time": 189.56304900000214,
                    "velocity": 0.4566929133858268,
                    "duration": 0.1130369999999914
                },
                {
                    "name": "C6",
                    "midi": 84,
                    "time": 189.67608600000213,
                    "velocity": 0.5196850393700787,
                    "duration": 0.1130369999999914
                },
                {
                    "name": "G5",
                    "midi": 79,
                    "time": 189.9021600000021,
                    "velocity": 0.5433070866141733,
                    "duration": 0.1130369999999914
                },
                {
                    "name": "C6",
                    "midi": 84,
                    "time": 190.0151970000021,
                    "velocity": 0.47244094488188976,
                    "duration": 0.1130369999999914
                },
                {
                    "name": "G5",
                    "midi": 79,
                    "time": 190.1282340000021,
                    "velocity": 0.5433070866141733,
                    "duration": 0.1130369999999914
                },
                {
                    "name": "C6",
                    "midi": 84,
                    "time": 190.2412710000021,
                    "velocity": 0.4566929133858268,
                    "duration": 0.1130369999999914
                },
                {
                    "name": "G6",
                    "midi": 91,
                    "time": 190.35430800000208,
                    "velocity": 0.5196850393700787,
                    "duration": 0.1130369999999914
                },
                {
                    "name": "C6",
                    "midi": 84,
                    "time": 190.58038200000206,
                    "velocity": 0.5433070866141733,
                    "duration": 0.1130369999999914
                },
                {
                    "name": "G6",
                    "midi": 91,
                    "time": 190.69341900000205,
                    "velocity": 0.47244094488188976,
                    "duration": 0.1130369999999914
                },
                {
                    "name": "C6",
                    "midi": 84,
                    "time": 190.80645600000204,
                    "velocity": 0.5433070866141733,
                    "duration": 0.1130369999999914
                },
                {
                    "name": "G6",
                    "midi": 91,
                    "time": 190.91949300000203,
                    "velocity": 0.4566929133858268,
                    "duration": 0.1130369999999914
                },
                {
                    "name": "C7",
                    "midi": 96,
                    "time": 191.03253000000203,
                    "velocity": 0.5196850393700787,
                    "duration": 0.1130369999999914
                },
                {
                    "name": "G6",
                    "midi": 91,
                    "time": 191.258604000002,
                    "velocity": 0.5905511811023622,
                    "duration": 0.1130369999999914
                },
                {
                    "name": "C7",
                    "midi": 96,
                    "time": 191.371641000002,
                    "velocity": 0.5196850393700787,
                    "duration": 0.1130369999999914
                },
                {
                    "name": "G6",
                    "midi": 91,
                    "time": 191.484678000002,
                    "velocity": 0.6456692913385826,
                    "duration": 0.1130369999999914
                },
                {
                    "name": "C7",
                    "midi": 96,
                    "time": 191.59771500000198,
                    "velocity": 0.5669291338582677,
                    "duration": 0.1130369999999914
                },
                {
                    "name": "E7",
                    "midi": 100,
                    "time": 191.71075200000197,
                    "velocity": 0.6850393700787402,
                    "duration": 0.1130369999999914
                },
                {
                    "name": "D7",
                    "midi": 98,
                    "time": 191.82378900000197,
                    "velocity": 0.5433070866141733,
                    "duration": 0.1130369999999914
                },
                {
                    "name": "C7",
                    "midi": 96,
                    "time": 191.93682600000196,
                    "velocity": 0.6850393700787402,
                    "duration": 0.1130369999999914
                },
                {
                    "name": "B6",
                    "midi": 95,
                    "time": 192.04986300000195,
                    "velocity": 0.5748031496062992,
                    "duration": 0.1130369999999914
                },
                {
                    "name": "A6",
                    "midi": 93,
                    "time": 192.16290000000194,
                    "velocity": 0.5826771653543307,
                    "duration": 0.1130369999999914
                },
                {
                    "name": "G6",
                    "midi": 91,
                    "time": 192.27593700000193,
                    "velocity": 0.5748031496062992,
                    "duration": 0.1130369999999914
                },
                {
                    "name": "F6",
                    "midi": 89,
                    "time": 192.38897400000192,
                    "velocity": 0.5669291338582677,
                    "duration": 0.1130369999999914
                },
                {
                    "name": "E6",
                    "midi": 88,
                    "time": 192.50201100000191,
                    "velocity": 0.5433070866141733,
                    "duration": 0.1130369999999914
                },
                {
                    "name": "D6",
                    "midi": 86,
                    "time": 192.6150480000019,
                    "velocity": 0.5275590551181102,
                    "duration": 0.1130369999999914
                },
                {
                    "name": "C6",
                    "midi": 84,
                    "time": 192.7280850000019,
                    "velocity": 0.5196850393700787,
                    "duration": 0.1130369999999914
                },
                {
                    "name": "B5",
                    "midi": 83,
                    "time": 192.8411220000019,
                    "velocity": 0.5039370078740157,
                    "duration": 0.1130369999999914
                },
                {
                    "name": "A5",
                    "midi": 81,
                    "time": 192.95415900000188,
                    "velocity": 0.4881889763779528,
                    "duration": 0.1130369999999914
                },
                {
                    "name": "G5",
                    "midi": 79,
                    "time": 193.06719600000187,
                    "velocity": 0.47244094488188976,
                    "duration": 0.07629997500001195
                },
                {
                    "name": "F5",
                    "midi": 77,
                    "time": 193.14349597500188,
                    "velocity": 0.4566929133858268,
                    "duration": 0.07535799999999426
                },
                {
                    "name": "E5",
                    "midi": 76,
                    "time": 193.2179120000019,
                    "velocity": 0.44881889763779526,
                    "duration": 0.07535799999999426
                },
                {
                    "name": "D5",
                    "midi": 74,
                    "time": 193.29327000000188,
                    "velocity": 0.4251968503937008,
                    "duration": 0.1130369999999914
                },
                {
                    "name": "C5",
                    "midi": 72,
                    "time": 193.40630700000187,
                    "velocity": 0.4094488188976378,
                    "duration": 0.1130369999999914
                },
                {
                    "name": "B4",
                    "midi": 71,
                    "time": 193.51934400000187,
                    "velocity": 0.4015748031496063,
                    "duration": 0.1130369999999914
                },
                {
                    "name": "A4",
                    "midi": 69,
                    "time": 193.63238100000186,
                    "velocity": 0.4015748031496063,
                    "duration": 0.1130369999999914
                },
                {
                    "name": "G4",
                    "midi": 67,
                    "time": 193.74541800000185,
                    "velocity": 0.3779527559055118,
                    "duration": 0.2260740000000112
                },
                {
                    "name": "G#6",
                    "midi": 92,
                    "time": 193.97149200000186,
                    "velocity": 0.5984251968503937,
                    "duration": 0.1130369999999914
                },
                {
                    "name": "C7",
                    "midi": 96,
                    "time": 194.08452900000185,
                    "velocity": 0.5196850393700787,
                    "duration": 0.1130369999999914
                },
                {
                    "name": "G#6",
                    "midi": 92,
                    "time": 194.19756600000184,
                    "velocity": 0.5590551181102362,
                    "duration": 0.1130369999999914
                },
                {
                    "name": "C7",
                    "midi": 96,
                    "time": 194.31060300000183,
                    "velocity": 0.5354330708661418,
                    "duration": 0.1130369999999914
                },
                {
                    "name": "D#7",
                    "midi": 99,
                    "time": 194.42364000000183,
                    "velocity": 0.6062992125984252,
                    "duration": 0.1130369999999914
                },
                {
                    "name": "C#7",
                    "midi": 97,
                    "time": 194.53667700000182,
                    "velocity": 0.5433070866141733,
                    "duration": 0.1130369999999914
                },
                {
                    "name": "C7",
                    "midi": 96,
                    "time": 194.6497140000018,
                    "velocity": 0.6456692913385826,
                    "duration": 0.1130369999999914
                },
                {
                    "name": "A#6",
                    "midi": 94,
                    "time": 194.7627510000018,
                    "velocity": 0.5590551181102362,
                    "duration": 0.1130369999999914
                },
                {
                    "name": "G#6",
                    "midi": 92,
                    "time": 194.8757880000018,
                    "velocity": 0.6299212598425197,
                    "duration": 0.1130369999999914
                },
                {
                    "name": "G6",
                    "midi": 91,
                    "time": 194.98882500000178,
                    "velocity": 0.6141732283464567,
                    "duration": 0.1130369999999914
                },
                {
                    "name": "F6",
                    "midi": 89,
                    "time": 195.10186200000177,
                    "velocity": 0.6062992125984252,
                    "duration": 0.1130369999999914
                },
                {
                    "name": "D#6",
                    "midi": 87,
                    "time": 195.21489900000176,
                    "velocity": 0.5905511811023622,
                    "duration": 0.1130369999999914
                },
                {
                    "name": "C#6",
                    "midi": 85,
                    "time": 195.32793600000176,
                    "velocity": 0.5826771653543307,
                    "duration": 0.1130369999999914
                },
                {
                    "name": "C6",
                    "midi": 84,
                    "time": 195.44097300000175,
                    "velocity": 0.5669291338582677,
                    "duration": 0.1130369999999914
                },
                {
                    "name": "A#5",
                    "midi": 82,
                    "time": 195.55401000000174,
                    "velocity": 0.5511811023622047,
                    "duration": 0.1130369999999914
                },
                {
                    "name": "G#5",
                    "midi": 80,
                    "time": 195.66704700000173,
                    "velocity": 0.5433070866141733,
                    "duration": 0.1130369999999914
                },
                {
                    "name": "G5",
                    "midi": 79,
                    "time": 195.78008400000172,
                    "velocity": 0.5275590551181102,
                    "duration": 0.1130369999999914
                },
                {
                    "name": "F5",
                    "midi": 77,
                    "time": 195.8931210000017,
                    "velocity": 0.5196850393700787,
                    "duration": 0.1130369999999914
                },
                {
                    "name": "D#5",
                    "midi": 75,
                    "time": 196.0061580000017,
                    "velocity": 0.5039370078740157,
                    "duration": 0.07535799999999426
                },
                {
                    "name": "C#5",
                    "midi": 73,
                    "time": 196.0815160000017,
                    "velocity": 0.48031496062992124,
                    "duration": 0.07535799999999426
                },
                {
                    "name": "C5",
                    "midi": 72,
                    "time": 196.1568740000017,
                    "velocity": 0.49606299212598426,
                    "duration": 0.07535799999999426
                },
                {
                    "name": "A#4",
                    "midi": 70,
                    "time": 196.2322320000017,
                    "velocity": 0.5118110236220472,
                    "duration": 0.07629997500001195
                },
                {
                    "name": "G#4",
                    "midi": 68,
                    "time": 196.3085319750017,
                    "velocity": 0.5196850393700787,
                    "duration": 0.07535799999999426
                },
                {
                    "name": "G4",
                    "midi": 67,
                    "time": 196.3829480000017,
                    "velocity": 0.5354330708661418,
                    "duration": 0.07535799999999426
                },
                {
                    "name": "F4",
                    "midi": 65,
                    "time": 196.4583060000017,
                    "velocity": 0.5433070866141733,
                    "duration": 0.04521479999999656
                },
                {
                    "name": "D#4",
                    "midi": 63,
                    "time": 196.5035208000017,
                    "velocity": 0.5511811023622047,
                    "duration": 0.04521479999999656
                },
                {
                    "name": "C#4",
                    "midi": 61,
                    "time": 196.5487356000017,
                    "velocity": 0.5590551181102362,
                    "duration": 0.04521479999999656
                },
                {
                    "name": "C4",
                    "midi": 60,
                    "time": 196.5939504000017,
                    "velocity": 0.5669291338582677,
                    "duration": 0.04521479999999656
                },
                {
                    "name": "A#3",
                    "midi": 58,
                    "time": 196.63916520000168,
                    "velocity": 0.5748031496062992,
                    "duration": 0.04521479999999656
                },
                {
                    "name": "G#3",
                    "midi": 56,
                    "time": 196.68438000000168,
                    "velocity": 0.7086614173228346,
                    "duration": 0.2260740000000112
                },
                {
                    "name": "G#4",
                    "midi": 68,
                    "time": 196.9104540000017,
                    "velocity": 0.6062992125984252,
                    "duration": 0.12434070000000474
                },
                {
                    "name": "C5",
                    "midi": 72,
                    "time": 197.02349100000168,
                    "velocity": 0.5354330708661418,
                    "duration": 0.12434070000003317
                },
                {
                    "name": "D#5",
                    "midi": 75,
                    "time": 197.1365280000017,
                    "velocity": 0.6062992125984252,
                    "duration": 0.12434070000003317
                },
                {
                    "name": "C#5",
                    "midi": 73,
                    "time": 197.24956500000172,
                    "velocity": 0.5826771653543307,
                    "duration": 0.12434070000003317
                },
                {
                    "name": "C5",
                    "midi": 72,
                    "time": 197.36260200000174,
                    "velocity": 0.5826771653543307,
                    "duration": 0.12434070000003317
                },
                {
                    "name": "A#4",
                    "midi": 70,
                    "time": 197.47563900000176,
                    "velocity": 0.5748031496062992,
                    "duration": 0.12434070000003317
                },
                {
                    "name": "G#4",
                    "midi": 68,
                    "time": 197.58867600000178,
                    "velocity": 0.5669291338582677,
                    "duration": 0.12434070000003317
                },
                {
                    "name": "G4",
                    "midi": 67,
                    "time": 197.7017130000018,
                    "velocity": 0.5590551181102362,
                    "duration": 0.12434070000003317
                },
                {
                    "name": "F4",
                    "midi": 65,
                    "time": 197.81475000000182,
                    "velocity": 0.5511811023622047,
                    "duration": 0.12434070000003317
                },
                {
                    "name": "D#4",
                    "midi": 63,
                    "time": 197.92778700000184,
                    "velocity": 0.5433070866141733,
                    "duration": 0.12434070000003317
                },
                {
                    "name": "C#4",
                    "midi": 61,
                    "time": 198.04082400000186,
                    "velocity": 0.5354330708661418,
                    "duration": 0.12434070000003317
                },
                {
                    "name": "C4",
                    "midi": 60,
                    "time": 198.15386100000188,
                    "velocity": 0.5275590551181102,
                    "duration": 0.12434070000003317
                },
                {
                    "name": "A#3",
                    "midi": 58,
                    "time": 198.2668980000019,
                    "velocity": 0.5196850393700787,
                    "duration": 0.12434070000003317
                },
                {
                    "name": "G#3",
                    "midi": 56,
                    "time": 198.37993500000192,
                    "velocity": 0.5039370078740157,
                    "duration": 0.12434070000003317
                },
                {
                    "name": "G3",
                    "midi": 55,
                    "time": 198.49297200000194,
                    "velocity": 0.49606299212598426,
                    "duration": 0.12434070000003317
                },
                {
                    "name": "F3",
                    "midi": 53,
                    "time": 198.60600900000196,
                    "velocity": 0.4881889763779528,
                    "duration": 0.12434070000003317
                },
                {
                    "name": "D#3",
                    "midi": 51,
                    "time": 198.71904600000198,
                    "velocity": 0.48031496062992124,
                    "duration": 0.12434070000003317
                },
                {
                    "name": "F3",
                    "midi": 53,
                    "time": 198.832083000002,
                    "velocity": 0.5118110236220472,
                    "duration": 0.12434070000003317
                },
                {
                    "name": "D#3",
                    "midi": 51,
                    "time": 198.94512000000202,
                    "velocity": 0.5275590551181102,
                    "duration": 0.12434070000003317
                },
                {
                    "name": "C#3",
                    "midi": 49,
                    "time": 199.05815700000204,
                    "velocity": 0.5433070866141733,
                    "duration": 0.12434070000003317
                },
                {
                    "name": "C3",
                    "midi": 48,
                    "time": 199.17119400000206,
                    "velocity": 0.5590551181102362,
                    "duration": 0.12434070000003317
                },
                {
                    "name": "A#2",
                    "midi": 46,
                    "time": 199.28423100000208,
                    "velocity": 0.5748031496062992,
                    "duration": 0.12434070000003317
                },
                {
                    "name": "G#2",
                    "midi": 44,
                    "time": 199.3972680000021,
                    "velocity": 0.6141732283464567,
                    "duration": 0.11303700000001982
                },
                {
                    "name": "C3",
                    "midi": 48,
                    "time": 199.51030500000212,
                    "velocity": 0.5275590551181102,
                    "duration": 0.1130369999999914
                },
                {
                    "name": "G#2",
                    "midi": 44,
                    "time": 199.6233420000021,
                    "velocity": 0.6141732283464567,
                    "duration": 0.1130369999999914
                },
                {
                    "name": "C3",
                    "midi": 48,
                    "time": 199.7363790000021,
                    "velocity": 0.5118110236220472,
                    "duration": 0.1130369999999914
                },
                {
                    "name": "D#3",
                    "midi": 51,
                    "time": 199.8494160000021,
                    "velocity": 0.5748031496062992,
                    "duration": 0.1130369999999914
                },
                {
                    "name": "G#2",
                    "midi": 44,
                    "time": 200.07549000000208,
                    "velocity": 0.6141732283464567,
                    "duration": 0.1130369999999914
                },
                {
                    "name": "C3",
                    "midi": 48,
                    "time": 200.18852700000207,
                    "velocity": 0.5275590551181102,
                    "duration": 0.1130369999999914
                },
                {
                    "name": "G#2",
                    "midi": 44,
                    "time": 200.30156400000206,
                    "velocity": 0.6141732283464567,
                    "duration": 0.1130369999999914
                },
                {
                    "name": "C3",
                    "midi": 48,
                    "time": 200.41460100000205,
                    "velocity": 0.5118110236220472,
                    "duration": 0.1130369999999914
                },
                {
                    "name": "D#3",
                    "midi": 51,
                    "time": 200.52763800000204,
                    "velocity": 0.5748031496062992,
                    "duration": 0.1130369999999914
                },
                {
                    "name": "G#2",
                    "midi": 44,
                    "time": 200.75371200000203,
                    "velocity": 0.6141732283464567,
                    "duration": 0.1130369999999914
                },
                {
                    "name": "C3",
                    "midi": 48,
                    "time": 200.86674900000202,
                    "velocity": 0.5275590551181102,
                    "duration": 0.1130369999999914
                },
                {
                    "name": "G#2",
                    "midi": 44,
                    "time": 200.979786000002,
                    "velocity": 0.6141732283464567,
                    "duration": 0.1130369999999914
                },
                {
                    "name": "C3",
                    "midi": 48,
                    "time": 201.092823000002,
                    "velocity": 0.5118110236220472,
                    "duration": 0.1130369999999914
                },
                {
                    "name": "D#3",
                    "midi": 51,
                    "time": 201.205860000002,
                    "velocity": 0.5748031496062992,
                    "duration": 0.1130369999999914
                },
                {
                    "name": "G#2",
                    "midi": 44,
                    "time": 201.43193400000197,
                    "velocity": 0.6141732283464567,
                    "duration": 0.1130369999999914
                },
                {
                    "name": "C3",
                    "midi": 48,
                    "time": 201.54497100000196,
                    "velocity": 0.5275590551181102,
                    "duration": 0.1130369999999914
                },
                {
                    "name": "G#2",
                    "midi": 44,
                    "time": 201.65800800000196,
                    "velocity": 0.6141732283464567,
                    "duration": 0.1130369999999914
                },
                {
                    "name": "C3",
                    "midi": 48,
                    "time": 201.77104500000195,
                    "velocity": 0.5118110236220472,
                    "duration": 0.1130369999999914
                },
                {
                    "name": "D#3",
                    "midi": 51,
                    "time": 201.88408200000194,
                    "velocity": 0.5748031496062992,
                    "duration": 0.1130369999999914
                },
                {
                    "name": "G#2",
                    "midi": 44,
                    "time": 202.11015600000192,
                    "velocity": 0.5511811023622047,
                    "duration": 0.1130369999999914
                },
                {
                    "name": "C3",
                    "midi": 48,
                    "time": 202.2231930000019,
                    "velocity": 0.4645669291338583,
                    "duration": 0.1130369999999914
                },
                {
                    "name": "G#2",
                    "midi": 44,
                    "time": 202.3362300000019,
                    "velocity": 0.5275590551181102,
                    "duration": 0.1130369999999914
                },
                {
                    "name": "C3",
                    "midi": 48,
                    "time": 202.4492670000019,
                    "velocity": 0.4330708661417323,
                    "duration": 0.1130369999999914
                },
                {
                    "name": "D#3",
                    "midi": 51,
                    "time": 202.5623040000019,
                    "velocity": 0.48031496062992124,
                    "duration": 0.1130369999999914
                },
                {
                    "name": "C3",
                    "midi": 48,
                    "time": 202.78837800000187,
                    "velocity": 0.4881889763779528,
                    "duration": 0.1130369999999914
                },
                {
                    "name": "D#3",
                    "midi": 51,
                    "time": 202.90141500000186,
                    "velocity": 0.4094488188976378,
                    "duration": 0.1130369999999914
                },
                {
                    "name": "C3",
                    "midi": 48,
                    "time": 203.01445200000185,
                    "velocity": 0.47244094488188976,
                    "duration": 0.1130369999999914
                },
                {
                    "name": "D#3",
                    "midi": 51,
                    "time": 203.12748900000184,
                    "velocity": 0.3779527559055118,
                    "duration": 0.1130369999999914
                },
                {
                    "name": "G#3",
                    "midi": 56,
                    "time": 203.24052600000184,
                    "velocity": 0.4251968503937008,
                    "duration": 0.1130369999999914
                },
                {
                    "name": "D#3",
                    "midi": 51,
                    "time": 203.46660000000182,
                    "velocity": 0.4251968503937008,
                    "duration": 0.1130369999999914
                },
                {
                    "name": "G#3",
                    "midi": 56,
                    "time": 203.5796370000018,
                    "velocity": 0.36220472440944884,
                    "duration": 0.1130369999999914
                },
                {
                    "name": "D#3",
                    "midi": 51,
                    "time": 203.6926740000018,
                    "velocity": 0.4094488188976378,
                    "duration": 0.1130369999999914
                },
                {
                    "name": "G#3",
                    "midi": 56,
                    "time": 203.8057110000018,
                    "velocity": 0.33070866141732286,
                    "duration": 0.1130369999999914
                },
                {
                    "name": "C4",
                    "midi": 60,
                    "time": 203.91874800000178,
                    "velocity": 0.36220472440944884,
                    "duration": 0.1130369999999914
                },
                {
                    "name": "G#3",
                    "midi": 56,
                    "time": 204.14482200000177,
                    "velocity": 0.36220472440944884,
                    "duration": 0.1130369999999914
                },
                {
                    "name": "C4",
                    "midi": 60,
                    "time": 204.25785900000176,
                    "velocity": 0.30708661417322836,
                    "duration": 0.1130369999999914
                },
                {
                    "name": "G#3",
                    "midi": 56,
                    "time": 204.37089600000175,
                    "velocity": 0.3464566929133858,
                    "duration": 0.1130369999999914
                },
                {
                    "name": "C4",
                    "midi": 60,
                    "time": 204.48393300000174,
                    "velocity": 0.2755905511811024,
                    "duration": 0.1130369999999914
                },
                {
                    "name": "D#4",
                    "midi": 63,
                    "time": 204.59697000000173,
                    "velocity": 0.30708661417322836,
                    "duration": 0.1130369999999914
                },
                {
                    "name": "G#3",
                    "midi": 56,
                    "time": 204.82304400000172,
                    "velocity": 0.36220472440944884,
                    "duration": 0.1130369999999914
                },
                {
                    "name": "C4",
                    "midi": 60,
                    "time": 204.9360810000017,
                    "velocity": 0.30708661417322836,
                    "duration": 0.1130369999999914
                },
                {
                    "name": "G#3",
                    "midi": 56,
                    "time": 205.0491180000017,
                    "velocity": 0.36220472440944884,
                    "duration": 0.1130369999999914
                },
                {
                    "name": "C4",
                    "midi": 60,
                    "time": 205.1621550000017,
                    "velocity": 0.30708661417322836,
                    "duration": 0.1130369999999914
                },
                {
                    "name": "D#4",
                    "midi": 63,
                    "time": 205.27519200000168,
                    "velocity": 0.36220472440944884,
                    "duration": 0.1130369999999914
                },
                {
                    "name": "C#4",
                    "midi": 61,
                    "time": 205.38822900000167,
                    "velocity": 0.36220472440944884,
                    "duration": 0.1130369999999914
                },
                {
                    "name": "C4",
                    "midi": 60,
                    "time": 205.50126600000166,
                    "velocity": 0.33070866141732286,
                    "duration": 0.12434070000000474
                },
                {
                    "name": "C4",
                    "midi": 60,
                    "time": 207.76200600000166,
                    "velocity": 0.3700787401574803,
                    "duration": 0.12434070000000474
                },
                {
                    "name": "C#4",
                    "midi": 61,
                    "time": 207.87504300000165,
                    "velocity": 0.3937007874015748,
                    "duration": 0.12434070000003317
                },
                {
                    "name": "D#4",
                    "midi": 63,
                    "time": 207.98808000000167,
                    "velocity": 0.4094488188976378,
                    "duration": 0.12434070000003317
                },
                {
                    "name": "E4",
                    "midi": 64,
                    "time": 208.1011170000017,
                    "velocity": 0.4330708661417323,
                    "duration": 0.10361725000001343
                },
                {
                    "name": "A#3",
                    "midi": 58,
                    "time": 208.2141540000017,
                    "velocity": 0.4566929133858268,
                    "duration": 2.7128879999999924
                },
                {
                    "name": "C#4",
                    "midi": 61,
                    "time": 208.2141540000017,
                    "velocity": 0.4566929133858268,
                    "duration": 2.7128879999999924
                },
                {
                    "name": "E4",
                    "midi": 64,
                    "time": 208.2141540000017,
                    "velocity": 0.4566929133858268,
                    "duration": 2.7128879999999924
                },
                {
                    "name": "G#4",
                    "midi": 68,
                    "time": 211.6052640000017,
                    "velocity": 0.36220472440944884,
                    "duration": 0.1130369999999914
                },
                {
                    "name": "C5",
                    "midi": 72,
                    "time": 211.7183010000017,
                    "velocity": 0.30708661417322836,
                    "duration": 0.1130369999999914
                },
                {
                    "name": "G#4",
                    "midi": 68,
                    "time": 211.8313380000017,
                    "velocity": 0.36220472440944884,
                    "duration": 0.1130369999999914
                },
                {
                    "name": "C5",
                    "midi": 72,
                    "time": 211.94437500000168,
                    "velocity": 0.30708661417322836,
                    "duration": 0.1130369999999914
                },
                {
                    "name": "D#5",
                    "midi": 75,
                    "time": 212.05741200000168,
                    "velocity": 0.36220472440944884,
                    "duration": 0.1130369999999914
                },
                {
                    "name": "C#5",
                    "midi": 73,
                    "time": 212.17044900000167,
                    "velocity": 0.33858267716535434,
                    "duration": 0.1130369999999914
                },
                {
                    "name": "C5",
                    "midi": 72,
                    "time": 212.28348600000166,
                    "velocity": 0.3543307086614173,
                    "duration": 0.12434070000000474
                },
                {
                    "name": "A#4",
                    "midi": 70,
                    "time": 212.39652300000165,
                    "velocity": 0.3543307086614173,
                    "duration": 0.11303700000001982
                },
                {
                    "name": "G#4",
                    "midi": 68,
                    "time": 212.50956000000167,
                    "velocity": 0.3464566929133858,
                    "duration": 0.1130369999999914
                },
                {
                    "name": "G4",
                    "midi": 67,
                    "time": 212.62259700000166,
                    "velocity": 0.3464566929133858,
                    "duration": 0.1130369999999914
                },
                {
                    "name": "F4",
                    "midi": 65,
                    "time": 212.73563400000165,
                    "velocity": 0.33858267716535434,
                    "duration": 0.1130369999999914
                },
                {
                    "name": "D#4",
                    "midi": 63,
                    "time": 212.84867100000164,
                    "velocity": 0.33070866141732286,
                    "duration": 0.1130369999999914
                },
                {
                    "name": "C#4",
                    "midi": 61,
                    "time": 212.96170800000164,
                    "velocity": 0.33070866141732286,
                    "duration": 0.1130369999999914
                },
                {
                    "name": "C4",
                    "midi": 60,
                    "time": 213.07474500000163,
                    "velocity": 0.3228346456692913,
                    "duration": 0.1130369999999914
                },
                {
                    "name": "A#3",
                    "midi": 58,
                    "time": 213.18778200000162,
                    "velocity": 0.3228346456692913,
                    "duration": 0.1130369999999914
                },
                {
                    "name": "G#3",
                    "midi": 56,
                    "time": 213.3008190000016,
                    "velocity": 0.31496062992125984,
                    "duration": 0.1130369999999914
                },
                {
                    "name": "G3",
                    "midi": 55,
                    "time": 213.4138560000016,
                    "velocity": 0.31496062992125984,
                    "duration": 0.1130369999999914
                },
                {
                    "name": "G#3",
                    "midi": 56,
                    "time": 213.5268930000016,
                    "velocity": 0.31496062992125984,
                    "duration": 0.1130369999999914
                },
                {
                    "name": "A#3",
                    "midi": 58,
                    "time": 213.63993000000158,
                    "velocity": 0.3228346456692913,
                    "duration": 0.1130369999999914
                },
                {
                    "name": "C4",
                    "midi": 60,
                    "time": 213.75296700000158,
                    "velocity": 0.3228346456692913,
                    "duration": 0.1130369999999914
                },
                {
                    "name": "C#4",
                    "midi": 61,
                    "time": 213.86600400000157,
                    "velocity": 0.33070866141732286,
                    "duration": 0.1130369999999914
                },
                {
                    "name": "D#4",
                    "midi": 63,
                    "time": 213.97904100000156,
                    "velocity": 0.33070866141732286,
                    "duration": 0.1130369999999914
                },
                {
                    "name": "F4",
                    "midi": 65,
                    "time": 214.09207800000155,
                    "velocity": 0.33858267716535434,
                    "duration": 0.1130369999999914
                },
                {
                    "name": "G4",
                    "midi": 67,
                    "time": 214.20511500000154,
                    "velocity": 0.3464566929133858,
                    "duration": 0.1130369999999914
                },
                {
                    "name": "G#4",
                    "midi": 68,
                    "time": 214.31815200000153,
                    "velocity": 0.3464566929133858,
                    "duration": 0.1130369999999914
                },
                {
                    "name": "A#4",
                    "midi": 70,
                    "time": 214.43118900000152,
                    "velocity": 0.3700787401574803,
                    "duration": 0.1130369999999914
                },
                {
                    "name": "C5",
                    "midi": 72,
                    "time": 214.54422600000152,
                    "velocity": 0.3700787401574803,
                    "duration": 0.12434070000000474
                },
                {
                    "name": "C#5",
                    "midi": 73,
                    "time": 214.6572630000015,
                    "velocity": 0.3937007874015748,
                    "duration": 0.12434070000003317
                },
                {
                    "name": "D#5",
                    "midi": 75,
                    "time": 214.77030000000153,
                    "velocity": 0.4094488188976378,
                    "duration": 0.12434070000003317
                },
                {
                    "name": "E5",
                    "midi": 76,
                    "time": 214.88333700000155,
                    "velocity": 0.4330708661417323,
                    "duration": 0.11303700000001982
                },
                {
                    "name": "E5",
                    "midi": 76,
                    "time": 214.99637400000157,
                    "velocity": 0.4566929133858268,
                    "duration": 2.7128879999999924
                },
                {
                    "name": "A#4",
                    "midi": 70,
                    "time": 214.99637400000157,
                    "velocity": 0.4566929133858268,
                    "duration": 2.7128879999999924
                },
                {
                    "name": "C#5",
                    "midi": 73,
                    "time": 214.99637400000157,
                    "velocity": 0.4566929133858268,
                    "duration": 2.7128879999999924
                },
                {
                    "name": "G5",
                    "midi": 79,
                    "time": 218.38748400000156,
                    "velocity": 0.33070866141732286,
                    "duration": 0.1130369999999914
                },
                {
                    "name": "A#5",
                    "midi": 82,
                    "time": 218.50052100000156,
                    "velocity": 0.33858267716535434,
                    "duration": 0.1130369999999914
                },
                {
                    "name": "C#6",
                    "midi": 85,
                    "time": 218.61355800000155,
                    "velocity": 0.3543307086614173,
                    "duration": 0.1130369999999914
                },
                {
                    "name": "C6",
                    "midi": 84,
                    "time": 218.72659500000154,
                    "velocity": 0.36220472440944884,
                    "duration": 0.1130369999999914
                },
                {
                    "name": "A#5",
                    "midi": 82,
                    "time": 218.83963200000153,
                    "velocity": 0.3700787401574803,
                    "duration": 0.1130369999999914
                },
                {
                    "name": "G#5",
                    "midi": 80,
                    "time": 218.95266900000152,
                    "velocity": 0.36220472440944884,
                    "duration": 0.1130369999999914
                },
                {
                    "name": "G5",
                    "midi": 79,
                    "time": 219.0657060000015,
                    "velocity": 0.3543307086614173,
                    "duration": 0.1130369999999914
                },
                {
                    "name": "F5",
                    "midi": 77,
                    "time": 219.1787430000015,
                    "velocity": 0.3543307086614173,
                    "duration": 0.1130369999999914
                },
                {
                    "name": "E5",
                    "midi": 76,
                    "time": 219.2917800000015,
                    "velocity": 0.3464566929133858,
                    "duration": 0.1130369999999914
                },
                {
                    "name": "C#5",
                    "midi": 73,
                    "time": 219.4048170000015,
                    "velocity": 0.33858267716535434,
                    "duration": 0.1130369999999914
                },
                {
                    "name": "C5",
                    "midi": 72,
                    "time": 219.51785400000148,
                    "velocity": 0.33070866141732286,
                    "duration": 0.1130369999999914
                },
                {
                    "name": "C#5",
                    "midi": 73,
                    "time": 219.63089100000147,
                    "velocity": 0.3228346456692913,
                    "duration": 0.1130369999999914
                },
                {
                    "name": "E5",
                    "midi": 76,
                    "time": 219.74392800000146,
                    "velocity": 0.33858267716535434,
                    "duration": 0.1130369999999914
                },
                {
                    "name": "F5",
                    "midi": 77,
                    "time": 219.85696500000145,
                    "velocity": 0.3543307086614173,
                    "duration": 0.1130369999999914
                },
                {
                    "name": "G5",
                    "midi": 79,
                    "time": 219.97000200000144,
                    "velocity": 0.3700787401574803,
                    "duration": 0.1130369999999914
                },
                {
                    "name": "G#5",
                    "midi": 80,
                    "time": 220.08303900000143,
                    "velocity": 0.3779527559055118,
                    "duration": 0.1130369999999914
                },
                {
                    "name": "A#5",
                    "midi": 82,
                    "time": 220.19607600000143,
                    "velocity": 0.3858267716535433,
                    "duration": 0.1130369999999914
                },
                {
                    "name": "C6",
                    "midi": 84,
                    "time": 220.30911300000142,
                    "velocity": 0.3858267716535433,
                    "duration": 0.1130369999999914
                },
                {
                    "name": "C#6",
                    "midi": 85,
                    "time": 220.4221500000014,
                    "velocity": 0.41732283464566927,
                    "duration": 2.034665999999987
                },
                {
                    "name": "A#5",
                    "midi": 82,
                    "time": 220.4221500000014,
                    "velocity": 0.41732283464566927,
                    "duration": 2.034665999999987
                },
                {
                    "name": "G5",
                    "midi": 79,
                    "time": 220.4221500000014,
                    "velocity": 0.41732283464566927,
                    "duration": 2.034665999999987
                },
                {
                    "name": "E6",
                    "midi": 88,
                    "time": 223.1350380000014,
                    "velocity": 0.33070866141732286,
                    "duration": 0.1130369999999914
                },
                {
                    "name": "G6",
                    "midi": 91,
                    "time": 223.2480750000014,
                    "velocity": 0.33858267716535434,
                    "duration": 0.1130369999999914
                },
                {
                    "name": "A#6",
                    "midi": 94,
                    "time": 223.36111200000138,
                    "velocity": 0.3543307086614173,
                    "duration": 0.1130369999999914
                },
                {
                    "name": "G#6",
                    "midi": 92,
                    "time": 223.47414900000138,
                    "velocity": 0.36220472440944884,
                    "duration": 0.1130369999999914
                },
                {
                    "name": "G6",
                    "midi": 91,
                    "time": 223.58718600000137,
                    "velocity": 0.3700787401574803,
                    "duration": 0.1130369999999914
                },
                {
                    "name": "F6",
                    "midi": 89,
                    "time": 223.70022300000136,
                    "velocity": 0.36220472440944884,
                    "duration": 0.1130369999999914
                },
                {
                    "name": "E6",
                    "midi": 88,
                    "time": 223.81326000000135,
                    "velocity": 0.3543307086614173,
                    "duration": 0.1130369999999914
                },
                {
                    "name": "C#6",
                    "midi": 85,
                    "time": 223.92629700000134,
                    "velocity": 0.3543307086614173,
                    "duration": 0.1130369999999914
                },
                {
                    "name": "C6",
                    "midi": 84,
                    "time": 224.03933400000133,
                    "velocity": 0.3464566929133858,
                    "duration": 0.1130369999999914
                },
                {
                    "name": "A#5",
                    "midi": 82,
                    "time": 224.15237100000132,
                    "velocity": 0.33858267716535434,
                    "duration": 0.1130369999999914
                },
                {
                    "name": "A5",
                    "midi": 81,
                    "time": 224.26540800000132,
                    "velocity": 0.33070866141732286,
                    "duration": 0.1130369999999914
                },
                {
                    "name": "A#5",
                    "midi": 82,
                    "time": 224.3784450000013,
                    "velocity": 0.3228346456692913,
                    "duration": 0.1130369999999914
                },
                {
                    "name": "C6",
                    "midi": 84,
                    "time": 224.4914820000013,
                    "velocity": 0.33858267716535434,
                    "duration": 0.1130369999999914
                },
                {
                    "name": "C#6",
                    "midi": 85,
                    "time": 224.6045190000013,
                    "velocity": 0.3543307086614173,
                    "duration": 0.1130369999999914
                },
                {
                    "name": "E6",
                    "midi": 88,
                    "time": 224.71755600000128,
                    "velocity": 0.3700787401574803,
                    "duration": 0.1130369999999914
                },
                {
                    "name": "F6",
                    "midi": 89,
                    "time": 224.83059300000127,
                    "velocity": 0.3779527559055118,
                    "duration": 0.1130369999999914
                },
                {
                    "name": "G6",
                    "midi": 91,
                    "time": 224.94363000000126,
                    "velocity": 0.3858267716535433,
                    "duration": 0.1130369999999914
                },
                {
                    "name": "G#6",
                    "midi": 92,
                    "time": 225.05666700000126,
                    "velocity": 0.3858267716535433,
                    "duration": 0.1130369999999914
                },
                {
                    "name": "E6",
                    "midi": 88,
                    "time": 225.16970400000125,
                    "velocity": 0.41732283464566927,
                    "duration": 2.034665999999987
                },
                {
                    "name": "G6",
                    "midi": 91,
                    "time": 225.16970400000125,
                    "velocity": 0.41732283464566927,
                    "duration": 2.034665999999987
                },
                {
                    "name": "A#6",
                    "midi": 94,
                    "time": 225.16970400000125,
                    "velocity": 0.41732283464566927,
                    "duration": 2.034665999999987
                },
                {
                    "name": "F5",
                    "midi": 77,
                    "time": 227.88259200000124,
                    "velocity": 0.3779527559055118,
                    "duration": 2.034665999999987
                },
                {
                    "name": "G#5",
                    "midi": 80,
                    "time": 227.88259200000124,
                    "velocity": 0.3779527559055118,
                    "duration": 2.034665999999987
                },
                {
                    "name": "B5",
                    "midi": 83,
                    "time": 227.88259200000124,
                    "velocity": 0.3779527559055118,
                    "duration": 2.034665999999987
                },
                {
                    "name": "C5",
                    "midi": 72,
                    "time": 230.59548000000123,
                    "velocity": 0.2992125984251969,
                    "duration": 2.034665999999987
                },
                {
                    "name": "G4",
                    "midi": 67,
                    "time": 230.59548000000123,
                    "velocity": 0.2992125984251969,
                    "duration": 2.034665999999987
                },
                {
                    "name": "E4",
                    "midi": 64,
                    "time": 230.59548000000123,
                    "velocity": 0.2992125984251969,
                    "duration": 2.034665999999987
                },
                {
                    "name": "C5",
                    "midi": 72,
                    "time": 232.63014600000122,
                    "velocity": 0.4015748031496063,
                    "duration": 0.05651850000000991
                },
                {
                    "name": "C4",
                    "midi": 60,
                    "time": 232.85622000000123,
                    "velocity": 0.33858267716535434,
                    "duration": 0.05651850000000991
                },
                {
                    "name": "C5",
                    "midi": 72,
                    "time": 233.08229400000124,
                    "velocity": 0.4015748031496063,
                    "duration": 0.05651850000000991
                },
                {
                    "name": "C4",
                    "midi": 60,
                    "time": 233.30836800000125,
                    "velocity": 0.3464566929133858,
                    "duration": 0.05651850000000991
                },
                {
                    "name": "C5",
                    "midi": 72,
                    "time": 233.53444200000126,
                    "velocity": 0.4015748031496063,
                    "duration": 0.05651850000000991
                },
                {
                    "name": "C4",
                    "midi": 60,
                    "time": 233.76051600000127,
                    "velocity": 0.33070866141732286,
                    "duration": 0.05651850000000991
                },
                {
                    "name": "C#5",
                    "midi": 73,
                    "time": 235.3430340000013,
                    "velocity": 0.31496062992125984,
                    "duration": 0.05651850000000991
                },
                {
                    "name": "C5",
                    "midi": 72,
                    "time": 235.3995525000013,
                    "velocity": 0.4015748031496063,
                    "duration": 0.05651850000000991
                },
                {
                    "name": "C5",
                    "midi": 72,
                    "time": 235.5691080000013,
                    "velocity": 0.3543307086614173,
                    "duration": 0.1130369999999914
                },
                {
                    "name": "C#5",
                    "midi": 73,
                    "time": 235.6821450000013,
                    "velocity": 0.30708661417322836,
                    "duration": 0.1130369999999914
                },
                {
                    "name": "C5",
                    "midi": 72,
                    "time": 235.7951820000013,
                    "velocity": 0.36220472440944884,
                    "duration": 0.05651850000000991
                },
                {
                    "name": "C5",
                    "midi": 72,
                    "time": 236.0212560000013,
                    "velocity": 0.3858267716535433,
                    "duration": 0.05651850000000991
                },
                {
                    "name": "C5",
                    "midi": 72,
                    "time": 236.2473300000013,
                    "velocity": 0.3464566929133858,
                    "duration": 0.05651850000000991
                },
                {
                    "name": "C5",
                    "midi": 72,
                    "time": 236.47340400000132,
                    "velocity": 0.33070866141732286,
                    "duration": 0.05651850000000991
                },
                {
                    "name": "C#5",
                    "midi": 73,
                    "time": 236.69947800000133,
                    "velocity": 0.31496062992125984,
                    "duration": 0.05651850000000991
                },
                {
                    "name": "C5",
                    "midi": 72,
                    "time": 236.75599650000134,
                    "velocity": 0.4015748031496063,
                    "duration": 0.05651850000000991
                },
                {
                    "name": "C5",
                    "midi": 72,
                    "time": 236.92555200000135,
                    "velocity": 0.3543307086614173,
                    "duration": 0.1130369999999914
                },
                {
                    "name": "C#5",
                    "midi": 73,
                    "time": 237.03858900000134,
                    "velocity": 0.30708661417322836,
                    "duration": 0.1130369999999914
                },
                {
                    "name": "C5",
                    "midi": 72,
                    "time": 237.15162600000133,
                    "velocity": 0.36220472440944884,
                    "duration": 0.05651850000000991
                },
                {
                    "name": "C5",
                    "midi": 72,
                    "time": 237.37770000000134,
                    "velocity": 0.3858267716535433,
                    "duration": 0.05651850000000991
                },
                {
                    "name": "C5",
                    "midi": 72,
                    "time": 237.60377400000135,
                    "velocity": 0.3464566929133858,
                    "duration": 0.05651850000000991
                },
                {
                    "name": "C5",
                    "midi": 72,
                    "time": 237.82984800000136,
                    "velocity": 0.33070866141732286,
                    "duration": 0.05651850000000991
                },
                {
                    "name": "C#5",
                    "midi": 73,
                    "time": 238.05592200000137,
                    "velocity": 0.31496062992125984,
                    "duration": 0.05651850000000991
                },
                {
                    "name": "C5",
                    "midi": 72,
                    "time": 238.11244050000138,
                    "velocity": 0.4015748031496063,
                    "duration": 0.05651850000000991
                },
                {
                    "name": "C5",
                    "midi": 72,
                    "time": 238.28199600000139,
                    "velocity": 0.3543307086614173,
                    "duration": 0.1130369999999914
                },
                {
                    "name": "C#5",
                    "midi": 73,
                    "time": 238.39503300000138,
                    "velocity": 0.30708661417322836,
                    "duration": 0.1130369999999914
                },
                {
                    "name": "C5",
                    "midi": 72,
                    "time": 238.50807000000137,
                    "velocity": 0.36220472440944884,
                    "duration": 0.05651850000000991
                },
                {
                    "name": "C#5",
                    "midi": 73,
                    "time": 238.73414400000138,
                    "velocity": 0.31496062992125984,
                    "duration": 0.05651850000000991
                },
                {
                    "name": "C5",
                    "midi": 72,
                    "time": 238.7906625000014,
                    "velocity": 0.4015748031496063,
                    "duration": 0.05651850000000991
                },
                {
                    "name": "C5",
                    "midi": 72,
                    "time": 238.9602180000014,
                    "velocity": 0.3543307086614173,
                    "duration": 0.1130369999999914
                },
                {
                    "name": "C#5",
                    "midi": 73,
                    "time": 239.07325500000138,
                    "velocity": 0.30708661417322836,
                    "duration": 0.1130369999999914
                },
                {
                    "name": "C5",
                    "midi": 72,
                    "time": 239.18629200000137,
                    "velocity": 0.36220472440944884,
                    "duration": 0.05651850000000991
                },
                {
                    "name": "C5",
                    "midi": 72,
                    "time": 239.41236600000138,
                    "velocity": 0.4015748031496063,
                    "duration": 0.05651850000000991
                },
                {
                    "name": "C5",
                    "midi": 72,
                    "time": 239.6384400000014,
                    "velocity": 0.4094488188976378,
                    "duration": 0.05651850000000991
                },
                {
                    "name": "C5",
                    "midi": 72,
                    "time": 239.8645140000014,
                    "velocity": 0.4251968503937008,
                    "duration": 0.05651850000000991
                },
                {
                    "name": "C5",
                    "midi": 72,
                    "time": 240.09058800000142,
                    "velocity": 0.4409448818897638,
                    "duration": 0.05651850000000991
                },
                {
                    "name": "C5",
                    "midi": 72,
                    "time": 240.31666200000143,
                    "velocity": 0.4409448818897638,
                    "duration": 0.05651850000000991
                },
                {
                    "name": "C5",
                    "midi": 72,
                    "time": 240.54273600000144,
                    "velocity": 0.41732283464566927,
                    "duration": 0.05651850000000991
                },
                {
                    "name": "C#5",
                    "midi": 73,
                    "time": 240.76881000000145,
                    "velocity": 0.31496062992125984,
                    "duration": 0.05651850000000991
                },
                {
                    "name": "C5",
                    "midi": 72,
                    "time": 240.82532850000146,
                    "velocity": 0.4015748031496063,
                    "duration": 0.05651850000000991
                },
                {
                    "name": "C5",
                    "midi": 72,
                    "time": 240.99488400000146,
                    "velocity": 0.3543307086614173,
                    "duration": 0.1130369999999914
                },
                {
                    "name": "C#5",
                    "midi": 73,
                    "time": 241.10792100000145,
                    "velocity": 0.30708661417322836,
                    "duration": 0.1130369999999914
                },
                {
                    "name": "C5",
                    "midi": 72,
                    "time": 241.22095800000145,
                    "velocity": 0.36220472440944884,
                    "duration": 0.05651850000000991
                },
                {
                    "name": "C#5",
                    "midi": 73,
                    "time": 241.44703200000146,
                    "velocity": 0.31496062992125984,
                    "duration": 0.05651850000000991
                },
                {
                    "name": "C5",
                    "midi": 72,
                    "time": 241.50355050000147,
                    "velocity": 0.3858267716535433,
                    "duration": 0.05651850000000991
                },
                {
                    "name": "C5",
                    "midi": 72,
                    "time": 241.67310600000147,
                    "velocity": 0.3464566929133858,
                    "duration": 0.1130369999999914
                },
                {
                    "name": "C#5",
                    "midi": 73,
                    "time": 241.78614300000146,
                    "velocity": 0.28346456692913385,
                    "duration": 0.1130369999999914
                },
                {
                    "name": "C5",
                    "midi": 72,
                    "time": 241.89918000000145,
                    "velocity": 0.33070866141732286,
                    "duration": 0.05651850000000991
                },
                {
                    "name": "C5",
                    "midi": 72,
                    "time": 242.12525400000146,
                    "velocity": 0.31496062992125984,
                    "duration": 0.1130369999999914
                },
                {
                    "name": "B4",
                    "midi": 71,
                    "time": 242.23829100000145,
                    "velocity": 0.4094488188976378,
                    "duration": 0.10361725000001343
                },
                {
                    "name": "B4",
                    "midi": 71,
                    "time": 242.35132800000147,
                    "velocity": 0.3700787401574803,
                    "duration": 0.1130369999999914
                },
                {
                    "name": "D5",
                    "midi": 74,
                    "time": 242.46436500000146,
                    "velocity": 0.31496062992125984,
                    "duration": 0.1130369999999914
                },
                {
                    "name": "C5",
                    "midi": 72,
                    "time": 242.57740200000146,
                    "velocity": 0.3543307086614173,
                    "duration": 0.1130369999999914
                },
                {
                    "name": "B4",
                    "midi": 71,
                    "time": 242.69043900000145,
                    "velocity": 0.28346456692913385,
                    "duration": 0.1130369999999914
                },
                {
                    "name": "C5",
                    "midi": 72,
                    "time": 242.80347600000144,
                    "velocity": 0.36220472440944884,
                    "duration": 0.05651850000000991
                },
                {
                    "name": "G4",
                    "midi": 67,
                    "time": 243.02955000000145,
                    "velocity": 0.30708661417322836,
                    "duration": 0.452147999999994
                },
                {
                    "name": "C5",
                    "midi": 72,
                    "time": 243.48169800000144,
                    "velocity": 0.36220472440944884,
                    "duration": 0.05651850000000991
                },
                {
                    "name": "G4",
                    "midi": 67,
                    "time": 243.70777200000146,
                    "velocity": 0.30708661417322836,
                    "duration": 0.05651850000000991
                },
                {
                    "name": "C5",
                    "midi": 72,
                    "time": 243.93384600000147,
                    "velocity": 0.36220472440944884,
                    "duration": 0.05651850000000991
                },
                {
                    "name": "A#4",
                    "midi": 70,
                    "time": 244.15992000000148,
                    "velocity": 0.36220472440944884,
                    "duration": 0.2260740000000112
                },
                {
                    "name": "G#4",
                    "midi": 68,
                    "time": 244.3859940000015,
                    "velocity": 0.30708661417322836,
                    "duration": 0.1130369999999914
                },
                {
                    "name": "G4",
                    "midi": 67,
                    "time": 244.49903100000148,
                    "velocity": 0.30708661417322836,
                    "duration": 0.1130369999999914
                },
                {
                    "name": "F4",
                    "midi": 65,
                    "time": 244.61206800000147,
                    "velocity": 0.33858267716535434,
                    "duration": 0.2260740000000112
                },
                {
                    "name": "G4",
                    "midi": 67,
                    "time": 244.83814200000148,
                    "velocity": 0.36220472440944884,
                    "duration": 0.1130369999999914
                },
                {
                    "name": "A#4",
                    "midi": 70,
                    "time": 244.95117900000147,
                    "velocity": 0.2992125984251969,
                    "duration": 0.1130369999999914
                },
                {
                    "name": "G4",
                    "midi": 67,
                    "time": 245.06421600000147,
                    "velocity": 0.36220472440944884,
                    "duration": 0.1130369999999914
                },
                {
                    "name": "A#4",
                    "midi": 70,
                    "time": 245.17725300000146,
                    "velocity": 0.31496062992125984,
                    "duration": 0.1130369999999914
                },
                {
                    "name": "E4",
                    "midi": 64,
                    "time": 245.29029000000145,
                    "velocity": 0.36220472440944884,
                    "duration": 0.1130369999999914
                },
                {
                    "name": "G4",
                    "midi": 67,
                    "time": 245.40332700000144,
                    "velocity": 0.31496062992125984,
                    "duration": 0.1130369999999914
                },
                {
                    "name": "F4",
                    "midi": 65,
                    "time": 245.51636400000143,
                    "velocity": 0.36220472440944884,
                    "duration": 0.1130369999999914
                },
                {
                    "name": "G#4",
                    "midi": 68,
                    "time": 245.62940100000142,
                    "velocity": 0.29133858267716534,
                    "duration": 0.1130369999999914
                },
                {
                    "name": "C5",
                    "midi": 72,
                    "time": 245.7424380000014,
                    "velocity": 0.33070866141732286,
                    "duration": 0.1130369999999914
                },
                {
                    "name": "F5",
                    "midi": 77,
                    "time": 245.8554750000014,
                    "velocity": 0.3700787401574803,
                    "duration": 0.1130369999999914
                },
                {
                    "name": "G#5",
                    "midi": 80,
                    "time": 245.9685120000014,
                    "velocity": 0.4094488188976378,
                    "duration": 0.1130369999999914
                },
                {
                    "name": "A#5",
                    "midi": 82,
                    "time": 246.0815490000014,
                    "velocity": 0.44881889763779526,
                    "duration": 0.1130369999999914
                },
                {
                    "name": "C6",
                    "midi": 84,
                    "time": 246.19458600000138,
                    "velocity": 0.5118110236220472,
                    "duration": 0.05651850000000991
                },
                {
                    "name": "C6",
                    "midi": 84,
                    "time": 246.4206600000014,
                    "velocity": 0.4251968503937008,
                    "duration": 0.1130369999999914
                },
                {
                    "name": "C#6",
                    "midi": 85,
                    "time": 246.53369700000138,
                    "velocity": 0.36220472440944884,
                    "duration": 0.1130369999999914
                },
                {
                    "name": "C6",
                    "midi": 84,
                    "time": 246.64673400000137,
                    "velocity": 0.4330708661417323,
                    "duration": 0.05651850000000991
                },
                {
                    "name": "C#6",
                    "midi": 85,
                    "time": 246.87280800000138,
                    "velocity": 0.3779527559055118,
                    "duration": 0.05651850000000991
                },
                {
                    "name": "C6",
                    "midi": 84,
                    "time": 246.9293265000014,
                    "velocity": 0.5039370078740157,
                    "duration": 0.05651850000000991
                },
                {
                    "name": "C6",
                    "midi": 84,
                    "time": 247.0988820000014,
                    "velocity": 0.4094488188976378,
                    "duration": 0.1130369999999914
                },
                {
                    "name": "C#6",
                    "midi": 85,
                    "time": 247.2119190000014,
                    "velocity": 0.33858267716535434,
                    "duration": 0.1130369999999914
                },
                {
                    "name": "C6",
                    "midi": 84,
                    "time": 247.32495600000138,
                    "velocity": 0.3937007874015748,
                    "duration": 0.05651850000000991
                },
                {
                    "name": "C6",
                    "midi": 84,
                    "time": 247.5510300000014,
                    "velocity": 0.48031496062992124,
                    "duration": 0.1130369999999914
                },
                {
                    "name": "B5",
                    "midi": 83,
                    "time": 247.66406700000138,
                    "velocity": 0.3779527559055118,
                    "duration": 0.1130369999999914
                },
                {
                    "name": "F6",
                    "midi": 89,
                    "time": 247.77710400000137,
                    "velocity": 0.4409448818897638,
                    "duration": 0.1130369999999914
                },
                {
                    "name": "B5",
                    "midi": 83,
                    "time": 247.89014100000136,
                    "velocity": 0.3779527559055118,
                    "duration": 0.1130369999999914
                },
                {
                    "name": "F6",
                    "midi": 89,
                    "time": 248.00317800000136,
                    "velocity": 0.4251968503937008,
                    "duration": 0.1130369999999914
                },
                {
                    "name": "B5",
                    "midi": 83,
                    "time": 248.11621500000135,
                    "velocity": 0.33858267716535434,
                    "duration": 0.1130369999999914
                },
                {
                    "name": "C6",
                    "midi": 84,
                    "time": 248.22925200000134,
                    "velocity": 0.4330708661417323,
                    "duration": 0.05651850000000991
                },
                {
                    "name": "G5",
                    "midi": 79,
                    "time": 248.45532600000135,
                    "velocity": 0.36220472440944884,
                    "duration": 0.2260740000000112
                },
                {
                    "name": "C6",
                    "midi": 84,
                    "time": 248.90747400000137,
                    "velocity": 0.44881889763779526,
                    "duration": 0.05651850000000991
                },
                {
                    "name": "G5",
                    "midi": 79,
                    "time": 249.13354800000138,
                    "velocity": 0.36220472440944884,
                    "duration": 0.05651850000000991
                },
                {
                    "name": "C6",
                    "midi": 84,
                    "time": 249.3596220000014,
                    "velocity": 0.4330708661417323,
                    "duration": 0.05651850000000991
                },
                {
                    "name": "A#5",
                    "midi": 82,
                    "time": 249.5856960000014,
                    "velocity": 0.4330708661417323,
                    "duration": 0.2260740000000112
                },
                {
                    "name": "G#5",
                    "midi": 80,
                    "time": 249.81177000000142,
                    "velocity": 0.36220472440944884,
                    "duration": 0.1130369999999914
                },
                {
                    "name": "G5",
                    "midi": 79,
                    "time": 249.9248070000014,
                    "velocity": 0.36220472440944884,
                    "duration": 0.1130369999999914
                },
                {
                    "name": "F5",
                    "midi": 77,
                    "time": 250.0378440000014,
                    "velocity": 0.4015748031496063,
                    "duration": 0.2260740000000112
                },
                {
                    "name": "G5",
                    "midi": 79,
                    "time": 250.2639180000014,
                    "velocity": 0.4330708661417323,
                    "duration": 0.1130369999999914
                },
                {
                    "name": "A#5",
                    "midi": 82,
                    "time": 250.3769550000014,
                    "velocity": 0.3543307086614173,
                    "duration": 0.1130369999999914
                },
                {
                    "name": "G5",
                    "midi": 79,
                    "time": 250.4899920000014,
                    "velocity": 0.4330708661417323,
                    "duration": 0.1130369999999914
                },
                {
                    "name": "A#5",
                    "midi": 82,
                    "time": 250.60302900000138,
                    "velocity": 0.3779527559055118,
                    "duration": 0.1130369999999914
                },
                {
                    "name": "E5",
                    "midi": 76,
                    "time": 250.71606600000138,
                    "velocity": 0.4330708661417323,
                    "duration": 0.1130369999999914
                },
                {
                    "name": "G5",
                    "midi": 79,
                    "time": 250.82910300000137,
                    "velocity": 0.3779527559055118,
                    "duration": 0.1130369999999914
                },
                {
                    "name": "F5",
                    "midi": 77,
                    "time": 250.94214000000136,
                    "velocity": 0.4330708661417323,
                    "duration": 0.2260740000000112
                },
                {
                    "name": "F4",
                    "midi": 65,
                    "time": 251.16821400000137,
                    "velocity": 0.5354330708661418,
                    "duration": 0.1130369999999914
                },
                {
                    "name": "G4",
                    "midi": 67,
                    "time": 251.28125100000136,
                    "velocity": 0.5433070866141733,
                    "duration": 0.1130369999999914
                },
                {
                    "name": "G#4",
                    "midi": 68,
                    "time": 251.39428800000135,
                    "velocity": 0.5590551181102362,
                    "duration": 0.1130369999999914
                },
                {
                    "name": "A#4",
                    "midi": 70,
                    "time": 251.50732500000134,
                    "velocity": 0.5748031496062992,
                    "duration": 0.1130369999999914
                },
                {
                    "name": "C5",
                    "midi": 72,
                    "time": 251.62036200000134,
                    "velocity": 0.5826771653543307,
                    "duration": 0.05651850000000991
                },
                {
                    "name": "C4",
                    "midi": 60,
                    "time": 251.84643600000135,
                    "velocity": 0.5354330708661418,
                    "duration": 0.05651850000000991
                },
                {
                    "name": "C5",
                    "midi": 72,
                    "time": 252.07251000000136,
                    "velocity": 0.5905511811023622,
                    "duration": 0.05651850000000991
                },
                {
                    "name": "C4",
                    "midi": 60,
                    "time": 252.29858400000137,
                    "velocity": 0.47244094488188976,
                    "duration": 0.05651850000000991
                },
                {
                    "name": "C5",
                    "midi": 72,
                    "time": 252.52465800000138,
                    "velocity": 0.5826771653543307,
                    "duration": 0.05651850000000991
                },
                {
                    "name": "C4",
                    "midi": 60,
                    "time": 252.7507320000014,
                    "velocity": 0.47244094488188976,
                    "duration": 0.05651850000000991
                },
                {
                    "name": "G4",
                    "midi": 67,
                    "time": 252.9768060000014,
                    "velocity": 0.4645669291338583,
                    "duration": 0.05651850000000991
                },
                {
                    "name": "A#4",
                    "midi": 70,
                    "time": 252.9768060000014,
                    "velocity": 0.4645669291338583,
                    "duration": 0.05651850000000991
                },
                {
                    "name": "G#4",
                    "midi": 68,
                    "time": 253.20288000000141,
                    "velocity": 0.36220472440944884,
                    "duration": 0.1130369999999914
                },
                {
                    "name": "F4",
                    "midi": 65,
                    "time": 253.20288000000141,
                    "velocity": 0.36220472440944884,
                    "duration": 0.1130369999999914
                },
                {
                    "name": "G4",
                    "midi": 67,
                    "time": 253.3159170000014,
                    "velocity": 0.36220472440944884,
                    "duration": 0.1130369999999914
                },
                {
                    "name": "E4",
                    "midi": 64,
                    "time": 253.3159170000014,
                    "velocity": 0.36220472440944884,
                    "duration": 0.1130369999999914
                },
                {
                    "name": "G#4",
                    "midi": 68,
                    "time": 253.4289540000014,
                    "velocity": 0.36220472440944884,
                    "duration": 0.1130369999999914
                },
                {
                    "name": "F4",
                    "midi": 65,
                    "time": 253.4289540000014,
                    "velocity": 0.36220472440944884,
                    "duration": 0.1130369999999914
                },
                {
                    "name": "G4",
                    "midi": 67,
                    "time": 253.5419910000014,
                    "velocity": 0.36220472440944884,
                    "duration": 0.1130369999999914
                },
                {
                    "name": "A#4",
                    "midi": 70,
                    "time": 253.5419910000014,
                    "velocity": 0.36220472440944884,
                    "duration": 0.1130369999999914
                },
                {
                    "name": "G4",
                    "midi": 67,
                    "time": 253.65502800000138,
                    "velocity": 0.4094488188976378,
                    "duration": 0.6782220000000052
                },
                {
                    "name": "E4",
                    "midi": 64,
                    "time": 253.65502800000138,
                    "velocity": 0.4094488188976378,
                    "duration": 0.6782220000000052
                },
                {
                    "name": "C5",
                    "midi": 72,
                    "time": 254.33325000000139,
                    "velocity": 0.5826771653543307,
                    "duration": 0.05651850000000991
                },
                {
                    "name": "C4",
                    "midi": 60,
                    "time": 254.5593240000014,
                    "velocity": 0.5354330708661418,
                    "duration": 0.05651850000000991
                },
                {
                    "name": "C5",
                    "midi": 72,
                    "time": 254.7853980000014,
                    "velocity": 0.5905511811023622,
                    "duration": 0.2260740000000112
                },
                {
                    "name": "C#5",
                    "midi": 73,
                    "time": 255.01147200000142,
                    "velocity": 0.6062992125984252,
                    "duration": 0.2260740000000112
                },
                {
                    "name": "C#4",
                    "midi": 61,
                    "time": 255.23754600000143,
                    "velocity": 0.4881889763779528,
                    "duration": 0.05651850000000991
                },
                {
                    "name": "C#5",
                    "midi": 73,
                    "time": 255.46362000000144,
                    "velocity": 0.5826771653543307,
                    "duration": 0.05651850000000991
                },
                {
                    "name": "G#4",
                    "midi": 68,
                    "time": 255.68969400000145,
                    "velocity": 0.4094488188976378,
                    "duration": 0.1130369999999914
                },
                {
                    "name": "C5",
                    "midi": 72,
                    "time": 255.68969400000145,
                    "velocity": 0.4094488188976378,
                    "duration": 0.1130369999999914
                },
                {
                    "name": "A#4",
                    "midi": 70,
                    "time": 255.80273100000144,
                    "velocity": 0.36220472440944884,
                    "duration": 0.1130369999999914
                },
                {
                    "name": "G4",
                    "midi": 67,
                    "time": 255.80273100000144,
                    "velocity": 0.36220472440944884,
                    "duration": 0.1130369999999914
                },
                {
                    "name": "G#4",
                    "midi": 68,
                    "time": 255.91576800000144,
                    "velocity": 0.3464566929133858,
                    "duration": 0.11303700000001982
                },
                {
                    "name": "F4",
                    "midi": 65,
                    "time": 255.91576800000144,
                    "velocity": 0.3464566929133858,
                    "duration": 0.11303700000001982
                },
                {
                    "name": "A#4",
                    "midi": 70,
                    "time": 256.02880500000146,
                    "velocity": 0.33070866141732286,
                    "duration": 0.11303700000001982
                },
                {
                    "name": "G4",
                    "midi": 67,
                    "time": 256.02880500000146,
                    "velocity": 0.33070866141732286,
                    "duration": 0.11303700000001982
                },
                {
                    "name": "F4",
                    "midi": 65,
                    "time": 256.1418420000015,
                    "velocity": 0.31496062992125984,
                    "duration": 0.11303700000001982
                },
                {
                    "name": "G#4",
                    "midi": 68,
                    "time": 256.1418420000015,
                    "velocity": 0.31496062992125984,
                    "duration": 0.11303700000001982
                },
                {
                    "name": "E4",
                    "midi": 64,
                    "time": 256.2548790000015,
                    "velocity": 0.2992125984251969,
                    "duration": 0.11303700000001982
                },
                {
                    "name": "G4",
                    "midi": 67,
                    "time": 256.2548790000015,
                    "velocity": 0.2992125984251969,
                    "duration": 0.11303700000001982
                },
                {
                    "name": "F4",
                    "midi": 65,
                    "time": 256.3679160000015,
                    "velocity": 0.3858267716535433,
                    "duration": 0.2260739999999828
                },
                {
                    "name": "F5",
                    "midi": 77,
                    "time": 256.5939900000015,
                    "velocity": 0.5826771653543307,
                    "duration": 0.11303700000001982
                },
                {
                    "name": "G5",
                    "midi": 79,
                    "time": 256.7070270000015,
                    "velocity": 0.5905511811023622,
                    "duration": 0.11303700000001982
                },
                {
                    "name": "G#5",
                    "midi": 80,
                    "time": 256.82006400000154,
                    "velocity": 0.6141732283464567,
                    "duration": 0.11303700000001982
                },
                {
                    "name": "A#5",
                    "midi": 82,
                    "time": 256.93310100000156,
                    "velocity": 0.6299212598425197,
                    "duration": 0.11303700000001982
                },
                {
                    "name": "C6",
                    "midi": 84,
                    "time": 257.0461380000016,
                    "velocity": 0.6377952755905512,
                    "duration": 0.056518499999981486
                },
                {
                    "name": "C5",
                    "midi": 72,
                    "time": 257.27221200000156,
                    "velocity": 0.5826771653543307,
                    "duration": 0.056518499999981486
                },
                {
                    "name": "C6",
                    "midi": 84,
                    "time": 257.49828600000154,
                    "velocity": 0.6456692913385826,
                    "duration": 0.056518499999981486
                },
                {
                    "name": "C5",
                    "midi": 72,
                    "time": 257.7243600000015,
                    "velocity": 0.5196850393700787,
                    "duration": 0.056518499999981486
                },
                {
                    "name": "C6",
                    "midi": 84,
                    "time": 257.9504340000015,
                    "velocity": 0.6377952755905512,
                    "duration": 0.056518499999981486
                },
                {
                    "name": "C5",
                    "midi": 72,
                    "time": 258.1765080000015,
                    "velocity": 0.5196850393700787,
                    "duration": 0.056518499999981486
                },
                {
                    "name": "A#5",
                    "midi": 82,
                    "time": 258.4025820000015,
                    "velocity": 0.5039370078740157,
                    "duration": 0.056518499999981486
                },
                {
                    "name": "G5",
                    "midi": 79,
                    "time": 258.4025820000015,
                    "velocity": 0.5039370078740157,
                    "duration": 0.056518499999981486
                },
                {
                    "name": "F5",
                    "midi": 77,
                    "time": 258.62865600000146,
                    "velocity": 0.3937007874015748,
                    "duration": 0.11303700000001982
                },
                {
                    "name": "G#5",
                    "midi": 80,
                    "time": 258.62865600000146,
                    "velocity": 0.3937007874015748,
                    "duration": 0.11303700000001982
                },
                {
                    "name": "E5",
                    "midi": 76,
                    "time": 258.7416930000015,
                    "velocity": 0.3937007874015748,
                    "duration": 0.11303700000001982
                },
                {
                    "name": "G5",
                    "midi": 79,
                    "time": 258.7416930000015,
                    "velocity": 0.3937007874015748,
                    "duration": 0.11303700000001982
                },
                {
                    "name": "F5",
                    "midi": 77,
                    "time": 258.8547300000015,
                    "velocity": 0.3937007874015748,
                    "duration": 0.11303700000001982
                },
                {
                    "name": "G#5",
                    "midi": 80,
                    "time": 258.8547300000015,
                    "velocity": 0.3937007874015748,
                    "duration": 0.11303700000001982
                },
                {
                    "name": "G5",
                    "midi": 79,
                    "time": 258.9677670000015,
                    "velocity": 0.3937007874015748,
                    "duration": 0.11303700000001982
                },
                {
                    "name": "A#5",
                    "midi": 82,
                    "time": 258.9677670000015,
                    "velocity": 0.3937007874015748,
                    "duration": 0.11303700000001982
                },
                {
                    "name": "G5",
                    "midi": 79,
                    "time": 259.08080400000154,
                    "velocity": 0.44881889763779526,
                    "duration": 0.6782220000000052
                },
                {
                    "name": "E5",
                    "midi": 76,
                    "time": 259.08080400000154,
                    "velocity": 0.44881889763779526,
                    "duration": 0.6782220000000052
                },
                {
                    "name": "C6",
                    "midi": 84,
                    "time": 259.75902600000154,
                    "velocity": 0.6377952755905512,
                    "duration": 0.056518499999981486
                },
                {
                    "name": "C5",
                    "midi": 72,
                    "time": 259.9851000000015,
                    "velocity": 0.5826771653543307,
                    "duration": 0.056518499999981486
                },
                {
                    "name": "C6",
                    "midi": 84,
                    "time": 260.2111740000015,
                    "velocity": 0.6456692913385826,
                    "duration": 0.2260739999999828
                },
                {
                    "name": "C#6",
                    "midi": 85,
                    "time": 260.4372480000015,
                    "velocity": 0.6614173228346457,
                    "duration": 0.2260739999999828
                },
                {
                    "name": "C#5",
                    "midi": 73,
                    "time": 260.6633220000015,
                    "velocity": 0.5354330708661418,
                    "duration": 0.056518499999981486
                },
                {
                    "name": "C#6",
                    "midi": 85,
                    "time": 260.88939600000145,
                    "velocity": 0.6377952755905512,
                    "duration": 0.056518499999981486
                },
                {
                    "name": "C#5",
                    "midi": 73,
                    "time": 261.11547000000144,
                    "velocity": 0.4094488188976378,
                    "duration": 0.11303700000001982
                },
                {
                    "name": "A#4",
                    "midi": 70,
                    "time": 261.11547000000144,
                    "velocity": 0.4094488188976378,
                    "duration": 0.11303700000001982
                },
                {
                    "name": "G#4",
                    "midi": 68,
                    "time": 261.22850700000146,
                    "velocity": 0.36220472440944884,
                    "duration": 0.11303700000001982
                },
                {
                    "name": "B4",
                    "midi": 71,
                    "time": 261.22850700000146,
                    "velocity": 0.36220472440944884,
                    "duration": 0.11303700000001982
                },
                {
                    "name": "F#4",
                    "midi": 66,
                    "time": 261.3415440000015,
                    "velocity": 0.3464566929133858,
                    "duration": 0.11303700000001982
                },
                {
                    "name": "A#4",
                    "midi": 70,
                    "time": 261.3415440000015,
                    "velocity": 0.3464566929133858,
                    "duration": 0.11303700000001982
                },
                {
                    "name": "G#4",
                    "midi": 68,
                    "time": 261.4545810000015,
                    "velocity": 0.33070866141732286,
                    "duration": 0.11303700000001982
                },
                {
                    "name": "B4",
                    "midi": 71,
                    "time": 261.4545810000015,
                    "velocity": 0.33070866141732286,
                    "duration": 0.11303700000001982
                },
                {
                    "name": "F#4",
                    "midi": 66,
                    "time": 261.5676180000015,
                    "velocity": 0.31496062992125984,
                    "duration": 0.11303700000001982
                },
                {
                    "name": "A#4",
                    "midi": 70,
                    "time": 261.5676180000015,
                    "velocity": 0.31496062992125984,
                    "duration": 0.11303700000001982
                },
                {
                    "name": "F4",
                    "midi": 65,
                    "time": 261.68065500000154,
                    "velocity": 0.2992125984251969,
                    "duration": 0.11303700000001982
                },
                {
                    "name": "G#4",
                    "midi": 68,
                    "time": 261.68065500000154,
                    "velocity": 0.2992125984251969,
                    "duration": 0.11303700000001982
                },
                {
                    "name": "F#4",
                    "midi": 66,
                    "time": 261.79369200000156,
                    "velocity": 0.36220472440944884,
                    "duration": 0.11303700000001982
                },
                {
                    "name": "A#4",
                    "midi": 70,
                    "time": 261.79369200000156,
                    "velocity": 0.36220472440944884,
                    "duration": 0.11303700000001982
                },
                {
                    "name": "A#4",
                    "midi": 70,
                    "time": 262.0197660000016,
                    "velocity": 0.2992125984251969,
                    "duration": 0.11303700000001982
                },
                {
                    "name": "F#4",
                    "midi": 66,
                    "time": 262.0197660000016,
                    "velocity": 0.2992125984251969,
                    "duration": 0.11303700000001982
                },
                {
                    "name": "A#4",
                    "midi": 70,
                    "time": 262.24584000000164,
                    "velocity": 0.2992125984251969,
                    "duration": 0.11303700000001982
                },
                {
                    "name": "F#4",
                    "midi": 66,
                    "time": 262.24584000000164,
                    "velocity": 0.2992125984251969,
                    "duration": 0.11303700000001982
                },
                {
                    "name": "F4",
                    "midi": 65,
                    "time": 262.4719140000017,
                    "velocity": 0.33070866141732286,
                    "duration": 0.11303700000001982
                },
                {
                    "name": "G#4",
                    "midi": 68,
                    "time": 262.4719140000017,
                    "velocity": 0.3937007874015748,
                    "duration": 0.11303700000001982
                },
                {
                    "name": "B4",
                    "midi": 71,
                    "time": 262.4719140000017,
                    "velocity": 0.3937007874015748,
                    "duration": 0.11303700000001982
                },
                {
                    "name": "B4",
                    "midi": 71,
                    "time": 262.6979880000017,
                    "velocity": 0.4015748031496063,
                    "duration": 0.11303700000001982
                },
                {
                    "name": "G#4",
                    "midi": 68,
                    "time": 262.6979880000017,
                    "velocity": 0.4015748031496063,
                    "duration": 0.11303700000001982
                },
                {
                    "name": "F4",
                    "midi": 65,
                    "time": 262.6979880000017,
                    "velocity": 0.33858267716535434,
                    "duration": 0.11303700000001982
                },
                {
                    "name": "G#4",
                    "midi": 68,
                    "time": 262.92406200000175,
                    "velocity": 0.4409448818897638,
                    "duration": 0.11303700000001982
                },
                {
                    "name": "F4",
                    "midi": 65,
                    "time": 262.92406200000175,
                    "velocity": 0.3700787401574803,
                    "duration": 0.11303700000001982
                },
                {
                    "name": "B4",
                    "midi": 71,
                    "time": 262.92406200000175,
                    "velocity": 0.4409448818897638,
                    "duration": 0.11303700000001982
                },
                {
                    "name": "F5",
                    "midi": 77,
                    "time": 263.1501360000018,
                    "velocity": 0.3937007874015748,
                    "duration": 0.11303700000001982
                },
                {
                    "name": "B5",
                    "midi": 83,
                    "time": 263.1501360000018,
                    "velocity": 0.4645669291338583,
                    "duration": 0.11303700000001982
                },
                {
                    "name": "G#5",
                    "midi": 80,
                    "time": 263.1501360000018,
                    "velocity": 0.4645669291338583,
                    "duration": 0.11303700000001982
                },
                {
                    "name": "G#5",
                    "midi": 80,
                    "time": 263.37621000000183,
                    "velocity": 0.5039370078740157,
                    "duration": 0.11303700000001982
                },
                {
                    "name": "F5",
                    "midi": 77,
                    "time": 263.37621000000183,
                    "velocity": 0.4251968503937008,
                    "duration": 0.11303700000001982
                },
                {
                    "name": "B5",
                    "midi": 83,
                    "time": 263.37621000000183,
                    "velocity": 0.5039370078740157,
                    "duration": 0.11303700000001982
                },
                {
                    "name": "B5",
                    "midi": 83,
                    "time": 263.6022840000019,
                    "velocity": 0.5511811023622047,
                    "duration": 0.11303700000001982
                },
                {
                    "name": "F5",
                    "midi": 77,
                    "time": 263.6022840000019,
                    "velocity": 0.4645669291338583,
                    "duration": 0.11303700000001982
                },
                {
                    "name": "G#5",
                    "midi": 80,
                    "time": 263.6022840000019,
                    "velocity": 0.5511811023622047,
                    "duration": 0.11303700000001982
                },
                {
                    "name": "C7",
                    "midi": 96,
                    "time": 263.8283580000019,
                    "velocity": 0.5826771653543307,
                    "duration": 0.11303700000001982
                },
                {
                    "name": "G#6",
                    "midi": 92,
                    "time": 263.8283580000019,
                    "velocity": 0.4881889763779528,
                    "duration": 0.11303700000001982
                },
                {
                    "name": "A#6",
                    "midi": 94,
                    "time": 263.94139500000193,
                    "velocity": 0.5196850393700787,
                    "duration": 0.11303700000001982
                },
                {
                    "name": "G6",
                    "midi": 91,
                    "time": 263.94139500000193,
                    "velocity": 0.4409448818897638,
                    "duration": 0.11303700000001982
                },
                {
                    "name": "F6",
                    "midi": 89,
                    "time": 264.05443200000195,
                    "velocity": 0.48031496062992124,
                    "duration": 0.11303700000001982
                },
                {
                    "name": "G#6",
                    "midi": 92,
                    "time": 264.05443200000195,
                    "velocity": 0.5748031496062992,
                    "duration": 0.11303700000001982
                },
                {
                    "name": "G6",
                    "midi": 91,
                    "time": 264.167469000002,
                    "velocity": 0.4330708661417323,
                    "duration": 0.11303700000001982
                },
                {
                    "name": "A#6",
                    "midi": 94,
                    "time": 264.167469000002,
                    "velocity": 0.5039370078740157,
                    "duration": 0.11303700000001982
                },
                {
                    "name": "G#6",
                    "midi": 92,
                    "time": 264.280506000002,
                    "velocity": 0.5748031496062992,
                    "duration": 0.11303700000001982
                },
                {
                    "name": "F6",
                    "midi": 89,
                    "time": 264.280506000002,
                    "velocity": 0.48031496062992124,
                    "duration": 0.11303700000001982
                },
                {
                    "name": "G6",
                    "midi": 91,
                    "time": 264.393543000002,
                    "velocity": 0.5039370078740157,
                    "duration": 0.11303700000001982
                },
                {
                    "name": "E6",
                    "midi": 88,
                    "time": 264.393543000002,
                    "velocity": 0.4330708661417323,
                    "duration": 0.11303700000001982
                },
                {
                    "name": "F6",
                    "midi": 89,
                    "time": 264.50658000000203,
                    "velocity": 0.5748031496062992,
                    "duration": 0.11303700000001982
                },
                {
                    "name": "G6",
                    "midi": 91,
                    "time": 264.73265400000207,
                    "velocity": 0.5748031496062992,
                    "duration": 0.056518499999981486
                },
                {
                    "name": "G#6",
                    "midi": 92,
                    "time": 264.78917250000205,
                    "velocity": 0.5275590551181102,
                    "duration": 0.056518499999981486
                },
                {
                    "name": "G6",
                    "midi": 91,
                    "time": 264.84569100000203,
                    "velocity": 0.4566929133858268,
                    "duration": 0.056518499999981486
                },
                {
                    "name": "G#6",
                    "midi": 92,
                    "time": 264.902209500002,
                    "velocity": 0.4251968503937008,
                    "duration": 0.056518499999981486
                },
                {
                    "name": "G6",
                    "midi": 91,
                    "time": 264.958728000002,
                    "velocity": 0.4566929133858268,
                    "duration": 0.056518499999981486
                },
                {
                    "name": "G#6",
                    "midi": 92,
                    "time": 265.015246500002,
                    "velocity": 0.4094488188976378,
                    "duration": 0.056518499999981486
                },
                {
                    "name": "G6",
                    "midi": 91,
                    "time": 265.07176500000196,
                    "velocity": 0.4566929133858268,
                    "duration": 0.056518499999981486
                },
                {
                    "name": "G#6",
                    "midi": 92,
                    "time": 265.12828350000194,
                    "velocity": 0.4094488188976378,
                    "duration": 0.056518499999981486
                },
                {
                    "name": "G6",
                    "midi": 91,
                    "time": 265.1848020000019,
                    "velocity": 0.4566929133858268,
                    "duration": 0.056518499999981486
                },
                {
                    "name": "G#6",
                    "midi": 92,
                    "time": 265.2413205000019,
                    "velocity": 0.4094488188976378,
                    "duration": 0.056518499999981486
                },
                {
                    "name": "G6",
                    "midi": 91,
                    "time": 265.2978390000019,
                    "velocity": 0.4566929133858268,
                    "duration": 0.07535799999999426
                },
                {
                    "name": "G#6",
                    "midi": 92,
                    "time": 265.3731970000019,
                    "velocity": 0.4251968503937008,
                    "duration": 0.07535799999999426
                },
                {
                    "name": "G6",
                    "midi": 91,
                    "time": 265.4485550000019,
                    "velocity": 0.4566929133858268,
                    "duration": 0.07535799999999426
                },
                {
                    "name": "F#6",
                    "midi": 90,
                    "time": 265.52391300000187,
                    "velocity": 0.4251968503937008,
                    "duration": 0.056518499999981486
                },
                {
                    "name": "G6",
                    "midi": 91,
                    "time": 265.58043150000185,
                    "velocity": 0.4409448818897638,
                    "duration": 0.056518499999981486
                },
                {
                    "name": "G#6",
                    "midi": 92,
                    "time": 265.63695000000183,
                    "velocity": 0.5039370078740157,
                    "duration": 0.11303700000001982
                },
                {
                    "name": "G6",
                    "midi": 91,
                    "time": 265.74998700000185,
                    "velocity": 0.4566929133858268,
                    "duration": 0.11303700000001982
                },
                {
                    "name": "F6",
                    "midi": 89,
                    "time": 265.8630240000019,
                    "velocity": 0.6377952755905512,
                    "duration": 0.11303700000001982
                },
                {
                    "name": "G5",
                    "midi": 79,
                    "time": 266.0890980000019,
                    "velocity": 0.5748031496062992,
                    "duration": 0.056518499999981486
                },
                {
                    "name": "G#5",
                    "midi": 80,
                    "time": 266.1456165000019,
                    "velocity": 0.5275590551181102,
                    "duration": 0.056518499999981486
                },
                {
                    "name": "G5",
                    "midi": 79,
                    "time": 266.2021350000019,
                    "velocity": 0.4566929133858268,
                    "duration": 0.056518499999981486
                },
                {
                    "name": "G#5",
                    "midi": 80,
                    "time": 266.25865350000186,
                    "velocity": 0.4251968503937008,
                    "duration": 0.056518499999981486
                },
                {
                    "name": "G5",
                    "midi": 79,
                    "time": 266.31517200000184,
                    "velocity": 0.4566929133858268,
                    "duration": 0.056518499999981486
                },
                {
                    "name": "G#5",
                    "midi": 80,
                    "time": 266.3716905000018,
                    "velocity": 0.4094488188976378,
                    "duration": 0.056518499999981486
                },
                {
                    "name": "G5",
                    "midi": 79,
                    "time": 266.4282090000018,
                    "velocity": 0.4566929133858268,
                    "duration": 0.056518499999981486
                },
                {
                    "name": "G#5",
                    "midi": 80,
                    "time": 266.4847275000018,
                    "velocity": 0.4094488188976378,
                    "duration": 0.056518499999981486
                },
                {
                    "name": "G5",
                    "midi": 79,
                    "time": 266.54124600000176,
                    "velocity": 0.4566929133858268,
                    "duration": 0.056518499999981486
                },
                {
                    "name": "G#5",
                    "midi": 80,
                    "time": 266.59776450000174,
                    "velocity": 0.4094488188976378,
                    "duration": 0.056518499999981486
                },
                {
                    "name": "G5",
                    "midi": 79,
                    "time": 266.6542830000017,
                    "velocity": 0.4566929133858268,
                    "duration": 0.07535799999999426
                },
                {
                    "name": "G#5",
                    "midi": 80,
                    "time": 266.7296410000017,
                    "velocity": 0.4251968503937008,
                    "duration": 0.07535799999999426
                },
                {
                    "name": "G5",
                    "midi": 79,
                    "time": 266.8049990000017,
                    "velocity": 0.4566929133858268,
                    "duration": 0.07535799999999426
                },
                {
                    "name": "F#5",
                    "midi": 78,
                    "time": 266.8803570000017,
                    "velocity": 0.4251968503937008,
                    "duration": 0.056518499999981486
                },
                {
                    "name": "G5",
                    "midi": 79,
                    "time": 266.9368755000017,
                    "velocity": 0.4409448818897638,
                    "duration": 0.056518499999981486
                },
                {
                    "name": "G#5",
                    "midi": 80,
                    "time": 266.9933940000017,
                    "velocity": 0.5039370078740157,
                    "duration": 0.11303700000001982
                },
                {
                    "name": "G5",
                    "midi": 79,
                    "time": 267.1064310000017,
                    "velocity": 0.4566929133858268,
                    "duration": 0.11303700000001982
                },
                {
                    "name": "F5",
                    "midi": 77,
                    "time": 267.2194680000017,
                    "velocity": 0.6377952755905512,
                    "duration": 0.11303700000001982
                },
                {
                    "name": "G6",
                    "midi": 91,
                    "time": 267.44554200000175,
                    "velocity": 0.5748031496062992,
                    "duration": 0.056518499999981486
                },
                {
                    "name": "G#6",
                    "midi": 92,
                    "time": 267.50206050000173,
                    "velocity": 0.5275590551181102,
                    "duration": 0.056518499999981486
                },
                {
                    "name": "G6",
                    "midi": 91,
                    "time": 267.5585790000017,
                    "velocity": 0.4566929133858268,
                    "duration": 0.056518499999981486
                },
                {
                    "name": "G#6",
                    "midi": 92,
                    "time": 267.6150975000017,
                    "velocity": 0.4251968503937008,
                    "duration": 0.056518499999981486
                },
                {
                    "name": "G6",
                    "midi": 91,
                    "time": 267.6716160000017,
                    "velocity": 0.4566929133858268,
                    "duration": 0.056518499999981486
                },
                {
                    "name": "G#6",
                    "midi": 92,
                    "time": 267.72813450000166,
                    "velocity": 0.4094488188976378,
                    "duration": 0.056518499999981486
                },
                {
                    "name": "G6",
                    "midi": 91,
                    "time": 267.78465300000164,
                    "velocity": 0.4566929133858268,
                    "duration": 0.056518499999981486
                },
                {
                    "name": "G#6",
                    "midi": 92,
                    "time": 267.8411715000016,
                    "velocity": 0.4094488188976378,
                    "duration": 0.056518499999981486
                },
                {
                    "name": "F#6",
                    "midi": 90,
                    "time": 267.8976900000016,
                    "velocity": 0.4566929133858268,
                    "duration": 0.056518499999981486
                },
                {
                    "name": "G6",
                    "midi": 91,
                    "time": 267.9542085000016,
                    "velocity": 0.41732283464566927,
                    "duration": 0.056518499999981486
                },
                {
                    "name": "G#6",
                    "midi": 92,
                    "time": 268.01072700000157,
                    "velocity": 0.4251968503937008,
                    "duration": 0.056518499999981486
                },
                {
                    "name": "A#6",
                    "midi": 94,
                    "time": 268.06724550000155,
                    "velocity": 0.4409448818897638,
                    "duration": 0.056518499999981486
                },
                {
                    "name": "C7",
                    "midi": 96,
                    "time": 268.12376400000153,
                    "velocity": 0.44881889763779526,
                    "duration": 0.056518499999981486
                },
                {
                    "name": "C#7",
                    "midi": 97,
                    "time": 268.1802825000015,
                    "velocity": 0.4566929133858268,
                    "duration": 0.056518499999981486
                },
                {
                    "name": "E7",
                    "midi": 100,
                    "time": 268.2368010000015,
                    "velocity": 0.47244094488188976,
                    "duration": 0.056518499999981486
                },
                {
                    "name": "F7",
                    "midi": 101,
                    "time": 268.2933195000015,
                    "velocity": 0.4881889763779528,
                    "duration": 0.056518499999981486
                },
                {
                    "name": "E7",
                    "midi": 100,
                    "time": 268.34983800000145,
                    "velocity": 0.49606299212598426,
                    "duration": 0.03767900000002555
                },
                {
                    "name": "C#7",
                    "midi": 97,
                    "time": 268.3875170000015,
                    "velocity": 0.4881889763779528,
                    "duration": 0.03767900000002555
                },
                {
                    "name": "C7",
                    "midi": 96,
                    "time": 268.4261379750015,
                    "velocity": 0.48031496062992124,
                    "duration": 0.03767900000002555
                },
                {
                    "name": "A#6",
                    "midi": 94,
                    "time": 268.4638169750015,
                    "velocity": 0.48031496062992124,
                    "duration": 0.03767899999996871
                },
                {
                    "name": "G#6",
                    "midi": 92,
                    "time": 268.5005540000015,
                    "velocity": 0.47244094488188976,
                    "duration": 0.03767899999996871
                },
                {
                    "name": "G6",
                    "midi": 91,
                    "time": 268.53823300000147,
                    "velocity": 0.4645669291338583,
                    "duration": 0.03767900000002555
                },
                {
                    "name": "F6",
                    "midi": 89,
                    "time": 268.5759120000015,
                    "velocity": 0.6377952755905512,
                    "duration": 0.11303700000001982
                },
                {
                    "name": "G5",
                    "midi": 79,
                    "time": 268.80198600000153,
                    "velocity": 0.5748031496062992,
                    "duration": 0.056518499999981486
                },
                {
                    "name": "G#5",
                    "midi": 80,
                    "time": 268.8585045000015,
                    "velocity": 0.5275590551181102,
                    "duration": 0.056518499999981486
                },
                {
                    "name": "G5",
                    "midi": 79,
                    "time": 268.9150230000015,
                    "velocity": 0.4566929133858268,
                    "duration": 0.056518499999981486
                },
                {
                    "name": "G#5",
                    "midi": 80,
                    "time": 268.9715415000015,
                    "velocity": 0.4251968503937008,
                    "duration": 0.056518499999981486
                },
                {
                    "name": "G5",
                    "midi": 79,
                    "time": 269.02806000000146,
                    "velocity": 0.4566929133858268,
                    "duration": 0.056518499999981486
                },
                {
                    "name": "G#5",
                    "midi": 80,
                    "time": 269.08457850000144,
                    "velocity": 0.4094488188976378,
                    "duration": 0.056518499999981486
                },
                {
                    "name": "G5",
                    "midi": 79,
                    "time": 269.1410970000014,
                    "velocity": 0.4566929133858268,
                    "duration": 0.056518499999981486
                },
                {
                    "name": "G#5",
                    "midi": 80,
                    "time": 269.1976155000014,
                    "velocity": 0.4094488188976378,
                    "duration": 0.056518499999981486
                },
                {
                    "name": "F#5",
                    "midi": 78,
                    "time": 269.2541340000014,
                    "velocity": 0.4566929133858268,
                    "duration": 0.04521479999999656
                },
                {
                    "name": "G5",
                    "midi": 79,
                    "time": 269.2993488000014,
                    "velocity": 0.41732283464566927,
                    "duration": 0.04521479999999656
                },
                {
                    "name": "G#5",
                    "midi": 80,
                    "time": 269.3445636000014,
                    "velocity": 0.4251968503937008,
                    "duration": 0.04521479999999656
                },
                {
                    "name": "A#5",
                    "midi": 82,
                    "time": 269.3897784000014,
                    "velocity": 0.4409448818897638,
                    "duration": 0.04521479999999656
                },
                {
                    "name": "C6",
                    "midi": 84,
                    "time": 269.4349932000014,
                    "velocity": 0.44881889763779526,
                    "duration": 0.04521479999999656
                },
                {
                    "name": "D6",
                    "midi": 86,
                    "time": 269.48020800000137,
                    "velocity": 0.4566929133858268,
                    "duration": 0.04521479999999656
                },
                {
                    "name": "E6",
                    "midi": 88,
                    "time": 269.52542280000137,
                    "velocity": 0.47244094488188976,
                    "duration": 0.04521479999999656
                },
                {
                    "name": "F6",
                    "midi": 89,
                    "time": 269.57063760000136,
                    "velocity": 0.4881889763779528,
                    "duration": 0.04521479999999656
                },
                {
                    "name": "G6",
                    "midi": 91,
                    "time": 269.61585240000136,
                    "velocity": 0.4881889763779528,
                    "duration": 0.04521479999999656
                },
                {
                    "name": "F6",
                    "midi": 89,
                    "time": 269.66106720000136,
                    "velocity": 0.4881889763779528,
                    "duration": 0.04521479999999656
                },
                {
                    "name": "E6",
                    "midi": 88,
                    "time": 269.70628200000135,
                    "velocity": 0.49606299212598426,
                    "duration": 0.031085174999986975
                },
                {
                    "name": "D6",
                    "midi": 86,
                    "time": 269.73736717500134,
                    "velocity": 0.49606299212598426,
                    "duration": 0.031085174999986975
                },
                {
                    "name": "C6",
                    "midi": 84,
                    "time": 269.7684523500013,
                    "velocity": 0.4881889763779528,
                    "duration": 0.031085174999986975
                },
                {
                    "name": "A#5",
                    "midi": 82,
                    "time": 269.7995375250013,
                    "velocity": 0.48031496062992124,
                    "duration": 0.031085174999986975
                },
                {
                    "name": "G#5",
                    "midi": 80,
                    "time": 269.8306227000013,
                    "velocity": 0.48031496062992124,
                    "duration": 0.031085174999986975
                },
                {
                    "name": "G5",
                    "midi": 79,
                    "time": 269.8617078750013,
                    "velocity": 0.47244094488188976,
                    "duration": 0.031085174999986975
                },
                {
                    "name": "F5",
                    "midi": 77,
                    "time": 269.8927930500013,
                    "velocity": 0.4645669291338583,
                    "duration": 0.03956295000000409
                },
                {
                    "name": "E5",
                    "midi": 76,
                    "time": 269.9323560000013,
                    "velocity": 0.4566929133858268,
                    "duration": 0.056518499999981486
                },
                {
                    "name": "C#5",
                    "midi": 73,
                    "time": 269.98887450000126,
                    "velocity": 0.4409448818897638,
                    "duration": 0.056518499999981486
                },
                {
                    "name": "C5",
                    "midi": 72,
                    "time": 270.04539300000124,
                    "velocity": 0.4251968503937008,
                    "duration": 0.056518499999981486
                },
                {
                    "name": "A#4",
                    "midi": 70,
                    "time": 270.1019115000012,
                    "velocity": 0.4094488188976378,
                    "duration": 0.056518499999981486
                },
                {
                    "name": "G#4",
                    "midi": 68,
                    "time": 270.1584300000012,
                    "velocity": 0.3858267716535433,
                    "duration": 0.056518499999981486
                },
                {
                    "name": "G4",
                    "midi": 67,
                    "time": 270.2149485000012,
                    "velocity": 0.3779527559055118,
                    "duration": 0.056518499999981486
                },
                {
                    "name": "F#4",
                    "midi": 66,
                    "time": 270.27146700000117,
                    "velocity": 0.3543307086614173,
                    "duration": 0.056518499999981486
                },
                {
                    "name": "G4",
                    "midi": 67,
                    "time": 270.32798550000115,
                    "velocity": 0.33070866141732286,
                    "duration": 0.056518499999981486
                },
                {
                    "name": "G#4",
                    "midi": 68,
                    "time": 270.38450400000113,
                    "velocity": 0.30708661417322836,
                    "duration": 0.03767900000002555
                },
                {
                    "name": "A4",
                    "midi": 69,
                    "time": 270.42218300000116,
                    "velocity": 0.31496062992125984,
                    "duration": 0.03767900000002555
                },
                {
                    "name": "A#4",
                    "midi": 70,
                    "time": 270.4598620000012,
                    "velocity": 0.2992125984251969,
                    "duration": 0.03767900000002555
                },
                {
                    "name": "B4",
                    "midi": 71,
                    "time": 270.4975410000012,
                    "velocity": 0.28346456692913385,
                    "duration": 0.03767900000002555
                },
                {
                    "name": "C5",
                    "midi": 72,
                    "time": 270.53522000000123,
                    "velocity": 0.2677165354330709,
                    "duration": 0.03767900000002555
                },
                {
                    "name": "C#5",
                    "midi": 73,
                    "time": 270.57289900000126,
                    "velocity": 0.25984251968503935,
                    "duration": 0.03767900000002555
                },
                {
                    "name": "C5",
                    "midi": 72,
                    "time": 270.6105780000013,
                    "velocity": 0.4409448818897638,
                    "duration": 0.056518499999981486
                },
                {
                    "name": "C5",
                    "midi": 72,
                    "time": 270.83665200000127,
                    "velocity": 0.3543307086614173,
                    "duration": 0.11303700000001982
                },
                {
                    "name": "C#5",
                    "midi": 73,
                    "time": 270.9496890000013,
                    "velocity": 0.30708661417322836,
                    "duration": 0.11303700000001982
                },
                {
                    "name": "C5",
                    "midi": 72,
                    "time": 271.0627260000013,
                    "velocity": 0.36220472440944884,
                    "duration": 0.056518499999981486
                },
                {
                    "name": "C#5",
                    "midi": 73,
                    "time": 271.2888000000013,
                    "velocity": 0.31496062992125984,
                    "duration": 0.056518499999981486
                },
                {
                    "name": "C5",
                    "midi": 72,
                    "time": 271.34531850000127,
                    "velocity": 0.3858267716535433,
                    "duration": 0.056518499999981486
                },
                {
                    "name": "C5",
                    "midi": 72,
                    "time": 271.51487400000127,
                    "velocity": 0.3464566929133858,
                    "duration": 0.11303700000001982
                },
                {
                    "name": "C#5",
                    "midi": 73,
                    "time": 271.6279110000013,
                    "velocity": 0.28346456692913385,
                    "duration": 0.11303700000001982
                },
                {
                    "name": "C5",
                    "midi": 72,
                    "time": 271.7409480000013,
                    "velocity": 0.33070866141732286,
                    "duration": 0.056518499999981486
                },
                {
                    "name": "C5",
                    "midi": 72,
                    "time": 271.9670220000013,
                    "velocity": 0.31496062992125984,
                    "duration": 0.11303700000001982
                },
                {
                    "name": "B4",
                    "midi": 71,
                    "time": 272.0800590000013,
                    "velocity": 0.4094488188976378,
                    "duration": 0.10361725000001343
                },
                {
                    "name": "B4",
                    "midi": 71,
                    "time": 272.19309600000133,
                    "velocity": 0.3700787401574803,
                    "duration": 0.11303700000001982
                },
                {
                    "name": "D5",
                    "midi": 74,
                    "time": 272.30613300000135,
                    "velocity": 0.31496062992125984,
                    "duration": 0.11303700000001982
                },
                {
                    "name": "C5",
                    "midi": 72,
                    "time": 272.4191700000014,
                    "velocity": 0.3543307086614173,
                    "duration": 0.11303700000001982
                },
                {
                    "name": "B4",
                    "midi": 71,
                    "time": 272.5322070000014,
                    "velocity": 0.28346456692913385,
                    "duration": 0.11303700000001982
                },
                {
                    "name": "C5",
                    "midi": 72,
                    "time": 272.6452440000014,
                    "velocity": 0.36220472440944884,
                    "duration": 0.056518499999981486
                },
                {
                    "name": "G4",
                    "midi": 67,
                    "time": 272.8713180000014,
                    "velocity": 0.30708661417322836,
                    "duration": 0.2260739999999828
                },
                {
                    "name": "C5",
                    "midi": 72,
                    "time": 273.32346600000136,
                    "velocity": 0.36220472440944884,
                    "duration": 0.056518499999981486
                },
                {
                    "name": "G4",
                    "midi": 67,
                    "time": 273.54954000000134,
                    "velocity": 0.30708661417322836,
                    "duration": 0.056518499999981486
                },
                {
                    "name": "C5",
                    "midi": 72,
                    "time": 273.7756140000013,
                    "velocity": 0.36220472440944884,
                    "duration": 0.056518499999981486
                },
                {
                    "name": "A#4",
                    "midi": 70,
                    "time": 274.0016880000013,
                    "velocity": 0.36220472440944884,
                    "duration": 0.2260739999999828
                },
                {
                    "name": "G#4",
                    "midi": 68,
                    "time": 274.2277620000013,
                    "velocity": 0.30708661417322836,
                    "duration": 0.11303700000001982
                },
                {
                    "name": "G4",
                    "midi": 67,
                    "time": 274.3407990000013,
                    "velocity": 0.30708661417322836,
                    "duration": 0.11303700000001982
                },
                {
                    "name": "F4",
                    "midi": 65,
                    "time": 274.45383600000133,
                    "velocity": 0.33858267716535434,
                    "duration": 0.2260739999999828
                },
                {
                    "name": "G4",
                    "midi": 67,
                    "time": 274.6799100000013,
                    "velocity": 0.36220472440944884,
                    "duration": 0.11303700000001982
                },
                {
                    "name": "A#4",
                    "midi": 70,
                    "time": 274.79294700000133,
                    "velocity": 0.2992125984251969,
                    "duration": 0.11303700000001982
                },
                {
                    "name": "G4",
                    "midi": 67,
                    "time": 274.90598400000135,
                    "velocity": 0.36220472440944884,
                    "duration": 0.11303700000001982
                },
                {
                    "name": "A#4",
                    "midi": 70,
                    "time": 275.0190210000014,
                    "velocity": 0.31496062992125984,
                    "duration": 0.11303700000001982
                },
                {
                    "name": "E4",
                    "midi": 64,
                    "time": 275.1320580000014,
                    "velocity": 0.36220472440944884,
                    "duration": 0.11303700000001982
                },
                {
                    "name": "G4",
                    "midi": 67,
                    "time": 275.2450950000014,
                    "velocity": 0.31496062992125984,
                    "duration": 0.11303700000001982
                },
                {
                    "name": "F4",
                    "midi": 65,
                    "time": 275.35813200000143,
                    "velocity": 0.36220472440944884,
                    "duration": 0.11303700000001982
                },
                {
                    "name": "G#4",
                    "midi": 68,
                    "time": 275.47116900000145,
                    "velocity": 0.29133858267716534,
                    "duration": 0.11303700000001982
                },
                {
                    "name": "C5",
                    "midi": 72,
                    "time": 275.5842060000015,
                    "velocity": 0.33070866141732286,
                    "duration": 0.11303700000001982
                },
                {
                    "name": "F5",
                    "midi": 77,
                    "time": 275.6972430000015,
                    "velocity": 0.3700787401574803,
                    "duration": 0.11303700000001982
                },
                {
                    "name": "G#5",
                    "midi": 80,
                    "time": 275.8102800000015,
                    "velocity": 0.4094488188976378,
                    "duration": 0.11303700000001982
                },
                {
                    "name": "A#5",
                    "midi": 82,
                    "time": 275.92331700000153,
                    "velocity": 0.44881889763779526,
                    "duration": 0.11303700000001982
                },
                {
                    "name": "C6",
                    "midi": 84,
                    "time": 276.03635400000155,
                    "velocity": 0.5118110236220472,
                    "duration": 0.056518499999981486
                },
                {
                    "name": "C6",
                    "midi": 84,
                    "time": 276.26242800000153,
                    "velocity": 0.4251968503937008,
                    "duration": 0.11303700000001982
                },
                {
                    "name": "C#6",
                    "midi": 85,
                    "time": 276.37546500000155,
                    "velocity": 0.36220472440944884,
                    "duration": 0.11303700000001982
                },
                {
                    "name": "C6",
                    "midi": 84,
                    "time": 276.4885020000016,
                    "velocity": 0.4330708661417323,
                    "duration": 0.056518499999981486
                },
                {
                    "name": "C#6",
                    "midi": 85,
                    "time": 276.71457600000156,
                    "velocity": 0.3779527559055118,
                    "duration": 0.056518499999981486
                },
                {
                    "name": "C6",
                    "midi": 84,
                    "time": 276.77109450000154,
                    "velocity": 0.5039370078740157,
                    "duration": 0.056518499999981486
                },
                {
                    "name": "C6",
                    "midi": 84,
                    "time": 276.94065000000154,
                    "velocity": 0.4094488188976378,
                    "duration": 0.11303700000001982
                },
                {
                    "name": "C#6",
                    "midi": 85,
                    "time": 277.05368700000156,
                    "velocity": 0.33858267716535434,
                    "duration": 0.11303700000001982
                },
                {
                    "name": "C6",
                    "midi": 84,
                    "time": 277.1667240000016,
                    "velocity": 0.3937007874015748,
                    "duration": 0.056518499999981486
                },
                {
                    "name": "C6",
                    "midi": 84,
                    "time": 277.39279800000156,
                    "velocity": 0.48031496062992124,
                    "duration": 0.11303700000001982
                },
                {
                    "name": "B5",
                    "midi": 83,
                    "time": 277.5058350000016,
                    "velocity": 0.3779527559055118,
                    "duration": 0.11303700000001982
                },
                {
                    "name": "F6",
                    "midi": 89,
                    "time": 277.6188720000016,
                    "velocity": 0.4409448818897638,
                    "duration": 0.11303700000001982
                },
                {
                    "name": "B5",
                    "midi": 83,
                    "time": 277.7319090000016,
                    "velocity": 0.3779527559055118,
                    "duration": 0.11303700000001982
                },
                {
                    "name": "F6",
                    "midi": 89,
                    "time": 277.84494600000164,
                    "velocity": 0.4251968503937008,
                    "duration": 0.11303700000001982
                },
                {
                    "name": "B5",
                    "midi": 83,
                    "time": 277.95798300000166,
                    "velocity": 0.33858267716535434,
                    "duration": 0.11303700000001982
                },
                {
                    "name": "C6",
                    "midi": 84,
                    "time": 278.0710200000017,
                    "velocity": 0.4330708661417323,
                    "duration": 0.056518499999981486
                },
                {
                    "name": "G5",
                    "midi": 79,
                    "time": 278.29709400000166,
                    "velocity": 0.36220472440944884,
                    "duration": 0.4521480000000224
                },
                {
                    "name": "C6",
                    "midi": 84,
                    "time": 278.7492420000017,
                    "velocity": 0.44881889763779526,
                    "duration": 0.056518499999981486
                },
                {
                    "name": "G5",
                    "midi": 79,
                    "time": 278.97531600000167,
                    "velocity": 0.36220472440944884,
                    "duration": 0.056518499999981486
                },
                {
                    "name": "C6",
                    "midi": 84,
                    "time": 279.20139000000165,
                    "velocity": 0.4330708661417323,
                    "duration": 0.056518499999981486
                },
                {
                    "name": "A#5",
                    "midi": 82,
                    "time": 279.42746400000163,
                    "velocity": 0.4881889763779528,
                    "duration": 0.2260739999999828
                },
                {
                    "name": "G#5",
                    "midi": 80,
                    "time": 279.6535380000016,
                    "velocity": 0.3858267716535433,
                    "duration": 0.11303700000001982
                },
                {
                    "name": "G5",
                    "midi": 79,
                    "time": 279.76657500000164,
                    "velocity": 0.3858267716535433,
                    "duration": 0.11303700000001982
                },
                {
                    "name": "F5",
                    "midi": 77,
                    "time": 279.87961200000166,
                    "velocity": 0.44881889763779526,
                    "duration": 0.2260739999999828
                },
                {
                    "name": "A#5",
                    "midi": 82,
                    "time": 280.10568600000164,
                    "velocity": 0.48031496062992124,
                    "duration": 0.056518499999981486
                },
                {
                    "name": "F5",
                    "midi": 77,
                    "time": 280.3317600000016,
                    "velocity": 0.3779527559055118,
                    "duration": 0.056518499999981486
                },
                {
                    "name": "A#5",
                    "midi": 82,
                    "time": 280.5578340000016,
                    "velocity": 0.44881889763779526,
                    "duration": 0.056518499999981486
                },
                {
                    "name": "G#5",
                    "midi": 80,
                    "time": 280.7839080000016,
                    "velocity": 0.49606299212598426,
                    "duration": 0.2260739999999828
                },
                {
                    "name": "G5",
                    "midi": 79,
                    "time": 281.00998200000157,
                    "velocity": 0.3937007874015748,
                    "duration": 0.11303700000001982
                },
                {
                    "name": "F5",
                    "midi": 77,
                    "time": 281.1230190000016,
                    "velocity": 0.3937007874015748,
                    "duration": 0.11303700000001982
                },
                {
                    "name": "D#5",
                    "midi": 75,
                    "time": 281.2360560000016,
                    "velocity": 0.4330708661417323,
                    "duration": 0.2260739999999828
                },
                {
                    "name": "G#5",
                    "midi": 80,
                    "time": 281.4621300000016,
                    "velocity": 0.5039370078740157,
                    "duration": 0.056518499999981486
                },
                {
                    "name": "D#5",
                    "midi": 75,
                    "time": 281.6882040000016,
                    "velocity": 0.3858267716535433,
                    "duration": 0.056518499999981486
                },
                {
                    "name": "G#5",
                    "midi": 80,
                    "time": 281.91427800000156,
                    "velocity": 0.4566929133858268,
                    "duration": 0.056518499999981486
                },
                {
                    "name": "A5",
                    "midi": 81,
                    "time": 282.14035200000154,
                    "velocity": 0.49606299212598426,
                    "duration": 0.056518499999981486
                },
                {
                    "name": "D#5",
                    "midi": 75,
                    "time": 282.3664260000015,
                    "velocity": 0.41732283464566927,
                    "duration": 0.056518499999981486
                },
                {
                    "name": "A5",
                    "midi": 81,
                    "time": 282.5925000000015,
                    "velocity": 0.48031496062992124,
                    "duration": 0.056518499999981486
                },
                {
                    "name": "A#5",
                    "midi": 82,
                    "time": 282.8185740000015,
                    "velocity": 0.5905511811023622,
                    "duration": 0.056518499999981486
                },
                {
                    "name": "D5",
                    "midi": 74,
                    "time": 283.0446480000015,
                    "velocity": 0.5433070866141733,
                    "duration": 0.056518499999981486
                },
                {
                    "name": "F5",
                    "midi": 77,
                    "time": 283.0446480000015,
                    "velocity": 0.5433070866141733,
                    "duration": 0.056518499999981486
                },
                {
                    "name": "D6",
                    "midi": 86,
                    "time": 283.27072200000146,
                    "velocity": 0.6062992125984252,
                    "duration": 0.056518499999981486
                },
                {
                    "name": "F5",
                    "midi": 77,
                    "time": 283.49679600000144,
                    "velocity": 0.5590551181102362,
                    "duration": 0.056518499999981486
                },
                {
                    "name": "A#5",
                    "midi": 82,
                    "time": 283.49679600000144,
                    "velocity": 0.5590551181102362,
                    "duration": 0.056518499999981486
                },
                {
                    "name": "F6",
                    "midi": 89,
                    "time": 283.7228700000014,
                    "velocity": 0.6535433070866141,
                    "duration": 0.056518499999981486
                },
                {
                    "name": "D6",
                    "midi": 86,
                    "time": 283.9489440000014,
                    "velocity": 0.5748031496062992,
                    "duration": 0.056518499999981486
                },
                {
                    "name": "A#5",
                    "midi": 82,
                    "time": 283.9489440000014,
                    "velocity": 0.5748031496062992,
                    "duration": 0.056518499999981486
                },
                {
                    "name": "G#6",
                    "midi": 92,
                    "time": 284.1750180000014,
                    "velocity": 0.6141732283464567,
                    "duration": 0.11303700000001982
                },
                {
                    "name": "F#6",
                    "midi": 90,
                    "time": 284.2880550000014,
                    "velocity": 0.5196850393700787,
                    "duration": 0.11303700000001982
                },
                {
                    "name": "F6",
                    "midi": 89,
                    "time": 284.4010920000014,
                    "velocity": 0.6062992125984252,
                    "duration": 0.11303700000001982
                },
                {
                    "name": "F#6",
                    "midi": 90,
                    "time": 284.51412900000145,
                    "velocity": 0.4881889763779528,
                    "duration": 0.11303700000001982
                },
                {
                    "name": "D#6",
                    "midi": 87,
                    "time": 284.62716600000147,
                    "velocity": 0.5433070866141733,
                    "duration": 0.11303700000001982
                },
                {
                    "name": "C6",
                    "midi": 84,
                    "time": 284.8532400000015,
                    "velocity": 0.5196850393700787,
                    "duration": 0.11303700000001982
                },
                {
                    "name": "A5",
                    "midi": 81,
                    "time": 285.07931400000155,
                    "velocity": 0.48031496062992124,
                    "duration": 0.11303700000001982
                },
                {
                    "name": "F#5",
                    "midi": 78,
                    "time": 285.3053880000016,
                    "velocity": 0.4094488188976378,
                    "duration": 0.11303700000001982
                },
                {
                    "name": "A#5",
                    "midi": 82,
                    "time": 285.5314620000016,
                    "velocity": 0.5905511811023622,
                    "duration": 0.056518499999981486
                },
                {
                    "name": "F5",
                    "midi": 77,
                    "time": 285.7575360000016,
                    "velocity": 0.5433070866141733,
                    "duration": 0.056518499999981486
                },
                {
                    "name": "D5",
                    "midi": 74,
                    "time": 285.7575360000016,
                    "velocity": 0.5433070866141733,
                    "duration": 0.056518499999981486
                },
                {
                    "name": "D6",
                    "midi": 86,
                    "time": 285.9836100000016,
                    "velocity": 0.6062992125984252,
                    "duration": 0.056518499999981486
                },
                {
                    "name": "A#5",
                    "midi": 82,
                    "time": 286.2096840000016,
                    "velocity": 0.5590551181102362,
                    "duration": 0.056518499999981486
                },
                {
                    "name": "F5",
                    "midi": 77,
                    "time": 286.2096840000016,
                    "velocity": 0.5590551181102362,
                    "duration": 0.056518499999981486
                },
                {
                    "name": "F6",
                    "midi": 89,
                    "time": 286.43575800000156,
                    "velocity": 0.6535433070866141,
                    "duration": 0.056518499999981486
                },
                {
                    "name": "D6",
                    "midi": 86,
                    "time": 286.66183200000154,
                    "velocity": 0.5748031496062992,
                    "duration": 0.056518499999981486
                },
                {
                    "name": "A#5",
                    "midi": 82,
                    "time": 286.66183200000154,
                    "velocity": 0.5748031496062992,
                    "duration": 0.056518499999981486
                },
                {
                    "name": "G#6",
                    "midi": 92,
                    "time": 286.8879060000015,
                    "velocity": 0.6141732283464567,
                    "duration": 0.11303700000001982
                },
                {
                    "name": "F#6",
                    "midi": 90,
                    "time": 287.00094300000154,
                    "velocity": 0.5196850393700787,
                    "duration": 0.11303700000001982
                },
                {
                    "name": "F6",
                    "midi": 89,
                    "time": 287.11398000000156,
                    "velocity": 0.6062992125984252,
                    "duration": 0.11303700000001982
                },
                {
                    "name": "F#6",
                    "midi": 90,
                    "time": 287.2270170000016,
                    "velocity": 0.4881889763779528,
                    "duration": 0.11303700000001982
                },
                {
                    "name": "D#6",
                    "midi": 87,
                    "time": 287.3400540000016,
                    "velocity": 0.5433070866141733,
                    "duration": 0.11303700000001982
                },
                {
                    "name": "C6",
                    "midi": 84,
                    "time": 287.56612800000164,
                    "velocity": 0.5196850393700787,
                    "duration": 0.11303700000001982
                },
                {
                    "name": "A5",
                    "midi": 81,
                    "time": 287.7922020000017,
                    "velocity": 0.48031496062992124,
                    "duration": 0.11303700000001982
                },
                {
                    "name": "F#5",
                    "midi": 78,
                    "time": 288.0182760000017,
                    "velocity": 0.4094488188976378,
                    "duration": 0.11303700000001982
                },
                {
                    "name": "A#5",
                    "midi": 82,
                    "time": 288.24435000000176,
                    "velocity": 0.5905511811023622,
                    "duration": 0.056518499999981486
                },
                {
                    "name": "F5",
                    "midi": 77,
                    "time": 288.47042400000174,
                    "velocity": 0.5433070866141733,
                    "duration": 0.056518499999981486
                },
                {
                    "name": "D5",
                    "midi": 74,
                    "time": 288.47042400000174,
                    "velocity": 0.5433070866141733,
                    "duration": 0.056518499999981486
                },
                {
                    "name": "B5",
                    "midi": 83,
                    "time": 288.6964980000017,
                    "velocity": 0.6062992125984252,
                    "duration": 0.056518499999981486
                },
                {
                    "name": "F5",
                    "midi": 77,
                    "time": 288.9225720000017,
                    "velocity": 0.5590551181102362,
                    "duration": 0.056518499999981486
                },
                {
                    "name": "D5",
                    "midi": 74,
                    "time": 288.9225720000017,
                    "velocity": 0.5590551181102362,
                    "duration": 0.056518499999981486
                },
                {
                    "name": "D6",
                    "midi": 86,
                    "time": 289.1486460000017,
                    "velocity": 0.6692913385826772,
                    "duration": 0.056518499999981486
                },
                {
                    "name": "B5",
                    "midi": 83,
                    "time": 289.3747200000017,
                    "velocity": 0.5748031496062992,
                    "duration": 0.056518499999981486
                },
                {
                    "name": "F5",
                    "midi": 77,
                    "time": 289.3747200000017,
                    "velocity": 0.5748031496062992,
                    "duration": 0.056518499999981486
                },
                {
                    "name": "C6",
                    "midi": 84,
                    "time": 289.60079400000166,
                    "velocity": 0.5905511811023622,
                    "duration": 0.056518499999981486
                },
                {
                    "name": "E5",
                    "midi": 76,
                    "time": 289.82686800000164,
                    "velocity": 0.5433070866141733,
                    "duration": 0.056518499999981486
                },
                {
                    "name": "G5",
                    "midi": 79,
                    "time": 289.82686800000164,
                    "velocity": 0.5433070866141733,
                    "duration": 0.056518499999981486
                },
                {
                    "name": "E6",
                    "midi": 88,
                    "time": 290.0529420000016,
                    "velocity": 0.6062992125984252,
                    "duration": 0.056518499999981486
                },
                {
                    "name": "C#6",
                    "midi": 85,
                    "time": 290.2790160000016,
                    "velocity": 0.5590551181102362,
                    "duration": 0.056518499999981486
                },
                {
                    "name": "G5",
                    "midi": 79,
                    "time": 290.2790160000016,
                    "velocity": 0.5590551181102362,
                    "duration": 0.056518499999981486
                },
                {
                    "name": "G6",
                    "midi": 91,
                    "time": 290.5050900000016,
                    "velocity": 0.6535433070866141,
                    "duration": 0.056518499999981486
                },
                {
                    "name": "A#5",
                    "midi": 82,
                    "time": 290.73116400000157,
                    "velocity": 0.5748031496062992,
                    "duration": 0.056518499999981486
                },
                {
                    "name": "C#6",
                    "midi": 85,
                    "time": 290.73116400000157,
                    "velocity": 0.5748031496062992,
                    "duration": 0.056518499999981486
                },
                {
                    "name": "E6",
                    "midi": 88,
                    "time": 290.73116400000157,
                    "velocity": 0.5748031496062992,
                    "duration": 0.056518499999981486
                },
                {
                    "name": "F6",
                    "midi": 89,
                    "time": 290.95723800000155,
                    "velocity": 0.5905511811023622,
                    "duration": 0.056518499999981486
                },
                {
                    "name": "F5",
                    "midi": 77,
                    "time": 291.18331200000154,
                    "velocity": 0.5433070866141733,
                    "duration": 0.056518499999981486
                },
                {
                    "name": "C6",
                    "midi": 84,
                    "time": 291.18331200000154,
                    "velocity": 0.5433070866141733,
                    "duration": 0.056518499999981486
                },
                {
                    "name": "A#6",
                    "midi": 94,
                    "time": 291.4093860000015,
                    "velocity": 0.6062992125984252,
                    "duration": 0.056518499999981486
                },
                {
                    "name": "A#5",
                    "midi": 82,
                    "time": 291.6354600000015,
                    "velocity": 0.5590551181102362,
                    "duration": 0.056518499999981486
                },
                {
                    "name": "C7",
                    "midi": 96,
                    "time": 291.8615340000015,
                    "velocity": 0.6535433070866141,
                    "duration": 0.056518499999981486
                },
                {
                    "name": "C6",
                    "midi": 84,
                    "time": 292.08760800000147,
                    "velocity": 0.5748031496062992,
                    "duration": 0.056518499999981486
                },
                {
                    "name": "F6",
                    "midi": 89,
                    "time": 292.31368200000145,
                    "velocity": 0.5748031496062992,
                    "duration": 0.11303700000001982
                },
                {
                    "name": "F7",
                    "midi": 101,
                    "time": 292.31368200000145,
                    "velocity": 0.6850393700787402,
                    "duration": 0.11303700000001982
                },
                {
                    "name": "G6",
                    "midi": 91,
                    "time": 292.5397560000015,
                    "velocity": 0.5748031496062992,
                    "duration": 0.056518499999981486
                },
                {
                    "name": "G#6",
                    "midi": 92,
                    "time": 292.59627450000147,
                    "velocity": 0.41732283464566927,
                    "duration": 0.056518499999981486
                },
                {
                    "name": "G6",
                    "midi": 91,
                    "time": 292.65279300000145,
                    "velocity": 0.4566929133858268,
                    "duration": 0.056518499999981486
                },
                {
                    "name": "G#6",
                    "midi": 92,
                    "time": 292.70931150000143,
                    "velocity": 0.4251968503937008,
                    "duration": 0.056518499999981486
                },
                {
                    "name": "G6",
                    "midi": 91,
                    "time": 292.7658300000014,
                    "velocity": 0.4566929133858268,
                    "duration": 0.056518499999981486
                },
                {
                    "name": "G#6",
                    "midi": 92,
                    "time": 292.8223485000014,
                    "velocity": 0.4094488188976378,
                    "duration": 0.056518499999981486
                },
                {
                    "name": "G6",
                    "midi": 91,
                    "time": 292.8788670000014,
                    "velocity": 0.4566929133858268,
                    "duration": 0.056518499999981486
                },
                {
                    "name": "G#6",
                    "midi": 92,
                    "time": 292.93538550000136,
                    "velocity": 0.4094488188976378,
                    "duration": 0.056518499999981486
                },
                {
                    "name": "G6",
                    "midi": 91,
                    "time": 292.99190400000134,
                    "velocity": 0.4566929133858268,
                    "duration": 0.056518499999981486
                },
                {
                    "name": "G#6",
                    "midi": 92,
                    "time": 293.0484225000013,
                    "velocity": 0.4094488188976378,
                    "duration": 0.056518499999981486
                },
                {
                    "name": "G6",
                    "midi": 91,
                    "time": 293.1049410000013,
                    "velocity": 0.4566929133858268,
                    "duration": 0.07535799999999426
                },
                {
                    "name": "G#6",
                    "midi": 92,
                    "time": 293.1802990000013,
                    "velocity": 0.4251968503937008,
                    "duration": 0.07535799999999426
                },
                {
                    "name": "G6",
                    "midi": 91,
                    "time": 293.2556570000013,
                    "velocity": 0.4566929133858268,
                    "duration": 0.07535799999999426
                },
                {
                    "name": "F#6",
                    "midi": 90,
                    "time": 293.3310150000013,
                    "velocity": 0.4251968503937008,
                    "duration": 0.056518499999981486
                },
                {
                    "name": "G6",
                    "midi": 91,
                    "time": 293.38753350000127,
                    "velocity": 0.4409448818897638,
                    "duration": 0.056518499999981486
                },
                {
                    "name": "G#6",
                    "midi": 92,
                    "time": 293.44405200000125,
                    "velocity": 0.5039370078740157,
                    "duration": 0.11303700000001982
                },
                {
                    "name": "G6",
                    "midi": 91,
                    "time": 293.55708900000127,
                    "velocity": 0.4566929133858268,
                    "duration": 0.11303700000001982
                },
                {
                    "name": "F6",
                    "midi": 89,
                    "time": 293.6701260000013,
                    "velocity": 0.6377952755905512,
                    "duration": 0.11303700000001982
                },
                {
                    "name": "G5",
                    "midi": 79,
                    "time": 293.89620000000133,
                    "velocity": 0.5748031496062992,
                    "duration": 0.056518499999981486
                },
                {
                    "name": "G#5",
                    "midi": 80,
                    "time": 293.9527185000013,
                    "velocity": 0.5275590551181102,
                    "duration": 0.056518499999981486
                },
                {
                    "name": "G5",
                    "midi": 79,
                    "time": 294.0092370000013,
                    "velocity": 0.4566929133858268,
                    "duration": 0.056518499999981486
                },
                {
                    "name": "G#5",
                    "midi": 80,
                    "time": 294.0657555000013,
                    "velocity": 0.4251968503937008,
                    "duration": 0.056518499999981486
                },
                {
                    "name": "G5",
                    "midi": 79,
                    "time": 294.12227400000125,
                    "velocity": 0.4566929133858268,
                    "duration": 0.056518499999981486
                },
                {
                    "name": "G#5",
                    "midi": 80,
                    "time": 294.17879250000124,
                    "velocity": 0.4094488188976378,
                    "duration": 0.056518499999981486
                },
                {
                    "name": "G5",
                    "midi": 79,
                    "time": 294.2353110000012,
                    "velocity": 0.4566929133858268,
                    "duration": 0.056518499999981486
                },
                {
                    "name": "G#5",
                    "midi": 80,
                    "time": 294.2918295000012,
                    "velocity": 0.4094488188976378,
                    "duration": 0.056518499999981486
                },
                {
                    "name": "G5",
                    "midi": 79,
                    "time": 294.3483480000012,
                    "velocity": 0.4566929133858268,
                    "duration": 0.056518499999981486
                },
                {
                    "name": "G#5",
                    "midi": 80,
                    "time": 294.40486650000116,
                    "velocity": 0.4094488188976378,
                    "duration": 0.056518499999981486
                },
                {
                    "name": "G5",
                    "midi": 79,
                    "time": 294.46138500000114,
                    "velocity": 0.4566929133858268,
                    "duration": 0.07535799999999426
                },
                {
                    "name": "G#5",
                    "midi": 80,
                    "time": 294.53674300000114,
                    "velocity": 0.4251968503937008,
                    "duration": 0.07535799999999426
                },
                {
                    "name": "G5",
                    "midi": 79,
                    "time": 294.61210100000113,
                    "velocity": 0.4566929133858268,
                    "duration": 0.07535799999999426
                },
                {
                    "name": "F#5",
                    "midi": 78,
                    "time": 294.6874590000011,
                    "velocity": 0.4251968503937008,
                    "duration": 0.056518499999981486
                },
                {
                    "name": "G5",
                    "midi": 79,
                    "time": 294.7439775000011,
                    "velocity": 0.4409448818897638,
                    "duration": 0.056518499999981486
                },
                {
                    "name": "G#5",
                    "midi": 80,
                    "time": 294.8004960000011,
                    "velocity": 0.5039370078740157,
                    "duration": 0.11303700000001982
                },
                {
                    "name": "G5",
                    "midi": 79,
                    "time": 294.9135330000011,
                    "velocity": 0.4566929133858268,
                    "duration": 0.11303700000001982
                },
                {
                    "name": "F5",
                    "midi": 77,
                    "time": 295.02657000000113,
                    "velocity": 0.6377952755905512,
                    "duration": 0.11303700000001982
                },
                {
                    "name": "G6",
                    "midi": 91,
                    "time": 295.25264400000117,
                    "velocity": 0.5748031496062992,
                    "duration": 0.056518499999981486
                },
                {
                    "name": "G#6",
                    "midi": 92,
                    "time": 295.30916250000115,
                    "velocity": 0.5275590551181102,
                    "duration": 0.056518499999981486
                },
                {
                    "name": "G6",
                    "midi": 91,
                    "time": 295.36568100000113,
                    "velocity": 0.4566929133858268,
                    "duration": 0.056518499999981486
                },
                {
                    "name": "G#6",
                    "midi": 92,
                    "time": 295.4221995000011,
                    "velocity": 0.4251968503937008,
                    "duration": 0.056518499999981486
                },
                {
                    "name": "G6",
                    "midi": 91,
                    "time": 295.4787180000011,
                    "velocity": 0.4566929133858268,
                    "duration": 0.056518499999981486
                },
                {
                    "name": "G#6",
                    "midi": 92,
                    "time": 295.5352365000011,
                    "velocity": 0.4094488188976378,
                    "duration": 0.056518499999981486
                },
                {
                    "name": "G6",
                    "midi": 91,
                    "time": 295.59175500000106,
                    "velocity": 0.4566929133858268,
                    "duration": 0.056518499999981486
                },
                {
                    "name": "G#6",
                    "midi": 92,
                    "time": 295.64827350000104,
                    "velocity": 0.4094488188976378,
                    "duration": 0.056518499999981486
                },
                {
                    "name": "F#6",
                    "midi": 90,
                    "time": 295.704792000001,
                    "velocity": 0.4566929133858268,
                    "duration": 0.056518499999981486
                },
                {
                    "name": "G6",
                    "midi": 91,
                    "time": 295.761310500001,
                    "velocity": 0.41732283464566927,
                    "duration": 0.056518499999981486
                },
                {
                    "name": "G#6",
                    "midi": 92,
                    "time": 295.817829000001,
                    "velocity": 0.4251968503937008,
                    "duration": 0.056518499999981486
                },
                {
                    "name": "A#6",
                    "midi": 94,
                    "time": 295.87434750000097,
                    "velocity": 0.4409448818897638,
                    "duration": 0.056518499999981486
                },
                {
                    "name": "C7",
                    "midi": 96,
                    "time": 295.93086600000095,
                    "velocity": 0.44881889763779526,
                    "duration": 0.056518499999981486
                },
                {
                    "name": "C#7",
                    "midi": 97,
                    "time": 295.9873845000009,
                    "velocity": 0.4566929133858268,
                    "duration": 0.056518499999981486
                },
                {
                    "name": "E7",
                    "midi": 100,
                    "time": 296.0439030000009,
                    "velocity": 0.47244094488188976,
                    "duration": 0.056518499999981486
                },
                {
                    "name": "F7",
                    "midi": 101,
                    "time": 296.1004215000009,
                    "velocity": 0.4881889763779528,
                    "duration": 0.056518499999981486
                },
                {
                    "name": "E7",
                    "midi": 100,
                    "time": 296.1569400000009,
                    "velocity": 0.49606299212598426,
                    "duration": 0.03767900000002555
                },
                {
                    "name": "C#7",
                    "midi": 97,
                    "time": 296.1946190000009,
                    "velocity": 0.4881889763779528,
                    "duration": 0.03767900000002555
                },
                {
                    "name": "C7",
                    "midi": 96,
                    "time": 296.2332399750009,
                    "velocity": 0.48031496062992124,
                    "duration": 0.03767900000002555
                },
                {
                    "name": "A#6",
                    "midi": 94,
                    "time": 296.27091897500094,
                    "velocity": 0.48031496062992124,
                    "duration": 0.03767899999996871
                },
                {
                    "name": "G#6",
                    "midi": 92,
                    "time": 296.3076560000009,
                    "velocity": 0.47244094488188976,
                    "duration": 0.03767899999996871
                },
                {
                    "name": "G6",
                    "midi": 91,
                    "time": 296.3453350000009,
                    "velocity": 0.4645669291338583,
                    "duration": 0.03767900000002555
                },
                {
                    "name": "F6",
                    "midi": 89,
                    "time": 296.3830140000009,
                    "velocity": 0.6377952755905512,
                    "duration": 0.11303700000001982
                },
                {
                    "name": "G5",
                    "midi": 79,
                    "time": 296.60908800000095,
                    "velocity": 0.5748031496062992,
                    "duration": 0.056518499999981486
                },
                {
                    "name": "G#5",
                    "midi": 80,
                    "time": 296.66560650000093,
                    "velocity": 0.5275590551181102,
                    "duration": 0.056518499999981486
                },
                {
                    "name": "G5",
                    "midi": 79,
                    "time": 296.7221250000009,
                    "velocity": 0.4566929133858268,
                    "duration": 0.056518499999981486
                },
                {
                    "name": "G#5",
                    "midi": 80,
                    "time": 296.7786435000009,
                    "velocity": 0.4251968503937008,
                    "duration": 0.056518499999981486
                },
                {
                    "name": "G5",
                    "midi": 79,
                    "time": 296.8351620000009,
                    "velocity": 0.4566929133858268,
                    "duration": 0.056518499999981486
                },
                {
                    "name": "G#5",
                    "midi": 80,
                    "time": 296.89168050000086,
                    "velocity": 0.4094488188976378,
                    "duration": 0.056518499999981486
                },
                {
                    "name": "G5",
                    "midi": 79,
                    "time": 296.94819900000084,
                    "velocity": 0.4566929133858268,
                    "duration": 0.056518499999981486
                },
                {
                    "name": "G#5",
                    "midi": 80,
                    "time": 297.0047175000008,
                    "velocity": 0.4094488188976378,
                    "duration": 0.056518499999981486
                },
                {
                    "name": "F#5",
                    "midi": 78,
                    "time": 297.0612360000008,
                    "velocity": 0.4330708661417323,
                    "duration": 0.030143199999997705
                },
                {
                    "name": "G5",
                    "midi": 79,
                    "time": 297.0913792000008,
                    "velocity": 0.4330708661417323,
                    "duration": 0.029201225000008435
                },
                {
                    "name": "G#5",
                    "midi": 80,
                    "time": 297.1215224000008,
                    "velocity": 0.44881889763779526,
                    "duration": 0.029201225000008435
                },
                {
                    "name": "A#5",
                    "midi": 82,
                    "time": 297.1507236250008,
                    "velocity": 0.44881889763779526,
                    "duration": 0.030143199999997705
                },
                {
                    "name": "C6",
                    "midi": 84,
                    "time": 297.1808668250008,
                    "velocity": 0.47244094488188976,
                    "duration": 0.029201225000008435
                },
                {
                    "name": "C#6",
                    "midi": 85,
                    "time": 297.2100680500008,
                    "velocity": 0.4881889763779528,
                    "duration": 0.029201225000008435
                },
                {
                    "name": "E6",
                    "midi": 88,
                    "time": 297.2402112500008,
                    "velocity": 0.5039370078740157,
                    "duration": 0.030143199999997705
                },
                {
                    "name": "F6",
                    "midi": 89,
                    "time": 297.2703544500008,
                    "velocity": 0.5275590551181102,
                    "duration": 0.030143199999997705
                },
                {
                    "name": "G6",
                    "midi": 91,
                    "time": 297.3004976500008,
                    "velocity": 0.5354330708661418,
                    "duration": 0.029201225000008435
                },
                {
                    "name": "F6",
                    "midi": 89,
                    "time": 297.3296988750008,
                    "velocity": 0.5354330708661418,
                    "duration": 0.030143199999997705
                },
                {
                    "name": "E6",
                    "midi": 88,
                    "time": 297.3598420750008,
                    "velocity": 0.5118110236220472,
                    "duration": 0.029201225000008435
                },
                {
                    "name": "C#6",
                    "midi": 85,
                    "time": 297.38810132500083,
                    "velocity": 0.49606299212598426,
                    "duration": 0.029201225000008435
                },
                {
                    "name": "C6",
                    "midi": 84,
                    "time": 297.41824452500083,
                    "velocity": 0.48031496062992124,
                    "duration": 0.029201225000008435
                },
                {
                    "name": "A#5",
                    "midi": 82,
                    "time": 297.44744575000084,
                    "velocity": 0.4645669291338583,
                    "duration": 0.029201225000008435
                },
                {
                    "name": "G#5",
                    "midi": 80,
                    "time": 297.47570500000086,
                    "velocity": 0.44881889763779526,
                    "duration": 0.029201225000008435
                },
                {
                    "name": "G5",
                    "midi": 79,
                    "time": 297.50490622500087,
                    "velocity": 0.44881889763779526,
                    "duration": 0.029201225000008435
                },
                {
                    "name": "F5",
                    "midi": 77,
                    "time": 297.5341074500009,
                    "velocity": 0.4251968503937008,
                    "duration": 0.029201225000008435
                },
                {
                    "name": "E5",
                    "midi": 76,
                    "time": 297.5633086750009,
                    "velocity": 0.3937007874015748,
                    "duration": 0.029201225000008435
                },
                {
                    "name": "C#5",
                    "midi": 73,
                    "time": 297.5925099000009,
                    "velocity": 0.3858267716535433,
                    "duration": 0.029201225000008435
                },
                {
                    "name": "C5",
                    "midi": 72,
                    "time": 297.6207691500009,
                    "velocity": 0.3700787401574803,
                    "duration": 0.029201225000008435
                },
                {
                    "name": "A#4",
                    "midi": 70,
                    "time": 297.6499703750009,
                    "velocity": 0.36220472440944884,
                    "duration": 0.029201225000008435
                },
                {
                    "name": "G#4",
                    "midi": 68,
                    "time": 297.6791716000009,
                    "velocity": 0.3464566929133858,
                    "duration": 0.029201225000008435
                },
                {
                    "name": "G4",
                    "midi": 67,
                    "time": 297.70743085000095,
                    "velocity": 0.33070866141732286,
                    "duration": 0.032027149999976245
                },
                {
                    "name": "F4",
                    "midi": 65,
                    "time": 297.7394580000009,
                    "velocity": 0.5039370078740157,
                    "duration": 0.056518499999981486
                },
                {
                    "name": "C4",
                    "midi": 60,
                    "time": 297.9655320000009,
                    "velocity": 0.33858267716535434,
                    "duration": 0.056518499999981486
                },
                {
                    "name": "F4",
                    "midi": 65,
                    "time": 298.1916060000009,
                    "velocity": 0.4015748031496063,
                    "duration": 0.056518499999981486
                },
                {
                    "name": "C4",
                    "midi": 60,
                    "time": 298.41768000000087,
                    "velocity": 0.3464566929133858,
                    "duration": 0.056518499999981486
                },
                {
                    "name": "F4",
                    "midi": 65,
                    "time": 298.64375400000085,
                    "velocity": 0.4015748031496063,
                    "duration": 0.056518499999981486
                },
                {
                    "name": "C4",
                    "midi": 60,
                    "time": 298.86982800000084,
                    "velocity": 0.33070866141732286,
                    "duration": 0.056518499999981486
                },
                {
                    "name": "F4",
                    "midi": 65,
                    "time": 299.0959020000008,
                    "velocity": 0.4094488188976378,
                    "duration": 0.056518499999981486
                },
                {
                    "name": "C4",
                    "midi": 60,
                    "time": 299.3219760000008,
                    "velocity": 0.33858267716535434,
                    "duration": 0.056518499999981486
                },
                {
                    "name": "F4",
                    "midi": 65,
                    "time": 299.5480500000008,
                    "velocity": 0.4015748031496063,
                    "duration": 0.056518499999981486
                },
                {
                    "name": "C4",
                    "midi": 60,
                    "time": 299.77412400000077,
                    "velocity": 0.3464566929133858,
                    "duration": 0.056518499999981486
                },
                {
                    "name": "F4",
                    "midi": 65,
                    "time": 300.00019800000075,
                    "velocity": 0.4015748031496063,
                    "duration": 0.056518499999981486
                },
                {
                    "name": "C4",
                    "midi": 60,
                    "time": 300.22627200000073,
                    "velocity": 0.33070866141732286,
                    "duration": 0.056518499999981486
                },
                {
                    "name": "G#4",
                    "midi": 68,
                    "time": 300.4523460000007,
                    "velocity": 0.4094488188976378,
                    "duration": 0.056518499999981486
                },
                {
                    "name": "F4",
                    "midi": 65,
                    "time": 300.4523460000007,
                    "velocity": 0.4094488188976378,
                    "duration": 0.056518499999981486
                },
                {
                    "name": "C4",
                    "midi": 60,
                    "time": 300.6784200000007,
                    "velocity": 0.33070866141732286,
                    "duration": 0.056518499999981486
                },
                {
                    "name": "F4",
                    "midi": 65,
                    "time": 300.6784200000007,
                    "velocity": 0.33070866141732286,
                    "duration": 0.056518499999981486
                },
                {
                    "name": "G#4",
                    "midi": 68,
                    "time": 300.9044940000007,
                    "velocity": 0.3858267716535433,
                    "duration": 0.056518499999981486
                },
                {
                    "name": "F4",
                    "midi": 65,
                    "time": 300.9044940000007,
                    "velocity": 0.3858267716535433,
                    "duration": 0.056518499999981486
                },
                {
                    "name": "C4",
                    "midi": 60,
                    "time": 301.13056800000066,
                    "velocity": 0.3228346456692913,
                    "duration": 0.056518499999981486
                },
                {
                    "name": "F4",
                    "midi": 65,
                    "time": 301.13056800000066,
                    "velocity": 0.3228346456692913,
                    "duration": 0.056518499999981486
                },
                {
                    "name": "F4",
                    "midi": 65,
                    "time": 301.35664200000065,
                    "velocity": 0.3700787401574803,
                    "duration": 0.056518499999981486
                },
                {
                    "name": "G#4",
                    "midi": 68,
                    "time": 301.35664200000065,
                    "velocity": 0.31496062992125984,
                    "duration": 0.056518499999981486
                },
                {
                    "name": "C4",
                    "midi": 60,
                    "time": 301.58271600000063,
                    "velocity": 0.2992125984251969,
                    "duration": 0.056518499999981486
                },
                {
                    "name": "F4",
                    "midi": 65,
                    "time": 301.58271600000063,
                    "velocity": 0.31496062992125984,
                    "duration": 0.056518499999981486
                },
                {
                    "name": "G#4",
                    "midi": 68,
                    "time": 301.8087900000006,
                    "velocity": 0.36220472440944884,
                    "duration": 0.056518499999981486
                },
                {
                    "name": "F4",
                    "midi": 65,
                    "time": 301.8087900000006,
                    "velocity": 0.36220472440944884,
                    "duration": 0.056518499999981486
                },
                {
                    "name": "F4",
                    "midi": 65,
                    "time": 302.0348640000006,
                    "velocity": 0.2992125984251969,
                    "duration": 0.056518499999981486
                },
                {
                    "name": "C4",
                    "midi": 60,
                    "time": 302.0348640000006,
                    "velocity": 0.2992125984251969,
                    "duration": 0.056518499999981486
                },
                {
                    "name": "F4",
                    "midi": 65,
                    "time": 302.2609380000006,
                    "velocity": 0.3464566929133858,
                    "duration": 0.056518499999981486
                },
                {
                    "name": "G#4",
                    "midi": 68,
                    "time": 302.2609380000006,
                    "velocity": 0.3464566929133858,
                    "duration": 0.056518499999981486
                },
                {
                    "name": "F4",
                    "midi": 65,
                    "time": 302.48701200000056,
                    "velocity": 0.29133858267716534,
                    "duration": 0.056518499999981486
                },
                {
                    "name": "C4",
                    "midi": 60,
                    "time": 302.48701200000056,
                    "velocity": 0.29133858267716534,
                    "duration": 0.056518499999981486
                },
                {
                    "name": "F4",
                    "midi": 65,
                    "time": 302.71308600000054,
                    "velocity": 0.33070866141732286,
                    "duration": 0.056518499999981486
                },
                {
                    "name": "G#4",
                    "midi": 68,
                    "time": 302.71308600000054,
                    "velocity": 0.28346456692913385,
                    "duration": 0.056518499999981486
                },
                {
                    "name": "F4",
                    "midi": 65,
                    "time": 302.9391600000005,
                    "velocity": 0.28346456692913385,
                    "duration": 0.056518499999981486
                },
                {
                    "name": "C4",
                    "midi": 60,
                    "time": 302.9391600000005,
                    "velocity": 0.2677165354330709,
                    "duration": 0.056518499999981486
                },
                {
                    "name": "G#4",
                    "midi": 68,
                    "time": 303.1652340000005,
                    "velocity": 0.3228346456692913,
                    "duration": 0.056518499999981486
                },
                {
                    "name": "F4",
                    "midi": 65,
                    "time": 303.1652340000005,
                    "velocity": 0.3228346456692913,
                    "duration": 0.056518499999981486
                },
                {
                    "name": "F4",
                    "midi": 65,
                    "time": 303.3913080000005,
                    "velocity": 0.2677165354330709,
                    "duration": 0.056518499999981486
                },
                {
                    "name": "C#4",
                    "midi": 61,
                    "time": 303.3913080000005,
                    "velocity": 0.2677165354330709,
                    "duration": 0.056518499999981486
                },
                {
                    "name": "G#4",
                    "midi": 68,
                    "time": 303.6173820000005,
                    "velocity": 0.31496062992125984,
                    "duration": 0.056518499999981486
                },
                {
                    "name": "F4",
                    "midi": 65,
                    "time": 303.6173820000005,
                    "velocity": 0.31496062992125984,
                    "duration": 0.056518499999981486
                },
                {
                    "name": "C#4",
                    "midi": 61,
                    "time": 303.84345600000046,
                    "velocity": 0.2755905511811024,
                    "duration": 0.056518499999981486
                },
                {
                    "name": "F4",
                    "midi": 65,
                    "time": 303.84345600000046,
                    "velocity": 0.2755905511811024,
                    "duration": 0.056518499999981486
                },
                {
                    "name": "F4",
                    "midi": 65,
                    "time": 304.06953000000044,
                    "velocity": 0.31496062992125984,
                    "duration": 0.056518499999981486
                },
                {
                    "name": "G#4",
                    "midi": 68,
                    "time": 304.06953000000044,
                    "velocity": 0.2755905511811024,
                    "duration": 0.056518499999981486
                },
                {
                    "name": "F4",
                    "midi": 65,
                    "time": 304.2956040000004,
                    "velocity": 0.2755905511811024,
                    "duration": 0.056518499999981486
                },
                {
                    "name": "C#4",
                    "midi": 61,
                    "time": 304.2956040000004,
                    "velocity": 0.25984251968503935,
                    "duration": 0.056518499999981486
                },
                {
                    "name": "F4",
                    "midi": 65,
                    "time": 304.5216780000004,
                    "velocity": 0.3228346456692913,
                    "duration": 0.056518499999981486
                },
                {
                    "name": "G#4",
                    "midi": 68,
                    "time": 304.5216780000004,
                    "velocity": 0.3228346456692913,
                    "duration": 0.056518499999981486
                },
                {
                    "name": "C#4",
                    "midi": 61,
                    "time": 304.7477520000004,
                    "velocity": 0.2677165354330709,
                    "duration": 0.056518499999981486
                },
                {
                    "name": "F4",
                    "midi": 65,
                    "time": 304.7477520000004,
                    "velocity": 0.2677165354330709,
                    "duration": 0.056518499999981486
                },
                {
                    "name": "G#4",
                    "midi": 68,
                    "time": 304.9738260000004,
                    "velocity": 0.31496062992125984,
                    "duration": 0.056518499999981486
                },
                {
                    "name": "F4",
                    "midi": 65,
                    "time": 304.9738260000004,
                    "velocity": 0.31496062992125984,
                    "duration": 0.056518499999981486
                },
                {
                    "name": "F4",
                    "midi": 65,
                    "time": 305.19990000000035,
                    "velocity": 0.2755905511811024,
                    "duration": 0.056518499999981486
                },
                {
                    "name": "C#4",
                    "midi": 61,
                    "time": 305.19990000000035,
                    "velocity": 0.2755905511811024,
                    "duration": 0.056518499999981486
                },
                {
                    "name": "G#4",
                    "midi": 68,
                    "time": 305.42597400000034,
                    "velocity": 0.2755905511811024,
                    "duration": 0.056518499999981486
                },
                {
                    "name": "F4",
                    "midi": 65,
                    "time": 305.42597400000034,
                    "velocity": 0.31496062992125984,
                    "duration": 0.056518499999981486
                },
                {
                    "name": "C#4",
                    "midi": 61,
                    "time": 305.6520480000003,
                    "velocity": 0.25984251968503935,
                    "duration": 0.056518499999981486
                },
                {
                    "name": "F4",
                    "midi": 65,
                    "time": 305.6520480000003,
                    "velocity": 0.2755905511811024,
                    "duration": 0.056518499999981486
                },
                {
                    "name": "G#4",
                    "midi": 68,
                    "time": 305.8781220000003,
                    "velocity": 0.3228346456692913,
                    "duration": 0.056518499999981486
                },
                {
                    "name": "F#4",
                    "midi": 66,
                    "time": 305.8781220000003,
                    "velocity": 0.3228346456692913,
                    "duration": 0.056518499999981486
                },
                {
                    "name": "F#4",
                    "midi": 66,
                    "time": 306.1041960000003,
                    "velocity": 0.2677165354330709,
                    "duration": 0.056518499999981486
                },
                {
                    "name": "D#4",
                    "midi": 63,
                    "time": 306.1041960000003,
                    "velocity": 0.2677165354330709,
                    "duration": 0.056518499999981486
                },
                {
                    "name": "G#4",
                    "midi": 68,
                    "time": 306.33027000000027,
                    "velocity": 0.31496062992125984,
                    "duration": 0.056518499999981486
                },
                {
                    "name": "F#4",
                    "midi": 66,
                    "time": 306.33027000000027,
                    "velocity": 0.31496062992125984,
                    "duration": 0.056518499999981486
                },
                {
                    "name": "F#4",
                    "midi": 66,
                    "time": 306.55634400000025,
                    "velocity": 0.2755905511811024,
                    "duration": 0.056518499999981486
                },
                {
                    "name": "D#4",
                    "midi": 63,
                    "time": 306.55634400000025,
                    "velocity": 0.2755905511811024,
                    "duration": 0.056518499999981486
                },
                {
                    "name": "G#4",
                    "midi": 68,
                    "time": 306.78241800000023,
                    "velocity": 0.2755905511811024,
                    "duration": 0.056518499999981486
                },
                {
                    "name": "F#4",
                    "midi": 66,
                    "time": 306.78241800000023,
                    "velocity": 0.31496062992125984,
                    "duration": 0.056518499999981486
                },
                {
                    "name": "F#4",
                    "midi": 66,
                    "time": 307.0084920000002,
                    "velocity": 0.2755905511811024,
                    "duration": 0.056518499999981486
                },
                {
                    "name": "D#4",
                    "midi": 63,
                    "time": 307.0084920000002,
                    "velocity": 0.25984251968503935,
                    "duration": 0.056518499999981486
                },
                {
                    "name": "G#4",
                    "midi": 68,
                    "time": 307.2345660000002,
                    "velocity": 0.3228346456692913,
                    "duration": 0.056518499999981486
                },
                {
                    "name": "F#4",
                    "midi": 66,
                    "time": 307.2345660000002,
                    "velocity": 0.3228346456692913,
                    "duration": 0.056518499999981486
                },
                {
                    "name": "G#4",
                    "midi": 68,
                    "time": 307.4606400000002,
                    "velocity": 0.33858267716535434,
                    "duration": 0.056518499999981486
                },
                {
                    "name": "D#5",
                    "midi": 75,
                    "time": 307.4606400000002,
                    "velocity": 0.33858267716535434,
                    "duration": 0.056518499999981486
                },
                {
                    "name": "F#5",
                    "midi": 78,
                    "time": 307.68671400000017,
                    "velocity": 0.3543307086614173,
                    "duration": 0.056518499999981486
                },
                {
                    "name": "D#5",
                    "midi": 75,
                    "time": 307.68671400000017,
                    "velocity": 0.3543307086614173,
                    "duration": 0.056518499999981486
                },
                {
                    "name": "F#5",
                    "midi": 78,
                    "time": 307.91278800000015,
                    "velocity": 0.3779527559055118,
                    "duration": 0.056518499999981486
                },
                {
                    "name": "G#5",
                    "midi": 80,
                    "time": 307.91278800000015,
                    "velocity": 0.3779527559055118,
                    "duration": 0.056518499999981486
                },
                {
                    "name": "G#5",
                    "midi": 80,
                    "time": 308.13886200000013,
                    "velocity": 0.3937007874015748,
                    "duration": 0.056518499999981486
                },
                {
                    "name": "D#6",
                    "midi": 87,
                    "time": 308.13886200000013,
                    "velocity": 0.3937007874015748,
                    "duration": 0.056518499999981486
                },
                {
                    "name": "F#6",
                    "midi": 90,
                    "time": 308.3649360000001,
                    "velocity": 0.41732283464566927,
                    "duration": 0.056518499999981486
                },
                {
                    "name": "D#6",
                    "midi": 87,
                    "time": 308.3649360000001,
                    "velocity": 0.41732283464566927,
                    "duration": 0.056518499999981486
                },
                {
                    "name": "C#6",
                    "midi": 85,
                    "time": 308.5910100000001,
                    "velocity": 0.4330708661417323,
                    "duration": 0.056518499999981486
                },
                {
                    "name": "F6",
                    "midi": 89,
                    "time": 308.5910100000001,
                    "velocity": 0.4330708661417323,
                    "duration": 0.056518499999981486
                },
                {
                    "name": "G#5",
                    "midi": 80,
                    "time": 308.8170840000001,
                    "velocity": 0.41732283464566927,
                    "duration": 0.056518499999981486
                },
                {
                    "name": "F5",
                    "midi": 77,
                    "time": 308.8170840000001,
                    "velocity": 0.41732283464566927,
                    "duration": 0.056518499999981486
                },
                {
                    "name": "F6",
                    "midi": 89,
                    "time": 309.04315800000006,
                    "velocity": 0.44881889763779526,
                    "duration": 0.056518499999981486
                },
                {
                    "name": "C#6",
                    "midi": 85,
                    "time": 309.04315800000006,
                    "velocity": 0.44881889763779526,
                    "duration": 0.056518499999981486
                },
                {
                    "name": "F5",
                    "midi": 77,
                    "time": 309.26923200000004,
                    "velocity": 0.3858267716535433,
                    "duration": 0.056518499999981486
                },
                {
                    "name": "G#5",
                    "midi": 80,
                    "time": 309.26923200000004,
                    "velocity": 0.3858267716535433,
                    "duration": 0.056518499999981486
                },
                {
                    "name": "F6",
                    "midi": 89,
                    "time": 309.495306,
                    "velocity": 0.4409448818897638,
                    "duration": 0.056518499999981486
                },
                {
                    "name": "C#6",
                    "midi": 85,
                    "time": 309.495306,
                    "velocity": 0.4409448818897638,
                    "duration": 0.056518499999981486
                },
                {
                    "name": "F5",
                    "midi": 77,
                    "time": 309.72138,
                    "velocity": 0.3937007874015748,
                    "duration": 0.056518499999981486
                },
                {
                    "name": "G#5",
                    "midi": 80,
                    "time": 309.72138,
                    "velocity": 0.3937007874015748,
                    "duration": 0.056518499999981486
                },
                {
                    "name": "F6",
                    "midi": 89,
                    "time": 309.947454,
                    "velocity": 0.4409448818897638,
                    "duration": 0.056518499999981486
                },
                {
                    "name": "C#6",
                    "midi": 85,
                    "time": 309.947454,
                    "velocity": 0.4409448818897638,
                    "duration": 0.056518499999981486
                },
                {
                    "name": "G#5",
                    "midi": 80,
                    "time": 310.173528,
                    "velocity": 0.4251968503937008,
                    "duration": 0.056518499999981486
                },
                {
                    "name": "C#6",
                    "midi": 85,
                    "time": 310.173528,
                    "velocity": 0.4251968503937008,
                    "duration": 0.056518499999981486
                },
                {
                    "name": "F5",
                    "midi": 77,
                    "time": 310.39960199999996,
                    "velocity": 0.4015748031496063,
                    "duration": 0.056518499999981486
                },
                {
                    "name": "G#5",
                    "midi": 80,
                    "time": 310.39960199999996,
                    "velocity": 0.4015748031496063,
                    "duration": 0.056518499999981486
                },
                {
                    "name": "F5",
                    "midi": 77,
                    "time": 310.62567599999994,
                    "velocity": 0.3700787401574803,
                    "duration": 0.056518499999981486
                },
                {
                    "name": "C#5",
                    "midi": 73,
                    "time": 310.62567599999994,
                    "velocity": 0.3700787401574803,
                    "duration": 0.056518499999981486
                },
                {
                    "name": "C#5",
                    "midi": 73,
                    "time": 310.8517499999999,
                    "velocity": 0.3464566929133858,
                    "duration": 0.056518499999981486
                },
                {
                    "name": "G#4",
                    "midi": 68,
                    "time": 310.8517499999999,
                    "velocity": 0.3464566929133858,
                    "duration": 0.056518499999981486
                },
                {
                    "name": "G#4",
                    "midi": 68,
                    "time": 311.0778239999999,
                    "velocity": 0.3228346456692913,
                    "duration": 0.056518499999981486
                },
                {
                    "name": "F4",
                    "midi": 65,
                    "time": 311.0778239999999,
                    "velocity": 0.3228346456692913,
                    "duration": 0.056518499999981486
                },
                {
                    "name": "G#4",
                    "midi": 68,
                    "time": 311.3038979999999,
                    "velocity": 0.3228346456692913,
                    "duration": 0.056518499999981486
                },
                {
                    "name": "F#4",
                    "midi": 66,
                    "time": 311.3038979999999,
                    "velocity": 0.3228346456692913,
                    "duration": 0.056518499999981486
                },
                {
                    "name": "D#4",
                    "midi": 63,
                    "time": 311.5299719999999,
                    "velocity": 0.2677165354330709,
                    "duration": 0.056518499999981486
                },
                {
                    "name": "F#4",
                    "midi": 66,
                    "time": 311.5299719999999,
                    "velocity": 0.2677165354330709,
                    "duration": 0.056518499999981486
                },
                {
                    "name": "G#4",
                    "midi": 68,
                    "time": 311.75604599999986,
                    "velocity": 0.31496062992125984,
                    "duration": 0.056518499999981486
                },
                {
                    "name": "F#4",
                    "midi": 66,
                    "time": 311.75604599999986,
                    "velocity": 0.31496062992125984,
                    "duration": 0.056518499999981486
                },
                {
                    "name": "F#4",
                    "midi": 66,
                    "time": 311.98211999999984,
                    "velocity": 0.3464566929133858,
                    "duration": 0.056518499999981486
                },
                {
                    "name": "A4",
                    "midi": 69,
                    "time": 311.98211999999984,
                    "velocity": 0.3464566929133858,
                    "duration": 0.056518499999981486
                },
                {
                    "name": "F#4",
                    "midi": 66,
                    "time": 312.2081939999998,
                    "velocity": 0.2755905511811024,
                    "duration": 0.056518499999981486
                },
                {
                    "name": "D#4",
                    "midi": 63,
                    "time": 312.2081939999998,
                    "velocity": 0.31496062992125984,
                    "duration": 0.056518499999981486
                },
                {
                    "name": "A4",
                    "midi": 69,
                    "time": 312.4342679999998,
                    "velocity": 0.2755905511811024,
                    "duration": 0.056518499999981486
                },
                {
                    "name": "F#4",
                    "midi": 66,
                    "time": 312.4342679999998,
                    "velocity": 0.25984251968503935,
                    "duration": 0.056518499999981486
                },
                {
                    "name": "F#4",
                    "midi": 66,
                    "time": 312.6603419999998,
                    "velocity": 0.3228346456692913,
                    "duration": 0.056518499999981486
                },
                {
                    "name": "G#4",
                    "midi": 68,
                    "time": 312.6603419999998,
                    "velocity": 0.3228346456692913,
                    "duration": 0.056518499999981486
                },
                {
                    "name": "G#4",
                    "midi": 68,
                    "time": 312.88641599999977,
                    "velocity": 0.33858267716535434,
                    "duration": 0.056518499999981486
                },
                {
                    "name": "D#5",
                    "midi": 75,
                    "time": 312.88641599999977,
                    "velocity": 0.33858267716535434,
                    "duration": 0.056518499999981486
                },
                {
                    "name": "F#5",
                    "midi": 78,
                    "time": 313.11248999999975,
                    "velocity": 0.3543307086614173,
                    "duration": 0.056518499999981486
                },
                {
                    "name": "D#5",
                    "midi": 75,
                    "time": 313.11248999999975,
                    "velocity": 0.3543307086614173,
                    "duration": 0.056518499999981486
                },
                {
                    "name": "G#5",
                    "midi": 80,
                    "time": 313.33856399999974,
                    "velocity": 0.3779527559055118,
                    "duration": 0.056518499999981486
                },
                {
                    "name": "F#5",
                    "midi": 78,
                    "time": 313.33856399999974,
                    "velocity": 0.3779527559055118,
                    "duration": 0.056518499999981486
                },
                {
                    "name": "G#5",
                    "midi": 80,
                    "time": 313.5646379999997,
                    "velocity": 0.3937007874015748,
                    "duration": 0.056518499999981486
                },
                {
                    "name": "D#6",
                    "midi": 87,
                    "time": 313.5646379999997,
                    "velocity": 0.3937007874015748,
                    "duration": 0.056518499999981486
                },
                {
                    "name": "F#6",
                    "midi": 90,
                    "time": 313.7907119999997,
                    "velocity": 0.41732283464566927,
                    "duration": 0.056518499999981486
                },
                {
                    "name": "D#6",
                    "midi": 87,
                    "time": 313.7907119999997,
                    "velocity": 0.41732283464566927,
                    "duration": 0.056518499999981486
                },
                {
                    "name": "C#6",
                    "midi": 85,
                    "time": 314.0167859999997,
                    "velocity": 0.4330708661417323,
                    "duration": 0.056518499999981486
                },
                {
                    "name": "F6",
                    "midi": 89,
                    "time": 314.0167859999997,
                    "velocity": 0.4330708661417323,
                    "duration": 0.056518499999981486
                },
                {
                    "name": "F5",
                    "midi": 77,
                    "time": 314.24285999999967,
                    "velocity": 0.41732283464566927,
                    "duration": 0.056518499999981486
                },
                {
                    "name": "G#5",
                    "midi": 80,
                    "time": 314.24285999999967,
                    "velocity": 0.41732283464566927,
                    "duration": 0.056518499999981486
                },
                {
                    "name": "F6",
                    "midi": 89,
                    "time": 314.46893399999965,
                    "velocity": 0.44881889763779526,
                    "duration": 0.056518499999981486
                },
                {
                    "name": "C#6",
                    "midi": 85,
                    "time": 314.46893399999965,
                    "velocity": 0.44881889763779526,
                    "duration": 0.056518499999981486
                },
                {
                    "name": "A#5",
                    "midi": 82,
                    "time": 314.69500799999963,
                    "velocity": 0.3858267716535433,
                    "duration": 0.056518499999981486
                },
                {
                    "name": "F5",
                    "midi": 77,
                    "time": 314.69500799999963,
                    "velocity": 0.3858267716535433,
                    "duration": 0.056518499999981486
                },
                {
                    "name": "C#6",
                    "midi": 85,
                    "time": 314.9210819999996,
                    "velocity": 0.4409448818897638,
                    "duration": 0.056518499999981486
                },
                {
                    "name": "F6",
                    "midi": 89,
                    "time": 314.9210819999996,
                    "velocity": 0.4409448818897638,
                    "duration": 0.056518499999981486
                },
                {
                    "name": "F5",
                    "midi": 77,
                    "time": 315.1471559999996,
                    "velocity": 0.3937007874015748,
                    "duration": 0.056518499999981486
                },
                {
                    "name": "A#5",
                    "midi": 82,
                    "time": 315.1471559999996,
                    "velocity": 0.3937007874015748,
                    "duration": 0.056518499999981486
                },
                {
                    "name": "C#6",
                    "midi": 85,
                    "time": 315.3732299999996,
                    "velocity": 0.4409448818897638,
                    "duration": 0.056518499999981486
                },
                {
                    "name": "F6",
                    "midi": 89,
                    "time": 315.3732299999996,
                    "velocity": 0.4409448818897638,
                    "duration": 0.056518499999981486
                },
                {
                    "name": "G#5",
                    "midi": 80,
                    "time": 315.59930399999956,
                    "velocity": 0.4251968503937008,
                    "duration": 0.056518499999981486
                },
                {
                    "name": "C#6",
                    "midi": 85,
                    "time": 315.59930399999956,
                    "velocity": 0.4251968503937008,
                    "duration": 0.056518499999981486
                },
                {
                    "name": "F5",
                    "midi": 77,
                    "time": 315.82537799999955,
                    "velocity": 0.4015748031496063,
                    "duration": 0.056518499999981486
                },
                {
                    "name": "G#5",
                    "midi": 80,
                    "time": 315.82537799999955,
                    "velocity": 0.4015748031496063,
                    "duration": 0.056518499999981486
                },
                {
                    "name": "C#5",
                    "midi": 73,
                    "time": 316.05145199999953,
                    "velocity": 0.3700787401574803,
                    "duration": 0.056518499999981486
                },
                {
                    "name": "F5",
                    "midi": 77,
                    "time": 316.05145199999953,
                    "velocity": 0.3700787401574803,
                    "duration": 0.056518499999981486
                },
                {
                    "name": "C#5",
                    "midi": 73,
                    "time": 316.2775259999995,
                    "velocity": 0.3464566929133858,
                    "duration": 0.056518499999981486
                },
                {
                    "name": "G#4",
                    "midi": 68,
                    "time": 316.2775259999995,
                    "velocity": 0.3464566929133858,
                    "duration": 0.056518499999981486
                },
                {
                    "name": "G#4",
                    "midi": 68,
                    "time": 316.5035999999995,
                    "velocity": 0.3228346456692913,
                    "duration": 0.056518499999981486
                },
                {
                    "name": "F4",
                    "midi": 65,
                    "time": 316.5035999999995,
                    "velocity": 0.3228346456692913,
                    "duration": 0.056518499999981486
                },
                {
                    "name": "D#5",
                    "midi": 75,
                    "time": 316.7296739999995,
                    "velocity": 0.3228346456692913,
                    "duration": 0.056518499999981486
                },
                {
                    "name": "F5",
                    "midi": 77,
                    "time": 316.7296739999995,
                    "velocity": 0.3228346456692913,
                    "duration": 0.056518499999981486
                },
                {
                    "name": "A4",
                    "midi": 69,
                    "time": 316.95574799999946,
                    "velocity": 0.2677165354330709,
                    "duration": 0.056518499999981486
                },
                {
                    "name": "F4",
                    "midi": 65,
                    "time": 316.95574799999946,
                    "velocity": 0.2677165354330709,
                    "duration": 0.056518499999981486
                },
                {
                    "name": "D#5",
                    "midi": 75,
                    "time": 317.18182199999944,
                    "velocity": 0.31496062992125984,
                    "duration": 0.056518499999981486
                },
                {
                    "name": "F5",
                    "midi": 77,
                    "time": 317.18182199999944,
                    "velocity": 0.31496062992125984,
                    "duration": 0.056518499999981486
                },
                {
                    "name": "A4",
                    "midi": 69,
                    "time": 317.4078959999994,
                    "velocity": 0.2755905511811024,
                    "duration": 0.056518499999981486
                },
                {
                    "name": "F#4",
                    "midi": 66,
                    "time": 317.4078959999994,
                    "velocity": 0.2755905511811024,
                    "duration": 0.056518499999981486
                },
                {
                    "name": "F#5",
                    "midi": 78,
                    "time": 317.6339699999994,
                    "velocity": 0.2755905511811024,
                    "duration": 0.056518499999981486
                },
                {
                    "name": "D#5",
                    "midi": 75,
                    "time": 317.6339699999994,
                    "velocity": 0.31496062992125984,
                    "duration": 0.056518499999981486
                },
                {
                    "name": "F#4",
                    "midi": 66,
                    "time": 317.8600439999994,
                    "velocity": 0.25984251968503935,
                    "duration": 0.056518499999981486
                },
                {
                    "name": "A4",
                    "midi": 69,
                    "time": 317.8600439999994,
                    "velocity": 0.2755905511811024,
                    "duration": 0.056518499999981486
                },
                {
                    "name": "D#5",
                    "midi": 75,
                    "time": 318.0861179999994,
                    "velocity": 0.3228346456692913,
                    "duration": 0.056518499999981486
                },
                {
                    "name": "F5",
                    "midi": 77,
                    "time": 318.0861179999994,
                    "velocity": 0.3228346456692913,
                    "duration": 0.056518499999981486
                },
                {
                    "name": "F4",
                    "midi": 65,
                    "time": 318.31219199999936,
                    "velocity": 0.33858267716535434,
                    "duration": 0.056518499999981486
                },
                {
                    "name": "A4",
                    "midi": 69,
                    "time": 318.31219199999936,
                    "velocity": 0.33858267716535434,
                    "duration": 0.056518499999981486
                },
                {
                    "name": "D#5",
                    "midi": 75,
                    "time": 318.53826599999934,
                    "velocity": 0.3543307086614173,
                    "duration": 0.056518499999981486
                },
                {
                    "name": "F5",
                    "midi": 77,
                    "time": 318.53826599999934,
                    "velocity": 0.3543307086614173,
                    "duration": 0.056518499999981486
                },
                {
                    "name": "F5",
                    "midi": 77,
                    "time": 318.7643399999993,
                    "velocity": 0.3779527559055118,
                    "duration": 0.056518499999981486
                },
                {
                    "name": "A5",
                    "midi": 81,
                    "time": 318.7643399999993,
                    "velocity": 0.3779527559055118,
                    "duration": 0.056518499999981486
                },
                {
                    "name": "D#6",
                    "midi": 87,
                    "time": 318.9904139999993,
                    "velocity": 0.3937007874015748,
                    "duration": 0.056518499999981486
                },
                {
                    "name": "A5",
                    "midi": 81,
                    "time": 318.9904139999993,
                    "velocity": 0.3937007874015748,
                    "duration": 0.056518499999981486
                },
                {
                    "name": "D#6",
                    "midi": 87,
                    "time": 319.2164879999993,
                    "velocity": 0.41732283464566927,
                    "duration": 0.056518499999981486
                },
                {
                    "name": "F6",
                    "midi": 89,
                    "time": 319.2164879999993,
                    "velocity": 0.41732283464566927,
                    "duration": 0.056518499999981486
                },
                {
                    "name": "C#6",
                    "midi": 85,
                    "time": 319.44256199999927,
                    "velocity": 0.4330708661417323,
                    "duration": 0.056518499999981486
                },
                {
                    "name": "F6",
                    "midi": 89,
                    "time": 319.44256199999927,
                    "velocity": 0.4330708661417323,
                    "duration": 0.056518499999981486
                },
                {
                    "name": "A#5",
                    "midi": 82,
                    "time": 319.66863599999925,
                    "velocity": 0.41732283464566927,
                    "duration": 0.056518499999981486
                },
                {
                    "name": "F5",
                    "midi": 77,
                    "time": 319.66863599999925,
                    "velocity": 0.41732283464566927,
                    "duration": 0.056518499999981486
                },
                {
                    "name": "F6",
                    "midi": 89,
                    "time": 319.89470999999924,
                    "velocity": 0.44881889763779526,
                    "duration": 0.056518499999981486
                },
                {
                    "name": "C#6",
                    "midi": 85,
                    "time": 319.89470999999924,
                    "velocity": 0.44881889763779526,
                    "duration": 0.056518499999981486
                },
                {
                    "name": "A#5",
                    "midi": 82,
                    "time": 320.1207839999992,
                    "velocity": 0.3858267716535433,
                    "duration": 0.056518499999981486
                },
                {
                    "name": "F#5",
                    "midi": 78,
                    "time": 320.1207839999992,
                    "velocity": 0.3858267716535433,
                    "duration": 0.056518499999981486
                },
                {
                    "name": "C#6",
                    "midi": 85,
                    "time": 320.3468579999992,
                    "velocity": 0.4409448818897638,
                    "duration": 0.056518499999981486
                },
                {
                    "name": "F#6",
                    "midi": 90,
                    "time": 320.3468579999992,
                    "velocity": 0.4409448818897638,
                    "duration": 0.056518499999981486
                },
                {
                    "name": "A#5",
                    "midi": 82,
                    "time": 320.5729319999992,
                    "velocity": 0.3937007874015748,
                    "duration": 0.056518499999981486
                },
                {
                    "name": "F#5",
                    "midi": 78,
                    "time": 320.5729319999992,
                    "velocity": 0.3937007874015748,
                    "duration": 0.056518499999981486
                },
                {
                    "name": "F6",
                    "midi": 89,
                    "time": 320.79900599999917,
                    "velocity": 0.4409448818897638,
                    "duration": 0.056518499999981486
                },
                {
                    "name": "C#6",
                    "midi": 85,
                    "time": 320.79900599999917,
                    "velocity": 0.4409448818897638,
                    "duration": 0.056518499999981486
                },
                {
                    "name": "C#6",
                    "midi": 85,
                    "time": 321.02507999999915,
                    "velocity": 0.4251968503937008,
                    "duration": 0.056518499999981486
                },
                {
                    "name": "A#5",
                    "midi": 82,
                    "time": 321.02507999999915,
                    "velocity": 0.4251968503937008,
                    "duration": 0.056518499999981486
                },
                {
                    "name": "F5",
                    "midi": 77,
                    "time": 321.25115399999913,
                    "velocity": 0.4015748031496063,
                    "duration": 0.056518499999981486
                },
                {
                    "name": "A#5",
                    "midi": 82,
                    "time": 321.25115399999913,
                    "velocity": 0.4015748031496063,
                    "duration": 0.056518499999981486
                },
                {
                    "name": "F5",
                    "midi": 77,
                    "time": 321.4772279999991,
                    "velocity": 0.3700787401574803,
                    "duration": 0.056518499999981486
                },
                {
                    "name": "C#5",
                    "midi": 73,
                    "time": 321.4772279999991,
                    "velocity": 0.3700787401574803,
                    "duration": 0.056518499999981486
                },
                {
                    "name": "A#4",
                    "midi": 70,
                    "time": 321.7033019999991,
                    "velocity": 0.3464566929133858,
                    "duration": 0.056518499999981486
                },
                {
                    "name": "C#5",
                    "midi": 73,
                    "time": 321.7033019999991,
                    "velocity": 0.3464566929133858,
                    "duration": 0.056518499999981486
                },
                {
                    "name": "A#4",
                    "midi": 70,
                    "time": 321.9293759999991,
                    "velocity": 0.3228346456692913,
                    "duration": 0.056518499999981486
                },
                {
                    "name": "F4",
                    "midi": 65,
                    "time": 321.9293759999991,
                    "velocity": 0.3228346456692913,
                    "duration": 0.056518499999981486
                },
                {
                    "name": "F4",
                    "midi": 65,
                    "time": 322.15544999999906,
                    "velocity": 0.3228346456692913,
                    "duration": 0.056518499999981486
                },
                {
                    "name": "C#5",
                    "midi": 73,
                    "time": 322.15544999999906,
                    "velocity": 0.3228346456692913,
                    "duration": 0.056518499999981486
                },
                {
                    "name": "F4",
                    "midi": 65,
                    "time": 322.38152399999905,
                    "velocity": 0.2677165354330709,
                    "duration": 0.056518499999981486
                },
                {
                    "name": "C#4",
                    "midi": 61,
                    "time": 322.38152399999905,
                    "velocity": 0.2677165354330709,
                    "duration": 0.056518499999981486
                },
                {
                    "name": "C#5",
                    "midi": 73,
                    "time": 322.60759799999903,
                    "velocity": 0.31496062992125984,
                    "duration": 0.056518499999981486
                },
                {
                    "name": "F4",
                    "midi": 65,
                    "time": 322.60759799999903,
                    "velocity": 0.31496062992125984,
                    "duration": 0.056518499999981486
                },
                {
                    "name": "F4",
                    "midi": 65,
                    "time": 322.833671999999,
                    "velocity": 0.2755905511811024,
                    "duration": 0.056518499999981486
                },
                {
                    "name": "C#4",
                    "midi": 61,
                    "time": 322.833671999999,
                    "velocity": 0.2755905511811024,
                    "duration": 0.056518499999981486
                },
                {
                    "name": "F4",
                    "midi": 65,
                    "time": 323.059745999999,
                    "velocity": 0.31496062992125984,
                    "duration": 0.056518499999981486
                },
                {
                    "name": "C#5",
                    "midi": 73,
                    "time": 323.059745999999,
                    "velocity": 0.2755905511811024,
                    "duration": 0.056518499999981486
                },
                {
                    "name": "F4",
                    "midi": 65,
                    "time": 323.285819999999,
                    "velocity": 0.2755905511811024,
                    "duration": 0.056518499999981486
                },
                {
                    "name": "C#4",
                    "midi": 61,
                    "time": 323.285819999999,
                    "velocity": 0.25984251968503935,
                    "duration": 0.056518499999981486
                },
                {
                    "name": "C5",
                    "midi": 72,
                    "time": 323.51189399999896,
                    "velocity": 0.3543307086614173,
                    "duration": 0.056518499999981486
                },
                {
                    "name": "F4",
                    "midi": 65,
                    "time": 323.51189399999896,
                    "velocity": 0.3543307086614173,
                    "duration": 0.056518499999981486
                },
                {
                    "name": "F4",
                    "midi": 65,
                    "time": 323.73796799999894,
                    "velocity": 0.31496062992125984,
                    "duration": 0.056518499999981486
                },
                {
                    "name": "C4",
                    "midi": 60,
                    "time": 323.73796799999894,
                    "velocity": 0.31496062992125984,
                    "duration": 0.056518499999981486
                },
                {
                    "name": "F4",
                    "midi": 65,
                    "time": 323.9640419999989,
                    "velocity": 0.3543307086614173,
                    "duration": 0.056518499999981486
                },
                {
                    "name": "C5",
                    "midi": 72,
                    "time": 323.9640419999989,
                    "velocity": 0.3543307086614173,
                    "duration": 0.056518499999981486
                },
                {
                    "name": "F4",
                    "midi": 65,
                    "time": 324.1901159999989,
                    "velocity": 0.33858267716535434,
                    "duration": 0.056518499999981486
                },
                {
                    "name": "C4",
                    "midi": 60,
                    "time": 324.1901159999989,
                    "velocity": 0.33858267716535434,
                    "duration": 0.056518499999981486
                },
                {
                    "name": "C5",
                    "midi": 72,
                    "time": 324.4161899999989,
                    "velocity": 0.33858267716535434,
                    "duration": 0.056518499999981486
                },
                {
                    "name": "F4",
                    "midi": 65,
                    "time": 324.4161899999989,
                    "velocity": 0.33858267716535434,
                    "duration": 0.056518499999981486
                },
                {
                    "name": "F4",
                    "midi": 65,
                    "time": 324.6422639999989,
                    "velocity": 0.2755905511811024,
                    "duration": 0.056518499999981486
                },
                {
                    "name": "C4",
                    "midi": 60,
                    "time": 324.6422639999989,
                    "velocity": 0.25984251968503935,
                    "duration": 0.056518499999981486
                },
                {
                    "name": "B4",
                    "midi": 71,
                    "time": 324.86833799999886,
                    "velocity": 0.4330708661417323,
                    "duration": 0.056518499999981486
                },
                {
                    "name": "G#4",
                    "midi": 68,
                    "time": 324.86833799999886,
                    "velocity": 0.4330708661417323,
                    "duration": 0.056518499999981486
                },
                {
                    "name": "G#4",
                    "midi": 68,
                    "time": 325.09441199999884,
                    "velocity": 0.33858267716535434,
                    "duration": 0.056518499999981486
                },
                {
                    "name": "F4",
                    "midi": 65,
                    "time": 325.09441199999884,
                    "velocity": 0.33858267716535434,
                    "duration": 0.056518499999981486
                },
                {
                    "name": "G#4",
                    "midi": 68,
                    "time": 325.3204859999988,
                    "velocity": 0.3543307086614173,
                    "duration": 0.056518499999981486
                },
                {
                    "name": "B4",
                    "midi": 71,
                    "time": 325.3204859999988,
                    "velocity": 0.3543307086614173,
                    "duration": 0.056518499999981486
                },
                {
                    "name": "G#4",
                    "midi": 68,
                    "time": 325.5465599999988,
                    "velocity": 0.3779527559055118,
                    "duration": 0.056518499999981486
                },
                {
                    "name": "F4",
                    "midi": 65,
                    "time": 325.5465599999988,
                    "velocity": 0.3779527559055118,
                    "duration": 0.056518499999981486
                },
                {
                    "name": "G#4",
                    "midi": 68,
                    "time": 325.7726339999988,
                    "velocity": 0.3937007874015748,
                    "duration": 0.056518499999981486
                },
                {
                    "name": "B4",
                    "midi": 71,
                    "time": 325.7726339999988,
                    "velocity": 0.3937007874015748,
                    "duration": 0.056518499999981486
                },
                {
                    "name": "F5",
                    "midi": 77,
                    "time": 325.99870799999877,
                    "velocity": 0.41732283464566927,
                    "duration": 0.056518499999981486
                },
                {
                    "name": "B4",
                    "midi": 71,
                    "time": 325.99870799999877,
                    "velocity": 0.41732283464566927,
                    "duration": 0.056518499999981486
                },
                {
                    "name": "G#5",
                    "midi": 80,
                    "time": 326.22478199999875,
                    "velocity": 0.4409448818897638,
                    "duration": 0.056518499999981486
                },
                {
                    "name": "F5",
                    "midi": 77,
                    "time": 326.22478199999875,
                    "velocity": 0.4409448818897638,
                    "duration": 0.056518499999981486
                },
                {
                    "name": "G#5",
                    "midi": 80,
                    "time": 326.45085599999874,
                    "velocity": 0.4251968503937008,
                    "duration": 0.056518499999981486
                },
                {
                    "name": "B5",
                    "midi": 83,
                    "time": 326.45085599999874,
                    "velocity": 0.4251968503937008,
                    "duration": 0.056518499999981486
                },
                {
                    "name": "F5",
                    "midi": 77,
                    "time": 326.6769299999987,
                    "velocity": 0.4015748031496063,
                    "duration": 0.056518499999981486
                },
                {
                    "name": "G#5",
                    "midi": 80,
                    "time": 326.6769299999987,
                    "velocity": 0.4015748031496063,
                    "duration": 0.056518499999981486
                },
                {
                    "name": "B4",
                    "midi": 71,
                    "time": 326.9030039999987,
                    "velocity": 0.3700787401574803,
                    "duration": 0.056518499999981486
                },
                {
                    "name": "F5",
                    "midi": 77,
                    "time": 326.9030039999987,
                    "velocity": 0.3700787401574803,
                    "duration": 0.056518499999981486
                },
                {
                    "name": "G#4",
                    "midi": 68,
                    "time": 327.1290779999987,
                    "velocity": 0.3464566929133858,
                    "duration": 0.056518499999981486
                },
                {
                    "name": "B4",
                    "midi": 71,
                    "time": 327.1290779999987,
                    "velocity": 0.3464566929133858,
                    "duration": 0.056518499999981486
                },
                {
                    "name": "G#4",
                    "midi": 68,
                    "time": 327.35515199999867,
                    "velocity": 0.3228346456692913,
                    "duration": 0.056518499999981486
                },
                {
                    "name": "F4",
                    "midi": 65,
                    "time": 327.35515199999867,
                    "velocity": 0.3228346456692913,
                    "duration": 0.056518499999981486
                },
                {
                    "name": "A#4",
                    "midi": 70,
                    "time": 327.58122599999865,
                    "velocity": 0.3228346456692913,
                    "duration": 0.056518499999981486
                },
                {
                    "name": "G4",
                    "midi": 67,
                    "time": 327.58122599999865,
                    "velocity": 0.3228346456692913,
                    "duration": 0.056518499999981486
                },
                {
                    "name": "G4",
                    "midi": 67,
                    "time": 327.80729999999863,
                    "velocity": 0.2677165354330709,
                    "duration": 0.056518499999981486
                },
                {
                    "name": "C#4",
                    "midi": 61,
                    "time": 327.80729999999863,
                    "velocity": 0.2677165354330709,
                    "duration": 0.056518499999981486
                },
                {
                    "name": "G4",
                    "midi": 67,
                    "time": 328.0333739999986,
                    "velocity": 0.31496062992125984,
                    "duration": 0.056518499999981486
                },
                {
                    "name": "A#4",
                    "midi": 70,
                    "time": 328.0333739999986,
                    "velocity": 0.31496062992125984,
                    "duration": 0.056518499999981486
                },
                {
                    "name": "G4",
                    "midi": 67,
                    "time": 328.2594479999986,
                    "velocity": 0.2755905511811024,
                    "duration": 0.056518499999981486
                },
                {
                    "name": "C#4",
                    "midi": 61,
                    "time": 328.2594479999986,
                    "velocity": 0.2755905511811024,
                    "duration": 0.056518499999981486
                },
                {
                    "name": "A#4",
                    "midi": 70,
                    "time": 328.4855219999986,
                    "velocity": 0.2755905511811024,
                    "duration": 0.056518499999981486
                },
                {
                    "name": "G4",
                    "midi": 67,
                    "time": 328.4855219999986,
                    "velocity": 0.31496062992125984,
                    "duration": 0.056518499999981486
                },
                {
                    "name": "G4",
                    "midi": 67,
                    "time": 328.71159599999856,
                    "velocity": 0.2755905511811024,
                    "duration": 0.056518499999981486
                },
                {
                    "name": "C#4",
                    "midi": 61,
                    "time": 328.71159599999856,
                    "velocity": 0.25984251968503935,
                    "duration": 0.056518499999981486
                },
                {
                    "name": "F4",
                    "midi": 65,
                    "time": 328.93766999999855,
                    "velocity": 0.3543307086614173,
                    "duration": 0.056518499999981486
                },
                {
                    "name": "A4",
                    "midi": 69,
                    "time": 328.93766999999855,
                    "velocity": 0.3543307086614173,
                    "duration": 0.056518499999981486
                },
                {
                    "name": "F4",
                    "midi": 65,
                    "time": 329.16374399999853,
                    "velocity": 0.31496062992125984,
                    "duration": 0.056518499999981486
                },
                {
                    "name": "C4",
                    "midi": 60,
                    "time": 329.16374399999853,
                    "velocity": 0.31496062992125984,
                    "duration": 0.056518499999981486
                },
                {
                    "name": "F4",
                    "midi": 65,
                    "time": 329.3898179999985,
                    "velocity": 0.3543307086614173,
                    "duration": 0.056518499999981486
                },
                {
                    "name": "A4",
                    "midi": 69,
                    "time": 329.3898179999985,
                    "velocity": 0.3543307086614173,
                    "duration": 0.056518499999981486
                },
                {
                    "name": "F4",
                    "midi": 65,
                    "time": 329.6158919999985,
                    "velocity": 0.33858267716535434,
                    "duration": 0.056518499999981486
                },
                {
                    "name": "C4",
                    "midi": 60,
                    "time": 329.6158919999985,
                    "velocity": 0.33858267716535434,
                    "duration": 0.056518499999981486
                },
                {
                    "name": "F4",
                    "midi": 65,
                    "time": 329.8419659999985,
                    "velocity": 0.33858267716535434,
                    "duration": 0.056518499999981486
                },
                {
                    "name": "A4",
                    "midi": 69,
                    "time": 329.8419659999985,
                    "velocity": 0.33858267716535434,
                    "duration": 0.056518499999981486
                },
                {
                    "name": "F4",
                    "midi": 65,
                    "time": 330.06803999999846,
                    "velocity": 0.2755905511811024,
                    "duration": 0.056518499999981486
                },
                {
                    "name": "C4",
                    "midi": 60,
                    "time": 330.06803999999846,
                    "velocity": 0.25984251968503935,
                    "duration": 0.056518499999981486
                },
                {
                    "name": "F4",
                    "midi": 65,
                    "time": 330.29411399999844,
                    "velocity": 0.4330708661417323,
                    "duration": 0.056518499999981486
                },
                {
                    "name": "G#4",
                    "midi": 68,
                    "time": 330.29411399999844,
                    "velocity": 0.4330708661417323,
                    "duration": 0.056518499999981486
                },
                {
                    "name": "F4",
                    "midi": 65,
                    "time": 330.5201879999984,
                    "velocity": 0.33858267716535434,
                    "duration": 0.056518499999981486
                },
                {
                    "name": "D4",
                    "midi": 62,
                    "time": 330.5201879999984,
                    "velocity": 0.33858267716535434,
                    "duration": 0.056518499999981486
                },
                {
                    "name": "F4",
                    "midi": 65,
                    "time": 330.7462619999984,
                    "velocity": 0.3543307086614173,
                    "duration": 0.056518499999981486
                },
                {
                    "name": "G#4",
                    "midi": 68,
                    "time": 330.7462619999984,
                    "velocity": 0.3543307086614173,
                    "duration": 0.056518499999981486
                },
                {
                    "name": "D4",
                    "midi": 62,
                    "time": 330.9723359999984,
                    "velocity": 0.3779527559055118,
                    "duration": 0.056518499999981486
                },
                {
                    "name": "F4",
                    "midi": 65,
                    "time": 330.9723359999984,
                    "velocity": 0.3779527559055118,
                    "duration": 0.056518499999981486
                },
                {
                    "name": "G#4",
                    "midi": 68,
                    "time": 331.1984099999984,
                    "velocity": 0.36220472440944884,
                    "duration": 0.056518499999981486
                },
                {
                    "name": "F4",
                    "midi": 65,
                    "time": 331.1984099999984,
                    "velocity": 0.36220472440944884,
                    "duration": 0.056518499999981486
                },
                {
                    "name": "F4",
                    "midi": 65,
                    "time": 331.42448399999836,
                    "velocity": 0.3464566929133858,
                    "duration": 0.056518499999981486
                },
                {
                    "name": "D4",
                    "midi": 62,
                    "time": 331.42448399999836,
                    "velocity": 0.3464566929133858,
                    "duration": 0.056518499999981486
                },
                {
                    "name": "G4",
                    "midi": 67,
                    "time": 331.65055799999834,
                    "velocity": 0.3543307086614173,
                    "duration": 0.056518499999981486
                },
                {
                    "name": "D4",
                    "midi": 62,
                    "time": 331.65055799999834,
                    "velocity": 0.3543307086614173,
                    "duration": 0.056518499999981486
                },
                {
                    "name": "G3",
                    "midi": 55,
                    "time": 331.8766319999983,
                    "velocity": 0.2992125984251969,
                    "duration": 0.056518499999981486
                },
                {
                    "name": "D4",
                    "midi": 62,
                    "time": 331.8766319999983,
                    "velocity": 0.2992125984251969,
                    "duration": 0.056518499999981486
                },
                {
                    "name": "D4",
                    "midi": 62,
                    "time": 332.1027059999983,
                    "velocity": 0.3543307086614173,
                    "duration": 0.056518499999981486
                },
                {
                    "name": "G4",
                    "midi": 67,
                    "time": 332.1027059999983,
                    "velocity": 0.3543307086614173,
                    "duration": 0.056518499999981486
                },
                {
                    "name": "F4",
                    "midi": 65,
                    "time": 332.3287799999983,
                    "velocity": 0.2992125984251969,
                    "duration": 0.056518499999981486
                },
                {
                    "name": "D4",
                    "midi": 62,
                    "time": 332.3287799999983,
                    "velocity": 0.2992125984251969,
                    "duration": 0.056518499999981486
                },
                {
                    "name": "D4",
                    "midi": 62,
                    "time": 332.5548539999983,
                    "velocity": 0.3464566929133858,
                    "duration": 0.056518499999981486
                },
                {
                    "name": "G#3",
                    "midi": 56,
                    "time": 332.5548539999983,
                    "velocity": 0.3464566929133858,
                    "duration": 0.056518499999981486
                },
                {
                    "name": "D4",
                    "midi": 62,
                    "time": 332.78092799999826,
                    "velocity": 0.31496062992125984,
                    "duration": 0.056518499999981486
                },
                {
                    "name": "F4",
                    "midi": 65,
                    "time": 332.78092799999826,
                    "velocity": 0.31496062992125984,
                    "duration": 0.056518499999981486
                },
                {
                    "name": "C4",
                    "midi": 60,
                    "time": 333.00700199999824,
                    "velocity": 0.30708661417322836,
                    "duration": 0.056518499999981486
                },
                {
                    "name": "F4",
                    "midi": 65,
                    "time": 333.00700199999824,
                    "velocity": 0.30708661417322836,
                    "duration": 0.056518499999981486
                },
                {
                    "name": "G#3",
                    "midi": 56,
                    "time": 333.2330759999982,
                    "velocity": 0.2755905511811024,
                    "duration": 0.056518499999981486
                },
                {
                    "name": "C4",
                    "midi": 60,
                    "time": 333.2330759999982,
                    "velocity": 0.2755905511811024,
                    "duration": 0.056518499999981486
                },
                {
                    "name": "C4",
                    "midi": 60,
                    "time": 333.4591499999982,
                    "velocity": 0.3228346456692913,
                    "duration": 0.056518499999981486
                },
                {
                    "name": "F4",
                    "midi": 65,
                    "time": 333.4591499999982,
                    "velocity": 0.3228346456692913,
                    "duration": 0.056518499999981486
                },
                {
                    "name": "C4",
                    "midi": 60,
                    "time": 333.6852239999982,
                    "velocity": 0.2755905511811024,
                    "duration": 0.056518499999981486
                },
                {
                    "name": "G#3",
                    "midi": 56,
                    "time": 333.6852239999982,
                    "velocity": 0.2755905511811024,
                    "duration": 0.056518499999981486
                },
                {
                    "name": "C4",
                    "midi": 60,
                    "time": 333.91129799999817,
                    "velocity": 0.3228346456692913,
                    "duration": 0.056518499999981486
                },
                {
                    "name": "F4",
                    "midi": 65,
                    "time": 333.91129799999817,
                    "velocity": 0.3228346456692913,
                    "duration": 0.056518499999981486
                },
                {
                    "name": "G#3",
                    "midi": 56,
                    "time": 334.13737199999815,
                    "velocity": 0.2755905511811024,
                    "duration": 0.056518499999981486
                },
                {
                    "name": "C4",
                    "midi": 60,
                    "time": 334.13737199999815,
                    "velocity": 0.2755905511811024,
                    "duration": 0.056518499999981486
                },
                {
                    "name": "C4",
                    "midi": 60,
                    "time": 334.36344599999813,
                    "velocity": 0.31496062992125984,
                    "duration": 0.056518499999981486
                },
                {
                    "name": "F4",
                    "midi": 65,
                    "time": 334.36344599999813,
                    "velocity": 0.31496062992125984,
                    "duration": 0.056518499999981486
                },
                {
                    "name": "G3",
                    "midi": 55,
                    "time": 334.5895199999981,
                    "velocity": 0.2440944881889764,
                    "duration": 0.056518499999981486
                },
                {
                    "name": "C4",
                    "midi": 60,
                    "time": 334.5895199999981,
                    "velocity": 0.2440944881889764,
                    "duration": 0.056518499999981486
                },
                {
                    "name": "F4",
                    "midi": 65,
                    "time": 334.8155939999981,
                    "velocity": 0.3543307086614173,
                    "duration": 0.056518499999981486
                },
                {
                    "name": "C4",
                    "midi": 60,
                    "time": 334.8155939999981,
                    "velocity": 0.3543307086614173,
                    "duration": 0.056518499999981486
                },
                {
                    "name": "C4",
                    "midi": 60,
                    "time": 335.0416679999981,
                    "velocity": 0.31496062992125984,
                    "duration": 0.056518499999981486
                },
                {
                    "name": "G3",
                    "midi": 55,
                    "time": 335.0416679999981,
                    "velocity": 0.31496062992125984,
                    "duration": 0.056518499999981486
                },
                {
                    "name": "C4",
                    "midi": 60,
                    "time": 335.26774199999807,
                    "velocity": 0.3779527559055118,
                    "duration": 0.056518499999981486
                },
                {
                    "name": "E4",
                    "midi": 64,
                    "time": 335.26774199999807,
                    "velocity": 0.3779527559055118,
                    "duration": 0.056518499999981486
                },
                {
                    "name": "E4",
                    "midi": 64,
                    "time": 335.49381599999805,
                    "velocity": 0.33070866141732286,
                    "duration": 0.056518499999981486
                },
                {
                    "name": "G#4",
                    "midi": 68,
                    "time": 335.49381599999805,
                    "velocity": 0.33070866141732286,
                    "duration": 0.056518499999981486
                },
                {
                    "name": "G#4",
                    "midi": 68,
                    "time": 335.71988999999803,
                    "velocity": 0.4409448818897638,
                    "duration": 0.056518499999981486
                },
                {
                    "name": "F4",
                    "midi": 65,
                    "time": 335.71988999999803,
                    "velocity": 0.4409448818897638,
                    "duration": 0.056518499999981486
                },
                {
                    "name": "F4",
                    "midi": 65,
                    "time": 335.945963999998,
                    "velocity": 0.3464566929133858,
                    "duration": 0.056518499999981486
                },
                {
                    "name": "C#4",
                    "midi": 61,
                    "time": 335.945963999998,
                    "velocity": 0.3464566929133858,
                    "duration": 0.056518499999981486
                },
                {
                    "name": "G#4",
                    "midi": 68,
                    "time": 336.172037999998,
                    "velocity": 0.4015748031496063,
                    "duration": 0.056518499999981486
                },
                {
                    "name": "F4",
                    "midi": 65,
                    "time": 336.172037999998,
                    "velocity": 0.4015748031496063,
                    "duration": 0.056518499999981486
                },
                {
                    "name": "C#4",
                    "midi": 61,
                    "time": 336.398111999998,
                    "velocity": 0.2755905511811024,
                    "duration": 0.056518499999981486
                },
                {
                    "name": "F4",
                    "midi": 65,
                    "time": 336.398111999998,
                    "velocity": 0.2755905511811024,
                    "duration": 0.056518499999981486
                },
                {
                    "name": "F4",
                    "midi": 65,
                    "time": 336.62418599999796,
                    "velocity": 0.3464566929133858,
                    "duration": 0.056518499999981486
                },
                {
                    "name": "G#4",
                    "midi": 68,
                    "time": 336.62418599999796,
                    "velocity": 0.3464566929133858,
                    "duration": 0.056518499999981486
                },
                {
                    "name": "C#4",
                    "midi": 61,
                    "time": 336.85025999999795,
                    "velocity": 0.2755905511811024,
                    "duration": 0.056518499999981486
                },
                {
                    "name": "F4",
                    "midi": 65,
                    "time": 336.85025999999795,
                    "velocity": 0.2755905511811024,
                    "duration": 0.056518499999981486
                },
                {
                    "name": "F4",
                    "midi": 65,
                    "time": 337.0763339999979,
                    "velocity": 0.33858267716535434,
                    "duration": 0.056518499999981486
                },
                {
                    "name": "G4",
                    "midi": 67,
                    "time": 337.0763339999979,
                    "velocity": 0.33858267716535434,
                    "duration": 0.056518499999981486
                },
                {
                    "name": "C#4",
                    "midi": 61,
                    "time": 337.3024079999979,
                    "velocity": 0.2677165354330709,
                    "duration": 0.056518499999981486
                },
                {
                    "name": "F4",
                    "midi": 65,
                    "time": 337.3024079999979,
                    "velocity": 0.2677165354330709,
                    "duration": 0.056518499999981486
                },
                {
                    "name": "F4",
                    "midi": 65,
                    "time": 337.5284819999979,
                    "velocity": 0.33858267716535434,
                    "duration": 0.056518499999981486
                },
                {
                    "name": "G4",
                    "midi": 67,
                    "time": 337.5284819999979,
                    "velocity": 0.33858267716535434,
                    "duration": 0.056518499999981486
                },
                {
                    "name": "D4",
                    "midi": 62,
                    "time": 337.7545559999979,
                    "velocity": 0.2677165354330709,
                    "duration": 0.056518499999981486
                },
                {
                    "name": "F4",
                    "midi": 65,
                    "time": 337.7545559999979,
                    "velocity": 0.2677165354330709,
                    "duration": 0.056518499999981486
                },
                {
                    "name": "D4",
                    "midi": 62,
                    "time": 337.98062999999786,
                    "velocity": 0.3228346456692913,
                    "duration": 0.056518499999981486
                },
                {
                    "name": "G3",
                    "midi": 55,
                    "time": 337.98062999999786,
                    "velocity": 0.3228346456692913,
                    "duration": 0.056518499999981486
                },
                {
                    "name": "F4",
                    "midi": 65,
                    "time": 338.20670399999784,
                    "velocity": 0.28346456692913385,
                    "duration": 0.056518499999981486
                },
                {
                    "name": "D4",
                    "midi": 62,
                    "time": 338.20670399999784,
                    "velocity": 0.28346456692913385,
                    "duration": 0.056518499999981486
                },
                {
                    "name": "F4",
                    "midi": 65,
                    "time": 338.4327779999978,
                    "velocity": 0.30708661417322836,
                    "duration": 0.056518499999981486
                },
                {
                    "name": "C4",
                    "midi": 60,
                    "time": 338.4327779999978,
                    "velocity": 0.30708661417322836,
                    "duration": 0.056518499999981486
                },
                {
                    "name": "G#3",
                    "midi": 56,
                    "time": 338.6588519999978,
                    "velocity": 0.2755905511811024,
                    "duration": 0.056518499999981486
                },
                {
                    "name": "C4",
                    "midi": 60,
                    "time": 338.6588519999978,
                    "velocity": 0.2755905511811024,
                    "duration": 0.056518499999981486
                },
                {
                    "name": "C4",
                    "midi": 60,
                    "time": 338.8849259999978,
                    "velocity": 0.3228346456692913,
                    "duration": 0.056518499999981486
                },
                {
                    "name": "F4",
                    "midi": 65,
                    "time": 338.8849259999978,
                    "velocity": 0.3228346456692913,
                    "duration": 0.056518499999981486
                },
                {
                    "name": "G#3",
                    "midi": 56,
                    "time": 339.1109999999978,
                    "velocity": 0.2755905511811024,
                    "duration": 0.056518499999981486
                },
                {
                    "name": "C4",
                    "midi": 60,
                    "time": 339.1109999999978,
                    "velocity": 0.2755905511811024,
                    "duration": 0.056518499999981486
                },
                {
                    "name": "F4",
                    "midi": 65,
                    "time": 339.33707399999776,
                    "velocity": 0.3228346456692913,
                    "duration": 0.056518499999981486
                },
                {
                    "name": "C4",
                    "midi": 60,
                    "time": 339.33707399999776,
                    "velocity": 0.3228346456692913,
                    "duration": 0.056518499999981486
                },
                {
                    "name": "G#3",
                    "midi": 56,
                    "time": 339.56314799999774,
                    "velocity": 0.2755905511811024,
                    "duration": 0.056518499999981486
                },
                {
                    "name": "C4",
                    "midi": 60,
                    "time": 339.56314799999774,
                    "velocity": 0.2755905511811024,
                    "duration": 0.056518499999981486
                },
                {
                    "name": "F4",
                    "midi": 65,
                    "time": 339.7892219999977,
                    "velocity": 0.31496062992125984,
                    "duration": 0.056518499999981486
                },
                {
                    "name": "C4",
                    "midi": 60,
                    "time": 339.7892219999977,
                    "velocity": 0.31496062992125984,
                    "duration": 0.056518499999981486
                },
                {
                    "name": "G#3",
                    "midi": 56,
                    "time": 340.0152959999977,
                    "velocity": 0.2440944881889764,
                    "duration": 0.056518499999981486
                },
                {
                    "name": "C4",
                    "midi": 60,
                    "time": 340.0152959999977,
                    "velocity": 0.2440944881889764,
                    "duration": 0.056518499999981486
                },
                {
                    "name": "C4",
                    "midi": 60,
                    "time": 340.2413699999977,
                    "velocity": 0.2992125984251969,
                    "duration": 0.056518499999981486
                },
                {
                    "name": "F4",
                    "midi": 65,
                    "time": 340.2413699999977,
                    "velocity": 0.2992125984251969,
                    "duration": 0.056518499999981486
                },
                {
                    "name": "C4",
                    "midi": 60,
                    "time": 340.46744399999767,
                    "velocity": 0.23622047244094488,
                    "duration": 0.056518499999981486
                },
                {
                    "name": "G#3",
                    "midi": 56,
                    "time": 340.46744399999767,
                    "velocity": 0.23622047244094488,
                    "duration": 0.056518499999981486
                },
                {
                    "name": "C4",
                    "midi": 60,
                    "time": 340.69351799999765,
                    "velocity": 0.30708661417322836,
                    "duration": 0.056518499999981486
                },
                {
                    "name": "F4",
                    "midi": 65,
                    "time": 340.69351799999765,
                    "velocity": 0.30708661417322836,
                    "duration": 0.056518499999981486
                },
                {
                    "name": "G#3",
                    "midi": 56,
                    "time": 340.91959199999764,
                    "velocity": 0.25196850393700787,
                    "duration": 0.056518499999981486
                },
                {
                    "name": "C4",
                    "midi": 60,
                    "time": 340.91959199999764,
                    "velocity": 0.25196850393700787,
                    "duration": 0.056518499999981486
                },
                {
                    "name": "F4",
                    "midi": 65,
                    "time": 341.1456659999976,
                    "velocity": 0.30708661417322836,
                    "duration": 0.056518499999981486
                },
                {
                    "name": "C4",
                    "midi": 60,
                    "time": 341.1456659999976,
                    "velocity": 0.30708661417322836,
                    "duration": 0.056518499999981486
                },
                {
                    "name": "C4",
                    "midi": 60,
                    "time": 341.3717399999976,
                    "velocity": 0.2677165354330709,
                    "duration": 0.056518499999981486
                },
                {
                    "name": "G3",
                    "midi": 55,
                    "time": 341.3717399999976,
                    "velocity": 0.2677165354330709,
                    "duration": 0.056518499999981486
                },
                {
                    "name": "F4",
                    "midi": 65,
                    "time": 341.5978139999976,
                    "velocity": 0.2992125984251969,
                    "duration": 0.056518499999981486
                },
                {
                    "name": "C4",
                    "midi": 60,
                    "time": 341.5978139999976,
                    "velocity": 0.2992125984251969,
                    "duration": 0.056518499999981486
                },
                {
                    "name": "G3",
                    "midi": 55,
                    "time": 341.82388799999757,
                    "velocity": 0.25196850393700787,
                    "duration": 0.056518499999981486
                },
                {
                    "name": "C4",
                    "midi": 60,
                    "time": 341.82388799999757,
                    "velocity": 0.25196850393700787,
                    "duration": 0.056518499999981486
                },
                {
                    "name": "F4",
                    "midi": 65,
                    "time": 342.04996199999755,
                    "velocity": 0.28346456692913385,
                    "duration": 0.056518499999981486
                },
                {
                    "name": "C4",
                    "midi": 60,
                    "time": 342.04996199999755,
                    "velocity": 0.28346456692913385,
                    "duration": 0.056518499999981486
                },
                {
                    "name": "G3",
                    "midi": 55,
                    "time": 342.27603599999753,
                    "velocity": 0.23622047244094488,
                    "duration": 0.056518499999981486
                },
                {
                    "name": "C4",
                    "midi": 60,
                    "time": 342.27603599999753,
                    "velocity": 0.23622047244094488,
                    "duration": 0.056518499999981486
                },
                {
                    "name": "E4",
                    "midi": 64,
                    "time": 342.5021099999975,
                    "velocity": 0.2677165354330709,
                    "duration": 0.056518499999981486
                },
                {
                    "name": "C4",
                    "midi": 60,
                    "time": 342.5021099999975,
                    "velocity": 0.2677165354330709,
                    "duration": 0.056518499999981486
                },
                {
                    "name": "C4",
                    "midi": 60,
                    "time": 342.7281839999975,
                    "velocity": 0.1968503937007874,
                    "duration": 0.056518499999981486
                },
                {
                    "name": "G3",
                    "midi": 55,
                    "time": 342.7281839999975,
                    "velocity": 0.1968503937007874,
                    "duration": 0.056518499999981486
                },
                {
                    "name": "E4",
                    "midi": 64,
                    "time": 342.9542579999975,
                    "velocity": 0.23622047244094488,
                    "duration": 0.056518499999981486
                },
                {
                    "name": "C4",
                    "midi": 60,
                    "time": 342.9542579999975,
                    "velocity": 0.23622047244094488,
                    "duration": 0.056518499999981486
                },
                {
                    "name": "C4",
                    "midi": 60,
                    "time": 343.18033199999746,
                    "velocity": 0.18110236220472442,
                    "duration": 0.056518499999981486
                },
                {
                    "name": "G3",
                    "midi": 55,
                    "time": 343.18033199999746,
                    "velocity": 0.18110236220472442,
                    "duration": 0.056518499999981486
                },
                {
                    "name": "C4",
                    "midi": 60,
                    "time": 343.40640599999745,
                    "velocity": 0.2283464566929134,
                    "duration": 0.056518499999981486
                },
                {
                    "name": "E4",
                    "midi": 64,
                    "time": 343.40640599999745,
                    "velocity": 0.2283464566929134,
                    "duration": 0.056518499999981486
                },
                {
                    "name": "G3",
                    "midi": 55,
                    "time": 343.63247999999743,
                    "velocity": 0.18110236220472442,
                    "duration": 0.056518499999981486
                },
                {
                    "name": "C4",
                    "midi": 60,
                    "time": 343.63247999999743,
                    "velocity": 0.18110236220472442,
                    "duration": 0.056518499999981486
                },
                {
                    "name": "F5",
                    "midi": 77,
                    "time": 345.2149979999974,
                    "velocity": 0.6929133858267716,
                    "duration": 0.2260739999999828
                },
                {
                    "name": "F4",
                    "midi": 65,
                    "time": 345.4410719999974,
                    "velocity": 0.6299212598425197,
                    "duration": 0.2260739999999828
                },
                {
                    "name": "F5",
                    "midi": 77,
                    "time": 345.6671459999974,
                    "velocity": 0.6299212598425197,
                    "duration": 0.056518499999981486
                },
                {
                    "name": "G#5",
                    "midi": 80,
                    "time": 345.89321999999737,
                    "velocity": 0.6929133858267716,
                    "duration": 0.2260739999999828
                },
                {
                    "name": "G#4",
                    "midi": 68,
                    "time": 346.11929399999735,
                    "velocity": 0.6299212598425197,
                    "duration": 0.2260739999999828
                },
                {
                    "name": "G#5",
                    "midi": 80,
                    "time": 346.34536799999734,
                    "velocity": 0.6299212598425197,
                    "duration": 0.056518499999981486
                },
                {
                    "name": "C6",
                    "midi": 84,
                    "time": 346.5714419999973,
                    "velocity": 0.6929133858267716,
                    "duration": 0.2260739999999828
                },
                {
                    "name": "C5",
                    "midi": 72,
                    "time": 346.7975159999973,
                    "velocity": 0.6299212598425197,
                    "duration": 0.2260739999999828
                },
                {
                    "name": "C6",
                    "midi": 84,
                    "time": 347.0235899999973,
                    "velocity": 0.6299212598425197,
                    "duration": 0.056518499999981486
                },
                {
                    "name": "G5",
                    "midi": 79,
                    "time": 347.24966399999727,
                    "velocity": 0.6929133858267716,
                    "duration": 0.2260739999999828
                },
                {
                    "name": "G4",
                    "midi": 67,
                    "time": 347.47573799999725,
                    "velocity": 0.6299212598425197,
                    "duration": 0.2260739999999828
                },
                {
                    "name": "G5",
                    "midi": 79,
                    "time": 347.70181199999723,
                    "velocity": 0.6299212598425197,
                    "duration": 0.056518499999981486
                },
                {
                    "name": "A#5",
                    "midi": 82,
                    "time": 347.9278859999972,
                    "velocity": 0.6929133858267716,
                    "duration": 0.2260739999999828
                },
                {
                    "name": "A#4",
                    "midi": 70,
                    "time": 348.1539599999972,
                    "velocity": 0.6299212598425197,
                    "duration": 0.2260739999999828
                },
                {
                    "name": "A#5",
                    "midi": 82,
                    "time": 348.3800339999972,
                    "velocity": 0.6299212598425197,
                    "duration": 0.056518499999981486
                },
                {
                    "name": "F5",
                    "midi": 77,
                    "time": 348.60610799999716,
                    "velocity": 0.6929133858267716,
                    "duration": 0.2260739999999828
                },
                {
                    "name": "F4",
                    "midi": 65,
                    "time": 348.83218199999715,
                    "velocity": 0.6299212598425197,
                    "duration": 0.2260739999999828
                },
                {
                    "name": "F5",
                    "midi": 77,
                    "time": 349.05825599999713,
                    "velocity": 0.6299212598425197,
                    "duration": 0.056518499999981486
                },
                {
                    "name": "G#5",
                    "midi": 80,
                    "time": 349.2843299999971,
                    "velocity": 0.6929133858267716,
                    "duration": 0.2260739999999828
                },
                {
                    "name": "F5",
                    "midi": 77,
                    "time": 349.2843299999971,
                    "velocity": 0.5826771653543307,
                    "duration": 0.2260739999999828
                },
                {
                    "name": "G#4",
                    "midi": 68,
                    "time": 349.5104039999971,
                    "velocity": 0.6299212598425197,
                    "duration": 0.2260739999999828
                },
                {
                    "name": "F5",
                    "midi": 77,
                    "time": 349.7364779999971,
                    "velocity": 0.5354330708661418,
                    "duration": 0.056518499999981486
                },
                {
                    "name": "G#5",
                    "midi": 80,
                    "time": 349.7364779999971,
                    "velocity": 0.6299212598425197,
                    "duration": 0.056518499999981486
                },
                {
                    "name": "G5",
                    "midi": 79,
                    "time": 349.96255199999706,
                    "velocity": 0.6929133858267716,
                    "duration": 0.2260739999999828
                },
                {
                    "name": "E5",
                    "midi": 76,
                    "time": 349.96255199999706,
                    "velocity": 0.47244094488188976,
                    "duration": 0.2260739999999828
                },
                {
                    "name": "G4",
                    "midi": 67,
                    "time": 350.18862599999704,
                    "velocity": 0.6299212598425197,
                    "duration": 0.2260739999999828
                },
                {
                    "name": "G5",
                    "midi": 79,
                    "time": 350.414699999997,
                    "velocity": 0.6299212598425197,
                    "duration": 0.056518499999981486
                },
                {
                    "name": "E5",
                    "midi": 76,
                    "time": 350.414699999997,
                    "velocity": 0.5354330708661418,
                    "duration": 0.056518499999981486
                },
                {
                    "name": "F5",
                    "midi": 77,
                    "time": 350.640773999997,
                    "velocity": 0.6929133858267716,
                    "duration": 0.2260739999999828
                },
                {
                    "name": "F4",
                    "midi": 65,
                    "time": 350.866847999997,
                    "velocity": 0.6299212598425197,
                    "duration": 0.2260739999999828
                },
                {
                    "name": "F5",
                    "midi": 77,
                    "time": 351.092921999997,
                    "velocity": 0.6299212598425197,
                    "duration": 0.056518499999981486
                },
                {
                    "name": "G#5",
                    "midi": 80,
                    "time": 351.31899599999696,
                    "velocity": 0.6929133858267716,
                    "duration": 0.2260739999999828
                },
                {
                    "name": "F5",
                    "midi": 77,
                    "time": 351.31899599999696,
                    "velocity": 0.5826771653543307,
                    "duration": 0.2260739999999828
                },
                {
                    "name": "G#4",
                    "midi": 68,
                    "time": 351.54506999999694,
                    "velocity": 0.6299212598425197,
                    "duration": 0.2260739999999828
                },
                {
                    "name": "F5",
                    "midi": 77,
                    "time": 351.7711439999969,
                    "velocity": 0.5354330708661418,
                    "duration": 0.056518499999981486
                },
                {
                    "name": "G#5",
                    "midi": 80,
                    "time": 351.7711439999969,
                    "velocity": 0.6299212598425197,
                    "duration": 0.056518499999981486
                },
                {
                    "name": "D#5",
                    "midi": 75,
                    "time": 351.9972179999969,
                    "velocity": 0.47244094488188976,
                    "duration": 0.2260739999999828
                },
                {
                    "name": "C6",
                    "midi": 84,
                    "time": 351.9972179999969,
                    "velocity": 0.6929133858267716,
                    "duration": 0.2260739999999828
                },
                {
                    "name": "C5",
                    "midi": 72,
                    "time": 352.2232919999969,
                    "velocity": 0.6299212598425197,
                    "duration": 0.2260739999999828
                },
                {
                    "name": "D#5",
                    "midi": 75,
                    "time": 352.44936599999687,
                    "velocity": 0.5354330708661418,
                    "duration": 0.056518499999981486
                },
                {
                    "name": "C6",
                    "midi": 84,
                    "time": 352.44936599999687,
                    "velocity": 0.6299212598425197,
                    "duration": 0.056518499999981486
                },
                {
                    "name": "D#5",
                    "midi": 75,
                    "time": 352.67543999999685,
                    "velocity": 0.5826771653543307,
                    "duration": 0.2260739999999828
                },
                {
                    "name": "G5",
                    "midi": 79,
                    "time": 352.67543999999685,
                    "velocity": 0.6929133858267716,
                    "duration": 0.2260739999999828
                },
                {
                    "name": "A#4",
                    "midi": 70,
                    "time": 352.90151399999684,
                    "velocity": 0.6299212598425197,
                    "duration": 0.2260739999999828
                },
                {
                    "name": "G5",
                    "midi": 79,
                    "time": 353.1275879999968,
                    "velocity": 0.6299212598425197,
                    "duration": 0.056518499999981486
                },
                {
                    "name": "D#5",
                    "midi": 75,
                    "time": 353.1275879999968,
                    "velocity": 0.5354330708661418,
                    "duration": 0.056518499999981486
                },
                {
                    "name": "F5",
                    "midi": 77,
                    "time": 353.3536619999968,
                    "velocity": 0.5826771653543307,
                    "duration": 0.2260739999999828
                },
                {
                    "name": "A#5",
                    "midi": 82,
                    "time": 353.3536619999968,
                    "velocity": 0.6929133858267716,
                    "duration": 0.2260739999999828
                },
                {
                    "name": "C#5",
                    "midi": 73,
                    "time": 353.3536619999968,
                    "velocity": 0.5826771653543307,
                    "duration": 0.2260739999999828
                },
                {
                    "name": "A#4",
                    "midi": 70,
                    "time": 353.5797359999968,
                    "velocity": 0.6299212598425197,
                    "duration": 0.2260739999999828
                },
                {
                    "name": "F5",
                    "midi": 77,
                    "time": 353.80580999999677,
                    "velocity": 0.5354330708661418,
                    "duration": 0.056518499999981486
                },
                {
                    "name": "C#5",
                    "midi": 73,
                    "time": 353.80580999999677,
                    "velocity": 0.5354330708661418,
                    "duration": 0.056518499999981486
                },
                {
                    "name": "A#5",
                    "midi": 82,
                    "time": 353.80580999999677,
                    "velocity": 0.6299212598425197,
                    "duration": 0.056518499999981486
                },
                {
                    "name": "G#4",
                    "midi": 68,
                    "time": 354.03188399999675,
                    "velocity": 0.47244094488188976,
                    "duration": 0.2260739999999828
                },
                {
                    "name": "F5",
                    "midi": 77,
                    "time": 354.03188399999675,
                    "velocity": 0.6929133858267716,
                    "duration": 0.2260739999999828
                },
                {
                    "name": "F4",
                    "midi": 65,
                    "time": 354.25795799999673,
                    "velocity": 0.6299212598425197,
                    "duration": 0.2260739999999828
                },
                {
                    "name": "G#4",
                    "midi": 68,
                    "time": 354.4840319999967,
                    "velocity": 0.5354330708661418,
                    "duration": 0.056518499999981486
                },
                {
                    "name": "F5",
                    "midi": 77,
                    "time": 354.4840319999967,
                    "velocity": 0.6299212598425197,
                    "duration": 0.056518499999981486
                },
                {
                    "name": "F5",
                    "midi": 77,
                    "time": 354.7101059999967,
                    "velocity": 0.5826771653543307,
                    "duration": 0.2260739999999828
                },
                {
                    "name": "G#5",
                    "midi": 80,
                    "time": 354.7101059999967,
                    "velocity": 0.6929133858267716,
                    "duration": 0.2260739999999828
                },
                {
                    "name": "G#4",
                    "midi": 68,
                    "time": 354.9361799999967,
                    "velocity": 0.6299212598425197,
                    "duration": 0.2260739999999828
                },
                {
                    "name": "F5",
                    "midi": 77,
                    "time": 355.16225399999666,
                    "velocity": 0.5354330708661418,
                    "duration": 0.056518499999981486
                },
                {
                    "name": "G#5",
                    "midi": 80,
                    "time": 355.16225399999666,
                    "velocity": 0.6299212598425197,
                    "duration": 0.056518499999981486
                },
                {
                    "name": "E5",
                    "midi": 76,
                    "time": 355.38832799999665,
                    "velocity": 0.5826771653543307,
                    "duration": 0.2260739999999828
                },
                {
                    "name": "G5",
                    "midi": 79,
                    "time": 355.38832799999665,
                    "velocity": 0.6929133858267716,
                    "duration": 0.2260739999999828
                },
                {
                    "name": "G4",
                    "midi": 67,
                    "time": 355.61440199999663,
                    "velocity": 0.6299212598425197,
                    "duration": 0.2260739999999828
                },
                {
                    "name": "G5",
                    "midi": 79,
                    "time": 355.8404759999966,
                    "velocity": 0.6299212598425197,
                    "duration": 0.056518499999981486
                },
                {
                    "name": "E5",
                    "midi": 76,
                    "time": 355.8404759999966,
                    "velocity": 0.5354330708661418,
                    "duration": 0.056518499999981486
                },
                {
                    "name": "F6",
                    "midi": 89,
                    "time": 356.0665499999966,
                    "velocity": 0.6929133858267716,
                    "duration": 0.2260739999999828
                },
                {
                    "name": "F5",
                    "midi": 77,
                    "time": 356.2926239999966,
                    "velocity": 0.5669291338582677,
                    "duration": 0.11303700000001982
                },
                {
                    "name": "F6",
                    "midi": 89,
                    "time": 356.4056609999966,
                    "velocity": 0.5669291338582677,
                    "duration": 0.11303700000001982
                },
                {
                    "name": "F5",
                    "midi": 77,
                    "time": 356.5186979999966,
                    "velocity": 0.6299212598425197,
                    "duration": 0.056518499999981486
                },
                {
                    "name": "G#6",
                    "midi": 92,
                    "time": 356.7447719999966,
                    "velocity": 0.6929133858267716,
                    "duration": 0.2260739999999828
                },
                {
                    "name": "F6",
                    "midi": 89,
                    "time": 356.7447719999966,
                    "velocity": 0.5826771653543307,
                    "duration": 0.2260739999999828
                },
                {
                    "name": "G#5",
                    "midi": 80,
                    "time": 356.9708459999966,
                    "velocity": 0.5669291338582677,
                    "duration": 0.11303700000001982
                },
                {
                    "name": "G#6",
                    "midi": 92,
                    "time": 357.0838829999966,
                    "velocity": 0.4645669291338583,
                    "duration": 0.11303700000001982
                },
                {
                    "name": "F6",
                    "midi": 89,
                    "time": 357.0838829999966,
                    "velocity": 0.3937007874015748,
                    "duration": 0.11303700000001982
                },
                {
                    "name": "G#5",
                    "midi": 80,
                    "time": 357.1969199999966,
                    "velocity": 0.6299212598425197,
                    "duration": 0.056518499999981486
                },
                {
                    "name": "C7",
                    "midi": 96,
                    "time": 357.4229939999966,
                    "velocity": 0.6929133858267716,
                    "duration": 0.2260739999999828
                },
                {
                    "name": "D#6",
                    "midi": 87,
                    "time": 357.4229939999966,
                    "velocity": 0.5826771653543307,
                    "duration": 0.2260739999999828
                },
                {
                    "name": "C6",
                    "midi": 84,
                    "time": 357.6490679999966,
                    "velocity": 0.5669291338582677,
                    "duration": 0.11303700000001982
                },
                {
                    "name": "D#6",
                    "midi": 87,
                    "time": 357.7621049999966,
                    "velocity": 0.4094488188976378,
                    "duration": 0.11303700000001982
                },
                {
                    "name": "C7",
                    "midi": 96,
                    "time": 357.7621049999966,
                    "velocity": 0.4881889763779528,
                    "duration": 0.11303700000001982
                },
                {
                    "name": "C6",
                    "midi": 84,
                    "time": 357.87514199999663,
                    "velocity": 0.6299212598425197,
                    "duration": 0.056518499999981486
                },
                {
                    "name": "D#6",
                    "midi": 87,
                    "time": 358.1012159999966,
                    "velocity": 0.5826771653543307,
                    "duration": 0.2260739999999828
                },
                {
                    "name": "G6",
                    "midi": 91,
                    "time": 358.1012159999966,
                    "velocity": 0.6929133858267716,
                    "duration": 0.2260739999999828
                },
                {
                    "name": "A#5",
                    "midi": 82,
                    "time": 358.3272899999966,
                    "velocity": 0.5669291338582677,
                    "duration": 0.11303700000001982
                },
                {
                    "name": "G6",
                    "midi": 91,
                    "time": 358.4403269999966,
                    "velocity": 0.5039370078740157,
                    "duration": 0.11303700000001982
                },
                {
                    "name": "D#6",
                    "midi": 87,
                    "time": 358.4403269999966,
                    "velocity": 0.4251968503937008,
                    "duration": 0.11303700000001982
                },
                {
                    "name": "A#5",
                    "midi": 82,
                    "time": 358.55336399999663,
                    "velocity": 0.6299212598425197,
                    "duration": 0.056518499999981486
                },
                {
                    "name": "F6",
                    "midi": 89,
                    "time": 358.7794379999966,
                    "velocity": 0.5826771653543307,
                    "duration": 0.2260739999999828
                },
                {
                    "name": "C#6",
                    "midi": 85,
                    "time": 358.7794379999966,
                    "velocity": 0.5826771653543307,
                    "duration": 0.2260739999999828
                },
                {
                    "name": "A#6",
                    "midi": 94,
                    "time": 358.7794379999966,
                    "velocity": 0.6929133858267716,
                    "duration": 0.2260739999999828
                },
                {
                    "name": "A#5",
                    "midi": 82,
                    "time": 359.0055119999966,
                    "velocity": 0.5669291338582677,
                    "duration": 0.11303700000001982
                },
                {
                    "name": "A#6",
                    "midi": 94,
                    "time": 359.1185489999966,
                    "velocity": 0.5039370078740157,
                    "duration": 0.11303700000001982
                },
                {
                    "name": "C#6",
                    "midi": 85,
                    "time": 359.1185489999966,
                    "velocity": 0.4251968503937008,
                    "duration": 0.11303700000001982
                },
                {
                    "name": "F6",
                    "midi": 89,
                    "time": 359.1185489999966,
                    "velocity": 0.4251968503937008,
                    "duration": 0.11303700000001982
                },
                {
                    "name": "A#5",
                    "midi": 82,
                    "time": 359.23158599999664,
                    "velocity": 0.6299212598425197,
                    "duration": 0.056518499999981486
                },
                {
                    "name": "G#5",
                    "midi": 80,
                    "time": 359.4576599999966,
                    "velocity": 0.5826771653543307,
                    "duration": 0.2260739999999828
                },
                {
                    "name": "F6",
                    "midi": 89,
                    "time": 359.4576599999966,
                    "velocity": 0.6929133858267716,
                    "duration": 0.2260739999999828
                },
                {
                    "name": "F5",
                    "midi": 77,
                    "time": 359.6837339999966,
                    "velocity": 0.5669291338582677,
                    "duration": 0.11303700000001982
                },
                {
                    "name": "G#5",
                    "midi": 80,
                    "time": 359.7967709999966,
                    "velocity": 0.41732283464566927,
                    "duration": 0.11303700000001982
                },
                {
                    "name": "F6",
                    "midi": 89,
                    "time": 359.7967709999966,
                    "velocity": 0.49606299212598426,
                    "duration": 0.11303700000001982
                },
                {
                    "name": "F5",
                    "midi": 77,
                    "time": 359.90980799999664,
                    "velocity": 0.6299212598425197,
                    "duration": 0.056518499999981486
                },
                {
                    "name": "F6",
                    "midi": 89,
                    "time": 360.1358819999966,
                    "velocity": 0.5826771653543307,
                    "duration": 0.2260739999999828
                },
                {
                    "name": "G#6",
                    "midi": 92,
                    "time": 360.1358819999966,
                    "velocity": 0.6929133858267716,
                    "duration": 0.2260739999999828
                },
                {
                    "name": "G#5",
                    "midi": 80,
                    "time": 360.3619559999966,
                    "velocity": 0.5669291338582677,
                    "duration": 0.11303700000001982
                },
                {
                    "name": "F6",
                    "midi": 89,
                    "time": 360.47499299999663,
                    "velocity": 0.41732283464566927,
                    "duration": 0.11303700000001982
                },
                {
                    "name": "G#6",
                    "midi": 92,
                    "time": 360.47499299999663,
                    "velocity": 0.49606299212598426,
                    "duration": 0.11303700000001982
                },
                {
                    "name": "G#5",
                    "midi": 80,
                    "time": 360.58802999999665,
                    "velocity": 0.6299212598425197,
                    "duration": 0.056518499999981486
                },
                {
                    "name": "E6",
                    "midi": 88,
                    "time": 360.81410399999663,
                    "velocity": 0.47244094488188976,
                    "duration": 0.2260739999999828
                },
                {
                    "name": "G6",
                    "midi": 91,
                    "time": 360.81410399999663,
                    "velocity": 0.6929133858267716,
                    "duration": 0.2260739999999828
                },
                {
                    "name": "G5",
                    "midi": 79,
                    "time": 361.0401779999966,
                    "velocity": 0.5669291338582677,
                    "duration": 0.11303700000001982
                },
                {
                    "name": "E6",
                    "midi": 88,
                    "time": 361.15321499999664,
                    "velocity": 0.4094488188976378,
                    "duration": 0.11303700000001982
                },
                {
                    "name": "G6",
                    "midi": 91,
                    "time": 361.15321499999664,
                    "velocity": 0.4881889763779528,
                    "duration": 0.11303700000001982
                },
                {
                    "name": "G5",
                    "midi": 79,
                    "time": 361.26625199999665,
                    "velocity": 0.6299212598425197,
                    "duration": 0.056518499999981486
                },
                {
                    "name": "G#6",
                    "midi": 92,
                    "time": 361.49232599999664,
                    "velocity": 0.6929133858267716,
                    "duration": 0.2260739999999828
                },
                {
                    "name": "F6",
                    "midi": 89,
                    "time": 361.49232599999664,
                    "velocity": 0.5826771653543307,
                    "duration": 0.2260739999999828
                },
                {
                    "name": "G#5",
                    "midi": 80,
                    "time": 361.7183999999966,
                    "velocity": 0.5669291338582677,
                    "duration": 0.11303700000001982
                },
                {
                    "name": "G#6",
                    "midi": 92,
                    "time": 361.83143699999664,
                    "velocity": 0.5039370078740157,
                    "duration": 0.11303700000001982
                },
                {
                    "name": "F6",
                    "midi": 89,
                    "time": 361.83143699999664,
                    "velocity": 0.4251968503937008,
                    "duration": 0.11303700000001982
                },
                {
                    "name": "G#5",
                    "midi": 80,
                    "time": 361.94447399999666,
                    "velocity": 0.6377952755905512,
                    "duration": 0.056518499999981486
                },
                {
                    "name": "E6",
                    "midi": 88,
                    "time": 362.17054799999664,
                    "velocity": 0.6062992125984252,
                    "duration": 0.2260739999999828
                },
                {
                    "name": "C7",
                    "midi": 96,
                    "time": 362.17054799999664,
                    "velocity": 0.7165354330708661,
                    "duration": 0.2260739999999828
                },
                {
                    "name": "G6",
                    "midi": 91,
                    "time": 362.17054799999664,
                    "velocity": 0.6062992125984252,
                    "duration": 0.2260739999999828
                },
                {
                    "name": "C6",
                    "midi": 84,
                    "time": 362.3966219999966,
                    "velocity": 0.5905511811023622,
                    "duration": 0.11303700000001982
                },
                {
                    "name": "C7",
                    "midi": 96,
                    "time": 362.50965899999665,
                    "velocity": 0.5196850393700787,
                    "duration": 0.11303700000001982
                },
                {
                    "name": "E6",
                    "midi": 88,
                    "time": 362.50965899999665,
                    "velocity": 0.4409448818897638,
                    "duration": 0.11303700000001982
                },
                {
                    "name": "G6",
                    "midi": 91,
                    "time": 362.50965899999665,
                    "velocity": 0.5196850393700787,
                    "duration": 0.11303700000001982
                },
                {
                    "name": "C6",
                    "midi": 84,
                    "time": 362.62269599999667,
                    "velocity": 0.6614173228346457,
                    "duration": 0.056518499999981486
                },
                {
                    "name": "C7",
                    "midi": 96,
                    "time": 362.84876999999665,
                    "velocity": 0.7480314960629921,
                    "duration": 0.2260739999999828
                },
                {
                    "name": "G#6",
                    "midi": 92,
                    "time": 362.84876999999665,
                    "velocity": 0.5039370078740157,
                    "duration": 0.2260739999999828
                },
                {
                    "name": "F6",
                    "midi": 89,
                    "time": 362.84876999999665,
                    "velocity": 0.5039370078740157,
                    "duration": 0.2260739999999828
                },
                {
                    "name": "C6",
                    "midi": 84,
                    "time": 363.07484399999663,
                    "velocity": 0.6141732283464567,
                    "duration": 0.11303700000001982
                },
                {
                    "name": "C7",
                    "midi": 96,
                    "time": 363.18788099999665,
                    "velocity": 0.5433070866141733,
                    "duration": 0.11303700000001982
                },
                {
                    "name": "F6",
                    "midi": 89,
                    "time": 363.18788099999665,
                    "velocity": 0.4566929133858268,
                    "duration": 0.11303700000001982
                },
                {
                    "name": "G#6",
                    "midi": 92,
                    "time": 363.18788099999665,
                    "velocity": 0.4566929133858268,
                    "duration": 0.11303700000001982
                },
                {
                    "name": "C6",
                    "midi": 84,
                    "time": 363.30091799999667,
                    "velocity": 0.6929133858267716,
                    "duration": 0.056518499999981486
                },
                {
                    "name": "G6",
                    "midi": 91,
                    "time": 363.52699199999665,
                    "velocity": 0.6535433070866141,
                    "duration": 0.2260739999999828
                },
                {
                    "name": "C7",
                    "midi": 96,
                    "time": 363.52699199999665,
                    "velocity": 0.6535433070866141,
                    "duration": 0.2260739999999828
                },
                {
                    "name": "E7",
                    "midi": 100,
                    "time": 363.52699199999665,
                    "velocity": 0.7716535433070866,
                    "duration": 0.2260739999999828
                },
                {
                    "name": "E6",
                    "midi": 88,
                    "time": 363.75306599999664,
                    "velocity": 0.6377952755905512,
                    "duration": 0.11303700000001982
                },
                {
                    "name": "C7",
                    "midi": 96,
                    "time": 363.86610299999666,
                    "velocity": 0.48031496062992124,
                    "duration": 0.11303700000001982
                },
                {
                    "name": "G6",
                    "midi": 91,
                    "time": 363.86610299999666,
                    "velocity": 0.48031496062992124,
                    "duration": 0.11303700000001982
                },
                {
                    "name": "E7",
                    "midi": 100,
                    "time": 363.86610299999666,
                    "velocity": 0.5669291338582677,
                    "duration": 0.11303700000001982
                },
                {
                    "name": "E6",
                    "midi": 88,
                    "time": 363.9791399999967,
                    "velocity": 0.7165354330708661,
                    "duration": 0.056518499999981486
                },
                {
                    "name": "F6",
                    "midi": 89,
                    "time": 364.09217699999664,
                    "velocity": 0.6692913385826772,
                    "duration": 0.03767900000002555
                },
                {
                    "name": "G#6",
                    "midi": 92,
                    "time": 364.12985599999666,
                    "velocity": 0.7086614173228346,
                    "duration": 0.03767900000002555
                },
                {
                    "name": "C7",
                    "midi": 96,
                    "time": 364.1675349999967,
                    "velocity": 0.7559055118110236,
                    "duration": 0.03767900000002555
                },
                {
                    "name": "F7",
                    "midi": 101,
                    "time": 364.2052139999967,
                    "velocity": 0.8267716535433071,
                    "duration": 0.11303700000001982
                },
                {
                    "name": "D#7",
                    "midi": 99,
                    "time": 364.31825099999674,
                    "velocity": 0.8110236220472441,
                    "duration": 0.11303700000001982
                },
                {
                    "name": "C#7",
                    "midi": 97,
                    "time": 364.43128799999675,
                    "velocity": 0.7952755905511811,
                    "duration": 0.11303700000001982
                },
                {
                    "name": "C7",
                    "midi": 96,
                    "time": 364.5443249999968,
                    "velocity": 0.7716535433070866,
                    "duration": 0.11303700000001982
                },
                {
                    "name": "A#6",
                    "midi": 94,
                    "time": 364.6573619999968,
                    "velocity": 0.7559055118110236,
                    "duration": 0.11303700000001982
                },
                {
                    "name": "G#6",
                    "midi": 92,
                    "time": 364.7703989999968,
                    "velocity": 0.7401574803149606,
                    "duration": 0.11303700000001982
                },
                {
                    "name": "G6",
                    "midi": 91,
                    "time": 364.88343599999683,
                    "velocity": 0.7244094488188977,
                    "duration": 0.11303700000001982
                },
                {
                    "name": "F6",
                    "midi": 89,
                    "time": 364.99647299999685,
                    "velocity": 0.7007874015748031,
                    "duration": 0.11303700000001982
                },
                {
                    "name": "D#6",
                    "midi": 87,
                    "time": 365.1095099999969,
                    "velocity": 0.6850393700787402,
                    "duration": 0.11303700000001982
                },
                {
                    "name": "C#6",
                    "midi": 85,
                    "time": 365.2225469999969,
                    "velocity": 0.6692913385826772,
                    "duration": 0.11303700000001982
                },
                {
                    "name": "C6",
                    "midi": 84,
                    "time": 365.3355839999969,
                    "velocity": 0.6456692913385826,
                    "duration": 0.11303700000001982
                },
                {
                    "name": "A#5",
                    "midi": 82,
                    "time": 365.44862099999693,
                    "velocity": 0.6299212598425197,
                    "duration": 0.11303700000001982
                },
                {
                    "name": "G#5",
                    "midi": 80,
                    "time": 365.56165799999695,
                    "velocity": 0.6299212598425197,
                    "duration": 0.11303700000001982
                },
                {
                    "name": "G5",
                    "midi": 79,
                    "time": 365.674694999997,
                    "velocity": 0.6220472440944882,
                    "duration": 0.11303700000001982
                },
                {
                    "name": "F5",
                    "midi": 77,
                    "time": 365.787731999997,
                    "velocity": 0.6141732283464567,
                    "duration": 0.11303700000001982
                },
                {
                    "name": "D#5",
                    "midi": 75,
                    "time": 365.900768999997,
                    "velocity": 0.6141732283464567,
                    "duration": 0.11303700000001982
                },
                {
                    "name": "C#5",
                    "midi": 73,
                    "time": 366.01380599999703,
                    "velocity": 0.6062992125984252,
                    "duration": 0.11303700000001982
                },
                {
                    "name": "C5",
                    "midi": 72,
                    "time": 366.12684299999705,
                    "velocity": 0.5984251968503937,
                    "duration": 0.11303700000001982
                },
                {
                    "name": "A#4",
                    "midi": 70,
                    "time": 366.2398799999971,
                    "velocity": 0.5905511811023622,
                    "duration": 0.11303700000001982
                },
                {
                    "name": "G#4",
                    "midi": 68,
                    "time": 366.3529169999971,
                    "velocity": 0.5826771653543307,
                    "duration": 0.11303700000001982
                },
                {
                    "name": "G4",
                    "midi": 67,
                    "time": 366.4659539999971,
                    "velocity": 0.5748031496062992,
                    "duration": 0.11303700000001982
                },
                {
                    "name": "F4",
                    "midi": 65,
                    "time": 366.57899099999713,
                    "velocity": 0.5669291338582677,
                    "duration": 0.11303700000001982
                },
                {
                    "name": "D#4",
                    "midi": 63,
                    "time": 366.69202799999715,
                    "velocity": 0.5590551181102362,
                    "duration": 0.11303700000001982
                },
                {
                    "name": "C#4",
                    "midi": 61,
                    "time": 366.80506499999717,
                    "velocity": 0.5511811023622047,
                    "duration": 0.11303700000001982
                }
            ],
            "controlChanges": {},
            "id": 1,
            "name": "Piano right",
            "instrumentNumber": 0,
            "instrument": "acoustic grand piano",
            "instrumentFamily": "piano",
            "channelNumber": 0,
            "isPercussion": false
        },
        {
            "startTime": 0,
            "duration": 369.1788420000024,
            "length": 1822,
            "notes": [
                {
                    "name": "F3",
                    "midi": 53,
                    "time": 0,
                    "velocity": 0.2755905511811024,
                    "duration": 0.0565185
                },
                {
                    "name": "G#3",
                    "midi": 56,
                    "time": 0.226074,
                    "velocity": 0.1968503937007874,
                    "duration": 0.05651850000000003
                },
                {
                    "name": "C4",
                    "midi": 60,
                    "time": 0.226074,
                    "velocity": 0.1968503937007874,
                    "duration": 0.05651850000000003
                },
                {
                    "name": "F4",
                    "midi": 65,
                    "time": 0.226074,
                    "velocity": 0.23622047244094488,
                    "duration": 0.05651850000000003
                },
                {
                    "name": "F3",
                    "midi": 53,
                    "time": 0.452148,
                    "velocity": 0.23622047244094488,
                    "duration": 0.05651850000000003
                },
                {
                    "name": "C4",
                    "midi": 60,
                    "time": 0.678222,
                    "velocity": 0.2283464566929134,
                    "duration": 0.05651850000000003
                },
                {
                    "name": "G#3",
                    "midi": 56,
                    "time": 0.678222,
                    "velocity": 0.2283464566929134,
                    "duration": 0.05651850000000003
                },
                {
                    "name": "F4",
                    "midi": 65,
                    "time": 0.678222,
                    "velocity": 0.2755905511811024,
                    "duration": 0.05651850000000003
                },
                {
                    "name": "F3",
                    "midi": 53,
                    "time": 0.904296,
                    "velocity": 0.2440944881889764,
                    "duration": 0.05651850000000003
                },
                {
                    "name": "G#3",
                    "midi": 56,
                    "time": 1.13037,
                    "velocity": 0.2047244094488189,
                    "duration": 0.056518499999999916
                },
                {
                    "name": "F4",
                    "midi": 65,
                    "time": 1.13037,
                    "velocity": 0.2440944881889764,
                    "duration": 0.056518499999999916
                },
                {
                    "name": "C4",
                    "midi": 60,
                    "time": 1.13037,
                    "velocity": 0.2047244094488189,
                    "duration": 0.056518499999999916
                },
                {
                    "name": "F3",
                    "midi": 53,
                    "time": 1.356444,
                    "velocity": 0.2755905511811024,
                    "duration": 0.056518499999999916
                },
                {
                    "name": "D4",
                    "midi": 62,
                    "time": 1.5825179999999999,
                    "velocity": 0.2440944881889764,
                    "duration": 0.056518499999999916
                },
                {
                    "name": "B3",
                    "midi": 59,
                    "time": 1.5825179999999999,
                    "velocity": 0.2047244094488189,
                    "duration": 0.056518499999999916
                },
                {
                    "name": "G#3",
                    "midi": 56,
                    "time": 1.5825179999999999,
                    "velocity": 0.2047244094488189,
                    "duration": 0.056518499999999916
                },
                {
                    "name": "F3",
                    "midi": 53,
                    "time": 1.8085919999999998,
                    "velocity": 0.2440944881889764,
                    "duration": 0.056518499999999916
                },
                {
                    "name": "C3",
                    "midi": 48,
                    "time": 2.0346659999999996,
                    "velocity": 0.2755905511811024,
                    "duration": 0.05651850000000014
                },
                {
                    "name": "C4",
                    "midi": 60,
                    "time": 2.2607399999999997,
                    "velocity": 0.25196850393700787,
                    "duration": 0.05651850000000014
                },
                {
                    "name": "G3",
                    "midi": 55,
                    "time": 2.2607399999999997,
                    "velocity": 0.2125984251968504,
                    "duration": 0.05651850000000014
                },
                {
                    "name": "E3",
                    "midi": 52,
                    "time": 2.2607399999999997,
                    "velocity": 0.2125984251968504,
                    "duration": 0.05651850000000014
                },
                {
                    "name": "C3",
                    "midi": 48,
                    "time": 2.486814,
                    "velocity": 0.25196850393700787,
                    "duration": 0.05651850000000014
                },
                {
                    "name": "C4",
                    "midi": 60,
                    "time": 2.712888,
                    "velocity": 0.2755905511811024,
                    "duration": 0.05651850000000014
                },
                {
                    "name": "E3",
                    "midi": 52,
                    "time": 2.712888,
                    "velocity": 0.2283464566929134,
                    "duration": 0.05651850000000014
                },
                {
                    "name": "G3",
                    "midi": 55,
                    "time": 2.712888,
                    "velocity": 0.2283464566929134,
                    "duration": 0.05651850000000014
                },
                {
                    "name": "C3",
                    "midi": 48,
                    "time": 2.938962,
                    "velocity": 0.2440944881889764,
                    "duration": 0.05651850000000014
                },
                {
                    "name": "E3",
                    "midi": 52,
                    "time": 3.165036,
                    "velocity": 0.2047244094488189,
                    "duration": 0.05651850000000014
                },
                {
                    "name": "C4",
                    "midi": 60,
                    "time": 3.165036,
                    "velocity": 0.2440944881889764,
                    "duration": 0.05651850000000014
                },
                {
                    "name": "G3",
                    "midi": 55,
                    "time": 3.165036,
                    "velocity": 0.2047244094488189,
                    "duration": 0.05651850000000014
                },
                {
                    "name": "C#3",
                    "midi": 49,
                    "time": 3.3911100000000003,
                    "velocity": 0.2755905511811024,
                    "duration": 0.05651850000000014
                },
                {
                    "name": "C#4",
                    "midi": 61,
                    "time": 3.6171840000000004,
                    "velocity": 0.2440944881889764,
                    "duration": 0.05651850000000014
                },
                {
                    "name": "F3",
                    "midi": 53,
                    "time": 3.6171840000000004,
                    "velocity": 0.2047244094488189,
                    "duration": 0.05651850000000014
                },
                {
                    "name": "C#3",
                    "midi": 49,
                    "time": 3.8432580000000005,
                    "velocity": 0.2440944881889764,
                    "duration": 0.05651850000000014
                },
                {
                    "name": "A#2",
                    "midi": 46,
                    "time": 4.069332000000001,
                    "velocity": 0.2755905511811024,
                    "duration": 0.22607399999999966
                },
                {
                    "name": "A#3",
                    "midi": 58,
                    "time": 4.295406000000001,
                    "velocity": 0.25984251968503935,
                    "duration": 0.22607399999999966
                },
                {
                    "name": "G3",
                    "midi": 55,
                    "time": 4.295406000000001,
                    "velocity": 0.2204724409448819,
                    "duration": 0.22607399999999966
                },
                {
                    "name": "C3",
                    "midi": 48,
                    "time": 4.52148,
                    "velocity": 0.2204724409448819,
                    "duration": 0.11303700000000028
                },
                {
                    "name": "A#3",
                    "midi": 58,
                    "time": 4.52148,
                    "velocity": 0.25984251968503935,
                    "duration": 0.11303700000000028
                },
                {
                    "name": "G3",
                    "midi": 55,
                    "time": 4.52148,
                    "velocity": 0.2204724409448819,
                    "duration": 0.11303700000000028
                },
                {
                    "name": "F3",
                    "midi": 53,
                    "time": 4.747554000000001,
                    "velocity": 0.2677165354330709,
                    "duration": 0.4521480000000002
                },
                {
                    "name": "G#3",
                    "midi": 56,
                    "time": 4.747554000000001,
                    "velocity": 0.31496062992125984,
                    "duration": 0.4521480000000002
                },
                {
                    "name": "F3",
                    "midi": 53,
                    "time": 5.425776000000001,
                    "velocity": 0.2755905511811024,
                    "duration": 0.05651850000000014
                },
                {
                    "name": "C4",
                    "midi": 60,
                    "time": 5.651850000000001,
                    "velocity": 0.1968503937007874,
                    "duration": 0.05651850000000014
                },
                {
                    "name": "F4",
                    "midi": 65,
                    "time": 5.651850000000001,
                    "velocity": 0.23622047244094488,
                    "duration": 0.05651850000000014
                },
                {
                    "name": "G#3",
                    "midi": 56,
                    "time": 5.651850000000001,
                    "velocity": 0.1968503937007874,
                    "duration": 0.05651850000000014
                },
                {
                    "name": "F3",
                    "midi": 53,
                    "time": 5.877924000000002,
                    "velocity": 0.23622047244094488,
                    "duration": 0.05651850000000014
                },
                {
                    "name": "C4",
                    "midi": 60,
                    "time": 6.1039980000000025,
                    "velocity": 0.2283464566929134,
                    "duration": 0.05651850000000014
                },
                {
                    "name": "F4",
                    "midi": 65,
                    "time": 6.1039980000000025,
                    "velocity": 0.2755905511811024,
                    "duration": 0.05651850000000014
                },
                {
                    "name": "G#3",
                    "midi": 56,
                    "time": 6.1039980000000025,
                    "velocity": 0.2283464566929134,
                    "duration": 0.05651850000000014
                },
                {
                    "name": "F3",
                    "midi": 53,
                    "time": 6.330072000000003,
                    "velocity": 0.2440944881889764,
                    "duration": 0.05651850000000014
                },
                {
                    "name": "G#3",
                    "midi": 56,
                    "time": 6.556146000000004,
                    "velocity": 0.2047244094488189,
                    "duration": 0.05651850000000014
                },
                {
                    "name": "F4",
                    "midi": 65,
                    "time": 6.556146000000004,
                    "velocity": 0.2440944881889764,
                    "duration": 0.05651850000000014
                },
                {
                    "name": "C4",
                    "midi": 60,
                    "time": 6.556146000000004,
                    "velocity": 0.2047244094488189,
                    "duration": 0.05651850000000014
                },
                {
                    "name": "F3",
                    "midi": 53,
                    "time": 6.782220000000004,
                    "velocity": 0.2755905511811024,
                    "duration": 0.05651850000000014
                },
                {
                    "name": "G#3",
                    "midi": 56,
                    "time": 7.008294000000005,
                    "velocity": 0.2047244094488189,
                    "duration": 0.05651850000000014
                },
                {
                    "name": "B3",
                    "midi": 59,
                    "time": 7.008294000000005,
                    "velocity": 0.2047244094488189,
                    "duration": 0.05651850000000014
                },
                {
                    "name": "D4",
                    "midi": 62,
                    "time": 7.008294000000005,
                    "velocity": 0.2440944881889764,
                    "duration": 0.05651850000000014
                },
                {
                    "name": "F3",
                    "midi": 53,
                    "time": 7.234368000000005,
                    "velocity": 0.2440944881889764,
                    "duration": 0.05651850000000014
                },
                {
                    "name": "C3",
                    "midi": 48,
                    "time": 7.460442000000006,
                    "velocity": 0.2755905511811024,
                    "duration": 0.05651850000000014
                },
                {
                    "name": "E3",
                    "midi": 52,
                    "time": 7.686516000000006,
                    "velocity": 0.2125984251968504,
                    "duration": 0.05651850000000014
                },
                {
                    "name": "G3",
                    "midi": 55,
                    "time": 7.686516000000006,
                    "velocity": 0.2125984251968504,
                    "duration": 0.05651850000000014
                },
                {
                    "name": "C4",
                    "midi": 60,
                    "time": 7.686516000000006,
                    "velocity": 0.25196850393700787,
                    "duration": 0.05651850000000014
                },
                {
                    "name": "C3",
                    "midi": 48,
                    "time": 7.912590000000007,
                    "velocity": 0.25196850393700787,
                    "duration": 0.05651850000000014
                },
                {
                    "name": "C4",
                    "midi": 60,
                    "time": 8.138664000000007,
                    "velocity": 0.2755905511811024,
                    "duration": 0.05651849999999925
                },
                {
                    "name": "G3",
                    "midi": 55,
                    "time": 8.138664000000007,
                    "velocity": 0.2283464566929134,
                    "duration": 0.05651849999999925
                },
                {
                    "name": "E3",
                    "midi": 52,
                    "time": 8.138664000000007,
                    "velocity": 0.2283464566929134,
                    "duration": 0.05651849999999925
                },
                {
                    "name": "C3",
                    "midi": 48,
                    "time": 8.364738000000006,
                    "velocity": 0.2440944881889764,
                    "duration": 0.05651849999999925
                },
                {
                    "name": "E3",
                    "midi": 52,
                    "time": 8.590812000000005,
                    "velocity": 0.2047244094488189,
                    "duration": 0.05651849999999925
                },
                {
                    "name": "C4",
                    "midi": 60,
                    "time": 8.590812000000005,
                    "velocity": 0.2440944881889764,
                    "duration": 0.05651849999999925
                },
                {
                    "name": "G3",
                    "midi": 55,
                    "time": 8.590812000000005,
                    "velocity": 0.2047244094488189,
                    "duration": 0.05651849999999925
                },
                {
                    "name": "C#3",
                    "midi": 49,
                    "time": 8.816886000000004,
                    "velocity": 0.2755905511811024,
                    "duration": 0.05651849999999925
                },
                {
                    "name": "C#4",
                    "midi": 61,
                    "time": 9.042960000000003,
                    "velocity": 0.2440944881889764,
                    "duration": 0.05651849999999925
                },
                {
                    "name": "F3",
                    "midi": 53,
                    "time": 9.042960000000003,
                    "velocity": 0.2047244094488189,
                    "duration": 0.05651849999999925
                },
                {
                    "name": "C#3",
                    "midi": 49,
                    "time": 9.269034000000001,
                    "velocity": 0.2440944881889764,
                    "duration": 0.05651849999999925
                },
                {
                    "name": "A#2",
                    "midi": 46,
                    "time": 9.495108,
                    "velocity": 0.2755905511811024,
                    "duration": 0.22607400000000055
                },
                {
                    "name": "G3",
                    "midi": 55,
                    "time": 9.721182,
                    "velocity": 0.2204724409448819,
                    "duration": 0.22607400000000055
                },
                {
                    "name": "A#3",
                    "midi": 58,
                    "time": 9.721182,
                    "velocity": 0.25984251968503935,
                    "duration": 0.22607400000000055
                },
                {
                    "name": "A#3",
                    "midi": 58,
                    "time": 9.947256000000001,
                    "velocity": 0.25984251968503935,
                    "duration": 0.22607400000000055
                },
                {
                    "name": "C3",
                    "midi": 48,
                    "time": 9.947256000000001,
                    "velocity": 0.2204724409448819,
                    "duration": 0.22607400000000055
                },
                {
                    "name": "G3",
                    "midi": 55,
                    "time": 9.947256000000001,
                    "velocity": 0.2204724409448819,
                    "duration": 0.22607400000000055
                },
                {
                    "name": "G#3",
                    "midi": 56,
                    "time": 10.173330000000002,
                    "velocity": 0.31496062992125984,
                    "duration": 0.22607400000000055
                },
                {
                    "name": "F3",
                    "midi": 53,
                    "time": 10.173330000000002,
                    "velocity": 0.2677165354330709,
                    "duration": 0.22607400000000055
                },
                {
                    "name": "C2",
                    "midi": 36,
                    "time": 10.851552000000002,
                    "velocity": 0.47244094488188976,
                    "duration": 0.05651849999999925
                },
                {
                    "name": "C3",
                    "midi": 48,
                    "time": 11.077626,
                    "velocity": 0.4330708661417323,
                    "duration": 0.05651849999999925
                },
                {
                    "name": "C2",
                    "midi": 36,
                    "time": 11.3037,
                    "velocity": 0.47244094488188976,
                    "duration": 0.05651849999999925
                },
                {
                    "name": "C3",
                    "midi": 48,
                    "time": 11.529773999999998,
                    "velocity": 0.41732283464566927,
                    "duration": 0.05651849999999925
                },
                {
                    "name": "C2",
                    "midi": 36,
                    "time": 11.755847999999997,
                    "velocity": 0.47244094488188976,
                    "duration": 0.05651849999999925
                },
                {
                    "name": "C3",
                    "midi": 48,
                    "time": 11.981921999999996,
                    "velocity": 0.4094488188976378,
                    "duration": 0.05651849999999925
                },
                {
                    "name": "C2",
                    "midi": 36,
                    "time": 12.207995999999994,
                    "velocity": 0.3858267716535433,
                    "duration": 0.05651849999999925
                },
                {
                    "name": "C3",
                    "midi": 48,
                    "time": 12.434069999999993,
                    "velocity": 0.33858267716535434,
                    "duration": 0.05651849999999925
                },
                {
                    "name": "C2",
                    "midi": 36,
                    "time": 12.660143999999992,
                    "velocity": 0.33858267716535434,
                    "duration": 0.05651849999999925
                },
                {
                    "name": "C3",
                    "midi": 48,
                    "time": 12.88621799999999,
                    "velocity": 0.33858267716535434,
                    "duration": 0.05651849999999925
                },
                {
                    "name": "C2",
                    "midi": 36,
                    "time": 13.11229199999999,
                    "velocity": 0.3228346456692913,
                    "duration": 0.05651849999999925
                },
                {
                    "name": "C3",
                    "midi": 48,
                    "time": 13.338365999999988,
                    "velocity": 0.33858267716535434,
                    "duration": 0.05651849999999925
                },
                {
                    "name": "C2",
                    "midi": 36,
                    "time": 13.564439999999987,
                    "velocity": 0.47244094488188976,
                    "duration": 0.05651849999999925
                },
                {
                    "name": "C3",
                    "midi": 48,
                    "time": 13.790513999999986,
                    "velocity": 0.4330708661417323,
                    "duration": 0.05651849999999925
                },
                {
                    "name": "C2",
                    "midi": 36,
                    "time": 14.016587999999985,
                    "velocity": 0.47244094488188976,
                    "duration": 0.22607400000000055
                },
                {
                    "name": "C#2",
                    "midi": 37,
                    "time": 14.242661999999985,
                    "velocity": 0.47244094488188976,
                    "duration": 0.22607400000000055
                },
                {
                    "name": "C#3",
                    "midi": 49,
                    "time": 14.468735999999986,
                    "velocity": 0.3858267716535433,
                    "duration": 0.05651849999999925
                },
                {
                    "name": "C#2",
                    "midi": 37,
                    "time": 14.694809999999984,
                    "velocity": 0.44881889763779526,
                    "duration": 0.05651849999999925
                },
                {
                    "name": "C2",
                    "midi": 36,
                    "time": 14.920883999999983,
                    "velocity": 0.3858267716535433,
                    "duration": 0.05651849999999925
                },
                {
                    "name": "C3",
                    "midi": 48,
                    "time": 15.146957999999982,
                    "velocity": 0.33858267716535434,
                    "duration": 0.05651849999999925
                },
                {
                    "name": "C2",
                    "midi": 36,
                    "time": 15.37303199999998,
                    "velocity": 0.33858267716535434,
                    "duration": 0.05651849999999925
                },
                {
                    "name": "F2",
                    "midi": 41,
                    "time": 15.59910599999998,
                    "velocity": 0.33858267716535434,
                    "duration": 0.22607400000000055
                },
                {
                    "name": "C3",
                    "midi": 48,
                    "time": 16.27732799999998,
                    "velocity": 0.47244094488188976,
                    "duration": 0.05651849999999925
                },
                {
                    "name": "C4",
                    "midi": 60,
                    "time": 16.50340199999998,
                    "velocity": 0.4330708661417323,
                    "duration": 0.05651849999999925
                },
                {
                    "name": "C3",
                    "midi": 48,
                    "time": 16.72947599999998,
                    "velocity": 0.47244094488188976,
                    "duration": 0.05651849999999925
                },
                {
                    "name": "C4",
                    "midi": 60,
                    "time": 16.95554999999998,
                    "velocity": 0.41732283464566927,
                    "duration": 0.05651849999999925
                },
                {
                    "name": "C3",
                    "midi": 48,
                    "time": 17.18162399999998,
                    "velocity": 0.47244094488188976,
                    "duration": 0.05651849999999925
                },
                {
                    "name": "C4",
                    "midi": 60,
                    "time": 17.407697999999982,
                    "velocity": 0.4094488188976378,
                    "duration": 0.05651849999999925
                },
                {
                    "name": "B2",
                    "midi": 47,
                    "time": 17.633771999999983,
                    "velocity": 0.3858267716535433,
                    "duration": 0.05651849999999925
                },
                {
                    "name": "B3",
                    "midi": 59,
                    "time": 17.859845999999983,
                    "velocity": 0.33858267716535434,
                    "duration": 0.05651849999999925
                },
                {
                    "name": "B2",
                    "midi": 47,
                    "time": 18.085919999999984,
                    "velocity": 0.33858267716535434,
                    "duration": 0.05651849999999925
                },
                {
                    "name": "C4",
                    "midi": 60,
                    "time": 18.311993999999984,
                    "velocity": 0.33858267716535434,
                    "duration": 0.05651849999999925
                },
                {
                    "name": "C3",
                    "midi": 48,
                    "time": 18.538067999999985,
                    "velocity": 0.3228346456692913,
                    "duration": 0.05651849999999925
                },
                {
                    "name": "C4",
                    "midi": 60,
                    "time": 18.764141999999985,
                    "velocity": 0.33858267716535434,
                    "duration": 0.05651849999999925
                },
                {
                    "name": "C3",
                    "midi": 48,
                    "time": 18.990215999999986,
                    "velocity": 0.47244094488188976,
                    "duration": 0.05651849999999925
                },
                {
                    "name": "C4",
                    "midi": 60,
                    "time": 19.216289999999987,
                    "velocity": 0.4330708661417323,
                    "duration": 0.05651849999999925
                },
                {
                    "name": "C3",
                    "midi": 48,
                    "time": 19.442363999999987,
                    "velocity": 0.47244094488188976,
                    "duration": 0.22607400000000055
                },
                {
                    "name": "C#3",
                    "midi": 49,
                    "time": 19.668437999999988,
                    "velocity": 0.47244094488188976,
                    "duration": 0.22607400000000055
                },
                {
                    "name": "C#4",
                    "midi": 61,
                    "time": 19.894511999999988,
                    "velocity": 0.3858267716535433,
                    "duration": 0.05651849999999925
                },
                {
                    "name": "C#3",
                    "midi": 49,
                    "time": 20.12058599999999,
                    "velocity": 0.44881889763779526,
                    "duration": 0.05651849999999925
                },
                {
                    "name": "C#3",
                    "midi": 49,
                    "time": 20.34665999999999,
                    "velocity": 0.3858267716535433,
                    "duration": 0.05651849999999925
                },
                {
                    "name": "C#4",
                    "midi": 61,
                    "time": 20.57273399999999,
                    "velocity": 0.33858267716535434,
                    "duration": 0.05651849999999925
                },
                {
                    "name": "C#3",
                    "midi": 49,
                    "time": 20.79880799999999,
                    "velocity": 0.33858267716535434,
                    "duration": 0.05651849999999925
                },
                {
                    "name": "C#4",
                    "midi": 61,
                    "time": 21.02488199999999,
                    "velocity": 0.33858267716535434,
                    "duration": 0.1130369999999985
                },
                {
                    "name": "C#3",
                    "midi": 49,
                    "time": 21.250955999999988,
                    "velocity": 0.33858267716535434,
                    "duration": 0.1130369999999985
                },
                {
                    "name": "C#4",
                    "midi": 61,
                    "time": 21.477029999999985,
                    "velocity": 0.33858267716535434,
                    "duration": 0.1130369999999985
                },
                {
                    "name": "C#3",
                    "midi": 49,
                    "time": 21.703103999999982,
                    "velocity": 0.33858267716535434,
                    "duration": 0.1130369999999985
                },
                {
                    "name": "C#4",
                    "midi": 61,
                    "time": 21.92917799999998,
                    "velocity": 0.33858267716535434,
                    "duration": 0.1130369999999985
                },
                {
                    "name": "C#3",
                    "midi": 49,
                    "time": 22.155251999999976,
                    "velocity": 0.3464566929133858,
                    "duration": 0.1130369999999985
                },
                {
                    "name": "C#4",
                    "midi": 61,
                    "time": 22.381325999999973,
                    "velocity": 0.3543307086614173,
                    "duration": 0.1130369999999985
                },
                {
                    "name": "C#3",
                    "midi": 49,
                    "time": 22.60739999999997,
                    "velocity": 0.3937007874015748,
                    "duration": 0.1130369999999985
                },
                {
                    "name": "C#4",
                    "midi": 61,
                    "time": 22.833473999999967,
                    "velocity": 0.4015748031496063,
                    "duration": 0.1130369999999985
                },
                {
                    "name": "C3",
                    "midi": 48,
                    "time": 23.059547999999964,
                    "velocity": 0.4015748031496063,
                    "duration": 0.1130369999999985
                },
                {
                    "name": "C4",
                    "midi": 60,
                    "time": 23.28562199999996,
                    "velocity": 0.41732283464566927,
                    "duration": 0.1130369999999985
                },
                {
                    "name": "C3",
                    "midi": 48,
                    "time": 23.511695999999958,
                    "velocity": 0.44881889763779526,
                    "duration": 0.1130369999999985
                },
                {
                    "name": "F3",
                    "midi": 53,
                    "time": 23.737769999999955,
                    "velocity": 0.47244094488188976,
                    "duration": 0.1130369999999985
                },
                {
                    "name": "C2",
                    "midi": 36,
                    "time": 24.415991999999953,
                    "velocity": 0.47244094488188976,
                    "duration": 0.05651849999999925
                },
                {
                    "name": "C3",
                    "midi": 48,
                    "time": 24.642065999999954,
                    "velocity": 0.4330708661417323,
                    "duration": 0.05651849999999925
                },
                {
                    "name": "C2",
                    "midi": 36,
                    "time": 24.868139999999954,
                    "velocity": 0.47244094488188976,
                    "duration": 0.05651849999999925
                },
                {
                    "name": "C3",
                    "midi": 48,
                    "time": 25.094213999999955,
                    "velocity": 0.41732283464566927,
                    "duration": 0.05651849999999925
                },
                {
                    "name": "C2",
                    "midi": 36,
                    "time": 25.320287999999955,
                    "velocity": 0.47244094488188976,
                    "duration": 0.05651849999999925
                },
                {
                    "name": "C3",
                    "midi": 48,
                    "time": 25.546361999999956,
                    "velocity": 0.4094488188976378,
                    "duration": 0.05651849999999925
                },
                {
                    "name": "C2",
                    "midi": 36,
                    "time": 25.772435999999956,
                    "velocity": 0.3858267716535433,
                    "duration": 0.05651849999999925
                },
                {
                    "name": "C3",
                    "midi": 48,
                    "time": 25.998509999999957,
                    "velocity": 0.33858267716535434,
                    "duration": 0.05651849999999925
                },
                {
                    "name": "C2",
                    "midi": 36,
                    "time": 26.224583999999957,
                    "velocity": 0.33858267716535434,
                    "duration": 0.05651849999999925
                },
                {
                    "name": "C3",
                    "midi": 48,
                    "time": 26.450657999999958,
                    "velocity": 0.33858267716535434,
                    "duration": 0.05651849999999925
                },
                {
                    "name": "C2",
                    "midi": 36,
                    "time": 26.67673199999996,
                    "velocity": 0.3228346456692913,
                    "duration": 0.05651849999999925
                },
                {
                    "name": "C3",
                    "midi": 48,
                    "time": 26.90280599999996,
                    "velocity": 0.33858267716535434,
                    "duration": 0.05651849999999925
                },
                {
                    "name": "C2",
                    "midi": 36,
                    "time": 27.12887999999996,
                    "velocity": 0.47244094488188976,
                    "duration": 0.05651849999999925
                },
                {
                    "name": "C3",
                    "midi": 48,
                    "time": 27.35495399999996,
                    "velocity": 0.4330708661417323,
                    "duration": 0.05651849999999925
                },
                {
                    "name": "C2",
                    "midi": 36,
                    "time": 27.58102799999996,
                    "velocity": 0.47244094488188976,
                    "duration": 0.22607400000000055
                },
                {
                    "name": "C#2",
                    "midi": 37,
                    "time": 27.80710199999996,
                    "velocity": 0.47244094488188976,
                    "duration": 0.22607400000000055
                },
                {
                    "name": "C#3",
                    "midi": 49,
                    "time": 28.033175999999962,
                    "velocity": 0.3858267716535433,
                    "duration": 0.05651849999999925
                },
                {
                    "name": "C#2",
                    "midi": 37,
                    "time": 28.259249999999962,
                    "velocity": 0.44881889763779526,
                    "duration": 0.05651849999999925
                },
                {
                    "name": "C2",
                    "midi": 36,
                    "time": 28.485323999999963,
                    "velocity": 0.3858267716535433,
                    "duration": 0.05651849999999925
                },
                {
                    "name": "C3",
                    "midi": 48,
                    "time": 28.711397999999964,
                    "velocity": 0.33858267716535434,
                    "duration": 0.05651849999999925
                },
                {
                    "name": "C2",
                    "midi": 36,
                    "time": 28.937471999999964,
                    "velocity": 0.33858267716535434,
                    "duration": 0.05651849999999925
                },
                {
                    "name": "F2",
                    "midi": 41,
                    "time": 29.163545999999965,
                    "velocity": 0.33858267716535434,
                    "duration": 0.22607400000000055
                },
                {
                    "name": "C3",
                    "midi": 48,
                    "time": 29.841767999999966,
                    "velocity": 0.47244094488188976,
                    "duration": 0.05651849999999925
                },
                {
                    "name": "C4",
                    "midi": 60,
                    "time": 30.067841999999967,
                    "velocity": 0.4330708661417323,
                    "duration": 0.05651849999999925
                },
                {
                    "name": "C3",
                    "midi": 48,
                    "time": 30.293915999999967,
                    "velocity": 0.47244094488188976,
                    "duration": 0.05651849999999925
                },
                {
                    "name": "C4",
                    "midi": 60,
                    "time": 30.519989999999968,
                    "velocity": 0.41732283464566927,
                    "duration": 0.05651849999999925
                },
                {
                    "name": "C3",
                    "midi": 48,
                    "time": 30.74606399999997,
                    "velocity": 0.47244094488188976,
                    "duration": 0.05651849999999925
                },
                {
                    "name": "C4",
                    "midi": 60,
                    "time": 30.97213799999997,
                    "velocity": 0.4094488188976378,
                    "duration": 0.05651849999999925
                },
                {
                    "name": "B2",
                    "midi": 47,
                    "time": 31.19821199999997,
                    "velocity": 0.3858267716535433,
                    "duration": 0.05651849999999925
                },
                {
                    "name": "B3",
                    "midi": 59,
                    "time": 31.42428599999997,
                    "velocity": 0.33858267716535434,
                    "duration": 0.05651849999999925
                },
                {
                    "name": "B2",
                    "midi": 47,
                    "time": 31.65035999999997,
                    "velocity": 0.33858267716535434,
                    "duration": 0.05651849999999925
                },
                {
                    "name": "C4",
                    "midi": 60,
                    "time": 31.87643399999997,
                    "velocity": 0.33858267716535434,
                    "duration": 0.05651849999999925
                },
                {
                    "name": "C3",
                    "midi": 48,
                    "time": 32.10250799999997,
                    "velocity": 0.3228346456692913,
                    "duration": 0.0565185000000028
                },
                {
                    "name": "C4",
                    "midi": 60,
                    "time": 32.328581999999976,
                    "velocity": 0.33858267716535434,
                    "duration": 0.0565185000000028
                },
                {
                    "name": "C3",
                    "midi": 48,
                    "time": 32.55465599999998,
                    "velocity": 0.47244094488188976,
                    "duration": 0.0565185000000028
                },
                {
                    "name": "C4",
                    "midi": 60,
                    "time": 32.780729999999984,
                    "velocity": 0.4330708661417323,
                    "duration": 0.0565185000000028
                },
                {
                    "name": "C3",
                    "midi": 48,
                    "time": 33.00680399999999,
                    "velocity": 0.47244094488188976,
                    "duration": 0.226073999999997
                },
                {
                    "name": "C#3",
                    "midi": 49,
                    "time": 33.232877999999985,
                    "velocity": 0.47244094488188976,
                    "duration": 0.226073999999997
                },
                {
                    "name": "C#4",
                    "midi": 61,
                    "time": 33.45895199999998,
                    "velocity": 0.3858267716535433,
                    "duration": 0.0565185000000028
                },
                {
                    "name": "C#3",
                    "midi": 49,
                    "time": 33.685025999999986,
                    "velocity": 0.44881889763779526,
                    "duration": 0.0565185000000028
                },
                {
                    "name": "C#3",
                    "midi": 49,
                    "time": 33.91109999999999,
                    "velocity": 0.3858267716535433,
                    "duration": 0.0565185000000028
                },
                {
                    "name": "C#4",
                    "midi": 61,
                    "time": 34.137173999999995,
                    "velocity": 0.33858267716535434,
                    "duration": 0.0565185000000028
                },
                {
                    "name": "C#3",
                    "midi": 49,
                    "time": 34.363248,
                    "velocity": 0.33858267716535434,
                    "duration": 0.0565185000000028
                },
                {
                    "name": "C#4",
                    "midi": 61,
                    "time": 34.589322,
                    "velocity": 0.33858267716535434,
                    "duration": 0.1130369999999985
                },
                {
                    "name": "C#3",
                    "midi": 49,
                    "time": 34.815396,
                    "velocity": 0.33858267716535434,
                    "duration": 0.1130369999999985
                },
                {
                    "name": "C#4",
                    "midi": 61,
                    "time": 35.04147,
                    "velocity": 0.33858267716535434,
                    "duration": 0.1130369999999985
                },
                {
                    "name": "C#3",
                    "midi": 49,
                    "time": 35.267543999999994,
                    "velocity": 0.33858267716535434,
                    "duration": 0.1130369999999985
                },
                {
                    "name": "C#4",
                    "midi": 61,
                    "time": 35.49361799999999,
                    "velocity": 0.33858267716535434,
                    "duration": 0.1130369999999985
                },
                {
                    "name": "C#3",
                    "midi": 49,
                    "time": 35.71969199999999,
                    "velocity": 0.3464566929133858,
                    "duration": 0.1130369999999985
                },
                {
                    "name": "C#4",
                    "midi": 61,
                    "time": 35.945765999999985,
                    "velocity": 0.3543307086614173,
                    "duration": 0.1130369999999985
                },
                {
                    "name": "C#3",
                    "midi": 49,
                    "time": 36.17183999999998,
                    "velocity": 0.3937007874015748,
                    "duration": 0.1130369999999985
                },
                {
                    "name": "C#4",
                    "midi": 61,
                    "time": 36.39791399999998,
                    "velocity": 0.4015748031496063,
                    "duration": 0.1130369999999985
                },
                {
                    "name": "C3",
                    "midi": 48,
                    "time": 36.623987999999976,
                    "velocity": 0.4015748031496063,
                    "duration": 0.1130369999999985
                },
                {
                    "name": "C4",
                    "midi": 60,
                    "time": 36.85006199999997,
                    "velocity": 0.41732283464566927,
                    "duration": 0.1130369999999985
                },
                {
                    "name": "C3",
                    "midi": 48,
                    "time": 37.07613599999997,
                    "velocity": 0.44881889763779526,
                    "duration": 0.1130369999999985
                },
                {
                    "name": "F3",
                    "midi": 53,
                    "time": 37.30220999999997,
                    "velocity": 0.47244094488188976,
                    "duration": 0.1130369999999985
                },
                {
                    "name": "C#4",
                    "midi": 61,
                    "time": 37.528283999999964,
                    "velocity": 0.4015748031496063,
                    "duration": 1.1303699999999992
                },
                {
                    "name": "F3",
                    "midi": 53,
                    "time": 37.528283999999964,
                    "velocity": 0.4015748031496063,
                    "duration": 1.1303699999999992
                },
                {
                    "name": "A#3",
                    "midi": 58,
                    "time": 37.528283999999964,
                    "velocity": 0.4015748031496063,
                    "duration": 1.1303699999999992
                },
                {
                    "name": "E4",
                    "midi": 64,
                    "time": 37.528283999999964,
                    "velocity": 0.48031496062992124,
                    "duration": 1.1303699999999992
                },
                {
                    "name": "C4",
                    "midi": 60,
                    "time": 38.65865399999996,
                    "velocity": 0.4094488188976378,
                    "duration": 0.1130369999999985
                },
                {
                    "name": "F3",
                    "midi": 53,
                    "time": 38.65865399999996,
                    "velocity": 0.4094488188976378,
                    "duration": 0.1130369999999985
                },
                {
                    "name": "F4",
                    "midi": 65,
                    "time": 38.65865399999996,
                    "velocity": 0.4881889763779528,
                    "duration": 0.1130369999999985
                },
                {
                    "name": "G#3",
                    "midi": 56,
                    "time": 38.65865399999996,
                    "velocity": 0.4094488188976378,
                    "duration": 0.1130369999999985
                },
                {
                    "name": "F3",
                    "midi": 53,
                    "time": 38.88472799999996,
                    "velocity": 0.4015748031496063,
                    "duration": 1.1303699999999992
                },
                {
                    "name": "E4",
                    "midi": 64,
                    "time": 38.88472799999996,
                    "velocity": 0.48031496062992124,
                    "duration": 1.1303699999999992
                },
                {
                    "name": "C#4",
                    "midi": 61,
                    "time": 38.88472799999996,
                    "velocity": 0.4015748031496063,
                    "duration": 1.1303699999999992
                },
                {
                    "name": "A#3",
                    "midi": 58,
                    "time": 38.88472799999996,
                    "velocity": 0.4015748031496063,
                    "duration": 1.1303699999999992
                },
                {
                    "name": "F3",
                    "midi": 53,
                    "time": 40.01509799999996,
                    "velocity": 0.4094488188976378,
                    "duration": 0.1130369999999985
                },
                {
                    "name": "C4",
                    "midi": 60,
                    "time": 40.01509799999996,
                    "velocity": 0.4094488188976378,
                    "duration": 0.1130369999999985
                },
                {
                    "name": "F4",
                    "midi": 65,
                    "time": 40.01509799999996,
                    "velocity": 0.4881889763779528,
                    "duration": 0.1130369999999985
                },
                {
                    "name": "G#3",
                    "midi": 56,
                    "time": 40.01509799999996,
                    "velocity": 0.4094488188976378,
                    "duration": 0.1130369999999985
                },
                {
                    "name": "C#4",
                    "midi": 61,
                    "time": 40.241171999999956,
                    "velocity": 0.4015748031496063,
                    "duration": 1.1303699999999992
                },
                {
                    "name": "A#3",
                    "midi": 58,
                    "time": 40.241171999999956,
                    "velocity": 0.4015748031496063,
                    "duration": 1.1303699999999992
                },
                {
                    "name": "E4",
                    "midi": 64,
                    "time": 40.241171999999956,
                    "velocity": 0.48031496062992124,
                    "duration": 1.1303699999999992
                },
                {
                    "name": "F3",
                    "midi": 53,
                    "time": 40.241171999999956,
                    "velocity": 0.4015748031496063,
                    "duration": 1.1303699999999992
                },
                {
                    "name": "G#3",
                    "midi": 56,
                    "time": 41.371541999999955,
                    "velocity": 0.4094488188976378,
                    "duration": 0.1130369999999985
                },
                {
                    "name": "F3",
                    "midi": 53,
                    "time": 41.371541999999955,
                    "velocity": 0.4094488188976378,
                    "duration": 0.1130369999999985
                },
                {
                    "name": "C4",
                    "midi": 60,
                    "time": 41.371541999999955,
                    "velocity": 0.4094488188976378,
                    "duration": 0.1130369999999985
                },
                {
                    "name": "F4",
                    "midi": 65,
                    "time": 41.371541999999955,
                    "velocity": 0.4881889763779528,
                    "duration": 0.1130369999999985
                },
                {
                    "name": "F3",
                    "midi": 53,
                    "time": 41.59761599999995,
                    "velocity": 0.4015748031496063,
                    "duration": 1.8085919999999973
                },
                {
                    "name": "A#3",
                    "midi": 58,
                    "time": 41.59761599999995,
                    "velocity": 0.4015748031496063,
                    "duration": 1.8085919999999973
                },
                {
                    "name": "C#4",
                    "midi": 61,
                    "time": 41.59761599999995,
                    "velocity": 0.4015748031496063,
                    "duration": 1.8085919999999973
                },
                {
                    "name": "E4",
                    "midi": 64,
                    "time": 41.59761599999995,
                    "velocity": 0.48031496062992124,
                    "duration": 1.8085919999999973
                },
                {
                    "name": "F3",
                    "midi": 53,
                    "time": 43.40620799999995,
                    "velocity": 0.2755905511811024,
                    "duration": 0.0565185000000028
                },
                {
                    "name": "G#3",
                    "midi": 56,
                    "time": 43.632281999999954,
                    "velocity": 0.1968503937007874,
                    "duration": 0.0565185000000028
                },
                {
                    "name": "F4",
                    "midi": 65,
                    "time": 43.632281999999954,
                    "velocity": 0.23622047244094488,
                    "duration": 0.0565185000000028
                },
                {
                    "name": "C4",
                    "midi": 60,
                    "time": 43.632281999999954,
                    "velocity": 0.1968503937007874,
                    "duration": 0.0565185000000028
                },
                {
                    "name": "F3",
                    "midi": 53,
                    "time": 43.85835599999996,
                    "velocity": 0.23622047244094488,
                    "duration": 0.0565185000000028
                },
                {
                    "name": "G#3",
                    "midi": 56,
                    "time": 44.08442999999996,
                    "velocity": 0.2283464566929134,
                    "duration": 0.0565185000000028
                },
                {
                    "name": "C4",
                    "midi": 60,
                    "time": 44.08442999999996,
                    "velocity": 0.2283464566929134,
                    "duration": 0.0565185000000028
                },
                {
                    "name": "F4",
                    "midi": 65,
                    "time": 44.08442999999996,
                    "velocity": 0.2755905511811024,
                    "duration": 0.0565185000000028
                },
                {
                    "name": "F3",
                    "midi": 53,
                    "time": 44.310503999999966,
                    "velocity": 0.2440944881889764,
                    "duration": 0.0565185000000028
                },
                {
                    "name": "G#3",
                    "midi": 56,
                    "time": 44.53657799999997,
                    "velocity": 0.2047244094488189,
                    "duration": 0.0565185000000028
                },
                {
                    "name": "F4",
                    "midi": 65,
                    "time": 44.53657799999997,
                    "velocity": 0.2440944881889764,
                    "duration": 0.0565185000000028
                },
                {
                    "name": "C4",
                    "midi": 60,
                    "time": 44.53657799999997,
                    "velocity": 0.2047244094488189,
                    "duration": 0.0565185000000028
                },
                {
                    "name": "F3",
                    "midi": 53,
                    "time": 44.762651999999974,
                    "velocity": 0.2755905511811024,
                    "duration": 0.0565185000000028
                },
                {
                    "name": "D4",
                    "midi": 62,
                    "time": 44.98872599999998,
                    "velocity": 0.2440944881889764,
                    "duration": 0.0565185000000028
                },
                {
                    "name": "G#3",
                    "midi": 56,
                    "time": 44.98872599999998,
                    "velocity": 0.2047244094488189,
                    "duration": 0.0565185000000028
                },
                {
                    "name": "B3",
                    "midi": 59,
                    "time": 44.98872599999998,
                    "velocity": 0.2047244094488189,
                    "duration": 0.0565185000000028
                },
                {
                    "name": "F3",
                    "midi": 53,
                    "time": 45.21479999999998,
                    "velocity": 0.2440944881889764,
                    "duration": 0.0565185000000028
                },
                {
                    "name": "C3",
                    "midi": 48,
                    "time": 45.44087399999999,
                    "velocity": 0.2755905511811024,
                    "duration": 0.0565185000000028
                },
                {
                    "name": "E3",
                    "midi": 52,
                    "time": 45.66694799999999,
                    "velocity": 0.2125984251968504,
                    "duration": 0.0565185000000028
                },
                {
                    "name": "C4",
                    "midi": 60,
                    "time": 45.66694799999999,
                    "velocity": 0.25196850393700787,
                    "duration": 0.0565185000000028
                },
                {
                    "name": "G3",
                    "midi": 55,
                    "time": 45.66694799999999,
                    "velocity": 0.2125984251968504,
                    "duration": 0.0565185000000028
                },
                {
                    "name": "C3",
                    "midi": 48,
                    "time": 45.893021999999995,
                    "velocity": 0.25196850393700787,
                    "duration": 0.0565185000000028
                },
                {
                    "name": "E3",
                    "midi": 52,
                    "time": 46.119096,
                    "velocity": 0.2283464566929134,
                    "duration": 0.0565185000000028
                },
                {
                    "name": "C4",
                    "midi": 60,
                    "time": 46.119096,
                    "velocity": 0.2755905511811024,
                    "duration": 0.0565185000000028
                },
                {
                    "name": "G3",
                    "midi": 55,
                    "time": 46.119096,
                    "velocity": 0.2283464566929134,
                    "duration": 0.0565185000000028
                },
                {
                    "name": "C3",
                    "midi": 48,
                    "time": 46.34517,
                    "velocity": 0.2440944881889764,
                    "duration": 0.0565185000000028
                },
                {
                    "name": "E3",
                    "midi": 52,
                    "time": 46.57124400000001,
                    "velocity": 0.2047244094488189,
                    "duration": 0.0565185000000028
                },
                {
                    "name": "G3",
                    "midi": 55,
                    "time": 46.57124400000001,
                    "velocity": 0.2047244094488189,
                    "duration": 0.0565185000000028
                },
                {
                    "name": "C4",
                    "midi": 60,
                    "time": 46.57124400000001,
                    "velocity": 0.2440944881889764,
                    "duration": 0.0565185000000028
                },
                {
                    "name": "C#3",
                    "midi": 49,
                    "time": 46.79731800000001,
                    "velocity": 0.2755905511811024,
                    "duration": 0.0565185000000028
                },
                {
                    "name": "F3",
                    "midi": 53,
                    "time": 47.023392000000015,
                    "velocity": 0.2047244094488189,
                    "duration": 0.0565185000000028
                },
                {
                    "name": "C#4",
                    "midi": 61,
                    "time": 47.023392000000015,
                    "velocity": 0.2440944881889764,
                    "duration": 0.0565185000000028
                },
                {
                    "name": "C#3",
                    "midi": 49,
                    "time": 47.24946600000002,
                    "velocity": 0.2440944881889764,
                    "duration": 0.0565185000000028
                },
                {
                    "name": "A#2",
                    "midi": 46,
                    "time": 47.475540000000024,
                    "velocity": 0.2755905511811024,
                    "duration": 0.226073999999997
                },
                {
                    "name": "A#3",
                    "midi": 58,
                    "time": 47.70161400000002,
                    "velocity": 0.25984251968503935,
                    "duration": 0.226073999999997
                },
                {
                    "name": "G3",
                    "midi": 55,
                    "time": 47.70161400000002,
                    "velocity": 0.2204724409448819,
                    "duration": 0.226073999999997
                },
                {
                    "name": "C3",
                    "midi": 48,
                    "time": 47.92768800000002,
                    "velocity": 0.2204724409448819,
                    "duration": 0.1130369999999985
                },
                {
                    "name": "G3",
                    "midi": 55,
                    "time": 47.92768800000002,
                    "velocity": 0.2204724409448819,
                    "duration": 0.1130369999999985
                },
                {
                    "name": "A#3",
                    "midi": 58,
                    "time": 47.92768800000002,
                    "velocity": 0.25984251968503935,
                    "duration": 0.1130369999999985
                },
                {
                    "name": "F3",
                    "midi": 53,
                    "time": 48.153762000000015,
                    "velocity": 0.2677165354330709,
                    "duration": 0.4521480000000011
                },
                {
                    "name": "G#3",
                    "midi": 56,
                    "time": 48.153762000000015,
                    "velocity": 0.31496062992125984,
                    "duration": 0.4521480000000011
                },
                {
                    "name": "F3",
                    "midi": 53,
                    "time": 48.83198400000001,
                    "velocity": 0.2755905511811024,
                    "duration": 0.0565185000000028
                },
                {
                    "name": "C4",
                    "midi": 60,
                    "time": 49.05805800000002,
                    "velocity": 0.1968503937007874,
                    "duration": 0.0565185000000028
                },
                {
                    "name": "F4",
                    "midi": 65,
                    "time": 49.05805800000002,
                    "velocity": 0.23622047244094488,
                    "duration": 0.0565185000000028
                },
                {
                    "name": "G#3",
                    "midi": 56,
                    "time": 49.05805800000002,
                    "velocity": 0.1968503937007874,
                    "duration": 0.0565185000000028
                },
                {
                    "name": "F3",
                    "midi": 53,
                    "time": 49.28413200000002,
                    "velocity": 0.23622047244094488,
                    "duration": 0.0565185000000028
                },
                {
                    "name": "C4",
                    "midi": 60,
                    "time": 49.510206000000025,
                    "velocity": 0.2283464566929134,
                    "duration": 0.0565185000000028
                },
                {
                    "name": "F4",
                    "midi": 65,
                    "time": 49.510206000000025,
                    "velocity": 0.2755905511811024,
                    "duration": 0.0565185000000028
                },
                {
                    "name": "G#3",
                    "midi": 56,
                    "time": 49.510206000000025,
                    "velocity": 0.2283464566929134,
                    "duration": 0.0565185000000028
                },
                {
                    "name": "F3",
                    "midi": 53,
                    "time": 49.73628000000003,
                    "velocity": 0.2440944881889764,
                    "duration": 0.0565185000000028
                },
                {
                    "name": "C4",
                    "midi": 60,
                    "time": 49.96235400000003,
                    "velocity": 0.2047244094488189,
                    "duration": 0.0565185000000028
                },
                {
                    "name": "F4",
                    "midi": 65,
                    "time": 49.96235400000003,
                    "velocity": 0.2440944881889764,
                    "duration": 0.0565185000000028
                },
                {
                    "name": "G#3",
                    "midi": 56,
                    "time": 49.96235400000003,
                    "velocity": 0.2047244094488189,
                    "duration": 0.0565185000000028
                },
                {
                    "name": "F3",
                    "midi": 53,
                    "time": 50.18842800000004,
                    "velocity": 0.2755905511811024,
                    "duration": 0.0565185000000028
                },
                {
                    "name": "G#3",
                    "midi": 56,
                    "time": 50.41450200000004,
                    "velocity": 0.2047244094488189,
                    "duration": 0.0565185000000028
                },
                {
                    "name": "B3",
                    "midi": 59,
                    "time": 50.41450200000004,
                    "velocity": 0.2047244094488189,
                    "duration": 0.0565185000000028
                },
                {
                    "name": "D4",
                    "midi": 62,
                    "time": 50.41450200000004,
                    "velocity": 0.2440944881889764,
                    "duration": 0.0565185000000028
                },
                {
                    "name": "F3",
                    "midi": 53,
                    "time": 50.640576000000046,
                    "velocity": 0.2440944881889764,
                    "duration": 0.0565185000000028
                },
                {
                    "name": "C3",
                    "midi": 48,
                    "time": 50.86665000000005,
                    "velocity": 0.2755905511811024,
                    "duration": 0.0565185000000028
                },
                {
                    "name": "C4",
                    "midi": 60,
                    "time": 51.092724000000054,
                    "velocity": 0.25196850393700787,
                    "duration": 0.0565185000000028
                },
                {
                    "name": "E3",
                    "midi": 52,
                    "time": 51.092724000000054,
                    "velocity": 0.2125984251968504,
                    "duration": 0.0565185000000028
                },
                {
                    "name": "G3",
                    "midi": 55,
                    "time": 51.092724000000054,
                    "velocity": 0.2125984251968504,
                    "duration": 0.0565185000000028
                },
                {
                    "name": "C3",
                    "midi": 48,
                    "time": 51.31879800000006,
                    "velocity": 0.25196850393700787,
                    "duration": 0.0565185000000028
                },
                {
                    "name": "G3",
                    "midi": 55,
                    "time": 51.54487200000006,
                    "velocity": 0.2283464566929134,
                    "duration": 0.0565185000000028
                },
                {
                    "name": "C4",
                    "midi": 60,
                    "time": 51.54487200000006,
                    "velocity": 0.2755905511811024,
                    "duration": 0.0565185000000028
                },
                {
                    "name": "E3",
                    "midi": 52,
                    "time": 51.54487200000006,
                    "velocity": 0.2283464566929134,
                    "duration": 0.0565185000000028
                },
                {
                    "name": "C3",
                    "midi": 48,
                    "time": 51.770946000000066,
                    "velocity": 0.2440944881889764,
                    "duration": 0.0565185000000028
                },
                {
                    "name": "C4",
                    "midi": 60,
                    "time": 51.99702000000007,
                    "velocity": 0.2440944881889764,
                    "duration": 0.0565185000000028
                },
                {
                    "name": "E3",
                    "midi": 52,
                    "time": 51.99702000000007,
                    "velocity": 0.2047244094488189,
                    "duration": 0.0565185000000028
                },
                {
                    "name": "G3",
                    "midi": 55,
                    "time": 51.99702000000007,
                    "velocity": 0.2047244094488189,
                    "duration": 0.0565185000000028
                },
                {
                    "name": "C#3",
                    "midi": 49,
                    "time": 52.223094000000074,
                    "velocity": 0.2755905511811024,
                    "duration": 0.0565185000000028
                },
                {
                    "name": "C#4",
                    "midi": 61,
                    "time": 52.44916800000008,
                    "velocity": 0.2440944881889764,
                    "duration": 0.0565185000000028
                },
                {
                    "name": "F3",
                    "midi": 53,
                    "time": 52.44916800000008,
                    "velocity": 0.2047244094488189,
                    "duration": 0.0565185000000028
                },
                {
                    "name": "C#3",
                    "midi": 49,
                    "time": 52.67524200000008,
                    "velocity": 0.2440944881889764,
                    "duration": 0.0565185000000028
                },
                {
                    "name": "D3",
                    "midi": 50,
                    "time": 52.90131600000009,
                    "velocity": 0.2755905511811024,
                    "duration": 0.0565185000000028
                },
                {
                    "name": "D4",
                    "midi": 62,
                    "time": 53.12739000000009,
                    "velocity": 0.2440944881889764,
                    "duration": 0.0565185000000028
                },
                {
                    "name": "A#3",
                    "midi": 58,
                    "time": 53.12739000000009,
                    "velocity": 0.2440944881889764,
                    "duration": 0.0565185000000028
                },
                {
                    "name": "D3",
                    "midi": 50,
                    "time": 53.353464000000095,
                    "velocity": 0.2440944881889764,
                    "duration": 0.0565185000000028
                },
                {
                    "name": "D#3",
                    "midi": 51,
                    "time": 53.5795380000001,
                    "velocity": 0.30708661417322836,
                    "duration": 0.0565185000000028
                },
                {
                    "name": "D#4",
                    "midi": 63,
                    "time": 53.8056120000001,
                    "velocity": 0.25984251968503935,
                    "duration": 0.0565185000000028
                },
                {
                    "name": "A#3",
                    "midi": 58,
                    "time": 53.8056120000001,
                    "velocity": 0.25984251968503935,
                    "duration": 0.0565185000000028
                },
                {
                    "name": "D#3",
                    "midi": 51,
                    "time": 54.03168600000011,
                    "velocity": 0.25984251968503935,
                    "duration": 0.0565185000000028
                },
                {
                    "name": "C3",
                    "midi": 48,
                    "time": 54.25776000000011,
                    "velocity": 0.3228346456692913,
                    "duration": 0.0565185000000028
                },
                {
                    "name": "C4",
                    "midi": 60,
                    "time": 54.483834000000115,
                    "velocity": 0.25196850393700787,
                    "duration": 0.0565185000000028
                },
                {
                    "name": "C3",
                    "midi": 48,
                    "time": 54.70990800000012,
                    "velocity": 0.2440944881889764,
                    "duration": 0.0565185000000028
                },
                {
                    "name": "B2",
                    "midi": 47,
                    "time": 54.93598200000012,
                    "velocity": 0.31496062992125984,
                    "duration": 0.0565185000000028
                },
                {
                    "name": "B3",
                    "midi": 59,
                    "time": 55.16205600000013,
                    "velocity": 0.28346456692913385,
                    "duration": 0.0565185000000028
                },
                {
                    "name": "B2",
                    "midi": 47,
                    "time": 55.38813000000013,
                    "velocity": 0.28346456692913385,
                    "duration": 0.0565185000000028
                },
                {
                    "name": "A#2",
                    "midi": 46,
                    "time": 55.614204000000136,
                    "velocity": 0.4015748031496063,
                    "duration": 0.0565185000000028
                },
                {
                    "name": "A#3",
                    "midi": 58,
                    "time": 55.84027800000014,
                    "velocity": 0.28346456692913385,
                    "duration": 0.0565185000000028
                },
                {
                    "name": "F3",
                    "midi": 53,
                    "time": 55.84027800000014,
                    "velocity": 0.28346456692913385,
                    "duration": 0.0565185000000028
                },
                {
                    "name": "D4",
                    "midi": 62,
                    "time": 55.84027800000014,
                    "velocity": 0.33858267716535434,
                    "duration": 0.0565185000000028
                },
                {
                    "name": "A#2",
                    "midi": 46,
                    "time": 56.066352000000144,
                    "velocity": 0.44881889763779526,
                    "duration": 0.0565185000000028
                },
                {
                    "name": "A#3",
                    "midi": 58,
                    "time": 56.29242600000015,
                    "velocity": 0.30708661417322836,
                    "duration": 0.0565185000000028
                },
                {
                    "name": "F3",
                    "midi": 53,
                    "time": 56.29242600000015,
                    "velocity": 0.30708661417322836,
                    "duration": 0.0565185000000028
                },
                {
                    "name": "D4",
                    "midi": 62,
                    "time": 56.29242600000015,
                    "velocity": 0.36220472440944884,
                    "duration": 0.0565185000000028
                },
                {
                    "name": "A#2",
                    "midi": 46,
                    "time": 56.51850000000015,
                    "velocity": 0.4330708661417323,
                    "duration": 0.0565185000000028
                },
                {
                    "name": "F3",
                    "midi": 53,
                    "time": 56.744574000000156,
                    "velocity": 0.31496062992125984,
                    "duration": 0.0565185000000028
                },
                {
                    "name": "D4",
                    "midi": 62,
                    "time": 56.744574000000156,
                    "velocity": 0.3779527559055118,
                    "duration": 0.0565185000000028
                },
                {
                    "name": "A#3",
                    "midi": 58,
                    "time": 56.744574000000156,
                    "velocity": 0.31496062992125984,
                    "duration": 0.0565185000000028
                },
                {
                    "name": "A#2",
                    "midi": 46,
                    "time": 56.97064800000016,
                    "velocity": 0.48031496062992124,
                    "duration": 0.0565185000000028
                },
                {
                    "name": "A3",
                    "midi": 57,
                    "time": 57.196722000000165,
                    "velocity": 0.30708661417322836,
                    "duration": 0.0565185000000028
                },
                {
                    "name": "D#4",
                    "midi": 63,
                    "time": 57.196722000000165,
                    "velocity": 0.3700787401574803,
                    "duration": 0.0565185000000028
                },
                {
                    "name": "F#3",
                    "midi": 54,
                    "time": 57.196722000000165,
                    "velocity": 0.30708661417322836,
                    "duration": 0.0565185000000028
                },
                {
                    "name": "A#2",
                    "midi": 46,
                    "time": 57.42279600000017,
                    "velocity": 0.47244094488188976,
                    "duration": 0.0565185000000028
                },
                {
                    "name": "D#4",
                    "midi": 63,
                    "time": 57.64887000000017,
                    "velocity": 0.44881889763779526,
                    "duration": 0.0565185000000028
                },
                {
                    "name": "F#3",
                    "midi": 54,
                    "time": 57.64887000000017,
                    "velocity": 0.3779527559055118,
                    "duration": 0.0565185000000028
                },
                {
                    "name": "A3",
                    "midi": 57,
                    "time": 57.64887000000017,
                    "velocity": 0.3779527559055118,
                    "duration": 0.0565185000000028
                },
                {
                    "name": "A#2",
                    "midi": 46,
                    "time": 57.87494400000018,
                    "velocity": 0.36220472440944884,
                    "duration": 0.0565185000000028
                },
                {
                    "name": "A3",
                    "midi": 57,
                    "time": 58.10101800000018,
                    "velocity": 0.2992125984251969,
                    "duration": 0.0565185000000028
                },
                {
                    "name": "D#4",
                    "midi": 63,
                    "time": 58.10101800000018,
                    "velocity": 0.3543307086614173,
                    "duration": 0.0565185000000028
                },
                {
                    "name": "F#3",
                    "midi": 54,
                    "time": 58.10101800000018,
                    "velocity": 0.2992125984251969,
                    "duration": 0.0565185000000028
                },
                {
                    "name": "A#2",
                    "midi": 46,
                    "time": 58.327092000000185,
                    "velocity": 0.4015748031496063,
                    "duration": 0.0565185000000028
                },
                {
                    "name": "A#3",
                    "midi": 58,
                    "time": 58.55316600000019,
                    "velocity": 0.28346456692913385,
                    "duration": 0.0565185000000028
                },
                {
                    "name": "D4",
                    "midi": 62,
                    "time": 58.55316600000019,
                    "velocity": 0.33858267716535434,
                    "duration": 0.0565185000000028
                },
                {
                    "name": "F3",
                    "midi": 53,
                    "time": 58.55316600000019,
                    "velocity": 0.28346456692913385,
                    "duration": 0.0565185000000028
                },
                {
                    "name": "A#2",
                    "midi": 46,
                    "time": 58.77924000000019,
                    "velocity": 0.44881889763779526,
                    "duration": 0.0565185000000028
                },
                {
                    "name": "F3",
                    "midi": 53,
                    "time": 59.0053140000002,
                    "velocity": 0.30708661417322836,
                    "duration": 0.0565185000000028
                },
                {
                    "name": "D4",
                    "midi": 62,
                    "time": 59.0053140000002,
                    "velocity": 0.36220472440944884,
                    "duration": 0.0565185000000028
                },
                {
                    "name": "A#3",
                    "midi": 58,
                    "time": 59.0053140000002,
                    "velocity": 0.30708661417322836,
                    "duration": 0.0565185000000028
                },
                {
                    "name": "A#2",
                    "midi": 46,
                    "time": 59.2313880000002,
                    "velocity": 0.4330708661417323,
                    "duration": 0.0565185000000028
                },
                {
                    "name": "D4",
                    "midi": 62,
                    "time": 59.457462000000206,
                    "velocity": 0.3779527559055118,
                    "duration": 0.0565185000000028
                },
                {
                    "name": "F3",
                    "midi": 53,
                    "time": 59.457462000000206,
                    "velocity": 0.31496062992125984,
                    "duration": 0.0565185000000028
                },
                {
                    "name": "A#3",
                    "midi": 58,
                    "time": 59.457462000000206,
                    "velocity": 0.31496062992125984,
                    "duration": 0.0565185000000028
                },
                {
                    "name": "A#2",
                    "midi": 46,
                    "time": 59.68353600000021,
                    "velocity": 0.48031496062992124,
                    "duration": 0.0565185000000028
                },
                {
                    "name": "D#4",
                    "midi": 63,
                    "time": 59.909610000000214,
                    "velocity": 0.3700787401574803,
                    "duration": 0.0565185000000028
                },
                {
                    "name": "F#3",
                    "midi": 54,
                    "time": 59.909610000000214,
                    "velocity": 0.30708661417322836,
                    "duration": 0.0565185000000028
                },
                {
                    "name": "A3",
                    "midi": 57,
                    "time": 59.909610000000214,
                    "velocity": 0.30708661417322836,
                    "duration": 0.0565185000000028
                },
                {
                    "name": "A#2",
                    "midi": 46,
                    "time": 60.13568400000022,
                    "velocity": 0.47244094488188976,
                    "duration": 0.0565185000000028
                },
                {
                    "name": "A3",
                    "midi": 57,
                    "time": 60.36175800000022,
                    "velocity": 0.3779527559055118,
                    "duration": 0.0565185000000028
                },
                {
                    "name": "F#3",
                    "midi": 54,
                    "time": 60.36175800000022,
                    "velocity": 0.3779527559055118,
                    "duration": 0.0565185000000028
                },
                {
                    "name": "D#4",
                    "midi": 63,
                    "time": 60.36175800000022,
                    "velocity": 0.44881889763779526,
                    "duration": 0.0565185000000028
                },
                {
                    "name": "A#2",
                    "midi": 46,
                    "time": 60.587832000000226,
                    "velocity": 0.36220472440944884,
                    "duration": 0.0565185000000028
                },
                {
                    "name": "F#3",
                    "midi": 54,
                    "time": 60.81390600000023,
                    "velocity": 0.2992125984251969,
                    "duration": 0.0565185000000028
                },
                {
                    "name": "D#4",
                    "midi": 63,
                    "time": 60.81390600000023,
                    "velocity": 0.3543307086614173,
                    "duration": 0.0565185000000028
                },
                {
                    "name": "A3",
                    "midi": 57,
                    "time": 60.81390600000023,
                    "velocity": 0.2992125984251969,
                    "duration": 0.0565185000000028
                },
                {
                    "name": "A#2",
                    "midi": 46,
                    "time": 61.039980000000234,
                    "velocity": 0.4015748031496063,
                    "duration": 0.0565185000000028
                },
                {
                    "name": "A#3",
                    "midi": 58,
                    "time": 61.26605400000024,
                    "velocity": 0.28346456692913385,
                    "duration": 0.0565185000000028
                },
                {
                    "name": "D4",
                    "midi": 62,
                    "time": 61.26605400000024,
                    "velocity": 0.33858267716535434,
                    "duration": 0.0565185000000028
                },
                {
                    "name": "F3",
                    "midi": 53,
                    "time": 61.26605400000024,
                    "velocity": 0.28346456692913385,
                    "duration": 0.0565185000000028
                },
                {
                    "name": "G#2",
                    "midi": 44,
                    "time": 61.49212800000024,
                    "velocity": 0.44881889763779526,
                    "duration": 0.0565185000000028
                },
                {
                    "name": "G#3",
                    "midi": 56,
                    "time": 61.71820200000025,
                    "velocity": 0.36220472440944884,
                    "duration": 0.0565185000000028
                },
                {
                    "name": "G2",
                    "midi": 43,
                    "time": 61.94427600000025,
                    "velocity": 0.4330708661417323,
                    "duration": 0.0565185000000028
                },
                {
                    "name": "G3",
                    "midi": 55,
                    "time": 62.170350000000255,
                    "velocity": 0.3779527559055118,
                    "duration": 0.0565185000000028
                },
                {
                    "name": "C3",
                    "midi": 48,
                    "time": 62.39642400000026,
                    "velocity": 0.4015748031496063,
                    "duration": 0.0565185000000028
                },
                {
                    "name": "C4",
                    "midi": 60,
                    "time": 62.62249800000026,
                    "velocity": 0.33858267716535434,
                    "duration": 0.0565185000000028
                },
                {
                    "name": "A#2",
                    "midi": 46,
                    "time": 62.84857200000027,
                    "velocity": 0.44881889763779526,
                    "duration": 0.0565185000000028
                },
                {
                    "name": "A#3",
                    "midi": 58,
                    "time": 63.07464600000027,
                    "velocity": 0.36220472440944884,
                    "duration": 0.0565185000000028
                },
                {
                    "name": "G2",
                    "midi": 43,
                    "time": 63.300720000000275,
                    "velocity": 0.4330708661417323,
                    "duration": 0.0565185000000028
                },
                {
                    "name": "G3",
                    "midi": 55,
                    "time": 63.52679400000028,
                    "velocity": 0.3779527559055118,
                    "duration": 0.0565185000000028
                },
                {
                    "name": "G#2",
                    "midi": 44,
                    "time": 63.752868000000284,
                    "velocity": 0.44881889763779526,
                    "duration": 0.0565185000000028
                },
                {
                    "name": "G#3",
                    "midi": 56,
                    "time": 63.97894200000029,
                    "velocity": 0.3858267716535433,
                    "duration": 0.0565184999999957
                },
                {
                    "name": "A#1",
                    "midi": 34,
                    "time": 64.20501600000028,
                    "velocity": 0.44881889763779526,
                    "duration": 0.0565184999999957
                },
                {
                    "name": "A#2",
                    "midi": 46,
                    "time": 64.43109000000028,
                    "velocity": 0.36220472440944884,
                    "duration": 0.0565184999999957
                },
                {
                    "name": "C2",
                    "midi": 36,
                    "time": 64.65716400000028,
                    "velocity": 0.5039370078740157,
                    "duration": 0.0565184999999957
                },
                {
                    "name": "C3",
                    "midi": 48,
                    "time": 64.88323800000028,
                    "velocity": 0.4566929133858268,
                    "duration": 0.0565184999999957
                },
                {
                    "name": "F1",
                    "midi": 29,
                    "time": 65.10931200000027,
                    "velocity": 0.47244094488188976,
                    "duration": 0.1130370000000056
                },
                {
                    "name": "F2",
                    "midi": 41,
                    "time": 65.10931200000027,
                    "velocity": 0.5118110236220472,
                    "duration": 0.1130370000000056
                },
                {
                    "name": "C#4",
                    "midi": 61,
                    "time": 65.33538600000028,
                    "velocity": 0.4015748031496063,
                    "duration": 1.1303699999999992
                },
                {
                    "name": "A#3",
                    "midi": 58,
                    "time": 65.33538600000028,
                    "velocity": 0.4015748031496063,
                    "duration": 1.1303699999999992
                },
                {
                    "name": "F3",
                    "midi": 53,
                    "time": 65.33538600000028,
                    "velocity": 0.4015748031496063,
                    "duration": 1.1303699999999992
                },
                {
                    "name": "E4",
                    "midi": 64,
                    "time": 65.33538600000028,
                    "velocity": 0.48031496062992124,
                    "duration": 1.1303699999999992
                },
                {
                    "name": "F3",
                    "midi": 53,
                    "time": 66.46575600000028,
                    "velocity": 0.4094488188976378,
                    "duration": 0.1130370000000056
                },
                {
                    "name": "C4",
                    "midi": 60,
                    "time": 66.46575600000028,
                    "velocity": 0.4094488188976378,
                    "duration": 0.1130370000000056
                },
                {
                    "name": "F4",
                    "midi": 65,
                    "time": 66.46575600000028,
                    "velocity": 0.4881889763779528,
                    "duration": 0.1130370000000056
                },
                {
                    "name": "G#3",
                    "midi": 56,
                    "time": 66.46575600000028,
                    "velocity": 0.4094488188976378,
                    "duration": 0.1130370000000056
                },
                {
                    "name": "C#4",
                    "midi": 61,
                    "time": 66.6918300000003,
                    "velocity": 0.4015748031496063,
                    "duration": 1.1303699999999992
                },
                {
                    "name": "E4",
                    "midi": 64,
                    "time": 66.6918300000003,
                    "velocity": 0.48031496062992124,
                    "duration": 1.1303699999999992
                },
                {
                    "name": "A#3",
                    "midi": 58,
                    "time": 66.6918300000003,
                    "velocity": 0.4015748031496063,
                    "duration": 1.1303699999999992
                },
                {
                    "name": "F3",
                    "midi": 53,
                    "time": 66.6918300000003,
                    "velocity": 0.4015748031496063,
                    "duration": 1.1303699999999992
                },
                {
                    "name": "G#3",
                    "midi": 56,
                    "time": 67.8222000000003,
                    "velocity": 0.4094488188976378,
                    "duration": 0.1130370000000056
                },
                {
                    "name": "C4",
                    "midi": 60,
                    "time": 67.8222000000003,
                    "velocity": 0.4094488188976378,
                    "duration": 0.1130370000000056
                },
                {
                    "name": "F3",
                    "midi": 53,
                    "time": 67.8222000000003,
                    "velocity": 0.4094488188976378,
                    "duration": 0.1130370000000056
                },
                {
                    "name": "F4",
                    "midi": 65,
                    "time": 67.8222000000003,
                    "velocity": 0.4881889763779528,
                    "duration": 0.1130370000000056
                },
                {
                    "name": "A#3",
                    "midi": 58,
                    "time": 68.0482740000003,
                    "velocity": 0.4015748031496063,
                    "duration": 1.1303699999999992
                },
                {
                    "name": "C#4",
                    "midi": 61,
                    "time": 68.0482740000003,
                    "velocity": 0.4015748031496063,
                    "duration": 1.1303699999999992
                },
                {
                    "name": "E4",
                    "midi": 64,
                    "time": 68.0482740000003,
                    "velocity": 0.48031496062992124,
                    "duration": 1.1303699999999992
                },
                {
                    "name": "F3",
                    "midi": 53,
                    "time": 68.0482740000003,
                    "velocity": 0.4015748031496063,
                    "duration": 1.1303699999999992
                },
                {
                    "name": "G#3",
                    "midi": 56,
                    "time": 69.1786440000003,
                    "velocity": 0.4094488188976378,
                    "duration": 0.1130370000000056
                },
                {
                    "name": "C4",
                    "midi": 60,
                    "time": 69.1786440000003,
                    "velocity": 0.4094488188976378,
                    "duration": 0.1130370000000056
                },
                {
                    "name": "F4",
                    "midi": 65,
                    "time": 69.1786440000003,
                    "velocity": 0.4881889763779528,
                    "duration": 0.1130370000000056
                },
                {
                    "name": "F3",
                    "midi": 53,
                    "time": 69.1786440000003,
                    "velocity": 0.4094488188976378,
                    "duration": 0.1130370000000056
                },
                {
                    "name": "E4",
                    "midi": 64,
                    "time": 69.40471800000032,
                    "velocity": 0.48031496062992124,
                    "duration": 1.1303699999999992
                },
                {
                    "name": "F3",
                    "midi": 53,
                    "time": 69.40471800000032,
                    "velocity": 0.4015748031496063,
                    "duration": 1.1303699999999992
                },
                {
                    "name": "C#4",
                    "midi": 61,
                    "time": 69.40471800000032,
                    "velocity": 0.4015748031496063,
                    "duration": 1.1303699999999992
                },
                {
                    "name": "A#3",
                    "midi": 58,
                    "time": 69.40471800000032,
                    "velocity": 0.4015748031496063,
                    "duration": 1.1303699999999992
                },
                {
                    "name": "F3",
                    "midi": 53,
                    "time": 70.53508800000031,
                    "velocity": 0.5275590551181102,
                    "duration": 0.226073999999997
                },
                {
                    "name": "G#3",
                    "midi": 56,
                    "time": 70.53508800000031,
                    "velocity": 0.5275590551181102,
                    "duration": 0.226073999999997
                },
                {
                    "name": "C4",
                    "midi": 60,
                    "time": 70.53508800000031,
                    "velocity": 0.6220472440944882,
                    "duration": 0.226073999999997
                },
                {
                    "name": "D#3",
                    "midi": 51,
                    "time": 71.2133100000003,
                    "velocity": 0.5275590551181102,
                    "duration": 0.226073999999997
                },
                {
                    "name": "D#4",
                    "midi": 63,
                    "time": 71.2133100000003,
                    "velocity": 0.6220472440944882,
                    "duration": 0.226073999999997
                },
                {
                    "name": "A#3",
                    "midi": 58,
                    "time": 71.2133100000003,
                    "velocity": 0.5275590551181102,
                    "duration": 0.226073999999997
                },
                {
                    "name": "C#4",
                    "midi": 61,
                    "time": 71.2133100000003,
                    "velocity": 0.5275590551181102,
                    "duration": 0.226073999999997
                },
                {
                    "name": "C4",
                    "midi": 60,
                    "time": 71.8915320000003,
                    "velocity": 0.25196850393700787,
                    "duration": 0.20346659999999872
                },
                {
                    "name": "G#3",
                    "midi": 56,
                    "time": 71.8915320000003,
                    "velocity": 0.2125984251968504,
                    "duration": 0.20346659999999872
                },
                {
                    "name": "D#4",
                    "midi": 63,
                    "time": 71.8915320000003,
                    "velocity": 0.25196850393700787,
                    "duration": 0.20346659999999872
                },
                {
                    "name": "D#4",
                    "midi": 63,
                    "time": 72.1176060000003,
                    "velocity": 0.2283464566929134,
                    "duration": 0.20346659999999872
                },
                {
                    "name": "G#3",
                    "midi": 56,
                    "time": 72.1176060000003,
                    "velocity": 0.1889763779527559,
                    "duration": 0.20346659999999872
                },
                {
                    "name": "C4",
                    "midi": 60,
                    "time": 72.1176060000003,
                    "velocity": 0.2283464566929134,
                    "duration": 0.20346659999999872
                },
                {
                    "name": "D#4",
                    "midi": 63,
                    "time": 72.34368000000029,
                    "velocity": 0.2283464566929134,
                    "duration": 0.9042960000000022
                },
                {
                    "name": "G#3",
                    "midi": 56,
                    "time": 72.34368000000029,
                    "velocity": 0.1889763779527559,
                    "duration": 2.2607399999999984
                },
                {
                    "name": "C4",
                    "midi": 60,
                    "time": 72.34368000000029,
                    "velocity": 0.2283464566929134,
                    "duration": 0.9042960000000022
                },
                {
                    "name": "F4",
                    "midi": 65,
                    "time": 73.24797600000029,
                    "velocity": 0.2440944881889764,
                    "duration": 1.3564439999999962
                },
                {
                    "name": "C#4",
                    "midi": 61,
                    "time": 73.24797600000029,
                    "velocity": 0.2047244094488189,
                    "duration": 1.3564439999999962
                },
                {
                    "name": "G#3",
                    "midi": 56,
                    "time": 74.60442000000029,
                    "velocity": 0.2125984251968504,
                    "duration": 0.20346659999999872
                },
                {
                    "name": "D#4",
                    "midi": 63,
                    "time": 74.60442000000029,
                    "velocity": 0.25196850393700787,
                    "duration": 0.20346659999999872
                },
                {
                    "name": "C4",
                    "midi": 60,
                    "time": 74.60442000000029,
                    "velocity": 0.2125984251968504,
                    "duration": 0.20346659999999872
                },
                {
                    "name": "C4",
                    "midi": 60,
                    "time": 74.83049400000029,
                    "velocity": 0.1889763779527559,
                    "duration": 0.20346659999999872
                },
                {
                    "name": "G#3",
                    "midi": 56,
                    "time": 74.83049400000029,
                    "velocity": 0.1889763779527559,
                    "duration": 0.20346659999999872
                },
                {
                    "name": "D#4",
                    "midi": 63,
                    "time": 74.83049400000029,
                    "velocity": 0.2283464566929134,
                    "duration": 0.20346659999999872
                },
                {
                    "name": "D#4",
                    "midi": 63,
                    "time": 75.05656800000028,
                    "velocity": 0.2283464566929134,
                    "duration": 2.260739999999984
                },
                {
                    "name": "C4",
                    "midi": 60,
                    "time": 75.05656800000028,
                    "velocity": 0.1889763779527559,
                    "duration": 0.9042960000000022
                },
                {
                    "name": "G#3",
                    "midi": 56,
                    "time": 75.05656800000028,
                    "velocity": 0.1889763779527559,
                    "duration": 2.260739999999984
                },
                {
                    "name": "C#4",
                    "midi": 61,
                    "time": 75.96086400000029,
                    "velocity": 0.2440944881889764,
                    "duration": 0.226073999999997
                },
                {
                    "name": "A#3",
                    "midi": 58,
                    "time": 76.18693800000028,
                    "velocity": 0.23622047244094488,
                    "duration": 0.226073999999997
                },
                {
                    "name": "C4",
                    "midi": 60,
                    "time": 76.41301200000028,
                    "velocity": 0.23622047244094488,
                    "duration": 0.226073999999997
                },
                {
                    "name": "C#4",
                    "midi": 61,
                    "time": 76.63908600000028,
                    "velocity": 0.2440944881889764,
                    "duration": 0.226073999999997
                },
                {
                    "name": "C4",
                    "midi": 60,
                    "time": 76.86516000000027,
                    "velocity": 0.2204724409448819,
                    "duration": 0.226073999999997
                },
                {
                    "name": "A#3",
                    "midi": 58,
                    "time": 77.09123400000027,
                    "velocity": 0.2440944881889764,
                    "duration": 0.226073999999997
                },
                {
                    "name": "B3",
                    "midi": 59,
                    "time": 77.31730800000027,
                    "velocity": 0.2125984251968504,
                    "duration": 0.20346659999999872
                },
                {
                    "name": "G#3",
                    "midi": 56,
                    "time": 77.31730800000027,
                    "velocity": 0.2125984251968504,
                    "duration": 0.20346659999999872
                },
                {
                    "name": "D#4",
                    "midi": 63,
                    "time": 77.31730800000027,
                    "velocity": 0.25196850393700787,
                    "duration": 0.20346659999999872
                },
                {
                    "name": "D#4",
                    "midi": 63,
                    "time": 77.54338200000026,
                    "velocity": 0.2283464566929134,
                    "duration": 0.20346659999999872
                },
                {
                    "name": "B3",
                    "midi": 59,
                    "time": 77.54338200000026,
                    "velocity": 0.1889763779527559,
                    "duration": 0.20346659999999872
                },
                {
                    "name": "G#3",
                    "midi": 56,
                    "time": 77.54338200000026,
                    "velocity": 0.1889763779527559,
                    "duration": 0.20346659999999872
                },
                {
                    "name": "B3",
                    "midi": 59,
                    "time": 77.76945600000026,
                    "velocity": 0.1889763779527559,
                    "duration": 0.9042960000000022
                },
                {
                    "name": "G#3",
                    "midi": 56,
                    "time": 77.76945600000026,
                    "velocity": 0.1889763779527559,
                    "duration": 2.2607399999999984
                },
                {
                    "name": "D#4",
                    "midi": 63,
                    "time": 77.76945600000026,
                    "velocity": 0.2283464566929134,
                    "duration": 0.9042960000000022
                },
                {
                    "name": "C#4",
                    "midi": 61,
                    "time": 78.67375200000026,
                    "velocity": 0.2047244094488189,
                    "duration": 1.3564439999999962
                },
                {
                    "name": "E4",
                    "midi": 64,
                    "time": 78.67375200000026,
                    "velocity": 0.2440944881889764,
                    "duration": 1.3564439999999962
                },
                {
                    "name": "B3",
                    "midi": 59,
                    "time": 80.03019600000026,
                    "velocity": 0.2125984251968504,
                    "duration": 0.20346659999999872
                },
                {
                    "name": "D#4",
                    "midi": 63,
                    "time": 80.03019600000026,
                    "velocity": 0.25196850393700787,
                    "duration": 0.20346659999999872
                },
                {
                    "name": "G#3",
                    "midi": 56,
                    "time": 80.03019600000026,
                    "velocity": 0.2125984251968504,
                    "duration": 0.20346659999999872
                },
                {
                    "name": "B3",
                    "midi": 59,
                    "time": 80.25627000000026,
                    "velocity": 0.1889763779527559,
                    "duration": 0.20346659999999872
                },
                {
                    "name": "D#4",
                    "midi": 63,
                    "time": 80.25627000000026,
                    "velocity": 0.2283464566929134,
                    "duration": 0.20346659999999872
                },
                {
                    "name": "G#3",
                    "midi": 56,
                    "time": 80.25627000000026,
                    "velocity": 0.1889763779527559,
                    "duration": 0.20346659999999872
                },
                {
                    "name": "B3",
                    "midi": 59,
                    "time": 80.48234400000025,
                    "velocity": 0.1889763779527559,
                    "duration": 0.9042960000000022
                },
                {
                    "name": "G#3",
                    "midi": 56,
                    "time": 80.48234400000025,
                    "velocity": 0.1889763779527559,
                    "duration": 2.2607399999999984
                },
                {
                    "name": "D#4",
                    "midi": 63,
                    "time": 80.48234400000025,
                    "velocity": 0.2283464566929134,
                    "duration": 2.2607399999999984
                },
                {
                    "name": "C#4",
                    "midi": 61,
                    "time": 81.38664000000026,
                    "velocity": 0.2440944881889764,
                    "duration": 0.226073999999997
                },
                {
                    "name": "A#3",
                    "midi": 58,
                    "time": 81.61271400000025,
                    "velocity": 0.23622047244094488,
                    "duration": 0.226073999999997
                },
                {
                    "name": "B3",
                    "midi": 59,
                    "time": 81.83878800000025,
                    "velocity": 0.23622047244094488,
                    "duration": 0.226073999999997
                },
                {
                    "name": "C#4",
                    "midi": 61,
                    "time": 82.06486200000025,
                    "velocity": 0.2440944881889764,
                    "duration": 0.226073999999997
                },
                {
                    "name": "B3",
                    "midi": 59,
                    "time": 82.29093600000024,
                    "velocity": 0.2204724409448819,
                    "duration": 0.226073999999997
                },
                {
                    "name": "A#3",
                    "midi": 58,
                    "time": 82.51701000000024,
                    "velocity": 0.2440944881889764,
                    "duration": 0.1130370000000056
                },
                {
                    "name": "C4",
                    "midi": 60,
                    "time": 82.74308400000025,
                    "velocity": 0.2125984251968504,
                    "duration": 0.20346659999999872
                },
                {
                    "name": "G#3",
                    "midi": 56,
                    "time": 82.74308400000025,
                    "velocity": 0.2125984251968504,
                    "duration": 0.20346659999999872
                },
                {
                    "name": "D#4",
                    "midi": 63,
                    "time": 82.74308400000025,
                    "velocity": 0.25196850393700787,
                    "duration": 0.20346659999999872
                },
                {
                    "name": "G#3",
                    "midi": 56,
                    "time": 82.96915800000025,
                    "velocity": 0.1889763779527559,
                    "duration": 0.20346659999999872
                },
                {
                    "name": "C4",
                    "midi": 60,
                    "time": 82.96915800000025,
                    "velocity": 0.1889763779527559,
                    "duration": 0.20346659999999872
                },
                {
                    "name": "D#4",
                    "midi": 63,
                    "time": 82.96915800000025,
                    "velocity": 0.2283464566929134,
                    "duration": 0.20346659999999872
                },
                {
                    "name": "C4",
                    "midi": 60,
                    "time": 83.19523200000025,
                    "velocity": 0.1889763779527559,
                    "duration": 0.9042960000000022
                },
                {
                    "name": "G#3",
                    "midi": 56,
                    "time": 83.19523200000025,
                    "velocity": 0.1889763779527559,
                    "duration": 2.2607399999999984
                },
                {
                    "name": "D#4",
                    "midi": 63,
                    "time": 83.19523200000025,
                    "velocity": 0.2283464566929134,
                    "duration": 0.9042960000000022
                },
                {
                    "name": "F4",
                    "midi": 65,
                    "time": 84.09952800000025,
                    "velocity": 0.2440944881889764,
                    "duration": 1.3564439999999962
                },
                {
                    "name": "C#4",
                    "midi": 61,
                    "time": 84.09952800000025,
                    "velocity": 0.2047244094488189,
                    "duration": 1.3564439999999962
                },
                {
                    "name": "G#3",
                    "midi": 56,
                    "time": 85.45597200000024,
                    "velocity": 0.25196850393700787,
                    "duration": 0.20346659999999872
                },
                {
                    "name": "C4",
                    "midi": 60,
                    "time": 85.45597200000024,
                    "velocity": 0.25196850393700787,
                    "duration": 0.20346659999999872
                },
                {
                    "name": "D#4",
                    "midi": 63,
                    "time": 85.45597200000024,
                    "velocity": 0.2992125984251969,
                    "duration": 0.20346659999999872
                },
                {
                    "name": "D#4",
                    "midi": 63,
                    "time": 85.68204600000024,
                    "velocity": 0.2755905511811024,
                    "duration": 0.20346659999999872
                },
                {
                    "name": "G#3",
                    "midi": 56,
                    "time": 85.68204600000024,
                    "velocity": 0.2283464566929134,
                    "duration": 0.20346659999999872
                },
                {
                    "name": "C4",
                    "midi": 60,
                    "time": 85.68204600000024,
                    "velocity": 0.2283464566929134,
                    "duration": 0.20346659999999872
                },
                {
                    "name": "C4",
                    "midi": 60,
                    "time": 85.90812000000024,
                    "velocity": 0.23622047244094488,
                    "duration": 0.9042960000000022
                },
                {
                    "name": "G#3",
                    "midi": 56,
                    "time": 85.90812000000024,
                    "velocity": 0.23622047244094488,
                    "duration": 0.9042960000000022
                },
                {
                    "name": "D#4",
                    "midi": 63,
                    "time": 85.90812000000024,
                    "velocity": 0.28346456692913385,
                    "duration": 2.2607399999999984
                },
                {
                    "name": "A#3",
                    "midi": 58,
                    "time": 86.81241600000024,
                    "velocity": 0.25984251968503935,
                    "duration": 1.3564439999999962
                },
                {
                    "name": "G3",
                    "midi": 55,
                    "time": 86.81241600000024,
                    "velocity": 0.25984251968503935,
                    "duration": 1.3564439999999962
                },
                {
                    "name": "C#4",
                    "midi": 61,
                    "time": 86.81241600000024,
                    "velocity": 0.25984251968503935,
                    "duration": 1.3564439999999962
                },
                {
                    "name": "B3",
                    "midi": 59,
                    "time": 88.16886000000024,
                    "velocity": 0.31496062992125984,
                    "duration": 0.20346659999999872
                },
                {
                    "name": "G#3",
                    "midi": 56,
                    "time": 88.16886000000024,
                    "velocity": 0.31496062992125984,
                    "duration": 0.20346659999999872
                },
                {
                    "name": "D#4",
                    "midi": 63,
                    "time": 88.16886000000024,
                    "velocity": 0.3779527559055118,
                    "duration": 0.20346659999999872
                },
                {
                    "name": "B3",
                    "midi": 59,
                    "time": 88.39493400000023,
                    "velocity": 0.28346456692913385,
                    "duration": 0.20346659999999872
                },
                {
                    "name": "D#4",
                    "midi": 63,
                    "time": 88.39493400000023,
                    "velocity": 0.33858267716535434,
                    "duration": 0.20346659999999872
                },
                {
                    "name": "G#3",
                    "midi": 56,
                    "time": 88.39493400000023,
                    "velocity": 0.28346456692913385,
                    "duration": 0.20346659999999872
                },
                {
                    "name": "D#4",
                    "midi": 63,
                    "time": 88.62100800000023,
                    "velocity": 0.33858267716535434,
                    "duration": 0.9042960000000022
                },
                {
                    "name": "B3",
                    "midi": 59,
                    "time": 88.62100800000023,
                    "velocity": 0.28346456692913385,
                    "duration": 0.9042960000000022
                },
                {
                    "name": "G#3",
                    "midi": 56,
                    "time": 88.62100800000023,
                    "velocity": 0.28346456692913385,
                    "duration": 2.2607399999999984
                },
                {
                    "name": "C#4",
                    "midi": 61,
                    "time": 89.52530400000023,
                    "velocity": 0.30708661417322836,
                    "duration": 1.3564439999999962
                },
                {
                    "name": "E4",
                    "midi": 64,
                    "time": 89.52530400000023,
                    "velocity": 0.36220472440944884,
                    "duration": 1.3564439999999962
                },
                {
                    "name": "B3",
                    "midi": 59,
                    "time": 90.88174800000023,
                    "velocity": 0.31496062992125984,
                    "duration": 0.20346659999999872
                },
                {
                    "name": "G#3",
                    "midi": 56,
                    "time": 90.88174800000023,
                    "velocity": 0.31496062992125984,
                    "duration": 0.20346659999999872
                },
                {
                    "name": "D#4",
                    "midi": 63,
                    "time": 90.88174800000023,
                    "velocity": 0.3779527559055118,
                    "duration": 0.20346659999999872
                },
                {
                    "name": "G#3",
                    "midi": 56,
                    "time": 91.10782200000023,
                    "velocity": 0.28346456692913385,
                    "duration": 0.20346659999999872
                },
                {
                    "name": "D#4",
                    "midi": 63,
                    "time": 91.10782200000023,
                    "velocity": 0.33858267716535434,
                    "duration": 0.20346659999999872
                },
                {
                    "name": "B3",
                    "midi": 59,
                    "time": 91.10782200000023,
                    "velocity": 0.28346456692913385,
                    "duration": 0.20346659999999872
                },
                {
                    "name": "D#4",
                    "midi": 63,
                    "time": 91.33389600000022,
                    "velocity": 0.33858267716535434,
                    "duration": 0.9042960000000022
                },
                {
                    "name": "B3",
                    "midi": 59,
                    "time": 91.33389600000022,
                    "velocity": 0.28346456692913385,
                    "duration": 0.9042960000000022
                },
                {
                    "name": "G#3",
                    "midi": 56,
                    "time": 91.33389600000022,
                    "velocity": 0.28346456692913385,
                    "duration": 0.9042960000000022
                },
                {
                    "name": "A#3",
                    "midi": 58,
                    "time": 92.23819200000023,
                    "velocity": 0.28346456692913385,
                    "duration": 1.3564440000000104
                },
                {
                    "name": "C#4",
                    "midi": 61,
                    "time": 92.23819200000023,
                    "velocity": 0.28346456692913385,
                    "duration": 1.3564440000000104
                },
                {
                    "name": "G3",
                    "midi": 55,
                    "time": 92.23819200000023,
                    "velocity": 0.28346456692913385,
                    "duration": 1.3564440000000104
                },
                {
                    "name": "E4",
                    "midi": 64,
                    "time": 92.23819200000023,
                    "velocity": 0.33858267716535434,
                    "duration": 0.6782220000000052
                },
                {
                    "name": "D#4",
                    "midi": 63,
                    "time": 92.91641400000023,
                    "velocity": 0.33858267716535434,
                    "duration": 0.6782220000000052
                },
                {
                    "name": "D#4",
                    "midi": 63,
                    "time": 93.59463600000024,
                    "velocity": 0.3228346456692913,
                    "duration": 0.6782220000000052
                },
                {
                    "name": "B3",
                    "midi": 59,
                    "time": 93.59463600000024,
                    "velocity": 0.2677165354330709,
                    "duration": 0.6782220000000052
                },
                {
                    "name": "G#3",
                    "midi": 56,
                    "time": 93.59463600000024,
                    "velocity": 0.2677165354330709,
                    "duration": 0.6782220000000052
                },
                {
                    "name": "G#3",
                    "midi": 56,
                    "time": 94.27285800000024,
                    "velocity": 0.2755905511811024,
                    "duration": 0.6782220000000052
                },
                {
                    "name": "D#3",
                    "midi": 51,
                    "time": 94.27285800000024,
                    "velocity": 0.2283464566929134,
                    "duration": 0.6782220000000052
                },
                {
                    "name": "B2",
                    "midi": 47,
                    "time": 94.27285800000024,
                    "velocity": 0.2283464566929134,
                    "duration": 0.6782220000000052
                },
                {
                    "name": "C#3",
                    "midi": 49,
                    "time": 94.95108000000025,
                    "velocity": 0.28346456692913385,
                    "duration": 0.6782220000000052
                },
                {
                    "name": "C#4",
                    "midi": 61,
                    "time": 95.40322800000024,
                    "velocity": 0.2283464566929134,
                    "duration": 0.1130370000000056
                },
                {
                    "name": "A3",
                    "midi": 57,
                    "time": 95.40322800000024,
                    "velocity": 0.2283464566929134,
                    "duration": 0.1130370000000056
                },
                {
                    "name": "D#3",
                    "midi": 51,
                    "time": 95.62930200000025,
                    "velocity": 0.28346456692913385,
                    "duration": 0.6782220000000052
                },
                {
                    "name": "C#4",
                    "midi": 61,
                    "time": 96.08145000000025,
                    "velocity": 0.2283464566929134,
                    "duration": 0.1130370000000056
                },
                {
                    "name": "A#3",
                    "midi": 58,
                    "time": 96.08145000000025,
                    "velocity": 0.2283464566929134,
                    "duration": 0.1130370000000056
                },
                {
                    "name": "B2",
                    "midi": 47,
                    "time": 96.30752400000026,
                    "velocity": 0.3228346456692913,
                    "duration": 1.3564439999999962
                },
                {
                    "name": "D#3",
                    "midi": 51,
                    "time": 96.75967200000025,
                    "velocity": 0.2283464566929134,
                    "duration": 0.9042960000000022
                },
                {
                    "name": "B3",
                    "midi": 59,
                    "time": 96.75967200000025,
                    "velocity": 0.2755905511811024,
                    "duration": 0.9042960000000022
                },
                {
                    "name": "G#3",
                    "midi": 56,
                    "time": 96.75967200000025,
                    "velocity": 0.2283464566929134,
                    "duration": 0.9042960000000022
                },
                {
                    "name": "C#3",
                    "midi": 49,
                    "time": 97.66396800000025,
                    "velocity": 0.28346456692913385,
                    "duration": 0.6782220000000052
                },
                {
                    "name": "A3",
                    "midi": 57,
                    "time": 98.11611600000025,
                    "velocity": 0.1889763779527559,
                    "duration": 0.1130370000000056
                },
                {
                    "name": "C#4",
                    "midi": 61,
                    "time": 98.11611600000025,
                    "velocity": 0.2283464566929134,
                    "duration": 0.1130370000000056
                },
                {
                    "name": "D#3",
                    "midi": 51,
                    "time": 98.34219000000026,
                    "velocity": 0.28346456692913385,
                    "duration": 0.6782220000000052
                },
                {
                    "name": "A#3",
                    "midi": 58,
                    "time": 98.79433800000025,
                    "velocity": 0.1889763779527559,
                    "duration": 0.1130370000000056
                },
                {
                    "name": "C#4",
                    "midi": 61,
                    "time": 98.79433800000025,
                    "velocity": 0.2283464566929134,
                    "duration": 0.1130370000000056
                },
                {
                    "name": "B2",
                    "midi": 47,
                    "time": 99.02041200000026,
                    "velocity": 0.3228346456692913,
                    "duration": 1.3564439999999962
                },
                {
                    "name": "D#3",
                    "midi": 51,
                    "time": 99.47256000000026,
                    "velocity": 0.2283464566929134,
                    "duration": 0.9042960000000022
                },
                {
                    "name": "B3",
                    "midi": 59,
                    "time": 99.47256000000026,
                    "velocity": 0.2755905511811024,
                    "duration": 0.9042960000000022
                },
                {
                    "name": "G#3",
                    "midi": 56,
                    "time": 99.47256000000026,
                    "velocity": 0.2283464566929134,
                    "duration": 0.9042960000000022
                },
                {
                    "name": "C#3",
                    "midi": 49,
                    "time": 100.37685600000026,
                    "velocity": 0.28346456692913385,
                    "duration": 0.678221999999991
                },
                {
                    "name": "C#4",
                    "midi": 61,
                    "time": 100.82900400000025,
                    "velocity": 0.2283464566929134,
                    "duration": 0.226073999999997
                },
                {
                    "name": "A3",
                    "midi": 57,
                    "time": 100.82900400000025,
                    "velocity": 0.1889763779527559,
                    "duration": 0.226073999999997
                },
                {
                    "name": "D#3",
                    "midi": 51,
                    "time": 101.05507800000025,
                    "velocity": 0.2755905511811024,
                    "duration": 0.678221999999991
                },
                {
                    "name": "A#3",
                    "midi": 58,
                    "time": 101.50722600000024,
                    "velocity": 0.1968503937007874,
                    "duration": 0.226073999999997
                },
                {
                    "name": "C#4",
                    "midi": 61,
                    "time": 101.50722600000024,
                    "velocity": 0.23622047244094488,
                    "duration": 0.226073999999997
                },
                {
                    "name": "G#2",
                    "midi": 44,
                    "time": 101.73330000000024,
                    "velocity": 0.3464566929133858,
                    "duration": 0.226073999999997
                },
                {
                    "name": "G#3",
                    "midi": 56,
                    "time": 102.18544800000024,
                    "velocity": 0.1889763779527559,
                    "duration": 0.1130370000000056
                },
                {
                    "name": "B3",
                    "midi": 59,
                    "time": 102.18544800000024,
                    "velocity": 0.2283464566929134,
                    "duration": 0.1130370000000056
                },
                {
                    "name": "G#2",
                    "midi": 44,
                    "time": 102.41152200000025,
                    "velocity": 0.3464566929133858,
                    "duration": 0.226073999999997
                },
                {
                    "name": "A#3",
                    "midi": 58,
                    "time": 102.86367000000024,
                    "velocity": 0.1889763779527559,
                    "duration": 0.1130370000000056
                },
                {
                    "name": "C#4",
                    "midi": 61,
                    "time": 102.86367000000024,
                    "velocity": 0.2283464566929134,
                    "duration": 0.1130370000000056
                },
                {
                    "name": "G#2",
                    "midi": 44,
                    "time": 103.08974400000025,
                    "velocity": 0.3464566929133858,
                    "duration": 0.226073999999997
                },
                {
                    "name": "D#4",
                    "midi": 63,
                    "time": 103.54189200000025,
                    "velocity": 0.2283464566929134,
                    "duration": 0.1130370000000056
                },
                {
                    "name": "B3",
                    "midi": 59,
                    "time": 103.54189200000025,
                    "velocity": 0.1889763779527559,
                    "duration": 0.1130370000000056
                },
                {
                    "name": "D#4",
                    "midi": 63,
                    "time": 103.76796600000026,
                    "velocity": 0.2440944881889764,
                    "duration": 0.0565184999999957
                },
                {
                    "name": "A#3",
                    "midi": 58,
                    "time": 103.76796600000026,
                    "velocity": 0.2047244094488189,
                    "duration": 0.0565184999999957
                },
                {
                    "name": "C#4",
                    "midi": 61,
                    "time": 103.76796600000026,
                    "velocity": 0.2047244094488189,
                    "duration": 0.0565184999999957
                },
                {
                    "name": "A#3",
                    "midi": 58,
                    "time": 103.99404000000025,
                    "velocity": 0.1889763779527559,
                    "duration": 0.0565184999999957
                },
                {
                    "name": "D#4",
                    "midi": 63,
                    "time": 103.99404000000025,
                    "velocity": 0.2283464566929134,
                    "duration": 0.0565184999999957
                },
                {
                    "name": "C#4",
                    "midi": 61,
                    "time": 103.99404000000025,
                    "velocity": 0.1889763779527559,
                    "duration": 0.0565184999999957
                },
                {
                    "name": "B3",
                    "midi": 59,
                    "time": 104.22011400000025,
                    "velocity": 0.1889763779527559,
                    "duration": 0.0565184999999957
                },
                {
                    "name": "G#3",
                    "midi": 56,
                    "time": 104.22011400000025,
                    "velocity": 0.1889763779527559,
                    "duration": 0.0565184999999957
                },
                {
                    "name": "D#4",
                    "midi": 63,
                    "time": 104.22011400000025,
                    "velocity": 0.2283464566929134,
                    "duration": 0.0565184999999957
                },
                {
                    "name": "D#3",
                    "midi": 51,
                    "time": 104.44618800000025,
                    "velocity": 0.3464566929133858,
                    "duration": 0.452147999999994
                },
                {
                    "name": "G3",
                    "midi": 55,
                    "time": 104.89833600000024,
                    "velocity": 0.1889763779527559,
                    "duration": 0.1130370000000056
                },
                {
                    "name": "A#3",
                    "midi": 58,
                    "time": 104.89833600000024,
                    "velocity": 0.2283464566929134,
                    "duration": 0.1130370000000056
                },
                {
                    "name": "D#3",
                    "midi": 51,
                    "time": 105.12441000000025,
                    "velocity": 0.3464566929133858,
                    "duration": 0.452147999999994
                },
                {
                    "name": "G#3",
                    "midi": 56,
                    "time": 105.57655800000025,
                    "velocity": 0.1889763779527559,
                    "duration": 0.1130370000000056
                },
                {
                    "name": "B3",
                    "midi": 59,
                    "time": 105.57655800000025,
                    "velocity": 0.2283464566929134,
                    "duration": 0.1130370000000056
                },
                {
                    "name": "D#3",
                    "midi": 51,
                    "time": 105.80263200000026,
                    "velocity": 0.3464566929133858,
                    "duration": 0.452147999999994
                },
                {
                    "name": "A#3",
                    "midi": 58,
                    "time": 106.25478000000025,
                    "velocity": 0.1889763779527559,
                    "duration": 0.1130370000000056
                },
                {
                    "name": "C#4",
                    "midi": 61,
                    "time": 106.25478000000025,
                    "velocity": 0.2283464566929134,
                    "duration": 0.1130370000000056
                },
                {
                    "name": "G#3",
                    "midi": 56,
                    "time": 106.48085400000026,
                    "velocity": 0.2047244094488189,
                    "duration": 0.0565184999999957
                },
                {
                    "name": "D#3",
                    "midi": 51,
                    "time": 106.48085400000026,
                    "velocity": 0.2047244094488189,
                    "duration": 0.0565184999999957
                },
                {
                    "name": "B3",
                    "midi": 59,
                    "time": 106.48085400000026,
                    "velocity": 0.2440944881889764,
                    "duration": 0.0565184999999957
                },
                {
                    "name": "B3",
                    "midi": 59,
                    "time": 106.70692800000026,
                    "velocity": 0.2283464566929134,
                    "duration": 0.0565184999999957
                },
                {
                    "name": "D#3",
                    "midi": 51,
                    "time": 106.70692800000026,
                    "velocity": 0.1889763779527559,
                    "duration": 0.0565184999999957
                },
                {
                    "name": "G#3",
                    "midi": 56,
                    "time": 106.70692800000026,
                    "velocity": 0.1889763779527559,
                    "duration": 0.0565184999999957
                },
                {
                    "name": "D#3",
                    "midi": 51,
                    "time": 106.93300200000026,
                    "velocity": 0.1889763779527559,
                    "duration": 0.0565184999999957
                },
                {
                    "name": "A#3",
                    "midi": 58,
                    "time": 106.93300200000026,
                    "velocity": 0.2283464566929134,
                    "duration": 0.0565184999999957
                },
                {
                    "name": "G3",
                    "midi": 55,
                    "time": 106.93300200000026,
                    "velocity": 0.1889763779527559,
                    "duration": 0.0565184999999957
                },
                {
                    "name": "G#2",
                    "midi": 44,
                    "time": 107.15907600000025,
                    "velocity": 0.3779527559055118,
                    "duration": 0.452147999999994
                },
                {
                    "name": "G#3",
                    "midi": 56,
                    "time": 107.61122400000025,
                    "velocity": 0.2047244094488189,
                    "duration": 0.1130370000000056
                },
                {
                    "name": "B3",
                    "midi": 59,
                    "time": 107.61122400000025,
                    "velocity": 0.2440944881889764,
                    "duration": 0.1130370000000056
                },
                {
                    "name": "G#2",
                    "midi": 44,
                    "time": 107.83729800000026,
                    "velocity": 0.3779527559055118,
                    "duration": 0.452147999999994
                },
                {
                    "name": "A#3",
                    "midi": 58,
                    "time": 108.28944600000025,
                    "velocity": 0.2047244094488189,
                    "duration": 0.1130370000000056
                },
                {
                    "name": "C#4",
                    "midi": 61,
                    "time": 108.28944600000025,
                    "velocity": 0.2440944881889764,
                    "duration": 0.1130370000000056
                },
                {
                    "name": "G#2",
                    "midi": 44,
                    "time": 108.51552000000027,
                    "velocity": 0.3779527559055118,
                    "duration": 0.452147999999994
                },
                {
                    "name": "B3",
                    "midi": 59,
                    "time": 108.96766800000026,
                    "velocity": 0.2047244094488189,
                    "duration": 0.1130370000000056
                },
                {
                    "name": "D#4",
                    "midi": 63,
                    "time": 108.96766800000026,
                    "velocity": 0.2440944881889764,
                    "duration": 0.1130370000000056
                },
                {
                    "name": "E4",
                    "midi": 64,
                    "time": 109.19374200000027,
                    "velocity": 0.31496062992125984,
                    "duration": 0.0565184999999957
                },
                {
                    "name": "F#3",
                    "midi": 54,
                    "time": 109.19374200000027,
                    "velocity": 0.25984251968503935,
                    "duration": 0.0565184999999957
                },
                {
                    "name": "C#4",
                    "midi": 61,
                    "time": 109.19374200000027,
                    "velocity": 0.25984251968503935,
                    "duration": 0.0565184999999957
                },
                {
                    "name": "E4",
                    "midi": 64,
                    "time": 109.41981600000027,
                    "velocity": 0.29133858267716534,
                    "duration": 0.0565184999999957
                },
                {
                    "name": "C#4",
                    "midi": 61,
                    "time": 109.41981600000027,
                    "velocity": 0.2440944881889764,
                    "duration": 0.0565184999999957
                },
                {
                    "name": "F#3",
                    "midi": 54,
                    "time": 109.41981600000027,
                    "velocity": 0.2440944881889764,
                    "duration": 0.0565184999999957
                },
                {
                    "name": "F#3",
                    "midi": 54,
                    "time": 109.64589000000026,
                    "velocity": 0.2440944881889764,
                    "duration": 0.0565184999999957
                },
                {
                    "name": "A#3",
                    "midi": 58,
                    "time": 109.64589000000026,
                    "velocity": 0.2440944881889764,
                    "duration": 0.0565184999999957
                },
                {
                    "name": "F#4",
                    "midi": 66,
                    "time": 109.64589000000026,
                    "velocity": 0.29133858267716534,
                    "duration": 0.0565184999999957
                },
                {
                    "name": "F#3",
                    "midi": 54,
                    "time": 109.87196400000026,
                    "velocity": 0.3779527559055118,
                    "duration": 0.6782220000000052
                },
                {
                    "name": "B3",
                    "midi": 59,
                    "time": 110.32411200000026,
                    "velocity": 0.2047244094488189,
                    "duration": 0.1130370000000056
                },
                {
                    "name": "D#4",
                    "midi": 63,
                    "time": 110.32411200000026,
                    "velocity": 0.2440944881889764,
                    "duration": 0.1130370000000056
                },
                {
                    "name": "E4",
                    "midi": 64,
                    "time": 110.55018600000027,
                    "velocity": 0.31496062992125984,
                    "duration": 0.0565184999999957
                },
                {
                    "name": "C#4",
                    "midi": 61,
                    "time": 110.55018600000027,
                    "velocity": 0.25984251968503935,
                    "duration": 0.0565184999999957
                },
                {
                    "name": "F#3",
                    "midi": 54,
                    "time": 110.55018600000027,
                    "velocity": 0.25984251968503935,
                    "duration": 0.0565184999999957
                },
                {
                    "name": "E4",
                    "midi": 64,
                    "time": 110.77626000000026,
                    "velocity": 0.29133858267716534,
                    "duration": 0.0565184999999957
                },
                {
                    "name": "C#4",
                    "midi": 61,
                    "time": 110.77626000000026,
                    "velocity": 0.2440944881889764,
                    "duration": 0.0565184999999957
                },
                {
                    "name": "F#3",
                    "midi": 54,
                    "time": 110.77626000000026,
                    "velocity": 0.2440944881889764,
                    "duration": 0.0565184999999957
                },
                {
                    "name": "A#3",
                    "midi": 58,
                    "time": 111.00233400000026,
                    "velocity": 0.2440944881889764,
                    "duration": 0.0565184999999957
                },
                {
                    "name": "F#3",
                    "midi": 54,
                    "time": 111.00233400000026,
                    "velocity": 0.2440944881889764,
                    "duration": 0.0565184999999957
                },
                {
                    "name": "F#4",
                    "midi": 66,
                    "time": 111.00233400000026,
                    "velocity": 0.29133858267716534,
                    "duration": 0.0565184999999957
                },
                {
                    "name": "G3",
                    "midi": 55,
                    "time": 111.22840800000026,
                    "velocity": 0.5433070866141733,
                    "duration": 0.678221999999991
                },
                {
                    "name": "D#4",
                    "midi": 63,
                    "time": 111.68055600000025,
                    "velocity": 0.2755905511811024,
                    "duration": 0.1695555000000013
                },
                {
                    "name": "A#3",
                    "midi": 58,
                    "time": 111.68055600000025,
                    "velocity": 0.2283464566929134,
                    "duration": 0.1695555000000013
                },
                {
                    "name": "G#3",
                    "midi": 56,
                    "time": 111.90663000000025,
                    "velocity": 0.5354330708661418,
                    "duration": 0.678221999999991
                },
                {
                    "name": "B3",
                    "midi": 59,
                    "time": 112.35877800000024,
                    "velocity": 0.2283464566929134,
                    "duration": 0.1695555000000013
                },
                {
                    "name": "D#4",
                    "midi": 63,
                    "time": 112.35877800000024,
                    "velocity": 0.2755905511811024,
                    "duration": 0.1695555000000013
                },
                {
                    "name": "C#3",
                    "midi": 49,
                    "time": 112.58485200000024,
                    "velocity": 0.5118110236220472,
                    "duration": 0.452147999999994
                },
                {
                    "name": "C#4",
                    "midi": 61,
                    "time": 113.03700000000023,
                    "velocity": 0.2283464566929134,
                    "duration": 0.1695555000000013
                },
                {
                    "name": "E4",
                    "midi": 64,
                    "time": 113.03700000000023,
                    "velocity": 0.2755905511811024,
                    "duration": 0.1695555000000013
                },
                {
                    "name": "D#4",
                    "midi": 63,
                    "time": 113.26307400000023,
                    "velocity": 0.36220472440944884,
                    "duration": 0.0565184999999957
                },
                {
                    "name": "B3",
                    "midi": 59,
                    "time": 113.26307400000023,
                    "velocity": 0.29133858267716534,
                    "duration": 0.0565184999999957
                },
                {
                    "name": "D#3",
                    "midi": 51,
                    "time": 113.26307400000023,
                    "velocity": 0.29133858267716534,
                    "duration": 0.0565184999999957
                },
                {
                    "name": "D#4",
                    "midi": 63,
                    "time": 113.48914800000023,
                    "velocity": 0.33070866141732286,
                    "duration": 0.0565184999999957
                },
                {
                    "name": "D#3",
                    "midi": 51,
                    "time": 113.48914800000023,
                    "velocity": 0.2755905511811024,
                    "duration": 0.0565184999999957
                },
                {
                    "name": "B3",
                    "midi": 59,
                    "time": 113.48914800000023,
                    "velocity": 0.2755905511811024,
                    "duration": 0.0565184999999957
                },
                {
                    "name": "D#3",
                    "midi": 51,
                    "time": 113.71522200000022,
                    "velocity": 0.2755905511811024,
                    "duration": 0.0565184999999957
                },
                {
                    "name": "A#3",
                    "midi": 58,
                    "time": 113.71522200000022,
                    "velocity": 0.2755905511811024,
                    "duration": 0.0565184999999957
                },
                {
                    "name": "D#4",
                    "midi": 63,
                    "time": 113.71522200000022,
                    "velocity": 0.33070866141732286,
                    "duration": 0.0565184999999957
                },
                {
                    "name": "G3",
                    "midi": 55,
                    "time": 113.94129600000022,
                    "velocity": 0.5433070866141733,
                    "duration": 0.678221999999991
                },
                {
                    "name": "A#3",
                    "midi": 58,
                    "time": 114.39344400000022,
                    "velocity": 0.2283464566929134,
                    "duration": 0.1695555000000013
                },
                {
                    "name": "D#4",
                    "midi": 63,
                    "time": 114.39344400000022,
                    "velocity": 0.2755905511811024,
                    "duration": 0.1695555000000013
                },
                {
                    "name": "G#3",
                    "midi": 56,
                    "time": 114.61951800000021,
                    "velocity": 0.5354330708661418,
                    "duration": 0.678221999999991
                },
                {
                    "name": "B3",
                    "midi": 59,
                    "time": 115.0716660000002,
                    "velocity": 0.2283464566929134,
                    "duration": 0.1695555000000013
                },
                {
                    "name": "D#4",
                    "midi": 63,
                    "time": 115.0716660000002,
                    "velocity": 0.2755905511811024,
                    "duration": 0.1695555000000013
                },
                {
                    "name": "C#3",
                    "midi": 49,
                    "time": 115.2977400000002,
                    "velocity": 0.5118110236220472,
                    "duration": 0.452147999999994
                },
                {
                    "name": "E4",
                    "midi": 64,
                    "time": 115.7498880000002,
                    "velocity": 0.2755905511811024,
                    "duration": 0.1695555000000013
                },
                {
                    "name": "C#4",
                    "midi": 61,
                    "time": 115.7498880000002,
                    "velocity": 0.2283464566929134,
                    "duration": 0.1695555000000013
                },
                {
                    "name": "D#3",
                    "midi": 51,
                    "time": 115.9759620000002,
                    "velocity": 0.29133858267716534,
                    "duration": 0.0565184999999957
                },
                {
                    "name": "D#4",
                    "midi": 63,
                    "time": 115.9759620000002,
                    "velocity": 0.36220472440944884,
                    "duration": 0.0565184999999957
                },
                {
                    "name": "B3",
                    "midi": 59,
                    "time": 115.9759620000002,
                    "velocity": 0.29133858267716534,
                    "duration": 0.0565184999999957
                },
                {
                    "name": "D#4",
                    "midi": 63,
                    "time": 116.20203600000019,
                    "velocity": 0.33070866141732286,
                    "duration": 0.0565184999999957
                },
                {
                    "name": "D#3",
                    "midi": 51,
                    "time": 116.20203600000019,
                    "velocity": 0.2755905511811024,
                    "duration": 0.0565184999999957
                },
                {
                    "name": "B3",
                    "midi": 59,
                    "time": 116.20203600000019,
                    "velocity": 0.2755905511811024,
                    "duration": 0.0565184999999957
                },
                {
                    "name": "D#3",
                    "midi": 51,
                    "time": 116.42811000000019,
                    "velocity": 0.2755905511811024,
                    "duration": 0.0565184999999957
                },
                {
                    "name": "D#4",
                    "midi": 63,
                    "time": 116.42811000000019,
                    "velocity": 0.33070866141732286,
                    "duration": 0.0565184999999957
                },
                {
                    "name": "A#3",
                    "midi": 58,
                    "time": 116.42811000000019,
                    "velocity": 0.2755905511811024,
                    "duration": 0.0565184999999957
                },
                {
                    "name": "D#3",
                    "midi": 51,
                    "time": 116.65418400000019,
                    "velocity": 0.5905511811023622,
                    "duration": 0.452147999999994
                },
                {
                    "name": "A#3",
                    "midi": 58,
                    "time": 117.10633200000018,
                    "velocity": 0.2440944881889764,
                    "duration": 0.1695555000000013
                },
                {
                    "name": "C#4",
                    "midi": 61,
                    "time": 117.10633200000018,
                    "velocity": 0.2992125984251969,
                    "duration": 0.1695555000000013
                },
                {
                    "name": "D#3",
                    "midi": 51,
                    "time": 117.33240600000018,
                    "velocity": 0.5826771653543307,
                    "duration": 0.452147999999994
                },
                {
                    "name": "D#4",
                    "midi": 63,
                    "time": 117.78455400000017,
                    "velocity": 0.2992125984251969,
                    "duration": 0.1695555000000013
                },
                {
                    "name": "B3",
                    "midi": 59,
                    "time": 117.78455400000017,
                    "velocity": 0.2440944881889764,
                    "duration": 0.1695555000000013
                },
                {
                    "name": "D#3",
                    "midi": 51,
                    "time": 118.01062800000017,
                    "velocity": 0.5590551181102362,
                    "duration": 0.452147999999994
                },
                {
                    "name": "E4",
                    "midi": 64,
                    "time": 118.46277600000016,
                    "velocity": 0.2992125984251969,
                    "duration": 0.1695555000000013
                },
                {
                    "name": "C#4",
                    "midi": 61,
                    "time": 118.46277600000016,
                    "velocity": 0.2440944881889764,
                    "duration": 0.1695555000000013
                },
                {
                    "name": "D#3",
                    "midi": 51,
                    "time": 118.68885000000016,
                    "velocity": 0.31496062992125984,
                    "duration": 0.0565184999999957
                },
                {
                    "name": "A#3",
                    "midi": 58,
                    "time": 118.68885000000016,
                    "velocity": 0.31496062992125984,
                    "duration": 0.0565184999999957
                },
                {
                    "name": "C#4",
                    "midi": 61,
                    "time": 118.68885000000016,
                    "velocity": 0.3937007874015748,
                    "duration": 0.0565184999999957
                },
                {
                    "name": "A#3",
                    "midi": 58,
                    "time": 118.91492400000016,
                    "velocity": 0.2992125984251969,
                    "duration": 0.0565184999999957
                },
                {
                    "name": "D#3",
                    "midi": 51,
                    "time": 118.91492400000016,
                    "velocity": 0.2992125984251969,
                    "duration": 0.0565184999999957
                },
                {
                    "name": "C#4",
                    "midi": 61,
                    "time": 118.91492400000016,
                    "velocity": 0.36220472440944884,
                    "duration": 0.0565184999999957
                },
                {
                    "name": "A#3",
                    "midi": 58,
                    "time": 119.14099800000015,
                    "velocity": 0.36220472440944884,
                    "duration": 0.0565184999999957
                },
                {
                    "name": "G3",
                    "midi": 55,
                    "time": 119.14099800000015,
                    "velocity": 0.2992125984251969,
                    "duration": 0.0565184999999957
                },
                {
                    "name": "D#3",
                    "midi": 51,
                    "time": 119.14099800000015,
                    "velocity": 0.2992125984251969,
                    "duration": 0.0565184999999957
                },
                {
                    "name": "D#3",
                    "midi": 51,
                    "time": 119.36707200000015,
                    "velocity": 0.5590551181102362,
                    "duration": 0.452147999999994
                },
                {
                    "name": "C#4",
                    "midi": 61,
                    "time": 119.81922000000014,
                    "velocity": 0.2440944881889764,
                    "duration": 0.1695555000000013
                },
                {
                    "name": "E4",
                    "midi": 64,
                    "time": 119.81922000000014,
                    "velocity": 0.2992125984251969,
                    "duration": 0.1695555000000013
                },
                {
                    "name": "A#3",
                    "midi": 58,
                    "time": 120.04529400000014,
                    "velocity": 0.31496062992125984,
                    "duration": 0.0565184999999957
                },
                {
                    "name": "D#3",
                    "midi": 51,
                    "time": 120.04529400000014,
                    "velocity": 0.31496062992125984,
                    "duration": 0.0565184999999957
                },
                {
                    "name": "C#4",
                    "midi": 61,
                    "time": 120.04529400000014,
                    "velocity": 0.3937007874015748,
                    "duration": 0.0565184999999957
                },
                {
                    "name": "D#3",
                    "midi": 51,
                    "time": 120.27136800000014,
                    "velocity": 0.2992125984251969,
                    "duration": 0.0565184999999957
                },
                {
                    "name": "C#4",
                    "midi": 61,
                    "time": 120.27136800000014,
                    "velocity": 0.36220472440944884,
                    "duration": 0.0565184999999957
                },
                {
                    "name": "A#3",
                    "midi": 58,
                    "time": 120.27136800000014,
                    "velocity": 0.2992125984251969,
                    "duration": 0.0565184999999957
                },
                {
                    "name": "D#3",
                    "midi": 51,
                    "time": 120.49744200000013,
                    "velocity": 0.2992125984251969,
                    "duration": 0.0565184999999957
                },
                {
                    "name": "G3",
                    "midi": 55,
                    "time": 120.49744200000013,
                    "velocity": 0.2992125984251969,
                    "duration": 0.0565184999999957
                },
                {
                    "name": "A#3",
                    "midi": 58,
                    "time": 120.49744200000013,
                    "velocity": 0.36220472440944884,
                    "duration": 0.0565184999999957
                },
                {
                    "name": "D#3",
                    "midi": 51,
                    "time": 120.72351600000013,
                    "velocity": 0.5590551181102362,
                    "duration": 0.452147999999994
                },
                {
                    "name": "E4",
                    "midi": 64,
                    "time": 121.17566400000013,
                    "velocity": 0.2992125984251969,
                    "duration": 0.1695555000000013
                },
                {
                    "name": "C#4",
                    "midi": 61,
                    "time": 121.17566400000013,
                    "velocity": 0.2440944881889764,
                    "duration": 0.1695555000000013
                },
                {
                    "name": "D#3",
                    "midi": 51,
                    "time": 121.40173800000012,
                    "velocity": 0.5354330708661418,
                    "duration": 0.452147999999994
                },
                {
                    "name": "C#4",
                    "midi": 61,
                    "time": 121.85388600000012,
                    "velocity": 0.2755905511811024,
                    "duration": 0.1695555000000013
                },
                {
                    "name": "E4",
                    "midi": 64,
                    "time": 121.85388600000012,
                    "velocity": 0.33070866141732286,
                    "duration": 0.1695555000000013
                },
                {
                    "name": "D#3",
                    "midi": 51,
                    "time": 122.07996000000011,
                    "velocity": 0.5669291338582677,
                    "duration": 0.452147999999994
                },
                {
                    "name": "C#4",
                    "midi": 61,
                    "time": 122.53210800000011,
                    "velocity": 0.28346456692913385,
                    "duration": 0.1695555000000013
                },
                {
                    "name": "E4",
                    "midi": 64,
                    "time": 122.53210800000011,
                    "velocity": 0.3464566929133858,
                    "duration": 0.1695555000000013
                },
                {
                    "name": "D#3",
                    "midi": 51,
                    "time": 122.7581820000001,
                    "velocity": 0.5905511811023622,
                    "duration": 0.452147999999994
                },
                {
                    "name": "E4",
                    "midi": 64,
                    "time": 123.2103300000001,
                    "velocity": 0.36220472440944884,
                    "duration": 0.1695555000000013
                },
                {
                    "name": "C#4",
                    "midi": 61,
                    "time": 123.2103300000001,
                    "velocity": 0.2992125984251969,
                    "duration": 0.1695555000000013
                },
                {
                    "name": "D#3",
                    "midi": 51,
                    "time": 123.4364040000001,
                    "velocity": 0.5984251968503937,
                    "duration": 0.452147999999994
                },
                {
                    "name": "C#4",
                    "midi": 61,
                    "time": 123.88855200000009,
                    "velocity": 0.30708661417322836,
                    "duration": 0.1695555000000013
                },
                {
                    "name": "E4",
                    "midi": 64,
                    "time": 123.88855200000009,
                    "velocity": 0.3779527559055118,
                    "duration": 0.1695555000000013
                },
                {
                    "name": "E3",
                    "midi": 52,
                    "time": 124.79284800000009,
                    "velocity": 0.3464566929133858,
                    "duration": 0.452147999999994
                },
                {
                    "name": "C#4",
                    "midi": 61,
                    "time": 125.24499600000009,
                    "velocity": 0.1889763779527559,
                    "duration": 0.1130370000000056
                },
                {
                    "name": "E4",
                    "midi": 64,
                    "time": 125.24499600000009,
                    "velocity": 0.2283464566929134,
                    "duration": 0.1130370000000056
                },
                {
                    "name": "E3",
                    "midi": 52,
                    "time": 125.4710700000001,
                    "velocity": 0.3464566929133858,
                    "duration": 0.452147999999994
                },
                {
                    "name": "E4",
                    "midi": 64,
                    "time": 125.92321800000009,
                    "velocity": 0.2283464566929134,
                    "duration": 0.1130370000000056
                },
                {
                    "name": "C#4",
                    "midi": 61,
                    "time": 125.92321800000009,
                    "velocity": 0.1889763779527559,
                    "duration": 0.1130370000000056
                },
                {
                    "name": "E3",
                    "midi": 52,
                    "time": 126.1492920000001,
                    "velocity": 0.3464566929133858,
                    "duration": 0.452147999999994
                },
                {
                    "name": "E4",
                    "midi": 64,
                    "time": 126.6014400000001,
                    "velocity": 0.2283464566929134,
                    "duration": 0.1130370000000056
                },
                {
                    "name": "C#4",
                    "midi": 61,
                    "time": 126.6014400000001,
                    "velocity": 0.1889763779527559,
                    "duration": 0.1130370000000056
                },
                {
                    "name": "E3",
                    "midi": 52,
                    "time": 126.82751400000011,
                    "velocity": 0.2047244094488189,
                    "duration": 0.0565184999999957
                },
                {
                    "name": "B3",
                    "midi": 59,
                    "time": 126.82751400000011,
                    "velocity": 0.2047244094488189,
                    "duration": 0.0565184999999957
                },
                {
                    "name": "D4",
                    "midi": 62,
                    "time": 126.82751400000011,
                    "velocity": 0.2440944881889764,
                    "duration": 0.0565184999999957
                },
                {
                    "name": "D4",
                    "midi": 62,
                    "time": 127.0535880000001,
                    "velocity": 0.2283464566929134,
                    "duration": 0.0565184999999957
                },
                {
                    "name": "E3",
                    "midi": 52,
                    "time": 127.0535880000001,
                    "velocity": 0.1889763779527559,
                    "duration": 0.0565184999999957
                },
                {
                    "name": "B3",
                    "midi": 59,
                    "time": 127.0535880000001,
                    "velocity": 0.1889763779527559,
                    "duration": 0.0565184999999957
                },
                {
                    "name": "A3",
                    "midi": 57,
                    "time": 127.2796620000001,
                    "velocity": 0.1889763779527559,
                    "duration": 0.0565184999999957
                },
                {
                    "name": "C#4",
                    "midi": 61,
                    "time": 127.2796620000001,
                    "velocity": 0.2283464566929134,
                    "duration": 0.0565184999999957
                },
                {
                    "name": "E3",
                    "midi": 52,
                    "time": 127.2796620000001,
                    "velocity": 0.1889763779527559,
                    "duration": 0.0565184999999957
                },
                {
                    "name": "E3",
                    "midi": 52,
                    "time": 127.5057360000001,
                    "velocity": 0.3464566929133858,
                    "duration": 0.452147999999994
                },
                {
                    "name": "D4",
                    "midi": 62,
                    "time": 127.95788400000009,
                    "velocity": 0.2283464566929134,
                    "duration": 0.1130369999999914
                },
                {
                    "name": "B3",
                    "midi": 59,
                    "time": 127.95788400000009,
                    "velocity": 0.1889763779527559,
                    "duration": 0.1130369999999914
                },
                {
                    "name": "E3",
                    "midi": 52,
                    "time": 128.18395800000008,
                    "velocity": 0.3464566929133858,
                    "duration": 0.452147999999994
                },
                {
                    "name": "B3",
                    "midi": 59,
                    "time": 128.63610600000007,
                    "velocity": 0.1889763779527559,
                    "duration": 0.1130369999999914
                },
                {
                    "name": "D4",
                    "midi": 62,
                    "time": 128.63610600000007,
                    "velocity": 0.2283464566929134,
                    "duration": 0.1130369999999914
                },
                {
                    "name": "E3",
                    "midi": 52,
                    "time": 128.86218000000005,
                    "velocity": 0.3464566929133858,
                    "duration": 0.452147999999994
                },
                {
                    "name": "D4",
                    "midi": 62,
                    "time": 129.31432800000005,
                    "velocity": 0.2283464566929134,
                    "duration": 0.1130369999999914
                },
                {
                    "name": "B3",
                    "midi": 59,
                    "time": 129.31432800000005,
                    "velocity": 0.1889763779527559,
                    "duration": 0.1130369999999914
                },
                {
                    "name": "E3",
                    "midi": 52,
                    "time": 129.54040200000003,
                    "velocity": 0.2047244094488189,
                    "duration": 0.05651850000000991
                },
                {
                    "name": "A3",
                    "midi": 57,
                    "time": 129.54040200000003,
                    "velocity": 0.2047244094488189,
                    "duration": 0.05651850000000991
                },
                {
                    "name": "C#4",
                    "midi": 61,
                    "time": 129.54040200000003,
                    "velocity": 0.2440944881889764,
                    "duration": 0.05651850000000991
                },
                {
                    "name": "E3",
                    "midi": 52,
                    "time": 129.76647600000004,
                    "velocity": 0.1889763779527559,
                    "duration": 0.05651850000000991
                },
                {
                    "name": "A3",
                    "midi": 57,
                    "time": 129.76647600000004,
                    "velocity": 0.1889763779527559,
                    "duration": 0.05651850000000991
                },
                {
                    "name": "C#4",
                    "midi": 61,
                    "time": 129.76647600000004,
                    "velocity": 0.2283464566929134,
                    "duration": 0.05651850000000991
                },
                {
                    "name": "E3",
                    "midi": 52,
                    "time": 129.99255000000005,
                    "velocity": 0.1889763779527559,
                    "duration": 0.05651850000000991
                },
                {
                    "name": "B3",
                    "midi": 59,
                    "time": 129.99255000000005,
                    "velocity": 0.2283464566929134,
                    "duration": 0.05651850000000991
                },
                {
                    "name": "G#3",
                    "midi": 56,
                    "time": 129.99255000000005,
                    "velocity": 0.1889763779527559,
                    "duration": 0.05651850000000991
                },
                {
                    "name": "E3",
                    "midi": 52,
                    "time": 130.21862400000006,
                    "velocity": 0.3464566929133858,
                    "duration": 0.452147999999994
                },
                {
                    "name": "C#4",
                    "midi": 61,
                    "time": 130.67077200000006,
                    "velocity": 0.1889763779527559,
                    "duration": 0.1130369999999914
                },
                {
                    "name": "E4",
                    "midi": 64,
                    "time": 130.67077200000006,
                    "velocity": 0.2283464566929134,
                    "duration": 0.1130369999999914
                },
                {
                    "name": "E3",
                    "midi": 52,
                    "time": 130.89684600000004,
                    "velocity": 0.3464566929133858,
                    "duration": 0.452147999999994
                },
                {
                    "name": "C#4",
                    "midi": 61,
                    "time": 131.34899400000003,
                    "velocity": 0.1889763779527559,
                    "duration": 0.1130369999999914
                },
                {
                    "name": "E4",
                    "midi": 64,
                    "time": 131.34899400000003,
                    "velocity": 0.2283464566929134,
                    "duration": 0.1130369999999914
                },
                {
                    "name": "E3",
                    "midi": 52,
                    "time": 131.57506800000002,
                    "velocity": 0.3464566929133858,
                    "duration": 0.452147999999994
                },
                {
                    "name": "E4",
                    "midi": 64,
                    "time": 132.027216,
                    "velocity": 0.2283464566929134,
                    "duration": 0.1130369999999914
                },
                {
                    "name": "C#4",
                    "midi": 61,
                    "time": 132.027216,
                    "velocity": 0.1889763779527559,
                    "duration": 0.1130369999999914
                },
                {
                    "name": "D4",
                    "midi": 62,
                    "time": 132.25329,
                    "velocity": 0.29133858267716534,
                    "duration": 0.05651850000000991
                },
                {
                    "name": "B3",
                    "midi": 59,
                    "time": 132.25329,
                    "velocity": 0.23622047244094488,
                    "duration": 0.05651850000000991
                },
                {
                    "name": "E3",
                    "midi": 52,
                    "time": 132.25329,
                    "velocity": 0.23622047244094488,
                    "duration": 0.05651850000000991
                },
                {
                    "name": "E3",
                    "midi": 52,
                    "time": 132.479364,
                    "velocity": 0.2204724409448819,
                    "duration": 0.05651850000000991
                },
                {
                    "name": "D4",
                    "midi": 62,
                    "time": 132.479364,
                    "velocity": 0.2677165354330709,
                    "duration": 0.05651850000000991
                },
                {
                    "name": "B3",
                    "midi": 59,
                    "time": 132.479364,
                    "velocity": 0.2204724409448819,
                    "duration": 0.05651850000000991
                },
                {
                    "name": "A3",
                    "midi": 57,
                    "time": 132.70543800000002,
                    "velocity": 0.2204724409448819,
                    "duration": 0.05651850000000991
                },
                {
                    "name": "E3",
                    "midi": 52,
                    "time": 132.70543800000002,
                    "velocity": 0.2204724409448819,
                    "duration": 0.05651850000000991
                },
                {
                    "name": "C#4",
                    "midi": 61,
                    "time": 132.70543800000002,
                    "velocity": 0.2677165354330709,
                    "duration": 0.05651850000000991
                },
                {
                    "name": "E3",
                    "midi": 52,
                    "time": 132.93151200000003,
                    "velocity": 0.3464566929133858,
                    "duration": 0.452147999999994
                },
                {
                    "name": "D4",
                    "midi": 62,
                    "time": 133.38366000000002,
                    "velocity": 0.2283464566929134,
                    "duration": 0.1130369999999914
                },
                {
                    "name": "B3",
                    "midi": 59,
                    "time": 133.38366000000002,
                    "velocity": 0.1889763779527559,
                    "duration": 0.1130369999999914
                },
                {
                    "name": "E3",
                    "midi": 52,
                    "time": 133.609734,
                    "velocity": 0.3464566929133858,
                    "duration": 0.452147999999994
                },
                {
                    "name": "D4",
                    "midi": 62,
                    "time": 134.061882,
                    "velocity": 0.2283464566929134,
                    "duration": 0.1130369999999914
                },
                {
                    "name": "B3",
                    "midi": 59,
                    "time": 134.061882,
                    "velocity": 0.1889763779527559,
                    "duration": 0.1130369999999914
                },
                {
                    "name": "E3",
                    "midi": 52,
                    "time": 134.28795599999998,
                    "velocity": 0.3464566929133858,
                    "duration": 0.452147999999994
                },
                {
                    "name": "B3",
                    "midi": 59,
                    "time": 134.74010399999997,
                    "velocity": 0.1889763779527559,
                    "duration": 0.1130369999999914
                },
                {
                    "name": "D4",
                    "midi": 62,
                    "time": 134.74010399999997,
                    "velocity": 0.2283464566929134,
                    "duration": 0.1130369999999914
                },
                {
                    "name": "C#4",
                    "midi": 61,
                    "time": 134.96617799999996,
                    "velocity": 0.29133858267716534,
                    "duration": 0.05651850000000991
                },
                {
                    "name": "E3",
                    "midi": 52,
                    "time": 134.96617799999996,
                    "velocity": 0.23622047244094488,
                    "duration": 0.05651850000000991
                },
                {
                    "name": "A3",
                    "midi": 57,
                    "time": 134.96617799999996,
                    "velocity": 0.23622047244094488,
                    "duration": 0.05651850000000991
                },
                {
                    "name": "A3",
                    "midi": 57,
                    "time": 135.19225199999997,
                    "velocity": 0.2204724409448819,
                    "duration": 0.05651850000000991
                },
                {
                    "name": "C#4",
                    "midi": 61,
                    "time": 135.19225199999997,
                    "velocity": 0.2677165354330709,
                    "duration": 0.05651850000000991
                },
                {
                    "name": "E3",
                    "midi": 52,
                    "time": 135.19225199999997,
                    "velocity": 0.2204724409448819,
                    "duration": 0.05651850000000991
                },
                {
                    "name": "E3",
                    "midi": 52,
                    "time": 135.41832599999998,
                    "velocity": 0.2204724409448819,
                    "duration": 0.05651850000000991
                },
                {
                    "name": "B3",
                    "midi": 59,
                    "time": 135.41832599999998,
                    "velocity": 0.2677165354330709,
                    "duration": 0.05651850000000991
                },
                {
                    "name": "G#3",
                    "midi": 56,
                    "time": 135.41832599999998,
                    "velocity": 0.2204724409448819,
                    "duration": 0.05651850000000991
                },
                {
                    "name": "E3",
                    "midi": 52,
                    "time": 135.6444,
                    "velocity": 0.3779527559055118,
                    "duration": 0.452147999999994
                },
                {
                    "name": "C#4",
                    "midi": 61,
                    "time": 136.09654799999998,
                    "velocity": 0.25984251968503935,
                    "duration": 0.1130369999999914
                },
                {
                    "name": "A3",
                    "midi": 57,
                    "time": 136.09654799999998,
                    "velocity": 0.2125984251968504,
                    "duration": 0.1130369999999914
                },
                {
                    "name": "E3",
                    "midi": 52,
                    "time": 136.32262199999997,
                    "velocity": 0.4015748031496063,
                    "duration": 0.452147999999994
                },
                {
                    "name": "B3",
                    "midi": 59,
                    "time": 136.77476999999996,
                    "velocity": 0.2755905511811024,
                    "duration": 0.1130369999999914
                },
                {
                    "name": "G#3",
                    "midi": 56,
                    "time": 136.77476999999996,
                    "velocity": 0.2283464566929134,
                    "duration": 0.1130369999999914
                },
                {
                    "name": "E3",
                    "midi": 52,
                    "time": 137.00084399999994,
                    "velocity": 0.4330708661417323,
                    "duration": 0.452147999999994
                },
                {
                    "name": "C#4",
                    "midi": 61,
                    "time": 137.45299199999994,
                    "velocity": 0.29133858267716534,
                    "duration": 0.1130369999999914
                },
                {
                    "name": "A3",
                    "midi": 57,
                    "time": 137.45299199999994,
                    "velocity": 0.2440944881889764,
                    "duration": 0.1130369999999914
                },
                {
                    "name": "E3",
                    "midi": 52,
                    "time": 137.67906599999992,
                    "velocity": 0.4566929133858268,
                    "duration": 0.452147999999994
                },
                {
                    "name": "D4",
                    "midi": 62,
                    "time": 138.13121399999991,
                    "velocity": 0.30708661417322836,
                    "duration": 0.1130369999999914
                },
                {
                    "name": "B3",
                    "midi": 59,
                    "time": 138.13121399999991,
                    "velocity": 0.25196850393700787,
                    "duration": 0.1130369999999914
                },
                {
                    "name": "D#4",
                    "midi": 63,
                    "time": 138.3572879999999,
                    "velocity": 0.5275590551181102,
                    "duration": 0.20346660000001293
                },
                {
                    "name": "C4",
                    "midi": 60,
                    "time": 138.3572879999999,
                    "velocity": 0.4409448818897638,
                    "duration": 0.20346660000001293
                },
                {
                    "name": "D#3",
                    "midi": 51,
                    "time": 138.3572879999999,
                    "velocity": 0.4409448818897638,
                    "duration": 0.20346660000001293
                },
                {
                    "name": "G#3",
                    "midi": 56,
                    "time": 138.3572879999999,
                    "velocity": 0.4409448818897638,
                    "duration": 0.20346660000001293
                },
                {
                    "name": "C4",
                    "midi": 60,
                    "time": 138.5833619999999,
                    "velocity": 0.2677165354330709,
                    "duration": 0.20346660000001293
                },
                {
                    "name": "D#4",
                    "midi": 63,
                    "time": 138.5833619999999,
                    "velocity": 0.3228346456692913,
                    "duration": 0.20346660000001293
                },
                {
                    "name": "D#3",
                    "midi": 51,
                    "time": 138.5833619999999,
                    "velocity": 0.2677165354330709,
                    "duration": 0.20346660000001293
                },
                {
                    "name": "G#3",
                    "midi": 56,
                    "time": 138.5833619999999,
                    "velocity": 0.2677165354330709,
                    "duration": 0.20346660000001293
                },
                {
                    "name": "D#4",
                    "midi": 63,
                    "time": 138.80943599999992,
                    "velocity": 0.3228346456692913,
                    "duration": 2.2607399999999984
                },
                {
                    "name": "D#3",
                    "midi": 51,
                    "time": 138.80943599999992,
                    "velocity": 0.2677165354330709,
                    "duration": 2.2607399999999984
                },
                {
                    "name": "C4",
                    "midi": 60,
                    "time": 138.80943599999992,
                    "velocity": 0.2677165354330709,
                    "duration": 0.904295999999988
                },
                {
                    "name": "G#3",
                    "midi": 56,
                    "time": 138.80943599999992,
                    "velocity": 0.2677165354330709,
                    "duration": 0.904295999999988
                },
                {
                    "name": "C#4",
                    "midi": 61,
                    "time": 139.7137319999999,
                    "velocity": 0.3228346456692913,
                    "duration": 1.3564440000000104
                },
                {
                    "name": "A#3",
                    "midi": 58,
                    "time": 139.7137319999999,
                    "velocity": 0.2677165354330709,
                    "duration": 1.3564440000000104
                },
                {
                    "name": "C4",
                    "midi": 60,
                    "time": 141.07017599999992,
                    "velocity": 0.4409448818897638,
                    "duration": 0.20346660000001293
                },
                {
                    "name": "D#4",
                    "midi": 63,
                    "time": 141.07017599999992,
                    "velocity": 0.5275590551181102,
                    "duration": 0.20346660000001293
                },
                {
                    "name": "D#3",
                    "midi": 51,
                    "time": 141.07017599999992,
                    "velocity": 0.4409448818897638,
                    "duration": 0.20346660000001293
                },
                {
                    "name": "G#3",
                    "midi": 56,
                    "time": 141.07017599999992,
                    "velocity": 0.4409448818897638,
                    "duration": 0.20346660000001293
                },
                {
                    "name": "C4",
                    "midi": 60,
                    "time": 141.29624999999993,
                    "velocity": 0.2677165354330709,
                    "duration": 0.20346660000001293
                },
                {
                    "name": "D#4",
                    "midi": 63,
                    "time": 141.29624999999993,
                    "velocity": 0.3228346456692913,
                    "duration": 0.20346660000001293
                },
                {
                    "name": "D#3",
                    "midi": 51,
                    "time": 141.29624999999993,
                    "velocity": 0.2677165354330709,
                    "duration": 0.20346660000001293
                },
                {
                    "name": "G#3",
                    "midi": 56,
                    "time": 141.29624999999993,
                    "velocity": 0.2677165354330709,
                    "duration": 0.20346660000001293
                },
                {
                    "name": "G#3",
                    "midi": 56,
                    "time": 141.52232399999994,
                    "velocity": 0.2677165354330709,
                    "duration": 0.904295999999988
                },
                {
                    "name": "D#4",
                    "midi": 63,
                    "time": 141.52232399999994,
                    "velocity": 0.3228346456692913,
                    "duration": 2.2607399999999984
                },
                {
                    "name": "D#3",
                    "midi": 51,
                    "time": 141.52232399999994,
                    "velocity": 0.2677165354330709,
                    "duration": 2.2607399999999984
                },
                {
                    "name": "C4",
                    "midi": 60,
                    "time": 141.52232399999994,
                    "velocity": 0.2677165354330709,
                    "duration": 0.904295999999988
                },
                {
                    "name": "G3",
                    "midi": 55,
                    "time": 142.42661999999993,
                    "velocity": 0.2677165354330709,
                    "duration": 1.3564440000000104
                },
                {
                    "name": "C#4",
                    "midi": 61,
                    "time": 142.42661999999993,
                    "velocity": 0.3228346456692913,
                    "duration": 1.3564440000000104
                },
                {
                    "name": "D#3",
                    "midi": 51,
                    "time": 143.78306399999994,
                    "velocity": 0.4409448818897638,
                    "duration": 0.20346660000001293
                },
                {
                    "name": "C4",
                    "midi": 60,
                    "time": 143.78306399999994,
                    "velocity": 0.4409448818897638,
                    "duration": 0.20346660000001293
                },
                {
                    "name": "D#4",
                    "midi": 63,
                    "time": 143.78306399999994,
                    "velocity": 0.5275590551181102,
                    "duration": 0.20346660000001293
                },
                {
                    "name": "G#3",
                    "midi": 56,
                    "time": 143.78306399999994,
                    "velocity": 0.4409448818897638,
                    "duration": 0.20346660000001293
                },
                {
                    "name": "C4",
                    "midi": 60,
                    "time": 144.00913799999995,
                    "velocity": 0.2677165354330709,
                    "duration": 0.20346660000001293
                },
                {
                    "name": "D#3",
                    "midi": 51,
                    "time": 144.00913799999995,
                    "velocity": 0.2677165354330709,
                    "duration": 0.20346660000001293
                },
                {
                    "name": "D#4",
                    "midi": 63,
                    "time": 144.00913799999995,
                    "velocity": 0.3228346456692913,
                    "duration": 0.20346660000001293
                },
                {
                    "name": "G#3",
                    "midi": 56,
                    "time": 144.00913799999995,
                    "velocity": 0.2677165354330709,
                    "duration": 0.20346660000001293
                },
                {
                    "name": "D#3",
                    "midi": 51,
                    "time": 144.23521199999996,
                    "velocity": 0.2677165354330709,
                    "duration": 1.808591999999976
                },
                {
                    "name": "D#4",
                    "midi": 63,
                    "time": 144.23521199999996,
                    "velocity": 0.3228346456692913,
                    "duration": 1.808591999999976
                },
                {
                    "name": "G#3",
                    "midi": 56,
                    "time": 144.23521199999996,
                    "velocity": 0.2677165354330709,
                    "duration": 0.904295999999988
                },
                {
                    "name": "C4",
                    "midi": 60,
                    "time": 144.23521199999996,
                    "velocity": 0.2677165354330709,
                    "duration": 0.904295999999988
                },
                {
                    "name": "G3",
                    "midi": 55,
                    "time": 145.13950799999995,
                    "velocity": 0.2677165354330709,
                    "duration": 0.904295999999988
                },
                {
                    "name": "C#4",
                    "midi": 61,
                    "time": 145.13950799999995,
                    "velocity": 0.3228346456692913,
                    "duration": 0.904295999999988
                },
                {
                    "name": "G#2",
                    "midi": 44,
                    "time": 146.72202599999994,
                    "velocity": 0.4409448818897638,
                    "duration": 0.12434070000000474
                },
                {
                    "name": "C3",
                    "midi": 48,
                    "time": 146.83506299999993,
                    "velocity": 0.3858267716535433,
                    "duration": 0.12434070000003317
                },
                {
                    "name": "D#3",
                    "midi": 51,
                    "time": 146.94809999999995,
                    "velocity": 0.4409448818897638,
                    "duration": 0.12434070000003317
                },
                {
                    "name": "C#3",
                    "midi": 49,
                    "time": 147.06113699999997,
                    "velocity": 0.4251968503937008,
                    "duration": 0.12434070000003317
                },
                {
                    "name": "C3",
                    "midi": 48,
                    "time": 147.174174,
                    "velocity": 0.4251968503937008,
                    "duration": 0.12434070000003317
                },
                {
                    "name": "A#2",
                    "midi": 46,
                    "time": 147.287211,
                    "velocity": 0.41732283464566927,
                    "duration": 0.12434070000003317
                },
                {
                    "name": "G#2",
                    "midi": 44,
                    "time": 147.40024800000003,
                    "velocity": 0.4094488188976378,
                    "duration": 0.12434070000003317
                },
                {
                    "name": "G2",
                    "midi": 43,
                    "time": 147.51328500000005,
                    "velocity": 0.4094488188976378,
                    "duration": 0.12434070000003317
                },
                {
                    "name": "F2",
                    "midi": 41,
                    "time": 147.62632200000007,
                    "velocity": 0.4015748031496063,
                    "duration": 0.12434070000003317
                },
                {
                    "name": "D#2",
                    "midi": 39,
                    "time": 147.7393590000001,
                    "velocity": 0.3937007874015748,
                    "duration": 0.12434070000003317
                },
                {
                    "name": "C#2",
                    "midi": 37,
                    "time": 147.8523960000001,
                    "velocity": 0.3858267716535433,
                    "duration": 0.12434070000003317
                },
                {
                    "name": "C2",
                    "midi": 36,
                    "time": 147.96543300000013,
                    "velocity": 0.3779527559055118,
                    "duration": 0.12434070000003317
                },
                {
                    "name": "A#1",
                    "midi": 34,
                    "time": 148.07847000000015,
                    "velocity": 0.3779527559055118,
                    "duration": 0.12434070000003317
                },
                {
                    "name": "G#1",
                    "midi": 32,
                    "time": 148.19150700000017,
                    "velocity": 0.3700787401574803,
                    "duration": 0.12434070000003317
                },
                {
                    "name": "G1",
                    "midi": 31,
                    "time": 148.3045440000002,
                    "velocity": 0.36220472440944884,
                    "duration": 0.12434070000003317
                },
                {
                    "name": "G#1",
                    "midi": 32,
                    "time": 148.4175810000002,
                    "velocity": 0.3543307086614173,
                    "duration": 0.12434070000003317
                },
                {
                    "name": "A#1",
                    "midi": 34,
                    "time": 148.53061800000023,
                    "velocity": 0.3464566929133858,
                    "duration": 0.12434070000003317
                },
                {
                    "name": "C2",
                    "midi": 36,
                    "time": 148.64365500000025,
                    "velocity": 0.36220472440944884,
                    "duration": 0.12434070000003317
                },
                {
                    "name": "C#2",
                    "midi": 37,
                    "time": 148.75669200000027,
                    "velocity": 0.3700787401574803,
                    "duration": 0.12434070000003317
                },
                {
                    "name": "D#2",
                    "midi": 39,
                    "time": 148.8697290000003,
                    "velocity": 0.3779527559055118,
                    "duration": 0.12434070000003317
                },
                {
                    "name": "F2",
                    "midi": 41,
                    "time": 148.9827660000003,
                    "velocity": 0.3779527559055118,
                    "duration": 0.12434070000003317
                },
                {
                    "name": "G2",
                    "midi": 43,
                    "time": 149.09580300000033,
                    "velocity": 0.3858267716535433,
                    "duration": 0.12434070000003317
                },
                {
                    "name": "G#2",
                    "midi": 44,
                    "time": 149.20884000000035,
                    "velocity": 0.3937007874015748,
                    "duration": 0.12434070000003317
                },
                {
                    "name": "A#2",
                    "midi": 46,
                    "time": 149.32187700000037,
                    "velocity": 0.4015748031496063,
                    "duration": 0.12434070000003317
                },
                {
                    "name": "C3",
                    "midi": 48,
                    "time": 149.4349140000004,
                    "velocity": 0.4094488188976378,
                    "duration": 0.12434070000003317
                },
                {
                    "name": "C#3",
                    "midi": 49,
                    "time": 149.5479510000004,
                    "velocity": 0.4094488188976378,
                    "duration": 0.12434070000003317
                },
                {
                    "name": "D#3",
                    "midi": 51,
                    "time": 149.66098800000043,
                    "velocity": 0.41732283464566927,
                    "duration": 0.12434070000003317
                },
                {
                    "name": "F3",
                    "midi": 53,
                    "time": 149.77402500000045,
                    "velocity": 0.4251968503937008,
                    "duration": 0.12434070000003317
                },
                {
                    "name": "G3",
                    "midi": 55,
                    "time": 149.88706200000047,
                    "velocity": 0.4409448818897638,
                    "duration": 0.12434070000003317
                },
                {
                    "name": "G#3",
                    "midi": 56,
                    "time": 150.0000990000005,
                    "velocity": 0.4409448818897638,
                    "duration": 0.12434070000003317
                },
                {
                    "name": "A#3",
                    "midi": 58,
                    "time": 150.1131360000005,
                    "velocity": 0.4566929133858268,
                    "duration": 0.12434070000003317
                },
                {
                    "name": "C4",
                    "midi": 60,
                    "time": 150.22617300000053,
                    "velocity": 0.4645669291338583,
                    "duration": 0.12434070000003317
                },
                {
                    "name": "C#4",
                    "midi": 61,
                    "time": 150.33921000000055,
                    "velocity": 0.47244094488188976,
                    "duration": 0.12434070000003317
                },
                {
                    "name": "D#4",
                    "midi": 63,
                    "time": 150.45224700000057,
                    "velocity": 0.4881889763779528,
                    "duration": 0.12434070000003317
                },
                {
                    "name": "F4",
                    "midi": 65,
                    "time": 150.5652840000006,
                    "velocity": 0.49606299212598426,
                    "duration": 0.12434070000003317
                },
                {
                    "name": "D#4",
                    "midi": 63,
                    "time": 150.6783210000006,
                    "velocity": 0.49606299212598426,
                    "duration": 0.12434070000003317
                },
                {
                    "name": "C#4",
                    "midi": 61,
                    "time": 150.79135800000063,
                    "velocity": 0.48031496062992124,
                    "duration": 0.12434070000003317
                },
                {
                    "name": "C4",
                    "midi": 60,
                    "time": 150.90439500000065,
                    "velocity": 0.47244094488188976,
                    "duration": 0.12434070000003317
                },
                {
                    "name": "A#3",
                    "midi": 58,
                    "time": 151.01743200000067,
                    "velocity": 0.4566929133858268,
                    "duration": 0.12434070000003317
                },
                {
                    "name": "G#3",
                    "midi": 56,
                    "time": 151.1304690000007,
                    "velocity": 0.4409448818897638,
                    "duration": 0.12434070000003317
                },
                {
                    "name": "G3",
                    "midi": 55,
                    "time": 151.2435060000007,
                    "velocity": 0.4330708661417323,
                    "duration": 0.12434070000003317
                },
                {
                    "name": "F3",
                    "midi": 53,
                    "time": 151.35654300000073,
                    "velocity": 0.41732283464566927,
                    "duration": 0.12434070000003317
                },
                {
                    "name": "D#3",
                    "midi": 51,
                    "time": 151.46958000000075,
                    "velocity": 0.4094488188976378,
                    "duration": 0.12434070000003317
                },
                {
                    "name": "C#3",
                    "midi": 49,
                    "time": 151.58261700000077,
                    "velocity": 0.3937007874015748,
                    "duration": 0.12434070000003317
                },
                {
                    "name": "C3",
                    "midi": 48,
                    "time": 151.6956540000008,
                    "velocity": 0.3779527559055118,
                    "duration": 0.12434070000003317
                },
                {
                    "name": "A#2",
                    "midi": 46,
                    "time": 151.8086910000008,
                    "velocity": 0.3700787401574803,
                    "duration": 0.12434070000003317
                },
                {
                    "name": "G#2",
                    "midi": 44,
                    "time": 151.92172800000083,
                    "velocity": 0.3858267716535433,
                    "duration": 0.2260740000000112
                },
                {
                    "name": "G#3",
                    "midi": 56,
                    "time": 152.14780200000084,
                    "velocity": 0.30708661417322836,
                    "duration": 0.12434070000000474
                },
                {
                    "name": "C4",
                    "midi": 60,
                    "time": 152.26083900000083,
                    "velocity": 0.2677165354330709,
                    "duration": 0.12434070000003317
                },
                {
                    "name": "D#4",
                    "midi": 63,
                    "time": 152.37387600000085,
                    "velocity": 0.30708661417322836,
                    "duration": 0.12434070000003317
                },
                {
                    "name": "C#4",
                    "midi": 61,
                    "time": 152.48691300000087,
                    "velocity": 0.29133858267716534,
                    "duration": 0.12434070000003317
                },
                {
                    "name": "C4",
                    "midi": 60,
                    "time": 152.5999500000009,
                    "velocity": 0.29133858267716534,
                    "duration": 0.12434070000003317
                },
                {
                    "name": "A#3",
                    "midi": 58,
                    "time": 152.7129870000009,
                    "velocity": 0.29133858267716534,
                    "duration": 0.12434070000003317
                },
                {
                    "name": "G#3",
                    "midi": 56,
                    "time": 152.82602400000093,
                    "velocity": 0.28346456692913385,
                    "duration": 0.12434070000003317
                },
                {
                    "name": "G3",
                    "midi": 55,
                    "time": 152.93906100000095,
                    "velocity": 0.28346456692913385,
                    "duration": 0.12434070000003317
                },
                {
                    "name": "F3",
                    "midi": 53,
                    "time": 153.05209800000097,
                    "velocity": 0.2755905511811024,
                    "duration": 0.12434070000003317
                },
                {
                    "name": "D#3",
                    "midi": 51,
                    "time": 153.165135000001,
                    "velocity": 0.2755905511811024,
                    "duration": 0.12434070000003317
                },
                {
                    "name": "C#3",
                    "midi": 49,
                    "time": 153.278172000001,
                    "velocity": 0.2677165354330709,
                    "duration": 0.12434070000003317
                },
                {
                    "name": "C3",
                    "midi": 48,
                    "time": 153.39120900000103,
                    "velocity": 0.25984251968503935,
                    "duration": 0.12434070000003317
                },
                {
                    "name": "A#2",
                    "midi": 46,
                    "time": 153.50424600000105,
                    "velocity": 0.25984251968503935,
                    "duration": 0.12434070000003317
                },
                {
                    "name": "G#2",
                    "midi": 44,
                    "time": 153.61728300000107,
                    "velocity": 0.25196850393700787,
                    "duration": 0.12434070000003317
                },
                {
                    "name": "G2",
                    "midi": 43,
                    "time": 153.7303200000011,
                    "velocity": 0.25196850393700787,
                    "duration": 0.12434070000003317
                },
                {
                    "name": "G#2",
                    "midi": 44,
                    "time": 153.8433570000011,
                    "velocity": 0.2440944881889764,
                    "duration": 0.12434070000003317
                },
                {
                    "name": "A#2",
                    "midi": 46,
                    "time": 153.95639400000113,
                    "velocity": 0.23622047244094488,
                    "duration": 0.12434070000003317
                },
                {
                    "name": "C3",
                    "midi": 48,
                    "time": 154.06943100000115,
                    "velocity": 0.25196850393700787,
                    "duration": 0.12434070000003317
                },
                {
                    "name": "C#3",
                    "midi": 49,
                    "time": 154.18246800000117,
                    "velocity": 0.25196850393700787,
                    "duration": 0.12434070000003317
                },
                {
                    "name": "D#3",
                    "midi": 51,
                    "time": 154.29550500000119,
                    "velocity": 0.25984251968503935,
                    "duration": 0.12434070000003317
                },
                {
                    "name": "F3",
                    "midi": 53,
                    "time": 154.4085420000012,
                    "velocity": 0.25984251968503935,
                    "duration": 0.12434070000003317
                },
                {
                    "name": "G3",
                    "midi": 55,
                    "time": 154.52157900000122,
                    "velocity": 0.2677165354330709,
                    "duration": 0.12434070000003317
                },
                {
                    "name": "G#3",
                    "midi": 56,
                    "time": 154.63461600000124,
                    "velocity": 0.2755905511811024,
                    "duration": 0.12434070000003317
                },
                {
                    "name": "A#3",
                    "midi": 58,
                    "time": 154.74765300000126,
                    "velocity": 0.2755905511811024,
                    "duration": 0.12434070000003317
                },
                {
                    "name": "C4",
                    "midi": 60,
                    "time": 154.86069000000128,
                    "velocity": 0.28346456692913385,
                    "duration": 0.12434070000003317
                },
                {
                    "name": "C#4",
                    "midi": 61,
                    "time": 154.9737270000013,
                    "velocity": 0.28346456692913385,
                    "duration": 0.12434070000003317
                },
                {
                    "name": "D#4",
                    "midi": 63,
                    "time": 155.08676400000132,
                    "velocity": 0.29133858267716534,
                    "duration": 0.12434070000003317
                },
                {
                    "name": "F4",
                    "midi": 65,
                    "time": 155.19980100000134,
                    "velocity": 0.29133858267716534,
                    "duration": 0.12434070000003317
                },
                {
                    "name": "G4",
                    "midi": 67,
                    "time": 155.31283800000136,
                    "velocity": 0.30708661417322836,
                    "duration": 0.12434070000003317
                },
                {
                    "name": "G#4",
                    "midi": 68,
                    "time": 155.42587500000138,
                    "velocity": 0.30708661417322836,
                    "duration": 0.12434070000003317
                },
                {
                    "name": "A#4",
                    "midi": 70,
                    "time": 155.5389120000014,
                    "velocity": 0.31496062992125984,
                    "duration": 0.12434070000003317
                },
                {
                    "name": "C5",
                    "midi": 72,
                    "time": 155.65194900000142,
                    "velocity": 0.3228346456692913,
                    "duration": 0.12434070000003317
                },
                {
                    "name": "C#5",
                    "midi": 73,
                    "time": 155.76498600000144,
                    "velocity": 0.33070866141732286,
                    "duration": 0.12434070000003317
                },
                {
                    "name": "D#5",
                    "midi": 75,
                    "time": 155.87802300000146,
                    "velocity": 0.33858267716535434,
                    "duration": 0.12434070000003317
                },
                {
                    "name": "F5",
                    "midi": 77,
                    "time": 155.99106000000148,
                    "velocity": 0.3464566929133858,
                    "duration": 0.12434070000003317
                },
                {
                    "name": "D#5",
                    "midi": 75,
                    "time": 156.1040970000015,
                    "velocity": 0.3464566929133858,
                    "duration": 0.12434070000003317
                },
                {
                    "name": "C#5",
                    "midi": 73,
                    "time": 156.21713400000152,
                    "velocity": 0.33070866141732286,
                    "duration": 0.12434070000003317
                },
                {
                    "name": "C5",
                    "midi": 72,
                    "time": 156.33017100000154,
                    "velocity": 0.33070866141732286,
                    "duration": 0.12434070000003317
                },
                {
                    "name": "A#4",
                    "midi": 70,
                    "time": 156.44320800000156,
                    "velocity": 0.31496062992125984,
                    "duration": 0.12434070000003317
                },
                {
                    "name": "G#4",
                    "midi": 68,
                    "time": 156.55624500000158,
                    "velocity": 0.30708661417322836,
                    "duration": 0.12434070000003317
                },
                {
                    "name": "G4",
                    "midi": 67,
                    "time": 156.6692820000016,
                    "velocity": 0.2992125984251969,
                    "duration": 0.12434070000003317
                },
                {
                    "name": "F4",
                    "midi": 65,
                    "time": 156.78231900000162,
                    "velocity": 0.29133858267716534,
                    "duration": 0.12434070000003317
                },
                {
                    "name": "D#4",
                    "midi": 63,
                    "time": 156.89535600000164,
                    "velocity": 0.28346456692913385,
                    "duration": 0.12434070000003317
                },
                {
                    "name": "C#4",
                    "midi": 61,
                    "time": 157.00839300000166,
                    "velocity": 0.2755905511811024,
                    "duration": 0.12434070000003317
                },
                {
                    "name": "C4",
                    "midi": 60,
                    "time": 157.12143000000168,
                    "velocity": 0.25984251968503935,
                    "duration": 0.12434070000003317
                },
                {
                    "name": "A#3",
                    "midi": 58,
                    "time": 157.2344670000017,
                    "velocity": 0.25196850393700787,
                    "duration": 0.12434070000003317
                },
                {
                    "name": "G#3",
                    "midi": 56,
                    "time": 157.34750400000172,
                    "velocity": 0.2677165354330709,
                    "duration": 0.2260740000000112
                },
                {
                    "name": "G#3",
                    "midi": 56,
                    "time": 157.57357800000173,
                    "velocity": 0.4409448818897638,
                    "duration": 0.12434070000000474
                },
                {
                    "name": "B3",
                    "midi": 59,
                    "time": 157.68661500000172,
                    "velocity": 0.3858267716535433,
                    "duration": 0.12434070000003317
                },
                {
                    "name": "D#4",
                    "midi": 63,
                    "time": 157.79965200000174,
                    "velocity": 0.4409448818897638,
                    "duration": 0.12434070000003317
                },
                {
                    "name": "C#4",
                    "midi": 61,
                    "time": 157.91268900000176,
                    "velocity": 0.4251968503937008,
                    "duration": 0.12434070000003317
                },
                {
                    "name": "B3",
                    "midi": 59,
                    "time": 158.02572600000178,
                    "velocity": 0.4251968503937008,
                    "duration": 0.12434070000003317
                },
                {
                    "name": "A#3",
                    "midi": 58,
                    "time": 158.1387630000018,
                    "velocity": 0.41732283464566927,
                    "duration": 0.12434070000003317
                },
                {
                    "name": "G#3",
                    "midi": 56,
                    "time": 158.25180000000182,
                    "velocity": 0.4094488188976378,
                    "duration": 0.12434070000003317
                },
                {
                    "name": "F#3",
                    "midi": 54,
                    "time": 158.36483700000184,
                    "velocity": 0.4094488188976378,
                    "duration": 0.12434070000003317
                },
                {
                    "name": "E3",
                    "midi": 52,
                    "time": 158.47787400000186,
                    "velocity": 0.4015748031496063,
                    "duration": 0.12434070000003317
                },
                {
                    "name": "D#3",
                    "midi": 51,
                    "time": 158.59091100000188,
                    "velocity": 0.3937007874015748,
                    "duration": 0.12434070000003317
                },
                {
                    "name": "C#3",
                    "midi": 49,
                    "time": 158.7039480000019,
                    "velocity": 0.3858267716535433,
                    "duration": 0.12434070000003317
                },
                {
                    "name": "B2",
                    "midi": 47,
                    "time": 158.81698500000192,
                    "velocity": 0.3779527559055118,
                    "duration": 0.12434070000003317
                },
                {
                    "name": "A#2",
                    "midi": 46,
                    "time": 158.93002200000194,
                    "velocity": 0.3779527559055118,
                    "duration": 0.12434070000003317
                },
                {
                    "name": "G#2",
                    "midi": 44,
                    "time": 159.04305900000196,
                    "velocity": 0.3700787401574803,
                    "duration": 0.12434070000003317
                },
                {
                    "name": "G2",
                    "midi": 43,
                    "time": 159.15609600000198,
                    "velocity": 0.36220472440944884,
                    "duration": 0.12434070000003317
                },
                {
                    "name": "G#2",
                    "midi": 44,
                    "time": 159.269133000002,
                    "velocity": 0.3543307086614173,
                    "duration": 0.12434070000003317
                },
                {
                    "name": "A#2",
                    "midi": 46,
                    "time": 159.38217000000202,
                    "velocity": 0.3464566929133858,
                    "duration": 0.12434070000003317
                },
                {
                    "name": "B2",
                    "midi": 47,
                    "time": 159.49520700000204,
                    "velocity": 0.36220472440944884,
                    "duration": 0.12434070000003317
                },
                {
                    "name": "C#3",
                    "midi": 49,
                    "time": 159.60824400000206,
                    "velocity": 0.3700787401574803,
                    "duration": 0.12434070000003317
                },
                {
                    "name": "D#3",
                    "midi": 51,
                    "time": 159.72128100000208,
                    "velocity": 0.3779527559055118,
                    "duration": 0.12434070000003317
                },
                {
                    "name": "F3",
                    "midi": 53,
                    "time": 159.8343180000021,
                    "velocity": 0.3779527559055118,
                    "duration": 0.12434070000003317
                },
                {
                    "name": "G3",
                    "midi": 55,
                    "time": 159.94735500000212,
                    "velocity": 0.3858267716535433,
                    "duration": 0.12434070000003317
                },
                {
                    "name": "G#3",
                    "midi": 56,
                    "time": 160.06039200000214,
                    "velocity": 0.3937007874015748,
                    "duration": 0.12434070000003317
                },
                {
                    "name": "A#3",
                    "midi": 58,
                    "time": 160.17342900000216,
                    "velocity": 0.4330708661417323,
                    "duration": 0.12434070000003317
                },
                {
                    "name": "B3",
                    "midi": 59,
                    "time": 160.28646600000218,
                    "velocity": 0.4409448818897638,
                    "duration": 0.12434070000003317
                },
                {
                    "name": "C#4",
                    "midi": 61,
                    "time": 160.3995030000022,
                    "velocity": 0.44881889763779526,
                    "duration": 0.12434070000003317
                },
                {
                    "name": "D#4",
                    "midi": 63,
                    "time": 160.51254000000222,
                    "velocity": 0.4645669291338583,
                    "duration": 0.12434070000003317
                },
                {
                    "name": "F4",
                    "midi": 65,
                    "time": 160.62557700000224,
                    "velocity": 0.47244094488188976,
                    "duration": 0.12434070000003317
                },
                {
                    "name": "G4",
                    "midi": 67,
                    "time": 160.73861400000226,
                    "velocity": 0.4881889763779528,
                    "duration": 0.12434070000003317
                },
                {
                    "name": "G#4",
                    "midi": 68,
                    "time": 160.85165100000228,
                    "velocity": 0.47244094488188976,
                    "duration": 0.12434070000003317
                },
                {
                    "name": "A#4",
                    "midi": 70,
                    "time": 160.9646880000023,
                    "velocity": 0.49606299212598426,
                    "duration": 0.12434070000003317
                },
                {
                    "name": "B4",
                    "midi": 71,
                    "time": 161.07772500000232,
                    "velocity": 0.5118110236220472,
                    "duration": 0.12434070000003317
                },
                {
                    "name": "C#5",
                    "midi": 73,
                    "time": 161.19076200000234,
                    "velocity": 0.5354330708661418,
                    "duration": 0.12434070000003317
                },
                {
                    "name": "D#5",
                    "midi": 75,
                    "time": 161.30379900000236,
                    "velocity": 0.5590551181102362,
                    "duration": 0.12434070000003317
                },
                {
                    "name": "E5",
                    "midi": 76,
                    "time": 161.41683600000238,
                    "velocity": 0.5748031496062992,
                    "duration": 0.12434070000003317
                },
                {
                    "name": "D5",
                    "midi": 74,
                    "time": 161.5298730000024,
                    "velocity": 0.5826771653543307,
                    "duration": 0.12434070000003317
                },
                {
                    "name": "C#5",
                    "midi": 73,
                    "time": 161.64291000000242,
                    "velocity": 0.5748031496062992,
                    "duration": 0.12434070000003317
                },
                {
                    "name": "B4",
                    "midi": 71,
                    "time": 161.75594700000244,
                    "velocity": 0.5669291338582677,
                    "duration": 0.12434070000003317
                },
                {
                    "name": "A4",
                    "midi": 69,
                    "time": 161.86898400000246,
                    "velocity": 0.5511811023622047,
                    "duration": 0.12434070000003317
                },
                {
                    "name": "G#4",
                    "midi": 68,
                    "time": 161.98202100000248,
                    "velocity": 0.5433070866141733,
                    "duration": 0.12434070000003317
                },
                {
                    "name": "F#4",
                    "midi": 66,
                    "time": 162.0950580000025,
                    "velocity": 0.5354330708661418,
                    "duration": 0.12434070000003317
                },
                {
                    "name": "E4",
                    "midi": 64,
                    "time": 162.20809500000252,
                    "velocity": 0.5196850393700787,
                    "duration": 0.12434070000003317
                },
                {
                    "name": "D4",
                    "midi": 62,
                    "time": 162.32113200000254,
                    "velocity": 0.5118110236220472,
                    "duration": 0.12434070000003317
                },
                {
                    "name": "C#4",
                    "midi": 61,
                    "time": 162.43416900000256,
                    "velocity": 0.5039370078740157,
                    "duration": 0.12434070000003317
                },
                {
                    "name": "B3",
                    "midi": 59,
                    "time": 162.54720600000257,
                    "velocity": 0.4881889763779528,
                    "duration": 0.12434070000003317
                },
                {
                    "name": "A3",
                    "midi": 57,
                    "time": 162.6602430000026,
                    "velocity": 0.48031496062992124,
                    "duration": 0.12434070000003317
                },
                {
                    "name": "G#3",
                    "midi": 56,
                    "time": 162.77328000000261,
                    "velocity": 0.47244094488188976,
                    "duration": 0.12434070000003317
                },
                {
                    "name": "F#3",
                    "midi": 54,
                    "time": 162.88631700000263,
                    "velocity": 0.4566929133858268,
                    "duration": 0.12434070000003317
                },
                {
                    "name": "E3",
                    "midi": 52,
                    "time": 162.99935400000265,
                    "velocity": 0.44881889763779526,
                    "duration": 0.12434070000003317
                },
                {
                    "name": "D3",
                    "midi": 50,
                    "time": 163.11239100000267,
                    "velocity": 0.4409448818897638,
                    "duration": 0.12434070000003317
                },
                {
                    "name": "C#3",
                    "midi": 49,
                    "time": 163.2254280000027,
                    "velocity": 0.4251968503937008,
                    "duration": 0.12434070000003317
                },
                {
                    "name": "B2",
                    "midi": 47,
                    "time": 163.3384650000027,
                    "velocity": 0.41732283464566927,
                    "duration": 0.12434070000003317
                },
                {
                    "name": "A2",
                    "midi": 45,
                    "time": 163.45150200000273,
                    "velocity": 0.4566929133858268,
                    "duration": 0.12434070000003317
                },
                {
                    "name": "G#2",
                    "midi": 44,
                    "time": 163.56453900000275,
                    "velocity": 0.47244094488188976,
                    "duration": 0.12434070000003317
                },
                {
                    "name": "F#2",
                    "midi": 42,
                    "time": 163.67757600000277,
                    "velocity": 0.4881889763779528,
                    "duration": 0.12434070000003317
                },
                {
                    "name": "E2",
                    "midi": 40,
                    "time": 163.7906130000028,
                    "velocity": 0.5039370078740157,
                    "duration": 0.12434070000003317
                },
                {
                    "name": "D2",
                    "midi": 38,
                    "time": 163.9036500000028,
                    "velocity": 0.5196850393700787,
                    "duration": 0.08383577500001138
                },
                {
                    "name": "C#2",
                    "midi": 37,
                    "time": 163.97994997500282,
                    "velocity": 0.5275590551181102,
                    "duration": 0.08289379999999369
                },
                {
                    "name": "B1",
                    "midi": 35,
                    "time": 164.05436600000283,
                    "velocity": 0.5354330708661418,
                    "duration": 0.07535799999999426
                },
                {
                    "name": "A1",
                    "midi": 33,
                    "time": 164.12972400000282,
                    "velocity": 0.5196850393700787,
                    "duration": 0.6782220000000052
                },
                {
                    "name": "A1",
                    "midi": 33,
                    "time": 164.80794600000283,
                    "velocity": 0.4409448818897638,
                    "duration": 0.6782220000000052
                },
                {
                    "name": "A2",
                    "midi": 45,
                    "time": 164.80794600000283,
                    "velocity": 0.5196850393700787,
                    "duration": 0.6782220000000052
                },
                {
                    "name": "A2",
                    "midi": 45,
                    "time": 165.48616800000283,
                    "velocity": 0.4881889763779528,
                    "duration": 0.6782220000000052
                },
                {
                    "name": "A1",
                    "midi": 33,
                    "time": 165.48616800000283,
                    "velocity": 0.4094488188976378,
                    "duration": 0.6782220000000052
                },
                {
                    "name": "A2",
                    "midi": 45,
                    "time": 166.16439000000284,
                    "velocity": 0.4881889763779528,
                    "duration": 0.6782220000000052
                },
                {
                    "name": "A1",
                    "midi": 33,
                    "time": 166.16439000000284,
                    "velocity": 0.4094488188976378,
                    "duration": 0.6782220000000052
                },
                {
                    "name": "A1",
                    "midi": 33,
                    "time": 166.84261200000284,
                    "velocity": 0.4251968503937008,
                    "duration": 0.6782220000000052
                },
                {
                    "name": "A2",
                    "midi": 45,
                    "time": 166.84261200000284,
                    "velocity": 0.5039370078740157,
                    "duration": 0.6782220000000052
                },
                {
                    "name": "C#3",
                    "midi": 49,
                    "time": 167.52083400000285,
                    "velocity": 0.4251968503937008,
                    "duration": 0.6782220000000052
                },
                {
                    "name": "E3",
                    "midi": 52,
                    "time": 167.52083400000285,
                    "velocity": 0.5039370078740157,
                    "duration": 0.6782220000000052
                },
                {
                    "name": "A2",
                    "midi": 45,
                    "time": 167.52083400000285,
                    "velocity": 0.4251968503937008,
                    "duration": 0.6782220000000052
                },
                {
                    "name": "A3",
                    "midi": 57,
                    "time": 168.19905600000286,
                    "velocity": 0.5039370078740157,
                    "duration": 0.6782220000000052
                },
                {
                    "name": "E3",
                    "midi": 52,
                    "time": 168.19905600000286,
                    "velocity": 0.4251968503937008,
                    "duration": 0.6782220000000052
                },
                {
                    "name": "C#3",
                    "midi": 49,
                    "time": 168.19905600000286,
                    "velocity": 0.4251968503937008,
                    "duration": 0.6782220000000052
                },
                {
                    "name": "A2",
                    "midi": 45,
                    "time": 168.19905600000286,
                    "velocity": 0.4251968503937008,
                    "duration": 0.6782220000000052
                },
                {
                    "name": "E3",
                    "midi": 52,
                    "time": 168.87727800000286,
                    "velocity": 0.33858267716535434,
                    "duration": 0.6782220000000052
                },
                {
                    "name": "G#3",
                    "midi": 56,
                    "time": 168.87727800000286,
                    "velocity": 0.33858267716535434,
                    "duration": 0.6782220000000052
                },
                {
                    "name": "B3",
                    "midi": 59,
                    "time": 168.87727800000286,
                    "velocity": 0.4015748031496063,
                    "duration": 0.6782220000000052
                },
                {
                    "name": "D#3",
                    "midi": 51,
                    "time": 169.55550000000287,
                    "velocity": 0.33858267716535434,
                    "duration": 0.6782219999999768
                },
                {
                    "name": "G#3",
                    "midi": 56,
                    "time": 170.00764800000286,
                    "velocity": 0.2204724409448819,
                    "duration": 0.1130369999999914
                },
                {
                    "name": "C4",
                    "midi": 60,
                    "time": 170.00764800000286,
                    "velocity": 0.2677165354330709,
                    "duration": 0.1130369999999914
                },
                {
                    "name": "D#3",
                    "midi": 51,
                    "time": 170.23372200000284,
                    "velocity": 0.33858267716535434,
                    "duration": 0.6782219999999768
                },
                {
                    "name": "D#4",
                    "midi": 63,
                    "time": 170.68587000000284,
                    "velocity": 0.2677165354330709,
                    "duration": 0.1130369999999914
                },
                {
                    "name": "C4",
                    "midi": 60,
                    "time": 170.68587000000284,
                    "velocity": 0.2204724409448819,
                    "duration": 0.1130369999999914
                },
                {
                    "name": "D#3",
                    "midi": 51,
                    "time": 170.91194400000282,
                    "velocity": 0.33858267716535434,
                    "duration": 0.6782219999999768
                },
                {
                    "name": "A#3",
                    "midi": 58,
                    "time": 171.3640920000028,
                    "velocity": 0.2204724409448819,
                    "duration": 0.1130369999999914
                },
                {
                    "name": "C#4",
                    "midi": 61,
                    "time": 171.3640920000028,
                    "velocity": 0.2677165354330709,
                    "duration": 0.1130369999999914
                },
                {
                    "name": "D#3",
                    "midi": 51,
                    "time": 171.5901660000028,
                    "velocity": 0.33858267716535434,
                    "duration": 0.6782219999999768
                },
                {
                    "name": "G3",
                    "midi": 55,
                    "time": 172.0423140000028,
                    "velocity": 0.2204724409448819,
                    "duration": 0.1130369999999914
                },
                {
                    "name": "A#3",
                    "midi": 58,
                    "time": 172.0423140000028,
                    "velocity": 0.2677165354330709,
                    "duration": 0.1130369999999914
                },
                {
                    "name": "D#3",
                    "midi": 51,
                    "time": 172.26838800000277,
                    "velocity": 0.33858267716535434,
                    "duration": 0.6782219999999768
                },
                {
                    "name": "G#3",
                    "midi": 56,
                    "time": 172.72053600000277,
                    "velocity": 0.2204724409448819,
                    "duration": 0.1130369999999914
                },
                {
                    "name": "C4",
                    "midi": 60,
                    "time": 172.72053600000277,
                    "velocity": 0.2677165354330709,
                    "duration": 0.1130369999999914
                },
                {
                    "name": "D#3",
                    "midi": 51,
                    "time": 172.94661000000275,
                    "velocity": 0.33858267716535434,
                    "duration": 0.6782219999999768
                },
                {
                    "name": "C4",
                    "midi": 60,
                    "time": 173.39875800000274,
                    "velocity": 0.2204724409448819,
                    "duration": 0.1130369999999914
                },
                {
                    "name": "D#4",
                    "midi": 63,
                    "time": 173.39875800000274,
                    "velocity": 0.2677165354330709,
                    "duration": 0.1130369999999914
                },
                {
                    "name": "D#3",
                    "midi": 51,
                    "time": 173.62483200000273,
                    "velocity": 0.4409448818897638,
                    "duration": 0.6782219999999768
                },
                {
                    "name": "C#4",
                    "midi": 61,
                    "time": 174.07698000000272,
                    "velocity": 0.3464566929133858,
                    "duration": 0.1130369999999914
                },
                {
                    "name": "A#3",
                    "midi": 58,
                    "time": 174.07698000000272,
                    "velocity": 0.29133858267716534,
                    "duration": 0.1130369999999914
                },
                {
                    "name": "D#3",
                    "midi": 51,
                    "time": 174.3030540000027,
                    "velocity": 0.4409448818897638,
                    "duration": 0.6782219999999768
                },
                {
                    "name": "G3",
                    "midi": 55,
                    "time": 174.7552020000027,
                    "velocity": 0.29133858267716534,
                    "duration": 0.1130369999999914
                },
                {
                    "name": "A#3",
                    "midi": 58,
                    "time": 174.7552020000027,
                    "velocity": 0.3464566929133858,
                    "duration": 0.1130369999999914
                },
                {
                    "name": "D#3",
                    "midi": 51,
                    "time": 174.98127600000268,
                    "velocity": 0.4409448818897638,
                    "duration": 0.6782219999999768
                },
                {
                    "name": "C4",
                    "midi": 60,
                    "time": 175.43342400000267,
                    "velocity": 0.3464566929133858,
                    "duration": 0.1130369999999914
                },
                {
                    "name": "G#3",
                    "midi": 56,
                    "time": 175.43342400000267,
                    "velocity": 0.29133858267716534,
                    "duration": 0.1130369999999914
                },
                {
                    "name": "C3",
                    "midi": 48,
                    "time": 175.65949800000266,
                    "velocity": 0.4409448818897638,
                    "duration": 0.6782219999999768
                },
                {
                    "name": "D#3",
                    "midi": 51,
                    "time": 176.11164600000265,
                    "velocity": 0.29133858267716534,
                    "duration": 0.1130369999999914
                },
                {
                    "name": "A3",
                    "midi": 57,
                    "time": 176.11164600000265,
                    "velocity": 0.29133858267716534,
                    "duration": 0.1130369999999914
                },
                {
                    "name": "F#3",
                    "midi": 54,
                    "time": 176.11164600000265,
                    "velocity": 0.29133858267716534,
                    "duration": 0.1130369999999914
                },
                {
                    "name": "C4",
                    "midi": 60,
                    "time": 176.11164600000265,
                    "velocity": 0.3464566929133858,
                    "duration": 0.1130369999999914
                },
                {
                    "name": "C#3",
                    "midi": 49,
                    "time": 176.33772000000263,
                    "velocity": 0.4409448818897638,
                    "duration": 0.6782219999999768
                },
                {
                    "name": "F3",
                    "midi": 53,
                    "time": 176.78986800000263,
                    "velocity": 0.29133858267716534,
                    "duration": 0.1130369999999914
                },
                {
                    "name": "A#3",
                    "midi": 58,
                    "time": 176.78986800000263,
                    "velocity": 0.29133858267716534,
                    "duration": 0.1130369999999914
                },
                {
                    "name": "C#4",
                    "midi": 61,
                    "time": 176.78986800000263,
                    "velocity": 0.3464566929133858,
                    "duration": 0.1130369999999914
                },
                {
                    "name": "D#3",
                    "midi": 51,
                    "time": 177.0159420000026,
                    "velocity": 0.4409448818897638,
                    "duration": 0.6782219999999768
                },
                {
                    "name": "G3",
                    "midi": 55,
                    "time": 177.4680900000026,
                    "velocity": 0.29133858267716534,
                    "duration": 0.1130369999999914
                },
                {
                    "name": "A#3",
                    "midi": 58,
                    "time": 177.4680900000026,
                    "velocity": 0.3464566929133858,
                    "duration": 0.1130369999999914
                },
                {
                    "name": "E2",
                    "midi": 40,
                    "time": 177.6941640000026,
                    "velocity": 0.31496062992125984,
                    "duration": 0.452147999999994
                },
                {
                    "name": "E3",
                    "midi": 52,
                    "time": 178.14631200000258,
                    "velocity": 0.2125984251968504,
                    "duration": 0.1130369999999914
                },
                {
                    "name": "C4",
                    "midi": 60,
                    "time": 178.14631200000258,
                    "velocity": 0.25196850393700787,
                    "duration": 0.1130369999999914
                },
                {
                    "name": "G3",
                    "midi": 55,
                    "time": 178.14631200000258,
                    "velocity": 0.2125984251968504,
                    "duration": 0.1130369999999914
                },
                {
                    "name": "E2",
                    "midi": 40,
                    "time": 178.37238600000256,
                    "velocity": 0.31496062992125984,
                    "duration": 0.452147999999994
                },
                {
                    "name": "C4",
                    "midi": 60,
                    "time": 178.82453400000256,
                    "velocity": 0.25196850393700787,
                    "duration": 0.1130369999999914
                },
                {
                    "name": "G3",
                    "midi": 55,
                    "time": 178.82453400000256,
                    "velocity": 0.2125984251968504,
                    "duration": 0.1130369999999914
                },
                {
                    "name": "E3",
                    "midi": 52,
                    "time": 178.82453400000256,
                    "velocity": 0.2125984251968504,
                    "duration": 0.1130369999999914
                },
                {
                    "name": "E2",
                    "midi": 40,
                    "time": 179.05060800000254,
                    "velocity": 0.31496062992125984,
                    "duration": 0.452147999999994
                },
                {
                    "name": "C4",
                    "midi": 60,
                    "time": 179.50275600000253,
                    "velocity": 0.25196850393700787,
                    "duration": 0.1130369999999914
                },
                {
                    "name": "E3",
                    "midi": 52,
                    "time": 179.50275600000253,
                    "velocity": 0.2125984251968504,
                    "duration": 0.1130369999999914
                },
                {
                    "name": "G3",
                    "midi": 55,
                    "time": 179.50275600000253,
                    "velocity": 0.2125984251968504,
                    "duration": 0.1130369999999914
                },
                {
                    "name": "E2",
                    "midi": 40,
                    "time": 179.72883000000252,
                    "velocity": 0.31496062992125984,
                    "duration": 0.452147999999994
                },
                {
                    "name": "G3",
                    "midi": 55,
                    "time": 180.1809780000025,
                    "velocity": 0.2125984251968504,
                    "duration": 0.1130369999999914
                },
                {
                    "name": "E3",
                    "midi": 52,
                    "time": 180.1809780000025,
                    "velocity": 0.2125984251968504,
                    "duration": 0.1130369999999914
                },
                {
                    "name": "C4",
                    "midi": 60,
                    "time": 180.1809780000025,
                    "velocity": 0.25196850393700787,
                    "duration": 0.1130369999999914
                },
                {
                    "name": "D#2",
                    "midi": 39,
                    "time": 180.4070520000025,
                    "velocity": 0.33858267716535434,
                    "duration": 0.452147999999994
                },
                {
                    "name": "D#3",
                    "midi": 51,
                    "time": 180.8592000000025,
                    "velocity": 0.2125984251968504,
                    "duration": 2.2607399999999984
                },
                {
                    "name": "C4",
                    "midi": 60,
                    "time": 180.8592000000025,
                    "velocity": 0.2125984251968504,
                    "duration": 0.904295999999988
                },
                {
                    "name": "G#3",
                    "midi": 56,
                    "time": 180.8592000000025,
                    "velocity": 0.2125984251968504,
                    "duration": 0.904295999999988
                },
                {
                    "name": "C#4",
                    "midi": 61,
                    "time": 181.76349600000248,
                    "velocity": 0.25196850393700787,
                    "duration": 1.3564440000000104
                },
                {
                    "name": "A#3",
                    "midi": 58,
                    "time": 181.76349600000248,
                    "velocity": 0.2125984251968504,
                    "duration": 1.3564440000000104
                },
                {
                    "name": "E2",
                    "midi": 40,
                    "time": 183.1199400000025,
                    "velocity": 0.3779527559055118,
                    "duration": 0.2260740000000112
                },
                {
                    "name": "C4",
                    "midi": 60,
                    "time": 183.5720880000025,
                    "velocity": 0.2992125984251969,
                    "duration": 0.1130369999999914
                },
                {
                    "name": "E3",
                    "midi": 52,
                    "time": 183.5720880000025,
                    "velocity": 0.25196850393700787,
                    "duration": 0.1130369999999914
                },
                {
                    "name": "G3",
                    "midi": 55,
                    "time": 183.5720880000025,
                    "velocity": 0.25196850393700787,
                    "duration": 0.1130369999999914
                },
                {
                    "name": "E2",
                    "midi": 40,
                    "time": 183.7981620000025,
                    "velocity": 0.3779527559055118,
                    "duration": 0.2260740000000112
                },
                {
                    "name": "G3",
                    "midi": 55,
                    "time": 184.25031000000251,
                    "velocity": 0.25196850393700787,
                    "duration": 0.1130369999999914
                },
                {
                    "name": "E3",
                    "midi": 52,
                    "time": 184.25031000000251,
                    "velocity": 0.25196850393700787,
                    "duration": 0.1130369999999914
                },
                {
                    "name": "C4",
                    "midi": 60,
                    "time": 184.25031000000251,
                    "velocity": 0.2992125984251969,
                    "duration": 0.1130369999999914
                },
                {
                    "name": "E2",
                    "midi": 40,
                    "time": 184.4763840000025,
                    "velocity": 0.3779527559055118,
                    "duration": 0.2260740000000112
                },
                {
                    "name": "C4",
                    "midi": 60,
                    "time": 184.92853200000252,
                    "velocity": 0.2992125984251969,
                    "duration": 0.1130369999999914
                },
                {
                    "name": "E3",
                    "midi": 52,
                    "time": 184.92853200000252,
                    "velocity": 0.25196850393700787,
                    "duration": 0.1130369999999914
                },
                {
                    "name": "G3",
                    "midi": 55,
                    "time": 184.92853200000252,
                    "velocity": 0.25196850393700787,
                    "duration": 0.1130369999999914
                },
                {
                    "name": "E2",
                    "midi": 40,
                    "time": 185.1546060000025,
                    "velocity": 0.3779527559055118,
                    "duration": 0.2260740000000112
                },
                {
                    "name": "C4",
                    "midi": 60,
                    "time": 185.60675400000252,
                    "velocity": 0.2992125984251969,
                    "duration": 0.1130369999999914
                },
                {
                    "name": "E3",
                    "midi": 52,
                    "time": 185.60675400000252,
                    "velocity": 0.25196850393700787,
                    "duration": 0.1130369999999914
                },
                {
                    "name": "G3",
                    "midi": 55,
                    "time": 185.60675400000252,
                    "velocity": 0.25196850393700787,
                    "duration": 0.1130369999999914
                },
                {
                    "name": "D#2",
                    "midi": 39,
                    "time": 185.8328280000025,
                    "velocity": 0.4015748031496063,
                    "duration": 0.2260740000000112
                },
                {
                    "name": "G#3",
                    "midi": 56,
                    "time": 186.28497600000253,
                    "velocity": 0.25196850393700787,
                    "duration": 0.904295999999988
                },
                {
                    "name": "D#3",
                    "midi": 51,
                    "time": 186.28497600000253,
                    "velocity": 0.25196850393700787,
                    "duration": 2.2607399999999984
                },
                {
                    "name": "C4",
                    "midi": 60,
                    "time": 186.28497600000253,
                    "velocity": 0.25196850393700787,
                    "duration": 0.904295999999988
                },
                {
                    "name": "G3",
                    "midi": 55,
                    "time": 187.18927200000252,
                    "velocity": 0.25196850393700787,
                    "duration": 1.3564440000000104
                },
                {
                    "name": "C#4",
                    "midi": 61,
                    "time": 187.18927200000252,
                    "velocity": 0.2992125984251969,
                    "duration": 1.3564440000000104
                },
                {
                    "name": "E2",
                    "midi": 40,
                    "time": 188.54571600000253,
                    "velocity": 0.44881889763779526,
                    "duration": 0.452147999999994
                },
                {
                    "name": "E3",
                    "midi": 52,
                    "time": 188.99786400000252,
                    "velocity": 0.2992125984251969,
                    "duration": 0.1130369999999914
                },
                {
                    "name": "C4",
                    "midi": 60,
                    "time": 188.99786400000252,
                    "velocity": 0.3543307086614173,
                    "duration": 0.1130369999999914
                },
                {
                    "name": "G3",
                    "midi": 55,
                    "time": 188.99786400000252,
                    "velocity": 0.2992125984251969,
                    "duration": 0.1130369999999914
                },
                {
                    "name": "E2",
                    "midi": 40,
                    "time": 189.2239380000025,
                    "velocity": 0.44881889763779526,
                    "duration": 0.452147999999994
                },
                {
                    "name": "G3",
                    "midi": 55,
                    "time": 189.6760860000025,
                    "velocity": 0.2992125984251969,
                    "duration": 0.1130369999999914
                },
                {
                    "name": "C4",
                    "midi": 60,
                    "time": 189.6760860000025,
                    "velocity": 0.3543307086614173,
                    "duration": 0.1130369999999914
                },
                {
                    "name": "E3",
                    "midi": 52,
                    "time": 189.6760860000025,
                    "velocity": 0.2992125984251969,
                    "duration": 0.1130369999999914
                },
                {
                    "name": "E2",
                    "midi": 40,
                    "time": 189.90216000000248,
                    "velocity": 0.44881889763779526,
                    "duration": 0.452147999999994
                },
                {
                    "name": "C4",
                    "midi": 60,
                    "time": 190.35430800000248,
                    "velocity": 0.3543307086614173,
                    "duration": 0.1130369999999914
                },
                {
                    "name": "E3",
                    "midi": 52,
                    "time": 190.35430800000248,
                    "velocity": 0.2992125984251969,
                    "duration": 0.1130369999999914
                },
                {
                    "name": "G3",
                    "midi": 55,
                    "time": 190.35430800000248,
                    "velocity": 0.2992125984251969,
                    "duration": 0.1130369999999914
                },
                {
                    "name": "E2",
                    "midi": 40,
                    "time": 190.58038200000246,
                    "velocity": 0.44881889763779526,
                    "duration": 0.452147999999994
                },
                {
                    "name": "C4",
                    "midi": 60,
                    "time": 191.03253000000245,
                    "velocity": 0.3543307086614173,
                    "duration": 0.1130369999999914
                },
                {
                    "name": "E3",
                    "midi": 52,
                    "time": 191.03253000000245,
                    "velocity": 0.2992125984251969,
                    "duration": 0.1130369999999914
                },
                {
                    "name": "G3",
                    "midi": 55,
                    "time": 191.03253000000245,
                    "velocity": 0.2992125984251969,
                    "duration": 0.1130369999999914
                },
                {
                    "name": "G2",
                    "midi": 43,
                    "time": 191.25860400000244,
                    "velocity": 0.48031496062992124,
                    "duration": 0.452147999999994
                },
                {
                    "name": "C4",
                    "midi": 60,
                    "time": 191.71075200000243,
                    "velocity": 0.2992125984251969,
                    "duration": 0.904295999999988
                },
                {
                    "name": "E3",
                    "midi": 52,
                    "time": 191.71075200000243,
                    "velocity": 0.2992125984251969,
                    "duration": 0.904295999999988
                },
                {
                    "name": "G3",
                    "midi": 55,
                    "time": 191.71075200000243,
                    "velocity": 0.2992125984251969,
                    "duration": 0.904295999999988
                },
                {
                    "name": "F3",
                    "midi": 53,
                    "time": 192.61504800000242,
                    "velocity": 0.2992125984251969,
                    "duration": 1.3564440000000104
                },
                {
                    "name": "B3",
                    "midi": 59,
                    "time": 192.61504800000242,
                    "velocity": 0.3543307086614173,
                    "duration": 1.3564440000000104
                },
                {
                    "name": "G3",
                    "midi": 55,
                    "time": 192.61504800000242,
                    "velocity": 0.2992125984251969,
                    "duration": 1.3564440000000104
                },
                {
                    "name": "D#2",
                    "midi": 39,
                    "time": 193.97149200000243,
                    "velocity": 0.5275590551181102,
                    "duration": 0.2260740000000112
                },
                {
                    "name": "C4",
                    "midi": 60,
                    "time": 194.42364000000245,
                    "velocity": 0.48031496062992124,
                    "duration": 0.904295999999988
                },
                {
                    "name": "D#3",
                    "midi": 51,
                    "time": 194.42364000000245,
                    "velocity": 0.4015748031496063,
                    "duration": 2.034665999999987
                },
                {
                    "name": "G#3",
                    "midi": 56,
                    "time": 194.42364000000245,
                    "velocity": 0.4015748031496063,
                    "duration": 0.904295999999988
                },
                {
                    "name": "G3",
                    "midi": 55,
                    "time": 195.32793600000244,
                    "velocity": 0.4015748031496063,
                    "duration": 1.3564440000000104
                },
                {
                    "name": "C#4",
                    "midi": 61,
                    "time": 195.32793600000244,
                    "velocity": 0.48031496062992124,
                    "duration": 1.1303699999999992
                },
                {
                    "name": "A#3",
                    "midi": 58,
                    "time": 195.32793600000244,
                    "velocity": 0.4015748031496063,
                    "duration": 1.1303699999999992
                },
                {
                    "name": "G#2",
                    "midi": 44,
                    "time": 196.68438000000245,
                    "velocity": 0.6535433070866141,
                    "duration": 0.2260740000000112
                },
                {
                    "name": "G#3",
                    "midi": 56,
                    "time": 196.91045400000246,
                    "velocity": 0.48031496062992124,
                    "duration": 0.12434070000000474
                },
                {
                    "name": "C4",
                    "midi": 60,
                    "time": 197.02349100000245,
                    "velocity": 0.41732283464566927,
                    "duration": 0.12434070000003317
                },
                {
                    "name": "D#4",
                    "midi": 63,
                    "time": 197.13652800000247,
                    "velocity": 0.48031496062992124,
                    "duration": 0.12434070000003317
                },
                {
                    "name": "C#4",
                    "midi": 61,
                    "time": 197.2495650000025,
                    "velocity": 0.4645669291338583,
                    "duration": 0.12434070000003317
                },
                {
                    "name": "C4",
                    "midi": 60,
                    "time": 197.3626020000025,
                    "velocity": 0.4645669291338583,
                    "duration": 0.12434070000003317
                },
                {
                    "name": "A#3",
                    "midi": 58,
                    "time": 197.47563900000253,
                    "velocity": 0.4566929133858268,
                    "duration": 0.12434070000003317
                },
                {
                    "name": "G#3",
                    "midi": 56,
                    "time": 197.58867600000255,
                    "velocity": 0.44881889763779526,
                    "duration": 0.12434070000003317
                },
                {
                    "name": "G3",
                    "midi": 55,
                    "time": 197.70171300000257,
                    "velocity": 0.44881889763779526,
                    "duration": 0.12434070000003317
                },
                {
                    "name": "F3",
                    "midi": 53,
                    "time": 197.8147500000026,
                    "velocity": 0.4409448818897638,
                    "duration": 0.12434070000003317
                },
                {
                    "name": "D#3",
                    "midi": 51,
                    "time": 197.9277870000026,
                    "velocity": 0.4330708661417323,
                    "duration": 0.12434070000003317
                },
                {
                    "name": "C#3",
                    "midi": 49,
                    "time": 198.04082400000263,
                    "velocity": 0.41732283464566927,
                    "duration": 0.12434070000003317
                },
                {
                    "name": "C3",
                    "midi": 48,
                    "time": 198.15386100000265,
                    "velocity": 0.4094488188976378,
                    "duration": 0.12434070000003317
                },
                {
                    "name": "A#2",
                    "midi": 46,
                    "time": 198.26689800000267,
                    "velocity": 0.4094488188976378,
                    "duration": 0.12434070000003317
                },
                {
                    "name": "G#2",
                    "midi": 44,
                    "time": 198.3799350000027,
                    "velocity": 0.4015748031496063,
                    "duration": 0.12434070000003317
                },
                {
                    "name": "G2",
                    "midi": 43,
                    "time": 198.4929720000027,
                    "velocity": 0.3937007874015748,
                    "duration": 0.12434070000003317
                },
                {
                    "name": "F2",
                    "midi": 41,
                    "time": 198.60600900000273,
                    "velocity": 0.3858267716535433,
                    "duration": 0.12434070000003317
                },
                {
                    "name": "D#2",
                    "midi": 39,
                    "time": 198.71904600000275,
                    "velocity": 0.3779527559055118,
                    "duration": 0.12434070000003317
                },
                {
                    "name": "F2",
                    "midi": 41,
                    "time": 198.83208300000277,
                    "velocity": 0.3937007874015748,
                    "duration": 0.12434070000003317
                },
                {
                    "name": "D#2",
                    "midi": 39,
                    "time": 198.9451200000028,
                    "velocity": 0.41732283464566927,
                    "duration": 0.12434070000003317
                },
                {
                    "name": "C#2",
                    "midi": 37,
                    "time": 199.0581570000028,
                    "velocity": 0.4330708661417323,
                    "duration": 0.12434070000003317
                },
                {
                    "name": "C2",
                    "midi": 36,
                    "time": 199.17119400000283,
                    "velocity": 0.44881889763779526,
                    "duration": 0.12434070000003317
                },
                {
                    "name": "A#1",
                    "midi": 34,
                    "time": 199.28423100000285,
                    "velocity": 0.4645669291338583,
                    "duration": 0.12434070000003317
                },
                {
                    "name": "G#1",
                    "midi": 32,
                    "time": 199.39726800000287,
                    "velocity": 0.4881889763779528,
                    "duration": 0.11303700000001982
                },
                {
                    "name": "C2",
                    "midi": 36,
                    "time": 199.5103050000029,
                    "velocity": 0.41732283464566927,
                    "duration": 0.1130369999999914
                },
                {
                    "name": "G#1",
                    "midi": 32,
                    "time": 199.62334200000288,
                    "velocity": 0.4881889763779528,
                    "duration": 0.1130369999999914
                },
                {
                    "name": "C2",
                    "midi": 36,
                    "time": 199.73637900000287,
                    "velocity": 0.4094488188976378,
                    "duration": 0.1130369999999914
                },
                {
                    "name": "D#2",
                    "midi": 39,
                    "time": 199.84941600000286,
                    "velocity": 0.4566929133858268,
                    "duration": 0.1130369999999914
                },
                {
                    "name": "G#1",
                    "midi": 32,
                    "time": 200.07549000000284,
                    "velocity": 0.4881889763779528,
                    "duration": 0.1130369999999914
                },
                {
                    "name": "C2",
                    "midi": 36,
                    "time": 200.18852700000284,
                    "velocity": 0.41732283464566927,
                    "duration": 0.1130369999999914
                },
                {
                    "name": "G#1",
                    "midi": 32,
                    "time": 200.30156400000283,
                    "velocity": 0.4881889763779528,
                    "duration": 0.1130369999999914
                },
                {
                    "name": "C2",
                    "midi": 36,
                    "time": 200.41460100000282,
                    "velocity": 0.4094488188976378,
                    "duration": 0.1130369999999914
                },
                {
                    "name": "D#2",
                    "midi": 39,
                    "time": 200.5276380000028,
                    "velocity": 0.4566929133858268,
                    "duration": 0.1130369999999914
                },
                {
                    "name": "G#1",
                    "midi": 32,
                    "time": 200.7537120000028,
                    "velocity": 0.4881889763779528,
                    "duration": 0.1130369999999914
                },
                {
                    "name": "C2",
                    "midi": 36,
                    "time": 200.86674900000278,
                    "velocity": 0.41732283464566927,
                    "duration": 0.1130369999999914
                },
                {
                    "name": "G#1",
                    "midi": 32,
                    "time": 200.97978600000278,
                    "velocity": 0.4881889763779528,
                    "duration": 0.1130369999999914
                },
                {
                    "name": "C2",
                    "midi": 36,
                    "time": 201.09282300000277,
                    "velocity": 0.4094488188976378,
                    "duration": 0.1130369999999914
                },
                {
                    "name": "D#2",
                    "midi": 39,
                    "time": 201.20586000000276,
                    "velocity": 0.4566929133858268,
                    "duration": 0.1130369999999914
                },
                {
                    "name": "G#1",
                    "midi": 32,
                    "time": 201.43193400000274,
                    "velocity": 0.4881889763779528,
                    "duration": 0.1130369999999914
                },
                {
                    "name": "C2",
                    "midi": 36,
                    "time": 201.54497100000273,
                    "velocity": 0.41732283464566927,
                    "duration": 0.1130369999999914
                },
                {
                    "name": "G#1",
                    "midi": 32,
                    "time": 201.65800800000272,
                    "velocity": 0.4881889763779528,
                    "duration": 0.1130369999999914
                },
                {
                    "name": "C2",
                    "midi": 36,
                    "time": 201.77104500000272,
                    "velocity": 0.4094488188976378,
                    "duration": 0.1130369999999914
                },
                {
                    "name": "D#2",
                    "midi": 39,
                    "time": 201.8840820000027,
                    "velocity": 0.4566929133858268,
                    "duration": 0.1130369999999914
                },
                {
                    "name": "G#1",
                    "midi": 32,
                    "time": 202.1101560000027,
                    "velocity": 0.4330708661417323,
                    "duration": 0.2260740000000112
                },
                {
                    "name": "A#3",
                    "midi": 58,
                    "time": 205.6143030000027,
                    "velocity": 0.3543307086614173,
                    "duration": 0.12434070000000474
                },
                {
                    "name": "G#3",
                    "midi": 56,
                    "time": 205.7273400000027,
                    "velocity": 0.3543307086614173,
                    "duration": 0.12434070000003317
                },
                {
                    "name": "G3",
                    "midi": 55,
                    "time": 205.84037700000272,
                    "velocity": 0.3464566929133858,
                    "duration": 0.12434070000003317
                },
                {
                    "name": "F3",
                    "midi": 53,
                    "time": 205.95341400000274,
                    "velocity": 0.3464566929133858,
                    "duration": 0.12434070000003317
                },
                {
                    "name": "D#3",
                    "midi": 51,
                    "time": 206.06645100000276,
                    "velocity": 0.33858267716535434,
                    "duration": 0.12434070000003317
                },
                {
                    "name": "C#3",
                    "midi": 49,
                    "time": 206.17948800000278,
                    "velocity": 0.33858267716535434,
                    "duration": 0.12434070000003317
                },
                {
                    "name": "C3",
                    "midi": 48,
                    "time": 206.2925250000028,
                    "velocity": 0.33070866141732286,
                    "duration": 0.12434070000003317
                },
                {
                    "name": "A#2",
                    "midi": 46,
                    "time": 206.40556200000282,
                    "velocity": 0.3228346456692913,
                    "duration": 0.12434070000003317
                },
                {
                    "name": "G#2",
                    "midi": 44,
                    "time": 206.51859900000284,
                    "velocity": 0.3228346456692913,
                    "duration": 0.12434070000003317
                },
                {
                    "name": "G2",
                    "midi": 43,
                    "time": 206.63163600000286,
                    "velocity": 0.31496062992125984,
                    "duration": 0.12434070000003317
                },
                {
                    "name": "G#2",
                    "midi": 44,
                    "time": 206.74467300000288,
                    "velocity": 0.31496062992125984,
                    "duration": 0.12434070000003317
                },
                {
                    "name": "A#2",
                    "midi": 46,
                    "time": 206.8577100000029,
                    "velocity": 0.31496062992125984,
                    "duration": 0.12434070000003317
                },
                {
                    "name": "C3",
                    "midi": 48,
                    "time": 206.97074700000292,
                    "velocity": 0.3228346456692913,
                    "duration": 0.12434070000003317
                },
                {
                    "name": "C#3",
                    "midi": 49,
                    "time": 207.08378400000294,
                    "velocity": 0.3228346456692913,
                    "duration": 0.12434070000003317
                },
                {
                    "name": "D#3",
                    "midi": 51,
                    "time": 207.19682100000296,
                    "velocity": 0.33070866141732286,
                    "duration": 0.12434070000003317
                },
                {
                    "name": "F3",
                    "midi": 53,
                    "time": 207.30985800000298,
                    "velocity": 0.33858267716535434,
                    "duration": 0.12434070000003317
                },
                {
                    "name": "G3",
                    "midi": 55,
                    "time": 207.422895000003,
                    "velocity": 0.3464566929133858,
                    "duration": 0.12434070000003317
                },
                {
                    "name": "G#3",
                    "midi": 56,
                    "time": 207.53593200000302,
                    "velocity": 0.3543307086614173,
                    "duration": 0.12434070000003317
                },
                {
                    "name": "A#3",
                    "midi": 58,
                    "time": 207.64896900000304,
                    "velocity": 0.36220472440944884,
                    "duration": 0.11303700000001982
                },
                {
                    "name": "G2",
                    "midi": 43,
                    "time": 208.89237600000305,
                    "velocity": 0.5511811023622047,
                    "duration": 0.1130369999999914
                },
                {
                    "name": "A#2",
                    "midi": 46,
                    "time": 209.00541300000305,
                    "velocity": 0.4330708661417323,
                    "duration": 0.1130369999999914
                },
                {
                    "name": "G2",
                    "midi": 43,
                    "time": 209.11845000000304,
                    "velocity": 0.5118110236220472,
                    "duration": 0.1130369999999914
                },
                {
                    "name": "A#2",
                    "midi": 46,
                    "time": 209.23148700000303,
                    "velocity": 0.4409448818897638,
                    "duration": 0.1130369999999914
                },
                {
                    "name": "C#3",
                    "midi": 49,
                    "time": 209.34452400000302,
                    "velocity": 0.5118110236220472,
                    "duration": 0.1130369999999914
                },
                {
                    "name": "G2",
                    "midi": 43,
                    "time": 209.570598000003,
                    "velocity": 0.5590551181102362,
                    "duration": 0.1130369999999914
                },
                {
                    "name": "A#2",
                    "midi": 46,
                    "time": 209.683635000003,
                    "velocity": 0.4251968503937008,
                    "duration": 0.1130369999999914
                },
                {
                    "name": "G2",
                    "midi": 43,
                    "time": 209.79667200000299,
                    "velocity": 0.49606299212598426,
                    "duration": 0.1130369999999914
                },
                {
                    "name": "A#2",
                    "midi": 46,
                    "time": 209.90970900000298,
                    "velocity": 0.4251968503937008,
                    "duration": 0.1130369999999914
                },
                {
                    "name": "C#3",
                    "midi": 49,
                    "time": 210.02274600000297,
                    "velocity": 0.5196850393700787,
                    "duration": 0.1130369999999914
                },
                {
                    "name": "G2",
                    "midi": 43,
                    "time": 210.24882000000295,
                    "velocity": 0.5590551181102362,
                    "duration": 0.1130369999999914
                },
                {
                    "name": "A#2",
                    "midi": 46,
                    "time": 210.36185700000294,
                    "velocity": 0.4881889763779528,
                    "duration": 0.1130369999999914
                },
                {
                    "name": "G2",
                    "midi": 43,
                    "time": 210.47489400000293,
                    "velocity": 0.5196850393700787,
                    "duration": 0.1130369999999914
                },
                {
                    "name": "A#2",
                    "midi": 46,
                    "time": 210.58793100000292,
                    "velocity": 0.4251968503937008,
                    "duration": 0.1130369999999914
                },
                {
                    "name": "C#3",
                    "midi": 49,
                    "time": 210.70096800000292,
                    "velocity": 0.5118110236220472,
                    "duration": 0.1130369999999914
                },
                {
                    "name": "G3",
                    "midi": 55,
                    "time": 215.6745960000029,
                    "velocity": 0.5511811023622047,
                    "duration": 0.1130369999999914
                },
                {
                    "name": "A#3",
                    "midi": 58,
                    "time": 215.7876330000029,
                    "velocity": 0.4330708661417323,
                    "duration": 0.1130369999999914
                },
                {
                    "name": "G3",
                    "midi": 55,
                    "time": 215.9006700000029,
                    "velocity": 0.5118110236220472,
                    "duration": 0.1130369999999914
                },
                {
                    "name": "A#3",
                    "midi": 58,
                    "time": 216.01370700000288,
                    "velocity": 0.4409448818897638,
                    "duration": 0.1130369999999914
                },
                {
                    "name": "C#4",
                    "midi": 61,
                    "time": 216.12674400000287,
                    "velocity": 0.5118110236220472,
                    "duration": 0.1130369999999914
                },
                {
                    "name": "G3",
                    "midi": 55,
                    "time": 216.35281800000286,
                    "velocity": 0.5590551181102362,
                    "duration": 0.1130369999999914
                },
                {
                    "name": "A#3",
                    "midi": 58,
                    "time": 216.46585500000285,
                    "velocity": 0.4251968503937008,
                    "duration": 0.1130369999999914
                },
                {
                    "name": "G3",
                    "midi": 55,
                    "time": 216.57889200000284,
                    "velocity": 0.49606299212598426,
                    "duration": 0.1130369999999914
                },
                {
                    "name": "A#3",
                    "midi": 58,
                    "time": 216.69192900000283,
                    "velocity": 0.4251968503937008,
                    "duration": 0.1130369999999914
                },
                {
                    "name": "C#4",
                    "midi": 61,
                    "time": 216.80496600000282,
                    "velocity": 0.5196850393700787,
                    "duration": 0.1130369999999914
                },
                {
                    "name": "G3",
                    "midi": 55,
                    "time": 217.0310400000028,
                    "velocity": 0.5590551181102362,
                    "duration": 0.1130369999999914
                },
                {
                    "name": "A#3",
                    "midi": 58,
                    "time": 217.1440770000028,
                    "velocity": 0.4881889763779528,
                    "duration": 0.1130369999999914
                },
                {
                    "name": "G3",
                    "midi": 55,
                    "time": 217.2571140000028,
                    "velocity": 0.5196850393700787,
                    "duration": 0.1130369999999914
                },
                {
                    "name": "A#3",
                    "midi": 58,
                    "time": 217.37015100000278,
                    "velocity": 0.4251968503937008,
                    "duration": 0.1130369999999914
                },
                {
                    "name": "C#4",
                    "midi": 61,
                    "time": 217.48318800000277,
                    "velocity": 0.5118110236220472,
                    "duration": 0.1130369999999914
                },
                {
                    "name": "E4",
                    "midi": 64,
                    "time": 221.10037200000275,
                    "velocity": 0.33070866141732286,
                    "duration": 0.1130369999999914
                },
                {
                    "name": "G4",
                    "midi": 67,
                    "time": 221.21340900000274,
                    "velocity": 0.25984251968503935,
                    "duration": 0.1130369999999914
                },
                {
                    "name": "E4",
                    "midi": 64,
                    "time": 221.32644600000273,
                    "velocity": 0.30708661417322836,
                    "duration": 0.1130369999999914
                },
                {
                    "name": "G4",
                    "midi": 67,
                    "time": 221.43948300000272,
                    "velocity": 0.25984251968503935,
                    "duration": 0.1130369999999914
                },
                {
                    "name": "A#4",
                    "midi": 70,
                    "time": 221.55252000000272,
                    "velocity": 0.30708661417322836,
                    "duration": 0.1130369999999914
                },
                {
                    "name": "E4",
                    "midi": 64,
                    "time": 221.7785940000027,
                    "velocity": 0.33070866141732286,
                    "duration": 0.1130369999999914
                },
                {
                    "name": "G4",
                    "midi": 67,
                    "time": 221.8916310000027,
                    "velocity": 0.25196850393700787,
                    "duration": 0.1130369999999914
                },
                {
                    "name": "E4",
                    "midi": 64,
                    "time": 222.00466800000268,
                    "velocity": 0.29133858267716534,
                    "duration": 0.1130369999999914
                },
                {
                    "name": "G4",
                    "midi": 67,
                    "time": 222.11770500000267,
                    "velocity": 0.25196850393700787,
                    "duration": 0.1130369999999914
                },
                {
                    "name": "A#4",
                    "midi": 70,
                    "time": 222.23074200000266,
                    "velocity": 0.30708661417322836,
                    "duration": 0.1130369999999914
                },
                {
                    "name": "C5",
                    "midi": 72,
                    "time": 225.84792600000264,
                    "velocity": 0.33070866141732286,
                    "duration": 0.1130369999999914
                },
                {
                    "name": "G5",
                    "midi": 79,
                    "time": 225.96096300000264,
                    "velocity": 0.25984251968503935,
                    "duration": 0.1130369999999914
                },
                {
                    "name": "C5",
                    "midi": 72,
                    "time": 226.07400000000263,
                    "velocity": 0.30708661417322836,
                    "duration": 0.1130369999999914
                },
                {
                    "name": "G5",
                    "midi": 79,
                    "time": 226.18703700000262,
                    "velocity": 0.25984251968503935,
                    "duration": 0.1130369999999914
                },
                {
                    "name": "A#5",
                    "midi": 82,
                    "time": 226.3000740000026,
                    "velocity": 0.30708661417322836,
                    "duration": 0.1130369999999914
                },
                {
                    "name": "C5",
                    "midi": 72,
                    "time": 226.5261480000026,
                    "velocity": 0.33070866141732286,
                    "duration": 0.1130369999999914
                },
                {
                    "name": "G5",
                    "midi": 79,
                    "time": 226.63918500000258,
                    "velocity": 0.25196850393700787,
                    "duration": 0.1130369999999914
                },
                {
                    "name": "C5",
                    "midi": 72,
                    "time": 226.75222200000258,
                    "velocity": 0.29133858267716534,
                    "duration": 0.1130369999999914
                },
                {
                    "name": "G5",
                    "midi": 79,
                    "time": 226.86525900000257,
                    "velocity": 0.25196850393700787,
                    "duration": 0.1130369999999914
                },
                {
                    "name": "A#5",
                    "midi": 82,
                    "time": 226.97829600000256,
                    "velocity": 0.30708661417322836,
                    "duration": 0.1130369999999914
                },
                {
                    "name": "C4",
                    "midi": 60,
                    "time": 228.56081400000255,
                    "velocity": 0.2755905511811024,
                    "duration": 0.1130369999999914
                },
                {
                    "name": "G#4",
                    "midi": 68,
                    "time": 228.67385100000254,
                    "velocity": 0.2204724409448819,
                    "duration": 0.1130369999999914
                },
                {
                    "name": "C4",
                    "midi": 60,
                    "time": 228.78688800000253,
                    "velocity": 0.25984251968503935,
                    "duration": 0.1130369999999914
                },
                {
                    "name": "G#4",
                    "midi": 68,
                    "time": 228.89992500000253,
                    "velocity": 0.2204724409448819,
                    "duration": 0.1130369999999914
                },
                {
                    "name": "B4",
                    "midi": 71,
                    "time": 229.01296200000252,
                    "velocity": 0.25984251968503935,
                    "duration": 0.1130369999999914
                },
                {
                    "name": "C4",
                    "midi": 60,
                    "time": 229.2390360000025,
                    "velocity": 0.2755905511811024,
                    "duration": 0.1130369999999914
                },
                {
                    "name": "G#4",
                    "midi": 68,
                    "time": 229.3520730000025,
                    "velocity": 0.2125984251968504,
                    "duration": 0.1130369999999914
                },
                {
                    "name": "C4",
                    "midi": 60,
                    "time": 229.46511000000248,
                    "velocity": 0.2440944881889764,
                    "duration": 0.1130369999999914
                },
                {
                    "name": "G#4",
                    "midi": 68,
                    "time": 229.57814700000247,
                    "velocity": 0.2125984251968504,
                    "duration": 0.1130369999999914
                },
                {
                    "name": "B4",
                    "midi": 71,
                    "time": 229.69118400000247,
                    "velocity": 0.25984251968503935,
                    "duration": 0.1130369999999914
                },
                {
                    "name": "C3",
                    "midi": 48,
                    "time": 231.27370200000246,
                    "velocity": 0.2204724409448819,
                    "duration": 0.1130369999999914
                },
                {
                    "name": "G3",
                    "midi": 55,
                    "time": 231.38673900000245,
                    "velocity": 0.1732283464566929,
                    "duration": 0.1130369999999914
                },
                {
                    "name": "C3",
                    "midi": 48,
                    "time": 231.49977600000244,
                    "velocity": 0.2047244094488189,
                    "duration": 0.1130369999999914
                },
                {
                    "name": "G3",
                    "midi": 55,
                    "time": 231.61281300000243,
                    "velocity": 0.1732283464566929,
                    "duration": 0.1130369999999914
                },
                {
                    "name": "C4",
                    "midi": 60,
                    "time": 231.72585000000242,
                    "velocity": 0.2047244094488189,
                    "duration": 0.2260740000000112
                },
                {
                    "name": "C3",
                    "midi": 48,
                    "time": 231.95192400000244,
                    "velocity": 0.2204724409448819,
                    "duration": 0.1130369999999914
                },
                {
                    "name": "G3",
                    "midi": 55,
                    "time": 232.06496100000243,
                    "velocity": 0.16535433070866143,
                    "duration": 0.1130369999999914
                },
                {
                    "name": "C3",
                    "midi": 48,
                    "time": 232.17799800000242,
                    "velocity": 0.1889763779527559,
                    "duration": 0.1130369999999914
                },
                {
                    "name": "G3",
                    "midi": 55,
                    "time": 232.2910350000024,
                    "velocity": 0.16535433070866143,
                    "duration": 0.1130369999999914
                },
                {
                    "name": "C4",
                    "midi": 60,
                    "time": 232.4040720000024,
                    "velocity": 0.2047244094488189,
                    "duration": 0.2260740000000112
                },
                {
                    "name": "C3",
                    "midi": 48,
                    "time": 233.98659000000242,
                    "velocity": 0.3700787401574803,
                    "duration": 0.05651850000000991
                },
                {
                    "name": "C4",
                    "midi": 60,
                    "time": 234.21266400000243,
                    "velocity": 0.30708661417322836,
                    "duration": 0.05651850000000991
                },
                {
                    "name": "C3",
                    "midi": 48,
                    "time": 234.43873800000245,
                    "velocity": 0.3700787401574803,
                    "duration": 0.05651850000000991
                },
                {
                    "name": "C4",
                    "midi": 60,
                    "time": 234.66481200000246,
                    "velocity": 0.30708661417322836,
                    "duration": 0.05651850000000991
                },
                {
                    "name": "C3",
                    "midi": 48,
                    "time": 234.89088600000247,
                    "velocity": 0.3700787401574803,
                    "duration": 0.05651850000000991
                },
                {
                    "name": "C4",
                    "midi": 60,
                    "time": 235.11696000000248,
                    "velocity": 0.33858267716535434,
                    "duration": 0.05651850000000991
                },
                {
                    "name": "E3",
                    "midi": 52,
                    "time": 235.3430340000025,
                    "velocity": 0.2755905511811024,
                    "duration": 0.05651850000000991
                },
                {
                    "name": "C3",
                    "midi": 48,
                    "time": 235.3430340000025,
                    "velocity": 0.2283464566929134,
                    "duration": 0.05651850000000991
                },
                {
                    "name": "C4",
                    "midi": 60,
                    "time": 235.5691080000025,
                    "velocity": 0.23622047244094488,
                    "duration": 0.05651850000000991
                },
                {
                    "name": "E3",
                    "midi": 52,
                    "time": 235.7951820000025,
                    "velocity": 0.23622047244094488,
                    "duration": 0.05651850000000991
                },
                {
                    "name": "C3",
                    "midi": 48,
                    "time": 235.7951820000025,
                    "velocity": 0.1968503937007874,
                    "duration": 0.05651850000000991
                },
                {
                    "name": "C4",
                    "midi": 60,
                    "time": 236.02125600000252,
                    "velocity": 0.2755905511811024,
                    "duration": 0.05651850000000991
                },
                {
                    "name": "E3",
                    "midi": 52,
                    "time": 236.24733000000253,
                    "velocity": 0.2440944881889764,
                    "duration": 0.05651850000000991
                },
                {
                    "name": "C3",
                    "midi": 48,
                    "time": 236.24733000000253,
                    "velocity": 0.2047244094488189,
                    "duration": 0.05651850000000991
                },
                {
                    "name": "C4",
                    "midi": 60,
                    "time": 236.47340400000255,
                    "velocity": 0.2440944881889764,
                    "duration": 0.05651850000000991
                },
                {
                    "name": "C#3",
                    "midi": 49,
                    "time": 236.69947800000256,
                    "velocity": 0.2283464566929134,
                    "duration": 0.05651850000000991
                },
                {
                    "name": "F3",
                    "midi": 53,
                    "time": 236.69947800000256,
                    "velocity": 0.2755905511811024,
                    "duration": 0.05651850000000991
                },
                {
                    "name": "C4",
                    "midi": 60,
                    "time": 236.92555200000257,
                    "velocity": 0.23622047244094488,
                    "duration": 0.05651850000000991
                },
                {
                    "name": "F3",
                    "midi": 53,
                    "time": 237.15162600000258,
                    "velocity": 0.23622047244094488,
                    "duration": 0.05651850000000991
                },
                {
                    "name": "C#3",
                    "midi": 49,
                    "time": 237.15162600000258,
                    "velocity": 0.1968503937007874,
                    "duration": 0.05651850000000991
                },
                {
                    "name": "C4",
                    "midi": 60,
                    "time": 237.3777000000026,
                    "velocity": 0.2755905511811024,
                    "duration": 0.05651850000000991
                },
                {
                    "name": "C#3",
                    "midi": 49,
                    "time": 237.6037740000026,
                    "velocity": 0.2047244094488189,
                    "duration": 0.05651850000000991
                },
                {
                    "name": "F3",
                    "midi": 53,
                    "time": 237.6037740000026,
                    "velocity": 0.2440944881889764,
                    "duration": 0.05651850000000991
                },
                {
                    "name": "C4",
                    "midi": 60,
                    "time": 237.8298480000026,
                    "velocity": 0.2440944881889764,
                    "duration": 0.05651850000000991
                },
                {
                    "name": "G3",
                    "midi": 55,
                    "time": 238.05592200000262,
                    "velocity": 0.2755905511811024,
                    "duration": 0.05651850000000991
                },
                {
                    "name": "E3",
                    "midi": 52,
                    "time": 238.05592200000262,
                    "velocity": 0.2283464566929134,
                    "duration": 0.05651850000000991
                },
                {
                    "name": "C4",
                    "midi": 60,
                    "time": 238.28199600000264,
                    "velocity": 0.23622047244094488,
                    "duration": 0.05651850000000991
                },
                {
                    "name": "E3",
                    "midi": 52,
                    "time": 238.50807000000265,
                    "velocity": 0.1968503937007874,
                    "duration": 0.05651850000000991
                },
                {
                    "name": "G3",
                    "midi": 55,
                    "time": 238.50807000000265,
                    "velocity": 0.23622047244094488,
                    "duration": 0.05651850000000991
                },
                {
                    "name": "G#3",
                    "midi": 56,
                    "time": 238.73414400000266,
                    "velocity": 0.2755905511811024,
                    "duration": 0.05651850000000991
                },
                {
                    "name": "F3",
                    "midi": 53,
                    "time": 238.73414400000266,
                    "velocity": 0.2283464566929134,
                    "duration": 0.05651850000000991
                },
                {
                    "name": "C4",
                    "midi": 60,
                    "time": 238.96021800000267,
                    "velocity": 0.23622047244094488,
                    "duration": 0.05651850000000991
                },
                {
                    "name": "F3",
                    "midi": 53,
                    "time": 239.18629200000268,
                    "velocity": 0.1968503937007874,
                    "duration": 0.05651850000000991
                },
                {
                    "name": "G#3",
                    "midi": 56,
                    "time": 239.18629200000268,
                    "velocity": 0.23622047244094488,
                    "duration": 0.05651850000000991
                },
                {
                    "name": "A#3",
                    "midi": 58,
                    "time": 239.4123660000027,
                    "velocity": 0.25984251968503935,
                    "duration": 0.05651850000000991
                },
                {
                    "name": "G3",
                    "midi": 55,
                    "time": 239.4123660000027,
                    "velocity": 0.2204724409448819,
                    "duration": 0.05651850000000991
                },
                {
                    "name": "G3",
                    "midi": 55,
                    "time": 239.6384400000027,
                    "velocity": 0.23622047244094488,
                    "duration": 0.05651850000000991
                },
                {
                    "name": "A#3",
                    "midi": 58,
                    "time": 239.6384400000027,
                    "velocity": 0.23622047244094488,
                    "duration": 0.05651850000000991
                },
                {
                    "name": "C4",
                    "midi": 60,
                    "time": 239.6384400000027,
                    "velocity": 0.28346456692913385,
                    "duration": 0.05651850000000991
                },
                {
                    "name": "G3",
                    "midi": 55,
                    "time": 239.8645140000027,
                    "velocity": 0.2677165354330709,
                    "duration": 0.05651850000000991
                },
                {
                    "name": "C#4",
                    "midi": 61,
                    "time": 239.8645140000027,
                    "velocity": 0.31496062992125984,
                    "duration": 0.05651850000000991
                },
                {
                    "name": "A#3",
                    "midi": 58,
                    "time": 239.8645140000027,
                    "velocity": 0.2677165354330709,
                    "duration": 0.05651850000000991
                },
                {
                    "name": "G3",
                    "midi": 55,
                    "time": 240.09058800000273,
                    "velocity": 0.28346456692913385,
                    "duration": 0.05651850000000991
                },
                {
                    "name": "A#3",
                    "midi": 58,
                    "time": 240.09058800000273,
                    "velocity": 0.28346456692913385,
                    "duration": 0.05651850000000991
                },
                {
                    "name": "D4",
                    "midi": 62,
                    "time": 240.09058800000273,
                    "velocity": 0.33858267716535434,
                    "duration": 0.05651850000000991
                },
                {
                    "name": "D#4",
                    "midi": 63,
                    "time": 240.31666200000274,
                    "velocity": 0.31496062992125984,
                    "duration": 0.05651850000000991
                },
                {
                    "name": "G3",
                    "midi": 55,
                    "time": 240.31666200000274,
                    "velocity": 0.2677165354330709,
                    "duration": 0.05651850000000991
                },
                {
                    "name": "A#3",
                    "midi": 58,
                    "time": 240.31666200000274,
                    "velocity": 0.2677165354330709,
                    "duration": 0.05651850000000991
                },
                {
                    "name": "G3",
                    "midi": 55,
                    "time": 240.54273600000275,
                    "velocity": 0.25196850393700787,
                    "duration": 0.05651850000000991
                },
                {
                    "name": "E4",
                    "midi": 64,
                    "time": 240.54273600000275,
                    "velocity": 0.2992125984251969,
                    "duration": 0.05651850000000991
                },
                {
                    "name": "A#3",
                    "midi": 58,
                    "time": 240.54273600000275,
                    "velocity": 0.25196850393700787,
                    "duration": 0.05651850000000991
                },
                {
                    "name": "F3",
                    "midi": 53,
                    "time": 240.76881000000276,
                    "velocity": 0.2755905511811024,
                    "duration": 0.05651850000000991
                },
                {
                    "name": "C4",
                    "midi": 60,
                    "time": 240.99488400000277,
                    "velocity": 0.1968503937007874,
                    "duration": 0.05651850000000991
                },
                {
                    "name": "F4",
                    "midi": 65,
                    "time": 240.99488400000277,
                    "velocity": 0.23622047244094488,
                    "duration": 0.05651850000000991
                },
                {
                    "name": "G#3",
                    "midi": 56,
                    "time": 240.99488400000277,
                    "velocity": 0.1968503937007874,
                    "duration": 0.05651850000000991
                },
                {
                    "name": "F3",
                    "midi": 53,
                    "time": 241.22095800000278,
                    "velocity": 0.23622047244094488,
                    "duration": 0.05651850000000991
                },
                {
                    "name": "C4",
                    "midi": 60,
                    "time": 241.4470320000028,
                    "velocity": 0.2283464566929134,
                    "duration": 0.05651850000000991
                },
                {
                    "name": "F4",
                    "midi": 65,
                    "time": 241.4470320000028,
                    "velocity": 0.2755905511811024,
                    "duration": 0.05651850000000991
                },
                {
                    "name": "G#3",
                    "midi": 56,
                    "time": 241.4470320000028,
                    "velocity": 0.2283464566929134,
                    "duration": 0.05651850000000991
                },
                {
                    "name": "F3",
                    "midi": 53,
                    "time": 241.6731060000028,
                    "velocity": 0.2440944881889764,
                    "duration": 0.05651850000000991
                },
                {
                    "name": "F4",
                    "midi": 65,
                    "time": 241.89918000000281,
                    "velocity": 0.2440944881889764,
                    "duration": 0.05651850000000991
                },
                {
                    "name": "C4",
                    "midi": 60,
                    "time": 241.89918000000281,
                    "velocity": 0.2047244094488189,
                    "duration": 0.05651850000000991
                },
                {
                    "name": "G#3",
                    "midi": 56,
                    "time": 241.89918000000281,
                    "velocity": 0.2047244094488189,
                    "duration": 0.05651850000000991
                },
                {
                    "name": "F3",
                    "midi": 53,
                    "time": 242.12525400000283,
                    "velocity": 0.2755905511811024,
                    "duration": 0.05651850000000991
                },
                {
                    "name": "D4",
                    "midi": 62,
                    "time": 242.35132800000284,
                    "velocity": 0.2440944881889764,
                    "duration": 0.05651850000000991
                },
                {
                    "name": "B3",
                    "midi": 59,
                    "time": 242.35132800000284,
                    "velocity": 0.2047244094488189,
                    "duration": 0.05651850000000991
                },
                {
                    "name": "G#3",
                    "midi": 56,
                    "time": 242.35132800000284,
                    "velocity": 0.2047244094488189,
                    "duration": 0.05651850000000991
                },
                {
                    "name": "F3",
                    "midi": 53,
                    "time": 242.57740200000285,
                    "velocity": 0.2440944881889764,
                    "duration": 0.05651850000000991
                },
                {
                    "name": "C3",
                    "midi": 48,
                    "time": 242.80347600000286,
                    "velocity": 0.2755905511811024,
                    "duration": 0.05651850000000991
                },
                {
                    "name": "C4",
                    "midi": 60,
                    "time": 243.02955000000287,
                    "velocity": 0.25196850393700787,
                    "duration": 0.05651850000000991
                },
                {
                    "name": "E3",
                    "midi": 52,
                    "time": 243.02955000000287,
                    "velocity": 0.2125984251968504,
                    "duration": 0.05651850000000991
                },
                {
                    "name": "G3",
                    "midi": 55,
                    "time": 243.02955000000287,
                    "velocity": 0.2125984251968504,
                    "duration": 0.05651850000000991
                },
                {
                    "name": "C3",
                    "midi": 48,
                    "time": 243.25562400000288,
                    "velocity": 0.25196850393700787,
                    "duration": 0.05651850000000991
                },
                {
                    "name": "C4",
                    "midi": 60,
                    "time": 243.4816980000029,
                    "velocity": 0.2755905511811024,
                    "duration": 0.05651850000000991
                },
                {
                    "name": "G3",
                    "midi": 55,
                    "time": 243.4816980000029,
                    "velocity": 0.2283464566929134,
                    "duration": 0.05651850000000991
                },
                {
                    "name": "E3",
                    "midi": 52,
                    "time": 243.4816980000029,
                    "velocity": 0.2283464566929134,
                    "duration": 0.05651850000000991
                },
                {
                    "name": "C3",
                    "midi": 48,
                    "time": 243.7077720000029,
                    "velocity": 0.2440944881889764,
                    "duration": 0.05651850000000991
                },
                {
                    "name": "G3",
                    "midi": 55,
                    "time": 243.93384600000292,
                    "velocity": 0.2047244094488189,
                    "duration": 0.05651850000000991
                },
                {
                    "name": "E3",
                    "midi": 52,
                    "time": 243.93384600000292,
                    "velocity": 0.2047244094488189,
                    "duration": 0.05651850000000991
                },
                {
                    "name": "C4",
                    "midi": 60,
                    "time": 243.93384600000292,
                    "velocity": 0.2440944881889764,
                    "duration": 0.05651850000000991
                },
                {
                    "name": "C#3",
                    "midi": 49,
                    "time": 244.15992000000293,
                    "velocity": 0.2755905511811024,
                    "duration": 0.05651850000000991
                },
                {
                    "name": "F3",
                    "midi": 53,
                    "time": 244.38599400000294,
                    "velocity": 0.2047244094488189,
                    "duration": 0.05651850000000991
                },
                {
                    "name": "C#4",
                    "midi": 61,
                    "time": 244.38599400000294,
                    "velocity": 0.2440944881889764,
                    "duration": 0.05651850000000991
                },
                {
                    "name": "C#3",
                    "midi": 49,
                    "time": 244.61206800000295,
                    "velocity": 0.2440944881889764,
                    "duration": 0.05651850000000991
                },
                {
                    "name": "A#2",
                    "midi": 46,
                    "time": 244.83814200000296,
                    "velocity": 0.2755905511811024,
                    "duration": 0.2260740000000112
                },
                {
                    "name": "G3",
                    "midi": 55,
                    "time": 245.06421600000297,
                    "velocity": 0.2204724409448819,
                    "duration": 0.2260740000000112
                },
                {
                    "name": "A#3",
                    "midi": 58,
                    "time": 245.06421600000297,
                    "velocity": 0.25984251968503935,
                    "duration": 0.2260740000000112
                },
                {
                    "name": "C3",
                    "midi": 48,
                    "time": 245.29029000000298,
                    "velocity": 0.2204724409448819,
                    "duration": 0.1130369999999914
                },
                {
                    "name": "A#3",
                    "midi": 58,
                    "time": 245.29029000000298,
                    "velocity": 0.25984251968503935,
                    "duration": 0.1130369999999914
                },
                {
                    "name": "G3",
                    "midi": 55,
                    "time": 245.29029000000298,
                    "velocity": 0.2204724409448819,
                    "duration": 0.1130369999999914
                },
                {
                    "name": "F3",
                    "midi": 53,
                    "time": 245.51636400000297,
                    "velocity": 0.2677165354330709,
                    "duration": 0.452147999999994
                },
                {
                    "name": "G#3",
                    "midi": 56,
                    "time": 245.51636400000297,
                    "velocity": 0.31496062992125984,
                    "duration": 0.452147999999994
                },
                {
                    "name": "F3",
                    "midi": 53,
                    "time": 246.19458600000297,
                    "velocity": 0.2755905511811024,
                    "duration": 0.05651850000000991
                },
                {
                    "name": "C4",
                    "midi": 60,
                    "time": 246.42066000000298,
                    "velocity": 0.1968503937007874,
                    "duration": 0.05651850000000991
                },
                {
                    "name": "G#3",
                    "midi": 56,
                    "time": 246.42066000000298,
                    "velocity": 0.1968503937007874,
                    "duration": 0.05651850000000991
                },
                {
                    "name": "F4",
                    "midi": 65,
                    "time": 246.42066000000298,
                    "velocity": 0.23622047244094488,
                    "duration": 0.05651850000000991
                },
                {
                    "name": "F3",
                    "midi": 53,
                    "time": 246.646734000003,
                    "velocity": 0.23622047244094488,
                    "duration": 0.05651850000000991
                },
                {
                    "name": "F4",
                    "midi": 65,
                    "time": 246.872808000003,
                    "velocity": 0.2755905511811024,
                    "duration": 0.05651850000000991
                },
                {
                    "name": "G#3",
                    "midi": 56,
                    "time": 246.872808000003,
                    "velocity": 0.2283464566929134,
                    "duration": 0.05651850000000991
                },
                {
                    "name": "C4",
                    "midi": 60,
                    "time": 246.872808000003,
                    "velocity": 0.2283464566929134,
                    "duration": 0.05651850000000991
                },
                {
                    "name": "F3",
                    "midi": 53,
                    "time": 247.09888200000302,
                    "velocity": 0.2440944881889764,
                    "duration": 0.05651850000000991
                },
                {
                    "name": "G#3",
                    "midi": 56,
                    "time": 247.32495600000303,
                    "velocity": 0.2047244094488189,
                    "duration": 0.05651850000000991
                },
                {
                    "name": "C4",
                    "midi": 60,
                    "time": 247.32495600000303,
                    "velocity": 0.2047244094488189,
                    "duration": 0.05651850000000991
                },
                {
                    "name": "F4",
                    "midi": 65,
                    "time": 247.32495600000303,
                    "velocity": 0.2440944881889764,
                    "duration": 0.05651850000000991
                },
                {
                    "name": "F3",
                    "midi": 53,
                    "time": 247.55103000000304,
                    "velocity": 0.2755905511811024,
                    "duration": 0.05651850000000991
                },
                {
                    "name": "B3",
                    "midi": 59,
                    "time": 247.77710400000305,
                    "velocity": 0.2047244094488189,
                    "duration": 0.05651850000000991
                },
                {
                    "name": "D4",
                    "midi": 62,
                    "time": 247.77710400000305,
                    "velocity": 0.2440944881889764,
                    "duration": 0.05651850000000991
                },
                {
                    "name": "G#3",
                    "midi": 56,
                    "time": 247.77710400000305,
                    "velocity": 0.2047244094488189,
                    "duration": 0.05651850000000991
                },
                {
                    "name": "F3",
                    "midi": 53,
                    "time": 248.00317800000306,
                    "velocity": 0.2440944881889764,
                    "duration": 0.05651850000000991
                },
                {
                    "name": "C3",
                    "midi": 48,
                    "time": 248.22925200000307,
                    "velocity": 0.2755905511811024,
                    "duration": 0.05651850000000991
                },
                {
                    "name": "E3",
                    "midi": 52,
                    "time": 248.45532600000308,
                    "velocity": 0.2125984251968504,
                    "duration": 0.05651850000000991
                },
                {
                    "name": "C4",
                    "midi": 60,
                    "time": 248.45532600000308,
                    "velocity": 0.25196850393700787,
                    "duration": 0.05651850000000991
                },
                {
                    "name": "G3",
                    "midi": 55,
                    "time": 248.45532600000308,
                    "velocity": 0.2125984251968504,
                    "duration": 0.05651850000000991
                },
                {
                    "name": "C3",
                    "midi": 48,
                    "time": 248.6814000000031,
                    "velocity": 0.25196850393700787,
                    "duration": 0.05651850000000991
                },
                {
                    "name": "E3",
                    "midi": 52,
                    "time": 248.9074740000031,
                    "velocity": 0.2283464566929134,
                    "duration": 0.05651850000000991
                },
                {
                    "name": "C4",
                    "midi": 60,
                    "time": 248.9074740000031,
                    "velocity": 0.2755905511811024,
                    "duration": 0.05651850000000991
                },
                {
                    "name": "G3",
                    "midi": 55,
                    "time": 248.9074740000031,
                    "velocity": 0.2283464566929134,
                    "duration": 0.05651850000000991
                },
                {
                    "name": "C3",
                    "midi": 48,
                    "time": 249.13354800000312,
                    "velocity": 0.2440944881889764,
                    "duration": 0.05651850000000991
                },
                {
                    "name": "C4",
                    "midi": 60,
                    "time": 249.35962200000313,
                    "velocity": 0.2440944881889764,
                    "duration": 0.05651850000000991
                },
                {
                    "name": "E3",
                    "midi": 52,
                    "time": 249.35962200000313,
                    "velocity": 0.2047244094488189,
                    "duration": 0.05651850000000991
                },
                {
                    "name": "G3",
                    "midi": 55,
                    "time": 249.35962200000313,
                    "velocity": 0.2047244094488189,
                    "duration": 0.05651850000000991
                },
                {
                    "name": "C#3",
                    "midi": 49,
                    "time": 249.58569600000314,
                    "velocity": 0.2755905511811024,
                    "duration": 0.05651850000000991
                },
                {
                    "name": "C#4",
                    "midi": 61,
                    "time": 249.81177000000315,
                    "velocity": 0.2440944881889764,
                    "duration": 0.05651850000000991
                },
                {
                    "name": "F3",
                    "midi": 53,
                    "time": 249.81177000000315,
                    "velocity": 0.2047244094488189,
                    "duration": 0.05651850000000991
                },
                {
                    "name": "C#3",
                    "midi": 49,
                    "time": 250.03784400000316,
                    "velocity": 0.2440944881889764,
                    "duration": 0.05651850000000991
                },
                {
                    "name": "A#2",
                    "midi": 46,
                    "time": 250.26391800000317,
                    "velocity": 0.2755905511811024,
                    "duration": 0.2260740000000112
                },
                {
                    "name": "A#3",
                    "midi": 58,
                    "time": 250.48999200000318,
                    "velocity": 0.25984251968503935,
                    "duration": 0.2260740000000112
                },
                {
                    "name": "G3",
                    "midi": 55,
                    "time": 250.48999200000318,
                    "velocity": 0.2204724409448819,
                    "duration": 0.2260740000000112
                },
                {
                    "name": "G3",
                    "midi": 55,
                    "time": 250.7160660000032,
                    "velocity": 0.2204724409448819,
                    "duration": 0.2260740000000112
                },
                {
                    "name": "C3",
                    "midi": 48,
                    "time": 250.7160660000032,
                    "velocity": 0.2204724409448819,
                    "duration": 0.2260740000000112
                },
                {
                    "name": "A#3",
                    "midi": 58,
                    "time": 250.7160660000032,
                    "velocity": 0.25984251968503935,
                    "duration": 0.2260740000000112
                },
                {
                    "name": "G#3",
                    "midi": 56,
                    "time": 250.9421400000032,
                    "velocity": 0.31496062992125984,
                    "duration": 0.452147999999994
                },
                {
                    "name": "F3",
                    "midi": 53,
                    "time": 250.9421400000032,
                    "velocity": 0.2677165354330709,
                    "duration": 0.452147999999994
                },
                {
                    "name": "C2",
                    "midi": 36,
                    "time": 251.6203620000032,
                    "velocity": 0.47244094488188976,
                    "duration": 0.05651850000000991
                },
                {
                    "name": "C3",
                    "midi": 48,
                    "time": 251.84643600000322,
                    "velocity": 0.4330708661417323,
                    "duration": 0.05651850000000991
                },
                {
                    "name": "C2",
                    "midi": 36,
                    "time": 252.07251000000323,
                    "velocity": 0.47244094488188976,
                    "duration": 0.05651850000000991
                },
                {
                    "name": "C3",
                    "midi": 48,
                    "time": 252.29858400000325,
                    "velocity": 0.41732283464566927,
                    "duration": 0.05651850000000991
                },
                {
                    "name": "C2",
                    "midi": 36,
                    "time": 252.52465800000326,
                    "velocity": 0.47244094488188976,
                    "duration": 0.05651850000000991
                },
                {
                    "name": "C3",
                    "midi": 48,
                    "time": 252.75073200000327,
                    "velocity": 0.4094488188976378,
                    "duration": 0.05651850000000991
                },
                {
                    "name": "C2",
                    "midi": 36,
                    "time": 252.97680600000328,
                    "velocity": 0.3858267716535433,
                    "duration": 0.05651850000000991
                },
                {
                    "name": "C3",
                    "midi": 48,
                    "time": 253.2028800000033,
                    "velocity": 0.33858267716535434,
                    "duration": 0.05651850000000991
                },
                {
                    "name": "C2",
                    "midi": 36,
                    "time": 253.4289540000033,
                    "velocity": 0.33858267716535434,
                    "duration": 0.05651850000000991
                },
                {
                    "name": "C3",
                    "midi": 48,
                    "time": 253.6550280000033,
                    "velocity": 0.33858267716535434,
                    "duration": 0.05651850000000991
                },
                {
                    "name": "C2",
                    "midi": 36,
                    "time": 253.88110200000332,
                    "velocity": 0.3228346456692913,
                    "duration": 0.05651850000000991
                },
                {
                    "name": "C3",
                    "midi": 48,
                    "time": 254.10717600000334,
                    "velocity": 0.33858267716535434,
                    "duration": 0.05651850000000991
                },
                {
                    "name": "C2",
                    "midi": 36,
                    "time": 254.33325000000335,
                    "velocity": 0.47244094488188976,
                    "duration": 0.05651850000000991
                },
                {
                    "name": "C3",
                    "midi": 48,
                    "time": 254.55932400000336,
                    "velocity": 0.4330708661417323,
                    "duration": 0.05651850000000991
                },
                {
                    "name": "C2",
                    "midi": 36,
                    "time": 254.78539800000337,
                    "velocity": 0.47244094488188976,
                    "duration": 0.2260740000000112
                },
                {
                    "name": "C#2",
                    "midi": 37,
                    "time": 255.01147200000338,
                    "velocity": 0.47244094488188976,
                    "duration": 0.2260740000000112
                },
                {
                    "name": "C#3",
                    "midi": 49,
                    "time": 255.2375460000034,
                    "velocity": 0.3858267716535433,
                    "duration": 0.05651850000000991
                },
                {
                    "name": "C#2",
                    "midi": 37,
                    "time": 255.4636200000034,
                    "velocity": 0.44881889763779526,
                    "duration": 0.05651850000000991
                },
                {
                    "name": "C2",
                    "midi": 36,
                    "time": 255.6896940000034,
                    "velocity": 0.3858267716535433,
                    "duration": 0.05651850000000991
                },
                {
                    "name": "C3",
                    "midi": 48,
                    "time": 255.91576800000342,
                    "velocity": 0.33858267716535434,
                    "duration": 0.05651850000000991
                },
                {
                    "name": "C2",
                    "midi": 36,
                    "time": 256.1418420000034,
                    "velocity": 0.33858267716535434,
                    "duration": 0.056518499999981486
                },
                {
                    "name": "F2",
                    "midi": 41,
                    "time": 256.3679160000034,
                    "velocity": 0.33858267716535434,
                    "duration": 0.2260739999999828
                },
                {
                    "name": "C3",
                    "midi": 48,
                    "time": 257.0461380000034,
                    "velocity": 0.47244094488188976,
                    "duration": 0.056518499999981486
                },
                {
                    "name": "C4",
                    "midi": 60,
                    "time": 257.2722120000034,
                    "velocity": 0.4330708661417323,
                    "duration": 0.056518499999981486
                },
                {
                    "name": "C3",
                    "midi": 48,
                    "time": 257.49828600000336,
                    "velocity": 0.47244094488188976,
                    "duration": 0.056518499999981486
                },
                {
                    "name": "C4",
                    "midi": 60,
                    "time": 257.72436000000334,
                    "velocity": 0.41732283464566927,
                    "duration": 0.056518499999981486
                },
                {
                    "name": "C3",
                    "midi": 48,
                    "time": 257.9504340000033,
                    "velocity": 0.47244094488188976,
                    "duration": 0.056518499999981486
                },
                {
                    "name": "C4",
                    "midi": 60,
                    "time": 258.1765080000033,
                    "velocity": 0.4094488188976378,
                    "duration": 0.056518499999981486
                },
                {
                    "name": "B3",
                    "midi": 59,
                    "time": 258.4025820000033,
                    "velocity": 0.3858267716535433,
                    "duration": 0.056518499999981486
                },
                {
                    "name": "B2",
                    "midi": 47,
                    "time": 258.6286560000033,
                    "velocity": 0.33858267716535434,
                    "duration": 0.056518499999981486
                },
                {
                    "name": "B3",
                    "midi": 59,
                    "time": 258.85473000000326,
                    "velocity": 0.33858267716535434,
                    "duration": 0.056518499999981486
                },
                {
                    "name": "C4",
                    "midi": 60,
                    "time": 259.08080400000324,
                    "velocity": 0.33858267716535434,
                    "duration": 0.056518499999981486
                },
                {
                    "name": "C3",
                    "midi": 48,
                    "time": 259.3068780000032,
                    "velocity": 0.3228346456692913,
                    "duration": 0.056518499999981486
                },
                {
                    "name": "C4",
                    "midi": 60,
                    "time": 259.5329520000032,
                    "velocity": 0.33858267716535434,
                    "duration": 0.056518499999981486
                },
                {
                    "name": "C3",
                    "midi": 48,
                    "time": 259.7590260000032,
                    "velocity": 0.47244094488188976,
                    "duration": 0.056518499999981486
                },
                {
                    "name": "C4",
                    "midi": 60,
                    "time": 259.9851000000032,
                    "velocity": 0.4330708661417323,
                    "duration": 0.056518499999981486
                },
                {
                    "name": "C3",
                    "midi": 48,
                    "time": 260.21117400000315,
                    "velocity": 0.47244094488188976,
                    "duration": 0.2260739999999828
                },
                {
                    "name": "C#3",
                    "midi": 49,
                    "time": 260.43724800000314,
                    "velocity": 0.47244094488188976,
                    "duration": 0.2260739999999828
                },
                {
                    "name": "C#4",
                    "midi": 61,
                    "time": 260.6633220000031,
                    "velocity": 0.3858267716535433,
                    "duration": 0.056518499999981486
                },
                {
                    "name": "C#3",
                    "midi": 49,
                    "time": 260.8893960000031,
                    "velocity": 0.44881889763779526,
                    "duration": 0.056518499999981486
                },
                {
                    "name": "C#4",
                    "midi": 61,
                    "time": 261.1154700000031,
                    "velocity": 0.3858267716535433,
                    "duration": 0.056518499999981486
                },
                {
                    "name": "C#3",
                    "midi": 49,
                    "time": 261.34154400000307,
                    "velocity": 0.33858267716535434,
                    "duration": 0.056518499999981486
                },
                {
                    "name": "C#4",
                    "midi": 61,
                    "time": 261.56761800000305,
                    "velocity": 0.33858267716535434,
                    "duration": 0.056518499999981486
                },
                {
                    "name": "C#3",
                    "midi": 49,
                    "time": 261.79369200000303,
                    "velocity": 0.33858267716535434,
                    "duration": 0.11303700000001982
                },
                {
                    "name": "C#4",
                    "midi": 61,
                    "time": 262.0197660000031,
                    "velocity": 0.33858267716535434,
                    "duration": 0.11303700000001982
                },
                {
                    "name": "C#3",
                    "midi": 49,
                    "time": 262.2458400000031,
                    "velocity": 0.33858267716535434,
                    "duration": 0.11303700000001982
                },
                {
                    "name": "C#4",
                    "midi": 61,
                    "time": 262.47191400000315,
                    "velocity": 0.33858267716535434,
                    "duration": 0.11303700000001982
                },
                {
                    "name": "C#3",
                    "midi": 49,
                    "time": 262.6979880000032,
                    "velocity": 0.33858267716535434,
                    "duration": 0.11303700000001982
                },
                {
                    "name": "C#4",
                    "midi": 61,
                    "time": 262.92406200000323,
                    "velocity": 0.3464566929133858,
                    "duration": 0.11303700000001982
                },
                {
                    "name": "C#3",
                    "midi": 49,
                    "time": 263.1501360000033,
                    "velocity": 0.3543307086614173,
                    "duration": 0.11303700000001982
                },
                {
                    "name": "C#4",
                    "midi": 61,
                    "time": 263.3762100000033,
                    "velocity": 0.3937007874015748,
                    "duration": 0.11303700000001982
                },
                {
                    "name": "C#3",
                    "midi": 49,
                    "time": 263.60228400000335,
                    "velocity": 0.4015748031496063,
                    "duration": 0.11303700000001982
                },
                {
                    "name": "C3",
                    "midi": 48,
                    "time": 263.8283580000034,
                    "velocity": 0.4015748031496063,
                    "duration": 0.11303700000001982
                },
                {
                    "name": "C4",
                    "midi": 60,
                    "time": 264.05443200000343,
                    "velocity": 0.41732283464566927,
                    "duration": 0.11303700000001982
                },
                {
                    "name": "C3",
                    "midi": 48,
                    "time": 264.28050600000347,
                    "velocity": 0.44881889763779526,
                    "duration": 0.11303700000001982
                },
                {
                    "name": "F3",
                    "midi": 53,
                    "time": 264.5065800000035,
                    "velocity": 0.47244094488188976,
                    "duration": 0.11303700000001982
                },
                {
                    "name": "F3",
                    "midi": 53,
                    "time": 264.73265400000355,
                    "velocity": 0.4015748031496063,
                    "duration": 1.1303700000000276
                },
                {
                    "name": "E4",
                    "midi": 64,
                    "time": 264.73265400000355,
                    "velocity": 0.48031496062992124,
                    "duration": 1.1303700000000276
                },
                {
                    "name": "C#4",
                    "midi": 61,
                    "time": 264.73265400000355,
                    "velocity": 0.4015748031496063,
                    "duration": 1.1303700000000276
                },
                {
                    "name": "A#3",
                    "midi": 58,
                    "time": 264.73265400000355,
                    "velocity": 0.4015748031496063,
                    "duration": 1.1303700000000276
                },
                {
                    "name": "C4",
                    "midi": 60,
                    "time": 265.8630240000036,
                    "velocity": 0.4094488188976378,
                    "duration": 0.11303700000001982
                },
                {
                    "name": "F3",
                    "midi": 53,
                    "time": 265.8630240000036,
                    "velocity": 0.4094488188976378,
                    "duration": 0.11303700000001982
                },
                {
                    "name": "F4",
                    "midi": 65,
                    "time": 265.8630240000036,
                    "velocity": 0.4881889763779528,
                    "duration": 0.11303700000001982
                },
                {
                    "name": "G#3",
                    "midi": 56,
                    "time": 265.8630240000036,
                    "velocity": 0.4094488188976378,
                    "duration": 0.11303700000001982
                },
                {
                    "name": "C#4",
                    "midi": 61,
                    "time": 266.0890980000036,
                    "velocity": 0.4015748031496063,
                    "duration": 1.1303700000000276
                },
                {
                    "name": "F3",
                    "midi": 53,
                    "time": 266.0890980000036,
                    "velocity": 0.4015748031496063,
                    "duration": 1.1303700000000276
                },
                {
                    "name": "A#3",
                    "midi": 58,
                    "time": 266.0890980000036,
                    "velocity": 0.4015748031496063,
                    "duration": 1.1303700000000276
                },
                {
                    "name": "E4",
                    "midi": 64,
                    "time": 266.0890980000036,
                    "velocity": 0.48031496062992124,
                    "duration": 1.1303700000000276
                },
                {
                    "name": "G#3",
                    "midi": 56,
                    "time": 267.21946800000364,
                    "velocity": 0.4094488188976378,
                    "duration": 0.11303700000001982
                },
                {
                    "name": "F3",
                    "midi": 53,
                    "time": 267.21946800000364,
                    "velocity": 0.4094488188976378,
                    "duration": 0.11303700000001982
                },
                {
                    "name": "F4",
                    "midi": 65,
                    "time": 267.21946800000364,
                    "velocity": 0.4881889763779528,
                    "duration": 0.11303700000001982
                },
                {
                    "name": "C4",
                    "midi": 60,
                    "time": 267.21946800000364,
                    "velocity": 0.4094488188976378,
                    "duration": 0.11303700000001982
                },
                {
                    "name": "E4",
                    "midi": 64,
                    "time": 267.4455420000037,
                    "velocity": 0.48031496062992124,
                    "duration": 1.1303700000000276
                },
                {
                    "name": "A#3",
                    "midi": 58,
                    "time": 267.4455420000037,
                    "velocity": 0.4015748031496063,
                    "duration": 1.1303700000000276
                },
                {
                    "name": "F3",
                    "midi": 53,
                    "time": 267.4455420000037,
                    "velocity": 0.4015748031496063,
                    "duration": 1.1303700000000276
                },
                {
                    "name": "C#4",
                    "midi": 61,
                    "time": 267.4455420000037,
                    "velocity": 0.4015748031496063,
                    "duration": 1.1303700000000276
                },
                {
                    "name": "C4",
                    "midi": 60,
                    "time": 268.5759120000037,
                    "velocity": 0.4094488188976378,
                    "duration": 0.11303700000001982
                },
                {
                    "name": "F3",
                    "midi": 53,
                    "time": 268.5759120000037,
                    "velocity": 0.4094488188976378,
                    "duration": 0.11303700000001982
                },
                {
                    "name": "F4",
                    "midi": 65,
                    "time": 268.5759120000037,
                    "velocity": 0.4881889763779528,
                    "duration": 0.11303700000001982
                },
                {
                    "name": "G#3",
                    "midi": 56,
                    "time": 268.5759120000037,
                    "velocity": 0.4094488188976378,
                    "duration": 0.11303700000001982
                },
                {
                    "name": "C#4",
                    "midi": 61,
                    "time": 268.80198600000375,
                    "velocity": 0.4015748031496063,
                    "duration": 1.808591999999976
                },
                {
                    "name": "E4",
                    "midi": 64,
                    "time": 268.80198600000375,
                    "velocity": 0.48031496062992124,
                    "duration": 1.808591999999976
                },
                {
                    "name": "F3",
                    "midi": 53,
                    "time": 268.80198600000375,
                    "velocity": 0.4015748031496063,
                    "duration": 1.808591999999976
                },
                {
                    "name": "A#3",
                    "midi": 58,
                    "time": 268.80198600000375,
                    "velocity": 0.4015748031496063,
                    "duration": 1.808591999999976
                },
                {
                    "name": "F3",
                    "midi": 53,
                    "time": 270.6105780000037,
                    "velocity": 0.2755905511811024,
                    "duration": 0.056518499999981486
                },
                {
                    "name": "G#3",
                    "midi": 56,
                    "time": 270.8366520000037,
                    "velocity": 0.1968503937007874,
                    "duration": 0.056518499999981486
                },
                {
                    "name": "C4",
                    "midi": 60,
                    "time": 270.8366520000037,
                    "velocity": 0.1968503937007874,
                    "duration": 0.056518499999981486
                },
                {
                    "name": "F4",
                    "midi": 65,
                    "time": 270.8366520000037,
                    "velocity": 0.23622047244094488,
                    "duration": 0.056518499999981486
                },
                {
                    "name": "F3",
                    "midi": 53,
                    "time": 271.0627260000037,
                    "velocity": 0.23622047244094488,
                    "duration": 0.056518499999981486
                },
                {
                    "name": "F4",
                    "midi": 65,
                    "time": 271.2888000000037,
                    "velocity": 0.2755905511811024,
                    "duration": 0.056518499999981486
                },
                {
                    "name": "C4",
                    "midi": 60,
                    "time": 271.2888000000037,
                    "velocity": 0.2283464566929134,
                    "duration": 0.056518499999981486
                },
                {
                    "name": "G#3",
                    "midi": 56,
                    "time": 271.2888000000037,
                    "velocity": 0.2283464566929134,
                    "duration": 0.056518499999981486
                },
                {
                    "name": "F3",
                    "midi": 53,
                    "time": 271.51487400000366,
                    "velocity": 0.2440944881889764,
                    "duration": 0.056518499999981486
                },
                {
                    "name": "F4",
                    "midi": 65,
                    "time": 271.74094800000364,
                    "velocity": 0.2440944881889764,
                    "duration": 0.056518499999981486
                },
                {
                    "name": "G#3",
                    "midi": 56,
                    "time": 271.74094800000364,
                    "velocity": 0.2047244094488189,
                    "duration": 0.056518499999981486
                },
                {
                    "name": "C4",
                    "midi": 60,
                    "time": 271.74094800000364,
                    "velocity": 0.2047244094488189,
                    "duration": 0.056518499999981486
                },
                {
                    "name": "F3",
                    "midi": 53,
                    "time": 271.9670220000036,
                    "velocity": 0.2755905511811024,
                    "duration": 0.056518499999981486
                },
                {
                    "name": "D4",
                    "midi": 62,
                    "time": 272.1930960000036,
                    "velocity": 0.2440944881889764,
                    "duration": 0.056518499999981486
                },
                {
                    "name": "B3",
                    "midi": 59,
                    "time": 272.1930960000036,
                    "velocity": 0.2047244094488189,
                    "duration": 0.056518499999981486
                },
                {
                    "name": "G#3",
                    "midi": 56,
                    "time": 272.1930960000036,
                    "velocity": 0.2047244094488189,
                    "duration": 0.056518499999981486
                },
                {
                    "name": "F3",
                    "midi": 53,
                    "time": 272.4191700000036,
                    "velocity": 0.2440944881889764,
                    "duration": 0.056518499999981486
                },
                {
                    "name": "C3",
                    "midi": 48,
                    "time": 272.6452440000036,
                    "velocity": 0.2755905511811024,
                    "duration": 0.056518499999981486
                },
                {
                    "name": "E3",
                    "midi": 52,
                    "time": 272.87131800000355,
                    "velocity": 0.2125984251968504,
                    "duration": 0.056518499999981486
                },
                {
                    "name": "C4",
                    "midi": 60,
                    "time": 272.87131800000355,
                    "velocity": 0.25196850393700787,
                    "duration": 0.056518499999981486
                },
                {
                    "name": "G3",
                    "midi": 55,
                    "time": 272.87131800000355,
                    "velocity": 0.2125984251968504,
                    "duration": 0.056518499999981486
                },
                {
                    "name": "C3",
                    "midi": 48,
                    "time": 273.09739200000354,
                    "velocity": 0.25196850393700787,
                    "duration": 0.056518499999981486
                },
                {
                    "name": "C4",
                    "midi": 60,
                    "time": 273.3234660000035,
                    "velocity": 0.2755905511811024,
                    "duration": 0.056518499999981486
                },
                {
                    "name": "E3",
                    "midi": 52,
                    "time": 273.3234660000035,
                    "velocity": 0.2283464566929134,
                    "duration": 0.056518499999981486
                },
                {
                    "name": "G3",
                    "midi": 55,
                    "time": 273.3234660000035,
                    "velocity": 0.2283464566929134,
                    "duration": 0.056518499999981486
                },
                {
                    "name": "C3",
                    "midi": 48,
                    "time": 273.5495400000035,
                    "velocity": 0.2440944881889764,
                    "duration": 0.056518499999981486
                },
                {
                    "name": "C4",
                    "midi": 60,
                    "time": 273.7756140000035,
                    "velocity": 0.2440944881889764,
                    "duration": 0.056518499999981486
                },
                {
                    "name": "E3",
                    "midi": 52,
                    "time": 273.7756140000035,
                    "velocity": 0.2047244094488189,
                    "duration": 0.056518499999981486
                },
                {
                    "name": "G3",
                    "midi": 55,
                    "time": 273.7756140000035,
                    "velocity": 0.2047244094488189,
                    "duration": 0.056518499999981486
                },
                {
                    "name": "C#3",
                    "midi": 49,
                    "time": 274.00168800000347,
                    "velocity": 0.2755905511811024,
                    "duration": 0.056518499999981486
                },
                {
                    "name": "C#4",
                    "midi": 61,
                    "time": 274.22776200000345,
                    "velocity": 0.2440944881889764,
                    "duration": 0.056518499999981486
                },
                {
                    "name": "F3",
                    "midi": 53,
                    "time": 274.22776200000345,
                    "velocity": 0.2047244094488189,
                    "duration": 0.056518499999981486
                },
                {
                    "name": "C#3",
                    "midi": 49,
                    "time": 274.45383600000343,
                    "velocity": 0.2440944881889764,
                    "duration": 0.056518499999981486
                },
                {
                    "name": "A#2",
                    "midi": 46,
                    "time": 274.6799100000034,
                    "velocity": 0.2755905511811024,
                    "duration": 0.2260739999999828
                },
                {
                    "name": "A#3",
                    "midi": 58,
                    "time": 274.9059840000034,
                    "velocity": 0.25984251968503935,
                    "duration": 0.2260739999999828
                },
                {
                    "name": "G3",
                    "midi": 55,
                    "time": 274.9059840000034,
                    "velocity": 0.2204724409448819,
                    "duration": 0.2260739999999828
                },
                {
                    "name": "C3",
                    "midi": 48,
                    "time": 275.1320580000034,
                    "velocity": 0.2204724409448819,
                    "duration": 0.11303700000001982
                },
                {
                    "name": "A#3",
                    "midi": 58,
                    "time": 275.1320580000034,
                    "velocity": 0.25984251968503935,
                    "duration": 0.11303700000001982
                },
                {
                    "name": "G3",
                    "midi": 55,
                    "time": 275.1320580000034,
                    "velocity": 0.2204724409448819,
                    "duration": 0.11303700000001982
                },
                {
                    "name": "G#3",
                    "midi": 56,
                    "time": 275.3581320000034,
                    "velocity": 0.31496062992125984,
                    "duration": 0.4521480000000224
                },
                {
                    "name": "F3",
                    "midi": 53,
                    "time": 275.3581320000034,
                    "velocity": 0.2677165354330709,
                    "duration": 0.4521480000000224
                },
                {
                    "name": "F3",
                    "midi": 53,
                    "time": 276.0363540000034,
                    "velocity": 0.2755905511811024,
                    "duration": 0.056518499999981486
                },
                {
                    "name": "F4",
                    "midi": 65,
                    "time": 276.2624280000034,
                    "velocity": 0.23622047244094488,
                    "duration": 0.056518499999981486
                },
                {
                    "name": "G#3",
                    "midi": 56,
                    "time": 276.2624280000034,
                    "velocity": 0.1968503937007874,
                    "duration": 0.056518499999981486
                },
                {
                    "name": "C4",
                    "midi": 60,
                    "time": 276.2624280000034,
                    "velocity": 0.1968503937007874,
                    "duration": 0.056518499999981486
                },
                {
                    "name": "F3",
                    "midi": 53,
                    "time": 276.4885020000034,
                    "velocity": 0.23622047244094488,
                    "duration": 0.056518499999981486
                },
                {
                    "name": "F4",
                    "midi": 65,
                    "time": 276.7145760000034,
                    "velocity": 0.2755905511811024,
                    "duration": 0.056518499999981486
                },
                {
                    "name": "G#3",
                    "midi": 56,
                    "time": 276.7145760000034,
                    "velocity": 0.2283464566929134,
                    "duration": 0.056518499999981486
                },
                {
                    "name": "C4",
                    "midi": 60,
                    "time": 276.7145760000034,
                    "velocity": 0.2283464566929134,
                    "duration": 0.056518499999981486
                },
                {
                    "name": "F3",
                    "midi": 53,
                    "time": 276.94065000000336,
                    "velocity": 0.2440944881889764,
                    "duration": 0.056518499999981486
                },
                {
                    "name": "F4",
                    "midi": 65,
                    "time": 277.16672400000334,
                    "velocity": 0.2440944881889764,
                    "duration": 0.056518499999981486
                },
                {
                    "name": "C4",
                    "midi": 60,
                    "time": 277.16672400000334,
                    "velocity": 0.2047244094488189,
                    "duration": 0.056518499999981486
                },
                {
                    "name": "G#3",
                    "midi": 56,
                    "time": 277.16672400000334,
                    "velocity": 0.2047244094488189,
                    "duration": 0.056518499999981486
                },
                {
                    "name": "F3",
                    "midi": 53,
                    "time": 277.3927980000033,
                    "velocity": 0.2755905511811024,
                    "duration": 0.056518499999981486
                },
                {
                    "name": "D4",
                    "midi": 62,
                    "time": 277.6188720000033,
                    "velocity": 0.2440944881889764,
                    "duration": 0.056518499999981486
                },
                {
                    "name": "G#3",
                    "midi": 56,
                    "time": 277.6188720000033,
                    "velocity": 0.2047244094488189,
                    "duration": 0.056518499999981486
                },
                {
                    "name": "B3",
                    "midi": 59,
                    "time": 277.6188720000033,
                    "velocity": 0.2047244094488189,
                    "duration": 0.056518499999981486
                },
                {
                    "name": "F3",
                    "midi": 53,
                    "time": 277.8449460000033,
                    "velocity": 0.2440944881889764,
                    "duration": 0.056518499999981486
                },
                {
                    "name": "C3",
                    "midi": 48,
                    "time": 278.0710200000033,
                    "velocity": 0.2755905511811024,
                    "duration": 0.056518499999981486
                },
                {
                    "name": "G3",
                    "midi": 55,
                    "time": 278.29709400000326,
                    "velocity": 0.2125984251968504,
                    "duration": 0.056518499999981486
                },
                {
                    "name": "E3",
                    "midi": 52,
                    "time": 278.29709400000326,
                    "velocity": 0.2125984251968504,
                    "duration": 0.056518499999981486
                },
                {
                    "name": "C4",
                    "midi": 60,
                    "time": 278.29709400000326,
                    "velocity": 0.25196850393700787,
                    "duration": 0.056518499999981486
                },
                {
                    "name": "C3",
                    "midi": 48,
                    "time": 278.52316800000324,
                    "velocity": 0.25196850393700787,
                    "duration": 0.056518499999981486
                },
                {
                    "name": "E3",
                    "midi": 52,
                    "time": 278.7492420000032,
                    "velocity": 0.2283464566929134,
                    "duration": 0.056518499999981486
                },
                {
                    "name": "G3",
                    "midi": 55,
                    "time": 278.7492420000032,
                    "velocity": 0.2283464566929134,
                    "duration": 0.056518499999981486
                },
                {
                    "name": "C4",
                    "midi": 60,
                    "time": 278.7492420000032,
                    "velocity": 0.2755905511811024,
                    "duration": 0.056518499999981486
                },
                {
                    "name": "C3",
                    "midi": 48,
                    "time": 278.9753160000032,
                    "velocity": 0.2440944881889764,
                    "duration": 0.056518499999981486
                },
                {
                    "name": "E3",
                    "midi": 52,
                    "time": 279.2013900000032,
                    "velocity": 0.2047244094488189,
                    "duration": 0.056518499999981486
                },
                {
                    "name": "G3",
                    "midi": 55,
                    "time": 279.2013900000032,
                    "velocity": 0.2047244094488189,
                    "duration": 0.056518499999981486
                },
                {
                    "name": "C4",
                    "midi": 60,
                    "time": 279.2013900000032,
                    "velocity": 0.2440944881889764,
                    "duration": 0.056518499999981486
                },
                {
                    "name": "C#3",
                    "midi": 49,
                    "time": 279.42746400000317,
                    "velocity": 0.2755905511811024,
                    "duration": 0.056518499999981486
                },
                {
                    "name": "F3",
                    "midi": 53,
                    "time": 279.65353800000315,
                    "velocity": 0.2047244094488189,
                    "duration": 0.056518499999981486
                },
                {
                    "name": "C#4",
                    "midi": 61,
                    "time": 279.65353800000315,
                    "velocity": 0.2440944881889764,
                    "duration": 0.056518499999981486
                },
                {
                    "name": "C#3",
                    "midi": 49,
                    "time": 279.87961200000314,
                    "velocity": 0.2440944881889764,
                    "duration": 0.056518499999981486
                },
                {
                    "name": "D3",
                    "midi": 50,
                    "time": 280.1056860000031,
                    "velocity": 0.2755905511811024,
                    "duration": 0.056518499999981486
                },
                {
                    "name": "D4",
                    "midi": 62,
                    "time": 280.3317600000031,
                    "velocity": 0.2440944881889764,
                    "duration": 0.056518499999981486
                },
                {
                    "name": "A#3",
                    "midi": 58,
                    "time": 280.3317600000031,
                    "velocity": 0.2440944881889764,
                    "duration": 0.056518499999981486
                },
                {
                    "name": "D3",
                    "midi": 50,
                    "time": 280.5578340000031,
                    "velocity": 0.2440944881889764,
                    "duration": 0.056518499999981486
                },
                {
                    "name": "D#3",
                    "midi": 51,
                    "time": 280.78390800000307,
                    "velocity": 0.30708661417322836,
                    "duration": 0.056518499999981486
                },
                {
                    "name": "A#3",
                    "midi": 58,
                    "time": 281.00998200000305,
                    "velocity": 0.25984251968503935,
                    "duration": 0.056518499999981486
                },
                {
                    "name": "D#4",
                    "midi": 63,
                    "time": 281.00998200000305,
                    "velocity": 0.25984251968503935,
                    "duration": 0.056518499999981486
                },
                {
                    "name": "D#3",
                    "midi": 51,
                    "time": 281.23605600000303,
                    "velocity": 0.25984251968503935,
                    "duration": 0.056518499999981486
                },
                {
                    "name": "C3",
                    "midi": 48,
                    "time": 281.462130000003,
                    "velocity": 0.3228346456692913,
                    "duration": 0.056518499999981486
                },
                {
                    "name": "C4",
                    "midi": 60,
                    "time": 281.688204000003,
                    "velocity": 0.25196850393700787,
                    "duration": 0.056518499999981486
                },
                {
                    "name": "C3",
                    "midi": 48,
                    "time": 281.914278000003,
                    "velocity": 0.2440944881889764,
                    "duration": 0.056518499999981486
                },
                {
                    "name": "B2",
                    "midi": 47,
                    "time": 282.14035200000296,
                    "velocity": 0.31496062992125984,
                    "duration": 0.056518499999981486
                },
                {
                    "name": "B3",
                    "midi": 59,
                    "time": 282.36642600000295,
                    "velocity": 0.28346456692913385,
                    "duration": 0.056518499999981486
                },
                {
                    "name": "B2",
                    "midi": 47,
                    "time": 282.59250000000293,
                    "velocity": 0.28346456692913385,
                    "duration": 0.056518499999981486
                },
                {
                    "name": "A#2",
                    "midi": 46,
                    "time": 282.8185740000029,
                    "velocity": 0.4015748031496063,
                    "duration": 0.056518499999981486
                },
                {
                    "name": "F3",
                    "midi": 53,
                    "time": 283.0446480000029,
                    "velocity": 0.28346456692913385,
                    "duration": 0.056518499999981486
                },
                {
                    "name": "A#3",
                    "midi": 58,
                    "time": 283.0446480000029,
                    "velocity": 0.28346456692913385,
                    "duration": 0.056518499999981486
                },
                {
                    "name": "D4",
                    "midi": 62,
                    "time": 283.0446480000029,
                    "velocity": 0.33858267716535434,
                    "duration": 0.056518499999981486
                },
                {
                    "name": "A#2",
                    "midi": 46,
                    "time": 283.2707220000029,
                    "velocity": 0.44881889763779526,
                    "duration": 0.056518499999981486
                },
                {
                    "name": "F3",
                    "midi": 53,
                    "time": 283.49679600000286,
                    "velocity": 0.30708661417322836,
                    "duration": 0.056518499999981486
                },
                {
                    "name": "D4",
                    "midi": 62,
                    "time": 283.49679600000286,
                    "velocity": 0.36220472440944884,
                    "duration": 0.056518499999981486
                },
                {
                    "name": "A#3",
                    "midi": 58,
                    "time": 283.49679600000286,
                    "velocity": 0.30708661417322836,
                    "duration": 0.056518499999981486
                },
                {
                    "name": "A#2",
                    "midi": 46,
                    "time": 283.72287000000284,
                    "velocity": 0.4330708661417323,
                    "duration": 0.056518499999981486
                },
                {
                    "name": "F3",
                    "midi": 53,
                    "time": 283.9489440000028,
                    "velocity": 0.31496062992125984,
                    "duration": 0.056518499999981486
                },
                {
                    "name": "A#3",
                    "midi": 58,
                    "time": 283.9489440000028,
                    "velocity": 0.31496062992125984,
                    "duration": 0.056518499999981486
                },
                {
                    "name": "D4",
                    "midi": 62,
                    "time": 283.9489440000028,
                    "velocity": 0.3779527559055118,
                    "duration": 0.056518499999981486
                },
                {
                    "name": "A#2",
                    "midi": 46,
                    "time": 284.1750180000028,
                    "velocity": 0.48031496062992124,
                    "duration": 0.056518499999981486
                },
                {
                    "name": "F#3",
                    "midi": 54,
                    "time": 284.4010920000028,
                    "velocity": 0.30708661417322836,
                    "duration": 0.056518499999981486
                },
                {
                    "name": "A3",
                    "midi": 57,
                    "time": 284.4010920000028,
                    "velocity": 0.30708661417322836,
                    "duration": 0.056518499999981486
                },
                {
                    "name": "D#4",
                    "midi": 63,
                    "time": 284.4010920000028,
                    "velocity": 0.3700787401574803,
                    "duration": 0.056518499999981486
                },
                {
                    "name": "A#2",
                    "midi": 46,
                    "time": 284.6271660000028,
                    "velocity": 0.47244094488188976,
                    "duration": 0.056518499999981486
                },
                {
                    "name": "A3",
                    "midi": 57,
                    "time": 284.85324000000276,
                    "velocity": 0.3779527559055118,
                    "duration": 0.056518499999981486
                },
                {
                    "name": "D#4",
                    "midi": 63,
                    "time": 284.85324000000276,
                    "velocity": 0.44881889763779526,
                    "duration": 0.056518499999981486
                },
                {
                    "name": "F#3",
                    "midi": 54,
                    "time": 284.85324000000276,
                    "velocity": 0.3779527559055118,
                    "duration": 0.056518499999981486
                },
                {
                    "name": "A#2",
                    "midi": 46,
                    "time": 285.07931400000274,
                    "velocity": 0.36220472440944884,
                    "duration": 0.056518499999981486
                },
                {
                    "name": "D#4",
                    "midi": 63,
                    "time": 285.3053880000027,
                    "velocity": 0.3543307086614173,
                    "duration": 0.056518499999981486
                },
                {
                    "name": "A3",
                    "midi": 57,
                    "time": 285.3053880000027,
                    "velocity": 0.2992125984251969,
                    "duration": 0.056518499999981486
                },
                {
                    "name": "F#3",
                    "midi": 54,
                    "time": 285.3053880000027,
                    "velocity": 0.2992125984251969,
                    "duration": 0.056518499999981486
                },
                {
                    "name": "A#2",
                    "midi": 46,
                    "time": 285.5314620000027,
                    "velocity": 0.4015748031496063,
                    "duration": 0.056518499999981486
                },
                {
                    "name": "A#3",
                    "midi": 58,
                    "time": 285.7575360000027,
                    "velocity": 0.28346456692913385,
                    "duration": 0.056518499999981486
                },
                {
                    "name": "F3",
                    "midi": 53,
                    "time": 285.7575360000027,
                    "velocity": 0.28346456692913385,
                    "duration": 0.056518499999981486
                },
                {
                    "name": "D4",
                    "midi": 62,
                    "time": 285.7575360000027,
                    "velocity": 0.33858267716535434,
                    "duration": 0.056518499999981486
                },
                {
                    "name": "A#2",
                    "midi": 46,
                    "time": 285.98361000000267,
                    "velocity": 0.44881889763779526,
                    "duration": 0.056518499999981486
                },
                {
                    "name": "D4",
                    "midi": 62,
                    "time": 286.20968400000265,
                    "velocity": 0.36220472440944884,
                    "duration": 0.056518499999981486
                },
                {
                    "name": "A#3",
                    "midi": 58,
                    "time": 286.20968400000265,
                    "velocity": 0.30708661417322836,
                    "duration": 0.056518499999981486
                },
                {
                    "name": "F3",
                    "midi": 53,
                    "time": 286.20968400000265,
                    "velocity": 0.30708661417322836,
                    "duration": 0.056518499999981486
                },
                {
                    "name": "A#2",
                    "midi": 46,
                    "time": 286.43575800000264,
                    "velocity": 0.4330708661417323,
                    "duration": 0.056518499999981486
                },
                {
                    "name": "A#3",
                    "midi": 58,
                    "time": 286.6618320000026,
                    "velocity": 0.31496062992125984,
                    "duration": 0.056518499999981486
                },
                {
                    "name": "F3",
                    "midi": 53,
                    "time": 286.6618320000026,
                    "velocity": 0.31496062992125984,
                    "duration": 0.056518499999981486
                },
                {
                    "name": "D4",
                    "midi": 62,
                    "time": 286.6618320000026,
                    "velocity": 0.3779527559055118,
                    "duration": 0.056518499999981486
                },
                {
                    "name": "A#2",
                    "midi": 46,
                    "time": 286.8879060000026,
                    "velocity": 0.48031496062992124,
                    "duration": 0.056518499999981486
                },
                {
                    "name": "A3",
                    "midi": 57,
                    "time": 287.1139800000026,
                    "velocity": 0.30708661417322836,
                    "duration": 0.056518499999981486
                },
                {
                    "name": "F#3",
                    "midi": 54,
                    "time": 287.1139800000026,
                    "velocity": 0.30708661417322836,
                    "duration": 0.056518499999981486
                },
                {
                    "name": "D#4",
                    "midi": 63,
                    "time": 287.1139800000026,
                    "velocity": 0.3700787401574803,
                    "duration": 0.056518499999981486
                },
                {
                    "name": "A#2",
                    "midi": 46,
                    "time": 287.34005400000257,
                    "velocity": 0.47244094488188976,
                    "duration": 0.056518499999981486
                },
                {
                    "name": "F#3",
                    "midi": 54,
                    "time": 287.56612800000255,
                    "velocity": 0.3779527559055118,
                    "duration": 0.056518499999981486
                },
                {
                    "name": "A3",
                    "midi": 57,
                    "time": 287.56612800000255,
                    "velocity": 0.3779527559055118,
                    "duration": 0.056518499999981486
                },
                {
                    "name": "D#4",
                    "midi": 63,
                    "time": 287.56612800000255,
                    "velocity": 0.44881889763779526,
                    "duration": 0.056518499999981486
                },
                {
                    "name": "A#2",
                    "midi": 46,
                    "time": 287.79220200000253,
                    "velocity": 0.36220472440944884,
                    "duration": 0.056518499999981486
                },
                {
                    "name": "A3",
                    "midi": 57,
                    "time": 288.0182760000025,
                    "velocity": 0.2992125984251969,
                    "duration": 0.056518499999981486
                },
                {
                    "name": "F#3",
                    "midi": 54,
                    "time": 288.0182760000025,
                    "velocity": 0.2992125984251969,
                    "duration": 0.056518499999981486
                },
                {
                    "name": "D#4",
                    "midi": 63,
                    "time": 288.0182760000025,
                    "velocity": 0.3543307086614173,
                    "duration": 0.056518499999981486
                },
                {
                    "name": "A#2",
                    "midi": 46,
                    "time": 288.2443500000025,
                    "velocity": 0.4015748031496063,
                    "duration": 0.056518499999981486
                },
                {
                    "name": "F3",
                    "midi": 53,
                    "time": 288.4704240000025,
                    "velocity": 0.28346456692913385,
                    "duration": 0.056518499999981486
                },
                {
                    "name": "A#3",
                    "midi": 58,
                    "time": 288.4704240000025,
                    "velocity": 0.28346456692913385,
                    "duration": 0.056518499999981486
                },
                {
                    "name": "D4",
                    "midi": 62,
                    "time": 288.4704240000025,
                    "velocity": 0.33858267716535434,
                    "duration": 0.056518499999981486
                },
                {
                    "name": "G#2",
                    "midi": 44,
                    "time": 288.69649800000246,
                    "velocity": 0.44881889763779526,
                    "duration": 0.056518499999981486
                },
                {
                    "name": "G#3",
                    "midi": 56,
                    "time": 288.92257200000245,
                    "velocity": 0.36220472440944884,
                    "duration": 0.056518499999981486
                },
                {
                    "name": "G2",
                    "midi": 43,
                    "time": 289.14864600000243,
                    "velocity": 0.4330708661417323,
                    "duration": 0.056518499999981486
                },
                {
                    "name": "G3",
                    "midi": 55,
                    "time": 289.3747200000024,
                    "velocity": 0.3779527559055118,
                    "duration": 0.056518499999981486
                },
                {
                    "name": "C3",
                    "midi": 48,
                    "time": 289.6007940000024,
                    "velocity": 0.4015748031496063,
                    "duration": 0.056518499999981486
                },
                {
                    "name": "C4",
                    "midi": 60,
                    "time": 289.8268680000024,
                    "velocity": 0.33858267716535434,
                    "duration": 0.056518499999981486
                },
                {
                    "name": "A#2",
                    "midi": 46,
                    "time": 290.05294200000236,
                    "velocity": 0.44881889763779526,
                    "duration": 0.056518499999981486
                },
                {
                    "name": "A#3",
                    "midi": 58,
                    "time": 290.27901600000234,
                    "velocity": 0.36220472440944884,
                    "duration": 0.056518499999981486
                },
                {
                    "name": "G2",
                    "midi": 43,
                    "time": 290.5050900000023,
                    "velocity": 0.4330708661417323,
                    "duration": 0.056518499999981486
                },
                {
                    "name": "G3",
                    "midi": 55,
                    "time": 290.7311640000023,
                    "velocity": 0.3779527559055118,
                    "duration": 0.056518499999981486
                },
                {
                    "name": "G#2",
                    "midi": 44,
                    "time": 290.9572380000023,
                    "velocity": 0.44881889763779526,
                    "duration": 0.056518499999981486
                },
                {
                    "name": "G#3",
                    "midi": 56,
                    "time": 291.1833120000023,
                    "velocity": 0.3858267716535433,
                    "duration": 0.056518499999981486
                },
                {
                    "name": "A#1",
                    "midi": 34,
                    "time": 291.40938600000226,
                    "velocity": 0.44881889763779526,
                    "duration": 0.056518499999981486
                },
                {
                    "name": "A#2",
                    "midi": 46,
                    "time": 291.63546000000224,
                    "velocity": 0.36220472440944884,
                    "duration": 0.056518499999981486
                },
                {
                    "name": "C2",
                    "midi": 36,
                    "time": 291.8615340000022,
                    "velocity": 0.5039370078740157,
                    "duration": 0.056518499999981486
                },
                {
                    "name": "C3",
                    "midi": 48,
                    "time": 292.0876080000022,
                    "velocity": 0.4566929133858268,
                    "duration": 0.056518499999981486
                },
                {
                    "name": "F1",
                    "midi": 29,
                    "time": 292.3136820000022,
                    "velocity": 0.4566929133858268,
                    "duration": 0.11303700000001982
                },
                {
                    "name": "F2",
                    "midi": 41,
                    "time": 292.3136820000022,
                    "velocity": 0.5118110236220472,
                    "duration": 0.11303700000001982
                },
                {
                    "name": "C#4",
                    "midi": 61,
                    "time": 292.5397560000022,
                    "velocity": 0.4015748031496063,
                    "duration": 1.1303700000000276
                },
                {
                    "name": "F3",
                    "midi": 53,
                    "time": 292.5397560000022,
                    "velocity": 0.4015748031496063,
                    "duration": 1.1303700000000276
                },
                {
                    "name": "E4",
                    "midi": 64,
                    "time": 292.5397560000022,
                    "velocity": 0.48031496062992124,
                    "duration": 1.1303700000000276
                },
                {
                    "name": "A#3",
                    "midi": 58,
                    "time": 292.5397560000022,
                    "velocity": 0.4015748031496063,
                    "duration": 1.1303700000000276
                },
                {
                    "name": "G#3",
                    "midi": 56,
                    "time": 293.67012600000226,
                    "velocity": 0.4094488188976378,
                    "duration": 0.11303700000001982
                },
                {
                    "name": "C4",
                    "midi": 60,
                    "time": 293.67012600000226,
                    "velocity": 0.4094488188976378,
                    "duration": 0.11303700000001982
                },
                {
                    "name": "F3",
                    "midi": 53,
                    "time": 293.67012600000226,
                    "velocity": 0.4094488188976378,
                    "duration": 0.11303700000001982
                },
                {
                    "name": "F4",
                    "midi": 65,
                    "time": 293.67012600000226,
                    "velocity": 0.4881889763779528,
                    "duration": 0.11303700000001982
                },
                {
                    "name": "A#3",
                    "midi": 58,
                    "time": 293.8962000000023,
                    "velocity": 0.4015748031496063,
                    "duration": 1.1303700000000276
                },
                {
                    "name": "F3",
                    "midi": 53,
                    "time": 293.8962000000023,
                    "velocity": 0.4015748031496063,
                    "duration": 1.1303700000000276
                },
                {
                    "name": "E4",
                    "midi": 64,
                    "time": 293.8962000000023,
                    "velocity": 0.48031496062992124,
                    "duration": 1.1303700000000276
                },
                {
                    "name": "C#4",
                    "midi": 61,
                    "time": 293.8962000000023,
                    "velocity": 0.4015748031496063,
                    "duration": 1.1303700000000276
                },
                {
                    "name": "C4",
                    "midi": 60,
                    "time": 295.0265700000023,
                    "velocity": 0.4094488188976378,
                    "duration": 0.11303700000001982
                },
                {
                    "name": "G#3",
                    "midi": 56,
                    "time": 295.0265700000023,
                    "velocity": 0.4094488188976378,
                    "duration": 0.11303700000001982
                },
                {
                    "name": "F4",
                    "midi": 65,
                    "time": 295.0265700000023,
                    "velocity": 0.4881889763779528,
                    "duration": 0.11303700000001982
                },
                {
                    "name": "F3",
                    "midi": 53,
                    "time": 295.0265700000023,
                    "velocity": 0.4094488188976378,
                    "duration": 0.11303700000001982
                },
                {
                    "name": "E4",
                    "midi": 64,
                    "time": 295.25264400000236,
                    "velocity": 0.48031496062992124,
                    "duration": 1.1303700000000276
                },
                {
                    "name": "A#3",
                    "midi": 58,
                    "time": 295.25264400000236,
                    "velocity": 0.4015748031496063,
                    "duration": 1.1303700000000276
                },
                {
                    "name": "F3",
                    "midi": 53,
                    "time": 295.25264400000236,
                    "velocity": 0.4015748031496063,
                    "duration": 1.1303700000000276
                },
                {
                    "name": "C#4",
                    "midi": 61,
                    "time": 295.25264400000236,
                    "velocity": 0.4015748031496063,
                    "duration": 1.1303700000000276
                },
                {
                    "name": "G#3",
                    "midi": 56,
                    "time": 296.3830140000024,
                    "velocity": 0.4094488188976378,
                    "duration": 0.11303700000001982
                },
                {
                    "name": "F4",
                    "midi": 65,
                    "time": 296.3830140000024,
                    "velocity": 0.4881889763779528,
                    "duration": 0.11303700000001982
                },
                {
                    "name": "F3",
                    "midi": 53,
                    "time": 296.3830140000024,
                    "velocity": 0.4094488188976378,
                    "duration": 0.11303700000001982
                },
                {
                    "name": "C4",
                    "midi": 60,
                    "time": 296.3830140000024,
                    "velocity": 0.4094488188976378,
                    "duration": 0.11303700000001982
                },
                {
                    "name": "A#3",
                    "midi": 58,
                    "time": 296.60908800000243,
                    "velocity": 0.4015748031496063,
                    "duration": 1.1303700000000276
                },
                {
                    "name": "E4",
                    "midi": 64,
                    "time": 296.60908800000243,
                    "velocity": 0.48031496062992124,
                    "duration": 1.1303700000000276
                },
                {
                    "name": "F3",
                    "midi": 53,
                    "time": 296.60908800000243,
                    "velocity": 0.4015748031496063,
                    "duration": 1.1303700000000276
                },
                {
                    "name": "C#4",
                    "midi": 61,
                    "time": 296.60908800000243,
                    "velocity": 0.4015748031496063,
                    "duration": 1.1303700000000276
                },
                {
                    "name": "C4",
                    "midi": 60,
                    "time": 297.73945800000246,
                    "velocity": 0.5669291338582677,
                    "duration": 0.056518499999981486
                },
                {
                    "name": "F3",
                    "midi": 53,
                    "time": 297.73945800000246,
                    "velocity": 0.48031496062992124,
                    "duration": 0.056518499999981486
                },
                {
                    "name": "G#3",
                    "midi": 56,
                    "time": 297.73945800000246,
                    "velocity": 0.48031496062992124,
                    "duration": 0.056518499999981486
                },
                {
                    "name": "G#2",
                    "midi": 44,
                    "time": 303.16523400000244,
                    "velocity": 0.2755905511811024,
                    "duration": 2.712888000000021
                },
                {
                    "name": "C#3",
                    "midi": 49,
                    "time": 303.16523400000244,
                    "velocity": 0.2755905511811024,
                    "duration": 2.712888000000021
                },
                {
                    "name": "C#2",
                    "midi": 37,
                    "time": 303.16523400000244,
                    "velocity": 0.2755905511811024,
                    "duration": 2.712888000000021
                },
                {
                    "name": "C2",
                    "midi": 36,
                    "time": 305.87812200000246,
                    "velocity": 0.2755905511811024,
                    "duration": 2.712888000000021
                },
                {
                    "name": "G#2",
                    "midi": 44,
                    "time": 305.87812200000246,
                    "velocity": 0.2755905511811024,
                    "duration": 2.712888000000021
                },
                {
                    "name": "C3",
                    "midi": 48,
                    "time": 305.87812200000246,
                    "velocity": 0.2755905511811024,
                    "duration": 2.712888000000021
                },
                {
                    "name": "G#2",
                    "midi": 44,
                    "time": 308.5910100000025,
                    "velocity": 0.2755905511811024,
                    "duration": 2.712888000000021
                },
                {
                    "name": "C#2",
                    "midi": 37,
                    "time": 308.5910100000025,
                    "velocity": 0.2755905511811024,
                    "duration": 2.712888000000021
                },
                {
                    "name": "C#3",
                    "midi": 49,
                    "time": 308.5910100000025,
                    "velocity": 0.2755905511811024,
                    "duration": 2.712888000000021
                },
                {
                    "name": "C3",
                    "midi": 48,
                    "time": 311.3038980000025,
                    "velocity": 0.2755905511811024,
                    "duration": 2.712888000000021
                },
                {
                    "name": "G#2",
                    "midi": 44,
                    "time": 311.3038980000025,
                    "velocity": 0.2755905511811024,
                    "duration": 0.6782220000000052
                },
                {
                    "name": "C2",
                    "midi": 36,
                    "time": 311.3038980000025,
                    "velocity": 0.2755905511811024,
                    "duration": 2.712888000000021
                },
                {
                    "name": "A2",
                    "midi": 45,
                    "time": 311.9821200000025,
                    "velocity": 0.3228346456692913,
                    "duration": 0.6782220000000052
                },
                {
                    "name": "G#2",
                    "midi": 44,
                    "time": 312.6603420000025,
                    "velocity": 0.2755905511811024,
                    "duration": 1.3564440000000104
                },
                {
                    "name": "C#2",
                    "midi": 37,
                    "time": 314.0167860000025,
                    "velocity": 0.2755905511811024,
                    "duration": 2.712888000000021
                },
                {
                    "name": "C#3",
                    "midi": 49,
                    "time": 314.0167860000025,
                    "velocity": 0.2755905511811024,
                    "duration": 2.712888000000021
                },
                {
                    "name": "G#2",
                    "midi": 44,
                    "time": 314.0167860000025,
                    "velocity": 0.2755905511811024,
                    "duration": 0.6782220000000052
                },
                {
                    "name": "A#2",
                    "midi": 46,
                    "time": 314.69500800000253,
                    "velocity": 0.33858267716535434,
                    "duration": 0.6782220000000052
                },
                {
                    "name": "G#2",
                    "midi": 44,
                    "time": 315.37323000000254,
                    "velocity": 0.2755905511811024,
                    "duration": 1.3564440000000104
                },
                {
                    "name": "C2",
                    "midi": 36,
                    "time": 316.72967400000255,
                    "velocity": 0.2755905511811024,
                    "duration": 2.712888000000021
                },
                {
                    "name": "F2",
                    "midi": 41,
                    "time": 316.72967400000255,
                    "velocity": 0.2755905511811024,
                    "duration": 0.6782220000000052
                },
                {
                    "name": "C3",
                    "midi": 48,
                    "time": 316.72967400000255,
                    "velocity": 0.2755905511811024,
                    "duration": 2.712888000000021
                },
                {
                    "name": "F#2",
                    "midi": 42,
                    "time": 317.40789600000255,
                    "velocity": 0.3228346456692913,
                    "duration": 0.6782220000000052
                },
                {
                    "name": "F2",
                    "midi": 41,
                    "time": 318.08611800000256,
                    "velocity": 0.2755905511811024,
                    "duration": 1.3564440000000104
                },
                {
                    "name": "F2",
                    "midi": 41,
                    "time": 319.44256200000257,
                    "velocity": 0.2755905511811024,
                    "duration": 0.6782220000000052
                },
                {
                    "name": "A#2",
                    "midi": 46,
                    "time": 319.44256200000257,
                    "velocity": 0.2755905511811024,
                    "duration": 2.712888000000021
                },
                {
                    "name": "A#1",
                    "midi": 34,
                    "time": 319.44256200000257,
                    "velocity": 0.2755905511811024,
                    "duration": 2.712888000000021
                },
                {
                    "name": "F#2",
                    "midi": 42,
                    "time": 320.1207840000026,
                    "velocity": 0.33070866141732286,
                    "duration": 0.6782220000000052
                },
                {
                    "name": "F2",
                    "midi": 41,
                    "time": 320.7990060000026,
                    "velocity": 0.2755905511811024,
                    "duration": 1.3564440000000104
                },
                {
                    "name": "A#2",
                    "midi": 46,
                    "time": 322.1554500000026,
                    "velocity": 0.2755905511811024,
                    "duration": 1.3564440000000104
                },
                {
                    "name": "A#3",
                    "midi": 58,
                    "time": 322.1554500000026,
                    "velocity": 0.2755905511811024,
                    "duration": 1.3564440000000104
                },
                {
                    "name": "G#2",
                    "midi": 44,
                    "time": 323.5118940000026,
                    "velocity": 0.2755905511811024,
                    "duration": 1.3564440000000104
                },
                {
                    "name": "G#3",
                    "midi": 56,
                    "time": 323.5118940000026,
                    "velocity": 0.2755905511811024,
                    "duration": 1.3564440000000104
                },
                {
                    "name": "D3",
                    "midi": 50,
                    "time": 324.8683380000026,
                    "velocity": 0.3464566929133858,
                    "duration": 2.712888000000021
                },
                {
                    "name": "D2",
                    "midi": 38,
                    "time": 324.8683380000026,
                    "velocity": 0.3464566929133858,
                    "duration": 2.712888000000021
                },
                {
                    "name": "E3",
                    "midi": 52,
                    "time": 327.58122600000263,
                    "velocity": 0.2755905511811024,
                    "duration": 1.3564440000000104
                },
                {
                    "name": "E2",
                    "midi": 40,
                    "time": 327.58122600000263,
                    "velocity": 0.2755905511811024,
                    "duration": 1.3564440000000104
                },
                {
                    "name": "F3",
                    "midi": 53,
                    "time": 328.93767000000264,
                    "velocity": 0.2755905511811024,
                    "duration": 1.3564440000000104
                },
                {
                    "name": "F2",
                    "midi": 41,
                    "time": 328.93767000000264,
                    "velocity": 0.2755905511811024,
                    "duration": 1.3564440000000104
                },
                {
                    "name": "B2",
                    "midi": 47,
                    "time": 330.29411400000265,
                    "velocity": 0.3464566929133858,
                    "duration": 2.712888000000021
                },
                {
                    "name": "B1",
                    "midi": 35,
                    "time": 330.29411400000265,
                    "velocity": 0.3464566929133858,
                    "duration": 2.712888000000021
                },
                {
                    "name": "C2",
                    "midi": 36,
                    "time": 333.0070020000027,
                    "velocity": 0.28346456692913385,
                    "duration": 2.712888000000021
                },
                {
                    "name": "C3",
                    "midi": 48,
                    "time": 333.0070020000027,
                    "velocity": 0.28346456692913385,
                    "duration": 2.712888000000021
                },
                {
                    "name": "A#2",
                    "midi": 46,
                    "time": 335.7198900000027,
                    "velocity": 0.28346456692913385,
                    "duration": 2.0346660000000156
                },
                {
                    "name": "A#1",
                    "midi": 34,
                    "time": 335.7198900000027,
                    "velocity": 0.28346456692913385,
                    "duration": 2.0346660000000156
                },
                {
                    "name": "B2",
                    "midi": 47,
                    "time": 337.7545560000027,
                    "velocity": 0.2440944881889764,
                    "duration": 0.6782220000000052
                },
                {
                    "name": "B1",
                    "midi": 35,
                    "time": 337.7545560000027,
                    "velocity": 0.2440944881889764,
                    "duration": 0.6782220000000052
                },
                {
                    "name": "C2",
                    "midi": 36,
                    "time": 338.4327780000027,
                    "velocity": 0.28346456692913385,
                    "duration": 2.712888000000021
                },
                {
                    "name": "C3",
                    "midi": 48,
                    "time": 338.4327780000027,
                    "velocity": 0.28346456692913385,
                    "duration": 2.712888000000021
                },
                {
                    "name": "C2",
                    "midi": 36,
                    "time": 341.14566600000273,
                    "velocity": 0.28346456692913385,
                    "duration": 2.712888000000021
                },
                {
                    "name": "C3",
                    "midi": 48,
                    "time": 341.14566600000273,
                    "velocity": 0.28346456692913385,
                    "duration": 2.712888000000021
                },
                {
                    "name": "F2",
                    "midi": 41,
                    "time": 345.21499800000277,
                    "velocity": 0.6299212598425197,
                    "duration": 0.2260739999999828
                },
                {
                    "name": "F3",
                    "midi": 53,
                    "time": 345.44107200000275,
                    "velocity": 0.5590551181102362,
                    "duration": 0.2260739999999828
                },
                {
                    "name": "F2",
                    "midi": 41,
                    "time": 345.66714600000273,
                    "velocity": 0.5590551181102362,
                    "duration": 0.056518499999981486
                },
                {
                    "name": "G#2",
                    "midi": 44,
                    "time": 345.8932200000027,
                    "velocity": 0.6299212598425197,
                    "duration": 0.2260739999999828
                },
                {
                    "name": "G#3",
                    "midi": 56,
                    "time": 346.1192940000027,
                    "velocity": 0.5905511811023622,
                    "duration": 0.2260739999999828
                },
                {
                    "name": "G#2",
                    "midi": 44,
                    "time": 346.3453680000027,
                    "velocity": 0.6299212598425197,
                    "duration": 0.056518499999981486
                },
                {
                    "name": "C3",
                    "midi": 48,
                    "time": 346.57144200000266,
                    "velocity": 0.6299212598425197,
                    "duration": 0.2260739999999828
                },
                {
                    "name": "C4",
                    "midi": 60,
                    "time": 346.79751600000264,
                    "velocity": 0.5826771653543307,
                    "duration": 0.2260739999999828
                },
                {
                    "name": "C3",
                    "midi": 48,
                    "time": 347.0235900000026,
                    "velocity": 0.5826771653543307,
                    "duration": 0.056518499999981486
                },
                {
                    "name": "G2",
                    "midi": 43,
                    "time": 347.2496640000026,
                    "velocity": 0.6299212598425197,
                    "duration": 0.2260739999999828
                },
                {
                    "name": "G3",
                    "midi": 55,
                    "time": 347.4757380000026,
                    "velocity": 0.5590551181102362,
                    "duration": 0.2260739999999828
                },
                {
                    "name": "G2",
                    "midi": 43,
                    "time": 347.7018120000026,
                    "velocity": 0.5590551181102362,
                    "duration": 0.056518499999981486
                },
                {
                    "name": "A#2",
                    "midi": 46,
                    "time": 347.92788600000256,
                    "velocity": 0.6299212598425197,
                    "duration": 0.2260739999999828
                },
                {
                    "name": "A#3",
                    "midi": 58,
                    "time": 348.15396000000254,
                    "velocity": 0.5905511811023622,
                    "duration": 0.2260739999999828
                },
                {
                    "name": "A#2",
                    "midi": 46,
                    "time": 348.3800340000025,
                    "velocity": 0.6299212598425197,
                    "duration": 0.056518499999981486
                },
                {
                    "name": "F2",
                    "midi": 41,
                    "time": 348.6061080000025,
                    "velocity": 0.6299212598425197,
                    "duration": 0.2260739999999828
                },
                {
                    "name": "F3",
                    "midi": 53,
                    "time": 348.8321820000025,
                    "velocity": 0.5826771653543307,
                    "duration": 0.2260739999999828
                },
                {
                    "name": "F2",
                    "midi": 41,
                    "time": 349.0582560000025,
                    "velocity": 0.5826771653543307,
                    "duration": 0.056518499999981486
                },
                {
                    "name": "C2",
                    "midi": 36,
                    "time": 349.28433000000246,
                    "velocity": 0.6299212598425197,
                    "duration": 0.2260739999999828
                },
                {
                    "name": "C3",
                    "midi": 48,
                    "time": 349.51040400000244,
                    "velocity": 0.5590551181102362,
                    "duration": 0.2260739999999828
                },
                {
                    "name": "C2",
                    "midi": 36,
                    "time": 349.7364780000024,
                    "velocity": 0.5590551181102362,
                    "duration": 0.056518499999981486
                },
                {
                    "name": "C2",
                    "midi": 36,
                    "time": 349.9625520000024,
                    "velocity": 0.6299212598425197,
                    "duration": 0.2260739999999828
                },
                {
                    "name": "C3",
                    "midi": 48,
                    "time": 350.1886260000024,
                    "velocity": 0.5905511811023622,
                    "duration": 0.2260739999999828
                },
                {
                    "name": "C2",
                    "midi": 36,
                    "time": 350.41470000000237,
                    "velocity": 0.6299212598425197,
                    "duration": 0.056518499999981486
                },
                {
                    "name": "F2",
                    "midi": 41,
                    "time": 350.64077400000235,
                    "velocity": 0.6299212598425197,
                    "duration": 0.2260739999999828
                },
                {
                    "name": "F3",
                    "midi": 53,
                    "time": 350.86684800000234,
                    "velocity": 0.5826771653543307,
                    "duration": 0.2260739999999828
                },
                {
                    "name": "F2",
                    "midi": 41,
                    "time": 351.0929220000023,
                    "velocity": 0.5826771653543307,
                    "duration": 0.056518499999981486
                },
                {
                    "name": "C#2",
                    "midi": 37,
                    "time": 351.3189960000023,
                    "velocity": 0.6299212598425197,
                    "duration": 0.2260739999999828
                },
                {
                    "name": "C#3",
                    "midi": 49,
                    "time": 351.5450700000023,
                    "velocity": 0.5590551181102362,
                    "duration": 0.2260739999999828
                },
                {
                    "name": "C#2",
                    "midi": 37,
                    "time": 351.77114400000227,
                    "velocity": 0.5590551181102362,
                    "duration": 0.056518499999981486
                },
                {
                    "name": "G#1",
                    "midi": 32,
                    "time": 351.99721800000225,
                    "velocity": 0.6299212598425197,
                    "duration": 0.2260739999999828
                },
                {
                    "name": "G#2",
                    "midi": 44,
                    "time": 352.22329200000223,
                    "velocity": 0.5905511811023622,
                    "duration": 0.2260739999999828
                },
                {
                    "name": "G#1",
                    "midi": 32,
                    "time": 352.4493660000022,
                    "velocity": 0.6299212598425197,
                    "duration": 0.056518499999981486
                },
                {
                    "name": "D#2",
                    "midi": 39,
                    "time": 352.6754400000022,
                    "velocity": 0.6299212598425197,
                    "duration": 0.2260739999999828
                },
                {
                    "name": "D#3",
                    "midi": 51,
                    "time": 352.9015140000022,
                    "velocity": 0.5826771653543307,
                    "duration": 0.2260739999999828
                },
                {
                    "name": "D#2",
                    "midi": 39,
                    "time": 353.12758800000216,
                    "velocity": 0.5826771653543307,
                    "duration": 0.056518499999981486
                },
                {
                    "name": "A#1",
                    "midi": 34,
                    "time": 353.35366200000215,
                    "velocity": 0.6299212598425197,
                    "duration": 0.2260739999999828
                },
                {
                    "name": "A#2",
                    "midi": 46,
                    "time": 353.57973600000213,
                    "velocity": 0.5590551181102362,
                    "duration": 0.2260739999999828
                },
                {
                    "name": "A#1",
                    "midi": 34,
                    "time": 353.8058100000021,
                    "velocity": 0.5590551181102362,
                    "duration": 0.056518499999981486
                },
                {
                    "name": "C#2",
                    "midi": 37,
                    "time": 354.0318840000021,
                    "velocity": 0.6299212598425197,
                    "duration": 0.2260739999999828
                },
                {
                    "name": "C#3",
                    "midi": 49,
                    "time": 354.2579580000021,
                    "velocity": 0.5905511811023622,
                    "duration": 0.2260739999999828
                },
                {
                    "name": "C#2",
                    "midi": 37,
                    "time": 354.48403200000206,
                    "velocity": 0.6299212598425197,
                    "duration": 0.056518499999981486
                },
                {
                    "name": "C2",
                    "midi": 36,
                    "time": 354.71010600000204,
                    "velocity": 0.6299212598425197,
                    "duration": 0.2260739999999828
                },
                {
                    "name": "C3",
                    "midi": 48,
                    "time": 354.936180000002,
                    "velocity": 0.5826771653543307,
                    "duration": 0.2260739999999828
                },
                {
                    "name": "C2",
                    "midi": 36,
                    "time": 355.162254000002,
                    "velocity": 0.5826771653543307,
                    "duration": 0.056518499999981486
                },
                {
                    "name": "C2",
                    "midi": 36,
                    "time": 355.388328000002,
                    "velocity": 0.6299212598425197,
                    "duration": 0.2260739999999828
                },
                {
                    "name": "C3",
                    "midi": 48,
                    "time": 355.614402000002,
                    "velocity": 0.5826771653543307,
                    "duration": 0.2260739999999828
                },
                {
                    "name": "C2",
                    "midi": 36,
                    "time": 355.84047600000196,
                    "velocity": 0.5826771653543307,
                    "duration": 0.056518499999981486
                },
                {
                    "name": "F3",
                    "midi": 53,
                    "time": 356.06655000000194,
                    "velocity": 0.6299212598425197,
                    "duration": 0.2260739999999828
                },
                {
                    "name": "F4",
                    "midi": 65,
                    "time": 356.2926240000019,
                    "velocity": 0.49606299212598426,
                    "duration": 0.11303700000001982
                },
                {
                    "name": "F3",
                    "midi": 53,
                    "time": 356.40566100000194,
                    "velocity": 0.4251968503937008,
                    "duration": 0.11303700000001982
                },
                {
                    "name": "F4",
                    "midi": 65,
                    "time": 356.51869800000196,
                    "velocity": 0.5590551181102362,
                    "duration": 0.056518499999981486
                },
                {
                    "name": "C#3",
                    "midi": 49,
                    "time": 356.74477200000194,
                    "velocity": 0.6299212598425197,
                    "duration": 0.2260739999999828
                },
                {
                    "name": "C#4",
                    "midi": 61,
                    "time": 356.9708460000019,
                    "velocity": 0.5275590551181102,
                    "duration": 0.11303700000001982
                },
                {
                    "name": "C#3",
                    "midi": 49,
                    "time": 357.08388300000195,
                    "velocity": 0.44881889763779526,
                    "duration": 0.11303700000001982
                },
                {
                    "name": "C#4",
                    "midi": 61,
                    "time": 357.19692000000197,
                    "velocity": 0.6299212598425197,
                    "duration": 0.056518499999981486
                },
                {
                    "name": "G#2",
                    "midi": 44,
                    "time": 357.42299400000195,
                    "velocity": 0.6299212598425197,
                    "duration": 0.2260739999999828
                },
                {
                    "name": "G#3",
                    "midi": 56,
                    "time": 357.64906800000193,
                    "velocity": 0.5196850393700787,
                    "duration": 0.11303700000001982
                },
                {
                    "name": "G#2",
                    "midi": 44,
                    "time": 357.76210500000195,
                    "velocity": 0.4409448818897638,
                    "duration": 0.11303700000001982
                },
                {
                    "name": "G#3",
                    "midi": 56,
                    "time": 357.875142000002,
                    "velocity": 0.5826771653543307,
                    "duration": 0.056518499999981486
                },
                {
                    "name": "D#3",
                    "midi": 51,
                    "time": 358.10121600000195,
                    "velocity": 0.6299212598425197,
                    "duration": 0.2260739999999828
                },
                {
                    "name": "D#4",
                    "midi": 63,
                    "time": 358.32729000000194,
                    "velocity": 0.49606299212598426,
                    "duration": 0.11303700000001982
                },
                {
                    "name": "D#3",
                    "midi": 51,
                    "time": 358.44032700000196,
                    "velocity": 0.4409448818897638,
                    "duration": 0.11303700000001982
                },
                {
                    "name": "D#4",
                    "midi": 63,
                    "time": 358.553364000002,
                    "velocity": 0.5590551181102362,
                    "duration": 0.056518499999981486
                },
                {
                    "name": "A#2",
                    "midi": 46,
                    "time": 358.77943800000196,
                    "velocity": 0.6299212598425197,
                    "duration": 0.2260739999999828
                },
                {
                    "name": "A#3",
                    "midi": 58,
                    "time": 359.00551200000194,
                    "velocity": 0.5275590551181102,
                    "duration": 0.11303700000001982
                },
                {
                    "name": "A#2",
                    "midi": 46,
                    "time": 359.11854900000196,
                    "velocity": 0.4645669291338583,
                    "duration": 0.11303700000001982
                },
                {
                    "name": "A#3",
                    "midi": 58,
                    "time": 359.231586000002,
                    "velocity": 0.6299212598425197,
                    "duration": 0.056518499999981486
                },
                {
                    "name": "C#3",
                    "midi": 49,
                    "time": 359.45766000000197,
                    "velocity": 0.6299212598425197,
                    "duration": 0.2260739999999828
                },
                {
                    "name": "C#4",
                    "midi": 61,
                    "time": 359.68373400000195,
                    "velocity": 0.5196850393700787,
                    "duration": 0.11303700000001982
                },
                {
                    "name": "C#3",
                    "midi": 49,
                    "time": 359.79677100000197,
                    "velocity": 0.4645669291338583,
                    "duration": 0.11303700000001982
                },
                {
                    "name": "C#4",
                    "midi": 61,
                    "time": 359.909808000002,
                    "velocity": 0.5826771653543307,
                    "duration": 0.056518499999981486
                },
                {
                    "name": "C3",
                    "midi": 48,
                    "time": 360.13588200000197,
                    "velocity": 0.6299212598425197,
                    "duration": 0.2260739999999828
                },
                {
                    "name": "C4",
                    "midi": 60,
                    "time": 360.36195600000195,
                    "velocity": 0.49606299212598426,
                    "duration": 0.11303700000001982
                },
                {
                    "name": "C3",
                    "midi": 48,
                    "time": 360.474993000002,
                    "velocity": 0.4251968503937008,
                    "duration": 0.11303700000001982
                },
                {
                    "name": "C4",
                    "midi": 60,
                    "time": 360.588030000002,
                    "velocity": 0.5590551181102362,
                    "duration": 0.056518499999981486
                },
                {
                    "name": "C3",
                    "midi": 48,
                    "time": 360.814104000002,
                    "velocity": 0.6299212598425197,
                    "duration": 0.2260739999999828
                },
                {
                    "name": "C4",
                    "midi": 60,
                    "time": 361.04017800000196,
                    "velocity": 0.5275590551181102,
                    "duration": 0.11303700000001982
                },
                {
                    "name": "C3",
                    "midi": 48,
                    "time": 361.153215000002,
                    "velocity": 0.4645669291338583,
                    "duration": 0.11303700000001982
                },
                {
                    "name": "C4",
                    "midi": 60,
                    "time": 361.266252000002,
                    "velocity": 0.6299212598425197,
                    "duration": 0.056518499999981486
                },
                {
                    "name": "C3",
                    "midi": 48,
                    "time": 361.492326000002,
                    "velocity": 0.6299212598425197,
                    "duration": 0.2260739999999828
                },
                {
                    "name": "C4",
                    "midi": 60,
                    "time": 361.71840000000196,
                    "velocity": 0.5196850393700787,
                    "duration": 0.11303700000001982
                },
                {
                    "name": "C3",
                    "midi": 48,
                    "time": 361.831437000002,
                    "velocity": 0.4566929133858268,
                    "duration": 0.11303700000001982
                },
                {
                    "name": "C4",
                    "midi": 60,
                    "time": 361.944474000002,
                    "velocity": 0.5905511811023622,
                    "duration": 0.056518499999981486
                },
                {
                    "name": "C3",
                    "midi": 48,
                    "time": 362.170548000002,
                    "velocity": 0.6535433070866141,
                    "duration": 0.2260739999999828
                },
                {
                    "name": "C4",
                    "midi": 60,
                    "time": 362.39662200000197,
                    "velocity": 0.5196850393700787,
                    "duration": 0.11303700000001982
                },
                {
                    "name": "C3",
                    "midi": 48,
                    "time": 362.509659000002,
                    "velocity": 0.4566929133858268,
                    "duration": 0.11303700000001982
                },
                {
                    "name": "C4",
                    "midi": 60,
                    "time": 362.622696000002,
                    "velocity": 0.5905511811023622,
                    "duration": 0.056518499999981486
                },
                {
                    "name": "C3",
                    "midi": 48,
                    "time": 362.848770000002,
                    "velocity": 0.6771653543307087,
                    "duration": 0.2260739999999828
                },
                {
                    "name": "C4",
                    "midi": 60,
                    "time": 363.074844000002,
                    "velocity": 0.5748031496062992,
                    "duration": 0.11303700000001982
                },
                {
                    "name": "C3",
                    "midi": 48,
                    "time": 363.187881000002,
                    "velocity": 0.5039370078740157,
                    "duration": 0.11303700000001982
                },
                {
                    "name": "C4",
                    "midi": 60,
                    "time": 363.300918000002,
                    "velocity": 0.6929133858267716,
                    "duration": 0.056518499999981486
                },
                {
                    "name": "C3",
                    "midi": 48,
                    "time": 363.526992000002,
                    "velocity": 0.7007874015748031,
                    "duration": 0.2260739999999828
                },
                {
                    "name": "C4",
                    "midi": 60,
                    "time": 363.753066000002,
                    "velocity": 0.5826771653543307,
                    "duration": 0.11303700000001982
                },
                {
                    "name": "C3",
                    "midi": 48,
                    "time": 363.866103000002,
                    "velocity": 0.5039370078740157,
                    "duration": 0.11303700000001982
                },
                {
                    "name": "C4",
                    "midi": 60,
                    "time": 363.979140000002,
                    "velocity": 0.6614173228346457,
                    "duration": 0.056518499999981486
                },
                {
                    "name": "F4",
                    "midi": 65,
                    "time": 364.205214000002,
                    "velocity": 0.5275590551181102,
                    "duration": 0.20346660000001293
                },
                {
                    "name": "C4",
                    "midi": 60,
                    "time": 364.205214000002,
                    "velocity": 0.4409448818897638,
                    "duration": 0.20346660000001293
                },
                {
                    "name": "G#3",
                    "midi": 56,
                    "time": 364.205214000002,
                    "velocity": 0.4409448818897638,
                    "duration": 0.20346660000001293
                },
                {
                    "name": "F3",
                    "midi": 53,
                    "time": 364.205214000002,
                    "velocity": 0.4409448818897638,
                    "duration": 0.20346660000001293
                },
                {
                    "name": "F4",
                    "midi": 65,
                    "time": 364.43128800000204,
                    "velocity": 0.44881889763779526,
                    "duration": 0.20346660000001293
                },
                {
                    "name": "C4",
                    "midi": 60,
                    "time": 364.43128800000204,
                    "velocity": 0.3779527559055118,
                    "duration": 0.20346660000001293
                },
                {
                    "name": "G#3",
                    "midi": 56,
                    "time": 364.43128800000204,
                    "velocity": 0.3779527559055118,
                    "duration": 0.20346660000001293
                },
                {
                    "name": "F3",
                    "midi": 53,
                    "time": 364.43128800000204,
                    "velocity": 0.3779527559055118,
                    "duration": 0.20346660000001293
                },
                {
                    "name": "F4",
                    "midi": 65,
                    "time": 364.6573620000021,
                    "velocity": 0.44881889763779526,
                    "duration": 1.808591999999976
                },
                {
                    "name": "C4",
                    "midi": 60,
                    "time": 364.6573620000021,
                    "velocity": 0.3779527559055118,
                    "duration": 1.808591999999976
                },
                {
                    "name": "G#3",
                    "midi": 56,
                    "time": 364.6573620000021,
                    "velocity": 0.3779527559055118,
                    "duration": 1.808591999999976
                },
                {
                    "name": "F3",
                    "midi": 53,
                    "time": 364.6573620000021,
                    "velocity": 0.3779527559055118,
                    "duration": 1.808591999999976
                },
                {
                    "name": "C4",
                    "midi": 60,
                    "time": 366.9181020000021,
                    "velocity": 0.5354330708661418,
                    "duration": 0.11303700000001982
                },
                {
                    "name": "A#3",
                    "midi": 58,
                    "time": 367.0311390000021,
                    "velocity": 0.5275590551181102,
                    "duration": 0.11303700000001982
                },
                {
                    "name": "G#3",
                    "midi": 56,
                    "time": 367.1441760000021,
                    "velocity": 0.5275590551181102,
                    "duration": 0.11303700000001982
                },
                {
                    "name": "G3",
                    "midi": 55,
                    "time": 367.25721300000214,
                    "velocity": 0.5196850393700787,
                    "duration": 0.11303700000001982
                },
                {
                    "name": "F3",
                    "midi": 53,
                    "time": 367.37025000000216,
                    "velocity": 0.5118110236220472,
                    "duration": 0.11303700000001982
                },
                {
                    "name": "D#3",
                    "midi": 51,
                    "time": 367.4832870000022,
                    "velocity": 0.5039370078740157,
                    "duration": 0.11303700000001982
                },
                {
                    "name": "C#3",
                    "midi": 49,
                    "time": 367.5963240000022,
                    "velocity": 0.49606299212598426,
                    "duration": 0.11303700000001982
                },
                {
                    "name": "C3",
                    "midi": 48,
                    "time": 367.7093610000022,
                    "velocity": 0.49606299212598426,
                    "duration": 0.11303700000001982
                },
                {
                    "name": "A#2",
                    "midi": 46,
                    "time": 367.82239800000224,
                    "velocity": 0.5039370078740157,
                    "duration": 0.11303700000001982
                },
                {
                    "name": "G#2",
                    "midi": 44,
                    "time": 367.93543500000226,
                    "velocity": 0.5118110236220472,
                    "duration": 0.11303700000001982
                },
                {
                    "name": "G2",
                    "midi": 43,
                    "time": 368.0484720000023,
                    "velocity": 0.5196850393700787,
                    "duration": 0.11303700000001982
                },
                {
                    "name": "F2",
                    "midi": 41,
                    "time": 368.1615090000023,
                    "velocity": 0.5275590551181102,
                    "duration": 0.11303700000001982
                },
                {
                    "name": "D#2",
                    "midi": 39,
                    "time": 368.2745460000023,
                    "velocity": 0.5354330708661418,
                    "duration": 0.11303700000001982
                },
                {
                    "name": "C#2",
                    "midi": 37,
                    "time": 368.38758300000234,
                    "velocity": 0.5433070866141733,
                    "duration": 0.11303700000001982
                },
                {
                    "name": "C2",
                    "midi": 36,
                    "time": 368.50062000000236,
                    "velocity": 0.5511811023622047,
                    "duration": 0.11303700000001982
                },
                {
                    "name": "A#1",
                    "midi": 34,
                    "time": 368.6136570000024,
                    "velocity": 0.5826771653543307,
                    "duration": 0.11303700000001982
                },
                {
                    "name": "G#1",
                    "midi": 32,
                    "time": 368.7266940000024,
                    "velocity": 0.6220472440944882,
                    "duration": 0.11303700000001982
                },
                {
                    "name": "G1",
                    "midi": 31,
                    "time": 368.8397310000024,
                    "velocity": 0.6535433070866141,
                    "duration": 0.11303700000001982
                },
                {
                    "name": "F1",
                    "midi": 29,
                    "time": 368.95276800000244,
                    "velocity": 0.8031496062992126,
                    "duration": 0.2260739999999828
                }
            ],
            "controlChanges": {},
            "id": 2,
            "name": "Piano left",
            "instrumentNumber": 0,
            "instrument": "acoustic grand piano",
            "instrumentFamily": "piano",
            "channelNumber": 0,
            "isPercussion": false
        },
        {
            "startTime": 0,
            "duration": 0,
            "length": 0,
            "notes": [],
            "controlChanges": {
                "64": [
                    {
                        "number": 64,
                        "time": 3.6539210250000003,
                        "value": 1
                    },
                    {
                        "number": 64,
                        "time": 4.069332,
                        "value": 0
                    },
                    {
                        "number": 64,
                        "time": 4.160703575,
                        "value": 1
                    },
                    {
                        "number": 64,
                        "time": 4.76074165,
                        "value": 0
                    },
                    {
                        "number": 64,
                        "time": 4.8869663,
                        "value": 1
                    },
                    {
                        "number": 64,
                        "time": 5.425776,
                        "value": 0
                    },
                    {
                        "number": 64,
                        "time": 6.817073075,
                        "value": 1
                    },
                    {
                        "number": 64,
                        "time": 7.460442,
                        "value": 0
                    },
                    {
                        "number": 64,
                        "time": 9.079697025,
                        "value": 1
                    },
                    {
                        "number": 64,
                        "time": 9.495108,
                        "value": 0
                    },
                    {
                        "number": 64,
                        "time": 9.586479575,
                        "value": 1
                    },
                    {
                        "number": 64,
                        "time": 10.183691725000001,
                        "value": 0
                    },
                    {
                        "number": 64,
                        "time": 10.4672262,
                        "value": 1
                    },
                    {
                        "number": 64,
                        "time": 10.851552,
                        "value": 0
                    },
                    {
                        "number": 64,
                        "time": 12.487762575,
                        "value": 1
                    },
                    {
                        "number": 64,
                        "time": 12.905999475,
                        "value": 0
                    },
                    {
                        "number": 64,
                        "time": 13.56444,
                        "value": 0
                    },
                    {
                        "number": 64,
                        "time": 15.200650575,
                        "value": 1
                    },
                    {
                        "number": 64,
                        "time": 15.618887475,
                        "value": 0
                    },
                    {
                        "number": 64,
                        "time": 15.8930022,
                        "value": 1
                    },
                    {
                        "number": 64,
                        "time": 16.277328,
                        "value": 0
                    },
                    {
                        "number": 64,
                        "time": 17.913538575,
                        "value": 1
                    },
                    {
                        "number": 64,
                        "time": 18.331775475,
                        "value": 0
                    },
                    {
                        "number": 64,
                        "time": 18.990216,
                        "value": 0
                    },
                    {
                        "number": 64,
                        "time": 20.38999085,
                        "value": 1
                    },
                    {
                        "number": 64,
                        "time": 20.5991093,
                        "value": 0
                    },
                    {
                        "number": 64,
                        "time": 20.635846325,
                        "value": 1
                    },
                    {
                        "number": 64,
                        "time": 21.024881999999998,
                        "value": 0
                    },
                    {
                        "number": 64,
                        "time": 21.703104,
                        "value": 1
                    },
                    {
                        "number": 64,
                        "time": 22.381326,
                        "value": 0
                    },
                    {
                        "number": 64,
                        "time": 22.467045725000002,
                        "value": 1
                    },
                    {
                        "number": 64,
                        "time": 23.075561575000002,
                        "value": 0
                    },
                    {
                        "number": 64,
                        "time": 23.150919575000003,
                        "value": 1
                    },
                    {
                        "number": 64,
                        "time": 23.744363825000004,
                        "value": 0
                    },
                    {
                        "number": 64,
                        "time": 24.031666200000004,
                        "value": 1
                    },
                    {
                        "number": 64,
                        "time": 24.415992000000003,
                        "value": 0
                    },
                    {
                        "number": 64,
                        "time": 26.052202575000003,
                        "value": 1
                    },
                    {
                        "number": 64,
                        "time": 26.470439475000003,
                        "value": 0
                    },
                    {
                        "number": 64,
                        "time": 27.128880000000002,
                        "value": 0
                    },
                    {
                        "number": 64,
                        "time": 28.765090575000002,
                        "value": 1
                    },
                    {
                        "number": 64,
                        "time": 29.183327475000002,
                        "value": 0
                    },
                    {
                        "number": 64,
                        "time": 29.457442200000003,
                        "value": 1
                    },
                    {
                        "number": 64,
                        "time": 29.841768000000002,
                        "value": 0
                    },
                    {
                        "number": 64,
                        "time": 31.477978575,
                        "value": 1
                    },
                    {
                        "number": 64,
                        "time": 31.896215475,
                        "value": 0
                    },
                    {
                        "number": 64,
                        "time": 32.554656,
                        "value": 0
                    },
                    {
                        "number": 64,
                        "time": 33.95443085,
                        "value": 1
                    },
                    {
                        "number": 64,
                        "time": 34.1635493,
                        "value": 0
                    },
                    {
                        "number": 64,
                        "time": 34.200286325,
                        "value": 1
                    },
                    {
                        "number": 64,
                        "time": 34.589322,
                        "value": 0
                    },
                    {
                        "number": 64,
                        "time": 35.267544,
                        "value": 1
                    },
                    {
                        "number": 64,
                        "time": 35.945766,
                        "value": 0
                    },
                    {
                        "number": 64,
                        "time": 36.031485724999996,
                        "value": 1
                    },
                    {
                        "number": 64,
                        "time": 36.640001575,
                        "value": 0
                    },
                    {
                        "number": 64,
                        "time": 36.715359575,
                        "value": 1
                    },
                    {
                        "number": 64,
                        "time": 37.308803825,
                        "value": 0
                    },
                    {
                        "number": 64,
                        "time": 37.521690174999996,
                        "value": 1
                    },
                    {
                        "number": 64,
                        "time": 38.443883699999994,
                        "value": 0
                    },
                    {
                        "number": 64,
                        "time": 38.50322812499999,
                        "value": 1
                    },
                    {
                        "number": 64,
                        "time": 38.68408732499999,
                        "value": 0
                    },
                    {
                        "number": 64,
                        "time": 38.925232924999996,
                        "value": 1
                    },
                    {
                        "number": 64,
                        "time": 39.8003277,
                        "value": 0
                    },
                    {
                        "number": 64,
                        "time": 39.859672124999996,
                        "value": 1
                    },
                    {
                        "number": 64,
                        "time": 40.040531324999996,
                        "value": 0
                    },
                    {
                        "number": 64,
                        "time": 41.396975325,
                        "value": 0
                    },
                    {
                        "number": 64,
                        "time": 41.6541345,
                        "value": 1
                    },
                    {
                        "number": 64,
                        "time": 42.732695875,
                        "value": 0
                    },
                    {
                        "number": 64,
                        "time": 42.764723024999995,
                        "value": 1
                    },
                    {
                        "number": 64,
                        "time": 43.40620799999999,
                        "value": 0
                    },
                    {
                        "number": 64,
                        "time": 47.060129024999995,
                        "value": 1
                    },
                    {
                        "number": 64,
                        "time": 47.475539999999995,
                        "value": 0
                    },
                    {
                        "number": 64,
                        "time": 47.56691157499999,
                        "value": 1
                    },
                    {
                        "number": 64,
                        "time": 48.16694964999999,
                        "value": 0
                    },
                    {
                        "number": 64,
                        "time": 48.29317429999999,
                        "value": 1
                    },
                    {
                        "number": 64,
                        "time": 48.83198399999999,
                        "value": 0
                    },
                    {
                        "number": 64,
                        "time": 50.22328107499999,
                        "value": 1
                    },
                    {
                        "number": 64,
                        "time": 50.866649999999986,
                        "value": 0
                    },
                    {
                        "number": 64,
                        "time": 52.48590502499999,
                        "value": 1
                    },
                    {
                        "number": 64,
                        "time": 52.90131599999999,
                        "value": 0
                    },
                    {
                        "number": 64,
                        "time": 53.84234902499999,
                        "value": 1
                    },
                    {
                        "number": 64,
                        "time": 54.25775999999999,
                        "value": 0
                    },
                    {
                        "number": 64,
                        "time": 55.660360774999994,
                        "value": 1
                    },
                    {
                        "number": 64,
                        "time": 55.90244834999999,
                        "value": 0
                    },
                    {
                        "number": 64,
                        "time": 56.118160624999994,
                        "value": 1
                    },
                    {
                        "number": 64,
                        "time": 56.36778399999999,
                        "value": 0
                    },
                    {
                        "number": 64,
                        "time": 56.55335307499999,
                        "value": 1
                    },
                    {
                        "number": 64,
                        "time": 56.82558384999999,
                        "value": 0
                    },
                    {
                        "number": 64,
                        "time": 56.97818379999999,
                        "value": 1
                    },
                    {
                        "number": 64,
                        "time": 57.43598364999999,
                        "value": 0
                    },
                    {
                        "number": 64,
                        "time": 58.37324877499999,
                        "value": 1
                    },
                    {
                        "number": 64,
                        "time": 58.61533634999999,
                        "value": 0
                    },
                    {
                        "number": 64,
                        "time": 58.831048624999994,
                        "value": 1
                    },
                    {
                        "number": 64,
                        "time": 59.08067199999999,
                        "value": 0
                    },
                    {
                        "number": 64,
                        "time": 59.26624107499999,
                        "value": 1
                    },
                    {
                        "number": 64,
                        "time": 59.538471849999986,
                        "value": 0
                    },
                    {
                        "number": 64,
                        "time": 59.69107179999999,
                        "value": 1
                    },
                    {
                        "number": 64,
                        "time": 60.14887164999999,
                        "value": 0
                    },
                    {
                        "number": 64,
                        "time": 61.08613677499999,
                        "value": 1
                    },
                    {
                        "number": 64,
                        "time": 61.32822434999999,
                        "value": 0
                    },
                    {
                        "number": 64,
                        "time": 61.54393662499999,
                        "value": 1
                    },
                    {
                        "number": 64,
                        "time": 61.79355999999999,
                        "value": 0
                    },
                    {
                        "number": 64,
                        "time": 61.97912907499999,
                        "value": 1
                    },
                    {
                        "number": 64,
                        "time": 62.251359849999986,
                        "value": 0
                    },
                    {
                        "number": 64,
                        "time": 62.44258077499999,
                        "value": 1
                    },
                    {
                        "number": 64,
                        "time": 62.68466834999999,
                        "value": 0
                    },
                    {
                        "number": 64,
                        "time": 62.90038062499999,
                        "value": 1
                    },
                    {
                        "number": 64,
                        "time": 63.15000399999999,
                        "value": 0
                    },
                    {
                        "number": 64,
                        "time": 63.335573074999985,
                        "value": 1
                    },
                    {
                        "number": 64,
                        "time": 63.60780384999998,
                        "value": 0
                    },
                    {
                        "number": 64,
                        "time": 63.799024774999985,
                        "value": 1
                    },
                    {
                        "number": 64,
                        "time": 64.04111234999999,
                        "value": 0
                    },
                    {
                        "number": 64,
                        "time": 64.256824625,
                        "value": 1
                    },
                    {
                        "number": 64,
                        "time": 64.50644799999999,
                        "value": 0
                    },
                    {
                        "number": 64,
                        "time": 64.692017075,
                        "value": 1
                    },
                    {
                        "number": 64,
                        "time": 64.96424784999999,
                        "value": 0
                    },
                    {
                        "number": 64,
                        "time": 65.115905825,
                        "value": 0
                    },
                    {
                        "number": 64,
                        "time": 65.328792175,
                        "value": 1
                    },
                    {
                        "number": 64,
                        "time": 66.2509857,
                        "value": 0
                    },
                    {
                        "number": 64,
                        "time": 66.31033012500001,
                        "value": 1
                    },
                    {
                        "number": 64,
                        "time": 66.49118932500001,
                        "value": 0
                    },
                    {
                        "number": 64,
                        "time": 66.732334925,
                        "value": 1
                    },
                    {
                        "number": 64,
                        "time": 67.6074297,
                        "value": 0
                    },
                    {
                        "number": 64,
                        "time": 67.666774125,
                        "value": 1
                    },
                    {
                        "number": 64,
                        "time": 67.847633325,
                        "value": 0
                    },
                    {
                        "number": 64,
                        "time": 69.204077325,
                        "value": 0
                    },
                    {
                        "number": 64,
                        "time": 69.4612365,
                        "value": 1
                    },
                    {
                        "number": 64,
                        "time": 69.880415375,
                        "value": 0
                    },
                    {
                        "number": 64,
                        "time": 69.903022775,
                        "value": 1
                    },
                    {
                        "number": 64,
                        "time": 70.54827565,
                        "value": 0
                    },
                    {
                        "number": 64,
                        "time": 70.66131265,
                        "value": 1
                    },
                    {
                        "number": 64,
                        "time": 70.824274325,
                        "value": 0
                    },
                    {
                        "number": 64,
                        "time": 71.24910505000001,
                        "value": 1
                    },
                    {
                        "number": 64,
                        "time": 71.48742472500001,
                        "value": 0
                    },
                    {
                        "number": 64,
                        "time": 71.932036925,
                        "value": 1
                    },
                    {
                        "number": 64,
                        "time": 72.576347825,
                        "value": 0
                    },
                    {
                        "number": 64,
                        "time": 72.636634225,
                        "value": 1
                    },
                    {
                        "number": 64,
                        "time": 73.247976,
                        "value": 0
                    },
                    {
                        "number": 64,
                        "time": 73.341231525,
                        "value": 1
                    },
                    {
                        "number": 64,
                        "time": 73.926198,
                        "value": 0
                    },
                    {
                        "number": 64,
                        "time": 74.006265875,
                        "value": 1
                    },
                    {
                        "number": 64,
                        "time": 74.61760765,
                        "value": 0
                    },
                    {
                        "number": 64,
                        "time": 74.697675525,
                        "value": 1
                    },
                    {
                        "number": 64,
                        "time": 75.28923582499999,
                        "value": 0
                    },
                    {
                        "number": 64,
                        "time": 75.34952222499999,
                        "value": 1
                    },
                    {
                        "number": 64,
                        "time": 75.96086399999999,
                        "value": 0
                    },
                    {
                        "number": 64,
                        "time": 76.05411952499999,
                        "value": 1
                    },
                    {
                        "number": 64,
                        "time": 76.18882194999999,
                        "value": 0
                    },
                    {
                        "number": 64,
                        "time": 76.27359969999999,
                        "value": 1
                    },
                    {
                        "number": 64,
                        "time": 76.4280836,
                        "value": 0
                    },
                    {
                        "number": 64,
                        "time": 76.506267525,
                        "value": 1
                    },
                    {
                        "number": 64,
                        "time": 76.63908599999999,
                        "value": 0
                    },
                    {
                        "number": 64,
                        "time": 76.71915387499999,
                        "value": 1
                    },
                    {
                        "number": 64,
                        "time": 76.88305752499998,
                        "value": 0
                    },
                    {
                        "number": 64,
                        "time": 76.95841552499998,
                        "value": 1
                    },
                    {
                        "number": 64,
                        "time": 77.09971177499997,
                        "value": 0
                    },
                    {
                        "number": 64,
                        "time": 77.17789569999998,
                        "value": 1
                    },
                    {
                        "number": 64,
                        "time": 77.32013392499998,
                        "value": 0
                    },
                    {
                        "number": 64,
                        "time": 77.39737587499998,
                        "value": 1
                    },
                    {
                        "number": 64,
                        "time": 78.00212382499998,
                        "value": 0
                    },
                    {
                        "number": 64,
                        "time": 78.05487442499998,
                        "value": 1
                    },
                    {
                        "number": 64,
                        "time": 78.67375199999998,
                        "value": 0
                    },
                    {
                        "number": 64,
                        "time": 78.76700752499998,
                        "value": 1
                    },
                    {
                        "number": 64,
                        "time": 79.35197399999998,
                        "value": 0
                    },
                    {
                        "number": 64,
                        "time": 79.43204187499998,
                        "value": 1
                    },
                    {
                        "number": 64,
                        "time": 80.04338364999998,
                        "value": 0
                    },
                    {
                        "number": 64,
                        "time": 80.12345152499998,
                        "value": 1
                    },
                    {
                        "number": 64,
                        "time": 80.71501182499998,
                        "value": 0
                    },
                    {
                        "number": 64,
                        "time": 80.77529822499997,
                        "value": 1
                    },
                    {
                        "number": 64,
                        "time": 81.38663999999997,
                        "value": 0
                    },
                    {
                        "number": 64,
                        "time": 81.47989552499998,
                        "value": 1
                    },
                    {
                        "number": 64,
                        "time": 81.62401769999998,
                        "value": 0
                    },
                    {
                        "number": 64,
                        "time": 81.67771027499998,
                        "value": 1
                    },
                    {
                        "number": 64,
                        "time": 81.84443984999999,
                        "value": 0
                    },
                    {
                        "number": 64,
                        "time": 81.892480575,
                        "value": 1
                    },
                    {
                        "number": 64,
                        "time": 82.06486199999999,
                        "value": 0
                    },
                    {
                        "number": 64,
                        "time": 82.14492987499999,
                        "value": 1
                    },
                    {
                        "number": 64,
                        "time": 82.29752982499998,
                        "value": 0
                    },
                    {
                        "number": 64,
                        "time": 82.37100387499999,
                        "value": 1
                    },
                    {
                        "number": 64,
                        "time": 82.63004699999999,
                        "value": 0
                    },
                    {
                        "number": 64,
                        "time": 82.7769951,
                        "value": 1
                    },
                    {
                        "number": 64,
                        "time": 83.427899825,
                        "value": 0
                    },
                    {
                        "number": 64,
                        "time": 83.48818622499999,
                        "value": 1
                    },
                    {
                        "number": 64,
                        "time": 84.09952799999999,
                        "value": 0
                    },
                    {
                        "number": 64,
                        "time": 84.192783525,
                        "value": 1
                    },
                    {
                        "number": 64,
                        "time": 84.77775,
                        "value": 0
                    },
                    {
                        "number": 64,
                        "time": 84.857817875,
                        "value": 1
                    },
                    {
                        "number": 64,
                        "time": 85.46915965,
                        "value": 0
                    },
                    {
                        "number": 64,
                        "time": 85.54922752499999,
                        "value": 1
                    },
                    {
                        "number": 64,
                        "time": 86.815241925,
                        "value": 0
                    },
                    {
                        "number": 64,
                        "time": 86.89907769999999,
                        "value": 1
                    },
                    {
                        "number": 64,
                        "time": 88.173569875,
                        "value": 0
                    },
                    {
                        "number": 64,
                        "time": 88.2555217,
                        "value": 1
                    },
                    {
                        "number": 64,
                        "time": 88.853675825,
                        "value": 0
                    },
                    {
                        "number": 64,
                        "time": 88.91396222499999,
                        "value": 1
                    },
                    {
                        "number": 64,
                        "time": 89.52530399999999,
                        "value": 0
                    },
                    {
                        "number": 64,
                        "time": 89.618559525,
                        "value": 1
                    },
                    {
                        "number": 64,
                        "time": 90.203526,
                        "value": 0
                    },
                    {
                        "number": 64,
                        "time": 90.283593875,
                        "value": 1
                    },
                    {
                        "number": 64,
                        "time": 90.89493565,
                        "value": 0
                    },
                    {
                        "number": 64,
                        "time": 90.97500352499999,
                        "value": 1
                    },
                    {
                        "number": 64,
                        "time": 92.241017925,
                        "value": 0
                    },
                    {
                        "number": 64,
                        "time": 92.32485369999999,
                        "value": 1
                    },
                    {
                        "number": 64,
                        "time": 92.91641399999999,
                        "value": 0
                    },
                    {
                        "number": 64,
                        "time": 92.98141027499999,
                        "value": 1
                    },
                    {
                        "number": 64,
                        "time": 93.60688167499998,
                        "value": 0
                    },
                    {
                        "number": 64,
                        "time": 93.66999399999999,
                        "value": 1
                    },
                    {
                        "number": 64,
                        "time": 94.95107999999999,
                        "value": 0
                    },
                    {
                        "number": 64,
                        "time": 95.02832194999999,
                        "value": 1
                    },
                    {
                        "number": 64,
                        "time": 95.49365759999999,
                        "value": 0
                    },
                    {
                        "number": 64,
                        "time": 95.68393655,
                        "value": 1
                    },
                    {
                        "number": 64,
                        "time": 96.161517875,
                        "value": 0
                    },
                    {
                        "number": 64,
                        "time": 96.382882,
                        "value": 1
                    },
                    {
                        "number": 64,
                        "time": 97.663968,
                        "value": 0
                    },
                    {
                        "number": 64,
                        "time": 97.74120995,
                        "value": 1
                    },
                    {
                        "number": 64,
                        "time": 98.220675225,
                        "value": 0
                    },
                    {
                        "number": 64,
                        "time": 98.39682454999999,
                        "value": 1
                    },
                    {
                        "number": 64,
                        "time": 98.88759352499999,
                        "value": 0
                    },
                    {
                        "number": 64,
                        "time": 99.09576999999999,
                        "value": 1
                    },
                    {
                        "number": 64,
                        "time": 100.37685599999999,
                        "value": 0
                    },
                    {
                        "number": 64,
                        "time": 100.45409794999999,
                        "value": 1
                    },
                    {
                        "number": 64,
                        "time": 101.0588459,
                        "value": 0
                    },
                    {
                        "number": 64,
                        "time": 101.205794,
                        "value": 1
                    },
                    {
                        "number": 64,
                        "time": 101.65229015,
                        "value": 0
                    },
                    {
                        "number": 64,
                        "time": 101.81054195,
                        "value": 1
                    },
                    {
                        "number": 64,
                        "time": 102.282471425,
                        "value": 0
                    },
                    {
                        "number": 64,
                        "time": 102.48876394999999,
                        "value": 1
                    },
                    {
                        "number": 64,
                        "time": 102.9239564,
                        "value": 0
                    },
                    {
                        "number": 64,
                        "time": 103.16698595,
                        "value": 1
                    },
                    {
                        "number": 64,
                        "time": 103.612540125,
                        "value": 0
                    },
                    {
                        "number": 64,
                        "time": 104.52342995,
                        "value": 1
                    },
                    {
                        "number": 64,
                        "time": 104.99818535,
                        "value": 0
                    },
                    {
                        "number": 64,
                        "time": 105.20165195,
                        "value": 1
                    },
                    {
                        "number": 64,
                        "time": 105.689595,
                        "value": 0
                    },
                    {
                        "number": 64,
                        "time": 105.87987395,
                        "value": 1
                    },
                    {
                        "number": 64,
                        "time": 106.32825405,
                        "value": 0
                    },
                    {
                        "number": 64,
                        "time": 107.23631795,
                        "value": 1
                    },
                    {
                        "number": 64,
                        "time": 107.75628815,
                        "value": 0
                    },
                    {
                        "number": 64,
                        "time": 107.91453995,
                        "value": 1
                    },
                    {
                        "number": 64,
                        "time": 108.43451015000001,
                        "value": 0
                    },
                    {
                        "number": 64,
                        "time": 108.59276195000001,
                        "value": 1
                    },
                    {
                        "number": 64,
                        "time": 109.11273215000001,
                        "value": 0
                    },
                    {
                        "number": 64,
                        "time": 109.94920595,
                        "value": 1
                    },
                    {
                        "number": 64,
                        "time": 110.46917615000001,
                        "value": 0
                    },
                    {
                        "number": 64,
                        "time": 111.30564995,
                        "value": 1
                    },
                    {
                        "number": 64,
                        "time": 111.83409792500001,
                        "value": 0
                    },
                    {
                        "number": 64,
                        "time": 111.98387195000001,
                        "value": 1
                    },
                    {
                        "number": 64,
                        "time": 112.53492732500001,
                        "value": 0
                    },
                    {
                        "number": 64,
                        "time": 112.66209395000001,
                        "value": 1
                    },
                    {
                        "number": 64,
                        "time": 113.18394810000001,
                        "value": 0
                    },
                    {
                        "number": 64,
                        "time": 114.01853795000001,
                        "value": 1
                    },
                    {
                        "number": 64,
                        "time": 114.5328563,
                        "value": 0
                    },
                    {
                        "number": 64,
                        "time": 114.69675995,
                        "value": 1
                    },
                    {
                        "number": 64,
                        "time": 115.204484475,
                        "value": 0
                    },
                    {
                        "number": 64,
                        "time": 115.37498195,
                        "value": 1
                    },
                    {
                        "number": 64,
                        "time": 115.90625585000001,
                        "value": 0
                    },
                    {
                        "number": 64,
                        "time": 116.73142595,
                        "value": 1
                    },
                    {
                        "number": 64,
                        "time": 117.239150475,
                        "value": 0
                    },
                    {
                        "number": 64,
                        "time": 117.40964795000001,
                        "value": 1
                    },
                    {
                        "number": 64,
                        "time": 117.9239663,
                        "value": 0
                    },
                    {
                        "number": 64,
                        "time": 118.08786995,
                        "value": 1
                    },
                    {
                        "number": 64,
                        "time": 118.59276855,
                        "value": 0
                    },
                    {
                        "number": 64,
                        "time": 119.36707200000001,
                        "value": 0
                    },
                    {
                        "number": 64,
                        "time": 119.44431395000001,
                        "value": 1
                    },
                    {
                        "number": 64,
                        "time": 120.04529400000001,
                        "value": 0
                    },
                    {
                        "number": 64,
                        "time": 120.72351600000002,
                        "value": 0
                    },
                    {
                        "number": 64,
                        "time": 120.80075795000002,
                        "value": 1
                    },
                    {
                        "number": 64,
                        "time": 121.40173800000002,
                        "value": 0
                    },
                    {
                        "number": 64,
                        "time": 121.47897995000002,
                        "value": 1
                    },
                    {
                        "number": 64,
                        "time": 122.07996000000003,
                        "value": 0
                    },
                    {
                        "number": 64,
                        "time": 122.15720195000003,
                        "value": 1
                    },
                    {
                        "number": 64,
                        "time": 122.75818200000003,
                        "value": 0
                    },
                    {
                        "number": 64,
                        "time": 122.83542395000003,
                        "value": 1
                    },
                    {
                        "number": 64,
                        "time": 123.43640400000004,
                        "value": 0
                    },
                    {
                        "number": 64,
                        "time": 123.51364595000004,
                        "value": 1
                    },
                    {
                        "number": 64,
                        "time": 124.11462600000004,
                        "value": 0
                    },
                    {
                        "number": 64,
                        "time": 124.87008995000005,
                        "value": 1
                    },
                    {
                        "number": 64,
                        "time": 125.39006015000005,
                        "value": 0
                    },
                    {
                        "number": 64,
                        "time": 125.54831195000006,
                        "value": 1
                    },
                    {
                        "number": 64,
                        "time": 126.06828215000006,
                        "value": 0
                    },
                    {
                        "number": 64,
                        "time": 126.22653395000006,
                        "value": 1
                    },
                    {
                        "number": 64,
                        "time": 126.74650415000006,
                        "value": 0
                    },
                    {
                        "number": 64,
                        "time": 127.58297795000006,
                        "value": 1
                    },
                    {
                        "number": 64,
                        "time": 128.10294815000006,
                        "value": 0
                    },
                    {
                        "number": 64,
                        "time": 128.26119995000005,
                        "value": 1
                    },
                    {
                        "number": 64,
                        "time": 128.78117015000004,
                        "value": 0
                    },
                    {
                        "number": 64,
                        "time": 128.93942195000002,
                        "value": 1
                    },
                    {
                        "number": 64,
                        "time": 129.45939215,
                        "value": 0
                    },
                    {
                        "number": 64,
                        "time": 130.29586595,
                        "value": 1
                    },
                    {
                        "number": 64,
                        "time": 130.81583615,
                        "value": 0
                    },
                    {
                        "number": 64,
                        "time": 130.97408794999998,
                        "value": 1
                    },
                    {
                        "number": 64,
                        "time": 131.49405814999997,
                        "value": 0
                    },
                    {
                        "number": 64,
                        "time": 131.65230994999996,
                        "value": 1
                    },
                    {
                        "number": 64,
                        "time": 132.17228014999995,
                        "value": 0
                    },
                    {
                        "number": 64,
                        "time": 133.00875394999994,
                        "value": 1
                    },
                    {
                        "number": 64,
                        "time": 133.52872414999993,
                        "value": 0
                    },
                    {
                        "number": 64,
                        "time": 133.68697594999992,
                        "value": 1
                    },
                    {
                        "number": 64,
                        "time": 134.2069461499999,
                        "value": 0
                    },
                    {
                        "number": 64,
                        "time": 134.3651979499999,
                        "value": 1
                    },
                    {
                        "number": 64,
                        "time": 134.88516814999988,
                        "value": 0
                    },
                    {
                        "number": 64,
                        "time": 135.72164194999988,
                        "value": 1
                    },
                    {
                        "number": 64,
                        "time": 136.24161214999987,
                        "value": 0
                    },
                    {
                        "number": 64,
                        "time": 136.39986394999985,
                        "value": 1
                    },
                    {
                        "number": 64,
                        "time": 136.91983414999984,
                        "value": 0
                    },
                    {
                        "number": 64,
                        "time": 137.07808594999983,
                        "value": 1
                    },
                    {
                        "number": 64,
                        "time": 137.59805614999982,
                        "value": 0
                    },
                    {
                        "number": 64,
                        "time": 137.7563079499998,
                        "value": 1
                    },
                    {
                        "number": 64,
                        "time": 138.2762781499998,
                        "value": 0
                    },
                    {
                        "number": 64,
                        "time": 138.3977929249998,
                        "value": 1
                    },
                    {
                        "number": 64,
                        "time": 139.7137319999998,
                        "value": 0
                    },
                    {
                        "number": 64,
                        "time": 139.8333628249998,
                        "value": 1
                    },
                    {
                        "number": 64,
                        "time": 140.8582316249998,
                        "value": 0
                    },
                    {
                        "number": 64,
                        "time": 141.1106809249998,
                        "value": 1
                    },
                    {
                        "number": 64,
                        "time": 142.4266199999998,
                        "value": 0
                    },
                    {
                        "number": 64,
                        "time": 142.5462508249998,
                        "value": 1
                    },
                    {
                        "number": 64,
                        "time": 143.78965782499978,
                        "value": 0
                    },
                    {
                        "number": 64,
                        "time": 143.8235689249998,
                        "value": 1
                    },
                    {
                        "number": 64,
                        "time": 145.13950799999978,
                        "value": 0
                    },
                    {
                        "number": 64,
                        "time": 145.25913882499978,
                        "value": 1
                    },
                    {
                        "number": 64,
                        "time": 146.4959519999998,
                        "value": 0
                    },
                    {
                        "number": 64,
                        "time": 164.2267474249998,
                        "value": 1
                    },
                    {
                        "number": 64,
                        "time": 164.81830772499978,
                        "value": 0
                    },
                    {
                        "number": 64,
                        "time": 164.8946076999998,
                        "value": 1
                    },
                    {
                        "number": 64,
                        "time": 165.4937037999998,
                        "value": 0
                    },
                    {
                        "number": 64,
                        "time": 165.5888432749998,
                        "value": 1
                    },
                    {
                        "number": 64,
                        "time": 166.1719257999998,
                        "value": 0
                    },
                    {
                        "number": 64,
                        "time": 166.2557615749998,
                        "value": 1
                    },
                    {
                        "number": 64,
                        "time": 166.8426119999998,
                        "value": 0
                    },
                    {
                        "number": 64,
                        "time": 166.9236218499998,
                        "value": 1
                    },
                    {
                        "number": 64,
                        "time": 167.52836979999978,
                        "value": 0
                    },
                    {
                        "number": 64,
                        "time": 167.60184384999977,
                        "value": 1
                    },
                    {
                        "number": 64,
                        "time": 168.20847574999976,
                        "value": 0
                    },
                    {
                        "number": 64,
                        "time": 168.31209299999978,
                        "value": 1
                    },
                    {
                        "number": 64,
                        "time": 168.88669774999977,
                        "value": 0
                    },
                    {
                        "number": 64,
                        "time": 168.99031499999978,
                        "value": 1
                    },
                    {
                        "number": 64,
                        "time": 169.56491974999977,
                        "value": 0
                    },
                    {
                        "number": 64,
                        "time": 169.64216169999978,
                        "value": 1
                    },
                    {
                        "number": 64,
                        "time": 170.11409117499977,
                        "value": 0
                    },
                    {
                        "number": 64,
                        "time": 170.32038369999978,
                        "value": 1
                    },
                    {
                        "number": 64,
                        "time": 170.78571934999977,
                        "value": 0
                    },
                    {
                        "number": 64,
                        "time": 170.99860569999976,
                        "value": 1
                    },
                    {
                        "number": 64,
                        "time": 171.47712899999976,
                        "value": 0
                    },
                    {
                        "number": 64,
                        "time": 171.67682769999976,
                        "value": 1
                    },
                    {
                        "number": 64,
                        "time": 172.16853864999976,
                        "value": 0
                    },
                    {
                        "number": 64,
                        "time": 172.35504969999977,
                        "value": 1
                    },
                    {
                        "number": 64,
                        "time": 172.83357299999977,
                        "value": 0
                    },
                    {
                        "number": 64,
                        "time": 173.03327169999977,
                        "value": 1
                    },
                    {
                        "number": 64,
                        "time": 173.51179499999978,
                        "value": 0
                    },
                    {
                        "number": 64,
                        "time": 173.71149369999978,
                        "value": 1
                    },
                    {
                        "number": 64,
                        "time": 174.20320464999978,
                        "value": 0
                    },
                    {
                        "number": 64,
                        "time": 174.38971569999978,
                        "value": 1
                    },
                    {
                        "number": 64,
                        "time": 174.8682389999998,
                        "value": 0
                    },
                    {
                        "number": 64,
                        "time": 175.0679376999998,
                        "value": 1
                    },
                    {
                        "number": 64,
                        "time": 175.53327334999977,
                        "value": 0
                    },
                    {
                        "number": 64,
                        "time": 175.74615969999977,
                        "value": 1
                    },
                    {
                        "number": 64,
                        "time": 176.23692867499977,
                        "value": 0
                    },
                    {
                        "number": 64,
                        "time": 176.42438169999977,
                        "value": 1
                    },
                    {
                        "number": 64,
                        "time": 176.90290499999978,
                        "value": 0
                    },
                    {
                        "number": 64,
                        "time": 177.10260369999978,
                        "value": 1
                    },
                    {
                        "number": 64,
                        "time": 177.58772082499976,
                        "value": 0
                    },
                    {
                        "number": 64,
                        "time": 177.78082569999975,
                        "value": 1
                    },
                    {
                        "number": 64,
                        "time": 178.28666627499976,
                        "value": 0
                    },
                    {
                        "number": 64,
                        "time": 178.45904769999976,
                        "value": 1
                    },
                    {
                        "number": 64,
                        "time": 178.93286112499976,
                        "value": 0
                    },
                    {
                        "number": 64,
                        "time": 179.13726969999976,
                        "value": 1
                    },
                    {
                        "number": 64,
                        "time": 179.65347199999977,
                        "value": 0
                    },
                    {
                        "number": 64,
                        "time": 179.81549169999977,
                        "value": 1
                    },
                    {
                        "number": 64,
                        "time": 180.41176187499977,
                        "value": 0
                    },
                    {
                        "number": 64,
                        "time": 180.50690134999977,
                        "value": 1
                    },
                    {
                        "number": 64,
                        "time": 181.76349599999978,
                        "value": 0
                    },
                    {
                        "number": 64,
                        "time": 181.88312682499978,
                        "value": 1
                    },
                    {
                        "number": 64,
                        "time": 182.90234377499976,
                        "value": 0
                    },
                    {
                        "number": 64,
                        "time": 183.20660169999977,
                        "value": 1
                    },
                    {
                        "number": 64,
                        "time": 183.66911142499976,
                        "value": 0
                    },
                    {
                        "number": 64,
                        "time": 183.88482369999974,
                        "value": 1
                    },
                    {
                        "number": 64,
                        "time": 184.39066427499975,
                        "value": 0
                    },
                    {
                        "number": 64,
                        "time": 184.56304569999975,
                        "value": 1
                    },
                    {
                        "number": 64,
                        "time": 185.01990357499974,
                        "value": 0
                    },
                    {
                        "number": 64,
                        "time": 185.24126769999975,
                        "value": 1
                    },
                    {
                        "number": 64,
                        "time": 185.69812557499975,
                        "value": 0
                    },
                    {
                        "number": 64,
                        "time": 185.93267734999975,
                        "value": 1
                    },
                    {
                        "number": 64,
                        "time": 187.18927199999976,
                        "value": 0
                    },
                    {
                        "number": 64,
                        "time": 187.30890282499976,
                        "value": 1
                    },
                    {
                        "number": 64,
                        "time": 188.33377162499977,
                        "value": 0
                    },
                    {
                        "number": 64,
                        "time": 188.55513574999978,
                        "value": 0
                    },
                    {
                        "number": 64,
                        "time": 188.63237769999978,
                        "value": 1
                    },
                    {
                        "number": 64,
                        "time": 189.12691457499977,
                        "value": 0
                    },
                    {
                        "number": 64,
                        "time": 189.31059969999978,
                        "value": 1
                    },
                    {
                        "number": 64,
                        "time": 189.7891229999998,
                        "value": 0
                    },
                    {
                        "number": 64,
                        "time": 189.9888216999998,
                        "value": 1
                    },
                    {
                        "number": 64,
                        "time": 190.5003141249998,
                        "value": 0
                    },
                    {
                        "number": 64,
                        "time": 190.6670436999998,
                        "value": 1
                    },
                    {
                        "number": 64,
                        "time": 191.1615805749998,
                        "value": 0
                    },
                    {
                        "number": 64,
                        "time": 191.3584533499998,
                        "value": 1
                    },
                    {
                        "number": 64,
                        "time": 192.6150479999998,
                        "value": 0
                    },
                    {
                        "number": 64,
                        "time": 192.7346788249998,
                        "value": 1
                    },
                    {
                        "number": 64,
                        "time": 193.7595476249998,
                        "value": 0
                    },
                    {
                        "number": 64,
                        "time": 193.97808582499982,
                        "value": 0
                    },
                    {
                        "number": 64,
                        "time": 194.01199692499983,
                        "value": 1
                    },
                    {
                        "number": 64,
                        "time": 195.32793599999982,
                        "value": 0
                    },
                    {
                        "number": 64,
                        "time": 195.44756682499983,
                        "value": 1
                    },
                    {
                        "number": 64,
                        "time": 196.68437999999983,
                        "value": 0
                    },
                    {
                        "number": 64,
                        "time": 196.79082317499984,
                        "value": 1
                    },
                    {
                        "number": 64,
                        "time": 196.92458362499985,
                        "value": 0
                    },
                    {
                        "number": 64,
                        "time": 199.49429142499986,
                        "value": 1
                    },
                    {
                        "number": 64,
                        "time": 199.95585917499986,
                        "value": 0
                    },
                    {
                        "number": 64,
                        "time": 200.17251342499986,
                        "value": 1
                    },
                    {
                        "number": 64,
                        "time": 200.66045647499988,
                        "value": 0
                    },
                    {
                        "number": 64,
                        "time": 200.85073542499987,
                        "value": 1
                    },
                    {
                        "number": 64,
                        "time": 201.26614639999985,
                        "value": 0
                    },
                    {
                        "number": 64,
                        "time": 201.52895742499985,
                        "value": 1
                    },
                    {
                        "number": 64,
                        "time": 201.94436839999983,
                        "value": 0
                    },
                    {
                        "number": 64,
                        "time": 202.20717942499982,
                        "value": 1
                    },
                    {
                        "number": 64,
                        "time": 202.6225903999998,
                        "value": 0
                    },
                    {
                        "number": 64,
                        "time": 202.8854014249998,
                        "value": 1
                    },
                    {
                        "number": 64,
                        "time": 203.30081239999978,
                        "value": 0
                    },
                    {
                        "number": 64,
                        "time": 203.56362342499978,
                        "value": 1
                    },
                    {
                        "number": 64,
                        "time": 203.97903439999976,
                        "value": 0
                    },
                    {
                        "number": 64,
                        "time": 204.24184542499975,
                        "value": 1
                    },
                    {
                        "number": 64,
                        "time": 204.65725639999974,
                        "value": 0
                    },
                    {
                        "number": 64,
                        "time": 204.85695509999974,
                        "value": 1
                    },
                    {
                        "number": 64,
                        "time": 205.50785982499974,
                        "value": 0
                    },
                    {
                        "number": 64,
                        "time": 209.47074864999973,
                        "value": 0
                    },
                    {
                        "number": 64,
                        "time": 210.12918917499974,
                        "value": 0
                    },
                    {
                        "number": 64,
                        "time": 210.79422352499975,
                        "value": 0
                    },
                    {
                        "number": 64,
                        "time": 211.63917509999976,
                        "value": 1
                    },
                    {
                        "number": 64,
                        "time": 212.29007982499976,
                        "value": 0
                    },
                    {
                        "number": 64,
                        "time": 215.68118982499976,
                        "value": 1
                    },
                    {
                        "number": 64,
                        "time": 216.25296864999976,
                        "value": 0
                    },
                    {
                        "number": 64,
                        "time": 216.43947969999977,
                        "value": 1
                    },
                    {
                        "number": 64,
                        "time": 216.91140917499976,
                        "value": 0
                    },
                    {
                        "number": 64,
                        "time": 217.07154492499976,
                        "value": 1
                    },
                    {
                        "number": 64,
                        "time": 217.57644352499975,
                        "value": 0
                    },
                    {
                        "number": 64,
                        "time": 218.44777039999974,
                        "value": 1
                    },
                    {
                        "number": 64,
                        "time": 220.42214999999973,
                        "value": 0
                    },
                    {
                        "number": 64,
                        "time": 220.59829932499974,
                        "value": 1
                    },
                    {
                        "number": 64,
                        "time": 221.67874464999974,
                        "value": 0
                    },
                    {
                        "number": 64,
                        "time": 221.86525569999975,
                        "value": 1
                    },
                    {
                        "number": 64,
                        "time": 222.33718517499975,
                        "value": 0
                    },
                    {
                        "number": 64,
                        "time": 223.18873057499974,
                        "value": 1
                    },
                    {
                        "number": 64,
                        "time": 225.18477559999974,
                        "value": 0
                    },
                    {
                        "number": 64,
                        "time": 225.30817432499973,
                        "value": 1
                    },
                    {
                        "number": 64,
                        "time": 226.42629864999972,
                        "value": 0
                    },
                    {
                        "number": 64,
                        "time": 226.61280969999973,
                        "value": 1
                    },
                    {
                        "number": 64,
                        "time": 227.08473917499973,
                        "value": 0
                    },
                    {
                        "number": 64,
                        "time": 227.88259199999973,
                        "value": 0
                    },
                    {
                        "number": 64,
                        "time": 228.05874132499974,
                        "value": 1
                    },
                    {
                        "number": 64,
                        "time": 229.13918664999974,
                        "value": 0
                    },
                    {
                        "number": 64,
                        "time": 229.32569769999975,
                        "value": 1
                    },
                    {
                        "number": 64,
                        "time": 229.79762717499975,
                        "value": 0
                    },
                    {
                        "number": 64,
                        "time": 230.59547999999975,
                        "value": 0
                    },
                    {
                        "number": 64,
                        "time": 230.77162932499976,
                        "value": 1
                    },
                    {
                        "number": 64,
                        "time": 231.95192399999976,
                        "value": 0
                    },
                    {
                        "number": 64,
                        "time": 232.03858569999977,
                        "value": 1
                    },
                    {
                        "number": 64,
                        "time": 232.63014599999977,
                        "value": 0
                    },
                    {
                        "number": 64,
                        "time": 244.42273102499976,
                        "value": 1
                    },
                    {
                        "number": 64,
                        "time": 244.83814199999975,
                        "value": 0
                    },
                    {
                        "number": 64,
                        "time": 244.92951357499976,
                        "value": 1
                    },
                    {
                        "number": 64,
                        "time": 245.52955164999975,
                        "value": 0
                    },
                    {
                        "number": 64,
                        "time": 245.65577629999976,
                        "value": 1
                    },
                    {
                        "number": 64,
                        "time": 246.19458599999976,
                        "value": 0
                    },
                    {
                        "number": 64,
                        "time": 247.58588307499977,
                        "value": 1
                    },
                    {
                        "number": 64,
                        "time": 248.22925199999978,
                        "value": 0
                    },
                    {
                        "number": 64,
                        "time": 249.84850702499978,
                        "value": 1
                    },
                    {
                        "number": 64,
                        "time": 250.26391799999976,
                        "value": 0
                    },
                    {
                        "number": 64,
                        "time": 250.35528957499977,
                        "value": 1
                    },
                    {
                        "number": 64,
                        "time": 250.95250172499976,
                        "value": 0
                    },
                    {
                        "number": 64,
                        "time": 251.23603619999977,
                        "value": 1
                    },
                    {
                        "number": 64,
                        "time": 251.62036199999977,
                        "value": 0
                    },
                    {
                        "number": 64,
                        "time": 253.25657257499978,
                        "value": 1
                    },
                    {
                        "number": 64,
                        "time": 253.6748094749998,
                        "value": 0
                    },
                    {
                        "number": 64,
                        "time": 254.3332499999998,
                        "value": 0
                    },
                    {
                        "number": 64,
                        "time": 255.9694605749998,
                        "value": 1
                    },
                    {
                        "number": 64,
                        "time": 256.3876974749998,
                        "value": 0
                    },
                    {
                        "number": 64,
                        "time": 256.6618121999998,
                        "value": 1
                    },
                    {
                        "number": 64,
                        "time": 257.0461379999998,
                        "value": 0
                    },
                    {
                        "number": 64,
                        "time": 258.6823485749998,
                        "value": 1
                    },
                    {
                        "number": 64,
                        "time": 259.10058547499983,
                        "value": 0
                    },
                    {
                        "number": 64,
                        "time": 259.75902599999984,
                        "value": 0
                    },
                    {
                        "number": 64,
                        "time": 261.1588008499998,
                        "value": 1
                    },
                    {
                        "number": 64,
                        "time": 261.3679192999998,
                        "value": 0
                    },
                    {
                        "number": 64,
                        "time": 261.4046563249998,
                        "value": 1
                    },
                    {
                        "number": 64,
                        "time": 261.7936919999998,
                        "value": 0
                    },
                    {
                        "number": 64,
                        "time": 262.4719139999998,
                        "value": 1
                    },
                    {
                        "number": 64,
                        "time": 263.1501359999998,
                        "value": 0
                    },
                    {
                        "number": 64,
                        "time": 263.2358557249998,
                        "value": 1
                    },
                    {
                        "number": 64,
                        "time": 263.8443715749998,
                        "value": 0
                    },
                    {
                        "number": 64,
                        "time": 263.9197295749998,
                        "value": 1
                    },
                    {
                        "number": 64,
                        "time": 264.5131738249998,
                        "value": 0
                    },
                    {
                        "number": 64,
                        "time": 265.64825369999977,
                        "value": 0
                    },
                    {
                        "number": 64,
                        "time": 265.7075981249998,
                        "value": 1
                    },
                    {
                        "number": 64,
                        "time": 265.88845732499976,
                        "value": 0
                    },
                    {
                        "number": 64,
                        "time": 266.12960292499974,
                        "value": 1
                    },
                    {
                        "number": 64,
                        "time": 267.0046976999997,
                        "value": 0
                    },
                    {
                        "number": 64,
                        "time": 267.06404212499973,
                        "value": 1
                    },
                    {
                        "number": 64,
                        "time": 267.2449013249997,
                        "value": 0
                    },
                    {
                        "number": 64,
                        "time": 268.6013453249997,
                        "value": 0
                    },
                    {
                        "number": 64,
                        "time": 268.85850449999975,
                        "value": 1
                    },
                    {
                        "number": 64,
                        "time": 269.93706587499975,
                        "value": 0
                    },
                    {
                        "number": 64,
                        "time": 269.9690930249997,
                        "value": 1
                    },
                    {
                        "number": 64,
                        "time": 270.61057799999975,
                        "value": 0
                    },
                    {
                        "number": 64,
                        "time": 274.26449902499974,
                        "value": 1
                    },
                    {
                        "number": 64,
                        "time": 274.6799099999997,
                        "value": 0
                    },
                    {
                        "number": 64,
                        "time": 274.7712815749997,
                        "value": 1
                    },
                    {
                        "number": 64,
                        "time": 275.3713196499997,
                        "value": 0
                    },
                    {
                        "number": 64,
                        "time": 275.4975442999997,
                        "value": 1
                    },
                    {
                        "number": 64,
                        "time": 276.0363539999997,
                        "value": 0
                    },
                    {
                        "number": 64,
                        "time": 277.4276510749997,
                        "value": 1
                    },
                    {
                        "number": 64,
                        "time": 278.0710199999997,
                        "value": 0
                    },
                    {
                        "number": 64,
                        "time": 279.69027502499966,
                        "value": 1
                    },
                    {
                        "number": 64,
                        "time": 280.10568599999965,
                        "value": 0
                    },
                    {
                        "number": 64,
                        "time": 281.0467190249997,
                        "value": 1
                    },
                    {
                        "number": 64,
                        "time": 281.46212999999966,
                        "value": 0
                    },
                    {
                        "number": 64,
                        "time": 282.86473077499966,
                        "value": 1
                    },
                    {
                        "number": 64,
                        "time": 283.1068183499997,
                        "value": 0
                    },
                    {
                        "number": 64,
                        "time": 283.3225306249997,
                        "value": 1
                    },
                    {
                        "number": 64,
                        "time": 283.57215399999967,
                        "value": 0
                    },
                    {
                        "number": 64,
                        "time": 283.75772307499966,
                        "value": 1
                    },
                    {
                        "number": 64,
                        "time": 284.0299538499997,
                        "value": 0
                    },
                    {
                        "number": 64,
                        "time": 284.1825537999997,
                        "value": 1
                    },
                    {
                        "number": 64,
                        "time": 284.6403536499997,
                        "value": 0
                    },
                    {
                        "number": 64,
                        "time": 285.57761877499973,
                        "value": 1
                    },
                    {
                        "number": 64,
                        "time": 285.81970634999976,
                        "value": 0
                    },
                    {
                        "number": 64,
                        "time": 286.03541862499975,
                        "value": 1
                    },
                    {
                        "number": 64,
                        "time": 286.28504199999975,
                        "value": 0
                    },
                    {
                        "number": 64,
                        "time": 286.47061107499974,
                        "value": 1
                    },
                    {
                        "number": 64,
                        "time": 286.74284184999976,
                        "value": 0
                    },
                    {
                        "number": 64,
                        "time": 286.8954417999998,
                        "value": 1
                    },
                    {
                        "number": 64,
                        "time": 287.3532416499998,
                        "value": 0
                    },
                    {
                        "number": 64,
                        "time": 288.2905067749998,
                        "value": 1
                    },
                    {
                        "number": 64,
                        "time": 288.53259434999984,
                        "value": 0
                    },
                    {
                        "number": 64,
                        "time": 288.7483066249998,
                        "value": 1
                    },
                    {
                        "number": 64,
                        "time": 288.9979299999998,
                        "value": 0
                    },
                    {
                        "number": 64,
                        "time": 289.1834990749998,
                        "value": 1
                    },
                    {
                        "number": 64,
                        "time": 289.45572984999984,
                        "value": 0
                    },
                    {
                        "number": 64,
                        "time": 289.6469507749998,
                        "value": 1
                    },
                    {
                        "number": 64,
                        "time": 289.88903834999985,
                        "value": 0
                    },
                    {
                        "number": 64,
                        "time": 290.10475062499984,
                        "value": 1
                    },
                    {
                        "number": 64,
                        "time": 290.35437399999984,
                        "value": 0
                    },
                    {
                        "number": 64,
                        "time": 290.5399430749998,
                        "value": 1
                    },
                    {
                        "number": 64,
                        "time": 290.81217384999985,
                        "value": 0
                    },
                    {
                        "number": 64,
                        "time": 291.00339477499983,
                        "value": 1
                    },
                    {
                        "number": 64,
                        "time": 291.24548234999986,
                        "value": 0
                    },
                    {
                        "number": 64,
                        "time": 291.46119462499985,
                        "value": 1
                    },
                    {
                        "number": 64,
                        "time": 291.71081799999985,
                        "value": 0
                    },
                    {
                        "number": 64,
                        "time": 291.89638707499984,
                        "value": 1
                    },
                    {
                        "number": 64,
                        "time": 292.16861784999986,
                        "value": 0
                    },
                    {
                        "number": 64,
                        "time": 292.32027582499984,
                        "value": 0
                    },
                    {
                        "number": 64,
                        "time": 292.53316217499986,
                        "value": 1
                    },
                    {
                        "number": 64,
                        "time": 293.45535569999987,
                        "value": 0
                    },
                    {
                        "number": 64,
                        "time": 293.5147001249999,
                        "value": 1
                    },
                    {
                        "number": 64,
                        "time": 293.69555932499986,
                        "value": 0
                    },
                    {
                        "number": 64,
                        "time": 293.93670492499984,
                        "value": 1
                    },
                    {
                        "number": 64,
                        "time": 294.8117996999998,
                        "value": 0
                    },
                    {
                        "number": 64,
                        "time": 294.87114412499983,
                        "value": 1
                    },
                    {
                        "number": 64,
                        "time": 295.0520033249998,
                        "value": 0
                    },
                    {
                        "number": 64,
                        "time": 296.4084473249998,
                        "value": 0
                    },
                    {
                        "number": 64,
                        "time": 296.66560649999985,
                        "value": 1
                    },
                    {
                        "number": 64,
                        "time": 297.08478537499985,
                        "value": 0
                    },
                    {
                        "number": 64,
                        "time": 297.1073927749999,
                        "value": 1
                    },
                    {
                        "number": 64,
                        "time": 297.7488777499999,
                        "value": 0
                    },
                    {
                        "number": 64,
                        "time": 297.7959764999999,
                        "value": 1
                    },
                    {
                        "number": 64,
                        "time": 297.9090134999999,
                        "value": 0
                    },
                    {
                        "number": 64,
                        "time": 307.9561188499999,
                        "value": 1
                    },
                    {
                        "number": 64,
                        "time": 308.62115319999987,
                        "value": 0
                    },
                    {
                        "number": 64,
                        "time": 309.97100337499984,
                        "value": 1
                    },
                    {
                        "number": 64,
                        "time": 310.63886364999985,
                        "value": 0
                    },
                    {
                        "number": 64,
                        "time": 310.69255622499986,
                        "value": 1
                    },
                    {
                        "number": 64,
                        "time": 311.19745482499985,
                        "value": 0
                    },
                    {
                        "number": 64,
                        "time": 313.3705911499998,
                        "value": 1
                    },
                    {
                        "number": 64,
                        "time": 314.0798983249998,
                        "value": 0
                    },
                    {
                        "number": 64,
                        "time": 315.40996702499984,
                        "value": 1
                    },
                    {
                        "number": 64,
                        "time": 316.06463964999983,
                        "value": 0
                    },
                    {
                        "number": 64,
                        "time": 316.13434579999983,
                        "value": 1
                    },
                    {
                        "number": 64,
                        "time": 316.5601184999998,
                        "value": 0
                    },
                    {
                        "number": 64,
                        "time": 318.80955479999983,
                        "value": 1
                    },
                    {
                        "number": 64,
                        "time": 319.4689372999998,
                        "value": 0
                    },
                    {
                        "number": 64,
                        "time": 320.83574302499983,
                        "value": 1
                    },
                    {
                        "number": 64,
                        "time": 322.01226979999984,
                        "value": 0
                    },
                    {
                        "number": 64,
                        "time": 345.23477947499987,
                        "value": 1
                    },
                    {
                        "number": 64,
                        "time": 345.6972891999999,
                        "value": 0
                    },
                    {
                        "number": 64,
                        "time": 345.97328787499987,
                        "value": 1
                    },
                    {
                        "number": 64,
                        "time": 346.4357975999999,
                        "value": 0
                    },
                    {
                        "number": 64,
                        "time": 346.6213666749999,
                        "value": 1
                    },
                    {
                        "number": 64,
                        "time": 347.12720724999986,
                        "value": 0
                    },
                    {
                        "number": 64,
                        "time": 347.2995886749999,
                        "value": 1
                    },
                    {
                        "number": 64,
                        "time": 347.79506752499987,
                        "value": 0
                    },
                    {
                        "number": 64,
                        "time": 348.01454769999987,
                        "value": 1
                    },
                    {
                        "number": 64,
                        "time": 348.49024507499985,
                        "value": 0
                    },
                    {
                        "number": 64,
                        "time": 348.6626264999999,
                        "value": 1
                    },
                    {
                        "number": 64,
                        "time": 349.1844806499999,
                        "value": 0
                    },
                    {
                        "number": 64,
                        "time": 349.3540361499999,
                        "value": 1
                    },
                    {
                        "number": 64,
                        "time": 349.8033582249999,
                        "value": 0
                    },
                    {
                        "number": 64,
                        "time": 350.0058828499999,
                        "value": 1
                    },
                    {
                        "number": 64,
                        "time": 350.52302712499994,
                        "value": 0
                    },
                    {
                        "number": 64,
                        "time": 350.7340295249999,
                        "value": 1
                    },
                    {
                        "number": 64,
                        "time": 351.19653924999994,
                        "value": 0
                    },
                    {
                        "number": 64,
                        "time": 351.36892067499997,
                        "value": 1
                    },
                    {
                        "number": 64,
                        "time": 351.881355075,
                        "value": 0
                    },
                    {
                        "number": 64,
                        "time": 352.090473525,
                        "value": 1
                    },
                    {
                        "number": 64,
                        "time": 352.559577075,
                        "value": 0
                    },
                    {
                        "number": 64,
                        "time": 352.7357264,
                        "value": 1
                    },
                    {
                        "number": 64,
                        "time": 353.277362025,
                        "value": 0
                    },
                    {
                        "number": 64,
                        "time": 353.4440916,
                        "value": 1
                    },
                    {
                        "number": 64,
                        "time": 353.93203465,
                        "value": 0
                    },
                    {
                        "number": 64,
                        "time": 354.085576575,
                        "value": 1
                    },
                    {
                        "number": 64,
                        "time": 354.58764925,
                        "value": 0
                    },
                    {
                        "number": 64,
                        "time": 354.79676770000003,
                        "value": 1
                    },
                    {
                        "number": 64,
                        "time": 355.26210335,
                        "value": 0
                    },
                    {
                        "number": 64,
                        "time": 355.460860075,
                        "value": 1
                    },
                    {
                        "number": 64,
                        "time": 355.9459772,
                        "value": 0
                    },
                    {
                        "number": 64,
                        "time": 356.086331475,
                        "value": 1
                    },
                    {
                        "number": 64,
                        "time": 356.5488412,
                        "value": 0
                    },
                    {
                        "number": 64,
                        "time": 356.824839875,
                        "value": 1
                    },
                    {
                        "number": 64,
                        "time": 357.2873496,
                        "value": 0
                    },
                    {
                        "number": 64,
                        "time": 357.472918675,
                        "value": 1
                    },
                    {
                        "number": 64,
                        "time": 357.97875925,
                        "value": 0
                    },
                    {
                        "number": 64,
                        "time": 358.151140675,
                        "value": 1
                    },
                    {
                        "number": 64,
                        "time": 358.646619525,
                        "value": 0
                    },
                    {
                        "number": 64,
                        "time": 358.8660997,
                        "value": 1
                    },
                    {
                        "number": 64,
                        "time": 359.341797075,
                        "value": 0
                    },
                    {
                        "number": 64,
                        "time": 359.5141785,
                        "value": 1
                    },
                    {
                        "number": 64,
                        "time": 360.03603265000004,
                        "value": 0
                    },
                    {
                        "number": 64,
                        "time": 360.20558815000004,
                        "value": 1
                    },
                    {
                        "number": 64,
                        "time": 360.65491022500004,
                        "value": 0
                    },
                    {
                        "number": 64,
                        "time": 360.85743485000006,
                        "value": 1
                    },
                    {
                        "number": 64,
                        "time": 361.3745791250001,
                        "value": 0
                    },
                    {
                        "number": 64,
                        "time": 361.58558152500007,
                        "value": 1
                    },
                    {
                        "number": 64,
                        "time": 362.0480912500001,
                        "value": 0
                    },
                    {
                        "number": 64,
                        "time": 362.2204726750001,
                        "value": 1
                    },
                    {
                        "number": 64,
                        "time": 362.7329070750001,
                        "value": 0
                    },
                    {
                        "number": 64,
                        "time": 362.94202552500013,
                        "value": 1
                    },
                    {
                        "number": 64,
                        "time": 363.41112907500013,
                        "value": 0
                    },
                    {
                        "number": 64,
                        "time": 363.5872784000001,
                        "value": 1
                    },
                    {
                        "number": 64,
                        "time": 364.05920787500014,
                        "value": 0
                    },
                    {
                        "number": 64,
                        "time": 364.10913255000014,
                        "value": 1
                    },
                    {
                        "number": 64,
                        "time": 368.95276800000016,
                        "value": 0
                    }
                ]
            },
            "id": 3,
            "name": "Pedale",
            "instrumentNumber": 0,
            "instrument": "acoustic grand piano",
            "instrumentFamily": "piano",
            "channelNumber": 0,
            "isPercussion": false
        },
        {
            "startTime": 0,
            "duration": 0,
            "length": 0,
            "notes": [],
            "controlChanges": {},
            "id": 4,
            "name": "Schubert:: Impromptu D935 No. 4"
        },
        {
            "startTime": 0,
            "duration": 0,
            "length": 0,
            "notes": [],
            "controlChanges": {},
            "id": 5,
            "name": "Copyright  2007 by Bernd Krueger"
        },
        {
            "startTime": 0,
            "duration": 0,
            "length": 0,
            "notes": [],
            "controlChanges": {},
            "id": 6,
            "name": "http://www.piano-midi.de/"
        },
        {
            "startTime": 0,
            "duration": 0,
            "length": 0,
            "notes": [],
            "controlChanges": {},
            "id": 7,
            "name": "Edition: 2014-03-22"
        },
        {
            "startTime": 0,
            "duration": 0,
            "length": 0,
            "notes": [],
            "controlChanges": {},
            "id": 8,
            "name": "Spur 8"
        },
        {
            "startTime": 0,
            "duration": 0,
            "length": 0,
            "notes": [],
            "controlChanges": {},
            "id": 9,
            "name": "Spur 9"
        },
        {
            "startTime": 0,
            "duration": 0,
            "length": 0,
            "notes": [],
            "controlChanges": {},
            "id": 10,
            "name": "Spur 10"
        },
        {
            "startTime": 0,
            "duration": 0,
            "length": 0,
            "notes": [],
            "controlChanges": {},
            "id": 11,
            "name": "Spur 11"
        },
        {
            "startTime": 0,
            "duration": 0,
            "length": 0,
            "notes": [],
            "controlChanges": {},
            "id": 12,
            "name": "Spur 12"
        },
        {
            "startTime": 0,
            "duration": 0,
            "length": 0,
            "notes": [],
            "controlChanges": {},
            "id": 13,
            "name": "Spur 13"
        },
        {
            "startTime": 0,
            "duration": 0,
            "length": 0,
            "notes": [],
            "controlChanges": {},
            "id": 14,
            "name": "Spur 14"
        },
        {
            "startTime": 0,
            "duration": 0,
            "length": 0,
            "notes": [],
            "controlChanges": {},
            "id": 15,
            "name": "Spur 15"
        },
        {
            "startTime": 0,
            "duration": 0,
            "length": 0,
            "notes": [],
            "controlChanges": {},
            "id": 16,
            "name": "Spur 16"
        }
    ]
}