{
    "header": {
        "PPQ": 480,
        "timeSignature": [
            3,
            4
        ],
        "bpm": 167.55985377610094,
        "name": "Klaviersonate a-Moll, Opus 143 3. Satz"
    },
    "startTime": 0,
    "duration": 288.076164500003,
    "tracks": [
        {
            "startTime": 0,
            "duration": 0,
            "length": 0,
            "notes": [],
            "controlChanges": {},
            "id": 0,
            "name": "Klaviersonate a-Moll, Opus 143 3. Satz"
        },
        {
            "startTime": 0.0007460020833333332,
            "duration": 288.0761645000009,
            "length": 1721,
            "notes": [
                {
                    "name": "A4",
                    "midi": 69,
                    "time": 0.0007460020833333332,
                    "velocity": 0.3937007874015748,
                    "duration": 0.11861433125
                },
                {
                    "name": "B4",
                    "midi": 71,
                    "time": 0.11936033333333333,
                    "velocity": 0.36220472440944884,
                    "duration": 0.1193603333333333
                },
                {
                    "name": "C5",
                    "midi": 72,
                    "time": 0.23872066666666664,
                    "velocity": 0.36220472440944884,
                    "duration": 0.11936033333333335
                },
                {
                    "name": "B4",
                    "midi": 71,
                    "time": 0.358081,
                    "velocity": 0.3937007874015748,
                    "duration": 0.11936033333333329
                },
                {
                    "name": "C5",
                    "midi": 72,
                    "time": 0.4774413333333333,
                    "velocity": 0.36220472440944884,
                    "duration": 0.11936033333333329
                },
                {
                    "name": "D5",
                    "midi": 74,
                    "time": 0.5968016666666666,
                    "velocity": 0.36220472440944884,
                    "duration": 0.11936033333333329
                },
                {
                    "name": "E5",
                    "midi": 76,
                    "time": 0.7161619999999999,
                    "velocity": 0.5118110236220472,
                    "duration": 0.358081
                },
                {
                    "name": "A4",
                    "midi": 69,
                    "time": 1.0742429999999998,
                    "velocity": 0.3937007874015748,
                    "duration": 0.11936033333333329
                },
                {
                    "name": "B4",
                    "midi": 71,
                    "time": 1.1936033333333331,
                    "velocity": 0.3543307086614173,
                    "duration": 0.11936033333333329
                },
                {
                    "name": "C5",
                    "midi": 72,
                    "time": 1.3129636666666664,
                    "velocity": 0.3543307086614173,
                    "duration": 0.11936033333333329
                },
                {
                    "name": "B4",
                    "midi": 71,
                    "time": 1.4323239999999997,
                    "velocity": 0.5511811023622047,
                    "duration": 0.35808099999999987
                },
                {
                    "name": "C5",
                    "midi": 72,
                    "time": 1.551684333333333,
                    "velocity": 0.3464566929133858,
                    "duration": 0.11936033333333329
                },
                {
                    "name": "D5",
                    "midi": 74,
                    "time": 1.6710446666666663,
                    "velocity": 0.3464566929133858,
                    "duration": 0.11936033333333329
                },
                {
                    "name": "E5",
                    "midi": 76,
                    "time": 1.7904049999999996,
                    "velocity": 0.5118110236220472,
                    "duration": 0.3580810000000001
                },
                {
                    "name": "A4",
                    "midi": 69,
                    "time": 2.1484859999999997,
                    "velocity": 0.3937007874015748,
                    "duration": 0.11936033333333329
                },
                {
                    "name": "B4",
                    "midi": 71,
                    "time": 2.267846333333333,
                    "velocity": 0.3543307086614173,
                    "duration": 0.11936033333333329
                },
                {
                    "name": "C5",
                    "midi": 72,
                    "time": 2.3872066666666663,
                    "velocity": 0.3543307086614173,
                    "duration": 0.11936033333333329
                },
                {
                    "name": "B4",
                    "midi": 71,
                    "time": 2.5065669999999995,
                    "velocity": 0.5196850393700787,
                    "duration": 0.35808099999999987
                },
                {
                    "name": "C5",
                    "midi": 72,
                    "time": 2.625927333333333,
                    "velocity": 0.3543307086614173,
                    "duration": 0.11936033333333329
                },
                {
                    "name": "D5",
                    "midi": 74,
                    "time": 2.745287666666666,
                    "velocity": 0.3543307086614173,
                    "duration": 0.11936033333333329
                },
                {
                    "name": "C5",
                    "midi": 72,
                    "time": 2.8646479999999994,
                    "velocity": 0.3937007874015748,
                    "duration": 0.11936033333333329
                },
                {
                    "name": "D5",
                    "midi": 74,
                    "time": 2.9840083333333327,
                    "velocity": 0.3779527559055118,
                    "duration": 0.11936033333333329
                },
                {
                    "name": "E5",
                    "midi": 76,
                    "time": 3.103368666666666,
                    "velocity": 0.3937007874015748,
                    "duration": 0.11936033333333329
                },
                {
                    "name": "F5",
                    "midi": 77,
                    "time": 3.2227289999999993,
                    "velocity": 0.3937007874015748,
                    "duration": 0.11936033333333329
                },
                {
                    "name": "G5",
                    "midi": 79,
                    "time": 3.3420893333333326,
                    "velocity": 0.4251968503937008,
                    "duration": 0.11936033333333329
                },
                {
                    "name": "A5",
                    "midi": 81,
                    "time": 3.461449666666666,
                    "velocity": 0.4566929133858268,
                    "duration": 0.11936033333333329
                },
                {
                    "name": "G5",
                    "midi": 79,
                    "time": 3.580809999999999,
                    "velocity": 0.48031496062992124,
                    "duration": 0.11936033333333329
                },
                {
                    "name": "F5",
                    "midi": 77,
                    "time": 3.7001703333333325,
                    "velocity": 0.4409448818897638,
                    "duration": 0.11936033333333329
                },
                {
                    "name": "E5",
                    "midi": 76,
                    "time": 3.8195306666666657,
                    "velocity": 0.41732283464566927,
                    "duration": 0.11936033333333329
                },
                {
                    "name": "D5",
                    "midi": 74,
                    "time": 3.938890999999999,
                    "velocity": 0.4330708661417323,
                    "duration": 0.11936033333333373
                },
                {
                    "name": "C5",
                    "midi": 72,
                    "time": 4.058251333333333,
                    "velocity": 0.4094488188976378,
                    "duration": 0.11936033333333373
                },
                {
                    "name": "B4",
                    "midi": 71,
                    "time": 4.1776116666666665,
                    "velocity": 0.3779527559055118,
                    "duration": 0.11936033333333373
                },
                {
                    "name": "A4",
                    "midi": 69,
                    "time": 4.296972,
                    "velocity": 0.4409448818897638,
                    "duration": 0.11936033333333373
                },
                {
                    "name": "B4",
                    "midi": 71,
                    "time": 4.416332333333334,
                    "velocity": 0.3937007874015748,
                    "duration": 0.11936033333333373
                },
                {
                    "name": "C5",
                    "midi": 72,
                    "time": 4.535692666666668,
                    "velocity": 0.3937007874015748,
                    "duration": 0.11936033333333373
                },
                {
                    "name": "B4",
                    "midi": 71,
                    "time": 4.655053000000001,
                    "velocity": 0.41732283464566927,
                    "duration": 0.11936033333333373
                },
                {
                    "name": "A4",
                    "midi": 69,
                    "time": 4.774413333333335,
                    "velocity": 0.3779527559055118,
                    "duration": 0.11936033333333373
                },
                {
                    "name": "G4",
                    "midi": 67,
                    "time": 4.893773666666669,
                    "velocity": 0.3779527559055118,
                    "duration": 0.11936033333333373
                },
                {
                    "name": "F4",
                    "midi": 65,
                    "time": 5.013134000000003,
                    "velocity": 0.41732283464566927,
                    "duration": 0.11936033333333373
                },
                {
                    "name": "E4",
                    "midi": 64,
                    "time": 5.132494333333336,
                    "velocity": 0.3700787401574803,
                    "duration": 0.11936033333333373
                },
                {
                    "name": "D#4",
                    "midi": 63,
                    "time": 5.25185466666667,
                    "velocity": 0.3700787401574803,
                    "duration": 0.11936033333333373
                },
                {
                    "name": "E4",
                    "midi": 64,
                    "time": 5.371215000000004,
                    "velocity": 0.44881889763779526,
                    "duration": 0.3580810000000003
                },
                {
                    "name": "B3",
                    "midi": 59,
                    "time": 6.0873770000000045,
                    "velocity": 0.3937007874015748,
                    "duration": 0.11936033333333373
                },
                {
                    "name": "C#4",
                    "midi": 61,
                    "time": 6.206737333333338,
                    "velocity": 0.3543307086614173,
                    "duration": 0.11936033333333373
                },
                {
                    "name": "D#4",
                    "midi": 63,
                    "time": 6.326097666666672,
                    "velocity": 0.3543307086614173,
                    "duration": 0.11936033333333373
                },
                {
                    "name": "E4",
                    "midi": 64,
                    "time": 6.445458000000006,
                    "velocity": 0.4251968503937008,
                    "duration": 0.11936033333333373
                },
                {
                    "name": "F#4",
                    "midi": 66,
                    "time": 6.564818333333339,
                    "velocity": 0.3858267716535433,
                    "duration": 0.11936033333333373
                },
                {
                    "name": "G#4",
                    "midi": 68,
                    "time": 6.684178666666673,
                    "velocity": 0.3858267716535433,
                    "duration": 0.11936033333333373
                },
                {
                    "name": "A4",
                    "midi": 69,
                    "time": 6.803539000000007,
                    "velocity": 0.4645669291338583,
                    "duration": 0.3580810000000003
                },
                {
                    "name": "B3",
                    "midi": 59,
                    "time": 7.161620000000007,
                    "velocity": 0.3937007874015748,
                    "duration": 0.11936033333333373
                },
                {
                    "name": "C#4",
                    "midi": 61,
                    "time": 7.280980333333341,
                    "velocity": 0.3543307086614173,
                    "duration": 0.11936033333333373
                },
                {
                    "name": "D#4",
                    "midi": 63,
                    "time": 7.400340666666675,
                    "velocity": 0.3543307086614173,
                    "duration": 0.11936033333333373
                },
                {
                    "name": "E4",
                    "midi": 64,
                    "time": 7.519701000000008,
                    "velocity": 0.4251968503937008,
                    "duration": 0.11936033333333373
                },
                {
                    "name": "F#4",
                    "midi": 66,
                    "time": 7.639061333333342,
                    "velocity": 0.3779527559055118,
                    "duration": 0.11936033333333373
                },
                {
                    "name": "G#4",
                    "midi": 68,
                    "time": 7.758421666666676,
                    "velocity": 0.3779527559055118,
                    "duration": 0.11936033333333373
                },
                {
                    "name": "A4",
                    "midi": 69,
                    "time": 7.87778200000001,
                    "velocity": 0.4566929133858268,
                    "duration": 0.3580809999999994
                },
                {
                    "name": "B3",
                    "midi": 59,
                    "time": 8.235863000000009,
                    "velocity": 0.3937007874015748,
                    "duration": 0.11936033333333285
                },
                {
                    "name": "C#4",
                    "midi": 61,
                    "time": 8.355223333333342,
                    "velocity": 0.36220472440944884,
                    "duration": 0.11936033333333285
                },
                {
                    "name": "D#4",
                    "midi": 63,
                    "time": 8.474583666666675,
                    "velocity": 0.36220472440944884,
                    "duration": 0.11936033333333285
                },
                {
                    "name": "E4",
                    "midi": 64,
                    "time": 8.593944000000008,
                    "velocity": 0.4251968503937008,
                    "duration": 0.11936033333333285
                },
                {
                    "name": "F#4",
                    "midi": 66,
                    "time": 8.71330433333334,
                    "velocity": 0.3700787401574803,
                    "duration": 0.11936033333333285
                },
                {
                    "name": "G#4",
                    "midi": 68,
                    "time": 8.832664666666673,
                    "velocity": 0.3700787401574803,
                    "duration": 0.11936033333333285
                },
                {
                    "name": "F#4",
                    "midi": 66,
                    "time": 8.952025000000006,
                    "velocity": 0.47244094488188976,
                    "duration": 0.11936033333333285
                },
                {
                    "name": "G#4",
                    "midi": 68,
                    "time": 9.071385333333339,
                    "velocity": 0.41732283464566927,
                    "duration": 0.11936033333333285
                },
                {
                    "name": "A4",
                    "midi": 69,
                    "time": 9.190745666666672,
                    "velocity": 0.41732283464566927,
                    "duration": 0.11936033333333285
                },
                {
                    "name": "G#4",
                    "midi": 68,
                    "time": 9.310106000000005,
                    "velocity": 0.5039370078740157,
                    "duration": 0.11936033333333285
                },
                {
                    "name": "A4",
                    "midi": 69,
                    "time": 9.429466333333338,
                    "velocity": 0.4566929133858268,
                    "duration": 0.11936033333333285
                },
                {
                    "name": "B4",
                    "midi": 71,
                    "time": 9.54882666666667,
                    "velocity": 0.47244094488188976,
                    "duration": 0.11936033333333285
                },
                {
                    "name": "A4",
                    "midi": 69,
                    "time": 9.668187000000003,
                    "velocity": 0.5354330708661418,
                    "duration": 0.11936033333333285
                },
                {
                    "name": "B4",
                    "midi": 71,
                    "time": 9.787547333333336,
                    "velocity": 0.47244094488188976,
                    "duration": 0.11936033333333285
                },
                {
                    "name": "C5",
                    "midi": 72,
                    "time": 9.906907666666669,
                    "velocity": 0.49606299212598426,
                    "duration": 0.11936033333333285
                },
                {
                    "name": "B4",
                    "midi": 71,
                    "time": 10.026268000000002,
                    "velocity": 0.5748031496062992,
                    "duration": 0.11936033333333285
                },
                {
                    "name": "C5",
                    "midi": 72,
                    "time": 10.145628333333335,
                    "velocity": 0.49606299212598426,
                    "duration": 0.11936033333333285
                },
                {
                    "name": "D5",
                    "midi": 74,
                    "time": 10.264988666666667,
                    "velocity": 0.5354330708661418,
                    "duration": 0.11936033333333285
                },
                {
                    "name": "C5",
                    "midi": 72,
                    "time": 10.384349,
                    "velocity": 0.6220472440944882,
                    "duration": 0.11936033333333285
                },
                {
                    "name": "D5",
                    "midi": 74,
                    "time": 10.503709333333333,
                    "velocity": 0.5354330708661418,
                    "duration": 0.11936033333333285
                },
                {
                    "name": "E5",
                    "midi": 76,
                    "time": 10.623069666666666,
                    "velocity": 0.5826771653543307,
                    "duration": 0.11936033333333285
                },
                {
                    "name": "F5",
                    "midi": 77,
                    "time": 10.742429999999999,
                    "velocity": 0.7086614173228346,
                    "duration": 0.11936033333333285
                },
                {
                    "name": "E5",
                    "midi": 76,
                    "time": 10.861790333333332,
                    "velocity": 0.6062992125984252,
                    "duration": 0.11936033333333285
                },
                {
                    "name": "D5",
                    "midi": 74,
                    "time": 10.981150666666665,
                    "velocity": 0.6220472440944882,
                    "duration": 0.11936033333333285
                },
                {
                    "name": "F5",
                    "midi": 77,
                    "time": 11.100510999999997,
                    "velocity": 0.6929133858267716,
                    "duration": 0.11936033333333285
                },
                {
                    "name": "B5",
                    "midi": 83,
                    "time": 11.100510999999997,
                    "velocity": 0.6929133858267716,
                    "duration": 0.17904049999999927
                },
                {
                    "name": "E5",
                    "midi": 76,
                    "time": 11.21987133333333,
                    "velocity": 0.6220472440944882,
                    "duration": 0.11936033333333285
                },
                {
                    "name": "D5",
                    "midi": 74,
                    "time": 11.339231666666663,
                    "velocity": 0.6220472440944882,
                    "duration": 0.11936033333333285
                },
                {
                    "name": "B5",
                    "midi": 83,
                    "time": 11.458591999999996,
                    "velocity": 0.7244094488188977,
                    "duration": 0.17904049999999927
                },
                {
                    "name": "F5",
                    "midi": 77,
                    "time": 11.458591999999996,
                    "velocity": 0.7244094488188977,
                    "duration": 0.11936033333333285
                },
                {
                    "name": "E5",
                    "midi": 76,
                    "time": 11.577952333333329,
                    "velocity": 0.6299212598425197,
                    "duration": 0.11936033333333285
                },
                {
                    "name": "D5",
                    "midi": 74,
                    "time": 11.697312666666662,
                    "velocity": 0.6299212598425197,
                    "duration": 0.11936033333333285
                },
                {
                    "name": "F5",
                    "midi": 77,
                    "time": 11.816672999999994,
                    "velocity": 0.7322834645669292,
                    "duration": 0.11936033333333285
                },
                {
                    "name": "B5",
                    "midi": 83,
                    "time": 11.816672999999994,
                    "velocity": 0.7322834645669292,
                    "duration": 0.17904049999999927
                },
                {
                    "name": "E5",
                    "midi": 76,
                    "time": 11.936033333333327,
                    "velocity": 0.6614173228346457,
                    "duration": 0.11936033333333285
                },
                {
                    "name": "D5",
                    "midi": 74,
                    "time": 12.05539366666666,
                    "velocity": 0.6771653543307087,
                    "duration": 0.11936033333333285
                },
                {
                    "name": "B5",
                    "midi": 83,
                    "time": 12.174753999999993,
                    "velocity": 0.7637795275590551,
                    "duration": 0.17904049999999927
                },
                {
                    "name": "F5",
                    "midi": 77,
                    "time": 12.174753999999993,
                    "velocity": 0.7637795275590551,
                    "duration": 0.11936033333333285
                },
                {
                    "name": "E5",
                    "midi": 76,
                    "time": 12.294114333333326,
                    "velocity": 0.6771653543307087,
                    "duration": 0.11936033333333285
                },
                {
                    "name": "D5",
                    "midi": 74,
                    "time": 12.413474666666659,
                    "velocity": 0.6850393700787402,
                    "duration": 0.11936033333333285
                },
                {
                    "name": "B5",
                    "midi": 83,
                    "time": 12.532834999999992,
                    "velocity": 0.7874015748031497,
                    "duration": 0.17904049999999927
                },
                {
                    "name": "F5",
                    "midi": 77,
                    "time": 12.532834999999992,
                    "velocity": 0.7874015748031497,
                    "duration": 0.11936033333333285
                },
                {
                    "name": "E5",
                    "midi": 76,
                    "time": 12.652195333333324,
                    "velocity": 0.6929133858267716,
                    "duration": 0.11936033333333285
                },
                {
                    "name": "D5",
                    "midi": 74,
                    "time": 12.771555666666657,
                    "velocity": 0.7165354330708661,
                    "duration": 0.11936033333333285
                },
                {
                    "name": "F5",
                    "midi": 77,
                    "time": 12.89091599999999,
                    "velocity": 0.8346456692913385,
                    "duration": 0.11936033333333285
                },
                {
                    "name": "B5",
                    "midi": 83,
                    "time": 12.89091599999999,
                    "velocity": 0.8346456692913385,
                    "duration": 0.17904049999999927
                },
                {
                    "name": "E5",
                    "midi": 76,
                    "time": 13.010276333333323,
                    "velocity": 0.48031496062992124,
                    "duration": 0.11936033333333285
                },
                {
                    "name": "D5",
                    "midi": 74,
                    "time": 13.129636666666656,
                    "velocity": 0.4094488188976378,
                    "duration": 0.11936033333333285
                },
                {
                    "name": "F5",
                    "midi": 77,
                    "time": 13.248996999999989,
                    "velocity": 0.47244094488188976,
                    "duration": 0.11936033333333285
                },
                {
                    "name": "E5",
                    "midi": 76,
                    "time": 13.368357333333321,
                    "velocity": 0.4015748031496063,
                    "duration": 0.11936033333333285
                },
                {
                    "name": "D5",
                    "midi": 74,
                    "time": 13.487717666666654,
                    "velocity": 0.36220472440944884,
                    "duration": 0.11936033333333285
                },
                {
                    "name": "F5",
                    "midi": 77,
                    "time": 13.607077999999987,
                    "velocity": 0.44881889763779526,
                    "duration": 0.11936033333333285
                },
                {
                    "name": "E5",
                    "midi": 76,
                    "time": 13.72643833333332,
                    "velocity": 0.3858267716535433,
                    "duration": 0.11936033333333285
                },
                {
                    "name": "D5",
                    "midi": 74,
                    "time": 13.845798666666653,
                    "velocity": 0.33858267716535434,
                    "duration": 0.11936033333333285
                },
                {
                    "name": "F5",
                    "midi": 77,
                    "time": 13.965158999999986,
                    "velocity": 0.4409448818897638,
                    "duration": 0.11936033333333285
                },
                {
                    "name": "E5",
                    "midi": 76,
                    "time": 14.084519333333319,
                    "velocity": 0.3700787401574803,
                    "duration": 0.11936033333333285
                },
                {
                    "name": "D5",
                    "midi": 74,
                    "time": 14.203879666666651,
                    "velocity": 0.3464566929133858,
                    "duration": 0.11936033333333285
                },
                {
                    "name": "E5",
                    "midi": 76,
                    "time": 14.323239999999984,
                    "velocity": 0.4409448818897638,
                    "duration": 0.11936033333333285
                },
                {
                    "name": "D5",
                    "midi": 74,
                    "time": 14.442600333333317,
                    "velocity": 0.36220472440944884,
                    "duration": 0.11936033333333285
                },
                {
                    "name": "C5",
                    "midi": 72,
                    "time": 14.56196066666665,
                    "velocity": 0.36220472440944884,
                    "duration": 0.11936033333333285
                },
                {
                    "name": "D5",
                    "midi": 74,
                    "time": 14.681320999999983,
                    "velocity": 0.4330708661417323,
                    "duration": 0.11936033333333285
                },
                {
                    "name": "C5",
                    "midi": 72,
                    "time": 14.800681333333316,
                    "velocity": 0.3543307086614173,
                    "duration": 0.11936033333333285
                },
                {
                    "name": "B4",
                    "midi": 71,
                    "time": 14.920041666666648,
                    "velocity": 0.3543307086614173,
                    "duration": 0.11936033333333285
                },
                {
                    "name": "A4",
                    "midi": 69,
                    "time": 15.039401999999981,
                    "velocity": 0.3937007874015748,
                    "duration": 0.11936033333333285
                },
                {
                    "name": "B4",
                    "midi": 71,
                    "time": 15.158762333333314,
                    "velocity": 0.36220472440944884,
                    "duration": 0.11936033333333285
                },
                {
                    "name": "C5",
                    "midi": 72,
                    "time": 15.278122666666647,
                    "velocity": 0.36220472440944884,
                    "duration": 0.11936033333333285
                },
                {
                    "name": "B4",
                    "midi": 71,
                    "time": 15.39748299999998,
                    "velocity": 0.3937007874015748,
                    "duration": 0.11936033333333285
                },
                {
                    "name": "C5",
                    "midi": 72,
                    "time": 15.516843333333313,
                    "velocity": 0.36220472440944884,
                    "duration": 0.11936033333333285
                },
                {
                    "name": "D5",
                    "midi": 74,
                    "time": 15.636203666666646,
                    "velocity": 0.36220472440944884,
                    "duration": 0.11936033333333285
                },
                {
                    "name": "E5",
                    "midi": 76,
                    "time": 15.755563999999978,
                    "velocity": 0.5118110236220472,
                    "duration": 0.35808099999999854
                },
                {
                    "name": "A4",
                    "midi": 69,
                    "time": 16.113644999999977,
                    "velocity": 0.3937007874015748,
                    "duration": 0.11936033333333285
                },
                {
                    "name": "B4",
                    "midi": 71,
                    "time": 16.23300533333331,
                    "velocity": 0.3543307086614173,
                    "duration": 0.11936033333333285
                },
                {
                    "name": "C5",
                    "midi": 72,
                    "time": 16.352365666666643,
                    "velocity": 0.3543307086614173,
                    "duration": 0.11936033333333285
                },
                {
                    "name": "B4",
                    "midi": 71,
                    "time": 16.471725999999975,
                    "velocity": 0.5511811023622047,
                    "duration": 0.35808099999999854
                },
                {
                    "name": "C5",
                    "midi": 72,
                    "time": 16.59108633333331,
                    "velocity": 0.3464566929133858,
                    "duration": 0.11936033333333285
                },
                {
                    "name": "D5",
                    "midi": 74,
                    "time": 16.71044666666664,
                    "velocity": 0.3464566929133858,
                    "duration": 0.11936033333333285
                },
                {
                    "name": "E5",
                    "midi": 76,
                    "time": 16.829806999999974,
                    "velocity": 0.5118110236220472,
                    "duration": 0.35808099999999854
                },
                {
                    "name": "A4",
                    "midi": 69,
                    "time": 17.187887999999973,
                    "velocity": 0.3937007874015748,
                    "duration": 0.11936033333333285
                },
                {
                    "name": "B4",
                    "midi": 71,
                    "time": 17.307248333333305,
                    "velocity": 0.3543307086614173,
                    "duration": 0.11936033333333285
                },
                {
                    "name": "C5",
                    "midi": 72,
                    "time": 17.426608666666638,
                    "velocity": 0.3543307086614173,
                    "duration": 0.11936033333333285
                },
                {
                    "name": "B4",
                    "midi": 71,
                    "time": 17.54596899999997,
                    "velocity": 0.5196850393700787,
                    "duration": 0.35808099999999854
                },
                {
                    "name": "C5",
                    "midi": 72,
                    "time": 17.665329333333304,
                    "velocity": 0.3543307086614173,
                    "duration": 0.11936033333333285
                },
                {
                    "name": "D5",
                    "midi": 74,
                    "time": 17.784689666666637,
                    "velocity": 0.3543307086614173,
                    "duration": 0.11936033333333285
                },
                {
                    "name": "C5",
                    "midi": 72,
                    "time": 17.90404999999997,
                    "velocity": 0.3937007874015748,
                    "duration": 0.11936033333333285
                },
                {
                    "name": "D5",
                    "midi": 74,
                    "time": 18.023410333333302,
                    "velocity": 0.3779527559055118,
                    "duration": 0.11936033333333285
                },
                {
                    "name": "E5",
                    "midi": 76,
                    "time": 18.142770666666635,
                    "velocity": 0.3937007874015748,
                    "duration": 0.11936033333333285
                },
                {
                    "name": "F5",
                    "midi": 77,
                    "time": 18.262130999999968,
                    "velocity": 0.3937007874015748,
                    "duration": 0.11936033333333285
                },
                {
                    "name": "G5",
                    "midi": 79,
                    "time": 18.3814913333333,
                    "velocity": 0.4251968503937008,
                    "duration": 0.11936033333333285
                },
                {
                    "name": "A5",
                    "midi": 81,
                    "time": 18.500851666666634,
                    "velocity": 0.4566929133858268,
                    "duration": 0.11936033333333285
                },
                {
                    "name": "G5",
                    "midi": 79,
                    "time": 18.620211999999967,
                    "velocity": 0.48031496062992124,
                    "duration": 0.11936033333333285
                },
                {
                    "name": "F5",
                    "midi": 77,
                    "time": 18.7395723333333,
                    "velocity": 0.4409448818897638,
                    "duration": 0.11936033333333285
                },
                {
                    "name": "E5",
                    "midi": 76,
                    "time": 18.858932666666632,
                    "velocity": 0.41732283464566927,
                    "duration": 0.11936033333333285
                },
                {
                    "name": "D5",
                    "midi": 74,
                    "time": 18.978292999999965,
                    "velocity": 0.4330708661417323,
                    "duration": 0.11936033333333285
                },
                {
                    "name": "C5",
                    "midi": 72,
                    "time": 19.097653333333298,
                    "velocity": 0.4094488188976378,
                    "duration": 0.11936033333333285
                },
                {
                    "name": "B4",
                    "midi": 71,
                    "time": 19.21701366666663,
                    "velocity": 0.3779527559055118,
                    "duration": 0.11936033333333285
                },
                {
                    "name": "A4",
                    "midi": 69,
                    "time": 19.336373999999964,
                    "velocity": 0.4409448818897638,
                    "duration": 0.11936033333333285
                },
                {
                    "name": "B4",
                    "midi": 71,
                    "time": 19.455734333333297,
                    "velocity": 0.3937007874015748,
                    "duration": 0.11936033333333285
                },
                {
                    "name": "C5",
                    "midi": 72,
                    "time": 19.57509466666663,
                    "velocity": 0.3937007874015748,
                    "duration": 0.11936033333333285
                },
                {
                    "name": "B4",
                    "midi": 71,
                    "time": 19.694454999999962,
                    "velocity": 0.41732283464566927,
                    "duration": 0.11936033333333285
                },
                {
                    "name": "A4",
                    "midi": 69,
                    "time": 19.813815333333295,
                    "velocity": 0.3779527559055118,
                    "duration": 0.11936033333333285
                },
                {
                    "name": "G4",
                    "midi": 67,
                    "time": 19.933175666666628,
                    "velocity": 0.3779527559055118,
                    "duration": 0.11936033333333285
                },
                {
                    "name": "F4",
                    "midi": 65,
                    "time": 20.05253599999996,
                    "velocity": 0.41732283464566927,
                    "duration": 0.11936033333333285
                },
                {
                    "name": "E4",
                    "midi": 64,
                    "time": 20.171896333333294,
                    "velocity": 0.3700787401574803,
                    "duration": 0.11936033333333285
                },
                {
                    "name": "D#4",
                    "midi": 63,
                    "time": 20.291256666666627,
                    "velocity": 0.3700787401574803,
                    "duration": 0.11936033333333285
                },
                {
                    "name": "E4",
                    "midi": 64,
                    "time": 20.41061699999996,
                    "velocity": 0.4251968503937008,
                    "duration": 0.11936033333333285
                },
                {
                    "name": "F#4",
                    "midi": 66,
                    "time": 20.529977333333292,
                    "velocity": 0.3858267716535433,
                    "duration": 0.11936033333333285
                },
                {
                    "name": "G4",
                    "midi": 67,
                    "time": 20.649337666666625,
                    "velocity": 0.3858267716535433,
                    "duration": 0.11936033333333285
                },
                {
                    "name": "A4",
                    "midi": 69,
                    "time": 20.768697999999958,
                    "velocity": 0.4645669291338583,
                    "duration": 0.35808099999999854
                },
                {
                    "name": "B3",
                    "midi": 59,
                    "time": 21.126778999999956,
                    "velocity": 0.3937007874015748,
                    "duration": 0.11936033333333285
                },
                {
                    "name": "C#4",
                    "midi": 61,
                    "time": 21.24613933333329,
                    "velocity": 0.3543307086614173,
                    "duration": 0.11936033333333285
                },
                {
                    "name": "D#4",
                    "midi": 63,
                    "time": 21.365499666666622,
                    "velocity": 0.3543307086614173,
                    "duration": 0.11936033333333285
                },
                {
                    "name": "E4",
                    "midi": 64,
                    "time": 21.484859999999955,
                    "velocity": 0.4251968503937008,
                    "duration": 0.11936033333333285
                },
                {
                    "name": "F#4",
                    "midi": 66,
                    "time": 21.604220333333288,
                    "velocity": 0.3779527559055118,
                    "duration": 0.11936033333333285
                },
                {
                    "name": "G4",
                    "midi": 67,
                    "time": 21.72358066666662,
                    "velocity": 0.3779527559055118,
                    "duration": 0.11936033333333285
                },
                {
                    "name": "A4",
                    "midi": 69,
                    "time": 21.842940999999954,
                    "velocity": 0.4566929133858268,
                    "duration": 0.35808099999999854
                },
                {
                    "name": "B3",
                    "midi": 59,
                    "time": 22.201021999999952,
                    "velocity": 0.3937007874015748,
                    "duration": 0.11936033333333285
                },
                {
                    "name": "C#4",
                    "midi": 61,
                    "time": 22.320382333333285,
                    "velocity": 0.36220472440944884,
                    "duration": 0.11936033333333285
                },
                {
                    "name": "D#4",
                    "midi": 63,
                    "time": 22.439742666666618,
                    "velocity": 0.36220472440944884,
                    "duration": 0.11936033333333285
                },
                {
                    "name": "E4",
                    "midi": 64,
                    "time": 22.55910299999995,
                    "velocity": 0.4251968503937008,
                    "duration": 0.11936033333333285
                },
                {
                    "name": "F#4",
                    "midi": 66,
                    "time": 22.678463333333283,
                    "velocity": 0.3700787401574803,
                    "duration": 0.11936033333333285
                },
                {
                    "name": "G4",
                    "midi": 67,
                    "time": 22.797823666666616,
                    "velocity": 0.3700787401574803,
                    "duration": 0.11936033333333285
                },
                {
                    "name": "F#4",
                    "midi": 66,
                    "time": 22.91718399999995,
                    "velocity": 0.47244094488188976,
                    "duration": 0.11936033333333285
                },
                {
                    "name": "G4",
                    "midi": 67,
                    "time": 23.036544333333282,
                    "velocity": 0.41732283464566927,
                    "duration": 0.11936033333333285
                },
                {
                    "name": "A4",
                    "midi": 69,
                    "time": 23.155904666666615,
                    "velocity": 0.41732283464566927,
                    "duration": 0.11936033333333285
                },
                {
                    "name": "G4",
                    "midi": 67,
                    "time": 23.275264999999948,
                    "velocity": 0.5039370078740157,
                    "duration": 0.11936033333333285
                },
                {
                    "name": "A4",
                    "midi": 69,
                    "time": 23.39462533333328,
                    "velocity": 0.4566929133858268,
                    "duration": 0.11936033333333285
                },
                {
                    "name": "B4",
                    "midi": 71,
                    "time": 23.513985666666613,
                    "velocity": 0.47244094488188976,
                    "duration": 0.11936033333333285
                },
                {
                    "name": "A4",
                    "midi": 69,
                    "time": 23.633345999999946,
                    "velocity": 0.5354330708661418,
                    "duration": 0.11936033333333285
                },
                {
                    "name": "B4",
                    "midi": 71,
                    "time": 23.75270633333328,
                    "velocity": 0.47244094488188976,
                    "duration": 0.11936033333333285
                },
                {
                    "name": "C5",
                    "midi": 72,
                    "time": 23.872066666666612,
                    "velocity": 0.49606299212598426,
                    "duration": 0.11936033333333285
                },
                {
                    "name": "B4",
                    "midi": 71,
                    "time": 23.991426999999945,
                    "velocity": 0.5748031496062992,
                    "duration": 0.11936033333333285
                },
                {
                    "name": "C5",
                    "midi": 72,
                    "time": 24.110787333333278,
                    "velocity": 0.49606299212598426,
                    "duration": 0.11936033333333285
                },
                {
                    "name": "D5",
                    "midi": 74,
                    "time": 24.23014766666661,
                    "velocity": 0.5354330708661418,
                    "duration": 0.11936033333333285
                },
                {
                    "name": "C5",
                    "midi": 72,
                    "time": 24.349507999999943,
                    "velocity": 0.6220472440944882,
                    "duration": 0.11936033333333285
                },
                {
                    "name": "D5",
                    "midi": 74,
                    "time": 24.468868333333276,
                    "velocity": 0.5354330708661418,
                    "duration": 0.11936033333333285
                },
                {
                    "name": "E5",
                    "midi": 76,
                    "time": 24.58822866666661,
                    "velocity": 0.5826771653543307,
                    "duration": 0.11936033333333285
                },
                {
                    "name": "F4",
                    "midi": 65,
                    "time": 24.707588999999942,
                    "velocity": 0.7559055118110236,
                    "duration": 0.11936033333333285
                },
                {
                    "name": "A#4",
                    "midi": 70,
                    "time": 24.826949333333275,
                    "velocity": 0.6141732283464567,
                    "duration": 0.11936033333333285
                },
                {
                    "name": "D5",
                    "midi": 74,
                    "time": 24.946309666666608,
                    "velocity": 0.5826771653543307,
                    "duration": 0.11936033333333285
                },
                {
                    "name": "F5",
                    "midi": 77,
                    "time": 25.06566999999994,
                    "velocity": 0.6850393700787402,
                    "duration": 0.11936033333333285
                },
                {
                    "name": "A#5",
                    "midi": 82,
                    "time": 25.185030333333273,
                    "velocity": 0.5984251968503937,
                    "duration": 0.11936033333333285
                },
                {
                    "name": "D6",
                    "midi": 86,
                    "time": 25.304390666666606,
                    "velocity": 0.5984251968503937,
                    "duration": 0.11936033333333285
                },
                {
                    "name": "F6",
                    "midi": 89,
                    "time": 25.42375099999994,
                    "velocity": 0.6929133858267716,
                    "duration": 0.11936033333333285
                },
                {
                    "name": "A#6",
                    "midi": 94,
                    "time": 25.54311133333327,
                    "velocity": 0.5984251968503937,
                    "duration": 0.11936033333333285
                },
                {
                    "name": "D7",
                    "midi": 98,
                    "time": 25.662471666666605,
                    "velocity": 0.5984251968503937,
                    "duration": 0.11936033333333285
                },
                {
                    "name": "F7",
                    "midi": 101,
                    "time": 25.781831999999937,
                    "velocity": 0.7637795275590551,
                    "duration": 0.08952024999999963
                },
                {
                    "name": "A4",
                    "midi": 69,
                    "time": 26.139912999999936,
                    "velocity": 0.6220472440944882,
                    "duration": 0.17904049999999927
                },
                {
                    "name": "E5",
                    "midi": 76,
                    "time": 26.139912999999936,
                    "velocity": 0.7322834645669292,
                    "duration": 0.17904049999999927
                },
                {
                    "name": "C5",
                    "midi": 72,
                    "time": 26.139912999999936,
                    "velocity": 0.6220472440944882,
                    "duration": 0.17904049999999927
                },
                {
                    "name": "E4",
                    "midi": 64,
                    "time": 26.139912999999936,
                    "velocity": 0.6220472440944882,
                    "duration": 0.17904049999999927
                },
                {
                    "name": "E4",
                    "midi": 64,
                    "time": 26.497993999999935,
                    "velocity": 0.5826771653543307,
                    "duration": 0.17904049999999927
                },
                {
                    "name": "E5",
                    "midi": 76,
                    "time": 26.497993999999935,
                    "velocity": 0.6929133858267716,
                    "duration": 0.17904049999999927
                },
                {
                    "name": "G#4",
                    "midi": 68,
                    "time": 26.497993999999935,
                    "velocity": 0.5826771653543307,
                    "duration": 0.17904049999999927
                },
                {
                    "name": "B4",
                    "midi": 71,
                    "time": 26.497993999999935,
                    "velocity": 0.5826771653543307,
                    "duration": 0.17904049999999927
                },
                {
                    "name": "A4",
                    "midi": 69,
                    "time": 26.856074999999933,
                    "velocity": 0.5275590551181102,
                    "duration": 0.11936033333333285
                },
                {
                    "name": "B4",
                    "midi": 71,
                    "time": 26.975435333333266,
                    "velocity": 0.4409448818897638,
                    "duration": 0.11936033333333285
                },
                {
                    "name": "C5",
                    "midi": 72,
                    "time": 27.0947956666666,
                    "velocity": 0.4409448818897638,
                    "duration": 0.11936033333333285
                },
                {
                    "name": "D5",
                    "midi": 74,
                    "time": 27.21415599999993,
                    "velocity": 0.5118110236220472,
                    "duration": 0.35808099999999854
                },
                {
                    "name": "E4",
                    "midi": 64,
                    "time": 27.57223699999993,
                    "velocity": 0.5196850393700787,
                    "duration": 0.11936033333333285
                },
                {
                    "name": "F#4",
                    "midi": 66,
                    "time": 27.691597333333263,
                    "velocity": 0.4251968503937008,
                    "duration": 0.11936033333333285
                },
                {
                    "name": "G#4",
                    "midi": 68,
                    "time": 27.810957666666596,
                    "velocity": 0.41732283464566927,
                    "duration": 0.11936033333333285
                },
                {
                    "name": "A4",
                    "midi": 69,
                    "time": 27.93031799999993,
                    "velocity": 0.5039370078740157,
                    "duration": 0.11936033333333285
                },
                {
                    "name": "B4",
                    "midi": 71,
                    "time": 28.04967833333326,
                    "velocity": 0.4330708661417323,
                    "duration": 0.11936033333333285
                },
                {
                    "name": "C5",
                    "midi": 72,
                    "time": 28.169038666666594,
                    "velocity": 0.4330708661417323,
                    "duration": 0.11936033333333285
                },
                {
                    "name": "D5",
                    "midi": 74,
                    "time": 28.288398999999927,
                    "velocity": 0.5118110236220472,
                    "duration": 0.35808099999999854
                },
                {
                    "name": "E4",
                    "midi": 64,
                    "time": 28.646479999999926,
                    "velocity": 0.5039370078740157,
                    "duration": 0.11936033333333285
                },
                {
                    "name": "F#4",
                    "midi": 66,
                    "time": 28.76584033333326,
                    "velocity": 0.4566929133858268,
                    "duration": 0.11936033333333285
                },
                {
                    "name": "G#4",
                    "midi": 68,
                    "time": 28.88520066666659,
                    "velocity": 0.4566929133858268,
                    "duration": 0.11936033333333285
                },
                {
                    "name": "A4",
                    "midi": 69,
                    "time": 29.004560999999924,
                    "velocity": 0.5354330708661418,
                    "duration": 0.11936033333333285
                },
                {
                    "name": "B4",
                    "midi": 71,
                    "time": 29.123921333333257,
                    "velocity": 0.47244094488188976,
                    "duration": 0.11936033333333285
                },
                {
                    "name": "C5",
                    "midi": 72,
                    "time": 29.24328166666659,
                    "velocity": 0.49606299212598426,
                    "duration": 0.11936033333333285
                },
                {
                    "name": "B4",
                    "midi": 71,
                    "time": 29.362641999999923,
                    "velocity": 0.5748031496062992,
                    "duration": 0.11936033333333285
                },
                {
                    "name": "C5",
                    "midi": 72,
                    "time": 29.482002333333256,
                    "velocity": 0.49606299212598426,
                    "duration": 0.11936033333333285
                },
                {
                    "name": "D5",
                    "midi": 74,
                    "time": 29.60136266666659,
                    "velocity": 0.5354330708661418,
                    "duration": 0.11936033333333285
                },
                {
                    "name": "C5",
                    "midi": 72,
                    "time": 29.72072299999992,
                    "velocity": 0.6220472440944882,
                    "duration": 0.11936033333333285
                },
                {
                    "name": "D5",
                    "midi": 74,
                    "time": 29.840083333333254,
                    "velocity": 0.5354330708661418,
                    "duration": 0.11936033333333285
                },
                {
                    "name": "E5",
                    "midi": 76,
                    "time": 29.959443666666587,
                    "velocity": 0.5826771653543307,
                    "duration": 0.11936033333333285
                },
                {
                    "name": "F4",
                    "midi": 65,
                    "time": 30.07880399999992,
                    "velocity": 0.7559055118110236,
                    "duration": 0.11936033333333285
                },
                {
                    "name": "A#4",
                    "midi": 70,
                    "time": 30.198164333333253,
                    "velocity": 0.6141732283464567,
                    "duration": 0.11936033333333285
                },
                {
                    "name": "D5",
                    "midi": 74,
                    "time": 30.317524666666586,
                    "velocity": 0.5905511811023622,
                    "duration": 0.11936033333333285
                },
                {
                    "name": "F5",
                    "midi": 77,
                    "time": 30.43688499999992,
                    "velocity": 0.7322834645669292,
                    "duration": 0.11936033333333285
                },
                {
                    "name": "A#5",
                    "midi": 82,
                    "time": 30.55624533333325,
                    "velocity": 0.6062992125984252,
                    "duration": 0.11936033333333285
                },
                {
                    "name": "D6",
                    "midi": 86,
                    "time": 30.675605666666584,
                    "velocity": 0.6062992125984252,
                    "duration": 0.11936033333333285
                },
                {
                    "name": "F6",
                    "midi": 89,
                    "time": 30.794965999999917,
                    "velocity": 0.7244094488188977,
                    "duration": 0.11936033333333285
                },
                {
                    "name": "A#6",
                    "midi": 94,
                    "time": 30.91432633333325,
                    "velocity": 0.6141732283464567,
                    "duration": 0.11936033333333285
                },
                {
                    "name": "D7",
                    "midi": 98,
                    "time": 31.033686666666583,
                    "velocity": 0.6141732283464567,
                    "duration": 0.11936033333333285
                },
                {
                    "name": "F7",
                    "midi": 101,
                    "time": 31.153046999999916,
                    "velocity": 0.7637795275590551,
                    "duration": 0.08952024999999963
                },
                {
                    "name": "A4",
                    "midi": 69,
                    "time": 31.511127999999914,
                    "velocity": 0.6220472440944882,
                    "duration": 0.17904049999999927
                },
                {
                    "name": "C5",
                    "midi": 72,
                    "time": 31.511127999999914,
                    "velocity": 0.6220472440944882,
                    "duration": 0.17904049999999927
                },
                {
                    "name": "E4",
                    "midi": 64,
                    "time": 31.511127999999914,
                    "velocity": 0.6220472440944882,
                    "duration": 0.17904049999999927
                },
                {
                    "name": "E5",
                    "midi": 76,
                    "time": 31.511127999999914,
                    "velocity": 0.7322834645669292,
                    "duration": 0.17904049999999927
                },
                {
                    "name": "G#4",
                    "midi": 68,
                    "time": 31.869208999999913,
                    "velocity": 0.5826771653543307,
                    "duration": 0.17904049999999927
                },
                {
                    "name": "E4",
                    "midi": 64,
                    "time": 31.869208999999913,
                    "velocity": 0.5826771653543307,
                    "duration": 0.17904049999999927
                },
                {
                    "name": "B4",
                    "midi": 71,
                    "time": 31.869208999999913,
                    "velocity": 0.5826771653543307,
                    "duration": 0.17904049999999927
                },
                {
                    "name": "E5",
                    "midi": 76,
                    "time": 31.869208999999913,
                    "velocity": 0.6929133858267716,
                    "duration": 0.17904049999999927
                },
                {
                    "name": "A4",
                    "midi": 69,
                    "time": 32.22728999999991,
                    "velocity": 0.6929133858267716,
                    "duration": 0.8952024999999963
                },
                {
                    "name": "A5",
                    "midi": 81,
                    "time": 32.22728999999991,
                    "velocity": 0.8188976377952756,
                    "duration": 0.8952024999999963
                },
                {
                    "name": "C5",
                    "midi": 72,
                    "time": 32.22728999999991,
                    "velocity": 0.6929133858267716,
                    "duration": 0.8952024999999963
                },
                {
                    "name": "E5",
                    "midi": 76,
                    "time": 32.22728999999991,
                    "velocity": 0.6929133858267716,
                    "duration": 0.8952024999999963
                },
                {
                    "name": "E5",
                    "midi": 76,
                    "time": 33.30153299999991,
                    "velocity": 0.6929133858267716,
                    "duration": 0.0671401875000015
                },
                {
                    "name": "G#4",
                    "midi": 68,
                    "time": 33.30153299999991,
                    "velocity": 0.5826771653543307,
                    "duration": 0.0671401875000015
                },
                {
                    "name": "D#5",
                    "midi": 75,
                    "time": 33.480573499999906,
                    "velocity": 0.5433070866141733,
                    "duration": 0.0671401875000015
                },
                {
                    "name": "A4",
                    "midi": 69,
                    "time": 33.480573499999906,
                    "velocity": 0.4566929133858268,
                    "duration": 0.0671401875000015
                },
                {
                    "name": "G#4",
                    "midi": 68,
                    "time": 33.659613999999905,
                    "velocity": 0.5354330708661418,
                    "duration": 0.0671401875000015
                },
                {
                    "name": "E5",
                    "midi": 76,
                    "time": 33.659613999999905,
                    "velocity": 0.6377952755905512,
                    "duration": 0.0671401875000015
                },
                {
                    "name": "A4",
                    "midi": 69,
                    "time": 33.838654499999905,
                    "velocity": 0.4566929133858268,
                    "duration": 0.0671401875000015
                },
                {
                    "name": "D#5",
                    "midi": 75,
                    "time": 33.838654499999905,
                    "velocity": 0.5433070866141733,
                    "duration": 0.0671401875000015
                },
                {
                    "name": "E5",
                    "midi": 76,
                    "time": 34.017694999999904,
                    "velocity": 0.6929133858267716,
                    "duration": 0.0671401875000015
                },
                {
                    "name": "G#4",
                    "midi": 68,
                    "time": 34.017694999999904,
                    "velocity": 0.5826771653543307,
                    "duration": 0.0671401875000015
                },
                {
                    "name": "C5",
                    "midi": 72,
                    "time": 34.3757759999999,
                    "velocity": 0.6929133858267716,
                    "duration": 0.8952024999999963
                },
                {
                    "name": "F4",
                    "midi": 65,
                    "time": 34.3757759999999,
                    "velocity": 0.6929133858267716,
                    "duration": 0.8952024999999963
                },
                {
                    "name": "A4",
                    "midi": 69,
                    "time": 34.3757759999999,
                    "velocity": 0.6929133858267716,
                    "duration": 0.8952024999999963
                },
                {
                    "name": "F5",
                    "midi": 77,
                    "time": 34.3757759999999,
                    "velocity": 0.8188976377952756,
                    "duration": 0.8952024999999963
                },
                {
                    "name": "E4",
                    "midi": 64,
                    "time": 35.4500189999999,
                    "velocity": 0.5826771653543307,
                    "duration": 0.0671401875000015
                },
                {
                    "name": "C5",
                    "midi": 72,
                    "time": 35.4500189999999,
                    "velocity": 0.6929133858267716,
                    "duration": 0.0671401875000015
                },
                {
                    "name": "B4",
                    "midi": 71,
                    "time": 35.6290594999999,
                    "velocity": 0.5669291338582677,
                    "duration": 0.0671401875000015
                },
                {
                    "name": "F4",
                    "midi": 65,
                    "time": 35.6290594999999,
                    "velocity": 0.48031496062992124,
                    "duration": 0.0671401875000015
                },
                {
                    "name": "E4",
                    "midi": 64,
                    "time": 35.8080999999999,
                    "velocity": 0.5275590551181102,
                    "duration": 0.0671401875000015
                },
                {
                    "name": "C5",
                    "midi": 72,
                    "time": 35.8080999999999,
                    "velocity": 0.6220472440944882,
                    "duration": 0.0671401875000015
                },
                {
                    "name": "F4",
                    "midi": 65,
                    "time": 35.987140499999896,
                    "velocity": 0.48031496062992124,
                    "duration": 0.0671401875000015
                },
                {
                    "name": "B4",
                    "midi": 71,
                    "time": 35.987140499999896,
                    "velocity": 0.5669291338582677,
                    "duration": 0.0671401875000015
                },
                {
                    "name": "C5",
                    "midi": 72,
                    "time": 36.166180999999895,
                    "velocity": 0.6929133858267716,
                    "duration": 0.0671401875000015
                },
                {
                    "name": "E4",
                    "midi": 64,
                    "time": 36.166180999999895,
                    "velocity": 0.5826771653543307,
                    "duration": 0.0671401875000015
                },
                {
                    "name": "B4",
                    "midi": 71,
                    "time": 36.524261999999894,
                    "velocity": 0.6535433070866141,
                    "duration": 0.7161619999999971
                },
                {
                    "name": "D4",
                    "midi": 62,
                    "time": 36.524261999999894,
                    "velocity": 0.6535433070866141,
                    "duration": 0.7161619999999971
                },
                {
                    "name": "F4",
                    "midi": 65,
                    "time": 36.524261999999894,
                    "velocity": 0.6535433070866141,
                    "duration": 0.7161619999999971
                },
                {
                    "name": "D5",
                    "midi": 74,
                    "time": 36.524261999999894,
                    "velocity": 0.7716535433070866,
                    "duration": 0.7161619999999971
                },
                {
                    "name": "E4",
                    "midi": 64,
                    "time": 37.24042399999989,
                    "velocity": 0.5984251968503937,
                    "duration": 0.17904049999999927
                },
                {
                    "name": "A4",
                    "midi": 69,
                    "time": 37.24042399999989,
                    "velocity": 0.5984251968503937,
                    "duration": 0.17904049999999927
                },
                {
                    "name": "C4",
                    "midi": 60,
                    "time": 37.24042399999989,
                    "velocity": 0.5984251968503937,
                    "duration": 0.17904049999999927
                },
                {
                    "name": "C5",
                    "midi": 72,
                    "time": 37.24042399999989,
                    "velocity": 0.7086614173228346,
                    "duration": 0.17904049999999927
                },
                {
                    "name": "D4",
                    "midi": 62,
                    "time": 37.59850499999989,
                    "velocity": 0.5984251968503937,
                    "duration": 0.17904049999999927
                },
                {
                    "name": "A#3",
                    "midi": 58,
                    "time": 37.59850499999989,
                    "velocity": 0.5984251968503937,
                    "duration": 0.17904049999999927
                },
                {
                    "name": "F4",
                    "midi": 65,
                    "time": 37.59850499999989,
                    "velocity": 0.5984251968503937,
                    "duration": 0.17904049999999927
                },
                {
                    "name": "A#4",
                    "midi": 70,
                    "time": 37.59850499999989,
                    "velocity": 0.7086614173228346,
                    "duration": 0.17904049999999927
                },
                {
                    "name": "F4",
                    "midi": 65,
                    "time": 37.95658599999989,
                    "velocity": 0.6299212598425197,
                    "duration": 0.17904049999999927
                },
                {
                    "name": "F5",
                    "midi": 77,
                    "time": 37.95658599999989,
                    "velocity": 0.7480314960629921,
                    "duration": 0.17904049999999927
                },
                {
                    "name": "G#4",
                    "midi": 68,
                    "time": 37.95658599999989,
                    "velocity": 0.6299212598425197,
                    "duration": 0.17904049999999927
                },
                {
                    "name": "D5",
                    "midi": 74,
                    "time": 37.95658599999989,
                    "velocity": 0.6299212598425197,
                    "duration": 0.17904049999999927
                },
                {
                    "name": "C5",
                    "midi": 72,
                    "time": 38.314666999999886,
                    "velocity": 0.6062992125984252,
                    "duration": 0.17904049999999927
                },
                {
                    "name": "E5",
                    "midi": 76,
                    "time": 38.314666999999886,
                    "velocity": 0.7165354330708661,
                    "duration": 0.17904049999999927
                },
                {
                    "name": "E4",
                    "midi": 64,
                    "time": 38.314666999999886,
                    "velocity": 0.6062992125984252,
                    "duration": 0.17904049999999927
                },
                {
                    "name": "A4",
                    "midi": 69,
                    "time": 38.314666999999886,
                    "velocity": 0.6062992125984252,
                    "duration": 0.17904049999999927
                },
                {
                    "name": "D5",
                    "midi": 74,
                    "time": 38.672747999999885,
                    "velocity": 0.7401574803149606,
                    "duration": 0.17904049999999927
                },
                {
                    "name": "F4",
                    "midi": 65,
                    "time": 38.672747999999885,
                    "velocity": 0.6220472440944882,
                    "duration": 0.17904049999999927
                },
                {
                    "name": "B4",
                    "midi": 71,
                    "time": 38.672747999999885,
                    "velocity": 0.6220472440944882,
                    "duration": 0.17904049999999927
                },
                {
                    "name": "C5",
                    "midi": 72,
                    "time": 39.03082899999988,
                    "velocity": 0.7086614173228346,
                    "duration": 0.17904049999999927
                },
                {
                    "name": "E4",
                    "midi": 64,
                    "time": 39.03082899999988,
                    "velocity": 0.5984251968503937,
                    "duration": 0.17904049999999927
                },
                {
                    "name": "A4",
                    "midi": 69,
                    "time": 39.03082899999988,
                    "velocity": 0.5984251968503937,
                    "duration": 0.17904049999999927
                },
                {
                    "name": "B4",
                    "midi": 71,
                    "time": 39.38890999999988,
                    "velocity": 0.6929133858267716,
                    "duration": 0.17904049999999927
                },
                {
                    "name": "E4",
                    "midi": 64,
                    "time": 39.38890999999988,
                    "velocity": 0.5826771653543307,
                    "duration": 0.17904049999999927
                },
                {
                    "name": "G#4",
                    "midi": 68,
                    "time": 39.38890999999988,
                    "velocity": 0.5826771653543307,
                    "duration": 0.17904049999999927
                },
                {
                    "name": "A4",
                    "midi": 69,
                    "time": 39.74699099999988,
                    "velocity": 0.6850393700787402,
                    "duration": 0.17904049999999927
                },
                {
                    "name": "B4",
                    "midi": 71,
                    "time": 39.92603149999988,
                    "velocity": 0.6535433070866141,
                    "duration": 0.08952024999999963
                },
                {
                    "name": "C5",
                    "midi": 72,
                    "time": 40.01555174999988,
                    "velocity": 0.5905511811023622,
                    "duration": 0.08952024999999963
                },
                {
                    "name": "D5",
                    "midi": 74,
                    "time": 40.10507199999988,
                    "velocity": 0.5984251968503937,
                    "duration": 0.08952024999999963
                },
                {
                    "name": "E5",
                    "midi": 76,
                    "time": 40.19459224999988,
                    "velocity": 0.6141732283464567,
                    "duration": 0.08952024999999963
                },
                {
                    "name": "F#5",
                    "midi": 78,
                    "time": 40.28411249999988,
                    "velocity": 0.6299212598425197,
                    "duration": 0.08952024999999963
                },
                {
                    "name": "G#5",
                    "midi": 80,
                    "time": 40.37363274999988,
                    "velocity": 0.6456692913385826,
                    "duration": 0.08952024999999963
                },
                {
                    "name": "A5",
                    "midi": 81,
                    "time": 40.46315299999988,
                    "velocity": 0.6535433070866141,
                    "duration": 0.08952024999999963
                },
                {
                    "name": "B5",
                    "midi": 83,
                    "time": 40.55267324999988,
                    "velocity": 0.6692913385826772,
                    "duration": 0.08952024999999963
                },
                {
                    "name": "C6",
                    "midi": 84,
                    "time": 40.64219349999988,
                    "velocity": 0.6850393700787402,
                    "duration": 0.08952024999999963
                },
                {
                    "name": "D6",
                    "midi": 86,
                    "time": 40.73171374999988,
                    "velocity": 0.6929133858267716,
                    "duration": 0.08952024999999963
                },
                {
                    "name": "E6",
                    "midi": 88,
                    "time": 40.821233999999876,
                    "velocity": 0.7795275590551181,
                    "duration": 0.0671401875000015
                },
                {
                    "name": "E5",
                    "midi": 76,
                    "time": 40.821233999999876,
                    "velocity": 0.6614173228346457,
                    "duration": 0.0671401875000015
                },
                {
                    "name": "D#5",
                    "midi": 75,
                    "time": 41.000274499999875,
                    "velocity": 0.5748031496062992,
                    "duration": 0.0671401875000015
                },
                {
                    "name": "D#6",
                    "midi": 87,
                    "time": 41.000274499999875,
                    "velocity": 0.6771653543307087,
                    "duration": 0.0671401875000015
                },
                {
                    "name": "E6",
                    "midi": 88,
                    "time": 41.179314999999875,
                    "velocity": 0.7322834645669292,
                    "duration": 0.0671401875000015
                },
                {
                    "name": "E5",
                    "midi": 76,
                    "time": 41.179314999999875,
                    "velocity": 0.6220472440944882,
                    "duration": 0.0671401875000015
                },
                {
                    "name": "D#5",
                    "midi": 75,
                    "time": 41.358355499999874,
                    "velocity": 0.5748031496062992,
                    "duration": 0.0671401875000015
                },
                {
                    "name": "D#6",
                    "midi": 87,
                    "time": 41.358355499999874,
                    "velocity": 0.6771653543307087,
                    "duration": 0.0671401875000015
                },
                {
                    "name": "E6",
                    "midi": 88,
                    "time": 41.53739599999987,
                    "velocity": 0.7952755905511811,
                    "duration": 0.0671401875000015
                },
                {
                    "name": "E5",
                    "midi": 76,
                    "time": 41.53739599999987,
                    "velocity": 0.6692913385826772,
                    "duration": 0.0671401875000015
                },
                {
                    "name": "F4",
                    "midi": 65,
                    "time": 41.89547699999987,
                    "velocity": 0.7007874015748031,
                    "duration": 0.17904049999999927
                },
                {
                    "name": "G4",
                    "midi": 67,
                    "time": 42.07451749999987,
                    "velocity": 0.6535433070866141,
                    "duration": 0.08952024999999963
                },
                {
                    "name": "A4",
                    "midi": 69,
                    "time": 42.16403774999987,
                    "velocity": 0.5905511811023622,
                    "duration": 0.08952024999999963
                },
                {
                    "name": "A#4",
                    "midi": 70,
                    "time": 42.25355799999987,
                    "velocity": 0.5984251968503937,
                    "duration": 0.08952024999999963
                },
                {
                    "name": "C5",
                    "midi": 72,
                    "time": 42.34307824999987,
                    "velocity": 0.6141732283464567,
                    "duration": 0.08952024999999963
                },
                {
                    "name": "D5",
                    "midi": 74,
                    "time": 42.43259849999987,
                    "velocity": 0.6299212598425197,
                    "duration": 0.08952024999999963
                },
                {
                    "name": "E5",
                    "midi": 76,
                    "time": 42.52211874999987,
                    "velocity": 0.6456692913385826,
                    "duration": 0.08952024999999963
                },
                {
                    "name": "F5",
                    "midi": 77,
                    "time": 42.61163899999987,
                    "velocity": 0.6535433070866141,
                    "duration": 0.08952024999999963
                },
                {
                    "name": "G5",
                    "midi": 79,
                    "time": 42.70115924999987,
                    "velocity": 0.6692913385826772,
                    "duration": 0.08952024999999963
                },
                {
                    "name": "A5",
                    "midi": 81,
                    "time": 42.79067949999987,
                    "velocity": 0.6850393700787402,
                    "duration": 0.08952024999999963
                },
                {
                    "name": "A#5",
                    "midi": 82,
                    "time": 42.88019974999987,
                    "velocity": 0.6929133858267716,
                    "duration": 0.08952024999999963
                },
                {
                    "name": "C5",
                    "midi": 72,
                    "time": 42.96971999999987,
                    "velocity": 0.6220472440944882,
                    "duration": 0.0671401875000015
                },
                {
                    "name": "C6",
                    "midi": 84,
                    "time": 42.96971999999987,
                    "velocity": 0.7401574803149606,
                    "duration": 0.0671401875000015
                },
                {
                    "name": "B5",
                    "midi": 83,
                    "time": 43.14876049999987,
                    "velocity": 0.6456692913385826,
                    "duration": 0.0671401875000015
                },
                {
                    "name": "B4",
                    "midi": 71,
                    "time": 43.14876049999987,
                    "velocity": 0.5433070866141733,
                    "duration": 0.0671401875000015
                },
                {
                    "name": "C5",
                    "midi": 72,
                    "time": 43.327800999999866,
                    "velocity": 0.5984251968503937,
                    "duration": 0.0671401875000015
                },
                {
                    "name": "C6",
                    "midi": 84,
                    "time": 43.327800999999866,
                    "velocity": 0.7086614173228346,
                    "duration": 0.0671401875000015
                },
                {
                    "name": "B5",
                    "midi": 83,
                    "time": 43.506841499999865,
                    "velocity": 0.6377952755905512,
                    "duration": 0.0671401875000015
                },
                {
                    "name": "B4",
                    "midi": 71,
                    "time": 43.506841499999865,
                    "velocity": 0.5354330708661418,
                    "duration": 0.0671401875000015
                },
                {
                    "name": "C6",
                    "midi": 84,
                    "time": 43.685881999999864,
                    "velocity": 0.7480314960629921,
                    "duration": 0.0671401875000015
                },
                {
                    "name": "C5",
                    "midi": 72,
                    "time": 43.685881999999864,
                    "velocity": 0.6299212598425197,
                    "duration": 0.0671401875000015
                },
                {
                    "name": "B4",
                    "midi": 71,
                    "time": 44.04396299999986,
                    "velocity": 0.6692913385826772,
                    "duration": 0.08952024999999963
                },
                {
                    "name": "C5",
                    "midi": 72,
                    "time": 44.13348324999986,
                    "velocity": 0.6299212598425197,
                    "duration": 0.08952024999999963
                },
                {
                    "name": "D5",
                    "midi": 74,
                    "time": 44.22300349999986,
                    "velocity": 0.6299212598425197,
                    "duration": 0.08952024999999963
                },
                {
                    "name": "E5",
                    "midi": 76,
                    "time": 44.31252374999986,
                    "velocity": 0.6141732283464567,
                    "duration": 0.08952024999999963
                },
                {
                    "name": "F5",
                    "midi": 77,
                    "time": 44.40204399999986,
                    "velocity": 0.7086614173228346,
                    "duration": 0.08952024999999963
                },
                {
                    "name": "B5",
                    "midi": 83,
                    "time": 44.49156424999986,
                    "velocity": 0.6535433070866141,
                    "duration": 0.08952024999999963
                },
                {
                    "name": "D6",
                    "midi": 86,
                    "time": 44.58108449999986,
                    "velocity": 0.6456692913385826,
                    "duration": 0.08952024999999963
                },
                {
                    "name": "F6",
                    "midi": 89,
                    "time": 44.67060474999986,
                    "velocity": 0.6141732283464567,
                    "duration": 0.08952024999999963
                },
                {
                    "name": "E6",
                    "midi": 88,
                    "time": 44.76012499999986,
                    "velocity": 0.7244094488188977,
                    "duration": 0.08952024999999963
                },
                {
                    "name": "A#4",
                    "midi": 70,
                    "time": 45.11820599999986,
                    "velocity": 0.6771653543307087,
                    "duration": 0.08952024999999963
                },
                {
                    "name": "D5",
                    "midi": 74,
                    "time": 45.20772624999986,
                    "velocity": 0.6141732283464567,
                    "duration": 0.08952024999999963
                },
                {
                    "name": "F5",
                    "midi": 77,
                    "time": 45.29724649999986,
                    "velocity": 0.6141732283464567,
                    "duration": 0.08952024999999963
                },
                {
                    "name": "A#5",
                    "midi": 82,
                    "time": 45.38676674999986,
                    "velocity": 0.6141732283464567,
                    "duration": 0.08952024999999963
                },
                {
                    "name": "D5",
                    "midi": 74,
                    "time": 45.47628699999986,
                    "velocity": 0.6771653543307087,
                    "duration": 0.08952024999999963
                },
                {
                    "name": "F5",
                    "midi": 77,
                    "time": 45.56580724999986,
                    "velocity": 0.6141732283464567,
                    "duration": 0.08952024999999963
                },
                {
                    "name": "G#5",
                    "midi": 80,
                    "time": 45.655327499999856,
                    "velocity": 0.6141732283464567,
                    "duration": 0.08952024999999963
                },
                {
                    "name": "D6",
                    "midi": 86,
                    "time": 45.744847749999856,
                    "velocity": 0.6141732283464567,
                    "duration": 0.08952024999999963
                },
                {
                    "name": "C5",
                    "midi": 72,
                    "time": 45.834367999999856,
                    "velocity": 0.6771653543307087,
                    "duration": 0.08952024999999963
                },
                {
                    "name": "E5",
                    "midi": 76,
                    "time": 45.923888249999855,
                    "velocity": 0.5984251968503937,
                    "duration": 0.08952024999999963
                },
                {
                    "name": "A5",
                    "midi": 81,
                    "time": 46.013408499999855,
                    "velocity": 0.5984251968503937,
                    "duration": 0.08952024999999963
                },
                {
                    "name": "C6",
                    "midi": 84,
                    "time": 46.102928749999855,
                    "velocity": 0.5984251968503937,
                    "duration": 0.08952024999999963
                },
                {
                    "name": "B4",
                    "midi": 71,
                    "time": 46.192448999999854,
                    "velocity": 0.6299212598425197,
                    "duration": 0.08952024999999963
                },
                {
                    "name": "D5",
                    "midi": 74,
                    "time": 46.281969249999854,
                    "velocity": 0.5748031496062992,
                    "duration": 0.08952024999999963
                },
                {
                    "name": "F5",
                    "midi": 77,
                    "time": 46.37148949999985,
                    "velocity": 0.5748031496062992,
                    "duration": 0.08952024999999963
                },
                {
                    "name": "B5",
                    "midi": 83,
                    "time": 46.46100974999985,
                    "velocity": 0.5669291338582677,
                    "duration": 0.08952024999999963
                },
                {
                    "name": "A4",
                    "midi": 69,
                    "time": 46.55052999999985,
                    "velocity": 0.6141732283464567,
                    "duration": 0.08952024999999963
                },
                {
                    "name": "C5",
                    "midi": 72,
                    "time": 46.64005024999985,
                    "velocity": 0.5511811023622047,
                    "duration": 0.08952024999999963
                },
                {
                    "name": "E5",
                    "midi": 76,
                    "time": 46.72957049999985,
                    "velocity": 0.5511811023622047,
                    "duration": 0.08952024999999963
                },
                {
                    "name": "A5",
                    "midi": 81,
                    "time": 46.81909074999985,
                    "velocity": 0.5511811023622047,
                    "duration": 0.08952024999999963
                },
                {
                    "name": "G#4",
                    "midi": 68,
                    "time": 46.90861099999985,
                    "velocity": 0.6062992125984252,
                    "duration": 0.08952024999999963
                },
                {
                    "name": "B4",
                    "midi": 71,
                    "time": 46.99813124999985,
                    "velocity": 0.5433070866141733,
                    "duration": 0.08952024999999963
                },
                {
                    "name": "E5",
                    "midi": 76,
                    "time": 47.08765149999985,
                    "velocity": 0.5433070866141733,
                    "duration": 0.08952024999999963
                },
                {
                    "name": "G#5",
                    "midi": 80,
                    "time": 47.17717174999985,
                    "velocity": 0.5433070866141733,
                    "duration": 0.08952024999999963
                },
                {
                    "name": "A3",
                    "midi": 57,
                    "time": 47.26669199999985,
                    "velocity": 0.6850393700787402,
                    "duration": 0.17904049999999927
                },
                {
                    "name": "B3",
                    "midi": 59,
                    "time": 47.44573249999985,
                    "velocity": 0.6456692913385826,
                    "duration": 0.08952024999999963
                },
                {
                    "name": "C4",
                    "midi": 60,
                    "time": 47.53525274999985,
                    "velocity": 0.6141732283464567,
                    "duration": 0.08952024999999963
                },
                {
                    "name": "D4",
                    "midi": 62,
                    "time": 47.62477299999985,
                    "velocity": 0.6062992125984252,
                    "duration": 0.08952024999999963
                },
                {
                    "name": "E4",
                    "midi": 64,
                    "time": 47.71429324999985,
                    "velocity": 0.6062992125984252,
                    "duration": 0.08952024999999963
                },
                {
                    "name": "F#4",
                    "midi": 66,
                    "time": 47.80381349999985,
                    "velocity": 0.6062992125984252,
                    "duration": 0.08952024999999963
                },
                {
                    "name": "G#4",
                    "midi": 68,
                    "time": 47.89333374999985,
                    "velocity": 0.5984251968503937,
                    "duration": 0.08952024999999963
                },
                {
                    "name": "A4",
                    "midi": 69,
                    "time": 47.98285399999985,
                    "velocity": 0.5984251968503937,
                    "duration": 0.08952024999999963
                },
                {
                    "name": "B4",
                    "midi": 71,
                    "time": 48.07237424999985,
                    "velocity": 0.5984251968503937,
                    "duration": 0.08952024999999963
                },
                {
                    "name": "C5",
                    "midi": 72,
                    "time": 48.161894499999846,
                    "velocity": 0.5905511811023622,
                    "duration": 0.08952024999999963
                },
                {
                    "name": "D5",
                    "midi": 74,
                    "time": 48.251414749999846,
                    "velocity": 0.5905511811023622,
                    "duration": 0.08952024999999963
                },
                {
                    "name": "E5",
                    "midi": 76,
                    "time": 48.340934999999845,
                    "velocity": 0.5826771653543307,
                    "duration": 0.08952024999999963
                },
                {
                    "name": "F5",
                    "midi": 77,
                    "time": 48.430455249999845,
                    "velocity": 0.5826771653543307,
                    "duration": 0.08952024999999963
                },
                {
                    "name": "G5",
                    "midi": 79,
                    "time": 48.519975499999845,
                    "velocity": 0.5748031496062992,
                    "duration": 0.08952024999999963
                },
                {
                    "name": "A5",
                    "midi": 81,
                    "time": 48.609495749999844,
                    "velocity": 0.5748031496062992,
                    "duration": 0.08952024999999963
                },
                {
                    "name": "A#5",
                    "midi": 82,
                    "time": 48.699015999999844,
                    "velocity": 0.5590551181102362,
                    "duration": 0.17904049999999927
                },
                {
                    "name": "G5",
                    "midi": 79,
                    "time": 49.77325899999984,
                    "velocity": 0.5590551181102362,
                    "duration": 0.17904049999999927
                },
                {
                    "name": "E5",
                    "midi": 76,
                    "time": 50.847501999999835,
                    "velocity": 0.5275590551181102,
                    "duration": 0.17904049999999927
                },
                {
                    "name": "C#5",
                    "midi": 73,
                    "time": 51.92174499999983,
                    "velocity": 0.4330708661417323,
                    "duration": 0.17904049999999927
                },
                {
                    "name": "C5",
                    "midi": 72,
                    "time": 52.99598799999983,
                    "velocity": 0.3937007874015748,
                    "duration": 0.17904049999999927
                },
                {
                    "name": "A4",
                    "midi": 69,
                    "time": 53.71214999999982,
                    "velocity": 0.2992125984251969,
                    "duration": 0.8952024999999963
                },
                {
                    "name": "C4",
                    "midi": 60,
                    "time": 53.71214999999982,
                    "velocity": 0.25984251968503935,
                    "duration": 2.1484859999999912
                },
                {
                    "name": "A#4",
                    "midi": 70,
                    "time": 54.60735249999982,
                    "velocity": 0.28346456692913385,
                    "duration": 0.08952024999999963
                },
                {
                    "name": "A4",
                    "midi": 69,
                    "time": 54.69687274999982,
                    "velocity": 0.2440944881889764,
                    "duration": 0.08952024999999963
                },
                {
                    "name": "G4",
                    "midi": 67,
                    "time": 54.78639299999982,
                    "velocity": 0.28346456692913385,
                    "duration": 0.35808099999999854
                },
                {
                    "name": "A#4",
                    "midi": 70,
                    "time": 55.14447399999982,
                    "velocity": 0.2992125984251969,
                    "duration": 0.35808099999999854
                },
                {
                    "name": "C#5",
                    "midi": 73,
                    "time": 55.502554999999816,
                    "velocity": 0.33070866141732286,
                    "duration": 0.35808099999999854
                },
                {
                    "name": "C5",
                    "midi": 72,
                    "time": 55.860635999999815,
                    "velocity": 0.31496062992125984,
                    "duration": 0.7161619999999971
                },
                {
                    "name": "C4",
                    "midi": 60,
                    "time": 55.860635999999815,
                    "velocity": 0.25984251968503935,
                    "duration": 1.0742429999999956
                },
                {
                    "name": "A4",
                    "midi": 69,
                    "time": 56.57679799999981,
                    "velocity": 0.2677165354330709,
                    "duration": 0.35062097916666346
                },
                {
                    "name": "C5",
                    "midi": 72,
                    "time": 56.93487899999981,
                    "velocity": 0.31496062992125984,
                    "duration": 0.7161619999999971
                },
                {
                    "name": "C4",
                    "midi": 60,
                    "time": 56.93487899999981,
                    "velocity": 0.25984251968503935,
                    "duration": 1.0742429999999956
                },
                {
                    "name": "A#4",
                    "midi": 70,
                    "time": 57.65104099999981,
                    "velocity": 0.2677165354330709,
                    "duration": 0.35062097916666346
                },
                {
                    "name": "A4",
                    "midi": 69,
                    "time": 58.009121999999806,
                    "velocity": 0.2992125984251969,
                    "duration": 0.8952024999999963
                },
                {
                    "name": "C4",
                    "midi": 60,
                    "time": 58.009121999999806,
                    "velocity": 0.2992125984251969,
                    "duration": 2.1484859999999912
                },
                {
                    "name": "A#4",
                    "midi": 70,
                    "time": 58.9043244999998,
                    "velocity": 0.2755905511811024,
                    "duration": 0.08952024999999963
                },
                {
                    "name": "A4",
                    "midi": 69,
                    "time": 58.9938447499998,
                    "velocity": 0.2440944881889764,
                    "duration": 0.08952024999999963
                },
                {
                    "name": "G4",
                    "midi": 67,
                    "time": 59.0833649999998,
                    "velocity": 0.28346456692913385,
                    "duration": 0.35808099999999854
                },
                {
                    "name": "A#4",
                    "midi": 70,
                    "time": 59.4414459999998,
                    "velocity": 0.2992125984251969,
                    "duration": 0.35808099999999854
                },
                {
                    "name": "C#5",
                    "midi": 73,
                    "time": 59.7995269999998,
                    "velocity": 0.33070866141732286,
                    "duration": 0.35808099999999854
                },
                {
                    "name": "C5",
                    "midi": 72,
                    "time": 60.1576079999998,
                    "velocity": 0.31496062992125984,
                    "duration": 0.7161619999999971
                },
                {
                    "name": "C4",
                    "midi": 60,
                    "time": 60.1576079999998,
                    "velocity": 0.25984251968503935,
                    "duration": 1.0742429999999956
                },
                {
                    "name": "A4",
                    "midi": 69,
                    "time": 60.873769999999794,
                    "velocity": 0.2677165354330709,
                    "duration": 0.35062097916666346
                },
                {
                    "name": "C5",
                    "midi": 72,
                    "time": 61.23185099999979,
                    "velocity": 0.3700787401574803,
                    "duration": 0.7161619999999971
                },
                {
                    "name": "C4",
                    "midi": 60,
                    "time": 61.23185099999979,
                    "velocity": 0.3700787401574803,
                    "duration": 1.0742429999999956
                },
                {
                    "name": "A#4",
                    "midi": 70,
                    "time": 61.94801299999979,
                    "velocity": 0.3543307086614173,
                    "duration": 0.35062097916666346
                },
                {
                    "name": "C#4",
                    "midi": 61,
                    "time": 62.30609399999979,
                    "velocity": 0.41732283464566927,
                    "duration": 1.0742429999999956
                },
                {
                    "name": "C#5",
                    "midi": 73,
                    "time": 62.30609399999979,
                    "velocity": 0.41732283464566927,
                    "duration": 0.7161619999999971
                },
                {
                    "name": "A#4",
                    "midi": 70,
                    "time": 63.022255999999786,
                    "velocity": 0.3858267716535433,
                    "duration": 0.35062097916666346
                },
                {
                    "name": "D4",
                    "midi": 62,
                    "time": 63.380336999999784,
                    "velocity": 0.44881889763779526,
                    "duration": 1.0742429999999956
                },
                {
                    "name": "D5",
                    "midi": 74,
                    "time": 63.380336999999784,
                    "velocity": 0.44881889763779526,
                    "duration": 0.7161619999999971
                },
                {
                    "name": "A#4",
                    "midi": 70,
                    "time": 64.09649899999978,
                    "velocity": 0.3858267716535433,
                    "duration": 0.35062097916666346
                },
                {
                    "name": "D#4",
                    "midi": 63,
                    "time": 64.45457999999978,
                    "velocity": 0.41732283464566927,
                    "duration": 1.0742429999999956
                },
                {
                    "name": "A4",
                    "midi": 69,
                    "time": 64.45457999999978,
                    "velocity": 0.41732283464566927,
                    "duration": 0.35808099999999854
                },
                {
                    "name": "F#5",
                    "midi": 78,
                    "time": 64.81266099999978,
                    "velocity": 0.48031496062992124,
                    "duration": 0.35808099999999854
                },
                {
                    "name": "F5",
                    "midi": 77,
                    "time": 65.17074199999978,
                    "velocity": 0.4330708661417323,
                    "duration": 0.35808099999999854
                },
                {
                    "name": "F4",
                    "midi": 65,
                    "time": 65.52882299999978,
                    "velocity": 0.25984251968503935,
                    "duration": 1.0742429999999956
                },
                {
                    "name": "D#5",
                    "midi": 75,
                    "time": 65.52882299999978,
                    "velocity": 0.3937007874015748,
                    "duration": 0.7161619999999971
                },
                {
                    "name": "D5",
                    "midi": 74,
                    "time": 66.24498499999977,
                    "velocity": 0.3543307086614173,
                    "duration": 0.35062097916666346
                },
                {
                    "name": "C4",
                    "midi": 60,
                    "time": 66.60306599999977,
                    "velocity": 0.3858267716535433,
                    "duration": 1.0742429999999956
                },
                {
                    "name": "A4",
                    "midi": 69,
                    "time": 66.60306599999977,
                    "velocity": 0.3858267716535433,
                    "duration": 0.35808099999999854
                },
                {
                    "name": "D#5",
                    "midi": 75,
                    "time": 66.96114699999977,
                    "velocity": 0.41732283464566927,
                    "duration": 0.35808099999999854
                },
                {
                    "name": "D5",
                    "midi": 74,
                    "time": 67.31922799999977,
                    "velocity": 0.3543307086614173,
                    "duration": 0.35808099999999854
                },
                {
                    "name": "C5",
                    "midi": 72,
                    "time": 67.67730899999977,
                    "velocity": 0.3779527559055118,
                    "duration": 0.7161619999999971
                },
                {
                    "name": "D4",
                    "midi": 62,
                    "time": 67.67730899999977,
                    "velocity": 0.25984251968503935,
                    "duration": 1.0742429999999956
                },
                {
                    "name": "A#4",
                    "midi": 70,
                    "time": 68.39347099999976,
                    "velocity": 0.3543307086614173,
                    "duration": 0.35062097916666346
                },
                {
                    "name": "C4",
                    "midi": 60,
                    "time": 68.75155199999976,
                    "velocity": 0.25984251968503935,
                    "duration": 1.0742429999999956
                },
                {
                    "name": "C5",
                    "midi": 72,
                    "time": 68.75155199999976,
                    "velocity": 0.31496062992125984,
                    "duration": 0.7161619999999971
                },
                {
                    "name": "A#4",
                    "midi": 70,
                    "time": 69.46771399999976,
                    "velocity": 0.2677165354330709,
                    "duration": 0.35062097916666346
                },
                {
                    "name": "C4",
                    "midi": 60,
                    "time": 69.82579499999976,
                    "velocity": 0.25984251968503935,
                    "duration": 1.0742429999999956
                },
                {
                    "name": "C5",
                    "midi": 72,
                    "time": 69.82579499999976,
                    "velocity": 0.31496062992125984,
                    "duration": 0.7161619999999971
                },
                {
                    "name": "A4",
                    "midi": 69,
                    "time": 70.54195699999975,
                    "velocity": 0.2677165354330709,
                    "duration": 0.35062097916666346
                },
                {
                    "name": "A#3",
                    "midi": 58,
                    "time": 70.90003799999975,
                    "velocity": 0.25984251968503935,
                    "duration": 1.0742429999999956
                },
                {
                    "name": "C#5",
                    "midi": 73,
                    "time": 70.90003799999975,
                    "velocity": 0.4015748031496063,
                    "duration": 0.35808099999999854
                },
                {
                    "name": "C5",
                    "midi": 72,
                    "time": 71.25811899999975,
                    "velocity": 0.28346456692913385,
                    "duration": 0.17904049999999927
                },
                {
                    "name": "A#4",
                    "midi": 70,
                    "time": 71.43715949999975,
                    "velocity": 0.2440944881889764,
                    "duration": 0.17904049999999927
                },
                {
                    "name": "A4",
                    "midi": 69,
                    "time": 71.61619999999975,
                    "velocity": 0.2755905511811024,
                    "duration": 0.17904049999999927
                },
                {
                    "name": "G4",
                    "midi": 67,
                    "time": 71.79524049999975,
                    "velocity": 0.2283464566929134,
                    "duration": 0.17904049999999927
                },
                {
                    "name": "A3",
                    "midi": 57,
                    "time": 71.97428099999975,
                    "velocity": 0.2204724409448819,
                    "duration": 0.35808099999999854
                },
                {
                    "name": "F4",
                    "midi": 65,
                    "time": 71.97428099999975,
                    "velocity": 0.2755905511811024,
                    "duration": 0.5371214999999978
                },
                {
                    "name": "G4",
                    "midi": 67,
                    "time": 72.51140249999975,
                    "velocity": 0.2992125984251969,
                    "duration": 0.17904049999999927
                },
                {
                    "name": "A4",
                    "midi": 69,
                    "time": 72.69044299999975,
                    "velocity": 0.33858267716535434,
                    "duration": 0.17904049999999927
                },
                {
                    "name": "A#4",
                    "midi": 70,
                    "time": 72.86948349999975,
                    "velocity": 0.36220472440944884,
                    "duration": 0.17904049999999927
                },
                {
                    "name": "A4",
                    "midi": 69,
                    "time": 73.04852399999974,
                    "velocity": 0.4251968503937008,
                    "duration": 0.35808099999999854
                },
                {
                    "name": "D#4",
                    "midi": 63,
                    "time": 73.04852399999974,
                    "velocity": 0.4251968503937008,
                    "duration": 1.0742429999999956
                },
                {
                    "name": "F#5",
                    "midi": 78,
                    "time": 73.40660499999974,
                    "velocity": 0.4645669291338583,
                    "duration": 0.35808099999999854
                },
                {
                    "name": "F5",
                    "midi": 77,
                    "time": 73.76468599999974,
                    "velocity": 0.4251968503937008,
                    "duration": 0.35808099999999854
                },
                {
                    "name": "F4",
                    "midi": 65,
                    "time": 74.12276699999974,
                    "velocity": 0.4094488188976378,
                    "duration": 1.0742429999999956
                },
                {
                    "name": "D#5",
                    "midi": 75,
                    "time": 74.12276699999974,
                    "velocity": 0.4094488188976378,
                    "duration": 0.7161619999999971
                },
                {
                    "name": "D5",
                    "midi": 74,
                    "time": 74.83892899999974,
                    "velocity": 0.3858267716535433,
                    "duration": 0.35062097916666346
                },
                {
                    "name": "A4",
                    "midi": 69,
                    "time": 75.19700999999974,
                    "velocity": 0.3937007874015748,
                    "duration": 0.35808099999999854
                },
                {
                    "name": "C4",
                    "midi": 60,
                    "time": 75.19700999999974,
                    "velocity": 0.3937007874015748,
                    "duration": 1.0742429999999956
                },
                {
                    "name": "D#5",
                    "midi": 75,
                    "time": 75.55509099999973,
                    "velocity": 0.4409448818897638,
                    "duration": 0.35808099999999854
                },
                {
                    "name": "D5",
                    "midi": 74,
                    "time": 75.91317199999973,
                    "velocity": 0.4015748031496063,
                    "duration": 0.35808099999999854
                },
                {
                    "name": "D4",
                    "midi": 62,
                    "time": 76.27125299999973,
                    "velocity": 0.25984251968503935,
                    "duration": 1.0742429999999956
                },
                {
                    "name": "C5",
                    "midi": 72,
                    "time": 76.27125299999973,
                    "velocity": 0.3779527559055118,
                    "duration": 0.7161619999999971
                },
                {
                    "name": "A#4",
                    "midi": 70,
                    "time": 76.98741499999973,
                    "velocity": 0.3543307086614173,
                    "duration": 0.35062097916666346
                },
                {
                    "name": "C4",
                    "midi": 60,
                    "time": 77.34549599999973,
                    "velocity": 0.33858267716535434,
                    "duration": 1.0742429999999956
                },
                {
                    "name": "C5",
                    "midi": 72,
                    "time": 77.34549599999973,
                    "velocity": 0.33858267716535434,
                    "duration": 0.7161619999999971
                },
                {
                    "name": "A#4",
                    "midi": 70,
                    "time": 78.06165799999972,
                    "velocity": 0.28346456692913385,
                    "duration": 0.35062097916666346
                },
                {
                    "name": "C4",
                    "midi": 60,
                    "time": 78.41973899999972,
                    "velocity": 0.33858267716535434,
                    "duration": 1.0742429999999956
                },
                {
                    "name": "C5",
                    "midi": 72,
                    "time": 78.41973899999972,
                    "velocity": 0.33858267716535434,
                    "duration": 0.7161619999999971
                },
                {
                    "name": "A4",
                    "midi": 69,
                    "time": 79.13590099999972,
                    "velocity": 0.2677165354330709,
                    "duration": 0.35062097916666346
                },
                {
                    "name": "A#3",
                    "midi": 58,
                    "time": 79.49398199999972,
                    "velocity": 0.25984251968503935,
                    "duration": 1.0742429999999956
                },
                {
                    "name": "C#5",
                    "midi": 73,
                    "time": 79.49398199999972,
                    "velocity": 0.4015748031496063,
                    "duration": 0.35808099999999854
                },
                {
                    "name": "C5",
                    "midi": 72,
                    "time": 79.85206299999972,
                    "velocity": 0.28346456692913385,
                    "duration": 0.17904049999999927
                },
                {
                    "name": "A#4",
                    "midi": 70,
                    "time": 80.03110349999972,
                    "velocity": 0.2440944881889764,
                    "duration": 0.17904049999999927
                },
                {
                    "name": "A4",
                    "midi": 69,
                    "time": 80.21014399999972,
                    "velocity": 0.2755905511811024,
                    "duration": 0.17904049999999927
                },
                {
                    "name": "G4",
                    "midi": 67,
                    "time": 80.38918449999971,
                    "velocity": 0.2283464566929134,
                    "duration": 0.17904049999999927
                },
                {
                    "name": "F4",
                    "midi": 65,
                    "time": 80.56822499999971,
                    "velocity": 0.2755905511811024,
                    "duration": 0.35808099999999854
                },
                {
                    "name": "A3",
                    "midi": 57,
                    "time": 80.56822499999971,
                    "velocity": 0.2440944881889764,
                    "duration": 0.35808099999999854
                },
                {
                    "name": "C4",
                    "midi": 60,
                    "time": 81.64246799999971,
                    "velocity": 0.2755905511811024,
                    "duration": 1.0742429999999956
                },
                {
                    "name": "A4",
                    "midi": 69,
                    "time": 81.64246799999971,
                    "velocity": 0.2755905511811024,
                    "duration": 1.0742429999999956
                },
                {
                    "name": "E4",
                    "midi": 64,
                    "time": 82.7167109999997,
                    "velocity": 0.25196850393700787,
                    "duration": 1.0742429999999956
                },
                {
                    "name": "C4",
                    "midi": 60,
                    "time": 82.7167109999997,
                    "velocity": 0.25196850393700787,
                    "duration": 1.0742429999999956
                },
                {
                    "name": "A4",
                    "midi": 69,
                    "time": 82.7167109999997,
                    "velocity": 0.25196850393700787,
                    "duration": 1.0742429999999956
                },
                {
                    "name": "E4",
                    "midi": 64,
                    "time": 83.7909539999997,
                    "velocity": 0.23622047244094488,
                    "duration": 1.0742429999999956
                },
                {
                    "name": "G#4",
                    "midi": 68,
                    "time": 83.7909539999997,
                    "velocity": 0.23622047244094488,
                    "duration": 1.0742429999999956
                },
                {
                    "name": "B3",
                    "midi": 59,
                    "time": 83.7909539999997,
                    "velocity": 0.23622047244094488,
                    "duration": 1.0742429999999956
                },
                {
                    "name": "A4",
                    "midi": 69,
                    "time": 84.8651969999997,
                    "velocity": 0.33070866141732286,
                    "duration": 0.11936033333333285
                },
                {
                    "name": "B4",
                    "midi": 71,
                    "time": 84.98455733333303,
                    "velocity": 0.30708661417322836,
                    "duration": 0.11936033333333285
                },
                {
                    "name": "C5",
                    "midi": 72,
                    "time": 85.10391766666636,
                    "velocity": 0.30708661417322836,
                    "duration": 0.11936033333333285
                },
                {
                    "name": "B4",
                    "midi": 71,
                    "time": 85.2232779999997,
                    "velocity": 0.33070866141732286,
                    "duration": 0.11936033333333285
                },
                {
                    "name": "C5",
                    "midi": 72,
                    "time": 85.34263833333303,
                    "velocity": 0.30708661417322836,
                    "duration": 0.11936033333333285
                },
                {
                    "name": "D5",
                    "midi": 74,
                    "time": 85.46199866666636,
                    "velocity": 0.30708661417322836,
                    "duration": 0.11936033333333285
                },
                {
                    "name": "E5",
                    "midi": 76,
                    "time": 85.5813589999997,
                    "velocity": 0.4330708661417323,
                    "duration": 0.35808099999999854
                },
                {
                    "name": "A4",
                    "midi": 69,
                    "time": 85.93943999999969,
                    "velocity": 0.33070866141732286,
                    "duration": 0.11936033333333285
                },
                {
                    "name": "B4",
                    "midi": 71,
                    "time": 86.05880033333302,
                    "velocity": 0.2992125984251969,
                    "duration": 0.11936033333333285
                },
                {
                    "name": "C5",
                    "midi": 72,
                    "time": 86.17816066666636,
                    "velocity": 0.2992125984251969,
                    "duration": 0.11936033333333285
                },
                {
                    "name": "B4",
                    "midi": 71,
                    "time": 86.29752099999969,
                    "velocity": 0.4645669291338583,
                    "duration": 0.35808099999999854
                },
                {
                    "name": "C5",
                    "midi": 72,
                    "time": 86.41688133333302,
                    "velocity": 0.29133858267716534,
                    "duration": 0.11936033333333285
                },
                {
                    "name": "D5",
                    "midi": 74,
                    "time": 86.53624166666636,
                    "velocity": 0.29133858267716534,
                    "duration": 0.11936033333333285
                },
                {
                    "name": "E5",
                    "midi": 76,
                    "time": 86.65560199999969,
                    "velocity": 0.4330708661417323,
                    "duration": 0.35808099999999854
                },
                {
                    "name": "A4",
                    "midi": 69,
                    "time": 87.01368299999969,
                    "velocity": 0.33070866141732286,
                    "duration": 0.11936033333333285
                },
                {
                    "name": "B4",
                    "midi": 71,
                    "time": 87.13304333333302,
                    "velocity": 0.2992125984251969,
                    "duration": 0.11936033333333285
                },
                {
                    "name": "C5",
                    "midi": 72,
                    "time": 87.25240366666635,
                    "velocity": 0.2992125984251969,
                    "duration": 0.11936033333333285
                },
                {
                    "name": "B4",
                    "midi": 71,
                    "time": 87.37176399999969,
                    "velocity": 0.4409448818897638,
                    "duration": 0.35808099999999854
                },
                {
                    "name": "C5",
                    "midi": 72,
                    "time": 87.49112433333302,
                    "velocity": 0.2992125984251969,
                    "duration": 0.11936033333333285
                },
                {
                    "name": "D5",
                    "midi": 74,
                    "time": 87.61048466666635,
                    "velocity": 0.2992125984251969,
                    "duration": 0.11936033333333285
                },
                {
                    "name": "C5",
                    "midi": 72,
                    "time": 87.72984499999968,
                    "velocity": 0.33070866141732286,
                    "duration": 0.11936033333333285
                },
                {
                    "name": "D5",
                    "midi": 74,
                    "time": 87.84920533333302,
                    "velocity": 0.31496062992125984,
                    "duration": 0.11936033333333285
                },
                {
                    "name": "E5",
                    "midi": 76,
                    "time": 87.96856566666635,
                    "velocity": 0.33070866141732286,
                    "duration": 0.11936033333333285
                },
                {
                    "name": "F5",
                    "midi": 77,
                    "time": 88.08792599999968,
                    "velocity": 0.33070866141732286,
                    "duration": 0.11936033333333285
                },
                {
                    "name": "G5",
                    "midi": 79,
                    "time": 88.20728633333302,
                    "velocity": 0.3543307086614173,
                    "duration": 0.11936033333333285
                },
                {
                    "name": "A5",
                    "midi": 81,
                    "time": 88.32664666666635,
                    "velocity": 0.3858267716535433,
                    "duration": 0.11936033333333285
                },
                {
                    "name": "G5",
                    "midi": 79,
                    "time": 88.44600699999968,
                    "velocity": 0.4015748031496063,
                    "duration": 0.11936033333333285
                },
                {
                    "name": "F5",
                    "midi": 77,
                    "time": 88.56536733333301,
                    "velocity": 0.3700787401574803,
                    "duration": 0.11936033333333285
                },
                {
                    "name": "E5",
                    "midi": 76,
                    "time": 88.68472766666635,
                    "velocity": 0.3543307086614173,
                    "duration": 0.11936033333333285
                },
                {
                    "name": "D5",
                    "midi": 74,
                    "time": 88.80408799999968,
                    "velocity": 0.36220472440944884,
                    "duration": 0.11936033333333285
                },
                {
                    "name": "C5",
                    "midi": 72,
                    "time": 88.92344833333301,
                    "velocity": 0.3464566929133858,
                    "duration": 0.11936033333333285
                },
                {
                    "name": "B4",
                    "midi": 71,
                    "time": 89.04280866666635,
                    "velocity": 0.31496062992125984,
                    "duration": 0.11936033333333285
                },
                {
                    "name": "A4",
                    "midi": 69,
                    "time": 89.16216899999968,
                    "velocity": 0.3700787401574803,
                    "duration": 0.11936033333333285
                },
                {
                    "name": "B4",
                    "midi": 71,
                    "time": 89.28152933333301,
                    "velocity": 0.33070866141732286,
                    "duration": 0.11936033333333285
                },
                {
                    "name": "C5",
                    "midi": 72,
                    "time": 89.40088966666634,
                    "velocity": 0.33070866141732286,
                    "duration": 0.11936033333333285
                },
                {
                    "name": "B4",
                    "midi": 71,
                    "time": 89.52024999999968,
                    "velocity": 0.3543307086614173,
                    "duration": 0.11936033333333285
                },
                {
                    "name": "A4",
                    "midi": 69,
                    "time": 89.63961033333301,
                    "velocity": 0.31496062992125984,
                    "duration": 0.11936033333333285
                },
                {
                    "name": "G4",
                    "midi": 67,
                    "time": 89.75897066666634,
                    "velocity": 0.31496062992125984,
                    "duration": 0.11936033333333285
                },
                {
                    "name": "F4",
                    "midi": 65,
                    "time": 89.87833099999968,
                    "velocity": 0.3543307086614173,
                    "duration": 0.11936033333333285
                },
                {
                    "name": "E4",
                    "midi": 64,
                    "time": 89.99769133333301,
                    "velocity": 0.30708661417322836,
                    "duration": 0.11936033333333285
                },
                {
                    "name": "D#4",
                    "midi": 63,
                    "time": 90.11705166666634,
                    "velocity": 0.30708661417322836,
                    "duration": 0.11936033333333285
                },
                {
                    "name": "E4",
                    "midi": 64,
                    "time": 90.23641199999967,
                    "velocity": 0.3779527559055118,
                    "duration": 0.35808099999999854
                },
                {
                    "name": "B3",
                    "midi": 59,
                    "time": 90.95257399999967,
                    "velocity": 0.33070866141732286,
                    "duration": 0.11936033333333285
                },
                {
                    "name": "C#4",
                    "midi": 61,
                    "time": 91.071934333333,
                    "velocity": 0.2992125984251969,
                    "duration": 0.11936033333333285
                },
                {
                    "name": "D#4",
                    "midi": 63,
                    "time": 91.19129466666634,
                    "velocity": 0.2992125984251969,
                    "duration": 0.11936033333333285
                },
                {
                    "name": "E4",
                    "midi": 64,
                    "time": 91.31065499999967,
                    "velocity": 0.3543307086614173,
                    "duration": 0.11936033333333285
                },
                {
                    "name": "F#4",
                    "midi": 66,
                    "time": 91.430015333333,
                    "velocity": 0.3228346456692913,
                    "duration": 0.11936033333333285
                },
                {
                    "name": "G#4",
                    "midi": 68,
                    "time": 91.54937566666634,
                    "velocity": 0.3228346456692913,
                    "duration": 0.11936033333333285
                },
                {
                    "name": "A4",
                    "midi": 69,
                    "time": 91.66873599999967,
                    "velocity": 0.3937007874015748,
                    "duration": 0.35808099999999854
                },
                {
                    "name": "B3",
                    "midi": 59,
                    "time": 92.02681699999967,
                    "velocity": 0.33070866141732286,
                    "duration": 0.11936033333333285
                },
                {
                    "name": "C#4",
                    "midi": 61,
                    "time": 92.146177333333,
                    "velocity": 0.2992125984251969,
                    "duration": 0.11936033333333285
                },
                {
                    "name": "D#4",
                    "midi": 63,
                    "time": 92.26553766666633,
                    "velocity": 0.2992125984251969,
                    "duration": 0.11936033333333285
                },
                {
                    "name": "E4",
                    "midi": 64,
                    "time": 92.38489799999967,
                    "velocity": 0.3543307086614173,
                    "duration": 0.11936033333333285
                },
                {
                    "name": "F#4",
                    "midi": 66,
                    "time": 92.504258333333,
                    "velocity": 0.31496062992125984,
                    "duration": 0.11936033333333285
                },
                {
                    "name": "G#4",
                    "midi": 68,
                    "time": 92.62361866666633,
                    "velocity": 0.31496062992125984,
                    "duration": 0.11936033333333285
                },
                {
                    "name": "A4",
                    "midi": 69,
                    "time": 92.74297899999966,
                    "velocity": 0.3858267716535433,
                    "duration": 0.35808099999999854
                },
                {
                    "name": "B3",
                    "midi": 59,
                    "time": 93.10105999999966,
                    "velocity": 0.33070866141732286,
                    "duration": 0.11936033333333285
                },
                {
                    "name": "C#4",
                    "midi": 61,
                    "time": 93.220420333333,
                    "velocity": 0.30708661417322836,
                    "duration": 0.11936033333333285
                },
                {
                    "name": "D#4",
                    "midi": 63,
                    "time": 93.33978066666633,
                    "velocity": 0.30708661417322836,
                    "duration": 0.11936033333333285
                },
                {
                    "name": "E4",
                    "midi": 64,
                    "time": 93.45914099999966,
                    "velocity": 0.3543307086614173,
                    "duration": 0.11936033333333285
                },
                {
                    "name": "F#4",
                    "midi": 66,
                    "time": 93.578501333333,
                    "velocity": 0.30708661417322836,
                    "duration": 0.11936033333333285
                },
                {
                    "name": "G#4",
                    "midi": 68,
                    "time": 93.69786166666633,
                    "velocity": 0.31496062992125984,
                    "duration": 0.11936033333333285
                },
                {
                    "name": "F#4",
                    "midi": 66,
                    "time": 93.81722199999966,
                    "velocity": 0.4094488188976378,
                    "duration": 0.11936033333333285
                },
                {
                    "name": "G#4",
                    "midi": 68,
                    "time": 93.93658233333299,
                    "velocity": 0.36220472440944884,
                    "duration": 0.11936033333333285
                },
                {
                    "name": "A4",
                    "midi": 69,
                    "time": 94.05594266666633,
                    "velocity": 0.3700787401574803,
                    "duration": 0.11936033333333285
                },
                {
                    "name": "G#4",
                    "midi": 68,
                    "time": 94.17530299999966,
                    "velocity": 0.44881889763779526,
                    "duration": 0.11936033333333285
                },
                {
                    "name": "A4",
                    "midi": 69,
                    "time": 94.29466333333299,
                    "velocity": 0.4094488188976378,
                    "duration": 0.11936033333333285
                },
                {
                    "name": "B4",
                    "midi": 71,
                    "time": 94.41402366666632,
                    "velocity": 0.4251968503937008,
                    "duration": 0.11936033333333285
                },
                {
                    "name": "A4",
                    "midi": 69,
                    "time": 94.53338399999966,
                    "velocity": 0.4881889763779528,
                    "duration": 0.11936033333333285
                },
                {
                    "name": "B4",
                    "midi": 71,
                    "time": 94.65274433333299,
                    "velocity": 0.4330708661417323,
                    "duration": 0.11936033333333285
                },
                {
                    "name": "C5",
                    "midi": 72,
                    "time": 94.77210466666632,
                    "velocity": 0.4645669291338583,
                    "duration": 0.11936033333333285
                },
                {
                    "name": "B4",
                    "midi": 71,
                    "time": 94.89146499999966,
                    "velocity": 0.5433070866141733,
                    "duration": 0.11936033333333285
                },
                {
                    "name": "C5",
                    "midi": 72,
                    "time": 95.01082533333299,
                    "velocity": 0.4645669291338583,
                    "duration": 0.11936033333333285
                },
                {
                    "name": "D5",
                    "midi": 74,
                    "time": 95.13018566666632,
                    "velocity": 0.5118110236220472,
                    "duration": 0.11936033333333285
                },
                {
                    "name": "C5",
                    "midi": 72,
                    "time": 95.24954599999965,
                    "velocity": 0.5984251968503937,
                    "duration": 0.11936033333333285
                },
                {
                    "name": "D5",
                    "midi": 74,
                    "time": 95.36890633333299,
                    "velocity": 0.5196850393700787,
                    "duration": 0.11936033333333285
                },
                {
                    "name": "E5",
                    "midi": 76,
                    "time": 95.48826666666632,
                    "velocity": 0.5748031496062992,
                    "duration": 0.11936033333333285
                },
                {
                    "name": "F5",
                    "midi": 77,
                    "time": 95.60762699999965,
                    "velocity": 0.7086614173228346,
                    "duration": 0.11936033333333285
                },
                {
                    "name": "E5",
                    "midi": 76,
                    "time": 95.72698733333299,
                    "velocity": 0.6062992125984252,
                    "duration": 0.11936033333333285
                },
                {
                    "name": "D5",
                    "midi": 74,
                    "time": 95.84634766666632,
                    "velocity": 0.6220472440944882,
                    "duration": 0.11936033333333285
                },
                {
                    "name": "B5",
                    "midi": 83,
                    "time": 95.96570799999965,
                    "velocity": 0.6929133858267716,
                    "duration": 0.17904049999999927
                },
                {
                    "name": "F5",
                    "midi": 77,
                    "time": 95.96570799999965,
                    "velocity": 0.6929133858267716,
                    "duration": 0.11936033333333285
                },
                {
                    "name": "E5",
                    "midi": 76,
                    "time": 96.08506833333298,
                    "velocity": 0.6220472440944882,
                    "duration": 0.11936033333333285
                },
                {
                    "name": "D5",
                    "midi": 74,
                    "time": 96.20442866666632,
                    "velocity": 0.6220472440944882,
                    "duration": 0.11936033333333285
                },
                {
                    "name": "F5",
                    "midi": 77,
                    "time": 96.32378899999965,
                    "velocity": 0.7244094488188977,
                    "duration": 0.11936033333333285
                },
                {
                    "name": "B5",
                    "midi": 83,
                    "time": 96.32378899999965,
                    "velocity": 0.7244094488188977,
                    "duration": 0.17904049999999927
                },
                {
                    "name": "E5",
                    "midi": 76,
                    "time": 96.44314933333298,
                    "velocity": 0.6299212598425197,
                    "duration": 0.11936033333333285
                },
                {
                    "name": "D5",
                    "midi": 74,
                    "time": 96.56250966666632,
                    "velocity": 0.6299212598425197,
                    "duration": 0.11936033333333285
                },
                {
                    "name": "B5",
                    "midi": 83,
                    "time": 96.68186999999965,
                    "velocity": 0.7322834645669292,
                    "duration": 0.17904049999999927
                },
                {
                    "name": "F5",
                    "midi": 77,
                    "time": 96.68186999999965,
                    "velocity": 0.7322834645669292,
                    "duration": 0.11936033333333285
                },
                {
                    "name": "E5",
                    "midi": 76,
                    "time": 96.80123033333298,
                    "velocity": 0.6614173228346457,
                    "duration": 0.11936033333333285
                },
                {
                    "name": "D5",
                    "midi": 74,
                    "time": 96.92059066666631,
                    "velocity": 0.6771653543307087,
                    "duration": 0.11936033333333285
                },
                {
                    "name": "F5",
                    "midi": 77,
                    "time": 97.03995099999965,
                    "velocity": 0.7637795275590551,
                    "duration": 0.11936033333333285
                },
                {
                    "name": "B5",
                    "midi": 83,
                    "time": 97.03995099999965,
                    "velocity": 0.7637795275590551,
                    "duration": 0.17904049999999927
                },
                {
                    "name": "E5",
                    "midi": 76,
                    "time": 97.15931133333298,
                    "velocity": 0.6771653543307087,
                    "duration": 0.11936033333333285
                },
                {
                    "name": "D5",
                    "midi": 74,
                    "time": 97.27867166666631,
                    "velocity": 0.6850393700787402,
                    "duration": 0.11936033333333285
                },
                {
                    "name": "B5",
                    "midi": 83,
                    "time": 97.39803199999965,
                    "velocity": 0.7874015748031497,
                    "duration": 0.17904049999999927
                },
                {
                    "name": "F5",
                    "midi": 77,
                    "time": 97.39803199999965,
                    "velocity": 0.7874015748031497,
                    "duration": 0.11936033333333285
                },
                {
                    "name": "E5",
                    "midi": 76,
                    "time": 97.51739233333298,
                    "velocity": 0.6929133858267716,
                    "duration": 0.11936033333333285
                },
                {
                    "name": "D5",
                    "midi": 74,
                    "time": 97.63675266666631,
                    "velocity": 0.7165354330708661,
                    "duration": 0.11936033333333285
                },
                {
                    "name": "F5",
                    "midi": 77,
                    "time": 97.75611299999964,
                    "velocity": 0.8346456692913385,
                    "duration": 0.11936033333333285
                },
                {
                    "name": "B5",
                    "midi": 83,
                    "time": 97.75611299999964,
                    "velocity": 0.8346456692913385,
                    "duration": 0.17904049999999927
                },
                {
                    "name": "D#5",
                    "midi": 75,
                    "time": 97.87547333333298,
                    "velocity": 0.6220472440944882,
                    "duration": 0.11936033333333285
                },
                {
                    "name": "D5",
                    "midi": 74,
                    "time": 97.99483366666631,
                    "velocity": 0.5275590551181102,
                    "duration": 0.11936033333333285
                },
                {
                    "name": "F5",
                    "midi": 77,
                    "time": 98.11419399999964,
                    "velocity": 0.5905511811023622,
                    "duration": 0.11936033333333285
                },
                {
                    "name": "B5",
                    "midi": 83,
                    "time": 98.11419399999964,
                    "velocity": 0.5905511811023622,
                    "duration": 0.17904049999999927
                },
                {
                    "name": "D#5",
                    "midi": 75,
                    "time": 98.23355433333298,
                    "velocity": 0.5039370078740157,
                    "duration": 0.11936033333333285
                },
                {
                    "name": "D5",
                    "midi": 74,
                    "time": 98.35291466666631,
                    "velocity": 0.44881889763779526,
                    "duration": 0.11936033333333285
                },
                {
                    "name": "F5",
                    "midi": 77,
                    "time": 98.47227499999964,
                    "velocity": 0.49606299212598426,
                    "duration": 0.11936033333333285
                },
                {
                    "name": "B5",
                    "midi": 83,
                    "time": 98.47227499999964,
                    "velocity": 0.49606299212598426,
                    "duration": 0.17904049999999927
                },
                {
                    "name": "D#5",
                    "midi": 75,
                    "time": 98.59163533333297,
                    "velocity": 0.4409448818897638,
                    "duration": 0.11936033333333285
                },
                {
                    "name": "D5",
                    "midi": 74,
                    "time": 98.7109956666663,
                    "velocity": 0.3858267716535433,
                    "duration": 0.11936033333333285
                },
                {
                    "name": "G#5",
                    "midi": 80,
                    "time": 98.83035599999964,
                    "velocity": 0.48031496062992124,
                    "duration": 0.11936033333333285
                },
                {
                    "name": "G5",
                    "midi": 79,
                    "time": 98.94971633333297,
                    "velocity": 0.4251968503937008,
                    "duration": 0.11936033333333285
                },
                {
                    "name": "F5",
                    "midi": 77,
                    "time": 99.0690766666663,
                    "velocity": 0.3937007874015748,
                    "duration": 0.11936033333333285
                },
                {
                    "name": "G5",
                    "midi": 79,
                    "time": 99.18843699999964,
                    "velocity": 0.4409448818897638,
                    "duration": 0.11936033333333285
                },
                {
                    "name": "F5",
                    "midi": 77,
                    "time": 99.30779733333297,
                    "velocity": 0.36220472440944884,
                    "duration": 0.11936033333333285
                },
                {
                    "name": "D#5",
                    "midi": 75,
                    "time": 99.4271576666663,
                    "velocity": 0.36220472440944884,
                    "duration": 0.11936033333333285
                },
                {
                    "name": "F5",
                    "midi": 77,
                    "time": 99.54651799999964,
                    "velocity": 0.4330708661417323,
                    "duration": 0.11936033333333285
                },
                {
                    "name": "D#5",
                    "midi": 75,
                    "time": 99.66587833333297,
                    "velocity": 0.3543307086614173,
                    "duration": 0.11936033333333285
                },
                {
                    "name": "D5",
                    "midi": 74,
                    "time": 99.7852386666663,
                    "velocity": 0.3543307086614173,
                    "duration": 0.11936033333333285
                },
                {
                    "name": "C5",
                    "midi": 72,
                    "time": 99.90459899999964,
                    "velocity": 0.3937007874015748,
                    "duration": 0.11936033333333285
                },
                {
                    "name": "D5",
                    "midi": 74,
                    "time": 100.02395933333297,
                    "velocity": 0.36220472440944884,
                    "duration": 0.11936033333333285
                },
                {
                    "name": "D#5",
                    "midi": 75,
                    "time": 100.1433196666663,
                    "velocity": 0.36220472440944884,
                    "duration": 0.11936033333333285
                },
                {
                    "name": "D5",
                    "midi": 74,
                    "time": 100.26267999999963,
                    "velocity": 0.3937007874015748,
                    "duration": 0.11936033333333285
                },
                {
                    "name": "D#5",
                    "midi": 75,
                    "time": 100.38204033333297,
                    "velocity": 0.36220472440944884,
                    "duration": 0.11936033333333285
                },
                {
                    "name": "F5",
                    "midi": 77,
                    "time": 100.5014006666663,
                    "velocity": 0.36220472440944884,
                    "duration": 0.11936033333333285
                },
                {
                    "name": "G5",
                    "midi": 79,
                    "time": 100.62076099999963,
                    "velocity": 0.5118110236220472,
                    "duration": 0.35808099999999854
                },
                {
                    "name": "C5",
                    "midi": 72,
                    "time": 100.97884199999963,
                    "velocity": 0.3937007874015748,
                    "duration": 0.11936033333333285
                },
                {
                    "name": "D5",
                    "midi": 74,
                    "time": 101.09820233333296,
                    "velocity": 0.3543307086614173,
                    "duration": 0.11936033333333285
                },
                {
                    "name": "D#5",
                    "midi": 75,
                    "time": 101.2175626666663,
                    "velocity": 0.3543307086614173,
                    "duration": 0.11936033333333285
                },
                {
                    "name": "D5",
                    "midi": 74,
                    "time": 101.33692299999963,
                    "velocity": 0.5511811023622047,
                    "duration": 0.35808099999999854
                },
                {
                    "name": "D#5",
                    "midi": 75,
                    "time": 101.45628333333296,
                    "velocity": 0.3464566929133858,
                    "duration": 0.11936033333333285
                },
                {
                    "name": "F5",
                    "midi": 77,
                    "time": 101.5756436666663,
                    "velocity": 0.3464566929133858,
                    "duration": 0.11936033333333285
                },
                {
                    "name": "G5",
                    "midi": 79,
                    "time": 101.69500399999963,
                    "velocity": 0.5118110236220472,
                    "duration": 0.35808099999999854
                },
                {
                    "name": "C5",
                    "midi": 72,
                    "time": 102.05308499999963,
                    "velocity": 0.3937007874015748,
                    "duration": 0.11936033333333285
                },
                {
                    "name": "D5",
                    "midi": 74,
                    "time": 102.17244533333296,
                    "velocity": 0.3543307086614173,
                    "duration": 0.11936033333333285
                },
                {
                    "name": "D#5",
                    "midi": 75,
                    "time": 102.29180566666629,
                    "velocity": 0.3543307086614173,
                    "duration": 0.11936033333333285
                },
                {
                    "name": "D5",
                    "midi": 74,
                    "time": 102.41116599999962,
                    "velocity": 0.5196850393700787,
                    "duration": 0.35808099999999854
                },
                {
                    "name": "D#5",
                    "midi": 75,
                    "time": 102.53052633333296,
                    "velocity": 0.3543307086614173,
                    "duration": 0.11936033333333285
                },
                {
                    "name": "F5",
                    "midi": 77,
                    "time": 102.64988666666629,
                    "velocity": 0.3543307086614173,
                    "duration": 0.11936033333333285
                },
                {
                    "name": "D#5",
                    "midi": 75,
                    "time": 102.76924699999962,
                    "velocity": 0.3937007874015748,
                    "duration": 0.11936033333333285
                },
                {
                    "name": "F5",
                    "midi": 77,
                    "time": 102.88860733333296,
                    "velocity": 0.3779527559055118,
                    "duration": 0.11936033333333285
                },
                {
                    "name": "G5",
                    "midi": 79,
                    "time": 103.00796766666629,
                    "velocity": 0.3937007874015748,
                    "duration": 0.11936033333333285
                },
                {
                    "name": "G#5",
                    "midi": 80,
                    "time": 103.12732799999962,
                    "velocity": 0.3937007874015748,
                    "duration": 0.11936033333333285
                },
                {
                    "name": "A#5",
                    "midi": 82,
                    "time": 103.24668833333295,
                    "velocity": 0.4251968503937008,
                    "duration": 0.11936033333333285
                },
                {
                    "name": "C6",
                    "midi": 84,
                    "time": 103.36604866666629,
                    "velocity": 0.4566929133858268,
                    "duration": 0.11936033333333285
                },
                {
                    "name": "A#5",
                    "midi": 82,
                    "time": 103.48540899999962,
                    "velocity": 0.48031496062992124,
                    "duration": 0.11936033333333285
                },
                {
                    "name": "G#5",
                    "midi": 80,
                    "time": 103.60476933333295,
                    "velocity": 0.4409448818897638,
                    "duration": 0.11936033333333285
                },
                {
                    "name": "G5",
                    "midi": 79,
                    "time": 103.72412966666629,
                    "velocity": 0.41732283464566927,
                    "duration": 0.11936033333333285
                },
                {
                    "name": "F5",
                    "midi": 77,
                    "time": 103.84348999999962,
                    "velocity": 0.4330708661417323,
                    "duration": 0.11936033333333285
                },
                {
                    "name": "D#5",
                    "midi": 75,
                    "time": 103.96285033333295,
                    "velocity": 0.4094488188976378,
                    "duration": 0.11936033333333285
                },
                {
                    "name": "D5",
                    "midi": 74,
                    "time": 104.08221066666628,
                    "velocity": 0.3779527559055118,
                    "duration": 0.11936033333333285
                },
                {
                    "name": "C5",
                    "midi": 72,
                    "time": 104.20157099999962,
                    "velocity": 0.4409448818897638,
                    "duration": 0.11936033333333285
                },
                {
                    "name": "D5",
                    "midi": 74,
                    "time": 104.32093133333295,
                    "velocity": 0.3937007874015748,
                    "duration": 0.11936033333333285
                },
                {
                    "name": "D#5",
                    "midi": 75,
                    "time": 104.44029166666628,
                    "velocity": 0.3937007874015748,
                    "duration": 0.11936033333333285
                },
                {
                    "name": "D5",
                    "midi": 74,
                    "time": 104.55965199999962,
                    "velocity": 0.41732283464566927,
                    "duration": 0.11936033333333285
                },
                {
                    "name": "C5",
                    "midi": 72,
                    "time": 104.67901233333295,
                    "velocity": 0.3779527559055118,
                    "duration": 0.11936033333333285
                },
                {
                    "name": "A#4",
                    "midi": 70,
                    "time": 104.79837266666628,
                    "velocity": 0.3779527559055118,
                    "duration": 0.11936033333333285
                },
                {
                    "name": "G#4",
                    "midi": 68,
                    "time": 104.91773299999961,
                    "velocity": 0.41732283464566927,
                    "duration": 0.11936033333333285
                },
                {
                    "name": "G4",
                    "midi": 67,
                    "time": 105.03709333333295,
                    "velocity": 0.3700787401574803,
                    "duration": 0.11936033333333285
                },
                {
                    "name": "F#4",
                    "midi": 66,
                    "time": 105.15645366666628,
                    "velocity": 0.3700787401574803,
                    "duration": 0.11936033333333285
                },
                {
                    "name": "G4",
                    "midi": 67,
                    "time": 105.27581399999961,
                    "velocity": 0.4251968503937008,
                    "duration": 0.17904049999999927
                },
                {
                    "name": "D4",
                    "midi": 62,
                    "time": 105.99197599999961,
                    "velocity": 0.3937007874015748,
                    "duration": 0.11936033333333285
                },
                {
                    "name": "E4",
                    "midi": 64,
                    "time": 106.11133633333294,
                    "velocity": 0.3543307086614173,
                    "duration": 0.11936033333333285
                },
                {
                    "name": "F#4",
                    "midi": 66,
                    "time": 106.23069666666628,
                    "velocity": 0.3543307086614173,
                    "duration": 0.11936033333333285
                },
                {
                    "name": "G4",
                    "midi": 67,
                    "time": 106.35005699999961,
                    "velocity": 0.4251968503937008,
                    "duration": 0.11936033333333285
                },
                {
                    "name": "A4",
                    "midi": 69,
                    "time": 106.46941733333294,
                    "velocity": 0.3779527559055118,
                    "duration": 0.11936033333333285
                },
                {
                    "name": "B4",
                    "midi": 71,
                    "time": 106.58877766666627,
                    "velocity": 0.3779527559055118,
                    "duration": 0.11936033333333285
                },
                {
                    "name": "C5",
                    "midi": 72,
                    "time": 106.70813799999961,
                    "velocity": 0.4566929133858268,
                    "duration": 0.35808099999999854
                },
                {
                    "name": "D4",
                    "midi": 62,
                    "time": 107.0662189999996,
                    "velocity": 0.3937007874015748,
                    "duration": 0.11936033333333285
                },
                {
                    "name": "E4",
                    "midi": 64,
                    "time": 107.18557933333294,
                    "velocity": 0.36220472440944884,
                    "duration": 0.11936033333333285
                },
                {
                    "name": "F#4",
                    "midi": 66,
                    "time": 107.30493966666627,
                    "velocity": 0.36220472440944884,
                    "duration": 0.11936033333333285
                },
                {
                    "name": "G4",
                    "midi": 67,
                    "time": 107.4242999999996,
                    "velocity": 0.4251968503937008,
                    "duration": 0.11936033333333285
                },
                {
                    "name": "A4",
                    "midi": 69,
                    "time": 107.54366033333294,
                    "velocity": 0.3779527559055118,
                    "duration": 0.11936033333333285
                },
                {
                    "name": "B4",
                    "midi": 71,
                    "time": 107.66302066666627,
                    "velocity": 0.3779527559055118,
                    "duration": 0.11936033333333285
                },
                {
                    "name": "C5",
                    "midi": 72,
                    "time": 107.7823809999996,
                    "velocity": 0.4566929133858268,
                    "duration": 0.35808099999999854
                },
                {
                    "name": "D4",
                    "midi": 62,
                    "time": 108.1404619999996,
                    "velocity": 0.3937007874015748,
                    "duration": 0.11936033333333285
                },
                {
                    "name": "E4",
                    "midi": 64,
                    "time": 108.25982233333293,
                    "velocity": 0.36220472440944884,
                    "duration": 0.11936033333333285
                },
                {
                    "name": "F#4",
                    "midi": 66,
                    "time": 108.37918266666627,
                    "velocity": 0.36220472440944884,
                    "duration": 0.11936033333333285
                },
                {
                    "name": "G4",
                    "midi": 67,
                    "time": 108.4985429999996,
                    "velocity": 0.4251968503937008,
                    "duration": 0.11936033333333285
                },
                {
                    "name": "A4",
                    "midi": 69,
                    "time": 108.61790333333293,
                    "velocity": 0.3700787401574803,
                    "duration": 0.11936033333333285
                },
                {
                    "name": "B4",
                    "midi": 71,
                    "time": 108.73726366666627,
                    "velocity": 0.3700787401574803,
                    "duration": 0.11936033333333285
                },
                {
                    "name": "A4",
                    "midi": 69,
                    "time": 108.8566239999996,
                    "velocity": 0.47244094488188976,
                    "duration": 0.11936033333333285
                },
                {
                    "name": "B4",
                    "midi": 71,
                    "time": 108.97598433333293,
                    "velocity": 0.41732283464566927,
                    "duration": 0.11936033333333285
                },
                {
                    "name": "C5",
                    "midi": 72,
                    "time": 109.09534466666626,
                    "velocity": 0.41732283464566927,
                    "duration": 0.11936033333333285
                },
                {
                    "name": "B4",
                    "midi": 71,
                    "time": 109.2147049999996,
                    "velocity": 0.5039370078740157,
                    "duration": 0.11936033333333285
                },
                {
                    "name": "C5",
                    "midi": 72,
                    "time": 109.33406533333293,
                    "velocity": 0.4566929133858268,
                    "duration": 0.11936033333333285
                },
                {
                    "name": "D5",
                    "midi": 74,
                    "time": 109.45342566666626,
                    "velocity": 0.47244094488188976,
                    "duration": 0.11936033333333285
                },
                {
                    "name": "C5",
                    "midi": 72,
                    "time": 109.5727859999996,
                    "velocity": 0.5354330708661418,
                    "duration": 0.11936033333333285
                },
                {
                    "name": "D5",
                    "midi": 74,
                    "time": 109.69214633333293,
                    "velocity": 0.47244094488188976,
                    "duration": 0.11936033333333285
                },
                {
                    "name": "E5",
                    "midi": 76,
                    "time": 109.81150666666626,
                    "velocity": 0.49606299212598426,
                    "duration": 0.11936033333333285
                },
                {
                    "name": "D5",
                    "midi": 74,
                    "time": 109.9308669999996,
                    "velocity": 0.5748031496062992,
                    "duration": 0.11936033333333285
                },
                {
                    "name": "E5",
                    "midi": 76,
                    "time": 110.05022733333293,
                    "velocity": 0.49606299212598426,
                    "duration": 0.11936033333333285
                },
                {
                    "name": "F5",
                    "midi": 77,
                    "time": 110.16958766666626,
                    "velocity": 0.5354330708661418,
                    "duration": 0.11936033333333285
                },
                {
                    "name": "E5",
                    "midi": 76,
                    "time": 110.28894799999959,
                    "velocity": 0.6220472440944882,
                    "duration": 0.11936033333333285
                },
                {
                    "name": "F5",
                    "midi": 77,
                    "time": 110.40830833333293,
                    "velocity": 0.5354330708661418,
                    "duration": 0.11936033333333285
                },
                {
                    "name": "G5",
                    "midi": 79,
                    "time": 110.52766866666626,
                    "velocity": 0.5826771653543307,
                    "duration": 0.11936033333333285
                },
                {
                    "name": "C4",
                    "midi": 60,
                    "time": 110.64702899999959,
                    "velocity": 0.7637795275590551,
                    "duration": 0.11936033333333285
                },
                {
                    "name": "F4",
                    "midi": 65,
                    "time": 110.76638933333292,
                    "velocity": 0.6062992125984252,
                    "duration": 0.11936033333333285
                },
                {
                    "name": "A4",
                    "midi": 69,
                    "time": 110.88574966666626,
                    "velocity": 0.6141732283464567,
                    "duration": 0.11936033333333285
                },
                {
                    "name": "C5",
                    "midi": 72,
                    "time": 111.00510999999959,
                    "velocity": 0.6692913385826772,
                    "duration": 0.11936033333333285
                },
                {
                    "name": "F5",
                    "midi": 77,
                    "time": 111.12447033333292,
                    "velocity": 0.5826771653543307,
                    "duration": 0.11936033333333285
                },
                {
                    "name": "A5",
                    "midi": 81,
                    "time": 111.24383066666626,
                    "velocity": 0.6062992125984252,
                    "duration": 0.11936033333333285
                },
                {
                    "name": "C6",
                    "midi": 84,
                    "time": 111.36319099999959,
                    "velocity": 0.7165354330708661,
                    "duration": 0.11936033333333285
                },
                {
                    "name": "F6",
                    "midi": 89,
                    "time": 111.48255133333292,
                    "velocity": 0.6220472440944882,
                    "duration": 0.11936033333333285
                },
                {
                    "name": "A6",
                    "midi": 93,
                    "time": 111.60191166666625,
                    "velocity": 0.6220472440944882,
                    "duration": 0.11936033333333285
                },
                {
                    "name": "C7",
                    "midi": 96,
                    "time": 111.72127199999959,
                    "velocity": 0.8503937007874016,
                    "duration": 0.08952025000000674
                },
                {
                    "name": "B4",
                    "midi": 71,
                    "time": 112.0793529999996,
                    "velocity": 0.6220472440944882,
                    "duration": 0.17904049999999927
                },
                {
                    "name": "G5",
                    "midi": 79,
                    "time": 112.0793529999996,
                    "velocity": 0.6220472440944882,
                    "duration": 0.17904049999999927
                },
                {
                    "name": "B5",
                    "midi": 83,
                    "time": 112.0793529999996,
                    "velocity": 0.7322834645669292,
                    "duration": 0.17904049999999927
                },
                {
                    "name": "E5",
                    "midi": 76,
                    "time": 112.0793529999996,
                    "velocity": 0.6220472440944882,
                    "duration": 0.17904049999999927
                },
                {
                    "name": "D#5",
                    "midi": 75,
                    "time": 112.4374339999996,
                    "velocity": 0.5826771653543307,
                    "duration": 0.17904049999999927
                },
                {
                    "name": "B5",
                    "midi": 83,
                    "time": 112.4374339999996,
                    "velocity": 0.6929133858267716,
                    "duration": 0.17904049999999927
                },
                {
                    "name": "B4",
                    "midi": 71,
                    "time": 112.4374339999996,
                    "velocity": 0.5826771653543307,
                    "duration": 0.17904049999999927
                },
                {
                    "name": "F#5",
                    "midi": 78,
                    "time": 112.4374339999996,
                    "velocity": 0.5826771653543307,
                    "duration": 0.17904049999999927
                },
                {
                    "name": "E5",
                    "midi": 76,
                    "time": 112.7955149999996,
                    "velocity": 0.5275590551181102,
                    "duration": 0.11936033333333285
                },
                {
                    "name": "F#5",
                    "midi": 78,
                    "time": 112.91487533333293,
                    "velocity": 0.4409448818897638,
                    "duration": 0.11936033333333285
                },
                {
                    "name": "G5",
                    "midi": 79,
                    "time": 113.03423566666626,
                    "velocity": 0.4409448818897638,
                    "duration": 0.11936033333333285
                },
                {
                    "name": "A5",
                    "midi": 81,
                    "time": 113.1535959999996,
                    "velocity": 0.5118110236220472,
                    "duration": 0.35808099999999854
                },
                {
                    "name": "B4",
                    "midi": 71,
                    "time": 113.5116769999996,
                    "velocity": 0.5196850393700787,
                    "duration": 0.11936033333333285
                },
                {
                    "name": "C#5",
                    "midi": 73,
                    "time": 113.63103733333293,
                    "velocity": 0.4251968503937008,
                    "duration": 0.11936033333333285
                },
                {
                    "name": "D#5",
                    "midi": 75,
                    "time": 113.75039766666626,
                    "velocity": 0.41732283464566927,
                    "duration": 0.11936033333333285
                },
                {
                    "name": "E5",
                    "midi": 76,
                    "time": 113.86975799999959,
                    "velocity": 0.5039370078740157,
                    "duration": 0.11936033333333285
                },
                {
                    "name": "F#5",
                    "midi": 78,
                    "time": 113.98911833333293,
                    "velocity": 0.4330708661417323,
                    "duration": 0.11936033333333285
                },
                {
                    "name": "G5",
                    "midi": 79,
                    "time": 114.10847866666626,
                    "velocity": 0.4330708661417323,
                    "duration": 0.11936033333333285
                },
                {
                    "name": "A5",
                    "midi": 81,
                    "time": 114.22783899999959,
                    "velocity": 0.5118110236220472,
                    "duration": 0.35808099999999854
                },
                {
                    "name": "B4",
                    "midi": 71,
                    "time": 114.58591999999959,
                    "velocity": 0.5039370078740157,
                    "duration": 0.11936033333333285
                },
                {
                    "name": "C#5",
                    "midi": 73,
                    "time": 114.70528033333292,
                    "velocity": 0.4566929133858268,
                    "duration": 0.11936033333333285
                },
                {
                    "name": "D#5",
                    "midi": 75,
                    "time": 114.82464066666626,
                    "velocity": 0.4566929133858268,
                    "duration": 0.11936033333333285
                },
                {
                    "name": "E5",
                    "midi": 76,
                    "time": 114.94400099999959,
                    "velocity": 0.5354330708661418,
                    "duration": 0.11936033333333285
                },
                {
                    "name": "F#5",
                    "midi": 78,
                    "time": 115.06336133333292,
                    "velocity": 0.47244094488188976,
                    "duration": 0.11936033333333285
                },
                {
                    "name": "G5",
                    "midi": 79,
                    "time": 115.18272166666625,
                    "velocity": 0.49606299212598426,
                    "duration": 0.11936033333333285
                },
                {
                    "name": "F#5",
                    "midi": 78,
                    "time": 115.30208199999959,
                    "velocity": 0.5748031496062992,
                    "duration": 0.11936033333333285
                },
                {
                    "name": "G5",
                    "midi": 79,
                    "time": 115.42144233333292,
                    "velocity": 0.49606299212598426,
                    "duration": 0.11936033333333285
                },
                {
                    "name": "A5",
                    "midi": 81,
                    "time": 115.54080266666625,
                    "velocity": 0.5354330708661418,
                    "duration": 0.11936033333333285
                },
                {
                    "name": "G5",
                    "midi": 79,
                    "time": 115.66016299999959,
                    "velocity": 0.6220472440944882,
                    "duration": 0.11936033333333285
                },
                {
                    "name": "A5",
                    "midi": 81,
                    "time": 115.77952333333292,
                    "velocity": 0.5354330708661418,
                    "duration": 0.11936033333333285
                },
                {
                    "name": "B5",
                    "midi": 83,
                    "time": 115.89888366666625,
                    "velocity": 0.5826771653543307,
                    "duration": 0.11936033333333285
                },
                {
                    "name": "C4",
                    "midi": 60,
                    "time": 116.01824399999958,
                    "velocity": 0.7637795275590551,
                    "duration": 0.11936033333333285
                },
                {
                    "name": "F4",
                    "midi": 65,
                    "time": 116.13760433333292,
                    "velocity": 0.6062992125984252,
                    "duration": 0.11936033333333285
                },
                {
                    "name": "A4",
                    "midi": 69,
                    "time": 116.25696466666625,
                    "velocity": 0.6062992125984252,
                    "duration": 0.11936033333333285
                },
                {
                    "name": "C5",
                    "midi": 72,
                    "time": 116.37632499999958,
                    "velocity": 0.7165354330708661,
                    "duration": 0.11936033333333285
                },
                {
                    "name": "F5",
                    "midi": 77,
                    "time": 116.49568533333291,
                    "velocity": 0.6141732283464567,
                    "duration": 0.11936033333333285
                },
                {
                    "name": "A5",
                    "midi": 81,
                    "time": 116.61504566666625,
                    "velocity": 0.6141732283464567,
                    "duration": 0.11936033333333285
                },
                {
                    "name": "C6",
                    "midi": 84,
                    "time": 116.73440599999958,
                    "velocity": 0.7559055118110236,
                    "duration": 0.11936033333333285
                },
                {
                    "name": "F6",
                    "midi": 89,
                    "time": 116.85376633333291,
                    "velocity": 0.6220472440944882,
                    "duration": 0.11936033333333285
                },
                {
                    "name": "A6",
                    "midi": 93,
                    "time": 116.97312666666625,
                    "velocity": 0.6220472440944882,
                    "duration": 0.11936033333333285
                },
                {
                    "name": "C7",
                    "midi": 96,
                    "time": 117.09248699999958,
                    "velocity": 0.7874015748031497,
                    "duration": 0.08952025000000674
                },
                {
                    "name": "G5",
                    "midi": 79,
                    "time": 117.45056799999959,
                    "velocity": 0.6220472440944882,
                    "duration": 0.17904049999999927
                },
                {
                    "name": "B5",
                    "midi": 83,
                    "time": 117.45056799999959,
                    "velocity": 0.7322834645669292,
                    "duration": 0.17904049999999927
                },
                {
                    "name": "E5",
                    "midi": 76,
                    "time": 117.45056799999959,
                    "velocity": 0.6220472440944882,
                    "duration": 0.17904049999999927
                },
                {
                    "name": "B4",
                    "midi": 71,
                    "time": 117.45056799999959,
                    "velocity": 0.6220472440944882,
                    "duration": 0.17904049999999927
                },
                {
                    "name": "B4",
                    "midi": 71,
                    "time": 117.80864899999959,
                    "velocity": 0.5826771653543307,
                    "duration": 0.17904049999999927
                },
                {
                    "name": "F#5",
                    "midi": 78,
                    "time": 117.80864899999959,
                    "velocity": 0.5826771653543307,
                    "duration": 0.17904049999999927
                },
                {
                    "name": "D#5",
                    "midi": 75,
                    "time": 117.80864899999959,
                    "velocity": 0.5826771653543307,
                    "duration": 0.17904049999999927
                },
                {
                    "name": "B5",
                    "midi": 83,
                    "time": 117.80864899999959,
                    "velocity": 0.6929133858267716,
                    "duration": 0.17904049999999927
                },
                {
                    "name": "B5",
                    "midi": 83,
                    "time": 118.16672999999959,
                    "velocity": 0.6929133858267716,
                    "duration": 0.8952024999999963
                },
                {
                    "name": "E6",
                    "midi": 88,
                    "time": 118.16672999999959,
                    "velocity": 0.8188976377952756,
                    "duration": 0.8952024999999963
                },
                {
                    "name": "G5",
                    "midi": 79,
                    "time": 118.16672999999959,
                    "velocity": 0.6929133858267716,
                    "duration": 0.8952024999999963
                },
                {
                    "name": "E5",
                    "midi": 76,
                    "time": 118.16672999999959,
                    "velocity": 0.6929133858267716,
                    "duration": 0.8952024999999963
                },
                {
                    "name": "D#5",
                    "midi": 75,
                    "time": 119.24097299999958,
                    "velocity": 0.5826771653543307,
                    "duration": 0.0671401875000015
                },
                {
                    "name": "B5",
                    "midi": 83,
                    "time": 119.24097299999958,
                    "velocity": 0.6929133858267716,
                    "duration": 0.0671401875000015
                },
                {
                    "name": "A#5",
                    "midi": 82,
                    "time": 119.42001349999958,
                    "velocity": 0.5905511811023622,
                    "duration": 0.0671401875000015
                },
                {
                    "name": "E5",
                    "midi": 76,
                    "time": 119.42001349999958,
                    "velocity": 0.49606299212598426,
                    "duration": 0.0671401875000015
                },
                {
                    "name": "B5",
                    "midi": 83,
                    "time": 119.59905399999958,
                    "velocity": 0.6614173228346457,
                    "duration": 0.0671401875000015
                },
                {
                    "name": "D#5",
                    "midi": 75,
                    "time": 119.59905399999958,
                    "velocity": 0.5590551181102362,
                    "duration": 0.0671401875000015
                },
                {
                    "name": "A#5",
                    "midi": 82,
                    "time": 119.77809449999958,
                    "velocity": 0.5905511811023622,
                    "duration": 0.0671401875000015
                },
                {
                    "name": "E5",
                    "midi": 76,
                    "time": 119.77809449999958,
                    "velocity": 0.49606299212598426,
                    "duration": 0.0671401875000015
                },
                {
                    "name": "D#5",
                    "midi": 75,
                    "time": 119.95713499999958,
                    "velocity": 0.5669291338582677,
                    "duration": 0.0671401875000015
                },
                {
                    "name": "B5",
                    "midi": 83,
                    "time": 119.95713499999958,
                    "velocity": 0.6692913385826772,
                    "duration": 0.0671401875000015
                },
                {
                    "name": "D5",
                    "midi": 74,
                    "time": 120.31521599999958,
                    "velocity": 0.6929133858267716,
                    "duration": 0.8952024999999963
                },
                {
                    "name": "D6",
                    "midi": 86,
                    "time": 120.31521599999958,
                    "velocity": 0.8188976377952756,
                    "duration": 0.8952024999999963
                },
                {
                    "name": "F#5",
                    "midi": 78,
                    "time": 120.31521599999958,
                    "velocity": 0.6929133858267716,
                    "duration": 0.8952024999999963
                },
                {
                    "name": "A5",
                    "midi": 81,
                    "time": 120.31521599999958,
                    "velocity": 0.6929133858267716,
                    "duration": 0.8952024999999963
                },
                {
                    "name": "C#5",
                    "midi": 73,
                    "time": 121.38945899999958,
                    "velocity": 0.5826771653543307,
                    "duration": 0.0671401875000015
                },
                {
                    "name": "A5",
                    "midi": 81,
                    "time": 121.38945899999958,
                    "velocity": 0.6929133858267716,
                    "duration": 0.0671401875000015
                },
                {
                    "name": "D5",
                    "midi": 74,
                    "time": 121.56849949999958,
                    "velocity": 0.5039370078740157,
                    "duration": 0.0671401875000015
                },
                {
                    "name": "G#5",
                    "midi": 80,
                    "time": 121.56849949999958,
                    "velocity": 0.5984251968503937,
                    "duration": 0.0671401875000015
                },
                {
                    "name": "A5",
                    "midi": 81,
                    "time": 121.74753999999957,
                    "velocity": 0.6535433070866141,
                    "duration": 0.0671401875000015
                },
                {
                    "name": "C#5",
                    "midi": 73,
                    "time": 121.74753999999957,
                    "velocity": 0.5511811023622047,
                    "duration": 0.0671401875000015
                },
                {
                    "name": "D5",
                    "midi": 74,
                    "time": 121.92658049999957,
                    "velocity": 0.49606299212598426,
                    "duration": 0.0671401875000015
                },
                {
                    "name": "G#5",
                    "midi": 80,
                    "time": 121.92658049999957,
                    "velocity": 0.5905511811023622,
                    "duration": 0.0671401875000015
                },
                {
                    "name": "A5",
                    "midi": 81,
                    "time": 122.10562099999957,
                    "velocity": 0.6850393700787402,
                    "duration": 0.0671401875000015
                },
                {
                    "name": "C#5",
                    "midi": 73,
                    "time": 122.10562099999957,
                    "velocity": 0.5748031496062992,
                    "duration": 0.0671401875000015
                },
                {
                    "name": "F#5",
                    "midi": 78,
                    "time": 122.46370199999957,
                    "velocity": 0.6535433070866141,
                    "duration": 0.7161619999999971
                },
                {
                    "name": "A5",
                    "midi": 81,
                    "time": 122.46370199999957,
                    "velocity": 0.6535433070866141,
                    "duration": 0.7161619999999971
                },
                {
                    "name": "C5",
                    "midi": 72,
                    "time": 122.46370199999957,
                    "velocity": 0.6535433070866141,
                    "duration": 0.7161619999999971
                },
                {
                    "name": "C6",
                    "midi": 84,
                    "time": 122.46370199999957,
                    "velocity": 0.7716535433070866,
                    "duration": 0.7161619999999971
                },
                {
                    "name": "B4",
                    "midi": 71,
                    "time": 123.17986399999957,
                    "velocity": 0.5984251968503937,
                    "duration": 0.17904049999999927
                },
                {
                    "name": "B5",
                    "midi": 83,
                    "time": 123.17986399999957,
                    "velocity": 0.7086614173228346,
                    "duration": 0.17904049999999927
                },
                {
                    "name": "G5",
                    "midi": 79,
                    "time": 123.17986399999957,
                    "velocity": 0.5984251968503937,
                    "duration": 0.17904049999999927
                },
                {
                    "name": "E5",
                    "midi": 76,
                    "time": 123.17986399999957,
                    "velocity": 0.5984251968503937,
                    "duration": 0.17904049999999927
                },
                {
                    "name": "A4",
                    "midi": 69,
                    "time": 123.53794499999957,
                    "velocity": 0.5984251968503937,
                    "duration": 0.17904049999999927
                },
                {
                    "name": "F5",
                    "midi": 77,
                    "time": 123.53794499999957,
                    "velocity": 0.5984251968503937,
                    "duration": 0.17904049999999927
                },
                {
                    "name": "C5",
                    "midi": 72,
                    "time": 123.53794499999957,
                    "velocity": 0.5984251968503937,
                    "duration": 0.17904049999999927
                },
                {
                    "name": "A5",
                    "midi": 81,
                    "time": 123.53794499999957,
                    "velocity": 0.7086614173228346,
                    "duration": 0.17904049999999927
                },
                {
                    "name": "C5",
                    "midi": 72,
                    "time": 123.89602599999957,
                    "velocity": 0.6299212598425197,
                    "duration": 0.17904049999999927
                },
                {
                    "name": "C6",
                    "midi": 84,
                    "time": 123.89602599999957,
                    "velocity": 0.7480314960629921,
                    "duration": 0.17904049999999927
                },
                {
                    "name": "D#5",
                    "midi": 75,
                    "time": 123.89602599999957,
                    "velocity": 0.6299212598425197,
                    "duration": 0.17904049999999927
                },
                {
                    "name": "A5",
                    "midi": 81,
                    "time": 123.89602599999957,
                    "velocity": 0.6299212598425197,
                    "duration": 0.17904049999999927
                },
                {
                    "name": "G5",
                    "midi": 79,
                    "time": 124.25410699999956,
                    "velocity": 0.6062992125984252,
                    "duration": 0.17904049999999927
                },
                {
                    "name": "B4",
                    "midi": 71,
                    "time": 124.25410699999956,
                    "velocity": 0.6062992125984252,
                    "duration": 0.17904049999999927
                },
                {
                    "name": "E5",
                    "midi": 76,
                    "time": 124.25410699999956,
                    "velocity": 0.6062992125984252,
                    "duration": 0.17904049999999927
                },
                {
                    "name": "B5",
                    "midi": 83,
                    "time": 124.25410699999956,
                    "velocity": 0.7165354330708661,
                    "duration": 0.17904049999999927
                },
                {
                    "name": "A5",
                    "midi": 81,
                    "time": 124.61218799999956,
                    "velocity": 0.7401574803149606,
                    "duration": 0.17904049999999927
                },
                {
                    "name": "F#5",
                    "midi": 78,
                    "time": 124.61218799999956,
                    "velocity": 0.6220472440944882,
                    "duration": 0.17904049999999927
                },
                {
                    "name": "C5",
                    "midi": 72,
                    "time": 124.61218799999956,
                    "velocity": 0.6220472440944882,
                    "duration": 0.17904049999999927
                },
                {
                    "name": "B4",
                    "midi": 71,
                    "time": 124.97026899999956,
                    "velocity": 0.5984251968503937,
                    "duration": 0.17904049999999927
                },
                {
                    "name": "E5",
                    "midi": 76,
                    "time": 124.97026899999956,
                    "velocity": 0.5984251968503937,
                    "duration": 0.17904049999999927
                },
                {
                    "name": "G5",
                    "midi": 79,
                    "time": 124.97026899999956,
                    "velocity": 0.7086614173228346,
                    "duration": 0.17904049999999927
                },
                {
                    "name": "B4",
                    "midi": 71,
                    "time": 125.32834999999956,
                    "velocity": 0.5984251968503937,
                    "duration": 0.17904049999999927
                },
                {
                    "name": "D#5",
                    "midi": 75,
                    "time": 125.32834999999956,
                    "velocity": 0.7086614173228346,
                    "duration": 0.17904049999999927
                },
                {
                    "name": "F#5",
                    "midi": 78,
                    "time": 125.32834999999956,
                    "velocity": 0.7086614173228346,
                    "duration": 0.17904049999999927
                },
                {
                    "name": "E4",
                    "midi": 64,
                    "time": 125.68643099999956,
                    "velocity": 0.7007874015748031,
                    "duration": 1.0742430000000667
                },
                {
                    "name": "F#4",
                    "midi": 66,
                    "time": 125.86547149999956,
                    "velocity": 0.6535433070866141,
                    "duration": 0.08952025000000674
                },
                {
                    "name": "G4",
                    "midi": 67,
                    "time": 125.95499174999956,
                    "velocity": 0.5905511811023622,
                    "duration": 0.08952025000000674
                },
                {
                    "name": "A4",
                    "midi": 69,
                    "time": 126.04451199999957,
                    "velocity": 0.5984251968503937,
                    "duration": 0.08952025000000674
                },
                {
                    "name": "B4",
                    "midi": 71,
                    "time": 126.13403224999958,
                    "velocity": 0.6141732283464567,
                    "duration": 0.08952025000000674
                },
                {
                    "name": "C#5",
                    "midi": 73,
                    "time": 126.22355249999958,
                    "velocity": 0.6299212598425197,
                    "duration": 0.08952025000000674
                },
                {
                    "name": "D#5",
                    "midi": 75,
                    "time": 126.31307274999959,
                    "velocity": 0.6456692913385826,
                    "duration": 0.08952025000000674
                },
                {
                    "name": "E5",
                    "midi": 76,
                    "time": 126.4025929999996,
                    "velocity": 0.6535433070866141,
                    "duration": 0.08952025000000674
                },
                {
                    "name": "F#5",
                    "midi": 78,
                    "time": 126.4921132499996,
                    "velocity": 0.6692913385826772,
                    "duration": 0.08952025000000674
                },
                {
                    "name": "G5",
                    "midi": 79,
                    "time": 126.58163349999961,
                    "velocity": 0.6850393700787402,
                    "duration": 0.08952025000000674
                },
                {
                    "name": "A5",
                    "midi": 81,
                    "time": 126.67115374999962,
                    "velocity": 0.6929133858267716,
                    "duration": 0.08952025000000674
                },
                {
                    "name": "B4",
                    "midi": 71,
                    "time": 126.76067399999963,
                    "velocity": 0.6220472440944882,
                    "duration": 0.0671401875000015
                },
                {
                    "name": "B5",
                    "midi": 83,
                    "time": 126.76067399999963,
                    "velocity": 0.7322834645669292,
                    "duration": 0.0671401875000015
                },
                {
                    "name": "A#5",
                    "midi": 82,
                    "time": 126.93971449999962,
                    "velocity": 0.5984251968503937,
                    "duration": 0.0671401875000015
                },
                {
                    "name": "A#4",
                    "midi": 70,
                    "time": 126.93971449999962,
                    "velocity": 0.5039370078740157,
                    "duration": 0.0671401875000015
                },
                {
                    "name": "B4",
                    "midi": 71,
                    "time": 127.11875499999962,
                    "velocity": 0.5748031496062992,
                    "duration": 0.0671401875000015
                },
                {
                    "name": "B5",
                    "midi": 83,
                    "time": 127.11875499999962,
                    "velocity": 0.6771653543307087,
                    "duration": 0.0671401875000015
                },
                {
                    "name": "A#4",
                    "midi": 70,
                    "time": 127.29779549999962,
                    "velocity": 0.5275590551181102,
                    "duration": 0.0671401875000015
                },
                {
                    "name": "A#5",
                    "midi": 82,
                    "time": 127.29779549999962,
                    "velocity": 0.6220472440944882,
                    "duration": 0.0671401875000015
                },
                {
                    "name": "B4",
                    "midi": 71,
                    "time": 127.47683599999962,
                    "velocity": 0.6141732283464567,
                    "duration": 0.0671401875000015
                },
                {
                    "name": "B5",
                    "midi": 83,
                    "time": 127.47683599999962,
                    "velocity": 0.7244094488188977,
                    "duration": 0.0671401875000015
                },
                {
                    "name": "D4",
                    "midi": 62,
                    "time": 127.83491699999962,
                    "velocity": 0.7007874015748031,
                    "duration": 1.0742429999999388
                },
                {
                    "name": "E4",
                    "midi": 64,
                    "time": 128.01395749999963,
                    "velocity": 0.6535433070866141,
                    "duration": 0.08952024999999253
                },
                {
                    "name": "F#4",
                    "midi": 66,
                    "time": 128.10347774999963,
                    "velocity": 0.5905511811023622,
                    "duration": 0.08952024999999253
                },
                {
                    "name": "G4",
                    "midi": 67,
                    "time": 128.19299799999962,
                    "velocity": 0.5984251968503937,
                    "duration": 0.08952024999999253
                },
                {
                    "name": "A4",
                    "midi": 69,
                    "time": 128.2825182499996,
                    "velocity": 0.6141732283464567,
                    "duration": 0.08952024999999253
                },
                {
                    "name": "B4",
                    "midi": 71,
                    "time": 128.3720384999996,
                    "velocity": 0.6299212598425197,
                    "duration": 0.08952024999999253
                },
                {
                    "name": "C#5",
                    "midi": 73,
                    "time": 128.4615587499996,
                    "velocity": 0.6456692913385826,
                    "duration": 0.08952024999999253
                },
                {
                    "name": "D5",
                    "midi": 74,
                    "time": 128.5510789999996,
                    "velocity": 0.6535433070866141,
                    "duration": 0.08952024999999253
                },
                {
                    "name": "E5",
                    "midi": 76,
                    "time": 128.64059924999958,
                    "velocity": 0.6692913385826772,
                    "duration": 0.08952024999999253
                },
                {
                    "name": "F#5",
                    "midi": 78,
                    "time": 128.73011949999957,
                    "velocity": 0.6850393700787402,
                    "duration": 0.08952024999999253
                },
                {
                    "name": "G#5",
                    "midi": 80,
                    "time": 128.81963974999957,
                    "velocity": 0.6929133858267716,
                    "duration": 0.08952024999999253
                },
                {
                    "name": "A5",
                    "midi": 81,
                    "time": 128.90915999999956,
                    "velocity": 0.7322834645669292,
                    "duration": 0.0671401875000015
                },
                {
                    "name": "A4",
                    "midi": 69,
                    "time": 128.90915999999956,
                    "velocity": 0.6220472440944882,
                    "duration": 0.0671401875000015
                },
                {
                    "name": "G#5",
                    "midi": 80,
                    "time": 129.08820049999957,
                    "velocity": 0.6141732283464567,
                    "duration": 0.0671401875000015
                },
                {
                    "name": "G#4",
                    "midi": 68,
                    "time": 129.08820049999957,
                    "velocity": 0.5196850393700787,
                    "duration": 0.0671401875000015
                },
                {
                    "name": "A5",
                    "midi": 81,
                    "time": 129.2672409999996,
                    "velocity": 0.6692913385826772,
                    "duration": 0.0671401875000015
                },
                {
                    "name": "A4",
                    "midi": 69,
                    "time": 129.2672409999996,
                    "velocity": 0.5669291338582677,
                    "duration": 0.0671401875000015
                },
                {
                    "name": "G#4",
                    "midi": 68,
                    "time": 129.4462814999996,
                    "velocity": 0.5118110236220472,
                    "duration": 0.0671401875000015
                },
                {
                    "name": "G#5",
                    "midi": 80,
                    "time": 129.4462814999996,
                    "velocity": 0.6062992125984252,
                    "duration": 0.0671401875000015
                },
                {
                    "name": "A5",
                    "midi": 81,
                    "time": 129.6253219999996,
                    "velocity": 0.6929133858267716,
                    "duration": 0.0671401875000015
                },
                {
                    "name": "A4",
                    "midi": 69,
                    "time": 129.6253219999996,
                    "velocity": 0.5826771653543307,
                    "duration": 0.0671401875000015
                },
                {
                    "name": "C5",
                    "midi": 72,
                    "time": 130.0729232499996,
                    "velocity": 0.6062992125984252,
                    "duration": 0.08952024999999253
                },
                {
                    "name": "E5",
                    "midi": 76,
                    "time": 130.1624434999996,
                    "velocity": 0.6062992125984252,
                    "duration": 0.08952024999999253
                },
                {
                    "name": "G5",
                    "midi": 79,
                    "time": 130.2519637499996,
                    "velocity": 0.5905511811023622,
                    "duration": 0.08952024999999253
                },
                {
                    "name": "C6",
                    "midi": 84,
                    "time": 130.34148399999958,
                    "velocity": 0.6850393700787402,
                    "duration": 0.08952024999999253
                },
                {
                    "name": "E6",
                    "midi": 88,
                    "time": 130.43100424999957,
                    "velocity": 0.5905511811023622,
                    "duration": 0.08952024999999253
                },
                {
                    "name": "G6",
                    "midi": 91,
                    "time": 130.52052449999957,
                    "velocity": 0.6220472440944882,
                    "duration": 0.08952024999999253
                },
                {
                    "name": "C7",
                    "midi": 96,
                    "time": 130.61004474999956,
                    "velocity": 0.5905511811023622,
                    "duration": 0.08952024999999253
                },
                {
                    "name": "B6",
                    "midi": 95,
                    "time": 130.69956499999955,
                    "velocity": 0.7007874015748031,
                    "duration": 0.08952024999999253
                },
                {
                    "name": "A4",
                    "midi": 69,
                    "time": 131.05764599999955,
                    "velocity": 0.6771653543307087,
                    "duration": 0.08952024999999253
                },
                {
                    "name": "C5",
                    "midi": 72,
                    "time": 131.14716624999954,
                    "velocity": 0.6141732283464567,
                    "duration": 0.08952024999999253
                },
                {
                    "name": "F5",
                    "midi": 77,
                    "time": 131.23668649999954,
                    "velocity": 0.6141732283464567,
                    "duration": 0.08952024999999253
                },
                {
                    "name": "A5",
                    "midi": 81,
                    "time": 131.32620674999953,
                    "velocity": 0.6141732283464567,
                    "duration": 0.08952024999999253
                },
                {
                    "name": "C5",
                    "midi": 72,
                    "time": 131.41572699999952,
                    "velocity": 0.6771653543307087,
                    "duration": 0.08952024999999253
                },
                {
                    "name": "D#5",
                    "midi": 75,
                    "time": 131.5052472499995,
                    "velocity": 0.6141732283464567,
                    "duration": 0.08952024999999253
                },
                {
                    "name": "A5",
                    "midi": 81,
                    "time": 131.5947674999995,
                    "velocity": 0.6141732283464567,
                    "duration": 0.08952024999999253
                },
                {
                    "name": "C6",
                    "midi": 84,
                    "time": 131.6842877499995,
                    "velocity": 0.6141732283464567,
                    "duration": 0.08952024999999253
                },
                {
                    "name": "B4",
                    "midi": 71,
                    "time": 131.7738079999995,
                    "velocity": 0.6771653543307087,
                    "duration": 0.08952024999999253
                },
                {
                    "name": "E5",
                    "midi": 76,
                    "time": 131.86332824999948,
                    "velocity": 0.5984251968503937,
                    "duration": 0.08952024999999253
                },
                {
                    "name": "G5",
                    "midi": 79,
                    "time": 131.95284849999948,
                    "velocity": 0.5984251968503937,
                    "duration": 0.08952024999999253
                },
                {
                    "name": "B5",
                    "midi": 83,
                    "time": 132.04236874999947,
                    "velocity": 0.5984251968503937,
                    "duration": 0.08952024999999253
                },
                {
                    "name": "A4",
                    "midi": 69,
                    "time": 132.13188899999946,
                    "velocity": 0.6299212598425197,
                    "duration": 0.08952024999999253
                },
                {
                    "name": "C5",
                    "midi": 72,
                    "time": 132.22140924999945,
                    "velocity": 0.5748031496062992,
                    "duration": 0.08952024999999253
                },
                {
                    "name": "F#5",
                    "midi": 78,
                    "time": 132.31092949999945,
                    "velocity": 0.5748031496062992,
                    "duration": 0.08952024999999253
                },
                {
                    "name": "A5",
                    "midi": 81,
                    "time": 132.40044974999944,
                    "velocity": 0.5669291338582677,
                    "duration": 0.08952024999999253
                },
                {
                    "name": "G4",
                    "midi": 67,
                    "time": 132.48996999999943,
                    "velocity": 0.6141732283464567,
                    "duration": 0.08952024999999253
                },
                {
                    "name": "B4",
                    "midi": 71,
                    "time": 132.57949024999942,
                    "velocity": 0.5511811023622047,
                    "duration": 0.08952024999999253
                },
                {
                    "name": "E5",
                    "midi": 76,
                    "time": 132.66901049999942,
                    "velocity": 0.5511811023622047,
                    "duration": 0.08952024999999253
                },
                {
                    "name": "G5",
                    "midi": 79,
                    "time": 132.7585307499994,
                    "velocity": 0.5511811023622047,
                    "duration": 0.08952024999999253
                },
                {
                    "name": "F#4",
                    "midi": 66,
                    "time": 132.8480509999994,
                    "velocity": 0.6062992125984252,
                    "duration": 0.08952024999999253
                },
                {
                    "name": "B4",
                    "midi": 71,
                    "time": 132.9375712499994,
                    "velocity": 0.5433070866141733,
                    "duration": 0.08952024999999253
                },
                {
                    "name": "D#5",
                    "midi": 75,
                    "time": 133.0270914999994,
                    "velocity": 0.5433070866141733,
                    "duration": 0.08952024999999253
                },
                {
                    "name": "F#5",
                    "midi": 78,
                    "time": 133.11661174999938,
                    "velocity": 0.5433070866141733,
                    "duration": 0.08952024999999253
                },
                {
                    "name": "E4",
                    "midi": 64,
                    "time": 133.20613199999937,
                    "velocity": 0.6850393700787402,
                    "duration": 0.17904050000001348
                },
                {
                    "name": "F#4",
                    "midi": 66,
                    "time": 133.38517249999938,
                    "velocity": 0.6456692913385826,
                    "duration": 0.08952024999999253
                },
                {
                    "name": "G4",
                    "midi": 67,
                    "time": 133.47469274999938,
                    "velocity": 0.6141732283464567,
                    "duration": 0.08952024999999253
                },
                {
                    "name": "A4",
                    "midi": 69,
                    "time": 133.56421299999937,
                    "velocity": 0.6062992125984252,
                    "duration": 0.08952024999999253
                },
                {
                    "name": "B4",
                    "midi": 71,
                    "time": 133.65373324999936,
                    "velocity": 0.6062992125984252,
                    "duration": 0.08952024999999253
                },
                {
                    "name": "C#5",
                    "midi": 73,
                    "time": 133.74325349999935,
                    "velocity": 0.6062992125984252,
                    "duration": 0.08952024999999253
                },
                {
                    "name": "D#5",
                    "midi": 75,
                    "time": 133.83277374999935,
                    "velocity": 0.5984251968503937,
                    "duration": 0.08952024999999253
                },
                {
                    "name": "E5",
                    "midi": 76,
                    "time": 133.92229399999934,
                    "velocity": 0.5984251968503937,
                    "duration": 0.08952024999999253
                },
                {
                    "name": "F#5",
                    "midi": 78,
                    "time": 134.01181424999933,
                    "velocity": 0.5984251968503937,
                    "duration": 0.08952024999999253
                },
                {
                    "name": "G5",
                    "midi": 79,
                    "time": 134.10133449999933,
                    "velocity": 0.5905511811023622,
                    "duration": 0.08952024999999253
                },
                {
                    "name": "A5",
                    "midi": 81,
                    "time": 134.19085474999932,
                    "velocity": 0.5905511811023622,
                    "duration": 0.08952024999999253
                },
                {
                    "name": "B5",
                    "midi": 83,
                    "time": 134.2803749999993,
                    "velocity": 0.5826771653543307,
                    "duration": 0.08952024999999253
                },
                {
                    "name": "C6",
                    "midi": 84,
                    "time": 134.3698952499993,
                    "velocity": 0.5826771653543307,
                    "duration": 0.08952024999999253
                },
                {
                    "name": "D6",
                    "midi": 86,
                    "time": 134.4594154999993,
                    "velocity": 0.5748031496062992,
                    "duration": 0.08952024999999253
                },
                {
                    "name": "E6",
                    "midi": 88,
                    "time": 134.5489357499993,
                    "velocity": 0.5748031496062992,
                    "duration": 0.08952024999999253
                },
                {
                    "name": "F6",
                    "midi": 89,
                    "time": 134.63845599999928,
                    "velocity": 0.5590551181102362,
                    "duration": 0.17904050000001348
                },
                {
                    "name": "D6",
                    "midi": 86,
                    "time": 135.7126989999993,
                    "velocity": 0.5590551181102362,
                    "duration": 0.17904050000001348
                },
                {
                    "name": "B5",
                    "midi": 83,
                    "time": 136.78694199999933,
                    "velocity": 0.5275590551181102,
                    "duration": 0.17904050000001348
                },
                {
                    "name": "G#5",
                    "midi": 80,
                    "time": 137.86118499999935,
                    "velocity": 0.4330708661417323,
                    "duration": 0.17904050000001348
                },
                {
                    "name": "G5",
                    "midi": 79,
                    "time": 138.93542799999938,
                    "velocity": 0.3937007874015748,
                    "duration": 0.17904050000001348
                },
                {
                    "name": "E5",
                    "midi": 76,
                    "time": 139.6515899999994,
                    "velocity": 0.3228346456692913,
                    "duration": 0.8952025000000106
                },
                {
                    "name": "G4",
                    "midi": 67,
                    "time": 139.6515899999994,
                    "velocity": 0.28346456692913385,
                    "duration": 2.1484859999999912
                },
                {
                    "name": "F5",
                    "midi": 77,
                    "time": 140.5467924999994,
                    "velocity": 0.30708661417322836,
                    "duration": 0.08952024999999253
                },
                {
                    "name": "E5",
                    "midi": 76,
                    "time": 140.6363127499994,
                    "velocity": 0.2677165354330709,
                    "duration": 0.08952024999999253
                },
                {
                    "name": "D5",
                    "midi": 74,
                    "time": 140.7258329999994,
                    "velocity": 0.30708661417322836,
                    "duration": 0.35808099999999854
                },
                {
                    "name": "F5",
                    "midi": 77,
                    "time": 141.0839139999994,
                    "velocity": 0.3228346456692913,
                    "duration": 0.35808099999999854
                },
                {
                    "name": "G#5",
                    "midi": 80,
                    "time": 141.4419949999994,
                    "velocity": 0.36220472440944884,
                    "duration": 0.35808099999999854
                },
                {
                    "name": "G5",
                    "midi": 79,
                    "time": 141.8000759999994,
                    "velocity": 0.3464566929133858,
                    "duration": 0.7161619999999971
                },
                {
                    "name": "G4",
                    "midi": 67,
                    "time": 141.8000759999994,
                    "velocity": 0.28346456692913385,
                    "duration": 1.0742429999999956
                },
                {
                    "name": "E5",
                    "midi": 76,
                    "time": 142.5162379999994,
                    "velocity": 0.29133858267716534,
                    "duration": 0.35062097916667767
                },
                {
                    "name": "G4",
                    "midi": 67,
                    "time": 142.8743189999994,
                    "velocity": 0.28346456692913385,
                    "duration": 1.0742429999999956
                },
                {
                    "name": "G5",
                    "midi": 79,
                    "time": 142.8743189999994,
                    "velocity": 0.3464566929133858,
                    "duration": 0.7161619999999971
                },
                {
                    "name": "F5",
                    "midi": 77,
                    "time": 143.5904809999994,
                    "velocity": 0.29133858267716534,
                    "duration": 0.35062097916667767
                },
                {
                    "name": "G4",
                    "midi": 67,
                    "time": 143.94856199999938,
                    "velocity": 0.3228346456692913,
                    "duration": 2.1484859999999912
                },
                {
                    "name": "E5",
                    "midi": 76,
                    "time": 143.94856199999938,
                    "velocity": 0.3228346456692913,
                    "duration": 0.8952025000000106
                },
                {
                    "name": "F5",
                    "midi": 77,
                    "time": 144.8437644999994,
                    "velocity": 0.2992125984251969,
                    "duration": 0.08952024999999253
                },
                {
                    "name": "E5",
                    "midi": 76,
                    "time": 144.9332847499994,
                    "velocity": 0.2677165354330709,
                    "duration": 0.08952024999999253
                },
                {
                    "name": "D5",
                    "midi": 74,
                    "time": 145.02280499999938,
                    "velocity": 0.30708661417322836,
                    "duration": 0.35808099999999854
                },
                {
                    "name": "F5",
                    "midi": 77,
                    "time": 145.38088599999938,
                    "velocity": 0.3228346456692913,
                    "duration": 0.35808099999999854
                },
                {
                    "name": "G#5",
                    "midi": 80,
                    "time": 145.73896699999938,
                    "velocity": 0.36220472440944884,
                    "duration": 0.35808099999999854
                },
                {
                    "name": "G5",
                    "midi": 79,
                    "time": 146.09704799999938,
                    "velocity": 0.3464566929133858,
                    "duration": 0.7161619999999971
                },
                {
                    "name": "G4",
                    "midi": 67,
                    "time": 146.09704799999938,
                    "velocity": 0.28346456692913385,
                    "duration": 1.0742429999999956
                },
                {
                    "name": "E5",
                    "midi": 76,
                    "time": 146.81320999999937,
                    "velocity": 0.29133858267716534,
                    "duration": 0.35062097916667767
                },
                {
                    "name": "G4",
                    "midi": 67,
                    "time": 147.17129099999937,
                    "velocity": 0.4015748031496063,
                    "duration": 1.0742429999999956
                },
                {
                    "name": "G5",
                    "midi": 79,
                    "time": 147.17129099999937,
                    "velocity": 0.4015748031496063,
                    "duration": 0.7161619999999971
                },
                {
                    "name": "F5",
                    "midi": 77,
                    "time": 147.88745299999937,
                    "velocity": 0.3858267716535433,
                    "duration": 0.35062097916667767
                },
                {
                    "name": "G#4",
                    "midi": 68,
                    "time": 148.24553399999937,
                    "velocity": 0.4566929133858268,
                    "duration": 1.0742429999999956
                },
                {
                    "name": "G#5",
                    "midi": 80,
                    "time": 148.24553399999937,
                    "velocity": 0.4566929133858268,
                    "duration": 0.7161619999999971
                },
                {
                    "name": "F5",
                    "midi": 77,
                    "time": 148.96169599999936,
                    "velocity": 0.41732283464566927,
                    "duration": 0.35062097916667767
                },
                {
                    "name": "A4",
                    "midi": 69,
                    "time": 149.31977699999936,
                    "velocity": 0.4881889763779528,
                    "duration": 1.0742429999999956
                },
                {
                    "name": "A5",
                    "midi": 81,
                    "time": 149.31977699999936,
                    "velocity": 0.4881889763779528,
                    "duration": 0.7161619999999971
                },
                {
                    "name": "F5",
                    "midi": 77,
                    "time": 150.03593899999936,
                    "velocity": 0.41732283464566927,
                    "duration": 0.35062097916667767
                },
                {
                    "name": "E5",
                    "midi": 76,
                    "time": 150.39401999999936,
                    "velocity": 0.4566929133858268,
                    "duration": 0.35808099999999854
                },
                {
                    "name": "A#4",
                    "midi": 70,
                    "time": 150.39401999999936,
                    "velocity": 0.4566929133858268,
                    "duration": 1.0742429999999956
                },
                {
                    "name": "C#6",
                    "midi": 85,
                    "time": 150.75210099999936,
                    "velocity": 0.49606299212598426,
                    "duration": 0.35808099999999854
                },
                {
                    "name": "C6",
                    "midi": 84,
                    "time": 151.11018199999936,
                    "velocity": 0.47244094488188976,
                    "duration": 0.35808099999999854
                },
                {
                    "name": "C5",
                    "midi": 72,
                    "time": 151.46826299999935,
                    "velocity": 0.28346456692913385,
                    "duration": 1.0742429999999956
                },
                {
                    "name": "A#5",
                    "midi": 82,
                    "time": 151.46826299999935,
                    "velocity": 0.4330708661417323,
                    "duration": 0.7161619999999971
                },
                {
                    "name": "A5",
                    "midi": 81,
                    "time": 152.18442499999935,
                    "velocity": 0.3858267716535433,
                    "duration": 0.35808099999999854
                },
                {
                    "name": "G4",
                    "midi": 67,
                    "time": 152.54250599999935,
                    "velocity": 0.41732283464566927,
                    "duration": 1.0742429999999956
                },
                {
                    "name": "E5",
                    "midi": 76,
                    "time": 152.54250599999935,
                    "velocity": 0.41732283464566927,
                    "duration": 0.35808099999999854
                },
                {
                    "name": "A#5",
                    "midi": 82,
                    "time": 152.90058699999935,
                    "velocity": 0.4566929133858268,
                    "duration": 0.35808099999999854
                },
                {
                    "name": "A5",
                    "midi": 81,
                    "time": 153.25866799999935,
                    "velocity": 0.3858267716535433,
                    "duration": 0.35808099999999854
                },
                {
                    "name": "G5",
                    "midi": 79,
                    "time": 153.61674899999934,
                    "velocity": 0.4094488188976378,
                    "duration": 0.7161619999999971
                },
                {
                    "name": "A4",
                    "midi": 69,
                    "time": 153.61674899999934,
                    "velocity": 0.28346456692913385,
                    "duration": 1.0742429999999956
                },
                {
                    "name": "F5",
                    "midi": 77,
                    "time": 154.33291099999934,
                    "velocity": 0.3858267716535433,
                    "duration": 0.35062097916667767
                },
                {
                    "name": "G5",
                    "midi": 79,
                    "time": 154.69099199999934,
                    "velocity": 0.3464566929133858,
                    "duration": 0.7161619999999971
                },
                {
                    "name": "G4",
                    "midi": 67,
                    "time": 154.69099199999934,
                    "velocity": 0.28346456692913385,
                    "duration": 1.0742429999999956
                },
                {
                    "name": "F5",
                    "midi": 77,
                    "time": 155.40715399999934,
                    "velocity": 0.29133858267716534,
                    "duration": 0.35062097916667767
                },
                {
                    "name": "G4",
                    "midi": 67,
                    "time": 155.76523499999934,
                    "velocity": 0.28346456692913385,
                    "duration": 1.0742429999999956
                },
                {
                    "name": "G5",
                    "midi": 79,
                    "time": 155.76523499999934,
                    "velocity": 0.3464566929133858,
                    "duration": 0.7161619999999971
                },
                {
                    "name": "E5",
                    "midi": 76,
                    "time": 156.48139699999933,
                    "velocity": 0.29133858267716534,
                    "duration": 0.35062097916667767
                },
                {
                    "name": "F4",
                    "midi": 65,
                    "time": 156.83947799999933,
                    "velocity": 0.28346456692913385,
                    "duration": 1.0742430000000525
                },
                {
                    "name": "G#5",
                    "midi": 80,
                    "time": 156.83947799999933,
                    "velocity": 0.4409448818897638,
                    "duration": 0.35808099999999854
                },
                {
                    "name": "G5",
                    "midi": 79,
                    "time": 157.19755899999933,
                    "velocity": 0.30708661417322836,
                    "duration": 0.17904050000001348
                },
                {
                    "name": "F5",
                    "midi": 77,
                    "time": 157.37659949999934,
                    "velocity": 0.2677165354330709,
                    "duration": 0.17904050000001348
                },
                {
                    "name": "E5",
                    "midi": 76,
                    "time": 157.55563999999936,
                    "velocity": 0.2992125984251969,
                    "duration": 0.17904050000001348
                },
                {
                    "name": "D5",
                    "midi": 74,
                    "time": 157.73468049999937,
                    "velocity": 0.2440944881889764,
                    "duration": 0.17904050000001348
                },
                {
                    "name": "C5",
                    "midi": 72,
                    "time": 157.91372099999938,
                    "velocity": 0.2992125984251969,
                    "duration": 0.537121500000012
                },
                {
                    "name": "E4",
                    "midi": 64,
                    "time": 157.91372099999938,
                    "velocity": 0.23622047244094488,
                    "duration": 0.35808099999999854
                },
                {
                    "name": "D5",
                    "midi": 74,
                    "time": 158.4508424999994,
                    "velocity": 0.3228346456692913,
                    "duration": 0.17904050000001348
                },
                {
                    "name": "E5",
                    "midi": 76,
                    "time": 158.6298829999994,
                    "velocity": 0.3937007874015748,
                    "duration": 0.17904050000001348
                },
                {
                    "name": "F5",
                    "midi": 77,
                    "time": 158.80892349999942,
                    "velocity": 0.4251968503937008,
                    "duration": 0.17904050000001348
                },
                {
                    "name": "A#4",
                    "midi": 70,
                    "time": 158.98796399999944,
                    "velocity": 0.4645669291338583,
                    "duration": 1.0742429999999956
                },
                {
                    "name": "E5",
                    "midi": 76,
                    "time": 158.98796399999944,
                    "velocity": 0.4645669291338583,
                    "duration": 0.35808099999999854
                },
                {
                    "name": "C#6",
                    "midi": 85,
                    "time": 159.34604499999944,
                    "velocity": 0.5039370078740157,
                    "duration": 0.35808099999999854
                },
                {
                    "name": "C6",
                    "midi": 84,
                    "time": 159.70412599999943,
                    "velocity": 0.4645669291338583,
                    "duration": 0.35808099999999854
                },
                {
                    "name": "C5",
                    "midi": 72,
                    "time": 160.06220699999943,
                    "velocity": 0.44881889763779526,
                    "duration": 1.0742429999999956
                },
                {
                    "name": "A#5",
                    "midi": 82,
                    "time": 160.06220699999943,
                    "velocity": 0.44881889763779526,
                    "duration": 0.7161619999999971
                },
                {
                    "name": "A5",
                    "midi": 81,
                    "time": 160.77836899999943,
                    "velocity": 0.41732283464566927,
                    "duration": 0.35062097916667767
                },
                {
                    "name": "G4",
                    "midi": 67,
                    "time": 161.13644999999943,
                    "velocity": 0.4330708661417323,
                    "duration": 1.0742429999999956
                },
                {
                    "name": "E5",
                    "midi": 76,
                    "time": 161.13644999999943,
                    "velocity": 0.4330708661417323,
                    "duration": 0.35808099999999854
                },
                {
                    "name": "A#5",
                    "midi": 82,
                    "time": 161.49453099999943,
                    "velocity": 0.48031496062992124,
                    "duration": 0.35808099999999854
                },
                {
                    "name": "A5",
                    "midi": 81,
                    "time": 161.85261199999943,
                    "velocity": 0.4409448818897638,
                    "duration": 0.35808099999999854
                },
                {
                    "name": "G5",
                    "midi": 79,
                    "time": 162.21069299999942,
                    "velocity": 0.4094488188976378,
                    "duration": 0.7161619999999971
                },
                {
                    "name": "A4",
                    "midi": 69,
                    "time": 162.21069299999942,
                    "velocity": 0.28346456692913385,
                    "duration": 1.0742429999999956
                },
                {
                    "name": "F5",
                    "midi": 77,
                    "time": 162.92685499999942,
                    "velocity": 0.3858267716535433,
                    "duration": 0.35062097916667767
                },
                {
                    "name": "G4",
                    "midi": 67,
                    "time": 163.28493599999942,
                    "velocity": 0.3700787401574803,
                    "duration": 1.0742429999999956
                },
                {
                    "name": "G5",
                    "midi": 79,
                    "time": 163.28493599999942,
                    "velocity": 0.3700787401574803,
                    "duration": 0.7161619999999971
                },
                {
                    "name": "F5",
                    "midi": 77,
                    "time": 164.00109799999942,
                    "velocity": 0.30708661417322836,
                    "duration": 0.35062097916667767
                },
                {
                    "name": "G4",
                    "midi": 67,
                    "time": 164.35917899999941,
                    "velocity": 0.3700787401574803,
                    "duration": 1.0742429999999956
                },
                {
                    "name": "G5",
                    "midi": 79,
                    "time": 164.35917899999941,
                    "velocity": 0.3700787401574803,
                    "duration": 0.7161619999999971
                },
                {
                    "name": "E5",
                    "midi": 76,
                    "time": 165.0753409999994,
                    "velocity": 0.29133858267716534,
                    "duration": 0.35062097916667767
                },
                {
                    "name": "G#5",
                    "midi": 80,
                    "time": 165.4334219999994,
                    "velocity": 0.4409448818897638,
                    "duration": 0.35808099999999854
                },
                {
                    "name": "F4",
                    "midi": 65,
                    "time": 165.4334219999994,
                    "velocity": 0.28346456692913385,
                    "duration": 1.0742430000000525
                },
                {
                    "name": "G5",
                    "midi": 79,
                    "time": 165.7915029999994,
                    "velocity": 0.30708661417322836,
                    "duration": 0.17904050000001348
                },
                {
                    "name": "F5",
                    "midi": 77,
                    "time": 165.97054349999942,
                    "velocity": 0.2677165354330709,
                    "duration": 0.17904050000001348
                },
                {
                    "name": "E5",
                    "midi": 76,
                    "time": 166.14958399999944,
                    "velocity": 0.2992125984251969,
                    "duration": 0.17904050000001348
                },
                {
                    "name": "D5",
                    "midi": 74,
                    "time": 166.32862449999945,
                    "velocity": 0.2440944881889764,
                    "duration": 0.17904050000001348
                },
                {
                    "name": "C5",
                    "midi": 72,
                    "time": 166.50766499999946,
                    "velocity": 0.2992125984251969,
                    "duration": 0.35808099999999854
                },
                {
                    "name": "E4",
                    "midi": 64,
                    "time": 166.50766499999946,
                    "velocity": 0.2677165354330709,
                    "duration": 0.35808099999999854
                },
                {
                    "name": "E5",
                    "midi": 76,
                    "time": 167.58190799999946,
                    "velocity": 0.2755905511811024,
                    "duration": 1.0742429999999956
                },
                {
                    "name": "G4",
                    "midi": 67,
                    "time": 167.58190799999946,
                    "velocity": 0.2755905511811024,
                    "duration": 1.0742429999999956
                },
                {
                    "name": "E5",
                    "midi": 76,
                    "time": 168.65615099999945,
                    "velocity": 0.25196850393700787,
                    "duration": 1.0742429999999956
                },
                {
                    "name": "G4",
                    "midi": 67,
                    "time": 168.65615099999945,
                    "velocity": 0.25196850393700787,
                    "duration": 1.0742429999999956
                },
                {
                    "name": "B4",
                    "midi": 71,
                    "time": 168.65615099999945,
                    "velocity": 0.25196850393700787,
                    "duration": 1.0742429999999956
                },
                {
                    "name": "D#5",
                    "midi": 75,
                    "time": 169.73039399999945,
                    "velocity": 0.23622047244094488,
                    "duration": 1.0742429999999956
                },
                {
                    "name": "F#4",
                    "midi": 66,
                    "time": 169.73039399999945,
                    "velocity": 0.23622047244094488,
                    "duration": 1.0742429999999956
                },
                {
                    "name": "B4",
                    "midi": 71,
                    "time": 169.73039399999945,
                    "velocity": 0.23622047244094488,
                    "duration": 1.0742429999999956
                },
                {
                    "name": "F4",
                    "midi": 65,
                    "time": 170.80463699999945,
                    "velocity": 0.7165354330708661,
                    "duration": 0.11936033333333285
                },
                {
                    "name": "B4",
                    "midi": 71,
                    "time": 170.92399733333278,
                    "velocity": 0.6062992125984252,
                    "duration": 0.11936033333333285
                },
                {
                    "name": "D5",
                    "midi": 74,
                    "time": 171.0433576666661,
                    "velocity": 0.5826771653543307,
                    "duration": 0.11936033333333285
                },
                {
                    "name": "F5",
                    "midi": 77,
                    "time": 171.16271799999944,
                    "velocity": 0.6456692913385826,
                    "duration": 0.11936033333333285
                },
                {
                    "name": "B5",
                    "midi": 83,
                    "time": 171.28207833333278,
                    "velocity": 0.5748031496062992,
                    "duration": 0.11936033333333285
                },
                {
                    "name": "D6",
                    "midi": 86,
                    "time": 171.4014386666661,
                    "velocity": 0.5590551181102362,
                    "duration": 0.11936033333333285
                },
                {
                    "name": "F6",
                    "midi": 89,
                    "time": 171.52079899999944,
                    "velocity": 0.6141732283464567,
                    "duration": 0.11936033333333285
                },
                {
                    "name": "B6",
                    "midi": 95,
                    "time": 171.64015933333278,
                    "velocity": 0.5590551181102362,
                    "duration": 0.11936033333333285
                },
                {
                    "name": "D7",
                    "midi": 98,
                    "time": 171.7595196666661,
                    "velocity": 0.5511811023622047,
                    "duration": 0.11936033333333285
                },
                {
                    "name": "F7",
                    "midi": 101,
                    "time": 171.87887999999944,
                    "velocity": 0.5984251968503937,
                    "duration": 0.08952024999999253
                },
                {
                    "name": "D5",
                    "midi": 74,
                    "time": 174.02736599999943,
                    "velocity": 0.2755905511811024,
                    "duration": 1.0742429999999956
                },
                {
                    "name": "G#4",
                    "midi": 68,
                    "time": 174.02736599999943,
                    "velocity": 0.2755905511811024,
                    "duration": 1.0742429999999956
                },
                {
                    "name": "F4",
                    "midi": 65,
                    "time": 174.02736599999943,
                    "velocity": 0.2755905511811024,
                    "duration": 1.0742429999999956
                },
                {
                    "name": "D5",
                    "midi": 74,
                    "time": 175.10160899999943,
                    "velocity": 0.25196850393700787,
                    "duration": 1.0742429999999956
                },
                {
                    "name": "A4",
                    "midi": 69,
                    "time": 175.10160899999943,
                    "velocity": 0.25196850393700787,
                    "duration": 1.0742429999999956
                },
                {
                    "name": "F4",
                    "midi": 65,
                    "time": 175.10160899999943,
                    "velocity": 0.25196850393700787,
                    "duration": 1.0742429999999956
                },
                {
                    "name": "A4",
                    "midi": 69,
                    "time": 176.17585199999942,
                    "velocity": 0.23622047244094488,
                    "duration": 1.0742429999999956
                },
                {
                    "name": "E4",
                    "midi": 64,
                    "time": 176.17585199999942,
                    "velocity": 0.23622047244094488,
                    "duration": 1.0742429999999956
                },
                {
                    "name": "C#5",
                    "midi": 73,
                    "time": 176.17585199999942,
                    "velocity": 0.23622047244094488,
                    "duration": 1.0742429999999956
                },
                {
                    "name": "D#4",
                    "midi": 63,
                    "time": 177.25009499999942,
                    "velocity": 0.7165354330708661,
                    "duration": 0.11936033333333285
                },
                {
                    "name": "A4",
                    "midi": 69,
                    "time": 177.36945533333275,
                    "velocity": 0.6062992125984252,
                    "duration": 0.11936033333333285
                },
                {
                    "name": "C5",
                    "midi": 72,
                    "time": 177.48881566666608,
                    "velocity": 0.5669291338582677,
                    "duration": 0.11936033333333285
                },
                {
                    "name": "D#5",
                    "midi": 75,
                    "time": 177.60817599999942,
                    "velocity": 0.6456692913385826,
                    "duration": 0.11936033333333285
                },
                {
                    "name": "A5",
                    "midi": 81,
                    "time": 177.72753633333275,
                    "velocity": 0.5748031496062992,
                    "duration": 0.11936033333333285
                },
                {
                    "name": "C6",
                    "midi": 84,
                    "time": 177.84689666666608,
                    "velocity": 0.5590551181102362,
                    "duration": 0.11936033333333285
                },
                {
                    "name": "D#6",
                    "midi": 87,
                    "time": 177.96625699999942,
                    "velocity": 0.6141732283464567,
                    "duration": 0.11936033333333285
                },
                {
                    "name": "A6",
                    "midi": 93,
                    "time": 178.08561733333275,
                    "velocity": 0.5590551181102362,
                    "duration": 0.11936033333333285
                },
                {
                    "name": "C7",
                    "midi": 96,
                    "time": 178.20497766666608,
                    "velocity": 0.5511811023622047,
                    "duration": 0.11936033333333285
                },
                {
                    "name": "D#7",
                    "midi": 99,
                    "time": 178.32433799999941,
                    "velocity": 0.5984251968503937,
                    "duration": 0.08952024999999253
                },
                {
                    "name": "F#4",
                    "midi": 66,
                    "time": 180.4728239999994,
                    "velocity": 0.2755905511811024,
                    "duration": 1.0742429999999956
                },
                {
                    "name": "G#4",
                    "midi": 68,
                    "time": 180.4728239999994,
                    "velocity": 0.2755905511811024,
                    "duration": 1.0742429999999956
                },
                {
                    "name": "D#5",
                    "midi": 75,
                    "time": 180.4728239999994,
                    "velocity": 0.2755905511811024,
                    "duration": 1.0742429999999956
                },
                {
                    "name": "G#4",
                    "midi": 68,
                    "time": 181.5470669999994,
                    "velocity": 0.25196850393700787,
                    "duration": 2.0589657499999987
                },
                {
                    "name": "F4",
                    "midi": 65,
                    "time": 181.5470669999994,
                    "velocity": 0.25196850393700787,
                    "duration": 2.0589657499999987
                },
                {
                    "name": "D#5",
                    "midi": 75,
                    "time": 181.5470669999994,
                    "velocity": 0.25196850393700787,
                    "duration": 1.0742429999999956
                },
                {
                    "name": "C#5",
                    "midi": 73,
                    "time": 182.6213099999994,
                    "velocity": 0.30708661417322836,
                    "duration": 0.35808099999999854
                },
                {
                    "name": "F5",
                    "midi": 77,
                    "time": 182.9793909999994,
                    "velocity": 0.3228346456692913,
                    "duration": 0.35808099999999854
                },
                {
                    "name": "F#5",
                    "midi": 78,
                    "time": 183.3374719999994,
                    "velocity": 0.3700787401574803,
                    "duration": 0.268560750000006
                },
                {
                    "name": "D#4",
                    "midi": 63,
                    "time": 183.6060327499994,
                    "velocity": 0.2677165354330709,
                    "duration": 1.074243000000024
                },
                {
                    "name": "C#5",
                    "midi": 73,
                    "time": 183.6507928749994,
                    "velocity": 0.2755905511811024,
                    "duration": 1.0294828750000136
                },
                {
                    "name": "G#5",
                    "midi": 80,
                    "time": 183.69555299999942,
                    "velocity": 0.3700787401574803,
                    "duration": 0.9847227500000031
                },
                {
                    "name": "F#4",
                    "midi": 66,
                    "time": 184.68027574999942,
                    "velocity": 0.2283464566929134,
                    "duration": 1.074243000000024
                },
                {
                    "name": "C5",
                    "midi": 72,
                    "time": 184.72503587499943,
                    "velocity": 0.2283464566929134,
                    "duration": 1.0294828750000136
                },
                {
                    "name": "G#5",
                    "midi": 80,
                    "time": 184.76979599999945,
                    "velocity": 0.3464566929133858,
                    "duration": 0.9847227500000031
                },
                {
                    "name": "C#5",
                    "midi": 73,
                    "time": 185.84403899999944,
                    "velocity": 0.28346456692913385,
                    "duration": 0.11936033333333285
                },
                {
                    "name": "D#5",
                    "midi": 75,
                    "time": 185.96339933333277,
                    "velocity": 0.23622047244094488,
                    "duration": 0.11936033333333285
                },
                {
                    "name": "F5",
                    "midi": 77,
                    "time": 186.0827596666661,
                    "velocity": 0.23622047244094488,
                    "duration": 0.11936033333333285
                },
                {
                    "name": "D#5",
                    "midi": 75,
                    "time": 186.20211999999944,
                    "velocity": 0.28346456692913385,
                    "duration": 0.11936033333333285
                },
                {
                    "name": "F5",
                    "midi": 77,
                    "time": 186.32148033333277,
                    "velocity": 0.2440944881889764,
                    "duration": 0.11936033333333285
                },
                {
                    "name": "F#5",
                    "midi": 78,
                    "time": 186.4408406666661,
                    "velocity": 0.2440944881889764,
                    "duration": 0.11936033333333285
                },
                {
                    "name": "F5",
                    "midi": 77,
                    "time": 186.56020099999944,
                    "velocity": 0.2755905511811024,
                    "duration": 0.11936033333333285
                },
                {
                    "name": "F#5",
                    "midi": 78,
                    "time": 186.67956133333277,
                    "velocity": 0.23622047244094488,
                    "duration": 0.11936033333333285
                },
                {
                    "name": "G#5",
                    "midi": 80,
                    "time": 186.7989216666661,
                    "velocity": 0.2440944881889764,
                    "duration": 0.11936033333333285
                },
                {
                    "name": "F#5",
                    "midi": 78,
                    "time": 186.91828199999944,
                    "velocity": 0.30708661417322836,
                    "duration": 0.11936033333333285
                },
                {
                    "name": "G#5",
                    "midi": 80,
                    "time": 187.03764233333277,
                    "velocity": 0.25196850393700787,
                    "duration": 0.11936033333333285
                },
                {
                    "name": "A#5",
                    "midi": 82,
                    "time": 187.1570026666661,
                    "velocity": 0.25196850393700787,
                    "duration": 0.11936033333333285
                },
                {
                    "name": "G#5",
                    "midi": 80,
                    "time": 187.27636299999944,
                    "velocity": 0.33858267716535434,
                    "duration": 0.11936033333333285
                },
                {
                    "name": "A#5",
                    "midi": 82,
                    "time": 187.39572333333277,
                    "velocity": 0.28346456692913385,
                    "duration": 0.11936033333333285
                },
                {
                    "name": "C6",
                    "midi": 84,
                    "time": 187.5150836666661,
                    "velocity": 0.2755905511811024,
                    "duration": 0.11936033333333285
                },
                {
                    "name": "C#6",
                    "midi": 85,
                    "time": 187.63444399999943,
                    "velocity": 0.3700787401574803,
                    "duration": 0.11936033333333285
                },
                {
                    "name": "D#6",
                    "midi": 87,
                    "time": 187.75380433333277,
                    "velocity": 0.30708661417322836,
                    "duration": 0.11936033333333285
                },
                {
                    "name": "F6",
                    "midi": 89,
                    "time": 187.8731646666661,
                    "velocity": 0.31496062992125984,
                    "duration": 0.11936033333333285
                },
                {
                    "name": "F#6",
                    "midi": 90,
                    "time": 187.99252499999943,
                    "velocity": 0.4094488188976378,
                    "duration": 0.11936033333333285
                },
                {
                    "name": "F6",
                    "midi": 89,
                    "time": 188.11188533333276,
                    "velocity": 0.3228346456692913,
                    "duration": 0.11936033333333285
                },
                {
                    "name": "D#6",
                    "midi": 87,
                    "time": 188.2312456666661,
                    "velocity": 0.3228346456692913,
                    "duration": 0.11936033333333285
                },
                {
                    "name": "F6",
                    "midi": 89,
                    "time": 188.35060599999943,
                    "velocity": 0.3937007874015748,
                    "duration": 0.11936033333333285
                },
                {
                    "name": "D#6",
                    "midi": 87,
                    "time": 188.46996633333276,
                    "velocity": 0.30708661417322836,
                    "duration": 0.11936033333333285
                },
                {
                    "name": "C#6",
                    "midi": 85,
                    "time": 188.5893266666661,
                    "velocity": 0.3228346456692913,
                    "duration": 0.11936033333333285
                },
                {
                    "name": "D#6",
                    "midi": 87,
                    "time": 188.70868699999943,
                    "velocity": 0.3779527559055118,
                    "duration": 0.11936033333333285
                },
                {
                    "name": "C#6",
                    "midi": 85,
                    "time": 188.82804733333276,
                    "velocity": 0.2992125984251969,
                    "duration": 0.11936033333333285
                },
                {
                    "name": "C6",
                    "midi": 84,
                    "time": 188.9474076666661,
                    "velocity": 0.2992125984251969,
                    "duration": 0.11936033333333285
                },
                {
                    "name": "C#6",
                    "midi": 85,
                    "time": 189.06676799999943,
                    "velocity": 0.33070866141732286,
                    "duration": 0.11936033333333285
                },
                {
                    "name": "C6",
                    "midi": 84,
                    "time": 189.18612833333276,
                    "velocity": 0.2755905511811024,
                    "duration": 0.11936033333333285
                },
                {
                    "name": "A#5",
                    "midi": 82,
                    "time": 189.3054886666661,
                    "velocity": 0.2755905511811024,
                    "duration": 0.11936033333333285
                },
                {
                    "name": "C6",
                    "midi": 84,
                    "time": 189.42484899999943,
                    "velocity": 0.31496062992125984,
                    "duration": 0.11936033333333285
                },
                {
                    "name": "A#5",
                    "midi": 82,
                    "time": 189.54420933333276,
                    "velocity": 0.25984251968503935,
                    "duration": 0.11936033333333285
                },
                {
                    "name": "G#5",
                    "midi": 80,
                    "time": 189.6635696666661,
                    "velocity": 0.25984251968503935,
                    "duration": 0.11936033333333285
                },
                {
                    "name": "F#5",
                    "midi": 78,
                    "time": 189.78292999999942,
                    "velocity": 0.29133858267716534,
                    "duration": 0.11936033333333285
                },
                {
                    "name": "F5",
                    "midi": 77,
                    "time": 189.90229033333276,
                    "velocity": 0.25196850393700787,
                    "duration": 0.11936033333333285
                },
                {
                    "name": "D#5",
                    "midi": 75,
                    "time": 190.0216506666661,
                    "velocity": 0.25196850393700787,
                    "duration": 0.11936033333333285
                },
                {
                    "name": "C#5",
                    "midi": 73,
                    "time": 190.14101099999942,
                    "velocity": 0.30708661417322836,
                    "duration": 0.11936033333333285
                },
                {
                    "name": "D#5",
                    "midi": 75,
                    "time": 190.26037133333276,
                    "velocity": 0.25984251968503935,
                    "duration": 0.11936033333333285
                },
                {
                    "name": "E5",
                    "midi": 76,
                    "time": 190.3797316666661,
                    "velocity": 0.25984251968503935,
                    "duration": 0.11936033333333285
                },
                {
                    "name": "D#5",
                    "midi": 75,
                    "time": 190.49909199999942,
                    "velocity": 0.30708661417322836,
                    "duration": 0.11936033333333285
                },
                {
                    "name": "E5",
                    "midi": 76,
                    "time": 190.61845233333275,
                    "velocity": 0.25984251968503935,
                    "duration": 0.11936033333333285
                },
                {
                    "name": "F#5",
                    "midi": 78,
                    "time": 190.7378126666661,
                    "velocity": 0.25984251968503935,
                    "duration": 0.11936033333333285
                },
                {
                    "name": "E5",
                    "midi": 76,
                    "time": 190.85717299999942,
                    "velocity": 0.29133858267716534,
                    "duration": 0.11936033333333285
                },
                {
                    "name": "F#5",
                    "midi": 78,
                    "time": 190.97653333333275,
                    "velocity": 0.25196850393700787,
                    "duration": 0.11936033333333285
                },
                {
                    "name": "G#5",
                    "midi": 80,
                    "time": 191.0958936666661,
                    "velocity": 0.25196850393700787,
                    "duration": 0.11936033333333285
                },
                {
                    "name": "F#5",
                    "midi": 78,
                    "time": 191.21525399999942,
                    "velocity": 0.3228346456692913,
                    "duration": 0.11936033333333285
                },
                {
                    "name": "G#5",
                    "midi": 80,
                    "time": 191.33461433333275,
                    "velocity": 0.25984251968503935,
                    "duration": 0.11936033333333285
                },
                {
                    "name": "A5",
                    "midi": 81,
                    "time": 191.45397466666608,
                    "velocity": 0.25984251968503935,
                    "duration": 0.11936033333333285
                },
                {
                    "name": "G#5",
                    "midi": 80,
                    "time": 191.57333499999942,
                    "velocity": 0.33858267716535434,
                    "duration": 0.11936033333333285
                },
                {
                    "name": "A#5",
                    "midi": 82,
                    "time": 191.69269533333275,
                    "velocity": 0.28346456692913385,
                    "duration": 0.11936033333333285
                },
                {
                    "name": "C6",
                    "midi": 84,
                    "time": 191.81205566666608,
                    "velocity": 0.2755905511811024,
                    "duration": 0.11936033333333285
                },
                {
                    "name": "C#6",
                    "midi": 85,
                    "time": 191.93141599999942,
                    "velocity": 0.36220472440944884,
                    "duration": 0.11936033333333285
                },
                {
                    "name": "D#6",
                    "midi": 87,
                    "time": 192.05077633333275,
                    "velocity": 0.30708661417322836,
                    "duration": 0.11936033333333285
                },
                {
                    "name": "E6",
                    "midi": 88,
                    "time": 192.17013666666608,
                    "velocity": 0.30708661417322836,
                    "duration": 0.11936033333333285
                },
                {
                    "name": "F#6",
                    "midi": 90,
                    "time": 192.28949699999941,
                    "velocity": 0.3937007874015748,
                    "duration": 0.11936033333333285
                },
                {
                    "name": "E6",
                    "midi": 88,
                    "time": 192.40885733333275,
                    "velocity": 0.30708661417322836,
                    "duration": 0.11936033333333285
                },
                {
                    "name": "D#6",
                    "midi": 87,
                    "time": 192.52821766666608,
                    "velocity": 0.30708661417322836,
                    "duration": 0.11936033333333285
                },
                {
                    "name": "E6",
                    "midi": 88,
                    "time": 192.6475779999994,
                    "velocity": 0.3779527559055118,
                    "duration": 0.11936033333333285
                },
                {
                    "name": "D#6",
                    "midi": 87,
                    "time": 192.76693833333275,
                    "velocity": 0.30708661417322836,
                    "duration": 0.11936033333333285
                },
                {
                    "name": "C#6",
                    "midi": 85,
                    "time": 192.88629866666608,
                    "velocity": 0.31496062992125984,
                    "duration": 0.11936033333333285
                },
                {
                    "name": "D#6",
                    "midi": 87,
                    "time": 193.0056589999994,
                    "velocity": 0.3700787401574803,
                    "duration": 0.11936033333333285
                },
                {
                    "name": "C#6",
                    "midi": 85,
                    "time": 193.12501933333274,
                    "velocity": 0.2992125984251969,
                    "duration": 0.11936033333333285
                },
                {
                    "name": "C6",
                    "midi": 84,
                    "time": 193.24437966666608,
                    "velocity": 0.2992125984251969,
                    "duration": 0.11936033333333285
                },
                {
                    "name": "C#6",
                    "midi": 85,
                    "time": 193.3637399999994,
                    "velocity": 0.33070866141732286,
                    "duration": 0.11936033333333285
                },
                {
                    "name": "B5",
                    "midi": 83,
                    "time": 193.48310033333274,
                    "velocity": 0.28346456692913385,
                    "duration": 0.11936033333333285
                },
                {
                    "name": "A5",
                    "midi": 81,
                    "time": 193.60246066666608,
                    "velocity": 0.28346456692913385,
                    "duration": 0.11936033333333285
                },
                {
                    "name": "B5",
                    "midi": 83,
                    "time": 193.7218209999994,
                    "velocity": 0.33070866141732286,
                    "duration": 0.11936033333333285
                },
                {
                    "name": "A5",
                    "midi": 81,
                    "time": 193.84118133333274,
                    "velocity": 0.2755905511811024,
                    "duration": 0.11936033333333285
                },
                {
                    "name": "G#5",
                    "midi": 80,
                    "time": 193.96054166666607,
                    "velocity": 0.2755905511811024,
                    "duration": 0.11936033333333285
                },
                {
                    "name": "F#5",
                    "midi": 78,
                    "time": 194.0799019999994,
                    "velocity": 0.31496062992125984,
                    "duration": 0.11936033333333285
                },
                {
                    "name": "E5",
                    "midi": 76,
                    "time": 194.19926233333274,
                    "velocity": 0.2677165354330709,
                    "duration": 0.11936033333333285
                },
                {
                    "name": "D#5",
                    "midi": 75,
                    "time": 194.31862266666607,
                    "velocity": 0.2677165354330709,
                    "duration": 0.11936033333333285
                },
                {
                    "name": "C#5",
                    "midi": 73,
                    "time": 194.4379829999994,
                    "velocity": 0.31496062992125984,
                    "duration": 0.11936033333333285
                },
                {
                    "name": "D#5",
                    "midi": 75,
                    "time": 194.55734333333274,
                    "velocity": 0.2755905511811024,
                    "duration": 0.11936033333333285
                },
                {
                    "name": "E5",
                    "midi": 76,
                    "time": 194.67670366666607,
                    "velocity": 0.2755905511811024,
                    "duration": 0.11936033333333285
                },
                {
                    "name": "D#5",
                    "midi": 75,
                    "time": 194.7960639999994,
                    "velocity": 0.3543307086614173,
                    "duration": 0.11936033333333285
                },
                {
                    "name": "E5",
                    "midi": 76,
                    "time": 194.91542433333274,
                    "velocity": 0.29133858267716534,
                    "duration": 0.11936033333333285
                },
                {
                    "name": "F#5",
                    "midi": 78,
                    "time": 195.03478466666607,
                    "velocity": 0.29133858267716534,
                    "duration": 0.11936033333333285
                },
                {
                    "name": "E5",
                    "midi": 76,
                    "time": 195.1541449999994,
                    "velocity": 0.3700787401574803,
                    "duration": 0.11936033333333285
                },
                {
                    "name": "F#5",
                    "midi": 78,
                    "time": 195.27350533333274,
                    "velocity": 0.30708661417322836,
                    "duration": 0.11936033333333285
                },
                {
                    "name": "G#5",
                    "midi": 80,
                    "time": 195.39286566666607,
                    "velocity": 0.2992125984251969,
                    "duration": 0.11936033333333285
                },
                {
                    "name": "A5",
                    "midi": 81,
                    "time": 195.5122259999994,
                    "velocity": 0.41732283464566927,
                    "duration": 0.7161619999999971
                },
                {
                    "name": "G#5",
                    "midi": 80,
                    "time": 196.2283879999994,
                    "velocity": 0.3779527559055118,
                    "duration": 0.35808099999999854
                },
                {
                    "name": "C#5",
                    "midi": 73,
                    "time": 196.5864689999994,
                    "velocity": 0.31496062992125984,
                    "duration": 0.11936033333333285
                },
                {
                    "name": "D#5",
                    "midi": 75,
                    "time": 196.70582933333273,
                    "velocity": 0.2755905511811024,
                    "duration": 0.11936033333333285
                },
                {
                    "name": "E5",
                    "midi": 76,
                    "time": 196.82518966666606,
                    "velocity": 0.2755905511811024,
                    "duration": 0.11936033333333285
                },
                {
                    "name": "D#5",
                    "midi": 75,
                    "time": 196.9445499999994,
                    "velocity": 0.36220472440944884,
                    "duration": 0.11936033333333285
                },
                {
                    "name": "E5",
                    "midi": 76,
                    "time": 197.06391033333273,
                    "velocity": 0.29133858267716534,
                    "duration": 0.11936033333333285
                },
                {
                    "name": "F#5",
                    "midi": 78,
                    "time": 197.18327066666606,
                    "velocity": 0.29133858267716534,
                    "duration": 0.11936033333333285
                },
                {
                    "name": "E5",
                    "midi": 76,
                    "time": 197.3026309999994,
                    "velocity": 0.3779527559055118,
                    "duration": 0.11936033333333285
                },
                {
                    "name": "F#5",
                    "midi": 78,
                    "time": 197.42199133333273,
                    "velocity": 0.30708661417322836,
                    "duration": 0.11936033333333285
                },
                {
                    "name": "G#5",
                    "midi": 80,
                    "time": 197.54135166666606,
                    "velocity": 0.2992125984251969,
                    "duration": 0.11936033333333285
                },
                {
                    "name": "A5",
                    "midi": 81,
                    "time": 197.6607119999994,
                    "velocity": 0.41732283464566927,
                    "duration": 0.7161619999999971
                },
                {
                    "name": "G#5",
                    "midi": 80,
                    "time": 198.3768739999994,
                    "velocity": 0.3779527559055118,
                    "duration": 0.35808099999999854
                },
                {
                    "name": "E5",
                    "midi": 76,
                    "time": 198.7349549999994,
                    "velocity": 0.36220472440944884,
                    "duration": 0.11936033333333285
                },
                {
                    "name": "F#5",
                    "midi": 78,
                    "time": 198.85431533333272,
                    "velocity": 0.2992125984251969,
                    "duration": 0.11936033333333285
                },
                {
                    "name": "G5",
                    "midi": 79,
                    "time": 198.97367566666605,
                    "velocity": 0.2992125984251969,
                    "duration": 0.11936033333333285
                },
                {
                    "name": "F#5",
                    "midi": 78,
                    "time": 199.0930359999994,
                    "velocity": 0.4015748031496063,
                    "duration": 0.11936033333333285
                },
                {
                    "name": "G5",
                    "midi": 79,
                    "time": 199.21239633333272,
                    "velocity": 0.31496062992125984,
                    "duration": 0.11936033333333285
                },
                {
                    "name": "A5",
                    "midi": 81,
                    "time": 199.33175666666605,
                    "velocity": 0.31496062992125984,
                    "duration": 0.11936033333333285
                },
                {
                    "name": "G5",
                    "midi": 79,
                    "time": 199.45111699999939,
                    "velocity": 0.4094488188976378,
                    "duration": 0.11936033333333285
                },
                {
                    "name": "A5",
                    "midi": 81,
                    "time": 199.57047733333272,
                    "velocity": 0.33070866141732286,
                    "duration": 0.11936033333333285
                },
                {
                    "name": "B5",
                    "midi": 83,
                    "time": 199.68983766666605,
                    "velocity": 0.3228346456692913,
                    "duration": 0.11936033333333285
                },
                {
                    "name": "C6",
                    "midi": 84,
                    "time": 199.80919799999938,
                    "velocity": 0.4566929133858268,
                    "duration": 0.7161619999999971
                },
                {
                    "name": "B5",
                    "midi": 83,
                    "time": 200.52535999999938,
                    "velocity": 0.4094488188976378,
                    "duration": 0.3655410208333194
                },
                {
                    "name": "D6",
                    "midi": 86,
                    "time": 200.88344099999938,
                    "velocity": 0.5826771653543307,
                    "duration": 0.7161619999999971
                },
                {
                    "name": "C#6",
                    "midi": 85,
                    "time": 201.59960299999938,
                    "velocity": 0.49606299212598426,
                    "duration": 0.35808099999999854
                },
                {
                    "name": "F#5",
                    "midi": 78,
                    "time": 201.95768399999938,
                    "velocity": 0.4566929133858268,
                    "duration": 0.11936033333333285
                },
                {
                    "name": "G#5",
                    "midi": 80,
                    "time": 202.0770443333327,
                    "velocity": 0.3937007874015748,
                    "duration": 0.11936033333333285
                },
                {
                    "name": "A5",
                    "midi": 81,
                    "time": 202.19640466666604,
                    "velocity": 0.3937007874015748,
                    "duration": 0.11936033333333285
                },
                {
                    "name": "G#5",
                    "midi": 80,
                    "time": 202.31576499999937,
                    "velocity": 0.47244094488188976,
                    "duration": 0.11936033333333285
                },
                {
                    "name": "A5",
                    "midi": 81,
                    "time": 202.4351253333327,
                    "velocity": 0.3779527559055118,
                    "duration": 0.11936033333333285
                },
                {
                    "name": "B5",
                    "midi": 83,
                    "time": 202.55448566666604,
                    "velocity": 0.3779527559055118,
                    "duration": 0.11936033333333285
                },
                {
                    "name": "G5",
                    "midi": 79,
                    "time": 202.67384599999937,
                    "velocity": 0.4881889763779528,
                    "duration": 0.35808099999999854
                },
                {
                    "name": "C#6",
                    "midi": 85,
                    "time": 202.67384599999937,
                    "velocity": 0.4881889763779528,
                    "duration": 0.35808099999999854
                },
                {
                    "name": "F#6",
                    "midi": 90,
                    "time": 203.03192699999937,
                    "velocity": 0.44881889763779526,
                    "duration": 0.17904050000001348
                },
                {
                    "name": "F#5",
                    "midi": 78,
                    "time": 203.03192699999937,
                    "velocity": 0.44881889763779526,
                    "duration": 0.17904050000001348
                },
                {
                    "name": "F#5",
                    "midi": 78,
                    "time": 203.7480889999994,
                    "velocity": 0.5039370078740157,
                    "duration": 0.11936033333333285
                },
                {
                    "name": "B5",
                    "midi": 83,
                    "time": 203.86744933333273,
                    "velocity": 0.4330708661417323,
                    "duration": 0.11936033333333285
                },
                {
                    "name": "F#5",
                    "midi": 78,
                    "time": 203.98680966666606,
                    "velocity": 0.4330708661417323,
                    "duration": 0.11936033333333285
                },
                {
                    "name": "E6",
                    "midi": 88,
                    "time": 204.1061699999994,
                    "velocity": 0.49606299212598426,
                    "duration": 0.17904050000001348
                },
                {
                    "name": "E5",
                    "midi": 76,
                    "time": 204.1061699999994,
                    "velocity": 0.49606299212598426,
                    "duration": 0.11936033333333285
                },
                {
                    "name": "F#5",
                    "midi": 78,
                    "time": 204.22553033333273,
                    "velocity": 0.3937007874015748,
                    "duration": 0.11936033333336127
                },
                {
                    "name": "G#5",
                    "midi": 80,
                    "time": 204.3448906666661,
                    "velocity": 0.3937007874015748,
                    "duration": 0.11936033333333285
                },
                {
                    "name": "F#5",
                    "midi": 78,
                    "time": 204.46425099999942,
                    "velocity": 0.44881889763779526,
                    "duration": 0.11936033333333285
                },
                {
                    "name": "G#5",
                    "midi": 80,
                    "time": 204.58361133333275,
                    "velocity": 0.3779527559055118,
                    "duration": 0.11936033333333285
                },
                {
                    "name": "A5",
                    "midi": 81,
                    "time": 204.7029716666661,
                    "velocity": 0.3779527559055118,
                    "duration": 0.11936033333333285
                },
                {
                    "name": "F5",
                    "midi": 77,
                    "time": 204.82233199999942,
                    "velocity": 0.5118110236220472,
                    "duration": 0.35808099999999854
                },
                {
                    "name": "B5",
                    "midi": 83,
                    "time": 204.82233199999942,
                    "velocity": 0.5118110236220472,
                    "duration": 0.35808099999999854
                },
                {
                    "name": "E5",
                    "midi": 76,
                    "time": 205.18041299999942,
                    "velocity": 0.5039370078740157,
                    "duration": 0.17904050000001348
                },
                {
                    "name": "E6",
                    "midi": 88,
                    "time": 205.18041299999942,
                    "velocity": 0.5039370078740157,
                    "duration": 0.17904050000001348
                },
                {
                    "name": "E5",
                    "midi": 76,
                    "time": 205.89657499999944,
                    "velocity": 0.5118110236220472,
                    "duration": 0.11936033333333285
                },
                {
                    "name": "A5",
                    "midi": 81,
                    "time": 206.01593533333278,
                    "velocity": 0.4330708661417323,
                    "duration": 0.11936033333333285
                },
                {
                    "name": "E5",
                    "midi": 76,
                    "time": 206.1352956666661,
                    "velocity": 0.4330708661417323,
                    "duration": 0.11936033333333285
                },
                {
                    "name": "D5",
                    "midi": 74,
                    "time": 206.25465599999944,
                    "velocity": 0.5196850393700787,
                    "duration": 0.11936033333333285
                },
                {
                    "name": "D6",
                    "midi": 86,
                    "time": 206.25465599999944,
                    "velocity": 0.5196850393700787,
                    "duration": 0.17904050000001348
                },
                {
                    "name": "E5",
                    "midi": 76,
                    "time": 206.37401633333278,
                    "velocity": 0.3937007874015748,
                    "duration": 0.11936033333336127
                },
                {
                    "name": "F#5",
                    "midi": 78,
                    "time": 206.49337666666614,
                    "velocity": 0.3937007874015748,
                    "duration": 0.11936033333333285
                },
                {
                    "name": "E5",
                    "midi": 76,
                    "time": 206.61273699999947,
                    "velocity": 0.44881889763779526,
                    "duration": 0.11936033333333285
                },
                {
                    "name": "F#5",
                    "midi": 78,
                    "time": 206.7320973333328,
                    "velocity": 0.3779527559055118,
                    "duration": 0.11936033333333285
                },
                {
                    "name": "G5",
                    "midi": 79,
                    "time": 206.85145766666614,
                    "velocity": 0.3779527559055118,
                    "duration": 0.11936033333333285
                },
                {
                    "name": "A5",
                    "midi": 81,
                    "time": 206.97081799999947,
                    "velocity": 0.5433070866141733,
                    "duration": 0.35808099999999854
                },
                {
                    "name": "D5",
                    "midi": 74,
                    "time": 206.97081799999947,
                    "velocity": 0.5433070866141733,
                    "duration": 0.7161619999999971
                },
                {
                    "name": "D6",
                    "midi": 86,
                    "time": 206.97081799999947,
                    "velocity": 0.5433070866141733,
                    "duration": 0.7161619999999971
                },
                {
                    "name": "G#5",
                    "midi": 80,
                    "time": 207.32889899999947,
                    "velocity": 0.5275590551181102,
                    "duration": 0.35808099999999854
                },
                {
                    "name": "A5",
                    "midi": 81,
                    "time": 208.04506099999946,
                    "velocity": 0.5118110236220472,
                    "duration": 0.11936033333333285
                },
                {
                    "name": "D6",
                    "midi": 86,
                    "time": 208.1644213333328,
                    "velocity": 0.4330708661417323,
                    "duration": 0.11936033333333285
                },
                {
                    "name": "A5",
                    "midi": 81,
                    "time": 208.28378166666613,
                    "velocity": 0.4409448818897638,
                    "duration": 0.11936033333333285
                },
                {
                    "name": "G#5",
                    "midi": 80,
                    "time": 208.40314199999946,
                    "velocity": 0.5118110236220472,
                    "duration": 0.11936033333333285
                },
                {
                    "name": "A5",
                    "midi": 81,
                    "time": 208.5225023333328,
                    "velocity": 0.41732283464566927,
                    "duration": 0.11936033333333285
                },
                {
                    "name": "B5",
                    "midi": 83,
                    "time": 208.64186266666613,
                    "velocity": 0.41732283464566927,
                    "duration": 0.11936033333333285
                },
                {
                    "name": "A5",
                    "midi": 81,
                    "time": 208.76122299999946,
                    "velocity": 0.4881889763779528,
                    "duration": 0.11936033333333285
                },
                {
                    "name": "B5",
                    "midi": 83,
                    "time": 208.8805833333328,
                    "velocity": 0.4094488188976378,
                    "duration": 0.11936033333333285
                },
                {
                    "name": "C6",
                    "midi": 84,
                    "time": 208.99994366666613,
                    "velocity": 0.4094488188976378,
                    "duration": 0.11936033333333285
                },
                {
                    "name": "A5",
                    "midi": 81,
                    "time": 209.11930399999946,
                    "velocity": 0.5433070866141733,
                    "duration": 0.35808099999999854
                },
                {
                    "name": "D5",
                    "midi": 74,
                    "time": 209.11930399999946,
                    "velocity": 0.5433070866141733,
                    "duration": 0.7161619999999971
                },
                {
                    "name": "D6",
                    "midi": 86,
                    "time": 209.11930399999946,
                    "velocity": 0.5433070866141733,
                    "duration": 0.7161619999999971
                },
                {
                    "name": "G#5",
                    "midi": 80,
                    "time": 209.47738499999946,
                    "velocity": 0.5354330708661418,
                    "duration": 0.35808099999999854
                },
                {
                    "name": "A5",
                    "midi": 81,
                    "time": 210.19354699999946,
                    "velocity": 0.5118110236220472,
                    "duration": 0.11936033333333285
                },
                {
                    "name": "D6",
                    "midi": 86,
                    "time": 210.3129073333328,
                    "velocity": 0.44881889763779526,
                    "duration": 0.11936033333333285
                },
                {
                    "name": "A5",
                    "midi": 81,
                    "time": 210.43226766666612,
                    "velocity": 0.44881889763779526,
                    "duration": 0.11936033333333285
                },
                {
                    "name": "G#5",
                    "midi": 80,
                    "time": 210.55162799999945,
                    "velocity": 0.5039370078740157,
                    "duration": 0.11936033333333285
                },
                {
                    "name": "A5",
                    "midi": 81,
                    "time": 210.6709883333328,
                    "velocity": 0.3937007874015748,
                    "duration": 0.11936033333333285
                },
                {
                    "name": "B5",
                    "midi": 83,
                    "time": 210.79034866666612,
                    "velocity": 0.3937007874015748,
                    "duration": 0.11936033333333285
                },
                {
                    "name": "A5",
                    "midi": 81,
                    "time": 210.90970899999945,
                    "velocity": 0.44881889763779526,
                    "duration": 0.11936033333333285
                },
                {
                    "name": "B5",
                    "midi": 83,
                    "time": 211.02906933333279,
                    "velocity": 0.3779527559055118,
                    "duration": 0.11936033333333285
                },
                {
                    "name": "C6",
                    "midi": 84,
                    "time": 211.14842966666612,
                    "velocity": 0.3779527559055118,
                    "duration": 0.11936033333333285
                },
                {
                    "name": "A5",
                    "midi": 81,
                    "time": 211.26778999999945,
                    "velocity": 0.5354330708661418,
                    "duration": 0.35808099999999854
                },
                {
                    "name": "D5",
                    "midi": 74,
                    "time": 211.26778999999945,
                    "velocity": 0.5354330708661418,
                    "duration": 0.7161619999999971
                },
                {
                    "name": "D6",
                    "midi": 86,
                    "time": 211.26778999999945,
                    "velocity": 0.5354330708661418,
                    "duration": 0.7161619999999971
                },
                {
                    "name": "G#5",
                    "midi": 80,
                    "time": 211.62587099999945,
                    "velocity": 0.5275590551181102,
                    "duration": 0.35808099999999854
                },
                {
                    "name": "A4",
                    "midi": 69,
                    "time": 212.70011399999945,
                    "velocity": 0.3937007874015748,
                    "duration": 0.11936033333333285
                },
                {
                    "name": "B4",
                    "midi": 71,
                    "time": 212.81947433333278,
                    "velocity": 0.36220472440944884,
                    "duration": 0.11936033333333285
                },
                {
                    "name": "C5",
                    "midi": 72,
                    "time": 212.9388346666661,
                    "velocity": 0.36220472440944884,
                    "duration": 0.11936033333333285
                },
                {
                    "name": "B4",
                    "midi": 71,
                    "time": 213.05819499999944,
                    "velocity": 0.3937007874015748,
                    "duration": 0.11936033333333285
                },
                {
                    "name": "C5",
                    "midi": 72,
                    "time": 213.17755533333278,
                    "velocity": 0.36220472440944884,
                    "duration": 0.11936033333333285
                },
                {
                    "name": "D5",
                    "midi": 74,
                    "time": 213.2969156666661,
                    "velocity": 0.36220472440944884,
                    "duration": 0.11936033333333285
                },
                {
                    "name": "E5",
                    "midi": 76,
                    "time": 213.41627599999944,
                    "velocity": 0.5118110236220472,
                    "duration": 0.35808099999999854
                },
                {
                    "name": "A4",
                    "midi": 69,
                    "time": 213.77435699999944,
                    "velocity": 0.3937007874015748,
                    "duration": 0.11936033333333285
                },
                {
                    "name": "B4",
                    "midi": 71,
                    "time": 213.89371733333277,
                    "velocity": 0.3543307086614173,
                    "duration": 0.11936033333333285
                },
                {
                    "name": "C5",
                    "midi": 72,
                    "time": 214.0130776666661,
                    "velocity": 0.3543307086614173,
                    "duration": 0.11936033333333285
                },
                {
                    "name": "B4",
                    "midi": 71,
                    "time": 214.13243799999944,
                    "velocity": 0.5511811023622047,
                    "duration": 0.35808099999999854
                },
                {
                    "name": "C5",
                    "midi": 72,
                    "time": 214.25179833333277,
                    "velocity": 0.3464566929133858,
                    "duration": 0.11936033333333285
                },
                {
                    "name": "D5",
                    "midi": 74,
                    "time": 214.3711586666661,
                    "velocity": 0.3464566929133858,
                    "duration": 0.11936033333333285
                },
                {
                    "name": "E5",
                    "midi": 76,
                    "time": 214.49051899999944,
                    "velocity": 0.5118110236220472,
                    "duration": 0.35808099999999854
                },
                {
                    "name": "A4",
                    "midi": 69,
                    "time": 214.84859999999944,
                    "velocity": 0.3937007874015748,
                    "duration": 0.11936033333333285
                },
                {
                    "name": "B4",
                    "midi": 71,
                    "time": 214.96796033333277,
                    "velocity": 0.3543307086614173,
                    "duration": 0.11936033333333285
                },
                {
                    "name": "C5",
                    "midi": 72,
                    "time": 215.0873206666661,
                    "velocity": 0.3543307086614173,
                    "duration": 0.11936033333333285
                },
                {
                    "name": "B4",
                    "midi": 71,
                    "time": 215.20668099999943,
                    "velocity": 0.5196850393700787,
                    "duration": 0.35808099999999854
                },
                {
                    "name": "C5",
                    "midi": 72,
                    "time": 215.32604133333277,
                    "velocity": 0.3543307086614173,
                    "duration": 0.11936033333333285
                },
                {
                    "name": "D5",
                    "midi": 74,
                    "time": 215.4454016666661,
                    "velocity": 0.3543307086614173,
                    "duration": 0.11936033333333285
                },
                {
                    "name": "C5",
                    "midi": 72,
                    "time": 215.56476199999943,
                    "velocity": 0.3937007874015748,
                    "duration": 0.11936033333333285
                },
                {
                    "name": "D5",
                    "midi": 74,
                    "time": 215.68412233333277,
                    "velocity": 0.3779527559055118,
                    "duration": 0.11936033333333285
                },
                {
                    "name": "E5",
                    "midi": 76,
                    "time": 215.8034826666661,
                    "velocity": 0.3937007874015748,
                    "duration": 0.11936033333333285
                },
                {
                    "name": "F5",
                    "midi": 77,
                    "time": 215.92284299999943,
                    "velocity": 0.3937007874015748,
                    "duration": 0.11936033333333285
                },
                {
                    "name": "G5",
                    "midi": 79,
                    "time": 216.04220333333276,
                    "velocity": 0.4251968503937008,
                    "duration": 0.11936033333333285
                },
                {
                    "name": "A5",
                    "midi": 81,
                    "time": 216.1615636666661,
                    "velocity": 0.4566929133858268,
                    "duration": 0.11936033333333285
                },
                {
                    "name": "G5",
                    "midi": 79,
                    "time": 216.28092399999943,
                    "velocity": 0.48031496062992124,
                    "duration": 0.11936033333333285
                },
                {
                    "name": "F5",
                    "midi": 77,
                    "time": 216.40028433333276,
                    "velocity": 0.4409448818897638,
                    "duration": 0.11936033333333285
                },
                {
                    "name": "E5",
                    "midi": 76,
                    "time": 216.5196446666661,
                    "velocity": 0.41732283464566927,
                    "duration": 0.11936033333333285
                },
                {
                    "name": "D5",
                    "midi": 74,
                    "time": 216.63900499999943,
                    "velocity": 0.4330708661417323,
                    "duration": 0.11936033333333285
                },
                {
                    "name": "C5",
                    "midi": 72,
                    "time": 216.75836533333276,
                    "velocity": 0.4094488188976378,
                    "duration": 0.11936033333333285
                },
                {
                    "name": "B4",
                    "midi": 71,
                    "time": 216.8777256666661,
                    "velocity": 0.3779527559055118,
                    "duration": 0.11936033333333285
                },
                {
                    "name": "A4",
                    "midi": 69,
                    "time": 216.99708599999943,
                    "velocity": 0.4409448818897638,
                    "duration": 0.11936033333333285
                },
                {
                    "name": "B4",
                    "midi": 71,
                    "time": 217.11644633333276,
                    "velocity": 0.3937007874015748,
                    "duration": 0.11936033333333285
                },
                {
                    "name": "C5",
                    "midi": 72,
                    "time": 217.2358066666661,
                    "velocity": 0.3937007874015748,
                    "duration": 0.11936033333333285
                },
                {
                    "name": "B4",
                    "midi": 71,
                    "time": 217.35516699999943,
                    "velocity": 0.41732283464566927,
                    "duration": 0.11936033333333285
                },
                {
                    "name": "A4",
                    "midi": 69,
                    "time": 217.47452733333276,
                    "velocity": 0.3779527559055118,
                    "duration": 0.11936033333333285
                },
                {
                    "name": "G4",
                    "midi": 67,
                    "time": 217.5938876666661,
                    "velocity": 0.3779527559055118,
                    "duration": 0.11936033333333285
                },
                {
                    "name": "F4",
                    "midi": 65,
                    "time": 217.71324799999942,
                    "velocity": 0.41732283464566927,
                    "duration": 0.11936033333333285
                },
                {
                    "name": "E4",
                    "midi": 64,
                    "time": 217.83260833333276,
                    "velocity": 0.3700787401574803,
                    "duration": 0.11936033333333285
                },
                {
                    "name": "D#4",
                    "midi": 63,
                    "time": 217.9519686666661,
                    "velocity": 0.3700787401574803,
                    "duration": 0.11936033333333285
                },
                {
                    "name": "E4",
                    "midi": 64,
                    "time": 218.07132899999942,
                    "velocity": 0.44881889763779526,
                    "duration": 0.35808099999999854
                },
                {
                    "name": "B3",
                    "midi": 59,
                    "time": 218.78749099999942,
                    "velocity": 0.3937007874015748,
                    "duration": 0.11936033333333285
                },
                {
                    "name": "C#4",
                    "midi": 61,
                    "time": 218.90685133333275,
                    "velocity": 0.3543307086614173,
                    "duration": 0.11936033333333285
                },
                {
                    "name": "D#4",
                    "midi": 63,
                    "time": 219.0262116666661,
                    "velocity": 0.3543307086614173,
                    "duration": 0.11936033333333285
                },
                {
                    "name": "E4",
                    "midi": 64,
                    "time": 219.14557199999942,
                    "velocity": 0.4251968503937008,
                    "duration": 0.11936033333333285
                },
                {
                    "name": "F#4",
                    "midi": 66,
                    "time": 219.26493233333275,
                    "velocity": 0.3858267716535433,
                    "duration": 0.11936033333333285
                },
                {
                    "name": "G#4",
                    "midi": 68,
                    "time": 219.38429266666608,
                    "velocity": 0.3858267716535433,
                    "duration": 0.11936033333333285
                },
                {
                    "name": "A4",
                    "midi": 69,
                    "time": 219.50365299999942,
                    "velocity": 0.4645669291338583,
                    "duration": 0.35808099999999854
                },
                {
                    "name": "B3",
                    "midi": 59,
                    "time": 219.86173399999942,
                    "velocity": 0.3937007874015748,
                    "duration": 0.11936033333333285
                },
                {
                    "name": "C#4",
                    "midi": 61,
                    "time": 219.98109433333275,
                    "velocity": 0.3543307086614173,
                    "duration": 0.11936033333333285
                },
                {
                    "name": "D#4",
                    "midi": 63,
                    "time": 220.10045466666608,
                    "velocity": 0.3543307086614173,
                    "duration": 0.11936033333333285
                },
                {
                    "name": "E4",
                    "midi": 64,
                    "time": 220.21981499999941,
                    "velocity": 0.4251968503937008,
                    "duration": 0.11936033333333285
                },
                {
                    "name": "F#4",
                    "midi": 66,
                    "time": 220.33917533333275,
                    "velocity": 0.3779527559055118,
                    "duration": 0.11936033333333285
                },
                {
                    "name": "G#4",
                    "midi": 68,
                    "time": 220.45853566666608,
                    "velocity": 0.3779527559055118,
                    "duration": 0.11936033333333285
                },
                {
                    "name": "A4",
                    "midi": 69,
                    "time": 220.5778959999994,
                    "velocity": 0.4566929133858268,
                    "duration": 0.35808099999999854
                },
                {
                    "name": "B3",
                    "midi": 59,
                    "time": 220.9359769999994,
                    "velocity": 0.3937007874015748,
                    "duration": 0.11936033333333285
                },
                {
                    "name": "C#4",
                    "midi": 61,
                    "time": 221.05533733333274,
                    "velocity": 0.36220472440944884,
                    "duration": 0.11936033333333285
                },
                {
                    "name": "D#4",
                    "midi": 63,
                    "time": 221.17469766666608,
                    "velocity": 0.36220472440944884,
                    "duration": 0.11936033333333285
                },
                {
                    "name": "E4",
                    "midi": 64,
                    "time": 221.2940579999994,
                    "velocity": 0.4251968503937008,
                    "duration": 0.11936033333333285
                },
                {
                    "name": "F#4",
                    "midi": 66,
                    "time": 221.41341833333274,
                    "velocity": 0.3700787401574803,
                    "duration": 0.11936033333333285
                },
                {
                    "name": "G#4",
                    "midi": 68,
                    "time": 221.53277866666608,
                    "velocity": 0.3700787401574803,
                    "duration": 0.11936033333333285
                },
                {
                    "name": "F#4",
                    "midi": 66,
                    "time": 221.6521389999994,
                    "velocity": 0.47244094488188976,
                    "duration": 0.11936033333333285
                },
                {
                    "name": "G#4",
                    "midi": 68,
                    "time": 221.77149933333274,
                    "velocity": 0.41732283464566927,
                    "duration": 0.11936033333333285
                },
                {
                    "name": "A4",
                    "midi": 69,
                    "time": 221.89085966666607,
                    "velocity": 0.41732283464566927,
                    "duration": 0.11936033333333285
                },
                {
                    "name": "G#4",
                    "midi": 68,
                    "time": 222.0102199999994,
                    "velocity": 0.5039370078740157,
                    "duration": 0.11936033333333285
                },
                {
                    "name": "A4",
                    "midi": 69,
                    "time": 222.12958033333274,
                    "velocity": 0.4566929133858268,
                    "duration": 0.11936033333333285
                },
                {
                    "name": "B4",
                    "midi": 71,
                    "time": 222.24894066666607,
                    "velocity": 0.47244094488188976,
                    "duration": 0.11936033333333285
                },
                {
                    "name": "A4",
                    "midi": 69,
                    "time": 222.3683009999994,
                    "velocity": 0.5354330708661418,
                    "duration": 0.11936033333333285
                },
                {
                    "name": "B4",
                    "midi": 71,
                    "time": 222.48766133333274,
                    "velocity": 0.47244094488188976,
                    "duration": 0.11936033333333285
                },
                {
                    "name": "C5",
                    "midi": 72,
                    "time": 222.60702166666607,
                    "velocity": 0.49606299212598426,
                    "duration": 0.11936033333333285
                },
                {
                    "name": "B4",
                    "midi": 71,
                    "time": 222.7263819999994,
                    "velocity": 0.5748031496062992,
                    "duration": 0.11936033333333285
                },
                {
                    "name": "C5",
                    "midi": 72,
                    "time": 222.84574233333274,
                    "velocity": 0.49606299212598426,
                    "duration": 0.11936033333333285
                },
                {
                    "name": "D5",
                    "midi": 74,
                    "time": 222.96510266666607,
                    "velocity": 0.5354330708661418,
                    "duration": 0.11936033333333285
                },
                {
                    "name": "C5",
                    "midi": 72,
                    "time": 223.0844629999994,
                    "velocity": 0.6220472440944882,
                    "duration": 0.11936033333333285
                },
                {
                    "name": "D5",
                    "midi": 74,
                    "time": 223.20382333333274,
                    "velocity": 0.5354330708661418,
                    "duration": 0.11936033333333285
                },
                {
                    "name": "E5",
                    "midi": 76,
                    "time": 223.32318366666607,
                    "velocity": 0.5826771653543307,
                    "duration": 0.11936033333333285
                },
                {
                    "name": "F4",
                    "midi": 65,
                    "time": 223.4425439999994,
                    "velocity": 0.7322834645669292,
                    "duration": 0.11936033333333285
                },
                {
                    "name": "A#4",
                    "midi": 70,
                    "time": 223.56190433333273,
                    "velocity": 0.6220472440944882,
                    "duration": 0.11936033333333285
                },
                {
                    "name": "D5",
                    "midi": 74,
                    "time": 223.68126466666607,
                    "velocity": 0.6062992125984252,
                    "duration": 0.11936033333333285
                },
                {
                    "name": "F5",
                    "midi": 77,
                    "time": 223.8006249999994,
                    "velocity": 0.7086614173228346,
                    "duration": 0.11936033333333285
                },
                {
                    "name": "A#5",
                    "midi": 82,
                    "time": 223.91998533333273,
                    "velocity": 0.6220472440944882,
                    "duration": 0.11936033333333285
                },
                {
                    "name": "D6",
                    "midi": 86,
                    "time": 224.03934566666607,
                    "velocity": 0.6220472440944882,
                    "duration": 0.11936033333333285
                },
                {
                    "name": "F6",
                    "midi": 89,
                    "time": 224.1587059999994,
                    "velocity": 0.7007874015748031,
                    "duration": 0.11936033333333285
                },
                {
                    "name": "A#6",
                    "midi": 94,
                    "time": 224.27806633333273,
                    "velocity": 0.6141732283464567,
                    "duration": 0.11936033333333285
                },
                {
                    "name": "D7",
                    "midi": 98,
                    "time": 224.39742666666606,
                    "velocity": 0.6141732283464567,
                    "duration": 0.11936033333333285
                },
                {
                    "name": "F7",
                    "midi": 101,
                    "time": 224.5167869999994,
                    "velocity": 0.7559055118110236,
                    "duration": 0.08952024999999253
                },
                {
                    "name": "C5",
                    "midi": 72,
                    "time": 224.8748679999994,
                    "velocity": 0.6220472440944882,
                    "duration": 0.17904050000001348
                },
                {
                    "name": "E4",
                    "midi": 64,
                    "time": 224.8748679999994,
                    "velocity": 0.6220472440944882,
                    "duration": 0.17904050000001348
                },
                {
                    "name": "A4",
                    "midi": 69,
                    "time": 224.8748679999994,
                    "velocity": 0.6220472440944882,
                    "duration": 0.17904050000001348
                },
                {
                    "name": "E5",
                    "midi": 76,
                    "time": 224.8748679999994,
                    "velocity": 0.7322834645669292,
                    "duration": 0.17904050000001348
                },
                {
                    "name": "G#4",
                    "midi": 68,
                    "time": 225.23294899999942,
                    "velocity": 0.5826771653543307,
                    "duration": 0.17904050000001348
                },
                {
                    "name": "E5",
                    "midi": 76,
                    "time": 225.23294899999942,
                    "velocity": 0.6929133858267716,
                    "duration": 0.17904050000001348
                },
                {
                    "name": "B4",
                    "midi": 71,
                    "time": 225.23294899999942,
                    "velocity": 0.5826771653543307,
                    "duration": 0.17904050000001348
                },
                {
                    "name": "E4",
                    "midi": 64,
                    "time": 225.23294899999942,
                    "velocity": 0.5826771653543307,
                    "duration": 0.17904050000001348
                },
                {
                    "name": "A4",
                    "midi": 69,
                    "time": 225.59102999999945,
                    "velocity": 0.5275590551181102,
                    "duration": 0.35808099999999854
                },
                {
                    "name": "E4",
                    "midi": 64,
                    "time": 226.30719199999945,
                    "velocity": 0.5196850393700787,
                    "duration": 0.11936033333333285
                },
                {
                    "name": "F#4",
                    "midi": 66,
                    "time": 226.42655233333278,
                    "velocity": 0.4251968503937008,
                    "duration": 0.11936033333333285
                },
                {
                    "name": "G#4",
                    "midi": 68,
                    "time": 226.5459126666661,
                    "velocity": 0.41732283464566927,
                    "duration": 0.11936033333333285
                },
                {
                    "name": "A4",
                    "midi": 69,
                    "time": 226.66527299999944,
                    "velocity": 0.5039370078740157,
                    "duration": 0.11936033333333285
                },
                {
                    "name": "B4",
                    "midi": 71,
                    "time": 226.78463333333278,
                    "velocity": 0.4330708661417323,
                    "duration": 0.11936033333333285
                },
                {
                    "name": "C5",
                    "midi": 72,
                    "time": 226.9039936666661,
                    "velocity": 0.4330708661417323,
                    "duration": 0.11936033333333285
                },
                {
                    "name": "D5",
                    "midi": 74,
                    "time": 227.02335399999944,
                    "velocity": 0.5118110236220472,
                    "duration": 0.35808099999999854
                },
                {
                    "name": "E4",
                    "midi": 64,
                    "time": 227.38143499999944,
                    "velocity": 0.5039370078740157,
                    "duration": 0.11936033333333285
                },
                {
                    "name": "F#4",
                    "midi": 66,
                    "time": 227.50079533333277,
                    "velocity": 0.4566929133858268,
                    "duration": 0.11936033333333285
                },
                {
                    "name": "G#4",
                    "midi": 68,
                    "time": 227.6201556666661,
                    "velocity": 0.4566929133858268,
                    "duration": 0.11936033333333285
                },
                {
                    "name": "A4",
                    "midi": 69,
                    "time": 227.73951599999944,
                    "velocity": 0.5039370078740157,
                    "duration": 0.11936033333333285
                },
                {
                    "name": "B4",
                    "midi": 71,
                    "time": 227.85887633333277,
                    "velocity": 0.4330708661417323,
                    "duration": 0.11936033333333285
                },
                {
                    "name": "C5",
                    "midi": 72,
                    "time": 227.9782366666661,
                    "velocity": 0.4330708661417323,
                    "duration": 0.11936033333333285
                },
                {
                    "name": "D5",
                    "midi": 74,
                    "time": 228.09759699999944,
                    "velocity": 0.5118110236220472,
                    "duration": 0.35808099999999854
                },
                {
                    "name": "E4",
                    "midi": 64,
                    "time": 228.45567799999944,
                    "velocity": 0.5039370078740157,
                    "duration": 0.11936033333333285
                },
                {
                    "name": "F#4",
                    "midi": 66,
                    "time": 228.57503833333277,
                    "velocity": 0.4566929133858268,
                    "duration": 0.11936033333333285
                },
                {
                    "name": "G#4",
                    "midi": 68,
                    "time": 228.6943986666661,
                    "velocity": 0.4566929133858268,
                    "duration": 0.11936033333333285
                },
                {
                    "name": "A4",
                    "midi": 69,
                    "time": 228.81375899999944,
                    "velocity": 0.5354330708661418,
                    "duration": 0.11936033333333285
                },
                {
                    "name": "B4",
                    "midi": 71,
                    "time": 228.93311933333277,
                    "velocity": 0.47244094488188976,
                    "duration": 0.11936033333333285
                },
                {
                    "name": "C5",
                    "midi": 72,
                    "time": 229.0524796666661,
                    "velocity": 0.49606299212598426,
                    "duration": 0.11936033333333285
                },
                {
                    "name": "B4",
                    "midi": 71,
                    "time": 229.17183999999943,
                    "velocity": 0.5748031496062992,
                    "duration": 0.11936033333333285
                },
                {
                    "name": "C5",
                    "midi": 72,
                    "time": 229.29120033333277,
                    "velocity": 0.49606299212598426,
                    "duration": 0.11936033333333285
                },
                {
                    "name": "D5",
                    "midi": 74,
                    "time": 229.4105606666661,
                    "velocity": 0.5354330708661418,
                    "duration": 0.11936033333333285
                },
                {
                    "name": "C5",
                    "midi": 72,
                    "time": 229.52992099999943,
                    "velocity": 0.6220472440944882,
                    "duration": 0.11936033333333285
                },
                {
                    "name": "D5",
                    "midi": 74,
                    "time": 229.64928133333277,
                    "velocity": 0.5354330708661418,
                    "duration": 0.11936033333333285
                },
                {
                    "name": "E5",
                    "midi": 76,
                    "time": 229.7686416666661,
                    "velocity": 0.5826771653543307,
                    "duration": 0.11936033333333285
                },
                {
                    "name": "F4",
                    "midi": 65,
                    "time": 229.88800199999943,
                    "velocity": 0.7322834645669292,
                    "duration": 0.11936033333333285
                },
                {
                    "name": "A#4",
                    "midi": 70,
                    "time": 230.00736233333276,
                    "velocity": 0.6220472440944882,
                    "duration": 0.11936033333333285
                },
                {
                    "name": "D5",
                    "midi": 74,
                    "time": 230.1267226666661,
                    "velocity": 0.6220472440944882,
                    "duration": 0.11936033333333285
                },
                {
                    "name": "F5",
                    "midi": 77,
                    "time": 230.24608299999943,
                    "velocity": 0.7086614173228346,
                    "duration": 0.11936033333333285
                },
                {
                    "name": "A#5",
                    "midi": 82,
                    "time": 230.36544333333276,
                    "velocity": 0.6062992125984252,
                    "duration": 0.11936033333333285
                },
                {
                    "name": "D6",
                    "midi": 86,
                    "time": 230.4848036666661,
                    "velocity": 0.6062992125984252,
                    "duration": 0.11936033333333285
                },
                {
                    "name": "F6",
                    "midi": 89,
                    "time": 230.60416399999943,
                    "velocity": 0.7086614173228346,
                    "duration": 0.11936033333333285
                },
                {
                    "name": "A#6",
                    "midi": 94,
                    "time": 230.72352433333276,
                    "velocity": 0.5984251968503937,
                    "duration": 0.11936033333333285
                },
                {
                    "name": "D7",
                    "midi": 98,
                    "time": 230.8428846666661,
                    "velocity": 0.5984251968503937,
                    "duration": 0.11936033333333285
                },
                {
                    "name": "F7",
                    "midi": 101,
                    "time": 230.96224499999943,
                    "velocity": 0.7637795275590551,
                    "duration": 0.08952024999999253
                },
                {
                    "name": "C5",
                    "midi": 72,
                    "time": 231.32032599999943,
                    "velocity": 0.6220472440944882,
                    "duration": 0.17904050000001348
                },
                {
                    "name": "E5",
                    "midi": 76,
                    "time": 231.32032599999943,
                    "velocity": 0.7322834645669292,
                    "duration": 0.17904050000001348
                },
                {
                    "name": "A4",
                    "midi": 69,
                    "time": 231.32032599999943,
                    "velocity": 0.6220472440944882,
                    "duration": 0.17904050000001348
                },
                {
                    "name": "E4",
                    "midi": 64,
                    "time": 231.32032599999943,
                    "velocity": 0.6220472440944882,
                    "duration": 0.17904050000001348
                },
                {
                    "name": "G#4",
                    "midi": 68,
                    "time": 231.67840699999945,
                    "velocity": 0.5826771653543307,
                    "duration": 0.17904050000001348
                },
                {
                    "name": "B4",
                    "midi": 71,
                    "time": 231.67840699999945,
                    "velocity": 0.5826771653543307,
                    "duration": 0.17904050000001348
                },
                {
                    "name": "E4",
                    "midi": 64,
                    "time": 231.67840699999945,
                    "velocity": 0.5826771653543307,
                    "duration": 0.17904050000001348
                },
                {
                    "name": "E5",
                    "midi": 76,
                    "time": 231.67840699999945,
                    "velocity": 0.6929133858267716,
                    "duration": 0.17904050000001348
                },
                {
                    "name": "F4",
                    "midi": 65,
                    "time": 232.03648799999948,
                    "velocity": 0.7322834645669292,
                    "duration": 0.11936033333333285
                },
                {
                    "name": "A#4",
                    "midi": 70,
                    "time": 232.1558483333328,
                    "velocity": 0.6377952755905512,
                    "duration": 0.11936033333333285
                },
                {
                    "name": "D5",
                    "midi": 74,
                    "time": 232.27520866666615,
                    "velocity": 0.6299212598425197,
                    "duration": 0.11936033333333285
                },
                {
                    "name": "F5",
                    "midi": 77,
                    "time": 232.39456899999948,
                    "velocity": 0.7086614173228346,
                    "duration": 0.11936033333333285
                },
                {
                    "name": "A#5",
                    "midi": 82,
                    "time": 232.5139293333328,
                    "velocity": 0.6220472440944882,
                    "duration": 0.11936033333333285
                },
                {
                    "name": "D6",
                    "midi": 86,
                    "time": 232.63328966666614,
                    "velocity": 0.6220472440944882,
                    "duration": 0.11936033333333285
                },
                {
                    "name": "F6",
                    "midi": 89,
                    "time": 232.75264999999948,
                    "velocity": 0.7322834645669292,
                    "duration": 0.11936033333333285
                },
                {
                    "name": "A#6",
                    "midi": 94,
                    "time": 232.8720103333328,
                    "velocity": 0.6220472440944882,
                    "duration": 0.11936033333333285
                },
                {
                    "name": "D7",
                    "midi": 98,
                    "time": 232.99137066666614,
                    "velocity": 0.6220472440944882,
                    "duration": 0.11936033333333285
                },
                {
                    "name": "F7",
                    "midi": 101,
                    "time": 233.11073099999948,
                    "velocity": 0.7637795275590551,
                    "duration": 0.08952024999999253
                },
                {
                    "name": "F4",
                    "midi": 65,
                    "time": 233.46881199999947,
                    "velocity": 0.6220472440944882,
                    "duration": 0.17904050000001348
                },
                {
                    "name": "F5",
                    "midi": 77,
                    "time": 233.46881199999947,
                    "velocity": 0.7322834645669292,
                    "duration": 0.17904050000001348
                },
                {
                    "name": "A#4",
                    "midi": 70,
                    "time": 233.46881199999947,
                    "velocity": 0.6220472440944882,
                    "duration": 0.17904050000001348
                },
                {
                    "name": "D5",
                    "midi": 74,
                    "time": 233.46881199999947,
                    "velocity": 0.6220472440944882,
                    "duration": 0.17904050000001348
                },
                {
                    "name": "C5",
                    "midi": 72,
                    "time": 233.8268929999995,
                    "velocity": 0.5826771653543307,
                    "duration": 0.17904050000001348
                },
                {
                    "name": "F4",
                    "midi": 65,
                    "time": 233.8268929999995,
                    "velocity": 0.5826771653543307,
                    "duration": 0.17904050000001348
                },
                {
                    "name": "A4",
                    "midi": 69,
                    "time": 233.8268929999995,
                    "velocity": 0.5826771653543307,
                    "duration": 0.17904050000001348
                },
                {
                    "name": "F5",
                    "midi": 77,
                    "time": 233.8268929999995,
                    "velocity": 0.6929133858267716,
                    "duration": 0.17904050000001348
                },
                {
                    "name": "G5",
                    "midi": 79,
                    "time": 234.18497399999953,
                    "velocity": 0.5826771653543307,
                    "duration": 0.17904050000001348
                },
                {
                    "name": "G6",
                    "midi": 91,
                    "time": 234.18497399999953,
                    "velocity": 0.6929133858267716,
                    "duration": 0.17904050000001348
                },
                {
                    "name": "C5",
                    "midi": 72,
                    "time": 234.54305499999955,
                    "velocity": 0.6220472440944882,
                    "duration": 0.17904050000001348
                },
                {
                    "name": "G4",
                    "midi": 67,
                    "time": 234.54305499999955,
                    "velocity": 0.6220472440944882,
                    "duration": 0.17904050000001348
                },
                {
                    "name": "G5",
                    "midi": 79,
                    "time": 234.54305499999955,
                    "velocity": 0.7322834645669292,
                    "duration": 0.17904050000001348
                },
                {
                    "name": "D#5",
                    "midi": 75,
                    "time": 234.54305499999955,
                    "velocity": 0.6220472440944882,
                    "duration": 0.17904050000001348
                },
                {
                    "name": "D5",
                    "midi": 74,
                    "time": 234.90113599999958,
                    "velocity": 0.5826771653543307,
                    "duration": 0.17904050000001348
                },
                {
                    "name": "G5",
                    "midi": 79,
                    "time": 234.90113599999958,
                    "velocity": 0.6929133858267716,
                    "duration": 0.17904050000001348
                },
                {
                    "name": "B4",
                    "midi": 71,
                    "time": 234.90113599999958,
                    "velocity": 0.5826771653543307,
                    "duration": 0.17904050000001348
                },
                {
                    "name": "G4",
                    "midi": 67,
                    "time": 234.90113599999958,
                    "velocity": 0.5826771653543307,
                    "duration": 0.17904050000001348
                },
                {
                    "name": "A5",
                    "midi": 81,
                    "time": 235.2592169999996,
                    "velocity": 0.5826771653543307,
                    "duration": 0.17904050000001348
                },
                {
                    "name": "A6",
                    "midi": 93,
                    "time": 235.2592169999996,
                    "velocity": 0.6929133858267716,
                    "duration": 0.17904050000001348
                },
                {
                    "name": "D5",
                    "midi": 74,
                    "time": 235.61729799999964,
                    "velocity": 0.6220472440944882,
                    "duration": 0.17904050000001348
                },
                {
                    "name": "A5",
                    "midi": 81,
                    "time": 235.61729799999964,
                    "velocity": 0.7322834645669292,
                    "duration": 0.17904050000001348
                },
                {
                    "name": "F5",
                    "midi": 77,
                    "time": 235.61729799999964,
                    "velocity": 0.6220472440944882,
                    "duration": 0.17904050000001348
                },
                {
                    "name": "A4",
                    "midi": 69,
                    "time": 235.61729799999964,
                    "velocity": 0.6220472440944882,
                    "duration": 0.17904050000001348
                },
                {
                    "name": "A4",
                    "midi": 69,
                    "time": 235.97537899999966,
                    "velocity": 0.5826771653543307,
                    "duration": 0.17904050000001348
                },
                {
                    "name": "A5",
                    "midi": 81,
                    "time": 235.97537899999966,
                    "velocity": 0.6929133858267716,
                    "duration": 0.17904050000001348
                },
                {
                    "name": "C#5",
                    "midi": 73,
                    "time": 235.97537899999966,
                    "velocity": 0.5826771653543307,
                    "duration": 0.17904050000001348
                },
                {
                    "name": "E5",
                    "midi": 76,
                    "time": 235.97537899999966,
                    "velocity": 0.5826771653543307,
                    "duration": 0.17904050000001348
                },
                {
                    "name": "A#4",
                    "midi": 70,
                    "time": 236.3334599999997,
                    "velocity": 0.4645669291338583,
                    "duration": 0.08952024999999253
                },
                {
                    "name": "G4",
                    "midi": 67,
                    "time": 236.3334599999997,
                    "velocity": 0.3937007874015748,
                    "duration": 0.08952024999999253
                },
                {
                    "name": "G4",
                    "midi": 67,
                    "time": 236.51250049999967,
                    "velocity": 0.4094488188976378,
                    "duration": 0.08952024999999253
                },
                {
                    "name": "A#4",
                    "midi": 70,
                    "time": 236.51250049999967,
                    "velocity": 0.4881889763779528,
                    "duration": 0.08952024999999253
                },
                {
                    "name": "A#4",
                    "midi": 70,
                    "time": 236.69154099999966,
                    "velocity": 0.4251968503937008,
                    "duration": 0.08952024999999253
                },
                {
                    "name": "G4",
                    "midi": 67,
                    "time": 236.69154099999966,
                    "velocity": 0.4251968503937008,
                    "duration": 0.08952024999999253
                },
                {
                    "name": "C#5",
                    "midi": 73,
                    "time": 236.69154099999966,
                    "velocity": 0.5039370078740157,
                    "duration": 0.08952024999999253
                },
                {
                    "name": "A#4",
                    "midi": 70,
                    "time": 236.87058149999964,
                    "velocity": 0.5275590551181102,
                    "duration": 0.08952024999999253
                },
                {
                    "name": "G4",
                    "midi": 67,
                    "time": 236.87058149999964,
                    "velocity": 0.4409448818897638,
                    "duration": 0.08952024999999253
                },
                {
                    "name": "C#5",
                    "midi": 73,
                    "time": 236.87058149999964,
                    "velocity": 0.5275590551181102,
                    "duration": 0.08952024999999253
                },
                {
                    "name": "A#4",
                    "midi": 70,
                    "time": 237.04962199999963,
                    "velocity": 0.4645669291338583,
                    "duration": 0.08952024999999253
                },
                {
                    "name": "G4",
                    "midi": 67,
                    "time": 237.04962199999963,
                    "velocity": 0.4645669291338583,
                    "duration": 0.08952024999999253
                },
                {
                    "name": "E5",
                    "midi": 76,
                    "time": 237.04962199999963,
                    "velocity": 0.5511811023622047,
                    "duration": 0.08952024999999253
                },
                {
                    "name": "C#5",
                    "midi": 73,
                    "time": 237.04962199999963,
                    "velocity": 0.4645669291338583,
                    "duration": 0.08952024999999253
                },
                {
                    "name": "A#4",
                    "midi": 70,
                    "time": 237.22866249999961,
                    "velocity": 0.4881889763779528,
                    "duration": 0.08952024999999253
                },
                {
                    "name": "E5",
                    "midi": 76,
                    "time": 237.22866249999961,
                    "velocity": 0.5748031496062992,
                    "duration": 0.08952024999999253
                },
                {
                    "name": "C#5",
                    "midi": 73,
                    "time": 237.22866249999961,
                    "velocity": 0.4881889763779528,
                    "duration": 0.08952024999999253
                },
                {
                    "name": "G4",
                    "midi": 67,
                    "time": 237.22866249999961,
                    "velocity": 0.4881889763779528,
                    "duration": 0.08952024999999253
                },
                {
                    "name": "A#4",
                    "midi": 70,
                    "time": 237.4077029999996,
                    "velocity": 0.5039370078740157,
                    "duration": 0.08952024999999253
                },
                {
                    "name": "G5",
                    "midi": 79,
                    "time": 237.4077029999996,
                    "velocity": 0.5984251968503937,
                    "duration": 0.08952024999999253
                },
                {
                    "name": "C#5",
                    "midi": 73,
                    "time": 237.4077029999996,
                    "velocity": 0.5039370078740157,
                    "duration": 0.08952024999999253
                },
                {
                    "name": "E5",
                    "midi": 76,
                    "time": 237.4077029999996,
                    "velocity": 0.5039370078740157,
                    "duration": 0.08952024999999253
                },
                {
                    "name": "E5",
                    "midi": 76,
                    "time": 237.58674349999959,
                    "velocity": 0.5275590551181102,
                    "duration": 0.08952024999999253
                },
                {
                    "name": "A#4",
                    "midi": 70,
                    "time": 237.58674349999959,
                    "velocity": 0.5275590551181102,
                    "duration": 0.08952024999999253
                },
                {
                    "name": "C#5",
                    "midi": 73,
                    "time": 237.58674349999959,
                    "velocity": 0.5275590551181102,
                    "duration": 0.08952024999999253
                },
                {
                    "name": "G5",
                    "midi": 79,
                    "time": 237.58674349999959,
                    "velocity": 0.6220472440944882,
                    "duration": 0.08952024999999253
                },
                {
                    "name": "E5",
                    "midi": 76,
                    "time": 237.76578399999957,
                    "velocity": 0.5433070866141733,
                    "duration": 0.08952024999999253
                },
                {
                    "name": "G5",
                    "midi": 79,
                    "time": 237.76578399999957,
                    "velocity": 0.5433070866141733,
                    "duration": 0.08952024999999253
                },
                {
                    "name": "C#5",
                    "midi": 73,
                    "time": 237.76578399999957,
                    "velocity": 0.5433070866141733,
                    "duration": 0.08952024999999253
                },
                {
                    "name": "A#5",
                    "midi": 82,
                    "time": 237.76578399999957,
                    "velocity": 0.6456692913385826,
                    "duration": 0.08952024999999253
                },
                {
                    "name": "E5",
                    "midi": 76,
                    "time": 237.94482449999956,
                    "velocity": 0.5669291338582677,
                    "duration": 0.08952024999999253
                },
                {
                    "name": "C#5",
                    "midi": 73,
                    "time": 237.94482449999956,
                    "velocity": 0.5669291338582677,
                    "duration": 0.08952024999999253
                },
                {
                    "name": "G5",
                    "midi": 79,
                    "time": 237.94482449999956,
                    "velocity": 0.5669291338582677,
                    "duration": 0.08952024999999253
                },
                {
                    "name": "A#5",
                    "midi": 82,
                    "time": 237.94482449999956,
                    "velocity": 0.6692913385826772,
                    "duration": 0.08952024999999253
                },
                {
                    "name": "E5",
                    "midi": 76,
                    "time": 238.12386499999954,
                    "velocity": 0.5748031496062992,
                    "duration": 0.08952024999999253
                },
                {
                    "name": "C#6",
                    "midi": 85,
                    "time": 238.12386499999954,
                    "velocity": 0.6850393700787402,
                    "duration": 0.08952024999999253
                },
                {
                    "name": "G5",
                    "midi": 79,
                    "time": 238.12386499999954,
                    "velocity": 0.5748031496062992,
                    "duration": 0.08952024999999253
                },
                {
                    "name": "A#5",
                    "midi": 82,
                    "time": 238.12386499999954,
                    "velocity": 0.5748031496062992,
                    "duration": 0.08952024999999253
                },
                {
                    "name": "A#5",
                    "midi": 82,
                    "time": 238.30290549999953,
                    "velocity": 0.5984251968503937,
                    "duration": 0.08952024999999253
                },
                {
                    "name": "C#6",
                    "midi": 85,
                    "time": 238.30290549999953,
                    "velocity": 0.7086614173228346,
                    "duration": 0.08952024999999253
                },
                {
                    "name": "E5",
                    "midi": 76,
                    "time": 238.30290549999953,
                    "velocity": 0.5984251968503937,
                    "duration": 0.08952024999999253
                },
                {
                    "name": "G5",
                    "midi": 79,
                    "time": 238.30290549999953,
                    "velocity": 0.5984251968503937,
                    "duration": 0.08952024999999253
                },
                {
                    "name": "A5",
                    "midi": 81,
                    "time": 238.4819459999995,
                    "velocity": 0.7086614173228346,
                    "duration": 0.17904050000001348
                },
                {
                    "name": "D5",
                    "midi": 74,
                    "time": 238.4819459999995,
                    "velocity": 0.6692913385826772,
                    "duration": 0.17904050000001348
                },
                {
                    "name": "F5",
                    "midi": 77,
                    "time": 238.4819459999995,
                    "velocity": 0.6692913385826772,
                    "duration": 0.17904050000001348
                },
                {
                    "name": "D6",
                    "midi": 86,
                    "time": 238.4819459999995,
                    "velocity": 0.7874015748031497,
                    "duration": 0.17904050000001348
                },
                {
                    "name": "F5",
                    "midi": 77,
                    "time": 239.55618899999953,
                    "velocity": 0.6692913385826772,
                    "duration": 0.17904050000001348
                },
                {
                    "name": "D6",
                    "midi": 86,
                    "time": 239.55618899999953,
                    "velocity": 0.7716535433070866,
                    "duration": 0.17904050000001348
                },
                {
                    "name": "A5",
                    "midi": 81,
                    "time": 239.55618899999953,
                    "velocity": 0.6692913385826772,
                    "duration": 0.17904050000001348
                },
                {
                    "name": "F6",
                    "midi": 89,
                    "time": 239.55618899999953,
                    "velocity": 0.7874015748031497,
                    "duration": 0.17904050000001348
                },
                {
                    "name": "A4",
                    "midi": 69,
                    "time": 240.63043199999956,
                    "velocity": 0.33070866141732286,
                    "duration": 0.17904050000001348
                },
                {
                    "name": "E5",
                    "midi": 76,
                    "time": 240.63043199999956,
                    "velocity": 0.3937007874015748,
                    "duration": 0.17904050000001348
                },
                {
                    "name": "G#4",
                    "midi": 68,
                    "time": 241.70467499999958,
                    "velocity": 0.33070866141732286,
                    "duration": 0.17904050000001348
                },
                {
                    "name": "E5",
                    "midi": 76,
                    "time": 241.70467499999958,
                    "velocity": 0.3937007874015748,
                    "duration": 0.17904050000001348
                },
                {
                    "name": "C#5",
                    "midi": 73,
                    "time": 242.7789179999996,
                    "velocity": 0.2992125984251969,
                    "duration": 0.8952025000000106
                },
                {
                    "name": "E4",
                    "midi": 64,
                    "time": 242.7789179999996,
                    "velocity": 0.25984251968503935,
                    "duration": 2.1484859999999912
                },
                {
                    "name": "D5",
                    "midi": 74,
                    "time": 243.67412049999962,
                    "velocity": 0.28346456692913385,
                    "duration": 0.08952024999999253
                },
                {
                    "name": "C#5",
                    "midi": 73,
                    "time": 243.7636407499996,
                    "velocity": 0.2440944881889764,
                    "duration": 0.08952024999999253
                },
                {
                    "name": "B4",
                    "midi": 71,
                    "time": 243.8531609999996,
                    "velocity": 0.28346456692913385,
                    "duration": 0.35808099999999854
                },
                {
                    "name": "D5",
                    "midi": 74,
                    "time": 244.2112419999996,
                    "velocity": 0.2992125984251969,
                    "duration": 0.35808099999999854
                },
                {
                    "name": "F5",
                    "midi": 77,
                    "time": 244.5693229999996,
                    "velocity": 0.33070866141732286,
                    "duration": 0.35808099999999854
                },
                {
                    "name": "E4",
                    "midi": 64,
                    "time": 244.9274039999996,
                    "velocity": 0.25984251968503935,
                    "duration": 1.0742429999999956
                },
                {
                    "name": "E5",
                    "midi": 76,
                    "time": 244.9274039999996,
                    "velocity": 0.31496062992125984,
                    "duration": 0.7161619999999971
                },
                {
                    "name": "C#5",
                    "midi": 73,
                    "time": 245.6435659999996,
                    "velocity": 0.2677165354330709,
                    "duration": 0.35062097916667767
                },
                {
                    "name": "E4",
                    "midi": 64,
                    "time": 246.0016469999996,
                    "velocity": 0.25984251968503935,
                    "duration": 1.0742429999999956
                },
                {
                    "name": "E5",
                    "midi": 76,
                    "time": 246.0016469999996,
                    "velocity": 0.31496062992125984,
                    "duration": 0.7161619999999971
                },
                {
                    "name": "D5",
                    "midi": 74,
                    "time": 246.7178089999996,
                    "velocity": 0.2677165354330709,
                    "duration": 0.35062097916667767
                },
                {
                    "name": "C#5",
                    "midi": 73,
                    "time": 247.0758899999996,
                    "velocity": 0.2992125984251969,
                    "duration": 0.8952025000000106
                },
                {
                    "name": "E4",
                    "midi": 64,
                    "time": 247.0758899999996,
                    "velocity": 0.2992125984251969,
                    "duration": 2.1484859999999912
                },
                {
                    "name": "D5",
                    "midi": 74,
                    "time": 247.9710924999996,
                    "velocity": 0.2755905511811024,
                    "duration": 0.08952024999999253
                },
                {
                    "name": "C#5",
                    "midi": 73,
                    "time": 248.0606127499996,
                    "velocity": 0.2440944881889764,
                    "duration": 0.08952024999999253
                },
                {
                    "name": "B4",
                    "midi": 71,
                    "time": 248.15013299999958,
                    "velocity": 0.28346456692913385,
                    "duration": 0.35808099999999854
                },
                {
                    "name": "D5",
                    "midi": 74,
                    "time": 248.50821399999958,
                    "velocity": 0.2992125984251969,
                    "duration": 0.35808099999999854
                },
                {
                    "name": "F5",
                    "midi": 77,
                    "time": 248.86629499999958,
                    "velocity": 0.33070866141732286,
                    "duration": 0.35808099999999854
                },
                {
                    "name": "E4",
                    "midi": 64,
                    "time": 249.22437599999958,
                    "velocity": 0.25984251968503935,
                    "duration": 1.0742429999999956
                },
                {
                    "name": "E5",
                    "midi": 76,
                    "time": 249.22437599999958,
                    "velocity": 0.31496062992125984,
                    "duration": 0.7161619999999971
                },
                {
                    "name": "C#5",
                    "midi": 73,
                    "time": 249.94053799999958,
                    "velocity": 0.2677165354330709,
                    "duration": 0.35062097916667767
                },
                {
                    "name": "E4",
                    "midi": 64,
                    "time": 250.29861899999958,
                    "velocity": 0.3700787401574803,
                    "duration": 1.0742429999999956
                },
                {
                    "name": "E5",
                    "midi": 76,
                    "time": 250.29861899999958,
                    "velocity": 0.3700787401574803,
                    "duration": 0.7161619999999971
                },
                {
                    "name": "D5",
                    "midi": 74,
                    "time": 251.01478099999957,
                    "velocity": 0.3543307086614173,
                    "duration": 0.35062097916667767
                },
                {
                    "name": "F5",
                    "midi": 77,
                    "time": 251.37286199999957,
                    "velocity": 0.41732283464566927,
                    "duration": 0.7161619999999971
                },
                {
                    "name": "F4",
                    "midi": 65,
                    "time": 251.37286199999957,
                    "velocity": 0.41732283464566927,
                    "duration": 1.0742429999999956
                },
                {
                    "name": "D5",
                    "midi": 74,
                    "time": 252.08902399999957,
                    "velocity": 0.3858267716535433,
                    "duration": 0.35062097916667767
                },
                {
                    "name": "F#5",
                    "midi": 78,
                    "time": 252.44710499999957,
                    "velocity": 0.44881889763779526,
                    "duration": 0.7161619999999971
                },
                {
                    "name": "F#4",
                    "midi": 66,
                    "time": 252.44710499999957,
                    "velocity": 0.44881889763779526,
                    "duration": 1.0742429999999956
                },
                {
                    "name": "D5",
                    "midi": 74,
                    "time": 253.16326699999956,
                    "velocity": 0.3858267716535433,
                    "duration": 0.35062097916667767
                },
                {
                    "name": "C#5",
                    "midi": 73,
                    "time": 253.52134799999956,
                    "velocity": 0.41732283464566927,
                    "duration": 0.35808099999999854
                },
                {
                    "name": "G4",
                    "midi": 67,
                    "time": 253.52134799999956,
                    "velocity": 0.41732283464566927,
                    "duration": 1.0742429999999956
                },
                {
                    "name": "A#5",
                    "midi": 82,
                    "time": 253.87942899999956,
                    "velocity": 0.48031496062992124,
                    "duration": 0.35808099999999854
                },
                {
                    "name": "A5",
                    "midi": 81,
                    "time": 254.23750999999956,
                    "velocity": 0.4330708661417323,
                    "duration": 0.35808099999999854
                },
                {
                    "name": "A4",
                    "midi": 69,
                    "time": 254.59559099999956,
                    "velocity": 0.25984251968503935,
                    "duration": 1.0742429999999956
                },
                {
                    "name": "G5",
                    "midi": 79,
                    "time": 254.59559099999956,
                    "velocity": 0.3937007874015748,
                    "duration": 0.7161619999999971
                },
                {
                    "name": "F#5",
                    "midi": 78,
                    "time": 255.31175299999956,
                    "velocity": 0.3543307086614173,
                    "duration": 0.35062097916667767
                },
                {
                    "name": "C#5",
                    "midi": 73,
                    "time": 255.66983399999955,
                    "velocity": 0.3858267716535433,
                    "duration": 0.35808099999999854
                },
                {
                    "name": "E4",
                    "midi": 64,
                    "time": 255.66983399999955,
                    "velocity": 0.3858267716535433,
                    "duration": 1.0742430000000525
                },
                {
                    "name": "G5",
                    "midi": 79,
                    "time": 256.02791499999955,
                    "velocity": 0.41732283464566927,
                    "duration": 0.35808100000002696
                },
                {
                    "name": "F#5",
                    "midi": 78,
                    "time": 256.3859959999996,
                    "velocity": 0.3543307086614173,
                    "duration": 0.35808100000002696
                },
                {
                    "name": "F#4",
                    "midi": 66,
                    "time": 256.7440769999996,
                    "velocity": 0.25984251968503935,
                    "duration": 1.0742429999999672
                },
                {
                    "name": "E5",
                    "midi": 76,
                    "time": 256.7440769999996,
                    "velocity": 0.3779527559055118,
                    "duration": 0.7161619999999971
                },
                {
                    "name": "D5",
                    "midi": 74,
                    "time": 257.4602389999996,
                    "velocity": 0.3543307086614173,
                    "duration": 0.35062097916664925
                },
                {
                    "name": "E4",
                    "midi": 64,
                    "time": 257.8183199999996,
                    "velocity": 0.25984251968503935,
                    "duration": 1.0742429999999672
                },
                {
                    "name": "E5",
                    "midi": 76,
                    "time": 257.8183199999996,
                    "velocity": 0.31496062992125984,
                    "duration": 0.7161619999999971
                },
                {
                    "name": "D5",
                    "midi": 74,
                    "time": 258.53448199999957,
                    "velocity": 0.2677165354330709,
                    "duration": 0.35062097916664925
                },
                {
                    "name": "E4",
                    "midi": 64,
                    "time": 258.89256299999954,
                    "velocity": 0.25984251968503935,
                    "duration": 1.0742429999999672
                },
                {
                    "name": "E5",
                    "midi": 76,
                    "time": 258.89256299999954,
                    "velocity": 0.31496062992125984,
                    "duration": 0.7161619999999971
                },
                {
                    "name": "C#5",
                    "midi": 73,
                    "time": 259.60872499999954,
                    "velocity": 0.2677165354330709,
                    "duration": 0.35062097916664925
                },
                {
                    "name": "D4",
                    "midi": 62,
                    "time": 259.9668059999995,
                    "velocity": 0.25984251968503935,
                    "duration": 1.0742429999999672
                },
                {
                    "name": "F5",
                    "midi": 77,
                    "time": 259.9668059999995,
                    "velocity": 0.4015748031496063,
                    "duration": 0.35808100000002696
                },
                {
                    "name": "E5",
                    "midi": 76,
                    "time": 260.32488699999953,
                    "velocity": 0.28346456692913385,
                    "duration": 0.17904049999998506
                },
                {
                    "name": "D5",
                    "midi": 74,
                    "time": 260.5039274999995,
                    "velocity": 0.2440944881889764,
                    "duration": 0.17904049999998506
                },
                {
                    "name": "C#5",
                    "midi": 73,
                    "time": 260.6829679999995,
                    "velocity": 0.2755905511811024,
                    "duration": 0.17904049999998506
                },
                {
                    "name": "B4",
                    "midi": 71,
                    "time": 260.8620084999995,
                    "velocity": 0.2283464566929134,
                    "duration": 0.17904049999998506
                },
                {
                    "name": "A4",
                    "midi": 69,
                    "time": 261.0410489999995,
                    "velocity": 0.2755905511811024,
                    "duration": 0.5371214999999552
                },
                {
                    "name": "C#4",
                    "midi": 61,
                    "time": 261.0410489999995,
                    "velocity": 0.2204724409448819,
                    "duration": 0.35062097916664925
                },
                {
                    "name": "B4",
                    "midi": 71,
                    "time": 261.57817049999943,
                    "velocity": 0.2992125984251969,
                    "duration": 0.17904049999998506
                },
                {
                    "name": "C#5",
                    "midi": 73,
                    "time": 261.7572109999994,
                    "velocity": 0.33858267716535434,
                    "duration": 0.17904049999998506
                },
                {
                    "name": "D5",
                    "midi": 74,
                    "time": 261.9362514999994,
                    "velocity": 0.36220472440944884,
                    "duration": 0.17904049999998506
                },
                {
                    "name": "G4",
                    "midi": 67,
                    "time": 262.1152919999994,
                    "velocity": 0.4251968503937008,
                    "duration": 1.0742430000000809
                },
                {
                    "name": "C#5",
                    "midi": 73,
                    "time": 262.1152919999994,
                    "velocity": 0.4251968503937008,
                    "duration": 0.35808100000002696
                },
                {
                    "name": "A#5",
                    "midi": 82,
                    "time": 262.4733729999994,
                    "velocity": 0.4645669291338583,
                    "duration": 0.35808100000002696
                },
                {
                    "name": "A5",
                    "midi": 81,
                    "time": 262.83145399999944,
                    "velocity": 0.4251968503937008,
                    "duration": 0.35808100000002696
                },
                {
                    "name": "G5",
                    "midi": 79,
                    "time": 263.18953499999947,
                    "velocity": 0.4094488188976378,
                    "duration": 0.7161619999999971
                },
                {
                    "name": "A4",
                    "midi": 69,
                    "time": 263.18953499999947,
                    "velocity": 0.4094488188976378,
                    "duration": 1.0742429999999672
                },
                {
                    "name": "F#5",
                    "midi": 78,
                    "time": 263.90569699999946,
                    "velocity": 0.3858267716535433,
                    "duration": 0.35062097916664925
                },
                {
                    "name": "E4",
                    "midi": 64,
                    "time": 264.26377799999943,
                    "velocity": 0.3937007874015748,
                    "duration": 1.0742430000000809
                },
                {
                    "name": "C#5",
                    "midi": 73,
                    "time": 264.26377799999943,
                    "velocity": 0.3937007874015748,
                    "duration": 0.35808100000002696
                },
                {
                    "name": "G5",
                    "midi": 79,
                    "time": 264.62185899999946,
                    "velocity": 0.4409448818897638,
                    "duration": 0.35808100000002696
                },
                {
                    "name": "F#5",
                    "midi": 78,
                    "time": 264.9799399999995,
                    "velocity": 0.4015748031496063,
                    "duration": 0.35808100000002696
                },
                {
                    "name": "E5",
                    "midi": 76,
                    "time": 265.3380209999995,
                    "velocity": 0.3779527559055118,
                    "duration": 0.7161619999999971
                },
                {
                    "name": "F#4",
                    "midi": 66,
                    "time": 265.3380209999995,
                    "velocity": 0.25984251968503935,
                    "duration": 1.0742429999999672
                },
                {
                    "name": "D5",
                    "midi": 74,
                    "time": 266.0541829999995,
                    "velocity": 0.3543307086614173,
                    "duration": 0.35062097916664925
                },
                {
                    "name": "E5",
                    "midi": 76,
                    "time": 266.4122639999995,
                    "velocity": 0.33858267716535434,
                    "duration": 0.7161619999999971
                },
                {
                    "name": "E4",
                    "midi": 64,
                    "time": 266.4122639999995,
                    "velocity": 0.33858267716535434,
                    "duration": 1.0742429999999672
                },
                {
                    "name": "D5",
                    "midi": 74,
                    "time": 267.1284259999995,
                    "velocity": 0.28346456692913385,
                    "duration": 0.35062097916664925
                },
                {
                    "name": "E5",
                    "midi": 76,
                    "time": 267.48650699999945,
                    "velocity": 0.33858267716535434,
                    "duration": 0.7161619999999971
                },
                {
                    "name": "E4",
                    "midi": 64,
                    "time": 267.48650699999945,
                    "velocity": 0.33858267716535434,
                    "duration": 1.0742429999999672
                },
                {
                    "name": "C#5",
                    "midi": 73,
                    "time": 268.20266899999945,
                    "velocity": 0.2677165354330709,
                    "duration": 0.35062097916664925
                },
                {
                    "name": "F5",
                    "midi": 77,
                    "time": 268.5607499999994,
                    "velocity": 0.4015748031496063,
                    "duration": 0.35808100000002696
                },
                {
                    "name": "D4",
                    "midi": 62,
                    "time": 268.5607499999994,
                    "velocity": 0.25984251968503935,
                    "duration": 1.0742429999999672
                },
                {
                    "name": "E5",
                    "midi": 76,
                    "time": 268.91883099999944,
                    "velocity": 0.28346456692913385,
                    "duration": 0.17904049999998506
                },
                {
                    "name": "D5",
                    "midi": 74,
                    "time": 269.0978714999994,
                    "velocity": 0.2440944881889764,
                    "duration": 0.17904049999998506
                },
                {
                    "name": "C#5",
                    "midi": 73,
                    "time": 269.2769119999994,
                    "velocity": 0.2755905511811024,
                    "duration": 0.17904049999998506
                },
                {
                    "name": "B4",
                    "midi": 71,
                    "time": 269.4559524999994,
                    "velocity": 0.2283464566929134,
                    "duration": 0.17904049999998506
                },
                {
                    "name": "A4",
                    "midi": 69,
                    "time": 269.6349929999994,
                    "velocity": 0.2755905511811024,
                    "duration": 1.074243000000024
                },
                {
                    "name": "C#4",
                    "midi": 61,
                    "time": 269.6349929999994,
                    "velocity": 0.2440944881889764,
                    "duration": 0.7087019791666762
                },
                {
                    "name": "A4",
                    "midi": 69,
                    "time": 270.7092359999994,
                    "velocity": 0.7007874015748031,
                    "duration": 0.17904049999998506
                },
                {
                    "name": "B4",
                    "midi": 71,
                    "time": 270.8882764999994,
                    "velocity": 0.6535433070866141,
                    "duration": 0.08952025000002095
                },
                {
                    "name": "C5",
                    "midi": 72,
                    "time": 270.9777967499994,
                    "velocity": 0.5905511811023622,
                    "duration": 0.08952025000002095
                },
                {
                    "name": "D5",
                    "midi": 74,
                    "time": 271.06731699999943,
                    "velocity": 0.5984251968503937,
                    "duration": 0.08952025000002095
                },
                {
                    "name": "E5",
                    "midi": 76,
                    "time": 271.15683724999946,
                    "velocity": 0.6141732283464567,
                    "duration": 0.08952025000002095
                },
                {
                    "name": "F#5",
                    "midi": 78,
                    "time": 271.2463574999995,
                    "velocity": 0.6299212598425197,
                    "duration": 0.08952025000002095
                },
                {
                    "name": "G#5",
                    "midi": 80,
                    "time": 271.3358777499995,
                    "velocity": 0.6456692913385826,
                    "duration": 0.08952025000002095
                },
                {
                    "name": "A5",
                    "midi": 81,
                    "time": 271.4253979999995,
                    "velocity": 0.6535433070866141,
                    "duration": 0.08952025000002095
                },
                {
                    "name": "B5",
                    "midi": 83,
                    "time": 271.51491824999954,
                    "velocity": 0.6692913385826772,
                    "duration": 0.08952025000002095
                },
                {
                    "name": "C6",
                    "midi": 84,
                    "time": 271.60443849999956,
                    "velocity": 0.6850393700787402,
                    "duration": 0.08952025000002095
                },
                {
                    "name": "D6",
                    "midi": 86,
                    "time": 271.6939587499996,
                    "velocity": 0.6929133858267716,
                    "duration": 0.08952025000002095
                },
                {
                    "name": "E5",
                    "midi": 76,
                    "time": 271.7834789999996,
                    "velocity": 0.6377952755905512,
                    "duration": 0.0671401875000015
                },
                {
                    "name": "E6",
                    "midi": 88,
                    "time": 271.7834789999996,
                    "velocity": 0.7559055118110236,
                    "duration": 0.0671401875000015
                },
                {
                    "name": "D#6",
                    "midi": 87,
                    "time": 271.9625194999996,
                    "velocity": 0.6692913385826772,
                    "duration": 0.0671401875000015
                },
                {
                    "name": "D#5",
                    "midi": 75,
                    "time": 271.9625194999996,
                    "velocity": 0.5669291338582677,
                    "duration": 0.0671401875000015
                },
                {
                    "name": "E6",
                    "midi": 88,
                    "time": 272.1415599999996,
                    "velocity": 0.7244094488188977,
                    "duration": 0.0671401875000015
                },
                {
                    "name": "E5",
                    "midi": 76,
                    "time": 272.1415599999996,
                    "velocity": 0.6141732283464567,
                    "duration": 0.0671401875000015
                },
                {
                    "name": "D#5",
                    "midi": 75,
                    "time": 272.32060049999956,
                    "velocity": 0.5669291338582677,
                    "duration": 0.0671401875000015
                },
                {
                    "name": "D#6",
                    "midi": 87,
                    "time": 272.32060049999956,
                    "velocity": 0.6692913385826772,
                    "duration": 0.0671401875000015
                },
                {
                    "name": "E6",
                    "midi": 88,
                    "time": 272.49964099999954,
                    "velocity": 0.7401574803149606,
                    "duration": 0.0671401875000015
                },
                {
                    "name": "E5",
                    "midi": 76,
                    "time": 272.49964099999954,
                    "velocity": 0.6220472440944882,
                    "duration": 0.0671401875000015
                },
                {
                    "name": "G4",
                    "midi": 67,
                    "time": 272.85772199999957,
                    "velocity": 0.7007874015748031,
                    "duration": 0.17904049999998506
                },
                {
                    "name": "A4",
                    "midi": 69,
                    "time": 273.03676249999955,
                    "velocity": 0.6535433070866141,
                    "duration": 0.08952025000002095
                },
                {
                    "name": "B4",
                    "midi": 71,
                    "time": 273.1262827499996,
                    "velocity": 0.5905511811023622,
                    "duration": 0.08952025000002095
                },
                {
                    "name": "C5",
                    "midi": 72,
                    "time": 273.2158029999996,
                    "velocity": 0.5984251968503937,
                    "duration": 0.08952025000002095
                },
                {
                    "name": "D5",
                    "midi": 74,
                    "time": 273.3053232499996,
                    "velocity": 0.6141732283464567,
                    "duration": 0.08952025000002095
                },
                {
                    "name": "E5",
                    "midi": 76,
                    "time": 273.39484349999964,
                    "velocity": 0.6299212598425197,
                    "duration": 0.08952025000002095
                },
                {
                    "name": "F#5",
                    "midi": 78,
                    "time": 273.48436374999966,
                    "velocity": 0.6456692913385826,
                    "duration": 0.08952025000002095
                },
                {
                    "name": "G5",
                    "midi": 79,
                    "time": 273.5738839999997,
                    "velocity": 0.6535433070866141,
                    "duration": 0.08952025000002095
                },
                {
                    "name": "A5",
                    "midi": 81,
                    "time": 273.6634042499997,
                    "velocity": 0.6692913385826772,
                    "duration": 0.08952025000002095
                },
                {
                    "name": "B5",
                    "midi": 83,
                    "time": 273.7529244999997,
                    "velocity": 0.6850393700787402,
                    "duration": 0.08952025000002095
                },
                {
                    "name": "C#6",
                    "midi": 85,
                    "time": 273.84244474999974,
                    "velocity": 0.6929133858267716,
                    "duration": 0.08952025000002095
                },
                {
                    "name": "D5",
                    "midi": 74,
                    "time": 273.93196499999976,
                    "velocity": 0.6299212598425197,
                    "duration": 0.0671401875000015
                },
                {
                    "name": "D6",
                    "midi": 86,
                    "time": 273.93196499999976,
                    "velocity": 0.7480314960629921,
                    "duration": 0.0671401875000015
                },
                {
                    "name": "C#6",
                    "midi": 85,
                    "time": 274.11100549999975,
                    "velocity": 0.6771653543307087,
                    "duration": 0.0671401875000015
                },
                {
                    "name": "C#5",
                    "midi": 73,
                    "time": 274.11100549999975,
                    "velocity": 0.5748031496062992,
                    "duration": 0.0671401875000015
                },
                {
                    "name": "D5",
                    "midi": 74,
                    "time": 274.29004599999973,
                    "velocity": 0.6141732283464567,
                    "duration": 0.0671401875000015
                },
                {
                    "name": "D6",
                    "midi": 86,
                    "time": 274.29004599999973,
                    "velocity": 0.7244094488188977,
                    "duration": 0.0671401875000015
                },
                {
                    "name": "C#6",
                    "midi": 85,
                    "time": 274.4690864999997,
                    "velocity": 0.6692913385826772,
                    "duration": 0.0671401875000015
                },
                {
                    "name": "C#5",
                    "midi": 73,
                    "time": 274.4690864999997,
                    "velocity": 0.5669291338582677,
                    "duration": 0.0671401875000015
                },
                {
                    "name": "D6",
                    "midi": 86,
                    "time": 274.6481269999997,
                    "velocity": 0.7480314960629921,
                    "duration": 0.0671401875000015
                },
                {
                    "name": "D5",
                    "midi": 74,
                    "time": 274.6481269999997,
                    "velocity": 0.6299212598425197,
                    "duration": 0.0671401875000015
                },
                {
                    "name": "F5",
                    "midi": 77,
                    "time": 275.0957282499997,
                    "velocity": 0.6062992125984252,
                    "duration": 0.08952025000002095
                },
                {
                    "name": "A5",
                    "midi": 81,
                    "time": 275.1852484999997,
                    "velocity": 0.6062992125984252,
                    "duration": 0.08952025000002095
                },
                {
                    "name": "C6",
                    "midi": 84,
                    "time": 275.27476874999974,
                    "velocity": 0.6377952755905512,
                    "duration": 0.08952025000002095
                },
                {
                    "name": "F6",
                    "midi": 89,
                    "time": 275.36428899999976,
                    "velocity": 0.6850393700787402,
                    "duration": 0.08952025000002095
                },
                {
                    "name": "A6",
                    "midi": 93,
                    "time": 275.4538092499998,
                    "velocity": 0.6299212598425197,
                    "duration": 0.08952025000002095
                },
                {
                    "name": "C7",
                    "midi": 96,
                    "time": 275.5433294999998,
                    "velocity": 0.6220472440944882,
                    "duration": 0.08952025000002095
                },
                {
                    "name": "F7",
                    "midi": 101,
                    "time": 275.6328497499998,
                    "velocity": 0.5905511811023622,
                    "duration": 0.08952025000002095
                },
                {
                    "name": "E7",
                    "midi": 100,
                    "time": 275.72236999999984,
                    "velocity": 0.7007874015748031,
                    "duration": 0.08952025000002095
                },
                {
                    "name": "D5",
                    "midi": 74,
                    "time": 276.08045099999987,
                    "velocity": 0.7086614173228346,
                    "duration": 0.08952025000002095
                },
                {
                    "name": "F5",
                    "midi": 77,
                    "time": 276.1699712499999,
                    "velocity": 0.6377952755905512,
                    "duration": 0.08952025000002095
                },
                {
                    "name": "A#5",
                    "midi": 82,
                    "time": 276.2594914999999,
                    "velocity": 0.6377952755905512,
                    "duration": 0.08952025000002095
                },
                {
                    "name": "D6",
                    "midi": 86,
                    "time": 276.34901174999993,
                    "velocity": 0.6377952755905512,
                    "duration": 0.08952025000002095
                },
                {
                    "name": "F5",
                    "midi": 77,
                    "time": 276.43853199999995,
                    "velocity": 0.7086614173228346,
                    "duration": 0.08952025000002095
                },
                {
                    "name": "G#5",
                    "midi": 80,
                    "time": 276.52805225,
                    "velocity": 0.6377952755905512,
                    "duration": 0.08952025000002095
                },
                {
                    "name": "D6",
                    "midi": 86,
                    "time": 276.6175725,
                    "velocity": 0.6377952755905512,
                    "duration": 0.08952025000002095
                },
                {
                    "name": "F6",
                    "midi": 89,
                    "time": 276.70709275,
                    "velocity": 0.6377952755905512,
                    "duration": 0.08952025000002095
                },
                {
                    "name": "E5",
                    "midi": 76,
                    "time": 276.79661300000004,
                    "velocity": 0.7086614173228346,
                    "duration": 0.08952025000002095
                },
                {
                    "name": "A5",
                    "midi": 81,
                    "time": 276.88613325000006,
                    "velocity": 0.6220472440944882,
                    "duration": 0.08952025000002095
                },
                {
                    "name": "C6",
                    "midi": 84,
                    "time": 276.9756535000001,
                    "velocity": 0.6220472440944882,
                    "duration": 0.08952025000002095
                },
                {
                    "name": "E6",
                    "midi": 88,
                    "time": 277.0651737500001,
                    "velocity": 0.6220472440944882,
                    "duration": 0.08952025000002095
                },
                {
                    "name": "D5",
                    "midi": 74,
                    "time": 277.1546940000001,
                    "velocity": 0.6929133858267716,
                    "duration": 0.08952025000002095
                },
                {
                    "name": "F5",
                    "midi": 77,
                    "time": 277.24421425000014,
                    "velocity": 0.6141732283464567,
                    "duration": 0.08952025000002095
                },
                {
                    "name": "B5",
                    "midi": 83,
                    "time": 277.33373450000016,
                    "velocity": 0.6141732283464567,
                    "duration": 0.08952025000002095
                },
                {
                    "name": "D6",
                    "midi": 86,
                    "time": 277.4232547500002,
                    "velocity": 0.6141732283464567,
                    "duration": 0.08952025000002095
                },
                {
                    "name": "C5",
                    "midi": 72,
                    "time": 277.5127750000002,
                    "velocity": 0.6692913385826772,
                    "duration": 0.08952025000002095
                },
                {
                    "name": "E5",
                    "midi": 76,
                    "time": 277.6022952500002,
                    "velocity": 0.5984251968503937,
                    "duration": 0.08952025000002095
                },
                {
                    "name": "A5",
                    "midi": 81,
                    "time": 277.69181550000025,
                    "velocity": 0.5984251968503937,
                    "duration": 0.08952025000002095
                },
                {
                    "name": "C6",
                    "midi": 84,
                    "time": 277.78133575000027,
                    "velocity": 0.5984251968503937,
                    "duration": 0.08952025000002095
                },
                {
                    "name": "B4",
                    "midi": 71,
                    "time": 277.8708560000003,
                    "velocity": 0.6771653543307087,
                    "duration": 0.08952025000002095
                },
                {
                    "name": "E5",
                    "midi": 76,
                    "time": 277.9603762500003,
                    "velocity": 0.5905511811023622,
                    "duration": 0.08952025000002095
                },
                {
                    "name": "G#5",
                    "midi": 80,
                    "time": 278.04989650000033,
                    "velocity": 0.5984251968503937,
                    "duration": 0.08952025000002095
                },
                {
                    "name": "B5",
                    "midi": 83,
                    "time": 278.13941675000035,
                    "velocity": 0.5984251968503937,
                    "duration": 0.08952025000002095
                },
                {
                    "name": "A4",
                    "midi": 69,
                    "time": 278.22893700000037,
                    "velocity": 0.6141732283464567,
                    "duration": 0.11936033333336127
                },
                {
                    "name": "A3",
                    "midi": 57,
                    "time": 278.22893700000037,
                    "velocity": 0.5196850393700787,
                    "duration": 0.11936033333336127
                },
                {
                    "name": "B3",
                    "midi": 59,
                    "time": 278.34829733333373,
                    "velocity": 0.4645669291338583,
                    "duration": 0.11936033333336127
                },
                {
                    "name": "B4",
                    "midi": 71,
                    "time": 278.34829733333373,
                    "velocity": 0.5511811023622047,
                    "duration": 0.11936033333336127
                },
                {
                    "name": "C4",
                    "midi": 60,
                    "time": 278.4676576666671,
                    "velocity": 0.4566929133858268,
                    "duration": 0.11936033333336127
                },
                {
                    "name": "C5",
                    "midi": 72,
                    "time": 278.4676576666671,
                    "velocity": 0.5433070866141733,
                    "duration": 0.11936033333336127
                },
                {
                    "name": "B4",
                    "midi": 71,
                    "time": 278.58701800000046,
                    "velocity": 0.6062992125984252,
                    "duration": 0.11936033333336127
                },
                {
                    "name": "B3",
                    "midi": 59,
                    "time": 278.58701800000046,
                    "velocity": 0.5118110236220472,
                    "duration": 0.11936033333336127
                },
                {
                    "name": "C5",
                    "midi": 72,
                    "time": 278.7063783333338,
                    "velocity": 0.5590551181102362,
                    "duration": 0.11936033333336127
                },
                {
                    "name": "C4",
                    "midi": 60,
                    "time": 278.7063783333338,
                    "velocity": 0.47244094488188976,
                    "duration": 0.11936033333336127
                },
                {
                    "name": "D5",
                    "midi": 74,
                    "time": 278.8257386666672,
                    "velocity": 0.5669291338582677,
                    "duration": 0.11936033333336127
                },
                {
                    "name": "D4",
                    "midi": 62,
                    "time": 278.8257386666672,
                    "velocity": 0.48031496062992124,
                    "duration": 0.11936033333336127
                },
                {
                    "name": "E4",
                    "midi": 64,
                    "time": 278.94509900000054,
                    "velocity": 0.5826771653543307,
                    "duration": 0.35808100000002696
                },
                {
                    "name": "E5",
                    "midi": 76,
                    "time": 278.94509900000054,
                    "velocity": 0.6929133858267716,
                    "duration": 0.35808100000002696
                },
                {
                    "name": "A3",
                    "midi": 57,
                    "time": 279.30318000000057,
                    "velocity": 0.5196850393700787,
                    "duration": 0.11936033333336127
                },
                {
                    "name": "A4",
                    "midi": 69,
                    "time": 279.30318000000057,
                    "velocity": 0.6141732283464567,
                    "duration": 0.11936033333336127
                },
                {
                    "name": "B4",
                    "midi": 71,
                    "time": 279.4225403333339,
                    "velocity": 0.5511811023622047,
                    "duration": 0.11936033333336127
                },
                {
                    "name": "B3",
                    "midi": 59,
                    "time": 279.4225403333339,
                    "velocity": 0.4645669291338583,
                    "duration": 0.11936033333336127
                },
                {
                    "name": "C4",
                    "midi": 60,
                    "time": 279.5419006666673,
                    "velocity": 0.4566929133858268,
                    "duration": 0.11936033333336127
                },
                {
                    "name": "C5",
                    "midi": 72,
                    "time": 279.5419006666673,
                    "velocity": 0.5433070866141733,
                    "duration": 0.11936033333336127
                },
                {
                    "name": "B3",
                    "midi": 59,
                    "time": 279.66126100000065,
                    "velocity": 0.5118110236220472,
                    "duration": 0.11936033333336127
                },
                {
                    "name": "B4",
                    "midi": 71,
                    "time": 279.66126100000065,
                    "velocity": 0.6062992125984252,
                    "duration": 0.11936033333336127
                },
                {
                    "name": "C5",
                    "midi": 72,
                    "time": 279.780621333334,
                    "velocity": 0.5590551181102362,
                    "duration": 0.11936033333336127
                },
                {
                    "name": "C4",
                    "midi": 60,
                    "time": 279.780621333334,
                    "velocity": 0.47244094488188976,
                    "duration": 0.11936033333336127
                },
                {
                    "name": "D4",
                    "midi": 62,
                    "time": 279.8999816666674,
                    "velocity": 0.48031496062992124,
                    "duration": 0.11936033333336127
                },
                {
                    "name": "D5",
                    "midi": 74,
                    "time": 279.8999816666674,
                    "velocity": 0.5669291338582677,
                    "duration": 0.11936033333336127
                },
                {
                    "name": "E5",
                    "midi": 76,
                    "time": 280.01934200000073,
                    "velocity": 0.6929133858267716,
                    "duration": 0.35808100000002696
                },
                {
                    "name": "E4",
                    "midi": 64,
                    "time": 280.01934200000073,
                    "velocity": 0.5826771653543307,
                    "duration": 0.35808100000002696
                },
                {
                    "name": "A4",
                    "midi": 69,
                    "time": 280.37742300000076,
                    "velocity": 0.5590551181102362,
                    "duration": 0.11936033333336127
                },
                {
                    "name": "A5",
                    "midi": 81,
                    "time": 280.37742300000076,
                    "velocity": 0.6614173228346457,
                    "duration": 0.11936033333336127
                },
                {
                    "name": "B4",
                    "midi": 71,
                    "time": 280.4967833333341,
                    "velocity": 0.5039370078740157,
                    "duration": 0.11936033333336127
                },
                {
                    "name": "B5",
                    "midi": 83,
                    "time": 280.4967833333341,
                    "velocity": 0.5984251968503937,
                    "duration": 0.11936033333336127
                },
                {
                    "name": "C6",
                    "midi": 84,
                    "time": 280.6161436666675,
                    "velocity": 0.5984251968503937,
                    "duration": 0.11936033333336127
                },
                {
                    "name": "C5",
                    "midi": 72,
                    "time": 280.6161436666675,
                    "velocity": 0.5039370078740157,
                    "duration": 0.11936033333336127
                },
                {
                    "name": "B5",
                    "midi": 83,
                    "time": 280.73550400000084,
                    "velocity": 0.6692913385826772,
                    "duration": 0.11936033333336127
                },
                {
                    "name": "B4",
                    "midi": 71,
                    "time": 280.73550400000084,
                    "velocity": 0.5669291338582677,
                    "duration": 0.11936033333336127
                },
                {
                    "name": "C6",
                    "midi": 84,
                    "time": 280.8548643333342,
                    "velocity": 0.6062992125984252,
                    "duration": 0.11936033333336127
                },
                {
                    "name": "C5",
                    "midi": 72,
                    "time": 280.8548643333342,
                    "velocity": 0.5118110236220472,
                    "duration": 0.11936033333336127
                },
                {
                    "name": "D5",
                    "midi": 74,
                    "time": 280.97422466666757,
                    "velocity": 0.5118110236220472,
                    "duration": 0.11936033333336127
                },
                {
                    "name": "D6",
                    "midi": 86,
                    "time": 280.97422466666757,
                    "velocity": 0.6062992125984252,
                    "duration": 0.11936033333336127
                },
                {
                    "name": "E5",
                    "midi": 76,
                    "time": 281.0935850000009,
                    "velocity": 0.6299212598425197,
                    "duration": 0.35808100000002696
                },
                {
                    "name": "E6",
                    "midi": 88,
                    "time": 281.0935850000009,
                    "velocity": 0.7480314960629921,
                    "duration": 0.35808100000002696
                },
                {
                    "name": "A5",
                    "midi": 81,
                    "time": 281.45166600000096,
                    "velocity": 0.6614173228346457,
                    "duration": 0.11936033333336127
                },
                {
                    "name": "A4",
                    "midi": 69,
                    "time": 281.45166600000096,
                    "velocity": 0.5590551181102362,
                    "duration": 0.11936033333336127
                },
                {
                    "name": "B4",
                    "midi": 71,
                    "time": 281.5710263333343,
                    "velocity": 0.5039370078740157,
                    "duration": 0.11936033333336127
                },
                {
                    "name": "B5",
                    "midi": 83,
                    "time": 281.5710263333343,
                    "velocity": 0.5984251968503937,
                    "duration": 0.11936033333336127
                },
                {
                    "name": "C5",
                    "midi": 72,
                    "time": 281.6903866666677,
                    "velocity": 0.5039370078740157,
                    "duration": 0.11936033333336127
                },
                {
                    "name": "C6",
                    "midi": 84,
                    "time": 281.6903866666677,
                    "velocity": 0.5984251968503937,
                    "duration": 0.11936033333336127
                },
                {
                    "name": "B4",
                    "midi": 71,
                    "time": 281.80974700000104,
                    "velocity": 0.5669291338582677,
                    "duration": 0.11936033333336127
                },
                {
                    "name": "B5",
                    "midi": 83,
                    "time": 281.80974700000104,
                    "velocity": 0.6692913385826772,
                    "duration": 0.11936033333336127
                },
                {
                    "name": "C6",
                    "midi": 84,
                    "time": 281.9291073333344,
                    "velocity": 0.6062992125984252,
                    "duration": 0.11936033333336127
                },
                {
                    "name": "C5",
                    "midi": 72,
                    "time": 281.9291073333344,
                    "velocity": 0.5118110236220472,
                    "duration": 0.11936033333336127
                },
                {
                    "name": "D5",
                    "midi": 74,
                    "time": 282.04846766666776,
                    "velocity": 0.5118110236220472,
                    "duration": 0.11936033333336127
                },
                {
                    "name": "D6",
                    "midi": 86,
                    "time": 282.04846766666776,
                    "velocity": 0.6062992125984252,
                    "duration": 0.11936033333336127
                },
                {
                    "name": "E5",
                    "midi": 76,
                    "time": 282.1678280000011,
                    "velocity": 0.6299212598425197,
                    "duration": 0.35808100000002696
                },
                {
                    "name": "E6",
                    "midi": 88,
                    "time": 282.1678280000011,
                    "velocity": 0.7480314960629921,
                    "duration": 0.35808100000002696
                },
                {
                    "name": "A5",
                    "midi": 81,
                    "time": 282.52590900000115,
                    "velocity": 0.6299212598425197,
                    "duration": 0.17904049999998506
                },
                {
                    "name": "E5",
                    "midi": 76,
                    "time": 282.52590900000115,
                    "velocity": 0.6299212598425197,
                    "duration": 0.17904049999998506
                },
                {
                    "name": "C5",
                    "midi": 72,
                    "time": 282.52590900000115,
                    "velocity": 0.6299212598425197,
                    "duration": 0.17904049999998506
                },
                {
                    "name": "C6",
                    "midi": 84,
                    "time": 282.52590900000115,
                    "velocity": 0.7480314960629921,
                    "duration": 0.17904049999998506
                },
                {
                    "name": "B5",
                    "midi": 83,
                    "time": 283.24207100000115,
                    "velocity": 0.7165354330708661,
                    "duration": 0.17904049999998506
                },
                {
                    "name": "E5",
                    "midi": 76,
                    "time": 283.24207100000115,
                    "velocity": 0.6062992125984252,
                    "duration": 0.17904049999998506
                },
                {
                    "name": "G#5",
                    "midi": 80,
                    "time": 283.24207100000115,
                    "velocity": 0.6062992125984252,
                    "duration": 0.17904049999998506
                },
                {
                    "name": "B4",
                    "midi": 71,
                    "time": 283.24207100000115,
                    "velocity": 0.6062992125984252,
                    "duration": 0.17904049999998506
                },
                {
                    "name": "C6",
                    "midi": 84,
                    "time": 283.6001520000011,
                    "velocity": 0.7480314960629921,
                    "duration": 0.17904049999998506
                },
                {
                    "name": "E5",
                    "midi": 76,
                    "time": 283.6001520000011,
                    "velocity": 0.6299212598425197,
                    "duration": 0.17904049999998506
                },
                {
                    "name": "A5",
                    "midi": 81,
                    "time": 283.6001520000011,
                    "velocity": 0.6299212598425197,
                    "duration": 0.17904049999998506
                },
                {
                    "name": "C5",
                    "midi": 72,
                    "time": 283.6001520000011,
                    "velocity": 0.6299212598425197,
                    "duration": 0.17904049999998506
                },
                {
                    "name": "B4",
                    "midi": 71,
                    "time": 284.3163140000011,
                    "velocity": 0.6062992125984252,
                    "duration": 0.17904049999998506
                },
                {
                    "name": "E5",
                    "midi": 76,
                    "time": 284.3163140000011,
                    "velocity": 0.6062992125984252,
                    "duration": 0.17904049999998506
                },
                {
                    "name": "G#5",
                    "midi": 80,
                    "time": 284.3163140000011,
                    "velocity": 0.6062992125984252,
                    "duration": 0.17904049999998506
                },
                {
                    "name": "B5",
                    "midi": 83,
                    "time": 284.3163140000011,
                    "velocity": 0.7165354330708661,
                    "duration": 0.17904049999998506
                },
                {
                    "name": "A5",
                    "midi": 81,
                    "time": 284.6743950000011,
                    "velocity": 0.6299212598425197,
                    "duration": 0.17904049999998506
                },
                {
                    "name": "C6",
                    "midi": 84,
                    "time": 284.6743950000011,
                    "velocity": 0.7480314960629921,
                    "duration": 0.17904049999998506
                },
                {
                    "name": "E5",
                    "midi": 76,
                    "time": 284.6743950000011,
                    "velocity": 0.6299212598425197,
                    "duration": 0.17904049999998506
                },
                {
                    "name": "C5",
                    "midi": 72,
                    "time": 284.6743950000011,
                    "velocity": 0.6299212598425197,
                    "duration": 0.17904049999998506
                },
                {
                    "name": "G#5",
                    "midi": 80,
                    "time": 285.3905570000011,
                    "velocity": 0.7165354330708661,
                    "duration": 0.17904049999998506
                },
                {
                    "name": "E5",
                    "midi": 76,
                    "time": 285.3905570000011,
                    "velocity": 0.6062992125984252,
                    "duration": 0.17904049999998506
                },
                {
                    "name": "B4",
                    "midi": 71,
                    "time": 285.3905570000011,
                    "velocity": 0.6062992125984252,
                    "duration": 0.17904049999998506
                },
                {
                    "name": "B5",
                    "midi": 83,
                    "time": 285.3905570000011,
                    "velocity": 0.7165354330708661,
                    "duration": 0.17904049999998506
                },
                {
                    "name": "A4",
                    "midi": 69,
                    "time": 285.74863800000105,
                    "velocity": 0.6299212598425197,
                    "duration": 0.17904049999998506
                },
                {
                    "name": "A5",
                    "midi": 81,
                    "time": 285.74863800000105,
                    "velocity": 0.7480314960629921,
                    "duration": 0.17904049999998506
                },
                {
                    "name": "C5",
                    "midi": 72,
                    "time": 285.74863800000105,
                    "velocity": 0.6299212598425197,
                    "duration": 0.17904049999998506
                },
                {
                    "name": "E5",
                    "midi": 76,
                    "time": 285.74863800000105,
                    "velocity": 0.6299212598425197,
                    "duration": 0.17904049999998506
                },
                {
                    "name": "E4",
                    "midi": 64,
                    "time": 286.822881000001,
                    "velocity": 0.5669291338582677,
                    "duration": 0.17904049999998506
                },
                {
                    "name": "A3",
                    "midi": 57,
                    "time": 286.822881000001,
                    "velocity": 0.5669291338582677,
                    "duration": 0.17904049999998506
                },
                {
                    "name": "C4",
                    "midi": 60,
                    "time": 286.822881000001,
                    "velocity": 0.5669291338582677,
                    "duration": 0.17904049999998506
                },
                {
                    "name": "A4",
                    "midi": 69,
                    "time": 286.822881000001,
                    "velocity": 0.6692913385826772,
                    "duration": 0.17904049999998506
                },
                {
                    "name": "C4",
                    "midi": 60,
                    "time": 287.180962000001,
                    "velocity": 0.5826771653543307,
                    "duration": 0.17904049999998506
                },
                {
                    "name": "E4",
                    "midi": 64,
                    "time": 287.180962000001,
                    "velocity": 0.5826771653543307,
                    "duration": 0.17904049999998506
                },
                {
                    "name": "A3",
                    "midi": 57,
                    "time": 287.180962000001,
                    "velocity": 0.5826771653543307,
                    "duration": 0.17904049999998506
                },
                {
                    "name": "A4",
                    "midi": 69,
                    "time": 287.180962000001,
                    "velocity": 0.6929133858267716,
                    "duration": 0.17904049999998506
                },
                {
                    "name": "C4",
                    "midi": 60,
                    "time": 287.53904300000096,
                    "velocity": 0.5984251968503937,
                    "duration": 0.17904049999998506
                },
                {
                    "name": "A3",
                    "midi": 57,
                    "time": 287.53904300000096,
                    "velocity": 0.5984251968503937,
                    "duration": 0.17904049999998506
                },
                {
                    "name": "E4",
                    "midi": 64,
                    "time": 287.53904300000096,
                    "velocity": 0.5984251968503937,
                    "duration": 0.17904049999998506
                },
                {
                    "name": "A4",
                    "midi": 69,
                    "time": 287.53904300000096,
                    "velocity": 0.7086614173228346,
                    "duration": 0.17904049999998506
                },
                {
                    "name": "A3",
                    "midi": 57,
                    "time": 287.89712400000093,
                    "velocity": 0.6062992125984252,
                    "duration": 0.17904049999998506
                },
                {
                    "name": "A4",
                    "midi": 69,
                    "time": 287.89712400000093,
                    "velocity": 0.7165354330708661,
                    "duration": 0.17904049999998506
                },
                {
                    "name": "C4",
                    "midi": 60,
                    "time": 287.89712400000093,
                    "velocity": 0.6062992125984252,
                    "duration": 0.17904049999998506
                },
                {
                    "name": "E4",
                    "midi": 64,
                    "time": 287.89712400000093,
                    "velocity": 0.6062992125984252,
                    "duration": 0.17904049999998506
                }
            ],
            "controlChanges": {
                "7": [
                    {
                        "number": 7,
                        "time": 0,
                        "value": 0.7874015748031497
                    }
                ],
                "10": [
                    {
                        "number": 10,
                        "time": 0,
                        "value": 0.5039370078740157
                    }
                ],
                "91": [
                    {
                        "number": 91,
                        "time": 0,
                        "value": 1
                    }
                ]
            },
            "id": 1,
            "name": "Piano right",
            "instrumentNumber": 0,
            "instrument": "acoustic grand piano",
            "instrumentFamily": "piano",
            "channelNumber": 0,
            "isPercussion": false
        },
        {
            "startTime": 0.716162,
            "duration": 288.076164500003,
            "length": 1673,
            "notes": [
                {
                    "name": "E4",
                    "midi": 64,
                    "time": 0.716162,
                    "velocity": 0.3937007874015748,
                    "duration": 0.1193603333333334
                },
                {
                    "name": "F#4",
                    "midi": 66,
                    "time": 0.8355223333333334,
                    "velocity": 0.3464566929133858,
                    "duration": 0.11936033333333329
                },
                {
                    "name": "G#4",
                    "midi": 68,
                    "time": 0.9548826666666667,
                    "velocity": 0.3464566929133858,
                    "duration": 0.1193603333333334
                },
                {
                    "name": "F#4",
                    "midi": 66,
                    "time": 1.074243,
                    "velocity": 0.4094488188976378,
                    "duration": 0.11936033333333329
                },
                {
                    "name": "G#4",
                    "midi": 68,
                    "time": 1.1936033333333333,
                    "velocity": 0.3543307086614173,
                    "duration": 0.11936033333333329
                },
                {
                    "name": "A4",
                    "midi": 69,
                    "time": 1.3129636666666666,
                    "velocity": 0.3543307086614173,
                    "duration": 0.11936033333333329
                },
                {
                    "name": "E4",
                    "midi": 64,
                    "time": 1.7904049999999998,
                    "velocity": 0.3937007874015748,
                    "duration": 0.11936033333333329
                },
                {
                    "name": "F#4",
                    "midi": 66,
                    "time": 1.909765333333333,
                    "velocity": 0.36220472440944884,
                    "duration": 0.11936033333333329
                },
                {
                    "name": "G#4",
                    "midi": 68,
                    "time": 2.0291256666666664,
                    "velocity": 0.36220472440944884,
                    "duration": 0.11936033333333329
                },
                {
                    "name": "F#4",
                    "midi": 66,
                    "time": 2.1484859999999997,
                    "velocity": 0.3937007874015748,
                    "duration": 0.11936033333333329
                },
                {
                    "name": "G#4",
                    "midi": 68,
                    "time": 2.267846333333333,
                    "velocity": 0.3543307086614173,
                    "duration": 0.11936033333333329
                },
                {
                    "name": "A4",
                    "midi": 69,
                    "time": 2.3872066666666663,
                    "velocity": 0.3543307086614173,
                    "duration": 0.11936033333333329
                },
                {
                    "name": "A4",
                    "midi": 69,
                    "time": 2.8646479999999994,
                    "velocity": 0.3937007874015748,
                    "duration": 0.11936033333333329
                },
                {
                    "name": "B4",
                    "midi": 71,
                    "time": 2.9840083333333327,
                    "velocity": 0.3937007874015748,
                    "duration": 0.11936033333333329
                },
                {
                    "name": "C5",
                    "midi": 72,
                    "time": 3.103368666666666,
                    "velocity": 0.4015748031496063,
                    "duration": 0.11936033333333329
                },
                {
                    "name": "D5",
                    "midi": 74,
                    "time": 3.2227289999999993,
                    "velocity": 0.4094488188976378,
                    "duration": 0.11936033333333329
                },
                {
                    "name": "E5",
                    "midi": 76,
                    "time": 3.3420893333333326,
                    "velocity": 0.41732283464566927,
                    "duration": 0.11936033333333329
                },
                {
                    "name": "F5",
                    "midi": 77,
                    "time": 3.461449666666666,
                    "velocity": 0.4409448818897638,
                    "duration": 0.11936033333333329
                },
                {
                    "name": "E5",
                    "midi": 76,
                    "time": 3.580809999999999,
                    "velocity": 0.47244094488188976,
                    "duration": 0.11936033333333329
                },
                {
                    "name": "D5",
                    "midi": 74,
                    "time": 3.7001703333333325,
                    "velocity": 0.4330708661417323,
                    "duration": 0.11936033333333329
                },
                {
                    "name": "C5",
                    "midi": 72,
                    "time": 3.8195306666666657,
                    "velocity": 0.4015748031496063,
                    "duration": 0.11936033333333329
                },
                {
                    "name": "B4",
                    "midi": 71,
                    "time": 3.938890999999999,
                    "velocity": 0.4330708661417323,
                    "duration": 0.11936033333333373
                },
                {
                    "name": "A4",
                    "midi": 69,
                    "time": 4.058251333333333,
                    "velocity": 0.4094488188976378,
                    "duration": 0.11936033333333373
                },
                {
                    "name": "G4",
                    "midi": 67,
                    "time": 4.1776116666666665,
                    "velocity": 0.3937007874015748,
                    "duration": 0.11936033333333373
                },
                {
                    "name": "F4",
                    "midi": 65,
                    "time": 4.296972,
                    "velocity": 0.4645669291338583,
                    "duration": 0.13428037500000034
                },
                {
                    "name": "C4",
                    "midi": 60,
                    "time": 4.6550530000000006,
                    "velocity": 0.4409448818897638,
                    "duration": 0.13428037500000034
                },
                {
                    "name": "A3",
                    "midi": 57,
                    "time": 5.013134000000001,
                    "velocity": 0.3937007874015748,
                    "duration": 0.3580810000000003
                },
                {
                    "name": "G#3",
                    "midi": 56,
                    "time": 5.371215000000001,
                    "velocity": 0.41732283464566927,
                    "duration": 0.11936033333333373
                },
                {
                    "name": "F#3",
                    "midi": 54,
                    "time": 5.490575333333335,
                    "velocity": 0.3779527559055118,
                    "duration": 0.11936033333333373
                },
                {
                    "name": "E3",
                    "midi": 52,
                    "time": 5.609935666666669,
                    "velocity": 0.3779527559055118,
                    "duration": 0.11936033333333373
                },
                {
                    "name": "D#3",
                    "midi": 51,
                    "time": 5.729296000000002,
                    "velocity": 0.4094488188976378,
                    "duration": 0.11936033333333373
                },
                {
                    "name": "C#3",
                    "midi": 49,
                    "time": 5.848656333333336,
                    "velocity": 0.3700787401574803,
                    "duration": 0.11936033333333373
                },
                {
                    "name": "B2",
                    "midi": 47,
                    "time": 5.96801666666667,
                    "velocity": 0.3779527559055118,
                    "duration": 0.11936033333333373
                },
                {
                    "name": "A3",
                    "midi": 57,
                    "time": 6.087377000000004,
                    "velocity": 0.5039370078740157,
                    "duration": 0.3580810000000003
                },
                {
                    "name": "G#3",
                    "midi": 56,
                    "time": 6.445458000000004,
                    "velocity": 0.4251968503937008,
                    "duration": 0.11936033333333373
                },
                {
                    "name": "F#3",
                    "midi": 54,
                    "time": 6.564818333333338,
                    "velocity": 0.3858267716535433,
                    "duration": 0.11936033333333373
                },
                {
                    "name": "E3",
                    "midi": 52,
                    "time": 6.684178666666671,
                    "velocity": 0.3858267716535433,
                    "duration": 0.11936033333333373
                },
                {
                    "name": "D#3",
                    "midi": 51,
                    "time": 6.803539000000005,
                    "velocity": 0.41732283464566927,
                    "duration": 0.11936033333333373
                },
                {
                    "name": "C#3",
                    "midi": 49,
                    "time": 6.922899333333339,
                    "velocity": 0.3700787401574803,
                    "duration": 0.11936033333333373
                },
                {
                    "name": "B2",
                    "midi": 47,
                    "time": 7.042259666666673,
                    "velocity": 0.3700787401574803,
                    "duration": 0.11936033333333373
                },
                {
                    "name": "A3",
                    "midi": 57,
                    "time": 7.161620000000006,
                    "velocity": 0.5039370078740157,
                    "duration": 0.3580809999999994
                },
                {
                    "name": "G#3",
                    "midi": 56,
                    "time": 7.519701000000006,
                    "velocity": 0.4251968503937008,
                    "duration": 0.11936033333333373
                },
                {
                    "name": "F#3",
                    "midi": 54,
                    "time": 7.6390613333333395,
                    "velocity": 0.3700787401574803,
                    "duration": 0.11936033333333373
                },
                {
                    "name": "E3",
                    "midi": 52,
                    "time": 7.758421666666673,
                    "velocity": 0.3700787401574803,
                    "duration": 0.11936033333333373
                },
                {
                    "name": "D#3",
                    "midi": 51,
                    "time": 7.877782000000007,
                    "velocity": 0.4094488188976378,
                    "duration": 0.11936033333333285
                },
                {
                    "name": "C#3",
                    "midi": 49,
                    "time": 7.99714233333334,
                    "velocity": 0.3464566929133858,
                    "duration": 0.11936033333333285
                },
                {
                    "name": "B2",
                    "midi": 47,
                    "time": 8.116502666666673,
                    "velocity": 0.3464566929133858,
                    "duration": 0.11936033333333462
                },
                {
                    "name": "A3",
                    "midi": 57,
                    "time": 8.235863000000007,
                    "velocity": 0.5039370078740157,
                    "duration": 0.3580810000000003
                },
                {
                    "name": "G#3",
                    "midi": 56,
                    "time": 8.593944000000008,
                    "velocity": 0.3937007874015748,
                    "duration": 0.11936033333333285
                },
                {
                    "name": "F#3",
                    "midi": 54,
                    "time": 8.71330433333334,
                    "velocity": 0.33858267716535434,
                    "duration": 0.11936033333333285
                },
                {
                    "name": "E3",
                    "midi": 52,
                    "time": 8.832664666666673,
                    "velocity": 0.33858267716535434,
                    "duration": 0.11936033333333285
                },
                {
                    "name": "F#3",
                    "midi": 54,
                    "time": 8.952025000000006,
                    "velocity": 0.4094488188976378,
                    "duration": 0.11936033333333462
                },
                {
                    "name": "E3",
                    "midi": 52,
                    "time": 9.07138533333334,
                    "velocity": 0.3464566929133858,
                    "duration": 0.11936033333333285
                },
                {
                    "name": "D#3",
                    "midi": 51,
                    "time": 9.190745666666674,
                    "velocity": 0.3464566929133858,
                    "duration": 0.11936033333333285
                },
                {
                    "name": "E3",
                    "midi": 52,
                    "time": 9.310106000000006,
                    "velocity": 0.4094488188976378,
                    "duration": 0.11936033333333285
                },
                {
                    "name": "D#3",
                    "midi": 51,
                    "time": 9.42946633333334,
                    "velocity": 0.3700787401574803,
                    "duration": 0.11936033333333285
                },
                {
                    "name": "D3",
                    "midi": 50,
                    "time": 9.548826666666672,
                    "velocity": 0.3700787401574803,
                    "duration": 0.11936033333333285
                },
                {
                    "name": "E3",
                    "midi": 52,
                    "time": 9.668187000000005,
                    "velocity": 0.4409448818897638,
                    "duration": 0.11936033333333285
                },
                {
                    "name": "D3",
                    "midi": 50,
                    "time": 9.787547333333338,
                    "velocity": 0.4094488188976378,
                    "duration": 0.11936033333333285
                },
                {
                    "name": "C3",
                    "midi": 48,
                    "time": 9.90690766666667,
                    "velocity": 0.41732283464566927,
                    "duration": 0.11936033333333285
                },
                {
                    "name": "D3",
                    "midi": 50,
                    "time": 10.026268000000004,
                    "velocity": 0.4566929133858268,
                    "duration": 0.11936033333333462
                },
                {
                    "name": "C3",
                    "midi": 48,
                    "time": 10.145628333333338,
                    "velocity": 0.4330708661417323,
                    "duration": 0.11936033333333285
                },
                {
                    "name": "B2",
                    "midi": 47,
                    "time": 10.264988666666671,
                    "velocity": 0.4330708661417323,
                    "duration": 0.11936033333333285
                },
                {
                    "name": "C3",
                    "midi": 48,
                    "time": 10.384349000000004,
                    "velocity": 0.5118110236220472,
                    "duration": 0.11936033333333285
                },
                {
                    "name": "B2",
                    "midi": 47,
                    "time": 10.503709333333337,
                    "velocity": 0.4645669291338583,
                    "duration": 0.11936033333333285
                },
                {
                    "name": "A2",
                    "midi": 45,
                    "time": 10.62306966666667,
                    "velocity": 0.4645669291338583,
                    "duration": 0.11936033333333285
                },
                {
                    "name": "G#2",
                    "midi": 44,
                    "time": 10.742430000000002,
                    "velocity": 0.6062992125984252,
                    "duration": 0.11936033333333285
                },
                {
                    "name": "A2",
                    "midi": 45,
                    "time": 10.861790333333335,
                    "velocity": 0.5275590551181102,
                    "duration": 0.11936033333333285
                },
                {
                    "name": "B2",
                    "midi": 47,
                    "time": 10.981150666666668,
                    "velocity": 0.5275590551181102,
                    "duration": 0.11936033333333285
                },
                {
                    "name": "D2",
                    "midi": 38,
                    "time": 11.100511000000001,
                    "velocity": 0.5905511811023622,
                    "duration": 0.17904049999999927
                },
                {
                    "name": "G#2",
                    "midi": 44,
                    "time": 11.100511000000001,
                    "velocity": 0.5905511811023622,
                    "duration": 0.11936033333333285
                },
                {
                    "name": "A2",
                    "midi": 45,
                    "time": 11.219871333333334,
                    "velocity": 0.5196850393700787,
                    "duration": 0.11936033333333285
                },
                {
                    "name": "B2",
                    "midi": 47,
                    "time": 11.339231666666667,
                    "velocity": 0.5196850393700787,
                    "duration": 0.11936033333333285
                },
                {
                    "name": "D2",
                    "midi": 38,
                    "time": 11.458592,
                    "velocity": 0.5984251968503937,
                    "duration": 0.17904050000000105
                },
                {
                    "name": "G#2",
                    "midi": 44,
                    "time": 11.458592,
                    "velocity": 0.5984251968503937,
                    "duration": 0.11936033333333462
                },
                {
                    "name": "A2",
                    "midi": 45,
                    "time": 11.577952333333334,
                    "velocity": 0.5433070866141733,
                    "duration": 0.11936033333333285
                },
                {
                    "name": "B2",
                    "midi": 47,
                    "time": 11.697312666666667,
                    "velocity": 0.5433070866141733,
                    "duration": 0.11936033333333285
                },
                {
                    "name": "D2",
                    "midi": 38,
                    "time": 11.816673,
                    "velocity": 0.6141732283464567,
                    "duration": 0.17904050000000105
                },
                {
                    "name": "G#2",
                    "midi": 44,
                    "time": 11.816673,
                    "velocity": 0.6141732283464567,
                    "duration": 0.11936033333333462
                },
                {
                    "name": "A2",
                    "midi": 45,
                    "time": 11.936033333333334,
                    "velocity": 0.5669291338582677,
                    "duration": 0.11936033333333285
                },
                {
                    "name": "B2",
                    "midi": 47,
                    "time": 12.055393666666667,
                    "velocity": 0.5826771653543307,
                    "duration": 0.11936033333333285
                },
                {
                    "name": "D2",
                    "midi": 38,
                    "time": 12.174754,
                    "velocity": 0.6377952755905512,
                    "duration": 0.1790404999999975
                },
                {
                    "name": "G#2",
                    "midi": 44,
                    "time": 12.174754,
                    "velocity": 0.6377952755905512,
                    "duration": 0.11936033333333107
                },
                {
                    "name": "A2",
                    "midi": 45,
                    "time": 12.294114333333331,
                    "velocity": 0.5826771653543307,
                    "duration": 0.11936033333333285
                },
                {
                    "name": "B2",
                    "midi": 47,
                    "time": 12.413474666666664,
                    "velocity": 0.5984251968503937,
                    "duration": 0.11936033333333285
                },
                {
                    "name": "D2",
                    "midi": 38,
                    "time": 12.532834999999997,
                    "velocity": 0.6614173228346457,
                    "duration": 0.17904049999999927
                },
                {
                    "name": "G#2",
                    "midi": 44,
                    "time": 12.532834999999997,
                    "velocity": 0.6614173228346457,
                    "duration": 0.11936033333333285
                },
                {
                    "name": "A2",
                    "midi": 45,
                    "time": 12.65219533333333,
                    "velocity": 0.5984251968503937,
                    "duration": 0.11936033333333285
                },
                {
                    "name": "B2",
                    "midi": 47,
                    "time": 12.771555666666663,
                    "velocity": 0.6141732283464567,
                    "duration": 0.11936033333333285
                },
                {
                    "name": "G#1",
                    "midi": 32,
                    "time": 12.890915999999995,
                    "velocity": 0.6614173228346457,
                    "duration": 0.17904049999999927
                },
                {
                    "name": "G#2",
                    "midi": 44,
                    "time": 12.890915999999995,
                    "velocity": 0.7795275590551181,
                    "duration": 0.17904049999999927
                },
                {
                    "name": "E4",
                    "midi": 64,
                    "time": 15.755563999999996,
                    "velocity": 0.3937007874015748,
                    "duration": 0.11936033333333285
                },
                {
                    "name": "F#4",
                    "midi": 66,
                    "time": 15.874924333333329,
                    "velocity": 0.3464566929133858,
                    "duration": 0.11936033333333285
                },
                {
                    "name": "G#4",
                    "midi": 68,
                    "time": 15.994284666666662,
                    "velocity": 0.3464566929133858,
                    "duration": 0.11936033333333285
                },
                {
                    "name": "F#4",
                    "midi": 66,
                    "time": 16.113644999999995,
                    "velocity": 0.4094488188976378,
                    "duration": 0.11936033333333285
                },
                {
                    "name": "G#4",
                    "midi": 68,
                    "time": 16.233005333333328,
                    "velocity": 0.3543307086614173,
                    "duration": 0.11936033333333285
                },
                {
                    "name": "A4",
                    "midi": 69,
                    "time": 16.35236566666666,
                    "velocity": 0.3543307086614173,
                    "duration": 0.11936033333333285
                },
                {
                    "name": "E4",
                    "midi": 64,
                    "time": 16.82980699999999,
                    "velocity": 0.3937007874015748,
                    "duration": 0.11936033333333285
                },
                {
                    "name": "F#4",
                    "midi": 66,
                    "time": 16.949167333333325,
                    "velocity": 0.36220472440944884,
                    "duration": 0.11936033333333285
                },
                {
                    "name": "G#4",
                    "midi": 68,
                    "time": 17.068527666666657,
                    "velocity": 0.36220472440944884,
                    "duration": 0.11936033333333285
                },
                {
                    "name": "F#4",
                    "midi": 66,
                    "time": 17.18788799999999,
                    "velocity": 0.3937007874015748,
                    "duration": 0.11936033333333285
                },
                {
                    "name": "G#4",
                    "midi": 68,
                    "time": 17.307248333333323,
                    "velocity": 0.3543307086614173,
                    "duration": 0.11936033333333285
                },
                {
                    "name": "A4",
                    "midi": 69,
                    "time": 17.426608666666656,
                    "velocity": 0.3543307086614173,
                    "duration": 0.11936033333333285
                },
                {
                    "name": "A4",
                    "midi": 69,
                    "time": 17.904049999999987,
                    "velocity": 0.3937007874015748,
                    "duration": 0.11936033333333285
                },
                {
                    "name": "B4",
                    "midi": 71,
                    "time": 18.02341033333332,
                    "velocity": 0.3937007874015748,
                    "duration": 0.11936033333333285
                },
                {
                    "name": "C5",
                    "midi": 72,
                    "time": 18.142770666666653,
                    "velocity": 0.4015748031496063,
                    "duration": 0.11936033333333285
                },
                {
                    "name": "D5",
                    "midi": 74,
                    "time": 18.262130999999986,
                    "velocity": 0.4094488188976378,
                    "duration": 0.11936033333333285
                },
                {
                    "name": "E5",
                    "midi": 76,
                    "time": 18.38149133333332,
                    "velocity": 0.41732283464566927,
                    "duration": 0.11936033333333285
                },
                {
                    "name": "F5",
                    "midi": 77,
                    "time": 18.50085166666665,
                    "velocity": 0.4409448818897638,
                    "duration": 0.11936033333333285
                },
                {
                    "name": "E5",
                    "midi": 76,
                    "time": 18.620211999999984,
                    "velocity": 0.47244094488188976,
                    "duration": 0.11936033333333285
                },
                {
                    "name": "D5",
                    "midi": 74,
                    "time": 18.739572333333317,
                    "velocity": 0.4330708661417323,
                    "duration": 0.11936033333333285
                },
                {
                    "name": "C5",
                    "midi": 72,
                    "time": 18.85893266666665,
                    "velocity": 0.4015748031496063,
                    "duration": 0.11936033333333285
                },
                {
                    "name": "B4",
                    "midi": 71,
                    "time": 18.978292999999983,
                    "velocity": 0.4330708661417323,
                    "duration": 0.11936033333333285
                },
                {
                    "name": "A4",
                    "midi": 69,
                    "time": 19.097653333333316,
                    "velocity": 0.4094488188976378,
                    "duration": 0.11936033333333285
                },
                {
                    "name": "G4",
                    "midi": 67,
                    "time": 19.21701366666665,
                    "velocity": 0.3937007874015748,
                    "duration": 0.11936033333333285
                },
                {
                    "name": "F4",
                    "midi": 65,
                    "time": 19.33637399999998,
                    "velocity": 0.4645669291338583,
                    "duration": 0.13428037499999945
                },
                {
                    "name": "C4",
                    "midi": 60,
                    "time": 19.69445499999998,
                    "velocity": 0.4409448818897638,
                    "duration": 0.13428037499999945
                },
                {
                    "name": "A3",
                    "midi": 57,
                    "time": 20.05253599999998,
                    "velocity": 0.3937007874015748,
                    "duration": 0.13428037499999945
                },
                {
                    "name": "G3",
                    "midi": 55,
                    "time": 20.410616999999977,
                    "velocity": 0.4251968503937008,
                    "duration": 0.11936033333333285
                },
                {
                    "name": "F#3",
                    "midi": 54,
                    "time": 20.52997733333331,
                    "velocity": 0.3858267716535433,
                    "duration": 0.11936033333333285
                },
                {
                    "name": "E3",
                    "midi": 52,
                    "time": 20.649337666666643,
                    "velocity": 0.3858267716535433,
                    "duration": 0.11936033333333285
                },
                {
                    "name": "D#3",
                    "midi": 51,
                    "time": 20.768697999999976,
                    "velocity": 0.41732283464566927,
                    "duration": 0.11936033333333285
                },
                {
                    "name": "C#3",
                    "midi": 49,
                    "time": 20.88805833333331,
                    "velocity": 0.3700787401574803,
                    "duration": 0.11936033333333285
                },
                {
                    "name": "B2",
                    "midi": 47,
                    "time": 21.00741866666664,
                    "velocity": 0.3700787401574803,
                    "duration": 0.11936033333333285
                },
                {
                    "name": "A3",
                    "midi": 57,
                    "time": 21.126778999999974,
                    "velocity": 0.5039370078740157,
                    "duration": 0.3580810000000021
                },
                {
                    "name": "G3",
                    "midi": 55,
                    "time": 21.484859999999976,
                    "velocity": 0.4251968503937008,
                    "duration": 0.11936033333333285
                },
                {
                    "name": "F#3",
                    "midi": 54,
                    "time": 21.60422033333331,
                    "velocity": 0.3700787401574803,
                    "duration": 0.11936033333333285
                },
                {
                    "name": "E3",
                    "midi": 52,
                    "time": 21.723580666666642,
                    "velocity": 0.3700787401574803,
                    "duration": 0.11936033333333285
                },
                {
                    "name": "D#3",
                    "midi": 51,
                    "time": 21.842940999999975,
                    "velocity": 0.4094488188976378,
                    "duration": 0.11936033333333285
                },
                {
                    "name": "C#3",
                    "midi": 49,
                    "time": 21.962301333333308,
                    "velocity": 0.3464566929133858,
                    "duration": 0.11936033333333285
                },
                {
                    "name": "B2",
                    "midi": 47,
                    "time": 22.08166166666664,
                    "velocity": 0.3464566929133858,
                    "duration": 0.11936033333333285
                },
                {
                    "name": "A3",
                    "midi": 57,
                    "time": 22.201021999999973,
                    "velocity": 0.5039370078740157,
                    "duration": 0.3580810000000021
                },
                {
                    "name": "G3",
                    "midi": 55,
                    "time": 22.559102999999975,
                    "velocity": 0.3937007874015748,
                    "duration": 0.11936033333333285
                },
                {
                    "name": "F#3",
                    "midi": 54,
                    "time": 22.67846333333331,
                    "velocity": 0.33858267716535434,
                    "duration": 0.11936033333333285
                },
                {
                    "name": "E3",
                    "midi": 52,
                    "time": 22.79782366666664,
                    "velocity": 0.33858267716535434,
                    "duration": 0.11936033333333285
                },
                {
                    "name": "D#3",
                    "midi": 51,
                    "time": 22.917183999999974,
                    "velocity": 0.4094488188976378,
                    "duration": 0.11936033333333285
                },
                {
                    "name": "E3",
                    "midi": 52,
                    "time": 23.036544333333307,
                    "velocity": 0.3464566929133858,
                    "duration": 0.11936033333333285
                },
                {
                    "name": "F#3",
                    "midi": 54,
                    "time": 23.15590466666664,
                    "velocity": 0.3464566929133858,
                    "duration": 0.11936033333333285
                },
                {
                    "name": "E3",
                    "midi": 52,
                    "time": 23.275264999999973,
                    "velocity": 0.4094488188976378,
                    "duration": 0.1193603333333364
                },
                {
                    "name": "F#3",
                    "midi": 54,
                    "time": 23.39462533333331,
                    "velocity": 0.3700787401574803,
                    "duration": 0.11936033333333285
                },
                {
                    "name": "G3",
                    "midi": 55,
                    "time": 23.513985666666642,
                    "velocity": 0.3700787401574803,
                    "duration": 0.11936033333333285
                },
                {
                    "name": "F#3",
                    "midi": 54,
                    "time": 23.633345999999975,
                    "velocity": 0.4409448818897638,
                    "duration": 0.11936033333333285
                },
                {
                    "name": "G3",
                    "midi": 55,
                    "time": 23.752706333333307,
                    "velocity": 0.4094488188976378,
                    "duration": 0.11936033333333285
                },
                {
                    "name": "A3",
                    "midi": 57,
                    "time": 23.87206666666664,
                    "velocity": 0.41732283464566927,
                    "duration": 0.11936033333333285
                },
                {
                    "name": "G#3",
                    "midi": 56,
                    "time": 23.991426999999973,
                    "velocity": 0.4566929133858268,
                    "duration": 0.11936033333333285
                },
                {
                    "name": "A3",
                    "midi": 57,
                    "time": 24.110787333333306,
                    "velocity": 0.4330708661417323,
                    "duration": 0.11936033333333285
                },
                {
                    "name": "B3",
                    "midi": 59,
                    "time": 24.23014766666664,
                    "velocity": 0.4330708661417323,
                    "duration": 0.11936033333333285
                },
                {
                    "name": "A3",
                    "midi": 57,
                    "time": 24.34950799999997,
                    "velocity": 0.5118110236220472,
                    "duration": 0.11936033333333285
                },
                {
                    "name": "B3",
                    "midi": 59,
                    "time": 24.468868333333305,
                    "velocity": 0.4645669291338583,
                    "duration": 0.11936033333333285
                },
                {
                    "name": "C4",
                    "midi": 60,
                    "time": 24.588228666666637,
                    "velocity": 0.4645669291338583,
                    "duration": 0.11936033333333285
                },
                {
                    "name": "D4",
                    "midi": 62,
                    "time": 24.70758899999997,
                    "velocity": 0.7165354330708661,
                    "duration": 0.11936033333333285
                },
                {
                    "name": "A#3",
                    "midi": 58,
                    "time": 24.826949333333303,
                    "velocity": 0.6062992125984252,
                    "duration": 0.11936033333333285
                },
                {
                    "name": "F3",
                    "midi": 53,
                    "time": 24.946309666666636,
                    "velocity": 0.6062992125984252,
                    "duration": 0.11936033333333285
                },
                {
                    "name": "D3",
                    "midi": 50,
                    "time": 25.06566999999997,
                    "velocity": 0.6771653543307087,
                    "duration": 0.11936033333333285
                },
                {
                    "name": "A#2",
                    "midi": 46,
                    "time": 25.1850303333333,
                    "velocity": 0.5984251968503937,
                    "duration": 0.11936033333333285
                },
                {
                    "name": "F2",
                    "midi": 41,
                    "time": 25.304390666666635,
                    "velocity": 0.5984251968503937,
                    "duration": 0.11936033333333285
                },
                {
                    "name": "D2",
                    "midi": 38,
                    "time": 25.423750999999967,
                    "velocity": 0.6535433070866141,
                    "duration": 0.11936033333333285
                },
                {
                    "name": "A#1",
                    "midi": 34,
                    "time": 25.5431113333333,
                    "velocity": 0.5905511811023622,
                    "duration": 0.11936033333333285
                },
                {
                    "name": "F1",
                    "midi": 29,
                    "time": 25.662471666666633,
                    "velocity": 0.5905511811023622,
                    "duration": 0.11936033333333285
                },
                {
                    "name": "D1",
                    "midi": 26,
                    "time": 25.781831999999966,
                    "velocity": 0.7165354330708661,
                    "duration": 0.08952024999999963
                },
                {
                    "name": "E3",
                    "midi": 52,
                    "time": 26.139912999999968,
                    "velocity": 0.6062992125984252,
                    "duration": 0.17904049999999927
                },
                {
                    "name": "E2",
                    "midi": 40,
                    "time": 26.139912999999968,
                    "velocity": 0.5118110236220472,
                    "duration": 0.17904049999999927
                },
                {
                    "name": "C3",
                    "midi": 48,
                    "time": 26.139912999999968,
                    "velocity": 0.5118110236220472,
                    "duration": 0.17904049999999927
                },
                {
                    "name": "A2",
                    "midi": 45,
                    "time": 26.139912999999968,
                    "velocity": 0.5118110236220472,
                    "duration": 0.17904049999999927
                },
                {
                    "name": "G#2",
                    "midi": 44,
                    "time": 26.497993999999967,
                    "velocity": 0.48031496062992124,
                    "duration": 0.17904049999999927
                },
                {
                    "name": "B2",
                    "midi": 47,
                    "time": 26.497993999999967,
                    "velocity": 0.48031496062992124,
                    "duration": 0.17904049999999927
                },
                {
                    "name": "E3",
                    "midi": 52,
                    "time": 26.497993999999967,
                    "velocity": 0.5669291338582677,
                    "duration": 0.17904049999999927
                },
                {
                    "name": "E2",
                    "midi": 40,
                    "time": 26.497993999999967,
                    "velocity": 0.48031496062992124,
                    "duration": 0.17904049999999927
                },
                {
                    "name": "C4",
                    "midi": 60,
                    "time": 26.856074999999965,
                    "velocity": 0.4881889763779528,
                    "duration": 0.11936033333333285
                },
                {
                    "name": "B3",
                    "midi": 59,
                    "time": 26.975435333333298,
                    "velocity": 0.4409448818897638,
                    "duration": 0.11936033333333285
                },
                {
                    "name": "A3",
                    "midi": 57,
                    "time": 27.09479566666663,
                    "velocity": 0.4409448818897638,
                    "duration": 0.11936033333333285
                },
                {
                    "name": "G#3",
                    "midi": 56,
                    "time": 27.214155999999964,
                    "velocity": 0.48031496062992124,
                    "duration": 0.11936033333333285
                },
                {
                    "name": "F#3",
                    "midi": 54,
                    "time": 27.333516333333296,
                    "velocity": 0.4330708661417323,
                    "duration": 0.11936033333333285
                },
                {
                    "name": "E3",
                    "midi": 52,
                    "time": 27.45287666666663,
                    "velocity": 0.4251968503937008,
                    "duration": 0.11936033333333285
                },
                {
                    "name": "D4",
                    "midi": 62,
                    "time": 27.572236999999962,
                    "velocity": 0.5275590551181102,
                    "duration": 0.3580810000000021
                },
                {
                    "name": "C4",
                    "midi": 60,
                    "time": 27.930317999999964,
                    "velocity": 0.48031496062992124,
                    "duration": 0.11936033333333285
                },
                {
                    "name": "B3",
                    "midi": 59,
                    "time": 28.049678333333297,
                    "velocity": 0.4330708661417323,
                    "duration": 0.11936033333333285
                },
                {
                    "name": "A3",
                    "midi": 57,
                    "time": 28.16903866666663,
                    "velocity": 0.4330708661417323,
                    "duration": 0.11936033333333285
                },
                {
                    "name": "G#3",
                    "midi": 56,
                    "time": 28.288398999999963,
                    "velocity": 0.47244094488188976,
                    "duration": 0.11936033333333285
                },
                {
                    "name": "F#3",
                    "midi": 54,
                    "time": 28.407759333333296,
                    "velocity": 0.4251968503937008,
                    "duration": 0.11936033333333285
                },
                {
                    "name": "E3",
                    "midi": 52,
                    "time": 28.52711966666663,
                    "velocity": 0.4251968503937008,
                    "duration": 0.11936033333333285
                },
                {
                    "name": "D4",
                    "midi": 62,
                    "time": 28.64647999999996,
                    "velocity": 0.5354330708661418,
                    "duration": 0.35808099999999854
                },
                {
                    "name": "C4",
                    "midi": 60,
                    "time": 29.00456099999996,
                    "velocity": 0.5039370078740157,
                    "duration": 0.11936033333333285
                },
                {
                    "name": "B3",
                    "midi": 59,
                    "time": 29.123921333333293,
                    "velocity": 0.44881889763779526,
                    "duration": 0.11936033333333285
                },
                {
                    "name": "A3",
                    "midi": 57,
                    "time": 29.243281666666626,
                    "velocity": 0.44881889763779526,
                    "duration": 0.11936033333333285
                },
                {
                    "name": "G#3",
                    "midi": 56,
                    "time": 29.36264199999996,
                    "velocity": 0.5275590551181102,
                    "duration": 0.11936033333333285
                },
                {
                    "name": "A3",
                    "midi": 57,
                    "time": 29.48200233333329,
                    "velocity": 0.4409448818897638,
                    "duration": 0.11936033333333285
                },
                {
                    "name": "B3",
                    "midi": 59,
                    "time": 29.601362666666624,
                    "velocity": 0.4409448818897638,
                    "duration": 0.11936033333333285
                },
                {
                    "name": "A3",
                    "midi": 57,
                    "time": 29.720722999999957,
                    "velocity": 0.5669291338582677,
                    "duration": 0.11936033333333285
                },
                {
                    "name": "B3",
                    "midi": 59,
                    "time": 29.84008333333329,
                    "velocity": 0.5039370078740157,
                    "duration": 0.11936033333333285
                },
                {
                    "name": "C4",
                    "midi": 60,
                    "time": 29.959443666666623,
                    "velocity": 0.5039370078740157,
                    "duration": 0.11936033333333285
                },
                {
                    "name": "D4",
                    "midi": 62,
                    "time": 30.078803999999955,
                    "velocity": 0.7165354330708661,
                    "duration": 0.11936033333333285
                },
                {
                    "name": "A#3",
                    "midi": 58,
                    "time": 30.19816433333329,
                    "velocity": 0.5984251968503937,
                    "duration": 0.11936033333333285
                },
                {
                    "name": "F3",
                    "midi": 53,
                    "time": 30.31752466666662,
                    "velocity": 0.5984251968503937,
                    "duration": 0.11936033333333285
                },
                {
                    "name": "D3",
                    "midi": 50,
                    "time": 30.436884999999954,
                    "velocity": 0.6692913385826772,
                    "duration": 0.11936033333333285
                },
                {
                    "name": "A#2",
                    "midi": 46,
                    "time": 30.556245333333287,
                    "velocity": 0.5826771653543307,
                    "duration": 0.11936033333333285
                },
                {
                    "name": "F2",
                    "midi": 41,
                    "time": 30.67560566666662,
                    "velocity": 0.5905511811023622,
                    "duration": 0.11936033333333285
                },
                {
                    "name": "D2",
                    "midi": 38,
                    "time": 30.794965999999953,
                    "velocity": 0.6692913385826772,
                    "duration": 0.11936033333333285
                },
                {
                    "name": "A#1",
                    "midi": 34,
                    "time": 30.914326333333285,
                    "velocity": 0.5905511811023622,
                    "duration": 0.11936033333333285
                },
                {
                    "name": "F1",
                    "midi": 29,
                    "time": 31.03368666666662,
                    "velocity": 0.5984251968503937,
                    "duration": 0.11936033333333285
                },
                {
                    "name": "D1",
                    "midi": 26,
                    "time": 31.15304699999995,
                    "velocity": 0.7322834645669292,
                    "duration": 0.08952024999999963
                },
                {
                    "name": "E2",
                    "midi": 40,
                    "time": 31.511127999999953,
                    "velocity": 0.5354330708661418,
                    "duration": 0.17904049999999927
                },
                {
                    "name": "A2",
                    "midi": 45,
                    "time": 31.511127999999953,
                    "velocity": 0.5354330708661418,
                    "duration": 0.17904049999999927
                },
                {
                    "name": "C3",
                    "midi": 48,
                    "time": 31.511127999999953,
                    "velocity": 0.5354330708661418,
                    "duration": 0.17904049999999927
                },
                {
                    "name": "E3",
                    "midi": 52,
                    "time": 31.511127999999953,
                    "velocity": 0.6299212598425197,
                    "duration": 0.17904049999999927
                },
                {
                    "name": "E2",
                    "midi": 40,
                    "time": 31.86920899999995,
                    "velocity": 0.49606299212598426,
                    "duration": 0.17904049999999572
                },
                {
                    "name": "B2",
                    "midi": 47,
                    "time": 31.86920899999995,
                    "velocity": 0.49606299212598426,
                    "duration": 0.17904049999999572
                },
                {
                    "name": "G#2",
                    "midi": 44,
                    "time": 31.86920899999995,
                    "velocity": 0.49606299212598426,
                    "duration": 0.17904049999999572
                },
                {
                    "name": "E3",
                    "midi": 52,
                    "time": 31.86920899999995,
                    "velocity": 0.5905511811023622,
                    "duration": 0.17904049999999572
                },
                {
                    "name": "C2",
                    "midi": 36,
                    "time": 32.22728999999995,
                    "velocity": 0.5748031496062992,
                    "duration": 0.8952025000000035
                },
                {
                    "name": "E2",
                    "midi": 40,
                    "time": 32.22728999999995,
                    "velocity": 0.5748031496062992,
                    "duration": 0.8952025000000035
                },
                {
                    "name": "A2",
                    "midi": 45,
                    "time": 32.22728999999995,
                    "velocity": 0.6771653543307087,
                    "duration": 0.8952025000000035
                },
                {
                    "name": "A1",
                    "midi": 33,
                    "time": 32.22728999999995,
                    "velocity": 0.5748031496062992,
                    "duration": 0.8952025000000035
                },
                {
                    "name": "A2",
                    "midi": 45,
                    "time": 33.12249249999995,
                    "velocity": 0.5984251968503937,
                    "duration": 0.04476012500000337
                },
                {
                    "name": "B2",
                    "midi": 47,
                    "time": 33.16725262499995,
                    "velocity": 0.6062992125984252,
                    "duration": 0.04476012500000337
                },
                {
                    "name": "C3",
                    "midi": 48,
                    "time": 33.21201274999996,
                    "velocity": 0.6062992125984252,
                    "duration": 0.04476012500000337
                },
                {
                    "name": "D3",
                    "midi": 50,
                    "time": 33.25677287499996,
                    "velocity": 0.6141732283464567,
                    "duration": 0.04476012500000337
                },
                {
                    "name": "E3",
                    "midi": 52,
                    "time": 33.301532999999964,
                    "velocity": 0.6692913385826772,
                    "duration": 0.0671401875000015
                },
                {
                    "name": "E2",
                    "midi": 40,
                    "time": 33.301532999999964,
                    "velocity": 0.5669291338582677,
                    "duration": 0.0671401875000015
                },
                {
                    "name": "F3",
                    "midi": 53,
                    "time": 33.48057349999996,
                    "velocity": 0.5433070866141733,
                    "duration": 0.0671401875000015
                },
                {
                    "name": "F2",
                    "midi": 41,
                    "time": 33.48057349999996,
                    "velocity": 0.4566929133858268,
                    "duration": 0.0671401875000015
                },
                {
                    "name": "E3",
                    "midi": 52,
                    "time": 33.65961399999996,
                    "velocity": 0.6062992125984252,
                    "duration": 0.0671401875000015
                },
                {
                    "name": "E2",
                    "midi": 40,
                    "time": 33.65961399999996,
                    "velocity": 0.5118110236220472,
                    "duration": 0.0671401875000015
                },
                {
                    "name": "F3",
                    "midi": 53,
                    "time": 33.83865449999996,
                    "velocity": 0.5433070866141733,
                    "duration": 0.0671401875000015
                },
                {
                    "name": "F2",
                    "midi": 41,
                    "time": 33.83865449999996,
                    "velocity": 0.4566929133858268,
                    "duration": 0.0671401875000015
                },
                {
                    "name": "E3",
                    "midi": 52,
                    "time": 34.01769499999996,
                    "velocity": 0.6062992125984252,
                    "duration": 0.0671401875000015
                },
                {
                    "name": "E2",
                    "midi": 40,
                    "time": 34.01769499999996,
                    "velocity": 0.5118110236220472,
                    "duration": 0.0671401875000015
                },
                {
                    "name": "F1",
                    "midi": 29,
                    "time": 34.37577599999996,
                    "velocity": 0.5748031496062992,
                    "duration": 0.8952024999999963
                },
                {
                    "name": "C2",
                    "midi": 36,
                    "time": 34.37577599999996,
                    "velocity": 0.5748031496062992,
                    "duration": 0.8952024999999963
                },
                {
                    "name": "A1",
                    "midi": 33,
                    "time": 34.37577599999996,
                    "velocity": 0.5748031496062992,
                    "duration": 0.8952024999999963
                },
                {
                    "name": "F2",
                    "midi": 41,
                    "time": 34.37577599999996,
                    "velocity": 0.6850393700787402,
                    "duration": 0.8952024999999963
                },
                {
                    "name": "F2",
                    "midi": 41,
                    "time": 35.270978499999956,
                    "velocity": 0.5433070866141733,
                    "duration": 0.04476012500000337
                },
                {
                    "name": "G2",
                    "midi": 43,
                    "time": 35.31573862499996,
                    "velocity": 0.5433070866141733,
                    "duration": 0.04476012500000337
                },
                {
                    "name": "A2",
                    "midi": 45,
                    "time": 35.36049874999996,
                    "velocity": 0.5433070866141733,
                    "duration": 0.04476012500000337
                },
                {
                    "name": "B2",
                    "midi": 47,
                    "time": 35.405258874999966,
                    "velocity": 0.5511811023622047,
                    "duration": 0.04476012500000337
                },
                {
                    "name": "C2",
                    "midi": 36,
                    "time": 35.45001899999997,
                    "velocity": 0.4645669291338583,
                    "duration": 0.0671401875000015
                },
                {
                    "name": "C3",
                    "midi": 48,
                    "time": 35.45001899999997,
                    "velocity": 0.5511811023622047,
                    "duration": 0.0671401875000015
                },
                {
                    "name": "D2",
                    "midi": 38,
                    "time": 35.62905949999997,
                    "velocity": 0.4094488188976378,
                    "duration": 0.0671401875000015
                },
                {
                    "name": "D3",
                    "midi": 50,
                    "time": 35.62905949999997,
                    "velocity": 0.4881889763779528,
                    "duration": 0.0671401875000015
                },
                {
                    "name": "C2",
                    "midi": 36,
                    "time": 35.80809999999997,
                    "velocity": 0.47244094488188976,
                    "duration": 0.0671401875000015
                },
                {
                    "name": "C3",
                    "midi": 48,
                    "time": 35.80809999999997,
                    "velocity": 0.5590551181102362,
                    "duration": 0.0671401875000015
                },
                {
                    "name": "D3",
                    "midi": 50,
                    "time": 35.98714049999997,
                    "velocity": 0.5039370078740157,
                    "duration": 0.0671401875000015
                },
                {
                    "name": "D2",
                    "midi": 38,
                    "time": 35.98714049999997,
                    "velocity": 0.4251968503937008,
                    "duration": 0.0671401875000015
                },
                {
                    "name": "C2",
                    "midi": 36,
                    "time": 36.166180999999966,
                    "velocity": 0.5118110236220472,
                    "duration": 0.0671401875000015
                },
                {
                    "name": "C3",
                    "midi": 48,
                    "time": 36.166180999999966,
                    "velocity": 0.6062992125984252,
                    "duration": 0.0671401875000015
                },
                {
                    "name": "G#1",
                    "midi": 32,
                    "time": 36.524261999999965,
                    "velocity": 0.5748031496062992,
                    "duration": 0.7161619999999971
                },
                {
                    "name": "G#2",
                    "midi": 44,
                    "time": 36.524261999999965,
                    "velocity": 0.6771653543307087,
                    "duration": 0.7161619999999971
                },
                {
                    "name": "A1",
                    "midi": 33,
                    "time": 37.24042399999996,
                    "velocity": 0.5354330708661418,
                    "duration": 0.17904049999999927
                },
                {
                    "name": "A2",
                    "midi": 45,
                    "time": 37.24042399999996,
                    "velocity": 0.6299212598425197,
                    "duration": 0.17904049999999927
                },
                {
                    "name": "A#1",
                    "midi": 34,
                    "time": 37.59850499999996,
                    "velocity": 0.5118110236220472,
                    "duration": 0.17904049999999927
                },
                {
                    "name": "A#2",
                    "midi": 46,
                    "time": 37.59850499999996,
                    "velocity": 0.6062992125984252,
                    "duration": 0.17904049999999927
                },
                {
                    "name": "B1",
                    "midi": 35,
                    "time": 37.95658599999996,
                    "velocity": 0.5511811023622047,
                    "duration": 0.17904049999999216
                },
                {
                    "name": "B2",
                    "midi": 47,
                    "time": 37.95658599999996,
                    "velocity": 0.6535433070866141,
                    "duration": 0.17904049999999216
                },
                {
                    "name": "C3",
                    "midi": 48,
                    "time": 38.31466699999995,
                    "velocity": 0.6220472440944882,
                    "duration": 0.17904049999999927
                },
                {
                    "name": "C2",
                    "midi": 36,
                    "time": 38.31466699999995,
                    "velocity": 0.5275590551181102,
                    "duration": 0.17904049999999927
                },
                {
                    "name": "D3",
                    "midi": 50,
                    "time": 38.67274799999995,
                    "velocity": 0.6614173228346457,
                    "duration": 0.17904049999999927
                },
                {
                    "name": "D2",
                    "midi": 38,
                    "time": 38.67274799999995,
                    "velocity": 0.5590551181102362,
                    "duration": 0.17904049999999927
                },
                {
                    "name": "E3",
                    "midi": 52,
                    "time": 39.03082899999995,
                    "velocity": 0.6141732283464567,
                    "duration": 0.17904049999999927
                },
                {
                    "name": "E2",
                    "midi": 40,
                    "time": 39.03082899999995,
                    "velocity": 0.5196850393700787,
                    "duration": 0.17904049999999927
                },
                {
                    "name": "E3",
                    "midi": 52,
                    "time": 39.388909999999946,
                    "velocity": 0.5905511811023622,
                    "duration": 0.17904049999999927
                },
                {
                    "name": "E2",
                    "midi": 40,
                    "time": 39.388909999999946,
                    "velocity": 0.49606299212598426,
                    "duration": 0.17904049999999927
                },
                {
                    "name": "A2",
                    "midi": 45,
                    "time": 39.746990999999944,
                    "velocity": 0.5433070866141733,
                    "duration": 1.0742430000000027
                },
                {
                    "name": "C3",
                    "midi": 48,
                    "time": 39.746990999999944,
                    "velocity": 0.5433070866141733,
                    "duration": 1.0742430000000027
                },
                {
                    "name": "E3",
                    "midi": 52,
                    "time": 39.746990999999944,
                    "velocity": 0.5433070866141733,
                    "duration": 1.0742430000000027
                },
                {
                    "name": "A3",
                    "midi": 57,
                    "time": 39.746990999999944,
                    "velocity": 0.6456692913385826,
                    "duration": 1.0742430000000027
                },
                {
                    "name": "G#3",
                    "midi": 56,
                    "time": 40.82123399999995,
                    "velocity": 0.6062992125984252,
                    "duration": 0.0671401875000015
                },
                {
                    "name": "E3",
                    "midi": 52,
                    "time": 40.82123399999995,
                    "velocity": 0.5118110236220472,
                    "duration": 0.0671401875000015
                },
                {
                    "name": "A3",
                    "midi": 57,
                    "time": 41.000274499999946,
                    "velocity": 0.5275590551181102,
                    "duration": 0.0671401875000015
                },
                {
                    "name": "F3",
                    "midi": 53,
                    "time": 41.000274499999946,
                    "velocity": 0.4409448818897638,
                    "duration": 0.0671401875000015
                },
                {
                    "name": "G#3",
                    "midi": 56,
                    "time": 41.179314999999946,
                    "velocity": 0.5669291338582677,
                    "duration": 0.0671401875000015
                },
                {
                    "name": "E3",
                    "midi": 52,
                    "time": 41.179314999999946,
                    "velocity": 0.48031496062992124,
                    "duration": 0.0671401875000015
                },
                {
                    "name": "A3",
                    "midi": 57,
                    "time": 41.358355499999945,
                    "velocity": 0.5118110236220472,
                    "duration": 0.0671401875000015
                },
                {
                    "name": "F3",
                    "midi": 53,
                    "time": 41.358355499999945,
                    "velocity": 0.4330708661417323,
                    "duration": 0.0671401875000015
                },
                {
                    "name": "G#3",
                    "midi": 56,
                    "time": 41.537395999999944,
                    "velocity": 0.6062992125984252,
                    "duration": 0.0671401875000015
                },
                {
                    "name": "E3",
                    "midi": 52,
                    "time": 41.537395999999944,
                    "velocity": 0.5118110236220472,
                    "duration": 0.0671401875000015
                },
                {
                    "name": "C3",
                    "midi": 48,
                    "time": 41.89547699999994,
                    "velocity": 0.5669291338582677,
                    "duration": 1.0742430000000027
                },
                {
                    "name": "A2",
                    "midi": 45,
                    "time": 41.89547699999994,
                    "velocity": 0.5669291338582677,
                    "duration": 1.0742430000000027
                },
                {
                    "name": "F2",
                    "midi": 41,
                    "time": 41.89547699999994,
                    "velocity": 0.5669291338582677,
                    "duration": 1.0742430000000027
                },
                {
                    "name": "F3",
                    "midi": 53,
                    "time": 41.89547699999994,
                    "velocity": 0.6692913385826772,
                    "duration": 1.0742430000000027
                },
                {
                    "name": "E3",
                    "midi": 52,
                    "time": 42.969719999999946,
                    "velocity": 0.5590551181102362,
                    "duration": 0.0671401875000015
                },
                {
                    "name": "C3",
                    "midi": 48,
                    "time": 42.969719999999946,
                    "velocity": 0.47244094488188976,
                    "duration": 0.0671401875000015
                },
                {
                    "name": "F3",
                    "midi": 53,
                    "time": 43.148760499999945,
                    "velocity": 0.5039370078740157,
                    "duration": 0.0671401875000015
                },
                {
                    "name": "D3",
                    "midi": 50,
                    "time": 43.148760499999945,
                    "velocity": 0.4251968503937008,
                    "duration": 0.0671401875000015
                },
                {
                    "name": "E3",
                    "midi": 52,
                    "time": 43.327800999999944,
                    "velocity": 0.5511811023622047,
                    "duration": 0.0671401875000015
                },
                {
                    "name": "C3",
                    "midi": 48,
                    "time": 43.327800999999944,
                    "velocity": 0.4645669291338583,
                    "duration": 0.0671401875000015
                },
                {
                    "name": "F3",
                    "midi": 53,
                    "time": 43.50684149999994,
                    "velocity": 0.4881889763779528,
                    "duration": 0.0671401875000015
                },
                {
                    "name": "D3",
                    "midi": 50,
                    "time": 43.50684149999994,
                    "velocity": 0.4094488188976378,
                    "duration": 0.0671401875000015
                },
                {
                    "name": "E3",
                    "midi": 52,
                    "time": 43.68588199999994,
                    "velocity": 0.5826771653543307,
                    "duration": 0.0671401875000015
                },
                {
                    "name": "C3",
                    "midi": 48,
                    "time": 43.68588199999994,
                    "velocity": 0.4881889763779528,
                    "duration": 0.0671401875000015
                },
                {
                    "name": "D3",
                    "midi": 50,
                    "time": 44.04396299999994,
                    "velocity": 0.44881889763779526,
                    "duration": 0.7161620000000042
                },
                {
                    "name": "B2",
                    "midi": 47,
                    "time": 44.04396299999994,
                    "velocity": 0.44881889763779526,
                    "duration": 0.7161620000000042
                },
                {
                    "name": "G#3",
                    "midi": 56,
                    "time": 44.04396299999994,
                    "velocity": 0.5354330708661418,
                    "duration": 0.7161620000000042
                },
                {
                    "name": "F3",
                    "midi": 53,
                    "time": 44.04396299999994,
                    "velocity": 0.44881889763779526,
                    "duration": 0.7161620000000042
                },
                {
                    "name": "G#2",
                    "midi": 44,
                    "time": 44.04396299999994,
                    "velocity": 0.44881889763779526,
                    "duration": 0.7161620000000042
                },
                {
                    "name": "C3",
                    "midi": 48,
                    "time": 44.760124999999945,
                    "velocity": 0.4330708661417323,
                    "duration": 0.17904049999999927
                },
                {
                    "name": "A3",
                    "midi": 57,
                    "time": 44.760124999999945,
                    "velocity": 0.5118110236220472,
                    "duration": 0.17904049999999927
                },
                {
                    "name": "E3",
                    "midi": 52,
                    "time": 44.760124999999945,
                    "velocity": 0.4330708661417323,
                    "duration": 0.17904049999999927
                },
                {
                    "name": "A2",
                    "midi": 45,
                    "time": 44.760124999999945,
                    "velocity": 0.4330708661417323,
                    "duration": 0.17904049999999927
                },
                {
                    "name": "D3",
                    "midi": 50,
                    "time": 45.118205999999944,
                    "velocity": 0.4015748031496063,
                    "duration": 0.17904049999999927
                },
                {
                    "name": "A#3",
                    "midi": 58,
                    "time": 45.118205999999944,
                    "velocity": 0.47244094488188976,
                    "duration": 0.17904049999999927
                },
                {
                    "name": "F3",
                    "midi": 53,
                    "time": 45.118205999999944,
                    "velocity": 0.4015748031496063,
                    "duration": 0.17904049999999927
                },
                {
                    "name": "A#2",
                    "midi": 46,
                    "time": 45.118205999999944,
                    "velocity": 0.4015748031496063,
                    "duration": 0.17904049999999927
                },
                {
                    "name": "D3",
                    "midi": 50,
                    "time": 45.47628699999994,
                    "velocity": 0.3858267716535433,
                    "duration": 0.17904049999999927
                },
                {
                    "name": "G#3",
                    "midi": 56,
                    "time": 45.47628699999994,
                    "velocity": 0.3858267716535433,
                    "duration": 0.17904049999999927
                },
                {
                    "name": "B3",
                    "midi": 59,
                    "time": 45.47628699999994,
                    "velocity": 0.4566929133858268,
                    "duration": 0.17904049999999927
                },
                {
                    "name": "B2",
                    "midi": 47,
                    "time": 45.47628699999994,
                    "velocity": 0.3858267716535433,
                    "duration": 0.17904049999999927
                },
                {
                    "name": "F3",
                    "midi": 53,
                    "time": 45.47628699999994,
                    "velocity": 0.3858267716535433,
                    "duration": 0.17904049999999927
                },
                {
                    "name": "E3",
                    "midi": 52,
                    "time": 45.83436799999994,
                    "velocity": 0.3779527559055118,
                    "duration": 0.17904049999999927
                },
                {
                    "name": "C4",
                    "midi": 60,
                    "time": 45.83436799999994,
                    "velocity": 0.44881889763779526,
                    "duration": 0.17904049999999927
                },
                {
                    "name": "A3",
                    "midi": 57,
                    "time": 45.83436799999994,
                    "velocity": 0.3779527559055118,
                    "duration": 0.17904049999999927
                },
                {
                    "name": "C3",
                    "midi": 48,
                    "time": 45.83436799999994,
                    "velocity": 0.3779527559055118,
                    "duration": 0.17904049999999927
                },
                {
                    "name": "F3",
                    "midi": 53,
                    "time": 46.19244899999994,
                    "velocity": 0.3858267716535433,
                    "duration": 0.17904049999999927
                },
                {
                    "name": "D4",
                    "midi": 62,
                    "time": 46.19244899999994,
                    "velocity": 0.4566929133858268,
                    "duration": 0.17904049999999927
                },
                {
                    "name": "D3",
                    "midi": 50,
                    "time": 46.19244899999994,
                    "velocity": 0.3858267716535433,
                    "duration": 0.17904049999999927
                },
                {
                    "name": "B3",
                    "midi": 59,
                    "time": 46.19244899999994,
                    "velocity": 0.3858267716535433,
                    "duration": 0.17904049999999927
                },
                {
                    "name": "A3",
                    "midi": 57,
                    "time": 46.55052999999994,
                    "velocity": 0.3700787401574803,
                    "duration": 0.17904049999999927
                },
                {
                    "name": "E4",
                    "midi": 64,
                    "time": 46.55052999999994,
                    "velocity": 0.4409448818897638,
                    "duration": 0.17904049999999927
                },
                {
                    "name": "C4",
                    "midi": 60,
                    "time": 46.55052999999994,
                    "velocity": 0.3700787401574803,
                    "duration": 0.17904049999999927
                },
                {
                    "name": "E3",
                    "midi": 52,
                    "time": 46.55052999999994,
                    "velocity": 0.3700787401574803,
                    "duration": 0.17904049999999927
                },
                {
                    "name": "B3",
                    "midi": 59,
                    "time": 46.90861099999994,
                    "velocity": 0.3543307086614173,
                    "duration": 0.17904049999999927
                },
                {
                    "name": "E4",
                    "midi": 64,
                    "time": 46.90861099999994,
                    "velocity": 0.4251968503937008,
                    "duration": 0.17904049999999927
                },
                {
                    "name": "E3",
                    "midi": 52,
                    "time": 46.90861099999994,
                    "velocity": 0.3543307086614173,
                    "duration": 0.17904049999999927
                },
                {
                    "name": "G#3",
                    "midi": 56,
                    "time": 46.90861099999994,
                    "velocity": 0.3543307086614173,
                    "duration": 0.17904049999999927
                },
                {
                    "name": "A2",
                    "midi": 45,
                    "time": 47.266691999999935,
                    "velocity": 0.6062992125984252,
                    "duration": 0.17904049999999927
                },
                {
                    "name": "B2",
                    "midi": 47,
                    "time": 47.445732499999934,
                    "velocity": 0.5748031496062992,
                    "duration": 0.08952024999999963
                },
                {
                    "name": "C3",
                    "midi": 48,
                    "time": 47.535252749999934,
                    "velocity": 0.5275590551181102,
                    "duration": 0.08952024999999963
                },
                {
                    "name": "D3",
                    "midi": 50,
                    "time": 47.624772999999934,
                    "velocity": 0.5275590551181102,
                    "duration": 0.08952024999999963
                },
                {
                    "name": "E3",
                    "midi": 52,
                    "time": 47.71429324999993,
                    "velocity": 0.5196850393700787,
                    "duration": 0.08952024999999963
                },
                {
                    "name": "F#3",
                    "midi": 54,
                    "time": 47.80381349999993,
                    "velocity": 0.5118110236220472,
                    "duration": 0.08952024999999963
                },
                {
                    "name": "G#3",
                    "midi": 56,
                    "time": 47.89333374999993,
                    "velocity": 0.5039370078740157,
                    "duration": 0.08952024999999963
                },
                {
                    "name": "A3",
                    "midi": 57,
                    "time": 47.98285399999993,
                    "velocity": 0.49606299212598426,
                    "duration": 0.08952024999999963
                },
                {
                    "name": "B3",
                    "midi": 59,
                    "time": 48.07237424999993,
                    "velocity": 0.49606299212598426,
                    "duration": 0.08952024999999963
                },
                {
                    "name": "C4",
                    "midi": 60,
                    "time": 48.16189449999993,
                    "velocity": 0.4881889763779528,
                    "duration": 0.08952024999999963
                },
                {
                    "name": "D4",
                    "midi": 62,
                    "time": 48.25141474999993,
                    "velocity": 0.4881889763779528,
                    "duration": 0.08952024999999963
                },
                {
                    "name": "E4",
                    "midi": 64,
                    "time": 48.34093499999993,
                    "velocity": 0.48031496062992124,
                    "duration": 0.08952024999999963
                },
                {
                    "name": "F4",
                    "midi": 65,
                    "time": 48.43045524999993,
                    "velocity": 0.48031496062992124,
                    "duration": 0.08952024999999963
                },
                {
                    "name": "G4",
                    "midi": 67,
                    "time": 48.51997549999993,
                    "velocity": 0.47244094488188976,
                    "duration": 0.08952024999999963
                },
                {
                    "name": "A4",
                    "midi": 69,
                    "time": 48.60949574999993,
                    "velocity": 0.47244094488188976,
                    "duration": 0.08952024999999963
                },
                {
                    "name": "A#4",
                    "midi": 70,
                    "time": 48.69901599999993,
                    "velocity": 0.47244094488188976,
                    "duration": 0.17904050000000638
                },
                {
                    "name": "G4",
                    "midi": 67,
                    "time": 49.77325899999994,
                    "velocity": 0.47244094488188976,
                    "duration": 0.17904049999999927
                },
                {
                    "name": "E4",
                    "midi": 64,
                    "time": 50.847501999999935,
                    "velocity": 0.4330708661417323,
                    "duration": 0.17904049999999927
                },
                {
                    "name": "C#4",
                    "midi": 61,
                    "time": 51.92174499999993,
                    "velocity": 0.3779527559055118,
                    "duration": 0.17904049999999927
                },
                {
                    "name": "C4",
                    "midi": 60,
                    "time": 52.995987999999926,
                    "velocity": 0.36220472440944884,
                    "duration": 0.17904049999999927
                },
                {
                    "name": "F2",
                    "midi": 41,
                    "time": 53.71214999999992,
                    "velocity": 0.28346456692913385,
                    "duration": 0.17904049999999927
                },
                {
                    "name": "C3",
                    "midi": 48,
                    "time": 53.89119049999992,
                    "velocity": 0.1732283464566929,
                    "duration": 0.17904049999999927
                },
                {
                    "name": "F3",
                    "midi": 53,
                    "time": 54.07023099999992,
                    "velocity": 0.2125984251968504,
                    "duration": 0.17904049999999927
                },
                {
                    "name": "C3",
                    "midi": 48,
                    "time": 54.24927149999992,
                    "velocity": 0.1732283464566929,
                    "duration": 0.17904049999999927
                },
                {
                    "name": "F3",
                    "midi": 53,
                    "time": 54.42831199999992,
                    "velocity": 0.28346456692913385,
                    "duration": 0.17904049999999927
                },
                {
                    "name": "E2",
                    "midi": 40,
                    "time": 54.78639299999992,
                    "velocity": 0.28346456692913385,
                    "duration": 0.17904049999999927
                },
                {
                    "name": "C3",
                    "midi": 48,
                    "time": 54.96543349999992,
                    "velocity": 0.2047244094488189,
                    "duration": 0.17904049999999927
                },
                {
                    "name": "G3",
                    "midi": 55,
                    "time": 55.14447399999992,
                    "velocity": 0.2440944881889764,
                    "duration": 0.17904049999999927
                },
                {
                    "name": "C3",
                    "midi": 48,
                    "time": 55.323514499999916,
                    "velocity": 0.2047244094488189,
                    "duration": 0.17904049999999927
                },
                {
                    "name": "A#3",
                    "midi": 58,
                    "time": 55.502554999999916,
                    "velocity": 0.2755905511811024,
                    "duration": 0.17904049999999927
                },
                {
                    "name": "F2",
                    "midi": 41,
                    "time": 55.860635999999914,
                    "velocity": 0.25984251968503935,
                    "duration": 0.17904049999999927
                },
                {
                    "name": "C3",
                    "midi": 48,
                    "time": 56.03967649999991,
                    "velocity": 0.18110236220472442,
                    "duration": 0.17904049999999927
                },
                {
                    "name": "A3",
                    "midi": 57,
                    "time": 56.21871699999991,
                    "velocity": 0.2047244094488189,
                    "duration": 0.17904049999999927
                },
                {
                    "name": "C3",
                    "midi": 48,
                    "time": 56.39775749999991,
                    "velocity": 0.1732283464566929,
                    "duration": 0.17904049999999927
                },
                {
                    "name": "F3",
                    "midi": 53,
                    "time": 56.57679799999991,
                    "velocity": 0.28346456692913385,
                    "duration": 0.17904049999999927
                },
                {
                    "name": "E2",
                    "midi": 40,
                    "time": 56.93487899999991,
                    "velocity": 0.28346456692913385,
                    "duration": 0.17904049999999927
                },
                {
                    "name": "C3",
                    "midi": 48,
                    "time": 57.11391949999991,
                    "velocity": 0.2125984251968504,
                    "duration": 0.17904049999999927
                },
                {
                    "name": "E3",
                    "midi": 52,
                    "time": 57.29295999999991,
                    "velocity": 0.2440944881889764,
                    "duration": 0.17904049999999927
                },
                {
                    "name": "C3",
                    "midi": 48,
                    "time": 57.47200049999991,
                    "velocity": 0.2047244094488189,
                    "duration": 0.17904049999999927
                },
                {
                    "name": "G3",
                    "midi": 55,
                    "time": 57.65104099999991,
                    "velocity": 0.2755905511811024,
                    "duration": 0.17904049999999927
                },
                {
                    "name": "F2",
                    "midi": 41,
                    "time": 58.009121999999905,
                    "velocity": 0.2677165354330709,
                    "duration": 0.17904049999999927
                },
                {
                    "name": "C3",
                    "midi": 48,
                    "time": 58.188162499999905,
                    "velocity": 0.2125984251968504,
                    "duration": 0.17904049999999927
                },
                {
                    "name": "F3",
                    "midi": 53,
                    "time": 58.367202999999904,
                    "velocity": 0.2283464566929134,
                    "duration": 0.17904049999999927
                },
                {
                    "name": "C3",
                    "midi": 48,
                    "time": 58.5462434999999,
                    "velocity": 0.2047244094488189,
                    "duration": 0.17904049999999927
                },
                {
                    "name": "F3",
                    "midi": 53,
                    "time": 58.7252839999999,
                    "velocity": 0.28346456692913385,
                    "duration": 0.17904049999999927
                },
                {
                    "name": "E2",
                    "midi": 40,
                    "time": 59.0833649999999,
                    "velocity": 0.28346456692913385,
                    "duration": 0.17904049999999927
                },
                {
                    "name": "C3",
                    "midi": 48,
                    "time": 59.2624054999999,
                    "velocity": 0.2125984251968504,
                    "duration": 0.17904049999999927
                },
                {
                    "name": "G3",
                    "midi": 55,
                    "time": 59.4414459999999,
                    "velocity": 0.2440944881889764,
                    "duration": 0.17904049999999927
                },
                {
                    "name": "C3",
                    "midi": 48,
                    "time": 59.6204864999999,
                    "velocity": 0.2125984251968504,
                    "duration": 0.17904049999999927
                },
                {
                    "name": "A#3",
                    "midi": 58,
                    "time": 59.7995269999999,
                    "velocity": 0.2755905511811024,
                    "duration": 0.17904049999999927
                },
                {
                    "name": "F2",
                    "midi": 41,
                    "time": 60.1576079999999,
                    "velocity": 0.25984251968503935,
                    "duration": 0.17904049999999927
                },
                {
                    "name": "C3",
                    "midi": 48,
                    "time": 60.336648499999896,
                    "velocity": 0.18110236220472442,
                    "duration": 0.17904049999999927
                },
                {
                    "name": "A3",
                    "midi": 57,
                    "time": 60.515688999999895,
                    "velocity": 0.2125984251968504,
                    "duration": 0.17904049999999927
                },
                {
                    "name": "C3",
                    "midi": 48,
                    "time": 60.694729499999895,
                    "velocity": 0.1732283464566929,
                    "duration": 0.17904049999999927
                },
                {
                    "name": "F3",
                    "midi": 53,
                    "time": 60.873769999999894,
                    "velocity": 0.28346456692913385,
                    "duration": 0.17904049999999927
                },
                {
                    "name": "E2",
                    "midi": 40,
                    "time": 61.23185099999989,
                    "velocity": 0.2992125984251969,
                    "duration": 0.17904049999999927
                },
                {
                    "name": "C3",
                    "midi": 48,
                    "time": 61.41089149999989,
                    "velocity": 0.2204724409448819,
                    "duration": 0.17904049999999927
                },
                {
                    "name": "E3",
                    "midi": 52,
                    "time": 61.58993199999989,
                    "velocity": 0.2755905511811024,
                    "duration": 0.17904049999999927
                },
                {
                    "name": "C3",
                    "midi": 48,
                    "time": 61.76897249999989,
                    "velocity": 0.2204724409448819,
                    "duration": 0.17904049999999927
                },
                {
                    "name": "G3",
                    "midi": 55,
                    "time": 61.94801299999989,
                    "velocity": 0.2755905511811024,
                    "duration": 0.17904049999999927
                },
                {
                    "name": "E2",
                    "midi": 40,
                    "time": 62.30609399999989,
                    "velocity": 0.2992125984251969,
                    "duration": 0.17904049999999927
                },
                {
                    "name": "C#3",
                    "midi": 49,
                    "time": 62.48513449999989,
                    "velocity": 0.23622047244094488,
                    "duration": 0.17904049999999927
                },
                {
                    "name": "E3",
                    "midi": 52,
                    "time": 62.66417499999989,
                    "velocity": 0.28346456692913385,
                    "duration": 0.17904049999999927
                },
                {
                    "name": "C#3",
                    "midi": 49,
                    "time": 62.843215499999886,
                    "velocity": 0.2440944881889764,
                    "duration": 0.17904049999999927
                },
                {
                    "name": "G3",
                    "midi": 55,
                    "time": 63.022255999999885,
                    "velocity": 0.30708661417322836,
                    "duration": 0.17904049999999927
                },
                {
                    "name": "F2",
                    "midi": 41,
                    "time": 63.380336999999884,
                    "velocity": 0.3700787401574803,
                    "duration": 0.17904049999999927
                },
                {
                    "name": "D3",
                    "midi": 50,
                    "time": 63.55937749999988,
                    "velocity": 0.25984251968503935,
                    "duration": 0.17904049999999927
                },
                {
                    "name": "F3",
                    "midi": 53,
                    "time": 63.73841799999988,
                    "velocity": 0.28346456692913385,
                    "duration": 0.17904049999999927
                },
                {
                    "name": "D3",
                    "midi": 50,
                    "time": 63.91745849999988,
                    "velocity": 0.25984251968503935,
                    "duration": 0.17904049999999927
                },
                {
                    "name": "A#3",
                    "midi": 58,
                    "time": 64.09649899999988,
                    "velocity": 0.3228346456692913,
                    "duration": 0.17904049999999927
                },
                {
                    "name": "F2",
                    "midi": 41,
                    "time": 64.45457999999988,
                    "velocity": 0.3779527559055118,
                    "duration": 0.17904049999999927
                },
                {
                    "name": "F3",
                    "midi": 53,
                    "time": 64.63362049999988,
                    "velocity": 0.2755905511811024,
                    "duration": 0.17904049999999927
                },
                {
                    "name": "C4",
                    "midi": 60,
                    "time": 64.81266099999988,
                    "velocity": 0.31496062992125984,
                    "duration": 0.17904049999999927
                },
                {
                    "name": "F3",
                    "midi": 53,
                    "time": 64.99170149999988,
                    "velocity": 0.2755905511811024,
                    "duration": 0.17904049999999927
                },
                {
                    "name": "C4",
                    "midi": 60,
                    "time": 65.17074199999988,
                    "velocity": 0.3464566929133858,
                    "duration": 0.17904049999999927
                },
                {
                    "name": "A#2",
                    "midi": 46,
                    "time": 65.52882299999987,
                    "velocity": 0.30708661417322836,
                    "duration": 0.17904049999999927
                },
                {
                    "name": "F3",
                    "midi": 53,
                    "time": 65.70786349999987,
                    "velocity": 0.1889763779527559,
                    "duration": 0.17904049999999927
                },
                {
                    "name": "A#3",
                    "midi": 58,
                    "time": 65.88690399999987,
                    "velocity": 0.2047244094488189,
                    "duration": 0.17904049999999927
                },
                {
                    "name": "F3",
                    "midi": 53,
                    "time": 66.06594449999987,
                    "velocity": 0.1732283464566929,
                    "duration": 0.17904049999999927
                },
                {
                    "name": "D4",
                    "midi": 62,
                    "time": 66.24498499999987,
                    "velocity": 0.2440944881889764,
                    "duration": 0.17904049999999927
                },
                {
                    "name": "D2",
                    "midi": 38,
                    "time": 66.60306599999987,
                    "velocity": 0.2992125984251969,
                    "duration": 0.17904049999999927
                },
                {
                    "name": "D3",
                    "midi": 50,
                    "time": 66.78210649999987,
                    "velocity": 0.23622047244094488,
                    "duration": 0.17904049999999927
                },
                {
                    "name": "F#3",
                    "midi": 54,
                    "time": 66.96114699999987,
                    "velocity": 0.25984251968503935,
                    "duration": 0.17904049999999927
                },
                {
                    "name": "D3",
                    "midi": 50,
                    "time": 67.14018749999987,
                    "velocity": 0.2283464566929134,
                    "duration": 0.17904049999999927
                },
                {
                    "name": "A3",
                    "midi": 57,
                    "time": 67.31922799999987,
                    "velocity": 0.2992125984251969,
                    "duration": 0.17904049999999927
                },
                {
                    "name": "G2",
                    "midi": 43,
                    "time": 67.67730899999987,
                    "velocity": 0.28346456692913385,
                    "duration": 0.17904049999999927
                },
                {
                    "name": "D3",
                    "midi": 50,
                    "time": 67.85634949999987,
                    "velocity": 0.1968503937007874,
                    "duration": 0.17904049999999927
                },
                {
                    "name": "G3",
                    "midi": 55,
                    "time": 68.03538999999986,
                    "velocity": 0.2204724409448819,
                    "duration": 0.17904049999999927
                },
                {
                    "name": "D3",
                    "midi": 50,
                    "time": 68.21443049999986,
                    "velocity": 0.2047244094488189,
                    "duration": 0.17904049999999927
                },
                {
                    "name": "A#3",
                    "midi": 58,
                    "time": 68.39347099999986,
                    "velocity": 0.2440944881889764,
                    "duration": 0.17904049999999927
                },
                {
                    "name": "E2",
                    "midi": 40,
                    "time": 68.75155199999986,
                    "velocity": 0.28346456692913385,
                    "duration": 0.17904049999999927
                },
                {
                    "name": "C3",
                    "midi": 48,
                    "time": 68.93059249999986,
                    "velocity": 0.2125984251968504,
                    "duration": 0.17904049999999927
                },
                {
                    "name": "E3",
                    "midi": 52,
                    "time": 69.10963299999986,
                    "velocity": 0.2283464566929134,
                    "duration": 0.17904049999999927
                },
                {
                    "name": "C3",
                    "midi": 48,
                    "time": 69.28867349999986,
                    "velocity": 0.2125984251968504,
                    "duration": 0.17904049999999927
                },
                {
                    "name": "G3",
                    "midi": 55,
                    "time": 69.46771399999986,
                    "velocity": 0.2755905511811024,
                    "duration": 0.17904049999999927
                },
                {
                    "name": "F2",
                    "midi": 41,
                    "time": 69.82579499999986,
                    "velocity": 0.25984251968503935,
                    "duration": 0.17904049999999927
                },
                {
                    "name": "C3",
                    "midi": 48,
                    "time": 70.00483549999986,
                    "velocity": 0.2204724409448819,
                    "duration": 0.17904049999999927
                },
                {
                    "name": "A3",
                    "midi": 57,
                    "time": 70.18387599999986,
                    "velocity": 0.2283464566929134,
                    "duration": 0.17904049999999927
                },
                {
                    "name": "C3",
                    "midi": 48,
                    "time": 70.36291649999986,
                    "velocity": 0.2204724409448819,
                    "duration": 0.17904049999999927
                },
                {
                    "name": "F3",
                    "midi": 53,
                    "time": 70.54195699999985,
                    "velocity": 0.28346456692913385,
                    "duration": 0.17904049999999927
                },
                {
                    "name": "C2",
                    "midi": 36,
                    "time": 70.90003799999985,
                    "velocity": 0.25984251968503935,
                    "duration": 0.17904049999999927
                },
                {
                    "name": "C3",
                    "midi": 48,
                    "time": 71.07907849999985,
                    "velocity": 0.2283464566929134,
                    "duration": 0.17904049999999927
                },
                {
                    "name": "G3",
                    "midi": 55,
                    "time": 71.25811899999985,
                    "velocity": 0.2283464566929134,
                    "duration": 0.17904049999999927
                },
                {
                    "name": "C3",
                    "midi": 48,
                    "time": 71.43715949999985,
                    "velocity": 0.2283464566929134,
                    "duration": 0.17904049999999927
                },
                {
                    "name": "E3",
                    "midi": 52,
                    "time": 71.61619999999985,
                    "velocity": 0.28346456692913385,
                    "duration": 0.17904049999999927
                },
                {
                    "name": "F2",
                    "midi": 41,
                    "time": 71.97428099999985,
                    "velocity": 0.25984251968503935,
                    "duration": 0.17904049999999927
                },
                {
                    "name": "C3",
                    "midi": 48,
                    "time": 72.15332149999985,
                    "velocity": 0.2047244094488189,
                    "duration": 0.17904049999999927
                },
                {
                    "name": "A3",
                    "midi": 57,
                    "time": 72.33236199999985,
                    "velocity": 0.2047244094488189,
                    "duration": 0.17904049999999927
                },
                {
                    "name": "C3",
                    "midi": 48,
                    "time": 72.51140249999985,
                    "velocity": 0.2047244094488189,
                    "duration": 0.17904049999999927
                },
                {
                    "name": "F3",
                    "midi": 53,
                    "time": 72.69044299999985,
                    "velocity": 0.23622047244094488,
                    "duration": 0.17904049999999927
                },
                {
                    "name": "F2",
                    "midi": 41,
                    "time": 73.04852399999984,
                    "velocity": 0.3464566929133858,
                    "duration": 0.17904049999999927
                },
                {
                    "name": "F3",
                    "midi": 53,
                    "time": 73.22756449999984,
                    "velocity": 0.28346456692913385,
                    "duration": 0.17904049999999927
                },
                {
                    "name": "C4",
                    "midi": 60,
                    "time": 73.40660499999984,
                    "velocity": 0.2992125984251969,
                    "duration": 0.17904049999999927
                },
                {
                    "name": "F3",
                    "midi": 53,
                    "time": 73.58564549999984,
                    "velocity": 0.28346456692913385,
                    "duration": 0.17904049999999927
                },
                {
                    "name": "C4",
                    "midi": 60,
                    "time": 73.76468599999984,
                    "velocity": 0.3464566929133858,
                    "duration": 0.17904049999999927
                },
                {
                    "name": "A#2",
                    "midi": 46,
                    "time": 74.12276699999984,
                    "velocity": 0.30708661417322836,
                    "duration": 0.17904049999999927
                },
                {
                    "name": "F3",
                    "midi": 53,
                    "time": 74.30180749999984,
                    "velocity": 0.2047244094488189,
                    "duration": 0.17904049999999927
                },
                {
                    "name": "A#3",
                    "midi": 58,
                    "time": 74.48084799999984,
                    "velocity": 0.2047244094488189,
                    "duration": 0.17904049999999927
                },
                {
                    "name": "F3",
                    "midi": 53,
                    "time": 74.65988849999984,
                    "velocity": 0.2047244094488189,
                    "duration": 0.17904049999999927
                },
                {
                    "name": "D4",
                    "midi": 62,
                    "time": 74.83892899999984,
                    "velocity": 0.2440944881889764,
                    "duration": 0.17904049999999927
                },
                {
                    "name": "D2",
                    "midi": 38,
                    "time": 75.19700999999984,
                    "velocity": 0.31496062992125984,
                    "duration": 0.17904049999999927
                },
                {
                    "name": "D3",
                    "midi": 50,
                    "time": 75.37605049999983,
                    "velocity": 0.23622047244094488,
                    "duration": 0.17904049999999927
                },
                {
                    "name": "F#3",
                    "midi": 54,
                    "time": 75.55509099999983,
                    "velocity": 0.28346456692913385,
                    "duration": 0.17904049999999927
                },
                {
                    "name": "D3",
                    "midi": 50,
                    "time": 75.73413149999983,
                    "velocity": 0.2283464566929134,
                    "duration": 0.17904049999999927
                },
                {
                    "name": "A3",
                    "midi": 57,
                    "time": 75.91317199999983,
                    "velocity": 0.2992125984251969,
                    "duration": 0.17904049999999927
                },
                {
                    "name": "G2",
                    "midi": 43,
                    "time": 76.27125299999983,
                    "velocity": 0.28346456692913385,
                    "duration": 0.17904049999999927
                },
                {
                    "name": "D3",
                    "midi": 50,
                    "time": 76.45029349999983,
                    "velocity": 0.2047244094488189,
                    "duration": 0.17904049999999927
                },
                {
                    "name": "G3",
                    "midi": 55,
                    "time": 76.62933399999983,
                    "velocity": 0.2047244094488189,
                    "duration": 0.17904049999999927
                },
                {
                    "name": "D3",
                    "midi": 50,
                    "time": 76.80837449999983,
                    "velocity": 0.2047244094488189,
                    "duration": 0.17904049999999927
                },
                {
                    "name": "A#3",
                    "midi": 58,
                    "time": 76.98741499999983,
                    "velocity": 0.2440944881889764,
                    "duration": 0.17904049999999927
                },
                {
                    "name": "E2",
                    "midi": 40,
                    "time": 77.34549599999983,
                    "velocity": 0.28346456692913385,
                    "duration": 0.17904049999999927
                },
                {
                    "name": "C3",
                    "midi": 48,
                    "time": 77.52453649999983,
                    "velocity": 0.2125984251968504,
                    "duration": 0.17904049999999927
                },
                {
                    "name": "E3",
                    "midi": 52,
                    "time": 77.70357699999983,
                    "velocity": 0.2204724409448819,
                    "duration": 0.17904049999999927
                },
                {
                    "name": "C3",
                    "midi": 48,
                    "time": 77.88261749999982,
                    "velocity": 0.2204724409448819,
                    "duration": 0.17904049999999927
                },
                {
                    "name": "G3",
                    "midi": 55,
                    "time": 78.06165799999982,
                    "velocity": 0.2755905511811024,
                    "duration": 0.17904049999999927
                },
                {
                    "name": "F2",
                    "midi": 41,
                    "time": 78.41973899999982,
                    "velocity": 0.25984251968503935,
                    "duration": 0.17904049999999927
                },
                {
                    "name": "C3",
                    "midi": 48,
                    "time": 78.59877949999982,
                    "velocity": 0.2125984251968504,
                    "duration": 0.17904049999999927
                },
                {
                    "name": "A3",
                    "midi": 57,
                    "time": 78.77781999999982,
                    "velocity": 0.2283464566929134,
                    "duration": 0.17904049999999927
                },
                {
                    "name": "C3",
                    "midi": 48,
                    "time": 78.95686049999982,
                    "velocity": 0.2047244094488189,
                    "duration": 0.17904049999999927
                },
                {
                    "name": "F3",
                    "midi": 53,
                    "time": 79.13590099999982,
                    "velocity": 0.28346456692913385,
                    "duration": 0.17904049999999927
                },
                {
                    "name": "C2",
                    "midi": 36,
                    "time": 79.49398199999982,
                    "velocity": 0.25984251968503935,
                    "duration": 0.17904049999999927
                },
                {
                    "name": "C3",
                    "midi": 48,
                    "time": 79.67302249999982,
                    "velocity": 0.2047244094488189,
                    "duration": 0.17904049999999927
                },
                {
                    "name": "G3",
                    "midi": 55,
                    "time": 79.85206299999982,
                    "velocity": 0.2283464566929134,
                    "duration": 0.17904049999999927
                },
                {
                    "name": "C3",
                    "midi": 48,
                    "time": 80.03110349999982,
                    "velocity": 0.2125984251968504,
                    "duration": 0.17904049999999927
                },
                {
                    "name": "E3",
                    "midi": 52,
                    "time": 80.21014399999981,
                    "velocity": 0.28346456692913385,
                    "duration": 0.17904049999999927
                },
                {
                    "name": "F2",
                    "midi": 41,
                    "time": 80.56822499999981,
                    "velocity": 0.25984251968503935,
                    "duration": 0.17904049999999927
                },
                {
                    "name": "C3",
                    "midi": 48,
                    "time": 80.74726549999981,
                    "velocity": 0.18110236220472442,
                    "duration": 0.17904049999999927
                },
                {
                    "name": "F3",
                    "midi": 53,
                    "time": 80.92630599999981,
                    "velocity": 0.2047244094488189,
                    "duration": 0.17904049999999927
                },
                {
                    "name": "C3",
                    "midi": 48,
                    "time": 81.10534649999981,
                    "velocity": 0.18110236220472442,
                    "duration": 0.17904049999999927
                },
                {
                    "name": "A3",
                    "midi": 57,
                    "time": 81.28438699999981,
                    "velocity": 0.18110236220472442,
                    "duration": 0.17904049999999927
                },
                {
                    "name": "F2",
                    "midi": 41,
                    "time": 81.64246799999981,
                    "velocity": 0.25984251968503935,
                    "duration": 0.17904049999999927
                },
                {
                    "name": "C3",
                    "midi": 48,
                    "time": 81.82150849999981,
                    "velocity": 0.15748031496062992,
                    "duration": 0.17904049999999927
                },
                {
                    "name": "F3",
                    "midi": 53,
                    "time": 82.00054899999981,
                    "velocity": 0.2047244094488189,
                    "duration": 0.17904049999999927
                },
                {
                    "name": "C3",
                    "midi": 48,
                    "time": 82.1795894999998,
                    "velocity": 0.15748031496062992,
                    "duration": 0.17904049999999927
                },
                {
                    "name": "A3",
                    "midi": 57,
                    "time": 82.3586299999998,
                    "velocity": 0.1968503937007874,
                    "duration": 0.17904049999999927
                },
                {
                    "name": "E2",
                    "midi": 40,
                    "time": 82.7167109999998,
                    "velocity": 0.2440944881889764,
                    "duration": 0.17904049999999927
                },
                {
                    "name": "C3",
                    "midi": 48,
                    "time": 82.8957514999998,
                    "velocity": 0.14173228346456693,
                    "duration": 0.17904049999999927
                },
                {
                    "name": "E3",
                    "midi": 52,
                    "time": 83.0747919999998,
                    "velocity": 0.18110236220472442,
                    "duration": 0.17904049999999927
                },
                {
                    "name": "C3",
                    "midi": 48,
                    "time": 83.2538324999998,
                    "velocity": 0.14173228346456693,
                    "duration": 0.17904049999999927
                },
                {
                    "name": "A3",
                    "midi": 57,
                    "time": 83.4328729999998,
                    "velocity": 0.1968503937007874,
                    "duration": 0.17904049999999927
                },
                {
                    "name": "E2",
                    "midi": 40,
                    "time": 83.7909539999998,
                    "velocity": 0.2283464566929134,
                    "duration": 0.17904049999999927
                },
                {
                    "name": "B2",
                    "midi": 47,
                    "time": 83.9699944999998,
                    "velocity": 0.15748031496062992,
                    "duration": 0.17904049999999927
                },
                {
                    "name": "E3",
                    "midi": 52,
                    "time": 84.1490349999998,
                    "velocity": 0.1968503937007874,
                    "duration": 0.17904049999999927
                },
                {
                    "name": "B2",
                    "midi": 47,
                    "time": 84.3280754999998,
                    "velocity": 0.14173228346456693,
                    "duration": 0.17904049999999927
                },
                {
                    "name": "G#3",
                    "midi": 56,
                    "time": 84.5071159999998,
                    "velocity": 0.15748031496062992,
                    "duration": 0.17904049999999927
                },
                {
                    "name": "A2",
                    "midi": 45,
                    "time": 84.8651969999998,
                    "velocity": 0.2992125984251969,
                    "duration": 0.35808099999999854
                },
                {
                    "name": "E4",
                    "midi": 64,
                    "time": 85.5813589999998,
                    "velocity": 0.33070866141732286,
                    "duration": 0.11936033333333285
                },
                {
                    "name": "F#4",
                    "midi": 66,
                    "time": 85.70071933333313,
                    "velocity": 0.29133858267716534,
                    "duration": 0.11936033333333285
                },
                {
                    "name": "G#4",
                    "midi": 68,
                    "time": 85.82007966666646,
                    "velocity": 0.29133858267716534,
                    "duration": 0.11936033333333285
                },
                {
                    "name": "F#4",
                    "midi": 66,
                    "time": 85.93943999999979,
                    "velocity": 0.3464566929133858,
                    "duration": 0.11936033333334706
                },
                {
                    "name": "G#4",
                    "midi": 68,
                    "time": 86.05880033333314,
                    "velocity": 0.2992125984251969,
                    "duration": 0.11936033333333285
                },
                {
                    "name": "A4",
                    "midi": 69,
                    "time": 86.17816066666647,
                    "velocity": 0.2992125984251969,
                    "duration": 0.11936033333333285
                },
                {
                    "name": "E4",
                    "midi": 64,
                    "time": 86.6556019999998,
                    "velocity": 0.33070866141732286,
                    "duration": 0.11936033333333285
                },
                {
                    "name": "F#4",
                    "midi": 66,
                    "time": 86.77496233333314,
                    "velocity": 0.30708661417322836,
                    "duration": 0.11936033333333285
                },
                {
                    "name": "G#4",
                    "midi": 68,
                    "time": 86.89432266666647,
                    "velocity": 0.30708661417322836,
                    "duration": 0.11936033333333285
                },
                {
                    "name": "F#4",
                    "midi": 66,
                    "time": 87.0136829999998,
                    "velocity": 0.33070866141732286,
                    "duration": 0.11936033333333285
                },
                {
                    "name": "G#4",
                    "midi": 68,
                    "time": 87.13304333333313,
                    "velocity": 0.2992125984251969,
                    "duration": 0.11936033333333285
                },
                {
                    "name": "A4",
                    "midi": 69,
                    "time": 87.25240366666647,
                    "velocity": 0.2992125984251969,
                    "duration": 0.11936033333333285
                },
                {
                    "name": "A4",
                    "midi": 69,
                    "time": 87.7298449999998,
                    "velocity": 0.33070866141732286,
                    "duration": 0.11936033333333285
                },
                {
                    "name": "B4",
                    "midi": 71,
                    "time": 87.84920533333313,
                    "velocity": 0.33070866141732286,
                    "duration": 0.11936033333333285
                },
                {
                    "name": "C5",
                    "midi": 72,
                    "time": 87.96856566666646,
                    "velocity": 0.33858267716535434,
                    "duration": 0.11936033333333285
                },
                {
                    "name": "D5",
                    "midi": 74,
                    "time": 88.0879259999998,
                    "velocity": 0.3464566929133858,
                    "duration": 0.11936033333333285
                },
                {
                    "name": "E5",
                    "midi": 76,
                    "time": 88.20728633333313,
                    "velocity": 0.3543307086614173,
                    "duration": 0.11936033333333285
                },
                {
                    "name": "F5",
                    "midi": 77,
                    "time": 88.32664666666646,
                    "velocity": 0.3700787401574803,
                    "duration": 0.11936033333333285
                },
                {
                    "name": "E5",
                    "midi": 76,
                    "time": 88.4460069999998,
                    "velocity": 0.4015748031496063,
                    "duration": 0.11936033333333285
                },
                {
                    "name": "D5",
                    "midi": 74,
                    "time": 88.56536733333313,
                    "velocity": 0.36220472440944884,
                    "duration": 0.11936033333333285
                },
                {
                    "name": "C5",
                    "midi": 72,
                    "time": 88.68472766666646,
                    "velocity": 0.33858267716535434,
                    "duration": 0.11936033333333285
                },
                {
                    "name": "B4",
                    "midi": 71,
                    "time": 88.8040879999998,
                    "velocity": 0.36220472440944884,
                    "duration": 0.11936033333333285
                },
                {
                    "name": "A4",
                    "midi": 69,
                    "time": 88.92344833333313,
                    "velocity": 0.3464566929133858,
                    "duration": 0.11936033333333285
                },
                {
                    "name": "G4",
                    "midi": 67,
                    "time": 89.04280866666646,
                    "velocity": 0.33070866141732286,
                    "duration": 0.11936033333333285
                },
                {
                    "name": "F4",
                    "midi": 65,
                    "time": 89.16216899999979,
                    "velocity": 0.3937007874015748,
                    "duration": 0.134280375000003
                },
                {
                    "name": "C4",
                    "midi": 60,
                    "time": 89.52024999999979,
                    "velocity": 0.3700787401574803,
                    "duration": 0.134280375000003
                },
                {
                    "name": "A3",
                    "midi": 57,
                    "time": 89.87833099999979,
                    "velocity": 0.33070866141732286,
                    "duration": 0.1342803749999888
                },
                {
                    "name": "G#3",
                    "midi": 56,
                    "time": 90.23641199999977,
                    "velocity": 0.3543307086614173,
                    "duration": 0.11936033333333285
                },
                {
                    "name": "F#3",
                    "midi": 54,
                    "time": 90.3557723333331,
                    "velocity": 0.31496062992125984,
                    "duration": 0.11936033333333285
                },
                {
                    "name": "E3",
                    "midi": 52,
                    "time": 90.47513266666644,
                    "velocity": 0.31496062992125984,
                    "duration": 0.11936033333333285
                },
                {
                    "name": "D#3",
                    "midi": 51,
                    "time": 90.59449299999977,
                    "velocity": 0.3464566929133858,
                    "duration": 0.11936033333333285
                },
                {
                    "name": "C#3",
                    "midi": 49,
                    "time": 90.7138533333331,
                    "velocity": 0.30708661417322836,
                    "duration": 0.11936033333333285
                },
                {
                    "name": "B2",
                    "midi": 47,
                    "time": 90.83321366666644,
                    "velocity": 0.31496062992125984,
                    "duration": 0.11936033333333285
                },
                {
                    "name": "A3",
                    "midi": 57,
                    "time": 90.95257399999977,
                    "velocity": 0.4251968503937008,
                    "duration": 0.35808099999999854
                },
                {
                    "name": "G#3",
                    "midi": 56,
                    "time": 91.31065499999977,
                    "velocity": 0.3543307086614173,
                    "duration": 0.11936033333333285
                },
                {
                    "name": "F#3",
                    "midi": 54,
                    "time": 91.4300153333331,
                    "velocity": 0.3228346456692913,
                    "duration": 0.11936033333333285
                },
                {
                    "name": "E3",
                    "midi": 52,
                    "time": 91.54937566666644,
                    "velocity": 0.3228346456692913,
                    "duration": 0.11936033333333285
                },
                {
                    "name": "D#3",
                    "midi": 51,
                    "time": 91.66873599999977,
                    "velocity": 0.3543307086614173,
                    "duration": 0.11936033333333285
                },
                {
                    "name": "C#3",
                    "midi": 49,
                    "time": 91.7880963333331,
                    "velocity": 0.30708661417322836,
                    "duration": 0.11936033333333285
                },
                {
                    "name": "B2",
                    "midi": 47,
                    "time": 91.90745666666643,
                    "velocity": 0.30708661417322836,
                    "duration": 0.11936033333333285
                },
                {
                    "name": "A3",
                    "midi": 57,
                    "time": 92.02681699999977,
                    "velocity": 0.4251968503937008,
                    "duration": 0.35808100000001275
                },
                {
                    "name": "G#3",
                    "midi": 56,
                    "time": 92.38489799999978,
                    "velocity": 0.3543307086614173,
                    "duration": 0.11936033333333285
                },
                {
                    "name": "F#3",
                    "midi": 54,
                    "time": 92.50425833333311,
                    "velocity": 0.30708661417322836,
                    "duration": 0.11936033333333285
                },
                {
                    "name": "E3",
                    "midi": 52,
                    "time": 92.62361866666645,
                    "velocity": 0.30708661417322836,
                    "duration": 0.11936033333333285
                },
                {
                    "name": "D#3",
                    "midi": 51,
                    "time": 92.74297899999978,
                    "velocity": 0.3464566929133858,
                    "duration": 0.11936033333334706
                },
                {
                    "name": "C#3",
                    "midi": 49,
                    "time": 92.86233933333313,
                    "velocity": 0.29133858267716534,
                    "duration": 0.11936033333333285
                },
                {
                    "name": "B2",
                    "midi": 47,
                    "time": 92.98169966666646,
                    "velocity": 0.29133858267716534,
                    "duration": 0.11936033333333285
                },
                {
                    "name": "A3",
                    "midi": 57,
                    "time": 93.10105999999979,
                    "velocity": 0.4251968503937008,
                    "duration": 0.35808100000001275
                },
                {
                    "name": "G#3",
                    "midi": 56,
                    "time": 93.4591409999998,
                    "velocity": 0.33070866141732286,
                    "duration": 0.11936033333334706
                },
                {
                    "name": "F#3",
                    "midi": 54,
                    "time": 93.57850133333315,
                    "velocity": 0.28346456692913385,
                    "duration": 0.11936033333333285
                },
                {
                    "name": "E3",
                    "midi": 52,
                    "time": 93.69786166666648,
                    "velocity": 0.28346456692913385,
                    "duration": 0.11936033333333285
                },
                {
                    "name": "F#3",
                    "midi": 54,
                    "time": 93.81722199999982,
                    "velocity": 0.3543307086614173,
                    "duration": 0.11936033333334706
                },
                {
                    "name": "E3",
                    "midi": 52,
                    "time": 93.93658233333316,
                    "velocity": 0.2992125984251969,
                    "duration": 0.11936033333333285
                },
                {
                    "name": "D#3",
                    "midi": 51,
                    "time": 94.0559426666665,
                    "velocity": 0.30708661417322836,
                    "duration": 0.11936033333333285
                },
                {
                    "name": "E3",
                    "midi": 52,
                    "time": 94.17530299999983,
                    "velocity": 0.36220472440944884,
                    "duration": 0.11936033333334706
                },
                {
                    "name": "D#3",
                    "midi": 51,
                    "time": 94.29466333333318,
                    "velocity": 0.33070866141732286,
                    "duration": 0.11936033333333285
                },
                {
                    "name": "D3",
                    "midi": 50,
                    "time": 94.41402366666651,
                    "velocity": 0.33070866141732286,
                    "duration": 0.11936033333333285
                },
                {
                    "name": "E3",
                    "midi": 52,
                    "time": 94.53338399999984,
                    "velocity": 0.4015748031496063,
                    "duration": 0.11936033333333285
                },
                {
                    "name": "D3",
                    "midi": 50,
                    "time": 94.65274433333317,
                    "velocity": 0.3779527559055118,
                    "duration": 0.11936033333333285
                },
                {
                    "name": "C3",
                    "midi": 48,
                    "time": 94.77210466666651,
                    "velocity": 0.3858267716535433,
                    "duration": 0.11936033333333285
                },
                {
                    "name": "D3",
                    "midi": 50,
                    "time": 94.89146499999984,
                    "velocity": 0.4330708661417323,
                    "duration": 0.11936033333331864
                },
                {
                    "name": "C3",
                    "midi": 48,
                    "time": 95.01082533333316,
                    "velocity": 0.4094488188976378,
                    "duration": 0.11936033333333285
                },
                {
                    "name": "B2",
                    "midi": 47,
                    "time": 95.13018566666649,
                    "velocity": 0.4094488188976378,
                    "duration": 0.11936033333333285
                },
                {
                    "name": "C3",
                    "midi": 48,
                    "time": 95.24954599999982,
                    "velocity": 0.49606299212598426,
                    "duration": 0.11936033333334706
                },
                {
                    "name": "B2",
                    "midi": 47,
                    "time": 95.36890633333317,
                    "velocity": 0.44881889763779526,
                    "duration": 0.11936033333333285
                },
                {
                    "name": "A2",
                    "midi": 45,
                    "time": 95.4882666666665,
                    "velocity": 0.4566929133858268,
                    "duration": 0.11936033333333285
                },
                {
                    "name": "G#2",
                    "midi": 44,
                    "time": 95.60762699999984,
                    "velocity": 0.6062992125984252,
                    "duration": 0.11936033333333285
                },
                {
                    "name": "A2",
                    "midi": 45,
                    "time": 95.72698733333317,
                    "velocity": 0.5275590551181102,
                    "duration": 0.11936033333333285
                },
                {
                    "name": "B2",
                    "midi": 47,
                    "time": 95.8463476666665,
                    "velocity": 0.5275590551181102,
                    "duration": 0.11936033333333285
                },
                {
                    "name": "G#2",
                    "midi": 44,
                    "time": 95.96570799999984,
                    "velocity": 0.5905511811023622,
                    "duration": 0.11936033333334706
                },
                {
                    "name": "D2",
                    "midi": 38,
                    "time": 95.96570799999984,
                    "velocity": 0.5905511811023622,
                    "duration": 0.17904050000001348
                },
                {
                    "name": "A2",
                    "midi": 45,
                    "time": 96.08506833333318,
                    "velocity": 0.5196850393700787,
                    "duration": 0.11936033333333285
                },
                {
                    "name": "B2",
                    "midi": 47,
                    "time": 96.20442866666652,
                    "velocity": 0.5196850393700787,
                    "duration": 0.11936033333333285
                },
                {
                    "name": "G#2",
                    "midi": 44,
                    "time": 96.32378899999985,
                    "velocity": 0.5984251968503937,
                    "duration": 0.11936033333334706
                },
                {
                    "name": "D2",
                    "midi": 38,
                    "time": 96.32378899999985,
                    "velocity": 0.5984251968503937,
                    "duration": 0.17904050000001348
                },
                {
                    "name": "A2",
                    "midi": 45,
                    "time": 96.4431493333332,
                    "velocity": 0.5433070866141733,
                    "duration": 0.11936033333333285
                },
                {
                    "name": "B2",
                    "midi": 47,
                    "time": 96.56250966666653,
                    "velocity": 0.5433070866141733,
                    "duration": 0.11936033333333285
                },
                {
                    "name": "D2",
                    "midi": 38,
                    "time": 96.68186999999986,
                    "velocity": 0.6141732283464567,
                    "duration": 0.17904049999998506
                },
                {
                    "name": "G#2",
                    "midi": 44,
                    "time": 96.68186999999986,
                    "velocity": 0.6141732283464567,
                    "duration": 0.11936033333331864
                },
                {
                    "name": "A2",
                    "midi": 45,
                    "time": 96.80123033333318,
                    "velocity": 0.5669291338582677,
                    "duration": 0.11936033333333285
                },
                {
                    "name": "B2",
                    "midi": 47,
                    "time": 96.92059066666651,
                    "velocity": 0.5826771653543307,
                    "duration": 0.11936033333333285
                },
                {
                    "name": "D2",
                    "midi": 38,
                    "time": 97.03995099999985,
                    "velocity": 0.6377952755905512,
                    "duration": 0.17904049999999927
                },
                {
                    "name": "G#2",
                    "midi": 44,
                    "time": 97.03995099999985,
                    "velocity": 0.6377952755905512,
                    "duration": 0.11936033333333285
                },
                {
                    "name": "A2",
                    "midi": 45,
                    "time": 97.15931133333318,
                    "velocity": 0.5826771653543307,
                    "duration": 0.11936033333333285
                },
                {
                    "name": "B2",
                    "midi": 47,
                    "time": 97.27867166666651,
                    "velocity": 0.5984251968503937,
                    "duration": 0.11936033333333285
                },
                {
                    "name": "G#2",
                    "midi": 44,
                    "time": 97.39803199999984,
                    "velocity": 0.6614173228346457,
                    "duration": 0.11936033333333285
                },
                {
                    "name": "D2",
                    "midi": 38,
                    "time": 97.39803199999984,
                    "velocity": 0.6614173228346457,
                    "duration": 0.17904049999999927
                },
                {
                    "name": "A2",
                    "midi": 45,
                    "time": 97.51739233333318,
                    "velocity": 0.5984251968503937,
                    "duration": 0.11936033333333285
                },
                {
                    "name": "B2",
                    "midi": 47,
                    "time": 97.63675266666651,
                    "velocity": 0.6141732283464567,
                    "duration": 0.11936033333333285
                },
                {
                    "name": "G2",
                    "midi": 43,
                    "time": 97.75611299999984,
                    "velocity": 0.7795275590551181,
                    "duration": 0.17904049999999927
                },
                {
                    "name": "G1",
                    "midi": 31,
                    "time": 97.75611299999984,
                    "velocity": 0.7795275590551181,
                    "duration": 0.17904049999999927
                },
                {
                    "name": "G4",
                    "midi": 67,
                    "time": 100.62076099999985,
                    "velocity": 0.3937007874015748,
                    "duration": 0.11936033333333285
                },
                {
                    "name": "A4",
                    "midi": 69,
                    "time": 100.74012133333318,
                    "velocity": 0.3464566929133858,
                    "duration": 0.11936033333333285
                },
                {
                    "name": "B4",
                    "midi": 71,
                    "time": 100.85948166666651,
                    "velocity": 0.3464566929133858,
                    "duration": 0.11936033333333285
                },
                {
                    "name": "A4",
                    "midi": 69,
                    "time": 100.97884199999984,
                    "velocity": 0.4094488188976378,
                    "duration": 0.11936033333333285
                },
                {
                    "name": "B4",
                    "midi": 71,
                    "time": 101.09820233333318,
                    "velocity": 0.3543307086614173,
                    "duration": 0.11936033333333285
                },
                {
                    "name": "C5",
                    "midi": 72,
                    "time": 101.21756266666651,
                    "velocity": 0.3543307086614173,
                    "duration": 0.11936033333333285
                },
                {
                    "name": "G4",
                    "midi": 67,
                    "time": 101.69500399999984,
                    "velocity": 0.3937007874015748,
                    "duration": 0.11936033333333285
                },
                {
                    "name": "A4",
                    "midi": 69,
                    "time": 101.81436433333317,
                    "velocity": 0.36220472440944884,
                    "duration": 0.11936033333333285
                },
                {
                    "name": "B4",
                    "midi": 71,
                    "time": 101.9337246666665,
                    "velocity": 0.36220472440944884,
                    "duration": 0.11936033333333285
                },
                {
                    "name": "A4",
                    "midi": 69,
                    "time": 102.05308499999984,
                    "velocity": 0.3937007874015748,
                    "duration": 0.11936033333333285
                },
                {
                    "name": "B4",
                    "midi": 71,
                    "time": 102.17244533333317,
                    "velocity": 0.3543307086614173,
                    "duration": 0.11936033333333285
                },
                {
                    "name": "C5",
                    "midi": 72,
                    "time": 102.2918056666665,
                    "velocity": 0.3543307086614173,
                    "duration": 0.11936033333333285
                },
                {
                    "name": "C5",
                    "midi": 72,
                    "time": 102.76924699999984,
                    "velocity": 0.3937007874015748,
                    "duration": 0.11936033333333285
                },
                {
                    "name": "D5",
                    "midi": 74,
                    "time": 102.88860733333317,
                    "velocity": 0.3937007874015748,
                    "duration": 0.11936033333333285
                },
                {
                    "name": "D#5",
                    "midi": 75,
                    "time": 103.0079676666665,
                    "velocity": 0.4015748031496063,
                    "duration": 0.11936033333333285
                },
                {
                    "name": "F5",
                    "midi": 77,
                    "time": 103.12732799999984,
                    "velocity": 0.4094488188976378,
                    "duration": 0.11936033333333285
                },
                {
                    "name": "G5",
                    "midi": 79,
                    "time": 103.24668833333317,
                    "velocity": 0.41732283464566927,
                    "duration": 0.11936033333333285
                },
                {
                    "name": "G#5",
                    "midi": 80,
                    "time": 103.3660486666665,
                    "velocity": 0.4409448818897638,
                    "duration": 0.11936033333333285
                },
                {
                    "name": "G5",
                    "midi": 79,
                    "time": 103.48540899999983,
                    "velocity": 0.47244094488188976,
                    "duration": 0.11936033333333285
                },
                {
                    "name": "F5",
                    "midi": 77,
                    "time": 103.60476933333317,
                    "velocity": 0.4330708661417323,
                    "duration": 0.11936033333333285
                },
                {
                    "name": "D#5",
                    "midi": 75,
                    "time": 103.7241296666665,
                    "velocity": 0.4015748031496063,
                    "duration": 0.11936033333333285
                },
                {
                    "name": "D5",
                    "midi": 74,
                    "time": 103.84348999999983,
                    "velocity": 0.4330708661417323,
                    "duration": 0.11936033333333285
                },
                {
                    "name": "C5",
                    "midi": 72,
                    "time": 103.96285033333317,
                    "velocity": 0.4094488188976378,
                    "duration": 0.11936033333333285
                },
                {
                    "name": "A#4",
                    "midi": 70,
                    "time": 104.0822106666665,
                    "velocity": 0.3937007874015748,
                    "duration": 0.11936033333333285
                },
                {
                    "name": "G#4",
                    "midi": 68,
                    "time": 104.20157099999983,
                    "velocity": 0.4330708661417323,
                    "duration": 0.134280375000003
                },
                {
                    "name": "D#4",
                    "midi": 63,
                    "time": 104.55965199999983,
                    "velocity": 0.4094488188976378,
                    "duration": 0.134280375000003
                },
                {
                    "name": "C4",
                    "midi": 60,
                    "time": 104.91773299999983,
                    "velocity": 0.3937007874015748,
                    "duration": 0.1342803749999888
                },
                {
                    "name": "B3",
                    "midi": 59,
                    "time": 105.27581399999981,
                    "velocity": 0.4251968503937008,
                    "duration": 0.11936033333333285
                },
                {
                    "name": "A3",
                    "midi": 57,
                    "time": 105.39517433333315,
                    "velocity": 0.3858267716535433,
                    "duration": 0.11936033333333285
                },
                {
                    "name": "G3",
                    "midi": 55,
                    "time": 105.51453466666648,
                    "velocity": 0.3858267716535433,
                    "duration": 0.11936033333333285
                },
                {
                    "name": "F#3",
                    "midi": 54,
                    "time": 105.63389499999981,
                    "velocity": 0.41732283464566927,
                    "duration": 0.11936033333333285
                },
                {
                    "name": "E3",
                    "midi": 52,
                    "time": 105.75325533333314,
                    "velocity": 0.3700787401574803,
                    "duration": 0.11936033333333285
                },
                {
                    "name": "D3",
                    "midi": 50,
                    "time": 105.87261566666648,
                    "velocity": 0.3700787401574803,
                    "duration": 0.11936033333333285
                },
                {
                    "name": "C4",
                    "midi": 60,
                    "time": 105.99197599999981,
                    "velocity": 0.5039370078740157,
                    "duration": 0.35808099999999854
                },
                {
                    "name": "B3",
                    "midi": 59,
                    "time": 106.35005699999981,
                    "velocity": 0.4251968503937008,
                    "duration": 0.11936033333333285
                },
                {
                    "name": "A3",
                    "midi": 57,
                    "time": 106.46941733333314,
                    "velocity": 0.3700787401574803,
                    "duration": 0.11936033333333285
                },
                {
                    "name": "G3",
                    "midi": 55,
                    "time": 106.58877766666647,
                    "velocity": 0.3700787401574803,
                    "duration": 0.11936033333333285
                },
                {
                    "name": "F#3",
                    "midi": 54,
                    "time": 106.7081379999998,
                    "velocity": 0.4094488188976378,
                    "duration": 0.11936033333334706
                },
                {
                    "name": "E3",
                    "midi": 52,
                    "time": 106.82749833333315,
                    "velocity": 0.3464566929133858,
                    "duration": 0.11936033333333285
                },
                {
                    "name": "D3",
                    "midi": 50,
                    "time": 106.94685866666649,
                    "velocity": 0.3464566929133858,
                    "duration": 0.11936033333333285
                },
                {
                    "name": "C4",
                    "midi": 60,
                    "time": 107.06621899999982,
                    "velocity": 0.5039370078740157,
                    "duration": 0.35808099999999854
                },
                {
                    "name": "B3",
                    "midi": 59,
                    "time": 107.42429999999982,
                    "velocity": 0.4251968503937008,
                    "duration": 0.11936033333333285
                },
                {
                    "name": "A3",
                    "midi": 57,
                    "time": 107.54366033333315,
                    "velocity": 0.3700787401574803,
                    "duration": 0.11936033333333285
                },
                {
                    "name": "G3",
                    "midi": 55,
                    "time": 107.66302066666648,
                    "velocity": 0.3700787401574803,
                    "duration": 0.11936033333333285
                },
                {
                    "name": "F#3",
                    "midi": 54,
                    "time": 107.78238099999982,
                    "velocity": 0.4094488188976378,
                    "duration": 0.11936033333334706
                },
                {
                    "name": "E3",
                    "midi": 52,
                    "time": 107.90174133333316,
                    "velocity": 0.3464566929133858,
                    "duration": 0.11936033333333285
                },
                {
                    "name": "D3",
                    "midi": 50,
                    "time": 108.0211016666665,
                    "velocity": 0.3464566929133858,
                    "duration": 0.11936033333333285
                },
                {
                    "name": "C4",
                    "midi": 60,
                    "time": 108.14046199999983,
                    "velocity": 0.5039370078740157,
                    "duration": 0.35808099999999854
                },
                {
                    "name": "B3",
                    "midi": 59,
                    "time": 108.49854299999983,
                    "velocity": 0.3937007874015748,
                    "duration": 0.11936033333334706
                },
                {
                    "name": "A3",
                    "midi": 57,
                    "time": 108.61790333333317,
                    "velocity": 0.33858267716535434,
                    "duration": 0.11936033333333285
                },
                {
                    "name": "G3",
                    "midi": 55,
                    "time": 108.73726366666651,
                    "velocity": 0.33858267716535434,
                    "duration": 0.11936033333333285
                },
                {
                    "name": "A3",
                    "midi": 57,
                    "time": 108.85662399999984,
                    "velocity": 0.4094488188976378,
                    "duration": 0.11936033333331864
                },
                {
                    "name": "G3",
                    "midi": 55,
                    "time": 108.97598433333316,
                    "velocity": 0.3464566929133858,
                    "duration": 0.11936033333333285
                },
                {
                    "name": "F#3",
                    "midi": 54,
                    "time": 109.09534466666649,
                    "velocity": 0.3464566929133858,
                    "duration": 0.11936033333333285
                },
                {
                    "name": "G3",
                    "midi": 55,
                    "time": 109.21470499999982,
                    "velocity": 0.4094488188976378,
                    "duration": 0.11936033333333285
                },
                {
                    "name": "F#3",
                    "midi": 54,
                    "time": 109.33406533333316,
                    "velocity": 0.3700787401574803,
                    "duration": 0.11936033333333285
                },
                {
                    "name": "F3",
                    "midi": 53,
                    "time": 109.45342566666649,
                    "velocity": 0.3700787401574803,
                    "duration": 0.11936033333333285
                },
                {
                    "name": "E3",
                    "midi": 52,
                    "time": 109.57278599999982,
                    "velocity": 0.4409448818897638,
                    "duration": 0.11936033333333285
                },
                {
                    "name": "D3",
                    "midi": 50,
                    "time": 109.69214633333316,
                    "velocity": 0.4094488188976378,
                    "duration": 0.11936033333333285
                },
                {
                    "name": "C3",
                    "midi": 48,
                    "time": 109.81150666666649,
                    "velocity": 0.41732283464566927,
                    "duration": 0.11936033333333285
                },
                {
                    "name": "D3",
                    "midi": 50,
                    "time": 109.93086699999982,
                    "velocity": 0.4566929133858268,
                    "duration": 0.11936033333333285
                },
                {
                    "name": "C3",
                    "midi": 48,
                    "time": 110.05022733333315,
                    "velocity": 0.4330708661417323,
                    "duration": 0.11936033333333285
                },
                {
                    "name": "B2",
                    "midi": 47,
                    "time": 110.16958766666649,
                    "velocity": 0.4330708661417323,
                    "duration": 0.11936033333333285
                },
                {
                    "name": "C3",
                    "midi": 48,
                    "time": 110.28894799999982,
                    "velocity": 0.5118110236220472,
                    "duration": 0.11936033333333285
                },
                {
                    "name": "B2",
                    "midi": 47,
                    "time": 110.40830833333315,
                    "velocity": 0.4645669291338583,
                    "duration": 0.11936033333333285
                },
                {
                    "name": "A#2",
                    "midi": 46,
                    "time": 110.52766866666649,
                    "velocity": 0.4645669291338583,
                    "duration": 0.11936033333333285
                },
                {
                    "name": "A2",
                    "midi": 45,
                    "time": 110.64702899999982,
                    "velocity": 0.6535433070866141,
                    "duration": 0.08952025000000674
                },
                {
                    "name": "A3",
                    "midi": 57,
                    "time": 111.00510999999983,
                    "velocity": 0.6141732283464567,
                    "duration": 0.11936033333333285
                },
                {
                    "name": "F3",
                    "midi": 53,
                    "time": 111.12447033333316,
                    "velocity": 0.5354330708661418,
                    "duration": 0.11936033333333285
                },
                {
                    "name": "C3",
                    "midi": 48,
                    "time": 111.2438306666665,
                    "velocity": 0.5354330708661418,
                    "duration": 0.11936033333333285
                },
                {
                    "name": "A2",
                    "midi": 45,
                    "time": 111.36319099999983,
                    "velocity": 0.6456692913385826,
                    "duration": 0.11936033333333285
                },
                {
                    "name": "F2",
                    "midi": 41,
                    "time": 111.48255133333316,
                    "velocity": 0.5669291338582677,
                    "duration": 0.11936033333333285
                },
                {
                    "name": "C2",
                    "midi": 36,
                    "time": 111.6019116666665,
                    "velocity": 0.6220472440944882,
                    "duration": 0.11936033333333285
                },
                {
                    "name": "A1",
                    "midi": 33,
                    "time": 111.72127199999983,
                    "velocity": 0.7322834645669292,
                    "duration": 0.08952025000000674
                },
                {
                    "name": "E3",
                    "midi": 52,
                    "time": 112.07935299999984,
                    "velocity": 0.5511811023622047,
                    "duration": 0.17904049999999927
                },
                {
                    "name": "B2",
                    "midi": 47,
                    "time": 112.07935299999984,
                    "velocity": 0.5511811023622047,
                    "duration": 0.17904049999999927
                },
                {
                    "name": "G3",
                    "midi": 55,
                    "time": 112.07935299999984,
                    "velocity": 0.5511811023622047,
                    "duration": 0.17904049999999927
                },
                {
                    "name": "B3",
                    "midi": 59,
                    "time": 112.07935299999984,
                    "velocity": 0.6535433070866141,
                    "duration": 0.17904049999999927
                },
                {
                    "name": "B3",
                    "midi": 59,
                    "time": 112.43743399999984,
                    "velocity": 0.5905511811023622,
                    "duration": 0.17904049999999927
                },
                {
                    "name": "F#3",
                    "midi": 54,
                    "time": 112.43743399999984,
                    "velocity": 0.49606299212598426,
                    "duration": 0.17904049999999927
                },
                {
                    "name": "D#3",
                    "midi": 51,
                    "time": 112.43743399999984,
                    "velocity": 0.49606299212598426,
                    "duration": 0.17904049999999927
                },
                {
                    "name": "B2",
                    "midi": 47,
                    "time": 112.43743399999984,
                    "velocity": 0.49606299212598426,
                    "duration": 0.17904049999999927
                },
                {
                    "name": "G4",
                    "midi": 67,
                    "time": 112.79551499999984,
                    "velocity": 0.4645669291338583,
                    "duration": 0.11936033333333285
                },
                {
                    "name": "F#4",
                    "midi": 66,
                    "time": 112.91487533333317,
                    "velocity": 0.41732283464566927,
                    "duration": 0.11936033333333285
                },
                {
                    "name": "E4",
                    "midi": 64,
                    "time": 113.0342356666665,
                    "velocity": 0.41732283464566927,
                    "duration": 0.11936033333333285
                },
                {
                    "name": "D#4",
                    "midi": 63,
                    "time": 113.15359599999984,
                    "velocity": 0.4566929133858268,
                    "duration": 0.11936033333333285
                },
                {
                    "name": "C#4",
                    "midi": 61,
                    "time": 113.27295633333317,
                    "velocity": 0.4094488188976378,
                    "duration": 0.11936033333333285
                },
                {
                    "name": "B3",
                    "midi": 59,
                    "time": 113.3923166666665,
                    "velocity": 0.4094488188976378,
                    "duration": 0.11936033333333285
                },
                {
                    "name": "A4",
                    "midi": 69,
                    "time": 113.51167699999984,
                    "velocity": 0.5275590551181102,
                    "duration": 0.35808099999999854
                },
                {
                    "name": "G4",
                    "midi": 67,
                    "time": 113.86975799999983,
                    "velocity": 0.48031496062992124,
                    "duration": 0.11936033333333285
                },
                {
                    "name": "F#4",
                    "midi": 66,
                    "time": 113.98911833333317,
                    "velocity": 0.4015748031496063,
                    "duration": 0.11936033333333285
                },
                {
                    "name": "E4",
                    "midi": 64,
                    "time": 114.1084786666665,
                    "velocity": 0.4015748031496063,
                    "duration": 0.11936033333333285
                },
                {
                    "name": "D#4",
                    "midi": 63,
                    "time": 114.22783899999983,
                    "velocity": 0.4015748031496063,
                    "duration": 0.11936033333334706
                },
                {
                    "name": "C#4",
                    "midi": 61,
                    "time": 114.34719933333318,
                    "velocity": 0.4251968503937008,
                    "duration": 0.11936033333333285
                },
                {
                    "name": "B3",
                    "midi": 59,
                    "time": 114.46655966666651,
                    "velocity": 0.4251968503937008,
                    "duration": 0.11936033333333285
                },
                {
                    "name": "A4",
                    "midi": 69,
                    "time": 114.58591999999985,
                    "velocity": 0.5354330708661418,
                    "duration": 0.35808099999999854
                },
                {
                    "name": "G4",
                    "midi": 67,
                    "time": 114.94400099999984,
                    "velocity": 0.47244094488188976,
                    "duration": 0.11936033333333285
                },
                {
                    "name": "F#4",
                    "midi": 66,
                    "time": 115.06336133333318,
                    "velocity": 0.4251968503937008,
                    "duration": 0.11936033333333285
                },
                {
                    "name": "E4",
                    "midi": 64,
                    "time": 115.18272166666651,
                    "velocity": 0.44881889763779526,
                    "duration": 0.11936033333333285
                },
                {
                    "name": "D#4",
                    "midi": 63,
                    "time": 115.30208199999984,
                    "velocity": 0.5039370078740157,
                    "duration": 0.11936033333333285
                },
                {
                    "name": "E4",
                    "midi": 64,
                    "time": 115.42144233333318,
                    "velocity": 0.4409448818897638,
                    "duration": 0.11936033333333285
                },
                {
                    "name": "F#4",
                    "midi": 66,
                    "time": 115.54080266666651,
                    "velocity": 0.4409448818897638,
                    "duration": 0.11936033333333285
                },
                {
                    "name": "E4",
                    "midi": 64,
                    "time": 115.66016299999984,
                    "velocity": 0.5669291338582677,
                    "duration": 0.11936033333333285
                },
                {
                    "name": "F#4",
                    "midi": 66,
                    "time": 115.77952333333317,
                    "velocity": 0.5039370078740157,
                    "duration": 0.11936033333333285
                },
                {
                    "name": "G4",
                    "midi": 67,
                    "time": 115.8988836666665,
                    "velocity": 0.5039370078740157,
                    "duration": 0.11936033333333285
                },
                {
                    "name": "A3",
                    "midi": 57,
                    "time": 116.37632499999984,
                    "velocity": 0.6456692913385826,
                    "duration": 0.11936033333333285
                },
                {
                    "name": "F3",
                    "midi": 53,
                    "time": 116.49568533333317,
                    "velocity": 0.5748031496062992,
                    "duration": 0.11936033333333285
                },
                {
                    "name": "C3",
                    "midi": 48,
                    "time": 116.6150456666665,
                    "velocity": 0.5748031496062992,
                    "duration": 0.11936033333333285
                },
                {
                    "name": "A2",
                    "midi": 45,
                    "time": 116.73440599999984,
                    "velocity": 0.7007874015748031,
                    "duration": 0.11936033333333285
                },
                {
                    "name": "F2",
                    "midi": 41,
                    "time": 116.85376633333317,
                    "velocity": 0.6220472440944882,
                    "duration": 0.11936033333333285
                },
                {
                    "name": "C2",
                    "midi": 36,
                    "time": 116.9731266666665,
                    "velocity": 0.6220472440944882,
                    "duration": 0.11936033333333285
                },
                {
                    "name": "A1",
                    "midi": 33,
                    "time": 117.09248699999984,
                    "velocity": 0.7322834645669292,
                    "duration": 0.08952025000000674
                },
                {
                    "name": "E3",
                    "midi": 52,
                    "time": 117.45056799999985,
                    "velocity": 0.5511811023622047,
                    "duration": 0.17904049999999927
                },
                {
                    "name": "B2",
                    "midi": 47,
                    "time": 117.45056799999985,
                    "velocity": 0.5511811023622047,
                    "duration": 0.17904049999999927
                },
                {
                    "name": "B3",
                    "midi": 59,
                    "time": 117.45056799999985,
                    "velocity": 0.6535433070866141,
                    "duration": 0.17904049999999927
                },
                {
                    "name": "G3",
                    "midi": 55,
                    "time": 117.45056799999985,
                    "velocity": 0.5511811023622047,
                    "duration": 0.17904049999999927
                },
                {
                    "name": "B3",
                    "midi": 59,
                    "time": 117.80864899999985,
                    "velocity": 0.5905511811023622,
                    "duration": 0.17904049999999927
                },
                {
                    "name": "F#3",
                    "midi": 54,
                    "time": 117.80864899999985,
                    "velocity": 0.49606299212598426,
                    "duration": 0.17904049999999927
                },
                {
                    "name": "D#3",
                    "midi": 51,
                    "time": 117.80864899999985,
                    "velocity": 0.49606299212598426,
                    "duration": 0.17904049999999927
                },
                {
                    "name": "B2",
                    "midi": 47,
                    "time": 117.80864899999985,
                    "velocity": 0.49606299212598426,
                    "duration": 0.17904049999999927
                },
                {
                    "name": "G2",
                    "midi": 43,
                    "time": 118.16672999999984,
                    "velocity": 0.5905511811023622,
                    "duration": 0.8952024999999963
                },
                {
                    "name": "E2",
                    "midi": 40,
                    "time": 118.16672999999984,
                    "velocity": 0.5905511811023622,
                    "duration": 0.8952024999999963
                },
                {
                    "name": "E3",
                    "midi": 52,
                    "time": 118.16672999999984,
                    "velocity": 0.7007874015748031,
                    "duration": 0.8952024999999963
                },
                {
                    "name": "B2",
                    "midi": 47,
                    "time": 118.16672999999984,
                    "velocity": 0.5905511811023622,
                    "duration": 0.8952024999999963
                },
                {
                    "name": "B2",
                    "midi": 47,
                    "time": 119.24097299999984,
                    "velocity": 0.5118110236220472,
                    "duration": 0.0671401875000015
                },
                {
                    "name": "B3",
                    "midi": 59,
                    "time": 119.24097299999984,
                    "velocity": 0.6062992125984252,
                    "duration": 0.0671401875000015
                },
                {
                    "name": "C3",
                    "midi": 48,
                    "time": 119.42001349999984,
                    "velocity": 0.4409448818897638,
                    "duration": 0.0671401875000015
                },
                {
                    "name": "C4",
                    "midi": 60,
                    "time": 119.42001349999984,
                    "velocity": 0.5275590551181102,
                    "duration": 0.0671401875000015
                },
                {
                    "name": "B2",
                    "midi": 47,
                    "time": 119.59905399999984,
                    "velocity": 0.49606299212598426,
                    "duration": 0.0671401875000015
                },
                {
                    "name": "B3",
                    "midi": 59,
                    "time": 119.59905399999984,
                    "velocity": 0.5905511811023622,
                    "duration": 0.0671401875000015
                },
                {
                    "name": "C3",
                    "midi": 48,
                    "time": 119.77809449999984,
                    "velocity": 0.44881889763779526,
                    "duration": 0.0671401875000015
                },
                {
                    "name": "C4",
                    "midi": 60,
                    "time": 119.77809449999984,
                    "velocity": 0.5354330708661418,
                    "duration": 0.0671401875000015
                },
                {
                    "name": "B2",
                    "midi": 47,
                    "time": 119.95713499999984,
                    "velocity": 0.49606299212598426,
                    "duration": 0.0671401875000015
                },
                {
                    "name": "B3",
                    "midi": 59,
                    "time": 119.95713499999984,
                    "velocity": 0.5905511811023622,
                    "duration": 0.0671401875000015
                },
                {
                    "name": "D2",
                    "midi": 38,
                    "time": 120.31521599999984,
                    "velocity": 0.5826771653543307,
                    "duration": 0.8952024999999963
                },
                {
                    "name": "A2",
                    "midi": 45,
                    "time": 120.31521599999984,
                    "velocity": 0.5826771653543307,
                    "duration": 0.8952024999999963
                },
                {
                    "name": "D3",
                    "midi": 50,
                    "time": 120.31521599999984,
                    "velocity": 0.6929133858267716,
                    "duration": 0.8952024999999963
                },
                {
                    "name": "F#2",
                    "midi": 42,
                    "time": 120.31521599999984,
                    "velocity": 0.5826771653543307,
                    "duration": 0.8952024999999963
                },
                {
                    "name": "A3",
                    "midi": 57,
                    "time": 121.38945899999983,
                    "velocity": 0.6062992125984252,
                    "duration": 0.0671401875000015
                },
                {
                    "name": "A2",
                    "midi": 45,
                    "time": 121.38945899999983,
                    "velocity": 0.5118110236220472,
                    "duration": 0.0671401875000015
                },
                {
                    "name": "A#3",
                    "midi": 58,
                    "time": 121.56849949999983,
                    "velocity": 0.5196850393700787,
                    "duration": 0.0671401875000015
                },
                {
                    "name": "A#2",
                    "midi": 46,
                    "time": 121.56849949999983,
                    "velocity": 0.4409448818897638,
                    "duration": 0.0671401875000015
                },
                {
                    "name": "A3",
                    "midi": 57,
                    "time": 121.74753999999983,
                    "velocity": 0.5748031496062992,
                    "duration": 0.0671401875000015
                },
                {
                    "name": "A2",
                    "midi": 45,
                    "time": 121.74753999999983,
                    "velocity": 0.4881889763779528,
                    "duration": 0.0671401875000015
                },
                {
                    "name": "A#3",
                    "midi": 58,
                    "time": 121.92658049999983,
                    "velocity": 0.5196850393700787,
                    "duration": 0.0671401875000015
                },
                {
                    "name": "A#2",
                    "midi": 46,
                    "time": 121.92658049999983,
                    "velocity": 0.4409448818897638,
                    "duration": 0.0671401875000015
                },
                {
                    "name": "A3",
                    "midi": 57,
                    "time": 122.10562099999983,
                    "velocity": 0.5748031496062992,
                    "duration": 0.0671401875000015
                },
                {
                    "name": "A2",
                    "midi": 45,
                    "time": 122.10562099999983,
                    "velocity": 0.4881889763779528,
                    "duration": 0.0671401875000015
                },
                {
                    "name": "D#3",
                    "midi": 51,
                    "time": 122.46370199999983,
                    "velocity": 0.7007874015748031,
                    "duration": 0.7161619999999971
                },
                {
                    "name": "D#2",
                    "midi": 39,
                    "time": 122.46370199999983,
                    "velocity": 0.5905511811023622,
                    "duration": 0.7161619999999971
                },
                {
                    "name": "E3",
                    "midi": 52,
                    "time": 123.17986399999982,
                    "velocity": 0.6299212598425197,
                    "duration": 0.17904049999999927
                },
                {
                    "name": "E2",
                    "midi": 40,
                    "time": 123.17986399999982,
                    "velocity": 0.5354330708661418,
                    "duration": 0.17904049999999927
                },
                {
                    "name": "F3",
                    "midi": 53,
                    "time": 123.53794499999982,
                    "velocity": 0.6062992125984252,
                    "duration": 0.17904049999998506
                },
                {
                    "name": "F2",
                    "midi": 41,
                    "time": 123.53794499999982,
                    "velocity": 0.5118110236220472,
                    "duration": 0.17904049999998506
                },
                {
                    "name": "F#3",
                    "midi": 54,
                    "time": 123.89602599999981,
                    "velocity": 0.6535433070866141,
                    "duration": 0.17904049999999927
                },
                {
                    "name": "F#2",
                    "midi": 42,
                    "time": 123.89602599999981,
                    "velocity": 0.5511811023622047,
                    "duration": 0.17904049999999927
                },
                {
                    "name": "G3",
                    "midi": 55,
                    "time": 124.2541069999998,
                    "velocity": 0.6220472440944882,
                    "duration": 0.17904049999998506
                },
                {
                    "name": "G2",
                    "midi": 43,
                    "time": 124.2541069999998,
                    "velocity": 0.5275590551181102,
                    "duration": 0.17904049999998506
                },
                {
                    "name": "A3",
                    "midi": 57,
                    "time": 124.61218799999979,
                    "velocity": 0.6614173228346457,
                    "duration": 0.17904049999999927
                },
                {
                    "name": "A2",
                    "midi": 45,
                    "time": 124.61218799999979,
                    "velocity": 0.5590551181102362,
                    "duration": 0.17904049999999927
                },
                {
                    "name": "B3",
                    "midi": 59,
                    "time": 124.97026899999979,
                    "velocity": 0.6141732283464567,
                    "duration": 0.17904049999999927
                },
                {
                    "name": "B2",
                    "midi": 47,
                    "time": 124.97026899999979,
                    "velocity": 0.5196850393700787,
                    "duration": 0.17904049999999927
                },
                {
                    "name": "B3",
                    "midi": 59,
                    "time": 125.32834999999979,
                    "velocity": 0.5905511811023622,
                    "duration": 0.17904049999999927
                },
                {
                    "name": "B2",
                    "midi": 47,
                    "time": 125.32834999999979,
                    "velocity": 0.49606299212598426,
                    "duration": 0.17904049999999927
                },
                {
                    "name": "G3",
                    "midi": 55,
                    "time": 125.68643099999979,
                    "velocity": 0.5196850393700787,
                    "duration": 1.0742429999999956
                },
                {
                    "name": "B3",
                    "midi": 59,
                    "time": 125.68643099999979,
                    "velocity": 0.5196850393700787,
                    "duration": 1.0742429999999956
                },
                {
                    "name": "E3",
                    "midi": 52,
                    "time": 125.68643099999979,
                    "velocity": 0.5196850393700787,
                    "duration": 1.0742429999999956
                },
                {
                    "name": "D#3",
                    "midi": 51,
                    "time": 126.76067399999978,
                    "velocity": 0.6062992125984252,
                    "duration": 0.0671401875000015
                },
                {
                    "name": "B2",
                    "midi": 47,
                    "time": 126.76067399999978,
                    "velocity": 0.5118110236220472,
                    "duration": 0.0671401875000015
                },
                {
                    "name": "E3",
                    "midi": 52,
                    "time": 126.93971449999978,
                    "velocity": 0.5196850393700787,
                    "duration": 0.0671401875000015
                },
                {
                    "name": "C3",
                    "midi": 48,
                    "time": 126.93971449999978,
                    "velocity": 0.4409448818897638,
                    "duration": 0.0671401875000015
                },
                {
                    "name": "D#3",
                    "midi": 51,
                    "time": 127.11875499999978,
                    "velocity": 0.5590551181102362,
                    "duration": 0.0671401875000015
                },
                {
                    "name": "B2",
                    "midi": 47,
                    "time": 127.11875499999978,
                    "velocity": 0.47244094488188976,
                    "duration": 0.0671401875000015
                },
                {
                    "name": "E3",
                    "midi": 52,
                    "time": 127.29779549999978,
                    "velocity": 0.5118110236220472,
                    "duration": 0.0671401875000015
                },
                {
                    "name": "C3",
                    "midi": 48,
                    "time": 127.29779549999978,
                    "velocity": 0.4330708661417323,
                    "duration": 0.0671401875000015
                },
                {
                    "name": "B2",
                    "midi": 47,
                    "time": 127.47683599999978,
                    "velocity": 0.5118110236220472,
                    "duration": 0.0671401875000015
                },
                {
                    "name": "D#3",
                    "midi": 51,
                    "time": 127.47683599999978,
                    "velocity": 0.6062992125984252,
                    "duration": 0.0671401875000015
                },
                {
                    "name": "A3",
                    "midi": 57,
                    "time": 127.83491699999978,
                    "velocity": 0.5669291338582677,
                    "duration": 1.0742430000000098
                },
                {
                    "name": "F#3",
                    "midi": 54,
                    "time": 127.83491699999978,
                    "velocity": 0.5669291338582677,
                    "duration": 1.0742430000000098
                },
                {
                    "name": "D3",
                    "midi": 50,
                    "time": 127.83491699999978,
                    "velocity": 0.5669291338582677,
                    "duration": 1.0742430000000098
                },
                {
                    "name": "A2",
                    "midi": 45,
                    "time": 128.9091599999998,
                    "velocity": 0.4881889763779528,
                    "duration": 0.0671401875000015
                },
                {
                    "name": "C#3",
                    "midi": 49,
                    "time": 128.9091599999998,
                    "velocity": 0.5826771653543307,
                    "duration": 0.0671401875000015
                },
                {
                    "name": "A#2",
                    "midi": 46,
                    "time": 129.0882004999998,
                    "velocity": 0.4409448818897638,
                    "duration": 0.0671401875000015
                },
                {
                    "name": "D3",
                    "midi": 50,
                    "time": 129.0882004999998,
                    "velocity": 0.5196850393700787,
                    "duration": 0.0671401875000015
                },
                {
                    "name": "A2",
                    "midi": 45,
                    "time": 129.2672409999998,
                    "velocity": 0.48031496062992124,
                    "duration": 0.0671401875000015
                },
                {
                    "name": "C#3",
                    "midi": 49,
                    "time": 129.2672409999998,
                    "velocity": 0.5669291338582677,
                    "duration": 0.0671401875000015
                },
                {
                    "name": "A#2",
                    "midi": 46,
                    "time": 129.44628149999983,
                    "velocity": 0.4251968503937008,
                    "duration": 0.0671401875000015
                },
                {
                    "name": "D3",
                    "midi": 50,
                    "time": 129.44628149999983,
                    "velocity": 0.5039370078740157,
                    "duration": 0.0671401875000015
                },
                {
                    "name": "A2",
                    "midi": 45,
                    "time": 129.62532199999984,
                    "velocity": 0.4881889763779528,
                    "duration": 0.0671401875000015
                },
                {
                    "name": "C#3",
                    "midi": 49,
                    "time": 129.62532199999984,
                    "velocity": 0.5748031496062992,
                    "duration": 0.0671401875000015
                },
                {
                    "name": "G2",
                    "midi": 43,
                    "time": 129.98340299999984,
                    "velocity": 0.44881889763779526,
                    "duration": 0.7161619999999971
                },
                {
                    "name": "E2",
                    "midi": 40,
                    "time": 129.98340299999984,
                    "velocity": 0.44881889763779526,
                    "duration": 0.7161619999999971
                },
                {
                    "name": "C2",
                    "midi": 36,
                    "time": 129.98340299999984,
                    "velocity": 0.44881889763779526,
                    "duration": 0.7161619999999971
                },
                {
                    "name": "C3",
                    "midi": 48,
                    "time": 129.98340299999984,
                    "velocity": 0.5354330708661418,
                    "duration": 0.7161619999999971
                },
                {
                    "name": "B2",
                    "midi": 47,
                    "time": 130.69956499999984,
                    "velocity": 0.4330708661417323,
                    "duration": 0.17904049999998506
                },
                {
                    "name": "G2",
                    "midi": 43,
                    "time": 130.69956499999984,
                    "velocity": 0.4330708661417323,
                    "duration": 0.17904049999998506
                },
                {
                    "name": "E2",
                    "midi": 40,
                    "time": 130.69956499999984,
                    "velocity": 0.4330708661417323,
                    "duration": 0.17904049999998506
                },
                {
                    "name": "E3",
                    "midi": 52,
                    "time": 130.69956499999984,
                    "velocity": 0.5118110236220472,
                    "duration": 0.17904049999998506
                },
                {
                    "name": "C3",
                    "midi": 48,
                    "time": 131.05764599999983,
                    "velocity": 0.4409448818897638,
                    "duration": 0.17904050000001348
                },
                {
                    "name": "A2",
                    "midi": 45,
                    "time": 131.05764599999983,
                    "velocity": 0.4409448818897638,
                    "duration": 0.17904050000001348
                },
                {
                    "name": "F2",
                    "midi": 41,
                    "time": 131.05764599999983,
                    "velocity": 0.4409448818897638,
                    "duration": 0.17904050000001348
                },
                {
                    "name": "F3",
                    "midi": 53,
                    "time": 131.05764599999983,
                    "velocity": 0.5196850393700787,
                    "duration": 0.17904050000001348
                },
                {
                    "name": "D#3",
                    "midi": 51,
                    "time": 131.41572699999986,
                    "velocity": 0.4251968503937008,
                    "duration": 0.17904050000001348
                },
                {
                    "name": "F#3",
                    "midi": 54,
                    "time": 131.41572699999986,
                    "velocity": 0.5039370078740157,
                    "duration": 0.17904050000001348
                },
                {
                    "name": "F#2",
                    "midi": 42,
                    "time": 131.41572699999986,
                    "velocity": 0.4251968503937008,
                    "duration": 0.17904050000001348
                },
                {
                    "name": "A2",
                    "midi": 45,
                    "time": 131.41572699999986,
                    "velocity": 0.4251968503937008,
                    "duration": 0.17904050000001348
                },
                {
                    "name": "B2",
                    "midi": 47,
                    "time": 131.7738079999999,
                    "velocity": 0.4015748031496063,
                    "duration": 0.17904050000001348
                },
                {
                    "name": "G3",
                    "midi": 55,
                    "time": 131.7738079999999,
                    "velocity": 0.48031496062992124,
                    "duration": 0.17904050000001348
                },
                {
                    "name": "G2",
                    "midi": 43,
                    "time": 131.7738079999999,
                    "velocity": 0.4015748031496063,
                    "duration": 0.17904050000001348
                },
                {
                    "name": "E3",
                    "midi": 52,
                    "time": 131.7738079999999,
                    "velocity": 0.4015748031496063,
                    "duration": 0.17904050000001348
                },
                {
                    "name": "C3",
                    "midi": 48,
                    "time": 132.13188899999992,
                    "velocity": 0.4251968503937008,
                    "duration": 0.17904050000001348
                },
                {
                    "name": "A3",
                    "midi": 57,
                    "time": 132.13188899999992,
                    "velocity": 0.5039370078740157,
                    "duration": 0.17904050000001348
                },
                {
                    "name": "F#3",
                    "midi": 54,
                    "time": 132.13188899999992,
                    "velocity": 0.4251968503937008,
                    "duration": 0.17904050000001348
                },
                {
                    "name": "A2",
                    "midi": 45,
                    "time": 132.13188899999992,
                    "velocity": 0.4251968503937008,
                    "duration": 0.17904050000001348
                },
                {
                    "name": "E3",
                    "midi": 52,
                    "time": 132.48996999999994,
                    "velocity": 0.3858267716535433,
                    "duration": 0.17904049999998506
                },
                {
                    "name": "B3",
                    "midi": 59,
                    "time": 132.48996999999994,
                    "velocity": 0.4566929133858268,
                    "duration": 0.17904049999998506
                },
                {
                    "name": "B2",
                    "midi": 47,
                    "time": 132.48996999999994,
                    "velocity": 0.3858267716535433,
                    "duration": 0.17904049999998506
                },
                {
                    "name": "G3",
                    "midi": 55,
                    "time": 132.48996999999994,
                    "velocity": 0.3858267716535433,
                    "duration": 0.17904049999998506
                },
                {
                    "name": "F#3",
                    "midi": 54,
                    "time": 132.84805099999994,
                    "velocity": 0.3779527559055118,
                    "duration": 0.17904049999998506
                },
                {
                    "name": "B3",
                    "midi": 59,
                    "time": 132.84805099999994,
                    "velocity": 0.44881889763779526,
                    "duration": 0.17904049999998506
                },
                {
                    "name": "B2",
                    "midi": 47,
                    "time": 132.84805099999994,
                    "velocity": 0.3779527559055118,
                    "duration": 0.17904049999998506
                },
                {
                    "name": "D#3",
                    "midi": 51,
                    "time": 132.84805099999994,
                    "velocity": 0.3779527559055118,
                    "duration": 0.17904049999998506
                },
                {
                    "name": "E3",
                    "midi": 52,
                    "time": 133.20613199999994,
                    "velocity": 0.6062992125984252,
                    "duration": 0.17904049999998506
                },
                {
                    "name": "F#3",
                    "midi": 54,
                    "time": 133.38517249999992,
                    "velocity": 0.5748031496062992,
                    "duration": 0.08952024999999253
                },
                {
                    "name": "G3",
                    "midi": 55,
                    "time": 133.47469274999992,
                    "velocity": 0.5275590551181102,
                    "duration": 0.08952024999999253
                },
                {
                    "name": "A3",
                    "midi": 57,
                    "time": 133.5642129999999,
                    "velocity": 0.5275590551181102,
                    "duration": 0.08952024999999253
                },
                {
                    "name": "B3",
                    "midi": 59,
                    "time": 133.6537332499999,
                    "velocity": 0.5196850393700787,
                    "duration": 0.08952024999999253
                },
                {
                    "name": "C#4",
                    "midi": 61,
                    "time": 133.7432534999999,
                    "velocity": 0.5118110236220472,
                    "duration": 0.08952024999999253
                },
                {
                    "name": "D#4",
                    "midi": 63,
                    "time": 133.8327737499999,
                    "velocity": 0.5039370078740157,
                    "duration": 0.08952024999999253
                },
                {
                    "name": "E4",
                    "midi": 64,
                    "time": 133.92229399999988,
                    "velocity": 0.49606299212598426,
                    "duration": 0.08952024999999253
                },
                {
                    "name": "F#4",
                    "midi": 66,
                    "time": 134.01181424999987,
                    "velocity": 0.49606299212598426,
                    "duration": 0.08952024999999253
                },
                {
                    "name": "G4",
                    "midi": 67,
                    "time": 134.10133449999987,
                    "velocity": 0.4881889763779528,
                    "duration": 0.08952024999999253
                },
                {
                    "name": "A4",
                    "midi": 69,
                    "time": 134.19085474999986,
                    "velocity": 0.4881889763779528,
                    "duration": 0.08952024999999253
                },
                {
                    "name": "B4",
                    "midi": 71,
                    "time": 134.28037499999985,
                    "velocity": 0.48031496062992124,
                    "duration": 0.08952024999999253
                },
                {
                    "name": "C5",
                    "midi": 72,
                    "time": 134.36989524999984,
                    "velocity": 0.48031496062992124,
                    "duration": 0.08952024999999253
                },
                {
                    "name": "D5",
                    "midi": 74,
                    "time": 134.45941549999984,
                    "velocity": 0.47244094488188976,
                    "duration": 0.08952024999999253
                },
                {
                    "name": "E5",
                    "midi": 76,
                    "time": 134.54893574999983,
                    "velocity": 0.47244094488188976,
                    "duration": 0.08952024999999253
                },
                {
                    "name": "F5",
                    "midi": 77,
                    "time": 134.63845599999982,
                    "velocity": 0.47244094488188976,
                    "duration": 0.17904050000001348
                },
                {
                    "name": "D5",
                    "midi": 74,
                    "time": 135.71269899999984,
                    "velocity": 0.47244094488188976,
                    "duration": 0.17904050000001348
                },
                {
                    "name": "B4",
                    "midi": 71,
                    "time": 136.78694199999987,
                    "velocity": 0.4330708661417323,
                    "duration": 0.17904050000001348
                },
                {
                    "name": "G#4",
                    "midi": 68,
                    "time": 137.8611849999999,
                    "velocity": 0.3779527559055118,
                    "duration": 0.17904050000001348
                },
                {
                    "name": "G4",
                    "midi": 67,
                    "time": 138.93542799999992,
                    "velocity": 0.36220472440944884,
                    "duration": 0.17904050000001348
                },
                {
                    "name": "C3",
                    "midi": 48,
                    "time": 139.65158999999994,
                    "velocity": 0.30708661417322836,
                    "duration": 0.17904049999998506
                },
                {
                    "name": "G3",
                    "midi": 55,
                    "time": 139.83063049999993,
                    "velocity": 0.1889763779527559,
                    "duration": 0.17904050000001348
                },
                {
                    "name": "C4",
                    "midi": 60,
                    "time": 140.00967099999994,
                    "velocity": 0.2283464566929134,
                    "duration": 0.17904050000001348
                },
                {
                    "name": "G3",
                    "midi": 55,
                    "time": 140.18871149999995,
                    "velocity": 0.1889763779527559,
                    "duration": 0.17904050000001348
                },
                {
                    "name": "E4",
                    "midi": 64,
                    "time": 140.36775199999997,
                    "velocity": 0.30708661417322836,
                    "duration": 0.17904050000001348
                },
                {
                    "name": "B2",
                    "midi": 47,
                    "time": 140.725833,
                    "velocity": 0.30708661417322836,
                    "duration": 0.17904050000001348
                },
                {
                    "name": "G3",
                    "midi": 55,
                    "time": 140.9048735,
                    "velocity": 0.2204724409448819,
                    "duration": 0.17904050000001348
                },
                {
                    "name": "D4",
                    "midi": 62,
                    "time": 141.08391400000002,
                    "velocity": 0.2677165354330709,
                    "duration": 0.17904050000001348
                },
                {
                    "name": "G3",
                    "midi": 55,
                    "time": 141.26295450000003,
                    "velocity": 0.2204724409448819,
                    "duration": 0.17904050000001348
                },
                {
                    "name": "F4",
                    "midi": 65,
                    "time": 141.44199500000005,
                    "velocity": 0.2992125984251969,
                    "duration": 0.17904050000001348
                },
                {
                    "name": "C3",
                    "midi": 48,
                    "time": 141.80007600000008,
                    "velocity": 0.28346456692913385,
                    "duration": 0.17904049999998506
                },
                {
                    "name": "G3",
                    "midi": 55,
                    "time": 141.97911650000006,
                    "velocity": 0.1968503937007874,
                    "duration": 0.17904050000001348
                },
                {
                    "name": "E4",
                    "midi": 64,
                    "time": 142.15815700000007,
                    "velocity": 0.2204724409448819,
                    "duration": 0.17904050000001348
                },
                {
                    "name": "G3",
                    "midi": 55,
                    "time": 142.3371975000001,
                    "velocity": 0.1889763779527559,
                    "duration": 0.17904050000001348
                },
                {
                    "name": "C4",
                    "midi": 60,
                    "time": 142.5162380000001,
                    "velocity": 0.30708661417322836,
                    "duration": 0.17904050000001348
                },
                {
                    "name": "B2",
                    "midi": 47,
                    "time": 142.87431900000013,
                    "velocity": 0.30708661417322836,
                    "duration": 0.17904050000001348
                },
                {
                    "name": "G3",
                    "midi": 55,
                    "time": 143.05335950000014,
                    "velocity": 0.2283464566929134,
                    "duration": 0.17904050000001348
                },
                {
                    "name": "F4",
                    "midi": 65,
                    "time": 143.23240000000015,
                    "velocity": 0.2677165354330709,
                    "duration": 0.17904050000001348
                },
                {
                    "name": "G3",
                    "midi": 55,
                    "time": 143.41144050000017,
                    "velocity": 0.2204724409448819,
                    "duration": 0.17904050000001348
                },
                {
                    "name": "D4",
                    "midi": 62,
                    "time": 143.59048100000018,
                    "velocity": 0.2992125984251969,
                    "duration": 0.17904050000001348
                },
                {
                    "name": "C3",
                    "midi": 48,
                    "time": 143.9485620000002,
                    "velocity": 0.29133858267716534,
                    "duration": 0.17904049999998506
                },
                {
                    "name": "G3",
                    "midi": 55,
                    "time": 144.1276025000002,
                    "velocity": 0.2283464566929134,
                    "duration": 0.17904050000001348
                },
                {
                    "name": "C4",
                    "midi": 60,
                    "time": 144.3066430000002,
                    "velocity": 0.2440944881889764,
                    "duration": 0.17904050000001348
                },
                {
                    "name": "G3",
                    "midi": 55,
                    "time": 144.48568350000022,
                    "velocity": 0.2204724409448819,
                    "duration": 0.17904050000001348
                },
                {
                    "name": "E4",
                    "midi": 64,
                    "time": 144.66472400000023,
                    "velocity": 0.30708661417322836,
                    "duration": 0.17904050000001348
                },
                {
                    "name": "B2",
                    "midi": 47,
                    "time": 145.02280500000026,
                    "velocity": 0.30708661417322836,
                    "duration": 0.17904050000001348
                },
                {
                    "name": "G3",
                    "midi": 55,
                    "time": 145.20184550000027,
                    "velocity": 0.2283464566929134,
                    "duration": 0.17904050000001348
                },
                {
                    "name": "D4",
                    "midi": 62,
                    "time": 145.3808860000003,
                    "velocity": 0.2677165354330709,
                    "duration": 0.17904050000001348
                },
                {
                    "name": "G3",
                    "midi": 55,
                    "time": 145.5599265000003,
                    "velocity": 0.2283464566929134,
                    "duration": 0.17904050000001348
                },
                {
                    "name": "F4",
                    "midi": 65,
                    "time": 145.73896700000032,
                    "velocity": 0.2992125984251969,
                    "duration": 0.17904050000001348
                },
                {
                    "name": "C3",
                    "midi": 48,
                    "time": 146.09704800000034,
                    "velocity": 0.28346456692913385,
                    "duration": 0.17904050000001348
                },
                {
                    "name": "G3",
                    "midi": 55,
                    "time": 146.27608850000036,
                    "velocity": 0.1968503937007874,
                    "duration": 0.17904050000001348
                },
                {
                    "name": "E4",
                    "midi": 64,
                    "time": 146.45512900000037,
                    "velocity": 0.2283464566929134,
                    "duration": 0.17904050000001348
                },
                {
                    "name": "G3",
                    "midi": 55,
                    "time": 146.63416950000038,
                    "velocity": 0.1889763779527559,
                    "duration": 0.17904050000001348
                },
                {
                    "name": "C4",
                    "midi": 60,
                    "time": 146.8132100000004,
                    "velocity": 0.30708661417322836,
                    "duration": 0.17904050000001348
                },
                {
                    "name": "B2",
                    "midi": 47,
                    "time": 147.17129100000042,
                    "velocity": 0.3228346456692913,
                    "duration": 0.17904050000001348
                },
                {
                    "name": "G3",
                    "midi": 55,
                    "time": 147.35033150000044,
                    "velocity": 0.23622047244094488,
                    "duration": 0.17904050000001348
                },
                {
                    "name": "F4",
                    "midi": 65,
                    "time": 147.52937200000045,
                    "velocity": 0.2992125984251969,
                    "duration": 0.17904050000001348
                },
                {
                    "name": "G3",
                    "midi": 55,
                    "time": 147.70841250000046,
                    "velocity": 0.23622047244094488,
                    "duration": 0.17904050000001348
                },
                {
                    "name": "D4",
                    "midi": 62,
                    "time": 147.88745300000048,
                    "velocity": 0.2992125984251969,
                    "duration": 0.17904050000001348
                },
                {
                    "name": "B2",
                    "midi": 47,
                    "time": 148.2455340000005,
                    "velocity": 0.3228346456692913,
                    "duration": 0.17904049999998506
                },
                {
                    "name": "G#3",
                    "midi": 56,
                    "time": 148.4245745000005,
                    "velocity": 0.25984251968503935,
                    "duration": 0.17904050000001348
                },
                {
                    "name": "F4",
                    "midi": 65,
                    "time": 148.6036150000005,
                    "velocity": 0.30708661417322836,
                    "duration": 0.17904050000001348
                },
                {
                    "name": "G#3",
                    "midi": 56,
                    "time": 148.78265550000052,
                    "velocity": 0.2677165354330709,
                    "duration": 0.17904050000001348
                },
                {
                    "name": "D4",
                    "midi": 62,
                    "time": 148.96169600000053,
                    "velocity": 0.33070866141732286,
                    "duration": 0.17904050000001348
                },
                {
                    "name": "C3",
                    "midi": 48,
                    "time": 149.31977700000056,
                    "velocity": 0.4015748031496063,
                    "duration": 0.17904049999998506
                },
                {
                    "name": "A3",
                    "midi": 57,
                    "time": 149.49881750000054,
                    "velocity": 0.28346456692913385,
                    "duration": 0.17904050000001348
                },
                {
                    "name": "F4",
                    "midi": 65,
                    "time": 149.67785800000055,
                    "velocity": 0.30708661417322836,
                    "duration": 0.17904050000001348
                },
                {
                    "name": "A3",
                    "midi": 57,
                    "time": 149.85689850000057,
                    "velocity": 0.28346456692913385,
                    "duration": 0.17904050000001348
                },
                {
                    "name": "C4",
                    "midi": 60,
                    "time": 150.03593900000058,
                    "velocity": 0.3543307086614173,
                    "duration": 0.17904050000001348
                },
                {
                    "name": "C3",
                    "midi": 48,
                    "time": 150.3940200000006,
                    "velocity": 0.4094488188976378,
                    "duration": 0.17904049999998506
                },
                {
                    "name": "C4",
                    "midi": 60,
                    "time": 150.5730605000006,
                    "velocity": 0.2992125984251969,
                    "duration": 0.17904050000001348
                },
                {
                    "name": "G4",
                    "midi": 67,
                    "time": 150.7521010000006,
                    "velocity": 0.3464566929133858,
                    "duration": 0.17904050000001348
                },
                {
                    "name": "C4",
                    "midi": 60,
                    "time": 150.93114150000062,
                    "velocity": 0.2992125984251969,
                    "duration": 0.17904050000001348
                },
                {
                    "name": "E4",
                    "midi": 64,
                    "time": 151.11018200000063,
                    "velocity": 0.3779527559055118,
                    "duration": 0.17904050000001348
                },
                {
                    "name": "F3",
                    "midi": 53,
                    "time": 151.46826300000066,
                    "velocity": 0.33070866141732286,
                    "duration": 0.17904050000001348
                },
                {
                    "name": "C4",
                    "midi": 60,
                    "time": 151.64730350000067,
                    "velocity": 0.2047244094488189,
                    "duration": 0.17904050000001348
                },
                {
                    "name": "F4",
                    "midi": 65,
                    "time": 151.8263440000007,
                    "velocity": 0.2204724409448819,
                    "duration": 0.17904050000001348
                },
                {
                    "name": "C4",
                    "midi": 60,
                    "time": 152.0053845000007,
                    "velocity": 0.1889763779527559,
                    "duration": 0.17904050000001348
                },
                {
                    "name": "A4",
                    "midi": 69,
                    "time": 152.18442500000072,
                    "velocity": 0.2677165354330709,
                    "duration": 0.17904050000001348
                },
                {
                    "name": "A2",
                    "midi": 45,
                    "time": 152.54250600000074,
                    "velocity": 0.3228346456692913,
                    "duration": 0.17904050000001348
                },
                {
                    "name": "A3",
                    "midi": 57,
                    "time": 152.72154650000076,
                    "velocity": 0.25984251968503935,
                    "duration": 0.17904050000001348
                },
                {
                    "name": "C#4",
                    "midi": 61,
                    "time": 152.90058700000077,
                    "velocity": 0.28346456692913385,
                    "duration": 0.17904050000001348
                },
                {
                    "name": "A3",
                    "midi": 57,
                    "time": 153.07962750000078,
                    "velocity": 0.2440944881889764,
                    "duration": 0.17904050000001348
                },
                {
                    "name": "E4",
                    "midi": 64,
                    "time": 153.2586680000008,
                    "velocity": 0.3228346456692913,
                    "duration": 0.17904050000001348
                },
                {
                    "name": "D3",
                    "midi": 50,
                    "time": 153.61674900000082,
                    "velocity": 0.30708661417322836,
                    "duration": 0.17904049999998506
                },
                {
                    "name": "A3",
                    "midi": 57,
                    "time": 153.7957895000008,
                    "velocity": 0.2125984251968504,
                    "duration": 0.17904050000001348
                },
                {
                    "name": "D4",
                    "midi": 62,
                    "time": 153.97483000000082,
                    "velocity": 0.23622047244094488,
                    "duration": 0.17904050000001348
                },
                {
                    "name": "A3",
                    "midi": 57,
                    "time": 154.15387050000083,
                    "velocity": 0.2204724409448819,
                    "duration": 0.17904050000001348
                },
                {
                    "name": "F4",
                    "midi": 65,
                    "time": 154.33291100000085,
                    "velocity": 0.2677165354330709,
                    "duration": 0.17904050000001348
                },
                {
                    "name": "B2",
                    "midi": 47,
                    "time": 154.69099200000088,
                    "velocity": 0.30708661417322836,
                    "duration": 0.17904049999998506
                },
                {
                    "name": "G3",
                    "midi": 55,
                    "time": 154.87003250000086,
                    "velocity": 0.2283464566929134,
                    "duration": 0.17904050000001348
                },
                {
                    "name": "F4",
                    "midi": 65,
                    "time": 155.04907300000087,
                    "velocity": 0.2440944881889764,
                    "duration": 0.17904050000001348
                },
                {
                    "name": "G3",
                    "midi": 55,
                    "time": 155.2281135000009,
                    "velocity": 0.2283464566929134,
                    "duration": 0.17904050000001348
                },
                {
                    "name": "D4",
                    "midi": 62,
                    "time": 155.4071540000009,
                    "velocity": 0.2992125984251969,
                    "duration": 0.17904050000001348
                },
                {
                    "name": "C3",
                    "midi": 48,
                    "time": 155.76523500000093,
                    "velocity": 0.28346456692913385,
                    "duration": 0.17904049999998506
                },
                {
                    "name": "G3",
                    "midi": 55,
                    "time": 155.9442755000009,
                    "velocity": 0.23622047244094488,
                    "duration": 0.17904050000001348
                },
                {
                    "name": "E4",
                    "midi": 64,
                    "time": 156.12331600000093,
                    "velocity": 0.2440944881889764,
                    "duration": 0.17904050000001348
                },
                {
                    "name": "G3",
                    "midi": 55,
                    "time": 156.30235650000094,
                    "velocity": 0.23622047244094488,
                    "duration": 0.17904050000001348
                },
                {
                    "name": "C4",
                    "midi": 60,
                    "time": 156.48139700000095,
                    "velocity": 0.30708661417322836,
                    "duration": 0.17904050000001348
                },
                {
                    "name": "G2",
                    "midi": 43,
                    "time": 156.83947800000098,
                    "velocity": 0.28346456692913385,
                    "duration": 0.17904050000001348
                },
                {
                    "name": "G3",
                    "midi": 55,
                    "time": 157.018518500001,
                    "velocity": 0.2440944881889764,
                    "duration": 0.17904050000001348
                },
                {
                    "name": "D4",
                    "midi": 62,
                    "time": 157.197559000001,
                    "velocity": 0.2440944881889764,
                    "duration": 0.17904050000001348
                },
                {
                    "name": "G3",
                    "midi": 55,
                    "time": 157.37659950000102,
                    "velocity": 0.2440944881889764,
                    "duration": 0.17904050000001348
                },
                {
                    "name": "B3",
                    "midi": 59,
                    "time": 157.55564000000103,
                    "velocity": 0.30708661417322836,
                    "duration": 0.17904050000001348
                },
                {
                    "name": "C3",
                    "midi": 48,
                    "time": 157.91372100000106,
                    "velocity": 0.28346456692913385,
                    "duration": 0.17904050000001348
                },
                {
                    "name": "G3",
                    "midi": 55,
                    "time": 158.09276150000107,
                    "velocity": 0.2204724409448819,
                    "duration": 0.17904050000001348
                },
                {
                    "name": "E4",
                    "midi": 64,
                    "time": 158.2718020000011,
                    "velocity": 0.2204724409448819,
                    "duration": 0.17904050000001348
                },
                {
                    "name": "G3",
                    "midi": 55,
                    "time": 158.4508425000011,
                    "velocity": 0.2204724409448819,
                    "duration": 0.17904050000001348
                },
                {
                    "name": "C4",
                    "midi": 60,
                    "time": 158.62988300000112,
                    "velocity": 0.25984251968503935,
                    "duration": 0.17904050000001348
                },
                {
                    "name": "C3",
                    "midi": 48,
                    "time": 158.98796400000114,
                    "velocity": 0.3779527559055118,
                    "duration": 0.17904050000001348
                },
                {
                    "name": "C4",
                    "midi": 60,
                    "time": 159.16700450000116,
                    "velocity": 0.30708661417322836,
                    "duration": 0.17904050000001348
                },
                {
                    "name": "G4",
                    "midi": 67,
                    "time": 159.34604500000117,
                    "velocity": 0.3228346456692913,
                    "duration": 0.17904050000001348
                },
                {
                    "name": "C4",
                    "midi": 60,
                    "time": 159.52508550000118,
                    "velocity": 0.30708661417322836,
                    "duration": 0.17904050000001348
                },
                {
                    "name": "E4",
                    "midi": 64,
                    "time": 159.7041260000012,
                    "velocity": 0.3779527559055118,
                    "duration": 0.17904050000001348
                },
                {
                    "name": "F3",
                    "midi": 53,
                    "time": 160.06220700000122,
                    "velocity": 0.33070866141732286,
                    "duration": 0.17904050000001348
                },
                {
                    "name": "C4",
                    "midi": 60,
                    "time": 160.24124750000124,
                    "velocity": 0.2204724409448819,
                    "duration": 0.17904050000001348
                },
                {
                    "name": "F4",
                    "midi": 65,
                    "time": 160.42028800000125,
                    "velocity": 0.2204724409448819,
                    "duration": 0.17904050000001348
                },
                {
                    "name": "C4",
                    "midi": 60,
                    "time": 160.59932850000126,
                    "velocity": 0.2204724409448819,
                    "duration": 0.17904050000001348
                },
                {
                    "name": "A4",
                    "midi": 69,
                    "time": 160.77836900000128,
                    "velocity": 0.2677165354330709,
                    "duration": 0.17904050000001348
                },
                {
                    "name": "A2",
                    "midi": 45,
                    "time": 161.1364500000013,
                    "velocity": 0.3464566929133858,
                    "duration": 0.17904049999998506
                },
                {
                    "name": "A3",
                    "midi": 57,
                    "time": 161.3154905000013,
                    "velocity": 0.25984251968503935,
                    "duration": 0.17904050000001348
                },
                {
                    "name": "C#4",
                    "midi": 61,
                    "time": 161.4945310000013,
                    "velocity": 0.30708661417322836,
                    "duration": 0.17904050000001348
                },
                {
                    "name": "A3",
                    "midi": 57,
                    "time": 161.67357150000132,
                    "velocity": 0.2440944881889764,
                    "duration": 0.17904050000001348
                },
                {
                    "name": "E4",
                    "midi": 64,
                    "time": 161.85261200000133,
                    "velocity": 0.3228346456692913,
                    "duration": 0.17904050000001348
                },
                {
                    "name": "D3",
                    "midi": 50,
                    "time": 162.21069300000136,
                    "velocity": 0.30708661417322836,
                    "duration": 0.17904050000001348
                },
                {
                    "name": "A3",
                    "midi": 57,
                    "time": 162.38973350000137,
                    "velocity": 0.2204724409448819,
                    "duration": 0.17904050000001348
                },
                {
                    "name": "D4",
                    "midi": 62,
                    "time": 162.56877400000138,
                    "velocity": 0.2204724409448819,
                    "duration": 0.17904050000001348
                },
                {
                    "name": "A3",
                    "midi": 57,
                    "time": 162.7478145000014,
                    "velocity": 0.2204724409448819,
                    "duration": 0.17904050000001348
                },
                {
                    "name": "F4",
                    "midi": 65,
                    "time": 162.9268550000014,
                    "velocity": 0.2677165354330709,
                    "duration": 0.17904050000001348
                },
                {
                    "name": "B2",
                    "midi": 47,
                    "time": 163.28493600000144,
                    "velocity": 0.30708661417322836,
                    "duration": 0.17904049999998506
                },
                {
                    "name": "G3",
                    "midi": 55,
                    "time": 163.46397650000142,
                    "velocity": 0.2283464566929134,
                    "duration": 0.17904050000001348
                },
                {
                    "name": "F4",
                    "midi": 65,
                    "time": 163.64301700000144,
                    "velocity": 0.23622047244094488,
                    "duration": 0.17904050000001348
                },
                {
                    "name": "G3",
                    "midi": 55,
                    "time": 163.82205750000145,
                    "velocity": 0.23622047244094488,
                    "duration": 0.17904050000001348
                },
                {
                    "name": "D4",
                    "midi": 62,
                    "time": 164.00109800000146,
                    "velocity": 0.2992125984251969,
                    "duration": 0.17904050000001348
                },
                {
                    "name": "C3",
                    "midi": 48,
                    "time": 164.3591790000015,
                    "velocity": 0.28346456692913385,
                    "duration": 0.17904050000001348
                },
                {
                    "name": "G3",
                    "midi": 55,
                    "time": 164.5382195000015,
                    "velocity": 0.2283464566929134,
                    "duration": 0.17904050000001348
                },
                {
                    "name": "E4",
                    "midi": 64,
                    "time": 164.71726000000152,
                    "velocity": 0.2440944881889764,
                    "duration": 0.17904050000001348
                },
                {
                    "name": "G3",
                    "midi": 55,
                    "time": 164.89630050000153,
                    "velocity": 0.2204724409448819,
                    "duration": 0.17904050000001348
                },
                {
                    "name": "C4",
                    "midi": 60,
                    "time": 165.07534100000154,
                    "velocity": 0.30708661417322836,
                    "duration": 0.17904050000001348
                },
                {
                    "name": "G2",
                    "midi": 43,
                    "time": 165.43342200000157,
                    "velocity": 0.28346456692913385,
                    "duration": 0.17904050000001348
                },
                {
                    "name": "G3",
                    "midi": 55,
                    "time": 165.61246250000158,
                    "velocity": 0.2204724409448819,
                    "duration": 0.17904050000001348
                },
                {
                    "name": "D4",
                    "midi": 62,
                    "time": 165.7915030000016,
                    "velocity": 0.2440944881889764,
                    "duration": 0.17904050000001348
                },
                {
                    "name": "G3",
                    "midi": 55,
                    "time": 165.9705435000016,
                    "velocity": 0.2283464566929134,
                    "duration": 0.17904050000001348
                },
                {
                    "name": "B3",
                    "midi": 59,
                    "time": 166.14958400000162,
                    "velocity": 0.30708661417322836,
                    "duration": 0.17904050000001348
                },
                {
                    "name": "C3",
                    "midi": 48,
                    "time": 166.50766500000165,
                    "velocity": 0.28346456692913385,
                    "duration": 0.17904050000001348
                },
                {
                    "name": "G3",
                    "midi": 55,
                    "time": 166.68670550000166,
                    "velocity": 0.1968503937007874,
                    "duration": 0.17904050000001348
                },
                {
                    "name": "C4",
                    "midi": 60,
                    "time": 166.86574600000168,
                    "velocity": 0.2204724409448819,
                    "duration": 0.17904050000001348
                },
                {
                    "name": "G3",
                    "midi": 55,
                    "time": 167.0447865000017,
                    "velocity": 0.1968503937007874,
                    "duration": 0.17904050000001348
                },
                {
                    "name": "E4",
                    "midi": 64,
                    "time": 167.2238270000017,
                    "velocity": 0.1968503937007874,
                    "duration": 0.17904050000001348
                },
                {
                    "name": "C3",
                    "midi": 48,
                    "time": 167.58190800000173,
                    "velocity": 0.25984251968503935,
                    "duration": 0.17904049999998506
                },
                {
                    "name": "G3",
                    "midi": 55,
                    "time": 167.76094850000172,
                    "velocity": 0.15748031496062992,
                    "duration": 0.17904050000001348
                },
                {
                    "name": "C4",
                    "midi": 60,
                    "time": 167.93998900000173,
                    "velocity": 0.2047244094488189,
                    "duration": 0.17904050000001348
                },
                {
                    "name": "G3",
                    "midi": 55,
                    "time": 168.11902950000174,
                    "velocity": 0.15748031496062992,
                    "duration": 0.17904050000001348
                },
                {
                    "name": "E4",
                    "midi": 64,
                    "time": 168.29807000000176,
                    "velocity": 0.1968503937007874,
                    "duration": 0.17904050000001348
                },
                {
                    "name": "B2",
                    "midi": 47,
                    "time": 168.65615100000178,
                    "velocity": 0.2440944881889764,
                    "duration": 0.17904049999998506
                },
                {
                    "name": "G3",
                    "midi": 55,
                    "time": 168.83519150000177,
                    "velocity": 0.14173228346456693,
                    "duration": 0.17904050000001348
                },
                {
                    "name": "B3",
                    "midi": 59,
                    "time": 169.01423200000178,
                    "velocity": 0.18110236220472442,
                    "duration": 0.17904050000001348
                },
                {
                    "name": "G3",
                    "midi": 55,
                    "time": 169.1932725000018,
                    "velocity": 0.14173228346456693,
                    "duration": 0.17904050000001348
                },
                {
                    "name": "E4",
                    "midi": 64,
                    "time": 169.3723130000018,
                    "velocity": 0.1968503937007874,
                    "duration": 0.17904050000001348
                },
                {
                    "name": "B2",
                    "midi": 47,
                    "time": 169.73039400000184,
                    "velocity": 0.2283464566929134,
                    "duration": 0.17904049999998506
                },
                {
                    "name": "F#3",
                    "midi": 54,
                    "time": 169.90943450000182,
                    "velocity": 0.15748031496062992,
                    "duration": 0.17904050000001348
                },
                {
                    "name": "B3",
                    "midi": 59,
                    "time": 170.08847500000184,
                    "velocity": 0.1968503937007874,
                    "duration": 0.17904050000001348
                },
                {
                    "name": "F#3",
                    "midi": 54,
                    "time": 170.26751550000185,
                    "velocity": 0.14173228346456693,
                    "duration": 0.17904050000001348
                },
                {
                    "name": "D#4",
                    "midi": 63,
                    "time": 170.44655600000186,
                    "velocity": 0.15748031496062992,
                    "duration": 0.17904050000001348
                },
                {
                    "name": "G#3",
                    "midi": 56,
                    "time": 170.8046370000019,
                    "velocity": 0.6535433070866141,
                    "duration": 0.11936033333333285
                },
                {
                    "name": "F4",
                    "midi": 65,
                    "time": 170.92399733333522,
                    "velocity": 0.5669291338582677,
                    "duration": 0.11936033333333285
                },
                {
                    "name": "D4",
                    "midi": 62,
                    "time": 171.04335766666856,
                    "velocity": 0.5354330708661418,
                    "duration": 0.11936033333333285
                },
                {
                    "name": "B3",
                    "midi": 59,
                    "time": 171.1627180000019,
                    "velocity": 0.5905511811023622,
                    "duration": 0.11936033333333285
                },
                {
                    "name": "G#3",
                    "midi": 56,
                    "time": 171.28207833333522,
                    "velocity": 0.5354330708661418,
                    "duration": 0.11936033333333285
                },
                {
                    "name": "F3",
                    "midi": 53,
                    "time": 171.40143866666855,
                    "velocity": 0.5354330708661418,
                    "duration": 0.11936033333333285
                },
                {
                    "name": "D3",
                    "midi": 50,
                    "time": 171.5207990000019,
                    "velocity": 0.5118110236220472,
                    "duration": 0.11936033333333285
                },
                {
                    "name": "B2",
                    "midi": 47,
                    "time": 171.64015933333522,
                    "velocity": 0.4251968503937008,
                    "duration": 0.11936033333333285
                },
                {
                    "name": "A2",
                    "midi": 45,
                    "time": 171.75951966666855,
                    "velocity": 0.41732283464566927,
                    "duration": 0.11936033333333285
                },
                {
                    "name": "G#2",
                    "midi": 44,
                    "time": 171.87888000000189,
                    "velocity": 0.49606299212598426,
                    "duration": 0.08952024999999253
                },
                {
                    "name": "A#2",
                    "midi": 46,
                    "time": 172.95312300000188,
                    "velocity": 0.25984251968503935,
                    "duration": 0.17904050000001348
                },
                {
                    "name": "F3",
                    "midi": 53,
                    "time": 173.1321635000019,
                    "velocity": 0.18110236220472442,
                    "duration": 0.17904050000001348
                },
                {
                    "name": "A#3",
                    "midi": 58,
                    "time": 173.3112040000019,
                    "velocity": 0.2047244094488189,
                    "duration": 0.17904050000001348
                },
                {
                    "name": "F3",
                    "midi": 53,
                    "time": 173.49024450000192,
                    "velocity": 0.18110236220472442,
                    "duration": 0.17904050000001348
                },
                {
                    "name": "D4",
                    "midi": 62,
                    "time": 173.66928500000193,
                    "velocity": 0.18110236220472442,
                    "duration": 0.17904050000001348
                },
                {
                    "name": "A#2",
                    "midi": 46,
                    "time": 174.02736600000196,
                    "velocity": 0.25984251968503935,
                    "duration": 0.17904049999998506
                },
                {
                    "name": "F3",
                    "midi": 53,
                    "time": 174.20640650000195,
                    "velocity": 0.15748031496062992,
                    "duration": 0.17904050000001348
                },
                {
                    "name": "A#3",
                    "midi": 58,
                    "time": 174.38544700000196,
                    "velocity": 0.2047244094488189,
                    "duration": 0.17904050000001348
                },
                {
                    "name": "F3",
                    "midi": 53,
                    "time": 174.56448750000197,
                    "velocity": 0.15748031496062992,
                    "duration": 0.17904050000001348
                },
                {
                    "name": "D4",
                    "midi": 62,
                    "time": 174.743528000002,
                    "velocity": 0.1968503937007874,
                    "duration": 0.17904050000001348
                },
                {
                    "name": "A2",
                    "midi": 45,
                    "time": 175.10160900000201,
                    "velocity": 0.2440944881889764,
                    "duration": 0.17904050000001348
                },
                {
                    "name": "F3",
                    "midi": 53,
                    "time": 175.28064950000203,
                    "velocity": 0.14173228346456693,
                    "duration": 0.17904050000001348
                },
                {
                    "name": "A3",
                    "midi": 57,
                    "time": 175.45969000000204,
                    "velocity": 0.18110236220472442,
                    "duration": 0.17904050000001348
                },
                {
                    "name": "F3",
                    "midi": 53,
                    "time": 175.63873050000205,
                    "velocity": 0.14173228346456693,
                    "duration": 0.17904050000001348
                },
                {
                    "name": "D4",
                    "midi": 62,
                    "time": 175.81777100000207,
                    "velocity": 0.1968503937007874,
                    "duration": 0.17904050000001348
                },
                {
                    "name": "A2",
                    "midi": 45,
                    "time": 176.1758520000021,
                    "velocity": 0.2283464566929134,
                    "duration": 0.17904050000001348
                },
                {
                    "name": "E3",
                    "midi": 52,
                    "time": 176.3548925000021,
                    "velocity": 0.15748031496062992,
                    "duration": 0.17904050000001348
                },
                {
                    "name": "A3",
                    "midi": 57,
                    "time": 176.53393300000212,
                    "velocity": 0.1968503937007874,
                    "duration": 0.17904050000001348
                },
                {
                    "name": "E3",
                    "midi": 52,
                    "time": 176.71297350000214,
                    "velocity": 0.14173228346456693,
                    "duration": 0.17904050000001348
                },
                {
                    "name": "C#4",
                    "midi": 61,
                    "time": 176.89201400000215,
                    "velocity": 0.15748031496062992,
                    "duration": 0.17904050000001348
                },
                {
                    "name": "F#3",
                    "midi": 54,
                    "time": 177.25009500000218,
                    "velocity": 0.6535433070866141,
                    "duration": 0.11936033333333285
                },
                {
                    "name": "D#4",
                    "midi": 63,
                    "time": 177.3694553333355,
                    "velocity": 0.5748031496062992,
                    "duration": 0.11936033333333285
                },
                {
                    "name": "C4",
                    "midi": 60,
                    "time": 177.48881566666884,
                    "velocity": 0.5511811023622047,
                    "duration": 0.11936033333333285
                },
                {
                    "name": "A3",
                    "midi": 57,
                    "time": 177.60817600000217,
                    "velocity": 0.5905511811023622,
                    "duration": 0.11936033333333285
                },
                {
                    "name": "F3",
                    "midi": 53,
                    "time": 177.7275363333355,
                    "velocity": 0.5354330708661418,
                    "duration": 0.11936033333333285
                },
                {
                    "name": "D#3",
                    "midi": 51,
                    "time": 177.84689666666884,
                    "velocity": 0.5354330708661418,
                    "duration": 0.11936033333333285
                },
                {
                    "name": "C3",
                    "midi": 48,
                    "time": 177.96625700000217,
                    "velocity": 0.5118110236220472,
                    "duration": 0.11936033333333285
                },
                {
                    "name": "A2",
                    "midi": 45,
                    "time": 178.0856173333355,
                    "velocity": 0.4251968503937008,
                    "duration": 0.11936033333333285
                },
                {
                    "name": "G2",
                    "midi": 43,
                    "time": 178.20497766666884,
                    "velocity": 0.41732283464566927,
                    "duration": 0.11936033333333285
                },
                {
                    "name": "F#2",
                    "midi": 42,
                    "time": 178.32433800000217,
                    "velocity": 0.49606299212598426,
                    "duration": 0.08952024999999253
                },
                {
                    "name": "G#2",
                    "midi": 44,
                    "time": 179.39858100000217,
                    "velocity": 0.25984251968503935,
                    "duration": 0.17904050000001348
                },
                {
                    "name": "D#3",
                    "midi": 51,
                    "time": 179.57762150000218,
                    "velocity": 0.18110236220472442,
                    "duration": 0.17904050000001348
                },
                {
                    "name": "G#3",
                    "midi": 56,
                    "time": 179.7566620000022,
                    "velocity": 0.2047244094488189,
                    "duration": 0.17904050000001348
                },
                {
                    "name": "D#3",
                    "midi": 51,
                    "time": 179.9357025000022,
                    "velocity": 0.18110236220472442,
                    "duration": 0.17904050000001348
                },
                {
                    "name": "C4",
                    "midi": 60,
                    "time": 180.11474300000222,
                    "velocity": 0.18110236220472442,
                    "duration": 0.17904050000001348
                },
                {
                    "name": "G#2",
                    "midi": 44,
                    "time": 180.47282400000225,
                    "velocity": 0.25984251968503935,
                    "duration": 0.17904050000001348
                },
                {
                    "name": "D#3",
                    "midi": 51,
                    "time": 180.65186450000226,
                    "velocity": 0.15748031496062992,
                    "duration": 0.17904050000001348
                },
                {
                    "name": "G#3",
                    "midi": 56,
                    "time": 180.83090500000228,
                    "velocity": 0.2047244094488189,
                    "duration": 0.17904050000001348
                },
                {
                    "name": "D#3",
                    "midi": 51,
                    "time": 181.0099455000023,
                    "velocity": 0.15748031496062992,
                    "duration": 0.17904050000001348
                },
                {
                    "name": "C4",
                    "midi": 60,
                    "time": 181.1889860000023,
                    "velocity": 0.1968503937007874,
                    "duration": 0.17904050000001348
                },
                {
                    "name": "G#2",
                    "midi": 44,
                    "time": 181.54706700000233,
                    "velocity": 0.2440944881889764,
                    "duration": 0.17904049999998506
                },
                {
                    "name": "F3",
                    "midi": 53,
                    "time": 181.7261075000023,
                    "velocity": 0.14173228346456693,
                    "duration": 0.17904050000001348
                },
                {
                    "name": "G#3",
                    "midi": 56,
                    "time": 181.90514800000233,
                    "velocity": 0.18110236220472442,
                    "duration": 0.17904050000001348
                },
                {
                    "name": "F3",
                    "midi": 53,
                    "time": 182.08418850000234,
                    "velocity": 0.14173228346456693,
                    "duration": 0.17904050000001348
                },
                {
                    "name": "C#4",
                    "midi": 61,
                    "time": 182.26322900000235,
                    "velocity": 0.1968503937007874,
                    "duration": 0.17904050000001348
                },
                {
                    "name": "G#2",
                    "midi": 44,
                    "time": 182.62131000000238,
                    "velocity": 0.2440944881889764,
                    "duration": 0.17904049999998506
                },
                {
                    "name": "F3",
                    "midi": 53,
                    "time": 182.80035050000237,
                    "velocity": 0.14173228346456693,
                    "duration": 0.17904050000001348
                },
                {
                    "name": "G#3",
                    "midi": 56,
                    "time": 182.97939100000238,
                    "velocity": 0.18110236220472442,
                    "duration": 0.17904050000001348
                },
                {
                    "name": "F3",
                    "midi": 53,
                    "time": 183.1584315000024,
                    "velocity": 0.14173228346456693,
                    "duration": 0.17904050000001348
                },
                {
                    "name": "C#4",
                    "midi": 61,
                    "time": 183.3374720000024,
                    "velocity": 0.1968503937007874,
                    "duration": 0.17904050000001348
                },
                {
                    "name": "G#1",
                    "midi": 32,
                    "time": 183.6955530000024,
                    "velocity": 0.2440944881889764,
                    "duration": 0.17904050000001348
                },
                {
                    "name": "G#2",
                    "midi": 44,
                    "time": 183.87459350000242,
                    "velocity": 0.14173228346456693,
                    "duration": 0.17904050000001348
                },
                {
                    "name": "D#3",
                    "midi": 51,
                    "time": 184.05363400000243,
                    "velocity": 0.14173228346456693,
                    "duration": 0.17904050000001348
                },
                {
                    "name": "G#2",
                    "midi": 44,
                    "time": 184.23267450000245,
                    "velocity": 0.14173228346456693,
                    "duration": 0.17904050000001348
                },
                {
                    "name": "F#3",
                    "midi": 54,
                    "time": 184.41171500000246,
                    "velocity": 0.18110236220472442,
                    "duration": 0.17904050000001348
                },
                {
                    "name": "G#1",
                    "midi": 32,
                    "time": 184.7697960000025,
                    "velocity": 0.2440944881889764,
                    "duration": 0.17904050000001348
                },
                {
                    "name": "G#2",
                    "midi": 44,
                    "time": 184.9488365000025,
                    "velocity": 0.14173228346456693,
                    "duration": 0.17904050000001348
                },
                {
                    "name": "D#3",
                    "midi": 51,
                    "time": 185.1278770000025,
                    "velocity": 0.14173228346456693,
                    "duration": 0.17904050000001348
                },
                {
                    "name": "G#2",
                    "midi": 44,
                    "time": 185.30691750000253,
                    "velocity": 0.14173228346456693,
                    "duration": 0.17904050000001348
                },
                {
                    "name": "G#3",
                    "midi": 56,
                    "time": 185.48595800000254,
                    "velocity": 0.2125984251968504,
                    "duration": 0.17904050000001348
                },
                {
                    "name": "G#3",
                    "midi": 56,
                    "time": 185.84403900000257,
                    "velocity": 0.2125984251968504,
                    "duration": 2.1484860000000197
                },
                {
                    "name": "C#4",
                    "midi": 61,
                    "time": 185.84403900000257,
                    "velocity": 0.2125984251968504,
                    "duration": 2.1484860000000197
                },
                {
                    "name": "C#3",
                    "midi": 49,
                    "time": 185.84403900000257,
                    "velocity": 0.2125984251968504,
                    "duration": 2.1484860000000197
                },
                {
                    "name": "F3",
                    "midi": 53,
                    "time": 185.84403900000257,
                    "velocity": 0.2125984251968504,
                    "duration": 2.1484860000000197
                },
                {
                    "name": "G#3",
                    "midi": 56,
                    "time": 187.9925250000026,
                    "velocity": 0.2283464566929134,
                    "duration": 2.1484860000000197
                },
                {
                    "name": "C4",
                    "midi": 60,
                    "time": 187.9925250000026,
                    "velocity": 0.2283464566929134,
                    "duration": 2.1484860000000197
                },
                {
                    "name": "D#3",
                    "midi": 51,
                    "time": 187.9925250000026,
                    "velocity": 0.2283464566929134,
                    "duration": 1.074243000000024
                },
                {
                    "name": "C#3",
                    "midi": 49,
                    "time": 187.9925250000026,
                    "velocity": 0.2283464566929134,
                    "duration": 2.1484860000000197
                },
                {
                    "name": "F#3",
                    "midi": 54,
                    "time": 189.0667680000026,
                    "velocity": 0.2204724409448819,
                    "duration": 1.0742429999999956
                },
                {
                    "name": "G#3",
                    "midi": 56,
                    "time": 190.1410110000026,
                    "velocity": 0.2283464566929134,
                    "duration": 2.148485999999963
                },
                {
                    "name": "C#4",
                    "midi": 61,
                    "time": 190.1410110000026,
                    "velocity": 0.2283464566929134,
                    "duration": 2.148485999999963
                },
                {
                    "name": "C#3",
                    "midi": 49,
                    "time": 190.1410110000026,
                    "velocity": 0.2283464566929134,
                    "duration": 2.148485999999963
                },
                {
                    "name": "E3",
                    "midi": 52,
                    "time": 190.1410110000026,
                    "velocity": 0.2283464566929134,
                    "duration": 2.148485999999963
                },
                {
                    "name": "G#3",
                    "midi": 56,
                    "time": 192.28949700000257,
                    "velocity": 0.2204724409448819,
                    "duration": 2.506567000000018
                },
                {
                    "name": "C4",
                    "midi": 60,
                    "time": 192.28949700000257,
                    "velocity": 0.2204724409448819,
                    "duration": 2.1484860000000197
                },
                {
                    "name": "D#3",
                    "midi": 51,
                    "time": 192.28949700000257,
                    "velocity": 0.2204724409448819,
                    "duration": 1.074243000000024
                },
                {
                    "name": "C#3",
                    "midi": 49,
                    "time": 192.28949700000257,
                    "velocity": 0.2204724409448819,
                    "duration": 2.506567000000018
                },
                {
                    "name": "F#3",
                    "midi": 54,
                    "time": 193.3637400000026,
                    "velocity": 0.2204724409448819,
                    "duration": 1.0742429999999956
                },
                {
                    "name": "E3",
                    "midi": 52,
                    "time": 194.4379830000026,
                    "velocity": 0.2283464566929134,
                    "duration": 0.35808099999999854
                },
                {
                    "name": "C#4",
                    "midi": 61,
                    "time": 194.4379830000026,
                    "velocity": 0.2283464566929134,
                    "duration": 0.35808099999999854
                },
                {
                    "name": "C4",
                    "midi": 60,
                    "time": 195.51222600000258,
                    "velocity": 0.31496062992125984,
                    "duration": 0.11936033333333285
                },
                {
                    "name": "C#4",
                    "midi": 61,
                    "time": 195.63158633333592,
                    "velocity": 0.2755905511811024,
                    "duration": 0.11936033333333285
                },
                {
                    "name": "D#4",
                    "midi": 63,
                    "time": 195.75094666666925,
                    "velocity": 0.2755905511811024,
                    "duration": 0.11936033333333285
                },
                {
                    "name": "C#4",
                    "midi": 61,
                    "time": 195.87030700000258,
                    "velocity": 0.3228346456692913,
                    "duration": 0.11936033333333285
                },
                {
                    "name": "D#4",
                    "midi": 63,
                    "time": 195.98966733333592,
                    "velocity": 0.29133858267716534,
                    "duration": 0.11936033333333285
                },
                {
                    "name": "E4",
                    "midi": 64,
                    "time": 196.10902766666925,
                    "velocity": 0.29133858267716534,
                    "duration": 0.11936033333333285
                },
                {
                    "name": "F#4",
                    "midi": 66,
                    "time": 196.22838800000258,
                    "velocity": 0.33070866141732286,
                    "duration": 0.11936033333333285
                },
                {
                    "name": "E4",
                    "midi": 64,
                    "time": 196.34774833333591,
                    "velocity": 0.29133858267716534,
                    "duration": 0.11936033333333285
                },
                {
                    "name": "D#4",
                    "midi": 63,
                    "time": 196.46710866666925,
                    "velocity": 0.29133858267716534,
                    "duration": 0.11936033333333285
                },
                {
                    "name": "E4",
                    "midi": 64,
                    "time": 196.58646900000258,
                    "velocity": 0.3543307086614173,
                    "duration": 0.7161619999999971
                },
                {
                    "name": "C#4",
                    "midi": 61,
                    "time": 197.30263100000258,
                    "velocity": 0.29133858267716534,
                    "duration": 0.35808099999999854
                },
                {
                    "name": "C4",
                    "midi": 60,
                    "time": 197.66071200000258,
                    "velocity": 0.31496062992125984,
                    "duration": 0.11936033333333285
                },
                {
                    "name": "C#4",
                    "midi": 61,
                    "time": 197.7800723333359,
                    "velocity": 0.2755905511811024,
                    "duration": 0.11936033333333285
                },
                {
                    "name": "D#4",
                    "midi": 63,
                    "time": 197.89943266666924,
                    "velocity": 0.2755905511811024,
                    "duration": 0.11936033333333285
                },
                {
                    "name": "C#4",
                    "midi": 61,
                    "time": 198.01879300000257,
                    "velocity": 0.3228346456692913,
                    "duration": 0.11936033333333285
                },
                {
                    "name": "D#4",
                    "midi": 63,
                    "time": 198.1381533333359,
                    "velocity": 0.29133858267716534,
                    "duration": 0.11936033333333285
                },
                {
                    "name": "E4",
                    "midi": 64,
                    "time": 198.25751366666924,
                    "velocity": 0.29133858267716534,
                    "duration": 0.11936033333333285
                },
                {
                    "name": "F#4",
                    "midi": 66,
                    "time": 198.37687400000257,
                    "velocity": 0.33070866141732286,
                    "duration": 0.11936033333333285
                },
                {
                    "name": "E4",
                    "midi": 64,
                    "time": 198.4962343333359,
                    "velocity": 0.29133858267716534,
                    "duration": 0.11936033333333285
                },
                {
                    "name": "D#4",
                    "midi": 63,
                    "time": 198.61559466666924,
                    "velocity": 0.29133858267716534,
                    "duration": 0.11936033333333285
                },
                {
                    "name": "E4",
                    "midi": 64,
                    "time": 198.73495500000257,
                    "velocity": 0.3543307086614173,
                    "duration": 1.0742429999999956
                },
                {
                    "name": "D#4",
                    "midi": 63,
                    "time": 199.80919800000257,
                    "velocity": 0.31496062992125984,
                    "duration": 0.11936033333333285
                },
                {
                    "name": "E4",
                    "midi": 64,
                    "time": 199.9285583333359,
                    "velocity": 0.2755905511811024,
                    "duration": 0.11936033333333285
                },
                {
                    "name": "F#4",
                    "midi": 66,
                    "time": 200.04791866666923,
                    "velocity": 0.2755905511811024,
                    "duration": 0.11936033333333285
                },
                {
                    "name": "E4",
                    "midi": 64,
                    "time": 200.16727900000257,
                    "velocity": 0.3228346456692913,
                    "duration": 0.11936033333333285
                },
                {
                    "name": "F#4",
                    "midi": 66,
                    "time": 200.2866393333359,
                    "velocity": 0.29133858267716534,
                    "duration": 0.11936033333333285
                },
                {
                    "name": "G4",
                    "midi": 67,
                    "time": 200.40599966666923,
                    "velocity": 0.29133858267716534,
                    "duration": 0.11936033333333285
                },
                {
                    "name": "A4",
                    "midi": 69,
                    "time": 200.52536000000256,
                    "velocity": 0.33070866141732286,
                    "duration": 0.11936033333333285
                },
                {
                    "name": "G4",
                    "midi": 67,
                    "time": 200.6447203333359,
                    "velocity": 0.29133858267716534,
                    "duration": 0.11936033333333285
                },
                {
                    "name": "F#4",
                    "midi": 66,
                    "time": 200.76408066666923,
                    "velocity": 0.29133858267716534,
                    "duration": 0.11936033333333285
                },
                {
                    "name": "F4",
                    "midi": 65,
                    "time": 200.88344100000256,
                    "velocity": 0.31496062992125984,
                    "duration": 0.11936033333333285
                },
                {
                    "name": "F#4",
                    "midi": 66,
                    "time": 201.0028013333359,
                    "velocity": 0.2755905511811024,
                    "duration": 0.11936033333333285
                },
                {
                    "name": "G#4",
                    "midi": 68,
                    "time": 201.12216166666923,
                    "velocity": 0.2755905511811024,
                    "duration": 0.11936033333333285
                },
                {
                    "name": "F#4",
                    "midi": 66,
                    "time": 201.24152200000256,
                    "velocity": 0.3228346456692913,
                    "duration": 0.11936033333333285
                },
                {
                    "name": "G#4",
                    "midi": 68,
                    "time": 201.3608823333359,
                    "velocity": 0.29133858267716534,
                    "duration": 0.11936033333333285
                },
                {
                    "name": "A4",
                    "midi": 69,
                    "time": 201.48024266666923,
                    "velocity": 0.29133858267716534,
                    "duration": 0.11936033333333285
                },
                {
                    "name": "B4",
                    "midi": 71,
                    "time": 201.59960300000256,
                    "velocity": 0.33070866141732286,
                    "duration": 0.11936033333336127
                },
                {
                    "name": "A4",
                    "midi": 69,
                    "time": 201.71896333333592,
                    "velocity": 0.29133858267716534,
                    "duration": 0.11936033333333285
                },
                {
                    "name": "G#4",
                    "midi": 68,
                    "time": 201.83832366666925,
                    "velocity": 0.29133858267716534,
                    "duration": 0.11936033333333285
                },
                {
                    "name": "F#4",
                    "midi": 66,
                    "time": 201.9576840000026,
                    "velocity": 0.33070866141732286,
                    "duration": 0.35808099999999854
                },
                {
                    "name": "E4",
                    "midi": 64,
                    "time": 202.67384600000258,
                    "velocity": 0.30708661417322836,
                    "duration": 0.11936033333333285
                },
                {
                    "name": "A#4",
                    "midi": 70,
                    "time": 202.79320633333592,
                    "velocity": 0.28346456692913385,
                    "duration": 0.11936033333333285
                },
                {
                    "name": "E4",
                    "midi": 64,
                    "time": 202.91256666666925,
                    "velocity": 0.28346456692913385,
                    "duration": 0.11936033333333285
                },
                {
                    "name": "D#4",
                    "midi": 63,
                    "time": 203.03192700000258,
                    "velocity": 0.31496062992125984,
                    "duration": 0.11936033333333285
                },
                {
                    "name": "B4",
                    "midi": 71,
                    "time": 203.03192700000258,
                    "velocity": 0.31496062992125984,
                    "duration": 0.11936033333333285
                },
                {
                    "name": "E4",
                    "midi": 64,
                    "time": 203.15128733333592,
                    "velocity": 0.2755905511811024,
                    "duration": 0.11936033333333285
                },
                {
                    "name": "F#4",
                    "midi": 66,
                    "time": 203.27064766666925,
                    "velocity": 0.2755905511811024,
                    "duration": 0.11936033333333285
                },
                {
                    "name": "E4",
                    "midi": 64,
                    "time": 203.39000800000258,
                    "velocity": 0.3228346456692913,
                    "duration": 0.11936033333333285
                },
                {
                    "name": "F#4",
                    "midi": 66,
                    "time": 203.5093683333359,
                    "velocity": 0.29133858267716534,
                    "duration": 0.11936033333333285
                },
                {
                    "name": "G4",
                    "midi": 67,
                    "time": 203.62425265416925,
                    "velocity": 0.29133858267716534,
                    "duration": 0.11936033333333285
                },
                {
                    "name": "D#5",
                    "midi": 75,
                    "time": 203.74808900000258,
                    "velocity": 0.3228346456692913,
                    "duration": 0.35808099999999854
                },
                {
                    "name": "A4",
                    "midi": 69,
                    "time": 203.74808900000258,
                    "velocity": 0.3228346456692913,
                    "duration": 0.35808099999999854
                },
                {
                    "name": "G#4",
                    "midi": 68,
                    "time": 204.10617000000258,
                    "velocity": 0.3228346456692913,
                    "duration": 0.17904049999998506
                },
                {
                    "name": "D4",
                    "midi": 62,
                    "time": 204.82233200000258,
                    "velocity": 0.31496062992125984,
                    "duration": 0.11936033333333285
                },
                {
                    "name": "G#4",
                    "midi": 68,
                    "time": 204.9416923333359,
                    "velocity": 0.29133858267716534,
                    "duration": 0.11936033333333285
                },
                {
                    "name": "D4",
                    "midi": 62,
                    "time": 205.06105266666924,
                    "velocity": 0.29133858267716534,
                    "duration": 0.11936033333333285
                },
                {
                    "name": "C#4",
                    "midi": 61,
                    "time": 205.18041300000257,
                    "velocity": 0.31496062992125984,
                    "duration": 0.11936033333333285
                },
                {
                    "name": "A4",
                    "midi": 69,
                    "time": 205.18041300000257,
                    "velocity": 0.31496062992125984,
                    "duration": 0.11936033333333285
                },
                {
                    "name": "D4",
                    "midi": 62,
                    "time": 205.2997733333359,
                    "velocity": 0.2755905511811024,
                    "duration": 0.11936033333333285
                },
                {
                    "name": "E4",
                    "midi": 64,
                    "time": 205.41913366666924,
                    "velocity": 0.2755905511811024,
                    "duration": 0.11936033333333285
                },
                {
                    "name": "D4",
                    "midi": 62,
                    "time": 205.53849400000257,
                    "velocity": 0.3228346456692913,
                    "duration": 0.11936033333333285
                },
                {
                    "name": "E4",
                    "midi": 64,
                    "time": 205.6578543333359,
                    "velocity": 0.29133858267716534,
                    "duration": 0.11936033333333285
                },
                {
                    "name": "F#4",
                    "midi": 66,
                    "time": 205.77721466666924,
                    "velocity": 0.29133858267716534,
                    "duration": 0.11936033333333285
                },
                {
                    "name": "G4",
                    "midi": 67,
                    "time": 205.89657500000257,
                    "velocity": 0.3228346456692913,
                    "duration": 0.35808099999999854
                },
                {
                    "name": "C#5",
                    "midi": 73,
                    "time": 205.89657500000257,
                    "velocity": 0.3228346456692913,
                    "duration": 0.35808099999999854
                },
                {
                    "name": "F#4",
                    "midi": 66,
                    "time": 206.25465600000257,
                    "velocity": 0.3228346456692913,
                    "duration": 0.17904050000001348
                },
                {
                    "name": "F4",
                    "midi": 65,
                    "time": 206.9708180000026,
                    "velocity": 0.3228346456692913,
                    "duration": 0.11936033333333285
                },
                {
                    "name": "A4",
                    "midi": 69,
                    "time": 207.09017833333593,
                    "velocity": 0.29133858267716534,
                    "duration": 0.11936033333333285
                },
                {
                    "name": "F4",
                    "midi": 65,
                    "time": 207.20953866666926,
                    "velocity": 0.29133858267716534,
                    "duration": 0.11936033333333285
                },
                {
                    "name": "E4",
                    "midi": 64,
                    "time": 207.3288990000026,
                    "velocity": 0.31496062992125984,
                    "duration": 0.11936033333333285
                },
                {
                    "name": "F#4",
                    "midi": 66,
                    "time": 207.44825933333593,
                    "velocity": 0.2755905511811024,
                    "duration": 0.11936033333333285
                },
                {
                    "name": "G#4",
                    "midi": 68,
                    "time": 207.56761966666926,
                    "velocity": 0.2755905511811024,
                    "duration": 0.11936033333333285
                },
                {
                    "name": "F#4",
                    "midi": 66,
                    "time": 207.6869800000026,
                    "velocity": 0.3228346456692913,
                    "duration": 0.11936033333333285
                },
                {
                    "name": "G#4",
                    "midi": 68,
                    "time": 207.80634033333592,
                    "velocity": 0.29133858267716534,
                    "duration": 0.11936033333333285
                },
                {
                    "name": "A4",
                    "midi": 69,
                    "time": 207.92570066666926,
                    "velocity": 0.29133858267716534,
                    "duration": 0.11936033333333285
                },
                {
                    "name": "F4",
                    "midi": 65,
                    "time": 208.0450610000026,
                    "velocity": 0.3228346456692913,
                    "duration": 0.35808099999999854
                },
                {
                    "name": "B4",
                    "midi": 71,
                    "time": 208.0450610000026,
                    "velocity": 0.3228346456692913,
                    "duration": 0.7161619999999971
                },
                {
                    "name": "D5",
                    "midi": 74,
                    "time": 208.0450610000026,
                    "velocity": 0.3228346456692913,
                    "duration": 0.7161619999999971
                },
                {
                    "name": "E4",
                    "midi": 64,
                    "time": 208.4031420000026,
                    "velocity": 0.3228346456692913,
                    "duration": 0.35808099999999854
                },
                {
                    "name": "F4",
                    "midi": 65,
                    "time": 209.1193040000026,
                    "velocity": 0.30708661417322836,
                    "duration": 0.11936033333333285
                },
                {
                    "name": "A4",
                    "midi": 69,
                    "time": 209.23866433333592,
                    "velocity": 0.29133858267716534,
                    "duration": 0.11936033333333285
                },
                {
                    "name": "F4",
                    "midi": 65,
                    "time": 209.35802466666925,
                    "velocity": 0.2992125984251969,
                    "duration": 0.11936033333333285
                },
                {
                    "name": "E4",
                    "midi": 64,
                    "time": 209.47738500000258,
                    "velocity": 0.31496062992125984,
                    "duration": 0.11936033333333285
                },
                {
                    "name": "F#4",
                    "midi": 66,
                    "time": 209.59674533333592,
                    "velocity": 0.2755905511811024,
                    "duration": 0.11936033333333285
                },
                {
                    "name": "G#4",
                    "midi": 68,
                    "time": 209.71610566666925,
                    "velocity": 0.2755905511811024,
                    "duration": 0.11936033333333285
                },
                {
                    "name": "F#4",
                    "midi": 66,
                    "time": 209.83546600000258,
                    "velocity": 0.3228346456692913,
                    "duration": 0.11936033333333285
                },
                {
                    "name": "G#4",
                    "midi": 68,
                    "time": 209.95482633333592,
                    "velocity": 0.29133858267716534,
                    "duration": 0.11936033333333285
                },
                {
                    "name": "A4",
                    "midi": 69,
                    "time": 210.07418666666925,
                    "velocity": 0.29133858267716534,
                    "duration": 0.11936033333333285
                },
                {
                    "name": "B4",
                    "midi": 71,
                    "time": 210.19354700000258,
                    "velocity": 0.3228346456692913,
                    "duration": 0.7161619999999971
                },
                {
                    "name": "D5",
                    "midi": 74,
                    "time": 210.19354700000258,
                    "velocity": 0.3228346456692913,
                    "duration": 0.7161619999999971
                },
                {
                    "name": "F4",
                    "midi": 65,
                    "time": 210.19354700000258,
                    "velocity": 0.3228346456692913,
                    "duration": 0.35808099999999854
                },
                {
                    "name": "E4",
                    "midi": 64,
                    "time": 210.55162800000258,
                    "velocity": 0.3228346456692913,
                    "duration": 0.35808099999999854
                },
                {
                    "name": "F4",
                    "midi": 65,
                    "time": 211.26779000000258,
                    "velocity": 0.3543307086614173,
                    "duration": 0.11936033333333285
                },
                {
                    "name": "A4",
                    "midi": 69,
                    "time": 211.3871503333359,
                    "velocity": 0.2992125984251969,
                    "duration": 0.11936033333333285
                },
                {
                    "name": "F4",
                    "midi": 65,
                    "time": 211.50651066666924,
                    "velocity": 0.2992125984251969,
                    "duration": 0.11936033333333285
                },
                {
                    "name": "E4",
                    "midi": 64,
                    "time": 211.62587100000258,
                    "velocity": 0.3543307086614173,
                    "duration": 0.11936033333333285
                },
                {
                    "name": "F#4",
                    "midi": 66,
                    "time": 211.7452313333359,
                    "velocity": 0.28346456692913385,
                    "duration": 0.11936033333333285
                },
                {
                    "name": "G#4",
                    "midi": 68,
                    "time": 211.86459166666924,
                    "velocity": 0.28346456692913385,
                    "duration": 0.11936033333333285
                },
                {
                    "name": "F#4",
                    "midi": 66,
                    "time": 211.98395200000257,
                    "velocity": 0.36220472440944884,
                    "duration": 0.11936033333333285
                },
                {
                    "name": "G#4",
                    "midi": 68,
                    "time": 212.1033123333359,
                    "velocity": 0.29133858267716534,
                    "duration": 0.11936033333333285
                },
                {
                    "name": "A4",
                    "midi": 69,
                    "time": 212.22267266666924,
                    "velocity": 0.29133858267716534,
                    "duration": 0.11936033333333285
                },
                {
                    "name": "G#4",
                    "midi": 68,
                    "time": 212.34203300000257,
                    "velocity": 0.3700787401574803,
                    "duration": 0.11936033333333285
                },
                {
                    "name": "A4",
                    "midi": 69,
                    "time": 212.4613933333359,
                    "velocity": 0.3228346456692913,
                    "duration": 0.11936033333333285
                },
                {
                    "name": "B4",
                    "midi": 71,
                    "time": 212.58075366666924,
                    "velocity": 0.33070866141732286,
                    "duration": 0.11936033333333285
                },
                {
                    "name": "E4",
                    "midi": 64,
                    "time": 213.41627600000257,
                    "velocity": 0.3937007874015748,
                    "duration": 0.11936033333333285
                },
                {
                    "name": "F#4",
                    "midi": 66,
                    "time": 213.5356363333359,
                    "velocity": 0.3464566929133858,
                    "duration": 0.11936033333333285
                },
                {
                    "name": "G#4",
                    "midi": 68,
                    "time": 213.65499666666923,
                    "velocity": 0.3464566929133858,
                    "duration": 0.11936033333333285
                },
                {
                    "name": "F#4",
                    "midi": 66,
                    "time": 213.77435700000257,
                    "velocity": 0.4094488188976378,
                    "duration": 0.11936033333333285
                },
                {
                    "name": "G#4",
                    "midi": 68,
                    "time": 213.8937173333359,
                    "velocity": 0.3543307086614173,
                    "duration": 0.11936033333333285
                },
                {
                    "name": "A4",
                    "midi": 69,
                    "time": 214.01307766666923,
                    "velocity": 0.3543307086614173,
                    "duration": 0.11936033333333285
                },
                {
                    "name": "E4",
                    "midi": 64,
                    "time": 214.49051900000256,
                    "velocity": 0.3937007874015748,
                    "duration": 0.11936033333333285
                },
                {
                    "name": "F#4",
                    "midi": 66,
                    "time": 214.6098793333359,
                    "velocity": 0.36220472440944884,
                    "duration": 0.11936033333333285
                },
                {
                    "name": "G#4",
                    "midi": 68,
                    "time": 214.72923966666923,
                    "velocity": 0.36220472440944884,
                    "duration": 0.11936033333333285
                },
                {
                    "name": "F#4",
                    "midi": 66,
                    "time": 214.84860000000256,
                    "velocity": 0.3937007874015748,
                    "duration": 0.11936033333333285
                },
                {
                    "name": "G#4",
                    "midi": 68,
                    "time": 214.9679603333359,
                    "velocity": 0.3543307086614173,
                    "duration": 0.11936033333333285
                },
                {
                    "name": "A4",
                    "midi": 69,
                    "time": 215.08732066666923,
                    "velocity": 0.3543307086614173,
                    "duration": 0.11936033333333285
                },
                {
                    "name": "A4",
                    "midi": 69,
                    "time": 215.56476200000256,
                    "velocity": 0.3937007874015748,
                    "duration": 0.11936033333333285
                },
                {
                    "name": "B4",
                    "midi": 71,
                    "time": 215.6841223333359,
                    "velocity": 0.3937007874015748,
                    "duration": 0.11936033333333285
                },
                {
                    "name": "C5",
                    "midi": 72,
                    "time": 215.80348266666923,
                    "velocity": 0.4015748031496063,
                    "duration": 0.11936033333333285
                },
                {
                    "name": "D5",
                    "midi": 74,
                    "time": 215.92284300000256,
                    "velocity": 0.4094488188976378,
                    "duration": 0.11936033333333285
                },
                {
                    "name": "E5",
                    "midi": 76,
                    "time": 216.0422033333359,
                    "velocity": 0.41732283464566927,
                    "duration": 0.11936033333333285
                },
                {
                    "name": "F5",
                    "midi": 77,
                    "time": 216.16156366666922,
                    "velocity": 0.4409448818897638,
                    "duration": 0.11936033333333285
                },
                {
                    "name": "E5",
                    "midi": 76,
                    "time": 216.28092400000256,
                    "velocity": 0.47244094488188976,
                    "duration": 0.11936033333333285
                },
                {
                    "name": "D5",
                    "midi": 74,
                    "time": 216.4002843333359,
                    "velocity": 0.4330708661417323,
                    "duration": 0.11936033333333285
                },
                {
                    "name": "C5",
                    "midi": 72,
                    "time": 216.51964466666922,
                    "velocity": 0.4015748031496063,
                    "duration": 0.11936033333333285
                },
                {
                    "name": "B4",
                    "midi": 71,
                    "time": 216.63900500000256,
                    "velocity": 0.4330708661417323,
                    "duration": 0.11936033333333285
                },
                {
                    "name": "A4",
                    "midi": 69,
                    "time": 216.7583653333359,
                    "velocity": 0.4094488188976378,
                    "duration": 0.11936033333333285
                },
                {
                    "name": "G4",
                    "midi": 67,
                    "time": 216.87772566666922,
                    "velocity": 0.3937007874015748,
                    "duration": 0.11936033333333285
                },
                {
                    "name": "F4",
                    "midi": 65,
                    "time": 216.99708600000255,
                    "velocity": 0.4645669291338583,
                    "duration": 0.134280375000003
                },
                {
                    "name": "C4",
                    "midi": 60,
                    "time": 217.35516700000255,
                    "velocity": 0.4409448818897638,
                    "duration": 0.134280375000003
                },
                {
                    "name": "A3",
                    "midi": 57,
                    "time": 217.71324800000255,
                    "velocity": 0.3937007874015748,
                    "duration": 0.134280375000003
                },
                {
                    "name": "G#3",
                    "midi": 56,
                    "time": 218.07132900000255,
                    "velocity": 0.41732283464566927,
                    "duration": 0.11936033333333285
                },
                {
                    "name": "F#3",
                    "midi": 54,
                    "time": 218.19068933333588,
                    "velocity": 0.3779527559055118,
                    "duration": 0.11936033333333285
                },
                {
                    "name": "E3",
                    "midi": 52,
                    "time": 218.31004966666922,
                    "velocity": 0.3779527559055118,
                    "duration": 0.11936033333333285
                },
                {
                    "name": "D#3",
                    "midi": 51,
                    "time": 218.42941000000255,
                    "velocity": 0.4094488188976378,
                    "duration": 0.11936033333333285
                },
                {
                    "name": "C#3",
                    "midi": 49,
                    "time": 218.54877033333588,
                    "velocity": 0.3700787401574803,
                    "duration": 0.11936033333333285
                },
                {
                    "name": "B2",
                    "midi": 47,
                    "time": 218.6681306666692,
                    "velocity": 0.3779527559055118,
                    "duration": 0.11936033333333285
                },
                {
                    "name": "A3",
                    "midi": 57,
                    "time": 218.78749100000255,
                    "velocity": 0.5039370078740157,
                    "duration": 0.35808099999999854
                },
                {
                    "name": "G#3",
                    "midi": 56,
                    "time": 219.14557200000255,
                    "velocity": 0.4251968503937008,
                    "duration": 0.11936033333333285
                },
                {
                    "name": "F#3",
                    "midi": 54,
                    "time": 219.26493233333588,
                    "velocity": 0.3858267716535433,
                    "duration": 0.11936033333333285
                },
                {
                    "name": "E3",
                    "midi": 52,
                    "time": 219.3842926666692,
                    "velocity": 0.3858267716535433,
                    "duration": 0.11936033333333285
                },
                {
                    "name": "D#3",
                    "midi": 51,
                    "time": 219.50365300000254,
                    "velocity": 0.41732283464566927,
                    "duration": 0.11936033333333285
                },
                {
                    "name": "C#3",
                    "midi": 49,
                    "time": 219.62301333333588,
                    "velocity": 0.3700787401574803,
                    "duration": 0.11936033333333285
                },
                {
                    "name": "B2",
                    "midi": 47,
                    "time": 219.7423736666692,
                    "velocity": 0.3700787401574803,
                    "duration": 0.11936033333333285
                },
                {
                    "name": "A3",
                    "midi": 57,
                    "time": 219.86173400000254,
                    "velocity": 0.5039370078740157,
                    "duration": 0.35808099999999854
                },
                {
                    "name": "G#3",
                    "midi": 56,
                    "time": 220.21981500000254,
                    "velocity": 0.4251968503937008,
                    "duration": 0.11936033333333285
                },
                {
                    "name": "F#3",
                    "midi": 54,
                    "time": 220.33917533333587,
                    "velocity": 0.3700787401574803,
                    "duration": 0.11936033333333285
                },
                {
                    "name": "E3",
                    "midi": 52,
                    "time": 220.4585356666692,
                    "velocity": 0.3700787401574803,
                    "duration": 0.11936033333333285
                },
                {
                    "name": "D#3",
                    "midi": 51,
                    "time": 220.57789600000254,
                    "velocity": 0.4094488188976378,
                    "duration": 0.11936033333333285
                },
                {
                    "name": "C#3",
                    "midi": 49,
                    "time": 220.69725633333587,
                    "velocity": 0.3464566929133858,
                    "duration": 0.11936033333333285
                },
                {
                    "name": "B2",
                    "midi": 47,
                    "time": 220.8166166666692,
                    "velocity": 0.3464566929133858,
                    "duration": 0.11936033333333285
                },
                {
                    "name": "A3",
                    "midi": 57,
                    "time": 220.93597700000254,
                    "velocity": 0.5039370078740157,
                    "duration": 0.35808099999999854
                },
                {
                    "name": "G#3",
                    "midi": 56,
                    "time": 221.29405800000254,
                    "velocity": 0.3937007874015748,
                    "duration": 0.11936033333333285
                },
                {
                    "name": "F#3",
                    "midi": 54,
                    "time": 221.41341833333587,
                    "velocity": 0.33858267716535434,
                    "duration": 0.11936033333333285
                },
                {
                    "name": "E3",
                    "midi": 52,
                    "time": 221.5327786666692,
                    "velocity": 0.33858267716535434,
                    "duration": 0.11936033333333285
                },
                {
                    "name": "F#3",
                    "midi": 54,
                    "time": 221.65213900000253,
                    "velocity": 0.4094488188976378,
                    "duration": 0.11936033333333285
                },
                {
                    "name": "E3",
                    "midi": 52,
                    "time": 221.77149933333587,
                    "velocity": 0.3464566929133858,
                    "duration": 0.11936033333333285
                },
                {
                    "name": "D#3",
                    "midi": 51,
                    "time": 221.8908596666692,
                    "velocity": 0.3464566929133858,
                    "duration": 0.11936033333333285
                },
                {
                    "name": "E3",
                    "midi": 52,
                    "time": 222.01022000000253,
                    "velocity": 0.4094488188976378,
                    "duration": 0.11936033333333285
                },
                {
                    "name": "D#3",
                    "midi": 51,
                    "time": 222.12958033333587,
                    "velocity": 0.3700787401574803,
                    "duration": 0.11936033333333285
                },
                {
                    "name": "D3",
                    "midi": 50,
                    "time": 222.2489406666692,
                    "velocity": 0.3700787401574803,
                    "duration": 0.11936033333333285
                },
                {
                    "name": "E3",
                    "midi": 52,
                    "time": 222.36830100000253,
                    "velocity": 0.4409448818897638,
                    "duration": 0.11936033333333285
                },
                {
                    "name": "D3",
                    "midi": 50,
                    "time": 222.48766133333586,
                    "velocity": 0.4094488188976378,
                    "duration": 0.11936033333333285
                },
                {
                    "name": "C3",
                    "midi": 48,
                    "time": 222.6070216666692,
                    "velocity": 0.41732283464566927,
                    "duration": 0.11936033333333285
                },
                {
                    "name": "D3",
                    "midi": 50,
                    "time": 222.72638200000253,
                    "velocity": 0.4566929133858268,
                    "duration": 0.11936033333333285
                },
                {
                    "name": "C3",
                    "midi": 48,
                    "time": 222.84574233333586,
                    "velocity": 0.4330708661417323,
                    "duration": 0.11936033333333285
                },
                {
                    "name": "B2",
                    "midi": 47,
                    "time": 222.9651026666692,
                    "velocity": 0.4330708661417323,
                    "duration": 0.11936033333333285
                },
                {
                    "name": "C3",
                    "midi": 48,
                    "time": 223.08446300000253,
                    "velocity": 0.5118110236220472,
                    "duration": 0.11936033333333285
                },
                {
                    "name": "B2",
                    "midi": 47,
                    "time": 223.20382333333586,
                    "velocity": 0.4645669291338583,
                    "duration": 0.11936033333333285
                },
                {
                    "name": "A2",
                    "midi": 45,
                    "time": 223.3231836666692,
                    "velocity": 0.4645669291338583,
                    "duration": 0.11936033333333285
                },
                {
                    "name": "D4",
                    "midi": 62,
                    "time": 223.44254400000253,
                    "velocity": 0.7165354330708661,
                    "duration": 0.11936033333330442
                },
                {
                    "name": "A#3",
                    "midi": 58,
                    "time": 223.56190433333583,
                    "velocity": 0.6220472440944882,
                    "duration": 0.11936033333333285
                },
                {
                    "name": "F3",
                    "midi": 53,
                    "time": 223.68126466666916,
                    "velocity": 0.6062992125984252,
                    "duration": 0.11936033333333285
                },
                {
                    "name": "D3",
                    "midi": 50,
                    "time": 223.8006250000025,
                    "velocity": 0.6692913385826772,
                    "duration": 0.11936033333333285
                },
                {
                    "name": "A#2",
                    "midi": 46,
                    "time": 223.91998533333583,
                    "velocity": 0.5905511811023622,
                    "duration": 0.11936033333333285
                },
                {
                    "name": "F2",
                    "midi": 41,
                    "time": 224.03934566666916,
                    "velocity": 0.5905511811023622,
                    "duration": 0.11936033333333285
                },
                {
                    "name": "D2",
                    "midi": 38,
                    "time": 224.1587060000025,
                    "velocity": 0.6614173228346457,
                    "duration": 0.11936033333333285
                },
                {
                    "name": "A#1",
                    "midi": 34,
                    "time": 224.27806633333583,
                    "velocity": 0.5984251968503937,
                    "duration": 0.11936033333333285
                },
                {
                    "name": "F1",
                    "midi": 29,
                    "time": 224.39742666666916,
                    "velocity": 0.5984251968503937,
                    "duration": 0.11936033333333285
                },
                {
                    "name": "D1",
                    "midi": 26,
                    "time": 224.5167870000025,
                    "velocity": 0.6929133858267716,
                    "duration": 0.08952024999999253
                },
                {
                    "name": "C4",
                    "midi": 60,
                    "time": 224.8748680000025,
                    "velocity": 0.6535433070866141,
                    "duration": 0.17904050000001348
                },
                {
                    "name": "E3",
                    "midi": 52,
                    "time": 224.8748680000025,
                    "velocity": 0.5511811023622047,
                    "duration": 0.17904050000001348
                },
                {
                    "name": "A3",
                    "midi": 57,
                    "time": 224.8748680000025,
                    "velocity": 0.5511811023622047,
                    "duration": 0.17904050000001348
                },
                {
                    "name": "E3",
                    "midi": 52,
                    "time": 225.2329490000025,
                    "velocity": 0.49606299212598426,
                    "duration": 0.17904050000001348
                },
                {
                    "name": "B3",
                    "midi": 59,
                    "time": 225.2329490000025,
                    "velocity": 0.5905511811023622,
                    "duration": 0.17904050000001348
                },
                {
                    "name": "G#3",
                    "midi": 56,
                    "time": 225.2329490000025,
                    "velocity": 0.49606299212598426,
                    "duration": 0.17904050000001348
                },
                {
                    "name": "C4",
                    "midi": 60,
                    "time": 225.5910300000025,
                    "velocity": 0.4881889763779528,
                    "duration": 0.11936033333333285
                },
                {
                    "name": "B3",
                    "midi": 59,
                    "time": 225.71039033333582,
                    "velocity": 0.4409448818897638,
                    "duration": 0.11936033333333285
                },
                {
                    "name": "A3",
                    "midi": 57,
                    "time": 225.82975066666916,
                    "velocity": 0.4409448818897638,
                    "duration": 0.11936033333333285
                },
                {
                    "name": "G#3",
                    "midi": 56,
                    "time": 225.9491110000025,
                    "velocity": 0.48031496062992124,
                    "duration": 0.11936033333333285
                },
                {
                    "name": "F#3",
                    "midi": 54,
                    "time": 226.06847133333582,
                    "velocity": 0.4330708661417323,
                    "duration": 0.11936033333333285
                },
                {
                    "name": "E3",
                    "midi": 52,
                    "time": 226.18783166666915,
                    "velocity": 0.4251968503937008,
                    "duration": 0.11936033333333285
                },
                {
                    "name": "D4",
                    "midi": 62,
                    "time": 226.3071920000025,
                    "velocity": 0.5275590551181102,
                    "duration": 0.35808099999999854
                },
                {
                    "name": "C4",
                    "midi": 60,
                    "time": 226.6652730000025,
                    "velocity": 0.48031496062992124,
                    "duration": 0.11936033333333285
                },
                {
                    "name": "B3",
                    "midi": 59,
                    "time": 226.78463333333582,
                    "velocity": 0.4330708661417323,
                    "duration": 0.11936033333333285
                },
                {
                    "name": "A3",
                    "midi": 57,
                    "time": 226.90399366666915,
                    "velocity": 0.4330708661417323,
                    "duration": 0.11936033333333285
                },
                {
                    "name": "G#3",
                    "midi": 56,
                    "time": 227.02335400000248,
                    "velocity": 0.47244094488188976,
                    "duration": 0.11936033333333285
                },
                {
                    "name": "F#3",
                    "midi": 54,
                    "time": 227.14271433333582,
                    "velocity": 0.4251968503937008,
                    "duration": 0.11936033333333285
                },
                {
                    "name": "E3",
                    "midi": 52,
                    "time": 227.26207466666915,
                    "velocity": 0.4251968503937008,
                    "duration": 0.11936033333333285
                },
                {
                    "name": "D4",
                    "midi": 62,
                    "time": 227.38143500000248,
                    "velocity": 0.5354330708661418,
                    "duration": 0.35808099999999854
                },
                {
                    "name": "C4",
                    "midi": 60,
                    "time": 227.73951600000248,
                    "velocity": 0.48031496062992124,
                    "duration": 0.11936033333333285
                },
                {
                    "name": "B3",
                    "midi": 59,
                    "time": 227.85887633333581,
                    "velocity": 0.4330708661417323,
                    "duration": 0.11936033333333285
                },
                {
                    "name": "A3",
                    "midi": 57,
                    "time": 227.97823666666915,
                    "velocity": 0.4330708661417323,
                    "duration": 0.11936033333333285
                },
                {
                    "name": "G#3",
                    "midi": 56,
                    "time": 228.09759700000248,
                    "velocity": 0.47244094488188976,
                    "duration": 0.11936033333333285
                },
                {
                    "name": "F#3",
                    "midi": 54,
                    "time": 228.2169573333358,
                    "velocity": 0.4251968503937008,
                    "duration": 0.11936033333333285
                },
                {
                    "name": "E3",
                    "midi": 52,
                    "time": 228.33631766666915,
                    "velocity": 0.4251968503937008,
                    "duration": 0.11936033333333285
                },
                {
                    "name": "D4",
                    "midi": 62,
                    "time": 228.45567800000248,
                    "velocity": 0.5354330708661418,
                    "duration": 0.35808099999999854
                },
                {
                    "name": "C4",
                    "midi": 60,
                    "time": 228.81375900000248,
                    "velocity": 0.5039370078740157,
                    "duration": 0.11936033333333285
                },
                {
                    "name": "B3",
                    "midi": 59,
                    "time": 228.9331193333358,
                    "velocity": 0.44881889763779526,
                    "duration": 0.11936033333333285
                },
                {
                    "name": "A3",
                    "midi": 57,
                    "time": 229.05247966666914,
                    "velocity": 0.44881889763779526,
                    "duration": 0.11936033333333285
                },
                {
                    "name": "G#3",
                    "midi": 56,
                    "time": 229.17184000000248,
                    "velocity": 0.5275590551181102,
                    "duration": 0.11936033333330442
                },
                {
                    "name": "A3",
                    "midi": 57,
                    "time": 229.29120033333578,
                    "velocity": 0.4409448818897638,
                    "duration": 0.11936033333333285
                },
                {
                    "name": "B3",
                    "midi": 59,
                    "time": 229.4105606666691,
                    "velocity": 0.4409448818897638,
                    "duration": 0.11936033333333285
                },
                {
                    "name": "A3",
                    "midi": 57,
                    "time": 229.52992100000245,
                    "velocity": 0.5669291338582677,
                    "duration": 0.11936033333333285
                },
                {
                    "name": "B3",
                    "midi": 59,
                    "time": 229.64928133333578,
                    "velocity": 0.5039370078740157,
                    "duration": 0.11936033333333285
                },
                {
                    "name": "C4",
                    "midi": 60,
                    "time": 229.7686416666691,
                    "velocity": 0.5039370078740157,
                    "duration": 0.11936033333333285
                },
                {
                    "name": "D4",
                    "midi": 62,
                    "time": 229.88800200000244,
                    "velocity": 0.7165354330708661,
                    "duration": 0.11936033333336127
                },
                {
                    "name": "A#3",
                    "midi": 58,
                    "time": 230.0073623333358,
                    "velocity": 0.6220472440944882,
                    "duration": 0.11936033333333285
                },
                {
                    "name": "F3",
                    "midi": 53,
                    "time": 230.12672266666914,
                    "velocity": 0.6220472440944882,
                    "duration": 0.11936033333333285
                },
                {
                    "name": "D3",
                    "midi": 50,
                    "time": 230.24608300000247,
                    "velocity": 0.6771653543307087,
                    "duration": 0.11936033333333285
                },
                {
                    "name": "A#2",
                    "midi": 46,
                    "time": 230.3654433333358,
                    "velocity": 0.6062992125984252,
                    "duration": 0.11936033333333285
                },
                {
                    "name": "F2",
                    "midi": 41,
                    "time": 230.48480366666914,
                    "velocity": 0.6062992125984252,
                    "duration": 0.11936033333333285
                },
                {
                    "name": "D2",
                    "midi": 38,
                    "time": 230.60416400000247,
                    "velocity": 0.6771653543307087,
                    "duration": 0.11936033333333285
                },
                {
                    "name": "A#1",
                    "midi": 34,
                    "time": 230.7235243333358,
                    "velocity": 0.6141732283464567,
                    "duration": 0.11936033333333285
                },
                {
                    "name": "F1",
                    "midi": 29,
                    "time": 230.84288466666914,
                    "velocity": 0.6062992125984252,
                    "duration": 0.11936033333333285
                },
                {
                    "name": "D1",
                    "midi": 26,
                    "time": 230.96224500000247,
                    "velocity": 0.7322834645669292,
                    "duration": 0.08952024999999253
                },
                {
                    "name": "A3",
                    "midi": 57,
                    "time": 231.32032600000247,
                    "velocity": 0.5511811023622047,
                    "duration": 0.17904050000001348
                },
                {
                    "name": "E3",
                    "midi": 52,
                    "time": 231.32032600000247,
                    "velocity": 0.5511811023622047,
                    "duration": 0.17904050000001348
                },
                {
                    "name": "C4",
                    "midi": 60,
                    "time": 231.32032600000247,
                    "velocity": 0.6535433070866141,
                    "duration": 0.17904050000001348
                },
                {
                    "name": "G#3",
                    "midi": 56,
                    "time": 231.6784070000025,
                    "velocity": 0.49606299212598426,
                    "duration": 0.17904049999998506
                },
                {
                    "name": "E3",
                    "midi": 52,
                    "time": 231.6784070000025,
                    "velocity": 0.49606299212598426,
                    "duration": 0.17904049999998506
                },
                {
                    "name": "B3",
                    "midi": 59,
                    "time": 231.6784070000025,
                    "velocity": 0.5905511811023622,
                    "duration": 0.17904049999998506
                },
                {
                    "name": "D4",
                    "midi": 62,
                    "time": 232.0364880000025,
                    "velocity": 0.7165354330708661,
                    "duration": 0.11936033333336127
                },
                {
                    "name": "A#3",
                    "midi": 58,
                    "time": 232.15584833333585,
                    "velocity": 0.6220472440944882,
                    "duration": 0.11936033333333285
                },
                {
                    "name": "F3",
                    "midi": 53,
                    "time": 232.2752086666692,
                    "velocity": 0.6220472440944882,
                    "duration": 0.11936033333333285
                },
                {
                    "name": "D3",
                    "midi": 50,
                    "time": 232.39456900000252,
                    "velocity": 0.6771653543307087,
                    "duration": 0.11936033333333285
                },
                {
                    "name": "A#2",
                    "midi": 46,
                    "time": 232.51392933333585,
                    "velocity": 0.5984251968503937,
                    "duration": 0.11936033333333285
                },
                {
                    "name": "F2",
                    "midi": 41,
                    "time": 232.63328966666919,
                    "velocity": 0.5984251968503937,
                    "duration": 0.11936033333333285
                },
                {
                    "name": "D2",
                    "midi": 38,
                    "time": 232.75265000000252,
                    "velocity": 0.6771653543307087,
                    "duration": 0.11936033333333285
                },
                {
                    "name": "A#1",
                    "midi": 34,
                    "time": 232.87201033333585,
                    "velocity": 0.5984251968503937,
                    "duration": 0.11936033333333285
                },
                {
                    "name": "F1",
                    "midi": 29,
                    "time": 232.99137066666918,
                    "velocity": 0.5984251968503937,
                    "duration": 0.11936033333333285
                },
                {
                    "name": "D1",
                    "midi": 26,
                    "time": 233.11073100000252,
                    "velocity": 0.7086614173228346,
                    "duration": 0.08952024999999253
                },
                {
                    "name": "A#3",
                    "midi": 58,
                    "time": 233.46881200000252,
                    "velocity": 0.5511811023622047,
                    "duration": 0.17904050000001348
                },
                {
                    "name": "F3",
                    "midi": 53,
                    "time": 233.46881200000252,
                    "velocity": 0.5511811023622047,
                    "duration": 0.17904050000001348
                },
                {
                    "name": "D4",
                    "midi": 62,
                    "time": 233.46881200000252,
                    "velocity": 0.6535433070866141,
                    "duration": 0.17904050000001348
                },
                {
                    "name": "C4",
                    "midi": 60,
                    "time": 233.82689300000254,
                    "velocity": 0.5905511811023622,
                    "duration": 0.17904049999998506
                },
                {
                    "name": "A3",
                    "midi": 57,
                    "time": 233.82689300000254,
                    "velocity": 0.49606299212598426,
                    "duration": 0.17904049999998506
                },
                {
                    "name": "F3",
                    "midi": 53,
                    "time": 233.82689300000254,
                    "velocity": 0.49606299212598426,
                    "duration": 0.17904049999998506
                },
                {
                    "name": "G1",
                    "midi": 31,
                    "time": 234.18497400000254,
                    "velocity": 0.6220472440944882,
                    "duration": 0.17904049999998506
                },
                {
                    "name": "G2",
                    "midi": 43,
                    "time": 234.18497400000254,
                    "velocity": 0.7322834645669292,
                    "duration": 0.17904049999998506
                },
                {
                    "name": "C4",
                    "midi": 60,
                    "time": 234.54305500000254,
                    "velocity": 0.5511811023622047,
                    "duration": 0.17904050000001348
                },
                {
                    "name": "G3",
                    "midi": 55,
                    "time": 234.54305500000254,
                    "velocity": 0.5511811023622047,
                    "duration": 0.17904050000001348
                },
                {
                    "name": "D#4",
                    "midi": 63,
                    "time": 234.54305500000254,
                    "velocity": 0.6535433070866141,
                    "duration": 0.17904050000001348
                },
                {
                    "name": "G3",
                    "midi": 55,
                    "time": 234.90113600000257,
                    "velocity": 0.49606299212598426,
                    "duration": 0.17904049999998506
                },
                {
                    "name": "B3",
                    "midi": 59,
                    "time": 234.90113600000257,
                    "velocity": 0.49606299212598426,
                    "duration": 0.17904049999998506
                },
                {
                    "name": "D4",
                    "midi": 62,
                    "time": 234.90113600000257,
                    "velocity": 0.5905511811023622,
                    "duration": 0.17904049999998506
                },
                {
                    "name": "A2",
                    "midi": 45,
                    "time": 235.25921700000256,
                    "velocity": 0.7322834645669292,
                    "duration": 0.17904049999998506
                },
                {
                    "name": "A1",
                    "midi": 33,
                    "time": 235.25921700000256,
                    "velocity": 0.6220472440944882,
                    "duration": 0.17904049999998506
                },
                {
                    "name": "D4",
                    "midi": 62,
                    "time": 235.61729800000256,
                    "velocity": 0.5511811023622047,
                    "duration": 0.17904050000001348
                },
                {
                    "name": "A3",
                    "midi": 57,
                    "time": 235.61729800000256,
                    "velocity": 0.5511811023622047,
                    "duration": 0.17904050000001348
                },
                {
                    "name": "F4",
                    "midi": 65,
                    "time": 235.61729800000256,
                    "velocity": 0.6535433070866141,
                    "duration": 0.17904050000001348
                },
                {
                    "name": "A3",
                    "midi": 57,
                    "time": 235.9753790000026,
                    "velocity": 0.49606299212598426,
                    "duration": 0.17904049999998506
                },
                {
                    "name": "C#4",
                    "midi": 61,
                    "time": 235.9753790000026,
                    "velocity": 0.49606299212598426,
                    "duration": 0.17904049999998506
                },
                {
                    "name": "E4",
                    "midi": 64,
                    "time": 235.9753790000026,
                    "velocity": 0.5905511811023622,
                    "duration": 0.17904049999998506
                },
                {
                    "name": "G3",
                    "midi": 55,
                    "time": 236.3334600000026,
                    "velocity": 0.33070866141732286,
                    "duration": 0.08952024999999253
                },
                {
                    "name": "A#3",
                    "midi": 58,
                    "time": 236.3334600000026,
                    "velocity": 0.3937007874015748,
                    "duration": 0.08952024999999253
                },
                {
                    "name": "A#3",
                    "midi": 58,
                    "time": 236.51250050000257,
                    "velocity": 0.3858267716535433,
                    "duration": 0.08952024999999253
                },
                {
                    "name": "G3",
                    "midi": 55,
                    "time": 236.51250050000257,
                    "velocity": 0.3228346456692913,
                    "duration": 0.08952024999999253
                },
                {
                    "name": "G3",
                    "midi": 55,
                    "time": 236.69154100000256,
                    "velocity": 0.3464566929133858,
                    "duration": 0.08952024999999253
                },
                {
                    "name": "A#3",
                    "midi": 58,
                    "time": 236.69154100000256,
                    "velocity": 0.4094488188976378,
                    "duration": 0.08952024999999253
                },
                {
                    "name": "E3",
                    "midi": 52,
                    "time": 236.69154100000256,
                    "velocity": 0.3464566929133858,
                    "duration": 0.08952024999999253
                },
                {
                    "name": "E3",
                    "midi": 52,
                    "time": 236.87058150000254,
                    "velocity": 0.3543307086614173,
                    "duration": 0.08952024999999253
                },
                {
                    "name": "A#3",
                    "midi": 58,
                    "time": 236.87058150000254,
                    "velocity": 0.4251968503937008,
                    "duration": 0.08952024999999253
                },
                {
                    "name": "G3",
                    "midi": 55,
                    "time": 236.87058150000254,
                    "velocity": 0.3543307086614173,
                    "duration": 0.08952024999999253
                },
                {
                    "name": "C#3",
                    "midi": 49,
                    "time": 237.04962200000253,
                    "velocity": 0.3700787401574803,
                    "duration": 0.08952024999999253
                },
                {
                    "name": "G3",
                    "midi": 55,
                    "time": 237.04962200000253,
                    "velocity": 0.3700787401574803,
                    "duration": 0.08952024999999253
                },
                {
                    "name": "E3",
                    "midi": 52,
                    "time": 237.04962200000253,
                    "velocity": 0.3700787401574803,
                    "duration": 0.08952024999999253
                },
                {
                    "name": "A#3",
                    "midi": 58,
                    "time": 237.04962200000253,
                    "velocity": 0.4409448818897638,
                    "duration": 0.08952024999999253
                },
                {
                    "name": "C#3",
                    "midi": 49,
                    "time": 237.2286625000025,
                    "velocity": 0.3858267716535433,
                    "duration": 0.08952024999999253
                },
                {
                    "name": "G3",
                    "midi": 55,
                    "time": 237.2286625000025,
                    "velocity": 0.3858267716535433,
                    "duration": 0.08952024999999253
                },
                {
                    "name": "E3",
                    "midi": 52,
                    "time": 237.2286625000025,
                    "velocity": 0.3858267716535433,
                    "duration": 0.08952024999999253
                },
                {
                    "name": "A#3",
                    "midi": 58,
                    "time": 237.2286625000025,
                    "velocity": 0.4566929133858268,
                    "duration": 0.08952024999999253
                },
                {
                    "name": "A#2",
                    "midi": 46,
                    "time": 237.4077030000025,
                    "velocity": 0.4015748031496063,
                    "duration": 0.08952024999999253
                },
                {
                    "name": "E3",
                    "midi": 52,
                    "time": 237.4077030000025,
                    "velocity": 0.4015748031496063,
                    "duration": 0.08952024999999253
                },
                {
                    "name": "C#3",
                    "midi": 49,
                    "time": 237.4077030000025,
                    "velocity": 0.4015748031496063,
                    "duration": 0.08952024999999253
                },
                {
                    "name": "G3",
                    "midi": 55,
                    "time": 237.4077030000025,
                    "velocity": 0.47244094488188976,
                    "duration": 0.08952024999999253
                },
                {
                    "name": "A#2",
                    "midi": 46,
                    "time": 237.58674350000248,
                    "velocity": 0.4094488188976378,
                    "duration": 0.08952024999999253
                },
                {
                    "name": "E3",
                    "midi": 52,
                    "time": 237.58674350000248,
                    "velocity": 0.4094488188976378,
                    "duration": 0.08952024999999253
                },
                {
                    "name": "C#3",
                    "midi": 49,
                    "time": 237.58674350000248,
                    "velocity": 0.4094488188976378,
                    "duration": 0.08952024999999253
                },
                {
                    "name": "G3",
                    "midi": 55,
                    "time": 237.58674350000248,
                    "velocity": 0.4881889763779528,
                    "duration": 0.08952024999999253
                },
                {
                    "name": "A#2",
                    "midi": 46,
                    "time": 237.76578400000247,
                    "velocity": 0.4251968503937008,
                    "duration": 0.08952024999999253
                },
                {
                    "name": "C#3",
                    "midi": 49,
                    "time": 237.76578400000247,
                    "velocity": 0.4251968503937008,
                    "duration": 0.08952024999999253
                },
                {
                    "name": "E3",
                    "midi": 52,
                    "time": 237.76578400000247,
                    "velocity": 0.5039370078740157,
                    "duration": 0.08952024999999253
                },
                {
                    "name": "G2",
                    "midi": 43,
                    "time": 237.76578400000247,
                    "velocity": 0.4251968503937008,
                    "duration": 0.08952024999999253
                },
                {
                    "name": "G2",
                    "midi": 43,
                    "time": 237.94482450000245,
                    "velocity": 0.4409448818897638,
                    "duration": 0.08952024999999253
                },
                {
                    "name": "C#3",
                    "midi": 49,
                    "time": 237.94482450000245,
                    "velocity": 0.4409448818897638,
                    "duration": 0.08952024999999253
                },
                {
                    "name": "A#2",
                    "midi": 46,
                    "time": 237.94482450000245,
                    "velocity": 0.4409448818897638,
                    "duration": 0.08952024999999253
                },
                {
                    "name": "E3",
                    "midi": 52,
                    "time": 237.94482450000245,
                    "velocity": 0.5196850393700787,
                    "duration": 0.08952024999999253
                },
                {
                    "name": "E2",
                    "midi": 40,
                    "time": 238.12386500000244,
                    "velocity": 0.4566929133858268,
                    "duration": 0.08952024999999253
                },
                {
                    "name": "A#2",
                    "midi": 46,
                    "time": 238.12386500000244,
                    "velocity": 0.4566929133858268,
                    "duration": 0.08952024999999253
                },
                {
                    "name": "G2",
                    "midi": 43,
                    "time": 238.12386500000244,
                    "velocity": 0.4566929133858268,
                    "duration": 0.08952024999999253
                },
                {
                    "name": "C#3",
                    "midi": 49,
                    "time": 238.12386500000244,
                    "velocity": 0.5433070866141733,
                    "duration": 0.08952024999999253
                },
                {
                    "name": "E2",
                    "midi": 40,
                    "time": 238.30290550000242,
                    "velocity": 0.4881889763779528,
                    "duration": 0.08952024999999253
                },
                {
                    "name": "A#2",
                    "midi": 46,
                    "time": 238.30290550000242,
                    "velocity": 0.4881889763779528,
                    "duration": 0.08952024999999253
                },
                {
                    "name": "G2",
                    "midi": 43,
                    "time": 238.30290550000242,
                    "velocity": 0.4881889763779528,
                    "duration": 0.08952024999999253
                },
                {
                    "name": "C#3",
                    "midi": 49,
                    "time": 238.30290550000242,
                    "velocity": 0.5826771653543307,
                    "duration": 0.08952024999999253
                },
                {
                    "name": "A2",
                    "midi": 45,
                    "time": 238.4819460000024,
                    "velocity": 0.5748031496062992,
                    "duration": 0.17904050000001348
                },
                {
                    "name": "F2",
                    "midi": 41,
                    "time": 238.4819460000024,
                    "velocity": 0.5748031496062992,
                    "duration": 0.17904050000001348
                },
                {
                    "name": "D3",
                    "midi": 50,
                    "time": 238.4819460000024,
                    "velocity": 0.6850393700787402,
                    "duration": 0.17904050000001348
                },
                {
                    "name": "F2",
                    "midi": 41,
                    "time": 239.55618900000243,
                    "velocity": 0.5748031496062992,
                    "duration": 0.17904050000001348
                },
                {
                    "name": "D2",
                    "midi": 38,
                    "time": 239.55618900000243,
                    "velocity": 0.5748031496062992,
                    "duration": 0.17904050000001348
                },
                {
                    "name": "D3",
                    "midi": 50,
                    "time": 239.55618900000243,
                    "velocity": 0.6850393700787402,
                    "duration": 0.17904050000001348
                },
                {
                    "name": "A2",
                    "midi": 45,
                    "time": 239.55618900000243,
                    "velocity": 0.5748031496062992,
                    "duration": 0.17904050000001348
                },
                {
                    "name": "E3",
                    "midi": 52,
                    "time": 240.63043200000246,
                    "velocity": 0.33070866141732286,
                    "duration": 0.17904050000001348
                },
                {
                    "name": "C4",
                    "midi": 60,
                    "time": 240.63043200000246,
                    "velocity": 0.3937007874015748,
                    "duration": 0.17904050000001348
                },
                {
                    "name": "B3",
                    "midi": 59,
                    "time": 241.70467500000248,
                    "velocity": 0.3937007874015748,
                    "duration": 0.17904049999998506
                },
                {
                    "name": "E3",
                    "midi": 52,
                    "time": 241.70467500000248,
                    "velocity": 0.33070866141732286,
                    "duration": 0.17904049999998506
                },
                {
                    "name": "A2",
                    "midi": 45,
                    "time": 242.77891800000248,
                    "velocity": 0.28346456692913385,
                    "duration": 0.17904049999998506
                },
                {
                    "name": "E3",
                    "midi": 52,
                    "time": 242.95795850000246,
                    "velocity": 0.1732283464566929,
                    "duration": 0.17904050000001348
                },
                {
                    "name": "A3",
                    "midi": 57,
                    "time": 243.13699900000248,
                    "velocity": 0.2125984251968504,
                    "duration": 0.17904050000001348
                },
                {
                    "name": "E3",
                    "midi": 52,
                    "time": 243.3160395000025,
                    "velocity": 0.1732283464566929,
                    "duration": 0.17904050000001348
                },
                {
                    "name": "C#4",
                    "midi": 61,
                    "time": 243.4950800000025,
                    "velocity": 0.28346456692913385,
                    "duration": 0.17904050000001348
                },
                {
                    "name": "G#2",
                    "midi": 44,
                    "time": 243.85316100000253,
                    "velocity": 0.28346456692913385,
                    "duration": 0.17904050000001348
                },
                {
                    "name": "E3",
                    "midi": 52,
                    "time": 244.03220150000254,
                    "velocity": 0.2047244094488189,
                    "duration": 0.17904050000001348
                },
                {
                    "name": "B3",
                    "midi": 59,
                    "time": 244.21124200000256,
                    "velocity": 0.2440944881889764,
                    "duration": 0.17904050000001348
                },
                {
                    "name": "E3",
                    "midi": 52,
                    "time": 244.39028250000257,
                    "velocity": 0.2047244094488189,
                    "duration": 0.17904050000001348
                },
                {
                    "name": "D4",
                    "midi": 62,
                    "time": 244.56932300000258,
                    "velocity": 0.2755905511811024,
                    "duration": 0.17904050000001348
                },
                {
                    "name": "A2",
                    "midi": 45,
                    "time": 244.9274040000026,
                    "velocity": 0.25984251968503935,
                    "duration": 0.17904049999998506
                },
                {
                    "name": "E3",
                    "midi": 52,
                    "time": 245.1064445000026,
                    "velocity": 0.18110236220472442,
                    "duration": 0.17904050000001348
                },
                {
                    "name": "C#4",
                    "midi": 61,
                    "time": 245.2854850000026,
                    "velocity": 0.2047244094488189,
                    "duration": 0.17904050000001348
                },
                {
                    "name": "E3",
                    "midi": 52,
                    "time": 245.46452550000262,
                    "velocity": 0.1732283464566929,
                    "duration": 0.17904050000001348
                },
                {
                    "name": "A3",
                    "midi": 57,
                    "time": 245.64356600000264,
                    "velocity": 0.28346456692913385,
                    "duration": 0.17904050000001348
                },
                {
                    "name": "G#2",
                    "midi": 44,
                    "time": 246.00164700000266,
                    "velocity": 0.28346456692913385,
                    "duration": 0.17904049999998506
                },
                {
                    "name": "E3",
                    "midi": 52,
                    "time": 246.18068750000265,
                    "velocity": 0.2125984251968504,
                    "duration": 0.17904050000001348
                },
                {
                    "name": "G#3",
                    "midi": 56,
                    "time": 246.35972800000266,
                    "velocity": 0.2440944881889764,
                    "duration": 0.17904050000001348
                },
                {
                    "name": "E3",
                    "midi": 52,
                    "time": 246.53876850000267,
                    "velocity": 0.2047244094488189,
                    "duration": 0.17904050000001348
                },
                {
                    "name": "B3",
                    "midi": 59,
                    "time": 246.7178090000027,
                    "velocity": 0.2755905511811024,
                    "duration": 0.17904050000001348
                },
                {
                    "name": "A2",
                    "midi": 45,
                    "time": 247.07589000000272,
                    "velocity": 0.2677165354330709,
                    "duration": 0.17904049999998506
                },
                {
                    "name": "E3",
                    "midi": 52,
                    "time": 247.2549305000027,
                    "velocity": 0.2125984251968504,
                    "duration": 0.17904050000001348
                },
                {
                    "name": "A3",
                    "midi": 57,
                    "time": 247.4339710000027,
                    "velocity": 0.2283464566929134,
                    "duration": 0.17904050000001348
                },
                {
                    "name": "E3",
                    "midi": 52,
                    "time": 247.61301150000273,
                    "velocity": 0.2047244094488189,
                    "duration": 0.17904050000001348
                },
                {
                    "name": "C#4",
                    "midi": 61,
                    "time": 247.79205200000274,
                    "velocity": 0.28346456692913385,
                    "duration": 0.17904050000001348
                },
                {
                    "name": "G#2",
                    "midi": 44,
                    "time": 248.15013300000277,
                    "velocity": 0.28346456692913385,
                    "duration": 0.17904050000001348
                },
                {
                    "name": "E3",
                    "midi": 52,
                    "time": 248.32917350000278,
                    "velocity": 0.2125984251968504,
                    "duration": 0.17904050000001348
                },
                {
                    "name": "B3",
                    "midi": 59,
                    "time": 248.5082140000028,
                    "velocity": 0.2440944881889764,
                    "duration": 0.17904050000001348
                },
                {
                    "name": "E3",
                    "midi": 52,
                    "time": 248.6872545000028,
                    "velocity": 0.2125984251968504,
                    "duration": 0.17904050000001348
                },
                {
                    "name": "D4",
                    "midi": 62,
                    "time": 248.86629500000282,
                    "velocity": 0.2755905511811024,
                    "duration": 0.17904050000001348
                },
                {
                    "name": "A2",
                    "midi": 45,
                    "time": 249.22437600000285,
                    "velocity": 0.25984251968503935,
                    "duration": 0.17904050000001348
                },
                {
                    "name": "E3",
                    "midi": 52,
                    "time": 249.40341650000286,
                    "velocity": 0.18110236220472442,
                    "duration": 0.17904050000001348
                },
                {
                    "name": "C#4",
                    "midi": 61,
                    "time": 249.58245700000288,
                    "velocity": 0.2125984251968504,
                    "duration": 0.17904050000001348
                },
                {
                    "name": "E3",
                    "midi": 52,
                    "time": 249.7614975000029,
                    "velocity": 0.1732283464566929,
                    "duration": 0.17904050000001348
                },
                {
                    "name": "A3",
                    "midi": 57,
                    "time": 249.9405380000029,
                    "velocity": 0.28346456692913385,
                    "duration": 0.17904050000001348
                },
                {
                    "name": "G#2",
                    "midi": 44,
                    "time": 250.29861900000293,
                    "velocity": 0.2992125984251969,
                    "duration": 0.17904049999998506
                },
                {
                    "name": "E3",
                    "midi": 52,
                    "time": 250.47765950000291,
                    "velocity": 0.2204724409448819,
                    "duration": 0.17904050000001348
                },
                {
                    "name": "G#3",
                    "midi": 56,
                    "time": 250.65670000000293,
                    "velocity": 0.2755905511811024,
                    "duration": 0.17904050000001348
                },
                {
                    "name": "E3",
                    "midi": 52,
                    "time": 250.83574050000294,
                    "velocity": 0.2204724409448819,
                    "duration": 0.17904050000001348
                },
                {
                    "name": "B3",
                    "midi": 59,
                    "time": 251.01478100000296,
                    "velocity": 0.2755905511811024,
                    "duration": 0.17904050000001348
                },
                {
                    "name": "G#2",
                    "midi": 44,
                    "time": 251.37286200000298,
                    "velocity": 0.2992125984251969,
                    "duration": 0.17904050000001348
                },
                {
                    "name": "F3",
                    "midi": 53,
                    "time": 251.551902500003,
                    "velocity": 0.23622047244094488,
                    "duration": 0.17904050000001348
                },
                {
                    "name": "G#3",
                    "midi": 56,
                    "time": 251.730943000003,
                    "velocity": 0.28346456692913385,
                    "duration": 0.17904050000001348
                },
                {
                    "name": "F3",
                    "midi": 53,
                    "time": 251.90998350000302,
                    "velocity": 0.2440944881889764,
                    "duration": 0.17904050000001348
                },
                {
                    "name": "B3",
                    "midi": 59,
                    "time": 252.08902400000304,
                    "velocity": 0.30708661417322836,
                    "duration": 0.17904050000001348
                },
                {
                    "name": "A2",
                    "midi": 45,
                    "time": 252.44710500000306,
                    "velocity": 0.3700787401574803,
                    "duration": 0.17904050000001348
                },
                {
                    "name": "F#3",
                    "midi": 54,
                    "time": 252.62614550000308,
                    "velocity": 0.25984251968503935,
                    "duration": 0.17904050000001348
                },
                {
                    "name": "A3",
                    "midi": 57,
                    "time": 252.8051860000031,
                    "velocity": 0.28346456692913385,
                    "duration": 0.17904050000001348
                },
                {
                    "name": "F#3",
                    "midi": 54,
                    "time": 252.9842265000031,
                    "velocity": 0.25984251968503935,
                    "duration": 0.17904050000001348
                },
                {
                    "name": "D4",
                    "midi": 62,
                    "time": 253.16326700000312,
                    "velocity": 0.3228346456692913,
                    "duration": 0.17904050000001348
                },
                {
                    "name": "A2",
                    "midi": 45,
                    "time": 253.52134800000314,
                    "velocity": 0.3779527559055118,
                    "duration": 0.17904050000001348
                },
                {
                    "name": "A3",
                    "midi": 57,
                    "time": 253.70038850000316,
                    "velocity": 0.2755905511811024,
                    "duration": 0.17904050000001348
                },
                {
                    "name": "E4",
                    "midi": 64,
                    "time": 253.87942900000317,
                    "velocity": 0.31496062992125984,
                    "duration": 0.17904050000001348
                },
                {
                    "name": "A3",
                    "midi": 57,
                    "time": 254.05846950000318,
                    "velocity": 0.2755905511811024,
                    "duration": 0.17904050000001348
                },
                {
                    "name": "E4",
                    "midi": 64,
                    "time": 254.2375100000032,
                    "velocity": 0.3464566929133858,
                    "duration": 0.17904050000001348
                },
                {
                    "name": "D3",
                    "midi": 50,
                    "time": 254.59559100000322,
                    "velocity": 0.30708661417322836,
                    "duration": 0.17904050000001348
                },
                {
                    "name": "A3",
                    "midi": 57,
                    "time": 254.77463150000324,
                    "velocity": 0.1889763779527559,
                    "duration": 0.17904050000001348
                },
                {
                    "name": "D4",
                    "midi": 62,
                    "time": 254.95367200000325,
                    "velocity": 0.2047244094488189,
                    "duration": 0.17904050000001348
                },
                {
                    "name": "A3",
                    "midi": 57,
                    "time": 255.13271250000327,
                    "velocity": 0.1732283464566929,
                    "duration": 0.17904050000001348
                },
                {
                    "name": "F#4",
                    "midi": 66,
                    "time": 255.31175300000328,
                    "velocity": 0.2440944881889764,
                    "duration": 0.17904050000001348
                },
                {
                    "name": "F#2",
                    "midi": 42,
                    "time": 255.6698340000033,
                    "velocity": 0.2992125984251969,
                    "duration": 0.17904050000001348
                },
                {
                    "name": "F#3",
                    "midi": 54,
                    "time": 255.84887450000332,
                    "velocity": 0.23622047244094488,
                    "duration": 0.17904049999998506
                },
                {
                    "name": "C#4",
                    "midi": 61,
                    "time": 256.0279150000033,
                    "velocity": 0.25984251968503935,
                    "duration": 0.17904049999998506
                },
                {
                    "name": "F#3",
                    "midi": 54,
                    "time": 256.2069555000033,
                    "velocity": 0.2283464566929134,
                    "duration": 0.17904049999998506
                },
                {
                    "name": "A#3",
                    "midi": 58,
                    "time": 256.3859960000033,
                    "velocity": 0.2992125984251969,
                    "duration": 0.17904049999998506
                },
                {
                    "name": "B2",
                    "midi": 47,
                    "time": 256.74407700000324,
                    "velocity": 0.28346456692913385,
                    "duration": 0.17904049999998506
                },
                {
                    "name": "F#3",
                    "midi": 54,
                    "time": 256.92311750000323,
                    "velocity": 0.1968503937007874,
                    "duration": 0.17904049999998506
                },
                {
                    "name": "B3",
                    "midi": 59,
                    "time": 257.1021580000032,
                    "velocity": 0.2204724409448819,
                    "duration": 0.17904049999998506
                },
                {
                    "name": "F#3",
                    "midi": 54,
                    "time": 257.2811985000032,
                    "velocity": 0.2047244094488189,
                    "duration": 0.17904049999998506
                },
                {
                    "name": "D4",
                    "midi": 62,
                    "time": 257.4602390000032,
                    "velocity": 0.2440944881889764,
                    "duration": 0.17904049999998506
                },
                {
                    "name": "G#2",
                    "midi": 44,
                    "time": 257.81832000000315,
                    "velocity": 0.28346456692913385,
                    "duration": 0.1790405000000419
                },
                {
                    "name": "E3",
                    "midi": 52,
                    "time": 257.9973605000032,
                    "velocity": 0.2125984251968504,
                    "duration": 0.17904049999998506
                },
                {
                    "name": "D4",
                    "midi": 62,
                    "time": 258.1764010000032,
                    "velocity": 0.2283464566929134,
                    "duration": 0.17904049999998506
                },
                {
                    "name": "E3",
                    "midi": 52,
                    "time": 258.35544150000317,
                    "velocity": 0.2125984251968504,
                    "duration": 0.17904049999998506
                },
                {
                    "name": "B3",
                    "midi": 59,
                    "time": 258.53448200000315,
                    "velocity": 0.2755905511811024,
                    "duration": 0.17904049999998506
                },
                {
                    "name": "A2",
                    "midi": 45,
                    "time": 258.8925630000031,
                    "velocity": 0.25984251968503935,
                    "duration": 0.1790405000000419
                },
                {
                    "name": "E3",
                    "midi": 52,
                    "time": 259.07160350000316,
                    "velocity": 0.2204724409448819,
                    "duration": 0.17904049999998506
                },
                {
                    "name": "C#4",
                    "midi": 61,
                    "time": 259.25064400000315,
                    "velocity": 0.2283464566929134,
                    "duration": 0.17904049999998506
                },
                {
                    "name": "E3",
                    "midi": 52,
                    "time": 259.42968450000313,
                    "velocity": 0.2204724409448819,
                    "duration": 0.17904049999998506
                },
                {
                    "name": "A3",
                    "midi": 57,
                    "time": 259.6087250000031,
                    "velocity": 0.28346456692913385,
                    "duration": 0.17904049999998506
                },
                {
                    "name": "E2",
                    "midi": 40,
                    "time": 259.9668060000031,
                    "velocity": 0.25984251968503935,
                    "duration": 0.17904049999998506
                },
                {
                    "name": "E3",
                    "midi": 52,
                    "time": 260.1458465000031,
                    "velocity": 0.2283464566929134,
                    "duration": 0.17904049999998506
                },
                {
                    "name": "B3",
                    "midi": 59,
                    "time": 260.32488700000306,
                    "velocity": 0.2283464566929134,
                    "duration": 0.17904049999998506
                },
                {
                    "name": "E3",
                    "midi": 52,
                    "time": 260.50392750000304,
                    "velocity": 0.2283464566929134,
                    "duration": 0.17904049999998506
                },
                {
                    "name": "G#3",
                    "midi": 56,
                    "time": 260.68296800000303,
                    "velocity": 0.28346456692913385,
                    "duration": 0.17904049999998506
                },
                {
                    "name": "A2",
                    "midi": 45,
                    "time": 261.041049000003,
                    "velocity": 0.25984251968503935,
                    "duration": 0.17904049999992822
                },
                {
                    "name": "E3",
                    "midi": 52,
                    "time": 261.2200895000029,
                    "velocity": 0.2047244094488189,
                    "duration": 0.17904049999998506
                },
                {
                    "name": "C#4",
                    "midi": 61,
                    "time": 261.3991300000029,
                    "velocity": 0.2047244094488189,
                    "duration": 0.17904049999998506
                },
                {
                    "name": "E3",
                    "midi": 52,
                    "time": 261.5781705000029,
                    "velocity": 0.2047244094488189,
                    "duration": 0.17904049999998506
                },
                {
                    "name": "A3",
                    "midi": 57,
                    "time": 261.7572110000029,
                    "velocity": 0.23622047244094488,
                    "duration": 0.17904049999998506
                },
                {
                    "name": "A2",
                    "midi": 45,
                    "time": 262.11529200000285,
                    "velocity": 0.3464566929133858,
                    "duration": 0.17904049999998506
                },
                {
                    "name": "A3",
                    "midi": 57,
                    "time": 262.29433250000284,
                    "velocity": 0.28346456692913385,
                    "duration": 0.17904049999998506
                },
                {
                    "name": "E4",
                    "midi": 64,
                    "time": 262.4733730000028,
                    "velocity": 0.2992125984251969,
                    "duration": 0.17904049999998506
                },
                {
                    "name": "A3",
                    "midi": 57,
                    "time": 262.6524135000028,
                    "velocity": 0.28346456692913385,
                    "duration": 0.17904049999998506
                },
                {
                    "name": "E4",
                    "midi": 64,
                    "time": 262.8314540000028,
                    "velocity": 0.3464566929133858,
                    "duration": 0.17904049999998506
                },
                {
                    "name": "D3",
                    "midi": 50,
                    "time": 263.18953500000276,
                    "velocity": 0.30708661417322836,
                    "duration": 0.17904049999998506
                },
                {
                    "name": "A3",
                    "midi": 57,
                    "time": 263.36857550000275,
                    "velocity": 0.2047244094488189,
                    "duration": 0.17904049999998506
                },
                {
                    "name": "D4",
                    "midi": 62,
                    "time": 263.54761600000273,
                    "velocity": 0.2047244094488189,
                    "duration": 0.17904049999998506
                },
                {
                    "name": "A3",
                    "midi": 57,
                    "time": 263.7266565000027,
                    "velocity": 0.2047244094488189,
                    "duration": 0.17904049999998506
                },
                {
                    "name": "F#4",
                    "midi": 66,
                    "time": 263.9056970000027,
                    "velocity": 0.2440944881889764,
                    "duration": 0.17904049999998506
                },
                {
                    "name": "F#2",
                    "midi": 42,
                    "time": 264.2637780000027,
                    "velocity": 0.31496062992125984,
                    "duration": 0.1790405000000419
                },
                {
                    "name": "F#3",
                    "midi": 54,
                    "time": 264.4428185000027,
                    "velocity": 0.23622047244094488,
                    "duration": 0.17904049999998506
                },
                {
                    "name": "C#4",
                    "midi": 61,
                    "time": 264.6218590000027,
                    "velocity": 0.28346456692913385,
                    "duration": 0.17904049999998506
                },
                {
                    "name": "F#3",
                    "midi": 54,
                    "time": 264.8008995000027,
                    "velocity": 0.2283464566929134,
                    "duration": 0.17904049999998506
                },
                {
                    "name": "A#3",
                    "midi": 58,
                    "time": 264.97994000000267,
                    "velocity": 0.2992125984251969,
                    "duration": 0.17904049999998506
                },
                {
                    "name": "B2",
                    "midi": 47,
                    "time": 265.33802100000264,
                    "velocity": 0.28346456692913385,
                    "duration": 0.17904049999998506
                },
                {
                    "name": "F#3",
                    "midi": 54,
                    "time": 265.5170615000026,
                    "velocity": 0.2047244094488189,
                    "duration": 0.17904049999998506
                },
                {
                    "name": "B3",
                    "midi": 59,
                    "time": 265.6961020000026,
                    "velocity": 0.2047244094488189,
                    "duration": 0.17904049999998506
                },
                {
                    "name": "F#3",
                    "midi": 54,
                    "time": 265.8751425000026,
                    "velocity": 0.2047244094488189,
                    "duration": 0.17904049999998506
                },
                {
                    "name": "D4",
                    "midi": 62,
                    "time": 266.0541830000026,
                    "velocity": 0.2440944881889764,
                    "duration": 0.17904049999998506
                },
                {
                    "name": "G#2",
                    "midi": 44,
                    "time": 266.41226400000255,
                    "velocity": 0.28346456692913385,
                    "duration": 0.1790405000000419
                },
                {
                    "name": "E3",
                    "midi": 52,
                    "time": 266.5913045000026,
                    "velocity": 0.2125984251968504,
                    "duration": 0.17904049999998506
                },
                {
                    "name": "D4",
                    "midi": 62,
                    "time": 266.7703450000026,
                    "velocity": 0.2204724409448819,
                    "duration": 0.17904049999998506
                },
                {
                    "name": "E3",
                    "midi": 52,
                    "time": 266.94938550000256,
                    "velocity": 0.2204724409448819,
                    "duration": 0.17904049999998506
                },
                {
                    "name": "B3",
                    "midi": 59,
                    "time": 267.12842600000255,
                    "velocity": 0.2755905511811024,
                    "duration": 0.17904049999998506
                },
                {
                    "name": "A2",
                    "midi": 45,
                    "time": 267.4865070000025,
                    "velocity": 0.25984251968503935,
                    "duration": 0.1790405000000419
                },
                {
                    "name": "E3",
                    "midi": 52,
                    "time": 267.66554750000256,
                    "velocity": 0.2125984251968504,
                    "duration": 0.17904049999998506
                },
                {
                    "name": "C#4",
                    "midi": 61,
                    "time": 267.84458800000255,
                    "velocity": 0.2283464566929134,
                    "duration": 0.17904049999998506
                },
                {
                    "name": "E3",
                    "midi": 52,
                    "time": 268.02362850000253,
                    "velocity": 0.2047244094488189,
                    "duration": 0.17904049999998506
                },
                {
                    "name": "A3",
                    "midi": 57,
                    "time": 268.2026690000025,
                    "velocity": 0.28346456692913385,
                    "duration": 0.17904049999998506
                },
                {
                    "name": "E2",
                    "midi": 40,
                    "time": 268.5607500000025,
                    "velocity": 0.25984251968503935,
                    "duration": 0.17904049999998506
                },
                {
                    "name": "E3",
                    "midi": 52,
                    "time": 268.73979050000247,
                    "velocity": 0.2047244094488189,
                    "duration": 0.17904049999998506
                },
                {
                    "name": "B3",
                    "midi": 59,
                    "time": 268.91883100000246,
                    "velocity": 0.2283464566929134,
                    "duration": 0.17904049999998506
                },
                {
                    "name": "E3",
                    "midi": 52,
                    "time": 269.09787150000244,
                    "velocity": 0.2125984251968504,
                    "duration": 0.17904049999998506
                },
                {
                    "name": "G#3",
                    "midi": 56,
                    "time": 269.2769120000024,
                    "velocity": 0.28346456692913385,
                    "duration": 0.17904049999998506
                },
                {
                    "name": "A2",
                    "midi": 45,
                    "time": 269.6349930000024,
                    "velocity": 0.25984251968503935,
                    "duration": 0.17904049999998506
                },
                {
                    "name": "E3",
                    "midi": 52,
                    "time": 269.8140335000024,
                    "velocity": 0.18110236220472442,
                    "duration": 0.17904049999998506
                },
                {
                    "name": "A3",
                    "midi": 57,
                    "time": 269.99307400000237,
                    "velocity": 0.2047244094488189,
                    "duration": 0.17904049999998506
                },
                {
                    "name": "E3",
                    "midi": 52,
                    "time": 270.17211450000235,
                    "velocity": 0.18110236220472442,
                    "duration": 0.17904049999998506
                },
                {
                    "name": "C#4",
                    "midi": 61,
                    "time": 270.35115500000234,
                    "velocity": 0.18110236220472442,
                    "duration": 0.17904049999998506
                },
                {
                    "name": "A2",
                    "midi": 45,
                    "time": 270.7092360000023,
                    "velocity": 0.5669291338582677,
                    "duration": 1.074243000000024
                },
                {
                    "name": "C3",
                    "midi": 48,
                    "time": 270.7092360000023,
                    "velocity": 0.5669291338582677,
                    "duration": 1.074243000000024
                },
                {
                    "name": "E3",
                    "midi": 52,
                    "time": 270.7092360000023,
                    "velocity": 0.5669291338582677,
                    "duration": 1.074243000000024
                },
                {
                    "name": "A3",
                    "midi": 57,
                    "time": 270.7092360000023,
                    "velocity": 0.6692913385826772,
                    "duration": 1.074243000000024
                },
                {
                    "name": "E3",
                    "midi": 52,
                    "time": 271.78347900000233,
                    "velocity": 0.4881889763779528,
                    "duration": 0.0671401875000015
                },
                {
                    "name": "G#3",
                    "midi": 56,
                    "time": 271.78347900000233,
                    "velocity": 0.5826771653543307,
                    "duration": 0.0671401875000015
                },
                {
                    "name": "F3",
                    "midi": 53,
                    "time": 271.9625195000023,
                    "velocity": 0.4330708661417323,
                    "duration": 0.0671401875000015
                },
                {
                    "name": "A3",
                    "midi": 57,
                    "time": 271.9625195000023,
                    "velocity": 0.5118110236220472,
                    "duration": 0.0671401875000015
                },
                {
                    "name": "E3",
                    "midi": 52,
                    "time": 272.1415600000023,
                    "velocity": 0.47244094488188976,
                    "duration": 0.0671401875000015
                },
                {
                    "name": "G#3",
                    "midi": 56,
                    "time": 272.1415600000023,
                    "velocity": 0.5590551181102362,
                    "duration": 0.0671401875000015
                },
                {
                    "name": "F3",
                    "midi": 53,
                    "time": 272.3206005000023,
                    "velocity": 0.4330708661417323,
                    "duration": 0.0671401875000015
                },
                {
                    "name": "A3",
                    "midi": 57,
                    "time": 272.3206005000023,
                    "velocity": 0.5118110236220472,
                    "duration": 0.0671401875000015
                },
                {
                    "name": "E3",
                    "midi": 52,
                    "time": 272.49964100000227,
                    "velocity": 0.4881889763779528,
                    "duration": 0.0671401875000015
                },
                {
                    "name": "G#3",
                    "midi": 56,
                    "time": 272.49964100000227,
                    "velocity": 0.5826771653543307,
                    "duration": 0.0671401875000015
                },
                {
                    "name": "B2",
                    "midi": 47,
                    "time": 272.8577220000023,
                    "velocity": 0.5669291338582677,
                    "duration": 1.074243000000024
                },
                {
                    "name": "D3",
                    "midi": 50,
                    "time": 272.8577220000023,
                    "velocity": 0.5669291338582677,
                    "duration": 1.074243000000024
                },
                {
                    "name": "G3",
                    "midi": 55,
                    "time": 272.8577220000023,
                    "velocity": 0.6692913385826772,
                    "duration": 1.074243000000024
                },
                {
                    "name": "G2",
                    "midi": 43,
                    "time": 272.8577220000023,
                    "velocity": 0.5669291338582677,
                    "duration": 1.074243000000024
                },
                {
                    "name": "D3",
                    "midi": 50,
                    "time": 273.9319650000023,
                    "velocity": 0.49606299212598426,
                    "duration": 0.0671401875000015
                },
                {
                    "name": "F#3",
                    "midi": 54,
                    "time": 273.9319650000023,
                    "velocity": 0.5905511811023622,
                    "duration": 0.0671401875000015
                },
                {
                    "name": "E3",
                    "midi": 52,
                    "time": 274.1110055000023,
                    "velocity": 0.4330708661417323,
                    "duration": 0.0671401875000015
                },
                {
                    "name": "G3",
                    "midi": 55,
                    "time": 274.1110055000023,
                    "velocity": 0.5118110236220472,
                    "duration": 0.0671401875000015
                },
                {
                    "name": "D3",
                    "midi": 50,
                    "time": 274.2900460000023,
                    "velocity": 0.48031496062992124,
                    "duration": 0.0671401875000015
                },
                {
                    "name": "F#3",
                    "midi": 54,
                    "time": 274.2900460000023,
                    "velocity": 0.5669291338582677,
                    "duration": 0.0671401875000015
                },
                {
                    "name": "E3",
                    "midi": 52,
                    "time": 274.4690865000023,
                    "velocity": 0.4251968503937008,
                    "duration": 0.0671401875000015
                },
                {
                    "name": "G3",
                    "midi": 55,
                    "time": 274.4690865000023,
                    "velocity": 0.5039370078740157,
                    "duration": 0.0671401875000015
                },
                {
                    "name": "D3",
                    "midi": 50,
                    "time": 274.64812700000226,
                    "velocity": 0.4881889763779528,
                    "duration": 0.0671401875000015
                },
                {
                    "name": "F#3",
                    "midi": 54,
                    "time": 274.64812700000226,
                    "velocity": 0.5826771653543307,
                    "duration": 0.0671401875000015
                },
                {
                    "name": "F3",
                    "midi": 53,
                    "time": 275.0062080000023,
                    "velocity": 0.5354330708661418,
                    "duration": 0.7161619999999971
                },
                {
                    "name": "A2",
                    "midi": 45,
                    "time": 275.0062080000023,
                    "velocity": 0.44881889763779526,
                    "duration": 0.7161619999999971
                },
                {
                    "name": "F2",
                    "midi": 41,
                    "time": 275.0062080000023,
                    "velocity": 0.44881889763779526,
                    "duration": 0.7161619999999971
                },
                {
                    "name": "C3",
                    "midi": 48,
                    "time": 275.0062080000023,
                    "velocity": 0.44881889763779526,
                    "duration": 0.7161619999999971
                },
                {
                    "name": "C3",
                    "midi": 48,
                    "time": 275.7223700000023,
                    "velocity": 0.4330708661417323,
                    "duration": 0.1790405000000419
                },
                {
                    "name": "A3",
                    "midi": 57,
                    "time": 275.7223700000023,
                    "velocity": 0.5118110236220472,
                    "duration": 0.1790405000000419
                },
                {
                    "name": "A2",
                    "midi": 45,
                    "time": 275.7223700000023,
                    "velocity": 0.4330708661417323,
                    "duration": 0.1790405000000419
                },
                {
                    "name": "E3",
                    "midi": 52,
                    "time": 275.7223700000023,
                    "velocity": 0.4330708661417323,
                    "duration": 0.1790405000000419
                },
                {
                    "name": "D3",
                    "midi": 50,
                    "time": 276.0804510000023,
                    "velocity": 0.4566929133858268,
                    "duration": 0.17904049999998506
                },
                {
                    "name": "A#3",
                    "midi": 58,
                    "time": 276.0804510000023,
                    "velocity": 0.5433070866141733,
                    "duration": 0.17904049999998506
                },
                {
                    "name": "A#2",
                    "midi": 46,
                    "time": 276.0804510000023,
                    "velocity": 0.4566929133858268,
                    "duration": 0.17904049999998506
                },
                {
                    "name": "F3",
                    "midi": 53,
                    "time": 276.0804510000023,
                    "velocity": 0.4566929133858268,
                    "duration": 0.17904049999998506
                },
                {
                    "name": "D3",
                    "midi": 50,
                    "time": 276.4385320000023,
                    "velocity": 0.4409448818897638,
                    "duration": 0.17904049999998506
                },
                {
                    "name": "B3",
                    "midi": 59,
                    "time": 276.4385320000023,
                    "velocity": 0.5275590551181102,
                    "duration": 0.17904049999998506
                },
                {
                    "name": "G#3",
                    "midi": 56,
                    "time": 276.4385320000023,
                    "velocity": 0.4409448818897638,
                    "duration": 0.17904049999998506
                },
                {
                    "name": "B2",
                    "midi": 47,
                    "time": 276.4385320000023,
                    "velocity": 0.4409448818897638,
                    "duration": 0.17904049999998506
                },
                {
                    "name": "A3",
                    "midi": 57,
                    "time": 276.79661300000225,
                    "velocity": 0.4251968503937008,
                    "duration": 0.1790405000000419
                },
                {
                    "name": "E3",
                    "midi": 52,
                    "time": 276.79661300000225,
                    "velocity": 0.4251968503937008,
                    "duration": 0.1790405000000419
                },
                {
                    "name": "C3",
                    "midi": 48,
                    "time": 276.79661300000225,
                    "velocity": 0.4251968503937008,
                    "duration": 0.1790405000000419
                },
                {
                    "name": "C4",
                    "midi": 60,
                    "time": 276.79661300000225,
                    "velocity": 0.5039370078740157,
                    "duration": 0.1790405000000419
                },
                {
                    "name": "B3",
                    "midi": 59,
                    "time": 277.1546940000023,
                    "velocity": 0.4409448818897638,
                    "duration": 0.17904049999998506
                },
                {
                    "name": "D4",
                    "midi": 62,
                    "time": 277.1546940000023,
                    "velocity": 0.5275590551181102,
                    "duration": 0.17904049999998506
                },
                {
                    "name": "D3",
                    "midi": 50,
                    "time": 277.1546940000023,
                    "velocity": 0.4409448818897638,
                    "duration": 0.17904049999998506
                },
                {
                    "name": "F3",
                    "midi": 53,
                    "time": 277.1546940000023,
                    "velocity": 0.4409448818897638,
                    "duration": 0.17904049999998506
                },
                {
                    "name": "C4",
                    "midi": 60,
                    "time": 277.51277500000225,
                    "velocity": 0.4094488188976378,
                    "duration": 0.1790405000000419
                },
                {
                    "name": "A3",
                    "midi": 57,
                    "time": 277.51277500000225,
                    "velocity": 0.4094488188976378,
                    "duration": 0.1790405000000419
                },
                {
                    "name": "E3",
                    "midi": 52,
                    "time": 277.51277500000225,
                    "velocity": 0.4094488188976378,
                    "duration": 0.1790405000000419
                },
                {
                    "name": "E4",
                    "midi": 64,
                    "time": 277.51277500000225,
                    "velocity": 0.4881889763779528,
                    "duration": 0.1790405000000419
                },
                {
                    "name": "B3",
                    "midi": 59,
                    "time": 277.8708560000023,
                    "velocity": 0.4094488188976378,
                    "duration": 0.17904049999998506
                },
                {
                    "name": "E4",
                    "midi": 64,
                    "time": 277.8708560000023,
                    "velocity": 0.4881889763779528,
                    "duration": 0.17904049999998506
                },
                {
                    "name": "E3",
                    "midi": 52,
                    "time": 277.8708560000023,
                    "velocity": 0.4094488188976378,
                    "duration": 0.17904049999998506
                },
                {
                    "name": "G#3",
                    "midi": 56,
                    "time": 277.8708560000023,
                    "velocity": 0.4094488188976378,
                    "duration": 0.17904049999998506
                },
                {
                    "name": "A2",
                    "midi": 45,
                    "time": 278.22893700000225,
                    "velocity": 0.4645669291338583,
                    "duration": 0.1790405000000419
                },
                {
                    "name": "E2",
                    "midi": 40,
                    "time": 278.9450990000023,
                    "velocity": 0.4015748031496063,
                    "duration": 0.11936033333336127
                },
                {
                    "name": "E3",
                    "midi": 52,
                    "time": 278.9450990000023,
                    "velocity": 0.48031496062992124,
                    "duration": 0.11936033333336127
                },
                {
                    "name": "F#3",
                    "midi": 54,
                    "time": 279.06445933333566,
                    "velocity": 0.4409448818897638,
                    "duration": 0.11936033333336127
                },
                {
                    "name": "F#2",
                    "midi": 42,
                    "time": 279.06445933333566,
                    "velocity": 0.3700787401574803,
                    "duration": 0.11936033333336127
                },
                {
                    "name": "G#3",
                    "midi": 56,
                    "time": 279.183819666669,
                    "velocity": 0.4409448818897638,
                    "duration": 0.11936033333336127
                },
                {
                    "name": "G#2",
                    "midi": 44,
                    "time": 279.183819666669,
                    "velocity": 0.3700787401574803,
                    "duration": 0.11936033333336127
                },
                {
                    "name": "F#2",
                    "midi": 42,
                    "time": 279.3031800000024,
                    "velocity": 0.3937007874015748,
                    "duration": 0.11936033333336127
                },
                {
                    "name": "F#3",
                    "midi": 54,
                    "time": 279.3031800000024,
                    "velocity": 0.4645669291338583,
                    "duration": 0.11936033333336127
                },
                {
                    "name": "G#3",
                    "midi": 56,
                    "time": 279.42254033333575,
                    "velocity": 0.48031496062992124,
                    "duration": 0.11936033333336127
                },
                {
                    "name": "G#2",
                    "midi": 44,
                    "time": 279.42254033333575,
                    "velocity": 0.4015748031496063,
                    "duration": 0.11936033333336127
                },
                {
                    "name": "A3",
                    "midi": 57,
                    "time": 279.5419006666691,
                    "velocity": 0.41732283464566927,
                    "duration": 0.11936033333336127
                },
                {
                    "name": "A2",
                    "midi": 45,
                    "time": 279.5419006666691,
                    "velocity": 0.3543307086614173,
                    "duration": 0.11936033333336127
                },
                {
                    "name": "B3",
                    "midi": 59,
                    "time": 279.66126100000247,
                    "velocity": 0.5196850393700787,
                    "duration": 0.35808100000002696
                },
                {
                    "name": "B2",
                    "midi": 47,
                    "time": 279.66126100000247,
                    "velocity": 0.4409448818897638,
                    "duration": 0.35808100000002696
                },
                {
                    "name": "E3",
                    "midi": 52,
                    "time": 280.0193420000025,
                    "velocity": 0.48031496062992124,
                    "duration": 0.11936033333336127
                },
                {
                    "name": "E2",
                    "midi": 40,
                    "time": 280.0193420000025,
                    "velocity": 0.4015748031496063,
                    "duration": 0.11936033333336127
                },
                {
                    "name": "F#2",
                    "midi": 42,
                    "time": 280.13870233333586,
                    "velocity": 0.3700787401574803,
                    "duration": 0.11936033333336127
                },
                {
                    "name": "F#3",
                    "midi": 54,
                    "time": 280.13870233333586,
                    "velocity": 0.4409448818897638,
                    "duration": 0.11936033333336127
                },
                {
                    "name": "G#2",
                    "midi": 44,
                    "time": 280.2580626666692,
                    "velocity": 0.3700787401574803,
                    "duration": 0.11936033333336127
                },
                {
                    "name": "G#3",
                    "midi": 56,
                    "time": 280.2580626666692,
                    "velocity": 0.4409448818897638,
                    "duration": 0.11936033333336127
                },
                {
                    "name": "F#3",
                    "midi": 54,
                    "time": 280.3774230000026,
                    "velocity": 0.4645669291338583,
                    "duration": 0.11936033333330442
                },
                {
                    "name": "F#2",
                    "midi": 42,
                    "time": 280.3774230000026,
                    "velocity": 0.3937007874015748,
                    "duration": 0.11936033333330442
                },
                {
                    "name": "G#3",
                    "midi": 56,
                    "time": 280.4967833333359,
                    "velocity": 0.48031496062992124,
                    "duration": 0.11936033333336127
                },
                {
                    "name": "G#2",
                    "midi": 44,
                    "time": 280.4967833333359,
                    "velocity": 0.4015748031496063,
                    "duration": 0.11936033333336127
                },
                {
                    "name": "A3",
                    "midi": 57,
                    "time": 280.61614366666925,
                    "velocity": 0.41732283464566927,
                    "duration": 0.11936033333336127
                },
                {
                    "name": "A2",
                    "midi": 45,
                    "time": 280.61614366666925,
                    "velocity": 0.3543307086614173,
                    "duration": 0.11936033333336127
                },
                {
                    "name": "B3",
                    "midi": 59,
                    "time": 280.7355040000026,
                    "velocity": 0.5511811023622047,
                    "duration": 0.35808100000002696
                },
                {
                    "name": "B2",
                    "midi": 47,
                    "time": 280.7355040000026,
                    "velocity": 0.4645669291338583,
                    "duration": 0.35808100000002696
                },
                {
                    "name": "E3",
                    "midi": 52,
                    "time": 281.09358500000263,
                    "velocity": 0.48031496062992124,
                    "duration": 0.11936033333336127
                },
                {
                    "name": "E2",
                    "midi": 40,
                    "time": 281.09358500000263,
                    "velocity": 0.4015748031496063,
                    "duration": 0.11936033333336127
                },
                {
                    "name": "F#2",
                    "midi": 42,
                    "time": 281.212945333336,
                    "velocity": 0.3700787401574803,
                    "duration": 0.11936033333336127
                },
                {
                    "name": "F#3",
                    "midi": 54,
                    "time": 281.212945333336,
                    "velocity": 0.4409448818897638,
                    "duration": 0.11936033333336127
                },
                {
                    "name": "G#2",
                    "midi": 44,
                    "time": 281.33230566666936,
                    "velocity": 0.3700787401574803,
                    "duration": 0.11936033333336127
                },
                {
                    "name": "G#3",
                    "midi": 56,
                    "time": 281.33230566666936,
                    "velocity": 0.4409448818897638,
                    "duration": 0.11936033333336127
                },
                {
                    "name": "F#3",
                    "midi": 54,
                    "time": 281.4516660000027,
                    "velocity": 0.4645669291338583,
                    "duration": 0.11936033333330442
                },
                {
                    "name": "F#2",
                    "midi": 42,
                    "time": 281.4516660000027,
                    "velocity": 0.3937007874015748,
                    "duration": 0.11936033333330442
                },
                {
                    "name": "G#3",
                    "midi": 56,
                    "time": 281.571026333336,
                    "velocity": 0.48031496062992124,
                    "duration": 0.11936033333336127
                },
                {
                    "name": "G#2",
                    "midi": 44,
                    "time": 281.571026333336,
                    "velocity": 0.4015748031496063,
                    "duration": 0.11936033333336127
                },
                {
                    "name": "A3",
                    "midi": 57,
                    "time": 281.6903866666694,
                    "velocity": 0.41732283464566927,
                    "duration": 0.11936033333336127
                },
                {
                    "name": "A2",
                    "midi": 45,
                    "time": 281.6903866666694,
                    "velocity": 0.3543307086614173,
                    "duration": 0.11936033333336127
                },
                {
                    "name": "B2",
                    "midi": 47,
                    "time": 281.80974700000274,
                    "velocity": 0.4645669291338583,
                    "duration": 0.35808100000002696
                },
                {
                    "name": "B3",
                    "midi": 59,
                    "time": 281.80974700000274,
                    "velocity": 0.5511811023622047,
                    "duration": 0.35808100000002696
                },
                {
                    "name": "E2",
                    "midi": 40,
                    "time": 282.16782800000277,
                    "velocity": 0.44881889763779526,
                    "duration": 0.11936033333336127
                },
                {
                    "name": "E3",
                    "midi": 52,
                    "time": 282.16782800000277,
                    "velocity": 0.5354330708661418,
                    "duration": 0.11936033333336127
                },
                {
                    "name": "F#3",
                    "midi": 54,
                    "time": 282.28718833333613,
                    "velocity": 0.4645669291338583,
                    "duration": 0.11936033333336127
                },
                {
                    "name": "F#2",
                    "midi": 42,
                    "time": 282.28718833333613,
                    "velocity": 0.3937007874015748,
                    "duration": 0.11936033333336127
                },
                {
                    "name": "G#3",
                    "midi": 56,
                    "time": 282.4065486666695,
                    "velocity": 0.44881889763779526,
                    "duration": 0.11936033333336127
                },
                {
                    "name": "G#2",
                    "midi": 44,
                    "time": 282.4065486666695,
                    "velocity": 0.3779527559055118,
                    "duration": 0.11936033333336127
                },
                {
                    "name": "A2",
                    "midi": 45,
                    "time": 282.52590900000286,
                    "velocity": 0.4409448818897638,
                    "duration": 0.11936033333336127
                },
                {
                    "name": "A3",
                    "midi": 57,
                    "time": 282.52590900000286,
                    "velocity": 0.5275590551181102,
                    "duration": 0.11936033333336127
                },
                {
                    "name": "B3",
                    "midi": 59,
                    "time": 282.6452693333362,
                    "velocity": 0.4566929133858268,
                    "duration": 0.11936033333336127
                },
                {
                    "name": "B2",
                    "midi": 47,
                    "time": 282.6452693333362,
                    "velocity": 0.3858267716535433,
                    "duration": 0.11936033333336127
                },
                {
                    "name": "C4",
                    "midi": 60,
                    "time": 282.7646296666696,
                    "velocity": 0.4566929133858268,
                    "duration": 0.11936033333336127
                },
                {
                    "name": "C3",
                    "midi": 48,
                    "time": 282.7646296666696,
                    "velocity": 0.3858267716535433,
                    "duration": 0.11936033333336127
                },
                {
                    "name": "B3",
                    "midi": 59,
                    "time": 282.88399000000294,
                    "velocity": 0.5196850393700787,
                    "duration": 0.11936033333336127
                },
                {
                    "name": "B2",
                    "midi": 47,
                    "time": 282.88399000000294,
                    "velocity": 0.4409448818897638,
                    "duration": 0.11936033333336127
                },
                {
                    "name": "C4",
                    "midi": 60,
                    "time": 283.0033503333363,
                    "velocity": 0.4645669291338583,
                    "duration": 0.11936033333336127
                },
                {
                    "name": "C3",
                    "midi": 48,
                    "time": 283.0033503333363,
                    "velocity": 0.3937007874015748,
                    "duration": 0.11936033333336127
                },
                {
                    "name": "D4",
                    "midi": 62,
                    "time": 283.12271066666966,
                    "velocity": 0.4645669291338583,
                    "duration": 0.11936033333336127
                },
                {
                    "name": "D3",
                    "midi": 50,
                    "time": 283.12271066666966,
                    "velocity": 0.3937007874015748,
                    "duration": 0.11936033333336127
                },
                {
                    "name": "E4",
                    "midi": 64,
                    "time": 283.242071000003,
                    "velocity": 0.5511811023622047,
                    "duration": 0.1790405000000419
                },
                {
                    "name": "E3",
                    "midi": 52,
                    "time": 283.242071000003,
                    "velocity": 0.4645669291338583,
                    "duration": 0.1790405000000419
                },
                {
                    "name": "A3",
                    "midi": 57,
                    "time": 283.60015200000305,
                    "velocity": 0.5275590551181102,
                    "duration": 0.11936033333330442
                },
                {
                    "name": "A2",
                    "midi": 45,
                    "time": 283.60015200000305,
                    "velocity": 0.4409448818897638,
                    "duration": 0.11936033333330442
                },
                {
                    "name": "B2",
                    "midi": 47,
                    "time": 283.71951233333635,
                    "velocity": 0.3858267716535433,
                    "duration": 0.11936033333330442
                },
                {
                    "name": "B3",
                    "midi": 59,
                    "time": 283.71951233333635,
                    "velocity": 0.4566929133858268,
                    "duration": 0.11936033333330442
                },
                {
                    "name": "C4",
                    "midi": 60,
                    "time": 283.83887266666966,
                    "velocity": 0.4566929133858268,
                    "duration": 0.11936033333336127
                },
                {
                    "name": "C3",
                    "midi": 48,
                    "time": 283.83887266666966,
                    "velocity": 0.3858267716535433,
                    "duration": 0.11936033333336127
                },
                {
                    "name": "B2",
                    "midi": 47,
                    "time": 283.958233000003,
                    "velocity": 0.4409448818897638,
                    "duration": 0.11936033333336127
                },
                {
                    "name": "B3",
                    "midi": 59,
                    "time": 283.958233000003,
                    "velocity": 0.5196850393700787,
                    "duration": 0.11936033333336127
                },
                {
                    "name": "C3",
                    "midi": 48,
                    "time": 284.0775933333364,
                    "velocity": 0.3937007874015748,
                    "duration": 0.11936033333336127
                },
                {
                    "name": "C4",
                    "midi": 60,
                    "time": 284.0775933333364,
                    "velocity": 0.4645669291338583,
                    "duration": 0.11936033333336127
                },
                {
                    "name": "D3",
                    "midi": 50,
                    "time": 284.19695366666974,
                    "velocity": 0.3937007874015748,
                    "duration": 0.11936033333336127
                },
                {
                    "name": "D4",
                    "midi": 62,
                    "time": 284.19695366666974,
                    "velocity": 0.4645669291338583,
                    "duration": 0.11936033333336127
                },
                {
                    "name": "E3",
                    "midi": 52,
                    "time": 284.3163140000031,
                    "velocity": 0.4645669291338583,
                    "duration": 0.17904049999998506
                },
                {
                    "name": "E4",
                    "midi": 64,
                    "time": 284.3163140000031,
                    "velocity": 0.5511811023622047,
                    "duration": 0.17904049999998506
                },
                {
                    "name": "A1",
                    "midi": 33,
                    "time": 284.6743950000031,
                    "velocity": 0.4409448818897638,
                    "duration": 0.11936033333330442
                },
                {
                    "name": "A2",
                    "midi": 45,
                    "time": 284.6743950000031,
                    "velocity": 0.5275590551181102,
                    "duration": 0.11936033333330442
                },
                {
                    "name": "B2",
                    "midi": 47,
                    "time": 284.7937553333364,
                    "velocity": 0.4566929133858268,
                    "duration": 0.11936033333330442
                },
                {
                    "name": "B1",
                    "midi": 35,
                    "time": 284.7937553333364,
                    "velocity": 0.3858267716535433,
                    "duration": 0.11936033333330442
                },
                {
                    "name": "C3",
                    "midi": 48,
                    "time": 284.9131156666697,
                    "velocity": 0.4566929133858268,
                    "duration": 0.11936033333336127
                },
                {
                    "name": "C2",
                    "midi": 36,
                    "time": 284.9131156666697,
                    "velocity": 0.3858267716535433,
                    "duration": 0.11936033333336127
                },
                {
                    "name": "B1",
                    "midi": 35,
                    "time": 285.03247600000304,
                    "velocity": 0.4409448818897638,
                    "duration": 0.11936033333336127
                },
                {
                    "name": "B2",
                    "midi": 47,
                    "time": 285.03247600000304,
                    "velocity": 0.5196850393700787,
                    "duration": 0.11936033333336127
                },
                {
                    "name": "C2",
                    "midi": 36,
                    "time": 285.1518363333364,
                    "velocity": 0.3937007874015748,
                    "duration": 0.11936033333336127
                },
                {
                    "name": "C3",
                    "midi": 48,
                    "time": 285.1518363333364,
                    "velocity": 0.4645669291338583,
                    "duration": 0.11936033333336127
                },
                {
                    "name": "D2",
                    "midi": 38,
                    "time": 285.27119666666977,
                    "velocity": 0.3937007874015748,
                    "duration": 0.11936033333336127
                },
                {
                    "name": "D3",
                    "midi": 50,
                    "time": 285.27119666666977,
                    "velocity": 0.4645669291338583,
                    "duration": 0.11936033333336127
                },
                {
                    "name": "E2",
                    "midi": 40,
                    "time": 285.3905570000031,
                    "velocity": 0.4645669291338583,
                    "duration": 0.17904049999998506
                },
                {
                    "name": "E3",
                    "midi": 52,
                    "time": 285.3905570000031,
                    "velocity": 0.5511811023622047,
                    "duration": 0.17904049999998506
                },
                {
                    "name": "A1",
                    "midi": 33,
                    "time": 285.7486380000031,
                    "velocity": 0.48031496062992124,
                    "duration": 0.17904049999998506
                },
                {
                    "name": "A2",
                    "midi": 45,
                    "time": 285.7486380000031,
                    "velocity": 0.5669291338582677,
                    "duration": 0.17904049999998506
                },
                {
                    "name": "C2",
                    "midi": 36,
                    "time": 286.8228810000031,
                    "velocity": 0.3858267716535433,
                    "duration": 0.17904049999998506
                },
                {
                    "name": "E2",
                    "midi": 40,
                    "time": 286.8228810000031,
                    "velocity": 0.3858267716535433,
                    "duration": 0.17904049999998506
                },
                {
                    "name": "A2",
                    "midi": 45,
                    "time": 286.8228810000031,
                    "velocity": 0.4566929133858268,
                    "duration": 0.17904049999998506
                },
                {
                    "name": "A1",
                    "midi": 33,
                    "time": 286.8228810000031,
                    "velocity": 0.3858267716535433,
                    "duration": 0.17904049999998506
                },
                {
                    "name": "A1",
                    "midi": 33,
                    "time": 287.1809620000031,
                    "velocity": 0.4094488188976378,
                    "duration": 0.17904049999998506
                },
                {
                    "name": "E2",
                    "midi": 40,
                    "time": 287.1809620000031,
                    "velocity": 0.4094488188976378,
                    "duration": 0.17904049999998506
                },
                {
                    "name": "A2",
                    "midi": 45,
                    "time": 287.1809620000031,
                    "velocity": 0.4881889763779528,
                    "duration": 0.17904049999998506
                },
                {
                    "name": "C2",
                    "midi": 36,
                    "time": 287.1809620000031,
                    "velocity": 0.4094488188976378,
                    "duration": 0.17904049999998506
                },
                {
                    "name": "A1",
                    "midi": 33,
                    "time": 287.53904300000306,
                    "velocity": 0.4409448818897638,
                    "duration": 0.17904049999998506
                },
                {
                    "name": "E2",
                    "midi": 40,
                    "time": 287.53904300000306,
                    "velocity": 0.4409448818897638,
                    "duration": 0.17904049999998506
                },
                {
                    "name": "A2",
                    "midi": 45,
                    "time": 287.53904300000306,
                    "velocity": 0.5275590551181102,
                    "duration": 0.17904049999998506
                },
                {
                    "name": "C2",
                    "midi": 36,
                    "time": 287.53904300000306,
                    "velocity": 0.4409448818897638,
                    "duration": 0.17904049999998506
                },
                {
                    "name": "A1",
                    "midi": 33,
                    "time": 287.89712400000303,
                    "velocity": 0.44881889763779526,
                    "duration": 0.17904049999998506
                },
                {
                    "name": "E2",
                    "midi": 40,
                    "time": 287.89712400000303,
                    "velocity": 0.44881889763779526,
                    "duration": 0.17904049999998506
                },
                {
                    "name": "A2",
                    "midi": 45,
                    "time": 287.89712400000303,
                    "velocity": 0.5354330708661418,
                    "duration": 0.17904049999998506
                },
                {
                    "name": "C2",
                    "midi": 36,
                    "time": 287.89712400000303,
                    "velocity": 0.44881889763779526,
                    "duration": 0.17904049999998506
                }
            ],
            "controlChanges": {
                "7": [
                    {
                        "number": 7,
                        "time": 0,
                        "value": 0.7874015748031497
                    }
                ],
                "10": [
                    {
                        "number": 10,
                        "time": 0,
                        "value": 0.5039370078740157
                    }
                ],
                "64": [
                    {
                        "number": 64,
                        "time": 0,
                        "value": 0
                    },
                    {
                        "number": 64,
                        "time": 0.75420810625,
                        "value": 1
                    },
                    {
                        "number": 64,
                        "time": 1.074243,
                        "value": 0
                    },
                    {
                        "number": 64,
                        "time": 1.8284511062499997,
                        "value": 1
                    },
                    {
                        "number": 64,
                        "time": 2.1484859999999997,
                        "value": 0
                    },
                    {
                        "number": 64,
                        "time": 5.042228081250001,
                        "value": 1
                    },
                    {
                        "number": 64,
                        "time": 5.371215000000001,
                        "value": 0
                    },
                    {
                        "number": 64,
                        "time": 6.825173060416672,
                        "value": 1
                    },
                    {
                        "number": 64,
                        "time": 7.169826022916673,
                        "value": 0
                    },
                    {
                        "number": 64,
                        "time": 7.90762208333334,
                        "value": 1
                    },
                    {
                        "number": 64,
                        "time": 8.22765697708334,
                        "value": 0
                    },
                    {
                        "number": 64,
                        "time": 8.62378408333334,
                        "value": 1
                    },
                    {
                        "number": 64,
                        "time": 8.95948502083334,
                        "value": 0
                    },
                    {
                        "number": 64,
                        "time": 9.007975156250007,
                        "value": 1
                    },
                    {
                        "number": 64,
                        "time": 9.318312022916674,
                        "value": 0
                    },
                    {
                        "number": 64,
                        "time": 9.354866125000006,
                        "value": 1
                    },
                    {
                        "number": 64,
                        "time": 9.675647020833338,
                        "value": 0
                    },
                    {
                        "number": 64,
                        "time": 9.704741102083338,
                        "value": 1
                    },
                    {
                        "number": 64,
                        "time": 10.037458031250004,
                        "value": 0
                    },
                    {
                        "number": 64,
                        "time": 10.094900191666671,
                        "value": 1
                    },
                    {
                        "number": 64,
                        "time": 10.39479302916667,
                        "value": 0
                    },
                    {
                        "number": 64,
                        "time": 10.43731514791667,
                        "value": 1
                    },
                    {
                        "number": 64,
                        "time": 10.747652014583336,
                        "value": 0
                    },
                    {
                        "number": 64,
                        "time": 10.790174133333336,
                        "value": 1
                    },
                    {
                        "number": 64,
                        "time": 11.107971020833334,
                        "value": 0
                    },
                    {
                        "number": 64,
                        "time": 11.145271125,
                        "value": 1
                    },
                    {
                        "number": 64,
                        "time": 11.46978203125,
                        "value": 0
                    },
                    {
                        "number": 64,
                        "time": 11.4899240875,
                        "value": 1
                    },
                    {
                        "number": 64,
                        "time": 11.824879022916667,
                        "value": 0
                    },
                    {
                        "number": 64,
                        "time": 11.8480050875,
                        "value": 1
                    },
                    {
                        "number": 64,
                        "time": 12.183706025,
                        "value": 0
                    },
                    {
                        "number": 64,
                        "time": 12.222498133333332,
                        "value": 1
                    },
                    {
                        "number": 64,
                        "time": 12.541041022916664,
                        "value": 0
                    },
                    {
                        "number": 64,
                        "time": 12.577595124999997,
                        "value": 1
                    },
                    {
                        "number": 64,
                        "time": 12.899868024999995,
                        "value": 0
                    },
                    {
                        "number": 64,
                        "time": 12.94388214791666,
                        "value": 1
                    },
                    {
                        "number": 64,
                        "time": 13.238552970833329,
                        "value": 0
                    },
                    {
                        "number": 64,
                        "time": 15.793610106249997,
                        "value": 1
                    },
                    {
                        "number": 64,
                        "time": 16.118121012499994,
                        "value": 0
                    },
                    {
                        "number": 64,
                        "time": 16.867853106249992,
                        "value": 1
                    },
                    {
                        "number": 64,
                        "time": 17.191618010416658,
                        "value": 0
                    },
                    {
                        "number": 64,
                        "time": 20.08163008124998,
                        "value": 1
                    },
                    {
                        "number": 64,
                        "time": 20.415093012499977,
                        "value": 0
                    },
                    {
                        "number": 64,
                        "time": 20.79033206041664,
                        "value": 1
                    },
                    {
                        "number": 64,
                        "time": 21.13274701666664,
                        "value": 0
                    },
                    {
                        "number": 64,
                        "time": 21.872781083333308,
                        "value": 1
                    },
                    {
                        "number": 64,
                        "time": 22.20699001666664,
                        "value": 0
                    },
                    {
                        "number": 64,
                        "time": 22.58894308333331,
                        "value": 1
                    },
                    {
                        "number": 64,
                        "time": 22.926136024999973,
                        "value": 0
                    },
                    {
                        "number": 64,
                        "time": 22.951500095833307,
                        "value": 1
                    },
                    {
                        "number": 64,
                        "time": 23.284963027083307,
                        "value": 0
                    },
                    {
                        "number": 64,
                        "time": 23.326739143749975,
                        "value": 1
                    },
                    {
                        "number": 64,
                        "time": 23.641552022916642,
                        "value": 0
                    },
                    {
                        "number": 64,
                        "time": 23.69302616666664,
                        "value": 1
                    },
                    {
                        "number": 64,
                        "time": 23.99963302291664,
                        "value": 0
                    },
                    {
                        "number": 64,
                        "time": 24.04663115416664,
                        "value": 1
                    },
                    {
                        "number": 64,
                        "time": 24.361444033333306,
                        "value": 0
                    },
                    {
                        "number": 64,
                        "time": 24.40247414791664,
                        "value": 1
                    },
                    {
                        "number": 64,
                        "time": 24.715795022916637,
                        "value": 0
                    },
                    {
                        "number": 64,
                        "time": 24.775475189583304,
                        "value": 1
                    },
                    {
                        "number": 64,
                        "time": 25.955650485416633,
                        "value": 0
                    },
                    {
                        "number": 64,
                        "time": 26.166023072916634,
                        "value": 1
                    },
                    {
                        "number": 64,
                        "time": 26.3241755145833,
                        "value": 0
                    },
                    {
                        "number": 64,
                        "time": 26.5457381333333,
                        "value": 1
                    },
                    {
                        "number": 64,
                        "time": 26.7135886020833,
                        "value": 0
                    },
                    {
                        "number": 64,
                        "time": 27.23579006041663,
                        "value": 1
                    },
                    {
                        "number": 64,
                        "time": 27.584173033333297,
                        "value": 0
                    },
                    {
                        "number": 64,
                        "time": 28.318239083333296,
                        "value": 1
                    },
                    {
                        "number": 64,
                        "time": 28.661400041666628,
                        "value": 0
                    },
                    {
                        "number": 64,
                        "time": 29.041115102083292,
                        "value": 1
                    },
                    {
                        "number": 64,
                        "time": 29.370848022916626,
                        "value": 0
                    },
                    {
                        "number": 64,
                        "time": 29.408894129166626,
                        "value": 1
                    },
                    {
                        "number": 64,
                        "time": 29.733405035416624,
                        "value": 0
                    },
                    {
                        "number": 64,
                        "time": 29.773689147916624,
                        "value": 1
                    },
                    {
                        "number": 64,
                        "time": 30.092232037499954,
                        "value": 0
                    },
                    {
                        "number": 64,
                        "time": 30.125802131249955,
                        "value": 1
                    },
                    {
                        "number": 64,
                        "time": 31.32686548541662,
                        "value": 0
                    },
                    {
                        "number": 64,
                        "time": 31.53723807291662,
                        "value": 1
                    },
                    {
                        "number": 64,
                        "time": 31.648392383333285,
                        "value": 0
                    },
                    {
                        "number": 64,
                        "time": 31.890097058333286,
                        "value": 1
                    },
                    {
                        "number": 64,
                        "time": 31.995283352083284,
                        "value": 0
                    },
                    {
                        "number": 64,
                        "time": 32.27727213958328,
                        "value": 1
                    },
                    {
                        "number": 64,
                        "time": 33.085938397916614,
                        "value": 0
                    },
                    {
                        "number": 64,
                        "time": 34.38920403749996,
                        "value": 1
                    },
                    {
                        "number": 64,
                        "time": 35.252328447916625,
                        "value": 0
                    },
                    {
                        "number": 64,
                        "time": 37.293390147916625,
                        "value": 1
                    },
                    {
                        "number": 64,
                        "time": 37.482874677083295,
                        "value": 0
                    },
                    {
                        "number": 64,
                        "time": 37.63580510416663,
                        "value": 1
                    },
                    {
                        "number": 64,
                        "time": 37.75889544791663,
                        "value": 0
                    },
                    {
                        "number": 64,
                        "time": 37.97523605208329,
                        "value": 1
                    },
                    {
                        "number": 64,
                        "time": 38.12965848333329,
                        "value": 0
                    },
                    {
                        "number": 64,
                        "time": 38.35793512083328,
                        "value": 1
                    },
                    {
                        "number": 64,
                        "time": 38.48102546458328,
                        "value": 0
                    },
                    {
                        "number": 64,
                        "time": 38.71527011874995,
                        "value": 1
                    },
                    {
                        "number": 64,
                        "time": 38.859994522916615,
                        "value": 0
                    },
                    {
                        "number": 64,
                        "time": 39.08230314374995,
                        "value": 1
                    },
                    {
                        "number": 64,
                        "time": 39.23523357083328,
                        "value": 0
                    },
                    {
                        "number": 64,
                        "time": 39.431432118749946,
                        "value": 1
                    },
                    {
                        "number": 64,
                        "time": 39.57615652291661,
                        "value": 0
                    },
                    {
                        "number": 64,
                        "time": 39.746990999999944,
                        "value": 1
                    },
                    {
                        "number": 64,
                        "time": 40.82571001249995,
                        "value": 0
                    },
                    {
                        "number": 64,
                        "time": 41.89547699999994,
                        "value": 1
                    },
                    {
                        "number": 64,
                        "time": 42.97792602291661,
                        "value": 0
                    },
                    {
                        "number": 64,
                        "time": 44.10215116249994,
                        "value": 1
                    },
                    {
                        "number": 64,
                        "time": 44.77579104374995,
                        "value": 0
                    },
                    {
                        "number": 64,
                        "time": 45.16520413124994,
                        "value": 1
                    },
                    {
                        "number": 64,
                        "time": 45.48374702083328,
                        "value": 0
                    },
                    {
                        "number": 64,
                        "time": 45.56580724999994,
                        "value": 1
                    },
                    {
                        "number": 64,
                        "time": 45.83959001458327,
                        "value": 0
                    },
                    {
                        "number": 64,
                        "time": 45.92388824999994,
                        "value": 1
                    },
                    {
                        "number": 64,
                        "time": 46.2028930291666,
                        "value": 0
                    },
                    {
                        "number": 64,
                        "time": 46.26033518958327,
                        "value": 1
                    },
                    {
                        "number": 64,
                        "time": 46.5609740291666,
                        "value": 0
                    },
                    {
                        "number": 64,
                        "time": 46.62736821458327,
                        "value": 1
                    },
                    {
                        "number": 64,
                        "time": 46.91607102083327,
                        "value": 0
                    },
                    {
                        "number": 64,
                        "time": 46.960085143749936,
                        "value": 1
                    },
                    {
                        "number": 64,
                        "time": 47.271168012499935,
                        "value": 0
                    },
                    {
                        "number": 64,
                        "time": 47.34800622708327,
                        "value": 1
                    },
                    {
                        "number": 64,
                        "time": 48.70573001874993,
                        "value": 0
                    },
                    {
                        "number": 64,
                        "time": 48.8146463229166,
                        "value": 1
                    },
                    {
                        "number": 64,
                        "time": 53.71214999999992,
                        "value": 0
                    },
                    {
                        "number": 64,
                        "time": 53.76735415416659,
                        "value": 1
                    },
                    {
                        "number": 64,
                        "time": 54.79086901249992,
                        "value": 0
                    },
                    {
                        "number": 64,
                        "time": 54.87143723749992,
                        "value": 1
                    },
                    {
                        "number": 64,
                        "time": 55.86958802499991,
                        "value": 0
                    },
                    {
                        "number": 64,
                        "time": 55.97626632291658,
                        "value": 1
                    },
                    {
                        "number": 64,
                        "time": 56.94383102499991,
                        "value": 0
                    },
                    {
                        "number": 64,
                        "time": 57.02962126458324,
                        "value": 1
                    },
                    {
                        "number": 64,
                        "time": 58.01882002708324,
                        "value": 0
                    },
                    {
                        "number": 64,
                        "time": 58.06432615416657,
                        "value": 1
                    },
                    {
                        "number": 64,
                        "time": 59.090079018749904,
                        "value": 0
                    },
                    {
                        "number": 64,
                        "time": 59.1684092374999,
                        "value": 1
                    },
                    {
                        "number": 64,
                        "time": 60.16506802083323,
                        "value": 0
                    },
                    {
                        "number": 64,
                        "time": 60.27323832291656,
                        "value": 1
                    },
                    {
                        "number": 64,
                        "time": 61.24005702291656,
                        "value": 0
                    },
                    {
                        "number": 64,
                        "time": 61.379559412499894,
                        "value": 1
                    },
                    {
                        "number": 64,
                        "time": 62.31206201666655,
                        "value": 0
                    },
                    {
                        "number": 64,
                        "time": 62.42545433333322,
                        "value": 1
                    },
                    {
                        "number": 64,
                        "time": 63.38928902499988,
                        "value": 0
                    },
                    {
                        "number": 64,
                        "time": 63.475079264583215,
                        "value": 1
                    },
                    {
                        "number": 64,
                        "time": 64.46204002083321,
                        "value": 0
                    },
                    {
                        "number": 64,
                        "time": 64.53887823541655,
                        "value": 1
                    },
                    {
                        "number": 64,
                        "time": 65.5385210270832,
                        "value": 0
                    },
                    {
                        "number": 64,
                        "time": 65.59670918958321,
                        "value": 1
                    },
                    {
                        "number": 64,
                        "time": 66.6127640270832,
                        "value": 0
                    },
                    {
                        "number": 64,
                        "time": 66.74779040416654,
                        "value": 1
                    },
                    {
                        "number": 64,
                        "time": 67.68999103541653,
                        "value": 0
                    },
                    {
                        "number": 64,
                        "time": 67.82203340416653,
                        "value": 1
                    },
                    {
                        "number": 64,
                        "time": 68.76050402499986,
                        "value": 0
                    },
                    {
                        "number": 64,
                        "time": 68.8776263520832,
                        "value": 1
                    },
                    {
                        "number": 64,
                        "time": 69.83474702499986,
                        "value": 0
                    },
                    {
                        "number": 64,
                        "time": 69.94142532291653,
                        "value": 1
                    },
                    {
                        "number": 64,
                        "time": 70.90899002499985,
                        "value": 0
                    },
                    {
                        "number": 64,
                        "time": 71.01939833333319,
                        "value": 1
                    },
                    {
                        "number": 64,
                        "time": 71.98920104166652,
                        "value": 0
                    },
                    {
                        "number": 64,
                        "time": 72.08543531041651,
                        "value": 1
                    },
                    {
                        "number": 64,
                        "time": 73.05747602499984,
                        "value": 0
                    },
                    {
                        "number": 64,
                        "time": 73.15371029374984,
                        "value": 1
                    },
                    {
                        "number": 64,
                        "time": 74.13395703124984,
                        "value": 0
                    },
                    {
                        "number": 64,
                        "time": 74.21676326249984,
                        "value": 1
                    },
                    {
                        "number": 64,
                        "time": 75.20447002083317,
                        "value": 0
                    },
                    {
                        "number": 64,
                        "time": 75.28205423749984,
                        "value": 1
                    },
                    {
                        "number": 64,
                        "time": 76.27871302083317,
                        "value": 0
                    },
                    {
                        "number": 64,
                        "time": 76.40777138124983,
                        "value": 1
                    },
                    {
                        "number": 64,
                        "time": 77.35295602083316,
                        "value": 0
                    },
                    {
                        "number": 64,
                        "time": 77.48276038333316,
                        "value": 1
                    },
                    {
                        "number": 64,
                        "time": 78.43018302916649,
                        "value": 0
                    },
                    {
                        "number": 64,
                        "time": 78.52492529374982,
                        "value": 1
                    },
                    {
                        "number": 64,
                        "time": 79.50591803333315,
                        "value": 0
                    },
                    {
                        "number": 64,
                        "time": 79.63870640416648,
                        "value": 1
                    },
                    {
                        "number": 64,
                        "time": 80.57568502083315,
                        "value": 0
                    },
                    {
                        "number": 64,
                        "time": 80.72637744166649,
                        "value": 1
                    },
                    {
                        "number": 64,
                        "time": 81.64992802083314,
                        "value": 0
                    },
                    {
                        "number": 64,
                        "time": 81.73721026458314,
                        "value": 1
                    },
                    {
                        "number": 64,
                        "time": 82.72491702291647,
                        "value": 0
                    },
                    {
                        "number": 64,
                        "time": 82.85397538333314,
                        "value": 1
                    },
                    {
                        "number": 64,
                        "time": 83.79916002291647,
                        "value": 0
                    },
                    {
                        "number": 64,
                        "time": 83.9185203562498,
                        "value": 1
                    },
                    {
                        "number": 64,
                        "time": 84.70331454791646,
                        "value": 0
                    },
                    {
                        "number": 64,
                        "time": 85.61940510624979,
                        "value": 1
                    },
                    {
                        "number": 64,
                        "time": 85.9439160124998,
                        "value": 0
                    },
                    {
                        "number": 64,
                        "time": 86.6936481062498,
                        "value": 1
                    },
                    {
                        "number": 64,
                        "time": 87.02114302083314,
                        "value": 0
                    },
                    {
                        "number": 64,
                        "time": 89.90742508124978,
                        "value": 1
                    },
                    {
                        "number": 64,
                        "time": 90.23641199999977,
                        "value": 0
                    },
                    {
                        "number": 64,
                        "time": 91.69037006041644,
                        "value": 1
                    },
                    {
                        "number": 64,
                        "time": 92.03129301249977,
                        "value": 0
                    },
                    {
                        "number": 64,
                        "time": 92.77281908333312,
                        "value": 1
                    },
                    {
                        "number": 64,
                        "time": 93.1055360124998,
                        "value": 0
                    },
                    {
                        "number": 64,
                        "time": 93.48898108333314,
                        "value": 1
                    },
                    {
                        "number": 64,
                        "time": 93.82393601874982,
                        "value": 0
                    },
                    {
                        "number": 64,
                        "time": 93.85452210416649,
                        "value": 1
                    },
                    {
                        "number": 64,
                        "time": 94.1835090229165,
                        "value": 0
                    },
                    {
                        "number": 64,
                        "time": 94.2305071541665,
                        "value": 1
                    },
                    {
                        "number": 64,
                        "time": 94.54084402083318,
                        "value": 0
                    },
                    {
                        "number": 64,
                        "time": 94.60201619166651,
                        "value": 1
                    },
                    {
                        "number": 64,
                        "time": 94.90340103333317,
                        "value": 0
                    },
                    {
                        "number": 64,
                        "time": 94.96531920624983,
                        "value": 1
                    },
                    {
                        "number": 64,
                        "time": 95.26297403749983,
                        "value": 0
                    },
                    {
                        "number": 64,
                        "time": 95.3025121479165,
                        "value": 1
                    },
                    {
                        "number": 64,
                        "time": 95.61732502708317,
                        "value": 0
                    },
                    {
                        "number": 64,
                        "time": 95.67327518333317,
                        "value": 1
                    },
                    {
                        "number": 64,
                        "time": 95.97093001458317,
                        "value": 0
                    },
                    {
                        "number": 64,
                        "time": 96.02091215416651,
                        "value": 1
                    },
                    {
                        "number": 64,
                        "time": 96.32901101458319,
                        "value": 0
                    },
                    {
                        "number": 64,
                        "time": 96.37899315416652,
                        "value": 1
                    },
                    {
                        "number": 64,
                        "time": 96.69306003124986,
                        "value": 0
                    },
                    {
                        "number": 64,
                        "time": 96.71320208749985,
                        "value": 1
                    },
                    {
                        "number": 64,
                        "time": 97.05039502916651,
                        "value": 0
                    },
                    {
                        "number": 64,
                        "time": 97.09291714791651,
                        "value": 1
                    },
                    {
                        "number": 64,
                        "time": 97.40623802291651,
                        "value": 0
                    },
                    {
                        "number": 64,
                        "time": 97.43980811666651,
                        "value": 1
                    },
                    {
                        "number": 64,
                        "time": 97.76208101666651,
                        "value": 0
                    },
                    {
                        "number": 64,
                        "time": 97.83742722708318,
                        "value": 1
                    },
                    {
                        "number": 64,
                        "time": 98.10374997083318,
                        "value": 0
                    },
                    {
                        "number": 64,
                        "time": 100.65880710624984,
                        "value": 1
                    },
                    {
                        "number": 64,
                        "time": 100.98406401458318,
                        "value": 0
                    },
                    {
                        "number": 64,
                        "time": 101.73305010624983,
                        "value": 1
                    },
                    {
                        "number": 64,
                        "time": 102.0568150104165,
                        "value": 0
                    },
                    {
                        "number": 64,
                        "time": 104.94682708124982,
                        "value": 1
                    },
                    {
                        "number": 64,
                        "time": 105.28178201666648,
                        "value": 0
                    },
                    {
                        "number": 64,
                        "time": 105.65552906041648,
                        "value": 1
                    },
                    {
                        "number": 64,
                        "time": 106.00391203333314,
                        "value": 0
                    },
                    {
                        "number": 64,
                        "time": 106.73797808333315,
                        "value": 1
                    },
                    {
                        "number": 64,
                        "time": 107.07517102499982,
                        "value": 0
                    },
                    {
                        "number": 64,
                        "time": 107.81222108333316,
                        "value": 1
                    },
                    {
                        "number": 64,
                        "time": 108.1486680229165,
                        "value": 0
                    },
                    {
                        "number": 64,
                        "time": 108.52838308333317,
                        "value": 1
                    },
                    {
                        "number": 64,
                        "time": 108.86557602499984,
                        "value": 0
                    },
                    {
                        "number": 64,
                        "time": 108.9207801791665,
                        "value": 1
                    },
                    {
                        "number": 64,
                        "time": 109.22291102291649,
                        "value": 0
                    },
                    {
                        "number": 64,
                        "time": 109.26617914374982,
                        "value": 1
                    },
                    {
                        "number": 64,
                        "time": 109.58323002916649,
                        "value": 0
                    },
                    {
                        "number": 64,
                        "time": 109.61978413124982,
                        "value": 1
                    },
                    {
                        "number": 64,
                        "time": 109.93981902499982,
                        "value": 0
                    },
                    {
                        "number": 64,
                        "time": 109.97786513124981,
                        "value": 1
                    },
                    {
                        "number": 64,
                        "time": 110.30088403333315,
                        "value": 0
                    },
                    {
                        "number": 64,
                        "time": 110.34191414791648,
                        "value": 1
                    },
                    {
                        "number": 64,
                        "time": 110.65523502291649,
                        "value": 0
                    },
                    {
                        "number": 64,
                        "time": 110.69402713124983,
                        "value": 1
                    },
                    {
                        "number": 64,
                        "time": 111.8950904854165,
                        "value": 0
                    },
                    {
                        "number": 64,
                        "time": 112.1054630729165,
                        "value": 1
                    },
                    {
                        "number": 64,
                        "time": 112.26361551458318,
                        "value": 0
                    },
                    {
                        "number": 64,
                        "time": 112.48517813333318,
                        "value": 1
                    },
                    {
                        "number": 64,
                        "time": 112.65302860208317,
                        "value": 0
                    },
                    {
                        "number": 64,
                        "time": 113.17523006041651,
                        "value": 1
                    },
                    {
                        "number": 64,
                        "time": 113.52361303333316,
                        "value": 0
                    },
                    {
                        "number": 64,
                        "time": 114.25767908333317,
                        "value": 1
                    },
                    {
                        "number": 64,
                        "time": 114.59412602291651,
                        "value": 0
                    },
                    {
                        "number": 64,
                        "time": 114.98055510208317,
                        "value": 1
                    },
                    {
                        "number": 64,
                        "time": 115.31178002708317,
                        "value": 0
                    },
                    {
                        "number": 64,
                        "time": 115.33341408749985,
                        "value": 1
                    },
                    {
                        "number": 64,
                        "time": 115.66911502499984,
                        "value": 0
                    },
                    {
                        "number": 64,
                        "time": 115.7131291479165,
                        "value": 1
                    },
                    {
                        "number": 64,
                        "time": 116.0264500229165,
                        "value": 0
                    },
                    {
                        "number": 64,
                        "time": 116.11298626458317,
                        "value": 1
                    },
                    {
                        "number": 64,
                        "time": 117.26630548541651,
                        "value": 0
                    },
                    {
                        "number": 64,
                        "time": 117.47667807291651,
                        "value": 1
                    },
                    {
                        "number": 64,
                        "time": 117.63483051458319,
                        "value": 0
                    },
                    {
                        "number": 64,
                        "time": 117.85639313333319,
                        "value": 1
                    },
                    {
                        "number": 64,
                        "time": 118.02424360208317,
                        "value": 0
                    },
                    {
                        "number": 64,
                        "time": 118.16672999999984,
                        "value": 1
                    },
                    {
                        "number": 64,
                        "time": 118.88289199999984,
                        "value": 0
                    },
                    {
                        "number": 64,
                        "time": 120.32864403749984,
                        "value": 1
                    },
                    {
                        "number": 64,
                        "time": 121.1917684479165,
                        "value": 0
                    },
                    {
                        "number": 64,
                        "time": 123.23283014791649,
                        "value": 1
                    },
                    {
                        "number": 64,
                        "time": 123.42231467708315,
                        "value": 0
                    },
                    {
                        "number": 64,
                        "time": 123.57524510416648,
                        "value": 1
                    },
                    {
                        "number": 64,
                        "time": 123.69833544791648,
                        "value": 0
                    },
                    {
                        "number": 64,
                        "time": 123.91467605208314,
                        "value": 1
                    },
                    {
                        "number": 64,
                        "time": 124.06909848333314,
                        "value": 0
                    },
                    {
                        "number": 64,
                        "time": 124.29737512083314,
                        "value": 1
                    },
                    {
                        "number": 64,
                        "time": 124.42046546458313,
                        "value": 0
                    },
                    {
                        "number": 64,
                        "time": 124.65471011874979,
                        "value": 1
                    },
                    {
                        "number": 64,
                        "time": 124.79943452291646,
                        "value": 0
                    },
                    {
                        "number": 64,
                        "time": 125.02174314374979,
                        "value": 1
                    },
                    {
                        "number": 64,
                        "time": 125.17467357083312,
                        "value": 0
                    },
                    {
                        "number": 64,
                        "time": 125.37087211874979,
                        "value": 1
                    },
                    {
                        "number": 64,
                        "time": 125.51559652291645,
                        "value": 0
                    },
                    {
                        "number": 64,
                        "time": 125.68643099999979,
                        "value": 1
                    },
                    {
                        "number": 64,
                        "time": 126.76067399999978,
                        "value": 0
                    },
                    {
                        "number": 64,
                        "time": 127.83491699999978,
                        "value": 1
                    },
                    {
                        "number": 64,
                        "time": 128.91289001041645,
                        "value": 0
                    },
                    {
                        "number": 64,
                        "time": 130.04159116249983,
                        "value": 1
                    },
                    {
                        "number": 64,
                        "time": 130.73611910208317,
                        "value": 0
                    },
                    {
                        "number": 64,
                        "time": 131.10464413124984,
                        "value": 1
                    },
                    {
                        "number": 64,
                        "time": 131.42467902499988,
                        "value": 0
                    },
                    {
                        "number": 64,
                        "time": 131.50524724999988,
                        "value": 1
                    },
                    {
                        "number": 64,
                        "time": 131.7849980312499,
                        "value": 0
                    },
                    {
                        "number": 64,
                        "time": 131.8633282499999,
                        "value": 1
                    },
                    {
                        "number": 64,
                        "time": 132.14084102499993,
                        "value": 0
                    },
                    {
                        "number": 64,
                        "time": 132.20425120208327,
                        "value": 1
                    },
                    {
                        "number": 64,
                        "time": 132.49743002083326,
                        "value": 0
                    },
                    {
                        "number": 64,
                        "time": 132.56680821458326,
                        "value": 1
                    },
                    {
                        "number": 64,
                        "time": 132.85252701249993,
                        "value": 0
                    },
                    {
                        "number": 64,
                        "time": 132.89952514374994,
                        "value": 1
                    },
                    {
                        "number": 64,
                        "time": 133.20613199999994,
                        "value": 0
                    },
                    {
                        "number": 64,
                        "time": 133.27849420208327,
                        "value": 1
                    },
                    {
                        "number": 64,
                        "time": 134.63994800416648,
                        "value": 0
                    },
                    {
                        "number": 64,
                        "time": 134.7540863229165,
                        "value": 1
                    },
                    {
                        "number": 64,
                        "time": 139.5881798229166,
                        "value": 0
                    },
                    {
                        "number": 64,
                        "time": 139.7067941541666,
                        "value": 1
                    },
                    {
                        "number": 64,
                        "time": 140.734785025,
                        "value": 0
                    },
                    {
                        "number": 64,
                        "time": 140.8108772375,
                        "value": 1
                    },
                    {
                        "number": 64,
                        "time": 141.8075360208334,
                        "value": 0
                    },
                    {
                        "number": 64,
                        "time": 141.9261503520834,
                        "value": 1
                    },
                    {
                        "number": 64,
                        "time": 142.88401702708347,
                        "value": 0
                    },
                    {
                        "number": 64,
                        "time": 142.96906126458347,
                        "value": 1
                    },
                    {
                        "number": 64,
                        "time": 143.9552760187502,
                        "value": 0
                    },
                    {
                        "number": 64,
                        "time": 144.0380822500002,
                        "value": 1
                    },
                    {
                        "number": 64,
                        "time": 145.03175702500027,
                        "value": 0
                    },
                    {
                        "number": 64,
                        "time": 145.10784923750026,
                        "value": 1
                    },
                    {
                        "number": 64,
                        "time": 146.1067460270837,
                        "value": 0
                    },
                    {
                        "number": 64,
                        "time": 146.17239421041702,
                        "value": 1
                    },
                    {
                        "number": 64,
                        "time": 147.18024302500044,
                        "value": 0
                    },
                    {
                        "number": 64,
                        "time": 147.26603326458377,
                        "value": 1
                    },
                    {
                        "number": 64,
                        "time": 148.25299402083382,
                        "value": 0
                    },
                    {
                        "number": 64,
                        "time": 148.3193882062505,
                        "value": 1
                    },
                    {
                        "number": 64,
                        "time": 149.3279830229172,
                        "value": 0
                    },
                    {
                        "number": 64,
                        "time": 149.41451926458387,
                        "value": 1
                    },
                    {
                        "number": 64,
                        "time": 150.40148002083393,
                        "value": 0
                    },
                    {
                        "number": 64,
                        "time": 150.50965032291725,
                        "value": 1
                    },
                    {
                        "number": 64,
                        "time": 151.48318304166733,
                        "value": 0
                    },
                    {
                        "number": 64,
                        "time": 151.58389332291733,
                        "value": 1
                    },
                    {
                        "number": 64,
                        "time": 152.54772801458407,
                        "value": 0
                    },
                    {
                        "number": 64,
                        "time": 152.62755023750074,
                        "value": 1
                    },
                    {
                        "number": 64,
                        "time": 153.6316690416675,
                        "value": 0
                    },
                    {
                        "number": 64,
                        "time": 153.72193529375082,
                        "value": 1
                    },
                    {
                        "number": 64,
                        "time": 154.69323000625087,
                        "value": 0
                    },
                    {
                        "number": 64,
                        "time": 154.7857342645842,
                        "value": 1
                    },
                    {
                        "number": 64,
                        "time": 155.77120301666758,
                        "value": 0
                    },
                    {
                        "number": 64,
                        "time": 155.88086532291757,
                        "value": 1
                    },
                    {
                        "number": 64,
                        "time": 156.84992202916766,
                        "value": 0
                    },
                    {
                        "number": 64,
                        "time": 156.944664293751,
                        "value": 1
                    },
                    {
                        "number": 64,
                        "time": 157.92864104166773,
                        "value": 0
                    },
                    {
                        "number": 64,
                        "time": 158.0084632645844,
                        "value": 1
                    },
                    {
                        "number": 64,
                        "time": 159.00139203750115,
                        "value": 0
                    },
                    {
                        "number": 64,
                        "time": 159.10359432291781,
                        "value": 1
                    },
                    {
                        "number": 64,
                        "time": 160.0771270416679,
                        "value": 0
                    },
                    {
                        "number": 64,
                        "time": 160.15694926458457,
                        "value": 1
                    },
                    {
                        "number": 64,
                        "time": 161.14241801666796,
                        "value": 0
                    },
                    {
                        "number": 64,
                        "time": 161.21328821458462,
                        "value": 1
                    },
                    {
                        "number": 64,
                        "time": 162.22188303125137,
                        "value": 0
                    },
                    {
                        "number": 64,
                        "time": 162.31587929375138,
                        "value": 1
                    },
                    {
                        "number": 64,
                        "time": 163.29165001875143,
                        "value": 0
                    },
                    {
                        "number": 64,
                        "time": 163.37967826458475,
                        "value": 1
                    },
                    {
                        "number": 64,
                        "time": 164.3681310250015,
                        "value": 0
                    },
                    {
                        "number": 64,
                        "time": 164.4330332062515,
                        "value": 1
                    },
                    {
                        "number": 64,
                        "time": 165.44312002708492,
                        "value": 0
                    },
                    {
                        "number": 64,
                        "time": 165.54905232291824,
                        "value": 1
                    },
                    {
                        "number": 64,
                        "time": 166.51512502083497,
                        "value": 0
                    },
                    {
                        "number": 64,
                        "time": 166.59196323541832,
                        "value": 1
                    },
                    {
                        "number": 64,
                        "time": 167.5878760166684,
                        "value": 0
                    },
                    {
                        "number": 64,
                        "time": 167.67665026458505,
                        "value": 1
                    },
                    {
                        "number": 64,
                        "time": 168.6636110208351,
                        "value": 0
                    },
                    {
                        "number": 64,
                        "time": 168.73000520625178,
                        "value": 1
                    },
                    {
                        "number": 64,
                        "time": 169.73710801875183,
                        "value": 0
                    },
                    {
                        "number": 64,
                        "time": 169.80723221458516,
                        "value": 1
                    },
                    {
                        "number": 64,
                        "time": 170.8046370000019,
                        "value": 0
                    },
                    {
                        "number": 64,
                        "time": 170.8516351312519,
                        "value": 1
                    },
                    {
                        "number": 64,
                        "time": 172.05269848541855,
                        "value": 0
                    },
                    {
                        "number": 64,
                        "time": 172.97923307291856,
                        "value": 1
                    },
                    {
                        "number": 64,
                        "time": 174.03482602083528,
                        "value": 0
                    },
                    {
                        "number": 64,
                        "time": 174.0870461666686,
                        "value": 1
                    },
                    {
                        "number": 64,
                        "time": 175.10906902083534,
                        "value": 0
                    },
                    {
                        "number": 64,
                        "time": 175.18590723541868,
                        "value": 1
                    },
                    {
                        "number": 64,
                        "time": 176.1758520000021,
                        "value": 0
                    },
                    {
                        "number": 64,
                        "time": 176.24373818958543,
                        "value": 1
                    },
                    {
                        "number": 64,
                        "time": 177.25009500000218,
                        "value": 0
                    },
                    {
                        "number": 64,
                        "time": 177.29709313125218,
                        "value": 1
                    },
                    {
                        "number": 64,
                        "time": 178.49815648541883,
                        "value": 0
                    },
                    {
                        "number": 64,
                        "time": 179.42469107291885,
                        "value": 1
                    },
                    {
                        "number": 64,
                        "time": 180.47804601458557,
                        "value": 0
                    },
                    {
                        "number": 64,
                        "time": 180.54071018958558,
                        "value": 1
                    },
                    {
                        "number": 64,
                        "time": 181.55378101875232,
                        "value": 0
                    },
                    {
                        "number": 64,
                        "time": 181.62092120625232,
                        "value": 1
                    },
                    {
                        "number": 64,
                        "time": 182.62727801666904,
                        "value": 0
                    },
                    {
                        "number": 64,
                        "time": 182.69516420625237,
                        "value": 1
                    },
                    {
                        "number": 64,
                        "time": 183.61722278125242,
                        "value": 0
                    },
                    {
                        "number": 64,
                        "time": 183.63661883541909,
                        "value": 1
                    },
                    {
                        "number": 64,
                        "time": 184.68773577083581,
                        "value": 0
                    },
                    {
                        "number": 64,
                        "time": 184.72652787916914,
                        "value": 1
                    },
                    {
                        "number": 64,
                        "time": 185.85299102500258,
                        "value": 0
                    },
                    {
                        "number": 64,
                        "time": 185.89551314375257,
                        "value": 1
                    },
                    {
                        "number": 64,
                        "time": 186.93320204166923,
                        "value": 0
                    },
                    {
                        "number": 64,
                        "time": 186.97796216666924,
                        "value": 1
                    },
                    {
                        "number": 64,
                        "time": 188.00222302708593,
                        "value": 0
                    },
                    {
                        "number": 64,
                        "time": 188.05220516666927,
                        "value": 1
                    },
                    {
                        "number": 64,
                        "time": 189.07646602708596,
                        "value": 0
                    },
                    {
                        "number": 64,
                        "time": 189.11376613125262,
                        "value": 1
                    },
                    {
                        "number": 64,
                        "time": 190.14921702291926,
                        "value": 0
                    },
                    {
                        "number": 64,
                        "time": 190.21784921458593,
                        "value": 1
                    },
                    {
                        "number": 64,
                        "time": 191.22495202708592,
                        "value": 0
                    },
                    {
                        "number": 64,
                        "time": 191.2831401895859,
                        "value": 1
                    },
                    {
                        "number": 64,
                        "time": 192.29844902500258,
                        "value": 0
                    },
                    {
                        "number": 64,
                        "time": 192.34917716666925,
                        "value": 1
                    },
                    {
                        "number": 64,
                        "time": 193.37343802708594,
                        "value": 0
                    },
                    {
                        "number": 64,
                        "time": 193.4107381312526,
                        "value": 1
                    },
                    {
                        "number": 64,
                        "time": 194.4432050145859,
                        "value": 0
                    },
                    {
                        "number": 64,
                        "time": 196.2753861312526,
                        "value": 1
                    },
                    {
                        "number": 64,
                        "time": 196.59243701666924,
                        "value": 0
                    },
                    {
                        "number": 64,
                        "time": 198.39850806041923,
                        "value": 1
                    },
                    {
                        "number": 64,
                        "time": 198.7401770145859,
                        "value": 0
                    },
                    {
                        "number": 64,
                        "time": 200.5596760958359,
                        "value": 1
                    },
                    {
                        "number": 64,
                        "time": 200.8953770333359,
                        "value": 0
                    },
                    {
                        "number": 64,
                        "time": 201.65928316666924,
                        "value": 1
                    },
                    {
                        "number": 64,
                        "time": 201.96216001250258,
                        "value": 0
                    },
                    {
                        "number": 64,
                        "time": 202.70368608333592,
                        "value": 1
                    },
                    {
                        "number": 64,
                        "time": 203.03789501666924,
                        "value": 0
                    },
                    {
                        "number": 64,
                        "time": 203.07444911875257,
                        "value": 1
                    },
                    {
                        "number": 64,
                        "time": 203.1639693687526,
                        "value": 0
                    },
                    {
                        "number": 64,
                        "time": 203.78613510625257,
                        "value": 1
                    },
                    {
                        "number": 64,
                        "time": 204.1136300208359,
                        "value": 0
                    },
                    {
                        "number": 64,
                        "time": 204.15615213958588,
                        "value": 1
                    },
                    {
                        "number": 64,
                        "time": 204.23746636666922,
                        "value": 0
                    },
                    {
                        "number": 64,
                        "time": 204.85217208333592,
                        "value": 1
                    },
                    {
                        "number": 64,
                        "time": 205.1878730208359,
                        "value": 0
                    },
                    {
                        "number": 64,
                        "time": 205.22293511875256,
                        "value": 1
                    },
                    {
                        "number": 64,
                        "time": 205.39376959583592,
                        "value": 0
                    },
                    {
                        "number": 64,
                        "time": 205.9308910958359,
                        "value": 1
                    },
                    {
                        "number": 64,
                        "time": 206.26062401666923,
                        "value": 0
                    },
                    {
                        "number": 64,
                        "time": 206.3046381395859,
                        "value": 1
                    },
                    {
                        "number": 64,
                        "time": 206.38595236666924,
                        "value": 0
                    },
                    {
                        "number": 64,
                        "time": 207.00065808333594,
                        "value": 1
                    },
                    {
                        "number": 64,
                        "time": 207.33561301875258,
                        "value": 0
                    },
                    {
                        "number": 64,
                        "time": 207.37142111875258,
                        "value": 1
                    },
                    {
                        "number": 64,
                        "time": 207.44825933333593,
                        "value": 0
                    },
                    {
                        "number": 64,
                        "time": 208.07937709583592,
                        "value": 1
                    },
                    {
                        "number": 64,
                        "time": 208.40911001666925,
                        "value": 0
                    },
                    {
                        "number": 64,
                        "time": 209.14914408333593,
                        "value": 1
                    },
                    {
                        "number": 64,
                        "time": 209.48335301666924,
                        "value": 0
                    },
                    {
                        "number": 64,
                        "time": 209.51990711875257,
                        "value": 1
                    },
                    {
                        "number": 64,
                        "time": 209.59674533333592,
                        "value": 0
                    },
                    {
                        "number": 64,
                        "time": 210.22786309583591,
                        "value": 1
                    },
                    {
                        "number": 64,
                        "time": 210.55610401250257,
                        "value": 0
                    },
                    {
                        "number": 64,
                        "time": 211.29763008333592,
                        "value": 1
                    },
                    {
                        "number": 64,
                        "time": 211.6310930145859,
                        "value": 0
                    },
                    {
                        "number": 64,
                        "time": 211.66839311875256,
                        "value": 1
                    },
                    {
                        "number": 64,
                        "time": 211.7452313333359,
                        "value": 0
                    },
                    {
                        "number": 64,
                        "time": 213.45432210625256,
                        "value": 1
                    },
                    {
                        "number": 64,
                        "time": 213.77883301250256,
                        "value": 0
                    },
                    {
                        "number": 64,
                        "time": 214.52856510625256,
                        "value": 1
                    },
                    {
                        "number": 64,
                        "time": 214.85456801666922,
                        "value": 0
                    },
                    {
                        "number": 64,
                        "time": 217.74234208125256,
                        "value": 1
                    },
                    {
                        "number": 64,
                        "time": 218.0772970166692,
                        "value": 0
                    },
                    {
                        "number": 64,
                        "time": 219.5252870604192,
                        "value": 1
                    },
                    {
                        "number": 64,
                        "time": 219.86695601458587,
                        "value": 0
                    },
                    {
                        "number": 64,
                        "time": 220.60773608333588,
                        "value": 1
                    },
                    {
                        "number": 64,
                        "time": 220.94045301250253,
                        "value": 0
                    },
                    {
                        "number": 64,
                        "time": 221.32389808333588,
                        "value": 1
                    },
                    {
                        "number": 64,
                        "time": 221.6603450229192,
                        "value": 0
                    },
                    {
                        "number": 64,
                        "time": 221.68645509583587,
                        "value": 1
                    },
                    {
                        "number": 64,
                        "time": 222.0184260229192,
                        "value": 0
                    },
                    {
                        "number": 64,
                        "time": 222.06169414375253,
                        "value": 1
                    },
                    {
                        "number": 64,
                        "time": 222.37501501875252,
                        "value": 0
                    },
                    {
                        "number": 64,
                        "time": 222.44215520625252,
                        "value": 1
                    },
                    {
                        "number": 64,
                        "time": 222.73831803333587,
                        "value": 0
                    },
                    {
                        "number": 64,
                        "time": 222.7950141916692,
                        "value": 1
                    },
                    {
                        "number": 64,
                        "time": 223.10684306250252,
                        "value": 0
                    },
                    {
                        "number": 64,
                        "time": 223.1374291479192,
                        "value": 1
                    },
                    {
                        "number": 64,
                        "time": 223.45000402083585,
                        "value": 0
                    },
                    {
                        "number": 64,
                        "time": 223.50670017916917,
                        "value": 1
                    },
                    {
                        "number": 64,
                        "time": 224.69060548541916,
                        "value": 0
                    },
                    {
                        "number": 64,
                        "time": 224.90097807291917,
                        "value": 1
                    },
                    {
                        "number": 64,
                        "time": 225.05913051458583,
                        "value": 0
                    },
                    {
                        "number": 64,
                        "time": 225.28069313333583,
                        "value": 1
                    },
                    {
                        "number": 64,
                        "time": 225.44854360208583,
                        "value": 0
                    },
                    {
                        "number": 64,
                        "time": 225.97074506041915,
                        "value": 1
                    },
                    {
                        "number": 64,
                        "time": 226.31390601875248,
                        "value": 0
                    },
                    {
                        "number": 64,
                        "time": 227.05319408333582,
                        "value": 1
                    },
                    {
                        "number": 64,
                        "time": 227.38814901875247,
                        "value": 0
                    },
                    {
                        "number": 64,
                        "time": 228.12743708333582,
                        "value": 1
                    },
                    {
                        "number": 64,
                        "time": 228.46388402291913,
                        "value": 0
                    },
                    {
                        "number": 64,
                        "time": 228.8503131020858,
                        "value": 1
                    },
                    {
                        "number": 64,
                        "time": 229.18004602291913,
                        "value": 0
                    },
                    {
                        "number": 64,
                        "time": 229.20317208750245,
                        "value": 1
                    },
                    {
                        "number": 64,
                        "time": 229.54111103125246,
                        "value": 0
                    },
                    {
                        "number": 64,
                        "time": 229.61123522708579,
                        "value": 1
                    },
                    {
                        "number": 64,
                        "time": 229.89919203125245,
                        "value": 0
                    },
                    {
                        "number": 64,
                        "time": 229.9603642020858,
                        "value": 1
                    },
                    {
                        "number": 64,
                        "time": 231.13606348541913,
                        "value": 0
                    },
                    {
                        "number": 64,
                        "time": 231.34643607291915,
                        "value": 1
                    },
                    {
                        "number": 64,
                        "time": 231.45759038333583,
                        "value": 0
                    },
                    {
                        "number": 64,
                        "time": 231.69929505833582,
                        "value": 1
                    },
                    {
                        "number": 64,
                        "time": 231.80448135208582,
                        "value": 0
                    },
                    {
                        "number": 64,
                        "time": 232.09616816666917,
                        "value": 1
                    },
                    {
                        "number": 64,
                        "time": 233.23009133333585,
                        "value": 0
                    },
                    {
                        "number": 64,
                        "time": 233.4949220729192,
                        "value": 1
                    },
                    {
                        "number": 64,
                        "time": 233.60607638333587,
                        "value": 0
                    },
                    {
                        "number": 64,
                        "time": 233.84778105833587,
                        "value": 1
                    },
                    {
                        "number": 64,
                        "time": 233.95296735208586,
                        "value": 0
                    },
                    {
                        "number": 64,
                        "time": 234.22749611875253,
                        "value": 1
                    },
                    {
                        "number": 64,
                        "time": 234.3296984041692,
                        "value": 0
                    },
                    {
                        "number": 64,
                        "time": 234.56916507291922,
                        "value": 1
                    },
                    {
                        "number": 64,
                        "time": 234.6803193833359,
                        "value": 0
                    },
                    {
                        "number": 64,
                        "time": 234.91829404791923,
                        "value": 1
                    },
                    {
                        "number": 64,
                        "time": 235.0272103520859,
                        "value": 0
                    },
                    {
                        "number": 64,
                        "time": 235.31069114375256,
                        "value": 1
                    },
                    {
                        "number": 64,
                        "time": 235.43825750000255,
                        "value": 0
                    },
                    {
                        "number": 64,
                        "time": 235.64340807291924,
                        "value": 1
                    },
                    {
                        "number": 64,
                        "time": 235.75456238333592,
                        "value": 0
                    },
                    {
                        "number": 64,
                        "time": 235.99626705833592,
                        "value": 1
                    },
                    {
                        "number": 64,
                        "time": 236.1014533520859,
                        "value": 0
                    },
                    {
                        "number": 64,
                        "time": 236.36777609583592,
                        "value": 1
                    },
                    {
                        "number": 64,
                        "time": 238.4819460000024,
                        "value": 0
                    },
                    {
                        "number": 64,
                        "time": 238.57668826458575,
                        "value": 1
                    },
                    {
                        "number": 64,
                        "time": 238.7766168229191,
                        "value": 0
                    },
                    {
                        "number": 64,
                        "time": 239.65093126458578,
                        "value": 1
                    },
                    {
                        "number": 64,
                        "time": 239.85085982291912,
                        "value": 0
                    },
                    {
                        "number": 64,
                        "time": 240.63043200000246,
                        "value": 1
                    },
                    {
                        "number": 64,
                        "time": 240.80947250000247,
                        "value": 0
                    },
                    {
                        "number": 64,
                        "time": 241.72183304791915,
                        "value": 1
                    },
                    {
                        "number": 64,
                        "time": 241.85835142916915,
                        "value": 0
                    },
                    {
                        "number": 64,
                        "time": 242.83412215416914,
                        "value": 1
                    },
                    {
                        "number": 64,
                        "time": 243.8591290166692,
                        "value": 0
                    },
                    {
                        "number": 64,
                        "time": 243.93820523750253,
                        "value": 1
                    },
                    {
                        "number": 64,
                        "time": 244.93486402083593,
                        "value": 0
                    },
                    {
                        "number": 64,
                        "time": 245.0012582062526,
                        "value": 1
                    },
                    {
                        "number": 64,
                        "time": 246.00985302291932,
                        "value": 0
                    },
                    {
                        "number": 64,
                        "time": 246.09638926458598,
                        "value": 1
                    },
                    {
                        "number": 64,
                        "time": 247.0826040187527,
                        "value": 0
                    },
                    {
                        "number": 64,
                        "time": 247.1654102500027,
                        "value": 1
                    },
                    {
                        "number": 64,
                        "time": 248.16505304166944,
                        "value": 0
                    },
                    {
                        "number": 64,
                        "time": 248.23517723750277,
                        "value": 1
                    },
                    {
                        "number": 64,
                        "time": 249.2385500395862,
                        "value": 0
                    },
                    {
                        "number": 64,
                        "time": 249.34373633333618,
                        "value": 1
                    },
                    {
                        "number": 64,
                        "time": 250.30607902083625,
                        "value": 0
                    },
                    {
                        "number": 64,
                        "time": 250.42618535625292,
                        "value": 1
                    },
                    {
                        "number": 64,
                        "time": 251.381814025003,
                        "value": 0
                    },
                    {
                        "number": 64,
                        "time": 251.49222233333631,
                        "value": 1
                    },
                    {
                        "number": 64,
                        "time": 252.46202504166973,
                        "value": 0
                    },
                    {
                        "number": 64,
                        "time": 252.5418472645864,
                        "value": 1
                    },
                    {
                        "number": 64,
                        "time": 253.52657001458647,
                        "value": 0
                    },
                    {
                        "number": 64,
                        "time": 253.6056462354198,
                        "value": 1
                    },
                    {
                        "number": 64,
                        "time": 254.6105110416699,
                        "value": 0
                    },
                    {
                        "number": 64,
                        "time": 254.6977932854199,
                        "value": 1
                    },
                    {
                        "number": 64,
                        "time": 255.6765480187533,
                        "value": 0
                    },
                    {
                        "number": 64,
                        "time": 255.77203628541997,
                        "value": 1
                    },
                    {
                        "number": 64,
                        "time": 256.7589970416699,
                        "value": 0
                    },
                    {
                        "number": 64,
                        "time": 256.81196318958655,
                        "value": 1
                    },
                    {
                        "number": 64,
                        "time": 257.82652602291984,
                        "value": 0
                    },
                    {
                        "number": 64,
                        "time": 257.91306226458653,
                        "value": 1
                    },
                    {
                        "number": 64,
                        "time": 258.89927701875314,
                        "value": 0
                    },
                    {
                        "number": 64,
                        "time": 258.96641720625314,
                        "value": 1
                    },
                    {
                        "number": 64,
                        "time": 259.97202801458644,
                        "value": 0
                    },
                    {
                        "number": 64,
                        "time": 260.07796031041977,
                        "value": 1
                    },
                    {
                        "number": 64,
                        "time": 261.050001025003,
                        "value": 0
                    },
                    {
                        "number": 64,
                        "time": 261.13504526250296,
                        "value": 1
                    },
                    {
                        "number": 64,
                        "time": 262.1257360291695,
                        "value": 0
                    },
                    {
                        "number": 64,
                        "time": 262.2204782937528,
                        "value": 1
                    },
                    {
                        "number": 64,
                        "time": 263.2037090395861,
                        "value": 0
                    },
                    {
                        "number": 64,
                        "time": 263.2835312625028,
                        "value": 1
                    },
                    {
                        "number": 64,
                        "time": 264.273476027086,
                        "value": 0
                    },
                    {
                        "number": 64,
                        "time": 264.3488222375027,
                        "value": 1
                    },
                    {
                        "number": 64,
                        "time": 265.3529410416693,
                        "value": 0
                    },
                    {
                        "number": 64,
                        "time": 265.4402232854193,
                        "value": 1
                    },
                    {
                        "number": 64,
                        "time": 266.42047002291923,
                        "value": 0
                    },
                    {
                        "number": 64,
                        "time": 266.5070062645859,
                        "value": 1
                    },
                    {
                        "number": 64,
                        "time": 267.49620502708586,
                        "value": 0
                    },
                    {
                        "number": 64,
                        "time": 267.56036120625254,
                        "value": 1
                    },
                    {
                        "number": 64,
                        "time": 268.56970202500247,
                        "value": 0
                    },
                    {
                        "number": 64,
                        "time": 268.6801103333358,
                        "value": 1
                    },
                    {
                        "number": 64,
                        "time": 269.64991304166904,
                        "value": 0
                    },
                    {
                        "number": 64,
                        "time": 269.7118312145857,
                        "value": 1
                    },
                    {
                        "number": 64,
                        "time": 270.71893402708565,
                        "value": 0
                    },
                    {
                        "number": 64,
                        "time": 270.78159820208566,
                        "value": 1
                    },
                    {
                        "number": 64,
                        "time": 271.78347900000233,
                        "value": 0
                    },
                    {
                        "number": 64,
                        "time": 272.8577220000023,
                        "value": 1
                    },
                    {
                        "number": 64,
                        "time": 273.9319650000023,
                        "value": 0
                    },
                    {
                        "number": 64,
                        "time": 275.0643961625023,
                        "value": 1
                    },
                    {
                        "number": 64,
                        "time": 275.72759201458564,
                        "value": 0
                    },
                    {
                        "number": 64,
                        "time": 276.1274491312523,
                        "value": 1
                    },
                    {
                        "number": 64,
                        "time": 276.44450001666894,
                        "value": 0
                    },
                    {
                        "number": 64,
                        "time": 276.52805225000225,
                        "value": 1
                    },
                    {
                        "number": 64,
                        "time": 276.80780303125226,
                        "value": 0
                    },
                    {
                        "number": 64,
                        "time": 276.8861332500023,
                        "value": 1
                    },
                    {
                        "number": 64,
                        "time": 277.16513802916893,
                        "value": 0
                    },
                    {
                        "number": 64,
                        "time": 277.2225801895856,
                        "value": 1
                    },
                    {
                        "number": 64,
                        "time": 277.5254570354189,
                        "value": 0
                    },
                    {
                        "number": 64,
                        "time": 277.5896132145856,
                        "value": 1
                    },
                    {
                        "number": 64,
                        "time": 277.87980802500226,
                        "value": 0
                    },
                    {
                        "number": 64,
                        "time": 277.9223301437523,
                        "value": 1
                    },
                    {
                        "number": 64,
                        "time": 278.23714302291893,
                        "value": 0
                    },
                    {
                        "number": 64,
                        "time": 278.9831451062523,
                        "value": 1
                    },
                    {
                        "number": 64,
                        "time": 279.30840201458574,
                        "value": 0
                    },
                    {
                        "number": 64,
                        "time": 280.0573881062525,
                        "value": 1
                    },
                    {
                        "number": 64,
                        "time": 280.3818990125026,
                        "value": 0
                    },
                    {
                        "number": 64,
                        "time": 281.13163110625266,
                        "value": 1
                    },
                    {
                        "number": 64,
                        "time": 281.4561420125027,
                        "value": 0
                    },
                    {
                        "number": 64,
                        "time": 282.2058741062528,
                        "value": 1
                    },
                    {
                        "number": 64,
                        "time": 282.5326230187529,
                        "value": 0
                    },
                    {
                        "number": 64,
                        "time": 282.5624631020862,
                        "value": 1
                    },
                    {
                        "number": 64,
                        "time": 282.7049495000029,
                        "value": 0
                    },
                    {
                        "number": 64,
                        "time": 283.30025916250304,
                        "value": 1
                    },
                    {
                        "number": 64,
                        "time": 283.60761202083637,
                        "value": 0
                    },
                    {
                        "number": 64,
                        "time": 283.63670610208635,
                        "value": 1
                    },
                    {
                        "number": 64,
                        "time": 283.7896365291697,
                        "value": 0
                    },
                    {
                        "number": 64,
                        "time": 284.3640581333364,
                        "value": 1
                    },
                    {
                        "number": 64,
                        "time": 284.6818550208364,
                        "value": 0
                    },
                    {
                        "number": 64,
                        "time": 284.74302719166974,
                        "value": 1
                    },
                    {
                        "number": 64,
                        "time": 284.85865751458635,
                        "value": 0
                    },
                    {
                        "number": 64,
                        "time": 285.4323331166698,
                        "value": 1
                    },
                    {
                        "number": 64,
                        "time": 285.7575900250031,
                        "value": 0
                    },
                    {
                        "number": 64,
                        "time": 285.85382429375306,
                        "value": 1
                    },
                    {
                        "number": 64,
                        "time": 286.08583094166977,
                        "value": 0
                    },
                    {
                        "number": 64,
                        "time": 286.8228810000031,
                        "value": 1
                    },
                    {
                        "number": 64,
                        "time": 288.255205000003,
                        "value": 0
                    }
                ],
                "91": [
                    {
                        "number": 91,
                        "time": 0,
                        "value": 1
                    }
                ]
            },
            "id": 2,
            "name": "Piano left",
            "instrumentNumber": 0,
            "instrument": "acoustic grand piano",
            "instrumentFamily": "piano",
            "channelNumber": 0,
            "isPercussion": false
        },
        {
            "startTime": 0,
            "duration": 0,
            "length": 0,
            "notes": [],
            "controlChanges": {},
            "id": 3,
            "name": "Schubert: Piano sonata in G minor, Op. 143, 3. Movement"
        },
        {
            "startTime": 0,
            "duration": 0,
            "length": 0,
            "notes": [],
            "controlChanges": {},
            "id": 4,
            "name": "Copyright  1999 by Bernd Krger"
        },
        {
            "startTime": 0,
            "duration": 0,
            "length": 0,
            "notes": [],
            "controlChanges": {},
            "id": 5,
            "name": "http://www.piano-midi.de"
        },
        {
            "startTime": 0,
            "duration": 0,
            "length": 0,
            "notes": [],
            "controlChanges": {},
            "id": 6,
            "name": "Edition: 2014-03-17"
        }
    ]
}