{
    "header": {
        "PPQ": 480,
        "timeSignature": [
            2,
            4
        ],
        "bpm": 102.4999743750064,
        "name": "Nr. 4 cis-moll"
    },
    "startTime": 0,
    "duration": 243.51225600000282,
    "tracks": [
        {
            "startTime": 0,
            "duration": 0,
            "length": 0,
            "notes": [],
            "controlChanges": {},
            "id": 0,
            "name": "Nr. 4 cis-moll"
        },
        {
            "startTime": 0.8780490000000001,
            "duration": 240.58542600000283,
            "length": 1515,
            "notes": [
                {
                    "name": "G#4",
                    "midi": 68,
                    "time": 0.8780490000000001,
                    "velocity": 0.47244094488188976,
                    "duration": 0.292683
                },
                {
                    "name": "E4",
                    "midi": 64,
                    "time": 1.170732,
                    "velocity": 0.5196850393700787,
                    "duration": 0.14634150000000012
                },
                {
                    "name": "C#4",
                    "midi": 61,
                    "time": 1.3170735000000002,
                    "velocity": 0.47244094488188976,
                    "duration": 0.14634150000000012
                },
                {
                    "name": "E4",
                    "midi": 64,
                    "time": 1.4634150000000004,
                    "velocity": 0.47244094488188976,
                    "duration": 0.14634150000000012
                },
                {
                    "name": "G#4",
                    "midi": 68,
                    "time": 1.6097565000000005,
                    "velocity": 0.47244094488188976,
                    "duration": 0.14634150000000012
                },
                {
                    "name": "E4",
                    "midi": 64,
                    "time": 1.7560980000000006,
                    "velocity": 0.5039370078740157,
                    "duration": 0.14634150000000012
                },
                {
                    "name": "C#4",
                    "midi": 61,
                    "time": 1.9024395000000007,
                    "velocity": 0.47244094488188976,
                    "duration": 0.14634150000000012
                },
                {
                    "name": "E4",
                    "midi": 64,
                    "time": 2.048781000000001,
                    "velocity": 0.47244094488188976,
                    "duration": 0.14634150000000012
                },
                {
                    "name": "A4",
                    "midi": 69,
                    "time": 2.195122500000001,
                    "velocity": 0.47244094488188976,
                    "duration": 0.14634150000000012
                },
                {
                    "name": "D#4",
                    "midi": 63,
                    "time": 2.341464000000001,
                    "velocity": 0.49606299212598426,
                    "duration": 0.14634150000000012
                },
                {
                    "name": "C4",
                    "midi": 60,
                    "time": 2.4878055000000012,
                    "velocity": 0.47244094488188976,
                    "duration": 0.14634150000000012
                },
                {
                    "name": "D#4",
                    "midi": 63,
                    "time": 2.6341470000000013,
                    "velocity": 0.47244094488188976,
                    "duration": 0.14634150000000012
                },
                {
                    "name": "A4",
                    "midi": 69,
                    "time": 2.7804885000000015,
                    "velocity": 0.47244094488188976,
                    "duration": 0.14634150000000012
                },
                {
                    "name": "D#4",
                    "midi": 63,
                    "time": 2.9268300000000016,
                    "velocity": 0.49606299212598426,
                    "duration": 0.14634150000000012
                },
                {
                    "name": "C4",
                    "midi": 60,
                    "time": 3.0731715000000017,
                    "velocity": 0.47244094488188976,
                    "duration": 0.14634150000000012
                },
                {
                    "name": "D#4",
                    "midi": 63,
                    "time": 3.219513000000002,
                    "velocity": 0.47244094488188976,
                    "duration": 0.14634150000000012
                },
                {
                    "name": "G#4",
                    "midi": 68,
                    "time": 3.365854500000002,
                    "velocity": 0.47244094488188976,
                    "duration": 0.14634150000000012
                },
                {
                    "name": "G#4",
                    "midi": 68,
                    "time": 3.512196000000002,
                    "velocity": 0.5196850393700787,
                    "duration": 0.14634150000000012
                },
                {
                    "name": "E4",
                    "midi": 64,
                    "time": 3.658537500000002,
                    "velocity": 0.49606299212598426,
                    "duration": 0.14634150000000012
                },
                {
                    "name": "G#4",
                    "midi": 68,
                    "time": 3.8048790000000023,
                    "velocity": 0.49606299212598426,
                    "duration": 0.14634150000000012
                },
                {
                    "name": "E5",
                    "midi": 76,
                    "time": 3.9512205000000025,
                    "velocity": 0.49606299212598426,
                    "duration": 0.14634150000000012
                },
                {
                    "name": "G#4",
                    "midi": 68,
                    "time": 4.097562000000003,
                    "velocity": 0.5196850393700787,
                    "duration": 0.14634150000000012
                },
                {
                    "name": "E4",
                    "midi": 64,
                    "time": 4.243903500000003,
                    "velocity": 0.49606299212598426,
                    "duration": 0.14634150000000012
                },
                {
                    "name": "G#4",
                    "midi": 68,
                    "time": 4.390245000000003,
                    "velocity": 0.49606299212598426,
                    "duration": 0.14634150000000012
                },
                {
                    "name": "C#5",
                    "midi": 73,
                    "time": 4.536586500000003,
                    "velocity": 0.49606299212598426,
                    "duration": 0.14634150000000012
                },
                {
                    "name": "A4",
                    "midi": 69,
                    "time": 4.682928000000003,
                    "velocity": 0.5275590551181102,
                    "duration": 0.14634150000000012
                },
                {
                    "name": "G#4",
                    "midi": 68,
                    "time": 4.829269500000003,
                    "velocity": 0.47244094488188976,
                    "duration": 0.14634150000000012
                },
                {
                    "name": "F#4",
                    "midi": 66,
                    "time": 4.975611000000003,
                    "velocity": 0.48031496062992124,
                    "duration": 0.14634150000000012
                },
                {
                    "name": "C#5",
                    "midi": 73,
                    "time": 5.1219525000000035,
                    "velocity": 0.4881889763779528,
                    "duration": 0.14634150000000012
                },
                {
                    "name": "C5",
                    "midi": 72,
                    "time": 5.268294000000004,
                    "velocity": 0.5354330708661418,
                    "duration": 0.14634150000000012
                },
                {
                    "name": "F#4",
                    "midi": 66,
                    "time": 5.414635500000004,
                    "velocity": 0.5118110236220472,
                    "duration": 0.14634150000000012
                },
                {
                    "name": "G#4",
                    "midi": 68,
                    "time": 5.560977000000004,
                    "velocity": 0.5196850393700787,
                    "duration": 0.14634150000000012
                },
                {
                    "name": "C5",
                    "midi": 72,
                    "time": 5.707318500000004,
                    "velocity": 0.5275590551181102,
                    "duration": 0.14634150000000012
                },
                {
                    "name": "C#5",
                    "midi": 73,
                    "time": 5.853660000000004,
                    "velocity": 0.5669291338582677,
                    "duration": 0.14634150000000012
                },
                {
                    "name": "E4",
                    "midi": 64,
                    "time": 6.000001500000004,
                    "velocity": 0.49606299212598426,
                    "duration": 0.14634150000000012
                },
                {
                    "name": "G#4",
                    "midi": 68,
                    "time": 6.146343000000004,
                    "velocity": 0.5118110236220472,
                    "duration": 0.14634150000000012
                },
                {
                    "name": "C#5",
                    "midi": 73,
                    "time": 6.2926845000000045,
                    "velocity": 0.5275590551181102,
                    "duration": 0.14634150000000012
                },
                {
                    "name": "E5",
                    "midi": 76,
                    "time": 6.439026000000005,
                    "velocity": 0.5433070866141733,
                    "duration": 0.14634150000000012
                },
                {
                    "name": "G#4",
                    "midi": 68,
                    "time": 6.585367500000005,
                    "velocity": 0.5039370078740157,
                    "duration": 0.14634150000000012
                },
                {
                    "name": "E5",
                    "midi": 76,
                    "time": 6.731709000000005,
                    "velocity": 0.5196850393700787,
                    "duration": 0.14634150000000012
                },
                {
                    "name": "G#5",
                    "midi": 80,
                    "time": 6.878050500000005,
                    "velocity": 0.5354330708661418,
                    "duration": 0.14634150000000012
                },
                {
                    "name": "E5",
                    "midi": 76,
                    "time": 7.024392000000005,
                    "velocity": 0.5748031496062992,
                    "duration": 0.14634150000000012
                },
                {
                    "name": "A4",
                    "midi": 69,
                    "time": 7.170733500000005,
                    "velocity": 0.5039370078740157,
                    "duration": 0.14634150000000012
                },
                {
                    "name": "E5",
                    "midi": 76,
                    "time": 7.317075000000005,
                    "velocity": 0.5196850393700787,
                    "duration": 0.14634150000000012
                },
                {
                    "name": "G#5",
                    "midi": 80,
                    "time": 7.4634165000000054,
                    "velocity": 0.5354330708661418,
                    "duration": 0.14634150000000012
                },
                {
                    "name": "D5",
                    "midi": 74,
                    "time": 7.609758000000006,
                    "velocity": 0.5511811023622047,
                    "duration": 0.14634150000000012
                },
                {
                    "name": "F#5",
                    "midi": 78,
                    "time": 7.756099500000006,
                    "velocity": 0.5275590551181102,
                    "duration": 0.14634150000000012
                },
                {
                    "name": "C#5",
                    "midi": 73,
                    "time": 7.902441000000006,
                    "velocity": 0.5511811023622047,
                    "duration": 0.14634149999999924
                },
                {
                    "name": "E5",
                    "midi": 76,
                    "time": 8.048782500000005,
                    "velocity": 0.5275590551181102,
                    "duration": 0.14634150000000012
                },
                {
                    "name": "C5",
                    "midi": 72,
                    "time": 8.195124000000005,
                    "velocity": 0.5354330708661418,
                    "duration": 0.14634150000000012
                },
                {
                    "name": "D#5",
                    "midi": 75,
                    "time": 8.341465500000005,
                    "velocity": 0.5118110236220472,
                    "duration": 0.14634150000000012
                },
                {
                    "name": "C#5",
                    "midi": 73,
                    "time": 8.487807000000005,
                    "velocity": 0.5275590551181102,
                    "duration": 0.14634150000000012
                },
                {
                    "name": "E5",
                    "midi": 76,
                    "time": 8.634148500000006,
                    "velocity": 0.5118110236220472,
                    "duration": 0.14634150000000012
                },
                {
                    "name": "D#5",
                    "midi": 75,
                    "time": 8.780490000000006,
                    "velocity": 0.5354330708661418,
                    "duration": 0.14634150000000012
                },
                {
                    "name": "F#5",
                    "midi": 78,
                    "time": 8.926831500000006,
                    "velocity": 0.5039370078740157,
                    "duration": 0.14634150000000012
                },
                {
                    "name": "C5",
                    "midi": 72,
                    "time": 9.073173000000006,
                    "velocity": 0.5433070866141733,
                    "duration": 0.14634150000000012
                },
                {
                    "name": "D#5",
                    "midi": 75,
                    "time": 9.219514500000006,
                    "velocity": 0.5039370078740157,
                    "duration": 0.14634150000000012
                },
                {
                    "name": "E5",
                    "midi": 76,
                    "time": 9.365856000000006,
                    "velocity": 0.5354330708661418,
                    "duration": 0.14634150000000012
                },
                {
                    "name": "C#5",
                    "midi": 73,
                    "time": 9.512197500000006,
                    "velocity": 0.5275590551181102,
                    "duration": 0.14634150000000012
                },
                {
                    "name": "B4",
                    "midi": 71,
                    "time": 9.658539000000006,
                    "velocity": 0.5196850393700787,
                    "duration": 0.14634150000000012
                },
                {
                    "name": "A4",
                    "midi": 69,
                    "time": 9.804880500000007,
                    "velocity": 0.5039370078740157,
                    "duration": 0.14634150000000012
                },
                {
                    "name": "G#4",
                    "midi": 68,
                    "time": 9.951222000000007,
                    "velocity": 0.49606299212598426,
                    "duration": 0.14634150000000012
                },
                {
                    "name": "F#4",
                    "midi": 66,
                    "time": 10.097563500000007,
                    "velocity": 0.4881889763779528,
                    "duration": 0.14634150000000012
                },
                {
                    "name": "E4",
                    "midi": 64,
                    "time": 10.243905000000007,
                    "velocity": 0.47244094488188976,
                    "duration": 0.14634150000000012
                },
                {
                    "name": "D#4",
                    "midi": 63,
                    "time": 10.390246500000007,
                    "velocity": 0.4645669291338583,
                    "duration": 0.14634150000000012
                },
                {
                    "name": "E4",
                    "midi": 64,
                    "time": 10.536588000000007,
                    "velocity": 0.4881889763779528,
                    "duration": 0.14634150000000012
                },
                {
                    "name": "C#4",
                    "midi": 61,
                    "time": 10.682929500000007,
                    "velocity": 0.44881889763779526,
                    "duration": 0.14634150000000012
                },
                {
                    "name": "E4",
                    "midi": 64,
                    "time": 10.829271000000007,
                    "velocity": 0.44881889763779526,
                    "duration": 0.14634150000000012
                },
                {
                    "name": "G#4",
                    "midi": 68,
                    "time": 10.975612500000008,
                    "velocity": 0.44881889763779526,
                    "duration": 0.14634150000000012
                },
                {
                    "name": "E4",
                    "midi": 64,
                    "time": 11.121954000000008,
                    "velocity": 0.47244094488188976,
                    "duration": 0.14634150000000012
                },
                {
                    "name": "C#4",
                    "midi": 61,
                    "time": 11.268295500000008,
                    "velocity": 0.44881889763779526,
                    "duration": 0.14634150000000012
                },
                {
                    "name": "E4",
                    "midi": 64,
                    "time": 11.414637000000008,
                    "velocity": 0.44881889763779526,
                    "duration": 0.14634150000000012
                },
                {
                    "name": "A4",
                    "midi": 69,
                    "time": 11.560978500000008,
                    "velocity": 0.44881889763779526,
                    "duration": 0.14634150000000012
                },
                {
                    "name": "D#4",
                    "midi": 63,
                    "time": 11.707320000000008,
                    "velocity": 0.4645669291338583,
                    "duration": 0.14634150000000012
                },
                {
                    "name": "B3",
                    "midi": 59,
                    "time": 11.853661500000008,
                    "velocity": 0.44881889763779526,
                    "duration": 0.14634150000000012
                },
                {
                    "name": "D#4",
                    "midi": 63,
                    "time": 12.000003000000008,
                    "velocity": 0.44881889763779526,
                    "duration": 0.14634150000000012
                },
                {
                    "name": "A4",
                    "midi": 69,
                    "time": 12.146344500000009,
                    "velocity": 0.44881889763779526,
                    "duration": 0.14634150000000012
                },
                {
                    "name": "D#4",
                    "midi": 63,
                    "time": 12.292686000000009,
                    "velocity": 0.4645669291338583,
                    "duration": 0.14634150000000012
                },
                {
                    "name": "B3",
                    "midi": 59,
                    "time": 12.439027500000009,
                    "velocity": 0.44881889763779526,
                    "duration": 0.14634150000000012
                },
                {
                    "name": "D#4",
                    "midi": 63,
                    "time": 12.585369000000009,
                    "velocity": 0.44881889763779526,
                    "duration": 0.14634150000000012
                },
                {
                    "name": "G#4",
                    "midi": 68,
                    "time": 12.731710500000009,
                    "velocity": 0.44881889763779526,
                    "duration": 0.14634150000000012
                },
                {
                    "name": "G#4",
                    "midi": 68,
                    "time": 12.87805200000001,
                    "velocity": 0.4881889763779528,
                    "duration": 0.14634150000000012
                },
                {
                    "name": "C#4",
                    "midi": 61,
                    "time": 13.02439350000001,
                    "velocity": 0.4645669291338583,
                    "duration": 0.14634150000000012
                },
                {
                    "name": "G#4",
                    "midi": 68,
                    "time": 13.17073500000001,
                    "velocity": 0.4645669291338583,
                    "duration": 0.14634150000000012
                },
                {
                    "name": "C#5",
                    "midi": 73,
                    "time": 13.31707650000001,
                    "velocity": 0.4645669291338583,
                    "duration": 0.14634150000000012
                },
                {
                    "name": "F#4",
                    "midi": 66,
                    "time": 13.46341800000001,
                    "velocity": 0.4881889763779528,
                    "duration": 0.14634150000000012
                },
                {
                    "name": "D#4",
                    "midi": 63,
                    "time": 13.60975950000001,
                    "velocity": 0.4645669291338583,
                    "duration": 0.14634150000000012
                },
                {
                    "name": "F#4",
                    "midi": 66,
                    "time": 13.75610100000001,
                    "velocity": 0.4645669291338583,
                    "duration": 0.14634150000000012
                },
                {
                    "name": "C#5",
                    "midi": 73,
                    "time": 13.90244250000001,
                    "velocity": 0.4645669291338583,
                    "duration": 0.14634150000000012
                },
                {
                    "name": "G#4",
                    "midi": 68,
                    "time": 14.04878400000001,
                    "velocity": 0.49606299212598426,
                    "duration": 0.14634150000000012
                },
                {
                    "name": "E4",
                    "midi": 64,
                    "time": 14.19512550000001,
                    "velocity": 0.4645669291338583,
                    "duration": 0.14634150000000012
                },
                {
                    "name": "G#4",
                    "midi": 68,
                    "time": 14.34146700000001,
                    "velocity": 0.4645669291338583,
                    "duration": 0.14634150000000012
                },
                {
                    "name": "C#5",
                    "midi": 73,
                    "time": 14.48780850000001,
                    "velocity": 0.4645669291338583,
                    "duration": 0.14634150000000012
                },
                {
                    "name": "G#4",
                    "midi": 68,
                    "time": 14.63415000000001,
                    "velocity": 0.4881889763779528,
                    "duration": 0.14634150000000012
                },
                {
                    "name": "E4",
                    "midi": 64,
                    "time": 14.78049150000001,
                    "velocity": 0.47244094488188976,
                    "duration": 0.14634150000000012
                },
                {
                    "name": "G#4",
                    "midi": 68,
                    "time": 14.926833000000011,
                    "velocity": 0.47244094488188976,
                    "duration": 0.14634150000000012
                },
                {
                    "name": "B4",
                    "midi": 71,
                    "time": 15.073174500000011,
                    "velocity": 0.47244094488188976,
                    "duration": 0.14634150000000012
                },
                {
                    "name": "G4",
                    "midi": 67,
                    "time": 15.219516000000011,
                    "velocity": 0.5354330708661418,
                    "duration": 0.14634150000000012
                },
                {
                    "name": "E4",
                    "midi": 64,
                    "time": 15.365857500000011,
                    "velocity": 0.4645669291338583,
                    "duration": 0.14634150000000012
                },
                {
                    "name": "G4",
                    "midi": 67,
                    "time": 15.512199000000011,
                    "velocity": 0.48031496062992124,
                    "duration": 0.14634150000000012
                },
                {
                    "name": "A#4",
                    "midi": 70,
                    "time": 15.658540500000012,
                    "velocity": 0.49606299212598426,
                    "duration": 0.14634150000000012
                },
                {
                    "name": "E5",
                    "midi": 76,
                    "time": 15.804882000000012,
                    "velocity": 0.5118110236220472,
                    "duration": 0.14634150000000012
                },
                {
                    "name": "A#4",
                    "midi": 70,
                    "time": 15.951223500000012,
                    "velocity": 0.47244094488188976,
                    "duration": 0.14634149999999835
                },
                {
                    "name": "E5",
                    "midi": 76,
                    "time": 16.09756500000001,
                    "velocity": 0.4881889763779528,
                    "duration": 0.14634149999999835
                },
                {
                    "name": "G5",
                    "midi": 79,
                    "time": 16.24390650000001,
                    "velocity": 0.5039370078740157,
                    "duration": 0.14634149999999835
                },
                {
                    "name": "D#5",
                    "midi": 75,
                    "time": 16.390248000000007,
                    "velocity": 0.5039370078740157,
                    "duration": 0.14634149999999835
                },
                {
                    "name": "G5",
                    "midi": 79,
                    "time": 16.536589500000005,
                    "velocity": 0.4881889763779528,
                    "duration": 0.14634149999999835
                },
                {
                    "name": "D#5",
                    "midi": 75,
                    "time": 16.682931000000004,
                    "velocity": 0.49606299212598426,
                    "duration": 0.14634149999999835
                },
                {
                    "name": "F#5",
                    "midi": 78,
                    "time": 16.829272500000002,
                    "velocity": 0.48031496062992124,
                    "duration": 0.14634149999999835
                },
                {
                    "name": "A4",
                    "midi": 69,
                    "time": 16.975614,
                    "velocity": 0.4881889763779528,
                    "duration": 0.14634149999999835
                },
                {
                    "name": "E5",
                    "midi": 76,
                    "time": 17.1219555,
                    "velocity": 0.48031496062992124,
                    "duration": 0.14634149999999835
                },
                {
                    "name": "A4",
                    "midi": 69,
                    "time": 17.268296999999997,
                    "velocity": 0.4881889763779528,
                    "duration": 0.14634149999999835
                },
                {
                    "name": "D#5",
                    "midi": 75,
                    "time": 17.414638499999995,
                    "velocity": 0.47244094488188976,
                    "duration": 0.14634149999999835
                },
                {
                    "name": "A4",
                    "midi": 69,
                    "time": 17.560979999999994,
                    "velocity": 0.4645669291338583,
                    "duration": 0.14634149999999835
                },
                {
                    "name": "F#5",
                    "midi": 78,
                    "time": 17.707321499999992,
                    "velocity": 0.4409448818897638,
                    "duration": 0.14634149999999835
                },
                {
                    "name": "G#4",
                    "midi": 68,
                    "time": 17.85366299999999,
                    "velocity": 0.4645669291338583,
                    "duration": 0.14634149999999835
                },
                {
                    "name": "E5",
                    "midi": 76,
                    "time": 18.00000449999999,
                    "velocity": 0.4409448818897638,
                    "duration": 0.14634149999999835
                },
                {
                    "name": "E4",
                    "midi": 64,
                    "time": 18.146345999999987,
                    "velocity": 0.4566929133858268,
                    "duration": 0.14634149999999835
                },
                {
                    "name": "C#5",
                    "midi": 73,
                    "time": 18.292687499999985,
                    "velocity": 0.4330708661417323,
                    "duration": 0.14634149999999835
                },
                {
                    "name": "C#4",
                    "midi": 61,
                    "time": 18.439028999999984,
                    "velocity": 0.44881889763779526,
                    "duration": 0.14634149999999835
                },
                {
                    "name": "A4",
                    "midi": 69,
                    "time": 18.585370499999982,
                    "velocity": 0.4330708661417323,
                    "duration": 0.14634149999999835
                },
                {
                    "name": "B3",
                    "midi": 59,
                    "time": 18.73171199999998,
                    "velocity": 0.44881889763779526,
                    "duration": 0.14634149999999835
                },
                {
                    "name": "G#4",
                    "midi": 68,
                    "time": 18.87805349999998,
                    "velocity": 0.4330708661417323,
                    "duration": 0.14634149999999835
                },
                {
                    "name": "E4",
                    "midi": 64,
                    "time": 19.024394999999977,
                    "velocity": 0.44881889763779526,
                    "duration": 0.14634149999999835
                },
                {
                    "name": "B4",
                    "midi": 71,
                    "time": 19.170736499999975,
                    "velocity": 0.4409448818897638,
                    "duration": 0.14634149999999835
                },
                {
                    "name": "B3",
                    "midi": 59,
                    "time": 19.317077999999974,
                    "velocity": 0.44881889763779526,
                    "duration": 0.14634149999999835
                },
                {
                    "name": "A4",
                    "midi": 69,
                    "time": 19.463419499999972,
                    "velocity": 0.4409448818897638,
                    "duration": 0.14634149999999835
                },
                {
                    "name": "D#4",
                    "midi": 63,
                    "time": 19.60976099999997,
                    "velocity": 0.44881889763779526,
                    "duration": 0.14634149999999835
                },
                {
                    "name": "B4",
                    "midi": 71,
                    "time": 19.75610249999997,
                    "velocity": 0.4409448818897638,
                    "duration": 0.14634149999999835
                },
                {
                    "name": "A4",
                    "midi": 69,
                    "time": 19.902443999999967,
                    "velocity": 0.44881889763779526,
                    "duration": 0.43902449999999504
                },
                {
                    "name": "D#4",
                    "midi": 63,
                    "time": 20.048785499999966,
                    "velocity": 0.4251968503937008,
                    "duration": 0.14634149999999835
                },
                {
                    "name": "B3",
                    "midi": 59,
                    "time": 20.195126999999964,
                    "velocity": 0.4251968503937008,
                    "duration": 0.14634149999999835
                },
                {
                    "name": "A4",
                    "midi": 69,
                    "time": 20.341468499999962,
                    "velocity": 0.44881889763779526,
                    "duration": 0.14634149999999835
                },
                {
                    "name": "G#4",
                    "midi": 68,
                    "time": 20.48780999999996,
                    "velocity": 0.44881889763779526,
                    "duration": 0.14634149999999835
                },
                {
                    "name": "E4",
                    "midi": 64,
                    "time": 20.63415149999996,
                    "velocity": 0.41732283464566927,
                    "duration": 0.14634149999999835
                },
                {
                    "name": "G#4",
                    "midi": 68,
                    "time": 20.780492999999957,
                    "velocity": 0.4330708661417323,
                    "duration": 0.14634149999999835
                },
                {
                    "name": "A4",
                    "midi": 69,
                    "time": 20.926834499999956,
                    "velocity": 0.44881889763779526,
                    "duration": 0.14634149999999835
                },
                {
                    "name": "B4",
                    "midi": 71,
                    "time": 21.073175999999954,
                    "velocity": 0.4645669291338583,
                    "duration": 0.14634149999999835
                },
                {
                    "name": "G#4",
                    "midi": 68,
                    "time": 21.219517499999952,
                    "velocity": 0.3937007874015748,
                    "duration": 0.14634149999999835
                },
                {
                    "name": "B4",
                    "midi": 71,
                    "time": 21.36585899999995,
                    "velocity": 0.41732283464566927,
                    "duration": 0.14634149999999835
                },
                {
                    "name": "G#5",
                    "midi": 80,
                    "time": 21.51220049999995,
                    "velocity": 0.36220472440944884,
                    "duration": 0.14634149999999835
                },
                {
                    "name": "B4",
                    "midi": 71,
                    "time": 21.658541999999947,
                    "velocity": 0.3858267716535433,
                    "duration": 0.14634149999999835
                },
                {
                    "name": "F#5",
                    "midi": 78,
                    "time": 21.804883499999946,
                    "velocity": 0.3464566929133858,
                    "duration": 0.14634149999999835
                },
                {
                    "name": "C5",
                    "midi": 72,
                    "time": 21.951224999999944,
                    "velocity": 0.3858267716535433,
                    "duration": 0.14634149999999835
                },
                {
                    "name": "E5",
                    "midi": 76,
                    "time": 22.097566499999942,
                    "velocity": 0.36220472440944884,
                    "duration": 0.14634149999999835
                },
                {
                    "name": "C#5",
                    "midi": 73,
                    "time": 22.24390799999994,
                    "velocity": 0.41732283464566927,
                    "duration": 0.14634149999999835
                },
                {
                    "name": "E4",
                    "midi": 64,
                    "time": 22.39024949999994,
                    "velocity": 0.4409448818897638,
                    "duration": 0.14634149999999835
                },
                {
                    "name": "C#5",
                    "midi": 73,
                    "time": 22.536590999999937,
                    "velocity": 0.4251968503937008,
                    "duration": 0.14634149999999835
                },
                {
                    "name": "E5",
                    "midi": 76,
                    "time": 22.682932499999936,
                    "velocity": 0.4330708661417323,
                    "duration": 0.14634149999999835
                },
                {
                    "name": "B4",
                    "midi": 71,
                    "time": 22.829273999999934,
                    "velocity": 0.4645669291338583,
                    "duration": 0.14634149999999835
                },
                {
                    "name": "D#5",
                    "midi": 75,
                    "time": 22.975615499999932,
                    "velocity": 0.4251968503937008,
                    "duration": 0.14634149999999835
                },
                {
                    "name": "A4",
                    "midi": 69,
                    "time": 23.12195699999993,
                    "velocity": 0.44881889763779526,
                    "duration": 0.14634149999999835
                },
                {
                    "name": "C#5",
                    "midi": 73,
                    "time": 23.26829849999993,
                    "velocity": 0.4251968503937008,
                    "duration": 0.14634149999999835
                },
                {
                    "name": "G#4",
                    "midi": 68,
                    "time": 23.414639999999928,
                    "velocity": 0.44881889763779526,
                    "duration": 0.14634149999999835
                },
                {
                    "name": "B3",
                    "midi": 59,
                    "time": 23.560981499999926,
                    "velocity": 0.4251968503937008,
                    "duration": 0.14634149999999835
                },
                {
                    "name": "G#4",
                    "midi": 68,
                    "time": 23.707322999999924,
                    "velocity": 0.4251968503937008,
                    "duration": 0.14634149999999835
                },
                {
                    "name": "B4",
                    "midi": 71,
                    "time": 23.853664499999923,
                    "velocity": 0.4251968503937008,
                    "duration": 0.14634149999999835
                },
                {
                    "name": "E4",
                    "midi": 64,
                    "time": 24.00000599999992,
                    "velocity": 0.44881889763779526,
                    "duration": 0.14634149999999835
                },
                {
                    "name": "A#3",
                    "midi": 58,
                    "time": 24.14634749999992,
                    "velocity": 0.4015748031496063,
                    "duration": 0.14634149999999835
                },
                {
                    "name": "E4",
                    "midi": 64,
                    "time": 24.292688999999918,
                    "velocity": 0.4094488188976378,
                    "duration": 0.14634149999999835
                },
                {
                    "name": "C#5",
                    "midi": 73,
                    "time": 24.439030499999916,
                    "velocity": 0.4094488188976378,
                    "duration": 0.14634149999999835
                },
                {
                    "name": "F#4",
                    "midi": 66,
                    "time": 24.585371999999914,
                    "velocity": 0.4251968503937008,
                    "duration": 0.14634149999999835
                },
                {
                    "name": "A3",
                    "midi": 57,
                    "time": 24.731713499999913,
                    "velocity": 0.3858267716535433,
                    "duration": 0.14634149999999835
                },
                {
                    "name": "F#4",
                    "midi": 66,
                    "time": 24.87805499999991,
                    "velocity": 0.3858267716535433,
                    "duration": 0.14634149999999835
                },
                {
                    "name": "B4",
                    "midi": 71,
                    "time": 25.02439649999991,
                    "velocity": 0.3858267716535433,
                    "duration": 0.14634149999999835
                },
                {
                    "name": "F#4",
                    "midi": 66,
                    "time": 25.170737999999908,
                    "velocity": 0.41732283464566927,
                    "duration": 0.14634149999999835
                },
                {
                    "name": "A3",
                    "midi": 57,
                    "time": 25.317079499999906,
                    "velocity": 0.3779527559055118,
                    "duration": 0.14634149999999835
                },
                {
                    "name": "F#4",
                    "midi": 66,
                    "time": 25.463420999999904,
                    "velocity": 0.3779527559055118,
                    "duration": 0.14634149999999835
                },
                {
                    "name": "B4",
                    "midi": 71,
                    "time": 25.609762499999903,
                    "velocity": 0.3779527559055118,
                    "duration": 0.14634149999999835
                },
                {
                    "name": "E4",
                    "midi": 64,
                    "time": 25.7561039999999,
                    "velocity": 0.3779527559055118,
                    "duration": 0.14634149999999835
                },
                {
                    "name": "G#3",
                    "midi": 56,
                    "time": 25.9024454999999,
                    "velocity": 0.3464566929133858,
                    "duration": 0.14634149999999835
                },
                {
                    "name": "E4",
                    "midi": 64,
                    "time": 26.048786999999898,
                    "velocity": 0.3464566929133858,
                    "duration": 0.14634149999999835
                },
                {
                    "name": "G#4",
                    "midi": 68,
                    "time": 26.195128499999896,
                    "velocity": 0.3464566929133858,
                    "duration": 0.14634149999999835
                },
                {
                    "name": "D#4",
                    "midi": 63,
                    "time": 26.926835999999895,
                    "velocity": 0.3779527559055118,
                    "duration": 0.14634149999999835
                },
                {
                    "name": "A3",
                    "midi": 57,
                    "time": 27.073177499999893,
                    "velocity": 0.33858267716535434,
                    "duration": 0.14634149999999835
                },
                {
                    "name": "D#4",
                    "midi": 63,
                    "time": 27.21951899999989,
                    "velocity": 0.33858267716535434,
                    "duration": 0.14634149999999835
                },
                {
                    "name": "B4",
                    "midi": 71,
                    "time": 27.36586049999989,
                    "velocity": 0.33858267716535434,
                    "duration": 0.14634149999999835
                },
                {
                    "name": "E4",
                    "midi": 64,
                    "time": 28.09756799999989,
                    "velocity": 0.3779527559055118,
                    "duration": 0.14634149999999835
                },
                {
                    "name": "G#3",
                    "midi": 56,
                    "time": 28.243909499999887,
                    "velocity": 0.3543307086614173,
                    "duration": 0.14634149999999835
                },
                {
                    "name": "E4",
                    "midi": 64,
                    "time": 28.390250999999886,
                    "velocity": 0.3543307086614173,
                    "duration": 0.14634149999999835
                },
                {
                    "name": "G#4",
                    "midi": 68,
                    "time": 28.536592499999884,
                    "velocity": 0.3543307086614173,
                    "duration": 0.14634149999999835
                },
                {
                    "name": "G#4",
                    "midi": 68,
                    "time": 28.682933999999882,
                    "velocity": 0.3464566929133858,
                    "duration": 0.14634149999999835
                },
                {
                    "name": "B4",
                    "midi": 71,
                    "time": 28.82927549999988,
                    "velocity": 0.3858267716535433,
                    "duration": 0.14634149999999835
                },
                {
                    "name": "E5",
                    "midi": 76,
                    "time": 28.97561699999988,
                    "velocity": 0.41732283464566927,
                    "duration": 0.14634149999999835
                },
                {
                    "name": "G#5",
                    "midi": 80,
                    "time": 29.121958499999877,
                    "velocity": 0.4566929133858268,
                    "duration": 0.14634149999999835
                },
                {
                    "name": "G#5",
                    "midi": 80,
                    "time": 29.268299999999876,
                    "velocity": 0.4881889763779528,
                    "duration": 0.2926829999999967
                },
                {
                    "name": "G#4",
                    "midi": 68,
                    "time": 29.414641499999874,
                    "velocity": 0.36220472440944884,
                    "duration": 0.14634149999999835
                },
                {
                    "name": "E5",
                    "midi": 76,
                    "time": 29.560982999999872,
                    "velocity": 0.4409448818897638,
                    "duration": 0.2926829999999967
                },
                {
                    "name": "G#4",
                    "midi": 68,
                    "time": 29.70732449999987,
                    "velocity": 0.3700787401574803,
                    "duration": 0.14634149999999835
                },
                {
                    "name": "D#5",
                    "midi": 75,
                    "time": 29.85366599999987,
                    "velocity": 0.41732283464566927,
                    "duration": 0.2926829999999967
                },
                {
                    "name": "G#4",
                    "midi": 68,
                    "time": 30.000007499999867,
                    "velocity": 0.3464566929133858,
                    "duration": 0.14634149999999835
                },
                {
                    "name": "D5",
                    "midi": 74,
                    "time": 30.146348999999866,
                    "velocity": 0.3937007874015748,
                    "duration": 0.2926829999999967
                },
                {
                    "name": "G#4",
                    "midi": 68,
                    "time": 30.292690499999864,
                    "velocity": 0.3464566929133858,
                    "duration": 0.14634149999999835
                },
                {
                    "name": "C#5",
                    "midi": 73,
                    "time": 30.439031999999862,
                    "velocity": 0.3779527559055118,
                    "duration": 0.14634149999999835
                },
                {
                    "name": "C#4",
                    "midi": 61,
                    "time": 30.58537349999986,
                    "velocity": 0.33858267716535434,
                    "duration": 0.14634149999999835
                },
                {
                    "name": "A4",
                    "midi": 69,
                    "time": 30.73171499999986,
                    "velocity": 0.33858267716535434,
                    "duration": 0.14634149999999835
                },
                {
                    "name": "C#5",
                    "midi": 73,
                    "time": 30.878056499999857,
                    "velocity": 0.33858267716535434,
                    "duration": 0.14634149999999835
                },
                {
                    "name": "G#4",
                    "midi": 68,
                    "time": 31.609763999999856,
                    "velocity": 0.3779527559055118,
                    "duration": 0.14634149999999835
                },
                {
                    "name": "D4",
                    "midi": 62,
                    "time": 31.756105499999855,
                    "velocity": 0.33070866141732286,
                    "duration": 0.14634149999999835
                },
                {
                    "name": "G#4",
                    "midi": 68,
                    "time": 31.902446999999853,
                    "velocity": 0.33070866141732286,
                    "duration": 0.14634149999999835
                },
                {
                    "name": "E5",
                    "midi": 76,
                    "time": 32.04878849999985,
                    "velocity": 0.33070866141732286,
                    "duration": 0.14634149999999835
                },
                {
                    "name": "A4",
                    "midi": 69,
                    "time": 32.78049599999985,
                    "velocity": 0.3779527559055118,
                    "duration": 0.14634149999999835
                },
                {
                    "name": "C#4",
                    "midi": 61,
                    "time": 32.92683749999985,
                    "velocity": 0.33070866141732286,
                    "duration": 0.14634149999999835
                },
                {
                    "name": "A4",
                    "midi": 69,
                    "time": 33.07317899999985,
                    "velocity": 0.33070866141732286,
                    "duration": 0.14634149999999835
                },
                {
                    "name": "C#5",
                    "midi": 73,
                    "time": 33.219520499999845,
                    "velocity": 0.33858267716535434,
                    "duration": 0.14634149999999835
                },
                {
                    "name": "C#5",
                    "midi": 73,
                    "time": 33.365861999999844,
                    "velocity": 0.33858267716535434,
                    "duration": 0.14634149999999835
                },
                {
                    "name": "E5",
                    "midi": 76,
                    "time": 33.51220349999984,
                    "velocity": 0.3779527559055118,
                    "duration": 0.14634149999999835
                },
                {
                    "name": "A5",
                    "midi": 81,
                    "time": 33.65854499999984,
                    "velocity": 0.41732283464566927,
                    "duration": 0.14634149999999835
                },
                {
                    "name": "C#6",
                    "midi": 85,
                    "time": 33.80488649999984,
                    "velocity": 0.4645669291338583,
                    "duration": 0.14634149999999835
                },
                {
                    "name": "C#6",
                    "midi": 85,
                    "time": 33.95122799999984,
                    "velocity": 0.5039370078740157,
                    "duration": 0.14634149999999835
                },
                {
                    "name": "C#5",
                    "midi": 73,
                    "time": 34.097569499999835,
                    "velocity": 0.4409448818897638,
                    "duration": 0.14634149999999835
                },
                {
                    "name": "A5",
                    "midi": 81,
                    "time": 34.243910999999834,
                    "velocity": 0.48031496062992124,
                    "duration": 0.14634149999999835
                },
                {
                    "name": "C#5",
                    "midi": 73,
                    "time": 34.39025249999983,
                    "velocity": 0.4409448818897638,
                    "duration": 0.14634149999999835
                },
                {
                    "name": "G#5",
                    "midi": 80,
                    "time": 34.53659399999983,
                    "velocity": 0.48031496062992124,
                    "duration": 0.14634149999999835
                },
                {
                    "name": "E5",
                    "midi": 76,
                    "time": 34.68293549999983,
                    "velocity": 0.4409448818897638,
                    "duration": 0.14634149999999835
                },
                {
                    "name": "F#5",
                    "midi": 78,
                    "time": 34.82927699999983,
                    "velocity": 0.48031496062992124,
                    "duration": 0.14634149999999835
                },
                {
                    "name": "D#5",
                    "midi": 75,
                    "time": 34.975618499999825,
                    "velocity": 0.4330708661417323,
                    "duration": 0.14634149999999835
                },
                {
                    "name": "E4",
                    "midi": 64,
                    "time": 35.121959999999824,
                    "velocity": 0.5196850393700787,
                    "duration": 0.14634149999999835
                },
                {
                    "name": "G#4",
                    "midi": 68,
                    "time": 35.121959999999824,
                    "velocity": 0.5196850393700787,
                    "duration": 0.14634149999999835
                },
                {
                    "name": "E5",
                    "midi": 76,
                    "time": 35.121959999999824,
                    "velocity": 0.5196850393700787,
                    "duration": 0.14634149999999835
                },
                {
                    "name": "G#4",
                    "midi": 68,
                    "time": 35.26830149999982,
                    "velocity": 0.48031496062992124,
                    "duration": 0.14634149999999835
                },
                {
                    "name": "F#4",
                    "midi": 66,
                    "time": 35.41464299999982,
                    "velocity": 0.48031496062992124,
                    "duration": 0.14634149999999835
                },
                {
                    "name": "G#4",
                    "midi": 68,
                    "time": 35.56098449999982,
                    "velocity": 0.48031496062992124,
                    "duration": 0.14634149999999835
                },
                {
                    "name": "E4",
                    "midi": 64,
                    "time": 35.70732599999982,
                    "velocity": 0.4566929133858268,
                    "duration": 0.14634149999999835
                },
                {
                    "name": "G#4",
                    "midi": 68,
                    "time": 35.853667499999816,
                    "velocity": 0.4881889763779528,
                    "duration": 0.14634149999999835
                },
                {
                    "name": "D#4",
                    "midi": 63,
                    "time": 36.000008999999814,
                    "velocity": 0.5196850393700787,
                    "duration": 0.14634149999999835
                },
                {
                    "name": "G#4",
                    "midi": 68,
                    "time": 36.14635049999981,
                    "velocity": 0.5433070866141733,
                    "duration": 0.14634149999999835
                },
                {
                    "name": "E4",
                    "midi": 64,
                    "time": 36.29269199999981,
                    "velocity": 0.6299212598425197,
                    "duration": 0.14634149999999835
                },
                {
                    "name": "C#4",
                    "midi": 61,
                    "time": 36.43903349999981,
                    "velocity": 0.5826771653543307,
                    "duration": 0.14634149999999835
                },
                {
                    "name": "E4",
                    "midi": 64,
                    "time": 36.58537499999981,
                    "velocity": 0.5826771653543307,
                    "duration": 0.14634149999999835
                },
                {
                    "name": "G#4",
                    "midi": 68,
                    "time": 36.731716499999806,
                    "velocity": 0.5826771653543307,
                    "duration": 0.14634149999999835
                },
                {
                    "name": "E4",
                    "midi": 64,
                    "time": 36.878057999999804,
                    "velocity": 0.6141732283464567,
                    "duration": 0.14634149999999835
                },
                {
                    "name": "C#4",
                    "midi": 61,
                    "time": 37.0243994999998,
                    "velocity": 0.5826771653543307,
                    "duration": 0.14634149999999835
                },
                {
                    "name": "E4",
                    "midi": 64,
                    "time": 37.1707409999998,
                    "velocity": 0.5826771653543307,
                    "duration": 0.14634149999999835
                },
                {
                    "name": "A4",
                    "midi": 69,
                    "time": 37.3170824999998,
                    "velocity": 0.5826771653543307,
                    "duration": 0.14634149999999835
                },
                {
                    "name": "D#4",
                    "midi": 63,
                    "time": 37.4634239999998,
                    "velocity": 0.5984251968503937,
                    "duration": 0.14634149999999835
                },
                {
                    "name": "C4",
                    "midi": 60,
                    "time": 37.609765499999796,
                    "velocity": 0.5826771653543307,
                    "duration": 0.14634149999999835
                },
                {
                    "name": "D#4",
                    "midi": 63,
                    "time": 37.756106999999794,
                    "velocity": 0.5826771653543307,
                    "duration": 0.14634149999999835
                },
                {
                    "name": "A4",
                    "midi": 69,
                    "time": 37.90244849999979,
                    "velocity": 0.5826771653543307,
                    "duration": 0.14634149999999835
                },
                {
                    "name": "D#4",
                    "midi": 63,
                    "time": 38.04878999999979,
                    "velocity": 0.5984251968503937,
                    "duration": 0.14634149999999835
                },
                {
                    "name": "C4",
                    "midi": 60,
                    "time": 38.19513149999979,
                    "velocity": 0.5826771653543307,
                    "duration": 0.14634149999999835
                },
                {
                    "name": "D#4",
                    "midi": 63,
                    "time": 38.34147299999979,
                    "velocity": 0.5826771653543307,
                    "duration": 0.14634149999999835
                },
                {
                    "name": "G#4",
                    "midi": 68,
                    "time": 38.487814499999786,
                    "velocity": 0.5826771653543307,
                    "duration": 0.14634149999999835
                },
                {
                    "name": "G#4",
                    "midi": 68,
                    "time": 38.634155999999784,
                    "velocity": 0.6299212598425197,
                    "duration": 0.14634149999999835
                },
                {
                    "name": "E4",
                    "midi": 64,
                    "time": 38.78049749999978,
                    "velocity": 0.5984251968503937,
                    "duration": 0.14634149999999835
                },
                {
                    "name": "G#4",
                    "midi": 68,
                    "time": 38.92683899999978,
                    "velocity": 0.5984251968503937,
                    "duration": 0.14634149999999835
                },
                {
                    "name": "E5",
                    "midi": 76,
                    "time": 39.07318049999978,
                    "velocity": 0.5984251968503937,
                    "duration": 0.14634149999999835
                },
                {
                    "name": "G#4",
                    "midi": 68,
                    "time": 39.21952199999978,
                    "velocity": 0.6299212598425197,
                    "duration": 0.14634149999999835
                },
                {
                    "name": "E4",
                    "midi": 64,
                    "time": 39.365863499999776,
                    "velocity": 0.5984251968503937,
                    "duration": 0.14634149999999835
                },
                {
                    "name": "G#4",
                    "midi": 68,
                    "time": 39.512204999999774,
                    "velocity": 0.5984251968503937,
                    "duration": 0.14634149999999835
                },
                {
                    "name": "C#5",
                    "midi": 73,
                    "time": 39.65854649999977,
                    "velocity": 0.5984251968503937,
                    "duration": 0.14634149999999835
                },
                {
                    "name": "A4",
                    "midi": 69,
                    "time": 39.80488799999977,
                    "velocity": 0.6456692913385826,
                    "duration": 0.14634149999999835
                },
                {
                    "name": "G#4",
                    "midi": 68,
                    "time": 39.95122949999977,
                    "velocity": 0.5826771653543307,
                    "duration": 0.14634149999999835
                },
                {
                    "name": "F#4",
                    "midi": 66,
                    "time": 40.09757099999977,
                    "velocity": 0.5905511811023622,
                    "duration": 0.14634149999999835
                },
                {
                    "name": "C#5",
                    "midi": 73,
                    "time": 40.243912499999766,
                    "velocity": 0.5984251968503937,
                    "duration": 0.14634149999999835
                },
                {
                    "name": "C5",
                    "midi": 72,
                    "time": 40.390253999999764,
                    "velocity": 0.6535433070866141,
                    "duration": 0.14634149999999835
                },
                {
                    "name": "D#4",
                    "midi": 63,
                    "time": 40.53659549999976,
                    "velocity": 0.6220472440944882,
                    "duration": 0.14634149999999835
                },
                {
                    "name": "G#4",
                    "midi": 68,
                    "time": 40.68293699999976,
                    "velocity": 0.6299212598425197,
                    "duration": 0.14634149999999835
                },
                {
                    "name": "C5",
                    "midi": 72,
                    "time": 40.82927849999976,
                    "velocity": 0.6456692913385826,
                    "duration": 0.14634149999999835
                },
                {
                    "name": "C#5",
                    "midi": 73,
                    "time": 40.97561999999976,
                    "velocity": 0.6929133858267716,
                    "duration": 0.14634149999999835
                },
                {
                    "name": "G#4",
                    "midi": 68,
                    "time": 41.121961499999756,
                    "velocity": 0.5984251968503937,
                    "duration": 0.14634149999999835
                },
                {
                    "name": "C#5",
                    "midi": 73,
                    "time": 41.268302999999754,
                    "velocity": 0.6220472440944882,
                    "duration": 0.14634149999999835
                },
                {
                    "name": "E5",
                    "midi": 76,
                    "time": 41.41464449999975,
                    "velocity": 0.6456692913385826,
                    "duration": 0.14634149999999835
                },
                {
                    "name": "E5",
                    "midi": 76,
                    "time": 41.56098599999975,
                    "velocity": 0.6614173228346457,
                    "duration": 0.14634149999999835
                },
                {
                    "name": "G#4",
                    "midi": 68,
                    "time": 41.70732749999975,
                    "velocity": 0.6456692913385826,
                    "duration": 0.14634149999999835
                },
                {
                    "name": "E5",
                    "midi": 76,
                    "time": 41.85366899999975,
                    "velocity": 0.6771653543307087,
                    "duration": 0.14634149999999835
                },
                {
                    "name": "G#5",
                    "midi": 80,
                    "time": 42.000010499999746,
                    "velocity": 0.7086614173228346,
                    "duration": 0.14634149999999835
                },
                {
                    "name": "E5",
                    "midi": 76,
                    "time": 42.146351999999744,
                    "velocity": 0.7322834645669292,
                    "duration": 0.14634149999999835
                },
                {
                    "name": "A4",
                    "midi": 69,
                    "time": 42.29269349999974,
                    "velocity": 0.7086614173228346,
                    "duration": 0.14634149999999835
                },
                {
                    "name": "E5",
                    "midi": 76,
                    "time": 42.43903499999974,
                    "velocity": 0.6929133858267716,
                    "duration": 0.14634149999999835
                },
                {
                    "name": "G#5",
                    "midi": 80,
                    "time": 42.58537649999974,
                    "velocity": 0.6692913385826772,
                    "duration": 0.14634149999999835
                },
                {
                    "name": "D5",
                    "midi": 74,
                    "time": 42.73171799999974,
                    "velocity": 0.6771653543307087,
                    "duration": 0.14634149999999835
                },
                {
                    "name": "F#5",
                    "midi": 78,
                    "time": 42.878059499999736,
                    "velocity": 0.6456692913385826,
                    "duration": 0.14634149999999835
                },
                {
                    "name": "C#5",
                    "midi": 73,
                    "time": 43.024400999999735,
                    "velocity": 0.6771653543307087,
                    "duration": 0.14634149999999835
                },
                {
                    "name": "E5",
                    "midi": 76,
                    "time": 43.17074249999973,
                    "velocity": 0.6456692913385826,
                    "duration": 0.14634149999999835
                },
                {
                    "name": "C5",
                    "midi": 72,
                    "time": 43.31708399999973,
                    "velocity": 0.6535433070866141,
                    "duration": 0.14634149999999835
                },
                {
                    "name": "D#5",
                    "midi": 75,
                    "time": 43.46342549999973,
                    "velocity": 0.6220472440944882,
                    "duration": 0.14634149999999835
                },
                {
                    "name": "C#5",
                    "midi": 73,
                    "time": 43.60976699999973,
                    "velocity": 0.6456692913385826,
                    "duration": 0.14634149999999835
                },
                {
                    "name": "E5",
                    "midi": 76,
                    "time": 43.756108499999726,
                    "velocity": 0.5984251968503937,
                    "duration": 0.14634149999999835
                },
                {
                    "name": "D#5",
                    "midi": 75,
                    "time": 43.902449999999725,
                    "velocity": 0.6377952755905512,
                    "duration": 0.14634149999999835
                },
                {
                    "name": "F#5",
                    "midi": 78,
                    "time": 44.04879149999972,
                    "velocity": 0.5905511811023622,
                    "duration": 0.14634149999999835
                },
                {
                    "name": "C5",
                    "midi": 72,
                    "time": 44.19513299999972,
                    "velocity": 0.6220472440944882,
                    "duration": 0.14634149999999835
                },
                {
                    "name": "D#5",
                    "midi": 75,
                    "time": 44.34147449999972,
                    "velocity": 0.5669291338582677,
                    "duration": 0.14634149999999835
                },
                {
                    "name": "E5",
                    "midi": 76,
                    "time": 44.48781599999972,
                    "velocity": 0.6220472440944882,
                    "duration": 0.14634149999999835
                },
                {
                    "name": "C#5",
                    "midi": 73,
                    "time": 44.634157499999716,
                    "velocity": 0.5826771653543307,
                    "duration": 0.14634149999999835
                },
                {
                    "name": "B4",
                    "midi": 71,
                    "time": 44.780498999999715,
                    "velocity": 0.5433070866141733,
                    "duration": 0.14634149999999835
                },
                {
                    "name": "A4",
                    "midi": 69,
                    "time": 44.92684049999971,
                    "velocity": 0.5118110236220472,
                    "duration": 0.14634149999999835
                },
                {
                    "name": "G#4",
                    "midi": 68,
                    "time": 45.07318199999971,
                    "velocity": 0.48031496062992124,
                    "duration": 0.14634149999999835
                },
                {
                    "name": "F#4",
                    "midi": 66,
                    "time": 45.21952349999971,
                    "velocity": 0.44881889763779526,
                    "duration": 0.14634149999999835
                },
                {
                    "name": "E4",
                    "midi": 64,
                    "time": 45.36586499999971,
                    "velocity": 0.41732283464566927,
                    "duration": 0.14634149999999835
                },
                {
                    "name": "D#4",
                    "midi": 63,
                    "time": 45.51220649999971,
                    "velocity": 0.3779527559055118,
                    "duration": 0.14634149999999835
                },
                {
                    "name": "E4",
                    "midi": 64,
                    "time": 45.658547999999705,
                    "velocity": 0.33070866141732286,
                    "duration": 0.14634149999999835
                },
                {
                    "name": "C#4",
                    "midi": 61,
                    "time": 45.8048894999997,
                    "velocity": 0.3543307086614173,
                    "duration": 0.14634149999999835
                },
                {
                    "name": "E4",
                    "midi": 64,
                    "time": 45.9512309999997,
                    "velocity": 0.3543307086614173,
                    "duration": 0.14634149999999835
                },
                {
                    "name": "G#4",
                    "midi": 68,
                    "time": 46.0975724999997,
                    "velocity": 0.3543307086614173,
                    "duration": 0.14634149999999835
                },
                {
                    "name": "E4",
                    "midi": 64,
                    "time": 46.2439139999997,
                    "velocity": 0.3779527559055118,
                    "duration": 0.14634149999999835
                },
                {
                    "name": "C#4",
                    "midi": 61,
                    "time": 46.3902554999997,
                    "velocity": 0.3543307086614173,
                    "duration": 0.14634149999999835
                },
                {
                    "name": "E4",
                    "midi": 64,
                    "time": 46.536596999999695,
                    "velocity": 0.3543307086614173,
                    "duration": 0.14634149999999835
                },
                {
                    "name": "A4",
                    "midi": 69,
                    "time": 46.68293849999969,
                    "velocity": 0.3543307086614173,
                    "duration": 0.14634149999999835
                },
                {
                    "name": "D#4",
                    "midi": 63,
                    "time": 46.82927999999969,
                    "velocity": 0.3700787401574803,
                    "duration": 0.14634149999999835
                },
                {
                    "name": "B3",
                    "midi": 59,
                    "time": 46.97562149999969,
                    "velocity": 0.3543307086614173,
                    "duration": 0.14634149999999835
                },
                {
                    "name": "D#4",
                    "midi": 63,
                    "time": 47.12196299999969,
                    "velocity": 0.3543307086614173,
                    "duration": 0.14634149999999835
                },
                {
                    "name": "A4",
                    "midi": 69,
                    "time": 47.26830449999969,
                    "velocity": 0.3543307086614173,
                    "duration": 0.14634149999999835
                },
                {
                    "name": "D#4",
                    "midi": 63,
                    "time": 47.414645999999685,
                    "velocity": 0.3700787401574803,
                    "duration": 0.14634149999999835
                },
                {
                    "name": "B3",
                    "midi": 59,
                    "time": 47.56098749999968,
                    "velocity": 0.3543307086614173,
                    "duration": 0.14634149999999835
                },
                {
                    "name": "D#4",
                    "midi": 63,
                    "time": 47.70732899999968,
                    "velocity": 0.3543307086614173,
                    "duration": 0.14634149999999835
                },
                {
                    "name": "G#4",
                    "midi": 68,
                    "time": 47.85367049999968,
                    "velocity": 0.3543307086614173,
                    "duration": 0.14634149999999835
                },
                {
                    "name": "G#4",
                    "midi": 68,
                    "time": 48.00001199999968,
                    "velocity": 0.3858267716535433,
                    "duration": 0.14634149999999835
                },
                {
                    "name": "C#4",
                    "midi": 61,
                    "time": 48.14635349999968,
                    "velocity": 0.3700787401574803,
                    "duration": 0.14634149999999835
                },
                {
                    "name": "G#4",
                    "midi": 68,
                    "time": 48.292694999999675,
                    "velocity": 0.3700787401574803,
                    "duration": 0.14634149999999835
                },
                {
                    "name": "C#5",
                    "midi": 73,
                    "time": 48.43903649999967,
                    "velocity": 0.3700787401574803,
                    "duration": 0.14634149999999835
                },
                {
                    "name": "F#4",
                    "midi": 66,
                    "time": 48.58537799999967,
                    "velocity": 0.3858267716535433,
                    "duration": 0.14634149999999835
                },
                {
                    "name": "D#4",
                    "midi": 63,
                    "time": 48.73171949999967,
                    "velocity": 0.3700787401574803,
                    "duration": 0.14634149999999835
                },
                {
                    "name": "F#4",
                    "midi": 66,
                    "time": 48.87806099999967,
                    "velocity": 0.3700787401574803,
                    "duration": 0.14634149999999835
                },
                {
                    "name": "C#5",
                    "midi": 73,
                    "time": 49.02440249999967,
                    "velocity": 0.3700787401574803,
                    "duration": 0.14634149999999835
                },
                {
                    "name": "G#4",
                    "midi": 68,
                    "time": 49.170743999999665,
                    "velocity": 0.3937007874015748,
                    "duration": 0.14634149999999835
                },
                {
                    "name": "E4",
                    "midi": 64,
                    "time": 49.31708549999966,
                    "velocity": 0.3700787401574803,
                    "duration": 0.14634149999999835
                },
                {
                    "name": "G#4",
                    "midi": 68,
                    "time": 49.46342699999966,
                    "velocity": 0.3700787401574803,
                    "duration": 0.14634149999999835
                },
                {
                    "name": "C#5",
                    "midi": 73,
                    "time": 49.60976849999966,
                    "velocity": 0.3700787401574803,
                    "duration": 0.14634149999999835
                },
                {
                    "name": "G#4",
                    "midi": 68,
                    "time": 49.75610999999966,
                    "velocity": 0.3858267716535433,
                    "duration": 0.14634149999999835
                },
                {
                    "name": "E4",
                    "midi": 64,
                    "time": 49.90245149999966,
                    "velocity": 0.3779527559055118,
                    "duration": 0.14634149999999835
                },
                {
                    "name": "G#4",
                    "midi": 68,
                    "time": 50.048792999999655,
                    "velocity": 0.3779527559055118,
                    "duration": 0.14634149999999835
                },
                {
                    "name": "B4",
                    "midi": 71,
                    "time": 50.195134499999654,
                    "velocity": 0.3779527559055118,
                    "duration": 0.14634149999999835
                },
                {
                    "name": "G4",
                    "midi": 67,
                    "time": 50.34147599999965,
                    "velocity": 0.4251968503937008,
                    "duration": 0.14634149999999835
                },
                {
                    "name": "E4",
                    "midi": 64,
                    "time": 50.48781749999965,
                    "velocity": 0.3700787401574803,
                    "duration": 0.14634149999999835
                },
                {
                    "name": "G4",
                    "midi": 67,
                    "time": 50.63415899999965,
                    "velocity": 0.3779527559055118,
                    "duration": 0.14634149999999835
                },
                {
                    "name": "A#4",
                    "midi": 70,
                    "time": 50.78050049999965,
                    "velocity": 0.3937007874015748,
                    "duration": 0.14634149999999835
                },
                {
                    "name": "E5",
                    "midi": 76,
                    "time": 50.926841999999645,
                    "velocity": 0.4094488188976378,
                    "duration": 0.14634149999999835
                },
                {
                    "name": "A#4",
                    "midi": 70,
                    "time": 51.073183499999644,
                    "velocity": 0.3779527559055118,
                    "duration": 0.14634149999999835
                },
                {
                    "name": "E5",
                    "midi": 76,
                    "time": 51.21952499999964,
                    "velocity": 0.3858267716535433,
                    "duration": 0.14634149999999835
                },
                {
                    "name": "G5",
                    "midi": 79,
                    "time": 51.36586649999964,
                    "velocity": 0.4015748031496063,
                    "duration": 0.14634149999999835
                },
                {
                    "name": "D#5",
                    "midi": 75,
                    "time": 51.51220799999964,
                    "velocity": 0.4015748031496063,
                    "duration": 0.14634149999999835
                },
                {
                    "name": "G5",
                    "midi": 79,
                    "time": 51.65854949999964,
                    "velocity": 0.3858267716535433,
                    "duration": 0.14634149999999835
                },
                {
                    "name": "D#5",
                    "midi": 75,
                    "time": 51.804890999999635,
                    "velocity": 0.3937007874015748,
                    "duration": 0.14634149999999835
                },
                {
                    "name": "F#5",
                    "midi": 78,
                    "time": 51.951232499999634,
                    "velocity": 0.3779527559055118,
                    "duration": 0.14634149999999835
                },
                {
                    "name": "A4",
                    "midi": 69,
                    "time": 52.09757399999963,
                    "velocity": 0.3858267716535433,
                    "duration": 0.14634149999999835
                },
                {
                    "name": "E5",
                    "midi": 76,
                    "time": 52.24391549999963,
                    "velocity": 0.3779527559055118,
                    "duration": 0.14634149999999835
                },
                {
                    "name": "A4",
                    "midi": 69,
                    "time": 52.39025699999963,
                    "velocity": 0.3858267716535433,
                    "duration": 0.14634149999999835
                },
                {
                    "name": "D#5",
                    "midi": 75,
                    "time": 52.53659849999963,
                    "velocity": 0.3779527559055118,
                    "duration": 0.14634149999999835
                },
                {
                    "name": "A4",
                    "midi": 69,
                    "time": 52.682939999999626,
                    "velocity": 0.3700787401574803,
                    "duration": 0.14634149999999835
                },
                {
                    "name": "F#5",
                    "midi": 78,
                    "time": 52.829281499999624,
                    "velocity": 0.3464566929133858,
                    "duration": 0.14634149999999835
                },
                {
                    "name": "G#4",
                    "midi": 68,
                    "time": 52.97562299999962,
                    "velocity": 0.3700787401574803,
                    "duration": 0.14634149999999835
                },
                {
                    "name": "E5",
                    "midi": 76,
                    "time": 53.12196449999962,
                    "velocity": 0.3464566929133858,
                    "duration": 0.14634149999999835
                },
                {
                    "name": "E4",
                    "midi": 64,
                    "time": 53.26830599999962,
                    "velocity": 0.36220472440944884,
                    "duration": 0.14634149999999835
                },
                {
                    "name": "C#5",
                    "midi": 73,
                    "time": 53.41464749999962,
                    "velocity": 0.3464566929133858,
                    "duration": 0.14634149999999835
                },
                {
                    "name": "C#4",
                    "midi": 61,
                    "time": 53.560988999999616,
                    "velocity": 0.3543307086614173,
                    "duration": 0.14634149999999835
                },
                {
                    "name": "A4",
                    "midi": 69,
                    "time": 53.707330499999614,
                    "velocity": 0.3464566929133858,
                    "duration": 0.14634149999999835
                },
                {
                    "name": "B3",
                    "midi": 59,
                    "time": 53.85367199999961,
                    "velocity": 0.3543307086614173,
                    "duration": 0.14634149999999835
                },
                {
                    "name": "G#4",
                    "midi": 68,
                    "time": 54.00001349999961,
                    "velocity": 0.3464566929133858,
                    "duration": 0.14634149999999835
                },
                {
                    "name": "E4",
                    "midi": 64,
                    "time": 54.14635499999961,
                    "velocity": 0.3543307086614173,
                    "duration": 0.14634149999999835
                },
                {
                    "name": "B4",
                    "midi": 71,
                    "time": 54.29269649999961,
                    "velocity": 0.3464566929133858,
                    "duration": 0.14634149999999835
                },
                {
                    "name": "B3",
                    "midi": 59,
                    "time": 54.439037999999606,
                    "velocity": 0.3543307086614173,
                    "duration": 0.14634149999999835
                },
                {
                    "name": "A4",
                    "midi": 69,
                    "time": 54.585379499999604,
                    "velocity": 0.3464566929133858,
                    "duration": 0.14634149999999835
                },
                {
                    "name": "D#4",
                    "midi": 63,
                    "time": 54.7317209999996,
                    "velocity": 0.3543307086614173,
                    "duration": 0.14634149999999835
                },
                {
                    "name": "B4",
                    "midi": 71,
                    "time": 54.8780624999996,
                    "velocity": 0.3464566929133858,
                    "duration": 0.14634149999999835
                },
                {
                    "name": "A4",
                    "midi": 69,
                    "time": 55.0244039999996,
                    "velocity": 0.3543307086614173,
                    "duration": 0.43902449999999504
                },
                {
                    "name": "D#4",
                    "midi": 63,
                    "time": 55.1707454999996,
                    "velocity": 0.33858267716535434,
                    "duration": 0.14634149999999835
                },
                {
                    "name": "B3",
                    "midi": 59,
                    "time": 55.317086999999596,
                    "velocity": 0.33858267716535434,
                    "duration": 0.14634149999999835
                },
                {
                    "name": "A4",
                    "midi": 69,
                    "time": 55.463428499999594,
                    "velocity": 0.3543307086614173,
                    "duration": 0.14634149999999835
                },
                {
                    "name": "G#4",
                    "midi": 68,
                    "time": 55.60976999999959,
                    "velocity": 0.3543307086614173,
                    "duration": 0.14634149999999835
                },
                {
                    "name": "B3",
                    "midi": 59,
                    "time": 55.75611149999959,
                    "velocity": 0.33070866141732286,
                    "duration": 0.14634149999999835
                },
                {
                    "name": "E4",
                    "midi": 64,
                    "time": 55.90245299999959,
                    "velocity": 0.3464566929133858,
                    "duration": 0.14634149999999835
                },
                {
                    "name": "F#4",
                    "midi": 66,
                    "time": 56.04879449999959,
                    "velocity": 0.3543307086614173,
                    "duration": 0.14634149999999835
                },
                {
                    "name": "G#4",
                    "midi": 68,
                    "time": 56.195135999999586,
                    "velocity": 0.3700787401574803,
                    "duration": 0.14634149999999835
                },
                {
                    "name": "E4",
                    "midi": 64,
                    "time": 56.341477499999584,
                    "velocity": 0.33858267716535434,
                    "duration": 0.14634149999999835
                },
                {
                    "name": "G#4",
                    "midi": 68,
                    "time": 56.48781899999958,
                    "velocity": 0.3543307086614173,
                    "duration": 0.14634149999999835
                },
                {
                    "name": "E5",
                    "midi": 76,
                    "time": 56.63416049999958,
                    "velocity": 0.3464566929133858,
                    "duration": 0.14634149999999835
                },
                {
                    "name": "G#4",
                    "midi": 68,
                    "time": 56.78050199999958,
                    "velocity": 0.3700787401574803,
                    "duration": 0.14634149999999835
                },
                {
                    "name": "D#5",
                    "midi": 75,
                    "time": 56.92684349999958,
                    "velocity": 0.3464566929133858,
                    "duration": 0.14634149999999835
                },
                {
                    "name": "G#4",
                    "midi": 68,
                    "time": 57.073184999999576,
                    "velocity": 0.3779527559055118,
                    "duration": 0.14634149999999835
                },
                {
                    "name": "C#5",
                    "midi": 73,
                    "time": 57.219526499999574,
                    "velocity": 0.3464566929133858,
                    "duration": 0.14634149999999835
                },
                {
                    "name": "A4",
                    "midi": 69,
                    "time": 57.36586799999957,
                    "velocity": 0.3779527559055118,
                    "duration": 0.14634149999999835
                },
                {
                    "name": "C#4",
                    "midi": 61,
                    "time": 57.51220949999957,
                    "velocity": 0.3464566929133858,
                    "duration": 0.14634149999999835
                },
                {
                    "name": "A4",
                    "midi": 69,
                    "time": 57.65855099999957,
                    "velocity": 0.36220472440944884,
                    "duration": 0.14634149999999835
                },
                {
                    "name": "C#5",
                    "midi": 73,
                    "time": 57.80489249999957,
                    "velocity": 0.36220472440944884,
                    "duration": 0.14634149999999835
                },
                {
                    "name": "G#4",
                    "midi": 68,
                    "time": 57.951233999999566,
                    "velocity": 0.3700787401574803,
                    "duration": 0.14634149999999835
                },
                {
                    "name": "B4",
                    "midi": 71,
                    "time": 58.097575499999564,
                    "velocity": 0.33858267716535434,
                    "duration": 0.14634149999999835
                },
                {
                    "name": "F#4",
                    "midi": 66,
                    "time": 58.24391699999956,
                    "velocity": 0.3543307086614173,
                    "duration": 0.14634149999999835
                },
                {
                    "name": "A4",
                    "midi": 69,
                    "time": 58.39025849999956,
                    "velocity": 0.33858267716535434,
                    "duration": 0.14634149999999835
                },
                {
                    "name": "E4",
                    "midi": 64,
                    "time": 58.53659999999956,
                    "velocity": 0.3543307086614173,
                    "duration": 0.14634149999999835
                },
                {
                    "name": "G#3",
                    "midi": 56,
                    "time": 58.68294149999956,
                    "velocity": 0.33858267716535434,
                    "duration": 0.14634149999999835
                },
                {
                    "name": "E4",
                    "midi": 64,
                    "time": 58.829282999999556,
                    "velocity": 0.33858267716535434,
                    "duration": 0.14634149999999835
                },
                {
                    "name": "G#4",
                    "midi": 68,
                    "time": 58.975624499999554,
                    "velocity": 0.33858267716535434,
                    "duration": 0.14634149999999835
                },
                {
                    "name": "C#4",
                    "midi": 61,
                    "time": 59.12196599999955,
                    "velocity": 0.3543307086614173,
                    "duration": 0.14634149999999835
                },
                {
                    "name": "G3",
                    "midi": 55,
                    "time": 59.26830749999955,
                    "velocity": 0.31496062992125984,
                    "duration": 0.14634149999999835
                },
                {
                    "name": "C#4",
                    "midi": 61,
                    "time": 59.41464899999955,
                    "velocity": 0.3228346456692913,
                    "duration": 0.14634149999999835
                },
                {
                    "name": "A4",
                    "midi": 69,
                    "time": 59.56099049999955,
                    "velocity": 0.3228346456692913,
                    "duration": 0.14634149999999835
                },
                {
                    "name": "D#4",
                    "midi": 63,
                    "time": 59.707331999999546,
                    "velocity": 0.33858267716535434,
                    "duration": 0.14634149999999835
                },
                {
                    "name": "F#3",
                    "midi": 54,
                    "time": 59.853673499999545,
                    "velocity": 0.30708661417322836,
                    "duration": 0.14634149999999835
                },
                {
                    "name": "D#4",
                    "midi": 63,
                    "time": 60.00001499999954,
                    "velocity": 0.30708661417322836,
                    "duration": 0.14634149999999835
                },
                {
                    "name": "G#4",
                    "midi": 68,
                    "time": 60.14635649999954,
                    "velocity": 0.30708661417322836,
                    "duration": 0.14634149999999835
                },
                {
                    "name": "D#4",
                    "midi": 63,
                    "time": 60.29269799999954,
                    "velocity": 0.33070866141732286,
                    "duration": 0.14634149999999835
                },
                {
                    "name": "F#3",
                    "midi": 54,
                    "time": 60.43903949999954,
                    "velocity": 0.2992125984251969,
                    "duration": 0.14634149999999835
                },
                {
                    "name": "D#4",
                    "midi": 63,
                    "time": 60.585380999999536,
                    "velocity": 0.2992125984251969,
                    "duration": 0.14634149999999835
                },
                {
                    "name": "G#4",
                    "midi": 68,
                    "time": 60.731722499999535,
                    "velocity": 0.2992125984251969,
                    "duration": 0.14634149999999835
                },
                {
                    "name": "C#4",
                    "midi": 61,
                    "time": 60.87806399999953,
                    "velocity": 0.2992125984251969,
                    "duration": 0.14634149999999835
                },
                {
                    "name": "E3",
                    "midi": 52,
                    "time": 61.02440549999953,
                    "velocity": 0.2755905511811024,
                    "duration": 0.14634149999999835
                },
                {
                    "name": "C#4",
                    "midi": 61,
                    "time": 61.17074699999953,
                    "velocity": 0.2755905511811024,
                    "duration": 0.14634149999999835
                },
                {
                    "name": "E4",
                    "midi": 64,
                    "time": 61.31708849999953,
                    "velocity": 0.2755905511811024,
                    "duration": 0.14634149999999835
                },
                {
                    "name": "C#4",
                    "midi": 61,
                    "time": 62.04879599999953,
                    "velocity": 0.2992125984251969,
                    "duration": 0.14634149999999835
                },
                {
                    "name": "E3",
                    "midi": 52,
                    "time": 62.195137499999525,
                    "velocity": 0.2677165354330709,
                    "duration": 0.14634149999999835
                },
                {
                    "name": "C#4",
                    "midi": 61,
                    "time": 62.341478999999524,
                    "velocity": 0.2677165354330709,
                    "duration": 0.14634149999999835
                },
                {
                    "name": "E4",
                    "midi": 64,
                    "time": 62.48782049999952,
                    "velocity": 0.2677165354330709,
                    "duration": 0.14634149999999835
                },
                {
                    "name": "D4",
                    "midi": 62,
                    "time": 63.21952799999952,
                    "velocity": 0.2992125984251969,
                    "duration": 0.14634149999999835
                },
                {
                    "name": "A3",
                    "midi": 57,
                    "time": 63.36586949999952,
                    "velocity": 0.28346456692913385,
                    "duration": 0.14634149999999835
                },
                {
                    "name": "D4",
                    "midi": 62,
                    "time": 63.51221099999952,
                    "velocity": 0.28346456692913385,
                    "duration": 0.14634149999999835
                },
                {
                    "name": "F#4",
                    "midi": 66,
                    "time": 63.658552499999516,
                    "velocity": 0.28346456692913385,
                    "duration": 0.14634149999999835
                },
                {
                    "name": "F#4",
                    "midi": 66,
                    "time": 63.804893999999514,
                    "velocity": 0.2755905511811024,
                    "duration": 0.14634149999999835
                },
                {
                    "name": "A4",
                    "midi": 69,
                    "time": 63.95123549999951,
                    "velocity": 0.30708661417322836,
                    "duration": 0.14634150000000545
                },
                {
                    "name": "D5",
                    "midi": 74,
                    "time": 64.09757699999952,
                    "velocity": 0.33070866141732286,
                    "duration": 0.14634150000000545
                },
                {
                    "name": "F#5",
                    "midi": 78,
                    "time": 64.24391849999952,
                    "velocity": 0.36220472440944884,
                    "duration": 0.14634150000000545
                },
                {
                    "name": "A5",
                    "midi": 81,
                    "time": 64.39025999999953,
                    "velocity": 0.3858267716535433,
                    "duration": 0.2926830000000109
                },
                {
                    "name": "D5",
                    "midi": 74,
                    "time": 64.53660149999953,
                    "velocity": 0.28346456692913385,
                    "duration": 0.14634150000000545
                },
                {
                    "name": "A4",
                    "midi": 69,
                    "time": 64.68294299999954,
                    "velocity": 0.29133858267716534,
                    "duration": 0.14634150000000545
                },
                {
                    "name": "F#5",
                    "midi": 78,
                    "time": 64.68294299999954,
                    "velocity": 0.3464566929133858,
                    "duration": 0.2926830000000109
                },
                {
                    "name": "B4",
                    "midi": 71,
                    "time": 64.82928449999955,
                    "velocity": 0.29133858267716534,
                    "duration": 0.14634150000000545
                },
                {
                    "name": "C#5",
                    "midi": 73,
                    "time": 64.97562599999955,
                    "velocity": 0.2755905511811024,
                    "duration": 0.14634150000000545
                },
                {
                    "name": "E5",
                    "midi": 76,
                    "time": 64.97562599999955,
                    "velocity": 0.33070866141732286,
                    "duration": 0.2926830000000109
                },
                {
                    "name": "G#4",
                    "midi": 68,
                    "time": 65.12196749999956,
                    "velocity": 0.2755905511811024,
                    "duration": 0.14634150000000545
                },
                {
                    "name": "C5",
                    "midi": 72,
                    "time": 65.26830899999956,
                    "velocity": 0.2755905511811024,
                    "duration": 0.14634150000000545
                },
                {
                    "name": "D#5",
                    "midi": 75,
                    "time": 65.26830899999956,
                    "velocity": 0.31496062992125984,
                    "duration": 0.2926830000000109
                },
                {
                    "name": "G#4",
                    "midi": 68,
                    "time": 65.41465049999957,
                    "velocity": 0.2755905511811024,
                    "duration": 0.14634150000000545
                },
                {
                    "name": "C#5",
                    "midi": 73,
                    "time": 65.56099199999957,
                    "velocity": 0.2992125984251969,
                    "duration": 0.14634150000000545
                },
                {
                    "name": "E4",
                    "midi": 64,
                    "time": 65.70733349999958,
                    "velocity": 0.2677165354330709,
                    "duration": 0.14634150000000545
                },
                {
                    "name": "C#5",
                    "midi": 73,
                    "time": 65.85367499999958,
                    "velocity": 0.2677165354330709,
                    "duration": 0.14634150000000545
                },
                {
                    "name": "E5",
                    "midi": 76,
                    "time": 66.00001649999959,
                    "velocity": 0.2677165354330709,
                    "duration": 0.14634150000000545
                },
                {
                    "name": "C#5",
                    "midi": 73,
                    "time": 66.73172399999959,
                    "velocity": 0.2992125984251969,
                    "duration": 0.14634150000000545
                },
                {
                    "name": "E4",
                    "midi": 64,
                    "time": 66.8780654999996,
                    "velocity": 0.25984251968503935,
                    "duration": 0.14634150000000545
                },
                {
                    "name": "C#5",
                    "midi": 73,
                    "time": 67.0244069999996,
                    "velocity": 0.25984251968503935,
                    "duration": 0.14634150000000545
                },
                {
                    "name": "E5",
                    "midi": 76,
                    "time": 67.1707484999996,
                    "velocity": 0.25984251968503935,
                    "duration": 0.14634150000000545
                },
                {
                    "name": "D5",
                    "midi": 74,
                    "time": 67.9024559999996,
                    "velocity": 0.2992125984251969,
                    "duration": 0.14634150000000545
                },
                {
                    "name": "A4",
                    "midi": 69,
                    "time": 68.04879749999961,
                    "velocity": 0.30708661417322836,
                    "duration": 0.14634150000000545
                },
                {
                    "name": "D5",
                    "midi": 74,
                    "time": 68.19513899999961,
                    "velocity": 0.3464566929133858,
                    "duration": 0.14634150000000545
                },
                {
                    "name": "F#5",
                    "midi": 78,
                    "time": 68.34148049999962,
                    "velocity": 0.3858267716535433,
                    "duration": 0.14634150000000545
                },
                {
                    "name": "A5",
                    "midi": 81,
                    "time": 68.48782199999962,
                    "velocity": 0.4330708661417323,
                    "duration": 0.14634150000000545
                },
                {
                    "name": "F#5",
                    "midi": 78,
                    "time": 68.63416349999963,
                    "velocity": 0.41732283464566927,
                    "duration": 0.14634150000000545
                },
                {
                    "name": "D5",
                    "midi": 74,
                    "time": 68.78050499999964,
                    "velocity": 0.3937007874015748,
                    "duration": 0.14634150000000545
                },
                {
                    "name": "A4",
                    "midi": 69,
                    "time": 68.92684649999964,
                    "velocity": 0.3700787401574803,
                    "duration": 0.14634150000000545
                },
                {
                    "name": "G#4",
                    "midi": 68,
                    "time": 69.07318799999965,
                    "velocity": 0.3464566929133858,
                    "duration": 0.14634150000000545
                },
                {
                    "name": "E5",
                    "midi": 76,
                    "time": 69.21952949999965,
                    "velocity": 0.3464566929133858,
                    "duration": 0.14634150000000545
                },
                {
                    "name": "E4",
                    "midi": 64,
                    "time": 69.36587099999966,
                    "velocity": 0.3779527559055118,
                    "duration": 0.14634150000000545
                },
                {
                    "name": "C#5",
                    "midi": 73,
                    "time": 69.51221249999966,
                    "velocity": 0.3464566929133858,
                    "duration": 0.14634150000000545
                },
                {
                    "name": "F#4",
                    "midi": 66,
                    "time": 69.65855399999967,
                    "velocity": 0.3779527559055118,
                    "duration": 0.14634150000000545
                },
                {
                    "name": "D#5",
                    "midi": 75,
                    "time": 69.80489549999967,
                    "velocity": 0.3464566929133858,
                    "duration": 0.14634150000000545
                },
                {
                    "name": "D#4",
                    "midi": 63,
                    "time": 69.95123699999968,
                    "velocity": 0.3779527559055118,
                    "duration": 0.14634150000000545
                },
                {
                    "name": "C5",
                    "midi": 72,
                    "time": 70.09757849999968,
                    "velocity": 0.3464566929133858,
                    "duration": 0.14634150000000545
                },
                {
                    "name": "E4",
                    "midi": 64,
                    "time": 70.24391999999969,
                    "velocity": 0.4015748031496063,
                    "duration": 0.14634150000000545
                },
                {
                    "name": "C#5",
                    "midi": 73,
                    "time": 70.3902614999997,
                    "velocity": 0.33070866141732286,
                    "duration": 0.14634150000000545
                },
                {
                    "name": "C#4",
                    "midi": 61,
                    "time": 70.5366029999997,
                    "velocity": 0.33858267716535434,
                    "duration": 0.14634150000000545
                },
                {
                    "name": "E4",
                    "midi": 64,
                    "time": 70.5366029999997,
                    "velocity": 0.33858267716535434,
                    "duration": 0.14634150000000545
                },
                {
                    "name": "G#4",
                    "midi": 68,
                    "time": 70.6829444999997,
                    "velocity": 0.2755905511811024,
                    "duration": 0.14634150000000545
                },
                {
                    "name": "D#4",
                    "midi": 63,
                    "time": 70.82928599999971,
                    "velocity": 0.2992125984251969,
                    "duration": 0.14634150000000545
                },
                {
                    "name": "F#4",
                    "midi": 66,
                    "time": 70.82928599999971,
                    "velocity": 0.2992125984251969,
                    "duration": 0.14634150000000545
                },
                {
                    "name": "G#4",
                    "midi": 68,
                    "time": 70.97562749999972,
                    "velocity": 0.2440944881889764,
                    "duration": 0.14634150000000545
                },
                {
                    "name": "C4",
                    "midi": 60,
                    "time": 71.12196899999972,
                    "velocity": 0.2677165354330709,
                    "duration": 0.14634150000000545
                },
                {
                    "name": "D#4",
                    "midi": 63,
                    "time": 71.12196899999972,
                    "velocity": 0.2677165354330709,
                    "duration": 0.14634150000000545
                },
                {
                    "name": "G#4",
                    "midi": 68,
                    "time": 71.26831049999973,
                    "velocity": 0.23622047244094488,
                    "duration": 0.14634150000000545
                },
                {
                    "name": "F4",
                    "midi": 65,
                    "time": 72.58538399999973,
                    "velocity": 0.28346456692913385,
                    "duration": 0.14634150000000545
                },
                {
                    "name": "G#4",
                    "midi": 68,
                    "time": 72.73172549999974,
                    "velocity": 0.28346456692913385,
                    "duration": 0.14634150000000545
                },
                {
                    "name": "F#4",
                    "midi": 66,
                    "time": 72.87806699999975,
                    "velocity": 0.25196850393700787,
                    "duration": 0.5853659999999934
                },
                {
                    "name": "A#4",
                    "midi": 70,
                    "time": 72.87806699999975,
                    "velocity": 0.25196850393700787,
                    "duration": 0.5853659999999934
                },
                {
                    "name": "F4",
                    "midi": 65,
                    "time": 73.46343299999974,
                    "velocity": 0.2204724409448819,
                    "duration": 0.21951224999999397
                },
                {
                    "name": "G#4",
                    "midi": 68,
                    "time": 73.46343299999974,
                    "velocity": 0.2204724409448819,
                    "duration": 0.21951224999999397
                },
                {
                    "name": "F4",
                    "midi": 65,
                    "time": 73.75611599999974,
                    "velocity": 0.28346456692913385,
                    "duration": 0.14634150000000545
                },
                {
                    "name": "G#4",
                    "midi": 68,
                    "time": 73.90245749999974,
                    "velocity": 0.28346456692913385,
                    "duration": 0.14634150000000545
                },
                {
                    "name": "F#4",
                    "midi": 66,
                    "time": 74.04879899999975,
                    "velocity": 0.25984251968503935,
                    "duration": 0.5853659999999934
                },
                {
                    "name": "A#4",
                    "midi": 70,
                    "time": 74.04879899999975,
                    "velocity": 0.25984251968503935,
                    "duration": 0.5853659999999934
                },
                {
                    "name": "C#5",
                    "midi": 73,
                    "time": 74.04879899999975,
                    "velocity": 0.25984251968503935,
                    "duration": 0.5853659999999934
                },
                {
                    "name": "F4",
                    "midi": 65,
                    "time": 74.63416499999974,
                    "velocity": 0.23622047244094488,
                    "duration": 0.21951224999999397
                },
                {
                    "name": "G#4",
                    "midi": 68,
                    "time": 74.63416499999974,
                    "velocity": 0.23622047244094488,
                    "duration": 0.21951224999999397
                },
                {
                    "name": "F4",
                    "midi": 65,
                    "time": 74.92684799999974,
                    "velocity": 0.29133858267716534,
                    "duration": 0.14634150000000545
                },
                {
                    "name": "G#4",
                    "midi": 68,
                    "time": 74.92684799999974,
                    "velocity": 0.29133858267716534,
                    "duration": 0.14634150000000545
                },
                {
                    "name": "D4",
                    "midi": 62,
                    "time": 75.07318949999974,
                    "velocity": 0.29133858267716534,
                    "duration": 0.14634150000000545
                },
                {
                    "name": "D#4",
                    "midi": 63,
                    "time": 75.21953099999975,
                    "velocity": 0.30708661417322836,
                    "duration": 0.5853659999999934
                },
                {
                    "name": "F#4",
                    "midi": 66,
                    "time": 75.21953099999975,
                    "velocity": 0.30708661417322836,
                    "duration": 0.5853659999999934
                },
                {
                    "name": "F#4",
                    "midi": 66,
                    "time": 75.80489699999974,
                    "velocity": 0.28346456692913385,
                    "duration": 0.2926829999999967
                },
                {
                    "name": "D#5",
                    "midi": 75,
                    "time": 75.80489699999974,
                    "velocity": 0.28346456692913385,
                    "duration": 0.2926829999999967
                },
                {
                    "name": "G#4",
                    "midi": 68,
                    "time": 76.09757999999974,
                    "velocity": 0.30708661417322836,
                    "duration": 0.14634150000000545
                },
                {
                    "name": "F5",
                    "midi": 77,
                    "time": 76.09757999999974,
                    "velocity": 0.30708661417322836,
                    "duration": 0.14634150000000545
                },
                {
                    "name": "F#4",
                    "midi": 66,
                    "time": 76.24392149999974,
                    "velocity": 0.29133858267716534,
                    "duration": 0.14634150000000545
                },
                {
                    "name": "D#5",
                    "midi": 75,
                    "time": 76.24392149999974,
                    "velocity": 0.29133858267716534,
                    "duration": 0.14634150000000545
                },
                {
                    "name": "F4",
                    "midi": 65,
                    "time": 76.39026299999975,
                    "velocity": 0.2992125984251969,
                    "duration": 0.5853659999999934
                },
                {
                    "name": "C#5",
                    "midi": 73,
                    "time": 76.39026299999975,
                    "velocity": 0.2992125984251969,
                    "duration": 0.5853659999999934
                },
                {
                    "name": "F4",
                    "midi": 65,
                    "time": 76.97562899999974,
                    "velocity": 0.2440944881889764,
                    "duration": 0.21951224999999397
                },
                {
                    "name": "G#4",
                    "midi": 68,
                    "time": 76.97562899999974,
                    "velocity": 0.2440944881889764,
                    "duration": 0.21951224999999397
                },
                {
                    "name": "F4",
                    "midi": 65,
                    "time": 77.26831199999974,
                    "velocity": 0.28346456692913385,
                    "duration": 0.14634150000000545
                },
                {
                    "name": "G#4",
                    "midi": 68,
                    "time": 77.41465349999974,
                    "velocity": 0.28346456692913385,
                    "duration": 0.14634150000000545
                },
                {
                    "name": "F#4",
                    "midi": 66,
                    "time": 77.56099499999975,
                    "velocity": 0.25196850393700787,
                    "duration": 0.5853659999999934
                },
                {
                    "name": "A#4",
                    "midi": 70,
                    "time": 77.56099499999975,
                    "velocity": 0.25196850393700787,
                    "duration": 0.5853659999999934
                },
                {
                    "name": "F4",
                    "midi": 65,
                    "time": 78.14636099999974,
                    "velocity": 0.23622047244094488,
                    "duration": 0.21951224999999397
                },
                {
                    "name": "G#4",
                    "midi": 68,
                    "time": 78.14636099999974,
                    "velocity": 0.23622047244094488,
                    "duration": 0.21951224999999397
                },
                {
                    "name": "F4",
                    "midi": 65,
                    "time": 78.43904399999974,
                    "velocity": 0.28346456692913385,
                    "duration": 0.14634150000000545
                },
                {
                    "name": "G#4",
                    "midi": 68,
                    "time": 78.58538549999975,
                    "velocity": 0.28346456692913385,
                    "duration": 0.14634150000000545
                },
                {
                    "name": "F#4",
                    "midi": 66,
                    "time": 78.73172699999975,
                    "velocity": 0.25196850393700787,
                    "duration": 0.5853659999999934
                },
                {
                    "name": "A#4",
                    "midi": 70,
                    "time": 78.73172699999975,
                    "velocity": 0.25196850393700787,
                    "duration": 0.5853659999999934
                },
                {
                    "name": "C#5",
                    "midi": 73,
                    "time": 78.73172699999975,
                    "velocity": 0.25196850393700787,
                    "duration": 0.5853659999999934
                },
                {
                    "name": "F4",
                    "midi": 65,
                    "time": 79.31709299999974,
                    "velocity": 0.2204724409448819,
                    "duration": 0.21951224999999397
                },
                {
                    "name": "G#4",
                    "midi": 68,
                    "time": 79.31709299999974,
                    "velocity": 0.2204724409448819,
                    "duration": 0.21951224999999397
                },
                {
                    "name": "F4",
                    "midi": 65,
                    "time": 79.60977599999974,
                    "velocity": 0.29133858267716534,
                    "duration": 0.14634150000000545
                },
                {
                    "name": "G#4",
                    "midi": 68,
                    "time": 79.60977599999974,
                    "velocity": 0.29133858267716534,
                    "duration": 0.14634150000000545
                },
                {
                    "name": "D4",
                    "midi": 62,
                    "time": 79.75611749999975,
                    "velocity": 0.29133858267716534,
                    "duration": 0.14634150000000545
                },
                {
                    "name": "D#4",
                    "midi": 63,
                    "time": 79.90245899999975,
                    "velocity": 0.30708661417322836,
                    "duration": 0.43902450000000215
                },
                {
                    "name": "F#4",
                    "midi": 66,
                    "time": 79.90245899999975,
                    "velocity": 0.30708661417322836,
                    "duration": 0.43902450000000215
                },
                {
                    "name": "F#4",
                    "midi": 66,
                    "time": 80.34148349999975,
                    "velocity": 0.28346456692913385,
                    "duration": 0.14634150000000545
                },
                {
                    "name": "D#5",
                    "midi": 75,
                    "time": 80.34148349999975,
                    "velocity": 0.28346456692913385,
                    "duration": 0.14634150000000545
                },
                {
                    "name": "G#4",
                    "midi": 68,
                    "time": 80.48782499999976,
                    "velocity": 0.29133858267716534,
                    "duration": 0.14634150000000545
                },
                {
                    "name": "F5",
                    "midi": 77,
                    "time": 80.48782499999976,
                    "velocity": 0.29133858267716534,
                    "duration": 0.14634150000000545
                },
                {
                    "name": "F#4",
                    "midi": 66,
                    "time": 80.63416649999976,
                    "velocity": 0.28346456692913385,
                    "duration": 0.14634150000000545
                },
                {
                    "name": "D#5",
                    "midi": 75,
                    "time": 80.63416649999976,
                    "velocity": 0.28346456692913385,
                    "duration": 0.14634150000000545
                },
                {
                    "name": "F4",
                    "midi": 65,
                    "time": 80.78050799999977,
                    "velocity": 0.29133858267716534,
                    "duration": 0.14634150000000545
                },
                {
                    "name": "C#5",
                    "midi": 73,
                    "time": 80.78050799999977,
                    "velocity": 0.29133858267716534,
                    "duration": 0.14634150000000545
                },
                {
                    "name": "F#4",
                    "midi": 66,
                    "time": 80.92684949999978,
                    "velocity": 0.29133858267716534,
                    "duration": 0.14634150000000545
                },
                {
                    "name": "D#5",
                    "midi": 75,
                    "time": 80.92684949999978,
                    "velocity": 0.29133858267716534,
                    "duration": 0.14634150000000545
                },
                {
                    "name": "F4",
                    "midi": 65,
                    "time": 81.07319099999978,
                    "velocity": 0.31496062992125984,
                    "duration": 0.8780490000000043
                },
                {
                    "name": "C#5",
                    "midi": 73,
                    "time": 81.07319099999978,
                    "velocity": 0.31496062992125984,
                    "duration": 0.8780490000000043
                },
                {
                    "name": "G#3",
                    "midi": 56,
                    "time": 81.95123999999979,
                    "velocity": 0.33858267716535434,
                    "duration": 0.14634150000000545
                },
                {
                    "name": "C4",
                    "midi": 60,
                    "time": 82.09758149999979,
                    "velocity": 0.33858267716535434,
                    "duration": 0.14634150000000545
                },
                {
                    "name": "E3",
                    "midi": 52,
                    "time": 82.2439229999998,
                    "velocity": 0.3700787401574803,
                    "duration": 0.5853659999999934
                },
                {
                    "name": "G#3",
                    "midi": 56,
                    "time": 82.2439229999998,
                    "velocity": 0.3700787401574803,
                    "duration": 0.5853659999999934
                },
                {
                    "name": "C#4",
                    "midi": 61,
                    "time": 82.2439229999998,
                    "velocity": 0.3700787401574803,
                    "duration": 0.5853659999999934
                },
                {
                    "name": "D#3",
                    "midi": 51,
                    "time": 82.82928899999979,
                    "velocity": 0.2992125984251969,
                    "duration": 0.2926829999999967
                },
                {
                    "name": "G#3",
                    "midi": 56,
                    "time": 82.82928899999979,
                    "velocity": 0.2992125984251969,
                    "duration": 0.2926829999999967
                },
                {
                    "name": "C4",
                    "midi": 60,
                    "time": 82.82928899999979,
                    "velocity": 0.2992125984251969,
                    "duration": 0.2926829999999967
                },
                {
                    "name": "G#3",
                    "midi": 56,
                    "time": 83.12197199999979,
                    "velocity": 0.3779527559055118,
                    "duration": 0.14634150000000545
                },
                {
                    "name": "C4",
                    "midi": 60,
                    "time": 83.26831349999979,
                    "velocity": 0.3779527559055118,
                    "duration": 0.14634150000000545
                },
                {
                    "name": "G#3",
                    "midi": 56,
                    "time": 83.4146549999998,
                    "velocity": 0.41732283464566927,
                    "duration": 0.5853659999999934
                },
                {
                    "name": "E4",
                    "midi": 64,
                    "time": 83.4146549999998,
                    "velocity": 0.41732283464566927,
                    "duration": 0.5853659999999934
                },
                {
                    "name": "C#4",
                    "midi": 61,
                    "time": 83.4146549999998,
                    "velocity": 0.41732283464566927,
                    "duration": 0.5853659999999934
                },
                {
                    "name": "G#3",
                    "midi": 56,
                    "time": 84.00002099999979,
                    "velocity": 0.3543307086614173,
                    "duration": 0.2926829999999967
                },
                {
                    "name": "D#4",
                    "midi": 63,
                    "time": 84.00002099999979,
                    "velocity": 0.3543307086614173,
                    "duration": 0.2926829999999967
                },
                {
                    "name": "C4",
                    "midi": 60,
                    "time": 84.00002099999979,
                    "velocity": 0.3543307086614173,
                    "duration": 0.2926829999999967
                },
                {
                    "name": "C4",
                    "midi": 60,
                    "time": 84.29270399999979,
                    "velocity": 0.41732283464566927,
                    "duration": 0.14634150000000545
                },
                {
                    "name": "D#4",
                    "midi": 63,
                    "time": 84.29270399999979,
                    "velocity": 0.41732283464566927,
                    "duration": 0.14634150000000545
                },
                {
                    "name": "A4",
                    "midi": 69,
                    "time": 84.43904549999979,
                    "velocity": 0.41732283464566927,
                    "duration": 0.14634150000000545
                },
                {
                    "name": "C#4",
                    "midi": 61,
                    "time": 84.5853869999998,
                    "velocity": 0.4409448818897638,
                    "duration": 0.5853659999999934
                },
                {
                    "name": "E4",
                    "midi": 64,
                    "time": 84.5853869999998,
                    "velocity": 0.4409448818897638,
                    "duration": 0.5853659999999934
                },
                {
                    "name": "G#4",
                    "midi": 68,
                    "time": 84.5853869999998,
                    "velocity": 0.4409448818897638,
                    "duration": 0.5853659999999934
                },
                {
                    "name": "C4",
                    "midi": 60,
                    "time": 85.17075299999979,
                    "velocity": 0.2992125984251969,
                    "duration": 0.2926829999999967
                },
                {
                    "name": "D#4",
                    "midi": 63,
                    "time": 85.17075299999979,
                    "velocity": 0.2992125984251969,
                    "duration": 0.2926829999999967
                },
                {
                    "name": "G#4",
                    "midi": 68,
                    "time": 85.17075299999979,
                    "velocity": 0.2992125984251969,
                    "duration": 0.2926829999999967
                },
                {
                    "name": "B3",
                    "midi": 59,
                    "time": 85.46343599999979,
                    "velocity": 0.1968503937007874,
                    "duration": 0.2926830000000109
                },
                {
                    "name": "D#4",
                    "midi": 63,
                    "time": 85.46343599999979,
                    "velocity": 0.1968503937007874,
                    "duration": 0.2926830000000109
                },
                {
                    "name": "A4",
                    "midi": 69,
                    "time": 85.46343599999979,
                    "velocity": 0.2125984251968504,
                    "duration": 0.14634150000000545
                },
                {
                    "name": "B4",
                    "midi": 71,
                    "time": 85.6097774999998,
                    "velocity": 0.2125984251968504,
                    "duration": 0.14634150000000545
                },
                {
                    "name": "B3",
                    "midi": 59,
                    "time": 85.7561189999998,
                    "velocity": 0.1889763779527559,
                    "duration": 0.8780490000000043
                },
                {
                    "name": "E4",
                    "midi": 64,
                    "time": 85.7561189999998,
                    "velocity": 0.1889763779527559,
                    "duration": 0.8780490000000043
                },
                {
                    "name": "G#4",
                    "midi": 68,
                    "time": 85.7561189999998,
                    "velocity": 0.2047244094488189,
                    "duration": 0.8780490000000043
                },
                {
                    "name": "F4",
                    "midi": 65,
                    "time": 86.6341679999998,
                    "velocity": 0.25196850393700787,
                    "duration": 0.14634150000000545
                },
                {
                    "name": "G#4",
                    "midi": 68,
                    "time": 86.78050949999981,
                    "velocity": 0.25196850393700787,
                    "duration": 0.14634150000000545
                },
                {
                    "name": "F#4",
                    "midi": 66,
                    "time": 86.92685099999981,
                    "velocity": 0.18110236220472442,
                    "duration": 0.5853659999999934
                },
                {
                    "name": "A#4",
                    "midi": 70,
                    "time": 86.92685099999981,
                    "velocity": 0.2125984251968504,
                    "duration": 0.5853659999999934
                },
                {
                    "name": "F4",
                    "midi": 65,
                    "time": 87.51221699999981,
                    "velocity": 0.16535433070866143,
                    "duration": 0.21951224999999397
                },
                {
                    "name": "G#4",
                    "midi": 68,
                    "time": 87.51221699999981,
                    "velocity": 0.1968503937007874,
                    "duration": 0.21951224999999397
                },
                {
                    "name": "F4",
                    "midi": 65,
                    "time": 87.8048999999998,
                    "velocity": 0.25196850393700787,
                    "duration": 0.14634150000000545
                },
                {
                    "name": "G#4",
                    "midi": 68,
                    "time": 87.95124149999981,
                    "velocity": 0.25196850393700787,
                    "duration": 0.14634150000000545
                },
                {
                    "name": "F#4",
                    "midi": 66,
                    "time": 88.09758299999982,
                    "velocity": 0.1968503937007874,
                    "duration": 0.5853659999999934
                },
                {
                    "name": "A#4",
                    "midi": 70,
                    "time": 88.09758299999982,
                    "velocity": 0.1968503937007874,
                    "duration": 0.5853659999999934
                },
                {
                    "name": "C#5",
                    "midi": 73,
                    "time": 88.09758299999982,
                    "velocity": 0.23622047244094488,
                    "duration": 0.5853659999999934
                },
                {
                    "name": "F4",
                    "midi": 65,
                    "time": 88.68294899999981,
                    "velocity": 0.15748031496062992,
                    "duration": 0.21951224999999397
                },
                {
                    "name": "G#4",
                    "midi": 68,
                    "time": 88.68294899999981,
                    "velocity": 0.1889763779527559,
                    "duration": 0.21951224999999397
                },
                {
                    "name": "F4",
                    "midi": 65,
                    "time": 88.9756319999998,
                    "velocity": 0.2204724409448819,
                    "duration": 0.14634150000000545
                },
                {
                    "name": "G#4",
                    "midi": 68,
                    "time": 88.9756319999998,
                    "velocity": 0.25984251968503935,
                    "duration": 0.14634150000000545
                },
                {
                    "name": "D4",
                    "midi": 62,
                    "time": 89.12197349999981,
                    "velocity": 0.25984251968503935,
                    "duration": 0.14634150000000545
                },
                {
                    "name": "D#4",
                    "midi": 63,
                    "time": 89.26831499999982,
                    "velocity": 0.25196850393700787,
                    "duration": 0.5853659999999934
                },
                {
                    "name": "F#4",
                    "midi": 66,
                    "time": 89.26831499999982,
                    "velocity": 0.2992125984251969,
                    "duration": 0.5853659999999934
                },
                {
                    "name": "F#4",
                    "midi": 66,
                    "time": 89.85368099999981,
                    "velocity": 0.2047244094488189,
                    "duration": 0.2926829999999967
                },
                {
                    "name": "D#5",
                    "midi": 75,
                    "time": 89.85368099999981,
                    "velocity": 0.2440944881889764,
                    "duration": 0.2926829999999967
                },
                {
                    "name": "G#4",
                    "midi": 68,
                    "time": 90.1463639999998,
                    "velocity": 0.2440944881889764,
                    "duration": 0.14634150000000545
                },
                {
                    "name": "F5",
                    "midi": 77,
                    "time": 90.1463639999998,
                    "velocity": 0.29133858267716534,
                    "duration": 0.14634150000000545
                },
                {
                    "name": "F#4",
                    "midi": 66,
                    "time": 90.29270549999981,
                    "velocity": 0.2204724409448819,
                    "duration": 0.14634150000000545
                },
                {
                    "name": "D#5",
                    "midi": 75,
                    "time": 90.29270549999981,
                    "velocity": 0.25984251968503935,
                    "duration": 0.14634150000000545
                },
                {
                    "name": "F4",
                    "midi": 65,
                    "time": 90.43904699999982,
                    "velocity": 0.2677165354330709,
                    "duration": 0.5853659999999934
                },
                {
                    "name": "C#5",
                    "midi": 73,
                    "time": 90.43904699999982,
                    "velocity": 0.31496062992125984,
                    "duration": 0.5853659999999934
                },
                {
                    "name": "F4",
                    "midi": 65,
                    "time": 91.02441299999981,
                    "velocity": 0.1968503937007874,
                    "duration": 0.21951224999999397
                },
                {
                    "name": "G#4",
                    "midi": 68,
                    "time": 91.02441299999981,
                    "velocity": 0.23622047244094488,
                    "duration": 0.21951224999999397
                },
                {
                    "name": "F4",
                    "midi": 65,
                    "time": 91.31709599999981,
                    "velocity": 0.25196850393700787,
                    "duration": 0.14634150000000545
                },
                {
                    "name": "G#4",
                    "midi": 68,
                    "time": 91.46343749999981,
                    "velocity": 0.25196850393700787,
                    "duration": 0.14634150000000545
                },
                {
                    "name": "F#4",
                    "midi": 66,
                    "time": 91.60977899999982,
                    "velocity": 0.2047244094488189,
                    "duration": 0.5853659999999934
                },
                {
                    "name": "A#4",
                    "midi": 70,
                    "time": 91.60977899999982,
                    "velocity": 0.2440944881889764,
                    "duration": 0.5853659999999934
                },
                {
                    "name": "F4",
                    "midi": 65,
                    "time": 92.19514499999981,
                    "velocity": 0.1968503937007874,
                    "duration": 0.21951224999999397
                },
                {
                    "name": "G#4",
                    "midi": 68,
                    "time": 92.19514499999981,
                    "velocity": 0.23622047244094488,
                    "duration": 0.21951224999999397
                },
                {
                    "name": "F4",
                    "midi": 65,
                    "time": 92.48782799999981,
                    "velocity": 0.25196850393700787,
                    "duration": 0.14634150000000545
                },
                {
                    "name": "G#4",
                    "midi": 68,
                    "time": 92.63416949999981,
                    "velocity": 0.25196850393700787,
                    "duration": 0.14634150000000545
                },
                {
                    "name": "F#4",
                    "midi": 66,
                    "time": 92.78051099999982,
                    "velocity": 0.2047244094488189,
                    "duration": 0.5853659999999934
                },
                {
                    "name": "A#4",
                    "midi": 70,
                    "time": 92.78051099999982,
                    "velocity": 0.2047244094488189,
                    "duration": 0.5853659999999934
                },
                {
                    "name": "C#5",
                    "midi": 73,
                    "time": 92.78051099999982,
                    "velocity": 0.2440944881889764,
                    "duration": 0.5853659999999934
                },
                {
                    "name": "F4",
                    "midi": 65,
                    "time": 93.36587699999981,
                    "velocity": 0.1732283464566929,
                    "duration": 0.21951224999999397
                },
                {
                    "name": "G#4",
                    "midi": 68,
                    "time": 93.36587699999981,
                    "velocity": 0.2047244094488189,
                    "duration": 0.21951224999999397
                },
                {
                    "name": "F4",
                    "midi": 65,
                    "time": 93.65855999999981,
                    "velocity": 0.2204724409448819,
                    "duration": 0.14634150000000545
                },
                {
                    "name": "G#4",
                    "midi": 68,
                    "time": 93.65855999999981,
                    "velocity": 0.25984251968503935,
                    "duration": 0.14634150000000545
                },
                {
                    "name": "D4",
                    "midi": 62,
                    "time": 93.80490149999981,
                    "velocity": 0.25984251968503935,
                    "duration": 0.14634150000000545
                },
                {
                    "name": "D#4",
                    "midi": 63,
                    "time": 93.95124299999982,
                    "velocity": 0.2677165354330709,
                    "duration": 0.43902450000000215
                },
                {
                    "name": "F#4",
                    "midi": 66,
                    "time": 93.95124299999982,
                    "velocity": 0.31496062992125984,
                    "duration": 0.43902450000000215
                },
                {
                    "name": "F#4",
                    "midi": 66,
                    "time": 94.39026749999982,
                    "velocity": 0.2125984251968504,
                    "duration": 0.14634150000000545
                },
                {
                    "name": "D#5",
                    "midi": 75,
                    "time": 94.39026749999982,
                    "velocity": 0.25196850393700787,
                    "duration": 0.14634150000000545
                },
                {
                    "name": "G#4",
                    "midi": 68,
                    "time": 94.53660899999983,
                    "velocity": 0.2204724409448819,
                    "duration": 0.14634150000000545
                },
                {
                    "name": "F5",
                    "midi": 77,
                    "time": 94.53660899999983,
                    "velocity": 0.25984251968503935,
                    "duration": 0.14634150000000545
                },
                {
                    "name": "F#4",
                    "midi": 66,
                    "time": 94.68295049999983,
                    "velocity": 0.2125984251968504,
                    "duration": 0.14634150000000545
                },
                {
                    "name": "D#5",
                    "midi": 75,
                    "time": 94.68295049999983,
                    "velocity": 0.25196850393700787,
                    "duration": 0.14634150000000545
                },
                {
                    "name": "F4",
                    "midi": 65,
                    "time": 94.82929199999984,
                    "velocity": 0.2204724409448819,
                    "duration": 0.14634150000000545
                },
                {
                    "name": "C#5",
                    "midi": 73,
                    "time": 94.82929199999984,
                    "velocity": 0.25984251968503935,
                    "duration": 0.14634150000000545
                },
                {
                    "name": "F#4",
                    "midi": 66,
                    "time": 94.97563349999984,
                    "velocity": 0.2204724409448819,
                    "duration": 0.14634150000000545
                },
                {
                    "name": "D#5",
                    "midi": 75,
                    "time": 94.97563349999984,
                    "velocity": 0.25984251968503935,
                    "duration": 0.14634150000000545
                },
                {
                    "name": "F4",
                    "midi": 65,
                    "time": 95.12197499999985,
                    "velocity": 0.23622047244094488,
                    "duration": 0.8780490000000043
                },
                {
                    "name": "C#5",
                    "midi": 73,
                    "time": 95.12197499999985,
                    "velocity": 0.28346456692913385,
                    "duration": 0.8780490000000043
                },
                {
                    "name": "G#3",
                    "midi": 56,
                    "time": 96.00002399999985,
                    "velocity": 0.28346456692913385,
                    "duration": 0.14634150000000545
                },
                {
                    "name": "C4",
                    "midi": 60,
                    "time": 96.14636549999986,
                    "velocity": 0.28346456692913385,
                    "duration": 0.14634150000000545
                },
                {
                    "name": "E3",
                    "midi": 52,
                    "time": 96.29270699999987,
                    "velocity": 0.28346456692913385,
                    "duration": 0.5853659999999934
                },
                {
                    "name": "G#3",
                    "midi": 56,
                    "time": 96.29270699999987,
                    "velocity": 0.28346456692913385,
                    "duration": 0.5853659999999934
                },
                {
                    "name": "C#4",
                    "midi": 61,
                    "time": 96.29270699999987,
                    "velocity": 0.30708661417322836,
                    "duration": 0.5853659999999934
                },
                {
                    "name": "D#3",
                    "midi": 51,
                    "time": 96.87807299999986,
                    "velocity": 0.2283464566929134,
                    "duration": 0.2926829999999967
                },
                {
                    "name": "G#3",
                    "midi": 56,
                    "time": 96.87807299999986,
                    "velocity": 0.2283464566929134,
                    "duration": 0.2926829999999967
                },
                {
                    "name": "C4",
                    "midi": 60,
                    "time": 96.87807299999986,
                    "velocity": 0.2440944881889764,
                    "duration": 0.2926829999999967
                },
                {
                    "name": "G#3",
                    "midi": 56,
                    "time": 97.17075599999986,
                    "velocity": 0.30708661417322836,
                    "duration": 0.14634150000000545
                },
                {
                    "name": "C4",
                    "midi": 60,
                    "time": 97.31709749999986,
                    "velocity": 0.30708661417322836,
                    "duration": 0.14634150000000545
                },
                {
                    "name": "G#3",
                    "midi": 56,
                    "time": 97.46343899999987,
                    "velocity": 0.31496062992125984,
                    "duration": 0.5853659999999934
                },
                {
                    "name": "E4",
                    "midi": 64,
                    "time": 97.46343899999987,
                    "velocity": 0.3464566929133858,
                    "duration": 0.5853659999999934
                },
                {
                    "name": "C#4",
                    "midi": 61,
                    "time": 97.46343899999987,
                    "velocity": 0.31496062992125984,
                    "duration": 0.5853659999999934
                },
                {
                    "name": "G#3",
                    "midi": 56,
                    "time": 98.04880499999986,
                    "velocity": 0.2677165354330709,
                    "duration": 0.2926829999999967
                },
                {
                    "name": "D#4",
                    "midi": 63,
                    "time": 98.04880499999986,
                    "velocity": 0.29133858267716534,
                    "duration": 0.2926829999999967
                },
                {
                    "name": "C4",
                    "midi": 60,
                    "time": 98.04880499999986,
                    "velocity": 0.2677165354330709,
                    "duration": 0.2926829999999967
                },
                {
                    "name": "C4",
                    "midi": 60,
                    "time": 98.34148799999986,
                    "velocity": 0.31496062992125984,
                    "duration": 0.14634150000000545
                },
                {
                    "name": "D#4",
                    "midi": 63,
                    "time": 98.34148799999986,
                    "velocity": 0.3464566929133858,
                    "duration": 0.14634150000000545
                },
                {
                    "name": "A4",
                    "midi": 69,
                    "time": 98.48782949999986,
                    "velocity": 0.3464566929133858,
                    "duration": 0.14634150000000545
                },
                {
                    "name": "C#4",
                    "midi": 61,
                    "time": 98.63417099999987,
                    "velocity": 0.3464566929133858,
                    "duration": 0.5853659999999934
                },
                {
                    "name": "E4",
                    "midi": 64,
                    "time": 98.63417099999987,
                    "velocity": 0.3464566929133858,
                    "duration": 0.5853659999999934
                },
                {
                    "name": "G#4",
                    "midi": 68,
                    "time": 98.63417099999987,
                    "velocity": 0.3779527559055118,
                    "duration": 0.5853659999999934
                },
                {
                    "name": "C4",
                    "midi": 60,
                    "time": 99.21953699999986,
                    "velocity": 0.2755905511811024,
                    "duration": 0.2926829999999967
                },
                {
                    "name": "D#4",
                    "midi": 63,
                    "time": 99.21953699999986,
                    "velocity": 0.2755905511811024,
                    "duration": 0.2926829999999967
                },
                {
                    "name": "G#4",
                    "midi": 68,
                    "time": 99.21953699999986,
                    "velocity": 0.2992125984251969,
                    "duration": 0.2926829999999967
                },
                {
                    "name": "B3",
                    "midi": 59,
                    "time": 99.51221999999986,
                    "velocity": 0.1889763779527559,
                    "duration": 0.2926830000000109
                },
                {
                    "name": "D#4",
                    "midi": 63,
                    "time": 99.51221999999986,
                    "velocity": 0.1889763779527559,
                    "duration": 0.2926830000000109
                },
                {
                    "name": "A4",
                    "midi": 69,
                    "time": 99.51221999999986,
                    "velocity": 0.2047244094488189,
                    "duration": 0.14634150000000545
                },
                {
                    "name": "B4",
                    "midi": 71,
                    "time": 99.65856149999986,
                    "velocity": 0.2047244094488189,
                    "duration": 0.14634150000000545
                },
                {
                    "name": "B3",
                    "midi": 59,
                    "time": 99.80490299999987,
                    "velocity": 0.1889763779527559,
                    "duration": 0.8780490000000043
                },
                {
                    "name": "E4",
                    "midi": 64,
                    "time": 99.80490299999987,
                    "velocity": 0.1889763779527559,
                    "duration": 0.8780490000000043
                },
                {
                    "name": "G#4",
                    "midi": 68,
                    "time": 99.80490299999987,
                    "velocity": 0.2047244094488189,
                    "duration": 0.8780490000000043
                },
                {
                    "name": "B3",
                    "midi": 59,
                    "time": 100.68295199999987,
                    "velocity": 0.3700787401574803,
                    "duration": 0.2926830000000109
                },
                {
                    "name": "E4",
                    "midi": 64,
                    "time": 100.68295199999987,
                    "velocity": 0.3700787401574803,
                    "duration": 0.2926830000000109
                },
                {
                    "name": "G#4",
                    "midi": 68,
                    "time": 100.68295199999987,
                    "velocity": 0.3700787401574803,
                    "duration": 0.14634150000000545
                },
                {
                    "name": "A4",
                    "midi": 69,
                    "time": 100.82929349999988,
                    "velocity": 0.3700787401574803,
                    "duration": 0.14634150000000545
                },
                {
                    "name": "B3",
                    "midi": 59,
                    "time": 100.97563499999988,
                    "velocity": 0.4015748031496063,
                    "duration": 0.5853659999999934
                },
                {
                    "name": "D#4",
                    "midi": 63,
                    "time": 100.97563499999988,
                    "velocity": 0.4015748031496063,
                    "duration": 0.5853659999999934
                },
                {
                    "name": "F#4",
                    "midi": 66,
                    "time": 100.97563499999988,
                    "velocity": 0.4015748031496063,
                    "duration": 0.5853659999999934
                },
                {
                    "name": "B3",
                    "midi": 59,
                    "time": 101.56100099999988,
                    "velocity": 0.3464566929133858,
                    "duration": 0.2926829999999967
                },
                {
                    "name": "E4",
                    "midi": 64,
                    "time": 101.56100099999988,
                    "velocity": 0.3464566929133858,
                    "duration": 0.2926829999999967
                },
                {
                    "name": "G#4",
                    "midi": 68,
                    "time": 101.56100099999988,
                    "velocity": 0.3464566929133858,
                    "duration": 0.2926829999999967
                },
                {
                    "name": "B3",
                    "midi": 59,
                    "time": 101.85368399999987,
                    "velocity": 0.3858267716535433,
                    "duration": 0.2926830000000109
                },
                {
                    "name": "E4",
                    "midi": 64,
                    "time": 101.85368399999987,
                    "velocity": 0.3858267716535433,
                    "duration": 0.2926830000000109
                },
                {
                    "name": "G#4",
                    "midi": 68,
                    "time": 101.85368399999987,
                    "velocity": 0.3858267716535433,
                    "duration": 0.14634150000000545
                },
                {
                    "name": "A4",
                    "midi": 69,
                    "time": 102.00002549999988,
                    "velocity": 0.3858267716535433,
                    "duration": 0.14634150000000545
                },
                {
                    "name": "B3",
                    "midi": 59,
                    "time": 102.14636699999988,
                    "velocity": 0.41732283464566927,
                    "duration": 0.5853659999999934
                },
                {
                    "name": "D#4",
                    "midi": 63,
                    "time": 102.14636699999988,
                    "velocity": 0.41732283464566927,
                    "duration": 0.5853659999999934
                },
                {
                    "name": "F#4",
                    "midi": 66,
                    "time": 102.14636699999988,
                    "velocity": 0.41732283464566927,
                    "duration": 0.5853659999999934
                },
                {
                    "name": "B3",
                    "midi": 59,
                    "time": 102.73173299999988,
                    "velocity": 0.3779527559055118,
                    "duration": 0.2926829999999967
                },
                {
                    "name": "E4",
                    "midi": 64,
                    "time": 102.73173299999988,
                    "velocity": 0.3779527559055118,
                    "duration": 0.2926829999999967
                },
                {
                    "name": "G#4",
                    "midi": 68,
                    "time": 102.73173299999988,
                    "velocity": 0.3779527559055118,
                    "duration": 0.2926829999999967
                },
                {
                    "name": "B3",
                    "midi": 59,
                    "time": 103.02441599999987,
                    "velocity": 0.41732283464566927,
                    "duration": 0.2926830000000109
                },
                {
                    "name": "D#4",
                    "midi": 63,
                    "time": 103.02441599999987,
                    "velocity": 0.41732283464566927,
                    "duration": 0.2926830000000109
                },
                {
                    "name": "F#4",
                    "midi": 66,
                    "time": 103.02441599999987,
                    "velocity": 0.41732283464566927,
                    "duration": 0.14634150000000545
                },
                {
                    "name": "G#4",
                    "midi": 68,
                    "time": 103.17075749999988,
                    "velocity": 0.41732283464566927,
                    "duration": 0.14634150000000545
                },
                {
                    "name": "G#3",
                    "midi": 56,
                    "time": 103.31709899999989,
                    "velocity": 0.4409448818897638,
                    "duration": 0.5853659999999934
                },
                {
                    "name": "C#4",
                    "midi": 61,
                    "time": 103.31709899999989,
                    "velocity": 0.4409448818897638,
                    "duration": 0.5853659999999934
                },
                {
                    "name": "E4",
                    "midi": 64,
                    "time": 103.31709899999989,
                    "velocity": 0.4409448818897638,
                    "duration": 0.5853659999999934
                },
                {
                    "name": "A3",
                    "midi": 57,
                    "time": 103.90246499999988,
                    "velocity": 0.47244094488188976,
                    "duration": 0.2926829999999967
                },
                {
                    "name": "C#4",
                    "midi": 61,
                    "time": 103.90246499999988,
                    "velocity": 0.47244094488188976,
                    "duration": 0.2926829999999967
                },
                {
                    "name": "F#4",
                    "midi": 66,
                    "time": 103.90246499999988,
                    "velocity": 0.47244094488188976,
                    "duration": 0.2926829999999967
                },
                {
                    "name": "A3",
                    "midi": 57,
                    "time": 104.19514799999988,
                    "velocity": 0.4409448818897638,
                    "duration": 0.2926830000000109
                },
                {
                    "name": "D#4",
                    "midi": 63,
                    "time": 104.19514799999988,
                    "velocity": 0.4409448818897638,
                    "duration": 0.14634150000000545
                },
                {
                    "name": "F#4",
                    "midi": 66,
                    "time": 104.34148949999988,
                    "velocity": 0.4409448818897638,
                    "duration": 0.14634150000000545
                },
                {
                    "name": "G#3",
                    "midi": 56,
                    "time": 104.48783099999989,
                    "velocity": 0.4094488188976378,
                    "duration": 0.536585500000001
                },
                {
                    "name": "E4",
                    "midi": 64,
                    "time": 104.48783099999989,
                    "velocity": 0.4094488188976378,
                    "duration": 0.536585500000001
                },
                {
                    "name": "G#4",
                    "midi": 68,
                    "time": 105.0731969999999,
                    "velocity": 0.3543307086614173,
                    "duration": 0.2926829999999967
                },
                {
                    "name": "E5",
                    "midi": 76,
                    "time": 105.0731969999999,
                    "velocity": 0.3543307086614173,
                    "duration": 0.2926829999999967
                },
                {
                    "name": "A4",
                    "midi": 69,
                    "time": 105.36587999999989,
                    "velocity": 0.3779527559055118,
                    "duration": 0.2926830000000109
                },
                {
                    "name": "E5",
                    "midi": 76,
                    "time": 105.36587999999989,
                    "velocity": 0.3779527559055118,
                    "duration": 0.14634150000000545
                },
                {
                    "name": "G#5",
                    "midi": 80,
                    "time": 105.5122214999999,
                    "velocity": 0.3779527559055118,
                    "duration": 0.14634150000000545
                },
                {
                    "name": "A4",
                    "midi": 69,
                    "time": 105.6585629999999,
                    "velocity": 0.4015748031496063,
                    "duration": 0.5853659999999934
                },
                {
                    "name": "F#5",
                    "midi": 78,
                    "time": 105.6585629999999,
                    "velocity": 0.4015748031496063,
                    "duration": 0.5853659999999934
                },
                {
                    "name": "F#4",
                    "midi": 66,
                    "time": 106.2439289999999,
                    "velocity": 0.3700787401574803,
                    "duration": 0.2926829999999967
                },
                {
                    "name": "A4",
                    "midi": 69,
                    "time": 106.2439289999999,
                    "velocity": 0.3700787401574803,
                    "duration": 0.2926829999999967
                },
                {
                    "name": "E4",
                    "midi": 64,
                    "time": 106.53661199999989,
                    "velocity": 0.41732283464566927,
                    "duration": 0.14634150000000545
                },
                {
                    "name": "G#4",
                    "midi": 68,
                    "time": 106.53661199999989,
                    "velocity": 0.41732283464566927,
                    "duration": 0.14634150000000545
                },
                {
                    "name": "F#4",
                    "midi": 66,
                    "time": 106.6829534999999,
                    "velocity": 0.41732283464566927,
                    "duration": 0.14634150000000545
                },
                {
                    "name": "A4",
                    "midi": 69,
                    "time": 106.6829534999999,
                    "velocity": 0.41732283464566927,
                    "duration": 0.14634150000000545
                },
                {
                    "name": "G#4",
                    "midi": 68,
                    "time": 106.8292949999999,
                    "velocity": 0.4251968503937008,
                    "duration": 0.5853659999999934
                },
                {
                    "name": "B4",
                    "midi": 71,
                    "time": 106.8292949999999,
                    "velocity": 0.4251968503937008,
                    "duration": 0.5853659999999934
                },
                {
                    "name": "G#4",
                    "midi": 68,
                    "time": 107.4146609999999,
                    "velocity": 0.3779527559055118,
                    "duration": 0.2926829999999967
                },
                {
                    "name": "E5",
                    "midi": 76,
                    "time": 107.4146609999999,
                    "velocity": 0.3779527559055118,
                    "duration": 0.2926829999999967
                },
                {
                    "name": "A4",
                    "midi": 69,
                    "time": 107.70734399999989,
                    "velocity": 0.4251968503937008,
                    "duration": 0.2926830000000109
                },
                {
                    "name": "E5",
                    "midi": 76,
                    "time": 107.70734399999989,
                    "velocity": 0.4251968503937008,
                    "duration": 0.14634150000000545
                },
                {
                    "name": "G#5",
                    "midi": 80,
                    "time": 107.8536854999999,
                    "velocity": 0.4251968503937008,
                    "duration": 0.14634150000000545
                },
                {
                    "name": "A4",
                    "midi": 69,
                    "time": 108.0000269999999,
                    "velocity": 0.4330708661417323,
                    "duration": 0.5853659999999934
                },
                {
                    "name": "F#5",
                    "midi": 78,
                    "time": 108.0000269999999,
                    "velocity": 0.4330708661417323,
                    "duration": 0.5853659999999934
                },
                {
                    "name": "D#5",
                    "midi": 75,
                    "time": 108.5853929999999,
                    "velocity": 0.4015748031496063,
                    "duration": 0.2926829999999967
                },
                {
                    "name": "A4",
                    "midi": 69,
                    "time": 108.5853929999999,
                    "velocity": 0.4015748031496063,
                    "duration": 0.2926829999999967
                },
                {
                    "name": "G#4",
                    "midi": 68,
                    "time": 108.8780759999999,
                    "velocity": 0.4015748031496063,
                    "duration": 0.14634150000000545
                },
                {
                    "name": "E5",
                    "midi": 76,
                    "time": 108.8780759999999,
                    "velocity": 0.4015748031496063,
                    "duration": 0.14634150000000545
                },
                {
                    "name": "A4",
                    "midi": 69,
                    "time": 109.0244174999999,
                    "velocity": 0.4015748031496063,
                    "duration": 0.14634150000000545
                },
                {
                    "name": "C#5",
                    "midi": 73,
                    "time": 109.0244174999999,
                    "velocity": 0.4015748031496063,
                    "duration": 0.14634150000000545
                },
                {
                    "name": "G#4",
                    "midi": 68,
                    "time": 109.1707589999999,
                    "velocity": 0.3937007874015748,
                    "duration": 0.5853659999999934
                },
                {
                    "name": "B4",
                    "midi": 71,
                    "time": 109.1707589999999,
                    "velocity": 0.3937007874015748,
                    "duration": 0.5853659999999934
                },
                {
                    "name": "B3",
                    "midi": 59,
                    "time": 109.7561249999999,
                    "velocity": 0.3700787401574803,
                    "duration": 0.2926829999999967
                },
                {
                    "name": "G#4",
                    "midi": 68,
                    "time": 109.7561249999999,
                    "velocity": 0.3700787401574803,
                    "duration": 0.2926829999999967
                },
                {
                    "name": "E4",
                    "midi": 64,
                    "time": 109.7561249999999,
                    "velocity": 0.3700787401574803,
                    "duration": 0.2926829999999967
                },
                {
                    "name": "B3",
                    "midi": 59,
                    "time": 110.0488079999999,
                    "velocity": 0.47244094488188976,
                    "duration": 0.2926830000000109
                },
                {
                    "name": "E4",
                    "midi": 64,
                    "time": 110.0488079999999,
                    "velocity": 0.47244094488188976,
                    "duration": 0.2926830000000109
                },
                {
                    "name": "G#4",
                    "midi": 68,
                    "time": 110.0488079999999,
                    "velocity": 0.47244094488188976,
                    "duration": 0.14634150000000545
                },
                {
                    "name": "A4",
                    "midi": 69,
                    "time": 110.1951494999999,
                    "velocity": 0.47244094488188976,
                    "duration": 0.14634150000000545
                },
                {
                    "name": "B3",
                    "midi": 59,
                    "time": 110.3414909999999,
                    "velocity": 0.5118110236220472,
                    "duration": 0.5853659999999934
                },
                {
                    "name": "D#4",
                    "midi": 63,
                    "time": 110.3414909999999,
                    "velocity": 0.5118110236220472,
                    "duration": 0.5853659999999934
                },
                {
                    "name": "F#4",
                    "midi": 66,
                    "time": 110.3414909999999,
                    "velocity": 0.5118110236220472,
                    "duration": 0.5853659999999934
                },
                {
                    "name": "B3",
                    "midi": 59,
                    "time": 110.9268569999999,
                    "velocity": 0.4330708661417323,
                    "duration": 0.2926829999999967
                },
                {
                    "name": "E4",
                    "midi": 64,
                    "time": 110.9268569999999,
                    "velocity": 0.4330708661417323,
                    "duration": 0.2926829999999967
                },
                {
                    "name": "G#4",
                    "midi": 68,
                    "time": 110.9268569999999,
                    "velocity": 0.4330708661417323,
                    "duration": 0.2926829999999967
                },
                {
                    "name": "B3",
                    "midi": 59,
                    "time": 111.2195399999999,
                    "velocity": 0.4881889763779528,
                    "duration": 0.2926830000000109
                },
                {
                    "name": "E4",
                    "midi": 64,
                    "time": 111.2195399999999,
                    "velocity": 0.4881889763779528,
                    "duration": 0.2926830000000109
                },
                {
                    "name": "G#4",
                    "midi": 68,
                    "time": 111.2195399999999,
                    "velocity": 0.4881889763779528,
                    "duration": 0.14634150000000545
                },
                {
                    "name": "A4",
                    "midi": 69,
                    "time": 111.3658814999999,
                    "velocity": 0.4881889763779528,
                    "duration": 0.14634150000000545
                },
                {
                    "name": "B3",
                    "midi": 59,
                    "time": 111.5122229999999,
                    "velocity": 0.5275590551181102,
                    "duration": 0.5853659999999934
                },
                {
                    "name": "D#4",
                    "midi": 63,
                    "time": 111.5122229999999,
                    "velocity": 0.5275590551181102,
                    "duration": 0.5853659999999934
                },
                {
                    "name": "F#4",
                    "midi": 66,
                    "time": 111.5122229999999,
                    "velocity": 0.5275590551181102,
                    "duration": 0.5853659999999934
                },
                {
                    "name": "B3",
                    "midi": 59,
                    "time": 112.0975889999999,
                    "velocity": 0.48031496062992124,
                    "duration": 0.2926829999999967
                },
                {
                    "name": "E4",
                    "midi": 64,
                    "time": 112.0975889999999,
                    "velocity": 0.48031496062992124,
                    "duration": 0.2926829999999967
                },
                {
                    "name": "G#4",
                    "midi": 68,
                    "time": 112.0975889999999,
                    "velocity": 0.48031496062992124,
                    "duration": 0.2926829999999967
                },
                {
                    "name": "B3",
                    "midi": 59,
                    "time": 112.3902719999999,
                    "velocity": 0.5275590551181102,
                    "duration": 0.2926830000000109
                },
                {
                    "name": "D#4",
                    "midi": 63,
                    "time": 112.3902719999999,
                    "velocity": 0.5275590551181102,
                    "duration": 0.2926830000000109
                },
                {
                    "name": "F#4",
                    "midi": 66,
                    "time": 112.3902719999999,
                    "velocity": 0.5275590551181102,
                    "duration": 0.14634150000000545
                },
                {
                    "name": "G#4",
                    "midi": 68,
                    "time": 112.5366134999999,
                    "velocity": 0.5275590551181102,
                    "duration": 0.14634150000000545
                },
                {
                    "name": "G#3",
                    "midi": 56,
                    "time": 112.68295499999991,
                    "velocity": 0.5669291338582677,
                    "duration": 0.5853659999999934
                },
                {
                    "name": "C#4",
                    "midi": 61,
                    "time": 112.68295499999991,
                    "velocity": 0.5669291338582677,
                    "duration": 0.5853659999999934
                },
                {
                    "name": "E4",
                    "midi": 64,
                    "time": 112.68295499999991,
                    "velocity": 0.5669291338582677,
                    "duration": 0.5853659999999934
                },
                {
                    "name": "D#4",
                    "midi": 63,
                    "time": 113.2683209999999,
                    "velocity": 0.5669291338582677,
                    "duration": 0.14634150000000545
                },
                {
                    "name": "C#4",
                    "midi": 61,
                    "time": 113.4146624999999,
                    "velocity": 0.5511811023622047,
                    "duration": 0.14634150000000545
                },
                {
                    "name": "C4",
                    "midi": 60,
                    "time": 113.56100399999991,
                    "velocity": 0.5669291338582677,
                    "duration": 0.14634150000000545
                },
                {
                    "name": "D#4",
                    "midi": 63,
                    "time": 113.70734549999992,
                    "velocity": 0.5511811023622047,
                    "duration": 0.14634150000000545
                },
                {
                    "name": "C#4",
                    "midi": 61,
                    "time": 113.85368699999992,
                    "velocity": 0.5196850393700787,
                    "duration": 0.536585500000001
                },
                {
                    "name": "F4",
                    "midi": 65,
                    "time": 114.43905299999993,
                    "velocity": 0.31496062992125984,
                    "duration": 0.2926829999999967
                },
                {
                    "name": "C#5",
                    "midi": 73,
                    "time": 114.43905299999993,
                    "velocity": 0.31496062992125984,
                    "duration": 0.2926829999999967
                },
                {
                    "name": "F#4",
                    "midi": 66,
                    "time": 114.73173599999993,
                    "velocity": 0.33070866141732286,
                    "duration": 0.2926830000000109
                },
                {
                    "name": "D5",
                    "midi": 74,
                    "time": 114.73173599999993,
                    "velocity": 0.33070866141732286,
                    "duration": 0.14634150000000545
                },
                {
                    "name": "F5",
                    "midi": 77,
                    "time": 114.87807749999993,
                    "velocity": 0.33070866141732286,
                    "duration": 0.14634150000000545
                },
                {
                    "name": "F#4",
                    "midi": 66,
                    "time": 115.02441899999994,
                    "velocity": 0.31496062992125984,
                    "duration": 0.5853659999999934
                },
                {
                    "name": "D#5",
                    "midi": 75,
                    "time": 115.02441899999994,
                    "velocity": 0.31496062992125984,
                    "duration": 0.5853659999999934
                },
                {
                    "name": "D#4",
                    "midi": 63,
                    "time": 115.60978499999993,
                    "velocity": 0.2677165354330709,
                    "duration": 0.2926829999999967
                },
                {
                    "name": "F#4",
                    "midi": 66,
                    "time": 115.60978499999993,
                    "velocity": 0.2677165354330709,
                    "duration": 0.2926829999999967
                },
                {
                    "name": "F4",
                    "midi": 65,
                    "time": 115.90246799999993,
                    "velocity": 0.29133858267716534,
                    "duration": 0.14634150000000545
                },
                {
                    "name": "D#4",
                    "midi": 63,
                    "time": 116.04880949999993,
                    "velocity": 0.29133858267716534,
                    "duration": 0.14634150000000545
                },
                {
                    "name": "F#4",
                    "midi": 66,
                    "time": 116.04880949999993,
                    "velocity": 0.29133858267716534,
                    "duration": 0.14634150000000545
                },
                {
                    "name": "F4",
                    "midi": 65,
                    "time": 116.19515099999994,
                    "velocity": 0.31496062992125984,
                    "duration": 0.5853659999999934
                },
                {
                    "name": "G#4",
                    "midi": 68,
                    "time": 116.19515099999994,
                    "velocity": 0.31496062992125984,
                    "duration": 0.5853659999999934
                },
                {
                    "name": "C#5",
                    "midi": 73,
                    "time": 116.78051699999993,
                    "velocity": 0.2992125984251969,
                    "duration": 0.2926829999999967
                },
                {
                    "name": "F4",
                    "midi": 65,
                    "time": 116.78051699999993,
                    "velocity": 0.2992125984251969,
                    "duration": 0.2926829999999967
                },
                {
                    "name": "F#4",
                    "midi": 66,
                    "time": 117.07319999999993,
                    "velocity": 0.31496062992125984,
                    "duration": 0.2926830000000109
                },
                {
                    "name": "D5",
                    "midi": 74,
                    "time": 117.07319999999993,
                    "velocity": 0.31496062992125984,
                    "duration": 0.14634150000000545
                },
                {
                    "name": "F5",
                    "midi": 77,
                    "time": 117.21954149999993,
                    "velocity": 0.31496062992125984,
                    "duration": 0.14634150000000545
                },
                {
                    "name": "F#4",
                    "midi": 66,
                    "time": 117.36588299999994,
                    "velocity": 0.2992125984251969,
                    "duration": 0.5853659999999934
                },
                {
                    "name": "D#5",
                    "midi": 75,
                    "time": 117.36588299999994,
                    "velocity": 0.2992125984251969,
                    "duration": 0.5853659999999934
                },
                {
                    "name": "B4",
                    "midi": 71,
                    "time": 117.95124899999993,
                    "velocity": 0.25196850393700787,
                    "duration": 0.2926829999999967
                },
                {
                    "name": "F5",
                    "midi": 77,
                    "time": 117.95124899999993,
                    "velocity": 0.25196850393700787,
                    "duration": 0.2926829999999967
                },
                {
                    "name": "C5",
                    "midi": 72,
                    "time": 118.24393199999993,
                    "velocity": 0.2755905511811024,
                    "duration": 0.2926830000000109
                },
                {
                    "name": "F5",
                    "midi": 77,
                    "time": 118.24393199999993,
                    "velocity": 0.2755905511811024,
                    "duration": 0.14634150000000545
                },
                {
                    "name": "G#5",
                    "midi": 80,
                    "time": 118.39027349999994,
                    "velocity": 0.2755905511811024,
                    "duration": 0.14634150000000545
                },
                {
                    "name": "C5",
                    "midi": 72,
                    "time": 118.53661499999994,
                    "velocity": 0.25196850393700787,
                    "duration": 0.8780490000000043
                },
                {
                    "name": "F#5",
                    "midi": 78,
                    "time": 118.53661499999994,
                    "velocity": 0.25196850393700787,
                    "duration": 0.8780490000000043
                },
                {
                    "name": "F4",
                    "midi": 65,
                    "time": 119.41466399999995,
                    "velocity": 0.2440944881889764,
                    "duration": 0.14634150000000545
                },
                {
                    "name": "G#4",
                    "midi": 68,
                    "time": 119.56100549999995,
                    "velocity": 0.2440944881889764,
                    "duration": 0.14634150000000545
                },
                {
                    "name": "F#4",
                    "midi": 66,
                    "time": 119.70734699999996,
                    "velocity": 0.2125984251968504,
                    "duration": 0.5853659999999934
                },
                {
                    "name": "A#4",
                    "midi": 70,
                    "time": 119.70734699999996,
                    "velocity": 0.2283464566929134,
                    "duration": 0.5853659999999934
                },
                {
                    "name": "F4",
                    "midi": 65,
                    "time": 120.29271299999995,
                    "velocity": 0.1968503937007874,
                    "duration": 0.21951224999999397
                },
                {
                    "name": "G#4",
                    "midi": 68,
                    "time": 120.29271299999995,
                    "velocity": 0.2125984251968504,
                    "duration": 0.21951224999999397
                },
                {
                    "name": "F4",
                    "midi": 65,
                    "time": 120.58539599999995,
                    "velocity": 0.2440944881889764,
                    "duration": 0.14634150000000545
                },
                {
                    "name": "G#4",
                    "midi": 68,
                    "time": 120.73173749999995,
                    "velocity": 0.2440944881889764,
                    "duration": 0.14634150000000545
                },
                {
                    "name": "F#4",
                    "midi": 66,
                    "time": 120.87807899999996,
                    "velocity": 0.2047244094488189,
                    "duration": 0.5853659999999934
                },
                {
                    "name": "A#4",
                    "midi": 70,
                    "time": 120.87807899999996,
                    "velocity": 0.2047244094488189,
                    "duration": 0.5853659999999934
                },
                {
                    "name": "C#5",
                    "midi": 73,
                    "time": 120.87807899999996,
                    "velocity": 0.2204724409448819,
                    "duration": 0.5853659999999934
                },
                {
                    "name": "F4",
                    "midi": 65,
                    "time": 121.46344499999995,
                    "velocity": 0.1889763779527559,
                    "duration": 0.21951224999999397
                },
                {
                    "name": "G#4",
                    "midi": 68,
                    "time": 121.46344499999995,
                    "velocity": 0.2047244094488189,
                    "duration": 0.21951224999999397
                },
                {
                    "name": "F4",
                    "midi": 65,
                    "time": 121.75612799999995,
                    "velocity": 0.23622047244094488,
                    "duration": 0.14634150000000545
                },
                {
                    "name": "G#4",
                    "midi": 68,
                    "time": 121.75612799999995,
                    "velocity": 0.25984251968503935,
                    "duration": 0.14634150000000545
                },
                {
                    "name": "D4",
                    "midi": 62,
                    "time": 121.90246949999995,
                    "velocity": 0.25984251968503935,
                    "duration": 0.14634150000000545
                },
                {
                    "name": "D#4",
                    "midi": 63,
                    "time": 122.04881099999996,
                    "velocity": 0.2440944881889764,
                    "duration": 0.5853659999999934
                },
                {
                    "name": "F#4",
                    "midi": 66,
                    "time": 122.04881099999996,
                    "velocity": 0.2677165354330709,
                    "duration": 0.5853659999999934
                },
                {
                    "name": "F#4",
                    "midi": 66,
                    "time": 122.63417699999995,
                    "velocity": 0.2283464566929134,
                    "duration": 0.2926829999999967
                },
                {
                    "name": "D#5",
                    "midi": 75,
                    "time": 122.63417699999995,
                    "velocity": 0.2440944881889764,
                    "duration": 0.2926829999999967
                },
                {
                    "name": "G#4",
                    "midi": 68,
                    "time": 122.92685999999995,
                    "velocity": 0.25984251968503935,
                    "duration": 0.14634150000000545
                },
                {
                    "name": "F5",
                    "midi": 77,
                    "time": 122.92685999999995,
                    "velocity": 0.28346456692913385,
                    "duration": 0.14634150000000545
                },
                {
                    "name": "F#4",
                    "midi": 66,
                    "time": 123.07320149999995,
                    "velocity": 0.23622047244094488,
                    "duration": 0.14634150000000545
                },
                {
                    "name": "D#5",
                    "midi": 75,
                    "time": 123.07320149999995,
                    "velocity": 0.25984251968503935,
                    "duration": 0.14634150000000545
                },
                {
                    "name": "F4",
                    "midi": 65,
                    "time": 123.21954299999996,
                    "velocity": 0.25196850393700787,
                    "duration": 0.5853659999999934
                },
                {
                    "name": "C#5",
                    "midi": 73,
                    "time": 123.21954299999996,
                    "velocity": 0.2755905511811024,
                    "duration": 0.5853659999999934
                },
                {
                    "name": "F4",
                    "midi": 65,
                    "time": 123.80490899999995,
                    "velocity": 0.2125984251968504,
                    "duration": 0.21951224999999397
                },
                {
                    "name": "G#4",
                    "midi": 68,
                    "time": 123.80490899999995,
                    "velocity": 0.2283464566929134,
                    "duration": 0.21951224999999397
                },
                {
                    "name": "F4",
                    "midi": 65,
                    "time": 124.09759199999995,
                    "velocity": 0.2440944881889764,
                    "duration": 0.14634150000000545
                },
                {
                    "name": "G#4",
                    "midi": 68,
                    "time": 124.24393349999995,
                    "velocity": 0.2440944881889764,
                    "duration": 0.14634150000000545
                },
                {
                    "name": "F#4",
                    "midi": 66,
                    "time": 124.39027499999996,
                    "velocity": 0.2047244094488189,
                    "duration": 0.5853659999999934
                },
                {
                    "name": "A#4",
                    "midi": 70,
                    "time": 124.39027499999996,
                    "velocity": 0.2204724409448819,
                    "duration": 0.5853659999999934
                },
                {
                    "name": "F4",
                    "midi": 65,
                    "time": 124.97564099999995,
                    "velocity": 0.2047244094488189,
                    "duration": 0.21951224999999397
                },
                {
                    "name": "G#4",
                    "midi": 68,
                    "time": 124.97564099999995,
                    "velocity": 0.2204724409448819,
                    "duration": 0.21951224999999397
                },
                {
                    "name": "F4",
                    "midi": 65,
                    "time": 125.26832399999995,
                    "velocity": 0.2440944881889764,
                    "duration": 0.14634150000000545
                },
                {
                    "name": "G#4",
                    "midi": 68,
                    "time": 125.41466549999996,
                    "velocity": 0.2440944881889764,
                    "duration": 0.14634150000000545
                },
                {
                    "name": "F#4",
                    "midi": 66,
                    "time": 125.56100699999996,
                    "velocity": 0.2125984251968504,
                    "duration": 0.5853659999999934
                },
                {
                    "name": "A#4",
                    "midi": 70,
                    "time": 125.56100699999996,
                    "velocity": 0.2125984251968504,
                    "duration": 0.5853659999999934
                },
                {
                    "name": "C#5",
                    "midi": 73,
                    "time": 125.56100699999996,
                    "velocity": 0.2283464566929134,
                    "duration": 0.5853659999999934
                },
                {
                    "name": "F4",
                    "midi": 65,
                    "time": 126.14637299999995,
                    "velocity": 0.1889763779527559,
                    "duration": 0.21951224999999397
                },
                {
                    "name": "G#4",
                    "midi": 68,
                    "time": 126.14637299999995,
                    "velocity": 0.2047244094488189,
                    "duration": 0.21951224999999397
                },
                {
                    "name": "F4",
                    "midi": 65,
                    "time": 126.43905599999995,
                    "velocity": 0.23622047244094488,
                    "duration": 0.14634150000000545
                },
                {
                    "name": "G#4",
                    "midi": 68,
                    "time": 126.43905599999995,
                    "velocity": 0.25984251968503935,
                    "duration": 0.14634150000000545
                },
                {
                    "name": "D4",
                    "midi": 62,
                    "time": 126.58539749999996,
                    "velocity": 0.25984251968503935,
                    "duration": 0.14634150000000545
                },
                {
                    "name": "D#4",
                    "midi": 63,
                    "time": 126.73173899999996,
                    "velocity": 0.28346456692913385,
                    "duration": 0.43902450000000215
                },
                {
                    "name": "F#4",
                    "midi": 66,
                    "time": 126.73173899999996,
                    "velocity": 0.30708661417322836,
                    "duration": 0.43902450000000215
                },
                {
                    "name": "F#4",
                    "midi": 66,
                    "time": 127.17076349999996,
                    "velocity": 0.2283464566929134,
                    "duration": 0.14634150000000545
                },
                {
                    "name": "D#5",
                    "midi": 75,
                    "time": 127.17076349999996,
                    "velocity": 0.2440944881889764,
                    "duration": 0.14634150000000545
                },
                {
                    "name": "G#4",
                    "midi": 68,
                    "time": 127.31710499999997,
                    "velocity": 0.23622047244094488,
                    "duration": 0.14634150000000545
                },
                {
                    "name": "F5",
                    "midi": 77,
                    "time": 127.31710499999997,
                    "velocity": 0.25984251968503935,
                    "duration": 0.14634150000000545
                },
                {
                    "name": "F#4",
                    "midi": 66,
                    "time": 127.46344649999998,
                    "velocity": 0.2283464566929134,
                    "duration": 0.14634150000000545
                },
                {
                    "name": "D#5",
                    "midi": 75,
                    "time": 127.46344649999998,
                    "velocity": 0.2440944881889764,
                    "duration": 0.14634150000000545
                },
                {
                    "name": "F4",
                    "midi": 65,
                    "time": 127.60978799999998,
                    "velocity": 0.23622047244094488,
                    "duration": 0.14634150000000545
                },
                {
                    "name": "C#5",
                    "midi": 73,
                    "time": 127.60978799999998,
                    "velocity": 0.25984251968503935,
                    "duration": 0.14634150000000545
                },
                {
                    "name": "F#4",
                    "midi": 66,
                    "time": 127.75612949999999,
                    "velocity": 0.23622047244094488,
                    "duration": 0.14634150000000545
                },
                {
                    "name": "D#5",
                    "midi": 75,
                    "time": 127.75612949999999,
                    "velocity": 0.25984251968503935,
                    "duration": 0.14634150000000545
                },
                {
                    "name": "F4",
                    "midi": 65,
                    "time": 127.90247099999999,
                    "velocity": 0.25196850393700787,
                    "duration": 0.8780490000000043
                },
                {
                    "name": "C#5",
                    "midi": 73,
                    "time": 127.90247099999999,
                    "velocity": 0.2755905511811024,
                    "duration": 0.8780490000000043
                },
                {
                    "name": "C4",
                    "midi": 60,
                    "time": 131.121984,
                    "velocity": 0.33070866141732286,
                    "duration": 0.14634150000000545
                },
                {
                    "name": "A3",
                    "midi": 57,
                    "time": 131.121984,
                    "velocity": 0.33070866141732286,
                    "duration": 0.14634150000000545
                },
                {
                    "name": "F#4",
                    "midi": 66,
                    "time": 131.2683255,
                    "velocity": 0.33070866141732286,
                    "duration": 0.14634150000000545
                },
                {
                    "name": "A#3",
                    "midi": 58,
                    "time": 131.414667,
                    "velocity": 0.36220472440944884,
                    "duration": 0.5853659999999934
                },
                {
                    "name": "C#4",
                    "midi": 61,
                    "time": 131.414667,
                    "velocity": 0.36220472440944884,
                    "duration": 0.5853659999999934
                },
                {
                    "name": "F4",
                    "midi": 65,
                    "time": 131.414667,
                    "velocity": 0.36220472440944884,
                    "duration": 0.5853659999999934
                },
                {
                    "name": "A3",
                    "midi": 57,
                    "time": 132.000033,
                    "velocity": 0.28346456692913385,
                    "duration": 0.2926830000000109
                },
                {
                    "name": "C4",
                    "midi": 60,
                    "time": 132.000033,
                    "velocity": 0.28346456692913385,
                    "duration": 0.2926830000000109
                },
                {
                    "name": "F4",
                    "midi": 65,
                    "time": 132.000033,
                    "velocity": 0.28346456692913385,
                    "duration": 0.2926830000000109
                },
                {
                    "name": "G#3",
                    "midi": 56,
                    "time": 132.292716,
                    "velocity": 0.1968503937007874,
                    "duration": 0.2926830000000109
                },
                {
                    "name": "C4",
                    "midi": 60,
                    "time": 132.292716,
                    "velocity": 0.1968503937007874,
                    "duration": 0.2926830000000109
                },
                {
                    "name": "F#4",
                    "midi": 66,
                    "time": 132.292716,
                    "velocity": 0.2125984251968504,
                    "duration": 0.14634150000000545
                },
                {
                    "name": "G#4",
                    "midi": 68,
                    "time": 132.43905750000002,
                    "velocity": 0.2125984251968504,
                    "duration": 0.14634150000000545
                },
                {
                    "name": "G#3",
                    "midi": 56,
                    "time": 132.58539900000002,
                    "velocity": 0.1968503937007874,
                    "duration": 0.8780490000000043
                },
                {
                    "name": "C#4",
                    "midi": 61,
                    "time": 132.58539900000002,
                    "velocity": 0.1968503937007874,
                    "duration": 0.8780490000000043
                },
                {
                    "name": "F4",
                    "midi": 65,
                    "time": 132.58539900000002,
                    "velocity": 0.2125984251968504,
                    "duration": 0.8780490000000043
                },
                {
                    "name": "G#4",
                    "midi": 68,
                    "time": 133.17076500000002,
                    "velocity": 0.3700787401574803,
                    "duration": 0.2926830000000109
                },
                {
                    "name": "E4",
                    "midi": 64,
                    "time": 133.17076500000002,
                    "velocity": 0.3700787401574803,
                    "duration": 0.2926830000000109
                },
                {
                    "name": "B3",
                    "midi": 59,
                    "time": 133.19027720000003,
                    "velocity": 0.3700787401574803,
                    "duration": 0.2926830000000109
                },
                {
                    "name": "B3",
                    "midi": 59,
                    "time": 133.46344800000003,
                    "velocity": 0.3700787401574803,
                    "duration": 0.2926830000000109
                },
                {
                    "name": "E4",
                    "midi": 64,
                    "time": 133.46344800000003,
                    "velocity": 0.3700787401574803,
                    "duration": 0.2926830000000109
                },
                {
                    "name": "G#4",
                    "midi": 68,
                    "time": 133.46344800000003,
                    "velocity": 0.3700787401574803,
                    "duration": 0.14634150000000545
                },
                {
                    "name": "A4",
                    "midi": 69,
                    "time": 133.60978950000003,
                    "velocity": 0.3700787401574803,
                    "duration": 0.14634150000000545
                },
                {
                    "name": "B3",
                    "midi": 59,
                    "time": 133.75613100000004,
                    "velocity": 0.4015748031496063,
                    "duration": 0.5853659999999934
                },
                {
                    "name": "D#4",
                    "midi": 63,
                    "time": 133.75613100000004,
                    "velocity": 0.4015748031496063,
                    "duration": 0.5853659999999934
                },
                {
                    "name": "F#4",
                    "midi": 66,
                    "time": 133.75613100000004,
                    "velocity": 0.4015748031496063,
                    "duration": 0.5853659999999934
                },
                {
                    "name": "B3",
                    "midi": 59,
                    "time": 134.34149700000003,
                    "velocity": 0.3464566929133858,
                    "duration": 0.2926830000000109
                },
                {
                    "name": "E4",
                    "midi": 64,
                    "time": 134.34149700000003,
                    "velocity": 0.3464566929133858,
                    "duration": 0.2926830000000109
                },
                {
                    "name": "G#4",
                    "midi": 68,
                    "time": 134.34149700000003,
                    "velocity": 0.3464566929133858,
                    "duration": 0.2926830000000109
                },
                {
                    "name": "B3",
                    "midi": 59,
                    "time": 134.63418000000004,
                    "velocity": 0.3858267716535433,
                    "duration": 0.2926830000000109
                },
                {
                    "name": "E4",
                    "midi": 64,
                    "time": 134.63418000000004,
                    "velocity": 0.3858267716535433,
                    "duration": 0.2926830000000109
                },
                {
                    "name": "G#4",
                    "midi": 68,
                    "time": 134.63418000000004,
                    "velocity": 0.3858267716535433,
                    "duration": 0.14634150000000545
                },
                {
                    "name": "A4",
                    "midi": 69,
                    "time": 134.78052150000005,
                    "velocity": 0.3858267716535433,
                    "duration": 0.14634150000000545
                },
                {
                    "name": "B3",
                    "midi": 59,
                    "time": 134.92686300000005,
                    "velocity": 0.41732283464566927,
                    "duration": 0.5853659999999934
                },
                {
                    "name": "D#4",
                    "midi": 63,
                    "time": 134.92686300000005,
                    "velocity": 0.41732283464566927,
                    "duration": 0.5853659999999934
                },
                {
                    "name": "F#4",
                    "midi": 66,
                    "time": 134.92686300000005,
                    "velocity": 0.41732283464566927,
                    "duration": 0.5853659999999934
                },
                {
                    "name": "B3",
                    "midi": 59,
                    "time": 135.51222900000005,
                    "velocity": 0.3779527559055118,
                    "duration": 0.2926830000000109
                },
                {
                    "name": "E4",
                    "midi": 64,
                    "time": 135.51222900000005,
                    "velocity": 0.3779527559055118,
                    "duration": 0.2926830000000109
                },
                {
                    "name": "G#4",
                    "midi": 68,
                    "time": 135.51222900000005,
                    "velocity": 0.3779527559055118,
                    "duration": 0.2926830000000109
                },
                {
                    "name": "B3",
                    "midi": 59,
                    "time": 135.80491200000006,
                    "velocity": 0.41732283464566927,
                    "duration": 0.2926830000000109
                },
                {
                    "name": "D#4",
                    "midi": 63,
                    "time": 135.80491200000006,
                    "velocity": 0.41732283464566927,
                    "duration": 0.2926830000000109
                },
                {
                    "name": "F#4",
                    "midi": 66,
                    "time": 135.80491200000006,
                    "velocity": 0.41732283464566927,
                    "duration": 0.14634150000000545
                },
                {
                    "name": "G#4",
                    "midi": 68,
                    "time": 135.95125350000006,
                    "velocity": 0.41732283464566927,
                    "duration": 0.14634150000000545
                },
                {
                    "name": "G#3",
                    "midi": 56,
                    "time": 136.09759500000007,
                    "velocity": 0.4409448818897638,
                    "duration": 0.5853659999999934
                },
                {
                    "name": "C#4",
                    "midi": 61,
                    "time": 136.09759500000007,
                    "velocity": 0.4409448818897638,
                    "duration": 0.5853659999999934
                },
                {
                    "name": "E4",
                    "midi": 64,
                    "time": 136.09759500000007,
                    "velocity": 0.4409448818897638,
                    "duration": 0.5853659999999934
                },
                {
                    "name": "A3",
                    "midi": 57,
                    "time": 136.68296100000006,
                    "velocity": 0.47244094488188976,
                    "duration": 0.2926830000000109
                },
                {
                    "name": "C#4",
                    "midi": 61,
                    "time": 136.68296100000006,
                    "velocity": 0.47244094488188976,
                    "duration": 0.2926830000000109
                },
                {
                    "name": "F#4",
                    "midi": 66,
                    "time": 136.68296100000006,
                    "velocity": 0.47244094488188976,
                    "duration": 0.2926830000000109
                },
                {
                    "name": "A3",
                    "midi": 57,
                    "time": 136.97564400000007,
                    "velocity": 0.4409448818897638,
                    "duration": 0.2926830000000109
                },
                {
                    "name": "D#4",
                    "midi": 63,
                    "time": 136.97564400000007,
                    "velocity": 0.4409448818897638,
                    "duration": 0.14634150000000545
                },
                {
                    "name": "F#4",
                    "midi": 66,
                    "time": 137.12198550000008,
                    "velocity": 0.4409448818897638,
                    "duration": 0.14634150000000545
                },
                {
                    "name": "G#3",
                    "midi": 56,
                    "time": 137.26832700000008,
                    "velocity": 0.4094488188976378,
                    "duration": 0.536585500000001
                },
                {
                    "name": "E4",
                    "midi": 64,
                    "time": 137.26832700000008,
                    "velocity": 0.4094488188976378,
                    "duration": 0.536585500000001
                },
                {
                    "name": "G#4",
                    "midi": 68,
                    "time": 137.85369300000008,
                    "velocity": 0.3543307086614173,
                    "duration": 0.2926830000000109
                },
                {
                    "name": "E5",
                    "midi": 76,
                    "time": 137.85369300000008,
                    "velocity": 0.3543307086614173,
                    "duration": 0.2926830000000109
                },
                {
                    "name": "A4",
                    "midi": 69,
                    "time": 138.1463760000001,
                    "velocity": 0.3779527559055118,
                    "duration": 0.2926830000000109
                },
                {
                    "name": "E5",
                    "midi": 76,
                    "time": 138.1463760000001,
                    "velocity": 0.3779527559055118,
                    "duration": 0.14634150000000545
                },
                {
                    "name": "G#5",
                    "midi": 80,
                    "time": 138.2927175000001,
                    "velocity": 0.3779527559055118,
                    "duration": 0.14634150000000545
                },
                {
                    "name": "A4",
                    "midi": 69,
                    "time": 138.4390590000001,
                    "velocity": 0.4015748031496063,
                    "duration": 0.5853659999999934
                },
                {
                    "name": "F#5",
                    "midi": 78,
                    "time": 138.4390590000001,
                    "velocity": 0.4015748031496063,
                    "duration": 0.5853659999999934
                },
                {
                    "name": "F#4",
                    "midi": 66,
                    "time": 139.0244250000001,
                    "velocity": 0.3700787401574803,
                    "duration": 0.2926830000000109
                },
                {
                    "name": "A4",
                    "midi": 69,
                    "time": 139.0244250000001,
                    "velocity": 0.3700787401574803,
                    "duration": 0.2926830000000109
                },
                {
                    "name": "G#4",
                    "midi": 68,
                    "time": 139.3171080000001,
                    "velocity": 0.41732283464566927,
                    "duration": 0.14634150000000545
                },
                {
                    "name": "F#4",
                    "midi": 66,
                    "time": 139.4634495000001,
                    "velocity": 0.41732283464566927,
                    "duration": 0.14634150000000545
                },
                {
                    "name": "A4",
                    "midi": 69,
                    "time": 139.4634495000001,
                    "velocity": 0.41732283464566927,
                    "duration": 0.14634150000000545
                },
                {
                    "name": "G#4",
                    "midi": 68,
                    "time": 139.60979100000011,
                    "velocity": 0.4251968503937008,
                    "duration": 0.5853659999999934
                },
                {
                    "name": "B4",
                    "midi": 71,
                    "time": 139.60979100000011,
                    "velocity": 0.4251968503937008,
                    "duration": 0.5853659999999934
                },
                {
                    "name": "G#4",
                    "midi": 68,
                    "time": 140.1951570000001,
                    "velocity": 0.3779527559055118,
                    "duration": 0.2926830000000109
                },
                {
                    "name": "E5",
                    "midi": 76,
                    "time": 140.1951570000001,
                    "velocity": 0.3779527559055118,
                    "duration": 0.2926830000000109
                },
                {
                    "name": "A4",
                    "midi": 69,
                    "time": 140.48784000000012,
                    "velocity": 0.4251968503937008,
                    "duration": 0.2926830000000109
                },
                {
                    "name": "E5",
                    "midi": 76,
                    "time": 140.48784000000012,
                    "velocity": 0.4251968503937008,
                    "duration": 0.14634150000000545
                },
                {
                    "name": "G#5",
                    "midi": 80,
                    "time": 140.63418150000012,
                    "velocity": 0.4251968503937008,
                    "duration": 0.14634150000000545
                },
                {
                    "name": "A4",
                    "midi": 69,
                    "time": 140.78052300000013,
                    "velocity": 0.4330708661417323,
                    "duration": 0.5853659999999934
                },
                {
                    "name": "F#5",
                    "midi": 78,
                    "time": 140.78052300000013,
                    "velocity": 0.4330708661417323,
                    "duration": 0.5853659999999934
                },
                {
                    "name": "D#5",
                    "midi": 75,
                    "time": 141.36588900000012,
                    "velocity": 0.4015748031496063,
                    "duration": 0.2926830000000109
                },
                {
                    "name": "A4",
                    "midi": 69,
                    "time": 141.36588900000012,
                    "velocity": 0.4015748031496063,
                    "duration": 0.2926830000000109
                },
                {
                    "name": "G#4",
                    "midi": 68,
                    "time": 141.65857200000013,
                    "velocity": 0.4015748031496063,
                    "duration": 0.14634150000000545
                },
                {
                    "name": "E5",
                    "midi": 76,
                    "time": 141.65857200000013,
                    "velocity": 0.4015748031496063,
                    "duration": 0.14634150000000545
                },
                {
                    "name": "A4",
                    "midi": 69,
                    "time": 141.80491350000014,
                    "velocity": 0.4015748031496063,
                    "duration": 0.14634150000000545
                },
                {
                    "name": "C#5",
                    "midi": 73,
                    "time": 141.80491350000014,
                    "velocity": 0.4015748031496063,
                    "duration": 0.14634150000000545
                },
                {
                    "name": "G#4",
                    "midi": 68,
                    "time": 141.95125500000015,
                    "velocity": 0.3937007874015748,
                    "duration": 0.5853659999999934
                },
                {
                    "name": "B4",
                    "midi": 71,
                    "time": 141.95125500000015,
                    "velocity": 0.3937007874015748,
                    "duration": 0.5853659999999934
                },
                {
                    "name": "B3",
                    "midi": 59,
                    "time": 142.53662100000014,
                    "velocity": 0.3700787401574803,
                    "duration": 0.2926830000000109
                },
                {
                    "name": "G#4",
                    "midi": 68,
                    "time": 142.53662100000014,
                    "velocity": 0.3700787401574803,
                    "duration": 0.2926830000000109
                },
                {
                    "name": "E4",
                    "midi": 64,
                    "time": 142.53662100000014,
                    "velocity": 0.3700787401574803,
                    "duration": 0.2926830000000109
                },
                {
                    "name": "B3",
                    "midi": 59,
                    "time": 142.82930400000015,
                    "velocity": 0.5275590551181102,
                    "duration": 0.2926830000000109
                },
                {
                    "name": "E4",
                    "midi": 64,
                    "time": 142.82930400000015,
                    "velocity": 0.5275590551181102,
                    "duration": 0.2926830000000109
                },
                {
                    "name": "G#4",
                    "midi": 68,
                    "time": 142.82930400000015,
                    "velocity": 0.5275590551181102,
                    "duration": 0.14634150000000545
                },
                {
                    "name": "A4",
                    "midi": 69,
                    "time": 142.97564550000016,
                    "velocity": 0.5275590551181102,
                    "duration": 0.14634150000000545
                },
                {
                    "name": "B3",
                    "midi": 59,
                    "time": 143.12198700000016,
                    "velocity": 0.5748031496062992,
                    "duration": 0.5853659999999934
                },
                {
                    "name": "D#4",
                    "midi": 63,
                    "time": 143.12198700000016,
                    "velocity": 0.5748031496062992,
                    "duration": 0.5853659999999934
                },
                {
                    "name": "F#4",
                    "midi": 66,
                    "time": 143.12198700000016,
                    "velocity": 0.5748031496062992,
                    "duration": 0.5853659999999934
                },
                {
                    "name": "B3",
                    "midi": 59,
                    "time": 143.70735300000015,
                    "velocity": 0.4881889763779528,
                    "duration": 0.2926830000000109
                },
                {
                    "name": "E4",
                    "midi": 64,
                    "time": 143.70735300000015,
                    "velocity": 0.4881889763779528,
                    "duration": 0.2926830000000109
                },
                {
                    "name": "G#4",
                    "midi": 68,
                    "time": 143.70735300000015,
                    "velocity": 0.4881889763779528,
                    "duration": 0.2926830000000109
                },
                {
                    "name": "B3",
                    "midi": 59,
                    "time": 144.00003600000016,
                    "velocity": 0.5433070866141733,
                    "duration": 0.2926830000000109
                },
                {
                    "name": "E4",
                    "midi": 64,
                    "time": 144.00003600000016,
                    "velocity": 0.5433070866141733,
                    "duration": 0.2926830000000109
                },
                {
                    "name": "G#4",
                    "midi": 68,
                    "time": 144.00003600000016,
                    "velocity": 0.5433070866141733,
                    "duration": 0.14634150000000545
                },
                {
                    "name": "A4",
                    "midi": 69,
                    "time": 144.14637750000017,
                    "velocity": 0.5433070866141733,
                    "duration": 0.14634150000000545
                },
                {
                    "name": "B3",
                    "midi": 59,
                    "time": 144.29271900000018,
                    "velocity": 0.5905511811023622,
                    "duration": 0.5853659999999934
                },
                {
                    "name": "D#4",
                    "midi": 63,
                    "time": 144.29271900000018,
                    "velocity": 0.5905511811023622,
                    "duration": 0.5853659999999934
                },
                {
                    "name": "F#4",
                    "midi": 66,
                    "time": 144.29271900000018,
                    "velocity": 0.5905511811023622,
                    "duration": 0.5853659999999934
                },
                {
                    "name": "B3",
                    "midi": 59,
                    "time": 144.87808500000017,
                    "velocity": 0.5354330708661418,
                    "duration": 0.2926830000000109
                },
                {
                    "name": "E4",
                    "midi": 64,
                    "time": 144.87808500000017,
                    "velocity": 0.5354330708661418,
                    "duration": 0.2926830000000109
                },
                {
                    "name": "G#4",
                    "midi": 68,
                    "time": 144.87808500000017,
                    "velocity": 0.5354330708661418,
                    "duration": 0.2926830000000109
                },
                {
                    "name": "B3",
                    "midi": 59,
                    "time": 145.17076800000018,
                    "velocity": 0.5905511811023622,
                    "duration": 0.2926830000000109
                },
                {
                    "name": "D#4",
                    "midi": 63,
                    "time": 145.17076800000018,
                    "velocity": 0.5905511811023622,
                    "duration": 0.2926830000000109
                },
                {
                    "name": "F#4",
                    "midi": 66,
                    "time": 145.17076800000018,
                    "velocity": 0.5905511811023622,
                    "duration": 0.14634150000000545
                },
                {
                    "name": "G#4",
                    "midi": 68,
                    "time": 145.31710950000019,
                    "velocity": 0.5905511811023622,
                    "duration": 0.14634150000000545
                },
                {
                    "name": "G#3",
                    "midi": 56,
                    "time": 145.4634510000002,
                    "velocity": 0.6299212598425197,
                    "duration": 0.5853659999999934
                },
                {
                    "name": "C#4",
                    "midi": 61,
                    "time": 145.4634510000002,
                    "velocity": 0.6299212598425197,
                    "duration": 0.5853659999999934
                },
                {
                    "name": "E4",
                    "midi": 64,
                    "time": 145.4634510000002,
                    "velocity": 0.6299212598425197,
                    "duration": 0.5853659999999934
                },
                {
                    "name": "D#4",
                    "midi": 63,
                    "time": 146.04881700000018,
                    "velocity": 0.6377952755905512,
                    "duration": 0.14634150000000545
                },
                {
                    "name": "C#4",
                    "midi": 61,
                    "time": 146.1951585000002,
                    "velocity": 0.6141732283464567,
                    "duration": 0.14634150000000545
                },
                {
                    "name": "C4",
                    "midi": 60,
                    "time": 146.3415000000002,
                    "velocity": 0.6299212598425197,
                    "duration": 0.14634150000000545
                },
                {
                    "name": "D#4",
                    "midi": 63,
                    "time": 146.4878415000002,
                    "velocity": 0.6141732283464567,
                    "duration": 0.14634150000000545
                },
                {
                    "name": "C#4",
                    "midi": 61,
                    "time": 146.6341830000002,
                    "velocity": 0.5826771653543307,
                    "duration": 0.536585500000001
                },
                {
                    "name": "F4",
                    "midi": 65,
                    "time": 147.2195490000002,
                    "velocity": 0.31496062992125984,
                    "duration": 0.2926830000000109
                },
                {
                    "name": "C#5",
                    "midi": 73,
                    "time": 147.2195490000002,
                    "velocity": 0.31496062992125984,
                    "duration": 0.2926830000000109
                },
                {
                    "name": "F#4",
                    "midi": 66,
                    "time": 147.5122320000002,
                    "velocity": 0.33070866141732286,
                    "duration": 0.2926830000000109
                },
                {
                    "name": "D5",
                    "midi": 74,
                    "time": 147.5122320000002,
                    "velocity": 0.33070866141732286,
                    "duration": 0.14634150000000545
                },
                {
                    "name": "F5",
                    "midi": 77,
                    "time": 147.65857350000022,
                    "velocity": 0.33070866141732286,
                    "duration": 0.14634150000000545
                },
                {
                    "name": "F#4",
                    "midi": 66,
                    "time": 147.80491500000022,
                    "velocity": 0.31496062992125984,
                    "duration": 0.5853659999999934
                },
                {
                    "name": "D#5",
                    "midi": 75,
                    "time": 147.80491500000022,
                    "velocity": 0.31496062992125984,
                    "duration": 0.5853659999999934
                },
                {
                    "name": "D#4",
                    "midi": 63,
                    "time": 148.39028100000021,
                    "velocity": 0.2677165354330709,
                    "duration": 0.2926830000000109
                },
                {
                    "name": "F#4",
                    "midi": 66,
                    "time": 148.39028100000021,
                    "velocity": 0.2677165354330709,
                    "duration": 0.2926830000000109
                },
                {
                    "name": "F4",
                    "midi": 65,
                    "time": 148.68296400000023,
                    "velocity": 0.29133858267716534,
                    "duration": 0.14634150000000545
                },
                {
                    "name": "D#4",
                    "midi": 63,
                    "time": 148.82930550000023,
                    "velocity": 0.29133858267716534,
                    "duration": 0.14634150000000545
                },
                {
                    "name": "F#4",
                    "midi": 66,
                    "time": 148.82930550000023,
                    "velocity": 0.29133858267716534,
                    "duration": 0.14634150000000545
                },
                {
                    "name": "F4",
                    "midi": 65,
                    "time": 148.97564700000024,
                    "velocity": 0.31496062992125984,
                    "duration": 0.5853659999999934
                },
                {
                    "name": "G#4",
                    "midi": 68,
                    "time": 148.97564700000024,
                    "velocity": 0.31496062992125984,
                    "duration": 0.5853659999999934
                },
                {
                    "name": "C#5",
                    "midi": 73,
                    "time": 149.56101300000023,
                    "velocity": 0.2992125984251969,
                    "duration": 0.2926830000000109
                },
                {
                    "name": "F4",
                    "midi": 65,
                    "time": 149.56101300000023,
                    "velocity": 0.2992125984251969,
                    "duration": 0.2926830000000109
                },
                {
                    "name": "F#4",
                    "midi": 66,
                    "time": 149.85369600000024,
                    "velocity": 0.31496062992125984,
                    "duration": 0.2926830000000109
                },
                {
                    "name": "D5",
                    "midi": 74,
                    "time": 149.85369600000024,
                    "velocity": 0.31496062992125984,
                    "duration": 0.14634150000000545
                },
                {
                    "name": "F5",
                    "midi": 77,
                    "time": 150.00003750000025,
                    "velocity": 0.31496062992125984,
                    "duration": 0.14634150000000545
                },
                {
                    "name": "F#4",
                    "midi": 66,
                    "time": 150.14637900000025,
                    "velocity": 0.2992125984251969,
                    "duration": 0.5853659999999934
                },
                {
                    "name": "D#5",
                    "midi": 75,
                    "time": 150.14637900000025,
                    "velocity": 0.2992125984251969,
                    "duration": 0.5853659999999934
                },
                {
                    "name": "B4",
                    "midi": 71,
                    "time": 150.73174500000025,
                    "velocity": 0.25196850393700787,
                    "duration": 0.2926830000000109
                },
                {
                    "name": "F5",
                    "midi": 77,
                    "time": 150.73174500000025,
                    "velocity": 0.25196850393700787,
                    "duration": 0.2926830000000109
                },
                {
                    "name": "C5",
                    "midi": 72,
                    "time": 151.02442800000026,
                    "velocity": 0.2755905511811024,
                    "duration": 0.2926830000000109
                },
                {
                    "name": "F5",
                    "midi": 77,
                    "time": 151.02442800000026,
                    "velocity": 0.2755905511811024,
                    "duration": 0.14634150000000545
                },
                {
                    "name": "G#5",
                    "midi": 80,
                    "time": 151.17076950000026,
                    "velocity": 0.2755905511811024,
                    "duration": 0.14634150000000545
                },
                {
                    "name": "C5",
                    "midi": 72,
                    "time": 151.31711100000027,
                    "velocity": 0.25196850393700787,
                    "duration": 0.8780490000000043
                },
                {
                    "name": "F#5",
                    "midi": 78,
                    "time": 151.31711100000027,
                    "velocity": 0.25196850393700787,
                    "duration": 0.8780490000000043
                },
                {
                    "name": "F4",
                    "midi": 65,
                    "time": 152.19516000000027,
                    "velocity": 0.2440944881889764,
                    "duration": 0.14634150000000545
                },
                {
                    "name": "G#4",
                    "midi": 68,
                    "time": 152.34150150000028,
                    "velocity": 0.2440944881889764,
                    "duration": 0.14634150000000545
                },
                {
                    "name": "F#4",
                    "midi": 66,
                    "time": 152.48784300000028,
                    "velocity": 0.2047244094488189,
                    "duration": 0.5853659999999934
                },
                {
                    "name": "A#4",
                    "midi": 70,
                    "time": 152.48784300000028,
                    "velocity": 0.2204724409448819,
                    "duration": 0.5853659999999934
                },
                {
                    "name": "F4",
                    "midi": 65,
                    "time": 153.07320900000028,
                    "velocity": 0.1968503937007874,
                    "duration": 0.21951225000000818
                },
                {
                    "name": "G#4",
                    "midi": 68,
                    "time": 153.07320900000028,
                    "velocity": 0.2125984251968504,
                    "duration": 0.21951225000000818
                },
                {
                    "name": "F4",
                    "midi": 65,
                    "time": 153.3658920000003,
                    "velocity": 0.2440944881889764,
                    "duration": 0.14634150000000545
                },
                {
                    "name": "G#4",
                    "midi": 68,
                    "time": 153.5122335000003,
                    "velocity": 0.2440944881889764,
                    "duration": 0.14634150000000545
                },
                {
                    "name": "F#4",
                    "midi": 66,
                    "time": 153.6585750000003,
                    "velocity": 0.2204724409448819,
                    "duration": 0.5853659999999934
                },
                {
                    "name": "A#4",
                    "midi": 70,
                    "time": 153.6585750000003,
                    "velocity": 0.2204724409448819,
                    "duration": 0.5853659999999934
                },
                {
                    "name": "C#5",
                    "midi": 73,
                    "time": 153.6585750000003,
                    "velocity": 0.23622047244094488,
                    "duration": 0.5853659999999934
                },
                {
                    "name": "F4",
                    "midi": 65,
                    "time": 154.2439410000003,
                    "velocity": 0.1889763779527559,
                    "duration": 0.21951225000000818
                },
                {
                    "name": "G#4",
                    "midi": 68,
                    "time": 154.2439410000003,
                    "velocity": 0.2047244094488189,
                    "duration": 0.21951225000000818
                },
                {
                    "name": "F4",
                    "midi": 65,
                    "time": 154.5366240000003,
                    "velocity": 0.23622047244094488,
                    "duration": 0.14634150000000545
                },
                {
                    "name": "G#4",
                    "midi": 68,
                    "time": 154.5366240000003,
                    "velocity": 0.25984251968503935,
                    "duration": 0.14634150000000545
                },
                {
                    "name": "D4",
                    "midi": 62,
                    "time": 154.6829655000003,
                    "velocity": 0.25984251968503935,
                    "duration": 0.14634150000000545
                },
                {
                    "name": "D#4",
                    "midi": 63,
                    "time": 154.8293070000003,
                    "velocity": 0.2440944881889764,
                    "duration": 0.5853659999999934
                },
                {
                    "name": "F#4",
                    "midi": 66,
                    "time": 154.8293070000003,
                    "velocity": 0.2677165354330709,
                    "duration": 0.5853659999999934
                },
                {
                    "name": "F#4",
                    "midi": 66,
                    "time": 155.4146730000003,
                    "velocity": 0.2283464566929134,
                    "duration": 0.2926830000000109
                },
                {
                    "name": "D#5",
                    "midi": 75,
                    "time": 155.4146730000003,
                    "velocity": 0.2440944881889764,
                    "duration": 0.2926830000000109
                },
                {
                    "name": "G#4",
                    "midi": 68,
                    "time": 155.70735600000032,
                    "velocity": 0.25984251968503935,
                    "duration": 0.14634150000000545
                },
                {
                    "name": "F5",
                    "midi": 77,
                    "time": 155.70735600000032,
                    "velocity": 0.28346456692913385,
                    "duration": 0.14634150000000545
                },
                {
                    "name": "F#4",
                    "midi": 66,
                    "time": 155.85369750000032,
                    "velocity": 0.23622047244094488,
                    "duration": 0.14634150000000545
                },
                {
                    "name": "D#5",
                    "midi": 75,
                    "time": 155.85369750000032,
                    "velocity": 0.25984251968503935,
                    "duration": 0.14634150000000545
                },
                {
                    "name": "F4",
                    "midi": 65,
                    "time": 156.00003900000033,
                    "velocity": 0.25196850393700787,
                    "duration": 0.5853659999999934
                },
                {
                    "name": "C#5",
                    "midi": 73,
                    "time": 156.00003900000033,
                    "velocity": 0.2755905511811024,
                    "duration": 0.5853659999999934
                },
                {
                    "name": "F4",
                    "midi": 65,
                    "time": 156.58540500000032,
                    "velocity": 0.2125984251968504,
                    "duration": 0.21951225000000818
                },
                {
                    "name": "G#4",
                    "midi": 68,
                    "time": 156.58540500000032,
                    "velocity": 0.2283464566929134,
                    "duration": 0.21951225000000818
                },
                {
                    "name": "F4",
                    "midi": 65,
                    "time": 156.87808800000033,
                    "velocity": 0.2440944881889764,
                    "duration": 0.14634150000000545
                },
                {
                    "name": "G#4",
                    "midi": 68,
                    "time": 157.02442950000034,
                    "velocity": 0.2440944881889764,
                    "duration": 0.14634150000000545
                },
                {
                    "name": "F#4",
                    "midi": 66,
                    "time": 157.17077100000034,
                    "velocity": 0.1968503937007874,
                    "duration": 0.5853659999999934
                },
                {
                    "name": "A#4",
                    "midi": 70,
                    "time": 157.17077100000034,
                    "velocity": 0.2125984251968504,
                    "duration": 0.5853659999999934
                },
                {
                    "name": "F4",
                    "midi": 65,
                    "time": 157.75613700000034,
                    "velocity": 0.2047244094488189,
                    "duration": 0.21951225000000818
                },
                {
                    "name": "G#4",
                    "midi": 68,
                    "time": 157.75613700000034,
                    "velocity": 0.2204724409448819,
                    "duration": 0.21951225000000818
                },
                {
                    "name": "F4",
                    "midi": 65,
                    "time": 158.04882000000035,
                    "velocity": 0.2440944881889764,
                    "duration": 0.14634150000000545
                },
                {
                    "name": "G#4",
                    "midi": 68,
                    "time": 158.19516150000035,
                    "velocity": 0.2440944881889764,
                    "duration": 0.14634150000000545
                },
                {
                    "name": "F#4",
                    "midi": 66,
                    "time": 158.34150300000036,
                    "velocity": 0.2047244094488189,
                    "duration": 0.5853659999999934
                },
                {
                    "name": "A#4",
                    "midi": 70,
                    "time": 158.34150300000036,
                    "velocity": 0.2047244094488189,
                    "duration": 0.5853659999999934
                },
                {
                    "name": "C#5",
                    "midi": 73,
                    "time": 158.34150300000036,
                    "velocity": 0.2204724409448819,
                    "duration": 0.5853659999999934
                },
                {
                    "name": "F4",
                    "midi": 65,
                    "time": 158.92686900000035,
                    "velocity": 0.1889763779527559,
                    "duration": 0.21951225000000818
                },
                {
                    "name": "G#4",
                    "midi": 68,
                    "time": 158.92686900000035,
                    "velocity": 0.2047244094488189,
                    "duration": 0.21951225000000818
                },
                {
                    "name": "F4",
                    "midi": 65,
                    "time": 159.21955200000036,
                    "velocity": 0.23622047244094488,
                    "duration": 0.14634150000000545
                },
                {
                    "name": "G#4",
                    "midi": 68,
                    "time": 159.21955200000036,
                    "velocity": 0.25984251968503935,
                    "duration": 0.14634150000000545
                },
                {
                    "name": "D4",
                    "midi": 62,
                    "time": 159.36589350000037,
                    "velocity": 0.25984251968503935,
                    "duration": 0.14634150000000545
                },
                {
                    "name": "D#4",
                    "midi": 63,
                    "time": 159.51223500000037,
                    "velocity": 0.28346456692913385,
                    "duration": 0.43902449999998794
                },
                {
                    "name": "F#4",
                    "midi": 66,
                    "time": 159.51223500000037,
                    "velocity": 0.30708661417322836,
                    "duration": 0.43902449999998794
                },
                {
                    "name": "F#4",
                    "midi": 66,
                    "time": 159.95125950000036,
                    "velocity": 0.2283464566929134,
                    "duration": 0.14634150000000545
                },
                {
                    "name": "D#5",
                    "midi": 75,
                    "time": 159.95125950000036,
                    "velocity": 0.2440944881889764,
                    "duration": 0.14634150000000545
                },
                {
                    "name": "G#4",
                    "midi": 68,
                    "time": 160.09760100000037,
                    "velocity": 0.23622047244094488,
                    "duration": 0.14634150000000545
                },
                {
                    "name": "F5",
                    "midi": 77,
                    "time": 160.09760100000037,
                    "velocity": 0.25984251968503935,
                    "duration": 0.14634150000000545
                },
                {
                    "name": "F#4",
                    "midi": 66,
                    "time": 160.24394250000037,
                    "velocity": 0.2283464566929134,
                    "duration": 0.14634150000000545
                },
                {
                    "name": "D#5",
                    "midi": 75,
                    "time": 160.24394250000037,
                    "velocity": 0.2440944881889764,
                    "duration": 0.14634150000000545
                },
                {
                    "name": "F4",
                    "midi": 65,
                    "time": 160.39028400000038,
                    "velocity": 0.23622047244094488,
                    "duration": 0.14634150000000545
                },
                {
                    "name": "C#5",
                    "midi": 73,
                    "time": 160.39028400000038,
                    "velocity": 0.25984251968503935,
                    "duration": 0.14634150000000545
                },
                {
                    "name": "F#4",
                    "midi": 66,
                    "time": 160.53662550000038,
                    "velocity": 0.23622047244094488,
                    "duration": 0.14634150000000545
                },
                {
                    "name": "D#5",
                    "midi": 75,
                    "time": 160.53662550000038,
                    "velocity": 0.25984251968503935,
                    "duration": 0.14634150000000545
                },
                {
                    "name": "F4",
                    "midi": 65,
                    "time": 160.6829670000004,
                    "velocity": 0.25196850393700787,
                    "duration": 0.8780490000000043
                },
                {
                    "name": "C#5",
                    "midi": 73,
                    "time": 160.6829670000004,
                    "velocity": 0.2755905511811024,
                    "duration": 0.8780490000000043
                },
                {
                    "name": "C4",
                    "midi": 60,
                    "time": 163.9024800000004,
                    "velocity": 0.2283464566929134,
                    "duration": 0.14634150000000545
                },
                {
                    "name": "A3",
                    "midi": 57,
                    "time": 163.9024800000004,
                    "velocity": 0.2283464566929134,
                    "duration": 0.14634150000000545
                },
                {
                    "name": "F#4",
                    "midi": 66,
                    "time": 164.0488215000004,
                    "velocity": 0.2283464566929134,
                    "duration": 0.14634150000000545
                },
                {
                    "name": "A#3",
                    "midi": 58,
                    "time": 164.1951630000004,
                    "velocity": 0.25984251968503935,
                    "duration": 0.5853659999999934
                },
                {
                    "name": "C#4",
                    "midi": 61,
                    "time": 164.1951630000004,
                    "velocity": 0.25984251968503935,
                    "duration": 0.5853659999999934
                },
                {
                    "name": "F4",
                    "midi": 65,
                    "time": 164.1951630000004,
                    "velocity": 0.25984251968503935,
                    "duration": 0.5853659999999934
                },
                {
                    "name": "A3",
                    "midi": 57,
                    "time": 164.7805290000004,
                    "velocity": 0.1889763779527559,
                    "duration": 0.2926830000000109
                },
                {
                    "name": "C4",
                    "midi": 60,
                    "time": 164.7805290000004,
                    "velocity": 0.1889763779527559,
                    "duration": 0.2926830000000109
                },
                {
                    "name": "F4",
                    "midi": 65,
                    "time": 164.7805290000004,
                    "velocity": 0.2204724409448819,
                    "duration": 0.2926830000000109
                },
                {
                    "name": "G#3",
                    "midi": 56,
                    "time": 165.0732120000004,
                    "velocity": 0.14173228346456693,
                    "duration": 0.2926830000000109
                },
                {
                    "name": "C4",
                    "midi": 60,
                    "time": 165.0732120000004,
                    "velocity": 0.14173228346456693,
                    "duration": 0.2926830000000109
                },
                {
                    "name": "F#4",
                    "midi": 66,
                    "time": 165.0732120000004,
                    "velocity": 0.1732283464566929,
                    "duration": 0.14634150000000545
                },
                {
                    "name": "G#4",
                    "midi": 68,
                    "time": 165.21955350000042,
                    "velocity": 0.1732283464566929,
                    "duration": 0.14634150000000545
                },
                {
                    "name": "G#3",
                    "midi": 56,
                    "time": 165.36589500000042,
                    "velocity": 0.14173228346456693,
                    "duration": 0.8780490000000043
                },
                {
                    "name": "C#4",
                    "midi": 61,
                    "time": 165.36589500000042,
                    "velocity": 0.14173228346456693,
                    "duration": 0.8780490000000043
                },
                {
                    "name": "F4",
                    "midi": 65,
                    "time": 165.36589500000042,
                    "velocity": 0.1732283464566929,
                    "duration": 0.8780490000000043
                },
                {
                    "name": "G#4",
                    "midi": 68,
                    "time": 165.95126100000041,
                    "velocity": 0.47244094488188976,
                    "duration": 0.2926830000000109
                },
                {
                    "name": "E4",
                    "midi": 64,
                    "time": 166.24394400000043,
                    "velocity": 0.5196850393700787,
                    "duration": 0.14634150000000545
                },
                {
                    "name": "C#4",
                    "midi": 61,
                    "time": 166.39028550000043,
                    "velocity": 0.47244094488188976,
                    "duration": 0.14634150000000545
                },
                {
                    "name": "E4",
                    "midi": 64,
                    "time": 166.53662700000044,
                    "velocity": 0.47244094488188976,
                    "duration": 0.14634150000000545
                },
                {
                    "name": "G#4",
                    "midi": 68,
                    "time": 166.68296850000044,
                    "velocity": 0.47244094488188976,
                    "duration": 0.14634150000000545
                },
                {
                    "name": "E4",
                    "midi": 64,
                    "time": 166.82931000000045,
                    "velocity": 0.5039370078740157,
                    "duration": 0.14634150000000545
                },
                {
                    "name": "C#4",
                    "midi": 61,
                    "time": 166.97565150000045,
                    "velocity": 0.47244094488188976,
                    "duration": 0.14634150000000545
                },
                {
                    "name": "E4",
                    "midi": 64,
                    "time": 167.12199300000046,
                    "velocity": 0.47244094488188976,
                    "duration": 0.14634150000000545
                },
                {
                    "name": "A4",
                    "midi": 69,
                    "time": 167.26833450000046,
                    "velocity": 0.47244094488188976,
                    "duration": 0.14634150000000545
                },
                {
                    "name": "D#4",
                    "midi": 63,
                    "time": 167.41467600000047,
                    "velocity": 0.49606299212598426,
                    "duration": 0.14634150000000545
                },
                {
                    "name": "C4",
                    "midi": 60,
                    "time": 167.56101750000047,
                    "velocity": 0.47244094488188976,
                    "duration": 0.14634150000000545
                },
                {
                    "name": "D#4",
                    "midi": 63,
                    "time": 167.70735900000048,
                    "velocity": 0.47244094488188976,
                    "duration": 0.14634150000000545
                },
                {
                    "name": "A4",
                    "midi": 69,
                    "time": 167.85370050000049,
                    "velocity": 0.47244094488188976,
                    "duration": 0.14634150000000545
                },
                {
                    "name": "D#4",
                    "midi": 63,
                    "time": 168.0000420000005,
                    "velocity": 0.49606299212598426,
                    "duration": 0.14634150000000545
                },
                {
                    "name": "C4",
                    "midi": 60,
                    "time": 168.1463835000005,
                    "velocity": 0.47244094488188976,
                    "duration": 0.14634150000000545
                },
                {
                    "name": "D#4",
                    "midi": 63,
                    "time": 168.2927250000005,
                    "velocity": 0.47244094488188976,
                    "duration": 0.14634150000000545
                },
                {
                    "name": "G#4",
                    "midi": 68,
                    "time": 168.4390665000005,
                    "velocity": 0.47244094488188976,
                    "duration": 0.14634150000000545
                },
                {
                    "name": "G#4",
                    "midi": 68,
                    "time": 168.5854080000005,
                    "velocity": 0.5196850393700787,
                    "duration": 0.14634150000000545
                },
                {
                    "name": "E4",
                    "midi": 64,
                    "time": 168.73174950000052,
                    "velocity": 0.49606299212598426,
                    "duration": 0.14634150000000545
                },
                {
                    "name": "G#4",
                    "midi": 68,
                    "time": 168.87809100000052,
                    "velocity": 0.49606299212598426,
                    "duration": 0.14634150000000545
                },
                {
                    "name": "E5",
                    "midi": 76,
                    "time": 169.02443250000053,
                    "velocity": 0.49606299212598426,
                    "duration": 0.14634150000000545
                },
                {
                    "name": "G#4",
                    "midi": 68,
                    "time": 169.17077400000053,
                    "velocity": 0.5196850393700787,
                    "duration": 0.14634150000000545
                },
                {
                    "name": "E4",
                    "midi": 64,
                    "time": 169.31711550000054,
                    "velocity": 0.49606299212598426,
                    "duration": 0.14634150000000545
                },
                {
                    "name": "G#4",
                    "midi": 68,
                    "time": 169.46345700000055,
                    "velocity": 0.49606299212598426,
                    "duration": 0.14634150000000545
                },
                {
                    "name": "C#5",
                    "midi": 73,
                    "time": 169.60979850000055,
                    "velocity": 0.49606299212598426,
                    "duration": 0.14634150000000545
                },
                {
                    "name": "A4",
                    "midi": 69,
                    "time": 169.75614000000056,
                    "velocity": 0.5275590551181102,
                    "duration": 0.14634150000000545
                },
                {
                    "name": "G#4",
                    "midi": 68,
                    "time": 169.90248150000056,
                    "velocity": 0.47244094488188976,
                    "duration": 0.14634150000000545
                },
                {
                    "name": "F#4",
                    "midi": 66,
                    "time": 170.04882300000057,
                    "velocity": 0.48031496062992124,
                    "duration": 0.14634150000000545
                },
                {
                    "name": "C#5",
                    "midi": 73,
                    "time": 170.19516450000057,
                    "velocity": 0.4881889763779528,
                    "duration": 0.14634150000000545
                },
                {
                    "name": "C5",
                    "midi": 72,
                    "time": 170.34150600000058,
                    "velocity": 0.5354330708661418,
                    "duration": 0.14634150000000545
                },
                {
                    "name": "F#4",
                    "midi": 66,
                    "time": 170.48784750000058,
                    "velocity": 0.5118110236220472,
                    "duration": 0.14634150000000545
                },
                {
                    "name": "G#4",
                    "midi": 68,
                    "time": 170.6341890000006,
                    "velocity": 0.5196850393700787,
                    "duration": 0.14634150000000545
                },
                {
                    "name": "C5",
                    "midi": 72,
                    "time": 170.7805305000006,
                    "velocity": 0.5275590551181102,
                    "duration": 0.14634150000000545
                },
                {
                    "name": "C#5",
                    "midi": 73,
                    "time": 170.9268720000006,
                    "velocity": 0.5669291338582677,
                    "duration": 0.14634150000000545
                },
                {
                    "name": "E4",
                    "midi": 64,
                    "time": 171.0732135000006,
                    "velocity": 0.49606299212598426,
                    "duration": 0.14634150000000545
                },
                {
                    "name": "G#4",
                    "midi": 68,
                    "time": 171.2195550000006,
                    "velocity": 0.5118110236220472,
                    "duration": 0.14634150000000545
                },
                {
                    "name": "C#5",
                    "midi": 73,
                    "time": 171.36589650000062,
                    "velocity": 0.5275590551181102,
                    "duration": 0.14634150000000545
                },
                {
                    "name": "E5",
                    "midi": 76,
                    "time": 171.51223800000062,
                    "velocity": 0.5433070866141733,
                    "duration": 0.14634150000000545
                },
                {
                    "name": "G#4",
                    "midi": 68,
                    "time": 171.65857950000063,
                    "velocity": 0.5039370078740157,
                    "duration": 0.14634150000000545
                },
                {
                    "name": "E5",
                    "midi": 76,
                    "time": 171.80492100000063,
                    "velocity": 0.5196850393700787,
                    "duration": 0.14634150000000545
                },
                {
                    "name": "G#5",
                    "midi": 80,
                    "time": 171.95126250000064,
                    "velocity": 0.5354330708661418,
                    "duration": 0.14634150000000545
                },
                {
                    "name": "E5",
                    "midi": 76,
                    "time": 172.09760400000064,
                    "velocity": 0.5748031496062992,
                    "duration": 0.14634150000000545
                },
                {
                    "name": "A4",
                    "midi": 69,
                    "time": 172.24394550000065,
                    "velocity": 0.5039370078740157,
                    "duration": 0.14634150000000545
                },
                {
                    "name": "E5",
                    "midi": 76,
                    "time": 172.39028700000065,
                    "velocity": 0.5196850393700787,
                    "duration": 0.14634150000000545
                },
                {
                    "name": "G#5",
                    "midi": 80,
                    "time": 172.53662850000066,
                    "velocity": 0.5354330708661418,
                    "duration": 0.14634150000000545
                },
                {
                    "name": "D5",
                    "midi": 74,
                    "time": 172.68297000000067,
                    "velocity": 0.5511811023622047,
                    "duration": 0.14634150000000545
                },
                {
                    "name": "F#5",
                    "midi": 78,
                    "time": 172.82931150000067,
                    "velocity": 0.5275590551181102,
                    "duration": 0.14634150000000545
                },
                {
                    "name": "C#5",
                    "midi": 73,
                    "time": 172.97565300000068,
                    "velocity": 0.5511811023622047,
                    "duration": 0.14634150000000545
                },
                {
                    "name": "E5",
                    "midi": 76,
                    "time": 173.12199450000068,
                    "velocity": 0.5275590551181102,
                    "duration": 0.14634150000000545
                },
                {
                    "name": "C5",
                    "midi": 72,
                    "time": 173.2683360000007,
                    "velocity": 0.5354330708661418,
                    "duration": 0.14634150000000545
                },
                {
                    "name": "D#5",
                    "midi": 75,
                    "time": 173.4146775000007,
                    "velocity": 0.5118110236220472,
                    "duration": 0.14634150000000545
                },
                {
                    "name": "C#5",
                    "midi": 73,
                    "time": 173.5610190000007,
                    "velocity": 0.5275590551181102,
                    "duration": 0.14634150000000545
                },
                {
                    "name": "E5",
                    "midi": 76,
                    "time": 173.7073605000007,
                    "velocity": 0.5118110236220472,
                    "duration": 0.14634150000000545
                },
                {
                    "name": "D#5",
                    "midi": 75,
                    "time": 173.8537020000007,
                    "velocity": 0.5354330708661418,
                    "duration": 0.14634150000000545
                },
                {
                    "name": "F#5",
                    "midi": 78,
                    "time": 174.00004350000071,
                    "velocity": 0.5039370078740157,
                    "duration": 0.14634150000000545
                },
                {
                    "name": "C5",
                    "midi": 72,
                    "time": 174.14638500000072,
                    "velocity": 0.5433070866141733,
                    "duration": 0.14634150000000545
                },
                {
                    "name": "D#5",
                    "midi": 75,
                    "time": 174.29272650000073,
                    "velocity": 0.5039370078740157,
                    "duration": 0.14634150000000545
                },
                {
                    "name": "E5",
                    "midi": 76,
                    "time": 174.43906800000073,
                    "velocity": 0.5354330708661418,
                    "duration": 0.14634150000000545
                },
                {
                    "name": "C#5",
                    "midi": 73,
                    "time": 174.58540950000074,
                    "velocity": 0.5275590551181102,
                    "duration": 0.14634150000000545
                },
                {
                    "name": "B4",
                    "midi": 71,
                    "time": 174.73175100000074,
                    "velocity": 0.5196850393700787,
                    "duration": 0.14634150000000545
                },
                {
                    "name": "A4",
                    "midi": 69,
                    "time": 174.87809250000075,
                    "velocity": 0.5039370078740157,
                    "duration": 0.14634150000000545
                },
                {
                    "name": "G#4",
                    "midi": 68,
                    "time": 175.02443400000075,
                    "velocity": 0.49606299212598426,
                    "duration": 0.14634150000000545
                },
                {
                    "name": "F#4",
                    "midi": 66,
                    "time": 175.17077550000076,
                    "velocity": 0.4881889763779528,
                    "duration": 0.14634150000000545
                },
                {
                    "name": "E4",
                    "midi": 64,
                    "time": 175.31711700000076,
                    "velocity": 0.47244094488188976,
                    "duration": 0.14634150000000545
                },
                {
                    "name": "D#4",
                    "midi": 63,
                    "time": 175.46345850000077,
                    "velocity": 0.4645669291338583,
                    "duration": 0.14634150000000545
                },
                {
                    "name": "E4",
                    "midi": 64,
                    "time": 175.60980000000077,
                    "velocity": 0.4881889763779528,
                    "duration": 0.14634150000000545
                },
                {
                    "name": "C#4",
                    "midi": 61,
                    "time": 175.75614150000078,
                    "velocity": 0.44881889763779526,
                    "duration": 0.14634150000000545
                },
                {
                    "name": "E4",
                    "midi": 64,
                    "time": 175.90248300000079,
                    "velocity": 0.44881889763779526,
                    "duration": 0.14634150000000545
                },
                {
                    "name": "G#4",
                    "midi": 68,
                    "time": 176.0488245000008,
                    "velocity": 0.44881889763779526,
                    "duration": 0.14634150000000545
                },
                {
                    "name": "E4",
                    "midi": 64,
                    "time": 176.1951660000008,
                    "velocity": 0.47244094488188976,
                    "duration": 0.14634150000000545
                },
                {
                    "name": "C#4",
                    "midi": 61,
                    "time": 176.3415075000008,
                    "velocity": 0.44881889763779526,
                    "duration": 0.14634150000000545
                },
                {
                    "name": "E4",
                    "midi": 64,
                    "time": 176.4878490000008,
                    "velocity": 0.44881889763779526,
                    "duration": 0.14634150000000545
                },
                {
                    "name": "A4",
                    "midi": 69,
                    "time": 176.6341905000008,
                    "velocity": 0.44881889763779526,
                    "duration": 0.14634150000000545
                },
                {
                    "name": "D#4",
                    "midi": 63,
                    "time": 176.78053200000082,
                    "velocity": 0.4645669291338583,
                    "duration": 0.14634150000000545
                },
                {
                    "name": "B3",
                    "midi": 59,
                    "time": 176.92687350000082,
                    "velocity": 0.44881889763779526,
                    "duration": 0.14634150000000545
                },
                {
                    "name": "D#4",
                    "midi": 63,
                    "time": 177.07321500000083,
                    "velocity": 0.44881889763779526,
                    "duration": 0.14634150000000545
                },
                {
                    "name": "A4",
                    "midi": 69,
                    "time": 177.21955650000083,
                    "velocity": 0.44881889763779526,
                    "duration": 0.14634150000000545
                },
                {
                    "name": "D#4",
                    "midi": 63,
                    "time": 177.36589800000084,
                    "velocity": 0.4645669291338583,
                    "duration": 0.14634150000000545
                },
                {
                    "name": "B3",
                    "midi": 59,
                    "time": 177.51223950000085,
                    "velocity": 0.44881889763779526,
                    "duration": 0.14634150000000545
                },
                {
                    "name": "D#4",
                    "midi": 63,
                    "time": 177.65858100000085,
                    "velocity": 0.44881889763779526,
                    "duration": 0.14634150000000545
                },
                {
                    "name": "G#4",
                    "midi": 68,
                    "time": 177.80492250000086,
                    "velocity": 0.44881889763779526,
                    "duration": 0.14634150000000545
                },
                {
                    "name": "G#4",
                    "midi": 68,
                    "time": 177.95126400000086,
                    "velocity": 0.4881889763779528,
                    "duration": 0.14634150000000545
                },
                {
                    "name": "C#4",
                    "midi": 61,
                    "time": 178.09760550000087,
                    "velocity": 0.4645669291338583,
                    "duration": 0.14634150000000545
                },
                {
                    "name": "G#4",
                    "midi": 68,
                    "time": 178.24394700000087,
                    "velocity": 0.4645669291338583,
                    "duration": 0.14634150000000545
                },
                {
                    "name": "C#5",
                    "midi": 73,
                    "time": 178.39028850000088,
                    "velocity": 0.4645669291338583,
                    "duration": 0.14634150000000545
                },
                {
                    "name": "F#4",
                    "midi": 66,
                    "time": 178.53663000000088,
                    "velocity": 0.4881889763779528,
                    "duration": 0.14634150000000545
                },
                {
                    "name": "D#4",
                    "midi": 63,
                    "time": 178.6829715000009,
                    "velocity": 0.4645669291338583,
                    "duration": 0.14634150000000545
                },
                {
                    "name": "F#4",
                    "midi": 66,
                    "time": 178.8293130000009,
                    "velocity": 0.4645669291338583,
                    "duration": 0.14634150000000545
                },
                {
                    "name": "C#5",
                    "midi": 73,
                    "time": 178.9756545000009,
                    "velocity": 0.4645669291338583,
                    "duration": 0.14634150000000545
                },
                {
                    "name": "G#4",
                    "midi": 68,
                    "time": 179.1219960000009,
                    "velocity": 0.49606299212598426,
                    "duration": 0.14634150000000545
                },
                {
                    "name": "E4",
                    "midi": 64,
                    "time": 179.2683375000009,
                    "velocity": 0.4645669291338583,
                    "duration": 0.14634150000000545
                },
                {
                    "name": "G#4",
                    "midi": 68,
                    "time": 179.41467900000092,
                    "velocity": 0.4645669291338583,
                    "duration": 0.14634150000000545
                },
                {
                    "name": "C#5",
                    "midi": 73,
                    "time": 179.56102050000092,
                    "velocity": 0.4645669291338583,
                    "duration": 0.14634150000000545
                },
                {
                    "name": "G#4",
                    "midi": 68,
                    "time": 179.70736200000093,
                    "velocity": 0.4881889763779528,
                    "duration": 0.14634150000000545
                },
                {
                    "name": "E4",
                    "midi": 64,
                    "time": 179.85370350000093,
                    "velocity": 0.47244094488188976,
                    "duration": 0.14634150000000545
                },
                {
                    "name": "G#4",
                    "midi": 68,
                    "time": 180.00004500000094,
                    "velocity": 0.47244094488188976,
                    "duration": 0.14634150000000545
                },
                {
                    "name": "B4",
                    "midi": 71,
                    "time": 180.14638650000094,
                    "velocity": 0.47244094488188976,
                    "duration": 0.14634150000000545
                },
                {
                    "name": "G4",
                    "midi": 67,
                    "time": 180.29272800000095,
                    "velocity": 0.5354330708661418,
                    "duration": 0.14634150000000545
                },
                {
                    "name": "E4",
                    "midi": 64,
                    "time": 180.43906950000095,
                    "velocity": 0.4645669291338583,
                    "duration": 0.14634150000000545
                },
                {
                    "name": "G4",
                    "midi": 67,
                    "time": 180.58541100000096,
                    "velocity": 0.48031496062992124,
                    "duration": 0.14634150000000545
                },
                {
                    "name": "A#4",
                    "midi": 70,
                    "time": 180.73175250000097,
                    "velocity": 0.49606299212598426,
                    "duration": 0.14634150000000545
                },
                {
                    "name": "E5",
                    "midi": 76,
                    "time": 180.87809400000097,
                    "velocity": 0.5118110236220472,
                    "duration": 0.14634150000000545
                },
                {
                    "name": "A#4",
                    "midi": 70,
                    "time": 181.02443550000098,
                    "velocity": 0.47244094488188976,
                    "duration": 0.14634150000000545
                },
                {
                    "name": "E5",
                    "midi": 76,
                    "time": 181.17077700000098,
                    "velocity": 0.4881889763779528,
                    "duration": 0.14634150000000545
                },
                {
                    "name": "G5",
                    "midi": 79,
                    "time": 181.317118500001,
                    "velocity": 0.5039370078740157,
                    "duration": 0.14634150000000545
                },
                {
                    "name": "D#5",
                    "midi": 75,
                    "time": 181.463460000001,
                    "velocity": 0.5039370078740157,
                    "duration": 0.14634150000000545
                },
                {
                    "name": "G5",
                    "midi": 79,
                    "time": 181.609801500001,
                    "velocity": 0.4881889763779528,
                    "duration": 0.14634150000000545
                },
                {
                    "name": "D#5",
                    "midi": 75,
                    "time": 181.756143000001,
                    "velocity": 0.49606299212598426,
                    "duration": 0.14634150000000545
                },
                {
                    "name": "F#5",
                    "midi": 78,
                    "time": 181.902484500001,
                    "velocity": 0.48031496062992124,
                    "duration": 0.14634150000000545
                },
                {
                    "name": "A4",
                    "midi": 69,
                    "time": 182.04882600000101,
                    "velocity": 0.4881889763779528,
                    "duration": 0.14634150000000545
                },
                {
                    "name": "E5",
                    "midi": 76,
                    "time": 182.19516750000102,
                    "velocity": 0.48031496062992124,
                    "duration": 0.14634150000000545
                },
                {
                    "name": "A4",
                    "midi": 69,
                    "time": 182.34150900000103,
                    "velocity": 0.4881889763779528,
                    "duration": 0.14634150000000545
                },
                {
                    "name": "D#5",
                    "midi": 75,
                    "time": 182.48785050000103,
                    "velocity": 0.47244094488188976,
                    "duration": 0.14634150000000545
                },
                {
                    "name": "A4",
                    "midi": 69,
                    "time": 182.63419200000104,
                    "velocity": 0.4645669291338583,
                    "duration": 0.14634150000000545
                },
                {
                    "name": "F#5",
                    "midi": 78,
                    "time": 182.78053350000104,
                    "velocity": 0.4409448818897638,
                    "duration": 0.14634150000000545
                },
                {
                    "name": "G#4",
                    "midi": 68,
                    "time": 182.92687500000105,
                    "velocity": 0.4645669291338583,
                    "duration": 0.14634150000000545
                },
                {
                    "name": "E5",
                    "midi": 76,
                    "time": 183.07321650000105,
                    "velocity": 0.4409448818897638,
                    "duration": 0.14634150000000545
                },
                {
                    "name": "E4",
                    "midi": 64,
                    "time": 183.21955800000106,
                    "velocity": 0.4566929133858268,
                    "duration": 0.14634150000000545
                },
                {
                    "name": "C#5",
                    "midi": 73,
                    "time": 183.36589950000106,
                    "velocity": 0.4330708661417323,
                    "duration": 0.14634150000000545
                },
                {
                    "name": "C#4",
                    "midi": 61,
                    "time": 183.51224100000107,
                    "velocity": 0.44881889763779526,
                    "duration": 0.14634150000000545
                },
                {
                    "name": "A4",
                    "midi": 69,
                    "time": 183.65858250000107,
                    "velocity": 0.4330708661417323,
                    "duration": 0.14634150000000545
                },
                {
                    "name": "B3",
                    "midi": 59,
                    "time": 183.80492400000108,
                    "velocity": 0.44881889763779526,
                    "duration": 0.14634150000000545
                },
                {
                    "name": "G#4",
                    "midi": 68,
                    "time": 183.95126550000109,
                    "velocity": 0.4330708661417323,
                    "duration": 0.14634150000000545
                },
                {
                    "name": "E4",
                    "midi": 64,
                    "time": 184.0976070000011,
                    "velocity": 0.44881889763779526,
                    "duration": 0.14634150000000545
                },
                {
                    "name": "B4",
                    "midi": 71,
                    "time": 184.2439485000011,
                    "velocity": 0.4409448818897638,
                    "duration": 0.14634150000000545
                },
                {
                    "name": "B3",
                    "midi": 59,
                    "time": 184.3902900000011,
                    "velocity": 0.44881889763779526,
                    "duration": 0.14634150000000545
                },
                {
                    "name": "A4",
                    "midi": 69,
                    "time": 184.5366315000011,
                    "velocity": 0.4409448818897638,
                    "duration": 0.14634150000000545
                },
                {
                    "name": "D#4",
                    "midi": 63,
                    "time": 184.6829730000011,
                    "velocity": 0.44881889763779526,
                    "duration": 0.14634150000000545
                },
                {
                    "name": "B4",
                    "midi": 71,
                    "time": 184.82931450000112,
                    "velocity": 0.4409448818897638,
                    "duration": 0.14634150000000545
                },
                {
                    "name": "A4",
                    "midi": 69,
                    "time": 184.97565600000112,
                    "velocity": 0.44881889763779526,
                    "duration": 0.43902450000001636
                },
                {
                    "name": "D#4",
                    "midi": 63,
                    "time": 185.12199750000113,
                    "velocity": 0.4251968503937008,
                    "duration": 0.14634150000000545
                },
                {
                    "name": "B3",
                    "midi": 59,
                    "time": 185.26833900000113,
                    "velocity": 0.4251968503937008,
                    "duration": 0.14634150000000545
                },
                {
                    "name": "A4",
                    "midi": 69,
                    "time": 185.41468050000114,
                    "velocity": 0.44881889763779526,
                    "duration": 0.14634150000000545
                },
                {
                    "name": "G#4",
                    "midi": 68,
                    "time": 185.56102200000115,
                    "velocity": 0.44881889763779526,
                    "duration": 0.14634150000000545
                },
                {
                    "name": "E4",
                    "midi": 64,
                    "time": 185.70736350000115,
                    "velocity": 0.41732283464566927,
                    "duration": 0.14634150000000545
                },
                {
                    "name": "G#4",
                    "midi": 68,
                    "time": 185.85370500000116,
                    "velocity": 0.4330708661417323,
                    "duration": 0.14634150000000545
                },
                {
                    "name": "A4",
                    "midi": 69,
                    "time": 186.00004650000116,
                    "velocity": 0.44881889763779526,
                    "duration": 0.14634150000000545
                },
                {
                    "name": "B4",
                    "midi": 71,
                    "time": 186.14638800000117,
                    "velocity": 0.4645669291338583,
                    "duration": 0.14634150000000545
                },
                {
                    "name": "G#4",
                    "midi": 68,
                    "time": 186.29272950000117,
                    "velocity": 0.3937007874015748,
                    "duration": 0.14634150000000545
                },
                {
                    "name": "B4",
                    "midi": 71,
                    "time": 186.43907100000118,
                    "velocity": 0.41732283464566927,
                    "duration": 0.14634150000000545
                },
                {
                    "name": "G#5",
                    "midi": 80,
                    "time": 186.58541250000118,
                    "velocity": 0.36220472440944884,
                    "duration": 0.14634150000000545
                },
                {
                    "name": "B4",
                    "midi": 71,
                    "time": 186.7317540000012,
                    "velocity": 0.3858267716535433,
                    "duration": 0.14634150000000545
                },
                {
                    "name": "F#5",
                    "midi": 78,
                    "time": 186.8780955000012,
                    "velocity": 0.3464566929133858,
                    "duration": 0.14634150000000545
                },
                {
                    "name": "C5",
                    "midi": 72,
                    "time": 187.0244370000012,
                    "velocity": 0.3858267716535433,
                    "duration": 0.14634150000000545
                },
                {
                    "name": "E5",
                    "midi": 76,
                    "time": 187.1707785000012,
                    "velocity": 0.36220472440944884,
                    "duration": 0.14634150000000545
                },
                {
                    "name": "C#5",
                    "midi": 73,
                    "time": 187.3171200000012,
                    "velocity": 0.41732283464566927,
                    "duration": 0.14634150000000545
                },
                {
                    "name": "E4",
                    "midi": 64,
                    "time": 187.46346150000122,
                    "velocity": 0.4409448818897638,
                    "duration": 0.14634150000000545
                },
                {
                    "name": "C#5",
                    "midi": 73,
                    "time": 187.60980300000122,
                    "velocity": 0.4251968503937008,
                    "duration": 0.14634150000000545
                },
                {
                    "name": "E5",
                    "midi": 76,
                    "time": 187.75614450000123,
                    "velocity": 0.4330708661417323,
                    "duration": 0.14634150000000545
                },
                {
                    "name": "B4",
                    "midi": 71,
                    "time": 187.90248600000123,
                    "velocity": 0.4645669291338583,
                    "duration": 0.14634150000000545
                },
                {
                    "name": "D#5",
                    "midi": 75,
                    "time": 188.04882750000124,
                    "velocity": 0.4251968503937008,
                    "duration": 0.14634150000000545
                },
                {
                    "name": "A4",
                    "midi": 69,
                    "time": 188.19516900000124,
                    "velocity": 0.44881889763779526,
                    "duration": 0.14634150000000545
                },
                {
                    "name": "C#5",
                    "midi": 73,
                    "time": 188.34151050000125,
                    "velocity": 0.4251968503937008,
                    "duration": 0.14634150000000545
                },
                {
                    "name": "G#4",
                    "midi": 68,
                    "time": 188.48785200000125,
                    "velocity": 0.44881889763779526,
                    "duration": 0.14634150000000545
                },
                {
                    "name": "B3",
                    "midi": 59,
                    "time": 188.63419350000126,
                    "velocity": 0.4251968503937008,
                    "duration": 0.14634150000000545
                },
                {
                    "name": "G#4",
                    "midi": 68,
                    "time": 188.78053500000127,
                    "velocity": 0.4251968503937008,
                    "duration": 0.14634150000000545
                },
                {
                    "name": "B4",
                    "midi": 71,
                    "time": 188.92687650000127,
                    "velocity": 0.4251968503937008,
                    "duration": 0.14634150000000545
                },
                {
                    "name": "E4",
                    "midi": 64,
                    "time": 189.07321800000128,
                    "velocity": 0.44881889763779526,
                    "duration": 0.14634150000000545
                },
                {
                    "name": "A#3",
                    "midi": 58,
                    "time": 189.21955950000128,
                    "velocity": 0.4015748031496063,
                    "duration": 0.14634150000000545
                },
                {
                    "name": "E4",
                    "midi": 64,
                    "time": 189.3659010000013,
                    "velocity": 0.4094488188976378,
                    "duration": 0.14634150000000545
                },
                {
                    "name": "C#5",
                    "midi": 73,
                    "time": 189.5122425000013,
                    "velocity": 0.4094488188976378,
                    "duration": 0.14634150000000545
                },
                {
                    "name": "F#4",
                    "midi": 66,
                    "time": 189.6585840000013,
                    "velocity": 0.4251968503937008,
                    "duration": 0.14634150000000545
                },
                {
                    "name": "A3",
                    "midi": 57,
                    "time": 189.8049255000013,
                    "velocity": 0.3858267716535433,
                    "duration": 0.14634150000000545
                },
                {
                    "name": "F#4",
                    "midi": 66,
                    "time": 189.9512670000013,
                    "velocity": 0.3858267716535433,
                    "duration": 0.14634150000000545
                },
                {
                    "name": "B4",
                    "midi": 71,
                    "time": 190.09760850000131,
                    "velocity": 0.3858267716535433,
                    "duration": 0.14634150000000545
                },
                {
                    "name": "F#4",
                    "midi": 66,
                    "time": 190.24395000000132,
                    "velocity": 0.41732283464566927,
                    "duration": 0.14634150000000545
                },
                {
                    "name": "A3",
                    "midi": 57,
                    "time": 190.39029150000133,
                    "velocity": 0.3779527559055118,
                    "duration": 0.14634150000000545
                },
                {
                    "name": "F#4",
                    "midi": 66,
                    "time": 190.53663300000133,
                    "velocity": 0.3779527559055118,
                    "duration": 0.14634150000000545
                },
                {
                    "name": "B4",
                    "midi": 71,
                    "time": 190.68297450000134,
                    "velocity": 0.3779527559055118,
                    "duration": 0.14634150000000545
                },
                {
                    "name": "E4",
                    "midi": 64,
                    "time": 190.82931600000134,
                    "velocity": 0.3779527559055118,
                    "duration": 0.14634150000000545
                },
                {
                    "name": "G#3",
                    "midi": 56,
                    "time": 190.97565750000135,
                    "velocity": 0.3464566929133858,
                    "duration": 0.14634150000000545
                },
                {
                    "name": "E4",
                    "midi": 64,
                    "time": 191.12199900000135,
                    "velocity": 0.3464566929133858,
                    "duration": 0.14634150000000545
                },
                {
                    "name": "G#4",
                    "midi": 68,
                    "time": 191.26834050000136,
                    "velocity": 0.3464566929133858,
                    "duration": 0.14634150000000545
                },
                {
                    "name": "D#4",
                    "midi": 63,
                    "time": 192.00004800000136,
                    "velocity": 0.3779527559055118,
                    "duration": 0.14634150000000545
                },
                {
                    "name": "A3",
                    "midi": 57,
                    "time": 192.14638950000136,
                    "velocity": 0.33858267716535434,
                    "duration": 0.14634150000000545
                },
                {
                    "name": "D#4",
                    "midi": 63,
                    "time": 192.29273100000137,
                    "velocity": 0.33858267716535434,
                    "duration": 0.14634150000000545
                },
                {
                    "name": "B4",
                    "midi": 71,
                    "time": 192.43907250000137,
                    "velocity": 0.33858267716535434,
                    "duration": 0.14634150000000545
                },
                {
                    "name": "E4",
                    "midi": 64,
                    "time": 193.17078000000137,
                    "velocity": 0.3779527559055118,
                    "duration": 0.14634150000000545
                },
                {
                    "name": "G#3",
                    "midi": 56,
                    "time": 193.31712150000138,
                    "velocity": 0.3543307086614173,
                    "duration": 0.14634150000000545
                },
                {
                    "name": "E4",
                    "midi": 64,
                    "time": 193.46346300000138,
                    "velocity": 0.3543307086614173,
                    "duration": 0.14634150000000545
                },
                {
                    "name": "G#4",
                    "midi": 68,
                    "time": 193.6098045000014,
                    "velocity": 0.3543307086614173,
                    "duration": 0.14634150000000545
                },
                {
                    "name": "G#4",
                    "midi": 68,
                    "time": 193.7561460000014,
                    "velocity": 0.3464566929133858,
                    "duration": 0.14634150000000545
                },
                {
                    "name": "B4",
                    "midi": 71,
                    "time": 193.9024875000014,
                    "velocity": 0.3858267716535433,
                    "duration": 0.14634150000000545
                },
                {
                    "name": "E5",
                    "midi": 76,
                    "time": 194.0488290000014,
                    "velocity": 0.41732283464566927,
                    "duration": 0.14634150000000545
                },
                {
                    "name": "G#5",
                    "midi": 80,
                    "time": 194.1951705000014,
                    "velocity": 0.4566929133858268,
                    "duration": 0.14634150000000545
                },
                {
                    "name": "G#5",
                    "midi": 80,
                    "time": 194.34151200000142,
                    "velocity": 0.4881889763779528,
                    "duration": 0.2926830000000109
                },
                {
                    "name": "G#4",
                    "midi": 68,
                    "time": 194.48785350000142,
                    "velocity": 0.36220472440944884,
                    "duration": 0.14634150000000545
                },
                {
                    "name": "E5",
                    "midi": 76,
                    "time": 194.63419500000143,
                    "velocity": 0.4409448818897638,
                    "duration": 0.2926830000000109
                },
                {
                    "name": "G#4",
                    "midi": 68,
                    "time": 194.78053650000143,
                    "velocity": 0.3700787401574803,
                    "duration": 0.14634150000000545
                },
                {
                    "name": "D#5",
                    "midi": 75,
                    "time": 194.92687800000144,
                    "velocity": 0.41732283464566927,
                    "duration": 0.2926830000000109
                },
                {
                    "name": "G#4",
                    "midi": 68,
                    "time": 195.07321950000144,
                    "velocity": 0.3464566929133858,
                    "duration": 0.14634150000000545
                },
                {
                    "name": "D5",
                    "midi": 74,
                    "time": 195.21956100000145,
                    "velocity": 0.3937007874015748,
                    "duration": 0.2926830000000109
                },
                {
                    "name": "G#4",
                    "midi": 68,
                    "time": 195.36590250000145,
                    "velocity": 0.3464566929133858,
                    "duration": 0.14634150000000545
                },
                {
                    "name": "C#5",
                    "midi": 73,
                    "time": 195.51224400000146,
                    "velocity": 0.3779527559055118,
                    "duration": 0.14634150000000545
                },
                {
                    "name": "C#4",
                    "midi": 61,
                    "time": 195.65858550000146,
                    "velocity": 0.33858267716535434,
                    "duration": 0.14634150000000545
                },
                {
                    "name": "A4",
                    "midi": 69,
                    "time": 195.80492700000147,
                    "velocity": 0.33858267716535434,
                    "duration": 0.14634150000000545
                },
                {
                    "name": "C#5",
                    "midi": 73,
                    "time": 195.95126850000148,
                    "velocity": 0.33858267716535434,
                    "duration": 0.14634150000000545
                },
                {
                    "name": "G#4",
                    "midi": 68,
                    "time": 196.68297600000147,
                    "velocity": 0.3779527559055118,
                    "duration": 0.14634150000000545
                },
                {
                    "name": "D4",
                    "midi": 62,
                    "time": 196.82931750000148,
                    "velocity": 0.33070866141732286,
                    "duration": 0.14634150000000545
                },
                {
                    "name": "G#4",
                    "midi": 68,
                    "time": 196.97565900000149,
                    "velocity": 0.33070866141732286,
                    "duration": 0.14634150000000545
                },
                {
                    "name": "E5",
                    "midi": 76,
                    "time": 197.1220005000015,
                    "velocity": 0.33070866141732286,
                    "duration": 0.14634150000000545
                },
                {
                    "name": "A4",
                    "midi": 69,
                    "time": 197.8537080000015,
                    "velocity": 0.3779527559055118,
                    "duration": 0.14634150000000545
                },
                {
                    "name": "C#4",
                    "midi": 61,
                    "time": 198.0000495000015,
                    "velocity": 0.33070866141732286,
                    "duration": 0.14634150000000545
                },
                {
                    "name": "A4",
                    "midi": 69,
                    "time": 198.1463910000015,
                    "velocity": 0.33070866141732286,
                    "duration": 0.14634150000000545
                },
                {
                    "name": "C#5",
                    "midi": 73,
                    "time": 198.2927325000015,
                    "velocity": 0.33858267716535434,
                    "duration": 0.14634150000000545
                },
                {
                    "name": "C#5",
                    "midi": 73,
                    "time": 198.4390740000015,
                    "velocity": 0.33858267716535434,
                    "duration": 0.14634150000000545
                },
                {
                    "name": "E5",
                    "midi": 76,
                    "time": 198.58541550000152,
                    "velocity": 0.3779527559055118,
                    "duration": 0.14634150000000545
                },
                {
                    "name": "A5",
                    "midi": 81,
                    "time": 198.73175700000152,
                    "velocity": 0.41732283464566927,
                    "duration": 0.14634150000000545
                },
                {
                    "name": "C#6",
                    "midi": 85,
                    "time": 198.87809850000153,
                    "velocity": 0.4645669291338583,
                    "duration": 0.14634150000000545
                },
                {
                    "name": "C#6",
                    "midi": 85,
                    "time": 199.02444000000153,
                    "velocity": 0.5039370078740157,
                    "duration": 0.14634150000000545
                },
                {
                    "name": "C#5",
                    "midi": 73,
                    "time": 199.17078150000154,
                    "velocity": 0.4409448818897638,
                    "duration": 0.14634150000000545
                },
                {
                    "name": "A5",
                    "midi": 81,
                    "time": 199.31712300000154,
                    "velocity": 0.48031496062992124,
                    "duration": 0.14634150000000545
                },
                {
                    "name": "C#5",
                    "midi": 73,
                    "time": 199.46346450000155,
                    "velocity": 0.4409448818897638,
                    "duration": 0.14634150000000545
                },
                {
                    "name": "G#5",
                    "midi": 80,
                    "time": 199.60980600000156,
                    "velocity": 0.48031496062992124,
                    "duration": 0.14634150000000545
                },
                {
                    "name": "E5",
                    "midi": 76,
                    "time": 199.75614750000156,
                    "velocity": 0.4409448818897638,
                    "duration": 0.14634150000000545
                },
                {
                    "name": "F#5",
                    "midi": 78,
                    "time": 199.90248900000157,
                    "velocity": 0.48031496062992124,
                    "duration": 0.14634150000000545
                },
                {
                    "name": "D#5",
                    "midi": 75,
                    "time": 200.04883050000157,
                    "velocity": 0.4330708661417323,
                    "duration": 0.14634150000000545
                },
                {
                    "name": "E4",
                    "midi": 64,
                    "time": 200.19517200000158,
                    "velocity": 0.5196850393700787,
                    "duration": 0.14634150000000545
                },
                {
                    "name": "G#4",
                    "midi": 68,
                    "time": 200.19517200000158,
                    "velocity": 0.5196850393700787,
                    "duration": 0.14634150000000545
                },
                {
                    "name": "E5",
                    "midi": 76,
                    "time": 200.19517200000158,
                    "velocity": 0.5196850393700787,
                    "duration": 0.14634150000000545
                },
                {
                    "name": "G#4",
                    "midi": 68,
                    "time": 200.34151350000158,
                    "velocity": 0.48031496062992124,
                    "duration": 0.14634150000000545
                },
                {
                    "name": "F#4",
                    "midi": 66,
                    "time": 200.4878550000016,
                    "velocity": 0.48031496062992124,
                    "duration": 0.14634150000000545
                },
                {
                    "name": "G#4",
                    "midi": 68,
                    "time": 200.6341965000016,
                    "velocity": 0.48031496062992124,
                    "duration": 0.14634150000000545
                },
                {
                    "name": "E4",
                    "midi": 64,
                    "time": 200.7805380000016,
                    "velocity": 0.4566929133858268,
                    "duration": 0.14634150000000545
                },
                {
                    "name": "G#4",
                    "midi": 68,
                    "time": 200.9268795000016,
                    "velocity": 0.4881889763779528,
                    "duration": 0.14634150000000545
                },
                {
                    "name": "D#4",
                    "midi": 63,
                    "time": 201.0732210000016,
                    "velocity": 0.5196850393700787,
                    "duration": 0.14634150000000545
                },
                {
                    "name": "G#4",
                    "midi": 68,
                    "time": 201.21956250000162,
                    "velocity": 0.5433070866141733,
                    "duration": 0.14634150000000545
                },
                {
                    "name": "E4",
                    "midi": 64,
                    "time": 201.36590400000162,
                    "velocity": 0.6299212598425197,
                    "duration": 0.14634150000000545
                },
                {
                    "name": "C#4",
                    "midi": 61,
                    "time": 201.51224550000163,
                    "velocity": 0.5826771653543307,
                    "duration": 0.14634150000000545
                },
                {
                    "name": "E4",
                    "midi": 64,
                    "time": 201.65858700000163,
                    "velocity": 0.5826771653543307,
                    "duration": 0.14634150000000545
                },
                {
                    "name": "G#4",
                    "midi": 68,
                    "time": 201.80492850000164,
                    "velocity": 0.5826771653543307,
                    "duration": 0.14634150000000545
                },
                {
                    "name": "E4",
                    "midi": 64,
                    "time": 201.95127000000164,
                    "velocity": 0.6141732283464567,
                    "duration": 0.14634150000000545
                },
                {
                    "name": "C#4",
                    "midi": 61,
                    "time": 202.09761150000165,
                    "velocity": 0.5826771653543307,
                    "duration": 0.14634150000000545
                },
                {
                    "name": "E4",
                    "midi": 64,
                    "time": 202.24395300000165,
                    "velocity": 0.5826771653543307,
                    "duration": 0.14634150000000545
                },
                {
                    "name": "A4",
                    "midi": 69,
                    "time": 202.39029450000166,
                    "velocity": 0.5826771653543307,
                    "duration": 0.14634150000000545
                },
                {
                    "name": "D#4",
                    "midi": 63,
                    "time": 202.53663600000166,
                    "velocity": 0.5984251968503937,
                    "duration": 0.14634150000000545
                },
                {
                    "name": "C4",
                    "midi": 60,
                    "time": 202.68297750000167,
                    "velocity": 0.5826771653543307,
                    "duration": 0.14634150000000545
                },
                {
                    "name": "D#4",
                    "midi": 63,
                    "time": 202.82931900000168,
                    "velocity": 0.5826771653543307,
                    "duration": 0.14634150000000545
                },
                {
                    "name": "A4",
                    "midi": 69,
                    "time": 202.97566050000168,
                    "velocity": 0.5826771653543307,
                    "duration": 0.14634150000000545
                },
                {
                    "name": "D#4",
                    "midi": 63,
                    "time": 203.1220020000017,
                    "velocity": 0.5984251968503937,
                    "duration": 0.14634150000000545
                },
                {
                    "name": "C4",
                    "midi": 60,
                    "time": 203.2683435000017,
                    "velocity": 0.5826771653543307,
                    "duration": 0.14634150000000545
                },
                {
                    "name": "D#4",
                    "midi": 63,
                    "time": 203.4146850000017,
                    "velocity": 0.5826771653543307,
                    "duration": 0.14634150000000545
                },
                {
                    "name": "G#4",
                    "midi": 68,
                    "time": 203.5610265000017,
                    "velocity": 0.5826771653543307,
                    "duration": 0.14634150000000545
                },
                {
                    "name": "G#4",
                    "midi": 68,
                    "time": 203.7073680000017,
                    "velocity": 0.6299212598425197,
                    "duration": 0.14634150000000545
                },
                {
                    "name": "E4",
                    "midi": 64,
                    "time": 203.8537095000017,
                    "velocity": 0.5984251968503937,
                    "duration": 0.14634150000000545
                },
                {
                    "name": "G#4",
                    "midi": 68,
                    "time": 204.00005100000172,
                    "velocity": 0.5984251968503937,
                    "duration": 0.14634150000000545
                },
                {
                    "name": "E5",
                    "midi": 76,
                    "time": 204.14639250000172,
                    "velocity": 0.5984251968503937,
                    "duration": 0.14634150000000545
                },
                {
                    "name": "G#4",
                    "midi": 68,
                    "time": 204.29273400000173,
                    "velocity": 0.6299212598425197,
                    "duration": 0.14634150000000545
                },
                {
                    "name": "E4",
                    "midi": 64,
                    "time": 204.43907550000174,
                    "velocity": 0.5984251968503937,
                    "duration": 0.14634150000000545
                },
                {
                    "name": "G#4",
                    "midi": 68,
                    "time": 204.58541700000174,
                    "velocity": 0.5984251968503937,
                    "duration": 0.14634150000000545
                },
                {
                    "name": "C#5",
                    "midi": 73,
                    "time": 204.73175850000175,
                    "velocity": 0.5984251968503937,
                    "duration": 0.14634150000000545
                },
                {
                    "name": "A4",
                    "midi": 69,
                    "time": 204.87810000000175,
                    "velocity": 0.6456692913385826,
                    "duration": 0.14634150000000545
                },
                {
                    "name": "G#4",
                    "midi": 68,
                    "time": 205.02444150000176,
                    "velocity": 0.5826771653543307,
                    "duration": 0.14634150000000545
                },
                {
                    "name": "F#4",
                    "midi": 66,
                    "time": 205.17078300000176,
                    "velocity": 0.5905511811023622,
                    "duration": 0.14634150000000545
                },
                {
                    "name": "C#5",
                    "midi": 73,
                    "time": 205.31712450000177,
                    "velocity": 0.5984251968503937,
                    "duration": 0.14634150000000545
                },
                {
                    "name": "C5",
                    "midi": 72,
                    "time": 205.46346600000177,
                    "velocity": 0.6535433070866141,
                    "duration": 0.14634150000000545
                },
                {
                    "name": "D#4",
                    "midi": 63,
                    "time": 205.60980750000178,
                    "velocity": 0.6220472440944882,
                    "duration": 0.14634150000000545
                },
                {
                    "name": "G#4",
                    "midi": 68,
                    "time": 205.75614900000178,
                    "velocity": 0.6299212598425197,
                    "duration": 0.14634150000000545
                },
                {
                    "name": "C5",
                    "midi": 72,
                    "time": 205.9024905000018,
                    "velocity": 0.6456692913385826,
                    "duration": 0.14634150000000545
                },
                {
                    "name": "C#5",
                    "midi": 73,
                    "time": 206.0488320000018,
                    "velocity": 0.6929133858267716,
                    "duration": 0.14634150000000545
                },
                {
                    "name": "G#4",
                    "midi": 68,
                    "time": 206.1951735000018,
                    "velocity": 0.5984251968503937,
                    "duration": 0.14634150000000545
                },
                {
                    "name": "C#5",
                    "midi": 73,
                    "time": 206.3415150000018,
                    "velocity": 0.6220472440944882,
                    "duration": 0.14634150000000545
                },
                {
                    "name": "E5",
                    "midi": 76,
                    "time": 206.4878565000018,
                    "velocity": 0.6456692913385826,
                    "duration": 0.14634150000000545
                },
                {
                    "name": "E5",
                    "midi": 76,
                    "time": 206.63419800000182,
                    "velocity": 0.6614173228346457,
                    "duration": 0.14634150000000545
                },
                {
                    "name": "G#4",
                    "midi": 68,
                    "time": 206.78053950000182,
                    "velocity": 0.6456692913385826,
                    "duration": 0.14634150000000545
                },
                {
                    "name": "E5",
                    "midi": 76,
                    "time": 206.92688100000183,
                    "velocity": 0.6771653543307087,
                    "duration": 0.14634150000000545
                },
                {
                    "name": "G#5",
                    "midi": 80,
                    "time": 207.07322250000183,
                    "velocity": 0.7086614173228346,
                    "duration": 0.14634150000000545
                },
                {
                    "name": "E5",
                    "midi": 76,
                    "time": 207.21956400000184,
                    "velocity": 0.7322834645669292,
                    "duration": 0.14634150000000545
                },
                {
                    "name": "A4",
                    "midi": 69,
                    "time": 207.36590550000184,
                    "velocity": 0.7086614173228346,
                    "duration": 0.14634150000000545
                },
                {
                    "name": "E5",
                    "midi": 76,
                    "time": 207.51224700000185,
                    "velocity": 0.6929133858267716,
                    "duration": 0.14634150000000545
                },
                {
                    "name": "G#5",
                    "midi": 80,
                    "time": 207.65858850000185,
                    "velocity": 0.6692913385826772,
                    "duration": 0.14634150000000545
                },
                {
                    "name": "D5",
                    "midi": 74,
                    "time": 207.80493000000186,
                    "velocity": 0.6771653543307087,
                    "duration": 0.14634150000000545
                },
                {
                    "name": "F#5",
                    "midi": 78,
                    "time": 207.95127150000187,
                    "velocity": 0.6456692913385826,
                    "duration": 0.14634150000000545
                },
                {
                    "name": "C#5",
                    "midi": 73,
                    "time": 208.09761300000187,
                    "velocity": 0.6771653543307087,
                    "duration": 0.14634150000000545
                },
                {
                    "name": "E5",
                    "midi": 76,
                    "time": 208.24395450000188,
                    "velocity": 0.6456692913385826,
                    "duration": 0.14634150000000545
                },
                {
                    "name": "C5",
                    "midi": 72,
                    "time": 208.39029600000188,
                    "velocity": 0.6535433070866141,
                    "duration": 0.14634150000000545
                },
                {
                    "name": "D#5",
                    "midi": 75,
                    "time": 208.5366375000019,
                    "velocity": 0.6220472440944882,
                    "duration": 0.14634150000000545
                },
                {
                    "name": "C#5",
                    "midi": 73,
                    "time": 208.6829790000019,
                    "velocity": 0.6456692913385826,
                    "duration": 0.14634150000000545
                },
                {
                    "name": "E5",
                    "midi": 76,
                    "time": 208.8293205000019,
                    "velocity": 0.5984251968503937,
                    "duration": 0.14634150000000545
                },
                {
                    "name": "D#5",
                    "midi": 75,
                    "time": 208.9756620000019,
                    "velocity": 0.6377952755905512,
                    "duration": 0.14634150000000545
                },
                {
                    "name": "F#5",
                    "midi": 78,
                    "time": 209.1220035000019,
                    "velocity": 0.5905511811023622,
                    "duration": 0.14634150000000545
                },
                {
                    "name": "C5",
                    "midi": 72,
                    "time": 209.26834500000191,
                    "velocity": 0.6220472440944882,
                    "duration": 0.14634150000000545
                },
                {
                    "name": "D#5",
                    "midi": 75,
                    "time": 209.41468650000192,
                    "velocity": 0.5669291338582677,
                    "duration": 0.14634150000000545
                },
                {
                    "name": "E5",
                    "midi": 76,
                    "time": 209.56102800000193,
                    "velocity": 0.6220472440944882,
                    "duration": 0.14634150000000545
                },
                {
                    "name": "C#5",
                    "midi": 73,
                    "time": 209.70736950000193,
                    "velocity": 0.5826771653543307,
                    "duration": 0.14634150000000545
                },
                {
                    "name": "B4",
                    "midi": 71,
                    "time": 209.85371100000194,
                    "velocity": 0.5433070866141733,
                    "duration": 0.14634150000000545
                },
                {
                    "name": "A4",
                    "midi": 69,
                    "time": 210.00005250000194,
                    "velocity": 0.5118110236220472,
                    "duration": 0.14634150000000545
                },
                {
                    "name": "G#4",
                    "midi": 68,
                    "time": 210.14639400000195,
                    "velocity": 0.48031496062992124,
                    "duration": 0.14634150000000545
                },
                {
                    "name": "F#4",
                    "midi": 66,
                    "time": 210.29273550000195,
                    "velocity": 0.44881889763779526,
                    "duration": 0.14634150000000545
                },
                {
                    "name": "E4",
                    "midi": 64,
                    "time": 210.43907700000196,
                    "velocity": 0.41732283464566927,
                    "duration": 0.14634150000000545
                },
                {
                    "name": "D#4",
                    "midi": 63,
                    "time": 210.58541850000196,
                    "velocity": 0.3779527559055118,
                    "duration": 0.14634150000000545
                },
                {
                    "name": "E4",
                    "midi": 64,
                    "time": 210.73176000000197,
                    "velocity": 0.33070866141732286,
                    "duration": 0.14634150000000545
                },
                {
                    "name": "C#4",
                    "midi": 61,
                    "time": 210.87810150000197,
                    "velocity": 0.3543307086614173,
                    "duration": 0.14634150000000545
                },
                {
                    "name": "E4",
                    "midi": 64,
                    "time": 211.02444300000198,
                    "velocity": 0.3543307086614173,
                    "duration": 0.14634150000000545
                },
                {
                    "name": "G#4",
                    "midi": 68,
                    "time": 211.170784500002,
                    "velocity": 0.3543307086614173,
                    "duration": 0.14634150000000545
                },
                {
                    "name": "E4",
                    "midi": 64,
                    "time": 211.317126000002,
                    "velocity": 0.3779527559055118,
                    "duration": 0.14634150000000545
                },
                {
                    "name": "C#4",
                    "midi": 61,
                    "time": 211.463467500002,
                    "velocity": 0.3543307086614173,
                    "duration": 0.14634150000000545
                },
                {
                    "name": "E4",
                    "midi": 64,
                    "time": 211.609809000002,
                    "velocity": 0.3543307086614173,
                    "duration": 0.14634150000000545
                },
                {
                    "name": "A4",
                    "midi": 69,
                    "time": 211.756150500002,
                    "velocity": 0.3543307086614173,
                    "duration": 0.14634150000000545
                },
                {
                    "name": "D#4",
                    "midi": 63,
                    "time": 211.902492000002,
                    "velocity": 0.3700787401574803,
                    "duration": 0.14634150000000545
                },
                {
                    "name": "B3",
                    "midi": 59,
                    "time": 212.04883350000202,
                    "velocity": 0.3543307086614173,
                    "duration": 0.14634150000000545
                },
                {
                    "name": "D#4",
                    "midi": 63,
                    "time": 212.19517500000202,
                    "velocity": 0.3543307086614173,
                    "duration": 0.14634150000000545
                },
                {
                    "name": "A4",
                    "midi": 69,
                    "time": 212.34151650000203,
                    "velocity": 0.3543307086614173,
                    "duration": 0.14634150000000545
                },
                {
                    "name": "D#4",
                    "midi": 63,
                    "time": 212.48785800000203,
                    "velocity": 0.3700787401574803,
                    "duration": 0.14634150000000545
                },
                {
                    "name": "B3",
                    "midi": 59,
                    "time": 212.63419950000204,
                    "velocity": 0.3543307086614173,
                    "duration": 0.14634150000000545
                },
                {
                    "name": "D#4",
                    "midi": 63,
                    "time": 212.78054100000205,
                    "velocity": 0.3543307086614173,
                    "duration": 0.14634150000000545
                },
                {
                    "name": "G#4",
                    "midi": 68,
                    "time": 212.92688250000205,
                    "velocity": 0.3543307086614173,
                    "duration": 0.14634150000000545
                },
                {
                    "name": "G#4",
                    "midi": 68,
                    "time": 213.07322400000206,
                    "velocity": 0.3858267716535433,
                    "duration": 0.14634150000000545
                },
                {
                    "name": "C#4",
                    "midi": 61,
                    "time": 213.21956550000206,
                    "velocity": 0.3700787401574803,
                    "duration": 0.14634150000000545
                },
                {
                    "name": "G#4",
                    "midi": 68,
                    "time": 213.36590700000207,
                    "velocity": 0.3700787401574803,
                    "duration": 0.14634150000000545
                },
                {
                    "name": "C#5",
                    "midi": 73,
                    "time": 213.51224850000207,
                    "velocity": 0.3700787401574803,
                    "duration": 0.14634150000000545
                },
                {
                    "name": "F#4",
                    "midi": 66,
                    "time": 213.65859000000208,
                    "velocity": 0.3858267716535433,
                    "duration": 0.14634150000000545
                },
                {
                    "name": "D#4",
                    "midi": 63,
                    "time": 213.80493150000208,
                    "velocity": 0.3700787401574803,
                    "duration": 0.14634150000000545
                },
                {
                    "name": "F#4",
                    "midi": 66,
                    "time": 213.9512730000021,
                    "velocity": 0.3700787401574803,
                    "duration": 0.14634150000000545
                },
                {
                    "name": "C#5",
                    "midi": 73,
                    "time": 214.0976145000021,
                    "velocity": 0.3700787401574803,
                    "duration": 0.14634150000000545
                },
                {
                    "name": "G#4",
                    "midi": 68,
                    "time": 214.2439560000021,
                    "velocity": 0.3937007874015748,
                    "duration": 0.14634150000000545
                },
                {
                    "name": "E4",
                    "midi": 64,
                    "time": 214.3902975000021,
                    "velocity": 0.3700787401574803,
                    "duration": 0.14634150000000545
                },
                {
                    "name": "G#4",
                    "midi": 68,
                    "time": 214.5366390000021,
                    "velocity": 0.3700787401574803,
                    "duration": 0.14634150000000545
                },
                {
                    "name": "C#5",
                    "midi": 73,
                    "time": 214.68298050000212,
                    "velocity": 0.3700787401574803,
                    "duration": 0.14634150000000545
                },
                {
                    "name": "G#4",
                    "midi": 68,
                    "time": 214.82932200000212,
                    "velocity": 0.3858267716535433,
                    "duration": 0.14634150000000545
                },
                {
                    "name": "E4",
                    "midi": 64,
                    "time": 214.97566350000213,
                    "velocity": 0.3779527559055118,
                    "duration": 0.14634150000000545
                },
                {
                    "name": "G#4",
                    "midi": 68,
                    "time": 215.12200500000213,
                    "velocity": 0.3779527559055118,
                    "duration": 0.14634150000000545
                },
                {
                    "name": "B4",
                    "midi": 71,
                    "time": 215.26834650000214,
                    "velocity": 0.3779527559055118,
                    "duration": 0.14634150000000545
                },
                {
                    "name": "G4",
                    "midi": 67,
                    "time": 215.41468800000214,
                    "velocity": 0.4251968503937008,
                    "duration": 0.14634150000000545
                },
                {
                    "name": "E4",
                    "midi": 64,
                    "time": 215.56102950000215,
                    "velocity": 0.3700787401574803,
                    "duration": 0.14634150000000545
                },
                {
                    "name": "G4",
                    "midi": 67,
                    "time": 215.70737100000215,
                    "velocity": 0.3779527559055118,
                    "duration": 0.14634150000000545
                },
                {
                    "name": "A#4",
                    "midi": 70,
                    "time": 215.85371250000216,
                    "velocity": 0.3937007874015748,
                    "duration": 0.14634150000000545
                },
                {
                    "name": "E5",
                    "midi": 76,
                    "time": 216.00005400000217,
                    "velocity": 0.4094488188976378,
                    "duration": 0.14634150000000545
                },
                {
                    "name": "A#4",
                    "midi": 70,
                    "time": 216.14639550000217,
                    "velocity": 0.3779527559055118,
                    "duration": 0.14634150000000545
                },
                {
                    "name": "E5",
                    "midi": 76,
                    "time": 216.29273700000218,
                    "velocity": 0.3858267716535433,
                    "duration": 0.14634150000000545
                },
                {
                    "name": "G5",
                    "midi": 79,
                    "time": 216.43907850000218,
                    "velocity": 0.4015748031496063,
                    "duration": 0.14634150000000545
                },
                {
                    "name": "D#5",
                    "midi": 75,
                    "time": 216.5854200000022,
                    "velocity": 0.4015748031496063,
                    "duration": 0.14634150000000545
                },
                {
                    "name": "G5",
                    "midi": 79,
                    "time": 216.7317615000022,
                    "velocity": 0.3858267716535433,
                    "duration": 0.14634150000000545
                },
                {
                    "name": "D#5",
                    "midi": 75,
                    "time": 216.8781030000022,
                    "velocity": 0.3937007874015748,
                    "duration": 0.14634150000000545
                },
                {
                    "name": "F#5",
                    "midi": 78,
                    "time": 217.0244445000022,
                    "velocity": 0.3779527559055118,
                    "duration": 0.14634150000000545
                },
                {
                    "name": "A4",
                    "midi": 69,
                    "time": 217.1707860000022,
                    "velocity": 0.3858267716535433,
                    "duration": 0.14634150000000545
                },
                {
                    "name": "E5",
                    "midi": 76,
                    "time": 217.31712750000221,
                    "velocity": 0.3779527559055118,
                    "duration": 0.14634150000000545
                },
                {
                    "name": "A4",
                    "midi": 69,
                    "time": 217.46346900000222,
                    "velocity": 0.3858267716535433,
                    "duration": 0.14634150000000545
                },
                {
                    "name": "D#5",
                    "midi": 75,
                    "time": 217.60981050000223,
                    "velocity": 0.3779527559055118,
                    "duration": 0.14634150000000545
                },
                {
                    "name": "A4",
                    "midi": 69,
                    "time": 217.75615200000223,
                    "velocity": 0.3700787401574803,
                    "duration": 0.14634150000000545
                },
                {
                    "name": "F#5",
                    "midi": 78,
                    "time": 217.90249350000224,
                    "velocity": 0.3464566929133858,
                    "duration": 0.14634150000000545
                },
                {
                    "name": "G#4",
                    "midi": 68,
                    "time": 218.04883500000224,
                    "velocity": 0.3700787401574803,
                    "duration": 0.14634150000000545
                },
                {
                    "name": "E5",
                    "midi": 76,
                    "time": 218.19517650000225,
                    "velocity": 0.3464566929133858,
                    "duration": 0.14634150000000545
                },
                {
                    "name": "E4",
                    "midi": 64,
                    "time": 218.34151800000225,
                    "velocity": 0.36220472440944884,
                    "duration": 0.14634150000000545
                },
                {
                    "name": "C#5",
                    "midi": 73,
                    "time": 218.48785950000226,
                    "velocity": 0.3464566929133858,
                    "duration": 0.14634150000000545
                },
                {
                    "name": "C#4",
                    "midi": 61,
                    "time": 218.63420100000226,
                    "velocity": 0.3543307086614173,
                    "duration": 0.14634150000000545
                },
                {
                    "name": "A4",
                    "midi": 69,
                    "time": 218.78054250000227,
                    "velocity": 0.3464566929133858,
                    "duration": 0.14634150000000545
                },
                {
                    "name": "B3",
                    "midi": 59,
                    "time": 218.92688400000227,
                    "velocity": 0.3543307086614173,
                    "duration": 0.14634150000000545
                },
                {
                    "name": "G#4",
                    "midi": 68,
                    "time": 219.07322550000228,
                    "velocity": 0.3464566929133858,
                    "duration": 0.14634150000000545
                },
                {
                    "name": "E4",
                    "midi": 64,
                    "time": 219.2195670000023,
                    "velocity": 0.3543307086614173,
                    "duration": 0.14634150000000545
                },
                {
                    "name": "B4",
                    "midi": 71,
                    "time": 219.3659085000023,
                    "velocity": 0.3464566929133858,
                    "duration": 0.14634150000000545
                },
                {
                    "name": "B3",
                    "midi": 59,
                    "time": 219.5122500000023,
                    "velocity": 0.3543307086614173,
                    "duration": 0.14634150000000545
                },
                {
                    "name": "A4",
                    "midi": 69,
                    "time": 219.6585915000023,
                    "velocity": 0.3464566929133858,
                    "duration": 0.14634150000000545
                },
                {
                    "name": "D#4",
                    "midi": 63,
                    "time": 219.8049330000023,
                    "velocity": 0.3543307086614173,
                    "duration": 0.14634150000000545
                },
                {
                    "name": "B4",
                    "midi": 71,
                    "time": 219.9512745000023,
                    "velocity": 0.3464566929133858,
                    "duration": 0.14634150000000545
                },
                {
                    "name": "A4",
                    "midi": 69,
                    "time": 220.09761600000232,
                    "velocity": 0.3543307086614173,
                    "duration": 0.43902450000001636
                },
                {
                    "name": "D#4",
                    "midi": 63,
                    "time": 220.24395750000232,
                    "velocity": 0.33858267716535434,
                    "duration": 0.14634150000000545
                },
                {
                    "name": "B3",
                    "midi": 59,
                    "time": 220.39029900000233,
                    "velocity": 0.33858267716535434,
                    "duration": 0.14634150000000545
                },
                {
                    "name": "A4",
                    "midi": 69,
                    "time": 220.53664050000233,
                    "velocity": 0.3543307086614173,
                    "duration": 0.14634150000000545
                },
                {
                    "name": "G#4",
                    "midi": 68,
                    "time": 220.68298200000234,
                    "velocity": 0.3543307086614173,
                    "duration": 0.14634150000000545
                },
                {
                    "name": "B3",
                    "midi": 59,
                    "time": 220.82932350000235,
                    "velocity": 0.33070866141732286,
                    "duration": 0.14634150000000545
                },
                {
                    "name": "E4",
                    "midi": 64,
                    "time": 220.97566500000235,
                    "velocity": 0.3464566929133858,
                    "duration": 0.14634150000000545
                },
                {
                    "name": "F#4",
                    "midi": 66,
                    "time": 221.12200650000236,
                    "velocity": 0.3543307086614173,
                    "duration": 0.14634150000000545
                },
                {
                    "name": "G#4",
                    "midi": 68,
                    "time": 221.26834800000236,
                    "velocity": 0.3700787401574803,
                    "duration": 0.14634150000000545
                },
                {
                    "name": "E4",
                    "midi": 64,
                    "time": 221.41468950000237,
                    "velocity": 0.33858267716535434,
                    "duration": 0.14634150000000545
                },
                {
                    "name": "G#4",
                    "midi": 68,
                    "time": 221.56103100000237,
                    "velocity": 0.3543307086614173,
                    "duration": 0.14634150000000545
                },
                {
                    "name": "E5",
                    "midi": 76,
                    "time": 221.70737250000238,
                    "velocity": 0.3464566929133858,
                    "duration": 0.14634150000000545
                },
                {
                    "name": "G#4",
                    "midi": 68,
                    "time": 221.85371400000238,
                    "velocity": 0.3700787401574803,
                    "duration": 0.14634150000000545
                },
                {
                    "name": "D#5",
                    "midi": 75,
                    "time": 222.0000555000024,
                    "velocity": 0.3464566929133858,
                    "duration": 0.14634150000000545
                },
                {
                    "name": "G#4",
                    "midi": 68,
                    "time": 222.1463970000024,
                    "velocity": 0.3779527559055118,
                    "duration": 0.14634150000000545
                },
                {
                    "name": "C#5",
                    "midi": 73,
                    "time": 222.2927385000024,
                    "velocity": 0.3464566929133858,
                    "duration": 0.14634150000000545
                },
                {
                    "name": "A4",
                    "midi": 69,
                    "time": 222.4390800000024,
                    "velocity": 0.3779527559055118,
                    "duration": 0.14634150000000545
                },
                {
                    "name": "C#4",
                    "midi": 61,
                    "time": 222.5854215000024,
                    "velocity": 0.3464566929133858,
                    "duration": 0.14634150000000545
                },
                {
                    "name": "A4",
                    "midi": 69,
                    "time": 222.73176300000242,
                    "velocity": 0.36220472440944884,
                    "duration": 0.14634150000000545
                },
                {
                    "name": "C#5",
                    "midi": 73,
                    "time": 222.87810450000242,
                    "velocity": 0.36220472440944884,
                    "duration": 0.14634150000000545
                },
                {
                    "name": "G#4",
                    "midi": 68,
                    "time": 223.02444600000243,
                    "velocity": 0.3700787401574803,
                    "duration": 0.14634150000000545
                },
                {
                    "name": "B4",
                    "midi": 71,
                    "time": 223.17078750000243,
                    "velocity": 0.33858267716535434,
                    "duration": 0.14634150000000545
                },
                {
                    "name": "F#4",
                    "midi": 66,
                    "time": 223.31712900000244,
                    "velocity": 0.3543307086614173,
                    "duration": 0.14634150000000545
                },
                {
                    "name": "A4",
                    "midi": 69,
                    "time": 223.46347050000244,
                    "velocity": 0.33858267716535434,
                    "duration": 0.14634150000000545
                },
                {
                    "name": "E4",
                    "midi": 64,
                    "time": 223.60981200000245,
                    "velocity": 0.3543307086614173,
                    "duration": 0.14634150000000545
                },
                {
                    "name": "G#3",
                    "midi": 56,
                    "time": 223.75615350000245,
                    "velocity": 0.33858267716535434,
                    "duration": 0.14634150000000545
                },
                {
                    "name": "E4",
                    "midi": 64,
                    "time": 223.90249500000246,
                    "velocity": 0.33858267716535434,
                    "duration": 0.14634150000000545
                },
                {
                    "name": "G#4",
                    "midi": 68,
                    "time": 224.04883650000247,
                    "velocity": 0.33858267716535434,
                    "duration": 0.14634150000000545
                },
                {
                    "name": "C#4",
                    "midi": 61,
                    "time": 224.19517800000247,
                    "velocity": 0.3543307086614173,
                    "duration": 0.14634150000000545
                },
                {
                    "name": "G3",
                    "midi": 55,
                    "time": 224.34151950000248,
                    "velocity": 0.31496062992125984,
                    "duration": 0.14634150000000545
                },
                {
                    "name": "C#4",
                    "midi": 61,
                    "time": 224.48786100000248,
                    "velocity": 0.3228346456692913,
                    "duration": 0.14634150000000545
                },
                {
                    "name": "A4",
                    "midi": 69,
                    "time": 224.6342025000025,
                    "velocity": 0.3228346456692913,
                    "duration": 0.14634150000000545
                },
                {
                    "name": "D#4",
                    "midi": 63,
                    "time": 224.7805440000025,
                    "velocity": 0.33858267716535434,
                    "duration": 0.14634150000000545
                },
                {
                    "name": "F#3",
                    "midi": 54,
                    "time": 224.9268855000025,
                    "velocity": 0.30708661417322836,
                    "duration": 0.14634150000000545
                },
                {
                    "name": "D#4",
                    "midi": 63,
                    "time": 225.0732270000025,
                    "velocity": 0.30708661417322836,
                    "duration": 0.14634150000000545
                },
                {
                    "name": "G#4",
                    "midi": 68,
                    "time": 225.2195685000025,
                    "velocity": 0.30708661417322836,
                    "duration": 0.14634150000000545
                },
                {
                    "name": "D#4",
                    "midi": 63,
                    "time": 225.36591000000251,
                    "velocity": 0.33070866141732286,
                    "duration": 0.14634150000000545
                },
                {
                    "name": "F#3",
                    "midi": 54,
                    "time": 225.51225150000252,
                    "velocity": 0.2992125984251969,
                    "duration": 0.14634150000000545
                },
                {
                    "name": "D#4",
                    "midi": 63,
                    "time": 225.65859300000253,
                    "velocity": 0.2992125984251969,
                    "duration": 0.14634150000000545
                },
                {
                    "name": "G#4",
                    "midi": 68,
                    "time": 225.80493450000253,
                    "velocity": 0.2992125984251969,
                    "duration": 0.14634150000000545
                },
                {
                    "name": "C#4",
                    "midi": 61,
                    "time": 225.95127600000254,
                    "velocity": 0.2992125984251969,
                    "duration": 0.14634150000000545
                },
                {
                    "name": "E3",
                    "midi": 52,
                    "time": 226.09761750000254,
                    "velocity": 0.2755905511811024,
                    "duration": 0.14634150000000545
                },
                {
                    "name": "C#4",
                    "midi": 61,
                    "time": 226.24395900000255,
                    "velocity": 0.2755905511811024,
                    "duration": 0.14634150000000545
                },
                {
                    "name": "E4",
                    "midi": 64,
                    "time": 226.39030050000255,
                    "velocity": 0.2755905511811024,
                    "duration": 0.14634150000000545
                },
                {
                    "name": "C#4",
                    "midi": 61,
                    "time": 227.12200800000255,
                    "velocity": 0.2992125984251969,
                    "duration": 0.14634150000000545
                },
                {
                    "name": "E3",
                    "midi": 52,
                    "time": 227.26834950000256,
                    "velocity": 0.2677165354330709,
                    "duration": 0.14634150000000545
                },
                {
                    "name": "C#4",
                    "midi": 61,
                    "time": 227.41469100000256,
                    "velocity": 0.2677165354330709,
                    "duration": 0.14634150000000545
                },
                {
                    "name": "E4",
                    "midi": 64,
                    "time": 227.56103250000257,
                    "velocity": 0.2677165354330709,
                    "duration": 0.14634150000000545
                },
                {
                    "name": "D4",
                    "midi": 62,
                    "time": 228.29274000000257,
                    "velocity": 0.2992125984251969,
                    "duration": 0.14634150000000545
                },
                {
                    "name": "A3",
                    "midi": 57,
                    "time": 228.43908150000257,
                    "velocity": 0.28346456692913385,
                    "duration": 0.14634150000000545
                },
                {
                    "name": "D4",
                    "midi": 62,
                    "time": 228.58542300000258,
                    "velocity": 0.28346456692913385,
                    "duration": 0.14634150000000545
                },
                {
                    "name": "F#4",
                    "midi": 66,
                    "time": 228.73176450000258,
                    "velocity": 0.28346456692913385,
                    "duration": 0.14634150000000545
                },
                {
                    "name": "F#4",
                    "midi": 66,
                    "time": 228.8781060000026,
                    "velocity": 0.2755905511811024,
                    "duration": 0.14634150000000545
                },
                {
                    "name": "A4",
                    "midi": 69,
                    "time": 229.0244475000026,
                    "velocity": 0.30708661417322836,
                    "duration": 0.14634150000000545
                },
                {
                    "name": "D5",
                    "midi": 74,
                    "time": 229.1707890000026,
                    "velocity": 0.33070866141732286,
                    "duration": 0.14634150000000545
                },
                {
                    "name": "F#5",
                    "midi": 78,
                    "time": 229.3171305000026,
                    "velocity": 0.36220472440944884,
                    "duration": 0.14634150000000545
                },
                {
                    "name": "A5",
                    "midi": 81,
                    "time": 229.4634720000026,
                    "velocity": 0.3858267716535433,
                    "duration": 0.2926830000000109
                },
                {
                    "name": "D5",
                    "midi": 74,
                    "time": 229.60981350000262,
                    "velocity": 0.28346456692913385,
                    "duration": 0.14634150000000545
                },
                {
                    "name": "A4",
                    "midi": 69,
                    "time": 229.75615500000262,
                    "velocity": 0.29133858267716534,
                    "duration": 0.14634150000000545
                },
                {
                    "name": "F#5",
                    "midi": 78,
                    "time": 229.75615500000262,
                    "velocity": 0.3464566929133858,
                    "duration": 0.2926830000000109
                },
                {
                    "name": "B4",
                    "midi": 71,
                    "time": 229.90249650000263,
                    "velocity": 0.29133858267716534,
                    "duration": 0.14634150000000545
                },
                {
                    "name": "C#5",
                    "midi": 73,
                    "time": 230.04883800000263,
                    "velocity": 0.2755905511811024,
                    "duration": 0.14634150000000545
                },
                {
                    "name": "E5",
                    "midi": 76,
                    "time": 230.04883800000263,
                    "velocity": 0.33070866141732286,
                    "duration": 0.2926830000000109
                },
                {
                    "name": "G#4",
                    "midi": 68,
                    "time": 230.19517950000264,
                    "velocity": 0.2755905511811024,
                    "duration": 0.14634150000000545
                },
                {
                    "name": "C5",
                    "midi": 72,
                    "time": 230.34152100000264,
                    "velocity": 0.2755905511811024,
                    "duration": 0.14634150000000545
                },
                {
                    "name": "D#5",
                    "midi": 75,
                    "time": 230.34152100000264,
                    "velocity": 0.31496062992125984,
                    "duration": 0.2926830000000109
                },
                {
                    "name": "G#4",
                    "midi": 68,
                    "time": 230.48786250000265,
                    "velocity": 0.2755905511811024,
                    "duration": 0.14634150000000545
                },
                {
                    "name": "C#5",
                    "midi": 73,
                    "time": 230.63420400000265,
                    "velocity": 0.2992125984251969,
                    "duration": 0.14634150000000545
                },
                {
                    "name": "E4",
                    "midi": 64,
                    "time": 230.78054550000266,
                    "velocity": 0.2677165354330709,
                    "duration": 0.14634150000000545
                },
                {
                    "name": "C#5",
                    "midi": 73,
                    "time": 230.92688700000267,
                    "velocity": 0.2677165354330709,
                    "duration": 0.14634150000000545
                },
                {
                    "name": "E5",
                    "midi": 76,
                    "time": 231.07322850000267,
                    "velocity": 0.2677165354330709,
                    "duration": 0.14634150000000545
                },
                {
                    "name": "C#5",
                    "midi": 73,
                    "time": 231.80493600000267,
                    "velocity": 0.2992125984251969,
                    "duration": 0.14634150000000545
                },
                {
                    "name": "E4",
                    "midi": 64,
                    "time": 231.95127750000267,
                    "velocity": 0.25984251968503935,
                    "duration": 0.14634150000000545
                },
                {
                    "name": "C#5",
                    "midi": 73,
                    "time": 232.09761900000268,
                    "velocity": 0.25984251968503935,
                    "duration": 0.14634150000000545
                },
                {
                    "name": "E5",
                    "midi": 76,
                    "time": 232.2439605000027,
                    "velocity": 0.25984251968503935,
                    "duration": 0.14634150000000545
                },
                {
                    "name": "D5",
                    "midi": 74,
                    "time": 232.97566800000268,
                    "velocity": 0.2992125984251969,
                    "duration": 0.14634150000000545
                },
                {
                    "name": "A4",
                    "midi": 69,
                    "time": 233.1220095000027,
                    "velocity": 0.30708661417322836,
                    "duration": 0.14634150000000545
                },
                {
                    "name": "D5",
                    "midi": 74,
                    "time": 233.2683510000027,
                    "velocity": 0.3464566929133858,
                    "duration": 0.14634150000000545
                },
                {
                    "name": "F#5",
                    "midi": 78,
                    "time": 233.4146925000027,
                    "velocity": 0.3858267716535433,
                    "duration": 0.14634150000000545
                },
                {
                    "name": "A5",
                    "midi": 81,
                    "time": 233.5610340000027,
                    "velocity": 0.4330708661417323,
                    "duration": 0.14634150000000545
                },
                {
                    "name": "F#5",
                    "midi": 78,
                    "time": 233.7073755000027,
                    "velocity": 0.41732283464566927,
                    "duration": 0.14634150000000545
                },
                {
                    "name": "D5",
                    "midi": 74,
                    "time": 233.85371700000272,
                    "velocity": 0.3937007874015748,
                    "duration": 0.14634150000000545
                },
                {
                    "name": "A4",
                    "midi": 69,
                    "time": 234.00005850000272,
                    "velocity": 0.3700787401574803,
                    "duration": 0.14634150000000545
                },
                {
                    "name": "G#4",
                    "midi": 68,
                    "time": 234.14640000000273,
                    "velocity": 0.3464566929133858,
                    "duration": 0.14634150000000545
                },
                {
                    "name": "E5",
                    "midi": 76,
                    "time": 234.29274150000273,
                    "velocity": 0.33858267716535434,
                    "duration": 0.14634150000000545
                },
                {
                    "name": "E4",
                    "midi": 64,
                    "time": 234.43908300000274,
                    "velocity": 0.3700787401574803,
                    "duration": 0.14634150000000545
                },
                {
                    "name": "C#5",
                    "midi": 73,
                    "time": 234.58542450000274,
                    "velocity": 0.33070866141732286,
                    "duration": 0.14634150000000545
                },
                {
                    "name": "F#4",
                    "midi": 66,
                    "time": 234.73176600000275,
                    "velocity": 0.36220472440944884,
                    "duration": 0.14634150000000545
                },
                {
                    "name": "D#5",
                    "midi": 75,
                    "time": 234.87810750000276,
                    "velocity": 0.3228346456692913,
                    "duration": 0.14634150000000545
                },
                {
                    "name": "D#4",
                    "midi": 63,
                    "time": 235.02444900000276,
                    "velocity": 0.3464566929133858,
                    "duration": 0.14634150000000545
                },
                {
                    "name": "C5",
                    "midi": 72,
                    "time": 235.17079050000277,
                    "velocity": 0.31496062992125984,
                    "duration": 0.14634150000000545
                },
                {
                    "name": "E4",
                    "midi": 64,
                    "time": 235.31713200000277,
                    "velocity": 0.36220472440944884,
                    "duration": 0.14634150000000545
                },
                {
                    "name": "C#5",
                    "midi": 73,
                    "time": 235.46347350000278,
                    "velocity": 0.29133858267716534,
                    "duration": 0.14634150000000545
                },
                {
                    "name": "C#4",
                    "midi": 61,
                    "time": 235.60981500000278,
                    "velocity": 0.29133858267716534,
                    "duration": 0.14634150000000545
                },
                {
                    "name": "E4",
                    "midi": 64,
                    "time": 235.60981500000278,
                    "velocity": 0.29133858267716534,
                    "duration": 0.14634150000000545
                },
                {
                    "name": "G#4",
                    "midi": 68,
                    "time": 235.7561565000028,
                    "velocity": 0.23622047244094488,
                    "duration": 0.14634150000000545
                },
                {
                    "name": "D#4",
                    "midi": 63,
                    "time": 235.9024980000028,
                    "velocity": 0.25196850393700787,
                    "duration": 0.14634150000000545
                },
                {
                    "name": "F#4",
                    "midi": 66,
                    "time": 235.9024980000028,
                    "velocity": 0.25196850393700787,
                    "duration": 0.14634150000000545
                },
                {
                    "name": "G#4",
                    "midi": 68,
                    "time": 236.0488395000028,
                    "velocity": 0.2047244094488189,
                    "duration": 0.14634150000000545
                },
                {
                    "name": "C4",
                    "midi": 60,
                    "time": 236.1951810000028,
                    "velocity": 0.2204724409448819,
                    "duration": 0.14634150000000545
                },
                {
                    "name": "D#4",
                    "midi": 63,
                    "time": 236.1951810000028,
                    "velocity": 0.2204724409448819,
                    "duration": 0.14634150000000545
                },
                {
                    "name": "G#4",
                    "midi": 68,
                    "time": 236.3415225000028,
                    "velocity": 0.1889763779527559,
                    "duration": 0.14634150000000545
                },
                {
                    "name": "F4",
                    "midi": 65,
                    "time": 237.6585960000028,
                    "velocity": 0.1968503937007874,
                    "duration": 0.14634150000000545
                },
                {
                    "name": "G#4",
                    "midi": 68,
                    "time": 237.8049375000028,
                    "velocity": 0.1968503937007874,
                    "duration": 0.14634150000000545
                },
                {
                    "name": "F#4",
                    "midi": 66,
                    "time": 237.9512790000028,
                    "velocity": 0.14173228346456693,
                    "duration": 0.5853659999999934
                },
                {
                    "name": "A#4",
                    "midi": 70,
                    "time": 237.9512790000028,
                    "velocity": 0.16535433070866143,
                    "duration": 0.5853659999999934
                },
                {
                    "name": "F4",
                    "midi": 65,
                    "time": 238.5366450000028,
                    "velocity": 0.12598425196850394,
                    "duration": 0.2926830000000109
                },
                {
                    "name": "G#4",
                    "midi": 68,
                    "time": 238.5366450000028,
                    "velocity": 0.14960629921259844,
                    "duration": 0.2926830000000109
                },
                {
                    "name": "F4",
                    "midi": 65,
                    "time": 238.82932800000282,
                    "velocity": 0.1968503937007874,
                    "duration": 0.14634150000000545
                },
                {
                    "name": "G#4",
                    "midi": 68,
                    "time": 238.97566950000282,
                    "velocity": 0.1968503937007874,
                    "duration": 0.14634150000000545
                },
                {
                    "name": "F#4",
                    "midi": 66,
                    "time": 239.12201100000283,
                    "velocity": 0.15748031496062992,
                    "duration": 0.5853659999999934
                },
                {
                    "name": "A#4",
                    "midi": 70,
                    "time": 239.12201100000283,
                    "velocity": 0.15748031496062992,
                    "duration": 0.5853659999999934
                },
                {
                    "name": "C#5",
                    "midi": 73,
                    "time": 239.12201100000283,
                    "velocity": 0.1889763779527559,
                    "duration": 0.5853659999999934
                },
                {
                    "name": "F4",
                    "midi": 65,
                    "time": 239.70737700000282,
                    "velocity": 0.12598425196850394,
                    "duration": 0.2926830000000109
                },
                {
                    "name": "G#4",
                    "midi": 68,
                    "time": 239.70737700000282,
                    "velocity": 0.1732283464566929,
                    "duration": 0.2926830000000109
                },
                {
                    "name": "F4",
                    "midi": 65,
                    "time": 240.00006000000283,
                    "velocity": 0.13385826771653545,
                    "duration": 0.5853659999999934
                },
                {
                    "name": "G#4",
                    "midi": 68,
                    "time": 240.00006000000283,
                    "velocity": 0.16535433070866143,
                    "duration": 0.5853659999999934
                }
            ],
            "controlChanges": {
                "7": [
                    {
                        "number": 7,
                        "time": 0,
                        "value": 0.7874015748031497
                    }
                ],
                "10": [
                    {
                        "number": 10,
                        "time": 0,
                        "value": 0.5039370078740157
                    }
                ],
                "91": [
                    {
                        "number": 91,
                        "time": 0,
                        "value": 1
                    },
                    {
                        "number": 91,
                        "time": 0.8731709500000001,
                        "value": 1
                    },
                    {
                        "number": 91,
                        "time": 72.58538399999973,
                        "value": 1
                    },
                    {
                        "number": 91,
                        "time": 77.26831199999974,
                        "value": 1
                    },
                    {
                        "number": 91,
                        "time": 86.6341679999998,
                        "value": 1
                    },
                    {
                        "number": 91,
                        "time": 91.31709599999981,
                        "value": 1
                    },
                    {
                        "number": 91,
                        "time": 119.41466399999995,
                        "value": 1
                    },
                    {
                        "number": 91,
                        "time": 124.09759199999995,
                        "value": 1
                    },
                    {
                        "number": 91,
                        "time": 152.19516000000027,
                        "value": 1
                    },
                    {
                        "number": 91,
                        "time": 156.87808800000033,
                        "value": 1
                    },
                    {
                        "number": 91,
                        "time": 166.24394400000043,
                        "value": 1
                    },
                    {
                        "number": 91,
                        "time": 237.6585960000028,
                        "value": 1
                    }
                ]
            },
            "id": 1,
            "name": "Piano right",
            "instrumentNumber": 0,
            "instrument": "acoustic grand piano",
            "instrumentFamily": "piano",
            "channelNumber": 0,
            "isPercussion": false
        },
        {
            "startTime": 1.170732,
            "duration": 243.51225600000282,
            "length": 1135,
            "notes": [
                {
                    "name": "C#3",
                    "midi": 49,
                    "time": 1.170732,
                    "velocity": 0.4251968503937008,
                    "duration": 0.14634150000000012
                },
                {
                    "name": "G#3",
                    "midi": 56,
                    "time": 1.4634150000000004,
                    "velocity": 0.3937007874015748,
                    "duration": 0.14634150000000012
                },
                {
                    "name": "C#3",
                    "midi": 49,
                    "time": 1.7560980000000006,
                    "velocity": 0.4251968503937008,
                    "duration": 0.14634150000000012
                },
                {
                    "name": "A3",
                    "midi": 57,
                    "time": 2.048781000000001,
                    "velocity": 0.3937007874015748,
                    "duration": 0.14634150000000012
                },
                {
                    "name": "C3",
                    "midi": 48,
                    "time": 2.341464000000001,
                    "velocity": 0.4251968503937008,
                    "duration": 0.14634150000000012
                },
                {
                    "name": "A3",
                    "midi": 57,
                    "time": 2.6341470000000013,
                    "velocity": 0.4015748031496063,
                    "duration": 0.14634150000000012
                },
                {
                    "name": "C3",
                    "midi": 48,
                    "time": 2.9268300000000016,
                    "velocity": 0.4251968503937008,
                    "duration": 0.14634150000000012
                },
                {
                    "name": "G#3",
                    "midi": 56,
                    "time": 3.219513000000002,
                    "velocity": 0.3937007874015748,
                    "duration": 0.14634150000000012
                },
                {
                    "name": "C#3",
                    "midi": 49,
                    "time": 3.512196000000002,
                    "velocity": 0.4330708661417323,
                    "duration": 0.14634150000000012
                },
                {
                    "name": "G#3",
                    "midi": 56,
                    "time": 3.8048790000000023,
                    "velocity": 0.4015748031496063,
                    "duration": 0.14634150000000012
                },
                {
                    "name": "E3",
                    "midi": 52,
                    "time": 4.097562000000003,
                    "velocity": 0.4330708661417323,
                    "duration": 0.14634150000000012
                },
                {
                    "name": "G#3",
                    "midi": 56,
                    "time": 4.390245000000003,
                    "velocity": 0.4094488188976378,
                    "duration": 0.14634150000000012
                },
                {
                    "name": "D#3",
                    "midi": 51,
                    "time": 4.682928000000003,
                    "velocity": 0.4409448818897638,
                    "duration": 0.14634150000000012
                },
                {
                    "name": "A3",
                    "midi": 57,
                    "time": 4.975611000000003,
                    "velocity": 0.4094488188976378,
                    "duration": 0.14634150000000012
                },
                {
                    "name": "D#3",
                    "midi": 51,
                    "time": 5.268294000000004,
                    "velocity": 0.4330708661417323,
                    "duration": 0.14634150000000012
                },
                {
                    "name": "G#3",
                    "midi": 56,
                    "time": 5.560977000000004,
                    "velocity": 0.4094488188976378,
                    "duration": 0.14634150000000012
                },
                {
                    "name": "C#3",
                    "midi": 49,
                    "time": 5.853660000000004,
                    "velocity": 0.4409448818897638,
                    "duration": 0.14634150000000012
                },
                {
                    "name": "C#4",
                    "midi": 61,
                    "time": 6.146343000000004,
                    "velocity": 0.3937007874015748,
                    "duration": 0.14634150000000012
                },
                {
                    "name": "C#3",
                    "midi": 49,
                    "time": 6.439026000000005,
                    "velocity": 0.4330708661417323,
                    "duration": 0.14634150000000012
                },
                {
                    "name": "B3",
                    "midi": 59,
                    "time": 6.731709000000005,
                    "velocity": 0.4015748031496063,
                    "duration": 0.14634150000000012
                },
                {
                    "name": "F#3",
                    "midi": 54,
                    "time": 7.024392000000005,
                    "velocity": 0.44881889763779526,
                    "duration": 0.14634150000000012
                },
                {
                    "name": "A3",
                    "midi": 57,
                    "time": 7.317075000000005,
                    "velocity": 0.4409448818897638,
                    "duration": 0.14634150000000012
                },
                {
                    "name": "F#3",
                    "midi": 54,
                    "time": 7.609758000000006,
                    "velocity": 0.44881889763779526,
                    "duration": 0.14634150000000012
                },
                {
                    "name": "A3",
                    "midi": 57,
                    "time": 7.902441000000006,
                    "velocity": 0.4251968503937008,
                    "duration": 0.14634149999999924
                },
                {
                    "name": "A2",
                    "midi": 45,
                    "time": 8.195124000000005,
                    "velocity": 0.4566929133858268,
                    "duration": 0.14634150000000012
                },
                {
                    "name": "F#3",
                    "midi": 54,
                    "time": 8.487807000000005,
                    "velocity": 0.4251968503937008,
                    "duration": 0.14634150000000012
                },
                {
                    "name": "G#2",
                    "midi": 44,
                    "time": 8.780490000000006,
                    "velocity": 0.4409448818897638,
                    "duration": 0.14634150000000012
                },
                {
                    "name": "G#3",
                    "midi": 56,
                    "time": 9.073173000000006,
                    "velocity": 0.4251968503937008,
                    "duration": 0.14634150000000012
                },
                {
                    "name": "C#3",
                    "midi": 49,
                    "time": 9.365856000000006,
                    "velocity": 0.4251968503937008,
                    "duration": 0.14634150000000012
                },
                {
                    "name": "D#3",
                    "midi": 51,
                    "time": 9.658539000000006,
                    "velocity": 0.4251968503937008,
                    "duration": 0.14634150000000012
                },
                {
                    "name": "E3",
                    "midi": 52,
                    "time": 9.951222000000007,
                    "velocity": 0.4330708661417323,
                    "duration": 0.14634150000000012
                },
                {
                    "name": "G#3",
                    "midi": 56,
                    "time": 10.243905000000007,
                    "velocity": 0.4409448818897638,
                    "duration": 0.14634150000000012
                },
                {
                    "name": "C#3",
                    "midi": 49,
                    "time": 10.536588000000007,
                    "velocity": 0.4015748031496063,
                    "duration": 0.14634150000000012
                },
                {
                    "name": "G#3",
                    "midi": 56,
                    "time": 10.829271000000007,
                    "velocity": 0.3700787401574803,
                    "duration": 0.14634150000000012
                },
                {
                    "name": "C#3",
                    "midi": 49,
                    "time": 11.121954000000008,
                    "velocity": 0.4015748031496063,
                    "duration": 0.14634150000000012
                },
                {
                    "name": "A3",
                    "midi": 57,
                    "time": 11.414637000000008,
                    "velocity": 0.3700787401574803,
                    "duration": 0.14634150000000012
                },
                {
                    "name": "B2",
                    "midi": 47,
                    "time": 11.707320000000008,
                    "velocity": 0.4015748031496063,
                    "duration": 0.14634150000000012
                },
                {
                    "name": "A3",
                    "midi": 57,
                    "time": 12.000003000000008,
                    "velocity": 0.3779527559055118,
                    "duration": 0.14634150000000012
                },
                {
                    "name": "B2",
                    "midi": 47,
                    "time": 12.292686000000009,
                    "velocity": 0.4015748031496063,
                    "duration": 0.14634150000000012
                },
                {
                    "name": "G#3",
                    "midi": 56,
                    "time": 12.585369000000009,
                    "velocity": 0.3700787401574803,
                    "duration": 0.14634150000000012
                },
                {
                    "name": "E3",
                    "midi": 52,
                    "time": 12.87805200000001,
                    "velocity": 0.4094488188976378,
                    "duration": 0.14634150000000012
                },
                {
                    "name": "G#3",
                    "midi": 56,
                    "time": 13.17073500000001,
                    "velocity": 0.3779527559055118,
                    "duration": 0.14634150000000012
                },
                {
                    "name": "A2",
                    "midi": 45,
                    "time": 13.46341800000001,
                    "velocity": 0.4094488188976378,
                    "duration": 0.14634150000000012
                },
                {
                    "name": "A3",
                    "midi": 57,
                    "time": 13.75610100000001,
                    "velocity": 0.3858267716535433,
                    "duration": 0.14634150000000012
                },
                {
                    "name": "G#2",
                    "midi": 44,
                    "time": 14.04878400000001,
                    "velocity": 0.4015748031496063,
                    "duration": 0.14634150000000012
                },
                {
                    "name": "B3",
                    "midi": 59,
                    "time": 14.34146700000001,
                    "velocity": 0.3858267716535433,
                    "duration": 0.14634150000000012
                },
                {
                    "name": "G#3",
                    "midi": 56,
                    "time": 14.63415000000001,
                    "velocity": 0.4094488188976378,
                    "duration": 0.14634150000000012
                },
                {
                    "name": "B3",
                    "midi": 59,
                    "time": 14.926833000000011,
                    "velocity": 0.3858267716535433,
                    "duration": 0.14634150000000012
                },
                {
                    "name": "C#3",
                    "midi": 49,
                    "time": 15.219516000000011,
                    "velocity": 0.4094488188976378,
                    "duration": 0.14634150000000012
                },
                {
                    "name": "E3",
                    "midi": 52,
                    "time": 15.512199000000011,
                    "velocity": 0.3700787401574803,
                    "duration": 0.14634150000000012
                },
                {
                    "name": "C3",
                    "midi": 48,
                    "time": 15.804882000000012,
                    "velocity": 0.4094488188976378,
                    "duration": 0.14634150000000012
                },
                {
                    "name": "A#3",
                    "midi": 58,
                    "time": 16.09756500000001,
                    "velocity": 0.3464566929133858,
                    "duration": 0.14634149999999835
                },
                {
                    "name": "B2",
                    "midi": 47,
                    "time": 16.390248000000007,
                    "velocity": 0.3779527559055118,
                    "duration": 0.14634149999999835
                },
                {
                    "name": "B3",
                    "midi": 59,
                    "time": 16.682931000000004,
                    "velocity": 0.3543307086614173,
                    "duration": 0.14634149999999835
                },
                {
                    "name": "C3",
                    "midi": 48,
                    "time": 16.975614,
                    "velocity": 0.3779527559055118,
                    "duration": 0.14634149999999835
                },
                {
                    "name": "F#3",
                    "midi": 54,
                    "time": 17.268296999999997,
                    "velocity": 0.33858267716535434,
                    "duration": 0.14634149999999835
                },
                {
                    "name": "C#3",
                    "midi": 49,
                    "time": 17.560979999999994,
                    "velocity": 0.3543307086614173,
                    "duration": 0.14634149999999835
                },
                {
                    "name": "E3",
                    "midi": 52,
                    "time": 17.85366299999999,
                    "velocity": 0.30708661417322836,
                    "duration": 0.14634149999999835
                },
                {
                    "name": "A2",
                    "midi": 45,
                    "time": 18.146345999999987,
                    "velocity": 0.36220472440944884,
                    "duration": 0.14634149999999835
                },
                {
                    "name": "F#3",
                    "midi": 54,
                    "time": 18.439028999999984,
                    "velocity": 0.31496062992125984,
                    "duration": 0.14634149999999835
                },
                {
                    "name": "B2",
                    "midi": 47,
                    "time": 18.73171199999998,
                    "velocity": 0.36220472440944884,
                    "duration": 0.14634149999999835
                },
                {
                    "name": "G#3",
                    "midi": 56,
                    "time": 19.024394999999977,
                    "velocity": 0.33858267716535434,
                    "duration": 0.14634149999999835
                },
                {
                    "name": "B2",
                    "midi": 47,
                    "time": 19.317077999999974,
                    "velocity": 0.3543307086614173,
                    "duration": 0.14634149999999835
                },
                {
                    "name": "A3",
                    "midi": 57,
                    "time": 19.60976099999997,
                    "velocity": 0.3228346456692913,
                    "duration": 0.14634149999999835
                },
                {
                    "name": "B2",
                    "midi": 47,
                    "time": 19.902443999999967,
                    "velocity": 0.36220472440944884,
                    "duration": 0.14634149999999835
                },
                {
                    "name": "F#3",
                    "midi": 54,
                    "time": 20.195126999999964,
                    "velocity": 0.30708661417322836,
                    "duration": 0.14634149999999835
                },
                {
                    "name": "E3",
                    "midi": 52,
                    "time": 20.48780999999996,
                    "velocity": 0.3700787401574803,
                    "duration": 0.14634149999999835
                },
                {
                    "name": "F#3",
                    "midi": 54,
                    "time": 20.780492999999957,
                    "velocity": 0.3228346456692913,
                    "duration": 0.14634149999999835
                },
                {
                    "name": "G#3",
                    "midi": 56,
                    "time": 21.073175999999954,
                    "velocity": 0.3543307086614173,
                    "duration": 0.14634149999999835
                },
                {
                    "name": "B3",
                    "midi": 59,
                    "time": 21.36585899999995,
                    "velocity": 0.28346456692913385,
                    "duration": 0.14634149999999835
                },
                {
                    "name": "G#3",
                    "midi": 56,
                    "time": 21.658541999999947,
                    "velocity": 0.2677165354330709,
                    "duration": 0.14634149999999835
                },
                {
                    "name": "E4",
                    "midi": 64,
                    "time": 21.951224999999944,
                    "velocity": 0.2440944881889764,
                    "duration": 0.14634149999999835
                },
                {
                    "name": "A3",
                    "midi": 57,
                    "time": 22.24390799999994,
                    "velocity": 0.3543307086614173,
                    "duration": 0.14634149999999835
                },
                {
                    "name": "A2",
                    "midi": 45,
                    "time": 22.536590999999937,
                    "velocity": 0.31496062992125984,
                    "duration": 0.14634149999999835
                },
                {
                    "name": "B2",
                    "midi": 47,
                    "time": 22.829273999999934,
                    "velocity": 0.3228346456692913,
                    "duration": 0.14634149999999835
                },
                {
                    "name": "C#3",
                    "midi": 49,
                    "time": 23.12195699999993,
                    "velocity": 0.33070866141732286,
                    "duration": 0.14634149999999835
                },
                {
                    "name": "B2",
                    "midi": 47,
                    "time": 23.414639999999928,
                    "velocity": 0.3543307086614173,
                    "duration": 0.14634149999999835
                },
                {
                    "name": "E3",
                    "midi": 52,
                    "time": 23.707322999999924,
                    "velocity": 0.30708661417322836,
                    "duration": 0.14634149999999835
                },
                {
                    "name": "B2",
                    "midi": 47,
                    "time": 24.00000599999992,
                    "velocity": 0.33858267716535434,
                    "duration": 0.14634149999999835
                },
                {
                    "name": "G3",
                    "midi": 55,
                    "time": 24.292688999999918,
                    "velocity": 0.3228346456692913,
                    "duration": 0.14634149999999835
                },
                {
                    "name": "B2",
                    "midi": 47,
                    "time": 24.585371999999914,
                    "velocity": 0.3228346456692913,
                    "duration": 0.14634149999999835
                },
                {
                    "name": "E3",
                    "midi": 52,
                    "time": 24.87805499999991,
                    "velocity": 0.30708661417322836,
                    "duration": 0.14634149999999835
                },
                {
                    "name": "B2",
                    "midi": 47,
                    "time": 25.170737999999908,
                    "velocity": 0.3228346456692913,
                    "duration": 0.14634149999999835
                },
                {
                    "name": "D#3",
                    "midi": 51,
                    "time": 25.463420999999904,
                    "velocity": 0.29133858267716534,
                    "duration": 0.14634149999999835
                },
                {
                    "name": "E3",
                    "midi": 52,
                    "time": 25.7561039999999,
                    "velocity": 0.3779527559055118,
                    "duration": 0.29268300000000025
                },
                {
                    "name": "B2",
                    "midi": 47,
                    "time": 26.3414699999999,
                    "velocity": 0.3779527559055118,
                    "duration": 0.1463415000000019
                },
                {
                    "name": "E2",
                    "midi": 40,
                    "time": 26.487811499999903,
                    "velocity": 0.3464566929133858,
                    "duration": 0.14634149999999835
                },
                {
                    "name": "B2",
                    "midi": 47,
                    "time": 26.634152999999902,
                    "velocity": 0.3464566929133858,
                    "duration": 0.14634149999999835
                },
                {
                    "name": "E3",
                    "midi": 52,
                    "time": 26.7804944999999,
                    "velocity": 0.3543307086614173,
                    "duration": 0.14634149999999835
                },
                {
                    "name": "B2",
                    "midi": 47,
                    "time": 27.5122019999999,
                    "velocity": 0.3779527559055118,
                    "duration": 0.1463415000000019
                },
                {
                    "name": "E2",
                    "midi": 40,
                    "time": 27.6585434999999,
                    "velocity": 0.3464566929133858,
                    "duration": 0.14634149999999835
                },
                {
                    "name": "B2",
                    "midi": 47,
                    "time": 27.8048849999999,
                    "velocity": 0.3464566929133858,
                    "duration": 0.14634149999999835
                },
                {
                    "name": "F#3",
                    "midi": 54,
                    "time": 27.951226499999898,
                    "velocity": 0.3464566929133858,
                    "duration": 0.14634149999999835
                },
                {
                    "name": "E3",
                    "midi": 52,
                    "time": 28.682933999999896,
                    "velocity": 0.36220472440944884,
                    "duration": 0.14634149999999835
                },
                {
                    "name": "G#3",
                    "midi": 56,
                    "time": 28.829275499999895,
                    "velocity": 0.3700787401574803,
                    "duration": 0.14634149999999835
                },
                {
                    "name": "B3",
                    "midi": 59,
                    "time": 28.975616999999893,
                    "velocity": 0.4094488188976378,
                    "duration": 0.14634149999999835
                },
                {
                    "name": "E4",
                    "midi": 64,
                    "time": 29.12195849999989,
                    "velocity": 0.4409448818897638,
                    "duration": 0.14634149999999835
                },
                {
                    "name": "E4",
                    "midi": 64,
                    "time": 29.26829999999989,
                    "velocity": 0.4566929133858268,
                    "duration": 0.29268300000000025
                },
                {
                    "name": "C#4",
                    "midi": 61,
                    "time": 29.56098299999989,
                    "velocity": 0.4330708661417323,
                    "duration": 0.29268300000000025
                },
                {
                    "name": "C4",
                    "midi": 60,
                    "time": 29.85366599999989,
                    "velocity": 0.4094488188976378,
                    "duration": 0.29268300000000025
                },
                {
                    "name": "B3",
                    "midi": 59,
                    "time": 30.14634899999989,
                    "velocity": 0.3858267716535433,
                    "duration": 0.29268300000000025
                },
                {
                    "name": "A3",
                    "midi": 57,
                    "time": 30.43903199999989,
                    "velocity": 0.36220472440944884,
                    "duration": 0.29268300000000025
                },
                {
                    "name": "E3",
                    "midi": 52,
                    "time": 31.02439799999989,
                    "velocity": 0.3779527559055118,
                    "duration": 0.14634149999999835
                },
                {
                    "name": "A2",
                    "midi": 45,
                    "time": 31.17073949999989,
                    "velocity": 0.3464566929133858,
                    "duration": 0.14634149999999835
                },
                {
                    "name": "E3",
                    "midi": 52,
                    "time": 31.317080999999888,
                    "velocity": 0.3464566929133858,
                    "duration": 0.14634149999999835
                },
                {
                    "name": "A3",
                    "midi": 57,
                    "time": 31.463422499999886,
                    "velocity": 0.3464566929133858,
                    "duration": 0.14634149999999835
                },
                {
                    "name": "E3",
                    "midi": 52,
                    "time": 32.195129999999885,
                    "velocity": 0.3779527559055118,
                    "duration": 0.14634149999999835
                },
                {
                    "name": "A2",
                    "midi": 45,
                    "time": 32.341471499999884,
                    "velocity": 0.3228346456692913,
                    "duration": 0.14634149999999835
                },
                {
                    "name": "E3",
                    "midi": 52,
                    "time": 32.48781299999988,
                    "velocity": 0.3228346456692913,
                    "duration": 0.14634149999999835
                },
                {
                    "name": "B3",
                    "midi": 59,
                    "time": 32.63415449999988,
                    "velocity": 0.3228346456692913,
                    "duration": 0.14634149999999835
                },
                {
                    "name": "A3",
                    "midi": 57,
                    "time": 33.36586199999988,
                    "velocity": 0.3464566929133858,
                    "duration": 0.14634149999999835
                },
                {
                    "name": "C#4",
                    "midi": 61,
                    "time": 33.51220349999988,
                    "velocity": 0.3858267716535433,
                    "duration": 0.14634149999999835
                },
                {
                    "name": "E4",
                    "midi": 64,
                    "time": 33.658544999999876,
                    "velocity": 0.4251968503937008,
                    "duration": 0.14634149999999835
                },
                {
                    "name": "A4",
                    "midi": 69,
                    "time": 33.804886499999874,
                    "velocity": 0.4645669291338583,
                    "duration": 0.14634149999999835
                },
                {
                    "name": "A4",
                    "midi": 69,
                    "time": 33.95122799999987,
                    "velocity": 0.4881889763779528,
                    "duration": 0.2926829999999967
                },
                {
                    "name": "F#4",
                    "midi": 66,
                    "time": 34.24391099999987,
                    "velocity": 0.4015748031496063,
                    "duration": 0.2926829999999967
                },
                {
                    "name": "B4",
                    "midi": 71,
                    "time": 34.536593999999866,
                    "velocity": 0.4015748031496063,
                    "duration": 0.2926829999999967
                },
                {
                    "name": "A4",
                    "midi": 69,
                    "time": 34.82927699999986,
                    "velocity": 0.4015748031496063,
                    "duration": 0.2926829999999967
                },
                {
                    "name": "B3",
                    "midi": 59,
                    "time": 34.82927699999986,
                    "velocity": 0.4015748031496063,
                    "duration": 0.2926829999999967
                },
                {
                    "name": "F#3",
                    "midi": 54,
                    "time": 35.414642999999856,
                    "velocity": 0.4881889763779528,
                    "duration": 0.2926829999999967
                },
                {
                    "name": "G#3",
                    "midi": 56,
                    "time": 35.414642999999856,
                    "velocity": 0.4881889763779528,
                    "duration": 0.8780489999999901
                },
                {
                    "name": "E3",
                    "midi": 52,
                    "time": 35.70732599999985,
                    "velocity": 0.5590551181102362,
                    "duration": 0.2926829999999967
                },
                {
                    "name": "D#3",
                    "midi": 51,
                    "time": 36.00000899999985,
                    "velocity": 0.6141732283464567,
                    "duration": 0.2926829999999967
                },
                {
                    "name": "C#3",
                    "midi": 49,
                    "time": 36.292691999999846,
                    "velocity": 0.6692913385826772,
                    "duration": 0.14634149999999835
                },
                {
                    "name": "C3",
                    "midi": 48,
                    "time": 36.58537499999984,
                    "velocity": 0.6062992125984252,
                    "duration": 0.14634149999999835
                },
                {
                    "name": "C#3",
                    "midi": 49,
                    "time": 36.87805799999984,
                    "velocity": 0.5984251968503937,
                    "duration": 0.14634149999999835
                },
                {
                    "name": "E3",
                    "midi": 52,
                    "time": 37.170740999999836,
                    "velocity": 0.5984251968503937,
                    "duration": 0.14634149999999835
                },
                {
                    "name": "C3",
                    "midi": 48,
                    "time": 37.46342399999983,
                    "velocity": 0.6456692913385826,
                    "duration": 0.14634149999999835
                },
                {
                    "name": "D#3",
                    "midi": 51,
                    "time": 37.75610699999983,
                    "velocity": 0.5984251968503937,
                    "duration": 0.14634149999999835
                },
                {
                    "name": "G#3",
                    "midi": 56,
                    "time": 38.048789999999826,
                    "velocity": 0.5984251968503937,
                    "duration": 0.14634149999999835
                },
                {
                    "name": "C3",
                    "midi": 48,
                    "time": 38.34147299999982,
                    "velocity": 0.5984251968503937,
                    "duration": 0.14634149999999835
                },
                {
                    "name": "C#3",
                    "midi": 49,
                    "time": 38.63415599999982,
                    "velocity": 0.6299212598425197,
                    "duration": 0.14634149999999835
                },
                {
                    "name": "D#3",
                    "midi": 51,
                    "time": 38.926838999999816,
                    "velocity": 0.5984251968503937,
                    "duration": 0.14634149999999835
                },
                {
                    "name": "E3",
                    "midi": 52,
                    "time": 39.21952199999981,
                    "velocity": 0.5984251968503937,
                    "duration": 0.14634149999999835
                },
                {
                    "name": "C#3",
                    "midi": 49,
                    "time": 39.51220499999981,
                    "velocity": 0.5984251968503937,
                    "duration": 0.14634149999999835
                },
                {
                    "name": "D#3",
                    "midi": 51,
                    "time": 39.804887999999806,
                    "velocity": 0.5984251968503937,
                    "duration": 0.14634149999999835
                },
                {
                    "name": "A3",
                    "midi": 57,
                    "time": 40.0975709999998,
                    "velocity": 0.6535433070866141,
                    "duration": 0.14634149999999835
                },
                {
                    "name": "G#3",
                    "midi": 56,
                    "time": 40.3902539999998,
                    "velocity": 0.6377952755905512,
                    "duration": 0.14634149999999835
                },
                {
                    "name": "F#3",
                    "midi": 54,
                    "time": 40.6829369999998,
                    "velocity": 0.5984251968503937,
                    "duration": 0.14634149999999835
                },
                {
                    "name": "E3",
                    "midi": 52,
                    "time": 40.97561999999979,
                    "velocity": 0.5826771653543307,
                    "duration": 0.14634149999999835
                },
                {
                    "name": "D#3",
                    "midi": 51,
                    "time": 41.26830299999979,
                    "velocity": 0.5984251968503937,
                    "duration": 0.14634149999999835
                },
                {
                    "name": "C#3",
                    "midi": 49,
                    "time": 41.56098599999979,
                    "velocity": 0.6220472440944882,
                    "duration": 0.14634149999999835
                },
                {
                    "name": "B2",
                    "midi": 47,
                    "time": 41.85366899999978,
                    "velocity": 0.6299212598425197,
                    "duration": 0.14634149999999835
                },
                {
                    "name": "A2",
                    "midi": 45,
                    "time": 42.14635199999978,
                    "velocity": 0.6614173228346457,
                    "duration": 0.14634149999999835
                },
                {
                    "name": "F#2",
                    "midi": 42,
                    "time": 42.43903499999978,
                    "velocity": 0.6141732283464567,
                    "duration": 0.07317075000000273
                },
                {
                    "name": "G#2",
                    "midi": 44,
                    "time": 42.58537649999978,
                    "velocity": 0.6141732283464567,
                    "duration": 0.07317075000000273
                },
                {
                    "name": "A2",
                    "midi": 45,
                    "time": 42.73171799999979,
                    "velocity": 0.6535433070866141,
                    "duration": 0.14634149999999835
                },
                {
                    "name": "F#2",
                    "midi": 42,
                    "time": 43.024400999999784,
                    "velocity": 0.6220472440944882,
                    "duration": 0.14634149999999835
                },
                {
                    "name": "G#2",
                    "midi": 44,
                    "time": 43.31708399999978,
                    "velocity": 0.6692913385826772,
                    "duration": 0.14634149999999835
                },
                {
                    "name": "F#2",
                    "midi": 42,
                    "time": 43.60976699999978,
                    "velocity": 0.6299212598425197,
                    "duration": 0.07317075000000273
                },
                {
                    "name": "E2",
                    "midi": 40,
                    "time": 43.75610849999978,
                    "velocity": 0.6299212598425197,
                    "duration": 0.07317075000000273
                },
                {
                    "name": "D#2",
                    "midi": 39,
                    "time": 43.90244999999979,
                    "velocity": 0.6692913385826772,
                    "duration": 0.14634149999999835
                },
                {
                    "name": "G#2",
                    "midi": 44,
                    "time": 44.195132999999785,
                    "velocity": 0.6299212598425197,
                    "duration": 0.14634149999999835
                },
                {
                    "name": "C#2",
                    "midi": 37,
                    "time": 44.48781599999978,
                    "velocity": 0.6929133858267716,
                    "duration": 0.14634149999999835
                },
                {
                    "name": "G#2",
                    "midi": 44,
                    "time": 44.78049899999978,
                    "velocity": 0.5511811023622047,
                    "duration": 0.2926829999999967
                },
                {
                    "name": "A#2",
                    "midi": 46,
                    "time": 45.073181999999775,
                    "velocity": 0.4566929133858268,
                    "duration": 0.2926829999999967
                },
                {
                    "name": "C3",
                    "midi": 48,
                    "time": 45.36586499999977,
                    "velocity": 0.3779527559055118,
                    "duration": 0.2926829999999967
                },
                {
                    "name": "C#3",
                    "midi": 49,
                    "time": 45.65854799999977,
                    "velocity": 0.31496062992125984,
                    "duration": 0.2926829999999967
                },
                {
                    "name": "E3",
                    "midi": 52,
                    "time": 45.951230999999765,
                    "velocity": 0.29133858267716534,
                    "duration": 0.2926829999999967
                },
                {
                    "name": "D#3",
                    "midi": 51,
                    "time": 46.24391399999976,
                    "velocity": 0.2992125984251969,
                    "duration": 0.2926829999999967
                },
                {
                    "name": "C#3",
                    "midi": 49,
                    "time": 46.53659699999976,
                    "velocity": 0.29133858267716534,
                    "duration": 0.2926829999999967
                },
                {
                    "name": "B2",
                    "midi": 47,
                    "time": 46.829279999999756,
                    "velocity": 0.31496062992125984,
                    "duration": 0.2926829999999967
                },
                {
                    "name": "D#3",
                    "midi": 51,
                    "time": 47.12196299999975,
                    "velocity": 0.2992125984251969,
                    "duration": 0.2926829999999967
                },
                {
                    "name": "G#3",
                    "midi": 56,
                    "time": 47.41464599999975,
                    "velocity": 0.31496062992125984,
                    "duration": 0.2926829999999967
                },
                {
                    "name": "B2",
                    "midi": 47,
                    "time": 47.707328999999746,
                    "velocity": 0.29133858267716534,
                    "duration": 0.2926829999999967
                },
                {
                    "name": "A2",
                    "midi": 45,
                    "time": 48.00001199999974,
                    "velocity": 0.3228346456692913,
                    "duration": 0.2926829999999967
                },
                {
                    "name": "C#3",
                    "midi": 49,
                    "time": 48.29269499999974,
                    "velocity": 0.2992125984251969,
                    "duration": 0.2926829999999967
                },
                {
                    "name": "B2",
                    "midi": 47,
                    "time": 48.585377999999736,
                    "velocity": 0.2992125984251969,
                    "duration": 0.2926829999999967
                },
                {
                    "name": "A2",
                    "midi": 45,
                    "time": 48.87806099999973,
                    "velocity": 0.30708661417322836,
                    "duration": 0.2926829999999967
                },
                {
                    "name": "G#2",
                    "midi": 44,
                    "time": 49.17074399999973,
                    "velocity": 0.31496062992125984,
                    "duration": 0.2926829999999967
                },
                {
                    "name": "B2",
                    "midi": 47,
                    "time": 49.463426999999726,
                    "velocity": 0.30708661417322836,
                    "duration": 0.2926829999999967
                },
                {
                    "name": "E3",
                    "midi": 52,
                    "time": 49.75610999999972,
                    "velocity": 0.3228346456692913,
                    "duration": 0.2926829999999967
                },
                {
                    "name": "G#2",
                    "midi": 44,
                    "time": 50.04879299999972,
                    "velocity": 0.30708661417322836,
                    "duration": 0.2926829999999967
                },
                {
                    "name": "E2",
                    "midi": 40,
                    "time": 50.341475999999716,
                    "velocity": 0.3228346456692913,
                    "duration": 0.2926829999999967
                },
                {
                    "name": "E3",
                    "midi": 52,
                    "time": 50.63415899999971,
                    "velocity": 0.29133858267716534,
                    "duration": 0.14634149999999835
                },
                {
                    "name": "D#3",
                    "midi": 51,
                    "time": 50.78050049999971,
                    "velocity": 0.29133858267716534,
                    "duration": 0.14634149999999835
                },
                {
                    "name": "C#3",
                    "midi": 49,
                    "time": 50.92684199999971,
                    "velocity": 0.28346456692913385,
                    "duration": 0.2926829999999967
                },
                {
                    "name": "C3",
                    "midi": 48,
                    "time": 51.219524999999706,
                    "velocity": 0.2992125984251969,
                    "duration": 0.2926829999999967
                },
                {
                    "name": "B2",
                    "midi": 47,
                    "time": 51.5122079999997,
                    "velocity": 0.33858267716535434,
                    "duration": 0.2926829999999967
                },
                {
                    "name": "F#3",
                    "midi": 54,
                    "time": 51.8048909999997,
                    "velocity": 0.30708661417322836,
                    "duration": 0.2926829999999967
                },
                {
                    "name": "B3",
                    "midi": 59,
                    "time": 52.097573999999696,
                    "velocity": 0.3700787401574803,
                    "duration": 0.2926829999999967
                },
                {
                    "name": "B2",
                    "midi": 47,
                    "time": 52.39025699999969,
                    "velocity": 0.2677165354330709,
                    "duration": 0.2926829999999967
                },
                {
                    "name": "C3",
                    "midi": 48,
                    "time": 52.68293999999969,
                    "velocity": 0.28346456692913385,
                    "duration": 0.2926829999999967
                },
                {
                    "name": "C#3",
                    "midi": 49,
                    "time": 52.975622999999686,
                    "velocity": 0.2440944881889764,
                    "duration": 0.2926829999999967
                },
                {
                    "name": "G#2",
                    "midi": 44,
                    "time": 53.26830599999968,
                    "velocity": 0.28346456692913385,
                    "duration": 0.2926829999999967
                },
                {
                    "name": "A2",
                    "midi": 45,
                    "time": 53.56098899999968,
                    "velocity": 0.25196850393700787,
                    "duration": 0.2926829999999967
                },
                {
                    "name": "B2",
                    "midi": 47,
                    "time": 53.853671999999676,
                    "velocity": 0.28346456692913385,
                    "duration": 0.2926829999999967
                },
                {
                    "name": "G#3",
                    "midi": 56,
                    "time": 54.14635499999967,
                    "velocity": 0.2677165354330709,
                    "duration": 0.2926829999999967
                },
                {
                    "name": "B2",
                    "midi": 47,
                    "time": 54.43903799999967,
                    "velocity": 0.28346456692913385,
                    "duration": 0.2926829999999967
                },
                {
                    "name": "A3",
                    "midi": 57,
                    "time": 54.731720999999666,
                    "velocity": 0.25196850393700787,
                    "duration": 0.2926829999999967
                },
                {
                    "name": "B2",
                    "midi": 47,
                    "time": 55.02440399999966,
                    "velocity": 0.28346456692913385,
                    "duration": 0.2926829999999967
                },
                {
                    "name": "F#3",
                    "midi": 54,
                    "time": 55.31708699999966,
                    "velocity": 0.2440944881889764,
                    "duration": 0.2926829999999967
                },
                {
                    "name": "E3",
                    "midi": 52,
                    "time": 55.609769999999656,
                    "velocity": 0.29133858267716534,
                    "duration": 0.2926829999999967
                },
                {
                    "name": "C#3",
                    "midi": 49,
                    "time": 55.90245299999965,
                    "velocity": 0.25196850393700787,
                    "duration": 0.14634149999999835
                },
                {
                    "name": "D#3",
                    "midi": 51,
                    "time": 56.04879449999965,
                    "velocity": 0.25196850393700787,
                    "duration": 0.14634149999999835
                },
                {
                    "name": "E3",
                    "midi": 52,
                    "time": 56.19513599999965,
                    "velocity": 0.28346456692913385,
                    "duration": 0.2926829999999967
                },
                {
                    "name": "G#3",
                    "midi": 56,
                    "time": 56.48781899999965,
                    "velocity": 0.25984251968503935,
                    "duration": 0.2926829999999967
                },
                {
                    "name": "F3",
                    "midi": 53,
                    "time": 56.78050199999964,
                    "velocity": 0.28346456692913385,
                    "duration": 0.2926829999999967
                },
                {
                    "name": "C#4",
                    "midi": 61,
                    "time": 57.07318499999964,
                    "velocity": 0.25984251968503935,
                    "duration": 0.2926829999999967
                },
                {
                    "name": "F#3",
                    "midi": 54,
                    "time": 57.36586799999964,
                    "velocity": 0.28346456692913385,
                    "duration": 0.2926829999999967
                },
                {
                    "name": "F#2",
                    "midi": 42,
                    "time": 57.65855099999963,
                    "velocity": 0.25196850393700787,
                    "duration": 0.2926829999999967
                },
                {
                    "name": "G#2",
                    "midi": 44,
                    "time": 57.95123399999963,
                    "velocity": 0.25196850393700787,
                    "duration": 0.2926829999999967
                },
                {
                    "name": "A2",
                    "midi": 45,
                    "time": 58.24391699999963,
                    "velocity": 0.25984251968503935,
                    "duration": 0.2926829999999967
                },
                {
                    "name": "G#2",
                    "midi": 44,
                    "time": 58.53659999999962,
                    "velocity": 0.28346456692913385,
                    "duration": 0.2926829999999967
                },
                {
                    "name": "C#3",
                    "midi": 49,
                    "time": 58.82928299999962,
                    "velocity": 0.2440944881889764,
                    "duration": 0.2926829999999967
                },
                {
                    "name": "G#2",
                    "midi": 44,
                    "time": 59.12196599999962,
                    "velocity": 0.2677165354330709,
                    "duration": 0.2926829999999967
                },
                {
                    "name": "E3",
                    "midi": 52,
                    "time": 59.41464899999961,
                    "velocity": 0.25196850393700787,
                    "duration": 0.2926829999999967
                },
                {
                    "name": "G#2",
                    "midi": 44,
                    "time": 59.70733199999961,
                    "velocity": 0.25196850393700787,
                    "duration": 0.2926829999999967
                },
                {
                    "name": "C#3",
                    "midi": 49,
                    "time": 60.00001499999961,
                    "velocity": 0.2440944881889764,
                    "duration": 0.2926829999999967
                },
                {
                    "name": "G#2",
                    "midi": 44,
                    "time": 60.292697999999604,
                    "velocity": 0.25196850393700787,
                    "duration": 0.2926829999999967
                },
                {
                    "name": "C3",
                    "midi": 48,
                    "time": 60.5853809999996,
                    "velocity": 0.2283464566929134,
                    "duration": 0.2926829999999967
                },
                {
                    "name": "C#3",
                    "midi": 49,
                    "time": 60.8780639999996,
                    "velocity": 0.2992125984251969,
                    "duration": 0.2926829999999967
                },
                {
                    "name": "G#2",
                    "midi": 44,
                    "time": 61.46342999999959,
                    "velocity": 0.2992125984251969,
                    "duration": 0.14634149999999124
                },
                {
                    "name": "C#2",
                    "midi": 37,
                    "time": 61.60977149999958,
                    "velocity": 0.2755905511811024,
                    "duration": 0.14634149999999835
                },
                {
                    "name": "G#2",
                    "midi": 44,
                    "time": 61.75611299999958,
                    "velocity": 0.2755905511811024,
                    "duration": 0.14634149999999835
                },
                {
                    "name": "C#3",
                    "midi": 49,
                    "time": 61.90245449999958,
                    "velocity": 0.28346456692913385,
                    "duration": 0.14634149999999835
                },
                {
                    "name": "A2",
                    "midi": 45,
                    "time": 62.04879599999958,
                    "velocity": 0.2992125984251969,
                    "duration": 0.2926829999999967
                },
                {
                    "name": "E2",
                    "midi": 40,
                    "time": 62.63416199999957,
                    "velocity": 0.2992125984251969,
                    "duration": 0.14634149999999835
                },
                {
                    "name": "A1",
                    "midi": 33,
                    "time": 62.78050349999957,
                    "velocity": 0.2755905511811024,
                    "duration": 0.14634149999999835
                },
                {
                    "name": "E2",
                    "midi": 40,
                    "time": 62.92684499999957,
                    "velocity": 0.2755905511811024,
                    "duration": 0.14634149999999835
                },
                {
                    "name": "A2",
                    "midi": 45,
                    "time": 63.073186499999565,
                    "velocity": 0.2755905511811024,
                    "duration": 0.14634149999999835
                },
                {
                    "name": "F#2",
                    "midi": 42,
                    "time": 63.21952799999956,
                    "velocity": 0.2992125984251969,
                    "duration": 0.2926829999999967
                },
                {
                    "name": "D3",
                    "midi": 50,
                    "time": 63.80489399999956,
                    "velocity": 0.28346456692913385,
                    "duration": 0.14634150000000545
                },
                {
                    "name": "F#3",
                    "midi": 54,
                    "time": 63.95123549999956,
                    "velocity": 0.29133858267716534,
                    "duration": 0.14634149999999835
                },
                {
                    "name": "A3",
                    "midi": 57,
                    "time": 64.09757699999956,
                    "velocity": 0.3228346456692913,
                    "duration": 0.14634150000000545
                },
                {
                    "name": "D4",
                    "midi": 62,
                    "time": 64.24391849999957,
                    "velocity": 0.3464566929133858,
                    "duration": 0.14634150000000545
                },
                {
                    "name": "F#4",
                    "midi": 66,
                    "time": 64.39025999999957,
                    "velocity": 0.36220472440944884,
                    "duration": 0.2926829999999967
                },
                {
                    "name": "F#3",
                    "midi": 54,
                    "time": 64.68294299999957,
                    "velocity": 0.3464566929133858,
                    "duration": 0.2926829999999967
                },
                {
                    "name": "D4",
                    "midi": 62,
                    "time": 64.68294299999957,
                    "velocity": 0.3464566929133858,
                    "duration": 0.2926829999999967
                },
                {
                    "name": "G#3",
                    "midi": 56,
                    "time": 64.97562599999956,
                    "velocity": 0.3228346456692913,
                    "duration": 0.2926829999999967
                },
                {
                    "name": "E4",
                    "midi": 64,
                    "time": 64.97562599999956,
                    "velocity": 0.3228346456692913,
                    "duration": 0.2926829999999967
                },
                {
                    "name": "G#3",
                    "midi": 56,
                    "time": 65.26830899999956,
                    "velocity": 0.30708661417322836,
                    "duration": 0.2926829999999967
                },
                {
                    "name": "F#4",
                    "midi": 66,
                    "time": 65.26830899999956,
                    "velocity": 0.30708661417322836,
                    "duration": 0.2926829999999967
                },
                {
                    "name": "E4",
                    "midi": 64,
                    "time": 65.56099199999956,
                    "velocity": 0.28346456692913385,
                    "duration": 0.14024393750000286
                },
                {
                    "name": "C#4",
                    "midi": 61,
                    "time": 65.56099199999956,
                    "velocity": 0.28346456692913385,
                    "duration": 0.2926829999999967
                },
                {
                    "name": "G#3",
                    "midi": 56,
                    "time": 66.14635799999955,
                    "velocity": 0.2992125984251969,
                    "duration": 0.14634150000000545
                },
                {
                    "name": "C#3",
                    "midi": 49,
                    "time": 66.29269949999956,
                    "velocity": 0.2755905511811024,
                    "duration": 0.14634150000000545
                },
                {
                    "name": "G#3",
                    "midi": 56,
                    "time": 66.43904099999956,
                    "velocity": 0.2755905511811024,
                    "duration": 0.14634150000000545
                },
                {
                    "name": "C#4",
                    "midi": 61,
                    "time": 66.58538249999957,
                    "velocity": 0.2755905511811024,
                    "duration": 0.14634150000000545
                },
                {
                    "name": "A3",
                    "midi": 57,
                    "time": 66.73172399999957,
                    "velocity": 0.28346456692913385,
                    "duration": 0.2926829999999967
                },
                {
                    "name": "E3",
                    "midi": 52,
                    "time": 67.31708999999957,
                    "velocity": 0.2992125984251969,
                    "duration": 0.14634150000000545
                },
                {
                    "name": "A2",
                    "midi": 45,
                    "time": 67.46343149999957,
                    "velocity": 0.25196850393700787,
                    "duration": 0.14634150000000545
                },
                {
                    "name": "E3",
                    "midi": 52,
                    "time": 67.60977299999958,
                    "velocity": 0.25196850393700787,
                    "duration": 0.14634150000000545
                },
                {
                    "name": "A3",
                    "midi": 57,
                    "time": 67.75611449999958,
                    "velocity": 0.25196850393700787,
                    "duration": 0.14634150000000545
                },
                {
                    "name": "F#3",
                    "midi": 54,
                    "time": 67.90245599999959,
                    "velocity": 0.2992125984251969,
                    "duration": 0.2926830000000109
                },
                {
                    "name": "A3",
                    "midi": 57,
                    "time": 68.1951389999996,
                    "velocity": 0.3228346456692913,
                    "duration": 0.14634150000000545
                },
                {
                    "name": "D4",
                    "midi": 62,
                    "time": 68.3414804999996,
                    "velocity": 0.3700787401574803,
                    "duration": 0.14634150000000545
                },
                {
                    "name": "F#4",
                    "midi": 66,
                    "time": 68.48782199999961,
                    "velocity": 0.41732283464566927,
                    "duration": 0.14634150000000545
                },
                {
                    "name": "D4",
                    "midi": 62,
                    "time": 68.63416349999962,
                    "velocity": 0.3937007874015748,
                    "duration": 0.14634150000000545
                },
                {
                    "name": "A3",
                    "midi": 57,
                    "time": 68.78050499999962,
                    "velocity": 0.3779527559055118,
                    "duration": 0.14634150000000545
                },
                {
                    "name": "F#3",
                    "midi": 54,
                    "time": 68.92684649999963,
                    "velocity": 0.36220472440944884,
                    "duration": 0.14634150000000545
                },
                {
                    "name": "G#3",
                    "midi": 56,
                    "time": 69.07318799999963,
                    "velocity": 0.3464566929133858,
                    "duration": 0.2926829999999967
                },
                {
                    "name": "G#3",
                    "midi": 56,
                    "time": 69.36587099999963,
                    "velocity": 0.31496062992125984,
                    "duration": 0.2926829999999967
                },
                {
                    "name": "G#3",
                    "midi": 56,
                    "time": 69.65855399999963,
                    "velocity": 0.31496062992125984,
                    "duration": 0.2926829999999967
                },
                {
                    "name": "G#3",
                    "midi": 56,
                    "time": 69.95123699999962,
                    "velocity": 0.31496062992125984,
                    "duration": 0.2926830000000109
                },
                {
                    "name": "G#3",
                    "midi": 56,
                    "time": 70.24391999999963,
                    "velocity": 0.30708661417322836,
                    "duration": 0.2926829999999967
                },
                {
                    "name": "G#2",
                    "midi": 44,
                    "time": 70.53660299999963,
                    "velocity": 0.29133858267716534,
                    "duration": 0.2926830000000109
                },
                {
                    "name": "G#2",
                    "midi": 44,
                    "time": 70.82928599999964,
                    "velocity": 0.25196850393700787,
                    "duration": 0.2926829999999967
                },
                {
                    "name": "G#2",
                    "midi": 44,
                    "time": 71.12196899999964,
                    "velocity": 0.2283464566929134,
                    "duration": 0.2926830000000109
                },
                {
                    "name": "C#3",
                    "midi": 49,
                    "time": 72.58538399999965,
                    "velocity": 0.1732283464566929,
                    "duration": 0.2926829999999967
                },
                {
                    "name": "G#3",
                    "midi": 56,
                    "time": 72.58538399999965,
                    "velocity": 0.1732283464566929,
                    "duration": 0.2926829999999967
                },
                {
                    "name": "C#4",
                    "midi": 61,
                    "time": 72.58538399999965,
                    "velocity": 0.1732283464566929,
                    "duration": 0.2926829999999967
                },
                {
                    "name": "C#3",
                    "midi": 49,
                    "time": 72.87806699999965,
                    "velocity": 0.15748031496062992,
                    "duration": 0.5853660000000076
                },
                {
                    "name": "G#3",
                    "midi": 56,
                    "time": 72.87806699999965,
                    "velocity": 0.15748031496062992,
                    "duration": 0.5853660000000076
                },
                {
                    "name": "C#4",
                    "midi": 61,
                    "time": 72.87806699999965,
                    "velocity": 0.15748031496062992,
                    "duration": 0.5853660000000076
                },
                {
                    "name": "C#3",
                    "midi": 49,
                    "time": 73.46343299999965,
                    "velocity": 0.14173228346456693,
                    "duration": 0.21951224999999397
                },
                {
                    "name": "G#3",
                    "midi": 56,
                    "time": 73.46343299999965,
                    "velocity": 0.14173228346456693,
                    "duration": 0.21951224999999397
                },
                {
                    "name": "C#4",
                    "midi": 61,
                    "time": 73.46343299999965,
                    "velocity": 0.14173228346456693,
                    "duration": 0.21951224999999397
                },
                {
                    "name": "C#3",
                    "midi": 49,
                    "time": 73.75611599999965,
                    "velocity": 0.14960629921259844,
                    "duration": 0.2926829999999967
                },
                {
                    "name": "G#3",
                    "midi": 56,
                    "time": 73.75611599999965,
                    "velocity": 0.14960629921259844,
                    "duration": 0.2926829999999967
                },
                {
                    "name": "C#4",
                    "midi": 61,
                    "time": 73.75611599999965,
                    "velocity": 0.14960629921259844,
                    "duration": 0.2926829999999967
                },
                {
                    "name": "C#3",
                    "midi": 49,
                    "time": 74.04879899999965,
                    "velocity": 0.15748031496062992,
                    "duration": 0.5853660000000076
                },
                {
                    "name": "G#3",
                    "midi": 56,
                    "time": 74.04879899999965,
                    "velocity": 0.15748031496062992,
                    "duration": 0.5853660000000076
                },
                {
                    "name": "C#4",
                    "midi": 61,
                    "time": 74.04879899999965,
                    "velocity": 0.15748031496062992,
                    "duration": 0.5853660000000076
                },
                {
                    "name": "C#3",
                    "midi": 49,
                    "time": 74.63416499999965,
                    "velocity": 0.14173228346456693,
                    "duration": 0.21951225000000818
                },
                {
                    "name": "G#3",
                    "midi": 56,
                    "time": 74.63416499999965,
                    "velocity": 0.14173228346456693,
                    "duration": 0.21951225000000818
                },
                {
                    "name": "C#4",
                    "midi": 61,
                    "time": 74.63416499999965,
                    "velocity": 0.14173228346456693,
                    "duration": 0.21951225000000818
                },
                {
                    "name": "G#3",
                    "midi": 56,
                    "time": 74.92684799999967,
                    "velocity": 0.14960629921259844,
                    "duration": 0.2926830000000109
                },
                {
                    "name": "C4",
                    "midi": 60,
                    "time": 74.92684799999967,
                    "velocity": 0.14960629921259844,
                    "duration": 0.2926830000000109
                },
                {
                    "name": "G#3",
                    "midi": 56,
                    "time": 75.21953099999968,
                    "velocity": 0.14960629921259844,
                    "duration": 0.5853660000000076
                },
                {
                    "name": "C4",
                    "midi": 60,
                    "time": 75.21953099999968,
                    "velocity": 0.14960629921259844,
                    "duration": 0.5853660000000076
                },
                {
                    "name": "G#3",
                    "midi": 56,
                    "time": 75.80489699999968,
                    "velocity": 0.1968503937007874,
                    "duration": 0.2926829999999967
                },
                {
                    "name": "C4",
                    "midi": 60,
                    "time": 75.80489699999968,
                    "velocity": 0.1968503937007874,
                    "duration": 0.2926829999999967
                },
                {
                    "name": "C#3",
                    "midi": 49,
                    "time": 76.09757999999968,
                    "velocity": 0.1968503937007874,
                    "duration": 0.2926830000000109
                },
                {
                    "name": "G#3",
                    "midi": 56,
                    "time": 76.09757999999968,
                    "velocity": 0.1968503937007874,
                    "duration": 0.2926830000000109
                },
                {
                    "name": "C#4",
                    "midi": 61,
                    "time": 76.09757999999968,
                    "velocity": 0.1968503937007874,
                    "duration": 0.2926830000000109
                },
                {
                    "name": "C#3",
                    "midi": 49,
                    "time": 76.39026299999969,
                    "velocity": 0.2047244094488189,
                    "duration": 0.5853660000000076
                },
                {
                    "name": "G#3",
                    "midi": 56,
                    "time": 76.39026299999969,
                    "velocity": 0.2047244094488189,
                    "duration": 0.5853660000000076
                },
                {
                    "name": "C#4",
                    "midi": 61,
                    "time": 76.39026299999969,
                    "velocity": 0.2047244094488189,
                    "duration": 0.5853660000000076
                },
                {
                    "name": "C#3",
                    "midi": 49,
                    "time": 76.9756289999997,
                    "velocity": 0.1732283464566929,
                    "duration": 0.21951225000000818
                },
                {
                    "name": "G#3",
                    "midi": 56,
                    "time": 76.9756289999997,
                    "velocity": 0.1732283464566929,
                    "duration": 0.21951225000000818
                },
                {
                    "name": "C#4",
                    "midi": 61,
                    "time": 76.9756289999997,
                    "velocity": 0.1732283464566929,
                    "duration": 0.21951225000000818
                },
                {
                    "name": "C#3",
                    "midi": 49,
                    "time": 77.26831199999971,
                    "velocity": 0.1732283464566929,
                    "duration": 0.2926830000000109
                },
                {
                    "name": "G#3",
                    "midi": 56,
                    "time": 77.26831199999971,
                    "velocity": 0.1732283464566929,
                    "duration": 0.2926830000000109
                },
                {
                    "name": "C#4",
                    "midi": 61,
                    "time": 77.26831199999971,
                    "velocity": 0.1732283464566929,
                    "duration": 0.2926830000000109
                },
                {
                    "name": "C#3",
                    "midi": 49,
                    "time": 77.56099499999972,
                    "velocity": 0.16535433070866143,
                    "duration": 0.5853660000000076
                },
                {
                    "name": "G#3",
                    "midi": 56,
                    "time": 77.56099499999972,
                    "velocity": 0.16535433070866143,
                    "duration": 0.5853660000000076
                },
                {
                    "name": "C#4",
                    "midi": 61,
                    "time": 77.56099499999972,
                    "velocity": 0.16535433070866143,
                    "duration": 0.5853660000000076
                },
                {
                    "name": "C#3",
                    "midi": 49,
                    "time": 78.14636099999973,
                    "velocity": 0.16535433070866143,
                    "duration": 0.21951225000000818
                },
                {
                    "name": "G#3",
                    "midi": 56,
                    "time": 78.14636099999973,
                    "velocity": 0.16535433070866143,
                    "duration": 0.21951225000000818
                },
                {
                    "name": "C#4",
                    "midi": 61,
                    "time": 78.14636099999973,
                    "velocity": 0.16535433070866143,
                    "duration": 0.21951225000000818
                },
                {
                    "name": "C#3",
                    "midi": 49,
                    "time": 78.43904399999974,
                    "velocity": 0.18110236220472442,
                    "duration": 0.2926829999999967
                },
                {
                    "name": "G#3",
                    "midi": 56,
                    "time": 78.43904399999974,
                    "velocity": 0.18110236220472442,
                    "duration": 0.2926829999999967
                },
                {
                    "name": "C#4",
                    "midi": 61,
                    "time": 78.43904399999974,
                    "velocity": 0.18110236220472442,
                    "duration": 0.2926829999999967
                },
                {
                    "name": "C#3",
                    "midi": 49,
                    "time": 78.73172699999974,
                    "velocity": 0.16535433070866143,
                    "duration": 0.5853660000000076
                },
                {
                    "name": "G#3",
                    "midi": 56,
                    "time": 78.73172699999974,
                    "velocity": 0.16535433070866143,
                    "duration": 0.5853660000000076
                },
                {
                    "name": "C#4",
                    "midi": 61,
                    "time": 78.73172699999974,
                    "velocity": 0.16535433070866143,
                    "duration": 0.5853660000000076
                },
                {
                    "name": "C#3",
                    "midi": 49,
                    "time": 79.31709299999974,
                    "velocity": 0.14960629921259844,
                    "duration": 0.21951225000000818
                },
                {
                    "name": "G#3",
                    "midi": 56,
                    "time": 79.31709299999974,
                    "velocity": 0.14960629921259844,
                    "duration": 0.21951225000000818
                },
                {
                    "name": "C#4",
                    "midi": 61,
                    "time": 79.31709299999974,
                    "velocity": 0.14960629921259844,
                    "duration": 0.21951225000000818
                },
                {
                    "name": "G#3",
                    "midi": 56,
                    "time": 79.60977599999975,
                    "velocity": 0.1968503937007874,
                    "duration": 0.2926829999999967
                },
                {
                    "name": "C4",
                    "midi": 60,
                    "time": 79.60977599999975,
                    "velocity": 0.1968503937007874,
                    "duration": 0.2926829999999967
                },
                {
                    "name": "G#3",
                    "midi": 56,
                    "time": 79.90245899999975,
                    "velocity": 0.2204724409448819,
                    "duration": 0.5853659999999934
                },
                {
                    "name": "C4",
                    "midi": 60,
                    "time": 79.90245899999975,
                    "velocity": 0.2204724409448819,
                    "duration": 0.5853659999999934
                },
                {
                    "name": "G#3",
                    "midi": 56,
                    "time": 80.48782499999975,
                    "velocity": 0.1889763779527559,
                    "duration": 0.2926830000000109
                },
                {
                    "name": "C4",
                    "midi": 60,
                    "time": 80.48782499999975,
                    "velocity": 0.1889763779527559,
                    "duration": 0.2926830000000109
                },
                {
                    "name": "C#3",
                    "midi": 49,
                    "time": 80.78050799999976,
                    "velocity": 0.1968503937007874,
                    "duration": 0.2926830000000109
                },
                {
                    "name": "G#3",
                    "midi": 56,
                    "time": 80.78050799999976,
                    "velocity": 0.1968503937007874,
                    "duration": 0.2926830000000109
                },
                {
                    "name": "C#4",
                    "midi": 61,
                    "time": 80.78050799999976,
                    "velocity": 0.1968503937007874,
                    "duration": 0.2926830000000109
                },
                {
                    "name": "C#3",
                    "midi": 49,
                    "time": 81.07319099999977,
                    "velocity": 0.1968503937007874,
                    "duration": 0.8780490000000043
                },
                {
                    "name": "G#3",
                    "midi": 56,
                    "time": 81.07319099999977,
                    "velocity": 0.1968503937007874,
                    "duration": 0.8756099750000033
                },
                {
                    "name": "C#4",
                    "midi": 61,
                    "time": 81.07319099999977,
                    "velocity": 0.1968503937007874,
                    "duration": 0.8780490000000043
                },
                {
                    "name": "G#1",
                    "midi": 32,
                    "time": 81.95123999999977,
                    "velocity": 0.31496062992125984,
                    "duration": 0.2926830000000109
                },
                {
                    "name": "G#2",
                    "midi": 44,
                    "time": 81.95123999999977,
                    "velocity": 0.31496062992125984,
                    "duration": 0.2926830000000109
                },
                {
                    "name": "C#2",
                    "midi": 37,
                    "time": 82.24392299999978,
                    "velocity": 0.33070866141732286,
                    "duration": 0.5853659999999934
                },
                {
                    "name": "G#2",
                    "midi": 44,
                    "time": 82.24392299999978,
                    "velocity": 0.33070866141732286,
                    "duration": 0.5853659999999934
                },
                {
                    "name": "G#1",
                    "midi": 32,
                    "time": 82.82928899999978,
                    "velocity": 0.28346456692913385,
                    "duration": 0.2926829999999967
                },
                {
                    "name": "G#2",
                    "midi": 44,
                    "time": 82.82928899999978,
                    "velocity": 0.28346456692913385,
                    "duration": 0.2926829999999967
                },
                {
                    "name": "G#1",
                    "midi": 32,
                    "time": 83.12197199999977,
                    "velocity": 0.29133858267716534,
                    "duration": 0.2926830000000109
                },
                {
                    "name": "G#2",
                    "midi": 44,
                    "time": 83.12197199999977,
                    "velocity": 0.29133858267716534,
                    "duration": 0.2926830000000109
                },
                {
                    "name": "C#2",
                    "midi": 37,
                    "time": 83.41465499999978,
                    "velocity": 0.3543307086614173,
                    "duration": 0.5853660000000076
                },
                {
                    "name": "G#2",
                    "midi": 44,
                    "time": 83.41465499999978,
                    "velocity": 0.3543307086614173,
                    "duration": 0.5853660000000076
                },
                {
                    "name": "G#1",
                    "midi": 32,
                    "time": 84.00002099999979,
                    "velocity": 0.31496062992125984,
                    "duration": 0.2926830000000109
                },
                {
                    "name": "G#2",
                    "midi": 44,
                    "time": 84.00002099999979,
                    "velocity": 0.31496062992125984,
                    "duration": 0.2926830000000109
                },
                {
                    "name": "G#1",
                    "midi": 32,
                    "time": 84.2927039999998,
                    "velocity": 0.36220472440944884,
                    "duration": 0.2926829999999967
                },
                {
                    "name": "G#2",
                    "midi": 44,
                    "time": 84.2927039999998,
                    "velocity": 0.36220472440944884,
                    "duration": 0.2926829999999967
                },
                {
                    "name": "C#2",
                    "midi": 37,
                    "time": 84.5853869999998,
                    "velocity": 0.3858267716535433,
                    "duration": 0.5853660000000076
                },
                {
                    "name": "G#2",
                    "midi": 44,
                    "time": 84.5853869999998,
                    "velocity": 0.3858267716535433,
                    "duration": 0.5853660000000076
                },
                {
                    "name": "G#1",
                    "midi": 32,
                    "time": 85.1707529999998,
                    "velocity": 0.28346456692913385,
                    "duration": 0.2926830000000109
                },
                {
                    "name": "G#2",
                    "midi": 44,
                    "time": 85.1707529999998,
                    "velocity": 0.28346456692913385,
                    "duration": 0.2926830000000109
                },
                {
                    "name": "F#2",
                    "midi": 42,
                    "time": 85.46343599999982,
                    "velocity": 0.16535433070866143,
                    "duration": 0.2926829999999967
                },
                {
                    "name": "B2",
                    "midi": 47,
                    "time": 85.46343599999982,
                    "velocity": 0.16535433070866143,
                    "duration": 0.2926829999999967
                },
                {
                    "name": "E2",
                    "midi": 40,
                    "time": 85.75611899999981,
                    "velocity": 0.16535433070866143,
                    "duration": 0.8780490000000043
                },
                {
                    "name": "B2",
                    "midi": 47,
                    "time": 85.75611899999981,
                    "velocity": 0.16535433070866143,
                    "duration": 0.8780490000000043
                },
                {
                    "name": "C#3",
                    "midi": 49,
                    "time": 86.63416799999982,
                    "velocity": 0.14173228346456693,
                    "duration": 0.2926829999999967
                },
                {
                    "name": "G#3",
                    "midi": 56,
                    "time": 86.63416799999982,
                    "velocity": 0.14173228346456693,
                    "duration": 0.2926829999999967
                },
                {
                    "name": "C#4",
                    "midi": 61,
                    "time": 86.63416799999982,
                    "velocity": 0.14173228346456693,
                    "duration": 0.2926829999999967
                },
                {
                    "name": "C#3",
                    "midi": 49,
                    "time": 86.92685099999981,
                    "velocity": 0.14173228346456693,
                    "duration": 0.5853659999999934
                },
                {
                    "name": "G#3",
                    "midi": 56,
                    "time": 86.92685099999981,
                    "velocity": 0.14173228346456693,
                    "duration": 0.5853659999999934
                },
                {
                    "name": "C#4",
                    "midi": 61,
                    "time": 86.92685099999981,
                    "velocity": 0.14173228346456693,
                    "duration": 0.5853659999999934
                },
                {
                    "name": "C#3",
                    "midi": 49,
                    "time": 87.51221699999981,
                    "velocity": 0.11811023622047244,
                    "duration": 0.21951225000000818
                },
                {
                    "name": "G#3",
                    "midi": 56,
                    "time": 87.51221699999981,
                    "velocity": 0.11811023622047244,
                    "duration": 0.21951225000000818
                },
                {
                    "name": "C#4",
                    "midi": 61,
                    "time": 87.51221699999981,
                    "velocity": 0.11811023622047244,
                    "duration": 0.21951225000000818
                },
                {
                    "name": "C#3",
                    "midi": 49,
                    "time": 87.80489999999982,
                    "velocity": 0.14173228346456693,
                    "duration": 0.2926829999999967
                },
                {
                    "name": "G#3",
                    "midi": 56,
                    "time": 87.80489999999982,
                    "velocity": 0.14173228346456693,
                    "duration": 0.2926829999999967
                },
                {
                    "name": "C#4",
                    "midi": 61,
                    "time": 87.80489999999982,
                    "velocity": 0.14173228346456693,
                    "duration": 0.2926829999999967
                },
                {
                    "name": "C#3",
                    "midi": 49,
                    "time": 88.09758299999982,
                    "velocity": 0.14173228346456693,
                    "duration": 0.5853659999999934
                },
                {
                    "name": "G#3",
                    "midi": 56,
                    "time": 88.09758299999982,
                    "velocity": 0.14173228346456693,
                    "duration": 0.5853659999999934
                },
                {
                    "name": "C#4",
                    "midi": 61,
                    "time": 88.09758299999982,
                    "velocity": 0.14173228346456693,
                    "duration": 0.5853659999999934
                },
                {
                    "name": "C#3",
                    "midi": 49,
                    "time": 88.68294899999981,
                    "velocity": 0.11811023622047244,
                    "duration": 0.21951225000000818
                },
                {
                    "name": "G#3",
                    "midi": 56,
                    "time": 88.68294899999981,
                    "velocity": 0.11811023622047244,
                    "duration": 0.21951225000000818
                },
                {
                    "name": "C#4",
                    "midi": 61,
                    "time": 88.68294899999981,
                    "velocity": 0.11811023622047244,
                    "duration": 0.21951225000000818
                },
                {
                    "name": "G#3",
                    "midi": 56,
                    "time": 88.97563199999982,
                    "velocity": 0.14173228346456693,
                    "duration": 0.2926829999999967
                },
                {
                    "name": "C4",
                    "midi": 60,
                    "time": 88.97563199999982,
                    "velocity": 0.14173228346456693,
                    "duration": 0.2926829999999967
                },
                {
                    "name": "G#3",
                    "midi": 56,
                    "time": 89.26831499999982,
                    "velocity": 0.14173228346456693,
                    "duration": 0.5853660000000076
                },
                {
                    "name": "C4",
                    "midi": 60,
                    "time": 89.26831499999982,
                    "velocity": 0.14173228346456693,
                    "duration": 0.5853660000000076
                },
                {
                    "name": "G#3",
                    "midi": 56,
                    "time": 89.85368099999982,
                    "velocity": 0.14173228346456693,
                    "duration": 0.2926829999999967
                },
                {
                    "name": "C4",
                    "midi": 60,
                    "time": 89.85368099999982,
                    "velocity": 0.14173228346456693,
                    "duration": 0.2926829999999967
                },
                {
                    "name": "C#3",
                    "midi": 49,
                    "time": 90.14636399999982,
                    "velocity": 0.15748031496062992,
                    "duration": 0.2926830000000109
                },
                {
                    "name": "G#3",
                    "midi": 56,
                    "time": 90.14636399999982,
                    "velocity": 0.15748031496062992,
                    "duration": 0.2926830000000109
                },
                {
                    "name": "C#4",
                    "midi": 61,
                    "time": 90.14636399999982,
                    "velocity": 0.15748031496062992,
                    "duration": 0.2926830000000109
                },
                {
                    "name": "C#3",
                    "midi": 49,
                    "time": 90.43904699999983,
                    "velocity": 0.16535433070866143,
                    "duration": 0.5853659999999934
                },
                {
                    "name": "G#3",
                    "midi": 56,
                    "time": 90.43904699999983,
                    "velocity": 0.16535433070866143,
                    "duration": 0.5853659999999934
                },
                {
                    "name": "C#4",
                    "midi": 61,
                    "time": 90.43904699999983,
                    "velocity": 0.16535433070866143,
                    "duration": 0.5853659999999934
                },
                {
                    "name": "C#3",
                    "midi": 49,
                    "time": 91.02441299999983,
                    "velocity": 0.14173228346456693,
                    "duration": 0.21951225000000818
                },
                {
                    "name": "G#3",
                    "midi": 56,
                    "time": 91.02441299999983,
                    "velocity": 0.14173228346456693,
                    "duration": 0.21951225000000818
                },
                {
                    "name": "C#4",
                    "midi": 61,
                    "time": 91.02441299999983,
                    "velocity": 0.14173228346456693,
                    "duration": 0.21951225000000818
                },
                {
                    "name": "C#3",
                    "midi": 49,
                    "time": 91.31709599999984,
                    "velocity": 0.14173228346456693,
                    "duration": 0.2926830000000109
                },
                {
                    "name": "G#3",
                    "midi": 56,
                    "time": 91.31709599999984,
                    "velocity": 0.14173228346456693,
                    "duration": 0.2926830000000109
                },
                {
                    "name": "C#4",
                    "midi": 61,
                    "time": 91.31709599999984,
                    "velocity": 0.14173228346456693,
                    "duration": 0.2926830000000109
                },
                {
                    "name": "C#3",
                    "midi": 49,
                    "time": 91.60977899999985,
                    "velocity": 0.14173228346456693,
                    "duration": 0.5853660000000076
                },
                {
                    "name": "G#3",
                    "midi": 56,
                    "time": 91.60977899999985,
                    "velocity": 0.14173228346456693,
                    "duration": 0.5853660000000076
                },
                {
                    "name": "C#4",
                    "midi": 61,
                    "time": 91.60977899999985,
                    "velocity": 0.14173228346456693,
                    "duration": 0.5853660000000076
                },
                {
                    "name": "C#3",
                    "midi": 49,
                    "time": 92.19514499999985,
                    "velocity": 0.14173228346456693,
                    "duration": 0.21951225000000818
                },
                {
                    "name": "G#3",
                    "midi": 56,
                    "time": 92.19514499999985,
                    "velocity": 0.14173228346456693,
                    "duration": 0.21951225000000818
                },
                {
                    "name": "C#4",
                    "midi": 61,
                    "time": 92.19514499999985,
                    "velocity": 0.14173228346456693,
                    "duration": 0.21951225000000818
                },
                {
                    "name": "C#3",
                    "midi": 49,
                    "time": 92.48782799999987,
                    "velocity": 0.14173228346456693,
                    "duration": 0.2926829999999967
                },
                {
                    "name": "G#3",
                    "midi": 56,
                    "time": 92.48782799999987,
                    "velocity": 0.14173228346456693,
                    "duration": 0.2926829999999967
                },
                {
                    "name": "C#4",
                    "midi": 61,
                    "time": 92.48782799999987,
                    "velocity": 0.14173228346456693,
                    "duration": 0.2926829999999967
                },
                {
                    "name": "C#3",
                    "midi": 49,
                    "time": 92.78051099999986,
                    "velocity": 0.14173228346456693,
                    "duration": 0.5853660000000076
                },
                {
                    "name": "G#3",
                    "midi": 56,
                    "time": 92.78051099999986,
                    "velocity": 0.14173228346456693,
                    "duration": 0.5853660000000076
                },
                {
                    "name": "C#4",
                    "midi": 61,
                    "time": 92.78051099999986,
                    "velocity": 0.14173228346456693,
                    "duration": 0.5853660000000076
                },
                {
                    "name": "C#3",
                    "midi": 49,
                    "time": 93.36587699999987,
                    "velocity": 0.13385826771653545,
                    "duration": 0.21951225000000818
                },
                {
                    "name": "G#3",
                    "midi": 56,
                    "time": 93.36587699999987,
                    "velocity": 0.13385826771653545,
                    "duration": 0.21951225000000818
                },
                {
                    "name": "C#4",
                    "midi": 61,
                    "time": 93.36587699999987,
                    "velocity": 0.13385826771653545,
                    "duration": 0.21951225000000818
                },
                {
                    "name": "G#3",
                    "midi": 56,
                    "time": 93.65855999999988,
                    "velocity": 0.15748031496062992,
                    "duration": 0.2926829999999967
                },
                {
                    "name": "C4",
                    "midi": 60,
                    "time": 93.65855999999988,
                    "velocity": 0.15748031496062992,
                    "duration": 0.2926829999999967
                },
                {
                    "name": "G#3",
                    "midi": 56,
                    "time": 93.95124299999988,
                    "velocity": 0.1732283464566929,
                    "duration": 0.5853660000000076
                },
                {
                    "name": "C4",
                    "midi": 60,
                    "time": 93.95124299999988,
                    "velocity": 0.1732283464566929,
                    "duration": 0.5853660000000076
                },
                {
                    "name": "G#3",
                    "midi": 56,
                    "time": 94.53660899999988,
                    "velocity": 0.14960629921259844,
                    "duration": 0.2926830000000109
                },
                {
                    "name": "C4",
                    "midi": 60,
                    "time": 94.53660899999988,
                    "velocity": 0.14960629921259844,
                    "duration": 0.2926830000000109
                },
                {
                    "name": "C#3",
                    "midi": 49,
                    "time": 94.8292919999999,
                    "velocity": 0.15748031496062992,
                    "duration": 0.2926829999999967
                },
                {
                    "name": "G#3",
                    "midi": 56,
                    "time": 94.8292919999999,
                    "velocity": 0.15748031496062992,
                    "duration": 0.2926829999999967
                },
                {
                    "name": "C#4",
                    "midi": 61,
                    "time": 94.8292919999999,
                    "velocity": 0.15748031496062992,
                    "duration": 0.2926829999999967
                },
                {
                    "name": "C#3",
                    "midi": 49,
                    "time": 95.12197499999989,
                    "velocity": 0.16535433070866143,
                    "duration": 0.8780490000000043
                },
                {
                    "name": "G#3",
                    "midi": 56,
                    "time": 95.12197499999989,
                    "velocity": 0.16535433070866143,
                    "duration": 0.8756099750000033
                },
                {
                    "name": "C#4",
                    "midi": 61,
                    "time": 95.12197499999989,
                    "velocity": 0.16535433070866143,
                    "duration": 0.8780490000000043
                },
                {
                    "name": "G#1",
                    "midi": 32,
                    "time": 96.0000239999999,
                    "velocity": 0.23622047244094488,
                    "duration": 0.2926829999999967
                },
                {
                    "name": "G#2",
                    "midi": 44,
                    "time": 96.0000239999999,
                    "velocity": 0.23622047244094488,
                    "duration": 0.2926829999999967
                },
                {
                    "name": "C#2",
                    "midi": 37,
                    "time": 96.2927069999999,
                    "velocity": 0.25196850393700787,
                    "duration": 0.5853659999999934
                },
                {
                    "name": "G#2",
                    "midi": 44,
                    "time": 96.2927069999999,
                    "velocity": 0.25196850393700787,
                    "duration": 0.5853659999999934
                },
                {
                    "name": "G#1",
                    "midi": 32,
                    "time": 96.87807299999989,
                    "velocity": 0.2125984251968504,
                    "duration": 0.2926830000000109
                },
                {
                    "name": "G#2",
                    "midi": 44,
                    "time": 96.87807299999989,
                    "velocity": 0.2125984251968504,
                    "duration": 0.2926830000000109
                },
                {
                    "name": "G#1",
                    "midi": 32,
                    "time": 97.1707559999999,
                    "velocity": 0.23622047244094488,
                    "duration": 0.2926829999999967
                },
                {
                    "name": "G#2",
                    "midi": 44,
                    "time": 97.1707559999999,
                    "velocity": 0.23622047244094488,
                    "duration": 0.2926829999999967
                },
                {
                    "name": "C#2",
                    "midi": 37,
                    "time": 97.4634389999999,
                    "velocity": 0.2677165354330709,
                    "duration": 0.5853660000000076
                },
                {
                    "name": "G#2",
                    "midi": 44,
                    "time": 97.4634389999999,
                    "velocity": 0.2677165354330709,
                    "duration": 0.5853660000000076
                },
                {
                    "name": "G#1",
                    "midi": 32,
                    "time": 98.0488049999999,
                    "velocity": 0.23622047244094488,
                    "duration": 0.2926829999999967
                },
                {
                    "name": "G#2",
                    "midi": 44,
                    "time": 98.0488049999999,
                    "velocity": 0.23622047244094488,
                    "duration": 0.2926829999999967
                },
                {
                    "name": "G#1",
                    "midi": 32,
                    "time": 98.3414879999999,
                    "velocity": 0.2677165354330709,
                    "duration": 0.2926830000000109
                },
                {
                    "name": "G#2",
                    "midi": 44,
                    "time": 98.3414879999999,
                    "velocity": 0.2677165354330709,
                    "duration": 0.2926830000000109
                },
                {
                    "name": "C#2",
                    "midi": 37,
                    "time": 98.63417099999991,
                    "velocity": 0.28346456692913385,
                    "duration": 0.5853660000000076
                },
                {
                    "name": "G#2",
                    "midi": 44,
                    "time": 98.63417099999991,
                    "velocity": 0.28346456692913385,
                    "duration": 0.5853660000000076
                },
                {
                    "name": "G#1",
                    "midi": 32,
                    "time": 99.21953699999992,
                    "velocity": 0.2440944881889764,
                    "duration": 0.2926830000000109
                },
                {
                    "name": "G#2",
                    "midi": 44,
                    "time": 99.21953699999992,
                    "velocity": 0.2440944881889764,
                    "duration": 0.2926830000000109
                },
                {
                    "name": "F#2",
                    "midi": 42,
                    "time": 99.51221999999993,
                    "velocity": 0.14960629921259844,
                    "duration": 0.2926829999999967
                },
                {
                    "name": "B2",
                    "midi": 47,
                    "time": 99.51221999999993,
                    "velocity": 0.14960629921259844,
                    "duration": 0.2926829999999967
                },
                {
                    "name": "E2",
                    "midi": 40,
                    "time": 99.80490299999992,
                    "velocity": 0.14960629921259844,
                    "duration": 0.8780490000000043
                },
                {
                    "name": "B2",
                    "midi": 47,
                    "time": 99.80490299999992,
                    "velocity": 0.14960629921259844,
                    "duration": 0.8780490000000043
                },
                {
                    "name": "E2",
                    "midi": 40,
                    "time": 100.68295199999993,
                    "velocity": 0.3543307086614173,
                    "duration": 0.2926829999999967
                },
                {
                    "name": "E3",
                    "midi": 52,
                    "time": 100.68295199999993,
                    "velocity": 0.3543307086614173,
                    "duration": 0.2926829999999967
                },
                {
                    "name": "B1",
                    "midi": 35,
                    "time": 100.97563499999993,
                    "velocity": 0.3779527559055118,
                    "duration": 0.5853659999999934
                },
                {
                    "name": "B2",
                    "midi": 47,
                    "time": 100.97563499999993,
                    "velocity": 0.3779527559055118,
                    "duration": 0.5853659999999934
                },
                {
                    "name": "E2",
                    "midi": 40,
                    "time": 101.56100099999992,
                    "velocity": 0.36220472440944884,
                    "duration": 0.2926830000000109
                },
                {
                    "name": "E3",
                    "midi": 52,
                    "time": 101.56100099999992,
                    "velocity": 0.36220472440944884,
                    "duration": 0.2926830000000109
                },
                {
                    "name": "E2",
                    "midi": 40,
                    "time": 101.85368399999993,
                    "velocity": 0.3937007874015748,
                    "duration": 0.2926829999999967
                },
                {
                    "name": "E3",
                    "midi": 52,
                    "time": 101.85368399999993,
                    "velocity": 0.3937007874015748,
                    "duration": 0.2926829999999967
                },
                {
                    "name": "B1",
                    "midi": 35,
                    "time": 102.14636699999993,
                    "velocity": 0.41732283464566927,
                    "duration": 0.5853659999999934
                },
                {
                    "name": "B2",
                    "midi": 47,
                    "time": 102.14636699999993,
                    "velocity": 0.41732283464566927,
                    "duration": 0.5853659999999934
                },
                {
                    "name": "E2",
                    "midi": 40,
                    "time": 102.73173299999992,
                    "velocity": 0.3937007874015748,
                    "duration": 0.2926830000000109
                },
                {
                    "name": "E3",
                    "midi": 52,
                    "time": 102.73173299999992,
                    "velocity": 0.3937007874015748,
                    "duration": 0.2926830000000109
                },
                {
                    "name": "B1",
                    "midi": 35,
                    "time": 103.02441599999993,
                    "velocity": 0.4251968503937008,
                    "duration": 0.2926829999999967
                },
                {
                    "name": "B2",
                    "midi": 47,
                    "time": 103.02441599999993,
                    "velocity": 0.4251968503937008,
                    "duration": 0.2926829999999967
                },
                {
                    "name": "C#2",
                    "midi": 37,
                    "time": 103.31709899999993,
                    "velocity": 0.4566929133858268,
                    "duration": 0.5853660000000076
                },
                {
                    "name": "C#3",
                    "midi": 49,
                    "time": 103.31709899999993,
                    "velocity": 0.4566929133858268,
                    "duration": 0.5853660000000076
                },
                {
                    "name": "A1",
                    "midi": 33,
                    "time": 103.90246499999994,
                    "velocity": 0.47244094488188976,
                    "duration": 0.2926829999999967
                },
                {
                    "name": "A2",
                    "midi": 45,
                    "time": 103.90246499999994,
                    "velocity": 0.47244094488188976,
                    "duration": 0.2926829999999967
                },
                {
                    "name": "B1",
                    "midi": 35,
                    "time": 104.19514799999993,
                    "velocity": 0.44881889763779526,
                    "duration": 0.2926830000000109
                },
                {
                    "name": "B2",
                    "midi": 47,
                    "time": 104.19514799999993,
                    "velocity": 0.44881889763779526,
                    "duration": 0.2926830000000109
                },
                {
                    "name": "E2",
                    "midi": 40,
                    "time": 104.48783099999994,
                    "velocity": 0.4251968503937008,
                    "duration": 0.536585500000001
                },
                {
                    "name": "B2",
                    "midi": 47,
                    "time": 104.48783099999994,
                    "velocity": 0.4251968503937008,
                    "duration": 0.536585500000001
                },
                {
                    "name": "B3",
                    "midi": 59,
                    "time": 105.07319699999995,
                    "velocity": 0.3543307086614173,
                    "duration": 0.2926829999999967
                },
                {
                    "name": "D#4",
                    "midi": 63,
                    "time": 105.36587999999995,
                    "velocity": 0.30708661417322836,
                    "duration": 0.2926829999999967
                },
                {
                    "name": "B3",
                    "midi": 59,
                    "time": 105.36587999999995,
                    "velocity": 0.30708661417322836,
                    "duration": 0.2926829999999967
                },
                {
                    "name": "B3",
                    "midi": 59,
                    "time": 105.65856299999994,
                    "velocity": 0.3779527559055118,
                    "duration": 0.5853660000000076
                },
                {
                    "name": "D#4",
                    "midi": 63,
                    "time": 105.65856299999994,
                    "velocity": 0.3779527559055118,
                    "duration": 0.5853660000000076
                },
                {
                    "name": "B3",
                    "midi": 59,
                    "time": 106.24392899999995,
                    "velocity": 0.3779527559055118,
                    "duration": 0.2926829999999967
                },
                {
                    "name": "D#4",
                    "midi": 63,
                    "time": 106.24392899999995,
                    "velocity": 0.3779527559055118,
                    "duration": 0.2926829999999967
                },
                {
                    "name": "E4",
                    "midi": 64,
                    "time": 106.53661199999995,
                    "velocity": 0.41732283464566927,
                    "duration": 0.2926829999999967
                },
                {
                    "name": "B3",
                    "midi": 59,
                    "time": 106.53661199999995,
                    "velocity": 0.41732283464566927,
                    "duration": 0.2926829999999967
                },
                {
                    "name": "B3",
                    "midi": 59,
                    "time": 106.82929499999995,
                    "velocity": 0.4251968503937008,
                    "duration": 0.5853660000000076
                },
                {
                    "name": "E4",
                    "midi": 64,
                    "time": 106.82929499999995,
                    "velocity": 0.4251968503937008,
                    "duration": 0.5853660000000076
                },
                {
                    "name": "B3",
                    "midi": 59,
                    "time": 107.41466099999995,
                    "velocity": 0.3700787401574803,
                    "duration": 0.2926829999999967
                },
                {
                    "name": "E4",
                    "midi": 64,
                    "time": 107.41466099999995,
                    "velocity": 0.3700787401574803,
                    "duration": 0.2926829999999967
                },
                {
                    "name": "D#4",
                    "midi": 63,
                    "time": 107.70734399999995,
                    "velocity": 0.4015748031496063,
                    "duration": 0.2926829999999967
                },
                {
                    "name": "B3",
                    "midi": 59,
                    "time": 107.70734399999995,
                    "velocity": 0.4015748031496063,
                    "duration": 0.2926829999999967
                },
                {
                    "name": "B3",
                    "midi": 59,
                    "time": 108.00002699999995,
                    "velocity": 0.4251968503937008,
                    "duration": 0.5853660000000076
                },
                {
                    "name": "D#4",
                    "midi": 63,
                    "time": 108.00002699999995,
                    "velocity": 0.4251968503937008,
                    "duration": 0.5853660000000076
                },
                {
                    "name": "B3",
                    "midi": 59,
                    "time": 108.58539299999995,
                    "velocity": 0.4015748031496063,
                    "duration": 0.2926830000000109
                },
                {
                    "name": "F#4",
                    "midi": 66,
                    "time": 108.58539299999995,
                    "velocity": 0.4015748031496063,
                    "duration": 0.2926830000000109
                },
                {
                    "name": "E4",
                    "midi": 64,
                    "time": 108.87807599999996,
                    "velocity": 0.41732283464566927,
                    "duration": 0.2926829999999967
                },
                {
                    "name": "B3",
                    "midi": 59,
                    "time": 108.87807599999996,
                    "velocity": 0.41732283464566927,
                    "duration": 0.2926829999999967
                },
                {
                    "name": "E3",
                    "midi": 52,
                    "time": 108.87807599999996,
                    "velocity": 0.41732283464566927,
                    "duration": 0.2926829999999967
                },
                {
                    "name": "B3",
                    "midi": 59,
                    "time": 109.17075899999996,
                    "velocity": 0.41732283464566927,
                    "duration": 0.5829269750000066
                },
                {
                    "name": "E4",
                    "midi": 64,
                    "time": 109.17075899999996,
                    "velocity": 0.41732283464566927,
                    "duration": 0.5829269750000066
                },
                {
                    "name": "E3",
                    "midi": 52,
                    "time": 109.17075899999996,
                    "velocity": 0.41732283464566927,
                    "duration": 0.5853660000000076
                },
                {
                    "name": "E2",
                    "midi": 40,
                    "time": 109.75612499999997,
                    "velocity": 0.3700787401574803,
                    "duration": 0.2926829999999967
                },
                {
                    "name": "E3",
                    "midi": 52,
                    "time": 109.75612499999997,
                    "velocity": 0.3700787401574803,
                    "duration": 0.2926829999999967
                },
                {
                    "name": "E2",
                    "midi": 40,
                    "time": 110.04880799999997,
                    "velocity": 0.4409448818897638,
                    "duration": 0.2926829999999967
                },
                {
                    "name": "E3",
                    "midi": 52,
                    "time": 110.04880799999997,
                    "velocity": 0.4409448818897638,
                    "duration": 0.2926829999999967
                },
                {
                    "name": "B1",
                    "midi": 35,
                    "time": 110.34149099999996,
                    "velocity": 0.48031496062992124,
                    "duration": 0.5853660000000076
                },
                {
                    "name": "B2",
                    "midi": 47,
                    "time": 110.34149099999996,
                    "velocity": 0.48031496062992124,
                    "duration": 0.5853660000000076
                },
                {
                    "name": "E2",
                    "midi": 40,
                    "time": 110.92685699999997,
                    "velocity": 0.4645669291338583,
                    "duration": 0.2926830000000109
                },
                {
                    "name": "E3",
                    "midi": 52,
                    "time": 110.92685699999997,
                    "velocity": 0.4645669291338583,
                    "duration": 0.2926830000000109
                },
                {
                    "name": "E2",
                    "midi": 40,
                    "time": 111.21953999999998,
                    "velocity": 0.5039370078740157,
                    "duration": 0.2926829999999967
                },
                {
                    "name": "E3",
                    "midi": 52,
                    "time": 111.21953999999998,
                    "velocity": 0.5039370078740157,
                    "duration": 0.2926829999999967
                },
                {
                    "name": "B1",
                    "midi": 35,
                    "time": 111.51222299999998,
                    "velocity": 0.5275590551181102,
                    "duration": 0.5853660000000076
                },
                {
                    "name": "B2",
                    "midi": 47,
                    "time": 111.51222299999998,
                    "velocity": 0.5275590551181102,
                    "duration": 0.5853660000000076
                },
                {
                    "name": "E2",
                    "midi": 40,
                    "time": 112.09758899999999,
                    "velocity": 0.5039370078740157,
                    "duration": 0.2926829999999967
                },
                {
                    "name": "E3",
                    "midi": 52,
                    "time": 112.09758899999999,
                    "velocity": 0.5039370078740157,
                    "duration": 0.2926829999999967
                },
                {
                    "name": "B1",
                    "midi": 35,
                    "time": 112.39027199999998,
                    "velocity": 0.5433070866141733,
                    "duration": 0.2926829999999967
                },
                {
                    "name": "B2",
                    "midi": 47,
                    "time": 112.39027199999998,
                    "velocity": 0.5433070866141733,
                    "duration": 0.2926829999999967
                },
                {
                    "name": "C#2",
                    "midi": 37,
                    "time": 112.68295499999998,
                    "velocity": 0.5748031496062992,
                    "duration": 0.5853660000000076
                },
                {
                    "name": "C#3",
                    "midi": 49,
                    "time": 112.68295499999998,
                    "velocity": 0.5748031496062992,
                    "duration": 0.5853660000000076
                },
                {
                    "name": "A3",
                    "midi": 57,
                    "time": 113.26832099999999,
                    "velocity": 0.5669291338582677,
                    "duration": 0.2926830000000109
                },
                {
                    "name": "F#3",
                    "midi": 54,
                    "time": 113.26832099999999,
                    "velocity": 0.48031496062992124,
                    "duration": 0.2926830000000109
                },
                {
                    "name": "F#1",
                    "midi": 30,
                    "time": 113.26832099999999,
                    "velocity": 0.48031496062992124,
                    "duration": 0.2926830000000109
                },
                {
                    "name": "F#2",
                    "midi": 42,
                    "time": 113.26832099999999,
                    "velocity": 0.48031496062992124,
                    "duration": 0.2926830000000109
                },
                {
                    "name": "F#3",
                    "midi": 54,
                    "time": 113.561004,
                    "velocity": 0.5669291338582677,
                    "duration": 0.2926830000000109
                },
                {
                    "name": "G#1",
                    "midi": 32,
                    "time": 113.561004,
                    "velocity": 0.48031496062992124,
                    "duration": 0.2926830000000109
                },
                {
                    "name": "G#2",
                    "midi": 44,
                    "time": 113.561004,
                    "velocity": 0.48031496062992124,
                    "duration": 0.2926830000000109
                },
                {
                    "name": "F3",
                    "midi": 53,
                    "time": 113.85368700000001,
                    "velocity": 0.5433070866141733,
                    "duration": 0.536585500000001
                },
                {
                    "name": "C#2",
                    "midi": 37,
                    "time": 113.85368700000001,
                    "velocity": 0.4566929133858268,
                    "duration": 0.536585500000001
                },
                {
                    "name": "G#2",
                    "midi": 44,
                    "time": 113.85368700000001,
                    "velocity": 0.4566929133858268,
                    "duration": 0.536585500000001
                },
                {
                    "name": "G#3",
                    "midi": 56,
                    "time": 114.43905300000002,
                    "velocity": 0.2204724409448819,
                    "duration": 0.2926829999999967
                },
                {
                    "name": "C#4",
                    "midi": 61,
                    "time": 114.43905300000002,
                    "velocity": 0.2204724409448819,
                    "duration": 0.2926829999999967
                },
                {
                    "name": "C4",
                    "midi": 60,
                    "time": 114.73173600000001,
                    "velocity": 0.2283464566929134,
                    "duration": 0.2926829999999967
                },
                {
                    "name": "G#3",
                    "midi": 56,
                    "time": 114.73173600000001,
                    "velocity": 0.2283464566929134,
                    "duration": 0.2926829999999967
                },
                {
                    "name": "C4",
                    "midi": 60,
                    "time": 115.02441900000001,
                    "velocity": 0.2204724409448819,
                    "duration": 0.5853660000000076
                },
                {
                    "name": "G#3",
                    "midi": 56,
                    "time": 115.02441900000001,
                    "velocity": 0.2204724409448819,
                    "duration": 0.5853660000000076
                },
                {
                    "name": "C4",
                    "midi": 60,
                    "time": 115.60978500000002,
                    "velocity": 0.1889763779527559,
                    "duration": 0.2926829999999967
                },
                {
                    "name": "G#3",
                    "midi": 56,
                    "time": 115.60978500000002,
                    "velocity": 0.1889763779527559,
                    "duration": 0.2926829999999967
                },
                {
                    "name": "C#4",
                    "midi": 61,
                    "time": 115.90246800000001,
                    "velocity": 0.2047244094488189,
                    "duration": 0.2926829999999967
                },
                {
                    "name": "G#3",
                    "midi": 56,
                    "time": 115.90246800000001,
                    "velocity": 0.2047244094488189,
                    "duration": 0.2926829999999967
                },
                {
                    "name": "C#4",
                    "midi": 61,
                    "time": 116.19515100000001,
                    "velocity": 0.2204724409448819,
                    "duration": 0.5853660000000076
                },
                {
                    "name": "G#3",
                    "midi": 56,
                    "time": 116.19515100000001,
                    "velocity": 0.2204724409448819,
                    "duration": 0.5853660000000076
                },
                {
                    "name": "C#4",
                    "midi": 61,
                    "time": 116.78051700000002,
                    "velocity": 0.2047244094488189,
                    "duration": 0.2926830000000109
                },
                {
                    "name": "G#3",
                    "midi": 56,
                    "time": 116.78051700000002,
                    "velocity": 0.2047244094488189,
                    "duration": 0.2926830000000109
                },
                {
                    "name": "C4",
                    "midi": 60,
                    "time": 117.07320000000003,
                    "velocity": 0.2204724409448819,
                    "duration": 0.2926829999999967
                },
                {
                    "name": "G#3",
                    "midi": 56,
                    "time": 117.07320000000003,
                    "velocity": 0.2204724409448819,
                    "duration": 0.2926829999999967
                },
                {
                    "name": "C4",
                    "midi": 60,
                    "time": 117.36588300000003,
                    "velocity": 0.1968503937007874,
                    "duration": 0.5853660000000076
                },
                {
                    "name": "G#3",
                    "midi": 56,
                    "time": 117.36588300000003,
                    "velocity": 0.1968503937007874,
                    "duration": 0.5853660000000076
                },
                {
                    "name": "D4",
                    "midi": 62,
                    "time": 117.95124900000003,
                    "velocity": 0.1968503937007874,
                    "duration": 0.2926829999999967
                },
                {
                    "name": "G#3",
                    "midi": 56,
                    "time": 117.95124900000003,
                    "velocity": 0.1968503937007874,
                    "duration": 0.2926829999999967
                },
                {
                    "name": "D#4",
                    "midi": 63,
                    "time": 118.24393200000003,
                    "velocity": 0.2047244094488189,
                    "duration": 0.2926829999999967
                },
                {
                    "name": "G#3",
                    "midi": 56,
                    "time": 118.24393200000003,
                    "velocity": 0.2047244094488189,
                    "duration": 0.2926829999999967
                },
                {
                    "name": "D#4",
                    "midi": 63,
                    "time": 118.53661500000003,
                    "velocity": 0.18110236220472442,
                    "duration": 0.8780490000000043
                },
                {
                    "name": "G#3",
                    "midi": 56,
                    "time": 118.53661500000003,
                    "velocity": 0.18110236220472442,
                    "duration": 0.8780490000000043
                },
                {
                    "name": "C#3",
                    "midi": 49,
                    "time": 119.41466400000003,
                    "velocity": 0.12598425196850394,
                    "duration": 0.2926829999999967
                },
                {
                    "name": "G#3",
                    "midi": 56,
                    "time": 119.41466400000003,
                    "velocity": 0.12598425196850394,
                    "duration": 0.2926829999999967
                },
                {
                    "name": "C#4",
                    "midi": 61,
                    "time": 119.41466400000003,
                    "velocity": 0.12598425196850394,
                    "duration": 0.2926829999999967
                },
                {
                    "name": "C#3",
                    "midi": 49,
                    "time": 119.70734700000003,
                    "velocity": 0.14173228346456693,
                    "duration": 0.5853659999999934
                },
                {
                    "name": "G#3",
                    "midi": 56,
                    "time": 119.70734700000003,
                    "velocity": 0.14173228346456693,
                    "duration": 0.5853659999999934
                },
                {
                    "name": "C#4",
                    "midi": 61,
                    "time": 119.70734700000003,
                    "velocity": 0.14173228346456693,
                    "duration": 0.5853659999999934
                },
                {
                    "name": "C#3",
                    "midi": 49,
                    "time": 120.29271300000002,
                    "velocity": 0.11811023622047244,
                    "duration": 0.21951225000000818
                },
                {
                    "name": "G#3",
                    "midi": 56,
                    "time": 120.29271300000002,
                    "velocity": 0.11811023622047244,
                    "duration": 0.21951225000000818
                },
                {
                    "name": "C#4",
                    "midi": 61,
                    "time": 120.29271300000002,
                    "velocity": 0.11811023622047244,
                    "duration": 0.21951225000000818
                },
                {
                    "name": "C#3",
                    "midi": 49,
                    "time": 120.58539600000003,
                    "velocity": 0.14173228346456693,
                    "duration": 0.2926829999999967
                },
                {
                    "name": "G#3",
                    "midi": 56,
                    "time": 120.58539600000003,
                    "velocity": 0.14173228346456693,
                    "duration": 0.2926829999999967
                },
                {
                    "name": "C#4",
                    "midi": 61,
                    "time": 120.58539600000003,
                    "velocity": 0.14173228346456693,
                    "duration": 0.2926829999999967
                },
                {
                    "name": "C#3",
                    "midi": 49,
                    "time": 120.87807900000003,
                    "velocity": 0.14173228346456693,
                    "duration": 0.5853660000000076
                },
                {
                    "name": "G#3",
                    "midi": 56,
                    "time": 120.87807900000003,
                    "velocity": 0.14173228346456693,
                    "duration": 0.5853660000000076
                },
                {
                    "name": "C#4",
                    "midi": 61,
                    "time": 120.87807900000003,
                    "velocity": 0.14173228346456693,
                    "duration": 0.5853660000000076
                },
                {
                    "name": "C#3",
                    "midi": 49,
                    "time": 121.46344500000004,
                    "velocity": 0.12598425196850394,
                    "duration": 0.21951225000000818
                },
                {
                    "name": "G#3",
                    "midi": 56,
                    "time": 121.46344500000004,
                    "velocity": 0.12598425196850394,
                    "duration": 0.21951225000000818
                },
                {
                    "name": "C#4",
                    "midi": 61,
                    "time": 121.46344500000004,
                    "velocity": 0.12598425196850394,
                    "duration": 0.21951225000000818
                },
                {
                    "name": "G#3",
                    "midi": 56,
                    "time": 121.75612800000005,
                    "velocity": 0.15748031496062992,
                    "duration": 0.2926829999999967
                },
                {
                    "name": "C4",
                    "midi": 60,
                    "time": 121.75612800000005,
                    "velocity": 0.15748031496062992,
                    "duration": 0.2926829999999967
                },
                {
                    "name": "G#3",
                    "midi": 56,
                    "time": 122.04881100000004,
                    "velocity": 0.1732283464566929,
                    "duration": 0.5853660000000076
                },
                {
                    "name": "C4",
                    "midi": 60,
                    "time": 122.04881100000004,
                    "velocity": 0.1732283464566929,
                    "duration": 0.5853660000000076
                },
                {
                    "name": "G#3",
                    "midi": 56,
                    "time": 122.63417700000005,
                    "velocity": 0.15748031496062992,
                    "duration": 0.2926830000000109
                },
                {
                    "name": "C4",
                    "midi": 60,
                    "time": 122.63417700000005,
                    "velocity": 0.15748031496062992,
                    "duration": 0.2926830000000109
                },
                {
                    "name": "C#3",
                    "midi": 49,
                    "time": 122.92686000000006,
                    "velocity": 0.15748031496062992,
                    "duration": 0.2926829999999967
                },
                {
                    "name": "G#3",
                    "midi": 56,
                    "time": 122.92686000000006,
                    "velocity": 0.15748031496062992,
                    "duration": 0.2926829999999967
                },
                {
                    "name": "C#4",
                    "midi": 61,
                    "time": 122.92686000000006,
                    "velocity": 0.15748031496062992,
                    "duration": 0.2926829999999967
                },
                {
                    "name": "C#3",
                    "midi": 49,
                    "time": 123.21954300000006,
                    "velocity": 0.16535433070866143,
                    "duration": 0.5853659999999934
                },
                {
                    "name": "G#3",
                    "midi": 56,
                    "time": 123.21954300000006,
                    "velocity": 0.16535433070866143,
                    "duration": 0.5853659999999934
                },
                {
                    "name": "C#4",
                    "midi": 61,
                    "time": 123.21954300000006,
                    "velocity": 0.16535433070866143,
                    "duration": 0.5853659999999934
                },
                {
                    "name": "C#3",
                    "midi": 49,
                    "time": 123.80490900000005,
                    "velocity": 0.14173228346456693,
                    "duration": 0.21951225000000818
                },
                {
                    "name": "G#3",
                    "midi": 56,
                    "time": 123.80490900000005,
                    "velocity": 0.14173228346456693,
                    "duration": 0.21951225000000818
                },
                {
                    "name": "C#4",
                    "midi": 61,
                    "time": 123.80490900000005,
                    "velocity": 0.14173228346456693,
                    "duration": 0.21951225000000818
                },
                {
                    "name": "C#3",
                    "midi": 49,
                    "time": 124.09759200000006,
                    "velocity": 0.14173228346456693,
                    "duration": 0.2926830000000109
                },
                {
                    "name": "G#3",
                    "midi": 56,
                    "time": 124.09759200000006,
                    "velocity": 0.14173228346456693,
                    "duration": 0.2926830000000109
                },
                {
                    "name": "C#4",
                    "midi": 61,
                    "time": 124.09759200000006,
                    "velocity": 0.14173228346456693,
                    "duration": 0.2926830000000109
                },
                {
                    "name": "C#3",
                    "midi": 49,
                    "time": 124.39027500000007,
                    "velocity": 0.14960629921259844,
                    "duration": 0.5853660000000076
                },
                {
                    "name": "G#3",
                    "midi": 56,
                    "time": 124.39027500000007,
                    "velocity": 0.14960629921259844,
                    "duration": 0.5853660000000076
                },
                {
                    "name": "C#4",
                    "midi": 61,
                    "time": 124.39027500000007,
                    "velocity": 0.14960629921259844,
                    "duration": 0.5853660000000076
                },
                {
                    "name": "C#3",
                    "midi": 49,
                    "time": 124.97564100000008,
                    "velocity": 0.13385826771653545,
                    "duration": 0.21951225000000818
                },
                {
                    "name": "G#3",
                    "midi": 56,
                    "time": 124.97564100000008,
                    "velocity": 0.13385826771653545,
                    "duration": 0.21951225000000818
                },
                {
                    "name": "C#4",
                    "midi": 61,
                    "time": 124.97564100000008,
                    "velocity": 0.13385826771653545,
                    "duration": 0.21951225000000818
                },
                {
                    "name": "C#3",
                    "midi": 49,
                    "time": 125.26832400000009,
                    "velocity": 0.14173228346456693,
                    "duration": 0.2926830000000109
                },
                {
                    "name": "G#3",
                    "midi": 56,
                    "time": 125.26832400000009,
                    "velocity": 0.14173228346456693,
                    "duration": 0.2926830000000109
                },
                {
                    "name": "C#4",
                    "midi": 61,
                    "time": 125.26832400000009,
                    "velocity": 0.14173228346456693,
                    "duration": 0.2926830000000109
                },
                {
                    "name": "C#3",
                    "midi": 49,
                    "time": 125.5610070000001,
                    "velocity": 0.14173228346456693,
                    "duration": 0.5853659999999934
                },
                {
                    "name": "G#3",
                    "midi": 56,
                    "time": 125.5610070000001,
                    "velocity": 0.14173228346456693,
                    "duration": 0.5853659999999934
                },
                {
                    "name": "C#4",
                    "midi": 61,
                    "time": 125.5610070000001,
                    "velocity": 0.14173228346456693,
                    "duration": 0.5853659999999934
                },
                {
                    "name": "C#3",
                    "midi": 49,
                    "time": 126.1463730000001,
                    "velocity": 0.13385826771653545,
                    "duration": 0.21951225000000818
                },
                {
                    "name": "G#3",
                    "midi": 56,
                    "time": 126.1463730000001,
                    "velocity": 0.13385826771653545,
                    "duration": 0.21951225000000818
                },
                {
                    "name": "C#4",
                    "midi": 61,
                    "time": 126.1463730000001,
                    "velocity": 0.13385826771653545,
                    "duration": 0.21951225000000818
                },
                {
                    "name": "G#3",
                    "midi": 56,
                    "time": 126.43905600000011,
                    "velocity": 0.15748031496062992,
                    "duration": 0.2926829999999967
                },
                {
                    "name": "C4",
                    "midi": 60,
                    "time": 126.43905600000011,
                    "velocity": 0.15748031496062992,
                    "duration": 0.2926829999999967
                },
                {
                    "name": "G#3",
                    "midi": 56,
                    "time": 126.7317390000001,
                    "velocity": 0.1732283464566929,
                    "duration": 0.5853659999999934
                },
                {
                    "name": "C4",
                    "midi": 60,
                    "time": 126.7317390000001,
                    "velocity": 0.1732283464566929,
                    "duration": 0.5853659999999934
                },
                {
                    "name": "G#3",
                    "midi": 56,
                    "time": 127.3171050000001,
                    "velocity": 0.14960629921259844,
                    "duration": 0.2926829999999967
                },
                {
                    "name": "C4",
                    "midi": 60,
                    "time": 127.3171050000001,
                    "velocity": 0.14960629921259844,
                    "duration": 0.2926829999999967
                },
                {
                    "name": "C#3",
                    "midi": 49,
                    "time": 127.6097880000001,
                    "velocity": 0.15748031496062992,
                    "duration": 0.2926829999999967
                },
                {
                    "name": "G#3",
                    "midi": 56,
                    "time": 127.6097880000001,
                    "velocity": 0.15748031496062992,
                    "duration": 0.2926829999999967
                },
                {
                    "name": "C#4",
                    "midi": 61,
                    "time": 127.6097880000001,
                    "velocity": 0.15748031496062992,
                    "duration": 0.2926829999999967
                },
                {
                    "name": "C#3",
                    "midi": 49,
                    "time": 127.90247100000009,
                    "velocity": 0.16535433070866143,
                    "duration": 0.8780489999999901
                },
                {
                    "name": "G#3",
                    "midi": 56,
                    "time": 127.90247100000009,
                    "velocity": 0.16535433070866143,
                    "duration": 0.8780489999999901
                },
                {
                    "name": "C#4",
                    "midi": 61,
                    "time": 127.90247100000009,
                    "velocity": 0.16535433070866143,
                    "duration": 0.8780489999999901
                },
                {
                    "name": "F3",
                    "midi": 53,
                    "time": 128.78052000000008,
                    "velocity": 0.2755905511811024,
                    "duration": 0.14634149999997703
                },
                {
                    "name": "F1",
                    "midi": 29,
                    "time": 128.78052000000008,
                    "velocity": 0.25196850393700787,
                    "duration": 0.2926829999999825
                },
                {
                    "name": "F2",
                    "midi": 41,
                    "time": 128.78052000000008,
                    "velocity": 0.25196850393700787,
                    "duration": 0.2926829999999825
                },
                {
                    "name": "A3",
                    "midi": 57,
                    "time": 128.92686150000006,
                    "velocity": 0.2755905511811024,
                    "duration": 0.14634150000000545
                },
                {
                    "name": "C#3",
                    "midi": 49,
                    "time": 129.07320300000006,
                    "velocity": 0.2992125984251969,
                    "duration": 0.5853660000000218
                },
                {
                    "name": "F3",
                    "midi": 53,
                    "time": 129.07320300000006,
                    "velocity": 0.2992125984251969,
                    "duration": 0.5853660000000218
                },
                {
                    "name": "A#3",
                    "midi": 58,
                    "time": 129.07320300000006,
                    "velocity": 0.2992125984251969,
                    "duration": 0.5853660000000218
                },
                {
                    "name": "A#1",
                    "midi": 34,
                    "time": 129.07320300000006,
                    "velocity": 0.2677165354330709,
                    "duration": 0.5853660000000218
                },
                {
                    "name": "F2",
                    "midi": 41,
                    "time": 129.07320300000006,
                    "velocity": 0.2677165354330709,
                    "duration": 0.5853660000000218
                },
                {
                    "name": "C3",
                    "midi": 48,
                    "time": 129.65856900000009,
                    "velocity": 0.2440944881889764,
                    "duration": 0.2926830000000109
                },
                {
                    "name": "F3",
                    "midi": 53,
                    "time": 129.65856900000009,
                    "velocity": 0.2440944881889764,
                    "duration": 0.2926830000000109
                },
                {
                    "name": "A3",
                    "midi": 57,
                    "time": 129.65856900000009,
                    "velocity": 0.2440944881889764,
                    "duration": 0.2926830000000109
                },
                {
                    "name": "F1",
                    "midi": 29,
                    "time": 129.65856900000009,
                    "velocity": 0.2283464566929134,
                    "duration": 0.2926830000000109
                },
                {
                    "name": "F2",
                    "midi": 41,
                    "time": 129.65856900000009,
                    "velocity": 0.2283464566929134,
                    "duration": 0.2926830000000109
                },
                {
                    "name": "F3",
                    "midi": 53,
                    "time": 129.9512520000001,
                    "velocity": 0.30708661417322836,
                    "duration": 0.14634150000000545
                },
                {
                    "name": "F1",
                    "midi": 29,
                    "time": 129.9512520000001,
                    "velocity": 0.25196850393700787,
                    "duration": 0.2926830000000109
                },
                {
                    "name": "F2",
                    "midi": 41,
                    "time": 129.9512520000001,
                    "velocity": 0.25196850393700787,
                    "duration": 0.2926830000000109
                },
                {
                    "name": "A3",
                    "midi": 57,
                    "time": 130.0975935000001,
                    "velocity": 0.30708661417322836,
                    "duration": 0.14634150000000545
                },
                {
                    "name": "C#4",
                    "midi": 61,
                    "time": 130.2439350000001,
                    "velocity": 0.33858267716535434,
                    "duration": 0.5853660000000218
                },
                {
                    "name": "A#3",
                    "midi": 58,
                    "time": 130.2439350000001,
                    "velocity": 0.33858267716535434,
                    "duration": 0.5853660000000218
                },
                {
                    "name": "F3",
                    "midi": 53,
                    "time": 130.2439350000001,
                    "velocity": 0.33858267716535434,
                    "duration": 0.5853660000000218
                },
                {
                    "name": "A#1",
                    "midi": 34,
                    "time": 130.2439350000001,
                    "velocity": 0.28346456692913385,
                    "duration": 0.5853660000000218
                },
                {
                    "name": "F2",
                    "midi": 41,
                    "time": 130.2439350000001,
                    "velocity": 0.28346456692913385,
                    "duration": 0.5853660000000218
                },
                {
                    "name": "C4",
                    "midi": 60,
                    "time": 130.82930100000013,
                    "velocity": 0.28346456692913385,
                    "duration": 0.29024397500000987
                },
                {
                    "name": "A3",
                    "midi": 57,
                    "time": 130.82930100000013,
                    "velocity": 0.28346456692913385,
                    "duration": 0.29024397500000987
                },
                {
                    "name": "F3",
                    "midi": 53,
                    "time": 130.82930100000013,
                    "velocity": 0.28346456692913385,
                    "duration": 0.2926830000000109
                },
                {
                    "name": "F1",
                    "midi": 29,
                    "time": 130.82930100000013,
                    "velocity": 0.25196850393700787,
                    "duration": 0.2926830000000109
                },
                {
                    "name": "F2",
                    "midi": 41,
                    "time": 130.82930100000013,
                    "velocity": 0.25196850393700787,
                    "duration": 0.2926830000000109
                },
                {
                    "name": "F1",
                    "midi": 29,
                    "time": 131.12198400000014,
                    "velocity": 0.28346456692913385,
                    "duration": 0.2926830000000109
                },
                {
                    "name": "F2",
                    "midi": 41,
                    "time": 131.12198400000014,
                    "velocity": 0.28346456692913385,
                    "duration": 0.2926830000000109
                },
                {
                    "name": "A#1",
                    "midi": 34,
                    "time": 131.41466700000015,
                    "velocity": 0.2992125984251969,
                    "duration": 0.5853659999999934
                },
                {
                    "name": "F2",
                    "midi": 41,
                    "time": 131.41466700000015,
                    "velocity": 0.2992125984251969,
                    "duration": 0.5853659999999934
                },
                {
                    "name": "F1",
                    "midi": 29,
                    "time": 132.00003300000014,
                    "velocity": 0.25984251968503935,
                    "duration": 0.2926829999999825
                },
                {
                    "name": "F2",
                    "midi": 41,
                    "time": 132.00003300000014,
                    "velocity": 0.25984251968503935,
                    "duration": 0.2926829999999825
                },
                {
                    "name": "D#2",
                    "midi": 39,
                    "time": 132.29271600000013,
                    "velocity": 0.16535433070866143,
                    "duration": 0.2926830000000109
                },
                {
                    "name": "G#2",
                    "midi": 44,
                    "time": 132.29271600000013,
                    "velocity": 0.16535433070866143,
                    "duration": 0.2926830000000109
                },
                {
                    "name": "C#2",
                    "midi": 37,
                    "time": 132.58539900000014,
                    "velocity": 0.16535433070866143,
                    "duration": 0.8780490000000327
                },
                {
                    "name": "G#2",
                    "midi": 44,
                    "time": 132.58539900000014,
                    "velocity": 0.16535433070866143,
                    "duration": 0.8780490000000327
                },
                {
                    "name": "E2",
                    "midi": 40,
                    "time": 133.17076500000016,
                    "velocity": 0.3543307086614173,
                    "duration": 0.2926830000000109
                },
                {
                    "name": "E3",
                    "midi": 52,
                    "time": 133.17076500000016,
                    "velocity": 0.3543307086614173,
                    "duration": 0.2926830000000109
                },
                {
                    "name": "E2",
                    "midi": 40,
                    "time": 133.46344800000017,
                    "velocity": 0.3543307086614173,
                    "duration": 0.2926830000000109
                },
                {
                    "name": "E3",
                    "midi": 52,
                    "time": 133.46344800000017,
                    "velocity": 0.3543307086614173,
                    "duration": 0.2926830000000109
                },
                {
                    "name": "B1",
                    "midi": 35,
                    "time": 133.75613100000018,
                    "velocity": 0.3779527559055118,
                    "duration": 0.5853659999999934
                },
                {
                    "name": "B2",
                    "midi": 47,
                    "time": 133.75613100000018,
                    "velocity": 0.3779527559055118,
                    "duration": 0.5853659999999934
                },
                {
                    "name": "E2",
                    "midi": 40,
                    "time": 134.34149700000017,
                    "velocity": 0.36220472440944884,
                    "duration": 0.2926830000000109
                },
                {
                    "name": "E3",
                    "midi": 52,
                    "time": 134.34149700000017,
                    "velocity": 0.36220472440944884,
                    "duration": 0.2926830000000109
                },
                {
                    "name": "E2",
                    "midi": 40,
                    "time": 134.63418000000019,
                    "velocity": 0.3937007874015748,
                    "duration": 0.2926829999999825
                },
                {
                    "name": "E3",
                    "midi": 52,
                    "time": 134.63418000000019,
                    "velocity": 0.3937007874015748,
                    "duration": 0.2926829999999825
                },
                {
                    "name": "B1",
                    "midi": 35,
                    "time": 134.92686300000017,
                    "velocity": 0.41732283464566927,
                    "duration": 0.5853660000000218
                },
                {
                    "name": "B2",
                    "midi": 47,
                    "time": 134.92686300000017,
                    "velocity": 0.41732283464566927,
                    "duration": 0.5853660000000218
                },
                {
                    "name": "E2",
                    "midi": 40,
                    "time": 135.5122290000002,
                    "velocity": 0.3937007874015748,
                    "duration": 0.2926830000000109
                },
                {
                    "name": "E3",
                    "midi": 52,
                    "time": 135.5122290000002,
                    "velocity": 0.3937007874015748,
                    "duration": 0.2926830000000109
                },
                {
                    "name": "B1",
                    "midi": 35,
                    "time": 135.8049120000002,
                    "velocity": 0.4251968503937008,
                    "duration": 0.2926830000000109
                },
                {
                    "name": "B2",
                    "midi": 47,
                    "time": 135.8049120000002,
                    "velocity": 0.4251968503937008,
                    "duration": 0.2926830000000109
                },
                {
                    "name": "C#2",
                    "midi": 37,
                    "time": 136.0975950000002,
                    "velocity": 0.4566929133858268,
                    "duration": 0.5853659999999934
                },
                {
                    "name": "C#3",
                    "midi": 49,
                    "time": 136.0975950000002,
                    "velocity": 0.4566929133858268,
                    "duration": 0.5853659999999934
                },
                {
                    "name": "A1",
                    "midi": 33,
                    "time": 136.6829610000002,
                    "velocity": 0.47244094488188976,
                    "duration": 0.2926830000000109
                },
                {
                    "name": "A2",
                    "midi": 45,
                    "time": 136.6829610000002,
                    "velocity": 0.47244094488188976,
                    "duration": 0.2926830000000109
                },
                {
                    "name": "B1",
                    "midi": 35,
                    "time": 136.97564400000022,
                    "velocity": 0.44881889763779526,
                    "duration": 0.2926829999999825
                },
                {
                    "name": "B2",
                    "midi": 47,
                    "time": 136.97564400000022,
                    "velocity": 0.44881889763779526,
                    "duration": 0.2926829999999825
                },
                {
                    "name": "E2",
                    "midi": 40,
                    "time": 137.2683270000002,
                    "velocity": 0.4251968503937008,
                    "duration": 0.536585500000001
                },
                {
                    "name": "B2",
                    "midi": 47,
                    "time": 137.2683270000002,
                    "velocity": 0.4251968503937008,
                    "duration": 0.536585500000001
                },
                {
                    "name": "B3",
                    "midi": 59,
                    "time": 137.8536930000002,
                    "velocity": 0.3543307086614173,
                    "duration": 0.2926830000000109
                },
                {
                    "name": "D#4",
                    "midi": 63,
                    "time": 138.1463760000002,
                    "velocity": 0.30708661417322836,
                    "duration": 0.2926830000000109
                },
                {
                    "name": "B3",
                    "midi": 59,
                    "time": 138.1463760000002,
                    "velocity": 0.30708661417322836,
                    "duration": 0.2926830000000109
                },
                {
                    "name": "B3",
                    "midi": 59,
                    "time": 138.4390590000002,
                    "velocity": 0.3779527559055118,
                    "duration": 0.5853660000000218
                },
                {
                    "name": "D#4",
                    "midi": 63,
                    "time": 138.4390590000002,
                    "velocity": 0.3779527559055118,
                    "duration": 0.5853660000000218
                },
                {
                    "name": "B3",
                    "midi": 59,
                    "time": 139.02442500000024,
                    "velocity": 0.3779527559055118,
                    "duration": 0.2926830000000109
                },
                {
                    "name": "D#4",
                    "midi": 63,
                    "time": 139.02442500000024,
                    "velocity": 0.3779527559055118,
                    "duration": 0.2926830000000109
                },
                {
                    "name": "E4",
                    "midi": 64,
                    "time": 139.31710800000025,
                    "velocity": 0.41732283464566927,
                    "duration": 0.2926829999999825
                },
                {
                    "name": "B3",
                    "midi": 59,
                    "time": 139.31710800000025,
                    "velocity": 0.41732283464566927,
                    "duration": 0.2926829999999825
                },
                {
                    "name": "B3",
                    "midi": 59,
                    "time": 139.60979100000023,
                    "velocity": 0.4251968503937008,
                    "duration": 0.5853660000000218
                },
                {
                    "name": "E4",
                    "midi": 64,
                    "time": 139.60979100000023,
                    "velocity": 0.4251968503937008,
                    "duration": 0.5853660000000218
                },
                {
                    "name": "B3",
                    "midi": 59,
                    "time": 140.19515700000025,
                    "velocity": 0.3700787401574803,
                    "duration": 0.2926830000000109
                },
                {
                    "name": "E4",
                    "midi": 64,
                    "time": 140.19515700000025,
                    "velocity": 0.3700787401574803,
                    "duration": 0.2926830000000109
                },
                {
                    "name": "D#4",
                    "midi": 63,
                    "time": 140.48784000000026,
                    "velocity": 0.4015748031496063,
                    "duration": 0.2926829999999825
                },
                {
                    "name": "B3",
                    "midi": 59,
                    "time": 140.48784000000026,
                    "velocity": 0.4015748031496063,
                    "duration": 0.2926829999999825
                },
                {
                    "name": "B3",
                    "midi": 59,
                    "time": 140.78052300000024,
                    "velocity": 0.4251968503937008,
                    "duration": 0.5853660000000218
                },
                {
                    "name": "D#4",
                    "midi": 63,
                    "time": 140.78052300000024,
                    "velocity": 0.4251968503937008,
                    "duration": 0.5853660000000218
                },
                {
                    "name": "B3",
                    "midi": 59,
                    "time": 141.36588900000027,
                    "velocity": 0.4015748031496063,
                    "duration": 0.2926830000000109
                },
                {
                    "name": "F#4",
                    "midi": 66,
                    "time": 141.36588900000027,
                    "velocity": 0.4015748031496063,
                    "duration": 0.2926830000000109
                },
                {
                    "name": "E4",
                    "midi": 64,
                    "time": 141.65857200000028,
                    "velocity": 0.41732283464566927,
                    "duration": 0.2926830000000109
                },
                {
                    "name": "B3",
                    "midi": 59,
                    "time": 141.65857200000028,
                    "velocity": 0.41732283464566927,
                    "duration": 0.2926830000000109
                },
                {
                    "name": "E3",
                    "midi": 52,
                    "time": 141.65857200000028,
                    "velocity": 0.41732283464566927,
                    "duration": 0.2926830000000109
                },
                {
                    "name": "B3",
                    "midi": 59,
                    "time": 141.9512550000003,
                    "velocity": 0.41732283464566927,
                    "duration": 0.5829269750000208
                },
                {
                    "name": "E4",
                    "midi": 64,
                    "time": 141.9512550000003,
                    "velocity": 0.41732283464566927,
                    "duration": 0.5829269750000208
                },
                {
                    "name": "E3",
                    "midi": 52,
                    "time": 141.9512550000003,
                    "velocity": 0.41732283464566927,
                    "duration": 0.5853660000000218
                },
                {
                    "name": "E2",
                    "midi": 40,
                    "time": 142.5366210000003,
                    "velocity": 0.3700787401574803,
                    "duration": 0.2926830000000109
                },
                {
                    "name": "E3",
                    "midi": 52,
                    "time": 142.5366210000003,
                    "velocity": 0.3700787401574803,
                    "duration": 0.2926830000000109
                },
                {
                    "name": "E2",
                    "midi": 40,
                    "time": 142.82930400000032,
                    "velocity": 0.49606299212598426,
                    "duration": 0.2926830000000109
                },
                {
                    "name": "E3",
                    "midi": 52,
                    "time": 142.82930400000032,
                    "velocity": 0.49606299212598426,
                    "duration": 0.2926830000000109
                },
                {
                    "name": "B1",
                    "midi": 35,
                    "time": 143.12198700000033,
                    "velocity": 0.5354330708661418,
                    "duration": 0.5853659999999934
                },
                {
                    "name": "B2",
                    "midi": 47,
                    "time": 143.12198700000033,
                    "velocity": 0.5354330708661418,
                    "duration": 0.5853659999999934
                },
                {
                    "name": "E2",
                    "midi": 40,
                    "time": 143.70735300000032,
                    "velocity": 0.5196850393700787,
                    "duration": 0.2926830000000109
                },
                {
                    "name": "E3",
                    "midi": 52,
                    "time": 143.70735300000032,
                    "velocity": 0.5196850393700787,
                    "duration": 0.2926830000000109
                },
                {
                    "name": "E2",
                    "midi": 40,
                    "time": 144.00003600000034,
                    "velocity": 0.5669291338582677,
                    "duration": 0.2926829999999825
                },
                {
                    "name": "E3",
                    "midi": 52,
                    "time": 144.00003600000034,
                    "velocity": 0.5669291338582677,
                    "duration": 0.2926829999999825
                },
                {
                    "name": "B1",
                    "midi": 35,
                    "time": 144.29271900000032,
                    "velocity": 0.5905511811023622,
                    "duration": 0.5853659999999934
                },
                {
                    "name": "B2",
                    "midi": 47,
                    "time": 144.29271900000032,
                    "velocity": 0.5905511811023622,
                    "duration": 0.5853659999999934
                },
                {
                    "name": "E2",
                    "midi": 40,
                    "time": 144.8780850000003,
                    "velocity": 0.5669291338582677,
                    "duration": 0.2926830000000109
                },
                {
                    "name": "E3",
                    "midi": 52,
                    "time": 144.8780850000003,
                    "velocity": 0.5669291338582677,
                    "duration": 0.2926830000000109
                },
                {
                    "name": "B1",
                    "midi": 35,
                    "time": 145.17076800000032,
                    "velocity": 0.6062992125984252,
                    "duration": 0.2926830000000109
                },
                {
                    "name": "B2",
                    "midi": 47,
                    "time": 145.17076800000032,
                    "velocity": 0.6062992125984252,
                    "duration": 0.2926830000000109
                },
                {
                    "name": "C#2",
                    "midi": 37,
                    "time": 145.46345100000033,
                    "velocity": 0.6456692913385826,
                    "duration": 0.5853659999999934
                },
                {
                    "name": "C#3",
                    "midi": 49,
                    "time": 145.46345100000033,
                    "velocity": 0.6456692913385826,
                    "duration": 0.5853659999999934
                },
                {
                    "name": "A3",
                    "midi": 57,
                    "time": 146.04881700000033,
                    "velocity": 0.6692913385826772,
                    "duration": 0.2926829999999825
                },
                {
                    "name": "F#3",
                    "midi": 54,
                    "time": 146.04881700000033,
                    "velocity": 0.5354330708661418,
                    "duration": 0.2926829999999825
                },
                {
                    "name": "F#1",
                    "midi": 30,
                    "time": 146.04881700000033,
                    "velocity": 0.5354330708661418,
                    "duration": 0.2926829999999825
                },
                {
                    "name": "F#2",
                    "midi": 42,
                    "time": 146.04881700000033,
                    "velocity": 0.5354330708661418,
                    "duration": 0.2926829999999825
                },
                {
                    "name": "F#3",
                    "midi": 54,
                    "time": 146.3415000000003,
                    "velocity": 0.6692913385826772,
                    "duration": 0.2926830000000109
                },
                {
                    "name": "G#1",
                    "midi": 32,
                    "time": 146.3415000000003,
                    "velocity": 0.5354330708661418,
                    "duration": 0.2926830000000109
                },
                {
                    "name": "G#2",
                    "midi": 44,
                    "time": 146.3415000000003,
                    "velocity": 0.5354330708661418,
                    "duration": 0.2926830000000109
                },
                {
                    "name": "F3",
                    "midi": 53,
                    "time": 146.63418300000032,
                    "velocity": 0.6692913385826772,
                    "duration": 0.536585500000001
                },
                {
                    "name": "C#2",
                    "midi": 37,
                    "time": 146.63418300000032,
                    "velocity": 0.5118110236220472,
                    "duration": 0.536585500000001
                },
                {
                    "name": "G#2",
                    "midi": 44,
                    "time": 146.63418300000032,
                    "velocity": 0.5118110236220472,
                    "duration": 0.536585500000001
                },
                {
                    "name": "G#3",
                    "midi": 56,
                    "time": 147.2195490000003,
                    "velocity": 0.2204724409448819,
                    "duration": 0.2926830000000109
                },
                {
                    "name": "C#4",
                    "midi": 61,
                    "time": 147.2195490000003,
                    "velocity": 0.2204724409448819,
                    "duration": 0.2926830000000109
                },
                {
                    "name": "C4",
                    "midi": 60,
                    "time": 147.51223200000032,
                    "velocity": 0.2283464566929134,
                    "duration": 0.2926830000000109
                },
                {
                    "name": "G#3",
                    "midi": 56,
                    "time": 147.51223200000032,
                    "velocity": 0.2283464566929134,
                    "duration": 0.2926830000000109
                },
                {
                    "name": "C4",
                    "midi": 60,
                    "time": 147.80491500000034,
                    "velocity": 0.2204724409448819,
                    "duration": 0.5853659999999934
                },
                {
                    "name": "G#3",
                    "midi": 56,
                    "time": 147.80491500000034,
                    "velocity": 0.2204724409448819,
                    "duration": 0.5853659999999934
                },
                {
                    "name": "C4",
                    "midi": 60,
                    "time": 148.39028100000033,
                    "velocity": 0.1889763779527559,
                    "duration": 0.2926830000000109
                },
                {
                    "name": "G#3",
                    "midi": 56,
                    "time": 148.39028100000033,
                    "velocity": 0.1889763779527559,
                    "duration": 0.2926830000000109
                },
                {
                    "name": "C#4",
                    "midi": 61,
                    "time": 148.68296400000034,
                    "velocity": 0.2047244094488189,
                    "duration": 0.2926830000000109
                },
                {
                    "name": "G#3",
                    "midi": 56,
                    "time": 148.68296400000034,
                    "velocity": 0.2047244094488189,
                    "duration": 0.2926830000000109
                },
                {
                    "name": "C#4",
                    "midi": 61,
                    "time": 148.97564700000035,
                    "velocity": 0.2204724409448819,
                    "duration": 0.5853659999999934
                },
                {
                    "name": "G#3",
                    "midi": 56,
                    "time": 148.97564700000035,
                    "velocity": 0.2204724409448819,
                    "duration": 0.5853659999999934
                },
                {
                    "name": "C#4",
                    "midi": 61,
                    "time": 149.56101300000034,
                    "velocity": 0.2047244094488189,
                    "duration": 0.2926830000000109
                },
                {
                    "name": "G#3",
                    "midi": 56,
                    "time": 149.56101300000034,
                    "velocity": 0.2047244094488189,
                    "duration": 0.2926830000000109
                },
                {
                    "name": "C4",
                    "midi": 60,
                    "time": 149.85369600000035,
                    "velocity": 0.2204724409448819,
                    "duration": 0.2926829999999825
                },
                {
                    "name": "G#3",
                    "midi": 56,
                    "time": 149.85369600000035,
                    "velocity": 0.2204724409448819,
                    "duration": 0.2926829999999825
                },
                {
                    "name": "C4",
                    "midi": 60,
                    "time": 150.14637900000034,
                    "velocity": 0.1968503937007874,
                    "duration": 0.5853660000000218
                },
                {
                    "name": "G#3",
                    "midi": 56,
                    "time": 150.14637900000034,
                    "velocity": 0.1968503937007874,
                    "duration": 0.5853660000000218
                },
                {
                    "name": "D4",
                    "midi": 62,
                    "time": 150.73174500000036,
                    "velocity": 0.1968503937007874,
                    "duration": 0.2926830000000109
                },
                {
                    "name": "G#3",
                    "midi": 56,
                    "time": 150.73174500000036,
                    "velocity": 0.1968503937007874,
                    "duration": 0.2926830000000109
                },
                {
                    "name": "D#4",
                    "midi": 63,
                    "time": 151.02442800000037,
                    "velocity": 0.2047244094488189,
                    "duration": 0.2926830000000109
                },
                {
                    "name": "G#3",
                    "midi": 56,
                    "time": 151.02442800000037,
                    "velocity": 0.2047244094488189,
                    "duration": 0.2926830000000109
                },
                {
                    "name": "D#4",
                    "midi": 63,
                    "time": 151.31711100000038,
                    "velocity": 0.18110236220472442,
                    "duration": 0.8780490000000043
                },
                {
                    "name": "G#3",
                    "midi": 56,
                    "time": 151.31711100000038,
                    "velocity": 0.18110236220472442,
                    "duration": 0.8780490000000043
                },
                {
                    "name": "C#3",
                    "midi": 49,
                    "time": 152.19516000000039,
                    "velocity": 0.12598425196850394,
                    "duration": 0.2926830000000109
                },
                {
                    "name": "G#3",
                    "midi": 56,
                    "time": 152.19516000000039,
                    "velocity": 0.12598425196850394,
                    "duration": 0.2926830000000109
                },
                {
                    "name": "C#4",
                    "midi": 61,
                    "time": 152.19516000000039,
                    "velocity": 0.12598425196850394,
                    "duration": 0.2926830000000109
                },
                {
                    "name": "C#3",
                    "midi": 49,
                    "time": 152.4878430000004,
                    "velocity": 0.14173228346456693,
                    "duration": 0.5853659999999934
                },
                {
                    "name": "G#3",
                    "midi": 56,
                    "time": 152.4878430000004,
                    "velocity": 0.14173228346456693,
                    "duration": 0.5853659999999934
                },
                {
                    "name": "C#4",
                    "midi": 61,
                    "time": 152.4878430000004,
                    "velocity": 0.14173228346456693,
                    "duration": 0.5853659999999934
                },
                {
                    "name": "C#3",
                    "midi": 49,
                    "time": 153.0732090000004,
                    "velocity": 0.11811023622047244,
                    "duration": 0.21951225000000818
                },
                {
                    "name": "G#3",
                    "midi": 56,
                    "time": 153.0732090000004,
                    "velocity": 0.11811023622047244,
                    "duration": 0.21951225000000818
                },
                {
                    "name": "C#4",
                    "midi": 61,
                    "time": 153.0732090000004,
                    "velocity": 0.11811023622047244,
                    "duration": 0.21951225000000818
                },
                {
                    "name": "C#3",
                    "midi": 49,
                    "time": 153.3658920000004,
                    "velocity": 0.14173228346456693,
                    "duration": 0.2926829999999825
                },
                {
                    "name": "G#3",
                    "midi": 56,
                    "time": 153.3658920000004,
                    "velocity": 0.14173228346456693,
                    "duration": 0.2926829999999825
                },
                {
                    "name": "C#4",
                    "midi": 61,
                    "time": 153.3658920000004,
                    "velocity": 0.14173228346456693,
                    "duration": 0.2926829999999825
                },
                {
                    "name": "C#3",
                    "midi": 49,
                    "time": 153.65857500000038,
                    "velocity": 0.14173228346456693,
                    "duration": 0.5853659999999934
                },
                {
                    "name": "G#3",
                    "midi": 56,
                    "time": 153.65857500000038,
                    "velocity": 0.14173228346456693,
                    "duration": 0.5853659999999934
                },
                {
                    "name": "C#4",
                    "midi": 61,
                    "time": 153.65857500000038,
                    "velocity": 0.14173228346456693,
                    "duration": 0.5853659999999934
                },
                {
                    "name": "C#3",
                    "midi": 49,
                    "time": 154.24394100000038,
                    "velocity": 0.12598425196850394,
                    "duration": 0.21951225000000818
                },
                {
                    "name": "G#3",
                    "midi": 56,
                    "time": 154.24394100000038,
                    "velocity": 0.12598425196850394,
                    "duration": 0.21951225000000818
                },
                {
                    "name": "C#4",
                    "midi": 61,
                    "time": 154.24394100000038,
                    "velocity": 0.12598425196850394,
                    "duration": 0.21951225000000818
                },
                {
                    "name": "G#3",
                    "midi": 56,
                    "time": 154.5366240000004,
                    "velocity": 0.15748031496062992,
                    "duration": 0.2926829999999825
                },
                {
                    "name": "C4",
                    "midi": 60,
                    "time": 154.5366240000004,
                    "velocity": 0.15748031496062992,
                    "duration": 0.2926829999999825
                },
                {
                    "name": "G#3",
                    "midi": 56,
                    "time": 154.82930700000037,
                    "velocity": 0.1732283464566929,
                    "duration": 0.5853659999999934
                },
                {
                    "name": "C4",
                    "midi": 60,
                    "time": 154.82930700000037,
                    "velocity": 0.1732283464566929,
                    "duration": 0.5853659999999934
                },
                {
                    "name": "G#3",
                    "midi": 56,
                    "time": 155.41467300000036,
                    "velocity": 0.15748031496062992,
                    "duration": 0.2926830000000109
                },
                {
                    "name": "C4",
                    "midi": 60,
                    "time": 155.41467300000036,
                    "velocity": 0.15748031496062992,
                    "duration": 0.2926830000000109
                },
                {
                    "name": "C#3",
                    "midi": 49,
                    "time": 155.70735600000037,
                    "velocity": 0.15748031496062992,
                    "duration": 0.2926829999999825
                },
                {
                    "name": "G#3",
                    "midi": 56,
                    "time": 155.70735600000037,
                    "velocity": 0.15748031496062992,
                    "duration": 0.2926829999999825
                },
                {
                    "name": "C#4",
                    "midi": 61,
                    "time": 155.70735600000037,
                    "velocity": 0.15748031496062992,
                    "duration": 0.2926829999999825
                },
                {
                    "name": "C#3",
                    "midi": 49,
                    "time": 156.00003900000036,
                    "velocity": 0.16535433070866143,
                    "duration": 0.5853659999999934
                },
                {
                    "name": "G#3",
                    "midi": 56,
                    "time": 156.00003900000036,
                    "velocity": 0.16535433070866143,
                    "duration": 0.5853659999999934
                },
                {
                    "name": "C#4",
                    "midi": 61,
                    "time": 156.00003900000036,
                    "velocity": 0.16535433070866143,
                    "duration": 0.5853659999999934
                },
                {
                    "name": "C#3",
                    "midi": 49,
                    "time": 156.58540500000035,
                    "velocity": 0.14173228346456693,
                    "duration": 0.21951225000000818
                },
                {
                    "name": "G#3",
                    "midi": 56,
                    "time": 156.58540500000035,
                    "velocity": 0.14173228346456693,
                    "duration": 0.21951225000000818
                },
                {
                    "name": "C#4",
                    "midi": 61,
                    "time": 156.58540500000035,
                    "velocity": 0.14173228346456693,
                    "duration": 0.21951225000000818
                },
                {
                    "name": "C#3",
                    "midi": 49,
                    "time": 156.87808800000036,
                    "velocity": 0.14173228346456693,
                    "duration": 0.2926829999999825
                },
                {
                    "name": "G#3",
                    "midi": 56,
                    "time": 156.87808800000036,
                    "velocity": 0.14173228346456693,
                    "duration": 0.2926829999999825
                },
                {
                    "name": "C#4",
                    "midi": 61,
                    "time": 156.87808800000036,
                    "velocity": 0.14173228346456693,
                    "duration": 0.2926829999999825
                },
                {
                    "name": "C#3",
                    "midi": 49,
                    "time": 157.17077100000034,
                    "velocity": 0.14960629921259844,
                    "duration": 0.5853659999999934
                },
                {
                    "name": "G#3",
                    "midi": 56,
                    "time": 157.17077100000034,
                    "velocity": 0.14960629921259844,
                    "duration": 0.5853659999999934
                },
                {
                    "name": "C#4",
                    "midi": 61,
                    "time": 157.17077100000034,
                    "velocity": 0.14960629921259844,
                    "duration": 0.5853659999999934
                },
                {
                    "name": "C#3",
                    "midi": 49,
                    "time": 157.75613700000034,
                    "velocity": 0.13385826771653545,
                    "duration": 0.21951225000000818
                },
                {
                    "name": "G#3",
                    "midi": 56,
                    "time": 157.75613700000034,
                    "velocity": 0.13385826771653545,
                    "duration": 0.21951225000000818
                },
                {
                    "name": "C#4",
                    "midi": 61,
                    "time": 157.75613700000034,
                    "velocity": 0.13385826771653545,
                    "duration": 0.21951225000000818
                },
                {
                    "name": "C#3",
                    "midi": 49,
                    "time": 158.04882000000035,
                    "velocity": 0.14173228346456693,
                    "duration": 0.2926830000000109
                },
                {
                    "name": "G#3",
                    "midi": 56,
                    "time": 158.04882000000035,
                    "velocity": 0.14173228346456693,
                    "duration": 0.2926830000000109
                },
                {
                    "name": "C#4",
                    "midi": 61,
                    "time": 158.04882000000035,
                    "velocity": 0.14173228346456693,
                    "duration": 0.2926830000000109
                },
                {
                    "name": "C#3",
                    "midi": 49,
                    "time": 158.34150300000036,
                    "velocity": 0.14173228346456693,
                    "duration": 0.5853660000000218
                },
                {
                    "name": "G#3",
                    "midi": 56,
                    "time": 158.34150300000036,
                    "velocity": 0.14173228346456693,
                    "duration": 0.5853660000000218
                },
                {
                    "name": "C#4",
                    "midi": 61,
                    "time": 158.34150300000036,
                    "velocity": 0.14173228346456693,
                    "duration": 0.5853660000000218
                },
                {
                    "name": "C#3",
                    "midi": 49,
                    "time": 158.92686900000038,
                    "velocity": 0.13385826771653545,
                    "duration": 0.21951225000000818
                },
                {
                    "name": "G#3",
                    "midi": 56,
                    "time": 158.92686900000038,
                    "velocity": 0.13385826771653545,
                    "duration": 0.21951225000000818
                },
                {
                    "name": "C#4",
                    "midi": 61,
                    "time": 158.92686900000038,
                    "velocity": 0.13385826771653545,
                    "duration": 0.21951225000000818
                },
                {
                    "name": "G#3",
                    "midi": 56,
                    "time": 159.2195520000004,
                    "velocity": 0.15748031496062992,
                    "duration": 0.2926830000000109
                },
                {
                    "name": "C4",
                    "midi": 60,
                    "time": 159.2195520000004,
                    "velocity": 0.15748031496062992,
                    "duration": 0.2926830000000109
                },
                {
                    "name": "G#3",
                    "midi": 56,
                    "time": 159.5122350000004,
                    "velocity": 0.1732283464566929,
                    "duration": 0.5853659999999934
                },
                {
                    "name": "C4",
                    "midi": 60,
                    "time": 159.5122350000004,
                    "velocity": 0.1732283464566929,
                    "duration": 0.5853659999999934
                },
                {
                    "name": "G#3",
                    "midi": 56,
                    "time": 160.0976010000004,
                    "velocity": 0.14960629921259844,
                    "duration": 0.2926829999999825
                },
                {
                    "name": "C4",
                    "midi": 60,
                    "time": 160.0976010000004,
                    "velocity": 0.14960629921259844,
                    "duration": 0.2926829999999825
                },
                {
                    "name": "C#3",
                    "midi": 49,
                    "time": 160.39028400000038,
                    "velocity": 0.15748031496062992,
                    "duration": 0.2926829999999825
                },
                {
                    "name": "G#3",
                    "midi": 56,
                    "time": 160.39028400000038,
                    "velocity": 0.15748031496062992,
                    "duration": 0.2926829999999825
                },
                {
                    "name": "C#4",
                    "midi": 61,
                    "time": 160.39028400000038,
                    "velocity": 0.15748031496062992,
                    "duration": 0.2926829999999825
                },
                {
                    "name": "C#3",
                    "midi": 49,
                    "time": 160.68296700000036,
                    "velocity": 0.16535433070866143,
                    "duration": 0.8780490000000043
                },
                {
                    "name": "G#3",
                    "midi": 56,
                    "time": 160.68296700000036,
                    "velocity": 0.16535433070866143,
                    "duration": 0.8780490000000043
                },
                {
                    "name": "C#4",
                    "midi": 61,
                    "time": 160.68296700000036,
                    "velocity": 0.16535433070866143,
                    "duration": 0.8780490000000043
                },
                {
                    "name": "F3",
                    "midi": 53,
                    "time": 161.56101600000036,
                    "velocity": 0.2755905511811024,
                    "duration": 0.14634150000000545
                },
                {
                    "name": "F1",
                    "midi": 29,
                    "time": 161.56101600000036,
                    "velocity": 0.25196850393700787,
                    "duration": 0.2926830000000109
                },
                {
                    "name": "F2",
                    "midi": 41,
                    "time": 161.56101600000036,
                    "velocity": 0.25196850393700787,
                    "duration": 0.2926830000000109
                },
                {
                    "name": "A3",
                    "midi": 57,
                    "time": 161.70735750000037,
                    "velocity": 0.2755905511811024,
                    "duration": 0.14634150000000545
                },
                {
                    "name": "C#3",
                    "midi": 49,
                    "time": 161.85369900000038,
                    "velocity": 0.2992125984251969,
                    "duration": 0.5853660000000218
                },
                {
                    "name": "F3",
                    "midi": 53,
                    "time": 161.85369900000038,
                    "velocity": 0.2992125984251969,
                    "duration": 0.5853660000000218
                },
                {
                    "name": "A#3",
                    "midi": 58,
                    "time": 161.85369900000038,
                    "velocity": 0.2992125984251969,
                    "duration": 0.5853660000000218
                },
                {
                    "name": "A#1",
                    "midi": 34,
                    "time": 161.85369900000038,
                    "velocity": 0.2677165354330709,
                    "duration": 0.5853660000000218
                },
                {
                    "name": "F2",
                    "midi": 41,
                    "time": 161.85369900000038,
                    "velocity": 0.2677165354330709,
                    "duration": 0.5853660000000218
                },
                {
                    "name": "C3",
                    "midi": 48,
                    "time": 162.4390650000004,
                    "velocity": 0.2440944881889764,
                    "duration": 0.2926830000000109
                },
                {
                    "name": "F3",
                    "midi": 53,
                    "time": 162.4390650000004,
                    "velocity": 0.2440944881889764,
                    "duration": 0.2926830000000109
                },
                {
                    "name": "A3",
                    "midi": 57,
                    "time": 162.4390650000004,
                    "velocity": 0.2440944881889764,
                    "duration": 0.2926830000000109
                },
                {
                    "name": "F1",
                    "midi": 29,
                    "time": 162.4390650000004,
                    "velocity": 0.2283464566929134,
                    "duration": 0.2926830000000109
                },
                {
                    "name": "F2",
                    "midi": 41,
                    "time": 162.4390650000004,
                    "velocity": 0.2283464566929134,
                    "duration": 0.2926830000000109
                },
                {
                    "name": "F3",
                    "midi": 53,
                    "time": 162.7317480000004,
                    "velocity": 0.30708661417322836,
                    "duration": 0.14634149999997703
                },
                {
                    "name": "F1",
                    "midi": 29,
                    "time": 162.7317480000004,
                    "velocity": 0.25196850393700787,
                    "duration": 0.2926829999999825
                },
                {
                    "name": "F2",
                    "midi": 41,
                    "time": 162.7317480000004,
                    "velocity": 0.25196850393700787,
                    "duration": 0.2926829999999825
                },
                {
                    "name": "A3",
                    "midi": 57,
                    "time": 162.87808950000039,
                    "velocity": 0.30708661417322836,
                    "duration": 0.14634150000000545
                },
                {
                    "name": "C#4",
                    "midi": 61,
                    "time": 163.0244310000004,
                    "velocity": 0.33858267716535434,
                    "duration": 0.5853659999999934
                },
                {
                    "name": "A#3",
                    "midi": 58,
                    "time": 163.0244310000004,
                    "velocity": 0.33858267716535434,
                    "duration": 0.5853659999999934
                },
                {
                    "name": "F3",
                    "midi": 53,
                    "time": 163.0244310000004,
                    "velocity": 0.33858267716535434,
                    "duration": 0.5853659999999934
                },
                {
                    "name": "A#1",
                    "midi": 34,
                    "time": 163.0244310000004,
                    "velocity": 0.28346456692913385,
                    "duration": 0.5853659999999934
                },
                {
                    "name": "F2",
                    "midi": 41,
                    "time": 163.0244310000004,
                    "velocity": 0.28346456692913385,
                    "duration": 0.5853659999999934
                },
                {
                    "name": "C4",
                    "midi": 60,
                    "time": 163.60979700000038,
                    "velocity": 0.2440944881889764,
                    "duration": 0.29024397500000987
                },
                {
                    "name": "F3",
                    "midi": 53,
                    "time": 163.60979700000038,
                    "velocity": 0.2440944881889764,
                    "duration": 0.29024397500000987
                },
                {
                    "name": "A3",
                    "midi": 57,
                    "time": 163.60979700000038,
                    "velocity": 0.2440944881889764,
                    "duration": 0.29024397500000987
                },
                {
                    "name": "F1",
                    "midi": 29,
                    "time": 163.60979700000038,
                    "velocity": 0.2440944881889764,
                    "duration": 0.2926830000000109
                },
                {
                    "name": "F2",
                    "midi": 41,
                    "time": 163.60979700000038,
                    "velocity": 0.2440944881889764,
                    "duration": 0.2926830000000109
                },
                {
                    "name": "F1",
                    "midi": 29,
                    "time": 163.9024800000004,
                    "velocity": 0.1889763779527559,
                    "duration": 0.2926829999999825
                },
                {
                    "name": "F2",
                    "midi": 41,
                    "time": 163.9024800000004,
                    "velocity": 0.1889763779527559,
                    "duration": 0.2926829999999825
                },
                {
                    "name": "A#1",
                    "midi": 34,
                    "time": 164.19516300000038,
                    "velocity": 0.1889763779527559,
                    "duration": 0.5853659999999934
                },
                {
                    "name": "F2",
                    "midi": 41,
                    "time": 164.19516300000038,
                    "velocity": 0.1889763779527559,
                    "duration": 0.5853659999999934
                },
                {
                    "name": "F1",
                    "midi": 29,
                    "time": 164.78052900000037,
                    "velocity": 0.15748031496062992,
                    "duration": 0.2926830000000109
                },
                {
                    "name": "F2",
                    "midi": 41,
                    "time": 164.78052900000037,
                    "velocity": 0.15748031496062992,
                    "duration": 0.2926830000000109
                },
                {
                    "name": "D#2",
                    "midi": 39,
                    "time": 165.07321200000038,
                    "velocity": 0.13385826771653545,
                    "duration": 0.2926829999999825
                },
                {
                    "name": "G#2",
                    "midi": 44,
                    "time": 165.07321200000038,
                    "velocity": 0.13385826771653545,
                    "duration": 0.2926829999999825
                },
                {
                    "name": "C#2",
                    "midi": 37,
                    "time": 165.36589500000036,
                    "velocity": 0.13385826771653545,
                    "duration": 0.8780490000000043
                },
                {
                    "name": "G#2",
                    "midi": 44,
                    "time": 165.36589500000036,
                    "velocity": 0.13385826771653545,
                    "duration": 0.8780490000000043
                },
                {
                    "name": "C#3",
                    "midi": 49,
                    "time": 166.24394400000037,
                    "velocity": 0.4251968503937008,
                    "duration": 0.14634150000000545
                },
                {
                    "name": "G#3",
                    "midi": 56,
                    "time": 166.53662700000038,
                    "velocity": 0.3937007874015748,
                    "duration": 0.14634150000000545
                },
                {
                    "name": "C#3",
                    "midi": 49,
                    "time": 166.8293100000004,
                    "velocity": 0.4251968503937008,
                    "duration": 0.14634150000000545
                },
                {
                    "name": "A3",
                    "midi": 57,
                    "time": 167.1219930000004,
                    "velocity": 0.3937007874015748,
                    "duration": 0.14634150000000545
                },
                {
                    "name": "C3",
                    "midi": 48,
                    "time": 167.4146760000004,
                    "velocity": 0.4251968503937008,
                    "duration": 0.14634150000000545
                },
                {
                    "name": "A3",
                    "midi": 57,
                    "time": 167.70735900000042,
                    "velocity": 0.4015748031496063,
                    "duration": 0.14634150000000545
                },
                {
                    "name": "C3",
                    "midi": 48,
                    "time": 168.00004200000043,
                    "velocity": 0.4251968503937008,
                    "duration": 0.14634150000000545
                },
                {
                    "name": "G#3",
                    "midi": 56,
                    "time": 168.29272500000044,
                    "velocity": 0.3937007874015748,
                    "duration": 0.14634150000000545
                },
                {
                    "name": "C#3",
                    "midi": 49,
                    "time": 168.58540800000046,
                    "velocity": 0.4330708661417323,
                    "duration": 0.14634150000000545
                },
                {
                    "name": "G#3",
                    "midi": 56,
                    "time": 168.87809100000047,
                    "velocity": 0.4015748031496063,
                    "duration": 0.14634150000000545
                },
                {
                    "name": "E3",
                    "midi": 52,
                    "time": 169.17077400000048,
                    "velocity": 0.4330708661417323,
                    "duration": 0.14634150000000545
                },
                {
                    "name": "G#3",
                    "midi": 56,
                    "time": 169.4634570000005,
                    "velocity": 0.4094488188976378,
                    "duration": 0.14634150000000545
                },
                {
                    "name": "D#3",
                    "midi": 51,
                    "time": 169.7561400000005,
                    "velocity": 0.4409448818897638,
                    "duration": 0.14634150000000545
                },
                {
                    "name": "A3",
                    "midi": 57,
                    "time": 170.0488230000005,
                    "velocity": 0.4094488188976378,
                    "duration": 0.14634150000000545
                },
                {
                    "name": "D#3",
                    "midi": 51,
                    "time": 170.34150600000052,
                    "velocity": 0.4330708661417323,
                    "duration": 0.14634150000000545
                },
                {
                    "name": "G#3",
                    "midi": 56,
                    "time": 170.63418900000053,
                    "velocity": 0.4094488188976378,
                    "duration": 0.14634150000000545
                },
                {
                    "name": "C#3",
                    "midi": 49,
                    "time": 170.92687200000054,
                    "velocity": 0.4409448818897638,
                    "duration": 0.14634150000000545
                },
                {
                    "name": "C#4",
                    "midi": 61,
                    "time": 171.21955500000055,
                    "velocity": 0.3937007874015748,
                    "duration": 0.14634150000000545
                },
                {
                    "name": "C#3",
                    "midi": 49,
                    "time": 171.51223800000056,
                    "velocity": 0.4330708661417323,
                    "duration": 0.14634150000000545
                },
                {
                    "name": "B3",
                    "midi": 59,
                    "time": 171.80492100000058,
                    "velocity": 0.4015748031496063,
                    "duration": 0.14634150000000545
                },
                {
                    "name": "F#3",
                    "midi": 54,
                    "time": 172.0976040000006,
                    "velocity": 0.44881889763779526,
                    "duration": 0.14634150000000545
                },
                {
                    "name": "A3",
                    "midi": 57,
                    "time": 172.3902870000006,
                    "velocity": 0.4409448818897638,
                    "duration": 0.14634150000000545
                },
                {
                    "name": "F#3",
                    "midi": 54,
                    "time": 172.6829700000006,
                    "velocity": 0.44881889763779526,
                    "duration": 0.14634150000000545
                },
                {
                    "name": "A3",
                    "midi": 57,
                    "time": 172.97565300000062,
                    "velocity": 0.4251968503937008,
                    "duration": 0.14634150000000545
                },
                {
                    "name": "A2",
                    "midi": 45,
                    "time": 173.26833600000063,
                    "velocity": 0.4566929133858268,
                    "duration": 0.14634150000000545
                },
                {
                    "name": "F#3",
                    "midi": 54,
                    "time": 173.56101900000064,
                    "velocity": 0.4251968503937008,
                    "duration": 0.14634150000000545
                },
                {
                    "name": "G#2",
                    "midi": 44,
                    "time": 173.85370200000065,
                    "velocity": 0.4409448818897638,
                    "duration": 0.14634150000000545
                },
                {
                    "name": "G#3",
                    "midi": 56,
                    "time": 174.14638500000066,
                    "velocity": 0.4251968503937008,
                    "duration": 0.14634150000000545
                },
                {
                    "name": "C#3",
                    "midi": 49,
                    "time": 174.43906800000067,
                    "velocity": 0.4251968503937008,
                    "duration": 0.14634150000000545
                },
                {
                    "name": "D#3",
                    "midi": 51,
                    "time": 174.73175100000068,
                    "velocity": 0.4251968503937008,
                    "duration": 0.14634150000000545
                },
                {
                    "name": "E3",
                    "midi": 52,
                    "time": 175.0244340000007,
                    "velocity": 0.4330708661417323,
                    "duration": 0.14634150000000545
                },
                {
                    "name": "G#3",
                    "midi": 56,
                    "time": 175.3171170000007,
                    "velocity": 0.4409448818897638,
                    "duration": 0.14634150000000545
                },
                {
                    "name": "C#3",
                    "midi": 49,
                    "time": 175.60980000000072,
                    "velocity": 0.4015748031496063,
                    "duration": 0.14634150000000545
                },
                {
                    "name": "G#3",
                    "midi": 56,
                    "time": 175.90248300000073,
                    "velocity": 0.3700787401574803,
                    "duration": 0.14634150000000545
                },
                {
                    "name": "C#3",
                    "midi": 49,
                    "time": 176.19516600000074,
                    "velocity": 0.4015748031496063,
                    "duration": 0.14634150000000545
                },
                {
                    "name": "A3",
                    "midi": 57,
                    "time": 176.48784900000075,
                    "velocity": 0.3700787401574803,
                    "duration": 0.14634150000000545
                },
                {
                    "name": "B2",
                    "midi": 47,
                    "time": 176.78053200000076,
                    "velocity": 0.4015748031496063,
                    "duration": 0.14634150000000545
                },
                {
                    "name": "A3",
                    "midi": 57,
                    "time": 177.07321500000077,
                    "velocity": 0.3779527559055118,
                    "duration": 0.14634150000000545
                },
                {
                    "name": "B2",
                    "midi": 47,
                    "time": 177.36589800000078,
                    "velocity": 0.4015748031496063,
                    "duration": 0.14634150000000545
                },
                {
                    "name": "G#3",
                    "midi": 56,
                    "time": 177.6585810000008,
                    "velocity": 0.3700787401574803,
                    "duration": 0.14634150000000545
                },
                {
                    "name": "E3",
                    "midi": 52,
                    "time": 177.9512640000008,
                    "velocity": 0.4094488188976378,
                    "duration": 0.14634150000000545
                },
                {
                    "name": "G#3",
                    "midi": 56,
                    "time": 178.24394700000082,
                    "velocity": 0.3779527559055118,
                    "duration": 0.14634150000000545
                },
                {
                    "name": "A2",
                    "midi": 45,
                    "time": 178.53663000000083,
                    "velocity": 0.4094488188976378,
                    "duration": 0.14634150000000545
                },
                {
                    "name": "A3",
                    "midi": 57,
                    "time": 178.82931300000084,
                    "velocity": 0.3858267716535433,
                    "duration": 0.14634150000000545
                },
                {
                    "name": "G#2",
                    "midi": 44,
                    "time": 179.12199600000085,
                    "velocity": 0.4015748031496063,
                    "duration": 0.14634150000000545
                },
                {
                    "name": "B3",
                    "midi": 59,
                    "time": 179.41467900000086,
                    "velocity": 0.3858267716535433,
                    "duration": 0.14634150000000545
                },
                {
                    "name": "G#3",
                    "midi": 56,
                    "time": 179.70736200000087,
                    "velocity": 0.4094488188976378,
                    "duration": 0.14634150000000545
                },
                {
                    "name": "B3",
                    "midi": 59,
                    "time": 180.00004500000088,
                    "velocity": 0.3858267716535433,
                    "duration": 0.14634150000000545
                },
                {
                    "name": "C#3",
                    "midi": 49,
                    "time": 180.2927280000009,
                    "velocity": 0.4094488188976378,
                    "duration": 0.14634150000000545
                },
                {
                    "name": "E3",
                    "midi": 52,
                    "time": 180.5854110000009,
                    "velocity": 0.3700787401574803,
                    "duration": 0.14634150000000545
                },
                {
                    "name": "C3",
                    "midi": 48,
                    "time": 180.8780940000009,
                    "velocity": 0.4094488188976378,
                    "duration": 0.14634150000000545
                },
                {
                    "name": "A#3",
                    "midi": 58,
                    "time": 181.17077700000092,
                    "velocity": 0.3464566929133858,
                    "duration": 0.14634150000000545
                },
                {
                    "name": "B2",
                    "midi": 47,
                    "time": 181.46346000000094,
                    "velocity": 0.3779527559055118,
                    "duration": 0.14634150000000545
                },
                {
                    "name": "B3",
                    "midi": 59,
                    "time": 181.75614300000095,
                    "velocity": 0.3543307086614173,
                    "duration": 0.14634150000000545
                },
                {
                    "name": "C3",
                    "midi": 48,
                    "time": 182.04882600000096,
                    "velocity": 0.3779527559055118,
                    "duration": 0.14634150000000545
                },
                {
                    "name": "F#3",
                    "midi": 54,
                    "time": 182.34150900000097,
                    "velocity": 0.33858267716535434,
                    "duration": 0.14634150000000545
                },
                {
                    "name": "C#3",
                    "midi": 49,
                    "time": 182.63419200000098,
                    "velocity": 0.3543307086614173,
                    "duration": 0.14634150000000545
                },
                {
                    "name": "E3",
                    "midi": 52,
                    "time": 182.926875000001,
                    "velocity": 0.30708661417322836,
                    "duration": 0.14634150000000545
                },
                {
                    "name": "A2",
                    "midi": 45,
                    "time": 183.219558000001,
                    "velocity": 0.36220472440944884,
                    "duration": 0.14634150000000545
                },
                {
                    "name": "F#3",
                    "midi": 54,
                    "time": 183.512241000001,
                    "velocity": 0.31496062992125984,
                    "duration": 0.14634150000000545
                },
                {
                    "name": "B2",
                    "midi": 47,
                    "time": 183.80492400000102,
                    "velocity": 0.36220472440944884,
                    "duration": 0.14634150000000545
                },
                {
                    "name": "G#3",
                    "midi": 56,
                    "time": 184.09760700000103,
                    "velocity": 0.33858267716535434,
                    "duration": 0.14634150000000545
                },
                {
                    "name": "B2",
                    "midi": 47,
                    "time": 184.39029000000104,
                    "velocity": 0.3543307086614173,
                    "duration": 0.14634150000000545
                },
                {
                    "name": "A3",
                    "midi": 57,
                    "time": 184.68297300000106,
                    "velocity": 0.3228346456692913,
                    "duration": 0.14634150000000545
                },
                {
                    "name": "B2",
                    "midi": 47,
                    "time": 184.97565600000107,
                    "velocity": 0.36220472440944884,
                    "duration": 0.14634150000000545
                },
                {
                    "name": "F#3",
                    "midi": 54,
                    "time": 185.26833900000108,
                    "velocity": 0.30708661417322836,
                    "duration": 0.14634150000000545
                },
                {
                    "name": "E3",
                    "midi": 52,
                    "time": 185.5610220000011,
                    "velocity": 0.3700787401574803,
                    "duration": 0.14634150000000545
                },
                {
                    "name": "F#3",
                    "midi": 54,
                    "time": 185.8537050000011,
                    "velocity": 0.3228346456692913,
                    "duration": 0.14634150000000545
                },
                {
                    "name": "G#3",
                    "midi": 56,
                    "time": 186.1463880000011,
                    "velocity": 0.3543307086614173,
                    "duration": 0.14634150000000545
                },
                {
                    "name": "B3",
                    "midi": 59,
                    "time": 186.43907100000112,
                    "velocity": 0.28346456692913385,
                    "duration": 0.14634150000000545
                },
                {
                    "name": "G#3",
                    "midi": 56,
                    "time": 186.73175400000113,
                    "velocity": 0.2677165354330709,
                    "duration": 0.14634150000000545
                },
                {
                    "name": "E4",
                    "midi": 64,
                    "time": 187.02443700000114,
                    "velocity": 0.2440944881889764,
                    "duration": 0.14634150000000545
                },
                {
                    "name": "A3",
                    "midi": 57,
                    "time": 187.31712000000115,
                    "velocity": 0.3543307086614173,
                    "duration": 0.14634150000000545
                },
                {
                    "name": "A2",
                    "midi": 45,
                    "time": 187.60980300000116,
                    "velocity": 0.31496062992125984,
                    "duration": 0.14634150000000545
                },
                {
                    "name": "B2",
                    "midi": 47,
                    "time": 187.90248600000118,
                    "velocity": 0.3228346456692913,
                    "duration": 0.14634150000000545
                },
                {
                    "name": "C#3",
                    "midi": 49,
                    "time": 188.1951690000012,
                    "velocity": 0.33070866141732286,
                    "duration": 0.14634150000000545
                },
                {
                    "name": "B2",
                    "midi": 47,
                    "time": 188.4878520000012,
                    "velocity": 0.3543307086614173,
                    "duration": 0.14634150000000545
                },
                {
                    "name": "E3",
                    "midi": 52,
                    "time": 188.7805350000012,
                    "velocity": 0.30708661417322836,
                    "duration": 0.14634150000000545
                },
                {
                    "name": "B2",
                    "midi": 47,
                    "time": 189.07321800000122,
                    "velocity": 0.33858267716535434,
                    "duration": 0.14634150000000545
                },
                {
                    "name": "G3",
                    "midi": 55,
                    "time": 189.36590100000123,
                    "velocity": 0.3228346456692913,
                    "duration": 0.14634150000000545
                },
                {
                    "name": "B2",
                    "midi": 47,
                    "time": 189.65858400000124,
                    "velocity": 0.3228346456692913,
                    "duration": 0.14634150000000545
                },
                {
                    "name": "E3",
                    "midi": 52,
                    "time": 189.95126700000125,
                    "velocity": 0.30708661417322836,
                    "duration": 0.14634150000000545
                },
                {
                    "name": "B2",
                    "midi": 47,
                    "time": 190.24395000000126,
                    "velocity": 0.3228346456692913,
                    "duration": 0.14634150000000545
                },
                {
                    "name": "D#3",
                    "midi": 51,
                    "time": 190.53663300000127,
                    "velocity": 0.29133858267716534,
                    "duration": 0.14634150000000545
                },
                {
                    "name": "E3",
                    "midi": 52,
                    "time": 190.82931600000128,
                    "velocity": 0.3779527559055118,
                    "duration": 0.2926829999999825
                },
                {
                    "name": "B2",
                    "midi": 47,
                    "time": 191.41468200000128,
                    "velocity": 0.3779527559055118,
                    "duration": 0.14634150000000545
                },
                {
                    "name": "E2",
                    "midi": 40,
                    "time": 191.56102350000128,
                    "velocity": 0.3464566929133858,
                    "duration": 0.14634150000000545
                },
                {
                    "name": "B2",
                    "midi": 47,
                    "time": 191.7073650000013,
                    "velocity": 0.3464566929133858,
                    "duration": 0.14634150000000545
                },
                {
                    "name": "E3",
                    "midi": 52,
                    "time": 191.8537065000013,
                    "velocity": 0.3543307086614173,
                    "duration": 0.14634150000000545
                },
                {
                    "name": "B2",
                    "midi": 47,
                    "time": 192.5854140000013,
                    "velocity": 0.3779527559055118,
                    "duration": 0.14634150000000545
                },
                {
                    "name": "E2",
                    "midi": 40,
                    "time": 192.7317555000013,
                    "velocity": 0.3464566929133858,
                    "duration": 0.14634150000000545
                },
                {
                    "name": "B2",
                    "midi": 47,
                    "time": 192.8780970000013,
                    "velocity": 0.3464566929133858,
                    "duration": 0.14634150000000545
                },
                {
                    "name": "F#3",
                    "midi": 54,
                    "time": 193.0244385000013,
                    "velocity": 0.3464566929133858,
                    "duration": 0.14634150000000545
                },
                {
                    "name": "E3",
                    "midi": 52,
                    "time": 193.7561460000013,
                    "velocity": 0.36220472440944884,
                    "duration": 0.14634150000000545
                },
                {
                    "name": "G#3",
                    "midi": 56,
                    "time": 193.9024875000013,
                    "velocity": 0.3700787401574803,
                    "duration": 0.14634150000000545
                },
                {
                    "name": "B3",
                    "midi": 59,
                    "time": 194.04882900000132,
                    "velocity": 0.4094488188976378,
                    "duration": 0.14634150000000545
                },
                {
                    "name": "E4",
                    "midi": 64,
                    "time": 194.19517050000132,
                    "velocity": 0.4409448818897638,
                    "duration": 0.14634150000000545
                },
                {
                    "name": "E4",
                    "midi": 64,
                    "time": 194.34151200000133,
                    "velocity": 0.4566929133858268,
                    "duration": 0.2926830000000109
                },
                {
                    "name": "C#4",
                    "midi": 61,
                    "time": 194.63419500000134,
                    "velocity": 0.4330708661417323,
                    "duration": 0.2926830000000109
                },
                {
                    "name": "C4",
                    "midi": 60,
                    "time": 194.92687800000135,
                    "velocity": 0.4094488188976378,
                    "duration": 0.2926830000000109
                },
                {
                    "name": "B3",
                    "midi": 59,
                    "time": 195.21956100000136,
                    "velocity": 0.3858267716535433,
                    "duration": 0.2926829999999825
                },
                {
                    "name": "A3",
                    "midi": 57,
                    "time": 195.51224400000135,
                    "velocity": 0.36220472440944884,
                    "duration": 0.2926830000000109
                },
                {
                    "name": "E3",
                    "midi": 52,
                    "time": 196.09761000000137,
                    "velocity": 0.3779527559055118,
                    "duration": 0.14634150000000545
                },
                {
                    "name": "A2",
                    "midi": 45,
                    "time": 196.24395150000137,
                    "velocity": 0.3464566929133858,
                    "duration": 0.14634150000000545
                },
                {
                    "name": "E3",
                    "midi": 52,
                    "time": 196.39029300000138,
                    "velocity": 0.3464566929133858,
                    "duration": 0.14634150000000545
                },
                {
                    "name": "A3",
                    "midi": 57,
                    "time": 196.53663450000138,
                    "velocity": 0.3464566929133858,
                    "duration": 0.14634150000000545
                },
                {
                    "name": "E3",
                    "midi": 52,
                    "time": 197.2683420000014,
                    "velocity": 0.3779527559055118,
                    "duration": 0.14634150000000545
                },
                {
                    "name": "A2",
                    "midi": 45,
                    "time": 197.41468350000142,
                    "velocity": 0.3228346456692913,
                    "duration": 0.14634150000000545
                },
                {
                    "name": "E3",
                    "midi": 52,
                    "time": 197.56102500000142,
                    "velocity": 0.3228346456692913,
                    "duration": 0.14634150000000545
                },
                {
                    "name": "B3",
                    "midi": 59,
                    "time": 197.70736650000143,
                    "velocity": 0.3228346456692913,
                    "duration": 0.14634150000000545
                },
                {
                    "name": "A3",
                    "midi": 57,
                    "time": 198.43907400000143,
                    "velocity": 0.3464566929133858,
                    "duration": 0.14634150000000545
                },
                {
                    "name": "C#4",
                    "midi": 61,
                    "time": 198.58541550000143,
                    "velocity": 0.3858267716535433,
                    "duration": 0.14634150000000545
                },
                {
                    "name": "E4",
                    "midi": 64,
                    "time": 198.73175700000144,
                    "velocity": 0.4251968503937008,
                    "duration": 0.14634150000000545
                },
                {
                    "name": "A4",
                    "midi": 69,
                    "time": 198.87809850000144,
                    "velocity": 0.4645669291338583,
                    "duration": 0.14634150000000545
                },
                {
                    "name": "A4",
                    "midi": 69,
                    "time": 199.02444000000145,
                    "velocity": 0.4881889763779528,
                    "duration": 0.2926830000000109
                },
                {
                    "name": "F#4",
                    "midi": 66,
                    "time": 199.31712300000146,
                    "velocity": 0.4015748031496063,
                    "duration": 0.2926830000000109
                },
                {
                    "name": "B4",
                    "midi": 71,
                    "time": 199.60980600000147,
                    "velocity": 0.4015748031496063,
                    "duration": 0.2926830000000109
                },
                {
                    "name": "B3",
                    "midi": 59,
                    "time": 199.90248900000148,
                    "velocity": 0.4015748031496063,
                    "duration": 0.2926830000000109
                },
                {
                    "name": "A4",
                    "midi": 69,
                    "time": 199.90248900000148,
                    "velocity": 0.4015748031496063,
                    "duration": 0.2926830000000109
                },
                {
                    "name": "G#3",
                    "midi": 56,
                    "time": 200.4878550000015,
                    "velocity": 0.4881889763779528,
                    "duration": 0.8780490000000327
                },
                {
                    "name": "F#3",
                    "midi": 54,
                    "time": 200.4878550000015,
                    "velocity": 0.4881889763779528,
                    "duration": 0.2926830000000109
                },
                {
                    "name": "E3",
                    "midi": 52,
                    "time": 200.7805380000015,
                    "velocity": 0.5590551181102362,
                    "duration": 0.2926830000000109
                },
                {
                    "name": "D#3",
                    "midi": 51,
                    "time": 201.07322100000152,
                    "velocity": 0.6141732283464567,
                    "duration": 0.2926830000000109
                },
                {
                    "name": "C#3",
                    "midi": 49,
                    "time": 201.36590400000154,
                    "velocity": 0.6692913385826772,
                    "duration": 0.14634150000000545
                },
                {
                    "name": "C3",
                    "midi": 48,
                    "time": 201.65858700000155,
                    "velocity": 0.6062992125984252,
                    "duration": 0.14634150000000545
                },
                {
                    "name": "C#3",
                    "midi": 49,
                    "time": 201.95127000000156,
                    "velocity": 0.5984251968503937,
                    "duration": 0.14634150000000545
                },
                {
                    "name": "E3",
                    "midi": 52,
                    "time": 202.24395300000157,
                    "velocity": 0.5984251968503937,
                    "duration": 0.14634150000000545
                },
                {
                    "name": "C3",
                    "midi": 48,
                    "time": 202.53663600000158,
                    "velocity": 0.6456692913385826,
                    "duration": 0.14634150000000545
                },
                {
                    "name": "D#3",
                    "midi": 51,
                    "time": 202.8293190000016,
                    "velocity": 0.5984251968503937,
                    "duration": 0.14634150000000545
                },
                {
                    "name": "G#3",
                    "midi": 56,
                    "time": 203.1220020000016,
                    "velocity": 0.5984251968503937,
                    "duration": 0.14634150000000545
                },
                {
                    "name": "C3",
                    "midi": 48,
                    "time": 203.4146850000016,
                    "velocity": 0.5984251968503937,
                    "duration": 0.14634150000000545
                },
                {
                    "name": "C#3",
                    "midi": 49,
                    "time": 203.70736800000162,
                    "velocity": 0.6299212598425197,
                    "duration": 0.14634150000000545
                },
                {
                    "name": "D#3",
                    "midi": 51,
                    "time": 204.00005100000163,
                    "velocity": 0.5984251968503937,
                    "duration": 0.14634150000000545
                },
                {
                    "name": "E3",
                    "midi": 52,
                    "time": 204.29273400000164,
                    "velocity": 0.5984251968503937,
                    "duration": 0.14634150000000545
                },
                {
                    "name": "C#3",
                    "midi": 49,
                    "time": 204.58541700000166,
                    "velocity": 0.5984251968503937,
                    "duration": 0.14634150000000545
                },
                {
                    "name": "D#3",
                    "midi": 51,
                    "time": 204.87810000000167,
                    "velocity": 0.5984251968503937,
                    "duration": 0.14634150000000545
                },
                {
                    "name": "A3",
                    "midi": 57,
                    "time": 205.17078300000168,
                    "velocity": 0.6535433070866141,
                    "duration": 0.14634150000000545
                },
                {
                    "name": "G#3",
                    "midi": 56,
                    "time": 205.4634660000017,
                    "velocity": 0.6377952755905512,
                    "duration": 0.14634150000000545
                },
                {
                    "name": "F#3",
                    "midi": 54,
                    "time": 205.7561490000017,
                    "velocity": 0.5984251968503937,
                    "duration": 0.14634150000000545
                },
                {
                    "name": "E3",
                    "midi": 52,
                    "time": 206.0488320000017,
                    "velocity": 0.5826771653543307,
                    "duration": 0.14634150000000545
                },
                {
                    "name": "D#3",
                    "midi": 51,
                    "time": 206.34151500000172,
                    "velocity": 0.5984251968503937,
                    "duration": 0.14634150000000545
                },
                {
                    "name": "C#3",
                    "midi": 49,
                    "time": 206.63419800000173,
                    "velocity": 0.6220472440944882,
                    "duration": 0.14634150000000545
                },
                {
                    "name": "B2",
                    "midi": 47,
                    "time": 206.92688100000174,
                    "velocity": 0.6299212598425197,
                    "duration": 0.14634150000000545
                },
                {
                    "name": "A2",
                    "midi": 45,
                    "time": 207.21956400000175,
                    "velocity": 0.6614173228346457,
                    "duration": 0.14634150000000545
                },
                {
                    "name": "F#2",
                    "midi": 42,
                    "time": 207.51224700000176,
                    "velocity": 0.6141732283464567,
                    "duration": 0.07317075000000273
                },
                {
                    "name": "G#2",
                    "midi": 44,
                    "time": 207.65858850000177,
                    "velocity": 0.6141732283464567,
                    "duration": 0.07317075000000273
                },
                {
                    "name": "A2",
                    "midi": 45,
                    "time": 207.80493000000178,
                    "velocity": 0.6535433070866141,
                    "duration": 0.14634150000000545
                },
                {
                    "name": "F#2",
                    "midi": 42,
                    "time": 208.0976130000018,
                    "velocity": 0.6220472440944882,
                    "duration": 0.14634150000000545
                },
                {
                    "name": "G#2",
                    "midi": 44,
                    "time": 208.3902960000018,
                    "velocity": 0.6692913385826772,
                    "duration": 0.14634150000000545
                },
                {
                    "name": "F#2",
                    "midi": 42,
                    "time": 208.6829790000018,
                    "velocity": 0.6299212598425197,
                    "duration": 0.07317075000000273
                },
                {
                    "name": "E2",
                    "midi": 40,
                    "time": 208.8293205000018,
                    "velocity": 0.6299212598425197,
                    "duration": 0.07317075000000273
                },
                {
                    "name": "D#2",
                    "midi": 39,
                    "time": 208.97566200000182,
                    "velocity": 0.6692913385826772,
                    "duration": 0.14634150000000545
                },
                {
                    "name": "G#2",
                    "midi": 44,
                    "time": 209.26834500000183,
                    "velocity": 0.6299212598425197,
                    "duration": 0.14634150000000545
                },
                {
                    "name": "C#2",
                    "midi": 37,
                    "time": 209.56102800000184,
                    "velocity": 0.6929133858267716,
                    "duration": 0.14634150000000545
                },
                {
                    "name": "G#2",
                    "midi": 44,
                    "time": 209.85371100000185,
                    "velocity": 0.5511811023622047,
                    "duration": 0.2926830000000109
                },
                {
                    "name": "A#2",
                    "midi": 46,
                    "time": 210.14639400000186,
                    "velocity": 0.4566929133858268,
                    "duration": 0.2926830000000109
                },
                {
                    "name": "C3",
                    "midi": 48,
                    "time": 210.43907700000187,
                    "velocity": 0.3779527559055118,
                    "duration": 0.2926830000000109
                },
                {
                    "name": "C#3",
                    "midi": 49,
                    "time": 210.73176000000188,
                    "velocity": 0.31496062992125984,
                    "duration": 0.2926830000000109
                },
                {
                    "name": "E3",
                    "midi": 52,
                    "time": 211.0244430000019,
                    "velocity": 0.29133858267716534,
                    "duration": 0.2926830000000109
                },
                {
                    "name": "D#3",
                    "midi": 51,
                    "time": 211.3171260000019,
                    "velocity": 0.2992125984251969,
                    "duration": 0.2926830000000109
                },
                {
                    "name": "C#3",
                    "midi": 49,
                    "time": 211.60980900000192,
                    "velocity": 0.29133858267716534,
                    "duration": 0.2926830000000109
                },
                {
                    "name": "B2",
                    "midi": 47,
                    "time": 211.90249200000193,
                    "velocity": 0.31496062992125984,
                    "duration": 0.2926830000000109
                },
                {
                    "name": "D#3",
                    "midi": 51,
                    "time": 212.19517500000194,
                    "velocity": 0.2992125984251969,
                    "duration": 0.2926830000000109
                },
                {
                    "name": "G#3",
                    "midi": 56,
                    "time": 212.48785800000195,
                    "velocity": 0.31496062992125984,
                    "duration": 0.2926830000000109
                },
                {
                    "name": "B2",
                    "midi": 47,
                    "time": 212.78054100000196,
                    "velocity": 0.29133858267716534,
                    "duration": 0.2926830000000109
                },
                {
                    "name": "A2",
                    "midi": 45,
                    "time": 213.07322400000197,
                    "velocity": 0.3228346456692913,
                    "duration": 0.2926830000000109
                },
                {
                    "name": "C#3",
                    "midi": 49,
                    "time": 213.36590700000198,
                    "velocity": 0.2992125984251969,
                    "duration": 0.2926830000000109
                },
                {
                    "name": "B2",
                    "midi": 47,
                    "time": 213.658590000002,
                    "velocity": 0.2992125984251969,
                    "duration": 0.2926830000000109
                },
                {
                    "name": "A2",
                    "midi": 45,
                    "time": 213.951273000002,
                    "velocity": 0.30708661417322836,
                    "duration": 0.2926830000000109
                },
                {
                    "name": "G#2",
                    "midi": 44,
                    "time": 214.24395600000202,
                    "velocity": 0.31496062992125984,
                    "duration": 0.2926830000000109
                },
                {
                    "name": "B2",
                    "midi": 47,
                    "time": 214.53663900000203,
                    "velocity": 0.30708661417322836,
                    "duration": 0.2926830000000109
                },
                {
                    "name": "E3",
                    "midi": 52,
                    "time": 214.82932200000204,
                    "velocity": 0.3228346456692913,
                    "duration": 0.2926830000000109
                },
                {
                    "name": "G#2",
                    "midi": 44,
                    "time": 215.12200500000205,
                    "velocity": 0.30708661417322836,
                    "duration": 0.2926830000000109
                },
                {
                    "name": "E2",
                    "midi": 40,
                    "time": 215.41468800000206,
                    "velocity": 0.3228346456692913,
                    "duration": 0.2926830000000109
                },
                {
                    "name": "E3",
                    "midi": 52,
                    "time": 215.70737100000207,
                    "velocity": 0.29133858267716534,
                    "duration": 0.14634150000000545
                },
                {
                    "name": "D#3",
                    "midi": 51,
                    "time": 215.85371250000208,
                    "velocity": 0.29133858267716534,
                    "duration": 0.14634150000000545
                },
                {
                    "name": "C#3",
                    "midi": 49,
                    "time": 216.00005400000208,
                    "velocity": 0.28346456692913385,
                    "duration": 0.2926830000000109
                },
                {
                    "name": "C3",
                    "midi": 48,
                    "time": 216.2927370000021,
                    "velocity": 0.2992125984251969,
                    "duration": 0.2926830000000109
                },
                {
                    "name": "B2",
                    "midi": 47,
                    "time": 216.5854200000021,
                    "velocity": 0.33858267716535434,
                    "duration": 0.2926830000000109
                },
                {
                    "name": "F#3",
                    "midi": 54,
                    "time": 216.8781030000021,
                    "velocity": 0.30708661417322836,
                    "duration": 0.2926830000000109
                },
                {
                    "name": "B3",
                    "midi": 59,
                    "time": 217.17078600000212,
                    "velocity": 0.3700787401574803,
                    "duration": 0.2926830000000109
                },
                {
                    "name": "B2",
                    "midi": 47,
                    "time": 217.46346900000214,
                    "velocity": 0.2677165354330709,
                    "duration": 0.2926830000000109
                },
                {
                    "name": "C3",
                    "midi": 48,
                    "time": 217.75615200000215,
                    "velocity": 0.28346456692913385,
                    "duration": 0.2926830000000109
                },
                {
                    "name": "C#3",
                    "midi": 49,
                    "time": 218.04883500000216,
                    "velocity": 0.2440944881889764,
                    "duration": 0.2926830000000109
                },
                {
                    "name": "G#2",
                    "midi": 44,
                    "time": 218.34151800000217,
                    "velocity": 0.28346456692913385,
                    "duration": 0.2926830000000109
                },
                {
                    "name": "A2",
                    "midi": 45,
                    "time": 218.63420100000218,
                    "velocity": 0.25196850393700787,
                    "duration": 0.2926830000000109
                },
                {
                    "name": "B2",
                    "midi": 47,
                    "time": 218.9268840000022,
                    "velocity": 0.28346456692913385,
                    "duration": 0.2926830000000109
                },
                {
                    "name": "G#3",
                    "midi": 56,
                    "time": 219.2195670000022,
                    "velocity": 0.2677165354330709,
                    "duration": 0.2926830000000109
                },
                {
                    "name": "B2",
                    "midi": 47,
                    "time": 219.5122500000022,
                    "velocity": 0.28346456692913385,
                    "duration": 0.2926830000000109
                },
                {
                    "name": "A3",
                    "midi": 57,
                    "time": 219.80493300000222,
                    "velocity": 0.25196850393700787,
                    "duration": 0.2926830000000109
                },
                {
                    "name": "B2",
                    "midi": 47,
                    "time": 220.09761600000223,
                    "velocity": 0.28346456692913385,
                    "duration": 0.2926830000000109
                },
                {
                    "name": "F#3",
                    "midi": 54,
                    "time": 220.39029900000224,
                    "velocity": 0.2440944881889764,
                    "duration": 0.2926830000000109
                },
                {
                    "name": "E3",
                    "midi": 52,
                    "time": 220.68298200000226,
                    "velocity": 0.29133858267716534,
                    "duration": 0.2926830000000109
                },
                {
                    "name": "C#3",
                    "midi": 49,
                    "time": 220.97566500000227,
                    "velocity": 0.25196850393700787,
                    "duration": 0.14634150000000545
                },
                {
                    "name": "D#3",
                    "midi": 51,
                    "time": 221.12200650000227,
                    "velocity": 0.25196850393700787,
                    "duration": 0.14634150000000545
                },
                {
                    "name": "E3",
                    "midi": 52,
                    "time": 221.26834800000228,
                    "velocity": 0.28346456692913385,
                    "duration": 0.2926830000000109
                },
                {
                    "name": "G#3",
                    "midi": 56,
                    "time": 221.5610310000023,
                    "velocity": 0.25984251968503935,
                    "duration": 0.2926830000000109
                },
                {
                    "name": "F3",
                    "midi": 53,
                    "time": 221.8537140000023,
                    "velocity": 0.28346456692913385,
                    "duration": 0.2926830000000109
                },
                {
                    "name": "C#4",
                    "midi": 61,
                    "time": 222.1463970000023,
                    "velocity": 0.25984251968503935,
                    "duration": 0.2926830000000109
                },
                {
                    "name": "F#3",
                    "midi": 54,
                    "time": 222.43908000000232,
                    "velocity": 0.28346456692913385,
                    "duration": 0.2926830000000109
                },
                {
                    "name": "F#2",
                    "midi": 42,
                    "time": 222.73176300000233,
                    "velocity": 0.25196850393700787,
                    "duration": 0.2926830000000109
                },
                {
                    "name": "G#2",
                    "midi": 44,
                    "time": 223.02444600000234,
                    "velocity": 0.25196850393700787,
                    "duration": 0.2926830000000109
                },
                {
                    "name": "A2",
                    "midi": 45,
                    "time": 223.31712900000235,
                    "velocity": 0.25984251968503935,
                    "duration": 0.2926830000000109
                },
                {
                    "name": "G#2",
                    "midi": 44,
                    "time": 223.60981200000236,
                    "velocity": 0.28346456692913385,
                    "duration": 0.2926830000000109
                },
                {
                    "name": "C#3",
                    "midi": 49,
                    "time": 223.90249500000238,
                    "velocity": 0.2440944881889764,
                    "duration": 0.2926830000000109
                },
                {
                    "name": "G#2",
                    "midi": 44,
                    "time": 224.1951780000024,
                    "velocity": 0.2677165354330709,
                    "duration": 0.2926830000000109
                },
                {
                    "name": "E3",
                    "midi": 52,
                    "time": 224.4878610000024,
                    "velocity": 0.25196850393700787,
                    "duration": 0.2926830000000109
                },
                {
                    "name": "G#2",
                    "midi": 44,
                    "time": 224.7805440000024,
                    "velocity": 0.25196850393700787,
                    "duration": 0.2926830000000109
                },
                {
                    "name": "C#3",
                    "midi": 49,
                    "time": 225.07322700000242,
                    "velocity": 0.2440944881889764,
                    "duration": 0.2926830000000109
                },
                {
                    "name": "G#2",
                    "midi": 44,
                    "time": 225.36591000000243,
                    "velocity": 0.25196850393700787,
                    "duration": 0.2926830000000109
                },
                {
                    "name": "C3",
                    "midi": 48,
                    "time": 225.65859300000244,
                    "velocity": 0.2283464566929134,
                    "duration": 0.2926830000000109
                },
                {
                    "name": "C#3",
                    "midi": 49,
                    "time": 225.95127600000245,
                    "velocity": 0.2992125984251969,
                    "duration": 0.2926830000000109
                },
                {
                    "name": "G#2",
                    "midi": 44,
                    "time": 226.53664200000247,
                    "velocity": 0.2992125984251969,
                    "duration": 0.14634149999997703
                },
                {
                    "name": "C#2",
                    "midi": 37,
                    "time": 226.68298350000245,
                    "velocity": 0.2755905511811024,
                    "duration": 0.14634150000000545
                },
                {
                    "name": "G#2",
                    "midi": 44,
                    "time": 226.82932500000246,
                    "velocity": 0.2755905511811024,
                    "duration": 0.14634150000000545
                },
                {
                    "name": "C#3",
                    "midi": 49,
                    "time": 226.97566650000246,
                    "velocity": 0.28346456692913385,
                    "duration": 0.14634150000000545
                },
                {
                    "name": "A2",
                    "midi": 45,
                    "time": 227.12200800000247,
                    "velocity": 0.2992125984251969,
                    "duration": 0.2926830000000109
                },
                {
                    "name": "E2",
                    "midi": 40,
                    "time": 227.7073740000025,
                    "velocity": 0.2992125984251969,
                    "duration": 0.14634150000000545
                },
                {
                    "name": "A1",
                    "midi": 33,
                    "time": 227.8537155000025,
                    "velocity": 0.2755905511811024,
                    "duration": 0.14634150000000545
                },
                {
                    "name": "E2",
                    "midi": 40,
                    "time": 228.0000570000025,
                    "velocity": 0.2755905511811024,
                    "duration": 0.14634150000000545
                },
                {
                    "name": "A2",
                    "midi": 45,
                    "time": 228.1463985000025,
                    "velocity": 0.2755905511811024,
                    "duration": 0.14634150000000545
                },
                {
                    "name": "F#2",
                    "midi": 42,
                    "time": 228.2927400000025,
                    "velocity": 0.2992125984251969,
                    "duration": 0.2926830000000109
                },
                {
                    "name": "D3",
                    "midi": 50,
                    "time": 228.87810600000253,
                    "velocity": 0.28346456692913385,
                    "duration": 0.14634150000000545
                },
                {
                    "name": "F#3",
                    "midi": 54,
                    "time": 229.02444750000254,
                    "velocity": 0.29133858267716534,
                    "duration": 0.14634150000000545
                },
                {
                    "name": "A3",
                    "midi": 57,
                    "time": 229.17078900000254,
                    "velocity": 0.3228346456692913,
                    "duration": 0.14634150000000545
                },
                {
                    "name": "D4",
                    "midi": 62,
                    "time": 229.31713050000255,
                    "velocity": 0.3464566929133858,
                    "duration": 0.14634150000000545
                },
                {
                    "name": "F#4",
                    "midi": 66,
                    "time": 229.46347200000255,
                    "velocity": 0.36220472440944884,
                    "duration": 0.2926829999999825
                },
                {
                    "name": "F#3",
                    "midi": 54,
                    "time": 229.75615500000254,
                    "velocity": 0.3464566929133858,
                    "duration": 0.2926830000000109
                },
                {
                    "name": "D4",
                    "midi": 62,
                    "time": 229.75615500000254,
                    "velocity": 0.3464566929133858,
                    "duration": 0.2926830000000109
                },
                {
                    "name": "G#3",
                    "midi": 56,
                    "time": 230.04883800000255,
                    "velocity": 0.3228346456692913,
                    "duration": 0.2926830000000109
                },
                {
                    "name": "E4",
                    "midi": 64,
                    "time": 230.04883800000255,
                    "velocity": 0.3228346456692913,
                    "duration": 0.2926830000000109
                },
                {
                    "name": "G#3",
                    "midi": 56,
                    "time": 230.34152100000256,
                    "velocity": 0.30708661417322836,
                    "duration": 0.2926830000000109
                },
                {
                    "name": "F#4",
                    "midi": 66,
                    "time": 230.34152100000256,
                    "velocity": 0.30708661417322836,
                    "duration": 0.2926830000000109
                },
                {
                    "name": "E4",
                    "midi": 64,
                    "time": 230.63420400000257,
                    "velocity": 0.28346456692913385,
                    "duration": 0.14024393750000286
                },
                {
                    "name": "C#4",
                    "midi": 61,
                    "time": 230.63420400000257,
                    "velocity": 0.28346456692913385,
                    "duration": 0.2926830000000109
                },
                {
                    "name": "G#3",
                    "midi": 56,
                    "time": 231.2195700000026,
                    "velocity": 0.2992125984251969,
                    "duration": 0.14634150000000545
                },
                {
                    "name": "C#3",
                    "midi": 49,
                    "time": 231.3659115000026,
                    "velocity": 0.2755905511811024,
                    "duration": 0.14634150000000545
                },
                {
                    "name": "G#3",
                    "midi": 56,
                    "time": 231.5122530000026,
                    "velocity": 0.2755905511811024,
                    "duration": 0.14634150000000545
                },
                {
                    "name": "C#4",
                    "midi": 61,
                    "time": 231.6585945000026,
                    "velocity": 0.2755905511811024,
                    "duration": 0.14634150000000545
                },
                {
                    "name": "A3",
                    "midi": 57,
                    "time": 231.8049360000026,
                    "velocity": 0.28346456692913385,
                    "duration": 0.2926830000000109
                },
                {
                    "name": "E3",
                    "midi": 52,
                    "time": 232.39030200000263,
                    "velocity": 0.2992125984251969,
                    "duration": 0.14634150000000545
                },
                {
                    "name": "A2",
                    "midi": 45,
                    "time": 232.53664350000264,
                    "velocity": 0.25196850393700787,
                    "duration": 0.14634150000000545
                },
                {
                    "name": "E3",
                    "midi": 52,
                    "time": 232.68298500000265,
                    "velocity": 0.25196850393700787,
                    "duration": 0.14634150000000545
                },
                {
                    "name": "A3",
                    "midi": 57,
                    "time": 232.82932650000265,
                    "velocity": 0.25196850393700787,
                    "duration": 0.14634150000000545
                },
                {
                    "name": "F#3",
                    "midi": 54,
                    "time": 232.97566800000266,
                    "velocity": 0.2992125984251969,
                    "duration": 0.2926829999999825
                },
                {
                    "name": "A3",
                    "midi": 57,
                    "time": 233.26835100000264,
                    "velocity": 0.3228346456692913,
                    "duration": 0.14634150000000545
                },
                {
                    "name": "D4",
                    "midi": 62,
                    "time": 233.41469250000264,
                    "velocity": 0.3700787401574803,
                    "duration": 0.14634150000000545
                },
                {
                    "name": "F#4",
                    "midi": 66,
                    "time": 233.56103400000265,
                    "velocity": 0.41732283464566927,
                    "duration": 0.14634150000000545
                },
                {
                    "name": "D4",
                    "midi": 62,
                    "time": 233.70737550000266,
                    "velocity": 0.3937007874015748,
                    "duration": 0.14634150000000545
                },
                {
                    "name": "A3",
                    "midi": 57,
                    "time": 233.85371700000266,
                    "velocity": 0.3779527559055118,
                    "duration": 0.14634150000000545
                },
                {
                    "name": "F#3",
                    "midi": 54,
                    "time": 234.00005850000267,
                    "velocity": 0.36220472440944884,
                    "duration": 0.14634150000000545
                },
                {
                    "name": "G#3",
                    "midi": 56,
                    "time": 234.14640000000267,
                    "velocity": 0.3464566929133858,
                    "duration": 0.2926829999999825
                },
                {
                    "name": "G#3",
                    "midi": 56,
                    "time": 234.43908300000265,
                    "velocity": 0.30708661417322836,
                    "duration": 0.2926830000000109
                },
                {
                    "name": "G#3",
                    "midi": 56,
                    "time": 234.73176600000266,
                    "velocity": 0.2992125984251969,
                    "duration": 0.2926830000000109
                },
                {
                    "name": "G#3",
                    "midi": 56,
                    "time": 235.02444900000268,
                    "velocity": 0.29133858267716534,
                    "duration": 0.2926830000000109
                },
                {
                    "name": "G#3",
                    "midi": 56,
                    "time": 235.3171320000027,
                    "velocity": 0.2755905511811024,
                    "duration": 0.5853660000000218
                },
                {
                    "name": "G#2",
                    "midi": 44,
                    "time": 235.6098150000027,
                    "velocity": 0.25196850393700787,
                    "duration": 0.2926830000000109
                },
                {
                    "name": "G#2",
                    "midi": 44,
                    "time": 235.9024980000027,
                    "velocity": 0.2125984251968504,
                    "duration": 0.2926830000000109
                },
                {
                    "name": "G#2",
                    "midi": 44,
                    "time": 236.19518100000272,
                    "velocity": 0.1889763779527559,
                    "duration": 0.2926830000000109
                },
                {
                    "name": "C#3",
                    "midi": 49,
                    "time": 237.65859600000272,
                    "velocity": 0.11023622047244094,
                    "duration": 0.2926830000000109
                },
                {
                    "name": "G#3",
                    "midi": 56,
                    "time": 237.65859600000272,
                    "velocity": 0.11023622047244094,
                    "duration": 0.2926830000000109
                },
                {
                    "name": "C#4",
                    "midi": 61,
                    "time": 237.65859600000272,
                    "velocity": 0.11023622047244094,
                    "duration": 0.2926830000000109
                },
                {
                    "name": "C#3",
                    "midi": 49,
                    "time": 237.95127900000273,
                    "velocity": 0.11023622047244094,
                    "duration": 0.5853659999999934
                },
                {
                    "name": "G#3",
                    "midi": 56,
                    "time": 237.95127900000273,
                    "velocity": 0.11023622047244094,
                    "duration": 0.5853659999999934
                },
                {
                    "name": "C#4",
                    "midi": 61,
                    "time": 237.95127900000273,
                    "velocity": 0.11023622047244094,
                    "duration": 0.5853659999999934
                },
                {
                    "name": "C#3",
                    "midi": 49,
                    "time": 238.53664500000272,
                    "velocity": 0.09448818897637795,
                    "duration": 0.2926830000000109
                },
                {
                    "name": "G#3",
                    "midi": 56,
                    "time": 238.53664500000272,
                    "velocity": 0.09448818897637795,
                    "duration": 0.2926830000000109
                },
                {
                    "name": "C#4",
                    "midi": 61,
                    "time": 238.53664500000272,
                    "velocity": 0.09448818897637795,
                    "duration": 0.2926830000000109
                },
                {
                    "name": "C#3",
                    "midi": 49,
                    "time": 238.82932800000273,
                    "velocity": 0.11023622047244094,
                    "duration": 0.2926830000000109
                },
                {
                    "name": "G#3",
                    "midi": 56,
                    "time": 238.82932800000273,
                    "velocity": 0.11023622047244094,
                    "duration": 0.2926830000000109
                },
                {
                    "name": "C#4",
                    "midi": 61,
                    "time": 238.82932800000273,
                    "velocity": 0.11023622047244094,
                    "duration": 0.2926830000000109
                },
                {
                    "name": "C#3",
                    "midi": 49,
                    "time": 239.12201100000274,
                    "velocity": 0.11023622047244094,
                    "duration": 0.5853659999999934
                },
                {
                    "name": "G#3",
                    "midi": 56,
                    "time": 239.12201100000274,
                    "velocity": 0.11023622047244094,
                    "duration": 0.5853659999999934
                },
                {
                    "name": "C#4",
                    "midi": 61,
                    "time": 239.12201100000274,
                    "velocity": 0.11023622047244094,
                    "duration": 0.5853659999999934
                },
                {
                    "name": "C#3",
                    "midi": 49,
                    "time": 239.70737700000274,
                    "velocity": 0.11023622047244094,
                    "duration": 0.2926830000000109
                },
                {
                    "name": "G#3",
                    "midi": 56,
                    "time": 239.70737700000274,
                    "velocity": 0.11023622047244094,
                    "duration": 0.2926830000000109
                },
                {
                    "name": "C#4",
                    "midi": 61,
                    "time": 239.70737700000274,
                    "velocity": 0.11023622047244094,
                    "duration": 0.2926830000000109
                },
                {
                    "name": "C#3",
                    "midi": 49,
                    "time": 240.00006000000275,
                    "velocity": 0.09448818897637795,
                    "duration": 0.5853659999999934
                },
                {
                    "name": "G#3",
                    "midi": 56,
                    "time": 240.00006000000275,
                    "velocity": 0.09448818897637795,
                    "duration": 0.5853659999999934
                },
                {
                    "name": "C#4",
                    "midi": 61,
                    "time": 240.00006000000275,
                    "velocity": 0.09448818897637795,
                    "duration": 0.5853659999999934
                },
                {
                    "name": "F#3",
                    "midi": 54,
                    "time": 240.58542600000274,
                    "velocity": 0.1889763779527559,
                    "duration": 0.14634150000000545
                },
                {
                    "name": "G#2",
                    "midi": 44,
                    "time": 240.58542600000274,
                    "velocity": 0.1889763779527559,
                    "duration": 0.2926830000000109
                },
                {
                    "name": "D#4",
                    "midi": 63,
                    "time": 240.73176750000275,
                    "velocity": 0.15748031496062992,
                    "duration": 0.14634150000000545
                },
                {
                    "name": "D#3",
                    "midi": 51,
                    "time": 240.87810900000275,
                    "velocity": 0.1889763779527559,
                    "duration": 0.14634150000000545
                },
                {
                    "name": "G#2",
                    "midi": 44,
                    "time": 240.87810900000275,
                    "velocity": 0.1889763779527559,
                    "duration": 0.2926830000000109
                },
                {
                    "name": "C4",
                    "midi": 60,
                    "time": 241.02445050000276,
                    "velocity": 0.14960629921259844,
                    "duration": 0.14634150000000545
                },
                {
                    "name": "E3",
                    "midi": 52,
                    "time": 241.17079200000276,
                    "velocity": 0.2125984251968504,
                    "duration": 0.14634150000000545
                },
                {
                    "name": "G#2",
                    "midi": 44,
                    "time": 241.17079200000276,
                    "velocity": 0.2125984251968504,
                    "duration": 0.2926830000000109
                },
                {
                    "name": "C#4",
                    "midi": 61,
                    "time": 241.31713350000277,
                    "velocity": 0.1732283464566929,
                    "duration": 0.14634150000000545
                },
                {
                    "name": "G#3",
                    "midi": 56,
                    "time": 241.46347500000277,
                    "velocity": 0.2204724409448819,
                    "duration": 0.14634150000000545
                },
                {
                    "name": "G#2",
                    "midi": 44,
                    "time": 241.46347500000277,
                    "velocity": 0.2204724409448819,
                    "duration": 0.2926830000000109
                },
                {
                    "name": "E4",
                    "midi": 64,
                    "time": 241.60981650000278,
                    "velocity": 0.1968503937007874,
                    "duration": 0.14634150000000545
                },
                {
                    "name": "F#3",
                    "midi": 54,
                    "time": 241.75615800000278,
                    "velocity": 0.18110236220472442,
                    "duration": 0.14634150000000545
                },
                {
                    "name": "G#2",
                    "midi": 44,
                    "time": 241.75615800000278,
                    "velocity": 0.18110236220472442,
                    "duration": 0.2926830000000109
                },
                {
                    "name": "D#4",
                    "midi": 63,
                    "time": 241.9024995000028,
                    "velocity": 0.14960629921259844,
                    "duration": 0.14634150000000545
                },
                {
                    "name": "D#3",
                    "midi": 51,
                    "time": 242.0488410000028,
                    "velocity": 0.1732283464566929,
                    "duration": 0.14634150000000545
                },
                {
                    "name": "G#2",
                    "midi": 44,
                    "time": 242.0488410000028,
                    "velocity": 0.1732283464566929,
                    "duration": 0.2926830000000109
                },
                {
                    "name": "C4",
                    "midi": 60,
                    "time": 242.1951825000028,
                    "velocity": 0.13385826771653545,
                    "duration": 0.14634150000000545
                },
                {
                    "name": "C#2",
                    "midi": 37,
                    "time": 242.3415240000028,
                    "velocity": 0.11023622047244094,
                    "duration": 1.1707320000000152
                },
                {
                    "name": "G#2",
                    "midi": 44,
                    "time": 242.3415240000028,
                    "velocity": 0.11023622047244094,
                    "duration": 1.1707320000000152
                },
                {
                    "name": "C#3",
                    "midi": 49,
                    "time": 242.3415240000028,
                    "velocity": 0.11023622047244094,
                    "duration": 1.1707320000000152
                },
                {
                    "name": "E3",
                    "midi": 52,
                    "time": 242.3415240000028,
                    "velocity": 0.11023622047244094,
                    "duration": 1.1707320000000152
                },
                {
                    "name": "G#3",
                    "midi": 56,
                    "time": 242.3415240000028,
                    "velocity": 0.11023622047244094,
                    "duration": 1.1707320000000152
                },
                {
                    "name": "C#4",
                    "midi": 61,
                    "time": 242.3415240000028,
                    "velocity": 0.13385826771653545,
                    "duration": 1.1707320000000152
                }
            ],
            "controlChanges": {
                "7": [
                    {
                        "number": 7,
                        "time": 0,
                        "value": 0.7874015748031497
                    }
                ],
                "10": [
                    {
                        "number": 10,
                        "time": 0,
                        "value": 0.5039370078740157
                    }
                ],
                "64": [
                    {
                        "number": 64,
                        "time": 0,
                        "value": 0
                    },
                    {
                        "number": 64,
                        "time": 25.825616212499902,
                        "value": 1
                    },
                    {
                        "number": 64,
                        "time": 26.3500065874999,
                        "value": 0
                    },
                    {
                        "number": 64,
                        "time": 26.462201737499903,
                        "value": 1
                    },
                    {
                        "number": 64,
                        "time": 26.9268359999999,
                        "value": 0
                    },
                    {
                        "number": 64,
                        "time": 27.0475677374999,
                        "value": 1
                    },
                    {
                        "number": 64,
                        "time": 27.5219580999999,
                        "value": 0
                    },
                    {
                        "number": 64,
                        "time": 27.6073239749999,
                        "value": 1
                    },
                    {
                        "number": 64,
                        "time": 28.097567999999896,
                        "value": 0
                    },
                    {
                        "number": 64,
                        "time": 28.201226562499897,
                        "value": 1
                    },
                    {
                        "number": 64,
                        "time": 29.26829999999989,
                        "value": 0
                    },
                    {
                        "number": 64,
                        "time": 29.35488538749989,
                        "value": 1
                    },
                    {
                        "number": 64,
                        "time": 29.86220258749989,
                        "value": 0
                    },
                    {
                        "number": 64,
                        "time": 30.517080799999892,
                        "value": 1
                    },
                    {
                        "number": 64,
                        "time": 31.609763999999885,
                        "value": 0
                    },
                    {
                        "number": 64,
                        "time": 31.735373787499885,
                        "value": 1
                    },
                    {
                        "number": 64,
                        "time": 32.78659356249988,
                        "value": 0
                    },
                    {
                        "number": 64,
                        "time": 32.93537408749988,
                        "value": 1
                    },
                    {
                        "number": 64,
                        "time": 33.95122799999987,
                        "value": 0
                    },
                    {
                        "number": 64,
                        "time": 34.02927679999987,
                        "value": 1
                    },
                    {
                        "number": 64,
                        "time": 34.56220376249986,
                        "value": 0
                    },
                    {
                        "number": 64,
                        "time": 60.8780639999996,
                        "value": 1
                    },
                    {
                        "number": 64,
                        "time": 61.47196658749959,
                        "value": 0
                    },
                    {
                        "number": 64,
                        "time": 61.567088562499585,
                        "value": 1
                    },
                    {
                        "number": 64,
                        "time": 62.058552099999574,
                        "value": 0
                    },
                    {
                        "number": 64,
                        "time": 62.16952773749957,
                        "value": 1
                    },
                    {
                        "number": 64,
                        "time": 62.64757663749957,
                        "value": 0
                    },
                    {
                        "number": 64,
                        "time": 62.72074738749957,
                        "value": 1
                    },
                    {
                        "number": 64,
                        "time": 63.21952799999956,
                        "value": 0
                    },
                    {
                        "number": 64,
                        "time": 63.31708899999956,
                        "value": 1
                    },
                    {
                        "number": 64,
                        "time": 63.818308637499555,
                        "value": 0
                    },
                    {
                        "number": 64,
                        "time": 63.90977207499956,
                        "value": 1
                    },
                    {
                        "number": 64,
                        "time": 64.39513804999957,
                        "value": 0
                    },
                    {
                        "number": 64,
                        "time": 64.48172343749957,
                        "value": 1
                    },
                    {
                        "number": 64,
                        "time": 64.98904063749957,
                        "value": 0
                    },
                    {
                        "number": 64,
                        "time": 65.11586993749957,
                        "value": 1
                    },
                    {
                        "number": 64,
                        "time": 65.27806509999957,
                        "value": 0
                    },
                    {
                        "number": 64,
                        "time": 65.36586999999956,
                        "value": 1
                    },
                    {
                        "number": 64,
                        "time": 65.56099199999956,
                        "value": 0
                    },
                    {
                        "number": 64,
                        "time": 65.69026032499956,
                        "value": 1
                    },
                    {
                        "number": 64,
                        "time": 66.16099214999956,
                        "value": 0
                    },
                    {
                        "number": 64,
                        "time": 66.28416291249955,
                        "value": 1
                    },
                    {
                        "number": 64,
                        "time": 66.73782156249958,
                        "value": 0
                    },
                    {
                        "number": 64,
                        "time": 66.82684597499957,
                        "value": 1
                    },
                    {
                        "number": 64,
                        "time": 67.32562658749957,
                        "value": 0
                    },
                    {
                        "number": 64,
                        "time": 67.43782173749958,
                        "value": 1
                    },
                    {
                        "number": 64,
                        "time": 67.90977307499959,
                        "value": 0
                    },
                    {
                        "number": 64,
                        "time": 68.0146511499996,
                        "value": 1
                    },
                    {
                        "number": 64,
                        "time": 69.07562702499963,
                        "value": 0
                    },
                    {
                        "number": 64,
                        "time": 69.16465143749963,
                        "value": 1
                    },
                    {
                        "number": 64,
                        "time": 69.67440766249963,
                        "value": 0
                    },
                    {
                        "number": 64,
                        "time": 69.76343207499963,
                        "value": 1
                    },
                    {
                        "number": 64,
                        "time": 69.95733456249963,
                        "value": 0
                    },
                    {
                        "number": 64,
                        "time": 70.02806628749963,
                        "value": 1
                    },
                    {
                        "number": 64,
                        "time": 70.24391999999963,
                        "value": 0
                    },
                    {
                        "number": 64,
                        "time": 70.33538343749963,
                        "value": 1
                    },
                    {
                        "number": 64,
                        "time": 70.54513958749963,
                        "value": 0
                    },
                    {
                        "number": 64,
                        "time": 70.59270057499964,
                        "value": 1
                    },
                    {
                        "number": 64,
                        "time": 70.85001771249964,
                        "value": 0
                    },
                    {
                        "number": 64,
                        "time": 70.92074943749964,
                        "value": 1
                    },
                    {
                        "number": 64,
                        "time": 71.13294461249964,
                        "value": 0
                    },
                    {
                        "number": 64,
                        "time": 71.20611536249965,
                        "value": 1
                    },
                    {
                        "number": 64,
                        "time": 71.41465199999965,
                        "value": 0
                    },
                    {
                        "number": 64,
                        "time": 72.62440839999965,
                        "value": 1
                    },
                    {
                        "number": 64,
                        "time": 72.89148163749965,
                        "value": 0
                    },
                    {
                        "number": 64,
                        "time": 72.98172556249965,
                        "value": 1
                    },
                    {
                        "number": 64,
                        "time": 73.46465251249965,
                        "value": 0
                    },
                    {
                        "number": 64,
                        "time": 73.79514039999965,
                        "value": 1
                    },
                    {
                        "number": 64,
                        "time": 74.05733558749965,
                        "value": 0
                    },
                    {
                        "number": 64,
                        "time": 74.19514049999965,
                        "value": 1
                    },
                    {
                        "number": 64,
                        "time": 74.63782353749966,
                        "value": 0
                    },
                    {
                        "number": 64,
                        "time": 75.00367728749967,
                        "value": 1
                    },
                    {
                        "number": 64,
                        "time": 75.23294563749968,
                        "value": 0
                    },
                    {
                        "number": 64,
                        "time": 75.42928714999968,
                        "value": 1
                    },
                    {
                        "number": 64,
                        "time": 75.81221407499969,
                        "value": 0
                    },
                    {
                        "number": 64,
                        "time": 76.14514098749969,
                        "value": 1
                    },
                    {
                        "number": 64,
                        "time": 76.3975800749997,
                        "value": 0
                    },
                    {
                        "number": 64,
                        "time": 76.4975800999997,
                        "value": 1
                    },
                    {
                        "number": 64,
                        "time": 76.9841655874997,
                        "value": 0
                    },
                    {
                        "number": 64,
                        "time": 77.31587298749972,
                        "value": 1
                    },
                    {
                        "number": 64,
                        "time": 77.56587304999972,
                        "value": 0
                    },
                    {
                        "number": 64,
                        "time": 77.71587308749973,
                        "value": 1
                    },
                    {
                        "number": 64,
                        "time": 78.15001953749973,
                        "value": 0
                    },
                    {
                        "number": 64,
                        "time": 78.47806839999974,
                        "value": 1
                    },
                    {
                        "number": 64,
                        "time": 78.73416602499974,
                        "value": 0
                    },
                    {
                        "number": 64,
                        "time": 78.86953191249974,
                        "value": 1
                    },
                    {
                        "number": 64,
                        "time": 79.32197104999975,
                        "value": 0
                    },
                    {
                        "number": 64,
                        "time": 79.67928821249976,
                        "value": 1
                    },
                    {
                        "number": 64,
                        "time": 79.91343461249976,
                        "value": 0
                    },
                    {
                        "number": 64,
                        "time": 80.00001999999975,
                        "value": 1
                    },
                    {
                        "number": 64,
                        "time": 80.50002012499975,
                        "value": 0
                    },
                    {
                        "number": 64,
                        "time": 80.56465428749975,
                        "value": 1
                    },
                    {
                        "number": 64,
                        "time": 80.78416653749976,
                        "value": 0
                    },
                    {
                        "number": 64,
                        "time": 80.89270314999976,
                        "value": 1
                    },
                    {
                        "number": 64,
                        "time": 81.08660563749977,
                        "value": 0
                    },
                    {
                        "number": 64,
                        "time": 81.26343494999978,
                        "value": 1
                    },
                    {
                        "number": 64,
                        "time": 81.95123999999977,
                        "value": 0
                    },
                    {
                        "number": 64,
                        "time": 82.06343514999978,
                        "value": 1
                    },
                    {
                        "number": 64,
                        "time": 82.26953276249978,
                        "value": 0
                    },
                    {
                        "number": 64,
                        "time": 82.36465473749978,
                        "value": 1
                    },
                    {
                        "number": 64,
                        "time": 82.83294753749978,
                        "value": 0
                    },
                    {
                        "number": 64,
                        "time": 83.16587444999978,
                        "value": 1
                    },
                    {
                        "number": 64,
                        "time": 83.42319158749979,
                        "value": 0
                    },
                    {
                        "number": 64,
                        "time": 83.52685014999979,
                        "value": 1
                    },
                    {
                        "number": 64,
                        "time": 84.0134356374998,
                        "value": 0
                    },
                    {
                        "number": 64,
                        "time": 84.3512405999998,
                        "value": 1
                    },
                    {
                        "number": 64,
                        "time": 84.5975821249998,
                        "value": 0
                    },
                    {
                        "number": 64,
                        "time": 84.7024601999998,
                        "value": 1
                    },
                    {
                        "number": 64,
                        "time": 85.18172861249981,
                        "value": 0
                    },
                    {
                        "number": 64,
                        "time": 85.26465546249982,
                        "value": 1
                    },
                    {
                        "number": 64,
                        "time": 85.46709453749982,
                        "value": 0
                    },
                    {
                        "number": 64,
                        "time": 85.55124089999981,
                        "value": 1
                    },
                    {
                        "number": 64,
                        "time": 85.76221656249982,
                        "value": 0
                    },
                    {
                        "number": 64,
                        "time": 85.86221658749982,
                        "value": 1
                    },
                    {
                        "number": 64,
                        "time": 86.63416799999982,
                        "value": 0
                    },
                    {
                        "number": 64,
                        "time": 86.69514362499982,
                        "value": 1
                    },
                    {
                        "number": 64,
                        "time": 86.93294856249982,
                        "value": 0
                    },
                    {
                        "number": 64,
                        "time": 87.05246078749981,
                        "value": 1
                    },
                    {
                        "number": 64,
                        "time": 87.51709504999981,
                        "value": 0
                    },
                    {
                        "number": 64,
                        "time": 87.84392439999982,
                        "value": 1
                    },
                    {
                        "number": 64,
                        "time": 88.10368056249982,
                        "value": 0
                    },
                    {
                        "number": 64,
                        "time": 88.22319278749981,
                        "value": 1
                    },
                    {
                        "number": 64,
                        "time": 88.69148558749981,
                        "value": 0
                    },
                    {
                        "number": 64,
                        "time": 89.04514421249982,
                        "value": 1
                    },
                    {
                        "number": 64,
                        "time": 89.27441256249982,
                        "value": 0
                    },
                    {
                        "number": 64,
                        "time": 89.45002236249982,
                        "value": 1
                    },
                    {
                        "number": 64,
                        "time": 89.85977856249983,
                        "value": 0
                    },
                    {
                        "number": 64,
                        "time": 90.19026644999983,
                        "value": 1
                    },
                    {
                        "number": 64,
                        "time": 90.44758358749984,
                        "value": 0
                    },
                    {
                        "number": 64,
                        "time": 90.56465678749983,
                        "value": 1
                    },
                    {
                        "number": 64,
                        "time": 91.03538861249983,
                        "value": 0
                    },
                    {
                        "number": 64,
                        "time": 91.36099844999984,
                        "value": 1
                    },
                    {
                        "number": 64,
                        "time": 91.62197412499985,
                        "value": 0
                    },
                    {
                        "number": 64,
                        "time": 91.76099854999985,
                        "value": 1
                    },
                    {
                        "number": 64,
                        "time": 92.19880353749986,
                        "value": 0
                    },
                    {
                        "number": 64,
                        "time": 92.54880362499986,
                        "value": 1
                    },
                    {
                        "number": 64,
                        "time": 92.78660856249986,
                        "value": 0
                    },
                    {
                        "number": 64,
                        "time": 92.89270614999987,
                        "value": 1
                    },
                    {
                        "number": 64,
                        "time": 93.37807212499987,
                        "value": 0
                    },
                    {
                        "number": 64,
                        "time": 93.74270636249987,
                        "value": 1
                    },
                    {
                        "number": 64,
                        "time": 93.96465763749988,
                        "value": 0
                    },
                    {
                        "number": 64,
                        "time": 94.06343814999988,
                        "value": 1
                    },
                    {
                        "number": 64,
                        "time": 94.54026753749989,
                        "value": 0
                    },
                    {
                        "number": 64,
                        "time": 94.64880414999989,
                        "value": 1
                    },
                    {
                        "number": 64,
                        "time": 94.8353895624999,
                        "value": 0
                    },
                    {
                        "number": 64,
                        "time": 94.9670969124999,
                        "value": 1
                    },
                    {
                        "number": 64,
                        "time": 95.1305115874999,
                        "value": 0
                    },
                    {
                        "number": 64,
                        "time": 95.2768530874999,
                        "value": 1
                    },
                    {
                        "number": 64,
                        "time": 96.0000239999999,
                        "value": 0
                    },
                    {
                        "number": 64,
                        "time": 96.1634386749999,
                        "value": 1
                    },
                    {
                        "number": 64,
                        "time": 96.30978017499989,
                        "value": 0
                    },
                    {
                        "number": 64,
                        "time": 96.41343873749989,
                        "value": 1
                    },
                    {
                        "number": 64,
                        "time": 96.8927071499999,
                        "value": 0
                    },
                    {
                        "number": 64,
                        "time": 97.2402682124999,
                        "value": 1
                    },
                    {
                        "number": 64,
                        "time": 97.4768536374999,
                        "value": 0
                    },
                    {
                        "number": 64,
                        "time": 97.5927073249999,
                        "value": 1
                    },
                    {
                        "number": 64,
                        "time": 98.0573415874999,
                        "value": 0
                    },
                    {
                        "number": 64,
                        "time": 98.3890489874999,
                        "value": 1
                    },
                    {
                        "number": 64,
                        "time": 98.64026856249991,
                        "value": 0
                    },
                    {
                        "number": 64,
                        "time": 98.70490272499991,
                        "value": 1
                    },
                    {
                        "number": 64,
                        "time": 99.23295163749992,
                        "value": 0
                    },
                    {
                        "number": 64,
                        "time": 99.33661019999992,
                        "value": 1
                    },
                    {
                        "number": 64,
                        "time": 99.51831756249993,
                        "value": 0
                    },
                    {
                        "number": 64,
                        "time": 99.57685416249993,
                        "value": 1
                    },
                    {
                        "number": 64,
                        "time": 99.81831763749993,
                        "value": 0
                    },
                    {
                        "number": 64,
                        "time": 99.89270789999993,
                        "value": 1
                    },
                    {
                        "number": 64,
                        "time": 100.68295199999993,
                        "value": 0
                    },
                    {
                        "number": 64,
                        "time": 100.78904958749993,
                        "value": 1
                    },
                    {
                        "number": 64,
                        "time": 100.98783012499993,
                        "value": 0
                    },
                    {
                        "number": 64,
                        "time": 101.17441553749993,
                        "value": 1
                    },
                    {
                        "number": 64,
                        "time": 101.57197661249992,
                        "value": 0
                    },
                    {
                        "number": 64,
                        "time": 101.88904986249993,
                        "value": 1
                    },
                    {
                        "number": 64,
                        "time": 102.15734261249993,
                        "value": 0
                    },
                    {
                        "number": 64,
                        "time": 102.34514753749993,
                        "value": 1
                    },
                    {
                        "number": 64,
                        "time": 102.74270861249992,
                        "value": 0
                    },
                    {
                        "number": 64,
                        "time": 103.04148917499992,
                        "value": 1
                    },
                    {
                        "number": 64,
                        "time": 103.32929412499993,
                        "value": 0
                    },
                    {
                        "number": 64,
                        "time": 103.42929414999993,
                        "value": 1
                    },
                    {
                        "number": 64,
                        "time": 103.90612353749994,
                        "value": 0
                    },
                    {
                        "number": 64,
                        "time": 104.03173332499993,
                        "value": 1
                    },
                    {
                        "number": 64,
                        "time": 104.19880653749993,
                        "value": 0
                    },
                    {
                        "number": 64,
                        "time": 104.27319679999994,
                        "value": 1
                    },
                    {
                        "number": 64,
                        "time": 104.49636758749995,
                        "value": 0
                    },
                    {
                        "number": 64,
                        "time": 104.60002614999995,
                        "value": 1
                    },
                    {
                        "number": 64,
                        "time": 105.07685553749995,
                        "value": 0
                    },
                    {
                        "number": 64,
                        "time": 105.45002636249994,
                        "value": 1
                    },
                    {
                        "number": 64,
                        "time": 105.66709958749995,
                        "value": 0
                    },
                    {
                        "number": 64,
                        "time": 105.83295328749995,
                        "value": 1
                    },
                    {
                        "number": 64,
                        "time": 106.26100217499994,
                        "value": 0
                    },
                    {
                        "number": 64,
                        "time": 106.60124616249995,
                        "value": 1
                    },
                    {
                        "number": 64,
                        "time": 106.84270963749995,
                        "value": 0
                    },
                    {
                        "number": 64,
                        "time": 106.92319746249996,
                        "value": 1
                    },
                    {
                        "number": 64,
                        "time": 107.42075856249996,
                        "value": 0
                    },
                    {
                        "number": 64,
                        "time": 107.73539278749995,
                        "value": 1
                    },
                    {
                        "number": 64,
                        "time": 108.00978309999995,
                        "value": 0
                    },
                    {
                        "number": 64,
                        "time": 108.11222214999995,
                        "value": 1
                    },
                    {
                        "number": 64,
                        "time": 108.59758812499996,
                        "value": 0
                    },
                    {
                        "number": 64,
                        "time": 108.93661259999996,
                        "value": 1
                    },
                    {
                        "number": 64,
                        "time": 109.17807607499996,
                        "value": 0
                    },
                    {
                        "number": 64,
                        "time": 109.25856389999997,
                        "value": 1
                    },
                    {
                        "number": 64,
                        "time": 109.76222256249997,
                        "value": 0
                    },
                    {
                        "number": 64,
                        "time": 110.08417386249997,
                        "value": 1
                    },
                    {
                        "number": 64,
                        "time": 110.35490563749997,
                        "value": 0
                    },
                    {
                        "number": 64,
                        "time": 110.44758858749996,
                        "value": 1
                    },
                    {
                        "number": 64,
                        "time": 110.93783261249997,
                        "value": 0
                    },
                    {
                        "number": 64,
                        "time": 111.27807659999998,
                        "value": 1
                    },
                    {
                        "number": 64,
                        "time": 111.52319861249998,
                        "value": 0
                    },
                    {
                        "number": 64,
                        "time": 111.62929619999998,
                        "value": 1
                    },
                    {
                        "number": 64,
                        "time": 112.10490607499999,
                        "value": 0
                    },
                    {
                        "number": 64,
                        "time": 112.47685738749998,
                        "value": 1
                    },
                    {
                        "number": 64,
                        "time": 112.69758914999998,
                        "value": 0
                    },
                    {
                        "number": 64,
                        "time": 112.82929649999998,
                        "value": 1
                    },
                    {
                        "number": 64,
                        "time": 113.27685758749999,
                        "value": 0
                    },
                    {
                        "number": 64,
                        "time": 113.3890527375,
                        "value": 1
                    },
                    {
                        "number": 64,
                        "time": 113.573199125,
                        "value": 0
                    },
                    {
                        "number": 64,
                        "time": 113.617101575,
                        "value": 1
                    },
                    {
                        "number": 64,
                        "time": 113.86222358750001,
                        "value": 0
                    },
                    {
                        "number": 64,
                        "time": 113.92685775000001,
                        "value": 1
                    },
                    {
                        "number": 64,
                        "time": 114.2841749125,
                        "value": 0
                    },
                    {
                        "number": 64,
                        "time": 114.78783357500001,
                        "value": 1
                    },
                    {
                        "number": 64,
                        "time": 115.02929705000001,
                        "value": 0
                    },
                    {
                        "number": 64,
                        "time": 115.14271171250002,
                        "value": 1
                    },
                    {
                        "number": 64,
                        "time": 115.61710207500002,
                        "value": 0
                    },
                    {
                        "number": 64,
                        "time": 115.98905338750001,
                        "value": 1
                    },
                    {
                        "number": 64,
                        "time": 116.20734612500002,
                        "value": 0
                    },
                    {
                        "number": 64,
                        "time": 116.35002908750002,
                        "value": 1
                    },
                    {
                        "number": 64,
                        "time": 116.79393163750002,
                        "value": 0
                    },
                    {
                        "number": 64,
                        "time": 117.13661465000003,
                        "value": 1
                    },
                    {
                        "number": 64,
                        "time": 117.37198056250003,
                        "value": 0
                    },
                    {
                        "number": 64,
                        "time": 117.54027328750003,
                        "value": 1
                    },
                    {
                        "number": 64,
                        "time": 117.95978558750004,
                        "value": 0
                    },
                    {
                        "number": 64,
                        "time": 118.29637103750002,
                        "value": 1
                    },
                    {
                        "number": 64,
                        "time": 118.55002963750003,
                        "value": 0
                    },
                    {
                        "number": 64,
                        "time": 118.78661506250003,
                        "value": 1
                    },
                    {
                        "number": 64,
                        "time": 119.41466400000003,
                        "value": 0
                    },
                    {
                        "number": 64,
                        "time": 119.47563962500003,
                        "value": 1
                    },
                    {
                        "number": 64,
                        "time": 119.71588358750003,
                        "value": 0
                    },
                    {
                        "number": 64,
                        "time": 119.83295678750002,
                        "value": 1
                    },
                    {
                        "number": 64,
                        "time": 120.29637153750002,
                        "value": 0
                    },
                    {
                        "number": 64,
                        "time": 120.64637162500003,
                        "value": 1
                    },
                    {
                        "number": 64,
                        "time": 120.88905461250003,
                        "value": 0
                    },
                    {
                        "number": 64,
                        "time": 120.99515220000004,
                        "value": 1
                    },
                    {
                        "number": 64,
                        "time": 121.47564012500004,
                        "value": 0
                    },
                    {
                        "number": 64,
                        "time": 121.82564021250005,
                        "value": 1
                    },
                    {
                        "number": 64,
                        "time": 122.06222563750005,
                        "value": 0
                    },
                    {
                        "number": 64,
                        "time": 122.25125007500004,
                        "value": 1
                    },
                    {
                        "number": 64,
                        "time": 122.64759163750006,
                        "value": 0
                    },
                    {
                        "number": 64,
                        "time": 122.96588440000006,
                        "value": 1
                    },
                    {
                        "number": 64,
                        "time": 123.23295763750006,
                        "value": 0
                    },
                    {
                        "number": 64,
                        "time": 123.35368937500006,
                        "value": 1
                    },
                    {
                        "number": 64,
                        "time": 123.81222607500005,
                        "value": 0
                    },
                    {
                        "number": 64,
                        "time": 124.14149445000007,
                        "value": 1
                    },
                    {
                        "number": 64,
                        "time": 124.40003110000008,
                        "value": 0
                    },
                    {
                        "number": 64,
                        "time": 124.51100673750008,
                        "value": 1
                    },
                    {
                        "number": 64,
                        "time": 124.98783612500009,
                        "value": 0
                    },
                    {
                        "number": 64,
                        "time": 125.3158849875001,
                        "value": 1
                    },
                    {
                        "number": 64,
                        "time": 125.5695435875001,
                        "value": 0
                    },
                    {
                        "number": 64,
                        "time": 125.6866167875001,
                        "value": 1
                    },
                    {
                        "number": 64,
                        "time": 126.1549095875001,
                        "value": 0
                    },
                    {
                        "number": 64,
                        "time": 126.5024706500001,
                        "value": 1
                    },
                    {
                        "number": 64,
                        "time": 126.7378365625001,
                        "value": 0
                    },
                    {
                        "number": 64,
                        "time": 126.8573487875001,
                        "value": 1
                    },
                    {
                        "number": 64,
                        "time": 127.3268611000001,
                        "value": 0
                    },
                    {
                        "number": 64,
                        "time": 127.4146660000001,
                        "value": 1
                    },
                    {
                        "number": 64,
                        "time": 127.6195441000001,
                        "value": 0
                    },
                    {
                        "number": 64,
                        "time": 127.7475929125001,
                        "value": 1
                    },
                    {
                        "number": 64,
                        "time": 127.9146661250001,
                        "value": 0
                    },
                    {
                        "number": 64,
                        "time": 128.04881250000008,
                        "value": 1
                    },
                    {
                        "number": 64,
                        "time": 128.78052000000008,
                        "value": 0
                    },
                    {
                        "number": 64,
                        "time": 128.88539807500007,
                        "value": 1
                    },
                    {
                        "number": 64,
                        "time": 129.08052007500007,
                        "value": 0
                    },
                    {
                        "number": 64,
                        "time": 129.17808107500008,
                        "value": 1
                    },
                    {
                        "number": 64,
                        "time": 129.6646665625001,
                        "value": 0
                    },
                    {
                        "number": 64,
                        "time": 130.0207642125001,
                        "value": 1
                    },
                    {
                        "number": 64,
                        "time": 130.2524715875001,
                        "value": 0
                    },
                    {
                        "number": 64,
                        "time": 130.34881307500012,
                        "value": 1
                    },
                    {
                        "number": 64,
                        "time": 130.84271563750013,
                        "value": 0
                    },
                    {
                        "number": 64,
                        "time": 131.21954500000015,
                        "value": 1
                    },
                    {
                        "number": 64,
                        "time": 131.42930115000016,
                        "value": 0
                    },
                    {
                        "number": 64,
                        "time": 131.53295971250014,
                        "value": 1
                    },
                    {
                        "number": 64,
                        "time": 132.01466715000015,
                        "value": 0
                    },
                    {
                        "number": 64,
                        "time": 132.11832571250014,
                        "value": 1
                    },
                    {
                        "number": 64,
                        "time": 132.30003307500013,
                        "value": 0
                    },
                    {
                        "number": 64,
                        "time": 132.39637456250014,
                        "value": 1
                    },
                    {
                        "number": 64,
                        "time": 132.59393558750014,
                        "value": 0
                    },
                    {
                        "number": 64,
                        "time": 132.68905756250015,
                        "value": 1
                    },
                    {
                        "number": 64,
                        "time": 133.18783817500017,
                        "value": 0
                    },
                    {
                        "number": 64,
                        "time": 133.53417972500017,
                        "value": 1
                    },
                    {
                        "number": 64,
                        "time": 133.76710661250019,
                        "value": 0
                    },
                    {
                        "number": 64,
                        "time": 133.89149688750018,
                        "value": 1
                    },
                    {
                        "number": 64,
                        "time": 134.35491163750018,
                        "value": 0
                    },
                    {
                        "number": 64,
                        "time": 134.68174098750018,
                        "value": 1
                    },
                    {
                        "number": 64,
                        "time": 134.93783861250017,
                        "value": 0
                    },
                    {
                        "number": 64,
                        "time": 135.09149718750018,
                        "value": 1
                    },
                    {
                        "number": 64,
                        "time": 135.5183265625002,
                        "value": 0
                    },
                    {
                        "number": 64,
                        "time": 135.8914973875002,
                        "value": 1
                    },
                    {
                        "number": 64,
                        "time": 136.10613158750022,
                        "value": 0
                    },
                    {
                        "number": 64,
                        "time": 136.2353999125002,
                        "value": 1
                    },
                    {
                        "number": 64,
                        "time": 136.6914975875002,
                        "value": 0
                    },
                    {
                        "number": 64,
                        "time": 137.0317415750002,
                        "value": 1
                    },
                    {
                        "number": 64,
                        "time": 137.2805221250002,
                        "value": 0
                    },
                    {
                        "number": 64,
                        "time": 137.3500343375002,
                        "value": 1
                    },
                    {
                        "number": 64,
                        "time": 137.7293027250002,
                        "value": 0
                    },
                    {
                        "number": 64,
                        "time": 138.2232052875002,
                        "value": 1
                    },
                    {
                        "number": 64,
                        "time": 138.45247363750022,
                        "value": 0
                    },
                    {
                        "number": 64,
                        "time": 138.60613221250023,
                        "value": 1
                    },
                    {
                        "number": 64,
                        "time": 139.03783963750024,
                        "value": 0
                    },
                    {
                        "number": 64,
                        "time": 139.36954703750024,
                        "value": 1
                    },
                    {
                        "number": 64,
                        "time": 139.62076661250023,
                        "value": 0
                    },
                    {
                        "number": 64,
                        "time": 139.76223006250024,
                        "value": 1
                    },
                    {
                        "number": 64,
                        "time": 140.20247407500025,
                        "value": 0
                    },
                    {
                        "number": 64,
                        "time": 140.54393757500026,
                        "value": 1
                    },
                    {
                        "number": 64,
                        "time": 140.78662056250025,
                        "value": 0
                    },
                    {
                        "number": 64,
                        "time": 140.94149865000026,
                        "value": 1
                    },
                    {
                        "number": 64,
                        "time": 141.37198656250027,
                        "value": 0
                    },
                    {
                        "number": 64,
                        "time": 141.72320616250028,
                        "value": 1
                    },
                    {
                        "number": 64,
                        "time": 141.9658891500003,
                        "value": 0
                    },
                    {
                        "number": 64,
                        "time": 142.1158891875003,
                        "value": 1
                    },
                    {
                        "number": 64,
                        "time": 142.5427185625003,
                        "value": 0
                    },
                    {
                        "number": 64,
                        "time": 142.90613328750032,
                        "value": 1
                    },
                    {
                        "number": 64,
                        "time": 143.13296261250034,
                        "value": 0
                    },
                    {
                        "number": 64,
                        "time": 143.23906020000032,
                        "value": 1
                    },
                    {
                        "number": 64,
                        "time": 143.71832861250033,
                        "value": 0
                    },
                    {
                        "number": 64,
                        "time": 144.05857260000033,
                        "value": 1
                    },
                    {
                        "number": 64,
                        "time": 144.30369461250032,
                        "value": 0
                    },
                    {
                        "number": 64,
                        "time": 144.49759710000032,
                        "value": 1
                    },
                    {
                        "number": 64,
                        "time": 144.89149963750032,
                        "value": 0
                    },
                    {
                        "number": 64,
                        "time": 145.25735338750033,
                        "value": 1
                    },
                    {
                        "number": 64,
                        "time": 145.47686563750034,
                        "value": 0
                    },
                    {
                        "number": 64,
                        "time": 146.1524755625003,
                        "value": 1
                    },
                    {
                        "number": 64,
                        "time": 146.3500365875003,
                        "value": 0
                    },
                    {
                        "number": 64,
                        "time": 146.42808538750032,
                        "value": 1
                    },
                    {
                        "number": 64,
                        "time": 146.63784153750032,
                        "value": 0
                    },
                    {
                        "number": 64,
                        "time": 146.69515862500032,
                        "value": 1
                    },
                    {
                        "number": 64,
                        "time": 147.1549148375003,
                        "value": 0
                    },
                    {
                        "number": 64,
                        "time": 147.59637836250033,
                        "value": 1
                    },
                    {
                        "number": 64,
                        "time": 147.81101256250034,
                        "value": 0
                    },
                    {
                        "number": 64,
                        "time": 148.00735407500034,
                        "value": 1
                    },
                    {
                        "number": 64,
                        "time": 148.39393953750033,
                        "value": 0
                    },
                    {
                        "number": 64,
                        "time": 148.76101280000034,
                        "value": 1
                    },
                    {
                        "number": 64,
                        "time": 148.98418358750035,
                        "value": 0
                    },
                    {
                        "number": 64,
                        "time": 149.18296412500035,
                        "value": 1
                    },
                    {
                        "number": 64,
                        "time": 149.56954958750035,
                        "value": 0
                    },
                    {
                        "number": 64,
                        "time": 149.89637893750034,
                        "value": 1
                    },
                    {
                        "number": 64,
                        "time": 150.15125705000034,
                        "value": 0
                    },
                    {
                        "number": 64,
                        "time": 150.30735465000035,
                        "value": 1
                    },
                    {
                        "number": 64,
                        "time": 150.73540353750036,
                        "value": 0
                    },
                    {
                        "number": 64,
                        "time": 151.08540362500037,
                        "value": 1
                    },
                    {
                        "number": 64,
                        "time": 151.3293061250004,
                        "value": 0
                    },
                    {
                        "number": 64,
                        "time": 151.4890622625004,
                        "value": 1
                    },
                    {
                        "number": 64,
                        "time": 152.19516000000039,
                        "value": 0
                    },
                    {
                        "number": 64,
                        "time": 152.25613562500038,
                        "value": 1
                    },
                    {
                        "number": 64,
                        "time": 152.4939405625004,
                        "value": 0
                    },
                    {
                        "number": 64,
                        "time": 152.6085747375004,
                        "value": 1
                    },
                    {
                        "number": 64,
                        "time": 153.0768675375004,
                        "value": 0
                    },
                    {
                        "number": 64,
                        "time": 153.4097944500004,
                        "value": 1
                    },
                    {
                        "number": 64,
                        "time": 153.6658920750004,
                        "value": 0
                    },
                    {
                        "number": 64,
                        "time": 153.79637991250038,
                        "value": 1
                    },
                    {
                        "number": 64,
                        "time": 154.24759953750038,
                        "value": 0
                    },
                    {
                        "number": 64,
                        "time": 154.59272157500038,
                        "value": 1
                    },
                    {
                        "number": 64,
                        "time": 154.83662407500037,
                        "value": 0
                    },
                    {
                        "number": 64,
                        "time": 155.03906315000037,
                        "value": 1
                    },
                    {
                        "number": 64,
                        "time": 155.42077056250037,
                        "value": 0
                    },
                    {
                        "number": 64,
                        "time": 155.75491698750037,
                        "value": 1
                    },
                    {
                        "number": 64,
                        "time": 156.01223412500036,
                        "value": 0
                    },
                    {
                        "number": 64,
                        "time": 156.12930732500035,
                        "value": 1
                    },
                    {
                        "number": 64,
                        "time": 156.59760012500035,
                        "value": 0
                    },
                    {
                        "number": 64,
                        "time": 156.91711240000035,
                        "value": 1
                    },
                    {
                        "number": 64,
                        "time": 157.17930758750035,
                        "value": 0
                    },
                    {
                        "number": 64,
                        "time": 157.29638078750034,
                        "value": 1
                    },
                    {
                        "number": 64,
                        "time": 157.76345407500034,
                        "value": 0
                    },
                    {
                        "number": 64,
                        "time": 158.10979562500034,
                        "value": 1
                    },
                    {
                        "number": 64,
                        "time": 158.34516153750036,
                        "value": 0
                    },
                    {
                        "number": 64,
                        "time": 158.49638108750037,
                        "value": 1
                    },
                    {
                        "number": 64,
                        "time": 158.93174705000038,
                        "value": 0
                    },
                    {
                        "number": 64,
                        "time": 159.2890642125004,
                        "value": 1
                    },
                    {
                        "number": 64,
                        "time": 159.5244301250004,
                        "value": 0
                    },
                    {
                        "number": 64,
                        "time": 159.6451618625004,
                        "value": 1
                    },
                    {
                        "number": 64,
                        "time": 160.1036985625004,
                        "value": 0
                    },
                    {
                        "number": 64,
                        "time": 160.2097961500004,
                        "value": 1
                    },
                    {
                        "number": 64,
                        "time": 160.40125961250038,
                        "value": 0
                    },
                    {
                        "number": 64,
                        "time": 160.50247915000037,
                        "value": 1
                    },
                    {
                        "number": 64,
                        "time": 160.69638163750037,
                        "value": 0
                    },
                    {
                        "number": 64,
                        "time": 160.85491826250038,
                        "value": 1
                    },
                    {
                        "number": 64,
                        "time": 161.56101600000036,
                        "value": 0
                    },
                    {
                        "number": 64,
                        "time": 161.70125993750037,
                        "value": 1
                    },
                    {
                        "number": 64,
                        "time": 161.86467461250038,
                        "value": 0
                    },
                    {
                        "number": 64,
                        "time": 161.9585770750004,
                        "value": 1
                    },
                    {
                        "number": 64,
                        "time": 162.4439430500004,
                        "value": 0
                    },
                    {
                        "number": 64,
                        "time": 162.7744309375004,
                        "value": 1
                    },
                    {
                        "number": 64,
                        "time": 163.0366261250004,
                        "value": 0
                    },
                    {
                        "number": 64,
                        "time": 163.14272371250038,
                        "value": 1
                    },
                    {
                        "number": 64,
                        "time": 163.6171140750004,
                        "value": 0
                    },
                    {
                        "number": 64,
                        "time": 164.00735807500038,
                        "value": 1
                    },
                    {
                        "number": 64,
                        "time": 164.20613861250038,
                        "value": 0
                    },
                    {
                        "number": 64,
                        "time": 164.34150450000038,
                        "value": 1
                    },
                    {
                        "number": 64,
                        "time": 164.79394363750038,
                        "value": 0
                    },
                    {
                        "number": 64,
                        "time": 164.91345586250037,
                        "value": 1
                    },
                    {
                        "number": 64,
                        "time": 165.07687053750038,
                        "value": 0
                    },
                    {
                        "number": 64,
                        "time": 165.19394373750038,
                        "value": 1
                    },
                    {
                        "number": 64,
                        "time": 165.37809012500037,
                        "value": 0
                    },
                    {
                        "number": 64,
                        "time": 165.54638285000036,
                        "value": 1
                    },
                    {
                        "number": 64,
                        "time": 165.95857807500036,
                        "value": 0
                    },
                    {
                        "number": 64,
                        "time": 190.86346235000127,
                        "value": 1
                    },
                    {
                        "number": 64,
                        "time": 191.42931615000128,
                        "value": 0
                    },
                    {
                        "number": 64,
                        "time": 191.5695600875013,
                        "value": 1
                    },
                    {
                        "number": 64,
                        "time": 192.0000480000013,
                        "value": 0
                    },
                    {
                        "number": 64,
                        "time": 192.1293163250013,
                        "value": 1
                    },
                    {
                        "number": 64,
                        "time": 192.5951701000013,
                        "value": 0
                    },
                    {
                        "number": 64,
                        "time": 192.7232189125013,
                        "value": 1
                    },
                    {
                        "number": 64,
                        "time": 193.17078000000132,
                        "value": 0
                    },
                    {
                        "number": 64,
                        "time": 193.2915117375013,
                        "value": 1
                    },
                    {
                        "number": 64,
                        "time": 194.34760956250133,
                        "value": 0
                    },
                    {
                        "number": 64,
                        "time": 194.42809738750134,
                        "value": 1
                    },
                    {
                        "number": 64,
                        "time": 194.93663410000136,
                        "value": 0
                    },
                    {
                        "number": 64,
                        "time": 195.01346338750136,
                        "value": 1
                    },
                    {
                        "number": 64,
                        "time": 195.23053661250137,
                        "value": 0
                    },
                    {
                        "number": 64,
                        "time": 195.34029273750136,
                        "value": 1
                    },
                    {
                        "number": 64,
                        "time": 195.52565863750135,
                        "value": 0
                    },
                    {
                        "number": 64,
                        "time": 195.64151232500134,
                        "value": 1
                    },
                    {
                        "number": 64,
                        "time": 196.6976101500014,
                        "value": 0
                    },
                    {
                        "number": 64,
                        "time": 196.7744394375014,
                        "value": 1
                    },
                    {
                        "number": 64,
                        "time": 197.28419566250142,
                        "value": 0
                    },
                    {
                        "number": 64,
                        "time": 197.35248836250142,
                        "value": 1
                    },
                    {
                        "number": 64,
                        "time": 197.85980556250144,
                        "value": 0
                    },
                    {
                        "number": 64,
                        "time": 197.99151291250143,
                        "value": 1
                    },
                    {
                        "number": 64,
                        "time": 199.03907415000145,
                        "value": 0
                    },
                    {
                        "number": 64,
                        "time": 199.11956197500146,
                        "value": 1
                    },
                    {
                        "number": 64,
                        "time": 199.62322063750148,
                        "value": 0
                    },
                    {
                        "number": 64,
                        "time": 199.7220011500015,
                        "value": 1
                    },
                    {
                        "number": 64,
                        "time": 199.9159036375015,
                        "value": 0
                    },
                    {
                        "number": 64,
                        "time": 199.97200121250148,
                        "value": 1
                    },
                    {
                        "number": 64,
                        "time": 200.1976110250015,
                        "value": 0
                    },
                    {
                        "number": 64,
                        "time": 226.01225162500245,
                        "value": 1
                    },
                    {
                        "number": 64,
                        "time": 226.54639810000248,
                        "value": 0
                    },
                    {
                        "number": 64,
                        "time": 226.64883715000246,
                        "value": 1
                    },
                    {
                        "number": 64,
                        "time": 227.12566653750247,
                        "value": 0
                    },
                    {
                        "number": 64,
                        "time": 227.20859338750248,
                        "value": 1
                    },
                    {
                        "number": 64,
                        "time": 227.7244471750025,
                        "value": 0
                    },
                    {
                        "number": 64,
                        "time": 227.8110325625025,
                        "value": 1
                    },
                    {
                        "number": 64,
                        "time": 228.2927400000025,
                        "value": 0
                    },
                    {
                        "number": 64,
                        "time": 228.39030100000252,
                        "value": 1
                    },
                    {
                        "number": 64,
                        "time": 229.47200858750256,
                        "value": 0
                    },
                    {
                        "number": 64,
                        "time": 229.58176471250255,
                        "value": 1
                    },
                    {
                        "number": 64,
                        "time": 230.06713068750256,
                        "value": 0
                    },
                    {
                        "number": 64,
                        "time": 230.14639900000256,
                        "value": 1
                    },
                    {
                        "number": 64,
                        "time": 230.34639905000256,
                        "value": 0
                    },
                    {
                        "number": 64,
                        "time": 230.43908200000257,
                        "value": 1
                    },
                    {
                        "number": 64,
                        "time": 230.63420400000257,
                        "value": 0
                    },
                    {
                        "number": 64,
                        "time": 230.72078938750258,
                        "value": 1
                    },
                    {
                        "number": 64,
                        "time": 231.2256675625026,
                        "value": 0
                    },
                    {
                        "number": 64,
                        "time": 231.3488383250026,
                        "value": 1
                    },
                    {
                        "number": 64,
                        "time": 231.81347258750262,
                        "value": 0
                    },
                    {
                        "number": 64,
                        "time": 231.9342043250026,
                        "value": 1
                    },
                    {
                        "number": 64,
                        "time": 232.98420458750266,
                        "value": 0
                    },
                    {
                        "number": 64,
                        "time": 233.10127778750265,
                        "value": 1
                    },
                    {
                        "number": 64,
                        "time": 234.15249756250267,
                        "value": 0
                    },
                    {
                        "number": 64,
                        "time": 234.26469271250267,
                        "value": 1
                    },
                    {
                        "number": 64,
                        "time": 234.74274161250267,
                        "value": 0
                    },
                    {
                        "number": 64,
                        "time": 234.82322943750268,
                        "value": 1
                    },
                    {
                        "number": 64,
                        "time": 235.03054656250268,
                        "value": 0
                    },
                    {
                        "number": 64,
                        "time": 235.10127828750268,
                        "value": 1
                    },
                    {
                        "number": 64,
                        "time": 235.3268881000027,
                        "value": 0
                    },
                    {
                        "number": 64,
                        "time": 235.4085954375027,
                        "value": 1
                    },
                    {
                        "number": 64,
                        "time": 235.6195711000027,
                        "value": 0
                    },
                    {
                        "number": 64,
                        "time": 235.7073760000027,
                        "value": 1
                    },
                    {
                        "number": 64,
                        "time": 235.92444922500272,
                        "value": 0
                    },
                    {
                        "number": 64,
                        "time": 236.00005900000272,
                        "value": 1
                    },
                    {
                        "number": 64,
                        "time": 236.20371758750272,
                        "value": 0
                    },
                    {
                        "number": 64,
                        "time": 236.28664443750273,
                        "value": 1
                    },
                    {
                        "number": 64,
                        "time": 236.48786400000273,
                        "value": 0
                    },
                    {
                        "number": 64,
                        "time": 237.68420576250273,
                        "value": 1
                    },
                    {
                        "number": 64,
                        "time": 237.95737656250273,
                        "value": 0
                    },
                    {
                        "number": 64,
                        "time": 238.08054732500273,
                        "value": 1
                    },
                    {
                        "number": 64,
                        "time": 238.54152305000272,
                        "value": 0
                    },
                    {
                        "number": 64,
                        "time": 238.82932800000273,
                        "value": 1
                    },
                    {
                        "number": 64,
                        "time": 239.13054758750275,
                        "value": 0
                    },
                    {
                        "number": 64,
                        "time": 239.24274273750274,
                        "value": 1
                    },
                    {
                        "number": 64,
                        "time": 239.71957212500274,
                        "value": 0
                    },
                    {
                        "number": 64,
                        "time": 239.81957215000276,
                        "value": 1
                    },
                    {
                        "number": 64,
                        "time": 240.59030405000274,
                        "value": 0
                    },
                    {
                        "number": 64,
                        "time": 240.69030407500276,
                        "value": 1
                    },
                    {
                        "number": 64,
                        "time": 240.88664558750276,
                        "value": 0
                    },
                    {
                        "number": 64,
                        "time": 240.96225536250276,
                        "value": 1
                    },
                    {
                        "number": 64,
                        "time": 241.17932858750277,
                        "value": 0
                    },
                    {
                        "number": 64,
                        "time": 241.25493836250277,
                        "value": 1
                    },
                    {
                        "number": 64,
                        "time": 241.46957256250278,
                        "value": 0
                    },
                    {
                        "number": 64,
                        "time": 241.55493843750278,
                        "value": 1
                    },
                    {
                        "number": 64,
                        "time": 241.7683531250028,
                        "value": 0
                    },
                    {
                        "number": 64,
                        "time": 241.8329872875028,
                        "value": 1
                    },
                    {
                        "number": 64,
                        "time": 242.0549385625028,
                        "value": 0
                    },
                    {
                        "number": 64,
                        "time": 242.1183532125028,
                        "value": 1
                    },
                    {
                        "number": 64,
                        "time": 242.3500605875028,
                        "value": 0
                    },
                    {
                        "number": 64,
                        "time": 242.70006067500282,
                        "value": 1
                    },
                    {
                        "number": 64,
                        "time": 244.19518300000283,
                        "value": 0
                    }
                ],
                "91": [
                    {
                        "number": 91,
                        "time": 0.8731709500000001,
                        "value": 1
                    },
                    {
                        "number": 91,
                        "time": 72.58538399999965,
                        "value": 1
                    },
                    {
                        "number": 91,
                        "time": 77.26831199999971,
                        "value": 1
                    },
                    {
                        "number": 91,
                        "time": 86.63416799999982,
                        "value": 1
                    },
                    {
                        "number": 91,
                        "time": 91.31709599999984,
                        "value": 1
                    },
                    {
                        "number": 91,
                        "time": 119.41466400000003,
                        "value": 1
                    },
                    {
                        "number": 91,
                        "time": 124.09759200000006,
                        "value": 1
                    },
                    {
                        "number": 91,
                        "time": 152.19516000000039,
                        "value": 1
                    },
                    {
                        "number": 91,
                        "time": 156.87808800000036,
                        "value": 1
                    },
                    {
                        "number": 91,
                        "time": 166.24394400000037,
                        "value": 1
                    },
                    {
                        "number": 91,
                        "time": 237.65859600000272,
                        "value": 1
                    }
                ]
            },
            "id": 2,
            "name": "Piano left",
            "instrumentNumber": 0,
            "instrument": "acoustic grand piano",
            "instrumentFamily": "piano",
            "channelNumber": 0,
            "isPercussion": false
        },
        {
            "startTime": 0,
            "duration": 0,
            "length": 0,
            "notes": [],
            "controlChanges": {},
            "id": 3,
            "name": "Schubert: Moment Musicau No.4 in C#- Op. 94 - D 780"
        },
        {
            "startTime": 0,
            "duration": 0,
            "length": 0,
            "notes": [],
            "controlChanges": {},
            "id": 4,
            "name": "Copyright  1997 by Bernd Krueger"
        },
        {
            "startTime": 0,
            "duration": 0,
            "length": 0,
            "notes": [],
            "controlChanges": {},
            "id": 5,
            "name": "http://www.piano-midi.de"
        },
        {
            "startTime": 0,
            "duration": 0,
            "length": 0,
            "notes": [],
            "controlChanges": {},
            "id": 6,
            "name": "Edition: 2014-03-16"
        }
    ]
}