{
    "header": {
        "PPQ": 480,
        "timeSignature": [
            3,
            4
        ],
        "bpm": 128.98011126684264,
        "name": "Allegretto"
    },
    "startTime": 0,
    "duration": 299.58107200000063,
    "tracks": [
        {
            "startTime": 0,
            "duration": 0,
            "length": 0,
            "notes": [],
            "controlChanges": {},
            "id": 0,
            "name": "Allegretto"
        },
        {
            "startTime": 0.9303760000000001,
            "duration": 289.81212400000163,
            "length": 1088,
            "notes": [
                {
                    "name": "C5",
                    "midi": 72,
                    "time": 0.9303760000000001,
                    "velocity": 0.44881889763779526,
                    "duration": 0.46518800000000016
                },
                {
                    "name": "D#4",
                    "midi": 63,
                    "time": 0.9303760000000001,
                    "velocity": 0.3543307086614173,
                    "duration": 0.46518800000000016
                },
                {
                    "name": "G#4",
                    "midi": 68,
                    "time": 0.9303760000000001,
                    "velocity": 0.3543307086614173,
                    "duration": 0.46518800000000016
                },
                {
                    "name": "F4",
                    "midi": 65,
                    "time": 1.3955640000000002,
                    "velocity": 0.3700787401574803,
                    "duration": 1.8607520000000002
                },
                {
                    "name": "G#4",
                    "midi": 68,
                    "time": 1.3955640000000002,
                    "velocity": 0.3700787401574803,
                    "duration": 1.8607520000000002
                },
                {
                    "name": "C5",
                    "midi": 72,
                    "time": 1.3955640000000002,
                    "velocity": 0.4645669291338583,
                    "duration": 1.3955640000000002
                },
                {
                    "name": "A#4",
                    "midi": 70,
                    "time": 2.7911280000000005,
                    "velocity": 0.4409448818897638,
                    "duration": 0.46518799999999993
                },
                {
                    "name": "F5",
                    "midi": 77,
                    "time": 3.7215040000000004,
                    "velocity": 0.49606299212598426,
                    "duration": 0.4651880000000004
                },
                {
                    "name": "G4",
                    "midi": 67,
                    "time": 3.7215040000000004,
                    "velocity": 0.3937007874015748,
                    "duration": 0.4651880000000004
                },
                {
                    "name": "A#4",
                    "midi": 70,
                    "time": 3.7215040000000004,
                    "velocity": 0.3937007874015748,
                    "duration": 0.4651880000000004
                },
                {
                    "name": "F5",
                    "midi": 77,
                    "time": 4.186692000000001,
                    "velocity": 0.5118110236220472,
                    "duration": 1.3955640000000002
                },
                {
                    "name": "C5",
                    "midi": 72,
                    "time": 4.186692000000001,
                    "velocity": 0.4094488188976378,
                    "duration": 1.8607520000000006
                },
                {
                    "name": "G#4",
                    "midi": 68,
                    "time": 4.186692000000001,
                    "velocity": 0.4094488188976378,
                    "duration": 1.8607520000000006
                },
                {
                    "name": "D#5",
                    "midi": 75,
                    "time": 5.582256000000001,
                    "velocity": 0.47244094488188976,
                    "duration": 0.4651880000000004
                },
                {
                    "name": "C4",
                    "midi": 60,
                    "time": 6.280038000000001,
                    "velocity": 0.33858267716535434,
                    "duration": 0.6977819999999992
                },
                {
                    "name": "D#4",
                    "midi": 63,
                    "time": 6.280038000000001,
                    "velocity": 0.4251968503937008,
                    "duration": 0.23259399999999975
                },
                {
                    "name": "G#4",
                    "midi": 68,
                    "time": 6.512632000000001,
                    "velocity": 0.4409448818897638,
                    "duration": 0.23259399999999975
                },
                {
                    "name": "C5",
                    "midi": 72,
                    "time": 6.745226000000001,
                    "velocity": 0.4566929133858268,
                    "duration": 0.23259399999999975
                },
                {
                    "name": "G4",
                    "midi": 67,
                    "time": 6.97782,
                    "velocity": 0.3779527559055118,
                    "duration": 0.9303759999999999
                },
                {
                    "name": "C#5",
                    "midi": 73,
                    "time": 6.97782,
                    "velocity": 0.47244094488188976,
                    "duration": 0.9303759999999999
                },
                {
                    "name": "C#4",
                    "midi": 61,
                    "time": 6.97782,
                    "velocity": 0.3779527559055118,
                    "duration": 0.9303759999999999
                },
                {
                    "name": "D#4",
                    "midi": 63,
                    "time": 6.97782,
                    "velocity": 0.3779527559055118,
                    "duration": 0.9303759999999999
                },
                {
                    "name": "C4",
                    "midi": 60,
                    "time": 7.908196,
                    "velocity": 0.3937007874015748,
                    "duration": 0.4651879999999995
                },
                {
                    "name": "C5",
                    "midi": 72,
                    "time": 7.908196,
                    "velocity": 0.49606299212598426,
                    "duration": 0.4651879999999995
                },
                {
                    "name": "G#4",
                    "midi": 68,
                    "time": 7.908196,
                    "velocity": 0.3937007874015748,
                    "duration": 0.4651879999999995
                },
                {
                    "name": "D#4",
                    "midi": 63,
                    "time": 7.908196,
                    "velocity": 0.3937007874015748,
                    "duration": 0.4651879999999995
                },
                {
                    "name": "A#3",
                    "midi": 58,
                    "time": 8.373384,
                    "velocity": 0.4015748031496063,
                    "duration": 0.9303760000000008
                },
                {
                    "name": "A#4",
                    "midi": 70,
                    "time": 8.373384,
                    "velocity": 0.5039370078740157,
                    "duration": 0.9303760000000008
                },
                {
                    "name": "D#4",
                    "midi": 63,
                    "time": 8.373384,
                    "velocity": 0.4015748031496063,
                    "duration": 0.9303760000000008
                },
                {
                    "name": "G#4",
                    "midi": 68,
                    "time": 9.30376,
                    "velocity": 0.4251968503937008,
                    "duration": 0.4651879999999995
                },
                {
                    "name": "A#4",
                    "midi": 70,
                    "time": 9.30376,
                    "velocity": 0.4251968503937008,
                    "duration": 0.4651879999999995
                },
                {
                    "name": "D4",
                    "midi": 62,
                    "time": 9.30376,
                    "velocity": 0.4251968503937008,
                    "duration": 0.4651879999999995
                },
                {
                    "name": "D5",
                    "midi": 74,
                    "time": 9.30376,
                    "velocity": 0.5275590551181102,
                    "duration": 0.4651879999999995
                },
                {
                    "name": "G#4",
                    "midi": 68,
                    "time": 9.768948,
                    "velocity": 0.4409448818897638,
                    "duration": 1.3955640000000002
                },
                {
                    "name": "A#4",
                    "midi": 70,
                    "time": 9.768948,
                    "velocity": 0.4409448818897638,
                    "duration": 1.8607519999999997
                },
                {
                    "name": "D4",
                    "midi": 62,
                    "time": 9.768948,
                    "velocity": 0.4409448818897638,
                    "duration": 1.3955640000000002
                },
                {
                    "name": "D5",
                    "midi": 74,
                    "time": 9.768948,
                    "velocity": 0.5511811023622047,
                    "duration": 1.3955640000000002
                },
                {
                    "name": "D#5",
                    "midi": 75,
                    "time": 11.164512,
                    "velocity": 0.4015748031496063,
                    "duration": 0.4651879999999995
                },
                {
                    "name": "G4",
                    "midi": 67,
                    "time": 11.164512,
                    "velocity": 0.31496062992125984,
                    "duration": 0.4651879999999995
                },
                {
                    "name": "D#4",
                    "midi": 63,
                    "time": 11.164512,
                    "velocity": 0.31496062992125984,
                    "duration": 0.4651879999999995
                },
                {
                    "name": "C5",
                    "midi": 72,
                    "time": 12.094888,
                    "velocity": 0.41732283464566927,
                    "duration": 0.4651879999999995
                },
                {
                    "name": "G#4",
                    "midi": 68,
                    "time": 12.094888,
                    "velocity": 0.33070866141732286,
                    "duration": 0.4651879999999995
                },
                {
                    "name": "D#4",
                    "midi": 63,
                    "time": 12.094888,
                    "velocity": 0.33070866141732286,
                    "duration": 0.4651879999999995
                },
                {
                    "name": "C5",
                    "midi": 72,
                    "time": 12.560075999999999,
                    "velocity": 0.4566929133858268,
                    "duration": 1.3955640000000002
                },
                {
                    "name": "G#4",
                    "midi": 68,
                    "time": 12.560075999999999,
                    "velocity": 0.36220472440944884,
                    "duration": 1.8607519999999997
                },
                {
                    "name": "F4",
                    "midi": 65,
                    "time": 12.560075999999999,
                    "velocity": 0.36220472440944884,
                    "duration": 1.8607519999999997
                },
                {
                    "name": "A#4",
                    "midi": 70,
                    "time": 13.955639999999999,
                    "velocity": 0.3937007874015748,
                    "duration": 0.4651879999999995
                },
                {
                    "name": "G4",
                    "midi": 67,
                    "time": 14.886015999999998,
                    "velocity": 0.49606299212598426,
                    "duration": 0.4651879999999995
                },
                {
                    "name": "F5",
                    "midi": 77,
                    "time": 14.886015999999998,
                    "velocity": 0.6220472440944882,
                    "duration": 0.4651879999999995
                },
                {
                    "name": "B4",
                    "midi": 71,
                    "time": 14.886015999999998,
                    "velocity": 0.49606299212598426,
                    "duration": 0.4651879999999995
                },
                {
                    "name": "G4",
                    "midi": 67,
                    "time": 15.351203999999997,
                    "velocity": 0.5354330708661418,
                    "duration": 1.8607519999999997
                },
                {
                    "name": "C5",
                    "midi": 72,
                    "time": 15.351203999999997,
                    "velocity": 0.5354330708661418,
                    "duration": 1.8607519999999997
                },
                {
                    "name": "F5",
                    "midi": 77,
                    "time": 15.351203999999997,
                    "velocity": 0.6692913385826772,
                    "duration": 1.3955639999999985
                },
                {
                    "name": "E5",
                    "midi": 76,
                    "time": 16.746767999999996,
                    "velocity": 0.4015748031496063,
                    "duration": 0.46518800000000127
                },
                {
                    "name": "G4",
                    "midi": 67,
                    "time": 17.677144,
                    "velocity": 0.3228346456692913,
                    "duration": 0.46518800000000127
                },
                {
                    "name": "C5",
                    "midi": 72,
                    "time": 17.677144,
                    "velocity": 0.36220472440944884,
                    "duration": 0.46518800000000127
                },
                {
                    "name": "E5",
                    "midi": 76,
                    "time": 17.677144,
                    "velocity": 0.4094488188976378,
                    "duration": 0.46518800000000127
                },
                {
                    "name": "D#5",
                    "midi": 75,
                    "time": 18.142332,
                    "velocity": 0.44881889763779526,
                    "duration": 0.930375999999999
                },
                {
                    "name": "C#5",
                    "midi": 73,
                    "time": 18.142332,
                    "velocity": 0.3543307086614173,
                    "duration": 0.930375999999999
                },
                {
                    "name": "G4",
                    "midi": 67,
                    "time": 18.142332,
                    "velocity": 0.3543307086614173,
                    "duration": 0.930375999999999
                },
                {
                    "name": "G#4",
                    "midi": 68,
                    "time": 19.072708,
                    "velocity": 0.3700787401574803,
                    "duration": 0.46518800000000127
                },
                {
                    "name": "C5",
                    "midi": 72,
                    "time": 19.072708,
                    "velocity": 0.3700787401574803,
                    "duration": 0.46518800000000127
                },
                {
                    "name": "D#5",
                    "midi": 75,
                    "time": 19.072708,
                    "velocity": 0.4645669291338583,
                    "duration": 0.46518800000000127
                },
                {
                    "name": "C#5",
                    "midi": 73,
                    "time": 19.537896,
                    "velocity": 0.5039370078740157,
                    "duration": 0.930375999999999
                },
                {
                    "name": "A#4",
                    "midi": 70,
                    "time": 19.537896,
                    "velocity": 0.4015748031496063,
                    "duration": 0.930375999999999
                },
                {
                    "name": "F4",
                    "midi": 65,
                    "time": 19.537896,
                    "velocity": 0.4015748031496063,
                    "duration": 0.930375999999999
                },
                {
                    "name": "G4",
                    "midi": 67,
                    "time": 20.468272,
                    "velocity": 0.33070866141732286,
                    "duration": 0.4651879999999977
                },
                {
                    "name": "C5",
                    "midi": 72,
                    "time": 20.468272,
                    "velocity": 0.41732283464566927,
                    "duration": 0.23259399999999886
                },
                {
                    "name": "C#4",
                    "midi": 61,
                    "time": 20.468272,
                    "velocity": 0.3700787401574803,
                    "duration": 0.4651879999999977
                },
                {
                    "name": "A#4",
                    "midi": 70,
                    "time": 20.700865999999998,
                    "velocity": 0.4015748031496063,
                    "duration": 0.23259399999999886
                },
                {
                    "name": "C#4",
                    "midi": 61,
                    "time": 20.933459999999997,
                    "velocity": 0.2677165354330709,
                    "duration": 1.3955640000000002
                },
                {
                    "name": "G4",
                    "midi": 67,
                    "time": 20.933459999999997,
                    "velocity": 0.2677165354330709,
                    "duration": 1.3955640000000002
                },
                {
                    "name": "A#4",
                    "midi": 70,
                    "time": 20.933459999999997,
                    "velocity": 0.3464566929133858,
                    "duration": 1.3955640000000002
                },
                {
                    "name": "C4",
                    "midi": 60,
                    "time": 22.329023999999997,
                    "velocity": 0.1968503937007874,
                    "duration": 0.46518800000000127
                },
                {
                    "name": "G#4",
                    "midi": 68,
                    "time": 22.329023999999997,
                    "velocity": 0.25984251968503935,
                    "duration": 0.46518800000000127
                },
                {
                    "name": "D4",
                    "midi": 62,
                    "time": 23.2594,
                    "velocity": 0.25196850393700787,
                    "duration": 0.46518800000000127
                },
                {
                    "name": "G#4",
                    "midi": 68,
                    "time": 23.2594,
                    "velocity": 0.25196850393700787,
                    "duration": 0.46518800000000127
                },
                {
                    "name": "B4",
                    "midi": 71,
                    "time": 23.2594,
                    "velocity": 0.31496062992125984,
                    "duration": 0.46518800000000127
                },
                {
                    "name": "D4",
                    "midi": 62,
                    "time": 23.724588,
                    "velocity": 0.25196850393700787,
                    "duration": 1.3955640000000002
                },
                {
                    "name": "G#4",
                    "midi": 68,
                    "time": 23.724588,
                    "velocity": 0.25196850393700787,
                    "duration": 1.8607520000000015
                },
                {
                    "name": "B4",
                    "midi": 71,
                    "time": 23.724588,
                    "velocity": 0.31496062992125984,
                    "duration": 1.8607520000000015
                },
                {
                    "name": "D#4",
                    "midi": 63,
                    "time": 25.120152,
                    "velocity": 0.2204724409448819,
                    "duration": 0.46518800000000127
                },
                {
                    "name": "E4",
                    "midi": 64,
                    "time": 26.050528000000003,
                    "velocity": 0.28346456692913385,
                    "duration": 0.46518800000000127
                },
                {
                    "name": "G#4",
                    "midi": 68,
                    "time": 26.050528000000003,
                    "velocity": 0.28346456692913385,
                    "duration": 0.46518800000000127
                },
                {
                    "name": "B4",
                    "midi": 71,
                    "time": 26.050528000000003,
                    "velocity": 0.3543307086614173,
                    "duration": 0.46518800000000127
                },
                {
                    "name": "E4",
                    "midi": 64,
                    "time": 26.515716000000005,
                    "velocity": 0.30708661417322836,
                    "duration": 1.3955640000000002
                },
                {
                    "name": "G#4",
                    "midi": 68,
                    "time": 26.515716000000005,
                    "velocity": 0.30708661417322836,
                    "duration": 1.8607520000000015
                },
                {
                    "name": "B4",
                    "midi": 71,
                    "time": 26.515716000000005,
                    "velocity": 0.3858267716535433,
                    "duration": 1.8607520000000015
                },
                {
                    "name": "D#4",
                    "midi": 63,
                    "time": 27.911280000000005,
                    "velocity": 0.2283464566929134,
                    "duration": 0.46518800000000127
                },
                {
                    "name": "D#4",
                    "midi": 63,
                    "time": 28.841656000000008,
                    "velocity": 0.3228346456692913,
                    "duration": 0.46518800000000127
                },
                {
                    "name": "G#4",
                    "midi": 68,
                    "time": 28.841656000000008,
                    "velocity": 0.3228346456692913,
                    "duration": 0.46518800000000127
                },
                {
                    "name": "B4",
                    "midi": 71,
                    "time": 28.841656000000008,
                    "velocity": 0.4094488188976378,
                    "duration": 0.46518800000000127
                },
                {
                    "name": "A#4",
                    "midi": 70,
                    "time": 29.30684400000001,
                    "velocity": 0.4566929133858268,
                    "duration": 0.46518800000000127
                },
                {
                    "name": "E4",
                    "midi": 64,
                    "time": 29.30684400000001,
                    "velocity": 0.36220472440944884,
                    "duration": 2.3259399999999992
                },
                {
                    "name": "G#4",
                    "midi": 68,
                    "time": 29.30684400000001,
                    "velocity": 0.36220472440944884,
                    "duration": 2.3259399999999992
                },
                {
                    "name": "E5",
                    "midi": 76,
                    "time": 29.77203200000001,
                    "velocity": 0.5118110236220472,
                    "duration": 0.6977820000000001
                },
                {
                    "name": "A#4",
                    "midi": 70,
                    "time": 30.46981400000001,
                    "velocity": 0.4015748031496063,
                    "duration": 0.23259399999999886
                },
                {
                    "name": "D#5",
                    "midi": 75,
                    "time": 30.70240800000001,
                    "velocity": 0.44881889763779526,
                    "duration": 0.23259399999999886
                },
                {
                    "name": "C#5",
                    "midi": 73,
                    "time": 30.935002000000008,
                    "velocity": 0.4330708661417323,
                    "duration": 0.23259399999999886
                },
                {
                    "name": "B4",
                    "midi": 71,
                    "time": 31.167596000000007,
                    "velocity": 0.4330708661417323,
                    "duration": 0.46518800000000127
                },
                {
                    "name": "C#4",
                    "midi": 61,
                    "time": 31.632784000000008,
                    "velocity": 0.3228346456692913,
                    "duration": 0.4651879999999977
                },
                {
                    "name": "E4",
                    "midi": 64,
                    "time": 31.632784000000008,
                    "velocity": 0.3228346456692913,
                    "duration": 0.4651879999999977
                },
                {
                    "name": "A#4",
                    "midi": 70,
                    "time": 31.632784000000008,
                    "velocity": 0.4094488188976378,
                    "duration": 0.4651879999999977
                },
                {
                    "name": "D#4",
                    "midi": 63,
                    "time": 32.097972000000006,
                    "velocity": 0.30708661417322836,
                    "duration": 1.860751999999998
                },
                {
                    "name": "B3",
                    "midi": 59,
                    "time": 32.097972000000006,
                    "velocity": 0.30708661417322836,
                    "duration": 1.3955640000000002
                },
                {
                    "name": "G#4",
                    "midi": 68,
                    "time": 32.097972000000006,
                    "velocity": 0.3858267716535433,
                    "duration": 1.3955640000000002
                },
                {
                    "name": "A#3",
                    "midi": 58,
                    "time": 33.493536000000006,
                    "velocity": 0.2125984251968504,
                    "duration": 0.4651879999999977
                },
                {
                    "name": "G4",
                    "midi": 67,
                    "time": 33.493536000000006,
                    "velocity": 0.2755905511811024,
                    "duration": 0.4651879999999977
                },
                {
                    "name": "D4",
                    "midi": 62,
                    "time": 34.423912,
                    "velocity": 0.2204724409448819,
                    "duration": 0.4651879999999977
                },
                {
                    "name": "G#4",
                    "midi": 68,
                    "time": 34.423912,
                    "velocity": 0.2204724409448819,
                    "duration": 0.4651879999999977
                },
                {
                    "name": "B4",
                    "midi": 71,
                    "time": 34.423912,
                    "velocity": 0.28346456692913385,
                    "duration": 0.4651879999999977
                },
                {
                    "name": "D4",
                    "midi": 62,
                    "time": 34.8891,
                    "velocity": 0.2204724409448819,
                    "duration": 1.3955640000000002
                },
                {
                    "name": "G#4",
                    "midi": 68,
                    "time": 34.8891,
                    "velocity": 0.2204724409448819,
                    "duration": 1.860751999999998
                },
                {
                    "name": "B4",
                    "midi": 71,
                    "time": 34.8891,
                    "velocity": 0.28346456692913385,
                    "duration": 1.860751999999998
                },
                {
                    "name": "D#4",
                    "midi": 63,
                    "time": 36.284664,
                    "velocity": 0.1968503937007874,
                    "duration": 0.4651879999999977
                },
                {
                    "name": "E4",
                    "midi": 64,
                    "time": 37.215039999999995,
                    "velocity": 0.2992125984251969,
                    "duration": 0.4651879999999977
                },
                {
                    "name": "G#4",
                    "midi": 68,
                    "time": 37.215039999999995,
                    "velocity": 0.2992125984251969,
                    "duration": 0.4651879999999977
                },
                {
                    "name": "B4",
                    "midi": 71,
                    "time": 37.215039999999995,
                    "velocity": 0.3779527559055118,
                    "duration": 0.4651879999999977
                },
                {
                    "name": "E4",
                    "midi": 64,
                    "time": 37.68022799999999,
                    "velocity": 0.2755905511811024,
                    "duration": 1.3955640000000002
                },
                {
                    "name": "G#4",
                    "midi": 68,
                    "time": 37.68022799999999,
                    "velocity": 0.2755905511811024,
                    "duration": 1.860751999999998
                },
                {
                    "name": "B4",
                    "midi": 71,
                    "time": 37.68022799999999,
                    "velocity": 0.3464566929133858,
                    "duration": 1.860751999999998
                },
                {
                    "name": "D#4",
                    "midi": 63,
                    "time": 39.07579199999999,
                    "velocity": 0.23622047244094488,
                    "duration": 0.4651879999999977
                },
                {
                    "name": "E4",
                    "midi": 64,
                    "time": 40.00616799999999,
                    "velocity": 0.31496062992125984,
                    "duration": 0.4651879999999977
                },
                {
                    "name": "G#4",
                    "midi": 68,
                    "time": 40.00616799999999,
                    "velocity": 0.31496062992125984,
                    "duration": 0.4651879999999977
                },
                {
                    "name": "B4",
                    "midi": 71,
                    "time": 40.00616799999999,
                    "velocity": 0.3937007874015748,
                    "duration": 0.4651879999999977
                },
                {
                    "name": "B4",
                    "midi": 71,
                    "time": 40.471355999999986,
                    "velocity": 0.4409448818897638,
                    "duration": 0.4651879999999977
                },
                {
                    "name": "E4",
                    "midi": 64,
                    "time": 40.471355999999986,
                    "velocity": 0.3543307086614173,
                    "duration": 2.7911280000000005
                },
                {
                    "name": "G#4",
                    "midi": 68,
                    "time": 40.471355999999986,
                    "velocity": 0.3543307086614173,
                    "duration": 1.3955640000000074
                },
                {
                    "name": "E5",
                    "midi": 76,
                    "time": 40.936543999999984,
                    "velocity": 0.5511811023622047,
                    "duration": 0.6977820000000037
                },
                {
                    "name": "B4",
                    "midi": 71,
                    "time": 41.63432599999999,
                    "velocity": 0.47244094488188976,
                    "duration": 0.11629700000000298
                },
                {
                    "name": "B4",
                    "midi": 71,
                    "time": 41.75062299999999,
                    "velocity": 0.4330708661417323,
                    "duration": 0.11629700000000298
                },
                {
                    "name": "D#5",
                    "midi": 75,
                    "time": 41.86691999999999,
                    "velocity": 0.5748031496062992,
                    "duration": 0.23259399999999886
                },
                {
                    "name": "C#5",
                    "midi": 73,
                    "time": 42.09951399999999,
                    "velocity": 0.5511811023622047,
                    "duration": 0.23259399999999886
                },
                {
                    "name": "B4",
                    "midi": 71,
                    "time": 42.33210799999999,
                    "velocity": 0.5275590551181102,
                    "duration": 0.4651879999999977
                },
                {
                    "name": "G#4",
                    "midi": 68,
                    "time": 42.79729599999999,
                    "velocity": 0.5118110236220472,
                    "duration": 0.4651879999999977
                },
                {
                    "name": "F4",
                    "midi": 65,
                    "time": 43.262483999999986,
                    "velocity": 0.4881889763779528,
                    "duration": 0.4651879999999977
                },
                {
                    "name": "C#4",
                    "midi": 61,
                    "time": 43.262483999999986,
                    "velocity": 0.3858267716535433,
                    "duration": 1.3955640000000002
                },
                {
                    "name": "C#5",
                    "midi": 73,
                    "time": 43.727671999999984,
                    "velocity": 0.5511811023622047,
                    "duration": 0.6977820000000037
                },
                {
                    "name": "F4",
                    "midi": 65,
                    "time": 44.42545399999999,
                    "velocity": 0.4566929133858268,
                    "duration": 0.23259399999999886
                },
                {
                    "name": "C#4",
                    "midi": 61,
                    "time": 44.65804799999999,
                    "velocity": 0.4409448818897638,
                    "duration": 0.4651879999999977
                },
                {
                    "name": "F#4",
                    "midi": 66,
                    "time": 44.65804799999999,
                    "velocity": 0.4409448818897638,
                    "duration": 0.4651879999999977
                },
                {
                    "name": "C#5",
                    "midi": 73,
                    "time": 44.65804799999999,
                    "velocity": 0.5511811023622047,
                    "duration": 0.23259399999999886
                },
                {
                    "name": "A4",
                    "midi": 69,
                    "time": 44.890641999999986,
                    "velocity": 0.5511811023622047,
                    "duration": 0.23259399999999886
                },
                {
                    "name": "E4",
                    "midi": 64,
                    "time": 45.123235999999984,
                    "velocity": 0.4409448818897638,
                    "duration": 0.4651879999999977
                },
                {
                    "name": "G#4",
                    "midi": 68,
                    "time": 45.123235999999984,
                    "velocity": 0.5511811023622047,
                    "duration": 0.4651879999999977
                },
                {
                    "name": "D#4",
                    "midi": 63,
                    "time": 45.58842399999998,
                    "velocity": 0.4251968503937008,
                    "duration": 0.4651879999999977
                },
                {
                    "name": "F#4",
                    "midi": 66,
                    "time": 45.58842399999998,
                    "velocity": 0.5275590551181102,
                    "duration": 0.4651879999999977
                },
                {
                    "name": "G#3",
                    "midi": 56,
                    "time": 46.05361199999998,
                    "velocity": 0.41732283464566927,
                    "duration": 0.9303760000000025
                },
                {
                    "name": "B3",
                    "midi": 59,
                    "time": 46.05361199999998,
                    "velocity": 0.41732283464566927,
                    "duration": 0.9303760000000025
                },
                {
                    "name": "E4",
                    "midi": 64,
                    "time": 46.05361199999998,
                    "velocity": 0.5196850393700787,
                    "duration": 0.9303760000000025
                },
                {
                    "name": "E4",
                    "midi": 64,
                    "time": 46.98398799999998,
                    "velocity": 0.4015748031496063,
                    "duration": 0.1550626666666659
                },
                {
                    "name": "G#4",
                    "midi": 68,
                    "time": 47.13905066666665,
                    "velocity": 0.4330708661417323,
                    "duration": 0.1550626666666659
                },
                {
                    "name": "B4",
                    "midi": 71,
                    "time": 47.294113333333314,
                    "velocity": 0.4645669291338583,
                    "duration": 0.1550626666666659
                },
                {
                    "name": "A#4",
                    "midi": 70,
                    "time": 47.44917599999998,
                    "velocity": 0.5433070866141733,
                    "duration": 0.9303760000000025
                },
                {
                    "name": "G4",
                    "midi": 67,
                    "time": 47.44917599999998,
                    "velocity": 0.4330708661417323,
                    "duration": 0.9303760000000025
                },
                {
                    "name": "E4",
                    "midi": 64,
                    "time": 47.44917599999998,
                    "velocity": 0.4330708661417323,
                    "duration": 0.9303760000000025
                },
                {
                    "name": "C#4",
                    "midi": 61,
                    "time": 47.44917599999998,
                    "velocity": 0.4330708661417323,
                    "duration": 0.9303760000000025
                },
                {
                    "name": "B4",
                    "midi": 71,
                    "time": 48.37955199999998,
                    "velocity": 0.44881889763779526,
                    "duration": 0.23259399999999886
                },
                {
                    "name": "G#4",
                    "midi": 68,
                    "time": 48.37955199999998,
                    "velocity": 0.3543307086614173,
                    "duration": 0.23259399999999886
                },
                {
                    "name": "E4",
                    "midi": 64,
                    "time": 48.37955199999998,
                    "velocity": 0.3543307086614173,
                    "duration": 0.23259399999999886
                },
                {
                    "name": "B3",
                    "midi": 59,
                    "time": 48.37955199999998,
                    "velocity": 0.3543307086614173,
                    "duration": 0.23259399999999886
                },
                {
                    "name": "F#4",
                    "midi": 66,
                    "time": 48.61214599999998,
                    "velocity": 0.3464566929133858,
                    "duration": 0.11629700000000298
                },
                {
                    "name": "G#4",
                    "midi": 68,
                    "time": 48.728442999999984,
                    "velocity": 0.3464566929133858,
                    "duration": 0.11629700000000298
                },
                {
                    "name": "C4",
                    "midi": 60,
                    "time": 48.84473999999999,
                    "velocity": 0.3464566929133858,
                    "duration": 0.6977820000000037
                },
                {
                    "name": "A4",
                    "midi": 69,
                    "time": 48.84473999999999,
                    "velocity": 0.3858267716535433,
                    "duration": 0.6977820000000037
                },
                {
                    "name": "D#4",
                    "midi": 63,
                    "time": 48.84473999999999,
                    "velocity": 0.3858267716535433,
                    "duration": 1.3955640000000002
                },
                {
                    "name": "B3",
                    "midi": 59,
                    "time": 49.54252199999999,
                    "velocity": 0.33070866141732286,
                    "duration": 0.23259399999999886
                },
                {
                    "name": "G#4",
                    "midi": 68,
                    "time": 49.54252199999999,
                    "velocity": 0.3700787401574803,
                    "duration": 0.23259399999999886
                },
                {
                    "name": "A3",
                    "midi": 57,
                    "time": 49.77511599999999,
                    "velocity": 0.30708661417322836,
                    "duration": 0.4651879999999977
                },
                {
                    "name": "F#4",
                    "midi": 66,
                    "time": 49.77511599999999,
                    "velocity": 0.3464566929133858,
                    "duration": 0.4651879999999977
                },
                {
                    "name": "G#3",
                    "midi": 56,
                    "time": 50.24030399999999,
                    "velocity": 0.25196850393700787,
                    "duration": 0.9303760000000025
                },
                {
                    "name": "E4",
                    "midi": 64,
                    "time": 50.24030399999999,
                    "velocity": 0.3228346456692913,
                    "duration": 0.9303760000000025
                },
                {
                    "name": "E4",
                    "midi": 64,
                    "time": 51.17067999999999,
                    "velocity": 0.4015748031496063,
                    "duration": 0.1550626666666659
                },
                {
                    "name": "G#4",
                    "midi": 68,
                    "time": 51.325742666666656,
                    "velocity": 0.4330708661417323,
                    "duration": 0.1550626666666659
                },
                {
                    "name": "B4",
                    "midi": 71,
                    "time": 51.48080533333332,
                    "velocity": 0.4645669291338583,
                    "duration": 0.1550626666666659
                },
                {
                    "name": "A#4",
                    "midi": 70,
                    "time": 51.63586799999999,
                    "velocity": 0.5433070866141733,
                    "duration": 0.9303760000000025
                },
                {
                    "name": "G4",
                    "midi": 67,
                    "time": 51.63586799999999,
                    "velocity": 0.4881889763779528,
                    "duration": 0.9303760000000025
                },
                {
                    "name": "E4",
                    "midi": 64,
                    "time": 51.63586799999999,
                    "velocity": 0.4330708661417323,
                    "duration": 0.9303760000000025
                },
                {
                    "name": "C#4",
                    "midi": 61,
                    "time": 51.63586799999999,
                    "velocity": 0.4330708661417323,
                    "duration": 0.9303760000000025
                },
                {
                    "name": "B4",
                    "midi": 71,
                    "time": 52.56624399999999,
                    "velocity": 0.4015748031496063,
                    "duration": 0.23259399999999886
                },
                {
                    "name": "G#4",
                    "midi": 68,
                    "time": 52.56624399999999,
                    "velocity": 0.31496062992125984,
                    "duration": 0.23259399999999886
                },
                {
                    "name": "E4",
                    "midi": 64,
                    "time": 52.56624399999999,
                    "velocity": 0.31496062992125984,
                    "duration": 0.23259399999999886
                },
                {
                    "name": "B3",
                    "midi": 59,
                    "time": 52.56624399999999,
                    "velocity": 0.31496062992125984,
                    "duration": 0.23259399999999886
                },
                {
                    "name": "F#4",
                    "midi": 66,
                    "time": 52.79883799999999,
                    "velocity": 0.33858267716535434,
                    "duration": 0.11629700000000298
                },
                {
                    "name": "G#4",
                    "midi": 68,
                    "time": 52.91513499999999,
                    "velocity": 0.33858267716535434,
                    "duration": 0.11629700000000298
                },
                {
                    "name": "C4",
                    "midi": 60,
                    "time": 53.031431999999995,
                    "velocity": 0.3228346456692913,
                    "duration": 0.6977820000000037
                },
                {
                    "name": "A4",
                    "midi": 69,
                    "time": 53.031431999999995,
                    "velocity": 0.36220472440944884,
                    "duration": 0.6977820000000037
                },
                {
                    "name": "D#4",
                    "midi": 63,
                    "time": 53.031431999999995,
                    "velocity": 0.3228346456692913,
                    "duration": 1.3955640000000002
                },
                {
                    "name": "B3",
                    "midi": 59,
                    "time": 53.729214,
                    "velocity": 0.28346456692913385,
                    "duration": 0.23259399999999886
                },
                {
                    "name": "G#4",
                    "midi": 68,
                    "time": 53.729214,
                    "velocity": 0.3228346456692913,
                    "duration": 0.23259399999999886
                },
                {
                    "name": "A3",
                    "midi": 57,
                    "time": 53.961808,
                    "velocity": 0.29133858267716534,
                    "duration": 0.4651879999999977
                },
                {
                    "name": "F#4",
                    "midi": 66,
                    "time": 53.961808,
                    "velocity": 0.29133858267716534,
                    "duration": 0.4651879999999977
                },
                {
                    "name": "G#3",
                    "midi": 56,
                    "time": 54.426995999999995,
                    "velocity": 0.2440944881889764,
                    "duration": 0.9303760000000025
                },
                {
                    "name": "E4",
                    "midi": 64,
                    "time": 54.426995999999995,
                    "velocity": 0.2755905511811024,
                    "duration": 0.9303760000000025
                },
                {
                    "name": "G#4",
                    "midi": 68,
                    "time": 55.357372,
                    "velocity": 0.33858267716535434,
                    "duration": 0.4651879999999977
                },
                {
                    "name": "E4",
                    "midi": 64,
                    "time": 55.822559999999996,
                    "velocity": 0.30708661417322836,
                    "duration": 0.9303760000000025
                },
                {
                    "name": "G#4",
                    "midi": 68,
                    "time": 55.822559999999996,
                    "velocity": 0.3858267716535433,
                    "duration": 0.9303760000000025
                },
                {
                    "name": "E4",
                    "midi": 64,
                    "time": 56.752936,
                    "velocity": 0.2755905511811024,
                    "duration": 0.4651879999999977
                },
                {
                    "name": "G#4",
                    "midi": 68,
                    "time": 56.752936,
                    "velocity": 0.3464566929133858,
                    "duration": 0.4651879999999977
                },
                {
                    "name": "E4",
                    "midi": 64,
                    "time": 57.218123999999996,
                    "velocity": 0.3937007874015748,
                    "duration": 0.6977819999999966
                },
                {
                    "name": "G#4",
                    "midi": 68,
                    "time": 57.218123999999996,
                    "velocity": 0.3937007874015748,
                    "duration": 0.9303759999999954
                },
                {
                    "name": "D#4",
                    "midi": 63,
                    "time": 57.91590599999999,
                    "velocity": 0.3543307086614173,
                    "duration": 0.23259399999999886
                },
                {
                    "name": "D4",
                    "midi": 62,
                    "time": 58.14849999999999,
                    "velocity": 0.33070866141732286,
                    "duration": 0.4651879999999977
                },
                {
                    "name": "G#4",
                    "midi": 68,
                    "time": 58.14849999999999,
                    "velocity": 0.33070866141732286,
                    "duration": 0.4651879999999977
                },
                {
                    "name": "D#4",
                    "midi": 63,
                    "time": 58.61368799999999,
                    "velocity": 0.2755905511811024,
                    "duration": 2.325940000000003
                },
                {
                    "name": "G#4",
                    "midi": 68,
                    "time": 58.61368799999999,
                    "velocity": 0.3464566929133858,
                    "duration": 1.3955640000000002
                },
                {
                    "name": "G4",
                    "midi": 67,
                    "time": 60.00925199999999,
                    "velocity": 0.30708661417322836,
                    "duration": 0.6977820000000037
                },
                {
                    "name": "G#4",
                    "midi": 68,
                    "time": 60.70703399999999,
                    "velocity": 0.30708661417322836,
                    "duration": 0.23259399999999886
                },
                {
                    "name": "A#4",
                    "midi": 70,
                    "time": 60.93962799999999,
                    "velocity": 0.33070866141732286,
                    "duration": 0.23259399999999886
                },
                {
                    "name": "C5",
                    "midi": 72,
                    "time": 61.17222199999999,
                    "velocity": 0.3543307086614173,
                    "duration": 0.23259399999999886
                },
                {
                    "name": "F4",
                    "midi": 65,
                    "time": 61.40481599999999,
                    "velocity": 0.2992125984251969,
                    "duration": 0.9303760000000025
                },
                {
                    "name": "G#4",
                    "midi": 68,
                    "time": 61.40481599999999,
                    "velocity": 0.2992125984251969,
                    "duration": 0.9303760000000025
                },
                {
                    "name": "C#5",
                    "midi": 73,
                    "time": 61.40481599999999,
                    "velocity": 0.3779527559055118,
                    "duration": 0.9303760000000025
                },
                {
                    "name": "F4",
                    "midi": 65,
                    "time": 62.33519199999999,
                    "velocity": 0.30708661417322836,
                    "duration": 0.4651879999999977
                },
                {
                    "name": "G#4",
                    "midi": 68,
                    "time": 62.33519199999999,
                    "velocity": 0.30708661417322836,
                    "duration": 0.4651879999999977
                },
                {
                    "name": "C#5",
                    "midi": 73,
                    "time": 62.33519199999999,
                    "velocity": 0.3858267716535433,
                    "duration": 0.4651879999999977
                },
                {
                    "name": "D#5",
                    "midi": 75,
                    "time": 62.80037999999999,
                    "velocity": 0.4330708661417323,
                    "duration": 0.11629700000000298
                },
                {
                    "name": "G4",
                    "midi": 67,
                    "time": 62.80037999999999,
                    "velocity": 0.31496062992125984,
                    "duration": 0.9303760000000096
                },
                {
                    "name": "A#4",
                    "midi": 70,
                    "time": 62.80037999999999,
                    "velocity": 0.31496062992125984,
                    "duration": 0.9303760000000096
                },
                {
                    "name": "C#5",
                    "midi": 73,
                    "time": 62.91667699999999,
                    "velocity": 0.3937007874015748,
                    "duration": 0.11629700000000298
                },
                {
                    "name": "C5",
                    "midi": 72,
                    "time": 63.032973999999996,
                    "velocity": 0.3937007874015748,
                    "duration": 0.11629700000000298
                },
                {
                    "name": "C#5",
                    "midi": 73,
                    "time": 63.149271,
                    "velocity": 0.3937007874015748,
                    "duration": 0.11629700000000298
                },
                {
                    "name": "D#5",
                    "midi": 75,
                    "time": 63.265568,
                    "velocity": 0.4015748031496063,
                    "duration": 0.4651879999999977
                },
                {
                    "name": "G4",
                    "midi": 67,
                    "time": 63.730756,
                    "velocity": 0.30708661417322836,
                    "duration": 0.4651879999999977
                },
                {
                    "name": "A#4",
                    "midi": 70,
                    "time": 63.730756,
                    "velocity": 0.3858267716535433,
                    "duration": 0.4651879999999977
                },
                {
                    "name": "G4",
                    "midi": 67,
                    "time": 64.195944,
                    "velocity": 0.31496062992125984,
                    "duration": 1.3955640000000074
                },
                {
                    "name": "A#4",
                    "midi": 70,
                    "time": 64.195944,
                    "velocity": 0.31496062992125984,
                    "duration": 1.3955640000000074
                },
                {
                    "name": "C#5",
                    "midi": 73,
                    "time": 64.195944,
                    "velocity": 0.3937007874015748,
                    "duration": 1.3955640000000074
                },
                {
                    "name": "G#4",
                    "midi": 68,
                    "time": 65.591508,
                    "velocity": 0.28346456692913385,
                    "duration": 0.4651879999999977
                },
                {
                    "name": "C5",
                    "midi": 72,
                    "time": 65.591508,
                    "velocity": 0.3543307086614173,
                    "duration": 0.4651879999999977
                },
                {
                    "name": "G#4",
                    "midi": 68,
                    "time": 66.521884,
                    "velocity": 0.5039370078740157,
                    "duration": 0.4651879999999977
                },
                {
                    "name": "C5",
                    "midi": 72,
                    "time": 66.521884,
                    "velocity": 0.5039370078740157,
                    "duration": 0.4651879999999977
                },
                {
                    "name": "F5",
                    "midi": 77,
                    "time": 66.521884,
                    "velocity": 0.6299212598425197,
                    "duration": 0.4651879999999977
                },
                {
                    "name": "G#4",
                    "midi": 68,
                    "time": 66.987072,
                    "velocity": 0.5039370078740157,
                    "duration": 0.9303759999999954
                },
                {
                    "name": "C5",
                    "midi": 72,
                    "time": 66.987072,
                    "velocity": 0.5039370078740157,
                    "duration": 0.9303759999999954
                },
                {
                    "name": "F5",
                    "midi": 77,
                    "time": 66.987072,
                    "velocity": 0.6299212598425197,
                    "duration": 0.9303759999999954
                },
                {
                    "name": "G#4",
                    "midi": 68,
                    "time": 67.917448,
                    "velocity": 0.5039370078740157,
                    "duration": 0.4651879999999977
                },
                {
                    "name": "C5",
                    "midi": 72,
                    "time": 67.917448,
                    "velocity": 0.5039370078740157,
                    "duration": 0.4651879999999977
                },
                {
                    "name": "F5",
                    "midi": 77,
                    "time": 67.917448,
                    "velocity": 0.6299212598425197,
                    "duration": 0.4651879999999977
                },
                {
                    "name": "G#5",
                    "midi": 80,
                    "time": 68.38263599999999,
                    "velocity": 0.6771653543307087,
                    "duration": 0.6977820000000037
                },
                {
                    "name": "G#4",
                    "midi": 68,
                    "time": 68.38263599999999,
                    "velocity": 0.5433070866141733,
                    "duration": 0.9303760000000096
                },
                {
                    "name": "C5",
                    "midi": 72,
                    "time": 68.38263599999999,
                    "velocity": 0.5433070866141733,
                    "duration": 0.9303760000000096
                },
                {
                    "name": "G4",
                    "midi": 67,
                    "time": 69.080418,
                    "velocity": 0.5039370078740157,
                    "duration": 0.23259400000000596
                },
                {
                    "name": "G5",
                    "midi": 79,
                    "time": 69.080418,
                    "velocity": 0.6299212598425197,
                    "duration": 0.23259400000000596
                },
                {
                    "name": "F5",
                    "midi": 77,
                    "time": 69.313012,
                    "velocity": 0.5905511811023622,
                    "duration": 0.4651879999999977
                },
                {
                    "name": "C5",
                    "midi": 72,
                    "time": 69.313012,
                    "velocity": 0.47244094488188976,
                    "duration": 0.4651879999999977
                },
                {
                    "name": "G#4",
                    "midi": 68,
                    "time": 69.313012,
                    "velocity": 0.47244094488188976,
                    "duration": 0.4651879999999977
                },
                {
                    "name": "F4",
                    "midi": 65,
                    "time": 69.313012,
                    "velocity": 0.47244094488188976,
                    "duration": 0.4651879999999977
                },
                {
                    "name": "F5",
                    "midi": 77,
                    "time": 69.7782,
                    "velocity": 0.6299212598425197,
                    "duration": 2.325940000000003
                },
                {
                    "name": "C#5",
                    "midi": 73,
                    "time": 69.7782,
                    "velocity": 0.5039370078740157,
                    "duration": 2.7911280000000005
                },
                {
                    "name": "A#4",
                    "midi": 70,
                    "time": 69.7782,
                    "velocity": 0.5039370078740157,
                    "duration": 2.7911280000000005
                },
                {
                    "name": "G4",
                    "midi": 67,
                    "time": 69.7782,
                    "velocity": 0.5039370078740157,
                    "duration": 2.7911280000000005
                },
                {
                    "name": "E5",
                    "midi": 76,
                    "time": 72.10414,
                    "velocity": 0.4251968503937008,
                    "duration": 0.4651879999999977
                },
                {
                    "name": "A#4",
                    "midi": 70,
                    "time": 72.569328,
                    "velocity": 0.33070866141732286,
                    "duration": 2.3259399999999886
                },
                {
                    "name": "D#5",
                    "midi": 75,
                    "time": 72.569328,
                    "velocity": 0.3700787401574803,
                    "duration": 0.9303759999999954
                },
                {
                    "name": "D5",
                    "midi": 74,
                    "time": 73.499704,
                    "velocity": 0.33858267716535434,
                    "duration": 0.4651879999999977
                },
                {
                    "name": "C#5",
                    "midi": 73,
                    "time": 73.96489199999999,
                    "velocity": 0.29133858267716534,
                    "duration": 0.9303759999999954
                },
                {
                    "name": "D#4",
                    "midi": 63,
                    "time": 74.89526799999999,
                    "velocity": 0.28346456692913385,
                    "duration": 0.4651879999999977
                },
                {
                    "name": "G#4",
                    "midi": 68,
                    "time": 74.89526799999999,
                    "velocity": 0.28346456692913385,
                    "duration": 0.4651879999999977
                },
                {
                    "name": "C5",
                    "midi": 72,
                    "time": 74.89526799999999,
                    "velocity": 0.3543307086614173,
                    "duration": 0.4651879999999977
                },
                {
                    "name": "F4",
                    "midi": 65,
                    "time": 75.36045599999999,
                    "velocity": 0.29133858267716534,
                    "duration": 1.8607519999999909
                },
                {
                    "name": "G#4",
                    "midi": 68,
                    "time": 75.36045599999999,
                    "velocity": 0.29133858267716534,
                    "duration": 1.8607519999999909
                },
                {
                    "name": "C5",
                    "midi": 72,
                    "time": 75.36045599999999,
                    "velocity": 0.3700787401574803,
                    "duration": 1.3955639999999931
                },
                {
                    "name": "A#4",
                    "midi": 70,
                    "time": 76.75601999999998,
                    "velocity": 0.3464566929133858,
                    "duration": 0.4651879999999977
                },
                {
                    "name": "F5",
                    "midi": 77,
                    "time": 77.68639599999997,
                    "velocity": 0.3937007874015748,
                    "duration": 0.4651879999999977
                },
                {
                    "name": "A#4",
                    "midi": 70,
                    "time": 77.68639599999997,
                    "velocity": 0.31496062992125984,
                    "duration": 0.4651879999999977
                },
                {
                    "name": "G4",
                    "midi": 67,
                    "time": 77.68639599999997,
                    "velocity": 0.31496062992125984,
                    "duration": 0.4651879999999977
                },
                {
                    "name": "G#4",
                    "midi": 68,
                    "time": 78.15158399999997,
                    "velocity": 0.3228346456692913,
                    "duration": 1.8607519999999909
                },
                {
                    "name": "C5",
                    "midi": 72,
                    "time": 78.15158399999997,
                    "velocity": 0.3228346456692913,
                    "duration": 1.8607519999999909
                },
                {
                    "name": "F5",
                    "midi": 77,
                    "time": 78.15158399999997,
                    "velocity": 0.4094488188976378,
                    "duration": 1.3955639999999931
                },
                {
                    "name": "D#5",
                    "midi": 75,
                    "time": 79.54714799999996,
                    "velocity": 0.3779527559055118,
                    "duration": 0.4651879999999977
                },
                {
                    "name": "C4",
                    "midi": 60,
                    "time": 80.24492999999997,
                    "velocity": 0.2992125984251969,
                    "duration": 0.6977820000000179
                },
                {
                    "name": "D#4",
                    "midi": 63,
                    "time": 80.24492999999997,
                    "velocity": 0.3779527559055118,
                    "duration": 0.23259400000000596
                },
                {
                    "name": "G#4",
                    "midi": 68,
                    "time": 80.47752399999997,
                    "velocity": 0.3937007874015748,
                    "duration": 0.23259400000000596
                },
                {
                    "name": "C5",
                    "midi": 72,
                    "time": 80.71011799999998,
                    "velocity": 0.4094488188976378,
                    "duration": 0.23259400000000596
                },
                {
                    "name": "C#4",
                    "midi": 61,
                    "time": 80.94271199999999,
                    "velocity": 0.33858267716535434,
                    "duration": 0.9303759999999954
                },
                {
                    "name": "D#4",
                    "midi": 63,
                    "time": 80.94271199999999,
                    "velocity": 0.33858267716535434,
                    "duration": 0.9303759999999954
                },
                {
                    "name": "G4",
                    "midi": 67,
                    "time": 80.94271199999999,
                    "velocity": 0.33858267716535434,
                    "duration": 0.9303759999999954
                },
                {
                    "name": "C#5",
                    "midi": 73,
                    "time": 80.94271199999999,
                    "velocity": 0.4251968503937008,
                    "duration": 0.9303759999999954
                },
                {
                    "name": "C4",
                    "midi": 60,
                    "time": 81.87308799999998,
                    "velocity": 0.3543307086614173,
                    "duration": 0.4651879999999977
                },
                {
                    "name": "D#4",
                    "midi": 63,
                    "time": 81.87308799999998,
                    "velocity": 0.3543307086614173,
                    "duration": 0.4651879999999977
                },
                {
                    "name": "G#4",
                    "midi": 68,
                    "time": 81.87308799999998,
                    "velocity": 0.3543307086614173,
                    "duration": 0.4651879999999977
                },
                {
                    "name": "C5",
                    "midi": 72,
                    "time": 81.87308799999998,
                    "velocity": 0.4409448818897638,
                    "duration": 0.4651879999999977
                },
                {
                    "name": "A#3",
                    "midi": 58,
                    "time": 82.33827599999998,
                    "velocity": 0.3543307086614173,
                    "duration": 0.9303759999999954
                },
                {
                    "name": "D#4",
                    "midi": 63,
                    "time": 82.33827599999998,
                    "velocity": 0.3543307086614173,
                    "duration": 0.9303759999999954
                },
                {
                    "name": "A#4",
                    "midi": 70,
                    "time": 82.33827599999998,
                    "velocity": 0.44881889763779526,
                    "duration": 0.9303759999999954
                },
                {
                    "name": "D4",
                    "midi": 62,
                    "time": 83.26865199999997,
                    "velocity": 0.3858267716535433,
                    "duration": 0.4651879999999977
                },
                {
                    "name": "A#4",
                    "midi": 70,
                    "time": 83.26865199999997,
                    "velocity": 0.3858267716535433,
                    "duration": 0.4651879999999977
                },
                {
                    "name": "G#4",
                    "midi": 68,
                    "time": 83.26865199999997,
                    "velocity": 0.3858267716535433,
                    "duration": 0.4651879999999977
                },
                {
                    "name": "D5",
                    "midi": 74,
                    "time": 83.26865199999997,
                    "velocity": 0.4881889763779528,
                    "duration": 0.4651879999999977
                },
                {
                    "name": "D4",
                    "midi": 62,
                    "time": 83.73383999999997,
                    "velocity": 0.4330708661417323,
                    "duration": 1.3955639999999931
                },
                {
                    "name": "A#4",
                    "midi": 70,
                    "time": 83.73383999999997,
                    "velocity": 0.4330708661417323,
                    "duration": 1.8607519999999909
                },
                {
                    "name": "G#4",
                    "midi": 68,
                    "time": 83.73383999999997,
                    "velocity": 0.4330708661417323,
                    "duration": 1.3955639999999931
                },
                {
                    "name": "D5",
                    "midi": 74,
                    "time": 83.73383999999997,
                    "velocity": 0.5433070866141733,
                    "duration": 1.3955639999999931
                },
                {
                    "name": "G4",
                    "midi": 67,
                    "time": 85.12940399999997,
                    "velocity": 0.28346456692913385,
                    "duration": 0.4651879999999977
                },
                {
                    "name": "D#4",
                    "midi": 63,
                    "time": 85.12940399999997,
                    "velocity": 0.28346456692913385,
                    "duration": 0.4651879999999977
                },
                {
                    "name": "D#5",
                    "midi": 75,
                    "time": 85.12940399999997,
                    "velocity": 0.3543307086614173,
                    "duration": 0.4651879999999977
                },
                {
                    "name": "D#4",
                    "midi": 63,
                    "time": 86.05977999999996,
                    "velocity": 0.4566929133858268,
                    "duration": 0.4651879999999977
                },
                {
                    "name": "G#4",
                    "midi": 68,
                    "time": 86.05977999999996,
                    "velocity": 0.4566929133858268,
                    "duration": 0.4651879999999977
                },
                {
                    "name": "C5",
                    "midi": 72,
                    "time": 86.05977999999996,
                    "velocity": 0.5748031496062992,
                    "duration": 0.4651879999999977
                },
                {
                    "name": "E4",
                    "midi": 64,
                    "time": 86.52496799999996,
                    "velocity": 0.5039370078740157,
                    "duration": 1.860752000000005
                },
                {
                    "name": "G#4",
                    "midi": 68,
                    "time": 86.52496799999996,
                    "velocity": 0.5039370078740157,
                    "duration": 1.860752000000005
                },
                {
                    "name": "C5",
                    "midi": 72,
                    "time": 86.52496799999996,
                    "velocity": 0.6377952755905512,
                    "duration": 1.1629700000000014
                },
                {
                    "name": "B4",
                    "midi": 71,
                    "time": 87.68793799999996,
                    "velocity": 0.41732283464566927,
                    "duration": 0.23259400000000596
                },
                {
                    "name": "A#4",
                    "midi": 70,
                    "time": 87.92053199999997,
                    "velocity": 0.3937007874015748,
                    "duration": 0.4651879999999977
                },
                {
                    "name": "D#4",
                    "midi": 63,
                    "time": 88.85090799999996,
                    "velocity": 0.4566929133858268,
                    "duration": 0.4651879999999977
                },
                {
                    "name": "G#4",
                    "midi": 68,
                    "time": 88.85090799999996,
                    "velocity": 0.4566929133858268,
                    "duration": 0.4651879999999977
                },
                {
                    "name": "C5",
                    "midi": 72,
                    "time": 88.85090799999996,
                    "velocity": 0.5748031496062992,
                    "duration": 0.4651879999999977
                },
                {
                    "name": "E4",
                    "midi": 64,
                    "time": 89.31609599999996,
                    "velocity": 0.5039370078740157,
                    "duration": 1.860752000000005
                },
                {
                    "name": "G#4",
                    "midi": 68,
                    "time": 89.31609599999996,
                    "velocity": 0.5039370078740157,
                    "duration": 1.860752000000005
                },
                {
                    "name": "C5",
                    "midi": 72,
                    "time": 89.31609599999996,
                    "velocity": 0.6377952755905512,
                    "duration": 1.1629700000000014
                },
                {
                    "name": "B4",
                    "midi": 71,
                    "time": 90.47906599999996,
                    "velocity": 0.4251968503937008,
                    "duration": 0.23259400000000596
                },
                {
                    "name": "A#4",
                    "midi": 70,
                    "time": 90.71165999999997,
                    "velocity": 0.4015748031496063,
                    "duration": 0.4651879999999977
                },
                {
                    "name": "E4",
                    "midi": 64,
                    "time": 91.64203599999996,
                    "velocity": 0.5669291338582677,
                    "duration": 0.9216537249999988
                },
                {
                    "name": "G#4",
                    "midi": 68,
                    "time": 91.64203599999996,
                    "velocity": 0.5669291338582677,
                    "duration": 0.9216537249999988
                },
                {
                    "name": "B4",
                    "midi": 71,
                    "time": 91.64203599999996,
                    "velocity": 0.7007874015748031,
                    "duration": 0.9216537249999988
                },
                {
                    "name": "E4",
                    "midi": 64,
                    "time": 92.57241199999996,
                    "velocity": 0.5669291338582677,
                    "duration": 0.4419285999999971
                },
                {
                    "name": "G#4",
                    "midi": 68,
                    "time": 92.57241199999996,
                    "velocity": 0.5669291338582677,
                    "duration": 0.4419285999999971
                },
                {
                    "name": "B4",
                    "midi": 71,
                    "time": 92.57241199999996,
                    "velocity": 0.7086614173228346,
                    "duration": 0.4419285999999971
                },
                {
                    "name": "E4",
                    "midi": 64,
                    "time": 93.03759999999996,
                    "velocity": 0.5590551181102362,
                    "duration": 0.4419285999999971
                },
                {
                    "name": "G#4",
                    "midi": 68,
                    "time": 93.03759999999996,
                    "velocity": 0.5590551181102362,
                    "duration": 0.4419285999999971
                },
                {
                    "name": "B4",
                    "midi": 71,
                    "time": 93.03759999999996,
                    "velocity": 0.6929133858267716,
                    "duration": 0.4419285999999971
                },
                {
                    "name": "E4",
                    "midi": 64,
                    "time": 93.50278799999995,
                    "velocity": 0.5196850393700787,
                    "duration": 0.4419285999999971
                },
                {
                    "name": "G#4",
                    "midi": 68,
                    "time": 93.50278799999995,
                    "velocity": 0.5354330708661418,
                    "duration": 0.4419285999999971
                },
                {
                    "name": "B4",
                    "midi": 71,
                    "time": 93.50278799999995,
                    "velocity": 0.6692913385826772,
                    "duration": 0.4419285999999971
                },
                {
                    "name": "E4",
                    "midi": 64,
                    "time": 93.96797599999995,
                    "velocity": 0.5511811023622047,
                    "duration": 0.4651879999999977
                },
                {
                    "name": "A4",
                    "midi": 69,
                    "time": 93.96797599999995,
                    "velocity": 0.5826771653543307,
                    "duration": 0.4651879999999977
                },
                {
                    "name": "C#5",
                    "midi": 73,
                    "time": 93.96797599999995,
                    "velocity": 0.7322834645669292,
                    "duration": 0.4651879999999977
                },
                {
                    "name": "E4",
                    "midi": 64,
                    "time": 94.43316399999995,
                    "velocity": 0.5748031496062992,
                    "duration": 0.4651879999999977
                },
                {
                    "name": "B4",
                    "midi": 71,
                    "time": 94.43316399999995,
                    "velocity": 0.6220472440944882,
                    "duration": 0.4651879999999977
                },
                {
                    "name": "D5",
                    "midi": 74,
                    "time": 94.43316399999995,
                    "velocity": 0.7716535433070866,
                    "duration": 0.4651879999999977
                },
                {
                    "name": "E4",
                    "midi": 64,
                    "time": 94.89835199999995,
                    "velocity": 0.6062992125984252,
                    "duration": 0.4651879999999977
                },
                {
                    "name": "C#5",
                    "midi": 73,
                    "time": 94.89835199999995,
                    "velocity": 0.6220472440944882,
                    "duration": 0.4651879999999977
                },
                {
                    "name": "E5",
                    "midi": 76,
                    "time": 94.89835199999995,
                    "velocity": 0.8031496062992126,
                    "duration": 0.4651879999999977
                },
                {
                    "name": "E4",
                    "midi": 64,
                    "time": 95.36353999999994,
                    "velocity": 0.5590551181102362,
                    "duration": 0.4651879999999977
                },
                {
                    "name": "B4",
                    "midi": 71,
                    "time": 95.36353999999994,
                    "velocity": 0.5826771653543307,
                    "duration": 0.4651879999999977
                },
                {
                    "name": "D5",
                    "midi": 74,
                    "time": 95.36353999999994,
                    "velocity": 0.7322834645669292,
                    "duration": 0.4651879999999977
                },
                {
                    "name": "E4",
                    "midi": 64,
                    "time": 95.82872799999994,
                    "velocity": 0.5039370078740157,
                    "duration": 0.4651879999999977
                },
                {
                    "name": "A4",
                    "midi": 69,
                    "time": 95.82872799999994,
                    "velocity": 0.5039370078740157,
                    "duration": 0.4651879999999977
                },
                {
                    "name": "C#5",
                    "midi": 73,
                    "time": 95.82872799999994,
                    "velocity": 0.5669291338582677,
                    "duration": 0.4651879999999977
                },
                {
                    "name": "D#4",
                    "midi": 63,
                    "time": 96.29391599999994,
                    "velocity": 0.36220472440944884,
                    "duration": 2.325940000000003
                },
                {
                    "name": "G#4",
                    "midi": 68,
                    "time": 96.29391599999994,
                    "velocity": 0.36220472440944884,
                    "duration": 1.3955640000000074
                },
                {
                    "name": "B4",
                    "midi": 71,
                    "time": 96.29391599999994,
                    "velocity": 0.4566929133858268,
                    "duration": 1.3955640000000074
                },
                {
                    "name": "G4",
                    "midi": 67,
                    "time": 97.68947999999995,
                    "velocity": 0.33070866141732286,
                    "duration": 0.9303759999999954
                },
                {
                    "name": "A#4",
                    "midi": 70,
                    "time": 97.68947999999995,
                    "velocity": 0.3700787401574803,
                    "duration": 0.9303759999999954
                },
                {
                    "name": "F4",
                    "midi": 65,
                    "time": 108.38880399999994,
                    "velocity": 0.3543307086614173,
                    "duration": 0.4651879999999977
                },
                {
                    "name": "F4",
                    "midi": 65,
                    "time": 108.85399199999993,
                    "velocity": 0.3543307086614173,
                    "duration": 0.9303759999999954
                },
                {
                    "name": "F#4",
                    "midi": 66,
                    "time": 109.78436799999993,
                    "velocity": 0.3700787401574803,
                    "duration": 0.23259400000000596
                },
                {
                    "name": "F4",
                    "midi": 65,
                    "time": 110.01696199999994,
                    "velocity": 0.3543307086614173,
                    "duration": 0.23259400000000596
                },
                {
                    "name": "D#4",
                    "midi": 63,
                    "time": 110.24955599999994,
                    "velocity": 0.36220472440944884,
                    "duration": 0.9303759999999954
                },
                {
                    "name": "F4",
                    "midi": 65,
                    "time": 111.17993199999994,
                    "velocity": 0.3464566929133858,
                    "duration": 0.23259400000000596
                },
                {
                    "name": "D#4",
                    "midi": 63,
                    "time": 111.41252599999994,
                    "velocity": 0.33070866141732286,
                    "duration": 0.23259400000000596
                },
                {
                    "name": "G#3",
                    "midi": 56,
                    "time": 113.97105999999995,
                    "velocity": 0.31496062992125984,
                    "duration": 0.4419285999999971
                },
                {
                    "name": "C#4",
                    "midi": 61,
                    "time": 113.97105999999995,
                    "velocity": 0.31496062992125984,
                    "duration": 0.4419285999999971
                },
                {
                    "name": "G#4",
                    "midi": 68,
                    "time": 113.97105999999995,
                    "velocity": 0.3937007874015748,
                    "duration": 0.4419285999999971
                },
                {
                    "name": "G#3",
                    "midi": 56,
                    "time": 114.43624799999995,
                    "velocity": 0.31496062992125984,
                    "duration": 0.9303759999999954
                },
                {
                    "name": "C#4",
                    "midi": 61,
                    "time": 114.43624799999995,
                    "velocity": 0.31496062992125984,
                    "duration": 0.9303759999999954
                },
                {
                    "name": "G#4",
                    "midi": 68,
                    "time": 114.43624799999995,
                    "velocity": 0.3937007874015748,
                    "duration": 0.9303759999999954
                },
                {
                    "name": "A#3",
                    "midi": 58,
                    "time": 115.36662399999994,
                    "velocity": 0.3464566929133858,
                    "duration": 0.23259400000000596
                },
                {
                    "name": "A#4",
                    "midi": 70,
                    "time": 115.36662399999994,
                    "velocity": 0.4330708661417323,
                    "duration": 0.23259400000000596
                },
                {
                    "name": "C#4",
                    "midi": 61,
                    "time": 115.36662399999994,
                    "velocity": 0.3464566929133858,
                    "duration": 0.4651880000000119
                },
                {
                    "name": "G#3",
                    "midi": 56,
                    "time": 115.59921799999995,
                    "velocity": 0.31496062992125984,
                    "duration": 0.23259400000000596
                },
                {
                    "name": "G#4",
                    "midi": 68,
                    "time": 115.59921799999995,
                    "velocity": 0.4015748031496063,
                    "duration": 0.23259400000000596
                },
                {
                    "name": "G#3",
                    "midi": 56,
                    "time": 115.83181199999996,
                    "velocity": 0.31496062992125984,
                    "duration": 0.4651879999999977
                },
                {
                    "name": "C#4",
                    "midi": 61,
                    "time": 115.83181199999996,
                    "velocity": 0.31496062992125984,
                    "duration": 0.4651879999999977
                },
                {
                    "name": "G#4",
                    "midi": 68,
                    "time": 115.83181199999996,
                    "velocity": 0.4015748031496063,
                    "duration": 0.4651879999999977
                },
                {
                    "name": "C#4",
                    "midi": 61,
                    "time": 116.29699999999995,
                    "velocity": 0.3543307086614173,
                    "duration": 0.4651879999999977
                },
                {
                    "name": "C#5",
                    "midi": 73,
                    "time": 116.29699999999995,
                    "velocity": 0.4409448818897638,
                    "duration": 0.4651879999999977
                },
                {
                    "name": "A#3",
                    "midi": 58,
                    "time": 116.76218799999995,
                    "velocity": 0.33070866141732286,
                    "duration": 0.4651879999999977
                },
                {
                    "name": "A#4",
                    "midi": 70,
                    "time": 116.76218799999995,
                    "velocity": 0.41732283464566927,
                    "duration": 0.4651879999999977
                },
                {
                    "name": "F#3",
                    "midi": 54,
                    "time": 117.22737599999995,
                    "velocity": 0.31496062992125984,
                    "duration": 0.4651879999999977
                },
                {
                    "name": "F#4",
                    "midi": 66,
                    "time": 117.22737599999995,
                    "velocity": 0.3937007874015748,
                    "duration": 0.4651879999999977
                },
                {
                    "name": "A3",
                    "midi": 57,
                    "time": 117.69256399999995,
                    "velocity": 0.33070866141732286,
                    "duration": 0.4651879999999977
                },
                {
                    "name": "D#4",
                    "midi": 63,
                    "time": 117.69256399999995,
                    "velocity": 0.33070866141732286,
                    "duration": 0.4651879999999977
                },
                {
                    "name": "F#4",
                    "midi": 66,
                    "time": 117.69256399999995,
                    "velocity": 0.33070866141732286,
                    "duration": 0.4651879999999977
                },
                {
                    "name": "A4",
                    "midi": 69,
                    "time": 117.69256399999995,
                    "velocity": 0.41732283464566927,
                    "duration": 0.4651879999999977
                },
                {
                    "name": "G#3",
                    "midi": 56,
                    "time": 118.15775199999995,
                    "velocity": 0.31496062992125984,
                    "duration": 0.4651879999999977
                },
                {
                    "name": "C4",
                    "midi": 60,
                    "time": 118.15775199999995,
                    "velocity": 0.31496062992125984,
                    "duration": 0.4651879999999977
                },
                {
                    "name": "D#4",
                    "midi": 63,
                    "time": 118.15775199999995,
                    "velocity": 0.31496062992125984,
                    "duration": 0.4651879999999977
                },
                {
                    "name": "F#4",
                    "midi": 66,
                    "time": 118.15775199999995,
                    "velocity": 0.31496062992125984,
                    "duration": 0.4651879999999977
                },
                {
                    "name": "G#4",
                    "midi": 68,
                    "time": 118.15775199999995,
                    "velocity": 0.4015748031496063,
                    "duration": 0.4651879999999977
                },
                {
                    "name": "G#3",
                    "midi": 56,
                    "time": 118.62293999999994,
                    "velocity": 0.2992125984251969,
                    "duration": 0.9303759999999954
                },
                {
                    "name": "C#4",
                    "midi": 61,
                    "time": 118.62293999999994,
                    "velocity": 0.2992125984251969,
                    "duration": 0.9303759999999954
                },
                {
                    "name": "F4",
                    "midi": 65,
                    "time": 118.62293999999994,
                    "velocity": 0.3779527559055118,
                    "duration": 0.9303759999999954
                },
                {
                    "name": "F4",
                    "midi": 65,
                    "time": 119.55331599999994,
                    "velocity": 0.2677165354330709,
                    "duration": 0.4419285999999971
                },
                {
                    "name": "G#4",
                    "midi": 68,
                    "time": 119.55331599999994,
                    "velocity": 0.2677165354330709,
                    "duration": 0.4419285999999971
                },
                {
                    "name": "F5",
                    "midi": 77,
                    "time": 119.55331599999994,
                    "velocity": 0.3543307086614173,
                    "duration": 0.4419285999999971
                },
                {
                    "name": "F4",
                    "midi": 65,
                    "time": 120.01850399999994,
                    "velocity": 0.2677165354330709,
                    "duration": 1.3955640000000074
                },
                {
                    "name": "G#4",
                    "midi": 68,
                    "time": 120.01850399999994,
                    "velocity": 0.2677165354330709,
                    "duration": 1.3955640000000074
                },
                {
                    "name": "F5",
                    "midi": 77,
                    "time": 120.01850399999994,
                    "velocity": 0.3543307086614173,
                    "duration": 0.9303759999999954
                },
                {
                    "name": "F#5",
                    "midi": 78,
                    "time": 120.94887999999993,
                    "velocity": 0.3700787401574803,
                    "duration": 0.23259400000000596
                },
                {
                    "name": "F5",
                    "midi": 77,
                    "time": 121.18147399999994,
                    "velocity": 0.3543307086614173,
                    "duration": 0.23259400000000596
                },
                {
                    "name": "F#4",
                    "midi": 66,
                    "time": 121.41406799999994,
                    "velocity": 0.2677165354330709,
                    "duration": 1.3955640000000074
                },
                {
                    "name": "G#4",
                    "midi": 68,
                    "time": 121.41406799999994,
                    "velocity": 0.2677165354330709,
                    "duration": 1.3955640000000074
                },
                {
                    "name": "D#5",
                    "midi": 75,
                    "time": 121.41406799999994,
                    "velocity": 0.36220472440944884,
                    "duration": 0.9303759999999954
                },
                {
                    "name": "F5",
                    "midi": 77,
                    "time": 122.34444399999994,
                    "velocity": 0.3464566929133858,
                    "duration": 0.23259400000000596
                },
                {
                    "name": "D#5",
                    "midi": 75,
                    "time": 122.57703799999994,
                    "velocity": 0.33070866141732286,
                    "duration": 0.23259400000000596
                },
                {
                    "name": "F4",
                    "midi": 65,
                    "time": 122.80963199999995,
                    "velocity": 0.2677165354330709,
                    "duration": 0.34889099999999473
                },
                {
                    "name": "C#5",
                    "midi": 73,
                    "time": 122.80963199999995,
                    "velocity": 0.33858267716535434,
                    "duration": 0.34889099999999473
                },
                {
                    "name": "G#4",
                    "midi": 68,
                    "time": 122.80963199999995,
                    "velocity": 0.2677165354330709,
                    "duration": 0.34889099999999473
                },
                {
                    "name": "C#5",
                    "midi": 73,
                    "time": 123.27481999999995,
                    "velocity": 0.3543307086614173,
                    "duration": 0.34889099999999473
                },
                {
                    "name": "A#4",
                    "midi": 70,
                    "time": 123.27481999999995,
                    "velocity": 0.28346456692913385,
                    "duration": 0.34889099999999473
                },
                {
                    "name": "F#4",
                    "midi": 66,
                    "time": 123.27481999999995,
                    "velocity": 0.28346456692913385,
                    "duration": 0.34889099999999473
                },
                {
                    "name": "D#5",
                    "midi": 75,
                    "time": 123.74000799999995,
                    "velocity": 0.3779527559055118,
                    "duration": 0.34889099999999473
                },
                {
                    "name": "C#5",
                    "midi": 73,
                    "time": 123.74000799999995,
                    "velocity": 0.2992125984251969,
                    "duration": 0.34889099999999473
                },
                {
                    "name": "A#4",
                    "midi": 70,
                    "time": 123.74000799999995,
                    "velocity": 0.2992125984251969,
                    "duration": 0.34889099999999473
                },
                {
                    "name": "G#4",
                    "midi": 68,
                    "time": 124.20519599999994,
                    "velocity": 0.3464566929133858,
                    "duration": 0.9303759999999954
                },
                {
                    "name": "G#4",
                    "midi": 68,
                    "time": 125.13557199999994,
                    "velocity": 0.3700787401574803,
                    "duration": 0.4419285999999971
                },
                {
                    "name": "C#5",
                    "midi": 73,
                    "time": 125.13557199999994,
                    "velocity": 0.3700787401574803,
                    "duration": 0.4419285999999971
                },
                {
                    "name": "G#5",
                    "midi": 80,
                    "time": 125.13557199999994,
                    "velocity": 0.4645669291338583,
                    "duration": 0.4419285999999971
                },
                {
                    "name": "G#4",
                    "midi": 68,
                    "time": 125.60075999999994,
                    "velocity": 0.3700787401574803,
                    "duration": 0.9303759999999954
                },
                {
                    "name": "C#5",
                    "midi": 73,
                    "time": 125.60075999999994,
                    "velocity": 0.3700787401574803,
                    "duration": 0.9303759999999954
                },
                {
                    "name": "G#5",
                    "midi": 80,
                    "time": 125.60075999999994,
                    "velocity": 0.4645669291338583,
                    "duration": 0.9303759999999954
                },
                {
                    "name": "A#4",
                    "midi": 70,
                    "time": 126.53113599999993,
                    "velocity": 0.41732283464566927,
                    "duration": 0.23259400000000596
                },
                {
                    "name": "A#5",
                    "midi": 82,
                    "time": 126.53113599999993,
                    "velocity": 0.5196850393700787,
                    "duration": 0.23259400000000596
                },
                {
                    "name": "C#5",
                    "midi": 73,
                    "time": 126.53113599999993,
                    "velocity": 0.41732283464566927,
                    "duration": 0.4651880000000119
                },
                {
                    "name": "G#4",
                    "midi": 68,
                    "time": 126.76372999999994,
                    "velocity": 0.3858267716535433,
                    "duration": 0.23259400000000596
                },
                {
                    "name": "G#5",
                    "midi": 80,
                    "time": 126.76372999999994,
                    "velocity": 0.4881889763779528,
                    "duration": 0.23259400000000596
                },
                {
                    "name": "G#4",
                    "midi": 68,
                    "time": 126.99632399999994,
                    "velocity": 0.3858267716535433,
                    "duration": 0.4651879999999977
                },
                {
                    "name": "C#5",
                    "midi": 73,
                    "time": 126.99632399999994,
                    "velocity": 0.3858267716535433,
                    "duration": 0.4651879999999977
                },
                {
                    "name": "G#5",
                    "midi": 80,
                    "time": 126.99632399999994,
                    "velocity": 0.4881889763779528,
                    "duration": 0.4651879999999977
                },
                {
                    "name": "C#5",
                    "midi": 73,
                    "time": 127.46151199999994,
                    "velocity": 0.47244094488188976,
                    "duration": 0.4651879999999977
                },
                {
                    "name": "C#6",
                    "midi": 85,
                    "time": 127.46151199999994,
                    "velocity": 0.5905511811023622,
                    "duration": 0.4651879999999977
                },
                {
                    "name": "A#4",
                    "midi": 70,
                    "time": 127.92669999999994,
                    "velocity": 0.4330708661417323,
                    "duration": 0.4651879999999977
                },
                {
                    "name": "A#5",
                    "midi": 82,
                    "time": 127.92669999999994,
                    "velocity": 0.5433070866141733,
                    "duration": 0.4651879999999977
                },
                {
                    "name": "F#4",
                    "midi": 66,
                    "time": 128.39188799999994,
                    "velocity": 0.4015748031496063,
                    "duration": 0.4651880000000119
                },
                {
                    "name": "F#5",
                    "midi": 78,
                    "time": 128.39188799999994,
                    "velocity": 0.5039370078740157,
                    "duration": 0.4651880000000119
                },
                {
                    "name": "A4",
                    "midi": 69,
                    "time": 128.85707599999995,
                    "velocity": 0.4566929133858268,
                    "duration": 0.4651880000000119
                },
                {
                    "name": "D#5",
                    "midi": 75,
                    "time": 128.85707599999995,
                    "velocity": 0.4566929133858268,
                    "duration": 0.4651880000000119
                },
                {
                    "name": "F#5",
                    "midi": 78,
                    "time": 128.85707599999995,
                    "velocity": 0.5118110236220472,
                    "duration": 0.4651880000000119
                },
                {
                    "name": "A5",
                    "midi": 81,
                    "time": 128.85707599999995,
                    "velocity": 0.5748031496062992,
                    "duration": 0.4651880000000119
                },
                {
                    "name": "G#4",
                    "midi": 68,
                    "time": 129.32226399999996,
                    "velocity": 0.4330708661417323,
                    "duration": 0.4651880000000119
                },
                {
                    "name": "C5",
                    "midi": 72,
                    "time": 129.32226399999996,
                    "velocity": 0.4330708661417323,
                    "duration": 0.4651880000000119
                },
                {
                    "name": "D#5",
                    "midi": 75,
                    "time": 129.32226399999996,
                    "velocity": 0.4330708661417323,
                    "duration": 0.4651880000000119
                },
                {
                    "name": "F#5",
                    "midi": 78,
                    "time": 129.32226399999996,
                    "velocity": 0.4881889763779528,
                    "duration": 0.4651880000000119
                },
                {
                    "name": "G#5",
                    "midi": 80,
                    "time": 129.32226399999996,
                    "velocity": 0.5433070866141733,
                    "duration": 0.4651880000000119
                },
                {
                    "name": "G#4",
                    "midi": 68,
                    "time": 129.78745199999997,
                    "velocity": 0.4015748031496063,
                    "duration": 0.9303759999999954
                },
                {
                    "name": "C#5",
                    "midi": 73,
                    "time": 129.78745199999997,
                    "velocity": 0.4015748031496063,
                    "duration": 0.9303759999999954
                },
                {
                    "name": "F5",
                    "midi": 77,
                    "time": 129.78745199999997,
                    "velocity": 0.5039370078740157,
                    "duration": 0.9303759999999954
                },
                {
                    "name": "D#4",
                    "midi": 63,
                    "time": 130.71782799999997,
                    "velocity": 0.5039370078740157,
                    "duration": 0.44192860000001133
                },
                {
                    "name": "D#5",
                    "midi": 75,
                    "time": 130.71782799999997,
                    "velocity": 0.6299212598425197,
                    "duration": 0.44192860000001133
                },
                {
                    "name": "G#4",
                    "midi": 68,
                    "time": 130.71782799999997,
                    "velocity": 0.5039370078740157,
                    "duration": 0.44192860000001133
                },
                {
                    "name": "D#4",
                    "midi": 63,
                    "time": 131.18301599999998,
                    "velocity": 0.5039370078740157,
                    "duration": 0.9303759999999954
                },
                {
                    "name": "G#4",
                    "midi": 68,
                    "time": 131.18301599999998,
                    "velocity": 0.5039370078740157,
                    "duration": 0.9303759999999954
                },
                {
                    "name": "D#5",
                    "midi": 75,
                    "time": 131.18301599999998,
                    "velocity": 0.6299212598425197,
                    "duration": 0.9303759999999954
                },
                {
                    "name": "C#4",
                    "midi": 61,
                    "time": 132.11339199999998,
                    "velocity": 0.5039370078740157,
                    "duration": 0.23259400000000596
                },
                {
                    "name": "C#5",
                    "midi": 73,
                    "time": 132.11339199999998,
                    "velocity": 0.6377952755905512,
                    "duration": 0.23259400000000596
                },
                {
                    "name": "G#4",
                    "midi": 68,
                    "time": 132.11339199999998,
                    "velocity": 0.5039370078740157,
                    "duration": 0.4651880000000119
                },
                {
                    "name": "D#4",
                    "midi": 63,
                    "time": 132.34598599999998,
                    "velocity": 0.5039370078740157,
                    "duration": 0.23259400000000596
                },
                {
                    "name": "D#5",
                    "midi": 75,
                    "time": 132.34598599999998,
                    "velocity": 0.6377952755905512,
                    "duration": 0.23259400000000596
                },
                {
                    "name": "C4",
                    "midi": 60,
                    "time": 132.57858,
                    "velocity": 0.5118110236220472,
                    "duration": 0.4651880000000119
                },
                {
                    "name": "G#4",
                    "midi": 68,
                    "time": 132.57858,
                    "velocity": 0.5118110236220472,
                    "duration": 0.4651880000000119
                },
                {
                    "name": "C5",
                    "midi": 72,
                    "time": 132.57858,
                    "velocity": 0.6456692913385826,
                    "duration": 0.4651880000000119
                },
                {
                    "name": "D#4",
                    "midi": 63,
                    "time": 133.043768,
                    "velocity": 0.5354330708661418,
                    "duration": 0.4651880000000119
                },
                {
                    "name": "G#4",
                    "midi": 68,
                    "time": 133.043768,
                    "velocity": 0.5354330708661418,
                    "duration": 0.4651880000000119
                },
                {
                    "name": "D#5",
                    "midi": 75,
                    "time": 133.043768,
                    "velocity": 0.6692913385826772,
                    "duration": 0.4651880000000119
                },
                {
                    "name": "F4",
                    "midi": 65,
                    "time": 133.508956,
                    "velocity": 0.5511811023622047,
                    "duration": 0.4651880000000119
                },
                {
                    "name": "G#4",
                    "midi": 68,
                    "time": 133.508956,
                    "velocity": 0.5511811023622047,
                    "duration": 0.4651880000000119
                },
                {
                    "name": "F5",
                    "midi": 77,
                    "time": 133.508956,
                    "velocity": 0.6850393700787402,
                    "duration": 0.4651880000000119
                },
                {
                    "name": "F#4",
                    "midi": 66,
                    "time": 133.97414400000002,
                    "velocity": 0.5669291338582677,
                    "duration": 0.4651880000000119
                },
                {
                    "name": "G#4",
                    "midi": 68,
                    "time": 133.97414400000002,
                    "velocity": 0.5669291338582677,
                    "duration": 0.4651880000000119
                },
                {
                    "name": "F#5",
                    "midi": 78,
                    "time": 133.97414400000002,
                    "velocity": 0.7007874015748031,
                    "duration": 0.4651880000000119
                },
                {
                    "name": "G#5",
                    "midi": 80,
                    "time": 134.43933200000004,
                    "velocity": 0.7086614173228346,
                    "duration": 0.4651880000000119
                },
                {
                    "name": "G#4",
                    "midi": 68,
                    "time": 134.43933200000004,
                    "velocity": 0.5669291338582677,
                    "duration": 0.4651880000000119
                },
                {
                    "name": "A#5",
                    "midi": 82,
                    "time": 134.90452000000005,
                    "velocity": 0.7480314960629921,
                    "duration": 0.4651880000000119
                },
                {
                    "name": "A#4",
                    "midi": 70,
                    "time": 134.90452000000005,
                    "velocity": 0.5984251968503937,
                    "duration": 0.4651880000000119
                },
                {
                    "name": "G#4",
                    "midi": 68,
                    "time": 134.90452000000005,
                    "velocity": 0.5984251968503937,
                    "duration": 0.4651880000000119
                },
                {
                    "name": "D#4",
                    "midi": 63,
                    "time": 135.36970800000006,
                    "velocity": 0.41732283464566927,
                    "duration": 0.9303759999999954
                },
                {
                    "name": "D#5",
                    "midi": 75,
                    "time": 135.36970800000006,
                    "velocity": 0.5196850393700787,
                    "duration": 0.9303759999999954
                },
                {
                    "name": "G#4",
                    "midi": 68,
                    "time": 135.36970800000006,
                    "velocity": 0.41732283464566927,
                    "duration": 0.9303759999999954
                },
                {
                    "name": "E4",
                    "midi": 64,
                    "time": 136.30008400000006,
                    "velocity": 0.31496062992125984,
                    "duration": 0.4651880000000119
                },
                {
                    "name": "G#4",
                    "midi": 68,
                    "time": 136.30008400000006,
                    "velocity": 0.31496062992125984,
                    "duration": 0.4651880000000119
                },
                {
                    "name": "E5",
                    "midi": 76,
                    "time": 136.30008400000006,
                    "velocity": 0.3937007874015748,
                    "duration": 0.4651880000000119
                },
                {
                    "name": "F5",
                    "midi": 77,
                    "time": 136.76527200000007,
                    "velocity": 0.4409448818897638,
                    "duration": 0.9303759999999954
                },
                {
                    "name": "F4",
                    "midi": 65,
                    "time": 136.76527200000007,
                    "velocity": 0.3543307086614173,
                    "duration": 1.3955640000000074
                },
                {
                    "name": "G#4",
                    "midi": 68,
                    "time": 136.76527200000007,
                    "velocity": 0.3543307086614173,
                    "duration": 1.3955640000000074
                },
                {
                    "name": "F#5",
                    "midi": 78,
                    "time": 137.69564800000006,
                    "velocity": 0.41732283464566927,
                    "duration": 0.23259400000000596
                },
                {
                    "name": "F5",
                    "midi": 77,
                    "time": 137.92824200000007,
                    "velocity": 0.41732283464566927,
                    "duration": 0.23259400000000596
                },
                {
                    "name": "D#4",
                    "midi": 63,
                    "time": 138.16083600000007,
                    "velocity": 0.33858267716535434,
                    "duration": 0.9303759999999954
                },
                {
                    "name": "D#5",
                    "midi": 75,
                    "time": 138.16083600000007,
                    "velocity": 0.4251968503937008,
                    "duration": 0.9303759999999954
                },
                {
                    "name": "G#4",
                    "midi": 68,
                    "time": 138.16083600000007,
                    "velocity": 0.33858267716535434,
                    "duration": 1.3955640000000074
                },
                {
                    "name": "D4",
                    "midi": 62,
                    "time": 139.09121200000007,
                    "velocity": 0.31496062992125984,
                    "duration": 0.4651880000000119
                },
                {
                    "name": "D5",
                    "midi": 74,
                    "time": 139.09121200000007,
                    "velocity": 0.4015748031496063,
                    "duration": 0.4651880000000119
                },
                {
                    "name": "C#4",
                    "midi": 61,
                    "time": 139.55640000000008,
                    "velocity": 0.33070866141732286,
                    "duration": 0.9303759999999954
                },
                {
                    "name": "G4",
                    "midi": 67,
                    "time": 139.55640000000008,
                    "velocity": 0.3700787401574803,
                    "duration": 0.9303759999999954
                },
                {
                    "name": "C#5",
                    "midi": 73,
                    "time": 139.55640000000008,
                    "velocity": 0.41732283464566927,
                    "duration": 0.9303759999999954
                },
                {
                    "name": "C5",
                    "midi": 72,
                    "time": 140.48677600000008,
                    "velocity": 0.3937007874015748,
                    "duration": 0.23259400000000596
                },
                {
                    "name": "C#4",
                    "midi": 61,
                    "time": 140.48677600000008,
                    "velocity": 0.31496062992125984,
                    "duration": 0.4651880000000119
                },
                {
                    "name": "G4",
                    "midi": 67,
                    "time": 140.48677600000008,
                    "velocity": 0.3543307086614173,
                    "duration": 0.4651880000000119
                },
                {
                    "name": "A#4",
                    "midi": 70,
                    "time": 140.71937000000008,
                    "velocity": 0.3858267716535433,
                    "duration": 0.23259400000000596
                },
                {
                    "name": "F#4",
                    "midi": 66,
                    "time": 140.9519640000001,
                    "velocity": 0.33070866141732286,
                    "duration": 0.9303759999999954
                },
                {
                    "name": "D#4",
                    "midi": 63,
                    "time": 140.9519640000001,
                    "velocity": 0.33070866141732286,
                    "duration": 0.9303759999999954
                },
                {
                    "name": "D#5",
                    "midi": 75,
                    "time": 140.9519640000001,
                    "velocity": 0.41732283464566927,
                    "duration": 0.9303759999999954
                },
                {
                    "name": "C#5",
                    "midi": 73,
                    "time": 141.88234000000008,
                    "velocity": 0.3779527559055118,
                    "duration": 0.23259400000000596
                },
                {
                    "name": "D#4",
                    "midi": 63,
                    "time": 141.88234000000008,
                    "velocity": 0.2992125984251969,
                    "duration": 0.4651880000000119
                },
                {
                    "name": "F#4",
                    "midi": 66,
                    "time": 141.88234000000008,
                    "velocity": 0.2992125984251969,
                    "duration": 0.4651880000000119
                },
                {
                    "name": "C5",
                    "midi": 72,
                    "time": 142.1149340000001,
                    "velocity": 0.3779527559055118,
                    "duration": 0.23259400000000596
                },
                {
                    "name": "C#4",
                    "midi": 61,
                    "time": 142.3475280000001,
                    "velocity": 0.3228346456692913,
                    "duration": 0.9303759999999954
                },
                {
                    "name": "G4",
                    "midi": 67,
                    "time": 142.3475280000001,
                    "velocity": 0.3228346456692913,
                    "duration": 0.9303759999999954
                },
                {
                    "name": "C#5",
                    "midi": 73,
                    "time": 142.3475280000001,
                    "velocity": 0.4094488188976378,
                    "duration": 0.9303759999999954
                },
                {
                    "name": "C5",
                    "midi": 72,
                    "time": 143.2779040000001,
                    "velocity": 0.3700787401574803,
                    "duration": 0.23259400000000596
                },
                {
                    "name": "C#4",
                    "midi": 61,
                    "time": 143.2779040000001,
                    "velocity": 0.29133858267716534,
                    "duration": 0.4651880000000119
                },
                {
                    "name": "G4",
                    "midi": 67,
                    "time": 143.2779040000001,
                    "velocity": 0.33070866141732286,
                    "duration": 0.4651880000000119
                },
                {
                    "name": "A#4",
                    "midi": 70,
                    "time": 143.5104980000001,
                    "velocity": 0.3700787401574803,
                    "duration": 0.23259400000000596
                },
                {
                    "name": "C4",
                    "midi": 60,
                    "time": 143.7430920000001,
                    "velocity": 0.28346456692913385,
                    "duration": 1.3955640000000358
                },
                {
                    "name": "G#4",
                    "midi": 68,
                    "time": 143.7430920000001,
                    "velocity": 0.3543307086614173,
                    "duration": 0.4651880000000119
                },
                {
                    "name": "G4",
                    "midi": 67,
                    "time": 144.20828000000012,
                    "velocity": 0.31496062992125984,
                    "duration": 0.4651880000000119
                },
                {
                    "name": "F#4",
                    "midi": 66,
                    "time": 144.67346800000013,
                    "velocity": 0.28346456692913385,
                    "duration": 0.4651880000000119
                },
                {
                    "name": "F4",
                    "midi": 65,
                    "time": 145.13865600000014,
                    "velocity": 0.2992125984251969,
                    "duration": 0.9303759999999954
                },
                {
                    "name": "F#4",
                    "midi": 66,
                    "time": 146.06903200000013,
                    "velocity": 0.30708661417322836,
                    "duration": 0.23259400000000596
                },
                {
                    "name": "F4",
                    "midi": 65,
                    "time": 146.30162600000014,
                    "velocity": 0.2992125984251969,
                    "duration": 0.23259400000000596
                },
                {
                    "name": "D#4",
                    "midi": 63,
                    "time": 146.53422000000015,
                    "velocity": 0.30708661417322836,
                    "duration": 0.9303759999999954
                },
                {
                    "name": "F4",
                    "midi": 65,
                    "time": 147.46459600000014,
                    "velocity": 0.29133858267716534,
                    "duration": 0.23259400000000596
                },
                {
                    "name": "D#4",
                    "midi": 63,
                    "time": 147.69719000000015,
                    "velocity": 0.2755905511811024,
                    "duration": 0.23259400000000596
                },
                {
                    "name": "G#3",
                    "midi": 56,
                    "time": 150.25572400000016,
                    "velocity": 0.3779527559055118,
                    "duration": 0.44192860000001133
                },
                {
                    "name": "C#4",
                    "midi": 61,
                    "time": 150.25572400000016,
                    "velocity": 0.3779527559055118,
                    "duration": 0.44192860000001133
                },
                {
                    "name": "G#4",
                    "midi": 68,
                    "time": 150.25572400000016,
                    "velocity": 0.48031496062992124,
                    "duration": 0.44192860000001133
                },
                {
                    "name": "G#3",
                    "midi": 56,
                    "time": 150.72091200000017,
                    "velocity": 0.3779527559055118,
                    "duration": 0.9303759999999954
                },
                {
                    "name": "C#4",
                    "midi": 61,
                    "time": 150.72091200000017,
                    "velocity": 0.3779527559055118,
                    "duration": 0.9303759999999954
                },
                {
                    "name": "G#4",
                    "midi": 68,
                    "time": 150.72091200000017,
                    "velocity": 0.48031496062992124,
                    "duration": 0.9303759999999954
                },
                {
                    "name": "A#3",
                    "midi": 58,
                    "time": 151.65128800000016,
                    "velocity": 0.4251968503937008,
                    "duration": 0.23259400000000596
                },
                {
                    "name": "A#4",
                    "midi": 70,
                    "time": 151.65128800000016,
                    "velocity": 0.5354330708661418,
                    "duration": 0.23259400000000596
                },
                {
                    "name": "C#4",
                    "midi": 61,
                    "time": 151.65128800000016,
                    "velocity": 0.4251968503937008,
                    "duration": 0.4651880000000119
                },
                {
                    "name": "G#3",
                    "midi": 56,
                    "time": 151.88388200000017,
                    "velocity": 0.3779527559055118,
                    "duration": 0.23259400000000596
                },
                {
                    "name": "G#4",
                    "midi": 68,
                    "time": 151.88388200000017,
                    "velocity": 0.47244094488188976,
                    "duration": 0.23259400000000596
                },
                {
                    "name": "G#3",
                    "midi": 56,
                    "time": 152.11647600000018,
                    "velocity": 0.3700787401574803,
                    "duration": 0.4651880000000119
                },
                {
                    "name": "C#4",
                    "midi": 61,
                    "time": 152.11647600000018,
                    "velocity": 0.3700787401574803,
                    "duration": 0.4651880000000119
                },
                {
                    "name": "G#4",
                    "midi": 68,
                    "time": 152.11647600000018,
                    "velocity": 0.4645669291338583,
                    "duration": 0.4651880000000119
                },
                {
                    "name": "F4",
                    "midi": 65,
                    "time": 152.5816640000002,
                    "velocity": 0.4881889763779528,
                    "duration": 0.4651880000000119
                },
                {
                    "name": "G#4",
                    "midi": 68,
                    "time": 152.5816640000002,
                    "velocity": 0.4881889763779528,
                    "duration": 0.4651880000000119
                },
                {
                    "name": "F5",
                    "midi": 77,
                    "time": 152.5816640000002,
                    "velocity": 0.6062992125984252,
                    "duration": 0.4651880000000119
                },
                {
                    "name": "D#4",
                    "midi": 63,
                    "time": 153.0468520000002,
                    "velocity": 0.4409448818897638,
                    "duration": 0.4651880000000119
                },
                {
                    "name": "G#4",
                    "midi": 68,
                    "time": 153.0468520000002,
                    "velocity": 0.4409448818897638,
                    "duration": 0.4651880000000119
                },
                {
                    "name": "D#5",
                    "midi": 75,
                    "time": 153.0468520000002,
                    "velocity": 0.5590551181102362,
                    "duration": 0.4651880000000119
                },
                {
                    "name": "C#4",
                    "midi": 61,
                    "time": 153.5120400000002,
                    "velocity": 0.5039370078740157,
                    "duration": 0.9303759999999954
                },
                {
                    "name": "F4",
                    "midi": 65,
                    "time": 153.5120400000002,
                    "velocity": 0.5039370078740157,
                    "duration": 0.9303759999999954
                },
                {
                    "name": "C#5",
                    "midi": 73,
                    "time": 153.5120400000002,
                    "velocity": 0.6299212598425197,
                    "duration": 0.9303759999999954
                },
                {
                    "name": "C4",
                    "midi": 60,
                    "time": 154.4424160000002,
                    "velocity": 0.48031496062992124,
                    "duration": 0.4651880000000119
                },
                {
                    "name": "D#4",
                    "midi": 63,
                    "time": 154.4424160000002,
                    "velocity": 0.48031496062992124,
                    "duration": 0.4651880000000119
                },
                {
                    "name": "G#4",
                    "midi": 68,
                    "time": 154.4424160000002,
                    "velocity": 0.48031496062992124,
                    "duration": 0.4651880000000119
                },
                {
                    "name": "C5",
                    "midi": 72,
                    "time": 154.4424160000002,
                    "velocity": 0.5984251968503937,
                    "duration": 0.4651880000000119
                },
                {
                    "name": "C#4",
                    "midi": 61,
                    "time": 154.90760400000022,
                    "velocity": 0.5039370078740157,
                    "duration": 0.9303759999999954
                },
                {
                    "name": "F4",
                    "midi": 65,
                    "time": 154.90760400000022,
                    "velocity": 0.5039370078740157,
                    "duration": 0.9303759999999954
                },
                {
                    "name": "G#4",
                    "midi": 68,
                    "time": 154.90760400000022,
                    "velocity": 0.5039370078740157,
                    "duration": 0.9303759999999954
                },
                {
                    "name": "C#5",
                    "midi": 73,
                    "time": 154.90760400000022,
                    "velocity": 0.6377952755905512,
                    "duration": 0.9303759999999954
                },
                {
                    "name": "G#4",
                    "midi": 68,
                    "time": 155.83798000000021,
                    "velocity": 0.5196850393700787,
                    "duration": 0.44192860000001133
                },
                {
                    "name": "G#5",
                    "midi": 80,
                    "time": 155.83798000000021,
                    "velocity": 0.6535433070866141,
                    "duration": 0.44192860000001133
                },
                {
                    "name": "C#5",
                    "midi": 73,
                    "time": 155.83798000000021,
                    "velocity": 0.5196850393700787,
                    "duration": 0.44192860000001133
                },
                {
                    "name": "G#4",
                    "midi": 68,
                    "time": 156.30316800000023,
                    "velocity": 0.5196850393700787,
                    "duration": 0.9303759999999954
                },
                {
                    "name": "C#5",
                    "midi": 73,
                    "time": 156.30316800000023,
                    "velocity": 0.5196850393700787,
                    "duration": 0.9303759999999954
                },
                {
                    "name": "G#5",
                    "midi": 80,
                    "time": 156.30316800000023,
                    "velocity": 0.6535433070866141,
                    "duration": 0.9303759999999954
                },
                {
                    "name": "A#4",
                    "midi": 70,
                    "time": 157.23354400000022,
                    "velocity": 0.5590551181102362,
                    "duration": 0.23259400000000596
                },
                {
                    "name": "A#5",
                    "midi": 82,
                    "time": 157.23354400000022,
                    "velocity": 0.6929133858267716,
                    "duration": 0.23259400000000596
                },
                {
                    "name": "C#5",
                    "midi": 73,
                    "time": 157.23354400000022,
                    "velocity": 0.5590551181102362,
                    "duration": 0.4651880000000119
                },
                {
                    "name": "G#4",
                    "midi": 68,
                    "time": 157.46613800000023,
                    "velocity": 0.5196850393700787,
                    "duration": 0.23259400000000596
                },
                {
                    "name": "G#5",
                    "midi": 80,
                    "time": 157.46613800000023,
                    "velocity": 0.6535433070866141,
                    "duration": 0.23259400000000596
                },
                {
                    "name": "G#4",
                    "midi": 68,
                    "time": 157.69873200000023,
                    "velocity": 0.5196850393700787,
                    "duration": 0.4651880000000119
                },
                {
                    "name": "C#5",
                    "midi": 73,
                    "time": 157.69873200000023,
                    "velocity": 0.5196850393700787,
                    "duration": 0.4651880000000119
                },
                {
                    "name": "G#5",
                    "midi": 80,
                    "time": 157.69873200000023,
                    "velocity": 0.6535433070866141,
                    "duration": 0.4651880000000119
                },
                {
                    "name": "C#4",
                    "midi": 61,
                    "time": 158.16392000000025,
                    "velocity": 0.5748031496062992,
                    "duration": 0.4651880000000119
                },
                {
                    "name": "G#4",
                    "midi": 68,
                    "time": 158.16392000000025,
                    "velocity": 0.5748031496062992,
                    "duration": 0.4651880000000119
                },
                {
                    "name": "C#5",
                    "midi": 73,
                    "time": 158.16392000000025,
                    "velocity": 0.5748031496062992,
                    "duration": 0.4651880000000119
                },
                {
                    "name": "F6",
                    "midi": 89,
                    "time": 158.16392000000025,
                    "velocity": 0.7244094488188977,
                    "duration": 0.4651880000000119
                },
                {
                    "name": "G#5",
                    "midi": 80,
                    "time": 158.16392000000025,
                    "velocity": 0.5748031496062992,
                    "duration": 0.4651880000000119
                },
                {
                    "name": "F5",
                    "midi": 77,
                    "time": 158.16392000000025,
                    "velocity": 0.5748031496062992,
                    "duration": 0.4651880000000119
                },
                {
                    "name": "C4",
                    "midi": 60,
                    "time": 158.62910800000026,
                    "velocity": 0.5669291338582677,
                    "duration": 0.4651880000000119
                },
                {
                    "name": "G#4",
                    "midi": 68,
                    "time": 158.62910800000026,
                    "velocity": 0.5669291338582677,
                    "duration": 0.4651880000000119
                },
                {
                    "name": "C5",
                    "midi": 72,
                    "time": 158.62910800000026,
                    "velocity": 0.5669291338582677,
                    "duration": 0.4651880000000119
                },
                {
                    "name": "D#5",
                    "midi": 75,
                    "time": 158.62910800000026,
                    "velocity": 0.5669291338582677,
                    "duration": 0.4651880000000119
                },
                {
                    "name": "G#5",
                    "midi": 80,
                    "time": 158.62910800000026,
                    "velocity": 0.5669291338582677,
                    "duration": 0.4651880000000119
                },
                {
                    "name": "D#6",
                    "midi": 87,
                    "time": 158.62910800000026,
                    "velocity": 0.7007874015748031,
                    "duration": 0.4651880000000119
                },
                {
                    "name": "A#3",
                    "midi": 58,
                    "time": 159.09429600000027,
                    "velocity": 0.5669291338582677,
                    "duration": 0.9303759999999954
                },
                {
                    "name": "F4",
                    "midi": 65,
                    "time": 159.09429600000027,
                    "velocity": 0.5669291338582677,
                    "duration": 0.9303759999999954
                },
                {
                    "name": "A#4",
                    "midi": 70,
                    "time": 159.09429600000027,
                    "velocity": 0.5669291338582677,
                    "duration": 0.9303759999999954
                },
                {
                    "name": "C#5",
                    "midi": 73,
                    "time": 159.09429600000027,
                    "velocity": 0.5669291338582677,
                    "duration": 0.9303759999999954
                },
                {
                    "name": "F5",
                    "midi": 77,
                    "time": 159.09429600000027,
                    "velocity": 0.5669291338582677,
                    "duration": 0.9303759999999954
                },
                {
                    "name": "C#6",
                    "midi": 85,
                    "time": 159.09429600000027,
                    "velocity": 0.7086614173228346,
                    "duration": 0.9303759999999954
                },
                {
                    "name": "G#3",
                    "midi": 56,
                    "time": 160.02467200000027,
                    "velocity": 0.5590551181102362,
                    "duration": 0.4651880000000119
                },
                {
                    "name": "F#4",
                    "midi": 66,
                    "time": 160.02467200000027,
                    "velocity": 0.5590551181102362,
                    "duration": 0.4651880000000119
                },
                {
                    "name": "G#4",
                    "midi": 68,
                    "time": 160.02467200000027,
                    "velocity": 0.5590551181102362,
                    "duration": 0.4651880000000119
                },
                {
                    "name": "C5",
                    "midi": 72,
                    "time": 160.02467200000027,
                    "velocity": 0.5590551181102362,
                    "duration": 0.4651880000000119
                },
                {
                    "name": "D#5",
                    "midi": 75,
                    "time": 160.02467200000027,
                    "velocity": 0.5590551181102362,
                    "duration": 0.4651880000000119
                },
                {
                    "name": "G#5",
                    "midi": 80,
                    "time": 160.02467200000027,
                    "velocity": 0.5590551181102362,
                    "duration": 0.4651880000000119
                },
                {
                    "name": "C6",
                    "midi": 84,
                    "time": 160.02467200000027,
                    "velocity": 0.6929133858267716,
                    "duration": 0.4651880000000119
                },
                {
                    "name": "C#4",
                    "midi": 61,
                    "time": 160.48986000000028,
                    "velocity": 0.5196850393700787,
                    "duration": 0.9303759999999954
                },
                {
                    "name": "F4",
                    "midi": 65,
                    "time": 160.48986000000028,
                    "velocity": 0.5196850393700787,
                    "duration": 0.9303759999999954
                },
                {
                    "name": "G#4",
                    "midi": 68,
                    "time": 160.48986000000028,
                    "velocity": 0.5669291338582677,
                    "duration": 0.9303759999999954
                },
                {
                    "name": "C#5",
                    "midi": 73,
                    "time": 160.48986000000028,
                    "velocity": 0.5669291338582677,
                    "duration": 0.9303759999999954
                },
                {
                    "name": "F5",
                    "midi": 77,
                    "time": 160.48986000000028,
                    "velocity": 0.5669291338582677,
                    "duration": 0.9303759999999954
                },
                {
                    "name": "G#5",
                    "midi": 80,
                    "time": 160.48986000000028,
                    "velocity": 0.5669291338582677,
                    "duration": 0.9303759999999954
                },
                {
                    "name": "C#6",
                    "midi": 85,
                    "time": 160.48986000000028,
                    "velocity": 0.7165354330708661,
                    "duration": 0.9303759999999954
                },
                {
                    "name": "D#4",
                    "midi": 63,
                    "time": 161.42023600000027,
                    "velocity": 0.5039370078740157,
                    "duration": 0.44192860000001133
                },
                {
                    "name": "D#5",
                    "midi": 75,
                    "time": 161.42023600000027,
                    "velocity": 0.6299212598425197,
                    "duration": 0.44192860000001133
                },
                {
                    "name": "G#4",
                    "midi": 68,
                    "time": 161.42023600000027,
                    "velocity": 0.5039370078740157,
                    "duration": 0.44192860000001133
                },
                {
                    "name": "D#4",
                    "midi": 63,
                    "time": 161.88542400000028,
                    "velocity": 0.5039370078740157,
                    "duration": 0.9303759999999954
                },
                {
                    "name": "G#4",
                    "midi": 68,
                    "time": 161.88542400000028,
                    "velocity": 0.5039370078740157,
                    "duration": 0.9303759999999954
                },
                {
                    "name": "D#5",
                    "midi": 75,
                    "time": 161.88542400000028,
                    "velocity": 0.6299212598425197,
                    "duration": 0.9303759999999954
                },
                {
                    "name": "C#4",
                    "midi": 61,
                    "time": 162.81580000000028,
                    "velocity": 0.5039370078740157,
                    "duration": 0.23259400000000596
                },
                {
                    "name": "C#5",
                    "midi": 73,
                    "time": 162.81580000000028,
                    "velocity": 0.6377952755905512,
                    "duration": 0.23259400000000596
                },
                {
                    "name": "G#4",
                    "midi": 68,
                    "time": 162.81580000000028,
                    "velocity": 0.5039370078740157,
                    "duration": 0.4651880000000119
                },
                {
                    "name": "D#4",
                    "midi": 63,
                    "time": 163.0483940000003,
                    "velocity": 0.5039370078740157,
                    "duration": 0.23259400000000596
                },
                {
                    "name": "D#5",
                    "midi": 75,
                    "time": 163.0483940000003,
                    "velocity": 0.6377952755905512,
                    "duration": 0.23259400000000596
                },
                {
                    "name": "C4",
                    "midi": 60,
                    "time": 163.2809880000003,
                    "velocity": 0.5118110236220472,
                    "duration": 0.4651880000000119
                },
                {
                    "name": "G#4",
                    "midi": 68,
                    "time": 163.2809880000003,
                    "velocity": 0.5118110236220472,
                    "duration": 0.4651880000000119
                },
                {
                    "name": "C5",
                    "midi": 72,
                    "time": 163.2809880000003,
                    "velocity": 0.6456692913385826,
                    "duration": 0.4651880000000119
                },
                {
                    "name": "D#4",
                    "midi": 63,
                    "time": 163.7461760000003,
                    "velocity": 0.5354330708661418,
                    "duration": 0.4651880000000119
                },
                {
                    "name": "G#4",
                    "midi": 68,
                    "time": 163.7461760000003,
                    "velocity": 0.5354330708661418,
                    "duration": 0.4651880000000119
                },
                {
                    "name": "D#5",
                    "midi": 75,
                    "time": 163.7461760000003,
                    "velocity": 0.6692913385826772,
                    "duration": 0.4651880000000119
                },
                {
                    "name": "F4",
                    "midi": 65,
                    "time": 164.21136400000032,
                    "velocity": 0.5511811023622047,
                    "duration": 0.4651880000000119
                },
                {
                    "name": "G#4",
                    "midi": 68,
                    "time": 164.21136400000032,
                    "velocity": 0.5511811023622047,
                    "duration": 0.4651880000000119
                },
                {
                    "name": "F5",
                    "midi": 77,
                    "time": 164.21136400000032,
                    "velocity": 0.6850393700787402,
                    "duration": 0.4651880000000119
                },
                {
                    "name": "F#4",
                    "midi": 66,
                    "time": 164.67655200000033,
                    "velocity": 0.5669291338582677,
                    "duration": 0.4651880000000119
                },
                {
                    "name": "G#4",
                    "midi": 68,
                    "time": 164.67655200000033,
                    "velocity": 0.5669291338582677,
                    "duration": 0.4651880000000119
                },
                {
                    "name": "F#5",
                    "midi": 78,
                    "time": 164.67655200000033,
                    "velocity": 0.7007874015748031,
                    "duration": 0.4651880000000119
                },
                {
                    "name": "G#5",
                    "midi": 80,
                    "time": 165.14174000000034,
                    "velocity": 0.7086614173228346,
                    "duration": 0.4651880000000119
                },
                {
                    "name": "G#4",
                    "midi": 68,
                    "time": 165.14174000000034,
                    "velocity": 0.5669291338582677,
                    "duration": 0.4651880000000119
                },
                {
                    "name": "A#5",
                    "midi": 82,
                    "time": 165.60692800000035,
                    "velocity": 0.7480314960629921,
                    "duration": 0.4651880000000119
                },
                {
                    "name": "A#4",
                    "midi": 70,
                    "time": 165.60692800000035,
                    "velocity": 0.5984251968503937,
                    "duration": 0.4651880000000119
                },
                {
                    "name": "G#4",
                    "midi": 68,
                    "time": 165.60692800000035,
                    "velocity": 0.5984251968503937,
                    "duration": 0.4651880000000119
                },
                {
                    "name": "D#4",
                    "midi": 63,
                    "time": 166.07211600000036,
                    "velocity": 0.41732283464566927,
                    "duration": 0.9303759999999954
                },
                {
                    "name": "D#5",
                    "midi": 75,
                    "time": 166.07211600000036,
                    "velocity": 0.5196850393700787,
                    "duration": 0.9303759999999954
                },
                {
                    "name": "G#4",
                    "midi": 68,
                    "time": 166.07211600000036,
                    "velocity": 0.41732283464566927,
                    "duration": 0.9303759999999954
                },
                {
                    "name": "E4",
                    "midi": 64,
                    "time": 167.00249200000036,
                    "velocity": 0.31496062992125984,
                    "duration": 0.4651880000000119
                },
                {
                    "name": "G#4",
                    "midi": 68,
                    "time": 167.00249200000036,
                    "velocity": 0.31496062992125984,
                    "duration": 0.4651880000000119
                },
                {
                    "name": "E5",
                    "midi": 76,
                    "time": 167.00249200000036,
                    "velocity": 0.3937007874015748,
                    "duration": 0.4651880000000119
                },
                {
                    "name": "F5",
                    "midi": 77,
                    "time": 167.46768000000037,
                    "velocity": 0.4409448818897638,
                    "duration": 0.9303759999999954
                },
                {
                    "name": "F4",
                    "midi": 65,
                    "time": 167.46768000000037,
                    "velocity": 0.3543307086614173,
                    "duration": 1.3955640000000074
                },
                {
                    "name": "G#4",
                    "midi": 68,
                    "time": 167.46768000000037,
                    "velocity": 0.3543307086614173,
                    "duration": 1.3955640000000074
                },
                {
                    "name": "F#5",
                    "midi": 78,
                    "time": 168.39805600000037,
                    "velocity": 0.41732283464566927,
                    "duration": 0.23259400000000596
                },
                {
                    "name": "F5",
                    "midi": 77,
                    "time": 168.63065000000037,
                    "velocity": 0.41732283464566927,
                    "duration": 0.23259400000000596
                },
                {
                    "name": "D#4",
                    "midi": 63,
                    "time": 168.86324400000038,
                    "velocity": 0.33858267716535434,
                    "duration": 0.9303759999999954
                },
                {
                    "name": "D#5",
                    "midi": 75,
                    "time": 168.86324400000038,
                    "velocity": 0.4251968503937008,
                    "duration": 0.9303759999999954
                },
                {
                    "name": "G#4",
                    "midi": 68,
                    "time": 168.86324400000038,
                    "velocity": 0.33858267716535434,
                    "duration": 1.3955640000000074
                },
                {
                    "name": "D4",
                    "midi": 62,
                    "time": 169.79362000000037,
                    "velocity": 0.31496062992125984,
                    "duration": 0.4651880000000119
                },
                {
                    "name": "D5",
                    "midi": 74,
                    "time": 169.79362000000037,
                    "velocity": 0.4015748031496063,
                    "duration": 0.4651880000000119
                },
                {
                    "name": "C#4",
                    "midi": 61,
                    "time": 170.25880800000039,
                    "velocity": 0.33070866141732286,
                    "duration": 0.9303759999999954
                },
                {
                    "name": "G4",
                    "midi": 67,
                    "time": 170.25880800000039,
                    "velocity": 0.33070866141732286,
                    "duration": 0.9303759999999954
                },
                {
                    "name": "C#5",
                    "midi": 73,
                    "time": 170.25880800000039,
                    "velocity": 0.41732283464566927,
                    "duration": 0.9303759999999954
                },
                {
                    "name": "C5",
                    "midi": 72,
                    "time": 171.18918400000038,
                    "velocity": 0.3937007874015748,
                    "duration": 0.23259400000000596
                },
                {
                    "name": "C#4",
                    "midi": 61,
                    "time": 171.18918400000038,
                    "velocity": 0.31496062992125984,
                    "duration": 0.4651880000000119
                },
                {
                    "name": "G4",
                    "midi": 67,
                    "time": 171.18918400000038,
                    "velocity": 0.3543307086614173,
                    "duration": 0.4651880000000119
                },
                {
                    "name": "A#4",
                    "midi": 70,
                    "time": 171.4217780000004,
                    "velocity": 0.3858267716535433,
                    "duration": 0.23259400000000596
                },
                {
                    "name": "F#4",
                    "midi": 66,
                    "time": 171.6543720000004,
                    "velocity": 0.33070866141732286,
                    "duration": 0.9303759999999954
                },
                {
                    "name": "D#4",
                    "midi": 63,
                    "time": 171.6543720000004,
                    "velocity": 0.33070866141732286,
                    "duration": 0.9303759999999954
                },
                {
                    "name": "D#5",
                    "midi": 75,
                    "time": 171.6543720000004,
                    "velocity": 0.41732283464566927,
                    "duration": 0.9303759999999954
                },
                {
                    "name": "C#5",
                    "midi": 73,
                    "time": 172.5847480000004,
                    "velocity": 0.3779527559055118,
                    "duration": 0.23259400000000596
                },
                {
                    "name": "D#4",
                    "midi": 63,
                    "time": 172.5847480000004,
                    "velocity": 0.2992125984251969,
                    "duration": 0.4651880000000119
                },
                {
                    "name": "F#4",
                    "midi": 66,
                    "time": 172.5847480000004,
                    "velocity": 0.2992125984251969,
                    "duration": 0.4651880000000119
                },
                {
                    "name": "C5",
                    "midi": 72,
                    "time": 172.8173420000004,
                    "velocity": 0.3779527559055118,
                    "duration": 0.23259400000000596
                },
                {
                    "name": "C#4",
                    "midi": 61,
                    "time": 173.0499360000004,
                    "velocity": 0.3228346456692913,
                    "duration": 0.9303759999999954
                },
                {
                    "name": "G4",
                    "midi": 67,
                    "time": 173.0499360000004,
                    "velocity": 0.4094488188976378,
                    "duration": 0.9303759999999954
                },
                {
                    "name": "C#5",
                    "midi": 73,
                    "time": 173.0499360000004,
                    "velocity": 0.4094488188976378,
                    "duration": 0.9303759999999954
                },
                {
                    "name": "C5",
                    "midi": 72,
                    "time": 173.9803120000004,
                    "velocity": 0.3700787401574803,
                    "duration": 0.23259400000000596
                },
                {
                    "name": "C#4",
                    "midi": 61,
                    "time": 173.9803120000004,
                    "velocity": 0.29133858267716534,
                    "duration": 0.4651880000000119
                },
                {
                    "name": "G4",
                    "midi": 67,
                    "time": 173.9803120000004,
                    "velocity": 0.29133858267716534,
                    "duration": 0.4651880000000119
                },
                {
                    "name": "A#4",
                    "midi": 70,
                    "time": 174.2129060000004,
                    "velocity": 0.3700787401574803,
                    "duration": 0.23259400000000596
                },
                {
                    "name": "C4",
                    "midi": 60,
                    "time": 174.4455000000004,
                    "velocity": 0.28346456692913385,
                    "duration": 1.3955640000000358
                },
                {
                    "name": "G#4",
                    "midi": 68,
                    "time": 174.4455000000004,
                    "velocity": 0.3543307086614173,
                    "duration": 0.4651880000000119
                },
                {
                    "name": "G4",
                    "midi": 67,
                    "time": 174.91068800000042,
                    "velocity": 0.31496062992125984,
                    "duration": 0.4651880000000119
                },
                {
                    "name": "F#4",
                    "midi": 66,
                    "time": 175.37587600000043,
                    "velocity": 0.28346456692913385,
                    "duration": 0.4651880000000119
                },
                {
                    "name": "F4",
                    "midi": 65,
                    "time": 175.84106400000044,
                    "velocity": 0.2992125984251969,
                    "duration": 0.9303759999999954
                },
                {
                    "name": "F#4",
                    "midi": 66,
                    "time": 176.77144000000044,
                    "velocity": 0.30708661417322836,
                    "duration": 0.23259400000000596
                },
                {
                    "name": "F4",
                    "midi": 65,
                    "time": 177.00403400000044,
                    "velocity": 0.2992125984251969,
                    "duration": 0.23259400000000596
                },
                {
                    "name": "D#4",
                    "midi": 63,
                    "time": 177.23662800000045,
                    "velocity": 0.30708661417322836,
                    "duration": 0.9303759999999954
                },
                {
                    "name": "F4",
                    "midi": 65,
                    "time": 178.16700400000045,
                    "velocity": 0.29133858267716534,
                    "duration": 0.23259400000000596
                },
                {
                    "name": "D#4",
                    "midi": 63,
                    "time": 178.39959800000045,
                    "velocity": 0.2755905511811024,
                    "duration": 0.23259400000000596
                },
                {
                    "name": "G#3",
                    "midi": 56,
                    "time": 180.95813200000046,
                    "velocity": 0.3779527559055118,
                    "duration": 0.44192860000001133
                },
                {
                    "name": "C#4",
                    "midi": 61,
                    "time": 180.95813200000046,
                    "velocity": 0.3779527559055118,
                    "duration": 0.44192860000001133
                },
                {
                    "name": "G#4",
                    "midi": 68,
                    "time": 180.95813200000046,
                    "velocity": 0.48031496062992124,
                    "duration": 0.44192860000001133
                },
                {
                    "name": "G#3",
                    "midi": 56,
                    "time": 181.42332000000047,
                    "velocity": 0.3779527559055118,
                    "duration": 0.9303759999999954
                },
                {
                    "name": "C#4",
                    "midi": 61,
                    "time": 181.42332000000047,
                    "velocity": 0.3779527559055118,
                    "duration": 0.9303759999999954
                },
                {
                    "name": "G#4",
                    "midi": 68,
                    "time": 181.42332000000047,
                    "velocity": 0.48031496062992124,
                    "duration": 0.9303759999999954
                },
                {
                    "name": "A#3",
                    "midi": 58,
                    "time": 182.35369600000047,
                    "velocity": 0.4251968503937008,
                    "duration": 0.23259400000000596
                },
                {
                    "name": "A#4",
                    "midi": 70,
                    "time": 182.35369600000047,
                    "velocity": 0.5354330708661418,
                    "duration": 0.23259400000000596
                },
                {
                    "name": "C#4",
                    "midi": 61,
                    "time": 182.35369600000047,
                    "velocity": 0.4251968503937008,
                    "duration": 0.4651880000000119
                },
                {
                    "name": "G#3",
                    "midi": 56,
                    "time": 182.58629000000047,
                    "velocity": 0.3779527559055118,
                    "duration": 0.23259400000000596
                },
                {
                    "name": "G#4",
                    "midi": 68,
                    "time": 182.58629000000047,
                    "velocity": 0.47244094488188976,
                    "duration": 0.23259400000000596
                },
                {
                    "name": "G#3",
                    "midi": 56,
                    "time": 182.81888400000048,
                    "velocity": 0.3700787401574803,
                    "duration": 0.4651880000000119
                },
                {
                    "name": "C#4",
                    "midi": 61,
                    "time": 182.81888400000048,
                    "velocity": 0.3700787401574803,
                    "duration": 0.4651880000000119
                },
                {
                    "name": "G#4",
                    "midi": 68,
                    "time": 182.81888400000048,
                    "velocity": 0.4645669291338583,
                    "duration": 0.4651880000000119
                },
                {
                    "name": "F4",
                    "midi": 65,
                    "time": 183.2840720000005,
                    "velocity": 0.4881889763779528,
                    "duration": 0.4651880000000119
                },
                {
                    "name": "G#4",
                    "midi": 68,
                    "time": 183.2840720000005,
                    "velocity": 0.4881889763779528,
                    "duration": 0.4651880000000119
                },
                {
                    "name": "F5",
                    "midi": 77,
                    "time": 183.2840720000005,
                    "velocity": 0.6062992125984252,
                    "duration": 0.4651880000000119
                },
                {
                    "name": "D#4",
                    "midi": 63,
                    "time": 183.7492600000005,
                    "velocity": 0.4409448818897638,
                    "duration": 0.4651880000000119
                },
                {
                    "name": "G#4",
                    "midi": 68,
                    "time": 183.7492600000005,
                    "velocity": 0.4409448818897638,
                    "duration": 0.4651880000000119
                },
                {
                    "name": "D#5",
                    "midi": 75,
                    "time": 183.7492600000005,
                    "velocity": 0.5590551181102362,
                    "duration": 0.4651880000000119
                },
                {
                    "name": "C#4",
                    "midi": 61,
                    "time": 184.21444800000052,
                    "velocity": 0.5039370078740157,
                    "duration": 0.9303759999999954
                },
                {
                    "name": "F4",
                    "midi": 65,
                    "time": 184.21444800000052,
                    "velocity": 0.5039370078740157,
                    "duration": 0.9303759999999954
                },
                {
                    "name": "C#5",
                    "midi": 73,
                    "time": 184.21444800000052,
                    "velocity": 0.6299212598425197,
                    "duration": 0.9303759999999954
                },
                {
                    "name": "C4",
                    "midi": 60,
                    "time": 185.1448240000005,
                    "velocity": 0.48031496062992124,
                    "duration": 0.4651880000000119
                },
                {
                    "name": "D#4",
                    "midi": 63,
                    "time": 185.1448240000005,
                    "velocity": 0.48031496062992124,
                    "duration": 0.4651880000000119
                },
                {
                    "name": "G#4",
                    "midi": 68,
                    "time": 185.1448240000005,
                    "velocity": 0.48031496062992124,
                    "duration": 0.4651880000000119
                },
                {
                    "name": "C5",
                    "midi": 72,
                    "time": 185.1448240000005,
                    "velocity": 0.5984251968503937,
                    "duration": 0.4651880000000119
                },
                {
                    "name": "C#4",
                    "midi": 61,
                    "time": 185.61001200000052,
                    "velocity": 0.5039370078740157,
                    "duration": 0.9303759999999954
                },
                {
                    "name": "F4",
                    "midi": 65,
                    "time": 185.61001200000052,
                    "velocity": 0.5039370078740157,
                    "duration": 0.9303759999999954
                },
                {
                    "name": "G#4",
                    "midi": 68,
                    "time": 185.61001200000052,
                    "velocity": 0.5039370078740157,
                    "duration": 0.9303759999999954
                },
                {
                    "name": "C#5",
                    "midi": 73,
                    "time": 185.61001200000052,
                    "velocity": 0.6377952755905512,
                    "duration": 0.9303759999999954
                },
                {
                    "name": "G#4",
                    "midi": 68,
                    "time": 186.54038800000052,
                    "velocity": 0.5196850393700787,
                    "duration": 0.44192860000001133
                },
                {
                    "name": "G#5",
                    "midi": 80,
                    "time": 186.54038800000052,
                    "velocity": 0.6535433070866141,
                    "duration": 0.44192860000001133
                },
                {
                    "name": "C#5",
                    "midi": 73,
                    "time": 186.54038800000052,
                    "velocity": 0.5196850393700787,
                    "duration": 0.44192860000001133
                },
                {
                    "name": "G#4",
                    "midi": 68,
                    "time": 187.00557600000053,
                    "velocity": 0.5196850393700787,
                    "duration": 0.9303759999999954
                },
                {
                    "name": "C#5",
                    "midi": 73,
                    "time": 187.00557600000053,
                    "velocity": 0.5196850393700787,
                    "duration": 0.9303759999999954
                },
                {
                    "name": "G#5",
                    "midi": 80,
                    "time": 187.00557600000053,
                    "velocity": 0.6535433070866141,
                    "duration": 0.9303759999999954
                },
                {
                    "name": "A#4",
                    "midi": 70,
                    "time": 187.93595200000053,
                    "velocity": 0.5590551181102362,
                    "duration": 0.23259400000000596
                },
                {
                    "name": "A#5",
                    "midi": 82,
                    "time": 187.93595200000053,
                    "velocity": 0.6929133858267716,
                    "duration": 0.23259400000000596
                },
                {
                    "name": "C#5",
                    "midi": 73,
                    "time": 187.93595200000053,
                    "velocity": 0.5590551181102362,
                    "duration": 0.4651880000000119
                },
                {
                    "name": "G#4",
                    "midi": 68,
                    "time": 188.16854600000053,
                    "velocity": 0.5196850393700787,
                    "duration": 0.23259400000000596
                },
                {
                    "name": "G#5",
                    "midi": 80,
                    "time": 188.16854600000053,
                    "velocity": 0.6535433070866141,
                    "duration": 0.23259400000000596
                },
                {
                    "name": "G#4",
                    "midi": 68,
                    "time": 188.40114000000054,
                    "velocity": 0.5196850393700787,
                    "duration": 0.4651880000000119
                },
                {
                    "name": "C#5",
                    "midi": 73,
                    "time": 188.40114000000054,
                    "velocity": 0.5196850393700787,
                    "duration": 0.4651880000000119
                },
                {
                    "name": "G#5",
                    "midi": 80,
                    "time": 188.40114000000054,
                    "velocity": 0.6535433070866141,
                    "duration": 0.4651880000000119
                },
                {
                    "name": "C#4",
                    "midi": 61,
                    "time": 188.86632800000055,
                    "velocity": 0.5748031496062992,
                    "duration": 0.4651880000000119
                },
                {
                    "name": "G#4",
                    "midi": 68,
                    "time": 188.86632800000055,
                    "velocity": 0.5748031496062992,
                    "duration": 0.4651880000000119
                },
                {
                    "name": "C#5",
                    "midi": 73,
                    "time": 188.86632800000055,
                    "velocity": 0.5748031496062992,
                    "duration": 0.4651880000000119
                },
                {
                    "name": "F6",
                    "midi": 89,
                    "time": 188.86632800000055,
                    "velocity": 0.7244094488188977,
                    "duration": 0.4651880000000119
                },
                {
                    "name": "G#5",
                    "midi": 80,
                    "time": 188.86632800000055,
                    "velocity": 0.5748031496062992,
                    "duration": 0.4651880000000119
                },
                {
                    "name": "F5",
                    "midi": 77,
                    "time": 188.86632800000055,
                    "velocity": 0.5748031496062992,
                    "duration": 0.4651880000000119
                },
                {
                    "name": "C4",
                    "midi": 60,
                    "time": 189.33151600000056,
                    "velocity": 0.5669291338582677,
                    "duration": 0.4651880000000119
                },
                {
                    "name": "G#4",
                    "midi": 68,
                    "time": 189.33151600000056,
                    "velocity": 0.5669291338582677,
                    "duration": 0.4651880000000119
                },
                {
                    "name": "C5",
                    "midi": 72,
                    "time": 189.33151600000056,
                    "velocity": 0.5669291338582677,
                    "duration": 0.4651880000000119
                },
                {
                    "name": "D#5",
                    "midi": 75,
                    "time": 189.33151600000056,
                    "velocity": 0.5669291338582677,
                    "duration": 0.4651880000000119
                },
                {
                    "name": "G#5",
                    "midi": 80,
                    "time": 189.33151600000056,
                    "velocity": 0.5669291338582677,
                    "duration": 0.4651880000000119
                },
                {
                    "name": "D#6",
                    "midi": 87,
                    "time": 189.33151600000056,
                    "velocity": 0.7007874015748031,
                    "duration": 0.4651880000000119
                },
                {
                    "name": "A#3",
                    "midi": 58,
                    "time": 189.79670400000057,
                    "velocity": 0.5669291338582677,
                    "duration": 0.9303759999999954
                },
                {
                    "name": "F4",
                    "midi": 65,
                    "time": 189.79670400000057,
                    "velocity": 0.5669291338582677,
                    "duration": 0.9303759999999954
                },
                {
                    "name": "A#4",
                    "midi": 70,
                    "time": 189.79670400000057,
                    "velocity": 0.5669291338582677,
                    "duration": 0.9303759999999954
                },
                {
                    "name": "C#5",
                    "midi": 73,
                    "time": 189.79670400000057,
                    "velocity": 0.5669291338582677,
                    "duration": 0.9303759999999954
                },
                {
                    "name": "F5",
                    "midi": 77,
                    "time": 189.79670400000057,
                    "velocity": 0.5669291338582677,
                    "duration": 0.9303759999999954
                },
                {
                    "name": "C#6",
                    "midi": 85,
                    "time": 189.79670400000057,
                    "velocity": 0.7086614173228346,
                    "duration": 0.9303759999999954
                },
                {
                    "name": "G#3",
                    "midi": 56,
                    "time": 190.72708000000057,
                    "velocity": 0.5590551181102362,
                    "duration": 0.4651880000000119
                },
                {
                    "name": "F#4",
                    "midi": 66,
                    "time": 190.72708000000057,
                    "velocity": 0.5590551181102362,
                    "duration": 0.4651880000000119
                },
                {
                    "name": "G#4",
                    "midi": 68,
                    "time": 190.72708000000057,
                    "velocity": 0.5590551181102362,
                    "duration": 0.4651880000000119
                },
                {
                    "name": "C5",
                    "midi": 72,
                    "time": 190.72708000000057,
                    "velocity": 0.5590551181102362,
                    "duration": 0.4651880000000119
                },
                {
                    "name": "D#5",
                    "midi": 75,
                    "time": 190.72708000000057,
                    "velocity": 0.5590551181102362,
                    "duration": 0.4651880000000119
                },
                {
                    "name": "G#5",
                    "midi": 80,
                    "time": 190.72708000000057,
                    "velocity": 0.5590551181102362,
                    "duration": 0.4651880000000119
                },
                {
                    "name": "C6",
                    "midi": 84,
                    "time": 190.72708000000057,
                    "velocity": 0.6929133858267716,
                    "duration": 0.4651880000000119
                },
                {
                    "name": "C#4",
                    "midi": 61,
                    "time": 191.19226800000058,
                    "velocity": 0.5118110236220472,
                    "duration": 0.6977819999999895
                },
                {
                    "name": "F4",
                    "midi": 65,
                    "time": 191.19226800000058,
                    "velocity": 0.5118110236220472,
                    "duration": 0.6977819999999895
                },
                {
                    "name": "G#4",
                    "midi": 68,
                    "time": 191.19226800000058,
                    "velocity": 0.5669291338582677,
                    "duration": 0.6977819999999895
                },
                {
                    "name": "C#5",
                    "midi": 73,
                    "time": 191.19226800000058,
                    "velocity": 0.5669291338582677,
                    "duration": 0.6977819999999895
                },
                {
                    "name": "F5",
                    "midi": 77,
                    "time": 191.19226800000058,
                    "velocity": 0.5669291338582677,
                    "duration": 0.6977819999999895
                },
                {
                    "name": "G#5",
                    "midi": 80,
                    "time": 191.19226800000058,
                    "velocity": 0.5669291338582677,
                    "duration": 0.6977819999999895
                },
                {
                    "name": "C#6",
                    "midi": 85,
                    "time": 191.19226800000058,
                    "velocity": 0.7165354330708661,
                    "duration": 0.6977819999999895
                },
                {
                    "name": "D#4",
                    "midi": 63,
                    "time": 192.12264400000058,
                    "velocity": 0.2992125984251969,
                    "duration": 0.4651880000000119
                },
                {
                    "name": "G#4",
                    "midi": 68,
                    "time": 192.12264400000058,
                    "velocity": 0.2992125984251969,
                    "duration": 0.4651880000000119
                },
                {
                    "name": "C5",
                    "midi": 72,
                    "time": 192.12264400000058,
                    "velocity": 0.3779527559055118,
                    "duration": 0.4651880000000119
                },
                {
                    "name": "F4",
                    "midi": 65,
                    "time": 192.5878320000006,
                    "velocity": 0.33858267716535434,
                    "duration": 1.8607520000000193
                },
                {
                    "name": "G#4",
                    "midi": 68,
                    "time": 192.5878320000006,
                    "velocity": 0.33858267716535434,
                    "duration": 1.8607520000000193
                },
                {
                    "name": "C5",
                    "midi": 72,
                    "time": 192.5878320000006,
                    "velocity": 0.4251968503937008,
                    "duration": 1.3955640000000074
                },
                {
                    "name": "A#4",
                    "midi": 70,
                    "time": 193.9833960000006,
                    "velocity": 0.4015748031496063,
                    "duration": 0.4651880000000119
                },
                {
                    "name": "F5",
                    "midi": 77,
                    "time": 194.91377200000062,
                    "velocity": 0.49606299212598426,
                    "duration": 0.4651880000000119
                },
                {
                    "name": "A#4",
                    "midi": 70,
                    "time": 194.91377200000062,
                    "velocity": 0.3937007874015748,
                    "duration": 0.4651880000000119
                },
                {
                    "name": "G4",
                    "midi": 67,
                    "time": 194.91377200000062,
                    "velocity": 0.3937007874015748,
                    "duration": 0.4651880000000119
                },
                {
                    "name": "G#4",
                    "midi": 68,
                    "time": 195.37896000000063,
                    "velocity": 0.4094488188976378,
                    "duration": 1.8607520000000193
                },
                {
                    "name": "C5",
                    "midi": 72,
                    "time": 195.37896000000063,
                    "velocity": 0.4094488188976378,
                    "duration": 1.8607520000000193
                },
                {
                    "name": "F5",
                    "midi": 77,
                    "time": 195.37896000000063,
                    "velocity": 0.5118110236220472,
                    "duration": 1.3955640000000074
                },
                {
                    "name": "D#5",
                    "midi": 75,
                    "time": 196.77452400000064,
                    "velocity": 0.47244094488188976,
                    "duration": 0.4651880000000119
                },
                {
                    "name": "C4",
                    "midi": 60,
                    "time": 197.47230600000066,
                    "velocity": 0.33858267716535434,
                    "duration": 0.6977820000000179
                },
                {
                    "name": "D#4",
                    "midi": 63,
                    "time": 197.47230600000066,
                    "velocity": 0.3779527559055118,
                    "duration": 0.23259400000000596
                },
                {
                    "name": "G#4",
                    "midi": 68,
                    "time": 197.70490000000066,
                    "velocity": 0.4409448818897638,
                    "duration": 0.23259400000000596
                },
                {
                    "name": "C5",
                    "midi": 72,
                    "time": 197.93749400000067,
                    "velocity": 0.4566929133858268,
                    "duration": 0.23259400000000596
                },
                {
                    "name": "C#4",
                    "midi": 61,
                    "time": 198.17008800000067,
                    "velocity": 0.3779527559055118,
                    "duration": 0.9303759999999954
                },
                {
                    "name": "D#4",
                    "midi": 63,
                    "time": 198.17008800000067,
                    "velocity": 0.3779527559055118,
                    "duration": 0.9303759999999954
                },
                {
                    "name": "G4",
                    "midi": 67,
                    "time": 198.17008800000067,
                    "velocity": 0.3779527559055118,
                    "duration": 0.9303759999999954
                },
                {
                    "name": "C#5",
                    "midi": 73,
                    "time": 198.17008800000067,
                    "velocity": 0.47244094488188976,
                    "duration": 0.9303759999999954
                },
                {
                    "name": "C4",
                    "midi": 60,
                    "time": 199.10046400000067,
                    "velocity": 0.3937007874015748,
                    "duration": 0.4651880000000119
                },
                {
                    "name": "D#4",
                    "midi": 63,
                    "time": 199.10046400000067,
                    "velocity": 0.3937007874015748,
                    "duration": 0.4651880000000119
                },
                {
                    "name": "G#4",
                    "midi": 68,
                    "time": 199.10046400000067,
                    "velocity": 0.3937007874015748,
                    "duration": 0.4651880000000119
                },
                {
                    "name": "C5",
                    "midi": 72,
                    "time": 199.10046400000067,
                    "velocity": 0.49606299212598426,
                    "duration": 0.4651880000000119
                },
                {
                    "name": "A#3",
                    "midi": 58,
                    "time": 199.56565200000068,
                    "velocity": 0.4015748031496063,
                    "duration": 0.9303759999999954
                },
                {
                    "name": "D#4",
                    "midi": 63,
                    "time": 199.56565200000068,
                    "velocity": 0.4015748031496063,
                    "duration": 0.9303759999999954
                },
                {
                    "name": "A#4",
                    "midi": 70,
                    "time": 199.56565200000068,
                    "velocity": 0.5039370078740157,
                    "duration": 0.9303759999999954
                },
                {
                    "name": "D4",
                    "midi": 62,
                    "time": 200.49602800000068,
                    "velocity": 0.4094488188976378,
                    "duration": 0.4651880000000119
                },
                {
                    "name": "A#4",
                    "midi": 70,
                    "time": 200.49602800000068,
                    "velocity": 0.4094488188976378,
                    "duration": 0.4651880000000119
                },
                {
                    "name": "G#4",
                    "midi": 68,
                    "time": 200.49602800000068,
                    "velocity": 0.4094488188976378,
                    "duration": 0.4651880000000119
                },
                {
                    "name": "D5",
                    "midi": 74,
                    "time": 200.49602800000068,
                    "velocity": 0.5118110236220472,
                    "duration": 0.4651880000000119
                },
                {
                    "name": "D4",
                    "midi": 62,
                    "time": 200.9612160000007,
                    "velocity": 0.4330708661417323,
                    "duration": 1.3955640000000074
                },
                {
                    "name": "A#4",
                    "midi": 70,
                    "time": 200.9612160000007,
                    "velocity": 0.4330708661417323,
                    "duration": 1.8607520000000193
                },
                {
                    "name": "G#4",
                    "midi": 68,
                    "time": 200.9612160000007,
                    "velocity": 0.4330708661417323,
                    "duration": 1.3955640000000074
                },
                {
                    "name": "D5",
                    "midi": 74,
                    "time": 200.9612160000007,
                    "velocity": 0.5433070866141733,
                    "duration": 1.3955640000000074
                },
                {
                    "name": "G4",
                    "midi": 67,
                    "time": 202.3567800000007,
                    "velocity": 0.31496062992125984,
                    "duration": 0.4651880000000119
                },
                {
                    "name": "D#4",
                    "midi": 63,
                    "time": 202.3567800000007,
                    "velocity": 0.31496062992125984,
                    "duration": 0.4651880000000119
                },
                {
                    "name": "D#5",
                    "midi": 75,
                    "time": 202.3567800000007,
                    "velocity": 0.4015748031496063,
                    "duration": 0.4651880000000119
                },
                {
                    "name": "D#4",
                    "midi": 63,
                    "time": 203.28715600000072,
                    "velocity": 0.33070866141732286,
                    "duration": 0.4651880000000119
                },
                {
                    "name": "G#4",
                    "midi": 68,
                    "time": 203.28715600000072,
                    "velocity": 0.33070866141732286,
                    "duration": 0.4651880000000119
                },
                {
                    "name": "C5",
                    "midi": 72,
                    "time": 203.28715600000072,
                    "velocity": 0.41732283464566927,
                    "duration": 0.4651880000000119
                },
                {
                    "name": "F4",
                    "midi": 65,
                    "time": 203.75234400000073,
                    "velocity": 0.36220472440944884,
                    "duration": 1.8607520000000193
                },
                {
                    "name": "G#4",
                    "midi": 68,
                    "time": 203.75234400000073,
                    "velocity": 0.36220472440944884,
                    "duration": 1.8607520000000193
                },
                {
                    "name": "C5",
                    "midi": 72,
                    "time": 203.75234400000073,
                    "velocity": 0.4566929133858268,
                    "duration": 1.3955640000000074
                },
                {
                    "name": "A#4",
                    "midi": 70,
                    "time": 205.14790800000074,
                    "velocity": 0.3937007874015748,
                    "duration": 0.4651880000000119
                },
                {
                    "name": "F5",
                    "midi": 77,
                    "time": 206.07828400000076,
                    "velocity": 0.6220472440944882,
                    "duration": 0.4651880000000119
                },
                {
                    "name": "B4",
                    "midi": 71,
                    "time": 206.07828400000076,
                    "velocity": 0.5590551181102362,
                    "duration": 0.4651880000000119
                },
                {
                    "name": "G4",
                    "midi": 67,
                    "time": 206.07828400000076,
                    "velocity": 0.49606299212598426,
                    "duration": 0.4651880000000119
                },
                {
                    "name": "G4",
                    "midi": 67,
                    "time": 206.54347200000078,
                    "velocity": 0.5354330708661418,
                    "duration": 1.8607520000000193
                },
                {
                    "name": "C5",
                    "midi": 72,
                    "time": 206.54347200000078,
                    "velocity": 0.5354330708661418,
                    "duration": 1.8607520000000193
                },
                {
                    "name": "F5",
                    "midi": 77,
                    "time": 206.54347200000078,
                    "velocity": 0.6692913385826772,
                    "duration": 1.3955640000000074
                },
                {
                    "name": "E5",
                    "midi": 76,
                    "time": 207.93903600000078,
                    "velocity": 0.4015748031496063,
                    "duration": 0.4651880000000119
                },
                {
                    "name": "G4",
                    "midi": 67,
                    "time": 208.8694120000008,
                    "velocity": 0.3228346456692913,
                    "duration": 0.4651880000000119
                },
                {
                    "name": "C5",
                    "midi": 72,
                    "time": 208.8694120000008,
                    "velocity": 0.3228346456692913,
                    "duration": 0.4651880000000119
                },
                {
                    "name": "E5",
                    "midi": 76,
                    "time": 208.8694120000008,
                    "velocity": 0.4094488188976378,
                    "duration": 0.4651880000000119
                },
                {
                    "name": "G4",
                    "midi": 67,
                    "time": 209.33460000000082,
                    "velocity": 0.3543307086614173,
                    "duration": 0.9303759999999954
                },
                {
                    "name": "C#5",
                    "midi": 73,
                    "time": 209.33460000000082,
                    "velocity": 0.44881889763779526,
                    "duration": 0.9303759999999954
                },
                {
                    "name": "D#5",
                    "midi": 75,
                    "time": 209.33460000000082,
                    "velocity": 0.44881889763779526,
                    "duration": 0.9303759999999954
                },
                {
                    "name": "G#4",
                    "midi": 68,
                    "time": 210.26497600000081,
                    "velocity": 0.3700787401574803,
                    "duration": 0.4651880000000119
                },
                {
                    "name": "C5",
                    "midi": 72,
                    "time": 210.26497600000081,
                    "velocity": 0.3700787401574803,
                    "duration": 0.4651880000000119
                },
                {
                    "name": "D#5",
                    "midi": 75,
                    "time": 210.26497600000081,
                    "velocity": 0.4645669291338583,
                    "duration": 0.4651880000000119
                },
                {
                    "name": "F4",
                    "midi": 65,
                    "time": 210.73016400000083,
                    "velocity": 0.4015748031496063,
                    "duration": 0.9303759999999954
                },
                {
                    "name": "A#4",
                    "midi": 70,
                    "time": 210.73016400000083,
                    "velocity": 0.4015748031496063,
                    "duration": 0.9303759999999954
                },
                {
                    "name": "C#5",
                    "midi": 73,
                    "time": 210.73016400000083,
                    "velocity": 0.5039370078740157,
                    "duration": 0.9303759999999954
                },
                {
                    "name": "C5",
                    "midi": 72,
                    "time": 211.66054000000082,
                    "velocity": 0.41732283464566927,
                    "duration": 0.23259400000000596
                },
                {
                    "name": "C#4",
                    "midi": 61,
                    "time": 211.66054000000082,
                    "velocity": 0.3700787401574803,
                    "duration": 0.4651880000000119
                },
                {
                    "name": "G4",
                    "midi": 67,
                    "time": 211.66054000000082,
                    "velocity": 0.3700787401574803,
                    "duration": 0.4651880000000119
                },
                {
                    "name": "A#4",
                    "midi": 70,
                    "time": 211.89313400000083,
                    "velocity": 0.4015748031496063,
                    "duration": 0.23259400000000596
                },
                {
                    "name": "C#4",
                    "midi": 61,
                    "time": 212.12572800000083,
                    "velocity": 0.30708661417322836,
                    "duration": 1.3955640000000074
                },
                {
                    "name": "G4",
                    "midi": 67,
                    "time": 212.12572800000083,
                    "velocity": 0.30708661417322836,
                    "duration": 1.3955640000000074
                },
                {
                    "name": "A#4",
                    "midi": 70,
                    "time": 212.12572800000083,
                    "velocity": 0.3464566929133858,
                    "duration": 1.3955640000000074
                },
                {
                    "name": "C4",
                    "midi": 60,
                    "time": 213.52129200000084,
                    "velocity": 0.2204724409448819,
                    "duration": 0.4651880000000119
                },
                {
                    "name": "G#4",
                    "midi": 68,
                    "time": 213.52129200000084,
                    "velocity": 0.25984251968503935,
                    "duration": 0.4651880000000119
                },
                {
                    "name": "D4",
                    "midi": 62,
                    "time": 214.45166800000086,
                    "velocity": 0.25196850393700787,
                    "duration": 0.44192860000001133
                },
                {
                    "name": "G#4",
                    "midi": 68,
                    "time": 214.45166800000086,
                    "velocity": 0.25196850393700787,
                    "duration": 0.44192860000001133
                },
                {
                    "name": "B4",
                    "midi": 71,
                    "time": 214.45166800000086,
                    "velocity": 0.31496062992125984,
                    "duration": 0.44192860000001133
                },
                {
                    "name": "D4",
                    "midi": 62,
                    "time": 214.91685600000088,
                    "velocity": 0.25196850393700787,
                    "duration": 1.3955640000000074
                },
                {
                    "name": "G#4",
                    "midi": 68,
                    "time": 214.91685600000088,
                    "velocity": 0.25196850393700787,
                    "duration": 1.8607520000000193
                },
                {
                    "name": "B4",
                    "midi": 71,
                    "time": 214.91685600000088,
                    "velocity": 0.31496062992125984,
                    "duration": 1.8607520000000193
                },
                {
                    "name": "D#4",
                    "midi": 63,
                    "time": 216.31242000000088,
                    "velocity": 0.2204724409448819,
                    "duration": 0.4651880000000119
                },
                {
                    "name": "E4",
                    "midi": 64,
                    "time": 217.2427960000009,
                    "velocity": 0.28346456692913385,
                    "duration": 0.44192860000001133
                },
                {
                    "name": "G#4",
                    "midi": 68,
                    "time": 217.2427960000009,
                    "velocity": 0.28346456692913385,
                    "duration": 0.44192860000001133
                },
                {
                    "name": "B4",
                    "midi": 71,
                    "time": 217.2427960000009,
                    "velocity": 0.3543307086614173,
                    "duration": 0.44192860000001133
                },
                {
                    "name": "E4",
                    "midi": 64,
                    "time": 217.70798400000092,
                    "velocity": 0.30708661417322836,
                    "duration": 1.3955640000000074
                },
                {
                    "name": "G#4",
                    "midi": 68,
                    "time": 217.70798400000092,
                    "velocity": 0.30708661417322836,
                    "duration": 1.8607520000000193
                },
                {
                    "name": "B4",
                    "midi": 71,
                    "time": 217.70798400000092,
                    "velocity": 0.3858267716535433,
                    "duration": 1.8607520000000193
                },
                {
                    "name": "D#4",
                    "midi": 63,
                    "time": 219.10354800000093,
                    "velocity": 0.2283464566929134,
                    "duration": 0.4651880000000119
                },
                {
                    "name": "D#4",
                    "midi": 63,
                    "time": 220.03392400000095,
                    "velocity": 0.3228346456692913,
                    "duration": 0.4651880000000119
                },
                {
                    "name": "G#4",
                    "midi": 68,
                    "time": 220.03392400000095,
                    "velocity": 0.36220472440944884,
                    "duration": 0.4651880000000119
                },
                {
                    "name": "B4",
                    "midi": 71,
                    "time": 220.03392400000095,
                    "velocity": 0.4094488188976378,
                    "duration": 0.4651880000000119
                },
                {
                    "name": "A#4",
                    "midi": 70,
                    "time": 220.49911200000096,
                    "velocity": 0.4566929133858268,
                    "duration": 0.4651880000000119
                },
                {
                    "name": "E4",
                    "midi": 64,
                    "time": 220.49911200000096,
                    "velocity": 0.36220472440944884,
                    "duration": 2.325940000000031
                },
                {
                    "name": "G#4",
                    "midi": 68,
                    "time": 220.49911200000096,
                    "velocity": 0.4094488188976378,
                    "duration": 2.325940000000031
                },
                {
                    "name": "E5",
                    "midi": 76,
                    "time": 220.96430000000097,
                    "velocity": 0.5118110236220472,
                    "duration": 0.6977819999999895
                },
                {
                    "name": "A#4",
                    "midi": 70,
                    "time": 221.66208200000096,
                    "velocity": 0.4015748031496063,
                    "duration": 0.23259400000000596
                },
                {
                    "name": "D#5",
                    "midi": 75,
                    "time": 221.89467600000097,
                    "velocity": 0.44881889763779526,
                    "duration": 0.23259400000000596
                },
                {
                    "name": "C#5",
                    "midi": 73,
                    "time": 222.12727000000098,
                    "velocity": 0.4330708661417323,
                    "duration": 0.23259400000000596
                },
                {
                    "name": "B4",
                    "midi": 71,
                    "time": 222.35986400000098,
                    "velocity": 0.4330708661417323,
                    "duration": 0.4651880000000119
                },
                {
                    "name": "E4",
                    "midi": 64,
                    "time": 222.825052000001,
                    "velocity": 0.3228346456692913,
                    "duration": 0.4651880000000119
                },
                {
                    "name": "C#4",
                    "midi": 61,
                    "time": 222.825052000001,
                    "velocity": 0.3228346456692913,
                    "duration": 0.4651880000000119
                },
                {
                    "name": "A#4",
                    "midi": 70,
                    "time": 222.825052000001,
                    "velocity": 0.4094488188976378,
                    "duration": 0.4651880000000119
                },
                {
                    "name": "D#4",
                    "midi": 63,
                    "time": 223.290240000001,
                    "velocity": 0.30708661417322836,
                    "duration": 1.8607520000000193
                },
                {
                    "name": "B3",
                    "midi": 59,
                    "time": 223.290240000001,
                    "velocity": 0.30708661417322836,
                    "duration": 1.3955640000000074
                },
                {
                    "name": "G#4",
                    "midi": 68,
                    "time": 223.290240000001,
                    "velocity": 0.3858267716535433,
                    "duration": 1.3955640000000074
                },
                {
                    "name": "A#3",
                    "midi": 58,
                    "time": 224.685804000001,
                    "velocity": 0.2125984251968504,
                    "duration": 0.4651880000000119
                },
                {
                    "name": "G4",
                    "midi": 67,
                    "time": 224.685804000001,
                    "velocity": 0.2755905511811024,
                    "duration": 0.4651880000000119
                },
                {
                    "name": "D4",
                    "midi": 62,
                    "time": 225.61618000000104,
                    "velocity": 0.2204724409448819,
                    "duration": 0.44192860000001133
                },
                {
                    "name": "G#4",
                    "midi": 68,
                    "time": 225.61618000000104,
                    "velocity": 0.2204724409448819,
                    "duration": 0.44192860000001133
                },
                {
                    "name": "B4",
                    "midi": 71,
                    "time": 225.61618000000104,
                    "velocity": 0.28346456692913385,
                    "duration": 0.44192860000001133
                },
                {
                    "name": "D4",
                    "midi": 62,
                    "time": 226.08136800000105,
                    "velocity": 0.2204724409448819,
                    "duration": 1.3955640000000074
                },
                {
                    "name": "G#4",
                    "midi": 68,
                    "time": 226.08136800000105,
                    "velocity": 0.2204724409448819,
                    "duration": 1.8607520000000193
                },
                {
                    "name": "B4",
                    "midi": 71,
                    "time": 226.08136800000105,
                    "velocity": 0.28346456692913385,
                    "duration": 1.8607520000000193
                },
                {
                    "name": "D#4",
                    "midi": 63,
                    "time": 227.47693200000106,
                    "velocity": 0.1968503937007874,
                    "duration": 0.4651880000000119
                },
                {
                    "name": "E4",
                    "midi": 64,
                    "time": 228.40730800000108,
                    "velocity": 0.2992125984251969,
                    "duration": 0.44192860000001133
                },
                {
                    "name": "G#4",
                    "midi": 68,
                    "time": 228.40730800000108,
                    "velocity": 0.2992125984251969,
                    "duration": 0.44192860000001133
                },
                {
                    "name": "B4",
                    "midi": 71,
                    "time": 228.40730800000108,
                    "velocity": 0.3779527559055118,
                    "duration": 0.44192860000001133
                },
                {
                    "name": "E4",
                    "midi": 64,
                    "time": 228.8724960000011,
                    "velocity": 0.2755905511811024,
                    "duration": 1.3955640000000074
                },
                {
                    "name": "G#4",
                    "midi": 68,
                    "time": 228.8724960000011,
                    "velocity": 0.2755905511811024,
                    "duration": 1.8607520000000193
                },
                {
                    "name": "B4",
                    "midi": 71,
                    "time": 228.8724960000011,
                    "velocity": 0.3464566929133858,
                    "duration": 1.8607520000000193
                },
                {
                    "name": "D#4",
                    "midi": 63,
                    "time": 230.2680600000011,
                    "velocity": 0.23622047244094488,
                    "duration": 0.4651880000000119
                },
                {
                    "name": "E4",
                    "midi": 64,
                    "time": 231.19843600000112,
                    "velocity": 0.31496062992125984,
                    "duration": 0.4651880000000119
                },
                {
                    "name": "G#4",
                    "midi": 68,
                    "time": 231.19843600000112,
                    "velocity": 0.31496062992125984,
                    "duration": 0.4651880000000119
                },
                {
                    "name": "B4",
                    "midi": 71,
                    "time": 231.19843600000112,
                    "velocity": 0.3543307086614173,
                    "duration": 0.4651880000000119
                },
                {
                    "name": "B4",
                    "midi": 71,
                    "time": 231.66362400000114,
                    "velocity": 0.3937007874015748,
                    "duration": 0.4651880000000119
                },
                {
                    "name": "E4",
                    "midi": 64,
                    "time": 231.66362400000114,
                    "velocity": 0.3543307086614173,
                    "duration": 2.791128000000043
                },
                {
                    "name": "G#4",
                    "midi": 68,
                    "time": 231.66362400000114,
                    "velocity": 0.3543307086614173,
                    "duration": 1.3955640000000074
                },
                {
                    "name": "E5",
                    "midi": 76,
                    "time": 232.12881200000115,
                    "velocity": 0.5511811023622047,
                    "duration": 0.6977819999999895
                },
                {
                    "name": "B4",
                    "midi": 71,
                    "time": 232.82659400000114,
                    "velocity": 0.47244094488188976,
                    "duration": 0.11629700000000298
                },
                {
                    "name": "B4",
                    "midi": 71,
                    "time": 232.94289100000114,
                    "velocity": 0.4330708661417323,
                    "duration": 0.11629700000000298
                },
                {
                    "name": "D#5",
                    "midi": 75,
                    "time": 233.05918800000114,
                    "velocity": 0.5748031496062992,
                    "duration": 0.23259400000000596
                },
                {
                    "name": "C#5",
                    "midi": 73,
                    "time": 233.29178200000115,
                    "velocity": 0.5511811023622047,
                    "duration": 0.23259400000000596
                },
                {
                    "name": "B4",
                    "midi": 71,
                    "time": 233.52437600000115,
                    "velocity": 0.5275590551181102,
                    "duration": 0.4651880000000119
                },
                {
                    "name": "G#4",
                    "midi": 68,
                    "time": 233.98956400000117,
                    "velocity": 0.5118110236220472,
                    "duration": 0.4651880000000119
                },
                {
                    "name": "F4",
                    "midi": 65,
                    "time": 234.45475200000118,
                    "velocity": 0.4881889763779528,
                    "duration": 0.4651880000000119
                },
                {
                    "name": "C#4",
                    "midi": 61,
                    "time": 234.45475200000118,
                    "velocity": 0.4330708661417323,
                    "duration": 1.3955640000000074
                },
                {
                    "name": "C#5",
                    "midi": 73,
                    "time": 234.9199400000012,
                    "velocity": 0.5511811023622047,
                    "duration": 0.6977819999999895
                },
                {
                    "name": "F4",
                    "midi": 65,
                    "time": 235.61772200000118,
                    "velocity": 0.4566929133858268,
                    "duration": 0.23259400000000596
                },
                {
                    "name": "C#4",
                    "midi": 61,
                    "time": 235.8503160000012,
                    "velocity": 0.4409448818897638,
                    "duration": 0.4651880000000119
                },
                {
                    "name": "F#4",
                    "midi": 66,
                    "time": 235.8503160000012,
                    "velocity": 0.4409448818897638,
                    "duration": 0.4651880000000119
                },
                {
                    "name": "C#5",
                    "midi": 73,
                    "time": 235.8503160000012,
                    "velocity": 0.5511811023622047,
                    "duration": 0.23259400000000596
                },
                {
                    "name": "A4",
                    "midi": 69,
                    "time": 236.0829100000012,
                    "velocity": 0.5511811023622047,
                    "duration": 0.23259400000000596
                },
                {
                    "name": "E4",
                    "midi": 64,
                    "time": 236.3155040000012,
                    "velocity": 0.4409448818897638,
                    "duration": 0.4651880000000119
                },
                {
                    "name": "G#4",
                    "midi": 68,
                    "time": 236.3155040000012,
                    "velocity": 0.5511811023622047,
                    "duration": 0.4651880000000119
                },
                {
                    "name": "D#4",
                    "midi": 63,
                    "time": 236.7806920000012,
                    "velocity": 0.47244094488188976,
                    "duration": 0.4651880000000119
                },
                {
                    "name": "F#4",
                    "midi": 66,
                    "time": 236.7806920000012,
                    "velocity": 0.5275590551181102,
                    "duration": 0.4651880000000119
                },
                {
                    "name": "G#3",
                    "midi": 56,
                    "time": 237.24588000000122,
                    "velocity": 0.41732283464566927,
                    "duration": 0.9303759999999954
                },
                {
                    "name": "B3",
                    "midi": 59,
                    "time": 237.24588000000122,
                    "velocity": 0.41732283464566927,
                    "duration": 0.9303759999999954
                },
                {
                    "name": "E4",
                    "midi": 64,
                    "time": 237.24588000000122,
                    "velocity": 0.5196850393700787,
                    "duration": 0.9303759999999954
                },
                {
                    "name": "E4",
                    "midi": 64,
                    "time": 238.17625600000122,
                    "velocity": 0.4015748031496063,
                    "duration": 0.15506266666668012
                },
                {
                    "name": "G#4",
                    "midi": 68,
                    "time": 238.3313186666679,
                    "velocity": 0.4330708661417323,
                    "duration": 0.15506266666668012
                },
                {
                    "name": "B4",
                    "midi": 71,
                    "time": 238.48638133333458,
                    "velocity": 0.4645669291338583,
                    "duration": 0.15506266666668012
                },
                {
                    "name": "A#4",
                    "midi": 70,
                    "time": 238.64144400000126,
                    "velocity": 0.5433070866141733,
                    "duration": 0.9303759999999954
                },
                {
                    "name": "G4",
                    "midi": 67,
                    "time": 238.64144400000126,
                    "velocity": 0.4330708661417323,
                    "duration": 0.9303759999999954
                },
                {
                    "name": "E4",
                    "midi": 64,
                    "time": 238.64144400000126,
                    "velocity": 0.4330708661417323,
                    "duration": 0.9303759999999954
                },
                {
                    "name": "C#4",
                    "midi": 61,
                    "time": 238.64144400000126,
                    "velocity": 0.4330708661417323,
                    "duration": 0.9303759999999954
                },
                {
                    "name": "B4",
                    "midi": 71,
                    "time": 239.57182000000125,
                    "velocity": 0.44881889763779526,
                    "duration": 0.23259400000000596
                },
                {
                    "name": "G#4",
                    "midi": 68,
                    "time": 239.57182000000125,
                    "velocity": 0.3543307086614173,
                    "duration": 0.23259400000000596
                },
                {
                    "name": "E4",
                    "midi": 64,
                    "time": 239.57182000000125,
                    "velocity": 0.3543307086614173,
                    "duration": 0.23259400000000596
                },
                {
                    "name": "B3",
                    "midi": 59,
                    "time": 239.57182000000125,
                    "velocity": 0.3543307086614173,
                    "duration": 0.23259400000000596
                },
                {
                    "name": "F#4",
                    "midi": 66,
                    "time": 239.80441400000126,
                    "velocity": 0.3464566929133858,
                    "duration": 0.11629700000000298
                },
                {
                    "name": "G#4",
                    "midi": 68,
                    "time": 239.92071100000126,
                    "velocity": 0.3464566929133858,
                    "duration": 0.11629700000000298
                },
                {
                    "name": "C4",
                    "midi": 60,
                    "time": 240.03700800000126,
                    "velocity": 0.30708661417322836,
                    "duration": 0.6977819999999895
                },
                {
                    "name": "A4",
                    "midi": 69,
                    "time": 240.03700800000126,
                    "velocity": 0.3858267716535433,
                    "duration": 0.6977819999999895
                },
                {
                    "name": "D#4",
                    "midi": 63,
                    "time": 240.03700800000126,
                    "velocity": 0.3464566929133858,
                    "duration": 1.3955640000000074
                },
                {
                    "name": "B3",
                    "midi": 59,
                    "time": 240.73479000000125,
                    "velocity": 0.33070866141732286,
                    "duration": 0.23259400000000596
                },
                {
                    "name": "G#4",
                    "midi": 68,
                    "time": 240.73479000000125,
                    "velocity": 0.3700787401574803,
                    "duration": 0.23259400000000596
                },
                {
                    "name": "A3",
                    "midi": 57,
                    "time": 240.96738400000126,
                    "velocity": 0.30708661417322836,
                    "duration": 0.4651880000000119
                },
                {
                    "name": "F#4",
                    "midi": 66,
                    "time": 240.96738400000126,
                    "velocity": 0.3464566929133858,
                    "duration": 0.4651880000000119
                },
                {
                    "name": "G#3",
                    "midi": 56,
                    "time": 241.43257200000127,
                    "velocity": 0.25196850393700787,
                    "duration": 0.9303759999999954
                },
                {
                    "name": "E4",
                    "midi": 64,
                    "time": 241.43257200000127,
                    "velocity": 0.3228346456692913,
                    "duration": 0.9303759999999954
                },
                {
                    "name": "E4",
                    "midi": 64,
                    "time": 242.36294800000127,
                    "velocity": 0.4015748031496063,
                    "duration": 0.15506266666668012
                },
                {
                    "name": "G#4",
                    "midi": 68,
                    "time": 242.51801066666795,
                    "velocity": 0.4330708661417323,
                    "duration": 0.15506266666668012
                },
                {
                    "name": "B4",
                    "midi": 71,
                    "time": 242.67307333333463,
                    "velocity": 0.4645669291338583,
                    "duration": 0.15506266666668012
                },
                {
                    "name": "A#4",
                    "midi": 70,
                    "time": 242.8281360000013,
                    "velocity": 0.5433070866141733,
                    "duration": 0.9303759999999954
                },
                {
                    "name": "G4",
                    "midi": 67,
                    "time": 242.8281360000013,
                    "velocity": 0.4881889763779528,
                    "duration": 0.9303759999999954
                },
                {
                    "name": "E4",
                    "midi": 64,
                    "time": 242.8281360000013,
                    "velocity": 0.4330708661417323,
                    "duration": 0.9303759999999954
                },
                {
                    "name": "C#4",
                    "midi": 61,
                    "time": 242.8281360000013,
                    "velocity": 0.4330708661417323,
                    "duration": 0.9303759999999954
                },
                {
                    "name": "B4",
                    "midi": 71,
                    "time": 243.7585120000013,
                    "velocity": 0.4015748031496063,
                    "duration": 0.23259400000000596
                },
                {
                    "name": "G#4",
                    "midi": 68,
                    "time": 243.7585120000013,
                    "velocity": 0.3543307086614173,
                    "duration": 0.23259400000000596
                },
                {
                    "name": "E4",
                    "midi": 64,
                    "time": 243.7585120000013,
                    "velocity": 0.31496062992125984,
                    "duration": 0.23259400000000596
                },
                {
                    "name": "B3",
                    "midi": 59,
                    "time": 243.7585120000013,
                    "velocity": 0.31496062992125984,
                    "duration": 0.23259400000000596
                },
                {
                    "name": "F#4",
                    "midi": 66,
                    "time": 243.9911060000013,
                    "velocity": 0.33858267716535434,
                    "duration": 0.11629700000000298
                },
                {
                    "name": "G#4",
                    "midi": 68,
                    "time": 244.1074030000013,
                    "velocity": 0.33858267716535434,
                    "duration": 0.11629700000000298
                },
                {
                    "name": "C4",
                    "midi": 60,
                    "time": 244.22370000000132,
                    "velocity": 0.3228346456692913,
                    "duration": 0.6977819999999895
                },
                {
                    "name": "A4",
                    "midi": 69,
                    "time": 244.22370000000132,
                    "velocity": 0.36220472440944884,
                    "duration": 0.6977819999999895
                },
                {
                    "name": "D#4",
                    "midi": 63,
                    "time": 244.22370000000132,
                    "velocity": 0.28346456692913385,
                    "duration": 1.3955640000000074
                },
                {
                    "name": "B3",
                    "midi": 59,
                    "time": 244.9214820000013,
                    "velocity": 0.28346456692913385,
                    "duration": 0.23259400000000596
                },
                {
                    "name": "G#4",
                    "midi": 68,
                    "time": 244.9214820000013,
                    "velocity": 0.3228346456692913,
                    "duration": 0.23259400000000596
                },
                {
                    "name": "A3",
                    "midi": 57,
                    "time": 245.1540760000013,
                    "velocity": 0.25984251968503935,
                    "duration": 0.4651880000000119
                },
                {
                    "name": "F#4",
                    "midi": 66,
                    "time": 245.1540760000013,
                    "velocity": 0.29133858267716534,
                    "duration": 0.4651880000000119
                },
                {
                    "name": "G#3",
                    "midi": 56,
                    "time": 245.61926400000132,
                    "velocity": 0.2440944881889764,
                    "duration": 0.9303759999999954
                },
                {
                    "name": "E4",
                    "midi": 64,
                    "time": 245.61926400000132,
                    "velocity": 0.2755905511811024,
                    "duration": 0.9303759999999954
                },
                {
                    "name": "G#4",
                    "midi": 68,
                    "time": 246.54964000000132,
                    "velocity": 0.33858267716535434,
                    "duration": 0.4651880000000119
                },
                {
                    "name": "E4",
                    "midi": 64,
                    "time": 247.01482800000133,
                    "velocity": 0.30708661417322836,
                    "duration": 0.9303759999999954
                },
                {
                    "name": "G#4",
                    "midi": 68,
                    "time": 247.01482800000133,
                    "velocity": 0.3858267716535433,
                    "duration": 0.9303759999999954
                },
                {
                    "name": "E4",
                    "midi": 64,
                    "time": 247.94520400000133,
                    "velocity": 0.2755905511811024,
                    "duration": 0.4651880000000119
                },
                {
                    "name": "G#4",
                    "midi": 68,
                    "time": 247.94520400000133,
                    "velocity": 0.3464566929133858,
                    "duration": 0.4651880000000119
                },
                {
                    "name": "E4",
                    "midi": 64,
                    "time": 248.41039200000134,
                    "velocity": 0.3543307086614173,
                    "duration": 0.6977819999999895
                },
                {
                    "name": "G#4",
                    "midi": 68,
                    "time": 248.41039200000134,
                    "velocity": 0.3937007874015748,
                    "duration": 0.9303759999999954
                },
                {
                    "name": "D#4",
                    "midi": 63,
                    "time": 249.10817400000133,
                    "velocity": 0.31496062992125984,
                    "duration": 0.23259400000000596
                },
                {
                    "name": "D4",
                    "midi": 62,
                    "time": 249.34076800000133,
                    "velocity": 0.25984251968503935,
                    "duration": 0.4651880000000119
                },
                {
                    "name": "G#4",
                    "midi": 68,
                    "time": 249.34076800000133,
                    "velocity": 0.33070866141732286,
                    "duration": 0.4651880000000119
                },
                {
                    "name": "D#4",
                    "midi": 63,
                    "time": 249.80595600000134,
                    "velocity": 0.2755905511811024,
                    "duration": 2.325940000000003
                },
                {
                    "name": "G#4",
                    "midi": 68,
                    "time": 249.80595600000134,
                    "velocity": 0.3464566929133858,
                    "duration": 1.3955640000000074
                },
                {
                    "name": "G4",
                    "midi": 67,
                    "time": 251.20152000000135,
                    "velocity": 0.30708661417322836,
                    "duration": 0.6977819999999895
                },
                {
                    "name": "G#4",
                    "midi": 68,
                    "time": 251.89930200000134,
                    "velocity": 0.30708661417322836,
                    "duration": 0.23259400000000596
                },
                {
                    "name": "A#4",
                    "midi": 70,
                    "time": 252.13189600000135,
                    "velocity": 0.33070866141732286,
                    "duration": 0.23259400000000596
                },
                {
                    "name": "C5",
                    "midi": 72,
                    "time": 252.36449000000135,
                    "velocity": 0.3543307086614173,
                    "duration": 0.23259400000000596
                },
                {
                    "name": "F4",
                    "midi": 65,
                    "time": 252.59708400000136,
                    "velocity": 0.2992125984251969,
                    "duration": 0.9303759999999954
                },
                {
                    "name": "G#4",
                    "midi": 68,
                    "time": 252.59708400000136,
                    "velocity": 0.2992125984251969,
                    "duration": 0.9303759999999954
                },
                {
                    "name": "C#5",
                    "midi": 73,
                    "time": 252.59708400000136,
                    "velocity": 0.3779527559055118,
                    "duration": 0.9303759999999954
                },
                {
                    "name": "F4",
                    "midi": 65,
                    "time": 253.52746000000135,
                    "velocity": 0.30708661417322836,
                    "duration": 0.4651880000000119
                },
                {
                    "name": "G#4",
                    "midi": 68,
                    "time": 253.52746000000135,
                    "velocity": 0.30708661417322836,
                    "duration": 0.4651880000000119
                },
                {
                    "name": "C#5",
                    "midi": 73,
                    "time": 253.52746000000135,
                    "velocity": 0.3858267716535433,
                    "duration": 0.4651880000000119
                },
                {
                    "name": "D#5",
                    "midi": 75,
                    "time": 253.99264800000137,
                    "velocity": 0.4330708661417323,
                    "duration": 0.11629700000000298
                },
                {
                    "name": "G4",
                    "midi": 67,
                    "time": 253.99264800000137,
                    "velocity": 0.31496062992125984,
                    "duration": 0.9303760000000239
                },
                {
                    "name": "A#4",
                    "midi": 70,
                    "time": 253.99264800000137,
                    "velocity": 0.3543307086614173,
                    "duration": 0.9303760000000239
                },
                {
                    "name": "C#5",
                    "midi": 73,
                    "time": 254.10894500000137,
                    "velocity": 0.3937007874015748,
                    "duration": 0.11629700000000298
                },
                {
                    "name": "C5",
                    "midi": 72,
                    "time": 254.22524200000137,
                    "velocity": 0.3937007874015748,
                    "duration": 0.11629700000000298
                },
                {
                    "name": "C#5",
                    "midi": 73,
                    "time": 254.34153900000138,
                    "velocity": 0.3937007874015748,
                    "duration": 0.11629700000000298
                },
                {
                    "name": "D#5",
                    "midi": 75,
                    "time": 254.45783600000138,
                    "velocity": 0.4015748031496063,
                    "duration": 0.4651880000000119
                },
                {
                    "name": "G4",
                    "midi": 67,
                    "time": 254.9230240000014,
                    "velocity": 0.30708661417322836,
                    "duration": 0.4651880000000119
                },
                {
                    "name": "A#4",
                    "midi": 70,
                    "time": 254.9230240000014,
                    "velocity": 0.3858267716535433,
                    "duration": 0.4651880000000119
                },
                {
                    "name": "G4",
                    "midi": 67,
                    "time": 255.3882120000014,
                    "velocity": 0.31496062992125984,
                    "duration": 1.3955640000000074
                },
                {
                    "name": "A#4",
                    "midi": 70,
                    "time": 255.3882120000014,
                    "velocity": 0.31496062992125984,
                    "duration": 1.3955640000000074
                },
                {
                    "name": "C#5",
                    "midi": 73,
                    "time": 255.3882120000014,
                    "velocity": 0.3937007874015748,
                    "duration": 1.3955640000000074
                },
                {
                    "name": "G#4",
                    "midi": 68,
                    "time": 256.7837760000014,
                    "velocity": 0.28346456692913385,
                    "duration": 0.4651880000000119
                },
                {
                    "name": "C5",
                    "midi": 72,
                    "time": 256.7837760000014,
                    "velocity": 0.3543307086614173,
                    "duration": 0.4651880000000119
                },
                {
                    "name": "G#4",
                    "midi": 68,
                    "time": 257.71415200000143,
                    "velocity": 0.5039370078740157,
                    "duration": 0.4419285999999829
                },
                {
                    "name": "C5",
                    "midi": 72,
                    "time": 257.71415200000143,
                    "velocity": 0.5039370078740157,
                    "duration": 0.4419285999999829
                },
                {
                    "name": "F5",
                    "midi": 77,
                    "time": 257.71415200000143,
                    "velocity": 0.6299212598425197,
                    "duration": 0.4419285999999829
                },
                {
                    "name": "G#4",
                    "midi": 68,
                    "time": 258.1793400000014,
                    "velocity": 0.5039370078740157,
                    "duration": 0.9303760000000239
                },
                {
                    "name": "C5",
                    "midi": 72,
                    "time": 258.1793400000014,
                    "velocity": 0.5039370078740157,
                    "duration": 0.9303760000000239
                },
                {
                    "name": "F5",
                    "midi": 77,
                    "time": 258.1793400000014,
                    "velocity": 0.6299212598425197,
                    "duration": 0.9303760000000239
                },
                {
                    "name": "G#4",
                    "midi": 68,
                    "time": 259.1097160000014,
                    "velocity": 0.5039370078740157,
                    "duration": 0.4651880000000119
                },
                {
                    "name": "C5",
                    "midi": 72,
                    "time": 259.1097160000014,
                    "velocity": 0.5039370078740157,
                    "duration": 0.4651880000000119
                },
                {
                    "name": "F5",
                    "midi": 77,
                    "time": 259.1097160000014,
                    "velocity": 0.6299212598425197,
                    "duration": 0.4651880000000119
                },
                {
                    "name": "G#5",
                    "midi": 80,
                    "time": 259.5749040000014,
                    "velocity": 0.6771653543307087,
                    "duration": 0.6977820000000179
                },
                {
                    "name": "G#4",
                    "midi": 68,
                    "time": 259.5749040000014,
                    "velocity": 0.5433070866141733,
                    "duration": 0.9303760000000239
                },
                {
                    "name": "C5",
                    "midi": 72,
                    "time": 259.5749040000014,
                    "velocity": 0.5433070866141733,
                    "duration": 0.9303760000000239
                },
                {
                    "name": "G4",
                    "midi": 67,
                    "time": 260.27268600000144,
                    "velocity": 0.5039370078740157,
                    "duration": 0.23259400000000596
                },
                {
                    "name": "G5",
                    "midi": 79,
                    "time": 260.27268600000144,
                    "velocity": 0.6299212598425197,
                    "duration": 0.23259400000000596
                },
                {
                    "name": "F5",
                    "midi": 77,
                    "time": 260.50528000000145,
                    "velocity": 0.5905511811023622,
                    "duration": 0.4651880000000119
                },
                {
                    "name": "C5",
                    "midi": 72,
                    "time": 260.50528000000145,
                    "velocity": 0.47244094488188976,
                    "duration": 0.4651880000000119
                },
                {
                    "name": "G#4",
                    "midi": 68,
                    "time": 260.50528000000145,
                    "velocity": 0.47244094488188976,
                    "duration": 0.4651880000000119
                },
                {
                    "name": "F4",
                    "midi": 65,
                    "time": 260.50528000000145,
                    "velocity": 0.47244094488188976,
                    "duration": 0.4651880000000119
                },
                {
                    "name": "F5",
                    "midi": 77,
                    "time": 260.97046800000146,
                    "velocity": 0.6299212598425197,
                    "duration": 2.325940000000003
                },
                {
                    "name": "C#5",
                    "midi": 73,
                    "time": 260.97046800000146,
                    "velocity": 0.5275590551181102,
                    "duration": 2.7911280000000147
                },
                {
                    "name": "A#4",
                    "midi": 70,
                    "time": 260.97046800000146,
                    "velocity": 0.5039370078740157,
                    "duration": 2.7911280000000147
                },
                {
                    "name": "G4",
                    "midi": 67,
                    "time": 260.97046800000146,
                    "velocity": 0.5039370078740157,
                    "duration": 2.7911280000000147
                },
                {
                    "name": "E5",
                    "midi": 76,
                    "time": 263.29640800000146,
                    "velocity": 0.4251968503937008,
                    "duration": 0.4651880000000119
                },
                {
                    "name": "A#4",
                    "midi": 70,
                    "time": 263.7615960000015,
                    "velocity": 0.29133858267716534,
                    "duration": 2.3259400000000596
                },
                {
                    "name": "D#5",
                    "midi": 75,
                    "time": 263.7615960000015,
                    "velocity": 0.3700787401574803,
                    "duration": 0.9303760000000239
                },
                {
                    "name": "D5",
                    "midi": 74,
                    "time": 264.6919720000015,
                    "velocity": 0.33858267716535434,
                    "duration": 0.4651880000000119
                },
                {
                    "name": "C#5",
                    "midi": 73,
                    "time": 265.1571600000015,
                    "velocity": 0.29133858267716534,
                    "duration": 0.9303760000000239
                },
                {
                    "name": "D#4",
                    "midi": 63,
                    "time": 266.08753600000153,
                    "velocity": 0.28346456692913385,
                    "duration": 0.4651880000000119
                },
                {
                    "name": "G#4",
                    "midi": 68,
                    "time": 266.08753600000153,
                    "velocity": 0.28346456692913385,
                    "duration": 0.4651880000000119
                },
                {
                    "name": "C5",
                    "midi": 72,
                    "time": 266.08753600000153,
                    "velocity": 0.3543307086614173,
                    "duration": 0.4651880000000119
                },
                {
                    "name": "F4",
                    "midi": 65,
                    "time": 266.55272400000155,
                    "velocity": 0.29133858267716534,
                    "duration": 1.8607519999999909
                },
                {
                    "name": "G#4",
                    "midi": 68,
                    "time": 266.55272400000155,
                    "velocity": 0.29133858267716534,
                    "duration": 1.8607519999999909
                },
                {
                    "name": "C5",
                    "midi": 72,
                    "time": 266.55272400000155,
                    "velocity": 0.3700787401574803,
                    "duration": 1.395563999999979
                },
                {
                    "name": "A#4",
                    "midi": 70,
                    "time": 267.9482880000015,
                    "velocity": 0.3464566929133858,
                    "duration": 0.4651880000000119
                },
                {
                    "name": "F5",
                    "midi": 77,
                    "time": 268.87866400000155,
                    "velocity": 0.3937007874015748,
                    "duration": 0.4651880000000119
                },
                {
                    "name": "A#4",
                    "midi": 70,
                    "time": 268.87866400000155,
                    "velocity": 0.31496062992125984,
                    "duration": 0.4651880000000119
                },
                {
                    "name": "G4",
                    "midi": 67,
                    "time": 268.87866400000155,
                    "velocity": 0.31496062992125984,
                    "duration": 0.4651880000000119
                },
                {
                    "name": "G#4",
                    "midi": 68,
                    "time": 269.34385200000156,
                    "velocity": 0.3228346456692913,
                    "duration": 1.8607519999999909
                },
                {
                    "name": "C5",
                    "midi": 72,
                    "time": 269.34385200000156,
                    "velocity": 0.3228346456692913,
                    "duration": 1.8607519999999909
                },
                {
                    "name": "F5",
                    "midi": 77,
                    "time": 269.34385200000156,
                    "velocity": 0.4094488188976378,
                    "duration": 1.395563999999979
                },
                {
                    "name": "D#5",
                    "midi": 75,
                    "time": 270.73941600000154,
                    "velocity": 0.3779527559055118,
                    "duration": 0.4651880000000119
                },
                {
                    "name": "C4",
                    "midi": 60,
                    "time": 271.43719800000156,
                    "velocity": 0.2992125984251969,
                    "duration": 0.6977820000000179
                },
                {
                    "name": "D#4",
                    "midi": 63,
                    "time": 271.43719800000156,
                    "velocity": 0.33858267716535434,
                    "duration": 0.23259400000000596
                },
                {
                    "name": "G#4",
                    "midi": 68,
                    "time": 271.66979200000156,
                    "velocity": 0.3937007874015748,
                    "duration": 0.23259400000000596
                },
                {
                    "name": "C5",
                    "midi": 72,
                    "time": 271.90238600000157,
                    "velocity": 0.4094488188976378,
                    "duration": 0.23259400000000596
                },
                {
                    "name": "C#4",
                    "midi": 61,
                    "time": 272.1349800000016,
                    "velocity": 0.33858267716535434,
                    "duration": 0.9303760000000239
                },
                {
                    "name": "D#4",
                    "midi": 63,
                    "time": 272.1349800000016,
                    "velocity": 0.33858267716535434,
                    "duration": 0.9303760000000239
                },
                {
                    "name": "G4",
                    "midi": 67,
                    "time": 272.1349800000016,
                    "velocity": 0.33858267716535434,
                    "duration": 0.9303760000000239
                },
                {
                    "name": "C#5",
                    "midi": 73,
                    "time": 272.1349800000016,
                    "velocity": 0.4251968503937008,
                    "duration": 0.9303760000000239
                },
                {
                    "name": "C4",
                    "midi": 60,
                    "time": 273.0653560000016,
                    "velocity": 0.3543307086614173,
                    "duration": 0.4651880000000119
                },
                {
                    "name": "D#4",
                    "midi": 63,
                    "time": 273.0653560000016,
                    "velocity": 0.3543307086614173,
                    "duration": 0.4651880000000119
                },
                {
                    "name": "G#4",
                    "midi": 68,
                    "time": 273.0653560000016,
                    "velocity": 0.3543307086614173,
                    "duration": 0.4651880000000119
                },
                {
                    "name": "C5",
                    "midi": 72,
                    "time": 273.0653560000016,
                    "velocity": 0.4409448818897638,
                    "duration": 0.4651880000000119
                },
                {
                    "name": "A#3",
                    "midi": 58,
                    "time": 273.5305440000016,
                    "velocity": 0.3543307086614173,
                    "duration": 0.9303760000000239
                },
                {
                    "name": "D#4",
                    "midi": 63,
                    "time": 273.5305440000016,
                    "velocity": 0.3543307086614173,
                    "duration": 0.9303760000000239
                },
                {
                    "name": "A#4",
                    "midi": 70,
                    "time": 273.5305440000016,
                    "velocity": 0.44881889763779526,
                    "duration": 0.9303760000000239
                },
                {
                    "name": "D4",
                    "midi": 62,
                    "time": 274.46092000000164,
                    "velocity": 0.3858267716535433,
                    "duration": 0.4651880000000119
                },
                {
                    "name": "A#4",
                    "midi": 70,
                    "time": 274.46092000000164,
                    "velocity": 0.3858267716535433,
                    "duration": 0.4651880000000119
                },
                {
                    "name": "G#4",
                    "midi": 68,
                    "time": 274.46092000000164,
                    "velocity": 0.3858267716535433,
                    "duration": 0.4651880000000119
                },
                {
                    "name": "D5",
                    "midi": 74,
                    "time": 274.46092000000164,
                    "velocity": 0.4881889763779528,
                    "duration": 0.4651880000000119
                },
                {
                    "name": "D4",
                    "midi": 62,
                    "time": 274.92610800000165,
                    "velocity": 0.4330708661417323,
                    "duration": 1.395563999999979
                },
                {
                    "name": "A#4",
                    "midi": 70,
                    "time": 274.92610800000165,
                    "velocity": 0.4330708661417323,
                    "duration": 1.8607519999999909
                },
                {
                    "name": "G#4",
                    "midi": 68,
                    "time": 274.92610800000165,
                    "velocity": 0.4330708661417323,
                    "duration": 1.395563999999979
                },
                {
                    "name": "D5",
                    "midi": 74,
                    "time": 274.92610800000165,
                    "velocity": 0.5433070866141733,
                    "duration": 1.395563999999979
                },
                {
                    "name": "G4",
                    "midi": 67,
                    "time": 276.3216720000016,
                    "velocity": 0.28346456692913385,
                    "duration": 0.4651880000000119
                },
                {
                    "name": "D#4",
                    "midi": 63,
                    "time": 276.3216720000016,
                    "velocity": 0.28346456692913385,
                    "duration": 0.4651880000000119
                },
                {
                    "name": "D#5",
                    "midi": 75,
                    "time": 276.3216720000016,
                    "velocity": 0.3543307086614173,
                    "duration": 0.4651880000000119
                },
                {
                    "name": "D#4",
                    "midi": 63,
                    "time": 277.25204800000165,
                    "velocity": 0.4566929133858268,
                    "duration": 0.4651880000000119
                },
                {
                    "name": "G#4",
                    "midi": 68,
                    "time": 277.25204800000165,
                    "velocity": 0.4566929133858268,
                    "duration": 0.4651880000000119
                },
                {
                    "name": "C5",
                    "midi": 72,
                    "time": 277.25204800000165,
                    "velocity": 0.5748031496062992,
                    "duration": 0.4651880000000119
                },
                {
                    "name": "E4",
                    "midi": 64,
                    "time": 277.71723600000166,
                    "velocity": 0.5039370078740157,
                    "duration": 1.8607519999999909
                },
                {
                    "name": "G#4",
                    "midi": 68,
                    "time": 277.71723600000166,
                    "velocity": 0.5039370078740157,
                    "duration": 1.8607519999999909
                },
                {
                    "name": "C5",
                    "midi": 72,
                    "time": 277.71723600000166,
                    "velocity": 0.6377952755905512,
                    "duration": 1.162969999999973
                },
                {
                    "name": "B4",
                    "midi": 71,
                    "time": 278.88020600000164,
                    "velocity": 0.41732283464566927,
                    "duration": 0.23259400000000596
                },
                {
                    "name": "A#4",
                    "midi": 70,
                    "time": 279.11280000000164,
                    "velocity": 0.3937007874015748,
                    "duration": 0.4651880000000119
                },
                {
                    "name": "D#4",
                    "midi": 63,
                    "time": 280.04317600000167,
                    "velocity": 0.4566929133858268,
                    "duration": 0.4651880000000119
                },
                {
                    "name": "G#4",
                    "midi": 68,
                    "time": 280.04317600000167,
                    "velocity": 0.4566929133858268,
                    "duration": 0.4651880000000119
                },
                {
                    "name": "C5",
                    "midi": 72,
                    "time": 280.04317600000167,
                    "velocity": 0.5748031496062992,
                    "duration": 0.4651880000000119
                },
                {
                    "name": "E4",
                    "midi": 64,
                    "time": 280.5083640000017,
                    "velocity": 0.5039370078740157,
                    "duration": 1.8607519999999909
                },
                {
                    "name": "G#4",
                    "midi": 68,
                    "time": 280.5083640000017,
                    "velocity": 0.5039370078740157,
                    "duration": 1.8607519999999909
                },
                {
                    "name": "C5",
                    "midi": 72,
                    "time": 280.5083640000017,
                    "velocity": 0.6377952755905512,
                    "duration": 1.162969999999973
                },
                {
                    "name": "B4",
                    "midi": 71,
                    "time": 281.67133400000165,
                    "velocity": 0.4251968503937008,
                    "duration": 0.23259400000000596
                },
                {
                    "name": "A#4",
                    "midi": 70,
                    "time": 281.90392800000166,
                    "velocity": 0.4015748031496063,
                    "duration": 0.4651880000000119
                },
                {
                    "name": "E4",
                    "midi": 64,
                    "time": 282.8343040000017,
                    "velocity": 0.5669291338582677,
                    "duration": 0.9216537249999988
                },
                {
                    "name": "G#4",
                    "midi": 68,
                    "time": 282.8343040000017,
                    "velocity": 0.5669291338582677,
                    "duration": 0.9216537249999988
                },
                {
                    "name": "B4",
                    "midi": 71,
                    "time": 282.8343040000017,
                    "velocity": 0.7007874015748031,
                    "duration": 0.9216537249999988
                },
                {
                    "name": "E4",
                    "midi": 64,
                    "time": 283.7646800000017,
                    "velocity": 0.5669291338582677,
                    "duration": 0.4419285999999829
                },
                {
                    "name": "G#4",
                    "midi": 68,
                    "time": 283.7646800000017,
                    "velocity": 0.5669291338582677,
                    "duration": 0.4419285999999829
                },
                {
                    "name": "B4",
                    "midi": 71,
                    "time": 283.7646800000017,
                    "velocity": 0.7086614173228346,
                    "duration": 0.4419285999999829
                },
                {
                    "name": "E4",
                    "midi": 64,
                    "time": 284.22986800000166,
                    "velocity": 0.5590551181102362,
                    "duration": 0.4419285999999829
                },
                {
                    "name": "G#4",
                    "midi": 68,
                    "time": 284.22986800000166,
                    "velocity": 0.5590551181102362,
                    "duration": 0.4419285999999829
                },
                {
                    "name": "B4",
                    "midi": 71,
                    "time": 284.22986800000166,
                    "velocity": 0.6929133858267716,
                    "duration": 0.4419285999999829
                },
                {
                    "name": "E4",
                    "midi": 64,
                    "time": 284.6950560000016,
                    "velocity": 0.5354330708661418,
                    "duration": 0.4419285999999829
                },
                {
                    "name": "G#4",
                    "midi": 68,
                    "time": 284.6950560000016,
                    "velocity": 0.5354330708661418,
                    "duration": 0.4419285999999829
                },
                {
                    "name": "B4",
                    "midi": 71,
                    "time": 284.6950560000016,
                    "velocity": 0.6692913385826772,
                    "duration": 0.4419285999999829
                },
                {
                    "name": "E4",
                    "midi": 64,
                    "time": 285.16024400000157,
                    "velocity": 0.5669291338582677,
                    "duration": 0.4651880000000119
                },
                {
                    "name": "A4",
                    "midi": 69,
                    "time": 285.16024400000157,
                    "velocity": 0.5826771653543307,
                    "duration": 0.4651880000000119
                },
                {
                    "name": "C#5",
                    "midi": 73,
                    "time": 285.16024400000157,
                    "velocity": 0.7322834645669292,
                    "duration": 0.4651880000000119
                },
                {
                    "name": "E4",
                    "midi": 64,
                    "time": 285.6254320000016,
                    "velocity": 0.5669291338582677,
                    "duration": 0.4651880000000119
                },
                {
                    "name": "B4",
                    "midi": 71,
                    "time": 285.6254320000016,
                    "velocity": 0.6220472440944882,
                    "duration": 0.4651880000000119
                },
                {
                    "name": "D5",
                    "midi": 74,
                    "time": 285.6254320000016,
                    "velocity": 0.7716535433070866,
                    "duration": 0.4651880000000119
                },
                {
                    "name": "E4",
                    "midi": 64,
                    "time": 286.0906200000016,
                    "velocity": 0.5433070866141733,
                    "duration": 0.4651880000000119
                },
                {
                    "name": "C#5",
                    "midi": 73,
                    "time": 286.0906200000016,
                    "velocity": 0.6377952755905512,
                    "duration": 0.4651880000000119
                },
                {
                    "name": "E5",
                    "midi": 76,
                    "time": 286.0906200000016,
                    "velocity": 0.8031496062992126,
                    "duration": 0.4651880000000119
                },
                {
                    "name": "E4",
                    "midi": 64,
                    "time": 286.5558080000016,
                    "velocity": 0.49606299212598426,
                    "duration": 0.4651880000000119
                },
                {
                    "name": "B4",
                    "midi": 71,
                    "time": 286.5558080000016,
                    "velocity": 0.5826771653543307,
                    "duration": 0.4651880000000119
                },
                {
                    "name": "D5",
                    "midi": 74,
                    "time": 286.5558080000016,
                    "velocity": 0.7322834645669292,
                    "duration": 0.4651880000000119
                },
                {
                    "name": "E4",
                    "midi": 64,
                    "time": 287.0209960000016,
                    "velocity": 0.4251968503937008,
                    "duration": 0.4651880000000119
                },
                {
                    "name": "A4",
                    "midi": 69,
                    "time": 287.0209960000016,
                    "velocity": 0.5039370078740157,
                    "duration": 0.4651880000000119
                },
                {
                    "name": "C#5",
                    "midi": 73,
                    "time": 287.0209960000016,
                    "velocity": 0.6299212598425197,
                    "duration": 0.4651880000000119
                },
                {
                    "name": "D#4",
                    "midi": 63,
                    "time": 287.48618400000163,
                    "velocity": 0.36220472440944884,
                    "duration": 2.325940000000003
                },
                {
                    "name": "G#4",
                    "midi": 68,
                    "time": 287.48618400000163,
                    "velocity": 0.36220472440944884,
                    "duration": 1.395563999999979
                },
                {
                    "name": "B4",
                    "midi": 71,
                    "time": 287.48618400000163,
                    "velocity": 0.4566929133858268,
                    "duration": 1.395563999999979
                },
                {
                    "name": "G4",
                    "midi": 67,
                    "time": 288.8817480000016,
                    "velocity": 0.29133858267716534,
                    "duration": 0.9303760000000239
                },
                {
                    "name": "A#4",
                    "midi": 70,
                    "time": 288.8817480000016,
                    "velocity": 0.3700787401574803,
                    "duration": 0.9303760000000239
                }
            ],
            "controlChanges": {
                "7": [
                    {
                        "number": 7,
                        "time": 0,
                        "value": 0.7874015748031497
                    }
                ],
                "10": [
                    {
                        "number": 10,
                        "time": 0,
                        "value": 0.5039370078740157
                    }
                ],
                "91": [
                    {
                        "number": 91,
                        "time": 0,
                        "value": 1
                    },
                    {
                        "number": 91,
                        "time": 0.9303760000000001,
                        "value": 1
                    },
                    {
                        "number": 91,
                        "time": 108.38880399999994,
                        "value": 1
                    },
                    {
                        "number": 91,
                        "time": 119.55331599999994,
                        "value": 1
                    },
                    {
                        "number": 91,
                        "time": 192.12264400000058,
                        "value": 1
                    }
                ]
            },
            "id": 1,
            "name": "Piano right",
            "instrumentNumber": 0,
            "instrument": "acoustic grand piano",
            "instrumentFamily": "piano",
            "channelNumber": 0,
            "isPercussion": false
        },
        {
            "startTime": 0.9303760000000001,
            "duration": 299.58107200000063,
            "length": 900,
            "notes": [
                {
                    "name": "G#3",
                    "midi": 56,
                    "time": 0.9303760000000001,
                    "velocity": 0.31496062992125984,
                    "duration": 0.46518800000000016
                },
                {
                    "name": "C#4",
                    "midi": 61,
                    "time": 1.3955640000000002,
                    "velocity": 0.33070866141732286,
                    "duration": 1.8607519999999997
                },
                {
                    "name": "F4",
                    "midi": 65,
                    "time": 3.721504,
                    "velocity": 0.3543307086614173,
                    "duration": 0.46518799999999993
                },
                {
                    "name": "C#4",
                    "midi": 61,
                    "time": 3.721504,
                    "velocity": 0.31496062992125984,
                    "duration": 0.46518799999999993
                },
                {
                    "name": "C4",
                    "midi": 60,
                    "time": 4.186692,
                    "velocity": 0.31496062992125984,
                    "duration": 1.8607519999999997
                },
                {
                    "name": "F4",
                    "midi": 65,
                    "time": 4.186692,
                    "velocity": 0.3543307086614173,
                    "duration": 1.3955640000000002
                },
                {
                    "name": "D#4",
                    "midi": 63,
                    "time": 5.582256,
                    "velocity": 0.33858267716535434,
                    "duration": 0.4651879999999995
                },
                {
                    "name": "G#3",
                    "midi": 56,
                    "time": 6.280037999999999,
                    "velocity": 0.33070866141732286,
                    "duration": 0.23259399999999975
                },
                {
                    "name": "D#3",
                    "midi": 51,
                    "time": 6.512631999999999,
                    "velocity": 0.3464566929133858,
                    "duration": 0.23259399999999975
                },
                {
                    "name": "C3",
                    "midi": 48,
                    "time": 6.745225999999999,
                    "velocity": 0.3543307086614173,
                    "duration": 0.23259399999999975
                },
                {
                    "name": "A#2",
                    "midi": 46,
                    "time": 6.977819999999999,
                    "velocity": 0.29133858267716534,
                    "duration": 0.9303760000000008
                },
                {
                    "name": "G3",
                    "midi": 55,
                    "time": 6.977819999999999,
                    "velocity": 0.33070866141732286,
                    "duration": 0.9303760000000008
                },
                {
                    "name": "D#3",
                    "midi": 51,
                    "time": 6.977819999999999,
                    "velocity": 0.29133858267716534,
                    "duration": 0.9303760000000008
                },
                {
                    "name": "G#2",
                    "midi": 44,
                    "time": 7.908195999999999,
                    "velocity": 0.31496062992125984,
                    "duration": 0.4651880000000004
                },
                {
                    "name": "G#3",
                    "midi": 56,
                    "time": 7.908195999999999,
                    "velocity": 0.3543307086614173,
                    "duration": 0.4651880000000004
                },
                {
                    "name": "D#3",
                    "midi": 51,
                    "time": 7.908195999999999,
                    "velocity": 0.31496062992125984,
                    "duration": 0.4651880000000004
                },
                {
                    "name": "G2",
                    "midi": 43,
                    "time": 8.373384,
                    "velocity": 0.3228346456692913,
                    "duration": 0.9303760000000008
                },
                {
                    "name": "D#3",
                    "midi": 51,
                    "time": 8.373384,
                    "velocity": 0.3228346456692913,
                    "duration": 0.9303760000000008
                },
                {
                    "name": "G3",
                    "midi": 55,
                    "time": 8.373384,
                    "velocity": 0.36220472440944884,
                    "duration": 0.9303760000000008
                },
                {
                    "name": "F2",
                    "midi": 41,
                    "time": 9.30376,
                    "velocity": 0.33858267716535434,
                    "duration": 0.4651879999999995
                },
                {
                    "name": "A#2",
                    "midi": 46,
                    "time": 9.30376,
                    "velocity": 0.33858267716535434,
                    "duration": 0.4651879999999995
                },
                {
                    "name": "F3",
                    "midi": 53,
                    "time": 9.30376,
                    "velocity": 0.3779527559055118,
                    "duration": 0.4651879999999995
                },
                {
                    "name": "A#2",
                    "midi": 46,
                    "time": 9.768948,
                    "velocity": 0.3543307086614173,
                    "duration": 1.8607519999999997
                },
                {
                    "name": "D#3",
                    "midi": 51,
                    "time": 9.768948,
                    "velocity": 0.4015748031496063,
                    "duration": 1.8607519999999997
                },
                {
                    "name": "D#2",
                    "midi": 39,
                    "time": 9.768948,
                    "velocity": 0.3543307086614173,
                    "duration": 1.8607519999999997
                },
                {
                    "name": "G#3",
                    "midi": 56,
                    "time": 12.094888,
                    "velocity": 0.29133858267716534,
                    "duration": 0.4651879999999995
                },
                {
                    "name": "C#4",
                    "midi": 61,
                    "time": 12.560075999999999,
                    "velocity": 0.3228346456692913,
                    "duration": 1.8607519999999997
                },
                {
                    "name": "C#2",
                    "midi": 37,
                    "time": 14.886015999999998,
                    "velocity": 0.31496062992125984,
                    "duration": 0.4651879999999995
                },
                {
                    "name": "C#3",
                    "midi": 49,
                    "time": 14.886015999999998,
                    "velocity": 0.3543307086614173,
                    "duration": 0.4651879999999995
                },
                {
                    "name": "C2",
                    "midi": 36,
                    "time": 15.351203999999997,
                    "velocity": 0.3464566929133858,
                    "duration": 1.8607519999999997
                },
                {
                    "name": "C3",
                    "midi": 48,
                    "time": 15.351203999999997,
                    "velocity": 0.3858267716535433,
                    "duration": 1.8607519999999997
                },
                {
                    "name": "E4",
                    "midi": 64,
                    "time": 17.677144,
                    "velocity": 0.28346456692913385,
                    "duration": 0.46518800000000127
                },
                {
                    "name": "C4",
                    "midi": 60,
                    "time": 17.677144,
                    "velocity": 0.25196850393700787,
                    "duration": 0.46518800000000127
                },
                {
                    "name": "A#3",
                    "midi": 58,
                    "time": 18.142332,
                    "velocity": 0.31496062992125984,
                    "duration": 0.930375999999999
                },
                {
                    "name": "D#4",
                    "midi": 63,
                    "time": 18.142332,
                    "velocity": 0.31496062992125984,
                    "duration": 0.930375999999999
                },
                {
                    "name": "D#4",
                    "midi": 63,
                    "time": 19.072708,
                    "velocity": 0.33070866141732286,
                    "duration": 0.46518800000000127
                },
                {
                    "name": "G#3",
                    "midi": 56,
                    "time": 19.072708,
                    "velocity": 0.33070866141732286,
                    "duration": 0.46518800000000127
                },
                {
                    "name": "C#3",
                    "midi": 49,
                    "time": 19.537896,
                    "velocity": 0.3543307086614173,
                    "duration": 0.930375999999999
                },
                {
                    "name": "D#3",
                    "midi": 51,
                    "time": 20.468272,
                    "velocity": 0.2992125984251969,
                    "duration": 0.46518800000000127
                },
                {
                    "name": "D#3",
                    "midi": 51,
                    "time": 20.93346,
                    "velocity": 0.2440944881889764,
                    "duration": 1.8607520000000015
                },
                {
                    "name": "G#2",
                    "midi": 44,
                    "time": 20.93346,
                    "velocity": 0.2204724409448819,
                    "duration": 1.8607520000000015
                },
                {
                    "name": "E3",
                    "midi": 52,
                    "time": 23.259400000000003,
                    "velocity": 0.1968503937007874,
                    "duration": 0.46518800000000127
                },
                {
                    "name": "G#3",
                    "midi": 56,
                    "time": 23.259400000000003,
                    "velocity": 0.1968503937007874,
                    "duration": 0.46518800000000127
                },
                {
                    "name": "B3",
                    "midi": 59,
                    "time": 23.259400000000003,
                    "velocity": 0.2204724409448819,
                    "duration": 0.46518800000000127
                },
                {
                    "name": "E3",
                    "midi": 52,
                    "time": 23.724588000000004,
                    "velocity": 0.1968503937007874,
                    "duration": 1.3955640000000002
                },
                {
                    "name": "G#3",
                    "midi": 56,
                    "time": 23.724588000000004,
                    "velocity": 0.1968503937007874,
                    "duration": 1.8607520000000015
                },
                {
                    "name": "B3",
                    "midi": 59,
                    "time": 23.724588000000004,
                    "velocity": 0.2204724409448819,
                    "duration": 1.8607520000000015
                },
                {
                    "name": "D#3",
                    "midi": 51,
                    "time": 25.120152000000004,
                    "velocity": 0.1732283464566929,
                    "duration": 0.46518800000000127
                },
                {
                    "name": "C#3",
                    "midi": 49,
                    "time": 26.050528000000007,
                    "velocity": 0.2125984251968504,
                    "duration": 0.46518800000000127
                },
                {
                    "name": "G#3",
                    "midi": 56,
                    "time": 26.050528000000007,
                    "velocity": 0.2125984251968504,
                    "duration": 0.46518800000000127
                },
                {
                    "name": "B3",
                    "midi": 59,
                    "time": 26.050528000000007,
                    "velocity": 0.23622047244094488,
                    "duration": 0.46518800000000127
                },
                {
                    "name": "C#3",
                    "midi": 49,
                    "time": 26.51571600000001,
                    "velocity": 0.2204724409448819,
                    "duration": 1.3955640000000002
                },
                {
                    "name": "G#3",
                    "midi": 56,
                    "time": 26.51571600000001,
                    "velocity": 0.2204724409448819,
                    "duration": 1.860751999999998
                },
                {
                    "name": "B3",
                    "midi": 59,
                    "time": 26.51571600000001,
                    "velocity": 0.25196850393700787,
                    "duration": 1.860751999999998
                },
                {
                    "name": "B2",
                    "midi": 47,
                    "time": 27.91128000000001,
                    "velocity": 0.16535433070866143,
                    "duration": 0.4651879999999977
                },
                {
                    "name": "B2",
                    "midi": 47,
                    "time": 28.841656000000008,
                    "velocity": 0.25984251968503935,
                    "duration": 0.46518800000000127
                },
                {
                    "name": "G#3",
                    "midi": 56,
                    "time": 28.841656000000008,
                    "velocity": 0.2283464566929134,
                    "duration": 0.46518800000000127
                },
                {
                    "name": "B3",
                    "midi": 59,
                    "time": 28.841656000000008,
                    "velocity": 0.25984251968503935,
                    "duration": 0.46518800000000127
                },
                {
                    "name": "C#3",
                    "midi": 49,
                    "time": 29.30684400000001,
                    "velocity": 0.2755905511811024,
                    "duration": 1.3955640000000038
                },
                {
                    "name": "A#3",
                    "midi": 58,
                    "time": 29.30684400000001,
                    "velocity": 0.30708661417322836,
                    "duration": 2.325940000000003
                },
                {
                    "name": "G#3",
                    "midi": 56,
                    "time": 29.30684400000001,
                    "velocity": 0.2755905511811024,
                    "duration": 2.325940000000003
                },
                {
                    "name": "A#2",
                    "midi": 46,
                    "time": 30.702408000000013,
                    "velocity": 0.28346456692913385,
                    "duration": 0.4651879999999977
                },
                {
                    "name": "B2",
                    "midi": 47,
                    "time": 31.16759600000001,
                    "velocity": 0.29133858267716534,
                    "duration": 0.46518800000000127
                },
                {
                    "name": "C#3",
                    "midi": 49,
                    "time": 31.63278400000001,
                    "velocity": 0.2755905511811024,
                    "duration": 0.46518800000000127
                },
                {
                    "name": "D#3",
                    "midi": 51,
                    "time": 32.09797200000001,
                    "velocity": 0.2755905511811024,
                    "duration": 1.860751999999998
                },
                {
                    "name": "E3",
                    "midi": 52,
                    "time": 34.42391200000001,
                    "velocity": 0.1732283464566929,
                    "duration": 0.4651880000000048
                },
                {
                    "name": "G#3",
                    "midi": 56,
                    "time": 34.42391200000001,
                    "velocity": 0.1732283464566929,
                    "duration": 0.4651880000000048
                },
                {
                    "name": "B3",
                    "midi": 59,
                    "time": 34.42391200000001,
                    "velocity": 0.1968503937007874,
                    "duration": 0.4651880000000048
                },
                {
                    "name": "E3",
                    "midi": 52,
                    "time": 34.88910000000001,
                    "velocity": 0.1732283464566929,
                    "duration": 1.3955640000000002
                },
                {
                    "name": "G#3",
                    "midi": 56,
                    "time": 34.88910000000001,
                    "velocity": 0.1732283464566929,
                    "duration": 1.860751999999998
                },
                {
                    "name": "B3",
                    "midi": 59,
                    "time": 34.88910000000001,
                    "velocity": 0.1968503937007874,
                    "duration": 1.860751999999998
                },
                {
                    "name": "D#3",
                    "midi": 51,
                    "time": 36.284664000000014,
                    "velocity": 0.14960629921259844,
                    "duration": 0.4651879999999977
                },
                {
                    "name": "C#3",
                    "midi": 49,
                    "time": 37.21504000000001,
                    "velocity": 0.2204724409448819,
                    "duration": 0.4651880000000048
                },
                {
                    "name": "G#3",
                    "midi": 56,
                    "time": 37.21504000000001,
                    "velocity": 0.2204724409448819,
                    "duration": 0.4651880000000048
                },
                {
                    "name": "B3",
                    "midi": 59,
                    "time": 37.21504000000001,
                    "velocity": 0.25196850393700787,
                    "duration": 0.4651880000000048
                },
                {
                    "name": "C#3",
                    "midi": 49,
                    "time": 37.680228000000014,
                    "velocity": 0.2125984251968504,
                    "duration": 1.3955640000000002
                },
                {
                    "name": "G#3",
                    "midi": 56,
                    "time": 37.680228000000014,
                    "velocity": 0.2125984251968504,
                    "duration": 1.860751999999998
                },
                {
                    "name": "B3",
                    "midi": 59,
                    "time": 37.680228000000014,
                    "velocity": 0.2440944881889764,
                    "duration": 1.860751999999998
                },
                {
                    "name": "B2",
                    "midi": 47,
                    "time": 39.075792000000014,
                    "velocity": 0.14173228346456693,
                    "duration": 0.4651879999999977
                },
                {
                    "name": "E3",
                    "midi": 52,
                    "time": 40.00616800000001,
                    "velocity": 0.2677165354330709,
                    "duration": 0.4651879999999977
                },
                {
                    "name": "B2",
                    "midi": 47,
                    "time": 40.00616800000001,
                    "velocity": 0.2677165354330709,
                    "duration": 0.4651879999999977
                },
                {
                    "name": "G#3",
                    "midi": 56,
                    "time": 40.00616800000001,
                    "velocity": 0.2677165354330709,
                    "duration": 0.4651879999999977
                },
                {
                    "name": "B3",
                    "midi": 59,
                    "time": 40.00616800000001,
                    "velocity": 0.2992125984251969,
                    "duration": 0.4651879999999977
                },
                {
                    "name": "B2",
                    "midi": 47,
                    "time": 40.47135600000001,
                    "velocity": 0.30708661417322836,
                    "duration": 1.3955640000000002
                },
                {
                    "name": "E3",
                    "midi": 52,
                    "time": 40.47135600000001,
                    "velocity": 0.30708661417322836,
                    "duration": 1.3955640000000002
                },
                {
                    "name": "G#3",
                    "midi": 56,
                    "time": 40.47135600000001,
                    "velocity": 0.30708661417322836,
                    "duration": 1.3955640000000002
                },
                {
                    "name": "B3",
                    "midi": 59,
                    "time": 40.47135600000001,
                    "velocity": 0.3464566929133858,
                    "duration": 1.3955640000000002
                },
                {
                    "name": "B2",
                    "midi": 47,
                    "time": 41.86692000000001,
                    "velocity": 0.29133858267716534,
                    "duration": 1.3955640000000002
                },
                {
                    "name": "E3",
                    "midi": 52,
                    "time": 41.86692000000001,
                    "velocity": 0.29133858267716534,
                    "duration": 1.3955640000000002
                },
                {
                    "name": "G#3",
                    "midi": 56,
                    "time": 41.86692000000001,
                    "velocity": 0.29133858267716534,
                    "duration": 1.3955640000000002
                },
                {
                    "name": "B3",
                    "midi": 59,
                    "time": 41.86692000000001,
                    "velocity": 0.33070866141732286,
                    "duration": 1.3955640000000002
                },
                {
                    "name": "B2",
                    "midi": 47,
                    "time": 43.26248400000001,
                    "velocity": 0.2755905511811024,
                    "duration": 1.3955640000000002
                },
                {
                    "name": "F3",
                    "midi": 53,
                    "time": 43.26248400000001,
                    "velocity": 0.2755905511811024,
                    "duration": 1.3955640000000002
                },
                {
                    "name": "G#3",
                    "midi": 56,
                    "time": 43.26248400000001,
                    "velocity": 0.30708661417322836,
                    "duration": 1.3955640000000002
                },
                {
                    "name": "B2",
                    "midi": 47,
                    "time": 44.65804800000001,
                    "velocity": 0.2992125984251969,
                    "duration": 1.3955639999999931
                },
                {
                    "name": "F#3",
                    "midi": 54,
                    "time": 44.65804800000001,
                    "velocity": 0.2992125984251969,
                    "duration": 0.4651879999999977
                },
                {
                    "name": "A3",
                    "midi": 57,
                    "time": 44.65804800000001,
                    "velocity": 0.33858267716535434,
                    "duration": 0.4651879999999977
                },
                {
                    "name": "G#3",
                    "midi": 56,
                    "time": 45.123236000000006,
                    "velocity": 0.2992125984251969,
                    "duration": 0.4651879999999977
                },
                {
                    "name": "B3",
                    "midi": 59,
                    "time": 45.123236000000006,
                    "velocity": 0.33858267716535434,
                    "duration": 0.4651879999999977
                },
                {
                    "name": "A3",
                    "midi": 57,
                    "time": 45.588424,
                    "velocity": 0.2992125984251969,
                    "duration": 0.4651879999999977
                },
                {
                    "name": "B3",
                    "midi": 59,
                    "time": 45.588424,
                    "velocity": 0.33858267716535434,
                    "duration": 0.4651879999999977
                },
                {
                    "name": "E2",
                    "midi": 40,
                    "time": 46.053612,
                    "velocity": 0.3228346456692913,
                    "duration": 1.3955640000000002
                },
                {
                    "name": "B2",
                    "midi": 47,
                    "time": 46.053612,
                    "velocity": 0.3228346456692913,
                    "duration": 1.3955640000000002
                },
                {
                    "name": "E3",
                    "midi": 52,
                    "time": 46.053612,
                    "velocity": 0.36220472440944884,
                    "duration": 1.3955640000000002
                },
                {
                    "name": "E2",
                    "midi": 40,
                    "time": 47.449176,
                    "velocity": 0.36220472440944884,
                    "duration": 1.395563999999986
                },
                {
                    "name": "E2",
                    "midi": 40,
                    "time": 48.84473999999999,
                    "velocity": 0.25984251968503935,
                    "duration": 1.3955640000000074
                },
                {
                    "name": "A2",
                    "midi": 45,
                    "time": 48.84473999999999,
                    "velocity": 0.29133858267716534,
                    "duration": 0.6977820000000037
                },
                {
                    "name": "B2",
                    "midi": 47,
                    "time": 49.54252199999999,
                    "velocity": 0.2755905511811024,
                    "duration": 0.23259399999999886
                },
                {
                    "name": "C3",
                    "midi": 48,
                    "time": 49.77511599999999,
                    "velocity": 0.25984251968503935,
                    "duration": 0.4651880000000048
                },
                {
                    "name": "B2",
                    "midi": 47,
                    "time": 50.240303999999995,
                    "velocity": 0.2125984251968504,
                    "duration": 1.3955640000000074
                },
                {
                    "name": "E2",
                    "midi": 40,
                    "time": 50.240303999999995,
                    "velocity": 0.1889763779527559,
                    "duration": 1.3955640000000074
                },
                {
                    "name": "E2",
                    "midi": 40,
                    "time": 51.635868,
                    "velocity": 0.36220472440944884,
                    "duration": 1.3955640000000074
                },
                {
                    "name": "E2",
                    "midi": 40,
                    "time": 53.03143200000001,
                    "velocity": 0.2440944881889764,
                    "duration": 1.3955640000000002
                },
                {
                    "name": "A2",
                    "midi": 45,
                    "time": 53.03143200000001,
                    "velocity": 0.2755905511811024,
                    "duration": 0.6977819999999966
                },
                {
                    "name": "B2",
                    "midi": 47,
                    "time": 53.729214000000006,
                    "velocity": 0.25196850393700787,
                    "duration": 0.23259399999999886
                },
                {
                    "name": "C3",
                    "midi": 48,
                    "time": 53.961808000000005,
                    "velocity": 0.2283464566929134,
                    "duration": 0.4651880000000048
                },
                {
                    "name": "B2",
                    "midi": 47,
                    "time": 54.42699600000001,
                    "velocity": 0.2047244094488189,
                    "duration": 1.3955640000000002
                },
                {
                    "name": "E2",
                    "midi": 40,
                    "time": 54.42699600000001,
                    "velocity": 0.18110236220472442,
                    "duration": 1.3955640000000002
                },
                {
                    "name": "E3",
                    "midi": 52,
                    "time": 55.82256000000001,
                    "velocity": 0.2204724409448819,
                    "duration": 0.9303759999999954
                },
                {
                    "name": "B3",
                    "midi": 59,
                    "time": 55.82256000000001,
                    "velocity": 0.25196850393700787,
                    "duration": 0.9303759999999954
                },
                {
                    "name": "E3",
                    "midi": 52,
                    "time": 56.752936000000005,
                    "velocity": 0.18110236220472442,
                    "duration": 0.4651879999999977
                },
                {
                    "name": "B3",
                    "midi": 59,
                    "time": 56.752936000000005,
                    "velocity": 0.2047244094488189,
                    "duration": 0.4651879999999977
                },
                {
                    "name": "E3",
                    "midi": 52,
                    "time": 57.218124,
                    "velocity": 0.2204724409448819,
                    "duration": 0.9303760000000025
                },
                {
                    "name": "B3",
                    "midi": 59,
                    "time": 57.218124,
                    "velocity": 0.25196850393700787,
                    "duration": 0.9303760000000025
                },
                {
                    "name": "E3",
                    "midi": 52,
                    "time": 58.148500000000006,
                    "velocity": 0.1732283464566929,
                    "duration": 0.4651879999999977
                },
                {
                    "name": "G#3",
                    "midi": 56,
                    "time": 58.148500000000006,
                    "velocity": 0.1968503937007874,
                    "duration": 0.4651879999999977
                },
                {
                    "name": "D#3",
                    "midi": 51,
                    "time": 58.613688,
                    "velocity": 0.2204724409448819,
                    "duration": 2.325940000000003
                },
                {
                    "name": "A#3",
                    "midi": 58,
                    "time": 58.613688,
                    "velocity": 0.25196850393700787,
                    "duration": 2.325940000000003
                },
                {
                    "name": "D#3",
                    "midi": 51,
                    "time": 61.404816000000004,
                    "velocity": 0.2204724409448819,
                    "duration": 0.9303759999999954
                },
                {
                    "name": "F3",
                    "midi": 53,
                    "time": 61.404816000000004,
                    "velocity": 0.2204724409448819,
                    "duration": 0.9303759999999954
                },
                {
                    "name": "G#3",
                    "midi": 56,
                    "time": 61.404816000000004,
                    "velocity": 0.2204724409448819,
                    "duration": 0.9303759999999954
                },
                {
                    "name": "C#4",
                    "midi": 61,
                    "time": 61.404816000000004,
                    "velocity": 0.25196850393700787,
                    "duration": 0.9303759999999954
                },
                {
                    "name": "D#3",
                    "midi": 51,
                    "time": 62.335192,
                    "velocity": 0.2204724409448819,
                    "duration": 0.4651879999999977
                },
                {
                    "name": "F3",
                    "midi": 53,
                    "time": 62.335192,
                    "velocity": 0.2204724409448819,
                    "duration": 0.4651879999999977
                },
                {
                    "name": "G#3",
                    "midi": 56,
                    "time": 62.335192,
                    "velocity": 0.2204724409448819,
                    "duration": 0.4651879999999977
                },
                {
                    "name": "C#4",
                    "midi": 61,
                    "time": 62.335192,
                    "velocity": 0.25196850393700787,
                    "duration": 0.4651879999999977
                },
                {
                    "name": "C#4",
                    "midi": 61,
                    "time": 62.80038,
                    "velocity": 0.28346456692913385,
                    "duration": 0.9303759999999954
                },
                {
                    "name": "A#3",
                    "midi": 58,
                    "time": 62.80038,
                    "velocity": 0.25196850393700787,
                    "duration": 0.9303759999999954
                },
                {
                    "name": "G3",
                    "midi": 55,
                    "time": 62.80038,
                    "velocity": 0.25196850393700787,
                    "duration": 0.9303759999999954
                },
                {
                    "name": "D#3",
                    "midi": 51,
                    "time": 62.80038,
                    "velocity": 0.25196850393700787,
                    "duration": 0.9303759999999954
                },
                {
                    "name": "D#4",
                    "midi": 63,
                    "time": 63.73075599999999,
                    "velocity": 0.2440944881889764,
                    "duration": 0.4651880000000048
                },
                {
                    "name": "D#3",
                    "midi": 51,
                    "time": 63.73075599999999,
                    "velocity": 0.2125984251968504,
                    "duration": 0.4651880000000048
                },
                {
                    "name": "D#4",
                    "midi": 63,
                    "time": 64.195944,
                    "velocity": 0.25984251968503935,
                    "duration": 1.860752000000005
                },
                {
                    "name": "G#3",
                    "midi": 56,
                    "time": 64.195944,
                    "velocity": 0.2283464566929134,
                    "duration": 1.860752000000005
                },
                {
                    "name": "G#3",
                    "midi": 56,
                    "time": 66.521884,
                    "velocity": 0.4015748031496063,
                    "duration": 0.4651880000000119
                },
                {
                    "name": "C4",
                    "midi": 60,
                    "time": 66.521884,
                    "velocity": 0.4015748031496063,
                    "duration": 0.4651880000000119
                },
                {
                    "name": "F4",
                    "midi": 65,
                    "time": 66.521884,
                    "velocity": 0.44881889763779526,
                    "duration": 0.4651880000000119
                },
                {
                    "name": "G#3",
                    "midi": 56,
                    "time": 66.98707200000001,
                    "velocity": 0.4015748031496063,
                    "duration": 0.9303759999999954
                },
                {
                    "name": "C4",
                    "midi": 60,
                    "time": 66.98707200000001,
                    "velocity": 0.4015748031496063,
                    "duration": 0.9303759999999954
                },
                {
                    "name": "F4",
                    "midi": 65,
                    "time": 66.98707200000001,
                    "velocity": 0.44881889763779526,
                    "duration": 0.9303759999999954
                },
                {
                    "name": "G#3",
                    "midi": 56,
                    "time": 67.91744800000001,
                    "velocity": 0.4015748031496063,
                    "duration": 0.4651879999999977
                },
                {
                    "name": "C4",
                    "midi": 60,
                    "time": 67.91744800000001,
                    "velocity": 0.4015748031496063,
                    "duration": 0.4651879999999977
                },
                {
                    "name": "F4",
                    "midi": 65,
                    "time": 67.91744800000001,
                    "velocity": 0.44881889763779526,
                    "duration": 0.4651879999999977
                },
                {
                    "name": "G#3",
                    "midi": 56,
                    "time": 68.382636,
                    "velocity": 0.4251968503937008,
                    "duration": 0.9303759999999954
                },
                {
                    "name": "C4",
                    "midi": 60,
                    "time": 68.382636,
                    "velocity": 0.48031496062992124,
                    "duration": 0.9303759999999954
                },
                {
                    "name": "G#3",
                    "midi": 56,
                    "time": 69.313012,
                    "velocity": 0.3779527559055118,
                    "duration": 0.4651879999999977
                },
                {
                    "name": "C4",
                    "midi": 60,
                    "time": 69.313012,
                    "velocity": 0.4251968503937008,
                    "duration": 0.4651879999999977
                },
                {
                    "name": "F4",
                    "midi": 65,
                    "time": 69.7782,
                    "velocity": 0.44881889763779526,
                    "duration": 2.325940000000003
                },
                {
                    "name": "C#4",
                    "midi": 61,
                    "time": 69.7782,
                    "velocity": 0.4015748031496063,
                    "duration": 2.7911280000000005
                },
                {
                    "name": "A#3",
                    "midi": 58,
                    "time": 69.7782,
                    "velocity": 0.4015748031496063,
                    "duration": 2.7911280000000005
                },
                {
                    "name": "G3",
                    "midi": 55,
                    "time": 69.7782,
                    "velocity": 0.4015748031496063,
                    "duration": 2.7911280000000005
                },
                {
                    "name": "E4",
                    "midi": 64,
                    "time": 72.10414,
                    "velocity": 0.3464566929133858,
                    "duration": 0.4651879999999977
                },
                {
                    "name": "D#4",
                    "midi": 63,
                    "time": 72.569328,
                    "velocity": 0.28346456692913385,
                    "duration": 2.325940000000003
                },
                {
                    "name": "G3",
                    "midi": 55,
                    "time": 72.569328,
                    "velocity": 0.25196850393700787,
                    "duration": 2.325940000000003
                },
                {
                    "name": "G#3",
                    "midi": 56,
                    "time": 74.895268,
                    "velocity": 0.25196850393700787,
                    "duration": 0.4651880000000119
                },
                {
                    "name": "C#4",
                    "midi": 61,
                    "time": 75.36045600000001,
                    "velocity": 0.25984251968503935,
                    "duration": 1.860752000000005
                },
                {
                    "name": "F4",
                    "midi": 65,
                    "time": 77.68639600000002,
                    "velocity": 0.28346456692913385,
                    "duration": 0.4651879999999977
                },
                {
                    "name": "C#4",
                    "midi": 61,
                    "time": 77.68639600000002,
                    "velocity": 0.25196850393700787,
                    "duration": 0.4651879999999977
                },
                {
                    "name": "F4",
                    "midi": 65,
                    "time": 78.15158400000001,
                    "velocity": 0.28346456692913385,
                    "duration": 1.3955640000000074
                },
                {
                    "name": "C4",
                    "midi": 60,
                    "time": 78.15158400000001,
                    "velocity": 0.25196850393700787,
                    "duration": 1.8607520000000193
                },
                {
                    "name": "D#4",
                    "midi": 63,
                    "time": 79.54714800000002,
                    "velocity": 0.2677165354330709,
                    "duration": 0.4651880000000119
                },
                {
                    "name": "G#3",
                    "midi": 56,
                    "time": 80.24493000000002,
                    "velocity": 0.29133858267716534,
                    "duration": 0.6977820000000179
                },
                {
                    "name": "D#3",
                    "midi": 51,
                    "time": 80.47752400000003,
                    "velocity": 0.30708661417322836,
                    "duration": 0.23259400000000596
                },
                {
                    "name": "C3",
                    "midi": 48,
                    "time": 80.71011800000004,
                    "velocity": 0.31496062992125984,
                    "duration": 0.23259400000000596
                },
                {
                    "name": "A#2",
                    "midi": 46,
                    "time": 80.94271200000004,
                    "velocity": 0.25984251968503935,
                    "duration": 0.9303759999999954
                },
                {
                    "name": "D#3",
                    "midi": 51,
                    "time": 80.94271200000004,
                    "velocity": 0.25984251968503935,
                    "duration": 0.9303759999999954
                },
                {
                    "name": "G3",
                    "midi": 55,
                    "time": 80.94271200000004,
                    "velocity": 0.29133858267716534,
                    "duration": 0.9303759999999954
                },
                {
                    "name": "G#2",
                    "midi": 44,
                    "time": 81.87308800000004,
                    "velocity": 0.28346456692913385,
                    "duration": 0.4651879999999977
                },
                {
                    "name": "D#3",
                    "midi": 51,
                    "time": 81.87308800000004,
                    "velocity": 0.28346456692913385,
                    "duration": 0.4651879999999977
                },
                {
                    "name": "G#3",
                    "midi": 56,
                    "time": 81.87308800000004,
                    "velocity": 0.31496062992125984,
                    "duration": 0.4651879999999977
                },
                {
                    "name": "G2",
                    "midi": 43,
                    "time": 82.33827600000004,
                    "velocity": 0.28346456692913385,
                    "duration": 0.9303760000000096
                },
                {
                    "name": "D#3",
                    "midi": 51,
                    "time": 82.33827600000004,
                    "velocity": 0.28346456692913385,
                    "duration": 0.9303760000000096
                },
                {
                    "name": "G3",
                    "midi": 55,
                    "time": 82.33827600000004,
                    "velocity": 0.3228346456692913,
                    "duration": 0.9303760000000096
                },
                {
                    "name": "F2",
                    "midi": 41,
                    "time": 83.26865200000005,
                    "velocity": 0.31496062992125984,
                    "duration": 0.4651879999999977
                },
                {
                    "name": "A#2",
                    "midi": 46,
                    "time": 83.26865200000005,
                    "velocity": 0.31496062992125984,
                    "duration": 0.4651879999999977
                },
                {
                    "name": "F3",
                    "midi": 53,
                    "time": 83.26865200000005,
                    "velocity": 0.3543307086614173,
                    "duration": 0.4651879999999977
                },
                {
                    "name": "D#2",
                    "midi": 39,
                    "time": 83.73384000000004,
                    "velocity": 0.33858267716535434,
                    "duration": 1.8607519999999909
                },
                {
                    "name": "A#2",
                    "midi": 46,
                    "time": 83.73384000000004,
                    "velocity": 0.33858267716535434,
                    "duration": 1.8607519999999909
                },
                {
                    "name": "D#3",
                    "midi": 51,
                    "time": 83.73384000000004,
                    "velocity": 0.3779527559055118,
                    "duration": 1.8607519999999909
                },
                {
                    "name": "G#1",
                    "midi": 32,
                    "time": 86.05978000000003,
                    "velocity": 0.3543307086614173,
                    "duration": 0.4651880000000119
                },
                {
                    "name": "G#2",
                    "midi": 44,
                    "time": 86.05978000000003,
                    "velocity": 0.3937007874015748,
                    "duration": 0.4651880000000119
                },
                {
                    "name": "C#2",
                    "midi": 37,
                    "time": 86.52496800000004,
                    "velocity": 0.4015748031496063,
                    "duration": 1.8607519999999909
                },
                {
                    "name": "C#3",
                    "midi": 49,
                    "time": 86.52496800000004,
                    "velocity": 0.44881889763779526,
                    "duration": 1.8607519999999909
                },
                {
                    "name": "G#1",
                    "midi": 32,
                    "time": 88.85090800000003,
                    "velocity": 0.3543307086614173,
                    "duration": 0.4651880000000119
                },
                {
                    "name": "G#2",
                    "midi": 44,
                    "time": 88.85090800000003,
                    "velocity": 0.3937007874015748,
                    "duration": 0.4651880000000119
                },
                {
                    "name": "C#2",
                    "midi": 37,
                    "time": 89.31609600000004,
                    "velocity": 0.4015748031496063,
                    "duration": 1.860752000000005
                },
                {
                    "name": "C#3",
                    "midi": 49,
                    "time": 89.31609600000004,
                    "velocity": 0.44881889763779526,
                    "duration": 1.860752000000005
                },
                {
                    "name": "D2",
                    "midi": 38,
                    "time": 91.64203600000005,
                    "velocity": 0.4330708661417323,
                    "duration": 0.9216537249999988
                },
                {
                    "name": "D3",
                    "midi": 50,
                    "time": 91.64203600000005,
                    "velocity": 0.4881889763779528,
                    "duration": 0.9216537249999988
                },
                {
                    "name": "D2",
                    "midi": 38,
                    "time": 92.57241200000004,
                    "velocity": 0.4409448818897638,
                    "duration": 0.4419285999999971
                },
                {
                    "name": "D3",
                    "midi": 50,
                    "time": 92.57241200000004,
                    "velocity": 0.49606299212598426,
                    "duration": 0.4419285999999971
                },
                {
                    "name": "D2",
                    "midi": 38,
                    "time": 93.03760000000004,
                    "velocity": 0.4409448818897638,
                    "duration": 0.4419285999999971
                },
                {
                    "name": "D3",
                    "midi": 50,
                    "time": 93.03760000000004,
                    "velocity": 0.49606299212598426,
                    "duration": 0.4419285999999971
                },
                {
                    "name": "D2",
                    "midi": 38,
                    "time": 93.50278800000004,
                    "velocity": 0.4251968503937008,
                    "duration": 0.4419285999999971
                },
                {
                    "name": "D3",
                    "midi": 50,
                    "time": 93.50278800000004,
                    "velocity": 0.48031496062992124,
                    "duration": 0.4419285999999971
                },
                {
                    "name": "C#2",
                    "midi": 37,
                    "time": 93.96797600000004,
                    "velocity": 0.47244094488188976,
                    "duration": 0.4651879999999977
                },
                {
                    "name": "C#3",
                    "midi": 49,
                    "time": 93.96797600000004,
                    "velocity": 0.5275590551181102,
                    "duration": 0.4651879999999977
                },
                {
                    "name": "B1",
                    "midi": 35,
                    "time": 94.43316400000003,
                    "velocity": 0.49606299212598426,
                    "duration": 0.4651879999999977
                },
                {
                    "name": "B2",
                    "midi": 47,
                    "time": 94.43316400000003,
                    "velocity": 0.5511811023622047,
                    "duration": 0.4651879999999977
                },
                {
                    "name": "A1",
                    "midi": 33,
                    "time": 94.89835200000003,
                    "velocity": 0.48031496062992124,
                    "duration": 0.4651879999999835
                },
                {
                    "name": "A2",
                    "midi": 45,
                    "time": 94.89835200000003,
                    "velocity": 0.5669291338582677,
                    "duration": 0.4651879999999835
                },
                {
                    "name": "B2",
                    "midi": 47,
                    "time": 95.36354000000001,
                    "velocity": 0.5196850393700787,
                    "duration": 0.4651879999999977
                },
                {
                    "name": "B1",
                    "midi": 35,
                    "time": 95.36354000000001,
                    "velocity": 0.4645669291338583,
                    "duration": 0.4651879999999977
                },
                {
                    "name": "C#2",
                    "midi": 37,
                    "time": 95.82872800000001,
                    "velocity": 0.4015748031496063,
                    "duration": 0.4651879999999835
                },
                {
                    "name": "C#3",
                    "midi": 49,
                    "time": 95.82872800000001,
                    "velocity": 0.44881889763779526,
                    "duration": 0.4651879999999835
                },
                {
                    "name": "D#2",
                    "midi": 39,
                    "time": 96.293916,
                    "velocity": 0.2755905511811024,
                    "duration": 2.325940000000003
                },
                {
                    "name": "D#3",
                    "midi": 51,
                    "time": 96.293916,
                    "velocity": 0.30708661417322836,
                    "duration": 2.325940000000003
                },
                {
                    "name": "E3",
                    "midi": 52,
                    "time": 98.619856,
                    "velocity": 0.3779527559055118,
                    "duration": 0.9119623083333295
                },
                {
                    "name": "D3",
                    "midi": 50,
                    "time": 98.619856,
                    "velocity": 0.3779527559055118,
                    "duration": 0.9119623083333295
                },
                {
                    "name": "G#3",
                    "midi": 56,
                    "time": 98.619856,
                    "velocity": 0.3779527559055118,
                    "duration": 0.9119623083333295
                },
                {
                    "name": "B3",
                    "midi": 59,
                    "time": 98.619856,
                    "velocity": 0.47244094488188976,
                    "duration": 0.9119623083333295
                },
                {
                    "name": "D3",
                    "midi": 50,
                    "time": 99.550232,
                    "velocity": 0.2755905511811024,
                    "duration": 0.4419285999999971
                },
                {
                    "name": "E3",
                    "midi": 52,
                    "time": 99.550232,
                    "velocity": 0.2755905511811024,
                    "duration": 0.4419285999999971
                },
                {
                    "name": "G#3",
                    "midi": 56,
                    "time": 99.550232,
                    "velocity": 0.2755905511811024,
                    "duration": 0.4419285999999971
                },
                {
                    "name": "B3",
                    "midi": 59,
                    "time": 99.550232,
                    "velocity": 0.3464566929133858,
                    "duration": 0.4419285999999971
                },
                {
                    "name": "D3",
                    "midi": 50,
                    "time": 100.01541999999999,
                    "velocity": 0.2755905511811024,
                    "duration": 0.4419285999999971
                },
                {
                    "name": "E3",
                    "midi": 52,
                    "time": 100.01541999999999,
                    "velocity": 0.2755905511811024,
                    "duration": 0.4419285999999971
                },
                {
                    "name": "G#3",
                    "midi": 56,
                    "time": 100.01541999999999,
                    "velocity": 0.2755905511811024,
                    "duration": 0.4419285999999971
                },
                {
                    "name": "B3",
                    "midi": 59,
                    "time": 100.01541999999999,
                    "velocity": 0.3464566929133858,
                    "duration": 0.4419285999999971
                },
                {
                    "name": "D3",
                    "midi": 50,
                    "time": 100.48060799999999,
                    "velocity": 0.25196850393700787,
                    "duration": 0.4651879999999977
                },
                {
                    "name": "E3",
                    "midi": 52,
                    "time": 100.48060799999999,
                    "velocity": 0.25196850393700787,
                    "duration": 0.4651879999999977
                },
                {
                    "name": "G#3",
                    "midi": 56,
                    "time": 100.48060799999999,
                    "velocity": 0.25196850393700787,
                    "duration": 0.4651879999999977
                },
                {
                    "name": "B3",
                    "midi": 59,
                    "time": 100.48060799999999,
                    "velocity": 0.3228346456692913,
                    "duration": 0.4651879999999977
                },
                {
                    "name": "C#3",
                    "midi": 49,
                    "time": 100.94579599999999,
                    "velocity": 0.2755905511811024,
                    "duration": 0.4651879999999977
                },
                {
                    "name": "E3",
                    "midi": 52,
                    "time": 100.94579599999999,
                    "velocity": 0.2755905511811024,
                    "duration": 0.4651879999999977
                },
                {
                    "name": "A3",
                    "midi": 57,
                    "time": 100.94579599999999,
                    "velocity": 0.2755905511811024,
                    "duration": 0.4651879999999977
                },
                {
                    "name": "C#4",
                    "midi": 61,
                    "time": 100.94579599999999,
                    "velocity": 0.3464566929133858,
                    "duration": 0.4651879999999977
                },
                {
                    "name": "B2",
                    "midi": 47,
                    "time": 101.41098399999998,
                    "velocity": 0.2755905511811024,
                    "duration": 0.34889099999999473
                },
                {
                    "name": "E3",
                    "midi": 52,
                    "time": 101.41098399999998,
                    "velocity": 0.2755905511811024,
                    "duration": 0.34889099999999473
                },
                {
                    "name": "D4",
                    "midi": 62,
                    "time": 101.41098399999998,
                    "velocity": 0.3464566929133858,
                    "duration": 0.34889099999999473
                },
                {
                    "name": "B3",
                    "midi": 59,
                    "time": 101.41098399999998,
                    "velocity": 0.2755905511811024,
                    "duration": 0.34889099999999473
                },
                {
                    "name": "F#4",
                    "midi": 66,
                    "time": 101.75987499999998,
                    "velocity": 0.3779527559055118,
                    "duration": 0.11629700000000298
                },
                {
                    "name": "A2",
                    "midi": 45,
                    "time": 101.87617199999998,
                    "velocity": 0.28346456692913385,
                    "duration": 0.4651879999999977
                },
                {
                    "name": "E3",
                    "midi": 52,
                    "time": 101.87617199999998,
                    "velocity": 0.28346456692913385,
                    "duration": 0.4651879999999977
                },
                {
                    "name": "C#4",
                    "midi": 61,
                    "time": 101.87617199999998,
                    "velocity": 0.3228346456692913,
                    "duration": 0.4651879999999977
                },
                {
                    "name": "E4",
                    "midi": 64,
                    "time": 101.87617199999998,
                    "velocity": 0.36220472440944884,
                    "duration": 0.4651879999999977
                },
                {
                    "name": "B2",
                    "midi": 47,
                    "time": 102.34135999999998,
                    "velocity": 0.2755905511811024,
                    "duration": 0.4651879999999977
                },
                {
                    "name": "E3",
                    "midi": 52,
                    "time": 102.34135999999998,
                    "velocity": 0.2755905511811024,
                    "duration": 0.4651879999999977
                },
                {
                    "name": "B3",
                    "midi": 59,
                    "time": 102.34135999999998,
                    "velocity": 0.2755905511811024,
                    "duration": 0.4651879999999977
                },
                {
                    "name": "D4",
                    "midi": 62,
                    "time": 102.34135999999998,
                    "velocity": 0.3464566929133858,
                    "duration": 0.4651879999999977
                },
                {
                    "name": "C#3",
                    "midi": 49,
                    "time": 102.80654799999998,
                    "velocity": 0.2440944881889764,
                    "duration": 0.4651879999999835
                },
                {
                    "name": "E3",
                    "midi": 52,
                    "time": 102.80654799999998,
                    "velocity": 0.2440944881889764,
                    "duration": 0.4651879999999835
                },
                {
                    "name": "A3",
                    "midi": 57,
                    "time": 102.80654799999998,
                    "velocity": 0.2440944881889764,
                    "duration": 0.4651879999999835
                },
                {
                    "name": "C#4",
                    "midi": 61,
                    "time": 102.80654799999998,
                    "velocity": 0.30708661417322836,
                    "duration": 0.4651879999999835
                },
                {
                    "name": "D#3",
                    "midi": 51,
                    "time": 103.27173599999996,
                    "velocity": 0.23622047244094488,
                    "duration": 2.7911279999999863
                },
                {
                    "name": "G#3",
                    "midi": 56,
                    "time": 103.27173599999996,
                    "velocity": 0.23622047244094488,
                    "duration": 1.3955639999999931
                },
                {
                    "name": "B3",
                    "midi": 59,
                    "time": 103.27173599999996,
                    "velocity": 0.2677165354330709,
                    "duration": 1.3955639999999931
                },
                {
                    "name": "D#2",
                    "midi": 39,
                    "time": 104.66729999999995,
                    "velocity": 0.1968503937007874,
                    "duration": 1.3955639999999931
                },
                {
                    "name": "G3",
                    "midi": 55,
                    "time": 104.66729999999995,
                    "velocity": 0.1968503937007874,
                    "duration": 1.3955639999999931
                },
                {
                    "name": "A#3",
                    "midi": 58,
                    "time": 104.66729999999995,
                    "velocity": 0.2204724409448819,
                    "duration": 1.3955639999999931
                },
                {
                    "name": "G#1",
                    "midi": 32,
                    "time": 106.06286399999995,
                    "velocity": 0.1968503937007874,
                    "duration": 2.325940000000003
                },
                {
                    "name": "G#2",
                    "midi": 44,
                    "time": 106.06286399999995,
                    "velocity": 0.1968503937007874,
                    "duration": 2.325940000000003
                },
                {
                    "name": "G#3",
                    "midi": 56,
                    "time": 106.06286399999995,
                    "velocity": 0.2204724409448819,
                    "duration": 2.325940000000003
                },
                {
                    "name": "C#2",
                    "midi": 37,
                    "time": 108.38880399999995,
                    "velocity": 0.2125984251968504,
                    "duration": 0.4651879999999977
                },
                {
                    "name": "G#2",
                    "midi": 44,
                    "time": 108.38880399999995,
                    "velocity": 0.2125984251968504,
                    "duration": 0.4651879999999977
                },
                {
                    "name": "C#3",
                    "midi": 49,
                    "time": 108.38880399999995,
                    "velocity": 0.2125984251968504,
                    "duration": 0.4651879999999977
                },
                {
                    "name": "F3",
                    "midi": 53,
                    "time": 108.38880399999995,
                    "velocity": 0.2125984251968504,
                    "duration": 0.4651879999999977
                },
                {
                    "name": "G#3",
                    "midi": 56,
                    "time": 108.38880399999995,
                    "velocity": 0.2677165354330709,
                    "duration": 0.4651879999999977
                },
                {
                    "name": "C#2",
                    "midi": 37,
                    "time": 108.85399199999995,
                    "velocity": 0.2125984251968504,
                    "duration": 1.3955640000000074
                },
                {
                    "name": "G#2",
                    "midi": 44,
                    "time": 108.85399199999995,
                    "velocity": 0.2125984251968504,
                    "duration": 1.3955640000000074
                },
                {
                    "name": "C#3",
                    "midi": 49,
                    "time": 108.85399199999995,
                    "velocity": 0.2125984251968504,
                    "duration": 1.3955640000000074
                },
                {
                    "name": "F3",
                    "midi": 53,
                    "time": 108.85399199999995,
                    "velocity": 0.2125984251968504,
                    "duration": 1.3955640000000074
                },
                {
                    "name": "G#3",
                    "midi": 56,
                    "time": 108.85399199999995,
                    "velocity": 0.2677165354330709,
                    "duration": 1.3955640000000074
                },
                {
                    "name": "D#2",
                    "midi": 39,
                    "time": 110.24955599999996,
                    "velocity": 0.2125984251968504,
                    "duration": 1.3955639999999931
                },
                {
                    "name": "G#2",
                    "midi": 44,
                    "time": 110.24955599999996,
                    "velocity": 0.23622047244094488,
                    "duration": 1.3955639999999931
                },
                {
                    "name": "C3",
                    "midi": 48,
                    "time": 110.24955599999996,
                    "velocity": 0.2125984251968504,
                    "duration": 1.3955639999999931
                },
                {
                    "name": "G#3",
                    "midi": 56,
                    "time": 110.24955599999996,
                    "velocity": 0.2677165354330709,
                    "duration": 1.3955639999999931
                },
                {
                    "name": "F#3",
                    "midi": 54,
                    "time": 110.24955599999996,
                    "velocity": 0.2125984251968504,
                    "duration": 1.3955639999999931
                },
                {
                    "name": "F2",
                    "midi": 41,
                    "time": 111.64511999999995,
                    "velocity": 0.2125984251968504,
                    "duration": 0.34889099999999473
                },
                {
                    "name": "G#2",
                    "midi": 44,
                    "time": 111.64511999999995,
                    "velocity": 0.2125984251968504,
                    "duration": 0.34889099999999473
                },
                {
                    "name": "C#3",
                    "midi": 49,
                    "time": 111.64511999999995,
                    "velocity": 0.23622047244094488,
                    "duration": 0.34889099999999473
                },
                {
                    "name": "C#4",
                    "midi": 61,
                    "time": 111.64511999999995,
                    "velocity": 0.2677165354330709,
                    "duration": 0.34889099999999473
                },
                {
                    "name": "F3",
                    "midi": 53,
                    "time": 111.64511999999995,
                    "velocity": 0.23622047244094488,
                    "duration": 0.34889099999999473
                },
                {
                    "name": "G#3",
                    "midi": 56,
                    "time": 111.64511999999995,
                    "velocity": 0.23622047244094488,
                    "duration": 0.34889099999999473
                },
                {
                    "name": "F#2",
                    "midi": 42,
                    "time": 112.11030799999995,
                    "velocity": 0.2204724409448819,
                    "duration": 0.34889099999999473
                },
                {
                    "name": "A#2",
                    "midi": 46,
                    "time": 112.11030799999995,
                    "velocity": 0.2204724409448819,
                    "duration": 0.34889099999999473
                },
                {
                    "name": "C#3",
                    "midi": 49,
                    "time": 112.11030799999995,
                    "velocity": 0.2204724409448819,
                    "duration": 0.34889099999999473
                },
                {
                    "name": "C#4",
                    "midi": 61,
                    "time": 112.11030799999995,
                    "velocity": 0.28346456692913385,
                    "duration": 0.34889099999999473
                },
                {
                    "name": "A#3",
                    "midi": 58,
                    "time": 112.11030799999995,
                    "velocity": 0.2204724409448819,
                    "duration": 0.34889099999999473
                },
                {
                    "name": "F#3",
                    "midi": 54,
                    "time": 112.11030799999995,
                    "velocity": 0.2204724409448819,
                    "duration": 0.34889099999999473
                },
                {
                    "name": "G2",
                    "midi": 43,
                    "time": 112.57549599999994,
                    "velocity": 0.23622047244094488,
                    "duration": 0.34889099999999473
                },
                {
                    "name": "A#2",
                    "midi": 46,
                    "time": 112.57549599999994,
                    "velocity": 0.23622047244094488,
                    "duration": 0.34889099999999473
                },
                {
                    "name": "C#3",
                    "midi": 49,
                    "time": 112.57549599999994,
                    "velocity": 0.23622047244094488,
                    "duration": 0.4651879999999977
                },
                {
                    "name": "D#4",
                    "midi": 63,
                    "time": 112.57549599999994,
                    "velocity": 0.2992125984251969,
                    "duration": 0.34889099999999473
                },
                {
                    "name": "C#4",
                    "midi": 61,
                    "time": 112.57549599999994,
                    "velocity": 0.2677165354330709,
                    "duration": 0.34889099999999473
                },
                {
                    "name": "A#3",
                    "midi": 58,
                    "time": 112.57549599999994,
                    "velocity": 0.23622047244094488,
                    "duration": 0.34889099999999473
                },
                {
                    "name": "D#3",
                    "midi": 51,
                    "time": 112.57549599999994,
                    "velocity": 0.23622047244094488,
                    "duration": 0.34889099999999473
                },
                {
                    "name": "G#2",
                    "midi": 44,
                    "time": 113.04068399999994,
                    "velocity": 0.2440944881889764,
                    "duration": 0.9303759999999954
                },
                {
                    "name": "C3",
                    "midi": 48,
                    "time": 113.04068399999994,
                    "velocity": 0.2440944881889764,
                    "duration": 0.9303759999999954
                },
                {
                    "name": "D#3",
                    "midi": 51,
                    "time": 113.04068399999994,
                    "velocity": 0.2440944881889764,
                    "duration": 0.9303759999999954
                },
                {
                    "name": "G#3",
                    "midi": 56,
                    "time": 113.04068399999994,
                    "velocity": 0.2755905511811024,
                    "duration": 0.9303759999999954
                },
                {
                    "name": "F2",
                    "midi": 41,
                    "time": 113.97105999999994,
                    "velocity": 0.2283464566929134,
                    "duration": 0.4419285999999971
                },
                {
                    "name": "C#3",
                    "midi": 49,
                    "time": 113.97105999999994,
                    "velocity": 0.2283464566929134,
                    "duration": 0.4419285999999971
                },
                {
                    "name": "F3",
                    "midi": 53,
                    "time": 113.97105999999994,
                    "velocity": 0.25984251968503935,
                    "duration": 0.4419285999999971
                },
                {
                    "name": "F2",
                    "midi": 41,
                    "time": 114.43624799999994,
                    "velocity": 0.2283464566929134,
                    "duration": 0.9303759999999954
                },
                {
                    "name": "C#3",
                    "midi": 49,
                    "time": 114.43624799999994,
                    "velocity": 0.2283464566929134,
                    "duration": 0.9303759999999954
                },
                {
                    "name": "F3",
                    "midi": 53,
                    "time": 114.43624799999994,
                    "velocity": 0.25984251968503935,
                    "duration": 0.9303759999999954
                },
                {
                    "name": "F#2",
                    "midi": 42,
                    "time": 115.36662399999993,
                    "velocity": 0.25196850393700787,
                    "duration": 0.23259400000000596
                },
                {
                    "name": "F#3",
                    "midi": 54,
                    "time": 115.36662399999993,
                    "velocity": 0.28346456692913385,
                    "duration": 0.23259400000000596
                },
                {
                    "name": "C#3",
                    "midi": 49,
                    "time": 115.36662399999993,
                    "velocity": 0.25196850393700787,
                    "duration": 0.4651880000000119
                },
                {
                    "name": "F2",
                    "midi": 41,
                    "time": 115.59921799999994,
                    "velocity": 0.2204724409448819,
                    "duration": 0.23259400000000596
                },
                {
                    "name": "F3",
                    "midi": 53,
                    "time": 115.59921799999994,
                    "velocity": 0.25196850393700787,
                    "duration": 0.23259400000000596
                },
                {
                    "name": "F2",
                    "midi": 41,
                    "time": 115.83181199999994,
                    "velocity": 0.2204724409448819,
                    "duration": 0.4651880000000119
                },
                {
                    "name": "C#3",
                    "midi": 49,
                    "time": 115.83181199999994,
                    "velocity": 0.2204724409448819,
                    "duration": 0.4651880000000119
                },
                {
                    "name": "F3",
                    "midi": 53,
                    "time": 115.83181199999994,
                    "velocity": 0.25196850393700787,
                    "duration": 0.4651880000000119
                },
                {
                    "name": "A#2",
                    "midi": 46,
                    "time": 116.29699999999995,
                    "velocity": 0.2755905511811024,
                    "duration": 0.4651879999999977
                },
                {
                    "name": "A#3",
                    "midi": 58,
                    "time": 116.29699999999995,
                    "velocity": 0.30708661417322836,
                    "duration": 0.4651879999999977
                },
                {
                    "name": "F#2",
                    "midi": 42,
                    "time": 116.76218799999995,
                    "velocity": 0.25196850393700787,
                    "duration": 0.4651879999999977
                },
                {
                    "name": "F#3",
                    "midi": 54,
                    "time": 116.76218799999995,
                    "velocity": 0.28346456692913385,
                    "duration": 0.4651879999999977
                },
                {
                    "name": "D#2",
                    "midi": 39,
                    "time": 117.22737599999995,
                    "velocity": 0.23622047244094488,
                    "duration": 0.4651879999999977
                },
                {
                    "name": "D#3",
                    "midi": 51,
                    "time": 117.22737599999995,
                    "velocity": 0.2677165354330709,
                    "duration": 0.4651879999999977
                },
                {
                    "name": "C2",
                    "midi": 36,
                    "time": 117.69256399999995,
                    "velocity": 0.2677165354330709,
                    "duration": 0.4651879999999977
                },
                {
                    "name": "C3",
                    "midi": 48,
                    "time": 117.69256399999995,
                    "velocity": 0.2992125984251969,
                    "duration": 0.4651879999999977
                },
                {
                    "name": "G#1",
                    "midi": 32,
                    "time": 118.15775199999995,
                    "velocity": 0.25196850393700787,
                    "duration": 0.4651880000000119
                },
                {
                    "name": "G#2",
                    "midi": 44,
                    "time": 118.15775199999995,
                    "velocity": 0.28346456692913385,
                    "duration": 0.4651880000000119
                },
                {
                    "name": "C#2",
                    "midi": 37,
                    "time": 118.62293999999996,
                    "velocity": 0.25196850393700787,
                    "duration": 0.9303760000000096
                },
                {
                    "name": "C#3",
                    "midi": 49,
                    "time": 118.62293999999996,
                    "velocity": 0.28346456692913385,
                    "duration": 0.9303760000000096
                },
                {
                    "name": "C#3",
                    "midi": 49,
                    "time": 119.55331599999997,
                    "velocity": 0.2125984251968504,
                    "duration": 0.4419285999999971
                },
                {
                    "name": "G#3",
                    "midi": 56,
                    "time": 119.55331599999997,
                    "velocity": 0.2125984251968504,
                    "duration": 0.4419285999999971
                },
                {
                    "name": "C#4",
                    "midi": 61,
                    "time": 119.55331599999997,
                    "velocity": 0.23622047244094488,
                    "duration": 0.4419285999999971
                },
                {
                    "name": "C#3",
                    "midi": 49,
                    "time": 120.01850399999996,
                    "velocity": 0.2125984251968504,
                    "duration": 1.3955639999999931
                },
                {
                    "name": "G#3",
                    "midi": 56,
                    "time": 120.01850399999996,
                    "velocity": 0.2125984251968504,
                    "duration": 1.3955639999999931
                },
                {
                    "name": "C#4",
                    "midi": 61,
                    "time": 120.01850399999996,
                    "velocity": 0.23622047244094488,
                    "duration": 1.3955639999999931
                },
                {
                    "name": "D#3",
                    "midi": 51,
                    "time": 121.41406799999996,
                    "velocity": 0.2125984251968504,
                    "duration": 1.3955640000000074
                },
                {
                    "name": "G#3",
                    "midi": 56,
                    "time": 121.41406799999996,
                    "velocity": 0.2125984251968504,
                    "duration": 1.3955640000000074
                },
                {
                    "name": "C4",
                    "midi": 60,
                    "time": 121.41406799999996,
                    "velocity": 0.23622047244094488,
                    "duration": 1.3955640000000074
                },
                {
                    "name": "F3",
                    "midi": 53,
                    "time": 122.80963199999997,
                    "velocity": 0.2125984251968504,
                    "duration": 0.34889099999999473
                },
                {
                    "name": "G#3",
                    "midi": 56,
                    "time": 122.80963199999997,
                    "velocity": 0.2125984251968504,
                    "duration": 0.34889099999999473
                },
                {
                    "name": "C#4",
                    "midi": 61,
                    "time": 122.80963199999997,
                    "velocity": 0.23622047244094488,
                    "duration": 0.34889099999999473
                },
                {
                    "name": "F#3",
                    "midi": 54,
                    "time": 123.27481999999996,
                    "velocity": 0.2204724409448819,
                    "duration": 0.34889099999999473
                },
                {
                    "name": "A#3",
                    "midi": 58,
                    "time": 123.27481999999996,
                    "velocity": 0.2204724409448819,
                    "duration": 0.34889099999999473
                },
                {
                    "name": "C#4",
                    "midi": 61,
                    "time": 123.27481999999996,
                    "velocity": 0.25196850393700787,
                    "duration": 0.34889099999999473
                },
                {
                    "name": "G3",
                    "midi": 55,
                    "time": 123.74000799999996,
                    "velocity": 0.23622047244094488,
                    "duration": 0.34889099999999473
                },
                {
                    "name": "A#3",
                    "midi": 58,
                    "time": 123.74000799999996,
                    "velocity": 0.23622047244094488,
                    "duration": 0.34889099999999473
                },
                {
                    "name": "C#4",
                    "midi": 61,
                    "time": 123.74000799999996,
                    "velocity": 0.23622047244094488,
                    "duration": 0.34889099999999473
                },
                {
                    "name": "D#4",
                    "midi": 63,
                    "time": 123.74000799999996,
                    "velocity": 0.2677165354330709,
                    "duration": 0.34889099999999473
                },
                {
                    "name": "G#3",
                    "midi": 56,
                    "time": 124.20519599999996,
                    "velocity": 0.2440944881889764,
                    "duration": 0.9303760000000096
                },
                {
                    "name": "C4",
                    "midi": 60,
                    "time": 124.20519599999996,
                    "velocity": 0.2440944881889764,
                    "duration": 0.9303760000000096
                },
                {
                    "name": "D#4",
                    "midi": 63,
                    "time": 124.20519599999996,
                    "velocity": 0.2755905511811024,
                    "duration": 0.9303760000000096
                },
                {
                    "name": "F3",
                    "midi": 53,
                    "time": 125.13557199999997,
                    "velocity": 0.2992125984251969,
                    "duration": 0.44192860000001133
                },
                {
                    "name": "C#4",
                    "midi": 61,
                    "time": 125.13557199999997,
                    "velocity": 0.2992125984251969,
                    "duration": 0.44192860000001133
                },
                {
                    "name": "F4",
                    "midi": 65,
                    "time": 125.13557199999997,
                    "velocity": 0.33858267716535434,
                    "duration": 0.44192860000001133
                },
                {
                    "name": "F3",
                    "midi": 53,
                    "time": 125.60075999999998,
                    "velocity": 0.2992125984251969,
                    "duration": 0.9303759999999954
                },
                {
                    "name": "C#4",
                    "midi": 61,
                    "time": 125.60075999999998,
                    "velocity": 0.2992125984251969,
                    "duration": 0.9303759999999954
                },
                {
                    "name": "F4",
                    "midi": 65,
                    "time": 125.60075999999998,
                    "velocity": 0.33858267716535434,
                    "duration": 0.9303759999999954
                },
                {
                    "name": "F#3",
                    "midi": 54,
                    "time": 126.53113599999998,
                    "velocity": 0.3228346456692913,
                    "duration": 0.23259400000000596
                },
                {
                    "name": "F#4",
                    "midi": 66,
                    "time": 126.53113599999998,
                    "velocity": 0.36220472440944884,
                    "duration": 0.23259400000000596
                },
                {
                    "name": "C#4",
                    "midi": 61,
                    "time": 126.53113599999998,
                    "velocity": 0.3228346456692913,
                    "duration": 0.4651880000000119
                },
                {
                    "name": "F3",
                    "midi": 53,
                    "time": 126.76372999999998,
                    "velocity": 0.28346456692913385,
                    "duration": 0.23259400000000596
                },
                {
                    "name": "F4",
                    "midi": 65,
                    "time": 126.76372999999998,
                    "velocity": 0.3228346456692913,
                    "duration": 0.23259400000000596
                },
                {
                    "name": "F3",
                    "midi": 53,
                    "time": 126.99632399999999,
                    "velocity": 0.28346456692913385,
                    "duration": 0.4651879999999977
                },
                {
                    "name": "C#4",
                    "midi": 61,
                    "time": 126.99632399999999,
                    "velocity": 0.28346456692913385,
                    "duration": 0.4651879999999977
                },
                {
                    "name": "F4",
                    "midi": 65,
                    "time": 126.99632399999999,
                    "velocity": 0.3228346456692913,
                    "duration": 0.4651879999999977
                },
                {
                    "name": "A#3",
                    "midi": 58,
                    "time": 127.46151199999998,
                    "velocity": 0.36220472440944884,
                    "duration": 0.4651879999999977
                },
                {
                    "name": "A#4",
                    "midi": 70,
                    "time": 127.46151199999998,
                    "velocity": 0.4094488188976378,
                    "duration": 0.4651879999999977
                },
                {
                    "name": "F#3",
                    "midi": 54,
                    "time": 127.92669999999998,
                    "velocity": 0.3228346456692913,
                    "duration": 0.4651880000000119
                },
                {
                    "name": "F#4",
                    "midi": 66,
                    "time": 127.92669999999998,
                    "velocity": 0.36220472440944884,
                    "duration": 0.4651880000000119
                },
                {
                    "name": "D#3",
                    "midi": 51,
                    "time": 128.391888,
                    "velocity": 0.2992125984251969,
                    "duration": 0.4651880000000119
                },
                {
                    "name": "D#4",
                    "midi": 63,
                    "time": 128.391888,
                    "velocity": 0.33858267716535434,
                    "duration": 0.4651880000000119
                },
                {
                    "name": "C3",
                    "midi": 48,
                    "time": 128.857076,
                    "velocity": 0.3543307086614173,
                    "duration": 0.4651880000000119
                },
                {
                    "name": "C4",
                    "midi": 60,
                    "time": 128.857076,
                    "velocity": 0.4015748031496063,
                    "duration": 0.4651880000000119
                },
                {
                    "name": "G#2",
                    "midi": 44,
                    "time": 129.32226400000002,
                    "velocity": 0.3543307086614173,
                    "duration": 0.4651880000000119
                },
                {
                    "name": "G#3",
                    "midi": 56,
                    "time": 129.32226400000002,
                    "velocity": 0.3937007874015748,
                    "duration": 0.4651880000000119
                },
                {
                    "name": "C#3",
                    "midi": 49,
                    "time": 129.78745200000003,
                    "velocity": 0.31496062992125984,
                    "duration": 0.9303759999999954
                },
                {
                    "name": "C#4",
                    "midi": 61,
                    "time": 129.78745200000003,
                    "velocity": 0.3543307086614173,
                    "duration": 0.9303759999999954
                },
                {
                    "name": "C3",
                    "midi": 48,
                    "time": 130.71782800000003,
                    "velocity": 0.4015748031496063,
                    "duration": 0.44192860000001133
                },
                {
                    "name": "G#3",
                    "midi": 56,
                    "time": 130.71782800000003,
                    "velocity": 0.4015748031496063,
                    "duration": 0.44192860000001133
                },
                {
                    "name": "C4",
                    "midi": 60,
                    "time": 130.71782800000003,
                    "velocity": 0.44881889763779526,
                    "duration": 0.44192860000001133
                },
                {
                    "name": "C3",
                    "midi": 48,
                    "time": 131.18301600000004,
                    "velocity": 0.4015748031496063,
                    "duration": 0.9303760000000239
                },
                {
                    "name": "G#3",
                    "midi": 56,
                    "time": 131.18301600000004,
                    "velocity": 0.4015748031496063,
                    "duration": 0.9303760000000239
                },
                {
                    "name": "C4",
                    "midi": 60,
                    "time": 131.18301600000004,
                    "velocity": 0.44881889763779526,
                    "duration": 0.9303760000000239
                },
                {
                    "name": "A#2",
                    "midi": 46,
                    "time": 132.11339200000006,
                    "velocity": 0.3937007874015748,
                    "duration": 0.23259399999997754
                },
                {
                    "name": "A#3",
                    "midi": 58,
                    "time": 132.11339200000006,
                    "velocity": 0.4409448818897638,
                    "duration": 0.23259399999997754
                },
                {
                    "name": "G#3",
                    "midi": 56,
                    "time": 132.11339200000006,
                    "velocity": 0.4409448818897638,
                    "duration": 0.4651879999999835
                },
                {
                    "name": "C3",
                    "midi": 48,
                    "time": 132.34598600000004,
                    "velocity": 0.3937007874015748,
                    "duration": 0.23259400000000596
                },
                {
                    "name": "C4",
                    "midi": 60,
                    "time": 132.34598600000004,
                    "velocity": 0.4409448818897638,
                    "duration": 0.23259400000000596
                },
                {
                    "name": "G#2",
                    "midi": 44,
                    "time": 132.57858000000004,
                    "velocity": 0.4015748031496063,
                    "duration": 0.4651879999999835
                },
                {
                    "name": "G#3",
                    "midi": 56,
                    "time": 132.57858000000004,
                    "velocity": 0.44881889763779526,
                    "duration": 0.4651879999999835
                },
                {
                    "name": "C3",
                    "midi": 48,
                    "time": 133.04376800000003,
                    "velocity": 0.4251968503937008,
                    "duration": 0.4651880000000119
                },
                {
                    "name": "C4",
                    "midi": 60,
                    "time": 133.04376800000003,
                    "velocity": 0.48031496062992124,
                    "duration": 0.4651880000000119
                },
                {
                    "name": "G#3",
                    "midi": 56,
                    "time": 133.04376800000003,
                    "velocity": 0.4251968503937008,
                    "duration": 0.4651880000000119
                },
                {
                    "name": "C#4",
                    "midi": 61,
                    "time": 133.50895600000004,
                    "velocity": 0.48031496062992124,
                    "duration": 0.4651880000000119
                },
                {
                    "name": "G#3",
                    "midi": 56,
                    "time": 133.50895600000004,
                    "velocity": 0.4251968503937008,
                    "duration": 0.4651880000000119
                },
                {
                    "name": "C#3",
                    "midi": 49,
                    "time": 133.50895600000004,
                    "velocity": 0.4251968503937008,
                    "duration": 0.4651880000000119
                },
                {
                    "name": "D#4",
                    "midi": 63,
                    "time": 133.97414400000005,
                    "velocity": 0.49606299212598426,
                    "duration": 0.4651880000000119
                },
                {
                    "name": "G#3",
                    "midi": 56,
                    "time": 133.97414400000005,
                    "velocity": 0.4409448818897638,
                    "duration": 0.4651880000000119
                },
                {
                    "name": "D#3",
                    "midi": 51,
                    "time": 133.97414400000005,
                    "velocity": 0.4409448818897638,
                    "duration": 0.4651880000000119
                },
                {
                    "name": "F4",
                    "midi": 65,
                    "time": 134.43933200000006,
                    "velocity": 0.5196850393700787,
                    "duration": 0.4651880000000119
                },
                {
                    "name": "G#3",
                    "midi": 56,
                    "time": 134.43933200000006,
                    "velocity": 0.4645669291338583,
                    "duration": 0.4651880000000119
                },
                {
                    "name": "F3",
                    "midi": 53,
                    "time": 134.43933200000006,
                    "velocity": 0.4645669291338583,
                    "duration": 0.4651880000000119
                },
                {
                    "name": "F#3",
                    "midi": 54,
                    "time": 134.90452000000008,
                    "velocity": 0.4251968503937008,
                    "duration": 0.4651879999999835
                },
                {
                    "name": "G#3",
                    "midi": 56,
                    "time": 134.90452000000008,
                    "velocity": 0.4251968503937008,
                    "duration": 0.4651879999999835
                },
                {
                    "name": "F#4",
                    "midi": 66,
                    "time": 134.90452000000008,
                    "velocity": 0.48031496062992124,
                    "duration": 0.4651879999999835
                },
                {
                    "name": "C3",
                    "midi": 48,
                    "time": 135.36970800000006,
                    "velocity": 0.3464566929133858,
                    "duration": 1.3955640000000074
                },
                {
                    "name": "C4",
                    "midi": 60,
                    "time": 135.36970800000006,
                    "velocity": 0.3858267716535433,
                    "duration": 1.3955640000000074
                },
                {
                    "name": "G#3",
                    "midi": 56,
                    "time": 135.36970800000006,
                    "velocity": 0.3464566929133858,
                    "duration": 1.3955640000000074
                },
                {
                    "name": "C#3",
                    "midi": 49,
                    "time": 136.76527200000007,
                    "velocity": 0.2755905511811024,
                    "duration": 1.395563999999979
                },
                {
                    "name": "G#3",
                    "midi": 56,
                    "time": 136.76527200000007,
                    "velocity": 0.2755905511811024,
                    "duration": 1.395563999999979
                },
                {
                    "name": "C#4",
                    "midi": 61,
                    "time": 136.76527200000007,
                    "velocity": 0.30708661417322836,
                    "duration": 1.395563999999979
                },
                {
                    "name": "G#3",
                    "midi": 56,
                    "time": 138.16083600000005,
                    "velocity": 0.2755905511811024,
                    "duration": 1.3955640000000074
                },
                {
                    "name": "C3",
                    "midi": 48,
                    "time": 138.16083600000005,
                    "velocity": 0.2755905511811024,
                    "duration": 0.9303759999999954
                },
                {
                    "name": "C4",
                    "midi": 60,
                    "time": 138.16083600000005,
                    "velocity": 0.30708661417322836,
                    "duration": 0.9303759999999954
                },
                {
                    "name": "B2",
                    "midi": 47,
                    "time": 139.09121200000004,
                    "velocity": 0.25196850393700787,
                    "duration": 0.4651880000000119
                },
                {
                    "name": "B3",
                    "midi": 59,
                    "time": 139.09121200000004,
                    "velocity": 0.28346456692913385,
                    "duration": 0.4651880000000119
                },
                {
                    "name": "A#2",
                    "midi": 46,
                    "time": 139.55640000000005,
                    "velocity": 0.25984251968503935,
                    "duration": 0.930375999999967
                },
                {
                    "name": "D#3",
                    "midi": 51,
                    "time": 139.55640000000005,
                    "velocity": 0.25984251968503935,
                    "duration": 0.930375999999967
                },
                {
                    "name": "A#3",
                    "midi": 58,
                    "time": 139.55640000000005,
                    "velocity": 0.29133858267716534,
                    "duration": 0.930375999999967
                },
                {
                    "name": "D#3",
                    "midi": 51,
                    "time": 140.48677600000002,
                    "velocity": 0.28346456692913385,
                    "duration": 0.4651880000000119
                },
                {
                    "name": "A2",
                    "midi": 45,
                    "time": 140.95196400000003,
                    "velocity": 0.2677165354330709,
                    "duration": 0.9303759999999954
                },
                {
                    "name": "D#3",
                    "midi": 51,
                    "time": 140.95196400000003,
                    "velocity": 0.2677165354330709,
                    "duration": 0.9303759999999954
                },
                {
                    "name": "A3",
                    "midi": 57,
                    "time": 140.95196400000003,
                    "velocity": 0.2992125984251969,
                    "duration": 0.9303759999999954
                },
                {
                    "name": "D#3",
                    "midi": 51,
                    "time": 141.88234000000003,
                    "velocity": 0.2283464566929134,
                    "duration": 0.4651880000000119
                },
                {
                    "name": "A3",
                    "midi": 57,
                    "time": 141.88234000000003,
                    "velocity": 0.25984251968503935,
                    "duration": 0.4651880000000119
                },
                {
                    "name": "A#2",
                    "midi": 46,
                    "time": 142.34752800000004,
                    "velocity": 0.25196850393700787,
                    "duration": 0.9303759999999954
                },
                {
                    "name": "D#3",
                    "midi": 51,
                    "time": 142.34752800000004,
                    "velocity": 0.25196850393700787,
                    "duration": 0.9303759999999954
                },
                {
                    "name": "A#3",
                    "midi": 58,
                    "time": 142.34752800000004,
                    "velocity": 0.28346456692913385,
                    "duration": 0.9303759999999954
                },
                {
                    "name": "D#3",
                    "midi": 51,
                    "time": 143.27790400000004,
                    "velocity": 0.2440944881889764,
                    "duration": 0.4651880000000119
                },
                {
                    "name": "D#3",
                    "midi": 51,
                    "time": 143.74309200000005,
                    "velocity": 0.23622047244094488,
                    "duration": 0.9303759999999954
                },
                {
                    "name": "G#2",
                    "midi": 44,
                    "time": 143.74309200000005,
                    "velocity": 0.2125984251968504,
                    "duration": 1.3955640000000074
                },
                {
                    "name": "G#3",
                    "midi": 56,
                    "time": 144.67346800000004,
                    "velocity": 0.2283464566929134,
                    "duration": 0.4651880000000119
                },
                {
                    "name": "F3",
                    "midi": 53,
                    "time": 145.13865600000005,
                    "velocity": 0.1732283464566929,
                    "duration": 1.3955640000000074
                },
                {
                    "name": "C#2",
                    "midi": 37,
                    "time": 145.13865600000005,
                    "velocity": 0.1732283464566929,
                    "duration": 1.3955640000000074
                },
                {
                    "name": "G#2",
                    "midi": 44,
                    "time": 145.13865600000005,
                    "velocity": 0.1732283464566929,
                    "duration": 1.3955640000000074
                },
                {
                    "name": "C#3",
                    "midi": 49,
                    "time": 145.13865600000005,
                    "velocity": 0.1732283464566929,
                    "duration": 1.3955640000000074
                },
                {
                    "name": "G#3",
                    "midi": 56,
                    "time": 145.13865600000005,
                    "velocity": 0.1968503937007874,
                    "duration": 1.3955640000000074
                },
                {
                    "name": "G#2",
                    "midi": 44,
                    "time": 146.53422000000006,
                    "velocity": 0.1732283464566929,
                    "duration": 1.395563999999979
                },
                {
                    "name": "D#2",
                    "midi": 39,
                    "time": 146.53422000000006,
                    "velocity": 0.1732283464566929,
                    "duration": 1.395563999999979
                },
                {
                    "name": "G#3",
                    "midi": 56,
                    "time": 146.53422000000006,
                    "velocity": 0.1968503937007874,
                    "duration": 1.395563999999979
                },
                {
                    "name": "C3",
                    "midi": 48,
                    "time": 146.53422000000006,
                    "velocity": 0.1732283464566929,
                    "duration": 1.395563999999979
                },
                {
                    "name": "F#3",
                    "midi": 54,
                    "time": 146.53422000000006,
                    "velocity": 0.1732283464566929,
                    "duration": 1.395563999999979
                },
                {
                    "name": "G#3",
                    "midi": 56,
                    "time": 147.92978400000004,
                    "velocity": 0.1732283464566929,
                    "duration": 0.34889100000000894
                },
                {
                    "name": "F2",
                    "midi": 41,
                    "time": 147.92978400000004,
                    "velocity": 0.1732283464566929,
                    "duration": 0.34889100000000894
                },
                {
                    "name": "G#2",
                    "midi": 44,
                    "time": 147.92978400000004,
                    "velocity": 0.1732283464566929,
                    "duration": 0.34889100000000894
                },
                {
                    "name": "C#3",
                    "midi": 49,
                    "time": 147.92978400000004,
                    "velocity": 0.1732283464566929,
                    "duration": 0.34889100000000894
                },
                {
                    "name": "C#4",
                    "midi": 61,
                    "time": 147.92978400000004,
                    "velocity": 0.2204724409448819,
                    "duration": 0.34889100000000894
                },
                {
                    "name": "F3",
                    "midi": 53,
                    "time": 147.92978400000004,
                    "velocity": 0.1732283464566929,
                    "duration": 0.34889100000000894
                },
                {
                    "name": "C#4",
                    "midi": 61,
                    "time": 148.39497200000005,
                    "velocity": 0.23622047244094488,
                    "duration": 0.34889100000000894
                },
                {
                    "name": "F#2",
                    "midi": 42,
                    "time": 148.39497200000005,
                    "velocity": 0.1889763779527559,
                    "duration": 0.34889100000000894
                },
                {
                    "name": "A#2",
                    "midi": 46,
                    "time": 148.39497200000005,
                    "velocity": 0.1889763779527559,
                    "duration": 0.34889100000000894
                },
                {
                    "name": "C#3",
                    "midi": 49,
                    "time": 148.39497200000005,
                    "velocity": 0.1889763779527559,
                    "duration": 0.34889100000000894
                },
                {
                    "name": "F#3",
                    "midi": 54,
                    "time": 148.39497200000005,
                    "velocity": 0.1889763779527559,
                    "duration": 0.34889100000000894
                },
                {
                    "name": "A#3",
                    "midi": 58,
                    "time": 148.39497200000005,
                    "velocity": 0.1889763779527559,
                    "duration": 0.34889100000000894
                },
                {
                    "name": "C#3",
                    "midi": 49,
                    "time": 148.86016000000006,
                    "velocity": 0.1968503937007874,
                    "duration": 0.34889100000000894
                },
                {
                    "name": "G2",
                    "midi": 43,
                    "time": 148.86016000000006,
                    "velocity": 0.1968503937007874,
                    "duration": 0.34889100000000894
                },
                {
                    "name": "A#2",
                    "midi": 46,
                    "time": 148.86016000000006,
                    "velocity": 0.1968503937007874,
                    "duration": 0.34889100000000894
                },
                {
                    "name": "D#3",
                    "midi": 51,
                    "time": 148.86016000000006,
                    "velocity": 0.1968503937007874,
                    "duration": 0.34889100000000894
                },
                {
                    "name": "D#4",
                    "midi": 63,
                    "time": 148.86016000000006,
                    "velocity": 0.25196850393700787,
                    "duration": 0.34889100000000894
                },
                {
                    "name": "C#4",
                    "midi": 61,
                    "time": 148.86016000000006,
                    "velocity": 0.1968503937007874,
                    "duration": 0.34889100000000894
                },
                {
                    "name": "A#3",
                    "midi": 58,
                    "time": 148.86016000000006,
                    "velocity": 0.1968503937007874,
                    "duration": 0.34889100000000894
                },
                {
                    "name": "G#3",
                    "midi": 56,
                    "time": 149.32534800000008,
                    "velocity": 0.2283464566929134,
                    "duration": 0.9303760000000239
                },
                {
                    "name": "G#2",
                    "midi": 44,
                    "time": 149.32534800000008,
                    "velocity": 0.18110236220472442,
                    "duration": 0.9303760000000239
                },
                {
                    "name": "C3",
                    "midi": 48,
                    "time": 149.32534800000008,
                    "velocity": 0.18110236220472442,
                    "duration": 0.9303760000000239
                },
                {
                    "name": "D#3",
                    "midi": 51,
                    "time": 149.32534800000008,
                    "velocity": 0.18110236220472442,
                    "duration": 0.9303760000000239
                },
                {
                    "name": "F2",
                    "midi": 41,
                    "time": 150.2557240000001,
                    "velocity": 0.2992125984251969,
                    "duration": 0.44192860000001133
                },
                {
                    "name": "F3",
                    "midi": 53,
                    "time": 150.2557240000001,
                    "velocity": 0.33858267716535434,
                    "duration": 0.44192860000001133
                },
                {
                    "name": "C#3",
                    "midi": 49,
                    "time": 150.2557240000001,
                    "velocity": 0.2992125984251969,
                    "duration": 0.44192860000001133
                },
                {
                    "name": "C#3",
                    "midi": 49,
                    "time": 150.7209120000001,
                    "velocity": 0.2992125984251969,
                    "duration": 0.9303759999999954
                },
                {
                    "name": "F2",
                    "midi": 41,
                    "time": 150.7209120000001,
                    "velocity": 0.2992125984251969,
                    "duration": 0.9303759999999954
                },
                {
                    "name": "F3",
                    "midi": 53,
                    "time": 150.7209120000001,
                    "velocity": 0.33858267716535434,
                    "duration": 0.9303759999999954
                },
                {
                    "name": "C#3",
                    "midi": 49,
                    "time": 151.6512880000001,
                    "velocity": 0.2992125984251969,
                    "duration": 0.4651879999999835
                },
                {
                    "name": "F#2",
                    "midi": 42,
                    "time": 151.6512880000001,
                    "velocity": 0.2992125984251969,
                    "duration": 0.23259399999997754
                },
                {
                    "name": "F#3",
                    "midi": 54,
                    "time": 151.6512880000001,
                    "velocity": 0.33858267716535434,
                    "duration": 0.23259399999997754
                },
                {
                    "name": "F3",
                    "midi": 53,
                    "time": 151.88388200000009,
                    "velocity": 0.30708661417322836,
                    "duration": 0.23259400000000596
                },
                {
                    "name": "F2",
                    "midi": 41,
                    "time": 151.88388200000009,
                    "velocity": 0.30708661417322836,
                    "duration": 0.23259400000000596
                },
                {
                    "name": "C#3",
                    "midi": 49,
                    "time": 152.1164760000001,
                    "velocity": 0.2755905511811024,
                    "duration": 0.4651880000000119
                },
                {
                    "name": "F2",
                    "midi": 41,
                    "time": 152.1164760000001,
                    "velocity": 0.30708661417322836,
                    "duration": 0.4651880000000119
                },
                {
                    "name": "F3",
                    "midi": 53,
                    "time": 152.1164760000001,
                    "velocity": 0.30708661417322836,
                    "duration": 0.4651880000000119
                },
                {
                    "name": "C#4",
                    "midi": 61,
                    "time": 152.5816640000001,
                    "velocity": 0.4251968503937008,
                    "duration": 0.4651880000000119
                },
                {
                    "name": "G#3",
                    "midi": 56,
                    "time": 152.5816640000001,
                    "velocity": 0.4251968503937008,
                    "duration": 0.4651880000000119
                },
                {
                    "name": "C#3",
                    "midi": 49,
                    "time": 152.5816640000001,
                    "velocity": 0.3779527559055118,
                    "duration": 0.4651880000000119
                },
                {
                    "name": "G#3",
                    "midi": 56,
                    "time": 153.04685200000011,
                    "velocity": 0.3543307086614173,
                    "duration": 0.4651880000000119
                },
                {
                    "name": "C4",
                    "midi": 60,
                    "time": 153.04685200000011,
                    "velocity": 0.4015748031496063,
                    "duration": 0.4651880000000119
                },
                {
                    "name": "C3",
                    "midi": 48,
                    "time": 153.04685200000011,
                    "velocity": 0.3543307086614173,
                    "duration": 0.4651880000000119
                },
                {
                    "name": "F3",
                    "midi": 53,
                    "time": 153.51204000000013,
                    "velocity": 0.4015748031496063,
                    "duration": 0.9303760000000239
                },
                {
                    "name": "A#2",
                    "midi": 46,
                    "time": 153.51204000000013,
                    "velocity": 0.4015748031496063,
                    "duration": 0.9303760000000239
                },
                {
                    "name": "A#3",
                    "midi": 58,
                    "time": 153.51204000000013,
                    "velocity": 0.44881889763779526,
                    "duration": 0.9303760000000239
                },
                {
                    "name": "F#3",
                    "midi": 54,
                    "time": 154.44241600000015,
                    "velocity": 0.3779527559055118,
                    "duration": 0.4651880000000119
                },
                {
                    "name": "G#2",
                    "midi": 44,
                    "time": 154.44241600000015,
                    "velocity": 0.3779527559055118,
                    "duration": 0.4651880000000119
                },
                {
                    "name": "G#3",
                    "midi": 56,
                    "time": 154.44241600000015,
                    "velocity": 0.4251968503937008,
                    "duration": 0.4651880000000119
                },
                {
                    "name": "C#3",
                    "midi": 49,
                    "time": 154.90760400000016,
                    "velocity": 0.4015748031496063,
                    "duration": 0.9303759999999954
                },
                {
                    "name": "G#3",
                    "midi": 56,
                    "time": 154.90760400000016,
                    "velocity": 0.44881889763779526,
                    "duration": 0.9303759999999954
                },
                {
                    "name": "F3",
                    "midi": 53,
                    "time": 154.90760400000016,
                    "velocity": 0.4015748031496063,
                    "duration": 0.9303759999999954
                },
                {
                    "name": "C#4",
                    "midi": 61,
                    "time": 155.83798000000016,
                    "velocity": 0.41732283464566927,
                    "duration": 0.4419285999999829
                },
                {
                    "name": "F4",
                    "midi": 65,
                    "time": 155.83798000000016,
                    "velocity": 0.4645669291338583,
                    "duration": 0.4419285999999829
                },
                {
                    "name": "F3",
                    "midi": 53,
                    "time": 155.83798000000016,
                    "velocity": 0.41732283464566927,
                    "duration": 0.4419285999999829
                },
                {
                    "name": "F4",
                    "midi": 65,
                    "time": 156.30316800000014,
                    "velocity": 0.44881889763779526,
                    "duration": 0.9303759999999954
                },
                {
                    "name": "F3",
                    "midi": 53,
                    "time": 156.30316800000014,
                    "velocity": 0.4015748031496063,
                    "duration": 0.9303759999999954
                },
                {
                    "name": "C#4",
                    "midi": 61,
                    "time": 156.30316800000014,
                    "velocity": 0.4015748031496063,
                    "duration": 0.9303759999999954
                },
                {
                    "name": "F#3",
                    "midi": 54,
                    "time": 157.23354400000014,
                    "velocity": 0.4251968503937008,
                    "duration": 0.23259400000000596
                },
                {
                    "name": "F#4",
                    "midi": 66,
                    "time": 157.23354400000014,
                    "velocity": 0.48031496062992124,
                    "duration": 0.23259400000000596
                },
                {
                    "name": "C#4",
                    "midi": 61,
                    "time": 157.23354400000014,
                    "velocity": 0.4251968503937008,
                    "duration": 0.4651880000000119
                },
                {
                    "name": "F4",
                    "midi": 65,
                    "time": 157.46613800000014,
                    "velocity": 0.44881889763779526,
                    "duration": 0.23259400000000596
                },
                {
                    "name": "F3",
                    "midi": 53,
                    "time": 157.46613800000014,
                    "velocity": 0.4015748031496063,
                    "duration": 0.23259400000000596
                },
                {
                    "name": "F4",
                    "midi": 65,
                    "time": 157.69873200000015,
                    "velocity": 0.4645669291338583,
                    "duration": 0.4651880000000119
                },
                {
                    "name": "F3",
                    "midi": 53,
                    "time": 157.69873200000015,
                    "velocity": 0.41732283464566927,
                    "duration": 0.4651880000000119
                },
                {
                    "name": "C#4",
                    "midi": 61,
                    "time": 157.69873200000015,
                    "velocity": 0.41732283464566927,
                    "duration": 0.4651880000000119
                },
                {
                    "name": "C4",
                    "midi": 60,
                    "time": 161.42023600000016,
                    "velocity": 0.44881889763779526,
                    "duration": 0.4419285999999829
                },
                {
                    "name": "C3",
                    "midi": 48,
                    "time": 161.42023600000016,
                    "velocity": 0.4015748031496063,
                    "duration": 0.4419285999999829
                },
                {
                    "name": "G#3",
                    "midi": 56,
                    "time": 161.42023600000016,
                    "velocity": 0.4015748031496063,
                    "duration": 0.4419285999999829
                },
                {
                    "name": "C3",
                    "midi": 48,
                    "time": 161.88542400000014,
                    "velocity": 0.4015748031496063,
                    "duration": 0.9303759999999954
                },
                {
                    "name": "G#3",
                    "midi": 56,
                    "time": 161.88542400000014,
                    "velocity": 0.4015748031496063,
                    "duration": 0.9303759999999954
                },
                {
                    "name": "C4",
                    "midi": 60,
                    "time": 161.88542400000014,
                    "velocity": 0.44881889763779526,
                    "duration": 0.9303759999999954
                },
                {
                    "name": "A#2",
                    "midi": 46,
                    "time": 162.81580000000014,
                    "velocity": 0.3937007874015748,
                    "duration": 0.23259399999997754
                },
                {
                    "name": "A#3",
                    "midi": 58,
                    "time": 162.81580000000014,
                    "velocity": 0.4409448818897638,
                    "duration": 0.23259399999997754
                },
                {
                    "name": "G#3",
                    "midi": 56,
                    "time": 162.81580000000014,
                    "velocity": 0.3937007874015748,
                    "duration": 0.4651879999999835
                },
                {
                    "name": "C3",
                    "midi": 48,
                    "time": 163.04839400000012,
                    "velocity": 0.3937007874015748,
                    "duration": 0.23259400000000596
                },
                {
                    "name": "C4",
                    "midi": 60,
                    "time": 163.04839400000012,
                    "velocity": 0.4409448818897638,
                    "duration": 0.23259400000000596
                },
                {
                    "name": "G#2",
                    "midi": 44,
                    "time": 163.28098800000012,
                    "velocity": 0.4015748031496063,
                    "duration": 0.4651879999999835
                },
                {
                    "name": "G#3",
                    "midi": 56,
                    "time": 163.28098800000012,
                    "velocity": 0.44881889763779526,
                    "duration": 0.4651879999999835
                },
                {
                    "name": "C3",
                    "midi": 48,
                    "time": 163.7461760000001,
                    "velocity": 0.4251968503937008,
                    "duration": 0.4651880000000119
                },
                {
                    "name": "C4",
                    "midi": 60,
                    "time": 163.7461760000001,
                    "velocity": 0.48031496062992124,
                    "duration": 0.4651880000000119
                },
                {
                    "name": "G#3",
                    "midi": 56,
                    "time": 163.7461760000001,
                    "velocity": 0.4251968503937008,
                    "duration": 0.4651880000000119
                },
                {
                    "name": "C#4",
                    "midi": 61,
                    "time": 164.21136400000012,
                    "velocity": 0.48031496062992124,
                    "duration": 0.4651879999999835
                },
                {
                    "name": "G#3",
                    "midi": 56,
                    "time": 164.21136400000012,
                    "velocity": 0.4251968503937008,
                    "duration": 0.4651879999999835
                },
                {
                    "name": "C#3",
                    "midi": 49,
                    "time": 164.21136400000012,
                    "velocity": 0.4251968503937008,
                    "duration": 0.4651879999999835
                },
                {
                    "name": "D#4",
                    "midi": 63,
                    "time": 164.6765520000001,
                    "velocity": 0.49606299212598426,
                    "duration": 0.4651880000000119
                },
                {
                    "name": "G#3",
                    "midi": 56,
                    "time": 164.6765520000001,
                    "velocity": 0.4409448818897638,
                    "duration": 0.4651880000000119
                },
                {
                    "name": "D#3",
                    "midi": 51,
                    "time": 164.6765520000001,
                    "velocity": 0.4409448818897638,
                    "duration": 0.4651880000000119
                },
                {
                    "name": "F4",
                    "midi": 65,
                    "time": 165.1417400000001,
                    "velocity": 0.5196850393700787,
                    "duration": 0.4651880000000119
                },
                {
                    "name": "G#3",
                    "midi": 56,
                    "time": 165.1417400000001,
                    "velocity": 0.4645669291338583,
                    "duration": 0.4651880000000119
                },
                {
                    "name": "F3",
                    "midi": 53,
                    "time": 165.1417400000001,
                    "velocity": 0.4645669291338583,
                    "duration": 0.4651880000000119
                },
                {
                    "name": "F#3",
                    "midi": 54,
                    "time": 165.60692800000012,
                    "velocity": 0.4251968503937008,
                    "duration": 0.4651880000000119
                },
                {
                    "name": "G#3",
                    "midi": 56,
                    "time": 165.60692800000012,
                    "velocity": 0.4251968503937008,
                    "duration": 0.4651880000000119
                },
                {
                    "name": "F#4",
                    "midi": 66,
                    "time": 165.60692800000012,
                    "velocity": 0.48031496062992124,
                    "duration": 0.4651880000000119
                },
                {
                    "name": "C3",
                    "midi": 48,
                    "time": 166.07211600000014,
                    "velocity": 0.3464566929133858,
                    "duration": 1.3955640000000074
                },
                {
                    "name": "C4",
                    "midi": 60,
                    "time": 166.07211600000014,
                    "velocity": 0.3858267716535433,
                    "duration": 1.3955640000000074
                },
                {
                    "name": "G#3",
                    "midi": 56,
                    "time": 166.07211600000014,
                    "velocity": 0.3464566929133858,
                    "duration": 1.3955640000000074
                },
                {
                    "name": "C#3",
                    "midi": 49,
                    "time": 167.46768000000014,
                    "velocity": 0.2755905511811024,
                    "duration": 1.3955640000000074
                },
                {
                    "name": "G#3",
                    "midi": 56,
                    "time": 167.46768000000014,
                    "velocity": 0.2755905511811024,
                    "duration": 1.3955640000000074
                },
                {
                    "name": "C#4",
                    "midi": 61,
                    "time": 167.46768000000014,
                    "velocity": 0.30708661417322836,
                    "duration": 1.3955640000000074
                },
                {
                    "name": "G#3",
                    "midi": 56,
                    "time": 168.86324400000015,
                    "velocity": 0.2755905511811024,
                    "duration": 1.395563999999979
                },
                {
                    "name": "C3",
                    "midi": 48,
                    "time": 168.86324400000015,
                    "velocity": 0.2755905511811024,
                    "duration": 0.9303759999999954
                },
                {
                    "name": "C4",
                    "midi": 60,
                    "time": 168.86324400000015,
                    "velocity": 0.30708661417322836,
                    "duration": 0.9303759999999954
                },
                {
                    "name": "B2",
                    "midi": 47,
                    "time": 169.79362000000015,
                    "velocity": 0.25196850393700787,
                    "duration": 0.4651879999999835
                },
                {
                    "name": "B3",
                    "midi": 59,
                    "time": 169.79362000000015,
                    "velocity": 0.28346456692913385,
                    "duration": 0.4651879999999835
                },
                {
                    "name": "A#2",
                    "midi": 46,
                    "time": 170.25880800000013,
                    "velocity": 0.25984251968503935,
                    "duration": 0.9303759999999954
                },
                {
                    "name": "D#3",
                    "midi": 51,
                    "time": 170.25880800000013,
                    "velocity": 0.25984251968503935,
                    "duration": 0.9303759999999954
                },
                {
                    "name": "A#3",
                    "midi": 58,
                    "time": 170.25880800000013,
                    "velocity": 0.29133858267716534,
                    "duration": 0.9303759999999954
                },
                {
                    "name": "D#3",
                    "midi": 51,
                    "time": 171.18918400000013,
                    "velocity": 0.28346456692913385,
                    "duration": 0.4651880000000119
                },
                {
                    "name": "A2",
                    "midi": 45,
                    "time": 171.65437200000014,
                    "velocity": 0.2677165354330709,
                    "duration": 0.9303759999999954
                },
                {
                    "name": "D#3",
                    "midi": 51,
                    "time": 171.65437200000014,
                    "velocity": 0.2677165354330709,
                    "duration": 0.9303759999999954
                },
                {
                    "name": "A3",
                    "midi": 57,
                    "time": 171.65437200000014,
                    "velocity": 0.2992125984251969,
                    "duration": 0.9303759999999954
                },
                {
                    "name": "D#3",
                    "midi": 51,
                    "time": 172.58474800000013,
                    "velocity": 0.2283464566929134,
                    "duration": 0.4651880000000119
                },
                {
                    "name": "A3",
                    "midi": 57,
                    "time": 172.58474800000013,
                    "velocity": 0.25984251968503935,
                    "duration": 0.4651880000000119
                },
                {
                    "name": "A#2",
                    "midi": 46,
                    "time": 173.04993600000014,
                    "velocity": 0.25196850393700787,
                    "duration": 0.9303759999999954
                },
                {
                    "name": "D#3",
                    "midi": 51,
                    "time": 173.04993600000014,
                    "velocity": 0.25196850393700787,
                    "duration": 0.9303759999999954
                },
                {
                    "name": "A#3",
                    "midi": 58,
                    "time": 173.04993600000014,
                    "velocity": 0.28346456692913385,
                    "duration": 0.9303759999999954
                },
                {
                    "name": "D#3",
                    "midi": 51,
                    "time": 173.98031200000014,
                    "velocity": 0.2440944881889764,
                    "duration": 0.4651880000000119
                },
                {
                    "name": "D#3",
                    "midi": 51,
                    "time": 174.44550000000015,
                    "velocity": 0.23622047244094488,
                    "duration": 0.9303759999999954
                },
                {
                    "name": "G#2",
                    "midi": 44,
                    "time": 174.44550000000015,
                    "velocity": 0.2125984251968504,
                    "duration": 1.3955640000000074
                },
                {
                    "name": "G#3",
                    "midi": 56,
                    "time": 175.37587600000015,
                    "velocity": 0.2283464566929134,
                    "duration": 0.4651880000000119
                },
                {
                    "name": "C#2",
                    "midi": 37,
                    "time": 175.84106400000016,
                    "velocity": 0.1732283464566929,
                    "duration": 1.395563999999979
                },
                {
                    "name": "G#2",
                    "midi": 44,
                    "time": 175.84106400000016,
                    "velocity": 0.1732283464566929,
                    "duration": 1.395563999999979
                },
                {
                    "name": "C#3",
                    "midi": 49,
                    "time": 175.84106400000016,
                    "velocity": 0.1732283464566929,
                    "duration": 1.395563999999979
                },
                {
                    "name": "F3",
                    "midi": 53,
                    "time": 175.84106400000016,
                    "velocity": 0.1732283464566929,
                    "duration": 1.395563999999979
                },
                {
                    "name": "G#3",
                    "midi": 56,
                    "time": 175.84106400000016,
                    "velocity": 0.1968503937007874,
                    "duration": 1.395563999999979
                },
                {
                    "name": "D#2",
                    "midi": 39,
                    "time": 177.23662800000014,
                    "velocity": 0.1732283464566929,
                    "duration": 1.3955640000000074
                },
                {
                    "name": "G#2",
                    "midi": 44,
                    "time": 177.23662800000014,
                    "velocity": 0.1732283464566929,
                    "duration": 1.3955640000000074
                },
                {
                    "name": "C3",
                    "midi": 48,
                    "time": 177.23662800000014,
                    "velocity": 0.1732283464566929,
                    "duration": 1.3955640000000074
                },
                {
                    "name": "G#3",
                    "midi": 56,
                    "time": 177.23662800000014,
                    "velocity": 0.1968503937007874,
                    "duration": 1.3955640000000074
                },
                {
                    "name": "F#3",
                    "midi": 54,
                    "time": 177.23662800000014,
                    "velocity": 0.1732283464566929,
                    "duration": 1.3955640000000074
                },
                {
                    "name": "C#3",
                    "midi": 49,
                    "time": 178.63219200000015,
                    "velocity": 0.1732283464566929,
                    "duration": 0.3488909999999805
                },
                {
                    "name": "F2",
                    "midi": 41,
                    "time": 178.63219200000015,
                    "velocity": 0.1732283464566929,
                    "duration": 0.3488909999999805
                },
                {
                    "name": "G#2",
                    "midi": 44,
                    "time": 178.63219200000015,
                    "velocity": 0.1732283464566929,
                    "duration": 0.3488909999999805
                },
                {
                    "name": "C#4",
                    "midi": 61,
                    "time": 178.63219200000015,
                    "velocity": 0.2204724409448819,
                    "duration": 0.3488909999999805
                },
                {
                    "name": "F3",
                    "midi": 53,
                    "time": 178.63219200000015,
                    "velocity": 0.1732283464566929,
                    "duration": 0.3488909999999805
                },
                {
                    "name": "G#3",
                    "midi": 56,
                    "time": 178.63219200000015,
                    "velocity": 0.1732283464566929,
                    "duration": 0.3488909999999805
                },
                {
                    "name": "C#3",
                    "midi": 49,
                    "time": 179.09738000000013,
                    "velocity": 0.1889763779527559,
                    "duration": 0.34889100000000894
                },
                {
                    "name": "F#2",
                    "midi": 42,
                    "time": 179.09738000000013,
                    "velocity": 0.1889763779527559,
                    "duration": 0.34889100000000894
                },
                {
                    "name": "A#2",
                    "midi": 46,
                    "time": 179.09738000000013,
                    "velocity": 0.1889763779527559,
                    "duration": 0.34889100000000894
                },
                {
                    "name": "C#4",
                    "midi": 61,
                    "time": 179.09738000000013,
                    "velocity": 0.23622047244094488,
                    "duration": 0.34889100000000894
                },
                {
                    "name": "A#3",
                    "midi": 58,
                    "time": 179.09738000000013,
                    "velocity": 0.1889763779527559,
                    "duration": 0.34889100000000894
                },
                {
                    "name": "F#3",
                    "midi": 54,
                    "time": 179.09738000000013,
                    "velocity": 0.1889763779527559,
                    "duration": 0.34889100000000894
                },
                {
                    "name": "G2",
                    "midi": 43,
                    "time": 179.56256800000014,
                    "velocity": 0.1968503937007874,
                    "duration": 0.34889100000000894
                },
                {
                    "name": "A#2",
                    "midi": 46,
                    "time": 179.56256800000014,
                    "velocity": 0.1968503937007874,
                    "duration": 0.34889100000000894
                },
                {
                    "name": "C#3",
                    "midi": 49,
                    "time": 179.56256800000014,
                    "velocity": 0.1968503937007874,
                    "duration": 0.34889100000000894
                },
                {
                    "name": "D#4",
                    "midi": 63,
                    "time": 179.56256800000014,
                    "velocity": 0.25196850393700787,
                    "duration": 0.34889100000000894
                },
                {
                    "name": "C#4",
                    "midi": 61,
                    "time": 179.56256800000014,
                    "velocity": 0.1968503937007874,
                    "duration": 0.34889100000000894
                },
                {
                    "name": "A#3",
                    "midi": 58,
                    "time": 179.56256800000014,
                    "velocity": 0.1968503937007874,
                    "duration": 0.34889100000000894
                },
                {
                    "name": "D#3",
                    "midi": 51,
                    "time": 179.56256800000014,
                    "velocity": 0.1968503937007874,
                    "duration": 0.34889100000000894
                },
                {
                    "name": "G#2",
                    "midi": 44,
                    "time": 180.02775600000015,
                    "velocity": 0.18110236220472442,
                    "duration": 0.9303759999999954
                },
                {
                    "name": "C3",
                    "midi": 48,
                    "time": 180.02775600000015,
                    "velocity": 0.18110236220472442,
                    "duration": 0.9303759999999954
                },
                {
                    "name": "D#3",
                    "midi": 51,
                    "time": 180.02775600000015,
                    "velocity": 0.18110236220472442,
                    "duration": 0.9303759999999954
                },
                {
                    "name": "G#3",
                    "midi": 56,
                    "time": 180.02775600000015,
                    "velocity": 0.2283464566929134,
                    "duration": 0.9303759999999954
                },
                {
                    "name": "F2",
                    "midi": 41,
                    "time": 180.95813200000015,
                    "velocity": 0.2992125984251969,
                    "duration": 0.4419285999999829
                },
                {
                    "name": "C#3",
                    "midi": 49,
                    "time": 180.95813200000015,
                    "velocity": 0.2992125984251969,
                    "duration": 0.4419285999999829
                },
                {
                    "name": "F3",
                    "midi": 53,
                    "time": 180.95813200000015,
                    "velocity": 0.33858267716535434,
                    "duration": 0.4419285999999829
                },
                {
                    "name": "F2",
                    "midi": 41,
                    "time": 181.42332000000013,
                    "velocity": 0.2992125984251969,
                    "duration": 0.9303759999999954
                },
                {
                    "name": "C#3",
                    "midi": 49,
                    "time": 181.42332000000013,
                    "velocity": 0.2992125984251969,
                    "duration": 0.9303759999999954
                },
                {
                    "name": "F3",
                    "midi": 53,
                    "time": 181.42332000000013,
                    "velocity": 0.33858267716535434,
                    "duration": 0.9303759999999954
                },
                {
                    "name": "F#2",
                    "midi": 42,
                    "time": 182.35369600000013,
                    "velocity": 0.2992125984251969,
                    "duration": 0.23259400000000596
                },
                {
                    "name": "F#3",
                    "midi": 54,
                    "time": 182.35369600000013,
                    "velocity": 0.33858267716535434,
                    "duration": 0.23259400000000596
                },
                {
                    "name": "C#3",
                    "midi": 49,
                    "time": 182.35369600000013,
                    "velocity": 0.2992125984251969,
                    "duration": 0.4651880000000119
                },
                {
                    "name": "F2",
                    "midi": 41,
                    "time": 182.58629000000013,
                    "velocity": 0.2755905511811024,
                    "duration": 0.23259400000000596
                },
                {
                    "name": "F3",
                    "midi": 53,
                    "time": 182.58629000000013,
                    "velocity": 0.30708661417322836,
                    "duration": 0.23259400000000596
                },
                {
                    "name": "F2",
                    "midi": 41,
                    "time": 182.81888400000014,
                    "velocity": 0.2755905511811024,
                    "duration": 0.4651880000000119
                },
                {
                    "name": "C#3",
                    "midi": 49,
                    "time": 182.81888400000014,
                    "velocity": 0.2755905511811024,
                    "duration": 0.4651880000000119
                },
                {
                    "name": "F3",
                    "midi": 53,
                    "time": 182.81888400000014,
                    "velocity": 0.30708661417322836,
                    "duration": 0.4651880000000119
                },
                {
                    "name": "G#3",
                    "midi": 56,
                    "time": 183.28407200000015,
                    "velocity": 0.3779527559055118,
                    "duration": 0.4651880000000119
                },
                {
                    "name": "C#3",
                    "midi": 49,
                    "time": 183.28407200000015,
                    "velocity": 0.3779527559055118,
                    "duration": 0.4651880000000119
                },
                {
                    "name": "C#4",
                    "midi": 61,
                    "time": 183.28407200000015,
                    "velocity": 0.4251968503937008,
                    "duration": 0.4651880000000119
                },
                {
                    "name": "G#3",
                    "midi": 56,
                    "time": 183.74926000000016,
                    "velocity": 0.3543307086614173,
                    "duration": 0.4651880000000119
                },
                {
                    "name": "C3",
                    "midi": 48,
                    "time": 183.74926000000016,
                    "velocity": 0.3543307086614173,
                    "duration": 0.4651880000000119
                },
                {
                    "name": "C4",
                    "midi": 60,
                    "time": 183.74926000000016,
                    "velocity": 0.4015748031496063,
                    "duration": 0.4651880000000119
                },
                {
                    "name": "A#2",
                    "midi": 46,
                    "time": 184.21444800000017,
                    "velocity": 0.4015748031496063,
                    "duration": 0.9303759999999954
                },
                {
                    "name": "F3",
                    "midi": 53,
                    "time": 184.21444800000017,
                    "velocity": 0.4015748031496063,
                    "duration": 0.9303759999999954
                },
                {
                    "name": "A#3",
                    "midi": 58,
                    "time": 184.21444800000017,
                    "velocity": 0.44881889763779526,
                    "duration": 0.9303759999999954
                },
                {
                    "name": "G#2",
                    "midi": 44,
                    "time": 185.14482400000017,
                    "velocity": 0.3779527559055118,
                    "duration": 0.4651879999999835
                },
                {
                    "name": "G#3",
                    "midi": 56,
                    "time": 185.14482400000017,
                    "velocity": 0.4251968503937008,
                    "duration": 0.4651879999999835
                },
                {
                    "name": "F#3",
                    "midi": 54,
                    "time": 185.14482400000017,
                    "velocity": 0.3779527559055118,
                    "duration": 0.4651879999999835
                },
                {
                    "name": "C#3",
                    "midi": 49,
                    "time": 185.61001200000015,
                    "velocity": 0.4015748031496063,
                    "duration": 0.9303759999999954
                },
                {
                    "name": "F3",
                    "midi": 53,
                    "time": 185.61001200000015,
                    "velocity": 0.4015748031496063,
                    "duration": 0.9303759999999954
                },
                {
                    "name": "G#3",
                    "midi": 56,
                    "time": 185.61001200000015,
                    "velocity": 0.44881889763779526,
                    "duration": 0.9303759999999954
                },
                {
                    "name": "F4",
                    "midi": 65,
                    "time": 186.54038800000015,
                    "velocity": 0.4645669291338583,
                    "duration": 0.4419285999999829
                },
                {
                    "name": "C#4",
                    "midi": 61,
                    "time": 186.54038800000015,
                    "velocity": 0.41732283464566927,
                    "duration": 0.4419285999999829
                },
                {
                    "name": "F3",
                    "midi": 53,
                    "time": 186.54038800000015,
                    "velocity": 0.41732283464566927,
                    "duration": 0.4419285999999829
                },
                {
                    "name": "F3",
                    "midi": 53,
                    "time": 187.00557600000013,
                    "velocity": 0.4015748031496063,
                    "duration": 0.9303759999999954
                },
                {
                    "name": "C#4",
                    "midi": 61,
                    "time": 187.00557600000013,
                    "velocity": 0.4015748031496063,
                    "duration": 0.9303759999999954
                },
                {
                    "name": "F4",
                    "midi": 65,
                    "time": 187.00557600000013,
                    "velocity": 0.44881889763779526,
                    "duration": 0.9303759999999954
                },
                {
                    "name": "F#4",
                    "midi": 66,
                    "time": 187.93595200000013,
                    "velocity": 0.48031496062992124,
                    "duration": 0.23259399999997754
                },
                {
                    "name": "F#3",
                    "midi": 54,
                    "time": 187.93595200000013,
                    "velocity": 0.4251968503937008,
                    "duration": 0.23259399999997754
                },
                {
                    "name": "C#4",
                    "midi": 61,
                    "time": 187.93595200000013,
                    "velocity": 0.4251968503937008,
                    "duration": 0.4651879999999835
                },
                {
                    "name": "F4",
                    "midi": 65,
                    "time": 188.1685460000001,
                    "velocity": 0.44881889763779526,
                    "duration": 0.23259400000000596
                },
                {
                    "name": "F3",
                    "midi": 53,
                    "time": 188.1685460000001,
                    "velocity": 0.4015748031496063,
                    "duration": 0.23259400000000596
                },
                {
                    "name": "F4",
                    "midi": 65,
                    "time": 188.4011400000001,
                    "velocity": 0.4645669291338583,
                    "duration": 0.4651880000000119
                },
                {
                    "name": "C#4",
                    "midi": 61,
                    "time": 188.4011400000001,
                    "velocity": 0.41732283464566927,
                    "duration": 0.4651880000000119
                },
                {
                    "name": "F3",
                    "midi": 53,
                    "time": 188.4011400000001,
                    "velocity": 0.41732283464566927,
                    "duration": 0.4651880000000119
                },
                {
                    "name": "G#3",
                    "midi": 56,
                    "time": 192.12264400000015,
                    "velocity": 0.28346456692913385,
                    "duration": 0.4651879999999835
                },
                {
                    "name": "C#4",
                    "midi": 61,
                    "time": 192.58783200000013,
                    "velocity": 0.2992125984251969,
                    "duration": 1.8607519999999909
                },
                {
                    "name": "F4",
                    "midi": 65,
                    "time": 194.91377200000014,
                    "velocity": 0.3543307086614173,
                    "duration": 0.4651880000000119
                },
                {
                    "name": "C#4",
                    "midi": 61,
                    "time": 194.91377200000014,
                    "velocity": 0.31496062992125984,
                    "duration": 0.4651880000000119
                },
                {
                    "name": "F4",
                    "midi": 65,
                    "time": 195.37896000000015,
                    "velocity": 0.3543307086614173,
                    "duration": 1.395563999999979
                },
                {
                    "name": "C4",
                    "midi": 60,
                    "time": 195.37896000000015,
                    "velocity": 0.31496062992125984,
                    "duration": 1.8607519999999624
                },
                {
                    "name": "D#4",
                    "midi": 63,
                    "time": 196.77452400000013,
                    "velocity": 0.33858267716535434,
                    "duration": 0.4651879999999835
                },
                {
                    "name": "G#3",
                    "midi": 56,
                    "time": 197.47230600000012,
                    "velocity": 0.33070866141732286,
                    "duration": 0.23259400000000596
                },
                {
                    "name": "D#3",
                    "midi": 51,
                    "time": 197.70490000000012,
                    "velocity": 0.3464566929133858,
                    "duration": 0.23259400000000596
                },
                {
                    "name": "C3",
                    "midi": 48,
                    "time": 197.93749400000013,
                    "velocity": 0.3543307086614173,
                    "duration": 0.23259400000000596
                },
                {
                    "name": "A#2",
                    "midi": 46,
                    "time": 198.17008800000013,
                    "velocity": 0.29133858267716534,
                    "duration": 0.9303759999999954
                },
                {
                    "name": "D#3",
                    "midi": 51,
                    "time": 198.17008800000013,
                    "velocity": 0.29133858267716534,
                    "duration": 0.9303759999999954
                },
                {
                    "name": "G3",
                    "midi": 55,
                    "time": 198.17008800000013,
                    "velocity": 0.33070866141732286,
                    "duration": 0.9303759999999954
                },
                {
                    "name": "G#2",
                    "midi": 44,
                    "time": 199.10046400000013,
                    "velocity": 0.31496062992125984,
                    "duration": 0.4651879999999835
                },
                {
                    "name": "D#3",
                    "midi": 51,
                    "time": 199.10046400000013,
                    "velocity": 0.31496062992125984,
                    "duration": 0.4651879999999835
                },
                {
                    "name": "G#3",
                    "midi": 56,
                    "time": 199.10046400000013,
                    "velocity": 0.3543307086614173,
                    "duration": 0.4651879999999835
                },
                {
                    "name": "G2",
                    "midi": 43,
                    "time": 199.5656520000001,
                    "velocity": 0.3228346456692913,
                    "duration": 0.9303759999999954
                },
                {
                    "name": "D#3",
                    "midi": 51,
                    "time": 199.5656520000001,
                    "velocity": 0.3228346456692913,
                    "duration": 0.9303759999999954
                },
                {
                    "name": "G3",
                    "midi": 55,
                    "time": 199.5656520000001,
                    "velocity": 0.36220472440944884,
                    "duration": 0.9303759999999954
                },
                {
                    "name": "F2",
                    "midi": 41,
                    "time": 200.4960280000001,
                    "velocity": 0.33858267716535434,
                    "duration": 0.4651880000000119
                },
                {
                    "name": "A#2",
                    "midi": 46,
                    "time": 200.4960280000001,
                    "velocity": 0.33858267716535434,
                    "duration": 0.4651880000000119
                },
                {
                    "name": "F3",
                    "midi": 53,
                    "time": 200.4960280000001,
                    "velocity": 0.3779527559055118,
                    "duration": 0.4651880000000119
                },
                {
                    "name": "D#2",
                    "midi": 39,
                    "time": 200.96121600000012,
                    "velocity": 0.3543307086614173,
                    "duration": 1.8607520000000193
                },
                {
                    "name": "A#2",
                    "midi": 46,
                    "time": 200.96121600000012,
                    "velocity": 0.3543307086614173,
                    "duration": 1.8607520000000193
                },
                {
                    "name": "D#3",
                    "midi": 51,
                    "time": 200.96121600000012,
                    "velocity": 0.4015748031496063,
                    "duration": 1.8607520000000193
                },
                {
                    "name": "G#3",
                    "midi": 56,
                    "time": 203.28715600000015,
                    "velocity": 0.29133858267716534,
                    "duration": 0.4651880000000119
                },
                {
                    "name": "C#4",
                    "midi": 61,
                    "time": 203.75234400000016,
                    "velocity": 0.3228346456692913,
                    "duration": 1.8607519999999909
                },
                {
                    "name": "C#2",
                    "midi": 37,
                    "time": 206.07828400000017,
                    "velocity": 0.31496062992125984,
                    "duration": 0.4651880000000119
                },
                {
                    "name": "C#3",
                    "midi": 49,
                    "time": 206.07828400000017,
                    "velocity": 0.3543307086614173,
                    "duration": 0.4651880000000119
                },
                {
                    "name": "C2",
                    "midi": 36,
                    "time": 206.54347200000018,
                    "velocity": 0.3464566929133858,
                    "duration": 1.8607520000000193
                },
                {
                    "name": "C3",
                    "midi": 48,
                    "time": 206.54347200000018,
                    "velocity": 0.3858267716535433,
                    "duration": 1.8607520000000193
                },
                {
                    "name": "E4",
                    "midi": 64,
                    "time": 208.8694120000002,
                    "velocity": 0.28346456692913385,
                    "duration": 0.4651880000000119
                },
                {
                    "name": "C4",
                    "midi": 60,
                    "time": 208.8694120000002,
                    "velocity": 0.25196850393700787,
                    "duration": 0.4651880000000119
                },
                {
                    "name": "D#4",
                    "midi": 63,
                    "time": 209.33460000000022,
                    "velocity": 0.31496062992125984,
                    "duration": 0.9303760000000239
                },
                {
                    "name": "A#3",
                    "midi": 58,
                    "time": 209.33460000000022,
                    "velocity": 0.28346456692913385,
                    "duration": 0.9303760000000239
                },
                {
                    "name": "D#4",
                    "midi": 63,
                    "time": 210.26497600000025,
                    "velocity": 0.33070866141732286,
                    "duration": 0.4651880000000119
                },
                {
                    "name": "G#3",
                    "midi": 56,
                    "time": 210.26497600000025,
                    "velocity": 0.29133858267716534,
                    "duration": 0.4651880000000119
                },
                {
                    "name": "C#3",
                    "midi": 49,
                    "time": 210.73016400000026,
                    "velocity": 0.4015748031496063,
                    "duration": 0.9303759999999954
                },
                {
                    "name": "D#3",
                    "midi": 51,
                    "time": 211.66054000000025,
                    "velocity": 0.33858267716535434,
                    "duration": 0.4651880000000119
                },
                {
                    "name": "G#2",
                    "midi": 44,
                    "time": 212.12572800000027,
                    "velocity": 0.2440944881889764,
                    "duration": 1.8607519999999909
                },
                {
                    "name": "D#3",
                    "midi": 51,
                    "time": 212.12572800000027,
                    "velocity": 0.2755905511811024,
                    "duration": 1.8607519999999909
                },
                {
                    "name": "E3",
                    "midi": 52,
                    "time": 214.45166800000027,
                    "velocity": 0.1968503937007874,
                    "duration": 0.4419285999999829
                },
                {
                    "name": "G#3",
                    "midi": 56,
                    "time": 214.45166800000027,
                    "velocity": 0.1968503937007874,
                    "duration": 0.4419285999999829
                },
                {
                    "name": "B3",
                    "midi": 59,
                    "time": 214.45166800000027,
                    "velocity": 0.2204724409448819,
                    "duration": 0.4419285999999829
                },
                {
                    "name": "E3",
                    "midi": 52,
                    "time": 214.91685600000025,
                    "velocity": 0.1968503937007874,
                    "duration": 1.3955640000000074
                },
                {
                    "name": "G#3",
                    "midi": 56,
                    "time": 214.91685600000025,
                    "velocity": 0.1968503937007874,
                    "duration": 1.8607520000000193
                },
                {
                    "name": "B3",
                    "midi": 59,
                    "time": 214.91685600000025,
                    "velocity": 0.2204724409448819,
                    "duration": 1.8607520000000193
                },
                {
                    "name": "D#3",
                    "midi": 51,
                    "time": 216.31242000000026,
                    "velocity": 0.1732283464566929,
                    "duration": 0.4651880000000119
                },
                {
                    "name": "C#3",
                    "midi": 49,
                    "time": 217.24279600000028,
                    "velocity": 0.2125984251968504,
                    "duration": 0.44192860000001133
                },
                {
                    "name": "G#3",
                    "midi": 56,
                    "time": 217.24279600000028,
                    "velocity": 0.2125984251968504,
                    "duration": 0.44192860000001133
                },
                {
                    "name": "B3",
                    "midi": 59,
                    "time": 217.24279600000028,
                    "velocity": 0.23622047244094488,
                    "duration": 0.44192860000001133
                },
                {
                    "name": "C#3",
                    "midi": 49,
                    "time": 217.7079840000003,
                    "velocity": 0.2204724409448819,
                    "duration": 1.3955640000000074
                },
                {
                    "name": "G#3",
                    "midi": 56,
                    "time": 217.7079840000003,
                    "velocity": 0.2204724409448819,
                    "duration": 1.8607520000000193
                },
                {
                    "name": "B3",
                    "midi": 59,
                    "time": 217.7079840000003,
                    "velocity": 0.25196850393700787,
                    "duration": 1.8607520000000193
                },
                {
                    "name": "B2",
                    "midi": 47,
                    "time": 219.1035480000003,
                    "velocity": 0.16535433070866143,
                    "duration": 0.4651880000000119
                },
                {
                    "name": "B2",
                    "midi": 47,
                    "time": 220.03392400000033,
                    "velocity": 0.2283464566929134,
                    "duration": 0.4651880000000119
                },
                {
                    "name": "G#3",
                    "midi": 56,
                    "time": 220.03392400000033,
                    "velocity": 0.2283464566929134,
                    "duration": 0.4651880000000119
                },
                {
                    "name": "B3",
                    "midi": 59,
                    "time": 220.03392400000033,
                    "velocity": 0.25984251968503935,
                    "duration": 0.4651880000000119
                },
                {
                    "name": "C#3",
                    "midi": 49,
                    "time": 220.49911200000034,
                    "velocity": 0.2755905511811024,
                    "duration": 1.3955640000000074
                },
                {
                    "name": "A#3",
                    "midi": 58,
                    "time": 220.49911200000034,
                    "velocity": 0.30708661417322836,
                    "duration": 2.325940000000003
                },
                {
                    "name": "G#3",
                    "midi": 56,
                    "time": 220.49911200000034,
                    "velocity": 0.2755905511811024,
                    "duration": 2.325940000000003
                },
                {
                    "name": "A#2",
                    "midi": 46,
                    "time": 221.89467600000035,
                    "velocity": 0.31496062992125984,
                    "duration": 0.4651879999999835
                },
                {
                    "name": "B2",
                    "midi": 47,
                    "time": 222.35986400000033,
                    "velocity": 0.29133858267716534,
                    "duration": 0.4651880000000119
                },
                {
                    "name": "C#3",
                    "midi": 49,
                    "time": 222.82505200000034,
                    "velocity": 0.2755905511811024,
                    "duration": 0.4651880000000119
                },
                {
                    "name": "D#3",
                    "midi": 51,
                    "time": 223.29024000000035,
                    "velocity": 0.2755905511811024,
                    "duration": 1.8607519999999909
                },
                {
                    "name": "E3",
                    "midi": 52,
                    "time": 225.61618000000036,
                    "velocity": 0.1732283464566929,
                    "duration": 0.44192860000001133
                },
                {
                    "name": "G#3",
                    "midi": 56,
                    "time": 225.61618000000036,
                    "velocity": 0.1732283464566929,
                    "duration": 0.44192860000001133
                },
                {
                    "name": "B3",
                    "midi": 59,
                    "time": 225.61618000000036,
                    "velocity": 0.1968503937007874,
                    "duration": 0.44192860000001133
                },
                {
                    "name": "E3",
                    "midi": 52,
                    "time": 226.08136800000037,
                    "velocity": 0.1732283464566929,
                    "duration": 1.3955640000000074
                },
                {
                    "name": "G#3",
                    "midi": 56,
                    "time": 226.08136800000037,
                    "velocity": 0.1732283464566929,
                    "duration": 1.8607520000000193
                },
                {
                    "name": "B3",
                    "midi": 59,
                    "time": 226.08136800000037,
                    "velocity": 0.1968503937007874,
                    "duration": 1.8607520000000193
                },
                {
                    "name": "D#3",
                    "midi": 51,
                    "time": 227.47693200000037,
                    "velocity": 0.14960629921259844,
                    "duration": 0.4651880000000119
                },
                {
                    "name": "C#3",
                    "midi": 49,
                    "time": 228.4073080000004,
                    "velocity": 0.2204724409448819,
                    "duration": 0.44192860000001133
                },
                {
                    "name": "G#3",
                    "midi": 56,
                    "time": 228.4073080000004,
                    "velocity": 0.2204724409448819,
                    "duration": 0.44192860000001133
                },
                {
                    "name": "B3",
                    "midi": 59,
                    "time": 228.4073080000004,
                    "velocity": 0.25196850393700787,
                    "duration": 0.44192860000001133
                },
                {
                    "name": "C#3",
                    "midi": 49,
                    "time": 228.8724960000004,
                    "velocity": 0.2125984251968504,
                    "duration": 1.3955640000000074
                },
                {
                    "name": "G#3",
                    "midi": 56,
                    "time": 228.8724960000004,
                    "velocity": 0.2125984251968504,
                    "duration": 1.8607520000000193
                },
                {
                    "name": "B3",
                    "midi": 59,
                    "time": 228.8724960000004,
                    "velocity": 0.2440944881889764,
                    "duration": 1.8607520000000193
                },
                {
                    "name": "B2",
                    "midi": 47,
                    "time": 230.26806000000042,
                    "velocity": 0.14173228346456693,
                    "duration": 0.4651880000000119
                },
                {
                    "name": "E3",
                    "midi": 52,
                    "time": 231.19843600000044,
                    "velocity": 0.2677165354330709,
                    "duration": 0.4651880000000119
                },
                {
                    "name": "B2",
                    "midi": 47,
                    "time": 231.19843600000044,
                    "velocity": 0.2677165354330709,
                    "duration": 0.4651880000000119
                },
                {
                    "name": "G#3",
                    "midi": 56,
                    "time": 231.19843600000044,
                    "velocity": 0.2677165354330709,
                    "duration": 0.4651880000000119
                },
                {
                    "name": "B3",
                    "midi": 59,
                    "time": 231.19843600000044,
                    "velocity": 0.2992125984251969,
                    "duration": 0.4651880000000119
                },
                {
                    "name": "B2",
                    "midi": 47,
                    "time": 231.66362400000045,
                    "velocity": 0.30708661417322836,
                    "duration": 1.3955640000000074
                },
                {
                    "name": "E3",
                    "midi": 52,
                    "time": 231.66362400000045,
                    "velocity": 0.30708661417322836,
                    "duration": 1.3955640000000074
                },
                {
                    "name": "G#3",
                    "midi": 56,
                    "time": 231.66362400000045,
                    "velocity": 0.30708661417322836,
                    "duration": 1.3955640000000074
                },
                {
                    "name": "B3",
                    "midi": 59,
                    "time": 231.66362400000045,
                    "velocity": 0.3464566929133858,
                    "duration": 1.3955640000000074
                },
                {
                    "name": "B2",
                    "midi": 47,
                    "time": 233.05918800000046,
                    "velocity": 0.29133858267716534,
                    "duration": 1.395563999999979
                },
                {
                    "name": "E3",
                    "midi": 52,
                    "time": 233.05918800000046,
                    "velocity": 0.29133858267716534,
                    "duration": 1.395563999999979
                },
                {
                    "name": "G#3",
                    "midi": 56,
                    "time": 233.05918800000046,
                    "velocity": 0.29133858267716534,
                    "duration": 1.395563999999979
                },
                {
                    "name": "B3",
                    "midi": 59,
                    "time": 233.05918800000046,
                    "velocity": 0.33070866141732286,
                    "duration": 1.395563999999979
                },
                {
                    "name": "B2",
                    "midi": 47,
                    "time": 234.45475200000044,
                    "velocity": 0.2755905511811024,
                    "duration": 1.395563999999979
                },
                {
                    "name": "F3",
                    "midi": 53,
                    "time": 234.45475200000044,
                    "velocity": 0.2755905511811024,
                    "duration": 1.395563999999979
                },
                {
                    "name": "G#3",
                    "midi": 56,
                    "time": 234.45475200000044,
                    "velocity": 0.30708661417322836,
                    "duration": 1.395563999999979
                },
                {
                    "name": "B2",
                    "midi": 47,
                    "time": 235.85031600000042,
                    "velocity": 0.33858267716535434,
                    "duration": 1.395563999999979
                },
                {
                    "name": "F#3",
                    "midi": 54,
                    "time": 235.85031600000042,
                    "velocity": 0.2992125984251969,
                    "duration": 0.4651879999999835
                },
                {
                    "name": "A3",
                    "midi": 57,
                    "time": 235.85031600000042,
                    "velocity": 0.33858267716535434,
                    "duration": 0.4651879999999835
                },
                {
                    "name": "G#3",
                    "midi": 56,
                    "time": 236.3155040000004,
                    "velocity": 0.2992125984251969,
                    "duration": 0.4651879999999835
                },
                {
                    "name": "B3",
                    "midi": 59,
                    "time": 236.3155040000004,
                    "velocity": 0.33858267716535434,
                    "duration": 0.4651879999999835
                },
                {
                    "name": "A3",
                    "midi": 57,
                    "time": 236.78069200000039,
                    "velocity": 0.2992125984251969,
                    "duration": 0.4651880000000119
                },
                {
                    "name": "B3",
                    "midi": 59,
                    "time": 236.78069200000039,
                    "velocity": 0.33858267716535434,
                    "duration": 0.4651880000000119
                },
                {
                    "name": "E2",
                    "midi": 40,
                    "time": 237.2458800000004,
                    "velocity": 0.3228346456692913,
                    "duration": 1.395563999999979
                },
                {
                    "name": "B2",
                    "midi": 47,
                    "time": 237.2458800000004,
                    "velocity": 0.3228346456692913,
                    "duration": 1.395563999999979
                },
                {
                    "name": "E3",
                    "midi": 52,
                    "time": 237.2458800000004,
                    "velocity": 0.36220472440944884,
                    "duration": 1.395563999999979
                },
                {
                    "name": "E2",
                    "midi": 40,
                    "time": 238.64144400000038,
                    "velocity": 0.36220472440944884,
                    "duration": 1.3955640000000074
                },
                {
                    "name": "E2",
                    "midi": 40,
                    "time": 240.03700800000038,
                    "velocity": 0.25984251968503935,
                    "duration": 1.395563999999979
                },
                {
                    "name": "A2",
                    "midi": 45,
                    "time": 240.03700800000038,
                    "velocity": 0.29133858267716534,
                    "duration": 0.6977819999999895
                },
                {
                    "name": "B2",
                    "midi": 47,
                    "time": 240.73479000000037,
                    "velocity": 0.2755905511811024,
                    "duration": 0.23259400000000596
                },
                {
                    "name": "C3",
                    "midi": 48,
                    "time": 240.96738400000038,
                    "velocity": 0.25984251968503935,
                    "duration": 0.4651879999999835
                },
                {
                    "name": "B2",
                    "midi": 47,
                    "time": 241.43257200000036,
                    "velocity": 0.2125984251968504,
                    "duration": 1.3955640000000074
                },
                {
                    "name": "E2",
                    "midi": 40,
                    "time": 241.43257200000036,
                    "velocity": 0.1889763779527559,
                    "duration": 1.3955640000000074
                },
                {
                    "name": "E2",
                    "midi": 40,
                    "time": 242.82813600000037,
                    "velocity": 0.36220472440944884,
                    "duration": 1.3955640000000074
                },
                {
                    "name": "E2",
                    "midi": 40,
                    "time": 244.22370000000038,
                    "velocity": 0.2125984251968504,
                    "duration": 1.395563999999979
                },
                {
                    "name": "A2",
                    "midi": 45,
                    "time": 244.22370000000038,
                    "velocity": 0.2755905511811024,
                    "duration": 0.6977819999999895
                },
                {
                    "name": "B2",
                    "midi": 47,
                    "time": 244.92148200000037,
                    "velocity": 0.25196850393700787,
                    "duration": 0.23259399999997754
                },
                {
                    "name": "C3",
                    "midi": 48,
                    "time": 245.15407600000034,
                    "velocity": 0.2283464566929134,
                    "duration": 0.4651880000000119
                },
                {
                    "name": "B2",
                    "midi": 47,
                    "time": 245.61926400000036,
                    "velocity": 0.18110236220472442,
                    "duration": 1.3955640000000074
                },
                {
                    "name": "E2",
                    "midi": 40,
                    "time": 245.61926400000036,
                    "velocity": 0.15748031496062992,
                    "duration": 1.3955640000000074
                },
                {
                    "name": "E3",
                    "midi": 52,
                    "time": 247.01482800000036,
                    "velocity": 0.2204724409448819,
                    "duration": 0.9303759999999954
                },
                {
                    "name": "B3",
                    "midi": 59,
                    "time": 247.01482800000036,
                    "velocity": 0.25196850393700787,
                    "duration": 0.9303759999999954
                },
                {
                    "name": "E3",
                    "midi": 52,
                    "time": 247.94520400000036,
                    "velocity": 0.18110236220472442,
                    "duration": 0.4651880000000119
                },
                {
                    "name": "B3",
                    "midi": 59,
                    "time": 247.94520400000036,
                    "velocity": 0.2047244094488189,
                    "duration": 0.4651880000000119
                },
                {
                    "name": "E3",
                    "midi": 52,
                    "time": 248.41039200000037,
                    "velocity": 0.2204724409448819,
                    "duration": 0.9303760000000239
                },
                {
                    "name": "B3",
                    "midi": 59,
                    "time": 248.41039200000037,
                    "velocity": 0.25196850393700787,
                    "duration": 0.9303760000000239
                },
                {
                    "name": "E3",
                    "midi": 52,
                    "time": 249.3407680000004,
                    "velocity": 0.1968503937007874,
                    "duration": 0.4651879999999835
                },
                {
                    "name": "G#3",
                    "midi": 56,
                    "time": 249.3407680000004,
                    "velocity": 0.1968503937007874,
                    "duration": 0.4651879999999835
                },
                {
                    "name": "D#3",
                    "midi": 51,
                    "time": 249.80595600000038,
                    "velocity": 0.2204724409448819,
                    "duration": 2.325940000000003
                },
                {
                    "name": "A#3",
                    "midi": 58,
                    "time": 249.80595600000038,
                    "velocity": 0.25196850393700787,
                    "duration": 2.325940000000003
                },
                {
                    "name": "D#3",
                    "midi": 51,
                    "time": 252.5970840000004,
                    "velocity": 0.2204724409448819,
                    "duration": 0.9303760000000239
                },
                {
                    "name": "F3",
                    "midi": 53,
                    "time": 252.5970840000004,
                    "velocity": 0.2204724409448819,
                    "duration": 0.9303760000000239
                },
                {
                    "name": "G#3",
                    "midi": 56,
                    "time": 252.5970840000004,
                    "velocity": 0.2204724409448819,
                    "duration": 0.9303760000000239
                },
                {
                    "name": "C#4",
                    "midi": 61,
                    "time": 252.5970840000004,
                    "velocity": 0.25196850393700787,
                    "duration": 0.9303760000000239
                },
                {
                    "name": "D#3",
                    "midi": 51,
                    "time": 253.52746000000042,
                    "velocity": 0.2204724409448819,
                    "duration": 0.4651880000000119
                },
                {
                    "name": "F3",
                    "midi": 53,
                    "time": 253.52746000000042,
                    "velocity": 0.2204724409448819,
                    "duration": 0.4651880000000119
                },
                {
                    "name": "G#3",
                    "midi": 56,
                    "time": 253.52746000000042,
                    "velocity": 0.2204724409448819,
                    "duration": 0.4651880000000119
                },
                {
                    "name": "C#4",
                    "midi": 61,
                    "time": 253.52746000000042,
                    "velocity": 0.25196850393700787,
                    "duration": 0.4651880000000119
                },
                {
                    "name": "C#4",
                    "midi": 61,
                    "time": 253.99264800000043,
                    "velocity": 0.28346456692913385,
                    "duration": 0.9303759999999954
                },
                {
                    "name": "A#3",
                    "midi": 58,
                    "time": 253.99264800000043,
                    "velocity": 0.25196850393700787,
                    "duration": 0.9303759999999954
                },
                {
                    "name": "G3",
                    "midi": 55,
                    "time": 253.99264800000043,
                    "velocity": 0.25196850393700787,
                    "duration": 0.9303759999999954
                },
                {
                    "name": "D#3",
                    "midi": 51,
                    "time": 253.99264800000043,
                    "velocity": 0.25196850393700787,
                    "duration": 0.9303759999999954
                },
                {
                    "name": "D#4",
                    "midi": 63,
                    "time": 254.92302400000042,
                    "velocity": 0.2440944881889764,
                    "duration": 0.4651880000000119
                },
                {
                    "name": "D#3",
                    "midi": 51,
                    "time": 254.92302400000042,
                    "velocity": 0.2125984251968504,
                    "duration": 0.4651880000000119
                },
                {
                    "name": "D#4",
                    "midi": 63,
                    "time": 255.38821200000044,
                    "velocity": 0.25984251968503935,
                    "duration": 1.8607520000000193
                },
                {
                    "name": "G#3",
                    "midi": 56,
                    "time": 255.38821200000044,
                    "velocity": 0.2283464566929134,
                    "duration": 1.8607520000000193
                },
                {
                    "name": "G#3",
                    "midi": 56,
                    "time": 257.71415200000047,
                    "velocity": 0.4015748031496063,
                    "duration": 0.4419285999999829
                },
                {
                    "name": "C4",
                    "midi": 60,
                    "time": 257.71415200000047,
                    "velocity": 0.4015748031496063,
                    "duration": 0.4419285999999829
                },
                {
                    "name": "F4",
                    "midi": 65,
                    "time": 257.71415200000047,
                    "velocity": 0.44881889763779526,
                    "duration": 0.4419285999999829
                },
                {
                    "name": "G#3",
                    "midi": 56,
                    "time": 258.1793400000004,
                    "velocity": 0.4015748031496063,
                    "duration": 0.9303760000000239
                },
                {
                    "name": "C4",
                    "midi": 60,
                    "time": 258.1793400000004,
                    "velocity": 0.4015748031496063,
                    "duration": 0.9303760000000239
                },
                {
                    "name": "F4",
                    "midi": 65,
                    "time": 258.1793400000004,
                    "velocity": 0.44881889763779526,
                    "duration": 0.9303760000000239
                },
                {
                    "name": "G#3",
                    "midi": 56,
                    "time": 259.10971600000045,
                    "velocity": 0.4015748031496063,
                    "duration": 0.4651880000000119
                },
                {
                    "name": "C4",
                    "midi": 60,
                    "time": 259.10971600000045,
                    "velocity": 0.4015748031496063,
                    "duration": 0.4651880000000119
                },
                {
                    "name": "F4",
                    "midi": 65,
                    "time": 259.10971600000045,
                    "velocity": 0.44881889763779526,
                    "duration": 0.4651880000000119
                },
                {
                    "name": "G#3",
                    "midi": 56,
                    "time": 259.57490400000046,
                    "velocity": 0.4251968503937008,
                    "duration": 0.9303760000000239
                },
                {
                    "name": "C4",
                    "midi": 60,
                    "time": 259.57490400000046,
                    "velocity": 0.48031496062992124,
                    "duration": 0.9303760000000239
                },
                {
                    "name": "G#3",
                    "midi": 56,
                    "time": 260.5052800000005,
                    "velocity": 0.3779527559055118,
                    "duration": 0.4651880000000119
                },
                {
                    "name": "C4",
                    "midi": 60,
                    "time": 260.5052800000005,
                    "velocity": 0.4251968503937008,
                    "duration": 0.4651880000000119
                },
                {
                    "name": "F4",
                    "midi": 65,
                    "time": 260.9704680000005,
                    "velocity": 0.44881889763779526,
                    "duration": 2.3259400000000596
                },
                {
                    "name": "C#4",
                    "midi": 61,
                    "time": 260.9704680000005,
                    "velocity": 0.4015748031496063,
                    "duration": 2.7911280000000716
                },
                {
                    "name": "A#3",
                    "midi": 58,
                    "time": 260.9704680000005,
                    "velocity": 0.4015748031496063,
                    "duration": 2.7911280000000716
                },
                {
                    "name": "G3",
                    "midi": 55,
                    "time": 260.9704680000005,
                    "velocity": 0.4015748031496063,
                    "duration": 2.7911280000000716
                },
                {
                    "name": "E4",
                    "midi": 64,
                    "time": 263.29640800000055,
                    "velocity": 0.3464566929133858,
                    "duration": 0.4651880000000119
                },
                {
                    "name": "D#4",
                    "midi": 63,
                    "time": 263.76159600000057,
                    "velocity": 0.25196850393700787,
                    "duration": 2.325940000000003
                },
                {
                    "name": "G3",
                    "midi": 55,
                    "time": 263.76159600000057,
                    "velocity": 0.2204724409448819,
                    "duration": 2.325940000000003
                },
                {
                    "name": "G#3",
                    "midi": 56,
                    "time": 266.08753600000057,
                    "velocity": 0.25196850393700787,
                    "duration": 0.4651880000000119
                },
                {
                    "name": "C#4",
                    "midi": 61,
                    "time": 266.5527240000006,
                    "velocity": 0.25984251968503935,
                    "duration": 1.8607520000000477
                },
                {
                    "name": "F4",
                    "midi": 65,
                    "time": 268.87866400000064,
                    "velocity": 0.28346456692913385,
                    "duration": 0.4651880000000119
                },
                {
                    "name": "C#4",
                    "midi": 61,
                    "time": 268.87866400000064,
                    "velocity": 0.25196850393700787,
                    "duration": 0.4651880000000119
                },
                {
                    "name": "F4",
                    "midi": 65,
                    "time": 269.34385200000065,
                    "velocity": 0.28346456692913385,
                    "duration": 1.395563999999979
                },
                {
                    "name": "C4",
                    "midi": 60,
                    "time": 269.34385200000065,
                    "velocity": 0.25196850393700787,
                    "duration": 1.8607519999999909
                },
                {
                    "name": "D#4",
                    "midi": 63,
                    "time": 270.73941600000063,
                    "velocity": 0.2677165354330709,
                    "duration": 0.4651880000000119
                },
                {
                    "name": "G#3",
                    "midi": 56,
                    "time": 271.43719800000065,
                    "velocity": 0.29133858267716534,
                    "duration": 0.6977820000000179
                },
                {
                    "name": "D#3",
                    "midi": 51,
                    "time": 271.66979200000065,
                    "velocity": 0.30708661417322836,
                    "duration": 0.23259400000000596
                },
                {
                    "name": "C3",
                    "midi": 48,
                    "time": 271.90238600000066,
                    "velocity": 0.31496062992125984,
                    "duration": 0.23259400000000596
                },
                {
                    "name": "A#2",
                    "midi": 46,
                    "time": 272.13498000000067,
                    "velocity": 0.25984251968503935,
                    "duration": 0.9303760000000239
                },
                {
                    "name": "D#3",
                    "midi": 51,
                    "time": 272.13498000000067,
                    "velocity": 0.25984251968503935,
                    "duration": 0.9303760000000239
                },
                {
                    "name": "G3",
                    "midi": 55,
                    "time": 272.13498000000067,
                    "velocity": 0.29133858267716534,
                    "duration": 0.9303760000000239
                },
                {
                    "name": "G#2",
                    "midi": 44,
                    "time": 273.0653560000007,
                    "velocity": 0.28346456692913385,
                    "duration": 0.4651880000000119
                },
                {
                    "name": "D#3",
                    "midi": 51,
                    "time": 273.0653560000007,
                    "velocity": 0.28346456692913385,
                    "duration": 0.4651880000000119
                },
                {
                    "name": "G#3",
                    "midi": 56,
                    "time": 273.0653560000007,
                    "velocity": 0.31496062992125984,
                    "duration": 0.4651880000000119
                },
                {
                    "name": "G2",
                    "midi": 43,
                    "time": 273.5305440000007,
                    "velocity": 0.28346456692913385,
                    "duration": 0.9303760000000239
                },
                {
                    "name": "D#3",
                    "midi": 51,
                    "time": 273.5305440000007,
                    "velocity": 0.28346456692913385,
                    "duration": 0.9303760000000239
                },
                {
                    "name": "G3",
                    "midi": 55,
                    "time": 273.5305440000007,
                    "velocity": 0.3228346456692913,
                    "duration": 0.9303760000000239
                },
                {
                    "name": "F2",
                    "midi": 41,
                    "time": 274.4609200000007,
                    "velocity": 0.31496062992125984,
                    "duration": 0.4651880000000119
                },
                {
                    "name": "A#2",
                    "midi": 46,
                    "time": 274.4609200000007,
                    "velocity": 0.31496062992125984,
                    "duration": 0.4651880000000119
                },
                {
                    "name": "F3",
                    "midi": 53,
                    "time": 274.4609200000007,
                    "velocity": 0.3543307086614173,
                    "duration": 0.4651880000000119
                },
                {
                    "name": "D#2",
                    "midi": 39,
                    "time": 274.92610800000074,
                    "velocity": 0.33858267716535434,
                    "duration": 1.8607519999999909
                },
                {
                    "name": "A#2",
                    "midi": 46,
                    "time": 274.92610800000074,
                    "velocity": 0.33858267716535434,
                    "duration": 1.8607519999999909
                },
                {
                    "name": "D#3",
                    "midi": 51,
                    "time": 274.92610800000074,
                    "velocity": 0.3779527559055118,
                    "duration": 1.8607519999999909
                },
                {
                    "name": "G#1",
                    "midi": 32,
                    "time": 277.25204800000074,
                    "velocity": 0.3543307086614173,
                    "duration": 0.4651880000000119
                },
                {
                    "name": "G#2",
                    "midi": 44,
                    "time": 277.25204800000074,
                    "velocity": 0.3937007874015748,
                    "duration": 0.4651880000000119
                },
                {
                    "name": "C#2",
                    "midi": 37,
                    "time": 277.71723600000075,
                    "velocity": 0.4015748031496063,
                    "duration": 1.8607519999999909
                },
                {
                    "name": "C#3",
                    "midi": 49,
                    "time": 277.71723600000075,
                    "velocity": 0.44881889763779526,
                    "duration": 1.8607519999999909
                },
                {
                    "name": "G#1",
                    "midi": 32,
                    "time": 280.04317600000076,
                    "velocity": 0.3543307086614173,
                    "duration": 0.4651880000000119
                },
                {
                    "name": "G#2",
                    "midi": 44,
                    "time": 280.04317600000076,
                    "velocity": 0.3937007874015748,
                    "duration": 0.4651880000000119
                },
                {
                    "name": "C#2",
                    "midi": 37,
                    "time": 280.50836400000077,
                    "velocity": 0.4015748031496063,
                    "duration": 1.8607519999999909
                },
                {
                    "name": "C#3",
                    "midi": 49,
                    "time": 280.50836400000077,
                    "velocity": 0.44881889763779526,
                    "duration": 1.8607519999999909
                },
                {
                    "name": "D2",
                    "midi": 38,
                    "time": 282.83430400000077,
                    "velocity": 0.4330708661417323,
                    "duration": 0.9216537249999988
                },
                {
                    "name": "D3",
                    "midi": 50,
                    "time": 282.83430400000077,
                    "velocity": 0.4881889763779528,
                    "duration": 0.9216537249999988
                },
                {
                    "name": "D2",
                    "midi": 38,
                    "time": 283.7646800000008,
                    "velocity": 0.4409448818897638,
                    "duration": 0.4419285999999829
                },
                {
                    "name": "D3",
                    "midi": 50,
                    "time": 283.7646800000008,
                    "velocity": 0.49606299212598426,
                    "duration": 0.4419285999999829
                },
                {
                    "name": "D2",
                    "midi": 38,
                    "time": 284.22986800000075,
                    "velocity": 0.4409448818897638,
                    "duration": 0.4419285999999829
                },
                {
                    "name": "D3",
                    "midi": 50,
                    "time": 284.22986800000075,
                    "velocity": 0.49606299212598426,
                    "duration": 0.4419285999999829
                },
                {
                    "name": "D2",
                    "midi": 38,
                    "time": 284.6950560000007,
                    "velocity": 0.4251968503937008,
                    "duration": 0.44192860000003975
                },
                {
                    "name": "D3",
                    "midi": 50,
                    "time": 284.6950560000007,
                    "velocity": 0.48031496062992124,
                    "duration": 0.44192860000003975
                },
                {
                    "name": "C#2",
                    "midi": 37,
                    "time": 285.1602440000007,
                    "velocity": 0.47244094488188976,
                    "duration": 0.4651880000000119
                },
                {
                    "name": "C#3",
                    "midi": 49,
                    "time": 285.1602440000007,
                    "velocity": 0.5275590551181102,
                    "duration": 0.4651880000000119
                },
                {
                    "name": "B1",
                    "midi": 35,
                    "time": 285.6254320000007,
                    "velocity": 0.49606299212598426,
                    "duration": 0.4651880000000119
                },
                {
                    "name": "B2",
                    "midi": 47,
                    "time": 285.6254320000007,
                    "velocity": 0.5511811023622047,
                    "duration": 0.4651880000000119
                },
                {
                    "name": "A1",
                    "midi": 33,
                    "time": 286.09062000000074,
                    "velocity": 0.5039370078740157,
                    "duration": 0.4651879999999551
                },
                {
                    "name": "A2",
                    "midi": 45,
                    "time": 286.09062000000074,
                    "velocity": 0.5669291338582677,
                    "duration": 0.4651879999999551
                },
                {
                    "name": "B2",
                    "midi": 47,
                    "time": 286.5558080000007,
                    "velocity": 0.5196850393700787,
                    "duration": 0.4651880000000119
                },
                {
                    "name": "B1",
                    "midi": 35,
                    "time": 286.5558080000007,
                    "velocity": 0.4645669291338583,
                    "duration": 0.4651880000000119
                },
                {
                    "name": "C#2",
                    "midi": 37,
                    "time": 287.0209960000007,
                    "velocity": 0.4015748031496063,
                    "duration": 0.4651880000000119
                },
                {
                    "name": "C#3",
                    "midi": 49,
                    "time": 287.0209960000007,
                    "velocity": 0.44881889763779526,
                    "duration": 0.4651880000000119
                },
                {
                    "name": "D#2",
                    "midi": 39,
                    "time": 287.4861840000007,
                    "velocity": 0.2755905511811024,
                    "duration": 2.325939999999946
                },
                {
                    "name": "D#3",
                    "midi": 51,
                    "time": 287.4861840000007,
                    "velocity": 0.30708661417322836,
                    "duration": 2.325939999999946
                },
                {
                    "name": "E3",
                    "midi": 52,
                    "time": 289.81212400000067,
                    "velocity": 0.3779527559055118,
                    "duration": 0.9216537249999988
                },
                {
                    "name": "D3",
                    "midi": 50,
                    "time": 289.81212400000067,
                    "velocity": 0.3779527559055118,
                    "duration": 0.9216537249999988
                },
                {
                    "name": "G#3",
                    "midi": 56,
                    "time": 289.81212400000067,
                    "velocity": 0.3779527559055118,
                    "duration": 0.9216537249999988
                },
                {
                    "name": "B3",
                    "midi": 59,
                    "time": 289.81212400000067,
                    "velocity": 0.47244094488188976,
                    "duration": 0.9216537249999988
                },
                {
                    "name": "D3",
                    "midi": 50,
                    "time": 290.7425000000007,
                    "velocity": 0.2755905511811024,
                    "duration": 0.4419285999999829
                },
                {
                    "name": "E3",
                    "midi": 52,
                    "time": 290.7425000000007,
                    "velocity": 0.2755905511811024,
                    "duration": 0.4419285999999829
                },
                {
                    "name": "G#3",
                    "midi": 56,
                    "time": 290.7425000000007,
                    "velocity": 0.2755905511811024,
                    "duration": 0.4419285999999829
                },
                {
                    "name": "B3",
                    "midi": 59,
                    "time": 290.7425000000007,
                    "velocity": 0.3464566929133858,
                    "duration": 0.4419285999999829
                },
                {
                    "name": "D3",
                    "midi": 50,
                    "time": 291.20768800000064,
                    "velocity": 0.2755905511811024,
                    "duration": 0.4419285999999829
                },
                {
                    "name": "E3",
                    "midi": 52,
                    "time": 291.20768800000064,
                    "velocity": 0.2755905511811024,
                    "duration": 0.4419285999999829
                },
                {
                    "name": "G#3",
                    "midi": 56,
                    "time": 291.20768800000064,
                    "velocity": 0.2755905511811024,
                    "duration": 0.4419285999999829
                },
                {
                    "name": "B3",
                    "midi": 59,
                    "time": 291.20768800000064,
                    "velocity": 0.3464566929133858,
                    "duration": 0.4419285999999829
                },
                {
                    "name": "D3",
                    "midi": 50,
                    "time": 291.6728760000006,
                    "velocity": 0.25196850393700787,
                    "duration": 0.4419285999999829
                },
                {
                    "name": "E3",
                    "midi": 52,
                    "time": 291.6728760000006,
                    "velocity": 0.25196850393700787,
                    "duration": 0.4419285999999829
                },
                {
                    "name": "G#3",
                    "midi": 56,
                    "time": 291.6728760000006,
                    "velocity": 0.25196850393700787,
                    "duration": 0.4419285999999829
                },
                {
                    "name": "B3",
                    "midi": 59,
                    "time": 291.6728760000006,
                    "velocity": 0.3228346456692913,
                    "duration": 0.4419285999999829
                },
                {
                    "name": "C#3",
                    "midi": 49,
                    "time": 292.13806400000055,
                    "velocity": 0.2755905511811024,
                    "duration": 0.4651880000000119
                },
                {
                    "name": "E3",
                    "midi": 52,
                    "time": 292.13806400000055,
                    "velocity": 0.2755905511811024,
                    "duration": 0.4651880000000119
                },
                {
                    "name": "A3",
                    "midi": 57,
                    "time": 292.13806400000055,
                    "velocity": 0.2755905511811024,
                    "duration": 0.4651880000000119
                },
                {
                    "name": "C#4",
                    "midi": 61,
                    "time": 292.13806400000055,
                    "velocity": 0.3464566929133858,
                    "duration": 0.4651880000000119
                },
                {
                    "name": "B2",
                    "midi": 47,
                    "time": 292.60325200000057,
                    "velocity": 0.2755905511811024,
                    "duration": 0.34889100000003737
                },
                {
                    "name": "E3",
                    "midi": 52,
                    "time": 292.60325200000057,
                    "velocity": 0.2755905511811024,
                    "duration": 0.34889100000003737
                },
                {
                    "name": "D4",
                    "midi": 62,
                    "time": 292.60325200000057,
                    "velocity": 0.3464566929133858,
                    "duration": 0.34889100000003737
                },
                {
                    "name": "B3",
                    "midi": 59,
                    "time": 292.60325200000057,
                    "velocity": 0.2755905511811024,
                    "duration": 0.34889100000003737
                },
                {
                    "name": "F#4",
                    "midi": 66,
                    "time": 292.9521430000006,
                    "velocity": 0.3779527559055118,
                    "duration": 0.11629699999997456
                },
                {
                    "name": "A2",
                    "midi": 45,
                    "time": 293.0684400000006,
                    "velocity": 0.25984251968503935,
                    "duration": 0.4651879999999551
                },
                {
                    "name": "E3",
                    "midi": 52,
                    "time": 293.0684400000006,
                    "velocity": 0.25984251968503935,
                    "duration": 0.4651879999999551
                },
                {
                    "name": "C#4",
                    "midi": 61,
                    "time": 293.0684400000006,
                    "velocity": 0.25984251968503935,
                    "duration": 0.4651879999999551
                },
                {
                    "name": "E4",
                    "midi": 64,
                    "time": 293.0684400000006,
                    "velocity": 0.33070866141732286,
                    "duration": 0.4651879999999551
                },
                {
                    "name": "B2",
                    "midi": 47,
                    "time": 293.53362800000053,
                    "velocity": 0.25196850393700787,
                    "duration": 0.4651880000000119
                },
                {
                    "name": "E3",
                    "midi": 52,
                    "time": 293.53362800000053,
                    "velocity": 0.25196850393700787,
                    "duration": 0.4651880000000119
                },
                {
                    "name": "B3",
                    "midi": 59,
                    "time": 293.53362800000053,
                    "velocity": 0.25196850393700787,
                    "duration": 0.4651880000000119
                },
                {
                    "name": "D4",
                    "midi": 62,
                    "time": 293.53362800000053,
                    "velocity": 0.31496062992125984,
                    "duration": 0.4651880000000119
                },
                {
                    "name": "C#3",
                    "midi": 49,
                    "time": 293.99881600000055,
                    "velocity": 0.2204724409448819,
                    "duration": 0.46518800000006877
                },
                {
                    "name": "E3",
                    "midi": 52,
                    "time": 293.99881600000055,
                    "velocity": 0.2204724409448819,
                    "duration": 0.46518800000006877
                },
                {
                    "name": "A3",
                    "midi": 57,
                    "time": 293.99881600000055,
                    "velocity": 0.2204724409448819,
                    "duration": 0.46518800000006877
                },
                {
                    "name": "C#4",
                    "midi": 61,
                    "time": 293.99881600000055,
                    "velocity": 0.28346456692913385,
                    "duration": 0.46518800000006877
                },
                {
                    "name": "D#3",
                    "midi": 51,
                    "time": 294.4640040000006,
                    "velocity": 0.2125984251968504,
                    "duration": 2.791127999999958
                },
                {
                    "name": "G#3",
                    "midi": 56,
                    "time": 294.4640040000006,
                    "velocity": 0.2125984251968504,
                    "duration": 1.395563999999979
                },
                {
                    "name": "B3",
                    "midi": 59,
                    "time": 294.4640040000006,
                    "velocity": 0.2440944881889764,
                    "duration": 1.395563999999979
                },
                {
                    "name": "D#2",
                    "midi": 39,
                    "time": 295.8595680000006,
                    "velocity": 0.1968503937007874,
                    "duration": 1.395563999999979
                },
                {
                    "name": "G3",
                    "midi": 55,
                    "time": 295.8595680000006,
                    "velocity": 0.2204724409448819,
                    "duration": 1.395563999999979
                },
                {
                    "name": "A#3",
                    "midi": 58,
                    "time": 295.8595680000006,
                    "velocity": 0.2204724409448819,
                    "duration": 1.395563999999979
                },
                {
                    "name": "G#1",
                    "midi": 32,
                    "time": 297.2551320000006,
                    "velocity": 0.1968503937007874,
                    "duration": 2.3259400000000596
                },
                {
                    "name": "G#2",
                    "midi": 44,
                    "time": 297.2551320000006,
                    "velocity": 0.1968503937007874,
                    "duration": 2.3259400000000596
                },
                {
                    "name": "G#3",
                    "midi": 56,
                    "time": 297.2551320000006,
                    "velocity": 0.2204724409448819,
                    "duration": 2.3259400000000596
                }
            ],
            "controlChanges": {
                "7": [
                    {
                        "number": 7,
                        "time": 0,
                        "value": 0.7874015748031497
                    }
                ],
                "10": [
                    {
                        "number": 10,
                        "time": 0,
                        "value": 0.5039370078740157
                    }
                ],
                "64": [
                    {
                        "number": 64,
                        "time": 0,
                        "value": 0
                    },
                    {
                        "number": 64,
                        "time": 1.0340741583333335,
                        "value": 1
                    },
                    {
                        "number": 64,
                        "time": 1.4052554166666669,
                        "value": 0
                    },
                    {
                        "number": 64,
                        "time": 1.7832206666666668,
                        "value": 1
                    },
                    {
                        "number": 64,
                        "time": 2.794035425,
                        "value": 0
                    },
                    {
                        "number": 64,
                        "time": 3.844584991666667,
                        "value": 1
                    },
                    {
                        "number": 64,
                        "time": 4.1992908416666666,
                        "value": 0
                    },
                    {
                        "number": 64,
                        "time": 4.496817333333333,
                        "value": 1
                    },
                    {
                        "number": 64,
                        "time": 5.586132566666667,
                        "value": 0
                    },
                    {
                        "number": 64,
                        "time": 6.171494133333333,
                        "value": 1
                    },
                    {
                        "number": 64,
                        "time": 6.989449699999999,
                        "value": 0
                    },
                    {
                        "number": 64,
                        "time": 7.365476666666666,
                        "value": 1
                    },
                    {
                        "number": 64,
                        "time": 7.922733125,
                        "value": 0
                    },
                    {
                        "number": 64,
                        "time": 8.19312365,
                        "value": 1
                    },
                    {
                        "number": 64,
                        "time": 8.380167991666667,
                        "value": 0
                    },
                    {
                        "number": 64,
                        "time": 8.566243191666667,
                        "value": 1
                    },
                    {
                        "number": 64,
                        "time": 9.319266266666666,
                        "value": 0
                    },
                    {
                        "number": 64,
                        "time": 9.560582541666667,
                        "value": 1
                    },
                    {
                        "number": 64,
                        "time": 9.781546841666666,
                        "value": 0
                    },
                    {
                        "number": 64,
                        "time": 10.208938316666666,
                        "value": 1
                    },
                    {
                        "number": 64,
                        "time": 11.168388566666666,
                        "value": 0
                    },
                    {
                        "number": 64,
                        "time": 12.353648824999999,
                        "value": 1
                    },
                    {
                        "number": 64,
                        "time": 12.573643983333332,
                        "value": 0
                    },
                    {
                        "number": 64,
                        "time": 12.845003649999999,
                        "value": 1
                    },
                    {
                        "number": 64,
                        "time": 13.961454849999999,
                        "value": 0
                    },
                    {
                        "number": 64,
                        "time": 15.107949441666664,
                        "value": 1
                    },
                    {
                        "number": 64,
                        "time": 15.366710266666663,
                        "value": 0
                    },
                    {
                        "number": 64,
                        "time": 15.842558824999998,
                        "value": 1
                    },
                    {
                        "number": 64,
                        "time": 16.759366841666665,
                        "value": 0
                    },
                    {
                        "number": 64,
                        "time": 17.744014775,
                        "value": 1
                    },
                    {
                        "number": 64,
                        "time": 18.149115991666665,
                        "value": 0
                    },
                    {
                        "number": 64,
                        "time": 18.42725965,
                        "value": 1
                    },
                    {
                        "number": 64,
                        "time": 19.080461133333333,
                        "value": 0
                    },
                    {
                        "number": 64,
                        "time": 19.280104316666666,
                        "value": 1
                    },
                    {
                        "number": 64,
                        "time": 19.537896,
                        "value": 0
                    },
                    {
                        "number": 64,
                        "time": 19.77049,
                        "value": 1
                    },
                    {
                        "number": 64,
                        "time": 20.484747408333334,
                        "value": 0
                    },
                    {
                        "number": 64,
                        "time": 20.577785008333333,
                        "value": 1
                    },
                    {
                        "number": 64,
                        "time": 20.938305708333335,
                        "value": 0
                    },
                    {
                        "number": 64,
                        "time": 21.32111666666667,
                        "value": 1
                    },
                    {
                        "number": 64,
                        "time": 22.343561125,
                        "value": 0
                    },
                    {
                        "number": 64,
                        "time": 23.37085129166667,
                        "value": 1
                    },
                    {
                        "number": 64,
                        "time": 25.13081255833334,
                        "value": 0
                    },
                    {
                        "number": 64,
                        "time": 26.18330040833334,
                        "value": 1
                    },
                    {
                        "number": 64,
                        "time": 27.918063991666674,
                        "value": 0
                    },
                    {
                        "number": 64,
                        "time": 28.841656000000008,
                        "value": 1
                    },
                    {
                        "number": 64,
                        "time": 29.314597133333343,
                        "value": 0
                    },
                    {
                        "number": 64,
                        "time": 29.53943800000001,
                        "value": 1
                    },
                    {
                        "number": 64,
                        "time": 30.702408000000013,
                        "value": 0
                    },
                    {
                        "number": 64,
                        "time": 30.907866033333345,
                        "value": 1
                    },
                    {
                        "number": 64,
                        "time": 31.175349133333345,
                        "value": 0
                    },
                    {
                        "number": 64,
                        "time": 31.31878210000001,
                        "value": 1
                    },
                    {
                        "number": 64,
                        "time": 31.63859885000001,
                        "value": 0
                    },
                    {
                        "number": 64,
                        "time": 31.755864991666677,
                        "value": 1
                    },
                    {
                        "number": 64,
                        "time": 32.111539983333344,
                        "value": 0
                    },
                    {
                        "number": 64,
                        "time": 32.511795491666675,
                        "value": 1
                    },
                    {
                        "number": 64,
                        "time": 33.50419655833334,
                        "value": 0
                    },
                    {
                        "number": 64,
                        "time": 34.53536329166668,
                        "value": 1
                    },
                    {
                        "number": 64,
                        "time": 36.290478850000014,
                        "value": 0
                    },
                    {
                        "number": 64,
                        "time": 37.414683183333345,
                        "value": 1
                    },
                    {
                        "number": 64,
                        "time": 39.08839084166668,
                        "value": 0
                    },
                    {
                        "number": 64,
                        "time": 40.00616800000001,
                        "value": 1
                    },
                    {
                        "number": 64,
                        "time": 41.580054066666676,
                        "value": 0
                    },
                    {
                        "number": 64,
                        "time": 41.962865025000006,
                        "value": 1
                    },
                    {
                        "number": 64,
                        "time": 43.27605198333334,
                        "value": 0
                    },
                    {
                        "number": 64,
                        "time": 43.481510016666675,
                        "value": 1
                    },
                    {
                        "number": 64,
                        "time": 44.713289075000006,
                        "value": 0
                    },
                    {
                        "number": 64,
                        "time": 44.945883075000005,
                        "value": 1
                    },
                    {
                        "number": 64,
                        "time": 45.134865700000006,
                        "value": 0
                    },
                    {
                        "number": 64,
                        "time": 45.31512605,
                        "value": 1
                    },
                    {
                        "number": 64,
                        "time": 45.59811541666667,
                        "value": 0
                    },
                    {
                        "number": 64,
                        "time": 45.76674606666667,
                        "value": 1
                    },
                    {
                        "number": 64,
                        "time": 46.06717998333333,
                        "value": 0
                    },
                    {
                        "number": 64,
                        "time": 46.279422008333334,
                        "value": 1
                    },
                    {
                        "number": 64,
                        "time": 47.45595999166667,
                        "value": 0
                    },
                    {
                        "number": 64,
                        "time": 47.565473,
                        "value": 1
                    },
                    {
                        "number": 64,
                        "time": 48.39311998333333,
                        "value": 0
                    },
                    {
                        "number": 64,
                        "time": 48.49584899999999,
                        "value": 1
                    },
                    {
                        "number": 64,
                        "time": 48.62183741666666,
                        "value": 0
                    },
                    {
                        "number": 64,
                        "time": 48.677078491666656,
                        "value": 1
                    },
                    {
                        "number": 64,
                        "time": 48.85055484999999,
                        "value": 0
                    },
                    {
                        "number": 64,
                        "time": 49.063766016666655,
                        "value": 1
                    },
                    {
                        "number": 64,
                        "time": 49.55124427499999,
                        "value": 0
                    },
                    {
                        "number": 64,
                        "time": 49.89819699166666,
                        "value": 1
                    },
                    {
                        "number": 64,
                        "time": 50.257748549999995,
                        "value": 0
                    },
                    {
                        "number": 64,
                        "time": 50.3914901,
                        "value": 1
                    },
                    {
                        "number": 64,
                        "time": 51.684325083333334,
                        "value": 0
                    },
                    {
                        "number": 64,
                        "time": 51.75894899166667,
                        "value": 1
                    },
                    {
                        "number": 64,
                        "time": 52.579811983333336,
                        "value": 0
                    },
                    {
                        "number": 64,
                        "time": 52.675757008333335,
                        "value": 1
                    },
                    {
                        "number": 64,
                        "time": 52.80949855833334,
                        "value": 0
                    },
                    {
                        "number": 64,
                        "time": 52.87927675833334,
                        "value": 1
                    },
                    {
                        "number": 64,
                        "time": 53.04499998333334,
                        "value": 0
                    },
                    {
                        "number": 64,
                        "time": 53.19618608333334,
                        "value": 1
                    },
                    {
                        "number": 64,
                        "time": 53.73599799166667,
                        "value": 0
                    },
                    {
                        "number": 64,
                        "time": 54.12656208333334,
                        "value": 1
                    },
                    {
                        "number": 64,
                        "time": 54.429903425000006,
                        "value": 0
                    },
                    {
                        "number": 64,
                        "time": 54.89218400000001,
                        "value": 1
                    },
                    {
                        "number": 64,
                        "time": 55.829343991666676,
                        "value": 0
                    },
                    {
                        "number": 64,
                        "time": 56.28774800000001,
                        "value": 1
                    },
                    {
                        "number": 64,
                        "time": 57.22296970833334,
                        "value": 0
                    },
                    {
                        "number": 64,
                        "time": 57.43715001666667,
                        "value": 1
                    },
                    {
                        "number": 64,
                        "time": 58.16206798333334,
                        "value": 0
                    },
                    {
                        "number": 64,
                        "time": 58.34039005,
                        "value": 1
                    },
                    {
                        "number": 64,
                        "time": 58.613688,
                        "value": 0
                    },
                    {
                        "number": 64,
                        "time": 58.94998015833334,
                        "value": 1
                    },
                    {
                        "number": 64,
                        "time": 60.07806105833334,
                        "value": 0
                    },
                    {
                        "number": 64,
                        "time": 61.65000884166667,
                        "value": 1
                    },
                    {
                        "number": 64,
                        "time": 62.81394798333333,
                        "value": 0
                    },
                    {
                        "number": 64,
                        "time": 63.806349049999994,
                        "value": 1
                    },
                    {
                        "number": 64,
                        "time": 64.21241940833333,
                        "value": 0
                    },
                    {
                        "number": 64,
                        "time": 64.63593431666666,
                        "value": 1
                    },
                    {
                        "number": 64,
                        "time": 65.66903933333333,
                        "value": 0
                    },
                    {
                        "number": 64,
                        "time": 66.754478,
                        "value": 1
                    },
                    {
                        "number": 64,
                        "time": 68.382636,
                        "value": 0
                    },
                    {
                        "number": 64,
                        "time": 68.60166201666667,
                        "value": 1
                    },
                    {
                        "number": 64,
                        "time": 69.34014796666666,
                        "value": 0
                    },
                    {
                        "number": 64,
                        "time": 69.47776608333334,
                        "value": 1
                    },
                    {
                        "number": 64,
                        "time": 69.85573133333334,
                        "value": 0
                    },
                    {
                        "number": 64,
                        "time": 70.29572165,
                        "value": 1
                    },
                    {
                        "number": 64,
                        "time": 72.1157697,
                        "value": 0
                    },
                    {
                        "number": 64,
                        "time": 72.79126144166666,
                        "value": 1
                    },
                    {
                        "number": 64,
                        "time": 73.991058825,
                        "value": 0
                    },
                    {
                        "number": 64,
                        "time": 75.12786200000001,
                        "value": 1
                    },
                    {
                        "number": 64,
                        "time": 75.37305484166669,
                        "value": 0
                    },
                    {
                        "number": 64,
                        "time": 75.61921682500002,
                        "value": 1
                    },
                    {
                        "number": 64,
                        "time": 76.75892742500002,
                        "value": 0
                    },
                    {
                        "number": 64,
                        "time": 77.88216261666668,
                        "value": 1
                    },
                    {
                        "number": 64,
                        "time": 78.16127541666668,
                        "value": 0
                    },
                    {
                        "number": 64,
                        "time": 78.48787615833335,
                        "value": 1
                    },
                    {
                        "number": 64,
                        "time": 79.56653083333336,
                        "value": 0
                    },
                    {
                        "number": 64,
                        "time": 80.13638613333336,
                        "value": 1
                    },
                    {
                        "number": 64,
                        "time": 80.94271200000004,
                        "value": 0
                    },
                    {
                        "number": 64,
                        "time": 81.25283733333337,
                        "value": 1
                    },
                    {
                        "number": 64,
                        "time": 81.8885942666667,
                        "value": 0
                    },
                    {
                        "number": 64,
                        "time": 82.15801565000004,
                        "value": 1
                    },
                    {
                        "number": 64,
                        "time": 82.35087484166671,
                        "value": 0
                    },
                    {
                        "number": 64,
                        "time": 82.5311351916667,
                        "value": 1
                    },
                    {
                        "number": 64,
                        "time": 83.28125084166672,
                        "value": 0
                    },
                    {
                        "number": 64,
                        "time": 83.46151119166672,
                        "value": 1
                    },
                    {
                        "number": 64,
                        "time": 83.74062399166671,
                        "value": 0
                    },
                    {
                        "number": 64,
                        "time": 84.1476634916667,
                        "value": 1
                    },
                    {
                        "number": 64,
                        "time": 85.13231142500004,
                        "value": 0
                    },
                    {
                        "number": 64,
                        "time": 86.29237400000004,
                        "value": 1
                    },
                    {
                        "number": 64,
                        "time": 86.53659770000004,
                        "value": 0
                    },
                    {
                        "number": 64,
                        "time": 86.79148195833338,
                        "value": 1
                    },
                    {
                        "number": 64,
                        "time": 87.92343942500004,
                        "value": 0
                    },
                    {
                        "number": 64,
                        "time": 89.0117855166667,
                        "value": 1
                    },
                    {
                        "number": 64,
                        "time": 89.32384913333338,
                        "value": 0
                    },
                    {
                        "number": 64,
                        "time": 89.60393107500005,
                        "value": 1
                    },
                    {
                        "number": 64,
                        "time": 90.71553656666671,
                        "value": 0
                    },
                    {
                        "number": 64,
                        "time": 91.64203600000005,
                        "value": 1
                    },
                    {
                        "number": 64,
                        "time": 93.50278800000004,
                        "value": 0
                    },
                    {
                        "number": 64,
                        "time": 93.7247214416667,
                        "value": 1
                    },
                    {
                        "number": 64,
                        "time": 93.98154398333337,
                        "value": 0
                    },
                    {
                        "number": 64,
                        "time": 94.16761918333337,
                        "value": 1
                    },
                    {
                        "number": 64,
                        "time": 94.44673198333336,
                        "value": 0
                    },
                    {
                        "number": 64,
                        "time": 94.6550974416667,
                        "value": 1
                    },
                    {
                        "number": 64,
                        "time": 94.90707427500003,
                        "value": 0
                    },
                    {
                        "number": 64,
                        "time": 95.18618707500002,
                        "value": 1
                    },
                    {
                        "number": 64,
                        "time": 95.37613884166669,
                        "value": 0
                    },
                    {
                        "number": 64,
                        "time": 95.63005395833335,
                        "value": 1
                    },
                    {
                        "number": 64,
                        "time": 95.83938855833334,
                        "value": 0
                    },
                    {
                        "number": 64,
                        "time": 96.116563075,
                        "value": 1
                    },
                    {
                        "number": 64,
                        "time": 96.30651484166667,
                        "value": 0
                    },
                    {
                        "number": 64,
                        "time": 96.60404133333334,
                        "value": 1
                    },
                    {
                        "number": 64,
                        "time": 97.69432570833334,
                        "value": 0
                    },
                    {
                        "number": 64,
                        "time": 98.69544905,
                        "value": 1
                    },
                    {
                        "number": 64,
                        "time": 100.94579599999999,
                        "value": 0
                    },
                    {
                        "number": 64,
                        "time": 101.09698209999999,
                        "value": 1
                    },
                    {
                        "number": 64,
                        "time": 101.42455198333332,
                        "value": 0
                    },
                    {
                        "number": 64,
                        "time": 101.49336104166665,
                        "value": 1
                    },
                    {
                        "number": 64,
                        "time": 101.87811028333331,
                        "value": 0
                    },
                    {
                        "number": 64,
                        "time": 102.05352492499998,
                        "value": 1
                    },
                    {
                        "number": 64,
                        "time": 102.34814399166665,
                        "value": 0
                    },
                    {
                        "number": 64,
                        "time": 102.54100318333332,
                        "value": 1
                    },
                    {
                        "number": 64,
                        "time": 102.82399254999997,
                        "value": 0
                    },
                    {
                        "number": 64,
                        "time": 103.0061911833333,
                        "value": 1
                    },
                    {
                        "number": 64,
                        "time": 103.28724226666662,
                        "value": 0
                    },
                    {
                        "number": 64,
                        "time": 103.65939266666662,
                        "value": 1
                    },
                    {
                        "number": 64,
                        "time": 104.71963364999995,
                        "value": 0
                    },
                    {
                        "number": 64,
                        "time": 105.13248799999995,
                        "value": 1
                    },
                    {
                        "number": 64,
                        "time": 106.14039533333329,
                        "value": 0
                    },
                    {
                        "number": 64,
                        "time": 106.60558333333329,
                        "value": 1
                    },
                    {
                        "number": 64,
                        "time": 108.38880399999995,
                        "value": 0
                    },
                    {
                        "number": 64,
                        "time": 108.85399199999995,
                        "value": 1
                    },
                    {
                        "number": 64,
                        "time": 110.26700054999995,
                        "value": 0
                    },
                    {
                        "number": 64,
                        "time": 110.46858201666662,
                        "value": 1
                    },
                    {
                        "number": 64,
                        "time": 111.64511999999995,
                        "value": 0
                    },
                    {
                        "number": 64,
                        "time": 114.15228949166661,
                        "value": 1
                    },
                    {
                        "number": 64,
                        "time": 114.90143599999993,
                        "value": 0
                    },
                    {
                        "number": 64,
                        "time": 115.46256902499994,
                        "value": 1
                    },
                    {
                        "number": 64,
                        "time": 115.83471942499995,
                        "value": 0
                    },
                    {
                        "number": 64,
                        "time": 116.09057282499995,
                        "value": 1
                    },
                    {
                        "number": 64,
                        "time": 116.30669141666662,
                        "value": 0
                    },
                    {
                        "number": 64,
                        "time": 116.47822949166662,
                        "value": 1
                    },
                    {
                        "number": 64,
                        "time": 117.22931428333328,
                        "value": 0
                    },
                    {
                        "number": 64,
                        "time": 117.43186489166662,
                        "value": 1
                    },
                    {
                        "number": 64,
                        "time": 117.70419369999995,
                        "value": 0
                    },
                    {
                        "number": 64,
                        "time": 117.91643572499994,
                        "value": 1
                    },
                    {
                        "number": 64,
                        "time": 118.17035084166662,
                        "value": 0
                    },
                    {
                        "number": 64,
                        "time": 118.40003741666662,
                        "value": 1
                    },
                    {
                        "number": 64,
                        "time": 118.62584742499996,
                        "value": 0
                    },
                    {
                        "number": 64,
                        "time": 119.01059666666663,
                        "value": 1
                    },
                    {
                        "number": 64,
                        "time": 119.56494569999997,
                        "value": 0
                    },
                    {
                        "number": 64,
                        "time": 119.8896081583333,
                        "value": 1
                    },
                    {
                        "number": 64,
                        "time": 121.41891370833329,
                        "value": 0
                    },
                    {
                        "number": 64,
                        "time": 121.6602299833333,
                        "value": 1
                    },
                    {
                        "number": 64,
                        "time": 122.80963199999997,
                        "value": 0
                    },
                    {
                        "number": 64,
                        "time": 124.38642549166663,
                        "value": 1
                    },
                    {
                        "number": 64,
                        "time": 125.1433251333333,
                        "value": 0
                    },
                    {
                        "number": 64,
                        "time": 125.39433282499998,
                        "value": 1
                    },
                    {
                        "number": 64,
                        "time": 126.06594799999998,
                        "value": 0
                    },
                    {
                        "number": 64,
                        "time": 126.62708102499998,
                        "value": 1
                    },
                    {
                        "number": 64,
                        "time": 126.99826228333332,
                        "value": 0
                    },
                    {
                        "number": 64,
                        "time": 127.35878298333331,
                        "value": 1
                    },
                    {
                        "number": 64,
                        "time": 128.40836340833332,
                        "value": 0
                    },
                    {
                        "number": 64,
                        "time": 128.60025345833333,
                        "value": 1
                    },
                    {
                        "number": 64,
                        "time": 128.86773655833335,
                        "value": 0
                    },
                    {
                        "number": 64,
                        "time": 129.03345978333334,
                        "value": 1
                    },
                    {
                        "number": 64,
                        "time": 129.32807885000003,
                        "value": 0
                    },
                    {
                        "number": 64,
                        "time": 129.53062945833335,
                        "value": 1
                    },
                    {
                        "number": 64,
                        "time": 129.78745200000003,
                        "value": 0
                    },
                    {
                        "number": 64,
                        "time": 130.14991098333337,
                        "value": 1
                    },
                    {
                        "number": 64,
                        "time": 130.72364285000003,
                        "value": 0
                    },
                    {
                        "number": 64,
                        "time": 130.8990574916667,
                        "value": 1
                    },
                    {
                        "number": 64,
                        "time": 131.18301600000004,
                        "value": 0
                    },
                    {
                        "number": 64,
                        "time": 131.37490605000005,
                        "value": 1
                    },
                    {
                        "number": 64,
                        "time": 132.11726856666672,
                        "value": 0
                    },
                    {
                        "number": 64,
                        "time": 132.30528205000005,
                        "value": 1
                    },
                    {
                        "number": 64,
                        "time": 132.57858000000004,
                        "value": 0
                    },
                    {
                        "number": 64,
                        "time": 132.91487215833337,
                        "value": 1
                    },
                    {
                        "number": 64,
                        "time": 133.52446226666672,
                        "value": 0
                    },
                    {
                        "number": 64,
                        "time": 133.74155000000005,
                        "value": 1
                    },
                    {
                        "number": 64,
                        "time": 133.97414400000005,
                        "value": 0
                    },
                    {
                        "number": 64,
                        "time": 134.31722015000005,
                        "value": 1
                    },
                    {
                        "number": 64,
                        "time": 134.91324227500007,
                        "value": 0
                    },
                    {
                        "number": 64,
                        "time": 135.12548430000007,
                        "value": 1
                    },
                    {
                        "number": 64,
                        "time": 135.36970800000006,
                        "value": 0
                    },
                    {
                        "number": 64,
                        "time": 135.79128462500006,
                        "value": 1
                    },
                    {
                        "number": 64,
                        "time": 136.31171370000007,
                        "value": 0
                    },
                    {
                        "number": 64,
                        "time": 136.5433385583334,
                        "value": 1
                    },
                    {
                        "number": 64,
                        "time": 136.76817942500006,
                        "value": 0
                    },
                    {
                        "number": 64,
                        "time": 137.2033240333334,
                        "value": 1
                    },
                    {
                        "number": 64,
                        "time": 138.16083600000005,
                        "value": 0
                    },
                    {
                        "number": 64,
                        "time": 138.4932515916667,
                        "value": 1
                    },
                    {
                        "number": 64,
                        "time": 139.1009034166667,
                        "value": 0
                    },
                    {
                        "number": 64,
                        "time": 139.3577259583334,
                        "value": 1
                    },
                    {
                        "number": 64,
                        "time": 139.56802970000004,
                        "value": 0
                    },
                    {
                        "number": 64,
                        "time": 139.7754260166667,
                        "value": 1
                    },
                    {
                        "number": 64,
                        "time": 140.95196400000003,
                        "value": 0
                    },
                    {
                        "number": 64,
                        "time": 141.19812598333337,
                        "value": 1
                    },
                    {
                        "number": 64,
                        "time": 142.35625027500004,
                        "value": 0
                    },
                    {
                        "number": 64,
                        "time": 142.58012200000005,
                        "value": 1
                    },
                    {
                        "number": 64,
                        "time": 143.7556908416667,
                        "value": 0
                    },
                    {
                        "number": 64,
                        "time": 144.16466862500005,
                        "value": 1
                    },
                    {
                        "number": 64,
                        "time": 145.15028570000004,
                        "value": 0
                    },
                    {
                        "number": 64,
                        "time": 145.49433099166671,
                        "value": 1
                    },
                    {
                        "number": 64,
                        "time": 146.54584970000005,
                        "value": 0
                    },
                    {
                        "number": 64,
                        "time": 146.7532460166667,
                        "value": 1
                    },
                    {
                        "number": 64,
                        "time": 147.94335198333337,
                        "value": 0
                    },
                    {
                        "number": 64,
                        "time": 149.42904615833342,
                        "value": 1
                    },
                    {
                        "number": 64,
                        "time": 150.2760759750001,
                        "value": 0
                    },
                    {
                        "number": 64,
                        "time": 150.56584933333343,
                        "value": 1
                    },
                    {
                        "number": 64,
                        "time": 151.66388684166677,
                        "value": 0
                    },
                    {
                        "number": 64,
                        "time": 151.8024741000001,
                        "value": 1
                    },
                    {
                        "number": 64,
                        "time": 152.1164760000001,
                        "value": 0
                    },
                    {
                        "number": 64,
                        "time": 152.29770549166676,
                        "value": 1
                    },
                    {
                        "number": 64,
                        "time": 153.0497594250001,
                        "value": 0
                    },
                    {
                        "number": 64,
                        "time": 153.22808149166679,
                        "value": 1
                    },
                    {
                        "number": 64,
                        "time": 153.51204000000013,
                        "value": 0
                    },
                    {
                        "number": 64,
                        "time": 153.80568992500014,
                        "value": 1
                    },
                    {
                        "number": 64,
                        "time": 154.46082969166682,
                        "value": 0
                    },
                    {
                        "number": 64,
                        "time": 154.68760884166682,
                        "value": 1
                    },
                    {
                        "number": 64,
                        "time": 154.91632627500016,
                        "value": 0
                    },
                    {
                        "number": 64,
                        "time": 155.19253165000015,
                        "value": 1
                    },
                    {
                        "number": 64,
                        "time": 155.84088742500015,
                        "value": 0
                    },
                    {
                        "number": 64,
                        "time": 156.07057400000014,
                        "value": 1
                    },
                    {
                        "number": 64,
                        "time": 157.24032799166682,
                        "value": 0
                    },
                    {
                        "number": 64,
                        "time": 157.37019297500015,
                        "value": 1
                    },
                    {
                        "number": 64,
                        "time": 157.75106565000016,
                        "value": 0
                    },
                    {
                        "number": 64,
                        "time": 158.11255549166682,
                        "value": 1
                    },
                    {
                        "number": 64,
                        "time": 158.6368611333335,
                        "value": 0
                    },
                    {
                        "number": 64,
                        "time": 158.83650431666683,
                        "value": 1
                    },
                    {
                        "number": 64,
                        "time": 159.09429600000016,
                        "value": 0
                    },
                    {
                        "number": 64,
                        "time": 159.3637173833335,
                        "value": 1
                    },
                    {
                        "number": 64,
                        "time": 160.03920912500016,
                        "value": 0
                    },
                    {
                        "number": 64,
                        "time": 160.22043861666683,
                        "value": 1
                    },
                    {
                        "number": 64,
                        "time": 160.48986000000016,
                        "value": 0
                    },
                    {
                        "number": 64,
                        "time": 160.72245400000017,
                        "value": 1
                    },
                    {
                        "number": 64,
                        "time": 161.42895827500016,
                        "value": 0
                    },
                    {
                        "number": 64,
                        "time": 161.62763231666682,
                        "value": 1
                    },
                    {
                        "number": 64,
                        "time": 162.83324455000013,
                        "value": 0
                    },
                    {
                        "number": 64,
                        "time": 162.9388809916668,
                        "value": 1
                    },
                    {
                        "number": 64,
                        "time": 163.28098800000012,
                        "value": 0
                    },
                    {
                        "number": 64,
                        "time": 163.53974882500012,
                        "value": 1
                    },
                    {
                        "number": 64,
                        "time": 164.21911713333344,
                        "value": 0
                    },
                    {
                        "number": 64,
                        "time": 164.41876031666678,
                        "value": 1
                    },
                    {
                        "number": 64,
                        "time": 164.6765520000001,
                        "value": 0
                    },
                    {
                        "number": 64,
                        "time": 164.94597338333344,
                        "value": 1
                    },
                    {
                        "number": 64,
                        "time": 165.6137119916668,
                        "value": 0
                    },
                    {
                        "number": 64,
                        "time": 165.8026946166668,
                        "value": 1
                    },
                    {
                        "number": 64,
                        "time": 166.08568398333347,
                        "value": 0
                    },
                    {
                        "number": 64,
                        "time": 166.44911210833348,
                        "value": 1
                    },
                    {
                        "number": 64,
                        "time": 167.01509084166682,
                        "value": 0
                    },
                    {
                        "number": 64,
                        "time": 167.24671570000015,
                        "value": 1
                    },
                    {
                        "number": 64,
                        "time": 167.4696182833335,
                        "value": 0
                    },
                    {
                        "number": 64,
                        "time": 167.74194709166682,
                        "value": 1
                    },
                    {
                        "number": 64,
                        "time": 168.86324400000015,
                        "value": 0
                    },
                    {
                        "number": 64,
                        "time": 169.1956595916668,
                        "value": 1
                    },
                    {
                        "number": 64,
                        "time": 169.7974965666668,
                        "value": 0
                    },
                    {
                        "number": 64,
                        "time": 170.06013395833347,
                        "value": 1
                    },
                    {
                        "number": 64,
                        "time": 170.2714068416668,
                        "value": 0
                    },
                    {
                        "number": 64,
                        "time": 170.5185379666668,
                        "value": 1
                    },
                    {
                        "number": 64,
                        "time": 171.65727942500013,
                        "value": 0
                    },
                    {
                        "number": 64,
                        "time": 171.85983003333345,
                        "value": 1
                    },
                    {
                        "number": 64,
                        "time": 173.0625348416668,
                        "value": 0
                    },
                    {
                        "number": 64,
                        "time": 173.3096659666668,
                        "value": 1
                    },
                    {
                        "number": 64,
                        "time": 174.45422227500015,
                        "value": 0
                    },
                    {
                        "number": 64,
                        "time": 174.73333507500016,
                        "value": 1
                    },
                    {
                        "number": 64,
                        "time": 175.85366284166682,
                        "value": 0
                    },
                    {
                        "number": 64,
                        "time": 176.0600900166668,
                        "value": 1
                    },
                    {
                        "number": 64,
                        "time": 177.2492268416668,
                        "value": 0
                    },
                    {
                        "number": 64,
                        "time": 177.46922200000014,
                        "value": 1
                    },
                    {
                        "number": 64,
                        "time": 178.64382170000013,
                        "value": 0
                    },
                    {
                        "number": 64,
                        "time": 180.20898549166682,
                        "value": 1
                    },
                    {
                        "number": 64,
                        "time": 180.96782341666682,
                        "value": 0
                    },
                    {
                        "number": 64,
                        "time": 181.21689282500014,
                        "value": 1
                    },
                    {
                        "number": 64,
                        "time": 182.35951085000013,
                        "value": 0
                    },
                    {
                        "number": 64,
                        "time": 182.49034497500014,
                        "value": 1
                    },
                    {
                        "number": 64,
                        "time": 182.82372970833347,
                        "value": 0
                    },
                    {
                        "number": 64,
                        "time": 183.12900933333347,
                        "value": 1
                    },
                    {
                        "number": 64,
                        "time": 183.76476626666684,
                        "value": 0
                    },
                    {
                        "number": 64,
                        "time": 183.93048949166683,
                        "value": 1
                    },
                    {
                        "number": 64,
                        "time": 184.22026285000018,
                        "value": 0
                    },
                    {
                        "number": 64,
                        "time": 184.45964084166684,
                        "value": 1
                    },
                    {
                        "number": 64,
                        "time": 185.1525771333335,
                        "value": 0
                    },
                    {
                        "number": 64,
                        "time": 185.36578830000016,
                        "value": 1
                    },
                    {
                        "number": 64,
                        "time": 185.6148577083335,
                        "value": 0
                    },
                    {
                        "number": 64,
                        "time": 185.8174083166668,
                        "value": 1
                    },
                    {
                        "number": 64,
                        "time": 186.54620285000016,
                        "value": 0
                    },
                    {
                        "number": 64,
                        "time": 186.7477843166668,
                        "value": 1
                    },
                    {
                        "number": 64,
                        "time": 187.94370513333345,
                        "value": 0
                    },
                    {
                        "number": 64,
                        "time": 188.10070608333345,
                        "value": 1
                    },
                    {
                        "number": 64,
                        "time": 188.41180055833345,
                        "value": 0
                    },
                    {
                        "number": 64,
                        "time": 188.6085363166668,
                        "value": 1
                    },
                    {
                        "number": 64,
                        "time": 189.3441148416668,
                        "value": 0
                    },
                    {
                        "number": 64,
                        "time": 189.5127454916668,
                        "value": 1
                    },
                    {
                        "number": 64,
                        "time": 189.80736455833346,
                        "value": 0
                    },
                    {
                        "number": 64,
                        "time": 190.04189684166678,
                        "value": 1
                    },
                    {
                        "number": 64,
                        "time": 190.73677141666678,
                        "value": 0
                    },
                    {
                        "number": 64,
                        "time": 190.97227284166678,
                        "value": 1
                    },
                    {
                        "number": 64,
                        "time": 191.19226800000013,
                        "value": 0
                    },
                    {
                        "number": 64,
                        "time": 191.3705900666668,
                        "value": 1
                    },
                    {
                        "number": 64,
                        "time": 191.8222100833335,
                        "value": 0
                    },
                    {
                        "number": 64,
                        "time": 192.21858902500014,
                        "value": 1
                    },
                    {
                        "number": 64,
                        "time": 192.6004308416668,
                        "value": 0
                    },
                    {
                        "number": 64,
                        "time": 193.00165549166678,
                        "value": 1
                    },
                    {
                        "number": 64,
                        "time": 193.99696398333344,
                        "value": 0
                    },
                    {
                        "number": 64,
                        "time": 195.08531007500014,
                        "value": 1
                    },
                    {
                        "number": 64,
                        "time": 195.39252798333348,
                        "value": 0
                    },
                    {
                        "number": 64,
                        "time": 195.66388765000013,
                        "value": 1
                    },
                    {
                        "number": 64,
                        "time": 196.78227713333345,
                        "value": 0
                    },
                    {
                        "number": 64,
                        "time": 197.36376213333344,
                        "value": 1
                    },
                    {
                        "number": 64,
                        "time": 198.17299542500012,
                        "value": 0
                    },
                    {
                        "number": 64,
                        "time": 198.48021333333347,
                        "value": 1
                    },
                    {
                        "number": 64,
                        "time": 199.1130628416668,
                        "value": 0
                    },
                    {
                        "number": 64,
                        "time": 199.38539165000012,
                        "value": 1
                    },
                    {
                        "number": 64,
                        "time": 199.57631255833346,
                        "value": 0
                    },
                    {
                        "number": 64,
                        "time": 199.80696827500012,
                        "value": 1
                    },
                    {
                        "number": 64,
                        "time": 200.50862684166677,
                        "value": 0
                    },
                    {
                        "number": 64,
                        "time": 200.67241178333344,
                        "value": 1
                    },
                    {
                        "number": 64,
                        "time": 200.9796296916668,
                        "value": 0
                    },
                    {
                        "number": 64,
                        "time": 201.24517450833346,
                        "value": 1
                    },
                    {
                        "number": 64,
                        "time": 202.36259485000014,
                        "value": 0
                    },
                    {
                        "number": 64,
                        "time": 203.44221866666683,
                        "value": 1
                    },
                    {
                        "number": 64,
                        "time": 203.75912799166684,
                        "value": 0
                    },
                    {
                        "number": 64,
                        "time": 204.1148029833335,
                        "value": 1
                    },
                    {
                        "number": 64,
                        "time": 205.15663027500017,
                        "value": 0
                    },
                    {
                        "number": 64,
                        "time": 206.25563692500018,
                        "value": 1
                    },
                    {
                        "number": 64,
                        "time": 206.55413255833352,
                        "value": 0
                    },
                    {
                        "number": 64,
                        "time": 206.8535973333335,
                        "value": 1
                    },
                    {
                        "number": 64,
                        "time": 207.95260398333352,
                        "value": 0
                    },
                    {
                        "number": 64,
                        "time": 209.0244746666669,
                        "value": 1
                    },
                    {
                        "number": 64,
                        "time": 209.34041485000023,
                        "value": 0
                    },
                    {
                        "number": 64,
                        "time": 209.7222566666669,
                        "value": 1
                    },
                    {
                        "number": 64,
                        "time": 210.2775748416669,
                        "value": 0
                    },
                    {
                        "number": 64,
                        "time": 210.57510133333358,
                        "value": 1
                    },
                    {
                        "number": 64,
                        "time": 210.7437319833336,
                        "value": 0
                    },
                    {
                        "number": 64,
                        "time": 210.9084860666669,
                        "value": 1
                    },
                    {
                        "number": 64,
                        "time": 211.6624782833336,
                        "value": 0
                    },
                    {
                        "number": 64,
                        "time": 211.89313400000026,
                        "value": 1
                    },
                    {
                        "number": 64,
                        "time": 212.13541941666693,
                        "value": 0
                    },
                    {
                        "number": 64,
                        "time": 212.4358533333336,
                        "value": 1
                    },
                    {
                        "number": 64,
                        "time": 213.52807599166692,
                        "value": 0
                    },
                    {
                        "number": 64,
                        "time": 214.49624851666692,
                        "value": 1
                    },
                    {
                        "number": 64,
                        "time": 216.31823485000027,
                        "value": 0
                    },
                    {
                        "number": 64,
                        "time": 217.39785866666696,
                        "value": 1
                    },
                    {
                        "number": 64,
                        "time": 219.11711598333363,
                        "value": 0
                    },
                    {
                        "number": 64,
                        "time": 220.21127692500033,
                        "value": 1
                    },
                    {
                        "number": 64,
                        "time": 220.511710841667,
                        "value": 0
                    },
                    {
                        "number": 64,
                        "time": 220.814083041667,
                        "value": 1
                    },
                    {
                        "number": 64,
                        "time": 221.90630570000033,
                        "value": 0
                    },
                    {
                        "number": 64,
                        "time": 222.072998066667,
                        "value": 1
                    },
                    {
                        "number": 64,
                        "time": 222.37440112500033,
                        "value": 0
                    },
                    {
                        "number": 64,
                        "time": 222.538186066667,
                        "value": 1
                    },
                    {
                        "number": 64,
                        "time": 222.83183599166702,
                        "value": 0
                    },
                    {
                        "number": 64,
                        "time": 222.97623810000036,
                        "value": 1
                    },
                    {
                        "number": 64,
                        "time": 223.29896227500035,
                        "value": 0
                    },
                    {
                        "number": 64,
                        "time": 223.57516765000034,
                        "value": 1
                    },
                    {
                        "number": 64,
                        "time": 224.70227940833368,
                        "value": 0
                    },
                    {
                        "number": 64,
                        "time": 225.79353292500036,
                        "value": 1
                    },
                    {
                        "number": 64,
                        "time": 227.49146912500038,
                        "value": 0
                    },
                    {
                        "number": 64,
                        "time": 228.4741787750004,
                        "value": 1
                    },
                    {
                        "number": 64,
                        "time": 230.26999828333376,
                        "value": 0
                    },
                    {
                        "number": 64,
                        "time": 231.19843600000044,
                        "value": 1
                    },
                    {
                        "number": 64,
                        "time": 232.77232206666713,
                        "value": 0
                    },
                    {
                        "number": 64,
                        "time": 233.16870100833378,
                        "value": 1
                    },
                    {
                        "number": 64,
                        "time": 234.4586285666671,
                        "value": 0
                    },
                    {
                        "number": 64,
                        "time": 234.66021003333375,
                        "value": 1
                    },
                    {
                        "number": 64,
                        "time": 235.8619457000004,
                        "value": 0
                    },
                    {
                        "number": 64,
                        "time": 236.05577403333373,
                        "value": 1
                    },
                    {
                        "number": 64,
                        "time": 236.32810284166706,
                        "value": 0
                    },
                    {
                        "number": 64,
                        "time": 236.50739405000039,
                        "value": 1
                    },
                    {
                        "number": 64,
                        "time": 236.79038341666705,
                        "value": 0
                    },
                    {
                        "number": 64,
                        "time": 236.95901406666707,
                        "value": 1
                    },
                    {
                        "number": 64,
                        "time": 237.24975656666706,
                        "value": 0
                    },
                    {
                        "number": 64,
                        "time": 237.47169000833372,
                        "value": 1
                    },
                    {
                        "number": 64,
                        "time": 238.65695026666705,
                        "value": 0
                    },
                    {
                        "number": 64,
                        "time": 238.75774100000038,
                        "value": 1
                    },
                    {
                        "number": 64,
                        "time": 239.58829540833372,
                        "value": 0
                    },
                    {
                        "number": 64,
                        "time": 239.6609810333337,
                        "value": 1
                    },
                    {
                        "number": 64,
                        "time": 239.81410541666705,
                        "value": 0
                    },
                    {
                        "number": 64,
                        "time": 239.8732230583337,
                        "value": 1
                    },
                    {
                        "number": 64,
                        "time": 240.03991542500037,
                        "value": 0
                    },
                    {
                        "number": 64,
                        "time": 240.26960200000036,
                        "value": 1
                    },
                    {
                        "number": 64,
                        "time": 240.74448141666704,
                        "value": 0
                    },
                    {
                        "number": 64,
                        "time": 241.09046499166703,
                        "value": 1
                    },
                    {
                        "number": 64,
                        "time": 241.44710912500037,
                        "value": 0
                    },
                    {
                        "number": 64,
                        "time": 241.64481402500036,
                        "value": 1
                    },
                    {
                        "number": 64,
                        "time": 242.83491999166705,
                        "value": 0
                    },
                    {
                        "number": 64,
                        "time": 242.97156896666706,
                        "value": 1
                    },
                    {
                        "number": 64,
                        "time": 243.77789483333373,
                        "value": 0
                    },
                    {
                        "number": 64,
                        "time": 243.84088904166705,
                        "value": 1
                    },
                    {
                        "number": 64,
                        "time": 244.00079741666704,
                        "value": 0
                    },
                    {
                        "number": 64,
                        "time": 244.09383501666704,
                        "value": 1
                    },
                    {
                        "number": 64,
                        "time": 244.2372679833337,
                        "value": 0
                    },
                    {
                        "number": 64,
                        "time": 244.40202206666703,
                        "value": 1
                    },
                    {
                        "number": 64,
                        "time": 244.9292351333337,
                        "value": 0
                    },
                    {
                        "number": 64,
                        "time": 245.33239806666703,
                        "value": 1
                    },
                    {
                        "number": 64,
                        "time": 245.63477026666703,
                        "value": 0
                    },
                    {
                        "number": 64,
                        "time": 246.05925431666702,
                        "value": 1
                    },
                    {
                        "number": 64,
                        "time": 247.0225811333337,
                        "value": 0
                    },
                    {
                        "number": 64,
                        "time": 247.3249533333337,
                        "value": 1
                    },
                    {
                        "number": 64,
                        "time": 248.41717599166705,
                        "value": 0
                    },
                    {
                        "number": 64,
                        "time": 248.61585003333371,
                        "value": 1
                    },
                    {
                        "number": 64,
                        "time": 249.35239770000038,
                        "value": 0
                    },
                    {
                        "number": 64,
                        "time": 249.5462260333337,
                        "value": 1
                    },
                    {
                        "number": 64,
                        "time": 249.82146226666706,
                        "value": 0
                    },
                    {
                        "number": 64,
                        "time": 250.29731082500038,
                        "value": 1
                    },
                    {
                        "number": 64,
                        "time": 251.21411884166704,
                        "value": 0
                    },
                    {
                        "number": 64,
                        "time": 252.81707915833374,
                        "value": 1
                    },
                    {
                        "number": 64,
                        "time": 253.99264800000043,
                        "value": 0
                    },
                    {
                        "number": 64,
                        "time": 254.99861705000043,
                        "value": 1
                    },
                    {
                        "number": 64,
                        "time": 255.3979034166671,
                        "value": 0
                    },
                    {
                        "number": 64,
                        "time": 255.85340000000045,
                        "value": 1
                    },
                    {
                        "number": 64,
                        "time": 256.78668342500043,
                        "value": 0
                    },
                    {
                        "number": 64,
                        "time": 257.71415200000047,
                        "value": 1
                    },
                    {
                        "number": 64,
                        "time": 259.57490400000046,
                        "value": 0
                    },
                    {
                        "number": 64,
                        "time": 259.75322606666714,
                        "value": 1
                    },
                    {
                        "number": 64,
                        "time": 260.5169097000005,
                        "value": 0
                    },
                    {
                        "number": 64,
                        "time": 260.76500996666715,
                        "value": 1
                    },
                    {
                        "number": 64,
                        "time": 260.9820977000005,
                        "value": 0
                    },
                    {
                        "number": 64,
                        "time": 261.51318733333386,
                        "value": 1
                    },
                    {
                        "number": 64,
                        "time": 263.3041611333339,
                        "value": 0
                    },
                    {
                        "number": 64,
                        "time": 264.0281099583339,
                        "value": 1
                    },
                    {
                        "number": 64,
                        "time": 265.1707279833339,
                        "value": 0
                    },
                    {
                        "number": 64,
                        "time": 266.3201300000006,
                        "value": 1
                    },
                    {
                        "number": 64,
                        "time": 266.5643537000006,
                        "value": 0
                    },
                    {
                        "number": 64,
                        "time": 266.8114848250006,
                        "value": 1
                    },
                    {
                        "number": 64,
                        "time": 267.9550719916673,
                        "value": 0
                    },
                    {
                        "number": 64,
                        "time": 269.09962830000063,
                        "value": 1
                    },
                    {
                        "number": 64,
                        "time": 269.36129655000065,
                        "value": 0
                    },
                    {
                        "number": 64,
                        "time": 269.7315086666673,
                        "value": 1
                    },
                    {
                        "number": 64,
                        "time": 270.752983983334,
                        "value": 0
                    },
                    {
                        "number": 64,
                        "time": 271.43719800000065,
                        "value": 1
                    },
                    {
                        "number": 64,
                        "time": 272.154362833334,
                        "value": 0
                    },
                    {
                        "number": 64,
                        "time": 272.6263348250007,
                        "value": 1
                    },
                    {
                        "number": 64,
                        "time": 273.07504741666736,
                        "value": 0
                    },
                    {
                        "number": 64,
                        "time": 273.2979500000007,
                        "value": 1
                    },
                    {
                        "number": 64,
                        "time": 273.5344205666674,
                        "value": 0
                    },
                    {
                        "number": 64,
                        "time": 273.8193482166674,
                        "value": 1
                    },
                    {
                        "number": 64,
                        "time": 274.4744879833341,
                        "value": 0
                    },
                    {
                        "number": 64,
                        "time": 274.60532210833406,
                        "value": 1
                    },
                    {
                        "number": 64,
                        "time": 274.9387068416674,
                        "value": 0
                    },
                    {
                        "number": 64,
                        "time": 275.3399314916674,
                        "value": 1
                    },
                    {
                        "number": 64,
                        "time": 276.32361028333406,
                        "value": 0
                    },
                    {
                        "number": 64,
                        "time": 277.45944431666743,
                        "value": 1
                    },
                    {
                        "number": 64,
                        "time": 277.73177312500076,
                        "value": 0
                    },
                    {
                        "number": 64,
                        "time": 277.90621862500075,
                        "value": 1
                    },
                    {
                        "number": 64,
                        "time": 279.1166765666674,
                        "value": 0
                    },
                    {
                        "number": 64,
                        "time": 280.17207184166745,
                        "value": 1
                    },
                    {
                        "number": 64,
                        "time": 280.5209628416674,
                        "value": 0
                    },
                    {
                        "number": 64,
                        "time": 280.71866774166745,
                        "value": 1
                    },
                    {
                        "number": 64,
                        "time": 281.90780456666744,
                        "value": 0
                    },
                    {
                        "number": 64,
                        "time": 282.83430400000077,
                        "value": 1
                    },
                    {
                        "number": 64,
                        "time": 284.6950560000007,
                        "value": 0
                    },
                    {
                        "number": 64,
                        "time": 284.96156995833405,
                        "value": 1
                    },
                    {
                        "number": 64,
                        "time": 285.1747811250007,
                        "value": 0
                    },
                    {
                        "number": 64,
                        "time": 285.3821774416674,
                        "value": 1
                    },
                    {
                        "number": 64,
                        "time": 285.63609255833404,
                        "value": 0
                    },
                    {
                        "number": 64,
                        "time": 285.7804946666674,
                        "value": 1
                    },
                    {
                        "number": 64,
                        "time": 286.10515712500074,
                        "value": 0
                    },
                    {
                        "number": 64,
                        "time": 286.2679729250007,
                        "value": 1
                    },
                    {
                        "number": 64,
                        "time": 286.5674377000007,
                        "value": 0
                    },
                    {
                        "number": 64,
                        "time": 286.7777414416674,
                        "value": 1
                    },
                    {
                        "number": 64,
                        "time": 287.0326257000007,
                        "value": 0
                    },
                    {
                        "number": 64,
                        "time": 287.2429294416674,
                        "value": 1
                    },
                    {
                        "number": 64,
                        "time": 287.4861840000007,
                        "value": 0
                    },
                    {
                        "number": 64,
                        "time": 287.82247615833404,
                        "value": 1
                    },
                    {
                        "number": 64,
                        "time": 288.8846554250007,
                        "value": 0
                    },
                    {
                        "number": 64,
                        "time": 289.90031589166733,
                        "value": 1
                    },
                    {
                        "number": 64,
                        "time": 292.14484799166723,
                        "value": 0
                    },
                    {
                        "number": 64,
                        "time": 292.27471297500057,
                        "value": 1
                    },
                    {
                        "number": 64,
                        "time": 292.6168199833339,
                        "value": 0
                    },
                    {
                        "number": 64,
                        "time": 293.1576010333339,
                        "value": 1
                    },
                    {
                        "number": 64,
                        "time": 293.5404119916672,
                        "value": 0
                    },
                    {
                        "number": 64,
                        "time": 293.7555614416672,
                        "value": 1
                    },
                    {
                        "number": 64,
                        "time": 294.00269256666724,
                        "value": 0
                    },
                    {
                        "number": 64,
                        "time": 294.15387866666725,
                        "value": 1
                    },
                    {
                        "number": 64,
                        "time": 294.47272627500064,
                        "value": 0
                    },
                    {
                        "number": 64,
                        "time": 294.82646298333395,
                        "value": 1
                    },
                    {
                        "number": 64,
                        "time": 295.8741051250006,
                        "value": 0
                    },
                    {
                        "number": 64,
                        "time": 296.1958601583339,
                        "value": 1
                    },
                    {
                        "number": 64,
                        "time": 297.26869998333393,
                        "value": 0
                    },
                    {
                        "number": 64,
                        "time": 297.6427886666673,
                        "value": 1
                    },
                    {
                        "number": 64,
                        "time": 301.080334158334,
                        "value": 0
                    }
                ],
                "91": [
                    {
                        "number": 91,
                        "time": 0.9303760000000001,
                        "value": 1
                    },
                    {
                        "number": 91,
                        "time": 108.38880399999995,
                        "value": 1
                    },
                    {
                        "number": 91,
                        "time": 119.55331599999997,
                        "value": 1
                    },
                    {
                        "number": 91,
                        "time": 192.12264400000015,
                        "value": 1
                    }
                ]
            },
            "id": 2,
            "name": "Piano left",
            "instrumentNumber": 0,
            "instrument": "acoustic grand piano",
            "instrumentFamily": "piano",
            "channelNumber": 0,
            "isPercussion": false
        },
        {
            "startTime": 0,
            "duration": 0,
            "length": 0,
            "notes": [],
            "controlChanges": {},
            "id": 3,
            "name": "Schubert: Moments Musicaux No.6 in Ab, Op. 94 - D 780"
        },
        {
            "startTime": 0,
            "duration": 0,
            "length": 0,
            "notes": [],
            "controlChanges": {},
            "id": 4,
            "name": "Copyright  1997 by Bernd Krueger"
        },
        {
            "startTime": 0,
            "duration": 0,
            "length": 0,
            "notes": [],
            "controlChanges": {},
            "id": 5,
            "name": "http://www.piano-midi.de"
        },
        {
            "startTime": 0,
            "duration": 0,
            "length": 0,
            "notes": [],
            "controlChanges": {},
            "id": 6,
            "name": "Edition: 2014-03-16"
        }
    ]
}