{
    "header": {
        "PPQ": 480,
        "timeSignature": [
            2,
            4
        ],
        "bpm": 115.00002875000719,
        "name": "Hasche-Mann"
    },
    "startTime": 0,
    "duration": 33.13042649999991,
    "tracks": [
        {
            "startTime": 0,
            "duration": 0,
            "length": 0,
            "notes": [],
            "controlChanges": {},
            "id": 0,
            "name": "Hasche-Mann"
        },
        {
            "startTime": 0.00108695625,
            "duration": 33.13042649999989,
            "length": 224,
            "notes": [
                {
                    "name": "F#4",
                    "midi": 66,
                    "time": 0.00108695625,
                    "velocity": 0.5511811023622047,
                    "duration": 0.13043475
                },
                {
                    "name": "B4",
                    "midi": 71,
                    "time": 0.00108695625,
                    "velocity": 0.7086614173228346,
                    "duration": 0.521739
                },
                {
                    "name": "D4",
                    "midi": 62,
                    "time": 0.13043475,
                    "velocity": 0.48031496062992124,
                    "duration": 0.13043475
                },
                {
                    "name": "C#5",
                    "midi": 73,
                    "time": 0.521739,
                    "velocity": 0.44881889763779526,
                    "duration": 0.13043475000000004
                },
                {
                    "name": "D5",
                    "midi": 74,
                    "time": 0.65217375,
                    "velocity": 0.44881889763779526,
                    "duration": 0.06521737500000002
                },
                {
                    "name": "E5",
                    "midi": 76,
                    "time": 0.7826085,
                    "velocity": 0.44881889763779526,
                    "duration": 0.06521737500000002
                },
                {
                    "name": "F#5",
                    "midi": 78,
                    "time": 0.9130432500000001,
                    "velocity": 0.44881889763779526,
                    "duration": 0.06521737500000002
                },
                {
                    "name": "A5",
                    "midi": 81,
                    "time": 1.0434780000000001,
                    "velocity": 0.6299212598425197,
                    "duration": 0.06521737500000002
                },
                {
                    "name": "G5",
                    "midi": 79,
                    "time": 1.1739127500000002,
                    "velocity": 0.44881889763779526,
                    "duration": 0.06521737500000002
                },
                {
                    "name": "F#5",
                    "midi": 78,
                    "time": 1.3043475000000002,
                    "velocity": 0.44881889763779526,
                    "duration": 0.06521737500000002
                },
                {
                    "name": "E5",
                    "midi": 76,
                    "time": 1.4347822500000003,
                    "velocity": 0.44881889763779526,
                    "duration": 0.06521737500000002
                },
                {
                    "name": "G5",
                    "midi": 79,
                    "time": 1.5652170000000003,
                    "velocity": 0.6220472440944882,
                    "duration": 0.06521737500000002
                },
                {
                    "name": "F#5",
                    "midi": 78,
                    "time": 1.6956517500000003,
                    "velocity": 0.44881889763779526,
                    "duration": 0.06521737500000002
                },
                {
                    "name": "E5",
                    "midi": 76,
                    "time": 1.8260865000000004,
                    "velocity": 0.44881889763779526,
                    "duration": 0.06521737500000002
                },
                {
                    "name": "D5",
                    "midi": 74,
                    "time": 1.9565212500000004,
                    "velocity": 0.44881889763779526,
                    "duration": 0.0652173749999998
                },
                {
                    "name": "B4",
                    "midi": 71,
                    "time": 2.0869560000000003,
                    "velocity": 0.5511811023622047,
                    "duration": 0.13043475000000004
                },
                {
                    "name": "E5",
                    "midi": 76,
                    "time": 2.0869560000000003,
                    "velocity": 0.7086614173228346,
                    "duration": 0.5217390000000002
                },
                {
                    "name": "G4",
                    "midi": 67,
                    "time": 2.2173907500000003,
                    "velocity": 0.48031496062992124,
                    "duration": 0.13043475000000004
                },
                {
                    "name": "F#5",
                    "midi": 78,
                    "time": 2.6086950000000004,
                    "velocity": 0.44881889763779526,
                    "duration": 0.13043475000000004
                },
                {
                    "name": "G5",
                    "midi": 79,
                    "time": 2.7391297500000005,
                    "velocity": 0.44881889763779526,
                    "duration": 0.06521737500000002
                },
                {
                    "name": "A5",
                    "midi": 81,
                    "time": 2.8695645000000005,
                    "velocity": 0.44881889763779526,
                    "duration": 0.06521737500000002
                },
                {
                    "name": "B5",
                    "midi": 83,
                    "time": 2.9999992500000006,
                    "velocity": 0.44881889763779526,
                    "duration": 0.06521737500000002
                },
                {
                    "name": "D6",
                    "midi": 86,
                    "time": 3.1304340000000006,
                    "velocity": 0.6771653543307087,
                    "duration": 0.06521737500000002
                },
                {
                    "name": "C#6",
                    "midi": 85,
                    "time": 3.2608687500000006,
                    "velocity": 0.44881889763779526,
                    "duration": 0.06521737500000002
                },
                {
                    "name": "B5",
                    "midi": 83,
                    "time": 3.3913035000000007,
                    "velocity": 0.44881889763779526,
                    "duration": 0.06521737500000002
                },
                {
                    "name": "A#5",
                    "midi": 82,
                    "time": 3.5217382500000007,
                    "velocity": 0.44881889763779526,
                    "duration": 0.06521737500000002
                },
                {
                    "name": "F#5",
                    "midi": 78,
                    "time": 3.652173000000001,
                    "velocity": 0.5196850393700787,
                    "duration": 0.13043475000000004
                },
                {
                    "name": "B5",
                    "midi": 83,
                    "time": 3.652173000000001,
                    "velocity": 0.5196850393700787,
                    "duration": 0.13043475000000004
                },
                {
                    "name": "D5",
                    "midi": 74,
                    "time": 3.782607750000001,
                    "velocity": 0.44881889763779526,
                    "duration": 0.13043475000000004
                },
                {
                    "name": "B4",
                    "midi": 71,
                    "time": 3.913042500000001,
                    "velocity": 0.44881889763779526,
                    "duration": 0.06521737500000002
                },
                {
                    "name": "F#4",
                    "midi": 66,
                    "time": 4.0434772500000005,
                    "velocity": 0.44881889763779526,
                    "duration": 0.06521737499999958
                },
                {
                    "name": "F#4",
                    "midi": 66,
                    "time": 4.17499895625,
                    "velocity": 0.5511811023622047,
                    "duration": 0.13043475000000004
                },
                {
                    "name": "B4",
                    "midi": 71,
                    "time": 4.17499895625,
                    "velocity": 0.7086614173228346,
                    "duration": 0.5217390000000002
                },
                {
                    "name": "D4",
                    "midi": 62,
                    "time": 4.30434675,
                    "velocity": 0.48031496062992124,
                    "duration": 0.13043475000000004
                },
                {
                    "name": "C#5",
                    "midi": 73,
                    "time": 4.695651,
                    "velocity": 0.47244094488188976,
                    "duration": 0.13043475000000004
                },
                {
                    "name": "D5",
                    "midi": 74,
                    "time": 4.82608575,
                    "velocity": 0.4566929133858268,
                    "duration": 0.06521737499999958
                },
                {
                    "name": "E5",
                    "midi": 76,
                    "time": 4.956520499999999,
                    "velocity": 0.47244094488188976,
                    "duration": 0.06521737499999958
                },
                {
                    "name": "F#5",
                    "midi": 78,
                    "time": 5.086955249999998,
                    "velocity": 0.48031496062992124,
                    "duration": 0.06521737499999958
                },
                {
                    "name": "A5",
                    "midi": 81,
                    "time": 5.217389999999997,
                    "velocity": 0.6614173228346457,
                    "duration": 0.06521737499999958
                },
                {
                    "name": "G5",
                    "midi": 79,
                    "time": 5.3478247499999965,
                    "velocity": 0.4330708661417323,
                    "duration": 0.06521737499999958
                },
                {
                    "name": "F#5",
                    "midi": 78,
                    "time": 5.478259499999996,
                    "velocity": 0.4409448818897638,
                    "duration": 0.06521737499999958
                },
                {
                    "name": "E5",
                    "midi": 76,
                    "time": 5.608694249999995,
                    "velocity": 0.44881889763779526,
                    "duration": 0.06521737499999958
                },
                {
                    "name": "G5",
                    "midi": 79,
                    "time": 5.739128999999994,
                    "velocity": 0.6141732283464567,
                    "duration": 0.06521737499999958
                },
                {
                    "name": "F#5",
                    "midi": 78,
                    "time": 5.869563749999993,
                    "velocity": 0.4409448818897638,
                    "duration": 0.06521737499999958
                },
                {
                    "name": "E5",
                    "midi": 76,
                    "time": 5.999998499999992,
                    "velocity": 0.4566929133858268,
                    "duration": 0.06521737499999958
                },
                {
                    "name": "D5",
                    "midi": 74,
                    "time": 6.130433249999991,
                    "velocity": 0.48031496062992124,
                    "duration": 0.06521737499999958
                },
                {
                    "name": "B4",
                    "midi": 71,
                    "time": 6.2608679999999906,
                    "velocity": 0.5511811023622047,
                    "duration": 0.13043475000000004
                },
                {
                    "name": "E5",
                    "midi": 76,
                    "time": 6.2608679999999906,
                    "velocity": 0.7007874015748031,
                    "duration": 0.5217390000000002
                },
                {
                    "name": "G4",
                    "midi": 67,
                    "time": 6.391302749999991,
                    "velocity": 0.48031496062992124,
                    "duration": 0.13043475000000004
                },
                {
                    "name": "F#5",
                    "midi": 78,
                    "time": 6.782606999999991,
                    "velocity": 0.4330708661417323,
                    "duration": 0.13043475000000004
                },
                {
                    "name": "G5",
                    "midi": 79,
                    "time": 6.913041749999991,
                    "velocity": 0.4409448818897638,
                    "duration": 0.06521737499999958
                },
                {
                    "name": "A5",
                    "midi": 81,
                    "time": 7.04347649999999,
                    "velocity": 0.44881889763779526,
                    "duration": 0.06521737499999958
                },
                {
                    "name": "B5",
                    "midi": 83,
                    "time": 7.173911249999989,
                    "velocity": 0.4566929133858268,
                    "duration": 0.06521737499999958
                },
                {
                    "name": "D6",
                    "midi": 86,
                    "time": 7.304345999999988,
                    "velocity": 0.6771653543307087,
                    "duration": 0.06521737499999958
                },
                {
                    "name": "C#6",
                    "midi": 85,
                    "time": 7.434780749999987,
                    "velocity": 0.4881889763779528,
                    "duration": 0.06521737499999958
                },
                {
                    "name": "B5",
                    "midi": 83,
                    "time": 7.5652154999999865,
                    "velocity": 0.48031496062992124,
                    "duration": 0.06521737499999958
                },
                {
                    "name": "A#5",
                    "midi": 82,
                    "time": 7.695650249999986,
                    "velocity": 0.47244094488188976,
                    "duration": 0.06521737499999958
                },
                {
                    "name": "F#5",
                    "midi": 78,
                    "time": 7.826084999999985,
                    "velocity": 0.5196850393700787,
                    "duration": 0.13043475000000004
                },
                {
                    "name": "B5",
                    "midi": 83,
                    "time": 7.826084999999985,
                    "velocity": 0.5196850393700787,
                    "duration": 0.13043475000000004
                },
                {
                    "name": "D5",
                    "midi": 74,
                    "time": 7.956519749999985,
                    "velocity": 0.47244094488188976,
                    "duration": 0.13043475000000004
                },
                {
                    "name": "B4",
                    "midi": 71,
                    "time": 8.086954499999985,
                    "velocity": 0.4566929133858268,
                    "duration": 0.06521737499999958
                },
                {
                    "name": "F#4",
                    "midi": 66,
                    "time": 8.217389249999984,
                    "velocity": 0.4566929133858268,
                    "duration": 0.06521737499999958
                },
                {
                    "name": "D5",
                    "midi": 74,
                    "time": 8.347823999999983,
                    "velocity": 0.5511811023622047,
                    "duration": 0.13043474999999916
                },
                {
                    "name": "G5",
                    "midi": 79,
                    "time": 8.347823999999983,
                    "velocity": 0.7165354330708661,
                    "duration": 0.5217389999999984
                },
                {
                    "name": "B4",
                    "midi": 71,
                    "time": 8.478258749999982,
                    "velocity": 0.5511811023622047,
                    "duration": 0.13043474999999916
                },
                {
                    "name": "A4",
                    "midi": 69,
                    "time": 8.869562999999982,
                    "velocity": 0.4094488188976378,
                    "duration": 0.13043474999999916
                },
                {
                    "name": "B4",
                    "midi": 71,
                    "time": 8.99999774999998,
                    "velocity": 0.4409448818897638,
                    "duration": 0.06521737499999958
                },
                {
                    "name": "C#5",
                    "midi": 73,
                    "time": 9.13043249999998,
                    "velocity": 0.47244094488188976,
                    "duration": 0.06521737499999958
                },
                {
                    "name": "D5",
                    "midi": 74,
                    "time": 9.26086724999998,
                    "velocity": 0.5039370078740157,
                    "duration": 0.06521737499999958
                },
                {
                    "name": "F#5",
                    "midi": 78,
                    "time": 9.391301999999978,
                    "velocity": 0.6062992125984252,
                    "duration": 0.06521737499999958
                },
                {
                    "name": "E5",
                    "midi": 76,
                    "time": 9.521736749999977,
                    "velocity": 0.5196850393700787,
                    "duration": 0.06521737499999958
                },
                {
                    "name": "D5",
                    "midi": 74,
                    "time": 9.652171499999977,
                    "velocity": 0.5118110236220472,
                    "duration": 0.06521737499999958
                },
                {
                    "name": "C5",
                    "midi": 72,
                    "time": 9.782606249999976,
                    "velocity": 0.49606299212598426,
                    "duration": 0.06521737499999958
                },
                {
                    "name": "B4",
                    "midi": 71,
                    "time": 9.913040999999975,
                    "velocity": 0.4881889763779528,
                    "duration": 0.06521737499999958
                },
                {
                    "name": "A4",
                    "midi": 69,
                    "time": 10.043475749999974,
                    "velocity": 0.48031496062992124,
                    "duration": 0.06521737499999958
                },
                {
                    "name": "G4",
                    "midi": 67,
                    "time": 10.173910499999973,
                    "velocity": 0.4645669291338583,
                    "duration": 0.06521737499999958
                },
                {
                    "name": "F#4",
                    "midi": 66,
                    "time": 10.304345249999972,
                    "velocity": 0.4566929133858268,
                    "duration": 0.06521737499999958
                },
                {
                    "name": "E4",
                    "midi": 64,
                    "time": 10.434779999999972,
                    "velocity": 0.5354330708661418,
                    "duration": 0.13043474999999916
                },
                {
                    "name": "G4",
                    "midi": 67,
                    "time": 10.434779999999972,
                    "velocity": 0.6929133858267716,
                    "duration": 0.5217389999999984
                },
                {
                    "name": "B3",
                    "midi": 59,
                    "time": 10.56521474999997,
                    "velocity": 0.5433070866141733,
                    "duration": 0.13043474999999916
                },
                {
                    "name": "F#4",
                    "midi": 66,
                    "time": 10.95651899999997,
                    "velocity": 0.47244094488188976,
                    "duration": 0.13043474999999916
                },
                {
                    "name": "G4",
                    "midi": 67,
                    "time": 11.086953749999969,
                    "velocity": 0.4566929133858268,
                    "duration": 0.06521737499999958
                },
                {
                    "name": "A4",
                    "midi": 69,
                    "time": 11.217388499999968,
                    "velocity": 0.4881889763779528,
                    "duration": 0.06521737499999958
                },
                {
                    "name": "B4",
                    "midi": 71,
                    "time": 11.347823249999967,
                    "velocity": 0.5118110236220472,
                    "duration": 0.06521737499999958
                },
                {
                    "name": "D5",
                    "midi": 74,
                    "time": 11.478257999999967,
                    "velocity": 0.5984251968503937,
                    "duration": 0.06521737499999958
                },
                {
                    "name": "C5",
                    "midi": 72,
                    "time": 11.608692749999966,
                    "velocity": 0.5196850393700787,
                    "duration": 0.06521737499999958
                },
                {
                    "name": "B4",
                    "midi": 71,
                    "time": 11.739127499999965,
                    "velocity": 0.5118110236220472,
                    "duration": 0.06521737499999958
                },
                {
                    "name": "A4",
                    "midi": 69,
                    "time": 11.869562249999964,
                    "velocity": 0.49606299212598426,
                    "duration": 0.06521737499999958
                },
                {
                    "name": "G4",
                    "midi": 67,
                    "time": 11.999996999999963,
                    "velocity": 0.48031496062992124,
                    "duration": 0.06521737499999958
                },
                {
                    "name": "F#4",
                    "midi": 66,
                    "time": 12.130431749999962,
                    "velocity": 0.47244094488188976,
                    "duration": 0.06521737499999958
                },
                {
                    "name": "E4",
                    "midi": 64,
                    "time": 12.260866499999961,
                    "velocity": 0.4566929133858268,
                    "duration": 0.06521737499999958
                },
                {
                    "name": "D#4",
                    "midi": 63,
                    "time": 12.39130124999996,
                    "velocity": 0.4409448818897638,
                    "duration": 0.06521737499999958
                },
                {
                    "name": "C4",
                    "midi": 60,
                    "time": 12.52173599999996,
                    "velocity": 0.4409448818897638,
                    "duration": 0.13043474999999916
                },
                {
                    "name": "E4",
                    "midi": 64,
                    "time": 12.52173599999996,
                    "velocity": 0.4409448818897638,
                    "duration": 0.5217389999999984
                },
                {
                    "name": "G3",
                    "midi": 55,
                    "time": 12.652170749999959,
                    "velocity": 0.4251968503937008,
                    "duration": 0.13043474999999916
                },
                {
                    "name": "D4",
                    "midi": 62,
                    "time": 13.043474999999958,
                    "velocity": 0.4015748031496063,
                    "duration": 0.2608694999999983
                },
                {
                    "name": "E4",
                    "midi": 64,
                    "time": 13.173909749999957,
                    "velocity": 0.4094488188976378,
                    "duration": 0.13043474999999916
                },
                {
                    "name": "B3",
                    "midi": 59,
                    "time": 13.304344499999956,
                    "velocity": 0.41732283464566927,
                    "duration": 0.2608694999999983
                },
                {
                    "name": "F4",
                    "midi": 65,
                    "time": 13.304344499999956,
                    "velocity": 0.41732283464566927,
                    "duration": 0.13043474999999916
                },
                {
                    "name": "G4",
                    "midi": 67,
                    "time": 13.434779249999956,
                    "velocity": 0.4330708661417323,
                    "duration": 0.13043474999999916
                },
                {
                    "name": "C4",
                    "midi": 60,
                    "time": 13.565213999999955,
                    "velocity": 0.4409448818897638,
                    "duration": 0.13043474999999916
                },
                {
                    "name": "E4",
                    "midi": 64,
                    "time": 13.565213999999955,
                    "velocity": 0.4409448818897638,
                    "duration": 0.5217389999999984
                },
                {
                    "name": "G3",
                    "midi": 55,
                    "time": 13.695648749999954,
                    "velocity": 0.41732283464566927,
                    "duration": 0.13043474999999916
                },
                {
                    "name": "F4",
                    "midi": 65,
                    "time": 14.086952999999953,
                    "velocity": 0.4251968503937008,
                    "duration": 0.2608694999999983
                },
                {
                    "name": "G4",
                    "midi": 67,
                    "time": 14.217387749999952,
                    "velocity": 0.44881889763779526,
                    "duration": 0.13043474999999916
                },
                {
                    "name": "D4",
                    "midi": 62,
                    "time": 14.347822499999952,
                    "velocity": 0.47244094488188976,
                    "duration": 0.2608694999999983
                },
                {
                    "name": "A4",
                    "midi": 69,
                    "time": 14.347822499999952,
                    "velocity": 0.47244094488188976,
                    "duration": 0.13043474999999916
                },
                {
                    "name": "B4",
                    "midi": 71,
                    "time": 14.47825724999995,
                    "velocity": 0.49606299212598426,
                    "duration": 0.13043474999999916
                },
                {
                    "name": "G4",
                    "midi": 67,
                    "time": 14.60869199999995,
                    "velocity": 0.5196850393700787,
                    "duration": 0.13043474999999916
                },
                {
                    "name": "C5",
                    "midi": 72,
                    "time": 14.60869199999995,
                    "velocity": 0.5196850393700787,
                    "duration": 0.5217389999999984
                },
                {
                    "name": "E4",
                    "midi": 64,
                    "time": 14.739126749999949,
                    "velocity": 0.4409448818897638,
                    "duration": 0.13043474999999916
                },
                {
                    "name": "A#4",
                    "midi": 70,
                    "time": 15.130430999999948,
                    "velocity": 0.6062992125984252,
                    "duration": 1.565216999999997
                },
                {
                    "name": "E5",
                    "midi": 76,
                    "time": 15.130430999999948,
                    "velocity": 0.6062992125984252,
                    "duration": 1.565216999999997
                },
                {
                    "name": "E4",
                    "midi": 64,
                    "time": 15.260865749999947,
                    "velocity": 0.4409448818897638,
                    "duration": 0.13043474999999916
                },
                {
                    "name": "F#4",
                    "midi": 66,
                    "time": 16.696734956249944,
                    "velocity": 0.5511811023622047,
                    "duration": 0.13043474999999916
                },
                {
                    "name": "B4",
                    "midi": 71,
                    "time": 16.696734956249944,
                    "velocity": 0.7322834645669292,
                    "duration": 0.5217389999999966
                },
                {
                    "name": "D4",
                    "midi": 62,
                    "time": 16.826082749999944,
                    "velocity": 0.48031496062992124,
                    "duration": 0.13043474999999916
                },
                {
                    "name": "C#5",
                    "midi": 73,
                    "time": 17.217386999999942,
                    "velocity": 0.44881889763779526,
                    "duration": 0.13043474999999916
                },
                {
                    "name": "D5",
                    "midi": 74,
                    "time": 17.34782174999994,
                    "velocity": 0.44881889763779526,
                    "duration": 0.06521737499999958
                },
                {
                    "name": "E5",
                    "midi": 76,
                    "time": 17.47825649999994,
                    "velocity": 0.44881889763779526,
                    "duration": 0.06521737499999958
                },
                {
                    "name": "F#5",
                    "midi": 78,
                    "time": 17.60869124999994,
                    "velocity": 0.44881889763779526,
                    "duration": 0.06521737499999958
                },
                {
                    "name": "A5",
                    "midi": 81,
                    "time": 17.73912599999994,
                    "velocity": 0.6141732283464567,
                    "duration": 0.06521737499999958
                },
                {
                    "name": "G5",
                    "midi": 79,
                    "time": 17.869560749999938,
                    "velocity": 0.44881889763779526,
                    "duration": 0.06521737499999958
                },
                {
                    "name": "F#5",
                    "midi": 78,
                    "time": 17.999995499999937,
                    "velocity": 0.44881889763779526,
                    "duration": 0.06521737499999958
                },
                {
                    "name": "E5",
                    "midi": 76,
                    "time": 18.130430249999936,
                    "velocity": 0.44881889763779526,
                    "duration": 0.06521737499999958
                },
                {
                    "name": "G5",
                    "midi": 79,
                    "time": 18.260864999999935,
                    "velocity": 0.5984251968503937,
                    "duration": 0.06521737499999958
                },
                {
                    "name": "F#5",
                    "midi": 78,
                    "time": 18.391299749999934,
                    "velocity": 0.44881889763779526,
                    "duration": 0.06521737499999958
                },
                {
                    "name": "E5",
                    "midi": 76,
                    "time": 18.521734499999933,
                    "velocity": 0.44881889763779526,
                    "duration": 0.06521737499999958
                },
                {
                    "name": "D5",
                    "midi": 74,
                    "time": 18.652169249999933,
                    "velocity": 0.44881889763779526,
                    "duration": 0.06521737499999958
                },
                {
                    "name": "B4",
                    "midi": 71,
                    "time": 18.78260399999993,
                    "velocity": 0.5511811023622047,
                    "duration": 0.13043474999999916
                },
                {
                    "name": "E5",
                    "midi": 76,
                    "time": 18.78260399999993,
                    "velocity": 0.7322834645669292,
                    "duration": 0.5217389999999966
                },
                {
                    "name": "G4",
                    "midi": 67,
                    "time": 18.91303874999993,
                    "velocity": 0.48031496062992124,
                    "duration": 0.13043474999999916
                },
                {
                    "name": "F#5",
                    "midi": 78,
                    "time": 19.30434299999993,
                    "velocity": 0.44881889763779526,
                    "duration": 0.13043474999999916
                },
                {
                    "name": "G5",
                    "midi": 79,
                    "time": 19.434777749999927,
                    "velocity": 0.44881889763779526,
                    "duration": 0.06521737499999958
                },
                {
                    "name": "A5",
                    "midi": 81,
                    "time": 19.565212499999927,
                    "velocity": 0.44881889763779526,
                    "duration": 0.06521737499999958
                },
                {
                    "name": "B5",
                    "midi": 83,
                    "time": 19.695647249999926,
                    "velocity": 0.44881889763779526,
                    "duration": 0.06521737499999958
                },
                {
                    "name": "D6",
                    "midi": 86,
                    "time": 19.826081999999925,
                    "velocity": 0.6141732283464567,
                    "duration": 0.06521737499999958
                },
                {
                    "name": "C#6",
                    "midi": 85,
                    "time": 19.956516749999924,
                    "velocity": 0.44881889763779526,
                    "duration": 0.06521737499999958
                },
                {
                    "name": "B5",
                    "midi": 83,
                    "time": 20.086951499999923,
                    "velocity": 0.44881889763779526,
                    "duration": 0.06521737499999958
                },
                {
                    "name": "A#5",
                    "midi": 82,
                    "time": 20.217386249999922,
                    "velocity": 0.44881889763779526,
                    "duration": 0.06521737499999958
                },
                {
                    "name": "F#5",
                    "midi": 78,
                    "time": 20.34782099999992,
                    "velocity": 0.5196850393700787,
                    "duration": 0.13043474999999916
                },
                {
                    "name": "B5",
                    "midi": 83,
                    "time": 20.34782099999992,
                    "velocity": 0.5196850393700787,
                    "duration": 0.13043474999999916
                },
                {
                    "name": "D5",
                    "midi": 74,
                    "time": 20.47825574999992,
                    "velocity": 0.44881889763779526,
                    "duration": 0.13043474999999916
                },
                {
                    "name": "B4",
                    "midi": 71,
                    "time": 20.60869049999992,
                    "velocity": 0.44881889763779526,
                    "duration": 0.06521737499999958
                },
                {
                    "name": "F#4",
                    "midi": 66,
                    "time": 20.73912524999992,
                    "velocity": 0.44881889763779526,
                    "duration": 0.06521737499999958
                },
                {
                    "name": "D5",
                    "midi": 74,
                    "time": 20.869559999999918,
                    "velocity": 0.5511811023622047,
                    "duration": 0.13043474999999916
                },
                {
                    "name": "G5",
                    "midi": 79,
                    "time": 20.869559999999918,
                    "velocity": 0.7165354330708661,
                    "duration": 0.5217389999999966
                },
                {
                    "name": "B4",
                    "midi": 71,
                    "time": 20.999994749999917,
                    "velocity": 0.5511811023622047,
                    "duration": 0.13043474999999916
                },
                {
                    "name": "A4",
                    "midi": 69,
                    "time": 21.391298999999915,
                    "velocity": 0.4094488188976378,
                    "duration": 0.13043474999999916
                },
                {
                    "name": "B4",
                    "midi": 71,
                    "time": 21.521733749999914,
                    "velocity": 0.4409448818897638,
                    "duration": 0.06521737499999958
                },
                {
                    "name": "C#5",
                    "midi": 73,
                    "time": 21.652168499999913,
                    "velocity": 0.47244094488188976,
                    "duration": 0.06521737499999958
                },
                {
                    "name": "D5",
                    "midi": 74,
                    "time": 21.782603249999912,
                    "velocity": 0.5039370078740157,
                    "duration": 0.06521737499999958
                },
                {
                    "name": "F#5",
                    "midi": 78,
                    "time": 21.91303799999991,
                    "velocity": 0.6062992125984252,
                    "duration": 0.06521737499999958
                },
                {
                    "name": "E5",
                    "midi": 76,
                    "time": 22.04347274999991,
                    "velocity": 0.5196850393700787,
                    "duration": 0.06521737499999958
                },
                {
                    "name": "D5",
                    "midi": 74,
                    "time": 22.17390749999991,
                    "velocity": 0.5118110236220472,
                    "duration": 0.06521737499999958
                },
                {
                    "name": "C5",
                    "midi": 72,
                    "time": 22.30434224999991,
                    "velocity": 0.49606299212598426,
                    "duration": 0.06521737499999958
                },
                {
                    "name": "B4",
                    "midi": 71,
                    "time": 22.434776999999908,
                    "velocity": 0.4881889763779528,
                    "duration": 0.06521737499999958
                },
                {
                    "name": "A4",
                    "midi": 69,
                    "time": 22.565211749999907,
                    "velocity": 0.48031496062992124,
                    "duration": 0.06521737499999958
                },
                {
                    "name": "G4",
                    "midi": 67,
                    "time": 22.695646499999906,
                    "velocity": 0.4645669291338583,
                    "duration": 0.06521737499999958
                },
                {
                    "name": "F#4",
                    "midi": 66,
                    "time": 22.826081249999906,
                    "velocity": 0.4566929133858268,
                    "duration": 0.06521737499999958
                },
                {
                    "name": "E4",
                    "midi": 64,
                    "time": 22.956515999999905,
                    "velocity": 0.5354330708661418,
                    "duration": 0.13043474999999916
                },
                {
                    "name": "G4",
                    "midi": 67,
                    "time": 22.956515999999905,
                    "velocity": 0.6929133858267716,
                    "duration": 0.5217389999999966
                },
                {
                    "name": "B3",
                    "midi": 59,
                    "time": 23.086950749999904,
                    "velocity": 0.5433070866141733,
                    "duration": 0.13043474999999916
                },
                {
                    "name": "F#4",
                    "midi": 66,
                    "time": 23.4782549999999,
                    "velocity": 0.47244094488188976,
                    "duration": 0.13043474999999916
                },
                {
                    "name": "G4",
                    "midi": 67,
                    "time": 23.6086897499999,
                    "velocity": 0.4566929133858268,
                    "duration": 0.06521737499999958
                },
                {
                    "name": "A4",
                    "midi": 69,
                    "time": 23.7391244999999,
                    "velocity": 0.4881889763779528,
                    "duration": 0.06521737499999958
                },
                {
                    "name": "B4",
                    "midi": 71,
                    "time": 23.8695592499999,
                    "velocity": 0.5118110236220472,
                    "duration": 0.06521737499999958
                },
                {
                    "name": "D5",
                    "midi": 74,
                    "time": 23.999993999999898,
                    "velocity": 0.6299212598425197,
                    "duration": 0.06521737499999958
                },
                {
                    "name": "C5",
                    "midi": 72,
                    "time": 24.130428749999897,
                    "velocity": 0.5196850393700787,
                    "duration": 0.06521737499999958
                },
                {
                    "name": "B4",
                    "midi": 71,
                    "time": 24.260863499999896,
                    "velocity": 0.5118110236220472,
                    "duration": 0.06521737499999958
                },
                {
                    "name": "A4",
                    "midi": 69,
                    "time": 24.391298249999895,
                    "velocity": 0.49606299212598426,
                    "duration": 0.06521737499999958
                },
                {
                    "name": "G4",
                    "midi": 67,
                    "time": 24.521732999999895,
                    "velocity": 0.48031496062992124,
                    "duration": 0.06521737499999958
                },
                {
                    "name": "F#4",
                    "midi": 66,
                    "time": 24.652167749999894,
                    "velocity": 0.47244094488188976,
                    "duration": 0.06521737499999958
                },
                {
                    "name": "E4",
                    "midi": 64,
                    "time": 24.782602499999893,
                    "velocity": 0.4566929133858268,
                    "duration": 0.06521737499999958
                },
                {
                    "name": "D#4",
                    "midi": 63,
                    "time": 24.913037249999892,
                    "velocity": 0.4409448818897638,
                    "duration": 0.06521737499999958
                },
                {
                    "name": "C4",
                    "midi": 60,
                    "time": 25.04347199999989,
                    "velocity": 0.4409448818897638,
                    "duration": 0.13043474999999916
                },
                {
                    "name": "E4",
                    "midi": 64,
                    "time": 25.04347199999989,
                    "velocity": 0.4409448818897638,
                    "duration": 0.5217389999999966
                },
                {
                    "name": "G3",
                    "midi": 55,
                    "time": 25.17390674999989,
                    "velocity": 0.4251968503937008,
                    "duration": 0.13043474999999916
                },
                {
                    "name": "D4",
                    "midi": 62,
                    "time": 25.565210999999888,
                    "velocity": 0.4015748031496063,
                    "duration": 0.2608694999999983
                },
                {
                    "name": "E4",
                    "midi": 64,
                    "time": 25.695645749999887,
                    "velocity": 0.4094488188976378,
                    "duration": 0.13043474999999916
                },
                {
                    "name": "B3",
                    "midi": 59,
                    "time": 25.826080499999886,
                    "velocity": 0.41732283464566927,
                    "duration": 0.2608694999999983
                },
                {
                    "name": "F4",
                    "midi": 65,
                    "time": 25.826080499999886,
                    "velocity": 0.41732283464566927,
                    "duration": 0.13043474999999916
                },
                {
                    "name": "G4",
                    "midi": 67,
                    "time": 25.956515249999885,
                    "velocity": 0.4330708661417323,
                    "duration": 0.13043474999999916
                },
                {
                    "name": "C4",
                    "midi": 60,
                    "time": 26.086949999999884,
                    "velocity": 0.4409448818897638,
                    "duration": 0.13043474999999916
                },
                {
                    "name": "E4",
                    "midi": 64,
                    "time": 26.086949999999884,
                    "velocity": 0.4409448818897638,
                    "duration": 0.5217389999999966
                },
                {
                    "name": "G3",
                    "midi": 55,
                    "time": 26.217384749999884,
                    "velocity": 0.41732283464566927,
                    "duration": 0.13043474999999916
                },
                {
                    "name": "F4",
                    "midi": 65,
                    "time": 26.60868899999988,
                    "velocity": 0.4251968503937008,
                    "duration": 0.2608694999999983
                },
                {
                    "name": "G4",
                    "midi": 67,
                    "time": 26.73912374999988,
                    "velocity": 0.44881889763779526,
                    "duration": 0.13043474999999916
                },
                {
                    "name": "D4",
                    "midi": 62,
                    "time": 26.86955849999988,
                    "velocity": 0.47244094488188976,
                    "duration": 0.2608694999999983
                },
                {
                    "name": "A4",
                    "midi": 69,
                    "time": 26.86955849999988,
                    "velocity": 0.47244094488188976,
                    "duration": 0.13043474999999916
                },
                {
                    "name": "B4",
                    "midi": 71,
                    "time": 26.99999324999988,
                    "velocity": 0.49606299212598426,
                    "duration": 0.13043474999999916
                },
                {
                    "name": "G4",
                    "midi": 67,
                    "time": 27.130427999999878,
                    "velocity": 0.5196850393700787,
                    "duration": 0.13043474999999916
                },
                {
                    "name": "C5",
                    "midi": 72,
                    "time": 27.130427999999878,
                    "velocity": 0.5196850393700787,
                    "duration": 0.5217389999999966
                },
                {
                    "name": "E4",
                    "midi": 64,
                    "time": 27.260862749999877,
                    "velocity": 0.4409448818897638,
                    "duration": 0.13043474999999916
                },
                {
                    "name": "A#4",
                    "midi": 70,
                    "time": 27.652166999999874,
                    "velocity": 0.6062992125984252,
                    "duration": 1.565216999999997
                },
                {
                    "name": "E5",
                    "midi": 76,
                    "time": 27.652166999999874,
                    "velocity": 0.6062992125984252,
                    "duration": 1.565216999999997
                },
                {
                    "name": "E4",
                    "midi": 64,
                    "time": 27.782601749999873,
                    "velocity": 0.4409448818897638,
                    "duration": 0.13043474999999916
                },
                {
                    "name": "F#4",
                    "midi": 66,
                    "time": 29.21847095624987,
                    "velocity": 0.5511811023622047,
                    "duration": 0.13043474999999916
                },
                {
                    "name": "B4",
                    "midi": 71,
                    "time": 29.21847095624987,
                    "velocity": 0.7559055118110236,
                    "duration": 0.5217389999999966
                },
                {
                    "name": "D4",
                    "midi": 62,
                    "time": 29.34781874999987,
                    "velocity": 0.48031496062992124,
                    "duration": 0.13043474999999916
                },
                {
                    "name": "C#5",
                    "midi": 73,
                    "time": 29.739122999999868,
                    "velocity": 0.44881889763779526,
                    "duration": 0.13043474999999916
                },
                {
                    "name": "D5",
                    "midi": 74,
                    "time": 29.869557749999867,
                    "velocity": 0.44881889763779526,
                    "duration": 0.06521737499999958
                },
                {
                    "name": "E5",
                    "midi": 76,
                    "time": 29.999992499999866,
                    "velocity": 0.44881889763779526,
                    "duration": 0.06521737499999958
                },
                {
                    "name": "F#5",
                    "midi": 78,
                    "time": 30.130427249999865,
                    "velocity": 0.44881889763779526,
                    "duration": 0.06521737499999958
                },
                {
                    "name": "A5",
                    "midi": 81,
                    "time": 30.260861999999864,
                    "velocity": 0.5984251968503937,
                    "duration": 0.06521737499999958
                },
                {
                    "name": "G5",
                    "midi": 79,
                    "time": 30.391296749999864,
                    "velocity": 0.44881889763779526,
                    "duration": 0.06521737499999958
                },
                {
                    "name": "F#5",
                    "midi": 78,
                    "time": 30.521731499999863,
                    "velocity": 0.44881889763779526,
                    "duration": 0.06521737499999958
                },
                {
                    "name": "E5",
                    "midi": 76,
                    "time": 30.652166249999862,
                    "velocity": 0.44881889763779526,
                    "duration": 0.06521737499999958
                },
                {
                    "name": "G5",
                    "midi": 79,
                    "time": 30.78260099999986,
                    "velocity": 0.5748031496062992,
                    "duration": 0.06521737499999958
                },
                {
                    "name": "F#5",
                    "midi": 78,
                    "time": 30.91303574999986,
                    "velocity": 0.44881889763779526,
                    "duration": 0.06521737499999958
                },
                {
                    "name": "E5",
                    "midi": 76,
                    "time": 31.04347049999986,
                    "velocity": 0.44881889763779526,
                    "duration": 0.06521737499999958
                },
                {
                    "name": "D5",
                    "midi": 74,
                    "time": 31.17390524999986,
                    "velocity": 0.44881889763779526,
                    "duration": 0.06521737499999958
                },
                {
                    "name": "B4",
                    "midi": 71,
                    "time": 31.304339999999858,
                    "velocity": 0.5511811023622047,
                    "duration": 0.13043474999999916
                },
                {
                    "name": "E5",
                    "midi": 76,
                    "time": 31.304339999999858,
                    "velocity": 0.7322834645669292,
                    "duration": 0.5217389999999966
                },
                {
                    "name": "G4",
                    "midi": 67,
                    "time": 31.434774749999857,
                    "velocity": 0.48031496062992124,
                    "duration": 0.13043474999999916
                },
                {
                    "name": "F#5",
                    "midi": 78,
                    "time": 31.826078999999854,
                    "velocity": 0.44881889763779526,
                    "duration": 0.13043474999999916
                },
                {
                    "name": "G5",
                    "midi": 79,
                    "time": 31.956513749999854,
                    "velocity": 0.44881889763779526,
                    "duration": 0.06521737499999958
                },
                {
                    "name": "A5",
                    "midi": 81,
                    "time": 32.086948499999856,
                    "velocity": 0.44881889763779526,
                    "duration": 0.06521737500000313
                },
                {
                    "name": "B5",
                    "midi": 83,
                    "time": 32.21738324999986,
                    "velocity": 0.44881889763779526,
                    "duration": 0.06521737500000313
                },
                {
                    "name": "D6",
                    "midi": 86,
                    "time": 32.34781799999987,
                    "velocity": 0.5275590551181102,
                    "duration": 0.06521737500000313
                },
                {
                    "name": "C#6",
                    "midi": 85,
                    "time": 32.478252749999875,
                    "velocity": 0.41732283464566927,
                    "duration": 0.06521737500000313
                },
                {
                    "name": "B5",
                    "midi": 83,
                    "time": 32.60868749999988,
                    "velocity": 0.3700787401574803,
                    "duration": 0.06521737500000313
                },
                {
                    "name": "A#5",
                    "midi": 82,
                    "time": 32.73912224999989,
                    "velocity": 0.3700787401574803,
                    "duration": 0.06521737500000313
                },
                {
                    "name": "B5",
                    "midi": 83,
                    "time": 32.869556999999894,
                    "velocity": 0.41732283464566927,
                    "duration": 0.2608694999999983
                }
            ],
            "controlChanges": {
                "7": [
                    {
                        "number": 7,
                        "time": 0,
                        "value": 0.7874015748031497
                    }
                ],
                "10": [
                    {
                        "number": 10,
                        "time": 0,
                        "value": 0.5039370078740157
                    }
                ],
                "91": [
                    {
                        "number": 91,
                        "time": 0,
                        "value": 1
                    },
                    {
                        "number": 91,
                        "time": 4.173912,
                        "value": 1
                    },
                    {
                        "number": 91,
                        "time": 16.695647999999945,
                        "value": 1
                    },
                    {
                        "number": 91,
                        "time": 29.21738399999987,
                        "value": 1
                    }
                ]
            },
            "id": 1,
            "name": "Piano right",
            "instrumentNumber": 0,
            "instrument": "acoustic grand piano",
            "instrumentFamily": "piano",
            "channelNumber": 0,
            "isPercussion": false
        },
        {
            "startTime": 0.00108695625,
            "duration": 33.13042649999991,
            "length": 176,
            "notes": [
                {
                    "name": "B2",
                    "midi": 47,
                    "time": 0.00108695625,
                    "velocity": 0.6299212598425197,
                    "duration": 0.065217375
                },
                {
                    "name": "B3",
                    "midi": 59,
                    "time": 0.2608695,
                    "velocity": 0.4251968503937008,
                    "duration": 0.06521737500000002
                },
                {
                    "name": "F#3",
                    "midi": 54,
                    "time": 0.39130425,
                    "velocity": 0.4251968503937008,
                    "duration": 0.06521737500000002
                },
                {
                    "name": "B2",
                    "midi": 47,
                    "time": 0.5217390000000001,
                    "velocity": 0.44881889763779526,
                    "duration": 0.06521737500000002
                },
                {
                    "name": "D4",
                    "midi": 62,
                    "time": 0.7826085,
                    "velocity": 0.3937007874015748,
                    "duration": 0.06521737500000002
                },
                {
                    "name": "F#3",
                    "midi": 54,
                    "time": 0.7826085,
                    "velocity": 0.3937007874015748,
                    "duration": 0.06521737500000002
                },
                {
                    "name": "E3",
                    "midi": 52,
                    "time": 1.0434780000000001,
                    "velocity": 0.4881889763779528,
                    "duration": 0.06521737500000002
                },
                {
                    "name": "E4",
                    "midi": 64,
                    "time": 1.3043475000000002,
                    "velocity": 0.4094488188976378,
                    "duration": 0.06521737500000002
                },
                {
                    "name": "B3",
                    "midi": 59,
                    "time": 1.3043475000000002,
                    "velocity": 0.4094488188976378,
                    "duration": 0.06521737500000002
                },
                {
                    "name": "B2",
                    "midi": 47,
                    "time": 1.5652170000000003,
                    "velocity": 0.4645669291338583,
                    "duration": 0.06521737500000002
                },
                {
                    "name": "D4",
                    "midi": 62,
                    "time": 1.8260865000000004,
                    "velocity": 0.4094488188976378,
                    "duration": 0.06521737500000002
                },
                {
                    "name": "B3",
                    "midi": 59,
                    "time": 1.8260865000000004,
                    "velocity": 0.4094488188976378,
                    "duration": 0.06521737500000002
                },
                {
                    "name": "E3",
                    "midi": 52,
                    "time": 2.0869560000000003,
                    "velocity": 0.6141732283464567,
                    "duration": 0.13043475000000004
                },
                {
                    "name": "E4",
                    "midi": 64,
                    "time": 2.3478255000000003,
                    "velocity": 0.4015748031496063,
                    "duration": 0.06521737500000002
                },
                {
                    "name": "B3",
                    "midi": 59,
                    "time": 2.4782602500000004,
                    "velocity": 0.4094488188976378,
                    "duration": 0.06521737500000002
                },
                {
                    "name": "E3",
                    "midi": 52,
                    "time": 2.6086950000000004,
                    "velocity": 0.44881889763779526,
                    "duration": 0.06521737500000002
                },
                {
                    "name": "E4",
                    "midi": 64,
                    "time": 2.8695645000000005,
                    "velocity": 0.4094488188976378,
                    "duration": 0.06521737500000002
                },
                {
                    "name": "G4",
                    "midi": 67,
                    "time": 2.8695645000000005,
                    "velocity": 0.4094488188976378,
                    "duration": 0.06521737500000002
                },
                {
                    "name": "F#3",
                    "midi": 54,
                    "time": 3.1304340000000006,
                    "velocity": 0.4645669291338583,
                    "duration": 0.06521737500000002
                },
                {
                    "name": "E4",
                    "midi": 64,
                    "time": 3.3913035000000007,
                    "velocity": 0.3937007874015748,
                    "duration": 0.06521737500000002
                },
                {
                    "name": "A#4",
                    "midi": 70,
                    "time": 3.3913035000000007,
                    "velocity": 0.3937007874015748,
                    "duration": 0.06521737500000002
                },
                {
                    "name": "B3",
                    "midi": 59,
                    "time": 3.652173000000001,
                    "velocity": 0.4645669291338583,
                    "duration": 0.06521737500000002
                },
                {
                    "name": "B2",
                    "midi": 47,
                    "time": 4.1749989562500005,
                    "velocity": 0.6299212598425197,
                    "duration": 0.06521737499999958
                },
                {
                    "name": "B3",
                    "midi": 59,
                    "time": 4.434781500000001,
                    "velocity": 0.4251968503937008,
                    "duration": 0.06521737499999958
                },
                {
                    "name": "F#3",
                    "midi": 54,
                    "time": 4.56521625,
                    "velocity": 0.4251968503937008,
                    "duration": 0.06521737499999958
                },
                {
                    "name": "B2",
                    "midi": 47,
                    "time": 4.695650999999999,
                    "velocity": 0.44881889763779526,
                    "duration": 0.06521737499999958
                },
                {
                    "name": "D4",
                    "midi": 62,
                    "time": 4.956520499999998,
                    "velocity": 0.4015748031496063,
                    "duration": 0.06521737499999958
                },
                {
                    "name": "F#3",
                    "midi": 54,
                    "time": 4.956520499999998,
                    "velocity": 0.4015748031496063,
                    "duration": 0.06521737499999958
                },
                {
                    "name": "E3",
                    "midi": 52,
                    "time": 5.217389999999997,
                    "velocity": 0.48031496062992124,
                    "duration": 0.06521737499999958
                },
                {
                    "name": "E4",
                    "midi": 64,
                    "time": 5.4782594999999965,
                    "velocity": 0.4251968503937008,
                    "duration": 0.06521737499999958
                },
                {
                    "name": "B3",
                    "midi": 59,
                    "time": 5.4782594999999965,
                    "velocity": 0.4251968503937008,
                    "duration": 0.06521737499999958
                },
                {
                    "name": "B2",
                    "midi": 47,
                    "time": 5.739128999999996,
                    "velocity": 0.5039370078740157,
                    "duration": 0.06521737499999958
                },
                {
                    "name": "D4",
                    "midi": 62,
                    "time": 5.999998499999995,
                    "velocity": 0.4251968503937008,
                    "duration": 0.06521737499999958
                },
                {
                    "name": "B3",
                    "midi": 59,
                    "time": 5.999998499999995,
                    "velocity": 0.4251968503937008,
                    "duration": 0.06521737499999958
                },
                {
                    "name": "E3",
                    "midi": 52,
                    "time": 6.260867999999994,
                    "velocity": 0.6141732283464567,
                    "duration": 0.13043475000000004
                },
                {
                    "name": "E4",
                    "midi": 64,
                    "time": 6.521737499999993,
                    "velocity": 0.4015748031496063,
                    "duration": 0.06521737499999958
                },
                {
                    "name": "B3",
                    "midi": 59,
                    "time": 6.6521722499999925,
                    "velocity": 0.4094488188976378,
                    "duration": 0.06521737499999958
                },
                {
                    "name": "E3",
                    "midi": 52,
                    "time": 6.782606999999992,
                    "velocity": 0.44881889763779526,
                    "duration": 0.06521737499999958
                },
                {
                    "name": "E4",
                    "midi": 64,
                    "time": 7.043476499999991,
                    "velocity": 0.4094488188976378,
                    "duration": 0.06521737499999958
                },
                {
                    "name": "G4",
                    "midi": 67,
                    "time": 7.043476499999991,
                    "velocity": 0.4094488188976378,
                    "duration": 0.06521737499999958
                },
                {
                    "name": "F#3",
                    "midi": 54,
                    "time": 7.30434599999999,
                    "velocity": 0.47244094488188976,
                    "duration": 0.06521737499999958
                },
                {
                    "name": "E4",
                    "midi": 64,
                    "time": 7.565215499999989,
                    "velocity": 0.3937007874015748,
                    "duration": 0.06521737499999958
                },
                {
                    "name": "A#4",
                    "midi": 70,
                    "time": 7.565215499999989,
                    "velocity": 0.3937007874015748,
                    "duration": 0.06521737499999958
                },
                {
                    "name": "B3",
                    "midi": 59,
                    "time": 7.826084999999988,
                    "velocity": 0.44881889763779526,
                    "duration": 0.06521737499999958
                },
                {
                    "name": "B3",
                    "midi": 59,
                    "time": 8.347823999999989,
                    "velocity": 0.5826771653543307,
                    "duration": 0.13043474999999916
                },
                {
                    "name": "G4",
                    "midi": 67,
                    "time": 8.608693499999987,
                    "velocity": 0.3779527559055118,
                    "duration": 0.06521737499999958
                },
                {
                    "name": "D4",
                    "midi": 62,
                    "time": 8.739128249999986,
                    "velocity": 0.3779527559055118,
                    "duration": 0.06521737499999958
                },
                {
                    "name": "B3",
                    "midi": 59,
                    "time": 8.869562999999985,
                    "velocity": 0.4251968503937008,
                    "duration": 0.06521737499999958
                },
                {
                    "name": "G4",
                    "midi": 67,
                    "time": 9.130432499999985,
                    "velocity": 0.3858267716535433,
                    "duration": 0.06521737499999958
                },
                {
                    "name": "D4",
                    "midi": 62,
                    "time": 9.130432499999985,
                    "velocity": 0.3858267716535433,
                    "duration": 0.06521737499999958
                },
                {
                    "name": "A3",
                    "midi": 57,
                    "time": 9.391301999999985,
                    "velocity": 0.47244094488188976,
                    "duration": 0.06521737499999958
                },
                {
                    "name": "G4",
                    "midi": 67,
                    "time": 9.652171499999985,
                    "velocity": 0.4015748031496063,
                    "duration": 0.06521737499999958
                },
                {
                    "name": "C4",
                    "midi": 60,
                    "time": 9.652171499999985,
                    "velocity": 0.4015748031496063,
                    "duration": 0.06521737499999958
                },
                {
                    "name": "D3",
                    "midi": 50,
                    "time": 9.913040999999986,
                    "velocity": 0.4645669291338583,
                    "duration": 0.06521737499999958
                },
                {
                    "name": "C4",
                    "midi": 60,
                    "time": 10.173910499999986,
                    "velocity": 0.3858267716535433,
                    "duration": 0.06521737499999958
                },
                {
                    "name": "G3",
                    "midi": 55,
                    "time": 10.695649499999986,
                    "velocity": 0.3700787401574803,
                    "duration": 0.06521737499999958
                },
                {
                    "name": "E3",
                    "midi": 52,
                    "time": 10.826084249999985,
                    "velocity": 0.3700787401574803,
                    "duration": 0.06521737499999958
                },
                {
                    "name": "B2",
                    "midi": 47,
                    "time": 10.956518999999984,
                    "velocity": 0.4251968503937008,
                    "duration": 0.13043474999999916
                },
                {
                    "name": "B3",
                    "midi": 59,
                    "time": 11.217388499999982,
                    "velocity": 0.3700787401574803,
                    "duration": 0.06521737499999958
                },
                {
                    "name": "G3",
                    "midi": 55,
                    "time": 11.217388499999982,
                    "velocity": 0.3700787401574803,
                    "duration": 0.06521737499999958
                },
                {
                    "name": "A2",
                    "midi": 45,
                    "time": 11.478257999999983,
                    "velocity": 0.4645669291338583,
                    "duration": 0.06521737499999958
                },
                {
                    "name": "C4",
                    "midi": 60,
                    "time": 11.739127499999983,
                    "velocity": 0.3779527559055118,
                    "duration": 0.06521737499999958
                },
                {
                    "name": "F#3",
                    "midi": 54,
                    "time": 11.739127499999983,
                    "velocity": 0.3779527559055118,
                    "duration": 0.06521737499999958
                },
                {
                    "name": "B2",
                    "midi": 47,
                    "time": 11.999996999999983,
                    "velocity": 0.4566929133858268,
                    "duration": 0.06521737499999958
                },
                {
                    "name": "F#3",
                    "midi": 54,
                    "time": 12.260866499999983,
                    "velocity": 0.3700787401574803,
                    "duration": 0.06521737499999958
                },
                {
                    "name": "A3",
                    "midi": 57,
                    "time": 12.260866499999983,
                    "velocity": 0.3700787401574803,
                    "duration": 0.06521737499999958
                },
                {
                    "name": "E3",
                    "midi": 52,
                    "time": 12.782605499999983,
                    "velocity": 0.4015748031496063,
                    "duration": 0.13043474999999916
                },
                {
                    "name": "C3",
                    "midi": 48,
                    "time": 12.913040249999982,
                    "velocity": 0.4015748031496063,
                    "duration": 0.13043474999999916
                },
                {
                    "name": "C2",
                    "midi": 36,
                    "time": 13.043474999999981,
                    "velocity": 0.4409448818897638,
                    "duration": 0.7826085000000003
                },
                {
                    "name": "G2",
                    "midi": 43,
                    "time": 13.043474999999981,
                    "velocity": 0.4409448818897638,
                    "duration": 0.7826085000000003
                },
                {
                    "name": "E3",
                    "midi": 52,
                    "time": 13.826083499999982,
                    "velocity": 0.3937007874015748,
                    "duration": 0.13043474999999916
                },
                {
                    "name": "C3",
                    "midi": 48,
                    "time": 13.95651824999998,
                    "velocity": 0.3937007874015748,
                    "duration": 0.13043474999999916
                },
                {
                    "name": "C2",
                    "midi": 36,
                    "time": 14.08695299999998,
                    "velocity": 0.4409448818897638,
                    "duration": 0.782608500000002
                },
                {
                    "name": "G2",
                    "midi": 43,
                    "time": 14.08695299999998,
                    "velocity": 0.4409448818897638,
                    "duration": 0.782608500000002
                },
                {
                    "name": "C4",
                    "midi": 60,
                    "time": 14.869561499999982,
                    "velocity": 0.41732283464566927,
                    "duration": 0.13043474999999916
                },
                {
                    "name": "G3",
                    "midi": 55,
                    "time": 14.999996249999981,
                    "velocity": 0.4251968503937008,
                    "duration": 0.13043474999999916
                },
                {
                    "name": "F#2",
                    "midi": 42,
                    "time": 15.13043099999998,
                    "velocity": 0.5196850393700787,
                    "duration": 1.5652169999999934
                },
                {
                    "name": "F#3",
                    "midi": 54,
                    "time": 15.13043099999998,
                    "velocity": 0.5196850393700787,
                    "duration": 1.5652169999999934
                },
                {
                    "name": "G#3",
                    "midi": 56,
                    "time": 15.39130049999998,
                    "velocity": 0.3937007874015748,
                    "duration": 0.13043474999999916
                },
                {
                    "name": "A3",
                    "midi": 57,
                    "time": 15.52173524999998,
                    "velocity": 0.4094488188976378,
                    "duration": 0.13043474999999916
                },
                {
                    "name": "A#3",
                    "midi": 58,
                    "time": 15.652169999999979,
                    "velocity": 0.4409448818897638,
                    "duration": 0.13043475000000093
                },
                {
                    "name": "B3",
                    "midi": 59,
                    "time": 15.78260474999998,
                    "velocity": 0.4566929133858268,
                    "duration": 0.13043474999999916
                },
                {
                    "name": "C4",
                    "midi": 60,
                    "time": 15.913039499999979,
                    "velocity": 0.47244094488188976,
                    "duration": 0.13043474999999916
                },
                {
                    "name": "C#4",
                    "midi": 61,
                    "time": 16.043474249999978,
                    "velocity": 0.5039370078740157,
                    "duration": 0.13043474999999916
                },
                {
                    "name": "D4",
                    "midi": 62,
                    "time": 16.173908999999977,
                    "velocity": 0.5275590551181102,
                    "duration": 0.13043474999999916
                },
                {
                    "name": "D#4",
                    "midi": 63,
                    "time": 16.304343749999976,
                    "velocity": 0.5275590551181102,
                    "duration": 0.13043474999999916
                },
                {
                    "name": "E4",
                    "midi": 64,
                    "time": 16.434778499999975,
                    "velocity": 0.5433070866141733,
                    "duration": 0.13043474999999916
                },
                {
                    "name": "F4",
                    "midi": 65,
                    "time": 16.565213249999974,
                    "velocity": 0.5590551181102362,
                    "duration": 0.13043474999999916
                },
                {
                    "name": "B3",
                    "midi": 59,
                    "time": 16.956517499999972,
                    "velocity": 0.4251968503937008,
                    "duration": 0.06521737499999958
                },
                {
                    "name": "F#3",
                    "midi": 54,
                    "time": 17.08695224999997,
                    "velocity": 0.4251968503937008,
                    "duration": 0.06521737499999958
                },
                {
                    "name": "B2",
                    "midi": 47,
                    "time": 17.21738699999997,
                    "velocity": 0.44881889763779526,
                    "duration": 0.06521737499999958
                },
                {
                    "name": "D4",
                    "midi": 62,
                    "time": 17.47825649999997,
                    "velocity": 0.3937007874015748,
                    "duration": 0.06521737499999958
                },
                {
                    "name": "F#3",
                    "midi": 54,
                    "time": 17.47825649999997,
                    "velocity": 0.3937007874015748,
                    "duration": 0.06521737499999958
                },
                {
                    "name": "E3",
                    "midi": 52,
                    "time": 17.739125999999967,
                    "velocity": 0.49606299212598426,
                    "duration": 0.06521737499999958
                },
                {
                    "name": "E4",
                    "midi": 64,
                    "time": 17.999995499999965,
                    "velocity": 0.4094488188976378,
                    "duration": 0.06521737499999958
                },
                {
                    "name": "B3",
                    "midi": 59,
                    "time": 17.999995499999965,
                    "velocity": 0.4094488188976378,
                    "duration": 0.06521737499999958
                },
                {
                    "name": "B2",
                    "midi": 47,
                    "time": 18.260864999999963,
                    "velocity": 0.4645669291338583,
                    "duration": 0.06521737499999958
                },
                {
                    "name": "D4",
                    "midi": 62,
                    "time": 18.521734499999962,
                    "velocity": 0.4094488188976378,
                    "duration": 0.06521737499999958
                },
                {
                    "name": "B3",
                    "midi": 59,
                    "time": 18.521734499999962,
                    "velocity": 0.4094488188976378,
                    "duration": 0.06521737499999958
                },
                {
                    "name": "E3",
                    "midi": 52,
                    "time": 18.78260399999996,
                    "velocity": 0.6141732283464567,
                    "duration": 0.13043474999999916
                },
                {
                    "name": "E4",
                    "midi": 64,
                    "time": 19.04347349999996,
                    "velocity": 0.4015748031496063,
                    "duration": 0.06521737499999958
                },
                {
                    "name": "B3",
                    "midi": 59,
                    "time": 19.173908249999958,
                    "velocity": 0.4094488188976378,
                    "duration": 0.06521737499999958
                },
                {
                    "name": "E3",
                    "midi": 52,
                    "time": 19.304342999999957,
                    "velocity": 0.44881889763779526,
                    "duration": 0.06521737499999958
                },
                {
                    "name": "G4",
                    "midi": 67,
                    "time": 19.565212499999955,
                    "velocity": 0.4094488188976378,
                    "duration": 0.06521737499999958
                },
                {
                    "name": "E4",
                    "midi": 64,
                    "time": 19.565212499999955,
                    "velocity": 0.4094488188976378,
                    "duration": 0.06521737499999958
                },
                {
                    "name": "F#3",
                    "midi": 54,
                    "time": 19.826081999999953,
                    "velocity": 0.4566929133858268,
                    "duration": 0.06521737499999958
                },
                {
                    "name": "A#4",
                    "midi": 70,
                    "time": 20.08695149999995,
                    "velocity": 0.3937007874015748,
                    "duration": 0.06521737499999958
                },
                {
                    "name": "E4",
                    "midi": 64,
                    "time": 20.08695149999995,
                    "velocity": 0.3937007874015748,
                    "duration": 0.06521737499999958
                },
                {
                    "name": "B3",
                    "midi": 59,
                    "time": 20.34782099999995,
                    "velocity": 0.44881889763779526,
                    "duration": 0.06521737499999958
                },
                {
                    "name": "B3",
                    "midi": 59,
                    "time": 20.86955999999995,
                    "velocity": 0.5826771653543307,
                    "duration": 0.13043474999999916
                },
                {
                    "name": "G4",
                    "midi": 67,
                    "time": 21.13042949999995,
                    "velocity": 0.3779527559055118,
                    "duration": 0.06521737499999958
                },
                {
                    "name": "D4",
                    "midi": 62,
                    "time": 21.260864249999948,
                    "velocity": 0.3779527559055118,
                    "duration": 0.06521737499999958
                },
                {
                    "name": "B3",
                    "midi": 59,
                    "time": 21.391298999999947,
                    "velocity": 0.4251968503937008,
                    "duration": 0.06521737499999958
                },
                {
                    "name": "G4",
                    "midi": 67,
                    "time": 21.652168499999945,
                    "velocity": 0.3858267716535433,
                    "duration": 0.06521737499999958
                },
                {
                    "name": "D4",
                    "midi": 62,
                    "time": 21.652168499999945,
                    "velocity": 0.3858267716535433,
                    "duration": 0.06521737499999958
                },
                {
                    "name": "A3",
                    "midi": 57,
                    "time": 21.913037999999943,
                    "velocity": 0.47244094488188976,
                    "duration": 0.06521737499999958
                },
                {
                    "name": "G4",
                    "midi": 67,
                    "time": 22.17390749999994,
                    "velocity": 0.4015748031496063,
                    "duration": 0.06521737499999958
                },
                {
                    "name": "C4",
                    "midi": 60,
                    "time": 22.17390749999994,
                    "velocity": 0.4015748031496063,
                    "duration": 0.06521737499999958
                },
                {
                    "name": "D3",
                    "midi": 50,
                    "time": 22.43477699999994,
                    "velocity": 0.4566929133858268,
                    "duration": 0.06521737499999958
                },
                {
                    "name": "C4",
                    "midi": 60,
                    "time": 22.69564649999994,
                    "velocity": 0.3858267716535433,
                    "duration": 0.06521737499999958
                },
                {
                    "name": "G3",
                    "midi": 55,
                    "time": 23.21738549999994,
                    "velocity": 0.3700787401574803,
                    "duration": 0.06521737499999958
                },
                {
                    "name": "E3",
                    "midi": 52,
                    "time": 23.347820249999938,
                    "velocity": 0.3700787401574803,
                    "duration": 0.06521737499999958
                },
                {
                    "name": "B2",
                    "midi": 47,
                    "time": 23.478254999999937,
                    "velocity": 0.4251968503937008,
                    "duration": 0.06521737499999958
                },
                {
                    "name": "B3",
                    "midi": 59,
                    "time": 23.739124499999935,
                    "velocity": 0.3700787401574803,
                    "duration": 0.06521737499999958
                },
                {
                    "name": "G3",
                    "midi": 55,
                    "time": 23.739124499999935,
                    "velocity": 0.3700787401574803,
                    "duration": 0.06521737499999958
                },
                {
                    "name": "A2",
                    "midi": 45,
                    "time": 23.999993999999933,
                    "velocity": 0.4645669291338583,
                    "duration": 0.06521737499999958
                },
                {
                    "name": "C4",
                    "midi": 60,
                    "time": 24.26086349999993,
                    "velocity": 0.3779527559055118,
                    "duration": 0.06521737499999958
                },
                {
                    "name": "F#3",
                    "midi": 54,
                    "time": 24.26086349999993,
                    "velocity": 0.3779527559055118,
                    "duration": 0.06521737499999958
                },
                {
                    "name": "B2",
                    "midi": 47,
                    "time": 24.52173299999993,
                    "velocity": 0.4566929133858268,
                    "duration": 0.06521737499999958
                },
                {
                    "name": "F#3",
                    "midi": 54,
                    "time": 24.78260249999993,
                    "velocity": 0.3700787401574803,
                    "duration": 0.06521737499999958
                },
                {
                    "name": "A3",
                    "midi": 57,
                    "time": 24.78260249999993,
                    "velocity": 0.3700787401574803,
                    "duration": 0.06521737499999958
                },
                {
                    "name": "E3",
                    "midi": 52,
                    "time": 25.304341499999925,
                    "velocity": 0.4015748031496063,
                    "duration": 0.13043474999999916
                },
                {
                    "name": "C3",
                    "midi": 48,
                    "time": 25.434776249999924,
                    "velocity": 0.4015748031496063,
                    "duration": 0.13043474999999916
                },
                {
                    "name": "C2",
                    "midi": 36,
                    "time": 25.565210999999923,
                    "velocity": 0.4409448818897638,
                    "duration": 0.782608500000002
                },
                {
                    "name": "G2",
                    "midi": 43,
                    "time": 25.565210999999923,
                    "velocity": 0.4409448818897638,
                    "duration": 0.782608500000002
                },
                {
                    "name": "E3",
                    "midi": 52,
                    "time": 26.347819499999925,
                    "velocity": 0.3937007874015748,
                    "duration": 0.13043474999999916
                },
                {
                    "name": "C3",
                    "midi": 48,
                    "time": 26.478254249999924,
                    "velocity": 0.3937007874015748,
                    "duration": 0.13043474999999916
                },
                {
                    "name": "C2",
                    "midi": 36,
                    "time": 26.608688999999924,
                    "velocity": 0.4409448818897638,
                    "duration": 0.7826084999999985
                },
                {
                    "name": "G2",
                    "midi": 43,
                    "time": 26.608688999999924,
                    "velocity": 0.4409448818897638,
                    "duration": 0.7826084999999985
                },
                {
                    "name": "C4",
                    "midi": 60,
                    "time": 27.391297499999922,
                    "velocity": 0.41732283464566927,
                    "duration": 0.13043474999999916
                },
                {
                    "name": "G3",
                    "midi": 55,
                    "time": 27.52173224999992,
                    "velocity": 0.4251968503937008,
                    "duration": 0.13043474999999916
                },
                {
                    "name": "F#2",
                    "midi": 42,
                    "time": 27.65216699999992,
                    "velocity": 0.5196850393700787,
                    "duration": 1.5652169999999934
                },
                {
                    "name": "F#3",
                    "midi": 54,
                    "time": 27.65216699999992,
                    "velocity": 0.5196850393700787,
                    "duration": 1.5652169999999934
                },
                {
                    "name": "G#3",
                    "midi": 56,
                    "time": 27.91303649999992,
                    "velocity": 0.3937007874015748,
                    "duration": 0.13043474999999916
                },
                {
                    "name": "A3",
                    "midi": 57,
                    "time": 28.043471249999918,
                    "velocity": 0.4094488188976378,
                    "duration": 0.13043474999999916
                },
                {
                    "name": "A#3",
                    "midi": 58,
                    "time": 28.173905999999917,
                    "velocity": 0.4409448818897638,
                    "duration": 0.1304347500000027
                },
                {
                    "name": "B3",
                    "midi": 59,
                    "time": 28.30434074999992,
                    "velocity": 0.4566929133858268,
                    "duration": 0.13043474999999916
                },
                {
                    "name": "C4",
                    "midi": 60,
                    "time": 28.43477549999992,
                    "velocity": 0.47244094488188976,
                    "duration": 0.13043474999999916
                },
                {
                    "name": "C#4",
                    "midi": 61,
                    "time": 28.565210249999918,
                    "velocity": 0.5039370078740157,
                    "duration": 0.13043474999999916
                },
                {
                    "name": "D4",
                    "midi": 62,
                    "time": 28.695644999999917,
                    "velocity": 0.5275590551181102,
                    "duration": 0.13043474999999916
                },
                {
                    "name": "D#4",
                    "midi": 63,
                    "time": 28.826079749999916,
                    "velocity": 0.5354330708661418,
                    "duration": 0.13043474999999916
                },
                {
                    "name": "E4",
                    "midi": 64,
                    "time": 28.956514499999916,
                    "velocity": 0.5433070866141733,
                    "duration": 0.13043474999999916
                },
                {
                    "name": "F4",
                    "midi": 65,
                    "time": 29.086949249999915,
                    "velocity": 0.5590551181102362,
                    "duration": 0.13043474999999916
                },
                {
                    "name": "B3",
                    "midi": 59,
                    "time": 29.478253499999912,
                    "velocity": 0.4251968503937008,
                    "duration": 0.06521737499999958
                },
                {
                    "name": "F#3",
                    "midi": 54,
                    "time": 29.60868824999991,
                    "velocity": 0.4251968503937008,
                    "duration": 0.06521737499999958
                },
                {
                    "name": "B2",
                    "midi": 47,
                    "time": 29.73912299999991,
                    "velocity": 0.44881889763779526,
                    "duration": 0.06521737499999958
                },
                {
                    "name": "D4",
                    "midi": 62,
                    "time": 29.99999249999991,
                    "velocity": 0.3937007874015748,
                    "duration": 0.06521737499999958
                },
                {
                    "name": "F#3",
                    "midi": 54,
                    "time": 29.99999249999991,
                    "velocity": 0.3937007874015748,
                    "duration": 0.06521737499999958
                },
                {
                    "name": "E3",
                    "midi": 52,
                    "time": 30.260861999999907,
                    "velocity": 0.48031496062992124,
                    "duration": 0.06521737499999958
                },
                {
                    "name": "E4",
                    "midi": 64,
                    "time": 30.521731499999905,
                    "velocity": 0.4094488188976378,
                    "duration": 0.06521737499999958
                },
                {
                    "name": "B3",
                    "midi": 59,
                    "time": 30.521731499999905,
                    "velocity": 0.4094488188976378,
                    "duration": 0.06521737499999958
                },
                {
                    "name": "B2",
                    "midi": 47,
                    "time": 30.782600999999904,
                    "velocity": 0.4566929133858268,
                    "duration": 0.06521737499999958
                },
                {
                    "name": "D4",
                    "midi": 62,
                    "time": 31.043470499999902,
                    "velocity": 0.4094488188976378,
                    "duration": 0.06521737499999958
                },
                {
                    "name": "B3",
                    "midi": 59,
                    "time": 31.043470499999902,
                    "velocity": 0.4094488188976378,
                    "duration": 0.06521737499999958
                },
                {
                    "name": "E3",
                    "midi": 52,
                    "time": 31.3043399999999,
                    "velocity": 0.6141732283464567,
                    "duration": 0.13043474999999916
                },
                {
                    "name": "E4",
                    "midi": 64,
                    "time": 31.565209499999902,
                    "velocity": 0.4015748031496063,
                    "duration": 0.06521737499999958
                },
                {
                    "name": "B3",
                    "midi": 59,
                    "time": 31.6956442499999,
                    "velocity": 0.4094488188976378,
                    "duration": 0.06521737499999958
                },
                {
                    "name": "E3",
                    "midi": 52,
                    "time": 31.8260789999999,
                    "velocity": 0.44881889763779526,
                    "duration": 0.06521737499999958
                },
                {
                    "name": "G4",
                    "midi": 67,
                    "time": 32.0869484999999,
                    "velocity": 0.4094488188976378,
                    "duration": 0.06521737500000313
                },
                {
                    "name": "E4",
                    "midi": 64,
                    "time": 32.0869484999999,
                    "velocity": 0.4094488188976378,
                    "duration": 0.06521737500000313
                },
                {
                    "name": "F#3",
                    "midi": 54,
                    "time": 32.347817999999904,
                    "velocity": 0.3858267716535433,
                    "duration": 0.06521737500000313
                },
                {
                    "name": "A#4",
                    "midi": 70,
                    "time": 32.60868749999991,
                    "velocity": 0.28346456692913385,
                    "duration": 0.06521737500000313
                },
                {
                    "name": "E4",
                    "midi": 64,
                    "time": 32.60868749999991,
                    "velocity": 0.28346456692913385,
                    "duration": 0.06521737500000313
                },
                {
                    "name": "B4",
                    "midi": 71,
                    "time": 32.869556999999915,
                    "velocity": 0.31496062992125984,
                    "duration": 0.2608694999999983
                },
                {
                    "name": "D4",
                    "midi": 62,
                    "time": 32.869556999999915,
                    "velocity": 0.31496062992125984,
                    "duration": 0.2608694999999983
                },
                {
                    "name": "B3",
                    "midi": 59,
                    "time": 32.869556999999915,
                    "velocity": 0.31496062992125984,
                    "duration": 0.2608694999999983
                }
            ],
            "controlChanges": {
                "7": [
                    {
                        "number": 7,
                        "time": 0,
                        "value": 0.7874015748031497
                    }
                ],
                "10": [
                    {
                        "number": 10,
                        "time": 0,
                        "value": 0.5039370078740157
                    }
                ],
                "64": [
                    {
                        "number": 64,
                        "time": 0,
                        "value": 1
                    },
                    {
                        "number": 64,
                        "time": 0.126086925,
                        "value": 0
                    },
                    {
                        "number": 64,
                        "time": 2.0869560000000003,
                        "value": 1
                    },
                    {
                        "number": 64,
                        "time": 2.2597820437500005,
                        "value": 0
                    },
                    {
                        "number": 64,
                        "time": 4.1782598250000005,
                        "value": 1
                    },
                    {
                        "number": 64,
                        "time": 4.34673804375,
                        "value": 0
                    },
                    {
                        "number": 64,
                        "time": 6.260867999999994,
                        "value": 1
                    },
                    {
                        "number": 64,
                        "time": 6.456520124999994,
                        "value": 0
                    },
                    {
                        "number": 64,
                        "time": 8.347823999999989,
                        "value": 1
                    },
                    {
                        "number": 64,
                        "time": 8.523910912499987,
                        "value": 0
                    },
                    {
                        "number": 64,
                        "time": 10.449997387499986,
                        "value": 1
                    },
                    {
                        "number": 64,
                        "time": 10.592388656249986,
                        "value": 0
                    },
                    {
                        "number": 64,
                        "time": 12.521735999999983,
                        "value": 1
                    },
                    {
                        "number": 64,
                        "time": 13.046735868749982,
                        "value": 0
                    },
                    {
                        "number": 64,
                        "time": 13.111953243749982,
                        "value": 1
                    },
                    {
                        "number": 64,
                        "time": 13.565213999999981,
                        "value": 0
                    },
                    {
                        "number": 64,
                        "time": 13.640213981249982,
                        "value": 1
                    },
                    {
                        "number": 64,
                        "time": 14.09890951874998,
                        "value": 0
                    },
                    {
                        "number": 64,
                        "time": 14.173909499999981,
                        "value": 1
                    },
                    {
                        "number": 64,
                        "time": 14.608691999999982,
                        "value": 0
                    },
                    {
                        "number": 64,
                        "time": 14.683691981249982,
                        "value": 1
                    },
                    {
                        "number": 64,
                        "time": 15.13477882499998,
                        "value": 0
                    },
                    {
                        "number": 64,
                        "time": 15.20543098124998,
                        "value": 1
                    },
                    {
                        "number": 64,
                        "time": 15.654343912499979,
                        "value": 0
                    },
                    {
                        "number": 64,
                        "time": 15.777169968749979,
                        "value": 1
                    },
                    {
                        "number": 64,
                        "time": 16.192387256249976,
                        "value": 0
                    },
                    {
                        "number": 64,
                        "time": 16.254343762499975,
                        "value": 1
                    },
                    {
                        "number": 64,
                        "time": 16.695647999999974,
                        "value": 0
                    },
                    {
                        "number": 64,
                        "time": 16.748908856249972,
                        "value": 1
                    },
                    {
                        "number": 64,
                        "time": 16.860865349999973,
                        "value": 0
                    },
                    {
                        "number": 64,
                        "time": 18.79021269374996,
                        "value": 1
                    },
                    {
                        "number": 64,
                        "time": 18.99021264374996,
                        "value": 0
                    },
                    {
                        "number": 64,
                        "time": 20.86955999999995,
                        "value": 1
                    },
                    {
                        "number": 64,
                        "time": 21.02716865624995,
                        "value": 0
                    },
                    {
                        "number": 64,
                        "time": 22.960863824999937,
                        "value": 1
                    },
                    {
                        "number": 64,
                        "time": 23.132602912499937,
                        "value": 0
                    },
                    {
                        "number": 64,
                        "time": 25.043471999999927,
                        "value": 1
                    },
                    {
                        "number": 64,
                        "time": 25.573906649999923,
                        "value": 0
                    },
                    {
                        "number": 64,
                        "time": 25.645645762499925,
                        "value": 1
                    },
                    {
                        "number": 64,
                        "time": 26.093471737499925,
                        "value": 0
                    },
                    {
                        "number": 64,
                        "time": 26.155428243749924,
                        "value": 1
                    },
                    {
                        "number": 64,
                        "time": 26.617384649999924,
                        "value": 0
                    },
                    {
                        "number": 64,
                        "time": 26.683688981249922,
                        "value": 1
                    },
                    {
                        "number": 64,
                        "time": 27.13368886874992,
                        "value": 0
                    },
                    {
                        "number": 64,
                        "time": 27.21086276249992,
                        "value": 1
                    },
                    {
                        "number": 64,
                        "time": 27.66194960624992,
                        "value": 0
                    },
                    {
                        "number": 64,
                        "time": 27.745645237499918,
                        "value": 1
                    },
                    {
                        "number": 64,
                        "time": 28.177166868749918,
                        "value": 0
                    },
                    {
                        "number": 64,
                        "time": 28.24890598124992,
                        "value": 1
                    },
                    {
                        "number": 64,
                        "time": 28.703253693749918,
                        "value": 0
                    },
                    {
                        "number": 64,
                        "time": 28.777166718749918,
                        "value": 1
                    },
                    {
                        "number": 64,
                        "time": 29.217383999999914,
                        "value": 0
                    },
                    {
                        "number": 64,
                        "time": 29.274992681249913,
                        "value": 1
                    },
                    {
                        "number": 64,
                        "time": 29.40542743124991,
                        "value": 0
                    },
                    {
                        "number": 64,
                        "time": 31.3119486937499,
                        "value": 1
                    },
                    {
                        "number": 64,
                        "time": 31.5152095124999,
                        "value": 0
                    }
                ],
                "91": [
                    {
                        "number": 91,
                        "time": 0,
                        "value": 1
                    },
                    {
                        "number": 91,
                        "time": 4.1739120000000005,
                        "value": 1
                    },
                    {
                        "number": 91,
                        "time": 16.695647999999974,
                        "value": 1
                    },
                    {
                        "number": 91,
                        "time": 29.217383999999914,
                        "value": 1
                    }
                ]
            },
            "id": 2,
            "name": "Piano left",
            "instrumentNumber": 0,
            "instrument": "acoustic grand piano",
            "instrumentFamily": "piano",
            "channelNumber": 0,
            "isPercussion": false
        },
        {
            "startTime": 0,
            "duration": 0,
            "length": 0,
            "notes": [],
            "controlChanges": {},
            "id": 3,
            "name": "Schumann: Scenes from Childhood Op. 15"
        },
        {
            "startTime": 0,
            "duration": 0,
            "length": 0,
            "notes": [],
            "controlChanges": {},
            "id": 4,
            "name": "Copyright  1997 by Bernd Krueger"
        },
        {
            "startTime": 0,
            "duration": 0,
            "length": 0,
            "notes": [],
            "controlChanges": {},
            "id": 5,
            "name": "http://www.piano-midi.de"
        },
        {
            "startTime": 0,
            "duration": 0,
            "length": 0,
            "notes": [],
            "controlChanges": {},
            "id": 6,
            "name": "Edition: 2014-03-26"
        }
    ]
}