{
    "header": {
        "PPQ": 480,
        "timeSignature": [
            3,
            4
        ],
        "bpm": 134.4700535190813,
        "name": "Kuriose Geschichte"
    },
    "startTime": 0,
    "duration": 54.435911999999945,
    "tracks": [
        {
            "startTime": 0,
            "duration": 0,
            "length": 0,
            "notes": [],
            "controlChanges": {},
            "id": 0,
            "name": "Kuriose Geschichte"
        },
        {
            "startTime": 0.8923920000000001,
            "duration": 54.435911999999945,
            "length": 306,
            "notes": [
                {
                    "name": "F#4",
                    "midi": 66,
                    "time": 0.8923920000000001,
                    "velocity": 0.4881889763779528,
                    "duration": 0.3346469999999999
                },
                {
                    "name": "B4",
                    "midi": 71,
                    "time": 1.227039,
                    "velocity": 0.3937007874015748,
                    "duration": 0.05577450000000006
                },
                {
                    "name": "A4",
                    "midi": 69,
                    "time": 1.281883925,
                    "velocity": 0.4330708661417323,
                    "duration": 0.05577450000000006
                },
                {
                    "name": "C#4",
                    "midi": 61,
                    "time": 1.3385880000000001,
                    "velocity": 0.4881889763779528,
                    "duration": 0.05577450000000006
                },
                {
                    "name": "G4",
                    "midi": 67,
                    "time": 1.3385880000000001,
                    "velocity": 0.4881889763779528,
                    "duration": 0.05577450000000006
                },
                {
                    "name": "C#4",
                    "midi": 61,
                    "time": 1.6732350000000002,
                    "velocity": 0.44881889763779526,
                    "duration": 0.05577450000000006
                },
                {
                    "name": "F#4",
                    "midi": 66,
                    "time": 1.6732350000000002,
                    "velocity": 0.44881889763779526,
                    "duration": 0.05577450000000006
                },
                {
                    "name": "G4",
                    "midi": 67,
                    "time": 1.7847840000000004,
                    "velocity": 0.47244094488188976,
                    "duration": 0.22309800000000002
                },
                {
                    "name": "C#4",
                    "midi": 61,
                    "time": 1.7847840000000004,
                    "velocity": 0.47244094488188976,
                    "duration": 0.22309800000000002
                },
                {
                    "name": "C#4",
                    "midi": 61,
                    "time": 2.2309800000000006,
                    "velocity": 0.4881889763779528,
                    "duration": 0.44619600000000004
                },
                {
                    "name": "B4",
                    "midi": 71,
                    "time": 2.2309800000000006,
                    "velocity": 0.4881889763779528,
                    "duration": 0.44619600000000004
                },
                {
                    "name": "A4",
                    "midi": 69,
                    "time": 2.6771760000000007,
                    "velocity": 0.5039370078740157,
                    "duration": 0.8923920000000001
                },
                {
                    "name": "D4",
                    "midi": 62,
                    "time": 2.6771760000000007,
                    "velocity": 0.5039370078740157,
                    "duration": 0.8923920000000001
                },
                {
                    "name": "D5",
                    "midi": 74,
                    "time": 3.5695680000000007,
                    "velocity": 0.5039370078740157,
                    "duration": 0.44619600000000004
                },
                {
                    "name": "A4",
                    "midi": 69,
                    "time": 3.5695680000000007,
                    "velocity": 0.5039370078740157,
                    "duration": 0.44619600000000004
                },
                {
                    "name": "C#5",
                    "midi": 73,
                    "time": 4.015764000000001,
                    "velocity": 0.5039370078740157,
                    "duration": 0.05577450000000006
                },
                {
                    "name": "G4",
                    "midi": 67,
                    "time": 4.015764000000001,
                    "velocity": 0.5039370078740157,
                    "duration": 0.05577450000000006
                },
                {
                    "name": "F#4",
                    "midi": 66,
                    "time": 4.350411000000001,
                    "velocity": 0.4409448818897638,
                    "duration": 0.05577450000000006
                },
                {
                    "name": "B4",
                    "midi": 71,
                    "time": 4.350411000000001,
                    "velocity": 0.4409448818897638,
                    "duration": 0.05577450000000006
                },
                {
                    "name": "A4",
                    "midi": 69,
                    "time": 4.461960000000001,
                    "velocity": 0.47244094488188976,
                    "duration": 0.22309800000000024
                },
                {
                    "name": "E4",
                    "midi": 64,
                    "time": 4.461960000000001,
                    "velocity": 0.47244094488188976,
                    "duration": 0.22309800000000024
                },
                {
                    "name": "G5",
                    "midi": 79,
                    "time": 4.908156000000002,
                    "velocity": 0.5275590551181102,
                    "duration": 0.4461960000000005
                },
                {
                    "name": "G4",
                    "midi": 67,
                    "time": 4.908156000000002,
                    "velocity": 0.5275590551181102,
                    "duration": 0.4461960000000005
                },
                {
                    "name": "A4",
                    "midi": 69,
                    "time": 4.908156000000002,
                    "velocity": 0.5275590551181102,
                    "duration": 0.4461960000000005
                },
                {
                    "name": "F#4",
                    "midi": 66,
                    "time": 5.354352000000002,
                    "velocity": 0.5275590551181102,
                    "duration": 0.05577450000000006
                },
                {
                    "name": "D5",
                    "midi": 74,
                    "time": 5.354352000000002,
                    "velocity": 0.5275590551181102,
                    "duration": 0.05577450000000006
                },
                {
                    "name": "F#5",
                    "midi": 78,
                    "time": 5.354352000000002,
                    "velocity": 0.5275590551181102,
                    "duration": 0.05577450000000006
                },
                {
                    "name": "G4",
                    "midi": 67,
                    "time": 5.688999000000003,
                    "velocity": 0.4645669291338583,
                    "duration": 0.05577450000000006
                },
                {
                    "name": "E5",
                    "midi": 76,
                    "time": 5.688999000000003,
                    "velocity": 0.4645669291338583,
                    "duration": 0.05577450000000006
                },
                {
                    "name": "C#5",
                    "midi": 73,
                    "time": 5.688999000000003,
                    "velocity": 0.4645669291338583,
                    "duration": 0.05577450000000006
                },
                {
                    "name": "A4",
                    "midi": 69,
                    "time": 5.800548000000003,
                    "velocity": 0.4409448818897638,
                    "duration": 0.22309800000000024
                },
                {
                    "name": "D5",
                    "midi": 74,
                    "time": 5.800548000000003,
                    "velocity": 0.4409448818897638,
                    "duration": 0.22309800000000024
                },
                {
                    "name": "F#4",
                    "midi": 66,
                    "time": 6.246744000000003,
                    "velocity": 0.4566929133858268,
                    "duration": 0.33464700000000036
                },
                {
                    "name": "B4",
                    "midi": 71,
                    "time": 6.5813910000000035,
                    "velocity": 0.3937007874015748,
                    "duration": 0.05577450000000006
                },
                {
                    "name": "A4",
                    "midi": 69,
                    "time": 6.636235925000004,
                    "velocity": 0.4330708661417323,
                    "duration": 0.05577450000000006
                },
                {
                    "name": "G4",
                    "midi": 67,
                    "time": 6.692940000000004,
                    "velocity": 0.48031496062992124,
                    "duration": 0.08366175000000009
                },
                {
                    "name": "C#4",
                    "midi": 61,
                    "time": 6.692940000000004,
                    "velocity": 0.48031496062992124,
                    "duration": 0.08366175000000009
                },
                {
                    "name": "F#4",
                    "midi": 66,
                    "time": 7.027587000000004,
                    "velocity": 0.44881889763779526,
                    "duration": 0.05577450000000006
                },
                {
                    "name": "C#4",
                    "midi": 61,
                    "time": 7.027587000000004,
                    "velocity": 0.44881889763779526,
                    "duration": 0.05577450000000006
                },
                {
                    "name": "G4",
                    "midi": 67,
                    "time": 7.139136000000004,
                    "velocity": 0.48031496062992124,
                    "duration": 0.22309800000000024
                },
                {
                    "name": "C#4",
                    "midi": 61,
                    "time": 7.139136000000004,
                    "velocity": 0.48031496062992124,
                    "duration": 0.22309800000000024
                },
                {
                    "name": "C#4",
                    "midi": 61,
                    "time": 7.585332000000005,
                    "velocity": 0.5039370078740157,
                    "duration": 0.4461960000000005
                },
                {
                    "name": "B4",
                    "midi": 71,
                    "time": 7.585332000000005,
                    "velocity": 0.5039370078740157,
                    "duration": 0.4461960000000005
                },
                {
                    "name": "D4",
                    "midi": 62,
                    "time": 8.031528000000005,
                    "velocity": 0.5039370078740157,
                    "duration": 0.892392000000001
                },
                {
                    "name": "A4",
                    "midi": 69,
                    "time": 8.031528000000005,
                    "velocity": 0.5039370078740157,
                    "duration": 0.892392000000001
                },
                {
                    "name": "D5",
                    "midi": 74,
                    "time": 8.923920000000006,
                    "velocity": 0.47244094488188976,
                    "duration": 0.33464700000000036
                },
                {
                    "name": "A4",
                    "midi": 69,
                    "time": 8.923920000000006,
                    "velocity": 0.47244094488188976,
                    "duration": 0.4461960000000005
                },
                {
                    "name": "C#5",
                    "midi": 73,
                    "time": 9.258567000000006,
                    "velocity": 0.4409448818897638,
                    "duration": 0.11154900000000012
                },
                {
                    "name": "C#5",
                    "midi": 73,
                    "time": 9.370116000000007,
                    "velocity": 0.47244094488188976,
                    "duration": 0.24540780000000062
                },
                {
                    "name": "A4",
                    "midi": 69,
                    "time": 9.370116000000007,
                    "velocity": 0.47244094488188976,
                    "duration": 0.892392000000001
                },
                {
                    "name": "D5",
                    "midi": 74,
                    "time": 9.593214000000007,
                    "velocity": 0.4251968503937008,
                    "duration": 0.24540780000000062
                },
                {
                    "name": "E5",
                    "midi": 76,
                    "time": 9.816312000000007,
                    "velocity": 0.44881889763779526,
                    "duration": 0.24540780000000062
                },
                {
                    "name": "F#5",
                    "midi": 78,
                    "time": 10.039410000000007,
                    "velocity": 0.47244094488188976,
                    "duration": 0.22309800000000024
                },
                {
                    "name": "F#5",
                    "midi": 78,
                    "time": 10.262508000000008,
                    "velocity": 0.4881889763779528,
                    "duration": 0.33464700000000036
                },
                {
                    "name": "D5",
                    "midi": 74,
                    "time": 10.262508000000008,
                    "velocity": 0.3543307086614173,
                    "duration": 0.892392000000001
                },
                {
                    "name": "G#5",
                    "midi": 80,
                    "time": 10.597155000000008,
                    "velocity": 0.4330708661417323,
                    "duration": 0.11154900000000012
                },
                {
                    "name": "G#5",
                    "midi": 80,
                    "time": 10.708704000000008,
                    "velocity": 0.4015748031496063,
                    "duration": 0.4461960000000005
                },
                {
                    "name": "A5",
                    "midi": 81,
                    "time": 11.154900000000008,
                    "velocity": 0.36220472440944884,
                    "duration": 0.33464700000000036
                },
                {
                    "name": "C#5",
                    "midi": 73,
                    "time": 11.154900000000008,
                    "velocity": 0.31496062992125984,
                    "duration": 0.33464700000000036
                },
                {
                    "name": "F#4",
                    "midi": 66,
                    "time": 11.601096000000009,
                    "velocity": 0.4645669291338583,
                    "duration": 0.33464700000000036
                },
                {
                    "name": "B4",
                    "midi": 71,
                    "time": 11.93574300000001,
                    "velocity": 0.3937007874015748,
                    "duration": 0.05577450000000006
                },
                {
                    "name": "A4",
                    "midi": 69,
                    "time": 11.99151750000001,
                    "velocity": 0.4330708661417323,
                    "duration": 0.05577450000000006
                },
                {
                    "name": "C#4",
                    "midi": 61,
                    "time": 12.04729200000001,
                    "velocity": 0.49606299212598426,
                    "duration": 0.05577450000000006
                },
                {
                    "name": "G4",
                    "midi": 67,
                    "time": 12.04729200000001,
                    "velocity": 0.49606299212598426,
                    "duration": 0.05577450000000006
                },
                {
                    "name": "C#4",
                    "midi": 61,
                    "time": 12.38193900000001,
                    "velocity": 0.4409448818897638,
                    "duration": 0.05577450000000006
                },
                {
                    "name": "F#4",
                    "midi": 66,
                    "time": 12.38193900000001,
                    "velocity": 0.4409448818897638,
                    "duration": 0.05577450000000006
                },
                {
                    "name": "C#4",
                    "midi": 61,
                    "time": 12.49348800000001,
                    "velocity": 0.47244094488188976,
                    "duration": 0.22309800000000024
                },
                {
                    "name": "G4",
                    "midi": 67,
                    "time": 12.49348800000001,
                    "velocity": 0.47244094488188976,
                    "duration": 0.22309800000000024
                },
                {
                    "name": "C#4",
                    "midi": 61,
                    "time": 12.93968400000001,
                    "velocity": 0.49606299212598426,
                    "duration": 0.4461960000000005
                },
                {
                    "name": "B4",
                    "midi": 71,
                    "time": 12.93968400000001,
                    "velocity": 0.49606299212598426,
                    "duration": 0.4461960000000005
                },
                {
                    "name": "D4",
                    "midi": 62,
                    "time": 13.38588000000001,
                    "velocity": 0.49606299212598426,
                    "duration": 0.892392000000001
                },
                {
                    "name": "A4",
                    "midi": 69,
                    "time": 13.38588000000001,
                    "velocity": 0.49606299212598426,
                    "duration": 0.892392000000001
                },
                {
                    "name": "A4",
                    "midi": 69,
                    "time": 14.278272000000012,
                    "velocity": 0.5039370078740157,
                    "duration": 0.4461960000000005
                },
                {
                    "name": "D5",
                    "midi": 74,
                    "time": 14.278272000000012,
                    "velocity": 0.5039370078740157,
                    "duration": 0.4461960000000005
                },
                {
                    "name": "G4",
                    "midi": 67,
                    "time": 14.724468000000012,
                    "velocity": 0.5039370078740157,
                    "duration": 0.05577450000000006
                },
                {
                    "name": "C#5",
                    "midi": 73,
                    "time": 14.724468000000012,
                    "velocity": 0.5039370078740157,
                    "duration": 0.05577450000000006
                },
                {
                    "name": "F#4",
                    "midi": 66,
                    "time": 15.059115000000013,
                    "velocity": 0.44881889763779526,
                    "duration": 0.05577450000000006
                },
                {
                    "name": "B4",
                    "midi": 71,
                    "time": 15.059115000000013,
                    "velocity": 0.44881889763779526,
                    "duration": 0.05577450000000006
                },
                {
                    "name": "E4",
                    "midi": 64,
                    "time": 15.170664000000013,
                    "velocity": 0.47244094488188976,
                    "duration": 0.22309800000000024
                },
                {
                    "name": "A4",
                    "midi": 69,
                    "time": 15.170664000000013,
                    "velocity": 0.47244094488188976,
                    "duration": 0.22309800000000024
                },
                {
                    "name": "G4",
                    "midi": 67,
                    "time": 15.616860000000013,
                    "velocity": 0.5354330708661418,
                    "duration": 0.4461960000000005
                },
                {
                    "name": "A4",
                    "midi": 69,
                    "time": 15.616860000000013,
                    "velocity": 0.5354330708661418,
                    "duration": 0.4461960000000005
                },
                {
                    "name": "G5",
                    "midi": 79,
                    "time": 15.616860000000013,
                    "velocity": 0.5354330708661418,
                    "duration": 0.4461960000000005
                },
                {
                    "name": "F#4",
                    "midi": 66,
                    "time": 16.063056000000014,
                    "velocity": 0.5354330708661418,
                    "duration": 0.055774499999998284
                },
                {
                    "name": "D5",
                    "midi": 74,
                    "time": 16.063056000000014,
                    "velocity": 0.5354330708661418,
                    "duration": 0.055774499999998284
                },
                {
                    "name": "F#5",
                    "midi": 78,
                    "time": 16.063056000000014,
                    "velocity": 0.5354330708661418,
                    "duration": 0.055774499999998284
                },
                {
                    "name": "G4",
                    "midi": 67,
                    "time": 16.39770300000001,
                    "velocity": 0.47244094488188976,
                    "duration": 0.055774499999998284
                },
                {
                    "name": "C#5",
                    "midi": 73,
                    "time": 16.39770300000001,
                    "velocity": 0.47244094488188976,
                    "duration": 0.055774499999998284
                },
                {
                    "name": "E5",
                    "midi": 76,
                    "time": 16.39770300000001,
                    "velocity": 0.47244094488188976,
                    "duration": 0.055774499999998284
                },
                {
                    "name": "A4",
                    "midi": 69,
                    "time": 16.509252000000007,
                    "velocity": 0.44881889763779526,
                    "duration": 0.22309800000000024
                },
                {
                    "name": "D5",
                    "midi": 74,
                    "time": 16.509252000000007,
                    "velocity": 0.44881889763779526,
                    "duration": 0.22309800000000024
                },
                {
                    "name": "F#4",
                    "midi": 66,
                    "time": 16.955448000000008,
                    "velocity": 0.4645669291338583,
                    "duration": 0.33464700000000036
                },
                {
                    "name": "B4",
                    "midi": 71,
                    "time": 17.290095000000008,
                    "velocity": 0.3937007874015748,
                    "duration": 0.055774500000001836
                },
                {
                    "name": "A4",
                    "midi": 69,
                    "time": 17.34493992500001,
                    "velocity": 0.4330708661417323,
                    "duration": 0.055774500000001836
                },
                {
                    "name": "C#4",
                    "midi": 61,
                    "time": 17.40164400000001,
                    "velocity": 0.5118110236220472,
                    "duration": 0.08366175000000098
                },
                {
                    "name": "G4",
                    "midi": 67,
                    "time": 17.40164400000001,
                    "velocity": 0.5118110236220472,
                    "duration": 0.08366175000000098
                },
                {
                    "name": "C#4",
                    "midi": 61,
                    "time": 17.736291000000012,
                    "velocity": 0.44881889763779526,
                    "duration": 0.055774499999998284
                },
                {
                    "name": "F#4",
                    "midi": 66,
                    "time": 17.736291000000012,
                    "velocity": 0.44881889763779526,
                    "duration": 0.055774499999998284
                },
                {
                    "name": "C#4",
                    "midi": 61,
                    "time": 17.84784000000001,
                    "velocity": 0.47244094488188976,
                    "duration": 0.22309800000000024
                },
                {
                    "name": "G4",
                    "midi": 67,
                    "time": 17.84784000000001,
                    "velocity": 0.47244094488188976,
                    "duration": 0.22309800000000024
                },
                {
                    "name": "C#4",
                    "midi": 61,
                    "time": 18.29403600000001,
                    "velocity": 0.49606299212598426,
                    "duration": 0.4461960000000005
                },
                {
                    "name": "B4",
                    "midi": 71,
                    "time": 18.29403600000001,
                    "velocity": 0.49606299212598426,
                    "duration": 0.4461960000000005
                },
                {
                    "name": "D4",
                    "midi": 62,
                    "time": 18.74023200000001,
                    "velocity": 0.49606299212598426,
                    "duration": 0.892392000000001
                },
                {
                    "name": "A4",
                    "midi": 69,
                    "time": 18.74023200000001,
                    "velocity": 0.49606299212598426,
                    "duration": 0.892392000000001
                },
                {
                    "name": "D5",
                    "midi": 74,
                    "time": 19.63262400000001,
                    "velocity": 0.47244094488188976,
                    "duration": 0.33464700000000036
                },
                {
                    "name": "A4",
                    "midi": 69,
                    "time": 19.63262400000001,
                    "velocity": 0.47244094488188976,
                    "duration": 0.4461960000000005
                },
                {
                    "name": "C#5",
                    "midi": 73,
                    "time": 19.96727100000001,
                    "velocity": 0.4409448818897638,
                    "duration": 0.11154900000000012
                },
                {
                    "name": "C#5",
                    "midi": 73,
                    "time": 20.07882000000001,
                    "velocity": 0.47244094488188976,
                    "duration": 0.24540779999999884
                },
                {
                    "name": "A4",
                    "midi": 69,
                    "time": 20.07882000000001,
                    "velocity": 0.47244094488188976,
                    "duration": 0.892392000000001
                },
                {
                    "name": "D5",
                    "midi": 74,
                    "time": 20.30191800000001,
                    "velocity": 0.4251968503937008,
                    "duration": 0.24540779999999884
                },
                {
                    "name": "E5",
                    "midi": 76,
                    "time": 20.52501600000001,
                    "velocity": 0.44881889763779526,
                    "duration": 0.24540779999999884
                },
                {
                    "name": "F#5",
                    "midi": 78,
                    "time": 20.74811400000001,
                    "velocity": 0.47244094488188976,
                    "duration": 0.22309800000000024
                },
                {
                    "name": "D5",
                    "midi": 74,
                    "time": 20.971212000000012,
                    "velocity": 0.3543307086614173,
                    "duration": 0.892392000000001
                },
                {
                    "name": "F#5",
                    "midi": 78,
                    "time": 20.971212000000012,
                    "velocity": 0.4881889763779528,
                    "duration": 0.33464700000000036
                },
                {
                    "name": "G#5",
                    "midi": 80,
                    "time": 21.305859000000012,
                    "velocity": 0.4330708661417323,
                    "duration": 0.11154900000000012
                },
                {
                    "name": "G#5",
                    "midi": 80,
                    "time": 21.417408000000012,
                    "velocity": 0.4015748031496063,
                    "duration": 0.4461960000000005
                },
                {
                    "name": "C#5",
                    "midi": 73,
                    "time": 21.863604000000013,
                    "velocity": 0.31496062992125984,
                    "duration": 0.33464700000000036
                },
                {
                    "name": "A5",
                    "midi": 81,
                    "time": 21.863604000000013,
                    "velocity": 0.36220472440944884,
                    "duration": 0.33464700000000036
                },
                {
                    "name": "C5",
                    "midi": 72,
                    "time": 22.309800000000013,
                    "velocity": 0.3228346456692913,
                    "duration": 0.4461960000000005
                },
                {
                    "name": "E5",
                    "midi": 76,
                    "time": 22.309800000000013,
                    "velocity": 0.3228346456692913,
                    "duration": 0.24540779999999884
                },
                {
                    "name": "F#5",
                    "midi": 78,
                    "time": 22.532898000000014,
                    "velocity": 0.3228346456692913,
                    "duration": 0.24540779999999884
                },
                {
                    "name": "B4",
                    "midi": 71,
                    "time": 22.755996000000014,
                    "velocity": 0.31496062992125984,
                    "duration": 0.892392000000001
                },
                {
                    "name": "G5",
                    "midi": 79,
                    "time": 22.755996000000014,
                    "velocity": 0.3543307086614173,
                    "duration": 0.24540779999999884
                },
                {
                    "name": "A5",
                    "midi": 81,
                    "time": 22.979094000000014,
                    "velocity": 0.3228346456692913,
                    "duration": 0.24540779999999884
                },
                {
                    "name": "G5",
                    "midi": 79,
                    "time": 23.202192000000014,
                    "velocity": 0.3228346456692913,
                    "duration": 0.24540779999999884
                },
                {
                    "name": "F#5",
                    "midi": 78,
                    "time": 23.425290000000015,
                    "velocity": 0.3228346456692913,
                    "duration": 0.24540779999999884
                },
                {
                    "name": "D#5",
                    "midi": 75,
                    "time": 23.648388000000015,
                    "velocity": 0.31496062992125984,
                    "duration": 0.4461960000000005
                },
                {
                    "name": "G5",
                    "midi": 79,
                    "time": 23.648388000000015,
                    "velocity": 0.33858267716535434,
                    "duration": 0.24540779999999884
                },
                {
                    "name": "F#5",
                    "midi": 78,
                    "time": 23.871486000000015,
                    "velocity": 0.3543307086614173,
                    "duration": 0.24540779999999884
                },
                {
                    "name": "C5",
                    "midi": 72,
                    "time": 24.094584000000015,
                    "velocity": 0.3700787401574803,
                    "duration": 0.8923919999999974
                },
                {
                    "name": "E5",
                    "midi": 76,
                    "time": 24.094584000000015,
                    "velocity": 0.3700787401574803,
                    "duration": 0.8923919999999974
                },
                {
                    "name": "A4",
                    "midi": 69,
                    "time": 24.986976000000013,
                    "velocity": 0.3464566929133858,
                    "duration": 0.4461960000000005
                },
                {
                    "name": "D5",
                    "midi": 74,
                    "time": 24.986976000000013,
                    "velocity": 0.3464566929133858,
                    "duration": 0.24540779999999884
                },
                {
                    "name": "C5",
                    "midi": 72,
                    "time": 25.210074000000013,
                    "velocity": 0.33858267716535434,
                    "duration": 0.24540779999999884
                },
                {
                    "name": "G4",
                    "midi": 67,
                    "time": 25.433172000000013,
                    "velocity": 0.3228346456692913,
                    "duration": 0.44619599999999693
                },
                {
                    "name": "B4",
                    "midi": 71,
                    "time": 25.433172000000013,
                    "velocity": 0.3228346456692913,
                    "duration": 0.44619599999999693
                },
                {
                    "name": "G4",
                    "midi": 67,
                    "time": 25.87936800000001,
                    "velocity": 0.3464566929133858,
                    "duration": 0.24540779999999884
                },
                {
                    "name": "C5",
                    "midi": 72,
                    "time": 25.87936800000001,
                    "velocity": 0.3464566929133858,
                    "duration": 0.4461960000000005
                },
                {
                    "name": "A4",
                    "midi": 69,
                    "time": 26.10246600000001,
                    "velocity": 0.33858267716535434,
                    "duration": 0.24540779999999884
                },
                {
                    "name": "D4",
                    "midi": 62,
                    "time": 26.32556400000001,
                    "velocity": 0.33070866141732286,
                    "duration": 0.24540779999999884
                },
                {
                    "name": "A4",
                    "midi": 69,
                    "time": 26.32556400000001,
                    "velocity": 0.33070866141732286,
                    "duration": 0.22309800000000024
                },
                {
                    "name": "B4",
                    "midi": 71,
                    "time": 26.32556400000001,
                    "velocity": 0.33070866141732286,
                    "duration": 0.4461960000000005
                },
                {
                    "name": "G4",
                    "midi": 67,
                    "time": 26.54866200000001,
                    "velocity": 0.3228346456692913,
                    "duration": 0.22309800000000024
                },
                {
                    "name": "D4",
                    "midi": 62,
                    "time": 26.77176000000001,
                    "velocity": 0.29133858267716534,
                    "duration": 0.22309800000000024
                },
                {
                    "name": "G4",
                    "midi": 67,
                    "time": 26.77176000000001,
                    "velocity": 0.29133858267716534,
                    "duration": 0.24540779999999884
                },
                {
                    "name": "A4",
                    "midi": 69,
                    "time": 26.77176000000001,
                    "velocity": 0.29133858267716534,
                    "duration": 0.892392000000001
                },
                {
                    "name": "F#4",
                    "midi": 66,
                    "time": 26.99485800000001,
                    "velocity": 0.2755905511811024,
                    "duration": 0.24540779999999884
                },
                {
                    "name": "E4",
                    "midi": 64,
                    "time": 27.21795600000001,
                    "velocity": 0.2677165354330709,
                    "duration": 0.24540779999999884
                },
                {
                    "name": "D4",
                    "midi": 62,
                    "time": 27.441054000000012,
                    "velocity": 0.25196850393700787,
                    "duration": 0.22309800000000024
                },
                {
                    "name": "D4",
                    "midi": 62,
                    "time": 27.664152000000012,
                    "velocity": 0.33070866141732286,
                    "duration": 0.22309800000000024
                },
                {
                    "name": "F#4",
                    "midi": 66,
                    "time": 27.664152000000012,
                    "velocity": 0.33070866141732286,
                    "duration": 0.33464700000000036
                },
                {
                    "name": "C4",
                    "midi": 60,
                    "time": 27.887250000000012,
                    "velocity": 0.3543307086614173,
                    "duration": 0.16732350000000196
                },
                {
                    "name": "B4",
                    "midi": 71,
                    "time": 27.998799000000012,
                    "velocity": 0.31496062992125984,
                    "duration": 0.055774500000001836
                },
                {
                    "name": "A4",
                    "midi": 69,
                    "time": 28.053643925000014,
                    "velocity": 0.3464566929133858,
                    "duration": 0.055774500000001836
                },
                {
                    "name": "C#4",
                    "midi": 61,
                    "time": 28.110348000000016,
                    "velocity": 0.3858267716535433,
                    "duration": 0.055774499999998284
                },
                {
                    "name": "G4",
                    "midi": 67,
                    "time": 28.110348000000016,
                    "velocity": 0.3858267716535433,
                    "duration": 0.055774499999998284
                },
                {
                    "name": "C#4",
                    "midi": 61,
                    "time": 28.444995000000013,
                    "velocity": 0.3464566929133858,
                    "duration": 0.055774499999998284
                },
                {
                    "name": "F#4",
                    "midi": 66,
                    "time": 28.444995000000013,
                    "velocity": 0.3464566929133858,
                    "duration": 0.055774499999998284
                },
                {
                    "name": "C#4",
                    "midi": 61,
                    "time": 28.55654400000001,
                    "velocity": 0.3700787401574803,
                    "duration": 0.22309800000000024
                },
                {
                    "name": "G4",
                    "midi": 67,
                    "time": 28.55654400000001,
                    "velocity": 0.3700787401574803,
                    "duration": 0.22309800000000024
                },
                {
                    "name": "C#4",
                    "midi": 61,
                    "time": 29.00274000000001,
                    "velocity": 0.3858267716535433,
                    "duration": 0.4461960000000005
                },
                {
                    "name": "B4",
                    "midi": 71,
                    "time": 29.00274000000001,
                    "velocity": 0.3858267716535433,
                    "duration": 0.4461960000000005
                },
                {
                    "name": "D4",
                    "midi": 62,
                    "time": 29.44893600000001,
                    "velocity": 0.4015748031496063,
                    "duration": 0.892392000000001
                },
                {
                    "name": "A4",
                    "midi": 69,
                    "time": 29.44893600000001,
                    "velocity": 0.4015748031496063,
                    "duration": 0.892392000000001
                },
                {
                    "name": "A4",
                    "midi": 69,
                    "time": 30.34132800000001,
                    "velocity": 0.4015748031496063,
                    "duration": 0.4461960000000005
                },
                {
                    "name": "D5",
                    "midi": 74,
                    "time": 30.34132800000001,
                    "velocity": 0.4015748031496063,
                    "duration": 0.4461960000000005
                },
                {
                    "name": "G4",
                    "midi": 67,
                    "time": 30.787524000000012,
                    "velocity": 0.4015748031496063,
                    "duration": 0.055774499999998284
                },
                {
                    "name": "C#5",
                    "midi": 73,
                    "time": 30.787524000000012,
                    "velocity": 0.4015748031496063,
                    "duration": 0.055774499999998284
                },
                {
                    "name": "F#4",
                    "midi": 66,
                    "time": 31.12217100000001,
                    "velocity": 0.3543307086614173,
                    "duration": 0.055774499999998284
                },
                {
                    "name": "B4",
                    "midi": 71,
                    "time": 31.12217100000001,
                    "velocity": 0.3543307086614173,
                    "duration": 0.055774499999998284
                },
                {
                    "name": "E4",
                    "midi": 64,
                    "time": 31.233720000000005,
                    "velocity": 0.3858267716535433,
                    "duration": 0.22309800000000024
                },
                {
                    "name": "A4",
                    "midi": 69,
                    "time": 31.233720000000005,
                    "velocity": 0.3858267716535433,
                    "duration": 0.22309800000000024
                },
                {
                    "name": "G4",
                    "midi": 67,
                    "time": 31.679916000000006,
                    "velocity": 0.41732283464566927,
                    "duration": 0.4461960000000005
                },
                {
                    "name": "A4",
                    "midi": 69,
                    "time": 31.679916000000006,
                    "velocity": 0.41732283464566927,
                    "duration": 0.4461960000000005
                },
                {
                    "name": "G5",
                    "midi": 79,
                    "time": 31.679916000000006,
                    "velocity": 0.41732283464566927,
                    "duration": 0.4461960000000005
                },
                {
                    "name": "F#4",
                    "midi": 66,
                    "time": 32.126112000000006,
                    "velocity": 0.41732283464566927,
                    "duration": 0.055774499999998284
                },
                {
                    "name": "D5",
                    "midi": 74,
                    "time": 32.126112000000006,
                    "velocity": 0.41732283464566927,
                    "duration": 0.055774499999998284
                },
                {
                    "name": "F#5",
                    "midi": 78,
                    "time": 32.126112000000006,
                    "velocity": 0.41732283464566927,
                    "duration": 0.055774499999998284
                },
                {
                    "name": "G4",
                    "midi": 67,
                    "time": 32.460759,
                    "velocity": 0.3779527559055118,
                    "duration": 0.055774499999998284
                },
                {
                    "name": "C#5",
                    "midi": 73,
                    "time": 32.460759,
                    "velocity": 0.3779527559055118,
                    "duration": 0.055774499999998284
                },
                {
                    "name": "E5",
                    "midi": 76,
                    "time": 32.460759,
                    "velocity": 0.3779527559055118,
                    "duration": 0.055774499999998284
                },
                {
                    "name": "A4",
                    "midi": 69,
                    "time": 32.572308,
                    "velocity": 0.3543307086614173,
                    "duration": 0.22309800000000024
                },
                {
                    "name": "D5",
                    "midi": 74,
                    "time": 32.572308,
                    "velocity": 0.3543307086614173,
                    "duration": 0.22309800000000024
                },
                {
                    "name": "F#4",
                    "midi": 66,
                    "time": 33.018504,
                    "velocity": 0.4409448818897638,
                    "duration": 0.3346469999999968
                },
                {
                    "name": "B4",
                    "midi": 71,
                    "time": 33.353151,
                    "velocity": 0.3937007874015748,
                    "duration": 0.055774499999998284
                },
                {
                    "name": "A4",
                    "midi": 69,
                    "time": 33.407995924999994,
                    "velocity": 0.4330708661417323,
                    "duration": 0.055774499999998284
                },
                {
                    "name": "C#4",
                    "midi": 61,
                    "time": 33.46469999999999,
                    "velocity": 0.48031496062992124,
                    "duration": 0.08366174999999743
                },
                {
                    "name": "G4",
                    "midi": 67,
                    "time": 33.46469999999999,
                    "velocity": 0.48031496062992124,
                    "duration": 0.08366174999999743
                },
                {
                    "name": "C#4",
                    "midi": 61,
                    "time": 33.79934699999999,
                    "velocity": 0.4409448818897638,
                    "duration": 0.055774499999998284
                },
                {
                    "name": "F#4",
                    "midi": 66,
                    "time": 33.79934699999999,
                    "velocity": 0.4409448818897638,
                    "duration": 0.055774499999998284
                },
                {
                    "name": "C#4",
                    "midi": 61,
                    "time": 33.91089599999999,
                    "velocity": 0.4645669291338583,
                    "duration": 0.22309800000000024
                },
                {
                    "name": "G4",
                    "midi": 67,
                    "time": 33.91089599999999,
                    "velocity": 0.4645669291338583,
                    "duration": 0.22309800000000024
                },
                {
                    "name": "B4",
                    "midi": 71,
                    "time": 34.35709199999999,
                    "velocity": 0.47244094488188976,
                    "duration": 0.3346469999999968
                },
                {
                    "name": "C#4",
                    "midi": 61,
                    "time": 34.35709199999999,
                    "velocity": 0.47244094488188976,
                    "duration": 0.4461959999999934
                },
                {
                    "name": "A4",
                    "midi": 69,
                    "time": 34.691738999999984,
                    "velocity": 0.4409448818897638,
                    "duration": 0.11154899999999657
                },
                {
                    "name": "A4",
                    "midi": 69,
                    "time": 34.80328799999998,
                    "velocity": 0.47244094488188976,
                    "duration": 0.2454078000000024
                },
                {
                    "name": "D4",
                    "midi": 62,
                    "time": 34.80328799999998,
                    "velocity": 0.47244094488188976,
                    "duration": 0.4461960000000005
                },
                {
                    "name": "B4",
                    "midi": 71,
                    "time": 35.02638599999998,
                    "velocity": 0.4094488188976378,
                    "duration": 0.2454078000000024
                },
                {
                    "name": "C#5",
                    "midi": 73,
                    "time": 35.24948399999998,
                    "velocity": 0.4251968503937008,
                    "duration": 0.2454078000000024
                },
                {
                    "name": "D5",
                    "midi": 74,
                    "time": 35.47258199999998,
                    "velocity": 0.4330708661417323,
                    "duration": 0.22309800000000024
                },
                {
                    "name": "B4",
                    "midi": 71,
                    "time": 35.69567999999998,
                    "velocity": 0.44881889763779526,
                    "duration": 0.4461960000000005
                },
                {
                    "name": "D5",
                    "midi": 74,
                    "time": 35.69567999999998,
                    "velocity": 0.44881889763779526,
                    "duration": 0.2454078000000024
                },
                {
                    "name": "E5",
                    "midi": 76,
                    "time": 35.91877799999998,
                    "velocity": 0.4645669291338583,
                    "duration": 0.2454078000000024
                },
                {
                    "name": "A4",
                    "midi": 69,
                    "time": 36.14187599999998,
                    "velocity": 0.48031496062992124,
                    "duration": 0.4461960000000005
                },
                {
                    "name": "F#5",
                    "midi": 78,
                    "time": 36.14187599999998,
                    "velocity": 0.48031496062992124,
                    "duration": 0.892392000000001
                },
                {
                    "name": "A4",
                    "midi": 69,
                    "time": 36.58807199999998,
                    "velocity": 0.4094488188976378,
                    "duration": 0.2454078000000024
                },
                {
                    "name": "B4",
                    "midi": 71,
                    "time": 36.81116999999998,
                    "velocity": 0.4015748031496063,
                    "duration": 0.22309800000000024
                },
                {
                    "name": "B4",
                    "midi": 71,
                    "time": 37.03426799999998,
                    "velocity": 0.3779527559055118,
                    "duration": 0.2454078000000024
                },
                {
                    "name": "E5",
                    "midi": 76,
                    "time": 37.03426799999998,
                    "velocity": 0.3779527559055118,
                    "duration": 0.892392000000001
                },
                {
                    "name": "C#5",
                    "midi": 73,
                    "time": 37.25736599999998,
                    "velocity": 0.3779527559055118,
                    "duration": 0.2454078000000024
                },
                {
                    "name": "C#5",
                    "midi": 73,
                    "time": 37.480463999999984,
                    "velocity": 0.36220472440944884,
                    "duration": 0.4461960000000005
                },
                {
                    "name": "D5",
                    "midi": 74,
                    "time": 37.926659999999984,
                    "velocity": 0.2992125984251969,
                    "duration": 0.3346469999999968
                },
                {
                    "name": "C5",
                    "midi": 72,
                    "time": 38.37285599999998,
                    "velocity": 0.3228346456692913,
                    "duration": 0.4461960000000005
                },
                {
                    "name": "E5",
                    "midi": 76,
                    "time": 38.37285599999998,
                    "velocity": 0.3228346456692913,
                    "duration": 0.2454078000000024
                },
                {
                    "name": "F#5",
                    "midi": 78,
                    "time": 38.59595399999998,
                    "velocity": 0.3228346456692913,
                    "duration": 0.2454078000000024
                },
                {
                    "name": "B4",
                    "midi": 71,
                    "time": 38.81905199999998,
                    "velocity": 0.31496062992125984,
                    "duration": 0.892392000000001
                },
                {
                    "name": "G5",
                    "midi": 79,
                    "time": 38.81905199999998,
                    "velocity": 0.3543307086614173,
                    "duration": 0.2454078000000024
                },
                {
                    "name": "A5",
                    "midi": 81,
                    "time": 39.04214999999998,
                    "velocity": 0.3228346456692913,
                    "duration": 0.2454078000000024
                },
                {
                    "name": "G5",
                    "midi": 79,
                    "time": 39.26524799999998,
                    "velocity": 0.3228346456692913,
                    "duration": 0.2454078000000024
                },
                {
                    "name": "F#5",
                    "midi": 78,
                    "time": 39.48834599999998,
                    "velocity": 0.3228346456692913,
                    "duration": 0.2454078000000024
                },
                {
                    "name": "D#5",
                    "midi": 75,
                    "time": 39.71144399999998,
                    "velocity": 0.31496062992125984,
                    "duration": 0.4461960000000005
                },
                {
                    "name": "G5",
                    "midi": 79,
                    "time": 39.71144399999998,
                    "velocity": 0.33858267716535434,
                    "duration": 0.2454078000000024
                },
                {
                    "name": "F#5",
                    "midi": 78,
                    "time": 39.93454199999998,
                    "velocity": 0.3543307086614173,
                    "duration": 0.2454078000000024
                },
                {
                    "name": "C5",
                    "midi": 72,
                    "time": 40.15763999999998,
                    "velocity": 0.3700787401574803,
                    "duration": 0.892392000000001
                },
                {
                    "name": "E5",
                    "midi": 76,
                    "time": 40.15763999999998,
                    "velocity": 0.3700787401574803,
                    "duration": 0.892392000000001
                },
                {
                    "name": "A4",
                    "midi": 69,
                    "time": 41.05003199999998,
                    "velocity": 0.3464566929133858,
                    "duration": 0.4461960000000005
                },
                {
                    "name": "D5",
                    "midi": 74,
                    "time": 41.05003199999998,
                    "velocity": 0.3464566929133858,
                    "duration": 0.2454078000000024
                },
                {
                    "name": "C5",
                    "midi": 72,
                    "time": 41.27312999999998,
                    "velocity": 0.33858267716535434,
                    "duration": 0.2454078000000024
                },
                {
                    "name": "G4",
                    "midi": 67,
                    "time": 41.49622799999998,
                    "velocity": 0.3228346456692913,
                    "duration": 0.4461960000000005
                },
                {
                    "name": "B4",
                    "midi": 71,
                    "time": 41.49622799999998,
                    "velocity": 0.3228346456692913,
                    "duration": 0.4461960000000005
                },
                {
                    "name": "G4",
                    "midi": 67,
                    "time": 41.94242399999998,
                    "velocity": 0.3464566929133858,
                    "duration": 0.2454078000000024
                },
                {
                    "name": "C5",
                    "midi": 72,
                    "time": 41.94242399999998,
                    "velocity": 0.3464566929133858,
                    "duration": 0.4461960000000005
                },
                {
                    "name": "A4",
                    "midi": 69,
                    "time": 42.16552199999998,
                    "velocity": 0.33858267716535434,
                    "duration": 0.22309800000000024
                },
                {
                    "name": "D4",
                    "midi": 62,
                    "time": 42.38861999999998,
                    "velocity": 0.33070866141732286,
                    "duration": 0.22309800000000024
                },
                {
                    "name": "A4",
                    "midi": 69,
                    "time": 42.38861999999998,
                    "velocity": 0.33070866141732286,
                    "duration": 0.22309800000000024
                },
                {
                    "name": "B4",
                    "midi": 71,
                    "time": 42.38861999999998,
                    "velocity": 0.33070866141732286,
                    "duration": 0.4461960000000005
                },
                {
                    "name": "G4",
                    "midi": 67,
                    "time": 42.61171799999998,
                    "velocity": 0.3228346456692913,
                    "duration": 0.22309800000000024
                },
                {
                    "name": "D4",
                    "midi": 62,
                    "time": 42.83481599999998,
                    "velocity": 0.29133858267716534,
                    "duration": 0.22309800000000024
                },
                {
                    "name": "G4",
                    "midi": 67,
                    "time": 42.83481599999998,
                    "velocity": 0.29133858267716534,
                    "duration": 0.2454078000000024
                },
                {
                    "name": "A4",
                    "midi": 69,
                    "time": 42.83481599999998,
                    "velocity": 0.29133858267716534,
                    "duration": 0.892392000000001
                },
                {
                    "name": "F#4",
                    "midi": 66,
                    "time": 43.05791399999998,
                    "velocity": 0.2755905511811024,
                    "duration": 0.2454078000000024
                },
                {
                    "name": "E4",
                    "midi": 64,
                    "time": 43.28101199999998,
                    "velocity": 0.2677165354330709,
                    "duration": 0.2454078000000024
                },
                {
                    "name": "D4",
                    "midi": 62,
                    "time": 43.50410999999998,
                    "velocity": 0.25196850393700787,
                    "duration": 0.22309800000000024
                },
                {
                    "name": "D4",
                    "midi": 62,
                    "time": 43.72720799999998,
                    "velocity": 0.33070866141732286,
                    "duration": 0.22309800000000024
                },
                {
                    "name": "F#4",
                    "midi": 66,
                    "time": 43.72720799999998,
                    "velocity": 0.33070866141732286,
                    "duration": 0.3346469999999968
                },
                {
                    "name": "C4",
                    "midi": 60,
                    "time": 43.95030599999998,
                    "velocity": 0.3543307086614173,
                    "duration": 0.16732349999999485
                },
                {
                    "name": "B4",
                    "midi": 71,
                    "time": 44.06185499999998,
                    "velocity": 0.31496062992125984,
                    "duration": 0.055774499999998284
                },
                {
                    "name": "A4",
                    "midi": 69,
                    "time": 44.11669992499998,
                    "velocity": 0.3464566929133858,
                    "duration": 0.055774499999998284
                },
                {
                    "name": "C#4",
                    "midi": 61,
                    "time": 44.17340399999998,
                    "velocity": 0.3858267716535433,
                    "duration": 0.055774499999998284
                },
                {
                    "name": "G4",
                    "midi": 67,
                    "time": 44.17340399999998,
                    "velocity": 0.3858267716535433,
                    "duration": 0.055774499999998284
                },
                {
                    "name": "C#4",
                    "midi": 61,
                    "time": 44.50805099999997,
                    "velocity": 0.3700787401574803,
                    "duration": 0.055774499999998284
                },
                {
                    "name": "F#4",
                    "midi": 66,
                    "time": 44.50805099999997,
                    "velocity": 0.3700787401574803,
                    "duration": 0.055774499999998284
                },
                {
                    "name": "C#4",
                    "midi": 61,
                    "time": 44.61959999999997,
                    "velocity": 0.3937007874015748,
                    "duration": 0.22309800000000024
                },
                {
                    "name": "G4",
                    "midi": 67,
                    "time": 44.61959999999997,
                    "velocity": 0.3937007874015748,
                    "duration": 0.22309800000000024
                },
                {
                    "name": "C#4",
                    "midi": 61,
                    "time": 45.06579599999997,
                    "velocity": 0.3858267716535433,
                    "duration": 0.4461960000000005
                },
                {
                    "name": "B4",
                    "midi": 71,
                    "time": 45.06579599999997,
                    "velocity": 0.3858267716535433,
                    "duration": 0.4461960000000005
                },
                {
                    "name": "D4",
                    "midi": 62,
                    "time": 45.51199199999997,
                    "velocity": 0.4015748031496063,
                    "duration": 0.892392000000001
                },
                {
                    "name": "A4",
                    "midi": 69,
                    "time": 45.51199199999997,
                    "velocity": 0.4015748031496063,
                    "duration": 0.892392000000001
                },
                {
                    "name": "A4",
                    "midi": 69,
                    "time": 46.40438399999997,
                    "velocity": 0.4015748031496063,
                    "duration": 0.4461960000000005
                },
                {
                    "name": "D5",
                    "midi": 74,
                    "time": 46.40438399999997,
                    "velocity": 0.4015748031496063,
                    "duration": 0.4461960000000005
                },
                {
                    "name": "G4",
                    "midi": 67,
                    "time": 46.85057999999997,
                    "velocity": 0.4015748031496063,
                    "duration": 0.055774499999998284
                },
                {
                    "name": "C#5",
                    "midi": 73,
                    "time": 46.85057999999997,
                    "velocity": 0.4015748031496063,
                    "duration": 0.055774499999998284
                },
                {
                    "name": "F#4",
                    "midi": 66,
                    "time": 47.18522699999997,
                    "velocity": 0.3700787401574803,
                    "duration": 0.055774499999998284
                },
                {
                    "name": "B4",
                    "midi": 71,
                    "time": 47.18522699999997,
                    "velocity": 0.3700787401574803,
                    "duration": 0.055774499999998284
                },
                {
                    "name": "E4",
                    "midi": 64,
                    "time": 47.296775999999966,
                    "velocity": 0.3937007874015748,
                    "duration": 0.22309800000000024
                },
                {
                    "name": "A4",
                    "midi": 69,
                    "time": 47.296775999999966,
                    "velocity": 0.3937007874015748,
                    "duration": 0.22309800000000024
                },
                {
                    "name": "G4",
                    "midi": 67,
                    "time": 47.742971999999966,
                    "velocity": 0.41732283464566927,
                    "duration": 0.4461960000000005
                },
                {
                    "name": "A4",
                    "midi": 69,
                    "time": 47.742971999999966,
                    "velocity": 0.41732283464566927,
                    "duration": 0.4461960000000005
                },
                {
                    "name": "G5",
                    "midi": 79,
                    "time": 47.742971999999966,
                    "velocity": 0.41732283464566927,
                    "duration": 0.4461960000000005
                },
                {
                    "name": "F#4",
                    "midi": 66,
                    "time": 48.18916799999997,
                    "velocity": 0.41732283464566927,
                    "duration": 0.055774499999998284
                },
                {
                    "name": "D5",
                    "midi": 74,
                    "time": 48.18916799999997,
                    "velocity": 0.41732283464566927,
                    "duration": 0.055774499999998284
                },
                {
                    "name": "F#5",
                    "midi": 78,
                    "time": 48.18916799999997,
                    "velocity": 0.41732283464566927,
                    "duration": 0.055774499999998284
                },
                {
                    "name": "G4",
                    "midi": 67,
                    "time": 48.52381499999996,
                    "velocity": 0.3858267716535433,
                    "duration": 0.055774499999998284
                },
                {
                    "name": "C#5",
                    "midi": 73,
                    "time": 48.52381499999996,
                    "velocity": 0.3858267716535433,
                    "duration": 0.055774499999998284
                },
                {
                    "name": "E5",
                    "midi": 76,
                    "time": 48.52381499999996,
                    "velocity": 0.3858267716535433,
                    "duration": 0.055774499999998284
                },
                {
                    "name": "A4",
                    "midi": 69,
                    "time": 48.63536399999996,
                    "velocity": 0.3779527559055118,
                    "duration": 0.22309800000000024
                },
                {
                    "name": "D5",
                    "midi": 74,
                    "time": 48.63536399999996,
                    "velocity": 0.3779527559055118,
                    "duration": 0.22309800000000024
                },
                {
                    "name": "F#4",
                    "midi": 66,
                    "time": 49.08155999999996,
                    "velocity": 0.4409448818897638,
                    "duration": 0.3346469999999968
                },
                {
                    "name": "B4",
                    "midi": 71,
                    "time": 49.41620699999996,
                    "velocity": 0.3937007874015748,
                    "duration": 0.055774499999998284
                },
                {
                    "name": "A4",
                    "midi": 69,
                    "time": 49.471051924999955,
                    "velocity": 0.4330708661417323,
                    "duration": 0.055774499999998284
                },
                {
                    "name": "C#4",
                    "midi": 61,
                    "time": 49.527755999999954,
                    "velocity": 0.48031496062992124,
                    "duration": 0.08366174999999743
                },
                {
                    "name": "G4",
                    "midi": 67,
                    "time": 49.527755999999954,
                    "velocity": 0.48031496062992124,
                    "duration": 0.08366174999999743
                },
                {
                    "name": "C#4",
                    "midi": 61,
                    "time": 49.86240299999995,
                    "velocity": 0.41732283464566927,
                    "duration": 0.055774499999998284
                },
                {
                    "name": "F#4",
                    "midi": 66,
                    "time": 49.86240299999995,
                    "velocity": 0.41732283464566927,
                    "duration": 0.055774499999998284
                },
                {
                    "name": "C#4",
                    "midi": 61,
                    "time": 49.97395199999995,
                    "velocity": 0.44881889763779526,
                    "duration": 0.22309800000000024
                },
                {
                    "name": "G4",
                    "midi": 67,
                    "time": 49.97395199999995,
                    "velocity": 0.44881889763779526,
                    "duration": 0.22309800000000024
                },
                {
                    "name": "B4",
                    "midi": 71,
                    "time": 50.42014799999995,
                    "velocity": 0.47244094488188976,
                    "duration": 0.3346469999999968
                },
                {
                    "name": "C#4",
                    "midi": 61,
                    "time": 50.42014799999995,
                    "velocity": 0.47244094488188976,
                    "duration": 0.4461959999999934
                },
                {
                    "name": "A4",
                    "midi": 69,
                    "time": 50.754794999999945,
                    "velocity": 0.4409448818897638,
                    "duration": 0.11154899999999657
                },
                {
                    "name": "A4",
                    "midi": 69,
                    "time": 50.86634399999994,
                    "velocity": 0.47244094488188976,
                    "duration": 0.2454078000000024
                },
                {
                    "name": "D4",
                    "midi": 62,
                    "time": 50.86634399999994,
                    "velocity": 0.47244094488188976,
                    "duration": 0.4461960000000005
                },
                {
                    "name": "B4",
                    "midi": 71,
                    "time": 51.08944199999994,
                    "velocity": 0.4094488188976378,
                    "duration": 0.2454078000000024
                },
                {
                    "name": "C#5",
                    "midi": 73,
                    "time": 51.31253999999994,
                    "velocity": 0.4251968503937008,
                    "duration": 0.2454078000000024
                },
                {
                    "name": "D5",
                    "midi": 74,
                    "time": 51.53563799999994,
                    "velocity": 0.4330708661417323,
                    "duration": 0.22309800000000024
                },
                {
                    "name": "B4",
                    "midi": 71,
                    "time": 51.75873599999994,
                    "velocity": 0.44881889763779526,
                    "duration": 0.4461960000000005
                },
                {
                    "name": "D5",
                    "midi": 74,
                    "time": 51.75873599999994,
                    "velocity": 0.44881889763779526,
                    "duration": 0.2454078000000024
                },
                {
                    "name": "E5",
                    "midi": 76,
                    "time": 51.98183399999994,
                    "velocity": 0.4645669291338583,
                    "duration": 0.2454078000000024
                },
                {
                    "name": "A4",
                    "midi": 69,
                    "time": 52.20493199999994,
                    "velocity": 0.48031496062992124,
                    "duration": 0.4461960000000005
                },
                {
                    "name": "F#5",
                    "midi": 78,
                    "time": 52.20493199999994,
                    "velocity": 0.48031496062992124,
                    "duration": 0.892392000000001
                },
                {
                    "name": "A4",
                    "midi": 69,
                    "time": 52.65112799999994,
                    "velocity": 0.4094488188976378,
                    "duration": 0.2454078000000024
                },
                {
                    "name": "B4",
                    "midi": 71,
                    "time": 52.87422599999994,
                    "velocity": 0.4015748031496063,
                    "duration": 0.22309800000000024
                },
                {
                    "name": "B4",
                    "midi": 71,
                    "time": 53.097323999999944,
                    "velocity": 0.3779527559055118,
                    "duration": 0.2454078000000024
                },
                {
                    "name": "E5",
                    "midi": 76,
                    "time": 53.097323999999944,
                    "velocity": 0.3779527559055118,
                    "duration": 0.892392000000001
                },
                {
                    "name": "C#5",
                    "midi": 73,
                    "time": 53.320421999999944,
                    "velocity": 0.3779527559055118,
                    "duration": 0.2454078000000024
                },
                {
                    "name": "C#5",
                    "midi": 73,
                    "time": 53.543519999999944,
                    "velocity": 0.36220472440944884,
                    "duration": 0.4461960000000005
                },
                {
                    "name": "D5",
                    "midi": 74,
                    "time": 53.989715999999945,
                    "velocity": 0.2992125984251969,
                    "duration": 0.4461960000000005
                }
            ],
            "controlChanges": {
                "7": [
                    {
                        "number": 7,
                        "time": 0,
                        "value": 0.7874015748031497
                    }
                ],
                "10": [
                    {
                        "number": 10,
                        "time": 0,
                        "value": 0.5039370078740157
                    }
                ],
                "91": [
                    {
                        "number": 91,
                        "time": 0,
                        "value": 1
                    },
                    {
                        "number": 91,
                        "time": 0.8914624250000001,
                        "value": 1
                    },
                    {
                        "number": 91,
                        "time": 11.601096000000009,
                        "value": 1
                    }
                ]
            },
            "id": 1,
            "name": "Piano right",
            "instrumentNumber": 0,
            "instrument": "acoustic grand piano",
            "instrumentFamily": "piano",
            "channelNumber": 0,
            "isPercussion": false
        },
        {
            "startTime": 0.8923920000000001,
            "duration": 54.43591199999994,
            "length": 306,
            "notes": [
                {
                    "name": "D3",
                    "midi": 50,
                    "time": 0.8923920000000001,
                    "velocity": 0.4015748031496063,
                    "duration": 0.44619600000000004
                },
                {
                    "name": "A3",
                    "midi": 57,
                    "time": 0.8923920000000001,
                    "velocity": 0.4015748031496063,
                    "duration": 0.44619600000000004
                },
                {
                    "name": "A3",
                    "midi": 57,
                    "time": 1.3385880000000001,
                    "velocity": 0.4409448818897638,
                    "duration": 0.05577450000000006
                },
                {
                    "name": "E3",
                    "midi": 52,
                    "time": 1.3385880000000001,
                    "velocity": 0.4409448818897638,
                    "duration": 0.05577450000000006
                },
                {
                    "name": "D#3",
                    "midi": 51,
                    "time": 1.6732350000000002,
                    "velocity": 0.3700787401574803,
                    "duration": 0.05577450000000006
                },
                {
                    "name": "A3",
                    "midi": 57,
                    "time": 1.6732350000000002,
                    "velocity": 0.3700787401574803,
                    "duration": 0.05577450000000006
                },
                {
                    "name": "E3",
                    "midi": 52,
                    "time": 1.7847840000000004,
                    "velocity": 0.4015748031496063,
                    "duration": 0.22309800000000002
                },
                {
                    "name": "A3",
                    "midi": 57,
                    "time": 1.7847840000000004,
                    "velocity": 0.4015748031496063,
                    "duration": 0.22309800000000002
                },
                {
                    "name": "A3",
                    "midi": 57,
                    "time": 2.2309800000000006,
                    "velocity": 0.4330708661417323,
                    "duration": 0.44619600000000004
                },
                {
                    "name": "G3",
                    "midi": 55,
                    "time": 2.2309800000000006,
                    "velocity": 0.4330708661417323,
                    "duration": 0.44619600000000004
                },
                {
                    "name": "F#3",
                    "midi": 54,
                    "time": 2.6771760000000007,
                    "velocity": 0.4330708661417323,
                    "duration": 0.05577450000000006
                },
                {
                    "name": "A3",
                    "midi": 57,
                    "time": 2.6771760000000007,
                    "velocity": 0.4330708661417323,
                    "duration": 0.05577450000000006
                },
                {
                    "name": "A3",
                    "midi": 57,
                    "time": 3.0118230000000006,
                    "velocity": 0.3858267716535433,
                    "duration": 0.05577450000000006
                },
                {
                    "name": "F3",
                    "midi": 53,
                    "time": 3.0118230000000006,
                    "velocity": 0.3858267716535433,
                    "duration": 0.05577450000000006
                },
                {
                    "name": "A3",
                    "midi": 57,
                    "time": 3.1233720000000007,
                    "velocity": 0.4094488188976378,
                    "duration": 0.22309800000000024
                },
                {
                    "name": "F#3",
                    "midi": 54,
                    "time": 3.1233720000000007,
                    "velocity": 0.4094488188976378,
                    "duration": 0.22309800000000024
                },
                {
                    "name": "A3",
                    "midi": 57,
                    "time": 3.569568000000001,
                    "velocity": 0.4330708661417323,
                    "duration": 0.4461960000000005
                },
                {
                    "name": "F#3",
                    "midi": 54,
                    "time": 3.569568000000001,
                    "velocity": 0.4330708661417323,
                    "duration": 0.4461960000000005
                },
                {
                    "name": "E3",
                    "midi": 52,
                    "time": 4.015764000000002,
                    "velocity": 0.4330708661417323,
                    "duration": 0.05577450000000006
                },
                {
                    "name": "A3",
                    "midi": 57,
                    "time": 4.015764000000002,
                    "velocity": 0.4330708661417323,
                    "duration": 0.05577450000000006
                },
                {
                    "name": "A3",
                    "midi": 57,
                    "time": 4.350411000000002,
                    "velocity": 0.4094488188976378,
                    "duration": 0.05577450000000006
                },
                {
                    "name": "D3",
                    "midi": 50,
                    "time": 4.350411000000002,
                    "velocity": 0.4094488188976378,
                    "duration": 0.05577450000000006
                },
                {
                    "name": "A3",
                    "midi": 57,
                    "time": 4.461960000000002,
                    "velocity": 0.4409448818897638,
                    "duration": 0.22309800000000024
                },
                {
                    "name": "C#3",
                    "midi": 49,
                    "time": 4.461960000000002,
                    "velocity": 0.4409448818897638,
                    "duration": 0.22309800000000024
                },
                {
                    "name": "A2",
                    "midi": 45,
                    "time": 4.908156000000003,
                    "velocity": 0.48031496062992124,
                    "duration": 0.4461960000000005
                },
                {
                    "name": "A3",
                    "midi": 57,
                    "time": 4.908156000000003,
                    "velocity": 0.48031496062992124,
                    "duration": 0.4461960000000005
                },
                {
                    "name": "A3",
                    "midi": 57,
                    "time": 5.354352000000003,
                    "velocity": 0.4566929133858268,
                    "duration": 0.05577450000000006
                },
                {
                    "name": "D3",
                    "midi": 50,
                    "time": 5.354352000000003,
                    "velocity": 0.4566929133858268,
                    "duration": 0.05577450000000006
                },
                {
                    "name": "E3",
                    "midi": 52,
                    "time": 5.6889990000000035,
                    "velocity": 0.4409448818897638,
                    "duration": 0.05577450000000006
                },
                {
                    "name": "A3",
                    "midi": 57,
                    "time": 5.6889990000000035,
                    "velocity": 0.4409448818897638,
                    "duration": 0.05577450000000006
                },
                {
                    "name": "A3",
                    "midi": 57,
                    "time": 5.800548000000004,
                    "velocity": 0.41732283464566927,
                    "duration": 0.22309800000000024
                },
                {
                    "name": "F#3",
                    "midi": 54,
                    "time": 5.800548000000004,
                    "velocity": 0.41732283464566927,
                    "duration": 0.22309800000000024
                },
                {
                    "name": "D3",
                    "midi": 50,
                    "time": 6.246744000000004,
                    "velocity": 0.3937007874015748,
                    "duration": 0.4461959999999996
                },
                {
                    "name": "A3",
                    "midi": 57,
                    "time": 6.246744000000004,
                    "velocity": 0.3937007874015748,
                    "duration": 0.4461959999999996
                },
                {
                    "name": "E3",
                    "midi": 52,
                    "time": 6.692940000000004,
                    "velocity": 0.4409448818897638,
                    "duration": 0.0836617499999992
                },
                {
                    "name": "A3",
                    "midi": 57,
                    "time": 6.692940000000004,
                    "velocity": 0.4409448818897638,
                    "duration": 0.0836617499999992
                },
                {
                    "name": "A3",
                    "midi": 57,
                    "time": 7.027587000000003,
                    "velocity": 0.41732283464566927,
                    "duration": 0.05577450000000006
                },
                {
                    "name": "D#3",
                    "midi": 51,
                    "time": 7.027587000000003,
                    "velocity": 0.41732283464566927,
                    "duration": 0.05577450000000006
                },
                {
                    "name": "A3",
                    "midi": 57,
                    "time": 7.139136000000003,
                    "velocity": 0.4409448818897638,
                    "duration": 0.22309800000000024
                },
                {
                    "name": "E3",
                    "midi": 52,
                    "time": 7.139136000000003,
                    "velocity": 0.4409448818897638,
                    "duration": 0.22309800000000024
                },
                {
                    "name": "G3",
                    "midi": 55,
                    "time": 7.585332000000004,
                    "velocity": 0.4566929133858268,
                    "duration": 0.4461959999999996
                },
                {
                    "name": "A3",
                    "midi": 57,
                    "time": 7.585332000000004,
                    "velocity": 0.4566929133858268,
                    "duration": 0.4461959999999996
                },
                {
                    "name": "A3",
                    "midi": 57,
                    "time": 8.031528000000003,
                    "velocity": 0.4566929133858268,
                    "duration": 0.0836617499999992
                },
                {
                    "name": "F#3",
                    "midi": 54,
                    "time": 8.031528000000003,
                    "velocity": 0.4566929133858268,
                    "duration": 0.0836617499999992
                },
                {
                    "name": "F3",
                    "midi": 53,
                    "time": 8.366175000000002,
                    "velocity": 0.4251968503937008,
                    "duration": 0.05577450000000006
                },
                {
                    "name": "A3",
                    "midi": 57,
                    "time": 8.366175000000002,
                    "velocity": 0.4251968503937008,
                    "duration": 0.05577450000000006
                },
                {
                    "name": "A3",
                    "midi": 57,
                    "time": 8.477724000000002,
                    "velocity": 0.4566929133858268,
                    "duration": 0.22309800000000024
                },
                {
                    "name": "F#3",
                    "midi": 54,
                    "time": 8.477724000000002,
                    "velocity": 0.4566929133858268,
                    "duration": 0.22309800000000024
                },
                {
                    "name": "A3",
                    "midi": 57,
                    "time": 8.923920000000003,
                    "velocity": 0.4094488188976378,
                    "duration": 0.22309800000000024
                },
                {
                    "name": "F#3",
                    "midi": 54,
                    "time": 8.923920000000003,
                    "velocity": 0.4094488188976378,
                    "duration": 0.4461960000000005
                },
                {
                    "name": "B3",
                    "midi": 59,
                    "time": 9.147018000000003,
                    "velocity": 0.3858267716535433,
                    "duration": 0.22309800000000024
                },
                {
                    "name": "E3",
                    "midi": 52,
                    "time": 9.370116000000003,
                    "velocity": 0.3779527559055118,
                    "duration": 0.4461960000000005
                },
                {
                    "name": "C#4",
                    "midi": 61,
                    "time": 9.370116000000003,
                    "velocity": 0.3779527559055118,
                    "duration": 0.24540780000000062
                },
                {
                    "name": "D4",
                    "midi": 62,
                    "time": 9.593214000000003,
                    "velocity": 0.3937007874015748,
                    "duration": 0.24540780000000062
                },
                {
                    "name": "E4",
                    "midi": 64,
                    "time": 9.816312000000003,
                    "velocity": 0.4015748031496063,
                    "duration": 0.24540780000000062
                },
                {
                    "name": "F#4",
                    "midi": 66,
                    "time": 10.039410000000004,
                    "velocity": 0.41732283464566927,
                    "duration": 0.22309800000000024
                },
                {
                    "name": "F#4",
                    "midi": 66,
                    "time": 10.262508000000004,
                    "velocity": 0.4330708661417323,
                    "duration": 0.33464700000000036
                },
                {
                    "name": "E4",
                    "midi": 64,
                    "time": 10.262508000000004,
                    "velocity": 0.3543307086614173,
                    "duration": 0.892392000000001
                },
                {
                    "name": "G#4",
                    "midi": 68,
                    "time": 10.597155000000004,
                    "velocity": 0.3779527559055118,
                    "duration": 0.11154900000000012
                },
                {
                    "name": "G#4",
                    "midi": 68,
                    "time": 10.708704000000004,
                    "velocity": 0.3543307086614173,
                    "duration": 0.4461960000000005
                },
                {
                    "name": "A3",
                    "midi": 57,
                    "time": 11.154900000000005,
                    "velocity": 0.29133858267716534,
                    "duration": 0.33464700000000036
                },
                {
                    "name": "A4",
                    "midi": 69,
                    "time": 11.154900000000005,
                    "velocity": 0.29133858267716534,
                    "duration": 0.33464700000000036
                },
                {
                    "name": "D3",
                    "midi": 50,
                    "time": 11.601096000000005,
                    "velocity": 0.3937007874015748,
                    "duration": 0.4461960000000005
                },
                {
                    "name": "A3",
                    "midi": 57,
                    "time": 11.601096000000005,
                    "velocity": 0.3937007874015748,
                    "duration": 0.4461960000000005
                },
                {
                    "name": "E3",
                    "midi": 52,
                    "time": 12.047292000000006,
                    "velocity": 0.4566929133858268,
                    "duration": 0.05577450000000006
                },
                {
                    "name": "A3",
                    "midi": 57,
                    "time": 12.047292000000006,
                    "velocity": 0.4566929133858268,
                    "duration": 0.05577450000000006
                },
                {
                    "name": "D#3",
                    "midi": 51,
                    "time": 12.381939000000006,
                    "velocity": 0.4251968503937008,
                    "duration": 0.05577450000000006
                },
                {
                    "name": "A3",
                    "midi": 57,
                    "time": 12.381939000000006,
                    "velocity": 0.4251968503937008,
                    "duration": 0.05577450000000006
                },
                {
                    "name": "E3",
                    "midi": 52,
                    "time": 12.493488000000006,
                    "velocity": 0.44881889763779526,
                    "duration": 0.22309800000000024
                },
                {
                    "name": "A3",
                    "midi": 57,
                    "time": 12.493488000000006,
                    "velocity": 0.44881889763779526,
                    "duration": 0.22309800000000024
                },
                {
                    "name": "G3",
                    "midi": 55,
                    "time": 12.939684000000007,
                    "velocity": 0.44881889763779526,
                    "duration": 0.4461960000000005
                },
                {
                    "name": "A3",
                    "midi": 57,
                    "time": 12.939684000000007,
                    "velocity": 0.44881889763779526,
                    "duration": 0.4461960000000005
                },
                {
                    "name": "F#3",
                    "midi": 54,
                    "time": 13.385880000000007,
                    "velocity": 0.44881889763779526,
                    "duration": 0.05577450000000006
                },
                {
                    "name": "A3",
                    "midi": 57,
                    "time": 13.385880000000007,
                    "velocity": 0.44881889763779526,
                    "duration": 0.05577450000000006
                },
                {
                    "name": "F3",
                    "midi": 53,
                    "time": 13.720527000000008,
                    "velocity": 0.41732283464566927,
                    "duration": 0.05577450000000006
                },
                {
                    "name": "A3",
                    "midi": 57,
                    "time": 13.720527000000008,
                    "velocity": 0.41732283464566927,
                    "duration": 0.05577450000000006
                },
                {
                    "name": "F#3",
                    "midi": 54,
                    "time": 13.832076000000008,
                    "velocity": 0.44881889763779526,
                    "duration": 0.22309800000000024
                },
                {
                    "name": "A3",
                    "midi": 57,
                    "time": 13.832076000000008,
                    "velocity": 0.44881889763779526,
                    "duration": 0.22309800000000024
                },
                {
                    "name": "F#3",
                    "midi": 54,
                    "time": 14.278272000000008,
                    "velocity": 0.4409448818897638,
                    "duration": 0.4461960000000005
                },
                {
                    "name": "A3",
                    "midi": 57,
                    "time": 14.278272000000008,
                    "velocity": 0.4409448818897638,
                    "duration": 0.4461960000000005
                },
                {
                    "name": "E3",
                    "midi": 52,
                    "time": 14.724468000000009,
                    "velocity": 0.4409448818897638,
                    "duration": 0.05577450000000006
                },
                {
                    "name": "A3",
                    "midi": 57,
                    "time": 14.724468000000009,
                    "velocity": 0.4409448818897638,
                    "duration": 0.05577450000000006
                },
                {
                    "name": "D3",
                    "midi": 50,
                    "time": 15.05911500000001,
                    "velocity": 0.41732283464566927,
                    "duration": 0.05577450000000006
                },
                {
                    "name": "A3",
                    "midi": 57,
                    "time": 15.05911500000001,
                    "velocity": 0.41732283464566927,
                    "duration": 0.05577450000000006
                },
                {
                    "name": "C#3",
                    "midi": 49,
                    "time": 15.17066400000001,
                    "velocity": 0.44881889763779526,
                    "duration": 0.22309800000000024
                },
                {
                    "name": "A3",
                    "midi": 57,
                    "time": 15.17066400000001,
                    "velocity": 0.44881889763779526,
                    "duration": 0.22309800000000024
                },
                {
                    "name": "A2",
                    "midi": 45,
                    "time": 15.61686000000001,
                    "velocity": 0.47244094488188976,
                    "duration": 0.4461960000000005
                },
                {
                    "name": "A3",
                    "midi": 57,
                    "time": 15.61686000000001,
                    "velocity": 0.47244094488188976,
                    "duration": 0.4461960000000005
                },
                {
                    "name": "D3",
                    "midi": 50,
                    "time": 16.06305600000001,
                    "velocity": 0.44881889763779526,
                    "duration": 0.055774499999998284
                },
                {
                    "name": "A3",
                    "midi": 57,
                    "time": 16.06305600000001,
                    "velocity": 0.44881889763779526,
                    "duration": 0.055774499999998284
                },
                {
                    "name": "E3",
                    "midi": 52,
                    "time": 16.397703000000007,
                    "velocity": 0.4330708661417323,
                    "duration": 0.055774499999998284
                },
                {
                    "name": "A3",
                    "midi": 57,
                    "time": 16.397703000000007,
                    "velocity": 0.4330708661417323,
                    "duration": 0.055774499999998284
                },
                {
                    "name": "F#3",
                    "midi": 54,
                    "time": 16.509252000000004,
                    "velocity": 0.4330708661417323,
                    "duration": 0.22309800000000024
                },
                {
                    "name": "A3",
                    "midi": 57,
                    "time": 16.509252000000004,
                    "velocity": 0.4330708661417323,
                    "duration": 0.22309800000000024
                },
                {
                    "name": "D3",
                    "midi": 50,
                    "time": 16.955448000000004,
                    "velocity": 0.4094488188976378,
                    "duration": 0.4461960000000005
                },
                {
                    "name": "A3",
                    "midi": 57,
                    "time": 16.955448000000004,
                    "velocity": 0.4094488188976378,
                    "duration": 0.4461960000000005
                },
                {
                    "name": "E3",
                    "midi": 52,
                    "time": 17.401644000000005,
                    "velocity": 0.4409448818897638,
                    "duration": 0.08366174999999743
                },
                {
                    "name": "A3",
                    "midi": 57,
                    "time": 17.401644000000005,
                    "velocity": 0.4409448818897638,
                    "duration": 0.08366174999999743
                },
                {
                    "name": "D#3",
                    "midi": 51,
                    "time": 17.736291,
                    "velocity": 0.41732283464566927,
                    "duration": 0.055774499999998284
                },
                {
                    "name": "A3",
                    "midi": 57,
                    "time": 17.736291,
                    "velocity": 0.41732283464566927,
                    "duration": 0.055774499999998284
                },
                {
                    "name": "E3",
                    "midi": 52,
                    "time": 17.847839999999998,
                    "velocity": 0.4330708661417323,
                    "duration": 0.22309800000000024
                },
                {
                    "name": "A3",
                    "midi": 57,
                    "time": 17.847839999999998,
                    "velocity": 0.4330708661417323,
                    "duration": 0.22309800000000024
                },
                {
                    "name": "G3",
                    "midi": 55,
                    "time": 18.294036,
                    "velocity": 0.4409448818897638,
                    "duration": 0.44619599999999693
                },
                {
                    "name": "A3",
                    "midi": 57,
                    "time": 18.294036,
                    "velocity": 0.4409448818897638,
                    "duration": 0.44619599999999693
                },
                {
                    "name": "F#3",
                    "midi": 54,
                    "time": 18.740231999999995,
                    "velocity": 0.4409448818897638,
                    "duration": 0.08366175000000098
                },
                {
                    "name": "A3",
                    "midi": 57,
                    "time": 18.740231999999995,
                    "velocity": 0.4409448818897638,
                    "duration": 0.08366175000000098
                },
                {
                    "name": "F3",
                    "midi": 53,
                    "time": 19.074878999999996,
                    "velocity": 0.4251968503937008,
                    "duration": 0.055774499999998284
                },
                {
                    "name": "A3",
                    "midi": 57,
                    "time": 19.074878999999996,
                    "velocity": 0.4251968503937008,
                    "duration": 0.055774499999998284
                },
                {
                    "name": "F#3",
                    "midi": 54,
                    "time": 19.186427999999992,
                    "velocity": 0.4566929133858268,
                    "duration": 0.22309800000000024
                },
                {
                    "name": "A3",
                    "midi": 57,
                    "time": 19.186427999999992,
                    "velocity": 0.4566929133858268,
                    "duration": 0.22309800000000024
                },
                {
                    "name": "A3",
                    "midi": 57,
                    "time": 19.632623999999993,
                    "velocity": 0.4094488188976378,
                    "duration": 0.22309800000000024
                },
                {
                    "name": "F#3",
                    "midi": 54,
                    "time": 19.632623999999993,
                    "velocity": 0.4094488188976378,
                    "duration": 0.4461960000000005
                },
                {
                    "name": "B3",
                    "midi": 59,
                    "time": 19.855721999999993,
                    "velocity": 0.3858267716535433,
                    "duration": 0.22309800000000024
                },
                {
                    "name": "C#4",
                    "midi": 61,
                    "time": 20.078819999999993,
                    "velocity": 0.3779527559055118,
                    "duration": 0.24540779999999884
                },
                {
                    "name": "E3",
                    "midi": 52,
                    "time": 20.078819999999993,
                    "velocity": 0.3779527559055118,
                    "duration": 0.4461960000000005
                },
                {
                    "name": "D4",
                    "midi": 62,
                    "time": 20.301917999999993,
                    "velocity": 0.3937007874015748,
                    "duration": 0.24540779999999884
                },
                {
                    "name": "E4",
                    "midi": 64,
                    "time": 20.525015999999994,
                    "velocity": 0.4015748031496063,
                    "duration": 0.24540779999999884
                },
                {
                    "name": "F#4",
                    "midi": 66,
                    "time": 20.748113999999994,
                    "velocity": 0.41732283464566927,
                    "duration": 0.22309800000000024
                },
                {
                    "name": "E4",
                    "midi": 64,
                    "time": 20.971211999999994,
                    "velocity": 0.3543307086614173,
                    "duration": 0.892392000000001
                },
                {
                    "name": "F#4",
                    "midi": 66,
                    "time": 20.971211999999994,
                    "velocity": 0.4330708661417323,
                    "duration": 0.33464700000000036
                },
                {
                    "name": "G#4",
                    "midi": 68,
                    "time": 21.305858999999995,
                    "velocity": 0.3779527559055118,
                    "duration": 0.11154900000000012
                },
                {
                    "name": "G#4",
                    "midi": 68,
                    "time": 21.417407999999995,
                    "velocity": 0.3543307086614173,
                    "duration": 0.4461960000000005
                },
                {
                    "name": "A4",
                    "midi": 69,
                    "time": 21.863603999999995,
                    "velocity": 0.29133858267716534,
                    "duration": 0.33464700000000036
                },
                {
                    "name": "A3",
                    "midi": 57,
                    "time": 21.863603999999995,
                    "velocity": 0.29133858267716534,
                    "duration": 0.33464700000000036
                },
                {
                    "name": "A3",
                    "midi": 57,
                    "time": 22.309799999999996,
                    "velocity": 0.3228346456692913,
                    "duration": 0.4461960000000005
                },
                {
                    "name": "E4",
                    "midi": 64,
                    "time": 22.309799999999996,
                    "velocity": 0.3228346456692913,
                    "duration": 0.24540779999999884
                },
                {
                    "name": "F#4",
                    "midi": 66,
                    "time": 22.532897999999996,
                    "velocity": 0.3228346456692913,
                    "duration": 0.24540779999999884
                },
                {
                    "name": "B3",
                    "midi": 59,
                    "time": 22.755995999999996,
                    "velocity": 0.31496062992125984,
                    "duration": 0.892392000000001
                },
                {
                    "name": "G4",
                    "midi": 67,
                    "time": 22.755995999999996,
                    "velocity": 0.3464566929133858,
                    "duration": 0.24540779999999884
                },
                {
                    "name": "A4",
                    "midi": 69,
                    "time": 22.979093999999996,
                    "velocity": 0.3228346456692913,
                    "duration": 0.24540779999999884
                },
                {
                    "name": "G4",
                    "midi": 67,
                    "time": 23.202191999999997,
                    "velocity": 0.3228346456692913,
                    "duration": 0.24540779999999884
                },
                {
                    "name": "F#4",
                    "midi": 66,
                    "time": 23.425289999999997,
                    "velocity": 0.30708661417322836,
                    "duration": 0.24540779999999884
                },
                {
                    "name": "B3",
                    "midi": 59,
                    "time": 23.648387999999997,
                    "velocity": 0.31496062992125984,
                    "duration": 0.4461960000000005
                },
                {
                    "name": "G4",
                    "midi": 67,
                    "time": 23.648387999999997,
                    "velocity": 0.3228346456692913,
                    "duration": 0.24540779999999884
                },
                {
                    "name": "F#4",
                    "midi": 66,
                    "time": 23.871485999999997,
                    "velocity": 0.3464566929133858,
                    "duration": 0.24540779999999884
                },
                {
                    "name": "C4",
                    "midi": 60,
                    "time": 24.094583999999998,
                    "velocity": 0.36220472440944884,
                    "duration": 0.24540779999999884
                },
                {
                    "name": "E4",
                    "midi": 64,
                    "time": 24.094583999999998,
                    "velocity": 0.36220472440944884,
                    "duration": 0.892392000000001
                },
                {
                    "name": "B3",
                    "midi": 59,
                    "time": 24.317681999999998,
                    "velocity": 0.33858267716535434,
                    "duration": 0.24540779999999884
                },
                {
                    "name": "A3",
                    "midi": 57,
                    "time": 24.540779999999998,
                    "velocity": 0.33070866141732286,
                    "duration": 0.24540779999999884
                },
                {
                    "name": "G3",
                    "midi": 55,
                    "time": 24.763878,
                    "velocity": 0.3228346456692913,
                    "duration": 0.22309800000000024
                },
                {
                    "name": "G3",
                    "midi": 55,
                    "time": 24.986976,
                    "velocity": 0.3464566929133858,
                    "duration": 0.24540779999999884
                },
                {
                    "name": "D4",
                    "midi": 62,
                    "time": 24.986976,
                    "velocity": 0.3464566929133858,
                    "duration": 0.892392000000001
                },
                {
                    "name": "F#3",
                    "midi": 54,
                    "time": 25.210074,
                    "velocity": 0.33858267716535434,
                    "duration": 0.24540779999999884
                },
                {
                    "name": "G3",
                    "midi": 55,
                    "time": 25.433172,
                    "velocity": 0.33858267716535434,
                    "duration": 0.24540779999999884
                },
                {
                    "name": "F#3",
                    "midi": 54,
                    "time": 25.65627,
                    "velocity": 0.33070866141732286,
                    "duration": 0.24540779999999884
                },
                {
                    "name": "E3",
                    "midi": 52,
                    "time": 25.879368,
                    "velocity": 0.3228346456692913,
                    "duration": 0.24540779999999884
                },
                {
                    "name": "C4",
                    "midi": 60,
                    "time": 25.879368,
                    "velocity": 0.3228346456692913,
                    "duration": 0.4461960000000005
                },
                {
                    "name": "F#3",
                    "midi": 54,
                    "time": 26.102466,
                    "velocity": 0.31496062992125984,
                    "duration": 0.24540779999999884
                },
                {
                    "name": "G3",
                    "midi": 55,
                    "time": 26.325564,
                    "velocity": 0.3228346456692913,
                    "duration": 0.24540779999999884
                },
                {
                    "name": "B3",
                    "midi": 59,
                    "time": 26.325564,
                    "velocity": 0.3228346456692913,
                    "duration": 0.4461960000000005
                },
                {
                    "name": "D3",
                    "midi": 50,
                    "time": 26.548662,
                    "velocity": 0.3228346456692913,
                    "duration": 0.22309800000000024
                },
                {
                    "name": "G3",
                    "midi": 55,
                    "time": 26.77176,
                    "velocity": 0.28346456692913385,
                    "duration": 0.22309800000000024
                },
                {
                    "name": "D3",
                    "midi": 50,
                    "time": 26.77176,
                    "velocity": 0.28346456692913385,
                    "duration": 0.892392000000001
                },
                {
                    "name": "A3",
                    "midi": 57,
                    "time": 26.77176,
                    "velocity": 0.28346456692913385,
                    "duration": 0.9816312000000025
                },
                {
                    "name": "F#3",
                    "midi": 54,
                    "time": 26.994858,
                    "velocity": 0.2755905511811024,
                    "duration": 0.24540779999999884
                },
                {
                    "name": "E3",
                    "midi": 52,
                    "time": 27.217956,
                    "velocity": 0.2677165354330709,
                    "duration": 0.24540779999999884
                },
                {
                    "name": "D3",
                    "midi": 50,
                    "time": 27.441054,
                    "velocity": 0.25196850393700787,
                    "duration": 0.22309800000000024
                },
                {
                    "name": "D3",
                    "midi": 50,
                    "time": 27.664152,
                    "velocity": 0.31496062992125984,
                    "duration": 0.22309800000000024
                },
                {
                    "name": "A3",
                    "midi": 57,
                    "time": 27.664152,
                    "velocity": 0.31496062992125984,
                    "duration": 0.4461960000000005
                },
                {
                    "name": "D#3",
                    "midi": 51,
                    "time": 27.88725,
                    "velocity": 0.33858267716535434,
                    "duration": 0.22309800000000024
                },
                {
                    "name": "E3",
                    "midi": 52,
                    "time": 28.110348000000002,
                    "velocity": 0.3464566929133858,
                    "duration": 0.055774500000001836
                },
                {
                    "name": "A3",
                    "midi": 57,
                    "time": 28.110348000000002,
                    "velocity": 0.3464566929133858,
                    "duration": 0.055774500000001836
                },
                {
                    "name": "D#3",
                    "midi": 51,
                    "time": 28.444995000000002,
                    "velocity": 0.2992125984251969,
                    "duration": 0.055774499999998284
                },
                {
                    "name": "A3",
                    "midi": 57,
                    "time": 28.444995000000002,
                    "velocity": 0.2992125984251969,
                    "duration": 0.055774499999998284
                },
                {
                    "name": "E3",
                    "midi": 52,
                    "time": 28.556544,
                    "velocity": 0.31496062992125984,
                    "duration": 0.22309800000000024
                },
                {
                    "name": "A3",
                    "midi": 57,
                    "time": 28.556544,
                    "velocity": 0.31496062992125984,
                    "duration": 0.22309800000000024
                },
                {
                    "name": "G3",
                    "midi": 55,
                    "time": 29.00274,
                    "velocity": 0.3464566929133858,
                    "duration": 0.4461960000000005
                },
                {
                    "name": "A3",
                    "midi": 57,
                    "time": 29.00274,
                    "velocity": 0.3464566929133858,
                    "duration": 0.4461960000000005
                },
                {
                    "name": "F#3",
                    "midi": 54,
                    "time": 29.448936,
                    "velocity": 0.3464566929133858,
                    "duration": 0.055774499999998284
                },
                {
                    "name": "A3",
                    "midi": 57,
                    "time": 29.448936,
                    "velocity": 0.3464566929133858,
                    "duration": 0.055774499999998284
                },
                {
                    "name": "F3",
                    "midi": 53,
                    "time": 29.783582999999997,
                    "velocity": 0.30708661417322836,
                    "duration": 0.055774499999998284
                },
                {
                    "name": "A3",
                    "midi": 57,
                    "time": 29.783582999999997,
                    "velocity": 0.30708661417322836,
                    "duration": 0.055774499999998284
                },
                {
                    "name": "F#3",
                    "midi": 54,
                    "time": 29.895131999999993,
                    "velocity": 0.33858267716535434,
                    "duration": 0.22309800000000024
                },
                {
                    "name": "A3",
                    "midi": 57,
                    "time": 29.895131999999993,
                    "velocity": 0.33858267716535434,
                    "duration": 0.22309800000000024
                },
                {
                    "name": "F#3",
                    "midi": 54,
                    "time": 30.341327999999994,
                    "velocity": 0.3464566929133858,
                    "duration": 0.44619599999999693
                },
                {
                    "name": "A3",
                    "midi": 57,
                    "time": 30.341327999999994,
                    "velocity": 0.3464566929133858,
                    "duration": 0.44619599999999693
                },
                {
                    "name": "E3",
                    "midi": 52,
                    "time": 30.78752399999999,
                    "velocity": 0.3464566929133858,
                    "duration": 0.055774499999998284
                },
                {
                    "name": "A3",
                    "midi": 57,
                    "time": 30.78752399999999,
                    "velocity": 0.3464566929133858,
                    "duration": 0.055774499999998284
                },
                {
                    "name": "D3",
                    "midi": 50,
                    "time": 31.122170999999987,
                    "velocity": 0.31496062992125984,
                    "duration": 0.055774499999998284
                },
                {
                    "name": "A3",
                    "midi": 57,
                    "time": 31.122170999999987,
                    "velocity": 0.31496062992125984,
                    "duration": 0.055774499999998284
                },
                {
                    "name": "C#3",
                    "midi": 49,
                    "time": 31.233719999999984,
                    "velocity": 0.3464566929133858,
                    "duration": 0.22309800000000024
                },
                {
                    "name": "A3",
                    "midi": 57,
                    "time": 31.233719999999984,
                    "velocity": 0.3464566929133858,
                    "duration": 0.22309800000000024
                },
                {
                    "name": "A2",
                    "midi": 45,
                    "time": 31.679915999999984,
                    "velocity": 0.3779527559055118,
                    "duration": 0.22309800000000024
                },
                {
                    "name": "A3",
                    "midi": 57,
                    "time": 31.679915999999984,
                    "velocity": 0.3779527559055118,
                    "duration": 0.4461960000000005
                },
                {
                    "name": "C#3",
                    "midi": 49,
                    "time": 31.903013999999985,
                    "velocity": 0.3779527559055118,
                    "duration": 0.22309800000000024
                },
                {
                    "name": "D3",
                    "midi": 50,
                    "time": 32.126111999999985,
                    "velocity": 0.36220472440944884,
                    "duration": 0.055774499999998284
                },
                {
                    "name": "A3",
                    "midi": 57,
                    "time": 32.126111999999985,
                    "velocity": 0.36220472440944884,
                    "duration": 0.055774499999998284
                },
                {
                    "name": "E3",
                    "midi": 52,
                    "time": 32.46075899999998,
                    "velocity": 0.3228346456692913,
                    "duration": 0.055774499999998284
                },
                {
                    "name": "A3",
                    "midi": 57,
                    "time": 32.46075899999998,
                    "velocity": 0.3228346456692913,
                    "duration": 0.055774499999998284
                },
                {
                    "name": "F#3",
                    "midi": 54,
                    "time": 32.57230799999998,
                    "velocity": 0.3228346456692913,
                    "duration": 0.22309800000000024
                },
                {
                    "name": "A3",
                    "midi": 57,
                    "time": 32.57230799999998,
                    "velocity": 0.3228346456692913,
                    "duration": 0.22309800000000024
                },
                {
                    "name": "D3",
                    "midi": 50,
                    "time": 33.01850399999998,
                    "velocity": 0.4330708661417323,
                    "duration": 0.4461960000000005
                },
                {
                    "name": "A3",
                    "midi": 57,
                    "time": 33.01850399999998,
                    "velocity": 0.4330708661417323,
                    "duration": 0.4461960000000005
                },
                {
                    "name": "E3",
                    "midi": 52,
                    "time": 33.46469999999998,
                    "velocity": 0.4409448818897638,
                    "duration": 0.08366174999999743
                },
                {
                    "name": "A3",
                    "midi": 57,
                    "time": 33.46469999999998,
                    "velocity": 0.4409448818897638,
                    "duration": 0.08366174999999743
                },
                {
                    "name": "D#3",
                    "midi": 51,
                    "time": 33.799346999999976,
                    "velocity": 0.3700787401574803,
                    "duration": 0.055774499999998284
                },
                {
                    "name": "A3",
                    "midi": 57,
                    "time": 33.799346999999976,
                    "velocity": 0.3700787401574803,
                    "duration": 0.055774499999998284
                },
                {
                    "name": "E3",
                    "midi": 52,
                    "time": 33.91089599999997,
                    "velocity": 0.3937007874015748,
                    "duration": 0.22309800000000024
                },
                {
                    "name": "A3",
                    "midi": 57,
                    "time": 33.91089599999997,
                    "velocity": 0.3937007874015748,
                    "duration": 0.22309800000000024
                },
                {
                    "name": "A3",
                    "midi": 57,
                    "time": 34.35709199999997,
                    "velocity": 0.4094488188976378,
                    "duration": 0.4461960000000005
                },
                {
                    "name": "G3",
                    "midi": 55,
                    "time": 34.35709199999997,
                    "velocity": 0.4094488188976378,
                    "duration": 0.4461960000000005
                },
                {
                    "name": "A3",
                    "midi": 57,
                    "time": 34.803287999999974,
                    "velocity": 0.3543307086614173,
                    "duration": 0.2454078000000024
                },
                {
                    "name": "F#3",
                    "midi": 54,
                    "time": 34.803287999999974,
                    "velocity": 0.3543307086614173,
                    "duration": 0.892392000000001
                },
                {
                    "name": "B3",
                    "midi": 59,
                    "time": 35.026385999999974,
                    "velocity": 0.3543307086614173,
                    "duration": 0.2454078000000024
                },
                {
                    "name": "C#4",
                    "midi": 61,
                    "time": 35.249483999999974,
                    "velocity": 0.36220472440944884,
                    "duration": 0.2454078000000024
                },
                {
                    "name": "D4",
                    "midi": 62,
                    "time": 35.472581999999974,
                    "velocity": 0.3700787401574803,
                    "duration": 0.22309800000000024
                },
                {
                    "name": "G3",
                    "midi": 55,
                    "time": 35.695679999999975,
                    "velocity": 0.3779527559055118,
                    "duration": 0.4461960000000005
                },
                {
                    "name": "D4",
                    "midi": 62,
                    "time": 35.695679999999975,
                    "velocity": 0.3779527559055118,
                    "duration": 0.2454078000000024
                },
                {
                    "name": "E4",
                    "midi": 64,
                    "time": 35.918777999999975,
                    "velocity": 0.3858267716535433,
                    "duration": 0.2454078000000024
                },
                {
                    "name": "A3",
                    "midi": 57,
                    "time": 36.141875999999975,
                    "velocity": 0.3937007874015748,
                    "duration": 1.3385880000000014
                },
                {
                    "name": "F#4",
                    "midi": 66,
                    "time": 36.141875999999975,
                    "velocity": 0.3937007874015748,
                    "duration": 0.2454078000000024
                },
                {
                    "name": "G4",
                    "midi": 67,
                    "time": 36.364973999999975,
                    "velocity": 0.3700787401574803,
                    "duration": 0.2454078000000024
                },
                {
                    "name": "G4",
                    "midi": 67,
                    "time": 37.034267999999976,
                    "velocity": 0.3228346456692913,
                    "duration": 0.8923919999999939
                },
                {
                    "name": "D4",
                    "midi": 62,
                    "time": 37.48046399999998,
                    "velocity": 0.33858267716535434,
                    "duration": 0.8923919999999868
                },
                {
                    "name": "F#4",
                    "midi": 66,
                    "time": 37.92665999999997,
                    "velocity": 0.2755905511811024,
                    "duration": 0.3346469999999968
                },
                {
                    "name": "A3",
                    "midi": 57,
                    "time": 38.37285599999996,
                    "velocity": 0.3228346456692913,
                    "duration": 0.4461960000000005
                },
                {
                    "name": "E4",
                    "midi": 64,
                    "time": 38.37285599999996,
                    "velocity": 0.3228346456692913,
                    "duration": 0.2454078000000024
                },
                {
                    "name": "F#4",
                    "midi": 66,
                    "time": 38.59595399999996,
                    "velocity": 0.3228346456692913,
                    "duration": 0.2454078000000024
                },
                {
                    "name": "B3",
                    "midi": 59,
                    "time": 38.819051999999964,
                    "velocity": 0.31496062992125984,
                    "duration": 0.892392000000001
                },
                {
                    "name": "G4",
                    "midi": 67,
                    "time": 38.819051999999964,
                    "velocity": 0.3464566929133858,
                    "duration": 0.2454078000000024
                },
                {
                    "name": "A4",
                    "midi": 69,
                    "time": 39.042149999999964,
                    "velocity": 0.3228346456692913,
                    "duration": 0.2454078000000024
                },
                {
                    "name": "G4",
                    "midi": 67,
                    "time": 39.265247999999964,
                    "velocity": 0.3228346456692913,
                    "duration": 0.2454078000000024
                },
                {
                    "name": "F#4",
                    "midi": 66,
                    "time": 39.488345999999964,
                    "velocity": 0.30708661417322836,
                    "duration": 0.2454078000000024
                },
                {
                    "name": "B3",
                    "midi": 59,
                    "time": 39.711443999999965,
                    "velocity": 0.31496062992125984,
                    "duration": 0.4461960000000005
                },
                {
                    "name": "G4",
                    "midi": 67,
                    "time": 39.711443999999965,
                    "velocity": 0.3228346456692913,
                    "duration": 0.2454078000000024
                },
                {
                    "name": "F#4",
                    "midi": 66,
                    "time": 39.934541999999965,
                    "velocity": 0.3464566929133858,
                    "duration": 0.2454078000000024
                },
                {
                    "name": "C4",
                    "midi": 60,
                    "time": 40.157639999999965,
                    "velocity": 0.36220472440944884,
                    "duration": 0.2454078000000024
                },
                {
                    "name": "E4",
                    "midi": 64,
                    "time": 40.157639999999965,
                    "velocity": 0.36220472440944884,
                    "duration": 0.892392000000001
                },
                {
                    "name": "B3",
                    "midi": 59,
                    "time": 40.380737999999965,
                    "velocity": 0.33858267716535434,
                    "duration": 0.2454078000000024
                },
                {
                    "name": "A3",
                    "midi": 57,
                    "time": 40.603835999999966,
                    "velocity": 0.33070866141732286,
                    "duration": 0.2454078000000024
                },
                {
                    "name": "G3",
                    "midi": 55,
                    "time": 40.826933999999966,
                    "velocity": 0.3228346456692913,
                    "duration": 0.22309800000000024
                },
                {
                    "name": "G3",
                    "midi": 55,
                    "time": 41.050031999999966,
                    "velocity": 0.3464566929133858,
                    "duration": 0.2454078000000024
                },
                {
                    "name": "D4",
                    "midi": 62,
                    "time": 41.050031999999966,
                    "velocity": 0.3464566929133858,
                    "duration": 0.892392000000001
                },
                {
                    "name": "F#3",
                    "midi": 54,
                    "time": 41.273129999999966,
                    "velocity": 0.33858267716535434,
                    "duration": 0.2454078000000024
                },
                {
                    "name": "G3",
                    "midi": 55,
                    "time": 41.49622799999997,
                    "velocity": 0.33858267716535434,
                    "duration": 0.2454078000000024
                },
                {
                    "name": "F#3",
                    "midi": 54,
                    "time": 41.71932599999997,
                    "velocity": 0.33070866141732286,
                    "duration": 0.2454078000000024
                },
                {
                    "name": "E3",
                    "midi": 52,
                    "time": 41.94242399999997,
                    "velocity": 0.3228346456692913,
                    "duration": 0.2454078000000024
                },
                {
                    "name": "C4",
                    "midi": 60,
                    "time": 41.94242399999997,
                    "velocity": 0.3228346456692913,
                    "duration": 0.4461960000000005
                },
                {
                    "name": "F#3",
                    "midi": 54,
                    "time": 42.16552199999997,
                    "velocity": 0.31496062992125984,
                    "duration": 0.2454078000000024
                },
                {
                    "name": "G3",
                    "midi": 55,
                    "time": 42.38861999999997,
                    "velocity": 0.3228346456692913,
                    "duration": 0.2454078000000024
                },
                {
                    "name": "B3",
                    "midi": 59,
                    "time": 42.38861999999997,
                    "velocity": 0.3228346456692913,
                    "duration": 0.4461960000000005
                },
                {
                    "name": "D3",
                    "midi": 50,
                    "time": 42.61171799999997,
                    "velocity": 0.3228346456692913,
                    "duration": 0.22309800000000024
                },
                {
                    "name": "G3",
                    "midi": 55,
                    "time": 42.83481599999997,
                    "velocity": 0.28346456692913385,
                    "duration": 0.22309800000000024
                },
                {
                    "name": "D3",
                    "midi": 50,
                    "time": 42.83481599999997,
                    "velocity": 0.28346456692913385,
                    "duration": 0.892392000000001
                },
                {
                    "name": "A3",
                    "midi": 57,
                    "time": 42.83481599999997,
                    "velocity": 0.28346456692913385,
                    "duration": 0.9816312000000025
                },
                {
                    "name": "F#3",
                    "midi": 54,
                    "time": 43.05791399999997,
                    "velocity": 0.2755905511811024,
                    "duration": 0.2454078000000024
                },
                {
                    "name": "E3",
                    "midi": 52,
                    "time": 43.28101199999997,
                    "velocity": 0.2677165354330709,
                    "duration": 0.2454078000000024
                },
                {
                    "name": "D3",
                    "midi": 50,
                    "time": 43.50410999999997,
                    "velocity": 0.25196850393700787,
                    "duration": 0.22309800000000024
                },
                {
                    "name": "D3",
                    "midi": 50,
                    "time": 43.72720799999997,
                    "velocity": 0.31496062992125984,
                    "duration": 0.22309800000000024
                },
                {
                    "name": "A3",
                    "midi": 57,
                    "time": 43.72720799999997,
                    "velocity": 0.31496062992125984,
                    "duration": 0.4461960000000005
                },
                {
                    "name": "D#3",
                    "midi": 51,
                    "time": 43.95030599999997,
                    "velocity": 0.33858267716535434,
                    "duration": 0.22309800000000024
                },
                {
                    "name": "E3",
                    "midi": 52,
                    "time": 44.17340399999997,
                    "velocity": 0.3464566929133858,
                    "duration": 0.055774499999998284
                },
                {
                    "name": "A3",
                    "midi": 57,
                    "time": 44.17340399999997,
                    "velocity": 0.3464566929133858,
                    "duration": 0.055774499999998284
                },
                {
                    "name": "D#3",
                    "midi": 51,
                    "time": 44.508050999999966,
                    "velocity": 0.30708661417322836,
                    "duration": 0.055774499999998284
                },
                {
                    "name": "A3",
                    "midi": 57,
                    "time": 44.508050999999966,
                    "velocity": 0.30708661417322836,
                    "duration": 0.055774499999998284
                },
                {
                    "name": "E3",
                    "midi": 52,
                    "time": 44.61959999999996,
                    "velocity": 0.33858267716535434,
                    "duration": 0.22309800000000024
                },
                {
                    "name": "A3",
                    "midi": 57,
                    "time": 44.61959999999996,
                    "velocity": 0.33858267716535434,
                    "duration": 0.22309800000000024
                },
                {
                    "name": "G3",
                    "midi": 55,
                    "time": 45.06579599999996,
                    "velocity": 0.3464566929133858,
                    "duration": 0.4461960000000005
                },
                {
                    "name": "A3",
                    "midi": 57,
                    "time": 45.06579599999996,
                    "velocity": 0.3464566929133858,
                    "duration": 0.4461960000000005
                },
                {
                    "name": "F#3",
                    "midi": 54,
                    "time": 45.511991999999964,
                    "velocity": 0.3464566929133858,
                    "duration": 0.055774499999998284
                },
                {
                    "name": "A3",
                    "midi": 57,
                    "time": 45.511991999999964,
                    "velocity": 0.3464566929133858,
                    "duration": 0.055774499999998284
                },
                {
                    "name": "F3",
                    "midi": 53,
                    "time": 45.84663899999996,
                    "velocity": 0.2992125984251969,
                    "duration": 0.055774499999998284
                },
                {
                    "name": "A3",
                    "midi": 57,
                    "time": 45.84663899999996,
                    "velocity": 0.2992125984251969,
                    "duration": 0.055774499999998284
                },
                {
                    "name": "F#3",
                    "midi": 54,
                    "time": 45.95818799999996,
                    "velocity": 0.33858267716535434,
                    "duration": 0.22309800000000024
                },
                {
                    "name": "A3",
                    "midi": 57,
                    "time": 45.95818799999996,
                    "velocity": 0.33858267716535434,
                    "duration": 0.22309800000000024
                },
                {
                    "name": "F#3",
                    "midi": 54,
                    "time": 46.40438399999996,
                    "velocity": 0.3464566929133858,
                    "duration": 0.4461960000000005
                },
                {
                    "name": "A3",
                    "midi": 57,
                    "time": 46.40438399999996,
                    "velocity": 0.3464566929133858,
                    "duration": 0.4461960000000005
                },
                {
                    "name": "E3",
                    "midi": 52,
                    "time": 46.85057999999996,
                    "velocity": 0.3464566929133858,
                    "duration": 0.055774499999998284
                },
                {
                    "name": "A3",
                    "midi": 57,
                    "time": 46.85057999999996,
                    "velocity": 0.3464566929133858,
                    "duration": 0.055774499999998284
                },
                {
                    "name": "D3",
                    "midi": 50,
                    "time": 47.185226999999955,
                    "velocity": 0.3228346456692913,
                    "duration": 0.055774499999998284
                },
                {
                    "name": "A3",
                    "midi": 57,
                    "time": 47.185226999999955,
                    "velocity": 0.3228346456692913,
                    "duration": 0.055774499999998284
                },
                {
                    "name": "C#3",
                    "midi": 49,
                    "time": 47.29677599999995,
                    "velocity": 0.3464566929133858,
                    "duration": 0.22309800000000024
                },
                {
                    "name": "A3",
                    "midi": 57,
                    "time": 47.29677599999995,
                    "velocity": 0.3464566929133858,
                    "duration": 0.22309800000000024
                },
                {
                    "name": "A2",
                    "midi": 45,
                    "time": 47.74297199999995,
                    "velocity": 0.3779527559055118,
                    "duration": 0.22309800000000024
                },
                {
                    "name": "A3",
                    "midi": 57,
                    "time": 47.74297199999995,
                    "velocity": 0.3779527559055118,
                    "duration": 0.4461960000000005
                },
                {
                    "name": "C#3",
                    "midi": 49,
                    "time": 47.96606999999995,
                    "velocity": 0.3779527559055118,
                    "duration": 0.22309800000000024
                },
                {
                    "name": "D3",
                    "midi": 50,
                    "time": 48.18916799999995,
                    "velocity": 0.36220472440944884,
                    "duration": 0.055774499999998284
                },
                {
                    "name": "A3",
                    "midi": 57,
                    "time": 48.18916799999995,
                    "velocity": 0.36220472440944884,
                    "duration": 0.055774499999998284
                },
                {
                    "name": "E3",
                    "midi": 52,
                    "time": 48.52381499999995,
                    "velocity": 0.33070866141732286,
                    "duration": 0.055774499999998284
                },
                {
                    "name": "A3",
                    "midi": 57,
                    "time": 48.52381499999995,
                    "velocity": 0.33070866141732286,
                    "duration": 0.055774499999998284
                },
                {
                    "name": "F#3",
                    "midi": 54,
                    "time": 48.635363999999946,
                    "velocity": 0.33070866141732286,
                    "duration": 0.22309800000000024
                },
                {
                    "name": "A3",
                    "midi": 57,
                    "time": 48.635363999999946,
                    "velocity": 0.33070866141732286,
                    "duration": 0.22309800000000024
                },
                {
                    "name": "D3",
                    "midi": 50,
                    "time": 49.081559999999946,
                    "velocity": 0.4330708661417323,
                    "duration": 0.4461960000000005
                },
                {
                    "name": "A3",
                    "midi": 57,
                    "time": 49.081559999999946,
                    "velocity": 0.4330708661417323,
                    "duration": 0.4461960000000005
                },
                {
                    "name": "E3",
                    "midi": 52,
                    "time": 49.52775599999995,
                    "velocity": 0.4409448818897638,
                    "duration": 0.08366174999999743
                },
                {
                    "name": "A3",
                    "midi": 57,
                    "time": 49.52775599999995,
                    "velocity": 0.4409448818897638,
                    "duration": 0.08366174999999743
                },
                {
                    "name": "D#3",
                    "midi": 51,
                    "time": 49.862402999999944,
                    "velocity": 0.3700787401574803,
                    "duration": 0.055774499999998284
                },
                {
                    "name": "A3",
                    "midi": 57,
                    "time": 49.862402999999944,
                    "velocity": 0.3700787401574803,
                    "duration": 0.055774499999998284
                },
                {
                    "name": "E3",
                    "midi": 52,
                    "time": 49.97395199999994,
                    "velocity": 0.4094488188976378,
                    "duration": 0.22309800000000024
                },
                {
                    "name": "A3",
                    "midi": 57,
                    "time": 49.97395199999994,
                    "velocity": 0.4094488188976378,
                    "duration": 0.22309800000000024
                },
                {
                    "name": "A3",
                    "midi": 57,
                    "time": 50.42014799999994,
                    "velocity": 0.4094488188976378,
                    "duration": 0.4461960000000005
                },
                {
                    "name": "G3",
                    "midi": 55,
                    "time": 50.42014799999994,
                    "velocity": 0.4094488188976378,
                    "duration": 0.4461960000000005
                },
                {
                    "name": "A3",
                    "midi": 57,
                    "time": 50.86634399999994,
                    "velocity": 0.3543307086614173,
                    "duration": 0.2454078000000024
                },
                {
                    "name": "F#3",
                    "midi": 54,
                    "time": 50.86634399999994,
                    "velocity": 0.3543307086614173,
                    "duration": 0.892392000000001
                },
                {
                    "name": "B3",
                    "midi": 59,
                    "time": 51.08944199999994,
                    "velocity": 0.3543307086614173,
                    "duration": 0.2454078000000024
                },
                {
                    "name": "C#4",
                    "midi": 61,
                    "time": 51.31253999999994,
                    "velocity": 0.36220472440944884,
                    "duration": 0.2454078000000024
                },
                {
                    "name": "D4",
                    "midi": 62,
                    "time": 51.53563799999994,
                    "velocity": 0.3700787401574803,
                    "duration": 0.22309800000000024
                },
                {
                    "name": "G3",
                    "midi": 55,
                    "time": 51.75873599999994,
                    "velocity": 0.3779527559055118,
                    "duration": 0.4461960000000005
                },
                {
                    "name": "D4",
                    "midi": 62,
                    "time": 51.75873599999994,
                    "velocity": 0.3779527559055118,
                    "duration": 0.2454078000000024
                },
                {
                    "name": "E4",
                    "midi": 64,
                    "time": 51.98183399999994,
                    "velocity": 0.3858267716535433,
                    "duration": 0.2454078000000024
                },
                {
                    "name": "A3",
                    "midi": 57,
                    "time": 52.20493199999994,
                    "velocity": 0.3937007874015748,
                    "duration": 1.3385880000000014
                },
                {
                    "name": "F#4",
                    "midi": 66,
                    "time": 52.20493199999994,
                    "velocity": 0.3937007874015748,
                    "duration": 0.2454078000000024
                },
                {
                    "name": "G4",
                    "midi": 67,
                    "time": 52.42802999999994,
                    "velocity": 0.3700787401574803,
                    "duration": 0.2454078000000024
                },
                {
                    "name": "G4",
                    "midi": 67,
                    "time": 53.097323999999944,
                    "velocity": 0.3228346456692913,
                    "duration": 0.8923919999999939
                },
                {
                    "name": "D4",
                    "midi": 62,
                    "time": 53.543519999999944,
                    "velocity": 0.33858267716535434,
                    "duration": 0.8923919999999939
                },
                {
                    "name": "F#4",
                    "midi": 66,
                    "time": 53.98971599999994,
                    "velocity": 0.2755905511811024,
                    "duration": 0.4461960000000005
                }
            ],
            "controlChanges": {
                "7": [
                    {
                        "number": 7,
                        "time": 0,
                        "value": 0.7874015748031497
                    }
                ],
                "10": [
                    {
                        "number": 10,
                        "time": 0,
                        "value": 0.5039370078740157
                    }
                ],
                "64": [
                    {
                        "number": 64,
                        "time": 0,
                        "value": 0
                    },
                    {
                        "number": 64,
                        "time": 0.8923920000000001,
                        "value": 1
                    },
                    {
                        "number": 64,
                        "time": 1.3562499250000002,
                        "value": 0
                    },
                    {
                        "number": 64,
                        "time": 2.2467827750000007,
                        "value": 1
                    },
                    {
                        "number": 64,
                        "time": 2.6957675000000005,
                        "value": 0
                    },
                    {
                        "number": 64,
                        "time": 3.5853707750000012,
                        "value": 1
                    },
                    {
                        "number": 64,
                        "time": 4.035285075000002,
                        "value": 0
                    },
                    {
                        "number": 64,
                        "time": 4.914663025000003,
                        "value": 1
                    },
                    {
                        "number": 64,
                        "time": 5.373873075000003,
                        "value": 0
                    },
                    {
                        "number": 64,
                        "time": 6.246744000000004,
                        "value": 1
                    },
                    {
                        "number": 64,
                        "time": 6.710601925000003,
                        "value": 0
                    },
                    {
                        "number": 64,
                        "time": 7.606712225000003,
                        "value": 1
                    },
                    {
                        "number": 64,
                        "time": 8.048260350000003,
                        "value": 0
                    },
                    {
                        "number": 64,
                        "time": 10.708704000000004,
                        "value": 1
                    },
                    {
                        "number": 64,
                        "time": 11.163266175000006,
                        "value": 0
                    },
                    {
                        "number": 64,
                        "time": 11.601096000000005,
                        "value": 1
                    },
                    {
                        "number": 64,
                        "time": 12.065883500000005,
                        "value": 0
                    },
                    {
                        "number": 64,
                        "time": 12.966641675000007,
                        "value": 1
                    },
                    {
                        "number": 64,
                        "time": 13.407260225000007,
                        "value": 0
                    },
                    {
                        "number": 64,
                        "time": 14.278272000000008,
                        "value": 1
                    },
                    {
                        "number": 64,
                        "time": 14.743989075000009,
                        "value": 0
                    },
                    {
                        "number": 64,
                        "time": 15.63638107500001,
                        "value": 1
                    },
                    {
                        "number": 64,
                        "time": 16.08164750000001,
                        "value": 0
                    },
                    {
                        "number": 64,
                        "time": 16.981476100000005,
                        "value": 1
                    },
                    {
                        "number": 64,
                        "time": 17.419305925000003,
                        "value": 0
                    },
                    {
                        "number": 64,
                        "time": 18.320993674999997,
                        "value": 1
                    },
                    {
                        "number": 64,
                        "time": 18.761612224999997,
                        "value": 0
                    },
                    {
                        "number": 64,
                        "time": 21.417407999999995,
                        "value": 1
                    },
                    {
                        "number": 64,
                        "time": 21.865463149999997,
                        "value": 0
                    },
                    {
                        "number": 64,
                        "time": 27.657644975,
                        "value": 1
                    },
                    {
                        "number": 64,
                        "time": 28.122432475000004,
                        "value": 0
                    },
                    {
                        "number": 64,
                        "time": 29.024120225,
                        "value": 1
                    },
                    {
                        "number": 64,
                        "time": 29.4675275,
                        "value": 0
                    },
                    {
                        "number": 64,
                        "time": 30.368285674999992,
                        "value": 1
                    },
                    {
                        "number": 64,
                        "time": 30.80611549999999,
                        "value": 0
                    },
                    {
                        "number": 64,
                        "time": 31.679915999999984,
                        "value": 1
                    },
                    {
                        "number": 64,
                        "time": 32.143773924999984,
                        "value": 0
                    },
                    {
                        "number": 64,
                        "time": 33.03802507499998,
                        "value": 1
                    },
                    {
                        "number": 64,
                        "time": 33.48050277499998,
                        "value": 0
                    },
                    {
                        "number": 64,
                        "time": 34.36731732499997,
                        "value": 1
                    },
                    {
                        "number": 64,
                        "time": 34.803287999999974,
                        "value": 0
                    },
                    {
                        "number": 64,
                        "time": 37.59201299999997,
                        "value": 1
                    },
                    {
                        "number": 64,
                        "time": 37.94618107499997,
                        "value": 0
                    },
                    {
                        "number": 64,
                        "time": 43.74022204999997,
                        "value": 1
                    },
                    {
                        "number": 64,
                        "time": 44.18455889999997,
                        "value": 0
                    },
                    {
                        "number": 64,
                        "time": 45.10297899999996,
                        "value": 1
                    },
                    {
                        "number": 64,
                        "time": 45.524076474999966,
                        "value": 0
                    },
                    {
                        "number": 64,
                        "time": 46.41460932499996,
                        "value": 1
                    },
                    {
                        "number": 64,
                        "time": 46.86173489999996,
                        "value": 0
                    },
                    {
                        "number": 64,
                        "time": 47.76249307499995,
                        "value": 1
                    },
                    {
                        "number": 64,
                        "time": 48.20404119999995,
                        "value": 0
                    },
                    {
                        "number": 64,
                        "time": 49.10108107499995,
                        "value": 1
                    },
                    {
                        "number": 64,
                        "time": 49.543558774999944,
                        "value": 0
                    },
                    {
                        "number": 64,
                        "time": 53.65506899999994,
                        "value": 1
                    },
                    {
                        "number": 64,
                        "time": 53.96461747499994,
                        "value": 0
                    }
                ],
                "91": [
                    {
                        "number": 91,
                        "time": 0.8914624250000001,
                        "value": 1
                    },
                    {
                        "number": 91,
                        "time": 11.601096000000005,
                        "value": 1
                    }
                ]
            },
            "id": 2,
            "name": "Piano left",
            "instrumentNumber": 0,
            "instrument": "acoustic grand piano",
            "instrumentFamily": "piano",
            "channelNumber": 0,
            "isPercussion": false
        },
        {
            "startTime": 0,
            "duration": 0,
            "length": 0,
            "notes": [],
            "controlChanges": {},
            "id": 3,
            "name": "Schumann: Scenes from Childhood Op. 15"
        },
        {
            "startTime": 0,
            "duration": 0,
            "length": 0,
            "notes": [],
            "controlChanges": {},
            "id": 4,
            "name": "Copyright  1997 by Bernd Krueger"
        },
        {
            "startTime": 0,
            "duration": 0,
            "length": 0,
            "notes": [],
            "controlChanges": {},
            "id": 5,
            "name": "http://www.piano-midi.de"
        },
        {
            "startTime": 0,
            "duration": 0,
            "length": 0,
            "notes": [],
            "controlChanges": {},
            "id": 6,
            "name": "Edition:2014-03-26"
        }
    ]
}