{
    "header": {
        "PPQ": 480,
        "timeSignature": [
            2,
            4
        ],
        "bpm": 97.6000156160025,
        "name": "Fantasien"
    },
    "startTime": 0,
    "duration": 148.46309100000042,
    "tracks": [
        {
            "startTime": 0,
            "duration": 0,
            "length": 0,
            "notes": [],
            "controlChanges": {},
            "id": 0,
            "name": "Fantasien"
        },
        {
            "startTime": 1.0758195000000002,
            "duration": 148.46309100000042,
            "length": 1419,
            "notes": [
                {
                    "name": "A3",
                    "midi": 57,
                    "time": 1.0758195000000002,
                    "velocity": 0.3700787401574803,
                    "duration": 0.1536884999999999
                },
                {
                    "name": "A#3",
                    "midi": 58,
                    "time": 1.229508,
                    "velocity": 0.49606299212598426,
                    "duration": 0.10245900000000008
                },
                {
                    "name": "E3",
                    "midi": 52,
                    "time": 1.3319670000000001,
                    "velocity": 0.36220472440944884,
                    "duration": 0.10245900000000008
                },
                {
                    "name": "C#4",
                    "midi": 61,
                    "time": 1.4344260000000002,
                    "velocity": 0.36220472440944884,
                    "duration": 0.10245900000000008
                },
                {
                    "name": "E4",
                    "midi": 64,
                    "time": 1.5368850000000003,
                    "velocity": 0.49606299212598426,
                    "duration": 0.10245900000000008
                },
                {
                    "name": "G3",
                    "midi": 55,
                    "time": 1.6393440000000004,
                    "velocity": 0.3700787401574803,
                    "duration": 0.10245900000000008
                },
                {
                    "name": "A3",
                    "midi": 57,
                    "time": 1.7418030000000004,
                    "velocity": 0.3700787401574803,
                    "duration": 0.10245900000000008
                },
                {
                    "name": "A#3",
                    "midi": 58,
                    "time": 1.8442620000000005,
                    "velocity": 0.49606299212598426,
                    "duration": 0.10245900000000008
                },
                {
                    "name": "F3",
                    "midi": 53,
                    "time": 1.9467210000000006,
                    "velocity": 0.3779527559055118,
                    "duration": 0.10245900000000008
                },
                {
                    "name": "D4",
                    "midi": 62,
                    "time": 2.0491800000000007,
                    "velocity": 0.3779527559055118,
                    "duration": 0.10245900000000008
                },
                {
                    "name": "F4",
                    "midi": 65,
                    "time": 2.1516390000000007,
                    "velocity": 0.4881889763779528,
                    "duration": 0.10245900000000008
                },
                {
                    "name": "A3",
                    "midi": 57,
                    "time": 2.254098000000001,
                    "velocity": 0.3700787401574803,
                    "duration": 0.10245900000000008
                },
                {
                    "name": "C4",
                    "midi": 60,
                    "time": 2.356557000000001,
                    "velocity": 0.3700787401574803,
                    "duration": 0.10245900000000008
                },
                {
                    "name": "C#4",
                    "midi": 61,
                    "time": 2.459016000000001,
                    "velocity": 0.4881889763779528,
                    "duration": 0.10245900000000008
                },
                {
                    "name": "G3",
                    "midi": 55,
                    "time": 2.561475000000001,
                    "velocity": 0.3700787401574803,
                    "duration": 0.10245900000000008
                },
                {
                    "name": "E4",
                    "midi": 64,
                    "time": 2.663934000000001,
                    "velocity": 0.3700787401574803,
                    "duration": 0.10245900000000008
                },
                {
                    "name": "G4",
                    "midi": 67,
                    "time": 2.766393000000001,
                    "velocity": 0.4881889763779528,
                    "duration": 0.10245900000000008
                },
                {
                    "name": "A#3",
                    "midi": 58,
                    "time": 2.8688520000000013,
                    "velocity": 0.3700787401574803,
                    "duration": 0.10245900000000008
                },
                {
                    "name": "D4",
                    "midi": 62,
                    "time": 2.9713110000000014,
                    "velocity": 0.3700787401574803,
                    "duration": 0.10245900000000008
                },
                {
                    "name": "D#4",
                    "midi": 63,
                    "time": 3.0737700000000014,
                    "velocity": 0.4881889763779528,
                    "duration": 0.10245900000000008
                },
                {
                    "name": "A3",
                    "midi": 57,
                    "time": 3.1762290000000015,
                    "velocity": 0.36220472440944884,
                    "duration": 0.10245900000000008
                },
                {
                    "name": "A4",
                    "midi": 69,
                    "time": 3.2786880000000016,
                    "velocity": 0.3700787401574803,
                    "duration": 0.10245900000000008
                },
                {
                    "name": "C5",
                    "midi": 72,
                    "time": 3.3811470000000017,
                    "velocity": 0.4881889763779528,
                    "duration": 0.10245900000000008
                },
                {
                    "name": "C4",
                    "midi": 60,
                    "time": 3.4836060000000018,
                    "velocity": 0.3779527559055118,
                    "duration": 0.10245900000000008
                },
                {
                    "name": "D4",
                    "midi": 62,
                    "time": 3.586065000000002,
                    "velocity": 0.3858267716535433,
                    "duration": 0.10245900000000008
                },
                {
                    "name": "D#4",
                    "midi": 63,
                    "time": 3.688524000000002,
                    "velocity": 0.5118110236220472,
                    "duration": 0.10245900000000008
                },
                {
                    "name": "A#3",
                    "midi": 58,
                    "time": 3.790983000000002,
                    "velocity": 0.3858267716535433,
                    "duration": 0.10245900000000008
                },
                {
                    "name": "G4",
                    "midi": 67,
                    "time": 3.893442000000002,
                    "velocity": 0.3858267716535433,
                    "duration": 0.10245900000000008
                },
                {
                    "name": "A#4",
                    "midi": 70,
                    "time": 3.995901000000002,
                    "velocity": 0.5118110236220472,
                    "duration": 0.10245900000000008
                },
                {
                    "name": "D4",
                    "midi": 62,
                    "time": 4.098360000000002,
                    "velocity": 0.3937007874015748,
                    "duration": 0.10245899999999963
                },
                {
                    "name": "E4",
                    "midi": 64,
                    "time": 4.200819000000002,
                    "velocity": 0.3937007874015748,
                    "duration": 0.10245899999999963
                },
                {
                    "name": "F4",
                    "midi": 65,
                    "time": 4.3032780000000015,
                    "velocity": 0.5275590551181102,
                    "duration": 0.10245899999999963
                },
                {
                    "name": "B3",
                    "midi": 59,
                    "time": 4.405737000000001,
                    "velocity": 0.4015748031496063,
                    "duration": 0.10245899999999963
                },
                {
                    "name": "B4",
                    "midi": 71,
                    "time": 4.508196000000001,
                    "velocity": 0.4015748031496063,
                    "duration": 0.10245899999999963
                },
                {
                    "name": "D5",
                    "midi": 74,
                    "time": 4.610655,
                    "velocity": 0.5275590551181102,
                    "duration": 0.10245899999999963
                },
                {
                    "name": "F4",
                    "midi": 65,
                    "time": 4.713114,
                    "velocity": 0.4094488188976378,
                    "duration": 0.10245899999999963
                },
                {
                    "name": "G4",
                    "midi": 67,
                    "time": 4.815573,
                    "velocity": 0.4094488188976378,
                    "duration": 0.10245899999999963
                },
                {
                    "name": "G#4",
                    "midi": 68,
                    "time": 4.918031999999999,
                    "velocity": 0.5433070866141733,
                    "duration": 0.10245899999999963
                },
                {
                    "name": "D4",
                    "midi": 62,
                    "time": 5.020490999999999,
                    "velocity": 0.4094488188976378,
                    "duration": 0.10245899999999963
                },
                {
                    "name": "D5",
                    "midi": 74,
                    "time": 5.122949999999999,
                    "velocity": 0.4409448818897638,
                    "duration": 0.10245899999999963
                },
                {
                    "name": "F5",
                    "midi": 77,
                    "time": 5.225408999999998,
                    "velocity": 0.5590551181102362,
                    "duration": 0.10245899999999963
                },
                {
                    "name": "F4",
                    "midi": 65,
                    "time": 5.327867999999998,
                    "velocity": 0.44881889763779526,
                    "duration": 0.10245899999999963
                },
                {
                    "name": "G#4",
                    "midi": 68,
                    "time": 5.4303269999999975,
                    "velocity": 0.4645669291338583,
                    "duration": 0.10245899999999963
                },
                {
                    "name": "A4",
                    "midi": 69,
                    "time": 5.532785999999997,
                    "velocity": 0.5984251968503937,
                    "duration": 0.10245899999999963
                },
                {
                    "name": "E4",
                    "midi": 64,
                    "time": 5.635244999999997,
                    "velocity": 0.49606299212598426,
                    "duration": 0.10245899999999963
                },
                {
                    "name": "C#5",
                    "midi": 73,
                    "time": 5.737703999999996,
                    "velocity": 0.49606299212598426,
                    "duration": 0.10245899999999963
                },
                {
                    "name": "E5",
                    "midi": 76,
                    "time": 5.840162999999996,
                    "velocity": 0.6062992125984252,
                    "duration": 0.10245899999999963
                },
                {
                    "name": "G4",
                    "midi": 67,
                    "time": 5.942621999999996,
                    "velocity": 0.5196850393700787,
                    "duration": 0.10245899999999963
                },
                {
                    "name": "A4",
                    "midi": 69,
                    "time": 6.045080999999995,
                    "velocity": 0.5275590551181102,
                    "duration": 0.10245899999999963
                },
                {
                    "name": "A#4",
                    "midi": 70,
                    "time": 6.147539999999995,
                    "velocity": 0.6377952755905512,
                    "duration": 0.10245899999999963
                },
                {
                    "name": "E4",
                    "midi": 64,
                    "time": 6.2499989999999945,
                    "velocity": 0.49606299212598426,
                    "duration": 0.10245899999999963
                },
                {
                    "name": "C#5",
                    "midi": 73,
                    "time": 6.352457999999994,
                    "velocity": 0.4645669291338583,
                    "duration": 0.10245899999999963
                },
                {
                    "name": "E5",
                    "midi": 76,
                    "time": 6.454916999999994,
                    "velocity": 0.49606299212598426,
                    "duration": 0.10245899999999963
                },
                {
                    "name": "G4",
                    "midi": 67,
                    "time": 6.557375999999993,
                    "velocity": 0.3700787401574803,
                    "duration": 0.10245899999999963
                },
                {
                    "name": "A4",
                    "midi": 69,
                    "time": 6.659834999999993,
                    "velocity": 0.3700787401574803,
                    "duration": 0.10245899999999963
                },
                {
                    "name": "A#4",
                    "midi": 70,
                    "time": 6.762293999999993,
                    "velocity": 0.49606299212598426,
                    "duration": 0.10245899999999963
                },
                {
                    "name": "F4",
                    "midi": 65,
                    "time": 6.864752999999992,
                    "velocity": 0.3779527559055118,
                    "duration": 0.10245899999999963
                },
                {
                    "name": "D5",
                    "midi": 74,
                    "time": 6.967211999999992,
                    "velocity": 0.3779527559055118,
                    "duration": 0.10245899999999963
                },
                {
                    "name": "F5",
                    "midi": 77,
                    "time": 7.069670999999992,
                    "velocity": 0.4881889763779528,
                    "duration": 0.10245899999999963
                },
                {
                    "name": "A4",
                    "midi": 69,
                    "time": 7.172129999999991,
                    "velocity": 0.3700787401574803,
                    "duration": 0.10245899999999963
                },
                {
                    "name": "C5",
                    "midi": 72,
                    "time": 7.274588999999991,
                    "velocity": 0.3700787401574803,
                    "duration": 0.10245899999999963
                },
                {
                    "name": "C#5",
                    "midi": 73,
                    "time": 7.3770479999999905,
                    "velocity": 0.4881889763779528,
                    "duration": 0.10245899999999963
                },
                {
                    "name": "G4",
                    "midi": 67,
                    "time": 7.47950699999999,
                    "velocity": 0.3700787401574803,
                    "duration": 0.10245899999999963
                },
                {
                    "name": "E5",
                    "midi": 76,
                    "time": 7.58196599999999,
                    "velocity": 0.3700787401574803,
                    "duration": 0.10245899999999963
                },
                {
                    "name": "G5",
                    "midi": 79,
                    "time": 7.684424999999989,
                    "velocity": 0.4881889763779528,
                    "duration": 0.10245899999999963
                },
                {
                    "name": "A#4",
                    "midi": 70,
                    "time": 7.786883999999989,
                    "velocity": 0.3700787401574803,
                    "duration": 0.10245899999999963
                },
                {
                    "name": "D5",
                    "midi": 74,
                    "time": 7.889342999999989,
                    "velocity": 0.3700787401574803,
                    "duration": 0.10245899999999963
                },
                {
                    "name": "D#5",
                    "midi": 75,
                    "time": 7.991801999999988,
                    "velocity": 0.4881889763779528,
                    "duration": 0.10245900000000052
                },
                {
                    "name": "A4",
                    "midi": 69,
                    "time": 8.094260999999989,
                    "velocity": 0.36220472440944884,
                    "duration": 0.10245899999999963
                },
                {
                    "name": "A5",
                    "midi": 81,
                    "time": 8.196719999999988,
                    "velocity": 0.3700787401574803,
                    "duration": 0.10245899999999963
                },
                {
                    "name": "C6",
                    "midi": 84,
                    "time": 8.299178999999988,
                    "velocity": 0.4881889763779528,
                    "duration": 0.10245899999999963
                },
                {
                    "name": "C5",
                    "midi": 72,
                    "time": 8.401637999999988,
                    "velocity": 0.3779527559055118,
                    "duration": 0.10245899999999963
                },
                {
                    "name": "D5",
                    "midi": 74,
                    "time": 8.504096999999987,
                    "velocity": 0.3858267716535433,
                    "duration": 0.10245899999999963
                },
                {
                    "name": "D#5",
                    "midi": 75,
                    "time": 8.606555999999987,
                    "velocity": 0.5118110236220472,
                    "duration": 0.10245899999999963
                },
                {
                    "name": "A#4",
                    "midi": 70,
                    "time": 8.709014999999987,
                    "velocity": 0.3858267716535433,
                    "duration": 0.10245899999999963
                },
                {
                    "name": "G5",
                    "midi": 79,
                    "time": 8.811473999999986,
                    "velocity": 0.3858267716535433,
                    "duration": 0.10245899999999963
                },
                {
                    "name": "A#5",
                    "midi": 82,
                    "time": 8.913932999999986,
                    "velocity": 0.5669291338582677,
                    "duration": 0.10245899999999963
                },
                {
                    "name": "D5",
                    "midi": 74,
                    "time": 9.016391999999986,
                    "velocity": 0.44881889763779526,
                    "duration": 0.10245899999999963
                },
                {
                    "name": "E5",
                    "midi": 76,
                    "time": 9.118850999999985,
                    "velocity": 0.44881889763779526,
                    "duration": 0.10245899999999963
                },
                {
                    "name": "F5",
                    "midi": 77,
                    "time": 9.221309999999985,
                    "velocity": 0.5826771653543307,
                    "duration": 0.10245899999999963
                },
                {
                    "name": "B4",
                    "midi": 71,
                    "time": 9.323768999999984,
                    "velocity": 0.44881889763779526,
                    "duration": 0.10245899999999963
                },
                {
                    "name": "D6",
                    "midi": 86,
                    "time": 9.426227999999984,
                    "velocity": 0.44881889763779526,
                    "duration": 0.10245899999999963
                },
                {
                    "name": "F6",
                    "midi": 89,
                    "time": 9.528686999999984,
                    "velocity": 0.5984251968503937,
                    "duration": 0.10245899999999963
                },
                {
                    "name": "F5",
                    "midi": 77,
                    "time": 9.631145999999983,
                    "velocity": 0.48031496062992124,
                    "duration": 0.10245899999999963
                },
                {
                    "name": "B5",
                    "midi": 83,
                    "time": 9.733604999999983,
                    "velocity": 0.48031496062992124,
                    "duration": 0.10245899999999963
                },
                {
                    "name": "C#6",
                    "midi": 85,
                    "time": 9.836063999999983,
                    "velocity": 0.6456692913385826,
                    "duration": 0.10245899999999963
                },
                {
                    "name": "E5",
                    "midi": 76,
                    "time": 9.938522999999982,
                    "velocity": 0.4881889763779528,
                    "duration": 0.10245899999999963
                },
                {
                    "name": "E6",
                    "midi": 88,
                    "time": 10.040981999999982,
                    "velocity": 0.5118110236220472,
                    "duration": 0.10245899999999963
                },
                {
                    "name": "A6",
                    "midi": 93,
                    "time": 10.143440999999981,
                    "velocity": 0.6456692913385826,
                    "duration": 0.10245899999999963
                },
                {
                    "name": "A5",
                    "midi": 81,
                    "time": 10.245899999999981,
                    "velocity": 0.5275590551181102,
                    "duration": 0.10245899999999963
                },
                {
                    "name": "D6",
                    "midi": 86,
                    "time": 10.34835899999998,
                    "velocity": 0.6299212598425197,
                    "duration": 0.10245899999999963
                },
                {
                    "name": "D7",
                    "midi": 98,
                    "time": 10.45081799999998,
                    "velocity": 0.7480314960629921,
                    "duration": 0.3073770000000007
                },
                {
                    "name": "A3",
                    "midi": 57,
                    "time": 10.91188349999998,
                    "velocity": 0.3700787401574803,
                    "duration": 0.15368849999999945
                },
                {
                    "name": "A#3",
                    "midi": 58,
                    "time": 11.06557199999998,
                    "velocity": 0.49606299212598426,
                    "duration": 0.10245899999999963
                },
                {
                    "name": "E3",
                    "midi": 52,
                    "time": 11.16803099999998,
                    "velocity": 0.36220472440944884,
                    "duration": 0.10245899999999963
                },
                {
                    "name": "C#4",
                    "midi": 61,
                    "time": 11.27048999999998,
                    "velocity": 0.36220472440944884,
                    "duration": 0.10245899999999963
                },
                {
                    "name": "E4",
                    "midi": 64,
                    "time": 11.372948999999979,
                    "velocity": 0.49606299212598426,
                    "duration": 0.10245899999999963
                },
                {
                    "name": "G3",
                    "midi": 55,
                    "time": 11.475407999999979,
                    "velocity": 0.3700787401574803,
                    "duration": 0.10245899999999963
                },
                {
                    "name": "A3",
                    "midi": 57,
                    "time": 11.577866999999978,
                    "velocity": 0.3700787401574803,
                    "duration": 0.10245899999999963
                },
                {
                    "name": "A#3",
                    "midi": 58,
                    "time": 11.680325999999978,
                    "velocity": 0.49606299212598426,
                    "duration": 0.10245899999999963
                },
                {
                    "name": "F3",
                    "midi": 53,
                    "time": 11.782784999999977,
                    "velocity": 0.3779527559055118,
                    "duration": 0.10245899999999963
                },
                {
                    "name": "D4",
                    "midi": 62,
                    "time": 11.885243999999977,
                    "velocity": 0.3779527559055118,
                    "duration": 0.10245899999999963
                },
                {
                    "name": "F4",
                    "midi": 65,
                    "time": 11.987702999999977,
                    "velocity": 0.4881889763779528,
                    "duration": 0.10245899999999963
                },
                {
                    "name": "A3",
                    "midi": 57,
                    "time": 12.090161999999976,
                    "velocity": 0.3700787401574803,
                    "duration": 0.10245899999999963
                },
                {
                    "name": "C4",
                    "midi": 60,
                    "time": 12.192620999999976,
                    "velocity": 0.3700787401574803,
                    "duration": 0.10245899999999963
                },
                {
                    "name": "C#4",
                    "midi": 61,
                    "time": 12.295079999999976,
                    "velocity": 0.4881889763779528,
                    "duration": 0.10245899999999963
                },
                {
                    "name": "G3",
                    "midi": 55,
                    "time": 12.397538999999975,
                    "velocity": 0.3700787401574803,
                    "duration": 0.10245899999999963
                },
                {
                    "name": "E4",
                    "midi": 64,
                    "time": 12.499997999999975,
                    "velocity": 0.3700787401574803,
                    "duration": 0.10245899999999963
                },
                {
                    "name": "G4",
                    "midi": 67,
                    "time": 12.602456999999974,
                    "velocity": 0.4881889763779528,
                    "duration": 0.10245899999999963
                },
                {
                    "name": "A#3",
                    "midi": 58,
                    "time": 12.704915999999974,
                    "velocity": 0.3700787401574803,
                    "duration": 0.10245899999999963
                },
                {
                    "name": "D4",
                    "midi": 62,
                    "time": 12.807374999999974,
                    "velocity": 0.3700787401574803,
                    "duration": 0.10245899999999963
                },
                {
                    "name": "D#4",
                    "midi": 63,
                    "time": 12.909833999999973,
                    "velocity": 0.4881889763779528,
                    "duration": 0.10245899999999963
                },
                {
                    "name": "A3",
                    "midi": 57,
                    "time": 13.012292999999973,
                    "velocity": 0.36220472440944884,
                    "duration": 0.10245899999999963
                },
                {
                    "name": "A4",
                    "midi": 69,
                    "time": 13.114751999999973,
                    "velocity": 0.3700787401574803,
                    "duration": 0.10245899999999963
                },
                {
                    "name": "C5",
                    "midi": 72,
                    "time": 13.217210999999972,
                    "velocity": 0.4881889763779528,
                    "duration": 0.10245899999999963
                },
                {
                    "name": "C4",
                    "midi": 60,
                    "time": 13.319669999999972,
                    "velocity": 0.3779527559055118,
                    "duration": 0.10245899999999963
                },
                {
                    "name": "D4",
                    "midi": 62,
                    "time": 13.422128999999972,
                    "velocity": 0.3858267716535433,
                    "duration": 0.10245899999999963
                },
                {
                    "name": "D#4",
                    "midi": 63,
                    "time": 13.524587999999971,
                    "velocity": 0.5118110236220472,
                    "duration": 0.10245899999999963
                },
                {
                    "name": "A#3",
                    "midi": 58,
                    "time": 13.62704699999997,
                    "velocity": 0.3858267716535433,
                    "duration": 0.10245899999999963
                },
                {
                    "name": "G4",
                    "midi": 67,
                    "time": 13.72950599999997,
                    "velocity": 0.3858267716535433,
                    "duration": 0.10245899999999963
                },
                {
                    "name": "A#4",
                    "midi": 70,
                    "time": 13.83196499999997,
                    "velocity": 0.5118110236220472,
                    "duration": 0.10245899999999963
                },
                {
                    "name": "D4",
                    "midi": 62,
                    "time": 13.93442399999997,
                    "velocity": 0.3937007874015748,
                    "duration": 0.10245899999999963
                },
                {
                    "name": "E4",
                    "midi": 64,
                    "time": 14.03688299999997,
                    "velocity": 0.3937007874015748,
                    "duration": 0.10245899999999963
                },
                {
                    "name": "F4",
                    "midi": 65,
                    "time": 14.139341999999969,
                    "velocity": 0.5275590551181102,
                    "duration": 0.10245899999999963
                },
                {
                    "name": "B3",
                    "midi": 59,
                    "time": 14.241800999999969,
                    "velocity": 0.4015748031496063,
                    "duration": 0.10245899999999963
                },
                {
                    "name": "B4",
                    "midi": 71,
                    "time": 14.344259999999968,
                    "velocity": 0.4015748031496063,
                    "duration": 0.10245899999999963
                },
                {
                    "name": "D5",
                    "midi": 74,
                    "time": 14.446718999999968,
                    "velocity": 0.5275590551181102,
                    "duration": 0.10245899999999963
                },
                {
                    "name": "F4",
                    "midi": 65,
                    "time": 14.549177999999968,
                    "velocity": 0.4094488188976378,
                    "duration": 0.10245899999999963
                },
                {
                    "name": "G4",
                    "midi": 67,
                    "time": 14.651636999999967,
                    "velocity": 0.4094488188976378,
                    "duration": 0.10245899999999963
                },
                {
                    "name": "G#4",
                    "midi": 68,
                    "time": 14.754095999999967,
                    "velocity": 0.5433070866141733,
                    "duration": 0.10245899999999963
                },
                {
                    "name": "D4",
                    "midi": 62,
                    "time": 14.856554999999966,
                    "velocity": 0.4094488188976378,
                    "duration": 0.10245899999999963
                },
                {
                    "name": "D5",
                    "midi": 74,
                    "time": 14.959013999999966,
                    "velocity": 0.4409448818897638,
                    "duration": 0.10245899999999963
                },
                {
                    "name": "F5",
                    "midi": 77,
                    "time": 15.061472999999966,
                    "velocity": 0.5590551181102362,
                    "duration": 0.10245899999999963
                },
                {
                    "name": "F4",
                    "midi": 65,
                    "time": 15.163931999999965,
                    "velocity": 0.44881889763779526,
                    "duration": 0.10245899999999963
                },
                {
                    "name": "G#4",
                    "midi": 68,
                    "time": 15.266390999999965,
                    "velocity": 0.4645669291338583,
                    "duration": 0.10245899999999963
                },
                {
                    "name": "A4",
                    "midi": 69,
                    "time": 15.368849999999965,
                    "velocity": 0.5984251968503937,
                    "duration": 0.10245899999999963
                },
                {
                    "name": "E4",
                    "midi": 64,
                    "time": 15.471308999999964,
                    "velocity": 0.49606299212598426,
                    "duration": 0.10245899999999963
                },
                {
                    "name": "C#5",
                    "midi": 73,
                    "time": 15.573767999999964,
                    "velocity": 0.49606299212598426,
                    "duration": 0.10245899999999963
                },
                {
                    "name": "E5",
                    "midi": 76,
                    "time": 15.676226999999963,
                    "velocity": 0.6062992125984252,
                    "duration": 0.10245899999999963
                },
                {
                    "name": "G4",
                    "midi": 67,
                    "time": 15.778685999999963,
                    "velocity": 0.5196850393700787,
                    "duration": 0.10245899999999963
                },
                {
                    "name": "A4",
                    "midi": 69,
                    "time": 15.881144999999963,
                    "velocity": 0.5275590551181102,
                    "duration": 0.10245899999999963
                },
                {
                    "name": "A#4",
                    "midi": 70,
                    "time": 15.983603999999962,
                    "velocity": 0.6377952755905512,
                    "duration": 0.10245900000000141
                },
                {
                    "name": "E4",
                    "midi": 64,
                    "time": 16.086062999999964,
                    "velocity": 0.49606299212598426,
                    "duration": 0.10245899999999963
                },
                {
                    "name": "C#5",
                    "midi": 73,
                    "time": 16.188521999999963,
                    "velocity": 0.4645669291338583,
                    "duration": 0.10245899999999963
                },
                {
                    "name": "E5",
                    "midi": 76,
                    "time": 16.290980999999963,
                    "velocity": 0.49606299212598426,
                    "duration": 0.10245899999999963
                },
                {
                    "name": "G4",
                    "midi": 67,
                    "time": 16.393439999999963,
                    "velocity": 0.3700787401574803,
                    "duration": 0.10245899999999963
                },
                {
                    "name": "A4",
                    "midi": 69,
                    "time": 16.495898999999962,
                    "velocity": 0.3700787401574803,
                    "duration": 0.10245899999999963
                },
                {
                    "name": "A#4",
                    "midi": 70,
                    "time": 16.598357999999962,
                    "velocity": 0.49606299212598426,
                    "duration": 0.10245899999999963
                },
                {
                    "name": "F4",
                    "midi": 65,
                    "time": 16.70081699999996,
                    "velocity": 0.3779527559055118,
                    "duration": 0.10245899999999963
                },
                {
                    "name": "D5",
                    "midi": 74,
                    "time": 16.80327599999996,
                    "velocity": 0.3779527559055118,
                    "duration": 0.10245899999999963
                },
                {
                    "name": "F5",
                    "midi": 77,
                    "time": 16.90573499999996,
                    "velocity": 0.4881889763779528,
                    "duration": 0.10245899999999963
                },
                {
                    "name": "A4",
                    "midi": 69,
                    "time": 17.00819399999996,
                    "velocity": 0.3700787401574803,
                    "duration": 0.10245899999999963
                },
                {
                    "name": "C5",
                    "midi": 72,
                    "time": 17.11065299999996,
                    "velocity": 0.3700787401574803,
                    "duration": 0.10245899999999963
                },
                {
                    "name": "C#5",
                    "midi": 73,
                    "time": 17.21311199999996,
                    "velocity": 0.4881889763779528,
                    "duration": 0.10245899999999963
                },
                {
                    "name": "G4",
                    "midi": 67,
                    "time": 17.31557099999996,
                    "velocity": 0.3700787401574803,
                    "duration": 0.10245899999999963
                },
                {
                    "name": "E5",
                    "midi": 76,
                    "time": 17.41802999999996,
                    "velocity": 0.3700787401574803,
                    "duration": 0.10245899999999963
                },
                {
                    "name": "G5",
                    "midi": 79,
                    "time": 17.52048899999996,
                    "velocity": 0.4881889763779528,
                    "duration": 0.10245899999999963
                },
                {
                    "name": "A#4",
                    "midi": 70,
                    "time": 17.62294799999996,
                    "velocity": 0.3700787401574803,
                    "duration": 0.10245899999999963
                },
                {
                    "name": "D5",
                    "midi": 74,
                    "time": 17.725406999999958,
                    "velocity": 0.3700787401574803,
                    "duration": 0.10245899999999963
                },
                {
                    "name": "D#5",
                    "midi": 75,
                    "time": 17.827865999999958,
                    "velocity": 0.4881889763779528,
                    "duration": 0.10245899999999963
                },
                {
                    "name": "A4",
                    "midi": 69,
                    "time": 17.930324999999957,
                    "velocity": 0.36220472440944884,
                    "duration": 0.10245899999999963
                },
                {
                    "name": "A5",
                    "midi": 81,
                    "time": 18.032783999999957,
                    "velocity": 0.3700787401574803,
                    "duration": 0.10245899999999963
                },
                {
                    "name": "C6",
                    "midi": 84,
                    "time": 18.135242999999956,
                    "velocity": 0.4881889763779528,
                    "duration": 0.10245899999999963
                },
                {
                    "name": "C5",
                    "midi": 72,
                    "time": 18.237701999999956,
                    "velocity": 0.3779527559055118,
                    "duration": 0.10245899999999963
                },
                {
                    "name": "D5",
                    "midi": 74,
                    "time": 18.340160999999956,
                    "velocity": 0.3858267716535433,
                    "duration": 0.10245899999999963
                },
                {
                    "name": "D#5",
                    "midi": 75,
                    "time": 18.442619999999955,
                    "velocity": 0.5118110236220472,
                    "duration": 0.10245899999999963
                },
                {
                    "name": "A#4",
                    "midi": 70,
                    "time": 18.545078999999955,
                    "velocity": 0.3858267716535433,
                    "duration": 0.10245899999999963
                },
                {
                    "name": "G5",
                    "midi": 79,
                    "time": 18.647537999999955,
                    "velocity": 0.3858267716535433,
                    "duration": 0.10245899999999963
                },
                {
                    "name": "A#5",
                    "midi": 82,
                    "time": 18.749996999999954,
                    "velocity": 0.5669291338582677,
                    "duration": 0.10245899999999963
                },
                {
                    "name": "D5",
                    "midi": 74,
                    "time": 18.852455999999954,
                    "velocity": 0.44881889763779526,
                    "duration": 0.10245899999999963
                },
                {
                    "name": "E5",
                    "midi": 76,
                    "time": 18.954914999999954,
                    "velocity": 0.44881889763779526,
                    "duration": 0.10245899999999963
                },
                {
                    "name": "F5",
                    "midi": 77,
                    "time": 19.057373999999953,
                    "velocity": 0.5826771653543307,
                    "duration": 0.10245899999999963
                },
                {
                    "name": "B4",
                    "midi": 71,
                    "time": 19.159832999999953,
                    "velocity": 0.44881889763779526,
                    "duration": 0.10245899999999963
                },
                {
                    "name": "D6",
                    "midi": 86,
                    "time": 19.262291999999952,
                    "velocity": 0.44881889763779526,
                    "duration": 0.10245899999999963
                },
                {
                    "name": "F6",
                    "midi": 89,
                    "time": 19.364750999999952,
                    "velocity": 0.5984251968503937,
                    "duration": 0.10245899999999963
                },
                {
                    "name": "F5",
                    "midi": 77,
                    "time": 19.46720999999995,
                    "velocity": 0.48031496062992124,
                    "duration": 0.10245899999999963
                },
                {
                    "name": "B5",
                    "midi": 83,
                    "time": 19.56966899999995,
                    "velocity": 0.48031496062992124,
                    "duration": 0.10245899999999963
                },
                {
                    "name": "C#6",
                    "midi": 85,
                    "time": 19.67212799999995,
                    "velocity": 0.6456692913385826,
                    "duration": 0.10245899999999963
                },
                {
                    "name": "E5",
                    "midi": 76,
                    "time": 19.77458699999995,
                    "velocity": 0.4881889763779528,
                    "duration": 0.10245899999999963
                },
                {
                    "name": "E6",
                    "midi": 88,
                    "time": 19.87704599999995,
                    "velocity": 0.5118110236220472,
                    "duration": 0.10245899999999963
                },
                {
                    "name": "A6",
                    "midi": 93,
                    "time": 19.97950499999995,
                    "velocity": 0.6456692913385826,
                    "duration": 0.10245899999999963
                },
                {
                    "name": "A5",
                    "midi": 81,
                    "time": 20.08196399999995,
                    "velocity": 0.5275590551181102,
                    "duration": 0.10245899999999963
                },
                {
                    "name": "D6",
                    "midi": 86,
                    "time": 20.18442299999995,
                    "velocity": 0.6299212598425197,
                    "duration": 0.10245899999999963
                },
                {
                    "name": "D7",
                    "midi": 98,
                    "time": 20.28688199999995,
                    "velocity": 0.7480314960629921,
                    "duration": 0.3073769999999989
                },
                {
                    "name": "F5",
                    "midi": 77,
                    "time": 20.696717999999947,
                    "velocity": 0.5826771653543307,
                    "duration": 0.10245899999999963
                },
                {
                    "name": "A5",
                    "midi": 81,
                    "time": 20.799176999999947,
                    "velocity": 0.5826771653543307,
                    "duration": 0.10245899999999963
                },
                {
                    "name": "A#5",
                    "midi": 82,
                    "time": 20.901635999999947,
                    "velocity": 0.6456692913385826,
                    "duration": 0.10245899999999963
                },
                {
                    "name": "F5",
                    "midi": 77,
                    "time": 21.004094999999946,
                    "velocity": 0.5984251968503937,
                    "duration": 0.10245899999999963
                },
                {
                    "name": "D6",
                    "midi": 86,
                    "time": 21.106553999999946,
                    "velocity": 0.5669291338582677,
                    "duration": 0.10245899999999963
                },
                {
                    "name": "F6",
                    "midi": 89,
                    "time": 21.209012999999945,
                    "velocity": 0.6850393700787402,
                    "duration": 0.10245899999999963
                },
                {
                    "name": "F5",
                    "midi": 77,
                    "time": 21.311471999999945,
                    "velocity": 0.6377952755905512,
                    "duration": 0.10245899999999963
                },
                {
                    "name": "A5",
                    "midi": 81,
                    "time": 21.413930999999945,
                    "velocity": 0.6614173228346457,
                    "duration": 0.10245899999999963
                },
                {
                    "name": "A#5",
                    "midi": 82,
                    "time": 21.516389999999944,
                    "velocity": 0.7322834645669292,
                    "duration": 0.10245899999999963
                },
                {
                    "name": "E5",
                    "midi": 76,
                    "time": 21.618848999999944,
                    "velocity": 0.6377952755905512,
                    "duration": 0.10245899999999963
                },
                {
                    "name": "G#5",
                    "midi": 80,
                    "time": 21.721307999999944,
                    "velocity": 0.5826771653543307,
                    "duration": 0.10245899999999963
                },
                {
                    "name": "A5",
                    "midi": 81,
                    "time": 21.823766999999943,
                    "velocity": 0.6456692913385826,
                    "duration": 0.10245899999999963
                },
                {
                    "name": "F5",
                    "midi": 77,
                    "time": 21.926225999999943,
                    "velocity": 0.5590551181102362,
                    "duration": 0.10245899999999963
                },
                {
                    "name": "A5",
                    "midi": 81,
                    "time": 22.028684999999943,
                    "velocity": 0.5196850393700787,
                    "duration": 0.10245899999999963
                },
                {
                    "name": "A#5",
                    "midi": 82,
                    "time": 22.131143999999942,
                    "velocity": 0.6456692913385826,
                    "duration": 0.10245899999999963
                },
                {
                    "name": "F5",
                    "midi": 77,
                    "time": 22.233602999999942,
                    "velocity": 0.5984251968503937,
                    "duration": 0.10245899999999963
                },
                {
                    "name": "D6",
                    "midi": 86,
                    "time": 22.33606199999994,
                    "velocity": 0.5669291338582677,
                    "duration": 0.10245899999999963
                },
                {
                    "name": "F6",
                    "midi": 89,
                    "time": 22.43852099999994,
                    "velocity": 0.6850393700787402,
                    "duration": 0.10245899999999963
                },
                {
                    "name": "F5",
                    "midi": 77,
                    "time": 22.54097999999994,
                    "velocity": 0.6377952755905512,
                    "duration": 0.10245899999999963
                },
                {
                    "name": "A5",
                    "midi": 81,
                    "time": 22.64343899999994,
                    "velocity": 0.6614173228346457,
                    "duration": 0.10245899999999963
                },
                {
                    "name": "A#5",
                    "midi": 82,
                    "time": 22.74589799999994,
                    "velocity": 0.7322834645669292,
                    "duration": 0.10245899999999963
                },
                {
                    "name": "E5",
                    "midi": 76,
                    "time": 22.84835699999994,
                    "velocity": 0.6377952755905512,
                    "duration": 0.10245899999999963
                },
                {
                    "name": "G#5",
                    "midi": 80,
                    "time": 22.95081599999994,
                    "velocity": 0.5433070866141733,
                    "duration": 0.10245899999999963
                },
                {
                    "name": "A5",
                    "midi": 81,
                    "time": 23.05327499999994,
                    "velocity": 0.6456692913385826,
                    "duration": 0.10245899999999963
                },
                {
                    "name": "E5",
                    "midi": 76,
                    "time": 23.15573399999994,
                    "velocity": 0.5590551181102362,
                    "duration": 0.10245899999999963
                },
                {
                    "name": "A5",
                    "midi": 81,
                    "time": 23.258192999999938,
                    "velocity": 0.4881889763779528,
                    "duration": 0.10245899999999963
                },
                {
                    "name": "D6",
                    "midi": 86,
                    "time": 23.360651999999938,
                    "velocity": 0.6456692913385826,
                    "duration": 0.10245899999999963
                },
                {
                    "name": "D5",
                    "midi": 74,
                    "time": 23.463110999999937,
                    "velocity": 0.5590551181102362,
                    "duration": 0.10245899999999963
                },
                {
                    "name": "G5",
                    "midi": 79,
                    "time": 23.565569999999937,
                    "velocity": 0.48031496062992124,
                    "duration": 0.10245899999999963
                },
                {
                    "name": "A5",
                    "midi": 81,
                    "time": 23.668028999999937,
                    "velocity": 0.6299212598425197,
                    "duration": 0.10245899999999963
                },
                {
                    "name": "D5",
                    "midi": 74,
                    "time": 23.770487999999936,
                    "velocity": 0.5669291338582677,
                    "duration": 0.10245899999999963
                },
                {
                    "name": "G5",
                    "midi": 79,
                    "time": 23.872946999999936,
                    "velocity": 0.5118110236220472,
                    "duration": 0.10245899999999963
                },
                {
                    "name": "C6",
                    "midi": 84,
                    "time": 23.975405999999936,
                    "velocity": 0.6062992125984252,
                    "duration": 0.10245899999999963
                },
                {
                    "name": "C5",
                    "midi": 72,
                    "time": 24.077864999999935,
                    "velocity": 0.5275590551181102,
                    "duration": 0.10245899999999963
                },
                {
                    "name": "F5",
                    "midi": 77,
                    "time": 24.180323999999935,
                    "velocity": 0.49606299212598426,
                    "duration": 0.10245899999999963
                },
                {
                    "name": "G5",
                    "midi": 79,
                    "time": 24.282782999999935,
                    "velocity": 0.5275590551181102,
                    "duration": 0.10245899999999963
                },
                {
                    "name": "C5",
                    "midi": 72,
                    "time": 24.385241999999934,
                    "velocity": 0.4645669291338583,
                    "duration": 0.10245899999999963
                },
                {
                    "name": "F5",
                    "midi": 77,
                    "time": 24.487700999999934,
                    "velocity": 0.4094488188976378,
                    "duration": 0.10245899999999963
                },
                {
                    "name": "A#5",
                    "midi": 82,
                    "time": 24.590159999999933,
                    "velocity": 0.5669291338582677,
                    "duration": 0.10245899999999963
                },
                {
                    "name": "A#4",
                    "midi": 70,
                    "time": 24.692618999999933,
                    "velocity": 0.5196850393700787,
                    "duration": 0.10245899999999963
                },
                {
                    "name": "E5",
                    "midi": 76,
                    "time": 24.795077999999933,
                    "velocity": 0.4645669291338583,
                    "duration": 0.10245899999999963
                },
                {
                    "name": "F5",
                    "midi": 77,
                    "time": 24.897536999999932,
                    "velocity": 0.5433070866141733,
                    "duration": 0.10245899999999963
                },
                {
                    "name": "A#4",
                    "midi": 70,
                    "time": 24.999995999999932,
                    "velocity": 0.47244094488188976,
                    "duration": 0.10245899999999963
                },
                {
                    "name": "E5",
                    "midi": 76,
                    "time": 25.10245499999993,
                    "velocity": 0.4094488188976378,
                    "duration": 0.10245899999999963
                },
                {
                    "name": "A5",
                    "midi": 81,
                    "time": 25.20491399999993,
                    "velocity": 0.5354330708661418,
                    "duration": 0.10245899999999963
                },
                {
                    "name": "A4",
                    "midi": 69,
                    "time": 25.30737299999993,
                    "velocity": 0.4645669291338583,
                    "duration": 0.10245899999999963
                },
                {
                    "name": "D5",
                    "midi": 74,
                    "time": 25.40983199999993,
                    "velocity": 0.4094488188976378,
                    "duration": 0.10245899999999963
                },
                {
                    "name": "E5",
                    "midi": 76,
                    "time": 25.51229099999993,
                    "velocity": 0.5118110236220472,
                    "duration": 0.10245899999999963
                },
                {
                    "name": "A4",
                    "midi": 69,
                    "time": 25.61474999999993,
                    "velocity": 0.4251968503937008,
                    "duration": 0.10245899999999963
                },
                {
                    "name": "D5",
                    "midi": 74,
                    "time": 25.71720899999993,
                    "velocity": 0.3779527559055118,
                    "duration": 0.10245899999999963
                },
                {
                    "name": "D#5",
                    "midi": 75,
                    "time": 25.81966799999993,
                    "velocity": 0.5748031496062992,
                    "duration": 0.10245899999999963
                },
                {
                    "name": "A#4",
                    "midi": 70,
                    "time": 25.92212699999993,
                    "velocity": 0.5354330708661418,
                    "duration": 0.10245899999999963
                },
                {
                    "name": "G5",
                    "midi": 79,
                    "time": 26.02458599999993,
                    "velocity": 0.5118110236220472,
                    "duration": 0.10245899999999963
                },
                {
                    "name": "A#5",
                    "midi": 82,
                    "time": 26.127044999999928,
                    "velocity": 0.6062992125984252,
                    "duration": 0.10245899999999963
                },
                {
                    "name": "A#4",
                    "midi": 70,
                    "time": 26.229503999999928,
                    "velocity": 0.5669291338582677,
                    "duration": 0.10245899999999963
                },
                {
                    "name": "D5",
                    "midi": 74,
                    "time": 26.331962999999927,
                    "velocity": 0.5984251968503937,
                    "duration": 0.10245899999999963
                },
                {
                    "name": "G5",
                    "midi": 79,
                    "time": 26.434421999999927,
                    "velocity": 0.6535433070866141,
                    "duration": 0.10245899999999963
                },
                {
                    "name": "A#4",
                    "midi": 70,
                    "time": 26.536880999999926,
                    "velocity": 0.5669291338582677,
                    "duration": 0.10245899999999963
                },
                {
                    "name": "D5",
                    "midi": 74,
                    "time": 26.639339999999926,
                    "velocity": 0.5275590551181102,
                    "duration": 0.10245899999999963
                },
                {
                    "name": "D#5",
                    "midi": 75,
                    "time": 26.741798999999926,
                    "velocity": 0.5748031496062992,
                    "duration": 0.10245899999999963
                },
                {
                    "name": "A#4",
                    "midi": 70,
                    "time": 26.844257999999925,
                    "velocity": 0.49606299212598426,
                    "duration": 0.10245899999999963
                },
                {
                    "name": "D5",
                    "midi": 74,
                    "time": 26.946716999999925,
                    "velocity": 0.44881889763779526,
                    "duration": 0.10245899999999963
                },
                {
                    "name": "D#5",
                    "midi": 75,
                    "time": 27.049175999999925,
                    "velocity": 0.5748031496062992,
                    "duration": 0.10245899999999963
                },
                {
                    "name": "A#4",
                    "midi": 70,
                    "time": 27.151634999999924,
                    "velocity": 0.5354330708661418,
                    "duration": 0.10245899999999963
                },
                {
                    "name": "G5",
                    "midi": 79,
                    "time": 27.254093999999924,
                    "velocity": 0.5118110236220472,
                    "duration": 0.10245899999999963
                },
                {
                    "name": "A#5",
                    "midi": 82,
                    "time": 27.356552999999924,
                    "velocity": 0.6062992125984252,
                    "duration": 0.10245899999999963
                },
                {
                    "name": "A#4",
                    "midi": 70,
                    "time": 27.459011999999923,
                    "velocity": 0.5669291338582677,
                    "duration": 0.10245899999999963
                },
                {
                    "name": "D5",
                    "midi": 74,
                    "time": 27.561470999999923,
                    "velocity": 0.5984251968503937,
                    "duration": 0.10245899999999963
                },
                {
                    "name": "G5",
                    "midi": 79,
                    "time": 27.663929999999922,
                    "velocity": 0.6535433070866141,
                    "duration": 0.10245899999999963
                },
                {
                    "name": "A#4",
                    "midi": 70,
                    "time": 27.766388999999922,
                    "velocity": 0.5669291338582677,
                    "duration": 0.10245899999999963
                },
                {
                    "name": "D5",
                    "midi": 74,
                    "time": 27.86884799999992,
                    "velocity": 0.5275590551181102,
                    "duration": 0.10245899999999963
                },
                {
                    "name": "D#5",
                    "midi": 75,
                    "time": 27.97130699999992,
                    "velocity": 0.5748031496062992,
                    "duration": 0.10245899999999963
                },
                {
                    "name": "B4",
                    "midi": 71,
                    "time": 28.07376599999992,
                    "velocity": 0.49606299212598426,
                    "duration": 0.10245899999999963
                },
                {
                    "name": "D#5",
                    "midi": 75,
                    "time": 28.17622499999992,
                    "velocity": 0.44881889763779526,
                    "duration": 0.10245899999999963
                },
                {
                    "name": "F#5",
                    "midi": 78,
                    "time": 28.27868399999992,
                    "velocity": 0.5984251968503937,
                    "duration": 0.10245899999999963
                },
                {
                    "name": "F#4",
                    "midi": 66,
                    "time": 28.38114299999992,
                    "velocity": 0.49606299212598426,
                    "duration": 0.10245899999999963
                },
                {
                    "name": "B4",
                    "midi": 71,
                    "time": 28.48360199999992,
                    "velocity": 0.5433070866141733,
                    "duration": 0.10245899999999963
                },
                {
                    "name": "D#5",
                    "midi": 75,
                    "time": 28.58606099999992,
                    "velocity": 0.5984251968503937,
                    "duration": 0.10245899999999963
                },
                {
                    "name": "D#4",
                    "midi": 63,
                    "time": 28.68851999999992,
                    "velocity": 0.5196850393700787,
                    "duration": 0.10245899999999963
                },
                {
                    "name": "F#4",
                    "midi": 66,
                    "time": 28.79097899999992,
                    "velocity": 0.4645669291338583,
                    "duration": 0.10245899999999963
                },
                {
                    "name": "B4",
                    "midi": 71,
                    "time": 28.893437999999918,
                    "velocity": 0.5748031496062992,
                    "duration": 0.10245899999999963
                },
                {
                    "name": "C#4",
                    "midi": 61,
                    "time": 28.995896999999918,
                    "velocity": 0.5118110236220472,
                    "duration": 0.10245899999999963
                },
                {
                    "name": "G4",
                    "midi": 67,
                    "time": 29.098355999999917,
                    "velocity": 0.44881889763779526,
                    "duration": 0.10245899999999963
                },
                {
                    "name": "A#4",
                    "midi": 70,
                    "time": 29.200814999999917,
                    "velocity": 0.5433070866141733,
                    "duration": 0.10245899999999963
                },
                {
                    "name": "C4",
                    "midi": 60,
                    "time": 29.303273999999917,
                    "velocity": 0.4645669291338583,
                    "duration": 0.10245899999999963
                },
                {
                    "name": "D#4",
                    "midi": 63,
                    "time": 29.405732999999916,
                    "velocity": 0.4015748031496063,
                    "duration": 0.10245899999999963
                },
                {
                    "name": "A4",
                    "midi": 69,
                    "time": 29.508191999999916,
                    "velocity": 0.5275590551181102,
                    "duration": 0.10245899999999963
                },
                {
                    "name": "A#3",
                    "midi": 58,
                    "time": 29.610650999999915,
                    "velocity": 0.44881889763779526,
                    "duration": 0.10245899999999963
                },
                {
                    "name": "D4",
                    "midi": 62,
                    "time": 29.713109999999915,
                    "velocity": 0.4094488188976378,
                    "duration": 0.10245899999999963
                },
                {
                    "name": "G4",
                    "midi": 67,
                    "time": 29.815568999999915,
                    "velocity": 0.5826771653543307,
                    "duration": 0.10245899999999963
                },
                {
                    "name": "B3",
                    "midi": 59,
                    "time": 29.918027999999914,
                    "velocity": 0.44881889763779526,
                    "duration": 0.10245899999999963
                },
                {
                    "name": "D4",
                    "midi": 62,
                    "time": 30.020486999999914,
                    "velocity": 0.4094488188976378,
                    "duration": 0.10245899999999963
                },
                {
                    "name": "F4",
                    "midi": 65,
                    "time": 30.122945999999914,
                    "velocity": 0.5984251968503937,
                    "duration": 0.10245899999999963
                },
                {
                    "name": "A3",
                    "midi": 57,
                    "time": 30.225404999999913,
                    "velocity": 0.4881889763779528,
                    "duration": 0.10245899999999963
                },
                {
                    "name": "C#4",
                    "midi": 61,
                    "time": 30.327863999999913,
                    "velocity": 0.4330708661417323,
                    "duration": 0.10245899999999963
                },
                {
                    "name": "E4",
                    "midi": 64,
                    "time": 30.430322999999913,
                    "velocity": 0.5984251968503937,
                    "duration": 0.10245899999999963
                },
                {
                    "name": "G3",
                    "midi": 55,
                    "time": 30.532781999999912,
                    "velocity": 0.48031496062992124,
                    "duration": 0.10245899999999963
                },
                {
                    "name": "A3",
                    "midi": 57,
                    "time": 30.635240999999912,
                    "velocity": 0.4409448818897638,
                    "duration": 0.10245899999999963
                },
                {
                    "name": "A#3",
                    "midi": 58,
                    "time": 30.73769999999991,
                    "velocity": 0.6062992125984252,
                    "duration": 0.10245899999999963
                },
                {
                    "name": "E3",
                    "midi": 52,
                    "time": 30.84015899999991,
                    "velocity": 0.44881889763779526,
                    "duration": 0.10245899999999963
                },
                {
                    "name": "C#4",
                    "midi": 61,
                    "time": 30.94261799999991,
                    "velocity": 0.4015748031496063,
                    "duration": 0.10245899999999963
                },
                {
                    "name": "E4",
                    "midi": 64,
                    "time": 31.04507699999991,
                    "velocity": 0.49606299212598426,
                    "duration": 0.10245899999999963
                },
                {
                    "name": "G3",
                    "midi": 55,
                    "time": 31.14753599999991,
                    "velocity": 0.3700787401574803,
                    "duration": 0.10245899999999963
                },
                {
                    "name": "A3",
                    "midi": 57,
                    "time": 31.24999499999991,
                    "velocity": 0.3700787401574803,
                    "duration": 0.10245899999999963
                },
                {
                    "name": "A#3",
                    "midi": 58,
                    "time": 31.35245399999991,
                    "velocity": 0.49606299212598426,
                    "duration": 0.10245899999999963
                },
                {
                    "name": "F3",
                    "midi": 53,
                    "time": 31.45491299999991,
                    "velocity": 0.3779527559055118,
                    "duration": 0.10245899999999963
                },
                {
                    "name": "D4",
                    "midi": 62,
                    "time": 31.55737199999991,
                    "velocity": 0.33070866141732286,
                    "duration": 0.10245899999999963
                },
                {
                    "name": "F4",
                    "midi": 65,
                    "time": 31.659830999999908,
                    "velocity": 0.4881889763779528,
                    "duration": 0.10245899999999963
                },
                {
                    "name": "A3",
                    "midi": 57,
                    "time": 31.762289999999908,
                    "velocity": 0.3700787401574803,
                    "duration": 0.10245899999999963
                },
                {
                    "name": "C4",
                    "midi": 60,
                    "time": 31.864748999999907,
                    "velocity": 0.33070866141732286,
                    "duration": 0.10245899999999963
                },
                {
                    "name": "C#4",
                    "midi": 61,
                    "time": 31.967207999999907,
                    "velocity": 0.4881889763779528,
                    "duration": 0.10245900000000319
                },
                {
                    "name": "G3",
                    "midi": 55,
                    "time": 32.06966699999991,
                    "velocity": 0.3700787401574803,
                    "duration": 0.10245900000000319
                },
                {
                    "name": "E4",
                    "midi": 64,
                    "time": 32.17212599999991,
                    "velocity": 0.3700787401574803,
                    "duration": 0.10245900000000319
                },
                {
                    "name": "G4",
                    "midi": 67,
                    "time": 32.27458499999992,
                    "velocity": 0.4881889763779528,
                    "duration": 0.10245900000000319
                },
                {
                    "name": "A#3",
                    "midi": 58,
                    "time": 32.37704399999992,
                    "velocity": 0.3700787401574803,
                    "duration": 0.10245900000000319
                },
                {
                    "name": "D4",
                    "midi": 62,
                    "time": 32.47950299999992,
                    "velocity": 0.33070866141732286,
                    "duration": 0.10245900000000319
                },
                {
                    "name": "D#4",
                    "midi": 63,
                    "time": 32.581961999999926,
                    "velocity": 0.4881889763779528,
                    "duration": 0.10245900000000319
                },
                {
                    "name": "A3",
                    "midi": 57,
                    "time": 32.68442099999993,
                    "velocity": 0.36220472440944884,
                    "duration": 0.10245900000000319
                },
                {
                    "name": "A4",
                    "midi": 69,
                    "time": 32.78687999999993,
                    "velocity": 0.3700787401574803,
                    "duration": 0.10245900000000319
                },
                {
                    "name": "C5",
                    "midi": 72,
                    "time": 32.889338999999936,
                    "velocity": 0.4881889763779528,
                    "duration": 0.10245900000000319
                },
                {
                    "name": "C4",
                    "midi": 60,
                    "time": 32.99179799999994,
                    "velocity": 0.3779527559055118,
                    "duration": 0.10245900000000319
                },
                {
                    "name": "D4",
                    "midi": 62,
                    "time": 33.09425699999994,
                    "velocity": 0.3858267716535433,
                    "duration": 0.10245900000000319
                },
                {
                    "name": "D#4",
                    "midi": 63,
                    "time": 33.196715999999945,
                    "velocity": 0.5118110236220472,
                    "duration": 0.10245900000000319
                },
                {
                    "name": "A#3",
                    "midi": 58,
                    "time": 33.29917499999995,
                    "velocity": 0.3858267716535433,
                    "duration": 0.10245900000000319
                },
                {
                    "name": "G4",
                    "midi": 67,
                    "time": 33.40163399999995,
                    "velocity": 0.3464566929133858,
                    "duration": 0.10245900000000319
                },
                {
                    "name": "A#4",
                    "midi": 70,
                    "time": 33.504092999999955,
                    "velocity": 0.5118110236220472,
                    "duration": 0.10245900000000319
                },
                {
                    "name": "D4",
                    "midi": 62,
                    "time": 33.60655199999996,
                    "velocity": 0.3937007874015748,
                    "duration": 0.10245900000000319
                },
                {
                    "name": "E4",
                    "midi": 64,
                    "time": 33.70901099999996,
                    "velocity": 0.3543307086614173,
                    "duration": 0.10245900000000319
                },
                {
                    "name": "F4",
                    "midi": 65,
                    "time": 33.811469999999964,
                    "velocity": 0.5275590551181102,
                    "duration": 0.10245900000000319
                },
                {
                    "name": "B3",
                    "midi": 59,
                    "time": 33.91392899999997,
                    "velocity": 0.4015748031496063,
                    "duration": 0.10245900000000319
                },
                {
                    "name": "B4",
                    "midi": 71,
                    "time": 34.01638799999997,
                    "velocity": 0.3779527559055118,
                    "duration": 0.10245900000000319
                },
                {
                    "name": "D5",
                    "midi": 74,
                    "time": 34.118846999999974,
                    "velocity": 0.5275590551181102,
                    "duration": 0.10245900000000319
                },
                {
                    "name": "F4",
                    "midi": 65,
                    "time": 34.22130599999998,
                    "velocity": 0.4094488188976378,
                    "duration": 0.10245900000000319
                },
                {
                    "name": "G4",
                    "midi": 67,
                    "time": 34.32376499999998,
                    "velocity": 0.3700787401574803,
                    "duration": 0.10245900000000319
                },
                {
                    "name": "G#4",
                    "midi": 68,
                    "time": 34.42622399999998,
                    "velocity": 0.5433070866141733,
                    "duration": 0.10245900000000319
                },
                {
                    "name": "D4",
                    "midi": 62,
                    "time": 34.52868299999999,
                    "velocity": 0.4094488188976378,
                    "duration": 0.10245900000000319
                },
                {
                    "name": "D5",
                    "midi": 74,
                    "time": 34.63114199999999,
                    "velocity": 0.4251968503937008,
                    "duration": 0.10245900000000319
                },
                {
                    "name": "F5",
                    "midi": 77,
                    "time": 34.73360099999999,
                    "velocity": 0.5590551181102362,
                    "duration": 0.10245900000000319
                },
                {
                    "name": "F4",
                    "midi": 65,
                    "time": 34.836059999999996,
                    "velocity": 0.44881889763779526,
                    "duration": 0.10245900000000319
                },
                {
                    "name": "G#4",
                    "midi": 68,
                    "time": 34.938519,
                    "velocity": 0.4645669291338583,
                    "duration": 0.10245900000000319
                },
                {
                    "name": "A4",
                    "midi": 69,
                    "time": 35.040978,
                    "velocity": 0.5984251968503937,
                    "duration": 0.10245900000000319
                },
                {
                    "name": "E4",
                    "midi": 64,
                    "time": 35.143437000000006,
                    "velocity": 0.49606299212598426,
                    "duration": 0.10245900000000319
                },
                {
                    "name": "C#5",
                    "midi": 73,
                    "time": 35.24589600000001,
                    "velocity": 0.49606299212598426,
                    "duration": 0.10245900000000319
                },
                {
                    "name": "E5",
                    "midi": 76,
                    "time": 35.34835500000001,
                    "velocity": 0.6062992125984252,
                    "duration": 0.10245900000000319
                },
                {
                    "name": "G4",
                    "midi": 67,
                    "time": 35.450814000000015,
                    "velocity": 0.5196850393700787,
                    "duration": 0.10245900000000319
                },
                {
                    "name": "A4",
                    "midi": 69,
                    "time": 35.55327300000002,
                    "velocity": 0.5275590551181102,
                    "duration": 0.10245900000000319
                },
                {
                    "name": "A#4",
                    "midi": 70,
                    "time": 35.65573200000002,
                    "velocity": 0.6377952755905512,
                    "duration": 0.10245900000000319
                },
                {
                    "name": "E4",
                    "midi": 64,
                    "time": 35.758191000000025,
                    "velocity": 0.49606299212598426,
                    "duration": 0.10245900000000319
                },
                {
                    "name": "C#5",
                    "midi": 73,
                    "time": 35.86065000000003,
                    "velocity": 0.4645669291338583,
                    "duration": 0.10245900000000319
                },
                {
                    "name": "E5",
                    "midi": 76,
                    "time": 35.96310900000003,
                    "velocity": 0.5669291338582677,
                    "duration": 0.10245900000000319
                },
                {
                    "name": "G4",
                    "midi": 67,
                    "time": 36.065568000000034,
                    "velocity": 0.4094488188976378,
                    "duration": 0.10245900000000319
                },
                {
                    "name": "A4",
                    "midi": 69,
                    "time": 36.16802700000004,
                    "velocity": 0.4094488188976378,
                    "duration": 0.10245900000000319
                },
                {
                    "name": "A#4",
                    "midi": 70,
                    "time": 36.27048600000004,
                    "velocity": 0.5748031496062992,
                    "duration": 0.10245900000000319
                },
                {
                    "name": "F4",
                    "midi": 65,
                    "time": 36.372945000000044,
                    "velocity": 0.4330708661417323,
                    "duration": 0.10245900000000319
                },
                {
                    "name": "D5",
                    "midi": 74,
                    "time": 36.47540400000005,
                    "velocity": 0.4330708661417323,
                    "duration": 0.10245900000000319
                },
                {
                    "name": "F5",
                    "midi": 77,
                    "time": 36.57786300000005,
                    "velocity": 0.5511811023622047,
                    "duration": 0.10245900000000319
                },
                {
                    "name": "A4",
                    "midi": 69,
                    "time": 36.680322000000054,
                    "velocity": 0.4251968503937008,
                    "duration": 0.10245900000000319
                },
                {
                    "name": "C5",
                    "midi": 72,
                    "time": 36.78278100000006,
                    "velocity": 0.4330708661417323,
                    "duration": 0.10245900000000319
                },
                {
                    "name": "C#5",
                    "midi": 73,
                    "time": 36.88524000000006,
                    "velocity": 0.5826771653543307,
                    "duration": 0.10245900000000319
                },
                {
                    "name": "G4",
                    "midi": 67,
                    "time": 36.98769900000006,
                    "velocity": 0.4251968503937008,
                    "duration": 0.10245900000000319
                },
                {
                    "name": "E5",
                    "midi": 76,
                    "time": 37.090158000000066,
                    "velocity": 0.4330708661417323,
                    "duration": 0.10245900000000319
                },
                {
                    "name": "G5",
                    "midi": 79,
                    "time": 37.19261700000007,
                    "velocity": 0.5669291338582677,
                    "duration": 0.10245900000000319
                },
                {
                    "name": "A#4",
                    "midi": 70,
                    "time": 37.29507600000007,
                    "velocity": 0.4251968503937008,
                    "duration": 0.10245900000000319
                },
                {
                    "name": "D5",
                    "midi": 74,
                    "time": 37.397535000000076,
                    "velocity": 0.4251968503937008,
                    "duration": 0.10245900000000319
                },
                {
                    "name": "D#5",
                    "midi": 75,
                    "time": 37.49999400000008,
                    "velocity": 0.5748031496062992,
                    "duration": 0.10245900000000319
                },
                {
                    "name": "A4",
                    "midi": 69,
                    "time": 37.60245300000008,
                    "velocity": 0.4094488188976378,
                    "duration": 0.10245900000000319
                },
                {
                    "name": "A5",
                    "midi": 81,
                    "time": 37.704912000000085,
                    "velocity": 0.4251968503937008,
                    "duration": 0.10245900000000319
                },
                {
                    "name": "C6",
                    "midi": 84,
                    "time": 37.80737100000009,
                    "velocity": 0.5590551181102362,
                    "duration": 0.10245900000000319
                },
                {
                    "name": "C5",
                    "midi": 72,
                    "time": 37.90983000000009,
                    "velocity": 0.4094488188976378,
                    "duration": 0.10245900000000319
                },
                {
                    "name": "D5",
                    "midi": 74,
                    "time": 38.012289000000095,
                    "velocity": 0.4330708661417323,
                    "duration": 0.10245900000000319
                },
                {
                    "name": "D#5",
                    "midi": 75,
                    "time": 38.1147480000001,
                    "velocity": 0.5669291338582677,
                    "duration": 0.10245900000000319
                },
                {
                    "name": "A#4",
                    "midi": 70,
                    "time": 38.2172070000001,
                    "velocity": 0.44881889763779526,
                    "duration": 0.10245900000000319
                },
                {
                    "name": "G5",
                    "midi": 79,
                    "time": 38.319666000000105,
                    "velocity": 0.44881889763779526,
                    "duration": 0.10245900000000319
                },
                {
                    "name": "A#5",
                    "midi": 82,
                    "time": 38.42212500000011,
                    "velocity": 0.5826771653543307,
                    "duration": 0.10245900000000319
                },
                {
                    "name": "D5",
                    "midi": 74,
                    "time": 38.52458400000011,
                    "velocity": 0.44881889763779526,
                    "duration": 0.10245900000000319
                },
                {
                    "name": "E5",
                    "midi": 76,
                    "time": 38.627043000000114,
                    "velocity": 0.44881889763779526,
                    "duration": 0.10245900000000319
                },
                {
                    "name": "F5",
                    "midi": 77,
                    "time": 38.72950200000012,
                    "velocity": 0.6220472440944882,
                    "duration": 0.10245900000000319
                },
                {
                    "name": "B4",
                    "midi": 71,
                    "time": 38.83196100000012,
                    "velocity": 0.44881889763779526,
                    "duration": 0.10245900000000319
                },
                {
                    "name": "D6",
                    "midi": 86,
                    "time": 38.934420000000124,
                    "velocity": 0.44881889763779526,
                    "duration": 0.10245900000000319
                },
                {
                    "name": "F6",
                    "midi": 89,
                    "time": 39.03687900000013,
                    "velocity": 0.6220472440944882,
                    "duration": 0.10245900000000319
                },
                {
                    "name": "F5",
                    "midi": 77,
                    "time": 39.13933800000013,
                    "velocity": 0.48031496062992124,
                    "duration": 0.10245900000000319
                },
                {
                    "name": "B5",
                    "midi": 83,
                    "time": 39.24179700000013,
                    "velocity": 0.48031496062992124,
                    "duration": 0.10245900000000319
                },
                {
                    "name": "C#6",
                    "midi": 85,
                    "time": 39.34425600000014,
                    "velocity": 0.6456692913385826,
                    "duration": 0.10245900000000319
                },
                {
                    "name": "E5",
                    "midi": 76,
                    "time": 39.44671500000014,
                    "velocity": 0.4881889763779528,
                    "duration": 0.10245900000000319
                },
                {
                    "name": "E6",
                    "midi": 88,
                    "time": 39.54917400000014,
                    "velocity": 0.5118110236220472,
                    "duration": 0.10245900000000319
                },
                {
                    "name": "A6",
                    "midi": 93,
                    "time": 39.651633000000146,
                    "velocity": 0.6456692913385826,
                    "duration": 0.10245900000000319
                },
                {
                    "name": "A5",
                    "midi": 81,
                    "time": 39.75409200000015,
                    "velocity": 0.5275590551181102,
                    "duration": 0.10245900000000319
                },
                {
                    "name": "D6",
                    "midi": 86,
                    "time": 39.85655100000015,
                    "velocity": 0.6299212598425197,
                    "duration": 0.10245900000000319
                },
                {
                    "name": "D7",
                    "midi": 98,
                    "time": 39.959010000000156,
                    "velocity": 0.7480314960629921,
                    "duration": 0.30737700000000245
                },
                {
                    "name": "F5",
                    "midi": 77,
                    "time": 40.36884600000016,
                    "velocity": 0.5826771653543307,
                    "duration": 0.10245900000000319
                },
                {
                    "name": "A5",
                    "midi": 81,
                    "time": 40.471305000000164,
                    "velocity": 0.5826771653543307,
                    "duration": 0.10245900000000319
                },
                {
                    "name": "A#5",
                    "midi": 82,
                    "time": 40.57376400000017,
                    "velocity": 0.6456692913385826,
                    "duration": 0.10245900000000319
                },
                {
                    "name": "F5",
                    "midi": 77,
                    "time": 40.67622300000017,
                    "velocity": 0.5984251968503937,
                    "duration": 0.10245900000000319
                },
                {
                    "name": "D6",
                    "midi": 86,
                    "time": 40.778682000000174,
                    "velocity": 0.5354330708661418,
                    "duration": 0.10245900000000319
                },
                {
                    "name": "F6",
                    "midi": 89,
                    "time": 40.88114100000018,
                    "velocity": 0.6850393700787402,
                    "duration": 0.10245900000000319
                },
                {
                    "name": "F5",
                    "midi": 77,
                    "time": 40.98360000000018,
                    "velocity": 0.6377952755905512,
                    "duration": 0.10245900000000319
                },
                {
                    "name": "A5",
                    "midi": 81,
                    "time": 41.08605900000018,
                    "velocity": 0.6614173228346457,
                    "duration": 0.10245900000000319
                },
                {
                    "name": "A#5",
                    "midi": 82,
                    "time": 41.18851800000019,
                    "velocity": 0.7322834645669292,
                    "duration": 0.10245900000000319
                },
                {
                    "name": "E5",
                    "midi": 76,
                    "time": 41.29097700000019,
                    "velocity": 0.5826771653543307,
                    "duration": 0.10245900000000319
                },
                {
                    "name": "G#5",
                    "midi": 80,
                    "time": 41.39343600000019,
                    "velocity": 0.5511811023622047,
                    "duration": 0.10245900000000319
                },
                {
                    "name": "A5",
                    "midi": 81,
                    "time": 41.495895000000196,
                    "velocity": 0.6456692913385826,
                    "duration": 0.10245900000000319
                },
                {
                    "name": "F5",
                    "midi": 77,
                    "time": 41.5983540000002,
                    "velocity": 0.5590551181102362,
                    "duration": 0.10245900000000319
                },
                {
                    "name": "A5",
                    "midi": 81,
                    "time": 41.7008130000002,
                    "velocity": 0.4881889763779528,
                    "duration": 0.10245900000000319
                },
                {
                    "name": "A#5",
                    "midi": 82,
                    "time": 41.803272000000206,
                    "velocity": 0.6456692913385826,
                    "duration": 0.10245900000000319
                },
                {
                    "name": "F5",
                    "midi": 77,
                    "time": 41.90573100000021,
                    "velocity": 0.5984251968503937,
                    "duration": 0.10245900000000319
                },
                {
                    "name": "D6",
                    "midi": 86,
                    "time": 42.00819000000021,
                    "velocity": 0.5669291338582677,
                    "duration": 0.10245900000000319
                },
                {
                    "name": "F6",
                    "midi": 89,
                    "time": 42.110649000000215,
                    "velocity": 0.6850393700787402,
                    "duration": 0.10245900000000319
                },
                {
                    "name": "F5",
                    "midi": 77,
                    "time": 42.21310800000022,
                    "velocity": 0.6377952755905512,
                    "duration": 0.10245900000000319
                },
                {
                    "name": "A5",
                    "midi": 81,
                    "time": 42.31556700000022,
                    "velocity": 0.6614173228346457,
                    "duration": 0.10245900000000319
                },
                {
                    "name": "A#5",
                    "midi": 82,
                    "time": 42.418026000000225,
                    "velocity": 0.7322834645669292,
                    "duration": 0.10245900000000319
                },
                {
                    "name": "E5",
                    "midi": 76,
                    "time": 42.52048500000023,
                    "velocity": 0.6377952755905512,
                    "duration": 0.10245900000000319
                },
                {
                    "name": "G#5",
                    "midi": 80,
                    "time": 42.62294400000023,
                    "velocity": 0.5826771653543307,
                    "duration": 0.10245900000000319
                },
                {
                    "name": "A5",
                    "midi": 81,
                    "time": 42.725403000000234,
                    "velocity": 0.6456692913385826,
                    "duration": 0.10245900000000319
                },
                {
                    "name": "E5",
                    "midi": 76,
                    "time": 42.82786200000024,
                    "velocity": 0.5590551181102362,
                    "duration": 0.10245900000000319
                },
                {
                    "name": "A5",
                    "midi": 81,
                    "time": 42.93032100000024,
                    "velocity": 0.5196850393700787,
                    "duration": 0.10245900000000319
                },
                {
                    "name": "D6",
                    "midi": 86,
                    "time": 43.032780000000244,
                    "velocity": 0.6456692913385826,
                    "duration": 0.10245900000000319
                },
                {
                    "name": "D5",
                    "midi": 74,
                    "time": 43.13523900000025,
                    "velocity": 0.5590551181102362,
                    "duration": 0.10245900000000319
                },
                {
                    "name": "G5",
                    "midi": 79,
                    "time": 43.23769800000025,
                    "velocity": 0.4645669291338583,
                    "duration": 0.10245900000000319
                },
                {
                    "name": "A5",
                    "midi": 81,
                    "time": 43.340157000000254,
                    "velocity": 0.6299212598425197,
                    "duration": 0.10245900000000319
                },
                {
                    "name": "D5",
                    "midi": 74,
                    "time": 43.44261600000026,
                    "velocity": 0.5511811023622047,
                    "duration": 0.10245900000000319
                },
                {
                    "name": "G5",
                    "midi": 79,
                    "time": 43.54507500000026,
                    "velocity": 0.4881889763779528,
                    "duration": 0.10245900000000319
                },
                {
                    "name": "C6",
                    "midi": 84,
                    "time": 43.64753400000026,
                    "velocity": 0.6062992125984252,
                    "duration": 0.10245900000000319
                },
                {
                    "name": "C5",
                    "midi": 72,
                    "time": 43.749993000000266,
                    "velocity": 0.5275590551181102,
                    "duration": 0.10245900000000319
                },
                {
                    "name": "F5",
                    "midi": 77,
                    "time": 43.85245200000027,
                    "velocity": 0.4645669291338583,
                    "duration": 0.10245900000000319
                },
                {
                    "name": "G5",
                    "midi": 79,
                    "time": 43.95491100000027,
                    "velocity": 0.5748031496062992,
                    "duration": 0.10245900000000319
                },
                {
                    "name": "C5",
                    "midi": 72,
                    "time": 44.057370000000276,
                    "velocity": 0.48031496062992124,
                    "duration": 0.10245900000000319
                },
                {
                    "name": "F5",
                    "midi": 77,
                    "time": 44.15982900000028,
                    "velocity": 0.4251968503937008,
                    "duration": 0.10245900000000319
                },
                {
                    "name": "A#5",
                    "midi": 82,
                    "time": 44.26228800000028,
                    "velocity": 0.5669291338582677,
                    "duration": 0.10245900000000319
                },
                {
                    "name": "A#4",
                    "midi": 70,
                    "time": 44.364747000000285,
                    "velocity": 0.5196850393700787,
                    "duration": 0.10245900000000319
                },
                {
                    "name": "E5",
                    "midi": 76,
                    "time": 44.46720600000029,
                    "velocity": 0.41732283464566927,
                    "duration": 0.10245900000000319
                },
                {
                    "name": "F5",
                    "midi": 77,
                    "time": 44.56966500000029,
                    "velocity": 0.5433070866141733,
                    "duration": 0.10245900000000319
                },
                {
                    "name": "A#4",
                    "midi": 70,
                    "time": 44.672124000000295,
                    "velocity": 0.47244094488188976,
                    "duration": 0.10245900000000319
                },
                {
                    "name": "E5",
                    "midi": 76,
                    "time": 44.7745830000003,
                    "velocity": 0.4251968503937008,
                    "duration": 0.10245900000000319
                },
                {
                    "name": "A5",
                    "midi": 81,
                    "time": 44.8770420000003,
                    "velocity": 0.5354330708661418,
                    "duration": 0.10245900000000319
                },
                {
                    "name": "A4",
                    "midi": 69,
                    "time": 44.979501000000305,
                    "velocity": 0.4645669291338583,
                    "duration": 0.10245900000000319
                },
                {
                    "name": "D5",
                    "midi": 74,
                    "time": 45.08196000000031,
                    "velocity": 0.4094488188976378,
                    "duration": 0.10245900000000319
                },
                {
                    "name": "E5",
                    "midi": 76,
                    "time": 45.18441900000031,
                    "velocity": 0.5118110236220472,
                    "duration": 0.10245900000000319
                },
                {
                    "name": "A4",
                    "midi": 69,
                    "time": 45.286878000000314,
                    "velocity": 0.4251968503937008,
                    "duration": 0.10245900000000319
                },
                {
                    "name": "D5",
                    "midi": 74,
                    "time": 45.38933700000032,
                    "velocity": 0.3779527559055118,
                    "duration": 0.10245900000000319
                },
                {
                    "name": "D#5",
                    "midi": 75,
                    "time": 45.49179600000032,
                    "velocity": 0.5748031496062992,
                    "duration": 0.10245900000000319
                },
                {
                    "name": "A#4",
                    "midi": 70,
                    "time": 45.594255000000324,
                    "velocity": 0.5354330708661418,
                    "duration": 0.10245900000000319
                },
                {
                    "name": "G5",
                    "midi": 79,
                    "time": 45.69671400000033,
                    "velocity": 0.5118110236220472,
                    "duration": 0.10245900000000319
                },
                {
                    "name": "A#5",
                    "midi": 82,
                    "time": 45.79917300000033,
                    "velocity": 0.6062992125984252,
                    "duration": 0.10245900000000319
                },
                {
                    "name": "A#4",
                    "midi": 70,
                    "time": 45.90163200000033,
                    "velocity": 0.5669291338582677,
                    "duration": 0.10245900000000319
                },
                {
                    "name": "D5",
                    "midi": 74,
                    "time": 46.00409100000034,
                    "velocity": 0.5984251968503937,
                    "duration": 0.10245900000000319
                },
                {
                    "name": "G5",
                    "midi": 79,
                    "time": 46.10655000000034,
                    "velocity": 0.6535433070866141,
                    "duration": 0.10245900000000319
                },
                {
                    "name": "A#4",
                    "midi": 70,
                    "time": 46.20900900000034,
                    "velocity": 0.5669291338582677,
                    "duration": 0.10245900000000319
                },
                {
                    "name": "D5",
                    "midi": 74,
                    "time": 46.311468000000346,
                    "velocity": 0.5275590551181102,
                    "duration": 0.10245900000000319
                },
                {
                    "name": "D#5",
                    "midi": 75,
                    "time": 46.41392700000035,
                    "velocity": 0.5748031496062992,
                    "duration": 0.10245900000000319
                },
                {
                    "name": "A#4",
                    "midi": 70,
                    "time": 46.51638600000035,
                    "velocity": 0.5196850393700787,
                    "duration": 0.10245900000000319
                },
                {
                    "name": "D5",
                    "midi": 74,
                    "time": 46.618845000000356,
                    "velocity": 0.44881889763779526,
                    "duration": 0.10245900000000319
                },
                {
                    "name": "D#5",
                    "midi": 75,
                    "time": 46.72130400000036,
                    "velocity": 0.5748031496062992,
                    "duration": 0.10245900000000319
                },
                {
                    "name": "A#4",
                    "midi": 70,
                    "time": 46.82376300000036,
                    "velocity": 0.5354330708661418,
                    "duration": 0.10245900000000319
                },
                {
                    "name": "G5",
                    "midi": 79,
                    "time": 46.926222000000365,
                    "velocity": 0.5118110236220472,
                    "duration": 0.10245900000000319
                },
                {
                    "name": "A#5",
                    "midi": 82,
                    "time": 47.02868100000037,
                    "velocity": 0.6062992125984252,
                    "duration": 0.10245900000000319
                },
                {
                    "name": "A#4",
                    "midi": 70,
                    "time": 47.13114000000037,
                    "velocity": 0.5669291338582677,
                    "duration": 0.10245900000000319
                },
                {
                    "name": "D5",
                    "midi": 74,
                    "time": 47.233599000000375,
                    "velocity": 0.5984251968503937,
                    "duration": 0.10245900000000319
                },
                {
                    "name": "G5",
                    "midi": 79,
                    "time": 47.33605800000038,
                    "velocity": 0.6535433070866141,
                    "duration": 0.10245900000000319
                },
                {
                    "name": "A#4",
                    "midi": 70,
                    "time": 47.43851700000038,
                    "velocity": 0.5669291338582677,
                    "duration": 0.10245900000000319
                },
                {
                    "name": "D5",
                    "midi": 74,
                    "time": 47.540976000000384,
                    "velocity": 0.5275590551181102,
                    "duration": 0.10245900000000319
                },
                {
                    "name": "D#5",
                    "midi": 75,
                    "time": 47.64343500000039,
                    "velocity": 0.5748031496062992,
                    "duration": 0.10245900000000319
                },
                {
                    "name": "B4",
                    "midi": 71,
                    "time": 47.74589400000039,
                    "velocity": 0.49606299212598426,
                    "duration": 0.10245900000000319
                },
                {
                    "name": "D#5",
                    "midi": 75,
                    "time": 47.848353000000394,
                    "velocity": 0.44881889763779526,
                    "duration": 0.10245900000000319
                },
                {
                    "name": "F#5",
                    "midi": 78,
                    "time": 47.9508120000004,
                    "velocity": 0.5984251968503937,
                    "duration": 0.10245900000000319
                },
                {
                    "name": "F#4",
                    "midi": 66,
                    "time": 48.0532710000004,
                    "velocity": 0.49606299212598426,
                    "duration": 0.10245900000000319
                },
                {
                    "name": "B4",
                    "midi": 71,
                    "time": 48.1557300000004,
                    "velocity": 0.5433070866141733,
                    "duration": 0.10245900000000319
                },
                {
                    "name": "D#5",
                    "midi": 75,
                    "time": 48.25818900000041,
                    "velocity": 0.5984251968503937,
                    "duration": 0.10245900000000319
                },
                {
                    "name": "D#4",
                    "midi": 63,
                    "time": 48.36064800000041,
                    "velocity": 0.5196850393700787,
                    "duration": 0.10245900000000319
                },
                {
                    "name": "F#4",
                    "midi": 66,
                    "time": 48.46310700000041,
                    "velocity": 0.5196850393700787,
                    "duration": 0.10245900000000319
                },
                {
                    "name": "B4",
                    "midi": 71,
                    "time": 48.565566000000416,
                    "velocity": 0.5748031496062992,
                    "duration": 0.10245900000000319
                },
                {
                    "name": "C#4",
                    "midi": 61,
                    "time": 48.66802500000042,
                    "velocity": 0.4881889763779528,
                    "duration": 0.10245900000000319
                },
                {
                    "name": "G4",
                    "midi": 67,
                    "time": 48.77048400000042,
                    "velocity": 0.44881889763779526,
                    "duration": 0.10245900000000319
                },
                {
                    "name": "A#4",
                    "midi": 70,
                    "time": 48.872943000000426,
                    "velocity": 0.5433070866141733,
                    "duration": 0.10245900000000319
                },
                {
                    "name": "C4",
                    "midi": 60,
                    "time": 48.97540200000043,
                    "velocity": 0.4645669291338583,
                    "duration": 0.10245900000000319
                },
                {
                    "name": "D#4",
                    "midi": 63,
                    "time": 49.07786100000043,
                    "velocity": 0.4330708661417323,
                    "duration": 0.10245900000000319
                },
                {
                    "name": "A4",
                    "midi": 69,
                    "time": 49.180320000000435,
                    "velocity": 0.5275590551181102,
                    "duration": 0.10245900000000319
                },
                {
                    "name": "A#3",
                    "midi": 58,
                    "time": 49.28277900000044,
                    "velocity": 0.44881889763779526,
                    "duration": 0.10245900000000319
                },
                {
                    "name": "D4",
                    "midi": 62,
                    "time": 49.38523800000044,
                    "velocity": 0.4094488188976378,
                    "duration": 0.10245900000000319
                },
                {
                    "name": "G4",
                    "midi": 67,
                    "time": 49.487697000000445,
                    "velocity": 0.5826771653543307,
                    "duration": 0.10245900000000319
                },
                {
                    "name": "B3",
                    "midi": 59,
                    "time": 49.59015600000045,
                    "velocity": 0.44881889763779526,
                    "duration": 0.10245900000000319
                },
                {
                    "name": "D4",
                    "midi": 62,
                    "time": 49.69261500000045,
                    "velocity": 0.4094488188976378,
                    "duration": 0.10245900000000319
                },
                {
                    "name": "F4",
                    "midi": 65,
                    "time": 49.795074000000454,
                    "velocity": 0.5984251968503937,
                    "duration": 0.10245900000000319
                },
                {
                    "name": "A3",
                    "midi": 57,
                    "time": 49.89753300000046,
                    "velocity": 0.4881889763779528,
                    "duration": 0.10245900000000319
                },
                {
                    "name": "C#4",
                    "midi": 61,
                    "time": 49.99999200000046,
                    "velocity": 0.44881889763779526,
                    "duration": 0.10245900000000319
                },
                {
                    "name": "E4",
                    "midi": 64,
                    "time": 50.102451000000464,
                    "velocity": 0.5984251968503937,
                    "duration": 0.10245900000000319
                },
                {
                    "name": "G3",
                    "midi": 55,
                    "time": 50.20491000000047,
                    "velocity": 0.48031496062992124,
                    "duration": 0.10245900000000319
                },
                {
                    "name": "A3",
                    "midi": 57,
                    "time": 50.30736900000047,
                    "velocity": 0.4330708661417323,
                    "duration": 0.10245900000000319
                },
                {
                    "name": "A#3",
                    "midi": 58,
                    "time": 50.40982800000047,
                    "velocity": 0.6062992125984252,
                    "duration": 0.10245900000000319
                },
                {
                    "name": "E3",
                    "midi": 52,
                    "time": 50.51228700000048,
                    "velocity": 0.44881889763779526,
                    "duration": 0.10245900000000319
                },
                {
                    "name": "C#4",
                    "midi": 61,
                    "time": 50.61474600000048,
                    "velocity": 0.4015748031496063,
                    "duration": 0.10245900000000319
                },
                {
                    "name": "E4",
                    "midi": 64,
                    "time": 50.71720500000048,
                    "velocity": 0.49606299212598426,
                    "duration": 0.10245900000000319
                },
                {
                    "name": "G3",
                    "midi": 55,
                    "time": 50.819664000000486,
                    "velocity": 0.3700787401574803,
                    "duration": 0.10245900000000319
                },
                {
                    "name": "A3",
                    "midi": 57,
                    "time": 50.92212300000049,
                    "velocity": 0.3700787401574803,
                    "duration": 0.10245900000000319
                },
                {
                    "name": "A#3",
                    "midi": 58,
                    "time": 51.02458200000049,
                    "velocity": 0.49606299212598426,
                    "duration": 0.10245900000000319
                },
                {
                    "name": "F3",
                    "midi": 53,
                    "time": 51.127041000000496,
                    "velocity": 0.3779527559055118,
                    "duration": 0.10245900000000319
                },
                {
                    "name": "D4",
                    "midi": 62,
                    "time": 51.2295000000005,
                    "velocity": 0.3779527559055118,
                    "duration": 0.10245900000000319
                },
                {
                    "name": "F4",
                    "midi": 65,
                    "time": 51.3319590000005,
                    "velocity": 0.4881889763779528,
                    "duration": 0.10245900000000319
                },
                {
                    "name": "A3",
                    "midi": 57,
                    "time": 51.434418000000505,
                    "velocity": 0.3700787401574803,
                    "duration": 0.10245900000000319
                },
                {
                    "name": "C4",
                    "midi": 60,
                    "time": 51.53687700000051,
                    "velocity": 0.3700787401574803,
                    "duration": 0.10245900000000319
                },
                {
                    "name": "C#4",
                    "midi": 61,
                    "time": 51.63933600000051,
                    "velocity": 0.4881889763779528,
                    "duration": 0.10245900000000319
                },
                {
                    "name": "G3",
                    "midi": 55,
                    "time": 51.741795000000515,
                    "velocity": 0.3700787401574803,
                    "duration": 0.10245900000000319
                },
                {
                    "name": "E4",
                    "midi": 64,
                    "time": 51.84425400000052,
                    "velocity": 0.3700787401574803,
                    "duration": 0.10245900000000319
                },
                {
                    "name": "G4",
                    "midi": 67,
                    "time": 51.94671300000052,
                    "velocity": 0.4881889763779528,
                    "duration": 0.10245900000000319
                },
                {
                    "name": "A#3",
                    "midi": 58,
                    "time": 52.049172000000524,
                    "velocity": 0.5354330708661418,
                    "duration": 0.10245900000000319
                },
                {
                    "name": "D4",
                    "midi": 62,
                    "time": 52.15163100000053,
                    "velocity": 0.3700787401574803,
                    "duration": 0.10245900000000319
                },
                {
                    "name": "D#4",
                    "midi": 63,
                    "time": 52.25409000000053,
                    "velocity": 0.4881889763779528,
                    "duration": 0.10245900000000319
                },
                {
                    "name": "A3",
                    "midi": 57,
                    "time": 52.356549000000534,
                    "velocity": 0.36220472440944884,
                    "duration": 0.10245900000000319
                },
                {
                    "name": "A4",
                    "midi": 69,
                    "time": 52.45900800000054,
                    "velocity": 0.3700787401574803,
                    "duration": 0.10245900000000319
                },
                {
                    "name": "C5",
                    "midi": 72,
                    "time": 52.56146700000054,
                    "velocity": 0.4881889763779528,
                    "duration": 0.10245900000000319
                },
                {
                    "name": "C4",
                    "midi": 60,
                    "time": 52.663926000000544,
                    "velocity": 0.3779527559055118,
                    "duration": 0.10245900000000319
                },
                {
                    "name": "D4",
                    "midi": 62,
                    "time": 52.76638500000055,
                    "velocity": 0.3858267716535433,
                    "duration": 0.10245900000000319
                },
                {
                    "name": "D#4",
                    "midi": 63,
                    "time": 52.86884400000055,
                    "velocity": 0.5118110236220472,
                    "duration": 0.10245900000000319
                },
                {
                    "name": "A#3",
                    "midi": 58,
                    "time": 52.97130300000055,
                    "velocity": 0.3858267716535433,
                    "duration": 0.10245900000000319
                },
                {
                    "name": "G4",
                    "midi": 67,
                    "time": 53.073762000000556,
                    "velocity": 0.3858267716535433,
                    "duration": 0.10245900000000319
                },
                {
                    "name": "A#4",
                    "midi": 70,
                    "time": 53.17622100000056,
                    "velocity": 0.5118110236220472,
                    "duration": 0.10245900000000319
                },
                {
                    "name": "D4",
                    "midi": 62,
                    "time": 53.27868000000056,
                    "velocity": 0.3937007874015748,
                    "duration": 0.10245900000000319
                },
                {
                    "name": "E4",
                    "midi": 64,
                    "time": 53.381139000000566,
                    "velocity": 0.3937007874015748,
                    "duration": 0.10245900000000319
                },
                {
                    "name": "F4",
                    "midi": 65,
                    "time": 53.48359800000057,
                    "velocity": 0.5275590551181102,
                    "duration": 0.10245900000000319
                },
                {
                    "name": "B3",
                    "midi": 59,
                    "time": 53.58605700000057,
                    "velocity": 0.4015748031496063,
                    "duration": 0.10245900000000319
                },
                {
                    "name": "B4",
                    "midi": 71,
                    "time": 53.688516000000575,
                    "velocity": 0.4015748031496063,
                    "duration": 0.10245900000000319
                },
                {
                    "name": "D5",
                    "midi": 74,
                    "time": 53.79097500000058,
                    "velocity": 0.5275590551181102,
                    "duration": 0.10245900000000319
                },
                {
                    "name": "F4",
                    "midi": 65,
                    "time": 53.89343400000058,
                    "velocity": 0.4094488188976378,
                    "duration": 0.10245900000000319
                },
                {
                    "name": "G4",
                    "midi": 67,
                    "time": 53.995893000000585,
                    "velocity": 0.4094488188976378,
                    "duration": 0.10245900000000319
                },
                {
                    "name": "G#4",
                    "midi": 68,
                    "time": 54.09835200000059,
                    "velocity": 0.5433070866141733,
                    "duration": 0.10245900000000319
                },
                {
                    "name": "D4",
                    "midi": 62,
                    "time": 54.20081100000059,
                    "velocity": 0.4094488188976378,
                    "duration": 0.10245900000000319
                },
                {
                    "name": "D5",
                    "midi": 74,
                    "time": 54.303270000000595,
                    "velocity": 0.4409448818897638,
                    "duration": 0.10245900000000319
                },
                {
                    "name": "F5",
                    "midi": 77,
                    "time": 54.4057290000006,
                    "velocity": 0.5590551181102362,
                    "duration": 0.10245900000000319
                },
                {
                    "name": "F4",
                    "midi": 65,
                    "time": 54.5081880000006,
                    "velocity": 0.44881889763779526,
                    "duration": 0.10245900000000319
                },
                {
                    "name": "G#4",
                    "midi": 68,
                    "time": 54.610647000000604,
                    "velocity": 0.4645669291338583,
                    "duration": 0.10245900000000319
                },
                {
                    "name": "A4",
                    "midi": 69,
                    "time": 54.71310600000061,
                    "velocity": 0.5984251968503937,
                    "duration": 0.10245900000000319
                },
                {
                    "name": "E4",
                    "midi": 64,
                    "time": 54.81556500000061,
                    "velocity": 0.49606299212598426,
                    "duration": 0.10245900000000319
                },
                {
                    "name": "C#5",
                    "midi": 73,
                    "time": 54.918024000000614,
                    "velocity": 0.49606299212598426,
                    "duration": 0.10245900000000319
                },
                {
                    "name": "E5",
                    "midi": 76,
                    "time": 55.02048300000062,
                    "velocity": 0.6062992125984252,
                    "duration": 0.10245900000000319
                },
                {
                    "name": "G4",
                    "midi": 67,
                    "time": 55.12294200000062,
                    "velocity": 0.5196850393700787,
                    "duration": 0.10245900000000319
                },
                {
                    "name": "A4",
                    "midi": 69,
                    "time": 55.22540100000062,
                    "velocity": 0.5275590551181102,
                    "duration": 0.10245900000000319
                },
                {
                    "name": "A#4",
                    "midi": 70,
                    "time": 55.327860000000626,
                    "velocity": 0.6377952755905512,
                    "duration": 0.10245900000000319
                },
                {
                    "name": "E4",
                    "midi": 64,
                    "time": 55.43031900000063,
                    "velocity": 0.49606299212598426,
                    "duration": 0.10245900000000319
                },
                {
                    "name": "C#5",
                    "midi": 73,
                    "time": 55.53277800000063,
                    "velocity": 0.4645669291338583,
                    "duration": 0.10245900000000319
                },
                {
                    "name": "E5",
                    "midi": 76,
                    "time": 55.635237000000636,
                    "velocity": 0.5669291338582677,
                    "duration": 0.10245900000000319
                },
                {
                    "name": "G4",
                    "midi": 67,
                    "time": 55.73769600000064,
                    "velocity": 0.4094488188976378,
                    "duration": 0.10245900000000319
                },
                {
                    "name": "A4",
                    "midi": 69,
                    "time": 55.84015500000064,
                    "velocity": 0.4094488188976378,
                    "duration": 0.10245900000000319
                },
                {
                    "name": "A#4",
                    "midi": 70,
                    "time": 55.942614000000646,
                    "velocity": 0.5748031496062992,
                    "duration": 0.10245900000000319
                },
                {
                    "name": "F4",
                    "midi": 65,
                    "time": 56.04507300000065,
                    "velocity": 0.4330708661417323,
                    "duration": 0.10245900000000319
                },
                {
                    "name": "D5",
                    "midi": 74,
                    "time": 56.14753200000065,
                    "velocity": 0.4330708661417323,
                    "duration": 0.10245900000000319
                },
                {
                    "name": "F5",
                    "midi": 77,
                    "time": 56.249991000000655,
                    "velocity": 0.5511811023622047,
                    "duration": 0.10245900000000319
                },
                {
                    "name": "A4",
                    "midi": 69,
                    "time": 56.35245000000066,
                    "velocity": 0.4251968503937008,
                    "duration": 0.10245900000000319
                },
                {
                    "name": "C5",
                    "midi": 72,
                    "time": 56.45490900000066,
                    "velocity": 0.4330708661417323,
                    "duration": 0.10245900000000319
                },
                {
                    "name": "C#5",
                    "midi": 73,
                    "time": 56.557368000000665,
                    "velocity": 0.5826771653543307,
                    "duration": 0.10245900000000319
                },
                {
                    "name": "G4",
                    "midi": 67,
                    "time": 56.65982700000067,
                    "velocity": 0.4251968503937008,
                    "duration": 0.10245900000000319
                },
                {
                    "name": "E5",
                    "midi": 76,
                    "time": 56.76228600000067,
                    "velocity": 0.4330708661417323,
                    "duration": 0.10245900000000319
                },
                {
                    "name": "G5",
                    "midi": 79,
                    "time": 56.864745000000674,
                    "velocity": 0.5669291338582677,
                    "duration": 0.10245900000000319
                },
                {
                    "name": "A#4",
                    "midi": 70,
                    "time": 56.96720400000068,
                    "velocity": 0.4251968503937008,
                    "duration": 0.10245900000000319
                },
                {
                    "name": "D5",
                    "midi": 74,
                    "time": 57.06966300000068,
                    "velocity": 0.4251968503937008,
                    "duration": 0.10245900000000319
                },
                {
                    "name": "D#5",
                    "midi": 75,
                    "time": 57.172122000000684,
                    "velocity": 0.5748031496062992,
                    "duration": 0.10245900000000319
                },
                {
                    "name": "A4",
                    "midi": 69,
                    "time": 57.27458100000069,
                    "velocity": 0.4094488188976378,
                    "duration": 0.10245900000000319
                },
                {
                    "name": "A5",
                    "midi": 81,
                    "time": 57.37704000000069,
                    "velocity": 0.4251968503937008,
                    "duration": 0.10245900000000319
                },
                {
                    "name": "C6",
                    "midi": 84,
                    "time": 57.47949900000069,
                    "velocity": 0.5590551181102362,
                    "duration": 0.10245900000000319
                },
                {
                    "name": "C5",
                    "midi": 72,
                    "time": 57.5819580000007,
                    "velocity": 0.4094488188976378,
                    "duration": 0.10245900000000319
                },
                {
                    "name": "D5",
                    "midi": 74,
                    "time": 57.6844170000007,
                    "velocity": 0.4330708661417323,
                    "duration": 0.10245900000000319
                },
                {
                    "name": "D#5",
                    "midi": 75,
                    "time": 57.7868760000007,
                    "velocity": 0.5669291338582677,
                    "duration": 0.10245900000000319
                },
                {
                    "name": "A#4",
                    "midi": 70,
                    "time": 57.889335000000706,
                    "velocity": 0.44881889763779526,
                    "duration": 0.10245900000000319
                },
                {
                    "name": "G5",
                    "midi": 79,
                    "time": 57.99179400000071,
                    "velocity": 0.44881889763779526,
                    "duration": 0.10245900000000319
                },
                {
                    "name": "A#5",
                    "midi": 82,
                    "time": 58.09425300000071,
                    "velocity": 0.5826771653543307,
                    "duration": 0.10245900000000319
                },
                {
                    "name": "D5",
                    "midi": 74,
                    "time": 58.196712000000716,
                    "velocity": 0.44881889763779526,
                    "duration": 0.10245900000000319
                },
                {
                    "name": "E5",
                    "midi": 76,
                    "time": 58.29917100000072,
                    "velocity": 0.44881889763779526,
                    "duration": 0.10245900000000319
                },
                {
                    "name": "F5",
                    "midi": 77,
                    "time": 58.40163000000072,
                    "velocity": 0.6220472440944882,
                    "duration": 0.10245900000000319
                },
                {
                    "name": "B4",
                    "midi": 71,
                    "time": 58.504089000000725,
                    "velocity": 0.44881889763779526,
                    "duration": 0.10245900000000319
                },
                {
                    "name": "D6",
                    "midi": 86,
                    "time": 58.60654800000073,
                    "velocity": 0.44881889763779526,
                    "duration": 0.10245900000000319
                },
                {
                    "name": "F6",
                    "midi": 89,
                    "time": 58.70900700000073,
                    "velocity": 0.6220472440944882,
                    "duration": 0.10245900000000319
                },
                {
                    "name": "F5",
                    "midi": 77,
                    "time": 58.811466000000735,
                    "velocity": 0.48031496062992124,
                    "duration": 0.10245900000000319
                },
                {
                    "name": "B5",
                    "midi": 83,
                    "time": 58.91392500000074,
                    "velocity": 0.48031496062992124,
                    "duration": 0.10245900000000319
                },
                {
                    "name": "C#6",
                    "midi": 85,
                    "time": 59.01638400000074,
                    "velocity": 0.6456692913385826,
                    "duration": 0.10245900000000319
                },
                {
                    "name": "E5",
                    "midi": 76,
                    "time": 59.118843000000744,
                    "velocity": 0.4881889763779528,
                    "duration": 0.10245900000000319
                },
                {
                    "name": "E6",
                    "midi": 88,
                    "time": 59.22130200000075,
                    "velocity": 0.5118110236220472,
                    "duration": 0.10245900000000319
                },
                {
                    "name": "A6",
                    "midi": 93,
                    "time": 59.32376100000075,
                    "velocity": 0.6456692913385826,
                    "duration": 0.10245900000000319
                },
                {
                    "name": "A5",
                    "midi": 81,
                    "time": 59.426220000000754,
                    "velocity": 0.5275590551181102,
                    "duration": 0.10245900000000319
                },
                {
                    "name": "D6",
                    "midi": 86,
                    "time": 59.52867900000076,
                    "velocity": 0.6299212598425197,
                    "duration": 0.10245900000000319
                },
                {
                    "name": "D7",
                    "midi": 98,
                    "time": 59.63113800000076,
                    "velocity": 0.7480314960629921,
                    "duration": 0.15368850000000123
                },
                {
                    "name": "G5",
                    "midi": 79,
                    "time": 60.14343300000076,
                    "velocity": 0.3543307086614173,
                    "duration": 0.10245900000000319
                },
                {
                    "name": "F5",
                    "midi": 77,
                    "time": 60.245892000000765,
                    "velocity": 0.4015748031496063,
                    "duration": 0.10245900000000319
                },
                {
                    "name": "A#4",
                    "midi": 70,
                    "time": 60.34835100000077,
                    "velocity": 0.2755905511811024,
                    "duration": 0.10245900000000319
                },
                {
                    "name": "D5",
                    "midi": 74,
                    "time": 60.45081000000077,
                    "velocity": 0.2755905511811024,
                    "duration": 0.10245900000000319
                },
                {
                    "name": "F4",
                    "midi": 65,
                    "time": 60.553269000000775,
                    "velocity": 0.23622047244094488,
                    "duration": 0.10245900000000319
                },
                {
                    "name": "A#3",
                    "midi": 58,
                    "time": 60.65572800000078,
                    "velocity": 0.1889763779527559,
                    "duration": 0.10245900000000319
                },
                {
                    "name": "D#5",
                    "midi": 75,
                    "time": 60.75818700000078,
                    "velocity": 0.3700787401574803,
                    "duration": 0.10245900000000319
                },
                {
                    "name": "D5",
                    "midi": 74,
                    "time": 60.860646000000784,
                    "velocity": 0.4015748031496063,
                    "duration": 0.10245900000000319
                },
                {
                    "name": "F4",
                    "midi": 65,
                    "time": 60.96310500000079,
                    "velocity": 0.28346456692913385,
                    "duration": 0.10245900000000319
                },
                {
                    "name": "A#4",
                    "midi": 70,
                    "time": 61.06556400000079,
                    "velocity": 0.2755905511811024,
                    "duration": 0.10245900000000319
                },
                {
                    "name": "D4",
                    "midi": 62,
                    "time": 61.168023000000794,
                    "velocity": 0.2125984251968504,
                    "duration": 0.10245900000000319
                },
                {
                    "name": "A#3",
                    "midi": 58,
                    "time": 61.2704820000008,
                    "velocity": 0.18110236220472442,
                    "duration": 0.10245900000000319
                },
                {
                    "name": "D5",
                    "midi": 74,
                    "time": 61.3729410000008,
                    "velocity": 0.3937007874015748,
                    "duration": 0.10245900000000319
                },
                {
                    "name": "C5",
                    "midi": 72,
                    "time": 61.4754000000008,
                    "velocity": 0.4015748031496063,
                    "duration": 0.10245900000000319
                },
                {
                    "name": "F4",
                    "midi": 65,
                    "time": 61.57785900000081,
                    "velocity": 0.2755905511811024,
                    "duration": 0.10245900000000319
                },
                {
                    "name": "F#4",
                    "midi": 66,
                    "time": 61.68031800000081,
                    "velocity": 0.2755905511811024,
                    "duration": 0.10245900000000319
                },
                {
                    "name": "D#4",
                    "midi": 63,
                    "time": 61.78277700000081,
                    "velocity": 0.2283464566929134,
                    "duration": 0.10245900000000319
                },
                {
                    "name": "A#3",
                    "midi": 58,
                    "time": 61.885236000000816,
                    "velocity": 0.18110236220472442,
                    "duration": 0.10245900000000319
                },
                {
                    "name": "D5",
                    "midi": 74,
                    "time": 61.98769500000082,
                    "velocity": 0.3779527559055118,
                    "duration": 0.10245900000000319
                },
                {
                    "name": "D#5",
                    "midi": 75,
                    "time": 62.09015400000082,
                    "velocity": 0.4094488188976378,
                    "duration": 0.10245900000000319
                },
                {
                    "name": "F4",
                    "midi": 65,
                    "time": 62.192613000000826,
                    "velocity": 0.2992125984251969,
                    "duration": 0.10245900000000319
                },
                {
                    "name": "F#4",
                    "midi": 66,
                    "time": 62.29507200000083,
                    "velocity": 0.28346456692913385,
                    "duration": 0.10245900000000319
                },
                {
                    "name": "D#4",
                    "midi": 63,
                    "time": 62.39753100000083,
                    "velocity": 0.25984251968503935,
                    "duration": 0.10245900000000319
                },
                {
                    "name": "A#3",
                    "midi": 58,
                    "time": 62.499990000000835,
                    "velocity": 0.2440944881889764,
                    "duration": 0.10245900000000319
                },
                {
                    "name": "D5",
                    "midi": 74,
                    "time": 62.60244900000084,
                    "velocity": 0.41732283464566927,
                    "duration": 0.10245900000000319
                },
                {
                    "name": "C5",
                    "midi": 72,
                    "time": 62.70490800000084,
                    "velocity": 0.4251968503937008,
                    "duration": 0.10245900000000319
                },
                {
                    "name": "F4",
                    "midi": 65,
                    "time": 62.807367000000845,
                    "velocity": 0.2992125984251969,
                    "duration": 0.10245900000000319
                },
                {
                    "name": "F#4",
                    "midi": 66,
                    "time": 62.90982600000085,
                    "velocity": 0.2992125984251969,
                    "duration": 0.10245900000000319
                },
                {
                    "name": "D#4",
                    "midi": 63,
                    "time": 63.01228500000085,
                    "velocity": 0.25196850393700787,
                    "duration": 0.10245900000000319
                },
                {
                    "name": "A#3",
                    "midi": 58,
                    "time": 63.114744000000854,
                    "velocity": 0.2204724409448819,
                    "duration": 0.10245900000000319
                },
                {
                    "name": "D5",
                    "midi": 74,
                    "time": 63.21720300000086,
                    "velocity": 0.4094488188976378,
                    "duration": 0.10245900000000319
                },
                {
                    "name": "D#5",
                    "midi": 75,
                    "time": 63.31966200000086,
                    "velocity": 0.4409448818897638,
                    "duration": 0.10245900000000319
                },
                {
                    "name": "F4",
                    "midi": 65,
                    "time": 63.422121000000864,
                    "velocity": 0.33070866141732286,
                    "duration": 0.10245900000000319
                },
                {
                    "name": "D#4",
                    "midi": 63,
                    "time": 63.52458000000087,
                    "velocity": 0.30708661417322836,
                    "duration": 0.10245900000000319
                },
                {
                    "name": "C4",
                    "midi": 60,
                    "time": 63.62703900000087,
                    "velocity": 0.25984251968503935,
                    "duration": 0.10245900000000319
                },
                {
                    "name": "A#3",
                    "midi": 58,
                    "time": 63.72949800000087,
                    "velocity": 0.2283464566929134,
                    "duration": 0.10245900000000319
                },
                {
                    "name": "A4",
                    "midi": 69,
                    "time": 63.83195700000088,
                    "velocity": 0.4409448818897638,
                    "duration": 0.10245900000000319
                },
                {
                    "name": "A#4",
                    "midi": 70,
                    "time": 63.93441600000088,
                    "velocity": 0.44881889763779526,
                    "duration": 0.10245899999999608
                },
                {
                    "name": "F4",
                    "midi": 65,
                    "time": 64.03687500000088,
                    "velocity": 0.31496062992125984,
                    "duration": 0.10245899999999608
                },
                {
                    "name": "D4",
                    "midi": 62,
                    "time": 64.13933400000087,
                    "velocity": 0.31496062992125984,
                    "duration": 0.10245899999999608
                },
                {
                    "name": "A#3",
                    "midi": 58,
                    "time": 64.24179300000087,
                    "velocity": 0.25984251968503935,
                    "duration": 0.10245899999999608
                },
                {
                    "name": "A3",
                    "midi": 57,
                    "time": 64.34425200000086,
                    "velocity": 0.2125984251968504,
                    "duration": 0.10245899999999608
                },
                {
                    "name": "C5",
                    "midi": 72,
                    "time": 64.44671100000086,
                    "velocity": 0.4251968503937008,
                    "duration": 0.10245899999999608
                },
                {
                    "name": "D5",
                    "midi": 74,
                    "time": 64.54917000000086,
                    "velocity": 0.4881889763779528,
                    "duration": 0.10245899999999608
                },
                {
                    "name": "F4",
                    "midi": 65,
                    "time": 64.65162900000085,
                    "velocity": 0.3700787401574803,
                    "duration": 0.10245899999999608
                },
                {
                    "name": "D4",
                    "midi": 62,
                    "time": 64.75408800000085,
                    "velocity": 0.33070866141732286,
                    "duration": 0.10245899999999608
                },
                {
                    "name": "A#3",
                    "midi": 58,
                    "time": 64.85654700000084,
                    "velocity": 0.2755905511811024,
                    "duration": 0.10245899999999608
                },
                {
                    "name": "G3",
                    "midi": 55,
                    "time": 64.95900600000084,
                    "velocity": 0.23622047244094488,
                    "duration": 0.10245899999999608
                },
                {
                    "name": "C5",
                    "midi": 72,
                    "time": 65.06146500000084,
                    "velocity": 0.44881889763779526,
                    "duration": 0.10245899999999608
                },
                {
                    "name": "A#4",
                    "midi": 70,
                    "time": 65.16392400000083,
                    "velocity": 0.4881889763779528,
                    "duration": 0.10245899999999608
                },
                {
                    "name": "F4",
                    "midi": 65,
                    "time": 65.26638300000083,
                    "velocity": 0.3464566929133858,
                    "duration": 0.10245899999999608
                },
                {
                    "name": "D4",
                    "midi": 62,
                    "time": 65.36884200000083,
                    "velocity": 0.3464566929133858,
                    "duration": 0.10245899999999608
                },
                {
                    "name": "A#3",
                    "midi": 58,
                    "time": 65.47130100000082,
                    "velocity": 0.28346456692913385,
                    "duration": 0.10245899999999608
                },
                {
                    "name": "F3",
                    "midi": 53,
                    "time": 65.57376000000082,
                    "velocity": 0.25984251968503935,
                    "duration": 0.10245899999999608
                },
                {
                    "name": "C5",
                    "midi": 72,
                    "time": 65.67621900000081,
                    "velocity": 0.4251968503937008,
                    "duration": 0.10245899999999608
                },
                {
                    "name": "D5",
                    "midi": 74,
                    "time": 65.77867800000081,
                    "velocity": 0.44881889763779526,
                    "duration": 0.10245899999999608
                },
                {
                    "name": "G4",
                    "midi": 67,
                    "time": 65.8811370000008,
                    "velocity": 0.3700787401574803,
                    "duration": 0.10245899999999608
                },
                {
                    "name": "C4",
                    "midi": 60,
                    "time": 65.9835960000008,
                    "velocity": 0.33070866141732286,
                    "duration": 0.10245899999999608
                },
                {
                    "name": "A#3",
                    "midi": 58,
                    "time": 66.0860550000008,
                    "velocity": 0.29133858267716534,
                    "duration": 0.10245899999999608
                },
                {
                    "name": "E3",
                    "midi": 52,
                    "time": 66.1885140000008,
                    "velocity": 0.2283464566929134,
                    "duration": 0.10245899999999608
                },
                {
                    "name": "A#4",
                    "midi": 70,
                    "time": 66.29097300000079,
                    "velocity": 0.44881889763779526,
                    "duration": 0.10245899999999608
                },
                {
                    "name": "A4",
                    "midi": 69,
                    "time": 66.39343200000079,
                    "velocity": 0.44881889763779526,
                    "duration": 0.10245899999999608
                },
                {
                    "name": "F4",
                    "midi": 65,
                    "time": 66.49589100000078,
                    "velocity": 0.31496062992125984,
                    "duration": 0.10245899999999608
                },
                {
                    "name": "C4",
                    "midi": 60,
                    "time": 66.59835000000078,
                    "velocity": 0.31496062992125984,
                    "duration": 0.10245899999999608
                },
                {
                    "name": "A3",
                    "midi": 57,
                    "time": 66.70080900000077,
                    "velocity": 0.2755905511811024,
                    "duration": 0.10245899999999608
                },
                {
                    "name": "F3",
                    "midi": 53,
                    "time": 66.80326800000077,
                    "velocity": 0.2204724409448819,
                    "duration": 0.10245899999999608
                },
                {
                    "name": "A#4",
                    "midi": 70,
                    "time": 66.90572700000077,
                    "velocity": 0.4409448818897638,
                    "duration": 0.10245899999999608
                },
                {
                    "name": "C5",
                    "midi": 72,
                    "time": 67.00818600000076,
                    "velocity": 0.48031496062992124,
                    "duration": 0.10245899999999608
                },
                {
                    "name": "F4",
                    "midi": 65,
                    "time": 67.11064500000076,
                    "velocity": 0.3464566929133858,
                    "duration": 0.10245899999999608
                },
                {
                    "name": "C4",
                    "midi": 60,
                    "time": 67.21310400000075,
                    "velocity": 0.3464566929133858,
                    "duration": 0.10245899999999608
                },
                {
                    "name": "G#3",
                    "midi": 56,
                    "time": 67.31556300000075,
                    "velocity": 0.28346456692913385,
                    "duration": 0.10245899999999608
                },
                {
                    "name": "D3",
                    "midi": 50,
                    "time": 67.41802200000075,
                    "velocity": 0.2440944881889764,
                    "duration": 0.10245899999999608
                },
                {
                    "name": "B4",
                    "midi": 71,
                    "time": 67.52048100000074,
                    "velocity": 0.44881889763779526,
                    "duration": 0.10245899999999608
                },
                {
                    "name": "C5",
                    "midi": 72,
                    "time": 67.62294000000074,
                    "velocity": 0.4881889763779528,
                    "duration": 0.10245899999999608
                },
                {
                    "name": "F4",
                    "midi": 65,
                    "time": 67.72539900000073,
                    "velocity": 0.3464566929133858,
                    "duration": 0.10245899999999608
                },
                {
                    "name": "C4",
                    "midi": 60,
                    "time": 67.82785800000073,
                    "velocity": 0.3464566929133858,
                    "duration": 0.10245899999999608
                },
                {
                    "name": "A3",
                    "midi": 57,
                    "time": 67.93031700000073,
                    "velocity": 0.2992125984251969,
                    "duration": 0.10245899999999608
                },
                {
                    "name": "C3",
                    "midi": 48,
                    "time": 68.03277600000072,
                    "velocity": 0.25984251968503935,
                    "duration": 0.10245899999999608
                },
                {
                    "name": "C#5",
                    "midi": 73,
                    "time": 68.13523500000072,
                    "velocity": 0.4409448818897638,
                    "duration": 0.10245899999999608
                },
                {
                    "name": "D5",
                    "midi": 74,
                    "time": 68.23769400000072,
                    "velocity": 0.48031496062992124,
                    "duration": 0.10245899999999608
                },
                {
                    "name": "E4",
                    "midi": 64,
                    "time": 68.34015300000071,
                    "velocity": 0.33858267716535434,
                    "duration": 0.10245899999999608
                },
                {
                    "name": "A#3",
                    "midi": 58,
                    "time": 68.44261200000071,
                    "velocity": 0.33858267716535434,
                    "duration": 0.10245899999999608
                },
                {
                    "name": "G3",
                    "midi": 55,
                    "time": 68.5450710000007,
                    "velocity": 0.2755905511811024,
                    "duration": 0.10245899999999608
                },
                {
                    "name": "C3",
                    "midi": 48,
                    "time": 68.6475300000007,
                    "velocity": 0.2283464566929134,
                    "duration": 0.10245899999999608
                },
                {
                    "name": "A4",
                    "midi": 69,
                    "time": 68.7499890000007,
                    "velocity": 0.4409448818897638,
                    "duration": 0.10245899999999608
                },
                {
                    "name": "A#4",
                    "midi": 70,
                    "time": 68.85244800000069,
                    "velocity": 0.44881889763779526,
                    "duration": 0.10245899999999608
                },
                {
                    "name": "C4",
                    "midi": 60,
                    "time": 68.95490700000069,
                    "velocity": 0.3228346456692913,
                    "duration": 0.10245899999999608
                },
                {
                    "name": "A#3",
                    "midi": 58,
                    "time": 69.05736600000068,
                    "velocity": 0.31496062992125984,
                    "duration": 0.10245899999999608
                },
                {
                    "name": "E3",
                    "midi": 52,
                    "time": 69.15982500000068,
                    "velocity": 0.2677165354330709,
                    "duration": 0.10245899999999608
                },
                {
                    "name": "C3",
                    "midi": 48,
                    "time": 69.26228400000068,
                    "velocity": 0.2204724409448819,
                    "duration": 0.10245899999999608
                },
                {
                    "name": "E4",
                    "midi": 64,
                    "time": 69.36474300000067,
                    "velocity": 0.4015748031496063,
                    "duration": 0.10245899999999608
                },
                {
                    "name": "F4",
                    "midi": 65,
                    "time": 69.46720200000067,
                    "velocity": 0.4251968503937008,
                    "duration": 0.10245899999999608
                },
                {
                    "name": "C4",
                    "midi": 60,
                    "time": 69.56966100000066,
                    "velocity": 0.29133858267716534,
                    "duration": 0.10245899999999608
                },
                {
                    "name": "A3",
                    "midi": 57,
                    "time": 69.67212000000066,
                    "velocity": 0.29133858267716534,
                    "duration": 0.10245899999999608
                },
                {
                    "name": "C3",
                    "midi": 48,
                    "time": 69.77457900000066,
                    "velocity": 0.25984251968503935,
                    "duration": 0.10245899999999608
                },
                {
                    "name": "F2",
                    "midi": 41,
                    "time": 69.87703800000065,
                    "velocity": 0.2283464566929134,
                    "duration": 0.10245899999999608
                },
                {
                    "name": "G5",
                    "midi": 79,
                    "time": 69.97949700000065,
                    "velocity": 0.3937007874015748,
                    "duration": 0.10245899999999608
                },
                {
                    "name": "F5",
                    "midi": 77,
                    "time": 70.08195600000064,
                    "velocity": 0.4015748031496063,
                    "duration": 0.10245899999999608
                },
                {
                    "name": "A#4",
                    "midi": 70,
                    "time": 70.18441500000064,
                    "velocity": 0.2755905511811024,
                    "duration": 0.10245899999999608
                },
                {
                    "name": "D5",
                    "midi": 74,
                    "time": 70.28687400000064,
                    "velocity": 0.2755905511811024,
                    "duration": 0.10245899999999608
                },
                {
                    "name": "F4",
                    "midi": 65,
                    "time": 70.38933300000063,
                    "velocity": 0.2204724409448819,
                    "duration": 0.10245899999999608
                },
                {
                    "name": "A#3",
                    "midi": 58,
                    "time": 70.49179200000063,
                    "velocity": 0.1968503937007874,
                    "duration": 0.10245899999999608
                },
                {
                    "name": "D#5",
                    "midi": 75,
                    "time": 70.59425100000063,
                    "velocity": 0.3700787401574803,
                    "duration": 0.10245899999999608
                },
                {
                    "name": "D5",
                    "midi": 74,
                    "time": 70.69671000000062,
                    "velocity": 0.4015748031496063,
                    "duration": 0.10245899999999608
                },
                {
                    "name": "F4",
                    "midi": 65,
                    "time": 70.79916900000062,
                    "velocity": 0.28346456692913385,
                    "duration": 0.10245899999999608
                },
                {
                    "name": "A#4",
                    "midi": 70,
                    "time": 70.90162800000061,
                    "velocity": 0.2755905511811024,
                    "duration": 0.10245899999999608
                },
                {
                    "name": "D4",
                    "midi": 62,
                    "time": 71.00408700000061,
                    "velocity": 0.2204724409448819,
                    "duration": 0.10245899999999608
                },
                {
                    "name": "A#3",
                    "midi": 58,
                    "time": 71.1065460000006,
                    "velocity": 0.18110236220472442,
                    "duration": 0.10245899999999608
                },
                {
                    "name": "D5",
                    "midi": 74,
                    "time": 71.2090050000006,
                    "velocity": 0.3937007874015748,
                    "duration": 0.10245899999999608
                },
                {
                    "name": "C5",
                    "midi": 72,
                    "time": 71.3114640000006,
                    "velocity": 0.4015748031496063,
                    "duration": 0.10245899999999608
                },
                {
                    "name": "F4",
                    "midi": 65,
                    "time": 71.4139230000006,
                    "velocity": 0.2755905511811024,
                    "duration": 0.10245899999999608
                },
                {
                    "name": "F#4",
                    "midi": 66,
                    "time": 71.51638200000059,
                    "velocity": 0.2755905511811024,
                    "duration": 0.10245899999999608
                },
                {
                    "name": "D#4",
                    "midi": 63,
                    "time": 71.61884100000059,
                    "velocity": 0.23622047244094488,
                    "duration": 0.10245899999999608
                },
                {
                    "name": "A#3",
                    "midi": 58,
                    "time": 71.72130000000058,
                    "velocity": 0.1889763779527559,
                    "duration": 0.10245899999999608
                },
                {
                    "name": "D5",
                    "midi": 74,
                    "time": 71.82375900000058,
                    "velocity": 0.3779527559055118,
                    "duration": 0.10245899999999608
                },
                {
                    "name": "D#5",
                    "midi": 75,
                    "time": 71.92621800000057,
                    "velocity": 0.4094488188976378,
                    "duration": 0.10245899999999608
                },
                {
                    "name": "F4",
                    "midi": 65,
                    "time": 72.02867700000057,
                    "velocity": 0.2992125984251969,
                    "duration": 0.10245899999999608
                },
                {
                    "name": "F#4",
                    "midi": 66,
                    "time": 72.13113600000057,
                    "velocity": 0.28346456692913385,
                    "duration": 0.10245899999999608
                },
                {
                    "name": "D#4",
                    "midi": 63,
                    "time": 72.23359500000056,
                    "velocity": 0.2440944881889764,
                    "duration": 0.10245899999999608
                },
                {
                    "name": "A#3",
                    "midi": 58,
                    "time": 72.33605400000056,
                    "velocity": 0.1968503937007874,
                    "duration": 0.10245899999999608
                },
                {
                    "name": "D5",
                    "midi": 74,
                    "time": 72.43851300000055,
                    "velocity": 0.41732283464566927,
                    "duration": 0.10245899999999608
                },
                {
                    "name": "C5",
                    "midi": 72,
                    "time": 72.54097200000055,
                    "velocity": 0.4251968503937008,
                    "duration": 0.10245899999999608
                },
                {
                    "name": "F4",
                    "midi": 65,
                    "time": 72.64343100000055,
                    "velocity": 0.2992125984251969,
                    "duration": 0.10245899999999608
                },
                {
                    "name": "F#4",
                    "midi": 66,
                    "time": 72.74589000000054,
                    "velocity": 0.2992125984251969,
                    "duration": 0.10245899999999608
                },
                {
                    "name": "D#4",
                    "midi": 63,
                    "time": 72.84834900000054,
                    "velocity": 0.2440944881889764,
                    "duration": 0.10245899999999608
                },
                {
                    "name": "A#3",
                    "midi": 58,
                    "time": 72.95080800000054,
                    "velocity": 0.2125984251968504,
                    "duration": 0.10245899999999608
                },
                {
                    "name": "D5",
                    "midi": 74,
                    "time": 73.05326700000053,
                    "velocity": 0.4094488188976378,
                    "duration": 0.10245899999999608
                },
                {
                    "name": "D#5",
                    "midi": 75,
                    "time": 73.15572600000053,
                    "velocity": 0.4409448818897638,
                    "duration": 0.10245899999999608
                },
                {
                    "name": "F4",
                    "midi": 65,
                    "time": 73.25818500000052,
                    "velocity": 0.33070866141732286,
                    "duration": 0.10245899999999608
                },
                {
                    "name": "D#4",
                    "midi": 63,
                    "time": 73.36064400000052,
                    "velocity": 0.30708661417322836,
                    "duration": 0.10245899999999608
                },
                {
                    "name": "C4",
                    "midi": 60,
                    "time": 73.46310300000052,
                    "velocity": 0.2677165354330709,
                    "duration": 0.10245899999999608
                },
                {
                    "name": "A#3",
                    "midi": 58,
                    "time": 73.56556200000051,
                    "velocity": 0.2283464566929134,
                    "duration": 0.10245899999999608
                },
                {
                    "name": "A4",
                    "midi": 69,
                    "time": 73.66802100000051,
                    "velocity": 0.4409448818897638,
                    "duration": 0.10245899999999608
                },
                {
                    "name": "A#4",
                    "midi": 70,
                    "time": 73.7704800000005,
                    "velocity": 0.44881889763779526,
                    "duration": 0.10245899999999608
                },
                {
                    "name": "F4",
                    "midi": 65,
                    "time": 73.8729390000005,
                    "velocity": 0.31496062992125984,
                    "duration": 0.10245899999999608
                },
                {
                    "name": "D4",
                    "midi": 62,
                    "time": 73.9753980000005,
                    "velocity": 0.31496062992125984,
                    "duration": 0.10245899999999608
                },
                {
                    "name": "A#3",
                    "midi": 58,
                    "time": 74.07785700000049,
                    "velocity": 0.25984251968503935,
                    "duration": 0.10245899999999608
                },
                {
                    "name": "A3",
                    "midi": 57,
                    "time": 74.18031600000049,
                    "velocity": 0.2125984251968504,
                    "duration": 0.10245899999999608
                },
                {
                    "name": "C5",
                    "midi": 72,
                    "time": 74.28277500000048,
                    "velocity": 0.4251968503937008,
                    "duration": 0.10245899999999608
                },
                {
                    "name": "D5",
                    "midi": 74,
                    "time": 74.38523400000048,
                    "velocity": 0.44881889763779526,
                    "duration": 0.10245899999999608
                },
                {
                    "name": "F4",
                    "midi": 65,
                    "time": 74.48769300000048,
                    "velocity": 0.3700787401574803,
                    "duration": 0.10245899999999608
                },
                {
                    "name": "D4",
                    "midi": 62,
                    "time": 74.59015200000047,
                    "velocity": 0.33070866141732286,
                    "duration": 0.10245899999999608
                },
                {
                    "name": "A#3",
                    "midi": 58,
                    "time": 74.69261100000047,
                    "velocity": 0.2677165354330709,
                    "duration": 0.10245899999999608
                },
                {
                    "name": "G3",
                    "midi": 55,
                    "time": 74.79507000000046,
                    "velocity": 0.2440944881889764,
                    "duration": 0.10245899999999608
                },
                {
                    "name": "C5",
                    "midi": 72,
                    "time": 74.89752900000046,
                    "velocity": 0.44881889763779526,
                    "duration": 0.10245899999999608
                },
                {
                    "name": "A#4",
                    "midi": 70,
                    "time": 74.99998800000046,
                    "velocity": 0.44881889763779526,
                    "duration": 0.10245899999999608
                },
                {
                    "name": "F4",
                    "midi": 65,
                    "time": 75.10244700000045,
                    "velocity": 0.3464566929133858,
                    "duration": 0.10245899999999608
                },
                {
                    "name": "D4",
                    "midi": 62,
                    "time": 75.20490600000045,
                    "velocity": 0.3464566929133858,
                    "duration": 0.10245899999999608
                },
                {
                    "name": "A#3",
                    "midi": 58,
                    "time": 75.30736500000044,
                    "velocity": 0.30708661417322836,
                    "duration": 0.10245899999999608
                },
                {
                    "name": "F3",
                    "midi": 53,
                    "time": 75.40982400000044,
                    "velocity": 0.25984251968503935,
                    "duration": 0.10245899999999608
                },
                {
                    "name": "C5",
                    "midi": 72,
                    "time": 75.51228300000044,
                    "velocity": 0.4251968503937008,
                    "duration": 0.10245899999999608
                },
                {
                    "name": "D5",
                    "midi": 74,
                    "time": 75.61474200000043,
                    "velocity": 0.44881889763779526,
                    "duration": 0.10245899999999608
                },
                {
                    "name": "G4",
                    "midi": 67,
                    "time": 75.71720100000043,
                    "velocity": 0.3700787401574803,
                    "duration": 0.10245899999999608
                },
                {
                    "name": "C4",
                    "midi": 60,
                    "time": 75.81966000000043,
                    "velocity": 0.33070866141732286,
                    "duration": 0.10245899999999608
                },
                {
                    "name": "A#3",
                    "midi": 58,
                    "time": 75.92211900000042,
                    "velocity": 0.29133858267716534,
                    "duration": 0.10245899999999608
                },
                {
                    "name": "E3",
                    "midi": 52,
                    "time": 76.02457800000042,
                    "velocity": 0.25196850393700787,
                    "duration": 0.10245899999999608
                },
                {
                    "name": "A#4",
                    "midi": 70,
                    "time": 76.12703700000041,
                    "velocity": 0.44881889763779526,
                    "duration": 0.10245899999999608
                },
                {
                    "name": "A4",
                    "midi": 69,
                    "time": 76.22949600000041,
                    "velocity": 0.44881889763779526,
                    "duration": 0.10245899999999608
                },
                {
                    "name": "F4",
                    "midi": 65,
                    "time": 76.3319550000004,
                    "velocity": 0.31496062992125984,
                    "duration": 0.10245899999999608
                },
                {
                    "name": "C4",
                    "midi": 60,
                    "time": 76.4344140000004,
                    "velocity": 0.31496062992125984,
                    "duration": 0.10245899999999608
                },
                {
                    "name": "A3",
                    "midi": 57,
                    "time": 76.5368730000004,
                    "velocity": 0.28346456692913385,
                    "duration": 0.10245899999999608
                },
                {
                    "name": "F3",
                    "midi": 53,
                    "time": 76.6393320000004,
                    "velocity": 0.2440944881889764,
                    "duration": 0.10245899999999608
                },
                {
                    "name": "A#4",
                    "midi": 70,
                    "time": 76.74179100000039,
                    "velocity": 0.4409448818897638,
                    "duration": 0.10245899999999608
                },
                {
                    "name": "C5",
                    "midi": 72,
                    "time": 76.84425000000039,
                    "velocity": 0.48031496062992124,
                    "duration": 0.10245899999999608
                },
                {
                    "name": "F4",
                    "midi": 65,
                    "time": 76.94670900000038,
                    "velocity": 0.3464566929133858,
                    "duration": 0.10245899999999608
                },
                {
                    "name": "C4",
                    "midi": 60,
                    "time": 77.04916800000038,
                    "velocity": 0.3464566929133858,
                    "duration": 0.10245899999999608
                },
                {
                    "name": "G#3",
                    "midi": 56,
                    "time": 77.15162700000037,
                    "velocity": 0.30708661417322836,
                    "duration": 0.10245899999999608
                },
                {
                    "name": "D3",
                    "midi": 50,
                    "time": 77.25408600000037,
                    "velocity": 0.2677165354330709,
                    "duration": 0.10245899999999608
                },
                {
                    "name": "B4",
                    "midi": 71,
                    "time": 77.35654500000037,
                    "velocity": 0.44881889763779526,
                    "duration": 0.10245899999999608
                },
                {
                    "name": "C5",
                    "midi": 72,
                    "time": 77.45900400000036,
                    "velocity": 0.4881889763779528,
                    "duration": 0.10245899999999608
                },
                {
                    "name": "F4",
                    "midi": 65,
                    "time": 77.56146300000036,
                    "velocity": 0.3464566929133858,
                    "duration": 0.10245899999999608
                },
                {
                    "name": "C4",
                    "midi": 60,
                    "time": 77.66392200000035,
                    "velocity": 0.3464566929133858,
                    "duration": 0.10245899999999608
                },
                {
                    "name": "A3",
                    "midi": 57,
                    "time": 77.76638100000035,
                    "velocity": 0.31496062992125984,
                    "duration": 0.10245899999999608
                },
                {
                    "name": "C3",
                    "midi": 48,
                    "time": 77.86884000000035,
                    "velocity": 0.2755905511811024,
                    "duration": 0.10245899999999608
                },
                {
                    "name": "C#5",
                    "midi": 73,
                    "time": 77.97129900000034,
                    "velocity": 0.4409448818897638,
                    "duration": 0.10245899999999608
                },
                {
                    "name": "D5",
                    "midi": 74,
                    "time": 78.07375800000034,
                    "velocity": 0.48031496062992124,
                    "duration": 0.10245899999999608
                },
                {
                    "name": "E4",
                    "midi": 64,
                    "time": 78.17621700000034,
                    "velocity": 0.33858267716535434,
                    "duration": 0.10245899999999608
                },
                {
                    "name": "A#3",
                    "midi": 58,
                    "time": 78.27867600000033,
                    "velocity": 0.33858267716535434,
                    "duration": 0.10245899999999608
                },
                {
                    "name": "G3",
                    "midi": 55,
                    "time": 78.38113500000033,
                    "velocity": 0.2992125984251969,
                    "duration": 0.10245899999999608
                },
                {
                    "name": "C3",
                    "midi": 48,
                    "time": 78.48359400000032,
                    "velocity": 0.25196850393700787,
                    "duration": 0.10245899999999608
                },
                {
                    "name": "A4",
                    "midi": 69,
                    "time": 78.58605300000032,
                    "velocity": 0.4409448818897638,
                    "duration": 0.10245899999999608
                },
                {
                    "name": "A#4",
                    "midi": 70,
                    "time": 78.68851200000032,
                    "velocity": 0.44881889763779526,
                    "duration": 0.10245899999999608
                },
                {
                    "name": "C4",
                    "midi": 60,
                    "time": 78.79097100000031,
                    "velocity": 0.3228346456692913,
                    "duration": 0.10245899999999608
                },
                {
                    "name": "A#3",
                    "midi": 58,
                    "time": 78.89343000000031,
                    "velocity": 0.31496062992125984,
                    "duration": 0.10245899999999608
                },
                {
                    "name": "E3",
                    "midi": 52,
                    "time": 78.9958890000003,
                    "velocity": 0.2677165354330709,
                    "duration": 0.10245899999999608
                },
                {
                    "name": "C3",
                    "midi": 48,
                    "time": 79.0983480000003,
                    "velocity": 0.2283464566929134,
                    "duration": 0.10245899999999608
                },
                {
                    "name": "E4",
                    "midi": 64,
                    "time": 79.2008070000003,
                    "velocity": 0.4015748031496063,
                    "duration": 0.10245899999999608
                },
                {
                    "name": "F4",
                    "midi": 65,
                    "time": 79.30326600000029,
                    "velocity": 0.4251968503937008,
                    "duration": 0.10245899999999608
                },
                {
                    "name": "C4",
                    "midi": 60,
                    "time": 79.40572500000029,
                    "velocity": 0.29133858267716534,
                    "duration": 0.10245899999999608
                },
                {
                    "name": "A3",
                    "midi": 57,
                    "time": 79.50818400000028,
                    "velocity": 0.29133858267716534,
                    "duration": 0.10245899999999608
                },
                {
                    "name": "C3",
                    "midi": 48,
                    "time": 79.61064300000028,
                    "velocity": 0.2440944881889764,
                    "duration": 0.10245899999999608
                },
                {
                    "name": "F2",
                    "midi": 41,
                    "time": 79.71310200000028,
                    "velocity": 0.1968503937007874,
                    "duration": 0.10245899999999608
                },
                {
                    "name": "G5",
                    "midi": 79,
                    "time": 79.81556100000027,
                    "velocity": 0.3937007874015748,
                    "duration": 0.10245899999999608
                },
                {
                    "name": "F5",
                    "midi": 77,
                    "time": 79.91802000000027,
                    "velocity": 0.4015748031496063,
                    "duration": 0.10245899999999608
                },
                {
                    "name": "G#4",
                    "midi": 68,
                    "time": 80.02047900000026,
                    "velocity": 0.2755905511811024,
                    "duration": 0.10245899999999608
                },
                {
                    "name": "C5",
                    "midi": 72,
                    "time": 80.12293800000026,
                    "velocity": 0.2755905511811024,
                    "duration": 0.10245899999999608
                },
                {
                    "name": "F4",
                    "midi": 65,
                    "time": 80.22539700000026,
                    "velocity": 0.25196850393700787,
                    "duration": 0.10245899999999608
                },
                {
                    "name": "D4",
                    "midi": 62,
                    "time": 80.32785600000025,
                    "velocity": 0.2204724409448819,
                    "duration": 0.10245899999999608
                },
                {
                    "name": "D#5",
                    "midi": 75,
                    "time": 80.43031500000025,
                    "velocity": 0.3700787401574803,
                    "duration": 0.10245899999999608
                },
                {
                    "name": "D5",
                    "midi": 74,
                    "time": 80.53277400000024,
                    "velocity": 0.4015748031496063,
                    "duration": 0.10245899999999608
                },
                {
                    "name": "G4",
                    "midi": 67,
                    "time": 80.63523300000024,
                    "velocity": 0.28346456692913385,
                    "duration": 0.10245899999999608
                },
                {
                    "name": "D4",
                    "midi": 62,
                    "time": 80.73769200000024,
                    "velocity": 0.2755905511811024,
                    "duration": 0.10245899999999608
                },
                {
                    "name": "B3",
                    "midi": 59,
                    "time": 80.84015100000023,
                    "velocity": 0.2204724409448819,
                    "duration": 0.10245899999999608
                },
                {
                    "name": "F3",
                    "midi": 53,
                    "time": 80.94261000000023,
                    "velocity": 0.18110236220472442,
                    "duration": 0.10245899999999608
                },
                {
                    "name": "B4",
                    "midi": 71,
                    "time": 81.04506900000023,
                    "velocity": 0.3937007874015748,
                    "duration": 0.10245899999999608
                },
                {
                    "name": "C5",
                    "midi": 72,
                    "time": 81.14752800000022,
                    "velocity": 0.4015748031496063,
                    "duration": 0.10245899999999608
                },
                {
                    "name": "G4",
                    "midi": 67,
                    "time": 81.24998700000022,
                    "velocity": 0.2755905511811024,
                    "duration": 0.10245899999999608
                },
                {
                    "name": "G#4",
                    "midi": 68,
                    "time": 81.35244600000021,
                    "velocity": 0.2755905511811024,
                    "duration": 0.10245899999999608
                },
                {
                    "name": "D#4",
                    "midi": 63,
                    "time": 81.45490500000021,
                    "velocity": 0.23622047244094488,
                    "duration": 0.10245899999999608
                },
                {
                    "name": "C4",
                    "midi": 60,
                    "time": 81.5573640000002,
                    "velocity": 0.2125984251968504,
                    "duration": 0.10245899999999608
                },
                {
                    "name": "D5",
                    "midi": 74,
                    "time": 81.6598230000002,
                    "velocity": 0.3779527559055118,
                    "duration": 0.10245899999999608
                },
                {
                    "name": "D#5",
                    "midi": 75,
                    "time": 81.7622820000002,
                    "velocity": 0.4094488188976378,
                    "duration": 0.10245899999999608
                },
                {
                    "name": "G4",
                    "midi": 67,
                    "time": 81.8647410000002,
                    "velocity": 0.2992125984251969,
                    "duration": 0.10245899999999608
                },
                {
                    "name": "C4",
                    "midi": 60,
                    "time": 81.96720000000019,
                    "velocity": 0.28346456692913385,
                    "duration": 0.10245899999999608
                },
                {
                    "name": "G3",
                    "midi": 55,
                    "time": 82.06965900000019,
                    "velocity": 0.25196850393700787,
                    "duration": 0.10245899999999608
                },
                {
                    "name": "D#3",
                    "midi": 51,
                    "time": 82.17211800000018,
                    "velocity": 0.2204724409448819,
                    "duration": 0.10245899999999608
                },
                {
                    "name": "C5",
                    "midi": 72,
                    "time": 82.27457700000018,
                    "velocity": 0.4566929133858268,
                    "duration": 0.10245899999999608
                },
                {
                    "name": "G#5",
                    "midi": 80,
                    "time": 82.37703600000017,
                    "velocity": 0.5039370078740157,
                    "duration": 0.10245899999999608
                },
                {
                    "name": "G#4",
                    "midi": 68,
                    "time": 82.47949500000017,
                    "velocity": 0.33858267716535434,
                    "duration": 0.10245899999999608
                },
                {
                    "name": "C4",
                    "midi": 60,
                    "time": 82.58195400000017,
                    "velocity": 0.33858267716535434,
                    "duration": 0.10245899999999608
                },
                {
                    "name": "F3",
                    "midi": 53,
                    "time": 82.68441300000016,
                    "velocity": 0.31496062992125984,
                    "duration": 0.10245899999999608
                },
                {
                    "name": "D3",
                    "midi": 50,
                    "time": 82.78687200000016,
                    "velocity": 0.2440944881889764,
                    "duration": 0.10245899999999608
                },
                {
                    "name": "G#5",
                    "midi": 80,
                    "time": 82.88933100000015,
                    "velocity": 0.48031496062992124,
                    "duration": 0.10245899999999608
                },
                {
                    "name": "G5",
                    "midi": 79,
                    "time": 82.99179000000015,
                    "velocity": 0.5196850393700787,
                    "duration": 0.10245899999999608
                },
                {
                    "name": "G4",
                    "midi": 67,
                    "time": 83.09424900000015,
                    "velocity": 0.3543307086614173,
                    "duration": 0.10245899999999608
                },
                {
                    "name": "B3",
                    "midi": 59,
                    "time": 83.19670800000014,
                    "velocity": 0.33858267716535434,
                    "duration": 0.10245899999999608
                },
                {
                    "name": "D3",
                    "midi": 50,
                    "time": 83.29916700000014,
                    "velocity": 0.28346456692913385,
                    "duration": 0.10245899999999608
                },
                {
                    "name": "G2",
                    "midi": 43,
                    "time": 83.40162600000014,
                    "velocity": 0.2440944881889764,
                    "duration": 0.10245899999999608
                },
                {
                    "name": "G5",
                    "midi": 79,
                    "time": 83.50408500000013,
                    "velocity": 0.4409448818897638,
                    "duration": 0.10245899999999608
                },
                {
                    "name": "D#5",
                    "midi": 75,
                    "time": 83.60654400000013,
                    "velocity": 0.49606299212598426,
                    "duration": 0.10245899999999608
                },
                {
                    "name": "G4",
                    "midi": 67,
                    "time": 83.70900300000012,
                    "velocity": 0.31496062992125984,
                    "duration": 0.10245899999999608
                },
                {
                    "name": "C4",
                    "midi": 60,
                    "time": 83.81146200000012,
                    "velocity": 0.31496062992125984,
                    "duration": 0.10245899999999608
                },
                {
                    "name": "D#3",
                    "midi": 51,
                    "time": 83.91392100000012,
                    "velocity": 0.2755905511811024,
                    "duration": 0.10245899999999608
                },
                {
                    "name": "C3",
                    "midi": 48,
                    "time": 84.01638000000011,
                    "velocity": 0.23622047244094488,
                    "duration": 0.10245899999999608
                },
                {
                    "name": "D#5",
                    "midi": 75,
                    "time": 84.11883900000011,
                    "velocity": 0.4015748031496063,
                    "duration": 0.10245899999999608
                },
                {
                    "name": "C5",
                    "midi": 72,
                    "time": 84.2212980000001,
                    "velocity": 0.4251968503937008,
                    "duration": 0.10245899999999608
                },
                {
                    "name": "G4",
                    "midi": 67,
                    "time": 84.3237570000001,
                    "velocity": 0.33070866141732286,
                    "duration": 0.10245899999999608
                },
                {
                    "name": "C4",
                    "midi": 60,
                    "time": 84.4262160000001,
                    "velocity": 0.28346456692913385,
                    "duration": 0.10245899999999608
                },
                {
                    "name": "G3",
                    "midi": 55,
                    "time": 84.52867500000009,
                    "velocity": 0.23622047244094488,
                    "duration": 0.10245899999999608
                },
                {
                    "name": "D#3",
                    "midi": 51,
                    "time": 84.63113400000009,
                    "velocity": 0.1968503937007874,
                    "duration": 0.10245899999999608
                },
                {
                    "name": "F5",
                    "midi": 77,
                    "time": 84.73359300000008,
                    "velocity": 0.3937007874015748,
                    "duration": 0.10245899999999608
                },
                {
                    "name": "D#5",
                    "midi": 75,
                    "time": 84.83605200000008,
                    "velocity": 0.4409448818897638,
                    "duration": 0.10245899999999608
                },
                {
                    "name": "F#4",
                    "midi": 66,
                    "time": 84.93851100000008,
                    "velocity": 0.3228346456692913,
                    "duration": 0.10245899999999608
                },
                {
                    "name": "A#4",
                    "midi": 70,
                    "time": 85.04097000000007,
                    "velocity": 0.3464566929133858,
                    "duration": 0.10245899999999608
                },
                {
                    "name": "D#4",
                    "midi": 63,
                    "time": 85.14342900000007,
                    "velocity": 0.2755905511811024,
                    "duration": 0.10245899999999608
                },
                {
                    "name": "C4",
                    "midi": 60,
                    "time": 85.24588800000006,
                    "velocity": 0.25984251968503935,
                    "duration": 0.10245899999999608
                },
                {
                    "name": "C#5",
                    "midi": 73,
                    "time": 85.34834700000006,
                    "velocity": 0.3937007874015748,
                    "duration": 0.10245899999999608
                },
                {
                    "name": "C5",
                    "midi": 72,
                    "time": 85.45080600000006,
                    "velocity": 0.4251968503937008,
                    "duration": 0.10245899999999608
                },
                {
                    "name": "F4",
                    "midi": 65,
                    "time": 85.55326500000005,
                    "velocity": 0.3464566929133858,
                    "duration": 0.10245899999999608
                },
                {
                    "name": "C4",
                    "midi": 60,
                    "time": 85.65572400000005,
                    "velocity": 0.30708661417322836,
                    "duration": 0.10245899999999608
                },
                {
                    "name": "A3",
                    "midi": 57,
                    "time": 85.75818300000005,
                    "velocity": 0.29133858267716534,
                    "duration": 0.10245899999999608
                },
                {
                    "name": "D#3",
                    "midi": 51,
                    "time": 85.86064200000004,
                    "velocity": 0.25196850393700787,
                    "duration": 0.10245899999999608
                },
                {
                    "name": "A4",
                    "midi": 69,
                    "time": 85.96310100000004,
                    "velocity": 0.4094488188976378,
                    "duration": 0.10245899999999608
                },
                {
                    "name": "A#4",
                    "midi": 70,
                    "time": 86.06556000000003,
                    "velocity": 0.4409448818897638,
                    "duration": 0.10245899999999608
                },
                {
                    "name": "F4",
                    "midi": 65,
                    "time": 86.16801900000003,
                    "velocity": 0.31496062992125984,
                    "duration": 0.10245899999999608
                },
                {
                    "name": "F#4",
                    "midi": 66,
                    "time": 86.27047800000003,
                    "velocity": 0.31496062992125984,
                    "duration": 0.10245899999999608
                },
                {
                    "name": "C#4",
                    "midi": 61,
                    "time": 86.37293700000002,
                    "velocity": 0.28346456692913385,
                    "duration": 0.10245899999999608
                },
                {
                    "name": "A#3",
                    "midi": 58,
                    "time": 86.47539600000002,
                    "velocity": 0.2440944881889764,
                    "duration": 0.10245899999999608
                },
                {
                    "name": "C5",
                    "midi": 72,
                    "time": 86.57785500000001,
                    "velocity": 0.41732283464566927,
                    "duration": 0.10245899999999608
                },
                {
                    "name": "C#5",
                    "midi": 73,
                    "time": 86.68031400000001,
                    "velocity": 0.48031496062992124,
                    "duration": 0.10245899999999608
                },
                {
                    "name": "F4",
                    "midi": 65,
                    "time": 86.782773,
                    "velocity": 0.33858267716535434,
                    "duration": 0.10245899999999608
                },
                {
                    "name": "A#3",
                    "midi": 58,
                    "time": 86.885232,
                    "velocity": 0.33070866141732286,
                    "duration": 0.10245899999999608
                },
                {
                    "name": "F3",
                    "midi": 53,
                    "time": 86.987691,
                    "velocity": 0.30708661417322836,
                    "duration": 0.10245899999999608
                },
                {
                    "name": "C#3",
                    "midi": 49,
                    "time": 87.09015,
                    "velocity": 0.2677165354330709,
                    "duration": 0.10245899999999608
                },
                {
                    "name": "A#4",
                    "midi": 70,
                    "time": 87.19260899999999,
                    "velocity": 0.44881889763779526,
                    "duration": 0.10245899999999608
                },
                {
                    "name": "F#5",
                    "midi": 78,
                    "time": 87.29506799999999,
                    "velocity": 0.5275590551181102,
                    "duration": 0.10245899999999608
                },
                {
                    "name": "F#4",
                    "midi": 66,
                    "time": 87.39752699999998,
                    "velocity": 0.3858267716535433,
                    "duration": 0.10245899999999608
                },
                {
                    "name": "D#4",
                    "midi": 63,
                    "time": 87.49998599999998,
                    "velocity": 0.3464566929133858,
                    "duration": 0.10245899999999608
                },
                {
                    "name": "A#3",
                    "midi": 58,
                    "time": 87.60244499999997,
                    "velocity": 0.31496062992125984,
                    "duration": 0.10245899999999608
                },
                {
                    "name": "D#3",
                    "midi": 51,
                    "time": 87.70490399999997,
                    "velocity": 0.2755905511811024,
                    "duration": 0.10245899999999608
                },
                {
                    "name": "F#5",
                    "midi": 78,
                    "time": 87.80736299999997,
                    "velocity": 0.4409448818897638,
                    "duration": 0.10245899999999608
                },
                {
                    "name": "A5",
                    "midi": 81,
                    "time": 87.90982199999996,
                    "velocity": 0.5118110236220472,
                    "duration": 0.10245899999999608
                },
                {
                    "name": "A4",
                    "midi": 69,
                    "time": 88.01228099999996,
                    "velocity": 0.3779527559055118,
                    "duration": 0.10245899999999608
                },
                {
                    "name": "F#4",
                    "midi": 66,
                    "time": 88.11473999999995,
                    "velocity": 0.33858267716535434,
                    "duration": 0.10245899999999608
                },
                {
                    "name": "D#4",
                    "midi": 63,
                    "time": 88.21719899999995,
                    "velocity": 0.2992125984251969,
                    "duration": 0.10245899999999608
                },
                {
                    "name": "F#3",
                    "midi": 54,
                    "time": 88.31965799999995,
                    "velocity": 0.25196850393700787,
                    "duration": 0.10245899999999608
                },
                {
                    "name": "A5",
                    "midi": 81,
                    "time": 88.42211699999994,
                    "velocity": 0.3858267716535433,
                    "duration": 0.10245899999999608
                },
                {
                    "name": "A#5",
                    "midi": 82,
                    "time": 88.52457599999994,
                    "velocity": 0.47244094488188976,
                    "duration": 0.10245899999999608
                },
                {
                    "name": "A#4",
                    "midi": 70,
                    "time": 88.62703499999994,
                    "velocity": 0.2992125984251969,
                    "duration": 0.10245899999999608
                },
                {
                    "name": "G4",
                    "midi": 67,
                    "time": 88.72949399999993,
                    "velocity": 0.2992125984251969,
                    "duration": 0.10245899999999608
                },
                {
                    "name": "D#4",
                    "midi": 63,
                    "time": 88.83195299999993,
                    "velocity": 0.25984251968503935,
                    "duration": 0.10245899999999608
                },
                {
                    "name": "G3",
                    "midi": 55,
                    "time": 88.93441199999992,
                    "velocity": 0.2283464566929134,
                    "duration": 0.10245899999999608
                },
                {
                    "name": "G5",
                    "midi": 79,
                    "time": 89.03687099999992,
                    "velocity": 0.36220472440944884,
                    "duration": 0.10245899999999608
                },
                {
                    "name": "F5",
                    "midi": 77,
                    "time": 89.13932999999992,
                    "velocity": 0.41732283464566927,
                    "duration": 0.10245899999999608
                },
                {
                    "name": "C5",
                    "midi": 72,
                    "time": 89.24178899999991,
                    "velocity": 0.25196850393700787,
                    "duration": 0.10245899999999608
                },
                {
                    "name": "F4",
                    "midi": 65,
                    "time": 89.34424799999991,
                    "velocity": 0.25196850393700787,
                    "duration": 0.10245899999999608
                },
                {
                    "name": "D#4",
                    "midi": 63,
                    "time": 89.4467069999999,
                    "velocity": 0.2125984251968504,
                    "duration": 0.10245899999999608
                },
                {
                    "name": "A3",
                    "midi": 57,
                    "time": 89.5491659999999,
                    "velocity": 0.18110236220472442,
                    "duration": 0.10245899999999608
                },
                {
                    "name": "G5",
                    "midi": 79,
                    "time": 89.6516249999999,
                    "velocity": 0.3937007874015748,
                    "duration": 0.10245899999999608
                },
                {
                    "name": "F5",
                    "midi": 77,
                    "time": 89.75408399999989,
                    "velocity": 0.4015748031496063,
                    "duration": 0.10245899999999608
                },
                {
                    "name": "A#4",
                    "midi": 70,
                    "time": 89.85654299999989,
                    "velocity": 0.2755905511811024,
                    "duration": 0.10245899999999608
                },
                {
                    "name": "D5",
                    "midi": 74,
                    "time": 89.95900199999988,
                    "velocity": 0.2755905511811024,
                    "duration": 0.10245899999999608
                },
                {
                    "name": "F4",
                    "midi": 65,
                    "time": 90.06146099999988,
                    "velocity": 0.23622047244094488,
                    "duration": 0.10245899999999608
                },
                {
                    "name": "A#3",
                    "midi": 58,
                    "time": 90.16391999999988,
                    "velocity": 0.1968503937007874,
                    "duration": 0.10245899999999608
                },
                {
                    "name": "D#5",
                    "midi": 75,
                    "time": 90.26637899999987,
                    "velocity": 0.3700787401574803,
                    "duration": 0.10245899999999608
                },
                {
                    "name": "D5",
                    "midi": 74,
                    "time": 90.36883799999987,
                    "velocity": 0.4015748031496063,
                    "duration": 0.10245899999999608
                },
                {
                    "name": "F4",
                    "midi": 65,
                    "time": 90.47129699999986,
                    "velocity": 0.28346456692913385,
                    "duration": 0.10245899999999608
                },
                {
                    "name": "A#4",
                    "midi": 70,
                    "time": 90.57375599999986,
                    "velocity": 0.2755905511811024,
                    "duration": 0.10245899999999608
                },
                {
                    "name": "D4",
                    "midi": 62,
                    "time": 90.67621499999986,
                    "velocity": 0.2047244094488189,
                    "duration": 0.10245899999999608
                },
                {
                    "name": "A#3",
                    "midi": 58,
                    "time": 90.77867399999985,
                    "velocity": 0.18110236220472442,
                    "duration": 0.10245899999999608
                },
                {
                    "name": "D5",
                    "midi": 74,
                    "time": 90.88113299999985,
                    "velocity": 0.3937007874015748,
                    "duration": 0.10245899999999608
                },
                {
                    "name": "C5",
                    "midi": 72,
                    "time": 90.98359199999985,
                    "velocity": 0.4015748031496063,
                    "duration": 0.10245899999999608
                },
                {
                    "name": "F4",
                    "midi": 65,
                    "time": 91.08605099999984,
                    "velocity": 0.2755905511811024,
                    "duration": 0.10245899999999608
                },
                {
                    "name": "F#4",
                    "midi": 66,
                    "time": 91.18850999999984,
                    "velocity": 0.2755905511811024,
                    "duration": 0.10245899999999608
                },
                {
                    "name": "D#4",
                    "midi": 63,
                    "time": 91.29096899999983,
                    "velocity": 0.2204724409448819,
                    "duration": 0.10245899999999608
                },
                {
                    "name": "A#3",
                    "midi": 58,
                    "time": 91.39342799999983,
                    "velocity": 0.18110236220472442,
                    "duration": 0.10245899999999608
                },
                {
                    "name": "D5",
                    "midi": 74,
                    "time": 91.49588699999983,
                    "velocity": 0.3779527559055118,
                    "duration": 0.10245899999999608
                },
                {
                    "name": "D#5",
                    "midi": 75,
                    "time": 91.59834599999982,
                    "velocity": 0.4094488188976378,
                    "duration": 0.10245899999999608
                },
                {
                    "name": "F4",
                    "midi": 65,
                    "time": 91.70080499999982,
                    "velocity": 0.2992125984251969,
                    "duration": 0.10245899999999608
                },
                {
                    "name": "F#4",
                    "midi": 66,
                    "time": 91.80326399999981,
                    "velocity": 0.28346456692913385,
                    "duration": 0.10245899999999608
                },
                {
                    "name": "D#4",
                    "midi": 63,
                    "time": 91.90572299999981,
                    "velocity": 0.23622047244094488,
                    "duration": 0.10245899999999608
                },
                {
                    "name": "A#3",
                    "midi": 58,
                    "time": 92.0081819999998,
                    "velocity": 0.2125984251968504,
                    "duration": 0.10245899999999608
                },
                {
                    "name": "D5",
                    "midi": 74,
                    "time": 92.1106409999998,
                    "velocity": 0.41732283464566927,
                    "duration": 0.10245899999999608
                },
                {
                    "name": "C5",
                    "midi": 72,
                    "time": 92.2130999999998,
                    "velocity": 0.4251968503937008,
                    "duration": 0.10245899999999608
                },
                {
                    "name": "F4",
                    "midi": 65,
                    "time": 92.3155589999998,
                    "velocity": 0.2992125984251969,
                    "duration": 0.10245899999999608
                },
                {
                    "name": "F#4",
                    "midi": 66,
                    "time": 92.41801799999979,
                    "velocity": 0.2992125984251969,
                    "duration": 0.10245899999999608
                },
                {
                    "name": "D#4",
                    "midi": 63,
                    "time": 92.52047699999979,
                    "velocity": 0.25984251968503935,
                    "duration": 0.10245899999999608
                },
                {
                    "name": "A#3",
                    "midi": 58,
                    "time": 92.62293599999978,
                    "velocity": 0.2283464566929134,
                    "duration": 0.10245899999999608
                },
                {
                    "name": "D5",
                    "midi": 74,
                    "time": 92.72539499999978,
                    "velocity": 0.4094488188976378,
                    "duration": 0.10245899999999608
                },
                {
                    "name": "D#5",
                    "midi": 75,
                    "time": 92.82785399999977,
                    "velocity": 0.4409448818897638,
                    "duration": 0.10245899999999608
                },
                {
                    "name": "F4",
                    "midi": 65,
                    "time": 92.93031299999977,
                    "velocity": 0.33070866141732286,
                    "duration": 0.10245899999999608
                },
                {
                    "name": "D#4",
                    "midi": 63,
                    "time": 93.03277199999977,
                    "velocity": 0.30708661417322836,
                    "duration": 0.10245899999999608
                },
                {
                    "name": "C4",
                    "midi": 60,
                    "time": 93.13523099999976,
                    "velocity": 0.2755905511811024,
                    "duration": 0.10245899999999608
                },
                {
                    "name": "A#3",
                    "midi": 58,
                    "time": 93.23768999999976,
                    "velocity": 0.2283464566929134,
                    "duration": 0.10245899999999608
                },
                {
                    "name": "A4",
                    "midi": 69,
                    "time": 93.34014899999976,
                    "velocity": 0.4409448818897638,
                    "duration": 0.10245899999999608
                },
                {
                    "name": "A#4",
                    "midi": 70,
                    "time": 93.44260799999975,
                    "velocity": 0.47244094488188976,
                    "duration": 0.10245899999999608
                },
                {
                    "name": "F4",
                    "midi": 65,
                    "time": 93.54506699999975,
                    "velocity": 0.31496062992125984,
                    "duration": 0.10245899999999608
                },
                {
                    "name": "D4",
                    "midi": 62,
                    "time": 93.64752599999974,
                    "velocity": 0.31496062992125984,
                    "duration": 0.10245899999999608
                },
                {
                    "name": "A#3",
                    "midi": 58,
                    "time": 93.74998499999974,
                    "velocity": 0.2677165354330709,
                    "duration": 0.10245899999999608
                },
                {
                    "name": "A3",
                    "midi": 57,
                    "time": 93.85244399999974,
                    "velocity": 0.23622047244094488,
                    "duration": 0.10245899999999608
                },
                {
                    "name": "C5",
                    "midi": 72,
                    "time": 93.95490299999973,
                    "velocity": 0.44881889763779526,
                    "duration": 0.10245899999999608
                },
                {
                    "name": "D5",
                    "midi": 74,
                    "time": 94.05736199999973,
                    "velocity": 0.5039370078740157,
                    "duration": 0.10245899999999608
                },
                {
                    "name": "F4",
                    "midi": 65,
                    "time": 94.15982099999972,
                    "velocity": 0.3700787401574803,
                    "duration": 0.10245899999999608
                },
                {
                    "name": "D4",
                    "midi": 62,
                    "time": 94.26227999999972,
                    "velocity": 0.33070866141732286,
                    "duration": 0.10245899999999608
                },
                {
                    "name": "A#3",
                    "midi": 58,
                    "time": 94.36473899999972,
                    "velocity": 0.28346456692913385,
                    "duration": 0.10245899999999608
                },
                {
                    "name": "G#3",
                    "midi": 56,
                    "time": 94.46719799999971,
                    "velocity": 0.2440944881889764,
                    "duration": 0.10245899999999608
                },
                {
                    "name": "A#4",
                    "midi": 70,
                    "time": 94.56965699999971,
                    "velocity": 0.44881889763779526,
                    "duration": 0.10245899999999608
                },
                {
                    "name": "D#5",
                    "midi": 75,
                    "time": 94.6721159999997,
                    "velocity": 0.4881889763779528,
                    "duration": 0.10245899999999608
                },
                {
                    "name": "D#4",
                    "midi": 63,
                    "time": 94.7745749999997,
                    "velocity": 0.3464566929133858,
                    "duration": 0.10245899999999608
                },
                {
                    "name": "G4",
                    "midi": 67,
                    "time": 94.8770339999997,
                    "velocity": 0.3464566929133858,
                    "duration": 0.10245899999999608
                },
                {
                    "name": "A#3",
                    "midi": 58,
                    "time": 94.97949299999969,
                    "velocity": 0.30708661417322836,
                    "duration": 0.10245899999999608
                },
                {
                    "name": "G3",
                    "midi": 55,
                    "time": 95.08195199999969,
                    "velocity": 0.25984251968503935,
                    "duration": 0.10245899999999608
                },
                {
                    "name": "D#5",
                    "midi": 75,
                    "time": 95.18441099999968,
                    "velocity": 0.4251968503937008,
                    "duration": 0.10245899999999608
                },
                {
                    "name": "B4",
                    "midi": 71,
                    "time": 95.28686999999968,
                    "velocity": 0.44881889763779526,
                    "duration": 0.10245899999999608
                },
                {
                    "name": "G#4",
                    "midi": 68,
                    "time": 95.38932899999968,
                    "velocity": 0.3700787401574803,
                    "duration": 0.10245899999999608
                },
                {
                    "name": "D4",
                    "midi": 62,
                    "time": 95.49178799999967,
                    "velocity": 0.33070866141732286,
                    "duration": 0.10245899999999608
                },
                {
                    "name": "G#3",
                    "midi": 56,
                    "time": 95.59424699999967,
                    "velocity": 0.29133858267716534,
                    "duration": 0.10245899999999608
                },
                {
                    "name": "F3",
                    "midi": 53,
                    "time": 95.69670599999966,
                    "velocity": 0.25196850393700787,
                    "duration": 0.10245899999999608
                },
                {
                    "name": "B4",
                    "midi": 71,
                    "time": 95.79916499999966,
                    "velocity": 0.44881889763779526,
                    "duration": 0.10245899999999608
                },
                {
                    "name": "C5",
                    "midi": 72,
                    "time": 95.90162399999966,
                    "velocity": 0.44881889763779526,
                    "duration": 0.10245899999999608
                },
                {
                    "name": "C4",
                    "midi": 60,
                    "time": 96.00408299999965,
                    "velocity": 0.31496062992125984,
                    "duration": 0.10245899999999608
                },
                {
                    "name": "D#4",
                    "midi": 63,
                    "time": 96.10654199999965,
                    "velocity": 0.31496062992125984,
                    "duration": 0.10245899999999608
                },
                {
                    "name": "G3",
                    "midi": 55,
                    "time": 96.20900099999965,
                    "velocity": 0.28346456692913385,
                    "duration": 0.10245899999999608
                },
                {
                    "name": "D#3",
                    "midi": 51,
                    "time": 96.31145999999964,
                    "velocity": 0.2440944881889764,
                    "duration": 0.10245899999999608
                },
                {
                    "name": "C5",
                    "midi": 72,
                    "time": 96.41391899999964,
                    "velocity": 0.4409448818897638,
                    "duration": 0.10245899999999608
                },
                {
                    "name": "F#4",
                    "midi": 66,
                    "time": 96.51637799999963,
                    "velocity": 0.48031496062992124,
                    "duration": 0.10245899999999608
                },
                {
                    "name": "D4",
                    "midi": 62,
                    "time": 96.61883699999963,
                    "velocity": 0.3464566929133858,
                    "duration": 0.10245899999999608
                },
                {
                    "name": "A3",
                    "midi": 57,
                    "time": 96.72129599999963,
                    "velocity": 0.3464566929133858,
                    "duration": 0.10245899999999608
                },
                {
                    "name": "D3",
                    "midi": 50,
                    "time": 96.82375499999962,
                    "velocity": 0.28346456692913385,
                    "duration": 0.10245899999999608
                },
                {
                    "name": "C3",
                    "midi": 48,
                    "time": 96.92621399999962,
                    "velocity": 0.2677165354330709,
                    "duration": 0.10245899999999608
                },
                {
                    "name": "F#4",
                    "midi": 66,
                    "time": 97.02867299999961,
                    "velocity": 0.44881889763779526,
                    "duration": 0.10245899999999608
                },
                {
                    "name": "G4",
                    "midi": 67,
                    "time": 97.13113199999961,
                    "velocity": 0.4881889763779528,
                    "duration": 0.10245899999999608
                },
                {
                    "name": "G3",
                    "midi": 55,
                    "time": 97.2335909999996,
                    "velocity": 0.3464566929133858,
                    "duration": 0.10245899999999608
                },
                {
                    "name": "A#3",
                    "midi": 58,
                    "time": 97.3360499999996,
                    "velocity": 0.3464566929133858,
                    "duration": 0.10245899999999608
                },
                {
                    "name": "D3",
                    "midi": 50,
                    "time": 97.4385089999996,
                    "velocity": 0.31496062992125984,
                    "duration": 0.10245899999999608
                },
                {
                    "name": "A#2",
                    "midi": 46,
                    "time": 97.5409679999996,
                    "velocity": 0.2755905511811024,
                    "duration": 0.10245899999999608
                },
                {
                    "name": "G4",
                    "midi": 67,
                    "time": 97.64342699999959,
                    "velocity": 0.4409448818897638,
                    "duration": 0.10245899999999608
                },
                {
                    "name": "F#4",
                    "midi": 66,
                    "time": 97.74588599999959,
                    "velocity": 0.48031496062992124,
                    "duration": 0.10245899999999608
                },
                {
                    "name": "A#3",
                    "midi": 58,
                    "time": 97.84834499999958,
                    "velocity": 0.33858267716535434,
                    "duration": 0.10245899999999608
                },
                {
                    "name": "F#3",
                    "midi": 54,
                    "time": 97.95080399999958,
                    "velocity": 0.33858267716535434,
                    "duration": 0.10245899999999608
                },
                {
                    "name": "A#2",
                    "midi": 46,
                    "time": 98.05326299999957,
                    "velocity": 0.2992125984251969,
                    "duration": 0.10245899999999608
                },
                {
                    "name": "D#2",
                    "midi": 39,
                    "time": 98.15572199999957,
                    "velocity": 0.25196850393700787,
                    "duration": 0.10245899999999608
                },
                {
                    "name": "F#4",
                    "midi": 66,
                    "time": 98.25818099999957,
                    "velocity": 0.4409448818897638,
                    "duration": 0.10245899999999608
                },
                {
                    "name": "F4",
                    "midi": 65,
                    "time": 98.36063999999956,
                    "velocity": 0.44881889763779526,
                    "duration": 0.10245899999999608
                },
                {
                    "name": "A3",
                    "midi": 57,
                    "time": 98.46309899999956,
                    "velocity": 0.3228346456692913,
                    "duration": 0.10245899999999608
                },
                {
                    "name": "F3",
                    "midi": 53,
                    "time": 98.56555799999956,
                    "velocity": 0.31496062992125984,
                    "duration": 0.10245899999999608
                },
                {
                    "name": "A2",
                    "midi": 45,
                    "time": 98.66801699999955,
                    "velocity": 0.28346456692913385,
                    "duration": 0.10245899999999608
                },
                {
                    "name": "F2",
                    "midi": 41,
                    "time": 98.77047599999955,
                    "velocity": 0.2283464566929134,
                    "duration": 0.10245899999999608
                },
                {
                    "name": "F4",
                    "midi": 65,
                    "time": 98.87293499999954,
                    "velocity": 0.4015748031496063,
                    "duration": 0.10245899999999608
                },
                {
                    "name": "D4",
                    "midi": 62,
                    "time": 98.97539399999954,
                    "velocity": 0.4251968503937008,
                    "duration": 0.10245899999999608
                },
                {
                    "name": "A#3",
                    "midi": 58,
                    "time": 99.07785299999954,
                    "velocity": 0.29133858267716534,
                    "duration": 0.10245899999999608
                },
                {
                    "name": "D3",
                    "midi": 50,
                    "time": 99.18031199999953,
                    "velocity": 0.29133858267716534,
                    "duration": 0.10245899999999608
                },
                {
                    "name": "F2",
                    "midi": 41,
                    "time": 99.28277099999953,
                    "velocity": 0.2755905511811024,
                    "duration": 0.10245899999999608
                },
                {
                    "name": "A#1",
                    "midi": 34,
                    "time": 99.38522999999952,
                    "velocity": 0.25196850393700787,
                    "duration": 0.10245899999999608
                },
                {
                    "name": "G5",
                    "midi": 79,
                    "time": 99.48768899999952,
                    "velocity": 0.3937007874015748,
                    "duration": 0.10245899999999608
                },
                {
                    "name": "F5",
                    "midi": 77,
                    "time": 99.59014799999952,
                    "velocity": 0.4015748031496063,
                    "duration": 0.10245899999999608
                },
                {
                    "name": "G#4",
                    "midi": 68,
                    "time": 99.69260699999951,
                    "velocity": 0.2755905511811024,
                    "duration": 0.10245899999999608
                },
                {
                    "name": "C5",
                    "midi": 72,
                    "time": 99.79506599999951,
                    "velocity": 0.2755905511811024,
                    "duration": 0.10245899999999608
                },
                {
                    "name": "F4",
                    "midi": 65,
                    "time": 99.8975249999995,
                    "velocity": 0.2283464566929134,
                    "duration": 0.10245899999999608
                },
                {
                    "name": "D4",
                    "midi": 62,
                    "time": 99.9999839999995,
                    "velocity": 0.2047244094488189,
                    "duration": 0.10245899999999608
                },
                {
                    "name": "D#5",
                    "midi": 75,
                    "time": 100.1024429999995,
                    "velocity": 0.3700787401574803,
                    "duration": 0.10245899999999608
                },
                {
                    "name": "D5",
                    "midi": 74,
                    "time": 100.20490199999949,
                    "velocity": 0.4015748031496063,
                    "duration": 0.10245899999999608
                },
                {
                    "name": "G4",
                    "midi": 67,
                    "time": 100.30736099999949,
                    "velocity": 0.28346456692913385,
                    "duration": 0.10245899999999608
                },
                {
                    "name": "D4",
                    "midi": 62,
                    "time": 100.40981999999948,
                    "velocity": 0.2755905511811024,
                    "duration": 0.10245899999999608
                },
                {
                    "name": "B3",
                    "midi": 59,
                    "time": 100.51227899999948,
                    "velocity": 0.2204724409448819,
                    "duration": 0.10245899999999608
                },
                {
                    "name": "F3",
                    "midi": 53,
                    "time": 100.61473799999948,
                    "velocity": 0.18110236220472442,
                    "duration": 0.10245899999999608
                },
                {
                    "name": "B4",
                    "midi": 71,
                    "time": 100.71719699999947,
                    "velocity": 0.3937007874015748,
                    "duration": 0.10245899999999608
                },
                {
                    "name": "C5",
                    "midi": 72,
                    "time": 100.81965599999947,
                    "velocity": 0.4015748031496063,
                    "duration": 0.10245899999999608
                },
                {
                    "name": "G4",
                    "midi": 67,
                    "time": 100.92211499999947,
                    "velocity": 0.2755905511811024,
                    "duration": 0.10245899999999608
                },
                {
                    "name": "G#4",
                    "midi": 68,
                    "time": 101.02457399999946,
                    "velocity": 0.2755905511811024,
                    "duration": 0.10245899999999608
                },
                {
                    "name": "D#4",
                    "midi": 63,
                    "time": 101.12703299999946,
                    "velocity": 0.25196850393700787,
                    "duration": 0.10245899999999608
                },
                {
                    "name": "C4",
                    "midi": 60,
                    "time": 101.22949199999945,
                    "velocity": 0.2125984251968504,
                    "duration": 0.10245899999999608
                },
                {
                    "name": "D5",
                    "midi": 74,
                    "time": 101.33195099999945,
                    "velocity": 0.3779527559055118,
                    "duration": 0.10245899999999608
                },
                {
                    "name": "D#5",
                    "midi": 75,
                    "time": 101.43440999999945,
                    "velocity": 0.4094488188976378,
                    "duration": 0.10245899999999608
                },
                {
                    "name": "G4",
                    "midi": 67,
                    "time": 101.53686899999944,
                    "velocity": 0.2992125984251969,
                    "duration": 0.10245899999999608
                },
                {
                    "name": "C4",
                    "midi": 60,
                    "time": 101.63932799999944,
                    "velocity": 0.28346456692913385,
                    "duration": 0.10245899999999608
                },
                {
                    "name": "G3",
                    "midi": 55,
                    "time": 101.74178699999943,
                    "velocity": 0.25984251968503935,
                    "duration": 0.10245899999999608
                },
                {
                    "name": "D#3",
                    "midi": 51,
                    "time": 101.84424599999943,
                    "velocity": 0.2440944881889764,
                    "duration": 0.10245899999999608
                },
                {
                    "name": "C5",
                    "midi": 72,
                    "time": 101.94670499999943,
                    "velocity": 0.4330708661417323,
                    "duration": 0.10245899999999608
                },
                {
                    "name": "G#5",
                    "midi": 80,
                    "time": 102.04916399999942,
                    "velocity": 0.4881889763779528,
                    "duration": 0.10245899999999608
                },
                {
                    "name": "G#4",
                    "midi": 68,
                    "time": 102.15162299999942,
                    "velocity": 0.33858267716535434,
                    "duration": 0.10245899999999608
                },
                {
                    "name": "C4",
                    "midi": 60,
                    "time": 102.25408199999941,
                    "velocity": 0.33858267716535434,
                    "duration": 0.10245899999999608
                },
                {
                    "name": "F3",
                    "midi": 53,
                    "time": 102.35654099999941,
                    "velocity": 0.2992125984251969,
                    "duration": 0.10245899999999608
                },
                {
                    "name": "D3",
                    "midi": 50,
                    "time": 102.4589999999994,
                    "velocity": 0.2440944881889764,
                    "duration": 0.10245899999999608
                },
                {
                    "name": "G#5",
                    "midi": 80,
                    "time": 102.5614589999994,
                    "velocity": 0.44881889763779526,
                    "duration": 0.10245899999999608
                },
                {
                    "name": "G5",
                    "midi": 79,
                    "time": 102.6639179999994,
                    "velocity": 0.4881889763779528,
                    "duration": 0.10245899999999608
                },
                {
                    "name": "G4",
                    "midi": 67,
                    "time": 102.7663769999994,
                    "velocity": 0.3543307086614173,
                    "duration": 0.10245899999999608
                },
                {
                    "name": "B3",
                    "midi": 59,
                    "time": 102.86883599999939,
                    "velocity": 0.33858267716535434,
                    "duration": 0.10245899999999608
                },
                {
                    "name": "D3",
                    "midi": 50,
                    "time": 102.97129499999939,
                    "velocity": 0.2992125984251969,
                    "duration": 0.10245899999999608
                },
                {
                    "name": "G2",
                    "midi": 43,
                    "time": 103.07375399999938,
                    "velocity": 0.2440944881889764,
                    "duration": 0.10245899999999608
                },
                {
                    "name": "G5",
                    "midi": 79,
                    "time": 103.17621299999938,
                    "velocity": 0.4409448818897638,
                    "duration": 0.10245899999999608
                },
                {
                    "name": "D#5",
                    "midi": 75,
                    "time": 103.27867199999937,
                    "velocity": 0.49606299212598426,
                    "duration": 0.10245899999999608
                },
                {
                    "name": "G4",
                    "midi": 67,
                    "time": 103.38113099999937,
                    "velocity": 0.31496062992125984,
                    "duration": 0.10245899999999608
                },
                {
                    "name": "C4",
                    "midi": 60,
                    "time": 103.48358999999937,
                    "velocity": 0.31496062992125984,
                    "duration": 0.10245899999999608
                },
                {
                    "name": "D#3",
                    "midi": 51,
                    "time": 103.58604899999936,
                    "velocity": 0.2755905511811024,
                    "duration": 0.10245899999999608
                },
                {
                    "name": "C3",
                    "midi": 48,
                    "time": 103.68850799999936,
                    "velocity": 0.23622047244094488,
                    "duration": 0.10245899999999608
                },
                {
                    "name": "D#5",
                    "midi": 75,
                    "time": 103.79096699999936,
                    "velocity": 0.4015748031496063,
                    "duration": 0.10245899999999608
                },
                {
                    "name": "C5",
                    "midi": 72,
                    "time": 103.89342599999935,
                    "velocity": 0.4251968503937008,
                    "duration": 0.10245899999999608
                },
                {
                    "name": "G4",
                    "midi": 67,
                    "time": 103.99588499999935,
                    "velocity": 0.33070866141732286,
                    "duration": 0.10245899999999608
                },
                {
                    "name": "C4",
                    "midi": 60,
                    "time": 104.09834399999934,
                    "velocity": 0.28346456692913385,
                    "duration": 0.10245899999999608
                },
                {
                    "name": "G3",
                    "midi": 55,
                    "time": 104.20080299999934,
                    "velocity": 0.23622047244094488,
                    "duration": 0.10245899999999608
                },
                {
                    "name": "D#3",
                    "midi": 51,
                    "time": 104.30326199999934,
                    "velocity": 0.2125984251968504,
                    "duration": 0.10245899999999608
                },
                {
                    "name": "F5",
                    "midi": 77,
                    "time": 104.40572099999933,
                    "velocity": 0.3937007874015748,
                    "duration": 0.10245899999999608
                },
                {
                    "name": "D#5",
                    "midi": 75,
                    "time": 104.50817999999933,
                    "velocity": 0.4409448818897638,
                    "duration": 0.10245899999999608
                },
                {
                    "name": "F#4",
                    "midi": 66,
                    "time": 104.61063899999932,
                    "velocity": 0.3228346456692913,
                    "duration": 0.10245899999999608
                },
                {
                    "name": "A#4",
                    "midi": 70,
                    "time": 104.71309799999932,
                    "velocity": 0.3464566929133858,
                    "duration": 0.10245899999999608
                },
                {
                    "name": "D#4",
                    "midi": 63,
                    "time": 104.81555699999932,
                    "velocity": 0.2755905511811024,
                    "duration": 0.10245899999999608
                },
                {
                    "name": "C4",
                    "midi": 60,
                    "time": 104.91801599999931,
                    "velocity": 0.25984251968503935,
                    "duration": 0.10245899999999608
                },
                {
                    "name": "C#5",
                    "midi": 73,
                    "time": 105.02047499999931,
                    "velocity": 0.3937007874015748,
                    "duration": 0.10245899999999608
                },
                {
                    "name": "C5",
                    "midi": 72,
                    "time": 105.1229339999993,
                    "velocity": 0.4251968503937008,
                    "duration": 0.10245899999999608
                },
                {
                    "name": "F4",
                    "midi": 65,
                    "time": 105.2253929999993,
                    "velocity": 0.3464566929133858,
                    "duration": 0.10245899999999608
                },
                {
                    "name": "C4",
                    "midi": 60,
                    "time": 105.3278519999993,
                    "velocity": 0.30708661417322836,
                    "duration": 0.10245899999999608
                },
                {
                    "name": "A3",
                    "midi": 57,
                    "time": 105.43031099999929,
                    "velocity": 0.29133858267716534,
                    "duration": 0.10245899999999608
                },
                {
                    "name": "D#3",
                    "midi": 51,
                    "time": 105.53276999999929,
                    "velocity": 0.25196850393700787,
                    "duration": 0.10245899999999608
                },
                {
                    "name": "A4",
                    "midi": 69,
                    "time": 105.63522899999928,
                    "velocity": 0.4094488188976378,
                    "duration": 0.10245899999999608
                },
                {
                    "name": "A#4",
                    "midi": 70,
                    "time": 105.73768799999928,
                    "velocity": 0.4409448818897638,
                    "duration": 0.10245899999999608
                },
                {
                    "name": "F4",
                    "midi": 65,
                    "time": 105.84014699999928,
                    "velocity": 0.31496062992125984,
                    "duration": 0.10245899999999608
                },
                {
                    "name": "F#4",
                    "midi": 66,
                    "time": 105.94260599999927,
                    "velocity": 0.31496062992125984,
                    "duration": 0.10245899999999608
                },
                {
                    "name": "C#4",
                    "midi": 61,
                    "time": 106.04506499999927,
                    "velocity": 0.28346456692913385,
                    "duration": 0.10245899999999608
                },
                {
                    "name": "A#3",
                    "midi": 58,
                    "time": 106.14752399999927,
                    "velocity": 0.2440944881889764,
                    "duration": 0.10245899999999608
                },
                {
                    "name": "C5",
                    "midi": 72,
                    "time": 106.24998299999926,
                    "velocity": 0.41732283464566927,
                    "duration": 0.10245899999999608
                },
                {
                    "name": "C#5",
                    "midi": 73,
                    "time": 106.35244199999926,
                    "velocity": 0.48031496062992124,
                    "duration": 0.10245899999999608
                },
                {
                    "name": "F4",
                    "midi": 65,
                    "time": 106.45490099999925,
                    "velocity": 0.33858267716535434,
                    "duration": 0.10245899999999608
                },
                {
                    "name": "A#3",
                    "midi": 58,
                    "time": 106.55735999999925,
                    "velocity": 0.33070866141732286,
                    "duration": 0.10245899999999608
                },
                {
                    "name": "F3",
                    "midi": 53,
                    "time": 106.65981899999925,
                    "velocity": 0.30708661417322836,
                    "duration": 0.10245899999999608
                },
                {
                    "name": "C#3",
                    "midi": 49,
                    "time": 106.76227799999924,
                    "velocity": 0.2677165354330709,
                    "duration": 0.10245899999999608
                },
                {
                    "name": "A#4",
                    "midi": 70,
                    "time": 106.86473699999924,
                    "velocity": 0.44881889763779526,
                    "duration": 0.10245899999999608
                },
                {
                    "name": "F#5",
                    "midi": 78,
                    "time": 106.96719599999923,
                    "velocity": 0.5275590551181102,
                    "duration": 0.10245899999999608
                },
                {
                    "name": "F#4",
                    "midi": 66,
                    "time": 107.06965499999923,
                    "velocity": 0.3858267716535433,
                    "duration": 0.10245899999999608
                },
                {
                    "name": "D#4",
                    "midi": 63,
                    "time": 107.17211399999923,
                    "velocity": 0.3464566929133858,
                    "duration": 0.10245899999999608
                },
                {
                    "name": "A#3",
                    "midi": 58,
                    "time": 107.27457299999922,
                    "velocity": 0.31496062992125984,
                    "duration": 0.10245899999999608
                },
                {
                    "name": "D#3",
                    "midi": 51,
                    "time": 107.37703199999922,
                    "velocity": 0.2755905511811024,
                    "duration": 0.10245899999999608
                },
                {
                    "name": "F#5",
                    "midi": 78,
                    "time": 107.47949099999921,
                    "velocity": 0.4409448818897638,
                    "duration": 0.10245899999999608
                },
                {
                    "name": "A5",
                    "midi": 81,
                    "time": 107.58194999999921,
                    "velocity": 0.5118110236220472,
                    "duration": 0.10245899999999608
                },
                {
                    "name": "A4",
                    "midi": 69,
                    "time": 107.6844089999992,
                    "velocity": 0.3779527559055118,
                    "duration": 0.10245899999999608
                },
                {
                    "name": "F#4",
                    "midi": 66,
                    "time": 107.7868679999992,
                    "velocity": 0.33858267716535434,
                    "duration": 0.10245899999999608
                },
                {
                    "name": "D#4",
                    "midi": 63,
                    "time": 107.8893269999992,
                    "velocity": 0.29133858267716534,
                    "duration": 0.10245899999999608
                },
                {
                    "name": "F#3",
                    "midi": 54,
                    "time": 107.9917859999992,
                    "velocity": 0.25196850393700787,
                    "duration": 0.10245899999999608
                },
                {
                    "name": "A5",
                    "midi": 81,
                    "time": 108.09424499999919,
                    "velocity": 0.3858267716535433,
                    "duration": 0.10245899999999608
                },
                {
                    "name": "A#5",
                    "midi": 82,
                    "time": 108.19670399999919,
                    "velocity": 0.47244094488188976,
                    "duration": 0.10245899999999608
                },
                {
                    "name": "A#4",
                    "midi": 70,
                    "time": 108.29916299999918,
                    "velocity": 0.2992125984251969,
                    "duration": 0.10245899999999608
                },
                {
                    "name": "G4",
                    "midi": 67,
                    "time": 108.40162199999918,
                    "velocity": 0.2755905511811024,
                    "duration": 0.10245899999999608
                },
                {
                    "name": "D#4",
                    "midi": 63,
                    "time": 108.50408099999918,
                    "velocity": 0.25196850393700787,
                    "duration": 0.10245899999999608
                },
                {
                    "name": "G3",
                    "midi": 55,
                    "time": 108.60653999999917,
                    "velocity": 0.2047244094488189,
                    "duration": 0.10245899999999608
                },
                {
                    "name": "G5",
                    "midi": 79,
                    "time": 108.70899899999917,
                    "velocity": 0.36220472440944884,
                    "duration": 0.10245899999999608
                },
                {
                    "name": "F5",
                    "midi": 77,
                    "time": 108.81145799999916,
                    "velocity": 0.41732283464566927,
                    "duration": 0.10245899999999608
                },
                {
                    "name": "C5",
                    "midi": 72,
                    "time": 108.91391699999916,
                    "velocity": 0.25196850393700787,
                    "duration": 0.10245899999999608
                },
                {
                    "name": "F4",
                    "midi": 65,
                    "time": 109.01637599999916,
                    "velocity": 0.25196850393700787,
                    "duration": 0.10245899999999608
                },
                {
                    "name": "D#4",
                    "midi": 63,
                    "time": 109.11883499999915,
                    "velocity": 0.2125984251968504,
                    "duration": 0.10245899999999608
                },
                {
                    "name": "A3",
                    "midi": 57,
                    "time": 109.22129399999915,
                    "velocity": 0.18110236220472442,
                    "duration": 0.10245899999999608
                },
                {
                    "name": "G5",
                    "midi": 79,
                    "time": 109.32375299999914,
                    "velocity": 0.3937007874015748,
                    "duration": 0.10245899999999608
                },
                {
                    "name": "F5",
                    "midi": 77,
                    "time": 109.42621199999914,
                    "velocity": 0.4015748031496063,
                    "duration": 0.10245899999999608
                },
                {
                    "name": "A#4",
                    "midi": 70,
                    "time": 109.52867099999914,
                    "velocity": 0.2755905511811024,
                    "duration": 0.10245899999999608
                },
                {
                    "name": "D5",
                    "midi": 74,
                    "time": 109.63112999999913,
                    "velocity": 0.2755905511811024,
                    "duration": 0.10245899999999608
                },
                {
                    "name": "F4",
                    "midi": 65,
                    "time": 109.73358899999913,
                    "velocity": 0.23622047244094488,
                    "duration": 0.10245899999999608
                },
                {
                    "name": "A#3",
                    "midi": 58,
                    "time": 109.83604799999912,
                    "velocity": 0.1889763779527559,
                    "duration": 0.10245899999999608
                },
                {
                    "name": "D#5",
                    "midi": 75,
                    "time": 109.93850699999912,
                    "velocity": 0.3700787401574803,
                    "duration": 0.10245899999999608
                },
                {
                    "name": "D5",
                    "midi": 74,
                    "time": 110.04096599999912,
                    "velocity": 0.4015748031496063,
                    "duration": 0.10245899999999608
                },
                {
                    "name": "F4",
                    "midi": 65,
                    "time": 110.14342499999911,
                    "velocity": 0.28346456692913385,
                    "duration": 0.10245899999999608
                },
                {
                    "name": "A#4",
                    "midi": 70,
                    "time": 110.24588399999911,
                    "velocity": 0.2755905511811024,
                    "duration": 0.10245899999999608
                },
                {
                    "name": "D4",
                    "midi": 62,
                    "time": 110.3483429999991,
                    "velocity": 0.2204724409448819,
                    "duration": 0.10245899999999608
                },
                {
                    "name": "A#3",
                    "midi": 58,
                    "time": 110.4508019999991,
                    "velocity": 0.18110236220472442,
                    "duration": 0.10245899999999608
                },
                {
                    "name": "D5",
                    "midi": 74,
                    "time": 110.5532609999991,
                    "velocity": 0.3937007874015748,
                    "duration": 0.10245899999999608
                },
                {
                    "name": "C5",
                    "midi": 72,
                    "time": 110.65571999999909,
                    "velocity": 0.4015748031496063,
                    "duration": 0.10245899999999608
                },
                {
                    "name": "F4",
                    "midi": 65,
                    "time": 110.75817899999909,
                    "velocity": 0.2755905511811024,
                    "duration": 0.10245899999999608
                },
                {
                    "name": "F#4",
                    "midi": 66,
                    "time": 110.86063799999908,
                    "velocity": 0.2755905511811024,
                    "duration": 0.10245899999999608
                },
                {
                    "name": "D#4",
                    "midi": 63,
                    "time": 110.96309699999908,
                    "velocity": 0.25196850393700787,
                    "duration": 0.10245899999999608
                },
                {
                    "name": "A#3",
                    "midi": 58,
                    "time": 111.06555599999908,
                    "velocity": 0.2125984251968504,
                    "duration": 0.10245899999999608
                },
                {
                    "name": "D5",
                    "midi": 74,
                    "time": 111.16801499999907,
                    "velocity": 0.3779527559055118,
                    "duration": 0.10245899999999608
                },
                {
                    "name": "D#5",
                    "midi": 75,
                    "time": 111.27047399999907,
                    "velocity": 0.4094488188976378,
                    "duration": 0.10245899999999608
                },
                {
                    "name": "F4",
                    "midi": 65,
                    "time": 111.37293299999907,
                    "velocity": 0.2992125984251969,
                    "duration": 0.10245899999999608
                },
                {
                    "name": "F#4",
                    "midi": 66,
                    "time": 111.47539199999906,
                    "velocity": 0.28346456692913385,
                    "duration": 0.10245899999999608
                },
                {
                    "name": "D#4",
                    "midi": 63,
                    "time": 111.57785099999906,
                    "velocity": 0.25196850393700787,
                    "duration": 0.10245899999999608
                },
                {
                    "name": "A#3",
                    "midi": 58,
                    "time": 111.68030999999905,
                    "velocity": 0.2283464566929134,
                    "duration": 0.10245899999999608
                },
                {
                    "name": "D5",
                    "midi": 74,
                    "time": 111.78276899999905,
                    "velocity": 0.41732283464566927,
                    "duration": 0.10245899999999608
                },
                {
                    "name": "C5",
                    "midi": 72,
                    "time": 111.88522799999905,
                    "velocity": 0.4251968503937008,
                    "duration": 0.10245899999999608
                },
                {
                    "name": "F4",
                    "midi": 65,
                    "time": 111.98768699999904,
                    "velocity": 0.2992125984251969,
                    "duration": 0.10245899999999608
                },
                {
                    "name": "F#4",
                    "midi": 66,
                    "time": 112.09014599999904,
                    "velocity": 0.2992125984251969,
                    "duration": 0.10245899999999608
                },
                {
                    "name": "D#4",
                    "midi": 63,
                    "time": 112.19260499999903,
                    "velocity": 0.25984251968503935,
                    "duration": 0.10245899999999608
                },
                {
                    "name": "A#3",
                    "midi": 58,
                    "time": 112.29506399999903,
                    "velocity": 0.2125984251968504,
                    "duration": 0.10245899999999608
                },
                {
                    "name": "D5",
                    "midi": 74,
                    "time": 112.39752299999903,
                    "velocity": 0.4094488188976378,
                    "duration": 0.10245899999999608
                },
                {
                    "name": "D#5",
                    "midi": 75,
                    "time": 112.49998199999902,
                    "velocity": 0.4409448818897638,
                    "duration": 0.10245899999999608
                },
                {
                    "name": "F4",
                    "midi": 65,
                    "time": 112.60244099999902,
                    "velocity": 0.33070866141732286,
                    "duration": 0.10245899999999608
                },
                {
                    "name": "D#4",
                    "midi": 63,
                    "time": 112.70489999999901,
                    "velocity": 0.30708661417322836,
                    "duration": 0.10245899999999608
                },
                {
                    "name": "C4",
                    "midi": 60,
                    "time": 112.80735899999901,
                    "velocity": 0.28346456692913385,
                    "duration": 0.10245899999999608
                },
                {
                    "name": "A#3",
                    "midi": 58,
                    "time": 112.909817999999,
                    "velocity": 0.2440944881889764,
                    "duration": 0.10245899999999608
                },
                {
                    "name": "A4",
                    "midi": 69,
                    "time": 113.012276999999,
                    "velocity": 0.4409448818897638,
                    "duration": 0.10245899999999608
                },
                {
                    "name": "A#4",
                    "midi": 70,
                    "time": 113.114735999999,
                    "velocity": 0.44881889763779526,
                    "duration": 0.10245899999999608
                },
                {
                    "name": "F4",
                    "midi": 65,
                    "time": 113.217194999999,
                    "velocity": 0.31496062992125984,
                    "duration": 0.10245899999999608
                },
                {
                    "name": "D4",
                    "midi": 62,
                    "time": 113.31965399999899,
                    "velocity": 0.31496062992125984,
                    "duration": 0.10245899999999608
                },
                {
                    "name": "A#3",
                    "midi": 58,
                    "time": 113.42211299999899,
                    "velocity": 0.28346456692913385,
                    "duration": 0.10245899999999608
                },
                {
                    "name": "A3",
                    "midi": 57,
                    "time": 113.52457199999898,
                    "velocity": 0.23622047244094488,
                    "duration": 0.10245899999999608
                },
                {
                    "name": "C5",
                    "midi": 72,
                    "time": 113.62703099999898,
                    "velocity": 0.4251968503937008,
                    "duration": 0.10245899999999608
                },
                {
                    "name": "D5",
                    "midi": 74,
                    "time": 113.72948999999898,
                    "velocity": 0.44881889763779526,
                    "duration": 0.10245899999999608
                },
                {
                    "name": "F4",
                    "midi": 65,
                    "time": 113.83194899999897,
                    "velocity": 0.3700787401574803,
                    "duration": 0.10245899999999608
                },
                {
                    "name": "D4",
                    "midi": 62,
                    "time": 113.93440799999897,
                    "velocity": 0.33070866141732286,
                    "duration": 0.10245899999999608
                },
                {
                    "name": "A#3",
                    "midi": 58,
                    "time": 114.03686699999896,
                    "velocity": 0.28346456692913385,
                    "duration": 0.10245899999999608
                },
                {
                    "name": "G#3",
                    "midi": 56,
                    "time": 114.13932599999896,
                    "velocity": 0.23622047244094488,
                    "duration": 0.10245899999999608
                },
                {
                    "name": "A#4",
                    "midi": 70,
                    "time": 114.24178499999896,
                    "velocity": 0.44881889763779526,
                    "duration": 0.10245899999999608
                },
                {
                    "name": "D#5",
                    "midi": 75,
                    "time": 114.34424399999895,
                    "velocity": 0.44881889763779526,
                    "duration": 0.10245899999999608
                },
                {
                    "name": "D#4",
                    "midi": 63,
                    "time": 114.44670299999895,
                    "velocity": 0.3464566929133858,
                    "duration": 0.10245899999999608
                },
                {
                    "name": "G4",
                    "midi": 67,
                    "time": 114.54916199999894,
                    "velocity": 0.3464566929133858,
                    "duration": 0.10245899999999608
                },
                {
                    "name": "A#3",
                    "midi": 58,
                    "time": 114.65162099999894,
                    "velocity": 0.2992125984251969,
                    "duration": 0.10245899999999608
                },
                {
                    "name": "G3",
                    "midi": 55,
                    "time": 114.75407999999894,
                    "velocity": 0.25984251968503935,
                    "duration": 0.10245899999999608
                },
                {
                    "name": "D#5",
                    "midi": 75,
                    "time": 114.85653899999893,
                    "velocity": 0.4251968503937008,
                    "duration": 0.10245899999999608
                },
                {
                    "name": "B4",
                    "midi": 71,
                    "time": 114.95899799999893,
                    "velocity": 0.44881889763779526,
                    "duration": 0.10245899999999608
                },
                {
                    "name": "G#4",
                    "midi": 68,
                    "time": 115.06145699999892,
                    "velocity": 0.3700787401574803,
                    "duration": 0.10245899999999608
                },
                {
                    "name": "D4",
                    "midi": 62,
                    "time": 115.16391599999892,
                    "velocity": 0.33070866141732286,
                    "duration": 0.10245899999999608
                },
                {
                    "name": "G#3",
                    "midi": 56,
                    "time": 115.26637499999892,
                    "velocity": 0.28346456692913385,
                    "duration": 0.10245899999999608
                },
                {
                    "name": "F3",
                    "midi": 53,
                    "time": 115.36883399999891,
                    "velocity": 0.2440944881889764,
                    "duration": 0.10245899999999608
                },
                {
                    "name": "B4",
                    "midi": 71,
                    "time": 115.47129299999891,
                    "velocity": 0.44881889763779526,
                    "duration": 0.10245899999999608
                },
                {
                    "name": "C5",
                    "midi": 72,
                    "time": 115.5737519999989,
                    "velocity": 0.44881889763779526,
                    "duration": 0.10245899999999608
                },
                {
                    "name": "C4",
                    "midi": 60,
                    "time": 115.6762109999989,
                    "velocity": 0.31496062992125984,
                    "duration": 0.10245899999999608
                },
                {
                    "name": "D#4",
                    "midi": 63,
                    "time": 115.7786699999989,
                    "velocity": 0.31496062992125984,
                    "duration": 0.10245899999999608
                },
                {
                    "name": "G3",
                    "midi": 55,
                    "time": 115.8811289999989,
                    "velocity": 0.28346456692913385,
                    "duration": 0.10245899999999608
                },
                {
                    "name": "D#3",
                    "midi": 51,
                    "time": 115.98358799999889,
                    "velocity": 0.2440944881889764,
                    "duration": 0.10245899999999608
                },
                {
                    "name": "C5",
                    "midi": 72,
                    "time": 116.08604699999889,
                    "velocity": 0.4409448818897638,
                    "duration": 0.10245899999999608
                },
                {
                    "name": "F#4",
                    "midi": 66,
                    "time": 116.18850599999888,
                    "velocity": 0.48031496062992124,
                    "duration": 0.10245899999999608
                },
                {
                    "name": "D4",
                    "midi": 62,
                    "time": 116.29096499999888,
                    "velocity": 0.3464566929133858,
                    "duration": 0.10245899999999608
                },
                {
                    "name": "A3",
                    "midi": 57,
                    "time": 116.39342399999887,
                    "velocity": 0.3464566929133858,
                    "duration": 0.10245899999999608
                },
                {
                    "name": "D3",
                    "midi": 50,
                    "time": 116.49588299999887,
                    "velocity": 0.2992125984251969,
                    "duration": 0.10245899999999608
                },
                {
                    "name": "C3",
                    "midi": 48,
                    "time": 116.59834199999887,
                    "velocity": 0.25196850393700787,
                    "duration": 0.10245899999999608
                },
                {
                    "name": "F#4",
                    "midi": 66,
                    "time": 116.70080099999886,
                    "velocity": 0.44881889763779526,
                    "duration": 0.10245899999999608
                },
                {
                    "name": "G4",
                    "midi": 67,
                    "time": 116.80325999999886,
                    "velocity": 0.4881889763779528,
                    "duration": 0.10245899999999608
                },
                {
                    "name": "G3",
                    "midi": 55,
                    "time": 116.90571899999885,
                    "velocity": 0.3464566929133858,
                    "duration": 0.10245899999999608
                },
                {
                    "name": "A#3",
                    "midi": 58,
                    "time": 117.00817799999885,
                    "velocity": 0.3464566929133858,
                    "duration": 0.10245899999999608
                },
                {
                    "name": "D3",
                    "midi": 50,
                    "time": 117.11063699999885,
                    "velocity": 0.2992125984251969,
                    "duration": 0.10245899999999608
                },
                {
                    "name": "A#2",
                    "midi": 46,
                    "time": 117.21309599999884,
                    "velocity": 0.25196850393700787,
                    "duration": 0.10245899999999608
                },
                {
                    "name": "G4",
                    "midi": 67,
                    "time": 117.31555499999884,
                    "velocity": 0.4409448818897638,
                    "duration": 0.10245899999999608
                },
                {
                    "name": "F#4",
                    "midi": 66,
                    "time": 117.41801399999883,
                    "velocity": 0.48031496062992124,
                    "duration": 0.10245899999999608
                },
                {
                    "name": "A#3",
                    "midi": 58,
                    "time": 117.52047299999883,
                    "velocity": 0.33858267716535434,
                    "duration": 0.10245899999999608
                },
                {
                    "name": "F#3",
                    "midi": 54,
                    "time": 117.62293199999883,
                    "velocity": 0.33858267716535434,
                    "duration": 0.10245899999999608
                },
                {
                    "name": "A#2",
                    "midi": 46,
                    "time": 117.72539099999882,
                    "velocity": 0.2992125984251969,
                    "duration": 0.10245899999999608
                },
                {
                    "name": "D#2",
                    "midi": 39,
                    "time": 117.82784999999882,
                    "velocity": 0.25196850393700787,
                    "duration": 0.10245899999999608
                },
                {
                    "name": "F#4",
                    "midi": 66,
                    "time": 117.93030899999881,
                    "velocity": 0.4409448818897638,
                    "duration": 0.10245899999999608
                },
                {
                    "name": "F4",
                    "midi": 65,
                    "time": 118.03276799999881,
                    "velocity": 0.44881889763779526,
                    "duration": 0.10245899999999608
                },
                {
                    "name": "A3",
                    "midi": 57,
                    "time": 118.1352269999988,
                    "velocity": 0.3228346456692913,
                    "duration": 0.10245899999999608
                },
                {
                    "name": "F3",
                    "midi": 53,
                    "time": 118.2376859999988,
                    "velocity": 0.31496062992125984,
                    "duration": 0.10245899999999608
                },
                {
                    "name": "A2",
                    "midi": 45,
                    "time": 118.3401449999988,
                    "velocity": 0.28346456692913385,
                    "duration": 0.10245899999999608
                },
                {
                    "name": "F2",
                    "midi": 41,
                    "time": 118.4426039999988,
                    "velocity": 0.2283464566929134,
                    "duration": 0.10245899999999608
                },
                {
                    "name": "F4",
                    "midi": 65,
                    "time": 118.54506299999879,
                    "velocity": 0.4015748031496063,
                    "duration": 0.10245899999999608
                },
                {
                    "name": "D4",
                    "midi": 62,
                    "time": 118.64752199999879,
                    "velocity": 0.4251968503937008,
                    "duration": 0.10245899999999608
                },
                {
                    "name": "A#3",
                    "midi": 58,
                    "time": 118.74998099999878,
                    "velocity": 0.29133858267716534,
                    "duration": 0.10245899999999608
                },
                {
                    "name": "D3",
                    "midi": 50,
                    "time": 118.85243999999878,
                    "velocity": 0.29133858267716534,
                    "duration": 0.10245899999999608
                },
                {
                    "name": "F2",
                    "midi": 41,
                    "time": 118.95489899999878,
                    "velocity": 0.2755905511811024,
                    "duration": 0.10245899999999608
                },
                {
                    "name": "A#1",
                    "midi": 34,
                    "time": 119.05735799999877,
                    "velocity": 0.25196850393700787,
                    "duration": 0.10245899999999608
                },
                {
                    "name": "A3",
                    "midi": 57,
                    "time": 119.15981699999877,
                    "velocity": 0.3937007874015748,
                    "duration": 0.10245899999999608
                },
                {
                    "name": "A#3",
                    "midi": 58,
                    "time": 119.26227599999876,
                    "velocity": 0.44881889763779526,
                    "duration": 0.10245899999999608
                },
                {
                    "name": "E3",
                    "midi": 52,
                    "time": 119.36473499999876,
                    "velocity": 0.33070866141732286,
                    "duration": 0.10245899999999608
                },
                {
                    "name": "C#4",
                    "midi": 61,
                    "time": 119.46719399999876,
                    "velocity": 0.33070866141732286,
                    "duration": 0.10245899999999608
                },
                {
                    "name": "E4",
                    "midi": 64,
                    "time": 119.56965299999875,
                    "velocity": 0.44881889763779526,
                    "duration": 0.10245899999999608
                },
                {
                    "name": "G3",
                    "midi": 55,
                    "time": 119.67211199999875,
                    "velocity": 0.33858267716535434,
                    "duration": 0.10245899999999608
                },
                {
                    "name": "A3",
                    "midi": 57,
                    "time": 119.77457099999874,
                    "velocity": 0.33858267716535434,
                    "duration": 0.10245899999999608
                },
                {
                    "name": "A#3",
                    "midi": 58,
                    "time": 119.87702999999874,
                    "velocity": 0.44881889763779526,
                    "duration": 0.10245899999999608
                },
                {
                    "name": "F3",
                    "midi": 53,
                    "time": 119.97948899999874,
                    "velocity": 0.3464566929133858,
                    "duration": 0.10245899999999608
                },
                {
                    "name": "D4",
                    "midi": 62,
                    "time": 120.08194799999873,
                    "velocity": 0.3464566929133858,
                    "duration": 0.10245899999999608
                },
                {
                    "name": "F4",
                    "midi": 65,
                    "time": 120.18440699999873,
                    "velocity": 0.44881889763779526,
                    "duration": 0.10245899999999608
                },
                {
                    "name": "A3",
                    "midi": 57,
                    "time": 120.28686599999872,
                    "velocity": 0.33858267716535434,
                    "duration": 0.10245899999999608
                },
                {
                    "name": "C4",
                    "midi": 60,
                    "time": 120.38932499999872,
                    "velocity": 0.3464566929133858,
                    "duration": 0.10245899999999608
                },
                {
                    "name": "C#4",
                    "midi": 61,
                    "time": 120.49178399999872,
                    "velocity": 0.44881889763779526,
                    "duration": 0.10245899999999608
                },
                {
                    "name": "G3",
                    "midi": 55,
                    "time": 120.59424299999871,
                    "velocity": 0.3464566929133858,
                    "duration": 0.10245899999999608
                },
                {
                    "name": "E4",
                    "midi": 64,
                    "time": 120.69670199999871,
                    "velocity": 0.3464566929133858,
                    "duration": 0.10245899999999608
                },
                {
                    "name": "G4",
                    "midi": 67,
                    "time": 120.7991609999987,
                    "velocity": 0.4645669291338583,
                    "duration": 0.10245899999999608
                },
                {
                    "name": "A#3",
                    "midi": 58,
                    "time": 120.9016199999987,
                    "velocity": 0.3464566929133858,
                    "duration": 0.10245899999999608
                },
                {
                    "name": "D4",
                    "midi": 62,
                    "time": 121.0040789999987,
                    "velocity": 0.3464566929133858,
                    "duration": 0.10245899999999608
                },
                {
                    "name": "D#4",
                    "midi": 63,
                    "time": 121.1065379999987,
                    "velocity": 0.4645669291338583,
                    "duration": 0.10245899999999608
                },
                {
                    "name": "A3",
                    "midi": 57,
                    "time": 121.20899699999869,
                    "velocity": 0.3464566929133858,
                    "duration": 0.10245899999999608
                },
                {
                    "name": "A4",
                    "midi": 69,
                    "time": 121.31145599999869,
                    "velocity": 0.3543307086614173,
                    "duration": 0.10245899999999608
                },
                {
                    "name": "C5",
                    "midi": 72,
                    "time": 121.41391499999868,
                    "velocity": 0.4645669291338583,
                    "duration": 0.10245899999999608
                },
                {
                    "name": "C4",
                    "midi": 60,
                    "time": 121.51637399999868,
                    "velocity": 0.36220472440944884,
                    "duration": 0.10245899999999608
                },
                {
                    "name": "D4",
                    "midi": 62,
                    "time": 121.61883299999867,
                    "velocity": 0.3700787401574803,
                    "duration": 0.10245899999999608
                },
                {
                    "name": "D#4",
                    "midi": 63,
                    "time": 121.72129199999867,
                    "velocity": 0.4881889763779528,
                    "duration": 0.10245899999999608
                },
                {
                    "name": "A#3",
                    "midi": 58,
                    "time": 121.82375099999867,
                    "velocity": 0.3700787401574803,
                    "duration": 0.10245899999999608
                },
                {
                    "name": "G4",
                    "midi": 67,
                    "time": 121.92620999999866,
                    "velocity": 0.3779527559055118,
                    "duration": 0.10245899999999608
                },
                {
                    "name": "A#4",
                    "midi": 70,
                    "time": 122.02866899999866,
                    "velocity": 0.49606299212598426,
                    "duration": 0.10245899999999608
                },
                {
                    "name": "D4",
                    "midi": 62,
                    "time": 122.13112799999865,
                    "velocity": 0.3858267716535433,
                    "duration": 0.10245899999999608
                },
                {
                    "name": "E4",
                    "midi": 64,
                    "time": 122.23358699999865,
                    "velocity": 0.3858267716535433,
                    "duration": 0.10245899999999608
                },
                {
                    "name": "F4",
                    "midi": 65,
                    "time": 122.33604599999865,
                    "velocity": 0.5118110236220472,
                    "duration": 0.10245899999999608
                },
                {
                    "name": "B3",
                    "midi": 59,
                    "time": 122.43850499999864,
                    "velocity": 0.3937007874015748,
                    "duration": 0.10245899999999608
                },
                {
                    "name": "B4",
                    "midi": 71,
                    "time": 122.54096399999864,
                    "velocity": 0.3937007874015748,
                    "duration": 0.10245899999999608
                },
                {
                    "name": "D5",
                    "midi": 74,
                    "time": 122.64342299999863,
                    "velocity": 0.5196850393700787,
                    "duration": 0.10245899999999608
                },
                {
                    "name": "F4",
                    "midi": 65,
                    "time": 122.74588199999863,
                    "velocity": 0.4094488188976378,
                    "duration": 0.10245899999999608
                },
                {
                    "name": "G4",
                    "midi": 67,
                    "time": 122.84834099999863,
                    "velocity": 0.4094488188976378,
                    "duration": 0.10245899999999608
                },
                {
                    "name": "G#4",
                    "midi": 68,
                    "time": 122.95079999999862,
                    "velocity": 0.5433070866141733,
                    "duration": 0.10245899999999608
                },
                {
                    "name": "D4",
                    "midi": 62,
                    "time": 123.05325899999862,
                    "velocity": 0.4094488188976378,
                    "duration": 0.10245899999999608
                },
                {
                    "name": "D5",
                    "midi": 74,
                    "time": 123.15571799999861,
                    "velocity": 0.4409448818897638,
                    "duration": 0.10245899999999608
                },
                {
                    "name": "F5",
                    "midi": 77,
                    "time": 123.25817699999861,
                    "velocity": 0.5590551181102362,
                    "duration": 0.10245899999999608
                },
                {
                    "name": "F4",
                    "midi": 65,
                    "time": 123.3606359999986,
                    "velocity": 0.44881889763779526,
                    "duration": 0.10245899999999608
                },
                {
                    "name": "G#4",
                    "midi": 68,
                    "time": 123.4630949999986,
                    "velocity": 0.4645669291338583,
                    "duration": 0.10245899999999608
                },
                {
                    "name": "A4",
                    "midi": 69,
                    "time": 123.5655539999986,
                    "velocity": 0.5984251968503937,
                    "duration": 0.10245899999999608
                },
                {
                    "name": "E4",
                    "midi": 64,
                    "time": 123.6680129999986,
                    "velocity": 0.49606299212598426,
                    "duration": 0.10245899999999608
                },
                {
                    "name": "C#5",
                    "midi": 73,
                    "time": 123.77047199999859,
                    "velocity": 0.49606299212598426,
                    "duration": 0.10245899999999608
                },
                {
                    "name": "E5",
                    "midi": 76,
                    "time": 123.87293099999859,
                    "velocity": 0.6062992125984252,
                    "duration": 0.10245899999999608
                },
                {
                    "name": "G4",
                    "midi": 67,
                    "time": 123.97538999999858,
                    "velocity": 0.5196850393700787,
                    "duration": 0.10245899999999608
                },
                {
                    "name": "A4",
                    "midi": 69,
                    "time": 124.07784899999858,
                    "velocity": 0.5275590551181102,
                    "duration": 0.10245899999999608
                },
                {
                    "name": "A#4",
                    "midi": 70,
                    "time": 124.18030799999858,
                    "velocity": 0.6377952755905512,
                    "duration": 0.10245899999999608
                },
                {
                    "name": "E4",
                    "midi": 64,
                    "time": 124.28276699999857,
                    "velocity": 0.49606299212598426,
                    "duration": 0.10245899999999608
                },
                {
                    "name": "C#5",
                    "midi": 73,
                    "time": 124.38522599999857,
                    "velocity": 0.4645669291338583,
                    "duration": 0.10245899999999608
                },
                {
                    "name": "E5",
                    "midi": 76,
                    "time": 124.48768499999856,
                    "velocity": 0.49606299212598426,
                    "duration": 0.10245899999999608
                },
                {
                    "name": "G4",
                    "midi": 67,
                    "time": 124.59014399999856,
                    "velocity": 0.3700787401574803,
                    "duration": 0.10245899999999608
                },
                {
                    "name": "A4",
                    "midi": 69,
                    "time": 124.69260299999856,
                    "velocity": 0.3700787401574803,
                    "duration": 0.10245899999999608
                },
                {
                    "name": "A#4",
                    "midi": 70,
                    "time": 124.79506199999855,
                    "velocity": 0.49606299212598426,
                    "duration": 0.10245899999999608
                },
                {
                    "name": "F4",
                    "midi": 65,
                    "time": 124.89752099999855,
                    "velocity": 0.3779527559055118,
                    "duration": 0.10245899999999608
                },
                {
                    "name": "D5",
                    "midi": 74,
                    "time": 124.99997999999854,
                    "velocity": 0.3779527559055118,
                    "duration": 0.10245899999999608
                },
                {
                    "name": "F5",
                    "midi": 77,
                    "time": 125.10243899999854,
                    "velocity": 0.4881889763779528,
                    "duration": 0.10245899999999608
                },
                {
                    "name": "A4",
                    "midi": 69,
                    "time": 125.20489799999854,
                    "velocity": 0.3700787401574803,
                    "duration": 0.10245899999999608
                },
                {
                    "name": "C5",
                    "midi": 72,
                    "time": 125.30735699999853,
                    "velocity": 0.3700787401574803,
                    "duration": 0.10245899999999608
                },
                {
                    "name": "C#5",
                    "midi": 73,
                    "time": 125.40981599999853,
                    "velocity": 0.4881889763779528,
                    "duration": 0.10245899999999608
                },
                {
                    "name": "G4",
                    "midi": 67,
                    "time": 125.51227499999852,
                    "velocity": 0.3700787401574803,
                    "duration": 0.10245899999999608
                },
                {
                    "name": "E5",
                    "midi": 76,
                    "time": 125.61473399999852,
                    "velocity": 0.3700787401574803,
                    "duration": 0.10245899999999608
                },
                {
                    "name": "G5",
                    "midi": 79,
                    "time": 125.71719299999852,
                    "velocity": 0.4881889763779528,
                    "duration": 0.10245899999999608
                },
                {
                    "name": "A#4",
                    "midi": 70,
                    "time": 125.81965199999851,
                    "velocity": 0.3700787401574803,
                    "duration": 0.10245899999999608
                },
                {
                    "name": "D5",
                    "midi": 74,
                    "time": 125.92211099999851,
                    "velocity": 0.3700787401574803,
                    "duration": 0.10245899999999608
                },
                {
                    "name": "D#5",
                    "midi": 75,
                    "time": 126.0245699999985,
                    "velocity": 0.4881889763779528,
                    "duration": 0.10245899999999608
                },
                {
                    "name": "A4",
                    "midi": 69,
                    "time": 126.1270289999985,
                    "velocity": 0.36220472440944884,
                    "duration": 0.10245899999999608
                },
                {
                    "name": "A5",
                    "midi": 81,
                    "time": 126.2294879999985,
                    "velocity": 0.3700787401574803,
                    "duration": 0.10245899999999608
                },
                {
                    "name": "C6",
                    "midi": 84,
                    "time": 126.3319469999985,
                    "velocity": 0.4881889763779528,
                    "duration": 0.10245899999999608
                },
                {
                    "name": "C5",
                    "midi": 72,
                    "time": 126.43440599999849,
                    "velocity": 0.3779527559055118,
                    "duration": 0.10245899999999608
                },
                {
                    "name": "D5",
                    "midi": 74,
                    "time": 126.53686499999849,
                    "velocity": 0.3858267716535433,
                    "duration": 0.10245899999999608
                },
                {
                    "name": "D#5",
                    "midi": 75,
                    "time": 126.63932399999848,
                    "velocity": 0.5118110236220472,
                    "duration": 0.10245899999999608
                },
                {
                    "name": "A#4",
                    "midi": 70,
                    "time": 126.74178299999848,
                    "velocity": 0.3858267716535433,
                    "duration": 0.10245899999999608
                },
                {
                    "name": "G5",
                    "midi": 79,
                    "time": 126.84424199999847,
                    "velocity": 0.3858267716535433,
                    "duration": 0.10245899999999608
                },
                {
                    "name": "A#5",
                    "midi": 82,
                    "time": 126.94670099999847,
                    "velocity": 0.5669291338582677,
                    "duration": 0.10245899999999608
                },
                {
                    "name": "D5",
                    "midi": 74,
                    "time": 127.04915999999847,
                    "velocity": 0.44881889763779526,
                    "duration": 0.10245899999999608
                },
                {
                    "name": "E5",
                    "midi": 76,
                    "time": 127.15161899999846,
                    "velocity": 0.44881889763779526,
                    "duration": 0.10245899999999608
                },
                {
                    "name": "F5",
                    "midi": 77,
                    "time": 127.25407799999846,
                    "velocity": 0.5826771653543307,
                    "duration": 0.10245899999999608
                },
                {
                    "name": "B4",
                    "midi": 71,
                    "time": 127.35653699999845,
                    "velocity": 0.44881889763779526,
                    "duration": 0.10245899999999608
                },
                {
                    "name": "D6",
                    "midi": 86,
                    "time": 127.45899599999845,
                    "velocity": 0.44881889763779526,
                    "duration": 0.10245899999999608
                },
                {
                    "name": "F6",
                    "midi": 89,
                    "time": 127.56145499999845,
                    "velocity": 0.5984251968503937,
                    "duration": 0.10245899999999608
                },
                {
                    "name": "F5",
                    "midi": 77,
                    "time": 127.66391399999844,
                    "velocity": 0.48031496062992124,
                    "duration": 0.10245899999999608
                },
                {
                    "name": "B5",
                    "midi": 83,
                    "time": 127.76637299999844,
                    "velocity": 0.48031496062992124,
                    "duration": 0.10245899999999608
                },
                {
                    "name": "C#6",
                    "midi": 85,
                    "time": 127.86883199999843,
                    "velocity": 0.6456692913385826,
                    "duration": 0.10245899999999608
                },
                {
                    "name": "E5",
                    "midi": 76,
                    "time": 127.97129099999843,
                    "velocity": 0.4881889763779528,
                    "duration": 0.10245899999999608
                },
                {
                    "name": "E6",
                    "midi": 88,
                    "time": 128.07374999999843,
                    "velocity": 0.5118110236220472,
                    "duration": 0.10245900000001029
                },
                {
                    "name": "A6",
                    "midi": 93,
                    "time": 128.17620899999844,
                    "velocity": 0.6456692913385826,
                    "duration": 0.10245900000001029
                },
                {
                    "name": "A5",
                    "midi": 81,
                    "time": 128.27866799999845,
                    "velocity": 0.5275590551181102,
                    "duration": 0.10245900000001029
                },
                {
                    "name": "D6",
                    "midi": 86,
                    "time": 128.38112699999846,
                    "velocity": 0.6299212598425197,
                    "duration": 0.10245900000001029
                },
                {
                    "name": "D7",
                    "midi": 98,
                    "time": 128.48358599999847,
                    "velocity": 0.7480314960629921,
                    "duration": 0.30737700000000245
                },
                {
                    "name": "F5",
                    "midi": 77,
                    "time": 128.89342199999848,
                    "velocity": 0.5826771653543307,
                    "duration": 0.10245900000001029
                },
                {
                    "name": "A5",
                    "midi": 81,
                    "time": 128.9958809999985,
                    "velocity": 0.5826771653543307,
                    "duration": 0.10245900000001029
                },
                {
                    "name": "A#5",
                    "midi": 82,
                    "time": 129.0983399999985,
                    "velocity": 0.6456692913385826,
                    "duration": 0.10245900000001029
                },
                {
                    "name": "F5",
                    "midi": 77,
                    "time": 129.2007989999985,
                    "velocity": 0.5984251968503937,
                    "duration": 0.10245900000001029
                },
                {
                    "name": "D6",
                    "midi": 86,
                    "time": 129.30325799999852,
                    "velocity": 0.5669291338582677,
                    "duration": 0.10245900000001029
                },
                {
                    "name": "F6",
                    "midi": 89,
                    "time": 129.40571699999853,
                    "velocity": 0.6850393700787402,
                    "duration": 0.10245900000001029
                },
                {
                    "name": "F5",
                    "midi": 77,
                    "time": 129.50817599999854,
                    "velocity": 0.6377952755905512,
                    "duration": 0.10245900000001029
                },
                {
                    "name": "A5",
                    "midi": 81,
                    "time": 129.61063499999855,
                    "velocity": 0.6614173228346457,
                    "duration": 0.10245900000001029
                },
                {
                    "name": "A#5",
                    "midi": 82,
                    "time": 129.71309399999856,
                    "velocity": 0.7322834645669292,
                    "duration": 0.10245900000001029
                },
                {
                    "name": "E5",
                    "midi": 76,
                    "time": 129.81555299999857,
                    "velocity": 0.6377952755905512,
                    "duration": 0.10245900000001029
                },
                {
                    "name": "G#5",
                    "midi": 80,
                    "time": 129.91801199999858,
                    "velocity": 0.5826771653543307,
                    "duration": 0.10245900000001029
                },
                {
                    "name": "A5",
                    "midi": 81,
                    "time": 130.0204709999986,
                    "velocity": 0.6456692913385826,
                    "duration": 0.10245900000001029
                },
                {
                    "name": "F5",
                    "midi": 77,
                    "time": 130.1229299999986,
                    "velocity": 0.5590551181102362,
                    "duration": 0.10245900000001029
                },
                {
                    "name": "A5",
                    "midi": 81,
                    "time": 130.22538899999861,
                    "velocity": 0.5196850393700787,
                    "duration": 0.10245900000001029
                },
                {
                    "name": "A#5",
                    "midi": 82,
                    "time": 130.32784799999862,
                    "velocity": 0.6456692913385826,
                    "duration": 0.10245900000001029
                },
                {
                    "name": "F5",
                    "midi": 77,
                    "time": 130.43030699999863,
                    "velocity": 0.5984251968503937,
                    "duration": 0.10245900000001029
                },
                {
                    "name": "D6",
                    "midi": 86,
                    "time": 130.53276599999865,
                    "velocity": 0.5669291338582677,
                    "duration": 0.10245900000001029
                },
                {
                    "name": "F6",
                    "midi": 89,
                    "time": 130.63522499999866,
                    "velocity": 0.6850393700787402,
                    "duration": 0.10245900000001029
                },
                {
                    "name": "F5",
                    "midi": 77,
                    "time": 130.73768399999867,
                    "velocity": 0.6377952755905512,
                    "duration": 0.10245900000001029
                },
                {
                    "name": "A5",
                    "midi": 81,
                    "time": 130.84014299999868,
                    "velocity": 0.6614173228346457,
                    "duration": 0.10245900000001029
                },
                {
                    "name": "A#5",
                    "midi": 82,
                    "time": 130.9426019999987,
                    "velocity": 0.7322834645669292,
                    "duration": 0.10245900000001029
                },
                {
                    "name": "E5",
                    "midi": 76,
                    "time": 131.0450609999987,
                    "velocity": 0.6377952755905512,
                    "duration": 0.10245900000001029
                },
                {
                    "name": "G#5",
                    "midi": 80,
                    "time": 131.1475199999987,
                    "velocity": 0.5826771653543307,
                    "duration": 0.10245900000001029
                },
                {
                    "name": "A5",
                    "midi": 81,
                    "time": 131.24997899999872,
                    "velocity": 0.6456692913385826,
                    "duration": 0.10245900000001029
                },
                {
                    "name": "E5",
                    "midi": 76,
                    "time": 131.35243799999873,
                    "velocity": 0.5590551181102362,
                    "duration": 0.10245900000001029
                },
                {
                    "name": "A5",
                    "midi": 81,
                    "time": 131.45489699999874,
                    "velocity": 0.5196850393700787,
                    "duration": 0.10245900000001029
                },
                {
                    "name": "D6",
                    "midi": 86,
                    "time": 131.55735599999875,
                    "velocity": 0.6456692913385826,
                    "duration": 0.10245900000001029
                },
                {
                    "name": "D5",
                    "midi": 74,
                    "time": 131.65981499999876,
                    "velocity": 0.5590551181102362,
                    "duration": 0.10245900000001029
                },
                {
                    "name": "G5",
                    "midi": 79,
                    "time": 131.76227399999877,
                    "velocity": 0.5196850393700787,
                    "duration": 0.10245900000001029
                },
                {
                    "name": "A5",
                    "midi": 81,
                    "time": 131.86473299999878,
                    "velocity": 0.6299212598425197,
                    "duration": 0.10245900000001029
                },
                {
                    "name": "D5",
                    "midi": 74,
                    "time": 131.9671919999988,
                    "velocity": 0.5669291338582677,
                    "duration": 0.10245900000001029
                },
                {
                    "name": "G5",
                    "midi": 79,
                    "time": 132.0696509999988,
                    "velocity": 0.5590551181102362,
                    "duration": 0.10245900000001029
                },
                {
                    "name": "C6",
                    "midi": 84,
                    "time": 132.1721099999988,
                    "velocity": 0.6062992125984252,
                    "duration": 0.10245900000001029
                },
                {
                    "name": "C5",
                    "midi": 72,
                    "time": 132.27456899999882,
                    "velocity": 0.5275590551181102,
                    "duration": 0.10245900000001029
                },
                {
                    "name": "F5",
                    "midi": 77,
                    "time": 132.37702799999883,
                    "velocity": 0.49606299212598426,
                    "duration": 0.10245900000001029
                },
                {
                    "name": "G5",
                    "midi": 79,
                    "time": 132.47948699999884,
                    "velocity": 0.5748031496062992,
                    "duration": 0.10245900000001029
                },
                {
                    "name": "C5",
                    "midi": 72,
                    "time": 132.58194599999885,
                    "velocity": 0.48031496062992124,
                    "duration": 0.10245900000001029
                },
                {
                    "name": "F5",
                    "midi": 77,
                    "time": 132.68440499999886,
                    "velocity": 0.48031496062992124,
                    "duration": 0.10245900000001029
                },
                {
                    "name": "A#5",
                    "midi": 82,
                    "time": 132.78686399999887,
                    "velocity": 0.5669291338582677,
                    "duration": 0.10245900000001029
                },
                {
                    "name": "A#4",
                    "midi": 70,
                    "time": 132.88932299999888,
                    "velocity": 0.5196850393700787,
                    "duration": 0.10245900000001029
                },
                {
                    "name": "E5",
                    "midi": 76,
                    "time": 132.9917819999989,
                    "velocity": 0.4645669291338583,
                    "duration": 0.10245900000001029
                },
                {
                    "name": "F5",
                    "midi": 77,
                    "time": 133.0942409999989,
                    "velocity": 0.5433070866141733,
                    "duration": 0.10245900000001029
                },
                {
                    "name": "A#4",
                    "midi": 70,
                    "time": 133.1966999999989,
                    "velocity": 0.47244094488188976,
                    "duration": 0.10245900000001029
                },
                {
                    "name": "E5",
                    "midi": 76,
                    "time": 133.29915899999892,
                    "velocity": 0.47244094488188976,
                    "duration": 0.10245900000001029
                },
                {
                    "name": "A5",
                    "midi": 81,
                    "time": 133.40161799999893,
                    "velocity": 0.5354330708661418,
                    "duration": 0.10245900000001029
                },
                {
                    "name": "A4",
                    "midi": 69,
                    "time": 133.50407699999894,
                    "velocity": 0.4645669291338583,
                    "duration": 0.10245900000001029
                },
                {
                    "name": "D5",
                    "midi": 74,
                    "time": 133.60653599999895,
                    "velocity": 0.4094488188976378,
                    "duration": 0.10245900000001029
                },
                {
                    "name": "E5",
                    "midi": 76,
                    "time": 133.70899499999896,
                    "velocity": 0.5118110236220472,
                    "duration": 0.10245900000001029
                },
                {
                    "name": "A4",
                    "midi": 69,
                    "time": 133.81145399999897,
                    "velocity": 0.4251968503937008,
                    "duration": 0.10245900000001029
                },
                {
                    "name": "D5",
                    "midi": 74,
                    "time": 133.91391299999898,
                    "velocity": 0.3779527559055118,
                    "duration": 0.10245900000001029
                },
                {
                    "name": "D#5",
                    "midi": 75,
                    "time": 134.016371999999,
                    "velocity": 0.5748031496062992,
                    "duration": 0.10245900000001029
                },
                {
                    "name": "A#4",
                    "midi": 70,
                    "time": 134.118830999999,
                    "velocity": 0.5354330708661418,
                    "duration": 0.10245900000001029
                },
                {
                    "name": "G5",
                    "midi": 79,
                    "time": 134.22128999999902,
                    "velocity": 0.5118110236220472,
                    "duration": 0.10245900000001029
                },
                {
                    "name": "A#5",
                    "midi": 82,
                    "time": 134.32374899999903,
                    "velocity": 0.6062992125984252,
                    "duration": 0.10245900000001029
                },
                {
                    "name": "A#4",
                    "midi": 70,
                    "time": 134.42620799999904,
                    "velocity": 0.5669291338582677,
                    "duration": 0.10245900000001029
                },
                {
                    "name": "D5",
                    "midi": 74,
                    "time": 134.52866699999905,
                    "velocity": 0.5984251968503937,
                    "duration": 0.10245900000001029
                },
                {
                    "name": "G5",
                    "midi": 79,
                    "time": 134.63112599999906,
                    "velocity": 0.6535433070866141,
                    "duration": 0.10245900000001029
                },
                {
                    "name": "A#4",
                    "midi": 70,
                    "time": 134.73358499999907,
                    "velocity": 0.5669291338582677,
                    "duration": 0.10245900000001029
                },
                {
                    "name": "D5",
                    "midi": 74,
                    "time": 134.83604399999908,
                    "velocity": 0.5275590551181102,
                    "duration": 0.10245900000001029
                },
                {
                    "name": "D#5",
                    "midi": 75,
                    "time": 134.9385029999991,
                    "velocity": 0.5748031496062992,
                    "duration": 0.10245900000001029
                },
                {
                    "name": "A#4",
                    "midi": 70,
                    "time": 135.0409619999991,
                    "velocity": 0.49606299212598426,
                    "duration": 0.10245900000001029
                },
                {
                    "name": "D5",
                    "midi": 74,
                    "time": 135.1434209999991,
                    "velocity": 0.44881889763779526,
                    "duration": 0.10245900000001029
                },
                {
                    "name": "D#5",
                    "midi": 75,
                    "time": 135.24587999999912,
                    "velocity": 0.5748031496062992,
                    "duration": 0.10245900000001029
                },
                {
                    "name": "A#4",
                    "midi": 70,
                    "time": 135.34833899999913,
                    "velocity": 0.5354330708661418,
                    "duration": 0.10245900000001029
                },
                {
                    "name": "G5",
                    "midi": 79,
                    "time": 135.45079799999914,
                    "velocity": 0.5118110236220472,
                    "duration": 0.10245900000001029
                },
                {
                    "name": "A#5",
                    "midi": 82,
                    "time": 135.55325699999915,
                    "velocity": 0.6062992125984252,
                    "duration": 0.10245900000001029
                },
                {
                    "name": "A#4",
                    "midi": 70,
                    "time": 135.65571599999916,
                    "velocity": 0.5669291338582677,
                    "duration": 0.10245900000001029
                },
                {
                    "name": "D5",
                    "midi": 74,
                    "time": 135.75817499999917,
                    "velocity": 0.5433070866141733,
                    "duration": 0.10245900000001029
                },
                {
                    "name": "G5",
                    "midi": 79,
                    "time": 135.86063399999918,
                    "velocity": 0.6535433070866141,
                    "duration": 0.10245900000001029
                },
                {
                    "name": "A#4",
                    "midi": 70,
                    "time": 135.9630929999992,
                    "velocity": 0.5669291338582677,
                    "duration": 0.10245900000001029
                },
                {
                    "name": "D5",
                    "midi": 74,
                    "time": 136.0655519999992,
                    "velocity": 0.5275590551181102,
                    "duration": 0.10245900000001029
                },
                {
                    "name": "D#5",
                    "midi": 75,
                    "time": 136.1680109999992,
                    "velocity": 0.5748031496062992,
                    "duration": 0.10245900000001029
                },
                {
                    "name": "B4",
                    "midi": 71,
                    "time": 136.27046999999922,
                    "velocity": 0.49606299212598426,
                    "duration": 0.10245900000001029
                },
                {
                    "name": "D#5",
                    "midi": 75,
                    "time": 136.37292899999923,
                    "velocity": 0.44881889763779526,
                    "duration": 0.10245900000001029
                },
                {
                    "name": "F#5",
                    "midi": 78,
                    "time": 136.47538799999924,
                    "velocity": 0.5984251968503937,
                    "duration": 0.10245900000001029
                },
                {
                    "name": "F#4",
                    "midi": 66,
                    "time": 136.57784699999925,
                    "velocity": 0.49606299212598426,
                    "duration": 0.10245900000001029
                },
                {
                    "name": "B4",
                    "midi": 71,
                    "time": 136.68030599999926,
                    "velocity": 0.5433070866141733,
                    "duration": 0.10245900000001029
                },
                {
                    "name": "D#5",
                    "midi": 75,
                    "time": 136.78276499999927,
                    "velocity": 0.5984251968503937,
                    "duration": 0.10245900000001029
                },
                {
                    "name": "D#4",
                    "midi": 63,
                    "time": 136.88522399999928,
                    "velocity": 0.5196850393700787,
                    "duration": 0.10245900000001029
                },
                {
                    "name": "F#4",
                    "midi": 66,
                    "time": 136.9876829999993,
                    "velocity": 0.5196850393700787,
                    "duration": 0.10245900000001029
                },
                {
                    "name": "B4",
                    "midi": 71,
                    "time": 137.0901419999993,
                    "velocity": 0.5748031496062992,
                    "duration": 0.10245900000001029
                },
                {
                    "name": "C#4",
                    "midi": 61,
                    "time": 137.1926009999993,
                    "velocity": 0.5118110236220472,
                    "duration": 0.10245900000001029
                },
                {
                    "name": "G4",
                    "midi": 67,
                    "time": 137.29505999999932,
                    "velocity": 0.48031496062992124,
                    "duration": 0.10245900000001029
                },
                {
                    "name": "A#4",
                    "midi": 70,
                    "time": 137.39751899999933,
                    "velocity": 0.5433070866141733,
                    "duration": 0.10245900000001029
                },
                {
                    "name": "C4",
                    "midi": 60,
                    "time": 137.49997799999935,
                    "velocity": 0.4645669291338583,
                    "duration": 0.10245900000001029
                },
                {
                    "name": "D#4",
                    "midi": 63,
                    "time": 137.60243699999936,
                    "velocity": 0.4251968503937008,
                    "duration": 0.10245900000001029
                },
                {
                    "name": "A4",
                    "midi": 69,
                    "time": 137.70489599999937,
                    "velocity": 0.5275590551181102,
                    "duration": 0.10245900000001029
                },
                {
                    "name": "A#3",
                    "midi": 58,
                    "time": 137.80735499999938,
                    "velocity": 0.44881889763779526,
                    "duration": 0.10245900000001029
                },
                {
                    "name": "D4",
                    "midi": 62,
                    "time": 137.9098139999994,
                    "velocity": 0.4251968503937008,
                    "duration": 0.10245900000001029
                },
                {
                    "name": "G4",
                    "midi": 67,
                    "time": 138.0122729999994,
                    "velocity": 0.5826771653543307,
                    "duration": 0.10245900000001029
                },
                {
                    "name": "B3",
                    "midi": 59,
                    "time": 138.1147319999994,
                    "velocity": 0.44881889763779526,
                    "duration": 0.10245900000001029
                },
                {
                    "name": "D4",
                    "midi": 62,
                    "time": 138.21719099999942,
                    "velocity": 0.41732283464566927,
                    "duration": 0.10245900000001029
                },
                {
                    "name": "F4",
                    "midi": 65,
                    "time": 138.31964999999943,
                    "velocity": 0.5984251968503937,
                    "duration": 0.10245900000001029
                },
                {
                    "name": "A3",
                    "midi": 57,
                    "time": 138.42210899999944,
                    "velocity": 0.4881889763779528,
                    "duration": 0.10245900000001029
                },
                {
                    "name": "C#4",
                    "midi": 61,
                    "time": 138.52456799999945,
                    "velocity": 0.44881889763779526,
                    "duration": 0.10245900000001029
                },
                {
                    "name": "E4",
                    "midi": 64,
                    "time": 138.62702699999946,
                    "velocity": 0.5984251968503937,
                    "duration": 0.10245900000001029
                },
                {
                    "name": "G3",
                    "midi": 55,
                    "time": 138.72948599999947,
                    "velocity": 0.48031496062992124,
                    "duration": 0.10245900000001029
                },
                {
                    "name": "A3",
                    "midi": 57,
                    "time": 138.83194499999948,
                    "velocity": 0.48031496062992124,
                    "duration": 0.10245900000001029
                },
                {
                    "name": "A#3",
                    "midi": 58,
                    "time": 138.9344039999995,
                    "velocity": 0.6062992125984252,
                    "duration": 0.10245900000001029
                },
                {
                    "name": "E3",
                    "midi": 52,
                    "time": 139.0368629999995,
                    "velocity": 0.44881889763779526,
                    "duration": 0.10245900000001029
                },
                {
                    "name": "C#4",
                    "midi": 61,
                    "time": 139.1393219999995,
                    "velocity": 0.44881889763779526,
                    "duration": 0.10245900000001029
                },
                {
                    "name": "E4",
                    "midi": 64,
                    "time": 139.24178099999952,
                    "velocity": 0.49606299212598426,
                    "duration": 0.10245900000001029
                },
                {
                    "name": "G3",
                    "midi": 55,
                    "time": 139.34423999999953,
                    "velocity": 0.3700787401574803,
                    "duration": 0.10245900000001029
                },
                {
                    "name": "A3",
                    "midi": 57,
                    "time": 139.44669899999954,
                    "velocity": 0.3700787401574803,
                    "duration": 0.10245900000001029
                },
                {
                    "name": "A#3",
                    "midi": 58,
                    "time": 139.54915799999955,
                    "velocity": 0.49606299212598426,
                    "duration": 0.10245900000001029
                },
                {
                    "name": "F3",
                    "midi": 53,
                    "time": 139.65161699999956,
                    "velocity": 0.3779527559055118,
                    "duration": 0.10245900000001029
                },
                {
                    "name": "D4",
                    "midi": 62,
                    "time": 139.75407599999957,
                    "velocity": 0.3779527559055118,
                    "duration": 0.10245900000001029
                },
                {
                    "name": "F4",
                    "midi": 65,
                    "time": 139.85653499999958,
                    "velocity": 0.4881889763779528,
                    "duration": 0.10245900000001029
                },
                {
                    "name": "A3",
                    "midi": 57,
                    "time": 139.9589939999996,
                    "velocity": 0.3700787401574803,
                    "duration": 0.10245900000001029
                },
                {
                    "name": "C4",
                    "midi": 60,
                    "time": 140.0614529999996,
                    "velocity": 0.3700787401574803,
                    "duration": 0.10245900000001029
                },
                {
                    "name": "C#4",
                    "midi": 61,
                    "time": 140.1639119999996,
                    "velocity": 0.4881889763779528,
                    "duration": 0.10245900000001029
                },
                {
                    "name": "G3",
                    "midi": 55,
                    "time": 140.26637099999962,
                    "velocity": 0.3700787401574803,
                    "duration": 0.10245900000001029
                },
                {
                    "name": "E4",
                    "midi": 64,
                    "time": 140.36882999999963,
                    "velocity": 0.3700787401574803,
                    "duration": 0.10245900000001029
                },
                {
                    "name": "G4",
                    "midi": 67,
                    "time": 140.47128899999964,
                    "velocity": 0.4881889763779528,
                    "duration": 0.10245900000001029
                },
                {
                    "name": "A#3",
                    "midi": 58,
                    "time": 140.57374799999965,
                    "velocity": 0.3700787401574803,
                    "duration": 0.10245900000001029
                },
                {
                    "name": "D4",
                    "midi": 62,
                    "time": 140.67620699999966,
                    "velocity": 0.3700787401574803,
                    "duration": 0.10245900000001029
                },
                {
                    "name": "D#4",
                    "midi": 63,
                    "time": 140.77866599999967,
                    "velocity": 0.4881889763779528,
                    "duration": 0.10245900000001029
                },
                {
                    "name": "A3",
                    "midi": 57,
                    "time": 140.88112499999968,
                    "velocity": 0.36220472440944884,
                    "duration": 0.10245900000001029
                },
                {
                    "name": "A4",
                    "midi": 69,
                    "time": 140.9835839999997,
                    "velocity": 0.3700787401574803,
                    "duration": 0.10245900000001029
                },
                {
                    "name": "C5",
                    "midi": 72,
                    "time": 141.0860429999997,
                    "velocity": 0.4881889763779528,
                    "duration": 0.10245900000001029
                },
                {
                    "name": "C4",
                    "midi": 60,
                    "time": 141.18850199999972,
                    "velocity": 0.3779527559055118,
                    "duration": 0.10245900000001029
                },
                {
                    "name": "D4",
                    "midi": 62,
                    "time": 141.29096099999973,
                    "velocity": 0.3858267716535433,
                    "duration": 0.10245900000001029
                },
                {
                    "name": "D#4",
                    "midi": 63,
                    "time": 141.39341999999974,
                    "velocity": 0.5118110236220472,
                    "duration": 0.10245900000001029
                },
                {
                    "name": "A#3",
                    "midi": 58,
                    "time": 141.49587899999975,
                    "velocity": 0.3858267716535433,
                    "duration": 0.10245900000001029
                },
                {
                    "name": "G4",
                    "midi": 67,
                    "time": 141.59833799999976,
                    "velocity": 0.3858267716535433,
                    "duration": 0.10245900000001029
                },
                {
                    "name": "A#4",
                    "midi": 70,
                    "time": 141.70079699999977,
                    "velocity": 0.5118110236220472,
                    "duration": 0.10245900000001029
                },
                {
                    "name": "D4",
                    "midi": 62,
                    "time": 141.80325599999978,
                    "velocity": 0.3937007874015748,
                    "duration": 0.10245900000001029
                },
                {
                    "name": "E4",
                    "midi": 64,
                    "time": 141.9057149999998,
                    "velocity": 0.3937007874015748,
                    "duration": 0.10245900000001029
                },
                {
                    "name": "F4",
                    "midi": 65,
                    "time": 142.0081739999998,
                    "velocity": 0.5275590551181102,
                    "duration": 0.10245900000001029
                },
                {
                    "name": "B3",
                    "midi": 59,
                    "time": 142.1106329999998,
                    "velocity": 0.4015748031496063,
                    "duration": 0.10245900000001029
                },
                {
                    "name": "B4",
                    "midi": 71,
                    "time": 142.21309199999982,
                    "velocity": 0.4015748031496063,
                    "duration": 0.10245900000001029
                },
                {
                    "name": "D5",
                    "midi": 74,
                    "time": 142.31555099999983,
                    "velocity": 0.5275590551181102,
                    "duration": 0.10245900000001029
                },
                {
                    "name": "F4",
                    "midi": 65,
                    "time": 142.41800999999984,
                    "velocity": 0.4094488188976378,
                    "duration": 0.10245900000001029
                },
                {
                    "name": "G4",
                    "midi": 67,
                    "time": 142.52046899999985,
                    "velocity": 0.4094488188976378,
                    "duration": 0.10245900000001029
                },
                {
                    "name": "G#4",
                    "midi": 68,
                    "time": 142.62292799999986,
                    "velocity": 0.5433070866141733,
                    "duration": 0.10245900000001029
                },
                {
                    "name": "D4",
                    "midi": 62,
                    "time": 142.72538699999987,
                    "velocity": 0.4094488188976378,
                    "duration": 0.10245900000001029
                },
                {
                    "name": "D5",
                    "midi": 74,
                    "time": 142.82784599999988,
                    "velocity": 0.4409448818897638,
                    "duration": 0.10245900000001029
                },
                {
                    "name": "F5",
                    "midi": 77,
                    "time": 142.9303049999999,
                    "velocity": 0.5590551181102362,
                    "duration": 0.10245900000001029
                },
                {
                    "name": "F4",
                    "midi": 65,
                    "time": 143.0327639999999,
                    "velocity": 0.44881889763779526,
                    "duration": 0.10245900000001029
                },
                {
                    "name": "G#4",
                    "midi": 68,
                    "time": 143.1352229999999,
                    "velocity": 0.4645669291338583,
                    "duration": 0.10245900000001029
                },
                {
                    "name": "A4",
                    "midi": 69,
                    "time": 143.23768199999992,
                    "velocity": 0.5984251968503937,
                    "duration": 0.10245900000001029
                },
                {
                    "name": "E4",
                    "midi": 64,
                    "time": 143.34014099999993,
                    "velocity": 0.49606299212598426,
                    "duration": 0.10245900000001029
                },
                {
                    "name": "C#5",
                    "midi": 73,
                    "time": 143.44259999999994,
                    "velocity": 0.49606299212598426,
                    "duration": 0.10245900000001029
                },
                {
                    "name": "E5",
                    "midi": 76,
                    "time": 143.54505899999995,
                    "velocity": 0.6062992125984252,
                    "duration": 0.10245900000001029
                },
                {
                    "name": "G4",
                    "midi": 67,
                    "time": 143.64751799999996,
                    "velocity": 0.5196850393700787,
                    "duration": 0.10245900000001029
                },
                {
                    "name": "A4",
                    "midi": 69,
                    "time": 143.74997699999997,
                    "velocity": 0.5275590551181102,
                    "duration": 0.10245900000001029
                },
                {
                    "name": "A#4",
                    "midi": 70,
                    "time": 143.85243599999998,
                    "velocity": 0.6377952755905512,
                    "duration": 0.10245900000001029
                },
                {
                    "name": "E4",
                    "midi": 64,
                    "time": 143.954895,
                    "velocity": 0.49606299212598426,
                    "duration": 0.10245900000001029
                },
                {
                    "name": "C#5",
                    "midi": 73,
                    "time": 144.057354,
                    "velocity": 0.4645669291338583,
                    "duration": 0.10245900000001029
                },
                {
                    "name": "E5",
                    "midi": 76,
                    "time": 144.159813,
                    "velocity": 0.5669291338582677,
                    "duration": 0.10245900000001029
                },
                {
                    "name": "G4",
                    "midi": 67,
                    "time": 144.26227200000002,
                    "velocity": 0.4094488188976378,
                    "duration": 0.10245900000001029
                },
                {
                    "name": "A4",
                    "midi": 69,
                    "time": 144.36473100000003,
                    "velocity": 0.4094488188976378,
                    "duration": 0.10245900000001029
                },
                {
                    "name": "A#4",
                    "midi": 70,
                    "time": 144.46719000000004,
                    "velocity": 0.5748031496062992,
                    "duration": 0.10245900000001029
                },
                {
                    "name": "F4",
                    "midi": 65,
                    "time": 144.56964900000006,
                    "velocity": 0.4330708661417323,
                    "duration": 0.10245900000001029
                },
                {
                    "name": "D5",
                    "midi": 74,
                    "time": 144.67210800000007,
                    "velocity": 0.4330708661417323,
                    "duration": 0.10245900000001029
                },
                {
                    "name": "F5",
                    "midi": 77,
                    "time": 144.77456700000008,
                    "velocity": 0.5511811023622047,
                    "duration": 0.10245900000001029
                },
                {
                    "name": "A4",
                    "midi": 69,
                    "time": 144.8770260000001,
                    "velocity": 0.4251968503937008,
                    "duration": 0.10245900000001029
                },
                {
                    "name": "C5",
                    "midi": 72,
                    "time": 144.9794850000001,
                    "velocity": 0.4330708661417323,
                    "duration": 0.10245900000001029
                },
                {
                    "name": "C#5",
                    "midi": 73,
                    "time": 145.0819440000001,
                    "velocity": 0.5826771653543307,
                    "duration": 0.10245900000001029
                },
                {
                    "name": "G4",
                    "midi": 67,
                    "time": 145.18440300000012,
                    "velocity": 0.4251968503937008,
                    "duration": 0.10245900000001029
                },
                {
                    "name": "E5",
                    "midi": 76,
                    "time": 145.28686200000013,
                    "velocity": 0.4330708661417323,
                    "duration": 0.10245900000001029
                },
                {
                    "name": "G5",
                    "midi": 79,
                    "time": 145.38932100000014,
                    "velocity": 0.5669291338582677,
                    "duration": 0.10245900000001029
                },
                {
                    "name": "A#4",
                    "midi": 70,
                    "time": 145.49178000000015,
                    "velocity": 0.4251968503937008,
                    "duration": 0.10245900000001029
                },
                {
                    "name": "D5",
                    "midi": 74,
                    "time": 145.59423900000016,
                    "velocity": 0.4251968503937008,
                    "duration": 0.10245900000001029
                },
                {
                    "name": "D#5",
                    "midi": 75,
                    "time": 145.69669800000017,
                    "velocity": 0.5748031496062992,
                    "duration": 0.10245900000001029
                },
                {
                    "name": "A4",
                    "midi": 69,
                    "time": 145.79915700000018,
                    "velocity": 0.4094488188976378,
                    "duration": 0.10245900000001029
                },
                {
                    "name": "A5",
                    "midi": 81,
                    "time": 145.9016160000002,
                    "velocity": 0.4251968503937008,
                    "duration": 0.10245900000001029
                },
                {
                    "name": "C6",
                    "midi": 84,
                    "time": 146.0040750000002,
                    "velocity": 0.5590551181102362,
                    "duration": 0.10245900000001029
                },
                {
                    "name": "C5",
                    "midi": 72,
                    "time": 146.1065340000002,
                    "velocity": 0.4094488188976378,
                    "duration": 0.10245900000001029
                },
                {
                    "name": "D5",
                    "midi": 74,
                    "time": 146.20899300000022,
                    "velocity": 0.4330708661417323,
                    "duration": 0.10245900000001029
                },
                {
                    "name": "D#5",
                    "midi": 75,
                    "time": 146.31145200000023,
                    "velocity": 0.5669291338582677,
                    "duration": 0.10245900000001029
                },
                {
                    "name": "A#4",
                    "midi": 70,
                    "time": 146.41391100000024,
                    "velocity": 0.44881889763779526,
                    "duration": 0.10245900000001029
                },
                {
                    "name": "G5",
                    "midi": 79,
                    "time": 146.51637000000025,
                    "velocity": 0.44881889763779526,
                    "duration": 0.10245900000001029
                },
                {
                    "name": "A#5",
                    "midi": 82,
                    "time": 146.61882900000026,
                    "velocity": 0.5826771653543307,
                    "duration": 0.10245900000001029
                },
                {
                    "name": "D5",
                    "midi": 74,
                    "time": 146.72128800000027,
                    "velocity": 0.44881889763779526,
                    "duration": 0.10245900000001029
                },
                {
                    "name": "E5",
                    "midi": 76,
                    "time": 146.82374700000028,
                    "velocity": 0.44881889763779526,
                    "duration": 0.10245900000001029
                },
                {
                    "name": "F5",
                    "midi": 77,
                    "time": 146.9262060000003,
                    "velocity": 0.6220472440944882,
                    "duration": 0.10245900000001029
                },
                {
                    "name": "B4",
                    "midi": 71,
                    "time": 147.0286650000003,
                    "velocity": 0.44881889763779526,
                    "duration": 0.10245900000001029
                },
                {
                    "name": "D6",
                    "midi": 86,
                    "time": 147.1311240000003,
                    "velocity": 0.44881889763779526,
                    "duration": 0.10245900000001029
                },
                {
                    "name": "F6",
                    "midi": 89,
                    "time": 147.23358300000032,
                    "velocity": 0.6220472440944882,
                    "duration": 0.10245900000001029
                },
                {
                    "name": "F5",
                    "midi": 77,
                    "time": 147.33604200000033,
                    "velocity": 0.48031496062992124,
                    "duration": 0.10245900000001029
                },
                {
                    "name": "B5",
                    "midi": 83,
                    "time": 147.43850100000034,
                    "velocity": 0.48031496062992124,
                    "duration": 0.10245900000001029
                },
                {
                    "name": "C#6",
                    "midi": 85,
                    "time": 147.54096000000035,
                    "velocity": 0.6456692913385826,
                    "duration": 0.10245900000001029
                },
                {
                    "name": "E5",
                    "midi": 76,
                    "time": 147.64341900000036,
                    "velocity": 0.4881889763779528,
                    "duration": 0.10245900000001029
                },
                {
                    "name": "E6",
                    "midi": 88,
                    "time": 147.74587800000037,
                    "velocity": 0.5118110236220472,
                    "duration": 0.10245900000001029
                },
                {
                    "name": "A6",
                    "midi": 93,
                    "time": 147.84833700000038,
                    "velocity": 0.6456692913385826,
                    "duration": 0.10245900000001029
                },
                {
                    "name": "A5",
                    "midi": 81,
                    "time": 147.9507960000004,
                    "velocity": 0.5275590551181102,
                    "duration": 0.10245900000001029
                },
                {
                    "name": "D6",
                    "midi": 86,
                    "time": 148.0532550000004,
                    "velocity": 0.6299212598425197,
                    "duration": 0.10245900000001029
                },
                {
                    "name": "D7",
                    "midi": 98,
                    "time": 148.15571400000042,
                    "velocity": 0.7480314960629921,
                    "duration": 0.30737700000000245
                }
            ],
            "controlChanges": {
                "91": [
                    {
                        "number": 91,
                        "time": 0,
                        "value": 1
                    }
                ]
            },
            "id": 1,
            "name": "Piano right",
            "instrumentNumber": 0,
            "instrument": "acoustic grand piano",
            "instrumentFamily": "piano",
            "channelNumber": 0,
            "isPercussion": false
        },
        {
            "startTime": 1.536885,
            "duration": 148.4630910000002,
            "length": 393,
            "notes": [
                {
                    "name": "A1",
                    "midi": 33,
                    "time": 1.536885,
                    "velocity": 0.3937007874015748,
                    "duration": 0.11526637500000003
                },
                {
                    "name": "A2",
                    "midi": 45,
                    "time": 1.536885,
                    "velocity": 0.47244094488188976,
                    "duration": 0.11526637500000003
                },
                {
                    "name": "D2",
                    "midi": 38,
                    "time": 2.1516390000000003,
                    "velocity": 0.3937007874015748,
                    "duration": 0.11526637500000003
                },
                {
                    "name": "D3",
                    "midi": 50,
                    "time": 2.1516390000000003,
                    "velocity": 0.47244094488188976,
                    "duration": 0.11526637500000003
                },
                {
                    "name": "E3",
                    "midi": 52,
                    "time": 2.7663930000000003,
                    "velocity": 0.47244094488188976,
                    "duration": 0.11526637500000003
                },
                {
                    "name": "E2",
                    "midi": 40,
                    "time": 2.7663930000000003,
                    "velocity": 0.3937007874015748,
                    "duration": 0.11526637500000003
                },
                {
                    "name": "F#2",
                    "midi": 42,
                    "time": 3.3811470000000003,
                    "velocity": 0.4015748031496063,
                    "duration": 0.11526637500000003
                },
                {
                    "name": "F#3",
                    "midi": 54,
                    "time": 3.3811470000000003,
                    "velocity": 0.48031496062992124,
                    "duration": 0.11526637500000003
                },
                {
                    "name": "G2",
                    "midi": 43,
                    "time": 3.9959010000000004,
                    "velocity": 0.41732283464566927,
                    "duration": 0.11526637499999959
                },
                {
                    "name": "G3",
                    "midi": 55,
                    "time": 3.9959010000000004,
                    "velocity": 0.49606299212598426,
                    "duration": 0.11526637499999959
                },
                {
                    "name": "G#3",
                    "midi": 56,
                    "time": 4.6106549999999995,
                    "velocity": 0.5118110236220472,
                    "duration": 0.11526637500000003
                },
                {
                    "name": "G#2",
                    "midi": 44,
                    "time": 4.6106549999999995,
                    "velocity": 0.4251968503937008,
                    "duration": 0.11526637500000003
                },
                {
                    "name": "A2",
                    "midi": 45,
                    "time": 5.225408999999999,
                    "velocity": 0.47244094488188976,
                    "duration": 0.9221310000000003
                },
                {
                    "name": "A3",
                    "midi": 57,
                    "time": 5.225408999999999,
                    "velocity": 0.5669291338582677,
                    "duration": 0.9221310000000003
                },
                {
                    "name": "A2",
                    "midi": 45,
                    "time": 6.454916999999999,
                    "velocity": 0.3937007874015748,
                    "duration": 0.11526637500000003
                },
                {
                    "name": "A3",
                    "midi": 57,
                    "time": 6.454916999999999,
                    "velocity": 0.47244094488188976,
                    "duration": 0.11526637500000003
                },
                {
                    "name": "C#3",
                    "midi": 49,
                    "time": 6.454916999999999,
                    "velocity": 0.3937007874015748,
                    "duration": 0.11526637500000003
                },
                {
                    "name": "D3",
                    "midi": 50,
                    "time": 7.069671,
                    "velocity": 0.3937007874015748,
                    "duration": 0.11526637500000003
                },
                {
                    "name": "F3",
                    "midi": 53,
                    "time": 7.069671,
                    "velocity": 0.3937007874015748,
                    "duration": 0.11526637500000003
                },
                {
                    "name": "D4",
                    "midi": 62,
                    "time": 7.069671,
                    "velocity": 0.47244094488188976,
                    "duration": 0.11526637500000003
                },
                {
                    "name": "C#4",
                    "midi": 61,
                    "time": 7.684424999999999,
                    "velocity": 0.47244094488188976,
                    "duration": 0.11526637500000003
                },
                {
                    "name": "E3",
                    "midi": 52,
                    "time": 7.684424999999999,
                    "velocity": 0.3937007874015748,
                    "duration": 0.11526637500000003
                },
                {
                    "name": "G3",
                    "midi": 55,
                    "time": 7.684424999999999,
                    "velocity": 0.3937007874015748,
                    "duration": 0.11526637500000003
                },
                {
                    "name": "C4",
                    "midi": 60,
                    "time": 8.299178999999999,
                    "velocity": 0.4015748031496063,
                    "duration": 0.11526637499999914
                },
                {
                    "name": "A3",
                    "midi": 57,
                    "time": 8.299178999999999,
                    "velocity": 0.4015748031496063,
                    "duration": 0.11526637499999914
                },
                {
                    "name": "D4",
                    "midi": 62,
                    "time": 8.299178999999999,
                    "velocity": 0.48031496062992124,
                    "duration": 0.11526637499999914
                },
                {
                    "name": "F#3",
                    "midi": 54,
                    "time": 8.299178999999999,
                    "velocity": 0.4015748031496063,
                    "duration": 0.11526637499999914
                },
                {
                    "name": "G4",
                    "midi": 67,
                    "time": 8.913932999999998,
                    "velocity": 0.49606299212598426,
                    "duration": 0.11526637499999914
                },
                {
                    "name": "D#4",
                    "midi": 63,
                    "time": 8.913932999999998,
                    "velocity": 0.41732283464566927,
                    "duration": 0.11526637499999914
                },
                {
                    "name": "A#3",
                    "midi": 58,
                    "time": 8.913932999999998,
                    "velocity": 0.41732283464566927,
                    "duration": 0.11526637499999914
                },
                {
                    "name": "G3",
                    "midi": 55,
                    "time": 8.913932999999998,
                    "velocity": 0.41732283464566927,
                    "duration": 0.11526637499999914
                },
                {
                    "name": "G#3",
                    "midi": 56,
                    "time": 9.528686999999998,
                    "velocity": 0.4251968503937008,
                    "duration": 0.11526637499999914
                },
                {
                    "name": "D4",
                    "midi": 62,
                    "time": 9.528686999999998,
                    "velocity": 0.4251968503937008,
                    "duration": 0.11526637499999914
                },
                {
                    "name": "F4",
                    "midi": 65,
                    "time": 9.528686999999998,
                    "velocity": 0.5118110236220472,
                    "duration": 0.11526637499999914
                },
                {
                    "name": "B3",
                    "midi": 59,
                    "time": 9.528686999999998,
                    "velocity": 0.4251968503937008,
                    "duration": 0.11526637499999914
                },
                {
                    "name": "C#4",
                    "midi": 61,
                    "time": 10.143440999999997,
                    "velocity": 0.4409448818897638,
                    "duration": 0.3073770000000007
                },
                {
                    "name": "A3",
                    "midi": 57,
                    "time": 10.143440999999997,
                    "velocity": 0.4409448818897638,
                    "duration": 0.3073770000000007
                },
                {
                    "name": "A4",
                    "midi": 69,
                    "time": 10.143440999999997,
                    "velocity": 0.5354330708661418,
                    "duration": 0.3073770000000007
                },
                {
                    "name": "F4",
                    "midi": 65,
                    "time": 10.450817999999998,
                    "velocity": 0.4409448818897638,
                    "duration": 0.3073770000000007
                },
                {
                    "name": "D4",
                    "midi": 62,
                    "time": 10.450817999999998,
                    "velocity": 0.4409448818897638,
                    "duration": 0.3073770000000007
                },
                {
                    "name": "D5",
                    "midi": 74,
                    "time": 10.450817999999998,
                    "velocity": 0.5354330708661418,
                    "duration": 0.3073770000000007
                },
                {
                    "name": "A4",
                    "midi": 69,
                    "time": 10.450817999999998,
                    "velocity": 0.4409448818897638,
                    "duration": 0.3073770000000007
                },
                {
                    "name": "A2",
                    "midi": 45,
                    "time": 11.372948999999998,
                    "velocity": 0.47244094488188976,
                    "duration": 0.11526637499999914
                },
                {
                    "name": "A1",
                    "midi": 33,
                    "time": 11.372948999999998,
                    "velocity": 0.3937007874015748,
                    "duration": 0.11526637499999914
                },
                {
                    "name": "D2",
                    "midi": 38,
                    "time": 11.987702999999998,
                    "velocity": 0.3937007874015748,
                    "duration": 0.11526637499999914
                },
                {
                    "name": "D3",
                    "midi": 50,
                    "time": 11.987702999999998,
                    "velocity": 0.47244094488188976,
                    "duration": 0.11526637499999914
                },
                {
                    "name": "E3",
                    "midi": 52,
                    "time": 12.602456999999998,
                    "velocity": 0.47244094488188976,
                    "duration": 0.11526637499999914
                },
                {
                    "name": "E2",
                    "midi": 40,
                    "time": 12.602456999999998,
                    "velocity": 0.3937007874015748,
                    "duration": 0.11526637499999914
                },
                {
                    "name": "F#2",
                    "midi": 42,
                    "time": 13.217210999999997,
                    "velocity": 0.4015748031496063,
                    "duration": 0.11526637499999914
                },
                {
                    "name": "F#3",
                    "midi": 54,
                    "time": 13.217210999999997,
                    "velocity": 0.48031496062992124,
                    "duration": 0.11526637499999914
                },
                {
                    "name": "G2",
                    "midi": 43,
                    "time": 13.831964999999997,
                    "velocity": 0.41732283464566927,
                    "duration": 0.11526637499999914
                },
                {
                    "name": "G3",
                    "midi": 55,
                    "time": 13.831964999999997,
                    "velocity": 0.49606299212598426,
                    "duration": 0.11526637499999914
                },
                {
                    "name": "G#3",
                    "midi": 56,
                    "time": 14.446718999999996,
                    "velocity": 0.5118110236220472,
                    "duration": 0.11526637499999914
                },
                {
                    "name": "G#2",
                    "midi": 44,
                    "time": 14.446718999999996,
                    "velocity": 0.4251968503937008,
                    "duration": 0.11526637499999914
                },
                {
                    "name": "A3",
                    "midi": 57,
                    "time": 15.061472999999996,
                    "velocity": 0.5669291338582677,
                    "duration": 0.9221310000000003
                },
                {
                    "name": "A2",
                    "midi": 45,
                    "time": 15.061472999999996,
                    "velocity": 0.47244094488188976,
                    "duration": 0.9221310000000003
                },
                {
                    "name": "A3",
                    "midi": 57,
                    "time": 16.290980999999995,
                    "velocity": 0.47244094488188976,
                    "duration": 0.11526637500000092
                },
                {
                    "name": "C#3",
                    "midi": 49,
                    "time": 16.290980999999995,
                    "velocity": 0.3937007874015748,
                    "duration": 0.11526637500000092
                },
                {
                    "name": "A2",
                    "midi": 45,
                    "time": 16.290980999999995,
                    "velocity": 0.3937007874015748,
                    "duration": 0.11526637500000092
                },
                {
                    "name": "D4",
                    "midi": 62,
                    "time": 16.905734999999996,
                    "velocity": 0.47244094488188976,
                    "duration": 0.11526637500000092
                },
                {
                    "name": "F3",
                    "midi": 53,
                    "time": 16.905734999999996,
                    "velocity": 0.3937007874015748,
                    "duration": 0.11526637500000092
                },
                {
                    "name": "D3",
                    "midi": 50,
                    "time": 16.905734999999996,
                    "velocity": 0.3937007874015748,
                    "duration": 0.11526637500000092
                },
                {
                    "name": "G3",
                    "midi": 55,
                    "time": 17.520488999999998,
                    "velocity": 0.3937007874015748,
                    "duration": 0.11526637500000092
                },
                {
                    "name": "E3",
                    "midi": 52,
                    "time": 17.520488999999998,
                    "velocity": 0.3937007874015748,
                    "duration": 0.11526637500000092
                },
                {
                    "name": "C#4",
                    "midi": 61,
                    "time": 17.520488999999998,
                    "velocity": 0.47244094488188976,
                    "duration": 0.11526637500000092
                },
                {
                    "name": "C4",
                    "midi": 60,
                    "time": 18.135243,
                    "velocity": 0.4015748031496063,
                    "duration": 0.11526637500000092
                },
                {
                    "name": "A3",
                    "midi": 57,
                    "time": 18.135243,
                    "velocity": 0.4015748031496063,
                    "duration": 0.11526637500000092
                },
                {
                    "name": "F#3",
                    "midi": 54,
                    "time": 18.135243,
                    "velocity": 0.4015748031496063,
                    "duration": 0.11526637500000092
                },
                {
                    "name": "D4",
                    "midi": 62,
                    "time": 18.135243,
                    "velocity": 0.48031496062992124,
                    "duration": 0.11526637500000092
                },
                {
                    "name": "G4",
                    "midi": 67,
                    "time": 18.749997,
                    "velocity": 0.49606299212598426,
                    "duration": 0.11526637500000092
                },
                {
                    "name": "A#3",
                    "midi": 58,
                    "time": 18.749997,
                    "velocity": 0.41732283464566927,
                    "duration": 0.11526637500000092
                },
                {
                    "name": "G3",
                    "midi": 55,
                    "time": 18.749997,
                    "velocity": 0.41732283464566927,
                    "duration": 0.11526637500000092
                },
                {
                    "name": "D#4",
                    "midi": 63,
                    "time": 18.749997,
                    "velocity": 0.41732283464566927,
                    "duration": 0.11526637500000092
                },
                {
                    "name": "B3",
                    "midi": 59,
                    "time": 19.364751000000002,
                    "velocity": 0.4251968503937008,
                    "duration": 0.11526637500000092
                },
                {
                    "name": "D4",
                    "midi": 62,
                    "time": 19.364751000000002,
                    "velocity": 0.4251968503937008,
                    "duration": 0.11526637500000092
                },
                {
                    "name": "G#3",
                    "midi": 56,
                    "time": 19.364751000000002,
                    "velocity": 0.4251968503937008,
                    "duration": 0.11526637500000092
                },
                {
                    "name": "F4",
                    "midi": 65,
                    "time": 19.364751000000002,
                    "velocity": 0.5118110236220472,
                    "duration": 0.11526637500000092
                },
                {
                    "name": "C#4",
                    "midi": 61,
                    "time": 19.979505000000003,
                    "velocity": 0.4409448818897638,
                    "duration": 0.3073769999999989
                },
                {
                    "name": "A3",
                    "midi": 57,
                    "time": 19.979505000000003,
                    "velocity": 0.4409448818897638,
                    "duration": 0.3073769999999989
                },
                {
                    "name": "A4",
                    "midi": 69,
                    "time": 19.979505000000003,
                    "velocity": 0.5354330708661418,
                    "duration": 0.3073769999999989
                },
                {
                    "name": "D5",
                    "midi": 74,
                    "time": 20.286882000000002,
                    "velocity": 0.5354330708661418,
                    "duration": 0.3073769999999989
                },
                {
                    "name": "D4",
                    "midi": 62,
                    "time": 20.286882000000002,
                    "velocity": 0.4409448818897638,
                    "duration": 0.3073769999999989
                },
                {
                    "name": "F4",
                    "midi": 65,
                    "time": 20.286882000000002,
                    "velocity": 0.4409448818897638,
                    "duration": 0.3073769999999989
                },
                {
                    "name": "A4",
                    "midi": 69,
                    "time": 20.286882000000002,
                    "velocity": 0.4409448818897638,
                    "duration": 0.3073769999999989
                },
                {
                    "name": "D4",
                    "midi": 62,
                    "time": 21.209013000000002,
                    "velocity": 0.4251968503937008,
                    "duration": 0.6147539999999978
                },
                {
                    "name": "A4",
                    "midi": 69,
                    "time": 21.209013000000002,
                    "velocity": 0.5748031496062992,
                    "duration": 0.3073769999999989
                },
                {
                    "name": "A#4",
                    "midi": 70,
                    "time": 21.51639,
                    "velocity": 0.6299212598425197,
                    "duration": 0.3073769999999989
                },
                {
                    "name": "C4",
                    "midi": 60,
                    "time": 21.823767,
                    "velocity": 0.4409448818897638,
                    "duration": 0.3073769999999989
                },
                {
                    "name": "A4",
                    "midi": 69,
                    "time": 21.823767,
                    "velocity": 0.5748031496062992,
                    "duration": 0.3073769999999989
                },
                {
                    "name": "D4",
                    "midi": 62,
                    "time": 22.438520999999998,
                    "velocity": 0.3858267716535433,
                    "duration": 0.6147539999999978
                },
                {
                    "name": "A4",
                    "midi": 69,
                    "time": 22.438520999999998,
                    "velocity": 0.5748031496062992,
                    "duration": 0.3073769999999989
                },
                {
                    "name": "A#4",
                    "midi": 70,
                    "time": 22.745897999999997,
                    "velocity": 0.6299212598425197,
                    "duration": 0.3073769999999989
                },
                {
                    "name": "C4",
                    "midi": 60,
                    "time": 23.053274999999996,
                    "velocity": 0.4015748031496063,
                    "duration": 0.3073769999999989
                },
                {
                    "name": "A4",
                    "midi": 69,
                    "time": 23.053274999999996,
                    "velocity": 0.5748031496062992,
                    "duration": 0.6147539999999978
                },
                {
                    "name": "A#3",
                    "midi": 58,
                    "time": 23.360651999999995,
                    "velocity": 0.4645669291338583,
                    "duration": 0.6147539999999978
                },
                {
                    "name": "G4",
                    "midi": 67,
                    "time": 23.668028999999994,
                    "velocity": 0.5984251968503937,
                    "duration": 0.6147539999999978
                },
                {
                    "name": "A3",
                    "midi": 57,
                    "time": 23.975405999999992,
                    "velocity": 0.47244094488188976,
                    "duration": 0.6147539999999978
                },
                {
                    "name": "F4",
                    "midi": 65,
                    "time": 24.28278299999999,
                    "velocity": 0.5984251968503937,
                    "duration": 0.6147539999999978
                },
                {
                    "name": "G3",
                    "midi": 55,
                    "time": 24.59015999999999,
                    "velocity": 0.4645669291338583,
                    "duration": 0.6147539999999978
                },
                {
                    "name": "E4",
                    "midi": 64,
                    "time": 24.89753699999999,
                    "velocity": 0.5590551181102362,
                    "duration": 0.6147539999999978
                },
                {
                    "name": "F3",
                    "midi": 53,
                    "time": 25.204913999999988,
                    "velocity": 0.4251968503937008,
                    "duration": 0.6147539999999978
                },
                {
                    "name": "D4",
                    "midi": 62,
                    "time": 25.512290999999987,
                    "velocity": 0.5354330708661418,
                    "duration": 0.3073769999999989
                },
                {
                    "name": "G3",
                    "midi": 55,
                    "time": 26.127044999999985,
                    "velocity": 0.4330708661417323,
                    "duration": 0.3073769999999989
                },
                {
                    "name": "A#3",
                    "midi": 58,
                    "time": 26.127044999999985,
                    "velocity": 0.4330708661417323,
                    "duration": 0.3073769999999989
                },
                {
                    "name": "D#4",
                    "midi": 63,
                    "time": 26.127044999999985,
                    "velocity": 0.5196850393700787,
                    "duration": 0.3073769999999989
                },
                {
                    "name": "G#3",
                    "midi": 56,
                    "time": 26.434421999999984,
                    "velocity": 0.3858267716535433,
                    "duration": 0.3073769999999989
                },
                {
                    "name": "G4",
                    "midi": 67,
                    "time": 26.434421999999984,
                    "velocity": 0.5590551181102362,
                    "duration": 0.3073769999999989
                },
                {
                    "name": "A#3",
                    "midi": 58,
                    "time": 26.434421999999984,
                    "velocity": 0.3858267716535433,
                    "duration": 0.3073769999999989
                },
                {
                    "name": "D4",
                    "midi": 62,
                    "time": 26.434421999999984,
                    "velocity": 0.4645669291338583,
                    "duration": 0.3073769999999989
                },
                {
                    "name": "D#4",
                    "midi": 63,
                    "time": 26.741798999999983,
                    "velocity": 0.5196850393700787,
                    "duration": 0.3073769999999989
                },
                {
                    "name": "G3",
                    "midi": 55,
                    "time": 26.741798999999983,
                    "velocity": 0.4330708661417323,
                    "duration": 0.3073769999999989
                },
                {
                    "name": "A#3",
                    "midi": 58,
                    "time": 26.741798999999983,
                    "velocity": 0.4330708661417323,
                    "duration": 0.3073769999999989
                },
                {
                    "name": "A#3",
                    "midi": 58,
                    "time": 27.35655299999998,
                    "velocity": 0.4330708661417323,
                    "duration": 0.3073769999999989
                },
                {
                    "name": "D#4",
                    "midi": 63,
                    "time": 27.35655299999998,
                    "velocity": 0.5196850393700787,
                    "duration": 0.3073769999999989
                },
                {
                    "name": "G3",
                    "midi": 55,
                    "time": 27.35655299999998,
                    "velocity": 0.4330708661417323,
                    "duration": 0.3073769999999989
                },
                {
                    "name": "A#3",
                    "midi": 58,
                    "time": 27.66392999999998,
                    "velocity": 0.3858267716535433,
                    "duration": 0.3073769999999989
                },
                {
                    "name": "G#3",
                    "midi": 56,
                    "time": 27.66392999999998,
                    "velocity": 0.3858267716535433,
                    "duration": 0.3073769999999989
                },
                {
                    "name": "G4",
                    "midi": 67,
                    "time": 27.66392999999998,
                    "velocity": 0.5590551181102362,
                    "duration": 0.3073769999999989
                },
                {
                    "name": "D4",
                    "midi": 62,
                    "time": 27.66392999999998,
                    "velocity": 0.4645669291338583,
                    "duration": 0.3073769999999989
                },
                {
                    "name": "A#3",
                    "midi": 58,
                    "time": 27.971306999999978,
                    "velocity": 0.4330708661417323,
                    "duration": 0.3073769999999989
                },
                {
                    "name": "G3",
                    "midi": 55,
                    "time": 27.971306999999978,
                    "velocity": 0.4330708661417323,
                    "duration": 0.3073769999999989
                },
                {
                    "name": "D#4",
                    "midi": 63,
                    "time": 27.971306999999978,
                    "velocity": 0.5196850393700787,
                    "duration": 0.3073769999999989
                },
                {
                    "name": "F#3",
                    "midi": 54,
                    "time": 28.278683999999977,
                    "velocity": 0.44881889763779526,
                    "duration": 0.15368850000000123
                },
                {
                    "name": "F#4",
                    "midi": 66,
                    "time": 28.278683999999977,
                    "velocity": 0.5590551181102362,
                    "duration": 0.15368850000000123
                },
                {
                    "name": "D#3",
                    "midi": 51,
                    "time": 28.58606099999998,
                    "velocity": 0.5196850393700787,
                    "duration": 0.6147540000000014
                },
                {
                    "name": "E3",
                    "midi": 52,
                    "time": 29.20081499999998,
                    "velocity": 0.4645669291338583,
                    "duration": 0.3073769999999989
                },
                {
                    "name": "F#3",
                    "midi": 54,
                    "time": 29.50819199999998,
                    "velocity": 0.4645669291338583,
                    "duration": 0.3073769999999989
                },
                {
                    "name": "G3",
                    "midi": 55,
                    "time": 29.81556899999998,
                    "velocity": 0.5118110236220472,
                    "duration": 0.3073769999999989
                },
                {
                    "name": "G#3",
                    "midi": 56,
                    "time": 30.122945999999978,
                    "velocity": 0.5511811023622047,
                    "duration": 0.3073769999999989
                },
                {
                    "name": "A3",
                    "midi": 57,
                    "time": 30.430322999999976,
                    "velocity": 0.5826771653543307,
                    "duration": 0.19211062500000153
                },
                {
                    "name": "A1",
                    "midi": 33,
                    "time": 31.045076999999978,
                    "velocity": 0.3937007874015748,
                    "duration": 0.11526637500000092
                },
                {
                    "name": "A2",
                    "midi": 45,
                    "time": 31.045076999999978,
                    "velocity": 0.47244094488188976,
                    "duration": 0.11526637500000092
                },
                {
                    "name": "D2",
                    "midi": 38,
                    "time": 31.65983099999998,
                    "velocity": 0.3937007874015748,
                    "duration": 0.11526637500000092
                },
                {
                    "name": "D3",
                    "midi": 50,
                    "time": 31.65983099999998,
                    "velocity": 0.47244094488188976,
                    "duration": 0.11526637500000092
                },
                {
                    "name": "E2",
                    "midi": 40,
                    "time": 32.27458499999998,
                    "velocity": 0.3937007874015748,
                    "duration": 0.11526637499999737
                },
                {
                    "name": "E3",
                    "midi": 52,
                    "time": 32.27458499999998,
                    "velocity": 0.47244094488188976,
                    "duration": 0.11526637499999737
                },
                {
                    "name": "F#2",
                    "midi": 42,
                    "time": 32.88933899999998,
                    "velocity": 0.4015748031496063,
                    "duration": 0.11526637499999737
                },
                {
                    "name": "F#3",
                    "midi": 54,
                    "time": 32.88933899999998,
                    "velocity": 0.48031496062992124,
                    "duration": 0.11526637499999737
                },
                {
                    "name": "G3",
                    "midi": 55,
                    "time": 33.504092999999976,
                    "velocity": 0.49606299212598426,
                    "duration": 0.11526637499999737
                },
                {
                    "name": "G2",
                    "midi": 43,
                    "time": 33.504092999999976,
                    "velocity": 0.41732283464566927,
                    "duration": 0.11526637499999737
                },
                {
                    "name": "G#3",
                    "midi": 56,
                    "time": 34.118846999999974,
                    "velocity": 0.5118110236220472,
                    "duration": 0.11526637499999737
                },
                {
                    "name": "G#2",
                    "midi": 44,
                    "time": 34.118846999999974,
                    "velocity": 0.4251968503937008,
                    "duration": 0.11526637499999737
                },
                {
                    "name": "A3",
                    "midi": 57,
                    "time": 34.73360099999997,
                    "velocity": 0.5669291338582677,
                    "duration": 0.9221310000000003
                },
                {
                    "name": "A2",
                    "midi": 45,
                    "time": 34.73360099999997,
                    "velocity": 0.47244094488188976,
                    "duration": 0.9221310000000003
                },
                {
                    "name": "C#4",
                    "midi": 61,
                    "time": 35.34835499999997,
                    "velocity": 0.5748031496062992,
                    "duration": 0.30737700000000245
                },
                {
                    "name": "A2",
                    "midi": 45,
                    "time": 35.57888774999997,
                    "velocity": 0.3858267716535433,
                    "duration": 0.11526637499999737
                },
                {
                    "name": "A3",
                    "midi": 57,
                    "time": 35.65573199999997,
                    "velocity": 0.5748031496062992,
                    "duration": 0.6147539999999978
                },
                {
                    "name": "C#4",
                    "midi": 61,
                    "time": 35.96310899999997,
                    "velocity": 0.4881889763779528,
                    "duration": 0.30737700000000245
                },
                {
                    "name": "D3",
                    "midi": 50,
                    "time": 36.19364174999997,
                    "velocity": 0.4015748031496063,
                    "duration": 0.11526637499999737
                },
                {
                    "name": "D4",
                    "midi": 62,
                    "time": 36.27048599999997,
                    "velocity": 0.6377952755905512,
                    "duration": 0.6147539999999978
                },
                {
                    "name": "F4",
                    "midi": 65,
                    "time": 36.577862999999965,
                    "velocity": 0.4881889763779528,
                    "duration": 0.30737700000000245
                },
                {
                    "name": "E3",
                    "midi": 52,
                    "time": 36.80839574999997,
                    "velocity": 0.3858267716535433,
                    "duration": 0.11526637499999737
                },
                {
                    "name": "E4",
                    "midi": 64,
                    "time": 36.88523999999997,
                    "velocity": 0.5984251968503937,
                    "duration": 0.6147539999999978
                },
                {
                    "name": "G4",
                    "midi": 67,
                    "time": 37.19261699999996,
                    "velocity": 0.5275590551181102,
                    "duration": 0.30737700000000245
                },
                {
                    "name": "F#3",
                    "midi": 54,
                    "time": 37.423149749999965,
                    "velocity": 0.4094488188976378,
                    "duration": 0.11526637499999737
                },
                {
                    "name": "F#4",
                    "midi": 66,
                    "time": 37.499993999999965,
                    "velocity": 0.6377952755905512,
                    "duration": 0.6147539999999978
                },
                {
                    "name": "A4",
                    "midi": 69,
                    "time": 37.80737099999996,
                    "velocity": 0.5275590551181102,
                    "duration": 0.30737700000000245
                },
                {
                    "name": "G3",
                    "midi": 55,
                    "time": 38.03790374999996,
                    "velocity": 0.4330708661417323,
                    "duration": 0.11526637499999737
                },
                {
                    "name": "G4",
                    "midi": 67,
                    "time": 38.11474799999996,
                    "velocity": 0.6614173228346457,
                    "duration": 0.6147539999999978
                },
                {
                    "name": "A#4",
                    "midi": 70,
                    "time": 38.42212499999996,
                    "velocity": 0.5354330708661418,
                    "duration": 0.30737700000000245
                },
                {
                    "name": "G#3",
                    "midi": 56,
                    "time": 38.65265774999996,
                    "velocity": 0.44881889763779526,
                    "duration": 0.11526637499999737
                },
                {
                    "name": "G#4",
                    "midi": 68,
                    "time": 38.72950199999996,
                    "velocity": 0.6850393700787402,
                    "duration": 0.6147539999999978
                },
                {
                    "name": "B4",
                    "midi": 71,
                    "time": 39.036878999999956,
                    "velocity": 0.5354330708661418,
                    "duration": 0.30737700000000245
                },
                {
                    "name": "A3",
                    "midi": 57,
                    "time": 39.34425599999996,
                    "velocity": 0.49606299212598426,
                    "duration": 0.30737700000000245
                },
                {
                    "name": "A4",
                    "midi": 69,
                    "time": 39.34425599999996,
                    "velocity": 0.5984251968503937,
                    "duration": 0.30737700000000245
                },
                {
                    "name": "E4",
                    "midi": 64,
                    "time": 39.65163299999996,
                    "velocity": 0.49606299212598426,
                    "duration": 0.30737700000000245
                },
                {
                    "name": "C#5",
                    "midi": 73,
                    "time": 39.65163299999996,
                    "velocity": 0.5984251968503937,
                    "duration": 0.30737700000000245
                },
                {
                    "name": "A4",
                    "midi": 69,
                    "time": 39.65163299999996,
                    "velocity": 0.49606299212598426,
                    "duration": 0.30737700000000245
                },
                {
                    "name": "G4",
                    "midi": 67,
                    "time": 39.65163299999996,
                    "velocity": 0.49606299212598426,
                    "duration": 0.30737700000000245
                },
                {
                    "name": "A4",
                    "midi": 69,
                    "time": 39.959009999999964,
                    "velocity": 0.49606299212598426,
                    "duration": 0.30737700000000245
                },
                {
                    "name": "F4",
                    "midi": 65,
                    "time": 39.959009999999964,
                    "velocity": 0.49606299212598426,
                    "duration": 0.30737700000000245
                },
                {
                    "name": "D5",
                    "midi": 74,
                    "time": 39.959009999999964,
                    "velocity": 0.5984251968503937,
                    "duration": 0.30737700000000245
                },
                {
                    "name": "D4",
                    "midi": 62,
                    "time": 39.959009999999964,
                    "velocity": 0.49606299212598426,
                    "duration": 0.30737700000000245
                },
                {
                    "name": "D4",
                    "midi": 62,
                    "time": 40.881140999999964,
                    "velocity": 0.3779527559055118,
                    "duration": 0.6147540000000049
                },
                {
                    "name": "A4",
                    "midi": 69,
                    "time": 40.881140999999964,
                    "velocity": 0.5748031496062992,
                    "duration": 0.30737700000000245
                },
                {
                    "name": "A#4",
                    "midi": 70,
                    "time": 41.188517999999966,
                    "velocity": 0.6299212598425197,
                    "duration": 0.30737700000000245
                },
                {
                    "name": "A4",
                    "midi": 69,
                    "time": 41.49589499999997,
                    "velocity": 0.5748031496062992,
                    "duration": 0.30737700000000245
                },
                {
                    "name": "C4",
                    "midi": 60,
                    "time": 41.49589499999997,
                    "velocity": 0.4330708661417323,
                    "duration": 0.30737700000000245
                },
                {
                    "name": "A4",
                    "midi": 69,
                    "time": 42.110648999999974,
                    "velocity": 0.5748031496062992,
                    "duration": 0.30737700000000245
                },
                {
                    "name": "D4",
                    "midi": 62,
                    "time": 42.110648999999974,
                    "velocity": 0.3779527559055118,
                    "duration": 0.6147540000000049
                },
                {
                    "name": "A#4",
                    "midi": 70,
                    "time": 42.418025999999976,
                    "velocity": 0.6299212598425197,
                    "duration": 0.30737700000000245
                },
                {
                    "name": "C4",
                    "midi": 60,
                    "time": 42.72540299999998,
                    "velocity": 0.4409448818897638,
                    "duration": 0.30737700000000245
                },
                {
                    "name": "A4",
                    "midi": 69,
                    "time": 42.72540299999998,
                    "velocity": 0.5748031496062992,
                    "duration": 0.6147540000000049
                },
                {
                    "name": "A#3",
                    "midi": 58,
                    "time": 43.03277999999998,
                    "velocity": 0.4645669291338583,
                    "duration": 0.6147540000000049
                },
                {
                    "name": "G4",
                    "midi": 67,
                    "time": 43.340156999999984,
                    "velocity": 0.5984251968503937,
                    "duration": 0.6147540000000049
                },
                {
                    "name": "A3",
                    "midi": 57,
                    "time": 43.647533999999986,
                    "velocity": 0.47244094488188976,
                    "duration": 0.6147540000000049
                },
                {
                    "name": "F4",
                    "midi": 65,
                    "time": 43.95491099999999,
                    "velocity": 0.5984251968503937,
                    "duration": 0.6147540000000049
                },
                {
                    "name": "G3",
                    "midi": 55,
                    "time": 44.26228799999999,
                    "velocity": 0.4645669291338583,
                    "duration": 0.6147540000000049
                },
                {
                    "name": "E4",
                    "midi": 64,
                    "time": 44.56966499999999,
                    "velocity": 0.5590551181102362,
                    "duration": 0.6147540000000049
                },
                {
                    "name": "F3",
                    "midi": 53,
                    "time": 44.877041999999996,
                    "velocity": 0.4251968503937008,
                    "duration": 0.6147540000000049
                },
                {
                    "name": "D4",
                    "midi": 62,
                    "time": 45.184419,
                    "velocity": 0.5354330708661418,
                    "duration": 0.30737700000000245
                },
                {
                    "name": "G3",
                    "midi": 55,
                    "time": 45.799173,
                    "velocity": 0.4330708661417323,
                    "duration": 0.30737700000000245
                },
                {
                    "name": "A#3",
                    "midi": 58,
                    "time": 45.799173,
                    "velocity": 0.4330708661417323,
                    "duration": 0.30737700000000245
                },
                {
                    "name": "D#4",
                    "midi": 63,
                    "time": 45.799173,
                    "velocity": 0.5196850393700787,
                    "duration": 0.30737700000000245
                },
                {
                    "name": "D4",
                    "midi": 62,
                    "time": 46.106550000000006,
                    "velocity": 0.4645669291338583,
                    "duration": 0.30737700000000245
                },
                {
                    "name": "G4",
                    "midi": 67,
                    "time": 46.106550000000006,
                    "velocity": 0.5590551181102362,
                    "duration": 0.30737700000000245
                },
                {
                    "name": "A#3",
                    "midi": 58,
                    "time": 46.106550000000006,
                    "velocity": 0.3858267716535433,
                    "duration": 0.30737700000000245
                },
                {
                    "name": "G#3",
                    "midi": 56,
                    "time": 46.106550000000006,
                    "velocity": 0.3858267716535433,
                    "duration": 0.30737700000000245
                },
                {
                    "name": "D#4",
                    "midi": 63,
                    "time": 46.41392700000001,
                    "velocity": 0.5196850393700787,
                    "duration": 0.30737700000000245
                },
                {
                    "name": "G3",
                    "midi": 55,
                    "time": 46.41392700000001,
                    "velocity": 0.4330708661417323,
                    "duration": 0.30737700000000245
                },
                {
                    "name": "A#3",
                    "midi": 58,
                    "time": 46.41392700000001,
                    "velocity": 0.4330708661417323,
                    "duration": 0.30737700000000245
                },
                {
                    "name": "G3",
                    "midi": 55,
                    "time": 47.02868100000001,
                    "velocity": 0.4330708661417323,
                    "duration": 0.30737700000000245
                },
                {
                    "name": "A#3",
                    "midi": 58,
                    "time": 47.02868100000001,
                    "velocity": 0.4330708661417323,
                    "duration": 0.30737700000000245
                },
                {
                    "name": "D#4",
                    "midi": 63,
                    "time": 47.02868100000001,
                    "velocity": 0.5196850393700787,
                    "duration": 0.30737700000000245
                },
                {
                    "name": "G#3",
                    "midi": 56,
                    "time": 47.336058000000016,
                    "velocity": 0.3858267716535433,
                    "duration": 0.30737700000000245
                },
                {
                    "name": "A#3",
                    "midi": 58,
                    "time": 47.336058000000016,
                    "velocity": 0.3858267716535433,
                    "duration": 0.30737700000000245
                },
                {
                    "name": "D4",
                    "midi": 62,
                    "time": 47.336058000000016,
                    "velocity": 0.4645669291338583,
                    "duration": 0.30737700000000245
                },
                {
                    "name": "G4",
                    "midi": 67,
                    "time": 47.336058000000016,
                    "velocity": 0.5590551181102362,
                    "duration": 0.30737700000000245
                },
                {
                    "name": "G3",
                    "midi": 55,
                    "time": 47.64343500000002,
                    "velocity": 0.4330708661417323,
                    "duration": 0.30737700000000245
                },
                {
                    "name": "A#3",
                    "midi": 58,
                    "time": 47.64343500000002,
                    "velocity": 0.4330708661417323,
                    "duration": 0.30737700000000245
                },
                {
                    "name": "D#4",
                    "midi": 63,
                    "time": 47.64343500000002,
                    "velocity": 0.5196850393700787,
                    "duration": 0.30737700000000245
                },
                {
                    "name": "F#3",
                    "midi": 54,
                    "time": 47.95081200000002,
                    "velocity": 0.44881889763779526,
                    "duration": 0.15368850000000123
                },
                {
                    "name": "F#4",
                    "midi": 66,
                    "time": 47.95081200000002,
                    "velocity": 0.5590551181102362,
                    "duration": 0.15368850000000123
                },
                {
                    "name": "D#3",
                    "midi": 51,
                    "time": 48.25818900000002,
                    "velocity": 0.5196850393700787,
                    "duration": 0.6147539999999978
                },
                {
                    "name": "E3",
                    "midi": 52,
                    "time": 48.87294300000002,
                    "velocity": 0.4645669291338583,
                    "duration": 0.30737700000000245
                },
                {
                    "name": "F#3",
                    "midi": 54,
                    "time": 49.18032000000002,
                    "velocity": 0.4645669291338583,
                    "duration": 0.30737700000000245
                },
                {
                    "name": "G3",
                    "midi": 55,
                    "time": 49.487697000000026,
                    "velocity": 0.5118110236220472,
                    "duration": 0.30737700000000245
                },
                {
                    "name": "G#3",
                    "midi": 56,
                    "time": 49.79507400000003,
                    "velocity": 0.5511811023622047,
                    "duration": 0.30737700000000245
                },
                {
                    "name": "A3",
                    "midi": 57,
                    "time": 50.10245100000003,
                    "velocity": 0.5826771653543307,
                    "duration": 0.19211062499999798
                },
                {
                    "name": "A1",
                    "midi": 33,
                    "time": 50.71720500000003,
                    "velocity": 0.3937007874015748,
                    "duration": 0.11526637499999737
                },
                {
                    "name": "A2",
                    "midi": 45,
                    "time": 50.71720500000003,
                    "velocity": 0.47244094488188976,
                    "duration": 0.11526637499999737
                },
                {
                    "name": "D2",
                    "midi": 38,
                    "time": 51.331959000000026,
                    "velocity": 0.3937007874015748,
                    "duration": 0.11526637499999737
                },
                {
                    "name": "D3",
                    "midi": 50,
                    "time": 51.331959000000026,
                    "velocity": 0.47244094488188976,
                    "duration": 0.11526637499999737
                },
                {
                    "name": "E2",
                    "midi": 40,
                    "time": 51.946713000000024,
                    "velocity": 0.3937007874015748,
                    "duration": 0.11526637499999737
                },
                {
                    "name": "E3",
                    "midi": 52,
                    "time": 51.946713000000024,
                    "velocity": 0.47244094488188976,
                    "duration": 0.11526637499999737
                },
                {
                    "name": "F#2",
                    "midi": 42,
                    "time": 52.56146700000002,
                    "velocity": 0.4015748031496063,
                    "duration": 0.11526637499999737
                },
                {
                    "name": "F#3",
                    "midi": 54,
                    "time": 52.56146700000002,
                    "velocity": 0.48031496062992124,
                    "duration": 0.11526637499999737
                },
                {
                    "name": "G2",
                    "midi": 43,
                    "time": 53.17622100000002,
                    "velocity": 0.41732283464566927,
                    "duration": 0.11526637499999737
                },
                {
                    "name": "G3",
                    "midi": 55,
                    "time": 53.17622100000002,
                    "velocity": 0.49606299212598426,
                    "duration": 0.11526637499999737
                },
                {
                    "name": "G#2",
                    "midi": 44,
                    "time": 53.79097500000002,
                    "velocity": 0.4251968503937008,
                    "duration": 0.11526637499999737
                },
                {
                    "name": "G#3",
                    "midi": 56,
                    "time": 53.79097500000002,
                    "velocity": 0.5118110236220472,
                    "duration": 0.11526637499999737
                },
                {
                    "name": "A2",
                    "midi": 45,
                    "time": 54.405729000000015,
                    "velocity": 0.47244094488188976,
                    "duration": 0.9221310000000003
                },
                {
                    "name": "A3",
                    "midi": 57,
                    "time": 54.405729000000015,
                    "velocity": 0.5669291338582677,
                    "duration": 0.9221310000000003
                },
                {
                    "name": "C#4",
                    "midi": 61,
                    "time": 55.02048300000001,
                    "velocity": 0.5748031496062992,
                    "duration": 0.30737700000000245
                },
                {
                    "name": "A2",
                    "midi": 45,
                    "time": 55.251015750000015,
                    "velocity": 0.3858267716535433,
                    "duration": 0.11526637499999737
                },
                {
                    "name": "A3",
                    "midi": 57,
                    "time": 55.327860000000015,
                    "velocity": 0.5748031496062992,
                    "duration": 0.6147539999999978
                },
                {
                    "name": "C#4",
                    "midi": 61,
                    "time": 55.63523700000001,
                    "velocity": 0.4881889763779528,
                    "duration": 0.30737700000000245
                },
                {
                    "name": "D3",
                    "midi": 50,
                    "time": 55.86576975000001,
                    "velocity": 0.4015748031496063,
                    "duration": 0.11526637499999737
                },
                {
                    "name": "D4",
                    "midi": 62,
                    "time": 55.94261400000001,
                    "velocity": 0.6377952755905512,
                    "duration": 0.6147539999999978
                },
                {
                    "name": "F4",
                    "midi": 65,
                    "time": 56.24999100000001,
                    "velocity": 0.4881889763779528,
                    "duration": 0.30737700000000245
                },
                {
                    "name": "E3",
                    "midi": 52,
                    "time": 56.48052375000001,
                    "velocity": 0.3858267716535433,
                    "duration": 0.11526637499999737
                },
                {
                    "name": "E4",
                    "midi": 64,
                    "time": 56.55736800000001,
                    "velocity": 0.5984251968503937,
                    "duration": 0.6147539999999978
                },
                {
                    "name": "G4",
                    "midi": 67,
                    "time": 56.864745000000006,
                    "velocity": 0.5275590551181102,
                    "duration": 0.30737700000000245
                },
                {
                    "name": "F#3",
                    "midi": 54,
                    "time": 57.09527775000001,
                    "velocity": 0.4094488188976378,
                    "duration": 0.11526637499999737
                },
                {
                    "name": "F#4",
                    "midi": 66,
                    "time": 57.17212200000001,
                    "velocity": 0.6377952755905512,
                    "duration": 0.6147539999999978
                },
                {
                    "name": "A4",
                    "midi": 69,
                    "time": 57.479499000000004,
                    "velocity": 0.5275590551181102,
                    "duration": 0.30737700000000245
                },
                {
                    "name": "G3",
                    "midi": 55,
                    "time": 57.710031750000006,
                    "velocity": 0.4330708661417323,
                    "duration": 0.11526637499999737
                },
                {
                    "name": "G4",
                    "midi": 67,
                    "time": 57.78687600000001,
                    "velocity": 0.6614173228346457,
                    "duration": 0.6147539999999978
                },
                {
                    "name": "A#4",
                    "midi": 70,
                    "time": 58.094253,
                    "velocity": 0.5354330708661418,
                    "duration": 0.30737700000000245
                },
                {
                    "name": "G#3",
                    "midi": 56,
                    "time": 58.324785750000004,
                    "velocity": 0.44881889763779526,
                    "duration": 0.11526637499999737
                },
                {
                    "name": "G#4",
                    "midi": 68,
                    "time": 58.401630000000004,
                    "velocity": 0.6850393700787402,
                    "duration": 0.6147539999999978
                },
                {
                    "name": "B4",
                    "midi": 71,
                    "time": 58.709007,
                    "velocity": 0.5354330708661418,
                    "duration": 0.30737700000000245
                },
                {
                    "name": "A3",
                    "midi": 57,
                    "time": 59.016384,
                    "velocity": 0.49606299212598426,
                    "duration": 0.30737700000000245
                },
                {
                    "name": "A4",
                    "midi": 69,
                    "time": 59.016384,
                    "velocity": 0.5984251968503937,
                    "duration": 0.30737700000000245
                },
                {
                    "name": "E4",
                    "midi": 64,
                    "time": 59.323761000000005,
                    "velocity": 0.49606299212598426,
                    "duration": 0.30737700000000245
                },
                {
                    "name": "G4",
                    "midi": 67,
                    "time": 59.323761000000005,
                    "velocity": 0.49606299212598426,
                    "duration": 0.30737700000000245
                },
                {
                    "name": "C#5",
                    "midi": 73,
                    "time": 59.323761000000005,
                    "velocity": 0.5984251968503937,
                    "duration": 0.30737700000000245
                },
                {
                    "name": "A4",
                    "midi": 69,
                    "time": 59.323761000000005,
                    "velocity": 0.49606299212598426,
                    "duration": 0.30737700000000245
                },
                {
                    "name": "F4",
                    "midi": 65,
                    "time": 59.63113800000001,
                    "velocity": 0.49606299212598426,
                    "duration": 0.15368850000000123
                },
                {
                    "name": "D4",
                    "midi": 62,
                    "time": 59.63113800000001,
                    "velocity": 0.49606299212598426,
                    "duration": 0.15368850000000123
                },
                {
                    "name": "D5",
                    "midi": 74,
                    "time": 59.63113800000001,
                    "velocity": 0.5984251968503937,
                    "duration": 0.15368850000000123
                },
                {
                    "name": "A4",
                    "midi": 69,
                    "time": 59.63113800000001,
                    "velocity": 0.49606299212598426,
                    "duration": 0.15368850000000123
                },
                {
                    "name": "A2",
                    "midi": 45,
                    "time": 119.56965300000002,
                    "velocity": 0.4251968503937008,
                    "duration": 0.11526637500000447
                },
                {
                    "name": "A1",
                    "midi": 33,
                    "time": 119.56965300000002,
                    "velocity": 0.3543307086614173,
                    "duration": 0.11526637500000447
                },
                {
                    "name": "D2",
                    "midi": 38,
                    "time": 120.18440700000002,
                    "velocity": 0.36220472440944884,
                    "duration": 0.11526637500000447
                },
                {
                    "name": "D3",
                    "midi": 50,
                    "time": 120.18440700000002,
                    "velocity": 0.4330708661417323,
                    "duration": 0.11526637500000447
                },
                {
                    "name": "E3",
                    "midi": 52,
                    "time": 120.79916100000003,
                    "velocity": 0.4409448818897638,
                    "duration": 0.11526637500000447
                },
                {
                    "name": "E2",
                    "midi": 40,
                    "time": 120.79916100000003,
                    "velocity": 0.3700787401574803,
                    "duration": 0.11526637500000447
                },
                {
                    "name": "F#2",
                    "midi": 42,
                    "time": 121.41391500000003,
                    "velocity": 0.3779527559055118,
                    "duration": 0.11526637500000447
                },
                {
                    "name": "F#3",
                    "midi": 54,
                    "time": 121.41391500000003,
                    "velocity": 0.4566929133858268,
                    "duration": 0.11526637500000447
                },
                {
                    "name": "G2",
                    "midi": 43,
                    "time": 122.02866900000004,
                    "velocity": 0.4015748031496063,
                    "duration": 0.11526637500000447
                },
                {
                    "name": "G3",
                    "midi": 55,
                    "time": 122.02866900000004,
                    "velocity": 0.4881889763779528,
                    "duration": 0.11526637500000447
                },
                {
                    "name": "G#3",
                    "midi": 56,
                    "time": 122.64342300000004,
                    "velocity": 0.5118110236220472,
                    "duration": 0.11526637500000447
                },
                {
                    "name": "G#2",
                    "midi": 44,
                    "time": 122.64342300000004,
                    "velocity": 0.4251968503937008,
                    "duration": 0.11526637500000447
                },
                {
                    "name": "A3",
                    "midi": 57,
                    "time": 123.25817700000005,
                    "velocity": 0.5669291338582677,
                    "duration": 0.9221309999999932
                },
                {
                    "name": "A2",
                    "midi": 45,
                    "time": 123.25817700000005,
                    "velocity": 0.47244094488188976,
                    "duration": 0.9221309999999932
                },
                {
                    "name": "A3",
                    "midi": 57,
                    "time": 124.48768500000004,
                    "velocity": 0.47244094488188976,
                    "duration": 0.11526637500000447
                },
                {
                    "name": "C#3",
                    "midi": 49,
                    "time": 124.48768500000004,
                    "velocity": 0.3937007874015748,
                    "duration": 0.11526637500000447
                },
                {
                    "name": "A2",
                    "midi": 45,
                    "time": 124.48768500000004,
                    "velocity": 0.3937007874015748,
                    "duration": 0.11526637500000447
                },
                {
                    "name": "D4",
                    "midi": 62,
                    "time": 125.10243900000005,
                    "velocity": 0.47244094488188976,
                    "duration": 0.11526637500000447
                },
                {
                    "name": "F3",
                    "midi": 53,
                    "time": 125.10243900000005,
                    "velocity": 0.3937007874015748,
                    "duration": 0.11526637500000447
                },
                {
                    "name": "D3",
                    "midi": 50,
                    "time": 125.10243900000005,
                    "velocity": 0.3937007874015748,
                    "duration": 0.11526637500000447
                },
                {
                    "name": "G3",
                    "midi": 55,
                    "time": 125.71719300000005,
                    "velocity": 0.3937007874015748,
                    "duration": 0.11526637500000447
                },
                {
                    "name": "E3",
                    "midi": 52,
                    "time": 125.71719300000005,
                    "velocity": 0.3937007874015748,
                    "duration": 0.11526637500000447
                },
                {
                    "name": "C#4",
                    "midi": 61,
                    "time": 125.71719300000005,
                    "velocity": 0.47244094488188976,
                    "duration": 0.11526637500000447
                },
                {
                    "name": "C4",
                    "midi": 60,
                    "time": 126.33194700000006,
                    "velocity": 0.4015748031496063,
                    "duration": 0.11526637500000447
                },
                {
                    "name": "A3",
                    "midi": 57,
                    "time": 126.33194700000006,
                    "velocity": 0.4015748031496063,
                    "duration": 0.11526637500000447
                },
                {
                    "name": "F#3",
                    "midi": 54,
                    "time": 126.33194700000006,
                    "velocity": 0.4015748031496063,
                    "duration": 0.11526637500000447
                },
                {
                    "name": "D4",
                    "midi": 62,
                    "time": 126.33194700000006,
                    "velocity": 0.48031496062992124,
                    "duration": 0.11526637500000447
                },
                {
                    "name": "G4",
                    "midi": 67,
                    "time": 126.94670100000006,
                    "velocity": 0.49606299212598426,
                    "duration": 0.11526637500000447
                },
                {
                    "name": "A#3",
                    "midi": 58,
                    "time": 126.94670100000006,
                    "velocity": 0.41732283464566927,
                    "duration": 0.11526637500000447
                },
                {
                    "name": "G3",
                    "midi": 55,
                    "time": 126.94670100000006,
                    "velocity": 0.41732283464566927,
                    "duration": 0.11526637500000447
                },
                {
                    "name": "D#4",
                    "midi": 63,
                    "time": 126.94670100000006,
                    "velocity": 0.41732283464566927,
                    "duration": 0.11526637500000447
                },
                {
                    "name": "B3",
                    "midi": 59,
                    "time": 127.56145500000007,
                    "velocity": 0.4251968503937008,
                    "duration": 0.11526637500000447
                },
                {
                    "name": "D4",
                    "midi": 62,
                    "time": 127.56145500000007,
                    "velocity": 0.4251968503937008,
                    "duration": 0.11526637500000447
                },
                {
                    "name": "G#3",
                    "midi": 56,
                    "time": 127.56145500000007,
                    "velocity": 0.4251968503937008,
                    "duration": 0.11526637500000447
                },
                {
                    "name": "F4",
                    "midi": 65,
                    "time": 127.56145500000007,
                    "velocity": 0.5118110236220472,
                    "duration": 0.11526637500000447
                },
                {
                    "name": "C#4",
                    "midi": 61,
                    "time": 128.17620900000006,
                    "velocity": 0.4409448818897638,
                    "duration": 0.30737700000000245
                },
                {
                    "name": "A3",
                    "midi": 57,
                    "time": 128.17620900000006,
                    "velocity": 0.4409448818897638,
                    "duration": 0.30737700000000245
                },
                {
                    "name": "A4",
                    "midi": 69,
                    "time": 128.17620900000006,
                    "velocity": 0.5354330708661418,
                    "duration": 0.30737700000000245
                },
                {
                    "name": "D5",
                    "midi": 74,
                    "time": 128.48358600000006,
                    "velocity": 0.5354330708661418,
                    "duration": 0.30737700000000245
                },
                {
                    "name": "D4",
                    "midi": 62,
                    "time": 128.48358600000006,
                    "velocity": 0.4409448818897638,
                    "duration": 0.30737700000000245
                },
                {
                    "name": "F4",
                    "midi": 65,
                    "time": 128.48358600000006,
                    "velocity": 0.4409448818897638,
                    "duration": 0.30737700000000245
                },
                {
                    "name": "A4",
                    "midi": 69,
                    "time": 128.48358600000006,
                    "velocity": 0.4409448818897638,
                    "duration": 0.30737700000000245
                },
                {
                    "name": "D4",
                    "midi": 62,
                    "time": 129.40571700000007,
                    "velocity": 0.4015748031496063,
                    "duration": 0.6147540000000049
                },
                {
                    "name": "A4",
                    "midi": 69,
                    "time": 129.40571700000007,
                    "velocity": 0.5748031496062992,
                    "duration": 0.30737700000000245
                },
                {
                    "name": "A#4",
                    "midi": 70,
                    "time": 129.71309400000007,
                    "velocity": 0.6299212598425197,
                    "duration": 0.30737700000000245
                },
                {
                    "name": "C4",
                    "midi": 60,
                    "time": 130.02047100000007,
                    "velocity": 0.4409448818897638,
                    "duration": 0.30737700000000245
                },
                {
                    "name": "A4",
                    "midi": 69,
                    "time": 130.02047100000007,
                    "velocity": 0.5748031496062992,
                    "duration": 0.30737700000000245
                },
                {
                    "name": "D4",
                    "midi": 62,
                    "time": 130.63522500000008,
                    "velocity": 0.3858267716535433,
                    "duration": 0.6147540000000049
                },
                {
                    "name": "A4",
                    "midi": 69,
                    "time": 130.63522500000008,
                    "velocity": 0.5748031496062992,
                    "duration": 0.30737700000000245
                },
                {
                    "name": "A#4",
                    "midi": 70,
                    "time": 130.94260200000008,
                    "velocity": 0.6299212598425197,
                    "duration": 0.30737700000000245
                },
                {
                    "name": "C4",
                    "midi": 60,
                    "time": 131.24997900000008,
                    "velocity": 0.4330708661417323,
                    "duration": 0.30737700000000245
                },
                {
                    "name": "A4",
                    "midi": 69,
                    "time": 131.24997900000008,
                    "velocity": 0.5748031496062992,
                    "duration": 0.6147540000000049
                },
                {
                    "name": "A#3",
                    "midi": 58,
                    "time": 131.55735600000008,
                    "velocity": 0.4645669291338583,
                    "duration": 0.6147540000000049
                },
                {
                    "name": "G4",
                    "midi": 67,
                    "time": 131.8647330000001,
                    "velocity": 0.5984251968503937,
                    "duration": 0.6147540000000049
                },
                {
                    "name": "A3",
                    "midi": 57,
                    "time": 132.1721100000001,
                    "velocity": 0.47244094488188976,
                    "duration": 0.6147540000000049
                },
                {
                    "name": "F4",
                    "midi": 65,
                    "time": 132.4794870000001,
                    "velocity": 0.5984251968503937,
                    "duration": 0.6147540000000049
                },
                {
                    "name": "G3",
                    "midi": 55,
                    "time": 132.7868640000001,
                    "velocity": 0.4645669291338583,
                    "duration": 0.6147540000000049
                },
                {
                    "name": "E4",
                    "midi": 64,
                    "time": 133.0942410000001,
                    "velocity": 0.5590551181102362,
                    "duration": 0.6147540000000049
                },
                {
                    "name": "F3",
                    "midi": 53,
                    "time": 133.4016180000001,
                    "velocity": 0.4251968503937008,
                    "duration": 0.6147540000000049
                },
                {
                    "name": "D4",
                    "midi": 62,
                    "time": 133.7089950000001,
                    "velocity": 0.5354330708661418,
                    "duration": 0.30737700000000245
                },
                {
                    "name": "G3",
                    "midi": 55,
                    "time": 134.3237490000001,
                    "velocity": 0.4330708661417323,
                    "duration": 0.30737700000000245
                },
                {
                    "name": "A#3",
                    "midi": 58,
                    "time": 134.3237490000001,
                    "velocity": 0.4330708661417323,
                    "duration": 0.30737700000000245
                },
                {
                    "name": "D#4",
                    "midi": 63,
                    "time": 134.3237490000001,
                    "velocity": 0.5196850393700787,
                    "duration": 0.30737700000000245
                },
                {
                    "name": "G#3",
                    "midi": 56,
                    "time": 134.6311260000001,
                    "velocity": 0.3858267716535433,
                    "duration": 0.30737700000000245
                },
                {
                    "name": "G4",
                    "midi": 67,
                    "time": 134.6311260000001,
                    "velocity": 0.5590551181102362,
                    "duration": 0.30737700000000245
                },
                {
                    "name": "A#3",
                    "midi": 58,
                    "time": 134.6311260000001,
                    "velocity": 0.3858267716535433,
                    "duration": 0.30737700000000245
                },
                {
                    "name": "D4",
                    "midi": 62,
                    "time": 134.6311260000001,
                    "velocity": 0.4645669291338583,
                    "duration": 0.30737700000000245
                },
                {
                    "name": "D#4",
                    "midi": 63,
                    "time": 134.9385030000001,
                    "velocity": 0.5196850393700787,
                    "duration": 0.30737700000000245
                },
                {
                    "name": "G3",
                    "midi": 55,
                    "time": 134.9385030000001,
                    "velocity": 0.4330708661417323,
                    "duration": 0.30737700000000245
                },
                {
                    "name": "A#3",
                    "midi": 58,
                    "time": 134.9385030000001,
                    "velocity": 0.4330708661417323,
                    "duration": 0.30737700000000245
                },
                {
                    "name": "A#3",
                    "midi": 58,
                    "time": 135.55325700000012,
                    "velocity": 0.4330708661417323,
                    "duration": 0.30737700000000245
                },
                {
                    "name": "D#4",
                    "midi": 63,
                    "time": 135.55325700000012,
                    "velocity": 0.5196850393700787,
                    "duration": 0.30737700000000245
                },
                {
                    "name": "G3",
                    "midi": 55,
                    "time": 135.55325700000012,
                    "velocity": 0.4330708661417323,
                    "duration": 0.30737700000000245
                },
                {
                    "name": "A#3",
                    "midi": 58,
                    "time": 135.86063400000012,
                    "velocity": 0.3858267716535433,
                    "duration": 0.30737700000000245
                },
                {
                    "name": "G#3",
                    "midi": 56,
                    "time": 135.86063400000012,
                    "velocity": 0.3858267716535433,
                    "duration": 0.30737700000000245
                },
                {
                    "name": "G4",
                    "midi": 67,
                    "time": 135.86063400000012,
                    "velocity": 0.5590551181102362,
                    "duration": 0.30737700000000245
                },
                {
                    "name": "D4",
                    "midi": 62,
                    "time": 135.86063400000012,
                    "velocity": 0.4645669291338583,
                    "duration": 0.30737700000000245
                },
                {
                    "name": "A#3",
                    "midi": 58,
                    "time": 136.16801100000012,
                    "velocity": 0.4330708661417323,
                    "duration": 0.30737700000000245
                },
                {
                    "name": "G3",
                    "midi": 55,
                    "time": 136.16801100000012,
                    "velocity": 0.4330708661417323,
                    "duration": 0.30737700000000245
                },
                {
                    "name": "D#4",
                    "midi": 63,
                    "time": 136.16801100000012,
                    "velocity": 0.5196850393700787,
                    "duration": 0.30737700000000245
                },
                {
                    "name": "F#3",
                    "midi": 54,
                    "time": 136.47538800000012,
                    "velocity": 0.44881889763779526,
                    "duration": 0.15368849999998702
                },
                {
                    "name": "F#4",
                    "midi": 66,
                    "time": 136.47538800000012,
                    "velocity": 0.5590551181102362,
                    "duration": 0.15368849999998702
                },
                {
                    "name": "D#3",
                    "midi": 51,
                    "time": 136.7827650000001,
                    "velocity": 0.5196850393700787,
                    "duration": 0.6147540000000049
                },
                {
                    "name": "E3",
                    "midi": 52,
                    "time": 137.3975190000001,
                    "velocity": 0.4645669291338583,
                    "duration": 0.30737700000000245
                },
                {
                    "name": "F#3",
                    "midi": 54,
                    "time": 137.7048960000001,
                    "velocity": 0.4645669291338583,
                    "duration": 0.30737700000000245
                },
                {
                    "name": "G3",
                    "midi": 55,
                    "time": 138.0122730000001,
                    "velocity": 0.5118110236220472,
                    "duration": 0.30737700000000245
                },
                {
                    "name": "G#3",
                    "midi": 56,
                    "time": 138.3196500000001,
                    "velocity": 0.5511811023622047,
                    "duration": 0.30737700000000245
                },
                {
                    "name": "A3",
                    "midi": 57,
                    "time": 138.6270270000001,
                    "velocity": 0.5826771653543307,
                    "duration": 0.19211062499999798
                },
                {
                    "name": "A1",
                    "midi": 33,
                    "time": 139.24178100000012,
                    "velocity": 0.3937007874015748,
                    "duration": 0.11526637500000447
                },
                {
                    "name": "A2",
                    "midi": 45,
                    "time": 139.24178100000012,
                    "velocity": 0.47244094488188976,
                    "duration": 0.11526637500000447
                },
                {
                    "name": "D2",
                    "midi": 38,
                    "time": 139.85653500000012,
                    "velocity": 0.3937007874015748,
                    "duration": 0.11526637500000447
                },
                {
                    "name": "D3",
                    "midi": 50,
                    "time": 139.85653500000012,
                    "velocity": 0.47244094488188976,
                    "duration": 0.11526637500000447
                },
                {
                    "name": "E2",
                    "midi": 40,
                    "time": 140.47128900000013,
                    "velocity": 0.3937007874015748,
                    "duration": 0.11526637500000447
                },
                {
                    "name": "E3",
                    "midi": 52,
                    "time": 140.47128900000013,
                    "velocity": 0.47244094488188976,
                    "duration": 0.11526637500000447
                },
                {
                    "name": "F#2",
                    "midi": 42,
                    "time": 141.08604300000013,
                    "velocity": 0.4015748031496063,
                    "duration": 0.11526637500000447
                },
                {
                    "name": "F#3",
                    "midi": 54,
                    "time": 141.08604300000013,
                    "velocity": 0.48031496062992124,
                    "duration": 0.11526637500000447
                },
                {
                    "name": "G3",
                    "midi": 55,
                    "time": 141.70079700000014,
                    "velocity": 0.49606299212598426,
                    "duration": 0.11526637500000447
                },
                {
                    "name": "G2",
                    "midi": 43,
                    "time": 141.70079700000014,
                    "velocity": 0.41732283464566927,
                    "duration": 0.11526637500000447
                },
                {
                    "name": "G#3",
                    "midi": 56,
                    "time": 142.31555100000014,
                    "velocity": 0.5118110236220472,
                    "duration": 0.11526637500000447
                },
                {
                    "name": "G#2",
                    "midi": 44,
                    "time": 142.31555100000014,
                    "velocity": 0.4251968503937008,
                    "duration": 0.11526637500000447
                },
                {
                    "name": "A3",
                    "midi": 57,
                    "time": 142.93030500000015,
                    "velocity": 0.5669291338582677,
                    "duration": 0.9221310000000074
                },
                {
                    "name": "A2",
                    "midi": 45,
                    "time": 142.93030500000015,
                    "velocity": 0.47244094488188976,
                    "duration": 0.9221310000000074
                },
                {
                    "name": "C#4",
                    "midi": 61,
                    "time": 143.54505900000015,
                    "velocity": 0.6456692913385826,
                    "duration": 0.30737700000000245
                },
                {
                    "name": "A2",
                    "midi": 45,
                    "time": 143.77559175000016,
                    "velocity": 0.3858267716535433,
                    "duration": 0.11526637500000447
                },
                {
                    "name": "A3",
                    "midi": 57,
                    "time": 143.85243600000015,
                    "velocity": 0.5748031496062992,
                    "duration": 0.6147540000000049
                },
                {
                    "name": "C#4",
                    "midi": 61,
                    "time": 144.15981300000016,
                    "velocity": 0.4881889763779528,
                    "duration": 0.30737700000000245
                },
                {
                    "name": "D3",
                    "midi": 50,
                    "time": 144.39034575000017,
                    "velocity": 0.4015748031496063,
                    "duration": 0.11526637500000447
                },
                {
                    "name": "D4",
                    "midi": 62,
                    "time": 144.46719000000016,
                    "velocity": 0.6377952755905512,
                    "duration": 0.6147540000000049
                },
                {
                    "name": "F4",
                    "midi": 65,
                    "time": 144.77456700000016,
                    "velocity": 0.4881889763779528,
                    "duration": 0.30737700000000245
                },
                {
                    "name": "E3",
                    "midi": 52,
                    "time": 145.00509975000017,
                    "velocity": 0.3858267716535433,
                    "duration": 0.11526637500000447
                },
                {
                    "name": "E4",
                    "midi": 64,
                    "time": 145.08194400000016,
                    "velocity": 0.5984251968503937,
                    "duration": 0.6147540000000049
                },
                {
                    "name": "G4",
                    "midi": 67,
                    "time": 145.38932100000017,
                    "velocity": 0.5275590551181102,
                    "duration": 0.30737700000000245
                },
                {
                    "name": "F#3",
                    "midi": 54,
                    "time": 145.61985375000017,
                    "velocity": 0.4094488188976378,
                    "duration": 0.11526637500000447
                },
                {
                    "name": "F#4",
                    "midi": 66,
                    "time": 145.69669800000017,
                    "velocity": 0.6377952755905512,
                    "duration": 0.6147540000000049
                },
                {
                    "name": "A4",
                    "midi": 69,
                    "time": 146.00407500000017,
                    "velocity": 0.5275590551181102,
                    "duration": 0.30737700000000245
                },
                {
                    "name": "G3",
                    "midi": 55,
                    "time": 146.23460775000018,
                    "velocity": 0.4330708661417323,
                    "duration": 0.11526637500000447
                },
                {
                    "name": "G4",
                    "midi": 67,
                    "time": 146.31145200000017,
                    "velocity": 0.6614173228346457,
                    "duration": 0.6147540000000049
                },
                {
                    "name": "A#4",
                    "midi": 70,
                    "time": 146.61882900000018,
                    "velocity": 0.5354330708661418,
                    "duration": 0.30737700000000245
                },
                {
                    "name": "G#3",
                    "midi": 56,
                    "time": 146.84936175000018,
                    "velocity": 0.44881889763779526,
                    "duration": 0.11526637500000447
                },
                {
                    "name": "G#4",
                    "midi": 68,
                    "time": 146.92620600000018,
                    "velocity": 0.6850393700787402,
                    "duration": 0.6147540000000049
                },
                {
                    "name": "B4",
                    "midi": 71,
                    "time": 147.23358300000018,
                    "velocity": 0.5354330708661418,
                    "duration": 0.30737700000000245
                },
                {
                    "name": "A3",
                    "midi": 57,
                    "time": 147.54096000000018,
                    "velocity": 0.49606299212598426,
                    "duration": 0.30737700000000245
                },
                {
                    "name": "A4",
                    "midi": 69,
                    "time": 147.54096000000018,
                    "velocity": 0.5984251968503937,
                    "duration": 0.30737700000000245
                },
                {
                    "name": "G4",
                    "midi": 67,
                    "time": 147.84833700000019,
                    "velocity": 0.49606299212598426,
                    "duration": 0.30737700000000245
                },
                {
                    "name": "C#5",
                    "midi": 73,
                    "time": 147.84833700000019,
                    "velocity": 0.5984251968503937,
                    "duration": 0.30737700000000245
                },
                {
                    "name": "A4",
                    "midi": 69,
                    "time": 147.84833700000019,
                    "velocity": 0.49606299212598426,
                    "duration": 0.30737700000000245
                },
                {
                    "name": "E4",
                    "midi": 64,
                    "time": 147.84833700000019,
                    "velocity": 0.49606299212598426,
                    "duration": 0.30737700000000245
                },
                {
                    "name": "A4",
                    "midi": 69,
                    "time": 148.1557140000002,
                    "velocity": 0.49606299212598426,
                    "duration": 0.30737700000000245
                },
                {
                    "name": "F4",
                    "midi": 65,
                    "time": 148.1557140000002,
                    "velocity": 0.49606299212598426,
                    "duration": 0.30737700000000245
                },
                {
                    "name": "D5",
                    "midi": 74,
                    "time": 148.1557140000002,
                    "velocity": 0.5984251968503937,
                    "duration": 0.30737700000000245
                },
                {
                    "name": "D4",
                    "midi": 62,
                    "time": 148.1557140000002,
                    "velocity": 0.49606299212598426,
                    "duration": 0.30737700000000245
                }
            ],
            "controlChanges": {
                "91": [
                    {
                        "number": 91,
                        "time": 0,
                        "value": 1
                    }
                ]
            },
            "id": 2,
            "name": "Piano left",
            "instrumentNumber": 0,
            "instrument": "acoustic grand piano",
            "instrumentFamily": "piano",
            "channelNumber": 0,
            "isPercussion": false
        },
        {
            "startTime": 0,
            "duration": 0,
            "length": 0,
            "notes": [],
            "controlChanges": {
                "64": [
                    {
                        "number": 64,
                        "time": 1.3025100375,
                        "value": 1
                    },
                    {
                        "number": 64,
                        "time": 1.5471309,
                        "value": 0
                    },
                    {
                        "number": 64,
                        "time": 1.7200304625,
                        "value": 1
                    },
                    {
                        "number": 64,
                        "time": 1.862192325,
                        "value": 0
                    },
                    {
                        "number": 64,
                        "time": 1.9249484625000002,
                        "value": 1
                    },
                    {
                        "number": 64,
                        "time": 2.1695693250000003,
                        "value": 0
                    },
                    {
                        "number": 64,
                        "time": 2.3386266750000004,
                        "value": 1
                    },
                    {
                        "number": 64,
                        "time": 2.4679811625000005,
                        "value": 0
                    },
                    {
                        "number": 64,
                        "time": 2.5320180375000008,
                        "value": 1
                    },
                    {
                        "number": 64,
                        "time": 2.780481112500001,
                        "value": 0
                    },
                    {
                        "number": 64,
                        "time": 2.961065100000001,
                        "value": 1
                    },
                    {
                        "number": 64,
                        "time": 3.0929810625000007,
                        "value": 0
                    },
                    {
                        "number": 64,
                        "time": 3.1506142500000007,
                        "value": 1
                    },
                    {
                        "number": 64,
                        "time": 3.3875506875000005,
                        "value": 0
                    },
                    {
                        "number": 64,
                        "time": 3.5476428750000006,
                        "value": 1
                    },
                    {
                        "number": 64,
                        "time": 3.700050637500001,
                        "value": 0
                    },
                    {
                        "number": 64,
                        "time": 3.7512801375000007,
                        "value": 1
                    },
                    {
                        "number": 64,
                        "time": 4.021515750000001,
                        "value": 0
                    },
                    {
                        "number": 64,
                        "time": 4.167519825000001,
                        "value": 1
                    },
                    {
                        "number": 64,
                        "time": 4.319927587500001,
                        "value": 0
                    },
                    {
                        "number": 64,
                        "time": 4.376280037500002,
                        "value": 1
                    },
                    {
                        "number": 64,
                        "time": 4.624743112500002,
                        "value": 0
                    },
                    {
                        "number": 64,
                        "time": 4.779712350000001,
                        "value": 1
                    },
                    {
                        "number": 64,
                        "time": 4.937243062500001,
                        "value": 0
                    },
                    {
                        "number": 64,
                        "time": 4.969261500000001,
                        "value": 1
                    },
                    {
                        "number": 64,
                        "time": 5.231812687500001,
                        "value": 0
                    },
                    {
                        "number": 64,
                        "time": 5.2984110375,
                        "value": 1
                    },
                    {
                        "number": 64,
                        "time": 6.1513822125,
                        "value": 0
                    },
                    {
                        "number": 64,
                        "time": 6.2205420375,
                        "value": 1
                    },
                    {
                        "number": 64,
                        "time": 6.465162899999999,
                        "value": 0
                    },
                    {
                        "number": 64,
                        "time": 6.638062462499999,
                        "value": 1
                    },
                    {
                        "number": 64,
                        "time": 6.780224324999999,
                        "value": 0
                    },
                    {
                        "number": 64,
                        "time": 6.842980462499999,
                        "value": 1
                    },
                    {
                        "number": 64,
                        "time": 7.087601324999999,
                        "value": 0
                    },
                    {
                        "number": 64,
                        "time": 7.256658674999999,
                        "value": 1
                    },
                    {
                        "number": 64,
                        "time": 7.3860131624999985,
                        "value": 0
                    },
                    {
                        "number": 64,
                        "time": 7.450050037499999,
                        "value": 1
                    },
                    {
                        "number": 64,
                        "time": 7.698513112499999,
                        "value": 0
                    },
                    {
                        "number": 64,
                        "time": 7.879097099999999,
                        "value": 1
                    },
                    {
                        "number": 64,
                        "time": 8.0110130625,
                        "value": 0
                    },
                    {
                        "number": 64,
                        "time": 8.06864625,
                        "value": 1
                    },
                    {
                        "number": 64,
                        "time": 8.305582687500001,
                        "value": 0
                    },
                    {
                        "number": 64,
                        "time": 8.465674875000001,
                        "value": 1
                    },
                    {
                        "number": 64,
                        "time": 8.6180826375,
                        "value": 0
                    },
                    {
                        "number": 64,
                        "time": 8.6693121375,
                        "value": 1
                    },
                    {
                        "number": 64,
                        "time": 8.939547750000001,
                        "value": 0
                    },
                    {
                        "number": 64,
                        "time": 9.085551825000001,
                        "value": 1
                    },
                    {
                        "number": 64,
                        "time": 9.2379595875,
                        "value": 0
                    },
                    {
                        "number": 64,
                        "time": 9.294312037500001,
                        "value": 1
                    },
                    {
                        "number": 64,
                        "time": 9.542775112500001,
                        "value": 0
                    },
                    {
                        "number": 64,
                        "time": 9.69774435,
                        "value": 1
                    },
                    {
                        "number": 64,
                        "time": 9.8552750625,
                        "value": 0
                    },
                    {
                        "number": 64,
                        "time": 9.8872935,
                        "value": 1
                    },
                    {
                        "number": 64,
                        "time": 10.1498446875,
                        "value": 0
                    },
                    {
                        "number": 64,
                        "time": 10.2164430375,
                        "value": 1
                    },
                    {
                        "number": 64,
                        "time": 10.457221687499999,
                        "value": 0
                    },
                    {
                        "number": 64,
                        "time": 10.5315044625,
                        "value": 1
                    },
                    {
                        "number": 64,
                        "time": 10.781248275,
                        "value": 0
                    },
                    {
                        "number": 64,
                        "time": 11.1385740375,
                        "value": 1
                    },
                    {
                        "number": 64,
                        "time": 11.3831949,
                        "value": 0
                    },
                    {
                        "number": 64,
                        "time": 11.556094462499999,
                        "value": 1
                    },
                    {
                        "number": 64,
                        "time": 11.698256325,
                        "value": 0
                    },
                    {
                        "number": 64,
                        "time": 11.761012462499998,
                        "value": 1
                    },
                    {
                        "number": 64,
                        "time": 12.005633324999998,
                        "value": 0
                    },
                    {
                        "number": 64,
                        "time": 12.174690674999997,
                        "value": 1
                    },
                    {
                        "number": 64,
                        "time": 12.304045162499998,
                        "value": 0
                    },
                    {
                        "number": 64,
                        "time": 12.368082037499997,
                        "value": 1
                    },
                    {
                        "number": 64,
                        "time": 12.616545112499997,
                        "value": 0
                    },
                    {
                        "number": 64,
                        "time": 12.797129099999998,
                        "value": 1
                    },
                    {
                        "number": 64,
                        "time": 12.929045062499998,
                        "value": 0
                    },
                    {
                        "number": 64,
                        "time": 12.986678249999999,
                        "value": 1
                    },
                    {
                        "number": 64,
                        "time": 13.2236146875,
                        "value": 0
                    },
                    {
                        "number": 64,
                        "time": 13.383706875,
                        "value": 1
                    },
                    {
                        "number": 64,
                        "time": 13.536114637499999,
                        "value": 0
                    },
                    {
                        "number": 64,
                        "time": 13.587344137499999,
                        "value": 1
                    },
                    {
                        "number": 64,
                        "time": 13.85757975,
                        "value": 0
                    },
                    {
                        "number": 64,
                        "time": 14.003583825,
                        "value": 1
                    },
                    {
                        "number": 64,
                        "time": 14.155991587499999,
                        "value": 0
                    },
                    {
                        "number": 64,
                        "time": 14.2123440375,
                        "value": 1
                    },
                    {
                        "number": 64,
                        "time": 14.4608071125,
                        "value": 0
                    },
                    {
                        "number": 64,
                        "time": 14.615776349999999,
                        "value": 1
                    },
                    {
                        "number": 64,
                        "time": 14.773307062499999,
                        "value": 0
                    },
                    {
                        "number": 64,
                        "time": 14.805325499999999,
                        "value": 1
                    },
                    {
                        "number": 64,
                        "time": 15.067876687499998,
                        "value": 0
                    },
                    {
                        "number": 64,
                        "time": 15.134475037499998,
                        "value": 1
                    },
                    {
                        "number": 64,
                        "time": 15.987446212499998,
                        "value": 0
                    },
                    {
                        "number": 64,
                        "time": 16.0566060375,
                        "value": 1
                    },
                    {
                        "number": 64,
                        "time": 16.3012269,
                        "value": 0
                    },
                    {
                        "number": 64,
                        "time": 16.4741264625,
                        "value": 1
                    },
                    {
                        "number": 64,
                        "time": 16.616288325,
                        "value": 0
                    },
                    {
                        "number": 64,
                        "time": 16.6790444625,
                        "value": 1
                    },
                    {
                        "number": 64,
                        "time": 16.923665324999998,
                        "value": 0
                    },
                    {
                        "number": 64,
                        "time": 17.092722674999997,
                        "value": 1
                    },
                    {
                        "number": 64,
                        "time": 17.222077162499996,
                        "value": 0
                    },
                    {
                        "number": 64,
                        "time": 17.286114037499996,
                        "value": 1
                    },
                    {
                        "number": 64,
                        "time": 17.534577112499996,
                        "value": 0
                    },
                    {
                        "number": 64,
                        "time": 17.715161099999996,
                        "value": 1
                    },
                    {
                        "number": 64,
                        "time": 17.847077062499995,
                        "value": 0
                    },
                    {
                        "number": 64,
                        "time": 17.904710249999994,
                        "value": 1
                    },
                    {
                        "number": 64,
                        "time": 18.141646687499993,
                        "value": 0
                    },
                    {
                        "number": 64,
                        "time": 18.30173887499999,
                        "value": 1
                    },
                    {
                        "number": 64,
                        "time": 18.454146637499992,
                        "value": 0
                    },
                    {
                        "number": 64,
                        "time": 18.505376137499994,
                        "value": 1
                    },
                    {
                        "number": 64,
                        "time": 18.775611749999992,
                        "value": 0
                    },
                    {
                        "number": 64,
                        "time": 18.921615824999993,
                        "value": 1
                    },
                    {
                        "number": 64,
                        "time": 19.074023587499994,
                        "value": 0
                    },
                    {
                        "number": 64,
                        "time": 19.130376037499992,
                        "value": 1
                    },
                    {
                        "number": 64,
                        "time": 19.378839112499993,
                        "value": 0
                    },
                    {
                        "number": 64,
                        "time": 19.533808349999994,
                        "value": 1
                    },
                    {
                        "number": 64,
                        "time": 19.691339062499996,
                        "value": 0
                    },
                    {
                        "number": 64,
                        "time": 19.723357499999995,
                        "value": 1
                    },
                    {
                        "number": 64,
                        "time": 19.985908687499997,
                        "value": 0
                    },
                    {
                        "number": 64,
                        "time": 20.052507037499996,
                        "value": 1
                    },
                    {
                        "number": 64,
                        "time": 20.293285687499996,
                        "value": 0
                    },
                    {
                        "number": 64,
                        "time": 20.367568462499996,
                        "value": 1
                    },
                    {
                        "number": 64,
                        "time": 20.645488499999995,
                        "value": 0
                    },
                    {
                        "number": 64,
                        "time": 20.715929062499995,
                        "value": 1
                    },
                    {
                        "number": 64,
                        "time": 21.228224062499997,
                        "value": 0
                    },
                    {
                        "number": 64,
                        "time": 21.260242499999997,
                        "value": 1
                    },
                    {
                        "number": 64,
                        "time": 21.536881799999996,
                        "value": 0
                    },
                    {
                        "number": 64,
                        "time": 21.604760887499996,
                        "value": 1
                    },
                    {
                        "number": 64,
                        "time": 21.837855112499994,
                        "value": 0
                    },
                    {
                        "number": 64,
                        "time": 21.900611249999994,
                        "value": 1
                    },
                    {
                        "number": 64,
                        "time": 22.131143999999992,
                        "value": 0
                    },
                    {
                        "number": 64,
                        "time": 22.182373499999994,
                        "value": 1
                    },
                    {
                        "number": 64,
                        "time": 22.457732062499993,
                        "value": 0
                    },
                    {
                        "number": 64,
                        "time": 22.489750499999992,
                        "value": 1
                    },
                    {
                        "number": 64,
                        "time": 22.766389799999992,
                        "value": 0
                    },
                    {
                        "number": 64,
                        "time": 22.83426888749999,
                        "value": 1
                    },
                    {
                        "number": 64,
                        "time": 23.06736311249999,
                        "value": 0
                    },
                    {
                        "number": 64,
                        "time": 23.13011924999999,
                        "value": 1
                    },
                    {
                        "number": 64,
                        "time": 23.365774949999988,
                        "value": 0
                    },
                    {
                        "number": 64,
                        "time": 23.419565924999986,
                        "value": 1
                    },
                    {
                        "number": 64,
                        "time": 23.995897799999987,
                        "value": 0
                    },
                    {
                        "number": 64,
                        "time": 24.063776887499987,
                        "value": 1
                    },
                    {
                        "number": 64,
                        "time": 24.595282949999987,
                        "value": 0
                    },
                    {
                        "number": 64,
                        "time": 24.649073924999986,
                        "value": 1
                    },
                    {
                        "number": 64,
                        "time": 25.225405799999987,
                        "value": 0
                    },
                    {
                        "number": 64,
                        "time": 25.293284887499986,
                        "value": 1
                    },
                    {
                        "number": 64,
                        "time": 25.819667999999986,
                        "value": 0
                    },
                    {
                        "number": 64,
                        "time": 25.870897499999987,
                        "value": 1
                    },
                    {
                        "number": 64,
                        "time": 26.146256062499987,
                        "value": 0
                    },
                    {
                        "number": 64,
                        "time": 26.178274499999986,
                        "value": 1
                    },
                    {
                        "number": 64,
                        "time": 26.454913799999986,
                        "value": 0
                    },
                    {
                        "number": 64,
                        "time": 26.522792887499985,
                        "value": 1
                    },
                    {
                        "number": 64,
                        "time": 26.755887112499984,
                        "value": 0
                    },
                    {
                        "number": 64,
                        "time": 26.818643249999983,
                        "value": 1
                    },
                    {
                        "number": 64,
                        "time": 27.04917599999998,
                        "value": 0
                    },
                    {
                        "number": 64,
                        "time": 27.100405499999983,
                        "value": 1
                    },
                    {
                        "number": 64,
                        "time": 27.375764062499982,
                        "value": 0
                    },
                    {
                        "number": 64,
                        "time": 27.407782499999982,
                        "value": 1
                    },
                    {
                        "number": 64,
                        "time": 27.68442179999998,
                        "value": 0
                    },
                    {
                        "number": 64,
                        "time": 27.75230088749998,
                        "value": 1
                    },
                    {
                        "number": 64,
                        "time": 27.98539511249998,
                        "value": 0
                    },
                    {
                        "number": 64,
                        "time": 28.04815124999998,
                        "value": 1
                    },
                    {
                        "number": 64,
                        "time": 28.278683999999977,
                        "value": 0
                    },
                    {
                        "number": 64,
                        "time": 28.323509812499978,
                        "value": 1
                    },
                    {
                        "number": 64,
                        "time": 28.875507674999977,
                        "value": 0
                    },
                    {
                        "number": 64,
                        "time": 28.922894962499978,
                        "value": 1
                    },
                    {
                        "number": 64,
                        "time": 29.21234163749998,
                        "value": 0
                    },
                    {
                        "number": 64,
                        "time": 29.24820228749998,
                        "value": 1
                    },
                    {
                        "number": 64,
                        "time": 29.517157162499977,
                        "value": 0
                    },
                    {
                        "number": 64,
                        "time": 29.553017812499977,
                        "value": 1
                    },
                    {
                        "number": 64,
                        "time": 29.821972687499976,
                        "value": 0
                    },
                    {
                        "number": 64,
                        "time": 29.860394812499976,
                        "value": 1
                    },
                    {
                        "number": 64,
                        "time": 30.138314849999976,
                        "value": 0
                    },
                    {
                        "number": 64,
                        "time": 30.195948037499974,
                        "value": 1
                    },
                    {
                        "number": 64,
                        "time": 30.448253324999975,
                        "value": 0
                    },
                    {
                        "number": 64,
                        "time": 30.514851674999974,
                        "value": 1
                    },
                    {
                        "number": 64,
                        "time": 30.741542212499976,
                        "value": 0
                    },
                    {
                        "number": 64,
                        "time": 30.810702037499976,
                        "value": 1
                    },
                    {
                        "number": 64,
                        "time": 31.055322899999975,
                        "value": 0
                    },
                    {
                        "number": 64,
                        "time": 31.228222462499975,
                        "value": 1
                    },
                    {
                        "number": 64,
                        "time": 31.370384324999975,
                        "value": 0
                    },
                    {
                        "number": 64,
                        "time": 31.433140462499974,
                        "value": 1
                    },
                    {
                        "number": 64,
                        "time": 31.677761324999974,
                        "value": 0
                    },
                    {
                        "number": 64,
                        "time": 31.846818674999973,
                        "value": 1
                    },
                    {
                        "number": 64,
                        "time": 31.976173162499972,
                        "value": 0
                    },
                    {
                        "number": 64,
                        "time": 32.040210037499975,
                        "value": 1
                    },
                    {
                        "number": 64,
                        "time": 32.28867311249997,
                        "value": 0
                    },
                    {
                        "number": 64,
                        "time": 32.46925709999997,
                        "value": 1
                    },
                    {
                        "number": 64,
                        "time": 32.601173062499974,
                        "value": 0
                    },
                    {
                        "number": 64,
                        "time": 32.65880624999998,
                        "value": 1
                    },
                    {
                        "number": 64,
                        "time": 32.895742687499975,
                        "value": 0
                    },
                    {
                        "number": 64,
                        "time": 33.055834874999974,
                        "value": 1
                    },
                    {
                        "number": 64,
                        "time": 33.20824263749997,
                        "value": 0
                    },
                    {
                        "number": 64,
                        "time": 33.25947213749997,
                        "value": 1
                    },
                    {
                        "number": 64,
                        "time": 33.52970774999997,
                        "value": 0
                    },
                    {
                        "number": 64,
                        "time": 33.67571182499997,
                        "value": 1
                    },
                    {
                        "number": 64,
                        "time": 33.82811958749997,
                        "value": 0
                    },
                    {
                        "number": 64,
                        "time": 33.88447203749997,
                        "value": 1
                    },
                    {
                        "number": 64,
                        "time": 34.132935112499965,
                        "value": 0
                    },
                    {
                        "number": 64,
                        "time": 34.28790434999996,
                        "value": 1
                    },
                    {
                        "number": 64,
                        "time": 34.44543506249996,
                        "value": 0
                    },
                    {
                        "number": 64,
                        "time": 34.47745349999996,
                        "value": 1
                    },
                    {
                        "number": 64,
                        "time": 34.74000468749996,
                        "value": 0
                    },
                    {
                        "number": 64,
                        "time": 34.80660303749996,
                        "value": 1
                    },
                    {
                        "number": 64,
                        "time": 35.65957421249996,
                        "value": 0
                    },
                    {
                        "number": 64,
                        "time": 35.72873403749996,
                        "value": 1
                    },
                    {
                        "number": 64,
                        "time": 36.288416324999965,
                        "value": 0
                    },
                    {
                        "number": 64,
                        "time": 36.35117246249997,
                        "value": 1
                    },
                    {
                        "number": 64,
                        "time": 36.894205162499965,
                        "value": 0
                    },
                    {
                        "number": 64,
                        "time": 36.958242037499964,
                        "value": 1
                    },
                    {
                        "number": 64,
                        "time": 37.519205062499964,
                        "value": 0
                    },
                    {
                        "number": 64,
                        "time": 37.576838249999966,
                        "value": 1
                    },
                    {
                        "number": 64,
                        "time": 38.12627463749997,
                        "value": 0
                    },
                    {
                        "number": 64,
                        "time": 38.177504137499966,
                        "value": 1
                    },
                    {
                        "number": 64,
                        "time": 38.746151587499966,
                        "value": 0
                    },
                    {
                        "number": 64,
                        "time": 38.802504037499965,
                        "value": 1
                    },
                    {
                        "number": 64,
                        "time": 39.363467062499964,
                        "value": 0
                    },
                    {
                        "number": 64,
                        "time": 39.395485499999964,
                        "value": 1
                    },
                    {
                        "number": 64,
                        "time": 39.658036687499965,
                        "value": 0
                    },
                    {
                        "number": 64,
                        "time": 39.724635037499965,
                        "value": 1
                    },
                    {
                        "number": 64,
                        "time": 39.96541368749997,
                        "value": 0
                    },
                    {
                        "number": 64,
                        "time": 40.03969646249997,
                        "value": 1
                    },
                    {
                        "number": 64,
                        "time": 40.31761649999997,
                        "value": 0
                    },
                    {
                        "number": 64,
                        "time": 40.388057062499975,
                        "value": 1
                    },
                    {
                        "number": 64,
                        "time": 40.90035206249998,
                        "value": 0
                    },
                    {
                        "number": 64,
                        "time": 40.932370499999976,
                        "value": 1
                    },
                    {
                        "number": 64,
                        "time": 41.209009799999976,
                        "value": 0
                    },
                    {
                        "number": 64,
                        "time": 41.27688888749998,
                        "value": 1
                    },
                    {
                        "number": 64,
                        "time": 41.50998311249998,
                        "value": 0
                    },
                    {
                        "number": 64,
                        "time": 41.572739249999984,
                        "value": 1
                    },
                    {
                        "number": 64,
                        "time": 41.803271999999986,
                        "value": 0
                    },
                    {
                        "number": 64,
                        "time": 41.854501499999984,
                        "value": 1
                    },
                    {
                        "number": 64,
                        "time": 42.129860062499986,
                        "value": 0
                    },
                    {
                        "number": 64,
                        "time": 42.161878499999986,
                        "value": 1
                    },
                    {
                        "number": 64,
                        "time": 42.438517799999985,
                        "value": 0
                    },
                    {
                        "number": 64,
                        "time": 42.50639688749999,
                        "value": 1
                    },
                    {
                        "number": 64,
                        "time": 42.73949111249999,
                        "value": 0
                    },
                    {
                        "number": 64,
                        "time": 42.80224724999999,
                        "value": 1
                    },
                    {
                        "number": 64,
                        "time": 43.037902949999996,
                        "value": 0
                    },
                    {
                        "number": 64,
                        "time": 43.091693924999994,
                        "value": 1
                    },
                    {
                        "number": 64,
                        "time": 43.668025799999995,
                        "value": 0
                    },
                    {
                        "number": 64,
                        "time": 43.7359048875,
                        "value": 1
                    },
                    {
                        "number": 64,
                        "time": 44.26741095,
                        "value": 0
                    },
                    {
                        "number": 64,
                        "time": 44.321201925,
                        "value": 1
                    },
                    {
                        "number": 64,
                        "time": 44.8975338,
                        "value": 0
                    },
                    {
                        "number": 64,
                        "time": 44.9654128875,
                        "value": 1
                    },
                    {
                        "number": 64,
                        "time": 45.491796,
                        "value": 0
                    },
                    {
                        "number": 64,
                        "time": 45.5430255,
                        "value": 1
                    },
                    {
                        "number": 64,
                        "time": 45.8183840625,
                        "value": 0
                    },
                    {
                        "number": 64,
                        "time": 45.8504025,
                        "value": 1
                    },
                    {
                        "number": 64,
                        "time": 46.1270418,
                        "value": 0
                    },
                    {
                        "number": 64,
                        "time": 46.194920887500004,
                        "value": 1
                    },
                    {
                        "number": 64,
                        "time": 46.428015112500006,
                        "value": 0
                    },
                    {
                        "number": 64,
                        "time": 46.49077125000001,
                        "value": 1
                    },
                    {
                        "number": 64,
                        "time": 46.72130400000001,
                        "value": 0
                    },
                    {
                        "number": 64,
                        "time": 46.77253350000001,
                        "value": 1
                    },
                    {
                        "number": 64,
                        "time": 47.04789206250001,
                        "value": 0
                    },
                    {
                        "number": 64,
                        "time": 47.07991050000001,
                        "value": 1
                    },
                    {
                        "number": 64,
                        "time": 47.35654980000001,
                        "value": 0
                    },
                    {
                        "number": 64,
                        "time": 47.424428887500014,
                        "value": 1
                    },
                    {
                        "number": 64,
                        "time": 47.657523112500016,
                        "value": 0
                    },
                    {
                        "number": 64,
                        "time": 47.72027925000002,
                        "value": 1
                    },
                    {
                        "number": 64,
                        "time": 47.95081200000002,
                        "value": 0
                    },
                    {
                        "number": 64,
                        "time": 47.99563781250002,
                        "value": 1
                    },
                    {
                        "number": 64,
                        "time": 48.54763567500002,
                        "value": 0
                    },
                    {
                        "number": 64,
                        "time": 48.595022962500025,
                        "value": 1
                    },
                    {
                        "number": 64,
                        "time": 48.884469637500025,
                        "value": 0
                    },
                    {
                        "number": 64,
                        "time": 48.92033028750002,
                        "value": 1
                    },
                    {
                        "number": 64,
                        "time": 49.18928516250002,
                        "value": 0
                    },
                    {
                        "number": 64,
                        "time": 49.22514581250002,
                        "value": 1
                    },
                    {
                        "number": 64,
                        "time": 49.494100687500016,
                        "value": 0
                    },
                    {
                        "number": 64,
                        "time": 49.53252281250001,
                        "value": 1
                    },
                    {
                        "number": 64,
                        "time": 49.810442850000015,
                        "value": 0
                    },
                    {
                        "number": 64,
                        "time": 49.86807603750002,
                        "value": 1
                    },
                    {
                        "number": 64,
                        "time": 50.12038132500002,
                        "value": 0
                    },
                    {
                        "number": 64,
                        "time": 50.18697967500002,
                        "value": 1
                    },
                    {
                        "number": 64,
                        "time": 50.413670212500016,
                        "value": 0
                    },
                    {
                        "number": 64,
                        "time": 50.482830037500015,
                        "value": 1
                    },
                    {
                        "number": 64,
                        "time": 50.727450900000015,
                        "value": 0
                    },
                    {
                        "number": 64,
                        "time": 50.900350462500015,
                        "value": 1
                    },
                    {
                        "number": 64,
                        "time": 51.04251232500001,
                        "value": 0
                    },
                    {
                        "number": 64,
                        "time": 51.105268462500014,
                        "value": 1
                    },
                    {
                        "number": 64,
                        "time": 51.349889325000014,
                        "value": 0
                    },
                    {
                        "number": 64,
                        "time": 51.51894667500002,
                        "value": 1
                    },
                    {
                        "number": 64,
                        "time": 51.64830116250002,
                        "value": 0
                    },
                    {
                        "number": 64,
                        "time": 51.71233803750002,
                        "value": 1
                    },
                    {
                        "number": 64,
                        "time": 51.960801112500015,
                        "value": 0
                    },
                    {
                        "number": 64,
                        "time": 52.141385100000015,
                        "value": 1
                    },
                    {
                        "number": 64,
                        "time": 52.27330106250002,
                        "value": 0
                    },
                    {
                        "number": 64,
                        "time": 52.33093425000002,
                        "value": 1
                    },
                    {
                        "number": 64,
                        "time": 52.56787068750002,
                        "value": 0
                    },
                    {
                        "number": 64,
                        "time": 52.72796287500002,
                        "value": 1
                    },
                    {
                        "number": 64,
                        "time": 52.880370637500015,
                        "value": 0
                    },
                    {
                        "number": 64,
                        "time": 52.93160013750001,
                        "value": 1
                    },
                    {
                        "number": 64,
                        "time": 53.201835750000015,
                        "value": 0
                    },
                    {
                        "number": 64,
                        "time": 53.347839825000015,
                        "value": 1
                    },
                    {
                        "number": 64,
                        "time": 53.50024758750001,
                        "value": 0
                    },
                    {
                        "number": 64,
                        "time": 53.55660003750001,
                        "value": 1
                    },
                    {
                        "number": 64,
                        "time": 53.80506311250001,
                        "value": 0
                    },
                    {
                        "number": 64,
                        "time": 53.960032350000006,
                        "value": 1
                    },
                    {
                        "number": 64,
                        "time": 54.117563062500004,
                        "value": 0
                    },
                    {
                        "number": 64,
                        "time": 54.149581500000004,
                        "value": 1
                    },
                    {
                        "number": 64,
                        "time": 54.412132687500005,
                        "value": 0
                    },
                    {
                        "number": 64,
                        "time": 54.478731037500005,
                        "value": 1
                    },
                    {
                        "number": 64,
                        "time": 55.331702212500005,
                        "value": 0
                    },
                    {
                        "number": 64,
                        "time": 55.400862037500005,
                        "value": 1
                    },
                    {
                        "number": 64,
                        "time": 55.96054432500001,
                        "value": 0
                    },
                    {
                        "number": 64,
                        "time": 56.02330046250001,
                        "value": 1
                    },
                    {
                        "number": 64,
                        "time": 56.56633316250001,
                        "value": 0
                    },
                    {
                        "number": 64,
                        "time": 56.63037003750001,
                        "value": 1
                    },
                    {
                        "number": 64,
                        "time": 57.19133306250001,
                        "value": 0
                    },
                    {
                        "number": 64,
                        "time": 57.24896625000001,
                        "value": 1
                    },
                    {
                        "number": 64,
                        "time": 57.79840263750001,
                        "value": 0
                    },
                    {
                        "number": 64,
                        "time": 57.84963213750001,
                        "value": 1
                    },
                    {
                        "number": 64,
                        "time": 58.41827958750001,
                        "value": 0
                    },
                    {
                        "number": 64,
                        "time": 58.47463203750001,
                        "value": 1
                    },
                    {
                        "number": 64,
                        "time": 59.03559506250001,
                        "value": 0
                    },
                    {
                        "number": 64,
                        "time": 59.06761350000001,
                        "value": 1
                    },
                    {
                        "number": 64,
                        "time": 59.33016468750001,
                        "value": 0
                    },
                    {
                        "number": 64,
                        "time": 59.39676303750001,
                        "value": 1
                    },
                    {
                        "number": 64,
                        "time": 59.63754168750001,
                        "value": 0
                    },
                    {
                        "number": 64,
                        "time": 59.71182446250001,
                        "value": 1
                    },
                    {
                        "number": 64,
                        "time": 59.85526706250001,
                        "value": 0
                    },
                    {
                        "number": 64,
                        "time": 60.29199855000001,
                        "value": 1
                    },
                    {
                        "number": 64,
                        "time": 60.87601485000001,
                        "value": 0
                    },
                    {
                        "number": 64,
                        "time": 60.96054352500001,
                        "value": 1
                    },
                    {
                        "number": 64,
                        "time": 61.475400000000015,
                        "value": 0
                    },
                    {
                        "number": 64,
                        "time": 61.52150655000001,
                        "value": 1
                    },
                    {
                        "number": 64,
                        "time": 62.105522850000014,
                        "value": 0
                    },
                    {
                        "number": 64,
                        "time": 62.190051525000015,
                        "value": 1
                    },
                    {
                        "number": 64,
                        "time": 62.70490800000002,
                        "value": 0
                    },
                    {
                        "number": 64,
                        "time": 62.751014550000015,
                        "value": 1
                    },
                    {
                        "number": 64,
                        "time": 63.33503085000002,
                        "value": 0
                    },
                    {
                        "number": 64,
                        "time": 63.41955952500002,
                        "value": 1
                    },
                    {
                        "number": 64,
                        "time": 63.93441600000002,
                        "value": 0
                    },
                    {
                        "number": 64,
                        "time": 63.98052255000002,
                        "value": 1
                    },
                    {
                        "number": 64,
                        "time": 64.56453885000002,
                        "value": 0
                    },
                    {
                        "number": 64,
                        "time": 64.64906752500002,
                        "value": 1
                    },
                    {
                        "number": 64,
                        "time": 65.16392400000002,
                        "value": 0
                    },
                    {
                        "number": 64,
                        "time": 65.21003055000003,
                        "value": 1
                    },
                    {
                        "number": 64,
                        "time": 65.79404685000003,
                        "value": 0
                    },
                    {
                        "number": 64,
                        "time": 65.87857552500003,
                        "value": 1
                    },
                    {
                        "number": 64,
                        "time": 66.39343200000003,
                        "value": 0
                    },
                    {
                        "number": 64,
                        "time": 66.43953855000004,
                        "value": 1
                    },
                    {
                        "number": 64,
                        "time": 67.02355485000004,
                        "value": 0
                    },
                    {
                        "number": 64,
                        "time": 67.10808352500004,
                        "value": 1
                    },
                    {
                        "number": 64,
                        "time": 67.62294000000004,
                        "value": 0
                    },
                    {
                        "number": 64,
                        "time": 67.66904655000005,
                        "value": 1
                    },
                    {
                        "number": 64,
                        "time": 68.25306285000005,
                        "value": 0
                    },
                    {
                        "number": 64,
                        "time": 68.33759152500005,
                        "value": 1
                    },
                    {
                        "number": 64,
                        "time": 68.85244800000005,
                        "value": 0
                    },
                    {
                        "number": 64,
                        "time": 68.89855455000006,
                        "value": 1
                    },
                    {
                        "number": 64,
                        "time": 69.48257085000006,
                        "value": 0
                    },
                    {
                        "number": 64,
                        "time": 69.56709952500006,
                        "value": 1
                    },
                    {
                        "number": 64,
                        "time": 70.08195600000006,
                        "value": 0
                    },
                    {
                        "number": 64,
                        "time": 70.19466090000006,
                        "value": 1
                    },
                    {
                        "number": 64,
                        "time": 70.71207885000005,
                        "value": 0
                    },
                    {
                        "number": 64,
                        "time": 70.79660752500006,
                        "value": 1
                    },
                    {
                        "number": 64,
                        "time": 71.31146400000006,
                        "value": 0
                    },
                    {
                        "number": 64,
                        "time": 71.35757055000006,
                        "value": 1
                    },
                    {
                        "number": 64,
                        "time": 71.94158685000006,
                        "value": 0
                    },
                    {
                        "number": 64,
                        "time": 72.02611552500007,
                        "value": 1
                    },
                    {
                        "number": 64,
                        "time": 72.54097200000007,
                        "value": 0
                    },
                    {
                        "number": 64,
                        "time": 72.58707855000007,
                        "value": 1
                    },
                    {
                        "number": 64,
                        "time": 73.17109485000007,
                        "value": 0
                    },
                    {
                        "number": 64,
                        "time": 73.25562352500008,
                        "value": 1
                    },
                    {
                        "number": 64,
                        "time": 73.77048000000008,
                        "value": 0
                    },
                    {
                        "number": 64,
                        "time": 73.81658655000008,
                        "value": 1
                    },
                    {
                        "number": 64,
                        "time": 74.40060285000008,
                        "value": 0
                    },
                    {
                        "number": 64,
                        "time": 74.48513152500009,
                        "value": 1
                    },
                    {
                        "number": 64,
                        "time": 74.99998800000009,
                        "value": 0
                    },
                    {
                        "number": 64,
                        "time": 75.04609455000009,
                        "value": 1
                    },
                    {
                        "number": 64,
                        "time": 75.6301108500001,
                        "value": 0
                    },
                    {
                        "number": 64,
                        "time": 75.7146395250001,
                        "value": 1
                    },
                    {
                        "number": 64,
                        "time": 76.2294960000001,
                        "value": 0
                    },
                    {
                        "number": 64,
                        "time": 76.2756025500001,
                        "value": 1
                    },
                    {
                        "number": 64,
                        "time": 76.8596188500001,
                        "value": 0
                    },
                    {
                        "number": 64,
                        "time": 76.9441475250001,
                        "value": 1
                    },
                    {
                        "number": 64,
                        "time": 77.4590040000001,
                        "value": 0
                    },
                    {
                        "number": 64,
                        "time": 77.50511055000011,
                        "value": 1
                    },
                    {
                        "number": 64,
                        "time": 78.08912685000011,
                        "value": 0
                    },
                    {
                        "number": 64,
                        "time": 78.17365552500011,
                        "value": 1
                    },
                    {
                        "number": 64,
                        "time": 78.68851200000012,
                        "value": 0
                    },
                    {
                        "number": 64,
                        "time": 78.73461855000012,
                        "value": 1
                    },
                    {
                        "number": 64,
                        "time": 79.31863485000012,
                        "value": 0
                    },
                    {
                        "number": 64,
                        "time": 79.40316352500012,
                        "value": 1
                    },
                    {
                        "number": 64,
                        "time": 79.96412655000013,
                        "value": 1
                    },
                    {
                        "number": 64,
                        "time": 80.54814285000013,
                        "value": 0
                    },
                    {
                        "number": 64,
                        "time": 80.63267152500013,
                        "value": 1
                    },
                    {
                        "number": 64,
                        "time": 81.14752800000014,
                        "value": 0
                    },
                    {
                        "number": 64,
                        "time": 81.19363455000014,
                        "value": 1
                    },
                    {
                        "number": 64,
                        "time": 81.77765085000014,
                        "value": 0
                    },
                    {
                        "number": 64,
                        "time": 81.86217952500014,
                        "value": 1
                    },
                    {
                        "number": 64,
                        "time": 82.37703600000015,
                        "value": 0
                    },
                    {
                        "number": 64,
                        "time": 82.42314255000015,
                        "value": 1
                    },
                    {
                        "number": 64,
                        "time": 83.00715885000015,
                        "value": 0
                    },
                    {
                        "number": 64,
                        "time": 83.09168752500015,
                        "value": 1
                    },
                    {
                        "number": 64,
                        "time": 83.60654400000016,
                        "value": 0
                    },
                    {
                        "number": 64,
                        "time": 83.65265055000016,
                        "value": 1
                    },
                    {
                        "number": 64,
                        "time": 84.23666685000016,
                        "value": 0
                    },
                    {
                        "number": 64,
                        "time": 84.32119552500016,
                        "value": 1
                    },
                    {
                        "number": 64,
                        "time": 84.83605200000017,
                        "value": 0
                    },
                    {
                        "number": 64,
                        "time": 84.88215855000017,
                        "value": 1
                    },
                    {
                        "number": 64,
                        "time": 85.46617485000017,
                        "value": 0
                    },
                    {
                        "number": 64,
                        "time": 85.55070352500017,
                        "value": 1
                    },
                    {
                        "number": 64,
                        "time": 86.06556000000018,
                        "value": 0
                    },
                    {
                        "number": 64,
                        "time": 86.11166655000018,
                        "value": 1
                    },
                    {
                        "number": 64,
                        "time": 86.69568285000018,
                        "value": 0
                    },
                    {
                        "number": 64,
                        "time": 86.78021152500018,
                        "value": 1
                    },
                    {
                        "number": 64,
                        "time": 87.29506800000019,
                        "value": 0
                    },
                    {
                        "number": 64,
                        "time": 87.34117455000019,
                        "value": 1
                    },
                    {
                        "number": 64,
                        "time": 87.92519085000019,
                        "value": 0
                    },
                    {
                        "number": 64,
                        "time": 88.0097195250002,
                        "value": 1
                    },
                    {
                        "number": 64,
                        "time": 88.5245760000002,
                        "value": 0
                    },
                    {
                        "number": 64,
                        "time": 88.5706825500002,
                        "value": 1
                    },
                    {
                        "number": 64,
                        "time": 89.1546988500002,
                        "value": 0
                    },
                    {
                        "number": 64,
                        "time": 89.2392275250002,
                        "value": 1
                    },
                    {
                        "number": 64,
                        "time": 89.7540840000002,
                        "value": 0
                    },
                    {
                        "number": 64,
                        "time": 89.80019055000021,
                        "value": 1
                    },
                    {
                        "number": 64,
                        "time": 90.38420685000021,
                        "value": 0
                    },
                    {
                        "number": 64,
                        "time": 90.46873552500021,
                        "value": 1
                    },
                    {
                        "number": 64,
                        "time": 90.98359200000021,
                        "value": 0
                    },
                    {
                        "number": 64,
                        "time": 91.02969855000022,
                        "value": 1
                    },
                    {
                        "number": 64,
                        "time": 91.61371485000022,
                        "value": 0
                    },
                    {
                        "number": 64,
                        "time": 91.69824352500022,
                        "value": 1
                    },
                    {
                        "number": 64,
                        "time": 92.21310000000022,
                        "value": 0
                    },
                    {
                        "number": 64,
                        "time": 92.25920655000023,
                        "value": 1
                    },
                    {
                        "number": 64,
                        "time": 92.84322285000023,
                        "value": 0
                    },
                    {
                        "number": 64,
                        "time": 92.92775152500023,
                        "value": 1
                    },
                    {
                        "number": 64,
                        "time": 93.44260800000023,
                        "value": 0
                    },
                    {
                        "number": 64,
                        "time": 93.48871455000024,
                        "value": 1
                    },
                    {
                        "number": 64,
                        "time": 94.07273085000024,
                        "value": 0
                    },
                    {
                        "number": 64,
                        "time": 94.15725952500024,
                        "value": 1
                    },
                    {
                        "number": 64,
                        "time": 94.67211600000024,
                        "value": 0
                    },
                    {
                        "number": 64,
                        "time": 94.71822255000025,
                        "value": 1
                    },
                    {
                        "number": 64,
                        "time": 95.30223885000025,
                        "value": 0
                    },
                    {
                        "number": 64,
                        "time": 95.38676752500025,
                        "value": 1
                    },
                    {
                        "number": 64,
                        "time": 95.90162400000025,
                        "value": 0
                    },
                    {
                        "number": 64,
                        "time": 95.94773055000026,
                        "value": 1
                    },
                    {
                        "number": 64,
                        "time": 96.53174685000026,
                        "value": 0
                    },
                    {
                        "number": 64,
                        "time": 96.61627552500026,
                        "value": 1
                    },
                    {
                        "number": 64,
                        "time": 97.13113200000026,
                        "value": 0
                    },
                    {
                        "number": 64,
                        "time": 97.17723855000027,
                        "value": 1
                    },
                    {
                        "number": 64,
                        "time": 97.76125485000027,
                        "value": 0
                    },
                    {
                        "number": 64,
                        "time": 97.84578352500027,
                        "value": 1
                    },
                    {
                        "number": 64,
                        "time": 98.36064000000027,
                        "value": 0
                    },
                    {
                        "number": 64,
                        "time": 98.40674655000028,
                        "value": 1
                    },
                    {
                        "number": 64,
                        "time": 98.99076285000028,
                        "value": 0
                    },
                    {
                        "number": 64,
                        "time": 99.07529152500028,
                        "value": 1
                    },
                    {
                        "number": 64,
                        "time": 99.59014800000028,
                        "value": 0
                    },
                    {
                        "number": 64,
                        "time": 99.63625455000029,
                        "value": 1
                    },
                    {
                        "number": 64,
                        "time": 100.22027085000029,
                        "value": 0
                    },
                    {
                        "number": 64,
                        "time": 100.30479952500029,
                        "value": 1
                    },
                    {
                        "number": 64,
                        "time": 100.8196560000003,
                        "value": 0
                    },
                    {
                        "number": 64,
                        "time": 100.8657625500003,
                        "value": 1
                    },
                    {
                        "number": 64,
                        "time": 101.4497788500003,
                        "value": 0
                    },
                    {
                        "number": 64,
                        "time": 101.5343075250003,
                        "value": 1
                    },
                    {
                        "number": 64,
                        "time": 102.0491640000003,
                        "value": 0
                    },
                    {
                        "number": 64,
                        "time": 102.09527055000031,
                        "value": 1
                    },
                    {
                        "number": 64,
                        "time": 102.67928685000031,
                        "value": 0
                    },
                    {
                        "number": 64,
                        "time": 102.76381552500031,
                        "value": 1
                    },
                    {
                        "number": 64,
                        "time": 103.27867200000031,
                        "value": 0
                    },
                    {
                        "number": 64,
                        "time": 103.32477855000032,
                        "value": 1
                    },
                    {
                        "number": 64,
                        "time": 103.90879485000032,
                        "value": 0
                    },
                    {
                        "number": 64,
                        "time": 103.99332352500032,
                        "value": 1
                    },
                    {
                        "number": 64,
                        "time": 104.50818000000032,
                        "value": 0
                    },
                    {
                        "number": 64,
                        "time": 104.55428655000033,
                        "value": 1
                    },
                    {
                        "number": 64,
                        "time": 105.13830285000033,
                        "value": 0
                    },
                    {
                        "number": 64,
                        "time": 105.22283152500033,
                        "value": 1
                    },
                    {
                        "number": 64,
                        "time": 105.73768800000033,
                        "value": 0
                    },
                    {
                        "number": 64,
                        "time": 105.78379455000034,
                        "value": 1
                    },
                    {
                        "number": 64,
                        "time": 106.36781085000034,
                        "value": 0
                    },
                    {
                        "number": 64,
                        "time": 106.45233952500034,
                        "value": 1
                    },
                    {
                        "number": 64,
                        "time": 106.96719600000034,
                        "value": 0
                    },
                    {
                        "number": 64,
                        "time": 107.01330255000035,
                        "value": 1
                    },
                    {
                        "number": 64,
                        "time": 107.59731885000035,
                        "value": 0
                    },
                    {
                        "number": 64,
                        "time": 107.68184752500035,
                        "value": 1
                    },
                    {
                        "number": 64,
                        "time": 108.19670400000035,
                        "value": 0
                    },
                    {
                        "number": 64,
                        "time": 108.24281055000036,
                        "value": 1
                    },
                    {
                        "number": 64,
                        "time": 108.82682685000036,
                        "value": 0
                    },
                    {
                        "number": 64,
                        "time": 108.91135552500036,
                        "value": 1
                    },
                    {
                        "number": 64,
                        "time": 109.42621200000036,
                        "value": 0
                    },
                    {
                        "number": 64,
                        "time": 109.47231855000037,
                        "value": 1
                    },
                    {
                        "number": 64,
                        "time": 110.05633485000037,
                        "value": 0
                    },
                    {
                        "number": 64,
                        "time": 110.14086352500037,
                        "value": 1
                    },
                    {
                        "number": 64,
                        "time": 110.65572000000037,
                        "value": 0
                    },
                    {
                        "number": 64,
                        "time": 110.70182655000038,
                        "value": 1
                    },
                    {
                        "number": 64,
                        "time": 111.28584285000038,
                        "value": 0
                    },
                    {
                        "number": 64,
                        "time": 111.37037152500038,
                        "value": 1
                    },
                    {
                        "number": 64,
                        "time": 111.88522800000038,
                        "value": 0
                    },
                    {
                        "number": 64,
                        "time": 111.93133455000039,
                        "value": 1
                    },
                    {
                        "number": 64,
                        "time": 112.51535085000039,
                        "value": 0
                    },
                    {
                        "number": 64,
                        "time": 112.59987952500039,
                        "value": 1
                    },
                    {
                        "number": 64,
                        "time": 113.11473600000039,
                        "value": 0
                    },
                    {
                        "number": 64,
                        "time": 113.1608425500004,
                        "value": 1
                    },
                    {
                        "number": 64,
                        "time": 113.7448588500004,
                        "value": 0
                    },
                    {
                        "number": 64,
                        "time": 113.8293875250004,
                        "value": 1
                    },
                    {
                        "number": 64,
                        "time": 114.3442440000004,
                        "value": 0
                    },
                    {
                        "number": 64,
                        "time": 114.3903505500004,
                        "value": 1
                    },
                    {
                        "number": 64,
                        "time": 114.97436685000041,
                        "value": 0
                    },
                    {
                        "number": 64,
                        "time": 115.05889552500041,
                        "value": 1
                    },
                    {
                        "number": 64,
                        "time": 115.57375200000041,
                        "value": 0
                    },
                    {
                        "number": 64,
                        "time": 115.61985855000042,
                        "value": 1
                    },
                    {
                        "number": 64,
                        "time": 116.20387485000042,
                        "value": 0
                    },
                    {
                        "number": 64,
                        "time": 116.28840352500042,
                        "value": 1
                    },
                    {
                        "number": 64,
                        "time": 116.80326000000042,
                        "value": 0
                    },
                    {
                        "number": 64,
                        "time": 116.84936655000043,
                        "value": 1
                    },
                    {
                        "number": 64,
                        "time": 117.43338285000043,
                        "value": 0
                    },
                    {
                        "number": 64,
                        "time": 117.51791152500043,
                        "value": 1
                    },
                    {
                        "number": 64,
                        "time": 118.03276800000043,
                        "value": 0
                    },
                    {
                        "number": 64,
                        "time": 118.07887455000044,
                        "value": 1
                    },
                    {
                        "number": 64,
                        "time": 118.66289085000044,
                        "value": 0
                    },
                    {
                        "number": 64,
                        "time": 118.74741952500044,
                        "value": 1
                    },
                    {
                        "number": 64,
                        "time": 119.26227600000044,
                        "value": 0
                    },
                    {
                        "number": 64,
                        "time": 119.33527803750044,
                        "value": 1
                    },
                    {
                        "number": 64,
                        "time": 119.57989890000044,
                        "value": 0
                    },
                    {
                        "number": 64,
                        "time": 119.75279846250045,
                        "value": 1
                    },
                    {
                        "number": 64,
                        "time": 119.87703000000045,
                        "value": 0
                    },
                    {
                        "number": 64,
                        "time": 119.95771646250044,
                        "value": 1
                    },
                    {
                        "number": 64,
                        "time": 120.20233732500044,
                        "value": 0
                    },
                    {
                        "number": 64,
                        "time": 120.37139467500045,
                        "value": 1
                    },
                    {
                        "number": 64,
                        "time": 120.50074916250044,
                        "value": 0
                    },
                    {
                        "number": 64,
                        "time": 120.56478603750044,
                        "value": 1
                    },
                    {
                        "number": 64,
                        "time": 120.81324911250044,
                        "value": 0
                    },
                    {
                        "number": 64,
                        "time": 120.99383310000044,
                        "value": 1
                    },
                    {
                        "number": 64,
                        "time": 121.12574906250045,
                        "value": 0
                    },
                    {
                        "number": 64,
                        "time": 121.18338225000045,
                        "value": 1
                    },
                    {
                        "number": 64,
                        "time": 121.42031868750045,
                        "value": 0
                    },
                    {
                        "number": 64,
                        "time": 121.58041087500045,
                        "value": 1
                    },
                    {
                        "number": 64,
                        "time": 121.73281863750046,
                        "value": 0
                    },
                    {
                        "number": 64,
                        "time": 121.78404813750046,
                        "value": 1
                    },
                    {
                        "number": 64,
                        "time": 122.05428375000047,
                        "value": 0
                    },
                    {
                        "number": 64,
                        "time": 122.20028782500046,
                        "value": 1
                    },
                    {
                        "number": 64,
                        "time": 122.35269558750046,
                        "value": 0
                    },
                    {
                        "number": 64,
                        "time": 122.40904803750047,
                        "value": 1
                    },
                    {
                        "number": 64,
                        "time": 122.65751111250047,
                        "value": 0
                    },
                    {
                        "number": 64,
                        "time": 122.81248035000047,
                        "value": 1
                    },
                    {
                        "number": 64,
                        "time": 122.97001106250048,
                        "value": 0
                    },
                    {
                        "number": 64,
                        "time": 123.00202950000048,
                        "value": 1
                    },
                    {
                        "number": 64,
                        "time": 123.26458068750047,
                        "value": 0
                    },
                    {
                        "number": 64,
                        "time": 123.33117903750048,
                        "value": 1
                    },
                    {
                        "number": 64,
                        "time": 124.18415021250047,
                        "value": 0
                    },
                    {
                        "number": 64,
                        "time": 124.25331003750047,
                        "value": 1
                    },
                    {
                        "number": 64,
                        "time": 124.49793090000047,
                        "value": 0
                    },
                    {
                        "number": 64,
                        "time": 124.67083046250048,
                        "value": 1
                    },
                    {
                        "number": 64,
                        "time": 124.81299232500048,
                        "value": 0
                    },
                    {
                        "number": 64,
                        "time": 124.87574846250048,
                        "value": 1
                    },
                    {
                        "number": 64,
                        "time": 125.12036932500048,
                        "value": 0
                    },
                    {
                        "number": 64,
                        "time": 125.28942667500048,
                        "value": 1
                    },
                    {
                        "number": 64,
                        "time": 125.41878116250048,
                        "value": 0
                    },
                    {
                        "number": 64,
                        "time": 125.48281803750048,
                        "value": 1
                    },
                    {
                        "number": 64,
                        "time": 125.73128111250048,
                        "value": 0
                    },
                    {
                        "number": 64,
                        "time": 125.91186510000048,
                        "value": 1
                    },
                    {
                        "number": 64,
                        "time": 126.04378106250049,
                        "value": 0
                    },
                    {
                        "number": 64,
                        "time": 126.10141425000049,
                        "value": 1
                    },
                    {
                        "number": 64,
                        "time": 126.3383506875005,
                        "value": 0
                    },
                    {
                        "number": 64,
                        "time": 126.49844287500049,
                        "value": 1
                    },
                    {
                        "number": 64,
                        "time": 126.6508506375005,
                        "value": 0
                    },
                    {
                        "number": 64,
                        "time": 126.7020801375005,
                        "value": 1
                    },
                    {
                        "number": 64,
                        "time": 126.9723157500005,
                        "value": 0
                    },
                    {
                        "number": 64,
                        "time": 127.1183198250005,
                        "value": 1
                    },
                    {
                        "number": 64,
                        "time": 127.2707275875005,
                        "value": 0
                    },
                    {
                        "number": 64,
                        "time": 127.32708003750051,
                        "value": 1
                    },
                    {
                        "number": 64,
                        "time": 127.57554311250051,
                        "value": 0
                    },
                    {
                        "number": 64,
                        "time": 127.73051235000051,
                        "value": 1
                    },
                    {
                        "number": 64,
                        "time": 127.88804306250051,
                        "value": 0
                    },
                    {
                        "number": 64,
                        "time": 127.92006150000051,
                        "value": 1
                    },
                    {
                        "number": 64,
                        "time": 128.18261268750052,
                        "value": 0
                    },
                    {
                        "number": 64,
                        "time": 128.24921103750052,
                        "value": 1
                    },
                    {
                        "number": 64,
                        "time": 128.48998968750053,
                        "value": 0
                    },
                    {
                        "number": 64,
                        "time": 128.56427246250053,
                        "value": 1
                    },
                    {
                        "number": 64,
                        "time": 128.84219250000052,
                        "value": 0
                    },
                    {
                        "number": 64,
                        "time": 128.91263306250053,
                        "value": 1
                    },
                    {
                        "number": 64,
                        "time": 129.42492806250053,
                        "value": 0
                    },
                    {
                        "number": 64,
                        "time": 129.45694650000053,
                        "value": 1
                    },
                    {
                        "number": 64,
                        "time": 129.73358580000053,
                        "value": 0
                    },
                    {
                        "number": 64,
                        "time": 129.80146488750052,
                        "value": 1
                    },
                    {
                        "number": 64,
                        "time": 130.03455911250052,
                        "value": 0
                    },
                    {
                        "number": 64,
                        "time": 130.09731525000052,
                        "value": 1
                    },
                    {
                        "number": 64,
                        "time": 130.32784800000053,
                        "value": 0
                    },
                    {
                        "number": 64,
                        "time": 130.37907750000053,
                        "value": 1
                    },
                    {
                        "number": 64,
                        "time": 130.65443606250054,
                        "value": 0
                    },
                    {
                        "number": 64,
                        "time": 130.68645450000054,
                        "value": 1
                    },
                    {
                        "number": 64,
                        "time": 130.96309380000054,
                        "value": 0
                    },
                    {
                        "number": 64,
                        "time": 131.03097288750052,
                        "value": 1
                    },
                    {
                        "number": 64,
                        "time": 131.26406711250053,
                        "value": 0
                    },
                    {
                        "number": 64,
                        "time": 131.32682325000053,
                        "value": 1
                    },
                    {
                        "number": 64,
                        "time": 131.56247895000052,
                        "value": 0
                    },
                    {
                        "number": 64,
                        "time": 131.61626992500052,
                        "value": 1
                    },
                    {
                        "number": 64,
                        "time": 132.19260180000052,
                        "value": 0
                    },
                    {
                        "number": 64,
                        "time": 132.2604808875005,
                        "value": 1
                    },
                    {
                        "number": 64,
                        "time": 132.7919869500005,
                        "value": 0
                    },
                    {
                        "number": 64,
                        "time": 132.8457779250005,
                        "value": 1
                    },
                    {
                        "number": 64,
                        "time": 133.4221098000005,
                        "value": 0
                    },
                    {
                        "number": 64,
                        "time": 133.4899888875005,
                        "value": 1
                    },
                    {
                        "number": 64,
                        "time": 134.0163720000005,
                        "value": 0
                    },
                    {
                        "number": 64,
                        "time": 134.0676015000005,
                        "value": 1
                    },
                    {
                        "number": 64,
                        "time": 134.3429600625005,
                        "value": 0
                    },
                    {
                        "number": 64,
                        "time": 134.3749785000005,
                        "value": 1
                    },
                    {
                        "number": 64,
                        "time": 134.6516178000005,
                        "value": 0
                    },
                    {
                        "number": 64,
                        "time": 134.7194968875005,
                        "value": 1
                    },
                    {
                        "number": 64,
                        "time": 134.9525911125005,
                        "value": 0
                    },
                    {
                        "number": 64,
                        "time": 135.0153472500005,
                        "value": 1
                    },
                    {
                        "number": 64,
                        "time": 135.2458800000005,
                        "value": 0
                    },
                    {
                        "number": 64,
                        "time": 135.29710950000052,
                        "value": 1
                    },
                    {
                        "number": 64,
                        "time": 135.57246806250052,
                        "value": 0
                    },
                    {
                        "number": 64,
                        "time": 135.60448650000052,
                        "value": 1
                    },
                    {
                        "number": 64,
                        "time": 135.88112580000052,
                        "value": 0
                    },
                    {
                        "number": 64,
                        "time": 135.9490048875005,
                        "value": 1
                    },
                    {
                        "number": 64,
                        "time": 136.1820991125005,
                        "value": 0
                    },
                    {
                        "number": 64,
                        "time": 136.2448552500005,
                        "value": 1
                    },
                    {
                        "number": 64,
                        "time": 136.47538800000052,
                        "value": 0
                    },
                    {
                        "number": 64,
                        "time": 136.52021381250051,
                        "value": 1
                    },
                    {
                        "number": 64,
                        "time": 137.07221167500052,
                        "value": 0
                    },
                    {
                        "number": 64,
                        "time": 137.1195989625005,
                        "value": 1
                    },
                    {
                        "number": 64,
                        "time": 137.4090456375005,
                        "value": 0
                    },
                    {
                        "number": 64,
                        "time": 137.4449062875005,
                        "value": 1
                    },
                    {
                        "number": 64,
                        "time": 137.71386116250048,
                        "value": 0
                    },
                    {
                        "number": 64,
                        "time": 137.74972181250047,
                        "value": 1
                    },
                    {
                        "number": 64,
                        "time": 138.01867668750046,
                        "value": 0
                    },
                    {
                        "number": 64,
                        "time": 138.05709881250047,
                        "value": 1
                    },
                    {
                        "number": 64,
                        "time": 138.33501885000047,
                        "value": 0
                    },
                    {
                        "number": 64,
                        "time": 138.39265203750045,
                        "value": 1
                    },
                    {
                        "number": 64,
                        "time": 138.64495732500046,
                        "value": 0
                    },
                    {
                        "number": 64,
                        "time": 138.71155567500045,
                        "value": 1
                    },
                    {
                        "number": 64,
                        "time": 138.93824621250045,
                        "value": 0
                    },
                    {
                        "number": 64,
                        "time": 139.00740603750046,
                        "value": 1
                    },
                    {
                        "number": 64,
                        "time": 139.25202690000046,
                        "value": 0
                    },
                    {
                        "number": 64,
                        "time": 139.42492646250045,
                        "value": 1
                    },
                    {
                        "number": 64,
                        "time": 139.56708832500044,
                        "value": 0
                    },
                    {
                        "number": 64,
                        "time": 139.62984446250044,
                        "value": 1
                    },
                    {
                        "number": 64,
                        "time": 139.87446532500044,
                        "value": 0
                    },
                    {
                        "number": 64,
                        "time": 140.04352267500045,
                        "value": 1
                    },
                    {
                        "number": 64,
                        "time": 140.17287716250044,
                        "value": 0
                    },
                    {
                        "number": 64,
                        "time": 140.23691403750044,
                        "value": 1
                    },
                    {
                        "number": 64,
                        "time": 140.48537711250043,
                        "value": 0
                    },
                    {
                        "number": 64,
                        "time": 140.66596110000043,
                        "value": 1
                    },
                    {
                        "number": 64,
                        "time": 140.79787706250042,
                        "value": 0
                    },
                    {
                        "number": 64,
                        "time": 140.8555102500004,
                        "value": 1
                    },
                    {
                        "number": 64,
                        "time": 141.0924466875004,
                        "value": 0
                    },
                    {
                        "number": 64,
                        "time": 141.2525388750004,
                        "value": 1
                    },
                    {
                        "number": 64,
                        "time": 141.4049466375004,
                        "value": 0
                    },
                    {
                        "number": 64,
                        "time": 141.4561761375004,
                        "value": 1
                    },
                    {
                        "number": 64,
                        "time": 141.72641175000038,
                        "value": 0
                    },
                    {
                        "number": 64,
                        "time": 141.8724158250004,
                        "value": 1
                    },
                    {
                        "number": 64,
                        "time": 142.02482358750038,
                        "value": 0
                    },
                    {
                        "number": 64,
                        "time": 142.08117603750037,
                        "value": 1
                    },
                    {
                        "number": 64,
                        "time": 142.32963911250036,
                        "value": 0
                    },
                    {
                        "number": 64,
                        "time": 142.48460835000037,
                        "value": 1
                    },
                    {
                        "number": 64,
                        "time": 142.64213906250038,
                        "value": 0
                    },
                    {
                        "number": 64,
                        "time": 142.67415750000038,
                        "value": 1
                    },
                    {
                        "number": 64,
                        "time": 142.93670868750038,
                        "value": 0
                    },
                    {
                        "number": 64,
                        "time": 143.00330703750038,
                        "value": 1
                    },
                    {
                        "number": 64,
                        "time": 143.85627821250037,
                        "value": 0
                    },
                    {
                        "number": 64,
                        "time": 143.92543803750038,
                        "value": 1
                    },
                    {
                        "number": 64,
                        "time": 144.4851203250004,
                        "value": 0
                    },
                    {
                        "number": 64,
                        "time": 144.5478764625004,
                        "value": 1
                    },
                    {
                        "number": 64,
                        "time": 145.0909091625004,
                        "value": 0
                    },
                    {
                        "number": 64,
                        "time": 145.1549460375004,
                        "value": 1
                    },
                    {
                        "number": 64,
                        "time": 145.7159090625004,
                        "value": 0
                    },
                    {
                        "number": 64,
                        "time": 145.7735422500004,
                        "value": 1
                    },
                    {
                        "number": 64,
                        "time": 146.3229786375004,
                        "value": 0
                    },
                    {
                        "number": 64,
                        "time": 146.3742081375004,
                        "value": 1
                    },
                    {
                        "number": 64,
                        "time": 146.9428555875004,
                        "value": 0
                    },
                    {
                        "number": 64,
                        "time": 146.99920803750038,
                        "value": 1
                    },
                    {
                        "number": 64,
                        "time": 147.5601710625004,
                        "value": 0
                    },
                    {
                        "number": 64,
                        "time": 147.5921895000004,
                        "value": 1
                    },
                    {
                        "number": 64,
                        "time": 147.8547406875004,
                        "value": 0
                    },
                    {
                        "number": 64,
                        "time": 147.9213390375004,
                        "value": 1
                    },
                    {
                        "number": 64,
                        "time": 148.1621176875004,
                        "value": 0
                    },
                    {
                        "number": 64,
                        "time": 148.2364004625004,
                        "value": 1
                    },
                    {
                        "number": 64,
                        "time": 148.4157037125004,
                        "value": 0
                    }
                ]
            },
            "id": 3,
            "name": "Pedale",
            "instrumentNumber": 0,
            "instrument": "acoustic grand piano",
            "instrumentFamily": "piano",
            "channelNumber": 0,
            "isPercussion": false
        },
        {
            "startTime": 0,
            "duration": 0,
            "length": 0,
            "notes": [],
            "controlChanges": {},
            "id": 4,
            "name": "Schumann: Kreisleriana 1"
        },
        {
            "startTime": 0,
            "duration": 0,
            "length": 0,
            "notes": [],
            "controlChanges": {},
            "id": 5,
            "name": "Copyright  2007 by Bernd Krueger"
        },
        {
            "startTime": 0,
            "duration": 0,
            "length": 0,
            "notes": [],
            "controlChanges": {},
            "id": 6,
            "name": "http://www.piano-midi.de/"
        },
        {
            "startTime": 0,
            "duration": 0,
            "length": 0,
            "notes": [],
            "controlChanges": {},
            "id": 7,
            "name": "Edition: 2014-03-27"
        },
        {
            "startTime": 0,
            "duration": 0,
            "length": 0,
            "notes": [],
            "controlChanges": {},
            "id": 8,
            "name": "Spur 8"
        },
        {
            "startTime": 0,
            "duration": 0,
            "length": 0,
            "notes": [],
            "controlChanges": {},
            "id": 9,
            "name": "Spur 9"
        },
        {
            "startTime": 0,
            "duration": 0,
            "length": 0,
            "notes": [],
            "controlChanges": {},
            "id": 10,
            "name": "Spur 10"
        },
        {
            "startTime": 0,
            "duration": 0,
            "length": 0,
            "notes": [],
            "controlChanges": {},
            "id": 11,
            "name": "Spur 11"
        },
        {
            "startTime": 0,
            "duration": 0,
            "length": 0,
            "notes": [],
            "controlChanges": {},
            "id": 12,
            "name": "Spur 12"
        },
        {
            "startTime": 0,
            "duration": 0,
            "length": 0,
            "notes": [],
            "controlChanges": {},
            "id": 13,
            "name": "Spur 13"
        },
        {
            "startTime": 0,
            "duration": 0,
            "length": 0,
            "notes": [],
            "controlChanges": {},
            "id": 14,
            "name": "Spur 14"
        },
        {
            "startTime": 0,
            "duration": 0,
            "length": 0,
            "notes": [],
            "controlChanges": {},
            "id": 15,
            "name": "Spur 15"
        },
        {
            "startTime": 0,
            "duration": 0,
            "length": 0,
            "notes": [],
            "controlChanges": {},
            "id": 16,
            "name": "Spur 16"
        }
    ]
}