{
    "header": {
      "PPQ": 480,
      "timeSignature": [
        6,
        8
      ],
      "bpm": 89.9999550000225,
      "name": "stravinsky firebird part 03"
    },
    "startTime": 0,
    "duration": 96.66671499999966,
    "tracks": [
      {
        "startTime": 0,
        "duration": 0,
        "length": 0,
        "notes": [],
        "controlChanges": {},
        "id": 0,
        "name": "stravinsky firebird part 03"
      },
      {
        "startTime": 0,
        "duration": 95.00004749999977,
        "length": 596,
        "notes": [
          {
            "name": "F5",
            "midi": 77,
            "time": 0,
            "velocity": 0.4881889763779528,
            "duration": 0.083333375
          },
          {
            "name": "F#5",
            "midi": 78,
            "time": 0.083333375,
            "velocity": 0.4881889763779528,
            "duration": 0.083333375
          },
          {
            "name": "F5",
            "midi": 77,
            "time": 0.16666675,
            "velocity": 0.4881889763779528,
            "duration": 0.08333337500000002
          },
          {
            "name": "F#5",
            "midi": 78,
            "time": 0.250000125,
            "velocity": 0.4881889763779528,
            "duration": 0.08333337499999999
          },
          {
            "name": "F5",
            "midi": 77,
            "time": 0.3333335,
            "velocity": 0.4881889763779528,
            "duration": 0.08333337499999999
          },
          {
            "name": "F#5",
            "midi": 78,
            "time": 0.416666875,
            "velocity": 0.4881889763779528,
            "duration": 0.08333337500000004
          },
          {
            "name": "F5",
            "midi": 77,
            "time": 0.50000025,
            "velocity": 0.4881889763779528,
            "duration": 0.08333337500000004
          },
          {
            "name": "F#5",
            "midi": 78,
            "time": 0.5833336250000001,
            "velocity": 0.4881889763779528,
            "duration": 0.08333337500000004
          },
          {
            "name": "G5",
            "midi": 79,
            "time": 0.6666670000000001,
            "velocity": 0.4881889763779528,
            "duration": 0.08333337500000004
          },
          {
            "name": "G#5",
            "midi": 80,
            "time": 0.7500003750000002,
            "velocity": 0.4881889763779528,
            "duration": 0.08333337500000004
          },
          {
            "name": "A5",
            "midi": 81,
            "time": 0.8333337500000002,
            "velocity": 0.4881889763779528,
            "duration": 0.08333337500000004
          },
          {
            "name": "A#5",
            "midi": 82,
            "time": 0.9166671250000002,
            "velocity": 0.4881889763779528,
            "duration": 0.08333337500000004
          },
          {
            "name": "B5",
            "midi": 83,
            "time": 1.3333340000000002,
            "velocity": 0.4881889763779528,
            "duration": 0.11111116666666665
          },
          {
            "name": "D#5",
            "midi": 75,
            "time": 1.444445166666667,
            "velocity": 0.4881889763779528,
            "duration": 0.10972227708333326
          },
          {
            "name": "B5",
            "midi": 83,
            "time": 1.5541674437500002,
            "velocity": 0.4881889763779528,
            "duration": 0.11250005625000004
          },
          {
            "name": "D#6",
            "midi": 87,
            "time": 1.6666675000000002,
            "velocity": 0.4881889763779528,
            "duration": 0.11111116666666665
          },
          {
            "name": "B6",
            "midi": 95,
            "time": 1.7777786666666668,
            "velocity": 0.4881889763779528,
            "duration": 0.10972227708333326
          },
          {
            "name": "D#7",
            "midi": 99,
            "time": 1.88750094375,
            "velocity": 0.4881889763779528,
            "duration": 0.11250005625000004
          },
          {
            "name": "A#5",
            "midi": 82,
            "time": 2.3333345000000003,
            "velocity": 0.4881889763779528,
            "duration": 0.11111116666666687
          },
          {
            "name": "D#5",
            "midi": 75,
            "time": 2.444445666666667,
            "velocity": 0.4881889763779528,
            "duration": 0.10972227708333326
          },
          {
            "name": "A#5",
            "midi": 82,
            "time": 2.5541679437500004,
            "velocity": 0.4881889763779528,
            "duration": 0.11250005625000004
          },
          {
            "name": "D#6",
            "midi": 87,
            "time": 2.6666680000000005,
            "velocity": 0.4881889763779528,
            "duration": 0.11111116666666687
          },
          {
            "name": "A#6",
            "midi": 94,
            "time": 2.7777791666666674,
            "velocity": 0.4881889763779528,
            "duration": 0.10972227708333326
          },
          {
            "name": "D#7",
            "midi": 99,
            "time": 2.8875014437500006,
            "velocity": 0.4881889763779528,
            "duration": 0.11250005625000004
          },
          {
            "name": "G#6",
            "midi": 92,
            "time": 3.0000015000000007,
            "velocity": 0.4881889763779528,
            "duration": 0.16666675000000009
          },
          {
            "name": "G#5",
            "midi": 80,
            "time": 3.1666682500000007,
            "velocity": 0.4881889763779528,
            "duration": 0.16666675000000009
          },
          {
            "name": "A5",
            "midi": 81,
            "time": 3.333335000000001,
            "velocity": 0.4881889763779528,
            "duration": 0.11111116666666687
          },
          {
            "name": "A#5",
            "midi": 82,
            "time": 3.4444461666666677,
            "velocity": 0.4881889763779528,
            "duration": 0.10972227708333326
          },
          {
            "name": "B5",
            "midi": 83,
            "time": 3.554168443750001,
            "velocity": 0.4881889763779528,
            "duration": 0.11250005625000004
          },
          {
            "name": "C6",
            "midi": 84,
            "time": 3.666668500000001,
            "velocity": 0.4881889763779528,
            "duration": 0.11111116666666687
          },
          {
            "name": "C#6",
            "midi": 85,
            "time": 3.777779666666668,
            "velocity": 0.4881889763779528,
            "duration": 0.10972227708333326
          },
          {
            "name": "D6",
            "midi": 86,
            "time": 3.887501943750001,
            "velocity": 0.4881889763779528,
            "duration": 0.11250005625000004
          },
          {
            "name": "D#6",
            "midi": 87,
            "time": 4.000002000000001,
            "velocity": 0.4881889763779528,
            "duration": 0.11111116666666643
          },
          {
            "name": "A6",
            "midi": 93,
            "time": 4.111113166666668,
            "velocity": 0.4881889763779528,
            "duration": 0.10972227708333371
          },
          {
            "name": "F6",
            "midi": 89,
            "time": 4.220835443750001,
            "velocity": 0.4881889763779528,
            "duration": 0.11250005625000004
          },
          {
            "name": "D6",
            "midi": 86,
            "time": 4.333335500000001,
            "velocity": 0.4881889763779528,
            "duration": 0.11111116666666643
          },
          {
            "name": "A6",
            "midi": 93,
            "time": 4.444446666666668,
            "velocity": 0.4881889763779528,
            "duration": 0.10972227708333371
          },
          {
            "name": "F6",
            "midi": 89,
            "time": 4.5541689437500015,
            "velocity": 0.4881889763779528,
            "duration": 0.11250005625000004
          },
          {
            "name": "F5",
            "midi": 77,
            "time": 4.6666690000000015,
            "velocity": 0.4881889763779528,
            "duration": 0.0833333749999996
          },
          {
            "name": "C#6",
            "midi": 85,
            "time": 4.6666690000000015,
            "velocity": 0.4881889763779528,
            "duration": 0.0833333749999996
          },
          {
            "name": "F#5",
            "midi": 78,
            "time": 4.750002375000001,
            "velocity": 0.4881889763779528,
            "duration": 0.0833333749999996
          },
          {
            "name": "G5",
            "midi": 79,
            "time": 4.833335750000001,
            "velocity": 0.4881889763779528,
            "duration": 0.0833333749999996
          },
          {
            "name": "G#5",
            "midi": 80,
            "time": 4.916669125,
            "velocity": 0.4881889763779528,
            "duration": 0.0833333749999996
          },
          {
            "name": "A5",
            "midi": 81,
            "time": 5.0000025,
            "velocity": 0.4881889763779528,
            "duration": 0.0833333749999996
          },
          {
            "name": "B5",
            "midi": 83,
            "time": 5.0833358749999995,
            "velocity": 0.4881889763779528,
            "duration": 0.0833333749999996
          },
          {
            "name": "A5",
            "midi": 81,
            "time": 5.166669249999999,
            "velocity": 0.4881889763779528,
            "duration": 0.0833333749999996
          },
          {
            "name": "B5",
            "midi": 83,
            "time": 5.250002624999999,
            "velocity": 0.4881889763779528,
            "duration": 0.0833333749999996
          },
          {
            "name": "A5",
            "midi": 81,
            "time": 5.333335999999998,
            "velocity": 0.4881889763779528,
            "duration": 0.0833333749999996
          },
          {
            "name": "B5",
            "midi": 83,
            "time": 5.416669374999998,
            "velocity": 0.4881889763779528,
            "duration": 0.0833333749999996
          },
          {
            "name": "A5",
            "midi": 81,
            "time": 5.5000027499999975,
            "velocity": 0.4881889763779528,
            "duration": 0.0833333749999996
          },
          {
            "name": "B5",
            "midi": 83,
            "time": 5.583336124999997,
            "velocity": 0.4881889763779528,
            "duration": 0.0833333749999996
          },
          {
            "name": "A5",
            "midi": 81,
            "time": 5.666669499999997,
            "velocity": 0.4881889763779528,
            "duration": 0.0833333749999996
          },
          {
            "name": "B5",
            "midi": 83,
            "time": 5.750002874999996,
            "velocity": 0.4881889763779528,
            "duration": 0.0833333749999996
          },
          {
            "name": "D6",
            "midi": 86,
            "time": 5.833336249999996,
            "velocity": 0.4881889763779528,
            "duration": 0.0833333749999996
          },
          {
            "name": "F6",
            "midi": 89,
            "time": 5.9166696249999955,
            "velocity": 0.4881889763779528,
            "duration": 0.0833333749999996
          },
          {
            "name": "A6",
            "midi": 93,
            "time": 6.000002999999995,
            "velocity": 0.4881889763779528,
            "duration": 0.33333350000000017
          },
          {
            "name": "A5",
            "midi": 81,
            "time": 6.333336499999995,
            "velocity": 0.4881889763779528,
            "duration": 0.0833333749999996
          },
          {
            "name": "C6",
            "midi": 84,
            "time": 6.416669874999995,
            "velocity": 0.4881889763779528,
            "duration": 0.0833333749999996
          },
          {
            "name": "D#6",
            "midi": 87,
            "time": 6.5000032499999945,
            "velocity": 0.4881889763779528,
            "duration": 0.0833333749999996
          },
          {
            "name": "F6",
            "midi": 89,
            "time": 6.583336624999994,
            "velocity": 0.4881889763779528,
            "duration": 0.0833333749999996
          },
          {
            "name": "A6",
            "midi": 93,
            "time": 6.666669999999994,
            "velocity": 0.4881889763779528,
            "duration": 0.33333350000000017
          },
          {
            "name": "G#5",
            "midi": 80,
            "time": 8.000003999999993,
            "velocity": 0.4881889763779528,
            "duration": 0.08333337500000049
          },
          {
            "name": "A5",
            "midi": 81,
            "time": 8.083337374999994,
            "velocity": 0.4881889763779528,
            "duration": 0.08333337500000049
          },
          {
            "name": "G#5",
            "midi": 80,
            "time": 8.166670749999994,
            "velocity": 0.4881889763779528,
            "duration": 0.08333337500000049
          },
          {
            "name": "A5",
            "midi": 81,
            "time": 8.250004124999995,
            "velocity": 0.4881889763779528,
            "duration": 0.08333337500000049
          },
          {
            "name": "G#5",
            "midi": 80,
            "time": 8.333337499999995,
            "velocity": 0.4881889763779528,
            "duration": 0.08333337500000049
          },
          {
            "name": "A5",
            "midi": 81,
            "time": 8.416670874999996,
            "velocity": 0.4881889763779528,
            "duration": 0.08333337500000049
          },
          {
            "name": "G#5",
            "midi": 80,
            "time": 8.500004249999996,
            "velocity": 0.4881889763779528,
            "duration": 0.08333337500000049
          },
          {
            "name": "A5",
            "midi": 81,
            "time": 8.583337624999997,
            "velocity": 0.4881889763779528,
            "duration": 0.08333337500000049
          },
          {
            "name": "A#5",
            "midi": 82,
            "time": 8.666670999999997,
            "velocity": 0.4881889763779528,
            "duration": 0.08333337500000049
          },
          {
            "name": "B5",
            "midi": 83,
            "time": 8.750004374999998,
            "velocity": 0.4881889763779528,
            "duration": 0.08333337500000049
          },
          {
            "name": "C6",
            "midi": 84,
            "time": 8.833337749999998,
            "velocity": 0.4881889763779528,
            "duration": 0.08333337500000049
          },
          {
            "name": "C#6",
            "midi": 85,
            "time": 8.916671124999999,
            "velocity": 0.4881889763779528,
            "duration": 0.08333337500000049
          },
          {
            "name": "D6",
            "midi": 86,
            "time": 9.333338,
            "velocity": 0.4881889763779528,
            "duration": 0.11111116666666732
          },
          {
            "name": "F#5",
            "midi": 78,
            "time": 9.444449166666667,
            "velocity": 0.4881889763779528,
            "duration": 0.10972227708333371
          },
          {
            "name": "D6",
            "midi": 86,
            "time": 9.55417144375,
            "velocity": 0.4881889763779528,
            "duration": 0.11250005624999915
          },
          {
            "name": "F#6",
            "midi": 90,
            "time": 9.6666715,
            "velocity": 0.4881889763779528,
            "duration": 0.11111116666666732
          },
          {
            "name": "D7",
            "midi": 98,
            "time": 9.777782666666667,
            "velocity": 0.4881889763779528,
            "duration": 0.10972227708333371
          },
          {
            "name": "F#7",
            "midi": 102,
            "time": 9.88750494375,
            "velocity": 0.4881889763779528,
            "duration": 0.11250005624999915
          },
          {
            "name": "C#6",
            "midi": 85,
            "time": 10.3333385,
            "velocity": 0.4881889763779528,
            "duration": 0.11111116666666732
          },
          {
            "name": "F#5",
            "midi": 78,
            "time": 10.444449666666667,
            "velocity": 0.4881889763779528,
            "duration": 0.10972227708333371
          },
          {
            "name": "C#6",
            "midi": 85,
            "time": 10.554171943750001,
            "velocity": 0.4881889763779528,
            "duration": 0.11250005624999915
          },
          {
            "name": "F#6",
            "midi": 90,
            "time": 10.666672,
            "velocity": 0.4881889763779528,
            "duration": 0.11111116666666732
          },
          {
            "name": "C#7",
            "midi": 97,
            "time": 10.777783166666667,
            "velocity": 0.4881889763779528,
            "duration": 0.10972227708333371
          },
          {
            "name": "F#7",
            "midi": 102,
            "time": 10.887505443750001,
            "velocity": 0.4881889763779528,
            "duration": 0.11250005624999915
          },
          {
            "name": "B6",
            "midi": 95,
            "time": 11.0000055,
            "velocity": 0.4881889763779528,
            "duration": 0.1666667499999992
          },
          {
            "name": "B5",
            "midi": 83,
            "time": 11.16667225,
            "velocity": 0.4881889763779528,
            "duration": 0.1666667499999992
          },
          {
            "name": "C6",
            "midi": 84,
            "time": 11.333338999999999,
            "velocity": 0.4881889763779528,
            "duration": 0.11111116666666732
          },
          {
            "name": "C#6",
            "midi": 85,
            "time": 11.444450166666666,
            "velocity": 0.4881889763779528,
            "duration": 0.10972227708333371
          },
          {
            "name": "D6",
            "midi": 86,
            "time": 11.55417244375,
            "velocity": 0.4881889763779528,
            "duration": 0.11250005624999915
          },
          {
            "name": "D#6",
            "midi": 87,
            "time": 11.666672499999999,
            "velocity": 0.4881889763779528,
            "duration": 0.11111116666666732
          },
          {
            "name": "E6",
            "midi": 88,
            "time": 11.777783666666666,
            "velocity": 0.4881889763779528,
            "duration": 0.10972227708333371
          },
          {
            "name": "F6",
            "midi": 89,
            "time": 11.88750594375,
            "velocity": 0.4881889763779528,
            "duration": 0.11250005624999915
          },
          {
            "name": "F#6",
            "midi": 90,
            "time": 12.000005999999999,
            "velocity": 0.4881889763779528,
            "duration": 0.11111116666666732
          },
          {
            "name": "C7",
            "midi": 96,
            "time": 12.111117166666666,
            "velocity": 0.4881889763779528,
            "duration": 0.10972227708333371
          },
          {
            "name": "G#6",
            "midi": 92,
            "time": 12.22083944375,
            "velocity": 0.4881889763779528,
            "duration": 0.11250005624999915
          },
          {
            "name": "F6",
            "midi": 89,
            "time": 12.3333395,
            "velocity": 0.4881889763779528,
            "duration": 0.11111116666666732
          },
          {
            "name": "C7",
            "midi": 96,
            "time": 12.444450666666667,
            "velocity": 0.4881889763779528,
            "duration": 0.10972227708333371
          },
          {
            "name": "G#6",
            "midi": 92,
            "time": 12.55417294375,
            "velocity": 0.4881889763779528,
            "duration": 0.11250005624999915
          },
          {
            "name": "G#5",
            "midi": 80,
            "time": 12.666673,
            "velocity": 0.4881889763779528,
            "duration": 0.08333337500000049
          },
          {
            "name": "E6",
            "midi": 88,
            "time": 12.666673,
            "velocity": 0.4881889763779528,
            "duration": 0.08333337500000049
          },
          {
            "name": "A5",
            "midi": 81,
            "time": 12.750006375,
            "velocity": 0.4881889763779528,
            "duration": 0.08333337500000049
          },
          {
            "name": "A#5",
            "midi": 82,
            "time": 12.83333975,
            "velocity": 0.4881889763779528,
            "duration": 0.08333337500000049
          },
          {
            "name": "B5",
            "midi": 83,
            "time": 12.916673125,
            "velocity": 0.4881889763779528,
            "duration": 0.08333337500000049
          },
          {
            "name": "C6",
            "midi": 84,
            "time": 13.000006500000001,
            "velocity": 0.4881889763779528,
            "duration": 0.08333337500000049
          },
          {
            "name": "D6",
            "midi": 86,
            "time": 13.083339875000002,
            "velocity": 0.4881889763779528,
            "duration": 0.08333337500000049
          },
          {
            "name": "C6",
            "midi": 84,
            "time": 13.166673250000002,
            "velocity": 0.4881889763779528,
            "duration": 0.08333337500000049
          },
          {
            "name": "D6",
            "midi": 86,
            "time": 13.250006625000003,
            "velocity": 0.4881889763779528,
            "duration": 0.08333337500000049
          },
          {
            "name": "C6",
            "midi": 84,
            "time": 13.333340000000003,
            "velocity": 0.4881889763779528,
            "duration": 0.08333337500000049
          },
          {
            "name": "D6",
            "midi": 86,
            "time": 13.416673375000004,
            "velocity": 0.4881889763779528,
            "duration": 0.08333337500000049
          },
          {
            "name": "C6",
            "midi": 84,
            "time": 13.500006750000004,
            "velocity": 0.4881889763779528,
            "duration": 0.08333337500000049
          },
          {
            "name": "D6",
            "midi": 86,
            "time": 13.583340125000005,
            "velocity": 0.4881889763779528,
            "duration": 0.08333337500000049
          },
          {
            "name": "C6",
            "midi": 84,
            "time": 13.666673500000005,
            "velocity": 0.4881889763779528,
            "duration": 0.08333337500000049
          },
          {
            "name": "D6",
            "midi": 86,
            "time": 13.750006875000006,
            "velocity": 0.4881889763779528,
            "duration": 0.08333337500000049
          },
          {
            "name": "F6",
            "midi": 89,
            "time": 13.833340250000006,
            "velocity": 0.4881889763779528,
            "duration": 0.08333337500000049
          },
          {
            "name": "G#6",
            "midi": 92,
            "time": 13.916673625000007,
            "velocity": 0.4881889763779528,
            "duration": 0.08333337500000049
          },
          {
            "name": "C7",
            "midi": 96,
            "time": 14.000007000000007,
            "velocity": 0.4881889763779528,
            "duration": 0.33333350000000017
          },
          {
            "name": "C6",
            "midi": 84,
            "time": 14.333340500000007,
            "velocity": 0.4881889763779528,
            "duration": 0.08333337500000049
          },
          {
            "name": "D6",
            "midi": 86,
            "time": 14.416673875000008,
            "velocity": 0.4881889763779528,
            "duration": 0.08333337500000049
          },
          {
            "name": "F#6",
            "midi": 90,
            "time": 14.500007250000008,
            "velocity": 0.4881889763779528,
            "duration": 0.08333337500000049
          },
          {
            "name": "G#6",
            "midi": 92,
            "time": 14.583340625000009,
            "velocity": 0.4881889763779528,
            "duration": 0.08333337500000049
          },
          {
            "name": "C7",
            "midi": 96,
            "time": 14.66667400000001,
            "velocity": 0.4881889763779528,
            "duration": 0.33333350000000017
          },
          {
            "name": "D#6",
            "midi": 87,
            "time": 17.00000850000001,
            "velocity": 0.4881889763779528,
            "duration": 0.02083334374999879
          },
          {
            "name": "A#5",
            "midi": 82,
            "time": 17.111119666666674,
            "velocity": 0.4881889763779528,
            "duration": 0.022222233333334174
          },
          {
            "name": "F#5",
            "midi": 78,
            "time": 17.22084194375001,
            "velocity": 0.4881889763779528,
            "duration": 0.022222233333334174
          },
          {
            "name": "D5",
            "midi": 74,
            "time": 17.33334200000001,
            "velocity": 0.4881889763779528,
            "duration": 0.06527781041666714
          },
          {
            "name": "C#5",
            "midi": 73,
            "time": 19.000009500000008,
            "velocity": 0.4881889763779528,
            "duration": 0.11111116666666732
          },
          {
            "name": "A5",
            "midi": 81,
            "time": 19.000009500000008,
            "velocity": 0.4881889763779528,
            "duration": 0.11111116666666732
          },
          {
            "name": "C5",
            "midi": 72,
            "time": 19.111120666666675,
            "velocity": 0.4881889763779528,
            "duration": 0.10972227708333193
          },
          {
            "name": "G#5",
            "midi": 80,
            "time": 19.111120666666675,
            "velocity": 0.4881889763779528,
            "duration": 0.10972227708333193
          },
          {
            "name": "B4",
            "midi": 71,
            "time": 19.220842943750007,
            "velocity": 0.4881889763779528,
            "duration": 0.11250005624999915
          },
          {
            "name": "G5",
            "midi": 79,
            "time": 19.220842943750007,
            "velocity": 0.4881889763779528,
            "duration": 0.11250005624999915
          },
          {
            "name": "G4",
            "midi": 67,
            "time": 19.333343000000006,
            "velocity": 0.4881889763779528,
            "duration": 0.11111116666666732
          },
          {
            "name": "D#5",
            "midi": 75,
            "time": 19.333343000000006,
            "velocity": 0.4881889763779528,
            "duration": 0.11111116666666732
          },
          {
            "name": "F#4",
            "midi": 66,
            "time": 19.444454166666674,
            "velocity": 0.4881889763779528,
            "duration": 0.10972227708333193
          },
          {
            "name": "D5",
            "midi": 74,
            "time": 19.444454166666674,
            "velocity": 0.4881889763779528,
            "duration": 0.10972227708333193
          },
          {
            "name": "F4",
            "midi": 65,
            "time": 19.554176443750006,
            "velocity": 0.4881889763779528,
            "duration": 0.11250005624999915
          },
          {
            "name": "C5",
            "midi": 72,
            "time": 19.554176443750006,
            "velocity": 0.4881889763779528,
            "duration": 0.11250005624999915
          },
          {
            "name": "C#4",
            "midi": 61,
            "time": 19.666676500000005,
            "velocity": 0.4881889763779528,
            "duration": 0.11111116666666732
          },
          {
            "name": "A4",
            "midi": 69,
            "time": 19.666676500000005,
            "velocity": 0.4881889763779528,
            "duration": 0.11111116666666732
          },
          {
            "name": "C4",
            "midi": 60,
            "time": 19.777787666666672,
            "velocity": 0.4881889763779528,
            "duration": 0.10972227708333193
          },
          {
            "name": "G#4",
            "midi": 68,
            "time": 19.777787666666672,
            "velocity": 0.4881889763779528,
            "duration": 0.10972227708333193
          },
          {
            "name": "B3",
            "midi": 59,
            "time": 19.887509943750004,
            "velocity": 0.4881889763779528,
            "duration": 0.11250005624999915
          },
          {
            "name": "E4",
            "midi": 64,
            "time": 19.887509943750004,
            "velocity": 0.4881889763779528,
            "duration": 0.11250005624999915
          },
          {
            "name": "D#6",
            "midi": 87,
            "time": 21.000010500000002,
            "velocity": 0.4881889763779528,
            "duration": 0.02083334374999879
          },
          {
            "name": "B5",
            "midi": 83,
            "time": 21.111121666666666,
            "velocity": 0.4881889763779528,
            "duration": 0.022222233333334174
          },
          {
            "name": "G5",
            "midi": 79,
            "time": 21.22084394375,
            "velocity": 0.4881889763779528,
            "duration": 0.022222233333334174
          },
          {
            "name": "D#5",
            "midi": 75,
            "time": 21.333344,
            "velocity": 0.4881889763779528,
            "duration": 0.06527781041666714
          },
          {
            "name": "F6",
            "midi": 89,
            "time": 23.0000115,
            "velocity": 0.4881889763779528,
            "duration": 0.02083334374999879
          },
          {
            "name": "C6",
            "midi": 84,
            "time": 23.111122666666663,
            "velocity": 0.4881889763779528,
            "duration": 0.022222233333334174
          },
          {
            "name": "G#5",
            "midi": 80,
            "time": 23.22084494375,
            "velocity": 0.4881889763779528,
            "duration": 0.022222233333334174
          },
          {
            "name": "E5",
            "midi": 76,
            "time": 23.333344999999998,
            "velocity": 0.4881889763779528,
            "duration": 0.06527781041666714
          },
          {
            "name": "B4",
            "midi": 71,
            "time": 24.3333455,
            "velocity": 0.4881889763779528,
            "duration": 0.16666675000000097
          },
          {
            "name": "A#4",
            "midi": 70,
            "time": 24.50001225,
            "velocity": 0.4881889763779528,
            "duration": 0.16666675000000097
          },
          {
            "name": "A4",
            "midi": 69,
            "time": 24.666679000000002,
            "velocity": 0.4881889763779528,
            "duration": 0.16666675000000097
          },
          {
            "name": "F4",
            "midi": 65,
            "time": 24.833345750000003,
            "velocity": 0.4881889763779528,
            "duration": 0.16666675000000097
          },
          {
            "name": "B6",
            "midi": 95,
            "time": 25.000012500000004,
            "velocity": 0.5905511811023622,
            "duration": 0.11111116666666732
          },
          {
            "name": "A#6",
            "midi": 94,
            "time": 25.11112366666667,
            "velocity": 0.5905511811023622,
            "duration": 0.10972227708333193
          },
          {
            "name": "A6",
            "midi": 93,
            "time": 25.220845943750003,
            "velocity": 0.5905511811023622,
            "duration": 0.11250005624999915
          },
          {
            "name": "D#6",
            "midi": 87,
            "time": 25.333346000000002,
            "velocity": 0.5905511811023622,
            "duration": 0.11111116666666732
          },
          {
            "name": "F6",
            "midi": 89,
            "time": 25.333346000000002,
            "velocity": 0.5905511811023622,
            "duration": 0.11111116666666732
          },
          {
            "name": "D6",
            "midi": 86,
            "time": 25.44445716666667,
            "velocity": 0.5905511811023622,
            "duration": 0.10972227708333193
          },
          {
            "name": "C#6",
            "midi": 85,
            "time": 25.55417944375,
            "velocity": 0.5905511811023622,
            "duration": 0.11250005624999915
          },
          {
            "name": "F5",
            "midi": 77,
            "time": 25.6666795,
            "velocity": 0.5905511811023622,
            "duration": 0.11111116666666732
          },
          {
            "name": "A5",
            "midi": 81,
            "time": 25.6666795,
            "velocity": 0.5905511811023622,
            "duration": 0.11111116666666732
          },
          {
            "name": "E5",
            "midi": 76,
            "time": 25.777790666666668,
            "velocity": 0.5905511811023622,
            "duration": 0.10972227708333193
          },
          {
            "name": "G#5",
            "midi": 80,
            "time": 25.777790666666668,
            "velocity": 0.5905511811023622,
            "duration": 0.10972227708333193
          },
          {
            "name": "D5",
            "midi": 74,
            "time": 25.88751294375,
            "velocity": 0.5905511811023622,
            "duration": 0.11250005624999915
          },
          {
            "name": "G5",
            "midi": 79,
            "time": 25.88751294375,
            "velocity": 0.5905511811023622,
            "duration": 0.11250005624999915
          },
          {
            "name": "C#5",
            "midi": 73,
            "time": 26.000013,
            "velocity": 0.6929133858267716,
            "duration": 0.16666675000000097
          },
          {
            "name": "F#5",
            "midi": 78,
            "time": 26.000013,
            "velocity": 0.6929133858267716,
            "duration": 0.16666675000000097
          },
          {
            "name": "E5",
            "midi": 76,
            "time": 29.0000145,
            "velocity": 0.6929133858267716,
            "duration": 0.11111116666666732
          },
          {
            "name": "G#5",
            "midi": 80,
            "time": 29.0000145,
            "velocity": 0.6929133858267716,
            "duration": 0.11111116666666732
          },
          {
            "name": "D5",
            "midi": 74,
            "time": 29.111125666666666,
            "velocity": 0.6929133858267716,
            "duration": 0.10972227708333193
          },
          {
            "name": "F#5",
            "midi": 78,
            "time": 29.111125666666666,
            "velocity": 0.6929133858267716,
            "duration": 0.10972227708333193
          },
          {
            "name": "C5",
            "midi": 72,
            "time": 29.220847943749998,
            "velocity": 0.6929133858267716,
            "duration": 0.11250005624999915
          },
          {
            "name": "E5",
            "midi": 76,
            "time": 29.220847943749998,
            "velocity": 0.6929133858267716,
            "duration": 0.11250005624999915
          },
          {
            "name": "G#4",
            "midi": 68,
            "time": 29.333347999999997,
            "velocity": 0.6929133858267716,
            "duration": 0.11111116666666732
          },
          {
            "name": "D5",
            "midi": 74,
            "time": 29.333347999999997,
            "velocity": 0.6929133858267716,
            "duration": 0.11111116666666732
          },
          {
            "name": "C5",
            "midi": 72,
            "time": 29.444459166666665,
            "velocity": 0.6929133858267716,
            "duration": 0.10972227708333193
          },
          {
            "name": "E5",
            "midi": 76,
            "time": 29.444459166666665,
            "velocity": 0.6929133858267716,
            "duration": 0.10972227708333193
          },
          {
            "name": "D5",
            "midi": 74,
            "time": 29.554181443749997,
            "velocity": 0.6929133858267716,
            "duration": 0.11250005624999915
          },
          {
            "name": "F#5",
            "midi": 78,
            "time": 29.554181443749997,
            "velocity": 0.6929133858267716,
            "duration": 0.11250005624999915
          },
          {
            "name": "E5",
            "midi": 76,
            "time": 29.666681499999996,
            "velocity": 0.6929133858267716,
            "duration": 0.3333334999999984
          },
          {
            "name": "G#5",
            "midi": 80,
            "time": 29.666681499999996,
            "velocity": 0.6929133858267716,
            "duration": 0.3333334999999984
          },
          {
            "name": "G#5",
            "midi": 80,
            "time": 32.66668299999999,
            "velocity": 0.6929133858267716,
            "duration": 0.16666674999999742
          },
          {
            "name": "D6",
            "midi": 86,
            "time": 32.66668299999999,
            "velocity": 0.6929133858267716,
            "duration": 0.16666674999999742
          },
          {
            "name": "G5",
            "midi": 79,
            "time": 32.83334974999999,
            "velocity": 0.6929133858267716,
            "duration": 0.16666674999999742
          },
          {
            "name": "C#6",
            "midi": 85,
            "time": 32.83334974999999,
            "velocity": 0.6929133858267716,
            "duration": 0.16666674999999742
          },
          {
            "name": "F#5",
            "midi": 78,
            "time": 33.00001649999999,
            "velocity": 0.6929133858267716,
            "duration": 0.16666674999999742
          },
          {
            "name": "C6",
            "midi": 84,
            "time": 33.00001649999999,
            "velocity": 0.6929133858267716,
            "duration": 0.16666674999999742
          },
          {
            "name": "F5",
            "midi": 77,
            "time": 33.166683249999984,
            "velocity": 0.6929133858267716,
            "duration": 0.16666674999999742
          },
          {
            "name": "B5",
            "midi": 83,
            "time": 33.166683249999984,
            "velocity": 0.6929133858267716,
            "duration": 0.16666674999999742
          },
          {
            "name": "E5",
            "midi": 76,
            "time": 33.33334999999998,
            "velocity": 0.6929133858267716,
            "duration": 0.16666674999999742
          },
          {
            "name": "A#5",
            "midi": 82,
            "time": 33.33334999999998,
            "velocity": 0.6929133858267716,
            "duration": 0.16666674999999742
          },
          {
            "name": "D#5",
            "midi": 75,
            "time": 33.50001674999998,
            "velocity": 0.6929133858267716,
            "duration": 0.16666674999999742
          },
          {
            "name": "A5",
            "midi": 81,
            "time": 33.50001674999998,
            "velocity": 0.6929133858267716,
            "duration": 0.16666674999999742
          },
          {
            "name": "D5",
            "midi": 74,
            "time": 33.66668349999998,
            "velocity": 0.6929133858267716,
            "duration": 0.16666674999999742
          },
          {
            "name": "G#5",
            "midi": 80,
            "time": 33.66668349999998,
            "velocity": 0.6929133858267716,
            "duration": 0.16666674999999742
          },
          {
            "name": "C#5",
            "midi": 73,
            "time": 33.833350249999974,
            "velocity": 0.6929133858267716,
            "duration": 0.16666674999999742
          },
          {
            "name": "G5",
            "midi": 79,
            "time": 33.833350249999974,
            "velocity": 0.6929133858267716,
            "duration": 0.16666674999999742
          },
          {
            "name": "C5",
            "midi": 72,
            "time": 34.00001699999997,
            "velocity": 0.6929133858267716,
            "duration": 0.33333350000000195
          },
          {
            "name": "G#5",
            "midi": 80,
            "time": 34.00001699999997,
            "velocity": 0.6929133858267716,
            "duration": 0.33333350000000195
          },
          {
            "name": "A#4",
            "midi": 70,
            "time": 37.000018499999975,
            "velocity": 0.6929133858267716,
            "duration": 0.11111116666666732
          },
          {
            "name": "D5",
            "midi": 74,
            "time": 37.000018499999975,
            "velocity": 0.6929133858267716,
            "duration": 0.11111116666666732
          },
          {
            "name": "G#4",
            "midi": 68,
            "time": 37.11112966666664,
            "velocity": 0.6929133858267716,
            "duration": 0.10972227708333548
          },
          {
            "name": "C5",
            "midi": 72,
            "time": 37.11112966666664,
            "velocity": 0.6929133858267716,
            "duration": 0.10972227708333548
          },
          {
            "name": "F#4",
            "midi": 66,
            "time": 37.22085194374998,
            "velocity": 0.6929133858267716,
            "duration": 0.11250005624999915
          },
          {
            "name": "A#4",
            "midi": 70,
            "time": 37.22085194374998,
            "velocity": 0.6929133858267716,
            "duration": 0.11250005624999915
          },
          {
            "name": "D4",
            "midi": 62,
            "time": 37.33335199999998,
            "velocity": 0.6929133858267716,
            "duration": 0.11111116666666732
          },
          {
            "name": "G#4",
            "midi": 68,
            "time": 37.33335199999998,
            "velocity": 0.6929133858267716,
            "duration": 0.11111116666666732
          },
          {
            "name": "F#4",
            "midi": 66,
            "time": 37.444463166666644,
            "velocity": 0.6929133858267716,
            "duration": 0.10972227708333548
          },
          {
            "name": "A#4",
            "midi": 70,
            "time": 37.444463166666644,
            "velocity": 0.6929133858267716,
            "duration": 0.10972227708333548
          },
          {
            "name": "G#4",
            "midi": 68,
            "time": 37.55418544374998,
            "velocity": 0.6929133858267716,
            "duration": 0.11250005624999915
          },
          {
            "name": "C5",
            "midi": 72,
            "time": 37.55418544374998,
            "velocity": 0.6929133858267716,
            "duration": 0.11250005624999915
          },
          {
            "name": "A#4",
            "midi": 70,
            "time": 37.66668549999998,
            "velocity": 0.6929133858267716,
            "duration": 0.33333350000000195
          },
          {
            "name": "D5",
            "midi": 74,
            "time": 37.66668549999998,
            "velocity": 0.6929133858267716,
            "duration": 0.33333350000000195
          },
          {
            "name": "A#5",
            "midi": 82,
            "time": 38.00001899999998,
            "velocity": 0.6929133858267716,
            "duration": 0.03194446041666765
          },
          {
            "name": "D6",
            "midi": 86,
            "time": 38.00001899999998,
            "velocity": 0.6929133858267716,
            "duration": 0.03194446041666765
          },
          {
            "name": "A5",
            "midi": 81,
            "time": 38.166685749999985,
            "velocity": 0.6929133858267716,
            "duration": 0.03194446041666765
          },
          {
            "name": "C#6",
            "midi": 85,
            "time": 38.166685749999985,
            "velocity": 0.6929133858267716,
            "duration": 0.03194446041666765
          },
          {
            "name": "A#5",
            "midi": 82,
            "time": 38.33335249999999,
            "velocity": 0.6929133858267716,
            "duration": 0.03194446041666765
          },
          {
            "name": "D6",
            "midi": 86,
            "time": 38.33335249999999,
            "velocity": 0.6929133858267716,
            "duration": 0.03194446041666765
          },
          {
            "name": "B5",
            "midi": 83,
            "time": 38.500019249999994,
            "velocity": 0.6929133858267716,
            "duration": 0.03194446041666765
          },
          {
            "name": "F6",
            "midi": 89,
            "time": 38.500019249999994,
            "velocity": 0.6929133858267716,
            "duration": 0.03194446041666765
          },
          {
            "name": "A#5",
            "midi": 82,
            "time": 38.666686,
            "velocity": 0.6929133858267716,
            "duration": 0.03194446041666765
          },
          {
            "name": "D6",
            "midi": 86,
            "time": 38.666686,
            "velocity": 0.6929133858267716,
            "duration": 0.03194446041666765
          },
          {
            "name": "A5",
            "midi": 81,
            "time": 38.83335275,
            "velocity": 0.6929133858267716,
            "duration": 0.03194446041666765
          },
          {
            "name": "C#6",
            "midi": 85,
            "time": 38.83335275,
            "velocity": 0.6929133858267716,
            "duration": 0.03194446041666765
          },
          {
            "name": "A#5",
            "midi": 82,
            "time": 39.00001950000001,
            "velocity": 0.5905511811023622,
            "duration": 0.06527781041666714
          },
          {
            "name": "D6",
            "midi": 86,
            "time": 39.00001950000001,
            "velocity": 0.5905511811023622,
            "duration": 0.06527781041666714
          },
          {
            "name": "A#3",
            "midi": 58,
            "time": 40.000020000000006,
            "velocity": 0.5905511811023622,
            "duration": 0.04166668749999758
          },
          {
            "name": "D4",
            "midi": 62,
            "time": 40.000020000000006,
            "velocity": 0.5905511811023622,
            "duration": 0.04166668749999758
          },
          {
            "name": "F#4",
            "midi": 66,
            "time": 40.041686687500004,
            "velocity": 0.5905511811023622,
            "duration": 0.04166668749999758
          },
          {
            "name": "G#4",
            "midi": 68,
            "time": 40.083353375,
            "velocity": 0.5905511811023622,
            "duration": 0.04166668749999758
          },
          {
            "name": "A#4",
            "midi": 70,
            "time": 40.1250200625,
            "velocity": 0.5905511811023622,
            "duration": 0.04166668749999758
          },
          {
            "name": "D5",
            "midi": 74,
            "time": 40.16668675,
            "velocity": 0.5905511811023622,
            "duration": 0.04166668749999758
          },
          {
            "name": "F#5",
            "midi": 78,
            "time": 40.208353437499994,
            "velocity": 0.5905511811023622,
            "duration": 0.04166668749999758
          },
          {
            "name": "G#5",
            "midi": 80,
            "time": 40.25002012499999,
            "velocity": 0.5905511811023622,
            "duration": 0.04166668749999758
          },
          {
            "name": "A#5",
            "midi": 82,
            "time": 40.29168681249999,
            "velocity": 0.5905511811023622,
            "duration": 0.04166668749999758
          },
          {
            "name": "D6",
            "midi": 86,
            "time": 40.33335349999999,
            "velocity": 0.5905511811023622,
            "duration": 0.08333337500000226
          },
          {
            "name": "A#5",
            "midi": 82,
            "time": 40.41668687499999,
            "velocity": 0.5905511811023622,
            "duration": 0.08333337500000226
          },
          {
            "name": "G#5",
            "midi": 80,
            "time": 40.50002024999999,
            "velocity": 0.5905511811023622,
            "duration": 0.08333337500000226
          },
          {
            "name": "F#5",
            "midi": 78,
            "time": 40.583353624999994,
            "velocity": 0.5905511811023622,
            "duration": 0.08333337500000226
          },
          {
            "name": "D5",
            "midi": 74,
            "time": 40.666686999999996,
            "velocity": 0.5905511811023622,
            "duration": 0.06527781041666714
          },
          {
            "name": "F#5",
            "midi": 78,
            "time": 40.73196481041666,
            "velocity": 0.5905511811023622,
            "duration": 0.0680555895833308
          },
          {
            "name": "G#5",
            "midi": 80,
            "time": 40.800020399999994,
            "velocity": 0.5905511811023622,
            "duration": 0.06527781041666714
          },
          {
            "name": "A#5",
            "midi": 82,
            "time": 40.86529821041666,
            "velocity": 0.5905511811023622,
            "duration": 0.0680555895833308
          },
          {
            "name": "D6",
            "midi": 86,
            "time": 40.93335379999999,
            "velocity": 0.5905511811023622,
            "duration": 0.06666669999999897
          },
          {
            "name": "G#6",
            "midi": 92,
            "time": 41.00002049999999,
            "velocity": 0.5905511811023622,
            "duration": 0.11111116666666732
          },
          {
            "name": "G6",
            "midi": 91,
            "time": 41.11113166666666,
            "velocity": 0.5905511811023622,
            "duration": 0.10972227708333548
          },
          {
            "name": "F#6",
            "midi": 90,
            "time": 41.220853943749994,
            "velocity": 0.5905511811023622,
            "duration": 0.11250005624999915
          },
          {
            "name": "D6",
            "midi": 86,
            "time": 41.33335399999999,
            "velocity": 0.5905511811023622,
            "duration": 0.11111116666666732
          },
          {
            "name": "C#6",
            "midi": 85,
            "time": 41.44446516666666,
            "velocity": 0.5905511811023622,
            "duration": 0.10972227708333548
          },
          {
            "name": "C6",
            "midi": 84,
            "time": 41.554187443749996,
            "velocity": 0.5905511811023622,
            "duration": 0.11250005624999915
          },
          {
            "name": "G#5",
            "midi": 80,
            "time": 41.666687499999995,
            "velocity": 0.5905511811023622,
            "duration": 0.11111116666666732
          },
          {
            "name": "G5",
            "midi": 79,
            "time": 41.77779866666666,
            "velocity": 0.5905511811023622,
            "duration": 0.10972227708333548
          },
          {
            "name": "F#5",
            "midi": 78,
            "time": 41.88752094375,
            "velocity": 0.5905511811023622,
            "duration": 0.11250005624999915
          },
          {
            "name": "D5",
            "midi": 74,
            "time": 42.000021,
            "velocity": 0.4881889763779528,
            "duration": 0.08333337500000226
          },
          {
            "name": "D#5",
            "midi": 75,
            "time": 42.083354375,
            "velocity": 0.4881889763779528,
            "duration": 0.08333337500000226
          },
          {
            "name": "D5",
            "midi": 74,
            "time": 42.16668775,
            "velocity": 0.4881889763779528,
            "duration": 0.08333337500000226
          },
          {
            "name": "D#5",
            "midi": 75,
            "time": 42.250021125,
            "velocity": 0.4881889763779528,
            "duration": 0.08333337500000226
          },
          {
            "name": "D5",
            "midi": 74,
            "time": 42.333354500000006,
            "velocity": 0.4881889763779528,
            "duration": 0.08333337500000226
          },
          {
            "name": "D#5",
            "midi": 75,
            "time": 42.41668787500001,
            "velocity": 0.4881889763779528,
            "duration": 0.08333337500000226
          },
          {
            "name": "D5",
            "midi": 74,
            "time": 42.50002125000001,
            "velocity": 0.4881889763779528,
            "duration": 0.08333337500000226
          },
          {
            "name": "D#5",
            "midi": 75,
            "time": 42.58335462500001,
            "velocity": 0.4881889763779528,
            "duration": 0.08333337500000226
          },
          {
            "name": "E5",
            "midi": 76,
            "time": 42.666688000000015,
            "velocity": 0.4881889763779528,
            "duration": 0.08333337500000226
          },
          {
            "name": "F5",
            "midi": 77,
            "time": 42.75002137500002,
            "velocity": 0.4881889763779528,
            "duration": 0.08333337500000226
          },
          {
            "name": "F#5",
            "midi": 78,
            "time": 42.83335475000002,
            "velocity": 0.4881889763779528,
            "duration": 0.08333337500000226
          },
          {
            "name": "G5",
            "midi": 79,
            "time": 42.91668812500002,
            "velocity": 0.4881889763779528,
            "duration": 0.08333337500000226
          },
          {
            "name": "G#5",
            "midi": 80,
            "time": 43.333355000000026,
            "velocity": 0.4881889763779528,
            "duration": 0.11111116666666732
          },
          {
            "name": "C5",
            "midi": 72,
            "time": 43.44446616666669,
            "velocity": 0.4881889763779528,
            "duration": 0.10972227708333548
          },
          {
            "name": "G#5",
            "midi": 80,
            "time": 43.55418844375003,
            "velocity": 0.4881889763779528,
            "duration": 0.11250005624999915
          },
          {
            "name": "C6",
            "midi": 84,
            "time": 43.66668850000003,
            "velocity": 0.4881889763779528,
            "duration": 0.11111116666666732
          },
          {
            "name": "G#6",
            "midi": 92,
            "time": 43.777799666666695,
            "velocity": 0.4881889763779528,
            "duration": 0.10972227708333548
          },
          {
            "name": "C7",
            "midi": 96,
            "time": 43.88752194375003,
            "velocity": 0.4881889763779528,
            "duration": 0.11250005624999915
          },
          {
            "name": "G5",
            "midi": 79,
            "time": 44.33335550000003,
            "velocity": 0.4881889763779528,
            "duration": 0.11111116666666732
          },
          {
            "name": "C5",
            "midi": 72,
            "time": 44.4444666666667,
            "velocity": 0.4881889763779528,
            "duration": 0.10972227708333548
          },
          {
            "name": "G5",
            "midi": 79,
            "time": 44.554188943750034,
            "velocity": 0.4881889763779528,
            "duration": 0.11250005624999915
          },
          {
            "name": "C6",
            "midi": 84,
            "time": 44.666689000000034,
            "velocity": 0.4881889763779528,
            "duration": 0.11111116666666732
          },
          {
            "name": "G6",
            "midi": 91,
            "time": 44.7778001666667,
            "velocity": 0.4881889763779528,
            "duration": 0.10972227708333548
          },
          {
            "name": "C7",
            "midi": 96,
            "time": 44.887522443750036,
            "velocity": 0.4881889763779528,
            "duration": 0.11250005624999915
          },
          {
            "name": "F6",
            "midi": 89,
            "time": 45.000022500000036,
            "velocity": 0.4881889763779528,
            "duration": 0.16666674999999742
          },
          {
            "name": "F5",
            "midi": 77,
            "time": 45.16668925000003,
            "velocity": 0.4881889763779528,
            "duration": 0.16666674999999742
          },
          {
            "name": "F#5",
            "midi": 78,
            "time": 45.33335600000003,
            "velocity": 0.4881889763779528,
            "duration": 0.11111116666666732
          },
          {
            "name": "G5",
            "midi": 79,
            "time": 45.4444671666667,
            "velocity": 0.4881889763779528,
            "duration": 0.10972227708333548
          },
          {
            "name": "G#5",
            "midi": 80,
            "time": 45.55418944375003,
            "velocity": 0.4881889763779528,
            "duration": 0.11250005624999915
          },
          {
            "name": "A5",
            "midi": 81,
            "time": 45.66668950000003,
            "velocity": 0.4881889763779528,
            "duration": 0.11111116666666732
          },
          {
            "name": "A#5",
            "midi": 82,
            "time": 45.7778006666667,
            "velocity": 0.4881889763779528,
            "duration": 0.10972227708333548
          },
          {
            "name": "B5",
            "midi": 83,
            "time": 45.887522943750035,
            "velocity": 0.4881889763779528,
            "duration": 0.11250005624999915
          },
          {
            "name": "C6",
            "midi": 84,
            "time": 46.000023000000034,
            "velocity": 0.5905511811023622,
            "duration": 0.11111116666666732
          },
          {
            "name": "F#6",
            "midi": 90,
            "time": 46.1111341666667,
            "velocity": 0.5905511811023622,
            "duration": 0.10972227708333548
          },
          {
            "name": "D6",
            "midi": 86,
            "time": 46.22085644375004,
            "velocity": 0.5905511811023622,
            "duration": 0.11250005624999915
          },
          {
            "name": "B5",
            "midi": 83,
            "time": 46.333356500000036,
            "velocity": 0.5905511811023622,
            "duration": 0.11111116666666732
          },
          {
            "name": "F#6",
            "midi": 90,
            "time": 46.444467666666704,
            "velocity": 0.5905511811023622,
            "duration": 0.10972227708333548
          },
          {
            "name": "D6",
            "midi": 86,
            "time": 46.55418994375004,
            "velocity": 0.5905511811023622,
            "duration": 0.11250005624999915
          },
          {
            "name": "D5",
            "midi": 74,
            "time": 46.66669000000004,
            "velocity": 0.5905511811023622,
            "duration": 0.08333337500000226
          },
          {
            "name": "A#5",
            "midi": 82,
            "time": 46.66669000000004,
            "velocity": 0.5905511811023622,
            "duration": 0.08333337500000226
          },
          {
            "name": "D#5",
            "midi": 75,
            "time": 46.75002337500004,
            "velocity": 0.5905511811023622,
            "duration": 0.08333337500000226
          },
          {
            "name": "E5",
            "midi": 76,
            "time": 46.83335675000004,
            "velocity": 0.5905511811023622,
            "duration": 0.08333337500000226
          },
          {
            "name": "F5",
            "midi": 77,
            "time": 46.916690125000045,
            "velocity": 0.5905511811023622,
            "duration": 0.08333337500000226
          },
          {
            "name": "F#5",
            "midi": 78,
            "time": 47.00002350000005,
            "velocity": 0.5905511811023622,
            "duration": 0.08333337500000226
          },
          {
            "name": "G#5",
            "midi": 80,
            "time": 47.08335687500005,
            "velocity": 0.5905511811023622,
            "duration": 0.08333337500000226
          },
          {
            "name": "F#5",
            "midi": 78,
            "time": 47.16669025000005,
            "velocity": 0.5905511811023622,
            "duration": 0.08333337500000226
          },
          {
            "name": "G#5",
            "midi": 80,
            "time": 47.250023625000054,
            "velocity": 0.5905511811023622,
            "duration": 0.08333337500000226
          },
          {
            "name": "F#5",
            "midi": 78,
            "time": 47.333357000000056,
            "velocity": 0.5905511811023622,
            "duration": 0.08333337500000226
          },
          {
            "name": "G#5",
            "midi": 80,
            "time": 47.41669037500006,
            "velocity": 0.5905511811023622,
            "duration": 0.08333337500000226
          },
          {
            "name": "F#5",
            "midi": 78,
            "time": 47.50002375000006,
            "velocity": 0.5905511811023622,
            "duration": 0.08333337500000226
          },
          {
            "name": "G#5",
            "midi": 80,
            "time": 47.58335712500006,
            "velocity": 0.5905511811023622,
            "duration": 0.08333337500000226
          },
          {
            "name": "F#5",
            "midi": 78,
            "time": 47.666690500000065,
            "velocity": 0.5905511811023622,
            "duration": 0.08333337500000226
          },
          {
            "name": "G#5",
            "midi": 80,
            "time": 47.75002387500007,
            "velocity": 0.5905511811023622,
            "duration": 0.08333337500000226
          },
          {
            "name": "B5",
            "midi": 83,
            "time": 47.83335725000007,
            "velocity": 0.5905511811023622,
            "duration": 0.08333337500000226
          },
          {
            "name": "D6",
            "midi": 86,
            "time": 47.91669062500007,
            "velocity": 0.5905511811023622,
            "duration": 0.08333337500000226
          },
          {
            "name": "F#6",
            "midi": 90,
            "time": 48.000024000000074,
            "velocity": 0.5905511811023622,
            "duration": 0.33333350000000195
          },
          {
            "name": "F#5",
            "midi": 78,
            "time": 48.333357500000076,
            "velocity": 0.5905511811023622,
            "duration": 0.08333337500000226
          },
          {
            "name": "G#5",
            "midi": 80,
            "time": 48.41669087500008,
            "velocity": 0.5905511811023622,
            "duration": 0.08333337500000226
          },
          {
            "name": "C6",
            "midi": 84,
            "time": 48.50002425000008,
            "velocity": 0.5905511811023622,
            "duration": 0.08333337500000226
          },
          {
            "name": "D6",
            "midi": 86,
            "time": 48.58335762500008,
            "velocity": 0.5905511811023622,
            "duration": 0.08333337500000226
          },
          {
            "name": "F#6",
            "midi": 90,
            "time": 48.666691000000085,
            "velocity": 0.5905511811023622,
            "duration": 0.33333350000000195
          },
          {
            "name": "F5",
            "midi": 77,
            "time": 50.000025000000086,
            "velocity": 0.4881889763779528,
            "duration": 0.08333337500000226
          },
          {
            "name": "F#5",
            "midi": 78,
            "time": 50.08335837500009,
            "velocity": 0.4881889763779528,
            "duration": 0.08333337500000226
          },
          {
            "name": "F5",
            "midi": 77,
            "time": 50.16669175000009,
            "velocity": 0.4881889763779528,
            "duration": 0.08333337500000226
          },
          {
            "name": "F#5",
            "midi": 78,
            "time": 50.25002512500009,
            "velocity": 0.4881889763779528,
            "duration": 0.08333337500000226
          },
          {
            "name": "F5",
            "midi": 77,
            "time": 50.333358500000095,
            "velocity": 0.4881889763779528,
            "duration": 0.08333337500000226
          },
          {
            "name": "F#5",
            "midi": 78,
            "time": 50.4166918750001,
            "velocity": 0.4881889763779528,
            "duration": 0.08333337500000226
          },
          {
            "name": "F5",
            "midi": 77,
            "time": 50.5000252500001,
            "velocity": 0.4881889763779528,
            "duration": 0.08333337500000226
          },
          {
            "name": "F#5",
            "midi": 78,
            "time": 50.5833586250001,
            "velocity": 0.4881889763779528,
            "duration": 0.08333337500000226
          },
          {
            "name": "G5",
            "midi": 79,
            "time": 50.666692000000104,
            "velocity": 0.4881889763779528,
            "duration": 0.08333337500000226
          },
          {
            "name": "G#5",
            "midi": 80,
            "time": 50.75002537500011,
            "velocity": 0.4881889763779528,
            "duration": 0.08333337500000226
          },
          {
            "name": "A5",
            "midi": 81,
            "time": 50.83335875000011,
            "velocity": 0.4881889763779528,
            "duration": 0.08333337500000226
          },
          {
            "name": "A#5",
            "midi": 82,
            "time": 50.91669212500011,
            "velocity": 0.4881889763779528,
            "duration": 0.08333337500000226
          },
          {
            "name": "B5",
            "midi": 83,
            "time": 51.333359000000115,
            "velocity": 0.4881889763779528,
            "duration": 0.11111116666666732
          },
          {
            "name": "D#5",
            "midi": 75,
            "time": 51.44447016666678,
            "velocity": 0.4881889763779528,
            "duration": 0.10972227708333548
          },
          {
            "name": "B5",
            "midi": 83,
            "time": 51.55419244375012,
            "velocity": 0.4881889763779528,
            "duration": 0.11250005624999915
          },
          {
            "name": "D#6",
            "midi": 87,
            "time": 51.66669250000012,
            "velocity": 0.4881889763779528,
            "duration": 0.11111116666666732
          },
          {
            "name": "B6",
            "midi": 95,
            "time": 51.777803666666784,
            "velocity": 0.4881889763779528,
            "duration": 0.10972227708333548
          },
          {
            "name": "D#7",
            "midi": 99,
            "time": 51.88752594375012,
            "velocity": 0.4881889763779528,
            "duration": 0.11250005624999915
          },
          {
            "name": "A#5",
            "midi": 82,
            "time": 52.33335950000012,
            "velocity": 0.4881889763779528,
            "duration": 0.11111116666666732
          },
          {
            "name": "D#5",
            "midi": 75,
            "time": 52.44447066666679,
            "velocity": 0.4881889763779528,
            "duration": 0.10972227708333548
          },
          {
            "name": "A#5",
            "midi": 82,
            "time": 52.554192943750124,
            "velocity": 0.4881889763779528,
            "duration": 0.11250005624999915
          },
          {
            "name": "D#6",
            "midi": 87,
            "time": 52.66669300000012,
            "velocity": 0.4881889763779528,
            "duration": 0.11111116666666732
          },
          {
            "name": "A#6",
            "midi": 94,
            "time": 52.77780416666679,
            "velocity": 0.4881889763779528,
            "duration": 0.10972227708333548
          },
          {
            "name": "D#7",
            "midi": 99,
            "time": 52.887526443750126,
            "velocity": 0.4881889763779528,
            "duration": 0.11250005624999915
          },
          {
            "name": "G#6",
            "midi": 92,
            "time": 53.000026500000125,
            "velocity": 0.4881889763779528,
            "duration": 0.16666674999999742
          },
          {
            "name": "G#5",
            "midi": 80,
            "time": 53.16669325000012,
            "velocity": 0.4881889763779528,
            "duration": 0.16666674999999742
          },
          {
            "name": "A5",
            "midi": 81,
            "time": 53.33336000000012,
            "velocity": 0.4881889763779528,
            "duration": 0.11111116666666732
          },
          {
            "name": "A#5",
            "midi": 82,
            "time": 53.44447116666679,
            "velocity": 0.4881889763779528,
            "duration": 0.10972227708333548
          },
          {
            "name": "B5",
            "midi": 83,
            "time": 53.55419344375012,
            "velocity": 0.4881889763779528,
            "duration": 0.11250005624999915
          },
          {
            "name": "C6",
            "midi": 84,
            "time": 53.66669350000012,
            "velocity": 0.4881889763779528,
            "duration": 0.11111116666666732
          },
          {
            "name": "C#6",
            "midi": 85,
            "time": 53.77780466666679,
            "velocity": 0.4881889763779528,
            "duration": 0.10972227708333548
          },
          {
            "name": "D6",
            "midi": 86,
            "time": 53.887526943750125,
            "velocity": 0.4881889763779528,
            "duration": 0.11250005624999915
          },
          {
            "name": "D#6",
            "midi": 87,
            "time": 54.000027000000124,
            "velocity": 0.5905511811023622,
            "duration": 0.11111116666666732
          },
          {
            "name": "A6",
            "midi": 93,
            "time": 54.11113816666679,
            "velocity": 0.5905511811023622,
            "duration": 0.10972227708333548
          },
          {
            "name": "F6",
            "midi": 89,
            "time": 54.22086044375013,
            "velocity": 0.5905511811023622,
            "duration": 0.11250005624999915
          },
          {
            "name": "D6",
            "midi": 86,
            "time": 54.333360500000126,
            "velocity": 0.5905511811023622,
            "duration": 0.11111116666666732
          },
          {
            "name": "A6",
            "midi": 93,
            "time": 54.44447166666679,
            "velocity": 0.5905511811023622,
            "duration": 0.10972227708333548
          },
          {
            "name": "F6",
            "midi": 89,
            "time": 54.55419394375013,
            "velocity": 0.5905511811023622,
            "duration": 0.11250005624999915
          },
          {
            "name": "F5",
            "midi": 77,
            "time": 54.66669400000013,
            "velocity": 0.5905511811023622,
            "duration": 0.08333337500000226
          },
          {
            "name": "C#6",
            "midi": 85,
            "time": 54.66669400000013,
            "velocity": 0.5905511811023622,
            "duration": 0.08333337500000226
          },
          {
            "name": "F#5",
            "midi": 78,
            "time": 54.75002737500013,
            "velocity": 0.5905511811023622,
            "duration": 0.08333337500000226
          },
          {
            "name": "G5",
            "midi": 79,
            "time": 54.83336075000013,
            "velocity": 0.5905511811023622,
            "duration": 0.08333337500000226
          },
          {
            "name": "G#5",
            "midi": 80,
            "time": 54.916694125000134,
            "velocity": 0.5905511811023622,
            "duration": 0.08333337500000226
          },
          {
            "name": "A5",
            "midi": 81,
            "time": 55.00002750000014,
            "velocity": 0.5905511811023622,
            "duration": 0.08333337500000226
          },
          {
            "name": "B5",
            "midi": 83,
            "time": 55.08336087500014,
            "velocity": 0.5905511811023622,
            "duration": 0.08333337500000226
          },
          {
            "name": "A5",
            "midi": 81,
            "time": 55.16669425000014,
            "velocity": 0.5905511811023622,
            "duration": 0.08333337500000226
          },
          {
            "name": "B5",
            "midi": 83,
            "time": 55.25002762500014,
            "velocity": 0.5905511811023622,
            "duration": 0.08333337500000226
          },
          {
            "name": "A5",
            "midi": 81,
            "time": 55.333361000000146,
            "velocity": 0.5905511811023622,
            "duration": 0.08333337500000226
          },
          {
            "name": "B5",
            "midi": 83,
            "time": 55.41669437500015,
            "velocity": 0.5905511811023622,
            "duration": 0.08333337500000226
          },
          {
            "name": "A5",
            "midi": 81,
            "time": 55.50002775000015,
            "velocity": 0.5905511811023622,
            "duration": 0.08333337500000226
          },
          {
            "name": "B5",
            "midi": 83,
            "time": 55.58336112500015,
            "velocity": 0.5905511811023622,
            "duration": 0.08333337500000226
          },
          {
            "name": "A5",
            "midi": 81,
            "time": 55.666694500000155,
            "velocity": 0.5905511811023622,
            "duration": 0.08333337500000226
          },
          {
            "name": "B5",
            "midi": 83,
            "time": 55.75002787500016,
            "velocity": 0.5905511811023622,
            "duration": 0.08333337500000226
          },
          {
            "name": "D6",
            "midi": 86,
            "time": 55.83336125000016,
            "velocity": 0.5905511811023622,
            "duration": 0.08333337500000226
          },
          {
            "name": "F6",
            "midi": 89,
            "time": 55.91669462500016,
            "velocity": 0.5905511811023622,
            "duration": 0.08333337500000226
          },
          {
            "name": "A6",
            "midi": 93,
            "time": 56.000028000000164,
            "velocity": 0.5905511811023622,
            "duration": 0.33333350000000195
          },
          {
            "name": "A5",
            "midi": 81,
            "time": 56.333361500000166,
            "velocity": 0.5905511811023622,
            "duration": 0.08333337500000226
          },
          {
            "name": "B5",
            "midi": 83,
            "time": 56.41669487500017,
            "velocity": 0.5905511811023622,
            "duration": 0.08333337500000226
          },
          {
            "name": "D#6",
            "midi": 87,
            "time": 56.50002825000017,
            "velocity": 0.5905511811023622,
            "duration": 0.08333337500000226
          },
          {
            "name": "F6",
            "midi": 89,
            "time": 56.58336162500017,
            "velocity": 0.5905511811023622,
            "duration": 0.08333337500000226
          },
          {
            "name": "A6",
            "midi": 93,
            "time": 56.666695000000175,
            "velocity": 0.5905511811023622,
            "duration": 0.33333350000000195
          },
          {
            "name": "G#5",
            "midi": 80,
            "time": 58.000029000000175,
            "velocity": 0.5905511811023622,
            "duration": 0.08333337500000226
          },
          {
            "name": "A5",
            "midi": 81,
            "time": 58.08336237500018,
            "velocity": 0.5905511811023622,
            "duration": 0.08333337500000226
          },
          {
            "name": "G#5",
            "midi": 80,
            "time": 58.16669575000018,
            "velocity": 0.5905511811023622,
            "duration": 0.08333337500000226
          },
          {
            "name": "A5",
            "midi": 81,
            "time": 58.25002912500018,
            "velocity": 0.5905511811023622,
            "duration": 0.08333337500000226
          },
          {
            "name": "G#5",
            "midi": 80,
            "time": 58.333362500000185,
            "velocity": 0.5905511811023622,
            "duration": 0.08333337500000226
          },
          {
            "name": "A5",
            "midi": 81,
            "time": 58.41669587500019,
            "velocity": 0.5905511811023622,
            "duration": 0.08333337500000226
          },
          {
            "name": "G#5",
            "midi": 80,
            "time": 58.50002925000019,
            "velocity": 0.5905511811023622,
            "duration": 0.08333337500000226
          },
          {
            "name": "A5",
            "midi": 81,
            "time": 58.58336262500019,
            "velocity": 0.5905511811023622,
            "duration": 0.08333337500000226
          },
          {
            "name": "A#5",
            "midi": 82,
            "time": 58.666696000000194,
            "velocity": 0.5905511811023622,
            "duration": 0.08333337500000226
          },
          {
            "name": "B5",
            "midi": 83,
            "time": 58.750029375000196,
            "velocity": 0.5905511811023622,
            "duration": 0.08333337500000226
          },
          {
            "name": "C6",
            "midi": 84,
            "time": 58.8333627500002,
            "velocity": 0.5905511811023622,
            "duration": 0.08333337500000226
          },
          {
            "name": "C#6",
            "midi": 85,
            "time": 58.9166961250002,
            "velocity": 0.5905511811023622,
            "duration": 0.08333337500000226
          },
          {
            "name": "D6",
            "midi": 86,
            "time": 59.333363000000205,
            "velocity": 0.5905511811023622,
            "duration": 0.11111116666666732
          },
          {
            "name": "F#5",
            "midi": 78,
            "time": 59.44447416666687,
            "velocity": 0.5905511811023622,
            "duration": 0.10972227708333548
          },
          {
            "name": "D6",
            "midi": 86,
            "time": 59.55419644375021,
            "velocity": 0.5905511811023622,
            "duration": 0.11250005624999915
          },
          {
            "name": "F#6",
            "midi": 90,
            "time": 59.66669650000021,
            "velocity": 0.5905511811023622,
            "duration": 0.11111116666666732
          },
          {
            "name": "D7",
            "midi": 98,
            "time": 59.777807666666874,
            "velocity": 0.5905511811023622,
            "duration": 0.10972227708333548
          },
          {
            "name": "F#7",
            "midi": 102,
            "time": 59.88752994375021,
            "velocity": 0.5905511811023622,
            "duration": 0.11250005624999915
          },
          {
            "name": "C#6",
            "midi": 85,
            "time": 60.33336350000021,
            "velocity": 0.5905511811023622,
            "duration": 0.11111116666666732
          },
          {
            "name": "F#5",
            "midi": 78,
            "time": 60.44447466666688,
            "velocity": 0.5905511811023622,
            "duration": 0.10972227708333548
          },
          {
            "name": "C#6",
            "midi": 85,
            "time": 60.55419694375021,
            "velocity": 0.5905511811023622,
            "duration": 0.11250005624999915
          },
          {
            "name": "F#6",
            "midi": 90,
            "time": 60.66669700000021,
            "velocity": 0.5905511811023622,
            "duration": 0.11111116666666732
          },
          {
            "name": "C#7",
            "midi": 97,
            "time": 60.77780816666688,
            "velocity": 0.5905511811023622,
            "duration": 0.10972227708333548
          },
          {
            "name": "F#7",
            "midi": 102,
            "time": 60.887530443750215,
            "velocity": 0.5905511811023622,
            "duration": 0.11250005624999915
          },
          {
            "name": "B6",
            "midi": 95,
            "time": 61.000030500000214,
            "velocity": 0.5905511811023622,
            "duration": 0.16666674999999742
          },
          {
            "name": "B5",
            "midi": 83,
            "time": 61.16669725000021,
            "velocity": 0.5905511811023622,
            "duration": 0.16666674999999742
          },
          {
            "name": "C6",
            "midi": 84,
            "time": 61.33336400000021,
            "velocity": 0.5905511811023622,
            "duration": 0.11111116666666732
          },
          {
            "name": "C#6",
            "midi": 85,
            "time": 61.44447516666688,
            "velocity": 0.5905511811023622,
            "duration": 0.10972227708333548
          },
          {
            "name": "D6",
            "midi": 86,
            "time": 61.55419744375021,
            "velocity": 0.5905511811023622,
            "duration": 0.11250005624999915
          },
          {
            "name": "D#6",
            "midi": 87,
            "time": 61.66669750000021,
            "velocity": 0.5905511811023622,
            "duration": 0.11111116666666732
          },
          {
            "name": "E6",
            "midi": 88,
            "time": 61.77780866666688,
            "velocity": 0.5905511811023622,
            "duration": 0.10972227708333548
          },
          {
            "name": "F6",
            "midi": 89,
            "time": 61.887530943750214,
            "velocity": 0.5905511811023622,
            "duration": 0.11250005624999915
          },
          {
            "name": "B5",
            "midi": 83,
            "time": 62.00003100000021,
            "velocity": 0.5905511811023622,
            "duration": 0.08333337500000226
          },
          {
            "name": "C6",
            "midi": 84,
            "time": 62.083364375000215,
            "velocity": 0.5905511811023622,
            "duration": 0.08333337500000226
          },
          {
            "name": "B5",
            "midi": 83,
            "time": 62.16669775000022,
            "velocity": 0.5905511811023622,
            "duration": 0.08333337500000226
          },
          {
            "name": "C6",
            "midi": 84,
            "time": 62.25003112500022,
            "velocity": 0.5905511811023622,
            "duration": 0.08333337500000226
          },
          {
            "name": "B5",
            "midi": 83,
            "time": 62.33336450000022,
            "velocity": 0.5905511811023622,
            "duration": 0.08333337500000226
          },
          {
            "name": "C6",
            "midi": 84,
            "time": 62.416697875000224,
            "velocity": 0.5905511811023622,
            "duration": 0.08333337500000226
          },
          {
            "name": "B5",
            "midi": 83,
            "time": 62.50003125000023,
            "velocity": 0.5905511811023622,
            "duration": 0.08333337500000226
          },
          {
            "name": "C6",
            "midi": 84,
            "time": 62.58336462500023,
            "velocity": 0.5905511811023622,
            "duration": 0.08333337500000226
          },
          {
            "name": "C#6",
            "midi": 85,
            "time": 62.66669800000023,
            "velocity": 0.5905511811023622,
            "duration": 0.08333337500000226
          },
          {
            "name": "D#6",
            "midi": 87,
            "time": 62.75003137500023,
            "velocity": 0.5905511811023622,
            "duration": 0.08333337500000226
          },
          {
            "name": "E6",
            "midi": 88,
            "time": 62.833364750000236,
            "velocity": 0.5905511811023622,
            "duration": 0.08333337500000226
          },
          {
            "name": "F6",
            "midi": 89,
            "time": 62.91669812500024,
            "velocity": 0.5905511811023622,
            "duration": 0.08333337500000226
          },
          {
            "name": "F6",
            "midi": 89,
            "time": 63.33336500000024,
            "velocity": 0.5905511811023622,
            "duration": 0.11111116666666732
          },
          {
            "name": "A5",
            "midi": 81,
            "time": 63.44447616666691,
            "velocity": 0.5905511811023622,
            "duration": 0.10972227708333548
          },
          {
            "name": "F6",
            "midi": 89,
            "time": 63.554198443750245,
            "velocity": 0.5905511811023622,
            "duration": 0.11250005624999915
          },
          {
            "name": "A6",
            "midi": 93,
            "time": 63.666698500000244,
            "velocity": 0.5905511811023622,
            "duration": 0.11111116666666732
          },
          {
            "name": "F7",
            "midi": 101,
            "time": 63.77780966666691,
            "velocity": 0.5905511811023622,
            "duration": 0.10972227708333548
          },
          {
            "name": "A#7",
            "midi": 106,
            "time": 63.88753194375025,
            "velocity": 0.5905511811023622,
            "duration": 0.11250005624999915
          },
          {
            "name": "F6",
            "midi": 89,
            "time": 64.33336550000024,
            "velocity": 0.5905511811023622,
            "duration": 0.11111116666666021
          },
          {
            "name": "A5",
            "midi": 81,
            "time": 64.4444766666669,
            "velocity": 0.5905511811023622,
            "duration": 0.10972227708333548
          },
          {
            "name": "F6",
            "midi": 89,
            "time": 64.55419894375024,
            "velocity": 0.5905511811023622,
            "duration": 0.11250005624999915
          },
          {
            "name": "A6",
            "midi": 93,
            "time": 64.66669900000024,
            "velocity": 0.5905511811023622,
            "duration": 0.11111116666666021
          },
          {
            "name": "F7",
            "midi": 101,
            "time": 64.7778101666669,
            "velocity": 0.5905511811023622,
            "duration": 0.10972227708333548
          },
          {
            "name": "A7",
            "midi": 105,
            "time": 64.88753244375023,
            "velocity": 0.5905511811023622,
            "duration": 0.11250005624999915
          },
          {
            "name": "D#7",
            "midi": 99,
            "time": 65.00003250000023,
            "velocity": 0.5905511811023622,
            "duration": 0.16666675000000453
          },
          {
            "name": "D#6",
            "midi": 87,
            "time": 65.16669925000024,
            "velocity": 0.5905511811023622,
            "duration": 0.16666675000000453
          },
          {
            "name": "E6",
            "midi": 88,
            "time": 65.33336600000024,
            "velocity": 0.5905511811023622,
            "duration": 0.11111116666666021
          },
          {
            "name": "F6",
            "midi": 89,
            "time": 65.4444771666669,
            "velocity": 0.5905511811023622,
            "duration": 0.10972227708333548
          },
          {
            "name": "F6",
            "midi": 89,
            "time": 65.55419944375024,
            "velocity": 0.5905511811023622,
            "duration": 0.11250005624999915
          },
          {
            "name": "F#6",
            "midi": 90,
            "time": 65.66669950000023,
            "velocity": 0.5905511811023622,
            "duration": 0.11111116666666021
          },
          {
            "name": "G6",
            "midi": 91,
            "time": 65.7778106666669,
            "velocity": 0.5905511811023622,
            "duration": 0.10972227708333548
          },
          {
            "name": "G#6",
            "midi": 92,
            "time": 65.88753294375023,
            "velocity": 0.5905511811023622,
            "duration": 0.11250005624999915
          },
          {
            "name": "B4",
            "midi": 71,
            "time": 66.00003300000023,
            "velocity": 0.6929133858267716,
            "duration": 0.06527781041666003
          },
          {
            "name": "E5",
            "midi": 76,
            "time": 66.06531081041689,
            "velocity": 0.6929133858267716,
            "duration": 0.0680555895833379
          },
          {
            "name": "A5",
            "midi": 81,
            "time": 66.13336640000023,
            "velocity": 0.6929133858267716,
            "duration": 0.06527781041666003
          },
          {
            "name": "B5",
            "midi": 83,
            "time": 66.19864421041689,
            "velocity": 0.6929133858267716,
            "duration": 0.0680555895833379
          },
          {
            "name": "E6",
            "midi": 88,
            "time": 66.26669980000023,
            "velocity": 0.6929133858267716,
            "duration": 0.06666669999999897
          },
          {
            "name": "A6",
            "midi": 93,
            "time": 66.33336650000022,
            "velocity": 0.6929133858267716,
            "duration": 0.33333349999999484
          },
          {
            "name": "A6",
            "midi": 93,
            "time": 66.66670000000022,
            "velocity": 0.6929133858267716,
            "duration": 0.11111116666666021
          },
          {
            "name": "E6",
            "midi": 88,
            "time": 66.77781116666688,
            "velocity": 0.6929133858267716,
            "duration": 0.10972227708333548
          },
          {
            "name": "C6",
            "midi": 84,
            "time": 66.88753344375021,
            "velocity": 0.6929133858267716,
            "duration": 0.11250005624999915
          },
          {
            "name": "A5",
            "midi": 81,
            "time": 67.00003350000021,
            "velocity": 0.6929133858267716,
            "duration": 0.11111116666666021
          },
          {
            "name": "A6",
            "midi": 93,
            "time": 67.00003350000021,
            "velocity": 0.6929133858267716,
            "duration": 0.11111116666666021
          },
          {
            "name": "D#6",
            "midi": 87,
            "time": 67.11114466666687,
            "velocity": 0.6929133858267716,
            "duration": 0.10972227708333548
          },
          {
            "name": "B5",
            "midi": 83,
            "time": 67.22086694375021,
            "velocity": 0.6929133858267716,
            "duration": 0.11250005624999915
          },
          {
            "name": "A#5",
            "midi": 82,
            "time": 67.33336700000021,
            "velocity": 0.6929133858267716,
            "duration": 0.33333349999999484
          },
          {
            "name": "A5",
            "midi": 81,
            "time": 67.6667005000002,
            "velocity": 0.6929133858267716,
            "duration": 0.33333349999999484
          },
          {
            "name": "B4",
            "midi": 71,
            "time": 68.0000340000002,
            "velocity": 0.6929133858267716,
            "duration": 0.06527781041666003
          },
          {
            "name": "E5",
            "midi": 76,
            "time": 68.06531181041686,
            "velocity": 0.6929133858267716,
            "duration": 0.0680555895833379
          },
          {
            "name": "A5",
            "midi": 81,
            "time": 68.1333674000002,
            "velocity": 0.6929133858267716,
            "duration": 0.06527781041666003
          },
          {
            "name": "B5",
            "midi": 83,
            "time": 68.19864521041686,
            "velocity": 0.6929133858267716,
            "duration": 0.0680555895833379
          },
          {
            "name": "E6",
            "midi": 88,
            "time": 68.2667008000002,
            "velocity": 0.6929133858267716,
            "duration": 0.06666669999999897
          },
          {
            "name": "A6",
            "midi": 93,
            "time": 68.3333675000002,
            "velocity": 0.6929133858267716,
            "duration": 0.33333349999999484
          },
          {
            "name": "A6",
            "midi": 93,
            "time": 68.66670100000019,
            "velocity": 0.6929133858267716,
            "duration": 0.08333337499999516
          },
          {
            "name": "E6",
            "midi": 88,
            "time": 68.75003437500018,
            "velocity": 0.6929133858267716,
            "duration": 0.08333337499999516
          },
          {
            "name": "C6",
            "midi": 84,
            "time": 68.83336775000018,
            "velocity": 0.6929133858267716,
            "duration": 0.08333337499999516
          },
          {
            "name": "B5",
            "midi": 83,
            "time": 68.91670112500017,
            "velocity": 0.6929133858267716,
            "duration": 0.08333337499999516
          },
          {
            "name": "A#5",
            "midi": 82,
            "time": 69.00003450000017,
            "velocity": 0.6929133858267716,
            "duration": 0.14166673750000314
          },
          {
            "name": "F#6",
            "midi": 90,
            "time": 69.00003450000017,
            "velocity": 0.6929133858267716,
            "duration": 0.14166673750000314
          },
          {
            "name": "F6",
            "midi": 89,
            "time": 69.14170123750017,
            "velocity": 0.6929133858267716,
            "duration": 0.14305562708332786
          },
          {
            "name": "E6",
            "midi": 88,
            "time": 69.2847568645835,
            "velocity": 0.6929133858267716,
            "duration": 0.14305562708332786
          },
          {
            "name": "C#6",
            "midi": 85,
            "time": 69.42781249166683,
            "velocity": 0.6929133858267716,
            "duration": 0.14305562708332786
          },
          {
            "name": "F#5",
            "midi": 78,
            "time": 69.57086811875016,
            "velocity": 0.6929133858267716,
            "duration": 0.14305562708332786
          },
          {
            "name": "F5",
            "midi": 77,
            "time": 69.71392374583348,
            "velocity": 0.6929133858267716,
            "duration": 0.14305562708332786
          },
          {
            "name": "E5",
            "midi": 76,
            "time": 69.85697937291681,
            "velocity": 0.6929133858267716,
            "duration": 0.14305562708332786
          },
          {
            "name": "B4",
            "midi": 71,
            "time": 70.00003500000014,
            "velocity": 0.5905511811023622,
            "duration": 0.08333337499999516
          },
          {
            "name": "C#5",
            "midi": 73,
            "time": 70.08336837500013,
            "velocity": 0.5905511811023622,
            "duration": 0.08333337499999516
          },
          {
            "name": "B4",
            "midi": 71,
            "time": 70.16670175000013,
            "velocity": 0.5905511811023622,
            "duration": 0.08333337499999516
          },
          {
            "name": "C#5",
            "midi": 73,
            "time": 70.25003512500012,
            "velocity": 0.5905511811023622,
            "duration": 0.08333337499999516
          },
          {
            "name": "B4",
            "midi": 71,
            "time": 70.33336850000012,
            "velocity": 0.5905511811023622,
            "duration": 0.08333337499999516
          },
          {
            "name": "C#5",
            "midi": 73,
            "time": 70.41670187500011,
            "velocity": 0.5905511811023622,
            "duration": 0.08333337499999516
          },
          {
            "name": "B4",
            "midi": 71,
            "time": 70.50003525000011,
            "velocity": 0.5905511811023622,
            "duration": 0.08333337499999516
          },
          {
            "name": "C#5",
            "midi": 73,
            "time": 70.5833686250001,
            "velocity": 0.5905511811023622,
            "duration": 0.08333337499999516
          },
          {
            "name": "B4",
            "midi": 71,
            "time": 70.6667020000001,
            "velocity": 0.5905511811023622,
            "duration": 0.08333337499999516
          },
          {
            "name": "C#5",
            "midi": 73,
            "time": 70.7500353750001,
            "velocity": 0.5905511811023622,
            "duration": 0.08333337499999516
          },
          {
            "name": "B4",
            "midi": 71,
            "time": 70.83336875000009,
            "velocity": 0.5905511811023622,
            "duration": 0.08333337499999516
          },
          {
            "name": "C#5",
            "midi": 73,
            "time": 70.91670212500009,
            "velocity": 0.5905511811023622,
            "duration": 0.08333337499999516
          },
          {
            "name": "B4",
            "midi": 71,
            "time": 71.00003550000008,
            "velocity": 0.5905511811023622,
            "duration": 0.33333349999999484
          },
          {
            "name": "B4",
            "midi": 71,
            "time": 71.33336900000008,
            "velocity": 0.6929133858267716,
            "duration": 0.11111116666666021
          },
          {
            "name": "C5",
            "midi": 72,
            "time": 71.44448016666674,
            "velocity": 0.6929133858267716,
            "duration": 0.10972227708333548
          },
          {
            "name": "C#5",
            "midi": 73,
            "time": 71.55420244375007,
            "velocity": 0.6929133858267716,
            "duration": 0.11250005624999915
          },
          {
            "name": "D5",
            "midi": 74,
            "time": 71.66670250000007,
            "velocity": 0.6929133858267716,
            "duration": 0.11111116666666021
          },
          {
            "name": "D#5",
            "midi": 75,
            "time": 71.77781366666673,
            "velocity": 0.6929133858267716,
            "duration": 0.10972227708333548
          },
          {
            "name": "E5",
            "midi": 76,
            "time": 71.88753594375007,
            "velocity": 0.6929133858267716,
            "duration": 0.11250005624999915
          },
          {
            "name": "F5",
            "midi": 77,
            "time": 72.00003600000007,
            "velocity": 0.6929133858267716,
            "duration": 0.33333349999999484
          },
          {
            "name": "F5",
            "midi": 77,
            "time": 74.00003700000006,
            "velocity": 0.6929133858267716,
            "duration": 0.33333349999999484
          },
          {
            "name": "G#6",
            "midi": 92,
            "time": 80.00004000000006,
            "velocity": 0.6929133858267716,
            "duration": 0.14166673750000314
          },
          {
            "name": "G6",
            "midi": 91,
            "time": 80.14170673750006,
            "velocity": 0.6929133858267716,
            "duration": 0.14305562708332786
          },
          {
            "name": "F#6",
            "midi": 90,
            "time": 80.28476236458339,
            "velocity": 0.6929133858267716,
            "duration": 0.14305562708332786
          },
          {
            "name": "D6",
            "midi": 86,
            "time": 80.42781799166671,
            "velocity": 0.6929133858267716,
            "duration": 0.14305562708332786
          },
          {
            "name": "G#5",
            "midi": 80,
            "time": 80.57087361875004,
            "velocity": 0.6929133858267716,
            "duration": 0.14305562708332786
          },
          {
            "name": "G5",
            "midi": 79,
            "time": 80.71392924583337,
            "velocity": 0.6929133858267716,
            "duration": 0.14305562708332786
          },
          {
            "name": "F#5",
            "midi": 78,
            "time": 80.8569848729167,
            "velocity": 0.6929133858267716,
            "duration": 0.14305562708332786
          },
          {
            "name": "F5",
            "midi": 77,
            "time": 81.00004050000003,
            "velocity": 0.6929133858267716,
            "duration": 0.33333349999999484
          },
          {
            "name": "F#5",
            "midi": 78,
            "time": 81.33337400000002,
            "velocity": 0.6929133858267716,
            "duration": 0.08333337499999516
          },
          {
            "name": "G5",
            "midi": 79,
            "time": 81.41670737500002,
            "velocity": 0.6929133858267716,
            "duration": 0.08333337499999516
          },
          {
            "name": "B5",
            "midi": 83,
            "time": 81.50004075000001,
            "velocity": 0.6929133858267716,
            "duration": 0.08333337499999516
          },
          {
            "name": "C6",
            "midi": 84,
            "time": 81.583374125,
            "velocity": 0.6929133858267716,
            "duration": 0.08333337499999516
          },
          {
            "name": "C#6",
            "midi": 85,
            "time": 81.6667075,
            "velocity": 0.6929133858267716,
            "duration": 0.08333337499999516
          },
          {
            "name": "F6",
            "midi": 89,
            "time": 81.750040875,
            "velocity": 0.6929133858267716,
            "duration": 0.08333337499999516
          },
          {
            "name": "F#6",
            "midi": 90,
            "time": 81.83337424999999,
            "velocity": 0.6929133858267716,
            "duration": 0.08333337499999516
          },
          {
            "name": "G6",
            "midi": 91,
            "time": 81.91670762499999,
            "velocity": 0.6929133858267716,
            "duration": 0.08333337499999516
          },
          {
            "name": "F#6",
            "midi": 90,
            "time": 82.00004099999998,
            "velocity": 0.6929133858267716,
            "duration": 0.08333337499999516
          },
          {
            "name": "G#6",
            "midi": 92,
            "time": 82.08337437499998,
            "velocity": 0.6929133858267716,
            "duration": 0.08333337499999516
          },
          {
            "name": "F#6",
            "midi": 90,
            "time": 82.16670774999997,
            "velocity": 0.6929133858267716,
            "duration": 0.08333337499999516
          },
          {
            "name": "G#6",
            "midi": 92,
            "time": 82.25004112499997,
            "velocity": 0.6929133858267716,
            "duration": 0.08333337499999516
          },
          {
            "name": "F#6",
            "midi": 90,
            "time": 82.33337449999996,
            "velocity": 0.6929133858267716,
            "duration": 0.08333337499999516
          },
          {
            "name": "G#6",
            "midi": 92,
            "time": 82.41670787499996,
            "velocity": 0.6929133858267716,
            "duration": 0.08333337499999516
          },
          {
            "name": "F#6",
            "midi": 90,
            "time": 82.50004124999995,
            "velocity": 0.6929133858267716,
            "duration": 0.08333337499999516
          },
          {
            "name": "G#6",
            "midi": 92,
            "time": 82.58337462499995,
            "velocity": 0.6929133858267716,
            "duration": 0.08333337499999516
          },
          {
            "name": "F#6",
            "midi": 90,
            "time": 82.66670799999994,
            "velocity": 0.6929133858267716,
            "duration": 0.08333337499999516
          },
          {
            "name": "G#6",
            "midi": 92,
            "time": 82.75004137499994,
            "velocity": 0.6929133858267716,
            "duration": 0.08333337499999516
          },
          {
            "name": "F#6",
            "midi": 90,
            "time": 82.83337474999993,
            "velocity": 0.6929133858267716,
            "duration": 0.08333337499999516
          },
          {
            "name": "G#6",
            "midi": 92,
            "time": 82.91670812499993,
            "velocity": 0.6929133858267716,
            "duration": 0.08333337499999516
          },
          {
            "name": "F#6",
            "midi": 90,
            "time": 83.00004149999992,
            "velocity": 0.6929133858267716,
            "duration": 0.08333337499999516
          },
          {
            "name": "G#6",
            "midi": 92,
            "time": 83.08337487499992,
            "velocity": 0.6929133858267716,
            "duration": 0.08333337499999516
          },
          {
            "name": "F#6",
            "midi": 90,
            "time": 83.16670824999991,
            "velocity": 0.6929133858267716,
            "duration": 0.08333337499999516
          },
          {
            "name": "G#6",
            "midi": 92,
            "time": 83.25004162499991,
            "velocity": 0.6929133858267716,
            "duration": 0.08333337499999516
          },
          {
            "name": "G#4",
            "midi": 68,
            "time": 83.3333749999999,
            "velocity": 0.6929133858267716,
            "duration": 0.11111116666666021
          },
          {
            "name": "D5",
            "midi": 74,
            "time": 83.44448616666656,
            "velocity": 0.6929133858267716,
            "duration": 0.10972227708333548
          },
          {
            "name": "A5",
            "midi": 81,
            "time": 83.5542084437499,
            "velocity": 0.6929133858267716,
            "duration": 0.11250005624999915
          },
          {
            "name": "C6",
            "midi": 84,
            "time": 83.6667084999999,
            "velocity": 0.6929133858267716,
            "duration": 0.08333337499999516
          },
          {
            "name": "F#6",
            "midi": 90,
            "time": 83.7500418749999,
            "velocity": 0.6929133858267716,
            "duration": 0.08333337499999516
          },
          {
            "name": "A6",
            "midi": 93,
            "time": 83.83337524999989,
            "velocity": 0.6929133858267716,
            "duration": 0.08333337499999516
          },
          {
            "name": "C7",
            "midi": 96,
            "time": 83.91670862499988,
            "velocity": 0.6929133858267716,
            "duration": 0.08333337499999516
          },
          {
            "name": "C#7",
            "midi": 97,
            "time": 84.00004199999988,
            "velocity": 0.6929133858267716,
            "duration": 0.33333349999999484
          },
          {
            "name": "F#5",
            "midi": 78,
            "time": 86.33337649999987,
            "velocity": 0.6929133858267716,
            "duration": 0.08333337499999516
          },
          {
            "name": "G#5",
            "midi": 80,
            "time": 86.41670987499987,
            "velocity": 0.6929133858267716,
            "duration": 0.08333337499999516
          },
          {
            "name": "A#5",
            "midi": 82,
            "time": 86.50004324999986,
            "velocity": 0.6929133858267716,
            "duration": 0.08333337499999516
          },
          {
            "name": "B5",
            "midi": 83,
            "time": 86.58337662499986,
            "velocity": 0.6929133858267716,
            "duration": 0.08333337499999516
          },
          {
            "name": "F#5",
            "midi": 78,
            "time": 86.66670999999985,
            "velocity": 0.6929133858267716,
            "duration": 0.6666670000000039
          },
          {
            "name": "A#5",
            "midi": 82,
            "time": 86.66670999999985,
            "velocity": 0.6929133858267716,
            "duration": 0.6666670000000039
          },
          {
            "name": "C#6",
            "midi": 85,
            "time": 86.66670999999985,
            "velocity": 0.6929133858267716,
            "duration": 0.6666670000000039
          },
          {
            "name": "F#5",
            "midi": 78,
            "time": 88.33337749999986,
            "velocity": 0.6929133858267716,
            "duration": 0.11111116666666021
          },
          {
            "name": "A#5",
            "midi": 82,
            "time": 88.44448866666652,
            "velocity": 0.6929133858267716,
            "duration": 0.10972227708333548
          },
          {
            "name": "C#6",
            "midi": 85,
            "time": 88.55421094374985,
            "velocity": 0.6929133858267716,
            "duration": 0.11250005624999915
          },
          {
            "name": "F#5",
            "midi": 78,
            "time": 88.66671099999985,
            "velocity": 0.6929133858267716,
            "duration": 0.6666670000000039
          },
          {
            "name": "A#5",
            "midi": 82,
            "time": 88.66671099999985,
            "velocity": 0.6929133858267716,
            "duration": 0.6666670000000039
          },
          {
            "name": "D6",
            "midi": 86,
            "time": 88.66671099999985,
            "velocity": 0.6929133858267716,
            "duration": 0.6666670000000039
          },
          {
            "name": "F#5",
            "midi": 78,
            "time": 89.55560033333319,
            "velocity": 0.6929133858267716,
            "duration": 0.25277790416666335
          },
          {
            "name": "A#5",
            "midi": 82,
            "time": 89.61115591666652,
            "velocity": 0.6929133858267716,
            "duration": 0.19722232083333324
          },
          {
            "name": "D#6",
            "midi": 87,
            "time": 89.66671149999985,
            "velocity": 0.6929133858267716,
            "duration": 0.14166673750000314
          },
          {
            "name": "A#5",
            "midi": 82,
            "time": 89.80837823749985,
            "velocity": 0.6929133858267716,
            "duration": 0.14305562708332786
          },
          {
            "name": "F#5",
            "midi": 78,
            "time": 89.95143386458318,
            "velocity": 0.6929133858267716,
            "duration": 0.14305562708332786
          },
          {
            "name": "D#5",
            "midi": 75,
            "time": 90.09448949166651,
            "velocity": 0.6929133858267716,
            "duration": 0.14305562708332786
          },
          {
            "name": "F#5",
            "midi": 78,
            "time": 90.23754511874984,
            "velocity": 0.6929133858267716,
            "duration": 0.14305562708332786
          },
          {
            "name": "A#5",
            "midi": 82,
            "time": 90.38060074583316,
            "velocity": 0.6929133858267716,
            "duration": 0.14305562708332786
          },
          {
            "name": "D#6",
            "midi": 87,
            "time": 90.52365637291649,
            "velocity": 0.6929133858267716,
            "duration": 0.14305562708332786
          },
          {
            "name": "G5",
            "midi": 79,
            "time": 90.66671199999982,
            "velocity": 0.5905511811023622,
            "duration": 0.08333337499999516
          },
          {
            "name": "C6",
            "midi": 84,
            "time": 90.66671199999982,
            "velocity": 0.5905511811023622,
            "duration": 0.08333337499999516
          },
          {
            "name": "E6",
            "midi": 88,
            "time": 90.66671199999982,
            "velocity": 0.5905511811023622,
            "duration": 0.08333337499999516
          },
          {
            "name": "F#5",
            "midi": 78,
            "time": 90.75004537499981,
            "velocity": 0.5905511811023622,
            "duration": 0.08333337499999516
          },
          {
            "name": "G5",
            "midi": 79,
            "time": 90.83337874999981,
            "velocity": 0.5905511811023622,
            "duration": 0.08333337499999516
          },
          {
            "name": "C6",
            "midi": 84,
            "time": 90.83337874999981,
            "velocity": 0.5905511811023622,
            "duration": 0.08333337499999516
          },
          {
            "name": "E6",
            "midi": 88,
            "time": 90.83337874999981,
            "velocity": 0.5905511811023622,
            "duration": 0.08333337499999516
          },
          {
            "name": "F#5",
            "midi": 78,
            "time": 90.9167121249998,
            "velocity": 0.5905511811023622,
            "duration": 0.08333337499999516
          },
          {
            "name": "G#5",
            "midi": 80,
            "time": 91.3333789999998,
            "velocity": 0.5905511811023622,
            "duration": 0.08333337499999516
          },
          {
            "name": "C6",
            "midi": 84,
            "time": 91.3333789999998,
            "velocity": 0.5905511811023622,
            "duration": 0.08333337499999516
          },
          {
            "name": "E6",
            "midi": 88,
            "time": 91.3333789999998,
            "velocity": 0.5905511811023622,
            "duration": 0.08333337499999516
          },
          {
            "name": "F#5",
            "midi": 78,
            "time": 91.41671237499979,
            "velocity": 0.5905511811023622,
            "duration": 0.08333337499999516
          },
          {
            "name": "G#5",
            "midi": 80,
            "time": 91.50004574999979,
            "velocity": 0.5905511811023622,
            "duration": 0.08333337499999516
          },
          {
            "name": "C6",
            "midi": 84,
            "time": 91.50004574999979,
            "velocity": 0.5905511811023622,
            "duration": 0.08333337499999516
          },
          {
            "name": "E6",
            "midi": 88,
            "time": 91.50004574999979,
            "velocity": 0.5905511811023622,
            "duration": 0.08333337499999516
          },
          {
            "name": "F#5",
            "midi": 78,
            "time": 91.58337912499978,
            "velocity": 0.5905511811023622,
            "duration": 0.08333337499999516
          },
          {
            "name": "A5",
            "midi": 81,
            "time": 92.00004599999977,
            "velocity": 0.5905511811023622,
            "duration": 0.08333337499999516
          },
          {
            "name": "C6",
            "midi": 84,
            "time": 92.00004599999977,
            "velocity": 0.5905511811023622,
            "duration": 0.08333337499999516
          },
          {
            "name": "E6",
            "midi": 88,
            "time": 92.00004599999977,
            "velocity": 0.5905511811023622,
            "duration": 0.08333337499999516
          },
          {
            "name": "F#5",
            "midi": 78,
            "time": 92.08337937499977,
            "velocity": 0.5905511811023622,
            "duration": 0.08333337499999516
          },
          {
            "name": "A5",
            "midi": 81,
            "time": 92.16671274999976,
            "velocity": 0.5905511811023622,
            "duration": 0.08333337499999516
          },
          {
            "name": "C6",
            "midi": 84,
            "time": 92.16671274999976,
            "velocity": 0.5905511811023622,
            "duration": 0.08333337499999516
          },
          {
            "name": "E6",
            "midi": 88,
            "time": 92.16671274999976,
            "velocity": 0.5905511811023622,
            "duration": 0.08333337499999516
          },
          {
            "name": "F#5",
            "midi": 78,
            "time": 92.25004612499976,
            "velocity": 0.5905511811023622,
            "duration": 0.08333337499999516
          },
          {
            "name": "G4",
            "midi": 67,
            "time": 92.66671299999975,
            "velocity": 0.6929133858267716,
            "duration": 0.16666675000000453
          },
          {
            "name": "A4",
            "midi": 69,
            "time": 92.66671299999975,
            "velocity": 0.6929133858267716,
            "duration": 0.16666675000000453
          },
          {
            "name": "C#5",
            "midi": 73,
            "time": 92.66671299999975,
            "velocity": 0.6929133858267716,
            "duration": 0.16666675000000453
          },
          {
            "name": "D#5",
            "midi": 75,
            "time": 92.66671299999975,
            "velocity": 0.6929133858267716,
            "duration": 0.16666675000000453
          },
          {
            "name": "G4",
            "midi": 67,
            "time": 92.83337974999975,
            "velocity": 0.6929133858267716,
            "duration": 1.1666672500000033
          },
          {
            "name": "A4",
            "midi": 69,
            "time": 92.83337974999975,
            "velocity": 0.6929133858267716,
            "duration": 1.1666672500000033
          },
          {
            "name": "C#5",
            "midi": 73,
            "time": 92.83337974999975,
            "velocity": 0.6929133858267716,
            "duration": 1.1666672500000033
          },
          {
            "name": "D#5",
            "midi": 75,
            "time": 92.83337974999975,
            "velocity": 0.6929133858267716,
            "duration": 1.1666672500000033
          },
          {
            "name": "C#5",
            "midi": 73,
            "time": 94.66671399999976,
            "velocity": 0.3858267716535433,
            "duration": 0.16666675000000453
          },
          {
            "name": "D#5",
            "midi": 75,
            "time": 94.66671399999976,
            "velocity": 0.3858267716535433,
            "duration": 0.16666675000000453
          },
          {
            "name": "C#5",
            "midi": 73,
            "time": 94.83338074999976,
            "velocity": 0.3858267716535433,
            "duration": 0.16666675000000453
          },
          {
            "name": "D#5",
            "midi": 75,
            "time": 94.83338074999976,
            "velocity": 0.3858267716535433,
            "duration": 0.16666675000000453
          }
        ],
        "controlChanges": {
          "7": [
            {
              "number": 7,
              "time": 0,
              "value": 1
            }
          ],
          "10": [
            {
              "number": 10,
              "time": 0,
              "value": 0.7637795275590551
            }
          ],
          "64": [
            {
              "number": 64,
              "time": 0,
              "value": 1
            },
            {
              "number": 64,
              "time": 0.9166671250000002,
              "value": 0
            },
            {
              "number": 64,
              "time": 1.3333340000000002,
              "value": 1
            },
            {
              "number": 64,
              "time": 1.88750094375,
              "value": 0
            },
            {
              "number": 64,
              "time": 2.3333345000000003,
              "value": 1
            },
            {
              "number": 64,
              "time": 3.0000015000000007,
              "value": 0
            },
            {
              "number": 64,
              "time": 3.1666682500000007,
              "value": 1
            },
            {
              "number": 64,
              "time": 3.887501943750001,
              "value": 0
            },
            {
              "number": 64,
              "time": 4.000002000000001,
              "value": 1
            },
            {
              "number": 64,
              "time": 4.6666690000000015,
              "value": 0
            },
            {
              "number": 64,
              "time": 5.666669499999997,
              "value": 1
            },
            {
              "number": 64,
              "time": 6.000002999999995,
              "value": 0
            },
            {
              "number": 64,
              "time": 6.333336499999995,
              "value": 1
            },
            {
              "number": 64,
              "time": 6.666669999999994,
              "value": 0
            },
            {
              "number": 64,
              "time": 8.000003999999993,
              "value": 1
            },
            {
              "number": 64,
              "time": 8.916671124999999,
              "value": 0
            },
            {
              "number": 64,
              "time": 9.333338,
              "value": 1
            },
            {
              "number": 64,
              "time": 9.88750494375,
              "value": 0
            },
            {
              "number": 64,
              "time": 10.3333385,
              "value": 1
            },
            {
              "number": 64,
              "time": 11.0000055,
              "value": 0
            },
            {
              "number": 64,
              "time": 11.16667225,
              "value": 1
            },
            {
              "number": 64,
              "time": 11.88750594375,
              "value": 0
            },
            {
              "number": 64,
              "time": 12.000005999999999,
              "value": 1
            },
            {
              "number": 64,
              "time": 12.666673,
              "value": 0
            },
            {
              "number": 64,
              "time": 13.666673500000005,
              "value": 1
            },
            {
              "number": 64,
              "time": 14.000007000000007,
              "value": 0
            },
            {
              "number": 64,
              "time": 14.333340500000007,
              "value": 1
            },
            {
              "number": 64,
              "time": 14.66667400000001,
              "value": 0
            },
            {
              "number": 64,
              "time": 19.000009500000008,
              "value": 1
            },
            {
              "number": 64,
              "time": 19.887509943750004,
              "value": 0
            },
            {
              "number": 64,
              "time": 24.3333455,
              "value": 1
            },
            {
              "number": 64,
              "time": 24.833345750000003,
              "value": 0
            },
            {
              "number": 64,
              "time": 25.333346000000002,
              "value": 1
            },
            {
              "number": 64,
              "time": 25.88751294375,
              "value": 0
            },
            {
              "number": 64,
              "time": 29.0000145,
              "value": 1
            },
            {
              "number": 64,
              "time": 29.666681499999996,
              "value": 0
            },
            {
              "number": 64,
              "time": 32.66668299999999,
              "value": 1
            },
            {
              "number": 64,
              "time": 33.833350249999974,
              "value": 0
            },
            {
              "number": 64,
              "time": 37.000018499999975,
              "value": 1
            },
            {
              "number": 64,
              "time": 37.66668549999998,
              "value": 0
            },
            {
              "number": 64,
              "time": 40.000020000000006,
              "value": 1
            },
            {
              "number": 64,
              "time": 40.93335379999999,
              "value": 0
            },
            {
              "number": 64,
              "time": 41.00002049999999,
              "value": 1
            },
            {
              "number": 64,
              "time": 41.88752094375,
              "value": 0
            },
            {
              "number": 64,
              "time": 42.000021,
              "value": 1
            },
            {
              "number": 64,
              "time": 42.91668812500002,
              "value": 0
            },
            {
              "number": 64,
              "time": 43.333355000000026,
              "value": 1
            },
            {
              "number": 64,
              "time": 43.88752194375003,
              "value": 0
            },
            {
              "number": 64,
              "time": 44.33335550000003,
              "value": 1
            },
            {
              "number": 64,
              "time": 44.887522443750036,
              "value": 0
            },
            {
              "number": 64,
              "time": 45.16668925000003,
              "value": 1
            },
            {
              "number": 64,
              "time": 45.887522943750035,
              "value": 0
            },
            {
              "number": 64,
              "time": 46.000023000000034,
              "value": 1
            },
            {
              "number": 64,
              "time": 46.55418994375004,
              "value": 0
            },
            {
              "number": 64,
              "time": 46.66669000000004,
              "value": 1
            },
            {
              "number": 64,
              "time": 46.916690125000045,
              "value": 0
            },
            {
              "number": 64,
              "time": 47.666690500000065,
              "value": 1
            },
            {
              "number": 64,
              "time": 48.000024000000074,
              "value": 0
            },
            {
              "number": 64,
              "time": 48.333357500000076,
              "value": 1
            },
            {
              "number": 64,
              "time": 48.666691000000085,
              "value": 0
            },
            {
              "number": 64,
              "time": 50.000025000000086,
              "value": 1
            },
            {
              "number": 64,
              "time": 50.91669212500011,
              "value": 0
            },
            {
              "number": 64,
              "time": 51.333359000000115,
              "value": 1
            },
            {
              "number": 64,
              "time": 51.88752594375012,
              "value": 0
            },
            {
              "number": 64,
              "time": 52.33335950000012,
              "value": 1
            },
            {
              "number": 64,
              "time": 52.887526443750126,
              "value": 0
            },
            {
              "number": 64,
              "time": 53.16669325000012,
              "value": 1
            },
            {
              "number": 64,
              "time": 53.887526943750125,
              "value": 0
            },
            {
              "number": 64,
              "time": 54.000027000000124,
              "value": 1
            },
            {
              "number": 64,
              "time": 54.55419394375013,
              "value": 0
            },
            {
              "number": 64,
              "time": 54.66669400000013,
              "value": 1
            },
            {
              "number": 64,
              "time": 54.916694125000134,
              "value": 0
            },
            {
              "number": 64,
              "time": 55.666694500000155,
              "value": 1
            },
            {
              "number": 64,
              "time": 56.000028000000164,
              "value": 0
            },
            {
              "number": 64,
              "time": 56.333361500000166,
              "value": 1
            },
            {
              "number": 64,
              "time": 56.666695000000175,
              "value": 0
            },
            {
              "number": 64,
              "time": 58.000029000000175,
              "value": 1
            },
            {
              "number": 64,
              "time": 58.9166961250002,
              "value": 0
            },
            {
              "number": 64,
              "time": 59.333363000000205,
              "value": 1
            },
            {
              "number": 64,
              "time": 59.88752994375021,
              "value": 0
            },
            {
              "number": 64,
              "time": 60.33336350000021,
              "value": 1
            },
            {
              "number": 64,
              "time": 61.000030500000214,
              "value": 0
            },
            {
              "number": 64,
              "time": 61.16669725000021,
              "value": 1
            },
            {
              "number": 64,
              "time": 61.887530943750214,
              "value": 0
            },
            {
              "number": 64,
              "time": 62.00003100000021,
              "value": 1
            },
            {
              "number": 64,
              "time": 62.91669812500024,
              "value": 0
            },
            {
              "number": 64,
              "time": 63.33336500000024,
              "value": 1
            },
            {
              "number": 64,
              "time": 63.88753194375025,
              "value": 0
            },
            {
              "number": 64,
              "time": 64.33336550000024,
              "value": 1
            },
            {
              "number": 64,
              "time": 65.00003250000023,
              "value": 0
            },
            {
              "number": 64,
              "time": 65.16669925000024,
              "value": 1
            },
            {
              "number": 64,
              "time": 65.88753294375023,
              "value": 0
            },
            {
              "number": 64,
              "time": 66.00003300000023,
              "value": 1
            },
            {
              "number": 64,
              "time": 66.33336650000022,
              "value": 0
            },
            {
              "number": 64,
              "time": 67.00003350000021,
              "value": 1
            },
            {
              "number": 64,
              "time": 67.6667005000002,
              "value": 0
            },
            {
              "number": 64,
              "time": 68.0000340000002,
              "value": 1
            },
            {
              "number": 64,
              "time": 68.3333675000002,
              "value": 0
            },
            {
              "number": 64,
              "time": 68.66670100000019,
              "value": 1
            },
            {
              "number": 64,
              "time": 68.91670112500017,
              "value": 0
            },
            {
              "number": 64,
              "time": 71.33336900000008,
              "value": 1
            },
            {
              "number": 64,
              "time": 72.00003600000007,
              "value": 0
            },
            {
              "number": 64,
              "time": 75.33337100000006,
              "value": 0
            },
            {
              "number": 64,
              "time": 80.00004000000006,
              "value": 1
            },
            {
              "number": 64,
              "time": 80.8569848729167,
              "value": 0
            },
            {
              "number": 64,
              "time": 86.33337649999987,
              "value": 1
            },
            {
              "number": 64,
              "time": 86.66670999999985,
              "value": 0
            },
            {
              "number": 64,
              "time": 89.66671149999985,
              "value": 1
            },
            {
              "number": 64,
              "time": 90.52365637291649,
              "value": 0
            },
            {
              "number": 64,
              "time": 95.00004749999977,
              "value": 1
            },
            {
              "number": 64,
              "time": 96.33338149999976,
              "value": 0
            }
          ]
        },
        "id": 1,
        "name": "Grand Piano",
        "instrumentNumber": 0,
        "instrument": "acoustic grand piano",
        "instrumentFamily": "piano",
        "channelNumber": 0,
        "isPercussion": false
      },
      {
        "startTime": 0,
        "duration": 96.66671499999966,
        "length": 825,
        "notes": [
          {
            "name": "D#5",
            "midi": 75,
            "time": 0,
            "velocity": 0.3858267716535433,
            "duration": 0.16666675
          },
          {
            "name": "F5",
            "midi": 77,
            "time": 0,
            "velocity": 0.3858267716535433,
            "duration": 0.16666675
          },
          {
            "name": "B4",
            "midi": 71,
            "time": 0.16666675,
            "velocity": 0.3858267716535433,
            "duration": 0.16666675
          },
          {
            "name": "D#5",
            "midi": 75,
            "time": 0.3333335,
            "velocity": 0.3858267716535433,
            "duration": 0.16666675000000003
          },
          {
            "name": "F5",
            "midi": 77,
            "time": 0.3333335,
            "velocity": 0.3858267716535433,
            "duration": 0.16666675000000003
          },
          {
            "name": "B4",
            "midi": 71,
            "time": 0.50000025,
            "velocity": 0.3858267716535433,
            "duration": 0.16666674999999997
          },
          {
            "name": "D#5",
            "midi": 75,
            "time": 0.666667,
            "velocity": 0.3858267716535433,
            "duration": 0.16666674999999997
          },
          {
            "name": "F5",
            "midi": 77,
            "time": 0.666667,
            "velocity": 0.3858267716535433,
            "duration": 0.16666674999999997
          },
          {
            "name": "B4",
            "midi": 71,
            "time": 0.83333375,
            "velocity": 0.3858267716535433,
            "duration": 0.16666675000000009
          },
          {
            "name": "D#5",
            "midi": 75,
            "time": 1.0000005,
            "velocity": 0.3858267716535433,
            "duration": 0.16666675000000009
          },
          {
            "name": "F#5",
            "midi": 78,
            "time": 1.0000005,
            "velocity": 0.3858267716535433,
            "duration": 0.16666675000000009
          },
          {
            "name": "B4",
            "midi": 71,
            "time": 1.1666672500000002,
            "velocity": 0.3858267716535433,
            "duration": 0.16666675000000009
          },
          {
            "name": "F5",
            "midi": 77,
            "time": 1.1666672500000002,
            "velocity": 0.3858267716535433,
            "duration": 0.16666675000000009
          },
          {
            "name": "D#5",
            "midi": 75,
            "time": 1.3333340000000002,
            "velocity": 0.3858267716535433,
            "duration": 0.16666675000000009
          },
          {
            "name": "F#5",
            "midi": 78,
            "time": 1.3333340000000002,
            "velocity": 0.3858267716535433,
            "duration": 0.16666675000000009
          },
          {
            "name": "B4",
            "midi": 71,
            "time": 1.5000007500000003,
            "velocity": 0.3858267716535433,
            "duration": 0.16666675000000009
          },
          {
            "name": "F5",
            "midi": 77,
            "time": 1.5000007500000003,
            "velocity": 0.3858267716535433,
            "duration": 0.16666675000000009
          },
          {
            "name": "D#5",
            "midi": 75,
            "time": 1.6666675000000004,
            "velocity": 0.3858267716535433,
            "duration": 0.16666675000000009
          },
          {
            "name": "F#5",
            "midi": 78,
            "time": 1.6666675000000004,
            "velocity": 0.3858267716535433,
            "duration": 0.16666675000000009
          },
          {
            "name": "B4",
            "midi": 71,
            "time": 1.8333342500000005,
            "velocity": 0.3858267716535433,
            "duration": 0.16666675000000009
          },
          {
            "name": "F5",
            "midi": 77,
            "time": 1.8333342500000005,
            "velocity": 0.3858267716535433,
            "duration": 0.16666675000000009
          },
          {
            "name": "D#5",
            "midi": 75,
            "time": 2.0000010000000006,
            "velocity": 0.3858267716535433,
            "duration": 0.16666675000000009
          },
          {
            "name": "G5",
            "midi": 79,
            "time": 2.0000010000000006,
            "velocity": 0.3858267716535433,
            "duration": 0.16666675000000009
          },
          {
            "name": "B4",
            "midi": 71,
            "time": 2.1666677500000007,
            "velocity": 0.3858267716535433,
            "duration": 0.16666675000000009
          },
          {
            "name": "F5",
            "midi": 77,
            "time": 2.1666677500000007,
            "velocity": 0.3858267716535433,
            "duration": 0.16666675000000009
          },
          {
            "name": "D#5",
            "midi": 75,
            "time": 2.3333345000000008,
            "velocity": 0.3858267716535433,
            "duration": 0.16666675000000009
          },
          {
            "name": "G5",
            "midi": 79,
            "time": 2.3333345000000008,
            "velocity": 0.3858267716535433,
            "duration": 0.16666675000000009
          },
          {
            "name": "B4",
            "midi": 71,
            "time": 2.500001250000001,
            "velocity": 0.3858267716535433,
            "duration": 0.16666675000000009
          },
          {
            "name": "F5",
            "midi": 77,
            "time": 2.500001250000001,
            "velocity": 0.3858267716535433,
            "duration": 0.16666675000000009
          },
          {
            "name": "D#5",
            "midi": 75,
            "time": 2.666668000000001,
            "velocity": 0.3858267716535433,
            "duration": 0.16666675000000009
          },
          {
            "name": "G5",
            "midi": 79,
            "time": 2.666668000000001,
            "velocity": 0.3858267716535433,
            "duration": 0.16666675000000009
          },
          {
            "name": "B4",
            "midi": 71,
            "time": 2.833334750000001,
            "velocity": 0.3858267716535433,
            "duration": 0.16666675000000009
          },
          {
            "name": "F5",
            "midi": 77,
            "time": 2.833334750000001,
            "velocity": 0.3858267716535433,
            "duration": 0.16666675000000009
          },
          {
            "name": "D#5",
            "midi": 75,
            "time": 3.000001500000001,
            "velocity": 0.3858267716535433,
            "duration": 0.16666675000000009
          },
          {
            "name": "G#5",
            "midi": 80,
            "time": 3.000001500000001,
            "velocity": 0.3858267716535433,
            "duration": 0.16666675000000009
          },
          {
            "name": "B4",
            "midi": 71,
            "time": 3.166668250000001,
            "velocity": 0.3858267716535433,
            "duration": 0.16666675000000009
          },
          {
            "name": "F5",
            "midi": 77,
            "time": 3.166668250000001,
            "velocity": 0.3858267716535433,
            "duration": 0.16666675000000009
          },
          {
            "name": "D#5",
            "midi": 75,
            "time": 3.3333350000000013,
            "velocity": 0.3858267716535433,
            "duration": 0.16666675000000009
          },
          {
            "name": "G#5",
            "midi": 80,
            "time": 3.3333350000000013,
            "velocity": 0.3858267716535433,
            "duration": 0.16666675000000009
          },
          {
            "name": "B4",
            "midi": 71,
            "time": 3.5000017500000014,
            "velocity": 0.3858267716535433,
            "duration": 0.16666675000000009
          },
          {
            "name": "F5",
            "midi": 77,
            "time": 3.5000017500000014,
            "velocity": 0.3858267716535433,
            "duration": 0.16666675000000009
          },
          {
            "name": "D#5",
            "midi": 75,
            "time": 3.6666685000000014,
            "velocity": 0.3858267716535433,
            "duration": 0.16666675000000009
          },
          {
            "name": "G#5",
            "midi": 80,
            "time": 3.6666685000000014,
            "velocity": 0.3858267716535433,
            "duration": 0.16666675000000009
          },
          {
            "name": "B4",
            "midi": 71,
            "time": 3.8333352500000015,
            "velocity": 0.3858267716535433,
            "duration": 0.16666674999999964
          },
          {
            "name": "F5",
            "midi": 77,
            "time": 3.8333352500000015,
            "velocity": 0.3858267716535433,
            "duration": 0.16666674999999964
          },
          {
            "name": "C5",
            "midi": 72,
            "time": 4.000002000000001,
            "velocity": 0.3858267716535433,
            "duration": 0.0833333749999996
          },
          {
            "name": "F5",
            "midi": 77,
            "time": 4.000002000000001,
            "velocity": 0.3858267716535433,
            "duration": 0.0833333749999996
          },
          {
            "name": "A5",
            "midi": 81,
            "time": 4.000002000000001,
            "velocity": 0.3858267716535433,
            "duration": 0.0833333749999996
          },
          {
            "name": "B4",
            "midi": 71,
            "time": 4.083335375000001,
            "velocity": 0.3858267716535433,
            "duration": 0.0833333749999996
          },
          {
            "name": "C5",
            "midi": 72,
            "time": 4.16666875,
            "velocity": 0.3858267716535433,
            "duration": 0.0833333749999996
          },
          {
            "name": "F5",
            "midi": 77,
            "time": 4.16666875,
            "velocity": 0.3858267716535433,
            "duration": 0.0833333749999996
          },
          {
            "name": "A5",
            "midi": 81,
            "time": 4.16666875,
            "velocity": 0.3858267716535433,
            "duration": 0.0833333749999996
          },
          {
            "name": "B4",
            "midi": 71,
            "time": 4.250002125,
            "velocity": 0.3858267716535433,
            "duration": 0.0833333749999996
          },
          {
            "name": "C#5",
            "midi": 73,
            "time": 4.666669,
            "velocity": 0.3858267716535433,
            "duration": 0.0833333749999996
          },
          {
            "name": "F5",
            "midi": 77,
            "time": 4.666669,
            "velocity": 0.3858267716535433,
            "duration": 0.0833333749999996
          },
          {
            "name": "A5",
            "midi": 81,
            "time": 4.666669,
            "velocity": 0.3858267716535433,
            "duration": 0.0833333749999996
          },
          {
            "name": "B4",
            "midi": 71,
            "time": 4.750002374999999,
            "velocity": 0.3858267716535433,
            "duration": 0.0833333749999996
          },
          {
            "name": "C#5",
            "midi": 73,
            "time": 4.833335749999999,
            "velocity": 0.3858267716535433,
            "duration": 0.0833333749999996
          },
          {
            "name": "F5",
            "midi": 77,
            "time": 4.833335749999999,
            "velocity": 0.3858267716535433,
            "duration": 0.0833333749999996
          },
          {
            "name": "A5",
            "midi": 81,
            "time": 4.833335749999999,
            "velocity": 0.3858267716535433,
            "duration": 0.0833333749999996
          },
          {
            "name": "B4",
            "midi": 71,
            "time": 4.9166691249999985,
            "velocity": 0.3858267716535433,
            "duration": 0.0833333749999996
          },
          {
            "name": "D5",
            "midi": 74,
            "time": 5.333335999999998,
            "velocity": 0.3858267716535433,
            "duration": 0.0833333749999996
          },
          {
            "name": "F5",
            "midi": 77,
            "time": 5.333335999999998,
            "velocity": 0.3858267716535433,
            "duration": 0.0833333749999996
          },
          {
            "name": "A5",
            "midi": 81,
            "time": 5.333335999999998,
            "velocity": 0.3858267716535433,
            "duration": 0.0833333749999996
          },
          {
            "name": "B4",
            "midi": 71,
            "time": 5.416669374999998,
            "velocity": 0.3858267716535433,
            "duration": 0.0833333749999996
          },
          {
            "name": "D5",
            "midi": 74,
            "time": 5.5000027499999975,
            "velocity": 0.3858267716535433,
            "duration": 0.0833333749999996
          },
          {
            "name": "F5",
            "midi": 77,
            "time": 5.5000027499999975,
            "velocity": 0.3858267716535433,
            "duration": 0.0833333749999996
          },
          {
            "name": "A5",
            "midi": 81,
            "time": 5.5000027499999975,
            "velocity": 0.3858267716535433,
            "duration": 0.0833333749999996
          },
          {
            "name": "B4",
            "midi": 71,
            "time": 5.583336124999997,
            "velocity": 0.3858267716535433,
            "duration": 0.0833333749999996
          },
          {
            "name": "D#5",
            "midi": 75,
            "time": 6.000002999999997,
            "velocity": 0.3858267716535433,
            "duration": 0.0833333749999996
          },
          {
            "name": "F5",
            "midi": 77,
            "time": 6.000002999999997,
            "velocity": 0.3858267716535433,
            "duration": 0.0833333749999996
          },
          {
            "name": "A5",
            "midi": 81,
            "time": 6.000002999999997,
            "velocity": 0.3858267716535433,
            "duration": 0.0833333749999996
          },
          {
            "name": "B4",
            "midi": 71,
            "time": 6.0833363749999965,
            "velocity": 0.3858267716535433,
            "duration": 0.0833333749999996
          },
          {
            "name": "D#5",
            "midi": 75,
            "time": 6.166669749999996,
            "velocity": 0.3858267716535433,
            "duration": 0.0833333749999996
          },
          {
            "name": "F5",
            "midi": 77,
            "time": 6.166669749999996,
            "velocity": 0.3858267716535433,
            "duration": 0.0833333749999996
          },
          {
            "name": "A5",
            "midi": 81,
            "time": 6.166669749999996,
            "velocity": 0.3858267716535433,
            "duration": 0.0833333749999996
          },
          {
            "name": "B4",
            "midi": 71,
            "time": 6.250003124999996,
            "velocity": 0.3858267716535433,
            "duration": 0.0833333749999996
          },
          {
            "name": "D#5",
            "midi": 75,
            "time": 6.333336499999995,
            "velocity": 0.3858267716535433,
            "duration": 0.0833333749999996
          },
          {
            "name": "F5",
            "midi": 77,
            "time": 6.333336499999995,
            "velocity": 0.3858267716535433,
            "duration": 0.0833333749999996
          },
          {
            "name": "A5",
            "midi": 81,
            "time": 6.333336499999995,
            "velocity": 0.3858267716535433,
            "duration": 0.0833333749999996
          },
          {
            "name": "B4",
            "midi": 71,
            "time": 6.416669874999995,
            "velocity": 0.3858267716535433,
            "duration": 0.0833333749999996
          },
          {
            "name": "D#5",
            "midi": 75,
            "time": 6.5000032499999945,
            "velocity": 0.3858267716535433,
            "duration": 0.0833333749999996
          },
          {
            "name": "F5",
            "midi": 77,
            "time": 6.5000032499999945,
            "velocity": 0.3858267716535433,
            "duration": 0.0833333749999996
          },
          {
            "name": "A5",
            "midi": 81,
            "time": 6.5000032499999945,
            "velocity": 0.3858267716535433,
            "duration": 0.0833333749999996
          },
          {
            "name": "B4",
            "midi": 71,
            "time": 6.583336624999994,
            "velocity": 0.3858267716535433,
            "duration": 0.0833333749999996
          },
          {
            "name": "D#5",
            "midi": 75,
            "time": 6.666669999999994,
            "velocity": 0.3858267716535433,
            "duration": 0.0833333749999996
          },
          {
            "name": "F5",
            "midi": 77,
            "time": 6.666669999999994,
            "velocity": 0.3858267716535433,
            "duration": 0.0833333749999996
          },
          {
            "name": "A5",
            "midi": 81,
            "time": 6.666669999999994,
            "velocity": 0.3858267716535433,
            "duration": 0.0833333749999996
          },
          {
            "name": "B4",
            "midi": 71,
            "time": 6.750003374999993,
            "velocity": 0.3858267716535433,
            "duration": 0.0833333749999996
          },
          {
            "name": "D#5",
            "midi": 75,
            "time": 6.833336749999993,
            "velocity": 0.3858267716535433,
            "duration": 0.0833333749999996
          },
          {
            "name": "F5",
            "midi": 77,
            "time": 6.833336749999993,
            "velocity": 0.3858267716535433,
            "duration": 0.0833333749999996
          },
          {
            "name": "A5",
            "midi": 81,
            "time": 6.833336749999993,
            "velocity": 0.3858267716535433,
            "duration": 0.0833333749999996
          },
          {
            "name": "B4",
            "midi": 71,
            "time": 6.9166701249999925,
            "velocity": 0.3858267716535433,
            "duration": 0.0833333749999996
          },
          {
            "name": "D#5",
            "midi": 75,
            "time": 7.333336999999992,
            "velocity": 0.3858267716535433,
            "duration": 0.0833333749999996
          },
          {
            "name": "F5",
            "midi": 77,
            "time": 7.333336999999992,
            "velocity": 0.3858267716535433,
            "duration": 0.0833333749999996
          },
          {
            "name": "A5",
            "midi": 81,
            "time": 7.333336999999992,
            "velocity": 0.3858267716535433,
            "duration": 0.0833333749999996
          },
          {
            "name": "B4",
            "midi": 71,
            "time": 7.416670374999992,
            "velocity": 0.3858267716535433,
            "duration": 0.0833333749999996
          },
          {
            "name": "D#5",
            "midi": 75,
            "time": 7.500003749999991,
            "velocity": 0.3858267716535433,
            "duration": 0.0833333749999996
          },
          {
            "name": "F5",
            "midi": 77,
            "time": 7.500003749999991,
            "velocity": 0.3858267716535433,
            "duration": 0.0833333749999996
          },
          {
            "name": "A5",
            "midi": 81,
            "time": 7.500003749999991,
            "velocity": 0.3858267716535433,
            "duration": 0.0833333749999996
          },
          {
            "name": "B4",
            "midi": 71,
            "time": 7.583337124999991,
            "velocity": 0.3858267716535433,
            "duration": 0.0833333749999996
          },
          {
            "name": "F#5",
            "midi": 78,
            "time": 8.00000399999999,
            "velocity": 0.3858267716535433,
            "duration": 0.1666667499999992
          },
          {
            "name": "G#5",
            "midi": 80,
            "time": 8.00000399999999,
            "velocity": 0.3858267716535433,
            "duration": 0.1666667499999992
          },
          {
            "name": "D5",
            "midi": 74,
            "time": 8.166670749999989,
            "velocity": 0.3858267716535433,
            "duration": 0.1666667499999992
          },
          {
            "name": "F#5",
            "midi": 78,
            "time": 8.333337499999988,
            "velocity": 0.3858267716535433,
            "duration": 0.1666667499999992
          },
          {
            "name": "G#5",
            "midi": 80,
            "time": 8.333337499999988,
            "velocity": 0.3858267716535433,
            "duration": 0.1666667499999992
          },
          {
            "name": "D5",
            "midi": 74,
            "time": 8.500004249999987,
            "velocity": 0.3858267716535433,
            "duration": 0.1666667499999992
          },
          {
            "name": "F#5",
            "midi": 78,
            "time": 8.666670999999987,
            "velocity": 0.3858267716535433,
            "duration": 0.1666667499999992
          },
          {
            "name": "G#5",
            "midi": 80,
            "time": 8.666670999999987,
            "velocity": 0.3858267716535433,
            "duration": 0.1666667499999992
          },
          {
            "name": "D5",
            "midi": 74,
            "time": 8.833337749999986,
            "velocity": 0.3858267716535433,
            "duration": 0.1666667499999992
          },
          {
            "name": "F#5",
            "midi": 78,
            "time": 9.000004499999985,
            "velocity": 0.3858267716535433,
            "duration": 0.1666667499999992
          },
          {
            "name": "A5",
            "midi": 81,
            "time": 9.000004499999985,
            "velocity": 0.3858267716535433,
            "duration": 0.1666667499999992
          },
          {
            "name": "D5",
            "midi": 74,
            "time": 9.166671249999984,
            "velocity": 0.3858267716535433,
            "duration": 0.1666667499999992
          },
          {
            "name": "G#5",
            "midi": 80,
            "time": 9.166671249999984,
            "velocity": 0.3858267716535433,
            "duration": 0.1666667499999992
          },
          {
            "name": "F#5",
            "midi": 78,
            "time": 9.333337999999983,
            "velocity": 0.3858267716535433,
            "duration": 0.1666667499999992
          },
          {
            "name": "A5",
            "midi": 81,
            "time": 9.333337999999983,
            "velocity": 0.3858267716535433,
            "duration": 0.1666667499999992
          },
          {
            "name": "D5",
            "midi": 74,
            "time": 9.500004749999983,
            "velocity": 0.3858267716535433,
            "duration": 0.1666667499999992
          },
          {
            "name": "G#5",
            "midi": 80,
            "time": 9.500004749999983,
            "velocity": 0.3858267716535433,
            "duration": 0.1666667499999992
          },
          {
            "name": "F#5",
            "midi": 78,
            "time": 9.666671499999982,
            "velocity": 0.3858267716535433,
            "duration": 0.1666667499999992
          },
          {
            "name": "A5",
            "midi": 81,
            "time": 9.666671499999982,
            "velocity": 0.3858267716535433,
            "duration": 0.1666667499999992
          },
          {
            "name": "D5",
            "midi": 74,
            "time": 9.833338249999981,
            "velocity": 0.3858267716535433,
            "duration": 0.1666667499999992
          },
          {
            "name": "G#5",
            "midi": 80,
            "time": 9.833338249999981,
            "velocity": 0.3858267716535433,
            "duration": 0.1666667499999992
          },
          {
            "name": "F#5",
            "midi": 78,
            "time": 10.00000499999998,
            "velocity": 0.3858267716535433,
            "duration": 0.1666667499999992
          },
          {
            "name": "A#5",
            "midi": 82,
            "time": 10.00000499999998,
            "velocity": 0.3858267716535433,
            "duration": 0.1666667499999992
          },
          {
            "name": "D5",
            "midi": 74,
            "time": 10.16667174999998,
            "velocity": 0.3858267716535433,
            "duration": 0.1666667499999992
          },
          {
            "name": "G#5",
            "midi": 80,
            "time": 10.16667174999998,
            "velocity": 0.3858267716535433,
            "duration": 0.1666667499999992
          },
          {
            "name": "F#5",
            "midi": 78,
            "time": 10.333338499999979,
            "velocity": 0.3858267716535433,
            "duration": 0.1666667499999992
          },
          {
            "name": "A#5",
            "midi": 82,
            "time": 10.333338499999979,
            "velocity": 0.3858267716535433,
            "duration": 0.1666667499999992
          },
          {
            "name": "D5",
            "midi": 74,
            "time": 10.500005249999978,
            "velocity": 0.3858267716535433,
            "duration": 0.1666667499999992
          },
          {
            "name": "G#5",
            "midi": 80,
            "time": 10.500005249999978,
            "velocity": 0.3858267716535433,
            "duration": 0.1666667499999992
          },
          {
            "name": "F#5",
            "midi": 78,
            "time": 10.666671999999977,
            "velocity": 0.3858267716535433,
            "duration": 0.1666667499999992
          },
          {
            "name": "A#5",
            "midi": 82,
            "time": 10.666671999999977,
            "velocity": 0.3858267716535433,
            "duration": 0.1666667499999992
          },
          {
            "name": "D5",
            "midi": 74,
            "time": 10.833338749999976,
            "velocity": 0.3858267716535433,
            "duration": 0.1666667499999992
          },
          {
            "name": "G#5",
            "midi": 80,
            "time": 10.833338749999976,
            "velocity": 0.3858267716535433,
            "duration": 0.1666667499999992
          },
          {
            "name": "F#5",
            "midi": 78,
            "time": 11.000005499999975,
            "velocity": 0.3858267716535433,
            "duration": 0.1666667499999992
          },
          {
            "name": "B5",
            "midi": 83,
            "time": 11.000005499999975,
            "velocity": 0.3858267716535433,
            "duration": 0.1666667499999992
          },
          {
            "name": "D5",
            "midi": 74,
            "time": 11.166672249999975,
            "velocity": 0.3858267716535433,
            "duration": 0.1666667499999992
          },
          {
            "name": "G#5",
            "midi": 80,
            "time": 11.166672249999975,
            "velocity": 0.3858267716535433,
            "duration": 0.1666667499999992
          },
          {
            "name": "F#5",
            "midi": 78,
            "time": 11.333338999999974,
            "velocity": 0.3858267716535433,
            "duration": 0.1666667499999992
          },
          {
            "name": "B5",
            "midi": 83,
            "time": 11.333338999999974,
            "velocity": 0.3858267716535433,
            "duration": 0.1666667499999992
          },
          {
            "name": "D5",
            "midi": 74,
            "time": 11.500005749999973,
            "velocity": 0.3858267716535433,
            "duration": 0.1666667499999992
          },
          {
            "name": "G#5",
            "midi": 80,
            "time": 11.500005749999973,
            "velocity": 0.3858267716535433,
            "duration": 0.1666667499999992
          },
          {
            "name": "F#5",
            "midi": 78,
            "time": 11.666672499999972,
            "velocity": 0.3858267716535433,
            "duration": 0.1666667499999992
          },
          {
            "name": "B5",
            "midi": 83,
            "time": 11.666672499999972,
            "velocity": 0.3858267716535433,
            "duration": 0.1666667499999992
          },
          {
            "name": "D5",
            "midi": 74,
            "time": 11.833339249999971,
            "velocity": 0.3858267716535433,
            "duration": 0.1666667499999992
          },
          {
            "name": "G#5",
            "midi": 80,
            "time": 11.833339249999971,
            "velocity": 0.3858267716535433,
            "duration": 0.1666667499999992
          },
          {
            "name": "D#5",
            "midi": 75,
            "time": 12.00000599999997,
            "velocity": 0.3858267716535433,
            "duration": 0.08333337500000049
          },
          {
            "name": "G#5",
            "midi": 80,
            "time": 12.00000599999997,
            "velocity": 0.3858267716535433,
            "duration": 0.08333337500000049
          },
          {
            "name": "C6",
            "midi": 84,
            "time": 12.00000599999997,
            "velocity": 0.3858267716535433,
            "duration": 0.08333337500000049
          },
          {
            "name": "D5",
            "midi": 74,
            "time": 12.083339374999971,
            "velocity": 0.3858267716535433,
            "duration": 0.08333337500000049
          },
          {
            "name": "D#5",
            "midi": 75,
            "time": 12.166672749999972,
            "velocity": 0.3858267716535433,
            "duration": 0.08333337500000049
          },
          {
            "name": "G#5",
            "midi": 80,
            "time": 12.166672749999972,
            "velocity": 0.3858267716535433,
            "duration": 0.08333337500000049
          },
          {
            "name": "C6",
            "midi": 84,
            "time": 12.166672749999972,
            "velocity": 0.3858267716535433,
            "duration": 0.08333337500000049
          },
          {
            "name": "D5",
            "midi": 74,
            "time": 12.250006124999972,
            "velocity": 0.3858267716535433,
            "duration": 0.08333337500000049
          },
          {
            "name": "E5",
            "midi": 76,
            "time": 12.666672999999973,
            "velocity": 0.3858267716535433,
            "duration": 0.08333337500000049
          },
          {
            "name": "G#5",
            "midi": 80,
            "time": 12.666672999999973,
            "velocity": 0.3858267716535433,
            "duration": 0.08333337500000049
          },
          {
            "name": "C6",
            "midi": 84,
            "time": 12.666672999999973,
            "velocity": 0.3858267716535433,
            "duration": 0.08333337500000049
          },
          {
            "name": "D5",
            "midi": 74,
            "time": 12.750006374999973,
            "velocity": 0.3858267716535433,
            "duration": 0.08333337500000049
          },
          {
            "name": "E5",
            "midi": 76,
            "time": 12.833339749999974,
            "velocity": 0.3858267716535433,
            "duration": 0.08333337500000049
          },
          {
            "name": "G#5",
            "midi": 80,
            "time": 12.833339749999974,
            "velocity": 0.3858267716535433,
            "duration": 0.08333337500000049
          },
          {
            "name": "C6",
            "midi": 84,
            "time": 12.833339749999974,
            "velocity": 0.3858267716535433,
            "duration": 0.08333337500000049
          },
          {
            "name": "D5",
            "midi": 74,
            "time": 12.916673124999974,
            "velocity": 0.3858267716535433,
            "duration": 0.08333337500000049
          },
          {
            "name": "F5",
            "midi": 77,
            "time": 13.333339999999975,
            "velocity": 0.3858267716535433,
            "duration": 0.08333337500000049
          },
          {
            "name": "G#5",
            "midi": 80,
            "time": 13.333339999999975,
            "velocity": 0.3858267716535433,
            "duration": 0.08333337500000049
          },
          {
            "name": "C6",
            "midi": 84,
            "time": 13.333339999999975,
            "velocity": 0.3858267716535433,
            "duration": 0.08333337500000049
          },
          {
            "name": "D5",
            "midi": 74,
            "time": 13.416673374999975,
            "velocity": 0.3858267716535433,
            "duration": 0.08333337500000049
          },
          {
            "name": "F5",
            "midi": 77,
            "time": 13.500006749999976,
            "velocity": 0.3858267716535433,
            "duration": 0.08333337500000049
          },
          {
            "name": "G#5",
            "midi": 80,
            "time": 13.500006749999976,
            "velocity": 0.3858267716535433,
            "duration": 0.08333337500000049
          },
          {
            "name": "C6",
            "midi": 84,
            "time": 13.500006749999976,
            "velocity": 0.3858267716535433,
            "duration": 0.08333337500000049
          },
          {
            "name": "D5",
            "midi": 74,
            "time": 13.583340124999976,
            "velocity": 0.3858267716535433,
            "duration": 0.08333337500000049
          },
          {
            "name": "F#5",
            "midi": 78,
            "time": 14.000006999999977,
            "velocity": 0.3858267716535433,
            "duration": 0.08333337500000049
          },
          {
            "name": "G#5",
            "midi": 80,
            "time": 14.000006999999977,
            "velocity": 0.3858267716535433,
            "duration": 0.08333337500000049
          },
          {
            "name": "C6",
            "midi": 84,
            "time": 14.000006999999977,
            "velocity": 0.3858267716535433,
            "duration": 0.08333337500000049
          },
          {
            "name": "D#5",
            "midi": 75,
            "time": 14.083340374999977,
            "velocity": 0.3858267716535433,
            "duration": 0.08333337500000049
          },
          {
            "name": "F#5",
            "midi": 78,
            "time": 14.166673749999978,
            "velocity": 0.3858267716535433,
            "duration": 0.08333337500000049
          },
          {
            "name": "G#5",
            "midi": 80,
            "time": 14.166673749999978,
            "velocity": 0.3858267716535433,
            "duration": 0.08333337500000049
          },
          {
            "name": "C6",
            "midi": 84,
            "time": 14.166673749999978,
            "velocity": 0.3858267716535433,
            "duration": 0.08333337500000049
          },
          {
            "name": "D#5",
            "midi": 75,
            "time": 14.250007124999978,
            "velocity": 0.3858267716535433,
            "duration": 0.08333337500000049
          },
          {
            "name": "F#5",
            "midi": 78,
            "time": 14.333340499999979,
            "velocity": 0.3858267716535433,
            "duration": 0.08333337500000049
          },
          {
            "name": "G#5",
            "midi": 80,
            "time": 14.333340499999979,
            "velocity": 0.3858267716535433,
            "duration": 0.08333337500000049
          },
          {
            "name": "C6",
            "midi": 84,
            "time": 14.333340499999979,
            "velocity": 0.3858267716535433,
            "duration": 0.08333337500000049
          },
          {
            "name": "D#5",
            "midi": 75,
            "time": 14.41667387499998,
            "velocity": 0.3858267716535433,
            "duration": 0.08333337500000049
          },
          {
            "name": "F#5",
            "midi": 78,
            "time": 14.50000724999998,
            "velocity": 0.3858267716535433,
            "duration": 0.08333337500000049
          },
          {
            "name": "G#5",
            "midi": 80,
            "time": 14.50000724999998,
            "velocity": 0.3858267716535433,
            "duration": 0.08333337500000049
          },
          {
            "name": "C6",
            "midi": 84,
            "time": 14.50000724999998,
            "velocity": 0.3858267716535433,
            "duration": 0.08333337500000049
          },
          {
            "name": "D#5",
            "midi": 75,
            "time": 14.58334062499998,
            "velocity": 0.3858267716535433,
            "duration": 0.08333337500000049
          },
          {
            "name": "F#5",
            "midi": 78,
            "time": 14.666673999999981,
            "velocity": 0.3858267716535433,
            "duration": 0.08333337500000049
          },
          {
            "name": "G#5",
            "midi": 80,
            "time": 14.666673999999981,
            "velocity": 0.3858267716535433,
            "duration": 0.08333337500000049
          },
          {
            "name": "C6",
            "midi": 84,
            "time": 14.666673999999981,
            "velocity": 0.3858267716535433,
            "duration": 0.08333337500000049
          },
          {
            "name": "D#5",
            "midi": 75,
            "time": 14.750007374999981,
            "velocity": 0.3858267716535433,
            "duration": 0.08333337500000049
          },
          {
            "name": "F#5",
            "midi": 78,
            "time": 14.833340749999982,
            "velocity": 0.3858267716535433,
            "duration": 0.08333337500000049
          },
          {
            "name": "G#5",
            "midi": 80,
            "time": 14.833340749999982,
            "velocity": 0.3858267716535433,
            "duration": 0.08333337500000049
          },
          {
            "name": "C6",
            "midi": 84,
            "time": 14.833340749999982,
            "velocity": 0.3858267716535433,
            "duration": 0.08333337500000049
          },
          {
            "name": "D#5",
            "midi": 75,
            "time": 14.916674124999982,
            "velocity": 0.3858267716535433,
            "duration": 0.08333337500000049
          },
          {
            "name": "F#5",
            "midi": 78,
            "time": 15.333340999999983,
            "velocity": 0.3858267716535433,
            "duration": 0.08333337500000049
          },
          {
            "name": "G#5",
            "midi": 80,
            "time": 15.333340999999983,
            "velocity": 0.3858267716535433,
            "duration": 0.08333337500000049
          },
          {
            "name": "C6",
            "midi": 84,
            "time": 15.333340999999983,
            "velocity": 0.3858267716535433,
            "duration": 0.08333337500000049
          },
          {
            "name": "D#5",
            "midi": 75,
            "time": 15.416674374999983,
            "velocity": 0.3858267716535433,
            "duration": 0.08333337500000049
          },
          {
            "name": "F#5",
            "midi": 78,
            "time": 15.500007749999984,
            "velocity": 0.3858267716535433,
            "duration": 0.08333337500000049
          },
          {
            "name": "G#5",
            "midi": 80,
            "time": 15.500007749999984,
            "velocity": 0.3858267716535433,
            "duration": 0.08333337500000049
          },
          {
            "name": "C6",
            "midi": 84,
            "time": 15.500007749999984,
            "velocity": 0.3858267716535433,
            "duration": 0.08333337500000049
          },
          {
            "name": "D#5",
            "midi": 75,
            "time": 15.583341124999984,
            "velocity": 0.3858267716535433,
            "duration": 0.08333337500000049
          },
          {
            "name": "D4",
            "midi": 62,
            "time": 16.000007999999983,
            "velocity": 0.4881889763779528,
            "duration": 0.06527781041666714
          },
          {
            "name": "G4",
            "midi": 67,
            "time": 16.06528581041665,
            "velocity": 0.4881889763779528,
            "duration": 0.06805558958333435
          },
          {
            "name": "C5",
            "midi": 72,
            "time": 16.133341399999985,
            "velocity": 0.4881889763779528,
            "duration": 0.06527781041666714
          },
          {
            "name": "D5",
            "midi": 74,
            "time": 16.198619210416652,
            "velocity": 0.4881889763779528,
            "duration": 0.06805558958333435
          },
          {
            "name": "G5",
            "midi": 79,
            "time": 16.266674799999986,
            "velocity": 0.4881889763779528,
            "duration": 0.06666669999999897
          },
          {
            "name": "C6",
            "midi": 84,
            "time": 16.333341499999985,
            "velocity": 0.4881889763779528,
            "duration": 0.3333334999999984
          },
          {
            "name": "C6",
            "midi": 84,
            "time": 16.666674999999984,
            "velocity": 0.4881889763779528,
            "duration": 0.02083334374999879
          },
          {
            "name": "G5",
            "midi": 79,
            "time": 16.777786166666647,
            "velocity": 0.4881889763779528,
            "duration": 0.022222233333334174
          },
          {
            "name": "D#5",
            "midi": 75,
            "time": 16.887508443749983,
            "velocity": 0.4881889763779528,
            "duration": 0.022222233333334174
          },
          {
            "name": "D5",
            "midi": 74,
            "time": 17.000008499999982,
            "velocity": 0.3858267716535433,
            "duration": 0.08333337499999871
          },
          {
            "name": "D#5",
            "midi": 75,
            "time": 17.08334187499998,
            "velocity": 0.3858267716535433,
            "duration": 0.08333337499999871
          },
          {
            "name": "D5",
            "midi": 74,
            "time": 17.16667524999998,
            "velocity": 0.3858267716535433,
            "duration": 0.08333337499999871
          },
          {
            "name": "D#5",
            "midi": 75,
            "time": 17.25000862499998,
            "velocity": 0.3858267716535433,
            "duration": 0.08333337499999871
          },
          {
            "name": "D5",
            "midi": 74,
            "time": 17.333341999999977,
            "velocity": 0.3858267716535433,
            "duration": 0.08333337499999871
          },
          {
            "name": "D#5",
            "midi": 75,
            "time": 17.416675374999976,
            "velocity": 0.3858267716535433,
            "duration": 0.08333337499999871
          },
          {
            "name": "D5",
            "midi": 74,
            "time": 17.500008749999974,
            "velocity": 0.3858267716535433,
            "duration": 0.08333337499999871
          },
          {
            "name": "D#5",
            "midi": 75,
            "time": 17.583342124999973,
            "velocity": 0.3858267716535433,
            "duration": 0.08333337499999871
          },
          {
            "name": "C#5",
            "midi": 73,
            "time": 17.666675499999972,
            "velocity": 0.3858267716535433,
            "duration": 0.3333334999999984
          },
          {
            "name": "A4",
            "midi": 69,
            "time": 18.33334249999997,
            "velocity": 0.4881889763779528,
            "duration": 0.11111116666666732
          },
          {
            "name": "G#4",
            "midi": 68,
            "time": 18.444453666666636,
            "velocity": 0.4881889763779528,
            "duration": 0.10972227708333193
          },
          {
            "name": "G4",
            "midi": 67,
            "time": 18.554175943749968,
            "velocity": 0.4881889763779528,
            "duration": 0.11250005624999915
          },
          {
            "name": "D#4",
            "midi": 63,
            "time": 18.666675999999967,
            "velocity": 0.4881889763779528,
            "duration": 0.11111116666666732
          },
          {
            "name": "D4",
            "midi": 62,
            "time": 18.777787166666634,
            "velocity": 0.4881889763779528,
            "duration": 0.10972227708333193
          },
          {
            "name": "C#4",
            "midi": 61,
            "time": 18.887509443749966,
            "velocity": 0.4881889763779528,
            "duration": 0.11250005624999915
          },
          {
            "name": "C#5",
            "midi": 73,
            "time": 19.000009499999965,
            "velocity": 0.4881889763779528,
            "duration": 0.11111116666666732
          },
          {
            "name": "G4",
            "midi": 67,
            "time": 19.111120666666633,
            "velocity": 0.4881889763779528,
            "duration": 0.10972227708333193
          },
          {
            "name": "D#4",
            "midi": 63,
            "time": 19.220842943749965,
            "velocity": 0.4881889763779528,
            "duration": 0.11250005624999915
          },
          {
            "name": "D#4",
            "midi": 63,
            "time": 19.666676499999962,
            "velocity": 0.4881889763779528,
            "duration": 0.11111116666666732
          },
          {
            "name": "G4",
            "midi": 67,
            "time": 19.77778766666663,
            "velocity": 0.4881889763779528,
            "duration": 0.10972227708333193
          },
          {
            "name": "C#5",
            "midi": 73,
            "time": 19.88750994374996,
            "velocity": 0.4881889763779528,
            "duration": 0.11250005624999915
          },
          {
            "name": "D#4",
            "midi": 63,
            "time": 20.00000999999996,
            "velocity": 0.4881889763779528,
            "duration": 0.06527781041666714
          },
          {
            "name": "G#4",
            "midi": 68,
            "time": 20.065287810416628,
            "velocity": 0.4881889763779528,
            "duration": 0.06805558958333435
          },
          {
            "name": "C#5",
            "midi": 73,
            "time": 20.133343399999962,
            "velocity": 0.4881889763779528,
            "duration": 0.06527781041666714
          },
          {
            "name": "D#5",
            "midi": 75,
            "time": 20.19862121041663,
            "velocity": 0.4881889763779528,
            "duration": 0.06805558958333435
          },
          {
            "name": "G#5",
            "midi": 80,
            "time": 20.266676799999964,
            "velocity": 0.4881889763779528,
            "duration": 0.06666669999999897
          },
          {
            "name": "C#6",
            "midi": 85,
            "time": 20.333343499999962,
            "velocity": 0.4881889763779528,
            "duration": 0.3333334999999984
          },
          {
            "name": "C#6",
            "midi": 85,
            "time": 20.66667699999996,
            "velocity": 0.4881889763779528,
            "duration": 0.02083334374999879
          },
          {
            "name": "G#5",
            "midi": 80,
            "time": 20.777788166666625,
            "velocity": 0.4881889763779528,
            "duration": 0.022222233333334174
          },
          {
            "name": "E5",
            "midi": 76,
            "time": 20.88751044374996,
            "velocity": 0.4881889763779528,
            "duration": 0.022222233333334174
          },
          {
            "name": "D#5",
            "midi": 75,
            "time": 21.00001049999996,
            "velocity": 0.3858267716535433,
            "duration": 0.08333337499999871
          },
          {
            "name": "E5",
            "midi": 76,
            "time": 21.083343874999958,
            "velocity": 0.3858267716535433,
            "duration": 0.08333337499999871
          },
          {
            "name": "D#5",
            "midi": 75,
            "time": 21.166677249999957,
            "velocity": 0.3858267716535433,
            "duration": 0.08333337499999871
          },
          {
            "name": "E5",
            "midi": 76,
            "time": 21.250010624999955,
            "velocity": 0.3858267716535433,
            "duration": 0.08333337499999871
          },
          {
            "name": "D#5",
            "midi": 75,
            "time": 21.333343999999954,
            "velocity": 0.3858267716535433,
            "duration": 0.08333337499999871
          },
          {
            "name": "E5",
            "midi": 76,
            "time": 21.416677374999953,
            "velocity": 0.3858267716535433,
            "duration": 0.08333337499999871
          },
          {
            "name": "D#5",
            "midi": 75,
            "time": 21.50001074999995,
            "velocity": 0.3858267716535433,
            "duration": 0.08333337499999871
          },
          {
            "name": "E5",
            "midi": 76,
            "time": 21.58334412499995,
            "velocity": 0.3858267716535433,
            "duration": 0.08333337499999871
          },
          {
            "name": "D5",
            "midi": 74,
            "time": 21.66667749999995,
            "velocity": 0.3858267716535433,
            "duration": 0.3333334999999984
          },
          {
            "name": "E4",
            "midi": 64,
            "time": 22.000010999999947,
            "velocity": 0.4881889763779528,
            "duration": 0.06527781041666714
          },
          {
            "name": "A4",
            "midi": 69,
            "time": 22.065288810416614,
            "velocity": 0.4881889763779528,
            "duration": 0.06805558958333435
          },
          {
            "name": "D5",
            "midi": 74,
            "time": 22.13334439999995,
            "velocity": 0.4881889763779528,
            "duration": 0.06527781041666714
          },
          {
            "name": "E5",
            "midi": 76,
            "time": 22.198622210416616,
            "velocity": 0.4881889763779528,
            "duration": 0.06805558958333435
          },
          {
            "name": "A5",
            "midi": 81,
            "time": 22.26667779999995,
            "velocity": 0.4881889763779528,
            "duration": 0.06666669999999897
          },
          {
            "name": "D6",
            "midi": 86,
            "time": 22.33334449999995,
            "velocity": 0.4881889763779528,
            "duration": 0.3333334999999984
          },
          {
            "name": "D6",
            "midi": 86,
            "time": 22.666677999999948,
            "velocity": 0.4881889763779528,
            "duration": 0.02083334374999879
          },
          {
            "name": "A5",
            "midi": 81,
            "time": 22.77778916666661,
            "velocity": 0.4881889763779528,
            "duration": 0.022222233333334174
          },
          {
            "name": "F5",
            "midi": 77,
            "time": 22.887511443749947,
            "velocity": 0.4881889763779528,
            "duration": 0.022222233333334174
          },
          {
            "name": "E5",
            "midi": 76,
            "time": 23.000011499999946,
            "velocity": 0.3858267716535433,
            "duration": 0.08333337499999871
          },
          {
            "name": "F5",
            "midi": 77,
            "time": 23.083344874999945,
            "velocity": 0.3858267716535433,
            "duration": 0.08333337499999871
          },
          {
            "name": "E5",
            "midi": 76,
            "time": 23.166678249999944,
            "velocity": 0.3858267716535433,
            "duration": 0.08333337499999871
          },
          {
            "name": "F5",
            "midi": 77,
            "time": 23.250011624999942,
            "velocity": 0.3858267716535433,
            "duration": 0.08333337499999871
          },
          {
            "name": "E5",
            "midi": 76,
            "time": 23.33334499999994,
            "velocity": 0.3858267716535433,
            "duration": 0.08333337499999871
          },
          {
            "name": "F5",
            "midi": 77,
            "time": 23.41667837499994,
            "velocity": 0.3858267716535433,
            "duration": 0.08333337499999871
          },
          {
            "name": "E5",
            "midi": 76,
            "time": 23.50001174999994,
            "velocity": 0.3858267716535433,
            "duration": 0.08333337499999871
          },
          {
            "name": "F5",
            "midi": 77,
            "time": 23.583345124999937,
            "velocity": 0.3858267716535433,
            "duration": 0.08333337499999871
          },
          {
            "name": "D#5",
            "midi": 75,
            "time": 23.666678499999936,
            "velocity": 0.3858267716535433,
            "duration": 0.3333334999999984
          },
          {
            "name": "F4",
            "midi": 65,
            "time": 24.000011999999934,
            "velocity": 0.4881889763779528,
            "duration": 0.16666675000000097
          },
          {
            "name": "A4",
            "midi": 69,
            "time": 24.000011999999934,
            "velocity": 0.4881889763779528,
            "duration": 0.16666675000000097
          },
          {
            "name": "A#4",
            "midi": 70,
            "time": 24.166678749999935,
            "velocity": 0.4881889763779528,
            "duration": 0.16666675000000097
          },
          {
            "name": "B4",
            "midi": 71,
            "time": 24.333345499999936,
            "velocity": 0.4881889763779528,
            "duration": 0.16666675000000097
          },
          {
            "name": "C5",
            "midi": 72,
            "time": 24.500012249999937,
            "velocity": 0.4881889763779528,
            "duration": 0.16666675000000097
          },
          {
            "name": "C#5",
            "midi": 73,
            "time": 24.666678999999938,
            "velocity": 0.4881889763779528,
            "duration": 0.16666675000000097
          },
          {
            "name": "D5",
            "midi": 74,
            "time": 24.83334574999994,
            "velocity": 0.4881889763779528,
            "duration": 0.16666675000000097
          },
          {
            "name": "D#5",
            "midi": 75,
            "time": 25.00001249999994,
            "velocity": 0.5905511811023622,
            "duration": 0.16666675000000097
          },
          {
            "name": "E5",
            "midi": 76,
            "time": 25.16667924999994,
            "velocity": 0.5905511811023622,
            "duration": 0.16666675000000097
          },
          {
            "name": "F5",
            "midi": 77,
            "time": 25.333345999999942,
            "velocity": 0.5905511811023622,
            "duration": 0.16666675000000097
          },
          {
            "name": "F#5",
            "midi": 78,
            "time": 25.500012749999943,
            "velocity": 0.5905511811023622,
            "duration": 0.16666675000000097
          },
          {
            "name": "G5",
            "midi": 79,
            "time": 25.666679499999944,
            "velocity": 0.5905511811023622,
            "duration": 0.11111116666666732
          },
          {
            "name": "G#5",
            "midi": 80,
            "time": 25.77779066666661,
            "velocity": 0.5905511811023622,
            "duration": 0.10972227708333193
          },
          {
            "name": "A5",
            "midi": 81,
            "time": 25.887512943749943,
            "velocity": 0.5905511811023622,
            "duration": 0.11250005624999915
          },
          {
            "name": "F#5",
            "midi": 78,
            "time": 26.000012999999942,
            "velocity": 0.6929133858267716,
            "duration": 0.08333337499999871
          },
          {
            "name": "A#5",
            "midi": 82,
            "time": 26.000012999999942,
            "velocity": 0.6929133858267716,
            "duration": 0.08333337499999871
          },
          {
            "name": "F5",
            "midi": 77,
            "time": 26.08334637499994,
            "velocity": 0.6929133858267716,
            "duration": 0.08333337499999871
          },
          {
            "name": "F#5",
            "midi": 78,
            "time": 26.16667974999994,
            "velocity": 0.6929133858267716,
            "duration": 0.08333337499999871
          },
          {
            "name": "A#5",
            "midi": 82,
            "time": 26.25001312499994,
            "velocity": 0.6929133858267716,
            "duration": 0.08333337499999871
          },
          {
            "name": "F#6",
            "midi": 90,
            "time": 26.333346499999937,
            "velocity": 0.6929133858267716,
            "duration": 0.3333334999999984
          },
          {
            "name": "A#3",
            "midi": 58,
            "time": 26.666679999999936,
            "velocity": 0.6929133858267716,
            "duration": 0.08333337499999871
          },
          {
            "name": "F5",
            "midi": 77,
            "time": 26.750013374999934,
            "velocity": 0.6929133858267716,
            "duration": 0.08333337499999871
          },
          {
            "name": "F#5",
            "midi": 78,
            "time": 26.833346749999933,
            "velocity": 0.6929133858267716,
            "duration": 0.08333337499999871
          },
          {
            "name": "A#5",
            "midi": 82,
            "time": 26.91668012499993,
            "velocity": 0.6929133858267716,
            "duration": 0.08333337499999871
          },
          {
            "name": "F#6",
            "midi": 90,
            "time": 27.00001349999993,
            "velocity": 0.6929133858267716,
            "duration": 0.3333334999999984
          },
          {
            "name": "A#3",
            "midi": 58,
            "time": 27.33334699999993,
            "velocity": 0.6929133858267716,
            "duration": 0.08333337499999871
          },
          {
            "name": "F5",
            "midi": 77,
            "time": 27.416680374999927,
            "velocity": 0.6929133858267716,
            "duration": 0.08333337499999871
          },
          {
            "name": "F#5",
            "midi": 78,
            "time": 27.500013749999926,
            "velocity": 0.6929133858267716,
            "duration": 0.08333337499999871
          },
          {
            "name": "A#5",
            "midi": 82,
            "time": 27.583347124999925,
            "velocity": 0.6929133858267716,
            "duration": 0.08333337499999871
          },
          {
            "name": "F#6",
            "midi": 90,
            "time": 27.666680499999924,
            "velocity": 0.6929133858267716,
            "duration": 0.08333337499999871
          },
          {
            "name": "A5",
            "midi": 81,
            "time": 27.750013874999922,
            "velocity": 0.6929133858267716,
            "duration": 0.08333337499999871
          },
          {
            "name": "A#5",
            "midi": 82,
            "time": 27.83334724999992,
            "velocity": 0.6929133858267716,
            "duration": 0.08333337499999871
          },
          {
            "name": "E6",
            "midi": 88,
            "time": 27.91668062499992,
            "velocity": 0.6929133858267716,
            "duration": 0.08333337499999871
          },
          {
            "name": "E5",
            "midi": 76,
            "time": 28.00001399999992,
            "velocity": 0.6929133858267716,
            "duration": 0.03194446041666765
          },
          {
            "name": "G#5",
            "midi": 80,
            "time": 28.00001399999992,
            "velocity": 0.6929133858267716,
            "duration": 0.03194446041666765
          },
          {
            "name": "D#5",
            "midi": 75,
            "time": 28.16668074999992,
            "velocity": 0.6929133858267716,
            "duration": 0.03194446041666765
          },
          {
            "name": "F#5",
            "midi": 78,
            "time": 28.16668074999992,
            "velocity": 0.6929133858267716,
            "duration": 0.03194446041666765
          },
          {
            "name": "E5",
            "midi": 76,
            "time": 28.33334749999992,
            "velocity": 0.6929133858267716,
            "duration": 0.03194446041666765
          },
          {
            "name": "G#5",
            "midi": 80,
            "time": 28.33334749999992,
            "velocity": 0.6929133858267716,
            "duration": 0.03194446041666765
          },
          {
            "name": "F5",
            "midi": 77,
            "time": 28.50001424999992,
            "velocity": 0.6929133858267716,
            "duration": 0.03194446041666765
          },
          {
            "name": "A5",
            "midi": 81,
            "time": 28.50001424999992,
            "velocity": 0.6929133858267716,
            "duration": 0.03194446041666765
          },
          {
            "name": "E5",
            "midi": 76,
            "time": 28.666680999999922,
            "velocity": 0.6929133858267716,
            "duration": 0.06527781041666714
          },
          {
            "name": "G#5",
            "midi": 80,
            "time": 28.666680999999922,
            "velocity": 0.6929133858267716,
            "duration": 0.06527781041666714
          },
          {
            "name": "G#4",
            "midi": 68,
            "time": 29.000014499999924,
            "velocity": 0.6929133858267716,
            "duration": 0.04166668750000113
          },
          {
            "name": "C5",
            "midi": 72,
            "time": 29.041681187499925,
            "velocity": 0.6929133858267716,
            "duration": 0.04166668750000113
          },
          {
            "name": "D5",
            "midi": 74,
            "time": 29.083347874999927,
            "velocity": 0.6929133858267716,
            "duration": 0.04166668750000113
          },
          {
            "name": "E5",
            "midi": 76,
            "time": 29.125014562499928,
            "velocity": 0.6929133858267716,
            "duration": 0.04166668750000113
          },
          {
            "name": "G#5",
            "midi": 80,
            "time": 29.16668124999993,
            "velocity": 0.6929133858267716,
            "duration": 0.04166668750000113
          },
          {
            "name": "C6",
            "midi": 84,
            "time": 29.20834793749993,
            "velocity": 0.6929133858267716,
            "duration": 0.04166668750000113
          },
          {
            "name": "D6",
            "midi": 86,
            "time": 29.25001462499993,
            "velocity": 0.6929133858267716,
            "duration": 0.04166668750000113
          },
          {
            "name": "E6",
            "midi": 88,
            "time": 29.291681312499932,
            "velocity": 0.6929133858267716,
            "duration": 0.04166668750000113
          },
          {
            "name": "G#6",
            "midi": 92,
            "time": 29.333347999999933,
            "velocity": 0.6929133858267716,
            "duration": 0.08333337499999871
          },
          {
            "name": "E6",
            "midi": 88,
            "time": 29.416681374999932,
            "velocity": 0.6929133858267716,
            "duration": 0.08333337499999871
          },
          {
            "name": "D6",
            "midi": 86,
            "time": 29.50001474999993,
            "velocity": 0.6929133858267716,
            "duration": 0.08333337499999871
          },
          {
            "name": "C6",
            "midi": 84,
            "time": 29.58334812499993,
            "velocity": 0.6929133858267716,
            "duration": 0.08333337499999871
          },
          {
            "name": "G#5",
            "midi": 80,
            "time": 29.666681499999928,
            "velocity": 0.6929133858267716,
            "duration": 0.3333334999999984
          },
          {
            "name": "A#3",
            "midi": 58,
            "time": 30.000014999999927,
            "velocity": 0.6929133858267716,
            "duration": 0.08333337499999871
          },
          {
            "name": "F5",
            "midi": 77,
            "time": 30.083348374999925,
            "velocity": 0.6929133858267716,
            "duration": 0.08333337499999871
          },
          {
            "name": "F#5",
            "midi": 78,
            "time": 30.166681749999924,
            "velocity": 0.6929133858267716,
            "duration": 0.08333337499999871
          },
          {
            "name": "A#5",
            "midi": 82,
            "time": 30.250015124999923,
            "velocity": 0.6929133858267716,
            "duration": 0.08333337499999871
          },
          {
            "name": "F#6",
            "midi": 90,
            "time": 30.33334849999992,
            "velocity": 0.6929133858267716,
            "duration": 0.3333334999999984
          },
          {
            "name": "A#3",
            "midi": 58,
            "time": 30.66668199999992,
            "velocity": 0.6929133858267716,
            "duration": 0.08333337499999871
          },
          {
            "name": "F5",
            "midi": 77,
            "time": 30.75001537499992,
            "velocity": 0.6929133858267716,
            "duration": 0.08333337499999871
          },
          {
            "name": "F#5",
            "midi": 78,
            "time": 30.833348749999917,
            "velocity": 0.6929133858267716,
            "duration": 0.08333337499999871
          },
          {
            "name": "A#5",
            "midi": 82,
            "time": 30.916682124999916,
            "velocity": 0.6929133858267716,
            "duration": 0.08333337499999871
          },
          {
            "name": "F#6",
            "midi": 90,
            "time": 31.000015499999915,
            "velocity": 0.6929133858267716,
            "duration": 0.3333334999999984
          },
          {
            "name": "A#3",
            "midi": 58,
            "time": 31.333348999999913,
            "velocity": 0.6929133858267716,
            "duration": 0.08333337499999871
          },
          {
            "name": "F5",
            "midi": 77,
            "time": 31.416682374999912,
            "velocity": 0.6929133858267716,
            "duration": 0.08333337499999871
          },
          {
            "name": "F#5",
            "midi": 78,
            "time": 31.50001574999991,
            "velocity": 0.6929133858267716,
            "duration": 0.08333337499999871
          },
          {
            "name": "A#5",
            "midi": 82,
            "time": 31.58334912499991,
            "velocity": 0.6929133858267716,
            "duration": 0.08333337499999871
          },
          {
            "name": "F#6",
            "midi": 90,
            "time": 31.666682499999908,
            "velocity": 0.6929133858267716,
            "duration": 0.08333337499999871
          },
          {
            "name": "A5",
            "midi": 81,
            "time": 31.750015874999907,
            "velocity": 0.6929133858267716,
            "duration": 0.08333337499999871
          },
          {
            "name": "A#5",
            "midi": 82,
            "time": 31.833349249999905,
            "velocity": 0.6929133858267716,
            "duration": 0.08333337499999871
          },
          {
            "name": "E6",
            "midi": 88,
            "time": 31.916682624999904,
            "velocity": 0.6929133858267716,
            "duration": 0.08333337499999871
          },
          {
            "name": "E5",
            "midi": 76,
            "time": 32.0000159999999,
            "velocity": 0.6929133858267716,
            "duration": 0.03194446041666765
          },
          {
            "name": "G#5",
            "midi": 80,
            "time": 32.0000159999999,
            "velocity": 0.6929133858267716,
            "duration": 0.03194446041666765
          },
          {
            "name": "D#5",
            "midi": 75,
            "time": 32.16668274999991,
            "velocity": 0.6929133858267716,
            "duration": 0.03194446041666765
          },
          {
            "name": "G5",
            "midi": 79,
            "time": 32.16668274999991,
            "velocity": 0.6929133858267716,
            "duration": 0.03194446041666765
          },
          {
            "name": "E5",
            "midi": 76,
            "time": 32.33334949999991,
            "velocity": 0.6929133858267716,
            "duration": 0.03194446041666765
          },
          {
            "name": "G#5",
            "midi": 80,
            "time": 32.33334949999991,
            "velocity": 0.6929133858267716,
            "duration": 0.03194446041666765
          },
          {
            "name": "F5",
            "midi": 77,
            "time": 32.500016249999916,
            "velocity": 0.6929133858267716,
            "duration": 0.03194446041666765
          },
          {
            "name": "A5",
            "midi": 81,
            "time": 32.500016249999916,
            "velocity": 0.6929133858267716,
            "duration": 0.03194446041666765
          },
          {
            "name": "E5",
            "midi": 76,
            "time": 32.66668299999992,
            "velocity": 0.6929133858267716,
            "duration": 0.16666674999999742
          },
          {
            "name": "G#5",
            "midi": 80,
            "time": 32.66668299999992,
            "velocity": 0.6929133858267716,
            "duration": 0.16666674999999742
          },
          {
            "name": "F5",
            "midi": 77,
            "time": 32.83334974999992,
            "velocity": 0.6929133858267716,
            "duration": 0.16666674999999742
          },
          {
            "name": "A5",
            "midi": 81,
            "time": 32.83334974999992,
            "velocity": 0.6929133858267716,
            "duration": 0.16666674999999742
          },
          {
            "name": "F#5",
            "midi": 78,
            "time": 33.000016499999916,
            "velocity": 0.6929133858267716,
            "duration": 0.16666674999999742
          },
          {
            "name": "A#5",
            "midi": 82,
            "time": 33.000016499999916,
            "velocity": 0.6929133858267716,
            "duration": 0.16666674999999742
          },
          {
            "name": "G5",
            "midi": 79,
            "time": 33.16668324999991,
            "velocity": 0.6929133858267716,
            "duration": 0.16666674999999742
          },
          {
            "name": "C#6",
            "midi": 85,
            "time": 33.16668324999991,
            "velocity": 0.6929133858267716,
            "duration": 0.16666674999999742
          },
          {
            "name": "G#5",
            "midi": 80,
            "time": 33.33334999999991,
            "velocity": 0.6929133858267716,
            "duration": 0.16666674999999742
          },
          {
            "name": "C6",
            "midi": 84,
            "time": 33.33334999999991,
            "velocity": 0.6929133858267716,
            "duration": 0.16666674999999742
          },
          {
            "name": "A5",
            "midi": 81,
            "time": 33.50001674999991,
            "velocity": 0.6929133858267716,
            "duration": 0.16666674999999742
          },
          {
            "name": "D#6",
            "midi": 87,
            "time": 33.50001674999991,
            "velocity": 0.6929133858267716,
            "duration": 0.16666674999999742
          },
          {
            "name": "A#5",
            "midi": 82,
            "time": 33.666683499999905,
            "velocity": 0.6929133858267716,
            "duration": 0.16666674999999742
          },
          {
            "name": "D6",
            "midi": 86,
            "time": 33.666683499999905,
            "velocity": 0.6929133858267716,
            "duration": 0.16666674999999742
          },
          {
            "name": "B5",
            "midi": 83,
            "time": 33.8333502499999,
            "velocity": 0.6929133858267716,
            "duration": 0.16666674999999742
          },
          {
            "name": "F6",
            "midi": 89,
            "time": 33.8333502499999,
            "velocity": 0.6929133858267716,
            "duration": 0.16666674999999742
          },
          {
            "name": "C6",
            "midi": 84,
            "time": 34.0000169999999,
            "velocity": 0.6929133858267716,
            "duration": 0.08333337500000226
          },
          {
            "name": "E6",
            "midi": 88,
            "time": 34.0000169999999,
            "velocity": 0.6929133858267716,
            "duration": 0.08333337500000226
          },
          {
            "name": "A#5",
            "midi": 82,
            "time": 34.0833503749999,
            "velocity": 0.6929133858267716,
            "duration": 0.08333337500000226
          },
          {
            "name": "C6",
            "midi": 84,
            "time": 34.166683749999905,
            "velocity": 0.6929133858267716,
            "duration": 0.08333337500000226
          },
          {
            "name": "E6",
            "midi": 88,
            "time": 34.25001712499991,
            "velocity": 0.6929133858267716,
            "duration": 0.08333337500000226
          },
          {
            "name": "C#7",
            "midi": 97,
            "time": 34.33335049999991,
            "velocity": 0.6929133858267716,
            "duration": 0.33333350000000195
          },
          {
            "name": "A#4",
            "midi": 70,
            "time": 34.66668399999991,
            "velocity": 0.6929133858267716,
            "duration": 0.08333337500000226
          },
          {
            "name": "A#5",
            "midi": 82,
            "time": 34.75001737499991,
            "velocity": 0.6929133858267716,
            "duration": 0.08333337500000226
          },
          {
            "name": "C6",
            "midi": 84,
            "time": 34.833350749999916,
            "velocity": 0.6929133858267716,
            "duration": 0.08333337500000226
          },
          {
            "name": "E6",
            "midi": 88,
            "time": 34.91668412499992,
            "velocity": 0.6929133858267716,
            "duration": 0.08333337500000226
          },
          {
            "name": "C#7",
            "midi": 97,
            "time": 35.00001749999992,
            "velocity": 0.6929133858267716,
            "duration": 0.33333350000000195
          },
          {
            "name": "A#4",
            "midi": 70,
            "time": 35.33335099999992,
            "velocity": 0.6929133858267716,
            "duration": 0.08333337500000226
          },
          {
            "name": "A#5",
            "midi": 82,
            "time": 35.416684374999925,
            "velocity": 0.6929133858267716,
            "duration": 0.08333337500000226
          },
          {
            "name": "C6",
            "midi": 84,
            "time": 35.50001774999993,
            "velocity": 0.6929133858267716,
            "duration": 0.08333337500000226
          },
          {
            "name": "E6",
            "midi": 88,
            "time": 35.58335112499993,
            "velocity": 0.6929133858267716,
            "duration": 0.08333337500000226
          },
          {
            "name": "C#7",
            "midi": 97,
            "time": 35.66668449999993,
            "velocity": 0.6929133858267716,
            "duration": 0.08333337500000226
          },
          {
            "name": "D#6",
            "midi": 87,
            "time": 35.750017874999934,
            "velocity": 0.6929133858267716,
            "duration": 0.08333337500000226
          },
          {
            "name": "E6",
            "midi": 88,
            "time": 35.833351249999936,
            "velocity": 0.6929133858267716,
            "duration": 0.08333337500000226
          },
          {
            "name": "C7",
            "midi": 96,
            "time": 35.91668462499994,
            "velocity": 0.6929133858267716,
            "duration": 0.08333337500000226
          },
          {
            "name": "A#5",
            "midi": 82,
            "time": 36.00001799999994,
            "velocity": 0.6929133858267716,
            "duration": 0.03194446041666765
          },
          {
            "name": "D6",
            "midi": 86,
            "time": 36.00001799999994,
            "velocity": 0.6929133858267716,
            "duration": 0.03194446041666765
          },
          {
            "name": "A5",
            "midi": 81,
            "time": 36.166684749999945,
            "velocity": 0.6929133858267716,
            "duration": 0.03194446041666765
          },
          {
            "name": "C#6",
            "midi": 85,
            "time": 36.166684749999945,
            "velocity": 0.6929133858267716,
            "duration": 0.03194446041666765
          },
          {
            "name": "A#5",
            "midi": 82,
            "time": 36.33335149999995,
            "velocity": 0.6929133858267716,
            "duration": 0.03194446041666765
          },
          {
            "name": "D6",
            "midi": 86,
            "time": 36.33335149999995,
            "velocity": 0.6929133858267716,
            "duration": 0.03194446041666765
          },
          {
            "name": "B5",
            "midi": 83,
            "time": 36.500018249999954,
            "velocity": 0.6929133858267716,
            "duration": 0.03194446041666765
          },
          {
            "name": "D#6",
            "midi": 87,
            "time": 36.500018249999954,
            "velocity": 0.6929133858267716,
            "duration": 0.03194446041666765
          },
          {
            "name": "A#5",
            "midi": 82,
            "time": 36.66668499999996,
            "velocity": 0.6929133858267716,
            "duration": 0.06527781041666714
          },
          {
            "name": "D6",
            "midi": 86,
            "time": 36.66668499999996,
            "velocity": 0.6929133858267716,
            "duration": 0.06527781041666714
          },
          {
            "name": "D6",
            "midi": 86,
            "time": 37.00001849999996,
            "velocity": 0.6929133858267716,
            "duration": 0.04166668749999758
          },
          {
            "name": "F#6",
            "midi": 90,
            "time": 37.04168518749996,
            "velocity": 0.6929133858267716,
            "duration": 0.04166668749999758
          },
          {
            "name": "G#6",
            "midi": 92,
            "time": 37.083351874999956,
            "velocity": 0.6929133858267716,
            "duration": 0.04166668749999758
          },
          {
            "name": "A#6",
            "midi": 94,
            "time": 37.12501856249995,
            "velocity": 0.6929133858267716,
            "duration": 0.04166668749999758
          },
          {
            "name": "D6",
            "midi": 86,
            "time": 37.16668524999995,
            "velocity": 0.6929133858267716,
            "duration": 0.04166668749999758
          },
          {
            "name": "F#6",
            "midi": 90,
            "time": 37.20835193749995,
            "velocity": 0.6929133858267716,
            "duration": 0.04166668749999758
          },
          {
            "name": "G#6",
            "midi": 92,
            "time": 37.250018624999946,
            "velocity": 0.6929133858267716,
            "duration": 0.04166668749999758
          },
          {
            "name": "A#6",
            "midi": 94,
            "time": 37.29168531249994,
            "velocity": 0.6929133858267716,
            "duration": 0.04166668749999758
          },
          {
            "name": "D7",
            "midi": 98,
            "time": 37.33335199999994,
            "velocity": 0.6929133858267716,
            "duration": 0.08333337500000226
          },
          {
            "name": "A#6",
            "midi": 94,
            "time": 37.41668537499994,
            "velocity": 0.6929133858267716,
            "duration": 0.08333337500000226
          },
          {
            "name": "G#6",
            "midi": 92,
            "time": 37.500018749999946,
            "velocity": 0.6929133858267716,
            "duration": 0.08333337500000226
          },
          {
            "name": "F#6",
            "midi": 90,
            "time": 37.58335212499995,
            "velocity": 0.6929133858267716,
            "duration": 0.08333337500000226
          },
          {
            "name": "D6",
            "midi": 86,
            "time": 37.66668549999995,
            "velocity": 0.6929133858267716,
            "duration": 0.33333350000000195
          },
          {
            "name": "A#4",
            "midi": 70,
            "time": 39.00001949999995,
            "velocity": 0.5905511811023622,
            "duration": 0.16666674999999742
          },
          {
            "name": "D5",
            "midi": 74,
            "time": 39.00001949999995,
            "velocity": 0.5905511811023622,
            "duration": 0.16666674999999742
          },
          {
            "name": "B4",
            "midi": 71,
            "time": 39.16668624999995,
            "velocity": 0.5905511811023622,
            "duration": 0.03194446041666765
          },
          {
            "name": "D#5",
            "midi": 75,
            "time": 39.16668624999995,
            "velocity": 0.5905511811023622,
            "duration": 0.03194446041666765
          },
          {
            "name": "A#4",
            "midi": 70,
            "time": 39.33335299999995,
            "velocity": 0.5905511811023622,
            "duration": 0.03194446041666765
          },
          {
            "name": "D5",
            "midi": 74,
            "time": 39.33335299999995,
            "velocity": 0.5905511811023622,
            "duration": 0.03194446041666765
          },
          {
            "name": "A4",
            "midi": 69,
            "time": 39.50001974999996,
            "velocity": 0.5905511811023622,
            "duration": 0.03194446041666765
          },
          {
            "name": "C#5",
            "midi": 73,
            "time": 39.50001974999996,
            "velocity": 0.5905511811023622,
            "duration": 0.03194446041666765
          },
          {
            "name": "A#4",
            "midi": 70,
            "time": 39.66668649999996,
            "velocity": 0.5905511811023622,
            "duration": 0.03194446041666765
          },
          {
            "name": "D5",
            "midi": 74,
            "time": 39.66668649999996,
            "velocity": 0.5905511811023622,
            "duration": 0.03194446041666765
          },
          {
            "name": "B4",
            "midi": 71,
            "time": 39.833353249999966,
            "velocity": 0.5905511811023622,
            "duration": 0.03194446041666765
          },
          {
            "name": "D#5",
            "midi": 75,
            "time": 39.833353249999966,
            "velocity": 0.5905511811023622,
            "duration": 0.03194446041666765
          },
          {
            "name": "C5",
            "midi": 72,
            "time": 42.00002099999997,
            "velocity": 0.3858267716535433,
            "duration": 0.16666674999999742
          },
          {
            "name": "D5",
            "midi": 74,
            "time": 42.00002099999997,
            "velocity": 0.3858267716535433,
            "duration": 0.16666674999999742
          },
          {
            "name": "G#4",
            "midi": 68,
            "time": 42.166687749999966,
            "velocity": 0.3858267716535433,
            "duration": 0.16666674999999742
          },
          {
            "name": "C5",
            "midi": 72,
            "time": 42.33335449999996,
            "velocity": 0.3858267716535433,
            "duration": 0.16666674999999742
          },
          {
            "name": "D5",
            "midi": 74,
            "time": 42.33335449999996,
            "velocity": 0.3858267716535433,
            "duration": 0.16666674999999742
          },
          {
            "name": "G#4",
            "midi": 68,
            "time": 42.50002124999996,
            "velocity": 0.3858267716535433,
            "duration": 0.16666674999999742
          },
          {
            "name": "C5",
            "midi": 72,
            "time": 42.66668799999996,
            "velocity": 0.3858267716535433,
            "duration": 0.16666674999999742
          },
          {
            "name": "D5",
            "midi": 74,
            "time": 42.66668799999996,
            "velocity": 0.3858267716535433,
            "duration": 0.16666674999999742
          },
          {
            "name": "G#4",
            "midi": 68,
            "time": 42.833354749999955,
            "velocity": 0.3858267716535433,
            "duration": 0.16666674999999742
          },
          {
            "name": "C5",
            "midi": 72,
            "time": 43.00002149999995,
            "velocity": 0.3858267716535433,
            "duration": 0.16666674999999742
          },
          {
            "name": "D#5",
            "midi": 75,
            "time": 43.00002149999995,
            "velocity": 0.3858267716535433,
            "duration": 0.16666674999999742
          },
          {
            "name": "G#4",
            "midi": 68,
            "time": 43.16668824999995,
            "velocity": 0.3858267716535433,
            "duration": 0.16666674999999742
          },
          {
            "name": "D5",
            "midi": 74,
            "time": 43.16668824999995,
            "velocity": 0.3858267716535433,
            "duration": 0.16666674999999742
          },
          {
            "name": "C5",
            "midi": 72,
            "time": 43.33335499999995,
            "velocity": 0.3858267716535433,
            "duration": 0.16666674999999742
          },
          {
            "name": "D#5",
            "midi": 75,
            "time": 43.33335499999995,
            "velocity": 0.3858267716535433,
            "duration": 0.16666674999999742
          },
          {
            "name": "G#4",
            "midi": 68,
            "time": 43.500021749999945,
            "velocity": 0.3858267716535433,
            "duration": 0.16666674999999742
          },
          {
            "name": "D5",
            "midi": 74,
            "time": 43.500021749999945,
            "velocity": 0.3858267716535433,
            "duration": 0.16666674999999742
          },
          {
            "name": "C5",
            "midi": 72,
            "time": 43.66668849999994,
            "velocity": 0.3858267716535433,
            "duration": 0.16666674999999742
          },
          {
            "name": "D#5",
            "midi": 75,
            "time": 43.66668849999994,
            "velocity": 0.3858267716535433,
            "duration": 0.16666674999999742
          },
          {
            "name": "G#4",
            "midi": 68,
            "time": 43.83335524999994,
            "velocity": 0.3858267716535433,
            "duration": 0.16666674999999742
          },
          {
            "name": "D5",
            "midi": 74,
            "time": 43.83335524999994,
            "velocity": 0.3858267716535433,
            "duration": 0.16666674999999742
          },
          {
            "name": "C5",
            "midi": 72,
            "time": 44.00002199999994,
            "velocity": 0.3858267716535433,
            "duration": 0.16666674999999742
          },
          {
            "name": "E5",
            "midi": 76,
            "time": 44.00002199999994,
            "velocity": 0.3858267716535433,
            "duration": 0.16666674999999742
          },
          {
            "name": "G#4",
            "midi": 68,
            "time": 44.166688749999935,
            "velocity": 0.3858267716535433,
            "duration": 0.16666674999999742
          },
          {
            "name": "D5",
            "midi": 74,
            "time": 44.166688749999935,
            "velocity": 0.3858267716535433,
            "duration": 0.16666674999999742
          },
          {
            "name": "C5",
            "midi": 72,
            "time": 44.33335549999993,
            "velocity": 0.3858267716535433,
            "duration": 0.16666674999999742
          },
          {
            "name": "E5",
            "midi": 76,
            "time": 44.33335549999993,
            "velocity": 0.3858267716535433,
            "duration": 0.16666674999999742
          },
          {
            "name": "G#4",
            "midi": 68,
            "time": 44.50002224999993,
            "velocity": 0.3858267716535433,
            "duration": 0.16666674999999742
          },
          {
            "name": "D5",
            "midi": 74,
            "time": 44.50002224999993,
            "velocity": 0.3858267716535433,
            "duration": 0.16666674999999742
          },
          {
            "name": "C5",
            "midi": 72,
            "time": 44.66668899999993,
            "velocity": 0.3858267716535433,
            "duration": 0.16666674999999742
          },
          {
            "name": "E5",
            "midi": 76,
            "time": 44.66668899999993,
            "velocity": 0.3858267716535433,
            "duration": 0.16666674999999742
          },
          {
            "name": "G#4",
            "midi": 68,
            "time": 44.833355749999924,
            "velocity": 0.3858267716535433,
            "duration": 0.16666674999999742
          },
          {
            "name": "D5",
            "midi": 74,
            "time": 44.833355749999924,
            "velocity": 0.3858267716535433,
            "duration": 0.16666674999999742
          },
          {
            "name": "C5",
            "midi": 72,
            "time": 45.00002249999992,
            "velocity": 0.3858267716535433,
            "duration": 0.16666674999999742
          },
          {
            "name": "F5",
            "midi": 77,
            "time": 45.00002249999992,
            "velocity": 0.3858267716535433,
            "duration": 0.16666674999999742
          },
          {
            "name": "G#4",
            "midi": 68,
            "time": 45.16668924999992,
            "velocity": 0.3858267716535433,
            "duration": 0.16666674999999742
          },
          {
            "name": "D5",
            "midi": 74,
            "time": 45.16668924999992,
            "velocity": 0.3858267716535433,
            "duration": 0.16666674999999742
          },
          {
            "name": "C5",
            "midi": 72,
            "time": 45.33335599999992,
            "velocity": 0.3858267716535433,
            "duration": 0.16666674999999742
          },
          {
            "name": "F5",
            "midi": 77,
            "time": 45.33335599999992,
            "velocity": 0.3858267716535433,
            "duration": 0.16666674999999742
          },
          {
            "name": "G#4",
            "midi": 68,
            "time": 45.500022749999914,
            "velocity": 0.3858267716535433,
            "duration": 0.16666674999999742
          },
          {
            "name": "D5",
            "midi": 74,
            "time": 45.500022749999914,
            "velocity": 0.3858267716535433,
            "duration": 0.16666674999999742
          },
          {
            "name": "C5",
            "midi": 72,
            "time": 45.66668949999991,
            "velocity": 0.3858267716535433,
            "duration": 0.16666674999999742
          },
          {
            "name": "F5",
            "midi": 77,
            "time": 45.66668949999991,
            "velocity": 0.3858267716535433,
            "duration": 0.16666674999999742
          },
          {
            "name": "G#4",
            "midi": 68,
            "time": 45.83335624999991,
            "velocity": 0.3858267716535433,
            "duration": 0.16666674999999742
          },
          {
            "name": "D5",
            "midi": 74,
            "time": 45.83335624999991,
            "velocity": 0.3858267716535433,
            "duration": 0.16666674999999742
          },
          {
            "name": "A4",
            "midi": 69,
            "time": 46.000022999999906,
            "velocity": 0.3858267716535433,
            "duration": 0.08333337500000226
          },
          {
            "name": "D5",
            "midi": 74,
            "time": 46.000022999999906,
            "velocity": 0.3858267716535433,
            "duration": 0.08333337500000226
          },
          {
            "name": "F#5",
            "midi": 78,
            "time": 46.000022999999906,
            "velocity": 0.3858267716535433,
            "duration": 0.08333337500000226
          },
          {
            "name": "G#4",
            "midi": 68,
            "time": 46.08335637499991,
            "velocity": 0.3858267716535433,
            "duration": 0.08333337500000226
          },
          {
            "name": "A4",
            "midi": 69,
            "time": 46.16668974999991,
            "velocity": 0.3858267716535433,
            "duration": 0.08333337500000226
          },
          {
            "name": "D5",
            "midi": 74,
            "time": 46.16668974999991,
            "velocity": 0.3858267716535433,
            "duration": 0.08333337500000226
          },
          {
            "name": "F#5",
            "midi": 78,
            "time": 46.16668974999991,
            "velocity": 0.3858267716535433,
            "duration": 0.08333337500000226
          },
          {
            "name": "G#4",
            "midi": 68,
            "time": 46.25002312499991,
            "velocity": 0.3858267716535433,
            "duration": 0.08333337500000226
          },
          {
            "name": "A#4",
            "midi": 70,
            "time": 46.66668999999992,
            "velocity": 0.3858267716535433,
            "duration": 0.08333337500000226
          },
          {
            "name": "D5",
            "midi": 74,
            "time": 46.66668999999992,
            "velocity": 0.3858267716535433,
            "duration": 0.08333337500000226
          },
          {
            "name": "F#5",
            "midi": 78,
            "time": 46.66668999999992,
            "velocity": 0.3858267716535433,
            "duration": 0.08333337500000226
          },
          {
            "name": "G#4",
            "midi": 68,
            "time": 46.75002337499992,
            "velocity": 0.3858267716535433,
            "duration": 0.08333337500000226
          },
          {
            "name": "A#4",
            "midi": 70,
            "time": 46.83335674999992,
            "velocity": 0.3858267716535433,
            "duration": 0.08333337500000226
          },
          {
            "name": "D5",
            "midi": 74,
            "time": 46.83335674999992,
            "velocity": 0.3858267716535433,
            "duration": 0.08333337500000226
          },
          {
            "name": "F#5",
            "midi": 78,
            "time": 46.83335674999992,
            "velocity": 0.3858267716535433,
            "duration": 0.08333337500000226
          },
          {
            "name": "G#4",
            "midi": 68,
            "time": 46.916690124999924,
            "velocity": 0.3858267716535433,
            "duration": 0.08333337500000226
          },
          {
            "name": "B4",
            "midi": 71,
            "time": 47.33335699999993,
            "velocity": 0.3858267716535433,
            "duration": 0.08333337500000226
          },
          {
            "name": "D5",
            "midi": 74,
            "time": 47.33335699999993,
            "velocity": 0.3858267716535433,
            "duration": 0.08333337500000226
          },
          {
            "name": "F#5",
            "midi": 78,
            "time": 47.33335699999993,
            "velocity": 0.3858267716535433,
            "duration": 0.08333337500000226
          },
          {
            "name": "G#4",
            "midi": 68,
            "time": 47.41669037499993,
            "velocity": 0.3858267716535433,
            "duration": 0.08333337500000226
          },
          {
            "name": "B4",
            "midi": 71,
            "time": 47.50002374999993,
            "velocity": 0.3858267716535433,
            "duration": 0.08333337500000226
          },
          {
            "name": "D5",
            "midi": 74,
            "time": 47.50002374999993,
            "velocity": 0.3858267716535433,
            "duration": 0.08333337500000226
          },
          {
            "name": "F#5",
            "midi": 78,
            "time": 47.50002374999993,
            "velocity": 0.3858267716535433,
            "duration": 0.08333337500000226
          },
          {
            "name": "G#4",
            "midi": 68,
            "time": 47.583357124999935,
            "velocity": 0.3858267716535433,
            "duration": 0.08333337500000226
          },
          {
            "name": "C5",
            "midi": 72,
            "time": 48.00002399999994,
            "velocity": 0.3858267716535433,
            "duration": 0.08333337500000226
          },
          {
            "name": "D5",
            "midi": 74,
            "time": 48.00002399999994,
            "velocity": 0.3858267716535433,
            "duration": 0.08333337500000226
          },
          {
            "name": "F#5",
            "midi": 78,
            "time": 48.00002399999994,
            "velocity": 0.3858267716535433,
            "duration": 0.08333337500000226
          },
          {
            "name": "G#4",
            "midi": 68,
            "time": 48.08335737499994,
            "velocity": 0.3858267716535433,
            "duration": 0.08333337500000226
          },
          {
            "name": "C5",
            "midi": 72,
            "time": 48.166690749999944,
            "velocity": 0.3858267716535433,
            "duration": 0.08333337500000226
          },
          {
            "name": "D5",
            "midi": 74,
            "time": 48.166690749999944,
            "velocity": 0.3858267716535433,
            "duration": 0.08333337500000226
          },
          {
            "name": "F#5",
            "midi": 78,
            "time": 48.166690749999944,
            "velocity": 0.3858267716535433,
            "duration": 0.08333337500000226
          },
          {
            "name": "G#4",
            "midi": 68,
            "time": 48.250024124999946,
            "velocity": 0.3858267716535433,
            "duration": 0.08333337500000226
          },
          {
            "name": "C5",
            "midi": 72,
            "time": 48.33335749999995,
            "velocity": 0.3858267716535433,
            "duration": 0.08333337500000226
          },
          {
            "name": "D5",
            "midi": 74,
            "time": 48.33335749999995,
            "velocity": 0.3858267716535433,
            "duration": 0.08333337500000226
          },
          {
            "name": "F#5",
            "midi": 78,
            "time": 48.33335749999995,
            "velocity": 0.3858267716535433,
            "duration": 0.08333337500000226
          },
          {
            "name": "G#4",
            "midi": 68,
            "time": 48.41669087499995,
            "velocity": 0.3858267716535433,
            "duration": 0.08333337500000226
          },
          {
            "name": "C5",
            "midi": 72,
            "time": 48.50002424999995,
            "velocity": 0.3858267716535433,
            "duration": 0.08333337500000226
          },
          {
            "name": "D5",
            "midi": 74,
            "time": 48.50002424999995,
            "velocity": 0.3858267716535433,
            "duration": 0.08333337500000226
          },
          {
            "name": "F#5",
            "midi": 78,
            "time": 48.50002424999995,
            "velocity": 0.3858267716535433,
            "duration": 0.08333337500000226
          },
          {
            "name": "G#4",
            "midi": 68,
            "time": 48.583357624999955,
            "velocity": 0.3858267716535433,
            "duration": 0.08333337500000226
          },
          {
            "name": "C5",
            "midi": 72,
            "time": 48.66669099999996,
            "velocity": 0.3858267716535433,
            "duration": 0.08333337500000226
          },
          {
            "name": "D5",
            "midi": 74,
            "time": 48.66669099999996,
            "velocity": 0.3858267716535433,
            "duration": 0.08333337500000226
          },
          {
            "name": "F#5",
            "midi": 78,
            "time": 48.66669099999996,
            "velocity": 0.3858267716535433,
            "duration": 0.08333337500000226
          },
          {
            "name": "G#4",
            "midi": 68,
            "time": 48.75002437499996,
            "velocity": 0.3858267716535433,
            "duration": 0.08333337500000226
          },
          {
            "name": "C5",
            "midi": 72,
            "time": 48.83335774999996,
            "velocity": 0.3858267716535433,
            "duration": 0.08333337500000226
          },
          {
            "name": "D5",
            "midi": 74,
            "time": 48.83335774999996,
            "velocity": 0.3858267716535433,
            "duration": 0.08333337500000226
          },
          {
            "name": "F#5",
            "midi": 78,
            "time": 48.83335774999996,
            "velocity": 0.3858267716535433,
            "duration": 0.08333337500000226
          },
          {
            "name": "G#4",
            "midi": 68,
            "time": 48.916691124999964,
            "velocity": 0.3858267716535433,
            "duration": 0.08333337500000226
          },
          {
            "name": "C5",
            "midi": 72,
            "time": 49.33335799999997,
            "velocity": 0.3858267716535433,
            "duration": 0.08333337500000226
          },
          {
            "name": "D5",
            "midi": 74,
            "time": 49.33335799999997,
            "velocity": 0.3858267716535433,
            "duration": 0.08333337500000226
          },
          {
            "name": "F#5",
            "midi": 78,
            "time": 49.33335799999997,
            "velocity": 0.3858267716535433,
            "duration": 0.08333337500000226
          },
          {
            "name": "G#4",
            "midi": 68,
            "time": 49.41669137499997,
            "velocity": 0.3858267716535433,
            "duration": 0.08333337500000226
          },
          {
            "name": "C5",
            "midi": 72,
            "time": 49.50002474999997,
            "velocity": 0.3858267716535433,
            "duration": 0.08333337500000226
          },
          {
            "name": "D5",
            "midi": 74,
            "time": 49.50002474999997,
            "velocity": 0.3858267716535433,
            "duration": 0.08333337500000226
          },
          {
            "name": "F#5",
            "midi": 78,
            "time": 49.50002474999997,
            "velocity": 0.3858267716535433,
            "duration": 0.08333337500000226
          },
          {
            "name": "G#4",
            "midi": 68,
            "time": 49.583358124999975,
            "velocity": 0.3858267716535433,
            "duration": 0.08333337500000226
          },
          {
            "name": "D#5",
            "midi": 75,
            "time": 50.00002499999998,
            "velocity": 0.3858267716535433,
            "duration": 0.16666674999999742
          },
          {
            "name": "F5",
            "midi": 77,
            "time": 50.00002499999998,
            "velocity": 0.3858267716535433,
            "duration": 0.16666674999999742
          },
          {
            "name": "B4",
            "midi": 71,
            "time": 50.16669174999998,
            "velocity": 0.3858267716535433,
            "duration": 0.16666674999999742
          },
          {
            "name": "D#5",
            "midi": 75,
            "time": 50.333358499999974,
            "velocity": 0.3858267716535433,
            "duration": 0.16666674999999742
          },
          {
            "name": "F5",
            "midi": 77,
            "time": 50.333358499999974,
            "velocity": 0.3858267716535433,
            "duration": 0.16666674999999742
          },
          {
            "name": "B4",
            "midi": 71,
            "time": 50.50002524999997,
            "velocity": 0.3858267716535433,
            "duration": 0.16666674999999742
          },
          {
            "name": "D#5",
            "midi": 75,
            "time": 50.66669199999997,
            "velocity": 0.3858267716535433,
            "duration": 0.16666674999999742
          },
          {
            "name": "F5",
            "midi": 77,
            "time": 50.66669199999997,
            "velocity": 0.3858267716535433,
            "duration": 0.16666674999999742
          },
          {
            "name": "B4",
            "midi": 71,
            "time": 50.83335874999997,
            "velocity": 0.3858267716535433,
            "duration": 0.16666674999999742
          },
          {
            "name": "D#5",
            "midi": 75,
            "time": 51.000025499999964,
            "velocity": 0.3858267716535433,
            "duration": 0.16666674999999742
          },
          {
            "name": "F#5",
            "midi": 78,
            "time": 51.000025499999964,
            "velocity": 0.3858267716535433,
            "duration": 0.16666674999999742
          },
          {
            "name": "B4",
            "midi": 71,
            "time": 51.16669224999996,
            "velocity": 0.3858267716535433,
            "duration": 0.16666674999999742
          },
          {
            "name": "F5",
            "midi": 77,
            "time": 51.16669224999996,
            "velocity": 0.3858267716535433,
            "duration": 0.16666674999999742
          },
          {
            "name": "D#5",
            "midi": 75,
            "time": 51.33335899999996,
            "velocity": 0.3858267716535433,
            "duration": 0.16666674999999742
          },
          {
            "name": "F#5",
            "midi": 78,
            "time": 51.33335899999996,
            "velocity": 0.3858267716535433,
            "duration": 0.16666674999999742
          },
          {
            "name": "B4",
            "midi": 71,
            "time": 51.500025749999956,
            "velocity": 0.3858267716535433,
            "duration": 0.16666674999999742
          },
          {
            "name": "F5",
            "midi": 77,
            "time": 51.500025749999956,
            "velocity": 0.3858267716535433,
            "duration": 0.16666674999999742
          },
          {
            "name": "D#5",
            "midi": 75,
            "time": 51.666692499999954,
            "velocity": 0.3858267716535433,
            "duration": 0.16666674999999742
          },
          {
            "name": "F#5",
            "midi": 78,
            "time": 51.666692499999954,
            "velocity": 0.3858267716535433,
            "duration": 0.16666674999999742
          },
          {
            "name": "B4",
            "midi": 71,
            "time": 51.83335924999995,
            "velocity": 0.3858267716535433,
            "duration": 0.16666674999999742
          },
          {
            "name": "F5",
            "midi": 77,
            "time": 51.83335924999995,
            "velocity": 0.3858267716535433,
            "duration": 0.16666674999999742
          },
          {
            "name": "D#5",
            "midi": 75,
            "time": 52.00002599999995,
            "velocity": 0.3858267716535433,
            "duration": 0.16666674999999742
          },
          {
            "name": "G5",
            "midi": 79,
            "time": 52.00002599999995,
            "velocity": 0.3858267716535433,
            "duration": 0.16666674999999742
          },
          {
            "name": "B4",
            "midi": 71,
            "time": 52.166692749999946,
            "velocity": 0.3858267716535433,
            "duration": 0.16666674999999742
          },
          {
            "name": "F5",
            "midi": 77,
            "time": 52.166692749999946,
            "velocity": 0.3858267716535433,
            "duration": 0.16666674999999742
          },
          {
            "name": "D#5",
            "midi": 75,
            "time": 52.33335949999994,
            "velocity": 0.3858267716535433,
            "duration": 0.16666674999999742
          },
          {
            "name": "G5",
            "midi": 79,
            "time": 52.33335949999994,
            "velocity": 0.3858267716535433,
            "duration": 0.16666674999999742
          },
          {
            "name": "B4",
            "midi": 71,
            "time": 52.50002624999994,
            "velocity": 0.3858267716535433,
            "duration": 0.16666674999999742
          },
          {
            "name": "F5",
            "midi": 77,
            "time": 52.50002624999994,
            "velocity": 0.3858267716535433,
            "duration": 0.16666674999999742
          },
          {
            "name": "D#5",
            "midi": 75,
            "time": 52.66669299999994,
            "velocity": 0.3858267716535433,
            "duration": 0.16666674999999742
          },
          {
            "name": "G5",
            "midi": 79,
            "time": 52.66669299999994,
            "velocity": 0.3858267716535433,
            "duration": 0.16666674999999742
          },
          {
            "name": "B4",
            "midi": 71,
            "time": 52.833359749999936,
            "velocity": 0.3858267716535433,
            "duration": 0.16666674999999742
          },
          {
            "name": "F5",
            "midi": 77,
            "time": 52.833359749999936,
            "velocity": 0.3858267716535433,
            "duration": 0.16666674999999742
          },
          {
            "name": "D#5",
            "midi": 75,
            "time": 53.00002649999993,
            "velocity": 0.3858267716535433,
            "duration": 0.16666674999999742
          },
          {
            "name": "G#5",
            "midi": 80,
            "time": 53.00002649999993,
            "velocity": 0.3858267716535433,
            "duration": 0.16666674999999742
          },
          {
            "name": "B4",
            "midi": 71,
            "time": 53.16669324999993,
            "velocity": 0.3858267716535433,
            "duration": 0.16666674999999742
          },
          {
            "name": "F5",
            "midi": 77,
            "time": 53.16669324999993,
            "velocity": 0.3858267716535433,
            "duration": 0.16666674999999742
          },
          {
            "name": "D#5",
            "midi": 75,
            "time": 53.33335999999993,
            "velocity": 0.3858267716535433,
            "duration": 0.16666674999999742
          },
          {
            "name": "G#5",
            "midi": 80,
            "time": 53.33335999999993,
            "velocity": 0.3858267716535433,
            "duration": 0.16666674999999742
          },
          {
            "name": "B4",
            "midi": 71,
            "time": 53.500026749999925,
            "velocity": 0.3858267716535433,
            "duration": 0.16666674999999742
          },
          {
            "name": "F5",
            "midi": 77,
            "time": 53.500026749999925,
            "velocity": 0.3858267716535433,
            "duration": 0.16666674999999742
          },
          {
            "name": "D#5",
            "midi": 75,
            "time": 53.66669349999992,
            "velocity": 0.3858267716535433,
            "duration": 0.16666674999999742
          },
          {
            "name": "G#5",
            "midi": 80,
            "time": 53.66669349999992,
            "velocity": 0.3858267716535433,
            "duration": 0.16666674999999742
          },
          {
            "name": "B4",
            "midi": 71,
            "time": 53.83336024999992,
            "velocity": 0.3858267716535433,
            "duration": 0.16666674999999742
          },
          {
            "name": "F5",
            "midi": 77,
            "time": 53.83336024999992,
            "velocity": 0.3858267716535433,
            "duration": 0.16666674999999742
          },
          {
            "name": "C5",
            "midi": 72,
            "time": 54.00002699999992,
            "velocity": 0.3858267716535433,
            "duration": 0.08333337500000226
          },
          {
            "name": "F5",
            "midi": 77,
            "time": 54.00002699999992,
            "velocity": 0.3858267716535433,
            "duration": 0.08333337500000226
          },
          {
            "name": "A5",
            "midi": 81,
            "time": 54.00002699999992,
            "velocity": 0.3858267716535433,
            "duration": 0.08333337500000226
          },
          {
            "name": "B4",
            "midi": 71,
            "time": 54.08336037499992,
            "velocity": 0.3858267716535433,
            "duration": 0.08333337500000226
          },
          {
            "name": "C5",
            "midi": 72,
            "time": 54.16669374999992,
            "velocity": 0.3858267716535433,
            "duration": 0.08333337500000226
          },
          {
            "name": "F5",
            "midi": 77,
            "time": 54.16669374999992,
            "velocity": 0.3858267716535433,
            "duration": 0.08333337500000226
          },
          {
            "name": "A5",
            "midi": 81,
            "time": 54.16669374999992,
            "velocity": 0.3858267716535433,
            "duration": 0.08333337500000226
          },
          {
            "name": "B4",
            "midi": 71,
            "time": 54.250027124999924,
            "velocity": 0.3858267716535433,
            "duration": 0.08333337500000226
          },
          {
            "name": "C#5",
            "midi": 73,
            "time": 54.66669399999993,
            "velocity": 0.3858267716535433,
            "duration": 0.08333337500000226
          },
          {
            "name": "F5",
            "midi": 77,
            "time": 54.66669399999993,
            "velocity": 0.3858267716535433,
            "duration": 0.08333337500000226
          },
          {
            "name": "A5",
            "midi": 81,
            "time": 54.66669399999993,
            "velocity": 0.3858267716535433,
            "duration": 0.08333337500000226
          },
          {
            "name": "B4",
            "midi": 71,
            "time": 54.75002737499993,
            "velocity": 0.3858267716535433,
            "duration": 0.08333337500000226
          },
          {
            "name": "C#5",
            "midi": 73,
            "time": 54.83336074999993,
            "velocity": 0.3858267716535433,
            "duration": 0.08333337500000226
          },
          {
            "name": "F5",
            "midi": 77,
            "time": 54.83336074999993,
            "velocity": 0.3858267716535433,
            "duration": 0.08333337500000226
          },
          {
            "name": "A5",
            "midi": 81,
            "time": 54.83336074999993,
            "velocity": 0.3858267716535433,
            "duration": 0.08333337500000226
          },
          {
            "name": "B4",
            "midi": 71,
            "time": 54.916694124999935,
            "velocity": 0.3858267716535433,
            "duration": 0.08333337500000226
          },
          {
            "name": "D5",
            "midi": 74,
            "time": 55.33336099999994,
            "velocity": 0.3858267716535433,
            "duration": 0.08333337500000226
          },
          {
            "name": "F5",
            "midi": 77,
            "time": 55.33336099999994,
            "velocity": 0.3858267716535433,
            "duration": 0.08333337500000226
          },
          {
            "name": "A5",
            "midi": 81,
            "time": 55.33336099999994,
            "velocity": 0.3858267716535433,
            "duration": 0.08333337500000226
          },
          {
            "name": "B4",
            "midi": 71,
            "time": 55.41669437499994,
            "velocity": 0.3858267716535433,
            "duration": 0.08333337500000226
          },
          {
            "name": "D5",
            "midi": 74,
            "time": 55.500027749999944,
            "velocity": 0.3858267716535433,
            "duration": 0.08333337500000226
          },
          {
            "name": "F5",
            "midi": 77,
            "time": 55.500027749999944,
            "velocity": 0.3858267716535433,
            "duration": 0.08333337500000226
          },
          {
            "name": "A5",
            "midi": 81,
            "time": 55.500027749999944,
            "velocity": 0.3858267716535433,
            "duration": 0.08333337500000226
          },
          {
            "name": "B4",
            "midi": 71,
            "time": 55.583361124999946,
            "velocity": 0.3858267716535433,
            "duration": 0.08333337500000226
          },
          {
            "name": "D#5",
            "midi": 75,
            "time": 56.00002799999995,
            "velocity": 0.3858267716535433,
            "duration": 0.08333337500000226
          },
          {
            "name": "F5",
            "midi": 77,
            "time": 56.00002799999995,
            "velocity": 0.3858267716535433,
            "duration": 0.08333337500000226
          },
          {
            "name": "A5",
            "midi": 81,
            "time": 56.00002799999995,
            "velocity": 0.3858267716535433,
            "duration": 0.08333337500000226
          },
          {
            "name": "B4",
            "midi": 71,
            "time": 56.08336137499995,
            "velocity": 0.3858267716535433,
            "duration": 0.08333337500000226
          },
          {
            "name": "D#5",
            "midi": 75,
            "time": 56.166694749999955,
            "velocity": 0.3858267716535433,
            "duration": 0.08333337500000226
          },
          {
            "name": "F5",
            "midi": 77,
            "time": 56.166694749999955,
            "velocity": 0.3858267716535433,
            "duration": 0.08333337500000226
          },
          {
            "name": "A5",
            "midi": 81,
            "time": 56.166694749999955,
            "velocity": 0.3858267716535433,
            "duration": 0.08333337500000226
          },
          {
            "name": "B4",
            "midi": 71,
            "time": 56.25002812499996,
            "velocity": 0.3858267716535433,
            "duration": 0.08333337500000226
          },
          {
            "name": "D#5",
            "midi": 75,
            "time": 56.33336149999996,
            "velocity": 0.3858267716535433,
            "duration": 0.08333337500000226
          },
          {
            "name": "F5",
            "midi": 77,
            "time": 56.33336149999996,
            "velocity": 0.3858267716535433,
            "duration": 0.08333337500000226
          },
          {
            "name": "A5",
            "midi": 81,
            "time": 56.33336149999996,
            "velocity": 0.3858267716535433,
            "duration": 0.08333337500000226
          },
          {
            "name": "B4",
            "midi": 71,
            "time": 56.41669487499996,
            "velocity": 0.3858267716535433,
            "duration": 0.08333337500000226
          },
          {
            "name": "D#5",
            "midi": 75,
            "time": 56.500028249999964,
            "velocity": 0.3858267716535433,
            "duration": 0.08333337500000226
          },
          {
            "name": "F5",
            "midi": 77,
            "time": 56.500028249999964,
            "velocity": 0.3858267716535433,
            "duration": 0.08333337500000226
          },
          {
            "name": "A5",
            "midi": 81,
            "time": 56.500028249999964,
            "velocity": 0.3858267716535433,
            "duration": 0.08333337500000226
          },
          {
            "name": "B4",
            "midi": 71,
            "time": 56.58336162499997,
            "velocity": 0.3858267716535433,
            "duration": 0.08333337500000226
          },
          {
            "name": "D#5",
            "midi": 75,
            "time": 56.66669499999997,
            "velocity": 0.3858267716535433,
            "duration": 0.08333337500000226
          },
          {
            "name": "F5",
            "midi": 77,
            "time": 56.66669499999997,
            "velocity": 0.3858267716535433,
            "duration": 0.08333337500000226
          },
          {
            "name": "A5",
            "midi": 81,
            "time": 56.66669499999997,
            "velocity": 0.3858267716535433,
            "duration": 0.08333337500000226
          },
          {
            "name": "B4",
            "midi": 71,
            "time": 56.75002837499997,
            "velocity": 0.3858267716535433,
            "duration": 0.08333337500000226
          },
          {
            "name": "D#5",
            "midi": 75,
            "time": 56.83336174999997,
            "velocity": 0.3858267716535433,
            "duration": 0.08333337500000226
          },
          {
            "name": "F5",
            "midi": 77,
            "time": 56.83336174999997,
            "velocity": 0.3858267716535433,
            "duration": 0.08333337500000226
          },
          {
            "name": "A5",
            "midi": 81,
            "time": 56.83336174999997,
            "velocity": 0.3858267716535433,
            "duration": 0.08333337500000226
          },
          {
            "name": "B4",
            "midi": 71,
            "time": 56.916695124999976,
            "velocity": 0.3858267716535433,
            "duration": 0.08333337500000226
          },
          {
            "name": "D#5",
            "midi": 75,
            "time": 57.33336199999998,
            "velocity": 0.3858267716535433,
            "duration": 0.08333337500000226
          },
          {
            "name": "F5",
            "midi": 77,
            "time": 57.33336199999998,
            "velocity": 0.3858267716535433,
            "duration": 0.08333337500000226
          },
          {
            "name": "A5",
            "midi": 81,
            "time": 57.33336199999998,
            "velocity": 0.3858267716535433,
            "duration": 0.08333337500000226
          },
          {
            "name": "B4",
            "midi": 71,
            "time": 57.41669537499998,
            "velocity": 0.3858267716535433,
            "duration": 0.08333337500000226
          },
          {
            "name": "D#5",
            "midi": 75,
            "time": 57.500028749999984,
            "velocity": 0.3858267716535433,
            "duration": 0.08333337500000226
          },
          {
            "name": "F5",
            "midi": 77,
            "time": 57.500028749999984,
            "velocity": 0.3858267716535433,
            "duration": 0.08333337500000226
          },
          {
            "name": "A5",
            "midi": 81,
            "time": 57.500028749999984,
            "velocity": 0.3858267716535433,
            "duration": 0.08333337500000226
          },
          {
            "name": "B4",
            "midi": 71,
            "time": 57.58336212499999,
            "velocity": 0.3858267716535433,
            "duration": 0.08333337500000226
          },
          {
            "name": "F#5",
            "midi": 78,
            "time": 58.00002899999999,
            "velocity": 0.3858267716535433,
            "duration": 0.16666674999999742
          },
          {
            "name": "G#5",
            "midi": 80,
            "time": 58.00002899999999,
            "velocity": 0.3858267716535433,
            "duration": 0.16666674999999742
          },
          {
            "name": "D5",
            "midi": 74,
            "time": 58.16669574999999,
            "velocity": 0.3858267716535433,
            "duration": 0.16666674999999742
          },
          {
            "name": "F#5",
            "midi": 78,
            "time": 58.333362499999986,
            "velocity": 0.3858267716535433,
            "duration": 0.16666674999999742
          },
          {
            "name": "G#5",
            "midi": 80,
            "time": 58.333362499999986,
            "velocity": 0.3858267716535433,
            "duration": 0.16666674999999742
          },
          {
            "name": "D5",
            "midi": 74,
            "time": 58.50002924999998,
            "velocity": 0.3858267716535433,
            "duration": 0.16666674999999742
          },
          {
            "name": "F#5",
            "midi": 78,
            "time": 58.66669599999998,
            "velocity": 0.3858267716535433,
            "duration": 0.16666674999999742
          },
          {
            "name": "G#5",
            "midi": 80,
            "time": 58.66669599999998,
            "velocity": 0.3858267716535433,
            "duration": 0.16666674999999742
          },
          {
            "name": "D5",
            "midi": 74,
            "time": 58.83336274999998,
            "velocity": 0.3858267716535433,
            "duration": 0.16666674999999742
          },
          {
            "name": "F#5",
            "midi": 78,
            "time": 59.000029499999975,
            "velocity": 0.3858267716535433,
            "duration": 0.16666674999999742
          },
          {
            "name": "A5",
            "midi": 81,
            "time": 59.000029499999975,
            "velocity": 0.3858267716535433,
            "duration": 0.16666674999999742
          },
          {
            "name": "D5",
            "midi": 74,
            "time": 59.16669624999997,
            "velocity": 0.3858267716535433,
            "duration": 0.16666674999999742
          },
          {
            "name": "G#5",
            "midi": 80,
            "time": 59.16669624999997,
            "velocity": 0.3858267716535433,
            "duration": 0.16666674999999742
          },
          {
            "name": "F#5",
            "midi": 78,
            "time": 59.33336299999997,
            "velocity": 0.3858267716535433,
            "duration": 0.16666674999999742
          },
          {
            "name": "A5",
            "midi": 81,
            "time": 59.33336299999997,
            "velocity": 0.3858267716535433,
            "duration": 0.16666674999999742
          },
          {
            "name": "D5",
            "midi": 74,
            "time": 59.50002974999997,
            "velocity": 0.3858267716535433,
            "duration": 0.16666674999999742
          },
          {
            "name": "G#5",
            "midi": 80,
            "time": 59.50002974999997,
            "velocity": 0.3858267716535433,
            "duration": 0.16666674999999742
          },
          {
            "name": "F#5",
            "midi": 78,
            "time": 59.666696499999965,
            "velocity": 0.3858267716535433,
            "duration": 0.16666674999999742
          },
          {
            "name": "A5",
            "midi": 81,
            "time": 59.666696499999965,
            "velocity": 0.3858267716535433,
            "duration": 0.16666674999999742
          },
          {
            "name": "D5",
            "midi": 74,
            "time": 59.83336324999996,
            "velocity": 0.3858267716535433,
            "duration": 0.16666674999999742
          },
          {
            "name": "G#5",
            "midi": 80,
            "time": 59.83336324999996,
            "velocity": 0.3858267716535433,
            "duration": 0.16666674999999742
          },
          {
            "name": "F#5",
            "midi": 78,
            "time": 60.00002999999996,
            "velocity": 0.3858267716535433,
            "duration": 0.16666674999999742
          },
          {
            "name": "A#5",
            "midi": 82,
            "time": 60.00002999999996,
            "velocity": 0.3858267716535433,
            "duration": 0.16666674999999742
          },
          {
            "name": "D5",
            "midi": 74,
            "time": 60.16669674999996,
            "velocity": 0.3858267716535433,
            "duration": 0.16666674999999742
          },
          {
            "name": "G#5",
            "midi": 80,
            "time": 60.16669674999996,
            "velocity": 0.3858267716535433,
            "duration": 0.16666674999999742
          },
          {
            "name": "F#5",
            "midi": 78,
            "time": 60.333363499999955,
            "velocity": 0.3858267716535433,
            "duration": 0.16666674999999742
          },
          {
            "name": "A#5",
            "midi": 82,
            "time": 60.333363499999955,
            "velocity": 0.3858267716535433,
            "duration": 0.16666674999999742
          },
          {
            "name": "D5",
            "midi": 74,
            "time": 60.50003024999995,
            "velocity": 0.3858267716535433,
            "duration": 0.16666674999999742
          },
          {
            "name": "G#5",
            "midi": 80,
            "time": 60.50003024999995,
            "velocity": 0.3858267716535433,
            "duration": 0.16666674999999742
          },
          {
            "name": "F#5",
            "midi": 78,
            "time": 60.66669699999995,
            "velocity": 0.3858267716535433,
            "duration": 0.16666674999999742
          },
          {
            "name": "A#5",
            "midi": 82,
            "time": 60.66669699999995,
            "velocity": 0.3858267716535433,
            "duration": 0.16666674999999742
          },
          {
            "name": "D5",
            "midi": 74,
            "time": 60.83336374999995,
            "velocity": 0.3858267716535433,
            "duration": 0.16666674999999742
          },
          {
            "name": "G#5",
            "midi": 80,
            "time": 60.83336374999995,
            "velocity": 0.3858267716535433,
            "duration": 0.16666674999999742
          },
          {
            "name": "F#5",
            "midi": 78,
            "time": 61.000030499999944,
            "velocity": 0.3858267716535433,
            "duration": 0.16666674999999742
          },
          {
            "name": "B5",
            "midi": 83,
            "time": 61.000030499999944,
            "velocity": 0.3858267716535433,
            "duration": 0.16666674999999742
          },
          {
            "name": "D5",
            "midi": 74,
            "time": 61.16669724999994,
            "velocity": 0.3858267716535433,
            "duration": 0.16666674999999742
          },
          {
            "name": "G#5",
            "midi": 80,
            "time": 61.16669724999994,
            "velocity": 0.3858267716535433,
            "duration": 0.16666674999999742
          },
          {
            "name": "F#5",
            "midi": 78,
            "time": 61.33336399999994,
            "velocity": 0.3858267716535433,
            "duration": 0.16666674999999742
          },
          {
            "name": "B5",
            "midi": 83,
            "time": 61.33336399999994,
            "velocity": 0.3858267716535433,
            "duration": 0.16666674999999742
          },
          {
            "name": "D5",
            "midi": 74,
            "time": 61.50003074999994,
            "velocity": 0.3858267716535433,
            "duration": 0.16666674999999742
          },
          {
            "name": "G#5",
            "midi": 80,
            "time": 61.50003074999994,
            "velocity": 0.3858267716535433,
            "duration": 0.16666674999999742
          },
          {
            "name": "F#5",
            "midi": 78,
            "time": 61.666697499999934,
            "velocity": 0.3858267716535433,
            "duration": 0.16666674999999742
          },
          {
            "name": "B5",
            "midi": 83,
            "time": 61.666697499999934,
            "velocity": 0.3858267716535433,
            "duration": 0.16666674999999742
          },
          {
            "name": "D5",
            "midi": 74,
            "time": 61.83336424999993,
            "velocity": 0.3858267716535433,
            "duration": 0.16666674999999742
          },
          {
            "name": "G#5",
            "midi": 80,
            "time": 61.83336424999993,
            "velocity": 0.3858267716535433,
            "duration": 0.16666674999999742
          },
          {
            "name": "A5",
            "midi": 81,
            "time": 62.00003099999993,
            "velocity": 0.3858267716535433,
            "duration": 0.16666674999999742
          },
          {
            "name": "B5",
            "midi": 83,
            "time": 62.00003099999993,
            "velocity": 0.3858267716535433,
            "duration": 0.16666674999999742
          },
          {
            "name": "F5",
            "midi": 77,
            "time": 62.166697749999926,
            "velocity": 0.3858267716535433,
            "duration": 0.16666674999999742
          },
          {
            "name": "A5",
            "midi": 81,
            "time": 62.333364499999924,
            "velocity": 0.3858267716535433,
            "duration": 0.16666674999999742
          },
          {
            "name": "B5",
            "midi": 83,
            "time": 62.333364499999924,
            "velocity": 0.3858267716535433,
            "duration": 0.16666674999999742
          },
          {
            "name": "F5",
            "midi": 77,
            "time": 62.50003124999992,
            "velocity": 0.3858267716535433,
            "duration": 0.16666674999999742
          },
          {
            "name": "A5",
            "midi": 81,
            "time": 62.66669799999992,
            "velocity": 0.3858267716535433,
            "duration": 0.16666674999999742
          },
          {
            "name": "B5",
            "midi": 83,
            "time": 62.66669799999992,
            "velocity": 0.3858267716535433,
            "duration": 0.16666674999999742
          },
          {
            "name": "F5",
            "midi": 77,
            "time": 62.833364749999916,
            "velocity": 0.3858267716535433,
            "duration": 0.16666674999999742
          },
          {
            "name": "A5",
            "midi": 81,
            "time": 63.00003149999991,
            "velocity": 0.3858267716535433,
            "duration": 0.16666674999999742
          },
          {
            "name": "C6",
            "midi": 84,
            "time": 63.00003149999991,
            "velocity": 0.3858267716535433,
            "duration": 0.16666674999999742
          },
          {
            "name": "F5",
            "midi": 77,
            "time": 63.16669824999991,
            "velocity": 0.3858267716535433,
            "duration": 0.16666674999999742
          },
          {
            "name": "B5",
            "midi": 83,
            "time": 63.16669824999991,
            "velocity": 0.3858267716535433,
            "duration": 0.16666674999999742
          },
          {
            "name": "A5",
            "midi": 81,
            "time": 63.33336499999991,
            "velocity": 0.3858267716535433,
            "duration": 0.16666674999999742
          },
          {
            "name": "C6",
            "midi": 84,
            "time": 63.33336499999991,
            "velocity": 0.3858267716535433,
            "duration": 0.16666674999999742
          },
          {
            "name": "F5",
            "midi": 77,
            "time": 63.500031749999906,
            "velocity": 0.3858267716535433,
            "duration": 0.16666674999999742
          },
          {
            "name": "B5",
            "midi": 83,
            "time": 63.500031749999906,
            "velocity": 0.3858267716535433,
            "duration": 0.16666674999999742
          },
          {
            "name": "A5",
            "midi": 81,
            "time": 63.6666984999999,
            "velocity": 0.3858267716535433,
            "duration": 0.16666674999999742
          },
          {
            "name": "C6",
            "midi": 84,
            "time": 63.6666984999999,
            "velocity": 0.3858267716535433,
            "duration": 0.16666674999999742
          },
          {
            "name": "F5",
            "midi": 77,
            "time": 63.8333652499999,
            "velocity": 0.3858267716535433,
            "duration": 0.16666675000000453
          },
          {
            "name": "B5",
            "midi": 83,
            "time": 63.8333652499999,
            "velocity": 0.3858267716535433,
            "duration": 0.16666675000000453
          },
          {
            "name": "A5",
            "midi": 81,
            "time": 64.0000319999999,
            "velocity": 0.3858267716535433,
            "duration": 0.16666675000000453
          },
          {
            "name": "C#6",
            "midi": 85,
            "time": 64.0000319999999,
            "velocity": 0.3858267716535433,
            "duration": 0.16666675000000453
          },
          {
            "name": "F5",
            "midi": 77,
            "time": 64.16669874999991,
            "velocity": 0.3858267716535433,
            "duration": 0.16666675000000453
          },
          {
            "name": "B5",
            "midi": 83,
            "time": 64.16669874999991,
            "velocity": 0.3858267716535433,
            "duration": 0.16666675000000453
          },
          {
            "name": "A5",
            "midi": 81,
            "time": 64.33336549999991,
            "velocity": 0.3858267716535433,
            "duration": 0.16666675000000453
          },
          {
            "name": "C#6",
            "midi": 85,
            "time": 64.33336549999991,
            "velocity": 0.3858267716535433,
            "duration": 0.16666675000000453
          },
          {
            "name": "F5",
            "midi": 77,
            "time": 64.50003224999992,
            "velocity": 0.3858267716535433,
            "duration": 0.16666675000000453
          },
          {
            "name": "B5",
            "midi": 83,
            "time": 64.50003224999992,
            "velocity": 0.3858267716535433,
            "duration": 0.16666675000000453
          },
          {
            "name": "A5",
            "midi": 81,
            "time": 64.66669899999992,
            "velocity": 0.3858267716535433,
            "duration": 0.16666675000000453
          },
          {
            "name": "C#6",
            "midi": 85,
            "time": 64.66669899999992,
            "velocity": 0.3858267716535433,
            "duration": 0.16666675000000453
          },
          {
            "name": "F5",
            "midi": 77,
            "time": 64.83336574999993,
            "velocity": 0.3858267716535433,
            "duration": 0.16666675000000453
          },
          {
            "name": "B5",
            "midi": 83,
            "time": 64.83336574999993,
            "velocity": 0.3858267716535433,
            "duration": 0.16666675000000453
          },
          {
            "name": "A5",
            "midi": 81,
            "time": 65.00003249999993,
            "velocity": 0.3858267716535433,
            "duration": 0.16666675000000453
          },
          {
            "name": "D6",
            "midi": 86,
            "time": 65.00003249999993,
            "velocity": 0.3858267716535433,
            "duration": 0.16666675000000453
          },
          {
            "name": "F5",
            "midi": 77,
            "time": 65.16669924999994,
            "velocity": 0.3858267716535433,
            "duration": 0.16666675000000453
          },
          {
            "name": "B5",
            "midi": 83,
            "time": 65.16669924999994,
            "velocity": 0.3858267716535433,
            "duration": 0.16666675000000453
          },
          {
            "name": "A5",
            "midi": 81,
            "time": 65.33336599999994,
            "velocity": 0.3858267716535433,
            "duration": 0.16666675000000453
          },
          {
            "name": "D6",
            "midi": 86,
            "time": 65.33336599999994,
            "velocity": 0.3858267716535433,
            "duration": 0.16666675000000453
          },
          {
            "name": "F5",
            "midi": 77,
            "time": 65.50003274999995,
            "velocity": 0.3858267716535433,
            "duration": 0.16666675000000453
          },
          {
            "name": "B5",
            "midi": 83,
            "time": 65.50003274999995,
            "velocity": 0.3858267716535433,
            "duration": 0.16666675000000453
          },
          {
            "name": "A5",
            "midi": 81,
            "time": 65.66669949999995,
            "velocity": 0.3858267716535433,
            "duration": 0.16666675000000453
          },
          {
            "name": "D6",
            "midi": 86,
            "time": 65.66669949999995,
            "velocity": 0.3858267716535433,
            "duration": 0.16666675000000453
          },
          {
            "name": "F5",
            "midi": 77,
            "time": 65.83336624999995,
            "velocity": 0.3858267716535433,
            "duration": 0.16666675000000453
          },
          {
            "name": "B5",
            "midi": 83,
            "time": 65.83336624999995,
            "velocity": 0.3858267716535433,
            "duration": 0.16666675000000453
          },
          {
            "name": "C#4",
            "midi": 61,
            "time": 70.00003499999995,
            "velocity": 0.6929133858267716,
            "duration": 0.06527781041666003
          },
          {
            "name": "F4",
            "midi": 65,
            "time": 70.00003499999995,
            "velocity": 0.6929133858267716,
            "duration": 0.06527781041666003
          },
          {
            "name": "B4",
            "midi": 71,
            "time": 70.00003499999995,
            "velocity": 0.6929133858267716,
            "duration": 0.06527781041666003
          },
          {
            "name": "D#5",
            "midi": 75,
            "time": 70.00003499999995,
            "velocity": 0.6929133858267716,
            "duration": 0.06527781041666003
          },
          {
            "name": "F5",
            "midi": 77,
            "time": 70.06531281041661,
            "velocity": 0.6929133858267716,
            "duration": 0.0680555895833379
          },
          {
            "name": "A#5",
            "midi": 82,
            "time": 70.13336839999995,
            "velocity": 0.6929133858267716,
            "duration": 0.06527781041666003
          },
          {
            "name": "D#6",
            "midi": 87,
            "time": 70.19864621041661,
            "velocity": 0.6929133858267716,
            "duration": 0.0680555895833379
          },
          {
            "name": "F6",
            "midi": 89,
            "time": 70.26670179999995,
            "velocity": 0.6929133858267716,
            "duration": 0.06666669999999897
          },
          {
            "name": "A#6",
            "midi": 94,
            "time": 70.33336849999995,
            "velocity": 0.6929133858267716,
            "duration": 0.33333349999999484
          },
          {
            "name": "A#6",
            "midi": 94,
            "time": 70.66670199999994,
            "velocity": 0.6929133858267716,
            "duration": 0.08333337499999516
          },
          {
            "name": "F6",
            "midi": 89,
            "time": 70.75003537499994,
            "velocity": 0.6929133858267716,
            "duration": 0.08333337499999516
          },
          {
            "name": "D#6",
            "midi": 87,
            "time": 70.83336874999993,
            "velocity": 0.6929133858267716,
            "duration": 0.08333337499999516
          },
          {
            "name": "B5",
            "midi": 83,
            "time": 70.91670212499993,
            "velocity": 0.6929133858267716,
            "duration": 0.08333337499999516
          },
          {
            "name": "A#5",
            "midi": 82,
            "time": 71.00003549999992,
            "velocity": 0.6929133858267716,
            "duration": 0.11111116666666021
          },
          {
            "name": "A#6",
            "midi": 94,
            "time": 71.00003549999992,
            "velocity": 0.6929133858267716,
            "duration": 0.11111116666666021
          },
          {
            "name": "F6",
            "midi": 89,
            "time": 71.11114666666658,
            "velocity": 0.6929133858267716,
            "duration": 0.10972227708333548
          },
          {
            "name": "D#6",
            "midi": 87,
            "time": 71.22086894374992,
            "velocity": 0.6929133858267716,
            "duration": 0.11250005624999915
          },
          {
            "name": "B5",
            "midi": 83,
            "time": 71.33336899999992,
            "velocity": 0.6929133858267716,
            "duration": 0.33333349999999484
          },
          {
            "name": "A#5",
            "midi": 82,
            "time": 71.66670249999991,
            "velocity": 0.6929133858267716,
            "duration": 0.33333349999999484
          },
          {
            "name": "B4",
            "midi": 71,
            "time": 72.00003599999991,
            "velocity": 0.5905511811023622,
            "duration": 0.08333337499999516
          },
          {
            "name": "C#5",
            "midi": 73,
            "time": 72.0833693749999,
            "velocity": 0.5905511811023622,
            "duration": 0.08333337499999516
          },
          {
            "name": "B4",
            "midi": 71,
            "time": 72.1667027499999,
            "velocity": 0.5905511811023622,
            "duration": 0.08333337499999516
          },
          {
            "name": "C#5",
            "midi": 73,
            "time": 72.2500361249999,
            "velocity": 0.5905511811023622,
            "duration": 0.08333337499999516
          },
          {
            "name": "B4",
            "midi": 71,
            "time": 72.33336949999989,
            "velocity": 0.5905511811023622,
            "duration": 0.08333337499999516
          },
          {
            "name": "C#5",
            "midi": 73,
            "time": 72.41670287499988,
            "velocity": 0.5905511811023622,
            "duration": 0.08333337499999516
          },
          {
            "name": "B4",
            "midi": 71,
            "time": 72.50003624999988,
            "velocity": 0.5905511811023622,
            "duration": 0.08333337499999516
          },
          {
            "name": "C#5",
            "midi": 73,
            "time": 72.58336962499988,
            "velocity": 0.5905511811023622,
            "duration": 0.08333337499999516
          },
          {
            "name": "B4",
            "midi": 71,
            "time": 72.66670299999987,
            "velocity": 0.5905511811023622,
            "duration": 0.08333337499999516
          },
          {
            "name": "C#5",
            "midi": 73,
            "time": 72.75003637499987,
            "velocity": 0.5905511811023622,
            "duration": 0.08333337499999516
          },
          {
            "name": "B4",
            "midi": 71,
            "time": 72.83336974999986,
            "velocity": 0.5905511811023622,
            "duration": 0.08333337499999516
          },
          {
            "name": "C#5",
            "midi": 73,
            "time": 72.91670312499986,
            "velocity": 0.5905511811023622,
            "duration": 0.08333337499999516
          },
          {
            "name": "B4",
            "midi": 71,
            "time": 73.00003649999985,
            "velocity": 0.6929133858267716,
            "duration": 0.33333349999999484
          },
          {
            "name": "B4",
            "midi": 71,
            "time": 73.33336999999985,
            "velocity": 0.6929133858267716,
            "duration": 0.11111116666666021
          },
          {
            "name": "C5",
            "midi": 72,
            "time": 73.4444811666665,
            "velocity": 0.6929133858267716,
            "duration": 0.10972227708333548
          },
          {
            "name": "C#5",
            "midi": 73,
            "time": 73.55420344374984,
            "velocity": 0.6929133858267716,
            "duration": 0.11250005624999915
          },
          {
            "name": "D5",
            "midi": 74,
            "time": 73.66670349999984,
            "velocity": 0.6929133858267716,
            "duration": 0.11111116666666021
          },
          {
            "name": "D#5",
            "midi": 75,
            "time": 73.7778146666665,
            "velocity": 0.6929133858267716,
            "duration": 0.10972227708333548
          },
          {
            "name": "E5",
            "midi": 76,
            "time": 73.88753694374984,
            "velocity": 0.6929133858267716,
            "duration": 0.11250005624999915
          },
          {
            "name": "F5",
            "midi": 77,
            "time": 74.00003699999984,
            "velocity": 0.6929133858267716,
            "duration": 0.06527781041666003
          },
          {
            "name": "A#5",
            "midi": 82,
            "time": 74.0653148104165,
            "velocity": 0.6929133858267716,
            "duration": 0.0680555895833379
          },
          {
            "name": "D#6",
            "midi": 87,
            "time": 74.13337039999983,
            "velocity": 0.6929133858267716,
            "duration": 0.06527781041666003
          },
          {
            "name": "F6",
            "midi": 89,
            "time": 74.1986482104165,
            "velocity": 0.6929133858267716,
            "duration": 0.0680555895833379
          },
          {
            "name": "A#6",
            "midi": 94,
            "time": 74.26670379999983,
            "velocity": 0.6929133858267716,
            "duration": 0.06666669999999897
          },
          {
            "name": "D#7",
            "midi": 99,
            "time": 74.33337049999983,
            "velocity": 0.6929133858267716,
            "duration": 0.33333349999999484
          },
          {
            "name": "F6",
            "midi": 89,
            "time": 74.66670399999983,
            "velocity": 0.6929133858267716,
            "duration": 0.11111116666666021
          },
          {
            "name": "D#6",
            "midi": 87,
            "time": 74.77781516666649,
            "velocity": 0.6929133858267716,
            "duration": 0.10972227708333548
          },
          {
            "name": "A#5",
            "midi": 82,
            "time": 74.88753744374982,
            "velocity": 0.6929133858267716,
            "duration": 0.11250005624999915
          },
          {
            "name": "F5",
            "midi": 77,
            "time": 75.00003749999982,
            "velocity": 0.6929133858267716,
            "duration": 0.06527781041666003
          },
          {
            "name": "A5",
            "midi": 81,
            "time": 75.06531531041648,
            "velocity": 0.6929133858267716,
            "duration": 0.0680555895833379
          },
          {
            "name": "D#6",
            "midi": 87,
            "time": 75.13337089999982,
            "velocity": 0.6929133858267716,
            "duration": 0.06527781041666003
          },
          {
            "name": "F5",
            "midi": 77,
            "time": 75.19864871041648,
            "velocity": 0.6929133858267716,
            "duration": 0.0680555895833379
          },
          {
            "name": "A5",
            "midi": 81,
            "time": 75.26670429999982,
            "velocity": 0.6929133858267716,
            "duration": 0.06666669999999897
          },
          {
            "name": "D#7",
            "midi": 99,
            "time": 75.33337099999981,
            "velocity": 0.6929133858267716,
            "duration": 0.33333349999999484
          },
          {
            "name": "F6",
            "midi": 89,
            "time": 75.66670449999981,
            "velocity": 0.6929133858267716,
            "duration": 0.11111116666666021
          },
          {
            "name": "D#6",
            "midi": 87,
            "time": 75.77781566666647,
            "velocity": 0.6929133858267716,
            "duration": 0.10972227708333548
          },
          {
            "name": "A5",
            "midi": 81,
            "time": 75.8875379437498,
            "velocity": 0.6929133858267716,
            "duration": 0.11250005624999915
          },
          {
            "name": "D#7",
            "midi": 99,
            "time": 76.0000379999998,
            "velocity": 0.6929133858267716,
            "duration": 0.11111116666666021
          },
          {
            "name": "D7",
            "midi": 98,
            "time": 76.11114916666646,
            "velocity": 0.6929133858267716,
            "duration": 0.10972227708333548
          },
          {
            "name": "C#7",
            "midi": 97,
            "time": 76.2208714437498,
            "velocity": 0.6929133858267716,
            "duration": 0.11250005624999915
          },
          {
            "name": "A6",
            "midi": 93,
            "time": 76.3333714999998,
            "velocity": 0.6929133858267716,
            "duration": 0.11111116666666021
          },
          {
            "name": "G#6",
            "midi": 92,
            "time": 76.44448266666646,
            "velocity": 0.6929133858267716,
            "duration": 0.10972227708333548
          },
          {
            "name": "G6",
            "midi": 91,
            "time": 76.5542049437498,
            "velocity": 0.6929133858267716,
            "duration": 0.11250005624999915
          },
          {
            "name": "D#6",
            "midi": 87,
            "time": 76.6667049999998,
            "velocity": 0.6929133858267716,
            "duration": 0.11111116666666021
          },
          {
            "name": "D6",
            "midi": 86,
            "time": 76.77781616666645,
            "velocity": 0.6929133858267716,
            "duration": 0.10972227708333548
          },
          {
            "name": "C#6",
            "midi": 85,
            "time": 76.88753844374979,
            "velocity": 0.6929133858267716,
            "duration": 0.11250005624999915
          },
          {
            "name": "A6",
            "midi": 93,
            "time": 77.00003849999979,
            "velocity": 0.6929133858267716,
            "duration": 0.11111116666666021
          },
          {
            "name": "G#6",
            "midi": 92,
            "time": 77.11114966666645,
            "velocity": 0.6929133858267716,
            "duration": 0.10972227708333548
          },
          {
            "name": "G6",
            "midi": 91,
            "time": 77.22087194374978,
            "velocity": 0.6929133858267716,
            "duration": 0.11250005624999915
          },
          {
            "name": "D#6",
            "midi": 87,
            "time": 77.33337199999978,
            "velocity": 0.6929133858267716,
            "duration": 0.11111116666666021
          },
          {
            "name": "D6",
            "midi": 86,
            "time": 77.44448316666644,
            "velocity": 0.6929133858267716,
            "duration": 0.10972227708333548
          },
          {
            "name": "C#6",
            "midi": 85,
            "time": 77.55420544374978,
            "velocity": 0.6929133858267716,
            "duration": 0.11250005624999915
          },
          {
            "name": "A5",
            "midi": 81,
            "time": 77.66670549999978,
            "velocity": 0.6929133858267716,
            "duration": 0.11111116666666021
          },
          {
            "name": "G#5",
            "midi": 80,
            "time": 77.77781666666644,
            "velocity": 0.6929133858267716,
            "duration": 0.10972227708333548
          },
          {
            "name": "G5",
            "midi": 79,
            "time": 77.88753894374977,
            "velocity": 0.6929133858267716,
            "duration": 0.11250005624999915
          },
          {
            "name": "G#6",
            "midi": 92,
            "time": 78.00003899999977,
            "velocity": 0.6929133858267716,
            "duration": 0.14166673750000314
          },
          {
            "name": "G6",
            "midi": 91,
            "time": 78.14170573749978,
            "velocity": 0.6929133858267716,
            "duration": 0.14305562708332786
          },
          {
            "name": "F#6",
            "midi": 90,
            "time": 78.2847613645831,
            "velocity": 0.6929133858267716,
            "duration": 0.14305562708332786
          },
          {
            "name": "D6",
            "midi": 86,
            "time": 78.42781699166643,
            "velocity": 0.6929133858267716,
            "duration": 0.14305562708332786
          },
          {
            "name": "G#5",
            "midi": 80,
            "time": 78.57087261874976,
            "velocity": 0.6929133858267716,
            "duration": 0.14305562708332786
          },
          {
            "name": "G5",
            "midi": 79,
            "time": 78.71392824583309,
            "velocity": 0.6929133858267716,
            "duration": 0.14305562708332786
          },
          {
            "name": "F#5",
            "midi": 78,
            "time": 78.85698387291642,
            "velocity": 0.6929133858267716,
            "duration": 0.14305562708332786
          },
          {
            "name": "F5",
            "midi": 77,
            "time": 79.00003949999974,
            "velocity": 0.6929133858267716,
            "duration": 0.08333337499999516
          },
          {
            "name": "F#5",
            "midi": 78,
            "time": 79.08337287499974,
            "velocity": 0.6929133858267716,
            "duration": 0.08333337499999516
          },
          {
            "name": "F5",
            "midi": 77,
            "time": 79.16670624999973,
            "velocity": 0.6929133858267716,
            "duration": 0.08333337499999516
          },
          {
            "name": "F#5",
            "midi": 78,
            "time": 79.25003962499973,
            "velocity": 0.6929133858267716,
            "duration": 0.08333337499999516
          },
          {
            "name": "F5",
            "midi": 77,
            "time": 79.33337299999972,
            "velocity": 0.6929133858267716,
            "duration": 0.08333337499999516
          },
          {
            "name": "F#5",
            "midi": 78,
            "time": 79.41670637499972,
            "velocity": 0.6929133858267716,
            "duration": 0.08333337499999516
          },
          {
            "name": "F5",
            "midi": 77,
            "time": 79.50003974999971,
            "velocity": 0.6929133858267716,
            "duration": 0.08333337499999516
          },
          {
            "name": "F#5",
            "midi": 78,
            "time": 79.58337312499971,
            "velocity": 0.6929133858267716,
            "duration": 0.08333337499999516
          },
          {
            "name": "F5",
            "midi": 77,
            "time": 79.6667064999997,
            "velocity": 0.6929133858267716,
            "duration": 0.08333337499999516
          },
          {
            "name": "F#5",
            "midi": 78,
            "time": 79.7500398749997,
            "velocity": 0.6929133858267716,
            "duration": 0.08333337499999516
          },
          {
            "name": "F5",
            "midi": 77,
            "time": 79.8333732499997,
            "velocity": 0.6929133858267716,
            "duration": 0.08333337499999516
          },
          {
            "name": "F#5",
            "midi": 78,
            "time": 79.91670662499969,
            "velocity": 0.6929133858267716,
            "duration": 0.08333337499999516
          },
          {
            "name": "C#4",
            "midi": 61,
            "time": 80.00003999999969,
            "velocity": 0.5905511811023622,
            "duration": 1.0000004999999987
          },
          {
            "name": "D#4",
            "midi": 63,
            "time": 80.00003999999969,
            "velocity": 0.5905511811023622,
            "duration": 1.0000004999999987
          },
          {
            "name": "F#4",
            "midi": 66,
            "time": 80.00003999999969,
            "velocity": 0.5905511811023622,
            "duration": 1.0000004999999987
          },
          {
            "name": "C5",
            "midi": 72,
            "time": 80.00003999999969,
            "velocity": 0.5905511811023622,
            "duration": 1.0000004999999987
          },
          {
            "name": "C#4",
            "midi": 61,
            "time": 80.87504043749969,
            "velocity": 0.5905511811023622,
            "duration": 0.4583335624999876
          },
          {
            "name": "F4",
            "midi": 65,
            "time": 80.91670712499969,
            "velocity": 0.5905511811023622,
            "duration": 0.41666687499999
          },
          {
            "name": "B4",
            "midi": 71,
            "time": 80.95837381249969,
            "velocity": 0.5905511811023622,
            "duration": 0.3750001874999924
          },
          {
            "name": "D#5",
            "midi": 75,
            "time": 81.00004049999968,
            "velocity": 0.5905511811023622,
            "duration": 0.33333349999999484
          },
          {
            "name": "F#5",
            "midi": 78,
            "time": 82.00004099999968,
            "velocity": 0.5905511811023622,
            "duration": 1.0000004999999987
          },
          {
            "name": "A5",
            "midi": 81,
            "time": 82.00004099999968,
            "velocity": 0.5905511811023622,
            "duration": 1.0000004999999987
          },
          {
            "name": "B5",
            "midi": 83,
            "time": 82.00004099999968,
            "velocity": 0.5905511811023622,
            "duration": 1.0000004999999987
          },
          {
            "name": "D6",
            "midi": 86,
            "time": 82.00004099999968,
            "velocity": 0.5905511811023622,
            "duration": 1.0000004999999987
          },
          {
            "name": "E5",
            "midi": 76,
            "time": 86.66670999999968,
            "velocity": 0.5905511811023622,
            "duration": 0.6666670000000039
          },
          {
            "name": "C5",
            "midi": 72,
            "time": 88.66671099999968,
            "velocity": 0.5905511811023622,
            "duration": 0.6666670000000039
          },
          {
            "name": "G#4",
            "midi": 68,
            "time": 89.66671149999968,
            "velocity": 0.5905511811023622,
            "duration": 0.6666670000000039
          },
          {
            "name": "D5",
            "midi": 74,
            "time": 91.00004549999969,
            "velocity": 0.5905511811023622,
            "duration": 0.33333349999999484
          },
          {
            "name": "G#4",
            "midi": 68,
            "time": 91.66671249999968,
            "velocity": 0.5905511811023622,
            "duration": 0.33333349999999484
          },
          {
            "name": "D4",
            "midi": 62,
            "time": 92.33337949999967,
            "velocity": 0.5905511811023622,
            "duration": 0.33333349999999484
          },
          {
            "name": "G4",
            "midi": 67,
            "time": 94.66671399999966,
            "velocity": 0.3858267716535433,
            "duration": 2.0000009999999975
          },
          {
            "name": "A4",
            "midi": 69,
            "time": 94.66671399999966,
            "velocity": 0.3858267716535433,
            "duration": 2.0000009999999975
          }
        ],
        "controlChanges": {
          "7": [
            {
              "number": 7,
              "time": 0,
              "value": 1
            }
          ],
          "10": [
            {
              "number": 10,
              "time": 0,
              "value": 0.7637795275590551
            }
          ],
          "64": [
            {
              "number": 64,
              "time": 16.000007999999983,
              "value": 1
            },
            {
              "number": 64,
              "time": 16.333341499999985,
              "value": 0
            },
            {
              "number": 64,
              "time": 18.33334249999997,
              "value": 1
            },
            {
              "number": 64,
              "time": 19.88750994374996,
              "value": 0
            },
            {
              "number": 64,
              "time": 20.00000999999996,
              "value": 1
            },
            {
              "number": 64,
              "time": 20.333343499999962,
              "value": 0
            },
            {
              "number": 64,
              "time": 22.000010999999947,
              "value": 1
            },
            {
              "number": 64,
              "time": 22.33334449999995,
              "value": 0
            },
            {
              "number": 64,
              "time": 26.000012999999942,
              "value": 1
            },
            {
              "number": 64,
              "time": 26.333346499999937,
              "value": 0
            },
            {
              "number": 64,
              "time": 26.666679999999936,
              "value": 1
            },
            {
              "number": 64,
              "time": 27.00001349999993,
              "value": 0
            },
            {
              "number": 64,
              "time": 27.33334699999993,
              "value": 1
            },
            {
              "number": 64,
              "time": 27.666680499999924,
              "value": 0
            },
            {
              "number": 64,
              "time": 29.000014499999924,
              "value": 1
            },
            {
              "number": 64,
              "time": 29.666681499999928,
              "value": 0
            },
            {
              "number": 64,
              "time": 30.000014999999927,
              "value": 1
            },
            {
              "number": 64,
              "time": 30.33334849999992,
              "value": 0
            },
            {
              "number": 64,
              "time": 30.66668199999992,
              "value": 1
            },
            {
              "number": 64,
              "time": 31.000015499999915,
              "value": 0
            },
            {
              "number": 64,
              "time": 31.333348999999913,
              "value": 1
            },
            {
              "number": 64,
              "time": 31.666682499999908,
              "value": 0
            },
            {
              "number": 64,
              "time": 32.66668299999992,
              "value": 1
            },
            {
              "number": 64,
              "time": 33.8333502499999,
              "value": 0
            },
            {
              "number": 64,
              "time": 34.0000169999999,
              "value": 1
            },
            {
              "number": 64,
              "time": 34.33335049999991,
              "value": 0
            },
            {
              "number": 64,
              "time": 34.66668399999991,
              "value": 1
            },
            {
              "number": 64,
              "time": 35.00001749999992,
              "value": 0
            },
            {
              "number": 64,
              "time": 35.33335099999992,
              "value": 1
            },
            {
              "number": 64,
              "time": 35.66668449999993,
              "value": 0
            },
            {
              "number": 64,
              "time": 37.00001849999996,
              "value": 1
            },
            {
              "number": 64,
              "time": 37.66668549999995,
              "value": 0
            },
            {
              "number": 64,
              "time": 70.00003499999995,
              "value": 1
            },
            {
              "number": 64,
              "time": 70.33336849999995,
              "value": 0
            },
            {
              "number": 64,
              "time": 70.66670199999994,
              "value": 1
            },
            {
              "number": 64,
              "time": 70.91670212499993,
              "value": 0
            },
            {
              "number": 64,
              "time": 71.00003549999992,
              "value": 1
            },
            {
              "number": 64,
              "time": 71.66670249999991,
              "value": 0
            },
            {
              "number": 64,
              "time": 73.33336999999985,
              "value": 1
            },
            {
              "number": 64,
              "time": 73.88753694374984,
              "value": 0
            },
            {
              "number": 64,
              "time": 74.00003699999984,
              "value": 1
            },
            {
              "number": 64,
              "time": 75.00003749999982,
              "value": 1
            },
            {
              "number": 64,
              "time": 76.0000379999998,
              "value": 1
            },
            {
              "number": 64,
              "time": 76.88753844374979,
              "value": 0
            },
            {
              "number": 64,
              "time": 77.00003849999979,
              "value": 1
            },
            {
              "number": 64,
              "time": 77.88753894374977,
              "value": 0
            },
            {
              "number": 64,
              "time": 78.00003899999977,
              "value": 1
            },
            {
              "number": 64,
              "time": 78.85698387291642,
              "value": 0
            }
          ]
        },
        "id": 2,
        "name": "Instrument17",
        "instrumentNumber": 0,
        "instrument": "acoustic grand piano",
        "instrumentFamily": "piano",
        "channelNumber": 1,
        "isPercussion": false
      },
      {
        "startTime": 0.3333335,
        "duration": 80.00004000000004,
        "length": 195,
        "notes": [
          {
            "name": "C#4",
            "midi": 61,
            "time": 0.3333335,
            "velocity": 0.3858267716535433,
            "duration": 0.3333335
          },
          {
            "name": "G#3",
            "midi": 56,
            "time": 1.0000005,
            "velocity": 0.3858267716535433,
            "duration": 0.33333349999999995
          },
          {
            "name": "C#4",
            "midi": 61,
            "time": 2.000001,
            "velocity": 0.3858267716535433,
            "duration": 0.33333350000000017
          },
          {
            "name": "C#3",
            "midi": 49,
            "time": 3.3333350000000004,
            "velocity": 0.3858267716535433,
            "duration": 0.33333350000000017
          },
          {
            "name": "G2",
            "midi": 43,
            "time": 4.3333355000000005,
            "velocity": 0.3858267716535433,
            "duration": 0.33333350000000017
          },
          {
            "name": "C#3",
            "midi": 49,
            "time": 5.000002500000001,
            "velocity": 0.3858267716535433,
            "duration": 0.33333350000000017
          },
          {
            "name": "G3",
            "midi": 55,
            "time": 5.666669500000001,
            "velocity": 0.3858267716535433,
            "duration": 0.33333350000000017
          },
          {
            "name": "C#4",
            "midi": 61,
            "time": 6.000003000000001,
            "velocity": 0.3858267716535433,
            "duration": 0.33333350000000017
          },
          {
            "name": "G4",
            "midi": 67,
            "time": 7.000003500000002,
            "velocity": 0.3858267716535433,
            "duration": 0.33333350000000017
          },
          {
            "name": "F#4",
            "midi": 66,
            "time": 7.666670500000002,
            "velocity": 0.3858267716535433,
            "duration": 0.33333350000000017
          },
          {
            "name": "E4",
            "midi": 64,
            "time": 8.333337500000003,
            "velocity": 0.3858267716535433,
            "duration": 0.33333350000000017
          },
          {
            "name": "B3",
            "midi": 59,
            "time": 9.000004500000003,
            "velocity": 0.3858267716535433,
            "duration": 0.33333350000000017
          },
          {
            "name": "E4",
            "midi": 64,
            "time": 10.000005000000003,
            "velocity": 0.3858267716535433,
            "duration": 0.33333350000000017
          },
          {
            "name": "E3",
            "midi": 52,
            "time": 11.333339000000004,
            "velocity": 0.3858267716535433,
            "duration": 0.33333350000000017
          },
          {
            "name": "A#2",
            "midi": 46,
            "time": 12.333339500000005,
            "velocity": 0.3858267716535433,
            "duration": 0.33333350000000017
          },
          {
            "name": "E3",
            "midi": 52,
            "time": 13.000006500000005,
            "velocity": 0.3858267716535433,
            "duration": 0.33333350000000017
          },
          {
            "name": "A#3",
            "midi": 58,
            "time": 13.666673500000005,
            "velocity": 0.3858267716535433,
            "duration": 0.33333350000000017
          },
          {
            "name": "E4",
            "midi": 64,
            "time": 14.000007000000005,
            "velocity": 0.3858267716535433,
            "duration": 0.33333350000000017
          },
          {
            "name": "A#4",
            "midi": 70,
            "time": 15.000007500000006,
            "velocity": 0.3858267716535433,
            "duration": 0.33333350000000017
          },
          {
            "name": "G#4",
            "midi": 68,
            "time": 15.666674500000006,
            "velocity": 0.3858267716535433,
            "duration": 0.3333334999999984
          },
          {
            "name": "G#3",
            "midi": 56,
            "time": 17.000008500000003,
            "velocity": 0.3858267716535433,
            "duration": 0.6666670000000003
          },
          {
            "name": "A3",
            "midi": 57,
            "time": 17.666675500000004,
            "velocity": 0.3858267716535433,
            "duration": 0.3333334999999984
          },
          {
            "name": "A3",
            "midi": 57,
            "time": 21.000010500000002,
            "velocity": 0.3858267716535433,
            "duration": 0.6666670000000003
          },
          {
            "name": "A#3",
            "midi": 58,
            "time": 21.666677500000002,
            "velocity": 0.3858267716535433,
            "duration": 0.3333334999999984
          },
          {
            "name": "E4",
            "midi": 64,
            "time": 23.0000115,
            "velocity": 0.5905511811023622,
            "duration": 0.3333334999999984
          },
          {
            "name": "G#4",
            "midi": 68,
            "time": 23.0000115,
            "velocity": 0.5905511811023622,
            "duration": 0.3333334999999984
          },
          {
            "name": "F4",
            "midi": 65,
            "time": 23.333344999999998,
            "velocity": 0.3858267716535433,
            "duration": 0.6666670000000003
          },
          {
            "name": "A#4",
            "midi": 70,
            "time": 23.333344999999998,
            "velocity": 0.3858267716535433,
            "duration": 0.6666670000000003
          },
          {
            "name": "F#4",
            "midi": 66,
            "time": 24.16667875,
            "velocity": 0.4881889763779528,
            "duration": 0.16666675000000097
          },
          {
            "name": "G4",
            "midi": 67,
            "time": 24.3333455,
            "velocity": 0.4881889763779528,
            "duration": 0.16666675000000097
          },
          {
            "name": "G#4",
            "midi": 68,
            "time": 24.50001225,
            "velocity": 0.4881889763779528,
            "duration": 0.16666675000000097
          },
          {
            "name": "A4",
            "midi": 69,
            "time": 24.666679000000002,
            "velocity": 0.4881889763779528,
            "duration": 0.16666675000000097
          },
          {
            "name": "A#4",
            "midi": 70,
            "time": 24.833345750000003,
            "velocity": 0.4881889763779528,
            "duration": 0.16666675000000097
          },
          {
            "name": "B4",
            "midi": 71,
            "time": 25.000012500000004,
            "velocity": 0.5905511811023622,
            "duration": 0.16666675000000097
          },
          {
            "name": "C#5",
            "midi": 73,
            "time": 25.166679250000005,
            "velocity": 0.5905511811023622,
            "duration": 0.16666675000000097
          },
          {
            "name": "C#5",
            "midi": 73,
            "time": 25.333346000000006,
            "velocity": 0.5905511811023622,
            "duration": 0.16666675000000097
          },
          {
            "name": "D5",
            "midi": 74,
            "time": 25.500012750000007,
            "velocity": 0.5905511811023622,
            "duration": 0.16666675000000097
          },
          {
            "name": "D#5",
            "midi": 75,
            "time": 25.666679500000008,
            "velocity": 0.5905511811023622,
            "duration": 0.11111116666666732
          },
          {
            "name": "E5",
            "midi": 76,
            "time": 25.777790666666675,
            "velocity": 0.5905511811023622,
            "duration": 0.10972227708333193
          },
          {
            "name": "F5",
            "midi": 77,
            "time": 25.887512943750007,
            "velocity": 0.5905511811023622,
            "duration": 0.11250005624999915
          },
          {
            "name": "D4",
            "midi": 62,
            "time": 28.000014000000007,
            "velocity": 0.5905511811023622,
            "duration": 0.03194446041666765
          },
          {
            "name": "G#4",
            "midi": 68,
            "time": 28.000014000000007,
            "velocity": 0.5905511811023622,
            "duration": 0.03194446041666765
          },
          {
            "name": "C5",
            "midi": 72,
            "time": 28.000014000000007,
            "velocity": 0.5905511811023622,
            "duration": 0.03194446041666765
          },
          {
            "name": "D4",
            "midi": 62,
            "time": 28.16668075000001,
            "velocity": 0.5905511811023622,
            "duration": 0.03194446041666765
          },
          {
            "name": "G#4",
            "midi": 68,
            "time": 28.16668075000001,
            "velocity": 0.5905511811023622,
            "duration": 0.03194446041666765
          },
          {
            "name": "C5",
            "midi": 72,
            "time": 28.16668075000001,
            "velocity": 0.5905511811023622,
            "duration": 0.03194446041666765
          },
          {
            "name": "D4",
            "midi": 62,
            "time": 28.33334750000001,
            "velocity": 0.5905511811023622,
            "duration": 0.03194446041666765
          },
          {
            "name": "G#4",
            "midi": 68,
            "time": 28.33334750000001,
            "velocity": 0.5905511811023622,
            "duration": 0.03194446041666765
          },
          {
            "name": "C5",
            "midi": 72,
            "time": 28.33334750000001,
            "velocity": 0.5905511811023622,
            "duration": 0.03194446041666765
          },
          {
            "name": "D4",
            "midi": 62,
            "time": 28.50001425000001,
            "velocity": 0.5905511811023622,
            "duration": 0.03194446041666765
          },
          {
            "name": "G#4",
            "midi": 68,
            "time": 28.50001425000001,
            "velocity": 0.5905511811023622,
            "duration": 0.03194446041666765
          },
          {
            "name": "C5",
            "midi": 72,
            "time": 28.50001425000001,
            "velocity": 0.5905511811023622,
            "duration": 0.03194446041666765
          },
          {
            "name": "D4",
            "midi": 62,
            "time": 28.66668100000001,
            "velocity": 0.5905511811023622,
            "duration": 0.06527781041666714
          },
          {
            "name": "G#4",
            "midi": 68,
            "time": 28.66668100000001,
            "velocity": 0.5905511811023622,
            "duration": 0.06527781041666714
          },
          {
            "name": "C5",
            "midi": 72,
            "time": 28.66668100000001,
            "velocity": 0.5905511811023622,
            "duration": 0.06527781041666714
          },
          {
            "name": "D4",
            "midi": 62,
            "time": 32.00001600000001,
            "velocity": 0.5905511811023622,
            "duration": 0.03194446041666765
          },
          {
            "name": "G#4",
            "midi": 68,
            "time": 32.00001600000001,
            "velocity": 0.5905511811023622,
            "duration": 0.03194446041666765
          },
          {
            "name": "C5",
            "midi": 72,
            "time": 32.00001600000001,
            "velocity": 0.5905511811023622,
            "duration": 0.03194446041666765
          },
          {
            "name": "D4",
            "midi": 62,
            "time": 32.166682750000014,
            "velocity": 0.5905511811023622,
            "duration": 0.03194446041666765
          },
          {
            "name": "G#4",
            "midi": 68,
            "time": 32.166682750000014,
            "velocity": 0.5905511811023622,
            "duration": 0.03194446041666765
          },
          {
            "name": "C5",
            "midi": 72,
            "time": 32.166682750000014,
            "velocity": 0.5905511811023622,
            "duration": 0.03194446041666765
          },
          {
            "name": "D4",
            "midi": 62,
            "time": 32.33334950000002,
            "velocity": 0.5905511811023622,
            "duration": 0.03194446041666765
          },
          {
            "name": "G#4",
            "midi": 68,
            "time": 32.33334950000002,
            "velocity": 0.5905511811023622,
            "duration": 0.03194446041666765
          },
          {
            "name": "C5",
            "midi": 72,
            "time": 32.33334950000002,
            "velocity": 0.5905511811023622,
            "duration": 0.03194446041666765
          },
          {
            "name": "D4",
            "midi": 62,
            "time": 32.50001625000002,
            "velocity": 0.5905511811023622,
            "duration": 0.03194446041666765
          },
          {
            "name": "G#4",
            "midi": 68,
            "time": 32.50001625000002,
            "velocity": 0.5905511811023622,
            "duration": 0.03194446041666765
          },
          {
            "name": "C5",
            "midi": 72,
            "time": 32.50001625000002,
            "velocity": 0.5905511811023622,
            "duration": 0.03194446041666765
          },
          {
            "name": "D4",
            "midi": 62,
            "time": 32.66668300000003,
            "velocity": 0.5905511811023622,
            "duration": 0.16666674999999742
          },
          {
            "name": "G#4",
            "midi": 68,
            "time": 32.66668300000003,
            "velocity": 0.5905511811023622,
            "duration": 0.16666674999999742
          },
          {
            "name": "C5",
            "midi": 72,
            "time": 32.66668300000003,
            "velocity": 0.5905511811023622,
            "duration": 0.16666674999999742
          },
          {
            "name": "C#5",
            "midi": 73,
            "time": 32.833349750000025,
            "velocity": 0.5905511811023622,
            "duration": 0.16666674999999742
          },
          {
            "name": "D5",
            "midi": 74,
            "time": 33.00001650000002,
            "velocity": 0.5905511811023622,
            "duration": 0.16666674999999742
          },
          {
            "name": "D#5",
            "midi": 75,
            "time": 33.16668325000002,
            "velocity": 0.5905511811023622,
            "duration": 0.16666674999999742
          },
          {
            "name": "E5",
            "midi": 76,
            "time": 33.33335000000002,
            "velocity": 0.5905511811023622,
            "duration": 0.16666674999999742
          },
          {
            "name": "F5",
            "midi": 77,
            "time": 33.500016750000015,
            "velocity": 0.5905511811023622,
            "duration": 0.16666674999999742
          },
          {
            "name": "F#5",
            "midi": 78,
            "time": 33.66668350000001,
            "velocity": 0.5905511811023622,
            "duration": 0.16666674999999742
          },
          {
            "name": "G5",
            "midi": 79,
            "time": 33.83335025000001,
            "velocity": 0.5905511811023622,
            "duration": 0.16666674999999742
          },
          {
            "name": "A#3",
            "midi": 58,
            "time": 34.00001700000001,
            "velocity": 0.5905511811023622,
            "duration": 0.33333350000000195
          },
          {
            "name": "E4",
            "midi": 64,
            "time": 34.00001700000001,
            "velocity": 0.5905511811023622,
            "duration": 0.33333350000000195
          },
          {
            "name": "G#4",
            "midi": 68,
            "time": 34.00001700000001,
            "velocity": 0.5905511811023622,
            "duration": 0.33333350000000195
          },
          {
            "name": "C5",
            "midi": 72,
            "time": 34.00001700000001,
            "velocity": 0.5905511811023622,
            "duration": 0.33333350000000195
          },
          {
            "name": "E4",
            "midi": 64,
            "time": 34.33335050000001,
            "velocity": 0.5905511811023622,
            "duration": 0.33333350000000195
          },
          {
            "name": "G#4",
            "midi": 68,
            "time": 34.33335050000001,
            "velocity": 0.5905511811023622,
            "duration": 0.33333350000000195
          },
          {
            "name": "C5",
            "midi": 72,
            "time": 34.33335050000001,
            "velocity": 0.5905511811023622,
            "duration": 0.33333350000000195
          },
          {
            "name": "E4",
            "midi": 64,
            "time": 35.00001750000001,
            "velocity": 0.5905511811023622,
            "duration": 0.33333350000000195
          },
          {
            "name": "G#4",
            "midi": 68,
            "time": 35.00001750000001,
            "velocity": 0.5905511811023622,
            "duration": 0.33333350000000195
          },
          {
            "name": "C5",
            "midi": 72,
            "time": 35.00001750000001,
            "velocity": 0.5905511811023622,
            "duration": 0.33333350000000195
          },
          {
            "name": "E4",
            "midi": 64,
            "time": 35.66668450000002,
            "velocity": 0.5905511811023622,
            "duration": 0.33333350000000195
          },
          {
            "name": "G#4",
            "midi": 68,
            "time": 35.66668450000002,
            "velocity": 0.5905511811023622,
            "duration": 0.33333350000000195
          },
          {
            "name": "C5",
            "midi": 72,
            "time": 35.66668450000002,
            "velocity": 0.5905511811023622,
            "duration": 0.33333350000000195
          },
          {
            "name": "G#4",
            "midi": 68,
            "time": 36.00001800000002,
            "velocity": 0.5905511811023622,
            "duration": 0.03194446041666765
          },
          {
            "name": "D5",
            "midi": 74,
            "time": 36.00001800000002,
            "velocity": 0.5905511811023622,
            "duration": 0.03194446041666765
          },
          {
            "name": "F#5",
            "midi": 78,
            "time": 36.00001800000002,
            "velocity": 0.5905511811023622,
            "duration": 0.03194446041666765
          },
          {
            "name": "G#4",
            "midi": 68,
            "time": 36.16668475000002,
            "velocity": 0.5905511811023622,
            "duration": 0.03194446041666765
          },
          {
            "name": "D5",
            "midi": 74,
            "time": 36.16668475000002,
            "velocity": 0.5905511811023622,
            "duration": 0.03194446041666765
          },
          {
            "name": "F#5",
            "midi": 78,
            "time": 36.16668475000002,
            "velocity": 0.5905511811023622,
            "duration": 0.03194446041666765
          },
          {
            "name": "G#4",
            "midi": 68,
            "time": 36.33335150000003,
            "velocity": 0.5905511811023622,
            "duration": 0.03194446041666765
          },
          {
            "name": "D5",
            "midi": 74,
            "time": 36.33335150000003,
            "velocity": 0.5905511811023622,
            "duration": 0.03194446041666765
          },
          {
            "name": "F#5",
            "midi": 78,
            "time": 36.33335150000003,
            "velocity": 0.5905511811023622,
            "duration": 0.03194446041666765
          },
          {
            "name": "G#4",
            "midi": 68,
            "time": 36.50001825000003,
            "velocity": 0.5905511811023622,
            "duration": 0.03194446041666765
          },
          {
            "name": "D5",
            "midi": 74,
            "time": 36.50001825000003,
            "velocity": 0.5905511811023622,
            "duration": 0.03194446041666765
          },
          {
            "name": "F#5",
            "midi": 78,
            "time": 36.50001825000003,
            "velocity": 0.5905511811023622,
            "duration": 0.03194446041666765
          },
          {
            "name": "G#4",
            "midi": 68,
            "time": 36.66668500000004,
            "velocity": 0.5905511811023622,
            "duration": 0.06527781041666714
          },
          {
            "name": "D5",
            "midi": 74,
            "time": 36.66668500000004,
            "velocity": 0.5905511811023622,
            "duration": 0.06527781041666714
          },
          {
            "name": "F#5",
            "midi": 78,
            "time": 36.66668500000004,
            "velocity": 0.5905511811023622,
            "duration": 0.06527781041666714
          },
          {
            "name": "G#4",
            "midi": 68,
            "time": 38.00001900000004,
            "velocity": 0.5905511811023622,
            "duration": 0.03194446041666765
          },
          {
            "name": "D5",
            "midi": 74,
            "time": 38.00001900000004,
            "velocity": 0.5905511811023622,
            "duration": 0.03194446041666765
          },
          {
            "name": "F#5",
            "midi": 78,
            "time": 38.00001900000004,
            "velocity": 0.5905511811023622,
            "duration": 0.03194446041666765
          },
          {
            "name": "G#4",
            "midi": 68,
            "time": 38.16668575000004,
            "velocity": 0.5905511811023622,
            "duration": 0.03194446041666765
          },
          {
            "name": "D5",
            "midi": 74,
            "time": 38.16668575000004,
            "velocity": 0.5905511811023622,
            "duration": 0.03194446041666765
          },
          {
            "name": "F#5",
            "midi": 78,
            "time": 38.16668575000004,
            "velocity": 0.5905511811023622,
            "duration": 0.03194446041666765
          },
          {
            "name": "G#4",
            "midi": 68,
            "time": 38.333352500000046,
            "velocity": 0.5905511811023622,
            "duration": 0.03194446041666765
          },
          {
            "name": "D5",
            "midi": 74,
            "time": 38.333352500000046,
            "velocity": 0.5905511811023622,
            "duration": 0.03194446041666765
          },
          {
            "name": "F#5",
            "midi": 78,
            "time": 38.333352500000046,
            "velocity": 0.5905511811023622,
            "duration": 0.03194446041666765
          },
          {
            "name": "G#4",
            "midi": 68,
            "time": 38.50001925000005,
            "velocity": 0.5905511811023622,
            "duration": 0.03194446041666765
          },
          {
            "name": "D5",
            "midi": 74,
            "time": 38.50001925000005,
            "velocity": 0.5905511811023622,
            "duration": 0.03194446041666765
          },
          {
            "name": "F#5",
            "midi": 78,
            "time": 38.50001925000005,
            "velocity": 0.5905511811023622,
            "duration": 0.03194446041666765
          },
          {
            "name": "G#4",
            "midi": 68,
            "time": 38.666686000000055,
            "velocity": 0.5905511811023622,
            "duration": 0.03194446041666765
          },
          {
            "name": "D5",
            "midi": 74,
            "time": 38.666686000000055,
            "velocity": 0.5905511811023622,
            "duration": 0.03194446041666765
          },
          {
            "name": "F#5",
            "midi": 78,
            "time": 38.666686000000055,
            "velocity": 0.5905511811023622,
            "duration": 0.03194446041666765
          },
          {
            "name": "G#4",
            "midi": 68,
            "time": 38.83335275000006,
            "velocity": 0.5905511811023622,
            "duration": 0.03194446041666765
          },
          {
            "name": "D5",
            "midi": 74,
            "time": 38.83335275000006,
            "velocity": 0.5905511811023622,
            "duration": 0.03194446041666765
          },
          {
            "name": "F#5",
            "midi": 78,
            "time": 38.83335275000006,
            "velocity": 0.5905511811023622,
            "duration": 0.03194446041666765
          },
          {
            "name": "D4",
            "midi": 62,
            "time": 39.000019500000064,
            "velocity": 0.4881889763779528,
            "duration": 0.03194446041666765
          },
          {
            "name": "F#4",
            "midi": 66,
            "time": 39.000019500000064,
            "velocity": 0.4881889763779528,
            "duration": 0.03194446041666765
          },
          {
            "name": "G#4",
            "midi": 68,
            "time": 39.000019500000064,
            "velocity": 0.4881889763779528,
            "duration": 0.03194446041666765
          },
          {
            "name": "D4",
            "midi": 62,
            "time": 39.16668625000007,
            "velocity": 0.4881889763779528,
            "duration": 0.03194446041666765
          },
          {
            "name": "F#4",
            "midi": 66,
            "time": 39.16668625000007,
            "velocity": 0.4881889763779528,
            "duration": 0.03194446041666765
          },
          {
            "name": "G#4",
            "midi": 68,
            "time": 39.16668625000007,
            "velocity": 0.4881889763779528,
            "duration": 0.03194446041666765
          },
          {
            "name": "D4",
            "midi": 62,
            "time": 39.33335300000007,
            "velocity": 0.4881889763779528,
            "duration": 0.03194446041666765
          },
          {
            "name": "F#4",
            "midi": 66,
            "time": 39.33335300000007,
            "velocity": 0.4881889763779528,
            "duration": 0.03194446041666765
          },
          {
            "name": "G#4",
            "midi": 68,
            "time": 39.33335300000007,
            "velocity": 0.4881889763779528,
            "duration": 0.03194446041666765
          },
          {
            "name": "D4",
            "midi": 62,
            "time": 39.50001975000008,
            "velocity": 0.4881889763779528,
            "duration": 0.03194446041666765
          },
          {
            "name": "F#4",
            "midi": 66,
            "time": 39.50001975000008,
            "velocity": 0.4881889763779528,
            "duration": 0.03194446041666765
          },
          {
            "name": "G#4",
            "midi": 68,
            "time": 39.50001975000008,
            "velocity": 0.4881889763779528,
            "duration": 0.03194446041666765
          },
          {
            "name": "D4",
            "midi": 62,
            "time": 39.66668650000008,
            "velocity": 0.4881889763779528,
            "duration": 0.03194446041666765
          },
          {
            "name": "F#4",
            "midi": 66,
            "time": 39.66668650000008,
            "velocity": 0.4881889763779528,
            "duration": 0.03194446041666765
          },
          {
            "name": "G#4",
            "midi": 68,
            "time": 39.66668650000008,
            "velocity": 0.4881889763779528,
            "duration": 0.03194446041666765
          },
          {
            "name": "D4",
            "midi": 62,
            "time": 39.83335325000009,
            "velocity": 0.4881889763779528,
            "duration": 0.03194446041666765
          },
          {
            "name": "F#4",
            "midi": 66,
            "time": 39.83335325000009,
            "velocity": 0.4881889763779528,
            "duration": 0.03194446041666765
          },
          {
            "name": "G#4",
            "midi": 68,
            "time": 39.83335325000009,
            "velocity": 0.4881889763779528,
            "duration": 0.03194446041666765
          },
          {
            "name": "A#3",
            "midi": 58,
            "time": 41.00002050000009,
            "velocity": 0.4881889763779528,
            "duration": 0.33333350000000195
          },
          {
            "name": "F#4",
            "midi": 66,
            "time": 41.00002050000009,
            "velocity": 0.4881889763779528,
            "duration": 0.33333350000000195
          },
          {
            "name": "G#4",
            "midi": 68,
            "time": 41.00002050000009,
            "velocity": 0.4881889763779528,
            "duration": 0.33333350000000195
          },
          {
            "name": "D5",
            "midi": 74,
            "time": 41.00002050000009,
            "velocity": 0.4881889763779528,
            "duration": 0.33333350000000195
          },
          {
            "name": "E4",
            "midi": 64,
            "time": 58.33336250000009,
            "velocity": 0.4881889763779528,
            "duration": 0.33333350000000195
          },
          {
            "name": "A#3",
            "midi": 58,
            "time": 59.000029500000096,
            "velocity": 0.4881889763779528,
            "duration": 0.33333350000000195
          },
          {
            "name": "E4",
            "midi": 64,
            "time": 60.000030000000095,
            "velocity": 0.4881889763779528,
            "duration": 0.33333350000000195
          },
          {
            "name": "E3",
            "midi": 52,
            "time": 61.333364000000095,
            "velocity": 0.4881889763779528,
            "duration": 0.33333350000000195
          },
          {
            "name": "G4",
            "midi": 67,
            "time": 62.333364500000094,
            "velocity": 0.4881889763779528,
            "duration": 0.33333350000000195
          },
          {
            "name": "C#4",
            "midi": 61,
            "time": 63.0000315000001,
            "velocity": 0.4881889763779528,
            "duration": 0.33333350000000195
          },
          {
            "name": "G4",
            "midi": 67,
            "time": 64.0000320000001,
            "velocity": 0.4881889763779528,
            "duration": 0.33333349999999484
          },
          {
            "name": "G3",
            "midi": 55,
            "time": 65.3333660000001,
            "velocity": 0.4881889763779528,
            "duration": 0.33333349999999484
          },
          {
            "name": "G3",
            "midi": 55,
            "time": 66.00003300000009,
            "velocity": 0.4881889763779528,
            "duration": 1.0000004999999987
          },
          {
            "name": "F4",
            "midi": 65,
            "time": 66.00003300000009,
            "velocity": 0.4881889763779528,
            "duration": 1.0000004999999987
          },
          {
            "name": "G3",
            "midi": 55,
            "time": 67.00003350000009,
            "velocity": 0.4881889763779528,
            "duration": 0.33333349999999484
          },
          {
            "name": "F4",
            "midi": 65,
            "time": 67.00003350000009,
            "velocity": 0.4881889763779528,
            "duration": 0.33333349999999484
          },
          {
            "name": "B4",
            "midi": 71,
            "time": 67.00003350000009,
            "velocity": 0.4881889763779528,
            "duration": 0.33333349999999484
          },
          {
            "name": "D#5",
            "midi": 75,
            "time": 67.00003350000009,
            "velocity": 0.4881889763779528,
            "duration": 0.33333349999999484
          },
          {
            "name": "G3",
            "midi": 55,
            "time": 68.00003400000008,
            "velocity": 0.4881889763779528,
            "duration": 1.0000004999999987
          },
          {
            "name": "F4",
            "midi": 65,
            "time": 68.00003400000008,
            "velocity": 0.4881889763779528,
            "duration": 1.0000004999999987
          },
          {
            "name": "G#3",
            "midi": 56,
            "time": 69.00003450000008,
            "velocity": 0.4881889763779528,
            "duration": 0.5000002499999994
          },
          {
            "name": "F#4",
            "midi": 66,
            "time": 69.00003450000008,
            "velocity": 0.4881889763779528,
            "duration": 0.5000002499999994
          },
          {
            "name": "C5",
            "midi": 72,
            "time": 69.00003450000008,
            "velocity": 0.4881889763779528,
            "duration": 0.5000002499999994
          },
          {
            "name": "E5",
            "midi": 76,
            "time": 69.00003450000008,
            "velocity": 0.4881889763779528,
            "duration": 0.5000002499999994
          },
          {
            "name": "G#3",
            "midi": 56,
            "time": 69.50003475000008,
            "velocity": 0.4881889763779528,
            "duration": 0.5000002499999994
          },
          {
            "name": "C#4",
            "midi": 61,
            "time": 72.00003600000008,
            "velocity": 0.6929133858267716,
            "duration": 0.06527781041666003
          },
          {
            "name": "F4",
            "midi": 65,
            "time": 72.00003600000008,
            "velocity": 0.6929133858267716,
            "duration": 0.06527781041666003
          },
          {
            "name": "B4",
            "midi": 71,
            "time": 72.00003600000008,
            "velocity": 0.6929133858267716,
            "duration": 0.06527781041666003
          },
          {
            "name": "D#5",
            "midi": 75,
            "time": 72.00003600000008,
            "velocity": 0.6929133858267716,
            "duration": 0.06527781041666003
          },
          {
            "name": "F5",
            "midi": 77,
            "time": 72.06531381041674,
            "velocity": 0.6929133858267716,
            "duration": 0.0680555895833379
          },
          {
            "name": "A5",
            "midi": 81,
            "time": 72.13336940000008,
            "velocity": 0.6929133858267716,
            "duration": 0.06527781041666003
          },
          {
            "name": "D#6",
            "midi": 87,
            "time": 72.19864721041674,
            "velocity": 0.6929133858267716,
            "duration": 0.0680555895833379
          },
          {
            "name": "F6",
            "midi": 89,
            "time": 72.26670280000008,
            "velocity": 0.6929133858267716,
            "duration": 0.06666669999999897
          },
          {
            "name": "A6",
            "midi": 93,
            "time": 72.33336950000007,
            "velocity": 0.6929133858267716,
            "duration": 0.33333349999999484
          },
          {
            "name": "A6",
            "midi": 93,
            "time": 72.66670300000007,
            "velocity": 0.6929133858267716,
            "duration": 0.08333337499999516
          },
          {
            "name": "F6",
            "midi": 89,
            "time": 72.75003637500006,
            "velocity": 0.6929133858267716,
            "duration": 0.08333337499999516
          },
          {
            "name": "D#6",
            "midi": 87,
            "time": 72.83336975000006,
            "velocity": 0.6929133858267716,
            "duration": 0.08333337499999516
          },
          {
            "name": "A#5",
            "midi": 82,
            "time": 72.91670312500005,
            "velocity": 0.6929133858267716,
            "duration": 0.08333337499999516
          },
          {
            "name": "A5",
            "midi": 81,
            "time": 73.00003650000005,
            "velocity": 0.6929133858267716,
            "duration": 0.11111116666666021
          },
          {
            "name": "A6",
            "midi": 93,
            "time": 73.00003650000005,
            "velocity": 0.6929133858267716,
            "duration": 0.11111116666666021
          },
          {
            "name": "F6",
            "midi": 89,
            "time": 73.11114766666671,
            "velocity": 0.6929133858267716,
            "duration": 0.10972227708333548
          },
          {
            "name": "D#6",
            "midi": 87,
            "time": 73.22086994375005,
            "velocity": 0.6929133858267716,
            "duration": 0.11250005624999915
          },
          {
            "name": "A#5",
            "midi": 82,
            "time": 73.33337000000004,
            "velocity": 0.6929133858267716,
            "duration": 0.33333349999999484
          },
          {
            "name": "A5",
            "midi": 81,
            "time": 73.66670350000004,
            "velocity": 0.6929133858267716,
            "duration": 0.33333349999999484
          },
          {
            "name": "C#4",
            "midi": 61,
            "time": 74.00003700000003,
            "velocity": 0.6929133858267716,
            "duration": 0.16666675000000453
          },
          {
            "name": "B4",
            "midi": 71,
            "time": 74.16670375000004,
            "velocity": 0.6929133858267716,
            "duration": 0.16666675000000453
          },
          {
            "name": "C#4",
            "midi": 61,
            "time": 75.00003750000005,
            "velocity": 0.6929133858267716,
            "duration": 0.16666675000000453
          },
          {
            "name": "B4",
            "midi": 71,
            "time": 75.16670425000005,
            "velocity": 0.6929133858267716,
            "duration": 0.16666675000000453
          },
          {
            "name": "C#4",
            "midi": 61,
            "time": 75.87503793750005,
            "velocity": 0.6929133858267716,
            "duration": 0.7916670624999966
          },
          {
            "name": "F4",
            "midi": 65,
            "time": 75.91670462500005,
            "velocity": 0.6929133858267716,
            "duration": 0.750000374999999
          },
          {
            "name": "B4",
            "midi": 71,
            "time": 75.95837131250005,
            "velocity": 0.6929133858267716,
            "duration": 0.7083336875000015
          },
          {
            "name": "D#5",
            "midi": 75,
            "time": 76.00003800000005,
            "velocity": 0.6929133858267716,
            "duration": 0.6666670000000039
          },
          {
            "name": "C5",
            "midi": 72,
            "time": 78.00003900000004,
            "velocity": 0.6929133858267716,
            "duration": 1.0000004999999987
          },
          {
            "name": "B4",
            "midi": 71,
            "time": 79.00003950000004,
            "velocity": 0.6929133858267716,
            "duration": 1.0000004999999987
          }
        ],
        "controlChanges": {
          "7": [
            {
              "number": 7,
              "time": 0,
              "value": 1
            }
          ],
          "10": [
            {
              "number": 10,
              "time": 0,
              "value": 0.23622047244094488
            }
          ],
          "64": [
            {
              "number": 64,
              "time": 32.66668300000003,
              "value": 1
            },
            {
              "number": 64,
              "time": 33.83335025000001,
              "value": 0
            },
            {
              "number": 64,
              "time": 72.00003600000008,
              "value": 1
            },
            {
              "number": 64,
              "time": 72.33336950000007,
              "value": 0
            },
            {
              "number": 64,
              "time": 72.66670300000007,
              "value": 1
            },
            {
              "number": 64,
              "time": 72.91670312500005,
              "value": 0
            },
            {
              "number": 64,
              "time": 73.00003650000005,
              "value": 1
            },
            {
              "number": 64,
              "time": 73.66670350000004,
              "value": 0
            }
          ]
        },
        "id": 3,
        "name": "Instrument18",
        "instrumentNumber": 0,
        "instrument": "acoustic grand piano",
        "instrumentFamily": "piano",
        "channelNumber": 2,
        "isPercussion": false
      },
      {
        "startTime": 16.000008,
        "duration": 80.00004,
        "length": 61,
        "notes": [
          {
            "name": "A#2",
            "midi": 46,
            "time": 16.000008,
            "velocity": 0.3858267716535433,
            "duration": 1.0000004999999987
          },
          {
            "name": "G#3",
            "midi": 56,
            "time": 16.000008,
            "velocity": 0.3858267716535433,
            "duration": 1.0000004999999987
          },
          {
            "name": "D4",
            "midi": 62,
            "time": 17.0000085,
            "velocity": 0.5905511811023622,
            "duration": 0.3333334999999984
          },
          {
            "name": "F#4",
            "midi": 66,
            "time": 17.0000085,
            "velocity": 0.5905511811023622,
            "duration": 0.3333334999999984
          },
          {
            "name": "D#4",
            "midi": 63,
            "time": 17.333342,
            "velocity": 0.3858267716535433,
            "duration": 0.6666670000000003
          },
          {
            "name": "G4",
            "midi": 67,
            "time": 17.333342,
            "velocity": 0.3858267716535433,
            "duration": 0.6666670000000003
          },
          {
            "name": "A#2",
            "midi": 46,
            "time": 18.000009,
            "velocity": 0.3858267716535433,
            "duration": 0.08333337499999871
          },
          {
            "name": "C#3",
            "midi": 49,
            "time": 18.083342374999997,
            "velocity": 0.3858267716535433,
            "duration": 0.08333337499999871
          },
          {
            "name": "A#2",
            "midi": 46,
            "time": 18.166675749999996,
            "velocity": 0.3858267716535433,
            "duration": 0.08333337499999871
          },
          {
            "name": "C#3",
            "midi": 49,
            "time": 18.250009124999995,
            "velocity": 0.3858267716535433,
            "duration": 0.08333337499999871
          },
          {
            "name": "A#2",
            "midi": 46,
            "time": 18.333342499999993,
            "velocity": 0.3858267716535433,
            "duration": 0.08333337499999871
          },
          {
            "name": "C#3",
            "midi": 49,
            "time": 18.416675874999992,
            "velocity": 0.3858267716535433,
            "duration": 0.08333337499999871
          },
          {
            "name": "A#2",
            "midi": 46,
            "time": 18.50000924999999,
            "velocity": 0.3858267716535433,
            "duration": 0.08333337499999871
          },
          {
            "name": "C#3",
            "midi": 49,
            "time": 18.58334262499999,
            "velocity": 0.3858267716535433,
            "duration": 0.08333337499999871
          },
          {
            "name": "A#2",
            "midi": 46,
            "time": 18.66667599999999,
            "velocity": 0.3858267716535433,
            "duration": 0.08333337499999871
          },
          {
            "name": "C#3",
            "midi": 49,
            "time": 18.750009374999987,
            "velocity": 0.3858267716535433,
            "duration": 0.08333337499999871
          },
          {
            "name": "A#2",
            "midi": 46,
            "time": 18.833342749999986,
            "velocity": 0.3858267716535433,
            "duration": 0.08333337499999871
          },
          {
            "name": "C#3",
            "midi": 49,
            "time": 18.916676124999984,
            "velocity": 0.3858267716535433,
            "duration": 0.08333337499999871
          },
          {
            "name": "A#2",
            "midi": 46,
            "time": 19.000009499999983,
            "velocity": 0.3858267716535433,
            "duration": 0.3333334999999984
          },
          {
            "name": "A3",
            "midi": 57,
            "time": 19.33334299999998,
            "velocity": 0.3858267716535433,
            "duration": 0.11111116666666732
          },
          {
            "name": "A#2",
            "midi": 46,
            "time": 19.44445416666665,
            "velocity": 0.3858267716535433,
            "duration": 0.10972227708333193
          },
          {
            "name": "A3",
            "midi": 57,
            "time": 19.55417644374998,
            "velocity": 0.3858267716535433,
            "duration": 0.11250005624999915
          },
          {
            "name": "B2",
            "midi": 47,
            "time": 20.00000999999998,
            "velocity": 0.3858267716535433,
            "duration": 1.0000004999999987
          },
          {
            "name": "A3",
            "midi": 57,
            "time": 20.00000999999998,
            "velocity": 0.3858267716535433,
            "duration": 1.0000004999999987
          },
          {
            "name": "D#4",
            "midi": 63,
            "time": 21.000010499999977,
            "velocity": 0.5905511811023622,
            "duration": 0.3333334999999984
          },
          {
            "name": "G4",
            "midi": 67,
            "time": 21.000010499999977,
            "velocity": 0.5905511811023622,
            "duration": 0.3333334999999984
          },
          {
            "name": "E4",
            "midi": 64,
            "time": 21.333343999999975,
            "velocity": 0.3858267716535433,
            "duration": 0.6666670000000003
          },
          {
            "name": "G#4",
            "midi": 68,
            "time": 21.333343999999975,
            "velocity": 0.3858267716535433,
            "duration": 0.6666670000000003
          },
          {
            "name": "C3",
            "midi": 48,
            "time": 22.000010999999976,
            "velocity": 0.3858267716535433,
            "duration": 1.0000004999999987
          },
          {
            "name": "A#3",
            "midi": 58,
            "time": 22.000010999999976,
            "velocity": 0.3858267716535433,
            "duration": 1.0000004999999987
          },
          {
            "name": "A#3",
            "midi": 58,
            "time": 23.000011499999975,
            "velocity": 0.3858267716535433,
            "duration": 0.6666670000000003
          },
          {
            "name": "B3",
            "midi": 59,
            "time": 23.666678499999975,
            "velocity": 0.3858267716535433,
            "duration": 0.3333334999999984
          },
          {
            "name": "C#3",
            "midi": 49,
            "time": 24.000011999999973,
            "velocity": 0.4881889763779528,
            "duration": 0.16666675000000097
          },
          {
            "name": "B3",
            "midi": 59,
            "time": 24.000011999999973,
            "velocity": 0.4881889763779528,
            "duration": 0.16666675000000097
          },
          {
            "name": "A#3",
            "midi": 58,
            "time": 28.000013999999975,
            "velocity": 0.6929133858267716,
            "duration": 0.3333334999999984
          },
          {
            "name": "A#3",
            "midi": 58,
            "time": 32.000015999999974,
            "velocity": 0.6929133858267716,
            "duration": 0.33333350000000195
          },
          {
            "name": "A#3",
            "midi": 58,
            "time": 36.000017999999976,
            "velocity": 0.6929133858267716,
            "duration": 0.6666669999999968
          },
          {
            "name": "A#3",
            "midi": 58,
            "time": 38.00001899999997,
            "velocity": 0.6929133858267716,
            "duration": 0.6666669999999968
          },
          {
            "name": "A#3",
            "midi": 58,
            "time": 42.33335449999997,
            "velocity": 0.4881889763779528,
            "duration": 0.33333350000000195
          },
          {
            "name": "E3",
            "midi": 52,
            "time": 43.000021499999974,
            "velocity": 0.4881889763779528,
            "duration": 0.33333350000000195
          },
          {
            "name": "A#3",
            "midi": 58,
            "time": 44.00002199999997,
            "velocity": 0.4881889763779528,
            "duration": 0.33333350000000195
          },
          {
            "name": "A#2",
            "midi": 46,
            "time": 45.333355999999974,
            "velocity": 0.4881889763779528,
            "duration": 0.33333350000000195
          },
          {
            "name": "E2",
            "midi": 40,
            "time": 46.33335649999997,
            "velocity": 0.4881889763779528,
            "duration": 0.33333350000000195
          },
          {
            "name": "A#2",
            "midi": 46,
            "time": 47.000023499999976,
            "velocity": 0.4881889763779528,
            "duration": 0.33333350000000195
          },
          {
            "name": "E3",
            "midi": 52,
            "time": 47.66669049999998,
            "velocity": 0.4881889763779528,
            "duration": 0.33333350000000195
          },
          {
            "name": "A#3",
            "midi": 58,
            "time": 48.00002399999998,
            "velocity": 0.4881889763779528,
            "duration": 0.33333350000000195
          },
          {
            "name": "E4",
            "midi": 64,
            "time": 49.00002449999998,
            "velocity": 0.4881889763779528,
            "duration": 0.33333350000000195
          },
          {
            "name": "D4",
            "midi": 62,
            "time": 49.666691499999985,
            "velocity": 0.4881889763779528,
            "duration": 0.33333350000000195
          },
          {
            "name": "C#4",
            "midi": 61,
            "time": 50.33335849999999,
            "velocity": 0.4881889763779528,
            "duration": 0.33333350000000195
          },
          {
            "name": "G3",
            "midi": 55,
            "time": 51.00002549999999,
            "velocity": 0.4881889763779528,
            "duration": 0.33333350000000195
          },
          {
            "name": "C#4",
            "midi": 61,
            "time": 52.00002599999999,
            "velocity": 0.4881889763779528,
            "duration": 0.33333350000000195
          },
          {
            "name": "C#3",
            "midi": 49,
            "time": 53.33335999999999,
            "velocity": 0.4881889763779528,
            "duration": 0.33333350000000195
          },
          {
            "name": "G2",
            "midi": 43,
            "time": 54.33336049999999,
            "velocity": 0.4881889763779528,
            "duration": 0.33333350000000195
          },
          {
            "name": "C#3",
            "midi": 49,
            "time": 55.000027499999995,
            "velocity": 0.4881889763779528,
            "duration": 0.33333350000000195
          },
          {
            "name": "G3",
            "midi": 55,
            "time": 55.6666945,
            "velocity": 0.4881889763779528,
            "duration": 0.33333350000000195
          },
          {
            "name": "C#4",
            "midi": 61,
            "time": 56.000028,
            "velocity": 0.4881889763779528,
            "duration": 0.33333350000000195
          },
          {
            "name": "G4",
            "midi": 67,
            "time": 57.0000285,
            "velocity": 0.4881889763779528,
            "duration": 0.33333350000000195
          },
          {
            "name": "F4",
            "midi": 65,
            "time": 57.6666955,
            "velocity": 0.4881889763779528,
            "duration": 0.33333350000000195
          },
          {
            "name": "C#4",
            "midi": 61,
            "time": 78.000039,
            "velocity": 0.4881889763779528,
            "duration": 2.0000009999999975
          },
          {
            "name": "D#4",
            "midi": 63,
            "time": 78.000039,
            "velocity": 0.4881889763779528,
            "duration": 2.0000009999999975
          },
          {
            "name": "F#4",
            "midi": 66,
            "time": 78.000039,
            "velocity": 0.4881889763779528,
            "duration": 2.0000009999999975
          }
        ],
        "controlChanges": {
          "7": [
            {
              "number": 7,
              "time": 0,
              "value": 1
            }
          ],
          "10": [
            {
              "number": 10,
              "time": 0,
              "value": 0.23622047244094488
            }
          ],
          "64": [
            {
              "number": 64,
              "time": 19.33334299999998,
              "value": 1
            },
            {
              "number": 64,
              "time": 19.66667649999998,
              "value": 0
            }
          ]
        },
        "id": 4,
        "name": "Instrument19",
        "instrumentNumber": 0,
        "instrument": "acoustic grand piano",
        "instrumentFamily": "piano",
        "channelNumber": 3,
        "isPercussion": false
      },
      {
        "startTime": 0,
        "duration": 0,
        "length": 0,
        "notes": [],
        "controlChanges": {},
        "id": 5
      }
    ]
  }