{
    "header": {
        "formatType": 1,
        "trackCount": 6,
        "ticksPerBeat": 480
    },
    "tracks": [
        [
            {
                "deltaTime": 0,
                "type": "meta",
                "subtype": "trackName",
                "text": "stravinsky firebird part 03"
            },
            {
                "deltaTime": 0,
                "type": "meta",
                "subtype": "copyrightNotice",
                "text": "Segundo G. Yogore,  2007,  dody@pldtdsl.net"
            },
            {
                "deltaTime": 0,
                "type": "meta",
                "subtype": "text",
                "text": "sequenced by Segundo G. Yogore,  2007"
            },
            {
                "deltaTime": 0,
                "type": "meta",
                "subtype": "timeSignature",
                "numerator": 6,
                "denominator": 8,
                "metronome": 12,
                "thirtyseconds": 8
            },
            {
                "deltaTime": 0,
                "type": "meta",
                "subtype": "keySignature",
                "key": 6,
                "scale": 0
            },
            {
                "deltaTime": 0,
                "type": "meta",
                "subtype": "setTempo",
                "microsecondsPerBeat": 666667
            },
            {
                "deltaTime": 48960,
                "type": "meta",
                "subtype": "timeSignature",
                "numerator": 3,
                "denominator": 8,
                "metronome": 12,
                "thirtyseconds": 8
            },
            {
                "deltaTime": 1440,
                "type": "meta",
                "subtype": "timeSignature",
                "numerator": 6,
                "denominator": 8,
                "metronome": 12,
                "thirtyseconds": 8
            },
            {
                "deltaTime": 10080,
                "type": "meta",
                "subtype": "timeSignature",
                "numerator": 8,
                "denominator": 8,
                "metronome": 12,
                "thirtyseconds": 8
            },
            {
                "deltaTime": 0,
                "type": "meta",
                "subtype": "keySignature",
                "key": 0,
                "scale": 0
            },
            {
                "deltaTime": 1920,
                "type": "meta",
                "subtype": "timeSignature",
                "numerator": 6,
                "denominator": 8,
                "metronome": 12,
                "thirtyseconds": 8
            },
            {
                "deltaTime": 0,
                "type": "meta",
                "subtype": "endOfTrack"
            }
        ],
        [
            {
                "deltaTime": 0,
                "type": "meta",
                "subtype": "unknown",
                "data": "\u0000"
            },
            {
                "deltaTime": 0,
                "type": "meta",
                "subtype": "trackName",
                "text": "Grand Piano"
            },
            {
                "deltaTime": 0,
                "channel": 0,
                "type": "channel",
                "subtype": "programChange",
                "programNumber": 0
            },
            {
                "deltaTime": 0,
                "channel": 0,
                "type": "channel",
                "subtype": "controller",
                "controllerType": 7,
                "value": 127
            },
            {
                "deltaTime": 0,
                "channel": 0,
                "type": "channel",
                "subtype": "controller",
                "controllerType": 10,
                "value": 97
            },
            {
                "deltaTime": 0,
                "channel": 0,
                "type": "channel",
                "subtype": "controller",
                "controllerType": 64,
                "value": 127
            },
            {
                "deltaTime": 0,
                "channel": 0,
                "type": "channel",
                "noteNumber": 77,
                "velocity": 62,
                "subtype": "noteOn"
            },
            {
                "deltaTime": 60,
                "channel": 0,
                "type": "channel",
                "noteNumber": 77,
                "velocity": 0,
                "subtype": "noteOff"
            },
            {
                "deltaTime": 0,
                "channel": 0,
                "type": "channel",
                "noteNumber": 78,
                "velocity": 62,
                "subtype": "noteOn"
            },
            {
                "deltaTime": 60,
                "channel": 0,
                "type": "channel",
                "noteNumber": 78,
                "velocity": 0,
                "subtype": "noteOff"
            },
            {
                "deltaTime": 0,
                "channel": 0,
                "type": "channel",
                "noteNumber": 77,
                "velocity": 62,
                "subtype": "noteOn"
            },
            {
                "deltaTime": 60,
                "channel": 0,
                "type": "channel",
                "noteNumber": 77,
                "velocity": 0,
                "subtype": "noteOff"
            },
            {
                "deltaTime": 0,
                "channel": 0,
                "type": "channel",
                "noteNumber": 78,
                "velocity": 62,
                "subtype": "noteOn"
            },
            {
                "deltaTime": 60,
                "channel": 0,
                "type": "channel",
                "noteNumber": 78,
                "velocity": 0,
                "subtype": "noteOff"
            },
            {
                "deltaTime": 0,
                "channel": 0,
                "type": "channel",
                "noteNumber": 77,
                "velocity": 62,
                "subtype": "noteOn"
            },
            {
                "deltaTime": 60,
                "channel": 0,
                "type": "channel",
                "noteNumber": 77,
                "velocity": 0,
                "subtype": "noteOff"
            },
            {
                "deltaTime": 0,
                "channel": 0,
                "type": "channel",
                "noteNumber": 78,
                "velocity": 62,
                "subtype": "noteOn"
            },
            {
                "deltaTime": 60,
                "channel": 0,
                "type": "channel",
                "noteNumber": 78,
                "velocity": 0,
                "subtype": "noteOff"
            },
            {
                "deltaTime": 0,
                "channel": 0,
                "type": "channel",
                "noteNumber": 77,
                "velocity": 62,
                "subtype": "noteOn"
            },
            {
                "deltaTime": 60,
                "channel": 0,
                "type": "channel",
                "noteNumber": 77,
                "velocity": 0,
                "subtype": "noteOff"
            },
            {
                "deltaTime": 0,
                "channel": 0,
                "type": "channel",
                "noteNumber": 78,
                "velocity": 62,
                "subtype": "noteOn"
            },
            {
                "deltaTime": 60,
                "channel": 0,
                "type": "channel",
                "noteNumber": 78,
                "velocity": 0,
                "subtype": "noteOff"
            },
            {
                "deltaTime": 0,
                "channel": 0,
                "type": "channel",
                "noteNumber": 79,
                "velocity": 62,
                "subtype": "noteOn"
            },
            {
                "deltaTime": 60,
                "channel": 0,
                "type": "channel",
                "noteNumber": 79,
                "velocity": 0,
                "subtype": "noteOff"
            },
            {
                "deltaTime": 0,
                "channel": 0,
                "type": "channel",
                "noteNumber": 80,
                "velocity": 62,
                "subtype": "noteOn"
            },
            {
                "deltaTime": 60,
                "channel": 0,
                "type": "channel",
                "noteNumber": 80,
                "velocity": 0,
                "subtype": "noteOff"
            },
            {
                "deltaTime": 0,
                "channel": 0,
                "type": "channel",
                "noteNumber": 81,
                "velocity": 62,
                "subtype": "noteOn"
            },
            {
                "deltaTime": 60,
                "channel": 0,
                "type": "channel",
                "noteNumber": 81,
                "velocity": 0,
                "subtype": "noteOff"
            },
            {
                "deltaTime": 0,
                "channel": 0,
                "type": "channel",
                "subtype": "controller",
                "controllerType": 64,
                "value": 0
            },
            {
                "deltaTime": 0,
                "channel": 0,
                "type": "channel",
                "noteNumber": 82,
                "velocity": 62,
                "subtype": "noteOn"
            },
            {
                "deltaTime": 60,
                "channel": 0,
                "type": "channel",
                "noteNumber": 82,
                "velocity": 0,
                "subtype": "noteOff"
            },
            {
                "deltaTime": 240,
                "channel": 0,
                "type": "channel",
                "subtype": "controller",
                "controllerType": 64,
                "value": 127
            },
            {
                "deltaTime": 0,
                "channel": 0,
                "type": "channel",
                "noteNumber": 83,
                "velocity": 62,
                "subtype": "noteOn"
            },
            {
                "deltaTime": 80,
                "channel": 0,
                "type": "channel",
                "noteNumber": 83,
                "velocity": 0,
                "subtype": "noteOff"
            },
            {
                "deltaTime": 0,
                "channel": 0,
                "type": "channel",
                "noteNumber": 75,
                "velocity": 62,
                "subtype": "noteOn"
            },
            {
                "deltaTime": 79,
                "channel": 0,
                "type": "channel",
                "noteNumber": 75,
                "velocity": 0,
                "subtype": "noteOff"
            },
            {
                "deltaTime": 0,
                "channel": 0,
                "type": "channel",
                "noteNumber": 83,
                "velocity": 62,
                "subtype": "noteOn"
            },
            {
                "deltaTime": 81,
                "channel": 0,
                "type": "channel",
                "noteNumber": 83,
                "velocity": 0,
                "subtype": "noteOff"
            },
            {
                "deltaTime": 0,
                "channel": 0,
                "type": "channel",
                "noteNumber": 87,
                "velocity": 62,
                "subtype": "noteOn"
            },
            {
                "deltaTime": 80,
                "channel": 0,
                "type": "channel",
                "noteNumber": 87,
                "velocity": 0,
                "subtype": "noteOff"
            },
            {
                "deltaTime": 0,
                "channel": 0,
                "type": "channel",
                "noteNumber": 95,
                "velocity": 62,
                "subtype": "noteOn"
            },
            {
                "deltaTime": 79,
                "channel": 0,
                "type": "channel",
                "noteNumber": 95,
                "velocity": 0,
                "subtype": "noteOff"
            },
            {
                "deltaTime": 0,
                "channel": 0,
                "type": "channel",
                "subtype": "controller",
                "controllerType": 64,
                "value": 0
            },
            {
                "deltaTime": 0,
                "channel": 0,
                "type": "channel",
                "noteNumber": 99,
                "velocity": 62,
                "subtype": "noteOn"
            },
            {
                "deltaTime": 81,
                "channel": 0,
                "type": "channel",
                "noteNumber": 99,
                "velocity": 0,
                "subtype": "noteOff"
            },
            {
                "deltaTime": 240,
                "channel": 0,
                "type": "channel",
                "subtype": "controller",
                "controllerType": 64,
                "value": 127
            },
            {
                "deltaTime": 0,
                "channel": 0,
                "type": "channel",
                "noteNumber": 82,
                "velocity": 62,
                "subtype": "noteOn"
            },
            {
                "deltaTime": 80,
                "channel": 0,
                "type": "channel",
                "noteNumber": 82,
                "velocity": 0,
                "subtype": "noteOff"
            },
            {
                "deltaTime": 0,
                "channel": 0,
                "type": "channel",
                "noteNumber": 75,
                "velocity": 62,
                "subtype": "noteOn"
            },
            {
                "deltaTime": 79,
                "channel": 0,
                "type": "channel",
                "noteNumber": 75,
                "velocity": 0,
                "subtype": "noteOff"
            },
            {
                "deltaTime": 0,
                "channel": 0,
                "type": "channel",
                "noteNumber": 82,
                "velocity": 62,
                "subtype": "noteOn"
            },
            {
                "deltaTime": 81,
                "channel": 0,
                "type": "channel",
                "noteNumber": 82,
                "velocity": 0,
                "subtype": "noteOff"
            },
            {
                "deltaTime": 0,
                "channel": 0,
                "type": "channel",
                "noteNumber": 87,
                "velocity": 62,
                "subtype": "noteOn"
            },
            {
                "deltaTime": 80,
                "channel": 0,
                "type": "channel",
                "noteNumber": 87,
                "velocity": 0,
                "subtype": "noteOff"
            },
            {
                "deltaTime": 0,
                "channel": 0,
                "type": "channel",
                "noteNumber": 94,
                "velocity": 62,
                "subtype": "noteOn"
            },
            {
                "deltaTime": 79,
                "channel": 0,
                "type": "channel",
                "noteNumber": 94,
                "velocity": 0,
                "subtype": "noteOff"
            },
            {
                "deltaTime": 0,
                "channel": 0,
                "type": "channel",
                "noteNumber": 99,
                "velocity": 62,
                "subtype": "noteOn"
            },
            {
                "deltaTime": 81,
                "channel": 0,
                "type": "channel",
                "noteNumber": 99,
                "velocity": 0,
                "subtype": "noteOff"
            },
            {
                "deltaTime": 0,
                "channel": 0,
                "type": "channel",
                "subtype": "controller",
                "controllerType": 64,
                "value": 0
            },
            {
                "deltaTime": 0,
                "channel": 0,
                "type": "channel",
                "noteNumber": 92,
                "velocity": 62,
                "subtype": "noteOn"
            },
            {
                "deltaTime": 120,
                "channel": 0,
                "type": "channel",
                "noteNumber": 92,
                "velocity": 0,
                "subtype": "noteOff"
            },
            {
                "deltaTime": 0,
                "channel": 0,
                "type": "channel",
                "subtype": "controller",
                "controllerType": 64,
                "value": 127
            },
            {
                "deltaTime": 0,
                "channel": 0,
                "type": "channel",
                "noteNumber": 80,
                "velocity": 62,
                "subtype": "noteOn"
            },
            {
                "deltaTime": 120,
                "channel": 0,
                "type": "channel",
                "noteNumber": 80,
                "velocity": 0,
                "subtype": "noteOff"
            },
            {
                "deltaTime": 0,
                "channel": 0,
                "type": "channel",
                "noteNumber": 81,
                "velocity": 62,
                "subtype": "noteOn"
            },
            {
                "deltaTime": 80,
                "channel": 0,
                "type": "channel",
                "noteNumber": 81,
                "velocity": 0,
                "subtype": "noteOff"
            },
            {
                "deltaTime": 0,
                "channel": 0,
                "type": "channel",
                "noteNumber": 82,
                "velocity": 62,
                "subtype": "noteOn"
            },
            {
                "deltaTime": 79,
                "channel": 0,
                "type": "channel",
                "noteNumber": 82,
                "velocity": 0,
                "subtype": "noteOff"
            },
            {
                "deltaTime": 0,
                "channel": 0,
                "type": "channel",
                "noteNumber": 83,
                "velocity": 62,
                "subtype": "noteOn"
            },
            {
                "deltaTime": 81,
                "channel": 0,
                "type": "channel",
                "noteNumber": 83,
                "velocity": 0,
                "subtype": "noteOff"
            },
            {
                "deltaTime": 0,
                "channel": 0,
                "type": "channel",
                "noteNumber": 84,
                "velocity": 62,
                "subtype": "noteOn"
            },
            {
                "deltaTime": 80,
                "channel": 0,
                "type": "channel",
                "noteNumber": 84,
                "velocity": 0,
                "subtype": "noteOff"
            },
            {
                "deltaTime": 0,
                "channel": 0,
                "type": "channel",
                "noteNumber": 85,
                "velocity": 62,
                "subtype": "noteOn"
            },
            {
                "deltaTime": 79,
                "channel": 0,
                "type": "channel",
                "noteNumber": 85,
                "velocity": 0,
                "subtype": "noteOff"
            },
            {
                "deltaTime": 0,
                "channel": 0,
                "type": "channel",
                "subtype": "controller",
                "controllerType": 64,
                "value": 0
            },
            {
                "deltaTime": 0,
                "channel": 0,
                "type": "channel",
                "noteNumber": 86,
                "velocity": 62,
                "subtype": "noteOn"
            },
            {
                "deltaTime": 81,
                "channel": 0,
                "type": "channel",
                "noteNumber": 86,
                "velocity": 0,
                "subtype": "noteOff"
            },
            {
                "deltaTime": 0,
                "channel": 0,
                "type": "channel",
                "subtype": "controller",
                "controllerType": 64,
                "value": 127
            },
            {
                "deltaTime": 0,
                "channel": 0,
                "type": "channel",
                "noteNumber": 87,
                "velocity": 62,
                "subtype": "noteOn"
            },
            {
                "deltaTime": 80,
                "channel": 0,
                "type": "channel",
                "noteNumber": 87,
                "velocity": 0,
                "subtype": "noteOff"
            },
            {
                "deltaTime": 0,
                "channel": 0,
                "type": "channel",
                "noteNumber": 93,
                "velocity": 62,
                "subtype": "noteOn"
            },
            {
                "deltaTime": 79,
                "channel": 0,
                "type": "channel",
                "noteNumber": 93,
                "velocity": 0,
                "subtype": "noteOff"
            },
            {
                "deltaTime": 0,
                "channel": 0,
                "type": "channel",
                "noteNumber": 89,
                "velocity": 62,
                "subtype": "noteOn"
            },
            {
                "deltaTime": 81,
                "channel": 0,
                "type": "channel",
                "noteNumber": 89,
                "velocity": 0,
                "subtype": "noteOff"
            },
            {
                "deltaTime": 0,
                "channel": 0,
                "type": "channel",
                "noteNumber": 86,
                "velocity": 62,
                "subtype": "noteOn"
            },
            {
                "deltaTime": 80,
                "channel": 0,
                "type": "channel",
                "noteNumber": 86,
                "velocity": 0,
                "subtype": "noteOff"
            },
            {
                "deltaTime": 0,
                "channel": 0,
                "type": "channel",
                "noteNumber": 93,
                "velocity": 62,
                "subtype": "noteOn"
            },
            {
                "deltaTime": 79,
                "channel": 0,
                "type": "channel",
                "noteNumber": 93,
                "velocity": 0,
                "subtype": "noteOff"
            },
            {
                "deltaTime": 0,
                "channel": 0,
                "type": "channel",
                "noteNumber": 89,
                "velocity": 62,
                "subtype": "noteOn"
            },
            {
                "deltaTime": 81,
                "channel": 0,
                "type": "channel",
                "noteNumber": 89,
                "velocity": 0,
                "subtype": "noteOff"
            },
            {
                "deltaTime": 0,
                "channel": 0,
                "type": "channel",
                "subtype": "controller",
                "controllerType": 64,
                "value": 0
            },
            {
                "deltaTime": 0,
                "channel": 0,
                "type": "channel",
                "noteNumber": 77,
                "velocity": 62,
                "subtype": "noteOn"
            },
            {
                "deltaTime": 0,
                "channel": 0,
                "type": "channel",
                "noteNumber": 85,
                "velocity": 62,
                "subtype": "noteOn"
            },
            {
                "deltaTime": 60,
                "channel": 0,
                "type": "channel",
                "noteNumber": 85,
                "velocity": 0,
                "subtype": "noteOff"
            },
            {
                "deltaTime": 0,
                "channel": 0,
                "type": "channel",
                "noteNumber": 77,
                "velocity": 0,
                "subtype": "noteOff"
            },
            {
                "deltaTime": 0,
                "channel": 0,
                "type": "channel",
                "noteNumber": 78,
                "velocity": 62,
                "subtype": "noteOn"
            },
            {
                "deltaTime": 60,
                "channel": 0,
                "type": "channel",
                "noteNumber": 78,
                "velocity": 0,
                "subtype": "noteOff"
            },
            {
                "deltaTime": 0,
                "channel": 0,
                "type": "channel",
                "noteNumber": 79,
                "velocity": 62,
                "subtype": "noteOn"
            },
            {
                "deltaTime": 60,
                "channel": 0,
                "type": "channel",
                "noteNumber": 79,
                "velocity": 0,
                "subtype": "noteOff"
            },
            {
                "deltaTime": 0,
                "channel": 0,
                "type": "channel",
                "noteNumber": 80,
                "velocity": 62,
                "subtype": "noteOn"
            },
            {
                "deltaTime": 60,
                "channel": 0,
                "type": "channel",
                "noteNumber": 80,
                "velocity": 0,
                "subtype": "noteOff"
            },
            {
                "deltaTime": 0,
                "channel": 0,
                "type": "channel",
                "noteNumber": 81,
                "velocity": 62,
                "subtype": "noteOn"
            },
            {
                "deltaTime": 60,
                "channel": 0,
                "type": "channel",
                "noteNumber": 81,
                "velocity": 0,
                "subtype": "noteOff"
            },
            {
                "deltaTime": 0,
                "channel": 0,
                "type": "channel",
                "noteNumber": 83,
                "velocity": 62,
                "subtype": "noteOn"
            },
            {
                "deltaTime": 60,
                "channel": 0,
                "type": "channel",
                "noteNumber": 83,
                "velocity": 0,
                "subtype": "noteOff"
            },
            {
                "deltaTime": 0,
                "channel": 0,
                "type": "channel",
                "noteNumber": 81,
                "velocity": 62,
                "subtype": "noteOn"
            },
            {
                "deltaTime": 60,
                "channel": 0,
                "type": "channel",
                "noteNumber": 81,
                "velocity": 0,
                "subtype": "noteOff"
            },
            {
                "deltaTime": 0,
                "channel": 0,
                "type": "channel",
                "noteNumber": 83,
                "velocity": 62,
                "subtype": "noteOn"
            },
            {
                "deltaTime": 60,
                "channel": 0,
                "type": "channel",
                "noteNumber": 83,
                "velocity": 0,
                "subtype": "noteOff"
            },
            {
                "deltaTime": 0,
                "channel": 0,
                "type": "channel",
                "noteNumber": 81,
                "velocity": 62,
                "subtype": "noteOn"
            },
            {
                "deltaTime": 60,
                "channel": 0,
                "type": "channel",
                "noteNumber": 81,
                "velocity": 0,
                "subtype": "noteOff"
            },
            {
                "deltaTime": 0,
                "channel": 0,
                "type": "channel",
                "noteNumber": 83,
                "velocity": 62,
                "subtype": "noteOn"
            },
            {
                "deltaTime": 60,
                "channel": 0,
                "type": "channel",
                "noteNumber": 83,
                "velocity": 0,
                "subtype": "noteOff"
            },
            {
                "deltaTime": 0,
                "channel": 0,
                "type": "channel",
                "noteNumber": 81,
                "velocity": 62,
                "subtype": "noteOn"
            },
            {
                "deltaTime": 60,
                "channel": 0,
                "type": "channel",
                "noteNumber": 81,
                "velocity": 0,
                "subtype": "noteOff"
            },
            {
                "deltaTime": 0,
                "channel": 0,
                "type": "channel",
                "noteNumber": 83,
                "velocity": 62,
                "subtype": "noteOn"
            },
            {
                "deltaTime": 60,
                "channel": 0,
                "type": "channel",
                "noteNumber": 83,
                "velocity": 0,
                "subtype": "noteOff"
            },
            {
                "deltaTime": 0,
                "channel": 0,
                "type": "channel",
                "subtype": "controller",
                "controllerType": 64,
                "value": 127
            },
            {
                "deltaTime": 0,
                "channel": 0,
                "type": "channel",
                "noteNumber": 81,
                "velocity": 62,
                "subtype": "noteOn"
            },
            {
                "deltaTime": 60,
                "channel": 0,
                "type": "channel",
                "noteNumber": 81,
                "velocity": 0,
                "subtype": "noteOff"
            },
            {
                "deltaTime": 0,
                "channel": 0,
                "type": "channel",
                "noteNumber": 83,
                "velocity": 62,
                "subtype": "noteOn"
            },
            {
                "deltaTime": 60,
                "channel": 0,
                "type": "channel",
                "noteNumber": 83,
                "velocity": 0,
                "subtype": "noteOff"
            },
            {
                "deltaTime": 0,
                "channel": 0,
                "type": "channel",
                "noteNumber": 86,
                "velocity": 62,
                "subtype": "noteOn"
            },
            {
                "deltaTime": 60,
                "channel": 0,
                "type": "channel",
                "noteNumber": 86,
                "velocity": 0,
                "subtype": "noteOff"
            },
            {
                "deltaTime": 0,
                "channel": 0,
                "type": "channel",
                "noteNumber": 89,
                "velocity": 62,
                "subtype": "noteOn"
            },
            {
                "deltaTime": 60,
                "channel": 0,
                "type": "channel",
                "noteNumber": 89,
                "velocity": 0,
                "subtype": "noteOff"
            },
            {
                "deltaTime": 0,
                "channel": 0,
                "type": "channel",
                "subtype": "controller",
                "controllerType": 64,
                "value": 0
            },
            {
                "deltaTime": 0,
                "channel": 0,
                "type": "channel",
                "noteNumber": 93,
                "velocity": 62,
                "subtype": "noteOn"
            },
            {
                "deltaTime": 240,
                "channel": 0,
                "type": "channel",
                "noteNumber": 93,
                "velocity": 0,
                "subtype": "noteOff"
            },
            {
                "deltaTime": 0,
                "channel": 0,
                "type": "channel",
                "subtype": "controller",
                "controllerType": 64,
                "value": 127
            },
            {
                "deltaTime": 0,
                "channel": 0,
                "type": "channel",
                "noteNumber": 81,
                "velocity": 62,
                "subtype": "noteOn"
            },
            {
                "deltaTime": 60,
                "channel": 0,
                "type": "channel",
                "noteNumber": 81,
                "velocity": 0,
                "subtype": "noteOff"
            },
            {
                "deltaTime": 0,
                "channel": 0,
                "type": "channel",
                "noteNumber": 84,
                "velocity": 62,
                "subtype": "noteOn"
            },
            {
                "deltaTime": 60,
                "channel": 0,
                "type": "channel",
                "noteNumber": 84,
                "velocity": 0,
                "subtype": "noteOff"
            },
            {
                "deltaTime": 0,
                "channel": 0,
                "type": "channel",
                "noteNumber": 87,
                "velocity": 62,
                "subtype": "noteOn"
            },
            {
                "deltaTime": 60,
                "channel": 0,
                "type": "channel",
                "noteNumber": 87,
                "velocity": 0,
                "subtype": "noteOff"
            },
            {
                "deltaTime": 0,
                "channel": 0,
                "type": "channel",
                "noteNumber": 89,
                "velocity": 62,
                "subtype": "noteOn"
            },
            {
                "deltaTime": 60,
                "channel": 0,
                "type": "channel",
                "noteNumber": 89,
                "velocity": 0,
                "subtype": "noteOff"
            },
            {
                "deltaTime": 0,
                "channel": 0,
                "type": "channel",
                "subtype": "controller",
                "controllerType": 64,
                "value": 0
            },
            {
                "deltaTime": 0,
                "channel": 0,
                "type": "channel",
                "noteNumber": 93,
                "velocity": 62,
                "subtype": "noteOn"
            },
            {
                "deltaTime": 240,
                "channel": 0,
                "type": "channel",
                "noteNumber": 93,
                "velocity": 0,
                "subtype": "noteOff"
            },
            {
                "deltaTime": 720,
                "channel": 0,
                "type": "channel",
                "subtype": "controller",
                "controllerType": 64,
                "value": 127
            },
            {
                "deltaTime": 0,
                "channel": 0,
                "type": "channel",
                "noteNumber": 80,
                "velocity": 62,
                "subtype": "noteOn"
            },
            {
                "deltaTime": 60,
                "channel": 0,
                "type": "channel",
                "noteNumber": 80,
                "velocity": 0,
                "subtype": "noteOff"
            },
            {
                "deltaTime": 0,
                "channel": 0,
                "type": "channel",
                "noteNumber": 81,
                "velocity": 62,
                "subtype": "noteOn"
            },
            {
                "deltaTime": 60,
                "channel": 0,
                "type": "channel",
                "noteNumber": 81,
                "velocity": 0,
                "subtype": "noteOff"
            },
            {
                "deltaTime": 0,
                "channel": 0,
                "type": "channel",
                "noteNumber": 80,
                "velocity": 62,
                "subtype": "noteOn"
            },
            {
                "deltaTime": 60,
                "channel": 0,
                "type": "channel",
                "noteNumber": 80,
                "velocity": 0,
                "subtype": "noteOff"
            },
            {
                "deltaTime": 0,
                "channel": 0,
                "type": "channel",
                "noteNumber": 81,
                "velocity": 62,
                "subtype": "noteOn"
            },
            {
                "deltaTime": 60,
                "channel": 0,
                "type": "channel",
                "noteNumber": 81,
                "velocity": 0,
                "subtype": "noteOff"
            },
            {
                "deltaTime": 0,
                "channel": 0,
                "type": "channel",
                "noteNumber": 80,
                "velocity": 62,
                "subtype": "noteOn"
            },
            {
                "deltaTime": 60,
                "channel": 0,
                "type": "channel",
                "noteNumber": 80,
                "velocity": 0,
                "subtype": "noteOff"
            },
            {
                "deltaTime": 0,
                "channel": 0,
                "type": "channel",
                "noteNumber": 81,
                "velocity": 62,
                "subtype": "noteOn"
            },
            {
                "deltaTime": 60,
                "channel": 0,
                "type": "channel",
                "noteNumber": 81,
                "velocity": 0,
                "subtype": "noteOff"
            },
            {
                "deltaTime": 0,
                "channel": 0,
                "type": "channel",
                "noteNumber": 80,
                "velocity": 62,
                "subtype": "noteOn"
            },
            {
                "deltaTime": 60,
                "channel": 0,
                "type": "channel",
                "noteNumber": 80,
                "velocity": 0,
                "subtype": "noteOff"
            },
            {
                "deltaTime": 0,
                "channel": 0,
                "type": "channel",
                "noteNumber": 81,
                "velocity": 62,
                "subtype": "noteOn"
            },
            {
                "deltaTime": 60,
                "channel": 0,
                "type": "channel",
                "noteNumber": 81,
                "velocity": 0,
                "subtype": "noteOff"
            },
            {
                "deltaTime": 0,
                "channel": 0,
                "type": "channel",
                "noteNumber": 82,
                "velocity": 62,
                "subtype": "noteOn"
            },
            {
                "deltaTime": 60,
                "channel": 0,
                "type": "channel",
                "noteNumber": 82,
                "velocity": 0,
                "subtype": "noteOff"
            },
            {
                "deltaTime": 0,
                "channel": 0,
                "type": "channel",
                "noteNumber": 83,
                "velocity": 62,
                "subtype": "noteOn"
            },
            {
                "deltaTime": 60,
                "channel": 0,
                "type": "channel",
                "noteNumber": 83,
                "velocity": 0,
                "subtype": "noteOff"
            },
            {
                "deltaTime": 0,
                "channel": 0,
                "type": "channel",
                "noteNumber": 84,
                "velocity": 62,
                "subtype": "noteOn"
            },
            {
                "deltaTime": 60,
                "channel": 0,
                "type": "channel",
                "noteNumber": 84,
                "velocity": 0,
                "subtype": "noteOff"
            },
            {
                "deltaTime": 0,
                "channel": 0,
                "type": "channel",
                "subtype": "controller",
                "controllerType": 64,
                "value": 0
            },
            {
                "deltaTime": 0,
                "channel": 0,
                "type": "channel",
                "noteNumber": 85,
                "velocity": 62,
                "subtype": "noteOn"
            },
            {
                "deltaTime": 60,
                "channel": 0,
                "type": "channel",
                "noteNumber": 85,
                "velocity": 0,
                "subtype": "noteOff"
            },
            {
                "deltaTime": 240,
                "channel": 0,
                "type": "channel",
                "subtype": "controller",
                "controllerType": 64,
                "value": 127
            },
            {
                "deltaTime": 0,
                "channel": 0,
                "type": "channel",
                "noteNumber": 86,
                "velocity": 62,
                "subtype": "noteOn"
            },
            {
                "deltaTime": 80,
                "channel": 0,
                "type": "channel",
                "noteNumber": 86,
                "velocity": 0,
                "subtype": "noteOff"
            },
            {
                "deltaTime": 0,
                "channel": 0,
                "type": "channel",
                "noteNumber": 78,
                "velocity": 62,
                "subtype": "noteOn"
            },
            {
                "deltaTime": 79,
                "channel": 0,
                "type": "channel",
                "noteNumber": 78,
                "velocity": 0,
                "subtype": "noteOff"
            },
            {
                "deltaTime": 0,
                "channel": 0,
                "type": "channel",
                "noteNumber": 86,
                "velocity": 62,
                "subtype": "noteOn"
            },
            {
                "deltaTime": 81,
                "channel": 0,
                "type": "channel",
                "noteNumber": 86,
                "velocity": 0,
                "subtype": "noteOff"
            },
            {
                "deltaTime": 0,
                "channel": 0,
                "type": "channel",
                "noteNumber": 90,
                "velocity": 62,
                "subtype": "noteOn"
            },
            {
                "deltaTime": 80,
                "channel": 0,
                "type": "channel",
                "noteNumber": 90,
                "velocity": 0,
                "subtype": "noteOff"
            },
            {
                "deltaTime": 0,
                "channel": 0,
                "type": "channel",
                "noteNumber": 98,
                "velocity": 62,
                "subtype": "noteOn"
            },
            {
                "deltaTime": 79,
                "channel": 0,
                "type": "channel",
                "noteNumber": 98,
                "velocity": 0,
                "subtype": "noteOff"
            },
            {
                "deltaTime": 0,
                "channel": 0,
                "type": "channel",
                "subtype": "controller",
                "controllerType": 64,
                "value": 0
            },
            {
                "deltaTime": 0,
                "channel": 0,
                "type": "channel",
                "noteNumber": 102,
                "velocity": 62,
                "subtype": "noteOn"
            },
            {
                "deltaTime": 81,
                "channel": 0,
                "type": "channel",
                "noteNumber": 102,
                "velocity": 0,
                "subtype": "noteOff"
            },
            {
                "deltaTime": 240,
                "channel": 0,
                "type": "channel",
                "subtype": "controller",
                "controllerType": 64,
                "value": 127
            },
            {
                "deltaTime": 0,
                "channel": 0,
                "type": "channel",
                "noteNumber": 85,
                "velocity": 62,
                "subtype": "noteOn"
            },
            {
                "deltaTime": 80,
                "channel": 0,
                "type": "channel",
                "noteNumber": 85,
                "velocity": 0,
                "subtype": "noteOff"
            },
            {
                "deltaTime": 0,
                "channel": 0,
                "type": "channel",
                "noteNumber": 78,
                "velocity": 62,
                "subtype": "noteOn"
            },
            {
                "deltaTime": 79,
                "channel": 0,
                "type": "channel",
                "noteNumber": 78,
                "velocity": 0,
                "subtype": "noteOff"
            },
            {
                "deltaTime": 0,
                "channel": 0,
                "type": "channel",
                "noteNumber": 85,
                "velocity": 62,
                "subtype": "noteOn"
            },
            {
                "deltaTime": 81,
                "channel": 0,
                "type": "channel",
                "noteNumber": 85,
                "velocity": 0,
                "subtype": "noteOff"
            },
            {
                "deltaTime": 0,
                "channel": 0,
                "type": "channel",
                "noteNumber": 90,
                "velocity": 62,
                "subtype": "noteOn"
            },
            {
                "deltaTime": 80,
                "channel": 0,
                "type": "channel",
                "noteNumber": 90,
                "velocity": 0,
                "subtype": "noteOff"
            },
            {
                "deltaTime": 0,
                "channel": 0,
                "type": "channel",
                "noteNumber": 97,
                "velocity": 62,
                "subtype": "noteOn"
            },
            {
                "deltaTime": 79,
                "channel": 0,
                "type": "channel",
                "noteNumber": 97,
                "velocity": 0,
                "subtype": "noteOff"
            },
            {
                "deltaTime": 0,
                "channel": 0,
                "type": "channel",
                "noteNumber": 102,
                "velocity": 62,
                "subtype": "noteOn"
            },
            {
                "deltaTime": 81,
                "channel": 0,
                "type": "channel",
                "noteNumber": 102,
                "velocity": 0,
                "subtype": "noteOff"
            },
            {
                "deltaTime": 0,
                "channel": 0,
                "type": "channel",
                "subtype": "controller",
                "controllerType": 64,
                "value": 0
            },
            {
                "deltaTime": 0,
                "channel": 0,
                "type": "channel",
                "noteNumber": 95,
                "velocity": 62,
                "subtype": "noteOn"
            },
            {
                "deltaTime": 120,
                "channel": 0,
                "type": "channel",
                "noteNumber": 95,
                "velocity": 0,
                "subtype": "noteOff"
            },
            {
                "deltaTime": 0,
                "channel": 0,
                "type": "channel",
                "subtype": "controller",
                "controllerType": 64,
                "value": 127
            },
            {
                "deltaTime": 0,
                "channel": 0,
                "type": "channel",
                "noteNumber": 83,
                "velocity": 62,
                "subtype": "noteOn"
            },
            {
                "deltaTime": 120,
                "channel": 0,
                "type": "channel",
                "noteNumber": 83,
                "velocity": 0,
                "subtype": "noteOff"
            },
            {
                "deltaTime": 0,
                "channel": 0,
                "type": "channel",
                "noteNumber": 84,
                "velocity": 62,
                "subtype": "noteOn"
            },
            {
                "deltaTime": 80,
                "channel": 0,
                "type": "channel",
                "noteNumber": 84,
                "velocity": 0,
                "subtype": "noteOff"
            },
            {
                "deltaTime": 0,
                "channel": 0,
                "type": "channel",
                "noteNumber": 85,
                "velocity": 62,
                "subtype": "noteOn"
            },
            {
                "deltaTime": 79,
                "channel": 0,
                "type": "channel",
                "noteNumber": 85,
                "velocity": 0,
                "subtype": "noteOff"
            },
            {
                "deltaTime": 0,
                "channel": 0,
                "type": "channel",
                "noteNumber": 86,
                "velocity": 62,
                "subtype": "noteOn"
            },
            {
                "deltaTime": 81,
                "channel": 0,
                "type": "channel",
                "noteNumber": 86,
                "velocity": 0,
                "subtype": "noteOff"
            },
            {
                "deltaTime": 0,
                "channel": 0,
                "type": "channel",
                "noteNumber": 87,
                "velocity": 62,
                "subtype": "noteOn"
            },
            {
                "deltaTime": 80,
                "channel": 0,
                "type": "channel",
                "noteNumber": 87,
                "velocity": 0,
                "subtype": "noteOff"
            },
            {
                "deltaTime": 0,
                "channel": 0,
                "type": "channel",
                "noteNumber": 88,
                "velocity": 62,
                "subtype": "noteOn"
            },
            {
                "deltaTime": 79,
                "channel": 0,
                "type": "channel",
                "noteNumber": 88,
                "velocity": 0,
                "subtype": "noteOff"
            },
            {
                "deltaTime": 0,
                "channel": 0,
                "type": "channel",
                "subtype": "controller",
                "controllerType": 64,
                "value": 0
            },
            {
                "deltaTime": 0,
                "channel": 0,
                "type": "channel",
                "noteNumber": 89,
                "velocity": 62,
                "subtype": "noteOn"
            },
            {
                "deltaTime": 81,
                "channel": 0,
                "type": "channel",
                "noteNumber": 89,
                "velocity": 0,
                "subtype": "noteOff"
            },
            {
                "deltaTime": 0,
                "channel": 0,
                "type": "channel",
                "subtype": "controller",
                "controllerType": 64,
                "value": 127
            },
            {
                "deltaTime": 0,
                "channel": 0,
                "type": "channel",
                "noteNumber": 90,
                "velocity": 62,
                "subtype": "noteOn"
            },
            {
                "deltaTime": 80,
                "channel": 0,
                "type": "channel",
                "noteNumber": 90,
                "velocity": 0,
                "subtype": "noteOff"
            },
            {
                "deltaTime": 0,
                "channel": 0,
                "type": "channel",
                "noteNumber": 96,
                "velocity": 62,
                "subtype": "noteOn"
            },
            {
                "deltaTime": 79,
                "channel": 0,
                "type": "channel",
                "noteNumber": 96,
                "velocity": 0,
                "subtype": "noteOff"
            },
            {
                "deltaTime": 0,
                "channel": 0,
                "type": "channel",
                "noteNumber": 92,
                "velocity": 62,
                "subtype": "noteOn"
            },
            {
                "deltaTime": 81,
                "channel": 0,
                "type": "channel",
                "noteNumber": 92,
                "velocity": 0,
                "subtype": "noteOff"
            },
            {
                "deltaTime": 0,
                "channel": 0,
                "type": "channel",
                "noteNumber": 89,
                "velocity": 62,
                "subtype": "noteOn"
            },
            {
                "deltaTime": 80,
                "channel": 0,
                "type": "channel",
                "noteNumber": 89,
                "velocity": 0,
                "subtype": "noteOff"
            },
            {
                "deltaTime": 0,
                "channel": 0,
                "type": "channel",
                "noteNumber": 96,
                "velocity": 62,
                "subtype": "noteOn"
            },
            {
                "deltaTime": 79,
                "channel": 0,
                "type": "channel",
                "noteNumber": 96,
                "velocity": 0,
                "subtype": "noteOff"
            },
            {
                "deltaTime": 0,
                "channel": 0,
                "type": "channel",
                "noteNumber": 92,
                "velocity": 62,
                "subtype": "noteOn"
            },
            {
                "deltaTime": 81,
                "channel": 0,
                "type": "channel",
                "noteNumber": 92,
                "velocity": 0,
                "subtype": "noteOff"
            },
            {
                "deltaTime": 0,
                "channel": 0,
                "type": "channel",
                "subtype": "controller",
                "controllerType": 64,
                "value": 0
            },
            {
                "deltaTime": 0,
                "channel": 0,
                "type": "channel",
                "noteNumber": 80,
                "velocity": 62,
                "subtype": "noteOn"
            },
            {
                "deltaTime": 0,
                "channel": 0,
                "type": "channel",
                "noteNumber": 88,
                "velocity": 62,
                "subtype": "noteOn"
            },
            {
                "deltaTime": 60,
                "channel": 0,
                "type": "channel",
                "noteNumber": 88,
                "velocity": 0,
                "subtype": "noteOff"
            },
            {
                "deltaTime": 0,
                "channel": 0,
                "type": "channel",
                "noteNumber": 80,
                "velocity": 0,
                "subtype": "noteOff"
            },
            {
                "deltaTime": 0,
                "channel": 0,
                "type": "channel",
                "noteNumber": 81,
                "velocity": 62,
                "subtype": "noteOn"
            },
            {
                "deltaTime": 60,
                "channel": 0,
                "type": "channel",
                "noteNumber": 81,
                "velocity": 0,
                "subtype": "noteOff"
            },
            {
                "deltaTime": 0,
                "channel": 0,
                "type": "channel",
                "noteNumber": 82,
                "velocity": 62,
                "subtype": "noteOn"
            },
            {
                "deltaTime": 60,
                "channel": 0,
                "type": "channel",
                "noteNumber": 82,
                "velocity": 0,
                "subtype": "noteOff"
            },
            {
                "deltaTime": 0,
                "channel": 0,
                "type": "channel",
                "noteNumber": 83,
                "velocity": 62,
                "subtype": "noteOn"
            },
            {
                "deltaTime": 60,
                "channel": 0,
                "type": "channel",
                "noteNumber": 83,
                "velocity": 0,
                "subtype": "noteOff"
            },
            {
                "deltaTime": 0,
                "channel": 0,
                "type": "channel",
                "noteNumber": 84,
                "velocity": 62,
                "subtype": "noteOn"
            },
            {
                "deltaTime": 60,
                "channel": 0,
                "type": "channel",
                "noteNumber": 84,
                "velocity": 0,
                "subtype": "noteOff"
            },
            {
                "deltaTime": 0,
                "channel": 0,
                "type": "channel",
                "noteNumber": 86,
                "velocity": 62,
                "subtype": "noteOn"
            },
            {
                "deltaTime": 60,
                "channel": 0,
                "type": "channel",
                "noteNumber": 86,
                "velocity": 0,
                "subtype": "noteOff"
            },
            {
                "deltaTime": 0,
                "channel": 0,
                "type": "channel",
                "noteNumber": 84,
                "velocity": 62,
                "subtype": "noteOn"
            },
            {
                "deltaTime": 60,
                "channel": 0,
                "type": "channel",
                "noteNumber": 84,
                "velocity": 0,
                "subtype": "noteOff"
            },
            {
                "deltaTime": 0,
                "channel": 0,
                "type": "channel",
                "noteNumber": 86,
                "velocity": 62,
                "subtype": "noteOn"
            },
            {
                "deltaTime": 60,
                "channel": 0,
                "type": "channel",
                "noteNumber": 86,
                "velocity": 0,
                "subtype": "noteOff"
            },
            {
                "deltaTime": 0,
                "channel": 0,
                "type": "channel",
                "noteNumber": 84,
                "velocity": 62,
                "subtype": "noteOn"
            },
            {
                "deltaTime": 60,
                "channel": 0,
                "type": "channel",
                "noteNumber": 84,
                "velocity": 0,
                "subtype": "noteOff"
            },
            {
                "deltaTime": 0,
                "channel": 0,
                "type": "channel",
                "noteNumber": 86,
                "velocity": 62,
                "subtype": "noteOn"
            },
            {
                "deltaTime": 60,
                "channel": 0,
                "type": "channel",
                "noteNumber": 86,
                "velocity": 0,
                "subtype": "noteOff"
            },
            {
                "deltaTime": 0,
                "channel": 0,
                "type": "channel",
                "noteNumber": 84,
                "velocity": 62,
                "subtype": "noteOn"
            },
            {
                "deltaTime": 60,
                "channel": 0,
                "type": "channel",
                "noteNumber": 84,
                "velocity": 0,
                "subtype": "noteOff"
            },
            {
                "deltaTime": 0,
                "channel": 0,
                "type": "channel",
                "noteNumber": 86,
                "velocity": 62,
                "subtype": "noteOn"
            },
            {
                "deltaTime": 60,
                "channel": 0,
                "type": "channel",
                "noteNumber": 86,
                "velocity": 0,
                "subtype": "noteOff"
            },
            {
                "deltaTime": 0,
                "channel": 0,
                "type": "channel",
                "subtype": "controller",
                "controllerType": 64,
                "value": 127
            },
            {
                "deltaTime": 0,
                "channel": 0,
                "type": "channel",
                "noteNumber": 84,
                "velocity": 62,
                "subtype": "noteOn"
            },
            {
                "deltaTime": 60,
                "channel": 0,
                "type": "channel",
                "noteNumber": 84,
                "velocity": 0,
                "subtype": "noteOff"
            },
            {
                "deltaTime": 0,
                "channel": 0,
                "type": "channel",
                "noteNumber": 86,
                "velocity": 62,
                "subtype": "noteOn"
            },
            {
                "deltaTime": 60,
                "channel": 0,
                "type": "channel",
                "noteNumber": 86,
                "velocity": 0,
                "subtype": "noteOff"
            },
            {
                "deltaTime": 0,
                "channel": 0,
                "type": "channel",
                "noteNumber": 89,
                "velocity": 62,
                "subtype": "noteOn"
            },
            {
                "deltaTime": 60,
                "channel": 0,
                "type": "channel",
                "noteNumber": 89,
                "velocity": 0,
                "subtype": "noteOff"
            },
            {
                "deltaTime": 0,
                "channel": 0,
                "type": "channel",
                "noteNumber": 92,
                "velocity": 62,
                "subtype": "noteOn"
            },
            {
                "deltaTime": 60,
                "channel": 0,
                "type": "channel",
                "noteNumber": 92,
                "velocity": 0,
                "subtype": "noteOff"
            },
            {
                "deltaTime": 0,
                "channel": 0,
                "type": "channel",
                "subtype": "controller",
                "controllerType": 64,
                "value": 0
            },
            {
                "deltaTime": 0,
                "channel": 0,
                "type": "channel",
                "noteNumber": 96,
                "velocity": 62,
                "subtype": "noteOn"
            },
            {
                "deltaTime": 240,
                "channel": 0,
                "type": "channel",
                "noteNumber": 96,
                "velocity": 0,
                "subtype": "noteOff"
            },
            {
                "deltaTime": 0,
                "channel": 0,
                "type": "channel",
                "subtype": "controller",
                "controllerType": 64,
                "value": 127
            },
            {
                "deltaTime": 0,
                "channel": 0,
                "type": "channel",
                "noteNumber": 84,
                "velocity": 62,
                "subtype": "noteOn"
            },
            {
                "deltaTime": 60,
                "channel": 0,
                "type": "channel",
                "noteNumber": 84,
                "velocity": 0,
                "subtype": "noteOff"
            },
            {
                "deltaTime": 0,
                "channel": 0,
                "type": "channel",
                "noteNumber": 86,
                "velocity": 62,
                "subtype": "noteOn"
            },
            {
                "deltaTime": 60,
                "channel": 0,
                "type": "channel",
                "noteNumber": 86,
                "velocity": 0,
                "subtype": "noteOff"
            },
            {
                "deltaTime": 0,
                "channel": 0,
                "type": "channel",
                "noteNumber": 90,
                "velocity": 62,
                "subtype": "noteOn"
            },
            {
                "deltaTime": 60,
                "channel": 0,
                "type": "channel",
                "noteNumber": 90,
                "velocity": 0,
                "subtype": "noteOff"
            },
            {
                "deltaTime": 0,
                "channel": 0,
                "type": "channel",
                "noteNumber": 92,
                "velocity": 62,
                "subtype": "noteOn"
            },
            {
                "deltaTime": 60,
                "channel": 0,
                "type": "channel",
                "noteNumber": 92,
                "velocity": 0,
                "subtype": "noteOff"
            },
            {
                "deltaTime": 0,
                "channel": 0,
                "type": "channel",
                "subtype": "controller",
                "controllerType": 64,
                "value": 0
            },
            {
                "deltaTime": 0,
                "channel": 0,
                "type": "channel",
                "noteNumber": 96,
                "velocity": 62,
                "subtype": "noteOn"
            },
            {
                "deltaTime": 240,
                "channel": 0,
                "type": "channel",
                "noteNumber": 96,
                "velocity": 0,
                "subtype": "noteOff"
            },
            {
                "deltaTime": 1440,
                "channel": 0,
                "type": "channel",
                "noteNumber": 87,
                "velocity": 62,
                "subtype": "noteOn"
            },
            {
                "deltaTime": 15,
                "channel": 0,
                "type": "channel",
                "noteNumber": 87,
                "velocity": 0,
                "subtype": "noteOff"
            },
            {
                "deltaTime": 65,
                "channel": 0,
                "type": "channel",
                "noteNumber": 82,
                "velocity": 62,
                "subtype": "noteOn"
            },
            {
                "deltaTime": 16,
                "channel": 0,
                "type": "channel",
                "noteNumber": 82,
                "velocity": 0,
                "subtype": "noteOff"
            },
            {
                "deltaTime": 63,
                "channel": 0,
                "type": "channel",
                "noteNumber": 78,
                "velocity": 62,
                "subtype": "noteOn"
            },
            {
                "deltaTime": 16,
                "channel": 0,
                "type": "channel",
                "noteNumber": 78,
                "velocity": 0,
                "subtype": "noteOff"
            },
            {
                "deltaTime": 65,
                "channel": 0,
                "type": "channel",
                "noteNumber": 74,
                "velocity": 62,
                "subtype": "noteOn"
            },
            {
                "deltaTime": 47,
                "channel": 0,
                "type": "channel",
                "noteNumber": 74,
                "velocity": 0,
                "subtype": "noteOff"
            },
            {
                "deltaTime": 1153,
                "channel": 0,
                "type": "channel",
                "subtype": "controller",
                "controllerType": 64,
                "value": 127
            },
            {
                "deltaTime": 0,
                "channel": 0,
                "type": "channel",
                "noteNumber": 73,
                "velocity": 62,
                "subtype": "noteOn"
            },
            {
                "deltaTime": 0,
                "channel": 0,
                "type": "channel",
                "noteNumber": 81,
                "velocity": 62,
                "subtype": "noteOn"
            },
            {
                "deltaTime": 80,
                "channel": 0,
                "type": "channel",
                "noteNumber": 81,
                "velocity": 0,
                "subtype": "noteOff"
            },
            {
                "deltaTime": 0,
                "channel": 0,
                "type": "channel",
                "noteNumber": 73,
                "velocity": 0,
                "subtype": "noteOff"
            },
            {
                "deltaTime": 0,
                "channel": 0,
                "type": "channel",
                "noteNumber": 72,
                "velocity": 62,
                "subtype": "noteOn"
            },
            {
                "deltaTime": 0,
                "channel": 0,
                "type": "channel",
                "noteNumber": 80,
                "velocity": 62,
                "subtype": "noteOn"
            },
            {
                "deltaTime": 79,
                "channel": 0,
                "type": "channel",
                "noteNumber": 80,
                "velocity": 0,
                "subtype": "noteOff"
            },
            {
                "deltaTime": 0,
                "channel": 0,
                "type": "channel",
                "noteNumber": 72,
                "velocity": 0,
                "subtype": "noteOff"
            },
            {
                "deltaTime": 0,
                "channel": 0,
                "type": "channel",
                "noteNumber": 71,
                "velocity": 62,
                "subtype": "noteOn"
            },
            {
                "deltaTime": 0,
                "channel": 0,
                "type": "channel",
                "noteNumber": 79,
                "velocity": 62,
                "subtype": "noteOn"
            },
            {
                "deltaTime": 81,
                "channel": 0,
                "type": "channel",
                "noteNumber": 79,
                "velocity": 0,
                "subtype": "noteOff"
            },
            {
                "deltaTime": 0,
                "channel": 0,
                "type": "channel",
                "noteNumber": 71,
                "velocity": 0,
                "subtype": "noteOff"
            },
            {
                "deltaTime": 0,
                "channel": 0,
                "type": "channel",
                "noteNumber": 67,
                "velocity": 62,
                "subtype": "noteOn"
            },
            {
                "deltaTime": 0,
                "channel": 0,
                "type": "channel",
                "noteNumber": 75,
                "velocity": 62,
                "subtype": "noteOn"
            },
            {
                "deltaTime": 80,
                "channel": 0,
                "type": "channel",
                "noteNumber": 75,
                "velocity": 0,
                "subtype": "noteOff"
            },
            {
                "deltaTime": 0,
                "channel": 0,
                "type": "channel",
                "noteNumber": 67,
                "velocity": 0,
                "subtype": "noteOff"
            },
            {
                "deltaTime": 0,
                "channel": 0,
                "type": "channel",
                "noteNumber": 66,
                "velocity": 62,
                "subtype": "noteOn"
            },
            {
                "deltaTime": 0,
                "channel": 0,
                "type": "channel",
                "noteNumber": 74,
                "velocity": 62,
                "subtype": "noteOn"
            },
            {
                "deltaTime": 79,
                "channel": 0,
                "type": "channel",
                "noteNumber": 74,
                "velocity": 0,
                "subtype": "noteOff"
            },
            {
                "deltaTime": 0,
                "channel": 0,
                "type": "channel",
                "noteNumber": 66,
                "velocity": 0,
                "subtype": "noteOff"
            },
            {
                "deltaTime": 0,
                "channel": 0,
                "type": "channel",
                "noteNumber": 65,
                "velocity": 62,
                "subtype": "noteOn"
            },
            {
                "deltaTime": 0,
                "channel": 0,
                "type": "channel",
                "noteNumber": 72,
                "velocity": 62,
                "subtype": "noteOn"
            },
            {
                "deltaTime": 81,
                "channel": 0,
                "type": "channel",
                "noteNumber": 72,
                "velocity": 0,
                "subtype": "noteOff"
            },
            {
                "deltaTime": 0,
                "channel": 0,
                "type": "channel",
                "noteNumber": 65,
                "velocity": 0,
                "subtype": "noteOff"
            },
            {
                "deltaTime": 0,
                "channel": 0,
                "type": "channel",
                "noteNumber": 61,
                "velocity": 62,
                "subtype": "noteOn"
            },
            {
                "deltaTime": 0,
                "channel": 0,
                "type": "channel",
                "noteNumber": 69,
                "velocity": 62,
                "subtype": "noteOn"
            },
            {
                "deltaTime": 80,
                "channel": 0,
                "type": "channel",
                "noteNumber": 69,
                "velocity": 0,
                "subtype": "noteOff"
            },
            {
                "deltaTime": 0,
                "channel": 0,
                "type": "channel",
                "noteNumber": 61,
                "velocity": 0,
                "subtype": "noteOff"
            },
            {
                "deltaTime": 0,
                "channel": 0,
                "type": "channel",
                "noteNumber": 60,
                "velocity": 62,
                "subtype": "noteOn"
            },
            {
                "deltaTime": 0,
                "channel": 0,
                "type": "channel",
                "noteNumber": 68,
                "velocity": 62,
                "subtype": "noteOn"
            },
            {
                "deltaTime": 79,
                "channel": 0,
                "type": "channel",
                "noteNumber": 68,
                "velocity": 0,
                "subtype": "noteOff"
            },
            {
                "deltaTime": 0,
                "channel": 0,
                "type": "channel",
                "noteNumber": 60,
                "velocity": 0,
                "subtype": "noteOff"
            },
            {
                "deltaTime": 0,
                "channel": 0,
                "type": "channel",
                "subtype": "controller",
                "controllerType": 64,
                "value": 0
            },
            {
                "deltaTime": 0,
                "channel": 0,
                "type": "channel",
                "noteNumber": 59,
                "velocity": 62,
                "subtype": "noteOn"
            },
            {
                "deltaTime": 0,
                "channel": 0,
                "type": "channel",
                "noteNumber": 64,
                "velocity": 62,
                "subtype": "noteOn"
            },
            {
                "deltaTime": 81,
                "channel": 0,
                "type": "channel",
                "noteNumber": 64,
                "velocity": 0,
                "subtype": "noteOff"
            },
            {
                "deltaTime": 0,
                "channel": 0,
                "type": "channel",
                "noteNumber": 59,
                "velocity": 0,
                "subtype": "noteOff"
            },
            {
                "deltaTime": 720,
                "channel": 0,
                "type": "channel",
                "noteNumber": 87,
                "velocity": 62,
                "subtype": "noteOn"
            },
            {
                "deltaTime": 15,
                "channel": 0,
                "type": "channel",
                "noteNumber": 87,
                "velocity": 0,
                "subtype": "noteOff"
            },
            {
                "deltaTime": 65,
                "channel": 0,
                "type": "channel",
                "noteNumber": 83,
                "velocity": 62,
                "subtype": "noteOn"
            },
            {
                "deltaTime": 16,
                "channel": 0,
                "type": "channel",
                "noteNumber": 83,
                "velocity": 0,
                "subtype": "noteOff"
            },
            {
                "deltaTime": 63,
                "channel": 0,
                "type": "channel",
                "noteNumber": 79,
                "velocity": 62,
                "subtype": "noteOn"
            },
            {
                "deltaTime": 16,
                "channel": 0,
                "type": "channel",
                "noteNumber": 79,
                "velocity": 0,
                "subtype": "noteOff"
            },
            {
                "deltaTime": 65,
                "channel": 0,
                "type": "channel",
                "noteNumber": 75,
                "velocity": 62,
                "subtype": "noteOn"
            },
            {
                "deltaTime": 47,
                "channel": 0,
                "type": "channel",
                "noteNumber": 75,
                "velocity": 0,
                "subtype": "noteOff"
            },
            {
                "deltaTime": 1153,
                "channel": 0,
                "type": "channel",
                "noteNumber": 89,
                "velocity": 62,
                "subtype": "noteOn"
            },
            {
                "deltaTime": 15,
                "channel": 0,
                "type": "channel",
                "noteNumber": 89,
                "velocity": 0,
                "subtype": "noteOff"
            },
            {
                "deltaTime": 65,
                "channel": 0,
                "type": "channel",
                "noteNumber": 84,
                "velocity": 62,
                "subtype": "noteOn"
            },
            {
                "deltaTime": 16,
                "channel": 0,
                "type": "channel",
                "noteNumber": 84,
                "velocity": 0,
                "subtype": "noteOff"
            },
            {
                "deltaTime": 63,
                "channel": 0,
                "type": "channel",
                "noteNumber": 80,
                "velocity": 62,
                "subtype": "noteOn"
            },
            {
                "deltaTime": 16,
                "channel": 0,
                "type": "channel",
                "noteNumber": 80,
                "velocity": 0,
                "subtype": "noteOff"
            },
            {
                "deltaTime": 65,
                "channel": 0,
                "type": "channel",
                "noteNumber": 76,
                "velocity": 62,
                "subtype": "noteOn"
            },
            {
                "deltaTime": 47,
                "channel": 0,
                "type": "channel",
                "noteNumber": 76,
                "velocity": 0,
                "subtype": "noteOff"
            },
            {
                "deltaTime": 673,
                "channel": 0,
                "type": "channel",
                "subtype": "controller",
                "controllerType": 64,
                "value": 127
            },
            {
                "deltaTime": 0,
                "channel": 0,
                "type": "channel",
                "noteNumber": 71,
                "velocity": 62,
                "subtype": "noteOn"
            },
            {
                "deltaTime": 120,
                "channel": 0,
                "type": "channel",
                "noteNumber": 71,
                "velocity": 0,
                "subtype": "noteOff"
            },
            {
                "deltaTime": 0,
                "channel": 0,
                "type": "channel",
                "noteNumber": 70,
                "velocity": 62,
                "subtype": "noteOn"
            },
            {
                "deltaTime": 120,
                "channel": 0,
                "type": "channel",
                "noteNumber": 70,
                "velocity": 0,
                "subtype": "noteOff"
            },
            {
                "deltaTime": 0,
                "channel": 0,
                "type": "channel",
                "noteNumber": 69,
                "velocity": 62,
                "subtype": "noteOn"
            },
            {
                "deltaTime": 120,
                "channel": 0,
                "type": "channel",
                "noteNumber": 69,
                "velocity": 0,
                "subtype": "noteOff"
            },
            {
                "deltaTime": 0,
                "channel": 0,
                "type": "channel",
                "subtype": "controller",
                "controllerType": 64,
                "value": 0
            },
            {
                "deltaTime": 0,
                "channel": 0,
                "type": "channel",
                "noteNumber": 65,
                "velocity": 62,
                "subtype": "noteOn"
            },
            {
                "deltaTime": 120,
                "channel": 0,
                "type": "channel",
                "noteNumber": 65,
                "velocity": 0,
                "subtype": "noteOff"
            },
            {
                "deltaTime": 0,
                "channel": 0,
                "type": "channel",
                "noteNumber": 95,
                "velocity": 75,
                "subtype": "noteOn"
            },
            {
                "deltaTime": 80,
                "channel": 0,
                "type": "channel",
                "noteNumber": 95,
                "velocity": 0,
                "subtype": "noteOff"
            },
            {
                "deltaTime": 0,
                "channel": 0,
                "type": "channel",
                "noteNumber": 94,
                "velocity": 75,
                "subtype": "noteOn"
            },
            {
                "deltaTime": 79,
                "channel": 0,
                "type": "channel",
                "noteNumber": 94,
                "velocity": 0,
                "subtype": "noteOff"
            },
            {
                "deltaTime": 0,
                "channel": 0,
                "type": "channel",
                "noteNumber": 93,
                "velocity": 75,
                "subtype": "noteOn"
            },
            {
                "deltaTime": 81,
                "channel": 0,
                "type": "channel",
                "noteNumber": 93,
                "velocity": 0,
                "subtype": "noteOff"
            },
            {
                "deltaTime": 0,
                "channel": 0,
                "type": "channel",
                "subtype": "controller",
                "controllerType": 64,
                "value": 127
            },
            {
                "deltaTime": 0,
                "channel": 0,
                "type": "channel",
                "noteNumber": 87,
                "velocity": 75,
                "subtype": "noteOn"
            },
            {
                "deltaTime": 0,
                "channel": 0,
                "type": "channel",
                "noteNumber": 89,
                "velocity": 75,
                "subtype": "noteOn"
            },
            {
                "deltaTime": 80,
                "channel": 0,
                "type": "channel",
                "noteNumber": 89,
                "velocity": 0,
                "subtype": "noteOff"
            },
            {
                "deltaTime": 0,
                "channel": 0,
                "type": "channel",
                "noteNumber": 87,
                "velocity": 0,
                "subtype": "noteOff"
            },
            {
                "deltaTime": 0,
                "channel": 0,
                "type": "channel",
                "noteNumber": 86,
                "velocity": 75,
                "subtype": "noteOn"
            },
            {
                "deltaTime": 79,
                "channel": 0,
                "type": "channel",
                "noteNumber": 86,
                "velocity": 0,
                "subtype": "noteOff"
            },
            {
                "deltaTime": 0,
                "channel": 0,
                "type": "channel",
                "noteNumber": 85,
                "velocity": 75,
                "subtype": "noteOn"
            },
            {
                "deltaTime": 81,
                "channel": 0,
                "type": "channel",
                "noteNumber": 85,
                "velocity": 0,
                "subtype": "noteOff"
            },
            {
                "deltaTime": 0,
                "channel": 0,
                "type": "channel",
                "noteNumber": 77,
                "velocity": 75,
                "subtype": "noteOn"
            },
            {
                "deltaTime": 0,
                "channel": 0,
                "type": "channel",
                "noteNumber": 81,
                "velocity": 75,
                "subtype": "noteOn"
            },
            {
                "deltaTime": 80,
                "channel": 0,
                "type": "channel",
                "noteNumber": 81,
                "velocity": 0,
                "subtype": "noteOff"
            },
            {
                "deltaTime": 0,
                "channel": 0,
                "type": "channel",
                "noteNumber": 77,
                "velocity": 0,
                "subtype": "noteOff"
            },
            {
                "deltaTime": 0,
                "channel": 0,
                "type": "channel",
                "noteNumber": 76,
                "velocity": 75,
                "subtype": "noteOn"
            },
            {
                "deltaTime": 0,
                "channel": 0,
                "type": "channel",
                "noteNumber": 80,
                "velocity": 75,
                "subtype": "noteOn"
            },
            {
                "deltaTime": 79,
                "channel": 0,
                "type": "channel",
                "noteNumber": 80,
                "velocity": 0,
                "subtype": "noteOff"
            },
            {
                "deltaTime": 0,
                "channel": 0,
                "type": "channel",
                "noteNumber": 76,
                "velocity": 0,
                "subtype": "noteOff"
            },
            {
                "deltaTime": 0,
                "channel": 0,
                "type": "channel",
                "subtype": "controller",
                "controllerType": 64,
                "value": 0
            },
            {
                "deltaTime": 0,
                "channel": 0,
                "type": "channel",
                "noteNumber": 74,
                "velocity": 75,
                "subtype": "noteOn"
            },
            {
                "deltaTime": 0,
                "channel": 0,
                "type": "channel",
                "noteNumber": 79,
                "velocity": 75,
                "subtype": "noteOn"
            },
            {
                "deltaTime": 81,
                "channel": 0,
                "type": "channel",
                "noteNumber": 79,
                "velocity": 0,
                "subtype": "noteOff"
            },
            {
                "deltaTime": 0,
                "channel": 0,
                "type": "channel",
                "noteNumber": 74,
                "velocity": 0,
                "subtype": "noteOff"
            },
            {
                "deltaTime": 0,
                "channel": 0,
                "type": "channel",
                "noteNumber": 73,
                "velocity": 88,
                "subtype": "noteOn"
            },
            {
                "deltaTime": 0,
                "channel": 0,
                "type": "channel",
                "noteNumber": 78,
                "velocity": 88,
                "subtype": "noteOn"
            },
            {
                "deltaTime": 120,
                "channel": 0,
                "type": "channel",
                "noteNumber": 78,
                "velocity": 0,
                "subtype": "noteOff"
            },
            {
                "deltaTime": 0,
                "channel": 0,
                "type": "channel",
                "noteNumber": 73,
                "velocity": 0,
                "subtype": "noteOff"
            },
            {
                "deltaTime": 2040,
                "channel": 0,
                "type": "channel",
                "subtype": "controller",
                "controllerType": 64,
                "value": 127
            },
            {
                "deltaTime": 0,
                "channel": 0,
                "type": "channel",
                "noteNumber": 76,
                "velocity": 88,
                "subtype": "noteOn"
            },
            {
                "deltaTime": 0,
                "channel": 0,
                "type": "channel",
                "noteNumber": 80,
                "velocity": 88,
                "subtype": "noteOn"
            },
            {
                "deltaTime": 80,
                "channel": 0,
                "type": "channel",
                "noteNumber": 80,
                "velocity": 0,
                "subtype": "noteOff"
            },
            {
                "deltaTime": 0,
                "channel": 0,
                "type": "channel",
                "noteNumber": 76,
                "velocity": 0,
                "subtype": "noteOff"
            },
            {
                "deltaTime": 0,
                "channel": 0,
                "type": "channel",
                "noteNumber": 74,
                "velocity": 88,
                "subtype": "noteOn"
            },
            {
                "deltaTime": 0,
                "channel": 0,
                "type": "channel",
                "noteNumber": 78,
                "velocity": 88,
                "subtype": "noteOn"
            },
            {
                "deltaTime": 79,
                "channel": 0,
                "type": "channel",
                "noteNumber": 78,
                "velocity": 0,
                "subtype": "noteOff"
            },
            {
                "deltaTime": 0,
                "channel": 0,
                "type": "channel",
                "noteNumber": 74,
                "velocity": 0,
                "subtype": "noteOff"
            },
            {
                "deltaTime": 0,
                "channel": 0,
                "type": "channel",
                "noteNumber": 72,
                "velocity": 88,
                "subtype": "noteOn"
            },
            {
                "deltaTime": 0,
                "channel": 0,
                "type": "channel",
                "noteNumber": 76,
                "velocity": 88,
                "subtype": "noteOn"
            },
            {
                "deltaTime": 81,
                "channel": 0,
                "type": "channel",
                "noteNumber": 76,
                "velocity": 0,
                "subtype": "noteOff"
            },
            {
                "deltaTime": 0,
                "channel": 0,
                "type": "channel",
                "noteNumber": 72,
                "velocity": 0,
                "subtype": "noteOff"
            },
            {
                "deltaTime": 0,
                "channel": 0,
                "type": "channel",
                "noteNumber": 68,
                "velocity": 88,
                "subtype": "noteOn"
            },
            {
                "deltaTime": 0,
                "channel": 0,
                "type": "channel",
                "noteNumber": 74,
                "velocity": 88,
                "subtype": "noteOn"
            },
            {
                "deltaTime": 80,
                "channel": 0,
                "type": "channel",
                "noteNumber": 74,
                "velocity": 0,
                "subtype": "noteOff"
            },
            {
                "deltaTime": 0,
                "channel": 0,
                "type": "channel",
                "noteNumber": 68,
                "velocity": 0,
                "subtype": "noteOff"
            },
            {
                "deltaTime": 0,
                "channel": 0,
                "type": "channel",
                "noteNumber": 72,
                "velocity": 88,
                "subtype": "noteOn"
            },
            {
                "deltaTime": 0,
                "channel": 0,
                "type": "channel",
                "noteNumber": 76,
                "velocity": 88,
                "subtype": "noteOn"
            },
            {
                "deltaTime": 79,
                "channel": 0,
                "type": "channel",
                "noteNumber": 76,
                "velocity": 0,
                "subtype": "noteOff"
            },
            {
                "deltaTime": 0,
                "channel": 0,
                "type": "channel",
                "noteNumber": 72,
                "velocity": 0,
                "subtype": "noteOff"
            },
            {
                "deltaTime": 0,
                "channel": 0,
                "type": "channel",
                "noteNumber": 74,
                "velocity": 88,
                "subtype": "noteOn"
            },
            {
                "deltaTime": 0,
                "channel": 0,
                "type": "channel",
                "noteNumber": 78,
                "velocity": 88,
                "subtype": "noteOn"
            },
            {
                "deltaTime": 81,
                "channel": 0,
                "type": "channel",
                "noteNumber": 78,
                "velocity": 0,
                "subtype": "noteOff"
            },
            {
                "deltaTime": 0,
                "channel": 0,
                "type": "channel",
                "noteNumber": 74,
                "velocity": 0,
                "subtype": "noteOff"
            },
            {
                "deltaTime": 0,
                "channel": 0,
                "type": "channel",
                "subtype": "controller",
                "controllerType": 64,
                "value": 0
            },
            {
                "deltaTime": 0,
                "channel": 0,
                "type": "channel",
                "noteNumber": 76,
                "velocity": 88,
                "subtype": "noteOn"
            },
            {
                "deltaTime": 0,
                "channel": 0,
                "type": "channel",
                "noteNumber": 80,
                "velocity": 88,
                "subtype": "noteOn"
            },
            {
                "deltaTime": 240,
                "channel": 0,
                "type": "channel",
                "noteNumber": 80,
                "velocity": 0,
                "subtype": "noteOff"
            },
            {
                "deltaTime": 0,
                "channel": 0,
                "type": "channel",
                "noteNumber": 76,
                "velocity": 0,
                "subtype": "noteOff"
            },
            {
                "deltaTime": 1920,
                "channel": 0,
                "type": "channel",
                "subtype": "controller",
                "controllerType": 64,
                "value": 127
            },
            {
                "deltaTime": 0,
                "channel": 0,
                "type": "channel",
                "noteNumber": 80,
                "velocity": 88,
                "subtype": "noteOn"
            },
            {
                "deltaTime": 0,
                "channel": 0,
                "type": "channel",
                "noteNumber": 86,
                "velocity": 88,
                "subtype": "noteOn"
            },
            {
                "deltaTime": 120,
                "channel": 0,
                "type": "channel",
                "noteNumber": 86,
                "velocity": 0,
                "subtype": "noteOff"
            },
            {
                "deltaTime": 0,
                "channel": 0,
                "type": "channel",
                "noteNumber": 80,
                "velocity": 0,
                "subtype": "noteOff"
            },
            {
                "deltaTime": 0,
                "channel": 0,
                "type": "channel",
                "noteNumber": 79,
                "velocity": 88,
                "subtype": "noteOn"
            },
            {
                "deltaTime": 0,
                "channel": 0,
                "type": "channel",
                "noteNumber": 85,
                "velocity": 88,
                "subtype": "noteOn"
            },
            {
                "deltaTime": 120,
                "channel": 0,
                "type": "channel",
                "noteNumber": 85,
                "velocity": 0,
                "subtype": "noteOff"
            },
            {
                "deltaTime": 0,
                "channel": 0,
                "type": "channel",
                "noteNumber": 79,
                "velocity": 0,
                "subtype": "noteOff"
            },
            {
                "deltaTime": 0,
                "channel": 0,
                "type": "channel",
                "noteNumber": 78,
                "velocity": 88,
                "subtype": "noteOn"
            },
            {
                "deltaTime": 0,
                "channel": 0,
                "type": "channel",
                "noteNumber": 84,
                "velocity": 88,
                "subtype": "noteOn"
            },
            {
                "deltaTime": 120,
                "channel": 0,
                "type": "channel",
                "noteNumber": 84,
                "velocity": 0,
                "subtype": "noteOff"
            },
            {
                "deltaTime": 0,
                "channel": 0,
                "type": "channel",
                "noteNumber": 78,
                "velocity": 0,
                "subtype": "noteOff"
            },
            {
                "deltaTime": 0,
                "channel": 0,
                "type": "channel",
                "noteNumber": 77,
                "velocity": 88,
                "subtype": "noteOn"
            },
            {
                "deltaTime": 0,
                "channel": 0,
                "type": "channel",
                "noteNumber": 83,
                "velocity": 88,
                "subtype": "noteOn"
            },
            {
                "deltaTime": 120,
                "channel": 0,
                "type": "channel",
                "noteNumber": 83,
                "velocity": 0,
                "subtype": "noteOff"
            },
            {
                "deltaTime": 0,
                "channel": 0,
                "type": "channel",
                "noteNumber": 77,
                "velocity": 0,
                "subtype": "noteOff"
            },
            {
                "deltaTime": 0,
                "channel": 0,
                "type": "channel",
                "noteNumber": 76,
                "velocity": 88,
                "subtype": "noteOn"
            },
            {
                "deltaTime": 0,
                "channel": 0,
                "type": "channel",
                "noteNumber": 82,
                "velocity": 88,
                "subtype": "noteOn"
            },
            {
                "deltaTime": 120,
                "channel": 0,
                "type": "channel",
                "noteNumber": 82,
                "velocity": 0,
                "subtype": "noteOff"
            },
            {
                "deltaTime": 0,
                "channel": 0,
                "type": "channel",
                "noteNumber": 76,
                "velocity": 0,
                "subtype": "noteOff"
            },
            {
                "deltaTime": 0,
                "channel": 0,
                "type": "channel",
                "noteNumber": 75,
                "velocity": 88,
                "subtype": "noteOn"
            },
            {
                "deltaTime": 0,
                "channel": 0,
                "type": "channel",
                "noteNumber": 81,
                "velocity": 88,
                "subtype": "noteOn"
            },
            {
                "deltaTime": 120,
                "channel": 0,
                "type": "channel",
                "noteNumber": 81,
                "velocity": 0,
                "subtype": "noteOff"
            },
            {
                "deltaTime": 0,
                "channel": 0,
                "type": "channel",
                "noteNumber": 75,
                "velocity": 0,
                "subtype": "noteOff"
            },
            {
                "deltaTime": 0,
                "channel": 0,
                "type": "channel",
                "noteNumber": 74,
                "velocity": 88,
                "subtype": "noteOn"
            },
            {
                "deltaTime": 0,
                "channel": 0,
                "type": "channel",
                "noteNumber": 80,
                "velocity": 88,
                "subtype": "noteOn"
            },
            {
                "deltaTime": 120,
                "channel": 0,
                "type": "channel",
                "noteNumber": 80,
                "velocity": 0,
                "subtype": "noteOff"
            },
            {
                "deltaTime": 0,
                "channel": 0,
                "type": "channel",
                "noteNumber": 74,
                "velocity": 0,
                "subtype": "noteOff"
            },
            {
                "deltaTime": 0,
                "channel": 0,
                "type": "channel",
                "subtype": "controller",
                "controllerType": 64,
                "value": 0
            },
            {
                "deltaTime": 0,
                "channel": 0,
                "type": "channel",
                "noteNumber": 73,
                "velocity": 88,
                "subtype": "noteOn"
            },
            {
                "deltaTime": 0,
                "channel": 0,
                "type": "channel",
                "noteNumber": 79,
                "velocity": 88,
                "subtype": "noteOn"
            },
            {
                "deltaTime": 120,
                "channel": 0,
                "type": "channel",
                "noteNumber": 79,
                "velocity": 0,
                "subtype": "noteOff"
            },
            {
                "deltaTime": 0,
                "channel": 0,
                "type": "channel",
                "noteNumber": 73,
                "velocity": 0,
                "subtype": "noteOff"
            },
            {
                "deltaTime": 0,
                "channel": 0,
                "type": "channel",
                "noteNumber": 72,
                "velocity": 88,
                "subtype": "noteOn"
            },
            {
                "deltaTime": 0,
                "channel": 0,
                "type": "channel",
                "noteNumber": 80,
                "velocity": 88,
                "subtype": "noteOn"
            },
            {
                "deltaTime": 240,
                "channel": 0,
                "type": "channel",
                "noteNumber": 80,
                "velocity": 0,
                "subtype": "noteOff"
            },
            {
                "deltaTime": 0,
                "channel": 0,
                "type": "channel",
                "noteNumber": 72,
                "velocity": 0,
                "subtype": "noteOff"
            },
            {
                "deltaTime": 1920,
                "channel": 0,
                "type": "channel",
                "subtype": "controller",
                "controllerType": 64,
                "value": 127
            },
            {
                "deltaTime": 0,
                "channel": 0,
                "type": "channel",
                "noteNumber": 70,
                "velocity": 88,
                "subtype": "noteOn"
            },
            {
                "deltaTime": 0,
                "channel": 0,
                "type": "channel",
                "noteNumber": 74,
                "velocity": 88,
                "subtype": "noteOn"
            },
            {
                "deltaTime": 80,
                "channel": 0,
                "type": "channel",
                "noteNumber": 74,
                "velocity": 0,
                "subtype": "noteOff"
            },
            {
                "deltaTime": 0,
                "channel": 0,
                "type": "channel",
                "noteNumber": 70,
                "velocity": 0,
                "subtype": "noteOff"
            },
            {
                "deltaTime": 0,
                "channel": 0,
                "type": "channel",
                "noteNumber": 68,
                "velocity": 88,
                "subtype": "noteOn"
            },
            {
                "deltaTime": 0,
                "channel": 0,
                "type": "channel",
                "noteNumber": 72,
                "velocity": 88,
                "subtype": "noteOn"
            },
            {
                "deltaTime": 79,
                "channel": 0,
                "type": "channel",
                "noteNumber": 72,
                "velocity": 0,
                "subtype": "noteOff"
            },
            {
                "deltaTime": 0,
                "channel": 0,
                "type": "channel",
                "noteNumber": 68,
                "velocity": 0,
                "subtype": "noteOff"
            },
            {
                "deltaTime": 0,
                "channel": 0,
                "type": "channel",
                "noteNumber": 66,
                "velocity": 88,
                "subtype": "noteOn"
            },
            {
                "deltaTime": 0,
                "channel": 0,
                "type": "channel",
                "noteNumber": 70,
                "velocity": 88,
                "subtype": "noteOn"
            },
            {
                "deltaTime": 81,
                "channel": 0,
                "type": "channel",
                "noteNumber": 70,
                "velocity": 0,
                "subtype": "noteOff"
            },
            {
                "deltaTime": 0,
                "channel": 0,
                "type": "channel",
                "noteNumber": 66,
                "velocity": 0,
                "subtype": "noteOff"
            },
            {
                "deltaTime": 0,
                "channel": 0,
                "type": "channel",
                "noteNumber": 62,
                "velocity": 88,
                "subtype": "noteOn"
            },
            {
                "deltaTime": 0,
                "channel": 0,
                "type": "channel",
                "noteNumber": 68,
                "velocity": 88,
                "subtype": "noteOn"
            },
            {
                "deltaTime": 80,
                "channel": 0,
                "type": "channel",
                "noteNumber": 68,
                "velocity": 0,
                "subtype": "noteOff"
            },
            {
                "deltaTime": 0,
                "channel": 0,
                "type": "channel",
                "noteNumber": 62,
                "velocity": 0,
                "subtype": "noteOff"
            },
            {
                "deltaTime": 0,
                "channel": 0,
                "type": "channel",
                "noteNumber": 66,
                "velocity": 88,
                "subtype": "noteOn"
            },
            {
                "deltaTime": 0,
                "channel": 0,
                "type": "channel",
                "noteNumber": 70,
                "velocity": 88,
                "subtype": "noteOn"
            },
            {
                "deltaTime": 79,
                "channel": 0,
                "type": "channel",
                "noteNumber": 70,
                "velocity": 0,
                "subtype": "noteOff"
            },
            {
                "deltaTime": 0,
                "channel": 0,
                "type": "channel",
                "noteNumber": 66,
                "velocity": 0,
                "subtype": "noteOff"
            },
            {
                "deltaTime": 0,
                "channel": 0,
                "type": "channel",
                "noteNumber": 68,
                "velocity": 88,
                "subtype": "noteOn"
            },
            {
                "deltaTime": 0,
                "channel": 0,
                "type": "channel",
                "noteNumber": 72,
                "velocity": 88,
                "subtype": "noteOn"
            },
            {
                "deltaTime": 81,
                "channel": 0,
                "type": "channel",
                "noteNumber": 72,
                "velocity": 0,
                "subtype": "noteOff"
            },
            {
                "deltaTime": 0,
                "channel": 0,
                "type": "channel",
                "noteNumber": 68,
                "velocity": 0,
                "subtype": "noteOff"
            },
            {
                "deltaTime": 0,
                "channel": 0,
                "type": "channel",
                "subtype": "controller",
                "controllerType": 64,
                "value": 0
            },
            {
                "deltaTime": 0,
                "channel": 0,
                "type": "channel",
                "noteNumber": 70,
                "velocity": 88,
                "subtype": "noteOn"
            },
            {
                "deltaTime": 0,
                "channel": 0,
                "type": "channel",
                "noteNumber": 74,
                "velocity": 88,
                "subtype": "noteOn"
            },
            {
                "deltaTime": 240,
                "channel": 0,
                "type": "channel",
                "noteNumber": 74,
                "velocity": 0,
                "subtype": "noteOff"
            },
            {
                "deltaTime": 0,
                "channel": 0,
                "type": "channel",
                "noteNumber": 70,
                "velocity": 0,
                "subtype": "noteOff"
            },
            {
                "deltaTime": 0,
                "channel": 0,
                "type": "channel",
                "noteNumber": 82,
                "velocity": 88,
                "subtype": "noteOn"
            },
            {
                "deltaTime": 0,
                "channel": 0,
                "type": "channel",
                "noteNumber": 86,
                "velocity": 88,
                "subtype": "noteOn"
            },
            {
                "deltaTime": 23,
                "channel": 0,
                "type": "channel",
                "noteNumber": 86,
                "velocity": 0,
                "subtype": "noteOff"
            },
            {
                "deltaTime": 0,
                "channel": 0,
                "type": "channel",
                "noteNumber": 82,
                "velocity": 0,
                "subtype": "noteOff"
            },
            {
                "deltaTime": 97,
                "channel": 0,
                "type": "channel",
                "noteNumber": 81,
                "velocity": 88,
                "subtype": "noteOn"
            },
            {
                "deltaTime": 0,
                "channel": 0,
                "type": "channel",
                "noteNumber": 85,
                "velocity": 88,
                "subtype": "noteOn"
            },
            {
                "deltaTime": 23,
                "channel": 0,
                "type": "channel",
                "noteNumber": 85,
                "velocity": 0,
                "subtype": "noteOff"
            },
            {
                "deltaTime": 0,
                "channel": 0,
                "type": "channel",
                "noteNumber": 81,
                "velocity": 0,
                "subtype": "noteOff"
            },
            {
                "deltaTime": 97,
                "channel": 0,
                "type": "channel",
                "noteNumber": 82,
                "velocity": 88,
                "subtype": "noteOn"
            },
            {
                "deltaTime": 0,
                "channel": 0,
                "type": "channel",
                "noteNumber": 86,
                "velocity": 88,
                "subtype": "noteOn"
            },
            {
                "deltaTime": 23,
                "channel": 0,
                "type": "channel",
                "noteNumber": 86,
                "velocity": 0,
                "subtype": "noteOff"
            },
            {
                "deltaTime": 0,
                "channel": 0,
                "type": "channel",
                "noteNumber": 82,
                "velocity": 0,
                "subtype": "noteOff"
            },
            {
                "deltaTime": 97,
                "channel": 0,
                "type": "channel",
                "noteNumber": 83,
                "velocity": 88,
                "subtype": "noteOn"
            },
            {
                "deltaTime": 0,
                "channel": 0,
                "type": "channel",
                "noteNumber": 89,
                "velocity": 88,
                "subtype": "noteOn"
            },
            {
                "deltaTime": 23,
                "channel": 0,
                "type": "channel",
                "noteNumber": 89,
                "velocity": 0,
                "subtype": "noteOff"
            },
            {
                "deltaTime": 0,
                "channel": 0,
                "type": "channel",
                "noteNumber": 83,
                "velocity": 0,
                "subtype": "noteOff"
            },
            {
                "deltaTime": 97,
                "channel": 0,
                "type": "channel",
                "noteNumber": 82,
                "velocity": 88,
                "subtype": "noteOn"
            },
            {
                "deltaTime": 0,
                "channel": 0,
                "type": "channel",
                "noteNumber": 86,
                "velocity": 88,
                "subtype": "noteOn"
            },
            {
                "deltaTime": 23,
                "channel": 0,
                "type": "channel",
                "noteNumber": 86,
                "velocity": 0,
                "subtype": "noteOff"
            },
            {
                "deltaTime": 0,
                "channel": 0,
                "type": "channel",
                "noteNumber": 82,
                "velocity": 0,
                "subtype": "noteOff"
            },
            {
                "deltaTime": 97,
                "channel": 0,
                "type": "channel",
                "noteNumber": 81,
                "velocity": 88,
                "subtype": "noteOn"
            },
            {
                "deltaTime": 0,
                "channel": 0,
                "type": "channel",
                "noteNumber": 85,
                "velocity": 88,
                "subtype": "noteOn"
            },
            {
                "deltaTime": 23,
                "channel": 0,
                "type": "channel",
                "noteNumber": 85,
                "velocity": 0,
                "subtype": "noteOff"
            },
            {
                "deltaTime": 0,
                "channel": 0,
                "type": "channel",
                "noteNumber": 81,
                "velocity": 0,
                "subtype": "noteOff"
            },
            {
                "deltaTime": 97,
                "channel": 0,
                "type": "channel",
                "noteNumber": 82,
                "velocity": 75,
                "subtype": "noteOn"
            },
            {
                "deltaTime": 0,
                "channel": 0,
                "type": "channel",
                "noteNumber": 86,
                "velocity": 75,
                "subtype": "noteOn"
            },
            {
                "deltaTime": 47,
                "channel": 0,
                "type": "channel",
                "noteNumber": 86,
                "velocity": 0,
                "subtype": "noteOff"
            },
            {
                "deltaTime": 0,
                "channel": 0,
                "type": "channel",
                "noteNumber": 82,
                "velocity": 0,
                "subtype": "noteOff"
            },
            {
                "deltaTime": 673,
                "channel": 0,
                "type": "channel",
                "subtype": "controller",
                "controllerType": 64,
                "value": 127
            },
            {
                "deltaTime": 0,
                "channel": 0,
                "type": "channel",
                "noteNumber": 58,
                "velocity": 75,
                "subtype": "noteOn"
            },
            {
                "deltaTime": 0,
                "channel": 0,
                "type": "channel",
                "noteNumber": 62,
                "velocity": 75,
                "subtype": "noteOn"
            },
            {
                "deltaTime": 30,
                "channel": 0,
                "type": "channel",
                "noteNumber": 62,
                "velocity": 0,
                "subtype": "noteOff"
            },
            {
                "deltaTime": 0,
                "channel": 0,
                "type": "channel",
                "noteNumber": 58,
                "velocity": 0,
                "subtype": "noteOff"
            },
            {
                "deltaTime": 0,
                "channel": 0,
                "type": "channel",
                "noteNumber": 66,
                "velocity": 75,
                "subtype": "noteOn"
            },
            {
                "deltaTime": 30,
                "channel": 0,
                "type": "channel",
                "noteNumber": 66,
                "velocity": 0,
                "subtype": "noteOff"
            },
            {
                "deltaTime": 0,
                "channel": 0,
                "type": "channel",
                "noteNumber": 68,
                "velocity": 75,
                "subtype": "noteOn"
            },
            {
                "deltaTime": 30,
                "channel": 0,
                "type": "channel",
                "noteNumber": 68,
                "velocity": 0,
                "subtype": "noteOff"
            },
            {
                "deltaTime": 0,
                "channel": 0,
                "type": "channel",
                "noteNumber": 70,
                "velocity": 75,
                "subtype": "noteOn"
            },
            {
                "deltaTime": 30,
                "channel": 0,
                "type": "channel",
                "noteNumber": 70,
                "velocity": 0,
                "subtype": "noteOff"
            },
            {
                "deltaTime": 0,
                "channel": 0,
                "type": "channel",
                "noteNumber": 74,
                "velocity": 75,
                "subtype": "noteOn"
            },
            {
                "deltaTime": 30,
                "channel": 0,
                "type": "channel",
                "noteNumber": 74,
                "velocity": 0,
                "subtype": "noteOff"
            },
            {
                "deltaTime": 0,
                "channel": 0,
                "type": "channel",
                "noteNumber": 78,
                "velocity": 75,
                "subtype": "noteOn"
            },
            {
                "deltaTime": 30,
                "channel": 0,
                "type": "channel",
                "noteNumber": 78,
                "velocity": 0,
                "subtype": "noteOff"
            },
            {
                "deltaTime": 0,
                "channel": 0,
                "type": "channel",
                "noteNumber": 80,
                "velocity": 75,
                "subtype": "noteOn"
            },
            {
                "deltaTime": 30,
                "channel": 0,
                "type": "channel",
                "noteNumber": 80,
                "velocity": 0,
                "subtype": "noteOff"
            },
            {
                "deltaTime": 0,
                "channel": 0,
                "type": "channel",
                "noteNumber": 82,
                "velocity": 75,
                "subtype": "noteOn"
            },
            {
                "deltaTime": 30,
                "channel": 0,
                "type": "channel",
                "noteNumber": 82,
                "velocity": 0,
                "subtype": "noteOff"
            },
            {
                "deltaTime": 0,
                "channel": 0,
                "type": "channel",
                "noteNumber": 86,
                "velocity": 75,
                "subtype": "noteOn"
            },
            {
                "deltaTime": 60,
                "channel": 0,
                "type": "channel",
                "noteNumber": 86,
                "velocity": 0,
                "subtype": "noteOff"
            },
            {
                "deltaTime": 0,
                "channel": 0,
                "type": "channel",
                "noteNumber": 82,
                "velocity": 75,
                "subtype": "noteOn"
            },
            {
                "deltaTime": 60,
                "channel": 0,
                "type": "channel",
                "noteNumber": 82,
                "velocity": 0,
                "subtype": "noteOff"
            },
            {
                "deltaTime": 0,
                "channel": 0,
                "type": "channel",
                "noteNumber": 80,
                "velocity": 75,
                "subtype": "noteOn"
            },
            {
                "deltaTime": 60,
                "channel": 0,
                "type": "channel",
                "noteNumber": 80,
                "velocity": 0,
                "subtype": "noteOff"
            },
            {
                "deltaTime": 0,
                "channel": 0,
                "type": "channel",
                "noteNumber": 78,
                "velocity": 75,
                "subtype": "noteOn"
            },
            {
                "deltaTime": 60,
                "channel": 0,
                "type": "channel",
                "noteNumber": 78,
                "velocity": 0,
                "subtype": "noteOff"
            },
            {
                "deltaTime": 0,
                "channel": 0,
                "type": "channel",
                "noteNumber": 74,
                "velocity": 75,
                "subtype": "noteOn"
            },
            {
                "deltaTime": 47,
                "channel": 0,
                "type": "channel",
                "noteNumber": 74,
                "velocity": 0,
                "subtype": "noteOff"
            },
            {
                "deltaTime": 0,
                "channel": 0,
                "type": "channel",
                "noteNumber": 78,
                "velocity": 75,
                "subtype": "noteOn"
            },
            {
                "deltaTime": 49,
                "channel": 0,
                "type": "channel",
                "noteNumber": 78,
                "velocity": 0,
                "subtype": "noteOff"
            },
            {
                "deltaTime": 0,
                "channel": 0,
                "type": "channel",
                "noteNumber": 80,
                "velocity": 75,
                "subtype": "noteOn"
            },
            {
                "deltaTime": 47,
                "channel": 0,
                "type": "channel",
                "noteNumber": 80,
                "velocity": 0,
                "subtype": "noteOff"
            },
            {
                "deltaTime": 0,
                "channel": 0,
                "type": "channel",
                "noteNumber": 82,
                "velocity": 75,
                "subtype": "noteOn"
            },
            {
                "deltaTime": 49,
                "channel": 0,
                "type": "channel",
                "noteNumber": 82,
                "velocity": 0,
                "subtype": "noteOff"
            },
            {
                "deltaTime": 0,
                "channel": 0,
                "type": "channel",
                "subtype": "controller",
                "controllerType": 64,
                "value": 0
            },
            {
                "deltaTime": 0,
                "channel": 0,
                "type": "channel",
                "noteNumber": 86,
                "velocity": 75,
                "subtype": "noteOn"
            },
            {
                "deltaTime": 48,
                "channel": 0,
                "type": "channel",
                "noteNumber": 86,
                "velocity": 0,
                "subtype": "noteOff"
            },
            {
                "deltaTime": 0,
                "channel": 0,
                "type": "channel",
                "subtype": "controller",
                "controllerType": 64,
                "value": 127
            },
            {
                "deltaTime": 0,
                "channel": 0,
                "type": "channel",
                "noteNumber": 92,
                "velocity": 75,
                "subtype": "noteOn"
            },
            {
                "deltaTime": 80,
                "channel": 0,
                "type": "channel",
                "noteNumber": 92,
                "velocity": 0,
                "subtype": "noteOff"
            },
            {
                "deltaTime": 0,
                "channel": 0,
                "type": "channel",
                "noteNumber": 91,
                "velocity": 75,
                "subtype": "noteOn"
            },
            {
                "deltaTime": 79,
                "channel": 0,
                "type": "channel",
                "noteNumber": 91,
                "velocity": 0,
                "subtype": "noteOff"
            },
            {
                "deltaTime": 0,
                "channel": 0,
                "type": "channel",
                "noteNumber": 90,
                "velocity": 75,
                "subtype": "noteOn"
            },
            {
                "deltaTime": 81,
                "channel": 0,
                "type": "channel",
                "noteNumber": 90,
                "velocity": 0,
                "subtype": "noteOff"
            },
            {
                "deltaTime": 0,
                "channel": 0,
                "type": "channel",
                "noteNumber": 86,
                "velocity": 75,
                "subtype": "noteOn"
            },
            {
                "deltaTime": 80,
                "channel": 0,
                "type": "channel",
                "noteNumber": 86,
                "velocity": 0,
                "subtype": "noteOff"
            },
            {
                "deltaTime": 0,
                "channel": 0,
                "type": "channel",
                "noteNumber": 85,
                "velocity": 75,
                "subtype": "noteOn"
            },
            {
                "deltaTime": 79,
                "channel": 0,
                "type": "channel",
                "noteNumber": 85,
                "velocity": 0,
                "subtype": "noteOff"
            },
            {
                "deltaTime": 0,
                "channel": 0,
                "type": "channel",
                "noteNumber": 84,
                "velocity": 75,
                "subtype": "noteOn"
            },
            {
                "deltaTime": 81,
                "channel": 0,
                "type": "channel",
                "noteNumber": 84,
                "velocity": 0,
                "subtype": "noteOff"
            },
            {
                "deltaTime": 0,
                "channel": 0,
                "type": "channel",
                "noteNumber": 80,
                "velocity": 75,
                "subtype": "noteOn"
            },
            {
                "deltaTime": 80,
                "channel": 0,
                "type": "channel",
                "noteNumber": 80,
                "velocity": 0,
                "subtype": "noteOff"
            },
            {
                "deltaTime": 0,
                "channel": 0,
                "type": "channel",
                "noteNumber": 79,
                "velocity": 75,
                "subtype": "noteOn"
            },
            {
                "deltaTime": 79,
                "channel": 0,
                "type": "channel",
                "noteNumber": 79,
                "velocity": 0,
                "subtype": "noteOff"
            },
            {
                "deltaTime": 0,
                "channel": 0,
                "type": "channel",
                "subtype": "controller",
                "controllerType": 64,
                "value": 0
            },
            {
                "deltaTime": 0,
                "channel": 0,
                "type": "channel",
                "noteNumber": 78,
                "velocity": 75,
                "subtype": "noteOn"
            },
            {
                "deltaTime": 81,
                "channel": 0,
                "type": "channel",
                "noteNumber": 78,
                "velocity": 0,
                "subtype": "noteOff"
            },
            {
                "deltaTime": 0,
                "channel": 0,
                "type": "channel",
                "subtype": "controller",
                "controllerType": 64,
                "value": 127
            },
            {
                "deltaTime": 0,
                "channel": 0,
                "type": "channel",
                "noteNumber": 74,
                "velocity": 62,
                "subtype": "noteOn"
            },
            {
                "deltaTime": 60,
                "channel": 0,
                "type": "channel",
                "noteNumber": 74,
                "velocity": 0,
                "subtype": "noteOff"
            },
            {
                "deltaTime": 0,
                "channel": 0,
                "type": "channel",
                "noteNumber": 75,
                "velocity": 62,
                "subtype": "noteOn"
            },
            {
                "deltaTime": 60,
                "channel": 0,
                "type": "channel",
                "noteNumber": 75,
                "velocity": 0,
                "subtype": "noteOff"
            },
            {
                "deltaTime": 0,
                "channel": 0,
                "type": "channel",
                "noteNumber": 74,
                "velocity": 62,
                "subtype": "noteOn"
            },
            {
                "deltaTime": 60,
                "channel": 0,
                "type": "channel",
                "noteNumber": 74,
                "velocity": 0,
                "subtype": "noteOff"
            },
            {
                "deltaTime": 0,
                "channel": 0,
                "type": "channel",
                "noteNumber": 75,
                "velocity": 62,
                "subtype": "noteOn"
            },
            {
                "deltaTime": 60,
                "channel": 0,
                "type": "channel",
                "noteNumber": 75,
                "velocity": 0,
                "subtype": "noteOff"
            },
            {
                "deltaTime": 0,
                "channel": 0,
                "type": "channel",
                "noteNumber": 74,
                "velocity": 62,
                "subtype": "noteOn"
            },
            {
                "deltaTime": 60,
                "channel": 0,
                "type": "channel",
                "noteNumber": 74,
                "velocity": 0,
                "subtype": "noteOff"
            },
            {
                "deltaTime": 0,
                "channel": 0,
                "type": "channel",
                "noteNumber": 75,
                "velocity": 62,
                "subtype": "noteOn"
            },
            {
                "deltaTime": 60,
                "channel": 0,
                "type": "channel",
                "noteNumber": 75,
                "velocity": 0,
                "subtype": "noteOff"
            },
            {
                "deltaTime": 0,
                "channel": 0,
                "type": "channel",
                "noteNumber": 74,
                "velocity": 62,
                "subtype": "noteOn"
            },
            {
                "deltaTime": 60,
                "channel": 0,
                "type": "channel",
                "noteNumber": 74,
                "velocity": 0,
                "subtype": "noteOff"
            },
            {
                "deltaTime": 0,
                "channel": 0,
                "type": "channel",
                "noteNumber": 75,
                "velocity": 62,
                "subtype": "noteOn"
            },
            {
                "deltaTime": 60,
                "channel": 0,
                "type": "channel",
                "noteNumber": 75,
                "velocity": 0,
                "subtype": "noteOff"
            },
            {
                "deltaTime": 0,
                "channel": 0,
                "type": "channel",
                "noteNumber": 76,
                "velocity": 62,
                "subtype": "noteOn"
            },
            {
                "deltaTime": 60,
                "channel": 0,
                "type": "channel",
                "noteNumber": 76,
                "velocity": 0,
                "subtype": "noteOff"
            },
            {
                "deltaTime": 0,
                "channel": 0,
                "type": "channel",
                "noteNumber": 77,
                "velocity": 62,
                "subtype": "noteOn"
            },
            {
                "deltaTime": 60,
                "channel": 0,
                "type": "channel",
                "noteNumber": 77,
                "velocity": 0,
                "subtype": "noteOff"
            },
            {
                "deltaTime": 0,
                "channel": 0,
                "type": "channel",
                "noteNumber": 78,
                "velocity": 62,
                "subtype": "noteOn"
            },
            {
                "deltaTime": 60,
                "channel": 0,
                "type": "channel",
                "noteNumber": 78,
                "velocity": 0,
                "subtype": "noteOff"
            },
            {
                "deltaTime": 0,
                "channel": 0,
                "type": "channel",
                "subtype": "controller",
                "controllerType": 64,
                "value": 0
            },
            {
                "deltaTime": 0,
                "channel": 0,
                "type": "channel",
                "noteNumber": 79,
                "velocity": 62,
                "subtype": "noteOn"
            },
            {
                "deltaTime": 60,
                "channel": 0,
                "type": "channel",
                "noteNumber": 79,
                "velocity": 0,
                "subtype": "noteOff"
            },
            {
                "deltaTime": 240,
                "channel": 0,
                "type": "channel",
                "subtype": "controller",
                "controllerType": 64,
                "value": 127
            },
            {
                "deltaTime": 0,
                "channel": 0,
                "type": "channel",
                "noteNumber": 80,
                "velocity": 62,
                "subtype": "noteOn"
            },
            {
                "deltaTime": 80,
                "channel": 0,
                "type": "channel",
                "noteNumber": 80,
                "velocity": 0,
                "subtype": "noteOff"
            },
            {
                "deltaTime": 0,
                "channel": 0,
                "type": "channel",
                "noteNumber": 72,
                "velocity": 62,
                "subtype": "noteOn"
            },
            {
                "deltaTime": 79,
                "channel": 0,
                "type": "channel",
                "noteNumber": 72,
                "velocity": 0,
                "subtype": "noteOff"
            },
            {
                "deltaTime": 0,
                "channel": 0,
                "type": "channel",
                "noteNumber": 80,
                "velocity": 62,
                "subtype": "noteOn"
            },
            {
                "deltaTime": 81,
                "channel": 0,
                "type": "channel",
                "noteNumber": 80,
                "velocity": 0,
                "subtype": "noteOff"
            },
            {
                "deltaTime": 0,
                "channel": 0,
                "type": "channel",
                "noteNumber": 84,
                "velocity": 62,
                "subtype": "noteOn"
            },
            {
                "deltaTime": 80,
                "channel": 0,
                "type": "channel",
                "noteNumber": 84,
                "velocity": 0,
                "subtype": "noteOff"
            },
            {
                "deltaTime": 0,
                "channel": 0,
                "type": "channel",
                "noteNumber": 92,
                "velocity": 62,
                "subtype": "noteOn"
            },
            {
                "deltaTime": 79,
                "channel": 0,
                "type": "channel",
                "noteNumber": 92,
                "velocity": 0,
                "subtype": "noteOff"
            },
            {
                "deltaTime": 0,
                "channel": 0,
                "type": "channel",
                "subtype": "controller",
                "controllerType": 64,
                "value": 0
            },
            {
                "deltaTime": 0,
                "channel": 0,
                "type": "channel",
                "noteNumber": 96,
                "velocity": 62,
                "subtype": "noteOn"
            },
            {
                "deltaTime": 81,
                "channel": 0,
                "type": "channel",
                "noteNumber": 96,
                "velocity": 0,
                "subtype": "noteOff"
            },
            {
                "deltaTime": 240,
                "channel": 0,
                "type": "channel",
                "subtype": "controller",
                "controllerType": 64,
                "value": 127
            },
            {
                "deltaTime": 0,
                "channel": 0,
                "type": "channel",
                "noteNumber": 79,
                "velocity": 62,
                "subtype": "noteOn"
            },
            {
                "deltaTime": 80,
                "channel": 0,
                "type": "channel",
                "noteNumber": 79,
                "velocity": 0,
                "subtype": "noteOff"
            },
            {
                "deltaTime": 0,
                "channel": 0,
                "type": "channel",
                "noteNumber": 72,
                "velocity": 62,
                "subtype": "noteOn"
            },
            {
                "deltaTime": 79,
                "channel": 0,
                "type": "channel",
                "noteNumber": 72,
                "velocity": 0,
                "subtype": "noteOff"
            },
            {
                "deltaTime": 0,
                "channel": 0,
                "type": "channel",
                "noteNumber": 79,
                "velocity": 62,
                "subtype": "noteOn"
            },
            {
                "deltaTime": 81,
                "channel": 0,
                "type": "channel",
                "noteNumber": 79,
                "velocity": 0,
                "subtype": "noteOff"
            },
            {
                "deltaTime": 0,
                "channel": 0,
                "type": "channel",
                "noteNumber": 84,
                "velocity": 62,
                "subtype": "noteOn"
            },
            {
                "deltaTime": 80,
                "channel": 0,
                "type": "channel",
                "noteNumber": 84,
                "velocity": 0,
                "subtype": "noteOff"
            },
            {
                "deltaTime": 0,
                "channel": 0,
                "type": "channel",
                "noteNumber": 91,
                "velocity": 62,
                "subtype": "noteOn"
            },
            {
                "deltaTime": 79,
                "channel": 0,
                "type": "channel",
                "noteNumber": 91,
                "velocity": 0,
                "subtype": "noteOff"
            },
            {
                "deltaTime": 0,
                "channel": 0,
                "type": "channel",
                "subtype": "controller",
                "controllerType": 64,
                "value": 0
            },
            {
                "deltaTime": 0,
                "channel": 0,
                "type": "channel",
                "noteNumber": 96,
                "velocity": 62,
                "subtype": "noteOn"
            },
            {
                "deltaTime": 81,
                "channel": 0,
                "type": "channel",
                "noteNumber": 96,
                "velocity": 0,
                "subtype": "noteOff"
            },
            {
                "deltaTime": 0,
                "channel": 0,
                "type": "channel",
                "noteNumber": 89,
                "velocity": 62,
                "subtype": "noteOn"
            },
            {
                "deltaTime": 120,
                "channel": 0,
                "type": "channel",
                "noteNumber": 89,
                "velocity": 0,
                "subtype": "noteOff"
            },
            {
                "deltaTime": 0,
                "channel": 0,
                "type": "channel",
                "subtype": "controller",
                "controllerType": 64,
                "value": 127
            },
            {
                "deltaTime": 0,
                "channel": 0,
                "type": "channel",
                "noteNumber": 77,
                "velocity": 62,
                "subtype": "noteOn"
            },
            {
                "deltaTime": 120,
                "channel": 0,
                "type": "channel",
                "noteNumber": 77,
                "velocity": 0,
                "subtype": "noteOff"
            },
            {
                "deltaTime": 0,
                "channel": 0,
                "type": "channel",
                "noteNumber": 78,
                "velocity": 62,
                "subtype": "noteOn"
            },
            {
                "deltaTime": 80,
                "channel": 0,
                "type": "channel",
                "noteNumber": 78,
                "velocity": 0,
                "subtype": "noteOff"
            },
            {
                "deltaTime": 0,
                "channel": 0,
                "type": "channel",
                "noteNumber": 79,
                "velocity": 62,
                "subtype": "noteOn"
            },
            {
                "deltaTime": 79,
                "channel": 0,
                "type": "channel",
                "noteNumber": 79,
                "velocity": 0,
                "subtype": "noteOff"
            },
            {
                "deltaTime": 0,
                "channel": 0,
                "type": "channel",
                "noteNumber": 80,
                "velocity": 62,
                "subtype": "noteOn"
            },
            {
                "deltaTime": 81,
                "channel": 0,
                "type": "channel",
                "noteNumber": 80,
                "velocity": 0,
                "subtype": "noteOff"
            },
            {
                "deltaTime": 0,
                "channel": 0,
                "type": "channel",
                "noteNumber": 81,
                "velocity": 62,
                "subtype": "noteOn"
            },
            {
                "deltaTime": 80,
                "channel": 0,
                "type": "channel",
                "noteNumber": 81,
                "velocity": 0,
                "subtype": "noteOff"
            },
            {
                "deltaTime": 0,
                "channel": 0,
                "type": "channel",
                "noteNumber": 82,
                "velocity": 62,
                "subtype": "noteOn"
            },
            {
                "deltaTime": 79,
                "channel": 0,
                "type": "channel",
                "noteNumber": 82,
                "velocity": 0,
                "subtype": "noteOff"
            },
            {
                "deltaTime": 0,
                "channel": 0,
                "type": "channel",
                "subtype": "controller",
                "controllerType": 64,
                "value": 0
            },
            {
                "deltaTime": 0,
                "channel": 0,
                "type": "channel",
                "noteNumber": 83,
                "velocity": 62,
                "subtype": "noteOn"
            },
            {
                "deltaTime": 81,
                "channel": 0,
                "type": "channel",
                "noteNumber": 83,
                "velocity": 0,
                "subtype": "noteOff"
            },
            {
                "deltaTime": 0,
                "channel": 0,
                "type": "channel",
                "subtype": "controller",
                "controllerType": 64,
                "value": 127
            },
            {
                "deltaTime": 0,
                "channel": 0,
                "type": "channel",
                "noteNumber": 84,
                "velocity": 75,
                "subtype": "noteOn"
            },
            {
                "deltaTime": 80,
                "channel": 0,
                "type": "channel",
                "noteNumber": 84,
                "velocity": 0,
                "subtype": "noteOff"
            },
            {
                "deltaTime": 0,
                "channel": 0,
                "type": "channel",
                "noteNumber": 90,
                "velocity": 75,
                "subtype": "noteOn"
            },
            {
                "deltaTime": 79,
                "channel": 0,
                "type": "channel",
                "noteNumber": 90,
                "velocity": 0,
                "subtype": "noteOff"
            },
            {
                "deltaTime": 0,
                "channel": 0,
                "type": "channel",
                "noteNumber": 86,
                "velocity": 75,
                "subtype": "noteOn"
            },
            {
                "deltaTime": 81,
                "channel": 0,
                "type": "channel",
                "noteNumber": 86,
                "velocity": 0,
                "subtype": "noteOff"
            },
            {
                "deltaTime": 0,
                "channel": 0,
                "type": "channel",
                "noteNumber": 83,
                "velocity": 75,
                "subtype": "noteOn"
            },
            {
                "deltaTime": 80,
                "channel": 0,
                "type": "channel",
                "noteNumber": 83,
                "velocity": 0,
                "subtype": "noteOff"
            },
            {
                "deltaTime": 0,
                "channel": 0,
                "type": "channel",
                "noteNumber": 90,
                "velocity": 75,
                "subtype": "noteOn"
            },
            {
                "deltaTime": 79,
                "channel": 0,
                "type": "channel",
                "noteNumber": 90,
                "velocity": 0,
                "subtype": "noteOff"
            },
            {
                "deltaTime": 0,
                "channel": 0,
                "type": "channel",
                "subtype": "controller",
                "controllerType": 64,
                "value": 0
            },
            {
                "deltaTime": 0,
                "channel": 0,
                "type": "channel",
                "noteNumber": 86,
                "velocity": 75,
                "subtype": "noteOn"
            },
            {
                "deltaTime": 81,
                "channel": 0,
                "type": "channel",
                "noteNumber": 86,
                "velocity": 0,
                "subtype": "noteOff"
            },
            {
                "deltaTime": 0,
                "channel": 0,
                "type": "channel",
                "subtype": "controller",
                "controllerType": 64,
                "value": 127
            },
            {
                "deltaTime": 0,
                "channel": 0,
                "type": "channel",
                "noteNumber": 74,
                "velocity": 75,
                "subtype": "noteOn"
            },
            {
                "deltaTime": 0,
                "channel": 0,
                "type": "channel",
                "noteNumber": 82,
                "velocity": 75,
                "subtype": "noteOn"
            },
            {
                "deltaTime": 60,
                "channel": 0,
                "type": "channel",
                "noteNumber": 82,
                "velocity": 0,
                "subtype": "noteOff"
            },
            {
                "deltaTime": 0,
                "channel": 0,
                "type": "channel",
                "noteNumber": 74,
                "velocity": 0,
                "subtype": "noteOff"
            },
            {
                "deltaTime": 0,
                "channel": 0,
                "type": "channel",
                "noteNumber": 75,
                "velocity": 75,
                "subtype": "noteOn"
            },
            {
                "deltaTime": 60,
                "channel": 0,
                "type": "channel",
                "noteNumber": 75,
                "velocity": 0,
                "subtype": "noteOff"
            },
            {
                "deltaTime": 0,
                "channel": 0,
                "type": "channel",
                "noteNumber": 76,
                "velocity": 75,
                "subtype": "noteOn"
            },
            {
                "deltaTime": 60,
                "channel": 0,
                "type": "channel",
                "noteNumber": 76,
                "velocity": 0,
                "subtype": "noteOff"
            },
            {
                "deltaTime": 0,
                "channel": 0,
                "type": "channel",
                "subtype": "controller",
                "controllerType": 64,
                "value": 0
            },
            {
                "deltaTime": 0,
                "channel": 0,
                "type": "channel",
                "noteNumber": 77,
                "velocity": 75,
                "subtype": "noteOn"
            },
            {
                "deltaTime": 60,
                "channel": 0,
                "type": "channel",
                "noteNumber": 77,
                "velocity": 0,
                "subtype": "noteOff"
            },
            {
                "deltaTime": 0,
                "channel": 0,
                "type": "channel",
                "noteNumber": 78,
                "velocity": 75,
                "subtype": "noteOn"
            },
            {
                "deltaTime": 60,
                "channel": 0,
                "type": "channel",
                "noteNumber": 78,
                "velocity": 0,
                "subtype": "noteOff"
            },
            {
                "deltaTime": 0,
                "channel": 0,
                "type": "channel",
                "noteNumber": 80,
                "velocity": 75,
                "subtype": "noteOn"
            },
            {
                "deltaTime": 60,
                "channel": 0,
                "type": "channel",
                "noteNumber": 80,
                "velocity": 0,
                "subtype": "noteOff"
            },
            {
                "deltaTime": 0,
                "channel": 0,
                "type": "channel",
                "noteNumber": 78,
                "velocity": 75,
                "subtype": "noteOn"
            },
            {
                "deltaTime": 60,
                "channel": 0,
                "type": "channel",
                "noteNumber": 78,
                "velocity": 0,
                "subtype": "noteOff"
            },
            {
                "deltaTime": 0,
                "channel": 0,
                "type": "channel",
                "noteNumber": 80,
                "velocity": 75,
                "subtype": "noteOn"
            },
            {
                "deltaTime": 60,
                "channel": 0,
                "type": "channel",
                "noteNumber": 80,
                "velocity": 0,
                "subtype": "noteOff"
            },
            {
                "deltaTime": 0,
                "channel": 0,
                "type": "channel",
                "noteNumber": 78,
                "velocity": 75,
                "subtype": "noteOn"
            },
            {
                "deltaTime": 60,
                "channel": 0,
                "type": "channel",
                "noteNumber": 78,
                "velocity": 0,
                "subtype": "noteOff"
            },
            {
                "deltaTime": 0,
                "channel": 0,
                "type": "channel",
                "noteNumber": 80,
                "velocity": 75,
                "subtype": "noteOn"
            },
            {
                "deltaTime": 60,
                "channel": 0,
                "type": "channel",
                "noteNumber": 80,
                "velocity": 0,
                "subtype": "noteOff"
            },
            {
                "deltaTime": 0,
                "channel": 0,
                "type": "channel",
                "noteNumber": 78,
                "velocity": 75,
                "subtype": "noteOn"
            },
            {
                "deltaTime": 60,
                "channel": 0,
                "type": "channel",
                "noteNumber": 78,
                "velocity": 0,
                "subtype": "noteOff"
            },
            {
                "deltaTime": 0,
                "channel": 0,
                "type": "channel",
                "noteNumber": 80,
                "velocity": 75,
                "subtype": "noteOn"
            },
            {
                "deltaTime": 60,
                "channel": 0,
                "type": "channel",
                "noteNumber": 80,
                "velocity": 0,
                "subtype": "noteOff"
            },
            {
                "deltaTime": 0,
                "channel": 0,
                "type": "channel",
                "subtype": "controller",
                "controllerType": 64,
                "value": 127
            },
            {
                "deltaTime": 0,
                "channel": 0,
                "type": "channel",
                "noteNumber": 78,
                "velocity": 75,
                "subtype": "noteOn"
            },
            {
                "deltaTime": 60,
                "channel": 0,
                "type": "channel",
                "noteNumber": 78,
                "velocity": 0,
                "subtype": "noteOff"
            },
            {
                "deltaTime": 0,
                "channel": 0,
                "type": "channel",
                "noteNumber": 80,
                "velocity": 75,
                "subtype": "noteOn"
            },
            {
                "deltaTime": 60,
                "channel": 0,
                "type": "channel",
                "noteNumber": 80,
                "velocity": 0,
                "subtype": "noteOff"
            },
            {
                "deltaTime": 0,
                "channel": 0,
                "type": "channel",
                "noteNumber": 83,
                "velocity": 75,
                "subtype": "noteOn"
            },
            {
                "deltaTime": 60,
                "channel": 0,
                "type": "channel",
                "noteNumber": 83,
                "velocity": 0,
                "subtype": "noteOff"
            },
            {
                "deltaTime": 0,
                "channel": 0,
                "type": "channel",
                "noteNumber": 86,
                "velocity": 75,
                "subtype": "noteOn"
            },
            {
                "deltaTime": 60,
                "channel": 0,
                "type": "channel",
                "noteNumber": 86,
                "velocity": 0,
                "subtype": "noteOff"
            },
            {
                "deltaTime": 0,
                "channel": 0,
                "type": "channel",
                "subtype": "controller",
                "controllerType": 64,
                "value": 0
            },
            {
                "deltaTime": 0,
                "channel": 0,
                "type": "channel",
                "noteNumber": 90,
                "velocity": 75,
                "subtype": "noteOn"
            },
            {
                "deltaTime": 240,
                "channel": 0,
                "type": "channel",
                "noteNumber": 90,
                "velocity": 0,
                "subtype": "noteOff"
            },
            {
                "deltaTime": 0,
                "channel": 0,
                "type": "channel",
                "subtype": "controller",
                "controllerType": 64,
                "value": 127
            },
            {
                "deltaTime": 0,
                "channel": 0,
                "type": "channel",
                "noteNumber": 78,
                "velocity": 75,
                "subtype": "noteOn"
            },
            {
                "deltaTime": 60,
                "channel": 0,
                "type": "channel",
                "noteNumber": 78,
                "velocity": 0,
                "subtype": "noteOff"
            },
            {
                "deltaTime": 0,
                "channel": 0,
                "type": "channel",
                "noteNumber": 80,
                "velocity": 75,
                "subtype": "noteOn"
            },
            {
                "deltaTime": 60,
                "channel": 0,
                "type": "channel",
                "noteNumber": 80,
                "velocity": 0,
                "subtype": "noteOff"
            },
            {
                "deltaTime": 0,
                "channel": 0,
                "type": "channel",
                "noteNumber": 84,
                "velocity": 75,
                "subtype": "noteOn"
            },
            {
                "deltaTime": 60,
                "channel": 0,
                "type": "channel",
                "noteNumber": 84,
                "velocity": 0,
                "subtype": "noteOff"
            },
            {
                "deltaTime": 0,
                "channel": 0,
                "type": "channel",
                "noteNumber": 86,
                "velocity": 75,
                "subtype": "noteOn"
            },
            {
                "deltaTime": 60,
                "channel": 0,
                "type": "channel",
                "noteNumber": 86,
                "velocity": 0,
                "subtype": "noteOff"
            },
            {
                "deltaTime": 0,
                "channel": 0,
                "type": "channel",
                "subtype": "controller",
                "controllerType": 64,
                "value": 0
            },
            {
                "deltaTime": 0,
                "channel": 0,
                "type": "channel",
                "noteNumber": 90,
                "velocity": 75,
                "subtype": "noteOn"
            },
            {
                "deltaTime": 240,
                "channel": 0,
                "type": "channel",
                "noteNumber": 90,
                "velocity": 0,
                "subtype": "noteOff"
            },
            {
                "deltaTime": 720,
                "channel": 0,
                "type": "channel",
                "subtype": "controller",
                "controllerType": 64,
                "value": 127
            },
            {
                "deltaTime": 0,
                "channel": 0,
                "type": "channel",
                "noteNumber": 77,
                "velocity": 62,
                "subtype": "noteOn"
            },
            {
                "deltaTime": 60,
                "channel": 0,
                "type": "channel",
                "noteNumber": 77,
                "velocity": 0,
                "subtype": "noteOff"
            },
            {
                "deltaTime": 0,
                "channel": 0,
                "type": "channel",
                "noteNumber": 78,
                "velocity": 62,
                "subtype": "noteOn"
            },
            {
                "deltaTime": 60,
                "channel": 0,
                "type": "channel",
                "noteNumber": 78,
                "velocity": 0,
                "subtype": "noteOff"
            },
            {
                "deltaTime": 0,
                "channel": 0,
                "type": "channel",
                "noteNumber": 77,
                "velocity": 62,
                "subtype": "noteOn"
            },
            {
                "deltaTime": 60,
                "channel": 0,
                "type": "channel",
                "noteNumber": 77,
                "velocity": 0,
                "subtype": "noteOff"
            },
            {
                "deltaTime": 0,
                "channel": 0,
                "type": "channel",
                "noteNumber": 78,
                "velocity": 62,
                "subtype": "noteOn"
            },
            {
                "deltaTime": 60,
                "channel": 0,
                "type": "channel",
                "noteNumber": 78,
                "velocity": 0,
                "subtype": "noteOff"
            },
            {
                "deltaTime": 0,
                "channel": 0,
                "type": "channel",
                "noteNumber": 77,
                "velocity": 62,
                "subtype": "noteOn"
            },
            {
                "deltaTime": 60,
                "channel": 0,
                "type": "channel",
                "noteNumber": 77,
                "velocity": 0,
                "subtype": "noteOff"
            },
            {
                "deltaTime": 0,
                "channel": 0,
                "type": "channel",
                "noteNumber": 78,
                "velocity": 62,
                "subtype": "noteOn"
            },
            {
                "deltaTime": 60,
                "channel": 0,
                "type": "channel",
                "noteNumber": 78,
                "velocity": 0,
                "subtype": "noteOff"
            },
            {
                "deltaTime": 0,
                "channel": 0,
                "type": "channel",
                "noteNumber": 77,
                "velocity": 62,
                "subtype": "noteOn"
            },
            {
                "deltaTime": 60,
                "channel": 0,
                "type": "channel",
                "noteNumber": 77,
                "velocity": 0,
                "subtype": "noteOff"
            },
            {
                "deltaTime": 0,
                "channel": 0,
                "type": "channel",
                "noteNumber": 78,
                "velocity": 62,
                "subtype": "noteOn"
            },
            {
                "deltaTime": 60,
                "channel": 0,
                "type": "channel",
                "noteNumber": 78,
                "velocity": 0,
                "subtype": "noteOff"
            },
            {
                "deltaTime": 0,
                "channel": 0,
                "type": "channel",
                "noteNumber": 79,
                "velocity": 62,
                "subtype": "noteOn"
            },
            {
                "deltaTime": 60,
                "channel": 0,
                "type": "channel",
                "noteNumber": 79,
                "velocity": 0,
                "subtype": "noteOff"
            },
            {
                "deltaTime": 0,
                "channel": 0,
                "type": "channel",
                "noteNumber": 80,
                "velocity": 62,
                "subtype": "noteOn"
            },
            {
                "deltaTime": 60,
                "channel": 0,
                "type": "channel",
                "noteNumber": 80,
                "velocity": 0,
                "subtype": "noteOff"
            },
            {
                "deltaTime": 0,
                "channel": 0,
                "type": "channel",
                "noteNumber": 81,
                "velocity": 62,
                "subtype": "noteOn"
            },
            {
                "deltaTime": 60,
                "channel": 0,
                "type": "channel",
                "noteNumber": 81,
                "velocity": 0,
                "subtype": "noteOff"
            },
            {
                "deltaTime": 0,
                "channel": 0,
                "type": "channel",
                "subtype": "controller",
                "controllerType": 64,
                "value": 0
            },
            {
                "deltaTime": 0,
                "channel": 0,
                "type": "channel",
                "noteNumber": 82,
                "velocity": 62,
                "subtype": "noteOn"
            },
            {
                "deltaTime": 60,
                "channel": 0,
                "type": "channel",
                "noteNumber": 82,
                "velocity": 0,
                "subtype": "noteOff"
            },
            {
                "deltaTime": 240,
                "channel": 0,
                "type": "channel",
                "subtype": "controller",
                "controllerType": 64,
                "value": 127
            },
            {
                "deltaTime": 0,
                "channel": 0,
                "type": "channel",
                "noteNumber": 83,
                "velocity": 62,
                "subtype": "noteOn"
            },
            {
                "deltaTime": 80,
                "channel": 0,
                "type": "channel",
                "noteNumber": 83,
                "velocity": 0,
                "subtype": "noteOff"
            },
            {
                "deltaTime": 0,
                "channel": 0,
                "type": "channel",
                "noteNumber": 75,
                "velocity": 62,
                "subtype": "noteOn"
            },
            {
                "deltaTime": 79,
                "channel": 0,
                "type": "channel",
                "noteNumber": 75,
                "velocity": 0,
                "subtype": "noteOff"
            },
            {
                "deltaTime": 0,
                "channel": 0,
                "type": "channel",
                "noteNumber": 83,
                "velocity": 62,
                "subtype": "noteOn"
            },
            {
                "deltaTime": 81,
                "channel": 0,
                "type": "channel",
                "noteNumber": 83,
                "velocity": 0,
                "subtype": "noteOff"
            },
            {
                "deltaTime": 0,
                "channel": 0,
                "type": "channel",
                "noteNumber": 87,
                "velocity": 62,
                "subtype": "noteOn"
            },
            {
                "deltaTime": 80,
                "channel": 0,
                "type": "channel",
                "noteNumber": 87,
                "velocity": 0,
                "subtype": "noteOff"
            },
            {
                "deltaTime": 0,
                "channel": 0,
                "type": "channel",
                "noteNumber": 95,
                "velocity": 62,
                "subtype": "noteOn"
            },
            {
                "deltaTime": 79,
                "channel": 0,
                "type": "channel",
                "noteNumber": 95,
                "velocity": 0,
                "subtype": "noteOff"
            },
            {
                "deltaTime": 0,
                "channel": 0,
                "type": "channel",
                "subtype": "controller",
                "controllerType": 64,
                "value": 0
            },
            {
                "deltaTime": 0,
                "channel": 0,
                "type": "channel",
                "noteNumber": 99,
                "velocity": 62,
                "subtype": "noteOn"
            },
            {
                "deltaTime": 81,
                "channel": 0,
                "type": "channel",
                "noteNumber": 99,
                "velocity": 0,
                "subtype": "noteOff"
            },
            {
                "deltaTime": 240,
                "channel": 0,
                "type": "channel",
                "subtype": "controller",
                "controllerType": 64,
                "value": 127
            },
            {
                "deltaTime": 0,
                "channel": 0,
                "type": "channel",
                "noteNumber": 82,
                "velocity": 62,
                "subtype": "noteOn"
            },
            {
                "deltaTime": 80,
                "channel": 0,
                "type": "channel",
                "noteNumber": 82,
                "velocity": 0,
                "subtype": "noteOff"
            },
            {
                "deltaTime": 0,
                "channel": 0,
                "type": "channel",
                "noteNumber": 75,
                "velocity": 62,
                "subtype": "noteOn"
            },
            {
                "deltaTime": 79,
                "channel": 0,
                "type": "channel",
                "noteNumber": 75,
                "velocity": 0,
                "subtype": "noteOff"
            },
            {
                "deltaTime": 0,
                "channel": 0,
                "type": "channel",
                "noteNumber": 82,
                "velocity": 62,
                "subtype": "noteOn"
            },
            {
                "deltaTime": 81,
                "channel": 0,
                "type": "channel",
                "noteNumber": 82,
                "velocity": 0,
                "subtype": "noteOff"
            },
            {
                "deltaTime": 0,
                "channel": 0,
                "type": "channel",
                "noteNumber": 87,
                "velocity": 62,
                "subtype": "noteOn"
            },
            {
                "deltaTime": 80,
                "channel": 0,
                "type": "channel",
                "noteNumber": 87,
                "velocity": 0,
                "subtype": "noteOff"
            },
            {
                "deltaTime": 0,
                "channel": 0,
                "type": "channel",
                "noteNumber": 94,
                "velocity": 62,
                "subtype": "noteOn"
            },
            {
                "deltaTime": 79,
                "channel": 0,
                "type": "channel",
                "noteNumber": 94,
                "velocity": 0,
                "subtype": "noteOff"
            },
            {
                "deltaTime": 0,
                "channel": 0,
                "type": "channel",
                "subtype": "controller",
                "controllerType": 64,
                "value": 0
            },
            {
                "deltaTime": 0,
                "channel": 0,
                "type": "channel",
                "noteNumber": 99,
                "velocity": 62,
                "subtype": "noteOn"
            },
            {
                "deltaTime": 81,
                "channel": 0,
                "type": "channel",
                "noteNumber": 99,
                "velocity": 0,
                "subtype": "noteOff"
            },
            {
                "deltaTime": 0,
                "channel": 0,
                "type": "channel",
                "noteNumber": 92,
                "velocity": 62,
                "subtype": "noteOn"
            },
            {
                "deltaTime": 120,
                "channel": 0,
                "type": "channel",
                "noteNumber": 92,
                "velocity": 0,
                "subtype": "noteOff"
            },
            {
                "deltaTime": 0,
                "channel": 0,
                "type": "channel",
                "subtype": "controller",
                "controllerType": 64,
                "value": 127
            },
            {
                "deltaTime": 0,
                "channel": 0,
                "type": "channel",
                "noteNumber": 80,
                "velocity": 62,
                "subtype": "noteOn"
            },
            {
                "deltaTime": 120,
                "channel": 0,
                "type": "channel",
                "noteNumber": 80,
                "velocity": 0,
                "subtype": "noteOff"
            },
            {
                "deltaTime": 0,
                "channel": 0,
                "type": "channel",
                "noteNumber": 81,
                "velocity": 62,
                "subtype": "noteOn"
            },
            {
                "deltaTime": 80,
                "channel": 0,
                "type": "channel",
                "noteNumber": 81,
                "velocity": 0,
                "subtype": "noteOff"
            },
            {
                "deltaTime": 0,
                "channel": 0,
                "type": "channel",
                "noteNumber": 82,
                "velocity": 62,
                "subtype": "noteOn"
            },
            {
                "deltaTime": 79,
                "channel": 0,
                "type": "channel",
                "noteNumber": 82,
                "velocity": 0,
                "subtype": "noteOff"
            },
            {
                "deltaTime": 0,
                "channel": 0,
                "type": "channel",
                "noteNumber": 83,
                "velocity": 62,
                "subtype": "noteOn"
            },
            {
                "deltaTime": 81,
                "channel": 0,
                "type": "channel",
                "noteNumber": 83,
                "velocity": 0,
                "subtype": "noteOff"
            },
            {
                "deltaTime": 0,
                "channel": 0,
                "type": "channel",
                "noteNumber": 84,
                "velocity": 62,
                "subtype": "noteOn"
            },
            {
                "deltaTime": 80,
                "channel": 0,
                "type": "channel",
                "noteNumber": 84,
                "velocity": 0,
                "subtype": "noteOff"
            },
            {
                "deltaTime": 0,
                "channel": 0,
                "type": "channel",
                "noteNumber": 85,
                "velocity": 62,
                "subtype": "noteOn"
            },
            {
                "deltaTime": 79,
                "channel": 0,
                "type": "channel",
                "noteNumber": 85,
                "velocity": 0,
                "subtype": "noteOff"
            },
            {
                "deltaTime": 0,
                "channel": 0,
                "type": "channel",
                "subtype": "controller",
                "controllerType": 64,
                "value": 0
            },
            {
                "deltaTime": 0,
                "channel": 0,
                "type": "channel",
                "noteNumber": 86,
                "velocity": 62,
                "subtype": "noteOn"
            },
            {
                "deltaTime": 81,
                "channel": 0,
                "type": "channel",
                "noteNumber": 86,
                "velocity": 0,
                "subtype": "noteOff"
            },
            {
                "deltaTime": 0,
                "channel": 0,
                "type": "channel",
                "subtype": "controller",
                "controllerType": 64,
                "value": 127
            },
            {
                "deltaTime": 0,
                "channel": 0,
                "type": "channel",
                "noteNumber": 87,
                "velocity": 75,
                "subtype": "noteOn"
            },
            {
                "deltaTime": 80,
                "channel": 0,
                "type": "channel",
                "noteNumber": 87,
                "velocity": 0,
                "subtype": "noteOff"
            },
            {
                "deltaTime": 0,
                "channel": 0,
                "type": "channel",
                "noteNumber": 93,
                "velocity": 75,
                "subtype": "noteOn"
            },
            {
                "deltaTime": 79,
                "channel": 0,
                "type": "channel",
                "noteNumber": 93,
                "velocity": 0,
                "subtype": "noteOff"
            },
            {
                "deltaTime": 0,
                "channel": 0,
                "type": "channel",
                "noteNumber": 89,
                "velocity": 75,
                "subtype": "noteOn"
            },
            {
                "deltaTime": 81,
                "channel": 0,
                "type": "channel",
                "noteNumber": 89,
                "velocity": 0,
                "subtype": "noteOff"
            },
            {
                "deltaTime": 0,
                "channel": 0,
                "type": "channel",
                "noteNumber": 86,
                "velocity": 75,
                "subtype": "noteOn"
            },
            {
                "deltaTime": 80,
                "channel": 0,
                "type": "channel",
                "noteNumber": 86,
                "velocity": 0,
                "subtype": "noteOff"
            },
            {
                "deltaTime": 0,
                "channel": 0,
                "type": "channel",
                "noteNumber": 93,
                "velocity": 75,
                "subtype": "noteOn"
            },
            {
                "deltaTime": 79,
                "channel": 0,
                "type": "channel",
                "noteNumber": 93,
                "velocity": 0,
                "subtype": "noteOff"
            },
            {
                "deltaTime": 0,
                "channel": 0,
                "type": "channel",
                "subtype": "controller",
                "controllerType": 64,
                "value": 0
            },
            {
                "deltaTime": 0,
                "channel": 0,
                "type": "channel",
                "noteNumber": 89,
                "velocity": 75,
                "subtype": "noteOn"
            },
            {
                "deltaTime": 81,
                "channel": 0,
                "type": "channel",
                "noteNumber": 89,
                "velocity": 0,
                "subtype": "noteOff"
            },
            {
                "deltaTime": 0,
                "channel": 0,
                "type": "channel",
                "subtype": "controller",
                "controllerType": 64,
                "value": 127
            },
            {
                "deltaTime": 0,
                "channel": 0,
                "type": "channel",
                "noteNumber": 77,
                "velocity": 75,
                "subtype": "noteOn"
            },
            {
                "deltaTime": 0,
                "channel": 0,
                "type": "channel",
                "noteNumber": 85,
                "velocity": 75,
                "subtype": "noteOn"
            },
            {
                "deltaTime": 60,
                "channel": 0,
                "type": "channel",
                "noteNumber": 85,
                "velocity": 0,
                "subtype": "noteOff"
            },
            {
                "deltaTime": 0,
                "channel": 0,
                "type": "channel",
                "noteNumber": 77,
                "velocity": 0,
                "subtype": "noteOff"
            },
            {
                "deltaTime": 0,
                "channel": 0,
                "type": "channel",
                "noteNumber": 78,
                "velocity": 75,
                "subtype": "noteOn"
            },
            {
                "deltaTime": 60,
                "channel": 0,
                "type": "channel",
                "noteNumber": 78,
                "velocity": 0,
                "subtype": "noteOff"
            },
            {
                "deltaTime": 0,
                "channel": 0,
                "type": "channel",
                "noteNumber": 79,
                "velocity": 75,
                "subtype": "noteOn"
            },
            {
                "deltaTime": 60,
                "channel": 0,
                "type": "channel",
                "noteNumber": 79,
                "velocity": 0,
                "subtype": "noteOff"
            },
            {
                "deltaTime": 0,
                "channel": 0,
                "type": "channel",
                "subtype": "controller",
                "controllerType": 64,
                "value": 0
            },
            {
                "deltaTime": 0,
                "channel": 0,
                "type": "channel",
                "noteNumber": 80,
                "velocity": 75,
                "subtype": "noteOn"
            },
            {
                "deltaTime": 60,
                "channel": 0,
                "type": "channel",
                "noteNumber": 80,
                "velocity": 0,
                "subtype": "noteOff"
            },
            {
                "deltaTime": 0,
                "channel": 0,
                "type": "channel",
                "noteNumber": 81,
                "velocity": 75,
                "subtype": "noteOn"
            },
            {
                "deltaTime": 60,
                "channel": 0,
                "type": "channel",
                "noteNumber": 81,
                "velocity": 0,
                "subtype": "noteOff"
            },
            {
                "deltaTime": 0,
                "channel": 0,
                "type": "channel",
                "noteNumber": 83,
                "velocity": 75,
                "subtype": "noteOn"
            },
            {
                "deltaTime": 60,
                "channel": 0,
                "type": "channel",
                "noteNumber": 83,
                "velocity": 0,
                "subtype": "noteOff"
            },
            {
                "deltaTime": 0,
                "channel": 0,
                "type": "channel",
                "noteNumber": 81,
                "velocity": 75,
                "subtype": "noteOn"
            },
            {
                "deltaTime": 60,
                "channel": 0,
                "type": "channel",
                "noteNumber": 81,
                "velocity": 0,
                "subtype": "noteOff"
            },
            {
                "deltaTime": 0,
                "channel": 0,
                "type": "channel",
                "noteNumber": 83,
                "velocity": 75,
                "subtype": "noteOn"
            },
            {
                "deltaTime": 60,
                "channel": 0,
                "type": "channel",
                "noteNumber": 83,
                "velocity": 0,
                "subtype": "noteOff"
            },
            {
                "deltaTime": 0,
                "channel": 0,
                "type": "channel",
                "noteNumber": 81,
                "velocity": 75,
                "subtype": "noteOn"
            },
            {
                "deltaTime": 60,
                "channel": 0,
                "type": "channel",
                "noteNumber": 81,
                "velocity": 0,
                "subtype": "noteOff"
            },
            {
                "deltaTime": 0,
                "channel": 0,
                "type": "channel",
                "noteNumber": 83,
                "velocity": 75,
                "subtype": "noteOn"
            },
            {
                "deltaTime": 60,
                "channel": 0,
                "type": "channel",
                "noteNumber": 83,
                "velocity": 0,
                "subtype": "noteOff"
            },
            {
                "deltaTime": 0,
                "channel": 0,
                "type": "channel",
                "noteNumber": 81,
                "velocity": 75,
                "subtype": "noteOn"
            },
            {
                "deltaTime": 60,
                "channel": 0,
                "type": "channel",
                "noteNumber": 81,
                "velocity": 0,
                "subtype": "noteOff"
            },
            {
                "deltaTime": 0,
                "channel": 0,
                "type": "channel",
                "noteNumber": 83,
                "velocity": 75,
                "subtype": "noteOn"
            },
            {
                "deltaTime": 60,
                "channel": 0,
                "type": "channel",
                "noteNumber": 83,
                "velocity": 0,
                "subtype": "noteOff"
            },
            {
                "deltaTime": 0,
                "channel": 0,
                "type": "channel",
                "subtype": "controller",
                "controllerType": 64,
                "value": 127
            },
            {
                "deltaTime": 0,
                "channel": 0,
                "type": "channel",
                "noteNumber": 81,
                "velocity": 75,
                "subtype": "noteOn"
            },
            {
                "deltaTime": 60,
                "channel": 0,
                "type": "channel",
                "noteNumber": 81,
                "velocity": 0,
                "subtype": "noteOff"
            },
            {
                "deltaTime": 0,
                "channel": 0,
                "type": "channel",
                "noteNumber": 83,
                "velocity": 75,
                "subtype": "noteOn"
            },
            {
                "deltaTime": 60,
                "channel": 0,
                "type": "channel",
                "noteNumber": 83,
                "velocity": 0,
                "subtype": "noteOff"
            },
            {
                "deltaTime": 0,
                "channel": 0,
                "type": "channel",
                "noteNumber": 86,
                "velocity": 75,
                "subtype": "noteOn"
            },
            {
                "deltaTime": 60,
                "channel": 0,
                "type": "channel",
                "noteNumber": 86,
                "velocity": 0,
                "subtype": "noteOff"
            },
            {
                "deltaTime": 0,
                "channel": 0,
                "type": "channel",
                "noteNumber": 89,
                "velocity": 75,
                "subtype": "noteOn"
            },
            {
                "deltaTime": 60,
                "channel": 0,
                "type": "channel",
                "noteNumber": 89,
                "velocity": 0,
                "subtype": "noteOff"
            },
            {
                "deltaTime": 0,
                "channel": 0,
                "type": "channel",
                "subtype": "controller",
                "controllerType": 64,
                "value": 0
            },
            {
                "deltaTime": 0,
                "channel": 0,
                "type": "channel",
                "noteNumber": 93,
                "velocity": 75,
                "subtype": "noteOn"
            },
            {
                "deltaTime": 240,
                "channel": 0,
                "type": "channel",
                "noteNumber": 93,
                "velocity": 0,
                "subtype": "noteOff"
            },
            {
                "deltaTime": 0,
                "channel": 0,
                "type": "channel",
                "subtype": "controller",
                "controllerType": 64,
                "value": 127
            },
            {
                "deltaTime": 0,
                "channel": 0,
                "type": "channel",
                "noteNumber": 81,
                "velocity": 75,
                "subtype": "noteOn"
            },
            {
                "deltaTime": 60,
                "channel": 0,
                "type": "channel",
                "noteNumber": 81,
                "velocity": 0,
                "subtype": "noteOff"
            },
            {
                "deltaTime": 0,
                "channel": 0,
                "type": "channel",
                "noteNumber": 83,
                "velocity": 75,
                "subtype": "noteOn"
            },
            {
                "deltaTime": 60,
                "channel": 0,
                "type": "channel",
                "noteNumber": 83,
                "velocity": 0,
                "subtype": "noteOff"
            },
            {
                "deltaTime": 0,
                "channel": 0,
                "type": "channel",
                "noteNumber": 87,
                "velocity": 75,
                "subtype": "noteOn"
            },
            {
                "deltaTime": 60,
                "channel": 0,
                "type": "channel",
                "noteNumber": 87,
                "velocity": 0,
                "subtype": "noteOff"
            },
            {
                "deltaTime": 0,
                "channel": 0,
                "type": "channel",
                "noteNumber": 89,
                "velocity": 75,
                "subtype": "noteOn"
            },
            {
                "deltaTime": 60,
                "channel": 0,
                "type": "channel",
                "noteNumber": 89,
                "velocity": 0,
                "subtype": "noteOff"
            },
            {
                "deltaTime": 0,
                "channel": 0,
                "type": "channel",
                "subtype": "controller",
                "controllerType": 64,
                "value": 0
            },
            {
                "deltaTime": 0,
                "channel": 0,
                "type": "channel",
                "noteNumber": 93,
                "velocity": 75,
                "subtype": "noteOn"
            },
            {
                "deltaTime": 240,
                "channel": 0,
                "type": "channel",
                "noteNumber": 93,
                "velocity": 0,
                "subtype": "noteOff"
            },
            {
                "deltaTime": 720,
                "channel": 0,
                "type": "channel",
                "subtype": "controller",
                "controllerType": 64,
                "value": 127
            },
            {
                "deltaTime": 0,
                "channel": 0,
                "type": "channel",
                "noteNumber": 80,
                "velocity": 75,
                "subtype": "noteOn"
            },
            {
                "deltaTime": 60,
                "channel": 0,
                "type": "channel",
                "noteNumber": 80,
                "velocity": 0,
                "subtype": "noteOff"
            },
            {
                "deltaTime": 0,
                "channel": 0,
                "type": "channel",
                "noteNumber": 81,
                "velocity": 75,
                "subtype": "noteOn"
            },
            {
                "deltaTime": 60,
                "channel": 0,
                "type": "channel",
                "noteNumber": 81,
                "velocity": 0,
                "subtype": "noteOff"
            },
            {
                "deltaTime": 0,
                "channel": 0,
                "type": "channel",
                "noteNumber": 80,
                "velocity": 75,
                "subtype": "noteOn"
            },
            {
                "deltaTime": 60,
                "channel": 0,
                "type": "channel",
                "noteNumber": 80,
                "velocity": 0,
                "subtype": "noteOff"
            },
            {
                "deltaTime": 0,
                "channel": 0,
                "type": "channel",
                "noteNumber": 81,
                "velocity": 75,
                "subtype": "noteOn"
            },
            {
                "deltaTime": 60,
                "channel": 0,
                "type": "channel",
                "noteNumber": 81,
                "velocity": 0,
                "subtype": "noteOff"
            },
            {
                "deltaTime": 0,
                "channel": 0,
                "type": "channel",
                "noteNumber": 80,
                "velocity": 75,
                "subtype": "noteOn"
            },
            {
                "deltaTime": 60,
                "channel": 0,
                "type": "channel",
                "noteNumber": 80,
                "velocity": 0,
                "subtype": "noteOff"
            },
            {
                "deltaTime": 0,
                "channel": 0,
                "type": "channel",
                "noteNumber": 81,
                "velocity": 75,
                "subtype": "noteOn"
            },
            {
                "deltaTime": 60,
                "channel": 0,
                "type": "channel",
                "noteNumber": 81,
                "velocity": 0,
                "subtype": "noteOff"
            },
            {
                "deltaTime": 0,
                "channel": 0,
                "type": "channel",
                "noteNumber": 80,
                "velocity": 75,
                "subtype": "noteOn"
            },
            {
                "deltaTime": 60,
                "channel": 0,
                "type": "channel",
                "noteNumber": 80,
                "velocity": 0,
                "subtype": "noteOff"
            },
            {
                "deltaTime": 0,
                "channel": 0,
                "type": "channel",
                "noteNumber": 81,
                "velocity": 75,
                "subtype": "noteOn"
            },
            {
                "deltaTime": 60,
                "channel": 0,
                "type": "channel",
                "noteNumber": 81,
                "velocity": 0,
                "subtype": "noteOff"
            },
            {
                "deltaTime": 0,
                "channel": 0,
                "type": "channel",
                "noteNumber": 82,
                "velocity": 75,
                "subtype": "noteOn"
            },
            {
                "deltaTime": 60,
                "channel": 0,
                "type": "channel",
                "noteNumber": 82,
                "velocity": 0,
                "subtype": "noteOff"
            },
            {
                "deltaTime": 0,
                "channel": 0,
                "type": "channel",
                "noteNumber": 83,
                "velocity": 75,
                "subtype": "noteOn"
            },
            {
                "deltaTime": 60,
                "channel": 0,
                "type": "channel",
                "noteNumber": 83,
                "velocity": 0,
                "subtype": "noteOff"
            },
            {
                "deltaTime": 0,
                "channel": 0,
                "type": "channel",
                "noteNumber": 84,
                "velocity": 75,
                "subtype": "noteOn"
            },
            {
                "deltaTime": 60,
                "channel": 0,
                "type": "channel",
                "noteNumber": 84,
                "velocity": 0,
                "subtype": "noteOff"
            },
            {
                "deltaTime": 0,
                "channel": 0,
                "type": "channel",
                "subtype": "controller",
                "controllerType": 64,
                "value": 0
            },
            {
                "deltaTime": 0,
                "channel": 0,
                "type": "channel",
                "noteNumber": 85,
                "velocity": 75,
                "subtype": "noteOn"
            },
            {
                "deltaTime": 60,
                "channel": 0,
                "type": "channel",
                "noteNumber": 85,
                "velocity": 0,
                "subtype": "noteOff"
            },
            {
                "deltaTime": 240,
                "channel": 0,
                "type": "channel",
                "subtype": "controller",
                "controllerType": 64,
                "value": 127
            },
            {
                "deltaTime": 0,
                "channel": 0,
                "type": "channel",
                "noteNumber": 86,
                "velocity": 75,
                "subtype": "noteOn"
            },
            {
                "deltaTime": 80,
                "channel": 0,
                "type": "channel",
                "noteNumber": 86,
                "velocity": 0,
                "subtype": "noteOff"
            },
            {
                "deltaTime": 0,
                "channel": 0,
                "type": "channel",
                "noteNumber": 78,
                "velocity": 75,
                "subtype": "noteOn"
            },
            {
                "deltaTime": 79,
                "channel": 0,
                "type": "channel",
                "noteNumber": 78,
                "velocity": 0,
                "subtype": "noteOff"
            },
            {
                "deltaTime": 0,
                "channel": 0,
                "type": "channel",
                "noteNumber": 86,
                "velocity": 75,
                "subtype": "noteOn"
            },
            {
                "deltaTime": 81,
                "channel": 0,
                "type": "channel",
                "noteNumber": 86,
                "velocity": 0,
                "subtype": "noteOff"
            },
            {
                "deltaTime": 0,
                "channel": 0,
                "type": "channel",
                "noteNumber": 90,
                "velocity": 75,
                "subtype": "noteOn"
            },
            {
                "deltaTime": 80,
                "channel": 0,
                "type": "channel",
                "noteNumber": 90,
                "velocity": 0,
                "subtype": "noteOff"
            },
            {
                "deltaTime": 0,
                "channel": 0,
                "type": "channel",
                "noteNumber": 98,
                "velocity": 75,
                "subtype": "noteOn"
            },
            {
                "deltaTime": 79,
                "channel": 0,
                "type": "channel",
                "noteNumber": 98,
                "velocity": 0,
                "subtype": "noteOff"
            },
            {
                "deltaTime": 0,
                "channel": 0,
                "type": "channel",
                "subtype": "controller",
                "controllerType": 64,
                "value": 0
            },
            {
                "deltaTime": 0,
                "channel": 0,
                "type": "channel",
                "noteNumber": 102,
                "velocity": 75,
                "subtype": "noteOn"
            },
            {
                "deltaTime": 81,
                "channel": 0,
                "type": "channel",
                "noteNumber": 102,
                "velocity": 0,
                "subtype": "noteOff"
            },
            {
                "deltaTime": 240,
                "channel": 0,
                "type": "channel",
                "subtype": "controller",
                "controllerType": 64,
                "value": 127
            },
            {
                "deltaTime": 0,
                "channel": 0,
                "type": "channel",
                "noteNumber": 85,
                "velocity": 75,
                "subtype": "noteOn"
            },
            {
                "deltaTime": 80,
                "channel": 0,
                "type": "channel",
                "noteNumber": 85,
                "velocity": 0,
                "subtype": "noteOff"
            },
            {
                "deltaTime": 0,
                "channel": 0,
                "type": "channel",
                "noteNumber": 78,
                "velocity": 75,
                "subtype": "noteOn"
            },
            {
                "deltaTime": 79,
                "channel": 0,
                "type": "channel",
                "noteNumber": 78,
                "velocity": 0,
                "subtype": "noteOff"
            },
            {
                "deltaTime": 0,
                "channel": 0,
                "type": "channel",
                "noteNumber": 85,
                "velocity": 75,
                "subtype": "noteOn"
            },
            {
                "deltaTime": 81,
                "channel": 0,
                "type": "channel",
                "noteNumber": 85,
                "velocity": 0,
                "subtype": "noteOff"
            },
            {
                "deltaTime": 0,
                "channel": 0,
                "type": "channel",
                "noteNumber": 90,
                "velocity": 75,
                "subtype": "noteOn"
            },
            {
                "deltaTime": 80,
                "channel": 0,
                "type": "channel",
                "noteNumber": 90,
                "velocity": 0,
                "subtype": "noteOff"
            },
            {
                "deltaTime": 0,
                "channel": 0,
                "type": "channel",
                "noteNumber": 97,
                "velocity": 75,
                "subtype": "noteOn"
            },
            {
                "deltaTime": 79,
                "channel": 0,
                "type": "channel",
                "noteNumber": 97,
                "velocity": 0,
                "subtype": "noteOff"
            },
            {
                "deltaTime": 0,
                "channel": 0,
                "type": "channel",
                "noteNumber": 102,
                "velocity": 75,
                "subtype": "noteOn"
            },
            {
                "deltaTime": 81,
                "channel": 0,
                "type": "channel",
                "noteNumber": 102,
                "velocity": 0,
                "subtype": "noteOff"
            },
            {
                "deltaTime": 0,
                "channel": 0,
                "type": "channel",
                "subtype": "controller",
                "controllerType": 64,
                "value": 0
            },
            {
                "deltaTime": 0,
                "channel": 0,
                "type": "channel",
                "noteNumber": 95,
                "velocity": 75,
                "subtype": "noteOn"
            },
            {
                "deltaTime": 120,
                "channel": 0,
                "type": "channel",
                "noteNumber": 95,
                "velocity": 0,
                "subtype": "noteOff"
            },
            {
                "deltaTime": 0,
                "channel": 0,
                "type": "channel",
                "subtype": "controller",
                "controllerType": 64,
                "value": 127
            },
            {
                "deltaTime": 0,
                "channel": 0,
                "type": "channel",
                "noteNumber": 83,
                "velocity": 75,
                "subtype": "noteOn"
            },
            {
                "deltaTime": 120,
                "channel": 0,
                "type": "channel",
                "noteNumber": 83,
                "velocity": 0,
                "subtype": "noteOff"
            },
            {
                "deltaTime": 0,
                "channel": 0,
                "type": "channel",
                "noteNumber": 84,
                "velocity": 75,
                "subtype": "noteOn"
            },
            {
                "deltaTime": 80,
                "channel": 0,
                "type": "channel",
                "noteNumber": 84,
                "velocity": 0,
                "subtype": "noteOff"
            },
            {
                "deltaTime": 0,
                "channel": 0,
                "type": "channel",
                "noteNumber": 85,
                "velocity": 75,
                "subtype": "noteOn"
            },
            {
                "deltaTime": 79,
                "channel": 0,
                "type": "channel",
                "noteNumber": 85,
                "velocity": 0,
                "subtype": "noteOff"
            },
            {
                "deltaTime": 0,
                "channel": 0,
                "type": "channel",
                "noteNumber": 86,
                "velocity": 75,
                "subtype": "noteOn"
            },
            {
                "deltaTime": 81,
                "channel": 0,
                "type": "channel",
                "noteNumber": 86,
                "velocity": 0,
                "subtype": "noteOff"
            },
            {
                "deltaTime": 0,
                "channel": 0,
                "type": "channel",
                "noteNumber": 87,
                "velocity": 75,
                "subtype": "noteOn"
            },
            {
                "deltaTime": 80,
                "channel": 0,
                "type": "channel",
                "noteNumber": 87,
                "velocity": 0,
                "subtype": "noteOff"
            },
            {
                "deltaTime": 0,
                "channel": 0,
                "type": "channel",
                "noteNumber": 88,
                "velocity": 75,
                "subtype": "noteOn"
            },
            {
                "deltaTime": 79,
                "channel": 0,
                "type": "channel",
                "noteNumber": 88,
                "velocity": 0,
                "subtype": "noteOff"
            },
            {
                "deltaTime": 0,
                "channel": 0,
                "type": "channel",
                "subtype": "controller",
                "controllerType": 64,
                "value": 0
            },
            {
                "deltaTime": 0,
                "channel": 0,
                "type": "channel",
                "noteNumber": 89,
                "velocity": 75,
                "subtype": "noteOn"
            },
            {
                "deltaTime": 81,
                "channel": 0,
                "type": "channel",
                "noteNumber": 89,
                "velocity": 0,
                "subtype": "noteOff"
            },
            {
                "deltaTime": 0,
                "channel": 0,
                "type": "channel",
                "subtype": "controller",
                "controllerType": 64,
                "value": 127
            },
            {
                "deltaTime": 0,
                "channel": 0,
                "type": "channel",
                "noteNumber": 83,
                "velocity": 75,
                "subtype": "noteOn"
            },
            {
                "deltaTime": 60,
                "channel": 0,
                "type": "channel",
                "noteNumber": 83,
                "velocity": 0,
                "subtype": "noteOff"
            },
            {
                "deltaTime": 0,
                "channel": 0,
                "type": "channel",
                "noteNumber": 84,
                "velocity": 75,
                "subtype": "noteOn"
            },
            {
                "deltaTime": 60,
                "channel": 0,
                "type": "channel",
                "noteNumber": 84,
                "velocity": 0,
                "subtype": "noteOff"
            },
            {
                "deltaTime": 0,
                "channel": 0,
                "type": "channel",
                "noteNumber": 83,
                "velocity": 75,
                "subtype": "noteOn"
            },
            {
                "deltaTime": 60,
                "channel": 0,
                "type": "channel",
                "noteNumber": 83,
                "velocity": 0,
                "subtype": "noteOff"
            },
            {
                "deltaTime": 0,
                "channel": 0,
                "type": "channel",
                "noteNumber": 84,
                "velocity": 75,
                "subtype": "noteOn"
            },
            {
                "deltaTime": 60,
                "channel": 0,
                "type": "channel",
                "noteNumber": 84,
                "velocity": 0,
                "subtype": "noteOff"
            },
            {
                "deltaTime": 0,
                "channel": 0,
                "type": "channel",
                "noteNumber": 83,
                "velocity": 75,
                "subtype": "noteOn"
            },
            {
                "deltaTime": 60,
                "channel": 0,
                "type": "channel",
                "noteNumber": 83,
                "velocity": 0,
                "subtype": "noteOff"
            },
            {
                "deltaTime": 0,
                "channel": 0,
                "type": "channel",
                "noteNumber": 84,
                "velocity": 75,
                "subtype": "noteOn"
            },
            {
                "deltaTime": 60,
                "channel": 0,
                "type": "channel",
                "noteNumber": 84,
                "velocity": 0,
                "subtype": "noteOff"
            },
            {
                "deltaTime": 0,
                "channel": 0,
                "type": "channel",
                "noteNumber": 83,
                "velocity": 75,
                "subtype": "noteOn"
            },
            {
                "deltaTime": 60,
                "channel": 0,
                "type": "channel",
                "noteNumber": 83,
                "velocity": 0,
                "subtype": "noteOff"
            },
            {
                "deltaTime": 0,
                "channel": 0,
                "type": "channel",
                "noteNumber": 84,
                "velocity": 75,
                "subtype": "noteOn"
            },
            {
                "deltaTime": 60,
                "channel": 0,
                "type": "channel",
                "noteNumber": 84,
                "velocity": 0,
                "subtype": "noteOff"
            },
            {
                "deltaTime": 0,
                "channel": 0,
                "type": "channel",
                "noteNumber": 85,
                "velocity": 75,
                "subtype": "noteOn"
            },
            {
                "deltaTime": 60,
                "channel": 0,
                "type": "channel",
                "noteNumber": 85,
                "velocity": 0,
                "subtype": "noteOff"
            },
            {
                "deltaTime": 0,
                "channel": 0,
                "type": "channel",
                "noteNumber": 87,
                "velocity": 75,
                "subtype": "noteOn"
            },
            {
                "deltaTime": 60,
                "channel": 0,
                "type": "channel",
                "noteNumber": 87,
                "velocity": 0,
                "subtype": "noteOff"
            },
            {
                "deltaTime": 0,
                "channel": 0,
                "type": "channel",
                "noteNumber": 88,
                "velocity": 75,
                "subtype": "noteOn"
            },
            {
                "deltaTime": 60,
                "channel": 0,
                "type": "channel",
                "noteNumber": 88,
                "velocity": 0,
                "subtype": "noteOff"
            },
            {
                "deltaTime": 0,
                "channel": 0,
                "type": "channel",
                "subtype": "controller",
                "controllerType": 64,
                "value": 0
            },
            {
                "deltaTime": 0,
                "channel": 0,
                "type": "channel",
                "noteNumber": 89,
                "velocity": 75,
                "subtype": "noteOn"
            },
            {
                "deltaTime": 60,
                "channel": 0,
                "type": "channel",
                "noteNumber": 89,
                "velocity": 0,
                "subtype": "noteOff"
            },
            {
                "deltaTime": 240,
                "channel": 0,
                "type": "channel",
                "subtype": "controller",
                "controllerType": 64,
                "value": 127
            },
            {
                "deltaTime": 0,
                "channel": 0,
                "type": "channel",
                "noteNumber": 89,
                "velocity": 75,
                "subtype": "noteOn"
            },
            {
                "deltaTime": 80,
                "channel": 0,
                "type": "channel",
                "noteNumber": 89,
                "velocity": 0,
                "subtype": "noteOff"
            },
            {
                "deltaTime": 0,
                "channel": 0,
                "type": "channel",
                "noteNumber": 81,
                "velocity": 75,
                "subtype": "noteOn"
            },
            {
                "deltaTime": 79,
                "channel": 0,
                "type": "channel",
                "noteNumber": 81,
                "velocity": 0,
                "subtype": "noteOff"
            },
            {
                "deltaTime": 0,
                "channel": 0,
                "type": "channel",
                "noteNumber": 89,
                "velocity": 75,
                "subtype": "noteOn"
            },
            {
                "deltaTime": 81,
                "channel": 0,
                "type": "channel",
                "noteNumber": 89,
                "velocity": 0,
                "subtype": "noteOff"
            },
            {
                "deltaTime": 0,
                "channel": 0,
                "type": "channel",
                "noteNumber": 93,
                "velocity": 75,
                "subtype": "noteOn"
            },
            {
                "deltaTime": 80,
                "channel": 0,
                "type": "channel",
                "noteNumber": 93,
                "velocity": 0,
                "subtype": "noteOff"
            },
            {
                "deltaTime": 0,
                "channel": 0,
                "type": "channel",
                "noteNumber": 101,
                "velocity": 75,
                "subtype": "noteOn"
            },
            {
                "deltaTime": 79,
                "channel": 0,
                "type": "channel",
                "noteNumber": 101,
                "velocity": 0,
                "subtype": "noteOff"
            },
            {
                "deltaTime": 0,
                "channel": 0,
                "type": "channel",
                "subtype": "controller",
                "controllerType": 64,
                "value": 0
            },
            {
                "deltaTime": 0,
                "channel": 0,
                "type": "channel",
                "noteNumber": 106,
                "velocity": 75,
                "subtype": "noteOn"
            },
            {
                "deltaTime": 81,
                "channel": 0,
                "type": "channel",
                "noteNumber": 106,
                "velocity": 0,
                "subtype": "noteOff"
            },
            {
                "deltaTime": 240,
                "channel": 0,
                "type": "channel",
                "subtype": "controller",
                "controllerType": 64,
                "value": 127
            },
            {
                "deltaTime": 0,
                "channel": 0,
                "type": "channel",
                "noteNumber": 89,
                "velocity": 75,
                "subtype": "noteOn"
            },
            {
                "deltaTime": 80,
                "channel": 0,
                "type": "channel",
                "noteNumber": 89,
                "velocity": 0,
                "subtype": "noteOff"
            },
            {
                "deltaTime": 0,
                "channel": 0,
                "type": "channel",
                "noteNumber": 81,
                "velocity": 75,
                "subtype": "noteOn"
            },
            {
                "deltaTime": 79,
                "channel": 0,
                "type": "channel",
                "noteNumber": 81,
                "velocity": 0,
                "subtype": "noteOff"
            },
            {
                "deltaTime": 0,
                "channel": 0,
                "type": "channel",
                "noteNumber": 89,
                "velocity": 75,
                "subtype": "noteOn"
            },
            {
                "deltaTime": 81,
                "channel": 0,
                "type": "channel",
                "noteNumber": 89,
                "velocity": 0,
                "subtype": "noteOff"
            },
            {
                "deltaTime": 0,
                "channel": 0,
                "type": "channel",
                "noteNumber": 93,
                "velocity": 75,
                "subtype": "noteOn"
            },
            {
                "deltaTime": 80,
                "channel": 0,
                "type": "channel",
                "noteNumber": 93,
                "velocity": 0,
                "subtype": "noteOff"
            },
            {
                "deltaTime": 0,
                "channel": 0,
                "type": "channel",
                "noteNumber": 101,
                "velocity": 75,
                "subtype": "noteOn"
            },
            {
                "deltaTime": 79,
                "channel": 0,
                "type": "channel",
                "noteNumber": 101,
                "velocity": 0,
                "subtype": "noteOff"
            },
            {
                "deltaTime": 0,
                "channel": 0,
                "type": "channel",
                "noteNumber": 105,
                "velocity": 75,
                "subtype": "noteOn"
            },
            {
                "deltaTime": 81,
                "channel": 0,
                "type": "channel",
                "noteNumber": 105,
                "velocity": 0,
                "subtype": "noteOff"
            },
            {
                "deltaTime": 0,
                "channel": 0,
                "type": "channel",
                "subtype": "controller",
                "controllerType": 64,
                "value": 0
            },
            {
                "deltaTime": 0,
                "channel": 0,
                "type": "channel",
                "noteNumber": 99,
                "velocity": 75,
                "subtype": "noteOn"
            },
            {
                "deltaTime": 120,
                "channel": 0,
                "type": "channel",
                "noteNumber": 99,
                "velocity": 0,
                "subtype": "noteOff"
            },
            {
                "deltaTime": 0,
                "channel": 0,
                "type": "channel",
                "subtype": "controller",
                "controllerType": 64,
                "value": 127
            },
            {
                "deltaTime": 0,
                "channel": 0,
                "type": "channel",
                "noteNumber": 87,
                "velocity": 75,
                "subtype": "noteOn"
            },
            {
                "deltaTime": 120,
                "channel": 0,
                "type": "channel",
                "noteNumber": 87,
                "velocity": 0,
                "subtype": "noteOff"
            },
            {
                "deltaTime": 0,
                "channel": 0,
                "type": "channel",
                "noteNumber": 88,
                "velocity": 75,
                "subtype": "noteOn"
            },
            {
                "deltaTime": 80,
                "channel": 0,
                "type": "channel",
                "noteNumber": 88,
                "velocity": 0,
                "subtype": "noteOff"
            },
            {
                "deltaTime": 0,
                "channel": 0,
                "type": "channel",
                "noteNumber": 89,
                "velocity": 75,
                "subtype": "noteOn"
            },
            {
                "deltaTime": 79,
                "channel": 0,
                "type": "channel",
                "noteNumber": 89,
                "velocity": 0,
                "subtype": "noteOff"
            },
            {
                "deltaTime": 0,
                "channel": 0,
                "type": "channel",
                "noteNumber": 89,
                "velocity": 75,
                "subtype": "noteOn"
            },
            {
                "deltaTime": 81,
                "channel": 0,
                "type": "channel",
                "noteNumber": 89,
                "velocity": 0,
                "subtype": "noteOff"
            },
            {
                "deltaTime": 0,
                "channel": 0,
                "type": "channel",
                "noteNumber": 90,
                "velocity": 75,
                "subtype": "noteOn"
            },
            {
                "deltaTime": 80,
                "channel": 0,
                "type": "channel",
                "noteNumber": 90,
                "velocity": 0,
                "subtype": "noteOff"
            },
            {
                "deltaTime": 0,
                "channel": 0,
                "type": "channel",
                "noteNumber": 91,
                "velocity": 75,
                "subtype": "noteOn"
            },
            {
                "deltaTime": 79,
                "channel": 0,
                "type": "channel",
                "noteNumber": 91,
                "velocity": 0,
                "subtype": "noteOff"
            },
            {
                "deltaTime": 0,
                "channel": 0,
                "type": "channel",
                "subtype": "controller",
                "controllerType": 64,
                "value": 0
            },
            {
                "deltaTime": 0,
                "channel": 0,
                "type": "channel",
                "noteNumber": 92,
                "velocity": 75,
                "subtype": "noteOn"
            },
            {
                "deltaTime": 81,
                "channel": 0,
                "type": "channel",
                "noteNumber": 92,
                "velocity": 0,
                "subtype": "noteOff"
            },
            {
                "deltaTime": 0,
                "channel": 0,
                "type": "channel",
                "subtype": "controller",
                "controllerType": 64,
                "value": 127
            },
            {
                "deltaTime": 0,
                "channel": 0,
                "type": "channel",
                "noteNumber": 71,
                "velocity": 88,
                "subtype": "noteOn"
            },
            {
                "deltaTime": 47,
                "channel": 0,
                "type": "channel",
                "noteNumber": 71,
                "velocity": 0,
                "subtype": "noteOff"
            },
            {
                "deltaTime": 0,
                "channel": 0,
                "type": "channel",
                "noteNumber": 76,
                "velocity": 88,
                "subtype": "noteOn"
            },
            {
                "deltaTime": 49,
                "channel": 0,
                "type": "channel",
                "noteNumber": 76,
                "velocity": 0,
                "subtype": "noteOff"
            },
            {
                "deltaTime": 0,
                "channel": 0,
                "type": "channel",
                "noteNumber": 81,
                "velocity": 88,
                "subtype": "noteOn"
            },
            {
                "deltaTime": 47,
                "channel": 0,
                "type": "channel",
                "noteNumber": 81,
                "velocity": 0,
                "subtype": "noteOff"
            },
            {
                "deltaTime": 0,
                "channel": 0,
                "type": "channel",
                "noteNumber": 83,
                "velocity": 88,
                "subtype": "noteOn"
            },
            {
                "deltaTime": 49,
                "channel": 0,
                "type": "channel",
                "noteNumber": 83,
                "velocity": 0,
                "subtype": "noteOff"
            },
            {
                "deltaTime": 0,
                "channel": 0,
                "type": "channel",
                "noteNumber": 88,
                "velocity": 88,
                "subtype": "noteOn"
            },
            {
                "deltaTime": 48,
                "channel": 0,
                "type": "channel",
                "noteNumber": 88,
                "velocity": 0,
                "subtype": "noteOff"
            },
            {
                "deltaTime": 0,
                "channel": 0,
                "type": "channel",
                "subtype": "controller",
                "controllerType": 64,
                "value": 0
            },
            {
                "deltaTime": 0,
                "channel": 0,
                "type": "channel",
                "noteNumber": 93,
                "velocity": 88,
                "subtype": "noteOn"
            },
            {
                "deltaTime": 240,
                "channel": 0,
                "type": "channel",
                "noteNumber": 93,
                "velocity": 0,
                "subtype": "noteOff"
            },
            {
                "deltaTime": 0,
                "channel": 0,
                "type": "channel",
                "noteNumber": 93,
                "velocity": 88,
                "subtype": "noteOn"
            },
            {
                "deltaTime": 80,
                "channel": 0,
                "type": "channel",
                "noteNumber": 93,
                "velocity": 0,
                "subtype": "noteOff"
            },
            {
                "deltaTime": 0,
                "channel": 0,
                "type": "channel",
                "noteNumber": 88,
                "velocity": 88,
                "subtype": "noteOn"
            },
            {
                "deltaTime": 79,
                "channel": 0,
                "type": "channel",
                "noteNumber": 88,
                "velocity": 0,
                "subtype": "noteOff"
            },
            {
                "deltaTime": 0,
                "channel": 0,
                "type": "channel",
                "noteNumber": 84,
                "velocity": 88,
                "subtype": "noteOn"
            },
            {
                "deltaTime": 81,
                "channel": 0,
                "type": "channel",
                "noteNumber": 84,
                "velocity": 0,
                "subtype": "noteOff"
            },
            {
                "deltaTime": 0,
                "channel": 0,
                "type": "channel",
                "subtype": "controller",
                "controllerType": 64,
                "value": 127
            },
            {
                "deltaTime": 0,
                "channel": 0,
                "type": "channel",
                "noteNumber": 81,
                "velocity": 88,
                "subtype": "noteOn"
            },
            {
                "deltaTime": 0,
                "channel": 0,
                "type": "channel",
                "noteNumber": 93,
                "velocity": 88,
                "subtype": "noteOn"
            },
            {
                "deltaTime": 80,
                "channel": 0,
                "type": "channel",
                "noteNumber": 93,
                "velocity": 0,
                "subtype": "noteOff"
            },
            {
                "deltaTime": 0,
                "channel": 0,
                "type": "channel",
                "noteNumber": 81,
                "velocity": 0,
                "subtype": "noteOff"
            },
            {
                "deltaTime": 0,
                "channel": 0,
                "type": "channel",
                "noteNumber": 87,
                "velocity": 88,
                "subtype": "noteOn"
            },
            {
                "deltaTime": 79,
                "channel": 0,
                "type": "channel",
                "noteNumber": 87,
                "velocity": 0,
                "subtype": "noteOff"
            },
            {
                "deltaTime": 0,
                "channel": 0,
                "type": "channel",
                "noteNumber": 83,
                "velocity": 88,
                "subtype": "noteOn"
            },
            {
                "deltaTime": 81,
                "channel": 0,
                "type": "channel",
                "noteNumber": 83,
                "velocity": 0,
                "subtype": "noteOff"
            },
            {
                "deltaTime": 0,
                "channel": 0,
                "type": "channel",
                "noteNumber": 82,
                "velocity": 88,
                "subtype": "noteOn"
            },
            {
                "deltaTime": 240,
                "channel": 0,
                "type": "channel",
                "noteNumber": 82,
                "velocity": 0,
                "subtype": "noteOff"
            },
            {
                "deltaTime": 0,
                "channel": 0,
                "type": "channel",
                "subtype": "controller",
                "controllerType": 64,
                "value": 0
            },
            {
                "deltaTime": 0,
                "channel": 0,
                "type": "channel",
                "noteNumber": 81,
                "velocity": 88,
                "subtype": "noteOn"
            },
            {
                "deltaTime": 240,
                "channel": 0,
                "type": "channel",
                "noteNumber": 81,
                "velocity": 0,
                "subtype": "noteOff"
            },
            {
                "deltaTime": 0,
                "channel": 0,
                "type": "channel",
                "subtype": "controller",
                "controllerType": 64,
                "value": 127
            },
            {
                "deltaTime": 0,
                "channel": 0,
                "type": "channel",
                "noteNumber": 71,
                "velocity": 88,
                "subtype": "noteOn"
            },
            {
                "deltaTime": 47,
                "channel": 0,
                "type": "channel",
                "noteNumber": 71,
                "velocity": 0,
                "subtype": "noteOff"
            },
            {
                "deltaTime": 0,
                "channel": 0,
                "type": "channel",
                "noteNumber": 76,
                "velocity": 88,
                "subtype": "noteOn"
            },
            {
                "deltaTime": 49,
                "channel": 0,
                "type": "channel",
                "noteNumber": 76,
                "velocity": 0,
                "subtype": "noteOff"
            },
            {
                "deltaTime": 0,
                "channel": 0,
                "type": "channel",
                "noteNumber": 81,
                "velocity": 88,
                "subtype": "noteOn"
            },
            {
                "deltaTime": 47,
                "channel": 0,
                "type": "channel",
                "noteNumber": 81,
                "velocity": 0,
                "subtype": "noteOff"
            },
            {
                "deltaTime": 0,
                "channel": 0,
                "type": "channel",
                "noteNumber": 83,
                "velocity": 88,
                "subtype": "noteOn"
            },
            {
                "deltaTime": 49,
                "channel": 0,
                "type": "channel",
                "noteNumber": 83,
                "velocity": 0,
                "subtype": "noteOff"
            },
            {
                "deltaTime": 0,
                "channel": 0,
                "type": "channel",
                "noteNumber": 88,
                "velocity": 88,
                "subtype": "noteOn"
            },
            {
                "deltaTime": 48,
                "channel": 0,
                "type": "channel",
                "noteNumber": 88,
                "velocity": 0,
                "subtype": "noteOff"
            },
            {
                "deltaTime": 0,
                "channel": 0,
                "type": "channel",
                "subtype": "controller",
                "controllerType": 64,
                "value": 0
            },
            {
                "deltaTime": 0,
                "channel": 0,
                "type": "channel",
                "noteNumber": 93,
                "velocity": 88,
                "subtype": "noteOn"
            },
            {
                "deltaTime": 240,
                "channel": 0,
                "type": "channel",
                "noteNumber": 93,
                "velocity": 0,
                "subtype": "noteOff"
            },
            {
                "deltaTime": 0,
                "channel": 0,
                "type": "channel",
                "subtype": "controller",
                "controllerType": 64,
                "value": 127
            },
            {
                "deltaTime": 0,
                "channel": 0,
                "type": "channel",
                "noteNumber": 93,
                "velocity": 88,
                "subtype": "noteOn"
            },
            {
                "deltaTime": 60,
                "channel": 0,
                "type": "channel",
                "noteNumber": 93,
                "velocity": 0,
                "subtype": "noteOff"
            },
            {
                "deltaTime": 0,
                "channel": 0,
                "type": "channel",
                "noteNumber": 88,
                "velocity": 88,
                "subtype": "noteOn"
            },
            {
                "deltaTime": 60,
                "channel": 0,
                "type": "channel",
                "noteNumber": 88,
                "velocity": 0,
                "subtype": "noteOff"
            },
            {
                "deltaTime": 0,
                "channel": 0,
                "type": "channel",
                "noteNumber": 84,
                "velocity": 88,
                "subtype": "noteOn"
            },
            {
                "deltaTime": 60,
                "channel": 0,
                "type": "channel",
                "noteNumber": 84,
                "velocity": 0,
                "subtype": "noteOff"
            },
            {
                "deltaTime": 0,
                "channel": 0,
                "type": "channel",
                "subtype": "controller",
                "controllerType": 64,
                "value": 0
            },
            {
                "deltaTime": 0,
                "channel": 0,
                "type": "channel",
                "noteNumber": 83,
                "velocity": 88,
                "subtype": "noteOn"
            },
            {
                "deltaTime": 60,
                "channel": 0,
                "type": "channel",
                "noteNumber": 83,
                "velocity": 0,
                "subtype": "noteOff"
            },
            {
                "deltaTime": 0,
                "channel": 0,
                "type": "channel",
                "noteNumber": 82,
                "velocity": 88,
                "subtype": "noteOn"
            },
            {
                "deltaTime": 0,
                "channel": 0,
                "type": "channel",
                "noteNumber": 90,
                "velocity": 88,
                "subtype": "noteOn"
            },
            {
                "deltaTime": 102,
                "channel": 0,
                "type": "channel",
                "noteNumber": 90,
                "velocity": 0,
                "subtype": "noteOff"
            },
            {
                "deltaTime": 0,
                "channel": 0,
                "type": "channel",
                "noteNumber": 82,
                "velocity": 0,
                "subtype": "noteOff"
            },
            {
                "deltaTime": 0,
                "channel": 0,
                "type": "channel",
                "noteNumber": 89,
                "velocity": 88,
                "subtype": "noteOn"
            },
            {
                "deltaTime": 103,
                "channel": 0,
                "type": "channel",
                "noteNumber": 89,
                "velocity": 0,
                "subtype": "noteOff"
            },
            {
                "deltaTime": 0,
                "channel": 0,
                "type": "channel",
                "noteNumber": 88,
                "velocity": 88,
                "subtype": "noteOn"
            },
            {
                "deltaTime": 103,
                "channel": 0,
                "type": "channel",
                "noteNumber": 88,
                "velocity": 0,
                "subtype": "noteOff"
            },
            {
                "deltaTime": 0,
                "channel": 0,
                "type": "channel",
                "noteNumber": 85,
                "velocity": 88,
                "subtype": "noteOn"
            },
            {
                "deltaTime": 103,
                "channel": 0,
                "type": "channel",
                "noteNumber": 85,
                "velocity": 0,
                "subtype": "noteOff"
            },
            {
                "deltaTime": 0,
                "channel": 0,
                "type": "channel",
                "noteNumber": 78,
                "velocity": 88,
                "subtype": "noteOn"
            },
            {
                "deltaTime": 103,
                "channel": 0,
                "type": "channel",
                "noteNumber": 78,
                "velocity": 0,
                "subtype": "noteOff"
            },
            {
                "deltaTime": 0,
                "channel": 0,
                "type": "channel",
                "noteNumber": 77,
                "velocity": 88,
                "subtype": "noteOn"
            },
            {
                "deltaTime": 103,
                "channel": 0,
                "type": "channel",
                "noteNumber": 77,
                "velocity": 0,
                "subtype": "noteOff"
            },
            {
                "deltaTime": 0,
                "channel": 0,
                "type": "channel",
                "noteNumber": 76,
                "velocity": 88,
                "subtype": "noteOn"
            },
            {
                "deltaTime": 103,
                "channel": 0,
                "type": "channel",
                "noteNumber": 76,
                "velocity": 0,
                "subtype": "noteOff"
            },
            {
                "deltaTime": 0,
                "channel": 0,
                "type": "channel",
                "noteNumber": 71,
                "velocity": 75,
                "subtype": "noteOn"
            },
            {
                "deltaTime": 60,
                "channel": 0,
                "type": "channel",
                "noteNumber": 71,
                "velocity": 0,
                "subtype": "noteOff"
            },
            {
                "deltaTime": 0,
                "channel": 0,
                "type": "channel",
                "noteNumber": 73,
                "velocity": 75,
                "subtype": "noteOn"
            },
            {
                "deltaTime": 60,
                "channel": 0,
                "type": "channel",
                "noteNumber": 73,
                "velocity": 0,
                "subtype": "noteOff"
            },
            {
                "deltaTime": 0,
                "channel": 0,
                "type": "channel",
                "noteNumber": 71,
                "velocity": 75,
                "subtype": "noteOn"
            },
            {
                "deltaTime": 60,
                "channel": 0,
                "type": "channel",
                "noteNumber": 71,
                "velocity": 0,
                "subtype": "noteOff"
            },
            {
                "deltaTime": 0,
                "channel": 0,
                "type": "channel",
                "noteNumber": 73,
                "velocity": 75,
                "subtype": "noteOn"
            },
            {
                "deltaTime": 60,
                "channel": 0,
                "type": "channel",
                "noteNumber": 73,
                "velocity": 0,
                "subtype": "noteOff"
            },
            {
                "deltaTime": 0,
                "channel": 0,
                "type": "channel",
                "noteNumber": 71,
                "velocity": 75,
                "subtype": "noteOn"
            },
            {
                "deltaTime": 60,
                "channel": 0,
                "type": "channel",
                "noteNumber": 71,
                "velocity": 0,
                "subtype": "noteOff"
            },
            {
                "deltaTime": 0,
                "channel": 0,
                "type": "channel",
                "noteNumber": 73,
                "velocity": 75,
                "subtype": "noteOn"
            },
            {
                "deltaTime": 60,
                "channel": 0,
                "type": "channel",
                "noteNumber": 73,
                "velocity": 0,
                "subtype": "noteOff"
            },
            {
                "deltaTime": 0,
                "channel": 0,
                "type": "channel",
                "noteNumber": 71,
                "velocity": 75,
                "subtype": "noteOn"
            },
            {
                "deltaTime": 60,
                "channel": 0,
                "type": "channel",
                "noteNumber": 71,
                "velocity": 0,
                "subtype": "noteOff"
            },
            {
                "deltaTime": 0,
                "channel": 0,
                "type": "channel",
                "noteNumber": 73,
                "velocity": 75,
                "subtype": "noteOn"
            },
            {
                "deltaTime": 60,
                "channel": 0,
                "type": "channel",
                "noteNumber": 73,
                "velocity": 0,
                "subtype": "noteOff"
            },
            {
                "deltaTime": 0,
                "channel": 0,
                "type": "channel",
                "noteNumber": 71,
                "velocity": 75,
                "subtype": "noteOn"
            },
            {
                "deltaTime": 60,
                "channel": 0,
                "type": "channel",
                "noteNumber": 71,
                "velocity": 0,
                "subtype": "noteOff"
            },
            {
                "deltaTime": 0,
                "channel": 0,
                "type": "channel",
                "noteNumber": 73,
                "velocity": 75,
                "subtype": "noteOn"
            },
            {
                "deltaTime": 60,
                "channel": 0,
                "type": "channel",
                "noteNumber": 73,
                "velocity": 0,
                "subtype": "noteOff"
            },
            {
                "deltaTime": 0,
                "channel": 0,
                "type": "channel",
                "noteNumber": 71,
                "velocity": 75,
                "subtype": "noteOn"
            },
            {
                "deltaTime": 60,
                "channel": 0,
                "type": "channel",
                "noteNumber": 71,
                "velocity": 0,
                "subtype": "noteOff"
            },
            {
                "deltaTime": 0,
                "channel": 0,
                "type": "channel",
                "noteNumber": 73,
                "velocity": 75,
                "subtype": "noteOn"
            },
            {
                "deltaTime": 60,
                "channel": 0,
                "type": "channel",
                "noteNumber": 73,
                "velocity": 0,
                "subtype": "noteOff"
            },
            {
                "deltaTime": 0,
                "channel": 0,
                "type": "channel",
                "noteNumber": 71,
                "velocity": 75,
                "subtype": "noteOn"
            },
            {
                "deltaTime": 240,
                "channel": 0,
                "type": "channel",
                "noteNumber": 71,
                "velocity": 0,
                "subtype": "noteOff"
            },
            {
                "deltaTime": 0,
                "channel": 0,
                "type": "channel",
                "subtype": "controller",
                "controllerType": 64,
                "value": 127
            },
            {
                "deltaTime": 0,
                "channel": 0,
                "type": "channel",
                "noteNumber": 71,
                "velocity": 88,
                "subtype": "noteOn"
            },
            {
                "deltaTime": 80,
                "channel": 0,
                "type": "channel",
                "noteNumber": 71,
                "velocity": 0,
                "subtype": "noteOff"
            },
            {
                "deltaTime": 0,
                "channel": 0,
                "type": "channel",
                "noteNumber": 72,
                "velocity": 88,
                "subtype": "noteOn"
            },
            {
                "deltaTime": 79,
                "channel": 0,
                "type": "channel",
                "noteNumber": 72,
                "velocity": 0,
                "subtype": "noteOff"
            },
            {
                "deltaTime": 0,
                "channel": 0,
                "type": "channel",
                "noteNumber": 73,
                "velocity": 88,
                "subtype": "noteOn"
            },
            {
                "deltaTime": 81,
                "channel": 0,
                "type": "channel",
                "noteNumber": 73,
                "velocity": 0,
                "subtype": "noteOff"
            },
            {
                "deltaTime": 0,
                "channel": 0,
                "type": "channel",
                "noteNumber": 74,
                "velocity": 88,
                "subtype": "noteOn"
            },
            {
                "deltaTime": 80,
                "channel": 0,
                "type": "channel",
                "noteNumber": 74,
                "velocity": 0,
                "subtype": "noteOff"
            },
            {
                "deltaTime": 0,
                "channel": 0,
                "type": "channel",
                "noteNumber": 75,
                "velocity": 88,
                "subtype": "noteOn"
            },
            {
                "deltaTime": 79,
                "channel": 0,
                "type": "channel",
                "noteNumber": 75,
                "velocity": 0,
                "subtype": "noteOff"
            },
            {
                "deltaTime": 0,
                "channel": 0,
                "type": "channel",
                "noteNumber": 76,
                "velocity": 88,
                "subtype": "noteOn"
            },
            {
                "deltaTime": 81,
                "channel": 0,
                "type": "channel",
                "noteNumber": 76,
                "velocity": 0,
                "subtype": "noteOff"
            },
            {
                "deltaTime": 0,
                "channel": 0,
                "type": "channel",
                "subtype": "controller",
                "controllerType": 64,
                "value": 0
            },
            {
                "deltaTime": 0,
                "channel": 0,
                "type": "channel",
                "noteNumber": 77,
                "velocity": 88,
                "subtype": "noteOn"
            },
            {
                "deltaTime": 240,
                "channel": 0,
                "type": "channel",
                "noteNumber": 77,
                "velocity": 0,
                "subtype": "noteOff"
            },
            {
                "deltaTime": 1200,
                "channel": 0,
                "type": "channel",
                "noteNumber": 77,
                "velocity": 88,
                "subtype": "noteOn"
            },
            {
                "deltaTime": 240,
                "channel": 0,
                "type": "channel",
                "noteNumber": 77,
                "velocity": 0,
                "subtype": "noteOff"
            },
            {
                "deltaTime": 720,
                "channel": 0,
                "type": "channel",
                "subtype": "controller",
                "controllerType": 64,
                "value": 0
            },
            {
                "deltaTime": 3360,
                "channel": 0,
                "type": "channel",
                "subtype": "controller",
                "controllerType": 64,
                "value": 127
            },
            {
                "deltaTime": 0,
                "channel": 0,
                "type": "channel",
                "noteNumber": 92,
                "velocity": 88,
                "subtype": "noteOn"
            },
            {
                "deltaTime": 102,
                "channel": 0,
                "type": "channel",
                "noteNumber": 92,
                "velocity": 0,
                "subtype": "noteOff"
            },
            {
                "deltaTime": 0,
                "channel": 0,
                "type": "channel",
                "noteNumber": 91,
                "velocity": 88,
                "subtype": "noteOn"
            },
            {
                "deltaTime": 103,
                "channel": 0,
                "type": "channel",
                "noteNumber": 91,
                "velocity": 0,
                "subtype": "noteOff"
            },
            {
                "deltaTime": 0,
                "channel": 0,
                "type": "channel",
                "noteNumber": 90,
                "velocity": 88,
                "subtype": "noteOn"
            },
            {
                "deltaTime": 103,
                "channel": 0,
                "type": "channel",
                "noteNumber": 90,
                "velocity": 0,
                "subtype": "noteOff"
            },
            {
                "deltaTime": 0,
                "channel": 0,
                "type": "channel",
                "noteNumber": 86,
                "velocity": 88,
                "subtype": "noteOn"
            },
            {
                "deltaTime": 103,
                "channel": 0,
                "type": "channel",
                "noteNumber": 86,
                "velocity": 0,
                "subtype": "noteOff"
            },
            {
                "deltaTime": 0,
                "channel": 0,
                "type": "channel",
                "noteNumber": 80,
                "velocity": 88,
                "subtype": "noteOn"
            },
            {
                "deltaTime": 103,
                "channel": 0,
                "type": "channel",
                "noteNumber": 80,
                "velocity": 0,
                "subtype": "noteOff"
            },
            {
                "deltaTime": 0,
                "channel": 0,
                "type": "channel",
                "noteNumber": 79,
                "velocity": 88,
                "subtype": "noteOn"
            },
            {
                "deltaTime": 103,
                "channel": 0,
                "type": "channel",
                "noteNumber": 79,
                "velocity": 0,
                "subtype": "noteOff"
            },
            {
                "deltaTime": 0,
                "channel": 0,
                "type": "channel",
                "subtype": "controller",
                "controllerType": 64,
                "value": 0
            },
            {
                "deltaTime": 0,
                "channel": 0,
                "type": "channel",
                "noteNumber": 78,
                "velocity": 88,
                "subtype": "noteOn"
            },
            {
                "deltaTime": 103,
                "channel": 0,
                "type": "channel",
                "noteNumber": 78,
                "velocity": 0,
                "subtype": "noteOff"
            },
            {
                "deltaTime": 0,
                "channel": 0,
                "type": "channel",
                "noteNumber": 77,
                "velocity": 88,
                "subtype": "noteOn"
            },
            {
                "deltaTime": 240,
                "channel": 0,
                "type": "channel",
                "noteNumber": 77,
                "velocity": 0,
                "subtype": "noteOff"
            },
            {
                "deltaTime": 0,
                "channel": 0,
                "type": "channel",
                "noteNumber": 78,
                "velocity": 88,
                "subtype": "noteOn"
            },
            {
                "deltaTime": 60,
                "channel": 0,
                "type": "channel",
                "noteNumber": 78,
                "velocity": 0,
                "subtype": "noteOff"
            },
            {
                "deltaTime": 0,
                "channel": 0,
                "type": "channel",
                "noteNumber": 79,
                "velocity": 88,
                "subtype": "noteOn"
            },
            {
                "deltaTime": 60,
                "channel": 0,
                "type": "channel",
                "noteNumber": 79,
                "velocity": 0,
                "subtype": "noteOff"
            },
            {
                "deltaTime": 0,
                "channel": 0,
                "type": "channel",
                "noteNumber": 83,
                "velocity": 88,
                "subtype": "noteOn"
            },
            {
                "deltaTime": 60,
                "channel": 0,
                "type": "channel",
                "noteNumber": 83,
                "velocity": 0,
                "subtype": "noteOff"
            },
            {
                "deltaTime": 0,
                "channel": 0,
                "type": "channel",
                "noteNumber": 84,
                "velocity": 88,
                "subtype": "noteOn"
            },
            {
                "deltaTime": 60,
                "channel": 0,
                "type": "channel",
                "noteNumber": 84,
                "velocity": 0,
                "subtype": "noteOff"
            },
            {
                "deltaTime": 0,
                "channel": 0,
                "type": "channel",
                "noteNumber": 85,
                "velocity": 88,
                "subtype": "noteOn"
            },
            {
                "deltaTime": 60,
                "channel": 0,
                "type": "channel",
                "noteNumber": 85,
                "velocity": 0,
                "subtype": "noteOff"
            },
            {
                "deltaTime": 0,
                "channel": 0,
                "type": "channel",
                "noteNumber": 89,
                "velocity": 88,
                "subtype": "noteOn"
            },
            {
                "deltaTime": 60,
                "channel": 0,
                "type": "channel",
                "noteNumber": 89,
                "velocity": 0,
                "subtype": "noteOff"
            },
            {
                "deltaTime": 0,
                "channel": 0,
                "type": "channel",
                "noteNumber": 90,
                "velocity": 88,
                "subtype": "noteOn"
            },
            {
                "deltaTime": 60,
                "channel": 0,
                "type": "channel",
                "noteNumber": 90,
                "velocity": 0,
                "subtype": "noteOff"
            },
            {
                "deltaTime": 0,
                "channel": 0,
                "type": "channel",
                "noteNumber": 91,
                "velocity": 88,
                "subtype": "noteOn"
            },
            {
                "deltaTime": 60,
                "channel": 0,
                "type": "channel",
                "noteNumber": 91,
                "velocity": 0,
                "subtype": "noteOff"
            },
            {
                "deltaTime": 0,
                "channel": 0,
                "type": "channel",
                "noteNumber": 90,
                "velocity": 88,
                "subtype": "noteOn"
            },
            {
                "deltaTime": 60,
                "channel": 0,
                "type": "channel",
                "noteNumber": 90,
                "velocity": 0,
                "subtype": "noteOff"
            },
            {
                "deltaTime": 0,
                "channel": 0,
                "type": "channel",
                "noteNumber": 92,
                "velocity": 88,
                "subtype": "noteOn"
            },
            {
                "deltaTime": 60,
                "channel": 0,
                "type": "channel",
                "noteNumber": 92,
                "velocity": 0,
                "subtype": "noteOff"
            },
            {
                "deltaTime": 0,
                "channel": 0,
                "type": "channel",
                "noteNumber": 90,
                "velocity": 88,
                "subtype": "noteOn"
            },
            {
                "deltaTime": 60,
                "channel": 0,
                "type": "channel",
                "noteNumber": 90,
                "velocity": 0,
                "subtype": "noteOff"
            },
            {
                "deltaTime": 0,
                "channel": 0,
                "type": "channel",
                "noteNumber": 92,
                "velocity": 88,
                "subtype": "noteOn"
            },
            {
                "deltaTime": 60,
                "channel": 0,
                "type": "channel",
                "noteNumber": 92,
                "velocity": 0,
                "subtype": "noteOff"
            },
            {
                "deltaTime": 0,
                "channel": 0,
                "type": "channel",
                "noteNumber": 90,
                "velocity": 88,
                "subtype": "noteOn"
            },
            {
                "deltaTime": 60,
                "channel": 0,
                "type": "channel",
                "noteNumber": 90,
                "velocity": 0,
                "subtype": "noteOff"
            },
            {
                "deltaTime": 0,
                "channel": 0,
                "type": "channel",
                "noteNumber": 92,
                "velocity": 88,
                "subtype": "noteOn"
            },
            {
                "deltaTime": 60,
                "channel": 0,
                "type": "channel",
                "noteNumber": 92,
                "velocity": 0,
                "subtype": "noteOff"
            },
            {
                "deltaTime": 0,
                "channel": 0,
                "type": "channel",
                "noteNumber": 90,
                "velocity": 88,
                "subtype": "noteOn"
            },
            {
                "deltaTime": 60,
                "channel": 0,
                "type": "channel",
                "noteNumber": 90,
                "velocity": 0,
                "subtype": "noteOff"
            },
            {
                "deltaTime": 0,
                "channel": 0,
                "type": "channel",
                "noteNumber": 92,
                "velocity": 88,
                "subtype": "noteOn"
            },
            {
                "deltaTime": 60,
                "channel": 0,
                "type": "channel",
                "noteNumber": 92,
                "velocity": 0,
                "subtype": "noteOff"
            },
            {
                "deltaTime": 0,
                "channel": 0,
                "type": "channel",
                "noteNumber": 90,
                "velocity": 88,
                "subtype": "noteOn"
            },
            {
                "deltaTime": 60,
                "channel": 0,
                "type": "channel",
                "noteNumber": 90,
                "velocity": 0,
                "subtype": "noteOff"
            },
            {
                "deltaTime": 0,
                "channel": 0,
                "type": "channel",
                "noteNumber": 92,
                "velocity": 88,
                "subtype": "noteOn"
            },
            {
                "deltaTime": 60,
                "channel": 0,
                "type": "channel",
                "noteNumber": 92,
                "velocity": 0,
                "subtype": "noteOff"
            },
            {
                "deltaTime": 0,
                "channel": 0,
                "type": "channel",
                "noteNumber": 90,
                "velocity": 88,
                "subtype": "noteOn"
            },
            {
                "deltaTime": 60,
                "channel": 0,
                "type": "channel",
                "noteNumber": 90,
                "velocity": 0,
                "subtype": "noteOff"
            },
            {
                "deltaTime": 0,
                "channel": 0,
                "type": "channel",
                "noteNumber": 92,
                "velocity": 88,
                "subtype": "noteOn"
            },
            {
                "deltaTime": 60,
                "channel": 0,
                "type": "channel",
                "noteNumber": 92,
                "velocity": 0,
                "subtype": "noteOff"
            },
            {
                "deltaTime": 0,
                "channel": 0,
                "type": "channel",
                "noteNumber": 90,
                "velocity": 88,
                "subtype": "noteOn"
            },
            {
                "deltaTime": 60,
                "channel": 0,
                "type": "channel",
                "noteNumber": 90,
                "velocity": 0,
                "subtype": "noteOff"
            },
            {
                "deltaTime": 0,
                "channel": 0,
                "type": "channel",
                "noteNumber": 92,
                "velocity": 88,
                "subtype": "noteOn"
            },
            {
                "deltaTime": 60,
                "channel": 0,
                "type": "channel",
                "noteNumber": 92,
                "velocity": 0,
                "subtype": "noteOff"
            },
            {
                "deltaTime": 0,
                "channel": 0,
                "type": "channel",
                "noteNumber": 90,
                "velocity": 88,
                "subtype": "noteOn"
            },
            {
                "deltaTime": 60,
                "channel": 0,
                "type": "channel",
                "noteNumber": 90,
                "velocity": 0,
                "subtype": "noteOff"
            },
            {
                "deltaTime": 0,
                "channel": 0,
                "type": "channel",
                "noteNumber": 92,
                "velocity": 88,
                "subtype": "noteOn"
            },
            {
                "deltaTime": 60,
                "channel": 0,
                "type": "channel",
                "noteNumber": 92,
                "velocity": 0,
                "subtype": "noteOff"
            },
            {
                "deltaTime": 0,
                "channel": 0,
                "type": "channel",
                "noteNumber": 68,
                "velocity": 88,
                "subtype": "noteOn"
            },
            {
                "deltaTime": 80,
                "channel": 0,
                "type": "channel",
                "noteNumber": 68,
                "velocity": 0,
                "subtype": "noteOff"
            },
            {
                "deltaTime": 0,
                "channel": 0,
                "type": "channel",
                "noteNumber": 74,
                "velocity": 88,
                "subtype": "noteOn"
            },
            {
                "deltaTime": 79,
                "channel": 0,
                "type": "channel",
                "noteNumber": 74,
                "velocity": 0,
                "subtype": "noteOff"
            },
            {
                "deltaTime": 0,
                "channel": 0,
                "type": "channel",
                "noteNumber": 81,
                "velocity": 88,
                "subtype": "noteOn"
            },
            {
                "deltaTime": 81,
                "channel": 0,
                "type": "channel",
                "noteNumber": 81,
                "velocity": 0,
                "subtype": "noteOff"
            },
            {
                "deltaTime": 0,
                "channel": 0,
                "type": "channel",
                "noteNumber": 84,
                "velocity": 88,
                "subtype": "noteOn"
            },
            {
                "deltaTime": 60,
                "channel": 0,
                "type": "channel",
                "noteNumber": 84,
                "velocity": 0,
                "subtype": "noteOff"
            },
            {
                "deltaTime": 0,
                "channel": 0,
                "type": "channel",
                "noteNumber": 90,
                "velocity": 88,
                "subtype": "noteOn"
            },
            {
                "deltaTime": 60,
                "channel": 0,
                "type": "channel",
                "noteNumber": 90,
                "velocity": 0,
                "subtype": "noteOff"
            },
            {
                "deltaTime": 0,
                "channel": 0,
                "type": "channel",
                "noteNumber": 93,
                "velocity": 88,
                "subtype": "noteOn"
            },
            {
                "deltaTime": 60,
                "channel": 0,
                "type": "channel",
                "noteNumber": 93,
                "velocity": 0,
                "subtype": "noteOff"
            },
            {
                "deltaTime": 0,
                "channel": 0,
                "type": "channel",
                "noteNumber": 96,
                "velocity": 88,
                "subtype": "noteOn"
            },
            {
                "deltaTime": 60,
                "channel": 0,
                "type": "channel",
                "noteNumber": 96,
                "velocity": 0,
                "subtype": "noteOff"
            },
            {
                "deltaTime": 0,
                "channel": 0,
                "type": "channel",
                "noteNumber": 97,
                "velocity": 88,
                "subtype": "noteOn"
            },
            {
                "deltaTime": 240,
                "channel": 0,
                "type": "channel",
                "noteNumber": 97,
                "velocity": 0,
                "subtype": "noteOff"
            },
            {
                "deltaTime": 1440,
                "channel": 0,
                "type": "channel",
                "subtype": "controller",
                "controllerType": 64,
                "value": 127
            },
            {
                "deltaTime": 0,
                "channel": 0,
                "type": "channel",
                "noteNumber": 78,
                "velocity": 88,
                "subtype": "noteOn"
            },
            {
                "deltaTime": 60,
                "channel": 0,
                "type": "channel",
                "noteNumber": 78,
                "velocity": 0,
                "subtype": "noteOff"
            },
            {
                "deltaTime": 0,
                "channel": 0,
                "type": "channel",
                "noteNumber": 80,
                "velocity": 88,
                "subtype": "noteOn"
            },
            {
                "deltaTime": 60,
                "channel": 0,
                "type": "channel",
                "noteNumber": 80,
                "velocity": 0,
                "subtype": "noteOff"
            },
            {
                "deltaTime": 0,
                "channel": 0,
                "type": "channel",
                "noteNumber": 82,
                "velocity": 88,
                "subtype": "noteOn"
            },
            {
                "deltaTime": 60,
                "channel": 0,
                "type": "channel",
                "noteNumber": 82,
                "velocity": 0,
                "subtype": "noteOff"
            },
            {
                "deltaTime": 0,
                "channel": 0,
                "type": "channel",
                "noteNumber": 83,
                "velocity": 88,
                "subtype": "noteOn"
            },
            {
                "deltaTime": 60,
                "channel": 0,
                "type": "channel",
                "noteNumber": 83,
                "velocity": 0,
                "subtype": "noteOff"
            },
            {
                "deltaTime": 0,
                "channel": 0,
                "type": "channel",
                "subtype": "controller",
                "controllerType": 64,
                "value": 0
            },
            {
                "deltaTime": 0,
                "channel": 0,
                "type": "channel",
                "noteNumber": 78,
                "velocity": 88,
                "subtype": "noteOn"
            },
            {
                "deltaTime": 0,
                "channel": 0,
                "type": "channel",
                "noteNumber": 82,
                "velocity": 88,
                "subtype": "noteOn"
            },
            {
                "deltaTime": 0,
                "channel": 0,
                "type": "channel",
                "noteNumber": 85,
                "velocity": 88,
                "subtype": "noteOn"
            },
            {
                "deltaTime": 480,
                "channel": 0,
                "type": "channel",
                "noteNumber": 85,
                "velocity": 0,
                "subtype": "noteOff"
            },
            {
                "deltaTime": 0,
                "channel": 0,
                "type": "channel",
                "noteNumber": 82,
                "velocity": 0,
                "subtype": "noteOff"
            },
            {
                "deltaTime": 0,
                "channel": 0,
                "type": "channel",
                "noteNumber": 78,
                "velocity": 0,
                "subtype": "noteOff"
            },
            {
                "deltaTime": 720,
                "channel": 0,
                "type": "channel",
                "noteNumber": 78,
                "velocity": 88,
                "subtype": "noteOn"
            },
            {
                "deltaTime": 80,
                "channel": 0,
                "type": "channel",
                "noteNumber": 78,
                "velocity": 0,
                "subtype": "noteOff"
            },
            {
                "deltaTime": 0,
                "channel": 0,
                "type": "channel",
                "noteNumber": 82,
                "velocity": 88,
                "subtype": "noteOn"
            },
            {
                "deltaTime": 79,
                "channel": 0,
                "type": "channel",
                "noteNumber": 82,
                "velocity": 0,
                "subtype": "noteOff"
            },
            {
                "deltaTime": 0,
                "channel": 0,
                "type": "channel",
                "noteNumber": 85,
                "velocity": 88,
                "subtype": "noteOn"
            },
            {
                "deltaTime": 81,
                "channel": 0,
                "type": "channel",
                "noteNumber": 85,
                "velocity": 0,
                "subtype": "noteOff"
            },
            {
                "deltaTime": 0,
                "channel": 0,
                "type": "channel",
                "noteNumber": 78,
                "velocity": 88,
                "subtype": "noteOn"
            },
            {
                "deltaTime": 0,
                "channel": 0,
                "type": "channel",
                "noteNumber": 82,
                "velocity": 88,
                "subtype": "noteOn"
            },
            {
                "deltaTime": 0,
                "channel": 0,
                "type": "channel",
                "noteNumber": 86,
                "velocity": 88,
                "subtype": "noteOn"
            },
            {
                "deltaTime": 480,
                "channel": 0,
                "type": "channel",
                "noteNumber": 86,
                "velocity": 0,
                "subtype": "noteOff"
            },
            {
                "deltaTime": 0,
                "channel": 0,
                "type": "channel",
                "noteNumber": 82,
                "velocity": 0,
                "subtype": "noteOff"
            },
            {
                "deltaTime": 0,
                "channel": 0,
                "type": "channel",
                "noteNumber": 78,
                "velocity": 0,
                "subtype": "noteOff"
            },
            {
                "deltaTime": 160,
                "channel": 0,
                "type": "channel",
                "noteNumber": 78,
                "velocity": 88,
                "subtype": "noteOn"
            },
            {
                "deltaTime": 40,
                "channel": 0,
                "type": "channel",
                "noteNumber": 82,
                "velocity": 88,
                "subtype": "noteOn"
            },
            {
                "deltaTime": 40,
                "channel": 0,
                "type": "channel",
                "subtype": "controller",
                "controllerType": 64,
                "value": 127
            },
            {
                "deltaTime": 0,
                "channel": 0,
                "type": "channel",
                "noteNumber": 87,
                "velocity": 88,
                "subtype": "noteOn"
            },
            {
                "deltaTime": 102,
                "channel": 0,
                "type": "channel",
                "noteNumber": 87,
                "velocity": 0,
                "subtype": "noteOff"
            },
            {
                "deltaTime": 0,
                "channel": 0,
                "type": "channel",
                "noteNumber": 82,
                "velocity": 0,
                "subtype": "noteOff"
            },
            {
                "deltaTime": 0,
                "channel": 0,
                "type": "channel",
                "noteNumber": 78,
                "velocity": 0,
                "subtype": "noteOff"
            },
            {
                "deltaTime": 0,
                "channel": 0,
                "type": "channel",
                "noteNumber": 82,
                "velocity": 88,
                "subtype": "noteOn"
            },
            {
                "deltaTime": 103,
                "channel": 0,
                "type": "channel",
                "noteNumber": 82,
                "velocity": 0,
                "subtype": "noteOff"
            },
            {
                "deltaTime": 0,
                "channel": 0,
                "type": "channel",
                "noteNumber": 78,
                "velocity": 88,
                "subtype": "noteOn"
            },
            {
                "deltaTime": 103,
                "channel": 0,
                "type": "channel",
                "noteNumber": 78,
                "velocity": 0,
                "subtype": "noteOff"
            },
            {
                "deltaTime": 0,
                "channel": 0,
                "type": "channel",
                "noteNumber": 75,
                "velocity": 88,
                "subtype": "noteOn"
            },
            {
                "deltaTime": 103,
                "channel": 0,
                "type": "channel",
                "noteNumber": 75,
                "velocity": 0,
                "subtype": "noteOff"
            },
            {
                "deltaTime": 0,
                "channel": 0,
                "type": "channel",
                "noteNumber": 78,
                "velocity": 88,
                "subtype": "noteOn"
            },
            {
                "deltaTime": 103,
                "channel": 0,
                "type": "channel",
                "noteNumber": 78,
                "velocity": 0,
                "subtype": "noteOff"
            },
            {
                "deltaTime": 0,
                "channel": 0,
                "type": "channel",
                "noteNumber": 82,
                "velocity": 88,
                "subtype": "noteOn"
            },
            {
                "deltaTime": 103,
                "channel": 0,
                "type": "channel",
                "noteNumber": 82,
                "velocity": 0,
                "subtype": "noteOff"
            },
            {
                "deltaTime": 0,
                "channel": 0,
                "type": "channel",
                "subtype": "controller",
                "controllerType": 64,
                "value": 0
            },
            {
                "deltaTime": 0,
                "channel": 0,
                "type": "channel",
                "noteNumber": 87,
                "velocity": 88,
                "subtype": "noteOn"
            },
            {
                "deltaTime": 103,
                "channel": 0,
                "type": "channel",
                "noteNumber": 87,
                "velocity": 0,
                "subtype": "noteOff"
            },
            {
                "deltaTime": 0,
                "channel": 0,
                "type": "channel",
                "noteNumber": 79,
                "velocity": 75,
                "subtype": "noteOn"
            },
            {
                "deltaTime": 0,
                "channel": 0,
                "type": "channel",
                "noteNumber": 84,
                "velocity": 75,
                "subtype": "noteOn"
            },
            {
                "deltaTime": 0,
                "channel": 0,
                "type": "channel",
                "noteNumber": 88,
                "velocity": 75,
                "subtype": "noteOn"
            },
            {
                "deltaTime": 60,
                "channel": 0,
                "type": "channel",
                "noteNumber": 88,
                "velocity": 0,
                "subtype": "noteOff"
            },
            {
                "deltaTime": 0,
                "channel": 0,
                "type": "channel",
                "noteNumber": 84,
                "velocity": 0,
                "subtype": "noteOff"
            },
            {
                "deltaTime": 0,
                "channel": 0,
                "type": "channel",
                "noteNumber": 79,
                "velocity": 0,
                "subtype": "noteOff"
            },
            {
                "deltaTime": 0,
                "channel": 0,
                "type": "channel",
                "noteNumber": 78,
                "velocity": 75,
                "subtype": "noteOn"
            },
            {
                "deltaTime": 60,
                "channel": 0,
                "type": "channel",
                "noteNumber": 78,
                "velocity": 0,
                "subtype": "noteOff"
            },
            {
                "deltaTime": 0,
                "channel": 0,
                "type": "channel",
                "noteNumber": 79,
                "velocity": 75,
                "subtype": "noteOn"
            },
            {
                "deltaTime": 0,
                "channel": 0,
                "type": "channel",
                "noteNumber": 84,
                "velocity": 75,
                "subtype": "noteOn"
            },
            {
                "deltaTime": 0,
                "channel": 0,
                "type": "channel",
                "noteNumber": 88,
                "velocity": 75,
                "subtype": "noteOn"
            },
            {
                "deltaTime": 60,
                "channel": 0,
                "type": "channel",
                "noteNumber": 88,
                "velocity": 0,
                "subtype": "noteOff"
            },
            {
                "deltaTime": 0,
                "channel": 0,
                "type": "channel",
                "noteNumber": 84,
                "velocity": 0,
                "subtype": "noteOff"
            },
            {
                "deltaTime": 0,
                "channel": 0,
                "type": "channel",
                "noteNumber": 79,
                "velocity": 0,
                "subtype": "noteOff"
            },
            {
                "deltaTime": 0,
                "channel": 0,
                "type": "channel",
                "noteNumber": 78,
                "velocity": 75,
                "subtype": "noteOn"
            },
            {
                "deltaTime": 60,
                "channel": 0,
                "type": "channel",
                "noteNumber": 78,
                "velocity": 0,
                "subtype": "noteOff"
            },
            {
                "deltaTime": 240,
                "channel": 0,
                "type": "channel",
                "noteNumber": 80,
                "velocity": 75,
                "subtype": "noteOn"
            },
            {
                "deltaTime": 0,
                "channel": 0,
                "type": "channel",
                "noteNumber": 84,
                "velocity": 75,
                "subtype": "noteOn"
            },
            {
                "deltaTime": 0,
                "channel": 0,
                "type": "channel",
                "noteNumber": 88,
                "velocity": 75,
                "subtype": "noteOn"
            },
            {
                "deltaTime": 60,
                "channel": 0,
                "type": "channel",
                "noteNumber": 88,
                "velocity": 0,
                "subtype": "noteOff"
            },
            {
                "deltaTime": 0,
                "channel": 0,
                "type": "channel",
                "noteNumber": 84,
                "velocity": 0,
                "subtype": "noteOff"
            },
            {
                "deltaTime": 0,
                "channel": 0,
                "type": "channel",
                "noteNumber": 80,
                "velocity": 0,
                "subtype": "noteOff"
            },
            {
                "deltaTime": 0,
                "channel": 0,
                "type": "channel",
                "noteNumber": 78,
                "velocity": 75,
                "subtype": "noteOn"
            },
            {
                "deltaTime": 60,
                "channel": 0,
                "type": "channel",
                "noteNumber": 78,
                "velocity": 0,
                "subtype": "noteOff"
            },
            {
                "deltaTime": 0,
                "channel": 0,
                "type": "channel",
                "noteNumber": 80,
                "velocity": 75,
                "subtype": "noteOn"
            },
            {
                "deltaTime": 0,
                "channel": 0,
                "type": "channel",
                "noteNumber": 84,
                "velocity": 75,
                "subtype": "noteOn"
            },
            {
                "deltaTime": 0,
                "channel": 0,
                "type": "channel",
                "noteNumber": 88,
                "velocity": 75,
                "subtype": "noteOn"
            },
            {
                "deltaTime": 60,
                "channel": 0,
                "type": "channel",
                "noteNumber": 88,
                "velocity": 0,
                "subtype": "noteOff"
            },
            {
                "deltaTime": 0,
                "channel": 0,
                "type": "channel",
                "noteNumber": 84,
                "velocity": 0,
                "subtype": "noteOff"
            },
            {
                "deltaTime": 0,
                "channel": 0,
                "type": "channel",
                "noteNumber": 80,
                "velocity": 0,
                "subtype": "noteOff"
            },
            {
                "deltaTime": 0,
                "channel": 0,
                "type": "channel",
                "noteNumber": 78,
                "velocity": 75,
                "subtype": "noteOn"
            },
            {
                "deltaTime": 60,
                "channel": 0,
                "type": "channel",
                "noteNumber": 78,
                "velocity": 0,
                "subtype": "noteOff"
            },
            {
                "deltaTime": 240,
                "channel": 0,
                "type": "channel",
                "noteNumber": 81,
                "velocity": 75,
                "subtype": "noteOn"
            },
            {
                "deltaTime": 0,
                "channel": 0,
                "type": "channel",
                "noteNumber": 84,
                "velocity": 75,
                "subtype": "noteOn"
            },
            {
                "deltaTime": 0,
                "channel": 0,
                "type": "channel",
                "noteNumber": 88,
                "velocity": 75,
                "subtype": "noteOn"
            },
            {
                "deltaTime": 60,
                "channel": 0,
                "type": "channel",
                "noteNumber": 88,
                "velocity": 0,
                "subtype": "noteOff"
            },
            {
                "deltaTime": 0,
                "channel": 0,
                "type": "channel",
                "noteNumber": 84,
                "velocity": 0,
                "subtype": "noteOff"
            },
            {
                "deltaTime": 0,
                "channel": 0,
                "type": "channel",
                "noteNumber": 81,
                "velocity": 0,
                "subtype": "noteOff"
            },
            {
                "deltaTime": 0,
                "channel": 0,
                "type": "channel",
                "noteNumber": 78,
                "velocity": 75,
                "subtype": "noteOn"
            },
            {
                "deltaTime": 60,
                "channel": 0,
                "type": "channel",
                "noteNumber": 78,
                "velocity": 0,
                "subtype": "noteOff"
            },
            {
                "deltaTime": 0,
                "channel": 0,
                "type": "channel",
                "noteNumber": 81,
                "velocity": 75,
                "subtype": "noteOn"
            },
            {
                "deltaTime": 0,
                "channel": 0,
                "type": "channel",
                "noteNumber": 84,
                "velocity": 75,
                "subtype": "noteOn"
            },
            {
                "deltaTime": 0,
                "channel": 0,
                "type": "channel",
                "noteNumber": 88,
                "velocity": 75,
                "subtype": "noteOn"
            },
            {
                "deltaTime": 60,
                "channel": 0,
                "type": "channel",
                "noteNumber": 88,
                "velocity": 0,
                "subtype": "noteOff"
            },
            {
                "deltaTime": 0,
                "channel": 0,
                "type": "channel",
                "noteNumber": 84,
                "velocity": 0,
                "subtype": "noteOff"
            },
            {
                "deltaTime": 0,
                "channel": 0,
                "type": "channel",
                "noteNumber": 81,
                "velocity": 0,
                "subtype": "noteOff"
            },
            {
                "deltaTime": 0,
                "channel": 0,
                "type": "channel",
                "noteNumber": 78,
                "velocity": 75,
                "subtype": "noteOn"
            },
            {
                "deltaTime": 60,
                "channel": 0,
                "type": "channel",
                "noteNumber": 78,
                "velocity": 0,
                "subtype": "noteOff"
            },
            {
                "deltaTime": 240,
                "channel": 0,
                "type": "channel",
                "noteNumber": 67,
                "velocity": 88,
                "subtype": "noteOn"
            },
            {
                "deltaTime": 0,
                "channel": 0,
                "type": "channel",
                "noteNumber": 69,
                "velocity": 88,
                "subtype": "noteOn"
            },
            {
                "deltaTime": 0,
                "channel": 0,
                "type": "channel",
                "noteNumber": 73,
                "velocity": 88,
                "subtype": "noteOn"
            },
            {
                "deltaTime": 0,
                "channel": 0,
                "type": "channel",
                "noteNumber": 75,
                "velocity": 88,
                "subtype": "noteOn"
            },
            {
                "deltaTime": 120,
                "channel": 0,
                "type": "channel",
                "noteNumber": 75,
                "velocity": 0,
                "subtype": "noteOff"
            },
            {
                "deltaTime": 0,
                "channel": 0,
                "type": "channel",
                "noteNumber": 67,
                "velocity": 0,
                "subtype": "noteOff"
            },
            {
                "deltaTime": 0,
                "channel": 0,
                "type": "channel",
                "noteNumber": 69,
                "velocity": 0,
                "subtype": "noteOff"
            },
            {
                "deltaTime": 0,
                "channel": 0,
                "type": "channel",
                "noteNumber": 73,
                "velocity": 0,
                "subtype": "noteOff"
            },
            {
                "deltaTime": 0,
                "channel": 0,
                "type": "channel",
                "noteNumber": 67,
                "velocity": 88,
                "subtype": "noteOn"
            },
            {
                "deltaTime": 0,
                "channel": 0,
                "type": "channel",
                "noteNumber": 69,
                "velocity": 88,
                "subtype": "noteOn"
            },
            {
                "deltaTime": 0,
                "channel": 0,
                "type": "channel",
                "noteNumber": 73,
                "velocity": 88,
                "subtype": "noteOn"
            },
            {
                "deltaTime": 0,
                "channel": 0,
                "type": "channel",
                "noteNumber": 75,
                "velocity": 88,
                "subtype": "noteOn"
            },
            {
                "deltaTime": 840,
                "channel": 0,
                "type": "channel",
                "noteNumber": 75,
                "velocity": 0,
                "subtype": "noteOff"
            },
            {
                "deltaTime": 0,
                "channel": 0,
                "type": "channel",
                "noteNumber": 67,
                "velocity": 0,
                "subtype": "noteOff"
            },
            {
                "deltaTime": 0,
                "channel": 0,
                "type": "channel",
                "noteNumber": 69,
                "velocity": 0,
                "subtype": "noteOff"
            },
            {
                "deltaTime": 0,
                "channel": 0,
                "type": "channel",
                "noteNumber": 73,
                "velocity": 0,
                "subtype": "noteOff"
            },
            {
                "deltaTime": 480,
                "channel": 0,
                "type": "channel",
                "noteNumber": 73,
                "velocity": 49,
                "subtype": "noteOn"
            },
            {
                "deltaTime": 0,
                "channel": 0,
                "type": "channel",
                "noteNumber": 75,
                "velocity": 49,
                "subtype": "noteOn"
            },
            {
                "deltaTime": 120,
                "channel": 0,
                "type": "channel",
                "noteNumber": 75,
                "velocity": 0,
                "subtype": "noteOff"
            },
            {
                "deltaTime": 0,
                "channel": 0,
                "type": "channel",
                "noteNumber": 73,
                "velocity": 0,
                "subtype": "noteOff"
            },
            {
                "deltaTime": 0,
                "channel": 0,
                "type": "channel",
                "noteNumber": 73,
                "velocity": 49,
                "subtype": "noteOn"
            },
            {
                "deltaTime": 0,
                "channel": 0,
                "type": "channel",
                "noteNumber": 75,
                "velocity": 49,
                "subtype": "noteOn"
            },
            {
                "deltaTime": 120,
                "channel": 0,
                "type": "channel",
                "noteNumber": 75,
                "velocity": 0,
                "subtype": "noteOff"
            },
            {
                "deltaTime": 0,
                "channel": 0,
                "type": "channel",
                "noteNumber": 73,
                "velocity": 0,
                "subtype": "noteOff"
            },
            {
                "deltaTime": 0,
                "channel": 0,
                "type": "channel",
                "subtype": "controller",
                "controllerType": 64,
                "value": 127
            },
            {
                "deltaTime": 960,
                "channel": 0,
                "type": "channel",
                "subtype": "controller",
                "controllerType": 64,
                "value": 0
            },
            {
                "deltaTime": 0,
                "type": "meta",
                "subtype": "endOfTrack"
            }
        ],
        [
            {
                "deltaTime": 0,
                "type": "meta",
                "subtype": "unknown",
                "data": "\u0000"
            },
            {
                "deltaTime": 0,
                "type": "meta",
                "subtype": "trackName",
                "text": "Instrument17"
            },
            {
                "deltaTime": 0,
                "channel": 1,
                "type": "channel",
                "subtype": "programChange",
                "programNumber": 0
            },
            {
                "deltaTime": 0,
                "channel": 1,
                "type": "channel",
                "subtype": "controller",
                "controllerType": 7,
                "value": 127
            },
            {
                "deltaTime": 0,
                "channel": 1,
                "type": "channel",
                "subtype": "controller",
                "controllerType": 10,
                "value": 97
            },
            {
                "deltaTime": 0,
                "channel": 1,
                "type": "channel",
                "noteNumber": 75,
                "velocity": 49,
                "subtype": "noteOn"
            },
            {
                "deltaTime": 0,
                "channel": 1,
                "type": "channel",
                "noteNumber": 77,
                "velocity": 49,
                "subtype": "noteOn"
            },
            {
                "deltaTime": 120,
                "channel": 1,
                "type": "channel",
                "noteNumber": 77,
                "velocity": 0,
                "subtype": "noteOff"
            },
            {
                "deltaTime": 0,
                "channel": 1,
                "type": "channel",
                "noteNumber": 75,
                "velocity": 0,
                "subtype": "noteOff"
            },
            {
                "deltaTime": 0,
                "channel": 1,
                "type": "channel",
                "noteNumber": 71,
                "velocity": 49,
                "subtype": "noteOn"
            },
            {
                "deltaTime": 120,
                "channel": 1,
                "type": "channel",
                "noteNumber": 71,
                "velocity": 0,
                "subtype": "noteOff"
            },
            {
                "deltaTime": 0,
                "channel": 1,
                "type": "channel",
                "noteNumber": 75,
                "velocity": 49,
                "subtype": "noteOn"
            },
            {
                "deltaTime": 0,
                "channel": 1,
                "type": "channel",
                "noteNumber": 77,
                "velocity": 49,
                "subtype": "noteOn"
            },
            {
                "deltaTime": 120,
                "channel": 1,
                "type": "channel",
                "noteNumber": 77,
                "velocity": 0,
                "subtype": "noteOff"
            },
            {
                "deltaTime": 0,
                "channel": 1,
                "type": "channel",
                "noteNumber": 75,
                "velocity": 0,
                "subtype": "noteOff"
            },
            {
                "deltaTime": 0,
                "channel": 1,
                "type": "channel",
                "noteNumber": 71,
                "velocity": 49,
                "subtype": "noteOn"
            },
            {
                "deltaTime": 120,
                "channel": 1,
                "type": "channel",
                "noteNumber": 71,
                "velocity": 0,
                "subtype": "noteOff"
            },
            {
                "deltaTime": 0,
                "channel": 1,
                "type": "channel",
                "noteNumber": 75,
                "velocity": 49,
                "subtype": "noteOn"
            },
            {
                "deltaTime": 0,
                "channel": 1,
                "type": "channel",
                "noteNumber": 77,
                "velocity": 49,
                "subtype": "noteOn"
            },
            {
                "deltaTime": 120,
                "channel": 1,
                "type": "channel",
                "noteNumber": 77,
                "velocity": 0,
                "subtype": "noteOff"
            },
            {
                "deltaTime": 0,
                "channel": 1,
                "type": "channel",
                "noteNumber": 75,
                "velocity": 0,
                "subtype": "noteOff"
            },
            {
                "deltaTime": 0,
                "channel": 1,
                "type": "channel",
                "noteNumber": 71,
                "velocity": 49,
                "subtype": "noteOn"
            },
            {
                "deltaTime": 120,
                "channel": 1,
                "type": "channel",
                "noteNumber": 71,
                "velocity": 0,
                "subtype": "noteOff"
            },
            {
                "deltaTime": 0,
                "channel": 1,
                "type": "channel",
                "noteNumber": 75,
                "velocity": 49,
                "subtype": "noteOn"
            },
            {
                "deltaTime": 0,
                "channel": 1,
                "type": "channel",
                "noteNumber": 78,
                "velocity": 49,
                "subtype": "noteOn"
            },
            {
                "deltaTime": 120,
                "channel": 1,
                "type": "channel",
                "noteNumber": 78,
                "velocity": 0,
                "subtype": "noteOff"
            },
            {
                "deltaTime": 0,
                "channel": 1,
                "type": "channel",
                "noteNumber": 75,
                "velocity": 0,
                "subtype": "noteOff"
            },
            {
                "deltaTime": 0,
                "channel": 1,
                "type": "channel",
                "noteNumber": 71,
                "velocity": 49,
                "subtype": "noteOn"
            },
            {
                "deltaTime": 0,
                "channel": 1,
                "type": "channel",
                "noteNumber": 77,
                "velocity": 49,
                "subtype": "noteOn"
            },
            {
                "deltaTime": 120,
                "channel": 1,
                "type": "channel",
                "noteNumber": 77,
                "velocity": 0,
                "subtype": "noteOff"
            },
            {
                "deltaTime": 0,
                "channel": 1,
                "type": "channel",
                "noteNumber": 71,
                "velocity": 0,
                "subtype": "noteOff"
            },
            {
                "deltaTime": 0,
                "channel": 1,
                "type": "channel",
                "noteNumber": 75,
                "velocity": 49,
                "subtype": "noteOn"
            },
            {
                "deltaTime": 0,
                "channel": 1,
                "type": "channel",
                "noteNumber": 78,
                "velocity": 49,
                "subtype": "noteOn"
            },
            {
                "deltaTime": 120,
                "channel": 1,
                "type": "channel",
                "noteNumber": 78,
                "velocity": 0,
                "subtype": "noteOff"
            },
            {
                "deltaTime": 0,
                "channel": 1,
                "type": "channel",
                "noteNumber": 75,
                "velocity": 0,
                "subtype": "noteOff"
            },
            {
                "deltaTime": 0,
                "channel": 1,
                "type": "channel",
                "noteNumber": 71,
                "velocity": 49,
                "subtype": "noteOn"
            },
            {
                "deltaTime": 0,
                "channel": 1,
                "type": "channel",
                "noteNumber": 77,
                "velocity": 49,
                "subtype": "noteOn"
            },
            {
                "deltaTime": 120,
                "channel": 1,
                "type": "channel",
                "noteNumber": 77,
                "velocity": 0,
                "subtype": "noteOff"
            },
            {
                "deltaTime": 0,
                "channel": 1,
                "type": "channel",
                "noteNumber": 71,
                "velocity": 0,
                "subtype": "noteOff"
            },
            {
                "deltaTime": 0,
                "channel": 1,
                "type": "channel",
                "noteNumber": 75,
                "velocity": 49,
                "subtype": "noteOn"
            },
            {
                "deltaTime": 0,
                "channel": 1,
                "type": "channel",
                "noteNumber": 78,
                "velocity": 49,
                "subtype": "noteOn"
            },
            {
                "deltaTime": 120,
                "channel": 1,
                "type": "channel",
                "noteNumber": 78,
                "velocity": 0,
                "subtype": "noteOff"
            },
            {
                "deltaTime": 0,
                "channel": 1,
                "type": "channel",
                "noteNumber": 75,
                "velocity": 0,
                "subtype": "noteOff"
            },
            {
                "deltaTime": 0,
                "channel": 1,
                "type": "channel",
                "noteNumber": 71,
                "velocity": 49,
                "subtype": "noteOn"
            },
            {
                "deltaTime": 0,
                "channel": 1,
                "type": "channel",
                "noteNumber": 77,
                "velocity": 49,
                "subtype": "noteOn"
            },
            {
                "deltaTime": 120,
                "channel": 1,
                "type": "channel",
                "noteNumber": 77,
                "velocity": 0,
                "subtype": "noteOff"
            },
            {
                "deltaTime": 0,
                "channel": 1,
                "type": "channel",
                "noteNumber": 71,
                "velocity": 0,
                "subtype": "noteOff"
            },
            {
                "deltaTime": 0,
                "channel": 1,
                "type": "channel",
                "noteNumber": 75,
                "velocity": 49,
                "subtype": "noteOn"
            },
            {
                "deltaTime": 0,
                "channel": 1,
                "type": "channel",
                "noteNumber": 79,
                "velocity": 49,
                "subtype": "noteOn"
            },
            {
                "deltaTime": 120,
                "channel": 1,
                "type": "channel",
                "noteNumber": 79,
                "velocity": 0,
                "subtype": "noteOff"
            },
            {
                "deltaTime": 0,
                "channel": 1,
                "type": "channel",
                "noteNumber": 75,
                "velocity": 0,
                "subtype": "noteOff"
            },
            {
                "deltaTime": 0,
                "channel": 1,
                "type": "channel",
                "noteNumber": 71,
                "velocity": 49,
                "subtype": "noteOn"
            },
            {
                "deltaTime": 0,
                "channel": 1,
                "type": "channel",
                "noteNumber": 77,
                "velocity": 49,
                "subtype": "noteOn"
            },
            {
                "deltaTime": 120,
                "channel": 1,
                "type": "channel",
                "noteNumber": 77,
                "velocity": 0,
                "subtype": "noteOff"
            },
            {
                "deltaTime": 0,
                "channel": 1,
                "type": "channel",
                "noteNumber": 71,
                "velocity": 0,
                "subtype": "noteOff"
            },
            {
                "deltaTime": 0,
                "channel": 1,
                "type": "channel",
                "noteNumber": 75,
                "velocity": 49,
                "subtype": "noteOn"
            },
            {
                "deltaTime": 0,
                "channel": 1,
                "type": "channel",
                "noteNumber": 79,
                "velocity": 49,
                "subtype": "noteOn"
            },
            {
                "deltaTime": 120,
                "channel": 1,
                "type": "channel",
                "noteNumber": 79,
                "velocity": 0,
                "subtype": "noteOff"
            },
            {
                "deltaTime": 0,
                "channel": 1,
                "type": "channel",
                "noteNumber": 75,
                "velocity": 0,
                "subtype": "noteOff"
            },
            {
                "deltaTime": 0,
                "channel": 1,
                "type": "channel",
                "noteNumber": 71,
                "velocity": 49,
                "subtype": "noteOn"
            },
            {
                "deltaTime": 0,
                "channel": 1,
                "type": "channel",
                "noteNumber": 77,
                "velocity": 49,
                "subtype": "noteOn"
            },
            {
                "deltaTime": 120,
                "channel": 1,
                "type": "channel",
                "noteNumber": 77,
                "velocity": 0,
                "subtype": "noteOff"
            },
            {
                "deltaTime": 0,
                "channel": 1,
                "type": "channel",
                "noteNumber": 71,
                "velocity": 0,
                "subtype": "noteOff"
            },
            {
                "deltaTime": 0,
                "channel": 1,
                "type": "channel",
                "noteNumber": 75,
                "velocity": 49,
                "subtype": "noteOn"
            },
            {
                "deltaTime": 0,
                "channel": 1,
                "type": "channel",
                "noteNumber": 79,
                "velocity": 49,
                "subtype": "noteOn"
            },
            {
                "deltaTime": 120,
                "channel": 1,
                "type": "channel",
                "noteNumber": 79,
                "velocity": 0,
                "subtype": "noteOff"
            },
            {
                "deltaTime": 0,
                "channel": 1,
                "type": "channel",
                "noteNumber": 75,
                "velocity": 0,
                "subtype": "noteOff"
            },
            {
                "deltaTime": 0,
                "channel": 1,
                "type": "channel",
                "noteNumber": 71,
                "velocity": 49,
                "subtype": "noteOn"
            },
            {
                "deltaTime": 0,
                "channel": 1,
                "type": "channel",
                "noteNumber": 77,
                "velocity": 49,
                "subtype": "noteOn"
            },
            {
                "deltaTime": 120,
                "channel": 1,
                "type": "channel",
                "noteNumber": 77,
                "velocity": 0,
                "subtype": "noteOff"
            },
            {
                "deltaTime": 0,
                "channel": 1,
                "type": "channel",
                "noteNumber": 71,
                "velocity": 0,
                "subtype": "noteOff"
            },
            {
                "deltaTime": 0,
                "channel": 1,
                "type": "channel",
                "noteNumber": 75,
                "velocity": 49,
                "subtype": "noteOn"
            },
            {
                "deltaTime": 0,
                "channel": 1,
                "type": "channel",
                "noteNumber": 80,
                "velocity": 49,
                "subtype": "noteOn"
            },
            {
                "deltaTime": 120,
                "channel": 1,
                "type": "channel",
                "noteNumber": 80,
                "velocity": 0,
                "subtype": "noteOff"
            },
            {
                "deltaTime": 0,
                "channel": 1,
                "type": "channel",
                "noteNumber": 75,
                "velocity": 0,
                "subtype": "noteOff"
            },
            {
                "deltaTime": 0,
                "channel": 1,
                "type": "channel",
                "noteNumber": 71,
                "velocity": 49,
                "subtype": "noteOn"
            },
            {
                "deltaTime": 0,
                "channel": 1,
                "type": "channel",
                "noteNumber": 77,
                "velocity": 49,
                "subtype": "noteOn"
            },
            {
                "deltaTime": 120,
                "channel": 1,
                "type": "channel",
                "noteNumber": 77,
                "velocity": 0,
                "subtype": "noteOff"
            },
            {
                "deltaTime": 0,
                "channel": 1,
                "type": "channel",
                "noteNumber": 71,
                "velocity": 0,
                "subtype": "noteOff"
            },
            {
                "deltaTime": 0,
                "channel": 1,
                "type": "channel",
                "noteNumber": 75,
                "velocity": 49,
                "subtype": "noteOn"
            },
            {
                "deltaTime": 0,
                "channel": 1,
                "type": "channel",
                "noteNumber": 80,
                "velocity": 49,
                "subtype": "noteOn"
            },
            {
                "deltaTime": 120,
                "channel": 1,
                "type": "channel",
                "noteNumber": 80,
                "velocity": 0,
                "subtype": "noteOff"
            },
            {
                "deltaTime": 0,
                "channel": 1,
                "type": "channel",
                "noteNumber": 75,
                "velocity": 0,
                "subtype": "noteOff"
            },
            {
                "deltaTime": 0,
                "channel": 1,
                "type": "channel",
                "noteNumber": 71,
                "velocity": 49,
                "subtype": "noteOn"
            },
            {
                "deltaTime": 0,
                "channel": 1,
                "type": "channel",
                "noteNumber": 77,
                "velocity": 49,
                "subtype": "noteOn"
            },
            {
                "deltaTime": 120,
                "channel": 1,
                "type": "channel",
                "noteNumber": 77,
                "velocity": 0,
                "subtype": "noteOff"
            },
            {
                "deltaTime": 0,
                "channel": 1,
                "type": "channel",
                "noteNumber": 71,
                "velocity": 0,
                "subtype": "noteOff"
            },
            {
                "deltaTime": 0,
                "channel": 1,
                "type": "channel",
                "noteNumber": 75,
                "velocity": 49,
                "subtype": "noteOn"
            },
            {
                "deltaTime": 0,
                "channel": 1,
                "type": "channel",
                "noteNumber": 80,
                "velocity": 49,
                "subtype": "noteOn"
            },
            {
                "deltaTime": 120,
                "channel": 1,
                "type": "channel",
                "noteNumber": 80,
                "velocity": 0,
                "subtype": "noteOff"
            },
            {
                "deltaTime": 0,
                "channel": 1,
                "type": "channel",
                "noteNumber": 75,
                "velocity": 0,
                "subtype": "noteOff"
            },
            {
                "deltaTime": 0,
                "channel": 1,
                "type": "channel",
                "noteNumber": 71,
                "velocity": 49,
                "subtype": "noteOn"
            },
            {
                "deltaTime": 0,
                "channel": 1,
                "type": "channel",
                "noteNumber": 77,
                "velocity": 49,
                "subtype": "noteOn"
            },
            {
                "deltaTime": 120,
                "channel": 1,
                "type": "channel",
                "noteNumber": 77,
                "velocity": 0,
                "subtype": "noteOff"
            },
            {
                "deltaTime": 0,
                "channel": 1,
                "type": "channel",
                "noteNumber": 71,
                "velocity": 0,
                "subtype": "noteOff"
            },
            {
                "deltaTime": 0,
                "channel": 1,
                "type": "channel",
                "noteNumber": 72,
                "velocity": 49,
                "subtype": "noteOn"
            },
            {
                "deltaTime": 0,
                "channel": 1,
                "type": "channel",
                "noteNumber": 77,
                "velocity": 49,
                "subtype": "noteOn"
            },
            {
                "deltaTime": 0,
                "channel": 1,
                "type": "channel",
                "noteNumber": 81,
                "velocity": 49,
                "subtype": "noteOn"
            },
            {
                "deltaTime": 60,
                "channel": 1,
                "type": "channel",
                "noteNumber": 81,
                "velocity": 0,
                "subtype": "noteOff"
            },
            {
                "deltaTime": 0,
                "channel": 1,
                "type": "channel",
                "noteNumber": 77,
                "velocity": 0,
                "subtype": "noteOff"
            },
            {
                "deltaTime": 0,
                "channel": 1,
                "type": "channel",
                "noteNumber": 72,
                "velocity": 0,
                "subtype": "noteOff"
            },
            {
                "deltaTime": 0,
                "channel": 1,
                "type": "channel",
                "noteNumber": 71,
                "velocity": 49,
                "subtype": "noteOn"
            },
            {
                "deltaTime": 60,
                "channel": 1,
                "type": "channel",
                "noteNumber": 71,
                "velocity": 0,
                "subtype": "noteOff"
            },
            {
                "deltaTime": 0,
                "channel": 1,
                "type": "channel",
                "noteNumber": 72,
                "velocity": 49,
                "subtype": "noteOn"
            },
            {
                "deltaTime": 0,
                "channel": 1,
                "type": "channel",
                "noteNumber": 77,
                "velocity": 49,
                "subtype": "noteOn"
            },
            {
                "deltaTime": 0,
                "channel": 1,
                "type": "channel",
                "noteNumber": 81,
                "velocity": 49,
                "subtype": "noteOn"
            },
            {
                "deltaTime": 60,
                "channel": 1,
                "type": "channel",
                "noteNumber": 81,
                "velocity": 0,
                "subtype": "noteOff"
            },
            {
                "deltaTime": 0,
                "channel": 1,
                "type": "channel",
                "noteNumber": 77,
                "velocity": 0,
                "subtype": "noteOff"
            },
            {
                "deltaTime": 0,
                "channel": 1,
                "type": "channel",
                "noteNumber": 72,
                "velocity": 0,
                "subtype": "noteOff"
            },
            {
                "deltaTime": 0,
                "channel": 1,
                "type": "channel",
                "noteNumber": 71,
                "velocity": 49,
                "subtype": "noteOn"
            },
            {
                "deltaTime": 60,
                "channel": 1,
                "type": "channel",
                "noteNumber": 71,
                "velocity": 0,
                "subtype": "noteOff"
            },
            {
                "deltaTime": 240,
                "channel": 1,
                "type": "channel",
                "noteNumber": 73,
                "velocity": 49,
                "subtype": "noteOn"
            },
            {
                "deltaTime": 0,
                "channel": 1,
                "type": "channel",
                "noteNumber": 77,
                "velocity": 49,
                "subtype": "noteOn"
            },
            {
                "deltaTime": 0,
                "channel": 1,
                "type": "channel",
                "noteNumber": 81,
                "velocity": 49,
                "subtype": "noteOn"
            },
            {
                "deltaTime": 60,
                "channel": 1,
                "type": "channel",
                "noteNumber": 81,
                "velocity": 0,
                "subtype": "noteOff"
            },
            {
                "deltaTime": 0,
                "channel": 1,
                "type": "channel",
                "noteNumber": 77,
                "velocity": 0,
                "subtype": "noteOff"
            },
            {
                "deltaTime": 0,
                "channel": 1,
                "type": "channel",
                "noteNumber": 73,
                "velocity": 0,
                "subtype": "noteOff"
            },
            {
                "deltaTime": 0,
                "channel": 1,
                "type": "channel",
                "noteNumber": 71,
                "velocity": 49,
                "subtype": "noteOn"
            },
            {
                "deltaTime": 60,
                "channel": 1,
                "type": "channel",
                "noteNumber": 71,
                "velocity": 0,
                "subtype": "noteOff"
            },
            {
                "deltaTime": 0,
                "channel": 1,
                "type": "channel",
                "noteNumber": 73,
                "velocity": 49,
                "subtype": "noteOn"
            },
            {
                "deltaTime": 0,
                "channel": 1,
                "type": "channel",
                "noteNumber": 77,
                "velocity": 49,
                "subtype": "noteOn"
            },
            {
                "deltaTime": 0,
                "channel": 1,
                "type": "channel",
                "noteNumber": 81,
                "velocity": 49,
                "subtype": "noteOn"
            },
            {
                "deltaTime": 60,
                "channel": 1,
                "type": "channel",
                "noteNumber": 81,
                "velocity": 0,
                "subtype": "noteOff"
            },
            {
                "deltaTime": 0,
                "channel": 1,
                "type": "channel",
                "noteNumber": 77,
                "velocity": 0,
                "subtype": "noteOff"
            },
            {
                "deltaTime": 0,
                "channel": 1,
                "type": "channel",
                "noteNumber": 73,
                "velocity": 0,
                "subtype": "noteOff"
            },
            {
                "deltaTime": 0,
                "channel": 1,
                "type": "channel",
                "noteNumber": 71,
                "velocity": 49,
                "subtype": "noteOn"
            },
            {
                "deltaTime": 60,
                "channel": 1,
                "type": "channel",
                "noteNumber": 71,
                "velocity": 0,
                "subtype": "noteOff"
            },
            {
                "deltaTime": 240,
                "channel": 1,
                "type": "channel",
                "noteNumber": 74,
                "velocity": 49,
                "subtype": "noteOn"
            },
            {
                "deltaTime": 0,
                "channel": 1,
                "type": "channel",
                "noteNumber": 77,
                "velocity": 49,
                "subtype": "noteOn"
            },
            {
                "deltaTime": 0,
                "channel": 1,
                "type": "channel",
                "noteNumber": 81,
                "velocity": 49,
                "subtype": "noteOn"
            },
            {
                "deltaTime": 60,
                "channel": 1,
                "type": "channel",
                "noteNumber": 81,
                "velocity": 0,
                "subtype": "noteOff"
            },
            {
                "deltaTime": 0,
                "channel": 1,
                "type": "channel",
                "noteNumber": 77,
                "velocity": 0,
                "subtype": "noteOff"
            },
            {
                "deltaTime": 0,
                "channel": 1,
                "type": "channel",
                "noteNumber": 74,
                "velocity": 0,
                "subtype": "noteOff"
            },
            {
                "deltaTime": 0,
                "channel": 1,
                "type": "channel",
                "noteNumber": 71,
                "velocity": 49,
                "subtype": "noteOn"
            },
            {
                "deltaTime": 60,
                "channel": 1,
                "type": "channel",
                "noteNumber": 71,
                "velocity": 0,
                "subtype": "noteOff"
            },
            {
                "deltaTime": 0,
                "channel": 1,
                "type": "channel",
                "noteNumber": 74,
                "velocity": 49,
                "subtype": "noteOn"
            },
            {
                "deltaTime": 0,
                "channel": 1,
                "type": "channel",
                "noteNumber": 77,
                "velocity": 49,
                "subtype": "noteOn"
            },
            {
                "deltaTime": 0,
                "channel": 1,
                "type": "channel",
                "noteNumber": 81,
                "velocity": 49,
                "subtype": "noteOn"
            },
            {
                "deltaTime": 60,
                "channel": 1,
                "type": "channel",
                "noteNumber": 81,
                "velocity": 0,
                "subtype": "noteOff"
            },
            {
                "deltaTime": 0,
                "channel": 1,
                "type": "channel",
                "noteNumber": 77,
                "velocity": 0,
                "subtype": "noteOff"
            },
            {
                "deltaTime": 0,
                "channel": 1,
                "type": "channel",
                "noteNumber": 74,
                "velocity": 0,
                "subtype": "noteOff"
            },
            {
                "deltaTime": 0,
                "channel": 1,
                "type": "channel",
                "noteNumber": 71,
                "velocity": 49,
                "subtype": "noteOn"
            },
            {
                "deltaTime": 60,
                "channel": 1,
                "type": "channel",
                "noteNumber": 71,
                "velocity": 0,
                "subtype": "noteOff"
            },
            {
                "deltaTime": 240,
                "channel": 1,
                "type": "channel",
                "noteNumber": 75,
                "velocity": 49,
                "subtype": "noteOn"
            },
            {
                "deltaTime": 0,
                "channel": 1,
                "type": "channel",
                "noteNumber": 77,
                "velocity": 49,
                "subtype": "noteOn"
            },
            {
                "deltaTime": 0,
                "channel": 1,
                "type": "channel",
                "noteNumber": 81,
                "velocity": 49,
                "subtype": "noteOn"
            },
            {
                "deltaTime": 60,
                "channel": 1,
                "type": "channel",
                "noteNumber": 81,
                "velocity": 0,
                "subtype": "noteOff"
            },
            {
                "deltaTime": 0,
                "channel": 1,
                "type": "channel",
                "noteNumber": 77,
                "velocity": 0,
                "subtype": "noteOff"
            },
            {
                "deltaTime": 0,
                "channel": 1,
                "type": "channel",
                "noteNumber": 75,
                "velocity": 0,
                "subtype": "noteOff"
            },
            {
                "deltaTime": 0,
                "channel": 1,
                "type": "channel",
                "noteNumber": 71,
                "velocity": 49,
                "subtype": "noteOn"
            },
            {
                "deltaTime": 60,
                "channel": 1,
                "type": "channel",
                "noteNumber": 71,
                "velocity": 0,
                "subtype": "noteOff"
            },
            {
                "deltaTime": 0,
                "channel": 1,
                "type": "channel",
                "noteNumber": 75,
                "velocity": 49,
                "subtype": "noteOn"
            },
            {
                "deltaTime": 0,
                "channel": 1,
                "type": "channel",
                "noteNumber": 77,
                "velocity": 49,
                "subtype": "noteOn"
            },
            {
                "deltaTime": 0,
                "channel": 1,
                "type": "channel",
                "noteNumber": 81,
                "velocity": 49,
                "subtype": "noteOn"
            },
            {
                "deltaTime": 60,
                "channel": 1,
                "type": "channel",
                "noteNumber": 81,
                "velocity": 0,
                "subtype": "noteOff"
            },
            {
                "deltaTime": 0,
                "channel": 1,
                "type": "channel",
                "noteNumber": 77,
                "velocity": 0,
                "subtype": "noteOff"
            },
            {
                "deltaTime": 0,
                "channel": 1,
                "type": "channel",
                "noteNumber": 75,
                "velocity": 0,
                "subtype": "noteOff"
            },
            {
                "deltaTime": 0,
                "channel": 1,
                "type": "channel",
                "noteNumber": 71,
                "velocity": 49,
                "subtype": "noteOn"
            },
            {
                "deltaTime": 60,
                "channel": 1,
                "type": "channel",
                "noteNumber": 71,
                "velocity": 0,
                "subtype": "noteOff"
            },
            {
                "deltaTime": 0,
                "channel": 1,
                "type": "channel",
                "noteNumber": 75,
                "velocity": 49,
                "subtype": "noteOn"
            },
            {
                "deltaTime": 0,
                "channel": 1,
                "type": "channel",
                "noteNumber": 77,
                "velocity": 49,
                "subtype": "noteOn"
            },
            {
                "deltaTime": 0,
                "channel": 1,
                "type": "channel",
                "noteNumber": 81,
                "velocity": 49,
                "subtype": "noteOn"
            },
            {
                "deltaTime": 60,
                "channel": 1,
                "type": "channel",
                "noteNumber": 81,
                "velocity": 0,
                "subtype": "noteOff"
            },
            {
                "deltaTime": 0,
                "channel": 1,
                "type": "channel",
                "noteNumber": 77,
                "velocity": 0,
                "subtype": "noteOff"
            },
            {
                "deltaTime": 0,
                "channel": 1,
                "type": "channel",
                "noteNumber": 75,
                "velocity": 0,
                "subtype": "noteOff"
            },
            {
                "deltaTime": 0,
                "channel": 1,
                "type": "channel",
                "noteNumber": 71,
                "velocity": 49,
                "subtype": "noteOn"
            },
            {
                "deltaTime": 60,
                "channel": 1,
                "type": "channel",
                "noteNumber": 71,
                "velocity": 0,
                "subtype": "noteOff"
            },
            {
                "deltaTime": 0,
                "channel": 1,
                "type": "channel",
                "noteNumber": 75,
                "velocity": 49,
                "subtype": "noteOn"
            },
            {
                "deltaTime": 0,
                "channel": 1,
                "type": "channel",
                "noteNumber": 77,
                "velocity": 49,
                "subtype": "noteOn"
            },
            {
                "deltaTime": 0,
                "channel": 1,
                "type": "channel",
                "noteNumber": 81,
                "velocity": 49,
                "subtype": "noteOn"
            },
            {
                "deltaTime": 60,
                "channel": 1,
                "type": "channel",
                "noteNumber": 81,
                "velocity": 0,
                "subtype": "noteOff"
            },
            {
                "deltaTime": 0,
                "channel": 1,
                "type": "channel",
                "noteNumber": 77,
                "velocity": 0,
                "subtype": "noteOff"
            },
            {
                "deltaTime": 0,
                "channel": 1,
                "type": "channel",
                "noteNumber": 75,
                "velocity": 0,
                "subtype": "noteOff"
            },
            {
                "deltaTime": 0,
                "channel": 1,
                "type": "channel",
                "noteNumber": 71,
                "velocity": 49,
                "subtype": "noteOn"
            },
            {
                "deltaTime": 60,
                "channel": 1,
                "type": "channel",
                "noteNumber": 71,
                "velocity": 0,
                "subtype": "noteOff"
            },
            {
                "deltaTime": 0,
                "channel": 1,
                "type": "channel",
                "noteNumber": 75,
                "velocity": 49,
                "subtype": "noteOn"
            },
            {
                "deltaTime": 0,
                "channel": 1,
                "type": "channel",
                "noteNumber": 77,
                "velocity": 49,
                "subtype": "noteOn"
            },
            {
                "deltaTime": 0,
                "channel": 1,
                "type": "channel",
                "noteNumber": 81,
                "velocity": 49,
                "subtype": "noteOn"
            },
            {
                "deltaTime": 60,
                "channel": 1,
                "type": "channel",
                "noteNumber": 81,
                "velocity": 0,
                "subtype": "noteOff"
            },
            {
                "deltaTime": 0,
                "channel": 1,
                "type": "channel",
                "noteNumber": 77,
                "velocity": 0,
                "subtype": "noteOff"
            },
            {
                "deltaTime": 0,
                "channel": 1,
                "type": "channel",
                "noteNumber": 75,
                "velocity": 0,
                "subtype": "noteOff"
            },
            {
                "deltaTime": 0,
                "channel": 1,
                "type": "channel",
                "noteNumber": 71,
                "velocity": 49,
                "subtype": "noteOn"
            },
            {
                "deltaTime": 60,
                "channel": 1,
                "type": "channel",
                "noteNumber": 71,
                "velocity": 0,
                "subtype": "noteOff"
            },
            {
                "deltaTime": 0,
                "channel": 1,
                "type": "channel",
                "noteNumber": 75,
                "velocity": 49,
                "subtype": "noteOn"
            },
            {
                "deltaTime": 0,
                "channel": 1,
                "type": "channel",
                "noteNumber": 77,
                "velocity": 49,
                "subtype": "noteOn"
            },
            {
                "deltaTime": 0,
                "channel": 1,
                "type": "channel",
                "noteNumber": 81,
                "velocity": 49,
                "subtype": "noteOn"
            },
            {
                "deltaTime": 60,
                "channel": 1,
                "type": "channel",
                "noteNumber": 81,
                "velocity": 0,
                "subtype": "noteOff"
            },
            {
                "deltaTime": 0,
                "channel": 1,
                "type": "channel",
                "noteNumber": 77,
                "velocity": 0,
                "subtype": "noteOff"
            },
            {
                "deltaTime": 0,
                "channel": 1,
                "type": "channel",
                "noteNumber": 75,
                "velocity": 0,
                "subtype": "noteOff"
            },
            {
                "deltaTime": 0,
                "channel": 1,
                "type": "channel",
                "noteNumber": 71,
                "velocity": 49,
                "subtype": "noteOn"
            },
            {
                "deltaTime": 60,
                "channel": 1,
                "type": "channel",
                "noteNumber": 71,
                "velocity": 0,
                "subtype": "noteOff"
            },
            {
                "deltaTime": 240,
                "channel": 1,
                "type": "channel",
                "noteNumber": 75,
                "velocity": 49,
                "subtype": "noteOn"
            },
            {
                "deltaTime": 0,
                "channel": 1,
                "type": "channel",
                "noteNumber": 77,
                "velocity": 49,
                "subtype": "noteOn"
            },
            {
                "deltaTime": 0,
                "channel": 1,
                "type": "channel",
                "noteNumber": 81,
                "velocity": 49,
                "subtype": "noteOn"
            },
            {
                "deltaTime": 60,
                "channel": 1,
                "type": "channel",
                "noteNumber": 81,
                "velocity": 0,
                "subtype": "noteOff"
            },
            {
                "deltaTime": 0,
                "channel": 1,
                "type": "channel",
                "noteNumber": 77,
                "velocity": 0,
                "subtype": "noteOff"
            },
            {
                "deltaTime": 0,
                "channel": 1,
                "type": "channel",
                "noteNumber": 75,
                "velocity": 0,
                "subtype": "noteOff"
            },
            {
                "deltaTime": 0,
                "channel": 1,
                "type": "channel",
                "noteNumber": 71,
                "velocity": 49,
                "subtype": "noteOn"
            },
            {
                "deltaTime": 60,
                "channel": 1,
                "type": "channel",
                "noteNumber": 71,
                "velocity": 0,
                "subtype": "noteOff"
            },
            {
                "deltaTime": 0,
                "channel": 1,
                "type": "channel",
                "noteNumber": 75,
                "velocity": 49,
                "subtype": "noteOn"
            },
            {
                "deltaTime": 0,
                "channel": 1,
                "type": "channel",
                "noteNumber": 77,
                "velocity": 49,
                "subtype": "noteOn"
            },
            {
                "deltaTime": 0,
                "channel": 1,
                "type": "channel",
                "noteNumber": 81,
                "velocity": 49,
                "subtype": "noteOn"
            },
            {
                "deltaTime": 60,
                "channel": 1,
                "type": "channel",
                "noteNumber": 81,
                "velocity": 0,
                "subtype": "noteOff"
            },
            {
                "deltaTime": 0,
                "channel": 1,
                "type": "channel",
                "noteNumber": 77,
                "velocity": 0,
                "subtype": "noteOff"
            },
            {
                "deltaTime": 0,
                "channel": 1,
                "type": "channel",
                "noteNumber": 75,
                "velocity": 0,
                "subtype": "noteOff"
            },
            {
                "deltaTime": 0,
                "channel": 1,
                "type": "channel",
                "noteNumber": 71,
                "velocity": 49,
                "subtype": "noteOn"
            },
            {
                "deltaTime": 60,
                "channel": 1,
                "type": "channel",
                "noteNumber": 71,
                "velocity": 0,
                "subtype": "noteOff"
            },
            {
                "deltaTime": 240,
                "channel": 1,
                "type": "channel",
                "noteNumber": 78,
                "velocity": 49,
                "subtype": "noteOn"
            },
            {
                "deltaTime": 0,
                "channel": 1,
                "type": "channel",
                "noteNumber": 80,
                "velocity": 49,
                "subtype": "noteOn"
            },
            {
                "deltaTime": 120,
                "channel": 1,
                "type": "channel",
                "noteNumber": 80,
                "velocity": 0,
                "subtype": "noteOff"
            },
            {
                "deltaTime": 0,
                "channel": 1,
                "type": "channel",
                "noteNumber": 78,
                "velocity": 0,
                "subtype": "noteOff"
            },
            {
                "deltaTime": 0,
                "channel": 1,
                "type": "channel",
                "noteNumber": 74,
                "velocity": 49,
                "subtype": "noteOn"
            },
            {
                "deltaTime": 120,
                "channel": 1,
                "type": "channel",
                "noteNumber": 74,
                "velocity": 0,
                "subtype": "noteOff"
            },
            {
                "deltaTime": 0,
                "channel": 1,
                "type": "channel",
                "noteNumber": 78,
                "velocity": 49,
                "subtype": "noteOn"
            },
            {
                "deltaTime": 0,
                "channel": 1,
                "type": "channel",
                "noteNumber": 80,
                "velocity": 49,
                "subtype": "noteOn"
            },
            {
                "deltaTime": 120,
                "channel": 1,
                "type": "channel",
                "noteNumber": 80,
                "velocity": 0,
                "subtype": "noteOff"
            },
            {
                "deltaTime": 0,
                "channel": 1,
                "type": "channel",
                "noteNumber": 78,
                "velocity": 0,
                "subtype": "noteOff"
            },
            {
                "deltaTime": 0,
                "channel": 1,
                "type": "channel",
                "noteNumber": 74,
                "velocity": 49,
                "subtype": "noteOn"
            },
            {
                "deltaTime": 120,
                "channel": 1,
                "type": "channel",
                "noteNumber": 74,
                "velocity": 0,
                "subtype": "noteOff"
            },
            {
                "deltaTime": 0,
                "channel": 1,
                "type": "channel",
                "noteNumber": 78,
                "velocity": 49,
                "subtype": "noteOn"
            },
            {
                "deltaTime": 0,
                "channel": 1,
                "type": "channel",
                "noteNumber": 80,
                "velocity": 49,
                "subtype": "noteOn"
            },
            {
                "deltaTime": 120,
                "channel": 1,
                "type": "channel",
                "noteNumber": 80,
                "velocity": 0,
                "subtype": "noteOff"
            },
            {
                "deltaTime": 0,
                "channel": 1,
                "type": "channel",
                "noteNumber": 78,
                "velocity": 0,
                "subtype": "noteOff"
            },
            {
                "deltaTime": 0,
                "channel": 1,
                "type": "channel",
                "noteNumber": 74,
                "velocity": 49,
                "subtype": "noteOn"
            },
            {
                "deltaTime": 120,
                "channel": 1,
                "type": "channel",
                "noteNumber": 74,
                "velocity": 0,
                "subtype": "noteOff"
            },
            {
                "deltaTime": 0,
                "channel": 1,
                "type": "channel",
                "noteNumber": 78,
                "velocity": 49,
                "subtype": "noteOn"
            },
            {
                "deltaTime": 0,
                "channel": 1,
                "type": "channel",
                "noteNumber": 81,
                "velocity": 49,
                "subtype": "noteOn"
            },
            {
                "deltaTime": 120,
                "channel": 1,
                "type": "channel",
                "noteNumber": 81,
                "velocity": 0,
                "subtype": "noteOff"
            },
            {
                "deltaTime": 0,
                "channel": 1,
                "type": "channel",
                "noteNumber": 78,
                "velocity": 0,
                "subtype": "noteOff"
            },
            {
                "deltaTime": 0,
                "channel": 1,
                "type": "channel",
                "noteNumber": 74,
                "velocity": 49,
                "subtype": "noteOn"
            },
            {
                "deltaTime": 0,
                "channel": 1,
                "type": "channel",
                "noteNumber": 80,
                "velocity": 49,
                "subtype": "noteOn"
            },
            {
                "deltaTime": 120,
                "channel": 1,
                "type": "channel",
                "noteNumber": 80,
                "velocity": 0,
                "subtype": "noteOff"
            },
            {
                "deltaTime": 0,
                "channel": 1,
                "type": "channel",
                "noteNumber": 74,
                "velocity": 0,
                "subtype": "noteOff"
            },
            {
                "deltaTime": 0,
                "channel": 1,
                "type": "channel",
                "noteNumber": 78,
                "velocity": 49,
                "subtype": "noteOn"
            },
            {
                "deltaTime": 0,
                "channel": 1,
                "type": "channel",
                "noteNumber": 81,
                "velocity": 49,
                "subtype": "noteOn"
            },
            {
                "deltaTime": 120,
                "channel": 1,
                "type": "channel",
                "noteNumber": 81,
                "velocity": 0,
                "subtype": "noteOff"
            },
            {
                "deltaTime": 0,
                "channel": 1,
                "type": "channel",
                "noteNumber": 78,
                "velocity": 0,
                "subtype": "noteOff"
            },
            {
                "deltaTime": 0,
                "channel": 1,
                "type": "channel",
                "noteNumber": 74,
                "velocity": 49,
                "subtype": "noteOn"
            },
            {
                "deltaTime": 0,
                "channel": 1,
                "type": "channel",
                "noteNumber": 80,
                "velocity": 49,
                "subtype": "noteOn"
            },
            {
                "deltaTime": 120,
                "channel": 1,
                "type": "channel",
                "noteNumber": 80,
                "velocity": 0,
                "subtype": "noteOff"
            },
            {
                "deltaTime": 0,
                "channel": 1,
                "type": "channel",
                "noteNumber": 74,
                "velocity": 0,
                "subtype": "noteOff"
            },
            {
                "deltaTime": 0,
                "channel": 1,
                "type": "channel",
                "noteNumber": 78,
                "velocity": 49,
                "subtype": "noteOn"
            },
            {
                "deltaTime": 0,
                "channel": 1,
                "type": "channel",
                "noteNumber": 81,
                "velocity": 49,
                "subtype": "noteOn"
            },
            {
                "deltaTime": 120,
                "channel": 1,
                "type": "channel",
                "noteNumber": 81,
                "velocity": 0,
                "subtype": "noteOff"
            },
            {
                "deltaTime": 0,
                "channel": 1,
                "type": "channel",
                "noteNumber": 78,
                "velocity": 0,
                "subtype": "noteOff"
            },
            {
                "deltaTime": 0,
                "channel": 1,
                "type": "channel",
                "noteNumber": 74,
                "velocity": 49,
                "subtype": "noteOn"
            },
            {
                "deltaTime": 0,
                "channel": 1,
                "type": "channel",
                "noteNumber": 80,
                "velocity": 49,
                "subtype": "noteOn"
            },
            {
                "deltaTime": 120,
                "channel": 1,
                "type": "channel",
                "noteNumber": 80,
                "velocity": 0,
                "subtype": "noteOff"
            },
            {
                "deltaTime": 0,
                "channel": 1,
                "type": "channel",
                "noteNumber": 74,
                "velocity": 0,
                "subtype": "noteOff"
            },
            {
                "deltaTime": 0,
                "channel": 1,
                "type": "channel",
                "noteNumber": 78,
                "velocity": 49,
                "subtype": "noteOn"
            },
            {
                "deltaTime": 0,
                "channel": 1,
                "type": "channel",
                "noteNumber": 82,
                "velocity": 49,
                "subtype": "noteOn"
            },
            {
                "deltaTime": 120,
                "channel": 1,
                "type": "channel",
                "noteNumber": 82,
                "velocity": 0,
                "subtype": "noteOff"
            },
            {
                "deltaTime": 0,
                "channel": 1,
                "type": "channel",
                "noteNumber": 78,
                "velocity": 0,
                "subtype": "noteOff"
            },
            {
                "deltaTime": 0,
                "channel": 1,
                "type": "channel",
                "noteNumber": 74,
                "velocity": 49,
                "subtype": "noteOn"
            },
            {
                "deltaTime": 0,
                "channel": 1,
                "type": "channel",
                "noteNumber": 80,
                "velocity": 49,
                "subtype": "noteOn"
            },
            {
                "deltaTime": 120,
                "channel": 1,
                "type": "channel",
                "noteNumber": 80,
                "velocity": 0,
                "subtype": "noteOff"
            },
            {
                "deltaTime": 0,
                "channel": 1,
                "type": "channel",
                "noteNumber": 74,
                "velocity": 0,
                "subtype": "noteOff"
            },
            {
                "deltaTime": 0,
                "channel": 1,
                "type": "channel",
                "noteNumber": 78,
                "velocity": 49,
                "subtype": "noteOn"
            },
            {
                "deltaTime": 0,
                "channel": 1,
                "type": "channel",
                "noteNumber": 82,
                "velocity": 49,
                "subtype": "noteOn"
            },
            {
                "deltaTime": 120,
                "channel": 1,
                "type": "channel",
                "noteNumber": 82,
                "velocity": 0,
                "subtype": "noteOff"
            },
            {
                "deltaTime": 0,
                "channel": 1,
                "type": "channel",
                "noteNumber": 78,
                "velocity": 0,
                "subtype": "noteOff"
            },
            {
                "deltaTime": 0,
                "channel": 1,
                "type": "channel",
                "noteNumber": 74,
                "velocity": 49,
                "subtype": "noteOn"
            },
            {
                "deltaTime": 0,
                "channel": 1,
                "type": "channel",
                "noteNumber": 80,
                "velocity": 49,
                "subtype": "noteOn"
            },
            {
                "deltaTime": 120,
                "channel": 1,
                "type": "channel",
                "noteNumber": 80,
                "velocity": 0,
                "subtype": "noteOff"
            },
            {
                "deltaTime": 0,
                "channel": 1,
                "type": "channel",
                "noteNumber": 74,
                "velocity": 0,
                "subtype": "noteOff"
            },
            {
                "deltaTime": 0,
                "channel": 1,
                "type": "channel",
                "noteNumber": 78,
                "velocity": 49,
                "subtype": "noteOn"
            },
            {
                "deltaTime": 0,
                "channel": 1,
                "type": "channel",
                "noteNumber": 82,
                "velocity": 49,
                "subtype": "noteOn"
            },
            {
                "deltaTime": 120,
                "channel": 1,
                "type": "channel",
                "noteNumber": 82,
                "velocity": 0,
                "subtype": "noteOff"
            },
            {
                "deltaTime": 0,
                "channel": 1,
                "type": "channel",
                "noteNumber": 78,
                "velocity": 0,
                "subtype": "noteOff"
            },
            {
                "deltaTime": 0,
                "channel": 1,
                "type": "channel",
                "noteNumber": 74,
                "velocity": 49,
                "subtype": "noteOn"
            },
            {
                "deltaTime": 0,
                "channel": 1,
                "type": "channel",
                "noteNumber": 80,
                "velocity": 49,
                "subtype": "noteOn"
            },
            {
                "deltaTime": 120,
                "channel": 1,
                "type": "channel",
                "noteNumber": 80,
                "velocity": 0,
                "subtype": "noteOff"
            },
            {
                "deltaTime": 0,
                "channel": 1,
                "type": "channel",
                "noteNumber": 74,
                "velocity": 0,
                "subtype": "noteOff"
            },
            {
                "deltaTime": 0,
                "channel": 1,
                "type": "channel",
                "noteNumber": 78,
                "velocity": 49,
                "subtype": "noteOn"
            },
            {
                "deltaTime": 0,
                "channel": 1,
                "type": "channel",
                "noteNumber": 83,
                "velocity": 49,
                "subtype": "noteOn"
            },
            {
                "deltaTime": 120,
                "channel": 1,
                "type": "channel",
                "noteNumber": 83,
                "velocity": 0,
                "subtype": "noteOff"
            },
            {
                "deltaTime": 0,
                "channel": 1,
                "type": "channel",
                "noteNumber": 78,
                "velocity": 0,
                "subtype": "noteOff"
            },
            {
                "deltaTime": 0,
                "channel": 1,
                "type": "channel",
                "noteNumber": 74,
                "velocity": 49,
                "subtype": "noteOn"
            },
            {
                "deltaTime": 0,
                "channel": 1,
                "type": "channel",
                "noteNumber": 80,
                "velocity": 49,
                "subtype": "noteOn"
            },
            {
                "deltaTime": 120,
                "channel": 1,
                "type": "channel",
                "noteNumber": 80,
                "velocity": 0,
                "subtype": "noteOff"
            },
            {
                "deltaTime": 0,
                "channel": 1,
                "type": "channel",
                "noteNumber": 74,
                "velocity": 0,
                "subtype": "noteOff"
            },
            {
                "deltaTime": 0,
                "channel": 1,
                "type": "channel",
                "noteNumber": 78,
                "velocity": 49,
                "subtype": "noteOn"
            },
            {
                "deltaTime": 0,
                "channel": 1,
                "type": "channel",
                "noteNumber": 83,
                "velocity": 49,
                "subtype": "noteOn"
            },
            {
                "deltaTime": 120,
                "channel": 1,
                "type": "channel",
                "noteNumber": 83,
                "velocity": 0,
                "subtype": "noteOff"
            },
            {
                "deltaTime": 0,
                "channel": 1,
                "type": "channel",
                "noteNumber": 78,
                "velocity": 0,
                "subtype": "noteOff"
            },
            {
                "deltaTime": 0,
                "channel": 1,
                "type": "channel",
                "noteNumber": 74,
                "velocity": 49,
                "subtype": "noteOn"
            },
            {
                "deltaTime": 0,
                "channel": 1,
                "type": "channel",
                "noteNumber": 80,
                "velocity": 49,
                "subtype": "noteOn"
            },
            {
                "deltaTime": 120,
                "channel": 1,
                "type": "channel",
                "noteNumber": 80,
                "velocity": 0,
                "subtype": "noteOff"
            },
            {
                "deltaTime": 0,
                "channel": 1,
                "type": "channel",
                "noteNumber": 74,
                "velocity": 0,
                "subtype": "noteOff"
            },
            {
                "deltaTime": 0,
                "channel": 1,
                "type": "channel",
                "noteNumber": 78,
                "velocity": 49,
                "subtype": "noteOn"
            },
            {
                "deltaTime": 0,
                "channel": 1,
                "type": "channel",
                "noteNumber": 83,
                "velocity": 49,
                "subtype": "noteOn"
            },
            {
                "deltaTime": 120,
                "channel": 1,
                "type": "channel",
                "noteNumber": 83,
                "velocity": 0,
                "subtype": "noteOff"
            },
            {
                "deltaTime": 0,
                "channel": 1,
                "type": "channel",
                "noteNumber": 78,
                "velocity": 0,
                "subtype": "noteOff"
            },
            {
                "deltaTime": 0,
                "channel": 1,
                "type": "channel",
                "noteNumber": 74,
                "velocity": 49,
                "subtype": "noteOn"
            },
            {
                "deltaTime": 0,
                "channel": 1,
                "type": "channel",
                "noteNumber": 80,
                "velocity": 49,
                "subtype": "noteOn"
            },
            {
                "deltaTime": 120,
                "channel": 1,
                "type": "channel",
                "noteNumber": 80,
                "velocity": 0,
                "subtype": "noteOff"
            },
            {
                "deltaTime": 0,
                "channel": 1,
                "type": "channel",
                "noteNumber": 74,
                "velocity": 0,
                "subtype": "noteOff"
            },
            {
                "deltaTime": 0,
                "channel": 1,
                "type": "channel",
                "noteNumber": 75,
                "velocity": 49,
                "subtype": "noteOn"
            },
            {
                "deltaTime": 0,
                "channel": 1,
                "type": "channel",
                "noteNumber": 80,
                "velocity": 49,
                "subtype": "noteOn"
            },
            {
                "deltaTime": 0,
                "channel": 1,
                "type": "channel",
                "noteNumber": 84,
                "velocity": 49,
                "subtype": "noteOn"
            },
            {
                "deltaTime": 60,
                "channel": 1,
                "type": "channel",
                "noteNumber": 84,
                "velocity": 0,
                "subtype": "noteOff"
            },
            {
                "deltaTime": 0,
                "channel": 1,
                "type": "channel",
                "noteNumber": 80,
                "velocity": 0,
                "subtype": "noteOff"
            },
            {
                "deltaTime": 0,
                "channel": 1,
                "type": "channel",
                "noteNumber": 75,
                "velocity": 0,
                "subtype": "noteOff"
            },
            {
                "deltaTime": 0,
                "channel": 1,
                "type": "channel",
                "noteNumber": 74,
                "velocity": 49,
                "subtype": "noteOn"
            },
            {
                "deltaTime": 60,
                "channel": 1,
                "type": "channel",
                "noteNumber": 74,
                "velocity": 0,
                "subtype": "noteOff"
            },
            {
                "deltaTime": 0,
                "channel": 1,
                "type": "channel",
                "noteNumber": 75,
                "velocity": 49,
                "subtype": "noteOn"
            },
            {
                "deltaTime": 0,
                "channel": 1,
                "type": "channel",
                "noteNumber": 80,
                "velocity": 49,
                "subtype": "noteOn"
            },
            {
                "deltaTime": 0,
                "channel": 1,
                "type": "channel",
                "noteNumber": 84,
                "velocity": 49,
                "subtype": "noteOn"
            },
            {
                "deltaTime": 60,
                "channel": 1,
                "type": "channel",
                "noteNumber": 84,
                "velocity": 0,
                "subtype": "noteOff"
            },
            {
                "deltaTime": 0,
                "channel": 1,
                "type": "channel",
                "noteNumber": 80,
                "velocity": 0,
                "subtype": "noteOff"
            },
            {
                "deltaTime": 0,
                "channel": 1,
                "type": "channel",
                "noteNumber": 75,
                "velocity": 0,
                "subtype": "noteOff"
            },
            {
                "deltaTime": 0,
                "channel": 1,
                "type": "channel",
                "noteNumber": 74,
                "velocity": 49,
                "subtype": "noteOn"
            },
            {
                "deltaTime": 60,
                "channel": 1,
                "type": "channel",
                "noteNumber": 74,
                "velocity": 0,
                "subtype": "noteOff"
            },
            {
                "deltaTime": 240,
                "channel": 1,
                "type": "channel",
                "noteNumber": 76,
                "velocity": 49,
                "subtype": "noteOn"
            },
            {
                "deltaTime": 0,
                "channel": 1,
                "type": "channel",
                "noteNumber": 80,
                "velocity": 49,
                "subtype": "noteOn"
            },
            {
                "deltaTime": 0,
                "channel": 1,
                "type": "channel",
                "noteNumber": 84,
                "velocity": 49,
                "subtype": "noteOn"
            },
            {
                "deltaTime": 60,
                "channel": 1,
                "type": "channel",
                "noteNumber": 84,
                "velocity": 0,
                "subtype": "noteOff"
            },
            {
                "deltaTime": 0,
                "channel": 1,
                "type": "channel",
                "noteNumber": 80,
                "velocity": 0,
                "subtype": "noteOff"
            },
            {
                "deltaTime": 0,
                "channel": 1,
                "type": "channel",
                "noteNumber": 76,
                "velocity": 0,
                "subtype": "noteOff"
            },
            {
                "deltaTime": 0,
                "channel": 1,
                "type": "channel",
                "noteNumber": 74,
                "velocity": 49,
                "subtype": "noteOn"
            },
            {
                "deltaTime": 60,
                "channel": 1,
                "type": "channel",
                "noteNumber": 74,
                "velocity": 0,
                "subtype": "noteOff"
            },
            {
                "deltaTime": 0,
                "channel": 1,
                "type": "channel",
                "noteNumber": 76,
                "velocity": 49,
                "subtype": "noteOn"
            },
            {
                "deltaTime": 0,
                "channel": 1,
                "type": "channel",
                "noteNumber": 80,
                "velocity": 49,
                "subtype": "noteOn"
            },
            {
                "deltaTime": 0,
                "channel": 1,
                "type": "channel",
                "noteNumber": 84,
                "velocity": 49,
                "subtype": "noteOn"
            },
            {
                "deltaTime": 60,
                "channel": 1,
                "type": "channel",
                "noteNumber": 84,
                "velocity": 0,
                "subtype": "noteOff"
            },
            {
                "deltaTime": 0,
                "channel": 1,
                "type": "channel",
                "noteNumber": 80,
                "velocity": 0,
                "subtype": "noteOff"
            },
            {
                "deltaTime": 0,
                "channel": 1,
                "type": "channel",
                "noteNumber": 76,
                "velocity": 0,
                "subtype": "noteOff"
            },
            {
                "deltaTime": 0,
                "channel": 1,
                "type": "channel",
                "noteNumber": 74,
                "velocity": 49,
                "subtype": "noteOn"
            },
            {
                "deltaTime": 60,
                "channel": 1,
                "type": "channel",
                "noteNumber": 74,
                "velocity": 0,
                "subtype": "noteOff"
            },
            {
                "deltaTime": 240,
                "channel": 1,
                "type": "channel",
                "noteNumber": 77,
                "velocity": 49,
                "subtype": "noteOn"
            },
            {
                "deltaTime": 0,
                "channel": 1,
                "type": "channel",
                "noteNumber": 80,
                "velocity": 49,
                "subtype": "noteOn"
            },
            {
                "deltaTime": 0,
                "channel": 1,
                "type": "channel",
                "noteNumber": 84,
                "velocity": 49,
                "subtype": "noteOn"
            },
            {
                "deltaTime": 60,
                "channel": 1,
                "type": "channel",
                "noteNumber": 84,
                "velocity": 0,
                "subtype": "noteOff"
            },
            {
                "deltaTime": 0,
                "channel": 1,
                "type": "channel",
                "noteNumber": 80,
                "velocity": 0,
                "subtype": "noteOff"
            },
            {
                "deltaTime": 0,
                "channel": 1,
                "type": "channel",
                "noteNumber": 77,
                "velocity": 0,
                "subtype": "noteOff"
            },
            {
                "deltaTime": 0,
                "channel": 1,
                "type": "channel",
                "noteNumber": 74,
                "velocity": 49,
                "subtype": "noteOn"
            },
            {
                "deltaTime": 60,
                "channel": 1,
                "type": "channel",
                "noteNumber": 74,
                "velocity": 0,
                "subtype": "noteOff"
            },
            {
                "deltaTime": 0,
                "channel": 1,
                "type": "channel",
                "noteNumber": 77,
                "velocity": 49,
                "subtype": "noteOn"
            },
            {
                "deltaTime": 0,
                "channel": 1,
                "type": "channel",
                "noteNumber": 80,
                "velocity": 49,
                "subtype": "noteOn"
            },
            {
                "deltaTime": 0,
                "channel": 1,
                "type": "channel",
                "noteNumber": 84,
                "velocity": 49,
                "subtype": "noteOn"
            },
            {
                "deltaTime": 60,
                "channel": 1,
                "type": "channel",
                "noteNumber": 84,
                "velocity": 0,
                "subtype": "noteOff"
            },
            {
                "deltaTime": 0,
                "channel": 1,
                "type": "channel",
                "noteNumber": 80,
                "velocity": 0,
                "subtype": "noteOff"
            },
            {
                "deltaTime": 0,
                "channel": 1,
                "type": "channel",
                "noteNumber": 77,
                "velocity": 0,
                "subtype": "noteOff"
            },
            {
                "deltaTime": 0,
                "channel": 1,
                "type": "channel",
                "noteNumber": 74,
                "velocity": 49,
                "subtype": "noteOn"
            },
            {
                "deltaTime": 60,
                "channel": 1,
                "type": "channel",
                "noteNumber": 74,
                "velocity": 0,
                "subtype": "noteOff"
            },
            {
                "deltaTime": 240,
                "channel": 1,
                "type": "channel",
                "noteNumber": 78,
                "velocity": 49,
                "subtype": "noteOn"
            },
            {
                "deltaTime": 0,
                "channel": 1,
                "type": "channel",
                "noteNumber": 80,
                "velocity": 49,
                "subtype": "noteOn"
            },
            {
                "deltaTime": 0,
                "channel": 1,
                "type": "channel",
                "noteNumber": 84,
                "velocity": 49,
                "subtype": "noteOn"
            },
            {
                "deltaTime": 60,
                "channel": 1,
                "type": "channel",
                "noteNumber": 84,
                "velocity": 0,
                "subtype": "noteOff"
            },
            {
                "deltaTime": 0,
                "channel": 1,
                "type": "channel",
                "noteNumber": 80,
                "velocity": 0,
                "subtype": "noteOff"
            },
            {
                "deltaTime": 0,
                "channel": 1,
                "type": "channel",
                "noteNumber": 78,
                "velocity": 0,
                "subtype": "noteOff"
            },
            {
                "deltaTime": 0,
                "channel": 1,
                "type": "channel",
                "noteNumber": 75,
                "velocity": 49,
                "subtype": "noteOn"
            },
            {
                "deltaTime": 60,
                "channel": 1,
                "type": "channel",
                "noteNumber": 75,
                "velocity": 0,
                "subtype": "noteOff"
            },
            {
                "deltaTime": 0,
                "channel": 1,
                "type": "channel",
                "noteNumber": 78,
                "velocity": 49,
                "subtype": "noteOn"
            },
            {
                "deltaTime": 0,
                "channel": 1,
                "type": "channel",
                "noteNumber": 80,
                "velocity": 49,
                "subtype": "noteOn"
            },
            {
                "deltaTime": 0,
                "channel": 1,
                "type": "channel",
                "noteNumber": 84,
                "velocity": 49,
                "subtype": "noteOn"
            },
            {
                "deltaTime": 60,
                "channel": 1,
                "type": "channel",
                "noteNumber": 84,
                "velocity": 0,
                "subtype": "noteOff"
            },
            {
                "deltaTime": 0,
                "channel": 1,
                "type": "channel",
                "noteNumber": 80,
                "velocity": 0,
                "subtype": "noteOff"
            },
            {
                "deltaTime": 0,
                "channel": 1,
                "type": "channel",
                "noteNumber": 78,
                "velocity": 0,
                "subtype": "noteOff"
            },
            {
                "deltaTime": 0,
                "channel": 1,
                "type": "channel",
                "noteNumber": 75,
                "velocity": 49,
                "subtype": "noteOn"
            },
            {
                "deltaTime": 60,
                "channel": 1,
                "type": "channel",
                "noteNumber": 75,
                "velocity": 0,
                "subtype": "noteOff"
            },
            {
                "deltaTime": 0,
                "channel": 1,
                "type": "channel",
                "noteNumber": 78,
                "velocity": 49,
                "subtype": "noteOn"
            },
            {
                "deltaTime": 0,
                "channel": 1,
                "type": "channel",
                "noteNumber": 80,
                "velocity": 49,
                "subtype": "noteOn"
            },
            {
                "deltaTime": 0,
                "channel": 1,
                "type": "channel",
                "noteNumber": 84,
                "velocity": 49,
                "subtype": "noteOn"
            },
            {
                "deltaTime": 60,
                "channel": 1,
                "type": "channel",
                "noteNumber": 84,
                "velocity": 0,
                "subtype": "noteOff"
            },
            {
                "deltaTime": 0,
                "channel": 1,
                "type": "channel",
                "noteNumber": 80,
                "velocity": 0,
                "subtype": "noteOff"
            },
            {
                "deltaTime": 0,
                "channel": 1,
                "type": "channel",
                "noteNumber": 78,
                "velocity": 0,
                "subtype": "noteOff"
            },
            {
                "deltaTime": 0,
                "channel": 1,
                "type": "channel",
                "noteNumber": 75,
                "velocity": 49,
                "subtype": "noteOn"
            },
            {
                "deltaTime": 60,
                "channel": 1,
                "type": "channel",
                "noteNumber": 75,
                "velocity": 0,
                "subtype": "noteOff"
            },
            {
                "deltaTime": 0,
                "channel": 1,
                "type": "channel",
                "noteNumber": 78,
                "velocity": 49,
                "subtype": "noteOn"
            },
            {
                "deltaTime": 0,
                "channel": 1,
                "type": "channel",
                "noteNumber": 80,
                "velocity": 49,
                "subtype": "noteOn"
            },
            {
                "deltaTime": 0,
                "channel": 1,
                "type": "channel",
                "noteNumber": 84,
                "velocity": 49,
                "subtype": "noteOn"
            },
            {
                "deltaTime": 60,
                "channel": 1,
                "type": "channel",
                "noteNumber": 84,
                "velocity": 0,
                "subtype": "noteOff"
            },
            {
                "deltaTime": 0,
                "channel": 1,
                "type": "channel",
                "noteNumber": 80,
                "velocity": 0,
                "subtype": "noteOff"
            },
            {
                "deltaTime": 0,
                "channel": 1,
                "type": "channel",
                "noteNumber": 78,
                "velocity": 0,
                "subtype": "noteOff"
            },
            {
                "deltaTime": 0,
                "channel": 1,
                "type": "channel",
                "noteNumber": 75,
                "velocity": 49,
                "subtype": "noteOn"
            },
            {
                "deltaTime": 60,
                "channel": 1,
                "type": "channel",
                "noteNumber": 75,
                "velocity": 0,
                "subtype": "noteOff"
            },
            {
                "deltaTime": 0,
                "channel": 1,
                "type": "channel",
                "noteNumber": 78,
                "velocity": 49,
                "subtype": "noteOn"
            },
            {
                "deltaTime": 0,
                "channel": 1,
                "type": "channel",
                "noteNumber": 80,
                "velocity": 49,
                "subtype": "noteOn"
            },
            {
                "deltaTime": 0,
                "channel": 1,
                "type": "channel",
                "noteNumber": 84,
                "velocity": 49,
                "subtype": "noteOn"
            },
            {
                "deltaTime": 60,
                "channel": 1,
                "type": "channel",
                "noteNumber": 84,
                "velocity": 0,
                "subtype": "noteOff"
            },
            {
                "deltaTime": 0,
                "channel": 1,
                "type": "channel",
                "noteNumber": 80,
                "velocity": 0,
                "subtype": "noteOff"
            },
            {
                "deltaTime": 0,
                "channel": 1,
                "type": "channel",
                "noteNumber": 78,
                "velocity": 0,
                "subtype": "noteOff"
            },
            {
                "deltaTime": 0,
                "channel": 1,
                "type": "channel",
                "noteNumber": 75,
                "velocity": 49,
                "subtype": "noteOn"
            },
            {
                "deltaTime": 60,
                "channel": 1,
                "type": "channel",
                "noteNumber": 75,
                "velocity": 0,
                "subtype": "noteOff"
            },
            {
                "deltaTime": 0,
                "channel": 1,
                "type": "channel",
                "noteNumber": 78,
                "velocity": 49,
                "subtype": "noteOn"
            },
            {
                "deltaTime": 0,
                "channel": 1,
                "type": "channel",
                "noteNumber": 80,
                "velocity": 49,
                "subtype": "noteOn"
            },
            {
                "deltaTime": 0,
                "channel": 1,
                "type": "channel",
                "noteNumber": 84,
                "velocity": 49,
                "subtype": "noteOn"
            },
            {
                "deltaTime": 60,
                "channel": 1,
                "type": "channel",
                "noteNumber": 84,
                "velocity": 0,
                "subtype": "noteOff"
            },
            {
                "deltaTime": 0,
                "channel": 1,
                "type": "channel",
                "noteNumber": 80,
                "velocity": 0,
                "subtype": "noteOff"
            },
            {
                "deltaTime": 0,
                "channel": 1,
                "type": "channel",
                "noteNumber": 78,
                "velocity": 0,
                "subtype": "noteOff"
            },
            {
                "deltaTime": 0,
                "channel": 1,
                "type": "channel",
                "noteNumber": 75,
                "velocity": 49,
                "subtype": "noteOn"
            },
            {
                "deltaTime": 60,
                "channel": 1,
                "type": "channel",
                "noteNumber": 75,
                "velocity": 0,
                "subtype": "noteOff"
            },
            {
                "deltaTime": 240,
                "channel": 1,
                "type": "channel",
                "noteNumber": 78,
                "velocity": 49,
                "subtype": "noteOn"
            },
            {
                "deltaTime": 0,
                "channel": 1,
                "type": "channel",
                "noteNumber": 80,
                "velocity": 49,
                "subtype": "noteOn"
            },
            {
                "deltaTime": 0,
                "channel": 1,
                "type": "channel",
                "noteNumber": 84,
                "velocity": 49,
                "subtype": "noteOn"
            },
            {
                "deltaTime": 60,
                "channel": 1,
                "type": "channel",
                "noteNumber": 84,
                "velocity": 0,
                "subtype": "noteOff"
            },
            {
                "deltaTime": 0,
                "channel": 1,
                "type": "channel",
                "noteNumber": 80,
                "velocity": 0,
                "subtype": "noteOff"
            },
            {
                "deltaTime": 0,
                "channel": 1,
                "type": "channel",
                "noteNumber": 78,
                "velocity": 0,
                "subtype": "noteOff"
            },
            {
                "deltaTime": 0,
                "channel": 1,
                "type": "channel",
                "noteNumber": 75,
                "velocity": 49,
                "subtype": "noteOn"
            },
            {
                "deltaTime": 60,
                "channel": 1,
                "type": "channel",
                "noteNumber": 75,
                "velocity": 0,
                "subtype": "noteOff"
            },
            {
                "deltaTime": 0,
                "channel": 1,
                "type": "channel",
                "noteNumber": 78,
                "velocity": 49,
                "subtype": "noteOn"
            },
            {
                "deltaTime": 0,
                "channel": 1,
                "type": "channel",
                "noteNumber": 80,
                "velocity": 49,
                "subtype": "noteOn"
            },
            {
                "deltaTime": 0,
                "channel": 1,
                "type": "channel",
                "noteNumber": 84,
                "velocity": 49,
                "subtype": "noteOn"
            },
            {
                "deltaTime": 60,
                "channel": 1,
                "type": "channel",
                "noteNumber": 84,
                "velocity": 0,
                "subtype": "noteOff"
            },
            {
                "deltaTime": 0,
                "channel": 1,
                "type": "channel",
                "noteNumber": 80,
                "velocity": 0,
                "subtype": "noteOff"
            },
            {
                "deltaTime": 0,
                "channel": 1,
                "type": "channel",
                "noteNumber": 78,
                "velocity": 0,
                "subtype": "noteOff"
            },
            {
                "deltaTime": 0,
                "channel": 1,
                "type": "channel",
                "noteNumber": 75,
                "velocity": 49,
                "subtype": "noteOn"
            },
            {
                "deltaTime": 60,
                "channel": 1,
                "type": "channel",
                "noteNumber": 75,
                "velocity": 0,
                "subtype": "noteOff"
            },
            {
                "deltaTime": 240,
                "channel": 1,
                "type": "channel",
                "subtype": "controller",
                "controllerType": 64,
                "value": 127
            },
            {
                "deltaTime": 0,
                "channel": 1,
                "type": "channel",
                "noteNumber": 62,
                "velocity": 62,
                "subtype": "noteOn"
            },
            {
                "deltaTime": 47,
                "channel": 1,
                "type": "channel",
                "noteNumber": 62,
                "velocity": 0,
                "subtype": "noteOff"
            },
            {
                "deltaTime": 0,
                "channel": 1,
                "type": "channel",
                "noteNumber": 67,
                "velocity": 62,
                "subtype": "noteOn"
            },
            {
                "deltaTime": 49,
                "channel": 1,
                "type": "channel",
                "noteNumber": 67,
                "velocity": 0,
                "subtype": "noteOff"
            },
            {
                "deltaTime": 0,
                "channel": 1,
                "type": "channel",
                "noteNumber": 72,
                "velocity": 62,
                "subtype": "noteOn"
            },
            {
                "deltaTime": 47,
                "channel": 1,
                "type": "channel",
                "noteNumber": 72,
                "velocity": 0,
                "subtype": "noteOff"
            },
            {
                "deltaTime": 0,
                "channel": 1,
                "type": "channel",
                "noteNumber": 74,
                "velocity": 62,
                "subtype": "noteOn"
            },
            {
                "deltaTime": 49,
                "channel": 1,
                "type": "channel",
                "noteNumber": 74,
                "velocity": 0,
                "subtype": "noteOff"
            },
            {
                "deltaTime": 0,
                "channel": 1,
                "type": "channel",
                "noteNumber": 79,
                "velocity": 62,
                "subtype": "noteOn"
            },
            {
                "deltaTime": 48,
                "channel": 1,
                "type": "channel",
                "noteNumber": 79,
                "velocity": 0,
                "subtype": "noteOff"
            },
            {
                "deltaTime": 0,
                "channel": 1,
                "type": "channel",
                "subtype": "controller",
                "controllerType": 64,
                "value": 0
            },
            {
                "deltaTime": 0,
                "channel": 1,
                "type": "channel",
                "noteNumber": 84,
                "velocity": 62,
                "subtype": "noteOn"
            },
            {
                "deltaTime": 240,
                "channel": 1,
                "type": "channel",
                "noteNumber": 84,
                "velocity": 0,
                "subtype": "noteOff"
            },
            {
                "deltaTime": 0,
                "channel": 1,
                "type": "channel",
                "noteNumber": 84,
                "velocity": 62,
                "subtype": "noteOn"
            },
            {
                "deltaTime": 15,
                "channel": 1,
                "type": "channel",
                "noteNumber": 84,
                "velocity": 0,
                "subtype": "noteOff"
            },
            {
                "deltaTime": 65,
                "channel": 1,
                "type": "channel",
                "noteNumber": 79,
                "velocity": 62,
                "subtype": "noteOn"
            },
            {
                "deltaTime": 16,
                "channel": 1,
                "type": "channel",
                "noteNumber": 79,
                "velocity": 0,
                "subtype": "noteOff"
            },
            {
                "deltaTime": 63,
                "channel": 1,
                "type": "channel",
                "noteNumber": 75,
                "velocity": 62,
                "subtype": "noteOn"
            },
            {
                "deltaTime": 16,
                "channel": 1,
                "type": "channel",
                "noteNumber": 75,
                "velocity": 0,
                "subtype": "noteOff"
            },
            {
                "deltaTime": 65,
                "channel": 1,
                "type": "channel",
                "noteNumber": 74,
                "velocity": 49,
                "subtype": "noteOn"
            },
            {
                "deltaTime": 60,
                "channel": 1,
                "type": "channel",
                "noteNumber": 74,
                "velocity": 0,
                "subtype": "noteOff"
            },
            {
                "deltaTime": 0,
                "channel": 1,
                "type": "channel",
                "noteNumber": 75,
                "velocity": 49,
                "subtype": "noteOn"
            },
            {
                "deltaTime": 60,
                "channel": 1,
                "type": "channel",
                "noteNumber": 75,
                "velocity": 0,
                "subtype": "noteOff"
            },
            {
                "deltaTime": 0,
                "channel": 1,
                "type": "channel",
                "noteNumber": 74,
                "velocity": 49,
                "subtype": "noteOn"
            },
            {
                "deltaTime": 60,
                "channel": 1,
                "type": "channel",
                "noteNumber": 74,
                "velocity": 0,
                "subtype": "noteOff"
            },
            {
                "deltaTime": 0,
                "channel": 1,
                "type": "channel",
                "noteNumber": 75,
                "velocity": 49,
                "subtype": "noteOn"
            },
            {
                "deltaTime": 60,
                "channel": 1,
                "type": "channel",
                "noteNumber": 75,
                "velocity": 0,
                "subtype": "noteOff"
            },
            {
                "deltaTime": 0,
                "channel": 1,
                "type": "channel",
                "noteNumber": 74,
                "velocity": 49,
                "subtype": "noteOn"
            },
            {
                "deltaTime": 60,
                "channel": 1,
                "type": "channel",
                "noteNumber": 74,
                "velocity": 0,
                "subtype": "noteOff"
            },
            {
                "deltaTime": 0,
                "channel": 1,
                "type": "channel",
                "noteNumber": 75,
                "velocity": 49,
                "subtype": "noteOn"
            },
            {
                "deltaTime": 60,
                "channel": 1,
                "type": "channel",
                "noteNumber": 75,
                "velocity": 0,
                "subtype": "noteOff"
            },
            {
                "deltaTime": 0,
                "channel": 1,
                "type": "channel",
                "noteNumber": 74,
                "velocity": 49,
                "subtype": "noteOn"
            },
            {
                "deltaTime": 60,
                "channel": 1,
                "type": "channel",
                "noteNumber": 74,
                "velocity": 0,
                "subtype": "noteOff"
            },
            {
                "deltaTime": 0,
                "channel": 1,
                "type": "channel",
                "noteNumber": 75,
                "velocity": 49,
                "subtype": "noteOn"
            },
            {
                "deltaTime": 60,
                "channel": 1,
                "type": "channel",
                "noteNumber": 75,
                "velocity": 0,
                "subtype": "noteOff"
            },
            {
                "deltaTime": 0,
                "channel": 1,
                "type": "channel",
                "noteNumber": 73,
                "velocity": 49,
                "subtype": "noteOn"
            },
            {
                "deltaTime": 240,
                "channel": 1,
                "type": "channel",
                "noteNumber": 73,
                "velocity": 0,
                "subtype": "noteOff"
            },
            {
                "deltaTime": 240,
                "channel": 1,
                "type": "channel",
                "subtype": "controller",
                "controllerType": 64,
                "value": 127
            },
            {
                "deltaTime": 0,
                "channel": 1,
                "type": "channel",
                "noteNumber": 69,
                "velocity": 62,
                "subtype": "noteOn"
            },
            {
                "deltaTime": 80,
                "channel": 1,
                "type": "channel",
                "noteNumber": 69,
                "velocity": 0,
                "subtype": "noteOff"
            },
            {
                "deltaTime": 0,
                "channel": 1,
                "type": "channel",
                "noteNumber": 68,
                "velocity": 62,
                "subtype": "noteOn"
            },
            {
                "deltaTime": 79,
                "channel": 1,
                "type": "channel",
                "noteNumber": 68,
                "velocity": 0,
                "subtype": "noteOff"
            },
            {
                "deltaTime": 0,
                "channel": 1,
                "type": "channel",
                "noteNumber": 67,
                "velocity": 62,
                "subtype": "noteOn"
            },
            {
                "deltaTime": 81,
                "channel": 1,
                "type": "channel",
                "noteNumber": 67,
                "velocity": 0,
                "subtype": "noteOff"
            },
            {
                "deltaTime": 0,
                "channel": 1,
                "type": "channel",
                "noteNumber": 63,
                "velocity": 62,
                "subtype": "noteOn"
            },
            {
                "deltaTime": 80,
                "channel": 1,
                "type": "channel",
                "noteNumber": 63,
                "velocity": 0,
                "subtype": "noteOff"
            },
            {
                "deltaTime": 0,
                "channel": 1,
                "type": "channel",
                "noteNumber": 62,
                "velocity": 62,
                "subtype": "noteOn"
            },
            {
                "deltaTime": 79,
                "channel": 1,
                "type": "channel",
                "noteNumber": 62,
                "velocity": 0,
                "subtype": "noteOff"
            },
            {
                "deltaTime": 0,
                "channel": 1,
                "type": "channel",
                "noteNumber": 61,
                "velocity": 62,
                "subtype": "noteOn"
            },
            {
                "deltaTime": 81,
                "channel": 1,
                "type": "channel",
                "noteNumber": 61,
                "velocity": 0,
                "subtype": "noteOff"
            },
            {
                "deltaTime": 0,
                "channel": 1,
                "type": "channel",
                "noteNumber": 73,
                "velocity": 62,
                "subtype": "noteOn"
            },
            {
                "deltaTime": 80,
                "channel": 1,
                "type": "channel",
                "noteNumber": 73,
                "velocity": 0,
                "subtype": "noteOff"
            },
            {
                "deltaTime": 0,
                "channel": 1,
                "type": "channel",
                "noteNumber": 67,
                "velocity": 62,
                "subtype": "noteOn"
            },
            {
                "deltaTime": 79,
                "channel": 1,
                "type": "channel",
                "noteNumber": 67,
                "velocity": 0,
                "subtype": "noteOff"
            },
            {
                "deltaTime": 0,
                "channel": 1,
                "type": "channel",
                "noteNumber": 63,
                "velocity": 62,
                "subtype": "noteOn"
            },
            {
                "deltaTime": 81,
                "channel": 1,
                "type": "channel",
                "noteNumber": 63,
                "velocity": 0,
                "subtype": "noteOff"
            },
            {
                "deltaTime": 240,
                "channel": 1,
                "type": "channel",
                "noteNumber": 63,
                "velocity": 62,
                "subtype": "noteOn"
            },
            {
                "deltaTime": 80,
                "channel": 1,
                "type": "channel",
                "noteNumber": 63,
                "velocity": 0,
                "subtype": "noteOff"
            },
            {
                "deltaTime": 0,
                "channel": 1,
                "type": "channel",
                "noteNumber": 67,
                "velocity": 62,
                "subtype": "noteOn"
            },
            {
                "deltaTime": 79,
                "channel": 1,
                "type": "channel",
                "noteNumber": 67,
                "velocity": 0,
                "subtype": "noteOff"
            },
            {
                "deltaTime": 0,
                "channel": 1,
                "type": "channel",
                "subtype": "controller",
                "controllerType": 64,
                "value": 0
            },
            {
                "deltaTime": 0,
                "channel": 1,
                "type": "channel",
                "noteNumber": 73,
                "velocity": 62,
                "subtype": "noteOn"
            },
            {
                "deltaTime": 81,
                "channel": 1,
                "type": "channel",
                "noteNumber": 73,
                "velocity": 0,
                "subtype": "noteOff"
            },
            {
                "deltaTime": 0,
                "channel": 1,
                "type": "channel",
                "subtype": "controller",
                "controllerType": 64,
                "value": 127
            },
            {
                "deltaTime": 0,
                "channel": 1,
                "type": "channel",
                "noteNumber": 63,
                "velocity": 62,
                "subtype": "noteOn"
            },
            {
                "deltaTime": 47,
                "channel": 1,
                "type": "channel",
                "noteNumber": 63,
                "velocity": 0,
                "subtype": "noteOff"
            },
            {
                "deltaTime": 0,
                "channel": 1,
                "type": "channel",
                "noteNumber": 68,
                "velocity": 62,
                "subtype": "noteOn"
            },
            {
                "deltaTime": 49,
                "channel": 1,
                "type": "channel",
                "noteNumber": 68,
                "velocity": 0,
                "subtype": "noteOff"
            },
            {
                "deltaTime": 0,
                "channel": 1,
                "type": "channel",
                "noteNumber": 73,
                "velocity": 62,
                "subtype": "noteOn"
            },
            {
                "deltaTime": 47,
                "channel": 1,
                "type": "channel",
                "noteNumber": 73,
                "velocity": 0,
                "subtype": "noteOff"
            },
            {
                "deltaTime": 0,
                "channel": 1,
                "type": "channel",
                "noteNumber": 75,
                "velocity": 62,
                "subtype": "noteOn"
            },
            {
                "deltaTime": 49,
                "channel": 1,
                "type": "channel",
                "noteNumber": 75,
                "velocity": 0,
                "subtype": "noteOff"
            },
            {
                "deltaTime": 0,
                "channel": 1,
                "type": "channel",
                "noteNumber": 80,
                "velocity": 62,
                "subtype": "noteOn"
            },
            {
                "deltaTime": 48,
                "channel": 1,
                "type": "channel",
                "noteNumber": 80,
                "velocity": 0,
                "subtype": "noteOff"
            },
            {
                "deltaTime": 0,
                "channel": 1,
                "type": "channel",
                "subtype": "controller",
                "controllerType": 64,
                "value": 0
            },
            {
                "deltaTime": 0,
                "channel": 1,
                "type": "channel",
                "noteNumber": 85,
                "velocity": 62,
                "subtype": "noteOn"
            },
            {
                "deltaTime": 240,
                "channel": 1,
                "type": "channel",
                "noteNumber": 85,
                "velocity": 0,
                "subtype": "noteOff"
            },
            {
                "deltaTime": 0,
                "channel": 1,
                "type": "channel",
                "noteNumber": 85,
                "velocity": 62,
                "subtype": "noteOn"
            },
            {
                "deltaTime": 15,
                "channel": 1,
                "type": "channel",
                "noteNumber": 85,
                "velocity": 0,
                "subtype": "noteOff"
            },
            {
                "deltaTime": 65,
                "channel": 1,
                "type": "channel",
                "noteNumber": 80,
                "velocity": 62,
                "subtype": "noteOn"
            },
            {
                "deltaTime": 16,
                "channel": 1,
                "type": "channel",
                "noteNumber": 80,
                "velocity": 0,
                "subtype": "noteOff"
            },
            {
                "deltaTime": 63,
                "channel": 1,
                "type": "channel",
                "noteNumber": 76,
                "velocity": 62,
                "subtype": "noteOn"
            },
            {
                "deltaTime": 16,
                "channel": 1,
                "type": "channel",
                "noteNumber": 76,
                "velocity": 0,
                "subtype": "noteOff"
            },
            {
                "deltaTime": 65,
                "channel": 1,
                "type": "channel",
                "noteNumber": 75,
                "velocity": 49,
                "subtype": "noteOn"
            },
            {
                "deltaTime": 60,
                "channel": 1,
                "type": "channel",
                "noteNumber": 75,
                "velocity": 0,
                "subtype": "noteOff"
            },
            {
                "deltaTime": 0,
                "channel": 1,
                "type": "channel",
                "noteNumber": 76,
                "velocity": 49,
                "subtype": "noteOn"
            },
            {
                "deltaTime": 60,
                "channel": 1,
                "type": "channel",
                "noteNumber": 76,
                "velocity": 0,
                "subtype": "noteOff"
            },
            {
                "deltaTime": 0,
                "channel": 1,
                "type": "channel",
                "noteNumber": 75,
                "velocity": 49,
                "subtype": "noteOn"
            },
            {
                "deltaTime": 60,
                "channel": 1,
                "type": "channel",
                "noteNumber": 75,
                "velocity": 0,
                "subtype": "noteOff"
            },
            {
                "deltaTime": 0,
                "channel": 1,
                "type": "channel",
                "noteNumber": 76,
                "velocity": 49,
                "subtype": "noteOn"
            },
            {
                "deltaTime": 60,
                "channel": 1,
                "type": "channel",
                "noteNumber": 76,
                "velocity": 0,
                "subtype": "noteOff"
            },
            {
                "deltaTime": 0,
                "channel": 1,
                "type": "channel",
                "noteNumber": 75,
                "velocity": 49,
                "subtype": "noteOn"
            },
            {
                "deltaTime": 60,
                "channel": 1,
                "type": "channel",
                "noteNumber": 75,
                "velocity": 0,
                "subtype": "noteOff"
            },
            {
                "deltaTime": 0,
                "channel": 1,
                "type": "channel",
                "noteNumber": 76,
                "velocity": 49,
                "subtype": "noteOn"
            },
            {
                "deltaTime": 60,
                "channel": 1,
                "type": "channel",
                "noteNumber": 76,
                "velocity": 0,
                "subtype": "noteOff"
            },
            {
                "deltaTime": 0,
                "channel": 1,
                "type": "channel",
                "noteNumber": 75,
                "velocity": 49,
                "subtype": "noteOn"
            },
            {
                "deltaTime": 60,
                "channel": 1,
                "type": "channel",
                "noteNumber": 75,
                "velocity": 0,
                "subtype": "noteOff"
            },
            {
                "deltaTime": 0,
                "channel": 1,
                "type": "channel",
                "noteNumber": 76,
                "velocity": 49,
                "subtype": "noteOn"
            },
            {
                "deltaTime": 60,
                "channel": 1,
                "type": "channel",
                "noteNumber": 76,
                "velocity": 0,
                "subtype": "noteOff"
            },
            {
                "deltaTime": 0,
                "channel": 1,
                "type": "channel",
                "noteNumber": 74,
                "velocity": 49,
                "subtype": "noteOn"
            },
            {
                "deltaTime": 240,
                "channel": 1,
                "type": "channel",
                "noteNumber": 74,
                "velocity": 0,
                "subtype": "noteOff"
            },
            {
                "deltaTime": 0,
                "channel": 1,
                "type": "channel",
                "subtype": "controller",
                "controllerType": 64,
                "value": 127
            },
            {
                "deltaTime": 0,
                "channel": 1,
                "type": "channel",
                "noteNumber": 64,
                "velocity": 62,
                "subtype": "noteOn"
            },
            {
                "deltaTime": 47,
                "channel": 1,
                "type": "channel",
                "noteNumber": 64,
                "velocity": 0,
                "subtype": "noteOff"
            },
            {
                "deltaTime": 0,
                "channel": 1,
                "type": "channel",
                "noteNumber": 69,
                "velocity": 62,
                "subtype": "noteOn"
            },
            {
                "deltaTime": 49,
                "channel": 1,
                "type": "channel",
                "noteNumber": 69,
                "velocity": 0,
                "subtype": "noteOff"
            },
            {
                "deltaTime": 0,
                "channel": 1,
                "type": "channel",
                "noteNumber": 74,
                "velocity": 62,
                "subtype": "noteOn"
            },
            {
                "deltaTime": 47,
                "channel": 1,
                "type": "channel",
                "noteNumber": 74,
                "velocity": 0,
                "subtype": "noteOff"
            },
            {
                "deltaTime": 0,
                "channel": 1,
                "type": "channel",
                "noteNumber": 76,
                "velocity": 62,
                "subtype": "noteOn"
            },
            {
                "deltaTime": 49,
                "channel": 1,
                "type": "channel",
                "noteNumber": 76,
                "velocity": 0,
                "subtype": "noteOff"
            },
            {
                "deltaTime": 0,
                "channel": 1,
                "type": "channel",
                "noteNumber": 81,
                "velocity": 62,
                "subtype": "noteOn"
            },
            {
                "deltaTime": 48,
                "channel": 1,
                "type": "channel",
                "noteNumber": 81,
                "velocity": 0,
                "subtype": "noteOff"
            },
            {
                "deltaTime": 0,
                "channel": 1,
                "type": "channel",
                "subtype": "controller",
                "controllerType": 64,
                "value": 0
            },
            {
                "deltaTime": 0,
                "channel": 1,
                "type": "channel",
                "noteNumber": 86,
                "velocity": 62,
                "subtype": "noteOn"
            },
            {
                "deltaTime": 240,
                "channel": 1,
                "type": "channel",
                "noteNumber": 86,
                "velocity": 0,
                "subtype": "noteOff"
            },
            {
                "deltaTime": 0,
                "channel": 1,
                "type": "channel",
                "noteNumber": 86,
                "velocity": 62,
                "subtype": "noteOn"
            },
            {
                "deltaTime": 15,
                "channel": 1,
                "type": "channel",
                "noteNumber": 86,
                "velocity": 0,
                "subtype": "noteOff"
            },
            {
                "deltaTime": 65,
                "channel": 1,
                "type": "channel",
                "noteNumber": 81,
                "velocity": 62,
                "subtype": "noteOn"
            },
            {
                "deltaTime": 16,
                "channel": 1,
                "type": "channel",
                "noteNumber": 81,
                "velocity": 0,
                "subtype": "noteOff"
            },
            {
                "deltaTime": 63,
                "channel": 1,
                "type": "channel",
                "noteNumber": 77,
                "velocity": 62,
                "subtype": "noteOn"
            },
            {
                "deltaTime": 16,
                "channel": 1,
                "type": "channel",
                "noteNumber": 77,
                "velocity": 0,
                "subtype": "noteOff"
            },
            {
                "deltaTime": 65,
                "channel": 1,
                "type": "channel",
                "noteNumber": 76,
                "velocity": 49,
                "subtype": "noteOn"
            },
            {
                "deltaTime": 60,
                "channel": 1,
                "type": "channel",
                "noteNumber": 76,
                "velocity": 0,
                "subtype": "noteOff"
            },
            {
                "deltaTime": 0,
                "channel": 1,
                "type": "channel",
                "noteNumber": 77,
                "velocity": 49,
                "subtype": "noteOn"
            },
            {
                "deltaTime": 60,
                "channel": 1,
                "type": "channel",
                "noteNumber": 77,
                "velocity": 0,
                "subtype": "noteOff"
            },
            {
                "deltaTime": 0,
                "channel": 1,
                "type": "channel",
                "noteNumber": 76,
                "velocity": 49,
                "subtype": "noteOn"
            },
            {
                "deltaTime": 60,
                "channel": 1,
                "type": "channel",
                "noteNumber": 76,
                "velocity": 0,
                "subtype": "noteOff"
            },
            {
                "deltaTime": 0,
                "channel": 1,
                "type": "channel",
                "noteNumber": 77,
                "velocity": 49,
                "subtype": "noteOn"
            },
            {
                "deltaTime": 60,
                "channel": 1,
                "type": "channel",
                "noteNumber": 77,
                "velocity": 0,
                "subtype": "noteOff"
            },
            {
                "deltaTime": 0,
                "channel": 1,
                "type": "channel",
                "noteNumber": 76,
                "velocity": 49,
                "subtype": "noteOn"
            },
            {
                "deltaTime": 60,
                "channel": 1,
                "type": "channel",
                "noteNumber": 76,
                "velocity": 0,
                "subtype": "noteOff"
            },
            {
                "deltaTime": 0,
                "channel": 1,
                "type": "channel",
                "noteNumber": 77,
                "velocity": 49,
                "subtype": "noteOn"
            },
            {
                "deltaTime": 60,
                "channel": 1,
                "type": "channel",
                "noteNumber": 77,
                "velocity": 0,
                "subtype": "noteOff"
            },
            {
                "deltaTime": 0,
                "channel": 1,
                "type": "channel",
                "noteNumber": 76,
                "velocity": 49,
                "subtype": "noteOn"
            },
            {
                "deltaTime": 60,
                "channel": 1,
                "type": "channel",
                "noteNumber": 76,
                "velocity": 0,
                "subtype": "noteOff"
            },
            {
                "deltaTime": 0,
                "channel": 1,
                "type": "channel",
                "noteNumber": 77,
                "velocity": 49,
                "subtype": "noteOn"
            },
            {
                "deltaTime": 60,
                "channel": 1,
                "type": "channel",
                "noteNumber": 77,
                "velocity": 0,
                "subtype": "noteOff"
            },
            {
                "deltaTime": 0,
                "channel": 1,
                "type": "channel",
                "noteNumber": 75,
                "velocity": 49,
                "subtype": "noteOn"
            },
            {
                "deltaTime": 240,
                "channel": 1,
                "type": "channel",
                "noteNumber": 75,
                "velocity": 0,
                "subtype": "noteOff"
            },
            {
                "deltaTime": 0,
                "channel": 1,
                "type": "channel",
                "noteNumber": 65,
                "velocity": 62,
                "subtype": "noteOn"
            },
            {
                "deltaTime": 0,
                "channel": 1,
                "type": "channel",
                "noteNumber": 69,
                "velocity": 62,
                "subtype": "noteOn"
            },
            {
                "deltaTime": 120,
                "channel": 1,
                "type": "channel",
                "noteNumber": 69,
                "velocity": 0,
                "subtype": "noteOff"
            },
            {
                "deltaTime": 0,
                "channel": 1,
                "type": "channel",
                "noteNumber": 65,
                "velocity": 0,
                "subtype": "noteOff"
            },
            {
                "deltaTime": 0,
                "channel": 1,
                "type": "channel",
                "noteNumber": 70,
                "velocity": 62,
                "subtype": "noteOn"
            },
            {
                "deltaTime": 120,
                "channel": 1,
                "type": "channel",
                "noteNumber": 70,
                "velocity": 0,
                "subtype": "noteOff"
            },
            {
                "deltaTime": 0,
                "channel": 1,
                "type": "channel",
                "noteNumber": 71,
                "velocity": 62,
                "subtype": "noteOn"
            },
            {
                "deltaTime": 120,
                "channel": 1,
                "type": "channel",
                "noteNumber": 71,
                "velocity": 0,
                "subtype": "noteOff"
            },
            {
                "deltaTime": 0,
                "channel": 1,
                "type": "channel",
                "noteNumber": 72,
                "velocity": 62,
                "subtype": "noteOn"
            },
            {
                "deltaTime": 120,
                "channel": 1,
                "type": "channel",
                "noteNumber": 72,
                "velocity": 0,
                "subtype": "noteOff"
            },
            {
                "deltaTime": 0,
                "channel": 1,
                "type": "channel",
                "noteNumber": 73,
                "velocity": 62,
                "subtype": "noteOn"
            },
            {
                "deltaTime": 120,
                "channel": 1,
                "type": "channel",
                "noteNumber": 73,
                "velocity": 0,
                "subtype": "noteOff"
            },
            {
                "deltaTime": 0,
                "channel": 1,
                "type": "channel",
                "noteNumber": 74,
                "velocity": 62,
                "subtype": "noteOn"
            },
            {
                "deltaTime": 120,
                "channel": 1,
                "type": "channel",
                "noteNumber": 74,
                "velocity": 0,
                "subtype": "noteOff"
            },
            {
                "deltaTime": 0,
                "channel": 1,
                "type": "channel",
                "noteNumber": 75,
                "velocity": 75,
                "subtype": "noteOn"
            },
            {
                "deltaTime": 120,
                "channel": 1,
                "type": "channel",
                "noteNumber": 75,
                "velocity": 0,
                "subtype": "noteOff"
            },
            {
                "deltaTime": 0,
                "channel": 1,
                "type": "channel",
                "noteNumber": 76,
                "velocity": 75,
                "subtype": "noteOn"
            },
            {
                "deltaTime": 120,
                "channel": 1,
                "type": "channel",
                "noteNumber": 76,
                "velocity": 0,
                "subtype": "noteOff"
            },
            {
                "deltaTime": 0,
                "channel": 1,
                "type": "channel",
                "noteNumber": 77,
                "velocity": 75,
                "subtype": "noteOn"
            },
            {
                "deltaTime": 120,
                "channel": 1,
                "type": "channel",
                "noteNumber": 77,
                "velocity": 0,
                "subtype": "noteOff"
            },
            {
                "deltaTime": 0,
                "channel": 1,
                "type": "channel",
                "noteNumber": 78,
                "velocity": 75,
                "subtype": "noteOn"
            },
            {
                "deltaTime": 120,
                "channel": 1,
                "type": "channel",
                "noteNumber": 78,
                "velocity": 0,
                "subtype": "noteOff"
            },
            {
                "deltaTime": 0,
                "channel": 1,
                "type": "channel",
                "noteNumber": 79,
                "velocity": 75,
                "subtype": "noteOn"
            },
            {
                "deltaTime": 80,
                "channel": 1,
                "type": "channel",
                "noteNumber": 79,
                "velocity": 0,
                "subtype": "noteOff"
            },
            {
                "deltaTime": 0,
                "channel": 1,
                "type": "channel",
                "noteNumber": 80,
                "velocity": 75,
                "subtype": "noteOn"
            },
            {
                "deltaTime": 79,
                "channel": 1,
                "type": "channel",
                "noteNumber": 80,
                "velocity": 0,
                "subtype": "noteOff"
            },
            {
                "deltaTime": 0,
                "channel": 1,
                "type": "channel",
                "noteNumber": 81,
                "velocity": 75,
                "subtype": "noteOn"
            },
            {
                "deltaTime": 81,
                "channel": 1,
                "type": "channel",
                "noteNumber": 81,
                "velocity": 0,
                "subtype": "noteOff"
            },
            {
                "deltaTime": 0,
                "channel": 1,
                "type": "channel",
                "subtype": "controller",
                "controllerType": 64,
                "value": 127
            },
            {
                "deltaTime": 0,
                "channel": 1,
                "type": "channel",
                "noteNumber": 78,
                "velocity": 88,
                "subtype": "noteOn"
            },
            {
                "deltaTime": 0,
                "channel": 1,
                "type": "channel",
                "noteNumber": 82,
                "velocity": 88,
                "subtype": "noteOn"
            },
            {
                "deltaTime": 60,
                "channel": 1,
                "type": "channel",
                "noteNumber": 82,
                "velocity": 0,
                "subtype": "noteOff"
            },
            {
                "deltaTime": 0,
                "channel": 1,
                "type": "channel",
                "noteNumber": 78,
                "velocity": 0,
                "subtype": "noteOff"
            },
            {
                "deltaTime": 0,
                "channel": 1,
                "type": "channel",
                "noteNumber": 77,
                "velocity": 88,
                "subtype": "noteOn"
            },
            {
                "deltaTime": 60,
                "channel": 1,
                "type": "channel",
                "noteNumber": 77,
                "velocity": 0,
                "subtype": "noteOff"
            },
            {
                "deltaTime": 0,
                "channel": 1,
                "type": "channel",
                "noteNumber": 78,
                "velocity": 88,
                "subtype": "noteOn"
            },
            {
                "deltaTime": 60,
                "channel": 1,
                "type": "channel",
                "noteNumber": 78,
                "velocity": 0,
                "subtype": "noteOff"
            },
            {
                "deltaTime": 0,
                "channel": 1,
                "type": "channel",
                "noteNumber": 82,
                "velocity": 88,
                "subtype": "noteOn"
            },
            {
                "deltaTime": 60,
                "channel": 1,
                "type": "channel",
                "noteNumber": 82,
                "velocity": 0,
                "subtype": "noteOff"
            },
            {
                "deltaTime": 0,
                "channel": 1,
                "type": "channel",
                "subtype": "controller",
                "controllerType": 64,
                "value": 0
            },
            {
                "deltaTime": 0,
                "channel": 1,
                "type": "channel",
                "noteNumber": 90,
                "velocity": 88,
                "subtype": "noteOn"
            },
            {
                "deltaTime": 240,
                "channel": 1,
                "type": "channel",
                "noteNumber": 90,
                "velocity": 0,
                "subtype": "noteOff"
            },
            {
                "deltaTime": 0,
                "channel": 1,
                "type": "channel",
                "subtype": "controller",
                "controllerType": 64,
                "value": 127
            },
            {
                "deltaTime": 0,
                "channel": 1,
                "type": "channel",
                "noteNumber": 58,
                "velocity": 88,
                "subtype": "noteOn"
            },
            {
                "deltaTime": 60,
                "channel": 1,
                "type": "channel",
                "noteNumber": 58,
                "velocity": 0,
                "subtype": "noteOff"
            },
            {
                "deltaTime": 0,
                "channel": 1,
                "type": "channel",
                "noteNumber": 77,
                "velocity": 88,
                "subtype": "noteOn"
            },
            {
                "deltaTime": 60,
                "channel": 1,
                "type": "channel",
                "noteNumber": 77,
                "velocity": 0,
                "subtype": "noteOff"
            },
            {
                "deltaTime": 0,
                "channel": 1,
                "type": "channel",
                "noteNumber": 78,
                "velocity": 88,
                "subtype": "noteOn"
            },
            {
                "deltaTime": 60,
                "channel": 1,
                "type": "channel",
                "noteNumber": 78,
                "velocity": 0,
                "subtype": "noteOff"
            },
            {
                "deltaTime": 0,
                "channel": 1,
                "type": "channel",
                "noteNumber": 82,
                "velocity": 88,
                "subtype": "noteOn"
            },
            {
                "deltaTime": 60,
                "channel": 1,
                "type": "channel",
                "noteNumber": 82,
                "velocity": 0,
                "subtype": "noteOff"
            },
            {
                "deltaTime": 0,
                "channel": 1,
                "type": "channel",
                "subtype": "controller",
                "controllerType": 64,
                "value": 0
            },
            {
                "deltaTime": 0,
                "channel": 1,
                "type": "channel",
                "noteNumber": 90,
                "velocity": 88,
                "subtype": "noteOn"
            },
            {
                "deltaTime": 240,
                "channel": 1,
                "type": "channel",
                "noteNumber": 90,
                "velocity": 0,
                "subtype": "noteOff"
            },
            {
                "deltaTime": 0,
                "channel": 1,
                "type": "channel",
                "subtype": "controller",
                "controllerType": 64,
                "value": 127
            },
            {
                "deltaTime": 0,
                "channel": 1,
                "type": "channel",
                "noteNumber": 58,
                "velocity": 88,
                "subtype": "noteOn"
            },
            {
                "deltaTime": 60,
                "channel": 1,
                "type": "channel",
                "noteNumber": 58,
                "velocity": 0,
                "subtype": "noteOff"
            },
            {
                "deltaTime": 0,
                "channel": 1,
                "type": "channel",
                "noteNumber": 77,
                "velocity": 88,
                "subtype": "noteOn"
            },
            {
                "deltaTime": 60,
                "channel": 1,
                "type": "channel",
                "noteNumber": 77,
                "velocity": 0,
                "subtype": "noteOff"
            },
            {
                "deltaTime": 0,
                "channel": 1,
                "type": "channel",
                "noteNumber": 78,
                "velocity": 88,
                "subtype": "noteOn"
            },
            {
                "deltaTime": 60,
                "channel": 1,
                "type": "channel",
                "noteNumber": 78,
                "velocity": 0,
                "subtype": "noteOff"
            },
            {
                "deltaTime": 0,
                "channel": 1,
                "type": "channel",
                "noteNumber": 82,
                "velocity": 88,
                "subtype": "noteOn"
            },
            {
                "deltaTime": 60,
                "channel": 1,
                "type": "channel",
                "noteNumber": 82,
                "velocity": 0,
                "subtype": "noteOff"
            },
            {
                "deltaTime": 0,
                "channel": 1,
                "type": "channel",
                "subtype": "controller",
                "controllerType": 64,
                "value": 0
            },
            {
                "deltaTime": 0,
                "channel": 1,
                "type": "channel",
                "noteNumber": 90,
                "velocity": 88,
                "subtype": "noteOn"
            },
            {
                "deltaTime": 60,
                "channel": 1,
                "type": "channel",
                "noteNumber": 90,
                "velocity": 0,
                "subtype": "noteOff"
            },
            {
                "deltaTime": 0,
                "channel": 1,
                "type": "channel",
                "noteNumber": 81,
                "velocity": 88,
                "subtype": "noteOn"
            },
            {
                "deltaTime": 60,
                "channel": 1,
                "type": "channel",
                "noteNumber": 81,
                "velocity": 0,
                "subtype": "noteOff"
            },
            {
                "deltaTime": 0,
                "channel": 1,
                "type": "channel",
                "noteNumber": 82,
                "velocity": 88,
                "subtype": "noteOn"
            },
            {
                "deltaTime": 60,
                "channel": 1,
                "type": "channel",
                "noteNumber": 82,
                "velocity": 0,
                "subtype": "noteOff"
            },
            {
                "deltaTime": 0,
                "channel": 1,
                "type": "channel",
                "noteNumber": 88,
                "velocity": 88,
                "subtype": "noteOn"
            },
            {
                "deltaTime": 60,
                "channel": 1,
                "type": "channel",
                "noteNumber": 88,
                "velocity": 0,
                "subtype": "noteOff"
            },
            {
                "deltaTime": 0,
                "channel": 1,
                "type": "channel",
                "noteNumber": 76,
                "velocity": 88,
                "subtype": "noteOn"
            },
            {
                "deltaTime": 0,
                "channel": 1,
                "type": "channel",
                "noteNumber": 80,
                "velocity": 88,
                "subtype": "noteOn"
            },
            {
                "deltaTime": 23,
                "channel": 1,
                "type": "channel",
                "noteNumber": 80,
                "velocity": 0,
                "subtype": "noteOff"
            },
            {
                "deltaTime": 0,
                "channel": 1,
                "type": "channel",
                "noteNumber": 76,
                "velocity": 0,
                "subtype": "noteOff"
            },
            {
                "deltaTime": 97,
                "channel": 1,
                "type": "channel",
                "noteNumber": 75,
                "velocity": 88,
                "subtype": "noteOn"
            },
            {
                "deltaTime": 0,
                "channel": 1,
                "type": "channel",
                "noteNumber": 78,
                "velocity": 88,
                "subtype": "noteOn"
            },
            {
                "deltaTime": 23,
                "channel": 1,
                "type": "channel",
                "noteNumber": 78,
                "velocity": 0,
                "subtype": "noteOff"
            },
            {
                "deltaTime": 0,
                "channel": 1,
                "type": "channel",
                "noteNumber": 75,
                "velocity": 0,
                "subtype": "noteOff"
            },
            {
                "deltaTime": 97,
                "channel": 1,
                "type": "channel",
                "noteNumber": 76,
                "velocity": 88,
                "subtype": "noteOn"
            },
            {
                "deltaTime": 0,
                "channel": 1,
                "type": "channel",
                "noteNumber": 80,
                "velocity": 88,
                "subtype": "noteOn"
            },
            {
                "deltaTime": 23,
                "channel": 1,
                "type": "channel",
                "noteNumber": 80,
                "velocity": 0,
                "subtype": "noteOff"
            },
            {
                "deltaTime": 0,
                "channel": 1,
                "type": "channel",
                "noteNumber": 76,
                "velocity": 0,
                "subtype": "noteOff"
            },
            {
                "deltaTime": 97,
                "channel": 1,
                "type": "channel",
                "noteNumber": 77,
                "velocity": 88,
                "subtype": "noteOn"
            },
            {
                "deltaTime": 0,
                "channel": 1,
                "type": "channel",
                "noteNumber": 81,
                "velocity": 88,
                "subtype": "noteOn"
            },
            {
                "deltaTime": 23,
                "channel": 1,
                "type": "channel",
                "noteNumber": 81,
                "velocity": 0,
                "subtype": "noteOff"
            },
            {
                "deltaTime": 0,
                "channel": 1,
                "type": "channel",
                "noteNumber": 77,
                "velocity": 0,
                "subtype": "noteOff"
            },
            {
                "deltaTime": 97,
                "channel": 1,
                "type": "channel",
                "noteNumber": 76,
                "velocity": 88,
                "subtype": "noteOn"
            },
            {
                "deltaTime": 0,
                "channel": 1,
                "type": "channel",
                "noteNumber": 80,
                "velocity": 88,
                "subtype": "noteOn"
            },
            {
                "deltaTime": 47,
                "channel": 1,
                "type": "channel",
                "noteNumber": 80,
                "velocity": 0,
                "subtype": "noteOff"
            },
            {
                "deltaTime": 0,
                "channel": 1,
                "type": "channel",
                "noteNumber": 76,
                "velocity": 0,
                "subtype": "noteOff"
            },
            {
                "deltaTime": 193,
                "channel": 1,
                "type": "channel",
                "subtype": "controller",
                "controllerType": 64,
                "value": 127
            },
            {
                "deltaTime": 0,
                "channel": 1,
                "type": "channel",
                "noteNumber": 68,
                "velocity": 88,
                "subtype": "noteOn"
            },
            {
                "deltaTime": 30,
                "channel": 1,
                "type": "channel",
                "noteNumber": 68,
                "velocity": 0,
                "subtype": "noteOff"
            },
            {
                "deltaTime": 0,
                "channel": 1,
                "type": "channel",
                "noteNumber": 72,
                "velocity": 88,
                "subtype": "noteOn"
            },
            {
                "deltaTime": 30,
                "channel": 1,
                "type": "channel",
                "noteNumber": 72,
                "velocity": 0,
                "subtype": "noteOff"
            },
            {
                "deltaTime": 0,
                "channel": 1,
                "type": "channel",
                "noteNumber": 74,
                "velocity": 88,
                "subtype": "noteOn"
            },
            {
                "deltaTime": 30,
                "channel": 1,
                "type": "channel",
                "noteNumber": 74,
                "velocity": 0,
                "subtype": "noteOff"
            },
            {
                "deltaTime": 0,
                "channel": 1,
                "type": "channel",
                "noteNumber": 76,
                "velocity": 88,
                "subtype": "noteOn"
            },
            {
                "deltaTime": 30,
                "channel": 1,
                "type": "channel",
                "noteNumber": 76,
                "velocity": 0,
                "subtype": "noteOff"
            },
            {
                "deltaTime": 0,
                "channel": 1,
                "type": "channel",
                "noteNumber": 80,
                "velocity": 88,
                "subtype": "noteOn"
            },
            {
                "deltaTime": 30,
                "channel": 1,
                "type": "channel",
                "noteNumber": 80,
                "velocity": 0,
                "subtype": "noteOff"
            },
            {
                "deltaTime": 0,
                "channel": 1,
                "type": "channel",
                "noteNumber": 84,
                "velocity": 88,
                "subtype": "noteOn"
            },
            {
                "deltaTime": 30,
                "channel": 1,
                "type": "channel",
                "noteNumber": 84,
                "velocity": 0,
                "subtype": "noteOff"
            },
            {
                "deltaTime": 0,
                "channel": 1,
                "type": "channel",
                "noteNumber": 86,
                "velocity": 88,
                "subtype": "noteOn"
            },
            {
                "deltaTime": 30,
                "channel": 1,
                "type": "channel",
                "noteNumber": 86,
                "velocity": 0,
                "subtype": "noteOff"
            },
            {
                "deltaTime": 0,
                "channel": 1,
                "type": "channel",
                "noteNumber": 88,
                "velocity": 88,
                "subtype": "noteOn"
            },
            {
                "deltaTime": 30,
                "channel": 1,
                "type": "channel",
                "noteNumber": 88,
                "velocity": 0,
                "subtype": "noteOff"
            },
            {
                "deltaTime": 0,
                "channel": 1,
                "type": "channel",
                "noteNumber": 92,
                "velocity": 88,
                "subtype": "noteOn"
            },
            {
                "deltaTime": 60,
                "channel": 1,
                "type": "channel",
                "noteNumber": 92,
                "velocity": 0,
                "subtype": "noteOff"
            },
            {
                "deltaTime": 0,
                "channel": 1,
                "type": "channel",
                "noteNumber": 88,
                "velocity": 88,
                "subtype": "noteOn"
            },
            {
                "deltaTime": 60,
                "channel": 1,
                "type": "channel",
                "noteNumber": 88,
                "velocity": 0,
                "subtype": "noteOff"
            },
            {
                "deltaTime": 0,
                "channel": 1,
                "type": "channel",
                "noteNumber": 86,
                "velocity": 88,
                "subtype": "noteOn"
            },
            {
                "deltaTime": 60,
                "channel": 1,
                "type": "channel",
                "noteNumber": 86,
                "velocity": 0,
                "subtype": "noteOff"
            },
            {
                "deltaTime": 0,
                "channel": 1,
                "type": "channel",
                "noteNumber": 84,
                "velocity": 88,
                "subtype": "noteOn"
            },
            {
                "deltaTime": 60,
                "channel": 1,
                "type": "channel",
                "noteNumber": 84,
                "velocity": 0,
                "subtype": "noteOff"
            },
            {
                "deltaTime": 0,
                "channel": 1,
                "type": "channel",
                "subtype": "controller",
                "controllerType": 64,
                "value": 0
            },
            {
                "deltaTime": 0,
                "channel": 1,
                "type": "channel",
                "noteNumber": 80,
                "velocity": 88,
                "subtype": "noteOn"
            },
            {
                "deltaTime": 240,
                "channel": 1,
                "type": "channel",
                "noteNumber": 80,
                "velocity": 0,
                "subtype": "noteOff"
            },
            {
                "deltaTime": 0,
                "channel": 1,
                "type": "channel",
                "subtype": "controller",
                "controllerType": 64,
                "value": 127
            },
            {
                "deltaTime": 0,
                "channel": 1,
                "type": "channel",
                "noteNumber": 58,
                "velocity": 88,
                "subtype": "noteOn"
            },
            {
                "deltaTime": 60,
                "channel": 1,
                "type": "channel",
                "noteNumber": 58,
                "velocity": 0,
                "subtype": "noteOff"
            },
            {
                "deltaTime": 0,
                "channel": 1,
                "type": "channel",
                "noteNumber": 77,
                "velocity": 88,
                "subtype": "noteOn"
            },
            {
                "deltaTime": 60,
                "channel": 1,
                "type": "channel",
                "noteNumber": 77,
                "velocity": 0,
                "subtype": "noteOff"
            },
            {
                "deltaTime": 0,
                "channel": 1,
                "type": "channel",
                "noteNumber": 78,
                "velocity": 88,
                "subtype": "noteOn"
            },
            {
                "deltaTime": 60,
                "channel": 1,
                "type": "channel",
                "noteNumber": 78,
                "velocity": 0,
                "subtype": "noteOff"
            },
            {
                "deltaTime": 0,
                "channel": 1,
                "type": "channel",
                "noteNumber": 82,
                "velocity": 88,
                "subtype": "noteOn"
            },
            {
                "deltaTime": 60,
                "channel": 1,
                "type": "channel",
                "noteNumber": 82,
                "velocity": 0,
                "subtype": "noteOff"
            },
            {
                "deltaTime": 0,
                "channel": 1,
                "type": "channel",
                "subtype": "controller",
                "controllerType": 64,
                "value": 0
            },
            {
                "deltaTime": 0,
                "channel": 1,
                "type": "channel",
                "noteNumber": 90,
                "velocity": 88,
                "subtype": "noteOn"
            },
            {
                "deltaTime": 240,
                "channel": 1,
                "type": "channel",
                "noteNumber": 90,
                "velocity": 0,
                "subtype": "noteOff"
            },
            {
                "deltaTime": 0,
                "channel": 1,
                "type": "channel",
                "subtype": "controller",
                "controllerType": 64,
                "value": 127
            },
            {
                "deltaTime": 0,
                "channel": 1,
                "type": "channel",
                "noteNumber": 58,
                "velocity": 88,
                "subtype": "noteOn"
            },
            {
                "deltaTime": 60,
                "channel": 1,
                "type": "channel",
                "noteNumber": 58,
                "velocity": 0,
                "subtype": "noteOff"
            },
            {
                "deltaTime": 0,
                "channel": 1,
                "type": "channel",
                "noteNumber": 77,
                "velocity": 88,
                "subtype": "noteOn"
            },
            {
                "deltaTime": 60,
                "channel": 1,
                "type": "channel",
                "noteNumber": 77,
                "velocity": 0,
                "subtype": "noteOff"
            },
            {
                "deltaTime": 0,
                "channel": 1,
                "type": "channel",
                "noteNumber": 78,
                "velocity": 88,
                "subtype": "noteOn"
            },
            {
                "deltaTime": 60,
                "channel": 1,
                "type": "channel",
                "noteNumber": 78,
                "velocity": 0,
                "subtype": "noteOff"
            },
            {
                "deltaTime": 0,
                "channel": 1,
                "type": "channel",
                "noteNumber": 82,
                "velocity": 88,
                "subtype": "noteOn"
            },
            {
                "deltaTime": 60,
                "channel": 1,
                "type": "channel",
                "noteNumber": 82,
                "velocity": 0,
                "subtype": "noteOff"
            },
            {
                "deltaTime": 0,
                "channel": 1,
                "type": "channel",
                "subtype": "controller",
                "controllerType": 64,
                "value": 0
            },
            {
                "deltaTime": 0,
                "channel": 1,
                "type": "channel",
                "noteNumber": 90,
                "velocity": 88,
                "subtype": "noteOn"
            },
            {
                "deltaTime": 240,
                "channel": 1,
                "type": "channel",
                "noteNumber": 90,
                "velocity": 0,
                "subtype": "noteOff"
            },
            {
                "deltaTime": 0,
                "channel": 1,
                "type": "channel",
                "subtype": "controller",
                "controllerType": 64,
                "value": 127
            },
            {
                "deltaTime": 0,
                "channel": 1,
                "type": "channel",
                "noteNumber": 58,
                "velocity": 88,
                "subtype": "noteOn"
            },
            {
                "deltaTime": 60,
                "channel": 1,
                "type": "channel",
                "noteNumber": 58,
                "velocity": 0,
                "subtype": "noteOff"
            },
            {
                "deltaTime": 0,
                "channel": 1,
                "type": "channel",
                "noteNumber": 77,
                "velocity": 88,
                "subtype": "noteOn"
            },
            {
                "deltaTime": 60,
                "channel": 1,
                "type": "channel",
                "noteNumber": 77,
                "velocity": 0,
                "subtype": "noteOff"
            },
            {
                "deltaTime": 0,
                "channel": 1,
                "type": "channel",
                "noteNumber": 78,
                "velocity": 88,
                "subtype": "noteOn"
            },
            {
                "deltaTime": 60,
                "channel": 1,
                "type": "channel",
                "noteNumber": 78,
                "velocity": 0,
                "subtype": "noteOff"
            },
            {
                "deltaTime": 0,
                "channel": 1,
                "type": "channel",
                "noteNumber": 82,
                "velocity": 88,
                "subtype": "noteOn"
            },
            {
                "deltaTime": 60,
                "channel": 1,
                "type": "channel",
                "noteNumber": 82,
                "velocity": 0,
                "subtype": "noteOff"
            },
            {
                "deltaTime": 0,
                "channel": 1,
                "type": "channel",
                "subtype": "controller",
                "controllerType": 64,
                "value": 0
            },
            {
                "deltaTime": 0,
                "channel": 1,
                "type": "channel",
                "noteNumber": 90,
                "velocity": 88,
                "subtype": "noteOn"
            },
            {
                "deltaTime": 60,
                "channel": 1,
                "type": "channel",
                "noteNumber": 90,
                "velocity": 0,
                "subtype": "noteOff"
            },
            {
                "deltaTime": 0,
                "channel": 1,
                "type": "channel",
                "noteNumber": 81,
                "velocity": 88,
                "subtype": "noteOn"
            },
            {
                "deltaTime": 60,
                "channel": 1,
                "type": "channel",
                "noteNumber": 81,
                "velocity": 0,
                "subtype": "noteOff"
            },
            {
                "deltaTime": 0,
                "channel": 1,
                "type": "channel",
                "noteNumber": 82,
                "velocity": 88,
                "subtype": "noteOn"
            },
            {
                "deltaTime": 60,
                "channel": 1,
                "type": "channel",
                "noteNumber": 82,
                "velocity": 0,
                "subtype": "noteOff"
            },
            {
                "deltaTime": 0,
                "channel": 1,
                "type": "channel",
                "noteNumber": 88,
                "velocity": 88,
                "subtype": "noteOn"
            },
            {
                "deltaTime": 60,
                "channel": 1,
                "type": "channel",
                "noteNumber": 88,
                "velocity": 0,
                "subtype": "noteOff"
            },
            {
                "deltaTime": 0,
                "channel": 1,
                "type": "channel",
                "noteNumber": 76,
                "velocity": 88,
                "subtype": "noteOn"
            },
            {
                "deltaTime": 0,
                "channel": 1,
                "type": "channel",
                "noteNumber": 80,
                "velocity": 88,
                "subtype": "noteOn"
            },
            {
                "deltaTime": 23,
                "channel": 1,
                "type": "channel",
                "noteNumber": 80,
                "velocity": 0,
                "subtype": "noteOff"
            },
            {
                "deltaTime": 0,
                "channel": 1,
                "type": "channel",
                "noteNumber": 76,
                "velocity": 0,
                "subtype": "noteOff"
            },
            {
                "deltaTime": 97,
                "channel": 1,
                "type": "channel",
                "noteNumber": 75,
                "velocity": 88,
                "subtype": "noteOn"
            },
            {
                "deltaTime": 0,
                "channel": 1,
                "type": "channel",
                "noteNumber": 79,
                "velocity": 88,
                "subtype": "noteOn"
            },
            {
                "deltaTime": 23,
                "channel": 1,
                "type": "channel",
                "noteNumber": 79,
                "velocity": 0,
                "subtype": "noteOff"
            },
            {
                "deltaTime": 0,
                "channel": 1,
                "type": "channel",
                "noteNumber": 75,
                "velocity": 0,
                "subtype": "noteOff"
            },
            {
                "deltaTime": 97,
                "channel": 1,
                "type": "channel",
                "noteNumber": 76,
                "velocity": 88,
                "subtype": "noteOn"
            },
            {
                "deltaTime": 0,
                "channel": 1,
                "type": "channel",
                "noteNumber": 80,
                "velocity": 88,
                "subtype": "noteOn"
            },
            {
                "deltaTime": 23,
                "channel": 1,
                "type": "channel",
                "noteNumber": 80,
                "velocity": 0,
                "subtype": "noteOff"
            },
            {
                "deltaTime": 0,
                "channel": 1,
                "type": "channel",
                "noteNumber": 76,
                "velocity": 0,
                "subtype": "noteOff"
            },
            {
                "deltaTime": 97,
                "channel": 1,
                "type": "channel",
                "noteNumber": 77,
                "velocity": 88,
                "subtype": "noteOn"
            },
            {
                "deltaTime": 0,
                "channel": 1,
                "type": "channel",
                "noteNumber": 81,
                "velocity": 88,
                "subtype": "noteOn"
            },
            {
                "deltaTime": 23,
                "channel": 1,
                "type": "channel",
                "noteNumber": 81,
                "velocity": 0,
                "subtype": "noteOff"
            },
            {
                "deltaTime": 0,
                "channel": 1,
                "type": "channel",
                "noteNumber": 77,
                "velocity": 0,
                "subtype": "noteOff"
            },
            {
                "deltaTime": 97,
                "channel": 1,
                "type": "channel",
                "subtype": "controller",
                "controllerType": 64,
                "value": 127
            },
            {
                "deltaTime": 0,
                "channel": 1,
                "type": "channel",
                "noteNumber": 76,
                "velocity": 88,
                "subtype": "noteOn"
            },
            {
                "deltaTime": 0,
                "channel": 1,
                "type": "channel",
                "noteNumber": 80,
                "velocity": 88,
                "subtype": "noteOn"
            },
            {
                "deltaTime": 120,
                "channel": 1,
                "type": "channel",
                "noteNumber": 80,
                "velocity": 0,
                "subtype": "noteOff"
            },
            {
                "deltaTime": 0,
                "channel": 1,
                "type": "channel",
                "noteNumber": 76,
                "velocity": 0,
                "subtype": "noteOff"
            },
            {
                "deltaTime": 0,
                "channel": 1,
                "type": "channel",
                "noteNumber": 77,
                "velocity": 88,
                "subtype": "noteOn"
            },
            {
                "deltaTime": 0,
                "channel": 1,
                "type": "channel",
                "noteNumber": 81,
                "velocity": 88,
                "subtype": "noteOn"
            },
            {
                "deltaTime": 120,
                "channel": 1,
                "type": "channel",
                "noteNumber": 81,
                "velocity": 0,
                "subtype": "noteOff"
            },
            {
                "deltaTime": 0,
                "channel": 1,
                "type": "channel",
                "noteNumber": 77,
                "velocity": 0,
                "subtype": "noteOff"
            },
            {
                "deltaTime": 0,
                "channel": 1,
                "type": "channel",
                "noteNumber": 78,
                "velocity": 88,
                "subtype": "noteOn"
            },
            {
                "deltaTime": 0,
                "channel": 1,
                "type": "channel",
                "noteNumber": 82,
                "velocity": 88,
                "subtype": "noteOn"
            },
            {
                "deltaTime": 120,
                "channel": 1,
                "type": "channel",
                "noteNumber": 82,
                "velocity": 0,
                "subtype": "noteOff"
            },
            {
                "deltaTime": 0,
                "channel": 1,
                "type": "channel",
                "noteNumber": 78,
                "velocity": 0,
                "subtype": "noteOff"
            },
            {
                "deltaTime": 0,
                "channel": 1,
                "type": "channel",
                "noteNumber": 79,
                "velocity": 88,
                "subtype": "noteOn"
            },
            {
                "deltaTime": 0,
                "channel": 1,
                "type": "channel",
                "noteNumber": 85,
                "velocity": 88,
                "subtype": "noteOn"
            },
            {
                "deltaTime": 120,
                "channel": 1,
                "type": "channel",
                "noteNumber": 85,
                "velocity": 0,
                "subtype": "noteOff"
            },
            {
                "deltaTime": 0,
                "channel": 1,
                "type": "channel",
                "noteNumber": 79,
                "velocity": 0,
                "subtype": "noteOff"
            },
            {
                "deltaTime": 0,
                "channel": 1,
                "type": "channel",
                "noteNumber": 80,
                "velocity": 88,
                "subtype": "noteOn"
            },
            {
                "deltaTime": 0,
                "channel": 1,
                "type": "channel",
                "noteNumber": 84,
                "velocity": 88,
                "subtype": "noteOn"
            },
            {
                "deltaTime": 120,
                "channel": 1,
                "type": "channel",
                "noteNumber": 84,
                "velocity": 0,
                "subtype": "noteOff"
            },
            {
                "deltaTime": 0,
                "channel": 1,
                "type": "channel",
                "noteNumber": 80,
                "velocity": 0,
                "subtype": "noteOff"
            },
            {
                "deltaTime": 0,
                "channel": 1,
                "type": "channel",
                "noteNumber": 81,
                "velocity": 88,
                "subtype": "noteOn"
            },
            {
                "deltaTime": 0,
                "channel": 1,
                "type": "channel",
                "noteNumber": 87,
                "velocity": 88,
                "subtype": "noteOn"
            },
            {
                "deltaTime": 120,
                "channel": 1,
                "type": "channel",
                "noteNumber": 87,
                "velocity": 0,
                "subtype": "noteOff"
            },
            {
                "deltaTime": 0,
                "channel": 1,
                "type": "channel",
                "noteNumber": 81,
                "velocity": 0,
                "subtype": "noteOff"
            },
            {
                "deltaTime": 0,
                "channel": 1,
                "type": "channel",
                "noteNumber": 82,
                "velocity": 88,
                "subtype": "noteOn"
            },
            {
                "deltaTime": 0,
                "channel": 1,
                "type": "channel",
                "noteNumber": 86,
                "velocity": 88,
                "subtype": "noteOn"
            },
            {
                "deltaTime": 120,
                "channel": 1,
                "type": "channel",
                "noteNumber": 86,
                "velocity": 0,
                "subtype": "noteOff"
            },
            {
                "deltaTime": 0,
                "channel": 1,
                "type": "channel",
                "noteNumber": 82,
                "velocity": 0,
                "subtype": "noteOff"
            },
            {
                "deltaTime": 0,
                "channel": 1,
                "type": "channel",
                "subtype": "controller",
                "controllerType": 64,
                "value": 0
            },
            {
                "deltaTime": 0,
                "channel": 1,
                "type": "channel",
                "noteNumber": 83,
                "velocity": 88,
                "subtype": "noteOn"
            },
            {
                "deltaTime": 0,
                "channel": 1,
                "type": "channel",
                "noteNumber": 89,
                "velocity": 88,
                "subtype": "noteOn"
            },
            {
                "deltaTime": 120,
                "channel": 1,
                "type": "channel",
                "noteNumber": 89,
                "velocity": 0,
                "subtype": "noteOff"
            },
            {
                "deltaTime": 0,
                "channel": 1,
                "type": "channel",
                "noteNumber": 83,
                "velocity": 0,
                "subtype": "noteOff"
            },
            {
                "deltaTime": 0,
                "channel": 1,
                "type": "channel",
                "subtype": "controller",
                "controllerType": 64,
                "value": 127
            },
            {
                "deltaTime": 0,
                "channel": 1,
                "type": "channel",
                "noteNumber": 84,
                "velocity": 88,
                "subtype": "noteOn"
            },
            {
                "deltaTime": 0,
                "channel": 1,
                "type": "channel",
                "noteNumber": 88,
                "velocity": 88,
                "subtype": "noteOn"
            },
            {
                "deltaTime": 60,
                "channel": 1,
                "type": "channel",
                "noteNumber": 88,
                "velocity": 0,
                "subtype": "noteOff"
            },
            {
                "deltaTime": 0,
                "channel": 1,
                "type": "channel",
                "noteNumber": 84,
                "velocity": 0,
                "subtype": "noteOff"
            },
            {
                "deltaTime": 0,
                "channel": 1,
                "type": "channel",
                "noteNumber": 82,
                "velocity": 88,
                "subtype": "noteOn"
            },
            {
                "deltaTime": 60,
                "channel": 1,
                "type": "channel",
                "noteNumber": 82,
                "velocity": 0,
                "subtype": "noteOff"
            },
            {
                "deltaTime": 0,
                "channel": 1,
                "type": "channel",
                "noteNumber": 84,
                "velocity": 88,
                "subtype": "noteOn"
            },
            {
                "deltaTime": 60,
                "channel": 1,
                "type": "channel",
                "noteNumber": 84,
                "velocity": 0,
                "subtype": "noteOff"
            },
            {
                "deltaTime": 0,
                "channel": 1,
                "type": "channel",
                "noteNumber": 88,
                "velocity": 88,
                "subtype": "noteOn"
            },
            {
                "deltaTime": 60,
                "channel": 1,
                "type": "channel",
                "noteNumber": 88,
                "velocity": 0,
                "subtype": "noteOff"
            },
            {
                "deltaTime": 0,
                "channel": 1,
                "type": "channel",
                "subtype": "controller",
                "controllerType": 64,
                "value": 0
            },
            {
                "deltaTime": 0,
                "channel": 1,
                "type": "channel",
                "noteNumber": 97,
                "velocity": 88,
                "subtype": "noteOn"
            },
            {
                "deltaTime": 240,
                "channel": 1,
                "type": "channel",
                "noteNumber": 97,
                "velocity": 0,
                "subtype": "noteOff"
            },
            {
                "deltaTime": 0,
                "channel": 1,
                "type": "channel",
                "subtype": "controller",
                "controllerType": 64,
                "value": 127
            },
            {
                "deltaTime": 0,
                "channel": 1,
                "type": "channel",
                "noteNumber": 70,
                "velocity": 88,
                "subtype": "noteOn"
            },
            {
                "deltaTime": 60,
                "channel": 1,
                "type": "channel",
                "noteNumber": 70,
                "velocity": 0,
                "subtype": "noteOff"
            },
            {
                "deltaTime": 0,
                "channel": 1,
                "type": "channel",
                "noteNumber": 82,
                "velocity": 88,
                "subtype": "noteOn"
            },
            {
                "deltaTime": 60,
                "channel": 1,
                "type": "channel",
                "noteNumber": 82,
                "velocity": 0,
                "subtype": "noteOff"
            },
            {
                "deltaTime": 0,
                "channel": 1,
                "type": "channel",
                "noteNumber": 84,
                "velocity": 88,
                "subtype": "noteOn"
            },
            {
                "deltaTime": 60,
                "channel": 1,
                "type": "channel",
                "noteNumber": 84,
                "velocity": 0,
                "subtype": "noteOff"
            },
            {
                "deltaTime": 0,
                "channel": 1,
                "type": "channel",
                "noteNumber": 88,
                "velocity": 88,
                "subtype": "noteOn"
            },
            {
                "deltaTime": 60,
                "channel": 1,
                "type": "channel",
                "noteNumber": 88,
                "velocity": 0,
                "subtype": "noteOff"
            },
            {
                "deltaTime": 0,
                "channel": 1,
                "type": "channel",
                "subtype": "controller",
                "controllerType": 64,
                "value": 0
            },
            {
                "deltaTime": 0,
                "channel": 1,
                "type": "channel",
                "noteNumber": 97,
                "velocity": 88,
                "subtype": "noteOn"
            },
            {
                "deltaTime": 240,
                "channel": 1,
                "type": "channel",
                "noteNumber": 97,
                "velocity": 0,
                "subtype": "noteOff"
            },
            {
                "deltaTime": 0,
                "channel": 1,
                "type": "channel",
                "subtype": "controller",
                "controllerType": 64,
                "value": 127
            },
            {
                "deltaTime": 0,
                "channel": 1,
                "type": "channel",
                "noteNumber": 70,
                "velocity": 88,
                "subtype": "noteOn"
            },
            {
                "deltaTime": 60,
                "channel": 1,
                "type": "channel",
                "noteNumber": 70,
                "velocity": 0,
                "subtype": "noteOff"
            },
            {
                "deltaTime": 0,
                "channel": 1,
                "type": "channel",
                "noteNumber": 82,
                "velocity": 88,
                "subtype": "noteOn"
            },
            {
                "deltaTime": 60,
                "channel": 1,
                "type": "channel",
                "noteNumber": 82,
                "velocity": 0,
                "subtype": "noteOff"
            },
            {
                "deltaTime": 0,
                "channel": 1,
                "type": "channel",
                "noteNumber": 84,
                "velocity": 88,
                "subtype": "noteOn"
            },
            {
                "deltaTime": 60,
                "channel": 1,
                "type": "channel",
                "noteNumber": 84,
                "velocity": 0,
                "subtype": "noteOff"
            },
            {
                "deltaTime": 0,
                "channel": 1,
                "type": "channel",
                "noteNumber": 88,
                "velocity": 88,
                "subtype": "noteOn"
            },
            {
                "deltaTime": 60,
                "channel": 1,
                "type": "channel",
                "noteNumber": 88,
                "velocity": 0,
                "subtype": "noteOff"
            },
            {
                "deltaTime": 0,
                "channel": 1,
                "type": "channel",
                "subtype": "controller",
                "controllerType": 64,
                "value": 0
            },
            {
                "deltaTime": 0,
                "channel": 1,
                "type": "channel",
                "noteNumber": 97,
                "velocity": 88,
                "subtype": "noteOn"
            },
            {
                "deltaTime": 60,
                "channel": 1,
                "type": "channel",
                "noteNumber": 97,
                "velocity": 0,
                "subtype": "noteOff"
            },
            {
                "deltaTime": 0,
                "channel": 1,
                "type": "channel",
                "noteNumber": 87,
                "velocity": 88,
                "subtype": "noteOn"
            },
            {
                "deltaTime": 60,
                "channel": 1,
                "type": "channel",
                "noteNumber": 87,
                "velocity": 0,
                "subtype": "noteOff"
            },
            {
                "deltaTime": 0,
                "channel": 1,
                "type": "channel",
                "noteNumber": 88,
                "velocity": 88,
                "subtype": "noteOn"
            },
            {
                "deltaTime": 60,
                "channel": 1,
                "type": "channel",
                "noteNumber": 88,
                "velocity": 0,
                "subtype": "noteOff"
            },
            {
                "deltaTime": 0,
                "channel": 1,
                "type": "channel",
                "noteNumber": 96,
                "velocity": 88,
                "subtype": "noteOn"
            },
            {
                "deltaTime": 60,
                "channel": 1,
                "type": "channel",
                "noteNumber": 96,
                "velocity": 0,
                "subtype": "noteOff"
            },
            {
                "deltaTime": 0,
                "channel": 1,
                "type": "channel",
                "noteNumber": 82,
                "velocity": 88,
                "subtype": "noteOn"
            },
            {
                "deltaTime": 0,
                "channel": 1,
                "type": "channel",
                "noteNumber": 86,
                "velocity": 88,
                "subtype": "noteOn"
            },
            {
                "deltaTime": 23,
                "channel": 1,
                "type": "channel",
                "noteNumber": 86,
                "velocity": 0,
                "subtype": "noteOff"
            },
            {
                "deltaTime": 0,
                "channel": 1,
                "type": "channel",
                "noteNumber": 82,
                "velocity": 0,
                "subtype": "noteOff"
            },
            {
                "deltaTime": 97,
                "channel": 1,
                "type": "channel",
                "noteNumber": 81,
                "velocity": 88,
                "subtype": "noteOn"
            },
            {
                "deltaTime": 0,
                "channel": 1,
                "type": "channel",
                "noteNumber": 85,
                "velocity": 88,
                "subtype": "noteOn"
            },
            {
                "deltaTime": 23,
                "channel": 1,
                "type": "channel",
                "noteNumber": 85,
                "velocity": 0,
                "subtype": "noteOff"
            },
            {
                "deltaTime": 0,
                "channel": 1,
                "type": "channel",
                "noteNumber": 81,
                "velocity": 0,
                "subtype": "noteOff"
            },
            {
                "deltaTime": 97,
                "channel": 1,
                "type": "channel",
                "noteNumber": 82,
                "velocity": 88,
                "subtype": "noteOn"
            },
            {
                "deltaTime": 0,
                "channel": 1,
                "type": "channel",
                "noteNumber": 86,
                "velocity": 88,
                "subtype": "noteOn"
            },
            {
                "deltaTime": 23,
                "channel": 1,
                "type": "channel",
                "noteNumber": 86,
                "velocity": 0,
                "subtype": "noteOff"
            },
            {
                "deltaTime": 0,
                "channel": 1,
                "type": "channel",
                "noteNumber": 82,
                "velocity": 0,
                "subtype": "noteOff"
            },
            {
                "deltaTime": 97,
                "channel": 1,
                "type": "channel",
                "noteNumber": 83,
                "velocity": 88,
                "subtype": "noteOn"
            },
            {
                "deltaTime": 0,
                "channel": 1,
                "type": "channel",
                "noteNumber": 87,
                "velocity": 88,
                "subtype": "noteOn"
            },
            {
                "deltaTime": 23,
                "channel": 1,
                "type": "channel",
                "noteNumber": 87,
                "velocity": 0,
                "subtype": "noteOff"
            },
            {
                "deltaTime": 0,
                "channel": 1,
                "type": "channel",
                "noteNumber": 83,
                "velocity": 0,
                "subtype": "noteOff"
            },
            {
                "deltaTime": 97,
                "channel": 1,
                "type": "channel",
                "noteNumber": 82,
                "velocity": 88,
                "subtype": "noteOn"
            },
            {
                "deltaTime": 0,
                "channel": 1,
                "type": "channel",
                "noteNumber": 86,
                "velocity": 88,
                "subtype": "noteOn"
            },
            {
                "deltaTime": 47,
                "channel": 1,
                "type": "channel",
                "noteNumber": 86,
                "velocity": 0,
                "subtype": "noteOff"
            },
            {
                "deltaTime": 0,
                "channel": 1,
                "type": "channel",
                "noteNumber": 82,
                "velocity": 0,
                "subtype": "noteOff"
            },
            {
                "deltaTime": 193,
                "channel": 1,
                "type": "channel",
                "subtype": "controller",
                "controllerType": 64,
                "value": 127
            },
            {
                "deltaTime": 0,
                "channel": 1,
                "type": "channel",
                "noteNumber": 86,
                "velocity": 88,
                "subtype": "noteOn"
            },
            {
                "deltaTime": 30,
                "channel": 1,
                "type": "channel",
                "noteNumber": 86,
                "velocity": 0,
                "subtype": "noteOff"
            },
            {
                "deltaTime": 0,
                "channel": 1,
                "type": "channel",
                "noteNumber": 90,
                "velocity": 88,
                "subtype": "noteOn"
            },
            {
                "deltaTime": 30,
                "channel": 1,
                "type": "channel",
                "noteNumber": 90,
                "velocity": 0,
                "subtype": "noteOff"
            },
            {
                "deltaTime": 0,
                "channel": 1,
                "type": "channel",
                "noteNumber": 92,
                "velocity": 88,
                "subtype": "noteOn"
            },
            {
                "deltaTime": 30,
                "channel": 1,
                "type": "channel",
                "noteNumber": 92,
                "velocity": 0,
                "subtype": "noteOff"
            },
            {
                "deltaTime": 0,
                "channel": 1,
                "type": "channel",
                "noteNumber": 94,
                "velocity": 88,
                "subtype": "noteOn"
            },
            {
                "deltaTime": 30,
                "channel": 1,
                "type": "channel",
                "noteNumber": 94,
                "velocity": 0,
                "subtype": "noteOff"
            },
            {
                "deltaTime": 0,
                "channel": 1,
                "type": "channel",
                "noteNumber": 86,
                "velocity": 88,
                "subtype": "noteOn"
            },
            {
                "deltaTime": 30,
                "channel": 1,
                "type": "channel",
                "noteNumber": 86,
                "velocity": 0,
                "subtype": "noteOff"
            },
            {
                "deltaTime": 0,
                "channel": 1,
                "type": "channel",
                "noteNumber": 90,
                "velocity": 88,
                "subtype": "noteOn"
            },
            {
                "deltaTime": 30,
                "channel": 1,
                "type": "channel",
                "noteNumber": 90,
                "velocity": 0,
                "subtype": "noteOff"
            },
            {
                "deltaTime": 0,
                "channel": 1,
                "type": "channel",
                "noteNumber": 92,
                "velocity": 88,
                "subtype": "noteOn"
            },
            {
                "deltaTime": 30,
                "channel": 1,
                "type": "channel",
                "noteNumber": 92,
                "velocity": 0,
                "subtype": "noteOff"
            },
            {
                "deltaTime": 0,
                "channel": 1,
                "type": "channel",
                "noteNumber": 94,
                "velocity": 88,
                "subtype": "noteOn"
            },
            {
                "deltaTime": 30,
                "channel": 1,
                "type": "channel",
                "noteNumber": 94,
                "velocity": 0,
                "subtype": "noteOff"
            },
            {
                "deltaTime": 0,
                "channel": 1,
                "type": "channel",
                "noteNumber": 98,
                "velocity": 88,
                "subtype": "noteOn"
            },
            {
                "deltaTime": 60,
                "channel": 1,
                "type": "channel",
                "noteNumber": 98,
                "velocity": 0,
                "subtype": "noteOff"
            },
            {
                "deltaTime": 0,
                "channel": 1,
                "type": "channel",
                "noteNumber": 94,
                "velocity": 88,
                "subtype": "noteOn"
            },
            {
                "deltaTime": 60,
                "channel": 1,
                "type": "channel",
                "noteNumber": 94,
                "velocity": 0,
                "subtype": "noteOff"
            },
            {
                "deltaTime": 0,
                "channel": 1,
                "type": "channel",
                "noteNumber": 92,
                "velocity": 88,
                "subtype": "noteOn"
            },
            {
                "deltaTime": 60,
                "channel": 1,
                "type": "channel",
                "noteNumber": 92,
                "velocity": 0,
                "subtype": "noteOff"
            },
            {
                "deltaTime": 0,
                "channel": 1,
                "type": "channel",
                "noteNumber": 90,
                "velocity": 88,
                "subtype": "noteOn"
            },
            {
                "deltaTime": 60,
                "channel": 1,
                "type": "channel",
                "noteNumber": 90,
                "velocity": 0,
                "subtype": "noteOff"
            },
            {
                "deltaTime": 0,
                "channel": 1,
                "type": "channel",
                "subtype": "controller",
                "controllerType": 64,
                "value": 0
            },
            {
                "deltaTime": 0,
                "channel": 1,
                "type": "channel",
                "noteNumber": 86,
                "velocity": 88,
                "subtype": "noteOn"
            },
            {
                "deltaTime": 240,
                "channel": 1,
                "type": "channel",
                "noteNumber": 86,
                "velocity": 0,
                "subtype": "noteOff"
            },
            {
                "deltaTime": 720,
                "channel": 1,
                "type": "channel",
                "noteNumber": 70,
                "velocity": 75,
                "subtype": "noteOn"
            },
            {
                "deltaTime": 0,
                "channel": 1,
                "type": "channel",
                "noteNumber": 74,
                "velocity": 75,
                "subtype": "noteOn"
            },
            {
                "deltaTime": 120,
                "channel": 1,
                "type": "channel",
                "noteNumber": 74,
                "velocity": 0,
                "subtype": "noteOff"
            },
            {
                "deltaTime": 0,
                "channel": 1,
                "type": "channel",
                "noteNumber": 70,
                "velocity": 0,
                "subtype": "noteOff"
            },
            {
                "deltaTime": 0,
                "channel": 1,
                "type": "channel",
                "noteNumber": 71,
                "velocity": 75,
                "subtype": "noteOn"
            },
            {
                "deltaTime": 0,
                "channel": 1,
                "type": "channel",
                "noteNumber": 75,
                "velocity": 75,
                "subtype": "noteOn"
            },
            {
                "deltaTime": 23,
                "channel": 1,
                "type": "channel",
                "noteNumber": 75,
                "velocity": 0,
                "subtype": "noteOff"
            },
            {
                "deltaTime": 0,
                "channel": 1,
                "type": "channel",
                "noteNumber": 71,
                "velocity": 0,
                "subtype": "noteOff"
            },
            {
                "deltaTime": 97,
                "channel": 1,
                "type": "channel",
                "noteNumber": 70,
                "velocity": 75,
                "subtype": "noteOn"
            },
            {
                "deltaTime": 0,
                "channel": 1,
                "type": "channel",
                "noteNumber": 74,
                "velocity": 75,
                "subtype": "noteOn"
            },
            {
                "deltaTime": 23,
                "channel": 1,
                "type": "channel",
                "noteNumber": 74,
                "velocity": 0,
                "subtype": "noteOff"
            },
            {
                "deltaTime": 0,
                "channel": 1,
                "type": "channel",
                "noteNumber": 70,
                "velocity": 0,
                "subtype": "noteOff"
            },
            {
                "deltaTime": 97,
                "channel": 1,
                "type": "channel",
                "noteNumber": 69,
                "velocity": 75,
                "subtype": "noteOn"
            },
            {
                "deltaTime": 0,
                "channel": 1,
                "type": "channel",
                "noteNumber": 73,
                "velocity": 75,
                "subtype": "noteOn"
            },
            {
                "deltaTime": 23,
                "channel": 1,
                "type": "channel",
                "noteNumber": 73,
                "velocity": 0,
                "subtype": "noteOff"
            },
            {
                "deltaTime": 0,
                "channel": 1,
                "type": "channel",
                "noteNumber": 69,
                "velocity": 0,
                "subtype": "noteOff"
            },
            {
                "deltaTime": 97,
                "channel": 1,
                "type": "channel",
                "noteNumber": 70,
                "velocity": 75,
                "subtype": "noteOn"
            },
            {
                "deltaTime": 0,
                "channel": 1,
                "type": "channel",
                "noteNumber": 74,
                "velocity": 75,
                "subtype": "noteOn"
            },
            {
                "deltaTime": 23,
                "channel": 1,
                "type": "channel",
                "noteNumber": 74,
                "velocity": 0,
                "subtype": "noteOff"
            },
            {
                "deltaTime": 0,
                "channel": 1,
                "type": "channel",
                "noteNumber": 70,
                "velocity": 0,
                "subtype": "noteOff"
            },
            {
                "deltaTime": 97,
                "channel": 1,
                "type": "channel",
                "noteNumber": 71,
                "velocity": 75,
                "subtype": "noteOn"
            },
            {
                "deltaTime": 0,
                "channel": 1,
                "type": "channel",
                "noteNumber": 75,
                "velocity": 75,
                "subtype": "noteOn"
            },
            {
                "deltaTime": 23,
                "channel": 1,
                "type": "channel",
                "noteNumber": 75,
                "velocity": 0,
                "subtype": "noteOff"
            },
            {
                "deltaTime": 0,
                "channel": 1,
                "type": "channel",
                "noteNumber": 71,
                "velocity": 0,
                "subtype": "noteOff"
            },
            {
                "deltaTime": 1537,
                "channel": 1,
                "type": "channel",
                "noteNumber": 72,
                "velocity": 49,
                "subtype": "noteOn"
            },
            {
                "deltaTime": 0,
                "channel": 1,
                "type": "channel",
                "noteNumber": 74,
                "velocity": 49,
                "subtype": "noteOn"
            },
            {
                "deltaTime": 120,
                "channel": 1,
                "type": "channel",
                "noteNumber": 74,
                "velocity": 0,
                "subtype": "noteOff"
            },
            {
                "deltaTime": 0,
                "channel": 1,
                "type": "channel",
                "noteNumber": 72,
                "velocity": 0,
                "subtype": "noteOff"
            },
            {
                "deltaTime": 0,
                "channel": 1,
                "type": "channel",
                "noteNumber": 68,
                "velocity": 49,
                "subtype": "noteOn"
            },
            {
                "deltaTime": 120,
                "channel": 1,
                "type": "channel",
                "noteNumber": 68,
                "velocity": 0,
                "subtype": "noteOff"
            },
            {
                "deltaTime": 0,
                "channel": 1,
                "type": "channel",
                "noteNumber": 72,
                "velocity": 49,
                "subtype": "noteOn"
            },
            {
                "deltaTime": 0,
                "channel": 1,
                "type": "channel",
                "noteNumber": 74,
                "velocity": 49,
                "subtype": "noteOn"
            },
            {
                "deltaTime": 120,
                "channel": 1,
                "type": "channel",
                "noteNumber": 74,
                "velocity": 0,
                "subtype": "noteOff"
            },
            {
                "deltaTime": 0,
                "channel": 1,
                "type": "channel",
                "noteNumber": 72,
                "velocity": 0,
                "subtype": "noteOff"
            },
            {
                "deltaTime": 0,
                "channel": 1,
                "type": "channel",
                "noteNumber": 68,
                "velocity": 49,
                "subtype": "noteOn"
            },
            {
                "deltaTime": 120,
                "channel": 1,
                "type": "channel",
                "noteNumber": 68,
                "velocity": 0,
                "subtype": "noteOff"
            },
            {
                "deltaTime": 0,
                "channel": 1,
                "type": "channel",
                "noteNumber": 72,
                "velocity": 49,
                "subtype": "noteOn"
            },
            {
                "deltaTime": 0,
                "channel": 1,
                "type": "channel",
                "noteNumber": 74,
                "velocity": 49,
                "subtype": "noteOn"
            },
            {
                "deltaTime": 120,
                "channel": 1,
                "type": "channel",
                "noteNumber": 74,
                "velocity": 0,
                "subtype": "noteOff"
            },
            {
                "deltaTime": 0,
                "channel": 1,
                "type": "channel",
                "noteNumber": 72,
                "velocity": 0,
                "subtype": "noteOff"
            },
            {
                "deltaTime": 0,
                "channel": 1,
                "type": "channel",
                "noteNumber": 68,
                "velocity": 49,
                "subtype": "noteOn"
            },
            {
                "deltaTime": 120,
                "channel": 1,
                "type": "channel",
                "noteNumber": 68,
                "velocity": 0,
                "subtype": "noteOff"
            },
            {
                "deltaTime": 0,
                "channel": 1,
                "type": "channel",
                "noteNumber": 72,
                "velocity": 49,
                "subtype": "noteOn"
            },
            {
                "deltaTime": 0,
                "channel": 1,
                "type": "channel",
                "noteNumber": 75,
                "velocity": 49,
                "subtype": "noteOn"
            },
            {
                "deltaTime": 120,
                "channel": 1,
                "type": "channel",
                "noteNumber": 75,
                "velocity": 0,
                "subtype": "noteOff"
            },
            {
                "deltaTime": 0,
                "channel": 1,
                "type": "channel",
                "noteNumber": 72,
                "velocity": 0,
                "subtype": "noteOff"
            },
            {
                "deltaTime": 0,
                "channel": 1,
                "type": "channel",
                "noteNumber": 68,
                "velocity": 49,
                "subtype": "noteOn"
            },
            {
                "deltaTime": 0,
                "channel": 1,
                "type": "channel",
                "noteNumber": 74,
                "velocity": 49,
                "subtype": "noteOn"
            },
            {
                "deltaTime": 120,
                "channel": 1,
                "type": "channel",
                "noteNumber": 74,
                "velocity": 0,
                "subtype": "noteOff"
            },
            {
                "deltaTime": 0,
                "channel": 1,
                "type": "channel",
                "noteNumber": 68,
                "velocity": 0,
                "subtype": "noteOff"
            },
            {
                "deltaTime": 0,
                "channel": 1,
                "type": "channel",
                "noteNumber": 72,
                "velocity": 49,
                "subtype": "noteOn"
            },
            {
                "deltaTime": 0,
                "channel": 1,
                "type": "channel",
                "noteNumber": 75,
                "velocity": 49,
                "subtype": "noteOn"
            },
            {
                "deltaTime": 120,
                "channel": 1,
                "type": "channel",
                "noteNumber": 75,
                "velocity": 0,
                "subtype": "noteOff"
            },
            {
                "deltaTime": 0,
                "channel": 1,
                "type": "channel",
                "noteNumber": 72,
                "velocity": 0,
                "subtype": "noteOff"
            },
            {
                "deltaTime": 0,
                "channel": 1,
                "type": "channel",
                "noteNumber": 68,
                "velocity": 49,
                "subtype": "noteOn"
            },
            {
                "deltaTime": 0,
                "channel": 1,
                "type": "channel",
                "noteNumber": 74,
                "velocity": 49,
                "subtype": "noteOn"
            },
            {
                "deltaTime": 120,
                "channel": 1,
                "type": "channel",
                "noteNumber": 74,
                "velocity": 0,
                "subtype": "noteOff"
            },
            {
                "deltaTime": 0,
                "channel": 1,
                "type": "channel",
                "noteNumber": 68,
                "velocity": 0,
                "subtype": "noteOff"
            },
            {
                "deltaTime": 0,
                "channel": 1,
                "type": "channel",
                "noteNumber": 72,
                "velocity": 49,
                "subtype": "noteOn"
            },
            {
                "deltaTime": 0,
                "channel": 1,
                "type": "channel",
                "noteNumber": 75,
                "velocity": 49,
                "subtype": "noteOn"
            },
            {
                "deltaTime": 120,
                "channel": 1,
                "type": "channel",
                "noteNumber": 75,
                "velocity": 0,
                "subtype": "noteOff"
            },
            {
                "deltaTime": 0,
                "channel": 1,
                "type": "channel",
                "noteNumber": 72,
                "velocity": 0,
                "subtype": "noteOff"
            },
            {
                "deltaTime": 0,
                "channel": 1,
                "type": "channel",
                "noteNumber": 68,
                "velocity": 49,
                "subtype": "noteOn"
            },
            {
                "deltaTime": 0,
                "channel": 1,
                "type": "channel",
                "noteNumber": 74,
                "velocity": 49,
                "subtype": "noteOn"
            },
            {
                "deltaTime": 120,
                "channel": 1,
                "type": "channel",
                "noteNumber": 74,
                "velocity": 0,
                "subtype": "noteOff"
            },
            {
                "deltaTime": 0,
                "channel": 1,
                "type": "channel",
                "noteNumber": 68,
                "velocity": 0,
                "subtype": "noteOff"
            },
            {
                "deltaTime": 0,
                "channel": 1,
                "type": "channel",
                "noteNumber": 72,
                "velocity": 49,
                "subtype": "noteOn"
            },
            {
                "deltaTime": 0,
                "channel": 1,
                "type": "channel",
                "noteNumber": 76,
                "velocity": 49,
                "subtype": "noteOn"
            },
            {
                "deltaTime": 120,
                "channel": 1,
                "type": "channel",
                "noteNumber": 76,
                "velocity": 0,
                "subtype": "noteOff"
            },
            {
                "deltaTime": 0,
                "channel": 1,
                "type": "channel",
                "noteNumber": 72,
                "velocity": 0,
                "subtype": "noteOff"
            },
            {
                "deltaTime": 0,
                "channel": 1,
                "type": "channel",
                "noteNumber": 68,
                "velocity": 49,
                "subtype": "noteOn"
            },
            {
                "deltaTime": 0,
                "channel": 1,
                "type": "channel",
                "noteNumber": 74,
                "velocity": 49,
                "subtype": "noteOn"
            },
            {
                "deltaTime": 120,
                "channel": 1,
                "type": "channel",
                "noteNumber": 74,
                "velocity": 0,
                "subtype": "noteOff"
            },
            {
                "deltaTime": 0,
                "channel": 1,
                "type": "channel",
                "noteNumber": 68,
                "velocity": 0,
                "subtype": "noteOff"
            },
            {
                "deltaTime": 0,
                "channel": 1,
                "type": "channel",
                "noteNumber": 72,
                "velocity": 49,
                "subtype": "noteOn"
            },
            {
                "deltaTime": 0,
                "channel": 1,
                "type": "channel",
                "noteNumber": 76,
                "velocity": 49,
                "subtype": "noteOn"
            },
            {
                "deltaTime": 120,
                "channel": 1,
                "type": "channel",
                "noteNumber": 76,
                "velocity": 0,
                "subtype": "noteOff"
            },
            {
                "deltaTime": 0,
                "channel": 1,
                "type": "channel",
                "noteNumber": 72,
                "velocity": 0,
                "subtype": "noteOff"
            },
            {
                "deltaTime": 0,
                "channel": 1,
                "type": "channel",
                "noteNumber": 68,
                "velocity": 49,
                "subtype": "noteOn"
            },
            {
                "deltaTime": 0,
                "channel": 1,
                "type": "channel",
                "noteNumber": 74,
                "velocity": 49,
                "subtype": "noteOn"
            },
            {
                "deltaTime": 120,
                "channel": 1,
                "type": "channel",
                "noteNumber": 74,
                "velocity": 0,
                "subtype": "noteOff"
            },
            {
                "deltaTime": 0,
                "channel": 1,
                "type": "channel",
                "noteNumber": 68,
                "velocity": 0,
                "subtype": "noteOff"
            },
            {
                "deltaTime": 0,
                "channel": 1,
                "type": "channel",
                "noteNumber": 72,
                "velocity": 49,
                "subtype": "noteOn"
            },
            {
                "deltaTime": 0,
                "channel": 1,
                "type": "channel",
                "noteNumber": 76,
                "velocity": 49,
                "subtype": "noteOn"
            },
            {
                "deltaTime": 120,
                "channel": 1,
                "type": "channel",
                "noteNumber": 76,
                "velocity": 0,
                "subtype": "noteOff"
            },
            {
                "deltaTime": 0,
                "channel": 1,
                "type": "channel",
                "noteNumber": 72,
                "velocity": 0,
                "subtype": "noteOff"
            },
            {
                "deltaTime": 0,
                "channel": 1,
                "type": "channel",
                "noteNumber": 68,
                "velocity": 49,
                "subtype": "noteOn"
            },
            {
                "deltaTime": 0,
                "channel": 1,
                "type": "channel",
                "noteNumber": 74,
                "velocity": 49,
                "subtype": "noteOn"
            },
            {
                "deltaTime": 120,
                "channel": 1,
                "type": "channel",
                "noteNumber": 74,
                "velocity": 0,
                "subtype": "noteOff"
            },
            {
                "deltaTime": 0,
                "channel": 1,
                "type": "channel",
                "noteNumber": 68,
                "velocity": 0,
                "subtype": "noteOff"
            },
            {
                "deltaTime": 0,
                "channel": 1,
                "type": "channel",
                "noteNumber": 72,
                "velocity": 49,
                "subtype": "noteOn"
            },
            {
                "deltaTime": 0,
                "channel": 1,
                "type": "channel",
                "noteNumber": 77,
                "velocity": 49,
                "subtype": "noteOn"
            },
            {
                "deltaTime": 120,
                "channel": 1,
                "type": "channel",
                "noteNumber": 77,
                "velocity": 0,
                "subtype": "noteOff"
            },
            {
                "deltaTime": 0,
                "channel": 1,
                "type": "channel",
                "noteNumber": 72,
                "velocity": 0,
                "subtype": "noteOff"
            },
            {
                "deltaTime": 0,
                "channel": 1,
                "type": "channel",
                "noteNumber": 68,
                "velocity": 49,
                "subtype": "noteOn"
            },
            {
                "deltaTime": 0,
                "channel": 1,
                "type": "channel",
                "noteNumber": 74,
                "velocity": 49,
                "subtype": "noteOn"
            },
            {
                "deltaTime": 120,
                "channel": 1,
                "type": "channel",
                "noteNumber": 74,
                "velocity": 0,
                "subtype": "noteOff"
            },
            {
                "deltaTime": 0,
                "channel": 1,
                "type": "channel",
                "noteNumber": 68,
                "velocity": 0,
                "subtype": "noteOff"
            },
            {
                "deltaTime": 0,
                "channel": 1,
                "type": "channel",
                "noteNumber": 72,
                "velocity": 49,
                "subtype": "noteOn"
            },
            {
                "deltaTime": 0,
                "channel": 1,
                "type": "channel",
                "noteNumber": 77,
                "velocity": 49,
                "subtype": "noteOn"
            },
            {
                "deltaTime": 120,
                "channel": 1,
                "type": "channel",
                "noteNumber": 77,
                "velocity": 0,
                "subtype": "noteOff"
            },
            {
                "deltaTime": 0,
                "channel": 1,
                "type": "channel",
                "noteNumber": 72,
                "velocity": 0,
                "subtype": "noteOff"
            },
            {
                "deltaTime": 0,
                "channel": 1,
                "type": "channel",
                "noteNumber": 68,
                "velocity": 49,
                "subtype": "noteOn"
            },
            {
                "deltaTime": 0,
                "channel": 1,
                "type": "channel",
                "noteNumber": 74,
                "velocity": 49,
                "subtype": "noteOn"
            },
            {
                "deltaTime": 120,
                "channel": 1,
                "type": "channel",
                "noteNumber": 74,
                "velocity": 0,
                "subtype": "noteOff"
            },
            {
                "deltaTime": 0,
                "channel": 1,
                "type": "channel",
                "noteNumber": 68,
                "velocity": 0,
                "subtype": "noteOff"
            },
            {
                "deltaTime": 0,
                "channel": 1,
                "type": "channel",
                "noteNumber": 72,
                "velocity": 49,
                "subtype": "noteOn"
            },
            {
                "deltaTime": 0,
                "channel": 1,
                "type": "channel",
                "noteNumber": 77,
                "velocity": 49,
                "subtype": "noteOn"
            },
            {
                "deltaTime": 120,
                "channel": 1,
                "type": "channel",
                "noteNumber": 77,
                "velocity": 0,
                "subtype": "noteOff"
            },
            {
                "deltaTime": 0,
                "channel": 1,
                "type": "channel",
                "noteNumber": 72,
                "velocity": 0,
                "subtype": "noteOff"
            },
            {
                "deltaTime": 0,
                "channel": 1,
                "type": "channel",
                "noteNumber": 68,
                "velocity": 49,
                "subtype": "noteOn"
            },
            {
                "deltaTime": 0,
                "channel": 1,
                "type": "channel",
                "noteNumber": 74,
                "velocity": 49,
                "subtype": "noteOn"
            },
            {
                "deltaTime": 120,
                "channel": 1,
                "type": "channel",
                "noteNumber": 74,
                "velocity": 0,
                "subtype": "noteOff"
            },
            {
                "deltaTime": 0,
                "channel": 1,
                "type": "channel",
                "noteNumber": 68,
                "velocity": 0,
                "subtype": "noteOff"
            },
            {
                "deltaTime": 0,
                "channel": 1,
                "type": "channel",
                "noteNumber": 69,
                "velocity": 49,
                "subtype": "noteOn"
            },
            {
                "deltaTime": 0,
                "channel": 1,
                "type": "channel",
                "noteNumber": 74,
                "velocity": 49,
                "subtype": "noteOn"
            },
            {
                "deltaTime": 0,
                "channel": 1,
                "type": "channel",
                "noteNumber": 78,
                "velocity": 49,
                "subtype": "noteOn"
            },
            {
                "deltaTime": 60,
                "channel": 1,
                "type": "channel",
                "noteNumber": 78,
                "velocity": 0,
                "subtype": "noteOff"
            },
            {
                "deltaTime": 0,
                "channel": 1,
                "type": "channel",
                "noteNumber": 74,
                "velocity": 0,
                "subtype": "noteOff"
            },
            {
                "deltaTime": 0,
                "channel": 1,
                "type": "channel",
                "noteNumber": 69,
                "velocity": 0,
                "subtype": "noteOff"
            },
            {
                "deltaTime": 0,
                "channel": 1,
                "type": "channel",
                "noteNumber": 68,
                "velocity": 49,
                "subtype": "noteOn"
            },
            {
                "deltaTime": 60,
                "channel": 1,
                "type": "channel",
                "noteNumber": 68,
                "velocity": 0,
                "subtype": "noteOff"
            },
            {
                "deltaTime": 0,
                "channel": 1,
                "type": "channel",
                "noteNumber": 69,
                "velocity": 49,
                "subtype": "noteOn"
            },
            {
                "deltaTime": 0,
                "channel": 1,
                "type": "channel",
                "noteNumber": 74,
                "velocity": 49,
                "subtype": "noteOn"
            },
            {
                "deltaTime": 0,
                "channel": 1,
                "type": "channel",
                "noteNumber": 78,
                "velocity": 49,
                "subtype": "noteOn"
            },
            {
                "deltaTime": 60,
                "channel": 1,
                "type": "channel",
                "noteNumber": 78,
                "velocity": 0,
                "subtype": "noteOff"
            },
            {
                "deltaTime": 0,
                "channel": 1,
                "type": "channel",
                "noteNumber": 74,
                "velocity": 0,
                "subtype": "noteOff"
            },
            {
                "deltaTime": 0,
                "channel": 1,
                "type": "channel",
                "noteNumber": 69,
                "velocity": 0,
                "subtype": "noteOff"
            },
            {
                "deltaTime": 0,
                "channel": 1,
                "type": "channel",
                "noteNumber": 68,
                "velocity": 49,
                "subtype": "noteOn"
            },
            {
                "deltaTime": 60,
                "channel": 1,
                "type": "channel",
                "noteNumber": 68,
                "velocity": 0,
                "subtype": "noteOff"
            },
            {
                "deltaTime": 240,
                "channel": 1,
                "type": "channel",
                "noteNumber": 70,
                "velocity": 49,
                "subtype": "noteOn"
            },
            {
                "deltaTime": 0,
                "channel": 1,
                "type": "channel",
                "noteNumber": 74,
                "velocity": 49,
                "subtype": "noteOn"
            },
            {
                "deltaTime": 0,
                "channel": 1,
                "type": "channel",
                "noteNumber": 78,
                "velocity": 49,
                "subtype": "noteOn"
            },
            {
                "deltaTime": 60,
                "channel": 1,
                "type": "channel",
                "noteNumber": 78,
                "velocity": 0,
                "subtype": "noteOff"
            },
            {
                "deltaTime": 0,
                "channel": 1,
                "type": "channel",
                "noteNumber": 74,
                "velocity": 0,
                "subtype": "noteOff"
            },
            {
                "deltaTime": 0,
                "channel": 1,
                "type": "channel",
                "noteNumber": 70,
                "velocity": 0,
                "subtype": "noteOff"
            },
            {
                "deltaTime": 0,
                "channel": 1,
                "type": "channel",
                "noteNumber": 68,
                "velocity": 49,
                "subtype": "noteOn"
            },
            {
                "deltaTime": 60,
                "channel": 1,
                "type": "channel",
                "noteNumber": 68,
                "velocity": 0,
                "subtype": "noteOff"
            },
            {
                "deltaTime": 0,
                "channel": 1,
                "type": "channel",
                "noteNumber": 70,
                "velocity": 49,
                "subtype": "noteOn"
            },
            {
                "deltaTime": 0,
                "channel": 1,
                "type": "channel",
                "noteNumber": 74,
                "velocity": 49,
                "subtype": "noteOn"
            },
            {
                "deltaTime": 0,
                "channel": 1,
                "type": "channel",
                "noteNumber": 78,
                "velocity": 49,
                "subtype": "noteOn"
            },
            {
                "deltaTime": 60,
                "channel": 1,
                "type": "channel",
                "noteNumber": 78,
                "velocity": 0,
                "subtype": "noteOff"
            },
            {
                "deltaTime": 0,
                "channel": 1,
                "type": "channel",
                "noteNumber": 74,
                "velocity": 0,
                "subtype": "noteOff"
            },
            {
                "deltaTime": 0,
                "channel": 1,
                "type": "channel",
                "noteNumber": 70,
                "velocity": 0,
                "subtype": "noteOff"
            },
            {
                "deltaTime": 0,
                "channel": 1,
                "type": "channel",
                "noteNumber": 68,
                "velocity": 49,
                "subtype": "noteOn"
            },
            {
                "deltaTime": 60,
                "channel": 1,
                "type": "channel",
                "noteNumber": 68,
                "velocity": 0,
                "subtype": "noteOff"
            },
            {
                "deltaTime": 240,
                "channel": 1,
                "type": "channel",
                "noteNumber": 71,
                "velocity": 49,
                "subtype": "noteOn"
            },
            {
                "deltaTime": 0,
                "channel": 1,
                "type": "channel",
                "noteNumber": 74,
                "velocity": 49,
                "subtype": "noteOn"
            },
            {
                "deltaTime": 0,
                "channel": 1,
                "type": "channel",
                "noteNumber": 78,
                "velocity": 49,
                "subtype": "noteOn"
            },
            {
                "deltaTime": 60,
                "channel": 1,
                "type": "channel",
                "noteNumber": 78,
                "velocity": 0,
                "subtype": "noteOff"
            },
            {
                "deltaTime": 0,
                "channel": 1,
                "type": "channel",
                "noteNumber": 74,
                "velocity": 0,
                "subtype": "noteOff"
            },
            {
                "deltaTime": 0,
                "channel": 1,
                "type": "channel",
                "noteNumber": 71,
                "velocity": 0,
                "subtype": "noteOff"
            },
            {
                "deltaTime": 0,
                "channel": 1,
                "type": "channel",
                "noteNumber": 68,
                "velocity": 49,
                "subtype": "noteOn"
            },
            {
                "deltaTime": 60,
                "channel": 1,
                "type": "channel",
                "noteNumber": 68,
                "velocity": 0,
                "subtype": "noteOff"
            },
            {
                "deltaTime": 0,
                "channel": 1,
                "type": "channel",
                "noteNumber": 71,
                "velocity": 49,
                "subtype": "noteOn"
            },
            {
                "deltaTime": 0,
                "channel": 1,
                "type": "channel",
                "noteNumber": 74,
                "velocity": 49,
                "subtype": "noteOn"
            },
            {
                "deltaTime": 0,
                "channel": 1,
                "type": "channel",
                "noteNumber": 78,
                "velocity": 49,
                "subtype": "noteOn"
            },
            {
                "deltaTime": 60,
                "channel": 1,
                "type": "channel",
                "noteNumber": 78,
                "velocity": 0,
                "subtype": "noteOff"
            },
            {
                "deltaTime": 0,
                "channel": 1,
                "type": "channel",
                "noteNumber": 74,
                "velocity": 0,
                "subtype": "noteOff"
            },
            {
                "deltaTime": 0,
                "channel": 1,
                "type": "channel",
                "noteNumber": 71,
                "velocity": 0,
                "subtype": "noteOff"
            },
            {
                "deltaTime": 0,
                "channel": 1,
                "type": "channel",
                "noteNumber": 68,
                "velocity": 49,
                "subtype": "noteOn"
            },
            {
                "deltaTime": 60,
                "channel": 1,
                "type": "channel",
                "noteNumber": 68,
                "velocity": 0,
                "subtype": "noteOff"
            },
            {
                "deltaTime": 240,
                "channel": 1,
                "type": "channel",
                "noteNumber": 72,
                "velocity": 49,
                "subtype": "noteOn"
            },
            {
                "deltaTime": 0,
                "channel": 1,
                "type": "channel",
                "noteNumber": 74,
                "velocity": 49,
                "subtype": "noteOn"
            },
            {
                "deltaTime": 0,
                "channel": 1,
                "type": "channel",
                "noteNumber": 78,
                "velocity": 49,
                "subtype": "noteOn"
            },
            {
                "deltaTime": 60,
                "channel": 1,
                "type": "channel",
                "noteNumber": 78,
                "velocity": 0,
                "subtype": "noteOff"
            },
            {
                "deltaTime": 0,
                "channel": 1,
                "type": "channel",
                "noteNumber": 74,
                "velocity": 0,
                "subtype": "noteOff"
            },
            {
                "deltaTime": 0,
                "channel": 1,
                "type": "channel",
                "noteNumber": 72,
                "velocity": 0,
                "subtype": "noteOff"
            },
            {
                "deltaTime": 0,
                "channel": 1,
                "type": "channel",
                "noteNumber": 68,
                "velocity": 49,
                "subtype": "noteOn"
            },
            {
                "deltaTime": 60,
                "channel": 1,
                "type": "channel",
                "noteNumber": 68,
                "velocity": 0,
                "subtype": "noteOff"
            },
            {
                "deltaTime": 0,
                "channel": 1,
                "type": "channel",
                "noteNumber": 72,
                "velocity": 49,
                "subtype": "noteOn"
            },
            {
                "deltaTime": 0,
                "channel": 1,
                "type": "channel",
                "noteNumber": 74,
                "velocity": 49,
                "subtype": "noteOn"
            },
            {
                "deltaTime": 0,
                "channel": 1,
                "type": "channel",
                "noteNumber": 78,
                "velocity": 49,
                "subtype": "noteOn"
            },
            {
                "deltaTime": 60,
                "channel": 1,
                "type": "channel",
                "noteNumber": 78,
                "velocity": 0,
                "subtype": "noteOff"
            },
            {
                "deltaTime": 0,
                "channel": 1,
                "type": "channel",
                "noteNumber": 74,
                "velocity": 0,
                "subtype": "noteOff"
            },
            {
                "deltaTime": 0,
                "channel": 1,
                "type": "channel",
                "noteNumber": 72,
                "velocity": 0,
                "subtype": "noteOff"
            },
            {
                "deltaTime": 0,
                "channel": 1,
                "type": "channel",
                "noteNumber": 68,
                "velocity": 49,
                "subtype": "noteOn"
            },
            {
                "deltaTime": 60,
                "channel": 1,
                "type": "channel",
                "noteNumber": 68,
                "velocity": 0,
                "subtype": "noteOff"
            },
            {
                "deltaTime": 0,
                "channel": 1,
                "type": "channel",
                "noteNumber": 72,
                "velocity": 49,
                "subtype": "noteOn"
            },
            {
                "deltaTime": 0,
                "channel": 1,
                "type": "channel",
                "noteNumber": 74,
                "velocity": 49,
                "subtype": "noteOn"
            },
            {
                "deltaTime": 0,
                "channel": 1,
                "type": "channel",
                "noteNumber": 78,
                "velocity": 49,
                "subtype": "noteOn"
            },
            {
                "deltaTime": 60,
                "channel": 1,
                "type": "channel",
                "noteNumber": 78,
                "velocity": 0,
                "subtype": "noteOff"
            },
            {
                "deltaTime": 0,
                "channel": 1,
                "type": "channel",
                "noteNumber": 74,
                "velocity": 0,
                "subtype": "noteOff"
            },
            {
                "deltaTime": 0,
                "channel": 1,
                "type": "channel",
                "noteNumber": 72,
                "velocity": 0,
                "subtype": "noteOff"
            },
            {
                "deltaTime": 0,
                "channel": 1,
                "type": "channel",
                "noteNumber": 68,
                "velocity": 49,
                "subtype": "noteOn"
            },
            {
                "deltaTime": 60,
                "channel": 1,
                "type": "channel",
                "noteNumber": 68,
                "velocity": 0,
                "subtype": "noteOff"
            },
            {
                "deltaTime": 0,
                "channel": 1,
                "type": "channel",
                "noteNumber": 72,
                "velocity": 49,
                "subtype": "noteOn"
            },
            {
                "deltaTime": 0,
                "channel": 1,
                "type": "channel",
                "noteNumber": 74,
                "velocity": 49,
                "subtype": "noteOn"
            },
            {
                "deltaTime": 0,
                "channel": 1,
                "type": "channel",
                "noteNumber": 78,
                "velocity": 49,
                "subtype": "noteOn"
            },
            {
                "deltaTime": 60,
                "channel": 1,
                "type": "channel",
                "noteNumber": 78,
                "velocity": 0,
                "subtype": "noteOff"
            },
            {
                "deltaTime": 0,
                "channel": 1,
                "type": "channel",
                "noteNumber": 74,
                "velocity": 0,
                "subtype": "noteOff"
            },
            {
                "deltaTime": 0,
                "channel": 1,
                "type": "channel",
                "noteNumber": 72,
                "velocity": 0,
                "subtype": "noteOff"
            },
            {
                "deltaTime": 0,
                "channel": 1,
                "type": "channel",
                "noteNumber": 68,
                "velocity": 49,
                "subtype": "noteOn"
            },
            {
                "deltaTime": 60,
                "channel": 1,
                "type": "channel",
                "noteNumber": 68,
                "velocity": 0,
                "subtype": "noteOff"
            },
            {
                "deltaTime": 0,
                "channel": 1,
                "type": "channel",
                "noteNumber": 72,
                "velocity": 49,
                "subtype": "noteOn"
            },
            {
                "deltaTime": 0,
                "channel": 1,
                "type": "channel",
                "noteNumber": 74,
                "velocity": 49,
                "subtype": "noteOn"
            },
            {
                "deltaTime": 0,
                "channel": 1,
                "type": "channel",
                "noteNumber": 78,
                "velocity": 49,
                "subtype": "noteOn"
            },
            {
                "deltaTime": 60,
                "channel": 1,
                "type": "channel",
                "noteNumber": 78,
                "velocity": 0,
                "subtype": "noteOff"
            },
            {
                "deltaTime": 0,
                "channel": 1,
                "type": "channel",
                "noteNumber": 74,
                "velocity": 0,
                "subtype": "noteOff"
            },
            {
                "deltaTime": 0,
                "channel": 1,
                "type": "channel",
                "noteNumber": 72,
                "velocity": 0,
                "subtype": "noteOff"
            },
            {
                "deltaTime": 0,
                "channel": 1,
                "type": "channel",
                "noteNumber": 68,
                "velocity": 49,
                "subtype": "noteOn"
            },
            {
                "deltaTime": 60,
                "channel": 1,
                "type": "channel",
                "noteNumber": 68,
                "velocity": 0,
                "subtype": "noteOff"
            },
            {
                "deltaTime": 0,
                "channel": 1,
                "type": "channel",
                "noteNumber": 72,
                "velocity": 49,
                "subtype": "noteOn"
            },
            {
                "deltaTime": 0,
                "channel": 1,
                "type": "channel",
                "noteNumber": 74,
                "velocity": 49,
                "subtype": "noteOn"
            },
            {
                "deltaTime": 0,
                "channel": 1,
                "type": "channel",
                "noteNumber": 78,
                "velocity": 49,
                "subtype": "noteOn"
            },
            {
                "deltaTime": 60,
                "channel": 1,
                "type": "channel",
                "noteNumber": 78,
                "velocity": 0,
                "subtype": "noteOff"
            },
            {
                "deltaTime": 0,
                "channel": 1,
                "type": "channel",
                "noteNumber": 74,
                "velocity": 0,
                "subtype": "noteOff"
            },
            {
                "deltaTime": 0,
                "channel": 1,
                "type": "channel",
                "noteNumber": 72,
                "velocity": 0,
                "subtype": "noteOff"
            },
            {
                "deltaTime": 0,
                "channel": 1,
                "type": "channel",
                "noteNumber": 68,
                "velocity": 49,
                "subtype": "noteOn"
            },
            {
                "deltaTime": 60,
                "channel": 1,
                "type": "channel",
                "noteNumber": 68,
                "velocity": 0,
                "subtype": "noteOff"
            },
            {
                "deltaTime": 240,
                "channel": 1,
                "type": "channel",
                "noteNumber": 72,
                "velocity": 49,
                "subtype": "noteOn"
            },
            {
                "deltaTime": 0,
                "channel": 1,
                "type": "channel",
                "noteNumber": 74,
                "velocity": 49,
                "subtype": "noteOn"
            },
            {
                "deltaTime": 0,
                "channel": 1,
                "type": "channel",
                "noteNumber": 78,
                "velocity": 49,
                "subtype": "noteOn"
            },
            {
                "deltaTime": 60,
                "channel": 1,
                "type": "channel",
                "noteNumber": 78,
                "velocity": 0,
                "subtype": "noteOff"
            },
            {
                "deltaTime": 0,
                "channel": 1,
                "type": "channel",
                "noteNumber": 74,
                "velocity": 0,
                "subtype": "noteOff"
            },
            {
                "deltaTime": 0,
                "channel": 1,
                "type": "channel",
                "noteNumber": 72,
                "velocity": 0,
                "subtype": "noteOff"
            },
            {
                "deltaTime": 0,
                "channel": 1,
                "type": "channel",
                "noteNumber": 68,
                "velocity": 49,
                "subtype": "noteOn"
            },
            {
                "deltaTime": 60,
                "channel": 1,
                "type": "channel",
                "noteNumber": 68,
                "velocity": 0,
                "subtype": "noteOff"
            },
            {
                "deltaTime": 0,
                "channel": 1,
                "type": "channel",
                "noteNumber": 72,
                "velocity": 49,
                "subtype": "noteOn"
            },
            {
                "deltaTime": 0,
                "channel": 1,
                "type": "channel",
                "noteNumber": 74,
                "velocity": 49,
                "subtype": "noteOn"
            },
            {
                "deltaTime": 0,
                "channel": 1,
                "type": "channel",
                "noteNumber": 78,
                "velocity": 49,
                "subtype": "noteOn"
            },
            {
                "deltaTime": 60,
                "channel": 1,
                "type": "channel",
                "noteNumber": 78,
                "velocity": 0,
                "subtype": "noteOff"
            },
            {
                "deltaTime": 0,
                "channel": 1,
                "type": "channel",
                "noteNumber": 74,
                "velocity": 0,
                "subtype": "noteOff"
            },
            {
                "deltaTime": 0,
                "channel": 1,
                "type": "channel",
                "noteNumber": 72,
                "velocity": 0,
                "subtype": "noteOff"
            },
            {
                "deltaTime": 0,
                "channel": 1,
                "type": "channel",
                "noteNumber": 68,
                "velocity": 49,
                "subtype": "noteOn"
            },
            {
                "deltaTime": 60,
                "channel": 1,
                "type": "channel",
                "noteNumber": 68,
                "velocity": 0,
                "subtype": "noteOff"
            },
            {
                "deltaTime": 240,
                "channel": 1,
                "type": "channel",
                "noteNumber": 75,
                "velocity": 49,
                "subtype": "noteOn"
            },
            {
                "deltaTime": 0,
                "channel": 1,
                "type": "channel",
                "noteNumber": 77,
                "velocity": 49,
                "subtype": "noteOn"
            },
            {
                "deltaTime": 120,
                "channel": 1,
                "type": "channel",
                "noteNumber": 77,
                "velocity": 0,
                "subtype": "noteOff"
            },
            {
                "deltaTime": 0,
                "channel": 1,
                "type": "channel",
                "noteNumber": 75,
                "velocity": 0,
                "subtype": "noteOff"
            },
            {
                "deltaTime": 0,
                "channel": 1,
                "type": "channel",
                "noteNumber": 71,
                "velocity": 49,
                "subtype": "noteOn"
            },
            {
                "deltaTime": 120,
                "channel": 1,
                "type": "channel",
                "noteNumber": 71,
                "velocity": 0,
                "subtype": "noteOff"
            },
            {
                "deltaTime": 0,
                "channel": 1,
                "type": "channel",
                "noteNumber": 75,
                "velocity": 49,
                "subtype": "noteOn"
            },
            {
                "deltaTime": 0,
                "channel": 1,
                "type": "channel",
                "noteNumber": 77,
                "velocity": 49,
                "subtype": "noteOn"
            },
            {
                "deltaTime": 120,
                "channel": 1,
                "type": "channel",
                "noteNumber": 77,
                "velocity": 0,
                "subtype": "noteOff"
            },
            {
                "deltaTime": 0,
                "channel": 1,
                "type": "channel",
                "noteNumber": 75,
                "velocity": 0,
                "subtype": "noteOff"
            },
            {
                "deltaTime": 0,
                "channel": 1,
                "type": "channel",
                "noteNumber": 71,
                "velocity": 49,
                "subtype": "noteOn"
            },
            {
                "deltaTime": 120,
                "channel": 1,
                "type": "channel",
                "noteNumber": 71,
                "velocity": 0,
                "subtype": "noteOff"
            },
            {
                "deltaTime": 0,
                "channel": 1,
                "type": "channel",
                "noteNumber": 75,
                "velocity": 49,
                "subtype": "noteOn"
            },
            {
                "deltaTime": 0,
                "channel": 1,
                "type": "channel",
                "noteNumber": 77,
                "velocity": 49,
                "subtype": "noteOn"
            },
            {
                "deltaTime": 120,
                "channel": 1,
                "type": "channel",
                "noteNumber": 77,
                "velocity": 0,
                "subtype": "noteOff"
            },
            {
                "deltaTime": 0,
                "channel": 1,
                "type": "channel",
                "noteNumber": 75,
                "velocity": 0,
                "subtype": "noteOff"
            },
            {
                "deltaTime": 0,
                "channel": 1,
                "type": "channel",
                "noteNumber": 71,
                "velocity": 49,
                "subtype": "noteOn"
            },
            {
                "deltaTime": 120,
                "channel": 1,
                "type": "channel",
                "noteNumber": 71,
                "velocity": 0,
                "subtype": "noteOff"
            },
            {
                "deltaTime": 0,
                "channel": 1,
                "type": "channel",
                "noteNumber": 75,
                "velocity": 49,
                "subtype": "noteOn"
            },
            {
                "deltaTime": 0,
                "channel": 1,
                "type": "channel",
                "noteNumber": 78,
                "velocity": 49,
                "subtype": "noteOn"
            },
            {
                "deltaTime": 120,
                "channel": 1,
                "type": "channel",
                "noteNumber": 78,
                "velocity": 0,
                "subtype": "noteOff"
            },
            {
                "deltaTime": 0,
                "channel": 1,
                "type": "channel",
                "noteNumber": 75,
                "velocity": 0,
                "subtype": "noteOff"
            },
            {
                "deltaTime": 0,
                "channel": 1,
                "type": "channel",
                "noteNumber": 71,
                "velocity": 49,
                "subtype": "noteOn"
            },
            {
                "deltaTime": 0,
                "channel": 1,
                "type": "channel",
                "noteNumber": 77,
                "velocity": 49,
                "subtype": "noteOn"
            },
            {
                "deltaTime": 120,
                "channel": 1,
                "type": "channel",
                "noteNumber": 77,
                "velocity": 0,
                "subtype": "noteOff"
            },
            {
                "deltaTime": 0,
                "channel": 1,
                "type": "channel",
                "noteNumber": 71,
                "velocity": 0,
                "subtype": "noteOff"
            },
            {
                "deltaTime": 0,
                "channel": 1,
                "type": "channel",
                "noteNumber": 75,
                "velocity": 49,
                "subtype": "noteOn"
            },
            {
                "deltaTime": 0,
                "channel": 1,
                "type": "channel",
                "noteNumber": 78,
                "velocity": 49,
                "subtype": "noteOn"
            },
            {
                "deltaTime": 120,
                "channel": 1,
                "type": "channel",
                "noteNumber": 78,
                "velocity": 0,
                "subtype": "noteOff"
            },
            {
                "deltaTime": 0,
                "channel": 1,
                "type": "channel",
                "noteNumber": 75,
                "velocity": 0,
                "subtype": "noteOff"
            },
            {
                "deltaTime": 0,
                "channel": 1,
                "type": "channel",
                "noteNumber": 71,
                "velocity": 49,
                "subtype": "noteOn"
            },
            {
                "deltaTime": 0,
                "channel": 1,
                "type": "channel",
                "noteNumber": 77,
                "velocity": 49,
                "subtype": "noteOn"
            },
            {
                "deltaTime": 120,
                "channel": 1,
                "type": "channel",
                "noteNumber": 77,
                "velocity": 0,
                "subtype": "noteOff"
            },
            {
                "deltaTime": 0,
                "channel": 1,
                "type": "channel",
                "noteNumber": 71,
                "velocity": 0,
                "subtype": "noteOff"
            },
            {
                "deltaTime": 0,
                "channel": 1,
                "type": "channel",
                "noteNumber": 75,
                "velocity": 49,
                "subtype": "noteOn"
            },
            {
                "deltaTime": 0,
                "channel": 1,
                "type": "channel",
                "noteNumber": 78,
                "velocity": 49,
                "subtype": "noteOn"
            },
            {
                "deltaTime": 120,
                "channel": 1,
                "type": "channel",
                "noteNumber": 78,
                "velocity": 0,
                "subtype": "noteOff"
            },
            {
                "deltaTime": 0,
                "channel": 1,
                "type": "channel",
                "noteNumber": 75,
                "velocity": 0,
                "subtype": "noteOff"
            },
            {
                "deltaTime": 0,
                "channel": 1,
                "type": "channel",
                "noteNumber": 71,
                "velocity": 49,
                "subtype": "noteOn"
            },
            {
                "deltaTime": 0,
                "channel": 1,
                "type": "channel",
                "noteNumber": 77,
                "velocity": 49,
                "subtype": "noteOn"
            },
            {
                "deltaTime": 120,
                "channel": 1,
                "type": "channel",
                "noteNumber": 77,
                "velocity": 0,
                "subtype": "noteOff"
            },
            {
                "deltaTime": 0,
                "channel": 1,
                "type": "channel",
                "noteNumber": 71,
                "velocity": 0,
                "subtype": "noteOff"
            },
            {
                "deltaTime": 0,
                "channel": 1,
                "type": "channel",
                "noteNumber": 75,
                "velocity": 49,
                "subtype": "noteOn"
            },
            {
                "deltaTime": 0,
                "channel": 1,
                "type": "channel",
                "noteNumber": 79,
                "velocity": 49,
                "subtype": "noteOn"
            },
            {
                "deltaTime": 120,
                "channel": 1,
                "type": "channel",
                "noteNumber": 79,
                "velocity": 0,
                "subtype": "noteOff"
            },
            {
                "deltaTime": 0,
                "channel": 1,
                "type": "channel",
                "noteNumber": 75,
                "velocity": 0,
                "subtype": "noteOff"
            },
            {
                "deltaTime": 0,
                "channel": 1,
                "type": "channel",
                "noteNumber": 71,
                "velocity": 49,
                "subtype": "noteOn"
            },
            {
                "deltaTime": 0,
                "channel": 1,
                "type": "channel",
                "noteNumber": 77,
                "velocity": 49,
                "subtype": "noteOn"
            },
            {
                "deltaTime": 120,
                "channel": 1,
                "type": "channel",
                "noteNumber": 77,
                "velocity": 0,
                "subtype": "noteOff"
            },
            {
                "deltaTime": 0,
                "channel": 1,
                "type": "channel",
                "noteNumber": 71,
                "velocity": 0,
                "subtype": "noteOff"
            },
            {
                "deltaTime": 0,
                "channel": 1,
                "type": "channel",
                "noteNumber": 75,
                "velocity": 49,
                "subtype": "noteOn"
            },
            {
                "deltaTime": 0,
                "channel": 1,
                "type": "channel",
                "noteNumber": 79,
                "velocity": 49,
                "subtype": "noteOn"
            },
            {
                "deltaTime": 120,
                "channel": 1,
                "type": "channel",
                "noteNumber": 79,
                "velocity": 0,
                "subtype": "noteOff"
            },
            {
                "deltaTime": 0,
                "channel": 1,
                "type": "channel",
                "noteNumber": 75,
                "velocity": 0,
                "subtype": "noteOff"
            },
            {
                "deltaTime": 0,
                "channel": 1,
                "type": "channel",
                "noteNumber": 71,
                "velocity": 49,
                "subtype": "noteOn"
            },
            {
                "deltaTime": 0,
                "channel": 1,
                "type": "channel",
                "noteNumber": 77,
                "velocity": 49,
                "subtype": "noteOn"
            },
            {
                "deltaTime": 120,
                "channel": 1,
                "type": "channel",
                "noteNumber": 77,
                "velocity": 0,
                "subtype": "noteOff"
            },
            {
                "deltaTime": 0,
                "channel": 1,
                "type": "channel",
                "noteNumber": 71,
                "velocity": 0,
                "subtype": "noteOff"
            },
            {
                "deltaTime": 0,
                "channel": 1,
                "type": "channel",
                "noteNumber": 75,
                "velocity": 49,
                "subtype": "noteOn"
            },
            {
                "deltaTime": 0,
                "channel": 1,
                "type": "channel",
                "noteNumber": 79,
                "velocity": 49,
                "subtype": "noteOn"
            },
            {
                "deltaTime": 120,
                "channel": 1,
                "type": "channel",
                "noteNumber": 79,
                "velocity": 0,
                "subtype": "noteOff"
            },
            {
                "deltaTime": 0,
                "channel": 1,
                "type": "channel",
                "noteNumber": 75,
                "velocity": 0,
                "subtype": "noteOff"
            },
            {
                "deltaTime": 0,
                "channel": 1,
                "type": "channel",
                "noteNumber": 71,
                "velocity": 49,
                "subtype": "noteOn"
            },
            {
                "deltaTime": 0,
                "channel": 1,
                "type": "channel",
                "noteNumber": 77,
                "velocity": 49,
                "subtype": "noteOn"
            },
            {
                "deltaTime": 120,
                "channel": 1,
                "type": "channel",
                "noteNumber": 77,
                "velocity": 0,
                "subtype": "noteOff"
            },
            {
                "deltaTime": 0,
                "channel": 1,
                "type": "channel",
                "noteNumber": 71,
                "velocity": 0,
                "subtype": "noteOff"
            },
            {
                "deltaTime": 0,
                "channel": 1,
                "type": "channel",
                "noteNumber": 75,
                "velocity": 49,
                "subtype": "noteOn"
            },
            {
                "deltaTime": 0,
                "channel": 1,
                "type": "channel",
                "noteNumber": 80,
                "velocity": 49,
                "subtype": "noteOn"
            },
            {
                "deltaTime": 120,
                "channel": 1,
                "type": "channel",
                "noteNumber": 80,
                "velocity": 0,
                "subtype": "noteOff"
            },
            {
                "deltaTime": 0,
                "channel": 1,
                "type": "channel",
                "noteNumber": 75,
                "velocity": 0,
                "subtype": "noteOff"
            },
            {
                "deltaTime": 0,
                "channel": 1,
                "type": "channel",
                "noteNumber": 71,
                "velocity": 49,
                "subtype": "noteOn"
            },
            {
                "deltaTime": 0,
                "channel": 1,
                "type": "channel",
                "noteNumber": 77,
                "velocity": 49,
                "subtype": "noteOn"
            },
            {
                "deltaTime": 120,
                "channel": 1,
                "type": "channel",
                "noteNumber": 77,
                "velocity": 0,
                "subtype": "noteOff"
            },
            {
                "deltaTime": 0,
                "channel": 1,
                "type": "channel",
                "noteNumber": 71,
                "velocity": 0,
                "subtype": "noteOff"
            },
            {
                "deltaTime": 0,
                "channel": 1,
                "type": "channel",
                "noteNumber": 75,
                "velocity": 49,
                "subtype": "noteOn"
            },
            {
                "deltaTime": 0,
                "channel": 1,
                "type": "channel",
                "noteNumber": 80,
                "velocity": 49,
                "subtype": "noteOn"
            },
            {
                "deltaTime": 120,
                "channel": 1,
                "type": "channel",
                "noteNumber": 80,
                "velocity": 0,
                "subtype": "noteOff"
            },
            {
                "deltaTime": 0,
                "channel": 1,
                "type": "channel",
                "noteNumber": 75,
                "velocity": 0,
                "subtype": "noteOff"
            },
            {
                "deltaTime": 0,
                "channel": 1,
                "type": "channel",
                "noteNumber": 71,
                "velocity": 49,
                "subtype": "noteOn"
            },
            {
                "deltaTime": 0,
                "channel": 1,
                "type": "channel",
                "noteNumber": 77,
                "velocity": 49,
                "subtype": "noteOn"
            },
            {
                "deltaTime": 120,
                "channel": 1,
                "type": "channel",
                "noteNumber": 77,
                "velocity": 0,
                "subtype": "noteOff"
            },
            {
                "deltaTime": 0,
                "channel": 1,
                "type": "channel",
                "noteNumber": 71,
                "velocity": 0,
                "subtype": "noteOff"
            },
            {
                "deltaTime": 0,
                "channel": 1,
                "type": "channel",
                "noteNumber": 75,
                "velocity": 49,
                "subtype": "noteOn"
            },
            {
                "deltaTime": 0,
                "channel": 1,
                "type": "channel",
                "noteNumber": 80,
                "velocity": 49,
                "subtype": "noteOn"
            },
            {
                "deltaTime": 120,
                "channel": 1,
                "type": "channel",
                "noteNumber": 80,
                "velocity": 0,
                "subtype": "noteOff"
            },
            {
                "deltaTime": 0,
                "channel": 1,
                "type": "channel",
                "noteNumber": 75,
                "velocity": 0,
                "subtype": "noteOff"
            },
            {
                "deltaTime": 0,
                "channel": 1,
                "type": "channel",
                "noteNumber": 71,
                "velocity": 49,
                "subtype": "noteOn"
            },
            {
                "deltaTime": 0,
                "channel": 1,
                "type": "channel",
                "noteNumber": 77,
                "velocity": 49,
                "subtype": "noteOn"
            },
            {
                "deltaTime": 120,
                "channel": 1,
                "type": "channel",
                "noteNumber": 77,
                "velocity": 0,
                "subtype": "noteOff"
            },
            {
                "deltaTime": 0,
                "channel": 1,
                "type": "channel",
                "noteNumber": 71,
                "velocity": 0,
                "subtype": "noteOff"
            },
            {
                "deltaTime": 0,
                "channel": 1,
                "type": "channel",
                "noteNumber": 72,
                "velocity": 49,
                "subtype": "noteOn"
            },
            {
                "deltaTime": 0,
                "channel": 1,
                "type": "channel",
                "noteNumber": 77,
                "velocity": 49,
                "subtype": "noteOn"
            },
            {
                "deltaTime": 0,
                "channel": 1,
                "type": "channel",
                "noteNumber": 81,
                "velocity": 49,
                "subtype": "noteOn"
            },
            {
                "deltaTime": 60,
                "channel": 1,
                "type": "channel",
                "noteNumber": 81,
                "velocity": 0,
                "subtype": "noteOff"
            },
            {
                "deltaTime": 0,
                "channel": 1,
                "type": "channel",
                "noteNumber": 77,
                "velocity": 0,
                "subtype": "noteOff"
            },
            {
                "deltaTime": 0,
                "channel": 1,
                "type": "channel",
                "noteNumber": 72,
                "velocity": 0,
                "subtype": "noteOff"
            },
            {
                "deltaTime": 0,
                "channel": 1,
                "type": "channel",
                "noteNumber": 71,
                "velocity": 49,
                "subtype": "noteOn"
            },
            {
                "deltaTime": 60,
                "channel": 1,
                "type": "channel",
                "noteNumber": 71,
                "velocity": 0,
                "subtype": "noteOff"
            },
            {
                "deltaTime": 0,
                "channel": 1,
                "type": "channel",
                "noteNumber": 72,
                "velocity": 49,
                "subtype": "noteOn"
            },
            {
                "deltaTime": 0,
                "channel": 1,
                "type": "channel",
                "noteNumber": 77,
                "velocity": 49,
                "subtype": "noteOn"
            },
            {
                "deltaTime": 0,
                "channel": 1,
                "type": "channel",
                "noteNumber": 81,
                "velocity": 49,
                "subtype": "noteOn"
            },
            {
                "deltaTime": 60,
                "channel": 1,
                "type": "channel",
                "noteNumber": 81,
                "velocity": 0,
                "subtype": "noteOff"
            },
            {
                "deltaTime": 0,
                "channel": 1,
                "type": "channel",
                "noteNumber": 77,
                "velocity": 0,
                "subtype": "noteOff"
            },
            {
                "deltaTime": 0,
                "channel": 1,
                "type": "channel",
                "noteNumber": 72,
                "velocity": 0,
                "subtype": "noteOff"
            },
            {
                "deltaTime": 0,
                "channel": 1,
                "type": "channel",
                "noteNumber": 71,
                "velocity": 49,
                "subtype": "noteOn"
            },
            {
                "deltaTime": 60,
                "channel": 1,
                "type": "channel",
                "noteNumber": 71,
                "velocity": 0,
                "subtype": "noteOff"
            },
            {
                "deltaTime": 240,
                "channel": 1,
                "type": "channel",
                "noteNumber": 73,
                "velocity": 49,
                "subtype": "noteOn"
            },
            {
                "deltaTime": 0,
                "channel": 1,
                "type": "channel",
                "noteNumber": 77,
                "velocity": 49,
                "subtype": "noteOn"
            },
            {
                "deltaTime": 0,
                "channel": 1,
                "type": "channel",
                "noteNumber": 81,
                "velocity": 49,
                "subtype": "noteOn"
            },
            {
                "deltaTime": 60,
                "channel": 1,
                "type": "channel",
                "noteNumber": 81,
                "velocity": 0,
                "subtype": "noteOff"
            },
            {
                "deltaTime": 0,
                "channel": 1,
                "type": "channel",
                "noteNumber": 77,
                "velocity": 0,
                "subtype": "noteOff"
            },
            {
                "deltaTime": 0,
                "channel": 1,
                "type": "channel",
                "noteNumber": 73,
                "velocity": 0,
                "subtype": "noteOff"
            },
            {
                "deltaTime": 0,
                "channel": 1,
                "type": "channel",
                "noteNumber": 71,
                "velocity": 49,
                "subtype": "noteOn"
            },
            {
                "deltaTime": 60,
                "channel": 1,
                "type": "channel",
                "noteNumber": 71,
                "velocity": 0,
                "subtype": "noteOff"
            },
            {
                "deltaTime": 0,
                "channel": 1,
                "type": "channel",
                "noteNumber": 73,
                "velocity": 49,
                "subtype": "noteOn"
            },
            {
                "deltaTime": 0,
                "channel": 1,
                "type": "channel",
                "noteNumber": 77,
                "velocity": 49,
                "subtype": "noteOn"
            },
            {
                "deltaTime": 0,
                "channel": 1,
                "type": "channel",
                "noteNumber": 81,
                "velocity": 49,
                "subtype": "noteOn"
            },
            {
                "deltaTime": 60,
                "channel": 1,
                "type": "channel",
                "noteNumber": 81,
                "velocity": 0,
                "subtype": "noteOff"
            },
            {
                "deltaTime": 0,
                "channel": 1,
                "type": "channel",
                "noteNumber": 77,
                "velocity": 0,
                "subtype": "noteOff"
            },
            {
                "deltaTime": 0,
                "channel": 1,
                "type": "channel",
                "noteNumber": 73,
                "velocity": 0,
                "subtype": "noteOff"
            },
            {
                "deltaTime": 0,
                "channel": 1,
                "type": "channel",
                "noteNumber": 71,
                "velocity": 49,
                "subtype": "noteOn"
            },
            {
                "deltaTime": 60,
                "channel": 1,
                "type": "channel",
                "noteNumber": 71,
                "velocity": 0,
                "subtype": "noteOff"
            },
            {
                "deltaTime": 240,
                "channel": 1,
                "type": "channel",
                "noteNumber": 74,
                "velocity": 49,
                "subtype": "noteOn"
            },
            {
                "deltaTime": 0,
                "channel": 1,
                "type": "channel",
                "noteNumber": 77,
                "velocity": 49,
                "subtype": "noteOn"
            },
            {
                "deltaTime": 0,
                "channel": 1,
                "type": "channel",
                "noteNumber": 81,
                "velocity": 49,
                "subtype": "noteOn"
            },
            {
                "deltaTime": 60,
                "channel": 1,
                "type": "channel",
                "noteNumber": 81,
                "velocity": 0,
                "subtype": "noteOff"
            },
            {
                "deltaTime": 0,
                "channel": 1,
                "type": "channel",
                "noteNumber": 77,
                "velocity": 0,
                "subtype": "noteOff"
            },
            {
                "deltaTime": 0,
                "channel": 1,
                "type": "channel",
                "noteNumber": 74,
                "velocity": 0,
                "subtype": "noteOff"
            },
            {
                "deltaTime": 0,
                "channel": 1,
                "type": "channel",
                "noteNumber": 71,
                "velocity": 49,
                "subtype": "noteOn"
            },
            {
                "deltaTime": 60,
                "channel": 1,
                "type": "channel",
                "noteNumber": 71,
                "velocity": 0,
                "subtype": "noteOff"
            },
            {
                "deltaTime": 0,
                "channel": 1,
                "type": "channel",
                "noteNumber": 74,
                "velocity": 49,
                "subtype": "noteOn"
            },
            {
                "deltaTime": 0,
                "channel": 1,
                "type": "channel",
                "noteNumber": 77,
                "velocity": 49,
                "subtype": "noteOn"
            },
            {
                "deltaTime": 0,
                "channel": 1,
                "type": "channel",
                "noteNumber": 81,
                "velocity": 49,
                "subtype": "noteOn"
            },
            {
                "deltaTime": 60,
                "channel": 1,
                "type": "channel",
                "noteNumber": 81,
                "velocity": 0,
                "subtype": "noteOff"
            },
            {
                "deltaTime": 0,
                "channel": 1,
                "type": "channel",
                "noteNumber": 77,
                "velocity": 0,
                "subtype": "noteOff"
            },
            {
                "deltaTime": 0,
                "channel": 1,
                "type": "channel",
                "noteNumber": 74,
                "velocity": 0,
                "subtype": "noteOff"
            },
            {
                "deltaTime": 0,
                "channel": 1,
                "type": "channel",
                "noteNumber": 71,
                "velocity": 49,
                "subtype": "noteOn"
            },
            {
                "deltaTime": 60,
                "channel": 1,
                "type": "channel",
                "noteNumber": 71,
                "velocity": 0,
                "subtype": "noteOff"
            },
            {
                "deltaTime": 240,
                "channel": 1,
                "type": "channel",
                "noteNumber": 75,
                "velocity": 49,
                "subtype": "noteOn"
            },
            {
                "deltaTime": 0,
                "channel": 1,
                "type": "channel",
                "noteNumber": 77,
                "velocity": 49,
                "subtype": "noteOn"
            },
            {
                "deltaTime": 0,
                "channel": 1,
                "type": "channel",
                "noteNumber": 81,
                "velocity": 49,
                "subtype": "noteOn"
            },
            {
                "deltaTime": 60,
                "channel": 1,
                "type": "channel",
                "noteNumber": 81,
                "velocity": 0,
                "subtype": "noteOff"
            },
            {
                "deltaTime": 0,
                "channel": 1,
                "type": "channel",
                "noteNumber": 77,
                "velocity": 0,
                "subtype": "noteOff"
            },
            {
                "deltaTime": 0,
                "channel": 1,
                "type": "channel",
                "noteNumber": 75,
                "velocity": 0,
                "subtype": "noteOff"
            },
            {
                "deltaTime": 0,
                "channel": 1,
                "type": "channel",
                "noteNumber": 71,
                "velocity": 49,
                "subtype": "noteOn"
            },
            {
                "deltaTime": 60,
                "channel": 1,
                "type": "channel",
                "noteNumber": 71,
                "velocity": 0,
                "subtype": "noteOff"
            },
            {
                "deltaTime": 0,
                "channel": 1,
                "type": "channel",
                "noteNumber": 75,
                "velocity": 49,
                "subtype": "noteOn"
            },
            {
                "deltaTime": 0,
                "channel": 1,
                "type": "channel",
                "noteNumber": 77,
                "velocity": 49,
                "subtype": "noteOn"
            },
            {
                "deltaTime": 0,
                "channel": 1,
                "type": "channel",
                "noteNumber": 81,
                "velocity": 49,
                "subtype": "noteOn"
            },
            {
                "deltaTime": 60,
                "channel": 1,
                "type": "channel",
                "noteNumber": 81,
                "velocity": 0,
                "subtype": "noteOff"
            },
            {
                "deltaTime": 0,
                "channel": 1,
                "type": "channel",
                "noteNumber": 77,
                "velocity": 0,
                "subtype": "noteOff"
            },
            {
                "deltaTime": 0,
                "channel": 1,
                "type": "channel",
                "noteNumber": 75,
                "velocity": 0,
                "subtype": "noteOff"
            },
            {
                "deltaTime": 0,
                "channel": 1,
                "type": "channel",
                "noteNumber": 71,
                "velocity": 49,
                "subtype": "noteOn"
            },
            {
                "deltaTime": 60,
                "channel": 1,
                "type": "channel",
                "noteNumber": 71,
                "velocity": 0,
                "subtype": "noteOff"
            },
            {
                "deltaTime": 0,
                "channel": 1,
                "type": "channel",
                "noteNumber": 75,
                "velocity": 49,
                "subtype": "noteOn"
            },
            {
                "deltaTime": 0,
                "channel": 1,
                "type": "channel",
                "noteNumber": 77,
                "velocity": 49,
                "subtype": "noteOn"
            },
            {
                "deltaTime": 0,
                "channel": 1,
                "type": "channel",
                "noteNumber": 81,
                "velocity": 49,
                "subtype": "noteOn"
            },
            {
                "deltaTime": 60,
                "channel": 1,
                "type": "channel",
                "noteNumber": 81,
                "velocity": 0,
                "subtype": "noteOff"
            },
            {
                "deltaTime": 0,
                "channel": 1,
                "type": "channel",
                "noteNumber": 77,
                "velocity": 0,
                "subtype": "noteOff"
            },
            {
                "deltaTime": 0,
                "channel": 1,
                "type": "channel",
                "noteNumber": 75,
                "velocity": 0,
                "subtype": "noteOff"
            },
            {
                "deltaTime": 0,
                "channel": 1,
                "type": "channel",
                "noteNumber": 71,
                "velocity": 49,
                "subtype": "noteOn"
            },
            {
                "deltaTime": 60,
                "channel": 1,
                "type": "channel",
                "noteNumber": 71,
                "velocity": 0,
                "subtype": "noteOff"
            },
            {
                "deltaTime": 0,
                "channel": 1,
                "type": "channel",
                "noteNumber": 75,
                "velocity": 49,
                "subtype": "noteOn"
            },
            {
                "deltaTime": 0,
                "channel": 1,
                "type": "channel",
                "noteNumber": 77,
                "velocity": 49,
                "subtype": "noteOn"
            },
            {
                "deltaTime": 0,
                "channel": 1,
                "type": "channel",
                "noteNumber": 81,
                "velocity": 49,
                "subtype": "noteOn"
            },
            {
                "deltaTime": 60,
                "channel": 1,
                "type": "channel",
                "noteNumber": 81,
                "velocity": 0,
                "subtype": "noteOff"
            },
            {
                "deltaTime": 0,
                "channel": 1,
                "type": "channel",
                "noteNumber": 77,
                "velocity": 0,
                "subtype": "noteOff"
            },
            {
                "deltaTime": 0,
                "channel": 1,
                "type": "channel",
                "noteNumber": 75,
                "velocity": 0,
                "subtype": "noteOff"
            },
            {
                "deltaTime": 0,
                "channel": 1,
                "type": "channel",
                "noteNumber": 71,
                "velocity": 49,
                "subtype": "noteOn"
            },
            {
                "deltaTime": 60,
                "channel": 1,
                "type": "channel",
                "noteNumber": 71,
                "velocity": 0,
                "subtype": "noteOff"
            },
            {
                "deltaTime": 0,
                "channel": 1,
                "type": "channel",
                "noteNumber": 75,
                "velocity": 49,
                "subtype": "noteOn"
            },
            {
                "deltaTime": 0,
                "channel": 1,
                "type": "channel",
                "noteNumber": 77,
                "velocity": 49,
                "subtype": "noteOn"
            },
            {
                "deltaTime": 0,
                "channel": 1,
                "type": "channel",
                "noteNumber": 81,
                "velocity": 49,
                "subtype": "noteOn"
            },
            {
                "deltaTime": 60,
                "channel": 1,
                "type": "channel",
                "noteNumber": 81,
                "velocity": 0,
                "subtype": "noteOff"
            },
            {
                "deltaTime": 0,
                "channel": 1,
                "type": "channel",
                "noteNumber": 77,
                "velocity": 0,
                "subtype": "noteOff"
            },
            {
                "deltaTime": 0,
                "channel": 1,
                "type": "channel",
                "noteNumber": 75,
                "velocity": 0,
                "subtype": "noteOff"
            },
            {
                "deltaTime": 0,
                "channel": 1,
                "type": "channel",
                "noteNumber": 71,
                "velocity": 49,
                "subtype": "noteOn"
            },
            {
                "deltaTime": 60,
                "channel": 1,
                "type": "channel",
                "noteNumber": 71,
                "velocity": 0,
                "subtype": "noteOff"
            },
            {
                "deltaTime": 0,
                "channel": 1,
                "type": "channel",
                "noteNumber": 75,
                "velocity": 49,
                "subtype": "noteOn"
            },
            {
                "deltaTime": 0,
                "channel": 1,
                "type": "channel",
                "noteNumber": 77,
                "velocity": 49,
                "subtype": "noteOn"
            },
            {
                "deltaTime": 0,
                "channel": 1,
                "type": "channel",
                "noteNumber": 81,
                "velocity": 49,
                "subtype": "noteOn"
            },
            {
                "deltaTime": 60,
                "channel": 1,
                "type": "channel",
                "noteNumber": 81,
                "velocity": 0,
                "subtype": "noteOff"
            },
            {
                "deltaTime": 0,
                "channel": 1,
                "type": "channel",
                "noteNumber": 77,
                "velocity": 0,
                "subtype": "noteOff"
            },
            {
                "deltaTime": 0,
                "channel": 1,
                "type": "channel",
                "noteNumber": 75,
                "velocity": 0,
                "subtype": "noteOff"
            },
            {
                "deltaTime": 0,
                "channel": 1,
                "type": "channel",
                "noteNumber": 71,
                "velocity": 49,
                "subtype": "noteOn"
            },
            {
                "deltaTime": 60,
                "channel": 1,
                "type": "channel",
                "noteNumber": 71,
                "velocity": 0,
                "subtype": "noteOff"
            },
            {
                "deltaTime": 240,
                "channel": 1,
                "type": "channel",
                "noteNumber": 75,
                "velocity": 49,
                "subtype": "noteOn"
            },
            {
                "deltaTime": 0,
                "channel": 1,
                "type": "channel",
                "noteNumber": 77,
                "velocity": 49,
                "subtype": "noteOn"
            },
            {
                "deltaTime": 0,
                "channel": 1,
                "type": "channel",
                "noteNumber": 81,
                "velocity": 49,
                "subtype": "noteOn"
            },
            {
                "deltaTime": 60,
                "channel": 1,
                "type": "channel",
                "noteNumber": 81,
                "velocity": 0,
                "subtype": "noteOff"
            },
            {
                "deltaTime": 0,
                "channel": 1,
                "type": "channel",
                "noteNumber": 77,
                "velocity": 0,
                "subtype": "noteOff"
            },
            {
                "deltaTime": 0,
                "channel": 1,
                "type": "channel",
                "noteNumber": 75,
                "velocity": 0,
                "subtype": "noteOff"
            },
            {
                "deltaTime": 0,
                "channel": 1,
                "type": "channel",
                "noteNumber": 71,
                "velocity": 49,
                "subtype": "noteOn"
            },
            {
                "deltaTime": 60,
                "channel": 1,
                "type": "channel",
                "noteNumber": 71,
                "velocity": 0,
                "subtype": "noteOff"
            },
            {
                "deltaTime": 0,
                "channel": 1,
                "type": "channel",
                "noteNumber": 75,
                "velocity": 49,
                "subtype": "noteOn"
            },
            {
                "deltaTime": 0,
                "channel": 1,
                "type": "channel",
                "noteNumber": 77,
                "velocity": 49,
                "subtype": "noteOn"
            },
            {
                "deltaTime": 0,
                "channel": 1,
                "type": "channel",
                "noteNumber": 81,
                "velocity": 49,
                "subtype": "noteOn"
            },
            {
                "deltaTime": 60,
                "channel": 1,
                "type": "channel",
                "noteNumber": 81,
                "velocity": 0,
                "subtype": "noteOff"
            },
            {
                "deltaTime": 0,
                "channel": 1,
                "type": "channel",
                "noteNumber": 77,
                "velocity": 0,
                "subtype": "noteOff"
            },
            {
                "deltaTime": 0,
                "channel": 1,
                "type": "channel",
                "noteNumber": 75,
                "velocity": 0,
                "subtype": "noteOff"
            },
            {
                "deltaTime": 0,
                "channel": 1,
                "type": "channel",
                "noteNumber": 71,
                "velocity": 49,
                "subtype": "noteOn"
            },
            {
                "deltaTime": 60,
                "channel": 1,
                "type": "channel",
                "noteNumber": 71,
                "velocity": 0,
                "subtype": "noteOff"
            },
            {
                "deltaTime": 240,
                "channel": 1,
                "type": "channel",
                "noteNumber": 78,
                "velocity": 49,
                "subtype": "noteOn"
            },
            {
                "deltaTime": 0,
                "channel": 1,
                "type": "channel",
                "noteNumber": 80,
                "velocity": 49,
                "subtype": "noteOn"
            },
            {
                "deltaTime": 120,
                "channel": 1,
                "type": "channel",
                "noteNumber": 80,
                "velocity": 0,
                "subtype": "noteOff"
            },
            {
                "deltaTime": 0,
                "channel": 1,
                "type": "channel",
                "noteNumber": 78,
                "velocity": 0,
                "subtype": "noteOff"
            },
            {
                "deltaTime": 0,
                "channel": 1,
                "type": "channel",
                "noteNumber": 74,
                "velocity": 49,
                "subtype": "noteOn"
            },
            {
                "deltaTime": 120,
                "channel": 1,
                "type": "channel",
                "noteNumber": 74,
                "velocity": 0,
                "subtype": "noteOff"
            },
            {
                "deltaTime": 0,
                "channel": 1,
                "type": "channel",
                "noteNumber": 78,
                "velocity": 49,
                "subtype": "noteOn"
            },
            {
                "deltaTime": 0,
                "channel": 1,
                "type": "channel",
                "noteNumber": 80,
                "velocity": 49,
                "subtype": "noteOn"
            },
            {
                "deltaTime": 120,
                "channel": 1,
                "type": "channel",
                "noteNumber": 80,
                "velocity": 0,
                "subtype": "noteOff"
            },
            {
                "deltaTime": 0,
                "channel": 1,
                "type": "channel",
                "noteNumber": 78,
                "velocity": 0,
                "subtype": "noteOff"
            },
            {
                "deltaTime": 0,
                "channel": 1,
                "type": "channel",
                "noteNumber": 74,
                "velocity": 49,
                "subtype": "noteOn"
            },
            {
                "deltaTime": 120,
                "channel": 1,
                "type": "channel",
                "noteNumber": 74,
                "velocity": 0,
                "subtype": "noteOff"
            },
            {
                "deltaTime": 0,
                "channel": 1,
                "type": "channel",
                "noteNumber": 78,
                "velocity": 49,
                "subtype": "noteOn"
            },
            {
                "deltaTime": 0,
                "channel": 1,
                "type": "channel",
                "noteNumber": 80,
                "velocity": 49,
                "subtype": "noteOn"
            },
            {
                "deltaTime": 120,
                "channel": 1,
                "type": "channel",
                "noteNumber": 80,
                "velocity": 0,
                "subtype": "noteOff"
            },
            {
                "deltaTime": 0,
                "channel": 1,
                "type": "channel",
                "noteNumber": 78,
                "velocity": 0,
                "subtype": "noteOff"
            },
            {
                "deltaTime": 0,
                "channel": 1,
                "type": "channel",
                "noteNumber": 74,
                "velocity": 49,
                "subtype": "noteOn"
            },
            {
                "deltaTime": 120,
                "channel": 1,
                "type": "channel",
                "noteNumber": 74,
                "velocity": 0,
                "subtype": "noteOff"
            },
            {
                "deltaTime": 0,
                "channel": 1,
                "type": "channel",
                "noteNumber": 78,
                "velocity": 49,
                "subtype": "noteOn"
            },
            {
                "deltaTime": 0,
                "channel": 1,
                "type": "channel",
                "noteNumber": 81,
                "velocity": 49,
                "subtype": "noteOn"
            },
            {
                "deltaTime": 120,
                "channel": 1,
                "type": "channel",
                "noteNumber": 81,
                "velocity": 0,
                "subtype": "noteOff"
            },
            {
                "deltaTime": 0,
                "channel": 1,
                "type": "channel",
                "noteNumber": 78,
                "velocity": 0,
                "subtype": "noteOff"
            },
            {
                "deltaTime": 0,
                "channel": 1,
                "type": "channel",
                "noteNumber": 74,
                "velocity": 49,
                "subtype": "noteOn"
            },
            {
                "deltaTime": 0,
                "channel": 1,
                "type": "channel",
                "noteNumber": 80,
                "velocity": 49,
                "subtype": "noteOn"
            },
            {
                "deltaTime": 120,
                "channel": 1,
                "type": "channel",
                "noteNumber": 80,
                "velocity": 0,
                "subtype": "noteOff"
            },
            {
                "deltaTime": 0,
                "channel": 1,
                "type": "channel",
                "noteNumber": 74,
                "velocity": 0,
                "subtype": "noteOff"
            },
            {
                "deltaTime": 0,
                "channel": 1,
                "type": "channel",
                "noteNumber": 78,
                "velocity": 49,
                "subtype": "noteOn"
            },
            {
                "deltaTime": 0,
                "channel": 1,
                "type": "channel",
                "noteNumber": 81,
                "velocity": 49,
                "subtype": "noteOn"
            },
            {
                "deltaTime": 120,
                "channel": 1,
                "type": "channel",
                "noteNumber": 81,
                "velocity": 0,
                "subtype": "noteOff"
            },
            {
                "deltaTime": 0,
                "channel": 1,
                "type": "channel",
                "noteNumber": 78,
                "velocity": 0,
                "subtype": "noteOff"
            },
            {
                "deltaTime": 0,
                "channel": 1,
                "type": "channel",
                "noteNumber": 74,
                "velocity": 49,
                "subtype": "noteOn"
            },
            {
                "deltaTime": 0,
                "channel": 1,
                "type": "channel",
                "noteNumber": 80,
                "velocity": 49,
                "subtype": "noteOn"
            },
            {
                "deltaTime": 120,
                "channel": 1,
                "type": "channel",
                "noteNumber": 80,
                "velocity": 0,
                "subtype": "noteOff"
            },
            {
                "deltaTime": 0,
                "channel": 1,
                "type": "channel",
                "noteNumber": 74,
                "velocity": 0,
                "subtype": "noteOff"
            },
            {
                "deltaTime": 0,
                "channel": 1,
                "type": "channel",
                "noteNumber": 78,
                "velocity": 49,
                "subtype": "noteOn"
            },
            {
                "deltaTime": 0,
                "channel": 1,
                "type": "channel",
                "noteNumber": 81,
                "velocity": 49,
                "subtype": "noteOn"
            },
            {
                "deltaTime": 120,
                "channel": 1,
                "type": "channel",
                "noteNumber": 81,
                "velocity": 0,
                "subtype": "noteOff"
            },
            {
                "deltaTime": 0,
                "channel": 1,
                "type": "channel",
                "noteNumber": 78,
                "velocity": 0,
                "subtype": "noteOff"
            },
            {
                "deltaTime": 0,
                "channel": 1,
                "type": "channel",
                "noteNumber": 74,
                "velocity": 49,
                "subtype": "noteOn"
            },
            {
                "deltaTime": 0,
                "channel": 1,
                "type": "channel",
                "noteNumber": 80,
                "velocity": 49,
                "subtype": "noteOn"
            },
            {
                "deltaTime": 120,
                "channel": 1,
                "type": "channel",
                "noteNumber": 80,
                "velocity": 0,
                "subtype": "noteOff"
            },
            {
                "deltaTime": 0,
                "channel": 1,
                "type": "channel",
                "noteNumber": 74,
                "velocity": 0,
                "subtype": "noteOff"
            },
            {
                "deltaTime": 0,
                "channel": 1,
                "type": "channel",
                "noteNumber": 78,
                "velocity": 49,
                "subtype": "noteOn"
            },
            {
                "deltaTime": 0,
                "channel": 1,
                "type": "channel",
                "noteNumber": 82,
                "velocity": 49,
                "subtype": "noteOn"
            },
            {
                "deltaTime": 120,
                "channel": 1,
                "type": "channel",
                "noteNumber": 82,
                "velocity": 0,
                "subtype": "noteOff"
            },
            {
                "deltaTime": 0,
                "channel": 1,
                "type": "channel",
                "noteNumber": 78,
                "velocity": 0,
                "subtype": "noteOff"
            },
            {
                "deltaTime": 0,
                "channel": 1,
                "type": "channel",
                "noteNumber": 74,
                "velocity": 49,
                "subtype": "noteOn"
            },
            {
                "deltaTime": 0,
                "channel": 1,
                "type": "channel",
                "noteNumber": 80,
                "velocity": 49,
                "subtype": "noteOn"
            },
            {
                "deltaTime": 120,
                "channel": 1,
                "type": "channel",
                "noteNumber": 80,
                "velocity": 0,
                "subtype": "noteOff"
            },
            {
                "deltaTime": 0,
                "channel": 1,
                "type": "channel",
                "noteNumber": 74,
                "velocity": 0,
                "subtype": "noteOff"
            },
            {
                "deltaTime": 0,
                "channel": 1,
                "type": "channel",
                "noteNumber": 78,
                "velocity": 49,
                "subtype": "noteOn"
            },
            {
                "deltaTime": 0,
                "channel": 1,
                "type": "channel",
                "noteNumber": 82,
                "velocity": 49,
                "subtype": "noteOn"
            },
            {
                "deltaTime": 120,
                "channel": 1,
                "type": "channel",
                "noteNumber": 82,
                "velocity": 0,
                "subtype": "noteOff"
            },
            {
                "deltaTime": 0,
                "channel": 1,
                "type": "channel",
                "noteNumber": 78,
                "velocity": 0,
                "subtype": "noteOff"
            },
            {
                "deltaTime": 0,
                "channel": 1,
                "type": "channel",
                "noteNumber": 74,
                "velocity": 49,
                "subtype": "noteOn"
            },
            {
                "deltaTime": 0,
                "channel": 1,
                "type": "channel",
                "noteNumber": 80,
                "velocity": 49,
                "subtype": "noteOn"
            },
            {
                "deltaTime": 120,
                "channel": 1,
                "type": "channel",
                "noteNumber": 80,
                "velocity": 0,
                "subtype": "noteOff"
            },
            {
                "deltaTime": 0,
                "channel": 1,
                "type": "channel",
                "noteNumber": 74,
                "velocity": 0,
                "subtype": "noteOff"
            },
            {
                "deltaTime": 0,
                "channel": 1,
                "type": "channel",
                "noteNumber": 78,
                "velocity": 49,
                "subtype": "noteOn"
            },
            {
                "deltaTime": 0,
                "channel": 1,
                "type": "channel",
                "noteNumber": 82,
                "velocity": 49,
                "subtype": "noteOn"
            },
            {
                "deltaTime": 120,
                "channel": 1,
                "type": "channel",
                "noteNumber": 82,
                "velocity": 0,
                "subtype": "noteOff"
            },
            {
                "deltaTime": 0,
                "channel": 1,
                "type": "channel",
                "noteNumber": 78,
                "velocity": 0,
                "subtype": "noteOff"
            },
            {
                "deltaTime": 0,
                "channel": 1,
                "type": "channel",
                "noteNumber": 74,
                "velocity": 49,
                "subtype": "noteOn"
            },
            {
                "deltaTime": 0,
                "channel": 1,
                "type": "channel",
                "noteNumber": 80,
                "velocity": 49,
                "subtype": "noteOn"
            },
            {
                "deltaTime": 120,
                "channel": 1,
                "type": "channel",
                "noteNumber": 80,
                "velocity": 0,
                "subtype": "noteOff"
            },
            {
                "deltaTime": 0,
                "channel": 1,
                "type": "channel",
                "noteNumber": 74,
                "velocity": 0,
                "subtype": "noteOff"
            },
            {
                "deltaTime": 0,
                "channel": 1,
                "type": "channel",
                "noteNumber": 78,
                "velocity": 49,
                "subtype": "noteOn"
            },
            {
                "deltaTime": 0,
                "channel": 1,
                "type": "channel",
                "noteNumber": 83,
                "velocity": 49,
                "subtype": "noteOn"
            },
            {
                "deltaTime": 120,
                "channel": 1,
                "type": "channel",
                "noteNumber": 83,
                "velocity": 0,
                "subtype": "noteOff"
            },
            {
                "deltaTime": 0,
                "channel": 1,
                "type": "channel",
                "noteNumber": 78,
                "velocity": 0,
                "subtype": "noteOff"
            },
            {
                "deltaTime": 0,
                "channel": 1,
                "type": "channel",
                "noteNumber": 74,
                "velocity": 49,
                "subtype": "noteOn"
            },
            {
                "deltaTime": 0,
                "channel": 1,
                "type": "channel",
                "noteNumber": 80,
                "velocity": 49,
                "subtype": "noteOn"
            },
            {
                "deltaTime": 120,
                "channel": 1,
                "type": "channel",
                "noteNumber": 80,
                "velocity": 0,
                "subtype": "noteOff"
            },
            {
                "deltaTime": 0,
                "channel": 1,
                "type": "channel",
                "noteNumber": 74,
                "velocity": 0,
                "subtype": "noteOff"
            },
            {
                "deltaTime": 0,
                "channel": 1,
                "type": "channel",
                "noteNumber": 78,
                "velocity": 49,
                "subtype": "noteOn"
            },
            {
                "deltaTime": 0,
                "channel": 1,
                "type": "channel",
                "noteNumber": 83,
                "velocity": 49,
                "subtype": "noteOn"
            },
            {
                "deltaTime": 120,
                "channel": 1,
                "type": "channel",
                "noteNumber": 83,
                "velocity": 0,
                "subtype": "noteOff"
            },
            {
                "deltaTime": 0,
                "channel": 1,
                "type": "channel",
                "noteNumber": 78,
                "velocity": 0,
                "subtype": "noteOff"
            },
            {
                "deltaTime": 0,
                "channel": 1,
                "type": "channel",
                "noteNumber": 74,
                "velocity": 49,
                "subtype": "noteOn"
            },
            {
                "deltaTime": 0,
                "channel": 1,
                "type": "channel",
                "noteNumber": 80,
                "velocity": 49,
                "subtype": "noteOn"
            },
            {
                "deltaTime": 120,
                "channel": 1,
                "type": "channel",
                "noteNumber": 80,
                "velocity": 0,
                "subtype": "noteOff"
            },
            {
                "deltaTime": 0,
                "channel": 1,
                "type": "channel",
                "noteNumber": 74,
                "velocity": 0,
                "subtype": "noteOff"
            },
            {
                "deltaTime": 0,
                "channel": 1,
                "type": "channel",
                "noteNumber": 78,
                "velocity": 49,
                "subtype": "noteOn"
            },
            {
                "deltaTime": 0,
                "channel": 1,
                "type": "channel",
                "noteNumber": 83,
                "velocity": 49,
                "subtype": "noteOn"
            },
            {
                "deltaTime": 120,
                "channel": 1,
                "type": "channel",
                "noteNumber": 83,
                "velocity": 0,
                "subtype": "noteOff"
            },
            {
                "deltaTime": 0,
                "channel": 1,
                "type": "channel",
                "noteNumber": 78,
                "velocity": 0,
                "subtype": "noteOff"
            },
            {
                "deltaTime": 0,
                "channel": 1,
                "type": "channel",
                "noteNumber": 74,
                "velocity": 49,
                "subtype": "noteOn"
            },
            {
                "deltaTime": 0,
                "channel": 1,
                "type": "channel",
                "noteNumber": 80,
                "velocity": 49,
                "subtype": "noteOn"
            },
            {
                "deltaTime": 120,
                "channel": 1,
                "type": "channel",
                "noteNumber": 80,
                "velocity": 0,
                "subtype": "noteOff"
            },
            {
                "deltaTime": 0,
                "channel": 1,
                "type": "channel",
                "noteNumber": 74,
                "velocity": 0,
                "subtype": "noteOff"
            },
            {
                "deltaTime": 0,
                "channel": 1,
                "type": "channel",
                "noteNumber": 81,
                "velocity": 49,
                "subtype": "noteOn"
            },
            {
                "deltaTime": 0,
                "channel": 1,
                "type": "channel",
                "noteNumber": 83,
                "velocity": 49,
                "subtype": "noteOn"
            },
            {
                "deltaTime": 120,
                "channel": 1,
                "type": "channel",
                "noteNumber": 83,
                "velocity": 0,
                "subtype": "noteOff"
            },
            {
                "deltaTime": 0,
                "channel": 1,
                "type": "channel",
                "noteNumber": 81,
                "velocity": 0,
                "subtype": "noteOff"
            },
            {
                "deltaTime": 0,
                "channel": 1,
                "type": "channel",
                "noteNumber": 77,
                "velocity": 49,
                "subtype": "noteOn"
            },
            {
                "deltaTime": 120,
                "channel": 1,
                "type": "channel",
                "noteNumber": 77,
                "velocity": 0,
                "subtype": "noteOff"
            },
            {
                "deltaTime": 0,
                "channel": 1,
                "type": "channel",
                "noteNumber": 81,
                "velocity": 49,
                "subtype": "noteOn"
            },
            {
                "deltaTime": 0,
                "channel": 1,
                "type": "channel",
                "noteNumber": 83,
                "velocity": 49,
                "subtype": "noteOn"
            },
            {
                "deltaTime": 120,
                "channel": 1,
                "type": "channel",
                "noteNumber": 83,
                "velocity": 0,
                "subtype": "noteOff"
            },
            {
                "deltaTime": 0,
                "channel": 1,
                "type": "channel",
                "noteNumber": 81,
                "velocity": 0,
                "subtype": "noteOff"
            },
            {
                "deltaTime": 0,
                "channel": 1,
                "type": "channel",
                "noteNumber": 77,
                "velocity": 49,
                "subtype": "noteOn"
            },
            {
                "deltaTime": 120,
                "channel": 1,
                "type": "channel",
                "noteNumber": 77,
                "velocity": 0,
                "subtype": "noteOff"
            },
            {
                "deltaTime": 0,
                "channel": 1,
                "type": "channel",
                "noteNumber": 81,
                "velocity": 49,
                "subtype": "noteOn"
            },
            {
                "deltaTime": 0,
                "channel": 1,
                "type": "channel",
                "noteNumber": 83,
                "velocity": 49,
                "subtype": "noteOn"
            },
            {
                "deltaTime": 120,
                "channel": 1,
                "type": "channel",
                "noteNumber": 83,
                "velocity": 0,
                "subtype": "noteOff"
            },
            {
                "deltaTime": 0,
                "channel": 1,
                "type": "channel",
                "noteNumber": 81,
                "velocity": 0,
                "subtype": "noteOff"
            },
            {
                "deltaTime": 0,
                "channel": 1,
                "type": "channel",
                "noteNumber": 77,
                "velocity": 49,
                "subtype": "noteOn"
            },
            {
                "deltaTime": 120,
                "channel": 1,
                "type": "channel",
                "noteNumber": 77,
                "velocity": 0,
                "subtype": "noteOff"
            },
            {
                "deltaTime": 0,
                "channel": 1,
                "type": "channel",
                "noteNumber": 81,
                "velocity": 49,
                "subtype": "noteOn"
            },
            {
                "deltaTime": 0,
                "channel": 1,
                "type": "channel",
                "noteNumber": 84,
                "velocity": 49,
                "subtype": "noteOn"
            },
            {
                "deltaTime": 120,
                "channel": 1,
                "type": "channel",
                "noteNumber": 84,
                "velocity": 0,
                "subtype": "noteOff"
            },
            {
                "deltaTime": 0,
                "channel": 1,
                "type": "channel",
                "noteNumber": 81,
                "velocity": 0,
                "subtype": "noteOff"
            },
            {
                "deltaTime": 0,
                "channel": 1,
                "type": "channel",
                "noteNumber": 77,
                "velocity": 49,
                "subtype": "noteOn"
            },
            {
                "deltaTime": 0,
                "channel": 1,
                "type": "channel",
                "noteNumber": 83,
                "velocity": 49,
                "subtype": "noteOn"
            },
            {
                "deltaTime": 120,
                "channel": 1,
                "type": "channel",
                "noteNumber": 83,
                "velocity": 0,
                "subtype": "noteOff"
            },
            {
                "deltaTime": 0,
                "channel": 1,
                "type": "channel",
                "noteNumber": 77,
                "velocity": 0,
                "subtype": "noteOff"
            },
            {
                "deltaTime": 0,
                "channel": 1,
                "type": "channel",
                "noteNumber": 81,
                "velocity": 49,
                "subtype": "noteOn"
            },
            {
                "deltaTime": 0,
                "channel": 1,
                "type": "channel",
                "noteNumber": 84,
                "velocity": 49,
                "subtype": "noteOn"
            },
            {
                "deltaTime": 120,
                "channel": 1,
                "type": "channel",
                "noteNumber": 84,
                "velocity": 0,
                "subtype": "noteOff"
            },
            {
                "deltaTime": 0,
                "channel": 1,
                "type": "channel",
                "noteNumber": 81,
                "velocity": 0,
                "subtype": "noteOff"
            },
            {
                "deltaTime": 0,
                "channel": 1,
                "type": "channel",
                "noteNumber": 77,
                "velocity": 49,
                "subtype": "noteOn"
            },
            {
                "deltaTime": 0,
                "channel": 1,
                "type": "channel",
                "noteNumber": 83,
                "velocity": 49,
                "subtype": "noteOn"
            },
            {
                "deltaTime": 120,
                "channel": 1,
                "type": "channel",
                "noteNumber": 83,
                "velocity": 0,
                "subtype": "noteOff"
            },
            {
                "deltaTime": 0,
                "channel": 1,
                "type": "channel",
                "noteNumber": 77,
                "velocity": 0,
                "subtype": "noteOff"
            },
            {
                "deltaTime": 0,
                "channel": 1,
                "type": "channel",
                "noteNumber": 81,
                "velocity": 49,
                "subtype": "noteOn"
            },
            {
                "deltaTime": 0,
                "channel": 1,
                "type": "channel",
                "noteNumber": 84,
                "velocity": 49,
                "subtype": "noteOn"
            },
            {
                "deltaTime": 120,
                "channel": 1,
                "type": "channel",
                "noteNumber": 84,
                "velocity": 0,
                "subtype": "noteOff"
            },
            {
                "deltaTime": 0,
                "channel": 1,
                "type": "channel",
                "noteNumber": 81,
                "velocity": 0,
                "subtype": "noteOff"
            },
            {
                "deltaTime": 0,
                "channel": 1,
                "type": "channel",
                "noteNumber": 77,
                "velocity": 49,
                "subtype": "noteOn"
            },
            {
                "deltaTime": 0,
                "channel": 1,
                "type": "channel",
                "noteNumber": 83,
                "velocity": 49,
                "subtype": "noteOn"
            },
            {
                "deltaTime": 120,
                "channel": 1,
                "type": "channel",
                "noteNumber": 83,
                "velocity": 0,
                "subtype": "noteOff"
            },
            {
                "deltaTime": 0,
                "channel": 1,
                "type": "channel",
                "noteNumber": 77,
                "velocity": 0,
                "subtype": "noteOff"
            },
            {
                "deltaTime": 0,
                "channel": 1,
                "type": "channel",
                "noteNumber": 81,
                "velocity": 49,
                "subtype": "noteOn"
            },
            {
                "deltaTime": 0,
                "channel": 1,
                "type": "channel",
                "noteNumber": 85,
                "velocity": 49,
                "subtype": "noteOn"
            },
            {
                "deltaTime": 120,
                "channel": 1,
                "type": "channel",
                "noteNumber": 85,
                "velocity": 0,
                "subtype": "noteOff"
            },
            {
                "deltaTime": 0,
                "channel": 1,
                "type": "channel",
                "noteNumber": 81,
                "velocity": 0,
                "subtype": "noteOff"
            },
            {
                "deltaTime": 0,
                "channel": 1,
                "type": "channel",
                "noteNumber": 77,
                "velocity": 49,
                "subtype": "noteOn"
            },
            {
                "deltaTime": 0,
                "channel": 1,
                "type": "channel",
                "noteNumber": 83,
                "velocity": 49,
                "subtype": "noteOn"
            },
            {
                "deltaTime": 120,
                "channel": 1,
                "type": "channel",
                "noteNumber": 83,
                "velocity": 0,
                "subtype": "noteOff"
            },
            {
                "deltaTime": 0,
                "channel": 1,
                "type": "channel",
                "noteNumber": 77,
                "velocity": 0,
                "subtype": "noteOff"
            },
            {
                "deltaTime": 0,
                "channel": 1,
                "type": "channel",
                "noteNumber": 81,
                "velocity": 49,
                "subtype": "noteOn"
            },
            {
                "deltaTime": 0,
                "channel": 1,
                "type": "channel",
                "noteNumber": 85,
                "velocity": 49,
                "subtype": "noteOn"
            },
            {
                "deltaTime": 120,
                "channel": 1,
                "type": "channel",
                "noteNumber": 85,
                "velocity": 0,
                "subtype": "noteOff"
            },
            {
                "deltaTime": 0,
                "channel": 1,
                "type": "channel",
                "noteNumber": 81,
                "velocity": 0,
                "subtype": "noteOff"
            },
            {
                "deltaTime": 0,
                "channel": 1,
                "type": "channel",
                "noteNumber": 77,
                "velocity": 49,
                "subtype": "noteOn"
            },
            {
                "deltaTime": 0,
                "channel": 1,
                "type": "channel",
                "noteNumber": 83,
                "velocity": 49,
                "subtype": "noteOn"
            },
            {
                "deltaTime": 120,
                "channel": 1,
                "type": "channel",
                "noteNumber": 83,
                "velocity": 0,
                "subtype": "noteOff"
            },
            {
                "deltaTime": 0,
                "channel": 1,
                "type": "channel",
                "noteNumber": 77,
                "velocity": 0,
                "subtype": "noteOff"
            },
            {
                "deltaTime": 0,
                "channel": 1,
                "type": "channel",
                "noteNumber": 81,
                "velocity": 49,
                "subtype": "noteOn"
            },
            {
                "deltaTime": 0,
                "channel": 1,
                "type": "channel",
                "noteNumber": 85,
                "velocity": 49,
                "subtype": "noteOn"
            },
            {
                "deltaTime": 120,
                "channel": 1,
                "type": "channel",
                "noteNumber": 85,
                "velocity": 0,
                "subtype": "noteOff"
            },
            {
                "deltaTime": 0,
                "channel": 1,
                "type": "channel",
                "noteNumber": 81,
                "velocity": 0,
                "subtype": "noteOff"
            },
            {
                "deltaTime": 0,
                "channel": 1,
                "type": "channel",
                "noteNumber": 77,
                "velocity": 49,
                "subtype": "noteOn"
            },
            {
                "deltaTime": 0,
                "channel": 1,
                "type": "channel",
                "noteNumber": 83,
                "velocity": 49,
                "subtype": "noteOn"
            },
            {
                "deltaTime": 120,
                "channel": 1,
                "type": "channel",
                "noteNumber": 83,
                "velocity": 0,
                "subtype": "noteOff"
            },
            {
                "deltaTime": 0,
                "channel": 1,
                "type": "channel",
                "noteNumber": 77,
                "velocity": 0,
                "subtype": "noteOff"
            },
            {
                "deltaTime": 0,
                "channel": 1,
                "type": "channel",
                "noteNumber": 81,
                "velocity": 49,
                "subtype": "noteOn"
            },
            {
                "deltaTime": 0,
                "channel": 1,
                "type": "channel",
                "noteNumber": 86,
                "velocity": 49,
                "subtype": "noteOn"
            },
            {
                "deltaTime": 120,
                "channel": 1,
                "type": "channel",
                "noteNumber": 86,
                "velocity": 0,
                "subtype": "noteOff"
            },
            {
                "deltaTime": 0,
                "channel": 1,
                "type": "channel",
                "noteNumber": 81,
                "velocity": 0,
                "subtype": "noteOff"
            },
            {
                "deltaTime": 0,
                "channel": 1,
                "type": "channel",
                "noteNumber": 77,
                "velocity": 49,
                "subtype": "noteOn"
            },
            {
                "deltaTime": 0,
                "channel": 1,
                "type": "channel",
                "noteNumber": 83,
                "velocity": 49,
                "subtype": "noteOn"
            },
            {
                "deltaTime": 120,
                "channel": 1,
                "type": "channel",
                "noteNumber": 83,
                "velocity": 0,
                "subtype": "noteOff"
            },
            {
                "deltaTime": 0,
                "channel": 1,
                "type": "channel",
                "noteNumber": 77,
                "velocity": 0,
                "subtype": "noteOff"
            },
            {
                "deltaTime": 0,
                "channel": 1,
                "type": "channel",
                "noteNumber": 81,
                "velocity": 49,
                "subtype": "noteOn"
            },
            {
                "deltaTime": 0,
                "channel": 1,
                "type": "channel",
                "noteNumber": 86,
                "velocity": 49,
                "subtype": "noteOn"
            },
            {
                "deltaTime": 120,
                "channel": 1,
                "type": "channel",
                "noteNumber": 86,
                "velocity": 0,
                "subtype": "noteOff"
            },
            {
                "deltaTime": 0,
                "channel": 1,
                "type": "channel",
                "noteNumber": 81,
                "velocity": 0,
                "subtype": "noteOff"
            },
            {
                "deltaTime": 0,
                "channel": 1,
                "type": "channel",
                "noteNumber": 77,
                "velocity": 49,
                "subtype": "noteOn"
            },
            {
                "deltaTime": 0,
                "channel": 1,
                "type": "channel",
                "noteNumber": 83,
                "velocity": 49,
                "subtype": "noteOn"
            },
            {
                "deltaTime": 120,
                "channel": 1,
                "type": "channel",
                "noteNumber": 83,
                "velocity": 0,
                "subtype": "noteOff"
            },
            {
                "deltaTime": 0,
                "channel": 1,
                "type": "channel",
                "noteNumber": 77,
                "velocity": 0,
                "subtype": "noteOff"
            },
            {
                "deltaTime": 0,
                "channel": 1,
                "type": "channel",
                "noteNumber": 81,
                "velocity": 49,
                "subtype": "noteOn"
            },
            {
                "deltaTime": 0,
                "channel": 1,
                "type": "channel",
                "noteNumber": 86,
                "velocity": 49,
                "subtype": "noteOn"
            },
            {
                "deltaTime": 120,
                "channel": 1,
                "type": "channel",
                "noteNumber": 86,
                "velocity": 0,
                "subtype": "noteOff"
            },
            {
                "deltaTime": 0,
                "channel": 1,
                "type": "channel",
                "noteNumber": 81,
                "velocity": 0,
                "subtype": "noteOff"
            },
            {
                "deltaTime": 0,
                "channel": 1,
                "type": "channel",
                "noteNumber": 77,
                "velocity": 49,
                "subtype": "noteOn"
            },
            {
                "deltaTime": 0,
                "channel": 1,
                "type": "channel",
                "noteNumber": 83,
                "velocity": 49,
                "subtype": "noteOn"
            },
            {
                "deltaTime": 120,
                "channel": 1,
                "type": "channel",
                "noteNumber": 83,
                "velocity": 0,
                "subtype": "noteOff"
            },
            {
                "deltaTime": 0,
                "channel": 1,
                "type": "channel",
                "noteNumber": 77,
                "velocity": 0,
                "subtype": "noteOff"
            },
            {
                "deltaTime": 2880,
                "channel": 1,
                "type": "channel",
                "subtype": "controller",
                "controllerType": 64,
                "value": 127
            },
            {
                "deltaTime": 0,
                "channel": 1,
                "type": "channel",
                "noteNumber": 61,
                "velocity": 88,
                "subtype": "noteOn"
            },
            {
                "deltaTime": 0,
                "channel": 1,
                "type": "channel",
                "noteNumber": 65,
                "velocity": 88,
                "subtype": "noteOn"
            },
            {
                "deltaTime": 0,
                "channel": 1,
                "type": "channel",
                "noteNumber": 71,
                "velocity": 88,
                "subtype": "noteOn"
            },
            {
                "deltaTime": 0,
                "channel": 1,
                "type": "channel",
                "noteNumber": 75,
                "velocity": 88,
                "subtype": "noteOn"
            },
            {
                "deltaTime": 47,
                "channel": 1,
                "type": "channel",
                "noteNumber": 75,
                "velocity": 0,
                "subtype": "noteOff"
            },
            {
                "deltaTime": 0,
                "channel": 1,
                "type": "channel",
                "noteNumber": 61,
                "velocity": 0,
                "subtype": "noteOff"
            },
            {
                "deltaTime": 0,
                "channel": 1,
                "type": "channel",
                "noteNumber": 65,
                "velocity": 0,
                "subtype": "noteOff"
            },
            {
                "deltaTime": 0,
                "channel": 1,
                "type": "channel",
                "noteNumber": 71,
                "velocity": 0,
                "subtype": "noteOff"
            },
            {
                "deltaTime": 0,
                "channel": 1,
                "type": "channel",
                "noteNumber": 77,
                "velocity": 88,
                "subtype": "noteOn"
            },
            {
                "deltaTime": 49,
                "channel": 1,
                "type": "channel",
                "noteNumber": 77,
                "velocity": 0,
                "subtype": "noteOff"
            },
            {
                "deltaTime": 0,
                "channel": 1,
                "type": "channel",
                "noteNumber": 82,
                "velocity": 88,
                "subtype": "noteOn"
            },
            {
                "deltaTime": 47,
                "channel": 1,
                "type": "channel",
                "noteNumber": 82,
                "velocity": 0,
                "subtype": "noteOff"
            },
            {
                "deltaTime": 0,
                "channel": 1,
                "type": "channel",
                "noteNumber": 87,
                "velocity": 88,
                "subtype": "noteOn"
            },
            {
                "deltaTime": 49,
                "channel": 1,
                "type": "channel",
                "noteNumber": 87,
                "velocity": 0,
                "subtype": "noteOff"
            },
            {
                "deltaTime": 0,
                "channel": 1,
                "type": "channel",
                "noteNumber": 89,
                "velocity": 88,
                "subtype": "noteOn"
            },
            {
                "deltaTime": 48,
                "channel": 1,
                "type": "channel",
                "noteNumber": 89,
                "velocity": 0,
                "subtype": "noteOff"
            },
            {
                "deltaTime": 0,
                "channel": 1,
                "type": "channel",
                "subtype": "controller",
                "controllerType": 64,
                "value": 0
            },
            {
                "deltaTime": 0,
                "channel": 1,
                "type": "channel",
                "noteNumber": 94,
                "velocity": 88,
                "subtype": "noteOn"
            },
            {
                "deltaTime": 240,
                "channel": 1,
                "type": "channel",
                "noteNumber": 94,
                "velocity": 0,
                "subtype": "noteOff"
            },
            {
                "deltaTime": 0,
                "channel": 1,
                "type": "channel",
                "subtype": "controller",
                "controllerType": 64,
                "value": 127
            },
            {
                "deltaTime": 0,
                "channel": 1,
                "type": "channel",
                "noteNumber": 94,
                "velocity": 88,
                "subtype": "noteOn"
            },
            {
                "deltaTime": 60,
                "channel": 1,
                "type": "channel",
                "noteNumber": 94,
                "velocity": 0,
                "subtype": "noteOff"
            },
            {
                "deltaTime": 0,
                "channel": 1,
                "type": "channel",
                "noteNumber": 89,
                "velocity": 88,
                "subtype": "noteOn"
            },
            {
                "deltaTime": 60,
                "channel": 1,
                "type": "channel",
                "noteNumber": 89,
                "velocity": 0,
                "subtype": "noteOff"
            },
            {
                "deltaTime": 0,
                "channel": 1,
                "type": "channel",
                "noteNumber": 87,
                "velocity": 88,
                "subtype": "noteOn"
            },
            {
                "deltaTime": 60,
                "channel": 1,
                "type": "channel",
                "noteNumber": 87,
                "velocity": 0,
                "subtype": "noteOff"
            },
            {
                "deltaTime": 0,
                "channel": 1,
                "type": "channel",
                "subtype": "controller",
                "controllerType": 64,
                "value": 0
            },
            {
                "deltaTime": 0,
                "channel": 1,
                "type": "channel",
                "noteNumber": 83,
                "velocity": 88,
                "subtype": "noteOn"
            },
            {
                "deltaTime": 60,
                "channel": 1,
                "type": "channel",
                "noteNumber": 83,
                "velocity": 0,
                "subtype": "noteOff"
            },
            {
                "deltaTime": 0,
                "channel": 1,
                "type": "channel",
                "subtype": "controller",
                "controllerType": 64,
                "value": 127
            },
            {
                "deltaTime": 0,
                "channel": 1,
                "type": "channel",
                "noteNumber": 82,
                "velocity": 88,
                "subtype": "noteOn"
            },
            {
                "deltaTime": 0,
                "channel": 1,
                "type": "channel",
                "noteNumber": 94,
                "velocity": 88,
                "subtype": "noteOn"
            },
            {
                "deltaTime": 80,
                "channel": 1,
                "type": "channel",
                "noteNumber": 94,
                "velocity": 0,
                "subtype": "noteOff"
            },
            {
                "deltaTime": 0,
                "channel": 1,
                "type": "channel",
                "noteNumber": 82,
                "velocity": 0,
                "subtype": "noteOff"
            },
            {
                "deltaTime": 0,
                "channel": 1,
                "type": "channel",
                "noteNumber": 89,
                "velocity": 88,
                "subtype": "noteOn"
            },
            {
                "deltaTime": 79,
                "channel": 1,
                "type": "channel",
                "noteNumber": 89,
                "velocity": 0,
                "subtype": "noteOff"
            },
            {
                "deltaTime": 0,
                "channel": 1,
                "type": "channel",
                "noteNumber": 87,
                "velocity": 88,
                "subtype": "noteOn"
            },
            {
                "deltaTime": 81,
                "channel": 1,
                "type": "channel",
                "noteNumber": 87,
                "velocity": 0,
                "subtype": "noteOff"
            },
            {
                "deltaTime": 0,
                "channel": 1,
                "type": "channel",
                "noteNumber": 83,
                "velocity": 88,
                "subtype": "noteOn"
            },
            {
                "deltaTime": 240,
                "channel": 1,
                "type": "channel",
                "noteNumber": 83,
                "velocity": 0,
                "subtype": "noteOff"
            },
            {
                "deltaTime": 0,
                "channel": 1,
                "type": "channel",
                "subtype": "controller",
                "controllerType": 64,
                "value": 0
            },
            {
                "deltaTime": 0,
                "channel": 1,
                "type": "channel",
                "noteNumber": 82,
                "velocity": 88,
                "subtype": "noteOn"
            },
            {
                "deltaTime": 240,
                "channel": 1,
                "type": "channel",
                "noteNumber": 82,
                "velocity": 0,
                "subtype": "noteOff"
            },
            {
                "deltaTime": 0,
                "channel": 1,
                "type": "channel",
                "noteNumber": 71,
                "velocity": 75,
                "subtype": "noteOn"
            },
            {
                "deltaTime": 60,
                "channel": 1,
                "type": "channel",
                "noteNumber": 71,
                "velocity": 0,
                "subtype": "noteOff"
            },
            {
                "deltaTime": 0,
                "channel": 1,
                "type": "channel",
                "noteNumber": 73,
                "velocity": 75,
                "subtype": "noteOn"
            },
            {
                "deltaTime": 60,
                "channel": 1,
                "type": "channel",
                "noteNumber": 73,
                "velocity": 0,
                "subtype": "noteOff"
            },
            {
                "deltaTime": 0,
                "channel": 1,
                "type": "channel",
                "noteNumber": 71,
                "velocity": 75,
                "subtype": "noteOn"
            },
            {
                "deltaTime": 60,
                "channel": 1,
                "type": "channel",
                "noteNumber": 71,
                "velocity": 0,
                "subtype": "noteOff"
            },
            {
                "deltaTime": 0,
                "channel": 1,
                "type": "channel",
                "noteNumber": 73,
                "velocity": 75,
                "subtype": "noteOn"
            },
            {
                "deltaTime": 60,
                "channel": 1,
                "type": "channel",
                "noteNumber": 73,
                "velocity": 0,
                "subtype": "noteOff"
            },
            {
                "deltaTime": 0,
                "channel": 1,
                "type": "channel",
                "noteNumber": 71,
                "velocity": 75,
                "subtype": "noteOn"
            },
            {
                "deltaTime": 60,
                "channel": 1,
                "type": "channel",
                "noteNumber": 71,
                "velocity": 0,
                "subtype": "noteOff"
            },
            {
                "deltaTime": 0,
                "channel": 1,
                "type": "channel",
                "noteNumber": 73,
                "velocity": 75,
                "subtype": "noteOn"
            },
            {
                "deltaTime": 60,
                "channel": 1,
                "type": "channel",
                "noteNumber": 73,
                "velocity": 0,
                "subtype": "noteOff"
            },
            {
                "deltaTime": 0,
                "channel": 1,
                "type": "channel",
                "noteNumber": 71,
                "velocity": 75,
                "subtype": "noteOn"
            },
            {
                "deltaTime": 60,
                "channel": 1,
                "type": "channel",
                "noteNumber": 71,
                "velocity": 0,
                "subtype": "noteOff"
            },
            {
                "deltaTime": 0,
                "channel": 1,
                "type": "channel",
                "noteNumber": 73,
                "velocity": 75,
                "subtype": "noteOn"
            },
            {
                "deltaTime": 60,
                "channel": 1,
                "type": "channel",
                "noteNumber": 73,
                "velocity": 0,
                "subtype": "noteOff"
            },
            {
                "deltaTime": 0,
                "channel": 1,
                "type": "channel",
                "noteNumber": 71,
                "velocity": 75,
                "subtype": "noteOn"
            },
            {
                "deltaTime": 60,
                "channel": 1,
                "type": "channel",
                "noteNumber": 71,
                "velocity": 0,
                "subtype": "noteOff"
            },
            {
                "deltaTime": 0,
                "channel": 1,
                "type": "channel",
                "noteNumber": 73,
                "velocity": 75,
                "subtype": "noteOn"
            },
            {
                "deltaTime": 60,
                "channel": 1,
                "type": "channel",
                "noteNumber": 73,
                "velocity": 0,
                "subtype": "noteOff"
            },
            {
                "deltaTime": 0,
                "channel": 1,
                "type": "channel",
                "noteNumber": 71,
                "velocity": 75,
                "subtype": "noteOn"
            },
            {
                "deltaTime": 60,
                "channel": 1,
                "type": "channel",
                "noteNumber": 71,
                "velocity": 0,
                "subtype": "noteOff"
            },
            {
                "deltaTime": 0,
                "channel": 1,
                "type": "channel",
                "noteNumber": 73,
                "velocity": 75,
                "subtype": "noteOn"
            },
            {
                "deltaTime": 60,
                "channel": 1,
                "type": "channel",
                "noteNumber": 73,
                "velocity": 0,
                "subtype": "noteOff"
            },
            {
                "deltaTime": 0,
                "channel": 1,
                "type": "channel",
                "noteNumber": 71,
                "velocity": 88,
                "subtype": "noteOn"
            },
            {
                "deltaTime": 240,
                "channel": 1,
                "type": "channel",
                "noteNumber": 71,
                "velocity": 0,
                "subtype": "noteOff"
            },
            {
                "deltaTime": 0,
                "channel": 1,
                "type": "channel",
                "subtype": "controller",
                "controllerType": 64,
                "value": 127
            },
            {
                "deltaTime": 0,
                "channel": 1,
                "type": "channel",
                "noteNumber": 71,
                "velocity": 88,
                "subtype": "noteOn"
            },
            {
                "deltaTime": 80,
                "channel": 1,
                "type": "channel",
                "noteNumber": 71,
                "velocity": 0,
                "subtype": "noteOff"
            },
            {
                "deltaTime": 0,
                "channel": 1,
                "type": "channel",
                "noteNumber": 72,
                "velocity": 88,
                "subtype": "noteOn"
            },
            {
                "deltaTime": 79,
                "channel": 1,
                "type": "channel",
                "noteNumber": 72,
                "velocity": 0,
                "subtype": "noteOff"
            },
            {
                "deltaTime": 0,
                "channel": 1,
                "type": "channel",
                "noteNumber": 73,
                "velocity": 88,
                "subtype": "noteOn"
            },
            {
                "deltaTime": 81,
                "channel": 1,
                "type": "channel",
                "noteNumber": 73,
                "velocity": 0,
                "subtype": "noteOff"
            },
            {
                "deltaTime": 0,
                "channel": 1,
                "type": "channel",
                "noteNumber": 74,
                "velocity": 88,
                "subtype": "noteOn"
            },
            {
                "deltaTime": 80,
                "channel": 1,
                "type": "channel",
                "noteNumber": 74,
                "velocity": 0,
                "subtype": "noteOff"
            },
            {
                "deltaTime": 0,
                "channel": 1,
                "type": "channel",
                "noteNumber": 75,
                "velocity": 88,
                "subtype": "noteOn"
            },
            {
                "deltaTime": 79,
                "channel": 1,
                "type": "channel",
                "noteNumber": 75,
                "velocity": 0,
                "subtype": "noteOff"
            },
            {
                "deltaTime": 0,
                "channel": 1,
                "type": "channel",
                "subtype": "controller",
                "controllerType": 64,
                "value": 0
            },
            {
                "deltaTime": 0,
                "channel": 1,
                "type": "channel",
                "noteNumber": 76,
                "velocity": 88,
                "subtype": "noteOn"
            },
            {
                "deltaTime": 81,
                "channel": 1,
                "type": "channel",
                "noteNumber": 76,
                "velocity": 0,
                "subtype": "noteOff"
            },
            {
                "deltaTime": 0,
                "channel": 1,
                "type": "channel",
                "subtype": "controller",
                "controllerType": 64,
                "value": 127
            },
            {
                "deltaTime": 0,
                "channel": 1,
                "type": "channel",
                "noteNumber": 77,
                "velocity": 88,
                "subtype": "noteOn"
            },
            {
                "deltaTime": 47,
                "channel": 1,
                "type": "channel",
                "noteNumber": 77,
                "velocity": 0,
                "subtype": "noteOff"
            },
            {
                "deltaTime": 0,
                "channel": 1,
                "type": "channel",
                "noteNumber": 82,
                "velocity": 88,
                "subtype": "noteOn"
            },
            {
                "deltaTime": 49,
                "channel": 1,
                "type": "channel",
                "noteNumber": 82,
                "velocity": 0,
                "subtype": "noteOff"
            },
            {
                "deltaTime": 0,
                "channel": 1,
                "type": "channel",
                "noteNumber": 87,
                "velocity": 88,
                "subtype": "noteOn"
            },
            {
                "deltaTime": 47,
                "channel": 1,
                "type": "channel",
                "noteNumber": 87,
                "velocity": 0,
                "subtype": "noteOff"
            },
            {
                "deltaTime": 0,
                "channel": 1,
                "type": "channel",
                "noteNumber": 89,
                "velocity": 88,
                "subtype": "noteOn"
            },
            {
                "deltaTime": 49,
                "channel": 1,
                "type": "channel",
                "noteNumber": 89,
                "velocity": 0,
                "subtype": "noteOff"
            },
            {
                "deltaTime": 0,
                "channel": 1,
                "type": "channel",
                "noteNumber": 94,
                "velocity": 88,
                "subtype": "noteOn"
            },
            {
                "deltaTime": 48,
                "channel": 1,
                "type": "channel",
                "noteNumber": 94,
                "velocity": 0,
                "subtype": "noteOff"
            },
            {
                "deltaTime": 0,
                "channel": 1,
                "type": "channel",
                "noteNumber": 99,
                "velocity": 88,
                "subtype": "noteOn"
            },
            {
                "deltaTime": 240,
                "channel": 1,
                "type": "channel",
                "noteNumber": 99,
                "velocity": 0,
                "subtype": "noteOff"
            },
            {
                "deltaTime": 0,
                "channel": 1,
                "type": "channel",
                "noteNumber": 89,
                "velocity": 88,
                "subtype": "noteOn"
            },
            {
                "deltaTime": 80,
                "channel": 1,
                "type": "channel",
                "noteNumber": 89,
                "velocity": 0,
                "subtype": "noteOff"
            },
            {
                "deltaTime": 0,
                "channel": 1,
                "type": "channel",
                "noteNumber": 87,
                "velocity": 88,
                "subtype": "noteOn"
            },
            {
                "deltaTime": 79,
                "channel": 1,
                "type": "channel",
                "noteNumber": 87,
                "velocity": 0,
                "subtype": "noteOff"
            },
            {
                "deltaTime": 0,
                "channel": 1,
                "type": "channel",
                "noteNumber": 82,
                "velocity": 88,
                "subtype": "noteOn"
            },
            {
                "deltaTime": 81,
                "channel": 1,
                "type": "channel",
                "noteNumber": 82,
                "velocity": 0,
                "subtype": "noteOff"
            },
            {
                "deltaTime": 0,
                "channel": 1,
                "type": "channel",
                "subtype": "controller",
                "controllerType": 64,
                "value": 127
            },
            {
                "deltaTime": 0,
                "channel": 1,
                "type": "channel",
                "noteNumber": 77,
                "velocity": 88,
                "subtype": "noteOn"
            },
            {
                "deltaTime": 47,
                "channel": 1,
                "type": "channel",
                "noteNumber": 77,
                "velocity": 0,
                "subtype": "noteOff"
            },
            {
                "deltaTime": 0,
                "channel": 1,
                "type": "channel",
                "noteNumber": 81,
                "velocity": 88,
                "subtype": "noteOn"
            },
            {
                "deltaTime": 49,
                "channel": 1,
                "type": "channel",
                "noteNumber": 81,
                "velocity": 0,
                "subtype": "noteOff"
            },
            {
                "deltaTime": 0,
                "channel": 1,
                "type": "channel",
                "noteNumber": 87,
                "velocity": 88,
                "subtype": "noteOn"
            },
            {
                "deltaTime": 47,
                "channel": 1,
                "type": "channel",
                "noteNumber": 87,
                "velocity": 0,
                "subtype": "noteOff"
            },
            {
                "deltaTime": 0,
                "channel": 1,
                "type": "channel",
                "noteNumber": 77,
                "velocity": 88,
                "subtype": "noteOn"
            },
            {
                "deltaTime": 49,
                "channel": 1,
                "type": "channel",
                "noteNumber": 77,
                "velocity": 0,
                "subtype": "noteOff"
            },
            {
                "deltaTime": 0,
                "channel": 1,
                "type": "channel",
                "noteNumber": 81,
                "velocity": 88,
                "subtype": "noteOn"
            },
            {
                "deltaTime": 48,
                "channel": 1,
                "type": "channel",
                "noteNumber": 81,
                "velocity": 0,
                "subtype": "noteOff"
            },
            {
                "deltaTime": 0,
                "channel": 1,
                "type": "channel",
                "noteNumber": 99,
                "velocity": 88,
                "subtype": "noteOn"
            },
            {
                "deltaTime": 240,
                "channel": 1,
                "type": "channel",
                "noteNumber": 99,
                "velocity": 0,
                "subtype": "noteOff"
            },
            {
                "deltaTime": 0,
                "channel": 1,
                "type": "channel",
                "noteNumber": 89,
                "velocity": 88,
                "subtype": "noteOn"
            },
            {
                "deltaTime": 80,
                "channel": 1,
                "type": "channel",
                "noteNumber": 89,
                "velocity": 0,
                "subtype": "noteOff"
            },
            {
                "deltaTime": 0,
                "channel": 1,
                "type": "channel",
                "noteNumber": 87,
                "velocity": 88,
                "subtype": "noteOn"
            },
            {
                "deltaTime": 79,
                "channel": 1,
                "type": "channel",
                "noteNumber": 87,
                "velocity": 0,
                "subtype": "noteOff"
            },
            {
                "deltaTime": 0,
                "channel": 1,
                "type": "channel",
                "noteNumber": 81,
                "velocity": 88,
                "subtype": "noteOn"
            },
            {
                "deltaTime": 81,
                "channel": 1,
                "type": "channel",
                "noteNumber": 81,
                "velocity": 0,
                "subtype": "noteOff"
            },
            {
                "deltaTime": 0,
                "channel": 1,
                "type": "channel",
                "subtype": "controller",
                "controllerType": 64,
                "value": 127
            },
            {
                "deltaTime": 0,
                "channel": 1,
                "type": "channel",
                "noteNumber": 99,
                "velocity": 88,
                "subtype": "noteOn"
            },
            {
                "deltaTime": 80,
                "channel": 1,
                "type": "channel",
                "noteNumber": 99,
                "velocity": 0,
                "subtype": "noteOff"
            },
            {
                "deltaTime": 0,
                "channel": 1,
                "type": "channel",
                "noteNumber": 98,
                "velocity": 88,
                "subtype": "noteOn"
            },
            {
                "deltaTime": 79,
                "channel": 1,
                "type": "channel",
                "noteNumber": 98,
                "velocity": 0,
                "subtype": "noteOff"
            },
            {
                "deltaTime": 0,
                "channel": 1,
                "type": "channel",
                "noteNumber": 97,
                "velocity": 88,
                "subtype": "noteOn"
            },
            {
                "deltaTime": 81,
                "channel": 1,
                "type": "channel",
                "noteNumber": 97,
                "velocity": 0,
                "subtype": "noteOff"
            },
            {
                "deltaTime": 0,
                "channel": 1,
                "type": "channel",
                "noteNumber": 93,
                "velocity": 88,
                "subtype": "noteOn"
            },
            {
                "deltaTime": 80,
                "channel": 1,
                "type": "channel",
                "noteNumber": 93,
                "velocity": 0,
                "subtype": "noteOff"
            },
            {
                "deltaTime": 0,
                "channel": 1,
                "type": "channel",
                "noteNumber": 92,
                "velocity": 88,
                "subtype": "noteOn"
            },
            {
                "deltaTime": 79,
                "channel": 1,
                "type": "channel",
                "noteNumber": 92,
                "velocity": 0,
                "subtype": "noteOff"
            },
            {
                "deltaTime": 0,
                "channel": 1,
                "type": "channel",
                "noteNumber": 91,
                "velocity": 88,
                "subtype": "noteOn"
            },
            {
                "deltaTime": 81,
                "channel": 1,
                "type": "channel",
                "noteNumber": 91,
                "velocity": 0,
                "subtype": "noteOff"
            },
            {
                "deltaTime": 0,
                "channel": 1,
                "type": "channel",
                "noteNumber": 87,
                "velocity": 88,
                "subtype": "noteOn"
            },
            {
                "deltaTime": 80,
                "channel": 1,
                "type": "channel",
                "noteNumber": 87,
                "velocity": 0,
                "subtype": "noteOff"
            },
            {
                "deltaTime": 0,
                "channel": 1,
                "type": "channel",
                "noteNumber": 86,
                "velocity": 88,
                "subtype": "noteOn"
            },
            {
                "deltaTime": 79,
                "channel": 1,
                "type": "channel",
                "noteNumber": 86,
                "velocity": 0,
                "subtype": "noteOff"
            },
            {
                "deltaTime": 0,
                "channel": 1,
                "type": "channel",
                "subtype": "controller",
                "controllerType": 64,
                "value": 0
            },
            {
                "deltaTime": 0,
                "channel": 1,
                "type": "channel",
                "noteNumber": 85,
                "velocity": 88,
                "subtype": "noteOn"
            },
            {
                "deltaTime": 81,
                "channel": 1,
                "type": "channel",
                "noteNumber": 85,
                "velocity": 0,
                "subtype": "noteOff"
            },
            {
                "deltaTime": 0,
                "channel": 1,
                "type": "channel",
                "subtype": "controller",
                "controllerType": 64,
                "value": 127
            },
            {
                "deltaTime": 0,
                "channel": 1,
                "type": "channel",
                "noteNumber": 93,
                "velocity": 88,
                "subtype": "noteOn"
            },
            {
                "deltaTime": 80,
                "channel": 1,
                "type": "channel",
                "noteNumber": 93,
                "velocity": 0,
                "subtype": "noteOff"
            },
            {
                "deltaTime": 0,
                "channel": 1,
                "type": "channel",
                "noteNumber": 92,
                "velocity": 88,
                "subtype": "noteOn"
            },
            {
                "deltaTime": 79,
                "channel": 1,
                "type": "channel",
                "noteNumber": 92,
                "velocity": 0,
                "subtype": "noteOff"
            },
            {
                "deltaTime": 0,
                "channel": 1,
                "type": "channel",
                "noteNumber": 91,
                "velocity": 88,
                "subtype": "noteOn"
            },
            {
                "deltaTime": 81,
                "channel": 1,
                "type": "channel",
                "noteNumber": 91,
                "velocity": 0,
                "subtype": "noteOff"
            },
            {
                "deltaTime": 0,
                "channel": 1,
                "type": "channel",
                "noteNumber": 87,
                "velocity": 88,
                "subtype": "noteOn"
            },
            {
                "deltaTime": 80,
                "channel": 1,
                "type": "channel",
                "noteNumber": 87,
                "velocity": 0,
                "subtype": "noteOff"
            },
            {
                "deltaTime": 0,
                "channel": 1,
                "type": "channel",
                "noteNumber": 86,
                "velocity": 88,
                "subtype": "noteOn"
            },
            {
                "deltaTime": 79,
                "channel": 1,
                "type": "channel",
                "noteNumber": 86,
                "velocity": 0,
                "subtype": "noteOff"
            },
            {
                "deltaTime": 0,
                "channel": 1,
                "type": "channel",
                "noteNumber": 85,
                "velocity": 88,
                "subtype": "noteOn"
            },
            {
                "deltaTime": 81,
                "channel": 1,
                "type": "channel",
                "noteNumber": 85,
                "velocity": 0,
                "subtype": "noteOff"
            },
            {
                "deltaTime": 0,
                "channel": 1,
                "type": "channel",
                "noteNumber": 81,
                "velocity": 88,
                "subtype": "noteOn"
            },
            {
                "deltaTime": 80,
                "channel": 1,
                "type": "channel",
                "noteNumber": 81,
                "velocity": 0,
                "subtype": "noteOff"
            },
            {
                "deltaTime": 0,
                "channel": 1,
                "type": "channel",
                "noteNumber": 80,
                "velocity": 88,
                "subtype": "noteOn"
            },
            {
                "deltaTime": 79,
                "channel": 1,
                "type": "channel",
                "noteNumber": 80,
                "velocity": 0,
                "subtype": "noteOff"
            },
            {
                "deltaTime": 0,
                "channel": 1,
                "type": "channel",
                "subtype": "controller",
                "controllerType": 64,
                "value": 0
            },
            {
                "deltaTime": 0,
                "channel": 1,
                "type": "channel",
                "noteNumber": 79,
                "velocity": 88,
                "subtype": "noteOn"
            },
            {
                "deltaTime": 81,
                "channel": 1,
                "type": "channel",
                "noteNumber": 79,
                "velocity": 0,
                "subtype": "noteOff"
            },
            {
                "deltaTime": 0,
                "channel": 1,
                "type": "channel",
                "subtype": "controller",
                "controllerType": 64,
                "value": 127
            },
            {
                "deltaTime": 0,
                "channel": 1,
                "type": "channel",
                "noteNumber": 92,
                "velocity": 88,
                "subtype": "noteOn"
            },
            {
                "deltaTime": 102,
                "channel": 1,
                "type": "channel",
                "noteNumber": 92,
                "velocity": 0,
                "subtype": "noteOff"
            },
            {
                "deltaTime": 0,
                "channel": 1,
                "type": "channel",
                "noteNumber": 91,
                "velocity": 88,
                "subtype": "noteOn"
            },
            {
                "deltaTime": 103,
                "channel": 1,
                "type": "channel",
                "noteNumber": 91,
                "velocity": 0,
                "subtype": "noteOff"
            },
            {
                "deltaTime": 0,
                "channel": 1,
                "type": "channel",
                "noteNumber": 90,
                "velocity": 88,
                "subtype": "noteOn"
            },
            {
                "deltaTime": 103,
                "channel": 1,
                "type": "channel",
                "noteNumber": 90,
                "velocity": 0,
                "subtype": "noteOff"
            },
            {
                "deltaTime": 0,
                "channel": 1,
                "type": "channel",
                "noteNumber": 86,
                "velocity": 88,
                "subtype": "noteOn"
            },
            {
                "deltaTime": 103,
                "channel": 1,
                "type": "channel",
                "noteNumber": 86,
                "velocity": 0,
                "subtype": "noteOff"
            },
            {
                "deltaTime": 0,
                "channel": 1,
                "type": "channel",
                "noteNumber": 80,
                "velocity": 88,
                "subtype": "noteOn"
            },
            {
                "deltaTime": 103,
                "channel": 1,
                "type": "channel",
                "noteNumber": 80,
                "velocity": 0,
                "subtype": "noteOff"
            },
            {
                "deltaTime": 0,
                "channel": 1,
                "type": "channel",
                "noteNumber": 79,
                "velocity": 88,
                "subtype": "noteOn"
            },
            {
                "deltaTime": 103,
                "channel": 1,
                "type": "channel",
                "noteNumber": 79,
                "velocity": 0,
                "subtype": "noteOff"
            },
            {
                "deltaTime": 0,
                "channel": 1,
                "type": "channel",
                "subtype": "controller",
                "controllerType": 64,
                "value": 0
            },
            {
                "deltaTime": 0,
                "channel": 1,
                "type": "channel",
                "noteNumber": 78,
                "velocity": 88,
                "subtype": "noteOn"
            },
            {
                "deltaTime": 103,
                "channel": 1,
                "type": "channel",
                "noteNumber": 78,
                "velocity": 0,
                "subtype": "noteOff"
            },
            {
                "deltaTime": 0,
                "channel": 1,
                "type": "channel",
                "noteNumber": 77,
                "velocity": 88,
                "subtype": "noteOn"
            },
            {
                "deltaTime": 60,
                "channel": 1,
                "type": "channel",
                "noteNumber": 77,
                "velocity": 0,
                "subtype": "noteOff"
            },
            {
                "deltaTime": 0,
                "channel": 1,
                "type": "channel",
                "noteNumber": 78,
                "velocity": 88,
                "subtype": "noteOn"
            },
            {
                "deltaTime": 60,
                "channel": 1,
                "type": "channel",
                "noteNumber": 78,
                "velocity": 0,
                "subtype": "noteOff"
            },
            {
                "deltaTime": 0,
                "channel": 1,
                "type": "channel",
                "noteNumber": 77,
                "velocity": 88,
                "subtype": "noteOn"
            },
            {
                "deltaTime": 60,
                "channel": 1,
                "type": "channel",
                "noteNumber": 77,
                "velocity": 0,
                "subtype": "noteOff"
            },
            {
                "deltaTime": 0,
                "channel": 1,
                "type": "channel",
                "noteNumber": 78,
                "velocity": 88,
                "subtype": "noteOn"
            },
            {
                "deltaTime": 60,
                "channel": 1,
                "type": "channel",
                "noteNumber": 78,
                "velocity": 0,
                "subtype": "noteOff"
            },
            {
                "deltaTime": 0,
                "channel": 1,
                "type": "channel",
                "noteNumber": 77,
                "velocity": 88,
                "subtype": "noteOn"
            },
            {
                "deltaTime": 60,
                "channel": 1,
                "type": "channel",
                "noteNumber": 77,
                "velocity": 0,
                "subtype": "noteOff"
            },
            {
                "deltaTime": 0,
                "channel": 1,
                "type": "channel",
                "noteNumber": 78,
                "velocity": 88,
                "subtype": "noteOn"
            },
            {
                "deltaTime": 60,
                "channel": 1,
                "type": "channel",
                "noteNumber": 78,
                "velocity": 0,
                "subtype": "noteOff"
            },
            {
                "deltaTime": 0,
                "channel": 1,
                "type": "channel",
                "noteNumber": 77,
                "velocity": 88,
                "subtype": "noteOn"
            },
            {
                "deltaTime": 60,
                "channel": 1,
                "type": "channel",
                "noteNumber": 77,
                "velocity": 0,
                "subtype": "noteOff"
            },
            {
                "deltaTime": 0,
                "channel": 1,
                "type": "channel",
                "noteNumber": 78,
                "velocity": 88,
                "subtype": "noteOn"
            },
            {
                "deltaTime": 60,
                "channel": 1,
                "type": "channel",
                "noteNumber": 78,
                "velocity": 0,
                "subtype": "noteOff"
            },
            {
                "deltaTime": 0,
                "channel": 1,
                "type": "channel",
                "noteNumber": 77,
                "velocity": 88,
                "subtype": "noteOn"
            },
            {
                "deltaTime": 60,
                "channel": 1,
                "type": "channel",
                "noteNumber": 77,
                "velocity": 0,
                "subtype": "noteOff"
            },
            {
                "deltaTime": 0,
                "channel": 1,
                "type": "channel",
                "noteNumber": 78,
                "velocity": 88,
                "subtype": "noteOn"
            },
            {
                "deltaTime": 60,
                "channel": 1,
                "type": "channel",
                "noteNumber": 78,
                "velocity": 0,
                "subtype": "noteOff"
            },
            {
                "deltaTime": 0,
                "channel": 1,
                "type": "channel",
                "noteNumber": 77,
                "velocity": 88,
                "subtype": "noteOn"
            },
            {
                "deltaTime": 60,
                "channel": 1,
                "type": "channel",
                "noteNumber": 77,
                "velocity": 0,
                "subtype": "noteOff"
            },
            {
                "deltaTime": 0,
                "channel": 1,
                "type": "channel",
                "noteNumber": 78,
                "velocity": 88,
                "subtype": "noteOn"
            },
            {
                "deltaTime": 60,
                "channel": 1,
                "type": "channel",
                "noteNumber": 78,
                "velocity": 0,
                "subtype": "noteOff"
            },
            {
                "deltaTime": 0,
                "channel": 1,
                "type": "channel",
                "noteNumber": 61,
                "velocity": 75,
                "subtype": "noteOn"
            },
            {
                "deltaTime": 0,
                "channel": 1,
                "type": "channel",
                "noteNumber": 63,
                "velocity": 75,
                "subtype": "noteOn"
            },
            {
                "deltaTime": 0,
                "channel": 1,
                "type": "channel",
                "noteNumber": 66,
                "velocity": 75,
                "subtype": "noteOn"
            },
            {
                "deltaTime": 0,
                "channel": 1,
                "type": "channel",
                "noteNumber": 72,
                "velocity": 75,
                "subtype": "noteOn"
            },
            {
                "deltaTime": 630,
                "channel": 1,
                "type": "channel",
                "noteNumber": 61,
                "velocity": 75,
                "subtype": "noteOn"
            },
            {
                "deltaTime": 30,
                "channel": 1,
                "type": "channel",
                "noteNumber": 65,
                "velocity": 75,
                "subtype": "noteOn"
            },
            {
                "deltaTime": 30,
                "channel": 1,
                "type": "channel",
                "noteNumber": 71,
                "velocity": 75,
                "subtype": "noteOn"
            },
            {
                "deltaTime": 30,
                "channel": 1,
                "type": "channel",
                "noteNumber": 72,
                "velocity": 0,
                "subtype": "noteOff"
            },
            {
                "deltaTime": 0,
                "channel": 1,
                "type": "channel",
                "noteNumber": 66,
                "velocity": 0,
                "subtype": "noteOff"
            },
            {
                "deltaTime": 0,
                "channel": 1,
                "type": "channel",
                "noteNumber": 61,
                "velocity": 0,
                "subtype": "noteOff"
            },
            {
                "deltaTime": 0,
                "channel": 1,
                "type": "channel",
                "noteNumber": 63,
                "velocity": 0,
                "subtype": "noteOff"
            },
            {
                "deltaTime": 0,
                "channel": 1,
                "type": "channel",
                "noteNumber": 75,
                "velocity": 75,
                "subtype": "noteOn"
            },
            {
                "deltaTime": 240,
                "channel": 1,
                "type": "channel",
                "noteNumber": 75,
                "velocity": 0,
                "subtype": "noteOff"
            },
            {
                "deltaTime": 0,
                "channel": 1,
                "type": "channel",
                "noteNumber": 65,
                "velocity": 0,
                "subtype": "noteOff"
            },
            {
                "deltaTime": 0,
                "channel": 1,
                "type": "channel",
                "noteNumber": 61,
                "velocity": 0,
                "subtype": "noteOff"
            },
            {
                "deltaTime": 0,
                "channel": 1,
                "type": "channel",
                "noteNumber": 71,
                "velocity": 0,
                "subtype": "noteOff"
            },
            {
                "deltaTime": 480,
                "channel": 1,
                "type": "channel",
                "noteNumber": 78,
                "velocity": 75,
                "subtype": "noteOn"
            },
            {
                "deltaTime": 0,
                "channel": 1,
                "type": "channel",
                "noteNumber": 81,
                "velocity": 75,
                "subtype": "noteOn"
            },
            {
                "deltaTime": 0,
                "channel": 1,
                "type": "channel",
                "noteNumber": 83,
                "velocity": 75,
                "subtype": "noteOn"
            },
            {
                "deltaTime": 0,
                "channel": 1,
                "type": "channel",
                "noteNumber": 86,
                "velocity": 75,
                "subtype": "noteOn"
            },
            {
                "deltaTime": 720,
                "channel": 1,
                "type": "channel",
                "noteNumber": 86,
                "velocity": 0,
                "subtype": "noteOff"
            },
            {
                "deltaTime": 0,
                "channel": 1,
                "type": "channel",
                "noteNumber": 78,
                "velocity": 0,
                "subtype": "noteOff"
            },
            {
                "deltaTime": 0,
                "channel": 1,
                "type": "channel",
                "noteNumber": 81,
                "velocity": 0,
                "subtype": "noteOff"
            },
            {
                "deltaTime": 0,
                "channel": 1,
                "type": "channel",
                "noteNumber": 83,
                "velocity": 0,
                "subtype": "noteOff"
            },
            {
                "deltaTime": 2640,
                "channel": 1,
                "type": "channel",
                "noteNumber": 76,
                "velocity": 75,
                "subtype": "noteOn"
            },
            {
                "deltaTime": 480,
                "channel": 1,
                "type": "channel",
                "noteNumber": 76,
                "velocity": 0,
                "subtype": "noteOff"
            },
            {
                "deltaTime": 960,
                "channel": 1,
                "type": "channel",
                "noteNumber": 72,
                "velocity": 75,
                "subtype": "noteOn"
            },
            {
                "deltaTime": 480,
                "channel": 1,
                "type": "channel",
                "noteNumber": 72,
                "velocity": 0,
                "subtype": "noteOff"
            },
            {
                "deltaTime": 240,
                "channel": 1,
                "type": "channel",
                "noteNumber": 68,
                "velocity": 75,
                "subtype": "noteOn"
            },
            {
                "deltaTime": 480,
                "channel": 1,
                "type": "channel",
                "noteNumber": 68,
                "velocity": 0,
                "subtype": "noteOff"
            },
            {
                "deltaTime": 480,
                "channel": 1,
                "type": "channel",
                "noteNumber": 74,
                "velocity": 75,
                "subtype": "noteOn"
            },
            {
                "deltaTime": 240,
                "channel": 1,
                "type": "channel",
                "noteNumber": 74,
                "velocity": 0,
                "subtype": "noteOff"
            },
            {
                "deltaTime": 240,
                "channel": 1,
                "type": "channel",
                "noteNumber": 68,
                "velocity": 75,
                "subtype": "noteOn"
            },
            {
                "deltaTime": 240,
                "channel": 1,
                "type": "channel",
                "noteNumber": 68,
                "velocity": 0,
                "subtype": "noteOff"
            },
            {
                "deltaTime": 240,
                "channel": 1,
                "type": "channel",
                "noteNumber": 62,
                "velocity": 75,
                "subtype": "noteOn"
            },
            {
                "deltaTime": 240,
                "channel": 1,
                "type": "channel",
                "noteNumber": 62,
                "velocity": 0,
                "subtype": "noteOff"
            },
            {
                "deltaTime": 1440,
                "channel": 1,
                "type": "channel",
                "noteNumber": 67,
                "velocity": 49,
                "subtype": "noteOn"
            },
            {
                "deltaTime": 0,
                "channel": 1,
                "type": "channel",
                "noteNumber": 69,
                "velocity": 49,
                "subtype": "noteOn"
            },
            {
                "deltaTime": 1440,
                "channel": 1,
                "type": "channel",
                "noteNumber": 69,
                "velocity": 0,
                "subtype": "noteOff"
            },
            {
                "deltaTime": 0,
                "channel": 1,
                "type": "channel",
                "noteNumber": 67,
                "velocity": 0,
                "subtype": "noteOff"
            },
            {
                "deltaTime": 0,
                "type": "meta",
                "subtype": "endOfTrack"
            }
        ],
        [
            {
                "deltaTime": 0,
                "type": "meta",
                "subtype": "unknown",
                "data": "\u0000"
            },
            {
                "deltaTime": 0,
                "type": "meta",
                "subtype": "trackName",
                "text": "Instrument18"
            },
            {
                "deltaTime": 0,
                "channel": 2,
                "type": "channel",
                "subtype": "programChange",
                "programNumber": 0
            },
            {
                "deltaTime": 0,
                "channel": 2,
                "type": "channel",
                "subtype": "controller",
                "controllerType": 7,
                "value": 127
            },
            {
                "deltaTime": 0,
                "channel": 2,
                "type": "channel",
                "subtype": "controller",
                "controllerType": 10,
                "value": 30
            },
            {
                "deltaTime": 240,
                "channel": 2,
                "type": "channel",
                "noteNumber": 61,
                "velocity": 49,
                "subtype": "noteOn"
            },
            {
                "deltaTime": 240,
                "channel": 2,
                "type": "channel",
                "noteNumber": 61,
                "velocity": 0,
                "subtype": "noteOff"
            },
            {
                "deltaTime": 240,
                "channel": 2,
                "type": "channel",
                "noteNumber": 56,
                "velocity": 49,
                "subtype": "noteOn"
            },
            {
                "deltaTime": 240,
                "channel": 2,
                "type": "channel",
                "noteNumber": 56,
                "velocity": 0,
                "subtype": "noteOff"
            },
            {
                "deltaTime": 480,
                "channel": 2,
                "type": "channel",
                "noteNumber": 61,
                "velocity": 49,
                "subtype": "noteOn"
            },
            {
                "deltaTime": 240,
                "channel": 2,
                "type": "channel",
                "noteNumber": 61,
                "velocity": 0,
                "subtype": "noteOff"
            },
            {
                "deltaTime": 720,
                "channel": 2,
                "type": "channel",
                "noteNumber": 49,
                "velocity": 49,
                "subtype": "noteOn"
            },
            {
                "deltaTime": 240,
                "channel": 2,
                "type": "channel",
                "noteNumber": 49,
                "velocity": 0,
                "subtype": "noteOff"
            },
            {
                "deltaTime": 480,
                "channel": 2,
                "type": "channel",
                "noteNumber": 43,
                "velocity": 49,
                "subtype": "noteOn"
            },
            {
                "deltaTime": 240,
                "channel": 2,
                "type": "channel",
                "noteNumber": 43,
                "velocity": 0,
                "subtype": "noteOff"
            },
            {
                "deltaTime": 240,
                "channel": 2,
                "type": "channel",
                "noteNumber": 49,
                "velocity": 49,
                "subtype": "noteOn"
            },
            {
                "deltaTime": 240,
                "channel": 2,
                "type": "channel",
                "noteNumber": 49,
                "velocity": 0,
                "subtype": "noteOff"
            },
            {
                "deltaTime": 240,
                "channel": 2,
                "type": "channel",
                "noteNumber": 55,
                "velocity": 49,
                "subtype": "noteOn"
            },
            {
                "deltaTime": 240,
                "channel": 2,
                "type": "channel",
                "noteNumber": 55,
                "velocity": 0,
                "subtype": "noteOff"
            },
            {
                "deltaTime": 0,
                "channel": 2,
                "type": "channel",
                "noteNumber": 61,
                "velocity": 49,
                "subtype": "noteOn"
            },
            {
                "deltaTime": 240,
                "channel": 2,
                "type": "channel",
                "noteNumber": 61,
                "velocity": 0,
                "subtype": "noteOff"
            },
            {
                "deltaTime": 480,
                "channel": 2,
                "type": "channel",
                "noteNumber": 67,
                "velocity": 49,
                "subtype": "noteOn"
            },
            {
                "deltaTime": 240,
                "channel": 2,
                "type": "channel",
                "noteNumber": 67,
                "velocity": 0,
                "subtype": "noteOff"
            },
            {
                "deltaTime": 240,
                "channel": 2,
                "type": "channel",
                "noteNumber": 66,
                "velocity": 49,
                "subtype": "noteOn"
            },
            {
                "deltaTime": 240,
                "channel": 2,
                "type": "channel",
                "noteNumber": 66,
                "velocity": 0,
                "subtype": "noteOff"
            },
            {
                "deltaTime": 240,
                "channel": 2,
                "type": "channel",
                "noteNumber": 64,
                "velocity": 49,
                "subtype": "noteOn"
            },
            {
                "deltaTime": 240,
                "channel": 2,
                "type": "channel",
                "noteNumber": 64,
                "velocity": 0,
                "subtype": "noteOff"
            },
            {
                "deltaTime": 240,
                "channel": 2,
                "type": "channel",
                "noteNumber": 59,
                "velocity": 49,
                "subtype": "noteOn"
            },
            {
                "deltaTime": 240,
                "channel": 2,
                "type": "channel",
                "noteNumber": 59,
                "velocity": 0,
                "subtype": "noteOff"
            },
            {
                "deltaTime": 480,
                "channel": 2,
                "type": "channel",
                "noteNumber": 64,
                "velocity": 49,
                "subtype": "noteOn"
            },
            {
                "deltaTime": 240,
                "channel": 2,
                "type": "channel",
                "noteNumber": 64,
                "velocity": 0,
                "subtype": "noteOff"
            },
            {
                "deltaTime": 720,
                "channel": 2,
                "type": "channel",
                "noteNumber": 52,
                "velocity": 49,
                "subtype": "noteOn"
            },
            {
                "deltaTime": 240,
                "channel": 2,
                "type": "channel",
                "noteNumber": 52,
                "velocity": 0,
                "subtype": "noteOff"
            },
            {
                "deltaTime": 480,
                "channel": 2,
                "type": "channel",
                "noteNumber": 46,
                "velocity": 49,
                "subtype": "noteOn"
            },
            {
                "deltaTime": 240,
                "channel": 2,
                "type": "channel",
                "noteNumber": 46,
                "velocity": 0,
                "subtype": "noteOff"
            },
            {
                "deltaTime": 240,
                "channel": 2,
                "type": "channel",
                "noteNumber": 52,
                "velocity": 49,
                "subtype": "noteOn"
            },
            {
                "deltaTime": 240,
                "channel": 2,
                "type": "channel",
                "noteNumber": 52,
                "velocity": 0,
                "subtype": "noteOff"
            },
            {
                "deltaTime": 240,
                "channel": 2,
                "type": "channel",
                "noteNumber": 58,
                "velocity": 49,
                "subtype": "noteOn"
            },
            {
                "deltaTime": 240,
                "channel": 2,
                "type": "channel",
                "noteNumber": 58,
                "velocity": 0,
                "subtype": "noteOff"
            },
            {
                "deltaTime": 0,
                "channel": 2,
                "type": "channel",
                "noteNumber": 64,
                "velocity": 49,
                "subtype": "noteOn"
            },
            {
                "deltaTime": 240,
                "channel": 2,
                "type": "channel",
                "noteNumber": 64,
                "velocity": 0,
                "subtype": "noteOff"
            },
            {
                "deltaTime": 480,
                "channel": 2,
                "type": "channel",
                "noteNumber": 70,
                "velocity": 49,
                "subtype": "noteOn"
            },
            {
                "deltaTime": 240,
                "channel": 2,
                "type": "channel",
                "noteNumber": 70,
                "velocity": 0,
                "subtype": "noteOff"
            },
            {
                "deltaTime": 240,
                "channel": 2,
                "type": "channel",
                "noteNumber": 68,
                "velocity": 49,
                "subtype": "noteOn"
            },
            {
                "deltaTime": 240,
                "channel": 2,
                "type": "channel",
                "noteNumber": 68,
                "velocity": 0,
                "subtype": "noteOff"
            },
            {
                "deltaTime": 720,
                "channel": 2,
                "type": "channel",
                "noteNumber": 56,
                "velocity": 49,
                "subtype": "noteOn"
            },
            {
                "deltaTime": 480,
                "channel": 2,
                "type": "channel",
                "noteNumber": 56,
                "velocity": 0,
                "subtype": "noteOff"
            },
            {
                "deltaTime": 0,
                "channel": 2,
                "type": "channel",
                "noteNumber": 57,
                "velocity": 49,
                "subtype": "noteOn"
            },
            {
                "deltaTime": 240,
                "channel": 2,
                "type": "channel",
                "noteNumber": 57,
                "velocity": 0,
                "subtype": "noteOff"
            },
            {
                "deltaTime": 2160,
                "channel": 2,
                "type": "channel",
                "noteNumber": 57,
                "velocity": 49,
                "subtype": "noteOn"
            },
            {
                "deltaTime": 480,
                "channel": 2,
                "type": "channel",
                "noteNumber": 57,
                "velocity": 0,
                "subtype": "noteOff"
            },
            {
                "deltaTime": 0,
                "channel": 2,
                "type": "channel",
                "noteNumber": 58,
                "velocity": 49,
                "subtype": "noteOn"
            },
            {
                "deltaTime": 240,
                "channel": 2,
                "type": "channel",
                "noteNumber": 58,
                "velocity": 0,
                "subtype": "noteOff"
            },
            {
                "deltaTime": 720,
                "channel": 2,
                "type": "channel",
                "noteNumber": 64,
                "velocity": 75,
                "subtype": "noteOn"
            },
            {
                "deltaTime": 0,
                "channel": 2,
                "type": "channel",
                "noteNumber": 68,
                "velocity": 75,
                "subtype": "noteOn"
            },
            {
                "deltaTime": 240,
                "channel": 2,
                "type": "channel",
                "noteNumber": 68,
                "velocity": 0,
                "subtype": "noteOff"
            },
            {
                "deltaTime": 0,
                "channel": 2,
                "type": "channel",
                "noteNumber": 64,
                "velocity": 0,
                "subtype": "noteOff"
            },
            {
                "deltaTime": 0,
                "channel": 2,
                "type": "channel",
                "noteNumber": 65,
                "velocity": 49,
                "subtype": "noteOn"
            },
            {
                "deltaTime": 0,
                "channel": 2,
                "type": "channel",
                "noteNumber": 70,
                "velocity": 49,
                "subtype": "noteOn"
            },
            {
                "deltaTime": 480,
                "channel": 2,
                "type": "channel",
                "noteNumber": 70,
                "velocity": 0,
                "subtype": "noteOff"
            },
            {
                "deltaTime": 0,
                "channel": 2,
                "type": "channel",
                "noteNumber": 65,
                "velocity": 0,
                "subtype": "noteOff"
            },
            {
                "deltaTime": 120,
                "channel": 2,
                "type": "channel",
                "noteNumber": 66,
                "velocity": 62,
                "subtype": "noteOn"
            },
            {
                "deltaTime": 120,
                "channel": 2,
                "type": "channel",
                "noteNumber": 66,
                "velocity": 0,
                "subtype": "noteOff"
            },
            {
                "deltaTime": 0,
                "channel": 2,
                "type": "channel",
                "noteNumber": 67,
                "velocity": 62,
                "subtype": "noteOn"
            },
            {
                "deltaTime": 120,
                "channel": 2,
                "type": "channel",
                "noteNumber": 67,
                "velocity": 0,
                "subtype": "noteOff"
            },
            {
                "deltaTime": 0,
                "channel": 2,
                "type": "channel",
                "noteNumber": 68,
                "velocity": 62,
                "subtype": "noteOn"
            },
            {
                "deltaTime": 120,
                "channel": 2,
                "type": "channel",
                "noteNumber": 68,
                "velocity": 0,
                "subtype": "noteOff"
            },
            {
                "deltaTime": 0,
                "channel": 2,
                "type": "channel",
                "noteNumber": 69,
                "velocity": 62,
                "subtype": "noteOn"
            },
            {
                "deltaTime": 120,
                "channel": 2,
                "type": "channel",
                "noteNumber": 69,
                "velocity": 0,
                "subtype": "noteOff"
            },
            {
                "deltaTime": 0,
                "channel": 2,
                "type": "channel",
                "noteNumber": 70,
                "velocity": 62,
                "subtype": "noteOn"
            },
            {
                "deltaTime": 120,
                "channel": 2,
                "type": "channel",
                "noteNumber": 70,
                "velocity": 0,
                "subtype": "noteOff"
            },
            {
                "deltaTime": 0,
                "channel": 2,
                "type": "channel",
                "noteNumber": 71,
                "velocity": 75,
                "subtype": "noteOn"
            },
            {
                "deltaTime": 120,
                "channel": 2,
                "type": "channel",
                "noteNumber": 71,
                "velocity": 0,
                "subtype": "noteOff"
            },
            {
                "deltaTime": 0,
                "channel": 2,
                "type": "channel",
                "noteNumber": 73,
                "velocity": 75,
                "subtype": "noteOn"
            },
            {
                "deltaTime": 120,
                "channel": 2,
                "type": "channel",
                "noteNumber": 73,
                "velocity": 0,
                "subtype": "noteOff"
            },
            {
                "deltaTime": 0,
                "channel": 2,
                "type": "channel",
                "noteNumber": 73,
                "velocity": 75,
                "subtype": "noteOn"
            },
            {
                "deltaTime": 120,
                "channel": 2,
                "type": "channel",
                "noteNumber": 73,
                "velocity": 0,
                "subtype": "noteOff"
            },
            {
                "deltaTime": 0,
                "channel": 2,
                "type": "channel",
                "noteNumber": 74,
                "velocity": 75,
                "subtype": "noteOn"
            },
            {
                "deltaTime": 120,
                "channel": 2,
                "type": "channel",
                "noteNumber": 74,
                "velocity": 0,
                "subtype": "noteOff"
            },
            {
                "deltaTime": 0,
                "channel": 2,
                "type": "channel",
                "noteNumber": 75,
                "velocity": 75,
                "subtype": "noteOn"
            },
            {
                "deltaTime": 80,
                "channel": 2,
                "type": "channel",
                "noteNumber": 75,
                "velocity": 0,
                "subtype": "noteOff"
            },
            {
                "deltaTime": 0,
                "channel": 2,
                "type": "channel",
                "noteNumber": 76,
                "velocity": 75,
                "subtype": "noteOn"
            },
            {
                "deltaTime": 79,
                "channel": 2,
                "type": "channel",
                "noteNumber": 76,
                "velocity": 0,
                "subtype": "noteOff"
            },
            {
                "deltaTime": 0,
                "channel": 2,
                "type": "channel",
                "noteNumber": 77,
                "velocity": 75,
                "subtype": "noteOn"
            },
            {
                "deltaTime": 81,
                "channel": 2,
                "type": "channel",
                "noteNumber": 77,
                "velocity": 0,
                "subtype": "noteOff"
            },
            {
                "deltaTime": 1440,
                "channel": 2,
                "type": "channel",
                "noteNumber": 62,
                "velocity": 75,
                "subtype": "noteOn"
            },
            {
                "deltaTime": 0,
                "channel": 2,
                "type": "channel",
                "noteNumber": 68,
                "velocity": 75,
                "subtype": "noteOn"
            },
            {
                "deltaTime": 0,
                "channel": 2,
                "type": "channel",
                "noteNumber": 72,
                "velocity": 75,
                "subtype": "noteOn"
            },
            {
                "deltaTime": 23,
                "channel": 2,
                "type": "channel",
                "noteNumber": 72,
                "velocity": 0,
                "subtype": "noteOff"
            },
            {
                "deltaTime": 0,
                "channel": 2,
                "type": "channel",
                "noteNumber": 68,
                "velocity": 0,
                "subtype": "noteOff"
            },
            {
                "deltaTime": 0,
                "channel": 2,
                "type": "channel",
                "noteNumber": 62,
                "velocity": 0,
                "subtype": "noteOff"
            },
            {
                "deltaTime": 97,
                "channel": 2,
                "type": "channel",
                "noteNumber": 62,
                "velocity": 75,
                "subtype": "noteOn"
            },
            {
                "deltaTime": 0,
                "channel": 2,
                "type": "channel",
                "noteNumber": 68,
                "velocity": 75,
                "subtype": "noteOn"
            },
            {
                "deltaTime": 0,
                "channel": 2,
                "type": "channel",
                "noteNumber": 72,
                "velocity": 75,
                "subtype": "noteOn"
            },
            {
                "deltaTime": 23,
                "channel": 2,
                "type": "channel",
                "noteNumber": 72,
                "velocity": 0,
                "subtype": "noteOff"
            },
            {
                "deltaTime": 0,
                "channel": 2,
                "type": "channel",
                "noteNumber": 68,
                "velocity": 0,
                "subtype": "noteOff"
            },
            {
                "deltaTime": 0,
                "channel": 2,
                "type": "channel",
                "noteNumber": 62,
                "velocity": 0,
                "subtype": "noteOff"
            },
            {
                "deltaTime": 97,
                "channel": 2,
                "type": "channel",
                "noteNumber": 62,
                "velocity": 75,
                "subtype": "noteOn"
            },
            {
                "deltaTime": 0,
                "channel": 2,
                "type": "channel",
                "noteNumber": 68,
                "velocity": 75,
                "subtype": "noteOn"
            },
            {
                "deltaTime": 0,
                "channel": 2,
                "type": "channel",
                "noteNumber": 72,
                "velocity": 75,
                "subtype": "noteOn"
            },
            {
                "deltaTime": 23,
                "channel": 2,
                "type": "channel",
                "noteNumber": 72,
                "velocity": 0,
                "subtype": "noteOff"
            },
            {
                "deltaTime": 0,
                "channel": 2,
                "type": "channel",
                "noteNumber": 68,
                "velocity": 0,
                "subtype": "noteOff"
            },
            {
                "deltaTime": 0,
                "channel": 2,
                "type": "channel",
                "noteNumber": 62,
                "velocity": 0,
                "subtype": "noteOff"
            },
            {
                "deltaTime": 97,
                "channel": 2,
                "type": "channel",
                "noteNumber": 62,
                "velocity": 75,
                "subtype": "noteOn"
            },
            {
                "deltaTime": 0,
                "channel": 2,
                "type": "channel",
                "noteNumber": 68,
                "velocity": 75,
                "subtype": "noteOn"
            },
            {
                "deltaTime": 0,
                "channel": 2,
                "type": "channel",
                "noteNumber": 72,
                "velocity": 75,
                "subtype": "noteOn"
            },
            {
                "deltaTime": 23,
                "channel": 2,
                "type": "channel",
                "noteNumber": 72,
                "velocity": 0,
                "subtype": "noteOff"
            },
            {
                "deltaTime": 0,
                "channel": 2,
                "type": "channel",
                "noteNumber": 68,
                "velocity": 0,
                "subtype": "noteOff"
            },
            {
                "deltaTime": 0,
                "channel": 2,
                "type": "channel",
                "noteNumber": 62,
                "velocity": 0,
                "subtype": "noteOff"
            },
            {
                "deltaTime": 97,
                "channel": 2,
                "type": "channel",
                "noteNumber": 62,
                "velocity": 75,
                "subtype": "noteOn"
            },
            {
                "deltaTime": 0,
                "channel": 2,
                "type": "channel",
                "noteNumber": 68,
                "velocity": 75,
                "subtype": "noteOn"
            },
            {
                "deltaTime": 0,
                "channel": 2,
                "type": "channel",
                "noteNumber": 72,
                "velocity": 75,
                "subtype": "noteOn"
            },
            {
                "deltaTime": 47,
                "channel": 2,
                "type": "channel",
                "noteNumber": 72,
                "velocity": 0,
                "subtype": "noteOff"
            },
            {
                "deltaTime": 0,
                "channel": 2,
                "type": "channel",
                "noteNumber": 68,
                "velocity": 0,
                "subtype": "noteOff"
            },
            {
                "deltaTime": 0,
                "channel": 2,
                "type": "channel",
                "noteNumber": 62,
                "velocity": 0,
                "subtype": "noteOff"
            },
            {
                "deltaTime": 2353,
                "channel": 2,
                "type": "channel",
                "noteNumber": 62,
                "velocity": 75,
                "subtype": "noteOn"
            },
            {
                "deltaTime": 0,
                "channel": 2,
                "type": "channel",
                "noteNumber": 68,
                "velocity": 75,
                "subtype": "noteOn"
            },
            {
                "deltaTime": 0,
                "channel": 2,
                "type": "channel",
                "noteNumber": 72,
                "velocity": 75,
                "subtype": "noteOn"
            },
            {
                "deltaTime": 23,
                "channel": 2,
                "type": "channel",
                "noteNumber": 72,
                "velocity": 0,
                "subtype": "noteOff"
            },
            {
                "deltaTime": 0,
                "channel": 2,
                "type": "channel",
                "noteNumber": 68,
                "velocity": 0,
                "subtype": "noteOff"
            },
            {
                "deltaTime": 0,
                "channel": 2,
                "type": "channel",
                "noteNumber": 62,
                "velocity": 0,
                "subtype": "noteOff"
            },
            {
                "deltaTime": 97,
                "channel": 2,
                "type": "channel",
                "noteNumber": 62,
                "velocity": 75,
                "subtype": "noteOn"
            },
            {
                "deltaTime": 0,
                "channel": 2,
                "type": "channel",
                "noteNumber": 68,
                "velocity": 75,
                "subtype": "noteOn"
            },
            {
                "deltaTime": 0,
                "channel": 2,
                "type": "channel",
                "noteNumber": 72,
                "velocity": 75,
                "subtype": "noteOn"
            },
            {
                "deltaTime": 23,
                "channel": 2,
                "type": "channel",
                "noteNumber": 72,
                "velocity": 0,
                "subtype": "noteOff"
            },
            {
                "deltaTime": 0,
                "channel": 2,
                "type": "channel",
                "noteNumber": 68,
                "velocity": 0,
                "subtype": "noteOff"
            },
            {
                "deltaTime": 0,
                "channel": 2,
                "type": "channel",
                "noteNumber": 62,
                "velocity": 0,
                "subtype": "noteOff"
            },
            {
                "deltaTime": 97,
                "channel": 2,
                "type": "channel",
                "noteNumber": 62,
                "velocity": 75,
                "subtype": "noteOn"
            },
            {
                "deltaTime": 0,
                "channel": 2,
                "type": "channel",
                "noteNumber": 68,
                "velocity": 75,
                "subtype": "noteOn"
            },
            {
                "deltaTime": 0,
                "channel": 2,
                "type": "channel",
                "noteNumber": 72,
                "velocity": 75,
                "subtype": "noteOn"
            },
            {
                "deltaTime": 23,
                "channel": 2,
                "type": "channel",
                "noteNumber": 72,
                "velocity": 0,
                "subtype": "noteOff"
            },
            {
                "deltaTime": 0,
                "channel": 2,
                "type": "channel",
                "noteNumber": 68,
                "velocity": 0,
                "subtype": "noteOff"
            },
            {
                "deltaTime": 0,
                "channel": 2,
                "type": "channel",
                "noteNumber": 62,
                "velocity": 0,
                "subtype": "noteOff"
            },
            {
                "deltaTime": 97,
                "channel": 2,
                "type": "channel",
                "noteNumber": 62,
                "velocity": 75,
                "subtype": "noteOn"
            },
            {
                "deltaTime": 0,
                "channel": 2,
                "type": "channel",
                "noteNumber": 68,
                "velocity": 75,
                "subtype": "noteOn"
            },
            {
                "deltaTime": 0,
                "channel": 2,
                "type": "channel",
                "noteNumber": 72,
                "velocity": 75,
                "subtype": "noteOn"
            },
            {
                "deltaTime": 23,
                "channel": 2,
                "type": "channel",
                "noteNumber": 72,
                "velocity": 0,
                "subtype": "noteOff"
            },
            {
                "deltaTime": 0,
                "channel": 2,
                "type": "channel",
                "noteNumber": 68,
                "velocity": 0,
                "subtype": "noteOff"
            },
            {
                "deltaTime": 0,
                "channel": 2,
                "type": "channel",
                "noteNumber": 62,
                "velocity": 0,
                "subtype": "noteOff"
            },
            {
                "deltaTime": 97,
                "channel": 2,
                "type": "channel",
                "subtype": "controller",
                "controllerType": 64,
                "value": 127
            },
            {
                "deltaTime": 0,
                "channel": 2,
                "type": "channel",
                "noteNumber": 62,
                "velocity": 75,
                "subtype": "noteOn"
            },
            {
                "deltaTime": 0,
                "channel": 2,
                "type": "channel",
                "noteNumber": 68,
                "velocity": 75,
                "subtype": "noteOn"
            },
            {
                "deltaTime": 0,
                "channel": 2,
                "type": "channel",
                "noteNumber": 72,
                "velocity": 75,
                "subtype": "noteOn"
            },
            {
                "deltaTime": 120,
                "channel": 2,
                "type": "channel",
                "noteNumber": 72,
                "velocity": 0,
                "subtype": "noteOff"
            },
            {
                "deltaTime": 0,
                "channel": 2,
                "type": "channel",
                "noteNumber": 68,
                "velocity": 0,
                "subtype": "noteOff"
            },
            {
                "deltaTime": 0,
                "channel": 2,
                "type": "channel",
                "noteNumber": 62,
                "velocity": 0,
                "subtype": "noteOff"
            },
            {
                "deltaTime": 0,
                "channel": 2,
                "type": "channel",
                "noteNumber": 73,
                "velocity": 75,
                "subtype": "noteOn"
            },
            {
                "deltaTime": 120,
                "channel": 2,
                "type": "channel",
                "noteNumber": 73,
                "velocity": 0,
                "subtype": "noteOff"
            },
            {
                "deltaTime": 0,
                "channel": 2,
                "type": "channel",
                "noteNumber": 74,
                "velocity": 75,
                "subtype": "noteOn"
            },
            {
                "deltaTime": 120,
                "channel": 2,
                "type": "channel",
                "noteNumber": 74,
                "velocity": 0,
                "subtype": "noteOff"
            },
            {
                "deltaTime": 0,
                "channel": 2,
                "type": "channel",
                "noteNumber": 75,
                "velocity": 75,
                "subtype": "noteOn"
            },
            {
                "deltaTime": 120,
                "channel": 2,
                "type": "channel",
                "noteNumber": 75,
                "velocity": 0,
                "subtype": "noteOff"
            },
            {
                "deltaTime": 0,
                "channel": 2,
                "type": "channel",
                "noteNumber": 76,
                "velocity": 75,
                "subtype": "noteOn"
            },
            {
                "deltaTime": 120,
                "channel": 2,
                "type": "channel",
                "noteNumber": 76,
                "velocity": 0,
                "subtype": "noteOff"
            },
            {
                "deltaTime": 0,
                "channel": 2,
                "type": "channel",
                "noteNumber": 77,
                "velocity": 75,
                "subtype": "noteOn"
            },
            {
                "deltaTime": 120,
                "channel": 2,
                "type": "channel",
                "noteNumber": 77,
                "velocity": 0,
                "subtype": "noteOff"
            },
            {
                "deltaTime": 0,
                "channel": 2,
                "type": "channel",
                "noteNumber": 78,
                "velocity": 75,
                "subtype": "noteOn"
            },
            {
                "deltaTime": 120,
                "channel": 2,
                "type": "channel",
                "noteNumber": 78,
                "velocity": 0,
                "subtype": "noteOff"
            },
            {
                "deltaTime": 0,
                "channel": 2,
                "type": "channel",
                "subtype": "controller",
                "controllerType": 64,
                "value": 0
            },
            {
                "deltaTime": 0,
                "channel": 2,
                "type": "channel",
                "noteNumber": 79,
                "velocity": 75,
                "subtype": "noteOn"
            },
            {
                "deltaTime": 120,
                "channel": 2,
                "type": "channel",
                "noteNumber": 79,
                "velocity": 0,
                "subtype": "noteOff"
            },
            {
                "deltaTime": 0,
                "channel": 2,
                "type": "channel",
                "noteNumber": 58,
                "velocity": 75,
                "subtype": "noteOn"
            },
            {
                "deltaTime": 0,
                "channel": 2,
                "type": "channel",
                "noteNumber": 64,
                "velocity": 75,
                "subtype": "noteOn"
            },
            {
                "deltaTime": 0,
                "channel": 2,
                "type": "channel",
                "noteNumber": 68,
                "velocity": 75,
                "subtype": "noteOn"
            },
            {
                "deltaTime": 0,
                "channel": 2,
                "type": "channel",
                "noteNumber": 72,
                "velocity": 75,
                "subtype": "noteOn"
            },
            {
                "deltaTime": 240,
                "channel": 2,
                "type": "channel",
                "noteNumber": 72,
                "velocity": 0,
                "subtype": "noteOff"
            },
            {
                "deltaTime": 0,
                "channel": 2,
                "type": "channel",
                "noteNumber": 58,
                "velocity": 0,
                "subtype": "noteOff"
            },
            {
                "deltaTime": 0,
                "channel": 2,
                "type": "channel",
                "noteNumber": 64,
                "velocity": 0,
                "subtype": "noteOff"
            },
            {
                "deltaTime": 0,
                "channel": 2,
                "type": "channel",
                "noteNumber": 68,
                "velocity": 0,
                "subtype": "noteOff"
            },
            {
                "deltaTime": 0,
                "channel": 2,
                "type": "channel",
                "noteNumber": 64,
                "velocity": 75,
                "subtype": "noteOn"
            },
            {
                "deltaTime": 0,
                "channel": 2,
                "type": "channel",
                "noteNumber": 68,
                "velocity": 75,
                "subtype": "noteOn"
            },
            {
                "deltaTime": 0,
                "channel": 2,
                "type": "channel",
                "noteNumber": 72,
                "velocity": 75,
                "subtype": "noteOn"
            },
            {
                "deltaTime": 240,
                "channel": 2,
                "type": "channel",
                "noteNumber": 72,
                "velocity": 0,
                "subtype": "noteOff"
            },
            {
                "deltaTime": 0,
                "channel": 2,
                "type": "channel",
                "noteNumber": 68,
                "velocity": 0,
                "subtype": "noteOff"
            },
            {
                "deltaTime": 0,
                "channel": 2,
                "type": "channel",
                "noteNumber": 64,
                "velocity": 0,
                "subtype": "noteOff"
            },
            {
                "deltaTime": 240,
                "channel": 2,
                "type": "channel",
                "noteNumber": 64,
                "velocity": 75,
                "subtype": "noteOn"
            },
            {
                "deltaTime": 0,
                "channel": 2,
                "type": "channel",
                "noteNumber": 68,
                "velocity": 75,
                "subtype": "noteOn"
            },
            {
                "deltaTime": 0,
                "channel": 2,
                "type": "channel",
                "noteNumber": 72,
                "velocity": 75,
                "subtype": "noteOn"
            },
            {
                "deltaTime": 240,
                "channel": 2,
                "type": "channel",
                "noteNumber": 72,
                "velocity": 0,
                "subtype": "noteOff"
            },
            {
                "deltaTime": 0,
                "channel": 2,
                "type": "channel",
                "noteNumber": 68,
                "velocity": 0,
                "subtype": "noteOff"
            },
            {
                "deltaTime": 0,
                "channel": 2,
                "type": "channel",
                "noteNumber": 64,
                "velocity": 0,
                "subtype": "noteOff"
            },
            {
                "deltaTime": 240,
                "channel": 2,
                "type": "channel",
                "noteNumber": 64,
                "velocity": 75,
                "subtype": "noteOn"
            },
            {
                "deltaTime": 0,
                "channel": 2,
                "type": "channel",
                "noteNumber": 68,
                "velocity": 75,
                "subtype": "noteOn"
            },
            {
                "deltaTime": 0,
                "channel": 2,
                "type": "channel",
                "noteNumber": 72,
                "velocity": 75,
                "subtype": "noteOn"
            },
            {
                "deltaTime": 240,
                "channel": 2,
                "type": "channel",
                "noteNumber": 72,
                "velocity": 0,
                "subtype": "noteOff"
            },
            {
                "deltaTime": 0,
                "channel": 2,
                "type": "channel",
                "noteNumber": 68,
                "velocity": 0,
                "subtype": "noteOff"
            },
            {
                "deltaTime": 0,
                "channel": 2,
                "type": "channel",
                "noteNumber": 64,
                "velocity": 0,
                "subtype": "noteOff"
            },
            {
                "deltaTime": 0,
                "channel": 2,
                "type": "channel",
                "noteNumber": 68,
                "velocity": 75,
                "subtype": "noteOn"
            },
            {
                "deltaTime": 0,
                "channel": 2,
                "type": "channel",
                "noteNumber": 74,
                "velocity": 75,
                "subtype": "noteOn"
            },
            {
                "deltaTime": 0,
                "channel": 2,
                "type": "channel",
                "noteNumber": 78,
                "velocity": 75,
                "subtype": "noteOn"
            },
            {
                "deltaTime": 23,
                "channel": 2,
                "type": "channel",
                "noteNumber": 78,
                "velocity": 0,
                "subtype": "noteOff"
            },
            {
                "deltaTime": 0,
                "channel": 2,
                "type": "channel",
                "noteNumber": 74,
                "velocity": 0,
                "subtype": "noteOff"
            },
            {
                "deltaTime": 0,
                "channel": 2,
                "type": "channel",
                "noteNumber": 68,
                "velocity": 0,
                "subtype": "noteOff"
            },
            {
                "deltaTime": 97,
                "channel": 2,
                "type": "channel",
                "noteNumber": 68,
                "velocity": 75,
                "subtype": "noteOn"
            },
            {
                "deltaTime": 0,
                "channel": 2,
                "type": "channel",
                "noteNumber": 74,
                "velocity": 75,
                "subtype": "noteOn"
            },
            {
                "deltaTime": 0,
                "channel": 2,
                "type": "channel",
                "noteNumber": 78,
                "velocity": 75,
                "subtype": "noteOn"
            },
            {
                "deltaTime": 23,
                "channel": 2,
                "type": "channel",
                "noteNumber": 78,
                "velocity": 0,
                "subtype": "noteOff"
            },
            {
                "deltaTime": 0,
                "channel": 2,
                "type": "channel",
                "noteNumber": 74,
                "velocity": 0,
                "subtype": "noteOff"
            },
            {
                "deltaTime": 0,
                "channel": 2,
                "type": "channel",
                "noteNumber": 68,
                "velocity": 0,
                "subtype": "noteOff"
            },
            {
                "deltaTime": 97,
                "channel": 2,
                "type": "channel",
                "noteNumber": 68,
                "velocity": 75,
                "subtype": "noteOn"
            },
            {
                "deltaTime": 0,
                "channel": 2,
                "type": "channel",
                "noteNumber": 74,
                "velocity": 75,
                "subtype": "noteOn"
            },
            {
                "deltaTime": 0,
                "channel": 2,
                "type": "channel",
                "noteNumber": 78,
                "velocity": 75,
                "subtype": "noteOn"
            },
            {
                "deltaTime": 23,
                "channel": 2,
                "type": "channel",
                "noteNumber": 78,
                "velocity": 0,
                "subtype": "noteOff"
            },
            {
                "deltaTime": 0,
                "channel": 2,
                "type": "channel",
                "noteNumber": 74,
                "velocity": 0,
                "subtype": "noteOff"
            },
            {
                "deltaTime": 0,
                "channel": 2,
                "type": "channel",
                "noteNumber": 68,
                "velocity": 0,
                "subtype": "noteOff"
            },
            {
                "deltaTime": 97,
                "channel": 2,
                "type": "channel",
                "noteNumber": 68,
                "velocity": 75,
                "subtype": "noteOn"
            },
            {
                "deltaTime": 0,
                "channel": 2,
                "type": "channel",
                "noteNumber": 74,
                "velocity": 75,
                "subtype": "noteOn"
            },
            {
                "deltaTime": 0,
                "channel": 2,
                "type": "channel",
                "noteNumber": 78,
                "velocity": 75,
                "subtype": "noteOn"
            },
            {
                "deltaTime": 23,
                "channel": 2,
                "type": "channel",
                "noteNumber": 78,
                "velocity": 0,
                "subtype": "noteOff"
            },
            {
                "deltaTime": 0,
                "channel": 2,
                "type": "channel",
                "noteNumber": 74,
                "velocity": 0,
                "subtype": "noteOff"
            },
            {
                "deltaTime": 0,
                "channel": 2,
                "type": "channel",
                "noteNumber": 68,
                "velocity": 0,
                "subtype": "noteOff"
            },
            {
                "deltaTime": 97,
                "channel": 2,
                "type": "channel",
                "noteNumber": 68,
                "velocity": 75,
                "subtype": "noteOn"
            },
            {
                "deltaTime": 0,
                "channel": 2,
                "type": "channel",
                "noteNumber": 74,
                "velocity": 75,
                "subtype": "noteOn"
            },
            {
                "deltaTime": 0,
                "channel": 2,
                "type": "channel",
                "noteNumber": 78,
                "velocity": 75,
                "subtype": "noteOn"
            },
            {
                "deltaTime": 47,
                "channel": 2,
                "type": "channel",
                "noteNumber": 78,
                "velocity": 0,
                "subtype": "noteOff"
            },
            {
                "deltaTime": 0,
                "channel": 2,
                "type": "channel",
                "noteNumber": 74,
                "velocity": 0,
                "subtype": "noteOff"
            },
            {
                "deltaTime": 0,
                "channel": 2,
                "type": "channel",
                "noteNumber": 68,
                "velocity": 0,
                "subtype": "noteOff"
            },
            {
                "deltaTime": 913,
                "channel": 2,
                "type": "channel",
                "noteNumber": 68,
                "velocity": 75,
                "subtype": "noteOn"
            },
            {
                "deltaTime": 0,
                "channel": 2,
                "type": "channel",
                "noteNumber": 74,
                "velocity": 75,
                "subtype": "noteOn"
            },
            {
                "deltaTime": 0,
                "channel": 2,
                "type": "channel",
                "noteNumber": 78,
                "velocity": 75,
                "subtype": "noteOn"
            },
            {
                "deltaTime": 23,
                "channel": 2,
                "type": "channel",
                "noteNumber": 78,
                "velocity": 0,
                "subtype": "noteOff"
            },
            {
                "deltaTime": 0,
                "channel": 2,
                "type": "channel",
                "noteNumber": 74,
                "velocity": 0,
                "subtype": "noteOff"
            },
            {
                "deltaTime": 0,
                "channel": 2,
                "type": "channel",
                "noteNumber": 68,
                "velocity": 0,
                "subtype": "noteOff"
            },
            {
                "deltaTime": 97,
                "channel": 2,
                "type": "channel",
                "noteNumber": 68,
                "velocity": 75,
                "subtype": "noteOn"
            },
            {
                "deltaTime": 0,
                "channel": 2,
                "type": "channel",
                "noteNumber": 74,
                "velocity": 75,
                "subtype": "noteOn"
            },
            {
                "deltaTime": 0,
                "channel": 2,
                "type": "channel",
                "noteNumber": 78,
                "velocity": 75,
                "subtype": "noteOn"
            },
            {
                "deltaTime": 23,
                "channel": 2,
                "type": "channel",
                "noteNumber": 78,
                "velocity": 0,
                "subtype": "noteOff"
            },
            {
                "deltaTime": 0,
                "channel": 2,
                "type": "channel",
                "noteNumber": 74,
                "velocity": 0,
                "subtype": "noteOff"
            },
            {
                "deltaTime": 0,
                "channel": 2,
                "type": "channel",
                "noteNumber": 68,
                "velocity": 0,
                "subtype": "noteOff"
            },
            {
                "deltaTime": 97,
                "channel": 2,
                "type": "channel",
                "noteNumber": 68,
                "velocity": 75,
                "subtype": "noteOn"
            },
            {
                "deltaTime": 0,
                "channel": 2,
                "type": "channel",
                "noteNumber": 74,
                "velocity": 75,
                "subtype": "noteOn"
            },
            {
                "deltaTime": 0,
                "channel": 2,
                "type": "channel",
                "noteNumber": 78,
                "velocity": 75,
                "subtype": "noteOn"
            },
            {
                "deltaTime": 23,
                "channel": 2,
                "type": "channel",
                "noteNumber": 78,
                "velocity": 0,
                "subtype": "noteOff"
            },
            {
                "deltaTime": 0,
                "channel": 2,
                "type": "channel",
                "noteNumber": 74,
                "velocity": 0,
                "subtype": "noteOff"
            },
            {
                "deltaTime": 0,
                "channel": 2,
                "type": "channel",
                "noteNumber": 68,
                "velocity": 0,
                "subtype": "noteOff"
            },
            {
                "deltaTime": 97,
                "channel": 2,
                "type": "channel",
                "noteNumber": 68,
                "velocity": 75,
                "subtype": "noteOn"
            },
            {
                "deltaTime": 0,
                "channel": 2,
                "type": "channel",
                "noteNumber": 74,
                "velocity": 75,
                "subtype": "noteOn"
            },
            {
                "deltaTime": 0,
                "channel": 2,
                "type": "channel",
                "noteNumber": 78,
                "velocity": 75,
                "subtype": "noteOn"
            },
            {
                "deltaTime": 23,
                "channel": 2,
                "type": "channel",
                "noteNumber": 78,
                "velocity": 0,
                "subtype": "noteOff"
            },
            {
                "deltaTime": 0,
                "channel": 2,
                "type": "channel",
                "noteNumber": 74,
                "velocity": 0,
                "subtype": "noteOff"
            },
            {
                "deltaTime": 0,
                "channel": 2,
                "type": "channel",
                "noteNumber": 68,
                "velocity": 0,
                "subtype": "noteOff"
            },
            {
                "deltaTime": 97,
                "channel": 2,
                "type": "channel",
                "noteNumber": 68,
                "velocity": 75,
                "subtype": "noteOn"
            },
            {
                "deltaTime": 0,
                "channel": 2,
                "type": "channel",
                "noteNumber": 74,
                "velocity": 75,
                "subtype": "noteOn"
            },
            {
                "deltaTime": 0,
                "channel": 2,
                "type": "channel",
                "noteNumber": 78,
                "velocity": 75,
                "subtype": "noteOn"
            },
            {
                "deltaTime": 23,
                "channel": 2,
                "type": "channel",
                "noteNumber": 78,
                "velocity": 0,
                "subtype": "noteOff"
            },
            {
                "deltaTime": 0,
                "channel": 2,
                "type": "channel",
                "noteNumber": 74,
                "velocity": 0,
                "subtype": "noteOff"
            },
            {
                "deltaTime": 0,
                "channel": 2,
                "type": "channel",
                "noteNumber": 68,
                "velocity": 0,
                "subtype": "noteOff"
            },
            {
                "deltaTime": 97,
                "channel": 2,
                "type": "channel",
                "noteNumber": 68,
                "velocity": 75,
                "subtype": "noteOn"
            },
            {
                "deltaTime": 0,
                "channel": 2,
                "type": "channel",
                "noteNumber": 74,
                "velocity": 75,
                "subtype": "noteOn"
            },
            {
                "deltaTime": 0,
                "channel": 2,
                "type": "channel",
                "noteNumber": 78,
                "velocity": 75,
                "subtype": "noteOn"
            },
            {
                "deltaTime": 23,
                "channel": 2,
                "type": "channel",
                "noteNumber": 78,
                "velocity": 0,
                "subtype": "noteOff"
            },
            {
                "deltaTime": 0,
                "channel": 2,
                "type": "channel",
                "noteNumber": 74,
                "velocity": 0,
                "subtype": "noteOff"
            },
            {
                "deltaTime": 0,
                "channel": 2,
                "type": "channel",
                "noteNumber": 68,
                "velocity": 0,
                "subtype": "noteOff"
            },
            {
                "deltaTime": 97,
                "channel": 2,
                "type": "channel",
                "noteNumber": 62,
                "velocity": 62,
                "subtype": "noteOn"
            },
            {
                "deltaTime": 0,
                "channel": 2,
                "type": "channel",
                "noteNumber": 66,
                "velocity": 62,
                "subtype": "noteOn"
            },
            {
                "deltaTime": 0,
                "channel": 2,
                "type": "channel",
                "noteNumber": 68,
                "velocity": 62,
                "subtype": "noteOn"
            },
            {
                "deltaTime": 23,
                "channel": 2,
                "type": "channel",
                "noteNumber": 68,
                "velocity": 0,
                "subtype": "noteOff"
            },
            {
                "deltaTime": 0,
                "channel": 2,
                "type": "channel",
                "noteNumber": 66,
                "velocity": 0,
                "subtype": "noteOff"
            },
            {
                "deltaTime": 0,
                "channel": 2,
                "type": "channel",
                "noteNumber": 62,
                "velocity": 0,
                "subtype": "noteOff"
            },
            {
                "deltaTime": 97,
                "channel": 2,
                "type": "channel",
                "noteNumber": 62,
                "velocity": 62,
                "subtype": "noteOn"
            },
            {
                "deltaTime": 0,
                "channel": 2,
                "type": "channel",
                "noteNumber": 66,
                "velocity": 62,
                "subtype": "noteOn"
            },
            {
                "deltaTime": 0,
                "channel": 2,
                "type": "channel",
                "noteNumber": 68,
                "velocity": 62,
                "subtype": "noteOn"
            },
            {
                "deltaTime": 23,
                "channel": 2,
                "type": "channel",
                "noteNumber": 68,
                "velocity": 0,
                "subtype": "noteOff"
            },
            {
                "deltaTime": 0,
                "channel": 2,
                "type": "channel",
                "noteNumber": 66,
                "velocity": 0,
                "subtype": "noteOff"
            },
            {
                "deltaTime": 0,
                "channel": 2,
                "type": "channel",
                "noteNumber": 62,
                "velocity": 0,
                "subtype": "noteOff"
            },
            {
                "deltaTime": 97,
                "channel": 2,
                "type": "channel",
                "noteNumber": 62,
                "velocity": 62,
                "subtype": "noteOn"
            },
            {
                "deltaTime": 0,
                "channel": 2,
                "type": "channel",
                "noteNumber": 66,
                "velocity": 62,
                "subtype": "noteOn"
            },
            {
                "deltaTime": 0,
                "channel": 2,
                "type": "channel",
                "noteNumber": 68,
                "velocity": 62,
                "subtype": "noteOn"
            },
            {
                "deltaTime": 23,
                "channel": 2,
                "type": "channel",
                "noteNumber": 68,
                "velocity": 0,
                "subtype": "noteOff"
            },
            {
                "deltaTime": 0,
                "channel": 2,
                "type": "channel",
                "noteNumber": 66,
                "velocity": 0,
                "subtype": "noteOff"
            },
            {
                "deltaTime": 0,
                "channel": 2,
                "type": "channel",
                "noteNumber": 62,
                "velocity": 0,
                "subtype": "noteOff"
            },
            {
                "deltaTime": 97,
                "channel": 2,
                "type": "channel",
                "noteNumber": 62,
                "velocity": 62,
                "subtype": "noteOn"
            },
            {
                "deltaTime": 0,
                "channel": 2,
                "type": "channel",
                "noteNumber": 66,
                "velocity": 62,
                "subtype": "noteOn"
            },
            {
                "deltaTime": 0,
                "channel": 2,
                "type": "channel",
                "noteNumber": 68,
                "velocity": 62,
                "subtype": "noteOn"
            },
            {
                "deltaTime": 23,
                "channel": 2,
                "type": "channel",
                "noteNumber": 68,
                "velocity": 0,
                "subtype": "noteOff"
            },
            {
                "deltaTime": 0,
                "channel": 2,
                "type": "channel",
                "noteNumber": 66,
                "velocity": 0,
                "subtype": "noteOff"
            },
            {
                "deltaTime": 0,
                "channel": 2,
                "type": "channel",
                "noteNumber": 62,
                "velocity": 0,
                "subtype": "noteOff"
            },
            {
                "deltaTime": 97,
                "channel": 2,
                "type": "channel",
                "noteNumber": 62,
                "velocity": 62,
                "subtype": "noteOn"
            },
            {
                "deltaTime": 0,
                "channel": 2,
                "type": "channel",
                "noteNumber": 66,
                "velocity": 62,
                "subtype": "noteOn"
            },
            {
                "deltaTime": 0,
                "channel": 2,
                "type": "channel",
                "noteNumber": 68,
                "velocity": 62,
                "subtype": "noteOn"
            },
            {
                "deltaTime": 23,
                "channel": 2,
                "type": "channel",
                "noteNumber": 68,
                "velocity": 0,
                "subtype": "noteOff"
            },
            {
                "deltaTime": 0,
                "channel": 2,
                "type": "channel",
                "noteNumber": 66,
                "velocity": 0,
                "subtype": "noteOff"
            },
            {
                "deltaTime": 0,
                "channel": 2,
                "type": "channel",
                "noteNumber": 62,
                "velocity": 0,
                "subtype": "noteOff"
            },
            {
                "deltaTime": 97,
                "channel": 2,
                "type": "channel",
                "noteNumber": 62,
                "velocity": 62,
                "subtype": "noteOn"
            },
            {
                "deltaTime": 0,
                "channel": 2,
                "type": "channel",
                "noteNumber": 66,
                "velocity": 62,
                "subtype": "noteOn"
            },
            {
                "deltaTime": 0,
                "channel": 2,
                "type": "channel",
                "noteNumber": 68,
                "velocity": 62,
                "subtype": "noteOn"
            },
            {
                "deltaTime": 23,
                "channel": 2,
                "type": "channel",
                "noteNumber": 68,
                "velocity": 0,
                "subtype": "noteOff"
            },
            {
                "deltaTime": 0,
                "channel": 2,
                "type": "channel",
                "noteNumber": 66,
                "velocity": 0,
                "subtype": "noteOff"
            },
            {
                "deltaTime": 0,
                "channel": 2,
                "type": "channel",
                "noteNumber": 62,
                "velocity": 0,
                "subtype": "noteOff"
            },
            {
                "deltaTime": 817,
                "channel": 2,
                "type": "channel",
                "noteNumber": 58,
                "velocity": 62,
                "subtype": "noteOn"
            },
            {
                "deltaTime": 0,
                "channel": 2,
                "type": "channel",
                "noteNumber": 66,
                "velocity": 62,
                "subtype": "noteOn"
            },
            {
                "deltaTime": 0,
                "channel": 2,
                "type": "channel",
                "noteNumber": 68,
                "velocity": 62,
                "subtype": "noteOn"
            },
            {
                "deltaTime": 0,
                "channel": 2,
                "type": "channel",
                "noteNumber": 74,
                "velocity": 62,
                "subtype": "noteOn"
            },
            {
                "deltaTime": 240,
                "channel": 2,
                "type": "channel",
                "noteNumber": 74,
                "velocity": 0,
                "subtype": "noteOff"
            },
            {
                "deltaTime": 0,
                "channel": 2,
                "type": "channel",
                "noteNumber": 58,
                "velocity": 0,
                "subtype": "noteOff"
            },
            {
                "deltaTime": 0,
                "channel": 2,
                "type": "channel",
                "noteNumber": 66,
                "velocity": 0,
                "subtype": "noteOff"
            },
            {
                "deltaTime": 0,
                "channel": 2,
                "type": "channel",
                "noteNumber": 68,
                "velocity": 0,
                "subtype": "noteOff"
            },
            {
                "deltaTime": 12240,
                "channel": 2,
                "type": "channel",
                "noteNumber": 64,
                "velocity": 62,
                "subtype": "noteOn"
            },
            {
                "deltaTime": 240,
                "channel": 2,
                "type": "channel",
                "noteNumber": 64,
                "velocity": 0,
                "subtype": "noteOff"
            },
            {
                "deltaTime": 240,
                "channel": 2,
                "type": "channel",
                "noteNumber": 58,
                "velocity": 62,
                "subtype": "noteOn"
            },
            {
                "deltaTime": 240,
                "channel": 2,
                "type": "channel",
                "noteNumber": 58,
                "velocity": 0,
                "subtype": "noteOff"
            },
            {
                "deltaTime": 480,
                "channel": 2,
                "type": "channel",
                "noteNumber": 64,
                "velocity": 62,
                "subtype": "noteOn"
            },
            {
                "deltaTime": 240,
                "channel": 2,
                "type": "channel",
                "noteNumber": 64,
                "velocity": 0,
                "subtype": "noteOff"
            },
            {
                "deltaTime": 720,
                "channel": 2,
                "type": "channel",
                "noteNumber": 52,
                "velocity": 62,
                "subtype": "noteOn"
            },
            {
                "deltaTime": 240,
                "channel": 2,
                "type": "channel",
                "noteNumber": 52,
                "velocity": 0,
                "subtype": "noteOff"
            },
            {
                "deltaTime": 480,
                "channel": 2,
                "type": "channel",
                "noteNumber": 67,
                "velocity": 62,
                "subtype": "noteOn"
            },
            {
                "deltaTime": 240,
                "channel": 2,
                "type": "channel",
                "noteNumber": 67,
                "velocity": 0,
                "subtype": "noteOff"
            },
            {
                "deltaTime": 240,
                "channel": 2,
                "type": "channel",
                "noteNumber": 61,
                "velocity": 62,
                "subtype": "noteOn"
            },
            {
                "deltaTime": 240,
                "channel": 2,
                "type": "channel",
                "noteNumber": 61,
                "velocity": 0,
                "subtype": "noteOff"
            },
            {
                "deltaTime": 480,
                "channel": 2,
                "type": "channel",
                "noteNumber": 67,
                "velocity": 62,
                "subtype": "noteOn"
            },
            {
                "deltaTime": 240,
                "channel": 2,
                "type": "channel",
                "noteNumber": 67,
                "velocity": 0,
                "subtype": "noteOff"
            },
            {
                "deltaTime": 720,
                "channel": 2,
                "type": "channel",
                "noteNumber": 55,
                "velocity": 62,
                "subtype": "noteOn"
            },
            {
                "deltaTime": 240,
                "channel": 2,
                "type": "channel",
                "noteNumber": 55,
                "velocity": 0,
                "subtype": "noteOff"
            },
            {
                "deltaTime": 240,
                "channel": 2,
                "type": "channel",
                "noteNumber": 55,
                "velocity": 62,
                "subtype": "noteOn"
            },
            {
                "deltaTime": 0,
                "channel": 2,
                "type": "channel",
                "noteNumber": 65,
                "velocity": 62,
                "subtype": "noteOn"
            },
            {
                "deltaTime": 720,
                "channel": 2,
                "type": "channel",
                "noteNumber": 65,
                "velocity": 0,
                "subtype": "noteOff"
            },
            {
                "deltaTime": 0,
                "channel": 2,
                "type": "channel",
                "noteNumber": 55,
                "velocity": 0,
                "subtype": "noteOff"
            },
            {
                "deltaTime": 0,
                "channel": 2,
                "type": "channel",
                "noteNumber": 55,
                "velocity": 62,
                "subtype": "noteOn"
            },
            {
                "deltaTime": 0,
                "channel": 2,
                "type": "channel",
                "noteNumber": 65,
                "velocity": 62,
                "subtype": "noteOn"
            },
            {
                "deltaTime": 0,
                "channel": 2,
                "type": "channel",
                "noteNumber": 71,
                "velocity": 62,
                "subtype": "noteOn"
            },
            {
                "deltaTime": 0,
                "channel": 2,
                "type": "channel",
                "noteNumber": 75,
                "velocity": 62,
                "subtype": "noteOn"
            },
            {
                "deltaTime": 240,
                "channel": 2,
                "type": "channel",
                "noteNumber": 75,
                "velocity": 0,
                "subtype": "noteOff"
            },
            {
                "deltaTime": 0,
                "channel": 2,
                "type": "channel",
                "noteNumber": 55,
                "velocity": 0,
                "subtype": "noteOff"
            },
            {
                "deltaTime": 0,
                "channel": 2,
                "type": "channel",
                "noteNumber": 65,
                "velocity": 0,
                "subtype": "noteOff"
            },
            {
                "deltaTime": 0,
                "channel": 2,
                "type": "channel",
                "noteNumber": 71,
                "velocity": 0,
                "subtype": "noteOff"
            },
            {
                "deltaTime": 480,
                "channel": 2,
                "type": "channel",
                "noteNumber": 55,
                "velocity": 62,
                "subtype": "noteOn"
            },
            {
                "deltaTime": 0,
                "channel": 2,
                "type": "channel",
                "noteNumber": 65,
                "velocity": 62,
                "subtype": "noteOn"
            },
            {
                "deltaTime": 720,
                "channel": 2,
                "type": "channel",
                "noteNumber": 65,
                "velocity": 0,
                "subtype": "noteOff"
            },
            {
                "deltaTime": 0,
                "channel": 2,
                "type": "channel",
                "noteNumber": 55,
                "velocity": 0,
                "subtype": "noteOff"
            },
            {
                "deltaTime": 0,
                "channel": 2,
                "type": "channel",
                "noteNumber": 56,
                "velocity": 62,
                "subtype": "noteOn"
            },
            {
                "deltaTime": 0,
                "channel": 2,
                "type": "channel",
                "noteNumber": 66,
                "velocity": 62,
                "subtype": "noteOn"
            },
            {
                "deltaTime": 0,
                "channel": 2,
                "type": "channel",
                "noteNumber": 72,
                "velocity": 62,
                "subtype": "noteOn"
            },
            {
                "deltaTime": 0,
                "channel": 2,
                "type": "channel",
                "noteNumber": 76,
                "velocity": 62,
                "subtype": "noteOn"
            },
            {
                "deltaTime": 360,
                "channel": 2,
                "type": "channel",
                "noteNumber": 76,
                "velocity": 0,
                "subtype": "noteOff"
            },
            {
                "deltaTime": 0,
                "channel": 2,
                "type": "channel",
                "noteNumber": 56,
                "velocity": 0,
                "subtype": "noteOff"
            },
            {
                "deltaTime": 0,
                "channel": 2,
                "type": "channel",
                "noteNumber": 66,
                "velocity": 0,
                "subtype": "noteOff"
            },
            {
                "deltaTime": 0,
                "channel": 2,
                "type": "channel",
                "noteNumber": 72,
                "velocity": 0,
                "subtype": "noteOff"
            },
            {
                "deltaTime": 0,
                "channel": 2,
                "type": "channel",
                "noteNumber": 56,
                "velocity": 62,
                "subtype": "noteOn"
            },
            {
                "deltaTime": 360,
                "channel": 2,
                "type": "channel",
                "noteNumber": 56,
                "velocity": 0,
                "subtype": "noteOff"
            },
            {
                "deltaTime": 1440,
                "channel": 2,
                "type": "channel",
                "subtype": "controller",
                "controllerType": 64,
                "value": 127
            },
            {
                "deltaTime": 0,
                "channel": 2,
                "type": "channel",
                "noteNumber": 61,
                "velocity": 88,
                "subtype": "noteOn"
            },
            {
                "deltaTime": 0,
                "channel": 2,
                "type": "channel",
                "noteNumber": 65,
                "velocity": 88,
                "subtype": "noteOn"
            },
            {
                "deltaTime": 0,
                "channel": 2,
                "type": "channel",
                "noteNumber": 71,
                "velocity": 88,
                "subtype": "noteOn"
            },
            {
                "deltaTime": 0,
                "channel": 2,
                "type": "channel",
                "noteNumber": 75,
                "velocity": 88,
                "subtype": "noteOn"
            },
            {
                "deltaTime": 47,
                "channel": 2,
                "type": "channel",
                "noteNumber": 75,
                "velocity": 0,
                "subtype": "noteOff"
            },
            {
                "deltaTime": 0,
                "channel": 2,
                "type": "channel",
                "noteNumber": 61,
                "velocity": 0,
                "subtype": "noteOff"
            },
            {
                "deltaTime": 0,
                "channel": 2,
                "type": "channel",
                "noteNumber": 65,
                "velocity": 0,
                "subtype": "noteOff"
            },
            {
                "deltaTime": 0,
                "channel": 2,
                "type": "channel",
                "noteNumber": 71,
                "velocity": 0,
                "subtype": "noteOff"
            },
            {
                "deltaTime": 0,
                "channel": 2,
                "type": "channel",
                "noteNumber": 77,
                "velocity": 88,
                "subtype": "noteOn"
            },
            {
                "deltaTime": 49,
                "channel": 2,
                "type": "channel",
                "noteNumber": 77,
                "velocity": 0,
                "subtype": "noteOff"
            },
            {
                "deltaTime": 0,
                "channel": 2,
                "type": "channel",
                "noteNumber": 81,
                "velocity": 88,
                "subtype": "noteOn"
            },
            {
                "deltaTime": 47,
                "channel": 2,
                "type": "channel",
                "noteNumber": 81,
                "velocity": 0,
                "subtype": "noteOff"
            },
            {
                "deltaTime": 0,
                "channel": 2,
                "type": "channel",
                "noteNumber": 87,
                "velocity": 88,
                "subtype": "noteOn"
            },
            {
                "deltaTime": 49,
                "channel": 2,
                "type": "channel",
                "noteNumber": 87,
                "velocity": 0,
                "subtype": "noteOff"
            },
            {
                "deltaTime": 0,
                "channel": 2,
                "type": "channel",
                "noteNumber": 89,
                "velocity": 88,
                "subtype": "noteOn"
            },
            {
                "deltaTime": 48,
                "channel": 2,
                "type": "channel",
                "noteNumber": 89,
                "velocity": 0,
                "subtype": "noteOff"
            },
            {
                "deltaTime": 0,
                "channel": 2,
                "type": "channel",
                "subtype": "controller",
                "controllerType": 64,
                "value": 0
            },
            {
                "deltaTime": 0,
                "channel": 2,
                "type": "channel",
                "noteNumber": 93,
                "velocity": 88,
                "subtype": "noteOn"
            },
            {
                "deltaTime": 240,
                "channel": 2,
                "type": "channel",
                "noteNumber": 93,
                "velocity": 0,
                "subtype": "noteOff"
            },
            {
                "deltaTime": 0,
                "channel": 2,
                "type": "channel",
                "subtype": "controller",
                "controllerType": 64,
                "value": 127
            },
            {
                "deltaTime": 0,
                "channel": 2,
                "type": "channel",
                "noteNumber": 93,
                "velocity": 88,
                "subtype": "noteOn"
            },
            {
                "deltaTime": 60,
                "channel": 2,
                "type": "channel",
                "noteNumber": 93,
                "velocity": 0,
                "subtype": "noteOff"
            },
            {
                "deltaTime": 0,
                "channel": 2,
                "type": "channel",
                "noteNumber": 89,
                "velocity": 88,
                "subtype": "noteOn"
            },
            {
                "deltaTime": 60,
                "channel": 2,
                "type": "channel",
                "noteNumber": 89,
                "velocity": 0,
                "subtype": "noteOff"
            },
            {
                "deltaTime": 0,
                "channel": 2,
                "type": "channel",
                "noteNumber": 87,
                "velocity": 88,
                "subtype": "noteOn"
            },
            {
                "deltaTime": 60,
                "channel": 2,
                "type": "channel",
                "noteNumber": 87,
                "velocity": 0,
                "subtype": "noteOff"
            },
            {
                "deltaTime": 0,
                "channel": 2,
                "type": "channel",
                "subtype": "controller",
                "controllerType": 64,
                "value": 0
            },
            {
                "deltaTime": 0,
                "channel": 2,
                "type": "channel",
                "noteNumber": 82,
                "velocity": 88,
                "subtype": "noteOn"
            },
            {
                "deltaTime": 60,
                "channel": 2,
                "type": "channel",
                "noteNumber": 82,
                "velocity": 0,
                "subtype": "noteOff"
            },
            {
                "deltaTime": 0,
                "channel": 2,
                "type": "channel",
                "subtype": "controller",
                "controllerType": 64,
                "value": 127
            },
            {
                "deltaTime": 0,
                "channel": 2,
                "type": "channel",
                "noteNumber": 81,
                "velocity": 88,
                "subtype": "noteOn"
            },
            {
                "deltaTime": 0,
                "channel": 2,
                "type": "channel",
                "noteNumber": 93,
                "velocity": 88,
                "subtype": "noteOn"
            },
            {
                "deltaTime": 80,
                "channel": 2,
                "type": "channel",
                "noteNumber": 93,
                "velocity": 0,
                "subtype": "noteOff"
            },
            {
                "deltaTime": 0,
                "channel": 2,
                "type": "channel",
                "noteNumber": 81,
                "velocity": 0,
                "subtype": "noteOff"
            },
            {
                "deltaTime": 0,
                "channel": 2,
                "type": "channel",
                "noteNumber": 89,
                "velocity": 88,
                "subtype": "noteOn"
            },
            {
                "deltaTime": 79,
                "channel": 2,
                "type": "channel",
                "noteNumber": 89,
                "velocity": 0,
                "subtype": "noteOff"
            },
            {
                "deltaTime": 0,
                "channel": 2,
                "type": "channel",
                "noteNumber": 87,
                "velocity": 88,
                "subtype": "noteOn"
            },
            {
                "deltaTime": 81,
                "channel": 2,
                "type": "channel",
                "noteNumber": 87,
                "velocity": 0,
                "subtype": "noteOff"
            },
            {
                "deltaTime": 0,
                "channel": 2,
                "type": "channel",
                "noteNumber": 82,
                "velocity": 88,
                "subtype": "noteOn"
            },
            {
                "deltaTime": 240,
                "channel": 2,
                "type": "channel",
                "noteNumber": 82,
                "velocity": 0,
                "subtype": "noteOff"
            },
            {
                "deltaTime": 0,
                "channel": 2,
                "type": "channel",
                "subtype": "controller",
                "controllerType": 64,
                "value": 0
            },
            {
                "deltaTime": 0,
                "channel": 2,
                "type": "channel",
                "noteNumber": 81,
                "velocity": 88,
                "subtype": "noteOn"
            },
            {
                "deltaTime": 240,
                "channel": 2,
                "type": "channel",
                "noteNumber": 81,
                "velocity": 0,
                "subtype": "noteOff"
            },
            {
                "deltaTime": 0,
                "channel": 2,
                "type": "channel",
                "noteNumber": 61,
                "velocity": 88,
                "subtype": "noteOn"
            },
            {
                "deltaTime": 120,
                "channel": 2,
                "type": "channel",
                "noteNumber": 61,
                "velocity": 0,
                "subtype": "noteOff"
            },
            {
                "deltaTime": 0,
                "channel": 2,
                "type": "channel",
                "noteNumber": 71,
                "velocity": 88,
                "subtype": "noteOn"
            },
            {
                "deltaTime": 120,
                "channel": 2,
                "type": "channel",
                "noteNumber": 71,
                "velocity": 0,
                "subtype": "noteOff"
            },
            {
                "deltaTime": 480,
                "channel": 2,
                "type": "channel",
                "noteNumber": 61,
                "velocity": 88,
                "subtype": "noteOn"
            },
            {
                "deltaTime": 120,
                "channel": 2,
                "type": "channel",
                "noteNumber": 61,
                "velocity": 0,
                "subtype": "noteOff"
            },
            {
                "deltaTime": 0,
                "channel": 2,
                "type": "channel",
                "noteNumber": 71,
                "velocity": 88,
                "subtype": "noteOn"
            },
            {
                "deltaTime": 120,
                "channel": 2,
                "type": "channel",
                "noteNumber": 71,
                "velocity": 0,
                "subtype": "noteOff"
            },
            {
                "deltaTime": 390,
                "channel": 2,
                "type": "channel",
                "noteNumber": 61,
                "velocity": 88,
                "subtype": "noteOn"
            },
            {
                "deltaTime": 30,
                "channel": 2,
                "type": "channel",
                "noteNumber": 65,
                "velocity": 88,
                "subtype": "noteOn"
            },
            {
                "deltaTime": 30,
                "channel": 2,
                "type": "channel",
                "noteNumber": 71,
                "velocity": 88,
                "subtype": "noteOn"
            },
            {
                "deltaTime": 30,
                "channel": 2,
                "type": "channel",
                "noteNumber": 75,
                "velocity": 88,
                "subtype": "noteOn"
            },
            {
                "deltaTime": 480,
                "channel": 2,
                "type": "channel",
                "noteNumber": 75,
                "velocity": 0,
                "subtype": "noteOff"
            },
            {
                "deltaTime": 0,
                "channel": 2,
                "type": "channel",
                "noteNumber": 61,
                "velocity": 0,
                "subtype": "noteOff"
            },
            {
                "deltaTime": 0,
                "channel": 2,
                "type": "channel",
                "noteNumber": 65,
                "velocity": 0,
                "subtype": "noteOff"
            },
            {
                "deltaTime": 0,
                "channel": 2,
                "type": "channel",
                "noteNumber": 71,
                "velocity": 0,
                "subtype": "noteOff"
            },
            {
                "deltaTime": 960,
                "channel": 2,
                "type": "channel",
                "noteNumber": 72,
                "velocity": 88,
                "subtype": "noteOn"
            },
            {
                "deltaTime": 720,
                "channel": 2,
                "type": "channel",
                "noteNumber": 72,
                "velocity": 0,
                "subtype": "noteOff"
            },
            {
                "deltaTime": 0,
                "channel": 2,
                "type": "channel",
                "noteNumber": 71,
                "velocity": 88,
                "subtype": "noteOn"
            },
            {
                "deltaTime": 720,
                "channel": 2,
                "type": "channel",
                "noteNumber": 71,
                "velocity": 0,
                "subtype": "noteOff"
            },
            {
                "deltaTime": 0,
                "type": "meta",
                "subtype": "endOfTrack"
            }
        ],
        [
            {
                "deltaTime": 0,
                "type": "meta",
                "subtype": "unknown",
                "data": "\u0000"
            },
            {
                "deltaTime": 0,
                "type": "meta",
                "subtype": "trackName",
                "text": "Instrument19"
            },
            {
                "deltaTime": 0,
                "channel": 3,
                "type": "channel",
                "subtype": "programChange",
                "programNumber": 0
            },
            {
                "deltaTime": 0,
                "channel": 3,
                "type": "channel",
                "subtype": "controller",
                "controllerType": 7,
                "value": 127
            },
            {
                "deltaTime": 0,
                "channel": 3,
                "type": "channel",
                "subtype": "controller",
                "controllerType": 10,
                "value": 30
            },
            {
                "deltaTime": 11520,
                "channel": 3,
                "type": "channel",
                "noteNumber": 46,
                "velocity": 49,
                "subtype": "noteOn"
            },
            {
                "deltaTime": 0,
                "channel": 3,
                "type": "channel",
                "noteNumber": 56,
                "velocity": 49,
                "subtype": "noteOn"
            },
            {
                "deltaTime": 720,
                "channel": 3,
                "type": "channel",
                "noteNumber": 56,
                "velocity": 0,
                "subtype": "noteOff"
            },
            {
                "deltaTime": 0,
                "channel": 3,
                "type": "channel",
                "noteNumber": 46,
                "velocity": 0,
                "subtype": "noteOff"
            },
            {
                "deltaTime": 0,
                "channel": 3,
                "type": "channel",
                "noteNumber": 62,
                "velocity": 75,
                "subtype": "noteOn"
            },
            {
                "deltaTime": 0,
                "channel": 3,
                "type": "channel",
                "noteNumber": 66,
                "velocity": 75,
                "subtype": "noteOn"
            },
            {
                "deltaTime": 240,
                "channel": 3,
                "type": "channel",
                "noteNumber": 66,
                "velocity": 0,
                "subtype": "noteOff"
            },
            {
                "deltaTime": 0,
                "channel": 3,
                "type": "channel",
                "noteNumber": 62,
                "velocity": 0,
                "subtype": "noteOff"
            },
            {
                "deltaTime": 0,
                "channel": 3,
                "type": "channel",
                "noteNumber": 63,
                "velocity": 49,
                "subtype": "noteOn"
            },
            {
                "deltaTime": 0,
                "channel": 3,
                "type": "channel",
                "noteNumber": 67,
                "velocity": 49,
                "subtype": "noteOn"
            },
            {
                "deltaTime": 480,
                "channel": 3,
                "type": "channel",
                "noteNumber": 67,
                "velocity": 0,
                "subtype": "noteOff"
            },
            {
                "deltaTime": 0,
                "channel": 3,
                "type": "channel",
                "noteNumber": 63,
                "velocity": 0,
                "subtype": "noteOff"
            },
            {
                "deltaTime": 0,
                "channel": 3,
                "type": "channel",
                "noteNumber": 46,
                "velocity": 49,
                "subtype": "noteOn"
            },
            {
                "deltaTime": 60,
                "channel": 3,
                "type": "channel",
                "noteNumber": 46,
                "velocity": 0,
                "subtype": "noteOff"
            },
            {
                "deltaTime": 0,
                "channel": 3,
                "type": "channel",
                "noteNumber": 49,
                "velocity": 49,
                "subtype": "noteOn"
            },
            {
                "deltaTime": 60,
                "channel": 3,
                "type": "channel",
                "noteNumber": 49,
                "velocity": 0,
                "subtype": "noteOff"
            },
            {
                "deltaTime": 0,
                "channel": 3,
                "type": "channel",
                "noteNumber": 46,
                "velocity": 49,
                "subtype": "noteOn"
            },
            {
                "deltaTime": 60,
                "channel": 3,
                "type": "channel",
                "noteNumber": 46,
                "velocity": 0,
                "subtype": "noteOff"
            },
            {
                "deltaTime": 0,
                "channel": 3,
                "type": "channel",
                "noteNumber": 49,
                "velocity": 49,
                "subtype": "noteOn"
            },
            {
                "deltaTime": 60,
                "channel": 3,
                "type": "channel",
                "noteNumber": 49,
                "velocity": 0,
                "subtype": "noteOff"
            },
            {
                "deltaTime": 0,
                "channel": 3,
                "type": "channel",
                "noteNumber": 46,
                "velocity": 49,
                "subtype": "noteOn"
            },
            {
                "deltaTime": 60,
                "channel": 3,
                "type": "channel",
                "noteNumber": 46,
                "velocity": 0,
                "subtype": "noteOff"
            },
            {
                "deltaTime": 0,
                "channel": 3,
                "type": "channel",
                "noteNumber": 49,
                "velocity": 49,
                "subtype": "noteOn"
            },
            {
                "deltaTime": 60,
                "channel": 3,
                "type": "channel",
                "noteNumber": 49,
                "velocity": 0,
                "subtype": "noteOff"
            },
            {
                "deltaTime": 0,
                "channel": 3,
                "type": "channel",
                "noteNumber": 46,
                "velocity": 49,
                "subtype": "noteOn"
            },
            {
                "deltaTime": 60,
                "channel": 3,
                "type": "channel",
                "noteNumber": 46,
                "velocity": 0,
                "subtype": "noteOff"
            },
            {
                "deltaTime": 0,
                "channel": 3,
                "type": "channel",
                "noteNumber": 49,
                "velocity": 49,
                "subtype": "noteOn"
            },
            {
                "deltaTime": 60,
                "channel": 3,
                "type": "channel",
                "noteNumber": 49,
                "velocity": 0,
                "subtype": "noteOff"
            },
            {
                "deltaTime": 0,
                "channel": 3,
                "type": "channel",
                "noteNumber": 46,
                "velocity": 49,
                "subtype": "noteOn"
            },
            {
                "deltaTime": 60,
                "channel": 3,
                "type": "channel",
                "noteNumber": 46,
                "velocity": 0,
                "subtype": "noteOff"
            },
            {
                "deltaTime": 0,
                "channel": 3,
                "type": "channel",
                "noteNumber": 49,
                "velocity": 49,
                "subtype": "noteOn"
            },
            {
                "deltaTime": 60,
                "channel": 3,
                "type": "channel",
                "noteNumber": 49,
                "velocity": 0,
                "subtype": "noteOff"
            },
            {
                "deltaTime": 0,
                "channel": 3,
                "type": "channel",
                "noteNumber": 46,
                "velocity": 49,
                "subtype": "noteOn"
            },
            {
                "deltaTime": 60,
                "channel": 3,
                "type": "channel",
                "noteNumber": 46,
                "velocity": 0,
                "subtype": "noteOff"
            },
            {
                "deltaTime": 0,
                "channel": 3,
                "type": "channel",
                "noteNumber": 49,
                "velocity": 49,
                "subtype": "noteOn"
            },
            {
                "deltaTime": 60,
                "channel": 3,
                "type": "channel",
                "noteNumber": 49,
                "velocity": 0,
                "subtype": "noteOff"
            },
            {
                "deltaTime": 0,
                "channel": 3,
                "type": "channel",
                "noteNumber": 46,
                "velocity": 49,
                "subtype": "noteOn"
            },
            {
                "deltaTime": 240,
                "channel": 3,
                "type": "channel",
                "noteNumber": 46,
                "velocity": 0,
                "subtype": "noteOff"
            },
            {
                "deltaTime": 0,
                "channel": 3,
                "type": "channel",
                "subtype": "controller",
                "controllerType": 64,
                "value": 127
            },
            {
                "deltaTime": 0,
                "channel": 3,
                "type": "channel",
                "noteNumber": 57,
                "velocity": 49,
                "subtype": "noteOn"
            },
            {
                "deltaTime": 80,
                "channel": 3,
                "type": "channel",
                "noteNumber": 57,
                "velocity": 0,
                "subtype": "noteOff"
            },
            {
                "deltaTime": 0,
                "channel": 3,
                "type": "channel",
                "noteNumber": 46,
                "velocity": 49,
                "subtype": "noteOn"
            },
            {
                "deltaTime": 79,
                "channel": 3,
                "type": "channel",
                "noteNumber": 46,
                "velocity": 0,
                "subtype": "noteOff"
            },
            {
                "deltaTime": 0,
                "channel": 3,
                "type": "channel",
                "noteNumber": 57,
                "velocity": 49,
                "subtype": "noteOn"
            },
            {
                "deltaTime": 81,
                "channel": 3,
                "type": "channel",
                "noteNumber": 57,
                "velocity": 0,
                "subtype": "noteOff"
            },
            {
                "deltaTime": 0,
                "channel": 3,
                "type": "channel",
                "subtype": "controller",
                "controllerType": 64,
                "value": 0
            },
            {
                "deltaTime": 240,
                "channel": 3,
                "type": "channel",
                "noteNumber": 47,
                "velocity": 49,
                "subtype": "noteOn"
            },
            {
                "deltaTime": 0,
                "channel": 3,
                "type": "channel",
                "noteNumber": 57,
                "velocity": 49,
                "subtype": "noteOn"
            },
            {
                "deltaTime": 720,
                "channel": 3,
                "type": "channel",
                "noteNumber": 57,
                "velocity": 0,
                "subtype": "noteOff"
            },
            {
                "deltaTime": 0,
                "channel": 3,
                "type": "channel",
                "noteNumber": 47,
                "velocity": 0,
                "subtype": "noteOff"
            },
            {
                "deltaTime": 0,
                "channel": 3,
                "type": "channel",
                "noteNumber": 63,
                "velocity": 75,
                "subtype": "noteOn"
            },
            {
                "deltaTime": 0,
                "channel": 3,
                "type": "channel",
                "noteNumber": 67,
                "velocity": 75,
                "subtype": "noteOn"
            },
            {
                "deltaTime": 240,
                "channel": 3,
                "type": "channel",
                "noteNumber": 67,
                "velocity": 0,
                "subtype": "noteOff"
            },
            {
                "deltaTime": 0,
                "channel": 3,
                "type": "channel",
                "noteNumber": 63,
                "velocity": 0,
                "subtype": "noteOff"
            },
            {
                "deltaTime": 0,
                "channel": 3,
                "type": "channel",
                "noteNumber": 64,
                "velocity": 49,
                "subtype": "noteOn"
            },
            {
                "deltaTime": 0,
                "channel": 3,
                "type": "channel",
                "noteNumber": 68,
                "velocity": 49,
                "subtype": "noteOn"
            },
            {
                "deltaTime": 480,
                "channel": 3,
                "type": "channel",
                "noteNumber": 68,
                "velocity": 0,
                "subtype": "noteOff"
            },
            {
                "deltaTime": 0,
                "channel": 3,
                "type": "channel",
                "noteNumber": 64,
                "velocity": 0,
                "subtype": "noteOff"
            },
            {
                "deltaTime": 0,
                "channel": 3,
                "type": "channel",
                "noteNumber": 48,
                "velocity": 49,
                "subtype": "noteOn"
            },
            {
                "deltaTime": 0,
                "channel": 3,
                "type": "channel",
                "noteNumber": 58,
                "velocity": 49,
                "subtype": "noteOn"
            },
            {
                "deltaTime": 720,
                "channel": 3,
                "type": "channel",
                "noteNumber": 58,
                "velocity": 0,
                "subtype": "noteOff"
            },
            {
                "deltaTime": 0,
                "channel": 3,
                "type": "channel",
                "noteNumber": 48,
                "velocity": 0,
                "subtype": "noteOff"
            },
            {
                "deltaTime": 0,
                "channel": 3,
                "type": "channel",
                "noteNumber": 58,
                "velocity": 49,
                "subtype": "noteOn"
            },
            {
                "deltaTime": 480,
                "channel": 3,
                "type": "channel",
                "noteNumber": 58,
                "velocity": 0,
                "subtype": "noteOff"
            },
            {
                "deltaTime": 0,
                "channel": 3,
                "type": "channel",
                "noteNumber": 59,
                "velocity": 49,
                "subtype": "noteOn"
            },
            {
                "deltaTime": 240,
                "channel": 3,
                "type": "channel",
                "noteNumber": 59,
                "velocity": 0,
                "subtype": "noteOff"
            },
            {
                "deltaTime": 0,
                "channel": 3,
                "type": "channel",
                "noteNumber": 49,
                "velocity": 62,
                "subtype": "noteOn"
            },
            {
                "deltaTime": 0,
                "channel": 3,
                "type": "channel",
                "noteNumber": 59,
                "velocity": 62,
                "subtype": "noteOn"
            },
            {
                "deltaTime": 120,
                "channel": 3,
                "type": "channel",
                "noteNumber": 59,
                "velocity": 0,
                "subtype": "noteOff"
            },
            {
                "deltaTime": 0,
                "channel": 3,
                "type": "channel",
                "noteNumber": 49,
                "velocity": 0,
                "subtype": "noteOff"
            },
            {
                "deltaTime": 2760,
                "channel": 3,
                "type": "channel",
                "noteNumber": 58,
                "velocity": 88,
                "subtype": "noteOn"
            },
            {
                "deltaTime": 240,
                "channel": 3,
                "type": "channel",
                "noteNumber": 58,
                "velocity": 0,
                "subtype": "noteOff"
            },
            {
                "deltaTime": 2640,
                "channel": 3,
                "type": "channel",
                "noteNumber": 58,
                "velocity": 88,
                "subtype": "noteOn"
            },
            {
                "deltaTime": 240,
                "channel": 3,
                "type": "channel",
                "noteNumber": 58,
                "velocity": 0,
                "subtype": "noteOff"
            },
            {
                "deltaTime": 2640,
                "channel": 3,
                "type": "channel",
                "noteNumber": 58,
                "velocity": 88,
                "subtype": "noteOn"
            },
            {
                "deltaTime": 480,
                "channel": 3,
                "type": "channel",
                "noteNumber": 58,
                "velocity": 0,
                "subtype": "noteOff"
            },
            {
                "deltaTime": 960,
                "channel": 3,
                "type": "channel",
                "noteNumber": 58,
                "velocity": 88,
                "subtype": "noteOn"
            },
            {
                "deltaTime": 480,
                "channel": 3,
                "type": "channel",
                "noteNumber": 58,
                "velocity": 0,
                "subtype": "noteOff"
            },
            {
                "deltaTime": 2640,
                "channel": 3,
                "type": "channel",
                "noteNumber": 58,
                "velocity": 62,
                "subtype": "noteOn"
            },
            {
                "deltaTime": 240,
                "channel": 3,
                "type": "channel",
                "noteNumber": 58,
                "velocity": 0,
                "subtype": "noteOff"
            },
            {
                "deltaTime": 240,
                "channel": 3,
                "type": "channel",
                "noteNumber": 52,
                "velocity": 62,
                "subtype": "noteOn"
            },
            {
                "deltaTime": 240,
                "channel": 3,
                "type": "channel",
                "noteNumber": 52,
                "velocity": 0,
                "subtype": "noteOff"
            },
            {
                "deltaTime": 480,
                "channel": 3,
                "type": "channel",
                "noteNumber": 58,
                "velocity": 62,
                "subtype": "noteOn"
            },
            {
                "deltaTime": 240,
                "channel": 3,
                "type": "channel",
                "noteNumber": 58,
                "velocity": 0,
                "subtype": "noteOff"
            },
            {
                "deltaTime": 720,
                "channel": 3,
                "type": "channel",
                "noteNumber": 46,
                "velocity": 62,
                "subtype": "noteOn"
            },
            {
                "deltaTime": 240,
                "channel": 3,
                "type": "channel",
                "noteNumber": 46,
                "velocity": 0,
                "subtype": "noteOff"
            },
            {
                "deltaTime": 480,
                "channel": 3,
                "type": "channel",
                "noteNumber": 40,
                "velocity": 62,
                "subtype": "noteOn"
            },
            {
                "deltaTime": 240,
                "channel": 3,
                "type": "channel",
                "noteNumber": 40,
                "velocity": 0,
                "subtype": "noteOff"
            },
            {
                "deltaTime": 240,
                "channel": 3,
                "type": "channel",
                "noteNumber": 46,
                "velocity": 62,
                "subtype": "noteOn"
            },
            {
                "deltaTime": 240,
                "channel": 3,
                "type": "channel",
                "noteNumber": 46,
                "velocity": 0,
                "subtype": "noteOff"
            },
            {
                "deltaTime": 240,
                "channel": 3,
                "type": "channel",
                "noteNumber": 52,
                "velocity": 62,
                "subtype": "noteOn"
            },
            {
                "deltaTime": 240,
                "channel": 3,
                "type": "channel",
                "noteNumber": 52,
                "velocity": 0,
                "subtype": "noteOff"
            },
            {
                "deltaTime": 0,
                "channel": 3,
                "type": "channel",
                "noteNumber": 58,
                "velocity": 62,
                "subtype": "noteOn"
            },
            {
                "deltaTime": 240,
                "channel": 3,
                "type": "channel",
                "noteNumber": 58,
                "velocity": 0,
                "subtype": "noteOff"
            },
            {
                "deltaTime": 480,
                "channel": 3,
                "type": "channel",
                "noteNumber": 64,
                "velocity": 62,
                "subtype": "noteOn"
            },
            {
                "deltaTime": 240,
                "channel": 3,
                "type": "channel",
                "noteNumber": 64,
                "velocity": 0,
                "subtype": "noteOff"
            },
            {
                "deltaTime": 240,
                "channel": 3,
                "type": "channel",
                "noteNumber": 62,
                "velocity": 62,
                "subtype": "noteOn"
            },
            {
                "deltaTime": 240,
                "channel": 3,
                "type": "channel",
                "noteNumber": 62,
                "velocity": 0,
                "subtype": "noteOff"
            },
            {
                "deltaTime": 240,
                "channel": 3,
                "type": "channel",
                "noteNumber": 61,
                "velocity": 62,
                "subtype": "noteOn"
            },
            {
                "deltaTime": 240,
                "channel": 3,
                "type": "channel",
                "noteNumber": 61,
                "velocity": 0,
                "subtype": "noteOff"
            },
            {
                "deltaTime": 240,
                "channel": 3,
                "type": "channel",
                "noteNumber": 55,
                "velocity": 62,
                "subtype": "noteOn"
            },
            {
                "deltaTime": 240,
                "channel": 3,
                "type": "channel",
                "noteNumber": 55,
                "velocity": 0,
                "subtype": "noteOff"
            },
            {
                "deltaTime": 480,
                "channel": 3,
                "type": "channel",
                "noteNumber": 61,
                "velocity": 62,
                "subtype": "noteOn"
            },
            {
                "deltaTime": 240,
                "channel": 3,
                "type": "channel",
                "noteNumber": 61,
                "velocity": 0,
                "subtype": "noteOff"
            },
            {
                "deltaTime": 720,
                "channel": 3,
                "type": "channel",
                "noteNumber": 49,
                "velocity": 62,
                "subtype": "noteOn"
            },
            {
                "deltaTime": 240,
                "channel": 3,
                "type": "channel",
                "noteNumber": 49,
                "velocity": 0,
                "subtype": "noteOff"
            },
            {
                "deltaTime": 480,
                "channel": 3,
                "type": "channel",
                "noteNumber": 43,
                "velocity": 62,
                "subtype": "noteOn"
            },
            {
                "deltaTime": 240,
                "channel": 3,
                "type": "channel",
                "noteNumber": 43,
                "velocity": 0,
                "subtype": "noteOff"
            },
            {
                "deltaTime": 240,
                "channel": 3,
                "type": "channel",
                "noteNumber": 49,
                "velocity": 62,
                "subtype": "noteOn"
            },
            {
                "deltaTime": 240,
                "channel": 3,
                "type": "channel",
                "noteNumber": 49,
                "velocity": 0,
                "subtype": "noteOff"
            },
            {
                "deltaTime": 240,
                "channel": 3,
                "type": "channel",
                "noteNumber": 55,
                "velocity": 62,
                "subtype": "noteOn"
            },
            {
                "deltaTime": 240,
                "channel": 3,
                "type": "channel",
                "noteNumber": 55,
                "velocity": 0,
                "subtype": "noteOff"
            },
            {
                "deltaTime": 0,
                "channel": 3,
                "type": "channel",
                "noteNumber": 61,
                "velocity": 62,
                "subtype": "noteOn"
            },
            {
                "deltaTime": 240,
                "channel": 3,
                "type": "channel",
                "noteNumber": 61,
                "velocity": 0,
                "subtype": "noteOff"
            },
            {
                "deltaTime": 480,
                "channel": 3,
                "type": "channel",
                "noteNumber": 67,
                "velocity": 62,
                "subtype": "noteOn"
            },
            {
                "deltaTime": 240,
                "channel": 3,
                "type": "channel",
                "noteNumber": 67,
                "velocity": 0,
                "subtype": "noteOff"
            },
            {
                "deltaTime": 240,
                "channel": 3,
                "type": "channel",
                "noteNumber": 65,
                "velocity": 62,
                "subtype": "noteOn"
            },
            {
                "deltaTime": 240,
                "channel": 3,
                "type": "channel",
                "noteNumber": 65,
                "velocity": 0,
                "subtype": "noteOff"
            },
            {
                "deltaTime": 14400,
                "channel": 3,
                "type": "channel",
                "noteNumber": 61,
                "velocity": 62,
                "subtype": "noteOn"
            },
            {
                "deltaTime": 0,
                "channel": 3,
                "type": "channel",
                "noteNumber": 63,
                "velocity": 62,
                "subtype": "noteOn"
            },
            {
                "deltaTime": 0,
                "channel": 3,
                "type": "channel",
                "noteNumber": 66,
                "velocity": 62,
                "subtype": "noteOn"
            },
            {
                "deltaTime": 1440,
                "channel": 3,
                "type": "channel",
                "noteNumber": 66,
                "velocity": 0,
                "subtype": "noteOff"
            },
            {
                "deltaTime": 0,
                "channel": 3,
                "type": "channel",
                "noteNumber": 63,
                "velocity": 0,
                "subtype": "noteOff"
            },
            {
                "deltaTime": 0,
                "channel": 3,
                "type": "channel",
                "noteNumber": 61,
                "velocity": 0,
                "subtype": "noteOff"
            },
            {
                "deltaTime": 0,
                "type": "meta",
                "subtype": "endOfTrack"
            }
        ],
        [
            {
                "deltaTime": 1,
                "type": "meta",
                "subtype": "copyrightNotice",
                "text": "___________________________________________________\n\nKUNSTDERFUGE.COM LARGE CLASSICAL MIDI COLLECTION\nONCLASSICAL BY ALESSANDRO SIMONETTO, PROPRIETOR\n___________________________________________________\n\n! Attention: this file is under copyright !\n\n(c)onclassical, (c)yogore, 2010\n___________________________________________________\n\nNO ONE MAY REPUBLISH THIS FILE WITHOUT PERMISSION\nCOMMERCIAL USES OF THIS FILE IS STRICTLY PROHIBITED\n___________________________________________________\n\nFiles & contributor's list: http://kunstderfuge.com/\nTerms and conditions: http://kunstderfuge.com/notes.htm"
            },
            {
                "deltaTime": 0,
                "type": "meta",
                "subtype": "endOfTrack"
            }
        ]
    ]
}