{
    "header": {
        "PPQ": 480,
        "timeSignature": [
            3,
            8
        ],
        "bpm": 133.50006007502702,
        "name": "Scherzo  in b-moll Opus 31"
    },
    "startTime": 0,
    "duration": 525.8424600000121,
    "tracks": [
        {
            "startTime": 0,
            "duration": 0,
            "length": 0,
            "notes": [],
            "controlChanges": {},
            "id": 0,
            "name": "Scherzo  in b-moll Opus 31"
        },
        {
            "startTime": 0.0009363291666666668,
            "duration": 525.8424600000121,
            "length": 3017,
            "notes": [
                {
                    "name": "A#3",
                    "midi": 58,
                    "time": 0.0009363291666666668,
                    "velocity": 0.3228346456692913,
                    "duration": 0.4494380000000001
                },
                {
                    "name": "A3",
                    "midi": 57,
                    "time": 0.4494380000000001,
                    "velocity": 0.2283464566929134,
                    "duration": 0.07490633333333341
                },
                {
                    "name": "A#3",
                    "midi": 58,
                    "time": 0.5243443333333335,
                    "velocity": 0.2440944881889764,
                    "duration": 0.0749063333333333
                },
                {
                    "name": "C#4",
                    "midi": 61,
                    "time": 0.5992506666666668,
                    "velocity": 0.25984251968503935,
                    "duration": 0.0749063333333333
                },
                {
                    "name": "F4",
                    "midi": 65,
                    "time": 0.6741570000000001,
                    "velocity": 0.29133858267716534,
                    "duration": 0.11235950000000006
                },
                {
                    "name": "A3",
                    "midi": 57,
                    "time": 1.1235950000000003,
                    "velocity": 0.2283464566929134,
                    "duration": 0.0749063333333333
                },
                {
                    "name": "A#3",
                    "midi": 58,
                    "time": 1.1985013333333336,
                    "velocity": 0.2440944881889764,
                    "duration": 0.0749063333333333
                },
                {
                    "name": "C#4",
                    "midi": 61,
                    "time": 1.273407666666667,
                    "velocity": 0.25196850393700787,
                    "duration": 0.0749063333333333
                },
                {
                    "name": "F4",
                    "midi": 65,
                    "time": 1.3483140000000002,
                    "velocity": 0.29133858267716534,
                    "duration": 0.11235949999999995
                },
                {
                    "name": "A#3",
                    "midi": 58,
                    "time": 2.6966280000000005,
                    "velocity": 0.7874015748031497,
                    "duration": 0.11235950000000017
                },
                {
                    "name": "F#6",
                    "midi": 90,
                    "time": 3.3707850000000006,
                    "velocity": 0.7244094488188977,
                    "duration": 1.3483140000000002
                },
                {
                    "name": "A#5",
                    "midi": 82,
                    "time": 3.3707850000000006,
                    "velocity": 0.6141732283464567,
                    "duration": 1.3483140000000002
                },
                {
                    "name": "A#6",
                    "midi": 94,
                    "time": 3.3707850000000006,
                    "velocity": 0.7244094488188977,
                    "duration": 1.3483140000000002
                },
                {
                    "name": "D#5",
                    "midi": 75,
                    "time": 4.719099000000001,
                    "velocity": 0.4015748031496063,
                    "duration": 0.3370784999999996
                },
                {
                    "name": "C6",
                    "midi": 84,
                    "time": 4.719099000000001,
                    "velocity": 0.48031496062992124,
                    "duration": 0.3370784999999996
                },
                {
                    "name": "D#6",
                    "midi": 87,
                    "time": 4.719099000000001,
                    "velocity": 0.48031496062992124,
                    "duration": 0.3370784999999996
                },
                {
                    "name": "C6",
                    "midi": 84,
                    "time": 5.0561775,
                    "velocity": 0.5354330708661418,
                    "duration": 0.11235950000000017
                },
                {
                    "name": "F5",
                    "midi": 77,
                    "time": 5.0561775,
                    "velocity": 0.44881889763779526,
                    "duration": 0.11235950000000017
                },
                {
                    "name": "F6",
                    "midi": 89,
                    "time": 5.0561775,
                    "velocity": 0.5354330708661418,
                    "duration": 0.11235950000000017
                },
                {
                    "name": "F#6",
                    "midi": 90,
                    "time": 5.168537000000001,
                    "velocity": 0.5590551181102362,
                    "duration": 0.22471900000000034
                },
                {
                    "name": "F#5",
                    "midi": 78,
                    "time": 5.168537000000001,
                    "velocity": 0.47244094488188976,
                    "duration": 0.22471900000000034
                },
                {
                    "name": "C6",
                    "midi": 84,
                    "time": 5.168537000000001,
                    "velocity": 0.5590551181102362,
                    "duration": 0.22471900000000034
                },
                {
                    "name": "C#6",
                    "midi": 85,
                    "time": 5.393256000000001,
                    "velocity": 0.5354330708661418,
                    "duration": 0.22471900000000034
                },
                {
                    "name": "F5",
                    "midi": 77,
                    "time": 5.393256000000001,
                    "velocity": 0.44881889763779526,
                    "duration": 0.22471900000000034
                },
                {
                    "name": "F6",
                    "midi": 89,
                    "time": 5.393256000000001,
                    "velocity": 0.5354330708661418,
                    "duration": 0.22471900000000034
                },
                {
                    "name": "A3",
                    "midi": 57,
                    "time": 5.842694000000002,
                    "velocity": 0.2125984251968504,
                    "duration": 0.07490633333333374
                },
                {
                    "name": "A#3",
                    "midi": 58,
                    "time": 5.917600333333335,
                    "velocity": 0.2283464566929134,
                    "duration": 0.07490633333333374
                },
                {
                    "name": "C#4",
                    "midi": 61,
                    "time": 5.992506666666669,
                    "velocity": 0.23622047244094488,
                    "duration": 0.07490633333333374
                },
                {
                    "name": "F4",
                    "midi": 65,
                    "time": 6.067413000000003,
                    "velocity": 0.2755905511811024,
                    "duration": 0.11235950000000017
                },
                {
                    "name": "A3",
                    "midi": 57,
                    "time": 6.516851000000003,
                    "velocity": 0.2125984251968504,
                    "duration": 0.07490633333333374
                },
                {
                    "name": "A#3",
                    "midi": 58,
                    "time": 6.591757333333336,
                    "velocity": 0.2283464566929134,
                    "duration": 0.07490633333333374
                },
                {
                    "name": "C#4",
                    "midi": 61,
                    "time": 6.66666366666667,
                    "velocity": 0.23622047244094488,
                    "duration": 0.07490633333333374
                },
                {
                    "name": "F4",
                    "midi": 65,
                    "time": 6.741570000000004,
                    "velocity": 0.2755905511811024,
                    "duration": 0.11235950000000017
                },
                {
                    "name": "G#3",
                    "midi": 56,
                    "time": 8.089884000000005,
                    "velocity": 0.7874015748031497,
                    "duration": 0.11235950000000017
                },
                {
                    "name": "G#6",
                    "midi": 92,
                    "time": 8.764041000000006,
                    "velocity": 0.7086614173228346,
                    "duration": 1.3483140000000002
                },
                {
                    "name": "F6",
                    "midi": 89,
                    "time": 8.764041000000006,
                    "velocity": 0.7086614173228346,
                    "duration": 1.3483140000000002
                },
                {
                    "name": "G#5",
                    "midi": 80,
                    "time": 8.764041000000006,
                    "velocity": 0.5984251968503937,
                    "duration": 1.3483140000000002
                },
                {
                    "name": "C6",
                    "midi": 84,
                    "time": 10.112355000000006,
                    "velocity": 0.47244094488188976,
                    "duration": 0.3370785000000005
                },
                {
                    "name": "D#5",
                    "midi": 75,
                    "time": 10.112355000000006,
                    "velocity": 0.4015748031496063,
                    "duration": 0.3370785000000005
                },
                {
                    "name": "D#6",
                    "midi": 87,
                    "time": 10.112355000000006,
                    "velocity": 0.47244094488188976,
                    "duration": 0.3370785000000005
                },
                {
                    "name": "C6",
                    "midi": 84,
                    "time": 10.449433500000007,
                    "velocity": 0.5118110236220472,
                    "duration": 0.11235950000000017
                },
                {
                    "name": "F6",
                    "midi": 89,
                    "time": 10.449433500000007,
                    "velocity": 0.5118110236220472,
                    "duration": 0.11235950000000017
                },
                {
                    "name": "F5",
                    "midi": 77,
                    "time": 10.449433500000007,
                    "velocity": 0.4330708661417323,
                    "duration": 0.11235950000000017
                },
                {
                    "name": "C6",
                    "midi": 84,
                    "time": 10.561793000000007,
                    "velocity": 0.5511811023622047,
                    "duration": 0.22471900000000034
                },
                {
                    "name": "F#6",
                    "midi": 90,
                    "time": 10.561793000000007,
                    "velocity": 0.5511811023622047,
                    "duration": 0.22471900000000034
                },
                {
                    "name": "F#5",
                    "midi": 78,
                    "time": 10.561793000000007,
                    "velocity": 0.4645669291338583,
                    "duration": 0.22471900000000034
                },
                {
                    "name": "F5",
                    "midi": 77,
                    "time": 10.786512000000007,
                    "velocity": 0.4409448818897638,
                    "duration": 0.22471900000000034
                },
                {
                    "name": "C#6",
                    "midi": 85,
                    "time": 10.786512000000007,
                    "velocity": 0.5275590551181102,
                    "duration": 0.22471900000000034
                },
                {
                    "name": "F6",
                    "midi": 89,
                    "time": 10.786512000000007,
                    "velocity": 0.5275590551181102,
                    "duration": 0.22471900000000034
                },
                {
                    "name": "F5",
                    "midi": 77,
                    "time": 11.460669000000008,
                    "velocity": 0.6377952755905512,
                    "duration": 0.44943800000000067
                },
                {
                    "name": "A4",
                    "midi": 69,
                    "time": 11.460669000000008,
                    "velocity": 0.6377952755905512,
                    "duration": 0.44943800000000067
                },
                {
                    "name": "A3",
                    "midi": 57,
                    "time": 12.13482600000001,
                    "velocity": 0.6377952755905512,
                    "duration": 0.44943800000000067
                },
                {
                    "name": "F4",
                    "midi": 65,
                    "time": 12.13482600000001,
                    "velocity": 0.6377952755905512,
                    "duration": 0.44943800000000067
                },
                {
                    "name": "A3",
                    "midi": 57,
                    "time": 16.62920600000001,
                    "velocity": 0.2125984251968504,
                    "duration": 0.07490633333333463
                },
                {
                    "name": "A#3",
                    "midi": 58,
                    "time": 16.704112333333345,
                    "velocity": 0.2283464566929134,
                    "duration": 0.07490633333333463
                },
                {
                    "name": "C#4",
                    "midi": 61,
                    "time": 16.77901866666668,
                    "velocity": 0.23622047244094488,
                    "duration": 0.07490633333333463
                },
                {
                    "name": "F4",
                    "midi": 65,
                    "time": 16.853925000000014,
                    "velocity": 0.2677165354330709,
                    "duration": 0.11235950000000017
                },
                {
                    "name": "A3",
                    "midi": 57,
                    "time": 17.303363000000015,
                    "velocity": 0.2283464566929134,
                    "duration": 0.07490633333333463
                },
                {
                    "name": "A#3",
                    "midi": 58,
                    "time": 17.37826933333335,
                    "velocity": 0.23622047244094488,
                    "duration": 0.07490633333333463
                },
                {
                    "name": "C#4",
                    "midi": 61,
                    "time": 17.453175666666684,
                    "velocity": 0.2440944881889764,
                    "duration": 0.07490633333333463
                },
                {
                    "name": "F4",
                    "midi": 65,
                    "time": 17.52808200000002,
                    "velocity": 0.28346456692913385,
                    "duration": 0.11235950000000017
                },
                {
                    "name": "A#3",
                    "midi": 58,
                    "time": 18.87639600000002,
                    "velocity": 0.7874015748031497,
                    "duration": 0.11235950000000017
                },
                {
                    "name": "F#6",
                    "midi": 90,
                    "time": 19.550553000000022,
                    "velocity": 0.7244094488188977,
                    "duration": 1.0112355000000015
                },
                {
                    "name": "A#6",
                    "midi": 94,
                    "time": 19.550553000000022,
                    "velocity": 0.7244094488188977,
                    "duration": 1.0112355000000015
                },
                {
                    "name": "A#5",
                    "midi": 82,
                    "time": 19.550553000000022,
                    "velocity": 0.6141732283464567,
                    "duration": 1.0112355000000015
                },
                {
                    "name": "D#6",
                    "midi": 87,
                    "time": 20.561788500000024,
                    "velocity": 0.4566929133858268,
                    "duration": 0.11235950000000017
                },
                {
                    "name": "C6",
                    "midi": 84,
                    "time": 20.561788500000024,
                    "velocity": 0.4566929133858268,
                    "duration": 0.11235950000000017
                },
                {
                    "name": "D#5",
                    "midi": 75,
                    "time": 20.561788500000024,
                    "velocity": 0.3858267716535433,
                    "duration": 0.11235950000000017
                },
                {
                    "name": "C6",
                    "midi": 84,
                    "time": 20.674148000000024,
                    "velocity": 0.4566929133858268,
                    "duration": 0.22471900000000034
                },
                {
                    "name": "D#5",
                    "midi": 75,
                    "time": 20.674148000000024,
                    "velocity": 0.3858267716535433,
                    "duration": 0.22471900000000034
                },
                {
                    "name": "D#6",
                    "midi": 87,
                    "time": 20.674148000000024,
                    "velocity": 0.4566929133858268,
                    "duration": 0.22471900000000034
                },
                {
                    "name": "D#5",
                    "midi": 75,
                    "time": 20.898867000000024,
                    "velocity": 0.4015748031496063,
                    "duration": 0.3370785000000005
                },
                {
                    "name": "C6",
                    "midi": 84,
                    "time": 20.898867000000024,
                    "velocity": 0.48031496062992124,
                    "duration": 0.3370785000000005
                },
                {
                    "name": "D#6",
                    "midi": 87,
                    "time": 20.898867000000024,
                    "velocity": 0.48031496062992124,
                    "duration": 0.3370785000000005
                },
                {
                    "name": "F6",
                    "midi": 89,
                    "time": 21.235945500000025,
                    "velocity": 0.5354330708661418,
                    "duration": 0.11235950000000017
                },
                {
                    "name": "C6",
                    "midi": 84,
                    "time": 21.235945500000025,
                    "velocity": 0.5354330708661418,
                    "duration": 0.11235950000000017
                },
                {
                    "name": "F5",
                    "midi": 77,
                    "time": 21.235945500000025,
                    "velocity": 0.44881889763779526,
                    "duration": 0.11235950000000017
                },
                {
                    "name": "C6",
                    "midi": 84,
                    "time": 21.348305000000025,
                    "velocity": 0.5590551181102362,
                    "duration": 0.22471900000000034
                },
                {
                    "name": "F#6",
                    "midi": 90,
                    "time": 21.348305000000025,
                    "velocity": 0.5590551181102362,
                    "duration": 0.22471900000000034
                },
                {
                    "name": "F#5",
                    "midi": 78,
                    "time": 21.348305000000025,
                    "velocity": 0.47244094488188976,
                    "duration": 0.22471900000000034
                },
                {
                    "name": "C#6",
                    "midi": 85,
                    "time": 21.573024000000025,
                    "velocity": 0.5354330708661418,
                    "duration": 0.22471900000000034
                },
                {
                    "name": "F6",
                    "midi": 89,
                    "time": 21.573024000000025,
                    "velocity": 0.5354330708661418,
                    "duration": 0.22471900000000034
                },
                {
                    "name": "F5",
                    "midi": 77,
                    "time": 21.573024000000025,
                    "velocity": 0.44881889763779526,
                    "duration": 0.22471900000000034
                },
                {
                    "name": "A3",
                    "midi": 57,
                    "time": 22.022462000000026,
                    "velocity": 0.2283464566929134,
                    "duration": 0.07490633333333463
                },
                {
                    "name": "A#3",
                    "midi": 58,
                    "time": 22.09736833333336,
                    "velocity": 0.23622047244094488,
                    "duration": 0.07490633333333463
                },
                {
                    "name": "C#4",
                    "midi": 61,
                    "time": 22.172274666666695,
                    "velocity": 0.25196850393700787,
                    "duration": 0.07490633333333463
                },
                {
                    "name": "F4",
                    "midi": 65,
                    "time": 22.24718100000003,
                    "velocity": 0.29133858267716534,
                    "duration": 0.11235950000000017
                },
                {
                    "name": "A3",
                    "midi": 57,
                    "time": 22.69661900000003,
                    "velocity": 0.2283464566929134,
                    "duration": 0.07490633333333463
                },
                {
                    "name": "A#3",
                    "midi": 58,
                    "time": 22.771525333333365,
                    "velocity": 0.23622047244094488,
                    "duration": 0.07490633333333463
                },
                {
                    "name": "C#4",
                    "midi": 61,
                    "time": 22.8464316666667,
                    "velocity": 0.25196850393700787,
                    "duration": 0.07490633333333463
                },
                {
                    "name": "F4",
                    "midi": 65,
                    "time": 22.921338000000034,
                    "velocity": 0.29133858267716534,
                    "duration": 0.11235950000000017
                },
                {
                    "name": "C3",
                    "midi": 48,
                    "time": 24.269652000000036,
                    "velocity": 0.7874015748031497,
                    "duration": 0.11235950000000017
                },
                {
                    "name": "C6",
                    "midi": 84,
                    "time": 24.943809000000037,
                    "velocity": 0.5039370078740157,
                    "duration": 1.348314000000002
                },
                {
                    "name": "G#6",
                    "midi": 92,
                    "time": 24.943809000000037,
                    "velocity": 0.7086614173228346,
                    "duration": 1.348314000000002
                },
                {
                    "name": "C7",
                    "midi": 96,
                    "time": 24.943809000000037,
                    "velocity": 0.7086614173228346,
                    "duration": 1.348314000000002
                },
                {
                    "name": "E6",
                    "midi": 88,
                    "time": 26.29212300000004,
                    "velocity": 0.47244094488188976,
                    "duration": 0.3370785000000005
                },
                {
                    "name": "G5",
                    "midi": 79,
                    "time": 26.29212300000004,
                    "velocity": 0.33858267716535434,
                    "duration": 0.3370785000000005
                },
                {
                    "name": "G6",
                    "midi": 91,
                    "time": 26.29212300000004,
                    "velocity": 0.47244094488188976,
                    "duration": 0.3370785000000005
                },
                {
                    "name": "G#5",
                    "midi": 80,
                    "time": 26.62920150000004,
                    "velocity": 0.36220472440944884,
                    "duration": 0.11235950000000017
                },
                {
                    "name": "E6",
                    "midi": 88,
                    "time": 26.62920150000004,
                    "velocity": 0.5118110236220472,
                    "duration": 0.11235950000000017
                },
                {
                    "name": "G#6",
                    "midi": 92,
                    "time": 26.62920150000004,
                    "velocity": 0.5118110236220472,
                    "duration": 0.11235950000000017
                },
                {
                    "name": "E6",
                    "midi": 88,
                    "time": 26.74156100000004,
                    "velocity": 0.5511811023622047,
                    "duration": 0.22471900000000034
                },
                {
                    "name": "A#5",
                    "midi": 82,
                    "time": 26.74156100000004,
                    "velocity": 0.3937007874015748,
                    "duration": 0.22471900000000034
                },
                {
                    "name": "A#6",
                    "midi": 94,
                    "time": 26.74156100000004,
                    "velocity": 0.5511811023622047,
                    "duration": 0.22471900000000034
                },
                {
                    "name": "G#5",
                    "midi": 80,
                    "time": 26.96628000000004,
                    "velocity": 0.3700787401574803,
                    "duration": 0.22471900000000034
                },
                {
                    "name": "G#6",
                    "midi": 92,
                    "time": 26.96628000000004,
                    "velocity": 0.5275590551181102,
                    "duration": 0.22471900000000034
                },
                {
                    "name": "F6",
                    "midi": 89,
                    "time": 26.96628000000004,
                    "velocity": 0.5275590551181102,
                    "duration": 0.22471900000000034
                },
                {
                    "name": "G#5",
                    "midi": 80,
                    "time": 27.64043700000004,
                    "velocity": 0.6377952755905512,
                    "duration": 0.44943800000000067
                },
                {
                    "name": "C5",
                    "midi": 72,
                    "time": 27.64043700000004,
                    "velocity": 0.5354330708661418,
                    "duration": 0.44943800000000067
                },
                {
                    "name": "G#4",
                    "midi": 68,
                    "time": 27.64043700000004,
                    "velocity": 0.5354330708661418,
                    "duration": 0.44943800000000067
                },
                {
                    "name": "F5",
                    "midi": 77,
                    "time": 27.64043700000004,
                    "velocity": 0.6377952755905512,
                    "duration": 0.44943800000000067
                },
                {
                    "name": "G#4",
                    "midi": 68,
                    "time": 28.314594000000042,
                    "velocity": 0.6377952755905512,
                    "duration": 0.44943800000000067
                },
                {
                    "name": "G#3",
                    "midi": 56,
                    "time": 28.314594000000042,
                    "velocity": 0.5354330708661418,
                    "duration": 0.44943800000000067
                },
                {
                    "name": "C4",
                    "midi": 60,
                    "time": 28.314594000000042,
                    "velocity": 0.5354330708661418,
                    "duration": 0.44943800000000067
                },
                {
                    "name": "F4",
                    "midi": 65,
                    "time": 28.314594000000042,
                    "velocity": 0.6377952755905512,
                    "duration": 0.44943800000000067
                },
                {
                    "name": "F7",
                    "midi": 101,
                    "time": 32.35953600000004,
                    "velocity": 0.7637795275590551,
                    "duration": 0.8988760000000013
                },
                {
                    "name": "D#7",
                    "midi": 99,
                    "time": 33.25841200000004,
                    "velocity": 0.5354330708661418,
                    "duration": 0.11235949999999661
                },
                {
                    "name": "C#7",
                    "midi": 97,
                    "time": 33.37077150000004,
                    "velocity": 0.4881889763779528,
                    "duration": 0.11235949999999661
                },
                {
                    "name": "G#6",
                    "midi": 92,
                    "time": 33.483131000000036,
                    "velocity": 0.5118110236220472,
                    "duration": 0.11235949999999661
                },
                {
                    "name": "F6",
                    "midi": 89,
                    "time": 33.59549050000003,
                    "velocity": 0.4645669291338583,
                    "duration": 0.11235949999999661
                },
                {
                    "name": "D#6",
                    "midi": 87,
                    "time": 33.70785000000003,
                    "velocity": 0.4881889763779528,
                    "duration": 0.11235949999999661
                },
                {
                    "name": "C#6",
                    "midi": 85,
                    "time": 33.820209500000026,
                    "velocity": 0.44881889763779526,
                    "duration": 0.11235949999999661
                },
                {
                    "name": "G#5",
                    "midi": 80,
                    "time": 33.93256900000002,
                    "velocity": 0.4566929133858268,
                    "duration": 0.11235949999999661
                },
                {
                    "name": "F5",
                    "midi": 77,
                    "time": 34.04492850000002,
                    "velocity": 0.41732283464566927,
                    "duration": 0.11235949999999661
                },
                {
                    "name": "D#5",
                    "midi": 75,
                    "time": 34.157288000000015,
                    "velocity": 0.4330708661417323,
                    "duration": 0.11235949999999661
                },
                {
                    "name": "C#5",
                    "midi": 73,
                    "time": 34.26964750000001,
                    "velocity": 0.4015748031496063,
                    "duration": 0.11235949999999661
                },
                {
                    "name": "G#4",
                    "midi": 68,
                    "time": 34.38200700000001,
                    "velocity": 0.4094488188976378,
                    "duration": 0.22471900000000034
                },
                {
                    "name": "C5",
                    "midi": 72,
                    "time": 35.05616400000001,
                    "velocity": 0.4330708661417323,
                    "duration": 0.11235949999999661
                },
                {
                    "name": "C#5",
                    "midi": 73,
                    "time": 35.168523500000006,
                    "velocity": 0.4094488188976378,
                    "duration": 0.11235949999999661
                },
                {
                    "name": "D#5",
                    "midi": 75,
                    "time": 35.280883,
                    "velocity": 0.3937007874015748,
                    "duration": 0.11235949999999661
                },
                {
                    "name": "F5",
                    "midi": 77,
                    "time": 35.3932425,
                    "velocity": 0.3700787401574803,
                    "duration": 0.11235949999999661
                },
                {
                    "name": "F#5",
                    "midi": 78,
                    "time": 35.505601999999996,
                    "velocity": 0.3543307086614173,
                    "duration": 0.11235950000000372
                },
                {
                    "name": "G#5",
                    "midi": 80,
                    "time": 35.61140719583333,
                    "velocity": 0.33070866141732286,
                    "duration": 0.11235950000000372
                },
                {
                    "name": "A5",
                    "midi": 81,
                    "time": 35.730321,
                    "velocity": 0.31496062992125984,
                    "duration": 0.11235949999999661
                },
                {
                    "name": "A5",
                    "midi": 81,
                    "time": 36.404478,
                    "velocity": 0.3937007874015748,
                    "duration": 0.11235949999999661
                },
                {
                    "name": "G#5",
                    "midi": 80,
                    "time": 36.516837499999994,
                    "velocity": 0.3858267716535433,
                    "duration": 0.11235949999999661
                },
                {
                    "name": "G5",
                    "midi": 79,
                    "time": 36.62919699999999,
                    "velocity": 0.3700787401574803,
                    "duration": 0.11235949999999661
                },
                {
                    "name": "F#5",
                    "midi": 78,
                    "time": 36.74155649999999,
                    "velocity": 0.36220472440944884,
                    "duration": 0.11235949999999661
                },
                {
                    "name": "F5",
                    "midi": 77,
                    "time": 36.853915999999984,
                    "velocity": 0.3464566929133858,
                    "duration": 0.11235949999999661
                },
                {
                    "name": "E5",
                    "midi": 76,
                    "time": 36.96627549999998,
                    "velocity": 0.33070866141732286,
                    "duration": 0.11235949999999661
                },
                {
                    "name": "D#5",
                    "midi": 75,
                    "time": 37.07863499999998,
                    "velocity": 0.3228346456692913,
                    "duration": 0.11235949999999661
                },
                {
                    "name": "F7",
                    "midi": 101,
                    "time": 37.75279199999997,
                    "velocity": 0.7637795275590551,
                    "duration": 0.8988760000000013
                },
                {
                    "name": "D#7",
                    "midi": 99,
                    "time": 38.65166799999997,
                    "velocity": 0.5354330708661418,
                    "duration": 0.11235949999999661
                },
                {
                    "name": "C#7",
                    "midi": 97,
                    "time": 38.76402749999997,
                    "velocity": 0.47244094488188976,
                    "duration": 0.11235949999999661
                },
                {
                    "name": "G#6",
                    "midi": 92,
                    "time": 38.876386999999966,
                    "velocity": 0.5118110236220472,
                    "duration": 0.11235949999999661
                },
                {
                    "name": "F6",
                    "midi": 89,
                    "time": 38.98874649999996,
                    "velocity": 0.4566929133858268,
                    "duration": 0.11235949999999661
                },
                {
                    "name": "D#6",
                    "midi": 87,
                    "time": 39.10110599999996,
                    "velocity": 0.4881889763779528,
                    "duration": 0.11235949999999661
                },
                {
                    "name": "C#6",
                    "midi": 85,
                    "time": 39.213465499999955,
                    "velocity": 0.44881889763779526,
                    "duration": 0.11235949999999661
                },
                {
                    "name": "G#5",
                    "midi": 80,
                    "time": 39.32582499999995,
                    "velocity": 0.4566929133858268,
                    "duration": 0.11235949999999661
                },
                {
                    "name": "F5",
                    "midi": 77,
                    "time": 39.43818449999995,
                    "velocity": 0.41732283464566927,
                    "duration": 0.11235949999999661
                },
                {
                    "name": "D#5",
                    "midi": 75,
                    "time": 39.550543999999945,
                    "velocity": 0.4330708661417323,
                    "duration": 0.11235949999999661
                },
                {
                    "name": "C#5",
                    "midi": 73,
                    "time": 39.66290349999994,
                    "velocity": 0.3858267716535433,
                    "duration": 0.11235949999999661
                },
                {
                    "name": "G#4",
                    "midi": 68,
                    "time": 39.77526299999994,
                    "velocity": 0.4094488188976378,
                    "duration": 0.22471900000000034
                },
                {
                    "name": "C5",
                    "midi": 72,
                    "time": 40.44941999999994,
                    "velocity": 0.33070866141732286,
                    "duration": 0.11235949999999661
                },
                {
                    "name": "C#5",
                    "midi": 73,
                    "time": 40.561779499999936,
                    "velocity": 0.3228346456692913,
                    "duration": 0.11235949999999661
                },
                {
                    "name": "D#5",
                    "midi": 75,
                    "time": 40.67413899999993,
                    "velocity": 0.3228346456692913,
                    "duration": 0.11235949999999661
                },
                {
                    "name": "F5",
                    "midi": 77,
                    "time": 40.78649849999993,
                    "velocity": 0.31496062992125984,
                    "duration": 0.11235949999999661
                },
                {
                    "name": "F#5",
                    "midi": 78,
                    "time": 40.898857999999926,
                    "velocity": 0.30708661417322836,
                    "duration": 0.11235950000000372
                },
                {
                    "name": "G#5",
                    "midi": 80,
                    "time": 41.00466319583326,
                    "velocity": 0.2992125984251969,
                    "duration": 0.11235950000000372
                },
                {
                    "name": "A5",
                    "midi": 81,
                    "time": 41.12357699999993,
                    "velocity": 0.29133858267716534,
                    "duration": 0.11235949999999661
                },
                {
                    "name": "A5",
                    "midi": 81,
                    "time": 41.79773399999993,
                    "velocity": 0.33070866141732286,
                    "duration": 0.11235949999999661
                },
                {
                    "name": "G#5",
                    "midi": 80,
                    "time": 41.910093499999924,
                    "velocity": 0.3228346456692913,
                    "duration": 0.11235949999999661
                },
                {
                    "name": "G5",
                    "midi": 79,
                    "time": 42.02245299999992,
                    "velocity": 0.31496062992125984,
                    "duration": 0.11235949999999661
                },
                {
                    "name": "F#5",
                    "midi": 78,
                    "time": 42.13481249999992,
                    "velocity": 0.30708661417322836,
                    "duration": 0.11235949999999661
                },
                {
                    "name": "F5",
                    "midi": 77,
                    "time": 42.247171999999914,
                    "velocity": 0.29133858267716534,
                    "duration": 0.11235949999999661
                },
                {
                    "name": "E5",
                    "midi": 76,
                    "time": 42.35953149999991,
                    "velocity": 0.28346456692913385,
                    "duration": 0.11235949999999661
                },
                {
                    "name": "D#5",
                    "midi": 75,
                    "time": 42.47189099999991,
                    "velocity": 0.2755905511811024,
                    "duration": 0.11235949999999661
                },
                {
                    "name": "B4",
                    "midi": 71,
                    "time": 43.1460479999999,
                    "velocity": 0.2992125984251969,
                    "duration": 1.348313999999995
                },
                {
                    "name": "F5",
                    "midi": 77,
                    "time": 43.1460479999999,
                    "velocity": 0.4645669291338583,
                    "duration": 0.8988760000000013
                },
                {
                    "name": "D#5",
                    "midi": 75,
                    "time": 44.0449239999999,
                    "velocity": 0.41732283464566927,
                    "duration": 0.33707849999999695
                },
                {
                    "name": "C#5",
                    "midi": 73,
                    "time": 44.3820024999999,
                    "velocity": 0.4094488188976378,
                    "duration": 0.10299620833333023
                },
                {
                    "name": "B4",
                    "midi": 71,
                    "time": 44.494361999999896,
                    "velocity": 0.2992125984251969,
                    "duration": 0.674157000000001
                },
                {
                    "name": "C#5",
                    "midi": 73,
                    "time": 44.494361999999896,
                    "velocity": 0.4251968503937008,
                    "duration": 0.674157000000001
                },
                {
                    "name": "A#4",
                    "midi": 70,
                    "time": 45.1685189999999,
                    "velocity": 0.4409448818897638,
                    "duration": 0.674157000000001
                },
                {
                    "name": "F#5",
                    "midi": 78,
                    "time": 45.1685189999999,
                    "velocity": 0.4409448818897638,
                    "duration": 1.1235950000000017
                },
                {
                    "name": "B4",
                    "midi": 71,
                    "time": 45.8426759999999,
                    "velocity": 0.3937007874015748,
                    "duration": 1.348314000000002
                },
                {
                    "name": "F5",
                    "midi": 77,
                    "time": 46.2921139999999,
                    "velocity": 0.4094488188976378,
                    "duration": 0.21535570833333395
                },
                {
                    "name": "F5",
                    "midi": 77,
                    "time": 46.5168329999999,
                    "velocity": 0.4015748031496063,
                    "duration": 0.22471900000000034
                },
                {
                    "name": "D#5",
                    "midi": 75,
                    "time": 46.7415519999999,
                    "velocity": 0.3937007874015748,
                    "duration": 0.22471900000000034
                },
                {
                    "name": "C#5",
                    "midi": 73,
                    "time": 46.9662709999999,
                    "velocity": 0.3858267716535433,
                    "duration": 0.22471900000000034
                },
                {
                    "name": "A#4",
                    "midi": 70,
                    "time": 47.1909899999999,
                    "velocity": 0.3464566929133858,
                    "duration": 0.674157000000001
                },
                {
                    "name": "C#5",
                    "midi": 73,
                    "time": 47.1909899999999,
                    "velocity": 0.3464566929133858,
                    "duration": 0.674157000000001
                },
                {
                    "name": "A#5",
                    "midi": 82,
                    "time": 47.1909899999999,
                    "velocity": 0.4409448818897638,
                    "duration": 0.674157000000001
                },
                {
                    "name": "G#4",
                    "midi": 68,
                    "time": 47.8651469999999,
                    "velocity": 0.3464566929133858,
                    "duration": 0.6741570000000081
                },
                {
                    "name": "C#5",
                    "midi": 73,
                    "time": 47.8651469999999,
                    "velocity": 0.3464566929133858,
                    "duration": 0.6741570000000081
                },
                {
                    "name": "A#5",
                    "midi": 82,
                    "time": 47.8651469999999,
                    "velocity": 0.4881889763779528,
                    "duration": 0.44943800000000067
                },
                {
                    "name": "A#5",
                    "midi": 82,
                    "time": 48.3145849999999,
                    "velocity": 0.5039370078740157,
                    "duration": 0.21629203750000414
                },
                {
                    "name": "G4",
                    "midi": 67,
                    "time": 48.483124249999904,
                    "velocity": 0.3464566929133858,
                    "duration": 0.05617975000000541
                },
                {
                    "name": "C#5",
                    "midi": 73,
                    "time": 48.53930399999991,
                    "velocity": 0.3543307086614173,
                    "duration": 1.348313999999995
                },
                {
                    "name": "A#5",
                    "midi": 82,
                    "time": 48.53930399999991,
                    "velocity": 0.5354330708661418,
                    "duration": 0.44943800000000067
                },
                {
                    "name": "D#5",
                    "midi": 75,
                    "time": 48.98874199999991,
                    "velocity": 0.44881889763779526,
                    "duration": 0.22471900000000034
                },
                {
                    "name": "D#5",
                    "midi": 75,
                    "time": 49.21346099999991,
                    "velocity": 0.44881889763779526,
                    "duration": 0.22471900000000034
                },
                {
                    "name": "F5",
                    "midi": 77,
                    "time": 49.43817999999991,
                    "velocity": 0.4015748031496063,
                    "duration": 0.05617974999999831
                },
                {
                    "name": "G5",
                    "midi": 79,
                    "time": 49.49435974999991,
                    "velocity": 0.4015748031496063,
                    "duration": 0.05617974999999831
                },
                {
                    "name": "F5",
                    "midi": 77,
                    "time": 49.55053949999991,
                    "velocity": 0.4409448818897638,
                    "duration": 0.22471900000000034
                },
                {
                    "name": "D#5",
                    "midi": 75,
                    "time": 49.77525849999991,
                    "velocity": 0.4409448818897638,
                    "duration": 0.10299620833333023
                },
                {
                    "name": "C#5",
                    "midi": 73,
                    "time": 49.887617999999904,
                    "velocity": 0.3858267716535433,
                    "duration": 0.674157000000001
                },
                {
                    "name": "D#5",
                    "midi": 75,
                    "time": 49.887617999999904,
                    "velocity": 0.4645669291338583,
                    "duration": 0.674157000000001
                },
                {
                    "name": "C5",
                    "midi": 72,
                    "time": 50.561774999999905,
                    "velocity": 0.41732283464566927,
                    "duration": 0.674157000000001
                },
                {
                    "name": "G#5",
                    "midi": 80,
                    "time": 50.561774999999905,
                    "velocity": 0.5039370078740157,
                    "duration": 0.8988760000000013
                },
                {
                    "name": "C#5",
                    "midi": 73,
                    "time": 51.235931999999906,
                    "velocity": 0.4330708661417323,
                    "duration": 1.348313999999995
                },
                {
                    "name": "G5",
                    "midi": 79,
                    "time": 51.460650999999906,
                    "velocity": 0.47244094488188976,
                    "duration": 0.22471900000000034
                },
                {
                    "name": "F5",
                    "midi": 77,
                    "time": 51.68536999999991,
                    "velocity": 0.4645669291338583,
                    "duration": 0.22471900000000034
                },
                {
                    "name": "G5",
                    "midi": 79,
                    "time": 51.91008899999991,
                    "velocity": 0.47244094488188976,
                    "duration": 0.22471900000000034
                },
                {
                    "name": "F5",
                    "midi": 77,
                    "time": 52.13480799999991,
                    "velocity": 0.4645669291338583,
                    "duration": 0.33707849999999695
                },
                {
                    "name": "D#5",
                    "midi": 75,
                    "time": 52.471886499999904,
                    "velocity": 0.4409448818897638,
                    "duration": 0.11235949999999661
                },
                {
                    "name": "C5",
                    "midi": 72,
                    "time": 52.5842459999999,
                    "velocity": 0.4409448818897638,
                    "duration": 1.348314000000002
                },
                {
                    "name": "C6",
                    "midi": 84,
                    "time": 52.5842459999999,
                    "velocity": 0.4409448818897638,
                    "duration": 0.674157000000001
                },
                {
                    "name": "C6",
                    "midi": 84,
                    "time": 53.2584029999999,
                    "velocity": 0.5039370078740157,
                    "duration": 0.44943800000000067
                },
                {
                    "name": "C6",
                    "midi": 84,
                    "time": 53.7078409999999,
                    "velocity": 0.49606299212598426,
                    "duration": 0.21535570833333395
                },
                {
                    "name": "C6",
                    "midi": 84,
                    "time": 53.9325599999999,
                    "velocity": 0.5354330708661418,
                    "duration": 0.8988760000000013
                },
                {
                    "name": "A#5",
                    "midi": 82,
                    "time": 54.831435999999904,
                    "velocity": 0.49606299212598426,
                    "duration": 0.33707849999999695
                },
                {
                    "name": "G#5",
                    "midi": 80,
                    "time": 55.1685144999999,
                    "velocity": 0.49606299212598426,
                    "duration": 0.10299620833333023
                },
                {
                    "name": "G#5",
                    "midi": 80,
                    "time": 55.2808739999999,
                    "velocity": 0.49606299212598426,
                    "duration": 0.674157000000001
                },
                {
                    "name": "C#6",
                    "midi": 85,
                    "time": 55.9550309999999,
                    "velocity": 0.5905511811023622,
                    "duration": 0.674157000000001
                },
                {
                    "name": "C#6",
                    "midi": 85,
                    "time": 56.6291879999999,
                    "velocity": 0.6456692913385826,
                    "duration": 0.44943800000000067
                },
                {
                    "name": "C6",
                    "midi": 84,
                    "time": 57.0786259999999,
                    "velocity": 0.6141732283464567,
                    "duration": 0.22471900000000034
                },
                {
                    "name": "C6",
                    "midi": 84,
                    "time": 57.3033449999999,
                    "velocity": 0.5905511811023622,
                    "duration": 0.22471900000000034
                },
                {
                    "name": "A#5",
                    "midi": 82,
                    "time": 57.5280639999999,
                    "velocity": 0.5590551181102362,
                    "duration": 0.33707849999999695
                },
                {
                    "name": "G#5",
                    "midi": 80,
                    "time": 57.8651424999999,
                    "velocity": 0.49606299212598426,
                    "duration": 0.11235949999999661
                },
                {
                    "name": "F6",
                    "midi": 89,
                    "time": 57.977501999999895,
                    "velocity": 0.6299212598425197,
                    "duration": 0.674157000000001
                },
                {
                    "name": "F6",
                    "midi": 89,
                    "time": 58.651658999999896,
                    "velocity": 0.6062992125984252,
                    "duration": 0.44943800000000067
                },
                {
                    "name": "F6",
                    "midi": 89,
                    "time": 59.101096999999896,
                    "velocity": 0.6377952755905512,
                    "duration": 0.21535570833333395
                },
                {
                    "name": "F6",
                    "midi": 89,
                    "time": 59.3258159999999,
                    "velocity": 0.6692913385826772,
                    "duration": 0.674157000000001
                },
                {
                    "name": "D#6",
                    "midi": 87,
                    "time": 59.9999729999999,
                    "velocity": 0.5669291338582677,
                    "duration": 0.22471900000000034
                },
                {
                    "name": "C#6",
                    "midi": 85,
                    "time": 60.2246919999999,
                    "velocity": 0.5590551181102362,
                    "duration": 0.22471900000000034
                },
                {
                    "name": "A#5",
                    "midi": 82,
                    "time": 60.4494109999999,
                    "velocity": 0.5511811023622047,
                    "duration": 0.22471900000000034
                },
                {
                    "name": "C6",
                    "midi": 84,
                    "time": 60.6741299999999,
                    "velocity": 0.5905511811023622,
                    "duration": 0.674157000000001
                },
                {
                    "name": "A#5",
                    "midi": 82,
                    "time": 61.3482869999999,
                    "velocity": 0.5590551181102362,
                    "duration": 0.22471900000000034
                },
                {
                    "name": "G#5",
                    "midi": 80,
                    "time": 61.5730059999999,
                    "velocity": 0.5354330708661418,
                    "duration": 0.22471900000000034
                },
                {
                    "name": "F5",
                    "midi": 77,
                    "time": 61.7977249999999,
                    "velocity": 0.49606299212598426,
                    "duration": 0.22471900000000034
                },
                {
                    "name": "A#5",
                    "midi": 82,
                    "time": 62.0224439999999,
                    "velocity": 0.5433070866141733,
                    "duration": 0.22471900000000034
                },
                {
                    "name": "G#5",
                    "midi": 80,
                    "time": 62.2471629999999,
                    "velocity": 0.5039370078740157,
                    "duration": 0.22471900000000034
                },
                {
                    "name": "F#5",
                    "midi": 78,
                    "time": 62.4718819999999,
                    "velocity": 0.48031496062992124,
                    "duration": 0.22471900000000034
                },
                {
                    "name": "F#5",
                    "midi": 78,
                    "time": 62.6966009999999,
                    "velocity": 0.4330708661417323,
                    "duration": 0.05617974999999831
                },
                {
                    "name": "G#5",
                    "midi": 80,
                    "time": 62.7527807499999,
                    "velocity": 0.4330708661417323,
                    "duration": 0.05617974999999831
                },
                {
                    "name": "F#5",
                    "midi": 78,
                    "time": 62.8089604999999,
                    "velocity": 0.49606299212598426,
                    "duration": 0.11235949999999661
                },
                {
                    "name": "F5",
                    "midi": 77,
                    "time": 62.921319999999895,
                    "velocity": 0.4566929133858268,
                    "duration": 0.33707849999999695
                },
                {
                    "name": "E5",
                    "midi": 76,
                    "time": 63.25839849999989,
                    "velocity": 0.4645669291338583,
                    "duration": 0.10299620833333023
                },
                {
                    "name": "E5",
                    "midi": 76,
                    "time": 63.37075799999989,
                    "velocity": 0.4645669291338583,
                    "duration": 0.674157000000001
                },
                {
                    "name": "F5",
                    "midi": 77,
                    "time": 64.04491499999989,
                    "velocity": 0.49606299212598426,
                    "duration": 0.44943800000000067
                },
                {
                    "name": "G#5",
                    "midi": 80,
                    "time": 64.49435299999989,
                    "velocity": 0.44881889763779526,
                    "duration": 0.22471899999999323
                },
                {
                    "name": "G#4",
                    "midi": 68,
                    "time": 64.71907199999988,
                    "velocity": 0.44881889763779526,
                    "duration": 0.44943800000000067
                },
                {
                    "name": "G#5",
                    "midi": 80,
                    "time": 64.77525174999988,
                    "velocity": 0.44881889763779526,
                    "duration": 0.6179772499999956
                },
                {
                    "name": "C5",
                    "midi": 72,
                    "time": 65.16850999999988,
                    "velocity": 0.49606299212598426,
                    "duration": 0.44943799999998646
                },
                {
                    "name": "C6",
                    "midi": 84,
                    "time": 65.39322899999988,
                    "velocity": 0.49606299212598426,
                    "duration": 0.22471899999999323
                },
                {
                    "name": "A#4",
                    "midi": 70,
                    "time": 65.61794799999987,
                    "velocity": 0.49606299212598426,
                    "duration": 0.33707850000000406
                },
                {
                    "name": "A#5",
                    "midi": 82,
                    "time": 65.61794799999987,
                    "velocity": 0.49606299212598426,
                    "duration": 0.33707850000000406
                },
                {
                    "name": "G#4",
                    "midi": 68,
                    "time": 65.95502649999987,
                    "velocity": 0.49606299212598426,
                    "duration": 0.10299620833333734
                },
                {
                    "name": "G#5",
                    "midi": 80,
                    "time": 65.95502649999987,
                    "velocity": 0.49606299212598426,
                    "duration": 0.10299620833333734
                },
                {
                    "name": "G#4",
                    "midi": 68,
                    "time": 66.06738599999989,
                    "velocity": 0.49606299212598426,
                    "duration": 0.6741569999999939
                },
                {
                    "name": "G#5",
                    "midi": 80,
                    "time": 66.06738599999989,
                    "velocity": 0.49606299212598426,
                    "duration": 1.3483139999999878
                },
                {
                    "name": "C#5",
                    "midi": 73,
                    "time": 66.74154299999988,
                    "velocity": 0.5905511811023622,
                    "duration": 0.6741569999999939
                },
                {
                    "name": "C#6",
                    "midi": 85,
                    "time": 66.74154299999988,
                    "velocity": 0.5905511811023622,
                    "duration": 0.6741569999999939
                },
                {
                    "name": "G#5",
                    "midi": 80,
                    "time": 67.41569999999987,
                    "velocity": 0.47244094488188976,
                    "duration": 1.011235499999998
                },
                {
                    "name": "C#5",
                    "midi": 73,
                    "time": 67.41569999999987,
                    "velocity": 0.5905511811023622,
                    "duration": 0.44943800000000067
                },
                {
                    "name": "C#6",
                    "midi": 85,
                    "time": 67.41569999999987,
                    "velocity": 0.5905511811023622,
                    "duration": 0.44943800000000067
                },
                {
                    "name": "C5",
                    "midi": 72,
                    "time": 67.86513799999987,
                    "velocity": 0.6141732283464567,
                    "duration": 0.22471899999999323
                },
                {
                    "name": "C6",
                    "midi": 84,
                    "time": 67.86513799999987,
                    "velocity": 0.6141732283464567,
                    "duration": 0.22471899999999323
                },
                {
                    "name": "C5",
                    "midi": 72,
                    "time": 68.08985699999987,
                    "velocity": 0.5905511811023622,
                    "duration": 0.33707850000000406
                },
                {
                    "name": "C6",
                    "midi": 84,
                    "time": 68.08985699999987,
                    "velocity": 0.5905511811023622,
                    "duration": 0.33707850000000406
                },
                {
                    "name": "A#4",
                    "midi": 70,
                    "time": 68.42693549999987,
                    "velocity": 0.5590551181102362,
                    "duration": 0.11235949999999661
                },
                {
                    "name": "A#5",
                    "midi": 82,
                    "time": 68.42693549999987,
                    "velocity": 0.5590551181102362,
                    "duration": 0.11235949999999661
                },
                {
                    "name": "G#4",
                    "midi": 68,
                    "time": 68.53929499999987,
                    "velocity": 0.49606299212598426,
                    "duration": 0.22471899999999323
                },
                {
                    "name": "G#5",
                    "midi": 80,
                    "time": 68.53929499999987,
                    "velocity": 0.49606299212598426,
                    "duration": 0.22471899999999323
                },
                {
                    "name": "G#5",
                    "midi": 80,
                    "time": 68.76401399999986,
                    "velocity": 0.6299212598425197,
                    "duration": 0.6741569999999939
                },
                {
                    "name": "F5",
                    "midi": 77,
                    "time": 68.76401399999986,
                    "velocity": 0.5354330708661418,
                    "duration": 0.6741569999999939
                },
                {
                    "name": "F6",
                    "midi": 89,
                    "time": 68.76401399999986,
                    "velocity": 0.6299212598425197,
                    "duration": 0.6741569999999939
                },
                {
                    "name": "F5",
                    "midi": 77,
                    "time": 69.43817099999985,
                    "velocity": 0.5118110236220472,
                    "duration": 0.44943800000000067
                },
                {
                    "name": "G#5",
                    "midi": 80,
                    "time": 69.43817099999985,
                    "velocity": 0.6062992125984252,
                    "duration": 0.44943800000000067
                },
                {
                    "name": "F6",
                    "midi": 89,
                    "time": 69.43817099999985,
                    "velocity": 0.6062992125984252,
                    "duration": 0.44943800000000067
                },
                {
                    "name": "F5",
                    "midi": 77,
                    "time": 69.88760899999986,
                    "velocity": 0.4881889763779528,
                    "duration": 0.21535570833333395
                },
                {
                    "name": "G#5",
                    "midi": 80,
                    "time": 69.88760899999986,
                    "velocity": 0.5826771653543307,
                    "duration": 0.21535570833333395
                },
                {
                    "name": "F6",
                    "midi": 89,
                    "time": 69.88760899999986,
                    "velocity": 0.5826771653543307,
                    "duration": 0.21535570833333395
                },
                {
                    "name": "F5",
                    "midi": 77,
                    "time": 70.11232799999986,
                    "velocity": 0.5433070866141733,
                    "duration": 0.6741569999999939
                },
                {
                    "name": "G#5",
                    "midi": 80,
                    "time": 70.11232799999986,
                    "velocity": 0.6456692913385826,
                    "duration": 0.6741569999999939
                },
                {
                    "name": "F6",
                    "midi": 89,
                    "time": 70.11232799999986,
                    "velocity": 0.6456692913385826,
                    "duration": 0.6741569999999939
                },
                {
                    "name": "F#5",
                    "midi": 78,
                    "time": 70.78648499999986,
                    "velocity": 0.5275590551181102,
                    "duration": 0.22471899999999323
                },
                {
                    "name": "D#5",
                    "midi": 75,
                    "time": 70.78648499999986,
                    "velocity": 0.4409448818897638,
                    "duration": 0.22471899999999323
                },
                {
                    "name": "D#6",
                    "midi": 87,
                    "time": 70.78648499999986,
                    "velocity": 0.5275590551181102,
                    "duration": 0.22471899999999323
                },
                {
                    "name": "C#5",
                    "midi": 73,
                    "time": 71.01120399999985,
                    "velocity": 0.4330708661417323,
                    "duration": 0.33707850000000406
                },
                {
                    "name": "F#5",
                    "midi": 78,
                    "time": 71.01120399999985,
                    "velocity": 0.5118110236220472,
                    "duration": 0.33707850000000406
                },
                {
                    "name": "C#6",
                    "midi": 85,
                    "time": 71.01120399999985,
                    "velocity": 0.5118110236220472,
                    "duration": 0.33707850000000406
                },
                {
                    "name": "A#4",
                    "midi": 70,
                    "time": 71.34828249999985,
                    "velocity": 0.4251968503937008,
                    "duration": 0.11235949999999661
                },
                {
                    "name": "F#5",
                    "midi": 78,
                    "time": 71.34828249999985,
                    "velocity": 0.5039370078740157,
                    "duration": 0.11235949999999661
                },
                {
                    "name": "A#5",
                    "midi": 82,
                    "time": 71.34828249999985,
                    "velocity": 0.5039370078740157,
                    "duration": 0.11235949999999661
                },
                {
                    "name": "C5",
                    "midi": 72,
                    "time": 71.46064199999985,
                    "velocity": 0.4094488188976378,
                    "duration": 0.6741569999999939
                },
                {
                    "name": "G#5",
                    "midi": 80,
                    "time": 71.46064199999985,
                    "velocity": 0.4881889763779528,
                    "duration": 0.6741569999999939
                },
                {
                    "name": "C6",
                    "midi": 84,
                    "time": 71.46064199999985,
                    "velocity": 0.4881889763779528,
                    "duration": 0.6741569999999939
                },
                {
                    "name": "A#4",
                    "midi": 70,
                    "time": 72.13479899999984,
                    "velocity": 0.4251968503937008,
                    "duration": 0.22471899999999323
                },
                {
                    "name": "F#5",
                    "midi": 78,
                    "time": 72.13479899999984,
                    "velocity": 0.5039370078740157,
                    "duration": 0.22471899999999323
                },
                {
                    "name": "A#5",
                    "midi": 82,
                    "time": 72.13479899999984,
                    "velocity": 0.5039370078740157,
                    "duration": 0.22471899999999323
                },
                {
                    "name": "G#4",
                    "midi": 68,
                    "time": 72.35951799999984,
                    "velocity": 0.44881889763779526,
                    "duration": 0.22471899999999323
                },
                {
                    "name": "F5",
                    "midi": 77,
                    "time": 72.35951799999984,
                    "velocity": 0.5354330708661418,
                    "duration": 0.22471899999999323
                },
                {
                    "name": "G#5",
                    "midi": 80,
                    "time": 72.35951799999984,
                    "velocity": 0.5354330708661418,
                    "duration": 0.22471899999999323
                },
                {
                    "name": "A#4",
                    "midi": 70,
                    "time": 72.58423699999983,
                    "velocity": 0.48031496062992124,
                    "duration": 0.22471899999999323
                },
                {
                    "name": "F5",
                    "midi": 77,
                    "time": 72.58423699999983,
                    "velocity": 0.5669291338582677,
                    "duration": 0.22471899999999323
                },
                {
                    "name": "A#5",
                    "midi": 82,
                    "time": 72.58423699999983,
                    "velocity": 0.5669291338582677,
                    "duration": 0.22471899999999323
                },
                {
                    "name": "F5",
                    "midi": 77,
                    "time": 72.80895599999982,
                    "velocity": 0.6062992125984252,
                    "duration": 0.44943800000000067
                },
                {
                    "name": "B4",
                    "midi": 71,
                    "time": 72.80895599999982,
                    "velocity": 0.5118110236220472,
                    "duration": 0.44943800000000067
                },
                {
                    "name": "B5",
                    "midi": 83,
                    "time": 72.80895599999982,
                    "velocity": 0.6062992125984252,
                    "duration": 0.44943800000000067
                },
                {
                    "name": "F5",
                    "midi": 77,
                    "time": 73.25839399999983,
                    "velocity": 0.5905511811023622,
                    "duration": 0.22471899999999323
                },
                {
                    "name": "A#4",
                    "midi": 70,
                    "time": 73.25839399999983,
                    "velocity": 0.49606299212598426,
                    "duration": 0.22471899999999323
                },
                {
                    "name": "A#5",
                    "midi": 82,
                    "time": 73.25839399999983,
                    "velocity": 0.5905511811023622,
                    "duration": 0.22471899999999323
                },
                {
                    "name": "B4",
                    "midi": 71,
                    "time": 73.48311299999982,
                    "velocity": 0.5196850393700787,
                    "duration": 1.1235949999999946
                },
                {
                    "name": "F5",
                    "midi": 77,
                    "time": 73.48311299999982,
                    "velocity": 0.6141732283464567,
                    "duration": 1.1235949999999946
                },
                {
                    "name": "B5",
                    "midi": 83,
                    "time": 73.48311299999982,
                    "velocity": 0.6141732283464567,
                    "duration": 1.1235949999999946
                },
                {
                    "name": "A#4",
                    "midi": 70,
                    "time": 74.60670799999981,
                    "velocity": 0.5039370078740157,
                    "duration": 0.22471899999999323
                },
                {
                    "name": "F5",
                    "midi": 77,
                    "time": 74.60670799999981,
                    "velocity": 0.5984251968503937,
                    "duration": 0.22471899999999323
                },
                {
                    "name": "A#5",
                    "midi": 82,
                    "time": 74.60670799999981,
                    "velocity": 0.5984251968503937,
                    "duration": 0.22471899999999323
                },
                {
                    "name": "B4",
                    "midi": 71,
                    "time": 74.8314269999998,
                    "velocity": 0.5354330708661418,
                    "duration": 0.22471899999999323
                },
                {
                    "name": "F5",
                    "midi": 77,
                    "time": 74.8314269999998,
                    "velocity": 0.6377952755905512,
                    "duration": 0.22471899999999323
                },
                {
                    "name": "B5",
                    "midi": 83,
                    "time": 74.8314269999998,
                    "velocity": 0.6377952755905512,
                    "duration": 0.22471899999999323
                },
                {
                    "name": "A#4",
                    "midi": 70,
                    "time": 75.0561459999998,
                    "velocity": 0.5196850393700787,
                    "duration": 0.22471899999999323
                },
                {
                    "name": "F5",
                    "midi": 77,
                    "time": 75.0561459999998,
                    "velocity": 0.6141732283464567,
                    "duration": 0.22471899999999323
                },
                {
                    "name": "A#5",
                    "midi": 82,
                    "time": 75.0561459999998,
                    "velocity": 0.6141732283464567,
                    "duration": 0.22471899999999323
                },
                {
                    "name": "B4",
                    "midi": 71,
                    "time": 75.28086499999979,
                    "velocity": 0.5196850393700787,
                    "duration": 0.22471899999999323
                },
                {
                    "name": "F5",
                    "midi": 77,
                    "time": 75.28086499999979,
                    "velocity": 0.6141732283464567,
                    "duration": 0.22471899999999323
                },
                {
                    "name": "B5",
                    "midi": 83,
                    "time": 75.28086499999979,
                    "velocity": 0.6141732283464567,
                    "duration": 0.22471899999999323
                },
                {
                    "name": "B4",
                    "midi": 71,
                    "time": 75.50558399999979,
                    "velocity": 0.5354330708661418,
                    "duration": 0.44943800000000067
                },
                {
                    "name": "F#5",
                    "midi": 78,
                    "time": 75.50558399999979,
                    "velocity": 0.6377952755905512,
                    "duration": 0.44943800000000067
                },
                {
                    "name": "B5",
                    "midi": 83,
                    "time": 75.50558399999979,
                    "velocity": 0.6377952755905512,
                    "duration": 0.44943800000000067
                },
                {
                    "name": "A#4",
                    "midi": 70,
                    "time": 75.95502199999979,
                    "velocity": 0.5433070866141733,
                    "duration": 0.22471899999999323
                },
                {
                    "name": "F#5",
                    "midi": 78,
                    "time": 75.95502199999979,
                    "velocity": 0.6456692913385826,
                    "duration": 0.22471899999999323
                },
                {
                    "name": "A#5",
                    "midi": 82,
                    "time": 75.95502199999979,
                    "velocity": 0.6456692913385826,
                    "duration": 0.22471899999999323
                },
                {
                    "name": "A#6",
                    "midi": 94,
                    "time": 76.17974099999978,
                    "velocity": 0.7559055118110236,
                    "duration": 1.011235499999998
                },
                {
                    "name": "F#6",
                    "midi": 90,
                    "time": 76.17974099999978,
                    "velocity": 0.7559055118110236,
                    "duration": 1.011235499999998
                },
                {
                    "name": "A#5",
                    "midi": 82,
                    "time": 76.17974099999978,
                    "velocity": 0.6377952755905512,
                    "duration": 1.011235499999998
                },
                {
                    "name": "C6",
                    "midi": 84,
                    "time": 77.19097649999978,
                    "velocity": 0.6299212598425197,
                    "duration": 0.10299620833333734
                },
                {
                    "name": "F#5",
                    "midi": 78,
                    "time": 77.19097649999978,
                    "velocity": 0.6299212598425197,
                    "duration": 0.10299620833333734
                },
                {
                    "name": "C5",
                    "midi": 72,
                    "time": 77.19097649999978,
                    "velocity": 0.5354330708661418,
                    "duration": 0.10299620833333734
                },
                {
                    "name": "C5",
                    "midi": 72,
                    "time": 77.30333599999979,
                    "velocity": 0.5354330708661418,
                    "duration": 0.21535570833333395
                },
                {
                    "name": "F#5",
                    "midi": 78,
                    "time": 77.30333599999979,
                    "velocity": 0.6299212598425197,
                    "duration": 0.21535570833333395
                },
                {
                    "name": "C6",
                    "midi": 84,
                    "time": 77.30333599999979,
                    "velocity": 0.6299212598425197,
                    "duration": 0.21535570833333395
                },
                {
                    "name": "C5",
                    "midi": 72,
                    "time": 77.5280549999998,
                    "velocity": 0.6220472440944882,
                    "duration": 0.33707850000000406
                },
                {
                    "name": "F#5",
                    "midi": 78,
                    "time": 77.5280549999998,
                    "velocity": 0.7322834645669292,
                    "duration": 0.33707850000000406
                },
                {
                    "name": "C6",
                    "midi": 84,
                    "time": 77.5280549999998,
                    "velocity": 0.7322834645669292,
                    "duration": 0.33707850000000406
                },
                {
                    "name": "F6",
                    "midi": 89,
                    "time": 77.8651334999998,
                    "velocity": 0.7007874015748031,
                    "duration": 0.11235949999999661
                },
                {
                    "name": "G#5",
                    "midi": 80,
                    "time": 77.8651334999998,
                    "velocity": 0.7007874015748031,
                    "duration": 0.11235949999999661
                },
                {
                    "name": "F5",
                    "midi": 77,
                    "time": 77.8651334999998,
                    "velocity": 0.5905511811023622,
                    "duration": 0.11235949999999661
                },
                {
                    "name": "D#6",
                    "midi": 87,
                    "time": 77.9774929999998,
                    "velocity": 0.7244094488188977,
                    "duration": 0.22471899999999323
                },
                {
                    "name": "F#5",
                    "midi": 78,
                    "time": 77.9774929999998,
                    "velocity": 0.7244094488188977,
                    "duration": 0.22471899999999323
                },
                {
                    "name": "D#5",
                    "midi": 75,
                    "time": 77.9774929999998,
                    "velocity": 0.6141732283464567,
                    "duration": 0.22471899999999323
                },
                {
                    "name": "C#6",
                    "midi": 85,
                    "time": 78.20221199999979,
                    "velocity": 0.8188976377952756,
                    "duration": 0.11235949999999661
                },
                {
                    "name": "F5",
                    "midi": 77,
                    "time": 78.20221199999979,
                    "velocity": 0.8188976377952756,
                    "duration": 0.11235949999999661
                },
                {
                    "name": "C#5",
                    "midi": 73,
                    "time": 78.20221199999979,
                    "velocity": 0.6929133858267716,
                    "duration": 0.11235949999999661
                },
                {
                    "name": "F4",
                    "midi": 65,
                    "time": 78.87636899999978,
                    "velocity": 0.7637795275590551,
                    "duration": 0.11235949999999661
                },
                {
                    "name": "C#5",
                    "midi": 73,
                    "time": 78.98872849999978,
                    "velocity": 0.5905511811023622,
                    "duration": 0.11235949999999661
                },
                {
                    "name": "G#5",
                    "midi": 80,
                    "time": 79.10108799999978,
                    "velocity": 0.6220472440944882,
                    "duration": 0.11235949999999661
                },
                {
                    "name": "F5",
                    "midi": 77,
                    "time": 79.21344749999977,
                    "velocity": 0.6535433070866141,
                    "duration": 0.11235949999999661
                },
                {
                    "name": "C#6",
                    "midi": 85,
                    "time": 79.32580699999977,
                    "velocity": 0.6850393700787402,
                    "duration": 0.11235949999999661
                },
                {
                    "name": "A#6",
                    "midi": 94,
                    "time": 79.43816649999977,
                    "velocity": 0.7165354330708661,
                    "duration": 0.11235949999999661
                },
                {
                    "name": "C6",
                    "midi": 84,
                    "time": 79.55052599999976,
                    "velocity": 0.6771653543307087,
                    "duration": 0.22471899999999323
                },
                {
                    "name": "G#6",
                    "midi": 92,
                    "time": 79.55052599999976,
                    "velocity": 0.7559055118110236,
                    "duration": 0.22471899999999323
                },
                {
                    "name": "F#4",
                    "midi": 66,
                    "time": 80.22468299999976,
                    "velocity": 0.7637795275590551,
                    "duration": 0.11235949999999661
                },
                {
                    "name": "C5",
                    "midi": 72,
                    "time": 80.33704249999975,
                    "velocity": 0.5905511811023622,
                    "duration": 0.11235949999999661
                },
                {
                    "name": "G#5",
                    "midi": 80,
                    "time": 80.44940199999975,
                    "velocity": 0.6299212598425197,
                    "duration": 0.11235949999999661
                },
                {
                    "name": "F#5",
                    "midi": 78,
                    "time": 80.56176149999975,
                    "velocity": 0.6614173228346457,
                    "duration": 0.11235949999999661
                },
                {
                    "name": "C6",
                    "midi": 84,
                    "time": 80.67412099999974,
                    "velocity": 0.6929133858267716,
                    "duration": 0.11235949999999661
                },
                {
                    "name": "G#6",
                    "midi": 92,
                    "time": 80.78648049999974,
                    "velocity": 0.7322834645669292,
                    "duration": 0.11235949999999661
                },
                {
                    "name": "C#6",
                    "midi": 85,
                    "time": 80.89883999999974,
                    "velocity": 0.6850393700787402,
                    "duration": 0.22471899999999323
                },
                {
                    "name": "F6",
                    "midi": 89,
                    "time": 80.89883999999974,
                    "velocity": 0.7637795275590551,
                    "duration": 0.22471899999999323
                },
                {
                    "name": "F4",
                    "midi": 65,
                    "time": 81.57299699999973,
                    "velocity": 0.7637795275590551,
                    "duration": 0.11235949999999661
                },
                {
                    "name": "C#5",
                    "midi": 73,
                    "time": 81.68535649999973,
                    "velocity": 0.5905511811023622,
                    "duration": 0.11235949999999661
                },
                {
                    "name": "G#5",
                    "midi": 80,
                    "time": 81.79771599999972,
                    "velocity": 0.6220472440944882,
                    "duration": 0.11235949999999661
                },
                {
                    "name": "F5",
                    "midi": 77,
                    "time": 81.91007549999972,
                    "velocity": 0.6535433070866141,
                    "duration": 0.11235949999999661
                },
                {
                    "name": "C#6",
                    "midi": 85,
                    "time": 82.02243499999972,
                    "velocity": 0.6850393700787402,
                    "duration": 0.11235949999999661
                },
                {
                    "name": "A#6",
                    "midi": 94,
                    "time": 82.13479449999971,
                    "velocity": 0.7165354330708661,
                    "duration": 0.11235949999999661
                },
                {
                    "name": "C6",
                    "midi": 84,
                    "time": 82.24715399999971,
                    "velocity": 0.6771653543307087,
                    "duration": 0.22471899999999323
                },
                {
                    "name": "G#6",
                    "midi": 92,
                    "time": 82.24715399999971,
                    "velocity": 0.7559055118110236,
                    "duration": 0.22471899999999323
                },
                {
                    "name": "F#4",
                    "midi": 66,
                    "time": 82.9213109999997,
                    "velocity": 0.7637795275590551,
                    "duration": 0.11235949999999661
                },
                {
                    "name": "C5",
                    "midi": 72,
                    "time": 83.0336704999997,
                    "velocity": 0.5905511811023622,
                    "duration": 0.11235949999999661
                },
                {
                    "name": "G#5",
                    "midi": 80,
                    "time": 83.1460299999997,
                    "velocity": 0.6299212598425197,
                    "duration": 0.11235949999999661
                },
                {
                    "name": "F#5",
                    "midi": 78,
                    "time": 83.2583894999997,
                    "velocity": 0.6614173228346457,
                    "duration": 0.11235949999999661
                },
                {
                    "name": "C6",
                    "midi": 84,
                    "time": 83.37074899999969,
                    "velocity": 0.6929133858267716,
                    "duration": 0.11235949999999661
                },
                {
                    "name": "G#6",
                    "midi": 92,
                    "time": 83.48310849999969,
                    "velocity": 0.7322834645669292,
                    "duration": 0.11235949999999661
                },
                {
                    "name": "C#6",
                    "midi": 85,
                    "time": 83.59546799999968,
                    "velocity": 0.6850393700787402,
                    "duration": 0.22471899999999323
                },
                {
                    "name": "F6",
                    "midi": 89,
                    "time": 83.59546799999968,
                    "velocity": 0.7637795275590551,
                    "duration": 0.22471899999999323
                },
                {
                    "name": "F4",
                    "midi": 65,
                    "time": 84.26962499999968,
                    "velocity": 0.7637795275590551,
                    "duration": 0.11235949999999661
                },
                {
                    "name": "C#5",
                    "midi": 73,
                    "time": 84.38198449999967,
                    "velocity": 0.5905511811023622,
                    "duration": 0.11235949999999661
                },
                {
                    "name": "G#5",
                    "midi": 80,
                    "time": 84.49434399999967,
                    "velocity": 0.6141732283464567,
                    "duration": 0.11235949999999661
                },
                {
                    "name": "F5",
                    "midi": 77,
                    "time": 84.60670349999967,
                    "velocity": 0.5905511811023622,
                    "duration": 0.11235949999999661
                },
                {
                    "name": "C#6",
                    "midi": 85,
                    "time": 84.71906299999966,
                    "velocity": 0.6220472440944882,
                    "duration": 0.11235949999999661
                },
                {
                    "name": "G#6",
                    "midi": 92,
                    "time": 84.83142249999966,
                    "velocity": 0.5905511811023622,
                    "duration": 0.11235949999999661
                },
                {
                    "name": "C#6",
                    "midi": 85,
                    "time": 84.94378199999966,
                    "velocity": 0.6141732283464567,
                    "duration": 0.11235949999999661
                },
                {
                    "name": "F5",
                    "midi": 77,
                    "time": 85.05614149999965,
                    "velocity": 0.5905511811023622,
                    "duration": 0.11235949999999661
                },
                {
                    "name": "G#5",
                    "midi": 80,
                    "time": 85.16850099999965,
                    "velocity": 0.6299212598425197,
                    "duration": 0.11235949999999661
                },
                {
                    "name": "C#5",
                    "midi": 73,
                    "time": 85.28086049999965,
                    "velocity": 0.5905511811023622,
                    "duration": 0.11235949999999661
                },
                {
                    "name": "F4",
                    "midi": 65,
                    "time": 85.39321999999964,
                    "velocity": 0.6220472440944882,
                    "duration": 0.11235949999999661
                },
                {
                    "name": "G#4",
                    "midi": 68,
                    "time": 85.50557949999964,
                    "velocity": 0.5905511811023622,
                    "duration": 0.11235949999999661
                },
                {
                    "name": "C#4",
                    "midi": 61,
                    "time": 85.61793899999964,
                    "velocity": 0.6141732283464567,
                    "duration": 0.11235949999999661
                },
                {
                    "name": "F3",
                    "midi": 53,
                    "time": 85.73029849999963,
                    "velocity": 0.6062992125984252,
                    "duration": 0.11235949999999661
                },
                {
                    "name": "G#3",
                    "midi": 56,
                    "time": 85.84265799999963,
                    "velocity": 0.6456692913385826,
                    "duration": 0.11235949999999661
                },
                {
                    "name": "C#3",
                    "midi": 49,
                    "time": 85.95501749999963,
                    "velocity": 0.6220472440944882,
                    "duration": 0.11235949999999661
                },
                {
                    "name": "F2",
                    "midi": 41,
                    "time": 86.06737699999962,
                    "velocity": 0.6850393700787402,
                    "duration": 0.11235949999999661
                },
                {
                    "name": "C#3",
                    "midi": 49,
                    "time": 86.17973649999962,
                    "velocity": 0.6692913385826772,
                    "duration": 0.11235949999999661
                },
                {
                    "name": "C#7",
                    "midi": 97,
                    "time": 86.96625299999961,
                    "velocity": 0.7952755905511811,
                    "duration": 0.6741569999999939
                },
                {
                    "name": "C#6",
                    "midi": 85,
                    "time": 86.96625299999961,
                    "velocity": 0.6692913385826772,
                    "duration": 0.6741569999999939
                },
                {
                    "name": "A3",
                    "midi": 57,
                    "time": 89.43816199999961,
                    "velocity": 0.2283464566929134,
                    "duration": 0.07490633333333108
                },
                {
                    "name": "A#3",
                    "midi": 58,
                    "time": 89.51306833333294,
                    "velocity": 0.2440944881889764,
                    "duration": 0.07490633333333108
                },
                {
                    "name": "C#4",
                    "midi": 61,
                    "time": 89.58797466666627,
                    "velocity": 0.25984251968503935,
                    "duration": 0.07490633333333108
                },
                {
                    "name": "F4",
                    "midi": 65,
                    "time": 89.6628809999996,
                    "velocity": 0.2992125984251969,
                    "duration": 0.11235949999999661
                },
                {
                    "name": "A3",
                    "midi": 57,
                    "time": 90.1123189999996,
                    "velocity": 0.2283464566929134,
                    "duration": 0.07490633333333108
                },
                {
                    "name": "A#3",
                    "midi": 58,
                    "time": 90.18722533333293,
                    "velocity": 0.2440944881889764,
                    "duration": 0.07490633333333108
                },
                {
                    "name": "C#4",
                    "midi": 61,
                    "time": 90.26213166666626,
                    "velocity": 0.25196850393700787,
                    "duration": 0.07490633333333108
                },
                {
                    "name": "F4",
                    "midi": 65,
                    "time": 90.3370379999996,
                    "velocity": 0.2992125984251969,
                    "duration": 0.11235949999999661
                },
                {
                    "name": "A#3",
                    "midi": 58,
                    "time": 91.6853519999996,
                    "velocity": 0.7874015748031497,
                    "duration": 0.11235949999999661
                },
                {
                    "name": "A#6",
                    "midi": 94,
                    "time": 92.35950899999959,
                    "velocity": 0.7244094488188977,
                    "duration": 1.348314000000002
                },
                {
                    "name": "F#6",
                    "midi": 90,
                    "time": 92.35950899999959,
                    "velocity": 0.7244094488188977,
                    "duration": 1.348314000000002
                },
                {
                    "name": "A#5",
                    "midi": 82,
                    "time": 92.35950899999959,
                    "velocity": 0.6141732283464567,
                    "duration": 1.348314000000002
                },
                {
                    "name": "D#5",
                    "midi": 75,
                    "time": 93.70782299999959,
                    "velocity": 0.4015748031496063,
                    "duration": 0.33707850000000406
                },
                {
                    "name": "C6",
                    "midi": 84,
                    "time": 93.70782299999959,
                    "velocity": 0.48031496062992124,
                    "duration": 0.33707850000000406
                },
                {
                    "name": "D#6",
                    "midi": 87,
                    "time": 93.70782299999959,
                    "velocity": 0.48031496062992124,
                    "duration": 0.33707850000000406
                },
                {
                    "name": "F5",
                    "midi": 77,
                    "time": 94.0449014999996,
                    "velocity": 0.44881889763779526,
                    "duration": 0.11235949999999661
                },
                {
                    "name": "C6",
                    "midi": 84,
                    "time": 94.0449014999996,
                    "velocity": 0.5354330708661418,
                    "duration": 0.11235949999999661
                },
                {
                    "name": "F6",
                    "midi": 89,
                    "time": 94.0449014999996,
                    "velocity": 0.5354330708661418,
                    "duration": 0.11235949999999661
                },
                {
                    "name": "F#5",
                    "midi": 78,
                    "time": 94.1572609999996,
                    "velocity": 0.47244094488188976,
                    "duration": 0.22471899999999323
                },
                {
                    "name": "C6",
                    "midi": 84,
                    "time": 94.1572609999996,
                    "velocity": 0.5590551181102362,
                    "duration": 0.22471899999999323
                },
                {
                    "name": "F#6",
                    "midi": 90,
                    "time": 94.1572609999996,
                    "velocity": 0.5590551181102362,
                    "duration": 0.22471899999999323
                },
                {
                    "name": "F5",
                    "midi": 77,
                    "time": 94.38197999999959,
                    "velocity": 0.44881889763779526,
                    "duration": 0.22471899999999323
                },
                {
                    "name": "C#6",
                    "midi": 85,
                    "time": 94.38197999999959,
                    "velocity": 0.5354330708661418,
                    "duration": 0.22471899999999323
                },
                {
                    "name": "F6",
                    "midi": 89,
                    "time": 94.38197999999959,
                    "velocity": 0.5354330708661418,
                    "duration": 0.22471899999999323
                },
                {
                    "name": "A3",
                    "midi": 57,
                    "time": 94.83141799999957,
                    "velocity": 0.2125984251968504,
                    "duration": 0.07490633333333108
                },
                {
                    "name": "A#3",
                    "midi": 58,
                    "time": 94.9063243333329,
                    "velocity": 0.2283464566929134,
                    "duration": 0.07490633333333108
                },
                {
                    "name": "C#4",
                    "midi": 61,
                    "time": 94.98123066666624,
                    "velocity": 0.23622047244094488,
                    "duration": 0.07490633333333108
                },
                {
                    "name": "F4",
                    "midi": 65,
                    "time": 95.05613699999957,
                    "velocity": 0.2755905511811024,
                    "duration": 0.11235949999999661
                },
                {
                    "name": "A3",
                    "midi": 57,
                    "time": 95.50557499999957,
                    "velocity": 0.2125984251968504,
                    "duration": 0.07490633333333108
                },
                {
                    "name": "A#3",
                    "midi": 58,
                    "time": 95.5804813333329,
                    "velocity": 0.2283464566929134,
                    "duration": 0.07490633333333108
                },
                {
                    "name": "C#4",
                    "midi": 61,
                    "time": 95.65538766666623,
                    "velocity": 0.23622047244094488,
                    "duration": 0.07490633333333108
                },
                {
                    "name": "F4",
                    "midi": 65,
                    "time": 95.73029399999956,
                    "velocity": 0.2755905511811024,
                    "duration": 0.11235949999999661
                },
                {
                    "name": "G#3",
                    "midi": 56,
                    "time": 97.07860799999956,
                    "velocity": 0.7874015748031497,
                    "duration": 0.11235949999999661
                },
                {
                    "name": "G#6",
                    "midi": 92,
                    "time": 97.75276499999956,
                    "velocity": 0.7086614173228346,
                    "duration": 1.348314000000002
                },
                {
                    "name": "F6",
                    "midi": 89,
                    "time": 97.75276499999956,
                    "velocity": 0.7086614173228346,
                    "duration": 1.348314000000002
                },
                {
                    "name": "G#5",
                    "midi": 80,
                    "time": 97.75276499999956,
                    "velocity": 0.5984251968503937,
                    "duration": 1.348314000000002
                },
                {
                    "name": "D#5",
                    "midi": 75,
                    "time": 99.10107899999956,
                    "velocity": 0.4015748031496063,
                    "duration": 0.13483139999999594
                },
                {
                    "name": "C6",
                    "midi": 84,
                    "time": 99.10107899999956,
                    "velocity": 0.47244094488188976,
                    "duration": 0.13483139999999594
                },
                {
                    "name": "D#6",
                    "midi": 87,
                    "time": 99.10107899999956,
                    "velocity": 0.47244094488188976,
                    "duration": 0.13483139999999594
                },
                {
                    "name": "C6",
                    "midi": 84,
                    "time": 99.23591039999955,
                    "velocity": 0.47244094488188976,
                    "duration": 0.13483139999999594
                },
                {
                    "name": "E5",
                    "midi": 76,
                    "time": 99.23591039999955,
                    "velocity": 0.4015748031496063,
                    "duration": 0.13483139999999594
                },
                {
                    "name": "E6",
                    "midi": 88,
                    "time": 99.23591039999955,
                    "velocity": 0.47244094488188976,
                    "duration": 0.13483139999999594
                },
                {
                    "name": "F5",
                    "midi": 77,
                    "time": 99.37074179999955,
                    "velocity": 0.4330708661417323,
                    "duration": 0.13483139999999594
                },
                {
                    "name": "C6",
                    "midi": 84,
                    "time": 99.37074179999955,
                    "velocity": 0.5118110236220472,
                    "duration": 0.13483139999999594
                },
                {
                    "name": "F6",
                    "midi": 89,
                    "time": 99.37074179999955,
                    "velocity": 0.5118110236220472,
                    "duration": 0.13483139999999594
                },
                {
                    "name": "G#5",
                    "midi": 80,
                    "time": 99.50557319999955,
                    "velocity": 0.48031496062992124,
                    "duration": 0.13483139999999594
                },
                {
                    "name": "C6",
                    "midi": 84,
                    "time": 99.50557319999955,
                    "velocity": 0.5669291338582677,
                    "duration": 0.13483139999999594
                },
                {
                    "name": "G#6",
                    "midi": 92,
                    "time": 99.50557319999955,
                    "velocity": 0.5669291338582677,
                    "duration": 0.13483139999999594
                },
                {
                    "name": "F#6",
                    "midi": 90,
                    "time": 99.64040459999954,
                    "velocity": 0.5511811023622047,
                    "duration": 0.13483139999999594
                },
                {
                    "name": "C6",
                    "midi": 84,
                    "time": 99.64040459999954,
                    "velocity": 0.5511811023622047,
                    "duration": 0.13483139999999594
                },
                {
                    "name": "F#5",
                    "midi": 78,
                    "time": 99.64040459999954,
                    "velocity": 0.5511811023622047,
                    "duration": 0.13483139999999594
                },
                {
                    "name": "F5",
                    "midi": 77,
                    "time": 99.77523599999954,
                    "velocity": 0.4409448818897638,
                    "duration": 0.22471899999999323
                },
                {
                    "name": "C#6",
                    "midi": 85,
                    "time": 99.77523599999954,
                    "velocity": 0.5275590551181102,
                    "duration": 0.22471899999999323
                },
                {
                    "name": "F6",
                    "midi": 89,
                    "time": 99.77523599999954,
                    "velocity": 0.5275590551181102,
                    "duration": 0.22471899999999323
                },
                {
                    "name": "A4",
                    "midi": 69,
                    "time": 100.44939299999953,
                    "velocity": 0.6377952755905512,
                    "duration": 0.44943800000000067
                },
                {
                    "name": "F5",
                    "midi": 77,
                    "time": 100.44939299999953,
                    "velocity": 0.6377952755905512,
                    "duration": 0.44943800000000067
                },
                {
                    "name": "A3",
                    "midi": 57,
                    "time": 101.12354999999953,
                    "velocity": 0.6377952755905512,
                    "duration": 0.44943800000000067
                },
                {
                    "name": "F4",
                    "midi": 65,
                    "time": 101.12354999999953,
                    "velocity": 0.6377952755905512,
                    "duration": 0.44943800000000067
                },
                {
                    "name": "A3",
                    "midi": 57,
                    "time": 105.61792999999953,
                    "velocity": 0.2125984251968504,
                    "duration": 0.07490633333333108
                },
                {
                    "name": "A#3",
                    "midi": 58,
                    "time": 105.69283633333286,
                    "velocity": 0.2283464566929134,
                    "duration": 0.07490633333333108
                },
                {
                    "name": "C#4",
                    "midi": 61,
                    "time": 105.7677426666662,
                    "velocity": 0.23622047244094488,
                    "duration": 0.07490633333333108
                },
                {
                    "name": "F4",
                    "midi": 65,
                    "time": 105.84264899999953,
                    "velocity": 0.2755905511811024,
                    "duration": 0.11235949999999661
                },
                {
                    "name": "A3",
                    "midi": 57,
                    "time": 106.29208699999953,
                    "velocity": 0.2283464566929134,
                    "duration": 0.07490633333333108
                },
                {
                    "name": "A#3",
                    "midi": 58,
                    "time": 106.36699333333286,
                    "velocity": 0.23622047244094488,
                    "duration": 0.07490633333333108
                },
                {
                    "name": "C#4",
                    "midi": 61,
                    "time": 106.44189966666619,
                    "velocity": 0.2440944881889764,
                    "duration": 0.07490633333333108
                },
                {
                    "name": "F4",
                    "midi": 65,
                    "time": 106.51680599999952,
                    "velocity": 0.2755905511811024,
                    "duration": 0.11235949999999661
                },
                {
                    "name": "A#3",
                    "midi": 58,
                    "time": 107.86511999999952,
                    "velocity": 0.7874015748031497,
                    "duration": 0.11235949999999661
                },
                {
                    "name": "A#5",
                    "midi": 82,
                    "time": 108.53927699999952,
                    "velocity": 0.6141732283464567,
                    "duration": 1.011235499999998
                },
                {
                    "name": "F#6",
                    "midi": 90,
                    "time": 108.53927699999952,
                    "velocity": 0.7244094488188977,
                    "duration": 1.011235499999998
                },
                {
                    "name": "A#6",
                    "midi": 94,
                    "time": 108.53927699999952,
                    "velocity": 0.7244094488188977,
                    "duration": 1.011235499999998
                },
                {
                    "name": "D#6",
                    "midi": 87,
                    "time": 109.55051249999951,
                    "velocity": 0.4566929133858268,
                    "duration": 0.11235949999999661
                },
                {
                    "name": "C6",
                    "midi": 84,
                    "time": 109.55051249999951,
                    "velocity": 0.4566929133858268,
                    "duration": 0.11235949999999661
                },
                {
                    "name": "D#5",
                    "midi": 75,
                    "time": 109.55051249999951,
                    "velocity": 0.3858267716535433,
                    "duration": 0.11235949999999661
                },
                {
                    "name": "D#6",
                    "midi": 87,
                    "time": 109.66287199999951,
                    "velocity": 0.4566929133858268,
                    "duration": 0.22471899999999323
                },
                {
                    "name": "C6",
                    "midi": 84,
                    "time": 109.66287199999951,
                    "velocity": 0.4566929133858268,
                    "duration": 0.22471899999999323
                },
                {
                    "name": "D#5",
                    "midi": 75,
                    "time": 109.66287199999951,
                    "velocity": 0.3858267716535433,
                    "duration": 0.22471899999999323
                },
                {
                    "name": "D#5",
                    "midi": 75,
                    "time": 109.8875909999995,
                    "velocity": 0.4015748031496063,
                    "duration": 0.33707850000000406
                },
                {
                    "name": "C6",
                    "midi": 84,
                    "time": 109.8875909999995,
                    "velocity": 0.48031496062992124,
                    "duration": 0.33707850000000406
                },
                {
                    "name": "D#6",
                    "midi": 87,
                    "time": 109.8875909999995,
                    "velocity": 0.48031496062992124,
                    "duration": 0.33707850000000406
                },
                {
                    "name": "C6",
                    "midi": 84,
                    "time": 110.22466949999951,
                    "velocity": 0.5354330708661418,
                    "duration": 0.11235949999999661
                },
                {
                    "name": "F6",
                    "midi": 89,
                    "time": 110.22466949999951,
                    "velocity": 0.5354330708661418,
                    "duration": 0.11235949999999661
                },
                {
                    "name": "F5",
                    "midi": 77,
                    "time": 110.22466949999951,
                    "velocity": 0.44881889763779526,
                    "duration": 0.11235949999999661
                },
                {
                    "name": "C6",
                    "midi": 84,
                    "time": 110.3370289999995,
                    "velocity": 0.5590551181102362,
                    "duration": 0.22471899999999323
                },
                {
                    "name": "F#5",
                    "midi": 78,
                    "time": 110.3370289999995,
                    "velocity": 0.47244094488188976,
                    "duration": 0.22471899999999323
                },
                {
                    "name": "F#6",
                    "midi": 90,
                    "time": 110.3370289999995,
                    "velocity": 0.5590551181102362,
                    "duration": 0.22471899999999323
                },
                {
                    "name": "C#6",
                    "midi": 85,
                    "time": 110.5617479999995,
                    "velocity": 0.5354330708661418,
                    "duration": 0.22471899999999323
                },
                {
                    "name": "F5",
                    "midi": 77,
                    "time": 110.5617479999995,
                    "velocity": 0.44881889763779526,
                    "duration": 0.22471899999999323
                },
                {
                    "name": "F6",
                    "midi": 89,
                    "time": 110.5617479999995,
                    "velocity": 0.5354330708661418,
                    "duration": 0.22471899999999323
                },
                {
                    "name": "A3",
                    "midi": 57,
                    "time": 111.01118599999948,
                    "velocity": 0.2283464566929134,
                    "duration": 0.07490633333333108
                },
                {
                    "name": "A#3",
                    "midi": 58,
                    "time": 111.08609233333281,
                    "velocity": 0.23622047244094488,
                    "duration": 0.07490633333333108
                },
                {
                    "name": "C#4",
                    "midi": 61,
                    "time": 111.16099866666615,
                    "velocity": 0.25196850393700787,
                    "duration": 0.07490633333333108
                },
                {
                    "name": "F4",
                    "midi": 65,
                    "time": 111.23590499999948,
                    "velocity": 0.29133858267716534,
                    "duration": 0.11235949999999661
                },
                {
                    "name": "A3",
                    "midi": 57,
                    "time": 111.68534299999948,
                    "velocity": 0.2283464566929134,
                    "duration": 0.07490633333333108
                },
                {
                    "name": "A#3",
                    "midi": 58,
                    "time": 111.76024933333281,
                    "velocity": 0.23622047244094488,
                    "duration": 0.07490633333333108
                },
                {
                    "name": "C#4",
                    "midi": 61,
                    "time": 111.83515566666614,
                    "velocity": 0.25196850393700787,
                    "duration": 0.07490633333333108
                },
                {
                    "name": "F4",
                    "midi": 65,
                    "time": 111.91006199999947,
                    "velocity": 0.29133858267716534,
                    "duration": 0.11235949999999661
                },
                {
                    "name": "C3",
                    "midi": 48,
                    "time": 113.25837599999947,
                    "velocity": 0.7874015748031497,
                    "duration": 0.11235949999999661
                },
                {
                    "name": "C6",
                    "midi": 84,
                    "time": 113.93253299999947,
                    "velocity": 0.5984251968503937,
                    "duration": 1.348314000000002
                },
                {
                    "name": "G#6",
                    "midi": 92,
                    "time": 113.93253299999947,
                    "velocity": 0.7086614173228346,
                    "duration": 1.348314000000002
                },
                {
                    "name": "C7",
                    "midi": 96,
                    "time": 113.93253299999947,
                    "velocity": 0.7086614173228346,
                    "duration": 1.348314000000002
                },
                {
                    "name": "G6",
                    "midi": 91,
                    "time": 115.28084699999947,
                    "velocity": 0.5748031496062992,
                    "duration": 0.16853924999999492
                },
                {
                    "name": "C#7",
                    "midi": 97,
                    "time": 115.28084699999947,
                    "velocity": 0.5748031496062992,
                    "duration": 0.16853924999999492
                },
                {
                    "name": "C#6",
                    "midi": 85,
                    "time": 115.28084699999947,
                    "velocity": 0.4881889763779528,
                    "duration": 0.16853924999999492
                },
                {
                    "name": "C6",
                    "midi": 84,
                    "time": 115.44938624999946,
                    "velocity": 0.47244094488188976,
                    "duration": 0.16853924999999492
                },
                {
                    "name": "G6",
                    "midi": 91,
                    "time": 115.44938624999946,
                    "velocity": 0.5590551181102362,
                    "duration": 0.16853924999999492
                },
                {
                    "name": "C7",
                    "midi": 96,
                    "time": 115.44938624999946,
                    "velocity": 0.5590551181102362,
                    "duration": 0.16853924999999492
                },
                {
                    "name": "F6",
                    "midi": 89,
                    "time": 115.61792549999946,
                    "velocity": 0.5275590551181102,
                    "duration": 0.16853924999999492
                },
                {
                    "name": "F5",
                    "midi": 77,
                    "time": 115.61792549999946,
                    "velocity": 0.4409448818897638,
                    "duration": 0.16853924999999492
                },
                {
                    "name": "C6",
                    "midi": 84,
                    "time": 115.61792549999946,
                    "velocity": 0.5275590551181102,
                    "duration": 0.16853924999999492
                },
                {
                    "name": "G6",
                    "midi": 91,
                    "time": 115.78646474999945,
                    "velocity": 0.5354330708661418,
                    "duration": 0.16853924999999492
                },
                {
                    "name": "C6",
                    "midi": 84,
                    "time": 115.78646474999945,
                    "velocity": 0.5354330708661418,
                    "duration": 0.16853924999999492
                },
                {
                    "name": "G5",
                    "midi": 79,
                    "time": 115.78646474999945,
                    "velocity": 0.44881889763779526,
                    "duration": 0.16853924999999492
                },
                {
                    "name": "G#6",
                    "midi": 92,
                    "time": 115.95500399999945,
                    "velocity": 0.5748031496062992,
                    "duration": 0.22471899999999323
                },
                {
                    "name": "C6",
                    "midi": 84,
                    "time": 115.95500399999945,
                    "velocity": 0.5748031496062992,
                    "duration": 0.22471899999999323
                },
                {
                    "name": "G#5",
                    "midi": 80,
                    "time": 115.95500399999945,
                    "velocity": 0.4881889763779528,
                    "duration": 0.22471899999999323
                },
                {
                    "name": "C5",
                    "midi": 72,
                    "time": 116.62916099999944,
                    "velocity": 0.6377952755905512,
                    "duration": 0.44943800000000067
                },
                {
                    "name": "G#5",
                    "midi": 80,
                    "time": 116.62916099999944,
                    "velocity": 0.6377952755905512,
                    "duration": 0.44943800000000067
                },
                {
                    "name": "G#4",
                    "midi": 68,
                    "time": 116.62916099999944,
                    "velocity": 0.5354330708661418,
                    "duration": 0.44943800000000067
                },
                {
                    "name": "F5",
                    "midi": 77,
                    "time": 116.62916099999944,
                    "velocity": 0.6377952755905512,
                    "duration": 0.44943800000000067
                },
                {
                    "name": "C4",
                    "midi": 60,
                    "time": 117.30331799999944,
                    "velocity": 0.6377952755905512,
                    "duration": 0.44943800000000067
                },
                {
                    "name": "G#4",
                    "midi": 68,
                    "time": 117.30331799999944,
                    "velocity": 0.6377952755905512,
                    "duration": 0.44943800000000067
                },
                {
                    "name": "G#3",
                    "midi": 56,
                    "time": 117.30331799999944,
                    "velocity": 0.5354330708661418,
                    "duration": 0.44943800000000067
                },
                {
                    "name": "F4",
                    "midi": 65,
                    "time": 117.30331799999944,
                    "velocity": 0.6377952755905512,
                    "duration": 0.44943800000000067
                },
                {
                    "name": "F2",
                    "midi": 41,
                    "time": 119.32578899999943,
                    "velocity": 0.7401574803149606,
                    "duration": 0.6741569999999939
                },
                {
                    "name": "D2",
                    "midi": 38,
                    "time": 119.99994599999943,
                    "velocity": 0.3937007874015748,
                    "duration": 0.08426962500000457
                },
                {
                    "name": "D#2",
                    "midi": 39,
                    "time": 120.07485233333276,
                    "velocity": 0.4015748031496063,
                    "duration": 0.08426962500001878
                },
                {
                    "name": "F2",
                    "midi": 41,
                    "time": 120.1497586666661,
                    "velocity": 0.4015748031496063,
                    "duration": 0.08426962500001878
                },
                {
                    "name": "D#2",
                    "midi": 39,
                    "time": 120.22466499999945,
                    "velocity": 0.4094488188976378,
                    "duration": 0.08426962500001878
                },
                {
                    "name": "F2",
                    "midi": 41,
                    "time": 120.29957133333279,
                    "velocity": 0.41732283464566927,
                    "duration": 0.08426962500001878
                },
                {
                    "name": "D#2",
                    "midi": 39,
                    "time": 120.37447766666614,
                    "velocity": 0.4330708661417323,
                    "duration": 0.08426962500001878
                },
                {
                    "name": "F2",
                    "midi": 41,
                    "time": 120.44938399999948,
                    "velocity": 0.4409448818897638,
                    "duration": 0.08426962500001878
                },
                {
                    "name": "D#2",
                    "midi": 39,
                    "time": 120.52429033333283,
                    "velocity": 0.4409448818897638,
                    "duration": 0.08426962500001878
                },
                {
                    "name": "F2",
                    "midi": 41,
                    "time": 120.59919666666617,
                    "velocity": 0.44881889763779526,
                    "duration": 0.08426962500001878
                },
                {
                    "name": "D#2",
                    "midi": 39,
                    "time": 120.67410299999952,
                    "velocity": 0.4566929133858268,
                    "duration": 0.06554304166668601
                },
                {
                    "name": "F2",
                    "midi": 41,
                    "time": 120.73028274999953,
                    "velocity": 0.4645669291338583,
                    "duration": 0.06554304166668601
                },
                {
                    "name": "D#2",
                    "midi": 39,
                    "time": 120.78646249999954,
                    "velocity": 0.47244094488188976,
                    "duration": 0.06554304166668601
                },
                {
                    "name": "F2",
                    "midi": 41,
                    "time": 120.84264224999956,
                    "velocity": 0.48031496062992124,
                    "duration": 0.05617975000001252
                },
                {
                    "name": "D#2",
                    "midi": 39,
                    "time": 120.89882199999957,
                    "velocity": 0.4881889763779528,
                    "duration": 0.05617974999999831
                },
                {
                    "name": "F2",
                    "midi": 41,
                    "time": 120.95500174999957,
                    "velocity": 0.4881889763779528,
                    "duration": 0.05617974999999831
                },
                {
                    "name": "D#2",
                    "midi": 39,
                    "time": 121.01118149999957,
                    "velocity": 0.4881889763779528,
                    "duration": 0.05617974999999831
                },
                {
                    "name": "F2",
                    "midi": 41,
                    "time": 121.06736124999956,
                    "velocity": 0.49606299212598426,
                    "duration": 0.05617974999999831
                },
                {
                    "name": "D#2",
                    "midi": 39,
                    "time": 121.12354099999956,
                    "velocity": 0.5039370078740157,
                    "duration": 0.08426962500000457
                },
                {
                    "name": "D2",
                    "midi": 38,
                    "time": 121.1984473333329,
                    "velocity": 0.5748031496062992,
                    "duration": 0.08426962500001878
                },
                {
                    "name": "D#2",
                    "midi": 39,
                    "time": 121.27335366666624,
                    "velocity": 0.5748031496062992,
                    "duration": 0.08426962500001878
                },
                {
                    "name": "F7",
                    "midi": 101,
                    "time": 121.34825999999958,
                    "velocity": 0.7637795275590551,
                    "duration": 0.8988760000000013
                },
                {
                    "name": "D#7",
                    "midi": 99,
                    "time": 122.24713599999959,
                    "velocity": 0.5354330708661418,
                    "duration": 0.11235949999999661
                },
                {
                    "name": "C#7",
                    "midi": 97,
                    "time": 122.35949549999958,
                    "velocity": 0.48031496062992124,
                    "duration": 0.11235949999999661
                },
                {
                    "name": "G#6",
                    "midi": 92,
                    "time": 122.47185499999958,
                    "velocity": 0.5118110236220472,
                    "duration": 0.11235949999999661
                },
                {
                    "name": "F6",
                    "midi": 89,
                    "time": 122.58421449999958,
                    "velocity": 0.4645669291338583,
                    "duration": 0.11235949999999661
                },
                {
                    "name": "D#6",
                    "midi": 87,
                    "time": 122.69657399999957,
                    "velocity": 0.4881889763779528,
                    "duration": 0.11235949999999661
                },
                {
                    "name": "C#6",
                    "midi": 85,
                    "time": 122.80893349999957,
                    "velocity": 0.4409448818897638,
                    "duration": 0.11235949999999661
                },
                {
                    "name": "G#5",
                    "midi": 80,
                    "time": 122.92129299999957,
                    "velocity": 0.4566929133858268,
                    "duration": 0.11235949999999661
                },
                {
                    "name": "F5",
                    "midi": 77,
                    "time": 123.03365249999956,
                    "velocity": 0.41732283464566927,
                    "duration": 0.11235949999999661
                },
                {
                    "name": "D#5",
                    "midi": 75,
                    "time": 123.14601199999956,
                    "velocity": 0.4330708661417323,
                    "duration": 0.11235949999999661
                },
                {
                    "name": "C#5",
                    "midi": 73,
                    "time": 123.25837149999955,
                    "velocity": 0.3937007874015748,
                    "duration": 0.11235949999999661
                },
                {
                    "name": "G#4",
                    "midi": 68,
                    "time": 123.37073099999955,
                    "velocity": 0.4094488188976378,
                    "duration": 0.22471899999999323
                },
                {
                    "name": "C5",
                    "midi": 72,
                    "time": 124.04488799999955,
                    "velocity": 0.4330708661417323,
                    "duration": 0.11235949999999661
                },
                {
                    "name": "C#5",
                    "midi": 73,
                    "time": 124.15724749999954,
                    "velocity": 0.4094488188976378,
                    "duration": 0.11235949999999661
                },
                {
                    "name": "D#5",
                    "midi": 75,
                    "time": 124.26960699999954,
                    "velocity": 0.3937007874015748,
                    "duration": 0.11235949999999661
                },
                {
                    "name": "F5",
                    "midi": 77,
                    "time": 124.38196649999954,
                    "velocity": 0.3700787401574803,
                    "duration": 0.11235949999999661
                },
                {
                    "name": "F#5",
                    "midi": 78,
                    "time": 124.49432599999953,
                    "velocity": 0.3543307086614173,
                    "duration": 0.11235949999999661
                },
                {
                    "name": "G#5",
                    "midi": 80,
                    "time": 124.60013119583286,
                    "velocity": 0.33070866141732286,
                    "duration": 0.11235949999999661
                },
                {
                    "name": "A5",
                    "midi": 81,
                    "time": 124.71904499999953,
                    "velocity": 0.31496062992125984,
                    "duration": 0.11235949999999661
                },
                {
                    "name": "A5",
                    "midi": 81,
                    "time": 125.39320199999952,
                    "velocity": 0.3937007874015748,
                    "duration": 0.11235949999999661
                },
                {
                    "name": "G#5",
                    "midi": 80,
                    "time": 125.50556149999952,
                    "velocity": 0.3858267716535433,
                    "duration": 0.11235949999999661
                },
                {
                    "name": "G5",
                    "midi": 79,
                    "time": 125.61792099999951,
                    "velocity": 0.3700787401574803,
                    "duration": 0.11235949999999661
                },
                {
                    "name": "F#5",
                    "midi": 78,
                    "time": 125.73028049999951,
                    "velocity": 0.36220472440944884,
                    "duration": 0.11235949999999661
                },
                {
                    "name": "F5",
                    "midi": 77,
                    "time": 125.8426399999995,
                    "velocity": 0.3464566929133858,
                    "duration": 0.11235949999999661
                },
                {
                    "name": "E5",
                    "midi": 76,
                    "time": 125.9549994999995,
                    "velocity": 0.33070866141732286,
                    "duration": 0.11235949999999661
                },
                {
                    "name": "D#5",
                    "midi": 75,
                    "time": 126.0673589999995,
                    "velocity": 0.3228346456692913,
                    "duration": 0.11235949999999661
                },
                {
                    "name": "F7",
                    "midi": 101,
                    "time": 126.74151599999949,
                    "velocity": 0.7637795275590551,
                    "duration": 0.8988760000000013
                },
                {
                    "name": "D#7",
                    "midi": 99,
                    "time": 127.6403919999995,
                    "velocity": 0.5354330708661418,
                    "duration": 0.11235949999999661
                },
                {
                    "name": "C#7",
                    "midi": 97,
                    "time": 127.75275149999949,
                    "velocity": 0.48031496062992124,
                    "duration": 0.11235949999999661
                },
                {
                    "name": "G#6",
                    "midi": 92,
                    "time": 127.86511099999949,
                    "velocity": 0.5118110236220472,
                    "duration": 0.11235949999999661
                },
                {
                    "name": "F6",
                    "midi": 89,
                    "time": 127.97747049999948,
                    "velocity": 0.4645669291338583,
                    "duration": 0.11235950000001083
                },
                {
                    "name": "D#6",
                    "midi": 87,
                    "time": 128.0898299999995,
                    "velocity": 0.4881889763779528,
                    "duration": 0.11235949999999661
                },
                {
                    "name": "C#6",
                    "midi": 85,
                    "time": 128.2021894999995,
                    "velocity": 0.44881889763779526,
                    "duration": 0.11235949999999661
                },
                {
                    "name": "G#5",
                    "midi": 80,
                    "time": 128.3145489999995,
                    "velocity": 0.4566929133858268,
                    "duration": 0.11235949999999661
                },
                {
                    "name": "F5",
                    "midi": 77,
                    "time": 128.42690849999948,
                    "velocity": 0.41732283464566927,
                    "duration": 0.11235949999999661
                },
                {
                    "name": "D#5",
                    "midi": 75,
                    "time": 128.53926799999948,
                    "velocity": 0.4330708661417323,
                    "duration": 0.11235949999999661
                },
                {
                    "name": "C#5",
                    "midi": 73,
                    "time": 128.65162749999948,
                    "velocity": 0.4015748031496063,
                    "duration": 0.11235949999999661
                },
                {
                    "name": "G#4",
                    "midi": 68,
                    "time": 128.76398699999947,
                    "velocity": 0.4094488188976378,
                    "duration": 0.22471899999999323
                },
                {
                    "name": "C5",
                    "midi": 72,
                    "time": 129.43814399999945,
                    "velocity": 0.33070866141732286,
                    "duration": 0.11235949999999661
                },
                {
                    "name": "C#5",
                    "midi": 73,
                    "time": 129.55050349999945,
                    "velocity": 0.3228346456692913,
                    "duration": 0.11235949999999661
                },
                {
                    "name": "D#5",
                    "midi": 75,
                    "time": 129.66286299999945,
                    "velocity": 0.3228346456692913,
                    "duration": 0.11235949999999661
                },
                {
                    "name": "F5",
                    "midi": 77,
                    "time": 129.77522249999944,
                    "velocity": 0.31496062992125984,
                    "duration": 0.11235949999999661
                },
                {
                    "name": "F#5",
                    "midi": 78,
                    "time": 129.88758199999944,
                    "velocity": 0.30708661417322836,
                    "duration": 0.11235949999999661
                },
                {
                    "name": "G#5",
                    "midi": 80,
                    "time": 129.99338719583278,
                    "velocity": 0.2992125984251969,
                    "duration": 0.11235949999999661
                },
                {
                    "name": "A5",
                    "midi": 81,
                    "time": 130.11230099999943,
                    "velocity": 0.29133858267716534,
                    "duration": 0.11235949999999661
                },
                {
                    "name": "A5",
                    "midi": 81,
                    "time": 130.78645799999944,
                    "velocity": 0.33070866141732286,
                    "duration": 0.11235949999999661
                },
                {
                    "name": "G#5",
                    "midi": 80,
                    "time": 130.89881749999944,
                    "velocity": 0.3228346456692913,
                    "duration": 0.11235949999999661
                },
                {
                    "name": "G5",
                    "midi": 79,
                    "time": 131.01117699999944,
                    "velocity": 0.31496062992125984,
                    "duration": 0.11235949999999661
                },
                {
                    "name": "F#5",
                    "midi": 78,
                    "time": 131.12353649999943,
                    "velocity": 0.30708661417322836,
                    "duration": 0.11235949999999661
                },
                {
                    "name": "F5",
                    "midi": 77,
                    "time": 131.23589599999943,
                    "velocity": 0.29133858267716534,
                    "duration": 0.11235949999999661
                },
                {
                    "name": "E5",
                    "midi": 76,
                    "time": 131.34825549999942,
                    "velocity": 0.28346456692913385,
                    "duration": 0.11235949999999661
                },
                {
                    "name": "D#5",
                    "midi": 75,
                    "time": 131.46061499999942,
                    "velocity": 0.2755905511811024,
                    "duration": 0.22471899999999323
                },
                {
                    "name": "B4",
                    "midi": 71,
                    "time": 132.1347719999994,
                    "velocity": 0.31496062992125984,
                    "duration": 1.3483139999999878
                },
                {
                    "name": "F5",
                    "midi": 77,
                    "time": 132.1347719999994,
                    "velocity": 0.4645669291338583,
                    "duration": 0.8988760000000013
                },
                {
                    "name": "D#5",
                    "midi": 75,
                    "time": 133.0336479999994,
                    "velocity": 0.41732283464566927,
                    "duration": 0.33707849999998984
                },
                {
                    "name": "C#5",
                    "midi": 73,
                    "time": 133.3707264999994,
                    "velocity": 0.4094488188976378,
                    "duration": 0.10299620833333734
                },
                {
                    "name": "B4",
                    "midi": 71,
                    "time": 133.4830859999994,
                    "velocity": 0.33858267716535434,
                    "duration": 0.6741570000000081
                },
                {
                    "name": "C#5",
                    "midi": 73,
                    "time": 133.4830859999994,
                    "velocity": 0.4566929133858268,
                    "duration": 0.6741570000000081
                },
                {
                    "name": "A#4",
                    "midi": 70,
                    "time": 134.1572429999994,
                    "velocity": 0.4409448818897638,
                    "duration": 0.6741570000000081
                },
                {
                    "name": "F#5",
                    "midi": 78,
                    "time": 134.1572429999994,
                    "velocity": 0.4409448818897638,
                    "duration": 1.1235949999999946
                },
                {
                    "name": "B4",
                    "midi": 71,
                    "time": 134.8313999999994,
                    "velocity": 0.3937007874015748,
                    "duration": 1.3483139999999594
                },
                {
                    "name": "F5",
                    "midi": 77,
                    "time": 135.2808379999994,
                    "velocity": 0.4094488188976378,
                    "duration": 0.22471899999999323
                },
                {
                    "name": "F5",
                    "midi": 77,
                    "time": 135.50555699999938,
                    "velocity": 0.4015748031496063,
                    "duration": 0.22471899999999323
                },
                {
                    "name": "D#5",
                    "midi": 75,
                    "time": 135.73027599999938,
                    "velocity": 0.3937007874015748,
                    "duration": 0.22471899999999323
                },
                {
                    "name": "C#5",
                    "midi": 73,
                    "time": 135.95499499999937,
                    "velocity": 0.3858267716535433,
                    "duration": 0.21535570833333395
                },
                {
                    "name": "A#4",
                    "midi": 70,
                    "time": 136.17971399999936,
                    "velocity": 0.3464566929133858,
                    "duration": 0.6741570000000081
                },
                {
                    "name": "C#5",
                    "midi": 73,
                    "time": 136.17971399999936,
                    "velocity": 0.3464566929133858,
                    "duration": 0.6741570000000081
                },
                {
                    "name": "A#5",
                    "midi": 82,
                    "time": 136.17971399999936,
                    "velocity": 0.4409448818897638,
                    "duration": 0.6741570000000081
                },
                {
                    "name": "G#4",
                    "midi": 68,
                    "time": 136.85387099999937,
                    "velocity": 0.3464566929133858,
                    "duration": 0.6741570000000081
                },
                {
                    "name": "C#5",
                    "midi": 73,
                    "time": 136.85387099999937,
                    "velocity": 0.3464566929133858,
                    "duration": 0.6741570000000081
                },
                {
                    "name": "A#5",
                    "midi": 82,
                    "time": 136.85387099999937,
                    "velocity": 0.4881889763779528,
                    "duration": 0.44943799999998646
                },
                {
                    "name": "A#5",
                    "midi": 82,
                    "time": 137.30330899999936,
                    "velocity": 0.5039370078740157,
                    "duration": 0.22471900000002165
                },
                {
                    "name": "G4",
                    "midi": 67,
                    "time": 137.47184824999937,
                    "velocity": 0.3464566929133858,
                    "duration": 0.05617975000001252
                },
                {
                    "name": "C#5",
                    "midi": 73,
                    "time": 137.52802799999938,
                    "velocity": 0.3543307086614173,
                    "duration": 1.3483139999999878
                },
                {
                    "name": "A#5",
                    "midi": 82,
                    "time": 137.52802799999938,
                    "velocity": 0.5354330708661418,
                    "duration": 0.44943799999998646
                },
                {
                    "name": "D#5",
                    "midi": 75,
                    "time": 137.97746599999937,
                    "velocity": 0.44881889763779526,
                    "duration": 0.22471899999999323
                },
                {
                    "name": "D#5",
                    "midi": 75,
                    "time": 138.20218499999936,
                    "velocity": 0.44881889763779526,
                    "duration": 0.22471899999999323
                },
                {
                    "name": "F5",
                    "midi": 77,
                    "time": 138.42690399999935,
                    "velocity": 0.4015748031496063,
                    "duration": 0.05617975000001252
                },
                {
                    "name": "G5",
                    "midi": 79,
                    "time": 138.48308374999937,
                    "velocity": 0.4015748031496063,
                    "duration": 0.05617975000001252
                },
                {
                    "name": "F5",
                    "midi": 77,
                    "time": 138.53926349999938,
                    "velocity": 0.4409448818897638,
                    "duration": 0.22471899999999323
                },
                {
                    "name": "D#5",
                    "midi": 75,
                    "time": 138.76398249999937,
                    "velocity": 0.4409448818897638,
                    "duration": 0.10299620833333734
                },
                {
                    "name": "C#5",
                    "midi": 73,
                    "time": 138.87634199999937,
                    "velocity": 0.3858267716535433,
                    "duration": 0.6741570000000081
                },
                {
                    "name": "D#5",
                    "midi": 75,
                    "time": 138.87634199999937,
                    "velocity": 0.4645669291338583,
                    "duration": 0.6741570000000081
                },
                {
                    "name": "C5",
                    "midi": 72,
                    "time": 139.55049899999938,
                    "velocity": 0.41732283464566927,
                    "duration": 0.6741570000000081
                },
                {
                    "name": "G#5",
                    "midi": 80,
                    "time": 139.55049899999938,
                    "velocity": 0.5039370078740157,
                    "duration": 0.8988760000000013
                },
                {
                    "name": "C#5",
                    "midi": 73,
                    "time": 140.22465599999938,
                    "velocity": 0.4330708661417323,
                    "duration": 1.3483139999999594
                },
                {
                    "name": "G5",
                    "midi": 79,
                    "time": 140.44937499999938,
                    "velocity": 0.47244094488188976,
                    "duration": 0.22471899999999323
                },
                {
                    "name": "F5",
                    "midi": 77,
                    "time": 140.67409399999937,
                    "velocity": 0.4645669291338583,
                    "duration": 0.22471899999999323
                },
                {
                    "name": "G5",
                    "midi": 79,
                    "time": 140.89881299999936,
                    "velocity": 0.47244094488188976,
                    "duration": 0.22471899999999323
                },
                {
                    "name": "F5",
                    "midi": 77,
                    "time": 141.12353199999936,
                    "velocity": 0.4645669291338583,
                    "duration": 0.33707849999998984
                },
                {
                    "name": "D#5",
                    "midi": 75,
                    "time": 141.46061049999935,
                    "velocity": 0.4409448818897638,
                    "duration": 0.11235949999999661
                },
                {
                    "name": "C5",
                    "midi": 72,
                    "time": 141.57296999999934,
                    "velocity": 0.4409448818897638,
                    "duration": 1.3483139999999878
                },
                {
                    "name": "C6",
                    "midi": 84,
                    "time": 141.57296999999934,
                    "velocity": 0.4409448818897638,
                    "duration": 0.6741570000000081
                },
                {
                    "name": "C6",
                    "midi": 84,
                    "time": 142.24712699999935,
                    "velocity": 0.5039370078740157,
                    "duration": 0.44943799999998646
                },
                {
                    "name": "C6",
                    "midi": 84,
                    "time": 142.69656499999934,
                    "velocity": 0.49606299212598426,
                    "duration": 0.21535570833333395
                },
                {
                    "name": "C6",
                    "midi": 84,
                    "time": 142.92128399999933,
                    "velocity": 0.5354330708661418,
                    "duration": 0.8988760000000013
                },
                {
                    "name": "A#5",
                    "midi": 82,
                    "time": 143.82015999999933,
                    "velocity": 0.49606299212598426,
                    "duration": 0.33707849999998984
                },
                {
                    "name": "G#5",
                    "midi": 80,
                    "time": 144.15723849999932,
                    "velocity": 0.49606299212598426,
                    "duration": 0.10299620833333734
                },
                {
                    "name": "G#5",
                    "midi": 80,
                    "time": 144.26959799999932,
                    "velocity": 0.49606299212598426,
                    "duration": 0.6741570000000081
                },
                {
                    "name": "C#6",
                    "midi": 85,
                    "time": 144.94375499999933,
                    "velocity": 0.5905511811023622,
                    "duration": 0.6741570000000081
                },
                {
                    "name": "C#6",
                    "midi": 85,
                    "time": 145.61791199999934,
                    "velocity": 0.6456692913385826,
                    "duration": 0.44943799999998646
                },
                {
                    "name": "C6",
                    "midi": 84,
                    "time": 146.06734999999932,
                    "velocity": 0.6141732283464567,
                    "duration": 0.21535570833333395
                },
                {
                    "name": "C6",
                    "midi": 84,
                    "time": 146.29206899999932,
                    "velocity": 0.5905511811023622,
                    "duration": 0.22471899999999323
                },
                {
                    "name": "A#5",
                    "midi": 82,
                    "time": 146.5167879999993,
                    "velocity": 0.5590551181102362,
                    "duration": 0.33707849999998984
                },
                {
                    "name": "G#5",
                    "midi": 80,
                    "time": 146.8538664999993,
                    "velocity": 0.49606299212598426,
                    "duration": 0.11235949999999661
                },
                {
                    "name": "F6",
                    "midi": 89,
                    "time": 146.9662259999993,
                    "velocity": 0.6299212598425197,
                    "duration": 0.6741570000000081
                },
                {
                    "name": "F6",
                    "midi": 89,
                    "time": 147.6403829999993,
                    "velocity": 0.6062992125984252,
                    "duration": 0.44943799999998646
                },
                {
                    "name": "F6",
                    "midi": 89,
                    "time": 148.0898209999993,
                    "velocity": 0.6377952755905512,
                    "duration": 0.21535570833333395
                },
                {
                    "name": "F6",
                    "midi": 89,
                    "time": 148.31453999999928,
                    "velocity": 0.6692913385826772,
                    "duration": 0.6741570000000081
                },
                {
                    "name": "D#6",
                    "midi": 87,
                    "time": 148.9886969999993,
                    "velocity": 0.5669291338582677,
                    "duration": 0.22471899999999323
                },
                {
                    "name": "C#6",
                    "midi": 85,
                    "time": 149.21341599999928,
                    "velocity": 0.5590551181102362,
                    "duration": 0.22471899999999323
                },
                {
                    "name": "A#5",
                    "midi": 82,
                    "time": 149.43813499999928,
                    "velocity": 0.5511811023622047,
                    "duration": 0.22471899999999323
                },
                {
                    "name": "C6",
                    "midi": 84,
                    "time": 149.66285399999927,
                    "velocity": 0.5905511811023622,
                    "duration": 0.6741570000000081
                },
                {
                    "name": "A#5",
                    "midi": 82,
                    "time": 150.33701099999928,
                    "velocity": 0.5590551181102362,
                    "duration": 0.22471899999999323
                },
                {
                    "name": "G#5",
                    "midi": 80,
                    "time": 150.56172999999927,
                    "velocity": 0.5354330708661418,
                    "duration": 0.22471899999999323
                },
                {
                    "name": "F5",
                    "midi": 77,
                    "time": 150.78644899999927,
                    "velocity": 0.49606299212598426,
                    "duration": 0.22471899999999323
                },
                {
                    "name": "A#5",
                    "midi": 82,
                    "time": 151.01116799999926,
                    "velocity": 0.5433070866141733,
                    "duration": 0.22471899999999323
                },
                {
                    "name": "G#5",
                    "midi": 80,
                    "time": 151.23588699999925,
                    "velocity": 0.5039370078740157,
                    "duration": 0.22471899999999323
                },
                {
                    "name": "F#5",
                    "midi": 78,
                    "time": 151.46060599999925,
                    "velocity": 0.48031496062992124,
                    "duration": 0.21535570833333395
                },
                {
                    "name": "F#5",
                    "midi": 78,
                    "time": 151.68532499999924,
                    "velocity": 0.4330708661417323,
                    "duration": 0.05617975000001252
                },
                {
                    "name": "G#5",
                    "midi": 80,
                    "time": 151.74150474999925,
                    "velocity": 0.4330708661417323,
                    "duration": 0.05617975000001252
                },
                {
                    "name": "F#5",
                    "midi": 78,
                    "time": 151.79768449999926,
                    "velocity": 0.49606299212598426,
                    "duration": 0.11235949999999661
                },
                {
                    "name": "F5",
                    "midi": 77,
                    "time": 151.91004399999926,
                    "velocity": 0.4566929133858268,
                    "duration": 0.33707849999998984
                },
                {
                    "name": "E5",
                    "midi": 76,
                    "time": 152.24712249999925,
                    "velocity": 0.4645669291338583,
                    "duration": 0.10299620833333734
                },
                {
                    "name": "E5",
                    "midi": 76,
                    "time": 152.35948199999925,
                    "velocity": 0.4645669291338583,
                    "duration": 0.6741570000000081
                },
                {
                    "name": "F5",
                    "midi": 77,
                    "time": 153.03363899999925,
                    "velocity": 0.49606299212598426,
                    "duration": 0.44943799999998646
                },
                {
                    "name": "G#5",
                    "midi": 80,
                    "time": 153.48307699999924,
                    "velocity": 0.44881889763779526,
                    "duration": 0.22471899999999323
                },
                {
                    "name": "G#4",
                    "midi": 68,
                    "time": 153.70779599999923,
                    "velocity": 0.44881889763779526,
                    "duration": 0.4494380000000149
                },
                {
                    "name": "G#5",
                    "midi": 80,
                    "time": 153.76397574999925,
                    "velocity": 0.44881889763779526,
                    "duration": 0.6179772499999956
                },
                {
                    "name": "C5",
                    "midi": 72,
                    "time": 154.15723399999925,
                    "velocity": 0.49606299212598426,
                    "duration": 0.44943799999998646
                },
                {
                    "name": "C6",
                    "midi": 84,
                    "time": 154.38195299999924,
                    "velocity": 0.49606299212598426,
                    "duration": 0.22471899999999323
                },
                {
                    "name": "A#4",
                    "midi": 70,
                    "time": 154.60667199999924,
                    "velocity": 0.49606299212598426,
                    "duration": 0.33707849999998984
                },
                {
                    "name": "A#5",
                    "midi": 82,
                    "time": 154.60667199999924,
                    "velocity": 0.49606299212598426,
                    "duration": 0.33707849999998984
                },
                {
                    "name": "G#4",
                    "midi": 68,
                    "time": 154.94375049999923,
                    "velocity": 0.49606299212598426,
                    "duration": 0.10299620833333734
                },
                {
                    "name": "G#5",
                    "midi": 80,
                    "time": 154.94375049999923,
                    "velocity": 0.49606299212598426,
                    "duration": 0.10299620833333734
                },
                {
                    "name": "G#4",
                    "midi": 68,
                    "time": 155.05610999999922,
                    "velocity": 0.49606299212598426,
                    "duration": 0.6741570000000081
                },
                {
                    "name": "G#5",
                    "midi": 80,
                    "time": 155.05610999999922,
                    "velocity": 0.49606299212598426,
                    "duration": 1.3483140000000162
                },
                {
                    "name": "C#5",
                    "midi": 73,
                    "time": 155.73026699999923,
                    "velocity": 0.5905511811023622,
                    "duration": 0.6741570000000081
                },
                {
                    "name": "C#6",
                    "midi": 85,
                    "time": 155.73026699999923,
                    "velocity": 0.5905511811023622,
                    "duration": 0.6741570000000081
                },
                {
                    "name": "F#5",
                    "midi": 78,
                    "time": 156.40442399999924,
                    "velocity": 0.47244094488188976,
                    "duration": 0.6741569999999797
                },
                {
                    "name": "G#5",
                    "midi": 80,
                    "time": 156.40442399999924,
                    "velocity": 0.47244094488188976,
                    "duration": 0.6741569999999797
                },
                {
                    "name": "C#5",
                    "midi": 73,
                    "time": 156.40442399999924,
                    "velocity": 0.5905511811023622,
                    "duration": 0.33707849999998984
                },
                {
                    "name": "C#6",
                    "midi": 85,
                    "time": 156.40442399999924,
                    "velocity": 0.5905511811023622,
                    "duration": 0.33707849999998984
                },
                {
                    "name": "C6",
                    "midi": 84,
                    "time": 156.74150249999923,
                    "velocity": 0.5590551181102362,
                    "duration": 0.11235949999999661
                },
                {
                    "name": "C5",
                    "midi": 72,
                    "time": 156.74150249999923,
                    "velocity": 0.5590551181102362,
                    "duration": 0.11235949999999661
                },
                {
                    "name": "G#5",
                    "midi": 80,
                    "time": 156.85386199999922,
                    "velocity": 0.5511811023622047,
                    "duration": 0.22471899999999323
                },
                {
                    "name": "F#5",
                    "midi": 78,
                    "time": 156.85386199999922,
                    "velocity": 0.5511811023622047,
                    "duration": 0.22471899999999323
                },
                {
                    "name": "C5",
                    "midi": 72,
                    "time": 156.85386199999922,
                    "velocity": 0.5511811023622047,
                    "duration": 0.22471899999999323
                },
                {
                    "name": "C6",
                    "midi": 84,
                    "time": 156.85386199999922,
                    "velocity": 0.5511811023622047,
                    "duration": 0.22471899999999323
                },
                {
                    "name": "G#5",
                    "midi": 80,
                    "time": 157.07858099999922,
                    "velocity": 0.47244094488188976,
                    "duration": 0.33707849999998984
                },
                {
                    "name": "F#5",
                    "midi": 78,
                    "time": 157.07858099999922,
                    "velocity": 0.47244094488188976,
                    "duration": 0.33707849999998984
                },
                {
                    "name": "C5",
                    "midi": 72,
                    "time": 157.07858099999922,
                    "velocity": 0.5905511811023622,
                    "duration": 0.33707849999998984
                },
                {
                    "name": "C6",
                    "midi": 84,
                    "time": 157.07858099999922,
                    "velocity": 0.5905511811023622,
                    "duration": 0.33707849999998984
                },
                {
                    "name": "A#4",
                    "midi": 70,
                    "time": 157.4156594999992,
                    "velocity": 0.5590551181102362,
                    "duration": 0.11235949999999661
                },
                {
                    "name": "A#5",
                    "midi": 82,
                    "time": 157.4156594999992,
                    "velocity": 0.5590551181102362,
                    "duration": 0.11235949999999661
                },
                {
                    "name": "F#5",
                    "midi": 78,
                    "time": 157.5280189999992,
                    "velocity": 0.47244094488188976,
                    "duration": 0.22471899999999323
                },
                {
                    "name": "G#4",
                    "midi": 68,
                    "time": 157.5280189999992,
                    "velocity": 0.49606299212598426,
                    "duration": 0.22471899999999323
                },
                {
                    "name": "G#5",
                    "midi": 80,
                    "time": 157.5280189999992,
                    "velocity": 0.49606299212598426,
                    "duration": 0.22471899999999323
                },
                {
                    "name": "G#5",
                    "midi": 80,
                    "time": 157.7527379999992,
                    "velocity": 0.6299212598425197,
                    "duration": 0.6741570000000081
                },
                {
                    "name": "F5",
                    "midi": 77,
                    "time": 157.7527379999992,
                    "velocity": 0.5354330708661418,
                    "duration": 0.6741570000000081
                },
                {
                    "name": "F6",
                    "midi": 89,
                    "time": 157.7527379999992,
                    "velocity": 0.6299212598425197,
                    "duration": 0.6741570000000081
                },
                {
                    "name": "F5",
                    "midi": 77,
                    "time": 158.4268949999992,
                    "velocity": 0.5118110236220472,
                    "duration": 0.44943799999998646
                },
                {
                    "name": "G#5",
                    "midi": 80,
                    "time": 158.4268949999992,
                    "velocity": 0.6062992125984252,
                    "duration": 0.44943799999998646
                },
                {
                    "name": "F6",
                    "midi": 89,
                    "time": 158.4268949999992,
                    "velocity": 0.6062992125984252,
                    "duration": 0.44943799999998646
                },
                {
                    "name": "F5",
                    "midi": 77,
                    "time": 158.8763329999992,
                    "velocity": 0.5196850393700787,
                    "duration": 0.21535570833333395
                },
                {
                    "name": "G#5",
                    "midi": 80,
                    "time": 158.8763329999992,
                    "velocity": 0.6141732283464567,
                    "duration": 0.21535570833333395
                },
                {
                    "name": "F6",
                    "midi": 89,
                    "time": 158.8763329999992,
                    "velocity": 0.6141732283464567,
                    "duration": 0.21535570833333395
                },
                {
                    "name": "F5",
                    "midi": 77,
                    "time": 159.10105199999919,
                    "velocity": 0.5433070866141733,
                    "duration": 0.6741570000000081
                },
                {
                    "name": "G#5",
                    "midi": 80,
                    "time": 159.10105199999919,
                    "velocity": 0.6456692913385826,
                    "duration": 0.6741570000000081
                },
                {
                    "name": "F6",
                    "midi": 89,
                    "time": 159.10105199999919,
                    "velocity": 0.6456692913385826,
                    "duration": 0.6741570000000081
                },
                {
                    "name": "F#5",
                    "midi": 78,
                    "time": 159.7752089999992,
                    "velocity": 0.5275590551181102,
                    "duration": 0.22471899999999323
                },
                {
                    "name": "D#5",
                    "midi": 75,
                    "time": 159.7752089999992,
                    "velocity": 0.4409448818897638,
                    "duration": 0.22471899999999323
                },
                {
                    "name": "D#6",
                    "midi": 87,
                    "time": 159.7752089999992,
                    "velocity": 0.5275590551181102,
                    "duration": 0.22471899999999323
                },
                {
                    "name": "C#5",
                    "midi": 73,
                    "time": 159.9999279999992,
                    "velocity": 0.4330708661417323,
                    "duration": 0.33707849999998984
                },
                {
                    "name": "F#5",
                    "midi": 78,
                    "time": 159.9999279999992,
                    "velocity": 0.5118110236220472,
                    "duration": 0.33707849999998984
                },
                {
                    "name": "C#6",
                    "midi": 85,
                    "time": 159.9999279999992,
                    "velocity": 0.5118110236220472,
                    "duration": 0.33707849999998984
                },
                {
                    "name": "A#4",
                    "midi": 70,
                    "time": 160.33700649999918,
                    "velocity": 0.4251968503937008,
                    "duration": 0.11235949999999661
                },
                {
                    "name": "F#5",
                    "midi": 78,
                    "time": 160.33700649999918,
                    "velocity": 0.5039370078740157,
                    "duration": 0.11235949999999661
                },
                {
                    "name": "A#5",
                    "midi": 82,
                    "time": 160.33700649999918,
                    "velocity": 0.5039370078740157,
                    "duration": 0.11235949999999661
                },
                {
                    "name": "C5",
                    "midi": 72,
                    "time": 160.44936599999917,
                    "velocity": 0.4094488188976378,
                    "duration": 0.6741570000000081
                },
                {
                    "name": "G#5",
                    "midi": 80,
                    "time": 160.44936599999917,
                    "velocity": 0.4881889763779528,
                    "duration": 0.6741570000000081
                },
                {
                    "name": "C6",
                    "midi": 84,
                    "time": 160.44936599999917,
                    "velocity": 0.4881889763779528,
                    "duration": 0.6741570000000081
                },
                {
                    "name": "A#4",
                    "midi": 70,
                    "time": 161.12352299999918,
                    "velocity": 0.4251968503937008,
                    "duration": 0.22471899999999323
                },
                {
                    "name": "F#5",
                    "midi": 78,
                    "time": 161.12352299999918,
                    "velocity": 0.5039370078740157,
                    "duration": 0.22471899999999323
                },
                {
                    "name": "A#5",
                    "midi": 82,
                    "time": 161.12352299999918,
                    "velocity": 0.5039370078740157,
                    "duration": 0.22471899999999323
                },
                {
                    "name": "G#4",
                    "midi": 68,
                    "time": 161.34824199999917,
                    "velocity": 0.44881889763779526,
                    "duration": 0.22471899999999323
                },
                {
                    "name": "F5",
                    "midi": 77,
                    "time": 161.34824199999917,
                    "velocity": 0.5354330708661418,
                    "duration": 0.22471899999999323
                },
                {
                    "name": "G#5",
                    "midi": 80,
                    "time": 161.34824199999917,
                    "velocity": 0.5354330708661418,
                    "duration": 0.22471899999999323
                },
                {
                    "name": "A#4",
                    "midi": 70,
                    "time": 161.57296099999917,
                    "velocity": 0.48031496062992124,
                    "duration": 0.22471899999999323
                },
                {
                    "name": "F5",
                    "midi": 77,
                    "time": 161.57296099999917,
                    "velocity": 0.5669291338582677,
                    "duration": 0.22471899999999323
                },
                {
                    "name": "A#5",
                    "midi": 82,
                    "time": 161.57296099999917,
                    "velocity": 0.5669291338582677,
                    "duration": 0.22471899999999323
                },
                {
                    "name": "F5",
                    "midi": 77,
                    "time": 161.79767999999916,
                    "velocity": 0.6062992125984252,
                    "duration": 0.44943799999998646
                },
                {
                    "name": "B4",
                    "midi": 71,
                    "time": 161.79767999999916,
                    "velocity": 0.5118110236220472,
                    "duration": 0.44943799999998646
                },
                {
                    "name": "B5",
                    "midi": 83,
                    "time": 161.79767999999916,
                    "velocity": 0.6062992125984252,
                    "duration": 0.44943799999998646
                },
                {
                    "name": "F5",
                    "midi": 77,
                    "time": 162.24711799999915,
                    "velocity": 0.5905511811023622,
                    "duration": 0.22471899999999323
                },
                {
                    "name": "A#4",
                    "midi": 70,
                    "time": 162.24711799999915,
                    "velocity": 0.49606299212598426,
                    "duration": 0.22471899999999323
                },
                {
                    "name": "A#5",
                    "midi": 82,
                    "time": 162.24711799999915,
                    "velocity": 0.5905511811023622,
                    "duration": 0.22471899999999323
                },
                {
                    "name": "B4",
                    "midi": 71,
                    "time": 162.47183699999914,
                    "velocity": 0.5196850393700787,
                    "duration": 1.1235949999999946
                },
                {
                    "name": "F5",
                    "midi": 77,
                    "time": 162.47183699999914,
                    "velocity": 0.6141732283464567,
                    "duration": 1.1235949999999946
                },
                {
                    "name": "B5",
                    "midi": 83,
                    "time": 162.47183699999914,
                    "velocity": 0.6141732283464567,
                    "duration": 1.1235949999999946
                },
                {
                    "name": "A#4",
                    "midi": 70,
                    "time": 163.59543199999914,
                    "velocity": 0.5039370078740157,
                    "duration": 0.22471899999999323
                },
                {
                    "name": "F5",
                    "midi": 77,
                    "time": 163.59543199999914,
                    "velocity": 0.5984251968503937,
                    "duration": 0.22471899999999323
                },
                {
                    "name": "A#5",
                    "midi": 82,
                    "time": 163.59543199999914,
                    "velocity": 0.5984251968503937,
                    "duration": 0.22471899999999323
                },
                {
                    "name": "B4",
                    "midi": 71,
                    "time": 163.82015099999913,
                    "velocity": 0.5354330708661418,
                    "duration": 0.22471899999999323
                },
                {
                    "name": "F5",
                    "midi": 77,
                    "time": 163.82015099999913,
                    "velocity": 0.6377952755905512,
                    "duration": 0.22471899999999323
                },
                {
                    "name": "B5",
                    "midi": 83,
                    "time": 163.82015099999913,
                    "velocity": 0.6377952755905512,
                    "duration": 0.22471899999999323
                },
                {
                    "name": "A#4",
                    "midi": 70,
                    "time": 164.04486999999912,
                    "velocity": 0.5196850393700787,
                    "duration": 0.22471899999999323
                },
                {
                    "name": "F5",
                    "midi": 77,
                    "time": 164.04486999999912,
                    "velocity": 0.6141732283464567,
                    "duration": 0.22471899999999323
                },
                {
                    "name": "A#5",
                    "midi": 82,
                    "time": 164.04486999999912,
                    "velocity": 0.6141732283464567,
                    "duration": 0.22471899999999323
                },
                {
                    "name": "B4",
                    "midi": 71,
                    "time": 164.26958899999912,
                    "velocity": 0.5196850393700787,
                    "duration": 0.22471899999999323
                },
                {
                    "name": "F5",
                    "midi": 77,
                    "time": 164.26958899999912,
                    "velocity": 0.6141732283464567,
                    "duration": 0.22471899999999323
                },
                {
                    "name": "B5",
                    "midi": 83,
                    "time": 164.26958899999912,
                    "velocity": 0.6141732283464567,
                    "duration": 0.22471899999999323
                },
                {
                    "name": "B4",
                    "midi": 71,
                    "time": 164.4943079999991,
                    "velocity": 0.5354330708661418,
                    "duration": 0.44943799999998646
                },
                {
                    "name": "F#5",
                    "midi": 78,
                    "time": 164.4943079999991,
                    "velocity": 0.6377952755905512,
                    "duration": 0.44943799999998646
                },
                {
                    "name": "B5",
                    "midi": 83,
                    "time": 164.4943079999991,
                    "velocity": 0.6377952755905512,
                    "duration": 0.44943799999998646
                },
                {
                    "name": "A#4",
                    "midi": 70,
                    "time": 164.9437459999991,
                    "velocity": 0.5433070866141733,
                    "duration": 0.22471899999999323
                },
                {
                    "name": "F#5",
                    "midi": 78,
                    "time": 164.9437459999991,
                    "velocity": 0.6456692913385826,
                    "duration": 0.22471899999999323
                },
                {
                    "name": "A#5",
                    "midi": 82,
                    "time": 164.9437459999991,
                    "velocity": 0.6456692913385826,
                    "duration": 0.22471899999999323
                },
                {
                    "name": "A#6",
                    "midi": 94,
                    "time": 165.1684649999991,
                    "velocity": 0.7480314960629921,
                    "duration": 1.011235499999998
                },
                {
                    "name": "F#6",
                    "midi": 90,
                    "time": 165.1684649999991,
                    "velocity": 0.7480314960629921,
                    "duration": 1.011235499999998
                },
                {
                    "name": "A#5",
                    "midi": 82,
                    "time": 165.1684649999991,
                    "velocity": 0.6299212598425197,
                    "duration": 1.011235499999998
                },
                {
                    "name": "C6",
                    "midi": 84,
                    "time": 166.1797004999991,
                    "velocity": 0.6299212598425197,
                    "duration": 0.10299620833333734
                },
                {
                    "name": "F#5",
                    "midi": 78,
                    "time": 166.1797004999991,
                    "velocity": 0.6299212598425197,
                    "duration": 0.10299620833333734
                },
                {
                    "name": "C5",
                    "midi": 72,
                    "time": 166.1797004999991,
                    "velocity": 0.5354330708661418,
                    "duration": 0.10299620833333734
                },
                {
                    "name": "C5",
                    "midi": 72,
                    "time": 166.29205999999908,
                    "velocity": 0.5354330708661418,
                    "duration": 0.21535570833333395
                },
                {
                    "name": "F#5",
                    "midi": 78,
                    "time": 166.29205999999908,
                    "velocity": 0.6299212598425197,
                    "duration": 0.21535570833333395
                },
                {
                    "name": "C6",
                    "midi": 84,
                    "time": 166.29205999999908,
                    "velocity": 0.6299212598425197,
                    "duration": 0.21535570833333395
                },
                {
                    "name": "C5",
                    "midi": 72,
                    "time": 166.51677899999908,
                    "velocity": 0.6220472440944882,
                    "duration": 0.33707849999998984
                },
                {
                    "name": "F#5",
                    "midi": 78,
                    "time": 166.51677899999908,
                    "velocity": 0.7322834645669292,
                    "duration": 0.33707849999998984
                },
                {
                    "name": "C6",
                    "midi": 84,
                    "time": 166.51677899999908,
                    "velocity": 0.7322834645669292,
                    "duration": 0.33707849999998984
                },
                {
                    "name": "F6",
                    "midi": 89,
                    "time": 166.85385749999907,
                    "velocity": 0.7007874015748031,
                    "duration": 0.11235949999999661
                },
                {
                    "name": "G#5",
                    "midi": 80,
                    "time": 166.85385749999907,
                    "velocity": 0.7007874015748031,
                    "duration": 0.11235949999999661
                },
                {
                    "name": "F5",
                    "midi": 77,
                    "time": 166.85385749999907,
                    "velocity": 0.5905511811023622,
                    "duration": 0.11235949999999661
                },
                {
                    "name": "D#6",
                    "midi": 87,
                    "time": 166.96621699999906,
                    "velocity": 0.7244094488188977,
                    "duration": 0.22471899999999323
                },
                {
                    "name": "F#5",
                    "midi": 78,
                    "time": 166.96621699999906,
                    "velocity": 0.7244094488188977,
                    "duration": 0.22471899999999323
                },
                {
                    "name": "D#5",
                    "midi": 75,
                    "time": 166.96621699999906,
                    "velocity": 0.6141732283464567,
                    "duration": 0.22471899999999323
                },
                {
                    "name": "C#6",
                    "midi": 85,
                    "time": 167.19093599999906,
                    "velocity": 0.7952755905511811,
                    "duration": 0.11235949999999661
                },
                {
                    "name": "F5",
                    "midi": 77,
                    "time": 167.19093599999906,
                    "velocity": 0.7952755905511811,
                    "duration": 0.11235949999999661
                },
                {
                    "name": "C#5",
                    "midi": 73,
                    "time": 167.19093599999906,
                    "velocity": 0.6692913385826772,
                    "duration": 0.11235949999999661
                },
                {
                    "name": "F4",
                    "midi": 65,
                    "time": 167.86509299999906,
                    "velocity": 0.7637795275590551,
                    "duration": 0.11235949999999661
                },
                {
                    "name": "C#5",
                    "midi": 73,
                    "time": 167.97745249999906,
                    "velocity": 0.5905511811023622,
                    "duration": 0.11235949999999661
                },
                {
                    "name": "G#5",
                    "midi": 80,
                    "time": 168.08981199999906,
                    "velocity": 0.6220472440944882,
                    "duration": 0.11235949999999661
                },
                {
                    "name": "F5",
                    "midi": 77,
                    "time": 168.20217149999905,
                    "velocity": 0.6535433070866141,
                    "duration": 0.11235949999999661
                },
                {
                    "name": "C#6",
                    "midi": 85,
                    "time": 168.31453099999905,
                    "velocity": 0.6850393700787402,
                    "duration": 0.11235949999999661
                },
                {
                    "name": "A#6",
                    "midi": 94,
                    "time": 168.42689049999905,
                    "velocity": 0.7165354330708661,
                    "duration": 0.11235949999999661
                },
                {
                    "name": "C6",
                    "midi": 84,
                    "time": 168.53924999999904,
                    "velocity": 0.6771653543307087,
                    "duration": 0.22471899999999323
                },
                {
                    "name": "G#6",
                    "midi": 92,
                    "time": 168.53924999999904,
                    "velocity": 0.7559055118110236,
                    "duration": 0.22471899999999323
                },
                {
                    "name": "F#4",
                    "midi": 66,
                    "time": 169.21340699999902,
                    "velocity": 0.7637795275590551,
                    "duration": 0.11235949999999661
                },
                {
                    "name": "C5",
                    "midi": 72,
                    "time": 169.32576649999902,
                    "velocity": 0.5905511811023622,
                    "duration": 0.11235949999999661
                },
                {
                    "name": "G#5",
                    "midi": 80,
                    "time": 169.43812599999902,
                    "velocity": 0.6299212598425197,
                    "duration": 0.11235949999999661
                },
                {
                    "name": "F#5",
                    "midi": 78,
                    "time": 169.550485499999,
                    "velocity": 0.6614173228346457,
                    "duration": 0.11235949999999661
                },
                {
                    "name": "C6",
                    "midi": 84,
                    "time": 169.662844999999,
                    "velocity": 0.6929133858267716,
                    "duration": 0.11235949999999661
                },
                {
                    "name": "G#6",
                    "midi": 92,
                    "time": 169.775204499999,
                    "velocity": 0.7322834645669292,
                    "duration": 0.11235949999999661
                },
                {
                    "name": "C#6",
                    "midi": 85,
                    "time": 169.887563999999,
                    "velocity": 0.6850393700787402,
                    "duration": 0.22471899999999323
                },
                {
                    "name": "F6",
                    "midi": 89,
                    "time": 169.887563999999,
                    "velocity": 0.7637795275590551,
                    "duration": 0.22471899999999323
                },
                {
                    "name": "F4",
                    "midi": 65,
                    "time": 170.56172099999898,
                    "velocity": 0.7637795275590551,
                    "duration": 0.11235949999999661
                },
                {
                    "name": "C#5",
                    "midi": 73,
                    "time": 170.67408049999898,
                    "velocity": 0.5905511811023622,
                    "duration": 0.11235949999999661
                },
                {
                    "name": "G#5",
                    "midi": 80,
                    "time": 170.78643999999898,
                    "velocity": 0.6220472440944882,
                    "duration": 0.11235949999999661
                },
                {
                    "name": "F5",
                    "midi": 77,
                    "time": 170.89879949999897,
                    "velocity": 0.6535433070866141,
                    "duration": 0.11235949999999661
                },
                {
                    "name": "C#6",
                    "midi": 85,
                    "time": 171.01115899999897,
                    "velocity": 0.6850393700787402,
                    "duration": 0.11235949999999661
                },
                {
                    "name": "A#6",
                    "midi": 94,
                    "time": 171.12351849999897,
                    "velocity": 0.7165354330708661,
                    "duration": 0.11235949999999661
                },
                {
                    "name": "C6",
                    "midi": 84,
                    "time": 171.23587799999896,
                    "velocity": 0.6771653543307087,
                    "duration": 0.22471899999999323
                },
                {
                    "name": "G#6",
                    "midi": 92,
                    "time": 171.23587799999896,
                    "velocity": 0.7559055118110236,
                    "duration": 0.22471899999999323
                },
                {
                    "name": "F#4",
                    "midi": 66,
                    "time": 171.91003499999894,
                    "velocity": 0.7637795275590551,
                    "duration": 0.11235949999999661
                },
                {
                    "name": "C5",
                    "midi": 72,
                    "time": 172.02239449999894,
                    "velocity": 0.5905511811023622,
                    "duration": 0.11235949999999661
                },
                {
                    "name": "G#5",
                    "midi": 80,
                    "time": 172.13475399999894,
                    "velocity": 0.6299212598425197,
                    "duration": 0.11235949999999661
                },
                {
                    "name": "F#5",
                    "midi": 78,
                    "time": 172.24711349999893,
                    "velocity": 0.6614173228346457,
                    "duration": 0.11235949999999661
                },
                {
                    "name": "C6",
                    "midi": 84,
                    "time": 172.35947299999893,
                    "velocity": 0.6929133858267716,
                    "duration": 0.11235949999999661
                },
                {
                    "name": "G#6",
                    "midi": 92,
                    "time": 172.47183249999892,
                    "velocity": 0.7322834645669292,
                    "duration": 0.11235949999999661
                },
                {
                    "name": "C#6",
                    "midi": 85,
                    "time": 172.58419199999892,
                    "velocity": 0.7637795275590551,
                    "duration": 0.22471899999999323
                },
                {
                    "name": "F6",
                    "midi": 89,
                    "time": 172.58419199999892,
                    "velocity": 0.7637795275590551,
                    "duration": 0.22471899999999323
                },
                {
                    "name": "F4",
                    "midi": 65,
                    "time": 173.2583489999989,
                    "velocity": 0.7637795275590551,
                    "duration": 0.11235949999999661
                },
                {
                    "name": "C#5",
                    "midi": 73,
                    "time": 173.3707084999989,
                    "velocity": 0.5905511811023622,
                    "duration": 0.11235949999999661
                },
                {
                    "name": "G#5",
                    "midi": 80,
                    "time": 173.4830679999989,
                    "velocity": 0.6141732283464567,
                    "duration": 0.11235949999999661
                },
                {
                    "name": "F5",
                    "midi": 77,
                    "time": 173.5954274999989,
                    "velocity": 0.5905511811023622,
                    "duration": 0.11235949999999661
                },
                {
                    "name": "C#6",
                    "midi": 85,
                    "time": 173.7077869999989,
                    "velocity": 0.6220472440944882,
                    "duration": 0.11235949999999661
                },
                {
                    "name": "G#6",
                    "midi": 92,
                    "time": 173.82014649999888,
                    "velocity": 0.5905511811023622,
                    "duration": 0.11235949999999661
                },
                {
                    "name": "C#6",
                    "midi": 85,
                    "time": 173.93250599999888,
                    "velocity": 0.6141732283464567,
                    "duration": 0.11235949999999661
                },
                {
                    "name": "F5",
                    "midi": 77,
                    "time": 174.04486549999888,
                    "velocity": 0.5905511811023622,
                    "duration": 0.11235949999999661
                },
                {
                    "name": "G#5",
                    "midi": 80,
                    "time": 174.15722499999887,
                    "velocity": 0.6299212598425197,
                    "duration": 0.11235949999999661
                },
                {
                    "name": "C#5",
                    "midi": 73,
                    "time": 174.26958449999887,
                    "velocity": 0.5905511811023622,
                    "duration": 0.11235949999999661
                },
                {
                    "name": "F4",
                    "midi": 65,
                    "time": 174.38194399999887,
                    "velocity": 0.6220472440944882,
                    "duration": 0.11235949999999661
                },
                {
                    "name": "G#4",
                    "midi": 68,
                    "time": 174.49430349999886,
                    "velocity": 0.5905511811023622,
                    "duration": 0.11235949999999661
                },
                {
                    "name": "C#4",
                    "midi": 61,
                    "time": 174.60666299999886,
                    "velocity": 0.6141732283464567,
                    "duration": 0.11235949999999661
                },
                {
                    "name": "F3",
                    "midi": 53,
                    "time": 174.71902249999886,
                    "velocity": 0.6062992125984252,
                    "duration": 0.11235949999999661
                },
                {
                    "name": "G#3",
                    "midi": 56,
                    "time": 174.83138199999885,
                    "velocity": 0.6456692913385826,
                    "duration": 0.11235949999999661
                },
                {
                    "name": "C#3",
                    "midi": 49,
                    "time": 174.94374149999885,
                    "velocity": 0.6220472440944882,
                    "duration": 0.11235949999999661
                },
                {
                    "name": "F2",
                    "midi": 41,
                    "time": 175.05610099999885,
                    "velocity": 0.6850393700787402,
                    "duration": 0.11235949999999661
                },
                {
                    "name": "C#3",
                    "midi": 49,
                    "time": 175.16846049999884,
                    "velocity": 0.6692913385826772,
                    "duration": 0.11235949999999661
                },
                {
                    "name": "C#7",
                    "midi": 97,
                    "time": 175.95497699999885,
                    "velocity": 0.7952755905511811,
                    "duration": 0.6741570000000081
                },
                {
                    "name": "C#6",
                    "midi": 85,
                    "time": 175.95497699999885,
                    "velocity": 0.6692913385826772,
                    "duration": 0.6741570000000081
                },
                {
                    "name": "E3",
                    "midi": 52,
                    "time": 177.97744799999884,
                    "velocity": 0.3464566929133858,
                    "duration": 0.6741570000000081
                },
                {
                    "name": "C#4",
                    "midi": 61,
                    "time": 177.97744799999884,
                    "velocity": 0.4094488188976378,
                    "duration": 0.6741570000000081
                },
                {
                    "name": "E4",
                    "midi": 64,
                    "time": 177.97744799999884,
                    "velocity": 0.4094488188976378,
                    "duration": 0.6741570000000081
                },
                {
                    "name": "F#3",
                    "midi": 54,
                    "time": 178.65160499999885,
                    "velocity": 0.29133858267716534,
                    "duration": 0.6741570000000081
                },
                {
                    "name": "C#4",
                    "midi": 61,
                    "time": 178.65160499999885,
                    "velocity": 0.3464566929133858,
                    "duration": 0.8988760000000013
                },
                {
                    "name": "F#4",
                    "midi": 66,
                    "time": 178.65160499999885,
                    "velocity": 0.3464566929133858,
                    "duration": 2.0224709999999675
                },
                {
                    "name": "B3",
                    "midi": 59,
                    "time": 179.55048099999885,
                    "velocity": 0.44881889763779526,
                    "duration": 0.22471899999999323
                },
                {
                    "name": "C#4",
                    "midi": 61,
                    "time": 179.77519999999885,
                    "velocity": 0.44881889763779526,
                    "duration": 0.22471899999999323
                },
                {
                    "name": "E4",
                    "midi": 64,
                    "time": 179.99991899999884,
                    "velocity": 0.47244094488188976,
                    "duration": 0.22471899999999323
                },
                {
                    "name": "D4",
                    "midi": 62,
                    "time": 180.22463799999883,
                    "velocity": 0.4409448818897638,
                    "duration": 0.22471899999999323
                },
                {
                    "name": "C#4",
                    "midi": 61,
                    "time": 180.44935699999883,
                    "velocity": 0.4409448818897638,
                    "duration": 0.21535570833333395
                },
                {
                    "name": "E3",
                    "midi": 52,
                    "time": 180.67407599999882,
                    "velocity": 0.3464566929133858,
                    "duration": 0.6741570000000081
                },
                {
                    "name": "C#4",
                    "midi": 61,
                    "time": 180.67407599999882,
                    "velocity": 0.4094488188976378,
                    "duration": 0.6741570000000081
                },
                {
                    "name": "E4",
                    "midi": 64,
                    "time": 180.67407599999882,
                    "velocity": 0.4094488188976378,
                    "duration": 0.6741570000000081
                },
                {
                    "name": "F#3",
                    "midi": 54,
                    "time": 181.34823299999883,
                    "velocity": 0.29133858267716534,
                    "duration": 0.6741570000000081
                },
                {
                    "name": "C#4",
                    "midi": 61,
                    "time": 181.34823299999883,
                    "velocity": 0.3464566929133858,
                    "duration": 0.8988760000000013
                },
                {
                    "name": "F#4",
                    "midi": 66,
                    "time": 181.34823299999883,
                    "velocity": 0.3464566929133858,
                    "duration": 2.0224709999999675
                },
                {
                    "name": "B3",
                    "midi": 59,
                    "time": 182.24710899999883,
                    "velocity": 0.44881889763779526,
                    "duration": 0.22471899999999323
                },
                {
                    "name": "C#4",
                    "midi": 61,
                    "time": 182.47182799999882,
                    "velocity": 0.44881889763779526,
                    "duration": 0.22471899999999323
                },
                {
                    "name": "E4",
                    "midi": 64,
                    "time": 182.69654699999882,
                    "velocity": 0.47244094488188976,
                    "duration": 0.22471899999999323
                },
                {
                    "name": "D4",
                    "midi": 62,
                    "time": 182.9212659999988,
                    "velocity": 0.4409448818897638,
                    "duration": 0.33707849999998984
                },
                {
                    "name": "C#4",
                    "midi": 61,
                    "time": 183.2583444999988,
                    "velocity": 0.4409448818897638,
                    "duration": 0.10299620833333734
                },
                {
                    "name": "G#3",
                    "midi": 56,
                    "time": 183.3707039999988,
                    "velocity": 0.29133858267716534,
                    "duration": 1.1235949999999946
                },
                {
                    "name": "C#4",
                    "midi": 61,
                    "time": 183.3707039999988,
                    "velocity": 0.3464566929133858,
                    "duration": 0.6741570000000081
                },
                {
                    "name": "E4",
                    "midi": 64,
                    "time": 183.3707039999988,
                    "velocity": 0.3464566929133858,
                    "duration": 1.3483139999999878
                },
                {
                    "name": "B3",
                    "midi": 59,
                    "time": 184.0448609999988,
                    "velocity": 0.29133858267716534,
                    "duration": 0.44943799999998646
                },
                {
                    "name": "A3",
                    "midi": 57,
                    "time": 184.4942989999988,
                    "velocity": 0.25196850393700787,
                    "duration": 0.22471899999999323
                },
                {
                    "name": "C#4",
                    "midi": 61,
                    "time": 184.71901799999878,
                    "velocity": 0.23622047244094488,
                    "duration": 1.3483139999999878
                },
                {
                    "name": "C#5",
                    "midi": 73,
                    "time": 186.06733199999877,
                    "velocity": 0.41732283464566927,
                    "duration": 0.5617975000000115
                },
                {
                    "name": "B4",
                    "midi": 71,
                    "time": 186.62912949999878,
                    "velocity": 0.3543307086614173,
                    "duration": 0.05617975000001252
                },
                {
                    "name": "C#5",
                    "midi": 73,
                    "time": 186.6853092499988,
                    "velocity": 0.3543307086614173,
                    "duration": 0.05617975000001252
                },
                {
                    "name": "B4",
                    "midi": 71,
                    "time": 186.7414889999988,
                    "velocity": 0.3937007874015748,
                    "duration": 0.33707849999998984
                },
                {
                    "name": "A4",
                    "midi": 69,
                    "time": 187.0785674999988,
                    "velocity": 0.3700787401574803,
                    "duration": 0.11235949999999661
                },
                {
                    "name": "B4",
                    "midi": 71,
                    "time": 187.1909269999988,
                    "velocity": 0.3937007874015748,
                    "duration": 0.22471899999999323
                },
                {
                    "name": "C#5",
                    "midi": 73,
                    "time": 187.4156459999988,
                    "velocity": 0.41732283464566927,
                    "duration": 0.33707849999998984
                },
                {
                    "name": "D5",
                    "midi": 74,
                    "time": 187.75272449999878,
                    "velocity": 0.3937007874015748,
                    "duration": 0.11235949999999661
                },
                {
                    "name": "C#5",
                    "midi": 73,
                    "time": 187.86508399999877,
                    "velocity": 0.3779527559055118,
                    "duration": 0.11235949999999661
                },
                {
                    "name": "B4",
                    "midi": 71,
                    "time": 187.97744349999877,
                    "velocity": 0.33858267716535434,
                    "duration": 0.05617975000001252
                },
                {
                    "name": "C#5",
                    "midi": 73,
                    "time": 188.03362324999878,
                    "velocity": 0.33858267716535434,
                    "duration": 0.05617975000001252
                },
                {
                    "name": "B4",
                    "midi": 71,
                    "time": 188.0898029999988,
                    "velocity": 0.4094488188976378,
                    "duration": 0.33707849999998984
                },
                {
                    "name": "A4",
                    "midi": 69,
                    "time": 188.42688149999879,
                    "velocity": 0.3779527559055118,
                    "duration": 0.11235949999999661
                },
                {
                    "name": "B4",
                    "midi": 71,
                    "time": 188.53924099999878,
                    "velocity": 0.3700787401574803,
                    "duration": 0.22471899999999323
                },
                {
                    "name": "C#5",
                    "midi": 73,
                    "time": 188.76395999999878,
                    "velocity": 0.30708661417322836,
                    "duration": 0.11235949999999661
                },
                {
                    "name": "C#4",
                    "midi": 61,
                    "time": 188.87631949999877,
                    "velocity": 0.2283464566929134,
                    "duration": 0.11235949999999661
                },
                {
                    "name": "C#5",
                    "midi": 73,
                    "time": 188.98867899999877,
                    "velocity": 0.2283464566929134,
                    "duration": 0.11235949999999661
                },
                {
                    "name": "G#4",
                    "midi": 68,
                    "time": 189.10103849999877,
                    "velocity": 0.2283464566929134,
                    "duration": 0.11235949999999661
                },
                {
                    "name": "C#5",
                    "midi": 73,
                    "time": 189.21339799999876,
                    "velocity": 0.2283464566929134,
                    "duration": 0.11235949999999661
                },
                {
                    "name": "G#4",
                    "midi": 68,
                    "time": 189.32575749999876,
                    "velocity": 0.2283464566929134,
                    "duration": 0.11235949999999661
                },
                {
                    "name": "G#5",
                    "midi": 80,
                    "time": 189.43811699999875,
                    "velocity": 0.2283464566929134,
                    "duration": 0.11235949999999661
                },
                {
                    "name": "C#5",
                    "midi": 73,
                    "time": 189.55047649999875,
                    "velocity": 0.2283464566929134,
                    "duration": 0.11235949999999661
                },
                {
                    "name": "G#5",
                    "midi": 80,
                    "time": 189.66283599999875,
                    "velocity": 0.2283464566929134,
                    "duration": 0.11235949999999661
                },
                {
                    "name": "C#5",
                    "midi": 73,
                    "time": 189.77519549999874,
                    "velocity": 0.2283464566929134,
                    "duration": 0.11235949999999661
                },
                {
                    "name": "C#6",
                    "midi": 85,
                    "time": 189.88755499999874,
                    "velocity": 0.2283464566929134,
                    "duration": 0.11235949999999661
                },
                {
                    "name": "G#5",
                    "midi": 80,
                    "time": 189.99991449999874,
                    "velocity": 0.2283464566929134,
                    "duration": 0.11235949999999661
                },
                {
                    "name": "C#6",
                    "midi": 85,
                    "time": 190.11227399999873,
                    "velocity": 0.2283464566929134,
                    "duration": 0.11235949999999661
                },
                {
                    "name": "G#5",
                    "midi": 80,
                    "time": 190.22463349999873,
                    "velocity": 0.2283464566929134,
                    "duration": 0.11235949999999661
                },
                {
                    "name": "G#6",
                    "midi": 92,
                    "time": 190.33699299999873,
                    "velocity": 0.2283464566929134,
                    "duration": 0.11235949999999661
                },
                {
                    "name": "C#6",
                    "midi": 85,
                    "time": 190.44935249999872,
                    "velocity": 0.2283464566929134,
                    "duration": 0.11235949999999661
                },
                {
                    "name": "G#6",
                    "midi": 92,
                    "time": 190.56171199999872,
                    "velocity": 0.2283464566929134,
                    "duration": 0.11235949999999661
                },
                {
                    "name": "C#6",
                    "midi": 85,
                    "time": 190.67407149999872,
                    "velocity": 0.2283464566929134,
                    "duration": 0.11235949999999661
                },
                {
                    "name": "C#7",
                    "midi": 97,
                    "time": 190.78643099999871,
                    "velocity": 0.30708661417322836,
                    "duration": 0.11235949999999661
                },
                {
                    "name": "E3",
                    "midi": 52,
                    "time": 191.46058799999872,
                    "velocity": 0.3464566929133858,
                    "duration": 0.6741570000000081
                },
                {
                    "name": "C#4",
                    "midi": 61,
                    "time": 191.46058799999872,
                    "velocity": 0.4094488188976378,
                    "duration": 1.5730330000000095
                },
                {
                    "name": "E4",
                    "midi": 64,
                    "time": 191.46058799999872,
                    "velocity": 0.4094488188976378,
                    "duration": 0.6741570000000081
                },
                {
                    "name": "F#3",
                    "midi": 54,
                    "time": 192.13474499999873,
                    "velocity": 0.29133858267716534,
                    "duration": 0.6741570000000081
                },
                {
                    "name": "F#4",
                    "midi": 66,
                    "time": 192.13474499999873,
                    "velocity": 0.3464566929133858,
                    "duration": 2.0224709999999675
                },
                {
                    "name": "B3",
                    "midi": 59,
                    "time": 193.03362099999873,
                    "velocity": 0.44881889763779526,
                    "duration": 0.22471899999999323
                },
                {
                    "name": "C#4",
                    "midi": 61,
                    "time": 193.25833999999873,
                    "velocity": 0.44881889763779526,
                    "duration": 0.22471899999999323
                },
                {
                    "name": "E4",
                    "midi": 64,
                    "time": 193.48305899999872,
                    "velocity": 0.47244094488188976,
                    "duration": 0.22471899999999323
                },
                {
                    "name": "D4",
                    "midi": 62,
                    "time": 193.7077779999987,
                    "velocity": 0.4409448818897638,
                    "duration": 0.22471899999999323
                },
                {
                    "name": "C#4",
                    "midi": 61,
                    "time": 193.9324969999987,
                    "velocity": 0.4409448818897638,
                    "duration": 0.22471899999999323
                },
                {
                    "name": "E3",
                    "midi": 52,
                    "time": 194.1572159999987,
                    "velocity": 0.3464566929133858,
                    "duration": 0.6741570000000081
                },
                {
                    "name": "C#4",
                    "midi": 61,
                    "time": 194.1572159999987,
                    "velocity": 0.4094488188976378,
                    "duration": 1.5730330000000095
                },
                {
                    "name": "E4",
                    "midi": 64,
                    "time": 194.1572159999987,
                    "velocity": 0.4094488188976378,
                    "duration": 0.6741570000000081
                },
                {
                    "name": "F#3",
                    "midi": 54,
                    "time": 194.8313729999987,
                    "velocity": 0.29133858267716534,
                    "duration": 2.696627999999947
                },
                {
                    "name": "F#4",
                    "midi": 66,
                    "time": 194.8313729999987,
                    "velocity": 0.3464566929133858,
                    "duration": 2.0224709999999675
                },
                {
                    "name": "B3",
                    "midi": 59,
                    "time": 195.7302489999987,
                    "velocity": 0.44881889763779526,
                    "duration": 0.22471899999999323
                },
                {
                    "name": "C#4",
                    "midi": 61,
                    "time": 195.9549679999987,
                    "velocity": 0.44881889763779526,
                    "duration": 0.22471899999999323
                },
                {
                    "name": "E4",
                    "midi": 64,
                    "time": 196.1796869999987,
                    "velocity": 0.47244094488188976,
                    "duration": 0.22471899999999323
                },
                {
                    "name": "D4",
                    "midi": 62,
                    "time": 196.4044059999987,
                    "velocity": 0.4409448818897638,
                    "duration": 0.33707849999998984
                },
                {
                    "name": "C#4",
                    "midi": 61,
                    "time": 196.74148449999868,
                    "velocity": 0.4409448818897638,
                    "duration": 0.04681645833332482
                },
                {
                    "name": "C#4",
                    "midi": 61,
                    "time": 196.79766424999866,
                    "velocity": 0.3937007874015748,
                    "duration": 0.05617975000001252
                },
                {
                    "name": "A4",
                    "midi": 69,
                    "time": 196.85384399999867,
                    "velocity": 0.4409448818897638,
                    "duration": 0.22471899999999323
                },
                {
                    "name": "F#4",
                    "midi": 66,
                    "time": 197.07856299999867,
                    "velocity": 0.41732283464566927,
                    "duration": 0.22471899999999323
                },
                {
                    "name": "D4",
                    "midi": 62,
                    "time": 197.30328199999866,
                    "velocity": 0.4015748031496063,
                    "duration": 0.22471899999999323
                },
                {
                    "name": "G#3",
                    "midi": 56,
                    "time": 197.52800099999865,
                    "velocity": 0.29133858267716534,
                    "duration": 1.1235949999999946
                },
                {
                    "name": "C#4",
                    "midi": 61,
                    "time": 197.52800099999865,
                    "velocity": 0.3464566929133858,
                    "duration": 0.6741570000000081
                },
                {
                    "name": "E4",
                    "midi": 64,
                    "time": 197.52800099999865,
                    "velocity": 0.3464566929133858,
                    "duration": 1.3483139999999878
                },
                {
                    "name": "B3",
                    "midi": 59,
                    "time": 198.20215799999866,
                    "velocity": 0.29133858267716534,
                    "duration": 0.44943799999998646
                },
                {
                    "name": "A3",
                    "midi": 57,
                    "time": 198.65159599999865,
                    "velocity": 0.25196850393700787,
                    "duration": 0.22471899999999323
                },
                {
                    "name": "C#4",
                    "midi": 61,
                    "time": 198.87631499999864,
                    "velocity": 0.23622047244094488,
                    "duration": 1.3483139999999878
                },
                {
                    "name": "C#5",
                    "midi": 73,
                    "time": 200.89878599999864,
                    "velocity": 0.33070866141732286,
                    "duration": 1.4606735000000128
                },
                {
                    "name": "D#5",
                    "midi": 75,
                    "time": 202.35945949999865,
                    "velocity": 0.33070866141732286,
                    "duration": 0.11235949999999661
                },
                {
                    "name": "F#5",
                    "midi": 78,
                    "time": 202.47181899999865,
                    "velocity": 0.33858267716535434,
                    "duration": 0.11235949999999661
                },
                {
                    "name": "E5",
                    "midi": 76,
                    "time": 202.58417849999864,
                    "velocity": 0.3228346456692913,
                    "duration": 0.11235949999999661
                },
                {
                    "name": "C#5",
                    "midi": 73,
                    "time": 202.69653799999864,
                    "velocity": 0.30708661417322836,
                    "duration": 0.11235949999999661
                },
                {
                    "name": "A4",
                    "midi": 69,
                    "time": 202.80889749999864,
                    "velocity": 0.30708661417322836,
                    "duration": 0.11235949999999661
                },
                {
                    "name": "G#4",
                    "midi": 68,
                    "time": 202.92125699999863,
                    "velocity": 0.2755905511811024,
                    "duration": 0.02808987500000626
                },
                {
                    "name": "G#4",
                    "midi": 68,
                    "time": 202.97743674999865,
                    "velocity": 0.2755905511811024,
                    "duration": 0.05617975000001252
                },
                {
                    "name": "G#5",
                    "midi": 80,
                    "time": 203.03361649999866,
                    "velocity": 0.33858267716535434,
                    "duration": 0.44943799999998646
                },
                {
                    "name": "F#5",
                    "midi": 78,
                    "time": 203.48305449999864,
                    "velocity": 0.29133858267716534,
                    "duration": 0.05617975000001252
                },
                {
                    "name": "G#5",
                    "midi": 80,
                    "time": 203.53923424999866,
                    "velocity": 0.29133858267716534,
                    "duration": 0.05617975000001252
                },
                {
                    "name": "F#5",
                    "midi": 78,
                    "time": 203.59541399999867,
                    "velocity": 0.33858267716535434,
                    "duration": 0.33707849999998984
                },
                {
                    "name": "E5",
                    "midi": 76,
                    "time": 203.93249249999866,
                    "velocity": 0.30708661417322836,
                    "duration": 0.11235949999999661
                },
                {
                    "name": "F#5",
                    "midi": 78,
                    "time": 204.04485199999866,
                    "velocity": 0.30708661417322836,
                    "duration": 0.22471899999999323
                },
                {
                    "name": "G#5",
                    "midi": 80,
                    "time": 204.26957099999865,
                    "velocity": 0.33070866141732286,
                    "duration": 0.33707849999998984
                },
                {
                    "name": "A5",
                    "midi": 81,
                    "time": 204.60664949999864,
                    "velocity": 0.31496062992125984,
                    "duration": 0.11235949999999661
                },
                {
                    "name": "G#5",
                    "midi": 80,
                    "time": 204.71900899999864,
                    "velocity": 0.31496062992125984,
                    "duration": 0.11235949999999661
                },
                {
                    "name": "F#5",
                    "midi": 78,
                    "time": 204.83136849999863,
                    "velocity": 0.29133858267716534,
                    "duration": 0.05617975000001252
                },
                {
                    "name": "G#5",
                    "midi": 80,
                    "time": 204.88754824999864,
                    "velocity": 0.29133858267716534,
                    "duration": 0.05617975000001252
                },
                {
                    "name": "F#5",
                    "midi": 78,
                    "time": 204.94372799999866,
                    "velocity": 0.3464566929133858,
                    "duration": 0.33707849999998984
                },
                {
                    "name": "E5",
                    "midi": 76,
                    "time": 205.28080649999865,
                    "velocity": 0.25984251968503935,
                    "duration": 0.11235949999999661
                },
                {
                    "name": "F#5",
                    "midi": 78,
                    "time": 205.39316599999864,
                    "velocity": 0.2440944881889764,
                    "duration": 0.22471899999999323
                },
                {
                    "name": "G#5",
                    "midi": 80,
                    "time": 205.61788499999864,
                    "velocity": 0.2440944881889764,
                    "duration": 1.011235499999998
                },
                {
                    "name": "G#4",
                    "midi": 68,
                    "time": 206.62912049999863,
                    "velocity": 0.1968503937007874,
                    "duration": 0.11235949999999661
                },
                {
                    "name": "G#5",
                    "midi": 80,
                    "time": 206.74147999999863,
                    "velocity": 0.1968503937007874,
                    "duration": 0.11235949999999661
                },
                {
                    "name": "D#5",
                    "midi": 75,
                    "time": 206.85383949999863,
                    "velocity": 0.1968503937007874,
                    "duration": 0.11235949999999661
                },
                {
                    "name": "G#5",
                    "midi": 80,
                    "time": 206.96619899999862,
                    "velocity": 0.1968503937007874,
                    "duration": 0.11235949999999661
                },
                {
                    "name": "D#5",
                    "midi": 75,
                    "time": 207.07855849999862,
                    "velocity": 0.1968503937007874,
                    "duration": 0.11235949999999661
                },
                {
                    "name": "D#6",
                    "midi": 87,
                    "time": 207.19091799999862,
                    "velocity": 0.16535433070866143,
                    "duration": 0.11235949999999661
                },
                {
                    "name": "G#5",
                    "midi": 80,
                    "time": 207.30327749999861,
                    "velocity": 0.16535433070866143,
                    "duration": 0.11235949999999661
                },
                {
                    "name": "D#6",
                    "midi": 87,
                    "time": 207.4156369999986,
                    "velocity": 0.16535433070866143,
                    "duration": 0.11235949999999661
                },
                {
                    "name": "G#5",
                    "midi": 80,
                    "time": 207.5279964999986,
                    "velocity": 0.16535433070866143,
                    "duration": 0.11235949999999661
                },
                {
                    "name": "G#6",
                    "midi": 92,
                    "time": 207.6403559999986,
                    "velocity": 0.2204724409448819,
                    "duration": 0.11235949999999661
                },
                {
                    "name": "G#5",
                    "midi": 80,
                    "time": 207.8650749999986,
                    "velocity": 0.3464566929133858,
                    "duration": 0.22471899999999323
                },
                {
                    "name": "F#5",
                    "midi": 78,
                    "time": 208.0897939999986,
                    "velocity": 0.3464566929133858,
                    "duration": 0.22471899999999323
                },
                {
                    "name": "E5",
                    "midi": 76,
                    "time": 208.31451299999858,
                    "velocity": 0.3543307086614173,
                    "duration": 0.8988759999999729
                },
                {
                    "name": "G4",
                    "midi": 67,
                    "time": 208.53923199999858,
                    "velocity": 0.2677165354330709,
                    "duration": 0.11235949999999661
                },
                {
                    "name": "G#4",
                    "midi": 68,
                    "time": 208.65159149999857,
                    "velocity": 0.2677165354330709,
                    "duration": 0.11235949999999661
                },
                {
                    "name": "B4",
                    "midi": 71,
                    "time": 208.76395099999857,
                    "velocity": 0.2677165354330709,
                    "duration": 0.07490633333333108
                },
                {
                    "name": "A4",
                    "midi": 69,
                    "time": 208.8388573333319,
                    "velocity": 0.2677165354330709,
                    "duration": 0.07490633333333108
                },
                {
                    "name": "G#4",
                    "midi": 68,
                    "time": 208.91376366666523,
                    "velocity": 0.2677165354330709,
                    "duration": 0.07490633333333108
                },
                {
                    "name": "G#4",
                    "midi": 68,
                    "time": 208.98866999999856,
                    "velocity": 0.33858267716535434,
                    "duration": 0.8988759999999729
                },
                {
                    "name": "E5",
                    "midi": 76,
                    "time": 209.21338899999856,
                    "velocity": 0.33070866141732286,
                    "duration": 0.22471899999999323
                },
                {
                    "name": "D#5",
                    "midi": 75,
                    "time": 209.43810799999855,
                    "velocity": 0.33070866141732286,
                    "duration": 0.22471899999999323
                },
                {
                    "name": "C#5",
                    "midi": 73,
                    "time": 209.66282699999854,
                    "velocity": 0.3464566929133858,
                    "duration": 0.22471899999999323
                },
                {
                    "name": "G4",
                    "midi": 67,
                    "time": 209.88754599999854,
                    "velocity": 0.28346456692913385,
                    "duration": 0.11235949999999661
                },
                {
                    "name": "G#4",
                    "midi": 68,
                    "time": 209.99990549999853,
                    "velocity": 0.25196850393700787,
                    "duration": 0.11235949999999661
                },
                {
                    "name": "B4",
                    "midi": 71,
                    "time": 210.11226499999853,
                    "velocity": 0.28346456692913385,
                    "duration": 0.07490633333333108
                },
                {
                    "name": "A4",
                    "midi": 69,
                    "time": 210.18717133333186,
                    "velocity": 0.28346456692913385,
                    "duration": 0.07490633333333108
                },
                {
                    "name": "G#4",
                    "midi": 68,
                    "time": 210.2620776666652,
                    "velocity": 0.25196850393700787,
                    "duration": 0.07490633333333108
                },
                {
                    "name": "G#4",
                    "midi": 68,
                    "time": 210.33698399999852,
                    "velocity": 0.3464566929133858,
                    "duration": 0.8988759999999729
                },
                {
                    "name": "G#5",
                    "midi": 80,
                    "time": 210.56170299999852,
                    "velocity": 0.33858267716535434,
                    "duration": 0.22471899999999323
                },
                {
                    "name": "F#5",
                    "midi": 78,
                    "time": 210.7864219999985,
                    "velocity": 0.31496062992125984,
                    "duration": 0.22471899999999323
                },
                {
                    "name": "E5",
                    "midi": 76,
                    "time": 211.0111409999985,
                    "velocity": 0.36220472440944884,
                    "duration": 0.8988759999999729
                },
                {
                    "name": "G4",
                    "midi": 67,
                    "time": 211.2358599999985,
                    "velocity": 0.2992125984251969,
                    "duration": 0.11235949999999661
                },
                {
                    "name": "G#4",
                    "midi": 68,
                    "time": 211.3482194999985,
                    "velocity": 0.2677165354330709,
                    "duration": 0.11235949999999661
                },
                {
                    "name": "B4",
                    "midi": 71,
                    "time": 211.4605789999985,
                    "velocity": 0.2992125984251969,
                    "duration": 0.07490633333333108
                },
                {
                    "name": "A4",
                    "midi": 69,
                    "time": 211.53548533333182,
                    "velocity": 0.2992125984251969,
                    "duration": 0.07490633333333108
                },
                {
                    "name": "G#4",
                    "midi": 68,
                    "time": 211.61039166666515,
                    "velocity": 0.2755905511811024,
                    "duration": 0.07490633333333108
                },
                {
                    "name": "G#4",
                    "midi": 68,
                    "time": 211.68529799999848,
                    "velocity": 0.33070866141732286,
                    "duration": 0.6741569999999797
                },
                {
                    "name": "E5",
                    "midi": 76,
                    "time": 211.91001699999848,
                    "velocity": 0.33858267716535434,
                    "duration": 0.22471899999999323
                },
                {
                    "name": "D#5",
                    "midi": 75,
                    "time": 212.13473599999847,
                    "velocity": 0.3228346456692913,
                    "duration": 0.22471899999999323
                },
                {
                    "name": "C#5",
                    "midi": 73,
                    "time": 212.35945499999846,
                    "velocity": 0.3700787401574803,
                    "duration": 0.22471899999999323
                },
                {
                    "name": "C5",
                    "midi": 72,
                    "time": 212.58417399999846,
                    "velocity": 0.29133858267716534,
                    "duration": 0.11235949999999661
                },
                {
                    "name": "C#5",
                    "midi": 73,
                    "time": 212.69653349999845,
                    "velocity": 0.29133858267716534,
                    "duration": 0.11235949999999661
                },
                {
                    "name": "E5",
                    "midi": 76,
                    "time": 212.80889299999845,
                    "velocity": 0.29133858267716534,
                    "duration": 0.07490633333333108
                },
                {
                    "name": "D5",
                    "midi": 74,
                    "time": 212.88379933333178,
                    "velocity": 0.29133858267716534,
                    "duration": 0.07490633333333108
                },
                {
                    "name": "C#5",
                    "midi": 73,
                    "time": 212.9587056666651,
                    "velocity": 0.2677165354330709,
                    "duration": 0.07490633333333108
                },
                {
                    "name": "C#5",
                    "midi": 73,
                    "time": 213.03361199999844,
                    "velocity": 0.3228346456692913,
                    "duration": 0.8988759999999729
                },
                {
                    "name": "C#6",
                    "midi": 85,
                    "time": 213.25833099999844,
                    "velocity": 0.36220472440944884,
                    "duration": 0.22471899999999323
                },
                {
                    "name": "B5",
                    "midi": 83,
                    "time": 213.48304999999843,
                    "velocity": 0.3464566929133858,
                    "duration": 0.22471899999999323
                },
                {
                    "name": "A5",
                    "midi": 81,
                    "time": 213.70776899999842,
                    "velocity": 0.41732283464566927,
                    "duration": 0.8988759999999729
                },
                {
                    "name": "C5",
                    "midi": 72,
                    "time": 213.93248799999841,
                    "velocity": 0.25196850393700787,
                    "duration": 0.11235949999999661
                },
                {
                    "name": "C#5",
                    "midi": 73,
                    "time": 214.0448474999984,
                    "velocity": 0.23622047244094488,
                    "duration": 0.11235949999999661
                },
                {
                    "name": "E5",
                    "midi": 76,
                    "time": 214.1572069999984,
                    "velocity": 0.25196850393700787,
                    "duration": 0.07490633333333108
                },
                {
                    "name": "D5",
                    "midi": 74,
                    "time": 214.23211333333174,
                    "velocity": 0.25196850393700787,
                    "duration": 0.07490633333333108
                },
                {
                    "name": "C#5",
                    "midi": 73,
                    "time": 214.30701966666507,
                    "velocity": 0.23622047244094488,
                    "duration": 0.07490633333333108
                },
                {
                    "name": "C#5",
                    "midi": 73,
                    "time": 214.3819259999984,
                    "velocity": 0.29133858267716534,
                    "duration": 0.8988759999999729
                },
                {
                    "name": "A5",
                    "midi": 81,
                    "time": 214.6066449999984,
                    "velocity": 0.2992125984251969,
                    "duration": 0.22471899999999323
                },
                {
                    "name": "G#5",
                    "midi": 80,
                    "time": 214.8313639999984,
                    "velocity": 0.28346456692913385,
                    "duration": 0.22471899999999323
                },
                {
                    "name": "F#5",
                    "midi": 78,
                    "time": 215.05608299999838,
                    "velocity": 0.31496062992125984,
                    "duration": 0.22471899999999323
                },
                {
                    "name": "C5",
                    "midi": 72,
                    "time": 215.28080199999837,
                    "velocity": 0.2125984251968504,
                    "duration": 0.11235949999999661
                },
                {
                    "name": "C#5",
                    "midi": 73,
                    "time": 215.39316149999837,
                    "velocity": 0.2204724409448819,
                    "duration": 0.11235949999999661
                },
                {
                    "name": "E5",
                    "midi": 76,
                    "time": 215.50552099999837,
                    "velocity": 0.23622047244094488,
                    "duration": 0.07490633333333108
                },
                {
                    "name": "D5",
                    "midi": 74,
                    "time": 215.5804273333317,
                    "velocity": 0.23622047244094488,
                    "duration": 0.07490633333333108
                },
                {
                    "name": "C#5",
                    "midi": 73,
                    "time": 215.65533366666503,
                    "velocity": 0.2125984251968504,
                    "duration": 0.07490633333333108
                },
                {
                    "name": "C#5",
                    "midi": 73,
                    "time": 215.73023999999836,
                    "velocity": 0.2992125984251969,
                    "duration": 0.8988759999999729
                },
                {
                    "name": "C#6",
                    "midi": 85,
                    "time": 215.95495899999835,
                    "velocity": 0.31496062992125984,
                    "duration": 0.22471899999999323
                },
                {
                    "name": "B5",
                    "midi": 83,
                    "time": 216.17967799999835,
                    "velocity": 0.29133858267716534,
                    "duration": 0.22471899999999323
                },
                {
                    "name": "A5",
                    "midi": 81,
                    "time": 216.40439699999834,
                    "velocity": 0.3543307086614173,
                    "duration": 0.8988759999999729
                },
                {
                    "name": "C5",
                    "midi": 72,
                    "time": 216.62911599999833,
                    "velocity": 0.29133858267716534,
                    "duration": 0.11235949999999661
                },
                {
                    "name": "C#5",
                    "midi": 73,
                    "time": 216.74147549999833,
                    "velocity": 0.29133858267716534,
                    "duration": 0.11235949999999661
                },
                {
                    "name": "E5",
                    "midi": 76,
                    "time": 216.85383499999833,
                    "velocity": 0.29133858267716534,
                    "duration": 0.07490633333333108
                },
                {
                    "name": "D5",
                    "midi": 74,
                    "time": 216.92874133333166,
                    "velocity": 0.29133858267716534,
                    "duration": 0.07490633333333108
                },
                {
                    "name": "C#5",
                    "midi": 73,
                    "time": 217.003647666665,
                    "velocity": 0.2677165354330709,
                    "duration": 0.07490633333333108
                },
                {
                    "name": "C#5",
                    "midi": 73,
                    "time": 217.07855399999832,
                    "velocity": 0.33070866141732286,
                    "duration": 0.8988759999999729
                },
                {
                    "name": "A5",
                    "midi": 81,
                    "time": 217.3032729999983,
                    "velocity": 0.3464566929133858,
                    "duration": 0.22471899999999323
                },
                {
                    "name": "G#5",
                    "midi": 80,
                    "time": 217.5279919999983,
                    "velocity": 0.33070866141732286,
                    "duration": 0.22471899999999323
                },
                {
                    "name": "F#5",
                    "midi": 78,
                    "time": 217.7527109999983,
                    "velocity": 0.3700787401574803,
                    "duration": 0.8988759999999729
                },
                {
                    "name": "C5",
                    "midi": 72,
                    "time": 217.9774299999983,
                    "velocity": 0.29133858267716534,
                    "duration": 0.11235949999999661
                },
                {
                    "name": "C#5",
                    "midi": 73,
                    "time": 218.0897894999983,
                    "velocity": 0.2677165354330709,
                    "duration": 0.11235949999999661
                },
                {
                    "name": "E5",
                    "midi": 76,
                    "time": 218.2021489999983,
                    "velocity": 0.29133858267716534,
                    "duration": 0.07490633333333108
                },
                {
                    "name": "D5",
                    "midi": 74,
                    "time": 218.27705533333162,
                    "velocity": 0.29133858267716534,
                    "duration": 0.07490633333333108
                },
                {
                    "name": "C#5",
                    "midi": 73,
                    "time": 218.35196166666495,
                    "velocity": 0.2677165354330709,
                    "duration": 0.07490633333333108
                },
                {
                    "name": "C#5",
                    "midi": 73,
                    "time": 218.42686799999828,
                    "velocity": 0.3228346456692913,
                    "duration": 0.6741569999999797
                },
                {
                    "name": "G#5",
                    "midi": 80,
                    "time": 218.65158699999827,
                    "velocity": 0.33858267716535434,
                    "duration": 0.22471899999999323
                },
                {
                    "name": "A5",
                    "midi": 81,
                    "time": 218.87630599999827,
                    "velocity": 0.33070866141732286,
                    "duration": 0.22471899999999323
                },
                {
                    "name": "G#5",
                    "midi": 80,
                    "time": 219.10102499999826,
                    "velocity": 0.3937007874015748,
                    "duration": 0.22471899999999323
                },
                {
                    "name": "G4",
                    "midi": 67,
                    "time": 219.32574399999825,
                    "velocity": 0.25196850393700787,
                    "duration": 0.11235949999999661
                },
                {
                    "name": "G#4",
                    "midi": 68,
                    "time": 219.43810349999825,
                    "velocity": 0.23622047244094488,
                    "duration": 0.11235949999999661
                },
                {
                    "name": "B4",
                    "midi": 71,
                    "time": 219.55046299999825,
                    "velocity": 0.25196850393700787,
                    "duration": 0.07490633333333108
                },
                {
                    "name": "A4",
                    "midi": 69,
                    "time": 219.62536933333158,
                    "velocity": 0.25196850393700787,
                    "duration": 0.07490633333333108
                },
                {
                    "name": "G#4",
                    "midi": 68,
                    "time": 219.7002756666649,
                    "velocity": 0.23622047244094488,
                    "duration": 0.07490633333333108
                },
                {
                    "name": "G#4",
                    "midi": 68,
                    "time": 219.77518199999824,
                    "velocity": 0.29133858267716534,
                    "duration": 0.8988759999999729
                },
                {
                    "name": "F#5",
                    "midi": 78,
                    "time": 219.99990099999823,
                    "velocity": 0.3700787401574803,
                    "duration": 0.22471899999999323
                },
                {
                    "name": "E5",
                    "midi": 76,
                    "time": 220.22461999999823,
                    "velocity": 0.3700787401574803,
                    "duration": 0.22471899999999323
                },
                {
                    "name": "D#5",
                    "midi": 75,
                    "time": 220.44933899999822,
                    "velocity": 0.41732283464566927,
                    "duration": 0.8988759999999729
                },
                {
                    "name": "G4",
                    "midi": 67,
                    "time": 220.6740579999982,
                    "velocity": 0.2992125984251969,
                    "duration": 0.11235949999999661
                },
                {
                    "name": "G#4",
                    "midi": 68,
                    "time": 220.7864174999982,
                    "velocity": 0.2755905511811024,
                    "duration": 0.11235949999999661
                },
                {
                    "name": "B4",
                    "midi": 71,
                    "time": 220.8987769999982,
                    "velocity": 0.2992125984251969,
                    "duration": 0.07490633333333108
                },
                {
                    "name": "A4",
                    "midi": 69,
                    "time": 220.97368333333154,
                    "velocity": 0.2992125984251969,
                    "duration": 0.07490633333333108
                },
                {
                    "name": "G#4",
                    "midi": 68,
                    "time": 221.04858966666487,
                    "velocity": 0.2755905511811024,
                    "duration": 0.07490633333333108
                },
                {
                    "name": "G#4",
                    "midi": 68,
                    "time": 221.1234959999982,
                    "velocity": 0.36220472440944884,
                    "duration": 0.8988759999999729
                },
                {
                    "name": "D#5",
                    "midi": 75,
                    "time": 221.3482149999982,
                    "velocity": 0.3700787401574803,
                    "duration": 0.22471899999999323
                },
                {
                    "name": "C#5",
                    "midi": 73,
                    "time": 221.57293399999818,
                    "velocity": 0.3464566929133858,
                    "duration": 0.22471899999999323
                },
                {
                    "name": "C5",
                    "midi": 72,
                    "time": 221.79765299999818,
                    "velocity": 0.4094488188976378,
                    "duration": 0.22471899999999323
                },
                {
                    "name": "G4",
                    "midi": 67,
                    "time": 222.02237199999817,
                    "velocity": 0.3228346456692913,
                    "duration": 0.11235949999999661
                },
                {
                    "name": "G#4",
                    "midi": 68,
                    "time": 222.13473149999817,
                    "velocity": 0.30708661417322836,
                    "duration": 0.11235949999999661
                },
                {
                    "name": "B4",
                    "midi": 71,
                    "time": 222.24709099999816,
                    "velocity": 0.3228346456692913,
                    "duration": 0.07490633333333108
                },
                {
                    "name": "A4",
                    "midi": 69,
                    "time": 222.3219973333315,
                    "velocity": 0.3228346456692913,
                    "duration": 0.07490633333333108
                },
                {
                    "name": "G#4",
                    "midi": 68,
                    "time": 222.39690366666483,
                    "velocity": 0.2992125984251969,
                    "duration": 0.07490633333333108
                },
                {
                    "name": "G#4",
                    "midi": 68,
                    "time": 222.47180999999816,
                    "velocity": 0.4094488188976378,
                    "duration": 0.8988759999999729
                },
                {
                    "name": "F#5",
                    "midi": 78,
                    "time": 222.69652899999815,
                    "velocity": 0.33858267716535434,
                    "duration": 0.22471899999999323
                },
                {
                    "name": "E5",
                    "midi": 76,
                    "time": 222.92124799999814,
                    "velocity": 0.3228346456692913,
                    "duration": 0.22471899999999323
                },
                {
                    "name": "D#5",
                    "midi": 75,
                    "time": 223.14596699999814,
                    "velocity": 0.3700787401574803,
                    "duration": 0.22471899999999323
                },
                {
                    "name": "A#4",
                    "midi": 70,
                    "time": 223.37068599999813,
                    "velocity": 0.2992125984251969,
                    "duration": 0.11235949999999661
                },
                {
                    "name": "B4",
                    "midi": 71,
                    "time": 223.48304549999813,
                    "velocity": 0.28346456692913385,
                    "duration": 0.11235949999999661
                },
                {
                    "name": "D#5",
                    "midi": 75,
                    "time": 223.59540499999812,
                    "velocity": 0.2992125984251969,
                    "duration": 0.07490633333333108
                },
                {
                    "name": "C#5",
                    "midi": 73,
                    "time": 223.67031133333145,
                    "velocity": 0.2992125984251969,
                    "duration": 0.07490633333333108
                },
                {
                    "name": "B4",
                    "midi": 71,
                    "time": 223.7452176666648,
                    "velocity": 0.2755905511811024,
                    "duration": 0.07490633333333108
                },
                {
                    "name": "B4",
                    "midi": 71,
                    "time": 223.82012399999812,
                    "velocity": 0.3228346456692913,
                    "duration": 0.6741569999999797
                },
                {
                    "name": "E5",
                    "midi": 76,
                    "time": 224.0448429999981,
                    "velocity": 0.2677165354330709,
                    "duration": 0.22471899999999323
                },
                {
                    "name": "F#5",
                    "midi": 78,
                    "time": 224.2695619999981,
                    "velocity": 0.2677165354330709,
                    "duration": 0.22471899999999323
                },
                {
                    "name": "G#4",
                    "midi": 68,
                    "time": 224.4942809999981,
                    "velocity": 0.2755905511811024,
                    "duration": 0.11235949999999661
                },
                {
                    "name": "B4",
                    "midi": 71,
                    "time": 224.6066404999981,
                    "velocity": 0.29133858267716534,
                    "duration": 0.11235949999999661
                },
                {
                    "name": "E5",
                    "midi": 76,
                    "time": 224.7189999999981,
                    "velocity": 0.31496062992125984,
                    "duration": 0.11235949999999661
                },
                {
                    "name": "G#5",
                    "midi": 80,
                    "time": 224.8313594999981,
                    "velocity": 0.33070866141732286,
                    "duration": 0.11235949999999661
                },
                {
                    "name": "F#5",
                    "midi": 78,
                    "time": 224.94371899999808,
                    "velocity": 0.3464566929133858,
                    "duration": 0.11235949999999661
                },
                {
                    "name": "E5",
                    "midi": 76,
                    "time": 225.05607849999808,
                    "velocity": 0.33070866141732286,
                    "duration": 0.11235949999999661
                },
                {
                    "name": "G#5",
                    "midi": 80,
                    "time": 225.16843799999808,
                    "velocity": 0.2992125984251969,
                    "duration": 0.11235949999999661
                },
                {
                    "name": "B5",
                    "midi": 83,
                    "time": 225.28079749999807,
                    "velocity": 0.31496062992125984,
                    "duration": 0.11235949999999661
                },
                {
                    "name": "E6",
                    "midi": 88,
                    "time": 225.39315699999807,
                    "velocity": 0.33858267716535434,
                    "duration": 0.11235949999999661
                },
                {
                    "name": "G#6",
                    "midi": 92,
                    "time": 225.50551649999807,
                    "velocity": 0.36220472440944884,
                    "duration": 0.11235949999999661
                },
                {
                    "name": "F#6",
                    "midi": 90,
                    "time": 225.61787599999806,
                    "velocity": 0.3937007874015748,
                    "duration": 0.11235949999999661
                },
                {
                    "name": "E6",
                    "midi": 88,
                    "time": 225.73023549999806,
                    "velocity": 0.3700787401574803,
                    "duration": 0.11235949999999661
                },
                {
                    "name": "B5",
                    "midi": 83,
                    "time": 225.84259499999806,
                    "velocity": 0.3464566929133858,
                    "duration": 0.11235949999999661
                },
                {
                    "name": "G#5",
                    "midi": 80,
                    "time": 225.95495449999805,
                    "velocity": 0.33858267716535434,
                    "duration": 0.11235949999999661
                },
                {
                    "name": "F#5",
                    "midi": 78,
                    "time": 226.06731399999805,
                    "velocity": 0.33070866141732286,
                    "duration": 0.11235949999999661
                },
                {
                    "name": "E5",
                    "midi": 76,
                    "time": 226.17967349999805,
                    "velocity": 0.3228346456692913,
                    "duration": 0.11235949999999661
                },
                {
                    "name": "B4",
                    "midi": 71,
                    "time": 226.29203299999804,
                    "velocity": 0.31496062992125984,
                    "duration": 0.11235949999999661
                },
                {
                    "name": "G#4",
                    "midi": 68,
                    "time": 226.40439249999804,
                    "velocity": 0.30708661417322836,
                    "duration": 0.11235949999999661
                },
                {
                    "name": "F#4",
                    "midi": 66,
                    "time": 226.51675199999804,
                    "velocity": 0.2992125984251969,
                    "duration": 0.11235949999999661
                },
                {
                    "name": "E4",
                    "midi": 64,
                    "time": 226.62911149999803,
                    "velocity": 0.29133858267716534,
                    "duration": 0.11235949999999661
                },
                {
                    "name": "B3",
                    "midi": 59,
                    "time": 226.74147099999803,
                    "velocity": 0.28346456692913385,
                    "duration": 0.11235949999999661
                },
                {
                    "name": "G#4",
                    "midi": 68,
                    "time": 226.85383049999803,
                    "velocity": 0.30708661417322836,
                    "duration": 0.11235949999999661
                },
                {
                    "name": "F#4",
                    "midi": 66,
                    "time": 226.96618999999802,
                    "velocity": 0.2992125984251969,
                    "duration": 0.11235949999999661
                },
                {
                    "name": "E4",
                    "midi": 64,
                    "time": 227.07854949999802,
                    "velocity": 0.29133858267716534,
                    "duration": 0.11235949999999661
                },
                {
                    "name": "C#4",
                    "midi": 61,
                    "time": 227.19090899999802,
                    "velocity": 0.28346456692913385,
                    "duration": 0.11235949999999661
                },
                {
                    "name": "E4",
                    "midi": 64,
                    "time": 227.303268499998,
                    "velocity": 0.2677165354330709,
                    "duration": 0.11235949999999661
                },
                {
                    "name": "F#4",
                    "midi": 66,
                    "time": 227.415627999998,
                    "velocity": 0.29133858267716534,
                    "duration": 0.11235949999999661
                },
                {
                    "name": "A4",
                    "midi": 69,
                    "time": 227.527987499998,
                    "velocity": 0.30708661417322836,
                    "duration": 0.11235949999999661
                },
                {
                    "name": "C#5",
                    "midi": 73,
                    "time": 227.640346999998,
                    "velocity": 0.3228346456692913,
                    "duration": 0.11235949999999661
                },
                {
                    "name": "E5",
                    "midi": 76,
                    "time": 227.752706499998,
                    "velocity": 0.33858267716535434,
                    "duration": 0.11235949999999661
                },
                {
                    "name": "F#5",
                    "midi": 78,
                    "time": 227.865065999998,
                    "velocity": 0.36220472440944884,
                    "duration": 0.11235949999999661
                },
                {
                    "name": "A5",
                    "midi": 81,
                    "time": 227.977425499998,
                    "velocity": 0.3779527559055118,
                    "duration": 0.11235949999999661
                },
                {
                    "name": "C#6",
                    "midi": 85,
                    "time": 228.089784999998,
                    "velocity": 0.3937007874015748,
                    "duration": 0.11235949999999661
                },
                {
                    "name": "E6",
                    "midi": 88,
                    "time": 228.20214449999798,
                    "velocity": 0.4015748031496063,
                    "duration": 0.11235949999999661
                },
                {
                    "name": "F#6",
                    "midi": 90,
                    "time": 228.31450399999798,
                    "velocity": 0.3858267716535433,
                    "duration": 0.11235949999999661
                },
                {
                    "name": "A6",
                    "midi": 93,
                    "time": 228.42686349999798,
                    "velocity": 0.3700787401574803,
                    "duration": 0.11235949999999661
                },
                {
                    "name": "G#6",
                    "midi": 92,
                    "time": 228.53922299999797,
                    "velocity": 0.3937007874015748,
                    "duration": 0.11235949999999661
                },
                {
                    "name": "F#6",
                    "midi": 90,
                    "time": 228.65158249999797,
                    "velocity": 0.3858267716535433,
                    "duration": 0.11235949999999661
                },
                {
                    "name": "D#6",
                    "midi": 87,
                    "time": 228.76394199999797,
                    "velocity": 0.3858267716535433,
                    "duration": 0.11235949999999661
                },
                {
                    "name": "A5",
                    "midi": 81,
                    "time": 228.87630149999796,
                    "velocity": 0.3779527559055118,
                    "duration": 0.11235949999999661
                },
                {
                    "name": "G#5",
                    "midi": 80,
                    "time": 228.98866099999796,
                    "velocity": 0.3700787401574803,
                    "duration": 0.11235949999999661
                },
                {
                    "name": "F#5",
                    "midi": 78,
                    "time": 229.10102049999796,
                    "velocity": 0.36220472440944884,
                    "duration": 0.11235949999999661
                },
                {
                    "name": "D#5",
                    "midi": 75,
                    "time": 229.21337999999795,
                    "velocity": 0.3543307086614173,
                    "duration": 0.11235949999999661
                },
                {
                    "name": "B4",
                    "midi": 71,
                    "time": 229.32573949999795,
                    "velocity": 0.3464566929133858,
                    "duration": 0.11235949999999661
                },
                {
                    "name": "D#5",
                    "midi": 75,
                    "time": 229.43809899999795,
                    "velocity": 0.3543307086614173,
                    "duration": 0.11235949999999661
                },
                {
                    "name": "C#5",
                    "midi": 73,
                    "time": 229.55045849999794,
                    "velocity": 0.33070866141732286,
                    "duration": 0.11235949999999661
                },
                {
                    "name": "B4",
                    "midi": 71,
                    "time": 229.66281799999794,
                    "velocity": 0.30708661417322836,
                    "duration": 0.11235949999999661
                },
                {
                    "name": "A4",
                    "midi": 69,
                    "time": 229.77517749999794,
                    "velocity": 0.29133858267716534,
                    "duration": 0.11235949999999661
                },
                {
                    "name": "G#4",
                    "midi": 68,
                    "time": 229.88753699999793,
                    "velocity": 0.2755905511811024,
                    "duration": 0.11235949999999661
                },
                {
                    "name": "B4",
                    "midi": 71,
                    "time": 229.99989649999793,
                    "velocity": 0.29133858267716534,
                    "duration": 0.11235949999999661
                },
                {
                    "name": "E5",
                    "midi": 76,
                    "time": 230.11225599999793,
                    "velocity": 0.31496062992125984,
                    "duration": 0.11235949999999661
                },
                {
                    "name": "G#5",
                    "midi": 80,
                    "time": 230.22461549999792,
                    "velocity": 0.33070866141732286,
                    "duration": 0.11235949999999661
                },
                {
                    "name": "F#5",
                    "midi": 78,
                    "time": 230.33697499999792,
                    "velocity": 0.3464566929133858,
                    "duration": 0.11235949999999661
                },
                {
                    "name": "E5",
                    "midi": 76,
                    "time": 230.44933449999792,
                    "velocity": 0.33070866141732286,
                    "duration": 0.11235949999999661
                },
                {
                    "name": "G#5",
                    "midi": 80,
                    "time": 230.5616939999979,
                    "velocity": 0.2992125984251969,
                    "duration": 0.11235949999999661
                },
                {
                    "name": "B5",
                    "midi": 83,
                    "time": 230.6740534999979,
                    "velocity": 0.31496062992125984,
                    "duration": 0.11235949999999661
                },
                {
                    "name": "E6",
                    "midi": 88,
                    "time": 230.7864129999979,
                    "velocity": 0.33858267716535434,
                    "duration": 0.11235949999999661
                },
                {
                    "name": "G#6",
                    "midi": 92,
                    "time": 230.8987724999979,
                    "velocity": 0.36220472440944884,
                    "duration": 0.11235949999999661
                },
                {
                    "name": "F#6",
                    "midi": 90,
                    "time": 231.0111319999979,
                    "velocity": 0.3937007874015748,
                    "duration": 0.11235949999999661
                },
                {
                    "name": "E6",
                    "midi": 88,
                    "time": 231.1234914999979,
                    "velocity": 0.3700787401574803,
                    "duration": 0.11235949999999661
                },
                {
                    "name": "B5",
                    "midi": 83,
                    "time": 231.2358509999979,
                    "velocity": 0.3464566929133858,
                    "duration": 0.11235949999999661
                },
                {
                    "name": "G#5",
                    "midi": 80,
                    "time": 231.3482104999979,
                    "velocity": 0.33858267716535434,
                    "duration": 0.11235949999999661
                },
                {
                    "name": "F#5",
                    "midi": 78,
                    "time": 231.4605699999979,
                    "velocity": 0.33070866141732286,
                    "duration": 0.11235949999999661
                },
                {
                    "name": "E5",
                    "midi": 76,
                    "time": 231.57292949999788,
                    "velocity": 0.3228346456692913,
                    "duration": 0.11235949999999661
                },
                {
                    "name": "B4",
                    "midi": 71,
                    "time": 231.68528899999788,
                    "velocity": 0.31496062992125984,
                    "duration": 0.11235949999999661
                },
                {
                    "name": "G#4",
                    "midi": 68,
                    "time": 231.79764849999788,
                    "velocity": 0.30708661417322836,
                    "duration": 0.11235949999999661
                },
                {
                    "name": "F#4",
                    "midi": 66,
                    "time": 231.91000799999787,
                    "velocity": 0.2992125984251969,
                    "duration": 0.11235949999999661
                },
                {
                    "name": "E4",
                    "midi": 64,
                    "time": 232.02236749999787,
                    "velocity": 0.29133858267716534,
                    "duration": 0.11235949999999661
                },
                {
                    "name": "B3",
                    "midi": 59,
                    "time": 232.13472699999787,
                    "velocity": 0.28346456692913385,
                    "duration": 0.11235949999999661
                },
                {
                    "name": "G#4",
                    "midi": 68,
                    "time": 232.24708649999786,
                    "velocity": 0.30708661417322836,
                    "duration": 0.11235949999999661
                },
                {
                    "name": "F#4",
                    "midi": 66,
                    "time": 232.35944599999786,
                    "velocity": 0.2992125984251969,
                    "duration": 0.11235949999999661
                },
                {
                    "name": "E4",
                    "midi": 64,
                    "time": 232.47180549999786,
                    "velocity": 0.29133858267716534,
                    "duration": 0.11235949999999661
                },
                {
                    "name": "C#4",
                    "midi": 61,
                    "time": 232.58416499999785,
                    "velocity": 0.28346456692913385,
                    "duration": 0.11235949999999661
                },
                {
                    "name": "E4",
                    "midi": 64,
                    "time": 232.69652449999785,
                    "velocity": 0.2677165354330709,
                    "duration": 0.1058051958333408
                },
                {
                    "name": "F#4",
                    "midi": 66,
                    "time": 232.80888399999785,
                    "velocity": 0.29133858267716534,
                    "duration": 0.11235949999999661
                },
                {
                    "name": "A4",
                    "midi": 69,
                    "time": 232.92124349999784,
                    "velocity": 0.30708661417322836,
                    "duration": 0.11235949999999661
                },
                {
                    "name": "C#5",
                    "midi": 73,
                    "time": 233.03360299999784,
                    "velocity": 0.3228346456692913,
                    "duration": 0.11235949999999661
                },
                {
                    "name": "E5",
                    "midi": 76,
                    "time": 233.14596249999784,
                    "velocity": 0.33858267716535434,
                    "duration": 0.11235949999999661
                },
                {
                    "name": "F#5",
                    "midi": 78,
                    "time": 233.25832199999783,
                    "velocity": 0.36220472440944884,
                    "duration": 0.11235949999999661
                },
                {
                    "name": "A5",
                    "midi": 81,
                    "time": 233.37068149999783,
                    "velocity": 0.3779527559055118,
                    "duration": 0.11235949999999661
                },
                {
                    "name": "C#6",
                    "midi": 85,
                    "time": 233.48304099999783,
                    "velocity": 0.3937007874015748,
                    "duration": 0.11235949999999661
                },
                {
                    "name": "E6",
                    "midi": 88,
                    "time": 233.59540049999782,
                    "velocity": 0.4015748031496063,
                    "duration": 0.11235949999999661
                },
                {
                    "name": "F#6",
                    "midi": 90,
                    "time": 233.70775999999782,
                    "velocity": 0.3858267716535433,
                    "duration": 0.11235949999999661
                },
                {
                    "name": "A6",
                    "midi": 93,
                    "time": 233.82011949999782,
                    "velocity": 0.3700787401574803,
                    "duration": 0.11235949999999661
                },
                {
                    "name": "G#6",
                    "midi": 92,
                    "time": 233.9324789999978,
                    "velocity": 0.3700787401574803,
                    "duration": 0.11235949999999661
                },
                {
                    "name": "F#6",
                    "midi": 90,
                    "time": 234.0448384999978,
                    "velocity": 0.3779527559055118,
                    "duration": 0.11235949999999661
                },
                {
                    "name": "D#6",
                    "midi": 87,
                    "time": 234.1571979999978,
                    "velocity": 0.3858267716535433,
                    "duration": 0.11235949999999661
                },
                {
                    "name": "A5",
                    "midi": 81,
                    "time": 234.2695574999978,
                    "velocity": 0.3937007874015748,
                    "duration": 0.11235949999999661
                },
                {
                    "name": "G#5",
                    "midi": 80,
                    "time": 234.3819169999978,
                    "velocity": 0.4015748031496063,
                    "duration": 0.11235949999999661
                },
                {
                    "name": "F#5",
                    "midi": 78,
                    "time": 234.4942764999978,
                    "velocity": 0.4094488188976378,
                    "duration": 0.11235949999999661
                },
                {
                    "name": "D#5",
                    "midi": 75,
                    "time": 234.6066359999978,
                    "velocity": 0.41732283464566927,
                    "duration": 0.11235949999999661
                },
                {
                    "name": "B4",
                    "midi": 71,
                    "time": 234.7189954999978,
                    "velocity": 0.4094488188976378,
                    "duration": 0.11235949999999661
                },
                {
                    "name": "D#5",
                    "midi": 75,
                    "time": 234.83135499999779,
                    "velocity": 0.4015748031496063,
                    "duration": 0.11235949999999661
                },
                {
                    "name": "C#5",
                    "midi": 73,
                    "time": 234.94371449999778,
                    "velocity": 0.4015748031496063,
                    "duration": 0.11235949999999661
                },
                {
                    "name": "B4",
                    "midi": 71,
                    "time": 235.05607399999778,
                    "velocity": 0.41732283464566927,
                    "duration": 0.11235949999999661
                },
                {
                    "name": "A4",
                    "midi": 69,
                    "time": 235.16843349999778,
                    "velocity": 0.44881889763779526,
                    "duration": 0.11235949999999661
                },
                {
                    "name": "G#4",
                    "midi": 68,
                    "time": 235.28079299999777,
                    "velocity": 0.4409448818897638,
                    "duration": 0.11235949999999661
                },
                {
                    "name": "B4",
                    "midi": 71,
                    "time": 235.39315249999777,
                    "velocity": 0.4645669291338583,
                    "duration": 0.11235949999999661
                },
                {
                    "name": "E5",
                    "midi": 76,
                    "time": 235.50551199999776,
                    "velocity": 0.48031496062992124,
                    "duration": 0.11235949999999661
                },
                {
                    "name": "G#5",
                    "midi": 80,
                    "time": 235.61787149999776,
                    "velocity": 0.49606299212598426,
                    "duration": 0.11235949999999661
                },
                {
                    "name": "F#5",
                    "midi": 78,
                    "time": 235.73023099999776,
                    "velocity": 0.5118110236220472,
                    "duration": 0.11235949999999661
                },
                {
                    "name": "E5",
                    "midi": 76,
                    "time": 235.84259049999775,
                    "velocity": 0.49606299212598426,
                    "duration": 0.11235949999999661
                },
                {
                    "name": "G#5",
                    "midi": 80,
                    "time": 235.95494999999775,
                    "velocity": 0.48031496062992124,
                    "duration": 0.11235949999999661
                },
                {
                    "name": "B5",
                    "midi": 83,
                    "time": 236.06730949999775,
                    "velocity": 0.48031496062992124,
                    "duration": 0.11235949999999661
                },
                {
                    "name": "E6",
                    "midi": 88,
                    "time": 236.17966899999774,
                    "velocity": 0.5039370078740157,
                    "duration": 0.11235949999999661
                },
                {
                    "name": "G#6",
                    "midi": 92,
                    "time": 236.29202849999774,
                    "velocity": 0.5196850393700787,
                    "duration": 0.11235949999999661
                },
                {
                    "name": "F#6",
                    "midi": 90,
                    "time": 236.40438799999774,
                    "velocity": 0.5433070866141733,
                    "duration": 0.11235949999999661
                },
                {
                    "name": "E6",
                    "midi": 88,
                    "time": 236.51674749999773,
                    "velocity": 0.5118110236220472,
                    "duration": 0.11235949999999661
                },
                {
                    "name": "C6",
                    "midi": 84,
                    "time": 236.62910699999773,
                    "velocity": 0.4881889763779528,
                    "duration": 0.11235949999999661
                },
                {
                    "name": "A5",
                    "midi": 81,
                    "time": 236.74146649999773,
                    "velocity": 0.48031496062992124,
                    "duration": 0.11235949999999661
                },
                {
                    "name": "F#5",
                    "midi": 78,
                    "time": 236.85382599999772,
                    "velocity": 0.47244094488188976,
                    "duration": 0.11235949999999661
                },
                {
                    "name": "E5",
                    "midi": 76,
                    "time": 236.96618549999772,
                    "velocity": 0.47244094488188976,
                    "duration": 0.11235949999999661
                },
                {
                    "name": "C5",
                    "midi": 72,
                    "time": 237.07854499999772,
                    "velocity": 0.4645669291338583,
                    "duration": 0.11235949999999661
                },
                {
                    "name": "A4",
                    "midi": 69,
                    "time": 237.1909044999977,
                    "velocity": 0.4566929133858268,
                    "duration": 0.11235949999999661
                },
                {
                    "name": "F#4",
                    "midi": 66,
                    "time": 237.3032639999977,
                    "velocity": 0.44881889763779526,
                    "duration": 0.11235949999999661
                },
                {
                    "name": "E4",
                    "midi": 64,
                    "time": 237.4156234999977,
                    "velocity": 0.4409448818897638,
                    "duration": 0.11235949999999661
                },
                {
                    "name": "C4",
                    "midi": 60,
                    "time": 237.5279829999977,
                    "velocity": 0.4330708661417323,
                    "duration": 0.11235949999999661
                },
                {
                    "name": "A3",
                    "midi": 57,
                    "time": 237.6403424999977,
                    "velocity": 0.4251968503937008,
                    "duration": 0.11235949999999661
                },
                {
                    "name": "F#3",
                    "midi": 54,
                    "time": 237.7527019999977,
                    "velocity": 0.41732283464566927,
                    "duration": 0.11235949999999661
                },
                {
                    "name": "E3",
                    "midi": 52,
                    "time": 237.8650614999977,
                    "velocity": 0.4094488188976378,
                    "duration": 0.11235949999999661
                },
                {
                    "name": "G#3",
                    "midi": 56,
                    "time": 237.9774209999977,
                    "velocity": 0.4094488188976378,
                    "duration": 0.11235949999999661
                },
                {
                    "name": "B3",
                    "midi": 59,
                    "time": 238.0897804999977,
                    "velocity": 0.4015748031496063,
                    "duration": 0.11235949999999661
                },
                {
                    "name": "E4",
                    "midi": 64,
                    "time": 238.20213999999768,
                    "velocity": 0.4094488188976378,
                    "duration": 0.11235949999999661
                },
                {
                    "name": "G#4",
                    "midi": 68,
                    "time": 238.31449949999768,
                    "velocity": 0.41732283464566927,
                    "duration": 0.11235949999999661
                },
                {
                    "name": "F#4",
                    "midi": 66,
                    "time": 238.42685899999768,
                    "velocity": 0.4251968503937008,
                    "duration": 0.11235949999999661
                },
                {
                    "name": "E4",
                    "midi": 64,
                    "time": 238.53921849999767,
                    "velocity": 0.4094488188976378,
                    "duration": 0.11235949999999661
                },
                {
                    "name": "G#4",
                    "midi": 68,
                    "time": 238.65157799999767,
                    "velocity": 0.3858267716535433,
                    "duration": 0.11235949999999661
                },
                {
                    "name": "B4",
                    "midi": 71,
                    "time": 238.76393749999767,
                    "velocity": 0.4015748031496063,
                    "duration": 0.11235949999999661
                },
                {
                    "name": "E5",
                    "midi": 76,
                    "time": 238.87629699999766,
                    "velocity": 0.4251968503937008,
                    "duration": 0.11235949999999661
                },
                {
                    "name": "G#5",
                    "midi": 80,
                    "time": 238.98865649999766,
                    "velocity": 0.44881889763779526,
                    "duration": 0.11235949999999661
                },
                {
                    "name": "F#5",
                    "midi": 78,
                    "time": 239.10101599999766,
                    "velocity": 0.4645669291338583,
                    "duration": 0.11235949999999661
                },
                {
                    "name": "E5",
                    "midi": 76,
                    "time": 239.21337549999765,
                    "velocity": 0.44881889763779526,
                    "duration": 0.11235949999999661
                },
                {
                    "name": "C5",
                    "midi": 72,
                    "time": 239.32573499999765,
                    "velocity": 0.4645669291338583,
                    "duration": 0.11235949999999661
                },
                {
                    "name": "A4",
                    "midi": 69,
                    "time": 239.43809449999765,
                    "velocity": 0.48031496062992124,
                    "duration": 0.11235949999999661
                },
                {
                    "name": "F#4",
                    "midi": 66,
                    "time": 239.55045399999764,
                    "velocity": 0.4881889763779528,
                    "duration": 0.11235949999999661
                },
                {
                    "name": "E4",
                    "midi": 64,
                    "time": 239.66281349999764,
                    "velocity": 0.5039370078740157,
                    "duration": 0.11235949999999661
                },
                {
                    "name": "C4",
                    "midi": 60,
                    "time": 239.77517299999764,
                    "velocity": 0.5196850393700787,
                    "duration": 0.11235949999999661
                },
                {
                    "name": "A3",
                    "midi": 57,
                    "time": 239.88753249999763,
                    "velocity": 0.5275590551181102,
                    "duration": 0.11235949999999661
                },
                {
                    "name": "F#3",
                    "midi": 54,
                    "time": 239.99989199999763,
                    "velocity": 0.5433070866141733,
                    "duration": 0.11235949999999661
                },
                {
                    "name": "E3",
                    "midi": 52,
                    "time": 240.11225149999763,
                    "velocity": 0.5590551181102362,
                    "duration": 0.11235949999999661
                },
                {
                    "name": "C3",
                    "midi": 48,
                    "time": 240.22461099999762,
                    "velocity": 0.5748031496062992,
                    "duration": 0.11235949999999661
                },
                {
                    "name": "A2",
                    "midi": 45,
                    "time": 240.33697049999762,
                    "velocity": 0.5826771653543307,
                    "duration": 0.11235949999999661
                },
                {
                    "name": "F#2",
                    "midi": 42,
                    "time": 240.44932999999762,
                    "velocity": 0.5984251968503937,
                    "duration": 0.11235949999999661
                },
                {
                    "name": "E2",
                    "midi": 40,
                    "time": 240.5616894999976,
                    "velocity": 0.6141732283464567,
                    "duration": 0.11235949999999661
                },
                {
                    "name": "B2",
                    "midi": 47,
                    "time": 240.8987679999976,
                    "velocity": 0.5748031496062992,
                    "duration": 0.11235949999999661
                },
                {
                    "name": "E3",
                    "midi": 52,
                    "time": 241.0111274999976,
                    "velocity": 0.5354330708661418,
                    "duration": 0.11235949999999661
                },
                {
                    "name": "A3",
                    "midi": 57,
                    "time": 241.1234869999976,
                    "velocity": 0.5354330708661418,
                    "duration": 0.11235949999999661
                },
                {
                    "name": "G#3",
                    "midi": 56,
                    "time": 241.2358464999976,
                    "velocity": 0.5354330708661418,
                    "duration": 0.11235949999999661
                },
                {
                    "name": "B3",
                    "midi": 59,
                    "time": 241.3482059999976,
                    "velocity": 0.5748031496062992,
                    "duration": 0.11235949999999661
                },
                {
                    "name": "E4",
                    "midi": 64,
                    "time": 241.46056549999759,
                    "velocity": 0.5275590551181102,
                    "duration": 0.11235949999999661
                },
                {
                    "name": "A4",
                    "midi": 69,
                    "time": 241.57292499999758,
                    "velocity": 0.5275590551181102,
                    "duration": 0.11235949999999661
                },
                {
                    "name": "G#4",
                    "midi": 68,
                    "time": 241.68528449999758,
                    "velocity": 0.5354330708661418,
                    "duration": 0.11235949999999661
                },
                {
                    "name": "B4",
                    "midi": 71,
                    "time": 241.79764399999758,
                    "velocity": 0.5669291338582677,
                    "duration": 0.11235949999999661
                },
                {
                    "name": "E5",
                    "midi": 76,
                    "time": 241.91000349999757,
                    "velocity": 0.5748031496062992,
                    "duration": 0.11235949999999661
                },
                {
                    "name": "A5",
                    "midi": 81,
                    "time": 242.02236299999757,
                    "velocity": 0.5984251968503937,
                    "duration": 0.11235949999999661
                },
                {
                    "name": "G#5",
                    "midi": 80,
                    "time": 242.13472249999757,
                    "velocity": 0.5590551181102362,
                    "duration": 0.11235949999999661
                },
                {
                    "name": "B5",
                    "midi": 83,
                    "time": 242.24708199999756,
                    "velocity": 0.5590551181102362,
                    "duration": 0.11235949999999661
                },
                {
                    "name": "E6",
                    "midi": 88,
                    "time": 242.35944149999756,
                    "velocity": 0.5590551181102362,
                    "duration": 0.11235949999999661
                },
                {
                    "name": "A6",
                    "midi": 93,
                    "time": 242.47180099999755,
                    "velocity": 0.5590551181102362,
                    "duration": 0.11235949999999661
                },
                {
                    "name": "G#6",
                    "midi": 92,
                    "time": 242.58416049999755,
                    "velocity": 0.5590551181102362,
                    "duration": 0.11235949999999661
                },
                {
                    "name": "E6",
                    "midi": 88,
                    "time": 242.69651999999755,
                    "velocity": 0.6062992125984252,
                    "duration": 0.11235949999999661
                },
                {
                    "name": "B5",
                    "midi": 83,
                    "time": 242.80887949999754,
                    "velocity": 0.5590551181102362,
                    "duration": 0.11235949999999661
                },
                {
                    "name": "A5",
                    "midi": 81,
                    "time": 242.92123899999754,
                    "velocity": 0.5590551181102362,
                    "duration": 0.11235949999999661
                },
                {
                    "name": "G#5",
                    "midi": 80,
                    "time": 243.03359849999754,
                    "velocity": 0.5590551181102362,
                    "duration": 0.11235949999999661
                },
                {
                    "name": "E5",
                    "midi": 76,
                    "time": 243.14595799999753,
                    "velocity": 0.5590551181102362,
                    "duration": 0.11235949999999661
                },
                {
                    "name": "B4",
                    "midi": 71,
                    "time": 243.25831749999753,
                    "velocity": 0.5590551181102362,
                    "duration": 0.11235949999999661
                },
                {
                    "name": "A4",
                    "midi": 69,
                    "time": 243.37067699999753,
                    "velocity": 0.5590551181102362,
                    "duration": 0.11235949999999661
                },
                {
                    "name": "G#4",
                    "midi": 68,
                    "time": 243.48303649999752,
                    "velocity": 0.5669291338582677,
                    "duration": 0.11235949999999661
                },
                {
                    "name": "E4",
                    "midi": 64,
                    "time": 243.59539599999752,
                    "velocity": 0.5748031496062992,
                    "duration": 0.11235949999999661
                },
                {
                    "name": "B3",
                    "midi": 59,
                    "time": 243.70775549999752,
                    "velocity": 0.5905511811023622,
                    "duration": 0.11235949999999661
                },
                {
                    "name": "A3",
                    "midi": 57,
                    "time": 243.82011499999751,
                    "velocity": 0.6062992125984252,
                    "duration": 0.11235949999999661
                },
                {
                    "name": "G#3",
                    "midi": 56,
                    "time": 243.9324744999975,
                    "velocity": 0.6141732283464567,
                    "duration": 0.11235949999999661
                },
                {
                    "name": "E3",
                    "midi": 52,
                    "time": 244.0448339999975,
                    "velocity": 0.6299212598425197,
                    "duration": 0.11235949999999661
                },
                {
                    "name": "B2",
                    "midi": 47,
                    "time": 244.1571934999975,
                    "velocity": 0.6377952755905512,
                    "duration": 0.11235949999999661
                },
                {
                    "name": "A2",
                    "midi": 45,
                    "time": 244.2695529999975,
                    "velocity": 0.6456692913385826,
                    "duration": 0.11235949999999661
                },
                {
                    "name": "G#2",
                    "midi": 44,
                    "time": 244.3819124999975,
                    "velocity": 0.6614173228346457,
                    "duration": 0.11235949999999661
                },
                {
                    "name": "E2",
                    "midi": 40,
                    "time": 244.4942719999975,
                    "velocity": 0.6771653543307087,
                    "duration": 0.11235949999999661
                },
                {
                    "name": "B1",
                    "midi": 35,
                    "time": 244.6066314999975,
                    "velocity": 0.6929133858267716,
                    "duration": 0.11235949999999661
                },
                {
                    "name": "E3",
                    "midi": 52,
                    "time": 246.06730499999748,
                    "velocity": 0.4330708661417323,
                    "duration": 0.6741570000000081
                },
                {
                    "name": "C#4",
                    "midi": 61,
                    "time": 246.06730499999748,
                    "velocity": 0.5118110236220472,
                    "duration": 0.6741570000000081
                },
                {
                    "name": "E4",
                    "midi": 64,
                    "time": 246.06730499999748,
                    "velocity": 0.5118110236220472,
                    "duration": 0.6741570000000081
                },
                {
                    "name": "F#3",
                    "midi": 54,
                    "time": 246.74146199999748,
                    "velocity": 0.36220472440944884,
                    "duration": 0.6741570000000081
                },
                {
                    "name": "C#4",
                    "midi": 61,
                    "time": 246.74146199999748,
                    "velocity": 0.4330708661417323,
                    "duration": 0.8988760000000013
                },
                {
                    "name": "F#4",
                    "midi": 66,
                    "time": 246.74146199999748,
                    "velocity": 0.4330708661417323,
                    "duration": 2.0224709999999675
                },
                {
                    "name": "B3",
                    "midi": 59,
                    "time": 247.64033799999748,
                    "velocity": 0.5590551181102362,
                    "duration": 0.22471899999999323
                },
                {
                    "name": "C#4",
                    "midi": 61,
                    "time": 247.86505699999748,
                    "velocity": 0.5590551181102362,
                    "duration": 0.22471899999999323
                },
                {
                    "name": "E4",
                    "midi": 64,
                    "time": 248.08977599999747,
                    "velocity": 0.5905511811023622,
                    "duration": 0.22471899999999323
                },
                {
                    "name": "D4",
                    "midi": 62,
                    "time": 248.31449499999746,
                    "velocity": 0.5511811023622047,
                    "duration": 0.33707849999998984
                },
                {
                    "name": "C#4",
                    "midi": 61,
                    "time": 248.65157349999745,
                    "velocity": 0.5039370078740157,
                    "duration": 0.10299620833333734
                },
                {
                    "name": "E3",
                    "midi": 52,
                    "time": 248.76393299999745,
                    "velocity": 0.4330708661417323,
                    "duration": 0.6741570000000081
                },
                {
                    "name": "C#4",
                    "midi": 61,
                    "time": 248.76393299999745,
                    "velocity": 0.5118110236220472,
                    "duration": 0.6741570000000081
                },
                {
                    "name": "E4",
                    "midi": 64,
                    "time": 248.76393299999745,
                    "velocity": 0.5118110236220472,
                    "duration": 0.6741570000000081
                },
                {
                    "name": "F#3",
                    "midi": 54,
                    "time": 249.43808999999746,
                    "velocity": 0.36220472440944884,
                    "duration": 2.696627999999947
                },
                {
                    "name": "C#4",
                    "midi": 61,
                    "time": 249.43808999999746,
                    "velocity": 0.4330708661417323,
                    "duration": 0.8988760000000013
                },
                {
                    "name": "F#4",
                    "midi": 66,
                    "time": 249.43808999999746,
                    "velocity": 0.4330708661417323,
                    "duration": 2.0224709999999675
                },
                {
                    "name": "B3",
                    "midi": 59,
                    "time": 250.33696599999746,
                    "velocity": 0.5275590551181102,
                    "duration": 0.22471899999999323
                },
                {
                    "name": "C#4",
                    "midi": 61,
                    "time": 250.56168499999745,
                    "velocity": 0.5275590551181102,
                    "duration": 0.22471899999999323
                },
                {
                    "name": "E4",
                    "midi": 64,
                    "time": 250.78640399999745,
                    "velocity": 0.5669291338582677,
                    "duration": 0.22471899999999323
                },
                {
                    "name": "D4",
                    "midi": 62,
                    "time": 251.01112299999744,
                    "velocity": 0.5196850393700787,
                    "duration": 0.33707849999998984
                },
                {
                    "name": "C#4",
                    "midi": 61,
                    "time": 251.34820149999743,
                    "velocity": 0.44881889763779526,
                    "duration": 0.04681645833332482
                },
                {
                    "name": "C#4",
                    "midi": 61,
                    "time": 251.4043812499974,
                    "velocity": 0.4251968503937008,
                    "duration": 0.505617749999999
                },
                {
                    "name": "A4",
                    "midi": 69,
                    "time": 251.46056099999743,
                    "velocity": 0.49606299212598426,
                    "duration": 0.22471899999999323
                },
                {
                    "name": "F#4",
                    "midi": 66,
                    "time": 251.68527999999742,
                    "velocity": 0.4881889763779528,
                    "duration": 0.44943799999998646
                },
                {
                    "name": "D4",
                    "midi": 62,
                    "time": 251.9099989999974,
                    "velocity": 0.44881889763779526,
                    "duration": 0.22471899999999323
                },
                {
                    "name": "G#3",
                    "midi": 56,
                    "time": 252.1347179999974,
                    "velocity": 0.4094488188976378,
                    "duration": 1.1235949999999946
                },
                {
                    "name": "C#4",
                    "midi": 61,
                    "time": 252.1347179999974,
                    "velocity": 0.4094488188976378,
                    "duration": 0.6741570000000081
                },
                {
                    "name": "E4",
                    "midi": 64,
                    "time": 252.1347179999974,
                    "velocity": 0.4094488188976378,
                    "duration": 1.3483139999999878
                },
                {
                    "name": "B3",
                    "midi": 59,
                    "time": 252.8088749999974,
                    "velocity": 0.33858267716535434,
                    "duration": 0.44943799999998646
                },
                {
                    "name": "A3",
                    "midi": 57,
                    "time": 253.2583129999974,
                    "velocity": 0.29133858267716534,
                    "duration": 0.22471899999999323
                },
                {
                    "name": "C#4",
                    "midi": 61,
                    "time": 253.4830319999974,
                    "velocity": 0.2755905511811024,
                    "duration": 1.3483139999999878
                },
                {
                    "name": "C#5",
                    "midi": 73,
                    "time": 254.83134599999738,
                    "velocity": 0.41732283464566927,
                    "duration": 0.5617975000000115
                },
                {
                    "name": "B4",
                    "midi": 71,
                    "time": 255.3931434999974,
                    "velocity": 0.3543307086614173,
                    "duration": 0.05617975000001252
                },
                {
                    "name": "C#5",
                    "midi": 73,
                    "time": 255.4493232499974,
                    "velocity": 0.3543307086614173,
                    "duration": 0.05617975000001252
                },
                {
                    "name": "B4",
                    "midi": 71,
                    "time": 255.50550299999742,
                    "velocity": 0.3937007874015748,
                    "duration": 0.33707849999998984
                },
                {
                    "name": "A4",
                    "midi": 69,
                    "time": 255.8425814999974,
                    "velocity": 0.3700787401574803,
                    "duration": 0.11235949999999661
                },
                {
                    "name": "B4",
                    "midi": 71,
                    "time": 255.9549409999974,
                    "velocity": 0.3937007874015748,
                    "duration": 0.22471899999999323
                },
                {
                    "name": "C#5",
                    "midi": 73,
                    "time": 256.1796599999974,
                    "velocity": 0.41732283464566927,
                    "duration": 0.33707850000001827
                },
                {
                    "name": "D5",
                    "midi": 74,
                    "time": 256.5167384999974,
                    "velocity": 0.3937007874015748,
                    "duration": 0.11235950000002504
                },
                {
                    "name": "C#5",
                    "midi": 73,
                    "time": 256.62909799999744,
                    "velocity": 0.3779527559055118,
                    "duration": 0.11235950000002504
                },
                {
                    "name": "B4",
                    "midi": 71,
                    "time": 256.74145749999747,
                    "velocity": 0.33858267716535434,
                    "duration": 0.05617975000001252
                },
                {
                    "name": "C#5",
                    "midi": 73,
                    "time": 256.7976372499975,
                    "velocity": 0.33858267716535434,
                    "duration": 0.05617975000001252
                },
                {
                    "name": "B4",
                    "midi": 71,
                    "time": 256.8538169999975,
                    "velocity": 0.4094488188976378,
                    "duration": 0.33707850000001827
                },
                {
                    "name": "A4",
                    "midi": 69,
                    "time": 257.1908954999975,
                    "velocity": 0.3779527559055118,
                    "duration": 0.11235950000002504
                },
                {
                    "name": "B4",
                    "midi": 71,
                    "time": 257.30325499999753,
                    "velocity": 0.3700787401574803,
                    "duration": 0.22471899999999323
                },
                {
                    "name": "C#5",
                    "midi": 73,
                    "time": 257.5279739999975,
                    "velocity": 0.30708661417322836,
                    "duration": 0.11235950000002504
                },
                {
                    "name": "C#4",
                    "midi": 61,
                    "time": 257.64033349999755,
                    "velocity": 0.2283464566929134,
                    "duration": 0.11235950000002504
                },
                {
                    "name": "C#5",
                    "midi": 73,
                    "time": 257.7526929999976,
                    "velocity": 0.2283464566929134,
                    "duration": 0.11235950000002504
                },
                {
                    "name": "G#4",
                    "midi": 68,
                    "time": 257.8650524999976,
                    "velocity": 0.2283464566929134,
                    "duration": 0.11235950000002504
                },
                {
                    "name": "C#5",
                    "midi": 73,
                    "time": 257.9774119999976,
                    "velocity": 0.2283464566929134,
                    "duration": 0.11235950000002504
                },
                {
                    "name": "G#4",
                    "midi": 68,
                    "time": 258.08977149999765,
                    "velocity": 0.2283464566929134,
                    "duration": 0.11235950000002504
                },
                {
                    "name": "G#5",
                    "midi": 80,
                    "time": 258.2021309999977,
                    "velocity": 0.2283464566929134,
                    "duration": 0.11235950000002504
                },
                {
                    "name": "C#5",
                    "midi": 73,
                    "time": 258.3144904999977,
                    "velocity": 0.2283464566929134,
                    "duration": 0.11235950000002504
                },
                {
                    "name": "G#5",
                    "midi": 80,
                    "time": 258.4268499999977,
                    "velocity": 0.2283464566929134,
                    "duration": 0.11235950000002504
                },
                {
                    "name": "C#5",
                    "midi": 73,
                    "time": 258.53920949999775,
                    "velocity": 0.2283464566929134,
                    "duration": 0.11235950000002504
                },
                {
                    "name": "C#6",
                    "midi": 85,
                    "time": 258.6515689999978,
                    "velocity": 0.2283464566929134,
                    "duration": 0.11235950000002504
                },
                {
                    "name": "G#5",
                    "midi": 80,
                    "time": 258.7639284999978,
                    "velocity": 0.2283464566929134,
                    "duration": 0.11235950000002504
                },
                {
                    "name": "C#6",
                    "midi": 85,
                    "time": 258.8762879999978,
                    "velocity": 0.2283464566929134,
                    "duration": 0.11235950000002504
                },
                {
                    "name": "G#5",
                    "midi": 80,
                    "time": 258.98864749999785,
                    "velocity": 0.2283464566929134,
                    "duration": 0.11235950000002504
                },
                {
                    "name": "G#6",
                    "midi": 92,
                    "time": 259.1010069999979,
                    "velocity": 0.2283464566929134,
                    "duration": 0.11235950000002504
                },
                {
                    "name": "C#6",
                    "midi": 85,
                    "time": 259.2133664999979,
                    "velocity": 0.2283464566929134,
                    "duration": 0.11235950000002504
                },
                {
                    "name": "G#6",
                    "midi": 92,
                    "time": 259.3257259999979,
                    "velocity": 0.2283464566929134,
                    "duration": 0.11235950000002504
                },
                {
                    "name": "C#6",
                    "midi": 85,
                    "time": 259.43808549999795,
                    "velocity": 0.2283464566929134,
                    "duration": 0.11235950000002504
                },
                {
                    "name": "C#7",
                    "midi": 97,
                    "time": 259.550444999998,
                    "velocity": 0.30708661417322836,
                    "duration": 0.11235950000002504
                },
                {
                    "name": "E3",
                    "midi": 52,
                    "time": 260.224601999998,
                    "velocity": 0.29133858267716534,
                    "duration": 0.6741569999999797
                },
                {
                    "name": "C#4",
                    "midi": 61,
                    "time": 260.224601999998,
                    "velocity": 0.3464566929133858,
                    "duration": 1.5730329999999526
                },
                {
                    "name": "E4",
                    "midi": 64,
                    "time": 260.224601999998,
                    "velocity": 0.3464566929133858,
                    "duration": 0.6741569999999797
                },
                {
                    "name": "F#3",
                    "midi": 54,
                    "time": 260.898758999998,
                    "velocity": 0.2440944881889764,
                    "duration": 0.6741569999999797
                },
                {
                    "name": "F#4",
                    "midi": 66,
                    "time": 260.898758999998,
                    "velocity": 0.29133858267716534,
                    "duration": 2.022470999999996
                },
                {
                    "name": "B3",
                    "midi": 59,
                    "time": 261.79763499999797,
                    "velocity": 0.3779527559055118,
                    "duration": 0.22471899999999323
                },
                {
                    "name": "C#4",
                    "midi": 61,
                    "time": 262.02235399999796,
                    "velocity": 0.3779527559055118,
                    "duration": 0.22471899999999323
                },
                {
                    "name": "E4",
                    "midi": 64,
                    "time": 262.24707299999795,
                    "velocity": 0.4015748031496063,
                    "duration": 0.22471899999999323
                },
                {
                    "name": "D4",
                    "midi": 62,
                    "time": 262.47179199999795,
                    "velocity": 0.3700787401574803,
                    "duration": 0.33707850000001827
                },
                {
                    "name": "C#4",
                    "midi": 61,
                    "time": 262.80887049999797,
                    "velocity": 0.3700787401574803,
                    "duration": 0.11235950000002504
                },
                {
                    "name": "E3",
                    "midi": 52,
                    "time": 262.921229999998,
                    "velocity": 0.29133858267716534,
                    "duration": 0.6741569999999797
                },
                {
                    "name": "C#4",
                    "midi": 61,
                    "time": 262.921229999998,
                    "velocity": 0.3464566929133858,
                    "duration": 1.5730329999999526
                },
                {
                    "name": "E4",
                    "midi": 64,
                    "time": 262.921229999998,
                    "velocity": 0.3464566929133858,
                    "duration": 0.6741569999999797
                },
                {
                    "name": "F#3",
                    "midi": 54,
                    "time": 263.59538699999797,
                    "velocity": 0.2440944881889764,
                    "duration": 2.6966280000000893
                },
                {
                    "name": "F#4",
                    "midi": 66,
                    "time": 263.59538699999797,
                    "velocity": 0.29133858267716534,
                    "duration": 2.022470999999939
                },
                {
                    "name": "B3",
                    "midi": 59,
                    "time": 264.49426299999794,
                    "velocity": 0.3779527559055118,
                    "duration": 0.22471899999999323
                },
                {
                    "name": "C#4",
                    "midi": 61,
                    "time": 264.71898199999794,
                    "velocity": 0.3779527559055118,
                    "duration": 0.22471899999999323
                },
                {
                    "name": "E4",
                    "midi": 64,
                    "time": 264.94370099999793,
                    "velocity": 0.4015748031496063,
                    "duration": 0.22471899999999323
                },
                {
                    "name": "D4",
                    "midi": 62,
                    "time": 265.1684199999979,
                    "velocity": 0.3700787401574803,
                    "duration": 0.22471899999999323
                },
                {
                    "name": "C#4",
                    "midi": 61,
                    "time": 265.3931389999979,
                    "velocity": 0.3700787401574803,
                    "duration": 0.15917595833332143
                },
                {
                    "name": "C#4",
                    "midi": 61,
                    "time": 265.5616782499979,
                    "velocity": 0.31496062992125984,
                    "duration": 0.6179772500001377
                },
                {
                    "name": "A4",
                    "midi": 69,
                    "time": 265.6178579999979,
                    "velocity": 0.28346456692913385,
                    "duration": 0.11235950000002504
                },
                {
                    "name": "G#4",
                    "midi": 68,
                    "time": 265.73021749999793,
                    "velocity": 0.25984251968503935,
                    "duration": 0.11235950000002504
                },
                {
                    "name": "B4",
                    "midi": 71,
                    "time": 265.84257699999796,
                    "velocity": 0.30708661417322836,
                    "duration": 0.11235950000002504
                },
                {
                    "name": "A4",
                    "midi": 69,
                    "time": 265.954936499998,
                    "velocity": 0.2992125984251969,
                    "duration": 0.11235950000002504
                },
                {
                    "name": "F#4",
                    "midi": 66,
                    "time": 266.067295999998,
                    "velocity": 0.28346456692913385,
                    "duration": 0.11235950000002504
                },
                {
                    "name": "D4",
                    "midi": 62,
                    "time": 266.17965549999803,
                    "velocity": 0.2755905511811024,
                    "duration": 0.11235950000002504
                },
                {
                    "name": "G#3",
                    "midi": 56,
                    "time": 266.29201499999806,
                    "velocity": 0.2440944881889764,
                    "duration": 1.1235949999999661
                },
                {
                    "name": "C#4",
                    "midi": 61,
                    "time": 266.29201499999806,
                    "velocity": 0.29133858267716534,
                    "duration": 0.6741569999999797
                },
                {
                    "name": "E4",
                    "midi": 64,
                    "time": 266.29201499999806,
                    "velocity": 0.29133858267716534,
                    "duration": 1.3483139999999594
                },
                {
                    "name": "B3",
                    "midi": 59,
                    "time": 266.96617199999804,
                    "velocity": 0.2440944881889764,
                    "duration": 0.44943799999998646
                },
                {
                    "name": "A3",
                    "midi": 57,
                    "time": 267.415609999998,
                    "velocity": 0.2125984251968504,
                    "duration": 0.22471899999999323
                },
                {
                    "name": "C#4",
                    "midi": 61,
                    "time": 267.640328999998,
                    "velocity": 0.1968503937007874,
                    "duration": 1.3483140000000162
                },
                {
                    "name": "C#5",
                    "midi": 73,
                    "time": 269.662799999998,
                    "velocity": 0.33070866141732286,
                    "duration": 1.4606734999999844
                },
                {
                    "name": "D#5",
                    "midi": 75,
                    "time": 271.123473499998,
                    "velocity": 0.33070866141732286,
                    "duration": 0.11235950000002504
                },
                {
                    "name": "F#5",
                    "midi": 78,
                    "time": 271.235832999998,
                    "velocity": 0.33858267716535434,
                    "duration": 0.11235950000002504
                },
                {
                    "name": "E5",
                    "midi": 76,
                    "time": 271.34819249999805,
                    "velocity": 0.3228346456692913,
                    "duration": 0.11235950000002504
                },
                {
                    "name": "C#5",
                    "midi": 73,
                    "time": 271.4605519999981,
                    "velocity": 0.30708661417322836,
                    "duration": 0.11235950000002504
                },
                {
                    "name": "A4",
                    "midi": 69,
                    "time": 271.5729114999981,
                    "velocity": 0.30708661417322836,
                    "duration": 0.11235950000002504
                },
                {
                    "name": "G#4",
                    "midi": 68,
                    "time": 271.6852709999981,
                    "velocity": 0.2755905511811024,
                    "duration": 0.028089874999977837
                },
                {
                    "name": "G#4",
                    "midi": 68,
                    "time": 271.7414507499981,
                    "velocity": 0.2755905511811024,
                    "duration": 0.05617975000001252
                },
                {
                    "name": "G#5",
                    "midi": 80,
                    "time": 271.7976304999981,
                    "velocity": 0.33858267716535434,
                    "duration": 0.44943799999998646
                },
                {
                    "name": "F#5",
                    "midi": 78,
                    "time": 272.2470684999981,
                    "velocity": 0.29133858267716534,
                    "duration": 0.05617975000001252
                },
                {
                    "name": "G#5",
                    "midi": 80,
                    "time": 272.3032482499981,
                    "velocity": 0.29133858267716534,
                    "duration": 0.05617975000001252
                },
                {
                    "name": "F#5",
                    "midi": 78,
                    "time": 272.3594279999981,
                    "velocity": 0.33858267716535434,
                    "duration": 0.33707850000001827
                },
                {
                    "name": "E5",
                    "midi": 76,
                    "time": 272.6965064999981,
                    "velocity": 0.30708661417322836,
                    "duration": 0.11235950000002504
                },
                {
                    "name": "F#5",
                    "midi": 78,
                    "time": 272.80886599999815,
                    "velocity": 0.30708661417322836,
                    "duration": 0.22471899999999323
                },
                {
                    "name": "G#5",
                    "midi": 80,
                    "time": 273.03358499999814,
                    "velocity": 0.33070866141732286,
                    "duration": 0.33707850000001827
                },
                {
                    "name": "A5",
                    "midi": 81,
                    "time": 273.37066349999816,
                    "velocity": 0.31496062992125984,
                    "duration": 0.11235950000002504
                },
                {
                    "name": "G#5",
                    "midi": 80,
                    "time": 273.4830229999982,
                    "velocity": 0.31496062992125984,
                    "duration": 0.11235950000002504
                },
                {
                    "name": "F#5",
                    "midi": 78,
                    "time": 273.5953824999982,
                    "velocity": 0.29133858267716534,
                    "duration": 0.05617975000001252
                },
                {
                    "name": "G#5",
                    "midi": 80,
                    "time": 273.6515622499982,
                    "velocity": 0.29133858267716534,
                    "duration": 0.05617975000001252
                },
                {
                    "name": "F#5",
                    "midi": 78,
                    "time": 273.70774199999823,
                    "velocity": 0.3464566929133858,
                    "duration": 0.33707850000001827
                },
                {
                    "name": "E5",
                    "midi": 76,
                    "time": 274.04482049999825,
                    "velocity": 0.25984251968503935,
                    "duration": 0.11235950000002504
                },
                {
                    "name": "F#5",
                    "midi": 78,
                    "time": 274.1571799999983,
                    "velocity": 0.2440944881889764,
                    "duration": 0.22471899999999323
                },
                {
                    "name": "G#5",
                    "midi": 80,
                    "time": 274.38189899999827,
                    "velocity": 0.2440944881889764,
                    "duration": 1.011235499999998
                },
                {
                    "name": "G#4",
                    "midi": 68,
                    "time": 275.39313449999827,
                    "velocity": 0.1968503937007874,
                    "duration": 0.11235950000002504
                },
                {
                    "name": "G#5",
                    "midi": 80,
                    "time": 275.5054939999983,
                    "velocity": 0.1968503937007874,
                    "duration": 0.11235950000002504
                },
                {
                    "name": "D#5",
                    "midi": 75,
                    "time": 275.6178534999983,
                    "velocity": 0.1968503937007874,
                    "duration": 0.11235950000002504
                },
                {
                    "name": "G#5",
                    "midi": 80,
                    "time": 275.73021299999834,
                    "velocity": 0.1968503937007874,
                    "duration": 0.11235950000002504
                },
                {
                    "name": "D#5",
                    "midi": 75,
                    "time": 275.84257249999837,
                    "velocity": 0.1968503937007874,
                    "duration": 0.11235950000002504
                },
                {
                    "name": "D#6",
                    "midi": 87,
                    "time": 275.9549319999984,
                    "velocity": 0.16535433070866143,
                    "duration": 0.11235950000002504
                },
                {
                    "name": "G#5",
                    "midi": 80,
                    "time": 276.0672914999984,
                    "velocity": 0.16535433070866143,
                    "duration": 0.11235950000002504
                },
                {
                    "name": "D#6",
                    "midi": 87,
                    "time": 276.17965099999844,
                    "velocity": 0.16535433070866143,
                    "duration": 0.11235950000002504
                },
                {
                    "name": "G#5",
                    "midi": 80,
                    "time": 276.29201049999847,
                    "velocity": 0.16535433070866143,
                    "duration": 0.11235950000002504
                },
                {
                    "name": "G#6",
                    "midi": 92,
                    "time": 276.4043699999985,
                    "velocity": 0.2204724409448819,
                    "duration": 0.11235950000002504
                },
                {
                    "name": "G#5",
                    "midi": 80,
                    "time": 276.62908899999854,
                    "velocity": 0.3464566929133858,
                    "duration": 0.22471899999999323
                },
                {
                    "name": "F#5",
                    "midi": 78,
                    "time": 276.85380799999854,
                    "velocity": 0.3464566929133858,
                    "duration": 0.22471899999999323
                },
                {
                    "name": "E5",
                    "midi": 76,
                    "time": 277.07852699999853,
                    "velocity": 0.3543307086614173,
                    "duration": 0.8988760000000298
                },
                {
                    "name": "G4",
                    "midi": 67,
                    "time": 277.3032459999985,
                    "velocity": 0.2677165354330709,
                    "duration": 0.11235950000002504
                },
                {
                    "name": "G#4",
                    "midi": 68,
                    "time": 277.41560549999855,
                    "velocity": 0.2440944881889764,
                    "duration": 0.11235950000002504
                },
                {
                    "name": "B4",
                    "midi": 71,
                    "time": 277.5279649999986,
                    "velocity": 0.2677165354330709,
                    "duration": 0.07490633333333108
                },
                {
                    "name": "A4",
                    "midi": 69,
                    "time": 277.6028713333319,
                    "velocity": 0.2677165354330709,
                    "duration": 0.07490633333333108
                },
                {
                    "name": "G#4",
                    "midi": 68,
                    "time": 277.67777766666524,
                    "velocity": 0.25196850393700787,
                    "duration": 0.07490633333333108
                },
                {
                    "name": "G#4",
                    "midi": 68,
                    "time": 277.75268399999857,
                    "velocity": 0.33858267716535434,
                    "duration": 0.8988759999999729
                },
                {
                    "name": "E5",
                    "midi": 76,
                    "time": 277.97740299999856,
                    "velocity": 0.33070866141732286,
                    "duration": 0.22471899999999323
                },
                {
                    "name": "D#5",
                    "midi": 75,
                    "time": 278.20212199999855,
                    "velocity": 0.30708661417322836,
                    "duration": 0.22471899999999323
                },
                {
                    "name": "C#5",
                    "midi": 73,
                    "time": 278.42684099999855,
                    "velocity": 0.3464566929133858,
                    "duration": 0.22471899999999323
                },
                {
                    "name": "G4",
                    "midi": 67,
                    "time": 278.65155999999854,
                    "velocity": 0.28346456692913385,
                    "duration": 0.11235950000002504
                },
                {
                    "name": "G#4",
                    "midi": 68,
                    "time": 278.76391949999856,
                    "velocity": 0.25984251968503935,
                    "duration": 0.11235950000002504
                },
                {
                    "name": "B4",
                    "midi": 71,
                    "time": 278.8762789999986,
                    "velocity": 0.28346456692913385,
                    "duration": 0.07490633333333108
                },
                {
                    "name": "A4",
                    "midi": 69,
                    "time": 278.9511853333319,
                    "velocity": 0.28346456692913385,
                    "duration": 0.07490633333333108
                },
                {
                    "name": "G#4",
                    "midi": 68,
                    "time": 279.02609166666525,
                    "velocity": 0.25984251968503935,
                    "duration": 0.07490633333333108
                },
                {
                    "name": "G#4",
                    "midi": 68,
                    "time": 279.1009979999986,
                    "velocity": 0.3464566929133858,
                    "duration": 0.8988759999999729
                },
                {
                    "name": "G#5",
                    "midi": 80,
                    "time": 279.3257169999986,
                    "velocity": 0.33858267716535434,
                    "duration": 0.22471899999999323
                },
                {
                    "name": "F#5",
                    "midi": 78,
                    "time": 279.55043599999857,
                    "velocity": 0.30708661417322836,
                    "duration": 0.22471899999999323
                },
                {
                    "name": "E5",
                    "midi": 76,
                    "time": 279.77515499999856,
                    "velocity": 0.36220472440944884,
                    "duration": 0.8988760000000298
                },
                {
                    "name": "G4",
                    "midi": 67,
                    "time": 279.99987399999856,
                    "velocity": 0.2992125984251969,
                    "duration": 0.11235950000002504
                },
                {
                    "name": "G#4",
                    "midi": 68,
                    "time": 280.1122334999986,
                    "velocity": 0.2755905511811024,
                    "duration": 0.11235950000002504
                },
                {
                    "name": "B4",
                    "midi": 71,
                    "time": 280.2245929999986,
                    "velocity": 0.2992125984251969,
                    "duration": 0.07490633333333108
                },
                {
                    "name": "A4",
                    "midi": 69,
                    "time": 280.29949933333194,
                    "velocity": 0.2992125984251969,
                    "duration": 0.07490633333333108
                },
                {
                    "name": "G#4",
                    "midi": 68,
                    "time": 280.37440566666527,
                    "velocity": 0.28346456692913385,
                    "duration": 0.07490633333333108
                },
                {
                    "name": "G#4",
                    "midi": 68,
                    "time": 280.4493119999986,
                    "velocity": 0.33070866141732286,
                    "duration": 0.6741569999999797
                },
                {
                    "name": "E5",
                    "midi": 76,
                    "time": 280.6740309999986,
                    "velocity": 0.33858267716535434,
                    "duration": 0.22471899999999323
                },
                {
                    "name": "D#5",
                    "midi": 75,
                    "time": 280.8987499999986,
                    "velocity": 0.2992125984251969,
                    "duration": 0.22471899999999323
                },
                {
                    "name": "C#5",
                    "midi": 73,
                    "time": 281.1234689999986,
                    "velocity": 0.3700787401574803,
                    "duration": 0.22471899999999323
                },
                {
                    "name": "C5",
                    "midi": 72,
                    "time": 281.3481879999986,
                    "velocity": 0.29133858267716534,
                    "duration": 0.11235950000002504
                },
                {
                    "name": "C#5",
                    "midi": 73,
                    "time": 281.4605474999986,
                    "velocity": 0.2755905511811024,
                    "duration": 0.11235950000002504
                },
                {
                    "name": "E5",
                    "midi": 76,
                    "time": 281.5729069999986,
                    "velocity": 0.29133858267716534,
                    "duration": 0.07490633333333108
                },
                {
                    "name": "D5",
                    "midi": 74,
                    "time": 281.64781333333195,
                    "velocity": 0.29133858267716534,
                    "duration": 0.07490633333333108
                },
                {
                    "name": "C#5",
                    "midi": 73,
                    "time": 281.7227196666653,
                    "velocity": 0.2755905511811024,
                    "duration": 0.0655430416666718
                },
                {
                    "name": "C#5",
                    "midi": 73,
                    "time": 281.7976259999986,
                    "velocity": 0.3228346456692913,
                    "duration": 0.8988759999999729
                },
                {
                    "name": "C#6",
                    "midi": 85,
                    "time": 282.0223449999986,
                    "velocity": 0.36220472440944884,
                    "duration": 0.22471899999999323
                },
                {
                    "name": "B5",
                    "midi": 83,
                    "time": 282.2470639999986,
                    "velocity": 0.33858267716535434,
                    "duration": 0.22471899999999323
                },
                {
                    "name": "A5",
                    "midi": 81,
                    "time": 282.4717829999986,
                    "velocity": 0.41732283464566927,
                    "duration": 0.8988760000000298
                },
                {
                    "name": "C5",
                    "midi": 72,
                    "time": 282.6965019999986,
                    "velocity": 0.25196850393700787,
                    "duration": 0.11235950000002504
                },
                {
                    "name": "C#5",
                    "midi": 73,
                    "time": 282.8088614999986,
                    "velocity": 0.23622047244094488,
                    "duration": 0.11235950000002504
                },
                {
                    "name": "E5",
                    "midi": 76,
                    "time": 282.92122099999864,
                    "velocity": 0.25196850393700787,
                    "duration": 0.07490633333333108
                },
                {
                    "name": "D5",
                    "midi": 74,
                    "time": 282.99612733333197,
                    "velocity": 0.25196850393700787,
                    "duration": 0.07490633333333108
                },
                {
                    "name": "C#5",
                    "midi": 73,
                    "time": 283.0710336666653,
                    "velocity": 0.23622047244094488,
                    "duration": 0.0655430416666718
                },
                {
                    "name": "C#5",
                    "midi": 73,
                    "time": 283.14593999999863,
                    "velocity": 0.29133858267716534,
                    "duration": 0.8988759999999729
                },
                {
                    "name": "A5",
                    "midi": 81,
                    "time": 283.3706589999986,
                    "velocity": 0.2992125984251969,
                    "duration": 0.22471899999999323
                },
                {
                    "name": "G#5",
                    "midi": 80,
                    "time": 283.5953779999986,
                    "velocity": 0.28346456692913385,
                    "duration": 0.22471899999999323
                },
                {
                    "name": "F#5",
                    "midi": 78,
                    "time": 283.8200969999986,
                    "velocity": 0.31496062992125984,
                    "duration": 0.22471899999999323
                },
                {
                    "name": "C5",
                    "midi": 72,
                    "time": 284.0448159999986,
                    "velocity": 0.2125984251968504,
                    "duration": 0.11235950000002504
                },
                {
                    "name": "C#5",
                    "midi": 73,
                    "time": 284.15717549999863,
                    "velocity": 0.2125984251968504,
                    "duration": 0.11235950000002504
                },
                {
                    "name": "E5",
                    "midi": 76,
                    "time": 284.26953499999865,
                    "velocity": 0.23622047244094488,
                    "duration": 0.07490633333333108
                },
                {
                    "name": "D5",
                    "midi": 74,
                    "time": 284.344441333332,
                    "velocity": 0.23622047244094488,
                    "duration": 0.07490633333333108
                },
                {
                    "name": "C#5",
                    "midi": 73,
                    "time": 284.4193476666653,
                    "velocity": 0.2283464566929134,
                    "duration": 0.0655430416666718
                },
                {
                    "name": "C#5",
                    "midi": 73,
                    "time": 284.49425399999865,
                    "velocity": 0.2992125984251969,
                    "duration": 0.8988759999999729
                },
                {
                    "name": "C#6",
                    "midi": 85,
                    "time": 284.71897299999864,
                    "velocity": 0.31496062992125984,
                    "duration": 0.22471899999999323
                },
                {
                    "name": "B5",
                    "midi": 83,
                    "time": 284.94369199999863,
                    "velocity": 0.2992125984251969,
                    "duration": 0.22471899999999323
                },
                {
                    "name": "A5",
                    "midi": 81,
                    "time": 285.1684109999986,
                    "velocity": 0.3543307086614173,
                    "duration": 0.8988760000000298
                },
                {
                    "name": "C5",
                    "midi": 72,
                    "time": 285.3931299999986,
                    "velocity": 0.29133858267716534,
                    "duration": 0.11235950000002504
                },
                {
                    "name": "C#5",
                    "midi": 73,
                    "time": 285.50548949999865,
                    "velocity": 0.29133858267716534,
                    "duration": 0.11235950000002504
                },
                {
                    "name": "E5",
                    "midi": 76,
                    "time": 285.61784899999867,
                    "velocity": 0.29133858267716534,
                    "duration": 0.07490633333333108
                },
                {
                    "name": "D5",
                    "midi": 74,
                    "time": 285.692755333332,
                    "velocity": 0.29133858267716534,
                    "duration": 0.07490633333333108
                },
                {
                    "name": "C#5",
                    "midi": 73,
                    "time": 285.76766166666533,
                    "velocity": 0.2677165354330709,
                    "duration": 0.0655430416666718
                },
                {
                    "name": "C#5",
                    "midi": 73,
                    "time": 285.84256799999866,
                    "velocity": 0.33070866141732286,
                    "duration": 0.8988759999999729
                },
                {
                    "name": "A5",
                    "midi": 81,
                    "time": 286.06728699999866,
                    "velocity": 0.3464566929133858,
                    "duration": 0.22471899999999323
                },
                {
                    "name": "G#5",
                    "midi": 80,
                    "time": 286.29200599999865,
                    "velocity": 0.31496062992125984,
                    "duration": 0.22471899999999323
                },
                {
                    "name": "F#5",
                    "midi": 78,
                    "time": 286.51672499999864,
                    "velocity": 0.3700787401574803,
                    "duration": 0.8988760000000298
                },
                {
                    "name": "C5",
                    "midi": 72,
                    "time": 286.74144399999864,
                    "velocity": 0.29133858267716534,
                    "duration": 0.11235950000002504
                },
                {
                    "name": "C#5",
                    "midi": 73,
                    "time": 286.85380349999866,
                    "velocity": 0.2755905511811024,
                    "duration": 0.11235950000002504
                },
                {
                    "name": "E5",
                    "midi": 76,
                    "time": 286.9661629999987,
                    "velocity": 0.29133858267716534,
                    "duration": 0.07490633333333108
                },
                {
                    "name": "D5",
                    "midi": 74,
                    "time": 287.041069333332,
                    "velocity": 0.29133858267716534,
                    "duration": 0.07490633333333108
                },
                {
                    "name": "C#5",
                    "midi": 73,
                    "time": 287.11597566666535,
                    "velocity": 0.2755905511811024,
                    "duration": 0.0655430416666718
                },
                {
                    "name": "C#5",
                    "midi": 73,
                    "time": 287.1908819999987,
                    "velocity": 0.3228346456692913,
                    "duration": 0.6741569999999797
                },
                {
                    "name": "G#5",
                    "midi": 80,
                    "time": 287.4156009999987,
                    "velocity": 0.33858267716535434,
                    "duration": 0.22471899999999323
                },
                {
                    "name": "A5",
                    "midi": 81,
                    "time": 287.64031999999867,
                    "velocity": 0.31496062992125984,
                    "duration": 0.22471899999999323
                },
                {
                    "name": "G#5",
                    "midi": 80,
                    "time": 287.86503899999866,
                    "velocity": 0.3937007874015748,
                    "duration": 0.22471899999999323
                },
                {
                    "name": "G4",
                    "midi": 67,
                    "time": 288.08975799999865,
                    "velocity": 0.25196850393700787,
                    "duration": 0.11235950000002504
                },
                {
                    "name": "G#4",
                    "midi": 68,
                    "time": 288.2021174999987,
                    "velocity": 0.23622047244094488,
                    "duration": 0.11235950000002504
                },
                {
                    "name": "B4",
                    "midi": 71,
                    "time": 288.3144769999987,
                    "velocity": 0.25196850393700787,
                    "duration": 0.07490633333333108
                },
                {
                    "name": "A4",
                    "midi": 69,
                    "time": 288.38938333333203,
                    "velocity": 0.25196850393700787,
                    "duration": 0.07490633333333108
                },
                {
                    "name": "G#4",
                    "midi": 68,
                    "time": 288.46428966666537,
                    "velocity": 0.23622047244094488,
                    "duration": 0.0655430416666718
                },
                {
                    "name": "G#4",
                    "midi": 68,
                    "time": 288.5391959999987,
                    "velocity": 0.29133858267716534,
                    "duration": 0.8988759999999729
                },
                {
                    "name": "F#5",
                    "midi": 78,
                    "time": 288.7639149999987,
                    "velocity": 0.3700787401574803,
                    "duration": 0.22471899999999323
                },
                {
                    "name": "E5",
                    "midi": 76,
                    "time": 288.9886339999987,
                    "velocity": 0.3464566929133858,
                    "duration": 0.22471899999999323
                },
                {
                    "name": "D#5",
                    "midi": 75,
                    "time": 289.2133529999987,
                    "velocity": 0.41732283464566927,
                    "duration": 0.8988760000000298
                },
                {
                    "name": "G4",
                    "midi": 67,
                    "time": 289.43807199999867,
                    "velocity": 0.2992125984251969,
                    "duration": 0.11235950000002504
                },
                {
                    "name": "G#4",
                    "midi": 68,
                    "time": 289.5504314999987,
                    "velocity": 0.2992125984251969,
                    "duration": 0.11235950000002504
                },
                {
                    "name": "B4",
                    "midi": 71,
                    "time": 289.6627909999987,
                    "velocity": 0.2992125984251969,
                    "duration": 0.07490633333333108
                },
                {
                    "name": "A4",
                    "midi": 69,
                    "time": 289.73769733333205,
                    "velocity": 0.2992125984251969,
                    "duration": 0.07490633333333108
                },
                {
                    "name": "G#4",
                    "midi": 68,
                    "time": 289.8126036666654,
                    "velocity": 0.2755905511811024,
                    "duration": 0.0655430416666718
                },
                {
                    "name": "G#4",
                    "midi": 68,
                    "time": 289.8875099999987,
                    "velocity": 0.36220472440944884,
                    "duration": 0.8988759999999729
                },
                {
                    "name": "D#5",
                    "midi": 75,
                    "time": 290.1122289999987,
                    "velocity": 0.3700787401574803,
                    "duration": 0.22471899999999323
                },
                {
                    "name": "C#5",
                    "midi": 73,
                    "time": 290.3369479999987,
                    "velocity": 0.3464566929133858,
                    "duration": 0.22471899999999323
                },
                {
                    "name": "C5",
                    "midi": 72,
                    "time": 290.5616669999987,
                    "velocity": 0.4094488188976378,
                    "duration": 0.22471899999999323
                },
                {
                    "name": "G4",
                    "midi": 67,
                    "time": 290.7863859999987,
                    "velocity": 0.3228346456692913,
                    "duration": 0.11235950000002504
                },
                {
                    "name": "G#4",
                    "midi": 68,
                    "time": 290.8987454999987,
                    "velocity": 0.2992125984251969,
                    "duration": 0.11235950000002504
                },
                {
                    "name": "B4",
                    "midi": 71,
                    "time": 291.01110499999874,
                    "velocity": 0.3228346456692913,
                    "duration": 0.07490633333333108
                },
                {
                    "name": "A4",
                    "midi": 69,
                    "time": 291.08601133333207,
                    "velocity": 0.3228346456692913,
                    "duration": 0.07490633333333108
                },
                {
                    "name": "G#4",
                    "midi": 68,
                    "time": 291.1609176666654,
                    "velocity": 0.2992125984251969,
                    "duration": 0.0655430416666718
                },
                {
                    "name": "G#4",
                    "midi": 68,
                    "time": 291.23582399999873,
                    "velocity": 0.4094488188976378,
                    "duration": 0.8988759999999729
                },
                {
                    "name": "F#5",
                    "midi": 78,
                    "time": 291.4605429999987,
                    "velocity": 0.33858267716535434,
                    "duration": 0.22471899999999323
                },
                {
                    "name": "E5",
                    "midi": 76,
                    "time": 291.6852619999987,
                    "velocity": 0.30708661417322836,
                    "duration": 0.22471899999999323
                },
                {
                    "name": "D#5",
                    "midi": 75,
                    "time": 291.9099809999987,
                    "velocity": 0.3700787401574803,
                    "duration": 0.22471899999999323
                },
                {
                    "name": "A#4",
                    "midi": 70,
                    "time": 292.1346999999987,
                    "velocity": 0.2992125984251969,
                    "duration": 0.11235950000002504
                },
                {
                    "name": "B4",
                    "midi": 71,
                    "time": 292.2470594999987,
                    "velocity": 0.28346456692913385,
                    "duration": 0.11235950000002504
                },
                {
                    "name": "D#5",
                    "midi": 75,
                    "time": 292.35941899999875,
                    "velocity": 0.2992125984251969,
                    "duration": 0.07490633333333108
                },
                {
                    "name": "C#5",
                    "midi": 73,
                    "time": 292.4343253333321,
                    "velocity": 0.2992125984251969,
                    "duration": 0.07490633333333108
                },
                {
                    "name": "B4",
                    "midi": 71,
                    "time": 292.5092316666654,
                    "velocity": 0.2755905511811024,
                    "duration": 0.0655430416666718
                },
                {
                    "name": "B4",
                    "midi": 71,
                    "time": 292.58413799999875,
                    "velocity": 0.3228346456692913,
                    "duration": 0.6741569999999797
                },
                {
                    "name": "E5",
                    "midi": 76,
                    "time": 292.80885699999874,
                    "velocity": 0.2677165354330709,
                    "duration": 0.22471899999999323
                },
                {
                    "name": "F#5",
                    "midi": 78,
                    "time": 293.03357599999873,
                    "velocity": 0.2677165354330709,
                    "duration": 0.22471899999999323
                },
                {
                    "name": "G#4",
                    "midi": 68,
                    "time": 293.2582949999987,
                    "velocity": 0.2755905511811024,
                    "duration": 0.11235950000002504
                },
                {
                    "name": "B4",
                    "midi": 71,
                    "time": 293.37065449999875,
                    "velocity": 0.29133858267716534,
                    "duration": 0.11235950000002504
                },
                {
                    "name": "E5",
                    "midi": 76,
                    "time": 293.4830139999988,
                    "velocity": 0.31496062992125984,
                    "duration": 0.11235950000002504
                },
                {
                    "name": "G#5",
                    "midi": 80,
                    "time": 293.5953734999988,
                    "velocity": 0.33070866141732286,
                    "duration": 0.11235950000002504
                },
                {
                    "name": "F#5",
                    "midi": 78,
                    "time": 293.7077329999988,
                    "velocity": 0.3464566929133858,
                    "duration": 0.11235950000002504
                },
                {
                    "name": "E5",
                    "midi": 76,
                    "time": 293.82009249999885,
                    "velocity": 0.33070866141732286,
                    "duration": 0.11235950000002504
                },
                {
                    "name": "G#5",
                    "midi": 80,
                    "time": 293.9324519999989,
                    "velocity": 0.2992125984251969,
                    "duration": 0.11235950000002504
                },
                {
                    "name": "B5",
                    "midi": 83,
                    "time": 294.0448114999989,
                    "velocity": 0.31496062992125984,
                    "duration": 0.11235950000002504
                },
                {
                    "name": "E6",
                    "midi": 88,
                    "time": 294.1571709999989,
                    "velocity": 0.33858267716535434,
                    "duration": 0.11235950000002504
                },
                {
                    "name": "G#6",
                    "midi": 92,
                    "time": 294.26953049999895,
                    "velocity": 0.36220472440944884,
                    "duration": 0.11235950000002504
                },
                {
                    "name": "F#6",
                    "midi": 90,
                    "time": 294.381889999999,
                    "velocity": 0.3937007874015748,
                    "duration": 0.11235950000002504
                },
                {
                    "name": "E6",
                    "midi": 88,
                    "time": 294.494249499999,
                    "velocity": 0.3700787401574803,
                    "duration": 0.11235950000002504
                },
                {
                    "name": "B5",
                    "midi": 83,
                    "time": 294.606608999999,
                    "velocity": 0.3464566929133858,
                    "duration": 0.11235950000002504
                },
                {
                    "name": "G#5",
                    "midi": 80,
                    "time": 294.71896849999905,
                    "velocity": 0.33858267716535434,
                    "duration": 0.11235950000002504
                },
                {
                    "name": "F#5",
                    "midi": 78,
                    "time": 294.8313279999991,
                    "velocity": 0.33070866141732286,
                    "duration": 0.11235950000002504
                },
                {
                    "name": "E5",
                    "midi": 76,
                    "time": 294.9436874999991,
                    "velocity": 0.3228346456692913,
                    "duration": 0.11235950000002504
                },
                {
                    "name": "B4",
                    "midi": 71,
                    "time": 295.0560469999991,
                    "velocity": 0.31496062992125984,
                    "duration": 0.11235950000002504
                },
                {
                    "name": "G#4",
                    "midi": 68,
                    "time": 295.16840649999915,
                    "velocity": 0.30708661417322836,
                    "duration": 0.11235950000002504
                },
                {
                    "name": "F#4",
                    "midi": 66,
                    "time": 295.2807659999992,
                    "velocity": 0.2992125984251969,
                    "duration": 0.11235950000002504
                },
                {
                    "name": "E4",
                    "midi": 64,
                    "time": 295.3931254999992,
                    "velocity": 0.29133858267716534,
                    "duration": 0.11235950000002504
                },
                {
                    "name": "B3",
                    "midi": 59,
                    "time": 295.5054849999992,
                    "velocity": 0.28346456692913385,
                    "duration": 0.11235950000002504
                },
                {
                    "name": "G#4",
                    "midi": 68,
                    "time": 295.61784449999925,
                    "velocity": 0.30708661417322836,
                    "duration": 0.11235950000002504
                },
                {
                    "name": "F#4",
                    "midi": 66,
                    "time": 295.7302039999993,
                    "velocity": 0.2992125984251969,
                    "duration": 0.11235950000002504
                },
                {
                    "name": "E4",
                    "midi": 64,
                    "time": 295.8425634999993,
                    "velocity": 0.29133858267716534,
                    "duration": 0.11235950000002504
                },
                {
                    "name": "C#4",
                    "midi": 61,
                    "time": 295.9549229999993,
                    "velocity": 0.28346456692913385,
                    "duration": 0.11235950000002504
                },
                {
                    "name": "E4",
                    "midi": 64,
                    "time": 296.06728249999935,
                    "velocity": 0.2677165354330709,
                    "duration": 0.11235950000002504
                },
                {
                    "name": "F#4",
                    "midi": 66,
                    "time": 296.1796419999994,
                    "velocity": 0.29133858267716534,
                    "duration": 0.11235950000002504
                },
                {
                    "name": "A4",
                    "midi": 69,
                    "time": 296.2920014999994,
                    "velocity": 0.30708661417322836,
                    "duration": 0.11235950000002504
                },
                {
                    "name": "C#5",
                    "midi": 73,
                    "time": 296.4043609999994,
                    "velocity": 0.3228346456692913,
                    "duration": 0.11235950000002504
                },
                {
                    "name": "E5",
                    "midi": 76,
                    "time": 296.51672049999945,
                    "velocity": 0.33858267716535434,
                    "duration": 0.11235950000002504
                },
                {
                    "name": "F#5",
                    "midi": 78,
                    "time": 296.6290799999995,
                    "velocity": 0.36220472440944884,
                    "duration": 0.11235950000002504
                },
                {
                    "name": "A5",
                    "midi": 81,
                    "time": 296.7414394999995,
                    "velocity": 0.3779527559055118,
                    "duration": 0.11235950000002504
                },
                {
                    "name": "C#6",
                    "midi": 85,
                    "time": 296.8537989999995,
                    "velocity": 0.3937007874015748,
                    "duration": 0.11235950000002504
                },
                {
                    "name": "E6",
                    "midi": 88,
                    "time": 296.96615849999955,
                    "velocity": 0.4015748031496063,
                    "duration": 0.11235950000002504
                },
                {
                    "name": "F#6",
                    "midi": 90,
                    "time": 297.0785179999996,
                    "velocity": 0.3858267716535433,
                    "duration": 0.11235950000002504
                },
                {
                    "name": "A6",
                    "midi": 93,
                    "time": 297.1908774999996,
                    "velocity": 0.3700787401574803,
                    "duration": 0.11235950000002504
                },
                {
                    "name": "G#6",
                    "midi": 92,
                    "time": 297.3032369999996,
                    "velocity": 0.3937007874015748,
                    "duration": 0.11235950000002504
                },
                {
                    "name": "F#6",
                    "midi": 90,
                    "time": 297.41559649999965,
                    "velocity": 0.3858267716535433,
                    "duration": 0.11235950000002504
                },
                {
                    "name": "D#6",
                    "midi": 87,
                    "time": 297.5279559999997,
                    "velocity": 0.3858267716535433,
                    "duration": 0.11235950000002504
                },
                {
                    "name": "A5",
                    "midi": 81,
                    "time": 297.6403154999997,
                    "velocity": 0.3779527559055118,
                    "duration": 0.11235950000002504
                },
                {
                    "name": "G#5",
                    "midi": 80,
                    "time": 297.7526749999997,
                    "velocity": 0.3700787401574803,
                    "duration": 0.11235950000002504
                },
                {
                    "name": "F#5",
                    "midi": 78,
                    "time": 297.86503449999975,
                    "velocity": 0.36220472440944884,
                    "duration": 0.11235950000002504
                },
                {
                    "name": "D#5",
                    "midi": 75,
                    "time": 297.9773939999998,
                    "velocity": 0.3543307086614173,
                    "duration": 0.11235950000002504
                },
                {
                    "name": "B4",
                    "midi": 71,
                    "time": 298.0897534999998,
                    "velocity": 0.3464566929133858,
                    "duration": 0.11235950000002504
                },
                {
                    "name": "D#5",
                    "midi": 75,
                    "time": 298.2021129999998,
                    "velocity": 0.3543307086614173,
                    "duration": 0.11235950000002504
                },
                {
                    "name": "C#5",
                    "midi": 73,
                    "time": 298.31447249999985,
                    "velocity": 0.33070866141732286,
                    "duration": 0.11235950000002504
                },
                {
                    "name": "B4",
                    "midi": 71,
                    "time": 298.4268319999999,
                    "velocity": 0.30708661417322836,
                    "duration": 0.11235950000002504
                },
                {
                    "name": "A4",
                    "midi": 69,
                    "time": 298.5391914999999,
                    "velocity": 0.29133858267716534,
                    "duration": 0.11235950000002504
                },
                {
                    "name": "G#4",
                    "midi": 68,
                    "time": 298.6515509999999,
                    "velocity": 0.2755905511811024,
                    "duration": 0.11235950000002504
                },
                {
                    "name": "B4",
                    "midi": 71,
                    "time": 298.76391049999995,
                    "velocity": 0.29133858267716534,
                    "duration": 0.11235950000002504
                },
                {
                    "name": "E5",
                    "midi": 76,
                    "time": 298.87627,
                    "velocity": 0.31496062992125984,
                    "duration": 0.11235950000002504
                },
                {
                    "name": "G#5",
                    "midi": 80,
                    "time": 298.9886295,
                    "velocity": 0.33070866141732286,
                    "duration": 0.11235950000002504
                },
                {
                    "name": "F#5",
                    "midi": 78,
                    "time": 299.100989,
                    "velocity": 0.3464566929133858,
                    "duration": 0.11235950000002504
                },
                {
                    "name": "E5",
                    "midi": 76,
                    "time": 299.21334850000005,
                    "velocity": 0.33070866141732286,
                    "duration": 0.11235950000002504
                },
                {
                    "name": "G#5",
                    "midi": 80,
                    "time": 299.3257080000001,
                    "velocity": 0.2992125984251969,
                    "duration": 0.11235950000002504
                },
                {
                    "name": "B5",
                    "midi": 83,
                    "time": 299.4380675000001,
                    "velocity": 0.31496062992125984,
                    "duration": 0.11235950000002504
                },
                {
                    "name": "E6",
                    "midi": 88,
                    "time": 299.5504270000001,
                    "velocity": 0.33858267716535434,
                    "duration": 0.11235950000002504
                },
                {
                    "name": "G#6",
                    "midi": 92,
                    "time": 299.66278650000015,
                    "velocity": 0.36220472440944884,
                    "duration": 0.11235950000002504
                },
                {
                    "name": "F#6",
                    "midi": 90,
                    "time": 299.7751460000002,
                    "velocity": 0.3937007874015748,
                    "duration": 0.11235950000002504
                },
                {
                    "name": "E6",
                    "midi": 88,
                    "time": 299.8875055000002,
                    "velocity": 0.3700787401574803,
                    "duration": 0.11235950000002504
                },
                {
                    "name": "B5",
                    "midi": 83,
                    "time": 299.9998650000002,
                    "velocity": 0.3464566929133858,
                    "duration": 0.11235950000002504
                },
                {
                    "name": "G#5",
                    "midi": 80,
                    "time": 300.11222450000025,
                    "velocity": 0.33858267716535434,
                    "duration": 0.11235950000002504
                },
                {
                    "name": "F#5",
                    "midi": 78,
                    "time": 300.2245840000003,
                    "velocity": 0.33070866141732286,
                    "duration": 0.11235950000002504
                },
                {
                    "name": "E5",
                    "midi": 76,
                    "time": 300.3369435000003,
                    "velocity": 0.3228346456692913,
                    "duration": 0.11235950000002504
                },
                {
                    "name": "B4",
                    "midi": 71,
                    "time": 300.4493030000003,
                    "velocity": 0.31496062992125984,
                    "duration": 0.11235950000002504
                },
                {
                    "name": "G#4",
                    "midi": 68,
                    "time": 300.56166250000035,
                    "velocity": 0.30708661417322836,
                    "duration": 0.11235950000002504
                },
                {
                    "name": "F#4",
                    "midi": 66,
                    "time": 300.6740220000004,
                    "velocity": 0.2992125984251969,
                    "duration": 0.11235950000002504
                },
                {
                    "name": "E4",
                    "midi": 64,
                    "time": 300.7863815000004,
                    "velocity": 0.29133858267716534,
                    "duration": 0.11235950000002504
                },
                {
                    "name": "B3",
                    "midi": 59,
                    "time": 300.8987410000004,
                    "velocity": 0.28346456692913385,
                    "duration": 0.11235950000002504
                },
                {
                    "name": "G#4",
                    "midi": 68,
                    "time": 301.01110050000045,
                    "velocity": 0.30708661417322836,
                    "duration": 0.11235950000002504
                },
                {
                    "name": "F#4",
                    "midi": 66,
                    "time": 301.1234600000005,
                    "velocity": 0.2992125984251969,
                    "duration": 0.11235950000002504
                },
                {
                    "name": "E4",
                    "midi": 64,
                    "time": 301.2358195000005,
                    "velocity": 0.29133858267716534,
                    "duration": 0.11235950000002504
                },
                {
                    "name": "C#4",
                    "midi": 61,
                    "time": 301.3481790000005,
                    "velocity": 0.28346456692913385,
                    "duration": 0.11235950000002504
                },
                {
                    "name": "E4",
                    "midi": 64,
                    "time": 301.46053850000055,
                    "velocity": 0.2677165354330709,
                    "duration": 0.1058051958333408
                },
                {
                    "name": "F#4",
                    "midi": 66,
                    "time": 301.5728980000006,
                    "velocity": 0.29133858267716534,
                    "duration": 0.11235950000002504
                },
                {
                    "name": "A4",
                    "midi": 69,
                    "time": 301.6852575000006,
                    "velocity": 0.30708661417322836,
                    "duration": 0.11235950000002504
                },
                {
                    "name": "C#5",
                    "midi": 73,
                    "time": 301.7976170000006,
                    "velocity": 0.3228346456692913,
                    "duration": 0.11235950000002504
                },
                {
                    "name": "E5",
                    "midi": 76,
                    "time": 301.90997650000065,
                    "velocity": 0.33858267716535434,
                    "duration": 0.11235950000002504
                },
                {
                    "name": "F#5",
                    "midi": 78,
                    "time": 302.0223360000007,
                    "velocity": 0.36220472440944884,
                    "duration": 0.11235950000002504
                },
                {
                    "name": "A5",
                    "midi": 81,
                    "time": 302.1346955000007,
                    "velocity": 0.3779527559055118,
                    "duration": 0.11235950000002504
                },
                {
                    "name": "C#6",
                    "midi": 85,
                    "time": 302.2470550000007,
                    "velocity": 0.3937007874015748,
                    "duration": 0.11235950000002504
                },
                {
                    "name": "E6",
                    "midi": 88,
                    "time": 302.35941450000075,
                    "velocity": 0.4015748031496063,
                    "duration": 0.11235950000002504
                },
                {
                    "name": "F#6",
                    "midi": 90,
                    "time": 302.4717740000008,
                    "velocity": 0.3858267716535433,
                    "duration": 0.11235950000002504
                },
                {
                    "name": "A6",
                    "midi": 93,
                    "time": 302.5841335000008,
                    "velocity": 0.3700787401574803,
                    "duration": 0.11235950000002504
                },
                {
                    "name": "G#6",
                    "midi": 92,
                    "time": 302.6964930000008,
                    "velocity": 0.3700787401574803,
                    "duration": 0.11235950000002504
                },
                {
                    "name": "F#6",
                    "midi": 90,
                    "time": 302.80885250000085,
                    "velocity": 0.3779527559055118,
                    "duration": 0.11235950000002504
                },
                {
                    "name": "D#6",
                    "midi": 87,
                    "time": 302.9212120000009,
                    "velocity": 0.3858267716535433,
                    "duration": 0.11235950000002504
                },
                {
                    "name": "A5",
                    "midi": 81,
                    "time": 303.0335715000009,
                    "velocity": 0.3937007874015748,
                    "duration": 0.11235950000002504
                },
                {
                    "name": "G#5",
                    "midi": 80,
                    "time": 303.1459310000009,
                    "velocity": 0.4015748031496063,
                    "duration": 0.11235950000002504
                },
                {
                    "name": "F#5",
                    "midi": 78,
                    "time": 303.25829050000095,
                    "velocity": 0.4094488188976378,
                    "duration": 0.11235950000002504
                },
                {
                    "name": "D#5",
                    "midi": 75,
                    "time": 303.370650000001,
                    "velocity": 0.41732283464566927,
                    "duration": 0.11235950000002504
                },
                {
                    "name": "B4",
                    "midi": 71,
                    "time": 303.483009500001,
                    "velocity": 0.4094488188976378,
                    "duration": 0.11235950000002504
                },
                {
                    "name": "D#5",
                    "midi": 75,
                    "time": 303.595369000001,
                    "velocity": 0.4015748031496063,
                    "duration": 0.11235950000002504
                },
                {
                    "name": "C#5",
                    "midi": 73,
                    "time": 303.70772850000105,
                    "velocity": 0.4015748031496063,
                    "duration": 0.11235950000002504
                },
                {
                    "name": "B4",
                    "midi": 71,
                    "time": 303.8200880000011,
                    "velocity": 0.41732283464566927,
                    "duration": 0.11235950000002504
                },
                {
                    "name": "A4",
                    "midi": 69,
                    "time": 303.9324475000011,
                    "velocity": 0.44881889763779526,
                    "duration": 0.11235950000002504
                },
                {
                    "name": "G#4",
                    "midi": 68,
                    "time": 304.04480700000113,
                    "velocity": 0.4409448818897638,
                    "duration": 0.11235950000002504
                },
                {
                    "name": "B4",
                    "midi": 71,
                    "time": 304.15716650000115,
                    "velocity": 0.4645669291338583,
                    "duration": 0.11235950000002504
                },
                {
                    "name": "E5",
                    "midi": 76,
                    "time": 304.2695260000012,
                    "velocity": 0.48031496062992124,
                    "duration": 0.11235950000002504
                },
                {
                    "name": "G#5",
                    "midi": 80,
                    "time": 304.3818855000012,
                    "velocity": 0.49606299212598426,
                    "duration": 0.11235950000002504
                },
                {
                    "name": "F#5",
                    "midi": 78,
                    "time": 304.49424500000123,
                    "velocity": 0.5118110236220472,
                    "duration": 0.11235950000002504
                },
                {
                    "name": "E5",
                    "midi": 76,
                    "time": 304.60660450000125,
                    "velocity": 0.49606299212598426,
                    "duration": 0.11235950000002504
                },
                {
                    "name": "G#5",
                    "midi": 80,
                    "time": 304.7189640000013,
                    "velocity": 0.48031496062992124,
                    "duration": 0.11235950000002504
                },
                {
                    "name": "B5",
                    "midi": 83,
                    "time": 304.8313235000013,
                    "velocity": 0.48031496062992124,
                    "duration": 0.11235950000002504
                },
                {
                    "name": "E6",
                    "midi": 88,
                    "time": 304.94368300000133,
                    "velocity": 0.5039370078740157,
                    "duration": 0.11235950000002504
                },
                {
                    "name": "G#6",
                    "midi": 92,
                    "time": 305.05604250000135,
                    "velocity": 0.5196850393700787,
                    "duration": 0.11235950000002504
                },
                {
                    "name": "F#6",
                    "midi": 90,
                    "time": 305.1684020000014,
                    "velocity": 0.5433070866141733,
                    "duration": 0.11235950000002504
                },
                {
                    "name": "E6",
                    "midi": 88,
                    "time": 305.2807615000014,
                    "velocity": 0.5118110236220472,
                    "duration": 0.11235950000002504
                },
                {
                    "name": "C6",
                    "midi": 84,
                    "time": 305.39312100000143,
                    "velocity": 0.4881889763779528,
                    "duration": 0.11235950000002504
                },
                {
                    "name": "A5",
                    "midi": 81,
                    "time": 305.50548050000145,
                    "velocity": 0.48031496062992124,
                    "duration": 0.11235950000002504
                },
                {
                    "name": "F#5",
                    "midi": 78,
                    "time": 305.6178400000015,
                    "velocity": 0.47244094488188976,
                    "duration": 0.11235950000002504
                },
                {
                    "name": "E5",
                    "midi": 76,
                    "time": 305.7301995000015,
                    "velocity": 0.47244094488188976,
                    "duration": 0.11235950000002504
                },
                {
                    "name": "C5",
                    "midi": 72,
                    "time": 305.84255900000153,
                    "velocity": 0.4645669291338583,
                    "duration": 0.11235950000002504
                },
                {
                    "name": "A4",
                    "midi": 69,
                    "time": 305.95491850000155,
                    "velocity": 0.4566929133858268,
                    "duration": 0.11235950000002504
                },
                {
                    "name": "F#4",
                    "midi": 66,
                    "time": 306.0672780000016,
                    "velocity": 0.44881889763779526,
                    "duration": 0.11235950000002504
                },
                {
                    "name": "E4",
                    "midi": 64,
                    "time": 306.1796375000016,
                    "velocity": 0.4409448818897638,
                    "duration": 0.11235950000002504
                },
                {
                    "name": "C4",
                    "midi": 60,
                    "time": 306.29199700000163,
                    "velocity": 0.4330708661417323,
                    "duration": 0.11235950000002504
                },
                {
                    "name": "A3",
                    "midi": 57,
                    "time": 306.40435650000165,
                    "velocity": 0.4251968503937008,
                    "duration": 0.11235950000002504
                },
                {
                    "name": "F#3",
                    "midi": 54,
                    "time": 306.5167160000017,
                    "velocity": 0.41732283464566927,
                    "duration": 0.11235950000002504
                },
                {
                    "name": "E3",
                    "midi": 52,
                    "time": 306.6290755000017,
                    "velocity": 0.4094488188976378,
                    "duration": 0.11235950000002504
                },
                {
                    "name": "G#3",
                    "midi": 56,
                    "time": 306.74143500000173,
                    "velocity": 0.4094488188976378,
                    "duration": 0.11235950000002504
                },
                {
                    "name": "B3",
                    "midi": 59,
                    "time": 306.85379450000175,
                    "velocity": 0.4015748031496063,
                    "duration": 0.11235950000002504
                },
                {
                    "name": "E4",
                    "midi": 64,
                    "time": 306.9661540000018,
                    "velocity": 0.4094488188976378,
                    "duration": 0.11235950000002504
                },
                {
                    "name": "G#4",
                    "midi": 68,
                    "time": 307.0785135000018,
                    "velocity": 0.41732283464566927,
                    "duration": 0.11235950000002504
                },
                {
                    "name": "F#4",
                    "midi": 66,
                    "time": 307.19087300000183,
                    "velocity": 0.4251968503937008,
                    "duration": 0.11235950000002504
                },
                {
                    "name": "E4",
                    "midi": 64,
                    "time": 307.30323250000185,
                    "velocity": 0.4094488188976378,
                    "duration": 0.11235950000002504
                },
                {
                    "name": "G#4",
                    "midi": 68,
                    "time": 307.4155920000019,
                    "velocity": 0.3858267716535433,
                    "duration": 0.11235950000002504
                },
                {
                    "name": "B4",
                    "midi": 71,
                    "time": 307.5279515000019,
                    "velocity": 0.4015748031496063,
                    "duration": 0.11235950000002504
                },
                {
                    "name": "E5",
                    "midi": 76,
                    "time": 307.64031100000193,
                    "velocity": 0.4251968503937008,
                    "duration": 0.11235950000002504
                },
                {
                    "name": "G#5",
                    "midi": 80,
                    "time": 307.75267050000195,
                    "velocity": 0.44881889763779526,
                    "duration": 0.11235950000002504
                },
                {
                    "name": "F#5",
                    "midi": 78,
                    "time": 307.865030000002,
                    "velocity": 0.4645669291338583,
                    "duration": 0.11235950000002504
                },
                {
                    "name": "E5",
                    "midi": 76,
                    "time": 307.977389500002,
                    "velocity": 0.44881889763779526,
                    "duration": 0.11235950000002504
                },
                {
                    "name": "C5",
                    "midi": 72,
                    "time": 308.08974900000203,
                    "velocity": 0.4645669291338583,
                    "duration": 0.11235950000002504
                },
                {
                    "name": "A4",
                    "midi": 69,
                    "time": 308.20210850000205,
                    "velocity": 0.48031496062992124,
                    "duration": 0.11235950000002504
                },
                {
                    "name": "F#4",
                    "midi": 66,
                    "time": 308.3144680000021,
                    "velocity": 0.4881889763779528,
                    "duration": 0.11235950000002504
                },
                {
                    "name": "E4",
                    "midi": 64,
                    "time": 308.4268275000021,
                    "velocity": 0.5039370078740157,
                    "duration": 0.11235950000002504
                },
                {
                    "name": "C4",
                    "midi": 60,
                    "time": 308.53918700000213,
                    "velocity": 0.5196850393700787,
                    "duration": 0.11235950000002504
                },
                {
                    "name": "A3",
                    "midi": 57,
                    "time": 308.65154650000215,
                    "velocity": 0.5275590551181102,
                    "duration": 0.11235950000002504
                },
                {
                    "name": "F#3",
                    "midi": 54,
                    "time": 308.7639060000022,
                    "velocity": 0.5433070866141733,
                    "duration": 0.11235950000002504
                },
                {
                    "name": "E3",
                    "midi": 52,
                    "time": 308.8762655000022,
                    "velocity": 0.5590551181102362,
                    "duration": 0.11235950000002504
                },
                {
                    "name": "C3",
                    "midi": 48,
                    "time": 308.98862500000223,
                    "velocity": 0.5748031496062992,
                    "duration": 0.11235950000002504
                },
                {
                    "name": "A2",
                    "midi": 45,
                    "time": 309.10098450000226,
                    "velocity": 0.5826771653543307,
                    "duration": 0.11235950000002504
                },
                {
                    "name": "F#2",
                    "midi": 42,
                    "time": 309.2133440000023,
                    "velocity": 0.5984251968503937,
                    "duration": 0.11235950000002504
                },
                {
                    "name": "E2",
                    "midi": 40,
                    "time": 309.3257035000023,
                    "velocity": 0.6141732283464567,
                    "duration": 0.11235950000002504
                },
                {
                    "name": "B2",
                    "midi": 47,
                    "time": 309.6627820000023,
                    "velocity": 0.5748031496062992,
                    "duration": 0.11235950000002504
                },
                {
                    "name": "E3",
                    "midi": 52,
                    "time": 309.77514150000235,
                    "velocity": 0.5354330708661418,
                    "duration": 0.11235950000002504
                },
                {
                    "name": "A3",
                    "midi": 57,
                    "time": 309.8875010000024,
                    "velocity": 0.5354330708661418,
                    "duration": 0.11235950000002504
                },
                {
                    "name": "G#3",
                    "midi": 56,
                    "time": 309.9998605000024,
                    "velocity": 0.5354330708661418,
                    "duration": 0.11235950000002504
                },
                {
                    "name": "B3",
                    "midi": 59,
                    "time": 310.1122200000024,
                    "velocity": 0.5748031496062992,
                    "duration": 0.11235950000002504
                },
                {
                    "name": "E4",
                    "midi": 64,
                    "time": 310.22457950000245,
                    "velocity": 0.5275590551181102,
                    "duration": 0.11235950000002504
                },
                {
                    "name": "A4",
                    "midi": 69,
                    "time": 310.3369390000025,
                    "velocity": 0.5275590551181102,
                    "duration": 0.11235950000002504
                },
                {
                    "name": "G#4",
                    "midi": 68,
                    "time": 310.4492985000025,
                    "velocity": 0.5354330708661418,
                    "duration": 0.11235950000002504
                },
                {
                    "name": "B4",
                    "midi": 71,
                    "time": 310.5616580000025,
                    "velocity": 0.5669291338582677,
                    "duration": 0.11235950000002504
                },
                {
                    "name": "E5",
                    "midi": 76,
                    "time": 310.67401750000255,
                    "velocity": 0.5748031496062992,
                    "duration": 0.11235950000002504
                },
                {
                    "name": "A5",
                    "midi": 81,
                    "time": 310.7863770000026,
                    "velocity": 0.5984251968503937,
                    "duration": 0.11235950000002504
                },
                {
                    "name": "G#5",
                    "midi": 80,
                    "time": 310.8987365000026,
                    "velocity": 0.5590551181102362,
                    "duration": 0.11235950000002504
                },
                {
                    "name": "B5",
                    "midi": 83,
                    "time": 311.0110960000026,
                    "velocity": 0.5590551181102362,
                    "duration": 0.11235950000002504
                },
                {
                    "name": "E6",
                    "midi": 88,
                    "time": 311.12345550000265,
                    "velocity": 0.5590551181102362,
                    "duration": 0.11235950000002504
                },
                {
                    "name": "A6",
                    "midi": 93,
                    "time": 311.2358150000027,
                    "velocity": 0.5590551181102362,
                    "duration": 0.11235950000002504
                },
                {
                    "name": "G#6",
                    "midi": 92,
                    "time": 311.3481745000027,
                    "velocity": 0.5590551181102362,
                    "duration": 0.11235950000002504
                },
                {
                    "name": "E6",
                    "midi": 88,
                    "time": 311.4605340000027,
                    "velocity": 0.6062992125984252,
                    "duration": 0.11235950000002504
                },
                {
                    "name": "B5",
                    "midi": 83,
                    "time": 311.57289350000275,
                    "velocity": 0.5590551181102362,
                    "duration": 0.11235950000002504
                },
                {
                    "name": "A5",
                    "midi": 81,
                    "time": 311.6852530000028,
                    "velocity": 0.5590551181102362,
                    "duration": 0.11235950000002504
                },
                {
                    "name": "G#5",
                    "midi": 80,
                    "time": 311.7976125000028,
                    "velocity": 0.5590551181102362,
                    "duration": 0.11235950000002504
                },
                {
                    "name": "E5",
                    "midi": 76,
                    "time": 311.9099720000028,
                    "velocity": 0.5590551181102362,
                    "duration": 0.11235950000002504
                },
                {
                    "name": "B4",
                    "midi": 71,
                    "time": 312.02233150000285,
                    "velocity": 0.5590551181102362,
                    "duration": 0.11235950000002504
                },
                {
                    "name": "A4",
                    "midi": 69,
                    "time": 312.1346910000029,
                    "velocity": 0.5590551181102362,
                    "duration": 0.11235950000002504
                },
                {
                    "name": "G#4",
                    "midi": 68,
                    "time": 312.2470505000029,
                    "velocity": 0.5669291338582677,
                    "duration": 0.11235950000002504
                },
                {
                    "name": "E4",
                    "midi": 64,
                    "time": 312.3594100000029,
                    "velocity": 0.5748031496062992,
                    "duration": 0.11235950000002504
                },
                {
                    "name": "B3",
                    "midi": 59,
                    "time": 312.47176950000295,
                    "velocity": 0.5905511811023622,
                    "duration": 0.11235950000002504
                },
                {
                    "name": "A3",
                    "midi": 57,
                    "time": 312.584129000003,
                    "velocity": 0.6062992125984252,
                    "duration": 0.11235950000002504
                },
                {
                    "name": "G#3",
                    "midi": 56,
                    "time": 312.696488500003,
                    "velocity": 0.6141732283464567,
                    "duration": 0.11235950000002504
                },
                {
                    "name": "E3",
                    "midi": 52,
                    "time": 312.808848000003,
                    "velocity": 0.6299212598425197,
                    "duration": 0.11235950000002504
                },
                {
                    "name": "B2",
                    "midi": 47,
                    "time": 312.92120750000305,
                    "velocity": 0.6377952755905512,
                    "duration": 0.11235950000002504
                },
                {
                    "name": "A2",
                    "midi": 45,
                    "time": 313.0335670000031,
                    "velocity": 0.6456692913385826,
                    "duration": 0.11235950000002504
                },
                {
                    "name": "G#2",
                    "midi": 44,
                    "time": 313.1459265000031,
                    "velocity": 0.6614173228346457,
                    "duration": 0.11235950000002504
                },
                {
                    "name": "E2",
                    "midi": 40,
                    "time": 313.2582860000031,
                    "velocity": 0.6771653543307087,
                    "duration": 0.11235950000002504
                },
                {
                    "name": "B1",
                    "midi": 35,
                    "time": 313.37064550000315,
                    "velocity": 0.6929133858267716,
                    "duration": 0.11235950000002504
                },
                {
                    "name": "B2",
                    "midi": 47,
                    "time": 315.0560380000032,
                    "velocity": 0.5748031496062992,
                    "duration": 0.11235950000002504
                },
                {
                    "name": "F3",
                    "midi": 53,
                    "time": 315.1683975000032,
                    "velocity": 0.5354330708661418,
                    "duration": 0.11235950000002504
                },
                {
                    "name": "A3",
                    "midi": 57,
                    "time": 315.28075700000323,
                    "velocity": 0.5354330708661418,
                    "duration": 0.11235950000002504
                },
                {
                    "name": "G#3",
                    "midi": 56,
                    "time": 315.39311650000326,
                    "velocity": 0.5354330708661418,
                    "duration": 0.11235950000002504
                },
                {
                    "name": "B3",
                    "midi": 59,
                    "time": 315.5054760000033,
                    "velocity": 0.5748031496062992,
                    "duration": 0.11235950000002504
                },
                {
                    "name": "F4",
                    "midi": 65,
                    "time": 315.6178355000033,
                    "velocity": 0.5275590551181102,
                    "duration": 0.11235950000002504
                },
                {
                    "name": "A4",
                    "midi": 69,
                    "time": 315.73019500000333,
                    "velocity": 0.5275590551181102,
                    "duration": 0.11235950000002504
                },
                {
                    "name": "G#4",
                    "midi": 68,
                    "time": 315.84255450000336,
                    "velocity": 0.5354330708661418,
                    "duration": 0.11235950000002504
                },
                {
                    "name": "B4",
                    "midi": 71,
                    "time": 315.9549140000034,
                    "velocity": 0.5669291338582677,
                    "duration": 0.11235950000002504
                },
                {
                    "name": "F5",
                    "midi": 77,
                    "time": 316.0672735000034,
                    "velocity": 0.5748031496062992,
                    "duration": 0.11235950000002504
                },
                {
                    "name": "A5",
                    "midi": 81,
                    "time": 316.17963300000343,
                    "velocity": 0.5984251968503937,
                    "duration": 0.11235950000002504
                },
                {
                    "name": "G#5",
                    "midi": 80,
                    "time": 316.29199250000346,
                    "velocity": 0.5590551181102362,
                    "duration": 0.11235950000002504
                },
                {
                    "name": "B5",
                    "midi": 83,
                    "time": 316.4043520000035,
                    "velocity": 0.5590551181102362,
                    "duration": 0.11235950000002504
                },
                {
                    "name": "F6",
                    "midi": 89,
                    "time": 316.5167115000035,
                    "velocity": 0.5590551181102362,
                    "duration": 0.11235950000002504
                },
                {
                    "name": "A6",
                    "midi": 93,
                    "time": 316.62907100000353,
                    "velocity": 0.5590551181102362,
                    "duration": 0.11235950000002504
                },
                {
                    "name": "G#6",
                    "midi": 92,
                    "time": 316.74143050000356,
                    "velocity": 0.5590551181102362,
                    "duration": 0.11235950000002504
                },
                {
                    "name": "F6",
                    "midi": 89,
                    "time": 316.8537900000036,
                    "velocity": 0.6062992125984252,
                    "duration": 0.11235950000002504
                },
                {
                    "name": "B5",
                    "midi": 83,
                    "time": 316.9661495000036,
                    "velocity": 0.5590551181102362,
                    "duration": 0.11235950000002504
                },
                {
                    "name": "A5",
                    "midi": 81,
                    "time": 317.07850900000363,
                    "velocity": 0.5590551181102362,
                    "duration": 0.11235950000002504
                },
                {
                    "name": "G#5",
                    "midi": 80,
                    "time": 317.19086850000366,
                    "velocity": 0.5590551181102362,
                    "duration": 0.11235950000002504
                },
                {
                    "name": "F5",
                    "midi": 77,
                    "time": 317.3032280000037,
                    "velocity": 0.5590551181102362,
                    "duration": 0.11235950000002504
                },
                {
                    "name": "B4",
                    "midi": 71,
                    "time": 317.4155875000037,
                    "velocity": 0.5590551181102362,
                    "duration": 0.11235950000002504
                },
                {
                    "name": "A4",
                    "midi": 69,
                    "time": 317.52794700000373,
                    "velocity": 0.5590551181102362,
                    "duration": 0.11235950000002504
                },
                {
                    "name": "G#4",
                    "midi": 68,
                    "time": 317.64030650000376,
                    "velocity": 0.5669291338582677,
                    "duration": 0.11235950000002504
                },
                {
                    "name": "F4",
                    "midi": 65,
                    "time": 317.7526660000038,
                    "velocity": 0.5748031496062992,
                    "duration": 0.11235950000002504
                },
                {
                    "name": "B3",
                    "midi": 59,
                    "time": 317.8650255000038,
                    "velocity": 0.5905511811023622,
                    "duration": 0.11235950000002504
                },
                {
                    "name": "A3",
                    "midi": 57,
                    "time": 317.97738500000384,
                    "velocity": 0.6062992125984252,
                    "duration": 0.11235950000002504
                },
                {
                    "name": "G#3",
                    "midi": 56,
                    "time": 318.08974450000386,
                    "velocity": 0.6141732283464567,
                    "duration": 0.11235950000002504
                },
                {
                    "name": "F3",
                    "midi": 53,
                    "time": 318.2021040000039,
                    "velocity": 0.6299212598425197,
                    "duration": 0.11235950000002504
                },
                {
                    "name": "B2",
                    "midi": 47,
                    "time": 318.3144635000039,
                    "velocity": 0.6377952755905512,
                    "duration": 0.11235950000002504
                },
                {
                    "name": "A2",
                    "midi": 45,
                    "time": 318.42682300000394,
                    "velocity": 0.6456692913385826,
                    "duration": 0.11235950000002504
                },
                {
                    "name": "G#2",
                    "midi": 44,
                    "time": 318.53918250000396,
                    "velocity": 0.6614173228346457,
                    "duration": 0.11235950000002504
                },
                {
                    "name": "F2",
                    "midi": 41,
                    "time": 318.651542000004,
                    "velocity": 0.6771653543307087,
                    "duration": 0.11235950000002504
                },
                {
                    "name": "B1",
                    "midi": 35,
                    "time": 318.763901500004,
                    "velocity": 0.6929133858267716,
                    "duration": 0.11235950000002504
                },
                {
                    "name": "A#4",
                    "midi": 70,
                    "time": 320.44929400000404,
                    "velocity": 0.5196850393700787,
                    "duration": 0.11235950000002504
                },
                {
                    "name": "G#4",
                    "midi": 68,
                    "time": 320.56165350000407,
                    "velocity": 0.5275590551181102,
                    "duration": 0.11235950000002504
                },
                {
                    "name": "B4",
                    "midi": 71,
                    "time": 320.6740130000041,
                    "velocity": 0.5354330708661418,
                    "duration": 0.11235950000002504
                },
                {
                    "name": "F5",
                    "midi": 77,
                    "time": 320.7863725000041,
                    "velocity": 0.5433070866141733,
                    "duration": 0.11235950000002504
                },
                {
                    "name": "A#5",
                    "midi": 82,
                    "time": 320.89873200000414,
                    "velocity": 0.5590551181102362,
                    "duration": 0.11235950000002504
                },
                {
                    "name": "G#5",
                    "midi": 80,
                    "time": 321.01109150000417,
                    "velocity": 0.5669291338582677,
                    "duration": 0.11235950000002504
                },
                {
                    "name": "B5",
                    "midi": 83,
                    "time": 321.1234510000042,
                    "velocity": 0.5748031496062992,
                    "duration": 0.11235950000002504
                },
                {
                    "name": "F6",
                    "midi": 89,
                    "time": 321.2358105000042,
                    "velocity": 0.5826771653543307,
                    "duration": 0.11235950000002504
                },
                {
                    "name": "A#6",
                    "midi": 94,
                    "time": 321.34817000000425,
                    "velocity": 0.5905511811023622,
                    "duration": 0.11235950000002504
                },
                {
                    "name": "G#6",
                    "midi": 92,
                    "time": 321.46052950000427,
                    "velocity": 0.6062992125984252,
                    "duration": 0.11235950000002504
                },
                {
                    "name": "A#5",
                    "midi": 82,
                    "time": 321.5728890000043,
                    "velocity": 0.6299212598425197,
                    "duration": 0.11235950000002504
                },
                {
                    "name": "E6",
                    "midi": 88,
                    "time": 321.6852485000043,
                    "velocity": 0.5826771653543307,
                    "duration": 0.11235950000002504
                },
                {
                    "name": "G#6",
                    "midi": 92,
                    "time": 321.79760800000435,
                    "velocity": 0.6062992125984252,
                    "duration": 0.11235950000002504
                },
                {
                    "name": "G6",
                    "midi": 91,
                    "time": 321.90996750000437,
                    "velocity": 0.6377952755905512,
                    "duration": 0.11235950000002504
                },
                {
                    "name": "E6",
                    "midi": 88,
                    "time": 322.0223270000044,
                    "velocity": 0.6299212598425197,
                    "duration": 0.11235950000002504
                },
                {
                    "name": "A#5",
                    "midi": 82,
                    "time": 322.1346865000044,
                    "velocity": 0.6141732283464567,
                    "duration": 0.11235950000002504
                },
                {
                    "name": "G#5",
                    "midi": 80,
                    "time": 322.24704600000445,
                    "velocity": 0.5984251968503937,
                    "duration": 0.11235950000002504
                },
                {
                    "name": "G5",
                    "midi": 79,
                    "time": 322.35940550000447,
                    "velocity": 0.5984251968503937,
                    "duration": 0.11235950000002504
                },
                {
                    "name": "E5",
                    "midi": 76,
                    "time": 322.4717650000045,
                    "velocity": 0.5984251968503937,
                    "duration": 0.11235950000002504
                },
                {
                    "name": "A#4",
                    "midi": 70,
                    "time": 322.5841245000045,
                    "velocity": 0.5984251968503937,
                    "duration": 0.11235950000002504
                },
                {
                    "name": "G#4",
                    "midi": 68,
                    "time": 322.69648400000455,
                    "velocity": 0.5826771653543307,
                    "duration": 0.11235950000002504
                },
                {
                    "name": "G4",
                    "midi": 67,
                    "time": 322.80884350000457,
                    "velocity": 0.5748031496062992,
                    "duration": 0.11235950000002504
                },
                {
                    "name": "A3",
                    "midi": 57,
                    "time": 322.9212030000046,
                    "velocity": 0.5748031496062992,
                    "duration": 0.11235950000002504
                },
                {
                    "name": "D#4",
                    "midi": 63,
                    "time": 323.0335625000046,
                    "velocity": 0.5748031496062992,
                    "duration": 0.11235950000002504
                },
                {
                    "name": "G#4",
                    "midi": 68,
                    "time": 323.14592200000465,
                    "velocity": 0.5826771653543307,
                    "duration": 0.11235950000002504
                },
                {
                    "name": "F#4",
                    "midi": 66,
                    "time": 323.25828150000467,
                    "velocity": 0.5905511811023622,
                    "duration": 0.11235950000002504
                },
                {
                    "name": "A4",
                    "midi": 69,
                    "time": 323.3706410000047,
                    "velocity": 0.5984251968503937,
                    "duration": 0.11235950000002504
                },
                {
                    "name": "D#5",
                    "midi": 75,
                    "time": 323.4830005000047,
                    "velocity": 0.5984251968503937,
                    "duration": 0.11235950000002504
                },
                {
                    "name": "G#5",
                    "midi": 80,
                    "time": 323.59536000000475,
                    "velocity": 0.6062992125984252,
                    "duration": 0.11235950000002504
                },
                {
                    "name": "F#5",
                    "midi": 78,
                    "time": 323.70771950000477,
                    "velocity": 0.5984251968503937,
                    "duration": 0.11235950000002504
                },
                {
                    "name": "A5",
                    "midi": 81,
                    "time": 323.8200790000048,
                    "velocity": 0.6220472440944882,
                    "duration": 0.11235950000002504
                },
                {
                    "name": "D#6",
                    "midi": 87,
                    "time": 323.9324385000048,
                    "velocity": 0.6377952755905512,
                    "duration": 0.11235950000002504
                },
                {
                    "name": "G#6",
                    "midi": 92,
                    "time": 324.04479800000485,
                    "velocity": 0.6614173228346457,
                    "duration": 0.11235950000002504
                },
                {
                    "name": "F#6",
                    "midi": 90,
                    "time": 324.15715750000487,
                    "velocity": 0.6771653543307087,
                    "duration": 0.11235950000002504
                },
                {
                    "name": "G#5",
                    "midi": 80,
                    "time": 324.2695170000049,
                    "velocity": 0.6929133858267716,
                    "duration": 0.11235950000002504
                },
                {
                    "name": "C#6",
                    "midi": 85,
                    "time": 324.3818765000049,
                    "velocity": 0.6850393700787402,
                    "duration": 0.11235950000002504
                },
                {
                    "name": "F#6",
                    "midi": 90,
                    "time": 324.49423600000495,
                    "velocity": 0.6850393700787402,
                    "duration": 0.11235950000002504
                },
                {
                    "name": "F6",
                    "midi": 89,
                    "time": 324.60659550000497,
                    "velocity": 0.6692913385826772,
                    "duration": 0.11235950000002504
                },
                {
                    "name": "C#6",
                    "midi": 85,
                    "time": 324.718955000005,
                    "velocity": 0.6535433070866141,
                    "duration": 0.11235950000002504
                },
                {
                    "name": "G#5",
                    "midi": 80,
                    "time": 324.831314500005,
                    "velocity": 0.6456692913385826,
                    "duration": 0.11235950000002504
                },
                {
                    "name": "F#5",
                    "midi": 78,
                    "time": 324.94367400000505,
                    "velocity": 0.6299212598425197,
                    "duration": 0.11235950000002504
                },
                {
                    "name": "F5",
                    "midi": 77,
                    "time": 325.05603350000507,
                    "velocity": 0.6141732283464567,
                    "duration": 0.11235950000002504
                },
                {
                    "name": "C#5",
                    "midi": 73,
                    "time": 325.1683930000051,
                    "velocity": 0.5984251968503937,
                    "duration": 0.11235950000002504
                },
                {
                    "name": "G#4",
                    "midi": 68,
                    "time": 325.2807525000051,
                    "velocity": 0.5826771653543307,
                    "duration": 0.11235950000002504
                },
                {
                    "name": "F#4",
                    "midi": 66,
                    "time": 325.39311200000515,
                    "velocity": 0.5669291338582677,
                    "duration": 0.11235950000002504
                },
                {
                    "name": "F4",
                    "midi": 65,
                    "time": 325.50547150000517,
                    "velocity": 0.5590551181102362,
                    "duration": 0.11235950000002504
                },
                {
                    "name": "C4",
                    "midi": 60,
                    "time": 325.6178310000052,
                    "velocity": 0.5590551181102362,
                    "duration": 0.11235950000002504
                },
                {
                    "name": "F#4",
                    "midi": 66,
                    "time": 325.7301905000052,
                    "velocity": 0.5590551181102362,
                    "duration": 0.11235950000002504
                },
                {
                    "name": "B4",
                    "midi": 71,
                    "time": 325.84255000000525,
                    "velocity": 0.5590551181102362,
                    "duration": 0.11235950000002504
                },
                {
                    "name": "A4",
                    "midi": 69,
                    "time": 325.9549095000053,
                    "velocity": 0.5590551181102362,
                    "duration": 0.11235950000002504
                },
                {
                    "name": "C5",
                    "midi": 72,
                    "time": 326.0672690000053,
                    "velocity": 0.5590551181102362,
                    "duration": 0.11235950000002504
                },
                {
                    "name": "F#5",
                    "midi": 78,
                    "time": 326.1796285000053,
                    "velocity": 0.5590551181102362,
                    "duration": 0.11235950000002504
                },
                {
                    "name": "B5",
                    "midi": 83,
                    "time": 326.29198800000535,
                    "velocity": 0.5433070866141733,
                    "duration": 0.11235950000002504
                },
                {
                    "name": "A5",
                    "midi": 81,
                    "time": 326.4043475000054,
                    "velocity": 0.5590551181102362,
                    "duration": 0.11235950000002504
                },
                {
                    "name": "C6",
                    "midi": 84,
                    "time": 326.5167070000054,
                    "velocity": 0.5748031496062992,
                    "duration": 0.11235950000002504
                },
                {
                    "name": "F#6",
                    "midi": 90,
                    "time": 326.6290665000054,
                    "velocity": 0.5905511811023622,
                    "duration": 0.11235950000002504
                },
                {
                    "name": "B6",
                    "midi": 95,
                    "time": 326.74142600000545,
                    "velocity": 0.5984251968503937,
                    "duration": 0.11235950000002504
                },
                {
                    "name": "A6",
                    "midi": 93,
                    "time": 326.8537855000055,
                    "velocity": 0.6141732283464567,
                    "duration": 0.11235950000002504
                },
                {
                    "name": "B5",
                    "midi": 83,
                    "time": 326.9661450000055,
                    "velocity": 0.6299212598425197,
                    "duration": 0.11235950000002504
                },
                {
                    "name": "F6",
                    "midi": 89,
                    "time": 327.0785045000055,
                    "velocity": 0.6456692913385826,
                    "duration": 0.11235950000002504
                },
                {
                    "name": "A6",
                    "midi": 93,
                    "time": 327.19086400000555,
                    "velocity": 0.6456692913385826,
                    "duration": 0.11235950000002504
                },
                {
                    "name": "G#6",
                    "midi": 92,
                    "time": 327.3032235000056,
                    "velocity": 0.6299212598425197,
                    "duration": 0.11235950000002504
                },
                {
                    "name": "F6",
                    "midi": 89,
                    "time": 327.4155830000056,
                    "velocity": 0.6220472440944882,
                    "duration": 0.11235950000002504
                },
                {
                    "name": "B5",
                    "midi": 83,
                    "time": 327.5279425000056,
                    "velocity": 0.6141732283464567,
                    "duration": 0.11235950000002504
                },
                {
                    "name": "A5",
                    "midi": 81,
                    "time": 327.64030200000565,
                    "velocity": 0.6062992125984252,
                    "duration": 0.11235950000002504
                },
                {
                    "name": "G#5",
                    "midi": 80,
                    "time": 327.7526615000057,
                    "velocity": 0.5984251968503937,
                    "duration": 0.11235950000002504
                },
                {
                    "name": "F5",
                    "midi": 77,
                    "time": 327.8650210000057,
                    "velocity": 0.5905511811023622,
                    "duration": 0.11235950000002504
                },
                {
                    "name": "B4",
                    "midi": 71,
                    "time": 327.9773805000057,
                    "velocity": 0.5826771653543307,
                    "duration": 0.11235950000002504
                },
                {
                    "name": "A4",
                    "midi": 69,
                    "time": 328.08974000000575,
                    "velocity": 0.5748031496062992,
                    "duration": 0.11235950000002504
                },
                {
                    "name": "G#4",
                    "midi": 68,
                    "time": 328.2020995000058,
                    "velocity": 0.5669291338582677,
                    "duration": 0.11235950000002504
                },
                {
                    "name": "A#3",
                    "midi": 58,
                    "time": 328.3144590000058,
                    "velocity": 0.5590551181102362,
                    "duration": 0.11235950000002504
                },
                {
                    "name": "E4",
                    "midi": 64,
                    "time": 328.4268185000058,
                    "velocity": 0.5590551181102362,
                    "duration": 0.11235950000002504
                },
                {
                    "name": "A4",
                    "midi": 69,
                    "time": 328.53917800000585,
                    "velocity": 0.5590551181102362,
                    "duration": 0.11235950000002504
                },
                {
                    "name": "G4",
                    "midi": 67,
                    "time": 328.6515375000059,
                    "velocity": 0.5590551181102362,
                    "duration": 0.11235950000002504
                },
                {
                    "name": "A#4",
                    "midi": 70,
                    "time": 328.7638970000059,
                    "velocity": 0.5590551181102362,
                    "duration": 0.11235950000002504
                },
                {
                    "name": "E5",
                    "midi": 76,
                    "time": 328.8762565000059,
                    "velocity": 0.5590551181102362,
                    "duration": 0.11235950000002504
                },
                {
                    "name": "A5",
                    "midi": 81,
                    "time": 328.98861600000595,
                    "velocity": 0.5433070866141733,
                    "duration": 0.11235950000002504
                },
                {
                    "name": "G5",
                    "midi": 79,
                    "time": 329.100975500006,
                    "velocity": 0.5590551181102362,
                    "duration": 0.11235950000002504
                },
                {
                    "name": "A#5",
                    "midi": 82,
                    "time": 329.213335000006,
                    "velocity": 0.5748031496062992,
                    "duration": 0.11235950000002504
                },
                {
                    "name": "E6",
                    "midi": 88,
                    "time": 329.325694500006,
                    "velocity": 0.5905511811023622,
                    "duration": 0.11235950000002504
                },
                {
                    "name": "A6",
                    "midi": 93,
                    "time": 329.43805400000605,
                    "velocity": 0.5984251968503937,
                    "duration": 0.11235950000002504
                },
                {
                    "name": "G6",
                    "midi": 91,
                    "time": 329.5504135000061,
                    "velocity": 0.6141732283464567,
                    "duration": 0.11235950000002504
                },
                {
                    "name": "A5",
                    "midi": 81,
                    "time": 329.6627730000061,
                    "velocity": 0.6299212598425197,
                    "duration": 0.11235950000002504
                },
                {
                    "name": "D6",
                    "midi": 86,
                    "time": 329.7751325000061,
                    "velocity": 0.6456692913385826,
                    "duration": 0.11235950000002504
                },
                {
                    "name": "G6",
                    "midi": 91,
                    "time": 329.88749200000615,
                    "velocity": 0.6456692913385826,
                    "duration": 0.11235950000002504
                },
                {
                    "name": "F#6",
                    "midi": 90,
                    "time": 329.9998515000062,
                    "velocity": 0.6299212598425197,
                    "duration": 0.11235950000002504
                },
                {
                    "name": "D6",
                    "midi": 86,
                    "time": 330.1122110000062,
                    "velocity": 0.6220472440944882,
                    "duration": 0.11235950000002504
                },
                {
                    "name": "A5",
                    "midi": 81,
                    "time": 330.2245705000062,
                    "velocity": 0.6141732283464567,
                    "duration": 0.11235950000002504
                },
                {
                    "name": "G5",
                    "midi": 79,
                    "time": 330.33693000000625,
                    "velocity": 0.5984251968503937,
                    "duration": 0.11235950000002504
                },
                {
                    "name": "F#5",
                    "midi": 78,
                    "time": 330.4492895000063,
                    "velocity": 0.5905511811023622,
                    "duration": 0.11235950000002504
                },
                {
                    "name": "D5",
                    "midi": 74,
                    "time": 330.5616490000063,
                    "velocity": 0.5748031496062992,
                    "duration": 0.11235950000002504
                },
                {
                    "name": "A4",
                    "midi": 69,
                    "time": 330.6740085000063,
                    "velocity": 0.5590551181102362,
                    "duration": 0.11235950000002504
                },
                {
                    "name": "G4",
                    "midi": 67,
                    "time": 330.78636800000635,
                    "velocity": 0.5511811023622047,
                    "duration": 0.11235950000002504
                },
                {
                    "name": "F#4",
                    "midi": 66,
                    "time": 330.8987275000064,
                    "velocity": 0.5354330708661418,
                    "duration": 0.11235950000002504
                },
                {
                    "name": "D4",
                    "midi": 62,
                    "time": 331.0110870000064,
                    "velocity": 0.5196850393700787,
                    "duration": 0.22471899999999323
                },
                {
                    "name": "G4",
                    "midi": 67,
                    "time": 331.0110870000064,
                    "velocity": 0.5196850393700787,
                    "duration": 0.22471899999999323
                },
                {
                    "name": "D5",
                    "midi": 74,
                    "time": 331.0110870000064,
                    "velocity": 0.5196850393700787,
                    "duration": 0.22471899999999323
                },
                {
                    "name": "C#5",
                    "midi": 73,
                    "time": 331.2358060000064,
                    "velocity": 0.4566929133858268,
                    "duration": 0.11235950000002504
                },
                {
                    "name": "D5",
                    "midi": 74,
                    "time": 331.3481655000064,
                    "velocity": 0.4330708661417323,
                    "duration": 0.11235950000002504
                },
                {
                    "name": "F5",
                    "midi": 77,
                    "time": 331.46052500000644,
                    "velocity": 0.4566929133858268,
                    "duration": 0.07490633333333108
                },
                {
                    "name": "D#5",
                    "midi": 75,
                    "time": 331.5354313333398,
                    "velocity": 0.4566929133858268,
                    "duration": 0.07490633333333108
                },
                {
                    "name": "D5",
                    "midi": 74,
                    "time": 331.6103376666731,
                    "velocity": 0.4330708661417323,
                    "duration": 0.07490633333333108
                },
                {
                    "name": "D5",
                    "midi": 74,
                    "time": 331.68524400000643,
                    "velocity": 0.5275590551181102,
                    "duration": 0.8988759999999729
                },
                {
                    "name": "D6",
                    "midi": 86,
                    "time": 331.9099630000064,
                    "velocity": 0.5196850393700787,
                    "duration": 0.22471899999999323
                },
                {
                    "name": "F#5",
                    "midi": 78,
                    "time": 331.9099630000064,
                    "velocity": 0.5196850393700787,
                    "duration": 0.44943799999998646
                },
                {
                    "name": "C6",
                    "midi": 84,
                    "time": 332.1346820000064,
                    "velocity": 0.5039370078740157,
                    "duration": 0.22471899999999323
                },
                {
                    "name": "G5",
                    "midi": 79,
                    "time": 332.3594010000064,
                    "velocity": 0.5511811023622047,
                    "duration": 0.22471899999999323
                },
                {
                    "name": "A#5",
                    "midi": 82,
                    "time": 332.3594010000064,
                    "velocity": 0.5511811023622047,
                    "duration": 0.22471899999999323
                },
                {
                    "name": "C#5",
                    "midi": 73,
                    "time": 332.5841200000064,
                    "velocity": 0.4645669291338583,
                    "duration": 0.11235950000002504
                },
                {
                    "name": "D5",
                    "midi": 74,
                    "time": 332.69647950000643,
                    "velocity": 0.4330708661417323,
                    "duration": 0.11235950000002504
                },
                {
                    "name": "F5",
                    "midi": 77,
                    "time": 332.80883900000646,
                    "velocity": 0.4645669291338583,
                    "duration": 0.07490633333333108
                },
                {
                    "name": "D#5",
                    "midi": 75,
                    "time": 332.8837453333398,
                    "velocity": 0.4645669291338583,
                    "duration": 0.07490633333333108
                },
                {
                    "name": "D5",
                    "midi": 74,
                    "time": 332.9586516666731,
                    "velocity": 0.4330708661417323,
                    "duration": 0.07490633333333108
                },
                {
                    "name": "D5",
                    "midi": 74,
                    "time": 333.03355800000645,
                    "velocity": 0.5433070866141733,
                    "duration": 0.8988759999999729
                },
                {
                    "name": "A#4",
                    "midi": 70,
                    "time": 333.25827700000644,
                    "velocity": 0.5118110236220472,
                    "duration": 0.22471899999999323
                },
                {
                    "name": "A#5",
                    "midi": 82,
                    "time": 333.25827700000644,
                    "velocity": 0.5118110236220472,
                    "duration": 0.22471899999999323
                },
                {
                    "name": "A4",
                    "midi": 69,
                    "time": 333.48299600000644,
                    "velocity": 0.4881889763779528,
                    "duration": 0.22471899999999323
                },
                {
                    "name": "A5",
                    "midi": 81,
                    "time": 333.48299600000644,
                    "velocity": 0.4881889763779528,
                    "duration": 0.22471899999999323
                },
                {
                    "name": "G4",
                    "midi": 67,
                    "time": 333.70771500000643,
                    "velocity": 0.5433070866141733,
                    "duration": 0.22471899999999323
                },
                {
                    "name": "G5",
                    "midi": 79,
                    "time": 333.70771500000643,
                    "velocity": 0.5433070866141733,
                    "duration": 0.22471899999999323
                },
                {
                    "name": "C#5",
                    "midi": 73,
                    "time": 333.9324340000064,
                    "velocity": 0.4645669291338583,
                    "duration": 0.11235950000002504
                },
                {
                    "name": "D5",
                    "midi": 74,
                    "time": 334.04479350000645,
                    "velocity": 0.4330708661417323,
                    "duration": 0.11235950000002504
                },
                {
                    "name": "F5",
                    "midi": 77,
                    "time": 334.1571530000065,
                    "velocity": 0.4645669291338583,
                    "duration": 0.07490633333333108
                },
                {
                    "name": "D#5",
                    "midi": 75,
                    "time": 334.2320593333398,
                    "velocity": 0.4645669291338583,
                    "duration": 0.07490633333333108
                },
                {
                    "name": "D5",
                    "midi": 74,
                    "time": 334.30696566667314,
                    "velocity": 0.4330708661417323,
                    "duration": 0.07490633333333108
                },
                {
                    "name": "D5",
                    "midi": 74,
                    "time": 334.38187200000647,
                    "velocity": 0.5511811023622047,
                    "duration": 0.8988759999999729
                },
                {
                    "name": "D6",
                    "midi": 86,
                    "time": 334.60659100000646,
                    "velocity": 0.5118110236220472,
                    "duration": 0.22471899999999323
                },
                {
                    "name": "F#5",
                    "midi": 78,
                    "time": 334.60659100000646,
                    "velocity": 0.5118110236220472,
                    "duration": 0.44943799999998646
                },
                {
                    "name": "C6",
                    "midi": 84,
                    "time": 334.83131000000645,
                    "velocity": 0.5118110236220472,
                    "duration": 0.22471899999999323
                },
                {
                    "name": "G5",
                    "midi": 79,
                    "time": 335.05602900000645,
                    "velocity": 0.5433070866141733,
                    "duration": 0.22471899999999323
                },
                {
                    "name": "A#5",
                    "midi": 82,
                    "time": 335.05602900000645,
                    "velocity": 0.5433070866141733,
                    "duration": 0.22471899999999323
                },
                {
                    "name": "F#4",
                    "midi": 66,
                    "time": 335.28074800000644,
                    "velocity": 0.4566929133858268,
                    "duration": 0.11235950000002504
                },
                {
                    "name": "G4",
                    "midi": 67,
                    "time": 335.39310750000647,
                    "velocity": 0.41732283464566927,
                    "duration": 0.11235950000002504
                },
                {
                    "name": "A#4",
                    "midi": 70,
                    "time": 335.5054670000065,
                    "velocity": 0.4566929133858268,
                    "duration": 0.07490633333333108
                },
                {
                    "name": "G#4",
                    "midi": 68,
                    "time": 335.5803733333398,
                    "velocity": 0.4566929133858268,
                    "duration": 0.07490633333333108
                },
                {
                    "name": "G4",
                    "midi": 67,
                    "time": 335.65527966667315,
                    "velocity": 0.4330708661417323,
                    "duration": 0.07490633333333108
                },
                {
                    "name": "G4",
                    "midi": 67,
                    "time": 335.7301860000065,
                    "velocity": 0.5511811023622047,
                    "duration": 0.8988759999999729
                },
                {
                    "name": "G5",
                    "midi": 79,
                    "time": 335.9549050000065,
                    "velocity": 0.49606299212598426,
                    "duration": 0.22471899999999323
                },
                {
                    "name": "D5",
                    "midi": 74,
                    "time": 335.9549050000065,
                    "velocity": 0.49606299212598426,
                    "duration": 0.44943799999998646
                },
                {
                    "name": "F5",
                    "midi": 77,
                    "time": 336.17962400000647,
                    "velocity": 0.49606299212598426,
                    "duration": 0.22471899999999323
                },
                {
                    "name": "C5",
                    "midi": 72,
                    "time": 336.40434300000646,
                    "velocity": 0.5590551181102362,
                    "duration": 0.22471899999999323
                },
                {
                    "name": "D#5",
                    "midi": 75,
                    "time": 336.40434300000646,
                    "velocity": 0.5590551181102362,
                    "duration": 0.22471899999999323
                },
                {
                    "name": "F#5",
                    "midi": 78,
                    "time": 336.62906200000646,
                    "velocity": 0.44881889763779526,
                    "duration": 0.11235950000002504
                },
                {
                    "name": "G5",
                    "midi": 79,
                    "time": 336.7414215000065,
                    "velocity": 0.44881889763779526,
                    "duration": 0.11235950000002504
                },
                {
                    "name": "A#5",
                    "midi": 82,
                    "time": 336.8537810000065,
                    "velocity": 0.44881889763779526,
                    "duration": 0.07490633333333108
                },
                {
                    "name": "G#5",
                    "midi": 80,
                    "time": 336.92868733333984,
                    "velocity": 0.44881889763779526,
                    "duration": 0.07490633333333108
                },
                {
                    "name": "G5",
                    "midi": 79,
                    "time": 337.00359366667317,
                    "velocity": 0.4251968503937008,
                    "duration": 0.07490633333333108
                },
                {
                    "name": "G5",
                    "midi": 79,
                    "time": 337.0785000000065,
                    "velocity": 0.5590551181102362,
                    "duration": 0.8988759999999729
                },
                {
                    "name": "G6",
                    "midi": 91,
                    "time": 337.3032190000065,
                    "velocity": 0.49606299212598426,
                    "duration": 0.22471899999999323
                },
                {
                    "name": "B5",
                    "midi": 83,
                    "time": 337.3032190000065,
                    "velocity": 0.49606299212598426,
                    "duration": 0.44943799999998646
                },
                {
                    "name": "F6",
                    "midi": 89,
                    "time": 337.5279380000065,
                    "velocity": 0.49606299212598426,
                    "duration": 0.22471899999999323
                },
                {
                    "name": "C6",
                    "midi": 84,
                    "time": 337.7526570000065,
                    "velocity": 0.5590551181102362,
                    "duration": 0.22471899999999323
                },
                {
                    "name": "D#6",
                    "midi": 87,
                    "time": 337.7526570000065,
                    "velocity": 0.5590551181102362,
                    "duration": 0.22471899999999323
                },
                {
                    "name": "F#5",
                    "midi": 78,
                    "time": 337.9773760000065,
                    "velocity": 0.4645669291338583,
                    "duration": 0.11235950000002504
                },
                {
                    "name": "G5",
                    "midi": 79,
                    "time": 338.0897355000065,
                    "velocity": 0.4409448818897638,
                    "duration": 0.11235950000002504
                },
                {
                    "name": "A#5",
                    "midi": 82,
                    "time": 338.2020950000065,
                    "velocity": 0.4645669291338583,
                    "duration": 0.07490633333333108
                },
                {
                    "name": "G#5",
                    "midi": 80,
                    "time": 338.27700133333985,
                    "velocity": 0.4645669291338583,
                    "duration": 0.07490633333333108
                },
                {
                    "name": "G5",
                    "midi": 79,
                    "time": 338.3519076666732,
                    "velocity": 0.4330708661417323,
                    "duration": 0.07490633333333108
                },
                {
                    "name": "G5",
                    "midi": 79,
                    "time": 338.4268140000065,
                    "velocity": 0.5511811023622047,
                    "duration": 0.6741569999999797
                },
                {
                    "name": "D#5",
                    "midi": 75,
                    "time": 338.6515330000065,
                    "velocity": 0.5039370078740157,
                    "duration": 0.22471899999999323
                },
                {
                    "name": "D#6",
                    "midi": 87,
                    "time": 338.6515330000065,
                    "velocity": 0.5039370078740157,
                    "duration": 0.22471899999999323
                },
                {
                    "name": "D5",
                    "midi": 74,
                    "time": 338.8762520000065,
                    "velocity": 0.5039370078740157,
                    "duration": 0.22471899999999323
                },
                {
                    "name": "D6",
                    "midi": 86,
                    "time": 338.8762520000065,
                    "velocity": 0.5039370078740157,
                    "duration": 0.22471899999999323
                },
                {
                    "name": "G5",
                    "midi": 79,
                    "time": 339.1009710000065,
                    "velocity": 0.5511811023622047,
                    "duration": 0.22471899999999323
                },
                {
                    "name": "C5",
                    "midi": 72,
                    "time": 339.1009710000065,
                    "velocity": 0.5511811023622047,
                    "duration": 0.22471899999999323
                },
                {
                    "name": "C6",
                    "midi": 84,
                    "time": 339.1009710000065,
                    "velocity": 0.5511811023622047,
                    "duration": 0.22471899999999323
                },
                {
                    "name": "F#4",
                    "midi": 66,
                    "time": 339.3256900000065,
                    "velocity": 0.4645669291338583,
                    "duration": 0.11235950000002504
                },
                {
                    "name": "G4",
                    "midi": 67,
                    "time": 339.4380495000065,
                    "velocity": 0.4330708661417323,
                    "duration": 0.11235950000002504
                },
                {
                    "name": "A#4",
                    "midi": 70,
                    "time": 339.55040900000654,
                    "velocity": 0.4645669291338583,
                    "duration": 0.07490633333333108
                },
                {
                    "name": "G#4",
                    "midi": 68,
                    "time": 339.62531533333987,
                    "velocity": 0.4645669291338583,
                    "duration": 0.07490633333333108
                },
                {
                    "name": "G4",
                    "midi": 67,
                    "time": 339.7002216666732,
                    "velocity": 0.4409448818897638,
                    "duration": 0.07490633333333108
                },
                {
                    "name": "G4",
                    "midi": 67,
                    "time": 339.77512800000653,
                    "velocity": 0.5590551181102362,
                    "duration": 0.8988759999999729
                },
                {
                    "name": "G5",
                    "midi": 79,
                    "time": 339.9998470000065,
                    "velocity": 0.4409448818897638,
                    "duration": 0.22471899999999323
                },
                {
                    "name": "B4",
                    "midi": 71,
                    "time": 339.9998470000065,
                    "velocity": 0.4409448818897638,
                    "duration": 0.44943799999998646
                },
                {
                    "name": "F5",
                    "midi": 77,
                    "time": 340.2245660000065,
                    "velocity": 0.4330708661417323,
                    "duration": 0.22471899999999323
                },
                {
                    "name": "C5",
                    "midi": 72,
                    "time": 340.4492850000065,
                    "velocity": 0.47244094488188976,
                    "duration": 0.22471899999999323
                },
                {
                    "name": "D#5",
                    "midi": 75,
                    "time": 340.4492850000065,
                    "velocity": 0.47244094488188976,
                    "duration": 0.22471899999999323
                },
                {
                    "name": "D4",
                    "midi": 62,
                    "time": 340.6740040000065,
                    "velocity": 0.41732283464566927,
                    "duration": 0.11235950000002504
                },
                {
                    "name": "D#4",
                    "midi": 63,
                    "time": 340.78636350000653,
                    "velocity": 0.41732283464566927,
                    "duration": 0.11235950000002504
                },
                {
                    "name": "G4",
                    "midi": 67,
                    "time": 340.89872300000656,
                    "velocity": 0.41732283464566927,
                    "duration": 0.07490633333333108
                },
                {
                    "name": "F4",
                    "midi": 65,
                    "time": 340.9736293333399,
                    "velocity": 0.41732283464566927,
                    "duration": 0.07490633333333108
                },
                {
                    "name": "D#4",
                    "midi": 63,
                    "time": 341.0485356666732,
                    "velocity": 0.3937007874015748,
                    "duration": 0.07490633333333108
                },
                {
                    "name": "D#4",
                    "midi": 63,
                    "time": 341.12344200000655,
                    "velocity": 0.48031496062992124,
                    "duration": 0.8988759999999729
                },
                {
                    "name": "D#5",
                    "midi": 75,
                    "time": 341.34816100000654,
                    "velocity": 0.4566929133858268,
                    "duration": 0.22471899999999323
                },
                {
                    "name": "G4",
                    "midi": 67,
                    "time": 341.34816100000654,
                    "velocity": 0.4566929133858268,
                    "duration": 0.44943799999998646
                },
                {
                    "name": "C#5",
                    "midi": 73,
                    "time": 341.57288000000653,
                    "velocity": 0.4409448818897638,
                    "duration": 0.22471899999999323
                },
                {
                    "name": "G#4",
                    "midi": 68,
                    "time": 341.7975990000065,
                    "velocity": 0.49606299212598426,
                    "duration": 0.22471899999999323
                },
                {
                    "name": "B4",
                    "midi": 71,
                    "time": 341.7975990000065,
                    "velocity": 0.49606299212598426,
                    "duration": 0.22471899999999323
                },
                {
                    "name": "D5",
                    "midi": 74,
                    "time": 342.0223180000065,
                    "velocity": 0.4251968503937008,
                    "duration": 0.11235950000002504
                },
                {
                    "name": "D#5",
                    "midi": 75,
                    "time": 342.13467750000655,
                    "velocity": 0.4015748031496063,
                    "duration": 0.11235950000002504
                },
                {
                    "name": "F#5",
                    "midi": 78,
                    "time": 342.24703700000657,
                    "velocity": 0.4251968503937008,
                    "duration": 0.07490633333333108
                },
                {
                    "name": "E5",
                    "midi": 76,
                    "time": 342.3219433333399,
                    "velocity": 0.4251968503937008,
                    "duration": 0.07490633333333108
                },
                {
                    "name": "D#5",
                    "midi": 75,
                    "time": 342.39684966667323,
                    "velocity": 0.4015748031496063,
                    "duration": 0.07490633333333108
                },
                {
                    "name": "D#5",
                    "midi": 75,
                    "time": 342.47175600000656,
                    "velocity": 0.4881889763779528,
                    "duration": 0.8988759999999729
                },
                {
                    "name": "D#6",
                    "midi": 87,
                    "time": 342.69647500000656,
                    "velocity": 0.4566929133858268,
                    "duration": 0.22471899999999323
                },
                {
                    "name": "A#5",
                    "midi": 82,
                    "time": 342.69647500000656,
                    "velocity": 0.4566929133858268,
                    "duration": 0.44943799999998646
                },
                {
                    "name": "C#6",
                    "midi": 85,
                    "time": 342.92119400000655,
                    "velocity": 0.4645669291338583,
                    "duration": 0.22471899999999323
                },
                {
                    "name": "G#5",
                    "midi": 80,
                    "time": 343.14591300000654,
                    "velocity": 0.5275590551181102,
                    "duration": 0.22471899999999323
                },
                {
                    "name": "B5",
                    "midi": 83,
                    "time": 343.14591300000654,
                    "velocity": 0.5275590551181102,
                    "duration": 0.22471899999999323
                },
                {
                    "name": "D5",
                    "midi": 74,
                    "time": 343.37063200000654,
                    "velocity": 0.4645669291338583,
                    "duration": 0.11235950000002504
                },
                {
                    "name": "D#5",
                    "midi": 75,
                    "time": 343.48299150000656,
                    "velocity": 0.4409448818897638,
                    "duration": 0.11235950000002504
                },
                {
                    "name": "F#5",
                    "midi": 78,
                    "time": 343.5953510000066,
                    "velocity": 0.4645669291338583,
                    "duration": 0.07490633333333108
                },
                {
                    "name": "E5",
                    "midi": 76,
                    "time": 343.6702573333399,
                    "velocity": 0.4645669291338583,
                    "duration": 0.07490633333333108
                },
                {
                    "name": "D#5",
                    "midi": 75,
                    "time": 343.74516366667325,
                    "velocity": 0.4330708661417323,
                    "duration": 0.06835202916664684
                },
                {
                    "name": "D#5",
                    "midi": 75,
                    "time": 343.8200700000066,
                    "velocity": 0.5354330708661418,
                    "duration": 0.6741569999999797
                },
                {
                    "name": "B4",
                    "midi": 71,
                    "time": 344.0447890000066,
                    "velocity": 0.49606299212598426,
                    "duration": 0.22471899999999323
                },
                {
                    "name": "B5",
                    "midi": 83,
                    "time": 344.0447890000066,
                    "velocity": 0.49606299212598426,
                    "duration": 0.22471899999999323
                },
                {
                    "name": "A#4",
                    "midi": 70,
                    "time": 344.26950800000657,
                    "velocity": 0.49606299212598426,
                    "duration": 0.22471899999999323
                },
                {
                    "name": "A#5",
                    "midi": 82,
                    "time": 344.26950800000657,
                    "velocity": 0.49606299212598426,
                    "duration": 0.22471899999999323
                },
                {
                    "name": "D#5",
                    "midi": 75,
                    "time": 344.49422700000656,
                    "velocity": 0.5433070866141733,
                    "duration": 0.22471899999999323
                },
                {
                    "name": "G#4",
                    "midi": 68,
                    "time": 344.49422700000656,
                    "velocity": 0.5433070866141733,
                    "duration": 0.22471899999999323
                },
                {
                    "name": "G#5",
                    "midi": 80,
                    "time": 344.49422700000656,
                    "velocity": 0.5433070866141733,
                    "duration": 0.22471899999999323
                },
                {
                    "name": "D5",
                    "midi": 74,
                    "time": 344.71894600000655,
                    "velocity": 0.47244094488188976,
                    "duration": 0.11235950000002504
                },
                {
                    "name": "D#5",
                    "midi": 75,
                    "time": 344.8313055000066,
                    "velocity": 0.4409448818897638,
                    "duration": 0.11235950000002504
                },
                {
                    "name": "F#5",
                    "midi": 78,
                    "time": 344.9436650000066,
                    "velocity": 0.47244094488188976,
                    "duration": 0.07490633333333108
                },
                {
                    "name": "E5",
                    "midi": 76,
                    "time": 345.01857133333993,
                    "velocity": 0.47244094488188976,
                    "duration": 0.07490633333333108
                },
                {
                    "name": "D#5",
                    "midi": 75,
                    "time": 345.09347766667327,
                    "velocity": 0.4409448818897638,
                    "duration": 0.0664793708333491
                },
                {
                    "name": "D#5",
                    "midi": 75,
                    "time": 345.1683840000066,
                    "velocity": 0.5826771653543307,
                    "duration": 0.8988759999999729
                },
                {
                    "name": "D#6",
                    "midi": 87,
                    "time": 345.3931030000066,
                    "velocity": 0.5118110236220472,
                    "duration": 0.22471899999999323
                },
                {
                    "name": "A#5",
                    "midi": 82,
                    "time": 345.3931030000066,
                    "velocity": 0.5118110236220472,
                    "duration": 0.44943799999998646
                },
                {
                    "name": "C#6",
                    "midi": 85,
                    "time": 345.6178220000066,
                    "velocity": 0.5118110236220472,
                    "duration": 0.22471899999999323
                },
                {
                    "name": "G#5",
                    "midi": 80,
                    "time": 345.8425410000066,
                    "velocity": 0.5984251968503937,
                    "duration": 0.22471899999999323
                },
                {
                    "name": "B5",
                    "midi": 83,
                    "time": 345.8425410000066,
                    "velocity": 0.5984251968503937,
                    "duration": 0.22471899999999323
                },
                {
                    "name": "D5",
                    "midi": 74,
                    "time": 346.06726000000657,
                    "velocity": 0.5196850393700787,
                    "duration": 0.11235950000002504
                },
                {
                    "name": "D#5",
                    "midi": 75,
                    "time": 346.1796195000066,
                    "velocity": 0.48031496062992124,
                    "duration": 0.11235950000002504
                },
                {
                    "name": "F#5",
                    "midi": 78,
                    "time": 346.2919790000066,
                    "velocity": 0.5196850393700787,
                    "duration": 0.07490633333333108
                },
                {
                    "name": "E5",
                    "midi": 76,
                    "time": 346.36688533333995,
                    "velocity": 0.5196850393700787,
                    "duration": 0.07490633333333108
                },
                {
                    "name": "D#5",
                    "midi": 75,
                    "time": 346.4417916666733,
                    "velocity": 0.48031496062992124,
                    "duration": 0.06928835833332414
                },
                {
                    "name": "D#5",
                    "midi": 75,
                    "time": 346.5166980000066,
                    "velocity": 0.6456692913385826,
                    "duration": 0.6741569999999797
                },
                {
                    "name": "B4",
                    "midi": 71,
                    "time": 346.7414170000066,
                    "velocity": 0.5748031496062992,
                    "duration": 0.22471899999999323
                },
                {
                    "name": "B5",
                    "midi": 83,
                    "time": 346.7414170000066,
                    "velocity": 0.5748031496062992,
                    "duration": 0.22471899999999323
                },
                {
                    "name": "A#4",
                    "midi": 70,
                    "time": 346.9661360000066,
                    "velocity": 0.5748031496062992,
                    "duration": 0.22471899999999323
                },
                {
                    "name": "A#5",
                    "midi": 82,
                    "time": 346.9661360000066,
                    "velocity": 0.5748031496062992,
                    "duration": 0.22471899999999323
                },
                {
                    "name": "E5",
                    "midi": 76,
                    "time": 347.1908550000066,
                    "velocity": 0.6850393700787402,
                    "duration": 0.22471899999999323
                },
                {
                    "name": "G#4",
                    "midi": 68,
                    "time": 347.1908550000066,
                    "velocity": 0.5748031496062992,
                    "duration": 0.22471899999999323
                },
                {
                    "name": "G#5",
                    "midi": 80,
                    "time": 347.1908550000066,
                    "velocity": 0.6850393700787402,
                    "duration": 0.22471899999999323
                },
                {
                    "name": "G#5",
                    "midi": 80,
                    "time": 347.80883225000656,
                    "velocity": 0.5511811023622047,
                    "duration": 0.05617975000001252
                },
                {
                    "name": "G#6",
                    "midi": 92,
                    "time": 347.8650120000066,
                    "velocity": 0.7480314960629921,
                    "duration": 0.22471899999999323
                },
                {
                    "name": "F#6",
                    "midi": 90,
                    "time": 348.08973100000657,
                    "velocity": 0.6377952755905512,
                    "duration": 0.11235950000002504
                },
                {
                    "name": "E6",
                    "midi": 88,
                    "time": 348.2020905000066,
                    "velocity": 0.5984251968503937,
                    "duration": 0.11235950000002504
                },
                {
                    "name": "B5",
                    "midi": 83,
                    "time": 348.3144500000066,
                    "velocity": 0.6220472440944882,
                    "duration": 0.11235950000002504
                },
                {
                    "name": "G#5",
                    "midi": 80,
                    "time": 348.42680950000664,
                    "velocity": 0.5669291338582677,
                    "duration": 0.11235950000002504
                },
                {
                    "name": "F#5",
                    "midi": 78,
                    "time": 348.53916900000667,
                    "velocity": 0.5984251968503937,
                    "duration": 0.11235950000002504
                },
                {
                    "name": "E5",
                    "midi": 76,
                    "time": 348.6515285000067,
                    "velocity": 0.5590551181102362,
                    "duration": 0.11235950000002504
                },
                {
                    "name": "B4",
                    "midi": 71,
                    "time": 348.7638880000067,
                    "velocity": 0.5826771653543307,
                    "duration": 0.11235950000002504
                },
                {
                    "name": "G#4",
                    "midi": 68,
                    "time": 348.87624750000674,
                    "velocity": 0.5354330708661418,
                    "duration": 0.11235950000002504
                },
                {
                    "name": "F#4",
                    "midi": 66,
                    "time": 348.98860700000677,
                    "velocity": 0.5590551181102362,
                    "duration": 0.11235950000002504
                },
                {
                    "name": "E4",
                    "midi": 64,
                    "time": 349.1009665000068,
                    "velocity": 0.5196850393700787,
                    "duration": 0.11235950000002504
                },
                {
                    "name": "B3",
                    "midi": 59,
                    "time": 349.2133260000068,
                    "velocity": 0.5433070866141733,
                    "duration": 0.22471899999999323
                },
                {
                    "name": "D#5",
                    "midi": 75,
                    "time": 349.8874830000068,
                    "velocity": 0.4330708661417323,
                    "duration": 0.11235950000002504
                },
                {
                    "name": "E5",
                    "midi": 76,
                    "time": 349.9998425000068,
                    "velocity": 0.4094488188976378,
                    "duration": 0.11235950000002504
                },
                {
                    "name": "F#5",
                    "midi": 78,
                    "time": 350.11220200000685,
                    "velocity": 0.3937007874015748,
                    "duration": 0.11235950000002504
                },
                {
                    "name": "G#5",
                    "midi": 80,
                    "time": 350.22456150000687,
                    "velocity": 0.3464566929133858,
                    "duration": 0.11235950000002504
                },
                {
                    "name": "A5",
                    "midi": 81,
                    "time": 350.3369210000069,
                    "velocity": 0.3543307086614173,
                    "duration": 0.11235950000002504
                },
                {
                    "name": "B5",
                    "midi": 83,
                    "time": 350.4492805000069,
                    "velocity": 0.33070866141732286,
                    "duration": 0.11235950000002504
                },
                {
                    "name": "C6",
                    "midi": 84,
                    "time": 350.56164000000695,
                    "velocity": 0.31496062992125984,
                    "duration": 0.22471899999999323
                },
                {
                    "name": "C6",
                    "midi": 84,
                    "time": 351.2357970000069,
                    "velocity": 0.3937007874015748,
                    "duration": 0.11235950000002504
                },
                {
                    "name": "B5",
                    "midi": 83,
                    "time": 351.34815650000695,
                    "velocity": 0.36220472440944884,
                    "duration": 0.11235950000002504
                },
                {
                    "name": "A5",
                    "midi": 81,
                    "time": 351.460516000007,
                    "velocity": 0.3700787401574803,
                    "duration": 0.11235950000002504
                },
                {
                    "name": "G#5",
                    "midi": 80,
                    "time": 351.572875500007,
                    "velocity": 0.33858267716535434,
                    "duration": 0.11235950000002504
                },
                {
                    "name": "F#5",
                    "midi": 78,
                    "time": 351.685235000007,
                    "velocity": 0.3464566929133858,
                    "duration": 0.11235950000002504
                },
                {
                    "name": "E5",
                    "midi": 76,
                    "time": 351.79759450000705,
                    "velocity": 0.33070866141732286,
                    "duration": 0.11235950000002504
                },
                {
                    "name": "D#5",
                    "midi": 75,
                    "time": 351.9099540000071,
                    "velocity": 0.3228346456692913,
                    "duration": 0.22471899999999323
                },
                {
                    "name": "G#5",
                    "midi": 80,
                    "time": 352.52793125000704,
                    "velocity": 0.6377952755905512,
                    "duration": 0.05617975000001252
                },
                {
                    "name": "G#6",
                    "midi": 92,
                    "time": 352.58411100000706,
                    "velocity": 0.905511811023622,
                    "duration": 0.8988759999999729
                },
                {
                    "name": "F#6",
                    "midi": 90,
                    "time": 353.48298700000703,
                    "velocity": 0.6377952755905512,
                    "duration": 0.11235950000002504
                },
                {
                    "name": "E6",
                    "midi": 88,
                    "time": 353.59534650000705,
                    "velocity": 0.5748031496062992,
                    "duration": 0.11235950000002504
                },
                {
                    "name": "B5",
                    "midi": 83,
                    "time": 353.7077060000071,
                    "velocity": 0.6220472440944882,
                    "duration": 0.11235950000002504
                },
                {
                    "name": "G#5",
                    "midi": 80,
                    "time": 353.8200655000071,
                    "velocity": 0.5748031496062992,
                    "duration": 0.11235950000002504
                },
                {
                    "name": "F#5",
                    "midi": 78,
                    "time": 353.93242500000713,
                    "velocity": 0.5984251968503937,
                    "duration": 0.11235950000002504
                },
                {
                    "name": "E5",
                    "midi": 76,
                    "time": 354.04478450000715,
                    "velocity": 0.5511811023622047,
                    "duration": 0.11235950000002504
                },
                {
                    "name": "B4",
                    "midi": 71,
                    "time": 354.1571440000072,
                    "velocity": 0.5826771653543307,
                    "duration": 0.11235950000002504
                },
                {
                    "name": "G#4",
                    "midi": 68,
                    "time": 354.2695035000072,
                    "velocity": 0.5433070866141733,
                    "duration": 0.11235950000002504
                },
                {
                    "name": "F#4",
                    "midi": 66,
                    "time": 354.38186300000723,
                    "velocity": 0.5590551181102362,
                    "duration": 0.11235950000002504
                },
                {
                    "name": "E4",
                    "midi": 64,
                    "time": 354.49422250000725,
                    "velocity": 0.5511811023622047,
                    "duration": 0.11235950000002504
                },
                {
                    "name": "B3",
                    "midi": 59,
                    "time": 354.6065820000073,
                    "velocity": 0.5433070866141733,
                    "duration": 0.22471899999999323
                },
                {
                    "name": "F5",
                    "midi": 77,
                    "time": 355.28073900000726,
                    "velocity": 0.44881889763779526,
                    "duration": 0.11235950000002504
                },
                {
                    "name": "F#5",
                    "midi": 78,
                    "time": 355.3930985000073,
                    "velocity": 0.4330708661417323,
                    "duration": 0.11235950000002504
                },
                {
                    "name": "G#5",
                    "midi": 80,
                    "time": 355.5054580000073,
                    "velocity": 0.41732283464566927,
                    "duration": 0.11235950000002504
                },
                {
                    "name": "A5",
                    "midi": 81,
                    "time": 355.61781750000733,
                    "velocity": 0.4094488188976378,
                    "duration": 0.11235950000002504
                },
                {
                    "name": "B5",
                    "midi": 83,
                    "time": 355.73017700000736,
                    "velocity": 0.3937007874015748,
                    "duration": 0.11235950000002504
                },
                {
                    "name": "C#6",
                    "midi": 85,
                    "time": 355.8425365000074,
                    "velocity": 0.3779527559055118,
                    "duration": 0.11235950000002504
                },
                {
                    "name": "D6",
                    "midi": 86,
                    "time": 355.9548960000074,
                    "velocity": 0.36220472440944884,
                    "duration": 0.22471899999999323
                },
                {
                    "name": "D6",
                    "midi": 86,
                    "time": 356.6290530000074,
                    "velocity": 0.4409448818897638,
                    "duration": 0.11235950000002504
                },
                {
                    "name": "C#6",
                    "midi": 85,
                    "time": 356.7414125000074,
                    "velocity": 0.4251968503937008,
                    "duration": 0.11235950000002504
                },
                {
                    "name": "B5",
                    "midi": 83,
                    "time": 356.85377200000744,
                    "velocity": 0.41732283464566927,
                    "duration": 0.11235950000002504
                },
                {
                    "name": "A5",
                    "midi": 81,
                    "time": 356.96613150000746,
                    "velocity": 0.4094488188976378,
                    "duration": 0.11235950000002504
                },
                {
                    "name": "G#5",
                    "midi": 80,
                    "time": 357.0784910000075,
                    "velocity": 0.4015748031496063,
                    "duration": 0.11235950000002504
                },
                {
                    "name": "F#5",
                    "midi": 78,
                    "time": 357.1908505000075,
                    "velocity": 0.3937007874015748,
                    "duration": 0.11235950000002504
                },
                {
                    "name": "F5",
                    "midi": 77,
                    "time": 357.30321000000754,
                    "velocity": 0.3779527559055118,
                    "duration": 0.22471899999999323
                },
                {
                    "name": "G5",
                    "midi": 79,
                    "time": 357.9773670000075,
                    "velocity": 0.5196850393700787,
                    "duration": 0.11235950000002504
                },
                {
                    "name": "G#5",
                    "midi": 80,
                    "time": 358.08972650000754,
                    "velocity": 0.5118110236220472,
                    "duration": 0.11235950000002504
                },
                {
                    "name": "A#5",
                    "midi": 82,
                    "time": 358.20208600000757,
                    "velocity": 0.5039370078740157,
                    "duration": 0.11235950000002504
                },
                {
                    "name": "B5",
                    "midi": 83,
                    "time": 358.3144455000076,
                    "velocity": 0.49606299212598426,
                    "duration": 0.11235950000002504
                },
                {
                    "name": "C#6",
                    "midi": 85,
                    "time": 358.4268050000076,
                    "velocity": 0.4881889763779528,
                    "duration": 0.11235950000002504
                },
                {
                    "name": "D#6",
                    "midi": 87,
                    "time": 358.53916450000764,
                    "velocity": 0.48031496062992124,
                    "duration": 0.11235950000002504
                },
                {
                    "name": "E6",
                    "midi": 88,
                    "time": 358.65152400000767,
                    "velocity": 0.47244094488188976,
                    "duration": 0.22471899999999323
                },
                {
                    "name": "E6",
                    "midi": 88,
                    "time": 359.32568100000765,
                    "velocity": 0.5118110236220472,
                    "duration": 0.11235950000002504
                },
                {
                    "name": "D#6",
                    "midi": 87,
                    "time": 359.4380405000077,
                    "velocity": 0.5039370078740157,
                    "duration": 0.11235950000002504
                },
                {
                    "name": "C#6",
                    "midi": 85,
                    "time": 359.5504000000077,
                    "velocity": 0.4881889763779528,
                    "duration": 0.11235950000002504
                },
                {
                    "name": "B5",
                    "midi": 83,
                    "time": 359.6627595000077,
                    "velocity": 0.48031496062992124,
                    "duration": 0.11235950000002504
                },
                {
                    "name": "A#5",
                    "midi": 82,
                    "time": 359.77511900000775,
                    "velocity": 0.4645669291338583,
                    "duration": 0.11235950000002504
                },
                {
                    "name": "G#5",
                    "midi": 80,
                    "time": 359.8874785000078,
                    "velocity": 0.4566929133858268,
                    "duration": 0.11235950000002504
                },
                {
                    "name": "G5",
                    "midi": 79,
                    "time": 359.9998380000078,
                    "velocity": 0.4409448818897638,
                    "duration": 0.22471899999999323
                },
                {
                    "name": "A5",
                    "midi": 81,
                    "time": 360.6739950000078,
                    "velocity": 0.5590551181102362,
                    "duration": 0.11235950000002504
                },
                {
                    "name": "A#5",
                    "midi": 82,
                    "time": 360.7863545000078,
                    "velocity": 0.5669291338582677,
                    "duration": 0.11235950000002504
                },
                {
                    "name": "C6",
                    "midi": 84,
                    "time": 360.8987140000078,
                    "velocity": 0.5748031496062992,
                    "duration": 0.11235950000002504
                },
                {
                    "name": "C#6",
                    "midi": 85,
                    "time": 361.01107350000785,
                    "velocity": 0.5905511811023622,
                    "duration": 0.11235950000002504
                },
                {
                    "name": "D#6",
                    "midi": 87,
                    "time": 361.1234330000079,
                    "velocity": 0.5984251968503937,
                    "duration": 0.11235950000002504
                },
                {
                    "name": "F6",
                    "midi": 89,
                    "time": 361.2357925000079,
                    "velocity": 0.6062992125984252,
                    "duration": 0.11235950000002504
                },
                {
                    "name": "F#6",
                    "midi": 90,
                    "time": 361.34815200000793,
                    "velocity": 0.6141732283464567,
                    "duration": 0.11235950000002504
                },
                {
                    "name": "D#7",
                    "midi": 99,
                    "time": 361.46051150000795,
                    "velocity": 0.6141732283464567,
                    "duration": 0.11235950000002504
                },
                {
                    "name": "F#6",
                    "midi": 90,
                    "time": 361.572871000008,
                    "velocity": 0.6062992125984252,
                    "duration": 0.11235950000002504
                },
                {
                    "name": "F6",
                    "midi": 89,
                    "time": 361.685230500008,
                    "velocity": 0.5984251968503937,
                    "duration": 0.11235950000002504
                },
                {
                    "name": "D#6",
                    "midi": 87,
                    "time": 361.79759000000803,
                    "velocity": 0.5905511811023622,
                    "duration": 0.11235950000002504
                },
                {
                    "name": "C#6",
                    "midi": 85,
                    "time": 361.90994950000805,
                    "velocity": 0.5905511811023622,
                    "duration": 0.11235950000002504
                },
                {
                    "name": "C6",
                    "midi": 84,
                    "time": 362.0223090000081,
                    "velocity": 0.5590551181102362,
                    "duration": 0.11235950000002504
                },
                {
                    "name": "C#6",
                    "midi": 85,
                    "time": 362.1346685000081,
                    "velocity": 0.5669291338582677,
                    "duration": 0.11235950000002504
                },
                {
                    "name": "D6",
                    "midi": 86,
                    "time": 362.24702800000813,
                    "velocity": 0.5748031496062992,
                    "duration": 0.11235950000002504
                },
                {
                    "name": "D#6",
                    "midi": 87,
                    "time": 362.35938750000815,
                    "velocity": 0.5826771653543307,
                    "duration": 0.11235950000002504
                },
                {
                    "name": "E6",
                    "midi": 88,
                    "time": 362.4717470000082,
                    "velocity": 0.5984251968503937,
                    "duration": 0.11235950000002504
                },
                {
                    "name": "F6",
                    "midi": 89,
                    "time": 362.5841065000082,
                    "velocity": 0.6062992125984252,
                    "duration": 0.11235950000002504
                },
                {
                    "name": "F#6",
                    "midi": 90,
                    "time": 362.69646600000823,
                    "velocity": 0.6141732283464567,
                    "duration": 0.11235950000002504
                },
                {
                    "name": "D#7",
                    "midi": 99,
                    "time": 362.80882550000825,
                    "velocity": 0.6220472440944882,
                    "duration": 0.11235950000002504
                },
                {
                    "name": "F#6",
                    "midi": 90,
                    "time": 362.9211850000083,
                    "velocity": 0.6299212598425197,
                    "duration": 0.11235950000002504
                },
                {
                    "name": "F6",
                    "midi": 89,
                    "time": 363.0335445000083,
                    "velocity": 0.6456692913385826,
                    "duration": 0.11235950000002504
                },
                {
                    "name": "D#6",
                    "midi": 87,
                    "time": 363.14590400000833,
                    "velocity": 0.6535433070866141,
                    "duration": 0.11235950000002504
                },
                {
                    "name": "C#6",
                    "midi": 85,
                    "time": 363.25826350000835,
                    "velocity": 0.6614173228346457,
                    "duration": 0.11235950000002504
                },
                {
                    "name": "C6",
                    "midi": 84,
                    "time": 363.3706230000084,
                    "velocity": 0.6692913385826772,
                    "duration": 0.11235950000002504
                },
                {
                    "name": "F7",
                    "midi": 101,
                    "time": 363.59534200000843,
                    "velocity": 0.7322834645669292,
                    "duration": 0.11235950000002504
                },
                {
                    "name": "E7",
                    "midi": 100,
                    "time": 363.70770150000845,
                    "velocity": 0.6535433070866141,
                    "duration": 0.11235950000002504
                },
                {
                    "name": "D#7",
                    "midi": 99,
                    "time": 363.8200610000085,
                    "velocity": 0.6377952755905512,
                    "duration": 0.11235950000002504
                },
                {
                    "name": "C7",
                    "midi": 96,
                    "time": 363.9324205000085,
                    "velocity": 0.6141732283464567,
                    "duration": 0.11235950000002504
                },
                {
                    "name": "A6",
                    "midi": 93,
                    "time": 364.04478000000853,
                    "velocity": 0.5984251968503937,
                    "duration": 0.22471899999999323
                },
                {
                    "name": "F5",
                    "midi": 77,
                    "time": 364.4942180000085,
                    "velocity": 0.7086614173228346,
                    "duration": 0.11235950000002504
                },
                {
                    "name": "E5",
                    "midi": 76,
                    "time": 364.60657750000854,
                    "velocity": 0.6456692913385826,
                    "duration": 0.11235950000002504
                },
                {
                    "name": "D#5",
                    "midi": 75,
                    "time": 364.71893700000857,
                    "velocity": 0.6299212598425197,
                    "duration": 0.11235950000002504
                },
                {
                    "name": "C5",
                    "midi": 72,
                    "time": 364.8312965000086,
                    "velocity": 0.6141732283464567,
                    "duration": 0.11235950000002504
                },
                {
                    "name": "A4",
                    "midi": 69,
                    "time": 364.9436560000086,
                    "velocity": 0.5984251968503937,
                    "duration": 0.22471899999999323
                },
                {
                    "name": "F3",
                    "midi": 53,
                    "time": 365.3930940000086,
                    "velocity": 0.7086614173228346,
                    "duration": 0.11235950000002504
                },
                {
                    "name": "E3",
                    "midi": 52,
                    "time": 365.5054535000086,
                    "velocity": 0.6614173228346457,
                    "duration": 0.11235950000002504
                },
                {
                    "name": "D#3",
                    "midi": 51,
                    "time": 365.61781300000865,
                    "velocity": 0.6456692913385826,
                    "duration": 0.11235950000002504
                },
                {
                    "name": "C3",
                    "midi": 48,
                    "time": 365.7301725000087,
                    "velocity": 0.6299212598425197,
                    "duration": 0.11235950000002504
                },
                {
                    "name": "C#6",
                    "midi": 85,
                    "time": 366.0672510000087,
                    "velocity": 0.7007874015748031,
                    "duration": 0.22471899999999323
                },
                {
                    "name": "C#5",
                    "midi": 73,
                    "time": 366.0672510000087,
                    "velocity": 0.7007874015748031,
                    "duration": 0.22471899999999323
                },
                {
                    "name": "E5",
                    "midi": 76,
                    "time": 366.2919700000087,
                    "velocity": 0.5826771653543307,
                    "duration": 0.11235950000002504
                },
                {
                    "name": "F5",
                    "midi": 77,
                    "time": 366.4043295000087,
                    "velocity": 0.5590551181102362,
                    "duration": 0.11235950000002504
                },
                {
                    "name": "G#5",
                    "midi": 80,
                    "time": 366.51668900000874,
                    "velocity": 0.5826771653543307,
                    "duration": 0.07490633333333108
                },
                {
                    "name": "F#5",
                    "midi": 78,
                    "time": 366.59159533334207,
                    "velocity": 0.5826771653543307,
                    "duration": 0.07490633333333108
                },
                {
                    "name": "F5",
                    "midi": 77,
                    "time": 366.6665016666754,
                    "velocity": 0.5590551181102362,
                    "duration": 0.0655430416666718
                },
                {
                    "name": "F5",
                    "midi": 77,
                    "time": 366.74140800000873,
                    "velocity": 0.7007874015748031,
                    "duration": 0.22471899999999323
                },
                {
                    "name": "E6",
                    "midi": 88,
                    "time": 366.9661270000087,
                    "velocity": 0.6377952755905512,
                    "duration": 0.22471899999999323
                },
                {
                    "name": "E5",
                    "midi": 76,
                    "time": 366.9661270000087,
                    "velocity": 0.6377952755905512,
                    "duration": 0.22471899999999323
                },
                {
                    "name": "F5",
                    "midi": 77,
                    "time": 367.1908460000087,
                    "velocity": 0.6377952755905512,
                    "duration": 0.22471899999999323
                },
                {
                    "name": "F6",
                    "midi": 89,
                    "time": 367.1908460000087,
                    "velocity": 0.6377952755905512,
                    "duration": 0.22471899999999323
                },
                {
                    "name": "A#4",
                    "midi": 70,
                    "time": 367.4155650000087,
                    "velocity": 0.7007874015748031,
                    "duration": 0.22471899999999323
                },
                {
                    "name": "A#5",
                    "midi": 82,
                    "time": 367.4155650000087,
                    "velocity": 0.7007874015748031,
                    "duration": 0.22471899999999323
                },
                {
                    "name": "C5",
                    "midi": 72,
                    "time": 367.6402840000087,
                    "velocity": 0.5748031496062992,
                    "duration": 0.11235950000002504
                },
                {
                    "name": "C#5",
                    "midi": 73,
                    "time": 367.75264350000873,
                    "velocity": 0.5590551181102362,
                    "duration": 0.11235950000002504
                },
                {
                    "name": "F5",
                    "midi": 77,
                    "time": 367.86500300000876,
                    "velocity": 0.5748031496062992,
                    "duration": 0.07490633333333108
                },
                {
                    "name": "D#5",
                    "midi": 75,
                    "time": 367.9399093333421,
                    "velocity": 0.5748031496062992,
                    "duration": 0.07490633333333108
                },
                {
                    "name": "C#5",
                    "midi": 73,
                    "time": 368.0148156666754,
                    "velocity": 0.5433070866141733,
                    "duration": 0.0655430416666718
                },
                {
                    "name": "C#5",
                    "midi": 73,
                    "time": 368.08972200000875,
                    "velocity": 0.7007874015748031,
                    "duration": 0.22471899999999323
                },
                {
                    "name": "C6",
                    "midi": 84,
                    "time": 368.31444100000874,
                    "velocity": 0.6377952755905512,
                    "duration": 0.22471899999999323
                },
                {
                    "name": "C5",
                    "midi": 72,
                    "time": 368.31444100000874,
                    "velocity": 0.6377952755905512,
                    "duration": 0.22471899999999323
                },
                {
                    "name": "C#5",
                    "midi": 73,
                    "time": 368.53916000000874,
                    "velocity": 0.6377952755905512,
                    "duration": 0.22471899999999323
                },
                {
                    "name": "C#6",
                    "midi": 85,
                    "time": 368.53916000000874,
                    "velocity": 0.6377952755905512,
                    "duration": 0.22471899999999323
                },
                {
                    "name": "F#4",
                    "midi": 66,
                    "time": 368.7638790000087,
                    "velocity": 0.7007874015748031,
                    "duration": 0.22471899999999323
                },
                {
                    "name": "F#5",
                    "midi": 78,
                    "time": 368.7638790000087,
                    "velocity": 0.7007874015748031,
                    "duration": 0.22471899999999323
                },
                {
                    "name": "A4",
                    "midi": 69,
                    "time": 368.9885980000087,
                    "velocity": 0.5748031496062992,
                    "duration": 0.11235950000002504
                },
                {
                    "name": "A#4",
                    "midi": 70,
                    "time": 369.10095750000875,
                    "velocity": 0.5433070866141733,
                    "duration": 0.11235950000002504
                },
                {
                    "name": "C#5",
                    "midi": 73,
                    "time": 369.2133170000088,
                    "velocity": 0.5748031496062992,
                    "duration": 0.07490633333333108
                },
                {
                    "name": "C5",
                    "midi": 72,
                    "time": 369.2882233333421,
                    "velocity": 0.5748031496062992,
                    "duration": 0.07490633333333108
                },
                {
                    "name": "A#4",
                    "midi": 70,
                    "time": 369.36312966667543,
                    "velocity": 0.5433070866141733,
                    "duration": 0.0655430416666718
                },
                {
                    "name": "A#4",
                    "midi": 70,
                    "time": 369.43803600000876,
                    "velocity": 0.7007874015748031,
                    "duration": 0.22471899999999323
                },
                {
                    "name": "A5",
                    "midi": 81,
                    "time": 369.66275500000876,
                    "velocity": 0.6377952755905512,
                    "duration": 0.22471899999999323
                },
                {
                    "name": "A4",
                    "midi": 69,
                    "time": 369.66275500000876,
                    "velocity": 0.6377952755905512,
                    "duration": 0.22471899999999323
                },
                {
                    "name": "A#4",
                    "midi": 70,
                    "time": 369.88747400000875,
                    "velocity": 0.6377952755905512,
                    "duration": 0.22471899999999323
                },
                {
                    "name": "A#5",
                    "midi": 82,
                    "time": 369.88747400000875,
                    "velocity": 0.6377952755905512,
                    "duration": 0.22471899999999323
                },
                {
                    "name": "D#4",
                    "midi": 63,
                    "time": 370.11219300000874,
                    "velocity": 0.7007874015748031,
                    "duration": 0.22471899999999323
                },
                {
                    "name": "D#5",
                    "midi": 75,
                    "time": 370.11219300000874,
                    "velocity": 0.7007874015748031,
                    "duration": 0.22471899999999323
                },
                {
                    "name": "F4",
                    "midi": 65,
                    "time": 370.33691200000874,
                    "velocity": 0.5826771653543307,
                    "duration": 0.11235950000002504
                },
                {
                    "name": "F#4",
                    "midi": 66,
                    "time": 370.44927150000876,
                    "velocity": 0.5511811023622047,
                    "duration": 0.11235950000002504
                },
                {
                    "name": "A#4",
                    "midi": 70,
                    "time": 370.5616310000088,
                    "velocity": 0.5826771653543307,
                    "duration": 0.07490633333333108
                },
                {
                    "name": "G#4",
                    "midi": 68,
                    "time": 370.6365373333421,
                    "velocity": 0.5826771653543307,
                    "duration": 0.07490633333333108
                },
                {
                    "name": "F#4",
                    "midi": 66,
                    "time": 370.71144366667545,
                    "velocity": 0.5590551181102362,
                    "duration": 0.0655430416666718
                },
                {
                    "name": "F#4",
                    "midi": 66,
                    "time": 370.7863500000088,
                    "velocity": 0.7007874015748031,
                    "duration": 0.6741569999999797
                },
                {
                    "name": "D5",
                    "midi": 74,
                    "time": 371.0110690000088,
                    "velocity": 0.6692913385826772,
                    "duration": 0.22471899999999323
                },
                {
                    "name": "F5",
                    "midi": 77,
                    "time": 371.0110690000088,
                    "velocity": 0.6692913385826772,
                    "duration": 0.22471899999999323
                },
                {
                    "name": "D#5",
                    "midi": 75,
                    "time": 371.23578800000877,
                    "velocity": 0.6692913385826772,
                    "duration": 0.22471899999999323
                },
                {
                    "name": "F#5",
                    "midi": 78,
                    "time": 371.23578800000877,
                    "velocity": 0.6692913385826772,
                    "duration": 0.22471899999999323
                },
                {
                    "name": "F4",
                    "midi": 65,
                    "time": 371.46050700000876,
                    "velocity": 0.6614173228346457,
                    "duration": 0.22471899999999323
                },
                {
                    "name": "C5",
                    "midi": 72,
                    "time": 371.46050700000876,
                    "velocity": 0.6614173228346457,
                    "duration": 0.22471899999999323
                },
                {
                    "name": "D#5",
                    "midi": 75,
                    "time": 371.46050700000876,
                    "velocity": 0.6614173228346457,
                    "duration": 0.22471899999999323
                },
                {
                    "name": "F5",
                    "midi": 77,
                    "time": 371.46050700000876,
                    "velocity": 0.6614173228346457,
                    "duration": 0.22471899999999323
                },
                {
                    "name": "E4",
                    "midi": 64,
                    "time": 371.68522600000875,
                    "velocity": 0.5354330708661418,
                    "duration": 0.11235950000002504
                },
                {
                    "name": "F4",
                    "midi": 65,
                    "time": 371.7975855000088,
                    "velocity": 0.5196850393700787,
                    "duration": 0.11235950000002504
                },
                {
                    "name": "G#4",
                    "midi": 68,
                    "time": 371.9099450000088,
                    "velocity": 0.5354330708661418,
                    "duration": 0.09363291666664963
                },
                {
                    "name": "F#4",
                    "midi": 66,
                    "time": 371.98485133334214,
                    "velocity": 0.5354330708661418,
                    "duration": 0.09363291666664963
                },
                {
                    "name": "F4",
                    "midi": 65,
                    "time": 372.05975766667547,
                    "velocity": 0.5196850393700787,
                    "duration": 0.0655430416666718
                },
                {
                    "name": "F3",
                    "midi": 53,
                    "time": 372.1346640000088,
                    "velocity": 0.4645669291338583,
                    "duration": 0.22471899999999323
                },
                {
                    "name": "A#3",
                    "midi": 58,
                    "time": 372.1487089375088,
                    "velocity": 0.4645669291338583,
                    "duration": 0.2106740625000043
                },
                {
                    "name": "C#4",
                    "midi": 61,
                    "time": 372.1627538750088,
                    "velocity": 0.4645669291338583,
                    "duration": 0.1966291250000154
                },
                {
                    "name": "F4",
                    "midi": 65,
                    "time": 372.17679881250876,
                    "velocity": 0.4645669291338583,
                    "duration": 0.18258418750002647
                },
                {
                    "name": "D#6",
                    "midi": 87,
                    "time": 372.3593830000088,
                    "velocity": 0.5748031496062992,
                    "duration": 0.22471899999999323
                },
                {
                    "name": "D#5",
                    "midi": 75,
                    "time": 372.3593830000088,
                    "velocity": 0.5748031496062992,
                    "duration": 0.22471899999999323
                },
                {
                    "name": "C#6",
                    "midi": 85,
                    "time": 372.5841020000088,
                    "velocity": 0.5748031496062992,
                    "duration": 0.22471899999999323
                },
                {
                    "name": "C#5",
                    "midi": 73,
                    "time": 372.5841020000088,
                    "velocity": 0.5748031496062992,
                    "duration": 0.22471899999999323
                },
                {
                    "name": "C5",
                    "midi": 72,
                    "time": 372.8088210000088,
                    "velocity": 0.5354330708661418,
                    "duration": 0.22471899999999323
                },
                {
                    "name": "F5",
                    "midi": 77,
                    "time": 372.82286593750877,
                    "velocity": 0.5433070866141733,
                    "duration": 0.2106740625000043
                },
                {
                    "name": "A5",
                    "midi": 81,
                    "time": 372.83691087500875,
                    "velocity": 0.5669291338582677,
                    "duration": 0.1966291250000154
                },
                {
                    "name": "C6",
                    "midi": 84,
                    "time": 372.85095581250874,
                    "velocity": 0.6062992125984252,
                    "duration": 0.18258418750002647
                },
                {
                    "name": "E4",
                    "midi": 64,
                    "time": 373.03354000000877,
                    "velocity": 0.5354330708661418,
                    "duration": 0.11235950000002504
                },
                {
                    "name": "F4",
                    "midi": 65,
                    "time": 373.1458995000088,
                    "velocity": 0.5196850393700787,
                    "duration": 0.11235950000002504
                },
                {
                    "name": "G#4",
                    "midi": 68,
                    "time": 373.2582590000088,
                    "velocity": 0.5433070866141733,
                    "duration": 0.09363291666664963
                },
                {
                    "name": "F#4",
                    "midi": 66,
                    "time": 373.33316533334215,
                    "velocity": 0.5433070866141733,
                    "duration": 0.09363291666664963
                },
                {
                    "name": "F4",
                    "midi": 65,
                    "time": 373.4080716666755,
                    "velocity": 0.5275590551181102,
                    "duration": 0.0655430416666718
                },
                {
                    "name": "F3",
                    "midi": 53,
                    "time": 373.4829780000088,
                    "velocity": 0.47244094488188976,
                    "duration": 0.22471899999999323
                },
                {
                    "name": "A#3",
                    "midi": 58,
                    "time": 373.4970229375088,
                    "velocity": 0.47244094488188976,
                    "duration": 0.2106740625000043
                },
                {
                    "name": "C#4",
                    "midi": 61,
                    "time": 373.5110678750088,
                    "velocity": 0.47244094488188976,
                    "duration": 0.1966291250000154
                },
                {
                    "name": "F4",
                    "midi": 65,
                    "time": 373.5251128125088,
                    "velocity": 0.47244094488188976,
                    "duration": 0.18258418750002647
                },
                {
                    "name": "C6",
                    "midi": 84,
                    "time": 373.7076970000088,
                    "velocity": 0.5826771653543307,
                    "duration": 0.22471899999999323
                },
                {
                    "name": "C5",
                    "midi": 72,
                    "time": 373.7076970000088,
                    "velocity": 0.5826771653543307,
                    "duration": 0.22471899999999323
                },
                {
                    "name": "A#4",
                    "midi": 70,
                    "time": 373.9324160000088,
                    "velocity": 0.5826771653543307,
                    "duration": 0.22471899999999323
                },
                {
                    "name": "A#5",
                    "midi": 82,
                    "time": 373.9324160000088,
                    "velocity": 0.5826771653543307,
                    "duration": 0.22471899999999323
                },
                {
                    "name": "A4",
                    "midi": 69,
                    "time": 374.1571350000088,
                    "velocity": 0.5433070866141733,
                    "duration": 0.22471899999999323
                },
                {
                    "name": "C5",
                    "midi": 72,
                    "time": 374.1711799375088,
                    "velocity": 0.5511811023622047,
                    "duration": 0.2106740625000043
                },
                {
                    "name": "F5",
                    "midi": 77,
                    "time": 374.18522487500877,
                    "velocity": 0.5826771653543307,
                    "duration": 0.1966291250000154
                },
                {
                    "name": "A5",
                    "midi": 81,
                    "time": 374.19926981250876,
                    "velocity": 0.5984251968503937,
                    "duration": 0.18258418750002647
                },
                {
                    "name": "E4",
                    "midi": 64,
                    "time": 374.3818540000088,
                    "velocity": 0.5118110236220472,
                    "duration": 0.11235950000002504
                },
                {
                    "name": "F4",
                    "midi": 65,
                    "time": 374.4942135000088,
                    "velocity": 0.47244094488188976,
                    "duration": 0.11235950000002504
                },
                {
                    "name": "G#4",
                    "midi": 68,
                    "time": 374.60657300000884,
                    "velocity": 0.5118110236220472,
                    "duration": 0.09363291666664963
                },
                {
                    "name": "F#4",
                    "midi": 66,
                    "time": 374.68147933334217,
                    "velocity": 0.5118110236220472,
                    "duration": 0.09363291666664963
                },
                {
                    "name": "F4",
                    "midi": 65,
                    "time": 374.7563856666755,
                    "velocity": 0.48031496062992124,
                    "duration": 0.0655430416666718
                },
                {
                    "name": "F3",
                    "midi": 53,
                    "time": 374.83129200000883,
                    "velocity": 0.4409448818897638,
                    "duration": 0.22471899999999323
                },
                {
                    "name": "A#3",
                    "midi": 58,
                    "time": 374.8453369375088,
                    "velocity": 0.4409448818897638,
                    "duration": 0.2106740625000043
                },
                {
                    "name": "C#4",
                    "midi": 61,
                    "time": 374.8593818750088,
                    "velocity": 0.4409448818897638,
                    "duration": 0.1966291250000154
                },
                {
                    "name": "F4",
                    "midi": 65,
                    "time": 374.8734268125088,
                    "velocity": 0.4409448818897638,
                    "duration": 0.18258418750002647
                },
                {
                    "name": "D#6",
                    "midi": 87,
                    "time": 375.0560110000088,
                    "velocity": 0.6141732283464567,
                    "duration": 0.22471899999999323
                },
                {
                    "name": "D#5",
                    "midi": 75,
                    "time": 375.0560110000088,
                    "velocity": 0.6141732283464567,
                    "duration": 0.22471899999999323
                },
                {
                    "name": "C#5",
                    "midi": 73,
                    "time": 375.2807300000088,
                    "velocity": 0.6141732283464567,
                    "duration": 0.22471899999999323
                },
                {
                    "name": "C#6",
                    "midi": 85,
                    "time": 375.2807300000088,
                    "velocity": 0.6141732283464567,
                    "duration": 0.22471899999999323
                },
                {
                    "name": "C5",
                    "midi": 72,
                    "time": 375.5054490000088,
                    "velocity": 0.5826771653543307,
                    "duration": 0.22471899999999323
                },
                {
                    "name": "F5",
                    "midi": 77,
                    "time": 375.5194939375088,
                    "velocity": 0.5905511811023622,
                    "duration": 0.2106740625000043
                },
                {
                    "name": "A5",
                    "midi": 81,
                    "time": 375.5335388750088,
                    "velocity": 0.6062992125984252,
                    "duration": 0.1966291250000154
                },
                {
                    "name": "C6",
                    "midi": 84,
                    "time": 375.5475838125088,
                    "velocity": 0.6299212598425197,
                    "duration": 0.18258418750002647
                },
                {
                    "name": "E4",
                    "midi": 64,
                    "time": 375.7301680000088,
                    "velocity": 0.5511811023622047,
                    "duration": 0.11235950000002504
                },
                {
                    "name": "F4",
                    "midi": 65,
                    "time": 375.8425275000088,
                    "velocity": 0.5275590551181102,
                    "duration": 0.11235950000002504
                },
                {
                    "name": "G#4",
                    "midi": 68,
                    "time": 375.95488700000885,
                    "velocity": 0.5511811023622047,
                    "duration": 0.09363291666664963
                },
                {
                    "name": "F#4",
                    "midi": 66,
                    "time": 376.0297933333422,
                    "velocity": 0.5511811023622047,
                    "duration": 0.09363291666664963
                },
                {
                    "name": "F4",
                    "midi": 65,
                    "time": 376.1046996666755,
                    "velocity": 0.5354330708661418,
                    "duration": 0.0655430416666718
                },
                {
                    "name": "F3",
                    "midi": 53,
                    "time": 376.17960600000885,
                    "velocity": 0.4881889763779528,
                    "duration": 0.22471899999999323
                },
                {
                    "name": "A#3",
                    "midi": 58,
                    "time": 376.19365093750883,
                    "velocity": 0.4881889763779528,
                    "duration": 0.2106740625000043
                },
                {
                    "name": "C#4",
                    "midi": 61,
                    "time": 376.2076958750088,
                    "velocity": 0.4881889763779528,
                    "duration": 0.1966291250000154
                },
                {
                    "name": "F4",
                    "midi": 65,
                    "time": 376.2217408125088,
                    "velocity": 0.4881889763779528,
                    "duration": 0.18258418750002647
                },
                {
                    "name": "C6",
                    "midi": 84,
                    "time": 376.40432500000884,
                    "velocity": 0.6062992125984252,
                    "duration": 0.22471899999999323
                },
                {
                    "name": "C5",
                    "midi": 72,
                    "time": 376.40432500000884,
                    "velocity": 0.6062992125984252,
                    "duration": 0.22471899999999323
                },
                {
                    "name": "A#4",
                    "midi": 70,
                    "time": 376.62904400000883,
                    "velocity": 0.6062992125984252,
                    "duration": 0.22471899999999323
                },
                {
                    "name": "A#5",
                    "midi": 82,
                    "time": 376.62904400000883,
                    "velocity": 0.6062992125984252,
                    "duration": 0.22471899999999323
                },
                {
                    "name": "A4",
                    "midi": 69,
                    "time": 376.8537630000088,
                    "velocity": 0.5748031496062992,
                    "duration": 0.22471899999999323
                },
                {
                    "name": "C5",
                    "midi": 72,
                    "time": 376.8678079375088,
                    "velocity": 0.5826771653543307,
                    "duration": 0.2106740625000043
                },
                {
                    "name": "F5",
                    "midi": 77,
                    "time": 376.8818528750088,
                    "velocity": 0.6062992125984252,
                    "duration": 0.1966291250000154
                },
                {
                    "name": "A5",
                    "midi": 81,
                    "time": 376.8958978125088,
                    "velocity": 0.6377952755905512,
                    "duration": 0.18258418750002647
                },
                {
                    "name": "E4",
                    "midi": 64,
                    "time": 377.0784820000088,
                    "velocity": 0.5275590551181102,
                    "duration": 0.11235950000002504
                },
                {
                    "name": "F4",
                    "midi": 65,
                    "time": 377.19084150000884,
                    "velocity": 0.5039370078740157,
                    "duration": 0.11235950000002504
                },
                {
                    "name": "G#4",
                    "midi": 68,
                    "time": 377.30320100000887,
                    "velocity": 0.5275590551181102,
                    "duration": 0.09363291666664963
                },
                {
                    "name": "F#4",
                    "midi": 66,
                    "time": 377.3781073333422,
                    "velocity": 0.5275590551181102,
                    "duration": 0.09363291666664963
                },
                {
                    "name": "F4",
                    "midi": 65,
                    "time": 377.45301366667553,
                    "velocity": 0.5039370078740157,
                    "duration": 0.0655430416666718
                },
                {
                    "name": "F4",
                    "midi": 65,
                    "time": 377.52792000000886,
                    "velocity": 0.6299212598425197,
                    "duration": 0.22471899999999323
                },
                {
                    "name": "C#6",
                    "midi": 85,
                    "time": 377.75263900000886,
                    "velocity": 0.6062992125984252,
                    "duration": 0.22471899999999323
                },
                {
                    "name": "C#5",
                    "midi": 73,
                    "time": 377.75263900000886,
                    "velocity": 0.6062992125984252,
                    "duration": 0.22471899999999323
                },
                {
                    "name": "C5",
                    "midi": 72,
                    "time": 377.97735800000885,
                    "velocity": 0.6141732283464567,
                    "duration": 0.22471899999999323
                },
                {
                    "name": "C6",
                    "midi": 84,
                    "time": 377.97735800000885,
                    "velocity": 0.6141732283464567,
                    "duration": 0.22471899999999323
                },
                {
                    "name": "A4",
                    "midi": 69,
                    "time": 378.20207700000884,
                    "velocity": 0.5826771653543307,
                    "duration": 0.22471899999999323
                },
                {
                    "name": "C5",
                    "midi": 72,
                    "time": 378.21612193750883,
                    "velocity": 0.5905511811023622,
                    "duration": 0.2106740625000043
                },
                {
                    "name": "F5",
                    "midi": 77,
                    "time": 378.2301668750088,
                    "velocity": 0.6141732283464567,
                    "duration": 0.1966291250000154
                },
                {
                    "name": "A5",
                    "midi": 81,
                    "time": 378.2442118125088,
                    "velocity": 0.6535433070866141,
                    "duration": 0.18258418750002647
                },
                {
                    "name": "B3",
                    "midi": 59,
                    "time": 378.42679600000884,
                    "velocity": 0.5511811023622047,
                    "duration": 0.11235950000002504
                },
                {
                    "name": "C4",
                    "midi": 60,
                    "time": 378.53915550000886,
                    "velocity": 0.5196850393700787,
                    "duration": 0.11235950000002504
                },
                {
                    "name": "D#4",
                    "midi": 63,
                    "time": 378.6515150000089,
                    "velocity": 0.5511811023622047,
                    "duration": 0.09363291666664963
                },
                {
                    "name": "C#4",
                    "midi": 61,
                    "time": 378.7264213333422,
                    "velocity": 0.5511811023622047,
                    "duration": 0.09363291666664963
                },
                {
                    "name": "C4",
                    "midi": 60,
                    "time": 378.80132766667555,
                    "velocity": 0.5196850393700787,
                    "duration": 0.0655430416666718
                },
                {
                    "name": "C4",
                    "midi": 60,
                    "time": 378.8762340000089,
                    "velocity": 0.6299212598425197,
                    "duration": 0.22471899999999323
                },
                {
                    "name": "A#4",
                    "midi": 70,
                    "time": 379.1009530000089,
                    "velocity": 0.6141732283464567,
                    "duration": 0.22471899999999323
                },
                {
                    "name": "A4",
                    "midi": 69,
                    "time": 379.32567200000886,
                    "velocity": 0.5905511811023622,
                    "duration": 0.22471899999999323
                },
                {
                    "name": "A4",
                    "midi": 69,
                    "time": 379.55039100000886,
                    "velocity": 0.5118110236220472,
                    "duration": 0.22471899999999323
                },
                {
                    "name": "C5",
                    "midi": 72,
                    "time": 379.56443593750885,
                    "velocity": 0.5275590551181102,
                    "duration": 0.2106740625000043
                },
                {
                    "name": "F5",
                    "midi": 77,
                    "time": 379.57848087500884,
                    "velocity": 0.5590551181102362,
                    "duration": 0.1966291250000154
                },
                {
                    "name": "A5",
                    "midi": 81,
                    "time": 379.5925258125088,
                    "velocity": 0.5590551181102362,
                    "duration": 0.18258418750002647
                },
                {
                    "name": "E4",
                    "midi": 64,
                    "time": 379.77511000000885,
                    "velocity": 0.5511811023622047,
                    "duration": 0.11235950000002504
                },
                {
                    "name": "F4",
                    "midi": 65,
                    "time": 379.8874695000089,
                    "velocity": 0.5275590551181102,
                    "duration": 0.11235950000002504
                },
                {
                    "name": "G#4",
                    "midi": 68,
                    "time": 379.9998290000089,
                    "velocity": 0.5511811023622047,
                    "duration": 0.09363291666664963
                },
                {
                    "name": "F#4",
                    "midi": 66,
                    "time": 380.07473533334223,
                    "velocity": 0.5511811023622047,
                    "duration": 0.09363291666664963
                },
                {
                    "name": "F4",
                    "midi": 65,
                    "time": 380.14964166667556,
                    "velocity": 0.5196850393700787,
                    "duration": 0.0655430416666718
                },
                {
                    "name": "F4",
                    "midi": 65,
                    "time": 380.2245480000089,
                    "velocity": 0.6299212598425197,
                    "duration": 0.22471899999999323
                },
                {
                    "name": "C#6",
                    "midi": 85,
                    "time": 380.4492670000089,
                    "velocity": 0.6062992125984252,
                    "duration": 0.22471899999999323
                },
                {
                    "name": "C#5",
                    "midi": 73,
                    "time": 380.4492670000089,
                    "velocity": 0.6062992125984252,
                    "duration": 0.22471899999999323
                },
                {
                    "name": "C5",
                    "midi": 72,
                    "time": 380.6739860000089,
                    "velocity": 0.6062992125984252,
                    "duration": 0.22471899999999323
                },
                {
                    "name": "C6",
                    "midi": 84,
                    "time": 380.6739860000089,
                    "velocity": 0.6062992125984252,
                    "duration": 0.22471899999999323
                },
                {
                    "name": "A4",
                    "midi": 69,
                    "time": 380.8987050000089,
                    "velocity": 0.5118110236220472,
                    "duration": 0.22471899999999323
                },
                {
                    "name": "C5",
                    "midi": 72,
                    "time": 380.91274993750886,
                    "velocity": 0.5196850393700787,
                    "duration": 0.2106740625000043
                },
                {
                    "name": "F5",
                    "midi": 77,
                    "time": 380.92679487500885,
                    "velocity": 0.5511811023622047,
                    "duration": 0.1966291250000154
                },
                {
                    "name": "A5",
                    "midi": 81,
                    "time": 380.94083981250884,
                    "velocity": 0.5984251968503937,
                    "duration": 0.18258418750002647
                },
                {
                    "name": "B3",
                    "midi": 59,
                    "time": 381.12342400000887,
                    "velocity": 0.5433070866141733,
                    "duration": 0.11235950000002504
                },
                {
                    "name": "C4",
                    "midi": 60,
                    "time": 381.2357835000089,
                    "velocity": 0.5275590551181102,
                    "duration": 0.11235950000002504
                },
                {
                    "name": "D#4",
                    "midi": 63,
                    "time": 381.3481430000089,
                    "velocity": 0.5433070866141733,
                    "duration": 0.09363291666664963
                },
                {
                    "name": "C#4",
                    "midi": 61,
                    "time": 381.42304933334225,
                    "velocity": 0.5433070866141733,
                    "duration": 0.09363291666664963
                },
                {
                    "name": "C4",
                    "midi": 60,
                    "time": 381.4979556666756,
                    "velocity": 0.5196850393700787,
                    "duration": 0.0655430416666718
                },
                {
                    "name": "C4",
                    "midi": 60,
                    "time": 381.5728620000089,
                    "velocity": 0.6141732283464567,
                    "duration": 0.22471899999999323
                },
                {
                    "name": "A#4",
                    "midi": 70,
                    "time": 381.7975810000089,
                    "velocity": 0.6062992125984252,
                    "duration": 0.22471899999999323
                },
                {
                    "name": "A4",
                    "midi": 69,
                    "time": 382.0223000000089,
                    "velocity": 0.5826771653543307,
                    "duration": 0.22471899999999323
                },
                {
                    "name": "A4",
                    "midi": 69,
                    "time": 382.2470190000089,
                    "velocity": 0.4881889763779528,
                    "duration": 0.22471899999999323
                },
                {
                    "name": "C5",
                    "midi": 72,
                    "time": 382.2610639375089,
                    "velocity": 0.49606299212598426,
                    "duration": 0.2106740625000043
                },
                {
                    "name": "F5",
                    "midi": 77,
                    "time": 382.27510887500887,
                    "velocity": 0.5118110236220472,
                    "duration": 0.1966291250000154
                },
                {
                    "name": "A5",
                    "midi": 81,
                    "time": 382.28915381250886,
                    "velocity": 0.5433070866141733,
                    "duration": 0.18258418750002647
                },
                {
                    "name": "B3",
                    "midi": 59,
                    "time": 382.4717380000089,
                    "velocity": 0.5039370078740157,
                    "duration": 0.11235950000002504
                },
                {
                    "name": "C4",
                    "midi": 60,
                    "time": 382.5840975000089,
                    "velocity": 0.4645669291338583,
                    "duration": 0.11235950000002504
                },
                {
                    "name": "D#4",
                    "midi": 63,
                    "time": 382.69645700000893,
                    "velocity": 0.5039370078740157,
                    "duration": 0.09363291666664963
                },
                {
                    "name": "C#4",
                    "midi": 61,
                    "time": 382.77136333334226,
                    "velocity": 0.5039370078740157,
                    "duration": 0.09363291666664963
                },
                {
                    "name": "C4",
                    "midi": 60,
                    "time": 382.8462696666756,
                    "velocity": 0.47244094488188976,
                    "duration": 0.0655430416666718
                },
                {
                    "name": "C4",
                    "midi": 60,
                    "time": 382.9211760000089,
                    "velocity": 0.5669291338582677,
                    "duration": 0.22471899999999323
                },
                {
                    "name": "A#4",
                    "midi": 70,
                    "time": 383.1458950000089,
                    "velocity": 0.5590551181102362,
                    "duration": 0.22471899999999323
                },
                {
                    "name": "A4",
                    "midi": 69,
                    "time": 383.3706140000089,
                    "velocity": 0.5433070866141733,
                    "duration": 0.22471899999999323
                },
                {
                    "name": "A4",
                    "midi": 69,
                    "time": 383.5953330000089,
                    "velocity": 0.4566929133858268,
                    "duration": 0.22471899999999323
                },
                {
                    "name": "C5",
                    "midi": 72,
                    "time": 383.6093779375089,
                    "velocity": 0.4645669291338583,
                    "duration": 0.2106740625000043
                },
                {
                    "name": "F5",
                    "midi": 77,
                    "time": 383.6234228750089,
                    "velocity": 0.48031496062992124,
                    "duration": 0.1966291250000154
                },
                {
                    "name": "A5",
                    "midi": 81,
                    "time": 383.6374678125089,
                    "velocity": 0.49606299212598426,
                    "duration": 0.18258418750002647
                },
                {
                    "name": "B3",
                    "midi": 59,
                    "time": 383.8200520000089,
                    "velocity": 0.4645669291338583,
                    "duration": 0.11235950000002504
                },
                {
                    "name": "C4",
                    "midi": 60,
                    "time": 383.9324115000089,
                    "velocity": 0.4409448818897638,
                    "duration": 0.11235950000002504
                },
                {
                    "name": "D#4",
                    "midi": 63,
                    "time": 384.04477100000895,
                    "velocity": 0.4645669291338583,
                    "duration": 0.09363291666664963
                },
                {
                    "name": "C#4",
                    "midi": 61,
                    "time": 384.1196773333423,
                    "velocity": 0.4645669291338583,
                    "duration": 0.09363291666664963
                },
                {
                    "name": "C4",
                    "midi": 60,
                    "time": 384.1945836666756,
                    "velocity": 0.4330708661417323,
                    "duration": 0.0655430416666718
                },
                {
                    "name": "C4",
                    "midi": 60,
                    "time": 384.26949000000894,
                    "velocity": 0.5275590551181102,
                    "duration": 0.22471899999999323
                },
                {
                    "name": "A#4",
                    "midi": 70,
                    "time": 384.49420900000894,
                    "velocity": 0.5275590551181102,
                    "duration": 0.22471899999999323
                },
                {
                    "name": "A4",
                    "midi": 69,
                    "time": 384.71892800000893,
                    "velocity": 0.5039370078740157,
                    "duration": 0.22471899999999323
                },
                {
                    "name": "A4",
                    "midi": 69,
                    "time": 384.9436470000089,
                    "velocity": 0.4251968503937008,
                    "duration": 0.22471899999999323
                },
                {
                    "name": "C5",
                    "midi": 72,
                    "time": 384.9576919375089,
                    "velocity": 0.4251968503937008,
                    "duration": 0.2106740625000043
                },
                {
                    "name": "F5",
                    "midi": 77,
                    "time": 384.9717368750089,
                    "velocity": 0.4409448818897638,
                    "duration": 0.1966291250000154
                },
                {
                    "name": "A5",
                    "midi": 81,
                    "time": 384.9857818125089,
                    "velocity": 0.4566929133858268,
                    "duration": 0.18258418750002647
                },
                {
                    "name": "B2",
                    "midi": 47,
                    "time": 385.1683660000089,
                    "velocity": 0.41732283464566927,
                    "duration": 0.14044937500000287
                },
                {
                    "name": "C3",
                    "midi": 48,
                    "time": 385.28072550000894,
                    "velocity": 0.4015748031496063,
                    "duration": 0.14044937499994603
                },
                {
                    "name": "D#3",
                    "midi": 51,
                    "time": 385.3930850000089,
                    "velocity": 0.41732283464566927,
                    "duration": 0.09363291666664963
                },
                {
                    "name": "C#3",
                    "midi": 49,
                    "time": 385.46799133334224,
                    "velocity": 0.41732283464566927,
                    "duration": 0.09363291666664963
                },
                {
                    "name": "C3",
                    "midi": 48,
                    "time": 385.5428976666756,
                    "velocity": 0.3858267716535433,
                    "duration": 0.0655430416666718
                },
                {
                    "name": "C3",
                    "midi": 48,
                    "time": 385.6178040000089,
                    "velocity": 0.4645669291338583,
                    "duration": 0.22471899999999323
                },
                {
                    "name": "A#3",
                    "midi": 58,
                    "time": 385.8425230000089,
                    "velocity": 0.4409448818897638,
                    "duration": 0.11235950000002504
                },
                {
                    "name": "A3",
                    "midi": 57,
                    "time": 386.06724200000895,
                    "velocity": 0.4566929133858268,
                    "duration": 0.11235950000002504
                },
                {
                    "name": "F3",
                    "midi": 53,
                    "time": 386.291961000009,
                    "velocity": 0.4881889763779528,
                    "duration": 0.22471899999999323
                },
                {
                    "name": "B2",
                    "midi": 47,
                    "time": 386.516680000009,
                    "velocity": 0.36220472440944884,
                    "duration": 0.14044937500000287
                },
                {
                    "name": "C3",
                    "midi": 48,
                    "time": 386.629039500009,
                    "velocity": 0.33858267716535434,
                    "duration": 0.14044937499994603
                },
                {
                    "name": "D#3",
                    "midi": 51,
                    "time": 386.741399000009,
                    "velocity": 0.36220472440944884,
                    "duration": 0.09363291666664963
                },
                {
                    "name": "C#3",
                    "midi": 49,
                    "time": 386.8163053333423,
                    "velocity": 0.36220472440944884,
                    "duration": 0.09363291666664963
                },
                {
                    "name": "C3",
                    "midi": 48,
                    "time": 386.89121166667564,
                    "velocity": 0.33070866141732286,
                    "duration": 0.0655430416666718
                },
                {
                    "name": "C3",
                    "midi": 48,
                    "time": 386.966118000009,
                    "velocity": 0.4015748031496063,
                    "duration": 0.22471899999999323
                },
                {
                    "name": "A#3",
                    "midi": 58,
                    "time": 387.19083700000897,
                    "velocity": 0.4094488188976378,
                    "duration": 0.11235950000002504
                },
                {
                    "name": "A3",
                    "midi": 57,
                    "time": 387.415556000009,
                    "velocity": 0.4094488188976378,
                    "duration": 0.11235950000002504
                },
                {
                    "name": "F3",
                    "midi": 53,
                    "time": 387.64027500000907,
                    "velocity": 0.4409448818897638,
                    "duration": 0.22471899999999323
                },
                {
                    "name": "B2",
                    "midi": 47,
                    "time": 389.2133080000091,
                    "velocity": 0.3700787401574803,
                    "duration": 0.14044937500000287
                },
                {
                    "name": "C3",
                    "midi": 48,
                    "time": 389.3256675000091,
                    "velocity": 0.3464566929133858,
                    "duration": 0.14044937499994603
                },
                {
                    "name": "D#3",
                    "midi": 51,
                    "time": 389.4380270000091,
                    "velocity": 0.3700787401574803,
                    "duration": 0.09363291666664963
                },
                {
                    "name": "C#3",
                    "midi": 49,
                    "time": 389.5129333333424,
                    "velocity": 0.3700787401574803,
                    "duration": 0.09363291666664963
                },
                {
                    "name": "C3",
                    "midi": 48,
                    "time": 389.58783966667573,
                    "velocity": 0.3464566929133858,
                    "duration": 0.0655430416666718
                },
                {
                    "name": "C3",
                    "midi": 48,
                    "time": 389.66274600000907,
                    "velocity": 0.4330708661417323,
                    "duration": 0.11235950000002504
                },
                {
                    "name": "A#3",
                    "midi": 58,
                    "time": 389.8874650000091,
                    "velocity": 0.4094488188976378,
                    "duration": 0.11235950000002504
                },
                {
                    "name": "A3",
                    "midi": 57,
                    "time": 390.11218400000917,
                    "velocity": 0.3858267716535433,
                    "duration": 0.11235950000002504
                },
                {
                    "name": "F3",
                    "midi": 53,
                    "time": 390.3369030000092,
                    "velocity": 0.4330708661417323,
                    "duration": 0.22471899999999323
                },
                {
                    "name": "A#2",
                    "midi": 46,
                    "time": 391.2357790000092,
                    "velocity": 0.36220472440944884,
                    "duration": 0.22471899999999323
                },
                {
                    "name": "A2",
                    "midi": 45,
                    "time": 391.4604980000092,
                    "velocity": 0.3543307086614173,
                    "duration": 0.22471899999999323
                },
                {
                    "name": "F2",
                    "midi": 41,
                    "time": 391.6852170000092,
                    "velocity": 0.36220472440944884,
                    "duration": 0.6741569999999797
                },
                {
                    "name": "A3",
                    "midi": 57,
                    "time": 393.4829690000091,
                    "velocity": 0.2283464566929134,
                    "duration": 0.07490633333333108
                },
                {
                    "name": "A#3",
                    "midi": 58,
                    "time": 393.55787533334245,
                    "velocity": 0.2440944881889764,
                    "duration": 0.07490633333333108
                },
                {
                    "name": "C#4",
                    "midi": 61,
                    "time": 393.6327816666758,
                    "velocity": 0.25984251968503935,
                    "duration": 0.07490633333333108
                },
                {
                    "name": "F4",
                    "midi": 65,
                    "time": 393.7076880000091,
                    "velocity": 0.29133858267716534,
                    "duration": 0.11235950000002504
                },
                {
                    "name": "A3",
                    "midi": 57,
                    "time": 394.15712600000916,
                    "velocity": 0.2283464566929134,
                    "duration": 0.07490633333333108
                },
                {
                    "name": "A#3",
                    "midi": 58,
                    "time": 394.2320323333425,
                    "velocity": 0.2440944881889764,
                    "duration": 0.07490633333333108
                },
                {
                    "name": "C#4",
                    "midi": 61,
                    "time": 394.3069386666758,
                    "velocity": 0.25196850393700787,
                    "duration": 0.07490633333333108
                },
                {
                    "name": "F4",
                    "midi": 65,
                    "time": 394.38184500000915,
                    "velocity": 0.33858267716535434,
                    "duration": 1.3483140000000162
                },
                {
                    "name": "A#3",
                    "midi": 58,
                    "time": 395.73015900000917,
                    "velocity": 0.7874015748031497,
                    "duration": 0.11235950000002504
                },
                {
                    "name": "A#6",
                    "midi": 94,
                    "time": 396.4043160000092,
                    "velocity": 0.7244094488188977,
                    "duration": 1.3483140000000162
                },
                {
                    "name": "F#6",
                    "midi": 90,
                    "time": 396.4043160000092,
                    "velocity": 0.7244094488188977,
                    "duration": 1.3483140000000162
                },
                {
                    "name": "A#5",
                    "midi": 82,
                    "time": 396.4043160000092,
                    "velocity": 0.6141732283464567,
                    "duration": 1.3483140000000162
                },
                {
                    "name": "D#5",
                    "midi": 75,
                    "time": 397.7526300000092,
                    "velocity": 0.4015748031496063,
                    "duration": 0.33707850000001827
                },
                {
                    "name": "C6",
                    "midi": 84,
                    "time": 397.7526300000092,
                    "velocity": 0.48031496062992124,
                    "duration": 0.33707850000001827
                },
                {
                    "name": "D#6",
                    "midi": 87,
                    "time": 397.7526300000092,
                    "velocity": 0.48031496062992124,
                    "duration": 0.33707850000001827
                },
                {
                    "name": "F5",
                    "midi": 77,
                    "time": 398.08970850000924,
                    "velocity": 0.44881889763779526,
                    "duration": 0.11235950000002504
                },
                {
                    "name": "C6",
                    "midi": 84,
                    "time": 398.08970850000924,
                    "velocity": 0.5354330708661418,
                    "duration": 0.11235950000002504
                },
                {
                    "name": "F6",
                    "midi": 89,
                    "time": 398.08970850000924,
                    "velocity": 0.5354330708661418,
                    "duration": 0.11235950000002504
                },
                {
                    "name": "F#5",
                    "midi": 78,
                    "time": 398.20206800000926,
                    "velocity": 0.47244094488188976,
                    "duration": 0.22471899999999323
                },
                {
                    "name": "C6",
                    "midi": 84,
                    "time": 398.20206800000926,
                    "velocity": 0.5590551181102362,
                    "duration": 0.22471899999999323
                },
                {
                    "name": "F#6",
                    "midi": 90,
                    "time": 398.20206800000926,
                    "velocity": 0.5590551181102362,
                    "duration": 0.22471899999999323
                },
                {
                    "name": "F5",
                    "midi": 77,
                    "time": 398.42678700000926,
                    "velocity": 0.44881889763779526,
                    "duration": 0.22471899999999323
                },
                {
                    "name": "C#6",
                    "midi": 85,
                    "time": 398.42678700000926,
                    "velocity": 0.5354330708661418,
                    "duration": 0.22471899999999323
                },
                {
                    "name": "F6",
                    "midi": 89,
                    "time": 398.42678700000926,
                    "velocity": 0.5354330708661418,
                    "duration": 0.22471899999999323
                },
                {
                    "name": "A3",
                    "midi": 57,
                    "time": 398.87622500000924,
                    "velocity": 0.2125984251968504,
                    "duration": 0.07490633333333108
                },
                {
                    "name": "A#3",
                    "midi": 58,
                    "time": 398.9511313333426,
                    "velocity": 0.2283464566929134,
                    "duration": 0.07490633333333108
                },
                {
                    "name": "C#4",
                    "midi": 61,
                    "time": 399.0260376666759,
                    "velocity": 0.23622047244094488,
                    "duration": 0.07490633333333108
                },
                {
                    "name": "F4",
                    "midi": 65,
                    "time": 399.10094400000924,
                    "velocity": 0.2755905511811024,
                    "duration": 0.11235950000002504
                },
                {
                    "name": "A3",
                    "midi": 57,
                    "time": 399.5503820000093,
                    "velocity": 0.2125984251968504,
                    "duration": 0.07490633333333108
                },
                {
                    "name": "A#3",
                    "midi": 58,
                    "time": 399.6252883333426,
                    "velocity": 0.2283464566929134,
                    "duration": 0.07490633333333108
                },
                {
                    "name": "C#4",
                    "midi": 61,
                    "time": 399.70019466667594,
                    "velocity": 0.23622047244094488,
                    "duration": 0.07490633333333108
                },
                {
                    "name": "F4",
                    "midi": 65,
                    "time": 399.7751010000093,
                    "velocity": 0.30708661417322836,
                    "duration": 1.3483140000000162
                },
                {
                    "name": "G#3",
                    "midi": 56,
                    "time": 401.1234150000093,
                    "velocity": 0.7874015748031497,
                    "duration": 0.11235950000002504
                },
                {
                    "name": "G#6",
                    "midi": 92,
                    "time": 401.7975720000093,
                    "velocity": 0.7086614173228346,
                    "duration": 1.3483140000000162
                },
                {
                    "name": "F6",
                    "midi": 89,
                    "time": 401.7975720000093,
                    "velocity": 0.7086614173228346,
                    "duration": 1.3483140000000162
                },
                {
                    "name": "G#5",
                    "midi": 80,
                    "time": 401.7975720000093,
                    "velocity": 0.5984251968503937,
                    "duration": 1.3483140000000162
                },
                {
                    "name": "D#5",
                    "midi": 75,
                    "time": 403.14588600000934,
                    "velocity": 0.4015748031496063,
                    "duration": 0.33707850000001827
                },
                {
                    "name": "C6",
                    "midi": 84,
                    "time": 403.14588600000934,
                    "velocity": 0.47244094488188976,
                    "duration": 0.33707850000001827
                },
                {
                    "name": "D#6",
                    "midi": 87,
                    "time": 403.14588600000934,
                    "velocity": 0.47244094488188976,
                    "duration": 0.33707850000001827
                },
                {
                    "name": "F5",
                    "midi": 77,
                    "time": 403.48296450000936,
                    "velocity": 0.4330708661417323,
                    "duration": 0.11235950000002504
                },
                {
                    "name": "C6",
                    "midi": 84,
                    "time": 403.48296450000936,
                    "velocity": 0.5118110236220472,
                    "duration": 0.11235950000002504
                },
                {
                    "name": "F6",
                    "midi": 89,
                    "time": 403.48296450000936,
                    "velocity": 0.5118110236220472,
                    "duration": 0.11235950000002504
                },
                {
                    "name": "F#5",
                    "midi": 78,
                    "time": 403.5953240000094,
                    "velocity": 0.4645669291338583,
                    "duration": 0.22471899999999323
                },
                {
                    "name": "C6",
                    "midi": 84,
                    "time": 403.5953240000094,
                    "velocity": 0.5511811023622047,
                    "duration": 0.22471899999999323
                },
                {
                    "name": "F#6",
                    "midi": 90,
                    "time": 403.5953240000094,
                    "velocity": 0.5511811023622047,
                    "duration": 0.22471899999999323
                },
                {
                    "name": "F5",
                    "midi": 77,
                    "time": 403.8200430000094,
                    "velocity": 0.4409448818897638,
                    "duration": 0.22471899999999323
                },
                {
                    "name": "C#6",
                    "midi": 85,
                    "time": 403.8200430000094,
                    "velocity": 0.5275590551181102,
                    "duration": 0.22471899999999323
                },
                {
                    "name": "F6",
                    "midi": 89,
                    "time": 403.8200430000094,
                    "velocity": 0.5275590551181102,
                    "duration": 0.22471899999999323
                },
                {
                    "name": "A4",
                    "midi": 69,
                    "time": 404.49420000000936,
                    "velocity": 0.6377952755905512,
                    "duration": 0.44943799999998646
                },
                {
                    "name": "F5",
                    "midi": 77,
                    "time": 404.49420000000936,
                    "velocity": 0.6377952755905512,
                    "duration": 0.44943799999998646
                },
                {
                    "name": "A3",
                    "midi": 57,
                    "time": 405.16835700000934,
                    "velocity": 0.6377952755905512,
                    "duration": 0.44943799999998646
                },
                {
                    "name": "F4",
                    "midi": 65,
                    "time": 405.16835700000934,
                    "velocity": 0.6377952755905512,
                    "duration": 0.44943799999998646
                },
                {
                    "name": "A3",
                    "midi": 57,
                    "time": 409.6627370000093,
                    "velocity": 0.2125984251968504,
                    "duration": 0.07490633333333108
                },
                {
                    "name": "A#3",
                    "midi": 58,
                    "time": 409.73764333334265,
                    "velocity": 0.2283464566929134,
                    "duration": 0.07490633333333108
                },
                {
                    "name": "C#4",
                    "midi": 61,
                    "time": 409.812549666676,
                    "velocity": 0.23622047244094488,
                    "duration": 0.07490633333333108
                },
                {
                    "name": "F4",
                    "midi": 65,
                    "time": 409.8874560000093,
                    "velocity": 0.2677165354330709,
                    "duration": 0.11235950000002504
                },
                {
                    "name": "A3",
                    "midi": 57,
                    "time": 410.33689400000935,
                    "velocity": 0.2283464566929134,
                    "duration": 0.07490633333333108
                },
                {
                    "name": "A#3",
                    "midi": 58,
                    "time": 410.4118003333427,
                    "velocity": 0.23622047244094488,
                    "duration": 0.07490633333333108
                },
                {
                    "name": "C#4",
                    "midi": 61,
                    "time": 410.486706666676,
                    "velocity": 0.2440944881889764,
                    "duration": 0.07490633333333108
                },
                {
                    "name": "F4",
                    "midi": 65,
                    "time": 410.56161300000934,
                    "velocity": 0.30708661417322836,
                    "duration": 1.3483140000000162
                },
                {
                    "name": "A#3",
                    "midi": 58,
                    "time": 411.90992700000936,
                    "velocity": 0.7874015748031497,
                    "duration": 0.11235950000002504
                },
                {
                    "name": "A#5",
                    "midi": 82,
                    "time": 412.5840840000094,
                    "velocity": 0.6141732283464567,
                    "duration": 1.011235499999998
                },
                {
                    "name": "F#6",
                    "midi": 90,
                    "time": 412.5840840000094,
                    "velocity": 0.7244094488188977,
                    "duration": 1.011235499999998
                },
                {
                    "name": "A#6",
                    "midi": 94,
                    "time": 412.5840840000094,
                    "velocity": 0.7244094488188977,
                    "duration": 1.011235499999998
                },
                {
                    "name": "D#6",
                    "midi": 87,
                    "time": 413.5953195000094,
                    "velocity": 0.4566929133858268,
                    "duration": 0.11235950000002504
                },
                {
                    "name": "C6",
                    "midi": 84,
                    "time": 413.5953195000094,
                    "velocity": 0.4566929133858268,
                    "duration": 0.11235950000002504
                },
                {
                    "name": "D#5",
                    "midi": 75,
                    "time": 413.5953195000094,
                    "velocity": 0.3858267716535433,
                    "duration": 0.11235950000002504
                },
                {
                    "name": "D#6",
                    "midi": 87,
                    "time": 413.7076790000094,
                    "velocity": 0.4566929133858268,
                    "duration": 0.22471899999999323
                },
                {
                    "name": "C6",
                    "midi": 84,
                    "time": 413.7076790000094,
                    "velocity": 0.4566929133858268,
                    "duration": 0.22471899999999323
                },
                {
                    "name": "D#5",
                    "midi": 75,
                    "time": 413.7076790000094,
                    "velocity": 0.3858267716535433,
                    "duration": 0.22471899999999323
                },
                {
                    "name": "D#5",
                    "midi": 75,
                    "time": 413.9323980000094,
                    "velocity": 0.4015748031496063,
                    "duration": 0.33707850000001827
                },
                {
                    "name": "C6",
                    "midi": 84,
                    "time": 413.9323980000094,
                    "velocity": 0.48031496062992124,
                    "duration": 0.33707850000001827
                },
                {
                    "name": "D#6",
                    "midi": 87,
                    "time": 413.9323980000094,
                    "velocity": 0.48031496062992124,
                    "duration": 0.33707850000001827
                },
                {
                    "name": "C6",
                    "midi": 84,
                    "time": 414.26947650000943,
                    "velocity": 0.5354330708661418,
                    "duration": 0.11235950000002504
                },
                {
                    "name": "F6",
                    "midi": 89,
                    "time": 414.26947650000943,
                    "velocity": 0.5354330708661418,
                    "duration": 0.11235950000002504
                },
                {
                    "name": "F5",
                    "midi": 77,
                    "time": 414.26947650000943,
                    "velocity": 0.44881889763779526,
                    "duration": 0.11235950000002504
                },
                {
                    "name": "C6",
                    "midi": 84,
                    "time": 414.38183600000946,
                    "velocity": 0.5590551181102362,
                    "duration": 0.22471899999999323
                },
                {
                    "name": "F#5",
                    "midi": 78,
                    "time": 414.38183600000946,
                    "velocity": 0.47244094488188976,
                    "duration": 0.22471899999999323
                },
                {
                    "name": "F#6",
                    "midi": 90,
                    "time": 414.38183600000946,
                    "velocity": 0.5590551181102362,
                    "duration": 0.22471899999999323
                },
                {
                    "name": "C#6",
                    "midi": 85,
                    "time": 414.60655500000945,
                    "velocity": 0.5354330708661418,
                    "duration": 0.22471899999999323
                },
                {
                    "name": "F5",
                    "midi": 77,
                    "time": 414.60655500000945,
                    "velocity": 0.44881889763779526,
                    "duration": 0.22471899999999323
                },
                {
                    "name": "F6",
                    "midi": 89,
                    "time": 414.60655500000945,
                    "velocity": 0.5354330708661418,
                    "duration": 0.22471899999999323
                },
                {
                    "name": "A3",
                    "midi": 57,
                    "time": 415.05599300000944,
                    "velocity": 0.2283464566929134,
                    "duration": 0.07490633333333108
                },
                {
                    "name": "A#3",
                    "midi": 58,
                    "time": 415.13089933334277,
                    "velocity": 0.23622047244094488,
                    "duration": 0.07490633333333108
                },
                {
                    "name": "C#4",
                    "midi": 61,
                    "time": 415.2058056666761,
                    "velocity": 0.25196850393700787,
                    "duration": 0.07490633333333108
                },
                {
                    "name": "F4",
                    "midi": 65,
                    "time": 415.28071200000943,
                    "velocity": 0.29133858267716534,
                    "duration": 0.11235950000002504
                },
                {
                    "name": "A3",
                    "midi": 57,
                    "time": 415.7301500000095,
                    "velocity": 0.2283464566929134,
                    "duration": 0.07490633333333108
                },
                {
                    "name": "A#3",
                    "midi": 58,
                    "time": 415.8050563333428,
                    "velocity": 0.23622047244094488,
                    "duration": 0.07490633333333108
                },
                {
                    "name": "C#4",
                    "midi": 61,
                    "time": 415.87996266667614,
                    "velocity": 0.25196850393700787,
                    "duration": 0.07490633333333108
                },
                {
                    "name": "F4",
                    "midi": 65,
                    "time": 415.95486900000947,
                    "velocity": 0.30708661417322836,
                    "duration": 1.3483140000000162
                },
                {
                    "name": "C3",
                    "midi": 48,
                    "time": 417.3031830000095,
                    "velocity": 0.7874015748031497,
                    "duration": 0.11235950000002504
                },
                {
                    "name": "C6",
                    "midi": 84,
                    "time": 417.9773400000095,
                    "velocity": 0.5984251968503937,
                    "duration": 1.3483140000000162
                },
                {
                    "name": "G#6",
                    "midi": 92,
                    "time": 417.9773400000095,
                    "velocity": 0.7086614173228346,
                    "duration": 1.3483140000000162
                },
                {
                    "name": "C7",
                    "midi": 96,
                    "time": 417.9773400000095,
                    "velocity": 0.7086614173228346,
                    "duration": 1.3483140000000162
                },
                {
                    "name": "G6",
                    "midi": 91,
                    "time": 419.32565400000954,
                    "velocity": 0.47244094488188976,
                    "duration": 0.33707850000001827
                },
                {
                    "name": "E6",
                    "midi": 88,
                    "time": 419.32565400000954,
                    "velocity": 0.47244094488188976,
                    "duration": 0.33707850000001827
                },
                {
                    "name": "G5",
                    "midi": 79,
                    "time": 419.32565400000954,
                    "velocity": 0.4015748031496063,
                    "duration": 0.33707850000001827
                },
                {
                    "name": "G#5",
                    "midi": 80,
                    "time": 419.66273250000955,
                    "velocity": 0.4330708661417323,
                    "duration": 0.11235950000002504
                },
                {
                    "name": "E6",
                    "midi": 88,
                    "time": 419.66273250000955,
                    "velocity": 0.5118110236220472,
                    "duration": 0.11235950000002504
                },
                {
                    "name": "G#6",
                    "midi": 92,
                    "time": 419.66273250000955,
                    "velocity": 0.5118110236220472,
                    "duration": 0.11235950000002504
                },
                {
                    "name": "A#5",
                    "midi": 82,
                    "time": 419.7750920000096,
                    "velocity": 0.4645669291338583,
                    "duration": 0.22471899999999323
                },
                {
                    "name": "E6",
                    "midi": 88,
                    "time": 419.7750920000096,
                    "velocity": 0.5511811023622047,
                    "duration": 0.22471899999999323
                },
                {
                    "name": "A#6",
                    "midi": 94,
                    "time": 419.7750920000096,
                    "velocity": 0.5511811023622047,
                    "duration": 0.22471899999999323
                },
                {
                    "name": "G#6",
                    "midi": 92,
                    "time": 419.9998110000096,
                    "velocity": 0.5275590551181102,
                    "duration": 0.22471899999999323
                },
                {
                    "name": "F6",
                    "midi": 89,
                    "time": 419.9998110000096,
                    "velocity": 0.5275590551181102,
                    "duration": 0.22471899999999323
                },
                {
                    "name": "G#5",
                    "midi": 80,
                    "time": 419.9998110000096,
                    "velocity": 0.4409448818897638,
                    "duration": 0.22471899999999323
                },
                {
                    "name": "C5",
                    "midi": 72,
                    "time": 420.67396800000955,
                    "velocity": 0.6377952755905512,
                    "duration": 0.44943799999998646
                },
                {
                    "name": "G#5",
                    "midi": 80,
                    "time": 420.67396800000955,
                    "velocity": 0.6377952755905512,
                    "duration": 0.44943799999998646
                },
                {
                    "name": "G#4",
                    "midi": 68,
                    "time": 420.67396800000955,
                    "velocity": 0.5354330708661418,
                    "duration": 0.44943799999998646
                },
                {
                    "name": "F5",
                    "midi": 77,
                    "time": 420.67396800000955,
                    "velocity": 0.6377952755905512,
                    "duration": 0.44943799999998646
                },
                {
                    "name": "C4",
                    "midi": 60,
                    "time": 421.34812500000953,
                    "velocity": 0.6377952755905512,
                    "duration": 0.44943799999998646
                },
                {
                    "name": "G#4",
                    "midi": 68,
                    "time": 421.34812500000953,
                    "velocity": 0.6377952755905512,
                    "duration": 0.44943799999998646
                },
                {
                    "name": "G#3",
                    "midi": 56,
                    "time": 421.34812500000953,
                    "velocity": 0.5354330708661418,
                    "duration": 0.44943799999998646
                },
                {
                    "name": "F4",
                    "midi": 65,
                    "time": 421.34812500000953,
                    "velocity": 0.6377952755905512,
                    "duration": 0.44943799999998646
                },
                {
                    "name": "F2",
                    "midi": 41,
                    "time": 423.3705960000095,
                    "velocity": 0.7401574803149606,
                    "duration": 0.6741569999999797
                },
                {
                    "name": "D2",
                    "midi": 38,
                    "time": 424.0447530000095,
                    "velocity": 0.3937007874015748,
                    "duration": 0.08426962499999036
                },
                {
                    "name": "D#2",
                    "midi": 39,
                    "time": 424.11965933334284,
                    "velocity": 0.4015748031496063,
                    "duration": 0.08426962499999036
                },
                {
                    "name": "F2",
                    "midi": 41,
                    "time": 424.19456566667617,
                    "velocity": 0.4015748031496063,
                    "duration": 0.08426962499999036
                },
                {
                    "name": "D#2",
                    "midi": 39,
                    "time": 424.2694720000095,
                    "velocity": 0.4094488188976378,
                    "duration": 0.07490633333333108
                },
                {
                    "name": "F2",
                    "midi": 41,
                    "time": 424.34437833334283,
                    "velocity": 0.41732283464566927,
                    "duration": 0.08426962499999036
                },
                {
                    "name": "D#2",
                    "midi": 39,
                    "time": 424.41928466667616,
                    "velocity": 0.4330708661417323,
                    "duration": 0.08426962499999036
                },
                {
                    "name": "F2",
                    "midi": 41,
                    "time": 424.49138201250946,
                    "velocity": 0.4409448818897638,
                    "duration": 0.0842696250000472
                },
                {
                    "name": "D#2",
                    "midi": 39,
                    "time": 424.5690973333428,
                    "velocity": 0.4409448818897638,
                    "duration": 0.08426962499999036
                },
                {
                    "name": "F2",
                    "midi": 41,
                    "time": 424.64400366667616,
                    "velocity": 0.44881889763779526,
                    "duration": 0.08426962499999036
                },
                {
                    "name": "D#2",
                    "midi": 39,
                    "time": 424.7189100000095,
                    "velocity": 0.4566929133858268,
                    "duration": 0.0655430416666718
                },
                {
                    "name": "F2",
                    "midi": 41,
                    "time": 424.7750897500095,
                    "velocity": 0.4645669291338583,
                    "duration": 0.0655430416666718
                },
                {
                    "name": "D#2",
                    "midi": 39,
                    "time": 424.8312695000095,
                    "velocity": 0.47244094488188976,
                    "duration": 0.0655430416666718
                },
                {
                    "name": "F2",
                    "midi": 41,
                    "time": 424.8874492500095,
                    "velocity": 0.48031496062992124,
                    "duration": 0.0655430416666718
                },
                {
                    "name": "D#2",
                    "midi": 39,
                    "time": 424.9408200125095,
                    "velocity": 0.4881889763779528,
                    "duration": 0.05617975000001252
                },
                {
                    "name": "F2",
                    "midi": 41,
                    "time": 424.9998087500095,
                    "velocity": 0.4881889763779528,
                    "duration": 0.0655430416666718
                },
                {
                    "name": "D#2",
                    "midi": 39,
                    "time": 425.0559885000095,
                    "velocity": 0.4881889763779528,
                    "duration": 0.0655430416666718
                },
                {
                    "name": "F2",
                    "midi": 41,
                    "time": 425.1121682500095,
                    "velocity": 0.49606299212598426,
                    "duration": 0.0655430416666718
                },
                {
                    "name": "D#2",
                    "midi": 39,
                    "time": 425.16834800000953,
                    "velocity": 0.5039370078740157,
                    "duration": 0.08426962499999036
                },
                {
                    "name": "D2",
                    "midi": 38,
                    "time": 425.24325433334286,
                    "velocity": 0.5748031496062992,
                    "duration": 0.08426962499999036
                },
                {
                    "name": "D#2",
                    "midi": 39,
                    "time": 425.3181606666762,
                    "velocity": 0.5748031496062992,
                    "duration": 0.08426962499999036
                },
                {
                    "name": "F7",
                    "midi": 101,
                    "time": 425.3930670000095,
                    "velocity": 0.7637795275590551,
                    "duration": 0.8988759999999729
                },
                {
                    "name": "D#7",
                    "midi": 99,
                    "time": 426.2919430000095,
                    "velocity": 0.5354330708661418,
                    "duration": 0.11235950000002504
                },
                {
                    "name": "C#7",
                    "midi": 97,
                    "time": 426.4043025000095,
                    "velocity": 0.4881889763779528,
                    "duration": 0.11235950000002504
                },
                {
                    "name": "G#6",
                    "midi": 92,
                    "time": 426.51666200000955,
                    "velocity": 0.5118110236220472,
                    "duration": 0.11235950000002504
                },
                {
                    "name": "F6",
                    "midi": 89,
                    "time": 426.62902150000957,
                    "velocity": 0.47244094488188976,
                    "duration": 0.11235950000002504
                },
                {
                    "name": "D#6",
                    "midi": 87,
                    "time": 426.7413810000096,
                    "velocity": 0.4881889763779528,
                    "duration": 0.11235950000002504
                },
                {
                    "name": "C#6",
                    "midi": 85,
                    "time": 426.8537405000096,
                    "velocity": 0.44881889763779526,
                    "duration": 0.11235950000002504
                },
                {
                    "name": "G#5",
                    "midi": 80,
                    "time": 426.96610000000965,
                    "velocity": 0.4566929133858268,
                    "duration": 0.11235950000002504
                },
                {
                    "name": "F5",
                    "midi": 77,
                    "time": 427.07845950000967,
                    "velocity": 0.4094488188976378,
                    "duration": 0.11235950000002504
                },
                {
                    "name": "D#5",
                    "midi": 75,
                    "time": 427.1908190000097,
                    "velocity": 0.4330708661417323,
                    "duration": 0.11235950000002504
                },
                {
                    "name": "C#5",
                    "midi": 73,
                    "time": 427.3031785000097,
                    "velocity": 0.4015748031496063,
                    "duration": 0.11235950000002504
                },
                {
                    "name": "G#4",
                    "midi": 68,
                    "time": 427.41553800000975,
                    "velocity": 0.4094488188976378,
                    "duration": 0.22471899999999323
                },
                {
                    "name": "C5",
                    "midi": 72,
                    "time": 428.0896950000097,
                    "velocity": 0.4330708661417323,
                    "duration": 0.11235950000002504
                },
                {
                    "name": "C#5",
                    "midi": 73,
                    "time": 428.20205450000975,
                    "velocity": 0.4094488188976378,
                    "duration": 0.11235950000002504
                },
                {
                    "name": "D#5",
                    "midi": 75,
                    "time": 428.3144140000098,
                    "velocity": 0.3937007874015748,
                    "duration": 0.11235950000002504
                },
                {
                    "name": "F5",
                    "midi": 77,
                    "time": 428.4267735000098,
                    "velocity": 0.3700787401574803,
                    "duration": 0.11235950000002504
                },
                {
                    "name": "F#5",
                    "midi": 78,
                    "time": 428.5391330000098,
                    "velocity": 0.3543307086614173,
                    "duration": 0.11235950000002504
                },
                {
                    "name": "G#5",
                    "midi": 80,
                    "time": 428.64493819584317,
                    "velocity": 0.33070866141732286,
                    "duration": 0.11235950000002504
                },
                {
                    "name": "A5",
                    "midi": 81,
                    "time": 428.7638520000099,
                    "velocity": 0.31496062992125984,
                    "duration": 0.11235950000002504
                },
                {
                    "name": "A5",
                    "midi": 81,
                    "time": 429.4380090000099,
                    "velocity": 0.3937007874015748,
                    "duration": 0.11235950000002504
                },
                {
                    "name": "G#5",
                    "midi": 80,
                    "time": 429.55036850000994,
                    "velocity": 0.3858267716535433,
                    "duration": 0.11235950000002504
                },
                {
                    "name": "G5",
                    "midi": 79,
                    "time": 429.66272800000996,
                    "velocity": 0.3700787401574803,
                    "duration": 0.11235950000002504
                },
                {
                    "name": "F#5",
                    "midi": 78,
                    "time": 429.77508750001,
                    "velocity": 0.36220472440944884,
                    "duration": 0.11235950000002504
                },
                {
                    "name": "F5",
                    "midi": 77,
                    "time": 429.88744700001,
                    "velocity": 0.3464566929133858,
                    "duration": 0.11235950000002504
                },
                {
                    "name": "E5",
                    "midi": 76,
                    "time": 429.99980650001004,
                    "velocity": 0.33070866141732286,
                    "duration": 0.11235950000002504
                },
                {
                    "name": "D#5",
                    "midi": 75,
                    "time": 430.11216600001006,
                    "velocity": 0.3228346456692913,
                    "duration": 0.11235950000002504
                },
                {
                    "name": "F7",
                    "midi": 101,
                    "time": 430.7863230000101,
                    "velocity": 0.7637795275590551,
                    "duration": 0.8988759999999729
                },
                {
                    "name": "D#7",
                    "midi": 99,
                    "time": 431.6851990000101,
                    "velocity": 0.5354330708661418,
                    "duration": 0.11235950000002504
                },
                {
                    "name": "C#7",
                    "midi": 97,
                    "time": 431.7975585000101,
                    "velocity": 0.48031496062992124,
                    "duration": 0.11235950000002504
                },
                {
                    "name": "G#6",
                    "midi": 92,
                    "time": 431.9099180000101,
                    "velocity": 0.5118110236220472,
                    "duration": 0.11235950000002504
                },
                {
                    "name": "F6",
                    "midi": 89,
                    "time": 432.02227750001015,
                    "velocity": 0.4645669291338583,
                    "duration": 0.11235950000002504
                },
                {
                    "name": "D#6",
                    "midi": 87,
                    "time": 432.1346370000102,
                    "velocity": 0.4881889763779528,
                    "duration": 0.11235950000002504
                },
                {
                    "name": "C#6",
                    "midi": 85,
                    "time": 432.2469965000102,
                    "velocity": 0.44881889763779526,
                    "duration": 0.11235950000002504
                },
                {
                    "name": "G#5",
                    "midi": 80,
                    "time": 432.3593560000102,
                    "velocity": 0.4566929133858268,
                    "duration": 0.11235950000002504
                },
                {
                    "name": "F5",
                    "midi": 77,
                    "time": 432.47171550001025,
                    "velocity": 0.44881889763779526,
                    "duration": 0.11235950000002504
                },
                {
                    "name": "D#5",
                    "midi": 75,
                    "time": 432.5840750000103,
                    "velocity": 0.4330708661417323,
                    "duration": 0.11235950000002504
                },
                {
                    "name": "C#5",
                    "midi": 73,
                    "time": 432.6964345000103,
                    "velocity": 0.4015748031496063,
                    "duration": 0.11235950000002504
                },
                {
                    "name": "G#4",
                    "midi": 68,
                    "time": 432.8087940000103,
                    "velocity": 0.4094488188976378,
                    "duration": 0.22471899999999323
                },
                {
                    "name": "C5",
                    "midi": 72,
                    "time": 433.4829510000103,
                    "velocity": 0.33070866141732286,
                    "duration": 0.11235950000002504
                },
                {
                    "name": "C#5",
                    "midi": 73,
                    "time": 433.5953105000103,
                    "velocity": 0.3228346456692913,
                    "duration": 0.11235950000002504
                },
                {
                    "name": "D#5",
                    "midi": 75,
                    "time": 433.70767000001035,
                    "velocity": 0.3228346456692913,
                    "duration": 0.11235950000002504
                },
                {
                    "name": "F5",
                    "midi": 77,
                    "time": 433.8200295000104,
                    "velocity": 0.31496062992125984,
                    "duration": 0.11235950000002504
                },
                {
                    "name": "F#5",
                    "midi": 78,
                    "time": 433.9323890000104,
                    "velocity": 0.30708661417322836,
                    "duration": 0.11235950000002504
                },
                {
                    "name": "G#5",
                    "midi": 80,
                    "time": 434.03819419584374,
                    "velocity": 0.2992125984251969,
                    "duration": 0.11235950000002504
                },
                {
                    "name": "A5",
                    "midi": 81,
                    "time": 434.15710800001045,
                    "velocity": 0.29133858267716534,
                    "duration": 0.11235950000002504
                },
                {
                    "name": "A5",
                    "midi": 81,
                    "time": 434.8312650000105,
                    "velocity": 0.33070866141732286,
                    "duration": 0.11235950000002504
                },
                {
                    "name": "G#5",
                    "midi": 80,
                    "time": 434.9436245000105,
                    "velocity": 0.3228346456692913,
                    "duration": 0.11235950000002504
                },
                {
                    "name": "G5",
                    "midi": 79,
                    "time": 435.05598400001054,
                    "velocity": 0.31496062992125984,
                    "duration": 0.11235950000002504
                },
                {
                    "name": "F#5",
                    "midi": 78,
                    "time": 435.16834350001056,
                    "velocity": 0.30708661417322836,
                    "duration": 0.11235950000002504
                },
                {
                    "name": "F5",
                    "midi": 77,
                    "time": 435.2807030000106,
                    "velocity": 0.29133858267716534,
                    "duration": 0.11235950000002504
                },
                {
                    "name": "E5",
                    "midi": 76,
                    "time": 435.3930625000106,
                    "velocity": 0.28346456692913385,
                    "duration": 0.11235950000002504
                },
                {
                    "name": "D#5",
                    "midi": 75,
                    "time": 435.50542200001064,
                    "velocity": 0.2755905511811024,
                    "duration": 0.22471899999999323
                },
                {
                    "name": "B4",
                    "midi": 71,
                    "time": 436.1795790000106,
                    "velocity": 0.31496062992125984,
                    "duration": 1.3483139999999594
                },
                {
                    "name": "F5",
                    "midi": 77,
                    "time": 436.1795790000106,
                    "velocity": 0.4645669291338583,
                    "duration": 0.8988759999999729
                },
                {
                    "name": "D#5",
                    "midi": 75,
                    "time": 437.0784550000106,
                    "velocity": 0.41732283464566927,
                    "duration": 0.33707850000001827
                },
                {
                    "name": "C#5",
                    "midi": 73,
                    "time": 437.4155335000106,
                    "velocity": 0.4094488188976378,
                    "duration": 0.10299620833330891
                },
                {
                    "name": "B4",
                    "midi": 71,
                    "time": 437.5278930000106,
                    "velocity": 0.2992125984251969,
                    "duration": 0.6741569999999797
                },
                {
                    "name": "C#5",
                    "midi": 73,
                    "time": 437.5278930000106,
                    "velocity": 0.4409448818897638,
                    "duration": 0.6741569999999797
                },
                {
                    "name": "A#4",
                    "midi": 70,
                    "time": 438.20205000001056,
                    "velocity": 0.4409448818897638,
                    "duration": 0.6741569999999797
                },
                {
                    "name": "F#5",
                    "midi": 78,
                    "time": 438.20205000001056,
                    "velocity": 0.4409448818897638,
                    "duration": 1.1235949999999661
                },
                {
                    "name": "B4",
                    "midi": 71,
                    "time": 438.87620700001054,
                    "velocity": 0.3937007874015748,
                    "duration": 1.3483139999999594
                },
                {
                    "name": "F5",
                    "midi": 77,
                    "time": 439.3256450000105,
                    "velocity": 0.4094488188976378,
                    "duration": 0.21535570833333395
                },
                {
                    "name": "F5",
                    "midi": 77,
                    "time": 439.5503640000105,
                    "velocity": 0.4015748031496063,
                    "duration": 0.22471899999999323
                },
                {
                    "name": "D#5",
                    "midi": 75,
                    "time": 439.7750830000105,
                    "velocity": 0.3937007874015748,
                    "duration": 0.22471899999999323
                },
                {
                    "name": "C#5",
                    "midi": 73,
                    "time": 439.9998020000105,
                    "velocity": 0.3858267716535433,
                    "duration": 0.22471899999999323
                },
                {
                    "name": "A#4",
                    "midi": 70,
                    "time": 440.2245210000105,
                    "velocity": 0.3464566929133858,
                    "duration": 0.6741569999999797
                },
                {
                    "name": "C#5",
                    "midi": 73,
                    "time": 440.2245210000105,
                    "velocity": 0.3464566929133858,
                    "duration": 0.6741569999999797
                },
                {
                    "name": "A#5",
                    "midi": 82,
                    "time": 440.2245210000105,
                    "velocity": 0.4409448818897638,
                    "duration": 0.6741569999999797
                },
                {
                    "name": "G#4",
                    "midi": 68,
                    "time": 440.8986780000105,
                    "velocity": 0.3464566929133858,
                    "duration": 0.6741569999999797
                },
                {
                    "name": "C#5",
                    "midi": 73,
                    "time": 440.8986780000105,
                    "velocity": 0.3464566929133858,
                    "duration": 0.6741569999999797
                },
                {
                    "name": "A#5",
                    "midi": 82,
                    "time": 440.8986780000105,
                    "velocity": 0.4881889763779528,
                    "duration": 0.44943799999998646
                },
                {
                    "name": "A#5",
                    "midi": 82,
                    "time": 441.34811600001046,
                    "velocity": 0.5039370078740157,
                    "duration": 0.22471899999999323
                },
                {
                    "name": "G4",
                    "midi": 67,
                    "time": 441.51665525001044,
                    "velocity": 0.3464566929133858,
                    "duration": 0.05617975000001252
                },
                {
                    "name": "C#5",
                    "midi": 73,
                    "time": 441.57283500001046,
                    "velocity": 0.3543307086614173,
                    "duration": 1.3483139999999594
                },
                {
                    "name": "A#5",
                    "midi": 82,
                    "time": 441.57283500001046,
                    "velocity": 0.5354330708661418,
                    "duration": 0.44943799999998646
                },
                {
                    "name": "D#5",
                    "midi": 75,
                    "time": 442.02227300001044,
                    "velocity": 0.44881889763779526,
                    "duration": 0.22471899999999323
                },
                {
                    "name": "D#5",
                    "midi": 75,
                    "time": 442.24699200001044,
                    "velocity": 0.44881889763779526,
                    "duration": 0.22471899999999323
                },
                {
                    "name": "F5",
                    "midi": 77,
                    "time": 442.47171100001043,
                    "velocity": 0.4015748031496063,
                    "duration": 0.05617975000001252
                },
                {
                    "name": "G5",
                    "midi": 79,
                    "time": 442.52789075001044,
                    "velocity": 0.4015748031496063,
                    "duration": 0.05617975000001252
                },
                {
                    "name": "F5",
                    "midi": 77,
                    "time": 442.58407050001045,
                    "velocity": 0.4409448818897638,
                    "duration": 0.22471899999999323
                },
                {
                    "name": "D#5",
                    "midi": 75,
                    "time": 442.80878950001045,
                    "velocity": 0.4409448818897638,
                    "duration": 0.10299620833330891
                },
                {
                    "name": "C#5",
                    "midi": 73,
                    "time": 442.9211490000104,
                    "velocity": 0.3858267716535433,
                    "duration": 0.6741569999999797
                },
                {
                    "name": "D#5",
                    "midi": 75,
                    "time": 442.9211490000104,
                    "velocity": 0.4645669291338583,
                    "duration": 0.6741569999999797
                },
                {
                    "name": "C5",
                    "midi": 72,
                    "time": 443.5953060000104,
                    "velocity": 0.41732283464566927,
                    "duration": 0.6741569999999797
                },
                {
                    "name": "G#5",
                    "midi": 80,
                    "time": 443.5953060000104,
                    "velocity": 0.5039370078740157,
                    "duration": 0.8988759999999729
                },
                {
                    "name": "C#5",
                    "midi": 73,
                    "time": 444.2694630000104,
                    "velocity": 0.4330708661417323,
                    "duration": 1.3483140000000162
                },
                {
                    "name": "G5",
                    "midi": 79,
                    "time": 444.49418200001037,
                    "velocity": 0.47244094488188976,
                    "duration": 0.22471899999999323
                },
                {
                    "name": "F5",
                    "midi": 77,
                    "time": 444.71890100001036,
                    "velocity": 0.4645669291338583,
                    "duration": 0.22471899999999323
                },
                {
                    "name": "G5",
                    "midi": 79,
                    "time": 444.94362000001036,
                    "velocity": 0.47244094488188976,
                    "duration": 0.22471899999999323
                },
                {
                    "name": "F5",
                    "midi": 77,
                    "time": 445.16833900001035,
                    "velocity": 0.4645669291338583,
                    "duration": 0.33707850000001827
                },
                {
                    "name": "D#5",
                    "midi": 75,
                    "time": 445.50541750001037,
                    "velocity": 0.4409448818897638,
                    "duration": 0.11235950000002504
                },
                {
                    "name": "C5",
                    "midi": 72,
                    "time": 445.6177770000104,
                    "velocity": 0.4409448818897638,
                    "duration": 1.3483139999999594
                },
                {
                    "name": "C6",
                    "midi": 84,
                    "time": 445.6177770000104,
                    "velocity": 0.4409448818897638,
                    "duration": 0.6741569999999797
                },
                {
                    "name": "C6",
                    "midi": 84,
                    "time": 446.2919340000104,
                    "velocity": 0.5039370078740157,
                    "duration": 0.44943799999998646
                },
                {
                    "name": "C6",
                    "midi": 84,
                    "time": 446.74137200001036,
                    "velocity": 0.49606299212598426,
                    "duration": 0.21535570833333395
                },
                {
                    "name": "C6",
                    "midi": 84,
                    "time": 446.96609100001035,
                    "velocity": 0.5354330708661418,
                    "duration": 0.8988759999999729
                },
                {
                    "name": "A#5",
                    "midi": 82,
                    "time": 447.8649670000103,
                    "velocity": 0.49606299212598426,
                    "duration": 0.33707850000001827
                },
                {
                    "name": "G#5",
                    "midi": 80,
                    "time": 448.20204550001034,
                    "velocity": 0.49606299212598426,
                    "duration": 0.10299620833330891
                },
                {
                    "name": "G#5",
                    "midi": 80,
                    "time": 448.3144050000103,
                    "velocity": 0.49606299212598426,
                    "duration": 0.6741569999999797
                },
                {
                    "name": "C#6",
                    "midi": 85,
                    "time": 448.9885620000103,
                    "velocity": 0.5905511811023622,
                    "duration": 0.6741569999999797
                },
                {
                    "name": "C#6",
                    "midi": 85,
                    "time": 449.66271900001027,
                    "velocity": 0.6456692913385826,
                    "duration": 0.44943799999998646
                },
                {
                    "name": "C6",
                    "midi": 84,
                    "time": 450.11215700001026,
                    "velocity": 0.6141732283464567,
                    "duration": 0.21535570833333395
                },
                {
                    "name": "C6",
                    "midi": 84,
                    "time": 450.33687600001025,
                    "velocity": 0.5905511811023622,
                    "duration": 0.22471899999999323
                },
                {
                    "name": "A#5",
                    "midi": 82,
                    "time": 450.56159500001024,
                    "velocity": 0.5590551181102362,
                    "duration": 0.33707850000001827
                },
                {
                    "name": "G#5",
                    "midi": 80,
                    "time": 450.89867350001026,
                    "velocity": 0.49606299212598426,
                    "duration": 0.11235950000002504
                },
                {
                    "name": "F6",
                    "midi": 89,
                    "time": 451.0110330000103,
                    "velocity": 0.6299212598425197,
                    "duration": 0.6741569999999797
                },
                {
                    "name": "F6",
                    "midi": 89,
                    "time": 451.68519000001027,
                    "velocity": 0.6062992125984252,
                    "duration": 0.44943799999998646
                },
                {
                    "name": "F6",
                    "midi": 89,
                    "time": 452.13462800001025,
                    "velocity": 0.6377952755905512,
                    "duration": 0.21535570833333395
                },
                {
                    "name": "F6",
                    "midi": 89,
                    "time": 452.35934700001025,
                    "velocity": 0.6692913385826772,
                    "duration": 0.6741569999999797
                },
                {
                    "name": "D#6",
                    "midi": 87,
                    "time": 453.0335040000102,
                    "velocity": 0.5669291338582677,
                    "duration": 0.22471899999999323
                },
                {
                    "name": "C#6",
                    "midi": 85,
                    "time": 453.2582230000102,
                    "velocity": 0.5590551181102362,
                    "duration": 0.22471899999999323
                },
                {
                    "name": "A#5",
                    "midi": 82,
                    "time": 453.4829420000102,
                    "velocity": 0.5511811023622047,
                    "duration": 0.22471899999999323
                },
                {
                    "name": "C6",
                    "midi": 84,
                    "time": 453.7076610000102,
                    "velocity": 0.5905511811023622,
                    "duration": 0.6741569999999797
                },
                {
                    "name": "A#5",
                    "midi": 82,
                    "time": 454.3818180000102,
                    "velocity": 0.5590551181102362,
                    "duration": 0.22471899999999323
                },
                {
                    "name": "G#5",
                    "midi": 80,
                    "time": 454.6065370000102,
                    "velocity": 0.5354330708661418,
                    "duration": 0.22471899999999323
                },
                {
                    "name": "F5",
                    "midi": 77,
                    "time": 454.83125600001017,
                    "velocity": 0.49606299212598426,
                    "duration": 0.22471899999999323
                },
                {
                    "name": "A#5",
                    "midi": 82,
                    "time": 455.05597500001016,
                    "velocity": 0.5433070866141733,
                    "duration": 0.22471899999999323
                },
                {
                    "name": "G#5",
                    "midi": 80,
                    "time": 455.28069400001016,
                    "velocity": 0.5039370078740157,
                    "duration": 0.22471899999999323
                },
                {
                    "name": "F#5",
                    "midi": 78,
                    "time": 455.50541300001015,
                    "velocity": 0.48031496062992124,
                    "duration": 0.21535570833333395
                },
                {
                    "name": "F#5",
                    "midi": 78,
                    "time": 455.73013200001014,
                    "velocity": 0.4330708661417323,
                    "duration": 0.05617975000001252
                },
                {
                    "name": "G#5",
                    "midi": 80,
                    "time": 455.78631175001016,
                    "velocity": 0.4330708661417323,
                    "duration": 0.05617975000001252
                },
                {
                    "name": "F#5",
                    "midi": 78,
                    "time": 455.84249150001017,
                    "velocity": 0.49606299212598426,
                    "duration": 0.11235950000002504
                },
                {
                    "name": "F5",
                    "midi": 77,
                    "time": 455.9548510000102,
                    "velocity": 0.4566929133858268,
                    "duration": 0.33707850000001827
                },
                {
                    "name": "E5",
                    "midi": 76,
                    "time": 456.2919295000102,
                    "velocity": 0.4645669291338583,
                    "duration": 0.10299620833330891
                },
                {
                    "name": "E5",
                    "midi": 76,
                    "time": 456.4042890000102,
                    "velocity": 0.4645669291338583,
                    "duration": 0.6741569999999797
                },
                {
                    "name": "F5",
                    "midi": 77,
                    "time": 457.07844600001016,
                    "velocity": 0.49606299212598426,
                    "duration": 0.44943799999998646
                },
                {
                    "name": "G#5",
                    "midi": 80,
                    "time": 457.52788400001015,
                    "velocity": 0.44881889763779526,
                    "duration": 0.22471899999999323
                },
                {
                    "name": "G#4",
                    "midi": 68,
                    "time": 457.75260300001014,
                    "velocity": 0.44881889763779526,
                    "duration": 0.44943799999998646
                },
                {
                    "name": "G#5",
                    "midi": 80,
                    "time": 457.80878275001015,
                    "velocity": 0.44881889763779526,
                    "duration": 0.6179772499999672
                },
                {
                    "name": "C5",
                    "midi": 72,
                    "time": 458.2020410000101,
                    "velocity": 0.49606299212598426,
                    "duration": 0.44943799999998646
                },
                {
                    "name": "C6",
                    "midi": 84,
                    "time": 458.4267600000101,
                    "velocity": 0.49606299212598426,
                    "duration": 0.22471899999999323
                },
                {
                    "name": "A#4",
                    "midi": 70,
                    "time": 458.6514790000101,
                    "velocity": 0.49606299212598426,
                    "duration": 0.33707850000001827
                },
                {
                    "name": "A#5",
                    "midi": 82,
                    "time": 458.6514790000101,
                    "velocity": 0.49606299212598426,
                    "duration": 0.33707850000001827
                },
                {
                    "name": "G#4",
                    "midi": 68,
                    "time": 458.98855750001013,
                    "velocity": 0.49606299212598426,
                    "duration": 0.10299620833330891
                },
                {
                    "name": "G#5",
                    "midi": 80,
                    "time": 458.98855750001013,
                    "velocity": 0.49606299212598426,
                    "duration": 0.10299620833330891
                },
                {
                    "name": "G#4",
                    "midi": 68,
                    "time": 459.1009170000101,
                    "velocity": 0.49606299212598426,
                    "duration": 0.6741569999999797
                },
                {
                    "name": "G#5",
                    "midi": 80,
                    "time": 459.1009170000101,
                    "velocity": 0.49606299212598426,
                    "duration": 1.3483139999999594
                },
                {
                    "name": "C#5",
                    "midi": 73,
                    "time": 459.7750740000101,
                    "velocity": 0.5905511811023622,
                    "duration": 0.6741569999999797
                },
                {
                    "name": "C#6",
                    "midi": 85,
                    "time": 459.7750740000101,
                    "velocity": 0.5905511811023622,
                    "duration": 0.6741569999999797
                },
                {
                    "name": "F#5",
                    "midi": 78,
                    "time": 460.44923100001006,
                    "velocity": 0.47244094488188976,
                    "duration": 0.4494380000000433
                },
                {
                    "name": "G#5",
                    "midi": 80,
                    "time": 460.44923100001006,
                    "velocity": 0.47244094488188976,
                    "duration": 0.4494380000000433
                },
                {
                    "name": "C#5",
                    "midi": 73,
                    "time": 460.44923100001006,
                    "velocity": 0.5905511811023622,
                    "duration": 0.33707850000001827
                },
                {
                    "name": "C#6",
                    "midi": 85,
                    "time": 460.44923100001006,
                    "velocity": 0.5905511811023622,
                    "duration": 0.33707850000001827
                },
                {
                    "name": "D#5",
                    "midi": 75,
                    "time": 460.7863095000101,
                    "velocity": 0.5590551181102362,
                    "duration": 0.11235950000002504
                },
                {
                    "name": "C6",
                    "midi": 84,
                    "time": 460.7863095000101,
                    "velocity": 0.5590551181102362,
                    "duration": 0.11235950000002504
                },
                {
                    "name": "G#5",
                    "midi": 80,
                    "time": 460.8986690000101,
                    "velocity": 0.47244094488188976,
                    "duration": 0.22471899999999323
                },
                {
                    "name": "F#5",
                    "midi": 78,
                    "time": 460.8986690000101,
                    "velocity": 0.47244094488188976,
                    "duration": 0.22471899999999323
                },
                {
                    "name": "C5",
                    "midi": 72,
                    "time": 460.8986690000101,
                    "velocity": 0.6141732283464567,
                    "duration": 0.22471899999999323
                },
                {
                    "name": "C6",
                    "midi": 84,
                    "time": 460.8986690000101,
                    "velocity": 0.6141732283464567,
                    "duration": 0.22471899999999323
                },
                {
                    "name": "G#5",
                    "midi": 80,
                    "time": 461.1233880000101,
                    "velocity": 0.47244094488188976,
                    "duration": 0.33707850000001827
                },
                {
                    "name": "F#5",
                    "midi": 78,
                    "time": 461.1233880000101,
                    "velocity": 0.47244094488188976,
                    "duration": 0.33707850000001827
                },
                {
                    "name": "C5",
                    "midi": 72,
                    "time": 461.1233880000101,
                    "velocity": 0.5905511811023622,
                    "duration": 0.33707850000001827
                },
                {
                    "name": "C6",
                    "midi": 84,
                    "time": 461.1233880000101,
                    "velocity": 0.5905511811023622,
                    "duration": 0.33707850000001827
                },
                {
                    "name": "A#4",
                    "midi": 70,
                    "time": 461.4604665000101,
                    "velocity": 0.5590551181102362,
                    "duration": 0.11235950000002504
                },
                {
                    "name": "A#5",
                    "midi": 82,
                    "time": 461.4604665000101,
                    "velocity": 0.5590551181102362,
                    "duration": 0.11235950000002504
                },
                {
                    "name": "F#5",
                    "midi": 78,
                    "time": 461.57282600001014,
                    "velocity": 0.47244094488188976,
                    "duration": 0.22471899999999323
                },
                {
                    "name": "G#4",
                    "midi": 68,
                    "time": 461.57282600001014,
                    "velocity": 0.49606299212598426,
                    "duration": 0.22471899999999323
                },
                {
                    "name": "G#5",
                    "midi": 80,
                    "time": 461.57282600001014,
                    "velocity": 0.49606299212598426,
                    "duration": 0.22471899999999323
                },
                {
                    "name": "G#5",
                    "midi": 80,
                    "time": 461.79754500001013,
                    "velocity": 0.6299212598425197,
                    "duration": 0.6741569999999797
                },
                {
                    "name": "F5",
                    "midi": 77,
                    "time": 461.79754500001013,
                    "velocity": 0.5354330708661418,
                    "duration": 0.6741569999999797
                },
                {
                    "name": "F6",
                    "midi": 89,
                    "time": 461.79754500001013,
                    "velocity": 0.6299212598425197,
                    "duration": 0.6741569999999797
                },
                {
                    "name": "F5",
                    "midi": 77,
                    "time": 462.4717020000101,
                    "velocity": 0.5118110236220472,
                    "duration": 0.44943799999998646
                },
                {
                    "name": "G#5",
                    "midi": 80,
                    "time": 462.4717020000101,
                    "velocity": 0.6062992125984252,
                    "duration": 0.44943799999998646
                },
                {
                    "name": "F6",
                    "midi": 89,
                    "time": 462.4717020000101,
                    "velocity": 0.6062992125984252,
                    "duration": 0.44943799999998646
                },
                {
                    "name": "F5",
                    "midi": 77,
                    "time": 462.9211400000101,
                    "velocity": 0.5196850393700787,
                    "duration": 0.22471899999999323
                },
                {
                    "name": "G#5",
                    "midi": 80,
                    "time": 462.9211400000101,
                    "velocity": 0.6141732283464567,
                    "duration": 0.22471899999999323
                },
                {
                    "name": "F6",
                    "midi": 89,
                    "time": 462.9211400000101,
                    "velocity": 0.6141732283464567,
                    "duration": 0.22471899999999323
                },
                {
                    "name": "F5",
                    "midi": 77,
                    "time": 463.1458590000101,
                    "velocity": 0.5433070866141733,
                    "duration": 0.6741569999999797
                },
                {
                    "name": "G#5",
                    "midi": 80,
                    "time": 463.1458590000101,
                    "velocity": 0.6456692913385826,
                    "duration": 0.6741569999999797
                },
                {
                    "name": "F6",
                    "midi": 89,
                    "time": 463.1458590000101,
                    "velocity": 0.6456692913385826,
                    "duration": 0.6741569999999797
                },
                {
                    "name": "F#5",
                    "midi": 78,
                    "time": 463.82001600001007,
                    "velocity": 0.5275590551181102,
                    "duration": 0.22471899999999323
                },
                {
                    "name": "D#5",
                    "midi": 75,
                    "time": 463.82001600001007,
                    "velocity": 0.4409448818897638,
                    "duration": 0.22471899999999323
                },
                {
                    "name": "D#6",
                    "midi": 87,
                    "time": 463.82001600001007,
                    "velocity": 0.5275590551181102,
                    "duration": 0.22471899999999323
                },
                {
                    "name": "C#5",
                    "midi": 73,
                    "time": 464.04473500001006,
                    "velocity": 0.4330708661417323,
                    "duration": 0.33707850000001827
                },
                {
                    "name": "F#5",
                    "midi": 78,
                    "time": 464.04473500001006,
                    "velocity": 0.5118110236220472,
                    "duration": 0.33707850000001827
                },
                {
                    "name": "C#6",
                    "midi": 85,
                    "time": 464.04473500001006,
                    "velocity": 0.5118110236220472,
                    "duration": 0.33707850000001827
                },
                {
                    "name": "A#4",
                    "midi": 70,
                    "time": 464.3818135000101,
                    "velocity": 0.4251968503937008,
                    "duration": 0.11235950000002504
                },
                {
                    "name": "F#5",
                    "midi": 78,
                    "time": 464.3818135000101,
                    "velocity": 0.5039370078740157,
                    "duration": 0.11235950000002504
                },
                {
                    "name": "A#5",
                    "midi": 82,
                    "time": 464.3818135000101,
                    "velocity": 0.5039370078740157,
                    "duration": 0.11235950000002504
                },
                {
                    "name": "C5",
                    "midi": 72,
                    "time": 464.4941730000101,
                    "velocity": 0.4094488188976378,
                    "duration": 0.6741569999999797
                },
                {
                    "name": "G#5",
                    "midi": 80,
                    "time": 464.4941730000101,
                    "velocity": 0.4881889763779528,
                    "duration": 0.6741569999999797
                },
                {
                    "name": "C6",
                    "midi": 84,
                    "time": 464.4941730000101,
                    "velocity": 0.4881889763779528,
                    "duration": 0.6741569999999797
                },
                {
                    "name": "A#4",
                    "midi": 70,
                    "time": 465.1683300000101,
                    "velocity": 0.4251968503937008,
                    "duration": 0.22471899999999323
                },
                {
                    "name": "F#5",
                    "midi": 78,
                    "time": 465.1683300000101,
                    "velocity": 0.5039370078740157,
                    "duration": 0.22471899999999323
                },
                {
                    "name": "A#5",
                    "midi": 82,
                    "time": 465.1683300000101,
                    "velocity": 0.5039370078740157,
                    "duration": 0.22471899999999323
                },
                {
                    "name": "G#4",
                    "midi": 68,
                    "time": 465.3930490000101,
                    "velocity": 0.44881889763779526,
                    "duration": 0.22471899999999323
                },
                {
                    "name": "F5",
                    "midi": 77,
                    "time": 465.3930490000101,
                    "velocity": 0.5354330708661418,
                    "duration": 0.22471899999999323
                },
                {
                    "name": "G#5",
                    "midi": 80,
                    "time": 465.3930490000101,
                    "velocity": 0.5354330708661418,
                    "duration": 0.22471899999999323
                },
                {
                    "name": "A#4",
                    "midi": 70,
                    "time": 465.6177680000101,
                    "velocity": 0.48031496062992124,
                    "duration": 0.22471899999999323
                },
                {
                    "name": "F5",
                    "midi": 77,
                    "time": 465.6177680000101,
                    "velocity": 0.5669291338582677,
                    "duration": 0.22471899999999323
                },
                {
                    "name": "A#5",
                    "midi": 82,
                    "time": 465.6177680000101,
                    "velocity": 0.5669291338582677,
                    "duration": 0.22471899999999323
                },
                {
                    "name": "F5",
                    "midi": 77,
                    "time": 465.84248700001007,
                    "velocity": 0.6062992125984252,
                    "duration": 0.44943799999998646
                },
                {
                    "name": "B4",
                    "midi": 71,
                    "time": 465.84248700001007,
                    "velocity": 0.5118110236220472,
                    "duration": 0.44943799999998646
                },
                {
                    "name": "B5",
                    "midi": 83,
                    "time": 465.84248700001007,
                    "velocity": 0.6062992125984252,
                    "duration": 0.44943799999998646
                },
                {
                    "name": "F5",
                    "midi": 77,
                    "time": 466.29192500001005,
                    "velocity": 0.5905511811023622,
                    "duration": 0.22471899999999323
                },
                {
                    "name": "A#4",
                    "midi": 70,
                    "time": 466.29192500001005,
                    "velocity": 0.49606299212598426,
                    "duration": 0.22471899999999323
                },
                {
                    "name": "A#5",
                    "midi": 82,
                    "time": 466.29192500001005,
                    "velocity": 0.5905511811023622,
                    "duration": 0.22471899999999323
                },
                {
                    "name": "B4",
                    "midi": 71,
                    "time": 466.51664400001005,
                    "velocity": 0.5196850393700787,
                    "duration": 1.123595000000023
                },
                {
                    "name": "F5",
                    "midi": 77,
                    "time": 466.51664400001005,
                    "velocity": 0.6141732283464567,
                    "duration": 1.123595000000023
                },
                {
                    "name": "B5",
                    "midi": 83,
                    "time": 466.51664400001005,
                    "velocity": 0.6141732283464567,
                    "duration": 1.123595000000023
                },
                {
                    "name": "A#4",
                    "midi": 70,
                    "time": 467.64023900001007,
                    "velocity": 0.5039370078740157,
                    "duration": 0.22471899999999323
                },
                {
                    "name": "F5",
                    "midi": 77,
                    "time": 467.64023900001007,
                    "velocity": 0.5984251968503937,
                    "duration": 0.22471899999999323
                },
                {
                    "name": "A#5",
                    "midi": 82,
                    "time": 467.64023900001007,
                    "velocity": 0.5984251968503937,
                    "duration": 0.22471899999999323
                },
                {
                    "name": "B4",
                    "midi": 71,
                    "time": 467.86495800001006,
                    "velocity": 0.5354330708661418,
                    "duration": 0.22471899999999323
                },
                {
                    "name": "F5",
                    "midi": 77,
                    "time": 467.86495800001006,
                    "velocity": 0.6377952755905512,
                    "duration": 0.22471899999999323
                },
                {
                    "name": "B5",
                    "midi": 83,
                    "time": 467.86495800001006,
                    "velocity": 0.6377952755905512,
                    "duration": 0.22471899999999323
                },
                {
                    "name": "A#4",
                    "midi": 70,
                    "time": 468.08967700001006,
                    "velocity": 0.5196850393700787,
                    "duration": 0.22471899999999323
                },
                {
                    "name": "F5",
                    "midi": 77,
                    "time": 468.08967700001006,
                    "velocity": 0.6141732283464567,
                    "duration": 0.22471899999999323
                },
                {
                    "name": "A#5",
                    "midi": 82,
                    "time": 468.08967700001006,
                    "velocity": 0.6141732283464567,
                    "duration": 0.22471899999999323
                },
                {
                    "name": "B4",
                    "midi": 71,
                    "time": 468.31439600001005,
                    "velocity": 0.5196850393700787,
                    "duration": 0.22471899999999323
                },
                {
                    "name": "F5",
                    "midi": 77,
                    "time": 468.31439600001005,
                    "velocity": 0.6141732283464567,
                    "duration": 0.22471899999999323
                },
                {
                    "name": "B5",
                    "midi": 83,
                    "time": 468.31439600001005,
                    "velocity": 0.6141732283464567,
                    "duration": 0.22471899999999323
                },
                {
                    "name": "B4",
                    "midi": 71,
                    "time": 468.53911500001004,
                    "velocity": 0.5354330708661418,
                    "duration": 0.44943799999998646
                },
                {
                    "name": "F#5",
                    "midi": 78,
                    "time": 468.53911500001004,
                    "velocity": 0.6377952755905512,
                    "duration": 0.44943799999998646
                },
                {
                    "name": "B5",
                    "midi": 83,
                    "time": 468.53911500001004,
                    "velocity": 0.6377952755905512,
                    "duration": 0.44943799999998646
                },
                {
                    "name": "A#4",
                    "midi": 70,
                    "time": 468.98855300001003,
                    "velocity": 0.5433070866141733,
                    "duration": 0.22471899999999323
                },
                {
                    "name": "F#5",
                    "midi": 78,
                    "time": 468.98855300001003,
                    "velocity": 0.6456692913385826,
                    "duration": 0.22471899999999323
                },
                {
                    "name": "A#5",
                    "midi": 82,
                    "time": 468.98855300001003,
                    "velocity": 0.6456692913385826,
                    "duration": 0.22471899999999323
                },
                {
                    "name": "C#5",
                    "midi": 73,
                    "time": 469.21327200001,
                    "velocity": 0.5826771653543307,
                    "duration": 1.123595000000023
                },
                {
                    "name": "G5",
                    "midi": 79,
                    "time": 469.21327200001,
                    "velocity": 0.6929133858267716,
                    "duration": 1.123595000000023
                },
                {
                    "name": "C#6",
                    "midi": 85,
                    "time": 469.21327200001,
                    "velocity": 0.6929133858267716,
                    "duration": 1.123595000000023
                },
                {
                    "name": "C5",
                    "midi": 72,
                    "time": 470.33686700001005,
                    "velocity": 0.5433070866141733,
                    "duration": 0.22471899999999323
                },
                {
                    "name": "G5",
                    "midi": 79,
                    "time": 470.33686700001005,
                    "velocity": 0.6456692913385826,
                    "duration": 0.22471899999999323
                },
                {
                    "name": "C6",
                    "midi": 84,
                    "time": 470.33686700001005,
                    "velocity": 0.6456692913385826,
                    "duration": 0.22471899999999323
                },
                {
                    "name": "C#5",
                    "midi": 73,
                    "time": 470.56158600001004,
                    "velocity": 0.5748031496062992,
                    "duration": 0.22471899999999323
                },
                {
                    "name": "G5",
                    "midi": 79,
                    "time": 470.56158600001004,
                    "velocity": 0.6771653543307087,
                    "duration": 0.22471899999999323
                },
                {
                    "name": "C#6",
                    "midi": 85,
                    "time": 470.56158600001004,
                    "velocity": 0.6771653543307087,
                    "duration": 0.22471899999999323
                },
                {
                    "name": "C5",
                    "midi": 72,
                    "time": 470.78630500001003,
                    "velocity": 0.5354330708661418,
                    "duration": 0.22471899999999323
                },
                {
                    "name": "G5",
                    "midi": 79,
                    "time": 470.78630500001003,
                    "velocity": 0.6377952755905512,
                    "duration": 0.22471899999999323
                },
                {
                    "name": "C6",
                    "midi": 84,
                    "time": 470.78630500001003,
                    "velocity": 0.6377952755905512,
                    "duration": 0.22471899999999323
                },
                {
                    "name": "C#5",
                    "midi": 73,
                    "time": 471.01102400001,
                    "velocity": 0.5669291338582677,
                    "duration": 0.22471899999999323
                },
                {
                    "name": "G5",
                    "midi": 79,
                    "time": 471.01102400001,
                    "velocity": 0.6692913385826772,
                    "duration": 0.22471899999999323
                },
                {
                    "name": "C#6",
                    "midi": 85,
                    "time": 471.01102400001,
                    "velocity": 0.6692913385826772,
                    "duration": 0.22471899999999323
                },
                {
                    "name": "C#5",
                    "midi": 73,
                    "time": 471.23574300001,
                    "velocity": 0.5826771653543307,
                    "duration": 0.44943799999998646
                },
                {
                    "name": "G#5",
                    "midi": 80,
                    "time": 471.23574300001,
                    "velocity": 0.6929133858267716,
                    "duration": 0.44943799999998646
                },
                {
                    "name": "C#6",
                    "midi": 85,
                    "time": 471.23574300001,
                    "velocity": 0.6929133858267716,
                    "duration": 0.44943799999998646
                },
                {
                    "name": "C5",
                    "midi": 72,
                    "time": 471.68518100001,
                    "velocity": 0.6062992125984252,
                    "duration": 0.22471899999999323
                },
                {
                    "name": "G#5",
                    "midi": 80,
                    "time": 471.68518100001,
                    "velocity": 0.7165354330708661,
                    "duration": 0.22471899999999323
                },
                {
                    "name": "C6",
                    "midi": 84,
                    "time": 471.68518100001,
                    "velocity": 0.7165354330708661,
                    "duration": 0.22471899999999323
                },
                {
                    "name": "A5",
                    "midi": 81,
                    "time": 471.90990000001,
                    "velocity": 0.7086614173228346,
                    "duration": 0.44943799999998646
                },
                {
                    "name": "D#5",
                    "midi": 75,
                    "time": 471.90990000001,
                    "velocity": 0.5984251968503937,
                    "duration": 0.44943799999998646
                },
                {
                    "name": "D#6",
                    "midi": 87,
                    "time": 471.90990000001,
                    "velocity": 0.7086614173228346,
                    "duration": 0.44943799999998646
                },
                {
                    "name": "D#6",
                    "midi": 87,
                    "time": 472.35933800001,
                    "velocity": 0.6929133858267716,
                    "duration": 0.22471899999999323
                },
                {
                    "name": "A5",
                    "midi": 81,
                    "time": 472.35933800001,
                    "velocity": 0.6929133858267716,
                    "duration": 0.22471899999999323
                },
                {
                    "name": "D#5",
                    "midi": 75,
                    "time": 472.35933800001,
                    "velocity": 0.5826771653543307,
                    "duration": 0.22471899999999323
                },
                {
                    "name": "D#6",
                    "midi": 87,
                    "time": 472.58405700001,
                    "velocity": 0.7244094488188977,
                    "duration": 0.44943799999998646
                },
                {
                    "name": "G#5",
                    "midi": 80,
                    "time": 472.58405700001,
                    "velocity": 0.7244094488188977,
                    "duration": 0.44943799999998646
                },
                {
                    "name": "D#5",
                    "midi": 75,
                    "time": 472.58405700001,
                    "velocity": 0.6141732283464567,
                    "duration": 0.44943799999998646
                },
                {
                    "name": "D6",
                    "midi": 86,
                    "time": 473.03349500000996,
                    "velocity": 0.6929133858267716,
                    "duration": 0.22471899999999323
                },
                {
                    "name": "G#5",
                    "midi": 80,
                    "time": 473.03349500000996,
                    "velocity": 0.6929133858267716,
                    "duration": 0.22471899999999323
                },
                {
                    "name": "D5",
                    "midi": 74,
                    "time": 473.03349500000996,
                    "velocity": 0.5826771653543307,
                    "duration": 0.22471899999999323
                },
                {
                    "name": "F6",
                    "midi": 89,
                    "time": 473.25821400000996,
                    "velocity": 0.7795275590551181,
                    "duration": 0.44943799999998646
                },
                {
                    "name": "B5",
                    "midi": 83,
                    "time": 473.25821400000996,
                    "velocity": 0.7795275590551181,
                    "duration": 0.44943799999998646
                },
                {
                    "name": "F5",
                    "midi": 77,
                    "time": 473.25821400000996,
                    "velocity": 0.6614173228346457,
                    "duration": 0.44943799999998646
                },
                {
                    "name": "F6",
                    "midi": 89,
                    "time": 473.70765200000994,
                    "velocity": 0.7480314960629921,
                    "duration": 0.22471899999999323
                },
                {
                    "name": "B5",
                    "midi": 83,
                    "time": 473.70765200000994,
                    "velocity": 0.7480314960629921,
                    "duration": 0.22471899999999323
                },
                {
                    "name": "F5",
                    "midi": 77,
                    "time": 473.70765200000994,
                    "velocity": 0.6299212598425197,
                    "duration": 0.22471899999999323
                },
                {
                    "name": "F6",
                    "midi": 89,
                    "time": 473.93237100000994,
                    "velocity": 0.7559055118110236,
                    "duration": 0.44943799999998646
                },
                {
                    "name": "A#5",
                    "midi": 82,
                    "time": 473.93237100000994,
                    "velocity": 0.7559055118110236,
                    "duration": 0.44943799999998646
                },
                {
                    "name": "F5",
                    "midi": 77,
                    "time": 473.93237100000994,
                    "velocity": 0.6377952755905512,
                    "duration": 0.44943799999998646
                },
                {
                    "name": "E6",
                    "midi": 88,
                    "time": 474.3818090000099,
                    "velocity": 0.7559055118110236,
                    "duration": 0.22471899999999323
                },
                {
                    "name": "A#5",
                    "midi": 82,
                    "time": 474.3818090000099,
                    "velocity": 0.7559055118110236,
                    "duration": 0.22471899999999323
                },
                {
                    "name": "E5",
                    "midi": 76,
                    "time": 474.3818090000099,
                    "velocity": 0.6377952755905512,
                    "duration": 0.22471899999999323
                },
                {
                    "name": "G6",
                    "midi": 91,
                    "time": 474.6065280000099,
                    "velocity": 0.7952755905511811,
                    "duration": 0.44943799999998646
                },
                {
                    "name": "C#6",
                    "midi": 85,
                    "time": 474.6065280000099,
                    "velocity": 0.7952755905511811,
                    "duration": 0.44943799999998646
                },
                {
                    "name": "G5",
                    "midi": 79,
                    "time": 474.6065280000099,
                    "velocity": 0.6692913385826772,
                    "duration": 0.44943799999998646
                },
                {
                    "name": "G6",
                    "midi": 91,
                    "time": 475.0559660000099,
                    "velocity": 0.7716535433070866,
                    "duration": 0.22471899999999323
                },
                {
                    "name": "C#6",
                    "midi": 85,
                    "time": 475.0559660000099,
                    "velocity": 0.7716535433070866,
                    "duration": 0.22471899999999323
                },
                {
                    "name": "G5",
                    "midi": 79,
                    "time": 475.0559660000099,
                    "velocity": 0.6535433070866141,
                    "duration": 0.22471899999999323
                },
                {
                    "name": "G6",
                    "midi": 91,
                    "time": 475.2806850000099,
                    "velocity": 0.7716535433070866,
                    "duration": 0.44943799999998646
                },
                {
                    "name": "C6",
                    "midi": 84,
                    "time": 475.2806850000099,
                    "velocity": 0.7716535433070866,
                    "duration": 0.44943799999998646
                },
                {
                    "name": "G5",
                    "midi": 79,
                    "time": 475.2806850000099,
                    "velocity": 0.6535433070866141,
                    "duration": 0.44943799999998646
                },
                {
                    "name": "G#6",
                    "midi": 92,
                    "time": 475.7301230000099,
                    "velocity": 0.7401574803149606,
                    "duration": 0.22471899999999323
                },
                {
                    "name": "C6",
                    "midi": 84,
                    "time": 475.7301230000099,
                    "velocity": 0.7401574803149606,
                    "duration": 0.22471899999999323
                },
                {
                    "name": "G#5",
                    "midi": 80,
                    "time": 475.7301230000099,
                    "velocity": 0.6220472440944882,
                    "duration": 0.22471899999999323
                },
                {
                    "name": "A6",
                    "midi": 93,
                    "time": 475.9548420000099,
                    "velocity": 0.8661417322834646,
                    "duration": 0.44943799999998646
                },
                {
                    "name": "C6",
                    "midi": 84,
                    "time": 475.9548420000099,
                    "velocity": 0.8661417322834646,
                    "duration": 0.44943799999998646
                },
                {
                    "name": "A5",
                    "midi": 81,
                    "time": 475.9548420000099,
                    "velocity": 0.7322834645669292,
                    "duration": 0.44943799999998646
                },
                {
                    "name": "C6",
                    "midi": 84,
                    "time": 476.40428000000986,
                    "velocity": 0.7401574803149606,
                    "duration": 0.22471899999999323
                },
                {
                    "name": "F#5",
                    "midi": 78,
                    "time": 476.40428000000986,
                    "velocity": 0.7401574803149606,
                    "duration": 0.22471899999999323
                },
                {
                    "name": "C5",
                    "midi": 72,
                    "time": 476.40428000000986,
                    "velocity": 0.6220472440944882,
                    "duration": 0.22471899999999323
                },
                {
                    "name": "C#6",
                    "midi": 85,
                    "time": 476.62899900000986,
                    "velocity": 0.8582677165354331,
                    "duration": 0.1685392499999807
                },
                {
                    "name": "F5",
                    "midi": 77,
                    "time": 476.62899900000986,
                    "velocity": 0.8582677165354331,
                    "duration": 0.1685392499999807
                },
                {
                    "name": "C#5",
                    "midi": 73,
                    "time": 476.62899900000986,
                    "velocity": 0.7244094488188977,
                    "duration": 0.1685392499999807
                },
                {
                    "name": "F4",
                    "midi": 65,
                    "time": 477.30315600000984,
                    "velocity": 0.7637795275590551,
                    "duration": 0.11235950000002504
                },
                {
                    "name": "C#5",
                    "midi": 73,
                    "time": 477.41551550000986,
                    "velocity": 0.5905511811023622,
                    "duration": 0.11235950000002504
                },
                {
                    "name": "G#5",
                    "midi": 80,
                    "time": 477.5278750000099,
                    "velocity": 0.6220472440944882,
                    "duration": 0.11235950000002504
                },
                {
                    "name": "F5",
                    "midi": 77,
                    "time": 477.6402345000099,
                    "velocity": 0.6535433070866141,
                    "duration": 0.11235950000002504
                },
                {
                    "name": "C#6",
                    "midi": 85,
                    "time": 477.75259400000994,
                    "velocity": 0.6850393700787402,
                    "duration": 0.11235950000002504
                },
                {
                    "name": "A#6",
                    "midi": 94,
                    "time": 477.86495350000996,
                    "velocity": 0.7165354330708661,
                    "duration": 0.11235950000002504
                },
                {
                    "name": "C6",
                    "midi": 84,
                    "time": 477.97731300001,
                    "velocity": 0.7559055118110236,
                    "duration": 0.22471899999999323
                },
                {
                    "name": "G#6",
                    "midi": 92,
                    "time": 477.97731300001,
                    "velocity": 0.7559055118110236,
                    "duration": 0.22471899999999323
                },
                {
                    "name": "F#4",
                    "midi": 66,
                    "time": 478.65147000000997,
                    "velocity": 0.7637795275590551,
                    "duration": 0.11235950000002504
                },
                {
                    "name": "C5",
                    "midi": 72,
                    "time": 478.76382950001,
                    "velocity": 0.5905511811023622,
                    "duration": 0.11235950000002504
                },
                {
                    "name": "G#5",
                    "midi": 80,
                    "time": 478.87618900001,
                    "velocity": 0.6299212598425197,
                    "duration": 0.11235950000002504
                },
                {
                    "name": "F#5",
                    "midi": 78,
                    "time": 478.98854850001004,
                    "velocity": 0.6614173228346457,
                    "duration": 0.11235950000002504
                },
                {
                    "name": "C6",
                    "midi": 84,
                    "time": 479.10090800001007,
                    "velocity": 0.6929133858267716,
                    "duration": 0.11235950000002504
                },
                {
                    "name": "G#6",
                    "midi": 92,
                    "time": 479.2132675000101,
                    "velocity": 0.7322834645669292,
                    "duration": 0.11235950000002504
                },
                {
                    "name": "C#6",
                    "midi": 85,
                    "time": 479.3256270000101,
                    "velocity": 0.7637795275590551,
                    "duration": 0.22471899999999323
                },
                {
                    "name": "F6",
                    "midi": 89,
                    "time": 479.3256270000101,
                    "velocity": 0.7637795275590551,
                    "duration": 0.22471899999999323
                },
                {
                    "name": "F4",
                    "midi": 65,
                    "time": 479.9997840000101,
                    "velocity": 0.7637795275590551,
                    "duration": 0.11235950000002504
                },
                {
                    "name": "C#5",
                    "midi": 73,
                    "time": 480.1121435000101,
                    "velocity": 0.5905511811023622,
                    "duration": 0.11235950000002504
                },
                {
                    "name": "G#5",
                    "midi": 80,
                    "time": 480.22450300001015,
                    "velocity": 0.6220472440944882,
                    "duration": 0.11235950000002504
                },
                {
                    "name": "F5",
                    "midi": 77,
                    "time": 480.33686250001017,
                    "velocity": 0.6535433070866141,
                    "duration": 0.11235950000002504
                },
                {
                    "name": "C#6",
                    "midi": 85,
                    "time": 480.4492220000102,
                    "velocity": 0.6850393700787402,
                    "duration": 0.11235950000002504
                },
                {
                    "name": "A#6",
                    "midi": 94,
                    "time": 480.5615815000102,
                    "velocity": 0.7165354330708661,
                    "duration": 0.11235950000002504
                },
                {
                    "name": "C6",
                    "midi": 84,
                    "time": 480.67394100001025,
                    "velocity": 0.7559055118110236,
                    "duration": 0.22471899999999323
                },
                {
                    "name": "G#6",
                    "midi": 92,
                    "time": 480.67394100001025,
                    "velocity": 0.7559055118110236,
                    "duration": 0.22471899999999323
                },
                {
                    "name": "F#4",
                    "midi": 66,
                    "time": 481.3480980000102,
                    "velocity": 0.7637795275590551,
                    "duration": 0.11235950000002504
                },
                {
                    "name": "C5",
                    "midi": 72,
                    "time": 481.46045750001025,
                    "velocity": 0.5905511811023622,
                    "duration": 0.11235950000002504
                },
                {
                    "name": "G#5",
                    "midi": 80,
                    "time": 481.5728170000103,
                    "velocity": 0.6299212598425197,
                    "duration": 0.11235950000002504
                },
                {
                    "name": "F#5",
                    "midi": 78,
                    "time": 481.6851765000103,
                    "velocity": 0.6614173228346457,
                    "duration": 0.11235950000002504
                },
                {
                    "name": "C6",
                    "midi": 84,
                    "time": 481.7975360000103,
                    "velocity": 0.6929133858267716,
                    "duration": 0.11235950000002504
                },
                {
                    "name": "G#6",
                    "midi": 92,
                    "time": 481.90989550001035,
                    "velocity": 0.7322834645669292,
                    "duration": 0.05617975000001252
                },
                {
                    "name": "C#6",
                    "midi": 85,
                    "time": 481.96607525001036,
                    "velocity": 0.7874015748031497,
                    "duration": 0.05617975000001252
                },
                {
                    "name": "C#7",
                    "midi": 97,
                    "time": 482.0222550000104,
                    "velocity": 0.889763779527559,
                    "duration": 0.22471899999999323
                },
                {
                    "name": "B6",
                    "midi": 95,
                    "time": 482.24697400001037,
                    "velocity": 0.8740157480314961,
                    "duration": 0.11235950000002504
                },
                {
                    "name": "A6",
                    "midi": 93,
                    "time": 482.3593335000104,
                    "velocity": 0.8110236220472441,
                    "duration": 0.11235950000002504
                },
                {
                    "name": "E6",
                    "midi": 88,
                    "time": 482.4716930000104,
                    "velocity": 0.84251968503937,
                    "duration": 0.11235950000002504
                },
                {
                    "name": "C#6",
                    "midi": 85,
                    "time": 482.58405250001044,
                    "velocity": 0.7716535433070866,
                    "duration": 0.11235950000002504
                },
                {
                    "name": "B5",
                    "midi": 83,
                    "time": 482.69641200001047,
                    "velocity": 0.8031496062992126,
                    "duration": 0.11235950000002504
                },
                {
                    "name": "A5",
                    "midi": 81,
                    "time": 482.8087715000105,
                    "velocity": 0.7401574803149606,
                    "duration": 0.11235950000002504
                },
                {
                    "name": "E5",
                    "midi": 76,
                    "time": 482.9211310000105,
                    "velocity": 0.7716535433070866,
                    "duration": 0.11235950000002504
                },
                {
                    "name": "C#5",
                    "midi": 73,
                    "time": 483.03349050001054,
                    "velocity": 0.7165354330708661,
                    "duration": 0.11235950000002504
                },
                {
                    "name": "B4",
                    "midi": 71,
                    "time": 483.14585000001057,
                    "velocity": 0.7401574803149606,
                    "duration": 0.11235950000002504
                },
                {
                    "name": "A4",
                    "midi": 69,
                    "time": 483.2582095000106,
                    "velocity": 0.6692913385826772,
                    "duration": 0.11235950000002504
                },
                {
                    "name": "E4",
                    "midi": 64,
                    "time": 483.3705690000106,
                    "velocity": 0.7086614173228346,
                    "duration": 0.11235950000002504
                },
                {
                    "name": "C#4",
                    "midi": 61,
                    "time": 483.48292850001064,
                    "velocity": 0.6456692913385826,
                    "duration": 0.11235950000002504
                },
                {
                    "name": "B3",
                    "midi": 59,
                    "time": 483.59528800001067,
                    "velocity": 0.6692913385826772,
                    "duration": 0.11235950000002504
                },
                {
                    "name": "A3",
                    "midi": 57,
                    "time": 483.7076475000107,
                    "velocity": 0.6062992125984252,
                    "duration": 0.11235950000002504
                },
                {
                    "name": "E3",
                    "midi": 52,
                    "time": 483.8200070000107,
                    "velocity": 0.6377952755905512,
                    "duration": 0.22471899999999323
                },
                {
                    "name": "F3",
                    "midi": 53,
                    "time": 484.0447260000107,
                    "velocity": 0.7322834645669292,
                    "duration": 0.44943799999998646
                },
                {
                    "name": "F4",
                    "midi": 65,
                    "time": 484.0447260000107,
                    "velocity": 0.7322834645669292,
                    "duration": 0.44943799999998646
                },
                {
                    "name": "E3",
                    "midi": 52,
                    "time": 484.4941640000107,
                    "velocity": 0.6850393700787402,
                    "duration": 0.1685392499999807
                },
                {
                    "name": "E4",
                    "midi": 64,
                    "time": 484.4941640000107,
                    "velocity": 0.6850393700787402,
                    "duration": 0.1685392499999807
                },
                {
                    "name": "C#6",
                    "midi": 85,
                    "time": 484.6627032500107,
                    "velocity": 0.7874015748031497,
                    "duration": 0.05617975000001252
                },
                {
                    "name": "C#7",
                    "midi": 97,
                    "time": 484.7188830000107,
                    "velocity": 0.889763779527559,
                    "duration": 0.22471899999999323
                },
                {
                    "name": "B6",
                    "midi": 95,
                    "time": 484.9436020000107,
                    "velocity": 0.8740157480314961,
                    "duration": 0.11235950000002504
                },
                {
                    "name": "A6",
                    "midi": 93,
                    "time": 485.0559615000107,
                    "velocity": 0.8110236220472441,
                    "duration": 0.11235950000002504
                },
                {
                    "name": "E6",
                    "midi": 88,
                    "time": 485.16832100001074,
                    "velocity": 0.84251968503937,
                    "duration": 0.11235950000002504
                },
                {
                    "name": "C#6",
                    "midi": 85,
                    "time": 485.28068050001076,
                    "velocity": 0.7716535433070866,
                    "duration": 0.11235950000002504
                },
                {
                    "name": "B5",
                    "midi": 83,
                    "time": 485.3930400000108,
                    "velocity": 0.8031496062992126,
                    "duration": 0.11235950000002504
                },
                {
                    "name": "A5",
                    "midi": 81,
                    "time": 485.5053995000108,
                    "velocity": 0.7559055118110236,
                    "duration": 0.11235950000002504
                },
                {
                    "name": "E5",
                    "midi": 76,
                    "time": 485.61775900001084,
                    "velocity": 0.7716535433070866,
                    "duration": 0.11235950000002504
                },
                {
                    "name": "C#5",
                    "midi": 73,
                    "time": 485.73011850001086,
                    "velocity": 0.7165354330708661,
                    "duration": 0.11235950000002504
                },
                {
                    "name": "B4",
                    "midi": 71,
                    "time": 485.8424780000109,
                    "velocity": 0.7401574803149606,
                    "duration": 0.11235950000002504
                },
                {
                    "name": "A4",
                    "midi": 69,
                    "time": 485.9548375000109,
                    "velocity": 0.6850393700787402,
                    "duration": 0.11235950000002504
                },
                {
                    "name": "E4",
                    "midi": 64,
                    "time": 486.06719700001094,
                    "velocity": 0.7086614173228346,
                    "duration": 0.11235950000002504
                },
                {
                    "name": "C#4",
                    "midi": 61,
                    "time": 486.17955650001096,
                    "velocity": 0.6456692913385826,
                    "duration": 0.11235950000002504
                },
                {
                    "name": "B3",
                    "midi": 59,
                    "time": 486.291916000011,
                    "velocity": 0.6692913385826772,
                    "duration": 0.11235950000002504
                },
                {
                    "name": "A3",
                    "midi": 57,
                    "time": 486.404275500011,
                    "velocity": 0.6141732283464567,
                    "duration": 0.11235950000002504
                },
                {
                    "name": "E3",
                    "midi": 52,
                    "time": 486.51663500001104,
                    "velocity": 0.6377952755905512,
                    "duration": 0.22471899999999323
                },
                {
                    "name": "F3",
                    "midi": 53,
                    "time": 486.74135400001103,
                    "velocity": 0.7322834645669292,
                    "duration": 0.44943799999998646
                },
                {
                    "name": "F4",
                    "midi": 65,
                    "time": 486.74135400001103,
                    "velocity": 0.7322834645669292,
                    "duration": 0.44943799999998646
                },
                {
                    "name": "E3",
                    "midi": 52,
                    "time": 487.190792000011,
                    "velocity": 0.6850393700787402,
                    "duration": 0.22471899999999323
                },
                {
                    "name": "E4",
                    "midi": 64,
                    "time": 487.190792000011,
                    "velocity": 0.6850393700787402,
                    "duration": 0.22471899999999323
                },
                {
                    "name": "F3",
                    "midi": 53,
                    "time": 487.415511000011,
                    "velocity": 0.6850393700787402,
                    "duration": 0.1685392499999807
                },
                {
                    "name": "F4",
                    "midi": 65,
                    "time": 487.415511000011,
                    "velocity": 0.6850393700787402,
                    "duration": 0.1685392499999807
                },
                {
                    "name": "F3",
                    "midi": 53,
                    "time": 487.640230000011,
                    "velocity": 0.33858267716535434,
                    "duration": 0.11235950000002504
                },
                {
                    "name": "A3",
                    "midi": 57,
                    "time": 487.752589500011,
                    "velocity": 0.3543307086614173,
                    "duration": 0.11235950000002504
                },
                {
                    "name": "C#4",
                    "midi": 61,
                    "time": 487.86494900001105,
                    "velocity": 0.36220472440944884,
                    "duration": 0.11235950000002504
                },
                {
                    "name": "F4",
                    "midi": 65,
                    "time": 487.9773085000111,
                    "velocity": 0.3779527559055118,
                    "duration": 0.11235950000002504
                },
                {
                    "name": "C#5",
                    "midi": 73,
                    "time": 488.0896680000111,
                    "velocity": 0.4251968503937008,
                    "duration": 0.22471899999999323
                },
                {
                    "name": "F5",
                    "midi": 77,
                    "time": 488.0896680000111,
                    "velocity": 0.4251968503937008,
                    "duration": 0.22471899999999323
                },
                {
                    "name": "F3",
                    "midi": 53,
                    "time": 488.3143870000111,
                    "velocity": 0.33858267716535434,
                    "duration": 0.11235950000002504
                },
                {
                    "name": "A3",
                    "midi": 57,
                    "time": 488.4267465000111,
                    "velocity": 0.3464566929133858,
                    "duration": 0.11235950000002504
                },
                {
                    "name": "C#4",
                    "midi": 61,
                    "time": 488.53910600001115,
                    "velocity": 0.3543307086614173,
                    "duration": 0.11235950000002504
                },
                {
                    "name": "F4",
                    "midi": 65,
                    "time": 488.65146550001117,
                    "velocity": 0.36220472440944884,
                    "duration": 0.11235950000002504
                },
                {
                    "name": "C#5",
                    "midi": 73,
                    "time": 488.7638250000112,
                    "velocity": 0.4251968503937008,
                    "duration": 0.22471899999999323
                },
                {
                    "name": "F5",
                    "midi": 77,
                    "time": 488.7638250000112,
                    "velocity": 0.4251968503937008,
                    "duration": 0.22471899999999323
                },
                {
                    "name": "F3",
                    "midi": 53,
                    "time": 488.9885440000112,
                    "velocity": 0.36220472440944884,
                    "duration": 0.11235950000002504
                },
                {
                    "name": "A#3",
                    "midi": 58,
                    "time": 489.1009035000112,
                    "velocity": 0.36220472440944884,
                    "duration": 0.11235950000002504
                },
                {
                    "name": "C#4",
                    "midi": 61,
                    "time": 489.21326300001124,
                    "velocity": 0.3700787401574803,
                    "duration": 0.11235950000002504
                },
                {
                    "name": "F4",
                    "midi": 65,
                    "time": 489.32562250001126,
                    "velocity": 0.3700787401574803,
                    "duration": 0.11235950000002504
                },
                {
                    "name": "C#5",
                    "midi": 73,
                    "time": 489.4379820000113,
                    "velocity": 0.4251968503937008,
                    "duration": 0.22471899999999323
                },
                {
                    "name": "F5",
                    "midi": 77,
                    "time": 489.4379820000113,
                    "velocity": 0.4251968503937008,
                    "duration": 0.22471899999999323
                },
                {
                    "name": "F3",
                    "midi": 53,
                    "time": 489.6627010000113,
                    "velocity": 0.3543307086614173,
                    "duration": 0.11235950000002504
                },
                {
                    "name": "A#3",
                    "midi": 58,
                    "time": 489.7750605000113,
                    "velocity": 0.36220472440944884,
                    "duration": 0.11235950000002504
                },
                {
                    "name": "D4",
                    "midi": 62,
                    "time": 489.88742000001133,
                    "velocity": 0.3700787401574803,
                    "duration": 0.11235950000002504
                },
                {
                    "name": "F4",
                    "midi": 65,
                    "time": 489.99977950001136,
                    "velocity": 0.3858267716535433,
                    "duration": 0.11235950000002504
                },
                {
                    "name": "D5",
                    "midi": 74,
                    "time": 490.1121390000114,
                    "velocity": 0.4330708661417323,
                    "duration": 0.22471899999999323
                },
                {
                    "name": "F5",
                    "midi": 77,
                    "time": 490.1121390000114,
                    "velocity": 0.4330708661417323,
                    "duration": 0.22471899999999323
                },
                {
                    "name": "F#3",
                    "midi": 54,
                    "time": 490.3368580000114,
                    "velocity": 0.36220472440944884,
                    "duration": 0.11235950000002504
                },
                {
                    "name": "A#3",
                    "midi": 58,
                    "time": 490.4492175000114,
                    "velocity": 0.3700787401574803,
                    "duration": 0.11235950000002504
                },
                {
                    "name": "D4",
                    "midi": 62,
                    "time": 490.5615770000114,
                    "velocity": 0.3779527559055118,
                    "duration": 0.11235950000002504
                },
                {
                    "name": "F#4",
                    "midi": 66,
                    "time": 490.67393650001145,
                    "velocity": 0.3858267716535433,
                    "duration": 0.11235950000002504
                },
                {
                    "name": "D5",
                    "midi": 74,
                    "time": 490.7862960000115,
                    "velocity": 0.44881889763779526,
                    "duration": 0.22471899999999323
                },
                {
                    "name": "F#5",
                    "midi": 78,
                    "time": 490.7862960000115,
                    "velocity": 0.44881889763779526,
                    "duration": 0.22471899999999323
                },
                {
                    "name": "F#3",
                    "midi": 54,
                    "time": 491.01101500001147,
                    "velocity": 0.3700787401574803,
                    "duration": 0.11235950000002504
                },
                {
                    "name": "A#3",
                    "midi": 58,
                    "time": 491.1233745000115,
                    "velocity": 0.3779527559055118,
                    "duration": 0.11235950000002504
                },
                {
                    "name": "D#4",
                    "midi": 63,
                    "time": 491.2357340000115,
                    "velocity": 0.3858267716535433,
                    "duration": 0.11235950000002504
                },
                {
                    "name": "F#4",
                    "midi": 66,
                    "time": 491.34809350001154,
                    "velocity": 0.4015748031496063,
                    "duration": 0.11235950000002504
                },
                {
                    "name": "D#5",
                    "midi": 75,
                    "time": 491.46045300001157,
                    "velocity": 0.44881889763779526,
                    "duration": 0.22471899999999323
                },
                {
                    "name": "F#5",
                    "midi": 78,
                    "time": 491.46045300001157,
                    "velocity": 0.44881889763779526,
                    "duration": 0.22471899999999323
                },
                {
                    "name": "G3",
                    "midi": 55,
                    "time": 491.68517200001156,
                    "velocity": 0.3700787401574803,
                    "duration": 0.11235950000002504
                },
                {
                    "name": "C#4",
                    "midi": 61,
                    "time": 491.7975315000116,
                    "velocity": 0.3779527559055118,
                    "duration": 0.11235950000002504
                },
                {
                    "name": "E4",
                    "midi": 64,
                    "time": 491.9098910000116,
                    "velocity": 0.3937007874015748,
                    "duration": 0.11235950000002504
                },
                {
                    "name": "G4",
                    "midi": 67,
                    "time": 492.02225050001164,
                    "velocity": 0.4015748031496063,
                    "duration": 0.11235950000002504
                },
                {
                    "name": "E5",
                    "midi": 76,
                    "time": 492.13461000001166,
                    "velocity": 0.47244094488188976,
                    "duration": 0.22471899999999323
                },
                {
                    "name": "G5",
                    "midi": 79,
                    "time": 492.13461000001166,
                    "velocity": 0.47244094488188976,
                    "duration": 0.22471899999999323
                },
                {
                    "name": "G#4",
                    "midi": 68,
                    "time": 492.35932900001166,
                    "velocity": 0.4409448818897638,
                    "duration": 0.11235950000002504
                },
                {
                    "name": "C#5",
                    "midi": 73,
                    "time": 492.4716885000117,
                    "velocity": 0.47244094488188976,
                    "duration": 0.11235950000002504
                },
                {
                    "name": "F5",
                    "midi": 77,
                    "time": 492.5840480000117,
                    "velocity": 0.49606299212598426,
                    "duration": 0.11235950000002504
                },
                {
                    "name": "G#5",
                    "midi": 80,
                    "time": 492.69640750001173,
                    "velocity": 0.5275590551181102,
                    "duration": 0.33707850000001827
                },
                {
                    "name": "G#6",
                    "midi": 92,
                    "time": 492.80876700001176,
                    "velocity": 0.6062992125984252,
                    "duration": 0.22471899999999323
                },
                {
                    "name": "F6",
                    "midi": 89,
                    "time": 492.80876700001176,
                    "velocity": 0.6062992125984252,
                    "duration": 0.22471899999999323
                },
                {
                    "name": "C#6",
                    "midi": 85,
                    "time": 492.80876700001176,
                    "velocity": 0.6062992125984252,
                    "duration": 0.22471899999999323
                },
                {
                    "name": "C4",
                    "midi": 60,
                    "time": 493.25820500001174,
                    "velocity": 0.49606299212598426,
                    "duration": 0.07490633333333108
                },
                {
                    "name": "C#4",
                    "midi": 61,
                    "time": 493.3331113333451,
                    "velocity": 0.5039370078740157,
                    "duration": 0.07490633333333108
                },
                {
                    "name": "F4",
                    "midi": 65,
                    "time": 493.4080176666784,
                    "velocity": 0.5196850393700787,
                    "duration": 0.07490633333333108
                },
                {
                    "name": "G#4",
                    "midi": 68,
                    "time": 493.48292400001174,
                    "velocity": 0.5354330708661418,
                    "duration": 0.22471899999999323
                },
                {
                    "name": "B3",
                    "midi": 59,
                    "time": 493.9323620000117,
                    "velocity": 0.4881889763779528,
                    "duration": 0.07490633333333108
                },
                {
                    "name": "C4",
                    "midi": 60,
                    "time": 494.00726833334505,
                    "velocity": 0.49606299212598426,
                    "duration": 0.07490633333333108
                },
                {
                    "name": "F4",
                    "midi": 65,
                    "time": 494.0821746666784,
                    "velocity": 0.5118110236220472,
                    "duration": 0.07490633333333108
                },
                {
                    "name": "G#4",
                    "midi": 68,
                    "time": 494.1570810000117,
                    "velocity": 0.5275590551181102,
                    "duration": 0.22471899999999323
                },
                {
                    "name": "A3",
                    "midi": 57,
                    "time": 494.6065190000117,
                    "velocity": 0.4881889763779528,
                    "duration": 0.07490633333333108
                },
                {
                    "name": "A#3",
                    "midi": 58,
                    "time": 494.68142533334503,
                    "velocity": 0.5039370078740157,
                    "duration": 0.07490633333333108
                },
                {
                    "name": "F4",
                    "midi": 65,
                    "time": 494.75633166667836,
                    "velocity": 0.5196850393700787,
                    "duration": 0.07490633333333108
                },
                {
                    "name": "G#4",
                    "midi": 68,
                    "time": 494.8312380000117,
                    "velocity": 0.5354330708661418,
                    "duration": 0.22471899999999323
                },
                {
                    "name": "G#3",
                    "midi": 56,
                    "time": 495.5053950000117,
                    "velocity": 0.6771653543307087,
                    "duration": 0.22471899999999323
                },
                {
                    "name": "G#6",
                    "midi": 92,
                    "time": 496.17955200001165,
                    "velocity": 0.7086614173228346,
                    "duration": 0.8988759999999729
                },
                {
                    "name": "F6",
                    "midi": 89,
                    "time": 496.17955200001165,
                    "velocity": 0.7086614173228346,
                    "duration": 0.8988759999999729
                },
                {
                    "name": "G#5",
                    "midi": 80,
                    "time": 496.17955200001165,
                    "velocity": 0.7086614173228346,
                    "duration": 0.8988759999999729
                },
                {
                    "name": "G#5",
                    "midi": 80,
                    "time": 497.0784280000116,
                    "velocity": 0.6062992125984252,
                    "duration": 0.22471899999999323
                },
                {
                    "name": "D#6",
                    "midi": 87,
                    "time": 497.0784280000116,
                    "velocity": 0.6062992125984252,
                    "duration": 0.22471899999999323
                },
                {
                    "name": "G#6",
                    "midi": 92,
                    "time": 497.0784280000116,
                    "velocity": 0.6062992125984252,
                    "duration": 0.22471899999999323
                },
                {
                    "name": "G#5",
                    "midi": 80,
                    "time": 497.3031470000116,
                    "velocity": 0.6062992125984252,
                    "duration": 0.22471899999999323
                },
                {
                    "name": "F6",
                    "midi": 89,
                    "time": 497.3031470000116,
                    "velocity": 0.6062992125984252,
                    "duration": 0.22471899999999323
                },
                {
                    "name": "G#6",
                    "midi": 92,
                    "time": 497.3031470000116,
                    "velocity": 0.6062992125984252,
                    "duration": 0.22471899999999323
                },
                {
                    "name": "G#5",
                    "midi": 80,
                    "time": 497.5278660000116,
                    "velocity": 0.5905511811023622,
                    "duration": 0.22471899999999323
                },
                {
                    "name": "D#6",
                    "midi": 87,
                    "time": 497.5278660000116,
                    "velocity": 0.5905511811023622,
                    "duration": 0.22471899999999323
                },
                {
                    "name": "G#6",
                    "midi": 92,
                    "time": 497.5278660000116,
                    "velocity": 0.5905511811023622,
                    "duration": 0.22471899999999323
                },
                {
                    "name": "G#5",
                    "midi": 80,
                    "time": 497.7525850000116,
                    "velocity": 0.6299212598425197,
                    "duration": 0.22471899999999323
                },
                {
                    "name": "F6",
                    "midi": 89,
                    "time": 497.7525850000116,
                    "velocity": 0.6299212598425197,
                    "duration": 0.22471899999999323
                },
                {
                    "name": "G#6",
                    "midi": 92,
                    "time": 497.7525850000116,
                    "velocity": 0.6299212598425197,
                    "duration": 0.22471899999999323
                },
                {
                    "name": "G#5",
                    "midi": 80,
                    "time": 497.9773040000116,
                    "velocity": 0.6220472440944882,
                    "duration": 0.22471899999999323
                },
                {
                    "name": "G#6",
                    "midi": 92,
                    "time": 497.9773040000116,
                    "velocity": 0.6220472440944882,
                    "duration": 0.22471899999999323
                },
                {
                    "name": "D#6",
                    "midi": 87,
                    "time": 497.9773040000116,
                    "velocity": 0.6220472440944882,
                    "duration": 0.22471899999999323
                },
                {
                    "name": "G#6",
                    "midi": 92,
                    "time": 498.2020230000116,
                    "velocity": 0.7086614173228346,
                    "duration": 0.1685392499999807
                },
                {
                    "name": "F6",
                    "midi": 89,
                    "time": 498.2020230000116,
                    "velocity": 0.7086614173228346,
                    "duration": 0.1685392499999807
                },
                {
                    "name": "C#6",
                    "midi": 85,
                    "time": 498.2020230000116,
                    "velocity": 0.7086614173228346,
                    "duration": 0.1685392499999807
                },
                {
                    "name": "G#5",
                    "midi": 80,
                    "time": 498.2020230000116,
                    "velocity": 0.7086614173228346,
                    "duration": 0.1685392499999807
                },
                {
                    "name": "C4",
                    "midi": 60,
                    "time": 498.6514610000116,
                    "velocity": 0.49606299212598426,
                    "duration": 0.07490633333333108
                },
                {
                    "name": "C#4",
                    "midi": 61,
                    "time": 498.7263673333449,
                    "velocity": 0.5039370078740157,
                    "duration": 0.07490633333333108
                },
                {
                    "name": "F4",
                    "midi": 65,
                    "time": 498.80127366667824,
                    "velocity": 0.5196850393700787,
                    "duration": 0.07490633333333108
                },
                {
                    "name": "G#4",
                    "midi": 68,
                    "time": 498.8761800000116,
                    "velocity": 0.5354330708661418,
                    "duration": 0.22471899999999323
                },
                {
                    "name": "B3",
                    "midi": 59,
                    "time": 499.32561800001156,
                    "velocity": 0.4881889763779528,
                    "duration": 0.07490633333333108
                },
                {
                    "name": "C4",
                    "midi": 60,
                    "time": 499.4005243333449,
                    "velocity": 0.49606299212598426,
                    "duration": 0.07490633333333108
                },
                {
                    "name": "F4",
                    "midi": 65,
                    "time": 499.4754306666782,
                    "velocity": 0.5118110236220472,
                    "duration": 0.07490633333333108
                },
                {
                    "name": "G#4",
                    "midi": 68,
                    "time": 499.55033700001155,
                    "velocity": 0.5275590551181102,
                    "duration": 0.22471899999999323
                },
                {
                    "name": "A3",
                    "midi": 57,
                    "time": 499.99977500001154,
                    "velocity": 0.4881889763779528,
                    "duration": 0.07490633333333108
                },
                {
                    "name": "A#3",
                    "midi": 58,
                    "time": 500.07468133334487,
                    "velocity": 0.5039370078740157,
                    "duration": 0.07490633333333108
                },
                {
                    "name": "F4",
                    "midi": 65,
                    "time": 500.1495876666782,
                    "velocity": 0.5196850393700787,
                    "duration": 0.07490633333333108
                },
                {
                    "name": "G#4",
                    "midi": 68,
                    "time": 500.22449400001153,
                    "velocity": 0.5354330708661418,
                    "duration": 0.22471899999999323
                },
                {
                    "name": "G#3",
                    "midi": 56,
                    "time": 500.8986510000115,
                    "velocity": 0.6771653543307087,
                    "duration": 0.22471899999999323
                },
                {
                    "name": "G#6",
                    "midi": 92,
                    "time": 501.5728080000115,
                    "velocity": 0.7086614173228346,
                    "duration": 0.8988759999999729
                },
                {
                    "name": "F6",
                    "midi": 89,
                    "time": 501.5728080000115,
                    "velocity": 0.7086614173228346,
                    "duration": 0.8988759999999729
                },
                {
                    "name": "G#5",
                    "midi": 80,
                    "time": 501.5728080000115,
                    "velocity": 0.7086614173228346,
                    "duration": 0.8988759999999729
                },
                {
                    "name": "G#5",
                    "midi": 80,
                    "time": 502.47168400001146,
                    "velocity": 0.5826771653543307,
                    "duration": 0.22471899999999323
                },
                {
                    "name": "D#6",
                    "midi": 87,
                    "time": 502.47168400001146,
                    "velocity": 0.5826771653543307,
                    "duration": 0.22471899999999323
                },
                {
                    "name": "G#6",
                    "midi": 92,
                    "time": 502.47168400001146,
                    "velocity": 0.5826771653543307,
                    "duration": 0.22471899999999323
                },
                {
                    "name": "G#5",
                    "midi": 80,
                    "time": 502.69640300001146,
                    "velocity": 0.5590551181102362,
                    "duration": 0.22471899999999323
                },
                {
                    "name": "F6",
                    "midi": 89,
                    "time": 502.69640300001146,
                    "velocity": 0.5590551181102362,
                    "duration": 0.22471899999999323
                },
                {
                    "name": "G#6",
                    "midi": 92,
                    "time": 502.69640300001146,
                    "velocity": 0.5590551181102362,
                    "duration": 0.22471899999999323
                },
                {
                    "name": "G#5",
                    "midi": 80,
                    "time": 502.92112200001145,
                    "velocity": 0.5354330708661418,
                    "duration": 0.22471899999999323
                },
                {
                    "name": "D#6",
                    "midi": 87,
                    "time": 502.92112200001145,
                    "velocity": 0.5354330708661418,
                    "duration": 0.22471899999999323
                },
                {
                    "name": "G#6",
                    "midi": 92,
                    "time": 502.92112200001145,
                    "velocity": 0.5354330708661418,
                    "duration": 0.22471899999999323
                },
                {
                    "name": "G#5",
                    "midi": 80,
                    "time": 503.14584100001144,
                    "velocity": 0.5196850393700787,
                    "duration": 0.22471899999999323
                },
                {
                    "name": "F6",
                    "midi": 89,
                    "time": 503.14584100001144,
                    "velocity": 0.5196850393700787,
                    "duration": 0.22471899999999323
                },
                {
                    "name": "G#6",
                    "midi": 92,
                    "time": 503.14584100001144,
                    "velocity": 0.5196850393700787,
                    "duration": 0.22471899999999323
                },
                {
                    "name": "G#5",
                    "midi": 80,
                    "time": 503.37056000001144,
                    "velocity": 0.49606299212598426,
                    "duration": 0.22471899999999323
                },
                {
                    "name": "G#6",
                    "midi": 92,
                    "time": 503.37056000001144,
                    "velocity": 0.49606299212598426,
                    "duration": 0.22471899999999323
                },
                {
                    "name": "D#6",
                    "midi": 87,
                    "time": 503.37056000001144,
                    "velocity": 0.49606299212598426,
                    "duration": 0.22471899999999323
                },
                {
                    "name": "F6",
                    "midi": 89,
                    "time": 503.59527900001143,
                    "velocity": 0.4645669291338583,
                    "duration": 0.44943799999998646
                },
                {
                    "name": "G#6",
                    "midi": 92,
                    "time": 503.59527900001143,
                    "velocity": 0.4645669291338583,
                    "duration": 0.6741569999999797
                },
                {
                    "name": "G#5",
                    "midi": 80,
                    "time": 503.59527900001143,
                    "velocity": 0.4645669291338583,
                    "duration": 0.6741569999999797
                },
                {
                    "name": "D#6",
                    "midi": 87,
                    "time": 504.0447170000114,
                    "velocity": 0.4645669291338583,
                    "duration": 0.22471899999999323
                },
                {
                    "name": "F6",
                    "midi": 89,
                    "time": 504.2694360000114,
                    "velocity": 0.4566929133858268,
                    "duration": 0.44943799999998646
                },
                {
                    "name": "A6",
                    "midi": 93,
                    "time": 504.2694360000114,
                    "velocity": 0.4566929133858268,
                    "duration": 0.6741569999999797
                },
                {
                    "name": "A5",
                    "midi": 81,
                    "time": 504.2694360000114,
                    "velocity": 0.4566929133858268,
                    "duration": 0.6741569999999797
                },
                {
                    "name": "D#6",
                    "midi": 87,
                    "time": 504.7188740000114,
                    "velocity": 0.4566929133858268,
                    "duration": 0.22471899999999323
                },
                {
                    "name": "F6",
                    "midi": 89,
                    "time": 504.9435930000114,
                    "velocity": 0.47244094488188976,
                    "duration": 0.44943799999998646
                },
                {
                    "name": "A5",
                    "midi": 81,
                    "time": 504.9435930000114,
                    "velocity": 0.47244094488188976,
                    "duration": 0.6741569999999797
                },
                {
                    "name": "A6",
                    "midi": 93,
                    "time": 504.9435930000114,
                    "velocity": 0.47244094488188976,
                    "duration": 0.6741569999999797
                },
                {
                    "name": "D#6",
                    "midi": 87,
                    "time": 505.3930310000114,
                    "velocity": 0.4566929133858268,
                    "duration": 0.22471899999999323
                },
                {
                    "name": "F#6",
                    "midi": 90,
                    "time": 505.61775000001137,
                    "velocity": 0.4881889763779528,
                    "duration": 0.44943799999998646
                },
                {
                    "name": "A#5",
                    "midi": 82,
                    "time": 505.61775000001137,
                    "velocity": 0.4881889763779528,
                    "duration": 0.6741569999999797
                },
                {
                    "name": "A#6",
                    "midi": 94,
                    "time": 505.61775000001137,
                    "velocity": 0.4881889763779528,
                    "duration": 0.6741569999999797
                },
                {
                    "name": "E6",
                    "midi": 88,
                    "time": 506.06718800001136,
                    "velocity": 0.49606299212598426,
                    "duration": 0.22471899999999323
                },
                {
                    "name": "F#6",
                    "midi": 90,
                    "time": 506.29190700001135,
                    "velocity": 0.5039370078740157,
                    "duration": 0.44943799999998646
                },
                {
                    "name": "A#5",
                    "midi": 82,
                    "time": 506.29190700001135,
                    "velocity": 0.5039370078740157,
                    "duration": 0.6741569999999797
                },
                {
                    "name": "A#6",
                    "midi": 94,
                    "time": 506.29190700001135,
                    "velocity": 0.5039370078740157,
                    "duration": 0.6741569999999797
                },
                {
                    "name": "E6",
                    "midi": 88,
                    "time": 506.74134500001134,
                    "velocity": 0.5511811023622047,
                    "duration": 0.22471899999999323
                },
                {
                    "name": "G6",
                    "midi": 91,
                    "time": 506.96606400001133,
                    "velocity": 0.5826771653543307,
                    "duration": 0.44943799999998646
                },
                {
                    "name": "B5",
                    "midi": 83,
                    "time": 506.96606400001133,
                    "velocity": 0.5826771653543307,
                    "duration": 0.6741569999999797
                },
                {
                    "name": "B6",
                    "midi": 95,
                    "time": 506.96606400001133,
                    "velocity": 0.5826771653543307,
                    "duration": 0.6741569999999797
                },
                {
                    "name": "F6",
                    "midi": 89,
                    "time": 507.4155020000113,
                    "velocity": 0.5748031496062992,
                    "duration": 0.22471899999999323
                },
                {
                    "name": "G6",
                    "midi": 91,
                    "time": 507.6402210000113,
                    "velocity": 0.6141732283464567,
                    "duration": 0.44943799999998646
                },
                {
                    "name": "B5",
                    "midi": 83,
                    "time": 507.6402210000113,
                    "velocity": 0.6141732283464567,
                    "duration": 0.6741569999999797
                },
                {
                    "name": "B6",
                    "midi": 95,
                    "time": 507.6402210000113,
                    "velocity": 0.6141732283464567,
                    "duration": 0.6741569999999797
                },
                {
                    "name": "F6",
                    "midi": 89,
                    "time": 508.0896590000113,
                    "velocity": 0.6141732283464567,
                    "duration": 0.22471899999999323
                },
                {
                    "name": "G#6",
                    "midi": 92,
                    "time": 508.3143780000113,
                    "velocity": 0.6614173228346457,
                    "duration": 0.44943799999998646
                },
                {
                    "name": "C7",
                    "midi": 96,
                    "time": 508.3143780000113,
                    "velocity": 0.6614173228346457,
                    "duration": 0.6741569999999797
                },
                {
                    "name": "C6",
                    "midi": 84,
                    "time": 508.3143780000113,
                    "velocity": 0.6614173228346457,
                    "duration": 0.6741569999999797
                },
                {
                    "name": "F#6",
                    "midi": 90,
                    "time": 508.7638160000113,
                    "velocity": 0.6771653543307087,
                    "duration": 0.22471899999999323
                },
                {
                    "name": "F7",
                    "midi": 101,
                    "time": 508.98853500001127,
                    "velocity": 0.7952755905511811,
                    "duration": 0.22471899999999323
                },
                {
                    "name": "D#7",
                    "midi": 99,
                    "time": 509.21325400001126,
                    "velocity": 0.7874015748031497,
                    "duration": 0.11235950000002504
                },
                {
                    "name": "C#7",
                    "midi": 97,
                    "time": 509.3256135000113,
                    "velocity": 0.7559055118110236,
                    "duration": 0.11235950000002504
                },
                {
                    "name": "G#6",
                    "midi": 92,
                    "time": 509.4379730000113,
                    "velocity": 0.7716535433070866,
                    "duration": 0.11235950000002504
                },
                {
                    "name": "F6",
                    "midi": 89,
                    "time": 509.55033250001134,
                    "velocity": 0.7322834645669292,
                    "duration": 0.11235950000002504
                },
                {
                    "name": "D#6",
                    "midi": 87,
                    "time": 509.66269200001136,
                    "velocity": 0.7480314960629921,
                    "duration": 0.11235950000002504
                },
                {
                    "name": "C#6",
                    "midi": 85,
                    "time": 509.7750515000114,
                    "velocity": 0.7007874015748031,
                    "duration": 0.11235950000002504
                },
                {
                    "name": "G#5",
                    "midi": 80,
                    "time": 509.8874110000114,
                    "velocity": 0.7244094488188977,
                    "duration": 0.11235950000002504
                },
                {
                    "name": "F5",
                    "midi": 77,
                    "time": 509.99977050001144,
                    "velocity": 0.6771653543307087,
                    "duration": 0.11235950000002504
                },
                {
                    "name": "D#5",
                    "midi": 75,
                    "time": 510.11213000001146,
                    "velocity": 0.7007874015748031,
                    "duration": 0.11235950000002504
                },
                {
                    "name": "C#5",
                    "midi": 73,
                    "time": 510.2244895000115,
                    "velocity": 0.6535433070866141,
                    "duration": 0.11235950000002504
                },
                {
                    "name": "G#4",
                    "midi": 68,
                    "time": 510.3368490000115,
                    "velocity": 0.6771653543307087,
                    "duration": 0.11235950000002504
                },
                {
                    "name": "F4",
                    "midi": 65,
                    "time": 510.44920850001154,
                    "velocity": 0.6377952755905512,
                    "duration": 0.11235950000002504
                },
                {
                    "name": "D#4",
                    "midi": 63,
                    "time": 510.56156800001156,
                    "velocity": 0.6535433070866141,
                    "duration": 0.11235950000002504
                },
                {
                    "name": "C#4",
                    "midi": 61,
                    "time": 510.6739275000116,
                    "velocity": 0.6220472440944882,
                    "duration": 0.11235950000002504
                },
                {
                    "name": "G#3",
                    "midi": 56,
                    "time": 510.7862870000116,
                    "velocity": 0.6299212598425197,
                    "duration": 0.22471899999999323
                },
                {
                    "name": "F4",
                    "midi": 65,
                    "time": 511.0110060000116,
                    "velocity": 0.5039370078740157,
                    "duration": 0.6741569999999797
                },
                {
                    "name": "A3",
                    "midi": 57,
                    "time": 511.0110060000116,
                    "velocity": 0.6929133858267716,
                    "duration": 0.44943799999998646
                },
                {
                    "name": "A4",
                    "midi": 69,
                    "time": 511.0110060000116,
                    "velocity": 0.6929133858267716,
                    "duration": 0.44943799999998646
                },
                {
                    "name": "G#3",
                    "midi": 56,
                    "time": 511.4604440000116,
                    "velocity": 0.6535433070866141,
                    "duration": 0.22471899999999323
                },
                {
                    "name": "G#4",
                    "midi": 68,
                    "time": 511.4604440000116,
                    "velocity": 0.6535433070866141,
                    "duration": 0.22471899999999323
                },
                {
                    "name": "F7",
                    "midi": 101,
                    "time": 511.6851630000116,
                    "velocity": 0.7874015748031497,
                    "duration": 0.22471899999999323
                },
                {
                    "name": "D#7",
                    "midi": 99,
                    "time": 511.9098820000116,
                    "velocity": 0.7795275590551181,
                    "duration": 0.1123594999999682
                },
                {
                    "name": "C#7",
                    "midi": 97,
                    "time": 512.0222415000115,
                    "velocity": 0.7244094488188977,
                    "duration": 0.11235950000002504
                },
                {
                    "name": "G#6",
                    "midi": 92,
                    "time": 512.1346010000116,
                    "velocity": 0.7559055118110236,
                    "duration": 0.11235950000002504
                },
                {
                    "name": "F6",
                    "midi": 89,
                    "time": 512.2469605000116,
                    "velocity": 0.7165354330708661,
                    "duration": 0.11235950000002504
                },
                {
                    "name": "D#6",
                    "midi": 87,
                    "time": 512.3593200000116,
                    "velocity": 0.7322834645669292,
                    "duration": 0.11235950000002504
                },
                {
                    "name": "C#6",
                    "midi": 85,
                    "time": 512.4716795000116,
                    "velocity": 0.6929133858267716,
                    "duration": 0.11235950000002504
                },
                {
                    "name": "G#5",
                    "midi": 80,
                    "time": 512.5840390000117,
                    "velocity": 0.7086614173228346,
                    "duration": 0.11235950000002504
                },
                {
                    "name": "F5",
                    "midi": 77,
                    "time": 512.6963985000117,
                    "velocity": 0.6771653543307087,
                    "duration": 0.11235950000002504
                },
                {
                    "name": "D#5",
                    "midi": 75,
                    "time": 512.8087580000117,
                    "velocity": 0.6850393700787402,
                    "duration": 0.11235950000002504
                },
                {
                    "name": "C#5",
                    "midi": 73,
                    "time": 512.9211175000117,
                    "velocity": 0.6377952755905512,
                    "duration": 0.11235950000002504
                },
                {
                    "name": "G#4",
                    "midi": 68,
                    "time": 513.0334770000118,
                    "velocity": 0.6614173228346457,
                    "duration": 0.11235950000002504
                },
                {
                    "name": "F4",
                    "midi": 65,
                    "time": 513.1458365000118,
                    "velocity": 0.6220472440944882,
                    "duration": 0.11235950000002504
                },
                {
                    "name": "D#4",
                    "midi": 63,
                    "time": 513.2581960000118,
                    "velocity": 0.6456692913385826,
                    "duration": 0.11235950000002504
                },
                {
                    "name": "C#4",
                    "midi": 61,
                    "time": 513.3705555000118,
                    "velocity": 0.5984251968503937,
                    "duration": 0.11235950000002504
                },
                {
                    "name": "G#3",
                    "midi": 56,
                    "time": 513.4829150000119,
                    "velocity": 0.6220472440944882,
                    "duration": 0.22471900000005007
                },
                {
                    "name": "F4",
                    "midi": 65,
                    "time": 513.7076340000119,
                    "velocity": 0.6456692913385826,
                    "duration": 0.6741570000000365
                },
                {
                    "name": "A3",
                    "midi": 57,
                    "time": 513.7076340000119,
                    "velocity": 0.6456692913385826,
                    "duration": 0.44943799999998646
                },
                {
                    "name": "A4",
                    "midi": 69,
                    "time": 513.7076340000119,
                    "velocity": 0.6456692913385826,
                    "duration": 0.44943799999998646
                },
                {
                    "name": "G#3",
                    "midi": 56,
                    "time": 514.1570720000119,
                    "velocity": 0.6062992125984252,
                    "duration": 0.22471900000005007
                },
                {
                    "name": "G#4",
                    "midi": 68,
                    "time": 514.1570720000119,
                    "velocity": 0.6062992125984252,
                    "duration": 0.22471900000005007
                },
                {
                    "name": "G#3",
                    "midi": 56,
                    "time": 514.381791000012,
                    "velocity": 0.5511811023622047,
                    "duration": 0.22471900000005007
                },
                {
                    "name": "F4",
                    "midi": 65,
                    "time": 514.381791000012,
                    "velocity": 0.5511811023622047,
                    "duration": 0.22471900000005007
                },
                {
                    "name": "G#4",
                    "midi": 68,
                    "time": 514.381791000012,
                    "velocity": 0.5511811023622047,
                    "duration": 0.22471900000005007
                },
                {
                    "name": "A3",
                    "midi": 57,
                    "time": 515.055948000012,
                    "velocity": 0.6456692913385826,
                    "duration": 0.44943799999998646
                },
                {
                    "name": "A4",
                    "midi": 69,
                    "time": 515.055948000012,
                    "velocity": 0.6456692913385826,
                    "duration": 0.44943799999998646
                },
                {
                    "name": "G#3",
                    "midi": 56,
                    "time": 515.505386000012,
                    "velocity": 0.6062992125984252,
                    "duration": 0.22471900000005007
                },
                {
                    "name": "G#4",
                    "midi": 68,
                    "time": 515.505386000012,
                    "velocity": 0.6062992125984252,
                    "duration": 0.22471900000005007
                },
                {
                    "name": "G#3",
                    "midi": 56,
                    "time": 515.730105000012,
                    "velocity": 0.5590551181102362,
                    "duration": 0.22471900000005007
                },
                {
                    "name": "F4",
                    "midi": 65,
                    "time": 515.730105000012,
                    "velocity": 0.5590551181102362,
                    "duration": 0.22471900000005007
                },
                {
                    "name": "G#4",
                    "midi": 68,
                    "time": 515.730105000012,
                    "velocity": 0.5590551181102362,
                    "duration": 0.22471900000005007
                },
                {
                    "name": "A3",
                    "midi": 57,
                    "time": 516.4042620000121,
                    "velocity": 0.6535433070866141,
                    "duration": 0.44943799999998646
                },
                {
                    "name": "A4",
                    "midi": 69,
                    "time": 516.4042620000121,
                    "velocity": 0.6535433070866141,
                    "duration": 0.44943799999998646
                },
                {
                    "name": "G#3",
                    "midi": 56,
                    "time": 516.853700000012,
                    "velocity": 0.6062992125984252,
                    "duration": 0.22471900000005007
                },
                {
                    "name": "G#4",
                    "midi": 68,
                    "time": 516.853700000012,
                    "velocity": 0.6062992125984252,
                    "duration": 0.22471900000005007
                },
                {
                    "name": "G#3",
                    "midi": 56,
                    "time": 517.0784190000121,
                    "velocity": 0.5826771653543307,
                    "duration": 0.22471900000005007
                },
                {
                    "name": "F4",
                    "midi": 65,
                    "time": 517.0784190000121,
                    "velocity": 0.5826771653543307,
                    "duration": 0.22471900000005007
                },
                {
                    "name": "G#4",
                    "midi": 68,
                    "time": 517.0784190000121,
                    "velocity": 0.5826771653543307,
                    "duration": 0.22471900000005007
                },
                {
                    "name": "A3",
                    "midi": 57,
                    "time": 517.7525760000121,
                    "velocity": 0.6771653543307087,
                    "duration": 0.44943799999998646
                },
                {
                    "name": "A4",
                    "midi": 69,
                    "time": 517.7525760000121,
                    "velocity": 0.6771653543307087,
                    "duration": 0.44943799999998646
                },
                {
                    "name": "G#3",
                    "midi": 56,
                    "time": 518.2020140000121,
                    "velocity": 0.6377952755905512,
                    "duration": 0.22471900000005007
                },
                {
                    "name": "G#4",
                    "midi": 68,
                    "time": 518.2020140000121,
                    "velocity": 0.6377952755905512,
                    "duration": 0.22471900000005007
                },
                {
                    "name": "A3",
                    "midi": 57,
                    "time": 518.4267330000122,
                    "velocity": 0.5590551181102362,
                    "duration": 0.1685392499999807
                },
                {
                    "name": "F4",
                    "midi": 65,
                    "time": 518.4267330000122,
                    "velocity": 0.5590551181102362,
                    "duration": 0.1685392499999807
                },
                {
                    "name": "A4",
                    "midi": 69,
                    "time": 518.4267330000122,
                    "velocity": 0.5590551181102362,
                    "duration": 0.1685392499999807
                },
                {
                    "name": "G#3",
                    "midi": 56,
                    "time": 518.6514520000121,
                    "velocity": 0.5748031496062992,
                    "duration": 0.1685392499999807
                },
                {
                    "name": "F4",
                    "midi": 65,
                    "time": 518.6514520000121,
                    "velocity": 0.5748031496062992,
                    "duration": 0.1685392499999807
                },
                {
                    "name": "G#4",
                    "midi": 68,
                    "time": 518.6514520000121,
                    "velocity": 0.5748031496062992,
                    "duration": 0.1685392499999807
                },
                {
                    "name": "A3",
                    "midi": 57,
                    "time": 518.876171000012,
                    "velocity": 0.5826771653543307,
                    "duration": 0.1685392499999807
                },
                {
                    "name": "F4",
                    "midi": 65,
                    "time": 518.876171000012,
                    "velocity": 0.5826771653543307,
                    "duration": 0.1685392499999807
                },
                {
                    "name": "A4",
                    "midi": 69,
                    "time": 518.876171000012,
                    "velocity": 0.5826771653543307,
                    "duration": 0.1685392499999807
                },
                {
                    "name": "G#3",
                    "midi": 56,
                    "time": 519.100890000012,
                    "velocity": 0.5984251968503937,
                    "duration": 0.1685392499999807
                },
                {
                    "name": "F4",
                    "midi": 65,
                    "time": 519.100890000012,
                    "velocity": 0.5984251968503937,
                    "duration": 0.1685392499999807
                },
                {
                    "name": "G#4",
                    "midi": 68,
                    "time": 519.100890000012,
                    "velocity": 0.5984251968503937,
                    "duration": 0.1685392499999807
                },
                {
                    "name": "A3",
                    "midi": 57,
                    "time": 519.3256090000119,
                    "velocity": 0.6062992125984252,
                    "duration": 0.1685392499999807
                },
                {
                    "name": "F4",
                    "midi": 65,
                    "time": 519.3256090000119,
                    "velocity": 0.6062992125984252,
                    "duration": 0.1685392499999807
                },
                {
                    "name": "A4",
                    "midi": 69,
                    "time": 519.3256090000119,
                    "velocity": 0.6062992125984252,
                    "duration": 0.1685392499999807
                },
                {
                    "name": "G#3",
                    "midi": 56,
                    "time": 519.5503280000119,
                    "velocity": 0.6220472440944882,
                    "duration": 0.1685392499999807
                },
                {
                    "name": "F4",
                    "midi": 65,
                    "time": 519.5503280000119,
                    "velocity": 0.6220472440944882,
                    "duration": 0.1685392499999807
                },
                {
                    "name": "G#4",
                    "midi": 68,
                    "time": 519.5503280000119,
                    "velocity": 0.6220472440944882,
                    "duration": 0.1685392499999807
                },
                {
                    "name": "A3",
                    "midi": 57,
                    "time": 519.7750470000118,
                    "velocity": 0.7007874015748031,
                    "duration": 0.1685392499999807
                },
                {
                    "name": "F4",
                    "midi": 65,
                    "time": 519.7750470000118,
                    "velocity": 0.7007874015748031,
                    "duration": 0.1685392499999807
                },
                {
                    "name": "A4",
                    "midi": 69,
                    "time": 519.7750470000118,
                    "velocity": 0.7007874015748031,
                    "duration": 0.1685392499999807
                },
                {
                    "name": "C4",
                    "midi": 60,
                    "time": 520.4492040000118,
                    "velocity": 0.6692913385826772,
                    "duration": 0.22471900000005007
                },
                {
                    "name": "E4",
                    "midi": 64,
                    "time": 520.4492040000118,
                    "velocity": 0.6692913385826772,
                    "duration": 0.22471900000005007
                },
                {
                    "name": "A#4",
                    "midi": 70,
                    "time": 520.4492040000118,
                    "velocity": 0.7874015748031497,
                    "duration": 0.22471900000005007
                },
                {
                    "name": "C5",
                    "midi": 72,
                    "time": 520.4492040000118,
                    "velocity": 0.7874015748031497,
                    "duration": 0.22471900000005007
                },
                {
                    "name": "A4",
                    "midi": 69,
                    "time": 521.1233610000119,
                    "velocity": 0.6692913385826772,
                    "duration": 0.22471900000005007
                },
                {
                    "name": "C5",
                    "midi": 72,
                    "time": 521.1233610000119,
                    "velocity": 0.7874015748031497,
                    "duration": 0.22471900000005007
                },
                {
                    "name": "A5",
                    "midi": 81,
                    "time": 521.1233610000119,
                    "velocity": 0.7874015748031497,
                    "duration": 0.22471900000005007
                },
                {
                    "name": "F5",
                    "midi": 77,
                    "time": 521.1233610000119,
                    "velocity": 0.7874015748031497,
                    "duration": 0.22471900000005007
                },
                {
                    "name": "F#4",
                    "midi": 66,
                    "time": 521.7975180000119,
                    "velocity": 0.6692913385826772,
                    "duration": 0.22471900000005007
                },
                {
                    "name": "G#4",
                    "midi": 68,
                    "time": 521.7975180000119,
                    "velocity": 0.6692913385826772,
                    "duration": 0.22471900000005007
                },
                {
                    "name": "C5",
                    "midi": 72,
                    "time": 521.7975180000119,
                    "velocity": 0.7874015748031497,
                    "duration": 0.22471900000005007
                },
                {
                    "name": "D#5",
                    "midi": 75,
                    "time": 521.7975180000119,
                    "velocity": 0.7874015748031497,
                    "duration": 0.22471900000005007
                },
                {
                    "name": "F#5",
                    "midi": 78,
                    "time": 521.7975180000119,
                    "velocity": 0.7874015748031497,
                    "duration": 0.22471900000005007
                },
                {
                    "name": "G#5",
                    "midi": 80,
                    "time": 521.7975180000119,
                    "velocity": 0.7874015748031497,
                    "duration": 0.22471900000005007
                },
                {
                    "name": "F4",
                    "midi": 65,
                    "time": 522.4716750000119,
                    "velocity": 0.6692913385826772,
                    "duration": 0.6741570000000365
                },
                {
                    "name": "G#4",
                    "midi": 68,
                    "time": 522.4716750000119,
                    "velocity": 0.6692913385826772,
                    "duration": 0.6741570000000365
                },
                {
                    "name": "C#5",
                    "midi": 73,
                    "time": 522.4716750000119,
                    "velocity": 0.7874015748031497,
                    "duration": 0.6741570000000365
                },
                {
                    "name": "F5",
                    "midi": 77,
                    "time": 522.4716750000119,
                    "velocity": 0.7874015748031497,
                    "duration": 0.6741570000000365
                },
                {
                    "name": "F3",
                    "midi": 53,
                    "time": 523.819989000012,
                    "velocity": 0.6692913385826772,
                    "duration": 0.6741570000000365
                },
                {
                    "name": "G#3",
                    "midi": 56,
                    "time": 523.819989000012,
                    "velocity": 0.6692913385826772,
                    "duration": 0.6741570000000365
                },
                {
                    "name": "C#4",
                    "midi": 61,
                    "time": 523.819989000012,
                    "velocity": 0.7952755905511811,
                    "duration": 0.6741570000000365
                },
                {
                    "name": "F4",
                    "midi": 65,
                    "time": 523.819989000012,
                    "velocity": 0.7952755905511811,
                    "duration": 0.6741570000000365
                },
                {
                    "name": "C#4",
                    "midi": 61,
                    "time": 525.0559435000121,
                    "velocity": 0.5748031496062992,
                    "duration": 0.11235950000002504
                },
                {
                    "name": "G#4",
                    "midi": 68,
                    "time": 525.0559435000121,
                    "velocity": 0.6850393700787402,
                    "duration": 0.11235950000002504
                },
                {
                    "name": "C#5",
                    "midi": 73,
                    "time": 525.0559435000121,
                    "velocity": 0.6850393700787402,
                    "duration": 0.11235950000002504
                },
                {
                    "name": "F7",
                    "midi": 101,
                    "time": 525.1683030000121,
                    "velocity": 0.968503937007874,
                    "duration": 0.6741570000000365
                }
            ],
            "controlChanges": {
                "7": [
                    {
                        "number": 7,
                        "time": 0,
                        "value": 0.7874015748031497
                    }
                ],
                "10": [
                    {
                        "number": 10,
                        "time": 0,
                        "value": 0.5039370078740157
                    }
                ],
                "64": [
                    {
                        "number": 64,
                        "time": 0,
                        "value": 0
                    }
                ],
                "91": [
                    {
                        "number": 91,
                        "time": 0,
                        "value": 1
                    },
                    {
                        "number": 91,
                        "time": 0,
                        "value": 1
                    },
                    {
                        "number": 91,
                        "time": 16.17976800000001,
                        "value": 1
                    },
                    {
                        "number": 91,
                        "time": 43.1460479999999,
                        "value": 1
                    },
                    {
                        "number": 91,
                        "time": 88.9887239999996,
                        "value": 1
                    },
                    {
                        "number": 91,
                        "time": 105.16849199999953,
                        "value": 1
                    },
                    {
                        "number": 91,
                        "time": 121.34825999999958,
                        "value": 1
                    },
                    {
                        "number": 91,
                        "time": 132.1347719999994,
                        "value": 1
                    },
                    {
                        "number": 91,
                        "time": 177.97744799999884,
                        "value": 1
                    },
                    {
                        "number": 91,
                        "time": 191.46058799999872,
                        "value": 1
                    },
                    {
                        "number": 91,
                        "time": 246.06730499999748,
                        "value": 1
                    },
                    {
                        "number": 91,
                        "time": 260.224601999998,
                        "value": 1
                    },
                    {
                        "number": 91,
                        "time": 331.0110870000064,
                        "value": 1
                    },
                    {
                        "number": 91,
                        "time": 393.03353100000913,
                        "value": 1
                    },
                    {
                        "number": 91,
                        "time": 409.21329900000933,
                        "value": 1
                    },
                    {
                        "number": 91,
                        "time": 425.3930670000095,
                        "value": 1
                    },
                    {
                        "number": 91,
                        "time": 436.1795790000106,
                        "value": 1
                    }
                ]
            },
            "id": 1,
            "name": "Piano right",
            "instrumentNumber": 0,
            "instrument": "acoustic grand piano",
            "instrumentFamily": "piano",
            "channelNumber": 0,
            "isPercussion": false
        },
        {
            "startTime": 0.0009363291666666668,
            "duration": 525.8424600000067,
            "length": 2959,
            "notes": [
                {
                    "name": "A#2",
                    "midi": 46,
                    "time": 0.0009363291666666668,
                    "velocity": 0.3228346456692913,
                    "duration": 0.4494380000000001
                },
                {
                    "name": "A2",
                    "midi": 45,
                    "time": 0.4494380000000001,
                    "velocity": 0.2125984251968504,
                    "duration": 0.07490633333333341
                },
                {
                    "name": "A#2",
                    "midi": 46,
                    "time": 0.5243443333333335,
                    "velocity": 0.2204724409448819,
                    "duration": 0.0749063333333333
                },
                {
                    "name": "C#3",
                    "midi": 49,
                    "time": 0.5992506666666668,
                    "velocity": 0.2283464566929134,
                    "duration": 0.0749063333333333
                },
                {
                    "name": "F3",
                    "midi": 53,
                    "time": 0.6741570000000001,
                    "velocity": 0.25984251968503935,
                    "duration": 0.11235950000000006
                },
                {
                    "name": "A2",
                    "midi": 45,
                    "time": 1.1235950000000003,
                    "velocity": 0.2047244094488189,
                    "duration": 0.0749063333333333
                },
                {
                    "name": "A#2",
                    "midi": 46,
                    "time": 1.1985013333333336,
                    "velocity": 0.2125984251968504,
                    "duration": 0.0749063333333333
                },
                {
                    "name": "C#3",
                    "midi": 49,
                    "time": 1.273407666666667,
                    "velocity": 0.2283464566929134,
                    "duration": 0.0749063333333333
                },
                {
                    "name": "F3",
                    "midi": 53,
                    "time": 1.3483140000000002,
                    "velocity": 0.25196850393700787,
                    "duration": 0.11235949999999995
                },
                {
                    "name": "A#1",
                    "midi": 34,
                    "time": 2.6966280000000005,
                    "velocity": 0.7480314960629921,
                    "duration": 0.11235950000000017
                },
                {
                    "name": "A#2",
                    "midi": 46,
                    "time": 2.6966280000000005,
                    "velocity": 0.7480314960629921,
                    "duration": 0.11235950000000017
                },
                {
                    "name": "A#3",
                    "midi": 58,
                    "time": 3.3707850000000006,
                    "velocity": 0.5669291338582677,
                    "duration": 1.3483140000000002
                },
                {
                    "name": "C4",
                    "midi": 60,
                    "time": 3.3707850000000006,
                    "velocity": 0.5669291338582677,
                    "duration": 1.3483140000000002
                },
                {
                    "name": "D#4",
                    "midi": 63,
                    "time": 3.3707850000000006,
                    "velocity": 0.6692913385826772,
                    "duration": 1.3483140000000002
                },
                {
                    "name": "F#4",
                    "midi": 66,
                    "time": 3.3707850000000006,
                    "velocity": 0.6692913385826772,
                    "duration": 1.3483140000000002
                },
                {
                    "name": "A#4",
                    "midi": 70,
                    "time": 3.3707850000000006,
                    "velocity": 0.6692913385826772,
                    "duration": 1.3483140000000002
                },
                {
                    "name": "A#3",
                    "midi": 58,
                    "time": 4.719099000000001,
                    "velocity": 0.3700787401574803,
                    "duration": 0.3370784999999996
                },
                {
                    "name": "C4",
                    "midi": 60,
                    "time": 4.719099000000001,
                    "velocity": 0.3700787401574803,
                    "duration": 0.3370784999999996
                },
                {
                    "name": "D#4",
                    "midi": 63,
                    "time": 4.719099000000001,
                    "velocity": 0.4409448818897638,
                    "duration": 0.3370784999999996
                },
                {
                    "name": "F#4",
                    "midi": 66,
                    "time": 4.719099000000001,
                    "velocity": 0.4409448818897638,
                    "duration": 0.3370784999999996
                },
                {
                    "name": "A#4",
                    "midi": 70,
                    "time": 4.719099000000001,
                    "velocity": 0.4409448818897638,
                    "duration": 0.3370784999999996
                },
                {
                    "name": "A#3",
                    "midi": 58,
                    "time": 5.0561775,
                    "velocity": 0.4015748031496063,
                    "duration": 0.11235950000000017
                },
                {
                    "name": "C4",
                    "midi": 60,
                    "time": 5.0561775,
                    "velocity": 0.4015748031496063,
                    "duration": 0.11235950000000017
                },
                {
                    "name": "D#4",
                    "midi": 63,
                    "time": 5.0561775,
                    "velocity": 0.48031496062992124,
                    "duration": 0.11235950000000017
                },
                {
                    "name": "F#4",
                    "midi": 66,
                    "time": 5.0561775,
                    "velocity": 0.48031496062992124,
                    "duration": 0.11235950000000017
                },
                {
                    "name": "A#4",
                    "midi": 70,
                    "time": 5.0561775,
                    "velocity": 0.48031496062992124,
                    "duration": 0.11235950000000017
                },
                {
                    "name": "A#3",
                    "midi": 58,
                    "time": 5.168537000000001,
                    "velocity": 0.4409448818897638,
                    "duration": 0.22471900000000034
                },
                {
                    "name": "C4",
                    "midi": 60,
                    "time": 5.168537000000001,
                    "velocity": 0.4409448818897638,
                    "duration": 0.22471900000000034
                },
                {
                    "name": "D#4",
                    "midi": 63,
                    "time": 5.168537000000001,
                    "velocity": 0.5196850393700787,
                    "duration": 0.22471900000000034
                },
                {
                    "name": "F#4",
                    "midi": 66,
                    "time": 5.168537000000001,
                    "velocity": 0.5196850393700787,
                    "duration": 0.22471900000000034
                },
                {
                    "name": "A#4",
                    "midi": 70,
                    "time": 5.168537000000001,
                    "velocity": 0.5196850393700787,
                    "duration": 0.22471900000000034
                },
                {
                    "name": "A#3",
                    "midi": 58,
                    "time": 5.393256000000001,
                    "velocity": 0.4094488188976378,
                    "duration": 0.22471900000000034
                },
                {
                    "name": "C#4",
                    "midi": 61,
                    "time": 5.393256000000001,
                    "velocity": 0.4094488188976378,
                    "duration": 0.22471900000000034
                },
                {
                    "name": "F4",
                    "midi": 65,
                    "time": 5.393256000000001,
                    "velocity": 0.4881889763779528,
                    "duration": 0.22471900000000034
                },
                {
                    "name": "A#4",
                    "midi": 70,
                    "time": 5.393256000000001,
                    "velocity": 0.4881889763779528,
                    "duration": 0.22471900000000034
                },
                {
                    "name": "A2",
                    "midi": 45,
                    "time": 5.842694000000002,
                    "velocity": 0.2125984251968504,
                    "duration": 0.07490633333333374
                },
                {
                    "name": "A#2",
                    "midi": 46,
                    "time": 5.917600333333335,
                    "velocity": 0.2204724409448819,
                    "duration": 0.07490633333333374
                },
                {
                    "name": "C#3",
                    "midi": 49,
                    "time": 5.992506666666669,
                    "velocity": 0.23622047244094488,
                    "duration": 0.07490633333333374
                },
                {
                    "name": "F3",
                    "midi": 53,
                    "time": 6.067413000000003,
                    "velocity": 0.25984251968503935,
                    "duration": 0.11235950000000017
                },
                {
                    "name": "A2",
                    "midi": 45,
                    "time": 6.516851000000003,
                    "velocity": 0.2047244094488189,
                    "duration": 0.07490633333333374
                },
                {
                    "name": "A#2",
                    "midi": 46,
                    "time": 6.591757333333336,
                    "velocity": 0.2204724409448819,
                    "duration": 0.07490633333333374
                },
                {
                    "name": "C#3",
                    "midi": 49,
                    "time": 6.66666366666667,
                    "velocity": 0.23622047244094488,
                    "duration": 0.07490633333333374
                },
                {
                    "name": "F3",
                    "midi": 53,
                    "time": 6.741570000000004,
                    "velocity": 0.2677165354330709,
                    "duration": 0.11235950000000017
                },
                {
                    "name": "G#1",
                    "midi": 32,
                    "time": 8.089884000000005,
                    "velocity": 0.7480314960629921,
                    "duration": 0.11235950000000017
                },
                {
                    "name": "G#2",
                    "midi": 44,
                    "time": 8.089884000000005,
                    "velocity": 0.7480314960629921,
                    "duration": 0.11235950000000017
                },
                {
                    "name": "G#3",
                    "midi": 56,
                    "time": 8.707861250000006,
                    "velocity": 0.5669291338582677,
                    "duration": 1.4044937499999985
                },
                {
                    "name": "F4",
                    "midi": 65,
                    "time": 8.735951125000005,
                    "velocity": 0.5984251968503937,
                    "duration": 1.3764038749999994
                },
                {
                    "name": "C#5",
                    "midi": 73,
                    "time": 8.764041000000004,
                    "velocity": 0.7007874015748031,
                    "duration": 1.3483140000000002
                },
                {
                    "name": "G#3",
                    "midi": 56,
                    "time": 10.112355000000004,
                    "velocity": 0.3858267716535433,
                    "duration": 0.3370785000000005
                },
                {
                    "name": "D#4",
                    "midi": 63,
                    "time": 10.112355000000004,
                    "velocity": 0.4566929133858268,
                    "duration": 0.3370785000000005
                },
                {
                    "name": "F#4",
                    "midi": 66,
                    "time": 10.112355000000004,
                    "velocity": 0.4566929133858268,
                    "duration": 0.3370785000000005
                },
                {
                    "name": "G#4",
                    "midi": 68,
                    "time": 10.112355000000004,
                    "velocity": 0.4566929133858268,
                    "duration": 0.3370785000000005
                },
                {
                    "name": "G#3",
                    "midi": 56,
                    "time": 10.449433500000005,
                    "velocity": 0.41732283464566927,
                    "duration": 0.11235950000000017
                },
                {
                    "name": "D#4",
                    "midi": 63,
                    "time": 10.449433500000005,
                    "velocity": 0.49606299212598426,
                    "duration": 0.11235950000000017
                },
                {
                    "name": "F#4",
                    "midi": 66,
                    "time": 10.449433500000005,
                    "velocity": 0.49606299212598426,
                    "duration": 0.11235950000000017
                },
                {
                    "name": "G#4",
                    "midi": 68,
                    "time": 10.449433500000005,
                    "velocity": 0.49606299212598426,
                    "duration": 0.11235950000000017
                },
                {
                    "name": "G#3",
                    "midi": 56,
                    "time": 10.561793000000005,
                    "velocity": 0.44881889763779526,
                    "duration": 0.22471900000000034
                },
                {
                    "name": "D#4",
                    "midi": 63,
                    "time": 10.561793000000005,
                    "velocity": 0.5354330708661418,
                    "duration": 0.22471900000000034
                },
                {
                    "name": "F#4",
                    "midi": 66,
                    "time": 10.561793000000005,
                    "velocity": 0.5354330708661418,
                    "duration": 0.22471900000000034
                },
                {
                    "name": "G#4",
                    "midi": 68,
                    "time": 10.561793000000005,
                    "velocity": 0.5354330708661418,
                    "duration": 0.22471900000000034
                },
                {
                    "name": "G#4",
                    "midi": 68,
                    "time": 10.786512000000005,
                    "velocity": 0.5118110236220472,
                    "duration": 0.22471900000000034
                },
                {
                    "name": "C#4",
                    "midi": 61,
                    "time": 10.786512000000005,
                    "velocity": 0.4330708661417323,
                    "duration": 0.22471900000000034
                },
                {
                    "name": "F4",
                    "midi": 65,
                    "time": 10.786512000000005,
                    "velocity": 0.5118110236220472,
                    "duration": 0.22471900000000034
                },
                {
                    "name": "F4",
                    "midi": 65,
                    "time": 11.460669000000006,
                    "velocity": 0.6062992125984252,
                    "duration": 0.44943800000000067
                },
                {
                    "name": "C4",
                    "midi": 60,
                    "time": 11.460669000000006,
                    "velocity": 0.6062992125984252,
                    "duration": 0.44943800000000067
                },
                {
                    "name": "F3",
                    "midi": 53,
                    "time": 11.460669000000006,
                    "velocity": 0.5118110236220472,
                    "duration": 0.44943800000000067
                },
                {
                    "name": "F2",
                    "midi": 41,
                    "time": 12.134826000000007,
                    "velocity": 0.5118110236220472,
                    "duration": 0.44943800000000067
                },
                {
                    "name": "C3",
                    "midi": 48,
                    "time": 12.134826000000007,
                    "velocity": 0.6062992125984252,
                    "duration": 0.44943800000000067
                },
                {
                    "name": "F3",
                    "midi": 53,
                    "time": 12.134826000000007,
                    "velocity": 0.6062992125984252,
                    "duration": 0.44943800000000067
                },
                {
                    "name": "F1",
                    "midi": 29,
                    "time": 12.808983000000008,
                    "velocity": 0.6220472440944882,
                    "duration": 1.5730330000000006
                },
                {
                    "name": "F2",
                    "midi": 41,
                    "time": 12.808983000000008,
                    "velocity": 0.7401574803149606,
                    "duration": 1.5730330000000006
                },
                {
                    "name": "F#1",
                    "midi": 30,
                    "time": 14.382016000000009,
                    "velocity": 0.6456692913385826,
                    "duration": 0.16853925000000025
                },
                {
                    "name": "F#2",
                    "midi": 42,
                    "time": 14.382016000000009,
                    "velocity": 0.7637795275590551,
                    "duration": 0.16853925000000025
                },
                {
                    "name": "A2",
                    "midi": 45,
                    "time": 16.62920600000001,
                    "velocity": 0.2125984251968504,
                    "duration": 0.07490633333333463
                },
                {
                    "name": "A#2",
                    "midi": 46,
                    "time": 16.704112333333345,
                    "velocity": 0.2204724409448819,
                    "duration": 0.07490633333333463
                },
                {
                    "name": "C#3",
                    "midi": 49,
                    "time": 16.77901866666668,
                    "velocity": 0.2283464566929134,
                    "duration": 0.07490633333333463
                },
                {
                    "name": "F3",
                    "midi": 53,
                    "time": 16.853925000000014,
                    "velocity": 0.25984251968503935,
                    "duration": 0.11235950000000017
                },
                {
                    "name": "A2",
                    "midi": 45,
                    "time": 17.303363000000015,
                    "velocity": 0.2125984251968504,
                    "duration": 0.07490633333333463
                },
                {
                    "name": "A#2",
                    "midi": 46,
                    "time": 17.37826933333335,
                    "velocity": 0.2204724409448819,
                    "duration": 0.07490633333333463
                },
                {
                    "name": "C#3",
                    "midi": 49,
                    "time": 17.453175666666684,
                    "velocity": 0.2283464566929134,
                    "duration": 0.07490633333333463
                },
                {
                    "name": "F3",
                    "midi": 53,
                    "time": 17.52808200000002,
                    "velocity": 0.25984251968503935,
                    "duration": 0.11235950000000017
                },
                {
                    "name": "A#2",
                    "midi": 46,
                    "time": 18.87639600000002,
                    "velocity": 0.7480314960629921,
                    "duration": 0.11235950000000017
                },
                {
                    "name": "A#1",
                    "midi": 34,
                    "time": 18.87639600000002,
                    "velocity": 0.7480314960629921,
                    "duration": 0.11235950000000017
                },
                {
                    "name": "D#4",
                    "midi": 63,
                    "time": 19.550553000000022,
                    "velocity": 0.6692913385826772,
                    "duration": 1.0112355000000015
                },
                {
                    "name": "A#3",
                    "midi": 58,
                    "time": 19.550553000000022,
                    "velocity": 0.5669291338582677,
                    "duration": 1.0112355000000015
                },
                {
                    "name": "C4",
                    "midi": 60,
                    "time": 19.550553000000022,
                    "velocity": 0.5669291338582677,
                    "duration": 1.0112355000000015
                },
                {
                    "name": "A#4",
                    "midi": 70,
                    "time": 19.550553000000022,
                    "velocity": 0.6692913385826772,
                    "duration": 1.0112355000000015
                },
                {
                    "name": "F#4",
                    "midi": 66,
                    "time": 19.550553000000022,
                    "velocity": 0.6692913385826772,
                    "duration": 1.0112355000000015
                },
                {
                    "name": "A#3",
                    "midi": 58,
                    "time": 20.561788500000024,
                    "velocity": 0.3700787401574803,
                    "duration": 0.11235950000000017
                },
                {
                    "name": "C4",
                    "midi": 60,
                    "time": 20.561788500000024,
                    "velocity": 0.3700787401574803,
                    "duration": 0.11235950000000017
                },
                {
                    "name": "D#4",
                    "midi": 63,
                    "time": 20.561788500000024,
                    "velocity": 0.4409448818897638,
                    "duration": 0.11235950000000017
                },
                {
                    "name": "F#4",
                    "midi": 66,
                    "time": 20.561788500000024,
                    "velocity": 0.4409448818897638,
                    "duration": 0.11235950000000017
                },
                {
                    "name": "A#4",
                    "midi": 70,
                    "time": 20.561788500000024,
                    "velocity": 0.4409448818897638,
                    "duration": 0.11235950000000017
                },
                {
                    "name": "A#3",
                    "midi": 58,
                    "time": 20.674148000000024,
                    "velocity": 0.3700787401574803,
                    "duration": 0.22471900000000034
                },
                {
                    "name": "C4",
                    "midi": 60,
                    "time": 20.674148000000024,
                    "velocity": 0.3700787401574803,
                    "duration": 0.22471900000000034
                },
                {
                    "name": "D#4",
                    "midi": 63,
                    "time": 20.674148000000024,
                    "velocity": 0.4409448818897638,
                    "duration": 0.22471900000000034
                },
                {
                    "name": "F#4",
                    "midi": 66,
                    "time": 20.674148000000024,
                    "velocity": 0.4409448818897638,
                    "duration": 0.22471900000000034
                },
                {
                    "name": "A#4",
                    "midi": 70,
                    "time": 20.674148000000024,
                    "velocity": 0.4409448818897638,
                    "duration": 0.22471900000000034
                },
                {
                    "name": "D#4",
                    "midi": 63,
                    "time": 20.898867000000024,
                    "velocity": 0.4409448818897638,
                    "duration": 0.3370785000000005
                },
                {
                    "name": "A#3",
                    "midi": 58,
                    "time": 20.898867000000024,
                    "velocity": 0.3700787401574803,
                    "duration": 0.3370785000000005
                },
                {
                    "name": "C4",
                    "midi": 60,
                    "time": 20.898867000000024,
                    "velocity": 0.3700787401574803,
                    "duration": 0.3370785000000005
                },
                {
                    "name": "F#4",
                    "midi": 66,
                    "time": 20.898867000000024,
                    "velocity": 0.4409448818897638,
                    "duration": 0.3370785000000005
                },
                {
                    "name": "A#4",
                    "midi": 70,
                    "time": 20.898867000000024,
                    "velocity": 0.4409448818897638,
                    "duration": 0.3370785000000005
                },
                {
                    "name": "C4",
                    "midi": 60,
                    "time": 21.235945500000025,
                    "velocity": 0.4015748031496063,
                    "duration": 0.11235950000000017
                },
                {
                    "name": "D#4",
                    "midi": 63,
                    "time": 21.235945500000025,
                    "velocity": 0.48031496062992124,
                    "duration": 0.11235950000000017
                },
                {
                    "name": "A#3",
                    "midi": 58,
                    "time": 21.235945500000025,
                    "velocity": 0.4015748031496063,
                    "duration": 0.11235950000000017
                },
                {
                    "name": "F#4",
                    "midi": 66,
                    "time": 21.235945500000025,
                    "velocity": 0.48031496062992124,
                    "duration": 0.11235950000000017
                },
                {
                    "name": "A#4",
                    "midi": 70,
                    "time": 21.235945500000025,
                    "velocity": 0.48031496062992124,
                    "duration": 0.11235950000000017
                },
                {
                    "name": "D#4",
                    "midi": 63,
                    "time": 21.348305000000025,
                    "velocity": 0.5196850393700787,
                    "duration": 0.22471900000000034
                },
                {
                    "name": "F#4",
                    "midi": 66,
                    "time": 21.348305000000025,
                    "velocity": 0.5196850393700787,
                    "duration": 0.22471900000000034
                },
                {
                    "name": "A#3",
                    "midi": 58,
                    "time": 21.348305000000025,
                    "velocity": 0.4409448818897638,
                    "duration": 0.22471900000000034
                },
                {
                    "name": "C4",
                    "midi": 60,
                    "time": 21.348305000000025,
                    "velocity": 0.4409448818897638,
                    "duration": 0.22471900000000034
                },
                {
                    "name": "A#4",
                    "midi": 70,
                    "time": 21.348305000000025,
                    "velocity": 0.5196850393700787,
                    "duration": 0.22471900000000034
                },
                {
                    "name": "F4",
                    "midi": 65,
                    "time": 21.573024000000025,
                    "velocity": 0.4881889763779528,
                    "duration": 0.22471900000000034
                },
                {
                    "name": "A#3",
                    "midi": 58,
                    "time": 21.573024000000025,
                    "velocity": 0.4094488188976378,
                    "duration": 0.22471900000000034
                },
                {
                    "name": "C#4",
                    "midi": 61,
                    "time": 21.573024000000025,
                    "velocity": 0.4094488188976378,
                    "duration": 0.22471900000000034
                },
                {
                    "name": "A#4",
                    "midi": 70,
                    "time": 21.573024000000025,
                    "velocity": 0.4881889763779528,
                    "duration": 0.22471900000000034
                },
                {
                    "name": "A2",
                    "midi": 45,
                    "time": 22.022462000000026,
                    "velocity": 0.2125984251968504,
                    "duration": 0.07490633333333463
                },
                {
                    "name": "A#2",
                    "midi": 46,
                    "time": 22.09736833333336,
                    "velocity": 0.2283464566929134,
                    "duration": 0.07490633333333463
                },
                {
                    "name": "C#3",
                    "midi": 49,
                    "time": 22.172274666666695,
                    "velocity": 0.23622047244094488,
                    "duration": 0.07490633333333463
                },
                {
                    "name": "F3",
                    "midi": 53,
                    "time": 22.24718100000003,
                    "velocity": 0.2677165354330709,
                    "duration": 0.11235950000000017
                },
                {
                    "name": "A2",
                    "midi": 45,
                    "time": 22.69661900000003,
                    "velocity": 0.1889763779527559,
                    "duration": 0.07490633333333463
                },
                {
                    "name": "A#2",
                    "midi": 46,
                    "time": 22.771525333333365,
                    "velocity": 0.2047244094488189,
                    "duration": 0.07490633333333463
                },
                {
                    "name": "C#3",
                    "midi": 49,
                    "time": 22.8464316666667,
                    "velocity": 0.2125984251968504,
                    "duration": 0.07490633333333463
                },
                {
                    "name": "F3",
                    "midi": 53,
                    "time": 22.921338000000034,
                    "velocity": 0.25196850393700787,
                    "duration": 0.11235950000000017
                },
                {
                    "name": "C1",
                    "midi": 24,
                    "time": 24.269652000000036,
                    "velocity": 0.7480314960629921,
                    "duration": 0.11235950000000017
                },
                {
                    "name": "C2",
                    "midi": 36,
                    "time": 24.269652000000036,
                    "velocity": 0.7480314960629921,
                    "duration": 0.11235950000000017
                },
                {
                    "name": "G#4",
                    "midi": 68,
                    "time": 24.943809000000037,
                    "velocity": 0.7007874015748031,
                    "duration": 1.348314000000002
                },
                {
                    "name": "C5",
                    "midi": 72,
                    "time": 24.943809000000037,
                    "velocity": 0.7007874015748031,
                    "duration": 1.348314000000002
                },
                {
                    "name": "F4",
                    "midi": 65,
                    "time": 24.943809000000037,
                    "velocity": 0.49606299212598426,
                    "duration": 1.348314000000002
                },
                {
                    "name": "C4",
                    "midi": 60,
                    "time": 24.943809000000037,
                    "velocity": 0.49606299212598426,
                    "duration": 1.348314000000002
                },
                {
                    "name": "C4",
                    "midi": 60,
                    "time": 26.29212300000004,
                    "velocity": 0.3228346456692913,
                    "duration": 0.3370785000000005
                },
                {
                    "name": "A#4",
                    "midi": 70,
                    "time": 26.29212300000004,
                    "velocity": 0.4566929133858268,
                    "duration": 0.3370785000000005
                },
                {
                    "name": "E4",
                    "midi": 64,
                    "time": 26.29212300000004,
                    "velocity": 0.3228346456692913,
                    "duration": 0.3370785000000005
                },
                {
                    "name": "C5",
                    "midi": 72,
                    "time": 26.29212300000004,
                    "velocity": 0.4566929133858268,
                    "duration": 0.3370785000000005
                },
                {
                    "name": "E4",
                    "midi": 64,
                    "time": 26.62920150000004,
                    "velocity": 0.3543307086614173,
                    "duration": 0.11235950000000017
                },
                {
                    "name": "C4",
                    "midi": 60,
                    "time": 26.62920150000004,
                    "velocity": 0.3543307086614173,
                    "duration": 0.11235950000000017
                },
                {
                    "name": "C5",
                    "midi": 72,
                    "time": 26.62920150000004,
                    "velocity": 0.49606299212598426,
                    "duration": 0.11235950000000017
                },
                {
                    "name": "A#4",
                    "midi": 70,
                    "time": 26.62920150000004,
                    "velocity": 0.49606299212598426,
                    "duration": 0.11235950000000017
                },
                {
                    "name": "A#4",
                    "midi": 70,
                    "time": 26.74156100000004,
                    "velocity": 0.5354330708661418,
                    "duration": 0.22471900000000034
                },
                {
                    "name": "C4",
                    "midi": 60,
                    "time": 26.74156100000004,
                    "velocity": 0.3779527559055118,
                    "duration": 0.22471900000000034
                },
                {
                    "name": "E4",
                    "midi": 64,
                    "time": 26.74156100000004,
                    "velocity": 0.3779527559055118,
                    "duration": 0.22471900000000034
                },
                {
                    "name": "C5",
                    "midi": 72,
                    "time": 26.74156100000004,
                    "velocity": 0.5354330708661418,
                    "duration": 0.22471900000000034
                },
                {
                    "name": "C5",
                    "midi": 72,
                    "time": 26.96628000000004,
                    "velocity": 0.5118110236220472,
                    "duration": 0.22471900000000034
                },
                {
                    "name": "F4",
                    "midi": 65,
                    "time": 26.96628000000004,
                    "velocity": 0.36220472440944884,
                    "duration": 0.22471900000000034
                },
                {
                    "name": "G#4",
                    "midi": 68,
                    "time": 26.96628000000004,
                    "velocity": 0.5118110236220472,
                    "duration": 0.22471900000000034
                },
                {
                    "name": "F3",
                    "midi": 53,
                    "time": 27.64043700000004,
                    "velocity": 0.5118110236220472,
                    "duration": 0.44943800000000067
                },
                {
                    "name": "F4",
                    "midi": 65,
                    "time": 27.64043700000004,
                    "velocity": 0.6062992125984252,
                    "duration": 0.44943800000000067
                },
                {
                    "name": "C4",
                    "midi": 60,
                    "time": 27.64043700000004,
                    "velocity": 0.6062992125984252,
                    "duration": 0.44943800000000067
                },
                {
                    "name": "F3",
                    "midi": 53,
                    "time": 28.314594000000042,
                    "velocity": 0.6062992125984252,
                    "duration": 0.44943800000000067
                },
                {
                    "name": "C3",
                    "midi": 48,
                    "time": 28.314594000000042,
                    "velocity": 0.6062992125984252,
                    "duration": 0.44943800000000067
                },
                {
                    "name": "F2",
                    "midi": 41,
                    "time": 28.314594000000042,
                    "velocity": 0.5118110236220472,
                    "duration": 0.44943800000000067
                },
                {
                    "name": "E1",
                    "midi": 28,
                    "time": 28.988751000000043,
                    "velocity": 0.6220472440944882,
                    "duration": 1.5730329999999988
                },
                {
                    "name": "E2",
                    "midi": 40,
                    "time": 28.988751000000043,
                    "velocity": 0.7401574803149606,
                    "duration": 1.5730329999999988
                },
                {
                    "name": "F1",
                    "midi": 29,
                    "time": 30.561784000000042,
                    "velocity": 0.6456692913385826,
                    "duration": 0.16853924999999848
                },
                {
                    "name": "F2",
                    "midi": 41,
                    "time": 30.561784000000042,
                    "velocity": 0.7637795275590551,
                    "duration": 0.16853924999999848
                },
                {
                    "name": "C#1",
                    "midi": 25,
                    "time": 32.35953600000004,
                    "velocity": 0.5590551181102362,
                    "duration": 0.11235949999999661
                },
                {
                    "name": "C#2",
                    "midi": 37,
                    "time": 32.35953600000004,
                    "velocity": 0.6614173228346457,
                    "duration": 0.11235949999999661
                },
                {
                    "name": "G#2",
                    "midi": 44,
                    "time": 32.808974000000035,
                    "velocity": 0.3543307086614173,
                    "duration": 0.22471900000000034
                },
                {
                    "name": "G#3",
                    "midi": 56,
                    "time": 32.808974000000035,
                    "velocity": 0.3543307086614173,
                    "duration": 0.22471900000000034
                },
                {
                    "name": "C#4",
                    "midi": 61,
                    "time": 33.033693000000035,
                    "velocity": 0.41732283464566927,
                    "duration": 0.22471900000000034
                },
                {
                    "name": "F3",
                    "midi": 53,
                    "time": 33.033693000000035,
                    "velocity": 0.41732283464566927,
                    "duration": 0.22471900000000034
                },
                {
                    "name": "G#2",
                    "midi": 44,
                    "time": 33.483131000000036,
                    "velocity": 0.33070866141732286,
                    "duration": 0.22471900000000034
                },
                {
                    "name": "G#3",
                    "midi": 56,
                    "time": 33.483131000000036,
                    "velocity": 0.33070866141732286,
                    "duration": 0.22471900000000034
                },
                {
                    "name": "F3",
                    "midi": 53,
                    "time": 33.707850000000036,
                    "velocity": 0.3700787401574803,
                    "duration": 0.22471900000000034
                },
                {
                    "name": "C#4",
                    "midi": 61,
                    "time": 33.707850000000036,
                    "velocity": 0.3700787401574803,
                    "duration": 0.22471900000000034
                },
                {
                    "name": "G#1",
                    "midi": 32,
                    "time": 35.05616400000003,
                    "velocity": 0.3464566929133858,
                    "duration": 0.11235949999999661
                },
                {
                    "name": "G#2",
                    "midi": 44,
                    "time": 35.05616400000003,
                    "velocity": 0.4094488188976378,
                    "duration": 0.11235949999999661
                },
                {
                    "name": "F#4",
                    "midi": 66,
                    "time": 35.730321000000025,
                    "velocity": 0.2992125984251969,
                    "duration": 0.22471900000000034
                },
                {
                    "name": "G3",
                    "midi": 55,
                    "time": 35.730321000000025,
                    "velocity": 0.2992125984251969,
                    "duration": 0.22471900000000034
                },
                {
                    "name": "C4",
                    "midi": 60,
                    "time": 35.730321000000025,
                    "velocity": 0.2992125984251969,
                    "duration": 0.22471900000000034
                },
                {
                    "name": "G#3",
                    "midi": 56,
                    "time": 35.955040000000025,
                    "velocity": 0.2755905511811024,
                    "duration": 0.22471900000000034
                },
                {
                    "name": "C4",
                    "midi": 60,
                    "time": 35.955040000000025,
                    "velocity": 0.2755905511811024,
                    "duration": 0.22471900000000034
                },
                {
                    "name": "F#4",
                    "midi": 66,
                    "time": 35.955040000000025,
                    "velocity": 0.2755905511811024,
                    "duration": 0.22471900000000034
                },
                {
                    "name": "F#4",
                    "midi": 66,
                    "time": 36.179759000000026,
                    "velocity": 0.2440944881889764,
                    "duration": 0.11235949999999661
                },
                {
                    "name": "G#3",
                    "midi": 56,
                    "time": 36.179759000000026,
                    "velocity": 0.2440944881889764,
                    "duration": 0.11235949999999661
                },
                {
                    "name": "C4",
                    "midi": 60,
                    "time": 36.179759000000026,
                    "velocity": 0.2440944881889764,
                    "duration": 0.11235949999999661
                },
                {
                    "name": "A3",
                    "midi": 57,
                    "time": 37.07863500000002,
                    "velocity": 0.2755905511811024,
                    "duration": 0.22471900000000034
                },
                {
                    "name": "C4",
                    "midi": 60,
                    "time": 37.07863500000002,
                    "velocity": 0.2755905511811024,
                    "duration": 0.22471900000000034
                },
                {
                    "name": "F#4",
                    "midi": 66,
                    "time": 37.07863500000002,
                    "velocity": 0.2755905511811024,
                    "duration": 0.22471900000000034
                },
                {
                    "name": "F#4",
                    "midi": 66,
                    "time": 37.30335400000002,
                    "velocity": 0.25196850393700787,
                    "duration": 0.22471900000000034
                },
                {
                    "name": "C4",
                    "midi": 60,
                    "time": 37.30335400000002,
                    "velocity": 0.25196850393700787,
                    "duration": 0.22471900000000034
                },
                {
                    "name": "G#3",
                    "midi": 56,
                    "time": 37.30335400000002,
                    "velocity": 0.25196850393700787,
                    "duration": 0.22471900000000034
                },
                {
                    "name": "F#4",
                    "midi": 66,
                    "time": 37.52807300000002,
                    "velocity": 0.2204724409448819,
                    "duration": 0.11235949999999661
                },
                {
                    "name": "C4",
                    "midi": 60,
                    "time": 37.52807300000002,
                    "velocity": 0.2204724409448819,
                    "duration": 0.11235949999999661
                },
                {
                    "name": "G#3",
                    "midi": 56,
                    "time": 37.52807300000002,
                    "velocity": 0.2204724409448819,
                    "duration": 0.11235949999999661
                },
                {
                    "name": "C#1",
                    "midi": 25,
                    "time": 37.752792000000014,
                    "velocity": 0.5354330708661418,
                    "duration": 0.11235950000000372
                },
                {
                    "name": "C#2",
                    "midi": 37,
                    "time": 37.752792000000014,
                    "velocity": 0.6456692913385826,
                    "duration": 0.11235950000000372
                },
                {
                    "name": "G#2",
                    "midi": 44,
                    "time": 38.202230000000014,
                    "velocity": 0.3543307086614173,
                    "duration": 0.22471900000000034
                },
                {
                    "name": "G#3",
                    "midi": 56,
                    "time": 38.202230000000014,
                    "velocity": 0.3543307086614173,
                    "duration": 0.22471900000000034
                },
                {
                    "name": "C#4",
                    "midi": 61,
                    "time": 38.426949000000015,
                    "velocity": 0.41732283464566927,
                    "duration": 0.22471900000000034
                },
                {
                    "name": "F3",
                    "midi": 53,
                    "time": 38.426949000000015,
                    "velocity": 0.41732283464566927,
                    "duration": 0.22471900000000034
                },
                {
                    "name": "G#2",
                    "midi": 44,
                    "time": 38.876387000000015,
                    "velocity": 0.33070866141732286,
                    "duration": 0.22471900000000034
                },
                {
                    "name": "G#3",
                    "midi": 56,
                    "time": 38.876387000000015,
                    "velocity": 0.33070866141732286,
                    "duration": 0.22471900000000034
                },
                {
                    "name": "F3",
                    "midi": 53,
                    "time": 39.101106000000016,
                    "velocity": 0.3700787401574803,
                    "duration": 0.22471900000000034
                },
                {
                    "name": "C#4",
                    "midi": 61,
                    "time": 39.101106000000016,
                    "velocity": 0.3700787401574803,
                    "duration": 0.22471900000000034
                },
                {
                    "name": "G#2",
                    "midi": 44,
                    "time": 40.44942000000002,
                    "velocity": 0.15748031496062992,
                    "duration": 0.674157000000001
                },
                {
                    "name": "D#3",
                    "midi": 51,
                    "time": 40.44942000000002,
                    "velocity": 0.15748031496062992,
                    "duration": 0.674157000000001
                },
                {
                    "name": "F#3",
                    "midi": 54,
                    "time": 40.44942000000002,
                    "velocity": 0.15748031496062992,
                    "duration": 0.674157000000001
                },
                {
                    "name": "C4",
                    "midi": 60,
                    "time": 41.12357700000002,
                    "velocity": 0.25196850393700787,
                    "duration": 0.11235949999999661
                },
                {
                    "name": "C#4",
                    "midi": 61,
                    "time": 41.235936500000015,
                    "velocity": 0.25196850393700787,
                    "duration": 0.11235949999999661
                },
                {
                    "name": "D#4",
                    "midi": 63,
                    "time": 41.34829600000001,
                    "velocity": 0.25196850393700787,
                    "duration": 0.11235949999999661
                },
                {
                    "name": "F4",
                    "midi": 65,
                    "time": 41.46065550000001,
                    "velocity": 0.25196850393700787,
                    "duration": 0.11235949999999661
                },
                {
                    "name": "F#4",
                    "midi": 66,
                    "time": 41.573015000000005,
                    "velocity": 0.25196850393700787,
                    "duration": 0.11235949999999661
                },
                {
                    "name": "G#4",
                    "midi": 68,
                    "time": 41.6853745,
                    "velocity": 0.25196850393700787,
                    "duration": 0.11235949999999661
                },
                {
                    "name": "A4",
                    "midi": 69,
                    "time": 41.797734,
                    "velocity": 0.25196850393700787,
                    "duration": 0.11235949999999661
                },
                {
                    "name": "A3",
                    "midi": 57,
                    "time": 42.47189099999999,
                    "velocity": 0.23622047244094488,
                    "duration": 0.11235949999999661
                },
                {
                    "name": "G#3",
                    "midi": 56,
                    "time": 42.58425049999999,
                    "velocity": 0.2283464566929134,
                    "duration": 0.11235949999999661
                },
                {
                    "name": "G3",
                    "midi": 55,
                    "time": 42.696609999999986,
                    "velocity": 0.2204724409448819,
                    "duration": 0.11235949999999661
                },
                {
                    "name": "F#3",
                    "midi": 54,
                    "time": 42.80896949999998,
                    "velocity": 0.2125984251968504,
                    "duration": 0.11235949999999661
                },
                {
                    "name": "F3",
                    "midi": 53,
                    "time": 42.92132899999998,
                    "velocity": 0.2047244094488189,
                    "duration": 0.11235949999999661
                },
                {
                    "name": "D#3",
                    "midi": 51,
                    "time": 43.033688499999975,
                    "velocity": 0.1968503937007874,
                    "duration": 0.11235949999999661
                },
                {
                    "name": "C#3",
                    "midi": 49,
                    "time": 43.14604799999997,
                    "velocity": 0.23622047244094488,
                    "duration": 0.11235950000000372
                },
                {
                    "name": "G#3",
                    "midi": 56,
                    "time": 43.258407499999976,
                    "velocity": 0.2204724409448819,
                    "duration": 0.11235949999999661
                },
                {
                    "name": "C#4",
                    "midi": 61,
                    "time": 43.37076699999997,
                    "velocity": 0.23622047244094488,
                    "duration": 0.11235949999999661
                },
                {
                    "name": "F4",
                    "midi": 65,
                    "time": 43.48312649999997,
                    "velocity": 0.2677165354330709,
                    "duration": 0.11235949999999661
                },
                {
                    "name": "C#4",
                    "midi": 61,
                    "time": 43.595485999999966,
                    "velocity": 0.2440944881889764,
                    "duration": 0.11235949999999661
                },
                {
                    "name": "G#3",
                    "midi": 56,
                    "time": 43.70784549999996,
                    "velocity": 0.23622047244094488,
                    "duration": 0.11235949999999661
                },
                {
                    "name": "C#3",
                    "midi": 49,
                    "time": 43.82020499999996,
                    "velocity": 0.2204724409448819,
                    "duration": 0.11235949999999661
                },
                {
                    "name": "B3",
                    "midi": 59,
                    "time": 43.932564499999955,
                    "velocity": 0.2204724409448819,
                    "duration": 0.11235949999999661
                },
                {
                    "name": "C#4",
                    "midi": 61,
                    "time": 44.04492399999995,
                    "velocity": 0.23622047244094488,
                    "duration": 0.11235949999999661
                },
                {
                    "name": "F4",
                    "midi": 65,
                    "time": 44.15728349999995,
                    "velocity": 0.2440944881889764,
                    "duration": 0.11235949999999661
                },
                {
                    "name": "C#4",
                    "midi": 61,
                    "time": 44.269642999999945,
                    "velocity": 0.23622047244094488,
                    "duration": 0.11235949999999661
                },
                {
                    "name": "B3",
                    "midi": 59,
                    "time": 44.38200249999994,
                    "velocity": 0.2283464566929134,
                    "duration": 0.11235949999999661
                },
                {
                    "name": "F#3",
                    "midi": 54,
                    "time": 44.49436199999994,
                    "velocity": 0.2204724409448819,
                    "duration": 0.11235950000000372
                },
                {
                    "name": "B3",
                    "midi": 59,
                    "time": 44.60672149999994,
                    "velocity": 0.2204724409448819,
                    "duration": 0.11235949999999661
                },
                {
                    "name": "C#4",
                    "midi": 61,
                    "time": 44.71908099999994,
                    "velocity": 0.2440944881889764,
                    "duration": 0.11235949999999661
                },
                {
                    "name": "F#4",
                    "midi": 66,
                    "time": 44.831440499999935,
                    "velocity": 0.2677165354330709,
                    "duration": 0.11235949999999661
                },
                {
                    "name": "C#4",
                    "midi": 61,
                    "time": 44.94379999999993,
                    "velocity": 0.2440944881889764,
                    "duration": 0.11235949999999661
                },
                {
                    "name": "B3",
                    "midi": 59,
                    "time": 45.05615949999993,
                    "velocity": 0.2283464566929134,
                    "duration": 0.11235949999999661
                },
                {
                    "name": "C#3",
                    "midi": 49,
                    "time": 45.168518999999925,
                    "velocity": 0.23622047244094488,
                    "duration": 0.11235950000000372
                },
                {
                    "name": "A#3",
                    "midi": 58,
                    "time": 45.28087849999993,
                    "velocity": 0.2204724409448819,
                    "duration": 0.11235949999999661
                },
                {
                    "name": "C#4",
                    "midi": 61,
                    "time": 45.393237999999926,
                    "velocity": 0.23622047244094488,
                    "duration": 0.11235949999999661
                },
                {
                    "name": "F#4",
                    "midi": 66,
                    "time": 45.50559749999992,
                    "velocity": 0.25984251968503935,
                    "duration": 0.11235949999999661
                },
                {
                    "name": "C#4",
                    "midi": 61,
                    "time": 45.61795699999992,
                    "velocity": 0.2440944881889764,
                    "duration": 0.11235949999999661
                },
                {
                    "name": "A#3",
                    "midi": 58,
                    "time": 45.730316499999915,
                    "velocity": 0.23622047244094488,
                    "duration": 0.11235949999999661
                },
                {
                    "name": "G#3",
                    "midi": 56,
                    "time": 45.84267599999991,
                    "velocity": 0.23622047244094488,
                    "duration": 0.11235949999999661
                },
                {
                    "name": "B3",
                    "midi": 59,
                    "time": 45.95503549999991,
                    "velocity": 0.2204724409448819,
                    "duration": 0.11235949999999661
                },
                {
                    "name": "C#4",
                    "midi": 61,
                    "time": 46.067394999999905,
                    "velocity": 0.23622047244094488,
                    "duration": 0.11235949999999661
                },
                {
                    "name": "G#4",
                    "midi": 68,
                    "time": 46.1797544999999,
                    "velocity": 0.25984251968503935,
                    "duration": 0.11235949999999661
                },
                {
                    "name": "C#4",
                    "midi": 61,
                    "time": 46.2921139999999,
                    "velocity": 0.2440944881889764,
                    "duration": 0.11235949999999661
                },
                {
                    "name": "B3",
                    "midi": 59,
                    "time": 46.404473499999895,
                    "velocity": 0.2283464566929134,
                    "duration": 0.11235949999999661
                },
                {
                    "name": "C#3",
                    "midi": 49,
                    "time": 46.51683299999989,
                    "velocity": 0.23622047244094488,
                    "duration": 0.11235949999999661
                },
                {
                    "name": "B3",
                    "midi": 59,
                    "time": 46.62919249999989,
                    "velocity": 0.2204724409448819,
                    "duration": 0.11235949999999661
                },
                {
                    "name": "C#4",
                    "midi": 61,
                    "time": 46.741551999999885,
                    "velocity": 0.23622047244094488,
                    "duration": 0.11235949999999661
                },
                {
                    "name": "F4",
                    "midi": 65,
                    "time": 46.85391149999988,
                    "velocity": 0.2440944881889764,
                    "duration": 0.11235949999999661
                },
                {
                    "name": "C#4",
                    "midi": 61,
                    "time": 46.96627099999988,
                    "velocity": 0.23622047244094488,
                    "duration": 0.11235949999999661
                },
                {
                    "name": "B3",
                    "midi": 59,
                    "time": 47.078630499999875,
                    "velocity": 0.2283464566929134,
                    "duration": 0.11235949999999661
                },
                {
                    "name": "F#3",
                    "midi": 54,
                    "time": 47.19098999999987,
                    "velocity": 0.25196850393700787,
                    "duration": 0.11235950000000372
                },
                {
                    "name": "A#3",
                    "midi": 58,
                    "time": 47.303349499999875,
                    "velocity": 0.23622047244094488,
                    "duration": 0.11235949999999661
                },
                {
                    "name": "C#4",
                    "midi": 61,
                    "time": 47.41570899999987,
                    "velocity": 0.2677165354330709,
                    "duration": 0.11235949999999661
                },
                {
                    "name": "F#4",
                    "midi": 66,
                    "time": 47.52806849999987,
                    "velocity": 0.2755905511811024,
                    "duration": 0.11235949999999661
                },
                {
                    "name": "C#4",
                    "midi": 61,
                    "time": 47.640427999999865,
                    "velocity": 0.2677165354330709,
                    "duration": 0.11235949999999661
                },
                {
                    "name": "A#3",
                    "midi": 58,
                    "time": 47.75278749999986,
                    "velocity": 0.25984251968503935,
                    "duration": 0.11235949999999661
                },
                {
                    "name": "E3",
                    "midi": 52,
                    "time": 47.86514699999986,
                    "velocity": 0.25984251968503935,
                    "duration": 0.11235950000000372
                },
                {
                    "name": "A#3",
                    "midi": 58,
                    "time": 47.97750649999986,
                    "velocity": 0.28346456692913385,
                    "duration": 0.11235949999999661
                },
                {
                    "name": "C#4",
                    "midi": 61,
                    "time": 48.08986599999986,
                    "velocity": 0.30708661417322836,
                    "duration": 0.11235949999999661
                },
                {
                    "name": "G#4",
                    "midi": 68,
                    "time": 48.202225499999855,
                    "velocity": 0.29133858267716534,
                    "duration": 0.11235949999999661
                },
                {
                    "name": "C#4",
                    "midi": 61,
                    "time": 48.31458499999985,
                    "velocity": 0.2677165354330709,
                    "duration": 0.11235949999999661
                },
                {
                    "name": "A#3",
                    "midi": 58,
                    "time": 48.42694449999985,
                    "velocity": 0.2440944881889764,
                    "duration": 0.11235949999999661
                },
                {
                    "name": "D#3",
                    "midi": 51,
                    "time": 48.539303999999845,
                    "velocity": 0.28346456692913385,
                    "duration": 0.11235950000000372
                },
                {
                    "name": "A#3",
                    "midi": 58,
                    "time": 48.65166349999985,
                    "velocity": 0.2992125984251969,
                    "duration": 0.11235949999999661
                },
                {
                    "name": "C#4",
                    "midi": 61,
                    "time": 48.764022999999845,
                    "velocity": 0.3228346456692913,
                    "duration": 0.11235949999999661
                },
                {
                    "name": "G4",
                    "midi": 67,
                    "time": 48.87638249999984,
                    "velocity": 0.3543307086614173,
                    "duration": 0.11235949999999661
                },
                {
                    "name": "C#4",
                    "midi": 61,
                    "time": 48.98874199999984,
                    "velocity": 0.33070866141732286,
                    "duration": 0.11235949999999661
                },
                {
                    "name": "A#3",
                    "midi": 58,
                    "time": 49.101101499999835,
                    "velocity": 0.30708661417322836,
                    "duration": 0.11235949999999661
                },
                {
                    "name": "G3",
                    "midi": 55,
                    "time": 49.21346099999983,
                    "velocity": 0.30708661417322836,
                    "duration": 0.11235950000000372
                },
                {
                    "name": "C#4",
                    "midi": 61,
                    "time": 49.325820499999836,
                    "velocity": 0.2992125984251969,
                    "duration": 0.11235949999999661
                },
                {
                    "name": "D#4",
                    "midi": 63,
                    "time": 49.43817999999983,
                    "velocity": 0.3228346456692913,
                    "duration": 0.11235949999999661
                },
                {
                    "name": "A#4",
                    "midi": 70,
                    "time": 49.55053949999983,
                    "velocity": 0.36220472440944884,
                    "duration": 0.11235949999999661
                },
                {
                    "name": "D#4",
                    "midi": 63,
                    "time": 49.662898999999825,
                    "velocity": 0.33070866141732286,
                    "duration": 0.11235949999999661
                },
                {
                    "name": "C#4",
                    "midi": 61,
                    "time": 49.77525849999982,
                    "velocity": 0.30708661417322836,
                    "duration": 0.11235949999999661
                },
                {
                    "name": "G#3",
                    "midi": 56,
                    "time": 49.88761799999982,
                    "velocity": 0.2992125984251969,
                    "duration": 0.11235950000000372
                },
                {
                    "name": "C#4",
                    "midi": 61,
                    "time": 49.99997749999982,
                    "velocity": 0.2992125984251969,
                    "duration": 0.11235949999999661
                },
                {
                    "name": "D#4",
                    "midi": 63,
                    "time": 50.11233699999982,
                    "velocity": 0.33070866141732286,
                    "duration": 0.11235949999999661
                },
                {
                    "name": "G#4",
                    "midi": 68,
                    "time": 50.224696499999816,
                    "velocity": 0.3543307086614173,
                    "duration": 0.11235949999999661
                },
                {
                    "name": "D#4",
                    "midi": 63,
                    "time": 50.33705599999981,
                    "velocity": 0.3228346456692913,
                    "duration": 0.11235949999999661
                },
                {
                    "name": "C#4",
                    "midi": 61,
                    "time": 50.44941549999981,
                    "velocity": 0.2992125984251969,
                    "duration": 0.11235949999999661
                },
                {
                    "name": "D#3",
                    "midi": 51,
                    "time": 50.561774999999805,
                    "velocity": 0.2992125984251969,
                    "duration": 0.11235949999999661
                },
                {
                    "name": "C4",
                    "midi": 60,
                    "time": 50.6741344999998,
                    "velocity": 0.29133858267716534,
                    "duration": 0.11235949999999661
                },
                {
                    "name": "D#4",
                    "midi": 63,
                    "time": 50.7864939999998,
                    "velocity": 0.31496062992125984,
                    "duration": 0.11235949999999661
                },
                {
                    "name": "G#4",
                    "midi": 68,
                    "time": 50.898853499999795,
                    "velocity": 0.3464566929133858,
                    "duration": 0.11235949999999661
                },
                {
                    "name": "D#4",
                    "midi": 63,
                    "time": 51.01121299999979,
                    "velocity": 0.3228346456692913,
                    "duration": 0.11235949999999661
                },
                {
                    "name": "C4",
                    "midi": 60,
                    "time": 51.12357249999979,
                    "velocity": 0.30708661417322836,
                    "duration": 0.11235949999999661
                },
                {
                    "name": "A#3",
                    "midi": 58,
                    "time": 51.235931999999785,
                    "velocity": 0.30708661417322836,
                    "duration": 0.11235950000000372
                },
                {
                    "name": "C#4",
                    "midi": 61,
                    "time": 51.34829149999979,
                    "velocity": 0.29133858267716534,
                    "duration": 0.11235949999999661
                },
                {
                    "name": "D#4",
                    "midi": 63,
                    "time": 51.460650999999785,
                    "velocity": 0.31496062992125984,
                    "duration": 0.11235949999999661
                },
                {
                    "name": "A#4",
                    "midi": 70,
                    "time": 51.57301049999978,
                    "velocity": 0.33070866141732286,
                    "duration": 0.11235949999999661
                },
                {
                    "name": "D#4",
                    "midi": 63,
                    "time": 51.68536999999978,
                    "velocity": 0.3228346456692913,
                    "duration": 0.11235949999999661
                },
                {
                    "name": "C#4",
                    "midi": 61,
                    "time": 51.797729499999775,
                    "velocity": 0.30708661417322836,
                    "duration": 0.11235949999999661
                },
                {
                    "name": "D#3",
                    "midi": 51,
                    "time": 51.91008899999977,
                    "velocity": 0.2992125984251969,
                    "duration": 0.11235950000000372
                },
                {
                    "name": "C#4",
                    "midi": 61,
                    "time": 52.022448499999776,
                    "velocity": 0.28346456692913385,
                    "duration": 0.11235949999999661
                },
                {
                    "name": "D#4",
                    "midi": 63,
                    "time": 52.13480799999977,
                    "velocity": 0.2992125984251969,
                    "duration": 0.11235949999999661
                },
                {
                    "name": "G4",
                    "midi": 67,
                    "time": 52.24716749999977,
                    "velocity": 0.31496062992125984,
                    "duration": 0.11235949999999661
                },
                {
                    "name": "D#4",
                    "midi": 63,
                    "time": 52.359526999999765,
                    "velocity": 0.31496062992125984,
                    "duration": 0.11235949999999661
                },
                {
                    "name": "C#4",
                    "midi": 61,
                    "time": 52.47188649999976,
                    "velocity": 0.29133858267716534,
                    "duration": 0.11235949999999661
                },
                {
                    "name": "G#3",
                    "midi": 56,
                    "time": 52.58424599999976,
                    "velocity": 0.2992125984251969,
                    "duration": 0.11235949999999661
                },
                {
                    "name": "C4",
                    "midi": 60,
                    "time": 52.696605499999755,
                    "velocity": 0.31496062992125984,
                    "duration": 0.11235950000000372
                },
                {
                    "name": "D#4",
                    "midi": 63,
                    "time": 52.80896499999976,
                    "velocity": 0.3464566929133858,
                    "duration": 0.11235949999999661
                },
                {
                    "name": "G#4",
                    "midi": 68,
                    "time": 52.921324499999756,
                    "velocity": 0.3543307086614173,
                    "duration": 0.11235949999999661
                },
                {
                    "name": "D#4",
                    "midi": 63,
                    "time": 53.03368399999975,
                    "velocity": 0.3464566929133858,
                    "duration": 0.11235949999999661
                },
                {
                    "name": "C4",
                    "midi": 60,
                    "time": 53.14604349999975,
                    "velocity": 0.33070866141732286,
                    "duration": 0.11235949999999661
                },
                {
                    "name": "G3",
                    "midi": 55,
                    "time": 53.258402999999745,
                    "velocity": 0.31496062992125984,
                    "duration": 0.6741569999999868
                },
                {
                    "name": "G#3",
                    "midi": 56,
                    "time": 53.37076249999975,
                    "velocity": 0.3228346456692913,
                    "duration": 0.11235949999999661
                },
                {
                    "name": "C4",
                    "midi": 60,
                    "time": 53.483121999999746,
                    "velocity": 0.3543307086614173,
                    "duration": 0.11235949999999661
                },
                {
                    "name": "D#4",
                    "midi": 63,
                    "time": 53.59548149999974,
                    "velocity": 0.3858267716535433,
                    "duration": 0.11235949999999661
                },
                {
                    "name": "C4",
                    "midi": 60,
                    "time": 53.70784099999974,
                    "velocity": 0.3700787401574803,
                    "duration": 0.11235949999999661
                },
                {
                    "name": "G#3",
                    "midi": 56,
                    "time": 53.820200499999736,
                    "velocity": 0.3228346456692913,
                    "duration": 0.11235949999999661
                },
                {
                    "name": "F#3",
                    "midi": 54,
                    "time": 53.93255999999973,
                    "velocity": 0.28346456692913385,
                    "duration": 0.6741569999999868
                },
                {
                    "name": "G#3",
                    "midi": 56,
                    "time": 54.044919499999736,
                    "velocity": 0.28346456692913385,
                    "duration": 0.11235949999999661
                },
                {
                    "name": "C4",
                    "midi": 60,
                    "time": 54.15727899999973,
                    "velocity": 0.30708661417322836,
                    "duration": 0.11235949999999661
                },
                {
                    "name": "D#4",
                    "midi": 63,
                    "time": 54.26963849999973,
                    "velocity": 0.33070866141732286,
                    "duration": 0.11235949999999661
                },
                {
                    "name": "C4",
                    "midi": 60,
                    "time": 54.381997999999726,
                    "velocity": 0.3228346456692913,
                    "duration": 0.11235949999999661
                },
                {
                    "name": "G#3",
                    "midi": 56,
                    "time": 54.49435749999972,
                    "velocity": 0.2992125984251969,
                    "duration": 0.11235949999999661
                },
                {
                    "name": "F#3",
                    "midi": 54,
                    "time": 54.60671699999972,
                    "velocity": 0.2992125984251969,
                    "duration": 0.6741569999999797
                },
                {
                    "name": "G#3",
                    "midi": 56,
                    "time": 54.719076499999716,
                    "velocity": 0.3228346456692913,
                    "duration": 0.11235949999999661
                },
                {
                    "name": "C4",
                    "midi": 60,
                    "time": 54.83143599999971,
                    "velocity": 0.3228346456692913,
                    "duration": 0.11235949999999661
                },
                {
                    "name": "D#4",
                    "midi": 63,
                    "time": 54.94379549999971,
                    "velocity": 0.3228346456692913,
                    "duration": 0.11235949999999661
                },
                {
                    "name": "C4",
                    "midi": 60,
                    "time": 55.056154999999706,
                    "velocity": 0.2992125984251969,
                    "duration": 0.11235949999999661
                },
                {
                    "name": "G#3",
                    "midi": 56,
                    "time": 55.1685144999997,
                    "velocity": 0.2755905511811024,
                    "duration": 0.11235949999999661
                },
                {
                    "name": "F3",
                    "midi": 53,
                    "time": 55.2808739999997,
                    "velocity": 0.25984251968503935,
                    "duration": 0.6741569999999868
                },
                {
                    "name": "G#3",
                    "midi": 56,
                    "time": 55.3932334999997,
                    "velocity": 0.25984251968503935,
                    "duration": 0.11235949999999661
                },
                {
                    "name": "C#4",
                    "midi": 61,
                    "time": 55.5055929999997,
                    "velocity": 0.28346456692913385,
                    "duration": 0.11235949999999661
                },
                {
                    "name": "F4",
                    "midi": 65,
                    "time": 55.617952499999696,
                    "velocity": 0.30708661417322836,
                    "duration": 0.11235949999999661
                },
                {
                    "name": "C#4",
                    "midi": 61,
                    "time": 55.73031199999969,
                    "velocity": 0.29133858267716534,
                    "duration": 0.11235949999999661
                },
                {
                    "name": "G#3",
                    "midi": 56,
                    "time": 55.84267149999969,
                    "velocity": 0.2755905511811024,
                    "duration": 0.11235949999999661
                },
                {
                    "name": "F3",
                    "midi": 53,
                    "time": 55.955030999999686,
                    "velocity": 0.2755905511811024,
                    "duration": 0.11235950000000372
                },
                {
                    "name": "G#3",
                    "midi": 56,
                    "time": 56.06739049999969,
                    "velocity": 0.2992125984251969,
                    "duration": 0.11235950000000372
                },
                {
                    "name": "C#4",
                    "midi": 61,
                    "time": 56.17974999999969,
                    "velocity": 0.3228346456692913,
                    "duration": 0.11235949999999661
                },
                {
                    "name": "G#4",
                    "midi": 68,
                    "time": 56.29210949999969,
                    "velocity": 0.33070866141732286,
                    "duration": 0.11235949999999661
                },
                {
                    "name": "C#4",
                    "midi": 61,
                    "time": 56.404468999999686,
                    "velocity": 0.31496062992125984,
                    "duration": 0.11235949999999661
                },
                {
                    "name": "G#3",
                    "midi": 56,
                    "time": 56.51682849999968,
                    "velocity": 0.29133858267716534,
                    "duration": 0.11235949999999661
                },
                {
                    "name": "D#3",
                    "midi": 51,
                    "time": 56.62918799999968,
                    "velocity": 0.2755905511811024,
                    "duration": 0.11235950000000372
                },
                {
                    "name": "G#3",
                    "midi": 56,
                    "time": 56.74154749999968,
                    "velocity": 0.2992125984251969,
                    "duration": 0.11235949999999661
                },
                {
                    "name": "C4",
                    "midi": 60,
                    "time": 56.85390699999968,
                    "velocity": 0.3228346456692913,
                    "duration": 0.11235949999999661
                },
                {
                    "name": "F#4",
                    "midi": 66,
                    "time": 56.966266499999676,
                    "velocity": 0.3228346456692913,
                    "duration": 0.11235949999999661
                },
                {
                    "name": "C4",
                    "midi": 60,
                    "time": 57.07862599999967,
                    "velocity": 0.30708661417322836,
                    "duration": 0.11235949999999661
                },
                {
                    "name": "G#3",
                    "midi": 56,
                    "time": 57.19098549999967,
                    "velocity": 0.28346456692913385,
                    "duration": 0.11235949999999661
                },
                {
                    "name": "D#3",
                    "midi": 51,
                    "time": 57.303344999999666,
                    "velocity": 0.2755905511811024,
                    "duration": 0.11235949999999661
                },
                {
                    "name": "G#3",
                    "midi": 56,
                    "time": 57.41570449999966,
                    "velocity": 0.2677165354330709,
                    "duration": 0.11235949999999661
                },
                {
                    "name": "C4",
                    "midi": 60,
                    "time": 57.52806399999966,
                    "velocity": 0.29133858267716534,
                    "duration": 0.11235949999999661
                },
                {
                    "name": "F#4",
                    "midi": 66,
                    "time": 57.640423499999656,
                    "velocity": 0.30708661417322836,
                    "duration": 0.11235949999999661
                },
                {
                    "name": "C4",
                    "midi": 60,
                    "time": 57.75278299999965,
                    "velocity": 0.28346456692913385,
                    "duration": 0.11235949999999661
                },
                {
                    "name": "G#3",
                    "midi": 56,
                    "time": 57.86514249999965,
                    "velocity": 0.2440944881889764,
                    "duration": 0.11235949999999661
                },
                {
                    "name": "D3",
                    "midi": 50,
                    "time": 57.977501999999646,
                    "velocity": 0.25196850393700787,
                    "duration": 0.11235949999999661
                },
                {
                    "name": "G#3",
                    "midi": 56,
                    "time": 58.08986149999964,
                    "velocity": 0.2440944881889764,
                    "duration": 0.11235949999999661
                },
                {
                    "name": "B3",
                    "midi": 59,
                    "time": 58.20222099999964,
                    "velocity": 0.2755905511811024,
                    "duration": 0.11235949999999661
                },
                {
                    "name": "F4",
                    "midi": 65,
                    "time": 58.314580499999636,
                    "velocity": 0.29133858267716534,
                    "duration": 0.11235949999999661
                },
                {
                    "name": "B3",
                    "midi": 59,
                    "time": 58.42693999999963,
                    "velocity": 0.28346456692913385,
                    "duration": 0.11235949999999661
                },
                {
                    "name": "G#3",
                    "midi": 56,
                    "time": 58.53929949999963,
                    "velocity": 0.2677165354330709,
                    "duration": 0.11235949999999661
                },
                {
                    "name": "D3",
                    "midi": 50,
                    "time": 58.651658999999626,
                    "velocity": 0.25984251968503935,
                    "duration": 0.11235950000000372
                },
                {
                    "name": "G#3",
                    "midi": 56,
                    "time": 58.76401849999963,
                    "velocity": 0.23622047244094488,
                    "duration": 0.11235949999999661
                },
                {
                    "name": "A#3",
                    "midi": 58,
                    "time": 58.876377999999626,
                    "velocity": 0.2755905511811024,
                    "duration": 0.11235949999999661
                },
                {
                    "name": "F4",
                    "midi": 65,
                    "time": 58.98873749999962,
                    "velocity": 0.29133858267716534,
                    "duration": 0.11235949999999661
                },
                {
                    "name": "A#3",
                    "midi": 58,
                    "time": 59.10109699999962,
                    "velocity": 0.28346456692913385,
                    "duration": 0.11235949999999661
                },
                {
                    "name": "G#3",
                    "midi": 56,
                    "time": 59.213456499999616,
                    "velocity": 0.2677165354330709,
                    "duration": 0.11235949999999661
                },
                {
                    "name": "D#3",
                    "midi": 51,
                    "time": 59.32581599999961,
                    "velocity": 0.2755905511811024,
                    "duration": 0.11235949999999661
                },
                {
                    "name": "F#3",
                    "midi": 54,
                    "time": 59.43817549999961,
                    "velocity": 0.2755905511811024,
                    "duration": 0.11235949999999661
                },
                {
                    "name": "A#3",
                    "midi": 58,
                    "time": 59.550534999999606,
                    "velocity": 0.2992125984251969,
                    "duration": 0.11235949999999661
                },
                {
                    "name": "D#4",
                    "midi": 63,
                    "time": 59.6628944999996,
                    "velocity": 0.30708661417322836,
                    "duration": 0.11235949999999661
                },
                {
                    "name": "A#3",
                    "midi": 58,
                    "time": 59.7752539999996,
                    "velocity": 0.2992125984251969,
                    "duration": 0.11235949999999661
                },
                {
                    "name": "F#3",
                    "midi": 54,
                    "time": 59.887613499999595,
                    "velocity": 0.28346456692913385,
                    "duration": 0.11235949999999661
                },
                {
                    "name": "F#2",
                    "midi": 42,
                    "time": 59.99997299999959,
                    "velocity": 0.25196850393700787,
                    "duration": 0.11235949999999661
                },
                {
                    "name": "F#3",
                    "midi": 54,
                    "time": 60.11233249999959,
                    "velocity": 0.2440944881889764,
                    "duration": 0.11235949999999661
                },
                {
                    "name": "A#3",
                    "midi": 58,
                    "time": 60.224691999999585,
                    "velocity": 0.28346456692913385,
                    "duration": 0.11235949999999661
                },
                {
                    "name": "D#4",
                    "midi": 63,
                    "time": 60.33705149999958,
                    "velocity": 0.2992125984251969,
                    "duration": 0.11235949999999661
                },
                {
                    "name": "A#3",
                    "midi": 58,
                    "time": 60.44941099999958,
                    "velocity": 0.28346456692913385,
                    "duration": 0.11235949999999661
                },
                {
                    "name": "F#3",
                    "midi": 54,
                    "time": 60.561770499999575,
                    "velocity": 0.2677165354330709,
                    "duration": 0.11235949999999661
                },
                {
                    "name": "G#2",
                    "midi": 44,
                    "time": 60.67412999999957,
                    "velocity": 0.2677165354330709,
                    "duration": 0.11235950000000372
                },
                {
                    "name": "F3",
                    "midi": 53,
                    "time": 60.786489499999576,
                    "velocity": 0.28346456692913385,
                    "duration": 0.11235949999999661
                },
                {
                    "name": "G#3",
                    "midi": 56,
                    "time": 60.89884899999957,
                    "velocity": 0.29133858267716534,
                    "duration": 0.11235949999999661
                },
                {
                    "name": "C#4",
                    "midi": 61,
                    "time": 61.01120849999957,
                    "velocity": 0.30708661417322836,
                    "duration": 0.11235949999999661
                },
                {
                    "name": "G#3",
                    "midi": 56,
                    "time": 61.123567999999565,
                    "velocity": 0.29133858267716534,
                    "duration": 0.11235949999999661
                },
                {
                    "name": "F3",
                    "midi": 53,
                    "time": 61.23592749999956,
                    "velocity": 0.2755905511811024,
                    "duration": 0.11235949999999661
                },
                {
                    "name": "G#2",
                    "midi": 44,
                    "time": 61.34828699999956,
                    "velocity": 0.28346456692913385,
                    "duration": 0.11235949999999661
                },
                {
                    "name": "F3",
                    "midi": 53,
                    "time": 61.460646499999555,
                    "velocity": 0.2677165354330709,
                    "duration": 0.11235949999999661
                },
                {
                    "name": "G#3",
                    "midi": 56,
                    "time": 61.57300599999955,
                    "velocity": 0.2755905511811024,
                    "duration": 0.11235949999999661
                },
                {
                    "name": "C#4",
                    "midi": 61,
                    "time": 61.68536549999955,
                    "velocity": 0.2992125984251969,
                    "duration": 0.11235949999999661
                },
                {
                    "name": "G#3",
                    "midi": 56,
                    "time": 61.797724999999545,
                    "velocity": 0.29133858267716534,
                    "duration": 0.11235949999999661
                },
                {
                    "name": "F3",
                    "midi": 53,
                    "time": 61.91008449999954,
                    "velocity": 0.28346456692913385,
                    "duration": 0.11235949999999661
                },
                {
                    "name": "G#2",
                    "midi": 44,
                    "time": 62.02244399999954,
                    "velocity": 0.28346456692913385,
                    "duration": 0.11235950000000372
                },
                {
                    "name": "F#3",
                    "midi": 54,
                    "time": 62.13480349999954,
                    "velocity": 0.2677165354330709,
                    "duration": 0.11235949999999661
                },
                {
                    "name": "G#3",
                    "midi": 56,
                    "time": 62.24716299999954,
                    "velocity": 0.28346456692913385,
                    "duration": 0.11235949999999661
                },
                {
                    "name": "C4",
                    "midi": 60,
                    "time": 62.359522499999535,
                    "velocity": 0.28346456692913385,
                    "duration": 0.11235949999999661
                },
                {
                    "name": "G#3",
                    "midi": 56,
                    "time": 62.47188199999953,
                    "velocity": 0.2755905511811024,
                    "duration": 0.11235949999999661
                },
                {
                    "name": "F#3",
                    "midi": 54,
                    "time": 62.58424149999953,
                    "velocity": 0.2677165354330709,
                    "duration": 0.11235949999999661
                },
                {
                    "name": "G#2",
                    "midi": 44,
                    "time": 62.696600999999525,
                    "velocity": 0.2677165354330709,
                    "duration": 0.11235949999999661
                },
                {
                    "name": "F#3",
                    "midi": 54,
                    "time": 62.80896049999952,
                    "velocity": 0.2440944881889764,
                    "duration": 0.11235949999999661
                },
                {
                    "name": "G#3",
                    "midi": 56,
                    "time": 62.92131999999952,
                    "velocity": 0.2755905511811024,
                    "duration": 0.11235949999999661
                },
                {
                    "name": "C4",
                    "midi": 60,
                    "time": 63.033679499999515,
                    "velocity": 0.29133858267716534,
                    "duration": 0.11235949999999661
                },
                {
                    "name": "G#3",
                    "midi": 56,
                    "time": 63.14603899999951,
                    "velocity": 0.2755905511811024,
                    "duration": 0.11235949999999661
                },
                {
                    "name": "F#3",
                    "midi": 54,
                    "time": 63.25839849999951,
                    "velocity": 0.25984251968503935,
                    "duration": 0.11235949999999661
                },
                {
                    "name": "C#3",
                    "midi": 49,
                    "time": 63.370757999999505,
                    "velocity": 0.2677165354330709,
                    "duration": 0.11235950000000372
                },
                {
                    "name": "G#3",
                    "midi": 56,
                    "time": 63.48311749999951,
                    "velocity": 0.25984251968503935,
                    "duration": 0.11235949999999661
                },
                {
                    "name": "C#4",
                    "midi": 61,
                    "time": 63.595476999999505,
                    "velocity": 0.28346456692913385,
                    "duration": 0.11235949999999661
                },
                {
                    "name": "F4",
                    "midi": 65,
                    "time": 63.7078364999995,
                    "velocity": 0.29133858267716534,
                    "duration": 0.11235949999999661
                },
                {
                    "name": "C#4",
                    "midi": 61,
                    "time": 63.8201959999995,
                    "velocity": 0.28346456692913385,
                    "duration": 0.11235949999999661
                },
                {
                    "name": "A#3",
                    "midi": 58,
                    "time": 63.932555499999495,
                    "velocity": 0.2755905511811024,
                    "duration": 0.11235949999999661
                },
                {
                    "name": "G#3",
                    "midi": 56,
                    "time": 64.04491499999949,
                    "velocity": 0.29133858267716534,
                    "duration": 0.22471900000000744
                },
                {
                    "name": "C#4",
                    "midi": 61,
                    "time": 64.15727449999949,
                    "velocity": 0.28346456692913385,
                    "duration": 0.11235950000001083
                },
                {
                    "name": "F4",
                    "midi": 65,
                    "time": 64.2696339999995,
                    "velocity": 0.30708661417322836,
                    "duration": 0.11235949999999661
                },
                {
                    "name": "G#4",
                    "midi": 68,
                    "time": 64.3819934999995,
                    "velocity": 0.31496062992125984,
                    "duration": 0.11235949999999661
                },
                {
                    "name": "F4",
                    "midi": 65,
                    "time": 64.49435299999949,
                    "velocity": 0.30708661417322836,
                    "duration": 0.11235949999999661
                },
                {
                    "name": "C#4",
                    "midi": 61,
                    "time": 64.60671249999949,
                    "velocity": 0.2992125984251969,
                    "duration": 0.11235949999999661
                },
                {
                    "name": "F#3",
                    "midi": 54,
                    "time": 64.71907199999949,
                    "velocity": 0.33070866141732286,
                    "duration": 0.6741569999999797
                },
                {
                    "name": "G#3",
                    "midi": 56,
                    "time": 64.83143149999948,
                    "velocity": 0.33070866141732286,
                    "duration": 0.11235949999999661
                },
                {
                    "name": "C4",
                    "midi": 60,
                    "time": 64.94379099999948,
                    "velocity": 0.33070866141732286,
                    "duration": 0.11235949999999661
                },
                {
                    "name": "D#4",
                    "midi": 63,
                    "time": 65.05615049999948,
                    "velocity": 0.33070866141732286,
                    "duration": 0.11235949999999661
                },
                {
                    "name": "C4",
                    "midi": 60,
                    "time": 65.16850999999947,
                    "velocity": 0.33070866141732286,
                    "duration": 0.11235949999999661
                },
                {
                    "name": "G#3",
                    "midi": 56,
                    "time": 65.28086949999947,
                    "velocity": 0.33070866141732286,
                    "duration": 0.11235949999999661
                },
                {
                    "name": "F#3",
                    "midi": 54,
                    "time": 65.39322899999947,
                    "velocity": 0.4015748031496063,
                    "duration": 0.6741569999999797
                },
                {
                    "name": "G#3",
                    "midi": 56,
                    "time": 65.50558849999946,
                    "velocity": 0.3543307086614173,
                    "duration": 0.11235949999999661
                },
                {
                    "name": "C4",
                    "midi": 60,
                    "time": 65.61794799999946,
                    "velocity": 0.3543307086614173,
                    "duration": 0.11235949999999661
                },
                {
                    "name": "D#4",
                    "midi": 63,
                    "time": 65.73030749999945,
                    "velocity": 0.3543307086614173,
                    "duration": 0.11235949999999661
                },
                {
                    "name": "C4",
                    "midi": 60,
                    "time": 65.84266699999945,
                    "velocity": 0.3228346456692913,
                    "duration": 0.11235949999999661
                },
                {
                    "name": "G#3",
                    "midi": 56,
                    "time": 65.95502649999945,
                    "velocity": 0.2992125984251969,
                    "duration": 0.11235949999999661
                },
                {
                    "name": "F3",
                    "midi": 53,
                    "time": 66.06738599999944,
                    "velocity": 0.29133858267716534,
                    "duration": 0.6741569999999939
                },
                {
                    "name": "G#3",
                    "midi": 56,
                    "time": 66.17974549999946,
                    "velocity": 0.28346456692913385,
                    "duration": 0.11235949999999661
                },
                {
                    "name": "C#4",
                    "midi": 61,
                    "time": 66.29210499999945,
                    "velocity": 0.30708661417322836,
                    "duration": 0.11235949999999661
                },
                {
                    "name": "F4",
                    "midi": 65,
                    "time": 66.40446449999945,
                    "velocity": 0.33070866141732286,
                    "duration": 0.11235949999999661
                },
                {
                    "name": "C#4",
                    "midi": 61,
                    "time": 66.51682399999945,
                    "velocity": 0.31496062992125984,
                    "duration": 0.11235949999999661
                },
                {
                    "name": "G#3",
                    "midi": 56,
                    "time": 66.62918349999944,
                    "velocity": 0.2992125984251969,
                    "duration": 0.11235949999999661
                },
                {
                    "name": "F3",
                    "midi": 53,
                    "time": 66.74154299999944,
                    "velocity": 0.30708661417322836,
                    "duration": 0.11235949999999661
                },
                {
                    "name": "G#3",
                    "midi": 56,
                    "time": 66.85390249999944,
                    "velocity": 0.3228346456692913,
                    "duration": 0.11235949999999661
                },
                {
                    "name": "C#4",
                    "midi": 61,
                    "time": 66.96626199999943,
                    "velocity": 0.3543307086614173,
                    "duration": 0.11235949999999661
                },
                {
                    "name": "G#4",
                    "midi": 68,
                    "time": 67.07862149999943,
                    "velocity": 0.36220472440944884,
                    "duration": 0.11235949999999661
                },
                {
                    "name": "C#4",
                    "midi": 61,
                    "time": 67.19098099999943,
                    "velocity": 0.3464566929133858,
                    "duration": 0.11235949999999661
                },
                {
                    "name": "G#3",
                    "midi": 56,
                    "time": 67.30334049999942,
                    "velocity": 0.31496062992125984,
                    "duration": 0.11235949999999661
                },
                {
                    "name": "D#3",
                    "midi": 51,
                    "time": 67.41569999999942,
                    "velocity": 0.30708661417322836,
                    "duration": 0.11235949999999661
                },
                {
                    "name": "G#3",
                    "midi": 56,
                    "time": 67.52805949999942,
                    "velocity": 0.3228346456692913,
                    "duration": 0.11235949999999661
                },
                {
                    "name": "C4",
                    "midi": 60,
                    "time": 67.64041899999941,
                    "velocity": 0.3543307086614173,
                    "duration": 0.11235949999999661
                },
                {
                    "name": "F#4",
                    "midi": 66,
                    "time": 67.75277849999941,
                    "velocity": 0.3543307086614173,
                    "duration": 0.11235949999999661
                },
                {
                    "name": "C4",
                    "midi": 60,
                    "time": 67.8651379999994,
                    "velocity": 0.33070866141732286,
                    "duration": 0.11235949999999661
                },
                {
                    "name": "G#3",
                    "midi": 56,
                    "time": 67.9774974999994,
                    "velocity": 0.30708661417322836,
                    "duration": 0.11235949999999661
                },
                {
                    "name": "D#3",
                    "midi": 51,
                    "time": 68.0898569999994,
                    "velocity": 0.29133858267716534,
                    "duration": 0.11235949999999661
                },
                {
                    "name": "G#3",
                    "midi": 56,
                    "time": 68.2022164999994,
                    "velocity": 0.29133858267716534,
                    "duration": 0.11235949999999661
                },
                {
                    "name": "C4",
                    "midi": 60,
                    "time": 68.31457599999939,
                    "velocity": 0.31496062992125984,
                    "duration": 0.11235949999999661
                },
                {
                    "name": "F#4",
                    "midi": 66,
                    "time": 68.42693549999939,
                    "velocity": 0.33070866141732286,
                    "duration": 0.11235949999999661
                },
                {
                    "name": "C4",
                    "midi": 60,
                    "time": 68.53929499999938,
                    "velocity": 0.30708661417322836,
                    "duration": 0.11235949999999661
                },
                {
                    "name": "G#3",
                    "midi": 56,
                    "time": 68.65165449999938,
                    "velocity": 0.2677165354330709,
                    "duration": 0.11235949999999661
                },
                {
                    "name": "D3",
                    "midi": 50,
                    "time": 68.76401399999938,
                    "velocity": 0.30708661417322836,
                    "duration": 0.11235949999999661
                },
                {
                    "name": "G#3",
                    "midi": 56,
                    "time": 68.87637349999937,
                    "velocity": 0.29133858267716534,
                    "duration": 0.11235949999999661
                },
                {
                    "name": "B3",
                    "midi": 59,
                    "time": 68.98873299999937,
                    "velocity": 0.3228346456692913,
                    "duration": 0.11235949999999661
                },
                {
                    "name": "F4",
                    "midi": 65,
                    "time": 69.10109249999937,
                    "velocity": 0.3464566929133858,
                    "duration": 0.11235949999999661
                },
                {
                    "name": "B3",
                    "midi": 59,
                    "time": 69.21345199999936,
                    "velocity": 0.33070866141732286,
                    "duration": 0.11235949999999661
                },
                {
                    "name": "G#3",
                    "midi": 56,
                    "time": 69.32581149999936,
                    "velocity": 0.31496062992125984,
                    "duration": 0.11235949999999661
                },
                {
                    "name": "D3",
                    "midi": 50,
                    "time": 69.43817099999936,
                    "velocity": 0.2755905511811024,
                    "duration": 0.11235949999999661
                },
                {
                    "name": "G#3",
                    "midi": 56,
                    "time": 69.55053049999935,
                    "velocity": 0.28346456692913385,
                    "duration": 0.11235949999999661
                },
                {
                    "name": "A#3",
                    "midi": 58,
                    "time": 69.66288999999935,
                    "velocity": 0.3228346456692913,
                    "duration": 0.11235949999999661
                },
                {
                    "name": "F4",
                    "midi": 65,
                    "time": 69.77524949999935,
                    "velocity": 0.3464566929133858,
                    "duration": 0.11235949999999661
                },
                {
                    "name": "A#3",
                    "midi": 58,
                    "time": 69.88760899999934,
                    "velocity": 0.33070866141732286,
                    "duration": 0.11235949999999661
                },
                {
                    "name": "G#3",
                    "midi": 56,
                    "time": 69.99996849999934,
                    "velocity": 0.31496062992125984,
                    "duration": 0.11235949999999661
                },
                {
                    "name": "D#3",
                    "midi": 51,
                    "time": 70.11232799999934,
                    "velocity": 0.2755905511811024,
                    "duration": 0.11235949999999661
                },
                {
                    "name": "F#3",
                    "midi": 54,
                    "time": 70.22468749999933,
                    "velocity": 0.2992125984251969,
                    "duration": 0.11235950000001083
                },
                {
                    "name": "A#3",
                    "midi": 58,
                    "time": 70.33704699999934,
                    "velocity": 0.3228346456692913,
                    "duration": 0.11235949999999661
                },
                {
                    "name": "D#4",
                    "midi": 63,
                    "time": 70.44940649999934,
                    "velocity": 0.33070866141732286,
                    "duration": 0.11235949999999661
                },
                {
                    "name": "A#3",
                    "midi": 58,
                    "time": 70.56176599999934,
                    "velocity": 0.3228346456692913,
                    "duration": 0.11235949999999661
                },
                {
                    "name": "F#3",
                    "midi": 54,
                    "time": 70.67412549999933,
                    "velocity": 0.30708661417322836,
                    "duration": 0.11235949999999661
                },
                {
                    "name": "F#2",
                    "midi": 42,
                    "time": 70.78648499999933,
                    "velocity": 0.2677165354330709,
                    "duration": 0.11235950000001083
                },
                {
                    "name": "F#3",
                    "midi": 54,
                    "time": 70.89884449999934,
                    "velocity": 0.2677165354330709,
                    "duration": 0.11235949999999661
                },
                {
                    "name": "A#3",
                    "midi": 58,
                    "time": 71.01120399999934,
                    "velocity": 0.30708661417322836,
                    "duration": 0.11235949999999661
                },
                {
                    "name": "D#4",
                    "midi": 63,
                    "time": 71.12356349999934,
                    "velocity": 0.3228346456692913,
                    "duration": 0.11235949999999661
                },
                {
                    "name": "A#3",
                    "midi": 58,
                    "time": 71.23592299999933,
                    "velocity": 0.30708661417322836,
                    "duration": 0.11235949999999661
                },
                {
                    "name": "F#3",
                    "midi": 54,
                    "time": 71.34828249999933,
                    "velocity": 0.29133858267716534,
                    "duration": 0.11235949999999661
                },
                {
                    "name": "G#2",
                    "midi": 44,
                    "time": 71.46064199999932,
                    "velocity": 0.28346456692913385,
                    "duration": 0.11235949999999661
                },
                {
                    "name": "F3",
                    "midi": 53,
                    "time": 71.57300149999932,
                    "velocity": 0.30708661417322836,
                    "duration": 0.11235949999999661
                },
                {
                    "name": "G#3",
                    "midi": 56,
                    "time": 71.68536099999932,
                    "velocity": 0.31496062992125984,
                    "duration": 0.11235949999999661
                },
                {
                    "name": "C#4",
                    "midi": 61,
                    "time": 71.79772049999931,
                    "velocity": 0.33070866141732286,
                    "duration": 0.11235949999999661
                },
                {
                    "name": "G#3",
                    "midi": 56,
                    "time": 71.91007999999931,
                    "velocity": 0.31496062992125984,
                    "duration": 0.11235949999999661
                },
                {
                    "name": "F3",
                    "midi": 53,
                    "time": 72.02243949999931,
                    "velocity": 0.2992125984251969,
                    "duration": 0.11235949999999661
                },
                {
                    "name": "G#2",
                    "midi": 44,
                    "time": 72.1347989999993,
                    "velocity": 0.2755905511811024,
                    "duration": 0.11235949999999661
                },
                {
                    "name": "F3",
                    "midi": 53,
                    "time": 72.2471584999993,
                    "velocity": 0.2755905511811024,
                    "duration": 0.11235949999999661
                },
                {
                    "name": "G#3",
                    "midi": 56,
                    "time": 72.3595179999993,
                    "velocity": 0.29133858267716534,
                    "duration": 0.11235949999999661
                },
                {
                    "name": "C#4",
                    "midi": 61,
                    "time": 72.4718774999993,
                    "velocity": 0.30708661417322836,
                    "duration": 0.11235949999999661
                },
                {
                    "name": "G#3",
                    "midi": 56,
                    "time": 72.58423699999929,
                    "velocity": 0.29133858267716534,
                    "duration": 0.11235949999999661
                },
                {
                    "name": "F3",
                    "midi": 53,
                    "time": 72.69659649999929,
                    "velocity": 0.2755905511811024,
                    "duration": 0.11235949999999661
                },
                {
                    "name": "G#2",
                    "midi": 44,
                    "time": 72.80895599999928,
                    "velocity": 0.2755905511811024,
                    "duration": 0.11235949999999661
                },
                {
                    "name": "F3",
                    "midi": 53,
                    "time": 72.92131549999928,
                    "velocity": 0.29133858267716534,
                    "duration": 0.11235949999999661
                },
                {
                    "name": "G#3",
                    "midi": 56,
                    "time": 73.03367499999928,
                    "velocity": 0.30708661417322836,
                    "duration": 0.11235949999999661
                },
                {
                    "name": "D4",
                    "midi": 62,
                    "time": 73.14603449999927,
                    "velocity": 0.3228346456692913,
                    "duration": 0.11235949999999661
                },
                {
                    "name": "G#3",
                    "midi": 56,
                    "time": 73.25839399999927,
                    "velocity": 0.30708661417322836,
                    "duration": 0.11235949999999661
                },
                {
                    "name": "F3",
                    "midi": 53,
                    "time": 73.37075349999927,
                    "velocity": 0.28346456692913385,
                    "duration": 0.11235949999999661
                },
                {
                    "name": "G#2",
                    "midi": 44,
                    "time": 73.48311299999926,
                    "velocity": 0.29133858267716534,
                    "duration": 0.11235949999999661
                },
                {
                    "name": "F3",
                    "midi": 53,
                    "time": 73.59547249999926,
                    "velocity": 0.30708661417322836,
                    "duration": 0.11235949999999661
                },
                {
                    "name": "G#3",
                    "midi": 56,
                    "time": 73.70783199999926,
                    "velocity": 0.33858267716535434,
                    "duration": 0.11235949999999661
                },
                {
                    "name": "D4",
                    "midi": 62,
                    "time": 73.82019149999925,
                    "velocity": 0.3779527559055118,
                    "duration": 0.11235949999999661
                },
                {
                    "name": "G#3",
                    "midi": 56,
                    "time": 73.93255099999925,
                    "velocity": 0.3543307086614173,
                    "duration": 0.11235949999999661
                },
                {
                    "name": "F3",
                    "midi": 53,
                    "time": 74.04491049999925,
                    "velocity": 0.3228346456692913,
                    "duration": 0.11235949999999661
                },
                {
                    "name": "G#2",
                    "midi": 44,
                    "time": 74.15726999999924,
                    "velocity": 0.30708661417322836,
                    "duration": 0.11235949999999661
                },
                {
                    "name": "F3",
                    "midi": 53,
                    "time": 74.26962949999924,
                    "velocity": 0.31496062992125984,
                    "duration": 0.11235949999999661
                },
                {
                    "name": "G#3",
                    "midi": 56,
                    "time": 74.38198899999924,
                    "velocity": 0.33858267716535434,
                    "duration": 0.11235949999999661
                },
                {
                    "name": "D4",
                    "midi": 62,
                    "time": 74.49434849999923,
                    "velocity": 0.3543307086614173,
                    "duration": 0.11235949999999661
                },
                {
                    "name": "G#3",
                    "midi": 56,
                    "time": 74.60670799999923,
                    "velocity": 0.33070866141732286,
                    "duration": 0.11235949999999661
                },
                {
                    "name": "F3",
                    "midi": 53,
                    "time": 74.71906749999923,
                    "velocity": 0.28346456692913385,
                    "duration": 0.11235949999999661
                },
                {
                    "name": "G#2",
                    "midi": 44,
                    "time": 74.83142699999922,
                    "velocity": 0.30708661417322836,
                    "duration": 0.11235949999999661
                },
                {
                    "name": "F3",
                    "midi": 53,
                    "time": 74.94378649999922,
                    "velocity": 0.31496062992125984,
                    "duration": 0.11235949999999661
                },
                {
                    "name": "G#3",
                    "midi": 56,
                    "time": 75.05614599999922,
                    "velocity": 0.33858267716535434,
                    "duration": 0.11235949999999661
                },
                {
                    "name": "D4",
                    "midi": 62,
                    "time": 75.16850549999921,
                    "velocity": 0.3700787401574803,
                    "duration": 0.11235949999999661
                },
                {
                    "name": "G#3",
                    "midi": 56,
                    "time": 75.28086499999921,
                    "velocity": 0.3464566929133858,
                    "duration": 0.11235949999999661
                },
                {
                    "name": "F3",
                    "midi": 53,
                    "time": 75.3932244999992,
                    "velocity": 0.31496062992125984,
                    "duration": 0.11235949999999661
                },
                {
                    "name": "G#2",
                    "midi": 44,
                    "time": 75.5055839999992,
                    "velocity": 0.3228346456692913,
                    "duration": 0.11235949999999661
                },
                {
                    "name": "D#3",
                    "midi": 51,
                    "time": 75.6179434999992,
                    "velocity": 0.33858267716535434,
                    "duration": 0.11235949999999661
                },
                {
                    "name": "F#3",
                    "midi": 54,
                    "time": 75.7303029999992,
                    "velocity": 0.3700787401574803,
                    "duration": 0.11235949999999661
                },
                {
                    "name": "D#4",
                    "midi": 63,
                    "time": 75.8426624999992,
                    "velocity": 0.3937007874015748,
                    "duration": 0.11235949999999661
                },
                {
                    "name": "F#3",
                    "midi": 54,
                    "time": 75.95502199999919,
                    "velocity": 0.36220472440944884,
                    "duration": 0.11235949999999661
                },
                {
                    "name": "D#3",
                    "midi": 51,
                    "time": 76.06738149999919,
                    "velocity": 0.33858267716535434,
                    "duration": 0.11235949999999661
                },
                {
                    "name": "G#2",
                    "midi": 44,
                    "time": 76.17974099999918,
                    "velocity": 0.5275590551181102,
                    "duration": 0.11235949999999661
                },
                {
                    "name": "D#3",
                    "midi": 51,
                    "time": 76.29210049999918,
                    "velocity": 0.3937007874015748,
                    "duration": 0.11235949999999661
                },
                {
                    "name": "F#3",
                    "midi": 54,
                    "time": 76.40445999999918,
                    "velocity": 0.4330708661417323,
                    "duration": 0.11235949999999661
                },
                {
                    "name": "D#4",
                    "midi": 63,
                    "time": 76.51681949999917,
                    "velocity": 0.4566929133858268,
                    "duration": 0.11235949999999661
                },
                {
                    "name": "F#3",
                    "midi": 54,
                    "time": 76.62917899999917,
                    "velocity": 0.4330708661417323,
                    "duration": 0.11235949999999661
                },
                {
                    "name": "D#3",
                    "midi": 51,
                    "time": 76.74153849999917,
                    "velocity": 0.4094488188976378,
                    "duration": 0.11235949999999661
                },
                {
                    "name": "G#2",
                    "midi": 44,
                    "time": 76.85389799999916,
                    "velocity": 0.4881889763779528,
                    "duration": 0.11235949999999661
                },
                {
                    "name": "D#3",
                    "midi": 51,
                    "time": 76.96625749999916,
                    "velocity": 0.3937007874015748,
                    "duration": 0.11235949999999661
                },
                {
                    "name": "F#3",
                    "midi": 54,
                    "time": 77.07861699999916,
                    "velocity": 0.4330708661417323,
                    "duration": 0.11235949999999661
                },
                {
                    "name": "C4",
                    "midi": 60,
                    "time": 77.19097649999915,
                    "velocity": 0.4566929133858268,
                    "duration": 0.11235949999999661
                },
                {
                    "name": "F#3",
                    "midi": 54,
                    "time": 77.30333599999915,
                    "velocity": 0.4330708661417323,
                    "duration": 0.11235949999999661
                },
                {
                    "name": "D#3",
                    "midi": 51,
                    "time": 77.41569549999915,
                    "velocity": 0.4015748031496063,
                    "duration": 0.11235949999999661
                },
                {
                    "name": "G#2",
                    "midi": 44,
                    "time": 77.52805499999914,
                    "velocity": 0.5275590551181102,
                    "duration": 0.11235949999999661
                },
                {
                    "name": "D#3",
                    "midi": 51,
                    "time": 77.64041449999914,
                    "velocity": 0.44881889763779526,
                    "duration": 0.11235949999999661
                },
                {
                    "name": "F#3",
                    "midi": 54,
                    "time": 77.75277399999914,
                    "velocity": 0.48031496062992124,
                    "duration": 0.11235949999999661
                },
                {
                    "name": "C4",
                    "midi": 60,
                    "time": 77.86513349999913,
                    "velocity": 0.5118110236220472,
                    "duration": 0.11235949999999661
                },
                {
                    "name": "F#3",
                    "midi": 54,
                    "time": 77.97749299999913,
                    "velocity": 0.4881889763779528,
                    "duration": 0.11235949999999661
                },
                {
                    "name": "D#3",
                    "midi": 51,
                    "time": 78.08985249999913,
                    "velocity": 0.4645669291338583,
                    "duration": 0.11235949999999661
                },
                {
                    "name": "C#2",
                    "midi": 37,
                    "time": 78.20221199999912,
                    "velocity": 0.5590551181102362,
                    "duration": 0.11235949999999661
                },
                {
                    "name": "G#2",
                    "midi": 44,
                    "time": 78.65164999999912,
                    "velocity": 0.5511811023622047,
                    "duration": 0.11235949999999661
                },
                {
                    "name": "F3",
                    "midi": 53,
                    "time": 78.76400949999912,
                    "velocity": 0.5905511811023622,
                    "duration": 0.11235949999999661
                },
                {
                    "name": "C#4",
                    "midi": 61,
                    "time": 78.87636899999912,
                    "velocity": 0.6535433070866141,
                    "duration": 0.22471899999999323
                },
                {
                    "name": "G#1",
                    "midi": 32,
                    "time": 79.55052599999911,
                    "velocity": 0.5748031496062992,
                    "duration": 0.11235949999999661
                },
                {
                    "name": "G#2",
                    "midi": 44,
                    "time": 79.99996399999911,
                    "velocity": 0.5354330708661418,
                    "duration": 0.11235949999999661
                },
                {
                    "name": "D#3",
                    "midi": 51,
                    "time": 80.1123234999991,
                    "velocity": 0.5826771653543307,
                    "duration": 0.11235949999999661
                },
                {
                    "name": "C4",
                    "midi": 60,
                    "time": 80.2246829999991,
                    "velocity": 0.6614173228346457,
                    "duration": 0.22471899999999323
                },
                {
                    "name": "C#2",
                    "midi": 37,
                    "time": 80.8988399999991,
                    "velocity": 0.6141732283464567,
                    "duration": 0.11235950000001083
                },
                {
                    "name": "G#2",
                    "midi": 44,
                    "time": 81.34827799999911,
                    "velocity": 0.5511811023622047,
                    "duration": 0.11235949999999661
                },
                {
                    "name": "F3",
                    "midi": 53,
                    "time": 81.46063749999911,
                    "velocity": 0.5905511811023622,
                    "duration": 0.11235949999999661
                },
                {
                    "name": "C#4",
                    "midi": 61,
                    "time": 81.5729969999991,
                    "velocity": 0.6535433070866141,
                    "duration": 0.22471899999999323
                },
                {
                    "name": "G#1",
                    "midi": 32,
                    "time": 82.2471539999991,
                    "velocity": 0.6141732283464567,
                    "duration": 0.11235949999999661
                },
                {
                    "name": "G#2",
                    "midi": 44,
                    "time": 82.6965919999991,
                    "velocity": 0.5354330708661418,
                    "duration": 0.11235949999999661
                },
                {
                    "name": "D#3",
                    "midi": 51,
                    "time": 82.8089514999991,
                    "velocity": 0.5826771653543307,
                    "duration": 0.11235949999999661
                },
                {
                    "name": "C4",
                    "midi": 60,
                    "time": 82.9213109999991,
                    "velocity": 0.6614173228346457,
                    "duration": 0.22471899999999323
                },
                {
                    "name": "C#1",
                    "midi": 25,
                    "time": 83.59546799999909,
                    "velocity": 0.6456692913385826,
                    "duration": 0.22471899999999323
                },
                {
                    "name": "G#2",
                    "midi": 44,
                    "time": 84.04490599999907,
                    "velocity": 0.5354330708661418,
                    "duration": 0.11235949999999661
                },
                {
                    "name": "F3",
                    "midi": 53,
                    "time": 84.15726549999907,
                    "velocity": 0.5826771653543307,
                    "duration": 0.11235949999999661
                },
                {
                    "name": "C#4",
                    "midi": 61,
                    "time": 84.26962499999907,
                    "velocity": 0.6614173228346457,
                    "duration": 0.22471899999999323
                },
                {
                    "name": "C#1",
                    "midi": 25,
                    "time": 86.29209599999906,
                    "velocity": 0.6771653543307087,
                    "duration": 0.11235949999999661
                },
                {
                    "name": "C#2",
                    "midi": 37,
                    "time": 86.29209599999906,
                    "velocity": 0.8031496062992126,
                    "duration": 0.11235949999999661
                },
                {
                    "name": "C#4",
                    "midi": 61,
                    "time": 86.96625299999906,
                    "velocity": 0.6771653543307087,
                    "duration": 0.6741569999999939
                },
                {
                    "name": "C#5",
                    "midi": 73,
                    "time": 86.96625299999906,
                    "velocity": 0.8031496062992126,
                    "duration": 0.6741569999999939
                },
                {
                    "name": "A2",
                    "midi": 45,
                    "time": 89.43816199999905,
                    "velocity": 0.2125984251968504,
                    "duration": 0.07490633333333108
                },
                {
                    "name": "A#2",
                    "midi": 46,
                    "time": 89.51306833333238,
                    "velocity": 0.2204724409448819,
                    "duration": 0.07490633333333108
                },
                {
                    "name": "C#3",
                    "midi": 49,
                    "time": 89.58797466666572,
                    "velocity": 0.2283464566929134,
                    "duration": 0.07490633333333108
                },
                {
                    "name": "F3",
                    "midi": 53,
                    "time": 89.66288099999905,
                    "velocity": 0.2677165354330709,
                    "duration": 0.11235949999999661
                },
                {
                    "name": "A2",
                    "midi": 45,
                    "time": 90.11231899999905,
                    "velocity": 0.2047244094488189,
                    "duration": 0.07490633333333108
                },
                {
                    "name": "A#2",
                    "midi": 46,
                    "time": 90.18722533333238,
                    "velocity": 0.2125984251968504,
                    "duration": 0.07490633333333108
                },
                {
                    "name": "C#3",
                    "midi": 49,
                    "time": 90.26213166666571,
                    "velocity": 0.2283464566929134,
                    "duration": 0.07490633333333108
                },
                {
                    "name": "F3",
                    "midi": 53,
                    "time": 90.33703799999904,
                    "velocity": 0.2677165354330709,
                    "duration": 0.11235949999999661
                },
                {
                    "name": "A#1",
                    "midi": 34,
                    "time": 91.68535199999904,
                    "velocity": 0.7480314960629921,
                    "duration": 0.11235949999999661
                },
                {
                    "name": "A#2",
                    "midi": 46,
                    "time": 91.68535199999904,
                    "velocity": 0.7480314960629921,
                    "duration": 0.11235949999999661
                },
                {
                    "name": "A#3",
                    "midi": 58,
                    "time": 92.35950899999904,
                    "velocity": 0.5669291338582677,
                    "duration": 1.348314000000002
                },
                {
                    "name": "C4",
                    "midi": 60,
                    "time": 92.35950899999904,
                    "velocity": 0.5669291338582677,
                    "duration": 1.348314000000002
                },
                {
                    "name": "D#4",
                    "midi": 63,
                    "time": 92.35950899999904,
                    "velocity": 0.6692913385826772,
                    "duration": 1.348314000000002
                },
                {
                    "name": "F#4",
                    "midi": 66,
                    "time": 92.35950899999904,
                    "velocity": 0.6692913385826772,
                    "duration": 1.348314000000002
                },
                {
                    "name": "A#4",
                    "midi": 70,
                    "time": 92.35950899999904,
                    "velocity": 0.6692913385826772,
                    "duration": 1.348314000000002
                },
                {
                    "name": "A#3",
                    "midi": 58,
                    "time": 93.70782299999904,
                    "velocity": 0.3700787401574803,
                    "duration": 0.33707850000000406
                },
                {
                    "name": "C4",
                    "midi": 60,
                    "time": 93.70782299999904,
                    "velocity": 0.3700787401574803,
                    "duration": 0.33707850000000406
                },
                {
                    "name": "D#4",
                    "midi": 63,
                    "time": 93.70782299999904,
                    "velocity": 0.4409448818897638,
                    "duration": 0.33707850000000406
                },
                {
                    "name": "F#4",
                    "midi": 66,
                    "time": 93.70782299999904,
                    "velocity": 0.4409448818897638,
                    "duration": 0.33707850000000406
                },
                {
                    "name": "A#4",
                    "midi": 70,
                    "time": 93.70782299999904,
                    "velocity": 0.4409448818897638,
                    "duration": 0.33707850000000406
                },
                {
                    "name": "A#3",
                    "midi": 58,
                    "time": 94.04490149999904,
                    "velocity": 0.4015748031496063,
                    "duration": 0.11235949999999661
                },
                {
                    "name": "C4",
                    "midi": 60,
                    "time": 94.04490149999904,
                    "velocity": 0.4015748031496063,
                    "duration": 0.11235949999999661
                },
                {
                    "name": "D#4",
                    "midi": 63,
                    "time": 94.04490149999904,
                    "velocity": 0.48031496062992124,
                    "duration": 0.11235949999999661
                },
                {
                    "name": "F#4",
                    "midi": 66,
                    "time": 94.04490149999904,
                    "velocity": 0.48031496062992124,
                    "duration": 0.11235949999999661
                },
                {
                    "name": "A#4",
                    "midi": 70,
                    "time": 94.04490149999904,
                    "velocity": 0.48031496062992124,
                    "duration": 0.11235949999999661
                },
                {
                    "name": "A#3",
                    "midi": 58,
                    "time": 94.15726099999904,
                    "velocity": 0.4409448818897638,
                    "duration": 0.22471899999999323
                },
                {
                    "name": "C4",
                    "midi": 60,
                    "time": 94.15726099999904,
                    "velocity": 0.4409448818897638,
                    "duration": 0.22471899999999323
                },
                {
                    "name": "D#4",
                    "midi": 63,
                    "time": 94.15726099999904,
                    "velocity": 0.5196850393700787,
                    "duration": 0.22471899999999323
                },
                {
                    "name": "F#4",
                    "midi": 66,
                    "time": 94.15726099999904,
                    "velocity": 0.5196850393700787,
                    "duration": 0.22471899999999323
                },
                {
                    "name": "A#4",
                    "midi": 70,
                    "time": 94.15726099999904,
                    "velocity": 0.5196850393700787,
                    "duration": 0.22471899999999323
                },
                {
                    "name": "A#3",
                    "midi": 58,
                    "time": 94.38197999999903,
                    "velocity": 0.4094488188976378,
                    "duration": 0.22471899999999323
                },
                {
                    "name": "C#4",
                    "midi": 61,
                    "time": 94.38197999999903,
                    "velocity": 0.4094488188976378,
                    "duration": 0.22471899999999323
                },
                {
                    "name": "F4",
                    "midi": 65,
                    "time": 94.38197999999903,
                    "velocity": 0.4881889763779528,
                    "duration": 0.22471899999999323
                },
                {
                    "name": "A#4",
                    "midi": 70,
                    "time": 94.38197999999903,
                    "velocity": 0.4881889763779528,
                    "duration": 0.22471899999999323
                },
                {
                    "name": "A2",
                    "midi": 45,
                    "time": 94.83141799999902,
                    "velocity": 0.2125984251968504,
                    "duration": 0.07490633333333108
                },
                {
                    "name": "A#2",
                    "midi": 46,
                    "time": 94.90632433333235,
                    "velocity": 0.2204724409448819,
                    "duration": 0.07490633333333108
                },
                {
                    "name": "C#3",
                    "midi": 49,
                    "time": 94.98123066666568,
                    "velocity": 0.23622047244094488,
                    "duration": 0.07490633333333108
                },
                {
                    "name": "F3",
                    "midi": 53,
                    "time": 95.05613699999901,
                    "velocity": 0.2755905511811024,
                    "duration": 0.11235949999999661
                },
                {
                    "name": "A2",
                    "midi": 45,
                    "time": 95.50557499999901,
                    "velocity": 0.2047244094488189,
                    "duration": 0.07490633333333108
                },
                {
                    "name": "A#2",
                    "midi": 46,
                    "time": 95.58048133333234,
                    "velocity": 0.2204724409448819,
                    "duration": 0.07490633333333108
                },
                {
                    "name": "C#3",
                    "midi": 49,
                    "time": 95.65538766666567,
                    "velocity": 0.23622047244094488,
                    "duration": 0.07490633333333108
                },
                {
                    "name": "F3",
                    "midi": 53,
                    "time": 95.730293999999,
                    "velocity": 0.2677165354330709,
                    "duration": 0.11235949999999661
                },
                {
                    "name": "G#1",
                    "midi": 32,
                    "time": 97.07860799999901,
                    "velocity": 0.7480314960629921,
                    "duration": 0.11235949999999661
                },
                {
                    "name": "G#2",
                    "midi": 44,
                    "time": 97.07860799999901,
                    "velocity": 0.7480314960629921,
                    "duration": 0.11235949999999661
                },
                {
                    "name": "G#3",
                    "midi": 56,
                    "time": 97.696585249999,
                    "velocity": 0.5905511811023622,
                    "duration": 1.4044937500000145
                },
                {
                    "name": "F4",
                    "midi": 65,
                    "time": 97.72467512499901,
                    "velocity": 0.7007874015748031,
                    "duration": 1.3764038750000083
                },
                {
                    "name": "C#5",
                    "midi": 73,
                    "time": 97.75276499999902,
                    "velocity": 0.7007874015748031,
                    "duration": 1.348314000000002
                },
                {
                    "name": "G#3",
                    "midi": 56,
                    "time": 99.10107899999902,
                    "velocity": 0.3464566929133858,
                    "duration": 0.13483139999999594
                },
                {
                    "name": "D#4",
                    "midi": 63,
                    "time": 99.10107899999902,
                    "velocity": 0.4094488188976378,
                    "duration": 0.13483139999999594
                },
                {
                    "name": "F#4",
                    "midi": 66,
                    "time": 99.10107899999902,
                    "velocity": 0.4094488188976378,
                    "duration": 0.13483139999999594
                },
                {
                    "name": "G#4",
                    "midi": 68,
                    "time": 99.10107899999902,
                    "velocity": 0.4094488188976378,
                    "duration": 0.13483139999999594
                },
                {
                    "name": "F#4",
                    "midi": 66,
                    "time": 99.23591039999901,
                    "velocity": 0.4094488188976378,
                    "duration": 0.13483139999999594
                },
                {
                    "name": "D#4",
                    "midi": 63,
                    "time": 99.23591039999901,
                    "velocity": 0.4094488188976378,
                    "duration": 0.13483139999999594
                },
                {
                    "name": "G#3",
                    "midi": 56,
                    "time": 99.23591039999901,
                    "velocity": 0.3464566929133858,
                    "duration": 0.13483139999999594
                },
                {
                    "name": "G#4",
                    "midi": 68,
                    "time": 99.23591039999901,
                    "velocity": 0.4094488188976378,
                    "duration": 0.13483139999999594
                },
                {
                    "name": "G#4",
                    "midi": 68,
                    "time": 99.37074179999901,
                    "velocity": 0.4251968503937008,
                    "duration": 0.13483139999999594
                },
                {
                    "name": "F#4",
                    "midi": 66,
                    "time": 99.37074179999901,
                    "velocity": 0.4251968503937008,
                    "duration": 0.13483139999999594
                },
                {
                    "name": "D#4",
                    "midi": 63,
                    "time": 99.37074179999901,
                    "velocity": 0.4251968503937008,
                    "duration": 0.13483139999999594
                },
                {
                    "name": "G#3",
                    "midi": 56,
                    "time": 99.37074179999901,
                    "velocity": 0.3543307086614173,
                    "duration": 0.13483139999999594
                },
                {
                    "name": "G#4",
                    "midi": 68,
                    "time": 99.505573199999,
                    "velocity": 0.48031496062992124,
                    "duration": 0.13483139999999594
                },
                {
                    "name": "F#4",
                    "midi": 66,
                    "time": 99.505573199999,
                    "velocity": 0.48031496062992124,
                    "duration": 0.13483139999999594
                },
                {
                    "name": "D#4",
                    "midi": 63,
                    "time": 99.505573199999,
                    "velocity": 0.48031496062992124,
                    "duration": 0.13483139999999594
                },
                {
                    "name": "G#3",
                    "midi": 56,
                    "time": 99.505573199999,
                    "velocity": 0.4015748031496063,
                    "duration": 0.13483139999999594
                },
                {
                    "name": "G#4",
                    "midi": 68,
                    "time": 99.640404599999,
                    "velocity": 0.4566929133858268,
                    "duration": 0.13483139999999594
                },
                {
                    "name": "F#4",
                    "midi": 66,
                    "time": 99.640404599999,
                    "velocity": 0.4566929133858268,
                    "duration": 0.13483139999999594
                },
                {
                    "name": "D#4",
                    "midi": 63,
                    "time": 99.640404599999,
                    "velocity": 0.4566929133858268,
                    "duration": 0.13483139999999594
                },
                {
                    "name": "G#3",
                    "midi": 56,
                    "time": 99.640404599999,
                    "velocity": 0.3858267716535433,
                    "duration": 0.13483139999999594
                },
                {
                    "name": "G#4",
                    "midi": 68,
                    "time": 99.775235999999,
                    "velocity": 0.4566929133858268,
                    "duration": 0.22471900000000744
                },
                {
                    "name": "C#4",
                    "midi": 61,
                    "time": 99.775235999999,
                    "velocity": 0.3858267716535433,
                    "duration": 0.22471900000000744
                },
                {
                    "name": "F4",
                    "midi": 65,
                    "time": 99.775235999999,
                    "velocity": 0.4566929133858268,
                    "duration": 0.22471900000000744
                },
                {
                    "name": "F4",
                    "midi": 65,
                    "time": 100.449392999999,
                    "velocity": 0.6062992125984252,
                    "duration": 0.44943800000000067
                },
                {
                    "name": "C4",
                    "midi": 60,
                    "time": 100.449392999999,
                    "velocity": 0.6062992125984252,
                    "duration": 0.44943800000000067
                },
                {
                    "name": "F3",
                    "midi": 53,
                    "time": 100.449392999999,
                    "velocity": 0.6062992125984252,
                    "duration": 0.44943800000000067
                },
                {
                    "name": "F2",
                    "midi": 41,
                    "time": 101.123549999999,
                    "velocity": 0.6062992125984252,
                    "duration": 0.44943800000000067
                },
                {
                    "name": "C3",
                    "midi": 48,
                    "time": 101.123549999999,
                    "velocity": 0.6062992125984252,
                    "duration": 0.44943800000000067
                },
                {
                    "name": "F3",
                    "midi": 53,
                    "time": 101.123549999999,
                    "velocity": 0.6062992125984252,
                    "duration": 0.44943800000000067
                },
                {
                    "name": "F1",
                    "midi": 29,
                    "time": 101.797706999999,
                    "velocity": 0.6220472440944882,
                    "duration": 1.5730329999999952
                },
                {
                    "name": "F2",
                    "midi": 41,
                    "time": 101.797706999999,
                    "velocity": 0.7401574803149606,
                    "duration": 1.5730329999999952
                },
                {
                    "name": "F#1",
                    "midi": 30,
                    "time": 103.37073999999899,
                    "velocity": 0.6456692913385826,
                    "duration": 0.16853924999999492
                },
                {
                    "name": "F#2",
                    "midi": 42,
                    "time": 103.37073999999899,
                    "velocity": 0.7637795275590551,
                    "duration": 0.16853924999999492
                },
                {
                    "name": "A2",
                    "midi": 45,
                    "time": 105.61792999999898,
                    "velocity": 0.2125984251968504,
                    "duration": 0.07490633333333108
                },
                {
                    "name": "A#2",
                    "midi": 46,
                    "time": 105.69283633333231,
                    "velocity": 0.2204724409448819,
                    "duration": 0.07490633333333108
                },
                {
                    "name": "C#3",
                    "midi": 49,
                    "time": 105.76774266666564,
                    "velocity": 0.2283464566929134,
                    "duration": 0.07490633333333108
                },
                {
                    "name": "F3",
                    "midi": 53,
                    "time": 105.84264899999897,
                    "velocity": 0.2677165354330709,
                    "duration": 0.11235949999999661
                },
                {
                    "name": "A2",
                    "midi": 45,
                    "time": 106.29208699999897,
                    "velocity": 0.2125984251968504,
                    "duration": 0.07490633333333108
                },
                {
                    "name": "A#2",
                    "midi": 46,
                    "time": 106.3669933333323,
                    "velocity": 0.2204724409448819,
                    "duration": 0.07490633333333108
                },
                {
                    "name": "C#3",
                    "midi": 49,
                    "time": 106.44189966666563,
                    "velocity": 0.2283464566929134,
                    "duration": 0.07490633333333108
                },
                {
                    "name": "F3",
                    "midi": 53,
                    "time": 106.51680599999897,
                    "velocity": 0.2677165354330709,
                    "duration": 0.11235949999999661
                },
                {
                    "name": "A#2",
                    "midi": 46,
                    "time": 107.86511999999897,
                    "velocity": 0.7480314960629921,
                    "duration": 0.11235949999999661
                },
                {
                    "name": "A#1",
                    "midi": 34,
                    "time": 107.86511999999897,
                    "velocity": 0.7480314960629921,
                    "duration": 0.11235949999999661
                },
                {
                    "name": "D#4",
                    "midi": 63,
                    "time": 108.53927699999896,
                    "velocity": 0.6692913385826772,
                    "duration": 1.011235499999998
                },
                {
                    "name": "A#3",
                    "midi": 58,
                    "time": 108.53927699999896,
                    "velocity": 0.5669291338582677,
                    "duration": 1.011235499999998
                },
                {
                    "name": "C4",
                    "midi": 60,
                    "time": 108.53927699999896,
                    "velocity": 0.5669291338582677,
                    "duration": 1.011235499999998
                },
                {
                    "name": "A#4",
                    "midi": 70,
                    "time": 108.53927699999896,
                    "velocity": 0.6692913385826772,
                    "duration": 1.011235499999998
                },
                {
                    "name": "F#4",
                    "midi": 66,
                    "time": 108.53927699999896,
                    "velocity": 0.6692913385826772,
                    "duration": 1.011235499999998
                },
                {
                    "name": "A#3",
                    "midi": 58,
                    "time": 109.55051249999896,
                    "velocity": 0.3700787401574803,
                    "duration": 0.11235949999999661
                },
                {
                    "name": "C4",
                    "midi": 60,
                    "time": 109.55051249999896,
                    "velocity": 0.3700787401574803,
                    "duration": 0.11235949999999661
                },
                {
                    "name": "D#4",
                    "midi": 63,
                    "time": 109.55051249999896,
                    "velocity": 0.4409448818897638,
                    "duration": 0.11235949999999661
                },
                {
                    "name": "F#4",
                    "midi": 66,
                    "time": 109.55051249999896,
                    "velocity": 0.4409448818897638,
                    "duration": 0.11235949999999661
                },
                {
                    "name": "A#4",
                    "midi": 70,
                    "time": 109.55051249999896,
                    "velocity": 0.4409448818897638,
                    "duration": 0.11235949999999661
                },
                {
                    "name": "A#3",
                    "midi": 58,
                    "time": 109.66287199999896,
                    "velocity": 0.3700787401574803,
                    "duration": 0.22471899999999323
                },
                {
                    "name": "C4",
                    "midi": 60,
                    "time": 109.66287199999896,
                    "velocity": 0.3700787401574803,
                    "duration": 0.22471899999999323
                },
                {
                    "name": "D#4",
                    "midi": 63,
                    "time": 109.66287199999896,
                    "velocity": 0.4409448818897638,
                    "duration": 0.22471899999999323
                },
                {
                    "name": "F#4",
                    "midi": 66,
                    "time": 109.66287199999896,
                    "velocity": 0.4409448818897638,
                    "duration": 0.22471899999999323
                },
                {
                    "name": "A#4",
                    "midi": 70,
                    "time": 109.66287199999896,
                    "velocity": 0.4409448818897638,
                    "duration": 0.22471899999999323
                },
                {
                    "name": "D#4",
                    "midi": 63,
                    "time": 109.88759099999895,
                    "velocity": 0.4409448818897638,
                    "duration": 0.33707850000000406
                },
                {
                    "name": "A#3",
                    "midi": 58,
                    "time": 109.88759099999895,
                    "velocity": 0.3700787401574803,
                    "duration": 0.33707850000000406
                },
                {
                    "name": "C4",
                    "midi": 60,
                    "time": 109.88759099999895,
                    "velocity": 0.3700787401574803,
                    "duration": 0.33707850000000406
                },
                {
                    "name": "F#4",
                    "midi": 66,
                    "time": 109.88759099999895,
                    "velocity": 0.4409448818897638,
                    "duration": 0.33707850000000406
                },
                {
                    "name": "A#4",
                    "midi": 70,
                    "time": 109.88759099999895,
                    "velocity": 0.4409448818897638,
                    "duration": 0.33707850000000406
                },
                {
                    "name": "C4",
                    "midi": 60,
                    "time": 110.22466949999895,
                    "velocity": 0.4015748031496063,
                    "duration": 0.11235949999999661
                },
                {
                    "name": "D#4",
                    "midi": 63,
                    "time": 110.22466949999895,
                    "velocity": 0.48031496062992124,
                    "duration": 0.11235949999999661
                },
                {
                    "name": "A#3",
                    "midi": 58,
                    "time": 110.22466949999895,
                    "velocity": 0.4015748031496063,
                    "duration": 0.11235949999999661
                },
                {
                    "name": "F#4",
                    "midi": 66,
                    "time": 110.22466949999895,
                    "velocity": 0.48031496062992124,
                    "duration": 0.11235949999999661
                },
                {
                    "name": "A#4",
                    "midi": 70,
                    "time": 110.22466949999895,
                    "velocity": 0.48031496062992124,
                    "duration": 0.11235949999999661
                },
                {
                    "name": "D#4",
                    "midi": 63,
                    "time": 110.33702899999895,
                    "velocity": 0.5196850393700787,
                    "duration": 0.22471899999999323
                },
                {
                    "name": "F#4",
                    "midi": 66,
                    "time": 110.33702899999895,
                    "velocity": 0.5196850393700787,
                    "duration": 0.22471899999999323
                },
                {
                    "name": "A#3",
                    "midi": 58,
                    "time": 110.33702899999895,
                    "velocity": 0.4409448818897638,
                    "duration": 0.22471899999999323
                },
                {
                    "name": "C4",
                    "midi": 60,
                    "time": 110.33702899999895,
                    "velocity": 0.4409448818897638,
                    "duration": 0.22471899999999323
                },
                {
                    "name": "A#4",
                    "midi": 70,
                    "time": 110.33702899999895,
                    "velocity": 0.5196850393700787,
                    "duration": 0.22471899999999323
                },
                {
                    "name": "F4",
                    "midi": 65,
                    "time": 110.56174799999894,
                    "velocity": 0.4881889763779528,
                    "duration": 0.22471900000000744
                },
                {
                    "name": "A#3",
                    "midi": 58,
                    "time": 110.56174799999894,
                    "velocity": 0.4094488188976378,
                    "duration": 0.22471900000000744
                },
                {
                    "name": "C#4",
                    "midi": 61,
                    "time": 110.56174799999894,
                    "velocity": 0.4094488188976378,
                    "duration": 0.22471900000000744
                },
                {
                    "name": "A#4",
                    "midi": 70,
                    "time": 110.56174799999894,
                    "velocity": 0.4881889763779528,
                    "duration": 0.22471900000000744
                },
                {
                    "name": "A2",
                    "midi": 45,
                    "time": 111.01118599999894,
                    "velocity": 0.2125984251968504,
                    "duration": 0.07490633333333108
                },
                {
                    "name": "A#2",
                    "midi": 46,
                    "time": 111.08609233333227,
                    "velocity": 0.2283464566929134,
                    "duration": 0.07490633333333108
                },
                {
                    "name": "C#3",
                    "midi": 49,
                    "time": 111.1609986666656,
                    "velocity": 0.23622047244094488,
                    "duration": 0.07490633333333108
                },
                {
                    "name": "F3",
                    "midi": 53,
                    "time": 111.23590499999894,
                    "velocity": 0.2755905511811024,
                    "duration": 0.11235949999999661
                },
                {
                    "name": "A2",
                    "midi": 45,
                    "time": 111.68534299999894,
                    "velocity": 0.1889763779527559,
                    "duration": 0.07490633333333108
                },
                {
                    "name": "A#2",
                    "midi": 46,
                    "time": 111.76024933333227,
                    "velocity": 0.2047244094488189,
                    "duration": 0.07490633333333108
                },
                {
                    "name": "C#3",
                    "midi": 49,
                    "time": 111.8351556666656,
                    "velocity": 0.2125984251968504,
                    "duration": 0.07490633333333108
                },
                {
                    "name": "F3",
                    "midi": 53,
                    "time": 111.91006199999893,
                    "velocity": 0.2677165354330709,
                    "duration": 0.11235949999999661
                },
                {
                    "name": "C1",
                    "midi": 24,
                    "time": 113.25837599999893,
                    "velocity": 0.7480314960629921,
                    "duration": 0.11235949999999661
                },
                {
                    "name": "C2",
                    "midi": 36,
                    "time": 113.25837599999893,
                    "velocity": 0.7480314960629921,
                    "duration": 0.11235949999999661
                },
                {
                    "name": "G#4",
                    "midi": 68,
                    "time": 113.93253299999893,
                    "velocity": 0.7007874015748031,
                    "duration": 1.348314000000002
                },
                {
                    "name": "C5",
                    "midi": 72,
                    "time": 113.93253299999893,
                    "velocity": 0.7007874015748031,
                    "duration": 1.348314000000002
                },
                {
                    "name": "F4",
                    "midi": 65,
                    "time": 113.93253299999893,
                    "velocity": 0.7007874015748031,
                    "duration": 1.348314000000002
                },
                {
                    "name": "C4",
                    "midi": 60,
                    "time": 113.93253299999893,
                    "velocity": 0.5905511811023622,
                    "duration": 1.348314000000002
                },
                {
                    "name": "C4",
                    "midi": 60,
                    "time": 115.28084699999893,
                    "velocity": 0.4566929133858268,
                    "duration": 0.16853925000000913
                },
                {
                    "name": "A#4",
                    "midi": 70,
                    "time": 115.28084699999893,
                    "velocity": 0.5433070866141733,
                    "duration": 0.16853925000000913
                },
                {
                    "name": "E4",
                    "midi": 64,
                    "time": 115.28084699999893,
                    "velocity": 0.5433070866141733,
                    "duration": 0.16853925000000913
                },
                {
                    "name": "C5",
                    "midi": 72,
                    "time": 115.28084699999893,
                    "velocity": 0.5433070866141733,
                    "duration": 0.16853925000000913
                },
                {
                    "name": "C4",
                    "midi": 60,
                    "time": 115.44938624999894,
                    "velocity": 0.41732283464566927,
                    "duration": 0.16853924999999492
                },
                {
                    "name": "E4",
                    "midi": 64,
                    "time": 115.44938624999894,
                    "velocity": 0.49606299212598426,
                    "duration": 0.16853924999999492
                },
                {
                    "name": "A#4",
                    "midi": 70,
                    "time": 115.44938624999894,
                    "velocity": 0.49606299212598426,
                    "duration": 0.16853924999999492
                },
                {
                    "name": "C5",
                    "midi": 72,
                    "time": 115.44938624999894,
                    "velocity": 0.49606299212598426,
                    "duration": 0.16853924999999492
                },
                {
                    "name": "E4",
                    "midi": 64,
                    "time": 115.61792549999893,
                    "velocity": 0.48031496062992124,
                    "duration": 0.16853924999999492
                },
                {
                    "name": "C4",
                    "midi": 60,
                    "time": 115.61792549999893,
                    "velocity": 0.4015748031496063,
                    "duration": 0.16853924999999492
                },
                {
                    "name": "C5",
                    "midi": 72,
                    "time": 115.61792549999893,
                    "velocity": 0.48031496062992124,
                    "duration": 0.16853924999999492
                },
                {
                    "name": "A#4",
                    "midi": 70,
                    "time": 115.61792549999893,
                    "velocity": 0.48031496062992124,
                    "duration": 0.16853924999999492
                },
                {
                    "name": "C5",
                    "midi": 72,
                    "time": 115.78646474999893,
                    "velocity": 0.4881889763779528,
                    "duration": 0.16853924999999492
                },
                {
                    "name": "E4",
                    "midi": 64,
                    "time": 115.78646474999893,
                    "velocity": 0.4881889763779528,
                    "duration": 0.16853924999999492
                },
                {
                    "name": "C4",
                    "midi": 60,
                    "time": 115.78646474999893,
                    "velocity": 0.4094488188976378,
                    "duration": 0.16853924999999492
                },
                {
                    "name": "A#4",
                    "midi": 70,
                    "time": 115.78646474999893,
                    "velocity": 0.4881889763779528,
                    "duration": 0.16853924999999492
                },
                {
                    "name": "C5",
                    "midi": 72,
                    "time": 115.95500399999892,
                    "velocity": 0.5354330708661418,
                    "duration": 0.22471899999999323
                },
                {
                    "name": "F4",
                    "midi": 65,
                    "time": 115.95500399999892,
                    "velocity": 0.5354330708661418,
                    "duration": 0.22471899999999323
                },
                {
                    "name": "G#4",
                    "midi": 68,
                    "time": 115.95500399999892,
                    "velocity": 0.5354330708661418,
                    "duration": 0.22471899999999323
                },
                {
                    "name": "F3",
                    "midi": 53,
                    "time": 116.62916099999892,
                    "velocity": 0.5118110236220472,
                    "duration": 0.44943800000000067
                },
                {
                    "name": "F4",
                    "midi": 65,
                    "time": 116.62916099999892,
                    "velocity": 0.6062992125984252,
                    "duration": 0.44943800000000067
                },
                {
                    "name": "C4",
                    "midi": 60,
                    "time": 116.62916099999892,
                    "velocity": 0.6062992125984252,
                    "duration": 0.44943800000000067
                },
                {
                    "name": "F3",
                    "midi": 53,
                    "time": 117.30331799999891,
                    "velocity": 0.6062992125984252,
                    "duration": 0.44943800000000067
                },
                {
                    "name": "C3",
                    "midi": 48,
                    "time": 117.30331799999891,
                    "velocity": 0.6062992125984252,
                    "duration": 0.44943800000000067
                },
                {
                    "name": "F2",
                    "midi": 41,
                    "time": 117.30331799999891,
                    "velocity": 0.5118110236220472,
                    "duration": 0.44943800000000067
                },
                {
                    "name": "E1",
                    "midi": 28,
                    "time": 117.9774749999989,
                    "velocity": 0.6220472440944882,
                    "duration": 1.348314000000002
                },
                {
                    "name": "E2",
                    "midi": 40,
                    "time": 117.9774749999989,
                    "velocity": 0.7401574803149606,
                    "duration": 1.348314000000002
                },
                {
                    "name": "F1",
                    "midi": 29,
                    "time": 119.3257889999989,
                    "velocity": 0.7401574803149606,
                    "duration": 0.6741569999999939
                },
                {
                    "name": "D1",
                    "midi": 26,
                    "time": 119.9999459999989,
                    "velocity": 0.3543307086614173,
                    "duration": 0.08426962500000457
                },
                {
                    "name": "D#1",
                    "midi": 27,
                    "time": 120.07485233333223,
                    "velocity": 0.3543307086614173,
                    "duration": 0.08426962500001878
                },
                {
                    "name": "F1",
                    "midi": 29,
                    "time": 120.14975866666558,
                    "velocity": 0.3543307086614173,
                    "duration": 0.08426962500001878
                },
                {
                    "name": "D#1",
                    "midi": 27,
                    "time": 120.22466499999892,
                    "velocity": 0.36220472440944884,
                    "duration": 0.08426962500001878
                },
                {
                    "name": "F1",
                    "midi": 29,
                    "time": 120.29957133333227,
                    "velocity": 0.3700787401574803,
                    "duration": 0.08426962500001878
                },
                {
                    "name": "D#1",
                    "midi": 27,
                    "time": 120.37447766666561,
                    "velocity": 0.3858267716535433,
                    "duration": 0.08426962500001878
                },
                {
                    "name": "F1",
                    "midi": 29,
                    "time": 120.44938399999896,
                    "velocity": 0.3937007874015748,
                    "duration": 0.08426962500001878
                },
                {
                    "name": "D#1",
                    "midi": 27,
                    "time": 120.5242903333323,
                    "velocity": 0.4015748031496063,
                    "duration": 0.08426962500001878
                },
                {
                    "name": "F1",
                    "midi": 29,
                    "time": 120.59919666666565,
                    "velocity": 0.4015748031496063,
                    "duration": 0.08426962500001878
                },
                {
                    "name": "D#1",
                    "midi": 27,
                    "time": 120.674102999999,
                    "velocity": 0.4094488188976378,
                    "duration": 0.06554304166668601
                },
                {
                    "name": "F1",
                    "midi": 29,
                    "time": 120.730282749999,
                    "velocity": 0.41732283464566927,
                    "duration": 0.06554304166668601
                },
                {
                    "name": "D#1",
                    "midi": 27,
                    "time": 120.78646249999902,
                    "velocity": 0.41732283464566927,
                    "duration": 0.06554304166668601
                },
                {
                    "name": "F1",
                    "midi": 29,
                    "time": 120.84264224999903,
                    "velocity": 0.4251968503937008,
                    "duration": 0.05617975000001252
                },
                {
                    "name": "D#1",
                    "midi": 27,
                    "time": 120.89882199999904,
                    "velocity": 0.4330708661417323,
                    "duration": 0.05617974999999831
                },
                {
                    "name": "F1",
                    "midi": 29,
                    "time": 120.95500174999904,
                    "velocity": 0.4330708661417323,
                    "duration": 0.05617974999999831
                },
                {
                    "name": "D#1",
                    "midi": 27,
                    "time": 121.01118149999904,
                    "velocity": 0.4409448818897638,
                    "duration": 0.05617974999999831
                },
                {
                    "name": "F1",
                    "midi": 29,
                    "time": 121.06736124999904,
                    "velocity": 0.4409448818897638,
                    "duration": 0.05617974999999831
                },
                {
                    "name": "D#1",
                    "midi": 27,
                    "time": 121.12354099999904,
                    "velocity": 0.4645669291338583,
                    "duration": 0.08426962500000457
                },
                {
                    "name": "D1",
                    "midi": 26,
                    "time": 121.19844733333237,
                    "velocity": 0.5748031496062992,
                    "duration": 0.08426962500001878
                },
                {
                    "name": "D#1",
                    "midi": 27,
                    "time": 121.27335366666571,
                    "velocity": 0.5748031496062992,
                    "duration": 0.08426962500001878
                },
                {
                    "name": "C#1",
                    "midi": 25,
                    "time": 121.34825999999906,
                    "velocity": 0.5826771653543307,
                    "duration": 0.11235950000001083
                },
                {
                    "name": "C#2",
                    "midi": 37,
                    "time": 121.34825999999906,
                    "velocity": 0.6929133858267716,
                    "duration": 0.11235950000001083
                },
                {
                    "name": "G#2",
                    "midi": 44,
                    "time": 121.79769799999907,
                    "velocity": 0.3543307086614173,
                    "duration": 0.22471899999999323
                },
                {
                    "name": "G#3",
                    "midi": 56,
                    "time": 121.79769799999907,
                    "velocity": 0.3543307086614173,
                    "duration": 0.22471899999999323
                },
                {
                    "name": "C#4",
                    "midi": 61,
                    "time": 122.02241699999907,
                    "velocity": 0.41732283464566927,
                    "duration": 0.22471899999999323
                },
                {
                    "name": "F3",
                    "midi": 53,
                    "time": 122.02241699999907,
                    "velocity": 0.41732283464566927,
                    "duration": 0.22471899999999323
                },
                {
                    "name": "G#2",
                    "midi": 44,
                    "time": 122.47185499999905,
                    "velocity": 0.33070866141732286,
                    "duration": 0.22471899999999323
                },
                {
                    "name": "G#3",
                    "midi": 56,
                    "time": 122.47185499999905,
                    "velocity": 0.33070866141732286,
                    "duration": 0.22471899999999323
                },
                {
                    "name": "F3",
                    "midi": 53,
                    "time": 122.69657399999905,
                    "velocity": 0.3700787401574803,
                    "duration": 0.22471899999999323
                },
                {
                    "name": "C#4",
                    "midi": 61,
                    "time": 122.69657399999905,
                    "velocity": 0.3700787401574803,
                    "duration": 0.22471899999999323
                },
                {
                    "name": "G#1",
                    "midi": 32,
                    "time": 124.04488799999903,
                    "velocity": 0.4094488188976378,
                    "duration": 0.11235949999999661
                },
                {
                    "name": "G#2",
                    "midi": 44,
                    "time": 124.04488799999903,
                    "velocity": 0.4094488188976378,
                    "duration": 0.11235949999999661
                },
                {
                    "name": "F#4",
                    "midi": 66,
                    "time": 124.71904499999903,
                    "velocity": 0.2992125984251969,
                    "duration": 0.22471899999999323
                },
                {
                    "name": "G3",
                    "midi": 55,
                    "time": 124.71904499999903,
                    "velocity": 0.2992125984251969,
                    "duration": 0.22471899999999323
                },
                {
                    "name": "C4",
                    "midi": 60,
                    "time": 124.71904499999903,
                    "velocity": 0.2992125984251969,
                    "duration": 0.22471899999999323
                },
                {
                    "name": "G#3",
                    "midi": 56,
                    "time": 124.94376399999902,
                    "velocity": 0.2755905511811024,
                    "duration": 0.22471899999999323
                },
                {
                    "name": "C4",
                    "midi": 60,
                    "time": 124.94376399999902,
                    "velocity": 0.2755905511811024,
                    "duration": 0.22471899999999323
                },
                {
                    "name": "F#4",
                    "midi": 66,
                    "time": 124.94376399999902,
                    "velocity": 0.2755905511811024,
                    "duration": 0.22471899999999323
                },
                {
                    "name": "F#4",
                    "midi": 66,
                    "time": 125.16848299999901,
                    "velocity": 0.2440944881889764,
                    "duration": 0.11235949999999661
                },
                {
                    "name": "G#3",
                    "midi": 56,
                    "time": 125.16848299999901,
                    "velocity": 0.2440944881889764,
                    "duration": 0.11235949999999661
                },
                {
                    "name": "C4",
                    "midi": 60,
                    "time": 125.16848299999901,
                    "velocity": 0.2440944881889764,
                    "duration": 0.11235949999999661
                },
                {
                    "name": "A3",
                    "midi": 57,
                    "time": 126.06735899999902,
                    "velocity": 0.2755905511811024,
                    "duration": 0.22471899999999323
                },
                {
                    "name": "C4",
                    "midi": 60,
                    "time": 126.06735899999902,
                    "velocity": 0.2755905511811024,
                    "duration": 0.22471899999999323
                },
                {
                    "name": "F#4",
                    "midi": 66,
                    "time": 126.06735899999902,
                    "velocity": 0.2755905511811024,
                    "duration": 0.22471899999999323
                },
                {
                    "name": "F#4",
                    "midi": 66,
                    "time": 126.29207799999901,
                    "velocity": 0.25196850393700787,
                    "duration": 0.22471899999999323
                },
                {
                    "name": "C4",
                    "midi": 60,
                    "time": 126.29207799999901,
                    "velocity": 0.25196850393700787,
                    "duration": 0.22471899999999323
                },
                {
                    "name": "G#3",
                    "midi": 56,
                    "time": 126.29207799999901,
                    "velocity": 0.25196850393700787,
                    "duration": 0.22471899999999323
                },
                {
                    "name": "F#4",
                    "midi": 66,
                    "time": 126.516796999999,
                    "velocity": 0.2204724409448819,
                    "duration": 0.11235949999999661
                },
                {
                    "name": "C4",
                    "midi": 60,
                    "time": 126.516796999999,
                    "velocity": 0.2204724409448819,
                    "duration": 0.11235949999999661
                },
                {
                    "name": "G#3",
                    "midi": 56,
                    "time": 126.516796999999,
                    "velocity": 0.2204724409448819,
                    "duration": 0.11235949999999661
                },
                {
                    "name": "C#1",
                    "midi": 25,
                    "time": 126.741515999999,
                    "velocity": 0.5826771653543307,
                    "duration": 0.11235949999999661
                },
                {
                    "name": "C#2",
                    "midi": 37,
                    "time": 126.741515999999,
                    "velocity": 0.6929133858267716,
                    "duration": 0.11235949999999661
                },
                {
                    "name": "G#2",
                    "midi": 44,
                    "time": 127.190953999999,
                    "velocity": 0.3543307086614173,
                    "duration": 0.22471899999999323
                },
                {
                    "name": "G#3",
                    "midi": 56,
                    "time": 127.190953999999,
                    "velocity": 0.3543307086614173,
                    "duration": 0.22471899999999323
                },
                {
                    "name": "C#4",
                    "midi": 61,
                    "time": 127.41567299999899,
                    "velocity": 0.41732283464566927,
                    "duration": 0.22471899999999323
                },
                {
                    "name": "F3",
                    "midi": 53,
                    "time": 127.41567299999899,
                    "velocity": 0.41732283464566927,
                    "duration": 0.22471899999999323
                },
                {
                    "name": "G#2",
                    "midi": 44,
                    "time": 127.86511099999898,
                    "velocity": 0.33070866141732286,
                    "duration": 0.22471900000000744
                },
                {
                    "name": "G#3",
                    "midi": 56,
                    "time": 127.86511099999898,
                    "velocity": 0.33070866141732286,
                    "duration": 0.22471900000000744
                },
                {
                    "name": "F3",
                    "midi": 53,
                    "time": 128.08982999999898,
                    "velocity": 0.3700787401574803,
                    "duration": 0.22471899999999323
                },
                {
                    "name": "C#4",
                    "midi": 61,
                    "time": 128.08982999999898,
                    "velocity": 0.3700787401574803,
                    "duration": 0.22471899999999323
                },
                {
                    "name": "G#2",
                    "midi": 44,
                    "time": 129.43814399999897,
                    "velocity": 0.1968503937007874,
                    "duration": 0.6741570000000081
                },
                {
                    "name": "D#3",
                    "midi": 51,
                    "time": 129.43814399999897,
                    "velocity": 0.1968503937007874,
                    "duration": 0.6741570000000081
                },
                {
                    "name": "F#3",
                    "midi": 54,
                    "time": 129.43814399999897,
                    "velocity": 0.1968503937007874,
                    "duration": 0.6741570000000081
                },
                {
                    "name": "C4",
                    "midi": 60,
                    "time": 130.11230099999898,
                    "velocity": 0.25196850393700787,
                    "duration": 0.11235949999999661
                },
                {
                    "name": "C#4",
                    "midi": 61,
                    "time": 130.22466049999898,
                    "velocity": 0.25196850393700787,
                    "duration": 0.11235949999999661
                },
                {
                    "name": "D#4",
                    "midi": 63,
                    "time": 130.33701999999897,
                    "velocity": 0.25196850393700787,
                    "duration": 0.11235949999999661
                },
                {
                    "name": "F4",
                    "midi": 65,
                    "time": 130.44937949999897,
                    "velocity": 0.25196850393700787,
                    "duration": 0.11235949999999661
                },
                {
                    "name": "F#4",
                    "midi": 66,
                    "time": 130.56173899999897,
                    "velocity": 0.25196850393700787,
                    "duration": 0.11235949999999661
                },
                {
                    "name": "G#4",
                    "midi": 68,
                    "time": 130.67409849999896,
                    "velocity": 0.25196850393700787,
                    "duration": 0.11235949999999661
                },
                {
                    "name": "A4",
                    "midi": 69,
                    "time": 130.78645799999896,
                    "velocity": 0.25196850393700787,
                    "duration": 0.11235949999999661
                },
                {
                    "name": "A3",
                    "midi": 57,
                    "time": 131.46061499999897,
                    "velocity": 0.23622047244094488,
                    "duration": 0.11235949999999661
                },
                {
                    "name": "G#3",
                    "midi": 56,
                    "time": 131.57297449999896,
                    "velocity": 0.2283464566929134,
                    "duration": 0.11235949999999661
                },
                {
                    "name": "G3",
                    "midi": 55,
                    "time": 131.68533399999896,
                    "velocity": 0.2204724409448819,
                    "duration": 0.11235949999999661
                },
                {
                    "name": "F#3",
                    "midi": 54,
                    "time": 131.79769349999896,
                    "velocity": 0.2125984251968504,
                    "duration": 0.11235949999999661
                },
                {
                    "name": "F3",
                    "midi": 53,
                    "time": 131.91005299999895,
                    "velocity": 0.2047244094488189,
                    "duration": 0.11235949999999661
                },
                {
                    "name": "D#3",
                    "midi": 51,
                    "time": 132.02241249999895,
                    "velocity": 0.1968503937007874,
                    "duration": 0.11235949999999661
                },
                {
                    "name": "C#3",
                    "midi": 49,
                    "time": 132.13477199999895,
                    "velocity": 0.2125984251968504,
                    "duration": 0.11235949999999661
                },
                {
                    "name": "G#3",
                    "midi": 56,
                    "time": 132.24713149999894,
                    "velocity": 0.2204724409448819,
                    "duration": 0.11235949999999661
                },
                {
                    "name": "C#4",
                    "midi": 61,
                    "time": 132.35949099999894,
                    "velocity": 0.23622047244094488,
                    "duration": 0.11235949999999661
                },
                {
                    "name": "F4",
                    "midi": 65,
                    "time": 132.47185049999894,
                    "velocity": 0.2677165354330709,
                    "duration": 0.11235949999999661
                },
                {
                    "name": "C#4",
                    "midi": 61,
                    "time": 132.58420999999893,
                    "velocity": 0.2440944881889764,
                    "duration": 0.11235949999999661
                },
                {
                    "name": "G#3",
                    "midi": 56,
                    "time": 132.69656949999893,
                    "velocity": 0.23622047244094488,
                    "duration": 0.11235949999999661
                },
                {
                    "name": "C#3",
                    "midi": 49,
                    "time": 132.80892899999893,
                    "velocity": 0.2283464566929134,
                    "duration": 0.11235949999999661
                },
                {
                    "name": "B3",
                    "midi": 59,
                    "time": 132.92128849999892,
                    "velocity": 0.2204724409448819,
                    "duration": 0.11235949999999661
                },
                {
                    "name": "C#4",
                    "midi": 61,
                    "time": 133.03364799999892,
                    "velocity": 0.23622047244094488,
                    "duration": 0.11235949999999661
                },
                {
                    "name": "F4",
                    "midi": 65,
                    "time": 133.14600749999892,
                    "velocity": 0.2440944881889764,
                    "duration": 0.11235949999999661
                },
                {
                    "name": "C#4",
                    "midi": 61,
                    "time": 133.2583669999989,
                    "velocity": 0.23622047244094488,
                    "duration": 0.11235949999999661
                },
                {
                    "name": "B3",
                    "midi": 59,
                    "time": 133.3707264999989,
                    "velocity": 0.2283464566929134,
                    "duration": 0.11235949999999661
                },
                {
                    "name": "F#3",
                    "midi": 54,
                    "time": 133.4830859999989,
                    "velocity": 0.2204724409448819,
                    "duration": 0.11235949999999661
                },
                {
                    "name": "B3",
                    "midi": 59,
                    "time": 133.5954454999989,
                    "velocity": 0.2204724409448819,
                    "duration": 0.11235949999999661
                },
                {
                    "name": "C#4",
                    "midi": 61,
                    "time": 133.7078049999989,
                    "velocity": 0.2440944881889764,
                    "duration": 0.11235949999999661
                },
                {
                    "name": "F#4",
                    "midi": 66,
                    "time": 133.8201644999989,
                    "velocity": 0.2677165354330709,
                    "duration": 0.11235949999999661
                },
                {
                    "name": "C#4",
                    "midi": 61,
                    "time": 133.9325239999989,
                    "velocity": 0.2440944881889764,
                    "duration": 0.11235949999999661
                },
                {
                    "name": "B3",
                    "midi": 59,
                    "time": 134.0448834999989,
                    "velocity": 0.2283464566929134,
                    "duration": 0.11235949999999661
                },
                {
                    "name": "C#3",
                    "midi": 49,
                    "time": 134.15724299999889,
                    "velocity": 0.2283464566929134,
                    "duration": 0.11235949999999661
                },
                {
                    "name": "A#3",
                    "midi": 58,
                    "time": 134.26960249999888,
                    "velocity": 0.2204724409448819,
                    "duration": 0.11235949999999661
                },
                {
                    "name": "C#4",
                    "midi": 61,
                    "time": 134.38196199999888,
                    "velocity": 0.23622047244094488,
                    "duration": 0.11235949999999661
                },
                {
                    "name": "F#4",
                    "midi": 66,
                    "time": 134.49432149999888,
                    "velocity": 0.25984251968503935,
                    "duration": 0.11235949999999661
                },
                {
                    "name": "C#4",
                    "midi": 61,
                    "time": 134.60668099999887,
                    "velocity": 0.2440944881889764,
                    "duration": 0.11235949999999661
                },
                {
                    "name": "A#3",
                    "midi": 58,
                    "time": 134.71904049999887,
                    "velocity": 0.23622047244094488,
                    "duration": 0.11235949999999661
                },
                {
                    "name": "G#3",
                    "midi": 56,
                    "time": 134.83139999999887,
                    "velocity": 0.2204724409448819,
                    "duration": 0.11235950000002504
                },
                {
                    "name": "B3",
                    "midi": 59,
                    "time": 134.9437594999989,
                    "velocity": 0.2204724409448819,
                    "duration": 0.11235949999999661
                },
                {
                    "name": "C#4",
                    "midi": 61,
                    "time": 135.0561189999989,
                    "velocity": 0.23622047244094488,
                    "duration": 0.11235949999999661
                },
                {
                    "name": "G#4",
                    "midi": 68,
                    "time": 135.16847849999888,
                    "velocity": 0.25984251968503935,
                    "duration": 0.11235949999999661
                },
                {
                    "name": "C#4",
                    "midi": 61,
                    "time": 135.28083799999888,
                    "velocity": 0.2440944881889764,
                    "duration": 0.11235949999999661
                },
                {
                    "name": "B3",
                    "midi": 59,
                    "time": 135.39319749999888,
                    "velocity": 0.2283464566929134,
                    "duration": 0.11235949999999661
                },
                {
                    "name": "C#3",
                    "midi": 49,
                    "time": 135.50555699999887,
                    "velocity": 0.2283464566929134,
                    "duration": 0.11235949999999661
                },
                {
                    "name": "B3",
                    "midi": 59,
                    "time": 135.61791649999887,
                    "velocity": 0.2204724409448819,
                    "duration": 0.11235949999999661
                },
                {
                    "name": "C#4",
                    "midi": 61,
                    "time": 135.73027599999887,
                    "velocity": 0.23622047244094488,
                    "duration": 0.11235949999999661
                },
                {
                    "name": "F4",
                    "midi": 65,
                    "time": 135.84263549999886,
                    "velocity": 0.2440944881889764,
                    "duration": 0.11235949999999661
                },
                {
                    "name": "C#4",
                    "midi": 61,
                    "time": 135.95499499999886,
                    "velocity": 0.23622047244094488,
                    "duration": 0.11235949999999661
                },
                {
                    "name": "B3",
                    "midi": 59,
                    "time": 136.06735449999886,
                    "velocity": 0.2283464566929134,
                    "duration": 0.11235949999999661
                },
                {
                    "name": "F#3",
                    "midi": 54,
                    "time": 136.17971399999885,
                    "velocity": 0.2283464566929134,
                    "duration": 0.11235949999999661
                },
                {
                    "name": "A#3",
                    "midi": 58,
                    "time": 136.29207349999885,
                    "velocity": 0.23622047244094488,
                    "duration": 0.11235949999999661
                },
                {
                    "name": "C#4",
                    "midi": 61,
                    "time": 136.40443299999885,
                    "velocity": 0.2677165354330709,
                    "duration": 0.11235949999999661
                },
                {
                    "name": "F#4",
                    "midi": 66,
                    "time": 136.51679249999884,
                    "velocity": 0.2755905511811024,
                    "duration": 0.11235949999999661
                },
                {
                    "name": "C#4",
                    "midi": 61,
                    "time": 136.62915199999884,
                    "velocity": 0.2677165354330709,
                    "duration": 0.11235949999999661
                },
                {
                    "name": "A#3",
                    "midi": 58,
                    "time": 136.74151149999884,
                    "velocity": 0.25984251968503935,
                    "duration": 0.11235949999999661
                },
                {
                    "name": "E3",
                    "midi": 52,
                    "time": 136.85387099999883,
                    "velocity": 0.2755905511811024,
                    "duration": 0.11235950000002504
                },
                {
                    "name": "A#3",
                    "midi": 58,
                    "time": 136.96623049999886,
                    "velocity": 0.28346456692913385,
                    "duration": 0.11235949999999661
                },
                {
                    "name": "C#4",
                    "midi": 61,
                    "time": 137.07858999999885,
                    "velocity": 0.30708661417322836,
                    "duration": 0.11235949999999661
                },
                {
                    "name": "G#4",
                    "midi": 68,
                    "time": 137.19094949999885,
                    "velocity": 0.29133858267716534,
                    "duration": 0.11235949999999661
                },
                {
                    "name": "C#4",
                    "midi": 61,
                    "time": 137.30330899999885,
                    "velocity": 0.2677165354330709,
                    "duration": 0.11235949999999661
                },
                {
                    "name": "A#3",
                    "midi": 58,
                    "time": 137.41566849999884,
                    "velocity": 0.2440944881889764,
                    "duration": 0.11235949999999661
                },
                {
                    "name": "D#3",
                    "midi": 51,
                    "time": 137.52802799999884,
                    "velocity": 0.28346456692913385,
                    "duration": 0.11235949999999661
                },
                {
                    "name": "A#3",
                    "midi": 58,
                    "time": 137.64038749999884,
                    "velocity": 0.2992125984251969,
                    "duration": 0.11235949999999661
                },
                {
                    "name": "C#4",
                    "midi": 61,
                    "time": 137.75274699999883,
                    "velocity": 0.3228346456692913,
                    "duration": 0.11235949999999661
                },
                {
                    "name": "G4",
                    "midi": 67,
                    "time": 137.86510649999883,
                    "velocity": 0.3543307086614173,
                    "duration": 0.11235949999999661
                },
                {
                    "name": "C#4",
                    "midi": 61,
                    "time": 137.97746599999883,
                    "velocity": 0.33070866141732286,
                    "duration": 0.11235949999999661
                },
                {
                    "name": "A#3",
                    "midi": 58,
                    "time": 138.08982549999882,
                    "velocity": 0.30708661417322836,
                    "duration": 0.11235949999999661
                },
                {
                    "name": "G3",
                    "midi": 55,
                    "time": 138.20218499999882,
                    "velocity": 0.28346456692913385,
                    "duration": 0.11235949999999661
                },
                {
                    "name": "C#4",
                    "midi": 61,
                    "time": 138.31454449999882,
                    "velocity": 0.2992125984251969,
                    "duration": 0.11235949999999661
                },
                {
                    "name": "D#4",
                    "midi": 63,
                    "time": 138.4269039999988,
                    "velocity": 0.3228346456692913,
                    "duration": 0.11235949999999661
                },
                {
                    "name": "A#4",
                    "midi": 70,
                    "time": 138.5392634999988,
                    "velocity": 0.36220472440944884,
                    "duration": 0.11235949999999661
                },
                {
                    "name": "D#4",
                    "midi": 63,
                    "time": 138.6516229999988,
                    "velocity": 0.33070866141732286,
                    "duration": 0.11235949999999661
                },
                {
                    "name": "C#4",
                    "midi": 61,
                    "time": 138.7639824999988,
                    "velocity": 0.30708661417322836,
                    "duration": 0.11235949999999661
                },
                {
                    "name": "G#3",
                    "midi": 56,
                    "time": 138.8763419999988,
                    "velocity": 0.29133858267716534,
                    "duration": 0.11235950000002504
                },
                {
                    "name": "C#4",
                    "midi": 61,
                    "time": 138.98870149999883,
                    "velocity": 0.2992125984251969,
                    "duration": 0.11235949999999661
                },
                {
                    "name": "D#4",
                    "midi": 63,
                    "time": 139.10106099999882,
                    "velocity": 0.33070866141732286,
                    "duration": 0.11235949999999661
                },
                {
                    "name": "G#4",
                    "midi": 68,
                    "time": 139.21342049999882,
                    "velocity": 0.3543307086614173,
                    "duration": 0.11235949999999661
                },
                {
                    "name": "D#4",
                    "midi": 63,
                    "time": 139.32577999999882,
                    "velocity": 0.3228346456692913,
                    "duration": 0.11235949999999661
                },
                {
                    "name": "C#4",
                    "midi": 61,
                    "time": 139.4381394999988,
                    "velocity": 0.2992125984251969,
                    "duration": 0.11235949999999661
                },
                {
                    "name": "D#3",
                    "midi": 51,
                    "time": 139.5504989999988,
                    "velocity": 0.28346456692913385,
                    "duration": 0.11235949999999661
                },
                {
                    "name": "C4",
                    "midi": 60,
                    "time": 139.6628584999988,
                    "velocity": 0.29133858267716534,
                    "duration": 0.11235949999999661
                },
                {
                    "name": "D#4",
                    "midi": 63,
                    "time": 139.7752179999988,
                    "velocity": 0.31496062992125984,
                    "duration": 0.11235949999999661
                },
                {
                    "name": "G#4",
                    "midi": 68,
                    "time": 139.8875774999988,
                    "velocity": 0.3464566929133858,
                    "duration": 0.11235949999999661
                },
                {
                    "name": "D#4",
                    "midi": 63,
                    "time": 139.9999369999988,
                    "velocity": 0.3228346456692913,
                    "duration": 0.11235949999999661
                },
                {
                    "name": "C4",
                    "midi": 60,
                    "time": 140.1122964999988,
                    "velocity": 0.30708661417322836,
                    "duration": 0.11235949999999661
                },
                {
                    "name": "A#3",
                    "midi": 58,
                    "time": 140.2246559999988,
                    "velocity": 0.28346456692913385,
                    "duration": 0.11235949999999661
                },
                {
                    "name": "C#4",
                    "midi": 61,
                    "time": 140.33701549999878,
                    "velocity": 0.29133858267716534,
                    "duration": 0.11235949999999661
                },
                {
                    "name": "D#4",
                    "midi": 63,
                    "time": 140.44937499999878,
                    "velocity": 0.31496062992125984,
                    "duration": 0.11235949999999661
                },
                {
                    "name": "A#4",
                    "midi": 70,
                    "time": 140.56173449999878,
                    "velocity": 0.33070866141732286,
                    "duration": 0.11235949999999661
                },
                {
                    "name": "D#4",
                    "midi": 63,
                    "time": 140.67409399999877,
                    "velocity": 0.3228346456692913,
                    "duration": 0.11235949999999661
                },
                {
                    "name": "C#4",
                    "midi": 61,
                    "time": 140.78645349999877,
                    "velocity": 0.30708661417322836,
                    "duration": 0.11235949999999661
                },
                {
                    "name": "D#3",
                    "midi": 51,
                    "time": 140.89881299999877,
                    "velocity": 0.29133858267716534,
                    "duration": 0.11235949999999661
                },
                {
                    "name": "C#4",
                    "midi": 61,
                    "time": 141.01117249999876,
                    "velocity": 0.28346456692913385,
                    "duration": 0.11235949999999661
                },
                {
                    "name": "D#4",
                    "midi": 63,
                    "time": 141.12353199999876,
                    "velocity": 0.2992125984251969,
                    "duration": 0.11235949999999661
                },
                {
                    "name": "G4",
                    "midi": 67,
                    "time": 141.23589149999876,
                    "velocity": 0.31496062992125984,
                    "duration": 0.11235949999999661
                },
                {
                    "name": "D#4",
                    "midi": 63,
                    "time": 141.34825099999875,
                    "velocity": 0.31496062992125984,
                    "duration": 0.11235949999999661
                },
                {
                    "name": "C#4",
                    "midi": 61,
                    "time": 141.46061049999875,
                    "velocity": 0.29133858267716534,
                    "duration": 0.11235949999999661
                },
                {
                    "name": "G#3",
                    "midi": 56,
                    "time": 141.57296999999875,
                    "velocity": 0.3937007874015748,
                    "duration": 0.11235949999999661
                },
                {
                    "name": "C4",
                    "midi": 60,
                    "time": 141.68532949999874,
                    "velocity": 0.31496062992125984,
                    "duration": 0.11235949999999661
                },
                {
                    "name": "D#4",
                    "midi": 63,
                    "time": 141.79768899999874,
                    "velocity": 0.3464566929133858,
                    "duration": 0.11235949999999661
                },
                {
                    "name": "G#4",
                    "midi": 68,
                    "time": 141.91004849999874,
                    "velocity": 0.3543307086614173,
                    "duration": 0.11235949999999661
                },
                {
                    "name": "D#4",
                    "midi": 63,
                    "time": 142.02240799999873,
                    "velocity": 0.3464566929133858,
                    "duration": 0.11235949999999661
                },
                {
                    "name": "C4",
                    "midi": 60,
                    "time": 142.13476749999873,
                    "velocity": 0.33070866141732286,
                    "duration": 0.11235949999999661
                },
                {
                    "name": "G3",
                    "midi": 55,
                    "time": 142.24712699999873,
                    "velocity": 0.30708661417322836,
                    "duration": 0.6741569999999797
                },
                {
                    "name": "G#3",
                    "midi": 56,
                    "time": 142.35948649999872,
                    "velocity": 0.3228346456692913,
                    "duration": 0.11235949999999661
                },
                {
                    "name": "C4",
                    "midi": 60,
                    "time": 142.47184599999872,
                    "velocity": 0.3543307086614173,
                    "duration": 0.11235949999999661
                },
                {
                    "name": "D#4",
                    "midi": 63,
                    "time": 142.58420549999872,
                    "velocity": 0.3858267716535433,
                    "duration": 0.11235949999999661
                },
                {
                    "name": "C4",
                    "midi": 60,
                    "time": 142.6965649999987,
                    "velocity": 0.3700787401574803,
                    "duration": 0.11235949999999661
                },
                {
                    "name": "G#3",
                    "midi": 56,
                    "time": 142.8089244999987,
                    "velocity": 0.3228346456692913,
                    "duration": 0.11235949999999661
                },
                {
                    "name": "F#3",
                    "midi": 54,
                    "time": 142.9212839999987,
                    "velocity": 0.2992125984251969,
                    "duration": 0.6741569999999797
                },
                {
                    "name": "G#3",
                    "midi": 56,
                    "time": 143.0336434999987,
                    "velocity": 0.28346456692913385,
                    "duration": 0.11235949999999661
                },
                {
                    "name": "C4",
                    "midi": 60,
                    "time": 143.1460029999987,
                    "velocity": 0.30708661417322836,
                    "duration": 0.11235949999999661
                },
                {
                    "name": "D#4",
                    "midi": 63,
                    "time": 143.2583624999987,
                    "velocity": 0.33070866141732286,
                    "duration": 0.11235949999999661
                },
                {
                    "name": "C4",
                    "midi": 60,
                    "time": 143.3707219999987,
                    "velocity": 0.3228346456692913,
                    "duration": 0.11235949999999661
                },
                {
                    "name": "G#3",
                    "midi": 56,
                    "time": 143.4830814999987,
                    "velocity": 0.2992125984251969,
                    "duration": 0.11235949999999661
                },
                {
                    "name": "F#3",
                    "midi": 54,
                    "time": 143.5954409999987,
                    "velocity": 0.3700787401574803,
                    "duration": 0.6741569999999797
                },
                {
                    "name": "G#3",
                    "midi": 56,
                    "time": 143.70780049999868,
                    "velocity": 0.3228346456692913,
                    "duration": 0.11235949999999661
                },
                {
                    "name": "C4",
                    "midi": 60,
                    "time": 143.82015999999868,
                    "velocity": 0.3228346456692913,
                    "duration": 0.11235949999999661
                },
                {
                    "name": "D#4",
                    "midi": 63,
                    "time": 143.93251949999868,
                    "velocity": 0.3228346456692913,
                    "duration": 0.11235949999999661
                },
                {
                    "name": "C4",
                    "midi": 60,
                    "time": 144.04487899999867,
                    "velocity": 0.2992125984251969,
                    "duration": 0.11235949999999661
                },
                {
                    "name": "G#3",
                    "midi": 56,
                    "time": 144.15723849999867,
                    "velocity": 0.2755905511811024,
                    "duration": 0.11235949999999661
                },
                {
                    "name": "F3",
                    "midi": 53,
                    "time": 144.26959799999867,
                    "velocity": 0.2677165354330709,
                    "duration": 0.6741569999999797
                },
                {
                    "name": "G#3",
                    "midi": 56,
                    "time": 144.38195749999866,
                    "velocity": 0.25984251968503935,
                    "duration": 0.11235949999999661
                },
                {
                    "name": "C#4",
                    "midi": 61,
                    "time": 144.49431699999866,
                    "velocity": 0.28346456692913385,
                    "duration": 0.11235949999999661
                },
                {
                    "name": "F4",
                    "midi": 65,
                    "time": 144.60667649999866,
                    "velocity": 0.30708661417322836,
                    "duration": 0.11235949999999661
                },
                {
                    "name": "C#4",
                    "midi": 61,
                    "time": 144.71903599999865,
                    "velocity": 0.29133858267716534,
                    "duration": 0.11235949999999661
                },
                {
                    "name": "G#3",
                    "midi": 56,
                    "time": 144.83139549999865,
                    "velocity": 0.2755905511811024,
                    "duration": 0.11235949999999661
                },
                {
                    "name": "F3",
                    "midi": 53,
                    "time": 144.94375499999865,
                    "velocity": 0.28346456692913385,
                    "duration": 0.11235949999999661
                },
                {
                    "name": "G#3",
                    "midi": 56,
                    "time": 145.05611449999864,
                    "velocity": 0.2992125984251969,
                    "duration": 0.11235949999999661
                },
                {
                    "name": "C#4",
                    "midi": 61,
                    "time": 145.16847399999864,
                    "velocity": 0.3228346456692913,
                    "duration": 0.11235949999999661
                },
                {
                    "name": "G#4",
                    "midi": 68,
                    "time": 145.28083349999864,
                    "velocity": 0.33070866141732286,
                    "duration": 0.11235949999999661
                },
                {
                    "name": "C#4",
                    "midi": 61,
                    "time": 145.39319299999863,
                    "velocity": 0.31496062992125984,
                    "duration": 0.11235949999999661
                },
                {
                    "name": "G#3",
                    "midi": 56,
                    "time": 145.50555249999863,
                    "velocity": 0.29133858267716534,
                    "duration": 0.11235949999999661
                },
                {
                    "name": "D#3",
                    "midi": 51,
                    "time": 145.61791199999863,
                    "velocity": 0.2755905511811024,
                    "duration": 0.11235950000002504
                },
                {
                    "name": "G#3",
                    "midi": 56,
                    "time": 145.73027149999865,
                    "velocity": 0.2992125984251969,
                    "duration": 0.11235949999999661
                },
                {
                    "name": "C4",
                    "midi": 60,
                    "time": 145.84263099999865,
                    "velocity": 0.3228346456692913,
                    "duration": 0.11235949999999661
                },
                {
                    "name": "F#4",
                    "midi": 66,
                    "time": 145.95499049999864,
                    "velocity": 0.3228346456692913,
                    "duration": 0.11235949999999661
                },
                {
                    "name": "C4",
                    "midi": 60,
                    "time": 146.06734999999864,
                    "velocity": 0.30708661417322836,
                    "duration": 0.11235949999999661
                },
                {
                    "name": "G#3",
                    "midi": 56,
                    "time": 146.17970949999864,
                    "velocity": 0.28346456692913385,
                    "duration": 0.11235949999999661
                },
                {
                    "name": "D#3",
                    "midi": 51,
                    "time": 146.29206899999863,
                    "velocity": 0.2677165354330709,
                    "duration": 0.11235949999999661
                },
                {
                    "name": "G#3",
                    "midi": 56,
                    "time": 146.40442849999863,
                    "velocity": 0.2677165354330709,
                    "duration": 0.11235949999999661
                },
                {
                    "name": "C4",
                    "midi": 60,
                    "time": 146.51678799999863,
                    "velocity": 0.29133858267716534,
                    "duration": 0.11235949999999661
                },
                {
                    "name": "F#4",
                    "midi": 66,
                    "time": 146.62914749999862,
                    "velocity": 0.30708661417322836,
                    "duration": 0.11235949999999661
                },
                {
                    "name": "C4",
                    "midi": 60,
                    "time": 146.74150699999862,
                    "velocity": 0.28346456692913385,
                    "duration": 0.11235949999999661
                },
                {
                    "name": "G#3",
                    "midi": 56,
                    "time": 146.85386649999862,
                    "velocity": 0.2440944881889764,
                    "duration": 0.11235949999999661
                },
                {
                    "name": "D3",
                    "midi": 50,
                    "time": 146.9662259999986,
                    "velocity": 0.2440944881889764,
                    "duration": 0.11235949999999661
                },
                {
                    "name": "G#3",
                    "midi": 56,
                    "time": 147.0785854999986,
                    "velocity": 0.2440944881889764,
                    "duration": 0.11235949999999661
                },
                {
                    "name": "B3",
                    "midi": 59,
                    "time": 147.1909449999986,
                    "velocity": 0.2755905511811024,
                    "duration": 0.11235949999999661
                },
                {
                    "name": "F4",
                    "midi": 65,
                    "time": 147.3033044999986,
                    "velocity": 0.29133858267716534,
                    "duration": 0.11235949999999661
                },
                {
                    "name": "B3",
                    "midi": 59,
                    "time": 147.4156639999986,
                    "velocity": 0.28346456692913385,
                    "duration": 0.11235949999999661
                },
                {
                    "name": "G#3",
                    "midi": 56,
                    "time": 147.5280234999986,
                    "velocity": 0.2677165354330709,
                    "duration": 0.11235949999999661
                },
                {
                    "name": "D3",
                    "midi": 50,
                    "time": 147.6403829999986,
                    "velocity": 0.2677165354330709,
                    "duration": 0.11235949999999661
                },
                {
                    "name": "G#3",
                    "midi": 56,
                    "time": 147.7527424999986,
                    "velocity": 0.23622047244094488,
                    "duration": 0.11235949999999661
                },
                {
                    "name": "A#3",
                    "midi": 58,
                    "time": 147.8651019999986,
                    "velocity": 0.2755905511811024,
                    "duration": 0.11235949999999661
                },
                {
                    "name": "F4",
                    "midi": 65,
                    "time": 147.97746149999858,
                    "velocity": 0.29133858267716534,
                    "duration": 0.11235949999999661
                },
                {
                    "name": "A#3",
                    "midi": 58,
                    "time": 148.08982099999858,
                    "velocity": 0.28346456692913385,
                    "duration": 0.11235949999999661
                },
                {
                    "name": "G#3",
                    "midi": 56,
                    "time": 148.20218049999858,
                    "velocity": 0.2677165354330709,
                    "duration": 0.11235949999999661
                },
                {
                    "name": "D#3",
                    "midi": 51,
                    "time": 148.31453999999857,
                    "velocity": 0.2677165354330709,
                    "duration": 0.11235949999999661
                },
                {
                    "name": "F#3",
                    "midi": 54,
                    "time": 148.42689949999857,
                    "velocity": 0.2755905511811024,
                    "duration": 0.11235949999999661
                },
                {
                    "name": "A#3",
                    "midi": 58,
                    "time": 148.53925899999857,
                    "velocity": 0.2992125984251969,
                    "duration": 0.11235949999999661
                },
                {
                    "name": "D#4",
                    "midi": 63,
                    "time": 148.65161849999856,
                    "velocity": 0.30708661417322836,
                    "duration": 0.11235949999999661
                },
                {
                    "name": "A#3",
                    "midi": 58,
                    "time": 148.76397799999856,
                    "velocity": 0.2992125984251969,
                    "duration": 0.11235949999999661
                },
                {
                    "name": "F#3",
                    "midi": 54,
                    "time": 148.87633749999856,
                    "velocity": 0.28346456692913385,
                    "duration": 0.11235949999999661
                },
                {
                    "name": "F#2",
                    "midi": 42,
                    "time": 148.98869699999855,
                    "velocity": 0.2677165354330709,
                    "duration": 0.11235949999999661
                },
                {
                    "name": "F#3",
                    "midi": 54,
                    "time": 149.10105649999855,
                    "velocity": 0.2440944881889764,
                    "duration": 0.11235949999999661
                },
                {
                    "name": "A#3",
                    "midi": 58,
                    "time": 149.21341599999855,
                    "velocity": 0.28346456692913385,
                    "duration": 0.11235949999999661
                },
                {
                    "name": "D#4",
                    "midi": 63,
                    "time": 149.32577549999854,
                    "velocity": 0.2992125984251969,
                    "duration": 0.11235949999999661
                },
                {
                    "name": "A#3",
                    "midi": 58,
                    "time": 149.43813499999854,
                    "velocity": 0.28346456692913385,
                    "duration": 0.11235949999999661
                },
                {
                    "name": "F#3",
                    "midi": 54,
                    "time": 149.55049449999854,
                    "velocity": 0.2677165354330709,
                    "duration": 0.11235949999999661
                },
                {
                    "name": "G#2",
                    "midi": 44,
                    "time": 149.66285399999853,
                    "velocity": 0.2755905511811024,
                    "duration": 0.11235949999999661
                },
                {
                    "name": "F3",
                    "midi": 53,
                    "time": 149.77521349999853,
                    "velocity": 0.28346456692913385,
                    "duration": 0.11235949999999661
                },
                {
                    "name": "G#3",
                    "midi": 56,
                    "time": 149.88757299999853,
                    "velocity": 0.29133858267716534,
                    "duration": 0.11235949999999661
                },
                {
                    "name": "C#4",
                    "midi": 61,
                    "time": 149.99993249999852,
                    "velocity": 0.30708661417322836,
                    "duration": 0.11235949999999661
                },
                {
                    "name": "G#3",
                    "midi": 56,
                    "time": 150.11229199999852,
                    "velocity": 0.29133858267716534,
                    "duration": 0.11235949999999661
                },
                {
                    "name": "F3",
                    "midi": 53,
                    "time": 150.22465149999852,
                    "velocity": 0.2755905511811024,
                    "duration": 0.11235949999999661
                },
                {
                    "name": "G#2",
                    "midi": 44,
                    "time": 150.3370109999985,
                    "velocity": 0.25984251968503935,
                    "duration": 0.11235949999999661
                },
                {
                    "name": "F3",
                    "midi": 53,
                    "time": 150.4493704999985,
                    "velocity": 0.2677165354330709,
                    "duration": 0.11235949999999661
                },
                {
                    "name": "G#3",
                    "midi": 56,
                    "time": 150.5617299999985,
                    "velocity": 0.2755905511811024,
                    "duration": 0.11235949999999661
                },
                {
                    "name": "C#4",
                    "midi": 61,
                    "time": 150.6740894999985,
                    "velocity": 0.2992125984251969,
                    "duration": 0.11235949999999661
                },
                {
                    "name": "G#3",
                    "midi": 56,
                    "time": 150.7864489999985,
                    "velocity": 0.29133858267716534,
                    "duration": 0.11235949999999661
                },
                {
                    "name": "F3",
                    "midi": 53,
                    "time": 150.8988084999985,
                    "velocity": 0.28346456692913385,
                    "duration": 0.11235949999999661
                },
                {
                    "name": "G#2",
                    "midi": 44,
                    "time": 151.0111679999985,
                    "velocity": 0.30708661417322836,
                    "duration": 0.11235949999999661
                },
                {
                    "name": "F#3",
                    "midi": 54,
                    "time": 151.1235274999985,
                    "velocity": 0.2677165354330709,
                    "duration": 0.11235949999999661
                },
                {
                    "name": "G#3",
                    "midi": 56,
                    "time": 151.23588699999848,
                    "velocity": 0.28346456692913385,
                    "duration": 0.11235949999999661
                },
                {
                    "name": "C4",
                    "midi": 60,
                    "time": 151.34824649999848,
                    "velocity": 0.28346456692913385,
                    "duration": 0.11235949999999661
                },
                {
                    "name": "G#3",
                    "midi": 56,
                    "time": 151.46060599999848,
                    "velocity": 0.2755905511811024,
                    "duration": 0.11235949999999661
                },
                {
                    "name": "F#3",
                    "midi": 54,
                    "time": 151.57296549999847,
                    "velocity": 0.2677165354330709,
                    "duration": 0.11235949999999661
                },
                {
                    "name": "G#2",
                    "midi": 44,
                    "time": 151.68532499999847,
                    "velocity": 0.2440944881889764,
                    "duration": 0.11235949999999661
                },
                {
                    "name": "F#3",
                    "midi": 54,
                    "time": 151.79768449999847,
                    "velocity": 0.2440944881889764,
                    "duration": 0.11235949999999661
                },
                {
                    "name": "G#3",
                    "midi": 56,
                    "time": 151.91004399999846,
                    "velocity": 0.2755905511811024,
                    "duration": 0.11235949999999661
                },
                {
                    "name": "C4",
                    "midi": 60,
                    "time": 152.02240349999846,
                    "velocity": 0.29133858267716534,
                    "duration": 0.11235949999999661
                },
                {
                    "name": "G#3",
                    "midi": 56,
                    "time": 152.13476299999846,
                    "velocity": 0.2755905511811024,
                    "duration": 0.11235949999999661
                },
                {
                    "name": "F#3",
                    "midi": 54,
                    "time": 152.24712249999845,
                    "velocity": 0.25984251968503935,
                    "duration": 0.11235949999999661
                },
                {
                    "name": "C#3",
                    "midi": 49,
                    "time": 152.35948199999845,
                    "velocity": 0.25984251968503935,
                    "duration": 0.11235949999999661
                },
                {
                    "name": "G#3",
                    "midi": 56,
                    "time": 152.47184149999845,
                    "velocity": 0.25984251968503935,
                    "duration": 0.11235949999999661
                },
                {
                    "name": "C#4",
                    "midi": 61,
                    "time": 152.58420099999844,
                    "velocity": 0.28346456692913385,
                    "duration": 0.11235949999999661
                },
                {
                    "name": "F4",
                    "midi": 65,
                    "time": 152.69656049999844,
                    "velocity": 0.29133858267716534,
                    "duration": 0.11235949999999661
                },
                {
                    "name": "C#4",
                    "midi": 61,
                    "time": 152.80891999999844,
                    "velocity": 0.28346456692913385,
                    "duration": 0.11235949999999661
                },
                {
                    "name": "A#3",
                    "midi": 58,
                    "time": 152.92127949999843,
                    "velocity": 0.2755905511811024,
                    "duration": 0.11235949999999661
                },
                {
                    "name": "G#3",
                    "midi": 56,
                    "time": 153.03363899999843,
                    "velocity": 0.28346456692913385,
                    "duration": 0.11235950000002504
                },
                {
                    "name": "C#4",
                    "midi": 61,
                    "time": 153.14599849999846,
                    "velocity": 0.28346456692913385,
                    "duration": 0.11235949999999661
                },
                {
                    "name": "F4",
                    "midi": 65,
                    "time": 153.25835799999845,
                    "velocity": 0.30708661417322836,
                    "duration": 0.11235949999999661
                },
                {
                    "name": "G#4",
                    "midi": 68,
                    "time": 153.37071749999845,
                    "velocity": 0.31496062992125984,
                    "duration": 0.11235949999999661
                },
                {
                    "name": "F4",
                    "midi": 65,
                    "time": 153.48307699999845,
                    "velocity": 0.30708661417322836,
                    "duration": 0.11235949999999661
                },
                {
                    "name": "C#4",
                    "midi": 61,
                    "time": 153.59543649999844,
                    "velocity": 0.2992125984251969,
                    "duration": 0.11235949999999661
                },
                {
                    "name": "F#3",
                    "midi": 54,
                    "time": 153.70779599999844,
                    "velocity": 0.2992125984251969,
                    "duration": 0.6741569999999797
                },
                {
                    "name": "G#3",
                    "midi": 56,
                    "time": 153.82015549999844,
                    "velocity": 0.33070866141732286,
                    "duration": 0.11235949999999661
                },
                {
                    "name": "C4",
                    "midi": 60,
                    "time": 153.93251499999843,
                    "velocity": 0.33070866141732286,
                    "duration": 0.11235949999999661
                },
                {
                    "name": "D#4",
                    "midi": 63,
                    "time": 154.04487449999843,
                    "velocity": 0.33070866141732286,
                    "duration": 0.11235949999999661
                },
                {
                    "name": "C4",
                    "midi": 60,
                    "time": 154.15723399999843,
                    "velocity": 0.33070866141732286,
                    "duration": 0.11235949999999661
                },
                {
                    "name": "G#3",
                    "midi": 56,
                    "time": 154.26959349999842,
                    "velocity": 0.33070866141732286,
                    "duration": 0.11235949999999661
                },
                {
                    "name": "F#3",
                    "midi": 54,
                    "time": 154.38195299999842,
                    "velocity": 0.3228346456692913,
                    "duration": 0.6741569999999797
                },
                {
                    "name": "G#3",
                    "midi": 56,
                    "time": 154.49431249999841,
                    "velocity": 0.3543307086614173,
                    "duration": 0.11235949999999661
                },
                {
                    "name": "C4",
                    "midi": 60,
                    "time": 154.6066719999984,
                    "velocity": 0.3543307086614173,
                    "duration": 0.11235949999999661
                },
                {
                    "name": "D#4",
                    "midi": 63,
                    "time": 154.7190314999984,
                    "velocity": 0.3543307086614173,
                    "duration": 0.11235949999999661
                },
                {
                    "name": "C4",
                    "midi": 60,
                    "time": 154.8313909999984,
                    "velocity": 0.3228346456692913,
                    "duration": 0.11235949999999661
                },
                {
                    "name": "G#3",
                    "midi": 56,
                    "time": 154.9437504999984,
                    "velocity": 0.2992125984251969,
                    "duration": 0.11235949999999661
                },
                {
                    "name": "F3",
                    "midi": 53,
                    "time": 155.0561099999984,
                    "velocity": 0.29133858267716534,
                    "duration": 0.6741569999999797
                },
                {
                    "name": "G#3",
                    "midi": 56,
                    "time": 155.1684694999984,
                    "velocity": 0.28346456692913385,
                    "duration": 0.11235949999999661
                },
                {
                    "name": "C#4",
                    "midi": 61,
                    "time": 155.2808289999984,
                    "velocity": 0.30708661417322836,
                    "duration": 0.11235949999999661
                },
                {
                    "name": "F4",
                    "midi": 65,
                    "time": 155.3931884999984,
                    "velocity": 0.33070866141732286,
                    "duration": 0.11235949999999661
                },
                {
                    "name": "C#4",
                    "midi": 61,
                    "time": 155.50554799999838,
                    "velocity": 0.31496062992125984,
                    "duration": 0.11235949999999661
                },
                {
                    "name": "G#3",
                    "midi": 56,
                    "time": 155.61790749999838,
                    "velocity": 0.2992125984251969,
                    "duration": 0.11235949999999661
                },
                {
                    "name": "F3",
                    "midi": 53,
                    "time": 155.73026699999838,
                    "velocity": 0.30708661417322836,
                    "duration": 0.11235949999999661
                },
                {
                    "name": "G#3",
                    "midi": 56,
                    "time": 155.84262649999837,
                    "velocity": 0.3228346456692913,
                    "duration": 0.11235949999999661
                },
                {
                    "name": "C#4",
                    "midi": 61,
                    "time": 155.95498599999837,
                    "velocity": 0.3543307086614173,
                    "duration": 0.11235949999999661
                },
                {
                    "name": "G#4",
                    "midi": 68,
                    "time": 156.06734549999837,
                    "velocity": 0.36220472440944884,
                    "duration": 0.11235949999999661
                },
                {
                    "name": "C#4",
                    "midi": 61,
                    "time": 156.17970499999836,
                    "velocity": 0.3464566929133858,
                    "duration": 0.11235949999999661
                },
                {
                    "name": "G#3",
                    "midi": 56,
                    "time": 156.29206449999836,
                    "velocity": 0.31496062992125984,
                    "duration": 0.11235949999999661
                },
                {
                    "name": "D#3",
                    "midi": 51,
                    "time": 156.40442399999836,
                    "velocity": 0.30708661417322836,
                    "duration": 0.11235950000002504
                },
                {
                    "name": "G#3",
                    "midi": 56,
                    "time": 156.51678349999838,
                    "velocity": 0.3228346456692913,
                    "duration": 0.11235949999999661
                },
                {
                    "name": "C4",
                    "midi": 60,
                    "time": 156.62914299999838,
                    "velocity": 0.3543307086614173,
                    "duration": 0.11235949999999661
                },
                {
                    "name": "F#4",
                    "midi": 66,
                    "time": 156.74150249999838,
                    "velocity": 0.3543307086614173,
                    "duration": 0.11235949999999661
                },
                {
                    "name": "C4",
                    "midi": 60,
                    "time": 156.85386199999837,
                    "velocity": 0.33070866141732286,
                    "duration": 0.11235949999999661
                },
                {
                    "name": "G#3",
                    "midi": 56,
                    "time": 156.96622149999837,
                    "velocity": 0.30708661417322836,
                    "duration": 0.11235949999999661
                },
                {
                    "name": "D#3",
                    "midi": 51,
                    "time": 157.07858099999837,
                    "velocity": 0.2992125984251969,
                    "duration": 0.11235949999999661
                },
                {
                    "name": "G#3",
                    "midi": 56,
                    "time": 157.19094049999836,
                    "velocity": 0.29133858267716534,
                    "duration": 0.11235949999999661
                },
                {
                    "name": "C4",
                    "midi": 60,
                    "time": 157.30329999999836,
                    "velocity": 0.31496062992125984,
                    "duration": 0.11235949999999661
                },
                {
                    "name": "F#4",
                    "midi": 66,
                    "time": 157.41565949999836,
                    "velocity": 0.33070866141732286,
                    "duration": 0.11235949999999661
                },
                {
                    "name": "C4",
                    "midi": 60,
                    "time": 157.52801899999835,
                    "velocity": 0.30708661417322836,
                    "duration": 0.11235949999999661
                },
                {
                    "name": "G#3",
                    "midi": 56,
                    "time": 157.64037849999835,
                    "velocity": 0.2677165354330709,
                    "duration": 0.11235949999999661
                },
                {
                    "name": "D3",
                    "midi": 50,
                    "time": 157.75273799999835,
                    "velocity": 0.2755905511811024,
                    "duration": 0.11235949999999661
                },
                {
                    "name": "G#3",
                    "midi": 56,
                    "time": 157.86509749999834,
                    "velocity": 0.29133858267716534,
                    "duration": 0.11235949999999661
                },
                {
                    "name": "B3",
                    "midi": 59,
                    "time": 157.97745699999834,
                    "velocity": 0.3228346456692913,
                    "duration": 0.11235949999999661
                },
                {
                    "name": "F4",
                    "midi": 65,
                    "time": 158.08981649999834,
                    "velocity": 0.3464566929133858,
                    "duration": 0.11235949999999661
                },
                {
                    "name": "B3",
                    "midi": 59,
                    "time": 158.20217599999833,
                    "velocity": 0.33070866141732286,
                    "duration": 0.11235949999999661
                },
                {
                    "name": "G#3",
                    "midi": 56,
                    "time": 158.31453549999833,
                    "velocity": 0.31496062992125984,
                    "duration": 0.11235949999999661
                },
                {
                    "name": "D3",
                    "midi": 50,
                    "time": 158.42689499999832,
                    "velocity": 0.2755905511811024,
                    "duration": 0.11235949999999661
                },
                {
                    "name": "G#3",
                    "midi": 56,
                    "time": 158.53925449999832,
                    "velocity": 0.28346456692913385,
                    "duration": 0.11235949999999661
                },
                {
                    "name": "A#3",
                    "midi": 58,
                    "time": 158.65161399999832,
                    "velocity": 0.3228346456692913,
                    "duration": 0.11235949999999661
                },
                {
                    "name": "F4",
                    "midi": 65,
                    "time": 158.76397349999831,
                    "velocity": 0.3464566929133858,
                    "duration": 0.11235949999999661
                },
                {
                    "name": "A#3",
                    "midi": 58,
                    "time": 158.8763329999983,
                    "velocity": 0.33070866141732286,
                    "duration": 0.11235949999999661
                },
                {
                    "name": "G#3",
                    "midi": 56,
                    "time": 158.9886924999983,
                    "velocity": 0.31496062992125984,
                    "duration": 0.11235949999999661
                },
                {
                    "name": "D#3",
                    "midi": 51,
                    "time": 159.1010519999983,
                    "velocity": 0.29133858267716534,
                    "duration": 0.11235949999999661
                },
                {
                    "name": "F#3",
                    "midi": 54,
                    "time": 159.2134114999983,
                    "velocity": 0.2992125984251969,
                    "duration": 0.11235949999999661
                },
                {
                    "name": "A#3",
                    "midi": 58,
                    "time": 159.3257709999983,
                    "velocity": 0.3228346456692913,
                    "duration": 0.11235949999999661
                },
                {
                    "name": "D#4",
                    "midi": 63,
                    "time": 159.4381304999983,
                    "velocity": 0.33070866141732286,
                    "duration": 0.11235949999999661
                },
                {
                    "name": "A#3",
                    "midi": 58,
                    "time": 159.5504899999983,
                    "velocity": 0.3228346456692913,
                    "duration": 0.11235949999999661
                },
                {
                    "name": "F#3",
                    "midi": 54,
                    "time": 159.6628494999983,
                    "velocity": 0.30708661417322836,
                    "duration": 0.11235949999999661
                },
                {
                    "name": "F#2",
                    "midi": 42,
                    "time": 159.77520899999828,
                    "velocity": 0.29133858267716534,
                    "duration": 0.11235949999999661
                },
                {
                    "name": "F#3",
                    "midi": 54,
                    "time": 159.88756849999828,
                    "velocity": 0.2677165354330709,
                    "duration": 0.11235949999999661
                },
                {
                    "name": "A#3",
                    "midi": 58,
                    "time": 159.99992799999828,
                    "velocity": 0.30708661417322836,
                    "duration": 0.11235949999999661
                },
                {
                    "name": "D#4",
                    "midi": 63,
                    "time": 160.11228749999827,
                    "velocity": 0.3228346456692913,
                    "duration": 0.11235949999999661
                },
                {
                    "name": "A#3",
                    "midi": 58,
                    "time": 160.22464699999827,
                    "velocity": 0.30708661417322836,
                    "duration": 0.11235949999999661
                },
                {
                    "name": "F#3",
                    "midi": 54,
                    "time": 160.33700649999827,
                    "velocity": 0.29133858267716534,
                    "duration": 0.11235949999999661
                },
                {
                    "name": "G#2",
                    "midi": 44,
                    "time": 160.44936599999826,
                    "velocity": 0.29133858267716534,
                    "duration": 0.11235950000002504
                },
                {
                    "name": "F3",
                    "midi": 53,
                    "time": 160.5617254999983,
                    "velocity": 0.30708661417322836,
                    "duration": 0.11235949999999661
                },
                {
                    "name": "G#3",
                    "midi": 56,
                    "time": 160.67408499999829,
                    "velocity": 0.31496062992125984,
                    "duration": 0.11235949999999661
                },
                {
                    "name": "C#4",
                    "midi": 61,
                    "time": 160.78644449999828,
                    "velocity": 0.33070866141732286,
                    "duration": 0.11235949999999661
                },
                {
                    "name": "G#3",
                    "midi": 56,
                    "time": 160.89880399999828,
                    "velocity": 0.31496062992125984,
                    "duration": 0.11235949999999661
                },
                {
                    "name": "F3",
                    "midi": 53,
                    "time": 161.01116349999828,
                    "velocity": 0.2992125984251969,
                    "duration": 0.11235949999999661
                },
                {
                    "name": "G#2",
                    "midi": 44,
                    "time": 161.12352299999827,
                    "velocity": 0.2755905511811024,
                    "duration": 0.11235949999999661
                },
                {
                    "name": "F3",
                    "midi": 53,
                    "time": 161.23588249999827,
                    "velocity": 0.2755905511811024,
                    "duration": 0.11235949999999661
                },
                {
                    "name": "G#3",
                    "midi": 56,
                    "time": 161.34824199999827,
                    "velocity": 0.29133858267716534,
                    "duration": 0.11235949999999661
                },
                {
                    "name": "C#4",
                    "midi": 61,
                    "time": 161.46060149999826,
                    "velocity": 0.30708661417322836,
                    "duration": 0.11235949999999661
                },
                {
                    "name": "G#3",
                    "midi": 56,
                    "time": 161.57296099999826,
                    "velocity": 0.29133858267716534,
                    "duration": 0.11235949999999661
                },
                {
                    "name": "F3",
                    "midi": 53,
                    "time": 161.68532049999826,
                    "velocity": 0.2755905511811024,
                    "duration": 0.11235949999999661
                },
                {
                    "name": "G#2",
                    "midi": 44,
                    "time": 161.79767999999825,
                    "velocity": 0.2992125984251969,
                    "duration": 0.11235950000002504
                },
                {
                    "name": "F3",
                    "midi": 53,
                    "time": 161.91003949999828,
                    "velocity": 0.29133858267716534,
                    "duration": 0.11235950000002504
                },
                {
                    "name": "G#3",
                    "midi": 56,
                    "time": 162.0223989999983,
                    "velocity": 0.30708661417322836,
                    "duration": 0.11235949999999661
                },
                {
                    "name": "D4",
                    "midi": 62,
                    "time": 162.1347584999983,
                    "velocity": 0.3228346456692913,
                    "duration": 0.11235949999999661
                },
                {
                    "name": "G#3",
                    "midi": 56,
                    "time": 162.2471179999983,
                    "velocity": 0.30708661417322836,
                    "duration": 0.11235949999999661
                },
                {
                    "name": "F3",
                    "midi": 53,
                    "time": 162.3594774999983,
                    "velocity": 0.28346456692913385,
                    "duration": 0.11235949999999661
                },
                {
                    "name": "G#2",
                    "midi": 44,
                    "time": 162.4718369999983,
                    "velocity": 0.31496062992125984,
                    "duration": 0.11235949999999661
                },
                {
                    "name": "F3",
                    "midi": 53,
                    "time": 162.58419649999828,
                    "velocity": 0.30708661417322836,
                    "duration": 0.11235949999999661
                },
                {
                    "name": "G#3",
                    "midi": 56,
                    "time": 162.69655599999828,
                    "velocity": 0.33858267716535434,
                    "duration": 0.11235949999999661
                },
                {
                    "name": "D4",
                    "midi": 62,
                    "time": 162.80891549999828,
                    "velocity": 0.3779527559055118,
                    "duration": 0.11235949999999661
                },
                {
                    "name": "G#3",
                    "midi": 56,
                    "time": 162.92127499999827,
                    "velocity": 0.3543307086614173,
                    "duration": 0.11235949999999661
                },
                {
                    "name": "F3",
                    "midi": 53,
                    "time": 163.03363449999827,
                    "velocity": 0.3228346456692913,
                    "duration": 0.11235949999999661
                },
                {
                    "name": "G#2",
                    "midi": 44,
                    "time": 163.14599399999827,
                    "velocity": 0.31496062992125984,
                    "duration": 0.11235949999999661
                },
                {
                    "name": "F3",
                    "midi": 53,
                    "time": 163.25835349999826,
                    "velocity": 0.31496062992125984,
                    "duration": 0.11235949999999661
                },
                {
                    "name": "G#3",
                    "midi": 56,
                    "time": 163.37071299999826,
                    "velocity": 0.33858267716535434,
                    "duration": 0.11235949999999661
                },
                {
                    "name": "D4",
                    "midi": 62,
                    "time": 163.48307249999826,
                    "velocity": 0.3543307086614173,
                    "duration": 0.11235949999999661
                },
                {
                    "name": "G#3",
                    "midi": 56,
                    "time": 163.59543199999825,
                    "velocity": 0.33070866141732286,
                    "duration": 0.11235949999999661
                },
                {
                    "name": "F3",
                    "midi": 53,
                    "time": 163.70779149999825,
                    "velocity": 0.28346456692913385,
                    "duration": 0.11235949999999661
                },
                {
                    "name": "G#2",
                    "midi": 44,
                    "time": 163.82015099999825,
                    "velocity": 0.4094488188976378,
                    "duration": 0.11235949999999661
                },
                {
                    "name": "F3",
                    "midi": 53,
                    "time": 163.93251049999824,
                    "velocity": 0.31496062992125984,
                    "duration": 0.11235949999999661
                },
                {
                    "name": "G#3",
                    "midi": 56,
                    "time": 164.04486999999824,
                    "velocity": 0.33858267716535434,
                    "duration": 0.11235949999999661
                },
                {
                    "name": "D4",
                    "midi": 62,
                    "time": 164.15722949999824,
                    "velocity": 0.3700787401574803,
                    "duration": 0.11235949999999661
                },
                {
                    "name": "G#3",
                    "midi": 56,
                    "time": 164.26958899999823,
                    "velocity": 0.3464566929133858,
                    "duration": 0.11235949999999661
                },
                {
                    "name": "F3",
                    "midi": 53,
                    "time": 164.38194849999823,
                    "velocity": 0.31496062992125984,
                    "duration": 0.11235949999999661
                },
                {
                    "name": "G#2",
                    "midi": 44,
                    "time": 164.49430799999823,
                    "velocity": 0.4251968503937008,
                    "duration": 0.11235949999999661
                },
                {
                    "name": "D#3",
                    "midi": 51,
                    "time": 164.60666749999822,
                    "velocity": 0.33858267716535434,
                    "duration": 0.11235949999999661
                },
                {
                    "name": "F#3",
                    "midi": 54,
                    "time": 164.71902699999822,
                    "velocity": 0.3700787401574803,
                    "duration": 0.11235949999999661
                },
                {
                    "name": "D#4",
                    "midi": 63,
                    "time": 164.83138649999822,
                    "velocity": 0.3937007874015748,
                    "duration": 0.11235949999999661
                },
                {
                    "name": "F#3",
                    "midi": 54,
                    "time": 164.9437459999982,
                    "velocity": 0.36220472440944884,
                    "duration": 0.11235949999999661
                },
                {
                    "name": "D#3",
                    "midi": 51,
                    "time": 165.0561054999982,
                    "velocity": 0.33858267716535434,
                    "duration": 0.11235949999999661
                },
                {
                    "name": "G#2",
                    "midi": 44,
                    "time": 165.1684649999982,
                    "velocity": 0.5275590551181102,
                    "duration": 0.11235949999999661
                },
                {
                    "name": "D#3",
                    "midi": 51,
                    "time": 165.2808244999982,
                    "velocity": 0.3937007874015748,
                    "duration": 0.11235949999999661
                },
                {
                    "name": "F#3",
                    "midi": 54,
                    "time": 165.3931839999982,
                    "velocity": 0.4330708661417323,
                    "duration": 0.11235949999999661
                },
                {
                    "name": "D#4",
                    "midi": 63,
                    "time": 165.5055434999982,
                    "velocity": 0.4566929133858268,
                    "duration": 0.11235949999999661
                },
                {
                    "name": "F#3",
                    "midi": 54,
                    "time": 165.6179029999982,
                    "velocity": 0.4330708661417323,
                    "duration": 0.11235949999999661
                },
                {
                    "name": "D#3",
                    "midi": 51,
                    "time": 165.7302624999982,
                    "velocity": 0.4094488188976378,
                    "duration": 0.11235949999999661
                },
                {
                    "name": "G#2",
                    "midi": 44,
                    "time": 165.8426219999982,
                    "velocity": 0.4881889763779528,
                    "duration": 0.11235949999999661
                },
                {
                    "name": "D#3",
                    "midi": 51,
                    "time": 165.95498149999818,
                    "velocity": 0.3937007874015748,
                    "duration": 0.11235949999999661
                },
                {
                    "name": "F#3",
                    "midi": 54,
                    "time": 166.06734099999818,
                    "velocity": 0.4330708661417323,
                    "duration": 0.11235949999999661
                },
                {
                    "name": "C4",
                    "midi": 60,
                    "time": 166.17970049999818,
                    "velocity": 0.4566929133858268,
                    "duration": 0.11235949999999661
                },
                {
                    "name": "F#3",
                    "midi": 54,
                    "time": 166.29205999999817,
                    "velocity": 0.4330708661417323,
                    "duration": 0.11235949999999661
                },
                {
                    "name": "D#3",
                    "midi": 51,
                    "time": 166.40441949999817,
                    "velocity": 0.4015748031496063,
                    "duration": 0.11235949999999661
                },
                {
                    "name": "G#2",
                    "midi": 44,
                    "time": 166.51677899999817,
                    "velocity": 0.5275590551181102,
                    "duration": 0.11235949999999661
                },
                {
                    "name": "D#3",
                    "midi": 51,
                    "time": 166.62913849999816,
                    "velocity": 0.44881889763779526,
                    "duration": 0.11235949999999661
                },
                {
                    "name": "F#3",
                    "midi": 54,
                    "time": 166.74149799999816,
                    "velocity": 0.48031496062992124,
                    "duration": 0.11235949999999661
                },
                {
                    "name": "C4",
                    "midi": 60,
                    "time": 166.85385749999816,
                    "velocity": 0.5118110236220472,
                    "duration": 0.11235949999999661
                },
                {
                    "name": "F#3",
                    "midi": 54,
                    "time": 166.96621699999815,
                    "velocity": 0.4881889763779528,
                    "duration": 0.11235949999999661
                },
                {
                    "name": "D#3",
                    "midi": 51,
                    "time": 167.07857649999815,
                    "velocity": 0.4645669291338583,
                    "duration": 0.11235949999999661
                },
                {
                    "name": "C#2",
                    "midi": 37,
                    "time": 167.19093599999815,
                    "velocity": 0.5590551181102362,
                    "duration": 0.11235949999999661
                },
                {
                    "name": "G#2",
                    "midi": 44,
                    "time": 167.64037399999813,
                    "velocity": 0.5511811023622047,
                    "duration": 0.11235949999999661
                },
                {
                    "name": "F3",
                    "midi": 53,
                    "time": 167.75273349999813,
                    "velocity": 0.5905511811023622,
                    "duration": 0.11235949999999661
                },
                {
                    "name": "C#4",
                    "midi": 61,
                    "time": 167.86509299999813,
                    "velocity": 0.6535433070866141,
                    "duration": 0.22471899999999323
                },
                {
                    "name": "G#1",
                    "midi": 32,
                    "time": 168.5392499999981,
                    "velocity": 0.6850393700787402,
                    "duration": 0.11235949999999661
                },
                {
                    "name": "G#2",
                    "midi": 44,
                    "time": 168.9886879999981,
                    "velocity": 0.5354330708661418,
                    "duration": 0.11235949999999661
                },
                {
                    "name": "D#3",
                    "midi": 51,
                    "time": 169.1010474999981,
                    "velocity": 0.5826771653543307,
                    "duration": 0.11235949999999661
                },
                {
                    "name": "C4",
                    "midi": 60,
                    "time": 169.21340699999809,
                    "velocity": 0.6614173228346457,
                    "duration": 0.22471899999999323
                },
                {
                    "name": "C#2",
                    "midi": 37,
                    "time": 169.88756399999806,
                    "velocity": 0.6850393700787402,
                    "duration": 0.11235950000002504
                },
                {
                    "name": "G#2",
                    "midi": 44,
                    "time": 170.33700199999808,
                    "velocity": 0.5511811023622047,
                    "duration": 0.11235949999999661
                },
                {
                    "name": "F3",
                    "midi": 53,
                    "time": 170.44936149999808,
                    "velocity": 0.5905511811023622,
                    "duration": 0.11235949999999661
                },
                {
                    "name": "C#4",
                    "midi": 61,
                    "time": 170.56172099999807,
                    "velocity": 0.6535433070866141,
                    "duration": 0.22471899999999323
                },
                {
                    "name": "G#1",
                    "midi": 32,
                    "time": 171.23587799999805,
                    "velocity": 0.6850393700787402,
                    "duration": 0.11235949999999661
                },
                {
                    "name": "G#2",
                    "midi": 44,
                    "time": 171.68531599999804,
                    "velocity": 0.5354330708661418,
                    "duration": 0.11235949999999661
                },
                {
                    "name": "D#3",
                    "midi": 51,
                    "time": 171.79767549999804,
                    "velocity": 0.5826771653543307,
                    "duration": 0.11235949999999661
                },
                {
                    "name": "C4",
                    "midi": 60,
                    "time": 171.91003499999803,
                    "velocity": 0.6614173228346457,
                    "duration": 0.22471899999999323
                },
                {
                    "name": "C#1",
                    "midi": 25,
                    "time": 172.584191999998,
                    "velocity": 0.6456692913385826,
                    "duration": 0.22471900000002165
                },
                {
                    "name": "G#2",
                    "midi": 44,
                    "time": 173.03362999999803,
                    "velocity": 0.5354330708661418,
                    "duration": 0.11235949999999661
                },
                {
                    "name": "F3",
                    "midi": 53,
                    "time": 173.14598949999802,
                    "velocity": 0.5826771653543307,
                    "duration": 0.11235949999999661
                },
                {
                    "name": "C#4",
                    "midi": 61,
                    "time": 173.25834899999802,
                    "velocity": 0.6614173228346457,
                    "duration": 0.22471899999999323
                },
                {
                    "name": "C#1",
                    "midi": 25,
                    "time": 175.28081999999802,
                    "velocity": 0.7559055118110236,
                    "duration": 0.11235949999999661
                },
                {
                    "name": "C#2",
                    "midi": 37,
                    "time": 175.28081999999802,
                    "velocity": 0.7559055118110236,
                    "duration": 0.11235949999999661
                },
                {
                    "name": "C#4",
                    "midi": 61,
                    "time": 175.95497699999802,
                    "velocity": 0.6771653543307087,
                    "duration": 0.6741570000000081
                },
                {
                    "name": "C#5",
                    "midi": 73,
                    "time": 175.95497699999802,
                    "velocity": 0.8031496062992126,
                    "duration": 0.6741570000000081
                },
                {
                    "name": "A1",
                    "midi": 33,
                    "time": 177.97744799999802,
                    "velocity": 0.31496062992125984,
                    "duration": 0.6741570000000081
                },
                {
                    "name": "A2",
                    "midi": 45,
                    "time": 177.97744799999802,
                    "velocity": 0.31496062992125984,
                    "duration": 2.696628000000004
                },
                {
                    "name": "D2",
                    "midi": 38,
                    "time": 178.65160499999803,
                    "velocity": 0.28346456692913385,
                    "duration": 2.022470999999996
                },
                {
                    "name": "A1",
                    "midi": 33,
                    "time": 180.67407599999802,
                    "velocity": 0.31496062992125984,
                    "duration": 0.6741570000000081
                },
                {
                    "name": "A2",
                    "midi": 45,
                    "time": 180.67407599999802,
                    "velocity": 0.31496062992125984,
                    "duration": 2.696628000000004
                },
                {
                    "name": "D2",
                    "midi": 38,
                    "time": 181.34823299999803,
                    "velocity": 0.28346456692913385,
                    "duration": 2.022470999999996
                },
                {
                    "name": "E2",
                    "midi": 40,
                    "time": 183.37070399999803,
                    "velocity": 0.2677165354330709,
                    "duration": 1.1235949999999946
                },
                {
                    "name": "D3",
                    "midi": 50,
                    "time": 183.37070399999803,
                    "velocity": 0.2677165354330709,
                    "duration": 1.1235949999999946
                },
                {
                    "name": "A2",
                    "midi": 45,
                    "time": 184.49429899999802,
                    "velocity": 0.23622047244094488,
                    "duration": 1.573032999999981
                },
                {
                    "name": "C#3",
                    "midi": 49,
                    "time": 184.49429899999802,
                    "velocity": 0.23622047244094488,
                    "duration": 0.22471899999999323
                },
                {
                    "name": "E3",
                    "midi": 52,
                    "time": 184.71901799999802,
                    "velocity": 0.2047244094488189,
                    "duration": 1.3483139999999878
                },
                {
                    "name": "E3",
                    "midi": 52,
                    "time": 186.516769999998,
                    "velocity": 0.25196850393700787,
                    "duration": 0.22471899999999323
                },
                {
                    "name": "G3",
                    "midi": 55,
                    "time": 186.516769999998,
                    "velocity": 0.25196850393700787,
                    "duration": 0.22471899999999323
                },
                {
                    "name": "A#3",
                    "midi": 58,
                    "time": 186.516769999998,
                    "velocity": 0.25196850393700787,
                    "duration": 0.22471899999999323
                },
                {
                    "name": "D3",
                    "midi": 50,
                    "time": 186.74148899999798,
                    "velocity": 0.2992125984251969,
                    "duration": 0.22471899999999323
                },
                {
                    "name": "F#3",
                    "midi": 54,
                    "time": 186.74148899999798,
                    "velocity": 0.2992125984251969,
                    "duration": 0.22471899999999323
                },
                {
                    "name": "B3",
                    "midi": 59,
                    "time": 186.74148899999798,
                    "velocity": 0.2992125984251969,
                    "duration": 0.22471899999999323
                },
                {
                    "name": "F#3",
                    "midi": 54,
                    "time": 187.19092699999797,
                    "velocity": 0.25196850393700787,
                    "duration": 0.22471899999999323
                },
                {
                    "name": "A3",
                    "midi": 57,
                    "time": 187.19092699999797,
                    "velocity": 0.25196850393700787,
                    "duration": 0.22471899999999323
                },
                {
                    "name": "D4",
                    "midi": 62,
                    "time": 187.19092699999797,
                    "velocity": 0.25196850393700787,
                    "duration": 0.22471899999999323
                },
                {
                    "name": "F3",
                    "midi": 53,
                    "time": 187.41564599999796,
                    "velocity": 0.28346456692913385,
                    "duration": 0.44943799999998646
                },
                {
                    "name": "G#3",
                    "midi": 56,
                    "time": 187.41564599999796,
                    "velocity": 0.28346456692913385,
                    "duration": 0.44943799999998646
                },
                {
                    "name": "C#4",
                    "midi": 61,
                    "time": 187.41564599999796,
                    "velocity": 0.28346456692913385,
                    "duration": 0.44943799999998646
                },
                {
                    "name": "E3",
                    "midi": 52,
                    "time": 187.86508399999795,
                    "velocity": 0.2440944881889764,
                    "duration": 0.22471899999999323
                },
                {
                    "name": "G3",
                    "midi": 55,
                    "time": 187.86508399999795,
                    "velocity": 0.2440944881889764,
                    "duration": 0.22471899999999323
                },
                {
                    "name": "A#3",
                    "midi": 58,
                    "time": 187.86508399999795,
                    "velocity": 0.2440944881889764,
                    "duration": 0.22471899999999323
                },
                {
                    "name": "D3",
                    "midi": 50,
                    "time": 188.08980299999794,
                    "velocity": 0.29133858267716534,
                    "duration": 0.22471899999999323
                },
                {
                    "name": "F#3",
                    "midi": 54,
                    "time": 188.08980299999794,
                    "velocity": 0.29133858267716534,
                    "duration": 0.22471899999999323
                },
                {
                    "name": "B3",
                    "midi": 59,
                    "time": 188.08980299999794,
                    "velocity": 0.29133858267716534,
                    "duration": 0.22471899999999323
                },
                {
                    "name": "F#3",
                    "midi": 54,
                    "time": 188.53924099999793,
                    "velocity": 0.25196850393700787,
                    "duration": 0.22471899999999323
                },
                {
                    "name": "A3",
                    "midi": 57,
                    "time": 188.53924099999793,
                    "velocity": 0.25196850393700787,
                    "duration": 0.22471899999999323
                },
                {
                    "name": "D4",
                    "midi": 62,
                    "time": 188.53924099999793,
                    "velocity": 0.25196850393700787,
                    "duration": 0.22471899999999323
                },
                {
                    "name": "C#3",
                    "midi": 49,
                    "time": 188.76395999999792,
                    "velocity": 0.2283464566929134,
                    "duration": 0.22471900000002165
                },
                {
                    "name": "G#3",
                    "midi": 56,
                    "time": 188.79204987499793,
                    "velocity": 0.2283464566929134,
                    "duration": 0.1966291250000154
                },
                {
                    "name": "F4",
                    "midi": 65,
                    "time": 188.82013974999794,
                    "velocity": 0.2283464566929134,
                    "duration": 0.16853925000000913
                },
                {
                    "name": "C#2",
                    "midi": 37,
                    "time": 189.43811699999793,
                    "velocity": 0.1968503937007874,
                    "duration": 0.11235949999999661
                },
                {
                    "name": "A1",
                    "midi": 33,
                    "time": 191.46058799999793,
                    "velocity": 0.31496062992125984,
                    "duration": 0.6741570000000081
                },
                {
                    "name": "A2",
                    "midi": 45,
                    "time": 191.46058799999793,
                    "velocity": 0.31496062992125984,
                    "duration": 2.696628000000004
                },
                {
                    "name": "D2",
                    "midi": 38,
                    "time": 192.13474499999793,
                    "velocity": 0.28346456692913385,
                    "duration": 2.022470999999996
                },
                {
                    "name": "A1",
                    "midi": 33,
                    "time": 194.15721599999793,
                    "velocity": 0.31496062992125984,
                    "duration": 0.6741570000000081
                },
                {
                    "name": "A2",
                    "midi": 45,
                    "time": 194.15721599999793,
                    "velocity": 0.31496062992125984,
                    "duration": 3.370785000000012
                },
                {
                    "name": "D2",
                    "midi": 38,
                    "time": 194.83137299999794,
                    "velocity": 0.28346456692913385,
                    "duration": 2.696628000000004
                },
                {
                    "name": "E2",
                    "midi": 40,
                    "time": 197.52800099999794,
                    "velocity": 0.2677165354330709,
                    "duration": 1.1235949999999946
                },
                {
                    "name": "E3",
                    "midi": 52,
                    "time": 197.52800099999794,
                    "velocity": 0.2677165354330709,
                    "duration": 0.6741570000000081
                },
                {
                    "name": "D3",
                    "midi": 50,
                    "time": 198.20215799999795,
                    "velocity": 0.2677165354330709,
                    "duration": 0.44943799999998646
                },
                {
                    "name": "A2",
                    "midi": 45,
                    "time": 198.65159599999794,
                    "velocity": 0.23622047244094488,
                    "duration": 0.22471899999999323
                },
                {
                    "name": "C#3",
                    "midi": 49,
                    "time": 198.65159599999794,
                    "velocity": 0.23622047244094488,
                    "duration": 0.22471899999999323
                },
                {
                    "name": "A2",
                    "midi": 45,
                    "time": 198.87631499999793,
                    "velocity": 0.2047244094488189,
                    "duration": 1.3483139999999878
                },
                {
                    "name": "E3",
                    "midi": 52,
                    "time": 198.87631499999793,
                    "velocity": 0.2047244094488189,
                    "duration": 1.3483139999999878
                },
                {
                    "name": "B3",
                    "midi": 59,
                    "time": 203.3706949999979,
                    "velocity": 0.2047244094488189,
                    "duration": 0.22471899999999323
                },
                {
                    "name": "D4",
                    "midi": 62,
                    "time": 203.3706949999979,
                    "velocity": 0.2047244094488189,
                    "duration": 0.22471899999999323
                },
                {
                    "name": "F4",
                    "midi": 65,
                    "time": 203.3706949999979,
                    "velocity": 0.2047244094488189,
                    "duration": 0.22471899999999323
                },
                {
                    "name": "A3",
                    "midi": 57,
                    "time": 203.5954139999979,
                    "velocity": 0.2440944881889764,
                    "duration": 0.22471899999999323
                },
                {
                    "name": "C#4",
                    "midi": 61,
                    "time": 203.5954139999979,
                    "velocity": 0.2440944881889764,
                    "duration": 0.22471899999999323
                },
                {
                    "name": "F#4",
                    "midi": 66,
                    "time": 203.5954139999979,
                    "velocity": 0.2440944881889764,
                    "duration": 0.22471899999999323
                },
                {
                    "name": "C#4",
                    "midi": 61,
                    "time": 204.0448519999979,
                    "velocity": 0.2204724409448819,
                    "duration": 0.22471899999999323
                },
                {
                    "name": "E4",
                    "midi": 64,
                    "time": 204.0448519999979,
                    "velocity": 0.2204724409448819,
                    "duration": 0.22471899999999323
                },
                {
                    "name": "A4",
                    "midi": 69,
                    "time": 204.0448519999979,
                    "velocity": 0.2204724409448819,
                    "duration": 0.22471899999999323
                },
                {
                    "name": "C4",
                    "midi": 60,
                    "time": 204.26957099999788,
                    "velocity": 0.2440944881889764,
                    "duration": 0.44943799999998646
                },
                {
                    "name": "D#4",
                    "midi": 63,
                    "time": 204.26957099999788,
                    "velocity": 0.2440944881889764,
                    "duration": 0.44943799999998646
                },
                {
                    "name": "G#4",
                    "midi": 68,
                    "time": 204.26957099999788,
                    "velocity": 0.2440944881889764,
                    "duration": 0.44943799999998646
                },
                {
                    "name": "B3",
                    "midi": 59,
                    "time": 204.71900899999787,
                    "velocity": 0.2125984251968504,
                    "duration": 0.22471899999999323
                },
                {
                    "name": "D4",
                    "midi": 62,
                    "time": 204.71900899999787,
                    "velocity": 0.2125984251968504,
                    "duration": 0.22471899999999323
                },
                {
                    "name": "F4",
                    "midi": 65,
                    "time": 204.71900899999787,
                    "velocity": 0.2125984251968504,
                    "duration": 0.22471899999999323
                },
                {
                    "name": "A3",
                    "midi": 57,
                    "time": 204.94372799999786,
                    "velocity": 0.2440944881889764,
                    "duration": 0.22471899999999323
                },
                {
                    "name": "C#4",
                    "midi": 61,
                    "time": 204.94372799999786,
                    "velocity": 0.2440944881889764,
                    "duration": 0.22471899999999323
                },
                {
                    "name": "F#4",
                    "midi": 66,
                    "time": 204.94372799999786,
                    "velocity": 0.2440944881889764,
                    "duration": 0.22471899999999323
                },
                {
                    "name": "C#4",
                    "midi": 61,
                    "time": 205.39316599999785,
                    "velocity": 0.1968503937007874,
                    "duration": 0.22471899999999323
                },
                {
                    "name": "E4",
                    "midi": 64,
                    "time": 205.39316599999785,
                    "velocity": 0.1968503937007874,
                    "duration": 0.22471899999999323
                },
                {
                    "name": "A4",
                    "midi": 69,
                    "time": 205.39316599999785,
                    "velocity": 0.1968503937007874,
                    "duration": 0.22471899999999323
                },
                {
                    "name": "G#3",
                    "midi": 56,
                    "time": 205.61788499999784,
                    "velocity": 0.1889763779527559,
                    "duration": 0.22471899999999323
                },
                {
                    "name": "D#4",
                    "midi": 63,
                    "time": 205.61788499999784,
                    "velocity": 0.1889763779527559,
                    "duration": 0.22471899999999323
                },
                {
                    "name": "C5",
                    "midi": 72,
                    "time": 205.61788499999784,
                    "velocity": 0.1889763779527559,
                    "duration": 0.22471899999999323
                },
                {
                    "name": "G#2",
                    "midi": 44,
                    "time": 206.29204199999782,
                    "velocity": 0.1889763779527559,
                    "duration": 0.22471899999999323
                },
                {
                    "name": "C#3",
                    "midi": 49,
                    "time": 208.31451299999782,
                    "velocity": 0.25984251968503935,
                    "duration": 0.6741569999999797
                },
                {
                    "name": "E4",
                    "midi": 64,
                    "time": 208.5392319999978,
                    "velocity": 0.23622047244094488,
                    "duration": 0.22471899999999323
                },
                {
                    "name": "G#3",
                    "midi": 56,
                    "time": 208.7639509999978,
                    "velocity": 0.23622047244094488,
                    "duration": 0.44943799999998646
                },
                {
                    "name": "D#3",
                    "midi": 51,
                    "time": 208.9886699999978,
                    "velocity": 0.25984251968503935,
                    "duration": 0.6741569999999797
                },
                {
                    "name": "F#3",
                    "midi": 54,
                    "time": 208.9886699999978,
                    "velocity": 0.25984251968503935,
                    "duration": 0.6741569999999797
                },
                {
                    "name": "C4",
                    "midi": 60,
                    "time": 209.2133889999978,
                    "velocity": 0.25196850393700787,
                    "duration": 0.22471899999999323
                },
                {
                    "name": "G#3",
                    "midi": 56,
                    "time": 209.43810799999778,
                    "velocity": 0.25196850393700787,
                    "duration": 0.44943799999998646
                },
                {
                    "name": "E3",
                    "midi": 52,
                    "time": 209.66282699999778,
                    "velocity": 0.25984251968503935,
                    "duration": 0.6741569999999797
                },
                {
                    "name": "C#4",
                    "midi": 61,
                    "time": 209.88754599999777,
                    "velocity": 0.25196850393700787,
                    "duration": 0.22471899999999323
                },
                {
                    "name": "G#3",
                    "midi": 56,
                    "time": 210.11226499999776,
                    "velocity": 0.25196850393700787,
                    "duration": 0.44943799999998646
                },
                {
                    "name": "C3",
                    "midi": 48,
                    "time": 210.33698399999776,
                    "velocity": 0.25984251968503935,
                    "duration": 0.6741569999999797
                },
                {
                    "name": "D#4",
                    "midi": 63,
                    "time": 210.56170299999775,
                    "velocity": 0.2440944881889764,
                    "duration": 0.22471899999999323
                },
                {
                    "name": "G#3",
                    "midi": 56,
                    "time": 210.78642199999774,
                    "velocity": 0.2440944881889764,
                    "duration": 0.44943799999998646
                },
                {
                    "name": "C#3",
                    "midi": 49,
                    "time": 211.01114099999774,
                    "velocity": 0.25984251968503935,
                    "duration": 0.6741569999999797
                },
                {
                    "name": "E4",
                    "midi": 64,
                    "time": 211.23585999999773,
                    "velocity": 0.25984251968503935,
                    "duration": 0.22471899999999323
                },
                {
                    "name": "G#3",
                    "midi": 56,
                    "time": 211.46057899999772,
                    "velocity": 0.2440944881889764,
                    "duration": 0.44943799999998646
                },
                {
                    "name": "D#3",
                    "midi": 51,
                    "time": 211.68529799999772,
                    "velocity": 0.25984251968503935,
                    "duration": 0.6741569999999797
                },
                {
                    "name": "F#3",
                    "midi": 54,
                    "time": 211.68529799999772,
                    "velocity": 0.25984251968503935,
                    "duration": 0.6741569999999797
                },
                {
                    "name": "C4",
                    "midi": 60,
                    "time": 211.9100169999977,
                    "velocity": 0.2440944881889764,
                    "duration": 0.22471899999999323
                },
                {
                    "name": "G#3",
                    "midi": 56,
                    "time": 212.1347359999977,
                    "velocity": 0.2440944881889764,
                    "duration": 0.44943799999998646
                },
                {
                    "name": "E3",
                    "midi": 52,
                    "time": 212.3594549999977,
                    "velocity": 0.25984251968503935,
                    "duration": 0.6741569999999797
                },
                {
                    "name": "C#4",
                    "midi": 61,
                    "time": 212.5841739999977,
                    "velocity": 0.2440944881889764,
                    "duration": 0.22471899999999323
                },
                {
                    "name": "G#3",
                    "midi": 56,
                    "time": 212.80889299999768,
                    "velocity": 0.2440944881889764,
                    "duration": 0.22471899999999323
                },
                {
                    "name": "B3",
                    "midi": 59,
                    "time": 213.03361199999767,
                    "velocity": 0.2440944881889764,
                    "duration": 0.22471899999999323
                },
                {
                    "name": "F3",
                    "midi": 53,
                    "time": 213.03361199999767,
                    "velocity": 0.25984251968503935,
                    "duration": 0.6741569999999797
                },
                {
                    "name": "G#4",
                    "midi": 68,
                    "time": 213.25833099999767,
                    "velocity": 0.2440944881889764,
                    "duration": 0.22471899999999323
                },
                {
                    "name": "C#4",
                    "midi": 61,
                    "time": 213.48304999999766,
                    "velocity": 0.2440944881889764,
                    "duration": 0.44943799999998646
                },
                {
                    "name": "F#3",
                    "midi": 54,
                    "time": 213.70776899999765,
                    "velocity": 0.28346456692913385,
                    "duration": 0.6741569999999797
                },
                {
                    "name": "A3",
                    "midi": 57,
                    "time": 213.70776899999765,
                    "velocity": 0.28346456692913385,
                    "duration": 0.6741569999999797
                },
                {
                    "name": "F#4",
                    "midi": 66,
                    "time": 213.93248799999765,
                    "velocity": 0.2440944881889764,
                    "duration": 0.22471899999999323
                },
                {
                    "name": "C#4",
                    "midi": 61,
                    "time": 214.15720699999764,
                    "velocity": 0.2440944881889764,
                    "duration": 0.44943799999998646
                },
                {
                    "name": "G#3",
                    "midi": 56,
                    "time": 214.38192599999763,
                    "velocity": 0.25984251968503935,
                    "duration": 0.6741569999999797
                },
                {
                    "name": "B3",
                    "midi": 59,
                    "time": 214.38192599999763,
                    "velocity": 0.25984251968503935,
                    "duration": 0.6741569999999797
                },
                {
                    "name": "F4",
                    "midi": 65,
                    "time": 214.60664499999763,
                    "velocity": 0.2440944881889764,
                    "duration": 0.22471899999999323
                },
                {
                    "name": "C#4",
                    "midi": 61,
                    "time": 214.83136399999762,
                    "velocity": 0.2440944881889764,
                    "duration": 0.44943799999998646
                },
                {
                    "name": "A3",
                    "midi": 57,
                    "time": 215.0560829999976,
                    "velocity": 0.25984251968503935,
                    "duration": 0.6741569999999797
                },
                {
                    "name": "F#4",
                    "midi": 66,
                    "time": 215.2808019999976,
                    "velocity": 0.2125984251968504,
                    "duration": 0.22471899999999323
                },
                {
                    "name": "C#4",
                    "midi": 61,
                    "time": 215.5055209999976,
                    "velocity": 0.2125984251968504,
                    "duration": 0.44943799999998646
                },
                {
                    "name": "F3",
                    "midi": 53,
                    "time": 215.7302399999976,
                    "velocity": 0.23622047244094488,
                    "duration": 0.6741569999999797
                },
                {
                    "name": "G#4",
                    "midi": 68,
                    "time": 215.9549589999976,
                    "velocity": 0.2440944881889764,
                    "duration": 0.22471899999999323
                },
                {
                    "name": "C#4",
                    "midi": 61,
                    "time": 216.17967799999758,
                    "velocity": 0.2440944881889764,
                    "duration": 0.44943799999998646
                },
                {
                    "name": "F#3",
                    "midi": 54,
                    "time": 216.40439699999757,
                    "velocity": 0.25984251968503935,
                    "duration": 0.6741569999999797
                },
                {
                    "name": "A3",
                    "midi": 57,
                    "time": 216.40439699999757,
                    "velocity": 0.25984251968503935,
                    "duration": 0.6741569999999797
                },
                {
                    "name": "A4",
                    "midi": 69,
                    "time": 216.62911599999757,
                    "velocity": 0.2440944881889764,
                    "duration": 0.22471899999999323
                },
                {
                    "name": "C#4",
                    "midi": 61,
                    "time": 216.85383499999756,
                    "velocity": 0.2440944881889764,
                    "duration": 0.44943799999998646
                },
                {
                    "name": "G#3",
                    "midi": 56,
                    "time": 217.07855399999755,
                    "velocity": 0.25984251968503935,
                    "duration": 0.6741569999999797
                },
                {
                    "name": "B3",
                    "midi": 59,
                    "time": 217.07855399999755,
                    "velocity": 0.25984251968503935,
                    "duration": 0.6741569999999797
                },
                {
                    "name": "F4",
                    "midi": 65,
                    "time": 217.30327299999755,
                    "velocity": 0.2440944881889764,
                    "duration": 0.22471899999999323
                },
                {
                    "name": "C#4",
                    "midi": 61,
                    "time": 217.52799199999754,
                    "velocity": 0.2440944881889764,
                    "duration": 0.44943799999998646
                },
                {
                    "name": "A3",
                    "midi": 57,
                    "time": 217.75271099999753,
                    "velocity": 0.25984251968503935,
                    "duration": 0.6741569999999797
                },
                {
                    "name": "F#4",
                    "midi": 66,
                    "time": 217.97742999999753,
                    "velocity": 0.2440944881889764,
                    "duration": 0.22471899999999323
                },
                {
                    "name": "C#4",
                    "midi": 61,
                    "time": 218.20214899999752,
                    "velocity": 0.2440944881889764,
                    "duration": 0.22471899999999323
                },
                {
                    "name": "A2",
                    "midi": 45,
                    "time": 218.4268679999975,
                    "velocity": 0.2440944881889764,
                    "duration": 0.11235949999999661
                },
                {
                    "name": "C#4",
                    "midi": 61,
                    "time": 218.6515869999975,
                    "velocity": 0.2204724409448819,
                    "duration": 0.22471899999999323
                },
                {
                    "name": "F#3",
                    "midi": 54,
                    "time": 218.8763059999975,
                    "velocity": 0.2204724409448819,
                    "duration": 0.22471899999999323
                },
                {
                    "name": "G#2",
                    "midi": 44,
                    "time": 219.1010249999975,
                    "velocity": 0.23622047244094488,
                    "duration": 0.22471899999999323
                },
                {
                    "name": "D#3",
                    "midi": 51,
                    "time": 219.1010249999975,
                    "velocity": 0.23622047244094488,
                    "duration": 0.6741569999999797
                },
                {
                    "name": "C4",
                    "midi": 60,
                    "time": 219.32574399999748,
                    "velocity": 0.2125984251968504,
                    "duration": 0.22471899999999323
                },
                {
                    "name": "F#3",
                    "midi": 54,
                    "time": 219.55046299999748,
                    "velocity": 0.2125984251968504,
                    "duration": 0.22471899999999323
                },
                {
                    "name": "E3",
                    "midi": 52,
                    "time": 219.77518199999747,
                    "velocity": 0.2440944881889764,
                    "duration": 0.6741569999999797
                },
                {
                    "name": "C#4",
                    "midi": 61,
                    "time": 219.99990099999746,
                    "velocity": 0.25984251968503935,
                    "duration": 0.22471899999999323
                },
                {
                    "name": "G#3",
                    "midi": 56,
                    "time": 220.22461999999746,
                    "velocity": 0.25984251968503935,
                    "duration": 0.22471899999999323
                },
                {
                    "name": "G#2",
                    "midi": 44,
                    "time": 220.44933899999745,
                    "velocity": 0.2992125984251969,
                    "duration": 0.22471899999999323
                },
                {
                    "name": "F#3",
                    "midi": 54,
                    "time": 220.44933899999745,
                    "velocity": 0.2992125984251969,
                    "duration": 0.6741569999999797
                },
                {
                    "name": "C4",
                    "midi": 60,
                    "time": 220.67405799999744,
                    "velocity": 0.25196850393700787,
                    "duration": 0.22471899999999323
                },
                {
                    "name": "G#3",
                    "midi": 56,
                    "time": 220.89877699999744,
                    "velocity": 0.25196850393700787,
                    "duration": 0.44943799999998646
                },
                {
                    "name": "E3",
                    "midi": 52,
                    "time": 221.12349599999743,
                    "velocity": 0.29133858267716534,
                    "duration": 0.6741569999999797
                },
                {
                    "name": "C#4",
                    "midi": 61,
                    "time": 221.34821499999742,
                    "velocity": 0.2440944881889764,
                    "duration": 0.22471899999999323
                },
                {
                    "name": "G#3",
                    "midi": 56,
                    "time": 221.57293399999742,
                    "velocity": 0.2440944881889764,
                    "duration": 0.22471899999999323
                },
                {
                    "name": "G#2",
                    "midi": 44,
                    "time": 221.7976529999974,
                    "velocity": 0.28346456692913385,
                    "duration": 0.22471899999999323
                },
                {
                    "name": "D#3",
                    "midi": 51,
                    "time": 221.7976529999974,
                    "velocity": 0.28346456692913385,
                    "duration": 0.6741569999999797
                },
                {
                    "name": "C4",
                    "midi": 60,
                    "time": 222.0223719999974,
                    "velocity": 0.2677165354330709,
                    "duration": 0.22471899999999323
                },
                {
                    "name": "G#3",
                    "midi": 56,
                    "time": 222.2470909999974,
                    "velocity": 0.2677165354330709,
                    "duration": 0.44943799999998646
                },
                {
                    "name": "E3",
                    "midi": 52,
                    "time": 222.4718099999974,
                    "velocity": 0.2992125984251969,
                    "duration": 0.6741569999999797
                },
                {
                    "name": "C#4",
                    "midi": 61,
                    "time": 222.69652899999738,
                    "velocity": 0.2440944881889764,
                    "duration": 0.22471899999999323
                },
                {
                    "name": "G#3",
                    "midi": 56,
                    "time": 222.92124799999738,
                    "velocity": 0.2440944881889764,
                    "duration": 0.22471899999999323
                },
                {
                    "name": "B2",
                    "midi": 47,
                    "time": 223.14596699999737,
                    "velocity": 0.25984251968503935,
                    "duration": 1.3483139999999878
                },
                {
                    "name": "F#3",
                    "midi": 54,
                    "time": 223.37068599999736,
                    "velocity": 0.2283464566929134,
                    "duration": 1.1235949999999946
                },
                {
                    "name": "A3",
                    "midi": 57,
                    "time": 223.59540499999736,
                    "velocity": 0.2283464566929134,
                    "duration": 0.8988760000000013
                },
                {
                    "name": "D#4",
                    "midi": 63,
                    "time": 223.82012399999735,
                    "velocity": 0.25984251968503935,
                    "duration": 0.6741570000000081
                },
                {
                    "name": "E3",
                    "midi": 52,
                    "time": 224.49428099999736,
                    "velocity": 0.25196850393700787,
                    "duration": 0.6741569999999797
                },
                {
                    "name": "E4",
                    "midi": 64,
                    "time": 224.71899999999735,
                    "velocity": 0.2283464566929134,
                    "duration": 0.22471899999999323
                },
                {
                    "name": "B3",
                    "midi": 59,
                    "time": 224.71899999999735,
                    "velocity": 0.2283464566929134,
                    "duration": 0.22471899999999323
                },
                {
                    "name": "G#3",
                    "midi": 56,
                    "time": 224.94371899999734,
                    "velocity": 0.23622047244094488,
                    "duration": 0.22471899999999323
                },
                {
                    "name": "D#3",
                    "midi": 51,
                    "time": 225.16843799999734,
                    "velocity": 0.2755905511811024,
                    "duration": 0.6741570000000081
                },
                {
                    "name": "E4",
                    "midi": 64,
                    "time": 225.39315699999736,
                    "velocity": 0.23622047244094488,
                    "duration": 0.22471899999999323
                },
                {
                    "name": "B3",
                    "midi": 59,
                    "time": 225.39315699999736,
                    "velocity": 0.23622047244094488,
                    "duration": 0.22471899999999323
                },
                {
                    "name": "G#3",
                    "midi": 56,
                    "time": 225.61787599999735,
                    "velocity": 0.25196850393700787,
                    "duration": 0.22471899999999323
                },
                {
                    "name": "E3",
                    "midi": 52,
                    "time": 225.84259499999735,
                    "velocity": 0.25196850393700787,
                    "duration": 0.22471899999999323
                },
                {
                    "name": "E4",
                    "midi": 64,
                    "time": 226.06731399999734,
                    "velocity": 0.23622047244094488,
                    "duration": 0.22471899999999323
                },
                {
                    "name": "B3",
                    "midi": 59,
                    "time": 226.06731399999734,
                    "velocity": 0.23622047244094488,
                    "duration": 0.22471899999999323
                },
                {
                    "name": "G#3",
                    "midi": 56,
                    "time": 226.29203299999733,
                    "velocity": 0.23622047244094488,
                    "duration": 0.22471899999999323
                },
                {
                    "name": "B2",
                    "midi": 47,
                    "time": 226.51675199999733,
                    "velocity": 0.25196850393700787,
                    "duration": 0.6741570000000081
                },
                {
                    "name": "A2",
                    "midi": 45,
                    "time": 227.19090899999733,
                    "velocity": 0.28346456692913385,
                    "duration": 0.11235949999999661
                },
                {
                    "name": "E4",
                    "midi": 64,
                    "time": 227.41562799999733,
                    "velocity": 0.2440944881889764,
                    "duration": 0.22471899999999323
                },
                {
                    "name": "C#4",
                    "midi": 61,
                    "time": 227.41562799999733,
                    "velocity": 0.2440944881889764,
                    "duration": 0.22471899999999323
                },
                {
                    "name": "F#3",
                    "midi": 54,
                    "time": 227.64034699999732,
                    "velocity": 0.2440944881889764,
                    "duration": 0.22471899999999323
                },
                {
                    "name": "F#2",
                    "midi": 42,
                    "time": 227.8650659999973,
                    "velocity": 0.31496062992125984,
                    "duration": 0.11235949999999661
                },
                {
                    "name": "E4",
                    "midi": 64,
                    "time": 228.0897849999973,
                    "velocity": 0.2755905511811024,
                    "duration": 0.22471899999999323
                },
                {
                    "name": "C#4",
                    "midi": 61,
                    "time": 228.0897849999973,
                    "velocity": 0.2755905511811024,
                    "duration": 0.22471899999999323
                },
                {
                    "name": "F#3",
                    "midi": 54,
                    "time": 228.3145039999973,
                    "velocity": 0.2755905511811024,
                    "duration": 0.22471899999999323
                },
                {
                    "name": "B2",
                    "midi": 47,
                    "time": 228.5392229999973,
                    "velocity": 0.2992125984251969,
                    "duration": 0.11235950000002504
                },
                {
                    "name": "B3",
                    "midi": 59,
                    "time": 228.76394199999731,
                    "velocity": 0.2677165354330709,
                    "duration": 1.1235949999999661
                },
                {
                    "name": "D#4",
                    "midi": 63,
                    "time": 228.76394199999731,
                    "velocity": 0.2677165354330709,
                    "duration": 1.1235949999999661
                },
                {
                    "name": "F#3",
                    "midi": 54,
                    "time": 228.9886609999973,
                    "velocity": 0.2440944881889764,
                    "duration": 0.22471899999999323
                },
                {
                    "name": "G#3",
                    "midi": 56,
                    "time": 229.2133799999973,
                    "velocity": 0.2992125984251969,
                    "duration": 0.22471899999999323
                },
                {
                    "name": "F#3",
                    "midi": 54,
                    "time": 229.4380989999973,
                    "velocity": 0.31496062992125984,
                    "duration": 0.22471899999999323
                },
                {
                    "name": "G#3",
                    "midi": 56,
                    "time": 229.6628179999973,
                    "velocity": 0.3779527559055118,
                    "duration": 0.22471899999999323
                },
                {
                    "name": "E3",
                    "midi": 52,
                    "time": 229.88753699999728,
                    "velocity": 0.2755905511811024,
                    "duration": 0.6741570000000081
                },
                {
                    "name": "E4",
                    "midi": 64,
                    "time": 230.1122559999973,
                    "velocity": 0.2440944881889764,
                    "duration": 0.22471899999999323
                },
                {
                    "name": "B3",
                    "midi": 59,
                    "time": 230.1122559999973,
                    "velocity": 0.2440944881889764,
                    "duration": 0.22471899999999323
                },
                {
                    "name": "G#3",
                    "midi": 56,
                    "time": 230.3369749999973,
                    "velocity": 0.25984251968503935,
                    "duration": 0.22471899999999323
                },
                {
                    "name": "D#3",
                    "midi": 51,
                    "time": 230.5616939999973,
                    "velocity": 0.2992125984251969,
                    "duration": 0.6741569999999797
                },
                {
                    "name": "E4",
                    "midi": 64,
                    "time": 230.78641299999728,
                    "velocity": 0.25984251968503935,
                    "duration": 0.22471899999999323
                },
                {
                    "name": "B3",
                    "midi": 59,
                    "time": 230.78641299999728,
                    "velocity": 0.25984251968503935,
                    "duration": 0.22471899999999323
                },
                {
                    "name": "G#3",
                    "midi": 56,
                    "time": 231.01113199999727,
                    "velocity": 0.2755905511811024,
                    "duration": 0.22471899999999323
                },
                {
                    "name": "E3",
                    "midi": 52,
                    "time": 231.23585099999727,
                    "velocity": 0.2755905511811024,
                    "duration": 0.22471899999999323
                },
                {
                    "name": "E4",
                    "midi": 64,
                    "time": 231.46056999999726,
                    "velocity": 0.25984251968503935,
                    "duration": 0.22471899999999323
                },
                {
                    "name": "B3",
                    "midi": 59,
                    "time": 231.46056999999726,
                    "velocity": 0.25984251968503935,
                    "duration": 0.22471899999999323
                },
                {
                    "name": "G#3",
                    "midi": 56,
                    "time": 231.68528899999725,
                    "velocity": 0.25984251968503935,
                    "duration": 0.22471899999999323
                },
                {
                    "name": "B2",
                    "midi": 47,
                    "time": 231.91000799999725,
                    "velocity": 0.2755905511811024,
                    "duration": 0.6741570000000081
                },
                {
                    "name": "A2",
                    "midi": 45,
                    "time": 232.58416499999726,
                    "velocity": 0.28346456692913385,
                    "duration": 0.11235949999999661
                },
                {
                    "name": "E4",
                    "midi": 64,
                    "time": 232.80888399999725,
                    "velocity": 0.2440944881889764,
                    "duration": 0.22471899999999323
                },
                {
                    "name": "C#4",
                    "midi": 61,
                    "time": 232.80888399999725,
                    "velocity": 0.2440944881889764,
                    "duration": 0.22471899999999323
                },
                {
                    "name": "F#3",
                    "midi": 54,
                    "time": 233.03360299999724,
                    "velocity": 0.2440944881889764,
                    "duration": 0.22471899999999323
                },
                {
                    "name": "F#2",
                    "midi": 42,
                    "time": 233.25832199999724,
                    "velocity": 0.31496062992125984,
                    "duration": 0.11235949999999661
                },
                {
                    "name": "E4",
                    "midi": 64,
                    "time": 233.48304099999723,
                    "velocity": 0.2755905511811024,
                    "duration": 0.22471899999999323
                },
                {
                    "name": "C#4",
                    "midi": 61,
                    "time": 233.48304099999723,
                    "velocity": 0.2755905511811024,
                    "duration": 0.22471899999999323
                },
                {
                    "name": "F#3",
                    "midi": 54,
                    "time": 233.70775999999722,
                    "velocity": 0.2755905511811024,
                    "duration": 0.22471899999999323
                },
                {
                    "name": "B2",
                    "midi": 47,
                    "time": 233.93247899999722,
                    "velocity": 0.33070866141732286,
                    "duration": 0.11235950000002504
                },
                {
                    "name": "B3",
                    "midi": 59,
                    "time": 234.15719799999724,
                    "velocity": 0.28346456692913385,
                    "duration": 1.1235949999999661
                },
                {
                    "name": "D#4",
                    "midi": 63,
                    "time": 234.15719799999724,
                    "velocity": 0.28346456692913385,
                    "duration": 1.1235949999999661
                },
                {
                    "name": "F#3",
                    "midi": 54,
                    "time": 234.38191699999723,
                    "velocity": 0.28346456692913385,
                    "duration": 0.22471899999999323
                },
                {
                    "name": "G#3",
                    "midi": 56,
                    "time": 234.60663599999722,
                    "velocity": 0.2992125984251969,
                    "duration": 0.22471899999999323
                },
                {
                    "name": "F#3",
                    "midi": 54,
                    "time": 234.83135499999722,
                    "velocity": 0.31496062992125984,
                    "duration": 0.22471899999999323
                },
                {
                    "name": "G#3",
                    "midi": 56,
                    "time": 235.0560739999972,
                    "velocity": 0.3543307086614173,
                    "duration": 0.22471899999999323
                },
                {
                    "name": "E3",
                    "midi": 52,
                    "time": 235.2807929999972,
                    "velocity": 0.3858267716535433,
                    "duration": 0.6741569999999797
                },
                {
                    "name": "E4",
                    "midi": 64,
                    "time": 235.5055119999972,
                    "velocity": 0.3464566929133858,
                    "duration": 0.22471899999999323
                },
                {
                    "name": "B3",
                    "midi": 59,
                    "time": 235.5055119999972,
                    "velocity": 0.3464566929133858,
                    "duration": 0.22471899999999323
                },
                {
                    "name": "G#3",
                    "midi": 56,
                    "time": 235.7302309999972,
                    "velocity": 0.3464566929133858,
                    "duration": 0.22471899999999323
                },
                {
                    "name": "B2",
                    "midi": 47,
                    "time": 235.95494999999718,
                    "velocity": 0.5275590551181102,
                    "duration": 0.11235949999999661
                },
                {
                    "name": "E4",
                    "midi": 64,
                    "time": 236.17966899999718,
                    "velocity": 0.5826771653543307,
                    "duration": 0.22471899999999323
                },
                {
                    "name": "B3",
                    "midi": 59,
                    "time": 236.17966899999718,
                    "velocity": 0.5826771653543307,
                    "duration": 0.22471899999999323
                },
                {
                    "name": "G#3",
                    "midi": 56,
                    "time": 236.40438799999717,
                    "velocity": 0.5826771653543307,
                    "duration": 0.22471899999999323
                },
                {
                    "name": "A2",
                    "midi": 45,
                    "time": 236.62910699999716,
                    "velocity": 0.5511811023622047,
                    "duration": 0.22471899999999323
                },
                {
                    "name": "A3",
                    "midi": 57,
                    "time": 236.62910699999716,
                    "velocity": 0.5511811023622047,
                    "duration": 0.22471899999999323
                },
                {
                    "name": "C3",
                    "midi": 48,
                    "time": 236.85382599999716,
                    "velocity": 0.6062992125984252,
                    "duration": 0.44943799999998646
                },
                {
                    "name": "C4",
                    "midi": 60,
                    "time": 236.85382599999716,
                    "velocity": 0.6062992125984252,
                    "duration": 0.44943799999998646
                },
                {
                    "name": "E2",
                    "midi": 40,
                    "time": 237.97742099999715,
                    "velocity": 0.5196850393700787,
                    "duration": 0.6741570000000081
                },
                {
                    "name": "E3",
                    "midi": 52,
                    "time": 238.20213999999717,
                    "velocity": 0.4094488188976378,
                    "duration": 0.22471899999999323
                },
                {
                    "name": "B2",
                    "midi": 47,
                    "time": 238.42685899999717,
                    "velocity": 0.4094488188976378,
                    "duration": 0.22471899999999323
                },
                {
                    "name": "B1",
                    "midi": 35,
                    "time": 238.65157799999716,
                    "velocity": 0.5354330708661418,
                    "duration": 0.11235950000002504
                },
                {
                    "name": "E3",
                    "midi": 52,
                    "time": 238.87629699999718,
                    "velocity": 0.5354330708661418,
                    "duration": 0.22471899999999323
                },
                {
                    "name": "B2",
                    "midi": 47,
                    "time": 239.10101599999717,
                    "velocity": 0.5354330708661418,
                    "duration": 0.22471899999999323
                },
                {
                    "name": "A1",
                    "midi": 33,
                    "time": 239.32573499999717,
                    "velocity": 0.5905511811023622,
                    "duration": 0.22471899999999323
                },
                {
                    "name": "A2",
                    "midi": 45,
                    "time": 239.32573499999717,
                    "velocity": 0.5905511811023622,
                    "duration": 0.22471899999999323
                },
                {
                    "name": "C2",
                    "midi": 36,
                    "time": 239.55045399999716,
                    "velocity": 0.6771653543307087,
                    "duration": 0.44943799999998646
                },
                {
                    "name": "C3",
                    "midi": 48,
                    "time": 239.55045399999716,
                    "velocity": 0.6771653543307087,
                    "duration": 0.44943799999998646
                },
                {
                    "name": "E1",
                    "midi": 28,
                    "time": 240.67404899999715,
                    "velocity": 0.7716535433070866,
                    "duration": 0.22471899999999323
                },
                {
                    "name": "G#4",
                    "midi": 68,
                    "time": 242.02236299999714,
                    "velocity": 0.6299212598425197,
                    "duration": 0.22471899999999323
                },
                {
                    "name": "B3",
                    "midi": 59,
                    "time": 242.02236299999714,
                    "velocity": 0.6299212598425197,
                    "duration": 0.22471899999999323
                },
                {
                    "name": "E3",
                    "midi": 52,
                    "time": 242.02236299999714,
                    "velocity": 0.6299212598425197,
                    "duration": 0.22471899999999323
                },
                {
                    "name": "E1",
                    "midi": 28,
                    "time": 244.71899099999715,
                    "velocity": 0.7559055118110236,
                    "duration": 0.6741570000000081
                },
                {
                    "name": "A1",
                    "midi": 33,
                    "time": 246.06730499999716,
                    "velocity": 0.3937007874015748,
                    "duration": 0.6741570000000081
                },
                {
                    "name": "A2",
                    "midi": 45,
                    "time": 246.06730499999716,
                    "velocity": 0.3937007874015748,
                    "duration": 2.696628000000004
                },
                {
                    "name": "D2",
                    "midi": 38,
                    "time": 246.74146199999717,
                    "velocity": 0.3464566929133858,
                    "duration": 2.022470999999996
                },
                {
                    "name": "A1",
                    "midi": 33,
                    "time": 248.76393299999717,
                    "velocity": 0.3937007874015748,
                    "duration": 0.6741570000000081
                },
                {
                    "name": "A2",
                    "midi": 45,
                    "time": 248.76393299999717,
                    "velocity": 0.3937007874015748,
                    "duration": 3.370785000000012
                },
                {
                    "name": "D2",
                    "midi": 38,
                    "time": 249.43808999999717,
                    "velocity": 0.3464566929133858,
                    "duration": 2.696628000000004
                },
                {
                    "name": "E2",
                    "midi": 40,
                    "time": 252.13471799999718,
                    "velocity": 0.3228346456692913,
                    "duration": 1.1235949999999946
                },
                {
                    "name": "E3",
                    "midi": 52,
                    "time": 252.13471799999718,
                    "velocity": 0.3228346456692913,
                    "duration": 0.6741570000000081
                },
                {
                    "name": "D3",
                    "midi": 50,
                    "time": 252.8088749999972,
                    "velocity": 0.30708661417322836,
                    "duration": 0.44943799999998646
                },
                {
                    "name": "A2",
                    "midi": 45,
                    "time": 253.25831299999717,
                    "velocity": 0.28346456692913385,
                    "duration": 1.573032999999981
                },
                {
                    "name": "C#3",
                    "midi": 49,
                    "time": 253.25831299999717,
                    "velocity": 0.28346456692913385,
                    "duration": 0.22471899999999323
                },
                {
                    "name": "E3",
                    "midi": 52,
                    "time": 253.48303199999717,
                    "velocity": 0.25196850393700787,
                    "duration": 1.3483139999999878
                },
                {
                    "name": "E3",
                    "midi": 52,
                    "time": 255.28078399999714,
                    "velocity": 0.25196850393700787,
                    "duration": 0.22471899999999323
                },
                {
                    "name": "G3",
                    "midi": 55,
                    "time": 255.28078399999714,
                    "velocity": 0.25196850393700787,
                    "duration": 0.22471899999999323
                },
                {
                    "name": "A#3",
                    "midi": 58,
                    "time": 255.28078399999714,
                    "velocity": 0.25196850393700787,
                    "duration": 0.22471899999999323
                },
                {
                    "name": "D3",
                    "midi": 50,
                    "time": 255.50550299999713,
                    "velocity": 0.2992125984251969,
                    "duration": 0.22471899999999323
                },
                {
                    "name": "F#3",
                    "midi": 54,
                    "time": 255.50550299999713,
                    "velocity": 0.2992125984251969,
                    "duration": 0.22471899999999323
                },
                {
                    "name": "B3",
                    "midi": 59,
                    "time": 255.50550299999713,
                    "velocity": 0.2992125984251969,
                    "duration": 0.22471899999999323
                },
                {
                    "name": "F#3",
                    "midi": 54,
                    "time": 255.95494099999712,
                    "velocity": 0.25196850393700787,
                    "duration": 0.22471899999999323
                },
                {
                    "name": "A3",
                    "midi": 57,
                    "time": 255.95494099999712,
                    "velocity": 0.25196850393700787,
                    "duration": 0.22471899999999323
                },
                {
                    "name": "D4",
                    "midi": 62,
                    "time": 255.95494099999712,
                    "velocity": 0.25196850393700787,
                    "duration": 0.22471899999999323
                },
                {
                    "name": "F3",
                    "midi": 53,
                    "time": 256.1796599999971,
                    "velocity": 0.28346456692913385,
                    "duration": 0.44943799999998646
                },
                {
                    "name": "G#3",
                    "midi": 56,
                    "time": 256.1796599999971,
                    "velocity": 0.28346456692913385,
                    "duration": 0.44943799999998646
                },
                {
                    "name": "C#4",
                    "midi": 61,
                    "time": 256.1796599999971,
                    "velocity": 0.28346456692913385,
                    "duration": 0.44943799999998646
                },
                {
                    "name": "E3",
                    "midi": 52,
                    "time": 256.6290979999971,
                    "velocity": 0.2440944881889764,
                    "duration": 0.22471899999999323
                },
                {
                    "name": "G3",
                    "midi": 55,
                    "time": 256.6290979999971,
                    "velocity": 0.2440944881889764,
                    "duration": 0.22471899999999323
                },
                {
                    "name": "A#3",
                    "midi": 58,
                    "time": 256.6290979999971,
                    "velocity": 0.2440944881889764,
                    "duration": 0.22471899999999323
                },
                {
                    "name": "D3",
                    "midi": 50,
                    "time": 256.8538169999971,
                    "velocity": 0.29133858267716534,
                    "duration": 0.22471899999999323
                },
                {
                    "name": "F#3",
                    "midi": 54,
                    "time": 256.8538169999971,
                    "velocity": 0.29133858267716534,
                    "duration": 0.22471899999999323
                },
                {
                    "name": "B3",
                    "midi": 59,
                    "time": 256.8538169999971,
                    "velocity": 0.29133858267716534,
                    "duration": 0.22471899999999323
                },
                {
                    "name": "F#3",
                    "midi": 54,
                    "time": 257.3032549999971,
                    "velocity": 0.25196850393700787,
                    "duration": 0.22471899999999323
                },
                {
                    "name": "A3",
                    "midi": 57,
                    "time": 257.3032549999971,
                    "velocity": 0.25196850393700787,
                    "duration": 0.22471899999999323
                },
                {
                    "name": "D4",
                    "midi": 62,
                    "time": 257.3032549999971,
                    "velocity": 0.25196850393700787,
                    "duration": 0.22471899999999323
                },
                {
                    "name": "C#3",
                    "midi": 49,
                    "time": 257.5279739999971,
                    "velocity": 0.2283464566929134,
                    "duration": 0.2247189999999364
                },
                {
                    "name": "G#3",
                    "midi": 56,
                    "time": 257.55606387499705,
                    "velocity": 0.2283464566929134,
                    "duration": 0.19662912499995855
                },
                {
                    "name": "F4",
                    "midi": 65,
                    "time": 257.58415374999703,
                    "velocity": 0.2283464566929134,
                    "duration": 0.1685392499999807
                },
                {
                    "name": "C#2",
                    "midi": 37,
                    "time": 258.202130999997,
                    "velocity": 0.1968503937007874,
                    "duration": 0.11235950000002504
                },
                {
                    "name": "A2",
                    "midi": 45,
                    "time": 260.224601999997,
                    "velocity": 0.2677165354330709,
                    "duration": 2.6966279999999756
                },
                {
                    "name": "D2",
                    "midi": 38,
                    "time": 260.89875899999697,
                    "velocity": 0.23622047244094488,
                    "duration": 2.022470999999996
                },
                {
                    "name": "A1",
                    "midi": 33,
                    "time": 262.92122999999697,
                    "velocity": 0.2677165354330709,
                    "duration": 0.6741569999999797
                },
                {
                    "name": "A2",
                    "midi": 45,
                    "time": 262.92122999999697,
                    "velocity": 0.2677165354330709,
                    "duration": 3.3707849999999553
                },
                {
                    "name": "D2",
                    "midi": 38,
                    "time": 263.59538699999695,
                    "velocity": 0.23622047244094488,
                    "duration": 2.6966279999999756
                },
                {
                    "name": "E2",
                    "midi": 40,
                    "time": 266.2920149999969,
                    "velocity": 0.2204724409448819,
                    "duration": 1.1235949999999661
                },
                {
                    "name": "E3",
                    "midi": 52,
                    "time": 266.2920149999969,
                    "velocity": 0.2204724409448819,
                    "duration": 0.6741569999999797
                },
                {
                    "name": "D3",
                    "midi": 50,
                    "time": 266.9661719999969,
                    "velocity": 0.2204724409448819,
                    "duration": 0.44943799999998646
                },
                {
                    "name": "A2",
                    "midi": 45,
                    "time": 267.4156099999969,
                    "velocity": 0.1968503937007874,
                    "duration": 1.5730330000000095
                },
                {
                    "name": "C#3",
                    "midi": 49,
                    "time": 267.4156099999969,
                    "velocity": 0.1968503937007874,
                    "duration": 0.22471899999999323
                },
                {
                    "name": "E3",
                    "midi": 52,
                    "time": 267.6403289999969,
                    "velocity": 0.1732283464566929,
                    "duration": 1.3483140000000162
                },
                {
                    "name": "B3",
                    "midi": 59,
                    "time": 272.1347089999969,
                    "velocity": 0.2047244094488189,
                    "duration": 0.22471899999999323
                },
                {
                    "name": "D4",
                    "midi": 62,
                    "time": 272.1347089999969,
                    "velocity": 0.2047244094488189,
                    "duration": 0.22471899999999323
                },
                {
                    "name": "F4",
                    "midi": 65,
                    "time": 272.1347089999969,
                    "velocity": 0.2047244094488189,
                    "duration": 0.22471899999999323
                },
                {
                    "name": "A3",
                    "midi": 57,
                    "time": 272.3594279999969,
                    "velocity": 0.2440944881889764,
                    "duration": 0.22471899999999323
                },
                {
                    "name": "C#4",
                    "midi": 61,
                    "time": 272.3594279999969,
                    "velocity": 0.2440944881889764,
                    "duration": 0.22471899999999323
                },
                {
                    "name": "F#4",
                    "midi": 66,
                    "time": 272.3594279999969,
                    "velocity": 0.2440944881889764,
                    "duration": 0.22471899999999323
                },
                {
                    "name": "C#4",
                    "midi": 61,
                    "time": 272.8088659999969,
                    "velocity": 0.2204724409448819,
                    "duration": 0.22471899999999323
                },
                {
                    "name": "E4",
                    "midi": 64,
                    "time": 272.8088659999969,
                    "velocity": 0.2204724409448819,
                    "duration": 0.22471899999999323
                },
                {
                    "name": "A4",
                    "midi": 69,
                    "time": 272.8088659999969,
                    "velocity": 0.2204724409448819,
                    "duration": 0.22471899999999323
                },
                {
                    "name": "C4",
                    "midi": 60,
                    "time": 273.0335849999969,
                    "velocity": 0.2440944881889764,
                    "duration": 0.44943799999998646
                },
                {
                    "name": "D#4",
                    "midi": 63,
                    "time": 273.0335849999969,
                    "velocity": 0.2440944881889764,
                    "duration": 0.44943799999998646
                },
                {
                    "name": "G#4",
                    "midi": 68,
                    "time": 273.0335849999969,
                    "velocity": 0.2440944881889764,
                    "duration": 0.44943799999998646
                },
                {
                    "name": "B3",
                    "midi": 59,
                    "time": 273.4830229999969,
                    "velocity": 0.2125984251968504,
                    "duration": 0.22471899999999323
                },
                {
                    "name": "D4",
                    "midi": 62,
                    "time": 273.4830229999969,
                    "velocity": 0.2125984251968504,
                    "duration": 0.22471899999999323
                },
                {
                    "name": "F4",
                    "midi": 65,
                    "time": 273.4830229999969,
                    "velocity": 0.2125984251968504,
                    "duration": 0.22471899999999323
                },
                {
                    "name": "A3",
                    "midi": 57,
                    "time": 273.70774199999687,
                    "velocity": 0.2440944881889764,
                    "duration": 0.22471899999999323
                },
                {
                    "name": "C#4",
                    "midi": 61,
                    "time": 273.70774199999687,
                    "velocity": 0.2440944881889764,
                    "duration": 0.22471899999999323
                },
                {
                    "name": "F#4",
                    "midi": 66,
                    "time": 273.70774199999687,
                    "velocity": 0.2440944881889764,
                    "duration": 0.22471899999999323
                },
                {
                    "name": "C#4",
                    "midi": 61,
                    "time": 274.15717999999686,
                    "velocity": 0.1968503937007874,
                    "duration": 0.22471899999999323
                },
                {
                    "name": "E4",
                    "midi": 64,
                    "time": 274.15717999999686,
                    "velocity": 0.1968503937007874,
                    "duration": 0.22471899999999323
                },
                {
                    "name": "A4",
                    "midi": 69,
                    "time": 274.15717999999686,
                    "velocity": 0.1968503937007874,
                    "duration": 0.22471899999999323
                },
                {
                    "name": "G#3",
                    "midi": 56,
                    "time": 274.38189899999685,
                    "velocity": 0.1889763779527559,
                    "duration": 0.22471899999999323
                },
                {
                    "name": "D#4",
                    "midi": 63,
                    "time": 274.38189899999685,
                    "velocity": 0.1889763779527559,
                    "duration": 0.22471899999999323
                },
                {
                    "name": "C5",
                    "midi": 72,
                    "time": 274.38189899999685,
                    "velocity": 0.1889763779527559,
                    "duration": 0.22471899999999323
                },
                {
                    "name": "G#2",
                    "midi": 44,
                    "time": 275.05605599999683,
                    "velocity": 0.1889763779527559,
                    "duration": 0.22471899999999323
                },
                {
                    "name": "C#3",
                    "midi": 49,
                    "time": 277.0785269999968,
                    "velocity": 0.25984251968503935,
                    "duration": 0.6741569999999797
                },
                {
                    "name": "E4",
                    "midi": 64,
                    "time": 277.3032459999968,
                    "velocity": 0.23622047244094488,
                    "duration": 0.22471899999999323
                },
                {
                    "name": "G#3",
                    "midi": 56,
                    "time": 277.5279649999968,
                    "velocity": 0.23622047244094488,
                    "duration": 0.44943799999998646
                },
                {
                    "name": "D#3",
                    "midi": 51,
                    "time": 277.7526839999968,
                    "velocity": 0.25984251968503935,
                    "duration": 0.6741569999999797
                },
                {
                    "name": "F#3",
                    "midi": 54,
                    "time": 277.7526839999968,
                    "velocity": 0.25984251968503935,
                    "duration": 0.6741569999999797
                },
                {
                    "name": "C4",
                    "midi": 60,
                    "time": 277.9774029999968,
                    "velocity": 0.25196850393700787,
                    "duration": 0.22471899999999323
                },
                {
                    "name": "G#3",
                    "midi": 56,
                    "time": 278.2021219999968,
                    "velocity": 0.25196850393700787,
                    "duration": 0.44943799999998646
                },
                {
                    "name": "E3",
                    "midi": 52,
                    "time": 278.4268409999968,
                    "velocity": 0.25984251968503935,
                    "duration": 0.6741569999999797
                },
                {
                    "name": "C#4",
                    "midi": 61,
                    "time": 278.6515599999968,
                    "velocity": 0.25196850393700787,
                    "duration": 0.22471899999999323
                },
                {
                    "name": "G#3",
                    "midi": 56,
                    "time": 278.87627899999677,
                    "velocity": 0.25196850393700787,
                    "duration": 0.44943799999998646
                },
                {
                    "name": "C3",
                    "midi": 48,
                    "time": 279.10099799999676,
                    "velocity": 0.25984251968503935,
                    "duration": 0.6741569999999797
                },
                {
                    "name": "D#4",
                    "midi": 63,
                    "time": 279.32571699999676,
                    "velocity": 0.2440944881889764,
                    "duration": 0.22471899999999323
                },
                {
                    "name": "G#3",
                    "midi": 56,
                    "time": 279.55043599999675,
                    "velocity": 0.2440944881889764,
                    "duration": 0.44943799999998646
                },
                {
                    "name": "C#3",
                    "midi": 49,
                    "time": 279.77515499999674,
                    "velocity": 0.25984251968503935,
                    "duration": 0.6741569999999797
                },
                {
                    "name": "E4",
                    "midi": 64,
                    "time": 279.99987399999674,
                    "velocity": 0.25984251968503935,
                    "duration": 0.22471899999999323
                },
                {
                    "name": "G#3",
                    "midi": 56,
                    "time": 280.22459299999673,
                    "velocity": 0.2440944881889764,
                    "duration": 0.44943799999998646
                },
                {
                    "name": "D#3",
                    "midi": 51,
                    "time": 280.4493119999967,
                    "velocity": 0.25984251968503935,
                    "duration": 0.6741569999999797
                },
                {
                    "name": "F#3",
                    "midi": 54,
                    "time": 280.4493119999967,
                    "velocity": 0.25984251968503935,
                    "duration": 0.6741569999999797
                },
                {
                    "name": "C4",
                    "midi": 60,
                    "time": 280.6740309999967,
                    "velocity": 0.2440944881889764,
                    "duration": 0.22471899999999323
                },
                {
                    "name": "G#3",
                    "midi": 56,
                    "time": 280.8987499999967,
                    "velocity": 0.2440944881889764,
                    "duration": 0.44943799999998646
                },
                {
                    "name": "E3",
                    "midi": 52,
                    "time": 281.1234689999967,
                    "velocity": 0.25984251968503935,
                    "duration": 0.6741569999999797
                },
                {
                    "name": "C#4",
                    "midi": 61,
                    "time": 281.3481879999967,
                    "velocity": 0.2440944881889764,
                    "duration": 0.22471899999999323
                },
                {
                    "name": "G#3",
                    "midi": 56,
                    "time": 281.5729069999967,
                    "velocity": 0.2440944881889764,
                    "duration": 0.22471899999999323
                },
                {
                    "name": "B3",
                    "midi": 59,
                    "time": 281.7976259999967,
                    "velocity": 0.2440944881889764,
                    "duration": 0.22471899999999323
                },
                {
                    "name": "F3",
                    "midi": 53,
                    "time": 281.7976259999967,
                    "velocity": 0.25984251968503935,
                    "duration": 0.6741569999999797
                },
                {
                    "name": "G#4",
                    "midi": 68,
                    "time": 282.0223449999967,
                    "velocity": 0.2440944881889764,
                    "duration": 0.22471899999999323
                },
                {
                    "name": "C#4",
                    "midi": 61,
                    "time": 282.24706399999667,
                    "velocity": 0.2440944881889764,
                    "duration": 0.44943799999998646
                },
                {
                    "name": "F#3",
                    "midi": 54,
                    "time": 282.47178299999666,
                    "velocity": 0.28346456692913385,
                    "duration": 0.6741569999999797
                },
                {
                    "name": "A3",
                    "midi": 57,
                    "time": 282.47178299999666,
                    "velocity": 0.28346456692913385,
                    "duration": 0.6741569999999797
                },
                {
                    "name": "F#4",
                    "midi": 66,
                    "time": 282.69650199999666,
                    "velocity": 0.2440944881889764,
                    "duration": 0.22471899999999323
                },
                {
                    "name": "C#4",
                    "midi": 61,
                    "time": 282.92122099999665,
                    "velocity": 0.2440944881889764,
                    "duration": 0.44943799999998646
                },
                {
                    "name": "G#3",
                    "midi": 56,
                    "time": 283.14593999999664,
                    "velocity": 0.25984251968503935,
                    "duration": 0.6741569999999797
                },
                {
                    "name": "B3",
                    "midi": 59,
                    "time": 283.14593999999664,
                    "velocity": 0.25984251968503935,
                    "duration": 0.6741569999999797
                },
                {
                    "name": "F4",
                    "midi": 65,
                    "time": 283.37065899999664,
                    "velocity": 0.2440944881889764,
                    "duration": 0.22471899999999323
                },
                {
                    "name": "C#4",
                    "midi": 61,
                    "time": 283.59537799999663,
                    "velocity": 0.2440944881889764,
                    "duration": 0.44943799999998646
                },
                {
                    "name": "A3",
                    "midi": 57,
                    "time": 283.8200969999966,
                    "velocity": 0.25984251968503935,
                    "duration": 0.6741569999999797
                },
                {
                    "name": "F#4",
                    "midi": 66,
                    "time": 284.0448159999966,
                    "velocity": 0.2125984251968504,
                    "duration": 0.22471899999999323
                },
                {
                    "name": "C#4",
                    "midi": 61,
                    "time": 284.2695349999966,
                    "velocity": 0.2125984251968504,
                    "duration": 0.44943799999998646
                },
                {
                    "name": "F3",
                    "midi": 53,
                    "time": 284.4942539999966,
                    "velocity": 0.23622047244094488,
                    "duration": 0.6741569999999797
                },
                {
                    "name": "G#4",
                    "midi": 68,
                    "time": 284.7189729999966,
                    "velocity": 0.2440944881889764,
                    "duration": 0.22471899999999323
                },
                {
                    "name": "C#4",
                    "midi": 61,
                    "time": 284.9436919999966,
                    "velocity": 0.2440944881889764,
                    "duration": 0.44943799999998646
                },
                {
                    "name": "F#3",
                    "midi": 54,
                    "time": 285.1684109999966,
                    "velocity": 0.25984251968503935,
                    "duration": 0.6741569999999797
                },
                {
                    "name": "A3",
                    "midi": 57,
                    "time": 285.1684109999966,
                    "velocity": 0.25984251968503935,
                    "duration": 0.6741569999999797
                },
                {
                    "name": "A4",
                    "midi": 69,
                    "time": 285.3931299999966,
                    "velocity": 0.2440944881889764,
                    "duration": 0.22471899999999323
                },
                {
                    "name": "C#4",
                    "midi": 61,
                    "time": 285.61784899999657,
                    "velocity": 0.2440944881889764,
                    "duration": 0.44943799999998646
                },
                {
                    "name": "G#3",
                    "midi": 56,
                    "time": 285.84256799999656,
                    "velocity": 0.25984251968503935,
                    "duration": 0.6741569999999797
                },
                {
                    "name": "B3",
                    "midi": 59,
                    "time": 285.84256799999656,
                    "velocity": 0.25984251968503935,
                    "duration": 0.6741569999999797
                },
                {
                    "name": "F4",
                    "midi": 65,
                    "time": 286.06728699999655,
                    "velocity": 0.2440944881889764,
                    "duration": 0.22471899999999323
                },
                {
                    "name": "C#4",
                    "midi": 61,
                    "time": 286.29200599999655,
                    "velocity": 0.2440944881889764,
                    "duration": 0.44943799999998646
                },
                {
                    "name": "A3",
                    "midi": 57,
                    "time": 286.51672499999654,
                    "velocity": 0.25984251968503935,
                    "duration": 0.6741569999999797
                },
                {
                    "name": "F#4",
                    "midi": 66,
                    "time": 286.74144399999653,
                    "velocity": 0.2440944881889764,
                    "duration": 0.22471899999999323
                },
                {
                    "name": "C#4",
                    "midi": 61,
                    "time": 286.9661629999965,
                    "velocity": 0.2440944881889764,
                    "duration": 0.22471899999999323
                },
                {
                    "name": "A2",
                    "midi": 45,
                    "time": 287.1908819999965,
                    "velocity": 0.2440944881889764,
                    "duration": 0.1123594999999682
                },
                {
                    "name": "C#4",
                    "midi": 61,
                    "time": 287.4156009999965,
                    "velocity": 0.2204724409448819,
                    "duration": 0.22471899999999323
                },
                {
                    "name": "F#3",
                    "midi": 54,
                    "time": 287.6403199999965,
                    "velocity": 0.2204724409448819,
                    "duration": 0.22471899999999323
                },
                {
                    "name": "G#2",
                    "midi": 44,
                    "time": 287.8650389999965,
                    "velocity": 0.23622047244094488,
                    "duration": 0.22471900000005007
                },
                {
                    "name": "D#3",
                    "midi": 51,
                    "time": 287.8650389999965,
                    "velocity": 0.23622047244094488,
                    "duration": 0.6741570000000365
                },
                {
                    "name": "C4",
                    "midi": 60,
                    "time": 288.08975799999655,
                    "velocity": 0.2125984251968504,
                    "duration": 0.22471899999999323
                },
                {
                    "name": "F#3",
                    "midi": 54,
                    "time": 288.31447699999654,
                    "velocity": 0.2125984251968504,
                    "duration": 0.22471899999999323
                },
                {
                    "name": "E3",
                    "midi": 52,
                    "time": 288.53919599999654,
                    "velocity": 0.2440944881889764,
                    "duration": 0.6741570000000365
                },
                {
                    "name": "C#4",
                    "midi": 61,
                    "time": 288.76391499999653,
                    "velocity": 0.25984251968503935,
                    "duration": 0.22471900000005007
                },
                {
                    "name": "G#3",
                    "midi": 56,
                    "time": 288.9886339999966,
                    "velocity": 0.25984251968503935,
                    "duration": 0.22471899999999323
                },
                {
                    "name": "G#2",
                    "midi": 44,
                    "time": 289.2133529999966,
                    "velocity": 0.2992125984251969,
                    "duration": 0.22471899999999323
                },
                {
                    "name": "F#3",
                    "midi": 54,
                    "time": 289.2133529999966,
                    "velocity": 0.2992125984251969,
                    "duration": 0.6741569999999797
                },
                {
                    "name": "C4",
                    "midi": 60,
                    "time": 289.43807199999657,
                    "velocity": 0.25196850393700787,
                    "duration": 0.22471899999999323
                },
                {
                    "name": "G#3",
                    "midi": 56,
                    "time": 289.66279099999656,
                    "velocity": 0.25196850393700787,
                    "duration": 0.44943799999998646
                },
                {
                    "name": "E3",
                    "midi": 52,
                    "time": 289.88750999999655,
                    "velocity": 0.29133858267716534,
                    "duration": 0.6741569999999797
                },
                {
                    "name": "C#4",
                    "midi": 61,
                    "time": 290.11222899999655,
                    "velocity": 0.2440944881889764,
                    "duration": 0.22471899999999323
                },
                {
                    "name": "G#3",
                    "midi": 56,
                    "time": 290.33694799999654,
                    "velocity": 0.2440944881889764,
                    "duration": 0.22471899999999323
                },
                {
                    "name": "G#2",
                    "midi": 44,
                    "time": 290.56166699999653,
                    "velocity": 0.28346456692913385,
                    "duration": 0.22471900000005007
                },
                {
                    "name": "D#3",
                    "midi": 51,
                    "time": 290.56166699999653,
                    "velocity": 0.28346456692913385,
                    "duration": 0.6741570000000365
                },
                {
                    "name": "C4",
                    "midi": 60,
                    "time": 290.7863859999966,
                    "velocity": 0.2677165354330709,
                    "duration": 0.22471899999999323
                },
                {
                    "name": "G#3",
                    "midi": 56,
                    "time": 291.0111049999966,
                    "velocity": 0.2677165354330709,
                    "duration": 0.4494380000000433
                },
                {
                    "name": "E3",
                    "midi": 52,
                    "time": 291.23582399999657,
                    "velocity": 0.2992125984251969,
                    "duration": 0.6741570000000365
                },
                {
                    "name": "C#4",
                    "midi": 61,
                    "time": 291.4605429999966,
                    "velocity": 0.2440944881889764,
                    "duration": 0.22471899999999323
                },
                {
                    "name": "G#3",
                    "midi": 56,
                    "time": 291.6852619999966,
                    "velocity": 0.2440944881889764,
                    "duration": 0.22471899999999323
                },
                {
                    "name": "B2",
                    "midi": 47,
                    "time": 291.9099809999966,
                    "velocity": 0.25984251968503935,
                    "duration": 1.3483140000000162
                },
                {
                    "name": "F#3",
                    "midi": 54,
                    "time": 292.1346999999966,
                    "velocity": 0.2283464566929134,
                    "duration": 1.123595000000023
                },
                {
                    "name": "A3",
                    "midi": 57,
                    "time": 292.3594189999966,
                    "velocity": 0.2283464566929134,
                    "duration": 0.8988760000000298
                },
                {
                    "name": "D#4",
                    "midi": 63,
                    "time": 292.5841379999966,
                    "velocity": 0.25984251968503935,
                    "duration": 0.6741570000000365
                },
                {
                    "name": "E3",
                    "midi": 52,
                    "time": 293.2582949999966,
                    "velocity": 0.25196850393700787,
                    "duration": 0.6741569999999797
                },
                {
                    "name": "E4",
                    "midi": 64,
                    "time": 293.4830139999966,
                    "velocity": 0.2283464566929134,
                    "duration": 0.22471899999999323
                },
                {
                    "name": "B3",
                    "midi": 59,
                    "time": 293.4830139999966,
                    "velocity": 0.2283464566929134,
                    "duration": 0.22471899999999323
                },
                {
                    "name": "G#3",
                    "midi": 56,
                    "time": 293.7077329999966,
                    "velocity": 0.23622047244094488,
                    "duration": 0.22471899999999323
                },
                {
                    "name": "D#3",
                    "midi": 51,
                    "time": 293.9324519999966,
                    "velocity": 0.2755905511811024,
                    "duration": 0.6741569999999797
                },
                {
                    "name": "E4",
                    "midi": 64,
                    "time": 294.1571709999966,
                    "velocity": 0.23622047244094488,
                    "duration": 0.22471899999999323
                },
                {
                    "name": "B3",
                    "midi": 59,
                    "time": 294.1571709999966,
                    "velocity": 0.23622047244094488,
                    "duration": 0.22471899999999323
                },
                {
                    "name": "G#3",
                    "midi": 56,
                    "time": 294.3818899999966,
                    "velocity": 0.25196850393700787,
                    "duration": 0.22471899999999323
                },
                {
                    "name": "E3",
                    "midi": 52,
                    "time": 294.6066089999966,
                    "velocity": 0.25196850393700787,
                    "duration": 0.22471899999999323
                },
                {
                    "name": "E4",
                    "midi": 64,
                    "time": 294.8313279999966,
                    "velocity": 0.23622047244094488,
                    "duration": 0.22471899999999323
                },
                {
                    "name": "B3",
                    "midi": 59,
                    "time": 294.8313279999966,
                    "velocity": 0.23622047244094488,
                    "duration": 0.22471899999999323
                },
                {
                    "name": "G#3",
                    "midi": 56,
                    "time": 295.05604699999657,
                    "velocity": 0.23622047244094488,
                    "duration": 0.22471899999999323
                },
                {
                    "name": "B2",
                    "midi": 47,
                    "time": 295.28076599999656,
                    "velocity": 0.25196850393700787,
                    "duration": 0.6741570000000365
                },
                {
                    "name": "A2",
                    "midi": 45,
                    "time": 295.9549229999966,
                    "velocity": 0.28346456692913385,
                    "duration": 0.11235950000002504
                },
                {
                    "name": "E4",
                    "midi": 64,
                    "time": 296.17964199999665,
                    "velocity": 0.2440944881889764,
                    "duration": 0.22471899999999323
                },
                {
                    "name": "C#4",
                    "midi": 61,
                    "time": 296.17964199999665,
                    "velocity": 0.2440944881889764,
                    "duration": 0.22471899999999323
                },
                {
                    "name": "F#3",
                    "midi": 54,
                    "time": 296.40436099999664,
                    "velocity": 0.2440944881889764,
                    "duration": 0.22471899999999323
                },
                {
                    "name": "F#2",
                    "midi": 42,
                    "time": 296.62907999999663,
                    "velocity": 0.31496062992125984,
                    "duration": 0.11235950000002504
                },
                {
                    "name": "E4",
                    "midi": 64,
                    "time": 296.8537989999967,
                    "velocity": 0.2755905511811024,
                    "duration": 0.22471899999999323
                },
                {
                    "name": "C#4",
                    "midi": 61,
                    "time": 296.8537989999967,
                    "velocity": 0.2755905511811024,
                    "duration": 0.22471899999999323
                },
                {
                    "name": "F#3",
                    "midi": 54,
                    "time": 297.0785179999967,
                    "velocity": 0.2755905511811024,
                    "duration": 0.22471899999999323
                },
                {
                    "name": "B2",
                    "midi": 47,
                    "time": 297.30323699999667,
                    "velocity": 0.2992125984251969,
                    "duration": 0.11235950000002504
                },
                {
                    "name": "B3",
                    "midi": 59,
                    "time": 297.5279559999967,
                    "velocity": 0.2677165354330709,
                    "duration": 1.1235949999999661
                },
                {
                    "name": "D#4",
                    "midi": 63,
                    "time": 297.5279559999967,
                    "velocity": 0.2677165354330709,
                    "duration": 1.1235949999999661
                },
                {
                    "name": "F#3",
                    "midi": 54,
                    "time": 297.7526749999967,
                    "velocity": 0.2440944881889764,
                    "duration": 0.22471899999999323
                },
                {
                    "name": "G#3",
                    "midi": 56,
                    "time": 297.9773939999967,
                    "velocity": 0.2992125984251969,
                    "duration": 0.22471899999999323
                },
                {
                    "name": "F#3",
                    "midi": 54,
                    "time": 298.2021129999967,
                    "velocity": 0.31496062992125984,
                    "duration": 0.22471899999999323
                },
                {
                    "name": "G#3",
                    "midi": 56,
                    "time": 298.4268319999967,
                    "velocity": 0.3779527559055118,
                    "duration": 0.22471899999999323
                },
                {
                    "name": "E3",
                    "midi": 52,
                    "time": 298.6515509999967,
                    "velocity": 0.2755905511811024,
                    "duration": 0.6741569999999797
                },
                {
                    "name": "E4",
                    "midi": 64,
                    "time": 298.8762699999967,
                    "velocity": 0.2440944881889764,
                    "duration": 0.22471899999999323
                },
                {
                    "name": "B3",
                    "midi": 59,
                    "time": 298.8762699999967,
                    "velocity": 0.2440944881889764,
                    "duration": 0.22471899999999323
                },
                {
                    "name": "G#3",
                    "midi": 56,
                    "time": 299.1009889999967,
                    "velocity": 0.25984251968503935,
                    "duration": 0.22471899999999323
                },
                {
                    "name": "D#3",
                    "midi": 51,
                    "time": 299.32570799999667,
                    "velocity": 0.2992125984251969,
                    "duration": 0.6741570000000365
                },
                {
                    "name": "E4",
                    "midi": 64,
                    "time": 299.5504269999967,
                    "velocity": 0.25984251968503935,
                    "duration": 0.22471899999999323
                },
                {
                    "name": "B3",
                    "midi": 59,
                    "time": 299.5504269999967,
                    "velocity": 0.25984251968503935,
                    "duration": 0.22471899999999323
                },
                {
                    "name": "G#3",
                    "midi": 56,
                    "time": 299.7751459999967,
                    "velocity": 0.2755905511811024,
                    "duration": 0.22471899999999323
                },
                {
                    "name": "E3",
                    "midi": 52,
                    "time": 299.9998649999967,
                    "velocity": 0.2755905511811024,
                    "duration": 0.22471899999999323
                },
                {
                    "name": "E4",
                    "midi": 64,
                    "time": 300.2245839999967,
                    "velocity": 0.25984251968503935,
                    "duration": 0.22471899999999323
                },
                {
                    "name": "B3",
                    "midi": 59,
                    "time": 300.2245839999967,
                    "velocity": 0.25984251968503935,
                    "duration": 0.22471899999999323
                },
                {
                    "name": "G#3",
                    "midi": 56,
                    "time": 300.4493029999967,
                    "velocity": 0.25984251968503935,
                    "duration": 0.22471899999999323
                },
                {
                    "name": "B2",
                    "midi": 47,
                    "time": 300.6740219999967,
                    "velocity": 0.2755905511811024,
                    "duration": 0.6741569999999797
                },
                {
                    "name": "A2",
                    "midi": 45,
                    "time": 301.34817899999666,
                    "velocity": 0.28346456692913385,
                    "duration": 0.1123594999999682
                },
                {
                    "name": "E4",
                    "midi": 64,
                    "time": 301.57289799999666,
                    "velocity": 0.2440944881889764,
                    "duration": 0.22471899999999323
                },
                {
                    "name": "C#4",
                    "midi": 61,
                    "time": 301.57289799999666,
                    "velocity": 0.2440944881889764,
                    "duration": 0.22471899999999323
                },
                {
                    "name": "F#3",
                    "midi": 54,
                    "time": 301.79761699999665,
                    "velocity": 0.2440944881889764,
                    "duration": 0.22471899999999323
                },
                {
                    "name": "F#2",
                    "midi": 42,
                    "time": 302.02233599999664,
                    "velocity": 0.31496062992125984,
                    "duration": 0.11235950000002504
                },
                {
                    "name": "E4",
                    "midi": 64,
                    "time": 302.2470549999967,
                    "velocity": 0.2755905511811024,
                    "duration": 0.22471899999999323
                },
                {
                    "name": "C#4",
                    "midi": 61,
                    "time": 302.2470549999967,
                    "velocity": 0.2755905511811024,
                    "duration": 0.22471899999999323
                },
                {
                    "name": "F#3",
                    "midi": 54,
                    "time": 302.4717739999967,
                    "velocity": 0.2755905511811024,
                    "duration": 0.22471899999999323
                },
                {
                    "name": "B2",
                    "midi": 47,
                    "time": 302.6964929999967,
                    "velocity": 0.33070866141732286,
                    "duration": 0.11235950000002504
                },
                {
                    "name": "B3",
                    "midi": 59,
                    "time": 302.92121199999673,
                    "velocity": 0.28346456692913385,
                    "duration": 1.1235949999999661
                },
                {
                    "name": "D#4",
                    "midi": 63,
                    "time": 302.92121199999673,
                    "velocity": 0.28346456692913385,
                    "duration": 1.1235949999999661
                },
                {
                    "name": "F#3",
                    "midi": 54,
                    "time": 303.1459309999967,
                    "velocity": 0.28346456692913385,
                    "duration": 0.22471899999999323
                },
                {
                    "name": "G#3",
                    "midi": 56,
                    "time": 303.3706499999967,
                    "velocity": 0.2992125984251969,
                    "duration": 0.22471899999999323
                },
                {
                    "name": "F#3",
                    "midi": 54,
                    "time": 303.5953689999967,
                    "velocity": 0.31496062992125984,
                    "duration": 0.22471899999999323
                },
                {
                    "name": "G#3",
                    "midi": 56,
                    "time": 303.8200879999967,
                    "velocity": 0.3543307086614173,
                    "duration": 0.22471899999999323
                },
                {
                    "name": "E3",
                    "midi": 52,
                    "time": 304.0448069999967,
                    "velocity": 0.3858267716535433,
                    "duration": 0.6741569999999797
                },
                {
                    "name": "E4",
                    "midi": 64,
                    "time": 304.2695259999967,
                    "velocity": 0.3464566929133858,
                    "duration": 0.22471899999999323
                },
                {
                    "name": "B3",
                    "midi": 59,
                    "time": 304.2695259999967,
                    "velocity": 0.3464566929133858,
                    "duration": 0.22471899999999323
                },
                {
                    "name": "G#3",
                    "midi": 56,
                    "time": 304.4942449999967,
                    "velocity": 0.3464566929133858,
                    "duration": 0.22471899999999323
                },
                {
                    "name": "B2",
                    "midi": 47,
                    "time": 304.7189639999967,
                    "velocity": 0.4881889763779528,
                    "duration": 0.11235950000002504
                },
                {
                    "name": "E4",
                    "midi": 64,
                    "time": 304.9436829999967,
                    "velocity": 0.5275590551181102,
                    "duration": 0.22471899999999323
                },
                {
                    "name": "B3",
                    "midi": 59,
                    "time": 304.9436829999967,
                    "velocity": 0.5275590551181102,
                    "duration": 0.22471899999999323
                },
                {
                    "name": "G#3",
                    "midi": 56,
                    "time": 305.1684019999967,
                    "velocity": 0.5275590551181102,
                    "duration": 0.22471899999999323
                },
                {
                    "name": "A2",
                    "midi": 45,
                    "time": 305.3931209999967,
                    "velocity": 0.5511811023622047,
                    "duration": 0.22471899999999323
                },
                {
                    "name": "A3",
                    "midi": 57,
                    "time": 305.3931209999967,
                    "velocity": 0.5511811023622047,
                    "duration": 0.22471899999999323
                },
                {
                    "name": "C3",
                    "midi": 48,
                    "time": 305.6178399999967,
                    "velocity": 0.6062992125984252,
                    "duration": 0.44943799999998646
                },
                {
                    "name": "C4",
                    "midi": 60,
                    "time": 305.6178399999967,
                    "velocity": 0.6062992125984252,
                    "duration": 0.44943799999998646
                },
                {
                    "name": "E2",
                    "midi": 40,
                    "time": 306.74143499999667,
                    "velocity": 0.5196850393700787,
                    "duration": 0.6741569999999797
                },
                {
                    "name": "E3",
                    "midi": 52,
                    "time": 306.96615399999666,
                    "velocity": 0.4094488188976378,
                    "duration": 0.22471899999999323
                },
                {
                    "name": "B2",
                    "midi": 47,
                    "time": 307.19087299999666,
                    "velocity": 0.4094488188976378,
                    "duration": 0.22471899999999323
                },
                {
                    "name": "B1",
                    "midi": 35,
                    "time": 307.41559199999665,
                    "velocity": 0.5354330708661418,
                    "duration": 0.1123594999999682
                },
                {
                    "name": "E3",
                    "midi": 52,
                    "time": 307.64031099999664,
                    "velocity": 0.5196850393700787,
                    "duration": 0.22471899999999323
                },
                {
                    "name": "B2",
                    "midi": 47,
                    "time": 307.86502999999664,
                    "velocity": 0.5196850393700787,
                    "duration": 0.22471899999999323
                },
                {
                    "name": "A1",
                    "midi": 33,
                    "time": 308.08974899999663,
                    "velocity": 0.5905511811023622,
                    "duration": 0.22471899999999323
                },
                {
                    "name": "A2",
                    "midi": 45,
                    "time": 308.08974899999663,
                    "velocity": 0.5905511811023622,
                    "duration": 0.22471899999999323
                },
                {
                    "name": "C2",
                    "midi": 36,
                    "time": 308.3144679999966,
                    "velocity": 0.6771653543307087,
                    "duration": 0.44943799999998646
                },
                {
                    "name": "C3",
                    "midi": 48,
                    "time": 308.3144679999966,
                    "velocity": 0.6771653543307087,
                    "duration": 0.44943799999998646
                },
                {
                    "name": "E1",
                    "midi": 28,
                    "time": 309.4380629999966,
                    "velocity": 0.8188976377952756,
                    "duration": 0.22471900000005007
                },
                {
                    "name": "G#4",
                    "midi": 68,
                    "time": 310.78637699999666,
                    "velocity": 0.6299212598425197,
                    "duration": 0.22471899999999323
                },
                {
                    "name": "B3",
                    "midi": 59,
                    "time": 310.78637699999666,
                    "velocity": 0.6299212598425197,
                    "duration": 0.22471899999999323
                },
                {
                    "name": "E3",
                    "midi": 52,
                    "time": 310.78637699999666,
                    "velocity": 0.6299212598425197,
                    "duration": 0.22471899999999323
                },
                {
                    "name": "E1",
                    "midi": 28,
                    "time": 313.48300499999664,
                    "velocity": 0.7559055118110236,
                    "duration": 0.6741569999999797
                },
                {
                    "name": "D2",
                    "midi": 38,
                    "time": 314.8313189999966,
                    "velocity": 0.7716535433070866,
                    "duration": 0.22471899999999323
                },
                {
                    "name": "D1",
                    "midi": 26,
                    "time": 314.8313189999966,
                    "velocity": 0.6535433070866141,
                    "duration": 0.22471899999999323
                },
                {
                    "name": "G#3",
                    "midi": 56,
                    "time": 316.1796329999966,
                    "velocity": 0.6299212598425197,
                    "duration": 0.22471899999999323
                },
                {
                    "name": "F4",
                    "midi": 65,
                    "time": 316.1796329999966,
                    "velocity": 0.6299212598425197,
                    "duration": 0.22471899999999323
                },
                {
                    "name": "B3",
                    "midi": 59,
                    "time": 316.1796329999966,
                    "velocity": 0.6299212598425197,
                    "duration": 0.22471899999999323
                },
                {
                    "name": "D3",
                    "midi": 50,
                    "time": 316.1796329999966,
                    "velocity": 0.5354330708661418,
                    "duration": 0.22471899999999323
                },
                {
                    "name": "D1",
                    "midi": 26,
                    "time": 318.8762609999966,
                    "velocity": 0.7559055118110236,
                    "duration": 1.3483140000000162
                },
                {
                    "name": "C#1",
                    "midi": 25,
                    "time": 320.2245749999966,
                    "velocity": 0.6771653543307087,
                    "duration": 0.22471899999999323
                },
                {
                    "name": "C#2",
                    "midi": 37,
                    "time": 320.2245749999966,
                    "velocity": 0.8031496062992126,
                    "duration": 0.22471899999999323
                },
                {
                    "name": "G#2",
                    "midi": 44,
                    "time": 320.8987319999966,
                    "velocity": 0.6614173228346457,
                    "duration": 0.22471899999999323
                },
                {
                    "name": "G#3",
                    "midi": 56,
                    "time": 320.8987319999966,
                    "velocity": 0.6614173228346457,
                    "duration": 0.22471899999999323
                },
                {
                    "name": "D#3",
                    "midi": 51,
                    "time": 321.1234509999966,
                    "velocity": 0.7086614173228346,
                    "duration": 0.22471899999999323
                },
                {
                    "name": "D#4",
                    "midi": 63,
                    "time": 321.1234509999966,
                    "velocity": 0.7086614173228346,
                    "duration": 0.22471899999999323
                },
                {
                    "name": "C#3",
                    "midi": 49,
                    "time": 321.34816999999657,
                    "velocity": 0.6614173228346457,
                    "duration": 0.22471899999999323
                },
                {
                    "name": "C#4",
                    "midi": 61,
                    "time": 321.34816999999657,
                    "velocity": 0.6614173228346457,
                    "duration": 0.22471899999999323
                },
                {
                    "name": "C#3",
                    "midi": 49,
                    "time": 321.57288899999656,
                    "velocity": 0.7480314960629921,
                    "duration": 0.44943799999998646
                },
                {
                    "name": "C#4",
                    "midi": 61,
                    "time": 321.57288899999656,
                    "velocity": 0.7480314960629921,
                    "duration": 0.44943799999998646
                },
                {
                    "name": "C#2",
                    "midi": 37,
                    "time": 322.24704599999654,
                    "velocity": 0.7086614173228346,
                    "duration": 0.11235950000002504
                },
                {
                    "name": "C#3",
                    "midi": 49,
                    "time": 322.24704599999654,
                    "velocity": 0.7086614173228346,
                    "duration": 0.11235950000002504
                },
                {
                    "name": "C#1",
                    "midi": 25,
                    "time": 322.9212029999966,
                    "velocity": 0.7086614173228346,
                    "duration": 0.22471899999999323
                },
                {
                    "name": "C#2",
                    "midi": 37,
                    "time": 322.9212029999966,
                    "velocity": 0.7086614173228346,
                    "duration": 0.22471899999999323
                },
                {
                    "name": "F#2",
                    "midi": 42,
                    "time": 323.59535999999656,
                    "velocity": 0.6456692913385826,
                    "duration": 0.22471899999999323
                },
                {
                    "name": "F#3",
                    "midi": 54,
                    "time": 323.59535999999656,
                    "velocity": 0.6456692913385826,
                    "duration": 0.22471899999999323
                },
                {
                    "name": "D#3",
                    "midi": 51,
                    "time": 323.82007899999655,
                    "velocity": 0.6850393700787402,
                    "duration": 0.22471899999999323
                },
                {
                    "name": "D#4",
                    "midi": 63,
                    "time": 323.82007899999655,
                    "velocity": 0.6850393700787402,
                    "duration": 0.22471899999999323
                },
                {
                    "name": "C#3",
                    "midi": 49,
                    "time": 324.04479799999655,
                    "velocity": 0.6456692913385826,
                    "duration": 0.22471899999999323
                },
                {
                    "name": "C#4",
                    "midi": 61,
                    "time": 324.04479799999655,
                    "velocity": 0.6456692913385826,
                    "duration": 0.22471899999999323
                },
                {
                    "name": "C#3",
                    "midi": 49,
                    "time": 324.26951699999654,
                    "velocity": 0.7322834645669292,
                    "duration": 0.11235950000002504
                },
                {
                    "name": "C#4",
                    "midi": 61,
                    "time": 324.26951699999654,
                    "velocity": 0.7322834645669292,
                    "duration": 0.11235950000002504
                },
                {
                    "name": "G1",
                    "midi": 31,
                    "time": 324.4942359999966,
                    "velocity": 0.5590551181102362,
                    "duration": 0.22471899999999323
                },
                {
                    "name": "G2",
                    "midi": 43,
                    "time": 324.4942359999966,
                    "velocity": 0.5590551181102362,
                    "duration": 0.22471899999999323
                },
                {
                    "name": "G#1",
                    "midi": 32,
                    "time": 324.7189549999966,
                    "velocity": 0.5590551181102362,
                    "duration": 0.22471899999999323
                },
                {
                    "name": "G#2",
                    "midi": 44,
                    "time": 324.7189549999966,
                    "velocity": 0.5590551181102362,
                    "duration": 0.22471899999999323
                },
                {
                    "name": "G#1",
                    "midi": 32,
                    "time": 324.9436739999966,
                    "velocity": 0.5590551181102362,
                    "duration": 0.22471899999999323
                },
                {
                    "name": "G#2",
                    "midi": 44,
                    "time": 324.9436739999966,
                    "velocity": 0.5590551181102362,
                    "duration": 0.22471899999999323
                },
                {
                    "name": "D#2",
                    "midi": 39,
                    "time": 325.16839299999657,
                    "velocity": 0.5905511811023622,
                    "duration": 0.22471899999999323
                },
                {
                    "name": "D#3",
                    "midi": 51,
                    "time": 325.16839299999657,
                    "velocity": 0.5905511811023622,
                    "duration": 0.22471899999999323
                },
                {
                    "name": "C#2",
                    "midi": 37,
                    "time": 325.39311199999656,
                    "velocity": 0.5826771653543307,
                    "duration": 0.22471899999999323
                },
                {
                    "name": "C#3",
                    "midi": 49,
                    "time": 325.39311199999656,
                    "velocity": 0.5826771653543307,
                    "duration": 0.22471899999999323
                },
                {
                    "name": "D2",
                    "midi": 38,
                    "time": 325.61783099999656,
                    "velocity": 0.7322834645669292,
                    "duration": 0.22471899999999323
                },
                {
                    "name": "D3",
                    "midi": 50,
                    "time": 325.61783099999656,
                    "velocity": 0.7322834645669292,
                    "duration": 0.22471899999999323
                },
                {
                    "name": "A2",
                    "midi": 45,
                    "time": 326.29198799999654,
                    "velocity": 0.6377952755905512,
                    "duration": 0.22471899999999323
                },
                {
                    "name": "A3",
                    "midi": 57,
                    "time": 326.29198799999654,
                    "velocity": 0.6377952755905512,
                    "duration": 0.22471899999999323
                },
                {
                    "name": "E4",
                    "midi": 64,
                    "time": 326.51670699999653,
                    "velocity": 0.6771653543307087,
                    "duration": 0.22471899999999323
                },
                {
                    "name": "E3",
                    "midi": 52,
                    "time": 326.51670699999653,
                    "velocity": 0.6771653543307087,
                    "duration": 0.22471899999999323
                },
                {
                    "name": "D3",
                    "midi": 50,
                    "time": 326.7414259999965,
                    "velocity": 0.6220472440944882,
                    "duration": 0.22471899999999323
                },
                {
                    "name": "D4",
                    "midi": 62,
                    "time": 326.7414259999965,
                    "velocity": 0.6220472440944882,
                    "duration": 0.22471899999999323
                },
                {
                    "name": "D3",
                    "midi": 50,
                    "time": 326.9661449999965,
                    "velocity": 0.7322834645669292,
                    "duration": 0.4494380000000433
                },
                {
                    "name": "D4",
                    "midi": 62,
                    "time": 326.9661449999965,
                    "velocity": 0.7322834645669292,
                    "duration": 0.4494380000000433
                },
                {
                    "name": "D2",
                    "midi": 38,
                    "time": 327.64030199999655,
                    "velocity": 0.7637795275590551,
                    "duration": 0.11235950000002504
                },
                {
                    "name": "D3",
                    "midi": 50,
                    "time": 327.64030199999655,
                    "velocity": 0.7637795275590551,
                    "duration": 0.11235950000002504
                },
                {
                    "name": "D2",
                    "midi": 38,
                    "time": 328.3144589999966,
                    "velocity": 0.7322834645669292,
                    "duration": 0.22471899999999323
                },
                {
                    "name": "D1",
                    "midi": 26,
                    "time": 328.3144589999966,
                    "velocity": 0.6220472440944882,
                    "duration": 0.22471899999999323
                },
                {
                    "name": "G2",
                    "midi": 43,
                    "time": 328.98861599999657,
                    "velocity": 0.6377952755905512,
                    "duration": 0.22471899999999323
                },
                {
                    "name": "G3",
                    "midi": 55,
                    "time": 328.98861599999657,
                    "velocity": 0.6377952755905512,
                    "duration": 0.22471899999999323
                },
                {
                    "name": "E4",
                    "midi": 64,
                    "time": 329.21333499999656,
                    "velocity": 0.6771653543307087,
                    "duration": 0.22471899999999323
                },
                {
                    "name": "E3",
                    "midi": 52,
                    "time": 329.21333499999656,
                    "velocity": 0.6771653543307087,
                    "duration": 0.22471899999999323
                },
                {
                    "name": "D3",
                    "midi": 50,
                    "time": 329.43805399999655,
                    "velocity": 0.6220472440944882,
                    "duration": 0.22471899999999323
                },
                {
                    "name": "D4",
                    "midi": 62,
                    "time": 329.43805399999655,
                    "velocity": 0.6220472440944882,
                    "duration": 0.22471899999999323
                },
                {
                    "name": "D3",
                    "midi": 50,
                    "time": 329.66277299999655,
                    "velocity": 0.6771653543307087,
                    "duration": 0.11235950000002504
                },
                {
                    "name": "D4",
                    "midi": 62,
                    "time": 329.66277299999655,
                    "velocity": 0.6771653543307087,
                    "duration": 0.11235950000002504
                },
                {
                    "name": "C#2",
                    "midi": 37,
                    "time": 329.8874919999966,
                    "velocity": 0.5590551181102362,
                    "duration": 0.22471899999999323
                },
                {
                    "name": "C#3",
                    "midi": 49,
                    "time": 329.8874919999966,
                    "velocity": 0.5590551181102362,
                    "duration": 0.22471899999999323
                },
                {
                    "name": "D2",
                    "midi": 38,
                    "time": 330.1122109999966,
                    "velocity": 0.5590551181102362,
                    "duration": 0.22471899999999323
                },
                {
                    "name": "D3",
                    "midi": 50,
                    "time": 330.1122109999966,
                    "velocity": 0.5590551181102362,
                    "duration": 0.22471899999999323
                },
                {
                    "name": "D2",
                    "midi": 38,
                    "time": 330.3369299999966,
                    "velocity": 0.6062992125984252,
                    "duration": 0.11235950000002504
                },
                {
                    "name": "D3",
                    "midi": 50,
                    "time": 330.3369299999966,
                    "velocity": 0.6062992125984252,
                    "duration": 0.11235950000002504
                },
                {
                    "name": "B1",
                    "midi": 35,
                    "time": 330.56164899999663,
                    "velocity": 0.5511811023622047,
                    "duration": 0.22471899999999323
                },
                {
                    "name": "B2",
                    "midi": 47,
                    "time": 330.56164899999663,
                    "velocity": 0.5511811023622047,
                    "duration": 0.22471899999999323
                },
                {
                    "name": "C2",
                    "midi": 36,
                    "time": 330.7863679999966,
                    "velocity": 0.5590551181102362,
                    "duration": 0.22471899999999323
                },
                {
                    "name": "C3",
                    "midi": 48,
                    "time": 330.7863679999966,
                    "velocity": 0.5590551181102362,
                    "duration": 0.22471899999999323
                },
                {
                    "name": "A#1",
                    "midi": 34,
                    "time": 331.0110869999966,
                    "velocity": 0.6614173228346457,
                    "duration": 0.22471900000005007
                },
                {
                    "name": "A#2",
                    "midi": 46,
                    "time": 331.0110869999966,
                    "velocity": 0.6614173228346457,
                    "duration": 0.22471900000005007
                },
                {
                    "name": "D4",
                    "midi": 62,
                    "time": 331.23580599999667,
                    "velocity": 0.4409448818897638,
                    "duration": 0.22471899999999323
                },
                {
                    "name": "D3",
                    "midi": 50,
                    "time": 331.46052499999666,
                    "velocity": 0.4409448818897638,
                    "duration": 0.22471899999999323
                },
                {
                    "name": "G3",
                    "midi": 55,
                    "time": 331.46052499999666,
                    "velocity": 0.4409448818897638,
                    "duration": 0.22471899999999323
                },
                {
                    "name": "A2",
                    "midi": 45,
                    "time": 331.68524399999666,
                    "velocity": 0.5354330708661418,
                    "duration": 0.22471899999999323
                },
                {
                    "name": "D4",
                    "midi": 62,
                    "time": 331.90996299999665,
                    "velocity": 0.4409448818897638,
                    "duration": 0.22471899999999323
                },
                {
                    "name": "D3",
                    "midi": 50,
                    "time": 332.13468199999664,
                    "velocity": 0.4409448818897638,
                    "duration": 0.22471899999999323
                },
                {
                    "name": "A3",
                    "midi": 57,
                    "time": 332.13468199999664,
                    "velocity": 0.4409448818897638,
                    "duration": 0.22471899999999323
                },
                {
                    "name": "G2",
                    "midi": 43,
                    "time": 332.35940099999664,
                    "velocity": 0.5196850393700787,
                    "duration": 0.2247189999999364
                },
                {
                    "name": "D4",
                    "midi": 62,
                    "time": 332.5841199999966,
                    "velocity": 0.4409448818897638,
                    "duration": 0.22471899999999323
                },
                {
                    "name": "D3",
                    "midi": 50,
                    "time": 332.80883899999657,
                    "velocity": 0.4409448818897638,
                    "duration": 0.22471900000005007
                },
                {
                    "name": "A#3",
                    "midi": 58,
                    "time": 332.80883899999657,
                    "velocity": 0.4409448818897638,
                    "duration": 0.22471900000005007
                },
                {
                    "name": "C3",
                    "midi": 48,
                    "time": 333.0335579999966,
                    "velocity": 0.5118110236220472,
                    "duration": 0.6741569999999797
                },
                {
                    "name": "D4",
                    "midi": 62,
                    "time": 333.2582769999966,
                    "velocity": 0.4409448818897638,
                    "duration": 0.22471899999999323
                },
                {
                    "name": "F#3",
                    "midi": 54,
                    "time": 333.4829959999966,
                    "velocity": 0.4409448818897638,
                    "duration": 0.22471899999999323
                },
                {
                    "name": "A3",
                    "midi": 57,
                    "time": 333.4829959999966,
                    "velocity": 0.4409448818897638,
                    "duration": 0.22471899999999323
                },
                {
                    "name": "A#2",
                    "midi": 46,
                    "time": 333.7077149999966,
                    "velocity": 0.5118110236220472,
                    "duration": 0.22471899999999323
                },
                {
                    "name": "D4",
                    "midi": 62,
                    "time": 333.9324339999966,
                    "velocity": 0.4409448818897638,
                    "duration": 0.22471899999999323
                },
                {
                    "name": "D3",
                    "midi": 50,
                    "time": 334.1571529999966,
                    "velocity": 0.4409448818897638,
                    "duration": 0.22471899999999323
                },
                {
                    "name": "G3",
                    "midi": 55,
                    "time": 334.1571529999966,
                    "velocity": 0.4409448818897638,
                    "duration": 0.22471899999999323
                },
                {
                    "name": "A2",
                    "midi": 45,
                    "time": 334.3818719999966,
                    "velocity": 0.5196850393700787,
                    "duration": 0.22471899999999323
                },
                {
                    "name": "D4",
                    "midi": 62,
                    "time": 334.60659099999657,
                    "velocity": 0.4409448818897638,
                    "duration": 0.22471899999999323
                },
                {
                    "name": "D3",
                    "midi": 50,
                    "time": 334.83130999999656,
                    "velocity": 0.4409448818897638,
                    "duration": 0.22471899999999323
                },
                {
                    "name": "A3",
                    "midi": 57,
                    "time": 334.83130999999656,
                    "velocity": 0.4409448818897638,
                    "duration": 0.22471899999999323
                },
                {
                    "name": "G2",
                    "midi": 43,
                    "time": 335.05602899999656,
                    "velocity": 0.5118110236220472,
                    "duration": 0.22471899999999323
                },
                {
                    "name": "D4",
                    "midi": 62,
                    "time": 335.28074799999655,
                    "velocity": 0.4409448818897638,
                    "duration": 0.22471899999999323
                },
                {
                    "name": "G3",
                    "midi": 55,
                    "time": 335.50546699999654,
                    "velocity": 0.4409448818897638,
                    "duration": 0.22471899999999323
                },
                {
                    "name": "B2",
                    "midi": 47,
                    "time": 335.73018599999654,
                    "velocity": 0.5039370078740157,
                    "duration": 0.22471899999999323
                },
                {
                    "name": "D4",
                    "midi": 62,
                    "time": 335.95490499999653,
                    "velocity": 0.4409448818897638,
                    "duration": 0.22471899999999323
                },
                {
                    "name": "G3",
                    "midi": 55,
                    "time": 336.1796239999965,
                    "velocity": 0.4409448818897638,
                    "duration": 0.22471899999999323
                },
                {
                    "name": "C3",
                    "midi": 48,
                    "time": 336.4043429999965,
                    "velocity": 0.5118110236220472,
                    "duration": 0.22471899999999323
                },
                {
                    "name": "D#4",
                    "midi": 63,
                    "time": 336.6290619999965,
                    "velocity": 0.4409448818897638,
                    "duration": 0.22471899999999323
                },
                {
                    "name": "G3",
                    "midi": 55,
                    "time": 336.8537809999965,
                    "velocity": 0.4409448818897638,
                    "duration": 0.22471899999999323
                },
                {
                    "name": "D3",
                    "midi": 50,
                    "time": 337.0784999999965,
                    "velocity": 0.5118110236220472,
                    "duration": 0.22471899999999323
                },
                {
                    "name": "F4",
                    "midi": 65,
                    "time": 337.3032189999965,
                    "velocity": 0.4251968503937008,
                    "duration": 0.22471899999999323
                },
                {
                    "name": "G3",
                    "midi": 55,
                    "time": 337.5279379999965,
                    "velocity": 0.4251968503937008,
                    "duration": 0.22471899999999323
                },
                {
                    "name": "B3",
                    "midi": 59,
                    "time": 337.5279379999965,
                    "velocity": 0.4251968503937008,
                    "duration": 0.22471899999999323
                },
                {
                    "name": "D#3",
                    "midi": 51,
                    "time": 337.7526569999965,
                    "velocity": 0.5196850393700787,
                    "duration": 0.22471899999999323
                },
                {
                    "name": "G4",
                    "midi": 67,
                    "time": 337.97737599999647,
                    "velocity": 0.4251968503937008,
                    "duration": 0.22471899999999323
                },
                {
                    "name": "G3",
                    "midi": 55,
                    "time": 338.20209499999646,
                    "velocity": 0.4251968503937008,
                    "duration": 0.22471899999999323
                },
                {
                    "name": "C4",
                    "midi": 60,
                    "time": 338.20209499999646,
                    "velocity": 0.4251968503937008,
                    "duration": 0.22471899999999323
                },
                {
                    "name": "F3",
                    "midi": 53,
                    "time": 338.42681399999645,
                    "velocity": 0.5039370078740157,
                    "duration": 0.6741569999999797
                },
                {
                    "name": "G4",
                    "midi": 67,
                    "time": 338.65153299999645,
                    "velocity": 0.4251968503937008,
                    "duration": 0.22471899999999323
                },
                {
                    "name": "G3",
                    "midi": 55,
                    "time": 338.87625199999644,
                    "velocity": 0.4251968503937008,
                    "duration": 0.22471899999999323
                },
                {
                    "name": "B3",
                    "midi": 59,
                    "time": 338.87625199999644,
                    "velocity": 0.4251968503937008,
                    "duration": 0.22471899999999323
                },
                {
                    "name": "D#3",
                    "midi": 51,
                    "time": 339.10097099999643,
                    "velocity": 0.49606299212598426,
                    "duration": 0.6741569999999797
                },
                {
                    "name": "D#4",
                    "midi": 63,
                    "time": 339.3256899999964,
                    "velocity": 0.4094488188976378,
                    "duration": 0.22471899999999323
                },
                {
                    "name": "G3",
                    "midi": 55,
                    "time": 339.5504089999964,
                    "velocity": 0.4094488188976378,
                    "duration": 0.22471899999999323
                },
                {
                    "name": "C4",
                    "midi": 60,
                    "time": 339.5504089999964,
                    "velocity": 0.4094488188976378,
                    "duration": 0.22471899999999323
                },
                {
                    "name": "D3",
                    "midi": 50,
                    "time": 339.7751279999964,
                    "velocity": 0.4566929133858268,
                    "duration": 0.6741569999999797
                },
                {
                    "name": "D4",
                    "midi": 62,
                    "time": 339.9998469999964,
                    "velocity": 0.4015748031496063,
                    "duration": 0.22471899999999323
                },
                {
                    "name": "G3",
                    "midi": 55,
                    "time": 340.2245659999964,
                    "velocity": 0.4015748031496063,
                    "duration": 0.22471899999999323
                },
                {
                    "name": "C3",
                    "midi": 48,
                    "time": 340.4492849999964,
                    "velocity": 0.44881889763779526,
                    "duration": 0.6741569999999797
                },
                {
                    "name": "C4",
                    "midi": 60,
                    "time": 340.6740039999964,
                    "velocity": 0.3858267716535433,
                    "duration": 0.22471899999999323
                },
                {
                    "name": "D#3",
                    "midi": 51,
                    "time": 340.8987229999964,
                    "velocity": 0.3858267716535433,
                    "duration": 0.22471899999999323
                },
                {
                    "name": "G3",
                    "midi": 55,
                    "time": 340.8987229999964,
                    "velocity": 0.3858267716535433,
                    "duration": 0.22471899999999323
                },
                {
                    "name": "A#2",
                    "midi": 46,
                    "time": 341.1234419999964,
                    "velocity": 0.4330708661417323,
                    "duration": 0.6741569999999797
                },
                {
                    "name": "C#4",
                    "midi": 61,
                    "time": 341.34816099999637,
                    "velocity": 0.3937007874015748,
                    "duration": 0.22471899999999323
                },
                {
                    "name": "D#3",
                    "midi": 51,
                    "time": 341.57287999999636,
                    "velocity": 0.3937007874015748,
                    "duration": 0.22471899999999323
                },
                {
                    "name": "G3",
                    "midi": 55,
                    "time": 341.57287999999636,
                    "velocity": 0.3937007874015748,
                    "duration": 0.22471899999999323
                },
                {
                    "name": "G#2",
                    "midi": 44,
                    "time": 341.79759899999635,
                    "velocity": 0.4409448818897638,
                    "duration": 0.22471899999999323
                },
                {
                    "name": "B3",
                    "midi": 59,
                    "time": 342.02231799999635,
                    "velocity": 0.3937007874015748,
                    "duration": 0.22471899999999323
                },
                {
                    "name": "D#3",
                    "midi": 51,
                    "time": 342.24703699999634,
                    "velocity": 0.3937007874015748,
                    "duration": 0.22471899999999323
                },
                {
                    "name": "G#3",
                    "midi": 56,
                    "time": 342.24703699999634,
                    "velocity": 0.3937007874015748,
                    "duration": 0.22471899999999323
                },
                {
                    "name": "G2",
                    "midi": 43,
                    "time": 342.47175599999633,
                    "velocity": 0.44881889763779526,
                    "duration": 0.22471899999999323
                },
                {
                    "name": "D#4",
                    "midi": 63,
                    "time": 342.6964749999963,
                    "velocity": 0.4094488188976378,
                    "duration": 0.22471899999999323
                },
                {
                    "name": "D#3",
                    "midi": 51,
                    "time": 342.9211939999963,
                    "velocity": 0.4094488188976378,
                    "duration": 0.22471899999999323
                },
                {
                    "name": "A#3",
                    "midi": 58,
                    "time": 342.9211939999963,
                    "velocity": 0.4094488188976378,
                    "duration": 0.22471899999999323
                },
                {
                    "name": "G#2",
                    "midi": 44,
                    "time": 343.1459129999963,
                    "velocity": 0.4645669291338583,
                    "duration": 0.22471899999999323
                },
                {
                    "name": "D#4",
                    "midi": 63,
                    "time": 343.3706319999963,
                    "velocity": 0.41732283464566927,
                    "duration": 0.22471899999999323
                },
                {
                    "name": "D#3",
                    "midi": 51,
                    "time": 343.5953509999963,
                    "velocity": 0.41732283464566927,
                    "duration": 0.22471899999999323
                },
                {
                    "name": "G#3",
                    "midi": 56,
                    "time": 343.5953509999963,
                    "velocity": 0.41732283464566927,
                    "duration": 0.22471899999999323
                },
                {
                    "name": "B3",
                    "midi": 59,
                    "time": 343.5953509999963,
                    "velocity": 0.41732283464566927,
                    "duration": 0.22471899999999323
                },
                {
                    "name": "A#2",
                    "midi": 46,
                    "time": 343.8200699999963,
                    "velocity": 0.5039370078740157,
                    "duration": 0.22471899999999323
                },
                {
                    "name": "D#4",
                    "midi": 63,
                    "time": 344.0447889999963,
                    "velocity": 0.4251968503937008,
                    "duration": 0.22471899999999323
                },
                {
                    "name": "D#3",
                    "midi": 51,
                    "time": 344.2695079999963,
                    "velocity": 0.4251968503937008,
                    "duration": 0.22471899999999323
                },
                {
                    "name": "G3",
                    "midi": 55,
                    "time": 344.2695079999963,
                    "velocity": 0.4251968503937008,
                    "duration": 0.22471899999999323
                },
                {
                    "name": "C#4",
                    "midi": 61,
                    "time": 344.2695079999963,
                    "velocity": 0.4251968503937008,
                    "duration": 0.22471899999999323
                },
                {
                    "name": "B2",
                    "midi": 47,
                    "time": 344.4942269999963,
                    "velocity": 0.5196850393700787,
                    "duration": 0.22471899999999323
                },
                {
                    "name": "D#4",
                    "midi": 63,
                    "time": 344.71894599999627,
                    "velocity": 0.44881889763779526,
                    "duration": 0.22471899999999323
                },
                {
                    "name": "D#3",
                    "midi": 51,
                    "time": 344.94366499999626,
                    "velocity": 0.44881889763779526,
                    "duration": 0.22471899999999323
                },
                {
                    "name": "G#3",
                    "midi": 56,
                    "time": 344.94366499999626,
                    "velocity": 0.44881889763779526,
                    "duration": 0.22471899999999323
                },
                {
                    "name": "B3",
                    "midi": 59,
                    "time": 344.94366499999626,
                    "velocity": 0.44881889763779526,
                    "duration": 0.22471899999999323
                },
                {
                    "name": "G2",
                    "midi": 43,
                    "time": 345.16838399999625,
                    "velocity": 0.5354330708661418,
                    "duration": 0.22471899999999323
                },
                {
                    "name": "D#4",
                    "midi": 63,
                    "time": 345.39310299999624,
                    "velocity": 0.47244094488188976,
                    "duration": 0.22471899999999323
                },
                {
                    "name": "D#3",
                    "midi": 51,
                    "time": 345.61782199999624,
                    "velocity": 0.47244094488188976,
                    "duration": 0.22471899999999323
                },
                {
                    "name": "A#3",
                    "midi": 58,
                    "time": 345.61782199999624,
                    "velocity": 0.47244094488188976,
                    "duration": 0.22471899999999323
                },
                {
                    "name": "G#2",
                    "midi": 44,
                    "time": 345.84254099999623,
                    "velocity": 0.5511811023622047,
                    "duration": 0.22471900000005007
                },
                {
                    "name": "D#4",
                    "midi": 63,
                    "time": 346.0672599999963,
                    "velocity": 0.47244094488188976,
                    "duration": 0.22471899999999323
                },
                {
                    "name": "D#3",
                    "midi": 51,
                    "time": 346.2919789999963,
                    "velocity": 0.47244094488188976,
                    "duration": 0.22471900000005007
                },
                {
                    "name": "G#3",
                    "midi": 56,
                    "time": 346.2919789999963,
                    "velocity": 0.47244094488188976,
                    "duration": 0.22471900000005007
                },
                {
                    "name": "B3",
                    "midi": 59,
                    "time": 346.2919789999963,
                    "velocity": 0.47244094488188976,
                    "duration": 0.22471900000005007
                },
                {
                    "name": "A#2",
                    "midi": 46,
                    "time": 346.5166979999963,
                    "velocity": 0.5669291338582677,
                    "duration": 0.22471899999999323
                },
                {
                    "name": "D#4",
                    "midi": 63,
                    "time": 346.7414169999963,
                    "velocity": 0.5275590551181102,
                    "duration": 0.22471899999999323
                },
                {
                    "name": "D#3",
                    "midi": 51,
                    "time": 346.9661359999963,
                    "velocity": 0.5669291338582677,
                    "duration": 0.22471899999999323
                },
                {
                    "name": "G3",
                    "midi": 55,
                    "time": 346.9661359999963,
                    "velocity": 0.5669291338582677,
                    "duration": 0.22471899999999323
                },
                {
                    "name": "C#4",
                    "midi": 61,
                    "time": 346.9661359999963,
                    "velocity": 0.5669291338582677,
                    "duration": 0.22471899999999323
                },
                {
                    "name": "B1",
                    "midi": 35,
                    "time": 347.1908549999963,
                    "velocity": 0.6771653543307087,
                    "duration": 0.11235950000002504
                },
                {
                    "name": "B2",
                    "midi": 47,
                    "time": 347.1908549999963,
                    "velocity": 0.6771653543307087,
                    "duration": 0.11235950000002504
                },
                {
                    "name": "E4",
                    "midi": 64,
                    "time": 347.64029299999635,
                    "velocity": 0.3937007874015748,
                    "duration": 0.22471899999999323
                },
                {
                    "name": "G#3",
                    "midi": 56,
                    "time": 347.64029299999635,
                    "velocity": 0.3937007874015748,
                    "duration": 0.22471899999999323
                },
                {
                    "name": "B4",
                    "midi": 71,
                    "time": 347.86501199999634,
                    "velocity": 0.4881889763779528,
                    "duration": 0.22471899999999323
                },
                {
                    "name": "B3",
                    "midi": 59,
                    "time": 347.86501199999634,
                    "velocity": 0.4881889763779528,
                    "duration": 0.22471899999999323
                },
                {
                    "name": "G#3",
                    "midi": 56,
                    "time": 348.3144499999963,
                    "velocity": 0.4015748031496063,
                    "duration": 0.22471899999999323
                },
                {
                    "name": "E4",
                    "midi": 64,
                    "time": 348.3144499999963,
                    "velocity": 0.4015748031496063,
                    "duration": 0.22471899999999323
                },
                {
                    "name": "B3",
                    "midi": 59,
                    "time": 348.5391689999963,
                    "velocity": 0.48031496062992124,
                    "duration": 0.22471899999999323
                },
                {
                    "name": "B4",
                    "midi": 71,
                    "time": 348.5391689999963,
                    "velocity": 0.48031496062992124,
                    "duration": 0.22471899999999323
                },
                {
                    "name": "B1",
                    "midi": 35,
                    "time": 349.8874829999963,
                    "velocity": 0.31496062992125984,
                    "duration": 0.11235950000002504
                },
                {
                    "name": "B2",
                    "midi": 47,
                    "time": 349.8874829999963,
                    "velocity": 0.31496062992125984,
                    "duration": 0.11235950000002504
                },
                {
                    "name": "D#4",
                    "midi": 63,
                    "time": 350.5616399999963,
                    "velocity": 0.2992125984251969,
                    "duration": 0.22471899999999323
                },
                {
                    "name": "F#4",
                    "midi": 66,
                    "time": 350.5616399999963,
                    "velocity": 0.2992125984251969,
                    "duration": 0.22471899999999323
                },
                {
                    "name": "A3",
                    "midi": 57,
                    "time": 350.5616399999963,
                    "velocity": 0.2992125984251969,
                    "duration": 0.22471899999999323
                },
                {
                    "name": "C4",
                    "midi": 60,
                    "time": 350.5616399999963,
                    "velocity": 0.2992125984251969,
                    "duration": 0.22471899999999323
                },
                {
                    "name": "C4",
                    "midi": 60,
                    "time": 350.7863589999963,
                    "velocity": 0.3464566929133858,
                    "duration": 0.22471899999999323
                },
                {
                    "name": "A3",
                    "midi": 57,
                    "time": 350.7863589999963,
                    "velocity": 0.3464566929133858,
                    "duration": 0.22471899999999323
                },
                {
                    "name": "D#4",
                    "midi": 63,
                    "time": 350.7863589999963,
                    "velocity": 0.3464566929133858,
                    "duration": 0.22471899999999323
                },
                {
                    "name": "G#4",
                    "midi": 68,
                    "time": 350.7863589999963,
                    "velocity": 0.3464566929133858,
                    "duration": 0.22471899999999323
                },
                {
                    "name": "D#4",
                    "midi": 63,
                    "time": 351.0110779999963,
                    "velocity": 0.33070866141732286,
                    "duration": 0.22471899999999323
                },
                {
                    "name": "F#4",
                    "midi": 66,
                    "time": 351.0110779999963,
                    "velocity": 0.33070866141732286,
                    "duration": 0.22471899999999323
                },
                {
                    "name": "A3",
                    "midi": 57,
                    "time": 351.0110779999963,
                    "velocity": 0.33070866141732286,
                    "duration": 0.22471899999999323
                },
                {
                    "name": "C4",
                    "midi": 60,
                    "time": 351.0110779999963,
                    "velocity": 0.33070866141732286,
                    "duration": 0.22471899999999323
                },
                {
                    "name": "F#4",
                    "midi": 66,
                    "time": 351.2357969999963,
                    "velocity": 0.30708661417322836,
                    "duration": 0.11235950000002504
                },
                {
                    "name": "D#4",
                    "midi": 63,
                    "time": 351.2357969999963,
                    "velocity": 0.30708661417322836,
                    "duration": 0.11235950000002504
                },
                {
                    "name": "C4",
                    "midi": 60,
                    "time": 351.2357969999963,
                    "velocity": 0.30708661417322836,
                    "duration": 0.11235950000002504
                },
                {
                    "name": "A3",
                    "midi": 57,
                    "time": 351.2357969999963,
                    "velocity": 0.30708661417322836,
                    "duration": 0.11235950000002504
                },
                {
                    "name": "B1",
                    "midi": 35,
                    "time": 351.90995399999633,
                    "velocity": 0.41732283464566927,
                    "duration": 0.22471899999999323
                },
                {
                    "name": "B2",
                    "midi": 47,
                    "time": 351.90995399999633,
                    "velocity": 0.41732283464566927,
                    "duration": 0.22471899999999323
                },
                {
                    "name": "A2",
                    "midi": 45,
                    "time": 352.1346729999963,
                    "velocity": 0.3858267716535433,
                    "duration": 0.22471899999999323
                },
                {
                    "name": "A1",
                    "midi": 33,
                    "time": 352.1346729999963,
                    "velocity": 0.3858267716535433,
                    "duration": 0.22471899999999323
                },
                {
                    "name": "C2",
                    "midi": 36,
                    "time": 352.3593919999963,
                    "velocity": 0.41732283464566927,
                    "duration": 0.22471899999999323
                },
                {
                    "name": "C3",
                    "midi": 48,
                    "time": 352.3593919999963,
                    "velocity": 0.41732283464566927,
                    "duration": 0.22471899999999323
                },
                {
                    "name": "B1",
                    "midi": 35,
                    "time": 352.5841109999963,
                    "velocity": 0.4094488188976378,
                    "duration": 0.11235950000002504
                },
                {
                    "name": "B2",
                    "midi": 47,
                    "time": 352.5841109999963,
                    "velocity": 0.4094488188976378,
                    "duration": 0.11235950000002504
                },
                {
                    "name": "E4",
                    "midi": 64,
                    "time": 352.80882999999636,
                    "velocity": 0.3543307086614173,
                    "duration": 0.22471899999999323
                },
                {
                    "name": "G#3",
                    "midi": 56,
                    "time": 352.80882999999636,
                    "velocity": 0.3543307086614173,
                    "duration": 0.22471899999999323
                },
                {
                    "name": "E4",
                    "midi": 64,
                    "time": 353.03354899999636,
                    "velocity": 0.3543307086614173,
                    "duration": 0.22471899999999323
                },
                {
                    "name": "G#3",
                    "midi": 56,
                    "time": 353.03354899999636,
                    "velocity": 0.3543307086614173,
                    "duration": 0.22471899999999323
                },
                {
                    "name": "B4",
                    "midi": 71,
                    "time": 353.25826799999635,
                    "velocity": 0.4015748031496063,
                    "duration": 0.33707850000001827
                },
                {
                    "name": "B3",
                    "midi": 59,
                    "time": 353.25826799999635,
                    "velocity": 0.4015748031496063,
                    "duration": 0.33707850000001827
                },
                {
                    "name": "E4",
                    "midi": 64,
                    "time": 353.59534649999637,
                    "velocity": 0.3543307086614173,
                    "duration": 0.11235950000002504
                },
                {
                    "name": "G#3",
                    "midi": 56,
                    "time": 353.59534649999637,
                    "velocity": 0.3543307086614173,
                    "duration": 0.11235950000002504
                },
                {
                    "name": "G#3",
                    "midi": 56,
                    "time": 353.7077059999964,
                    "velocity": 0.3543307086614173,
                    "duration": 0.22471899999999323
                },
                {
                    "name": "E4",
                    "midi": 64,
                    "time": 353.7077059999964,
                    "velocity": 0.3543307086614173,
                    "duration": 0.22471899999999323
                },
                {
                    "name": "B3",
                    "midi": 59,
                    "time": 353.9324249999964,
                    "velocity": 0.4094488188976378,
                    "duration": 0.22471899999999323
                },
                {
                    "name": "B4",
                    "midi": 71,
                    "time": 353.9324249999964,
                    "velocity": 0.4094488188976378,
                    "duration": 0.22471899999999323
                },
                {
                    "name": "D2",
                    "midi": 38,
                    "time": 355.2807389999964,
                    "velocity": 0.31496062992125984,
                    "duration": 0.1123594999999682
                },
                {
                    "name": "D3",
                    "midi": 50,
                    "time": 355.2807389999964,
                    "velocity": 0.31496062992125984,
                    "duration": 0.1123594999999682
                },
                {
                    "name": "F#4",
                    "midi": 66,
                    "time": 355.9548959999964,
                    "velocity": 0.2992125984251969,
                    "duration": 0.22471900000005007
                },
                {
                    "name": "G#4",
                    "midi": 68,
                    "time": 355.9548959999964,
                    "velocity": 0.2992125984251969,
                    "duration": 0.22471900000005007
                },
                {
                    "name": "B3",
                    "midi": 59,
                    "time": 355.9548959999964,
                    "velocity": 0.2992125984251969,
                    "duration": 0.22471900000005007
                },
                {
                    "name": "B3",
                    "midi": 59,
                    "time": 356.17961499999643,
                    "velocity": 0.3464566929133858,
                    "duration": 0.22471899999999323
                },
                {
                    "name": "F#4",
                    "midi": 66,
                    "time": 356.17961499999643,
                    "velocity": 0.3464566929133858,
                    "duration": 0.22471899999999323
                },
                {
                    "name": "A4",
                    "midi": 69,
                    "time": 356.17961499999643,
                    "velocity": 0.3464566929133858,
                    "duration": 0.22471899999999323
                },
                {
                    "name": "F#4",
                    "midi": 66,
                    "time": 356.4043339999964,
                    "velocity": 0.33070866141732286,
                    "duration": 0.22471899999999323
                },
                {
                    "name": "G#4",
                    "midi": 68,
                    "time": 356.4043339999964,
                    "velocity": 0.33070866141732286,
                    "duration": 0.22471899999999323
                },
                {
                    "name": "B3",
                    "midi": 59,
                    "time": 356.4043339999964,
                    "velocity": 0.33070866141732286,
                    "duration": 0.22471899999999323
                },
                {
                    "name": "G#4",
                    "midi": 68,
                    "time": 356.6290529999964,
                    "velocity": 0.30708661417322836,
                    "duration": 0.11235950000002504
                },
                {
                    "name": "F4",
                    "midi": 65,
                    "time": 356.6290529999964,
                    "velocity": 0.30708661417322836,
                    "duration": 0.11235950000002504
                },
                {
                    "name": "B3",
                    "midi": 59,
                    "time": 356.6290529999964,
                    "velocity": 0.30708661417322836,
                    "duration": 0.11235950000002504
                },
                {
                    "name": "D2",
                    "midi": 38,
                    "time": 357.30320999999645,
                    "velocity": 0.41732283464566927,
                    "duration": 0.22471900000005007
                },
                {
                    "name": "D3",
                    "midi": 50,
                    "time": 357.30320999999645,
                    "velocity": 0.41732283464566927,
                    "duration": 0.22471900000005007
                },
                {
                    "name": "C3",
                    "midi": 48,
                    "time": 357.5279289999965,
                    "velocity": 0.41732283464566927,
                    "duration": 0.22471899999999323
                },
                {
                    "name": "C2",
                    "midi": 36,
                    "time": 357.5279289999965,
                    "velocity": 0.41732283464566927,
                    "duration": 0.22471899999999323
                },
                {
                    "name": "C#2",
                    "midi": 37,
                    "time": 357.7526479999965,
                    "velocity": 0.41732283464566927,
                    "duration": 0.22471899999999323
                },
                {
                    "name": "C#3",
                    "midi": 49,
                    "time": 357.7526479999965,
                    "velocity": 0.41732283464566927,
                    "duration": 0.22471899999999323
                },
                {
                    "name": "E2",
                    "midi": 40,
                    "time": 357.9773669999965,
                    "velocity": 0.3700787401574803,
                    "duration": 0.1123594999999682
                },
                {
                    "name": "E3",
                    "midi": 52,
                    "time": 357.9773669999965,
                    "velocity": 0.3700787401574803,
                    "duration": 0.1123594999999682
                },
                {
                    "name": "G#4",
                    "midi": 68,
                    "time": 358.65152399999647,
                    "velocity": 0.3779527559055118,
                    "duration": 0.22471899999999323
                },
                {
                    "name": "A#4",
                    "midi": 70,
                    "time": 358.65152399999647,
                    "velocity": 0.3779527559055118,
                    "duration": 0.22471899999999323
                },
                {
                    "name": "C#4",
                    "midi": 61,
                    "time": 358.65152399999647,
                    "velocity": 0.3779527559055118,
                    "duration": 0.22471899999999323
                },
                {
                    "name": "C#4",
                    "midi": 61,
                    "time": 358.87624299999646,
                    "velocity": 0.41732283464566927,
                    "duration": 0.22471899999999323
                },
                {
                    "name": "G#4",
                    "midi": 68,
                    "time": 358.87624299999646,
                    "velocity": 0.41732283464566927,
                    "duration": 0.22471899999999323
                },
                {
                    "name": "B4",
                    "midi": 71,
                    "time": 358.87624299999646,
                    "velocity": 0.41732283464566927,
                    "duration": 0.22471899999999323
                },
                {
                    "name": "G#4",
                    "midi": 68,
                    "time": 359.10096199999646,
                    "velocity": 0.4015748031496063,
                    "duration": 0.22471899999999323
                },
                {
                    "name": "A#4",
                    "midi": 70,
                    "time": 359.10096199999646,
                    "velocity": 0.4015748031496063,
                    "duration": 0.22471899999999323
                },
                {
                    "name": "C#4",
                    "midi": 61,
                    "time": 359.10096199999646,
                    "velocity": 0.4015748031496063,
                    "duration": 0.22471899999999323
                },
                {
                    "name": "A#4",
                    "midi": 70,
                    "time": 359.32568099999645,
                    "velocity": 0.3858267716535433,
                    "duration": 0.11235950000002504
                },
                {
                    "name": "G4",
                    "midi": 67,
                    "time": 359.32568099999645,
                    "velocity": 0.3858267716535433,
                    "duration": 0.11235950000002504
                },
                {
                    "name": "C#4",
                    "midi": 61,
                    "time": 359.32568099999645,
                    "velocity": 0.3858267716535433,
                    "duration": 0.11235950000002504
                },
                {
                    "name": "E2",
                    "midi": 40,
                    "time": 359.9998379999965,
                    "velocity": 0.4566929133858268,
                    "duration": 0.22471900000005007
                },
                {
                    "name": "E3",
                    "midi": 52,
                    "time": 359.9998379999965,
                    "velocity": 0.4566929133858268,
                    "duration": 0.22471900000005007
                },
                {
                    "name": "D3",
                    "midi": 50,
                    "time": 360.22455699999654,
                    "velocity": 0.4566929133858268,
                    "duration": 0.22471899999999323
                },
                {
                    "name": "D2",
                    "midi": 38,
                    "time": 360.22455699999654,
                    "velocity": 0.4566929133858268,
                    "duration": 0.22471899999999323
                },
                {
                    "name": "D#2",
                    "midi": 39,
                    "time": 360.44927599999653,
                    "velocity": 0.4566929133858268,
                    "duration": 0.22471899999999323
                },
                {
                    "name": "D#3",
                    "midi": 51,
                    "time": 360.44927599999653,
                    "velocity": 0.4566929133858268,
                    "duration": 0.22471899999999323
                },
                {
                    "name": "F#2",
                    "midi": 42,
                    "time": 360.6739949999965,
                    "velocity": 0.4330708661417323,
                    "duration": 0.1123594999999682
                },
                {
                    "name": "F#3",
                    "midi": 54,
                    "time": 360.6739949999965,
                    "velocity": 0.4330708661417323,
                    "duration": 0.1123594999999682
                },
                {
                    "name": "C4",
                    "midi": 60,
                    "time": 361.1234329999965,
                    "velocity": 0.3858267716535433,
                    "duration": 0.22471899999999323
                },
                {
                    "name": "D#4",
                    "midi": 63,
                    "time": 361.1234329999965,
                    "velocity": 0.3858267716535433,
                    "duration": 0.22471899999999323
                },
                {
                    "name": "A4",
                    "midi": 69,
                    "time": 361.1234329999965,
                    "velocity": 0.3858267716535433,
                    "duration": 0.22471899999999323
                },
                {
                    "name": "D#4",
                    "midi": 63,
                    "time": 361.3481519999965,
                    "velocity": 0.4251968503937008,
                    "duration": 0.22471899999999323
                },
                {
                    "name": "A4",
                    "midi": 69,
                    "time": 361.3481519999965,
                    "velocity": 0.4251968503937008,
                    "duration": 0.22471899999999323
                },
                {
                    "name": "D#5",
                    "midi": 75,
                    "time": 361.3481519999965,
                    "velocity": 0.4251968503937008,
                    "duration": 0.22471899999999323
                },
                {
                    "name": "C4",
                    "midi": 60,
                    "time": 361.7975899999965,
                    "velocity": 0.4094488188976378,
                    "duration": 0.22471899999999323
                },
                {
                    "name": "D#4",
                    "midi": 63,
                    "time": 361.7975899999965,
                    "velocity": 0.4094488188976378,
                    "duration": 0.22471899999999323
                },
                {
                    "name": "A4",
                    "midi": 69,
                    "time": 361.7975899999965,
                    "velocity": 0.4094488188976378,
                    "duration": 0.22471899999999323
                },
                {
                    "name": "D#4",
                    "midi": 63,
                    "time": 362.0223089999965,
                    "velocity": 0.4409448818897638,
                    "duration": 0.22471899999999323
                },
                {
                    "name": "A4",
                    "midi": 69,
                    "time": 362.0223089999965,
                    "velocity": 0.4409448818897638,
                    "duration": 0.22471899999999323
                },
                {
                    "name": "D#5",
                    "midi": 75,
                    "time": 362.0223089999965,
                    "velocity": 0.4409448818897638,
                    "duration": 0.22471899999999323
                },
                {
                    "name": "F#3",
                    "midi": 54,
                    "time": 362.47174699999647,
                    "velocity": 0.5511811023622047,
                    "duration": 0.21348304999997936
                },
                {
                    "name": "F#4",
                    "midi": 66,
                    "time": 362.47174699999647,
                    "velocity": 0.5511811023622047,
                    "duration": 0.21348304999997936
                },
                {
                    "name": "F#3",
                    "midi": 54,
                    "time": 362.69646599999646,
                    "velocity": 0.5511811023622047,
                    "duration": 0.21348304999997936
                },
                {
                    "name": "F#4",
                    "midi": 66,
                    "time": 362.69646599999646,
                    "velocity": 0.5511811023622047,
                    "duration": 0.21348304999997936
                },
                {
                    "name": "F#3",
                    "midi": 54,
                    "time": 362.92118499999646,
                    "velocity": 0.5511811023622047,
                    "duration": 0.21348304999997936
                },
                {
                    "name": "F#4",
                    "midi": 66,
                    "time": 362.92118499999646,
                    "velocity": 0.5511811023622047,
                    "duration": 0.21348304999997936
                },
                {
                    "name": "F#3",
                    "midi": 54,
                    "time": 363.14590399999645,
                    "velocity": 0.5511811023622047,
                    "duration": 0.21348304999997936
                },
                {
                    "name": "F#4",
                    "midi": 66,
                    "time": 363.14590399999645,
                    "velocity": 0.5511811023622047,
                    "duration": 0.21348304999997936
                },
                {
                    "name": "F3",
                    "midi": 53,
                    "time": 363.37062299999644,
                    "velocity": 0.5748031496062992,
                    "duration": 0.22471899999999323
                },
                {
                    "name": "C4",
                    "midi": 60,
                    "time": 363.37062299999644,
                    "velocity": 0.5748031496062992,
                    "duration": 0.22471899999999323
                },
                {
                    "name": "D#4",
                    "midi": 63,
                    "time": 363.37062299999644,
                    "velocity": 0.5748031496062992,
                    "duration": 0.22471899999999323
                },
                {
                    "name": "A4",
                    "midi": 69,
                    "time": 363.37062299999644,
                    "velocity": 0.5748031496062992,
                    "duration": 0.22471899999999323
                },
                {
                    "name": "F6",
                    "midi": 89,
                    "time": 364.0447799999964,
                    "velocity": 0.7007874015748031,
                    "duration": 0.11235950000002504
                },
                {
                    "name": "E6",
                    "midi": 88,
                    "time": 364.15713949999645,
                    "velocity": 0.6377952755905512,
                    "duration": 0.11235950000002504
                },
                {
                    "name": "D#6",
                    "midi": 87,
                    "time": 364.2694989999965,
                    "velocity": 0.6220472440944882,
                    "duration": 0.11235950000002504
                },
                {
                    "name": "C6",
                    "midi": 84,
                    "time": 364.3818584999965,
                    "velocity": 0.6141732283464567,
                    "duration": 0.11235950000002504
                },
                {
                    "name": "A5",
                    "midi": 81,
                    "time": 364.4942179999965,
                    "velocity": 0.5984251968503937,
                    "duration": 0.22471899999999323
                },
                {
                    "name": "F4",
                    "midi": 65,
                    "time": 364.9436559999965,
                    "velocity": 0.6929133858267716,
                    "duration": 0.11235950000002504
                },
                {
                    "name": "E4",
                    "midi": 64,
                    "time": 365.05601549999653,
                    "velocity": 0.6377952755905512,
                    "duration": 0.11235950000002504
                },
                {
                    "name": "D#4",
                    "midi": 63,
                    "time": 365.16837499999656,
                    "velocity": 0.6220472440944882,
                    "duration": 0.11235950000002504
                },
                {
                    "name": "C4",
                    "midi": 60,
                    "time": 365.2807344999966,
                    "velocity": 0.6062992125984252,
                    "duration": 0.11235950000002504
                },
                {
                    "name": "A3",
                    "midi": 57,
                    "time": 365.3930939999966,
                    "velocity": 0.5905511811023622,
                    "duration": 0.22471899999999323
                },
                {
                    "name": "F2",
                    "midi": 41,
                    "time": 365.8425319999966,
                    "velocity": 0.9212598425196851,
                    "duration": 0.22471899999999323
                },
                {
                    "name": "A#1",
                    "midi": 34,
                    "time": 366.0672509999966,
                    "velocity": 0.7874015748031497,
                    "duration": 0.22471899999999323
                },
                {
                    "name": "A#2",
                    "midi": 46,
                    "time": 366.0672509999966,
                    "velocity": 0.7874015748031497,
                    "duration": 0.22471899999999323
                },
                {
                    "name": "A#4",
                    "midi": 70,
                    "time": 366.2919699999966,
                    "velocity": 0.4566929133858268,
                    "duration": 0.22471899999999323
                },
                {
                    "name": "A#3",
                    "midi": 58,
                    "time": 366.2919699999966,
                    "velocity": 0.4566929133858268,
                    "duration": 0.22471899999999323
                },
                {
                    "name": "F4",
                    "midi": 65,
                    "time": 366.5166889999966,
                    "velocity": 0.4566929133858268,
                    "duration": 0.22471899999999323
                },
                {
                    "name": "C#4",
                    "midi": 61,
                    "time": 366.5166889999966,
                    "velocity": 0.4566929133858268,
                    "duration": 0.22471899999999323
                },
                {
                    "name": "G#2",
                    "midi": 44,
                    "time": 366.74140799999657,
                    "velocity": 0.6377952755905512,
                    "duration": 0.22471900000005007
                },
                {
                    "name": "G#3",
                    "midi": 56,
                    "time": 366.74140799999657,
                    "velocity": 0.6377952755905512,
                    "duration": 0.22471900000005007
                },
                {
                    "name": "G#4",
                    "midi": 68,
                    "time": 366.9661269999966,
                    "velocity": 0.4566929133858268,
                    "duration": 0.22471899999999323
                },
                {
                    "name": "G#3",
                    "midi": 56,
                    "time": 366.9661269999966,
                    "velocity": 0.4566929133858268,
                    "duration": 0.22471899999999323
                },
                {
                    "name": "F4",
                    "midi": 65,
                    "time": 367.1908459999966,
                    "velocity": 0.4566929133858268,
                    "duration": 0.22471899999999323
                },
                {
                    "name": "C4",
                    "midi": 60,
                    "time": 367.1908459999966,
                    "velocity": 0.4566929133858268,
                    "duration": 0.22471899999999323
                },
                {
                    "name": "F#2",
                    "midi": 42,
                    "time": 367.4155649999966,
                    "velocity": 0.6377952755905512,
                    "duration": 0.22471900000005007
                },
                {
                    "name": "F#3",
                    "midi": 54,
                    "time": 367.4155649999966,
                    "velocity": 0.6377952755905512,
                    "duration": 0.22471900000005007
                },
                {
                    "name": "F#4",
                    "midi": 66,
                    "time": 367.64028399999665,
                    "velocity": 0.4566929133858268,
                    "duration": 0.22471899999999323
                },
                {
                    "name": "F#3",
                    "midi": 54,
                    "time": 367.64028399999665,
                    "velocity": 0.4566929133858268,
                    "duration": 0.22471899999999323
                },
                {
                    "name": "C#4",
                    "midi": 61,
                    "time": 367.86500299999665,
                    "velocity": 0.4566929133858268,
                    "duration": 0.22471899999999323
                },
                {
                    "name": "A#3",
                    "midi": 58,
                    "time": 367.86500299999665,
                    "velocity": 0.4566929133858268,
                    "duration": 0.22471899999999323
                },
                {
                    "name": "F2",
                    "midi": 41,
                    "time": 368.08972199999664,
                    "velocity": 0.6299212598425197,
                    "duration": 0.22471899999999323
                },
                {
                    "name": "F3",
                    "midi": 53,
                    "time": 368.08972199999664,
                    "velocity": 0.6299212598425197,
                    "duration": 0.22471899999999323
                },
                {
                    "name": "F4",
                    "midi": 65,
                    "time": 368.31444099999663,
                    "velocity": 0.4409448818897638,
                    "duration": 0.22471899999999323
                },
                {
                    "name": "F3",
                    "midi": 53,
                    "time": 368.31444099999663,
                    "velocity": 0.4409448818897638,
                    "duration": 0.22471899999999323
                },
                {
                    "name": "C#4",
                    "midi": 61,
                    "time": 368.5391599999966,
                    "velocity": 0.4409448818897638,
                    "duration": 0.22471899999999323
                },
                {
                    "name": "G#3",
                    "midi": 56,
                    "time": 368.5391599999966,
                    "velocity": 0.4409448818897638,
                    "duration": 0.22471899999999323
                },
                {
                    "name": "D#2",
                    "midi": 39,
                    "time": 368.7638789999966,
                    "velocity": 0.6377952755905512,
                    "duration": 0.22471899999999323
                },
                {
                    "name": "D#3",
                    "midi": 51,
                    "time": 368.7638789999966,
                    "velocity": 0.6377952755905512,
                    "duration": 0.22471899999999323
                },
                {
                    "name": "D#4",
                    "midi": 63,
                    "time": 368.9885979999966,
                    "velocity": 0.4409448818897638,
                    "duration": 0.22471899999999323
                },
                {
                    "name": "D#3",
                    "midi": 51,
                    "time": 368.9885979999966,
                    "velocity": 0.4409448818897638,
                    "duration": 0.22471899999999323
                },
                {
                    "name": "A#3",
                    "midi": 58,
                    "time": 369.2133169999966,
                    "velocity": 0.4409448818897638,
                    "duration": 0.22471899999999323
                },
                {
                    "name": "F#3",
                    "midi": 54,
                    "time": 369.2133169999966,
                    "velocity": 0.4409448818897638,
                    "duration": 0.22471899999999323
                },
                {
                    "name": "C#2",
                    "midi": 37,
                    "time": 369.4380359999966,
                    "velocity": 0.6377952755905512,
                    "duration": 0.22471900000005007
                },
                {
                    "name": "C#3",
                    "midi": 49,
                    "time": 369.4380359999966,
                    "velocity": 0.6377952755905512,
                    "duration": 0.22471900000005007
                },
                {
                    "name": "C#4",
                    "midi": 61,
                    "time": 369.66275499999665,
                    "velocity": 0.4881889763779528,
                    "duration": 0.22471899999999323
                },
                {
                    "name": "C#3",
                    "midi": 49,
                    "time": 369.66275499999665,
                    "velocity": 0.4881889763779528,
                    "duration": 0.22471899999999323
                },
                {
                    "name": "F3",
                    "midi": 53,
                    "time": 369.88747399999664,
                    "velocity": 0.48031496062992124,
                    "duration": 0.22471900000005007
                },
                {
                    "name": "A#3",
                    "midi": 58,
                    "time": 369.88747399999664,
                    "velocity": 0.48031496062992124,
                    "duration": 0.22471900000005007
                },
                {
                    "name": "C2",
                    "midi": 36,
                    "time": 370.1121929999967,
                    "velocity": 0.6377952755905512,
                    "duration": 0.22471899999999323
                },
                {
                    "name": "C3",
                    "midi": 48,
                    "time": 370.1121929999967,
                    "velocity": 0.6377952755905512,
                    "duration": 0.22471899999999323
                },
                {
                    "name": "C4",
                    "midi": 60,
                    "time": 370.3369119999967,
                    "velocity": 0.44881889763779526,
                    "duration": 0.22471899999999323
                },
                {
                    "name": "C3",
                    "midi": 48,
                    "time": 370.3369119999967,
                    "velocity": 0.44881889763779526,
                    "duration": 0.22471899999999323
                },
                {
                    "name": "D#3",
                    "midi": 51,
                    "time": 370.5616309999967,
                    "velocity": 0.44881889763779526,
                    "duration": 0.22471899999999323
                },
                {
                    "name": "F#3",
                    "midi": 54,
                    "time": 370.5616309999967,
                    "velocity": 0.44881889763779526,
                    "duration": 0.22471899999999323
                },
                {
                    "name": "A#1",
                    "midi": 34,
                    "time": 370.7863499999967,
                    "velocity": 0.6299212598425197,
                    "duration": 0.22471899999999323
                },
                {
                    "name": "A#2",
                    "midi": 46,
                    "time": 370.7863499999967,
                    "velocity": 0.6299212598425197,
                    "duration": 0.22471899999999323
                },
                {
                    "name": "A#3",
                    "midi": 58,
                    "time": 371.01106899999667,
                    "velocity": 0.4566929133858268,
                    "duration": 0.44943799999998646
                },
                {
                    "name": "A#2",
                    "midi": 46,
                    "time": 371.01106899999667,
                    "velocity": 0.4566929133858268,
                    "duration": 0.44943799999998646
                },
                {
                    "name": "D#3",
                    "midi": 51,
                    "time": 371.23578799999666,
                    "velocity": 0.4566929133858268,
                    "duration": 0.22471899999999323
                },
                {
                    "name": "F#3",
                    "midi": 54,
                    "time": 371.23578799999666,
                    "velocity": 0.4566929133858268,
                    "duration": 0.22471899999999323
                },
                {
                    "name": "C3",
                    "midi": 48,
                    "time": 371.46050699999665,
                    "velocity": 0.5984251968503937,
                    "duration": 0.22471899999999323
                },
                {
                    "name": "A2",
                    "midi": 45,
                    "time": 371.46050699999665,
                    "velocity": 0.5984251968503937,
                    "duration": 0.22471899999999323
                },
                {
                    "name": "F3",
                    "midi": 53,
                    "time": 371.46050699999665,
                    "velocity": 0.5984251968503937,
                    "duration": 0.22471899999999323
                },
                {
                    "name": "A3",
                    "midi": 57,
                    "time": 371.46050699999665,
                    "velocity": 0.5984251968503937,
                    "duration": 0.22471899999999323
                },
                {
                    "name": "E3",
                    "midi": 52,
                    "time": 371.68522599999665,
                    "velocity": 0.5039370078740157,
                    "duration": 0.11235950000002504
                },
                {
                    "name": "F3",
                    "midi": 53,
                    "time": 371.79758549999667,
                    "velocity": 0.48031496062992124,
                    "duration": 0.11235950000002504
                },
                {
                    "name": "G#3",
                    "midi": 56,
                    "time": 371.9099449999967,
                    "velocity": 0.5039370078740157,
                    "duration": 0.09363291666664963
                },
                {
                    "name": "F#3",
                    "midi": 54,
                    "time": 371.98485133333,
                    "velocity": 0.5039370078740157,
                    "duration": 0.09363291666664963
                },
                {
                    "name": "F3",
                    "midi": 53,
                    "time": 372.05975766666336,
                    "velocity": 0.48031496062992124,
                    "duration": 0.0655430416666718
                },
                {
                    "name": "A#1",
                    "midi": 34,
                    "time": 372.1346639999967,
                    "velocity": 0.44881889763779526,
                    "duration": 0.2247189999999364
                },
                {
                    "name": "A#2",
                    "midi": 46,
                    "time": 372.16275387499667,
                    "velocity": 0.44881889763779526,
                    "duration": 0.19662912499995855
                },
                {
                    "name": "D#4",
                    "midi": 63,
                    "time": 372.3593829999966,
                    "velocity": 0.5590551181102362,
                    "duration": 0.22471899999999323
                },
                {
                    "name": "D#3",
                    "midi": 51,
                    "time": 372.3593829999966,
                    "velocity": 0.5590551181102362,
                    "duration": 0.22471899999999323
                },
                {
                    "name": "C#3",
                    "midi": 49,
                    "time": 372.5841019999966,
                    "velocity": 0.5669291338582677,
                    "duration": 0.22471899999999323
                },
                {
                    "name": "C#4",
                    "midi": 61,
                    "time": 372.5841019999966,
                    "velocity": 0.5669291338582677,
                    "duration": 0.22471899999999323
                },
                {
                    "name": "F2",
                    "midi": 41,
                    "time": 372.8088209999966,
                    "velocity": 0.5826771653543307,
                    "duration": 0.22471900000005007
                },
                {
                    "name": "C3",
                    "midi": 48,
                    "time": 372.82286593749666,
                    "velocity": 0.5826771653543307,
                    "duration": 0.2106740625000043
                },
                {
                    "name": "A3",
                    "midi": 57,
                    "time": 372.83691087499665,
                    "velocity": 0.5826771653543307,
                    "duration": 0.1966291250000154
                },
                {
                    "name": "E3",
                    "midi": 52,
                    "time": 373.03353999999666,
                    "velocity": 0.4881889763779528,
                    "duration": 0.11235950000002504
                },
                {
                    "name": "F3",
                    "midi": 53,
                    "time": 373.1458994999967,
                    "velocity": 0.4645669291338583,
                    "duration": 0.11235950000002504
                },
                {
                    "name": "G#3",
                    "midi": 56,
                    "time": 373.2582589999967,
                    "velocity": 0.4881889763779528,
                    "duration": 0.09363291666670648
                },
                {
                    "name": "F#3",
                    "midi": 54,
                    "time": 373.3331653333301,
                    "velocity": 0.4881889763779528,
                    "duration": 0.09363291666664963
                },
                {
                    "name": "F3",
                    "midi": 53,
                    "time": 373.40807166666343,
                    "velocity": 0.4566929133858268,
                    "duration": 0.0655430416666718
                },
                {
                    "name": "A#1",
                    "midi": 34,
                    "time": 373.48297799999676,
                    "velocity": 0.4251968503937008,
                    "duration": 0.22471899999999323
                },
                {
                    "name": "A#2",
                    "midi": 46,
                    "time": 373.51106787499674,
                    "velocity": 0.4251968503937008,
                    "duration": 0.1966291250000154
                },
                {
                    "name": "C4",
                    "midi": 60,
                    "time": 373.70769699999676,
                    "velocity": 0.5433070866141733,
                    "duration": 0.22471899999999323
                },
                {
                    "name": "C3",
                    "midi": 48,
                    "time": 373.70769699999676,
                    "velocity": 0.5433070866141733,
                    "duration": 0.22471899999999323
                },
                {
                    "name": "A#2",
                    "midi": 46,
                    "time": 373.93241599999675,
                    "velocity": 0.5433070866141733,
                    "duration": 0.22471899999999323
                },
                {
                    "name": "A#3",
                    "midi": 58,
                    "time": 373.93241599999675,
                    "velocity": 0.5433070866141733,
                    "duration": 0.22471899999999323
                },
                {
                    "name": "F2",
                    "midi": 41,
                    "time": 374.15713499999674,
                    "velocity": 0.5905511811023622,
                    "duration": 0.2247189999999364
                },
                {
                    "name": "C3",
                    "midi": 48,
                    "time": 374.17117993749673,
                    "velocity": 0.5905511811023622,
                    "duration": 0.21067406249994747
                },
                {
                    "name": "A3",
                    "midi": 57,
                    "time": 374.1852248749967,
                    "velocity": 0.5905511811023622,
                    "duration": 0.19662912499995855
                },
                {
                    "name": "E3",
                    "midi": 52,
                    "time": 374.3818539999967,
                    "velocity": 0.48031496062992124,
                    "duration": 0.11235950000002504
                },
                {
                    "name": "F3",
                    "midi": 53,
                    "time": 374.4942134999967,
                    "velocity": 0.4566929133858268,
                    "duration": 0.11235950000002504
                },
                {
                    "name": "G#3",
                    "midi": 56,
                    "time": 374.60657299999673,
                    "velocity": 0.48031496062992124,
                    "duration": 0.09363291666670648
                },
                {
                    "name": "F#3",
                    "midi": 54,
                    "time": 374.6814793333301,
                    "velocity": 0.48031496062992124,
                    "duration": 0.09363291666664963
                },
                {
                    "name": "F3",
                    "midi": 53,
                    "time": 374.75638566666345,
                    "velocity": 0.44881889763779526,
                    "duration": 0.0655430416666718
                },
                {
                    "name": "A#1",
                    "midi": 34,
                    "time": 374.8312919999968,
                    "velocity": 0.4330708661417323,
                    "duration": 0.22471899999999323
                },
                {
                    "name": "A#2",
                    "midi": 46,
                    "time": 374.85938187499676,
                    "velocity": 0.4330708661417323,
                    "duration": 0.1966291250000154
                },
                {
                    "name": "D#4",
                    "midi": 63,
                    "time": 375.0560109999968,
                    "velocity": 0.5826771653543307,
                    "duration": 0.22471899999999323
                },
                {
                    "name": "D#3",
                    "midi": 51,
                    "time": 375.0560109999968,
                    "velocity": 0.5826771653543307,
                    "duration": 0.22471899999999323
                },
                {
                    "name": "C#3",
                    "midi": 49,
                    "time": 375.28072999999677,
                    "velocity": 0.5748031496062992,
                    "duration": 0.22471900000005007
                },
                {
                    "name": "C#4",
                    "midi": 61,
                    "time": 375.28072999999677,
                    "velocity": 0.5748031496062992,
                    "duration": 0.22471900000005007
                },
                {
                    "name": "F2",
                    "midi": 41,
                    "time": 375.5054489999968,
                    "velocity": 0.5905511811023622,
                    "duration": 0.22471899999999323
                },
                {
                    "name": "C3",
                    "midi": 48,
                    "time": 375.5194939374968,
                    "velocity": 0.5905511811023622,
                    "duration": 0.2106740625000043
                },
                {
                    "name": "A3",
                    "midi": 57,
                    "time": 375.5335388749968,
                    "velocity": 0.5826771653543307,
                    "duration": 0.1966291250000154
                },
                {
                    "name": "E3",
                    "midi": 52,
                    "time": 375.7301679999968,
                    "velocity": 0.5275590551181102,
                    "duration": 0.11235950000002504
                },
                {
                    "name": "F3",
                    "midi": 53,
                    "time": 375.84252749999683,
                    "velocity": 0.49606299212598426,
                    "duration": 0.11235950000002504
                },
                {
                    "name": "G#3",
                    "midi": 56,
                    "time": 375.95488699999686,
                    "velocity": 0.5275590551181102,
                    "duration": 0.09363291666664963
                },
                {
                    "name": "F#3",
                    "midi": 54,
                    "time": 376.0297933333302,
                    "velocity": 0.5275590551181102,
                    "duration": 0.09363291666664963
                },
                {
                    "name": "F3",
                    "midi": 53,
                    "time": 376.1046996666635,
                    "velocity": 0.4881889763779528,
                    "duration": 0.0655430416666718
                },
                {
                    "name": "A#1",
                    "midi": 34,
                    "time": 376.17960599999685,
                    "velocity": 0.47244094488188976,
                    "duration": 0.22471899999999323
                },
                {
                    "name": "A#2",
                    "midi": 46,
                    "time": 376.2076958749969,
                    "velocity": 0.47244094488188976,
                    "duration": 0.19662912499995855
                },
                {
                    "name": "C4",
                    "midi": 60,
                    "time": 376.40432499999685,
                    "velocity": 0.5826771653543307,
                    "duration": 0.22471899999999323
                },
                {
                    "name": "C3",
                    "midi": 48,
                    "time": 376.40432499999685,
                    "velocity": 0.5826771653543307,
                    "duration": 0.22471899999999323
                },
                {
                    "name": "A#2",
                    "midi": 46,
                    "time": 376.62904399999684,
                    "velocity": 0.5826771653543307,
                    "duration": 0.22471900000005007
                },
                {
                    "name": "A#3",
                    "midi": 58,
                    "time": 376.62904399999684,
                    "velocity": 0.5826771653543307,
                    "duration": 0.22471900000005007
                },
                {
                    "name": "F2",
                    "midi": 41,
                    "time": 376.8537629999969,
                    "velocity": 0.5905511811023622,
                    "duration": 0.22471899999999323
                },
                {
                    "name": "C3",
                    "midi": 48,
                    "time": 376.8678079374969,
                    "velocity": 0.5905511811023622,
                    "duration": 0.2106740625000043
                },
                {
                    "name": "A3",
                    "midi": 57,
                    "time": 376.88185287499687,
                    "velocity": 0.5826771653543307,
                    "duration": 0.1966291250000154
                },
                {
                    "name": "E3",
                    "midi": 52,
                    "time": 377.0784819999969,
                    "velocity": 0.49606299212598426,
                    "duration": 0.11235950000002504
                },
                {
                    "name": "F3",
                    "midi": 53,
                    "time": 377.1908414999969,
                    "velocity": 0.47244094488188976,
                    "duration": 0.11235950000002504
                },
                {
                    "name": "G#3",
                    "midi": 56,
                    "time": 377.30320099999693,
                    "velocity": 0.49606299212598426,
                    "duration": 0.09363291666664963
                },
                {
                    "name": "F#3",
                    "midi": 54,
                    "time": 377.37810733333026,
                    "velocity": 0.49606299212598426,
                    "duration": 0.09363291666664963
                },
                {
                    "name": "F3",
                    "midi": 53,
                    "time": 377.4530136666636,
                    "velocity": 0.47244094488188976,
                    "duration": 0.0655430416666718
                },
                {
                    "name": "F3",
                    "midi": 53,
                    "time": 377.5279199999969,
                    "velocity": 0.5826771653543307,
                    "duration": 0.22471900000005007
                },
                {
                    "name": "C#4",
                    "midi": 61,
                    "time": 377.752638999997,
                    "velocity": 0.5590551181102362,
                    "duration": 0.22471899999999323
                },
                {
                    "name": "C4",
                    "midi": 60,
                    "time": 377.97735799999697,
                    "velocity": 0.5748031496062992,
                    "duration": 0.22471899999999323
                },
                {
                    "name": "F2",
                    "midi": 41,
                    "time": 378.20207699999696,
                    "velocity": 0.5984251968503937,
                    "duration": 0.22471899999999323
                },
                {
                    "name": "C3",
                    "midi": 48,
                    "time": 378.21612193749695,
                    "velocity": 0.5984251968503937,
                    "duration": 0.2106740625000043
                },
                {
                    "name": "A3",
                    "midi": 57,
                    "time": 378.23016687499694,
                    "velocity": 0.5984251968503937,
                    "duration": 0.1966291250000154
                },
                {
                    "name": "B2",
                    "midi": 47,
                    "time": 378.42679599999695,
                    "velocity": 0.5275590551181102,
                    "duration": 0.11235950000002504
                },
                {
                    "name": "C3",
                    "midi": 48,
                    "time": 378.539155499997,
                    "velocity": 0.5039370078740157,
                    "duration": 0.11235950000002504
                },
                {
                    "name": "D#3",
                    "midi": 51,
                    "time": 378.651514999997,
                    "velocity": 0.5275590551181102,
                    "duration": 0.09363291666664963
                },
                {
                    "name": "C#3",
                    "midi": 49,
                    "time": 378.72642133333034,
                    "velocity": 0.5275590551181102,
                    "duration": 0.09363291666664963
                },
                {
                    "name": "C3",
                    "midi": 48,
                    "time": 378.80132766666367,
                    "velocity": 0.5039370078740157,
                    "duration": 0.0655430416666718
                },
                {
                    "name": "C2",
                    "midi": 36,
                    "time": 378.876233999997,
                    "velocity": 0.5826771653543307,
                    "duration": 0.22471899999999323
                },
                {
                    "name": "C3",
                    "midi": 48,
                    "time": 378.876233999997,
                    "velocity": 0.5826771653543307,
                    "duration": 0.22471899999999323
                },
                {
                    "name": "A#3",
                    "midi": 58,
                    "time": 379.100952999997,
                    "velocity": 0.5748031496062992,
                    "duration": 0.22471899999999323
                },
                {
                    "name": "A3",
                    "midi": 57,
                    "time": 379.325671999997,
                    "velocity": 0.5511811023622047,
                    "duration": 0.22471900000005007
                },
                {
                    "name": "F2",
                    "midi": 41,
                    "time": 379.55039099999703,
                    "velocity": 0.5433070866141733,
                    "duration": 0.2247189999999364
                },
                {
                    "name": "C3",
                    "midi": 48,
                    "time": 379.564435937497,
                    "velocity": 0.5433070866141733,
                    "duration": 0.21067406249994747
                },
                {
                    "name": "A3",
                    "midi": 57,
                    "time": 379.578480874997,
                    "velocity": 0.5433070866141733,
                    "duration": 0.19662912499995855
                },
                {
                    "name": "E3",
                    "midi": 52,
                    "time": 379.77510999999697,
                    "velocity": 0.5196850393700787,
                    "duration": 0.11235950000002504
                },
                {
                    "name": "F3",
                    "midi": 53,
                    "time": 379.887469499997,
                    "velocity": 0.49606299212598426,
                    "duration": 0.11235950000002504
                },
                {
                    "name": "G#3",
                    "midi": 56,
                    "time": 379.999828999997,
                    "velocity": 0.5196850393700787,
                    "duration": 0.09363291666670648
                },
                {
                    "name": "F#3",
                    "midi": 54,
                    "time": 380.0747353333304,
                    "velocity": 0.5196850393700787,
                    "duration": 0.09363291666664963
                },
                {
                    "name": "F3",
                    "midi": 53,
                    "time": 380.14964166666374,
                    "velocity": 0.49606299212598426,
                    "duration": 0.0655430416666718
                },
                {
                    "name": "F3",
                    "midi": 53,
                    "time": 380.22454799999707,
                    "velocity": 0.5826771653543307,
                    "duration": 0.22471900000005007
                },
                {
                    "name": "C#4",
                    "midi": 61,
                    "time": 380.4492669999971,
                    "velocity": 0.5826771653543307,
                    "duration": 0.22471899999999323
                },
                {
                    "name": "C4",
                    "midi": 60,
                    "time": 380.6739859999971,
                    "velocity": 0.5590551181102362,
                    "duration": 0.22471900000005007
                },
                {
                    "name": "F2",
                    "midi": 41,
                    "time": 380.89870499999716,
                    "velocity": 0.5354330708661418,
                    "duration": 0.22471899999999323
                },
                {
                    "name": "C3",
                    "midi": 48,
                    "time": 380.91274993749715,
                    "velocity": 0.5354330708661418,
                    "duration": 0.2106740625000043
                },
                {
                    "name": "A3",
                    "midi": 57,
                    "time": 380.92679487499714,
                    "velocity": 0.5354330708661418,
                    "duration": 0.1966291250000154
                },
                {
                    "name": "B2",
                    "midi": 47,
                    "time": 381.12342399999716,
                    "velocity": 0.5196850393700787,
                    "duration": 0.11235950000002504
                },
                {
                    "name": "C3",
                    "midi": 48,
                    "time": 381.2357834999972,
                    "velocity": 0.5039370078740157,
                    "duration": 0.11235950000002504
                },
                {
                    "name": "D#3",
                    "midi": 51,
                    "time": 381.3481429999972,
                    "velocity": 0.5196850393700787,
                    "duration": 0.09363291666659279
                },
                {
                    "name": "C#3",
                    "midi": 49,
                    "time": 381.4230493333305,
                    "velocity": 0.5196850393700787,
                    "duration": 0.09363291666664963
                },
                {
                    "name": "C3",
                    "midi": 48,
                    "time": 381.4979556666638,
                    "velocity": 0.49606299212598426,
                    "duration": 0.0655430416666718
                },
                {
                    "name": "C2",
                    "midi": 36,
                    "time": 381.57286199999714,
                    "velocity": 0.5905511811023622,
                    "duration": 0.22471899999999323
                },
                {
                    "name": "C3",
                    "midi": 48,
                    "time": 381.57286199999714,
                    "velocity": 0.5905511811023622,
                    "duration": 0.22471899999999323
                },
                {
                    "name": "A#3",
                    "midi": 58,
                    "time": 381.79758099999714,
                    "velocity": 0.5433070866141733,
                    "duration": 0.22471899999999323
                },
                {
                    "name": "A3",
                    "midi": 57,
                    "time": 382.02229999999713,
                    "velocity": 0.5590551181102362,
                    "duration": 0.2247189999999364
                },
                {
                    "name": "F2",
                    "midi": 41,
                    "time": 382.24701899999707,
                    "velocity": 0.4645669291338583,
                    "duration": 0.22471899999999323
                },
                {
                    "name": "C3",
                    "midi": 48,
                    "time": 382.26106393749706,
                    "velocity": 0.4645669291338583,
                    "duration": 0.2106740625000043
                },
                {
                    "name": "A3",
                    "midi": 57,
                    "time": 382.27510887499704,
                    "velocity": 0.4645669291338583,
                    "duration": 0.1966291250000154
                },
                {
                    "name": "B2",
                    "midi": 47,
                    "time": 382.47173799999706,
                    "velocity": 0.48031496062992124,
                    "duration": 0.11235950000002504
                },
                {
                    "name": "C3",
                    "midi": 48,
                    "time": 382.5840974999971,
                    "velocity": 0.44881889763779526,
                    "duration": 0.11235950000002504
                },
                {
                    "name": "D#3",
                    "midi": 51,
                    "time": 382.6964569999971,
                    "velocity": 0.48031496062992124,
                    "duration": 0.09363291666670648
                },
                {
                    "name": "C#3",
                    "midi": 49,
                    "time": 382.7713633333305,
                    "velocity": 0.48031496062992124,
                    "duration": 0.09363291666664963
                },
                {
                    "name": "C3",
                    "midi": 48,
                    "time": 382.84626966666383,
                    "velocity": 0.44881889763779526,
                    "duration": 0.0655430416666718
                },
                {
                    "name": "C2",
                    "midi": 36,
                    "time": 382.92117599999716,
                    "velocity": 0.5433070866141733,
                    "duration": 0.22471899999999323
                },
                {
                    "name": "C3",
                    "midi": 48,
                    "time": 382.92117599999716,
                    "velocity": 0.5433070866141733,
                    "duration": 0.22471899999999323
                },
                {
                    "name": "A#3",
                    "midi": 58,
                    "time": 383.14589499999715,
                    "velocity": 0.5275590551181102,
                    "duration": 0.22471899999999323
                },
                {
                    "name": "A3",
                    "midi": 57,
                    "time": 383.37061399999715,
                    "velocity": 0.5118110236220472,
                    "duration": 0.22471899999999323
                },
                {
                    "name": "F2",
                    "midi": 41,
                    "time": 383.59533299999714,
                    "velocity": 0.4881889763779528,
                    "duration": 0.2247189999999364
                },
                {
                    "name": "C3",
                    "midi": 48,
                    "time": 383.60937793749713,
                    "velocity": 0.4881889763779528,
                    "duration": 0.21067406249994747
                },
                {
                    "name": "A3",
                    "midi": 57,
                    "time": 383.6234228749971,
                    "velocity": 0.4881889763779528,
                    "duration": 0.19662912499995855
                },
                {
                    "name": "B2",
                    "midi": 47,
                    "time": 383.8200519999971,
                    "velocity": 0.4409448818897638,
                    "duration": 0.11235950000002504
                },
                {
                    "name": "C3",
                    "midi": 48,
                    "time": 383.9324114999971,
                    "velocity": 0.41732283464566927,
                    "duration": 0.11235950000002504
                },
                {
                    "name": "D#3",
                    "midi": 51,
                    "time": 384.0447709999971,
                    "velocity": 0.44881889763779526,
                    "duration": 0.09363291666659279
                },
                {
                    "name": "C#3",
                    "midi": 49,
                    "time": 384.1196773333304,
                    "velocity": 0.44881889763779526,
                    "duration": 0.09363291666664963
                },
                {
                    "name": "C3",
                    "midi": 48,
                    "time": 384.19458366666373,
                    "velocity": 0.4251968503937008,
                    "duration": 0.0655430416666718
                },
                {
                    "name": "C2",
                    "midi": 36,
                    "time": 384.26948999999706,
                    "velocity": 0.5118110236220472,
                    "duration": 0.22471900000005007
                },
                {
                    "name": "C3",
                    "midi": 48,
                    "time": 384.26948999999706,
                    "velocity": 0.5118110236220472,
                    "duration": 0.22471900000005007
                },
                {
                    "name": "A#3",
                    "midi": 58,
                    "time": 384.4942089999971,
                    "velocity": 0.47244094488188976,
                    "duration": 0.22471899999999323
                },
                {
                    "name": "A3",
                    "midi": 57,
                    "time": 384.7189279999971,
                    "velocity": 0.47244094488188976,
                    "duration": 0.22471899999999323
                },
                {
                    "name": "F2",
                    "midi": 41,
                    "time": 384.9436469999971,
                    "velocity": 0.4409448818897638,
                    "duration": 0.22471899999999323
                },
                {
                    "name": "C3",
                    "midi": 48,
                    "time": 384.9576919374971,
                    "velocity": 0.4409448818897638,
                    "duration": 0.2106740625000043
                },
                {
                    "name": "F3",
                    "midi": 53,
                    "time": 384.9717368749971,
                    "velocity": 0.4409448818897638,
                    "duration": 0.1966291250000154
                },
                {
                    "name": "B1",
                    "midi": 35,
                    "time": 385.1683659999971,
                    "velocity": 0.3779527559055118,
                    "duration": 0.14044937500000287
                },
                {
                    "name": "C2",
                    "midi": 36,
                    "time": 385.2807254999971,
                    "velocity": 0.3464566929133858,
                    "duration": 0.14044937499994603
                },
                {
                    "name": "D#2",
                    "midi": 39,
                    "time": 385.3930849999971,
                    "velocity": 0.3779527559055118,
                    "duration": 0.09363291666664963
                },
                {
                    "name": "C#2",
                    "midi": 37,
                    "time": 385.4679913333304,
                    "velocity": 0.3779527559055118,
                    "duration": 0.09363291666664963
                },
                {
                    "name": "C2",
                    "midi": 36,
                    "time": 385.54289766666375,
                    "velocity": 0.3543307086614173,
                    "duration": 0.0655430416666718
                },
                {
                    "name": "C2",
                    "midi": 36,
                    "time": 385.6178039999971,
                    "velocity": 0.4330708661417323,
                    "duration": 0.22471899999999323
                },
                {
                    "name": "A#2",
                    "midi": 46,
                    "time": 385.8425229999971,
                    "velocity": 0.4330708661417323,
                    "duration": 0.11235950000002504
                },
                {
                    "name": "A2",
                    "midi": 45,
                    "time": 386.0672419999971,
                    "velocity": 0.41732283464566927,
                    "duration": 0.11235950000002504
                },
                {
                    "name": "F2",
                    "midi": 41,
                    "time": 386.2919609999972,
                    "velocity": 0.4409448818897638,
                    "duration": 0.22471899999999323
                },
                {
                    "name": "B1",
                    "midi": 35,
                    "time": 386.51667999999717,
                    "velocity": 0.33858267716535434,
                    "duration": 0.14044937500000287
                },
                {
                    "name": "C2",
                    "midi": 36,
                    "time": 386.6290394999972,
                    "velocity": 0.31496062992125984,
                    "duration": 0.14044937499994603
                },
                {
                    "name": "D#2",
                    "midi": 39,
                    "time": 386.74139899999716,
                    "velocity": 0.33858267716535434,
                    "duration": 0.09363291666664963
                },
                {
                    "name": "C#2",
                    "midi": 37,
                    "time": 386.8163053333305,
                    "velocity": 0.33858267716535434,
                    "duration": 0.09363291666664963
                },
                {
                    "name": "C2",
                    "midi": 36,
                    "time": 386.8912116666638,
                    "velocity": 0.31496062992125984,
                    "duration": 0.0655430416666718
                },
                {
                    "name": "C2",
                    "midi": 36,
                    "time": 386.96611799999715,
                    "velocity": 0.36220472440944884,
                    "duration": 0.22471899999999323
                },
                {
                    "name": "A#2",
                    "midi": 46,
                    "time": 387.19083699999715,
                    "velocity": 0.3858267716535433,
                    "duration": 0.11235950000002504
                },
                {
                    "name": "A2",
                    "midi": 45,
                    "time": 387.4155559999972,
                    "velocity": 0.3858267716535433,
                    "duration": 0.11235950000002504
                },
                {
                    "name": "F2",
                    "midi": 41,
                    "time": 387.64027499999725,
                    "velocity": 0.4094488188976378,
                    "duration": 0.22471899999999323
                },
                {
                    "name": "B1",
                    "midi": 35,
                    "time": 389.21330799999726,
                    "velocity": 0.3464566929133858,
                    "duration": 0.14044937500000287
                },
                {
                    "name": "C2",
                    "midi": 36,
                    "time": 389.3256674999973,
                    "velocity": 0.3228346456692913,
                    "duration": 0.14044937499994603
                },
                {
                    "name": "D#2",
                    "midi": 39,
                    "time": 389.43802699999725,
                    "velocity": 0.3464566929133858,
                    "duration": 0.09363291666664963
                },
                {
                    "name": "C#2",
                    "midi": 37,
                    "time": 389.5129333333306,
                    "velocity": 0.3464566929133858,
                    "duration": 0.09363291666664963
                },
                {
                    "name": "C2",
                    "midi": 36,
                    "time": 389.5878396666639,
                    "velocity": 0.3228346456692913,
                    "duration": 0.0655430416666718
                },
                {
                    "name": "C2",
                    "midi": 36,
                    "time": 389.66274599999724,
                    "velocity": 0.4094488188976378,
                    "duration": 0.11235950000002504
                },
                {
                    "name": "A#2",
                    "midi": 46,
                    "time": 389.8874649999973,
                    "velocity": 0.3858267716535433,
                    "duration": 0.11235950000002504
                },
                {
                    "name": "A2",
                    "midi": 45,
                    "time": 390.11218399999734,
                    "velocity": 0.36220472440944884,
                    "duration": 0.11235950000002504
                },
                {
                    "name": "F2",
                    "midi": 41,
                    "time": 390.3369029999974,
                    "velocity": 0.4094488188976378,
                    "duration": 0.22471899999999323
                },
                {
                    "name": "A#1",
                    "midi": 34,
                    "time": 391.23577899999736,
                    "velocity": 0.33858267716535434,
                    "duration": 0.22471899999999323
                },
                {
                    "name": "A1",
                    "midi": 33,
                    "time": 391.46049799999736,
                    "velocity": 0.33858267716535434,
                    "duration": 0.22471899999999323
                },
                {
                    "name": "F1",
                    "midi": 29,
                    "time": 391.68521699999735,
                    "velocity": 0.33858267716535434,
                    "duration": 0.6741569999999797
                },
                {
                    "name": "A2",
                    "midi": 45,
                    "time": 393.4829689999973,
                    "velocity": 0.2125984251968504,
                    "duration": 0.07490633333333108
                },
                {
                    "name": "A#2",
                    "midi": 46,
                    "time": 393.5578753333306,
                    "velocity": 0.2204724409448819,
                    "duration": 0.07490633333333108
                },
                {
                    "name": "C#3",
                    "midi": 49,
                    "time": 393.63278166666396,
                    "velocity": 0.2283464566929134,
                    "duration": 0.07490633333333108
                },
                {
                    "name": "F3",
                    "midi": 53,
                    "time": 393.7076879999973,
                    "velocity": 0.25984251968503935,
                    "duration": 0.11235950000002504
                },
                {
                    "name": "A2",
                    "midi": 45,
                    "time": 394.15712599999733,
                    "velocity": 0.2047244094488189,
                    "duration": 0.07490633333333108
                },
                {
                    "name": "A#2",
                    "midi": 46,
                    "time": 394.23203233333066,
                    "velocity": 0.2125984251968504,
                    "duration": 0.07490633333333108
                },
                {
                    "name": "C#3",
                    "midi": 49,
                    "time": 394.306938666664,
                    "velocity": 0.2283464566929134,
                    "duration": 0.07490633333333108
                },
                {
                    "name": "F3",
                    "midi": 53,
                    "time": 394.3818449999973,
                    "velocity": 0.2992125984251969,
                    "duration": 1.3483140000000162
                },
                {
                    "name": "A#1",
                    "midi": 34,
                    "time": 395.73015899999734,
                    "velocity": 0.7480314960629921,
                    "duration": 0.11235950000002504
                },
                {
                    "name": "A#2",
                    "midi": 46,
                    "time": 395.73015899999734,
                    "velocity": 0.7480314960629921,
                    "duration": 0.11235950000002504
                },
                {
                    "name": "A#3",
                    "midi": 58,
                    "time": 396.4043159999974,
                    "velocity": 0.5669291338582677,
                    "duration": 1.3483140000000162
                },
                {
                    "name": "C4",
                    "midi": 60,
                    "time": 396.4043159999974,
                    "velocity": 0.5669291338582677,
                    "duration": 1.3483140000000162
                },
                {
                    "name": "D#4",
                    "midi": 63,
                    "time": 396.4043159999974,
                    "velocity": 0.6692913385826772,
                    "duration": 1.3483140000000162
                },
                {
                    "name": "F#4",
                    "midi": 66,
                    "time": 396.4043159999974,
                    "velocity": 0.6692913385826772,
                    "duration": 1.3483140000000162
                },
                {
                    "name": "A#4",
                    "midi": 70,
                    "time": 396.4043159999974,
                    "velocity": 0.6692913385826772,
                    "duration": 1.3483140000000162
                },
                {
                    "name": "A#3",
                    "midi": 58,
                    "time": 397.7526299999974,
                    "velocity": 0.3700787401574803,
                    "duration": 0.33707850000001827
                },
                {
                    "name": "C4",
                    "midi": 60,
                    "time": 397.7526299999974,
                    "velocity": 0.3700787401574803,
                    "duration": 0.33707850000001827
                },
                {
                    "name": "D#4",
                    "midi": 63,
                    "time": 397.7526299999974,
                    "velocity": 0.4409448818897638,
                    "duration": 0.33707850000001827
                },
                {
                    "name": "F#4",
                    "midi": 66,
                    "time": 397.7526299999974,
                    "velocity": 0.4409448818897638,
                    "duration": 0.33707850000001827
                },
                {
                    "name": "A#4",
                    "midi": 70,
                    "time": 397.7526299999974,
                    "velocity": 0.4409448818897638,
                    "duration": 0.33707850000001827
                },
                {
                    "name": "A#3",
                    "midi": 58,
                    "time": 398.0897084999974,
                    "velocity": 0.4015748031496063,
                    "duration": 0.11235950000002504
                },
                {
                    "name": "C4",
                    "midi": 60,
                    "time": 398.0897084999974,
                    "velocity": 0.4015748031496063,
                    "duration": 0.11235950000002504
                },
                {
                    "name": "D#4",
                    "midi": 63,
                    "time": 398.0897084999974,
                    "velocity": 0.48031496062992124,
                    "duration": 0.11235950000002504
                },
                {
                    "name": "F#4",
                    "midi": 66,
                    "time": 398.0897084999974,
                    "velocity": 0.48031496062992124,
                    "duration": 0.11235950000002504
                },
                {
                    "name": "A#4",
                    "midi": 70,
                    "time": 398.0897084999974,
                    "velocity": 0.48031496062992124,
                    "duration": 0.11235950000002504
                },
                {
                    "name": "A#3",
                    "midi": 58,
                    "time": 398.20206799999744,
                    "velocity": 0.4409448818897638,
                    "duration": 0.22471899999999323
                },
                {
                    "name": "C4",
                    "midi": 60,
                    "time": 398.20206799999744,
                    "velocity": 0.4409448818897638,
                    "duration": 0.22471899999999323
                },
                {
                    "name": "D#4",
                    "midi": 63,
                    "time": 398.20206799999744,
                    "velocity": 0.5196850393700787,
                    "duration": 0.22471899999999323
                },
                {
                    "name": "F#4",
                    "midi": 66,
                    "time": 398.20206799999744,
                    "velocity": 0.5196850393700787,
                    "duration": 0.22471899999999323
                },
                {
                    "name": "A#4",
                    "midi": 70,
                    "time": 398.20206799999744,
                    "velocity": 0.5196850393700787,
                    "duration": 0.22471899999999323
                },
                {
                    "name": "A#3",
                    "midi": 58,
                    "time": 398.42678699999743,
                    "velocity": 0.4094488188976378,
                    "duration": 0.22471899999999323
                },
                {
                    "name": "C#4",
                    "midi": 61,
                    "time": 398.42678699999743,
                    "velocity": 0.4094488188976378,
                    "duration": 0.22471899999999323
                },
                {
                    "name": "F4",
                    "midi": 65,
                    "time": 398.42678699999743,
                    "velocity": 0.4881889763779528,
                    "duration": 0.22471899999999323
                },
                {
                    "name": "A#4",
                    "midi": 70,
                    "time": 398.42678699999743,
                    "velocity": 0.4881889763779528,
                    "duration": 0.22471899999999323
                },
                {
                    "name": "A2",
                    "midi": 45,
                    "time": 398.8762249999974,
                    "velocity": 0.2125984251968504,
                    "duration": 0.07490633333333108
                },
                {
                    "name": "A#2",
                    "midi": 46,
                    "time": 398.95113133333075,
                    "velocity": 0.2204724409448819,
                    "duration": 0.07490633333333108
                },
                {
                    "name": "C#3",
                    "midi": 49,
                    "time": 399.0260376666641,
                    "velocity": 0.23622047244094488,
                    "duration": 0.07490633333333108
                },
                {
                    "name": "F3",
                    "midi": 53,
                    "time": 399.1009439999974,
                    "velocity": 0.25984251968503935,
                    "duration": 0.11235950000002504
                },
                {
                    "name": "A2",
                    "midi": 45,
                    "time": 399.55038199999746,
                    "velocity": 0.2047244094488189,
                    "duration": 0.07490633333333108
                },
                {
                    "name": "A#2",
                    "midi": 46,
                    "time": 399.6252883333308,
                    "velocity": 0.2204724409448819,
                    "duration": 0.07490633333333108
                },
                {
                    "name": "C#3",
                    "midi": 49,
                    "time": 399.7001946666641,
                    "velocity": 0.23622047244094488,
                    "duration": 0.07490633333333108
                },
                {
                    "name": "F3",
                    "midi": 53,
                    "time": 399.77510099999745,
                    "velocity": 0.29133858267716534,
                    "duration": 1.3483140000000162
                },
                {
                    "name": "G#1",
                    "midi": 32,
                    "time": 401.12341499999746,
                    "velocity": 0.7480314960629921,
                    "duration": 0.11235950000002504
                },
                {
                    "name": "G#2",
                    "midi": 44,
                    "time": 401.12341499999746,
                    "velocity": 0.7480314960629921,
                    "duration": 0.11235950000002504
                },
                {
                    "name": "G#3",
                    "midi": 56,
                    "time": 401.7413922499975,
                    "velocity": 0.5905511811023622,
                    "duration": 1.404493749999972
                },
                {
                    "name": "F4",
                    "midi": 65,
                    "time": 401.76948212499747,
                    "velocity": 0.7007874015748031,
                    "duration": 1.376403874999994
                },
                {
                    "name": "C#5",
                    "midi": 73,
                    "time": 401.79757199999744,
                    "velocity": 0.7007874015748031,
                    "duration": 1.3483140000000162
                },
                {
                    "name": "G#3",
                    "midi": 56,
                    "time": 403.14588599999746,
                    "velocity": 0.3858267716535433,
                    "duration": 0.33707850000001827
                },
                {
                    "name": "D#4",
                    "midi": 63,
                    "time": 403.14588599999746,
                    "velocity": 0.4566929133858268,
                    "duration": 0.33707850000001827
                },
                {
                    "name": "F#4",
                    "midi": 66,
                    "time": 403.14588599999746,
                    "velocity": 0.4566929133858268,
                    "duration": 0.33707850000001827
                },
                {
                    "name": "G#4",
                    "midi": 68,
                    "time": 403.14588599999746,
                    "velocity": 0.4566929133858268,
                    "duration": 0.33707850000001827
                },
                {
                    "name": "G#3",
                    "midi": 56,
                    "time": 403.4829644999975,
                    "velocity": 0.41732283464566927,
                    "duration": 0.11235950000002504
                },
                {
                    "name": "D#4",
                    "midi": 63,
                    "time": 403.4829644999975,
                    "velocity": 0.49606299212598426,
                    "duration": 0.11235950000002504
                },
                {
                    "name": "F#4",
                    "midi": 66,
                    "time": 403.4829644999975,
                    "velocity": 0.49606299212598426,
                    "duration": 0.11235950000002504
                },
                {
                    "name": "G#4",
                    "midi": 68,
                    "time": 403.4829644999975,
                    "velocity": 0.49606299212598426,
                    "duration": 0.11235950000002504
                },
                {
                    "name": "G#3",
                    "midi": 56,
                    "time": 403.5953239999975,
                    "velocity": 0.44881889763779526,
                    "duration": 0.22471899999999323
                },
                {
                    "name": "D#4",
                    "midi": 63,
                    "time": 403.5953239999975,
                    "velocity": 0.5354330708661418,
                    "duration": 0.22471899999999323
                },
                {
                    "name": "F#4",
                    "midi": 66,
                    "time": 403.5953239999975,
                    "velocity": 0.5354330708661418,
                    "duration": 0.22471899999999323
                },
                {
                    "name": "G#4",
                    "midi": 68,
                    "time": 403.5953239999975,
                    "velocity": 0.5354330708661418,
                    "duration": 0.22471899999999323
                },
                {
                    "name": "G#4",
                    "midi": 68,
                    "time": 403.8200429999975,
                    "velocity": 0.5118110236220472,
                    "duration": 0.22471899999999323
                },
                {
                    "name": "C#4",
                    "midi": 61,
                    "time": 403.8200429999975,
                    "velocity": 0.4330708661417323,
                    "duration": 0.22471899999999323
                },
                {
                    "name": "F4",
                    "midi": 65,
                    "time": 403.8200429999975,
                    "velocity": 0.5118110236220472,
                    "duration": 0.22471899999999323
                },
                {
                    "name": "F4",
                    "midi": 65,
                    "time": 404.4941999999975,
                    "velocity": 0.6062992125984252,
                    "duration": 0.44943799999998646
                },
                {
                    "name": "C4",
                    "midi": 60,
                    "time": 404.4941999999975,
                    "velocity": 0.6062992125984252,
                    "duration": 0.44943799999998646
                },
                {
                    "name": "F3",
                    "midi": 53,
                    "time": 404.4941999999975,
                    "velocity": 0.5118110236220472,
                    "duration": 0.44943799999998646
                },
                {
                    "name": "F2",
                    "midi": 41,
                    "time": 405.16835699999746,
                    "velocity": 0.5118110236220472,
                    "duration": 0.44943799999998646
                },
                {
                    "name": "C3",
                    "midi": 48,
                    "time": 405.16835699999746,
                    "velocity": 0.6062992125984252,
                    "duration": 0.44943799999998646
                },
                {
                    "name": "F3",
                    "midi": 53,
                    "time": 405.16835699999746,
                    "velocity": 0.6062992125984252,
                    "duration": 0.44943799999998646
                },
                {
                    "name": "F1",
                    "midi": 29,
                    "time": 405.84251399999744,
                    "velocity": 0.6220472440944882,
                    "duration": 1.5730330000000095
                },
                {
                    "name": "F2",
                    "midi": 41,
                    "time": 405.84251399999744,
                    "velocity": 0.7401574803149606,
                    "duration": 1.5730330000000095
                },
                {
                    "name": "F#1",
                    "midi": 30,
                    "time": 407.41554699999745,
                    "velocity": 0.6456692913385826,
                    "duration": 0.1685392499999807
                },
                {
                    "name": "F#2",
                    "midi": 42,
                    "time": 407.41554699999745,
                    "velocity": 0.7637795275590551,
                    "duration": 0.1685392499999807
                },
                {
                    "name": "A2",
                    "midi": 45,
                    "time": 409.66273699999743,
                    "velocity": 0.2125984251968504,
                    "duration": 0.07490633333333108
                },
                {
                    "name": "A#2",
                    "midi": 46,
                    "time": 409.73764333333077,
                    "velocity": 0.2204724409448819,
                    "duration": 0.07490633333333108
                },
                {
                    "name": "C#3",
                    "midi": 49,
                    "time": 409.8125496666641,
                    "velocity": 0.2283464566929134,
                    "duration": 0.07490633333333108
                },
                {
                    "name": "F3",
                    "midi": 53,
                    "time": 409.8874559999974,
                    "velocity": 0.25984251968503935,
                    "duration": 0.11235950000002504
                },
                {
                    "name": "A2",
                    "midi": 45,
                    "time": 410.33689399999747,
                    "velocity": 0.2125984251968504,
                    "duration": 0.07490633333333108
                },
                {
                    "name": "A#2",
                    "midi": 46,
                    "time": 410.4118003333308,
                    "velocity": 0.2204724409448819,
                    "duration": 0.07490633333333108
                },
                {
                    "name": "C#3",
                    "midi": 49,
                    "time": 410.48670666666413,
                    "velocity": 0.2283464566929134,
                    "duration": 0.07490633333333108
                },
                {
                    "name": "F3",
                    "midi": 53,
                    "time": 410.56161299999746,
                    "velocity": 0.29133858267716534,
                    "duration": 1.3483140000000162
                },
                {
                    "name": "A#2",
                    "midi": 46,
                    "time": 411.9099269999975,
                    "velocity": 0.7480314960629921,
                    "duration": 0.11235950000002504
                },
                {
                    "name": "A#1",
                    "midi": 34,
                    "time": 411.9099269999975,
                    "velocity": 0.7480314960629921,
                    "duration": 0.11235950000002504
                },
                {
                    "name": "D#4",
                    "midi": 63,
                    "time": 412.5840839999975,
                    "velocity": 0.6692913385826772,
                    "duration": 1.011235499999998
                },
                {
                    "name": "A#3",
                    "midi": 58,
                    "time": 412.5840839999975,
                    "velocity": 0.5669291338582677,
                    "duration": 1.011235499999998
                },
                {
                    "name": "C4",
                    "midi": 60,
                    "time": 412.5840839999975,
                    "velocity": 0.5669291338582677,
                    "duration": 1.011235499999998
                },
                {
                    "name": "A#4",
                    "midi": 70,
                    "time": 412.5840839999975,
                    "velocity": 0.6692913385826772,
                    "duration": 1.011235499999998
                },
                {
                    "name": "F#4",
                    "midi": 66,
                    "time": 412.5840839999975,
                    "velocity": 0.6692913385826772,
                    "duration": 1.011235499999998
                },
                {
                    "name": "A#3",
                    "midi": 58,
                    "time": 413.5953194999975,
                    "velocity": 0.3700787401574803,
                    "duration": 0.11235950000002504
                },
                {
                    "name": "C4",
                    "midi": 60,
                    "time": 413.5953194999975,
                    "velocity": 0.3700787401574803,
                    "duration": 0.11235950000002504
                },
                {
                    "name": "D#4",
                    "midi": 63,
                    "time": 413.5953194999975,
                    "velocity": 0.4409448818897638,
                    "duration": 0.11235950000002504
                },
                {
                    "name": "F#4",
                    "midi": 66,
                    "time": 413.5953194999975,
                    "velocity": 0.4409448818897638,
                    "duration": 0.11235950000002504
                },
                {
                    "name": "A#4",
                    "midi": 70,
                    "time": 413.5953194999975,
                    "velocity": 0.4409448818897638,
                    "duration": 0.11235950000002504
                },
                {
                    "name": "A#3",
                    "midi": 58,
                    "time": 413.70767899999754,
                    "velocity": 0.3700787401574803,
                    "duration": 0.22471899999999323
                },
                {
                    "name": "C4",
                    "midi": 60,
                    "time": 413.70767899999754,
                    "velocity": 0.3700787401574803,
                    "duration": 0.22471899999999323
                },
                {
                    "name": "D#4",
                    "midi": 63,
                    "time": 413.70767899999754,
                    "velocity": 0.4409448818897638,
                    "duration": 0.22471899999999323
                },
                {
                    "name": "F#4",
                    "midi": 66,
                    "time": 413.70767899999754,
                    "velocity": 0.4409448818897638,
                    "duration": 0.22471899999999323
                },
                {
                    "name": "A#4",
                    "midi": 70,
                    "time": 413.70767899999754,
                    "velocity": 0.4409448818897638,
                    "duration": 0.22471899999999323
                },
                {
                    "name": "D#4",
                    "midi": 63,
                    "time": 413.93239799999753,
                    "velocity": 0.4409448818897638,
                    "duration": 0.33707850000001827
                },
                {
                    "name": "A#3",
                    "midi": 58,
                    "time": 413.93239799999753,
                    "velocity": 0.3700787401574803,
                    "duration": 0.33707850000001827
                },
                {
                    "name": "C4",
                    "midi": 60,
                    "time": 413.93239799999753,
                    "velocity": 0.3700787401574803,
                    "duration": 0.33707850000001827
                },
                {
                    "name": "F#4",
                    "midi": 66,
                    "time": 413.93239799999753,
                    "velocity": 0.4409448818897638,
                    "duration": 0.33707850000001827
                },
                {
                    "name": "A#4",
                    "midi": 70,
                    "time": 413.93239799999753,
                    "velocity": 0.4409448818897638,
                    "duration": 0.33707850000001827
                },
                {
                    "name": "C4",
                    "midi": 60,
                    "time": 414.26947649999755,
                    "velocity": 0.4015748031496063,
                    "duration": 0.11235950000002504
                },
                {
                    "name": "D#4",
                    "midi": 63,
                    "time": 414.26947649999755,
                    "velocity": 0.48031496062992124,
                    "duration": 0.11235950000002504
                },
                {
                    "name": "A#3",
                    "midi": 58,
                    "time": 414.26947649999755,
                    "velocity": 0.4015748031496063,
                    "duration": 0.11235950000002504
                },
                {
                    "name": "F#4",
                    "midi": 66,
                    "time": 414.26947649999755,
                    "velocity": 0.48031496062992124,
                    "duration": 0.11235950000002504
                },
                {
                    "name": "A#4",
                    "midi": 70,
                    "time": 414.26947649999755,
                    "velocity": 0.48031496062992124,
                    "duration": 0.11235950000002504
                },
                {
                    "name": "D#4",
                    "midi": 63,
                    "time": 414.3818359999976,
                    "velocity": 0.5196850393700787,
                    "duration": 0.22471899999999323
                },
                {
                    "name": "F#4",
                    "midi": 66,
                    "time": 414.3818359999976,
                    "velocity": 0.5196850393700787,
                    "duration": 0.22471899999999323
                },
                {
                    "name": "A#3",
                    "midi": 58,
                    "time": 414.3818359999976,
                    "velocity": 0.4409448818897638,
                    "duration": 0.22471899999999323
                },
                {
                    "name": "C4",
                    "midi": 60,
                    "time": 414.3818359999976,
                    "velocity": 0.4409448818897638,
                    "duration": 0.22471899999999323
                },
                {
                    "name": "A#4",
                    "midi": 70,
                    "time": 414.3818359999976,
                    "velocity": 0.5196850393700787,
                    "duration": 0.22471899999999323
                },
                {
                    "name": "F4",
                    "midi": 65,
                    "time": 414.60655499999757,
                    "velocity": 0.4881889763779528,
                    "duration": 0.22471899999999323
                },
                {
                    "name": "A#3",
                    "midi": 58,
                    "time": 414.60655499999757,
                    "velocity": 0.4094488188976378,
                    "duration": 0.22471899999999323
                },
                {
                    "name": "C#4",
                    "midi": 61,
                    "time": 414.60655499999757,
                    "velocity": 0.4881889763779528,
                    "duration": 0.22471899999999323
                },
                {
                    "name": "A#4",
                    "midi": 70,
                    "time": 414.60655499999757,
                    "velocity": 0.4881889763779528,
                    "duration": 0.22471899999999323
                },
                {
                    "name": "A2",
                    "midi": 45,
                    "time": 415.05599299999756,
                    "velocity": 0.2125984251968504,
                    "duration": 0.07490633333333108
                },
                {
                    "name": "A#2",
                    "midi": 46,
                    "time": 415.1308993333309,
                    "velocity": 0.2283464566929134,
                    "duration": 0.07490633333333108
                },
                {
                    "name": "C#3",
                    "midi": 49,
                    "time": 415.2058056666642,
                    "velocity": 0.23622047244094488,
                    "duration": 0.07490633333333108
                },
                {
                    "name": "F3",
                    "midi": 53,
                    "time": 415.28071199999755,
                    "velocity": 0.2677165354330709,
                    "duration": 0.11235950000002504
                },
                {
                    "name": "A2",
                    "midi": 45,
                    "time": 415.7301499999976,
                    "velocity": 0.1889763779527559,
                    "duration": 0.07490633333333108
                },
                {
                    "name": "A#2",
                    "midi": 46,
                    "time": 415.8050563333309,
                    "velocity": 0.2047244094488189,
                    "duration": 0.07490633333333108
                },
                {
                    "name": "C#3",
                    "midi": 49,
                    "time": 415.87996266666426,
                    "velocity": 0.2125984251968504,
                    "duration": 0.07490633333333108
                },
                {
                    "name": "F3",
                    "midi": 53,
                    "time": 415.9548689999976,
                    "velocity": 0.29133858267716534,
                    "duration": 1.3483140000000162
                },
                {
                    "name": "C1",
                    "midi": 24,
                    "time": 417.3031829999976,
                    "velocity": 0.7480314960629921,
                    "duration": 0.1123594999999682
                },
                {
                    "name": "C2",
                    "midi": 36,
                    "time": 417.3031829999976,
                    "velocity": 0.7480314960629921,
                    "duration": 0.1123594999999682
                },
                {
                    "name": "G#4",
                    "midi": 68,
                    "time": 417.9773399999976,
                    "velocity": 0.7007874015748031,
                    "duration": 1.3483140000000162
                },
                {
                    "name": "C5",
                    "midi": 72,
                    "time": 417.9773399999976,
                    "velocity": 0.7007874015748031,
                    "duration": 1.3483140000000162
                },
                {
                    "name": "F4",
                    "midi": 65,
                    "time": 417.9773399999976,
                    "velocity": 0.5905511811023622,
                    "duration": 1.3483140000000162
                },
                {
                    "name": "C4",
                    "midi": 60,
                    "time": 417.9773399999976,
                    "velocity": 0.5905511811023622,
                    "duration": 1.3483140000000162
                },
                {
                    "name": "C4",
                    "midi": 60,
                    "time": 419.3256539999976,
                    "velocity": 0.3858267716535433,
                    "duration": 0.33707850000001827
                },
                {
                    "name": "A#4",
                    "midi": 70,
                    "time": 419.3256539999976,
                    "velocity": 0.4566929133858268,
                    "duration": 0.33707850000001827
                },
                {
                    "name": "E4",
                    "midi": 64,
                    "time": 419.3256539999976,
                    "velocity": 0.4566929133858268,
                    "duration": 0.33707850000001827
                },
                {
                    "name": "C5",
                    "midi": 72,
                    "time": 419.3256539999976,
                    "velocity": 0.4566929133858268,
                    "duration": 0.33707850000001827
                },
                {
                    "name": "E4",
                    "midi": 64,
                    "time": 419.6627324999976,
                    "velocity": 0.49606299212598426,
                    "duration": 0.11235950000002504
                },
                {
                    "name": "C4",
                    "midi": 60,
                    "time": 419.6627324999976,
                    "velocity": 0.41732283464566927,
                    "duration": 0.11235950000002504
                },
                {
                    "name": "C5",
                    "midi": 72,
                    "time": 419.6627324999976,
                    "velocity": 0.49606299212598426,
                    "duration": 0.11235950000002504
                },
                {
                    "name": "A#4",
                    "midi": 70,
                    "time": 419.6627324999976,
                    "velocity": 0.49606299212598426,
                    "duration": 0.11235950000002504
                },
                {
                    "name": "A#4",
                    "midi": 70,
                    "time": 419.77509199999764,
                    "velocity": 0.5354330708661418,
                    "duration": 0.22471899999999323
                },
                {
                    "name": "C4",
                    "midi": 60,
                    "time": 419.77509199999764,
                    "velocity": 0.44881889763779526,
                    "duration": 0.22471899999999323
                },
                {
                    "name": "E4",
                    "midi": 64,
                    "time": 419.77509199999764,
                    "velocity": 0.5354330708661418,
                    "duration": 0.22471899999999323
                },
                {
                    "name": "C5",
                    "midi": 72,
                    "time": 419.77509199999764,
                    "velocity": 0.5354330708661418,
                    "duration": 0.22471899999999323
                },
                {
                    "name": "C5",
                    "midi": 72,
                    "time": 419.99981099999764,
                    "velocity": 0.5118110236220472,
                    "duration": 0.22471900000005007
                },
                {
                    "name": "F4",
                    "midi": 65,
                    "time": 419.99981099999764,
                    "velocity": 0.4330708661417323,
                    "duration": 0.22471900000005007
                },
                {
                    "name": "G#4",
                    "midi": 68,
                    "time": 419.99981099999764,
                    "velocity": 0.5118110236220472,
                    "duration": 0.22471900000005007
                },
                {
                    "name": "F3",
                    "midi": 53,
                    "time": 420.67396799999767,
                    "velocity": 0.5118110236220472,
                    "duration": 0.44943799999998646
                },
                {
                    "name": "F4",
                    "midi": 65,
                    "time": 420.67396799999767,
                    "velocity": 0.6062992125984252,
                    "duration": 0.44943799999998646
                },
                {
                    "name": "C4",
                    "midi": 60,
                    "time": 420.67396799999767,
                    "velocity": 0.6062992125984252,
                    "duration": 0.44943799999998646
                },
                {
                    "name": "F3",
                    "midi": 53,
                    "time": 421.34812499999765,
                    "velocity": 0.6062992125984252,
                    "duration": 0.44943799999998646
                },
                {
                    "name": "C3",
                    "midi": 48,
                    "time": 421.34812499999765,
                    "velocity": 0.6062992125984252,
                    "duration": 0.44943799999998646
                },
                {
                    "name": "F2",
                    "midi": 41,
                    "time": 421.34812499999765,
                    "velocity": 0.5118110236220472,
                    "duration": 0.44943799999998646
                },
                {
                    "name": "E1",
                    "midi": 28,
                    "time": 422.02228199999763,
                    "velocity": 0.6220472440944882,
                    "duration": 1.3483140000000162
                },
                {
                    "name": "E2",
                    "midi": 40,
                    "time": 422.02228199999763,
                    "velocity": 0.7401574803149606,
                    "duration": 1.3483140000000162
                },
                {
                    "name": "F1",
                    "midi": 29,
                    "time": 423.37059599999765,
                    "velocity": 0.7401574803149606,
                    "duration": 0.6741569999999797
                },
                {
                    "name": "D1",
                    "midi": 26,
                    "time": 424.0447529999976,
                    "velocity": 0.3543307086614173,
                    "duration": 0.08426962499999036
                },
                {
                    "name": "D#1",
                    "midi": 27,
                    "time": 424.11965933333096,
                    "velocity": 0.3543307086614173,
                    "duration": 0.08426962499999036
                },
                {
                    "name": "F1",
                    "midi": 29,
                    "time": 424.1945656666643,
                    "velocity": 0.3543307086614173,
                    "duration": 0.08426962499999036
                },
                {
                    "name": "D#1",
                    "midi": 27,
                    "time": 424.2694719999976,
                    "velocity": 0.36220472440944884,
                    "duration": 0.08426962499999036
                },
                {
                    "name": "F1",
                    "midi": 29,
                    "time": 424.34437833333095,
                    "velocity": 0.3700787401574803,
                    "duration": 0.07490633333333108
                },
                {
                    "name": "D#1",
                    "midi": 27,
                    "time": 424.4192846666643,
                    "velocity": 0.3858267716535433,
                    "duration": 0.08426962499999036
                },
                {
                    "name": "F1",
                    "midi": 29,
                    "time": 424.4941909999976,
                    "velocity": 0.3937007874015748,
                    "duration": 0.08426962499999036
                },
                {
                    "name": "D#1",
                    "midi": 27,
                    "time": 424.56909733333094,
                    "velocity": 0.4015748031496063,
                    "duration": 0.08426962499999036
                },
                {
                    "name": "F1",
                    "midi": 29,
                    "time": 424.6440036666643,
                    "velocity": 0.4015748031496063,
                    "duration": 0.08426962499999036
                },
                {
                    "name": "D#1",
                    "midi": 27,
                    "time": 424.7189099999976,
                    "velocity": 0.4094488188976378,
                    "duration": 0.0655430416666718
                },
                {
                    "name": "F1",
                    "midi": 29,
                    "time": 424.7750897499976,
                    "velocity": 0.41732283464566927,
                    "duration": 0.0655430416666718
                },
                {
                    "name": "D#1",
                    "midi": 27,
                    "time": 424.83126949999763,
                    "velocity": 0.41732283464566927,
                    "duration": 0.0655430416666718
                },
                {
                    "name": "F1",
                    "midi": 29,
                    "time": 424.88744924999764,
                    "velocity": 0.4251968503937008,
                    "duration": 0.0655430416666718
                },
                {
                    "name": "D#1",
                    "midi": 27,
                    "time": 424.94362899999766,
                    "velocity": 0.4330708661417323,
                    "duration": 0.0655430416666718
                },
                {
                    "name": "F1",
                    "midi": 29,
                    "time": 424.99980874999767,
                    "velocity": 0.4330708661417323,
                    "duration": 0.0655430416666718
                },
                {
                    "name": "D#1",
                    "midi": 27,
                    "time": 425.0559884999977,
                    "velocity": 0.4409448818897638,
                    "duration": 0.0655430416666718
                },
                {
                    "name": "F1",
                    "midi": 29,
                    "time": 425.1121682499977,
                    "velocity": 0.4409448818897638,
                    "duration": 0.0655430416666718
                },
                {
                    "name": "D#1",
                    "midi": 27,
                    "time": 425.1683479999977,
                    "velocity": 0.4645669291338583,
                    "duration": 0.08426962499999036
                },
                {
                    "name": "D1",
                    "midi": 26,
                    "time": 425.24325433333104,
                    "velocity": 0.5748031496062992,
                    "duration": 0.08426962499999036
                },
                {
                    "name": "D#1",
                    "midi": 27,
                    "time": 425.31816066666437,
                    "velocity": 0.5748031496062992,
                    "duration": 0.08426962499999036
                },
                {
                    "name": "C#1",
                    "midi": 25,
                    "time": 425.3930669999977,
                    "velocity": 0.5826771653543307,
                    "duration": 0.1123594999999682
                },
                {
                    "name": "C#2",
                    "midi": 37,
                    "time": 425.3930669999977,
                    "velocity": 0.6929133858267716,
                    "duration": 0.1123594999999682
                },
                {
                    "name": "G#2",
                    "midi": 44,
                    "time": 425.84250499999763,
                    "velocity": 0.3543307086614173,
                    "duration": 0.22471899999999323
                },
                {
                    "name": "G#3",
                    "midi": 56,
                    "time": 425.84250499999763,
                    "velocity": 0.3543307086614173,
                    "duration": 0.22471899999999323
                },
                {
                    "name": "C#4",
                    "midi": 61,
                    "time": 426.0672239999976,
                    "velocity": 0.41732283464566927,
                    "duration": 0.22471899999999323
                },
                {
                    "name": "F3",
                    "midi": 53,
                    "time": 426.0672239999976,
                    "velocity": 0.41732283464566927,
                    "duration": 0.22471899999999323
                },
                {
                    "name": "G#2",
                    "midi": 44,
                    "time": 426.5166619999976,
                    "velocity": 0.33070866141732286,
                    "duration": 0.22471899999999323
                },
                {
                    "name": "G#3",
                    "midi": 56,
                    "time": 426.5166619999976,
                    "velocity": 0.33070866141732286,
                    "duration": 0.22471899999999323
                },
                {
                    "name": "F3",
                    "midi": 53,
                    "time": 426.7413809999976,
                    "velocity": 0.3700787401574803,
                    "duration": 0.22471899999999323
                },
                {
                    "name": "C#4",
                    "midi": 61,
                    "time": 426.7413809999976,
                    "velocity": 0.3700787401574803,
                    "duration": 0.22471899999999323
                },
                {
                    "name": "G#1",
                    "midi": 32,
                    "time": 428.08969499999756,
                    "velocity": 0.4094488188976378,
                    "duration": 0.11235950000002504
                },
                {
                    "name": "G#2",
                    "midi": 44,
                    "time": 428.08969499999756,
                    "velocity": 0.4094488188976378,
                    "duration": 0.11235950000002504
                },
                {
                    "name": "F#4",
                    "midi": 66,
                    "time": 428.7638519999976,
                    "velocity": 0.2992125984251969,
                    "duration": 0.22471899999999323
                },
                {
                    "name": "G3",
                    "midi": 55,
                    "time": 428.7638519999976,
                    "velocity": 0.2992125984251969,
                    "duration": 0.22471899999999323
                },
                {
                    "name": "C4",
                    "midi": 60,
                    "time": 428.7638519999976,
                    "velocity": 0.2992125984251969,
                    "duration": 0.22471899999999323
                },
                {
                    "name": "G#3",
                    "midi": 56,
                    "time": 428.9885709999976,
                    "velocity": 0.2755905511811024,
                    "duration": 0.22471899999999323
                },
                {
                    "name": "C4",
                    "midi": 60,
                    "time": 428.9885709999976,
                    "velocity": 0.2755905511811024,
                    "duration": 0.22471899999999323
                },
                {
                    "name": "F#4",
                    "midi": 66,
                    "time": 428.9885709999976,
                    "velocity": 0.2755905511811024,
                    "duration": 0.22471899999999323
                },
                {
                    "name": "F#4",
                    "midi": 66,
                    "time": 429.2132899999976,
                    "velocity": 0.2440944881889764,
                    "duration": 0.11235950000002504
                },
                {
                    "name": "G#3",
                    "midi": 56,
                    "time": 429.2132899999976,
                    "velocity": 0.2440944881889764,
                    "duration": 0.11235950000002504
                },
                {
                    "name": "C4",
                    "midi": 60,
                    "time": 429.2132899999976,
                    "velocity": 0.2440944881889764,
                    "duration": 0.11235950000002504
                },
                {
                    "name": "A3",
                    "midi": 57,
                    "time": 430.1121659999976,
                    "velocity": 0.2755905511811024,
                    "duration": 0.22471899999999323
                },
                {
                    "name": "C4",
                    "midi": 60,
                    "time": 430.1121659999976,
                    "velocity": 0.2755905511811024,
                    "duration": 0.22471899999999323
                },
                {
                    "name": "F#4",
                    "midi": 66,
                    "time": 430.1121659999976,
                    "velocity": 0.2755905511811024,
                    "duration": 0.22471899999999323
                },
                {
                    "name": "F#4",
                    "midi": 66,
                    "time": 430.3368849999976,
                    "velocity": 0.25196850393700787,
                    "duration": 0.22471899999999323
                },
                {
                    "name": "C4",
                    "midi": 60,
                    "time": 430.3368849999976,
                    "velocity": 0.25196850393700787,
                    "duration": 0.22471899999999323
                },
                {
                    "name": "G#3",
                    "midi": 56,
                    "time": 430.3368849999976,
                    "velocity": 0.25196850393700787,
                    "duration": 0.22471899999999323
                },
                {
                    "name": "F#4",
                    "midi": 66,
                    "time": 430.5616039999976,
                    "velocity": 0.2204724409448819,
                    "duration": 0.11235950000002504
                },
                {
                    "name": "C4",
                    "midi": 60,
                    "time": 430.5616039999976,
                    "velocity": 0.2204724409448819,
                    "duration": 0.11235950000002504
                },
                {
                    "name": "G#3",
                    "midi": 56,
                    "time": 430.5616039999976,
                    "velocity": 0.2204724409448819,
                    "duration": 0.11235950000002504
                },
                {
                    "name": "C#1",
                    "midi": 25,
                    "time": 430.78632299999765,
                    "velocity": 0.5826771653543307,
                    "duration": 0.11235950000002504
                },
                {
                    "name": "C#2",
                    "midi": 37,
                    "time": 430.78632299999765,
                    "velocity": 0.6929133858267716,
                    "duration": 0.11235950000002504
                },
                {
                    "name": "G#2",
                    "midi": 44,
                    "time": 431.2357609999977,
                    "velocity": 0.3543307086614173,
                    "duration": 0.22471899999999323
                },
                {
                    "name": "G#3",
                    "midi": 56,
                    "time": 431.2357609999977,
                    "velocity": 0.3543307086614173,
                    "duration": 0.22471899999999323
                },
                {
                    "name": "C#4",
                    "midi": 61,
                    "time": 431.4604799999977,
                    "velocity": 0.41732283464566927,
                    "duration": 0.22471899999999323
                },
                {
                    "name": "F3",
                    "midi": 53,
                    "time": 431.4604799999977,
                    "velocity": 0.41732283464566927,
                    "duration": 0.22471899999999323
                },
                {
                    "name": "G#2",
                    "midi": 44,
                    "time": 431.9099179999977,
                    "velocity": 0.33070866141732286,
                    "duration": 0.22471899999999323
                },
                {
                    "name": "G#3",
                    "midi": 56,
                    "time": 431.9099179999977,
                    "velocity": 0.33070866141732286,
                    "duration": 0.22471899999999323
                },
                {
                    "name": "F3",
                    "midi": 53,
                    "time": 432.13463699999767,
                    "velocity": 0.3700787401574803,
                    "duration": 0.22471899999999323
                },
                {
                    "name": "C#4",
                    "midi": 61,
                    "time": 432.13463699999767,
                    "velocity": 0.3700787401574803,
                    "duration": 0.22471899999999323
                },
                {
                    "name": "G#2",
                    "midi": 44,
                    "time": 433.4829509999977,
                    "velocity": 0.1968503937007874,
                    "duration": 0.6741569999999797
                },
                {
                    "name": "D#3",
                    "midi": 51,
                    "time": 433.4829509999977,
                    "velocity": 0.1968503937007874,
                    "duration": 0.6741569999999797
                },
                {
                    "name": "F#3",
                    "midi": 54,
                    "time": 433.4829509999977,
                    "velocity": 0.1968503937007874,
                    "duration": 0.6741569999999797
                },
                {
                    "name": "C4",
                    "midi": 60,
                    "time": 434.15710799999766,
                    "velocity": 0.25196850393700787,
                    "duration": 0.11235950000002504
                },
                {
                    "name": "C#4",
                    "midi": 61,
                    "time": 434.2694674999977,
                    "velocity": 0.25196850393700787,
                    "duration": 0.11235950000002504
                },
                {
                    "name": "D#4",
                    "midi": 63,
                    "time": 434.3818269999977,
                    "velocity": 0.25196850393700787,
                    "duration": 0.11235950000002504
                },
                {
                    "name": "F4",
                    "midi": 65,
                    "time": 434.49418649999774,
                    "velocity": 0.25196850393700787,
                    "duration": 0.11235950000002504
                },
                {
                    "name": "F#4",
                    "midi": 66,
                    "time": 434.60654599999776,
                    "velocity": 0.25196850393700787,
                    "duration": 0.11235950000002504
                },
                {
                    "name": "G#4",
                    "midi": 68,
                    "time": 434.7189054999978,
                    "velocity": 0.25196850393700787,
                    "duration": 0.11235950000002504
                },
                {
                    "name": "A4",
                    "midi": 69,
                    "time": 434.8312649999978,
                    "velocity": 0.25196850393700787,
                    "duration": 0.11235950000002504
                },
                {
                    "name": "A3",
                    "midi": 57,
                    "time": 435.50542199999785,
                    "velocity": 0.23622047244094488,
                    "duration": 0.11235950000002504
                },
                {
                    "name": "G#3",
                    "midi": 56,
                    "time": 435.6177814999979,
                    "velocity": 0.2283464566929134,
                    "duration": 0.11235950000002504
                },
                {
                    "name": "G3",
                    "midi": 55,
                    "time": 435.7301409999979,
                    "velocity": 0.2204724409448819,
                    "duration": 0.11235950000002504
                },
                {
                    "name": "F#3",
                    "midi": 54,
                    "time": 435.8425004999979,
                    "velocity": 0.2125984251968504,
                    "duration": 0.11235950000002504
                },
                {
                    "name": "F3",
                    "midi": 53,
                    "time": 435.95485999999795,
                    "velocity": 0.2047244094488189,
                    "duration": 0.11235950000002504
                },
                {
                    "name": "D#3",
                    "midi": 51,
                    "time": 436.067219499998,
                    "velocity": 0.1968503937007874,
                    "duration": 0.11235950000002504
                },
                {
                    "name": "C#3",
                    "midi": 49,
                    "time": 436.179578999998,
                    "velocity": 0.2125984251968504,
                    "duration": 0.11235950000002504
                },
                {
                    "name": "G#3",
                    "midi": 56,
                    "time": 436.291938499998,
                    "velocity": 0.2204724409448819,
                    "duration": 0.11235950000002504
                },
                {
                    "name": "C#4",
                    "midi": 61,
                    "time": 436.40429799999805,
                    "velocity": 0.23622047244094488,
                    "duration": 0.11235950000002504
                },
                {
                    "name": "F4",
                    "midi": 65,
                    "time": 436.5166574999981,
                    "velocity": 0.2677165354330709,
                    "duration": 0.11235950000002504
                },
                {
                    "name": "C#4",
                    "midi": 61,
                    "time": 436.6290169999981,
                    "velocity": 0.2440944881889764,
                    "duration": 0.11235950000002504
                },
                {
                    "name": "G#3",
                    "midi": 56,
                    "time": 436.7413764999981,
                    "velocity": 0.23622047244094488,
                    "duration": 0.11235950000002504
                },
                {
                    "name": "C#3",
                    "midi": 49,
                    "time": 436.85373599999815,
                    "velocity": 0.2283464566929134,
                    "duration": 0.11235950000002504
                },
                {
                    "name": "B3",
                    "midi": 59,
                    "time": 436.9660954999982,
                    "velocity": 0.2204724409448819,
                    "duration": 0.11235950000002504
                },
                {
                    "name": "C#4",
                    "midi": 61,
                    "time": 437.0784549999982,
                    "velocity": 0.23622047244094488,
                    "duration": 0.11235950000002504
                },
                {
                    "name": "F4",
                    "midi": 65,
                    "time": 437.1908144999982,
                    "velocity": 0.2440944881889764,
                    "duration": 0.11235950000002504
                },
                {
                    "name": "C#4",
                    "midi": 61,
                    "time": 437.30317399999825,
                    "velocity": 0.23622047244094488,
                    "duration": 0.11235950000002504
                },
                {
                    "name": "B3",
                    "midi": 59,
                    "time": 437.4155334999983,
                    "velocity": 0.2283464566929134,
                    "duration": 0.11235950000002504
                },
                {
                    "name": "F#3",
                    "midi": 54,
                    "time": 437.5278929999983,
                    "velocity": 0.2204724409448819,
                    "duration": 0.11235950000002504
                },
                {
                    "name": "B3",
                    "midi": 59,
                    "time": 437.6402524999983,
                    "velocity": 0.2204724409448819,
                    "duration": 0.11235950000002504
                },
                {
                    "name": "C#4",
                    "midi": 61,
                    "time": 437.75261199999835,
                    "velocity": 0.2440944881889764,
                    "duration": 0.11235950000002504
                },
                {
                    "name": "F#4",
                    "midi": 66,
                    "time": 437.8649714999984,
                    "velocity": 0.2677165354330709,
                    "duration": 0.11235950000002504
                },
                {
                    "name": "C#4",
                    "midi": 61,
                    "time": 437.9773309999984,
                    "velocity": 0.2440944881889764,
                    "duration": 0.11235950000002504
                },
                {
                    "name": "B3",
                    "midi": 59,
                    "time": 438.0896904999984,
                    "velocity": 0.2283464566929134,
                    "duration": 0.11235950000002504
                },
                {
                    "name": "C#3",
                    "midi": 49,
                    "time": 438.20204999999845,
                    "velocity": 0.2283464566929134,
                    "duration": 0.1123594999999682
                },
                {
                    "name": "A#3",
                    "midi": 58,
                    "time": 438.3144094999984,
                    "velocity": 0.2204724409448819,
                    "duration": 0.11235950000002504
                },
                {
                    "name": "C#4",
                    "midi": 61,
                    "time": 438.42676899999844,
                    "velocity": 0.23622047244094488,
                    "duration": 0.11235950000002504
                },
                {
                    "name": "F#4",
                    "midi": 66,
                    "time": 438.53912849999847,
                    "velocity": 0.25984251968503935,
                    "duration": 0.11235950000002504
                },
                {
                    "name": "C#4",
                    "midi": 61,
                    "time": 438.6514879999985,
                    "velocity": 0.2440944881889764,
                    "duration": 0.11235950000002504
                },
                {
                    "name": "A#3",
                    "midi": 58,
                    "time": 438.7638474999985,
                    "velocity": 0.23622047244094488,
                    "duration": 0.11235950000002504
                },
                {
                    "name": "G#3",
                    "midi": 56,
                    "time": 438.87620699999854,
                    "velocity": 0.2204724409448819,
                    "duration": 0.11235950000002504
                },
                {
                    "name": "B3",
                    "midi": 59,
                    "time": 438.98856649999857,
                    "velocity": 0.2204724409448819,
                    "duration": 0.11235950000002504
                },
                {
                    "name": "C#4",
                    "midi": 61,
                    "time": 439.1009259999986,
                    "velocity": 0.23622047244094488,
                    "duration": 0.11235950000002504
                },
                {
                    "name": "G#4",
                    "midi": 68,
                    "time": 439.2132854999986,
                    "velocity": 0.25984251968503935,
                    "duration": 0.11235950000002504
                },
                {
                    "name": "C#4",
                    "midi": 61,
                    "time": 439.32564499999864,
                    "velocity": 0.2440944881889764,
                    "duration": 0.11235950000002504
                },
                {
                    "name": "B3",
                    "midi": 59,
                    "time": 439.43800449999867,
                    "velocity": 0.2283464566929134,
                    "duration": 0.11235950000002504
                },
                {
                    "name": "C#3",
                    "midi": 49,
                    "time": 439.5503639999987,
                    "velocity": 0.2283464566929134,
                    "duration": 0.11235950000002504
                },
                {
                    "name": "B3",
                    "midi": 59,
                    "time": 439.6627234999987,
                    "velocity": 0.2204724409448819,
                    "duration": 0.11235950000002504
                },
                {
                    "name": "C#4",
                    "midi": 61,
                    "time": 439.77508299999874,
                    "velocity": 0.23622047244094488,
                    "duration": 0.11235950000002504
                },
                {
                    "name": "F4",
                    "midi": 65,
                    "time": 439.88744249999877,
                    "velocity": 0.2440944881889764,
                    "duration": 0.11235950000002504
                },
                {
                    "name": "C#4",
                    "midi": 61,
                    "time": 439.9998019999988,
                    "velocity": 0.23622047244094488,
                    "duration": 0.11235950000002504
                },
                {
                    "name": "B3",
                    "midi": 59,
                    "time": 440.1121614999988,
                    "velocity": 0.2283464566929134,
                    "duration": 0.11235950000002504
                },
                {
                    "name": "F#3",
                    "midi": 54,
                    "time": 440.22452099999884,
                    "velocity": 0.2283464566929134,
                    "duration": 0.1123594999999682
                },
                {
                    "name": "A#3",
                    "midi": 58,
                    "time": 440.3368804999988,
                    "velocity": 0.23622047244094488,
                    "duration": 0.11235950000002504
                },
                {
                    "name": "C#4",
                    "midi": 61,
                    "time": 440.44923999999884,
                    "velocity": 0.2677165354330709,
                    "duration": 0.11235950000002504
                },
                {
                    "name": "F#4",
                    "midi": 66,
                    "time": 440.56159949999886,
                    "velocity": 0.2755905511811024,
                    "duration": 0.11235950000002504
                },
                {
                    "name": "C#4",
                    "midi": 61,
                    "time": 440.6739589999989,
                    "velocity": 0.2677165354330709,
                    "duration": 0.11235950000002504
                },
                {
                    "name": "A#3",
                    "midi": 58,
                    "time": 440.7863184999989,
                    "velocity": 0.25984251968503935,
                    "duration": 0.11235950000002504
                },
                {
                    "name": "E3",
                    "midi": 52,
                    "time": 440.89867799999894,
                    "velocity": 0.2755905511811024,
                    "duration": 0.11235950000002504
                },
                {
                    "name": "A#3",
                    "midi": 58,
                    "time": 441.01103749999896,
                    "velocity": 0.28346456692913385,
                    "duration": 0.11235950000002504
                },
                {
                    "name": "C#4",
                    "midi": 61,
                    "time": 441.123396999999,
                    "velocity": 0.30708661417322836,
                    "duration": 0.11235950000002504
                },
                {
                    "name": "G#4",
                    "midi": 68,
                    "time": 441.235756499999,
                    "velocity": 0.29133858267716534,
                    "duration": 0.11235950000002504
                },
                {
                    "name": "C#4",
                    "midi": 61,
                    "time": 441.34811599999904,
                    "velocity": 0.2677165354330709,
                    "duration": 0.11235950000002504
                },
                {
                    "name": "A#3",
                    "midi": 58,
                    "time": 441.46047549999906,
                    "velocity": 0.2440944881889764,
                    "duration": 0.11235950000002504
                },
                {
                    "name": "D#3",
                    "midi": 51,
                    "time": 441.5728349999991,
                    "velocity": 0.28346456692913385,
                    "duration": 0.11235950000002504
                },
                {
                    "name": "A#3",
                    "midi": 58,
                    "time": 441.6851944999991,
                    "velocity": 0.2992125984251969,
                    "duration": 0.11235950000002504
                },
                {
                    "name": "C#4",
                    "midi": 61,
                    "time": 441.79755399999914,
                    "velocity": 0.3228346456692913,
                    "duration": 0.11235950000002504
                },
                {
                    "name": "G4",
                    "midi": 67,
                    "time": 441.90991349999916,
                    "velocity": 0.3543307086614173,
                    "duration": 0.11235950000002504
                },
                {
                    "name": "C#4",
                    "midi": 61,
                    "time": 442.0222729999992,
                    "velocity": 0.33070866141732286,
                    "duration": 0.11235950000002504
                },
                {
                    "name": "A#3",
                    "midi": 58,
                    "time": 442.1346324999992,
                    "velocity": 0.30708661417322836,
                    "duration": 0.11235950000002504
                },
                {
                    "name": "G3",
                    "midi": 55,
                    "time": 442.24699199999924,
                    "velocity": 0.28346456692913385,
                    "duration": 0.11235950000002504
                },
                {
                    "name": "C#4",
                    "midi": 61,
                    "time": 442.35935149999926,
                    "velocity": 0.2992125984251969,
                    "duration": 0.11235950000002504
                },
                {
                    "name": "D#4",
                    "midi": 63,
                    "time": 442.4717109999993,
                    "velocity": 0.3228346456692913,
                    "duration": 0.11235950000002504
                },
                {
                    "name": "A#4",
                    "midi": 70,
                    "time": 442.5840704999993,
                    "velocity": 0.36220472440944884,
                    "duration": 0.11235950000002504
                },
                {
                    "name": "D#4",
                    "midi": 63,
                    "time": 442.69642999999934,
                    "velocity": 0.33070866141732286,
                    "duration": 0.11235950000002504
                },
                {
                    "name": "C#4",
                    "midi": 61,
                    "time": 442.80878949999936,
                    "velocity": 0.30708661417322836,
                    "duration": 0.11235950000002504
                },
                {
                    "name": "G#3",
                    "midi": 56,
                    "time": 442.9211489999994,
                    "velocity": 0.29133858267716534,
                    "duration": 0.11235950000002504
                },
                {
                    "name": "C#4",
                    "midi": 61,
                    "time": 443.0335084999994,
                    "velocity": 0.2992125984251969,
                    "duration": 0.11235950000002504
                },
                {
                    "name": "D#4",
                    "midi": 63,
                    "time": 443.14586799999944,
                    "velocity": 0.33070866141732286,
                    "duration": 0.11235950000002504
                },
                {
                    "name": "G#4",
                    "midi": 68,
                    "time": 443.25822749999946,
                    "velocity": 0.3543307086614173,
                    "duration": 0.11235950000002504
                },
                {
                    "name": "D#4",
                    "midi": 63,
                    "time": 443.3705869999995,
                    "velocity": 0.3228346456692913,
                    "duration": 0.11235950000002504
                },
                {
                    "name": "C#4",
                    "midi": 61,
                    "time": 443.4829464999995,
                    "velocity": 0.2992125984251969,
                    "duration": 0.11235950000002504
                },
                {
                    "name": "D#3",
                    "midi": 51,
                    "time": 443.59530599999954,
                    "velocity": 0.28346456692913385,
                    "duration": 0.1123594999999682
                },
                {
                    "name": "C4",
                    "midi": 60,
                    "time": 443.7076654999995,
                    "velocity": 0.29133858267716534,
                    "duration": 0.11235950000002504
                },
                {
                    "name": "D#4",
                    "midi": 63,
                    "time": 443.82002499999953,
                    "velocity": 0.31496062992125984,
                    "duration": 0.11235950000002504
                },
                {
                    "name": "G#4",
                    "midi": 68,
                    "time": 443.93238449999956,
                    "velocity": 0.3464566929133858,
                    "duration": 0.11235950000002504
                },
                {
                    "name": "D#4",
                    "midi": 63,
                    "time": 444.0447439999996,
                    "velocity": 0.3228346456692913,
                    "duration": 0.11235950000002504
                },
                {
                    "name": "C4",
                    "midi": 60,
                    "time": 444.1571034999996,
                    "velocity": 0.30708661417322836,
                    "duration": 0.11235950000002504
                },
                {
                    "name": "A#3",
                    "midi": 58,
                    "time": 444.26946299999963,
                    "velocity": 0.28346456692913385,
                    "duration": 0.1123594999999682
                },
                {
                    "name": "C#4",
                    "midi": 61,
                    "time": 444.3818224999996,
                    "velocity": 0.29133858267716534,
                    "duration": 0.11235950000002504
                },
                {
                    "name": "D#4",
                    "midi": 63,
                    "time": 444.4941819999996,
                    "velocity": 0.31496062992125984,
                    "duration": 0.11235950000002504
                },
                {
                    "name": "A#4",
                    "midi": 70,
                    "time": 444.60654149999965,
                    "velocity": 0.33070866141732286,
                    "duration": 0.11235950000002504
                },
                {
                    "name": "D#4",
                    "midi": 63,
                    "time": 444.7189009999997,
                    "velocity": 0.3228346456692913,
                    "duration": 0.11235950000002504
                },
                {
                    "name": "C#4",
                    "midi": 61,
                    "time": 444.8312604999997,
                    "velocity": 0.30708661417322836,
                    "duration": 0.11235950000002504
                },
                {
                    "name": "D#3",
                    "midi": 51,
                    "time": 444.9436199999997,
                    "velocity": 0.29133858267716534,
                    "duration": 0.11235950000002504
                },
                {
                    "name": "C#4",
                    "midi": 61,
                    "time": 445.05597949999975,
                    "velocity": 0.28346456692913385,
                    "duration": 0.11235950000002504
                },
                {
                    "name": "D#4",
                    "midi": 63,
                    "time": 445.1683389999998,
                    "velocity": 0.2992125984251969,
                    "duration": 0.11235950000002504
                },
                {
                    "name": "G4",
                    "midi": 67,
                    "time": 445.2806984999998,
                    "velocity": 0.31496062992125984,
                    "duration": 0.11235950000002504
                },
                {
                    "name": "D#4",
                    "midi": 63,
                    "time": 445.3930579999998,
                    "velocity": 0.31496062992125984,
                    "duration": 0.11235950000002504
                },
                {
                    "name": "C#4",
                    "midi": 61,
                    "time": 445.50541749999985,
                    "velocity": 0.29133858267716534,
                    "duration": 0.11235950000002504
                },
                {
                    "name": "G#3",
                    "midi": 56,
                    "time": 445.6177769999999,
                    "velocity": 0.3937007874015748,
                    "duration": 0.11235950000002504
                },
                {
                    "name": "C4",
                    "midi": 60,
                    "time": 445.7301364999999,
                    "velocity": 0.31496062992125984,
                    "duration": 0.11235950000002504
                },
                {
                    "name": "D#4",
                    "midi": 63,
                    "time": 445.8424959999999,
                    "velocity": 0.3464566929133858,
                    "duration": 0.11235950000002504
                },
                {
                    "name": "G#4",
                    "midi": 68,
                    "time": 445.95485549999995,
                    "velocity": 0.3543307086614173,
                    "duration": 0.11235950000002504
                },
                {
                    "name": "D#4",
                    "midi": 63,
                    "time": 446.067215,
                    "velocity": 0.3464566929133858,
                    "duration": 0.11235950000002504
                },
                {
                    "name": "C4",
                    "midi": 60,
                    "time": 446.1795745,
                    "velocity": 0.33070866141732286,
                    "duration": 0.11235950000002504
                },
                {
                    "name": "G3",
                    "midi": 55,
                    "time": 446.291934,
                    "velocity": 0.30708661417322836,
                    "duration": 0.6741570000001502
                },
                {
                    "name": "G#3",
                    "midi": 56,
                    "time": 446.40429350000005,
                    "velocity": 0.3228346456692913,
                    "duration": 0.11235950000002504
                },
                {
                    "name": "C4",
                    "midi": 60,
                    "time": 446.5166530000001,
                    "velocity": 0.3543307086614173,
                    "duration": 0.11235950000002504
                },
                {
                    "name": "D#4",
                    "midi": 63,
                    "time": 446.6290125000001,
                    "velocity": 0.3858267716535433,
                    "duration": 0.11235950000002504
                },
                {
                    "name": "C4",
                    "midi": 60,
                    "time": 446.7413720000001,
                    "velocity": 0.3700787401574803,
                    "duration": 0.11235950000002504
                },
                {
                    "name": "G#3",
                    "midi": 56,
                    "time": 446.85373150000015,
                    "velocity": 0.3228346456692913,
                    "duration": 0.11235950000002504
                },
                {
                    "name": "F#3",
                    "midi": 54,
                    "time": 446.9660910000002,
                    "velocity": 0.2992125984251969,
                    "duration": 0.6741570000001502
                },
                {
                    "name": "G#3",
                    "midi": 56,
                    "time": 447.0784505000002,
                    "velocity": 0.28346456692913385,
                    "duration": 0.11235950000002504
                },
                {
                    "name": "C4",
                    "midi": 60,
                    "time": 447.1908100000002,
                    "velocity": 0.30708661417322836,
                    "duration": 0.11235950000002504
                },
                {
                    "name": "D#4",
                    "midi": 63,
                    "time": 447.30316950000025,
                    "velocity": 0.33070866141732286,
                    "duration": 0.11235950000002504
                },
                {
                    "name": "C4",
                    "midi": 60,
                    "time": 447.4155290000003,
                    "velocity": 0.3228346456692913,
                    "duration": 0.11235950000002504
                },
                {
                    "name": "G#3",
                    "midi": 56,
                    "time": 447.5278885000003,
                    "velocity": 0.2992125984251969,
                    "duration": 0.11235950000002504
                },
                {
                    "name": "F#3",
                    "midi": 54,
                    "time": 447.6402480000003,
                    "velocity": 0.3700787401574803,
                    "duration": 0.6741570000001502
                },
                {
                    "name": "G#3",
                    "midi": 56,
                    "time": 447.75260750000035,
                    "velocity": 0.3228346456692913,
                    "duration": 0.11235950000002504
                },
                {
                    "name": "C4",
                    "midi": 60,
                    "time": 447.8649670000004,
                    "velocity": 0.3228346456692913,
                    "duration": 0.11235950000002504
                },
                {
                    "name": "D#4",
                    "midi": 63,
                    "time": 447.9773265000004,
                    "velocity": 0.3228346456692913,
                    "duration": 0.11235950000002504
                },
                {
                    "name": "C4",
                    "midi": 60,
                    "time": 448.0896860000004,
                    "velocity": 0.2992125984251969,
                    "duration": 0.11235950000002504
                },
                {
                    "name": "G#3",
                    "midi": 56,
                    "time": 448.20204550000045,
                    "velocity": 0.2755905511811024,
                    "duration": 0.11235950000002504
                },
                {
                    "name": "F3",
                    "midi": 53,
                    "time": 448.3144050000005,
                    "velocity": 0.2677165354330709,
                    "duration": 0.6741570000001502
                },
                {
                    "name": "G#3",
                    "midi": 56,
                    "time": 448.4267645000005,
                    "velocity": 0.25984251968503935,
                    "duration": 0.11235950000002504
                },
                {
                    "name": "C#4",
                    "midi": 61,
                    "time": 448.5391240000005,
                    "velocity": 0.28346456692913385,
                    "duration": 0.11235950000002504
                },
                {
                    "name": "F4",
                    "midi": 65,
                    "time": 448.65148350000055,
                    "velocity": 0.30708661417322836,
                    "duration": 0.11235950000002504
                },
                {
                    "name": "C#4",
                    "midi": 61,
                    "time": 448.7638430000006,
                    "velocity": 0.29133858267716534,
                    "duration": 0.11235950000002504
                },
                {
                    "name": "G#3",
                    "midi": 56,
                    "time": 448.8762025000006,
                    "velocity": 0.2755905511811024,
                    "duration": 0.11235950000002504
                },
                {
                    "name": "F3",
                    "midi": 53,
                    "time": 448.9885620000006,
                    "velocity": 0.28346456692913385,
                    "duration": 0.11235950000002504
                },
                {
                    "name": "G#3",
                    "midi": 56,
                    "time": 449.10092150000065,
                    "velocity": 0.2992125984251969,
                    "duration": 0.11235950000002504
                },
                {
                    "name": "C#4",
                    "midi": 61,
                    "time": 449.2132810000007,
                    "velocity": 0.3228346456692913,
                    "duration": 0.11235950000002504
                },
                {
                    "name": "G#4",
                    "midi": 68,
                    "time": 449.3256405000007,
                    "velocity": 0.33070866141732286,
                    "duration": 0.11235950000002504
                },
                {
                    "name": "C#4",
                    "midi": 61,
                    "time": 449.4380000000007,
                    "velocity": 0.31496062992125984,
                    "duration": 0.11235950000002504
                },
                {
                    "name": "G#3",
                    "midi": 56,
                    "time": 449.55035950000075,
                    "velocity": 0.29133858267716534,
                    "duration": 0.11235950000002504
                },
                {
                    "name": "D#3",
                    "midi": 51,
                    "time": 449.6627190000008,
                    "velocity": 0.2755905511811024,
                    "duration": 0.1123594999999682
                },
                {
                    "name": "G#3",
                    "midi": 56,
                    "time": 449.77507850000075,
                    "velocity": 0.2992125984251969,
                    "duration": 0.11235950000002504
                },
                {
                    "name": "C4",
                    "midi": 60,
                    "time": 449.88743800000077,
                    "velocity": 0.3228346456692913,
                    "duration": 0.11235950000002504
                },
                {
                    "name": "F#4",
                    "midi": 66,
                    "time": 449.9997975000008,
                    "velocity": 0.3228346456692913,
                    "duration": 0.11235950000002504
                },
                {
                    "name": "C4",
                    "midi": 60,
                    "time": 450.1121570000008,
                    "velocity": 0.30708661417322836,
                    "duration": 0.11235950000002504
                },
                {
                    "name": "G#3",
                    "midi": 56,
                    "time": 450.22451650000085,
                    "velocity": 0.28346456692913385,
                    "duration": 0.11235950000002504
                },
                {
                    "name": "D#3",
                    "midi": 51,
                    "time": 450.33687600000087,
                    "velocity": 0.2677165354330709,
                    "duration": 0.11235950000002504
                },
                {
                    "name": "G#3",
                    "midi": 56,
                    "time": 450.4492355000009,
                    "velocity": 0.2677165354330709,
                    "duration": 0.11235950000002504
                },
                {
                    "name": "C4",
                    "midi": 60,
                    "time": 450.5615950000009,
                    "velocity": 0.29133858267716534,
                    "duration": 0.11235950000002504
                },
                {
                    "name": "F#4",
                    "midi": 66,
                    "time": 450.67395450000095,
                    "velocity": 0.30708661417322836,
                    "duration": 0.11235950000002504
                },
                {
                    "name": "C4",
                    "midi": 60,
                    "time": 450.78631400000097,
                    "velocity": 0.28346456692913385,
                    "duration": 0.11235950000002504
                },
                {
                    "name": "G#3",
                    "midi": 56,
                    "time": 450.898673500001,
                    "velocity": 0.2440944881889764,
                    "duration": 0.11235950000002504
                },
                {
                    "name": "D3",
                    "midi": 50,
                    "time": 451.011033000001,
                    "velocity": 0.2440944881889764,
                    "duration": 0.1123594999999682
                },
                {
                    "name": "G#3",
                    "midi": 56,
                    "time": 451.123392500001,
                    "velocity": 0.2440944881889764,
                    "duration": 0.11235950000002504
                },
                {
                    "name": "B3",
                    "midi": 59,
                    "time": 451.235752000001,
                    "velocity": 0.2755905511811024,
                    "duration": 0.11235950000002504
                },
                {
                    "name": "F4",
                    "midi": 65,
                    "time": 451.34811150000104,
                    "velocity": 0.29133858267716534,
                    "duration": 0.11235950000002504
                },
                {
                    "name": "B3",
                    "midi": 59,
                    "time": 451.46047100000106,
                    "velocity": 0.28346456692913385,
                    "duration": 0.11235950000002504
                },
                {
                    "name": "G#3",
                    "midi": 56,
                    "time": 451.5728305000011,
                    "velocity": 0.2677165354330709,
                    "duration": 0.11235950000002504
                },
                {
                    "name": "D3",
                    "midi": 50,
                    "time": 451.6851900000011,
                    "velocity": 0.2677165354330709,
                    "duration": 0.1123594999999682
                },
                {
                    "name": "G#3",
                    "midi": 56,
                    "time": 451.7975495000011,
                    "velocity": 0.23622047244094488,
                    "duration": 0.11235950000002504
                },
                {
                    "name": "A#3",
                    "midi": 58,
                    "time": 451.9099090000011,
                    "velocity": 0.2755905511811024,
                    "duration": 0.11235950000002504
                },
                {
                    "name": "F4",
                    "midi": 65,
                    "time": 452.02226850000113,
                    "velocity": 0.29133858267716534,
                    "duration": 0.11235950000002504
                },
                {
                    "name": "A#3",
                    "midi": 58,
                    "time": 452.13462800000116,
                    "velocity": 0.28346456692913385,
                    "duration": 0.11235950000002504
                },
                {
                    "name": "G#3",
                    "midi": 56,
                    "time": 452.2469875000012,
                    "velocity": 0.2677165354330709,
                    "duration": 0.11235950000002504
                },
                {
                    "name": "D#3",
                    "midi": 51,
                    "time": 452.3593470000012,
                    "velocity": 0.2677165354330709,
                    "duration": 0.1123594999999682
                },
                {
                    "name": "F#3",
                    "midi": 54,
                    "time": 452.4717065000012,
                    "velocity": 0.2755905511811024,
                    "duration": 0.11235950000002504
                },
                {
                    "name": "A#3",
                    "midi": 58,
                    "time": 452.5840660000012,
                    "velocity": 0.2992125984251969,
                    "duration": 0.11235950000002504
                },
                {
                    "name": "D#4",
                    "midi": 63,
                    "time": 452.6964255000012,
                    "velocity": 0.30708661417322836,
                    "duration": 0.11235950000002504
                },
                {
                    "name": "A#3",
                    "midi": 58,
                    "time": 452.80878500000125,
                    "velocity": 0.2992125984251969,
                    "duration": 0.11235950000002504
                },
                {
                    "name": "F#3",
                    "midi": 54,
                    "time": 452.9211445000013,
                    "velocity": 0.28346456692913385,
                    "duration": 0.11235950000002504
                },
                {
                    "name": "F#2",
                    "midi": 42,
                    "time": 453.0335040000013,
                    "velocity": 0.2677165354330709,
                    "duration": 0.11235950000002504
                },
                {
                    "name": "F#3",
                    "midi": 54,
                    "time": 453.1458635000013,
                    "velocity": 0.2440944881889764,
                    "duration": 0.11235950000002504
                },
                {
                    "name": "A#3",
                    "midi": 58,
                    "time": 453.25822300000135,
                    "velocity": 0.28346456692913385,
                    "duration": 0.11235950000002504
                },
                {
                    "name": "D#4",
                    "midi": 63,
                    "time": 453.3705825000014,
                    "velocity": 0.2992125984251969,
                    "duration": 0.11235950000002504
                },
                {
                    "name": "A#3",
                    "midi": 58,
                    "time": 453.4829420000014,
                    "velocity": 0.28346456692913385,
                    "duration": 0.11235950000002504
                },
                {
                    "name": "F#3",
                    "midi": 54,
                    "time": 453.5953015000014,
                    "velocity": 0.2677165354330709,
                    "duration": 0.11235950000002504
                },
                {
                    "name": "G#2",
                    "midi": 44,
                    "time": 453.70766100000145,
                    "velocity": 0.2755905511811024,
                    "duration": 0.1123594999999682
                },
                {
                    "name": "F3",
                    "midi": 53,
                    "time": 453.8200205000014,
                    "velocity": 0.28346456692913385,
                    "duration": 0.11235950000002504
                },
                {
                    "name": "G#3",
                    "midi": 56,
                    "time": 453.93238000000144,
                    "velocity": 0.29133858267716534,
                    "duration": 0.11235950000002504
                },
                {
                    "name": "C#4",
                    "midi": 61,
                    "time": 454.04473950000147,
                    "velocity": 0.30708661417322836,
                    "duration": 0.11235950000002504
                },
                {
                    "name": "G#3",
                    "midi": 56,
                    "time": 454.1570990000015,
                    "velocity": 0.29133858267716534,
                    "duration": 0.11235950000002504
                },
                {
                    "name": "F3",
                    "midi": 53,
                    "time": 454.2694585000015,
                    "velocity": 0.2755905511811024,
                    "duration": 0.11235950000002504
                },
                {
                    "name": "G#2",
                    "midi": 44,
                    "time": 454.38181800000154,
                    "velocity": 0.25984251968503935,
                    "duration": 0.11235950000002504
                },
                {
                    "name": "F3",
                    "midi": 53,
                    "time": 454.49417750000157,
                    "velocity": 0.2677165354330709,
                    "duration": 0.11235950000002504
                },
                {
                    "name": "G#3",
                    "midi": 56,
                    "time": 454.6065370000016,
                    "velocity": 0.2755905511811024,
                    "duration": 0.11235950000002504
                },
                {
                    "name": "C#4",
                    "midi": 61,
                    "time": 454.7188965000016,
                    "velocity": 0.2992125984251969,
                    "duration": 0.11235950000002504
                },
                {
                    "name": "G#3",
                    "midi": 56,
                    "time": 454.83125600000164,
                    "velocity": 0.29133858267716534,
                    "duration": 0.11235950000002504
                },
                {
                    "name": "F3",
                    "midi": 53,
                    "time": 454.94361550000167,
                    "velocity": 0.28346456692913385,
                    "duration": 0.11235950000002504
                },
                {
                    "name": "G#2",
                    "midi": 44,
                    "time": 455.0559750000017,
                    "velocity": 0.30708661417322836,
                    "duration": 0.1123594999999682
                },
                {
                    "name": "F#3",
                    "midi": 54,
                    "time": 455.16833450000166,
                    "velocity": 0.2677165354330709,
                    "duration": 0.11235950000002504
                },
                {
                    "name": "G#3",
                    "midi": 56,
                    "time": 455.2806940000017,
                    "velocity": 0.28346456692913385,
                    "duration": 0.11235950000002504
                },
                {
                    "name": "C4",
                    "midi": 60,
                    "time": 455.3930535000017,
                    "velocity": 0.28346456692913385,
                    "duration": 0.11235950000002504
                },
                {
                    "name": "G#3",
                    "midi": 56,
                    "time": 455.50541300000174,
                    "velocity": 0.2755905511811024,
                    "duration": 0.11235950000002504
                },
                {
                    "name": "F#3",
                    "midi": 54,
                    "time": 455.61777250000176,
                    "velocity": 0.2677165354330709,
                    "duration": 0.11235950000002504
                },
                {
                    "name": "G#2",
                    "midi": 44,
                    "time": 455.7301320000018,
                    "velocity": 0.2440944881889764,
                    "duration": 0.1123594999999682
                },
                {
                    "name": "F#3",
                    "midi": 54,
                    "time": 455.84249150000176,
                    "velocity": 0.2440944881889764,
                    "duration": 0.11235950000002504
                },
                {
                    "name": "G#3",
                    "midi": 56,
                    "time": 455.9548510000018,
                    "velocity": 0.2755905511811024,
                    "duration": 0.11235950000002504
                },
                {
                    "name": "C4",
                    "midi": 60,
                    "time": 456.0672105000018,
                    "velocity": 0.29133858267716534,
                    "duration": 0.11235950000002504
                },
                {
                    "name": "G#3",
                    "midi": 56,
                    "time": 456.17957000000183,
                    "velocity": 0.2755905511811024,
                    "duration": 0.11235950000002504
                },
                {
                    "name": "F#3",
                    "midi": 54,
                    "time": 456.29192950000186,
                    "velocity": 0.25984251968503935,
                    "duration": 0.11235950000002504
                },
                {
                    "name": "C#3",
                    "midi": 49,
                    "time": 456.4042890000019,
                    "velocity": 0.25984251968503935,
                    "duration": 0.11235950000002504
                },
                {
                    "name": "G#3",
                    "midi": 56,
                    "time": 456.5166485000019,
                    "velocity": 0.25984251968503935,
                    "duration": 0.11235950000002504
                },
                {
                    "name": "C#4",
                    "midi": 61,
                    "time": 456.62900800000193,
                    "velocity": 0.28346456692913385,
                    "duration": 0.11235950000002504
                },
                {
                    "name": "F4",
                    "midi": 65,
                    "time": 456.74136750000196,
                    "velocity": 0.29133858267716534,
                    "duration": 0.11235950000002504
                },
                {
                    "name": "C#4",
                    "midi": 61,
                    "time": 456.853727000002,
                    "velocity": 0.28346456692913385,
                    "duration": 0.11235950000002504
                },
                {
                    "name": "A#3",
                    "midi": 58,
                    "time": 456.966086500002,
                    "velocity": 0.2755905511811024,
                    "duration": 0.11235950000002504
                },
                {
                    "name": "G#3",
                    "midi": 56,
                    "time": 457.07844600000203,
                    "velocity": 0.28346456692913385,
                    "duration": 0.22471899999999323
                },
                {
                    "name": "C#4",
                    "midi": 61,
                    "time": 457.190805500002,
                    "velocity": 0.28346456692913385,
                    "duration": 0.11235950000002504
                },
                {
                    "name": "F4",
                    "midi": 65,
                    "time": 457.303165000002,
                    "velocity": 0.30708661417322836,
                    "duration": 0.11235950000002504
                },
                {
                    "name": "G#4",
                    "midi": 68,
                    "time": 457.41552450000205,
                    "velocity": 0.31496062992125984,
                    "duration": 0.11235950000002504
                },
                {
                    "name": "F4",
                    "midi": 65,
                    "time": 457.5278840000021,
                    "velocity": 0.30708661417322836,
                    "duration": 0.11235950000002504
                },
                {
                    "name": "C#4",
                    "midi": 61,
                    "time": 457.6402435000021,
                    "velocity": 0.2992125984251969,
                    "duration": 0.11235950000002504
                },
                {
                    "name": "F#3",
                    "midi": 54,
                    "time": 457.7526030000021,
                    "velocity": 0.2992125984251969,
                    "duration": 0.6741570000001502
                },
                {
                    "name": "G#3",
                    "midi": 56,
                    "time": 457.86496250000215,
                    "velocity": 0.33070866141732286,
                    "duration": 0.11235950000002504
                },
                {
                    "name": "C4",
                    "midi": 60,
                    "time": 457.9773220000022,
                    "velocity": 0.33070866141732286,
                    "duration": 0.11235950000002504
                },
                {
                    "name": "D#4",
                    "midi": 63,
                    "time": 458.0896815000022,
                    "velocity": 0.33070866141732286,
                    "duration": 0.11235950000002504
                },
                {
                    "name": "C4",
                    "midi": 60,
                    "time": 458.2020410000022,
                    "velocity": 0.33070866141732286,
                    "duration": 0.11235950000002504
                },
                {
                    "name": "G#3",
                    "midi": 56,
                    "time": 458.31440050000225,
                    "velocity": 0.33070866141732286,
                    "duration": 0.11235950000002504
                },
                {
                    "name": "F#3",
                    "midi": 54,
                    "time": 458.4267600000023,
                    "velocity": 0.3228346456692913,
                    "duration": 0.6741570000001502
                },
                {
                    "name": "G#3",
                    "midi": 56,
                    "time": 458.5391195000023,
                    "velocity": 0.3543307086614173,
                    "duration": 0.11235950000002504
                },
                {
                    "name": "C4",
                    "midi": 60,
                    "time": 458.6514790000023,
                    "velocity": 0.3543307086614173,
                    "duration": 0.11235950000002504
                },
                {
                    "name": "D#4",
                    "midi": 63,
                    "time": 458.76383850000235,
                    "velocity": 0.3543307086614173,
                    "duration": 0.11235950000002504
                },
                {
                    "name": "C4",
                    "midi": 60,
                    "time": 458.8761980000024,
                    "velocity": 0.3228346456692913,
                    "duration": 0.11235950000002504
                },
                {
                    "name": "G#3",
                    "midi": 56,
                    "time": 458.9885575000024,
                    "velocity": 0.2992125984251969,
                    "duration": 0.11235950000002504
                },
                {
                    "name": "F3",
                    "midi": 53,
                    "time": 459.1009170000024,
                    "velocity": 0.29133858267716534,
                    "duration": 0.6741570000001502
                },
                {
                    "name": "G#3",
                    "midi": 56,
                    "time": 459.21327650000245,
                    "velocity": 0.28346456692913385,
                    "duration": 0.11235950000002504
                },
                {
                    "name": "C#4",
                    "midi": 61,
                    "time": 459.3256360000025,
                    "velocity": 0.30708661417322836,
                    "duration": 0.11235950000002504
                },
                {
                    "name": "F4",
                    "midi": 65,
                    "time": 459.4379955000025,
                    "velocity": 0.33070866141732286,
                    "duration": 0.11235950000002504
                },
                {
                    "name": "C#4",
                    "midi": 61,
                    "time": 459.5503550000025,
                    "velocity": 0.31496062992125984,
                    "duration": 0.11235950000002504
                },
                {
                    "name": "G#3",
                    "midi": 56,
                    "time": 459.66271450000255,
                    "velocity": 0.2992125984251969,
                    "duration": 0.11235950000002504
                },
                {
                    "name": "F3",
                    "midi": 53,
                    "time": 459.7750740000026,
                    "velocity": 0.30708661417322836,
                    "duration": 0.11235950000002504
                },
                {
                    "name": "G#3",
                    "midi": 56,
                    "time": 459.8874335000026,
                    "velocity": 0.3228346456692913,
                    "duration": 0.11235950000002504
                },
                {
                    "name": "C#4",
                    "midi": 61,
                    "time": 459.9997930000026,
                    "velocity": 0.3543307086614173,
                    "duration": 0.11235950000002504
                },
                {
                    "name": "G#4",
                    "midi": 68,
                    "time": 460.11215250000265,
                    "velocity": 0.36220472440944884,
                    "duration": 0.11235950000002504
                },
                {
                    "name": "C#4",
                    "midi": 61,
                    "time": 460.2245120000027,
                    "velocity": 0.3464566929133858,
                    "duration": 0.11235950000002504
                },
                {
                    "name": "G#3",
                    "midi": 56,
                    "time": 460.3368715000027,
                    "velocity": 0.31496062992125984,
                    "duration": 0.11235950000002504
                },
                {
                    "name": "D#3",
                    "midi": 51,
                    "time": 460.4492310000027,
                    "velocity": 0.30708661417322836,
                    "duration": 0.11235950000002504
                },
                {
                    "name": "G#3",
                    "midi": 56,
                    "time": 460.56159050000275,
                    "velocity": 0.3228346456692913,
                    "duration": 0.11235950000002504
                },
                {
                    "name": "C4",
                    "midi": 60,
                    "time": 460.6739500000028,
                    "velocity": 0.3543307086614173,
                    "duration": 0.11235950000002504
                },
                {
                    "name": "F#4",
                    "midi": 66,
                    "time": 460.7863095000028,
                    "velocity": 0.3543307086614173,
                    "duration": 0.11235950000002504
                },
                {
                    "name": "C4",
                    "midi": 60,
                    "time": 460.8986690000028,
                    "velocity": 0.33070866141732286,
                    "duration": 0.11235950000002504
                },
                {
                    "name": "G#3",
                    "midi": 56,
                    "time": 461.01102850000285,
                    "velocity": 0.30708661417322836,
                    "duration": 0.11235950000002504
                },
                {
                    "name": "D#3",
                    "midi": 51,
                    "time": 461.1233880000029,
                    "velocity": 0.2992125984251969,
                    "duration": 0.1123594999999682
                },
                {
                    "name": "G#3",
                    "midi": 56,
                    "time": 461.23574750000284,
                    "velocity": 0.29133858267716534,
                    "duration": 0.1123594999999682
                },
                {
                    "name": "C4",
                    "midi": 60,
                    "time": 461.3481070000028,
                    "velocity": 0.31496062992125984,
                    "duration": 0.11235950000002504
                },
                {
                    "name": "F#4",
                    "midi": 66,
                    "time": 461.46046650000284,
                    "velocity": 0.33070866141732286,
                    "duration": 0.11235950000002504
                },
                {
                    "name": "C4",
                    "midi": 60,
                    "time": 461.57282600000286,
                    "velocity": 0.30708661417322836,
                    "duration": 0.11235950000002504
                },
                {
                    "name": "G#3",
                    "midi": 56,
                    "time": 461.6851855000029,
                    "velocity": 0.2677165354330709,
                    "duration": 0.11235950000002504
                },
                {
                    "name": "D3",
                    "midi": 50,
                    "time": 461.7975450000029,
                    "velocity": 0.2755905511811024,
                    "duration": 0.11235950000002504
                },
                {
                    "name": "G#3",
                    "midi": 56,
                    "time": 461.90990450000294,
                    "velocity": 0.29133858267716534,
                    "duration": 0.11235950000002504
                },
                {
                    "name": "B3",
                    "midi": 59,
                    "time": 462.02226400000296,
                    "velocity": 0.3228346456692913,
                    "duration": 0.11235950000002504
                },
                {
                    "name": "F4",
                    "midi": 65,
                    "time": 462.134623500003,
                    "velocity": 0.3464566929133858,
                    "duration": 0.11235950000002504
                },
                {
                    "name": "B3",
                    "midi": 59,
                    "time": 462.246983000003,
                    "velocity": 0.33070866141732286,
                    "duration": 0.11235950000002504
                },
                {
                    "name": "G#3",
                    "midi": 56,
                    "time": 462.35934250000304,
                    "velocity": 0.31496062992125984,
                    "duration": 0.11235950000002504
                },
                {
                    "name": "D3",
                    "midi": 50,
                    "time": 462.47170200000306,
                    "velocity": 0.2755905511811024,
                    "duration": 0.11235950000002504
                },
                {
                    "name": "G#3",
                    "midi": 56,
                    "time": 462.5840615000031,
                    "velocity": 0.28346456692913385,
                    "duration": 0.11235950000002504
                },
                {
                    "name": "A#3",
                    "midi": 58,
                    "time": 462.6964210000031,
                    "velocity": 0.3228346456692913,
                    "duration": 0.11235950000002504
                },
                {
                    "name": "F4",
                    "midi": 65,
                    "time": 462.80878050000314,
                    "velocity": 0.3464566929133858,
                    "duration": 0.11235950000002504
                },
                {
                    "name": "A#3",
                    "midi": 58,
                    "time": 462.92114000000316,
                    "velocity": 0.33070866141732286,
                    "duration": 0.11235950000002504
                },
                {
                    "name": "G#3",
                    "midi": 56,
                    "time": 463.0334995000032,
                    "velocity": 0.31496062992125984,
                    "duration": 0.11235950000002504
                },
                {
                    "name": "D#3",
                    "midi": 51,
                    "time": 463.1458590000032,
                    "velocity": 0.29133858267716534,
                    "duration": 0.11235950000002504
                },
                {
                    "name": "F#3",
                    "midi": 54,
                    "time": 463.25821850000324,
                    "velocity": 0.2992125984251969,
                    "duration": 0.11235950000002504
                },
                {
                    "name": "A#3",
                    "midi": 58,
                    "time": 463.37057800000326,
                    "velocity": 0.3228346456692913,
                    "duration": 0.11235950000002504
                },
                {
                    "name": "D#4",
                    "midi": 63,
                    "time": 463.4829375000033,
                    "velocity": 0.33070866141732286,
                    "duration": 0.11235950000002504
                },
                {
                    "name": "A#3",
                    "midi": 58,
                    "time": 463.5952970000033,
                    "velocity": 0.3228346456692913,
                    "duration": 0.11235950000002504
                },
                {
                    "name": "F#3",
                    "midi": 54,
                    "time": 463.70765650000334,
                    "velocity": 0.30708661417322836,
                    "duration": 0.11235950000002504
                },
                {
                    "name": "F#2",
                    "midi": 42,
                    "time": 463.82001600000336,
                    "velocity": 0.29133858267716534,
                    "duration": 0.11235950000002504
                },
                {
                    "name": "F#3",
                    "midi": 54,
                    "time": 463.9323755000034,
                    "velocity": 0.2677165354330709,
                    "duration": 0.11235950000002504
                },
                {
                    "name": "A#3",
                    "midi": 58,
                    "time": 464.0447350000034,
                    "velocity": 0.30708661417322836,
                    "duration": 0.11235950000002504
                },
                {
                    "name": "D#4",
                    "midi": 63,
                    "time": 464.15709450000344,
                    "velocity": 0.3228346456692913,
                    "duration": 0.11235950000002504
                },
                {
                    "name": "A#3",
                    "midi": 58,
                    "time": 464.26945400000346,
                    "velocity": 0.30708661417322836,
                    "duration": 0.11235950000002504
                },
                {
                    "name": "F#3",
                    "midi": 54,
                    "time": 464.3818135000035,
                    "velocity": 0.29133858267716534,
                    "duration": 0.11235950000002504
                },
                {
                    "name": "G#2",
                    "midi": 44,
                    "time": 464.4941730000035,
                    "velocity": 0.29133858267716534,
                    "duration": 0.1123594999999682
                },
                {
                    "name": "F3",
                    "midi": 53,
                    "time": 464.6065325000035,
                    "velocity": 0.30708661417322836,
                    "duration": 0.11235950000002504
                },
                {
                    "name": "G#3",
                    "midi": 56,
                    "time": 464.7188920000035,
                    "velocity": 0.31496062992125984,
                    "duration": 0.11235950000002504
                },
                {
                    "name": "C#4",
                    "midi": 61,
                    "time": 464.83125150000353,
                    "velocity": 0.33070866141732286,
                    "duration": 0.11235950000002504
                },
                {
                    "name": "G#3",
                    "midi": 56,
                    "time": 464.94361100000356,
                    "velocity": 0.31496062992125984,
                    "duration": 0.11235950000002504
                },
                {
                    "name": "F3",
                    "midi": 53,
                    "time": 465.0559705000036,
                    "velocity": 0.2992125984251969,
                    "duration": 0.11235950000002504
                },
                {
                    "name": "G#2",
                    "midi": 44,
                    "time": 465.1683300000036,
                    "velocity": 0.2755905511811024,
                    "duration": 0.1123594999999682
                },
                {
                    "name": "F3",
                    "midi": 53,
                    "time": 465.2806895000036,
                    "velocity": 0.2755905511811024,
                    "duration": 0.11235950000002504
                },
                {
                    "name": "G#3",
                    "midi": 56,
                    "time": 465.3930490000036,
                    "velocity": 0.29133858267716534,
                    "duration": 0.11235950000002504
                },
                {
                    "name": "C#4",
                    "midi": 61,
                    "time": 465.5054085000036,
                    "velocity": 0.30708661417322836,
                    "duration": 0.11235950000002504
                },
                {
                    "name": "G#3",
                    "midi": 56,
                    "time": 465.61776800000365,
                    "velocity": 0.29133858267716534,
                    "duration": 0.11235950000002504
                },
                {
                    "name": "F3",
                    "midi": 53,
                    "time": 465.7301275000037,
                    "velocity": 0.2755905511811024,
                    "duration": 0.11235950000002504
                },
                {
                    "name": "G#2",
                    "midi": 44,
                    "time": 465.8424870000037,
                    "velocity": 0.2992125984251969,
                    "duration": 0.11235950000002504
                },
                {
                    "name": "F3",
                    "midi": 53,
                    "time": 465.9548465000037,
                    "velocity": 0.29133858267716534,
                    "duration": 0.11235950000002504
                },
                {
                    "name": "G#3",
                    "midi": 56,
                    "time": 466.06720600000375,
                    "velocity": 0.30708661417322836,
                    "duration": 0.11235950000002504
                },
                {
                    "name": "D4",
                    "midi": 62,
                    "time": 466.1795655000038,
                    "velocity": 0.3228346456692913,
                    "duration": 0.11235950000002504
                },
                {
                    "name": "G#3",
                    "midi": 56,
                    "time": 466.2919250000038,
                    "velocity": 0.30708661417322836,
                    "duration": 0.11235950000002504
                },
                {
                    "name": "F3",
                    "midi": 53,
                    "time": 466.4042845000038,
                    "velocity": 0.28346456692913385,
                    "duration": 0.11235950000002504
                },
                {
                    "name": "G#2",
                    "midi": 44,
                    "time": 466.51664400000385,
                    "velocity": 0.31496062992125984,
                    "duration": 0.1123594999999682
                },
                {
                    "name": "F3",
                    "midi": 53,
                    "time": 466.6290035000038,
                    "velocity": 0.30708661417322836,
                    "duration": 0.11235950000002504
                },
                {
                    "name": "G#3",
                    "midi": 56,
                    "time": 466.74136300000384,
                    "velocity": 0.33858267716535434,
                    "duration": 0.11235950000002504
                },
                {
                    "name": "D4",
                    "midi": 62,
                    "time": 466.85372250000387,
                    "velocity": 0.3779527559055118,
                    "duration": 0.11235950000002504
                },
                {
                    "name": "G#3",
                    "midi": 56,
                    "time": 466.9660820000039,
                    "velocity": 0.3543307086614173,
                    "duration": 0.11235950000002504
                },
                {
                    "name": "F3",
                    "midi": 53,
                    "time": 467.0784415000039,
                    "velocity": 0.3228346456692913,
                    "duration": 0.11235950000002504
                },
                {
                    "name": "G#2",
                    "midi": 44,
                    "time": 467.19080100000394,
                    "velocity": 0.31496062992125984,
                    "duration": 0.11235950000002504
                },
                {
                    "name": "F3",
                    "midi": 53,
                    "time": 467.30316050000397,
                    "velocity": 0.31496062992125984,
                    "duration": 0.11235950000002504
                },
                {
                    "name": "G#3",
                    "midi": 56,
                    "time": 467.415520000004,
                    "velocity": 0.33858267716535434,
                    "duration": 0.11235950000002504
                },
                {
                    "name": "D4",
                    "midi": 62,
                    "time": 467.527879500004,
                    "velocity": 0.3543307086614173,
                    "duration": 0.11235950000002504
                },
                {
                    "name": "G#3",
                    "midi": 56,
                    "time": 467.64023900000404,
                    "velocity": 0.33070866141732286,
                    "duration": 0.11235950000002504
                },
                {
                    "name": "F3",
                    "midi": 53,
                    "time": 467.75259850000407,
                    "velocity": 0.28346456692913385,
                    "duration": 0.11235950000002504
                },
                {
                    "name": "G#2",
                    "midi": 44,
                    "time": 467.8649580000041,
                    "velocity": 0.4094488188976378,
                    "duration": 0.11235950000002504
                },
                {
                    "name": "F3",
                    "midi": 53,
                    "time": 467.9773175000041,
                    "velocity": 0.31496062992125984,
                    "duration": 0.11235950000002504
                },
                {
                    "name": "G#3",
                    "midi": 56,
                    "time": 468.08967700000414,
                    "velocity": 0.33858267716535434,
                    "duration": 0.11235950000002504
                },
                {
                    "name": "D4",
                    "midi": 62,
                    "time": 468.20203650000417,
                    "velocity": 0.3700787401574803,
                    "duration": 0.11235950000002504
                },
                {
                    "name": "G#3",
                    "midi": 56,
                    "time": 468.3143960000042,
                    "velocity": 0.3464566929133858,
                    "duration": 0.11235950000002504
                },
                {
                    "name": "F3",
                    "midi": 53,
                    "time": 468.4267555000042,
                    "velocity": 0.31496062992125984,
                    "duration": 0.11235950000002504
                },
                {
                    "name": "G#2",
                    "midi": 44,
                    "time": 468.53911500000424,
                    "velocity": 0.4251968503937008,
                    "duration": 0.11235950000002504
                },
                {
                    "name": "D#3",
                    "midi": 51,
                    "time": 468.65147450000427,
                    "velocity": 0.33858267716535434,
                    "duration": 0.11235950000002504
                },
                {
                    "name": "F#3",
                    "midi": 54,
                    "time": 468.7638340000043,
                    "velocity": 0.3700787401574803,
                    "duration": 0.11235950000002504
                },
                {
                    "name": "D#4",
                    "midi": 63,
                    "time": 468.8761935000043,
                    "velocity": 0.3937007874015748,
                    "duration": 0.11235950000002504
                },
                {
                    "name": "F#3",
                    "midi": 54,
                    "time": 468.98855300000434,
                    "velocity": 0.36220472440944884,
                    "duration": 0.11235950000002504
                },
                {
                    "name": "D#3",
                    "midi": 51,
                    "time": 469.10091250000437,
                    "velocity": 0.33858267716535434,
                    "duration": 0.11235950000002504
                },
                {
                    "name": "G#2",
                    "midi": 44,
                    "time": 469.2132720000044,
                    "velocity": 0.4409448818897638,
                    "duration": 0.11235950000002504
                },
                {
                    "name": "E3",
                    "midi": 52,
                    "time": 469.3256315000044,
                    "velocity": 0.3700787401574803,
                    "duration": 0.11235950000002504
                },
                {
                    "name": "G3",
                    "midi": 55,
                    "time": 469.43799100000444,
                    "velocity": 0.3858267716535433,
                    "duration": 0.11235950000002504
                },
                {
                    "name": "E4",
                    "midi": 64,
                    "time": 469.55035050000447,
                    "velocity": 0.4015748031496063,
                    "duration": 0.11235950000002504
                },
                {
                    "name": "G3",
                    "midi": 55,
                    "time": 469.6627100000045,
                    "velocity": 0.3858267716535433,
                    "duration": 0.11235950000002504
                },
                {
                    "name": "E3",
                    "midi": 52,
                    "time": 469.7750695000045,
                    "velocity": 0.3700787401574803,
                    "duration": 0.11235950000002504
                },
                {
                    "name": "G#2",
                    "midi": 44,
                    "time": 469.88742900000454,
                    "velocity": 0.44881889763779526,
                    "duration": 0.11235950000002504
                },
                {
                    "name": "E3",
                    "midi": 52,
                    "time": 469.99978850000457,
                    "velocity": 0.3779527559055118,
                    "duration": 0.11235950000002504
                },
                {
                    "name": "G3",
                    "midi": 55,
                    "time": 470.1121480000046,
                    "velocity": 0.4015748031496063,
                    "duration": 0.11235950000002504
                },
                {
                    "name": "E4",
                    "midi": 64,
                    "time": 470.2245075000046,
                    "velocity": 0.41732283464566927,
                    "duration": 0.11235950000002504
                },
                {
                    "name": "G3",
                    "midi": 55,
                    "time": 470.33686700000464,
                    "velocity": 0.4015748031496063,
                    "duration": 0.11235950000002504
                },
                {
                    "name": "E3",
                    "midi": 52,
                    "time": 470.44922650000467,
                    "velocity": 0.3858267716535433,
                    "duration": 0.11235950000002504
                },
                {
                    "name": "G#2",
                    "midi": 44,
                    "time": 470.5615860000047,
                    "velocity": 0.48031496062992124,
                    "duration": 0.11235950000002504
                },
                {
                    "name": "E3",
                    "midi": 52,
                    "time": 470.6739455000047,
                    "velocity": 0.4015748031496063,
                    "duration": 0.11235950000002504
                },
                {
                    "name": "G3",
                    "midi": 55,
                    "time": 470.78630500000475,
                    "velocity": 0.4251968503937008,
                    "duration": 0.11235950000002504
                },
                {
                    "name": "E4",
                    "midi": 64,
                    "time": 470.89866450000477,
                    "velocity": 0.4409448818897638,
                    "duration": 0.11235950000002504
                },
                {
                    "name": "G3",
                    "midi": 55,
                    "time": 471.0110240000048,
                    "velocity": 0.4251968503937008,
                    "duration": 0.11235950000002504
                },
                {
                    "name": "E3",
                    "midi": 52,
                    "time": 471.1233835000048,
                    "velocity": 0.4015748031496063,
                    "duration": 0.11235950000002504
                },
                {
                    "name": "G#2",
                    "midi": 44,
                    "time": 471.23574300000485,
                    "velocity": 0.5039370078740157,
                    "duration": 0.11235950000002504
                },
                {
                    "name": "F3",
                    "midi": 53,
                    "time": 471.34810250000487,
                    "velocity": 0.4251968503937008,
                    "duration": 0.11235950000002504
                },
                {
                    "name": "G#3",
                    "midi": 56,
                    "time": 471.4604620000049,
                    "velocity": 0.4409448818897638,
                    "duration": 0.11235950000002504
                },
                {
                    "name": "F4",
                    "midi": 65,
                    "time": 471.5728215000049,
                    "velocity": 0.4645669291338583,
                    "duration": 0.11235950000002504
                },
                {
                    "name": "G#3",
                    "midi": 56,
                    "time": 471.68518100000495,
                    "velocity": 0.4330708661417323,
                    "duration": 0.11235950000002504
                },
                {
                    "name": "F3",
                    "midi": 53,
                    "time": 471.79754050000497,
                    "velocity": 0.4094488188976378,
                    "duration": 0.11235950000002504
                },
                {
                    "name": "G#2",
                    "midi": 44,
                    "time": 471.909900000005,
                    "velocity": 0.5275590551181102,
                    "duration": 0.11235950000002504
                },
                {
                    "name": "D#3",
                    "midi": 51,
                    "time": 472.022259500005,
                    "velocity": 0.4330708661417323,
                    "duration": 0.11235950000002504
                },
                {
                    "name": "F#3",
                    "midi": 54,
                    "time": 472.13461900000505,
                    "velocity": 0.44881889763779526,
                    "duration": 0.11235950000002504
                },
                {
                    "name": "C4",
                    "midi": 60,
                    "time": 472.24697850000507,
                    "velocity": 0.47244094488188976,
                    "duration": 0.11235950000002504
                },
                {
                    "name": "F#3",
                    "midi": 54,
                    "time": 472.3593380000051,
                    "velocity": 0.4566929133858268,
                    "duration": 0.11235950000002504
                },
                {
                    "name": "D#3",
                    "midi": 51,
                    "time": 472.4716975000051,
                    "velocity": 0.4330708661417323,
                    "duration": 0.11235950000002504
                },
                {
                    "name": "G#2",
                    "midi": 44,
                    "time": 472.58405700000515,
                    "velocity": 0.5354330708661418,
                    "duration": 0.11235950000008188
                },
                {
                    "name": "B2",
                    "midi": 47,
                    "time": 472.6964165000052,
                    "velocity": 0.44881889763779526,
                    "duration": 0.11235950000002504
                },
                {
                    "name": "F3",
                    "midi": 53,
                    "time": 472.80877600000525,
                    "velocity": 0.4645669291338583,
                    "duration": 0.11235950000002504
                },
                {
                    "name": "B3",
                    "midi": 59,
                    "time": 472.9211355000053,
                    "velocity": 0.47244094488188976,
                    "duration": 0.11235950000002504
                },
                {
                    "name": "F3",
                    "midi": 53,
                    "time": 473.0334950000053,
                    "velocity": 0.4645669291338583,
                    "duration": 0.11235950000002504
                },
                {
                    "name": "B2",
                    "midi": 47,
                    "time": 473.1458545000053,
                    "velocity": 0.44881889763779526,
                    "duration": 0.11235950000002504
                },
                {
                    "name": "G#2",
                    "midi": 44,
                    "time": 473.25821400000535,
                    "velocity": 0.5354330708661418,
                    "duration": 0.11235950000008188
                },
                {
                    "name": "F3",
                    "midi": 53,
                    "time": 473.37057350000543,
                    "velocity": 0.4409448818897638,
                    "duration": 0.11235950000002504
                },
                {
                    "name": "G#3",
                    "midi": 56,
                    "time": 473.48293300000546,
                    "velocity": 0.47244094488188976,
                    "duration": 0.11235950000002504
                },
                {
                    "name": "D4",
                    "midi": 62,
                    "time": 473.5952925000055,
                    "velocity": 0.4881889763779528,
                    "duration": 0.11235950000002504
                },
                {
                    "name": "G#3",
                    "midi": 56,
                    "time": 473.7076520000055,
                    "velocity": 0.47244094488188976,
                    "duration": 0.11235950000002504
                },
                {
                    "name": "F3",
                    "midi": 53,
                    "time": 473.82001150000553,
                    "velocity": 0.44881889763779526,
                    "duration": 0.11235950000002504
                },
                {
                    "name": "G#2",
                    "midi": 44,
                    "time": 473.93237100000556,
                    "velocity": 0.5511811023622047,
                    "duration": 0.11235950000002504
                },
                {
                    "name": "C#3",
                    "midi": 49,
                    "time": 474.0447305000056,
                    "velocity": 0.4645669291338583,
                    "duration": 0.11235950000002504
                },
                {
                    "name": "G3",
                    "midi": 55,
                    "time": 474.1570900000056,
                    "velocity": 0.4881889763779528,
                    "duration": 0.11235950000002504
                },
                {
                    "name": "C#4",
                    "midi": 61,
                    "time": 474.26944950000563,
                    "velocity": 0.5118110236220472,
                    "duration": 0.11235950000002504
                },
                {
                    "name": "G3",
                    "midi": 55,
                    "time": 474.38180900000566,
                    "velocity": 0.4881889763779528,
                    "duration": 0.11235950000002504
                },
                {
                    "name": "C#3",
                    "midi": 49,
                    "time": 474.4941685000057,
                    "velocity": 0.4645669291338583,
                    "duration": 0.11235950000002504
                },
                {
                    "name": "G#2",
                    "midi": 44,
                    "time": 474.6065280000057,
                    "velocity": 0.5669291338582677,
                    "duration": 0.1123594999999682
                },
                {
                    "name": "E3",
                    "midi": 52,
                    "time": 474.7188875000057,
                    "velocity": 0.4645669291338583,
                    "duration": 0.11235950000002504
                },
                {
                    "name": "A#3",
                    "midi": 58,
                    "time": 474.8312470000057,
                    "velocity": 0.5039370078740157,
                    "duration": 0.11235950000002504
                },
                {
                    "name": "E4",
                    "midi": 64,
                    "time": 474.9436065000057,
                    "velocity": 0.5196850393700787,
                    "duration": 0.11235950000002504
                },
                {
                    "name": "A#3",
                    "midi": 58,
                    "time": 475.05596600000575,
                    "velocity": 0.4881889763779528,
                    "duration": 0.11235950000002504
                },
                {
                    "name": "E3",
                    "midi": 52,
                    "time": 475.1683255000058,
                    "velocity": 0.4645669291338583,
                    "duration": 0.11235950000002504
                },
                {
                    "name": "G#2",
                    "midi": 44,
                    "time": 475.2806850000058,
                    "velocity": 0.5669291338582677,
                    "duration": 0.11235950000002504
                },
                {
                    "name": "D#3",
                    "midi": 51,
                    "time": 475.39304450000583,
                    "velocity": 0.4566929133858268,
                    "duration": 0.11235950000002504
                },
                {
                    "name": "F#3",
                    "midi": 54,
                    "time": 475.50540400000585,
                    "velocity": 0.49606299212598426,
                    "duration": 0.11235950000002504
                },
                {
                    "name": "D#4",
                    "midi": 63,
                    "time": 475.6177635000059,
                    "velocity": 0.5354330708661418,
                    "duration": 0.11235950000002504
                },
                {
                    "name": "F#3",
                    "midi": 54,
                    "time": 475.7301230000059,
                    "velocity": 0.5118110236220472,
                    "duration": 0.11235950000002504
                },
                {
                    "name": "D#3",
                    "midi": 51,
                    "time": 475.84248250000593,
                    "velocity": 0.4881889763779528,
                    "duration": 0.11235950000002504
                },
                {
                    "name": "G#2",
                    "midi": 44,
                    "time": 475.95484200000595,
                    "velocity": 0.5669291338582677,
                    "duration": 0.1123594999999682
                },
                {
                    "name": "D#3",
                    "midi": 51,
                    "time": 476.0672015000059,
                    "velocity": 0.47244094488188976,
                    "duration": 0.11235950000002504
                },
                {
                    "name": "F#3",
                    "midi": 54,
                    "time": 476.17956100000595,
                    "velocity": 0.5039370078740157,
                    "duration": 0.11235950000002504
                },
                {
                    "name": "C4",
                    "midi": 60,
                    "time": 476.291920500006,
                    "velocity": 0.5433070866141733,
                    "duration": 0.11235950000002504
                },
                {
                    "name": "F#3",
                    "midi": 54,
                    "time": 476.404280000006,
                    "velocity": 0.5118110236220472,
                    "duration": 0.11235950000002504
                },
                {
                    "name": "D#3",
                    "midi": 51,
                    "time": 476.516639500006,
                    "velocity": 0.49606299212598426,
                    "duration": 0.11235950000002504
                },
                {
                    "name": "C#2",
                    "midi": 37,
                    "time": 476.62899900000605,
                    "velocity": 0.6141732283464567,
                    "duration": 0.16853925000003755
                },
                {
                    "name": "G#2",
                    "midi": 44,
                    "time": 477.08218231667274,
                    "velocity": 0.5354330708661418,
                    "duration": 0.1123594999999682
                },
                {
                    "name": "D#3",
                    "midi": 51,
                    "time": 477.19079650000606,
                    "velocity": 0.5354330708661418,
                    "duration": 0.1123594999999682
                },
                {
                    "name": "C#4",
                    "midi": 61,
                    "time": 477.303156000006,
                    "velocity": 0.6535433070866141,
                    "duration": 0.22471899999999323
                },
                {
                    "name": "G#1",
                    "midi": 32,
                    "time": 477.977313000006,
                    "velocity": 0.6850393700787402,
                    "duration": 0.11235950000002504
                },
                {
                    "name": "G#2",
                    "midi": 44,
                    "time": 478.42675100000605,
                    "velocity": 0.5354330708661418,
                    "duration": 0.11235950000002504
                },
                {
                    "name": "D#3",
                    "midi": 51,
                    "time": 478.5391105000061,
                    "velocity": 0.5826771653543307,
                    "duration": 0.11235950000002504
                },
                {
                    "name": "C4",
                    "midi": 60,
                    "time": 478.6514700000061,
                    "velocity": 0.6614173228346457,
                    "duration": 0.22471899999999323
                },
                {
                    "name": "C#2",
                    "midi": 37,
                    "time": 479.3256270000061,
                    "velocity": 0.6850393700787402,
                    "duration": 0.11235950000002504
                },
                {
                    "name": "G#2",
                    "midi": 44,
                    "time": 479.7750650000061,
                    "velocity": 0.5511811023622047,
                    "duration": 0.11235950000002504
                },
                {
                    "name": "F3",
                    "midi": 53,
                    "time": 479.88742450000615,
                    "velocity": 0.5905511811023622,
                    "duration": 0.11235950000002504
                },
                {
                    "name": "C#4",
                    "midi": 61,
                    "time": 479.9997840000062,
                    "velocity": 0.6535433070866141,
                    "duration": 0.22471899999999323
                },
                {
                    "name": "G#1",
                    "midi": 32,
                    "time": 480.67394100000615,
                    "velocity": 0.6850393700787402,
                    "duration": 0.11235950000002504
                },
                {
                    "name": "G#2",
                    "midi": 44,
                    "time": 481.1233790000062,
                    "velocity": 0.5354330708661418,
                    "duration": 0.11235950000002504
                },
                {
                    "name": "D#3",
                    "midi": 51,
                    "time": 481.2357385000062,
                    "velocity": 0.5826771653543307,
                    "duration": 0.11235950000002504
                },
                {
                    "name": "C4",
                    "midi": 60,
                    "time": 481.34809800000625,
                    "velocity": 0.6614173228346457,
                    "duration": 0.22471899999999323
                },
                {
                    "name": "A1",
                    "midi": 33,
                    "time": 482.0222550000062,
                    "velocity": 0.7637795275590551,
                    "duration": 0.11235950000002504
                },
                {
                    "name": "A2",
                    "midi": 45,
                    "time": 482.0222550000062,
                    "velocity": 0.7637795275590551,
                    "duration": 0.11235950000002504
                },
                {
                    "name": "D#2",
                    "midi": 39,
                    "time": 482.2469740000063,
                    "velocity": 0.6456692913385826,
                    "duration": 0.22471899999999323
                },
                {
                    "name": "D#3",
                    "midi": 51,
                    "time": 482.2469740000063,
                    "velocity": 0.6456692913385826,
                    "duration": 0.22471899999999323
                },
                {
                    "name": "E2",
                    "midi": 40,
                    "time": 482.47169300000627,
                    "velocity": 0.7086614173228346,
                    "duration": 0.22471899999999323
                },
                {
                    "name": "E3",
                    "midi": 52,
                    "time": 482.47169300000627,
                    "velocity": 0.7086614173228346,
                    "duration": 0.22471899999999323
                },
                {
                    "name": "E2",
                    "midi": 40,
                    "time": 482.69641200000626,
                    "velocity": 0.7086614173228346,
                    "duration": 0.6741569999999797
                },
                {
                    "name": "E3",
                    "midi": 52,
                    "time": 482.69641200000626,
                    "velocity": 0.7086614173228346,
                    "duration": 0.6741569999999797
                },
                {
                    "name": "D#2",
                    "midi": 39,
                    "time": 483.59528800000624,
                    "velocity": 0.6062992125984252,
                    "duration": 0.22471899999999323
                },
                {
                    "name": "E2",
                    "midi": 40,
                    "time": 483.8200070000062,
                    "velocity": 0.6062992125984252,
                    "duration": 0.22471899999999323
                },
                {
                    "name": "A1",
                    "midi": 33,
                    "time": 484.0447260000062,
                    "velocity": 0.6377952755905512,
                    "duration": 0.44943799999998646
                },
                {
                    "name": "F2",
                    "midi": 41,
                    "time": 484.0447260000062,
                    "velocity": 0.6377952755905512,
                    "duration": 0.44943799999998646
                },
                {
                    "name": "E2",
                    "midi": 40,
                    "time": 484.4941640000062,
                    "velocity": 0.5905511811023622,
                    "duration": 0.22471899999999323
                },
                {
                    "name": "A1",
                    "midi": 33,
                    "time": 484.4941640000062,
                    "velocity": 0.5905511811023622,
                    "duration": 0.22471899999999323
                },
                {
                    "name": "A1",
                    "midi": 33,
                    "time": 484.7188830000062,
                    "velocity": 0.7637795275590551,
                    "duration": 0.11235950000002504
                },
                {
                    "name": "A2",
                    "midi": 45,
                    "time": 484.7188830000062,
                    "velocity": 0.7637795275590551,
                    "duration": 0.11235950000002504
                },
                {
                    "name": "D#2",
                    "midi": 39,
                    "time": 484.94360200000625,
                    "velocity": 0.6456692913385826,
                    "duration": 0.22471899999999323
                },
                {
                    "name": "D#3",
                    "midi": 51,
                    "time": 484.94360200000625,
                    "velocity": 0.6456692913385826,
                    "duration": 0.22471899999999323
                },
                {
                    "name": "E2",
                    "midi": 40,
                    "time": 485.16832100000624,
                    "velocity": 0.7086614173228346,
                    "duration": 0.22471899999999323
                },
                {
                    "name": "E3",
                    "midi": 52,
                    "time": 485.16832100000624,
                    "velocity": 0.7086614173228346,
                    "duration": 0.22471899999999323
                },
                {
                    "name": "E2",
                    "midi": 40,
                    "time": 485.39304000000624,
                    "velocity": 0.7086614173228346,
                    "duration": 0.6741569999999797
                },
                {
                    "name": "E3",
                    "midi": 52,
                    "time": 485.39304000000624,
                    "velocity": 0.7086614173228346,
                    "duration": 0.6741569999999797
                },
                {
                    "name": "D#2",
                    "midi": 39,
                    "time": 486.2919160000062,
                    "velocity": 0.6062992125984252,
                    "duration": 0.22471899999999323
                },
                {
                    "name": "E2",
                    "midi": 40,
                    "time": 486.5166350000062,
                    "velocity": 0.6062992125984252,
                    "duration": 0.22471899999999323
                },
                {
                    "name": "A1",
                    "midi": 33,
                    "time": 486.7413540000062,
                    "velocity": 0.6377952755905512,
                    "duration": 0.4494380000000433
                },
                {
                    "name": "F2",
                    "midi": 41,
                    "time": 486.7413540000062,
                    "velocity": 0.6377952755905512,
                    "duration": 0.4494380000000433
                },
                {
                    "name": "E2",
                    "midi": 40,
                    "time": 487.19079200000624,
                    "velocity": 0.5905511811023622,
                    "duration": 0.22471899999999323
                },
                {
                    "name": "A1",
                    "midi": 33,
                    "time": 487.19079200000624,
                    "velocity": 0.5905511811023622,
                    "duration": 0.22471899999999323
                },
                {
                    "name": "A1",
                    "midi": 33,
                    "time": 487.41551100000623,
                    "velocity": 0.6850393700787402,
                    "duration": 0.1685392499999807
                },
                {
                    "name": "F2",
                    "midi": 41,
                    "time": 487.41551100000623,
                    "velocity": 0.6850393700787402,
                    "duration": 0.1685392499999807
                },
                {
                    "name": "A1",
                    "midi": 33,
                    "time": 487.8649490000062,
                    "velocity": 0.2992125984251969,
                    "duration": 0.22471899999999323
                },
                {
                    "name": "A2",
                    "midi": 45,
                    "time": 487.8649490000062,
                    "velocity": 0.2992125984251969,
                    "duration": 0.22471899999999323
                },
                {
                    "name": "F2",
                    "midi": 41,
                    "time": 488.0896680000062,
                    "velocity": 0.33070866141732286,
                    "duration": 0.22471899999999323
                },
                {
                    "name": "F3",
                    "midi": 53,
                    "time": 488.0896680000062,
                    "velocity": 0.33070866141732286,
                    "duration": 0.22471899999999323
                },
                {
                    "name": "A1",
                    "midi": 33,
                    "time": 488.5391060000062,
                    "velocity": 0.30708661417322836,
                    "duration": 0.22471899999999323
                },
                {
                    "name": "A2",
                    "midi": 45,
                    "time": 488.5391060000062,
                    "velocity": 0.30708661417322836,
                    "duration": 0.22471899999999323
                },
                {
                    "name": "F2",
                    "midi": 41,
                    "time": 488.7638250000062,
                    "velocity": 0.33858267716535434,
                    "duration": 0.22471899999999323
                },
                {
                    "name": "F3",
                    "midi": 53,
                    "time": 488.7638250000062,
                    "velocity": 0.33858267716535434,
                    "duration": 0.22471899999999323
                },
                {
                    "name": "A#1",
                    "midi": 34,
                    "time": 489.2132630000062,
                    "velocity": 0.30708661417322836,
                    "duration": 0.22471899999999323
                },
                {
                    "name": "A#2",
                    "midi": 46,
                    "time": 489.2132630000062,
                    "velocity": 0.30708661417322836,
                    "duration": 0.22471899999999323
                },
                {
                    "name": "F2",
                    "midi": 41,
                    "time": 489.4379820000062,
                    "velocity": 0.33858267716535434,
                    "duration": 0.22471899999999323
                },
                {
                    "name": "F3",
                    "midi": 53,
                    "time": 489.4379820000062,
                    "velocity": 0.33858267716535434,
                    "duration": 0.22471899999999323
                },
                {
                    "name": "A#1",
                    "midi": 34,
                    "time": 489.88742000000616,
                    "velocity": 0.31496062992125984,
                    "duration": 0.22471900000005007
                },
                {
                    "name": "A#2",
                    "midi": 46,
                    "time": 489.88742000000616,
                    "velocity": 0.31496062992125984,
                    "duration": 0.22471900000005007
                },
                {
                    "name": "F2",
                    "midi": 41,
                    "time": 490.1121390000062,
                    "velocity": 0.3464566929133858,
                    "duration": 0.22471899999999323
                },
                {
                    "name": "F3",
                    "midi": 53,
                    "time": 490.1121390000062,
                    "velocity": 0.3464566929133858,
                    "duration": 0.22471899999999323
                },
                {
                    "name": "A#1",
                    "midi": 34,
                    "time": 490.5615770000062,
                    "velocity": 0.33070866141732286,
                    "duration": 0.22471899999999323
                },
                {
                    "name": "A#2",
                    "midi": 46,
                    "time": 490.5615770000062,
                    "velocity": 0.33070866141732286,
                    "duration": 0.22471899999999323
                },
                {
                    "name": "F#2",
                    "midi": 42,
                    "time": 490.7862960000062,
                    "velocity": 0.3779527559055118,
                    "duration": 0.22471899999999323
                },
                {
                    "name": "F#3",
                    "midi": 54,
                    "time": 490.7862960000062,
                    "velocity": 0.3779527559055118,
                    "duration": 0.22471899999999323
                },
                {
                    "name": "A#1",
                    "midi": 34,
                    "time": 491.2357340000062,
                    "velocity": 0.3464566929133858,
                    "duration": 0.22471899999999323
                },
                {
                    "name": "A#2",
                    "midi": 46,
                    "time": 491.2357340000062,
                    "velocity": 0.3464566929133858,
                    "duration": 0.22471899999999323
                },
                {
                    "name": "F#2",
                    "midi": 42,
                    "time": 491.46045300000617,
                    "velocity": 0.3779527559055118,
                    "duration": 0.22471899999999323
                },
                {
                    "name": "F#3",
                    "midi": 54,
                    "time": 491.46045300000617,
                    "velocity": 0.3779527559055118,
                    "duration": 0.22471899999999323
                },
                {
                    "name": "A1",
                    "midi": 33,
                    "time": 491.90989100000616,
                    "velocity": 0.36220472440944884,
                    "duration": 0.22471899999999323
                },
                {
                    "name": "A2",
                    "midi": 45,
                    "time": 491.90989100000616,
                    "velocity": 0.36220472440944884,
                    "duration": 0.22471899999999323
                },
                {
                    "name": "A2",
                    "midi": 45,
                    "time": 492.13461000000615,
                    "velocity": 0.4015748031496063,
                    "duration": 0.22471899999999323
                },
                {
                    "name": "A3",
                    "midi": 57,
                    "time": 492.13461000000615,
                    "velocity": 0.4015748031496063,
                    "duration": 0.22471899999999323
                },
                {
                    "name": "G#1",
                    "midi": 32,
                    "time": 492.58404800000613,
                    "velocity": 0.4251968503937008,
                    "duration": 0.22471899999999323
                },
                {
                    "name": "G#2",
                    "midi": 44,
                    "time": 492.58404800000613,
                    "velocity": 0.4251968503937008,
                    "duration": 0.22471899999999323
                },
                {
                    "name": "F4",
                    "midi": 65,
                    "time": 492.8087670000061,
                    "velocity": 0.5118110236220472,
                    "duration": 0.22471899999999323
                },
                {
                    "name": "C#4",
                    "midi": 61,
                    "time": 492.8087670000061,
                    "velocity": 0.5118110236220472,
                    "duration": 0.22471899999999323
                },
                {
                    "name": "G#3",
                    "midi": 56,
                    "time": 492.8087670000061,
                    "velocity": 0.5118110236220472,
                    "duration": 0.22471899999999323
                },
                {
                    "name": "F3",
                    "midi": 53,
                    "time": 492.8087670000061,
                    "velocity": 0.5118110236220472,
                    "duration": 0.22471899999999323
                },
                {
                    "name": "C3",
                    "midi": 48,
                    "time": 493.2582050000061,
                    "velocity": 0.4566929133858268,
                    "duration": 0.07490633333333108
                },
                {
                    "name": "C#3",
                    "midi": 49,
                    "time": 493.33311133333945,
                    "velocity": 0.47244094488188976,
                    "duration": 0.07490633333333108
                },
                {
                    "name": "F3",
                    "midi": 53,
                    "time": 493.4080176666728,
                    "velocity": 0.48031496062992124,
                    "duration": 0.07490633333333108
                },
                {
                    "name": "G#3",
                    "midi": 56,
                    "time": 493.4829240000061,
                    "velocity": 0.49606299212598426,
                    "duration": 0.22471899999999323
                },
                {
                    "name": "B2",
                    "midi": 47,
                    "time": 493.9323620000061,
                    "velocity": 0.4566929133858268,
                    "duration": 0.07490633333333108
                },
                {
                    "name": "C3",
                    "midi": 48,
                    "time": 494.0072683333394,
                    "velocity": 0.47244094488188976,
                    "duration": 0.07490633333333108
                },
                {
                    "name": "F3",
                    "midi": 53,
                    "time": 494.08217466667276,
                    "velocity": 0.4881889763779528,
                    "duration": 0.07490633333333108
                },
                {
                    "name": "G#3",
                    "midi": 56,
                    "time": 494.1570810000061,
                    "velocity": 0.5039370078740157,
                    "duration": 0.22471899999999323
                },
                {
                    "name": "A2",
                    "midi": 45,
                    "time": 494.6065190000061,
                    "velocity": 0.44881889763779526,
                    "duration": 0.07490633333333108
                },
                {
                    "name": "A#2",
                    "midi": 46,
                    "time": 494.6814253333394,
                    "velocity": 0.4566929133858268,
                    "duration": 0.07490633333333108
                },
                {
                    "name": "F3",
                    "midi": 53,
                    "time": 494.75633166667274,
                    "velocity": 0.48031496062992124,
                    "duration": 0.07490633333333108
                },
                {
                    "name": "G#3",
                    "midi": 56,
                    "time": 494.83123800000607,
                    "velocity": 0.49606299212598426,
                    "duration": 0.22471899999999323
                },
                {
                    "name": "G#1",
                    "midi": 32,
                    "time": 495.50539500000605,
                    "velocity": 0.6377952755905512,
                    "duration": 0.22471899999999323
                },
                {
                    "name": "G#2",
                    "midi": 44,
                    "time": 495.50539500000605,
                    "velocity": 0.6377952755905512,
                    "duration": 0.22471899999999323
                },
                {
                    "name": "F#4",
                    "midi": 66,
                    "time": 496.179552000006,
                    "velocity": 0.6692913385826772,
                    "duration": 0.8988759999999729
                },
                {
                    "name": "C5",
                    "midi": 72,
                    "time": 496.179552000006,
                    "velocity": 0.6692913385826772,
                    "duration": 0.8988759999999729
                },
                {
                    "name": "F5",
                    "midi": 77,
                    "time": 496.179552000006,
                    "velocity": 0.6692913385826772,
                    "duration": 0.8988759999999729
                },
                {
                    "name": "F#4",
                    "midi": 66,
                    "time": 497.078428000006,
                    "velocity": 0.5118110236220472,
                    "duration": 0.22471899999999323
                },
                {
                    "name": "C5",
                    "midi": 72,
                    "time": 497.078428000006,
                    "velocity": 0.5118110236220472,
                    "duration": 0.22471899999999323
                },
                {
                    "name": "D#5",
                    "midi": 75,
                    "time": 497.078428000006,
                    "velocity": 0.5118110236220472,
                    "duration": 0.22471899999999323
                },
                {
                    "name": "F#4",
                    "midi": 66,
                    "time": 497.303147000006,
                    "velocity": 0.5118110236220472,
                    "duration": 0.22471899999999323
                },
                {
                    "name": "C5",
                    "midi": 72,
                    "time": 497.303147000006,
                    "velocity": 0.5118110236220472,
                    "duration": 0.22471899999999323
                },
                {
                    "name": "F5",
                    "midi": 77,
                    "time": 497.303147000006,
                    "velocity": 0.5118110236220472,
                    "duration": 0.22471899999999323
                },
                {
                    "name": "F#4",
                    "midi": 66,
                    "time": 497.527866000006,
                    "velocity": 0.49606299212598426,
                    "duration": 0.22471899999999323
                },
                {
                    "name": "C5",
                    "midi": 72,
                    "time": 497.527866000006,
                    "velocity": 0.49606299212598426,
                    "duration": 0.22471899999999323
                },
                {
                    "name": "D#5",
                    "midi": 75,
                    "time": 497.527866000006,
                    "velocity": 0.49606299212598426,
                    "duration": 0.22471899999999323
                },
                {
                    "name": "F#4",
                    "midi": 66,
                    "time": 497.752585000006,
                    "velocity": 0.5275590551181102,
                    "duration": 0.22471899999999323
                },
                {
                    "name": "C5",
                    "midi": 72,
                    "time": 497.752585000006,
                    "velocity": 0.5275590551181102,
                    "duration": 0.22471899999999323
                },
                {
                    "name": "F5",
                    "midi": 77,
                    "time": 497.752585000006,
                    "velocity": 0.5275590551181102,
                    "duration": 0.22471899999999323
                },
                {
                    "name": "D#5",
                    "midi": 75,
                    "time": 497.977304000006,
                    "velocity": 0.5196850393700787,
                    "duration": 0.22471899999999323
                },
                {
                    "name": "C5",
                    "midi": 72,
                    "time": 497.977304000006,
                    "velocity": 0.5196850393700787,
                    "duration": 0.22471899999999323
                },
                {
                    "name": "F#4",
                    "midi": 66,
                    "time": 497.977304000006,
                    "velocity": 0.5196850393700787,
                    "duration": 0.22471899999999323
                },
                {
                    "name": "F4",
                    "midi": 65,
                    "time": 498.20202300000597,
                    "velocity": 0.5984251968503937,
                    "duration": 0.1685392499999807
                },
                {
                    "name": "G#4",
                    "midi": 68,
                    "time": 498.20202300000597,
                    "velocity": 0.5984251968503937,
                    "duration": 0.1685392499999807
                },
                {
                    "name": "C#5",
                    "midi": 73,
                    "time": 498.20202300000597,
                    "velocity": 0.5984251968503937,
                    "duration": 0.1685392499999807
                },
                {
                    "name": "F5",
                    "midi": 77,
                    "time": 498.20202300000597,
                    "velocity": 0.5984251968503937,
                    "duration": 0.1685392499999807
                },
                {
                    "name": "C3",
                    "midi": 48,
                    "time": 498.65146100000595,
                    "velocity": 0.4566929133858268,
                    "duration": 0.07490633333333108
                },
                {
                    "name": "C#3",
                    "midi": 49,
                    "time": 498.7263673333393,
                    "velocity": 0.47244094488188976,
                    "duration": 0.07490633333333108
                },
                {
                    "name": "F3",
                    "midi": 53,
                    "time": 498.8012736666726,
                    "velocity": 0.48031496062992124,
                    "duration": 0.07490633333333108
                },
                {
                    "name": "G#3",
                    "midi": 56,
                    "time": 498.87618000000595,
                    "velocity": 0.49606299212598426,
                    "duration": 0.22471899999999323
                },
                {
                    "name": "B2",
                    "midi": 47,
                    "time": 499.32561800000593,
                    "velocity": 0.4566929133858268,
                    "duration": 0.07490633333333108
                },
                {
                    "name": "C3",
                    "midi": 48,
                    "time": 499.40052433333926,
                    "velocity": 0.47244094488188976,
                    "duration": 0.07490633333333108
                },
                {
                    "name": "F3",
                    "midi": 53,
                    "time": 499.4754306666726,
                    "velocity": 0.4881889763779528,
                    "duration": 0.07490633333333108
                },
                {
                    "name": "G#3",
                    "midi": 56,
                    "time": 499.5503370000059,
                    "velocity": 0.5039370078740157,
                    "duration": 0.22471899999999323
                },
                {
                    "name": "A2",
                    "midi": 45,
                    "time": 499.9997750000059,
                    "velocity": 0.44881889763779526,
                    "duration": 0.07490633333333108
                },
                {
                    "name": "A#2",
                    "midi": 46,
                    "time": 500.07468133333924,
                    "velocity": 0.4566929133858268,
                    "duration": 0.07490633333333108
                },
                {
                    "name": "F3",
                    "midi": 53,
                    "time": 500.1495876666726,
                    "velocity": 0.48031496062992124,
                    "duration": 0.07490633333333108
                },
                {
                    "name": "G#3",
                    "midi": 56,
                    "time": 500.2244940000059,
                    "velocity": 0.49606299212598426,
                    "duration": 0.22471899999999323
                },
                {
                    "name": "G#1",
                    "midi": 32,
                    "time": 500.8986510000059,
                    "velocity": 0.6377952755905512,
                    "duration": 0.22471899999999323
                },
                {
                    "name": "G#2",
                    "midi": 44,
                    "time": 500.8986510000059,
                    "velocity": 0.6377952755905512,
                    "duration": 0.22471899999999323
                },
                {
                    "name": "F#4",
                    "midi": 66,
                    "time": 501.57280800000586,
                    "velocity": 0.6692913385826772,
                    "duration": 0.8988759999999729
                },
                {
                    "name": "C5",
                    "midi": 72,
                    "time": 501.57280800000586,
                    "velocity": 0.6692913385826772,
                    "duration": 0.8988759999999729
                },
                {
                    "name": "F5",
                    "midi": 77,
                    "time": 501.57280800000586,
                    "velocity": 0.6692913385826772,
                    "duration": 0.8988759999999729
                },
                {
                    "name": "F#4",
                    "midi": 66,
                    "time": 502.47168400000584,
                    "velocity": 0.5511811023622047,
                    "duration": 0.22471899999999323
                },
                {
                    "name": "C5",
                    "midi": 72,
                    "time": 502.47168400000584,
                    "velocity": 0.5511811023622047,
                    "duration": 0.22471899999999323
                },
                {
                    "name": "D#5",
                    "midi": 75,
                    "time": 502.47168400000584,
                    "velocity": 0.5511811023622047,
                    "duration": 0.22471899999999323
                },
                {
                    "name": "F#4",
                    "midi": 66,
                    "time": 502.69640300000583,
                    "velocity": 0.5354330708661418,
                    "duration": 0.22471899999999323
                },
                {
                    "name": "C5",
                    "midi": 72,
                    "time": 502.69640300000583,
                    "velocity": 0.5354330708661418,
                    "duration": 0.22471899999999323
                },
                {
                    "name": "F5",
                    "midi": 77,
                    "time": 502.69640300000583,
                    "velocity": 0.5354330708661418,
                    "duration": 0.22471899999999323
                },
                {
                    "name": "F#4",
                    "midi": 66,
                    "time": 502.9211220000058,
                    "velocity": 0.5196850393700787,
                    "duration": 0.22471899999999323
                },
                {
                    "name": "C5",
                    "midi": 72,
                    "time": 502.9211220000058,
                    "velocity": 0.5196850393700787,
                    "duration": 0.22471899999999323
                },
                {
                    "name": "D#5",
                    "midi": 75,
                    "time": 502.9211220000058,
                    "velocity": 0.5196850393700787,
                    "duration": 0.22471899999999323
                },
                {
                    "name": "F#4",
                    "midi": 66,
                    "time": 503.1458410000058,
                    "velocity": 0.5039370078740157,
                    "duration": 0.22471899999999323
                },
                {
                    "name": "C5",
                    "midi": 72,
                    "time": 503.1458410000058,
                    "velocity": 0.5039370078740157,
                    "duration": 0.22471899999999323
                },
                {
                    "name": "F5",
                    "midi": 77,
                    "time": 503.1458410000058,
                    "velocity": 0.5039370078740157,
                    "duration": 0.22471899999999323
                },
                {
                    "name": "D#5",
                    "midi": 75,
                    "time": 503.3705600000058,
                    "velocity": 0.48031496062992124,
                    "duration": 0.22471899999999323
                },
                {
                    "name": "C5",
                    "midi": 72,
                    "time": 503.3705600000058,
                    "velocity": 0.48031496062992124,
                    "duration": 0.22471899999999323
                },
                {
                    "name": "F#4",
                    "midi": 66,
                    "time": 503.3705600000058,
                    "velocity": 0.48031496062992124,
                    "duration": 0.22471899999999323
                },
                {
                    "name": "F5",
                    "midi": 77,
                    "time": 503.5952790000058,
                    "velocity": 0.4645669291338583,
                    "duration": 0.44943799999998646
                },
                {
                    "name": "F#4",
                    "midi": 66,
                    "time": 503.5952790000058,
                    "velocity": 0.4645669291338583,
                    "duration": 0.6741569999999797
                },
                {
                    "name": "C5",
                    "midi": 72,
                    "time": 503.5952790000058,
                    "velocity": 0.4645669291338583,
                    "duration": 0.6741569999999797
                },
                {
                    "name": "D#5",
                    "midi": 75,
                    "time": 504.0447170000058,
                    "velocity": 0.4409448818897638,
                    "duration": 0.22471899999999323
                },
                {
                    "name": "F5",
                    "midi": 77,
                    "time": 504.2694360000058,
                    "velocity": 0.4330708661417323,
                    "duration": 0.44943799999998646
                },
                {
                    "name": "F#4",
                    "midi": 66,
                    "time": 504.2694360000058,
                    "velocity": 0.4330708661417323,
                    "duration": 0.6741569999999797
                },
                {
                    "name": "C5",
                    "midi": 72,
                    "time": 504.2694360000058,
                    "velocity": 0.4330708661417323,
                    "duration": 0.6741569999999797
                },
                {
                    "name": "D#5",
                    "midi": 75,
                    "time": 504.71887400000577,
                    "velocity": 0.4566929133858268,
                    "duration": 0.22471899999999323
                },
                {
                    "name": "F5",
                    "midi": 77,
                    "time": 504.94359300000576,
                    "velocity": 0.47244094488188976,
                    "duration": 0.44943799999998646
                },
                {
                    "name": "F#4",
                    "midi": 66,
                    "time": 504.94359300000576,
                    "velocity": 0.47244094488188976,
                    "duration": 0.6741569999999797
                },
                {
                    "name": "C5",
                    "midi": 72,
                    "time": 504.94359300000576,
                    "velocity": 0.47244094488188976,
                    "duration": 0.6741569999999797
                },
                {
                    "name": "D#5",
                    "midi": 75,
                    "time": 505.39303100000575,
                    "velocity": 0.44881889763779526,
                    "duration": 0.22471899999999323
                },
                {
                    "name": "F#5",
                    "midi": 78,
                    "time": 505.61775000000574,
                    "velocity": 0.48031496062992124,
                    "duration": 0.44943799999998646
                },
                {
                    "name": "G4",
                    "midi": 67,
                    "time": 505.61775000000574,
                    "velocity": 0.48031496062992124,
                    "duration": 0.6741569999999797
                },
                {
                    "name": "C#5",
                    "midi": 73,
                    "time": 505.61775000000574,
                    "velocity": 0.48031496062992124,
                    "duration": 0.6741569999999797
                },
                {
                    "name": "E5",
                    "midi": 76,
                    "time": 506.06718800000573,
                    "velocity": 0.49606299212598426,
                    "duration": 0.22471899999999323
                },
                {
                    "name": "F#5",
                    "midi": 78,
                    "time": 506.2919070000057,
                    "velocity": 0.5275590551181102,
                    "duration": 0.44943799999998646
                },
                {
                    "name": "G4",
                    "midi": 67,
                    "time": 506.2919070000057,
                    "velocity": 0.5275590551181102,
                    "duration": 0.6741569999999797
                },
                {
                    "name": "C#5",
                    "midi": 73,
                    "time": 506.2919070000057,
                    "velocity": 0.5275590551181102,
                    "duration": 0.6741569999999797
                },
                {
                    "name": "E5",
                    "midi": 76,
                    "time": 506.7413450000057,
                    "velocity": 0.5433070866141733,
                    "duration": 0.22471899999999323
                },
                {
                    "name": "G5",
                    "midi": 79,
                    "time": 506.9660640000057,
                    "velocity": 0.5669291338582677,
                    "duration": 0.44943799999998646
                },
                {
                    "name": "G#4",
                    "midi": 68,
                    "time": 506.9660640000057,
                    "velocity": 0.5669291338582677,
                    "duration": 0.6741569999999797
                },
                {
                    "name": "D5",
                    "midi": 74,
                    "time": 506.9660640000057,
                    "velocity": 0.5669291338582677,
                    "duration": 0.6741569999999797
                },
                {
                    "name": "F5",
                    "midi": 77,
                    "time": 507.4155020000057,
                    "velocity": 0.5826771653543307,
                    "duration": 0.22471899999999323
                },
                {
                    "name": "G5",
                    "midi": 79,
                    "time": 507.6402210000057,
                    "velocity": 0.5905511811023622,
                    "duration": 0.44943799999998646
                },
                {
                    "name": "G#4",
                    "midi": 68,
                    "time": 507.6402210000057,
                    "velocity": 0.5905511811023622,
                    "duration": 0.6741569999999797
                },
                {
                    "name": "D5",
                    "midi": 74,
                    "time": 507.6402210000057,
                    "velocity": 0.5905511811023622,
                    "duration": 0.6741569999999797
                },
                {
                    "name": "F5",
                    "midi": 77,
                    "time": 508.08965900000567,
                    "velocity": 0.6220472440944882,
                    "duration": 0.22471899999999323
                },
                {
                    "name": "G#5",
                    "midi": 80,
                    "time": 508.31437800000566,
                    "velocity": 0.6535433070866141,
                    "duration": 0.44943799999998646
                },
                {
                    "name": "G#4",
                    "midi": 68,
                    "time": 508.31437800000566,
                    "velocity": 0.6535433070866141,
                    "duration": 0.6741569999999797
                },
                {
                    "name": "D#5",
                    "midi": 75,
                    "time": 508.31437800000566,
                    "velocity": 0.6535433070866141,
                    "duration": 0.6741569999999797
                },
                {
                    "name": "F#5",
                    "midi": 78,
                    "time": 508.76381600000565,
                    "velocity": 0.6771653543307087,
                    "duration": 0.22471899999999323
                },
                {
                    "name": "C#2",
                    "midi": 37,
                    "time": 508.98853500000564,
                    "velocity": 0.7086614173228346,
                    "duration": 0.22471899999999323
                },
                {
                    "name": "C#3",
                    "midi": 49,
                    "time": 508.98853500000564,
                    "velocity": 0.7086614173228346,
                    "duration": 0.22471899999999323
                },
                {
                    "name": "G2",
                    "midi": 43,
                    "time": 509.21325400000563,
                    "velocity": 0.5826771653543307,
                    "duration": 0.22471899999999323
                },
                {
                    "name": "G#2",
                    "midi": 44,
                    "time": 509.4379730000056,
                    "velocity": 0.5826771653543307,
                    "duration": 0.22471899999999323
                },
                {
                    "name": "G#2",
                    "midi": 44,
                    "time": 509.6626920000056,
                    "velocity": 0.6220472440944882,
                    "duration": 0.2247189999999364
                },
                {
                    "name": "F#2",
                    "midi": 42,
                    "time": 509.88741100000556,
                    "velocity": 0.4881889763779528,
                    "duration": 0.22471899999999323
                },
                {
                    "name": "F#3",
                    "midi": 54,
                    "time": 509.88741100000556,
                    "velocity": 0.4881889763779528,
                    "duration": 0.22471899999999323
                },
                {
                    "name": "F2",
                    "midi": 41,
                    "time": 510.11213000000555,
                    "velocity": 0.4566929133858268,
                    "duration": 0.22471899999999323
                },
                {
                    "name": "F3",
                    "midi": 53,
                    "time": 510.11213000000555,
                    "velocity": 0.4566929133858268,
                    "duration": 0.22471899999999323
                },
                {
                    "name": "F2",
                    "midi": 41,
                    "time": 510.33684900000554,
                    "velocity": 0.5354330708661418,
                    "duration": 0.11235950000002504
                },
                {
                    "name": "F3",
                    "midi": 53,
                    "time": 510.33684900000554,
                    "velocity": 0.5354330708661418,
                    "duration": 0.11235950000002504
                },
                {
                    "name": "G2",
                    "midi": 43,
                    "time": 510.5615680000056,
                    "velocity": 0.4645669291338583,
                    "duration": 0.22471899999999323
                },
                {
                    "name": "G#2",
                    "midi": 44,
                    "time": 510.7862870000056,
                    "velocity": 0.4645669291338583,
                    "duration": 0.22471899999999323
                },
                {
                    "name": "A2",
                    "midi": 45,
                    "time": 511.0110060000056,
                    "velocity": 0.5748031496062992,
                    "duration": 0.4494380000000433
                },
                {
                    "name": "G#2",
                    "midi": 44,
                    "time": 511.4604440000056,
                    "velocity": 0.5511811023622047,
                    "duration": 0.22471899999999323
                },
                {
                    "name": "C#2",
                    "midi": 37,
                    "time": 511.6851630000056,
                    "velocity": 0.7086614173228346,
                    "duration": 0.22471899999999323
                },
                {
                    "name": "C#3",
                    "midi": 49,
                    "time": 511.6851630000056,
                    "velocity": 0.7086614173228346,
                    "duration": 0.22471899999999323
                },
                {
                    "name": "G2",
                    "midi": 43,
                    "time": 511.9098820000056,
                    "velocity": 0.5748031496062992,
                    "duration": 0.22471900000005007
                },
                {
                    "name": "G#2",
                    "midi": 44,
                    "time": 512.1346010000057,
                    "velocity": 0.5905511811023622,
                    "duration": 0.22471900000005007
                },
                {
                    "name": "G#2",
                    "midi": 44,
                    "time": 512.3593200000057,
                    "velocity": 0.6062992125984252,
                    "duration": 0.22471900000005007
                },
                {
                    "name": "F#2",
                    "midi": 42,
                    "time": 512.5840390000058,
                    "velocity": 0.4881889763779528,
                    "duration": 0.22471900000005007
                },
                {
                    "name": "F#3",
                    "midi": 54,
                    "time": 512.5840390000058,
                    "velocity": 0.4881889763779528,
                    "duration": 0.22471900000005007
                },
                {
                    "name": "F2",
                    "midi": 41,
                    "time": 512.8087580000058,
                    "velocity": 0.4566929133858268,
                    "duration": 0.22471900000005007
                },
                {
                    "name": "F3",
                    "midi": 53,
                    "time": 512.8087580000058,
                    "velocity": 0.4566929133858268,
                    "duration": 0.22471900000005007
                },
                {
                    "name": "F2",
                    "midi": 41,
                    "time": 513.0334770000059,
                    "velocity": 0.5354330708661418,
                    "duration": 0.11235950000002504
                },
                {
                    "name": "F3",
                    "midi": 53,
                    "time": 513.0334770000059,
                    "velocity": 0.5354330708661418,
                    "duration": 0.11235950000002504
                },
                {
                    "name": "G2",
                    "midi": 43,
                    "time": 513.2581960000059,
                    "velocity": 0.4645669291338583,
                    "duration": 0.22471900000005007
                },
                {
                    "name": "G#2",
                    "midi": 44,
                    "time": 513.482915000006,
                    "velocity": 0.4645669291338583,
                    "duration": 0.22471900000005007
                },
                {
                    "name": "A2",
                    "midi": 45,
                    "time": 513.707634000006,
                    "velocity": 0.5748031496062992,
                    "duration": 0.44943799999998646
                },
                {
                    "name": "G#2",
                    "midi": 44,
                    "time": 514.157072000006,
                    "velocity": 0.5511811023622047,
                    "duration": 0.22471900000005007
                },
                {
                    "name": "C#2",
                    "midi": 37,
                    "time": 514.381791000006,
                    "velocity": 0.47244094488188976,
                    "duration": 0.11235950000002504
                },
                {
                    "name": "C#3",
                    "midi": 49,
                    "time": 514.381791000006,
                    "velocity": 0.47244094488188976,
                    "duration": 0.11235950000002504
                },
                {
                    "name": "G2",
                    "midi": 43,
                    "time": 514.6065100000061,
                    "velocity": 0.5354330708661418,
                    "duration": 0.22471900000005007
                },
                {
                    "name": "G#2",
                    "midi": 44,
                    "time": 514.8312290000061,
                    "velocity": 0.5354330708661418,
                    "duration": 0.22471900000005007
                },
                {
                    "name": "F#2",
                    "midi": 42,
                    "time": 515.2806670000062,
                    "velocity": 0.5511811023622047,
                    "duration": 0.22471900000005007
                },
                {
                    "name": "F#3",
                    "midi": 54,
                    "time": 515.2806670000062,
                    "velocity": 0.5511811023622047,
                    "duration": 0.22471900000005007
                },
                {
                    "name": "F2",
                    "midi": 41,
                    "time": 515.5053860000063,
                    "velocity": 0.5511811023622047,
                    "duration": 0.22471900000005007
                },
                {
                    "name": "F3",
                    "midi": 53,
                    "time": 515.5053860000063,
                    "velocity": 0.5511811023622047,
                    "duration": 0.22471900000005007
                },
                {
                    "name": "C#2",
                    "midi": 37,
                    "time": 515.7301050000063,
                    "velocity": 0.49606299212598426,
                    "duration": 0.11235950000002504
                },
                {
                    "name": "C#3",
                    "midi": 49,
                    "time": 515.7301050000063,
                    "velocity": 0.49606299212598426,
                    "duration": 0.11235950000002504
                },
                {
                    "name": "G2",
                    "midi": 43,
                    "time": 515.9548240000064,
                    "velocity": 0.5433070866141733,
                    "duration": 0.22471900000005007
                },
                {
                    "name": "G#2",
                    "midi": 44,
                    "time": 516.1795430000064,
                    "velocity": 0.5433070866141733,
                    "duration": 0.22471900000005007
                },
                {
                    "name": "F#2",
                    "midi": 42,
                    "time": 516.6289810000065,
                    "velocity": 0.5511811023622047,
                    "duration": 0.22471900000005007
                },
                {
                    "name": "F#3",
                    "midi": 54,
                    "time": 516.6289810000065,
                    "velocity": 0.5511811023622047,
                    "duration": 0.22471900000005007
                },
                {
                    "name": "F2",
                    "midi": 41,
                    "time": 516.8537000000066,
                    "velocity": 0.5511811023622047,
                    "duration": 0.22471900000005007
                },
                {
                    "name": "F3",
                    "midi": 53,
                    "time": 516.8537000000066,
                    "velocity": 0.5511811023622047,
                    "duration": 0.22471900000005007
                },
                {
                    "name": "C#2",
                    "midi": 37,
                    "time": 517.0784190000066,
                    "velocity": 0.5039370078740157,
                    "duration": 0.11235950000002504
                },
                {
                    "name": "C#3",
                    "midi": 49,
                    "time": 517.0784190000066,
                    "velocity": 0.5039370078740157,
                    "duration": 0.11235950000002504
                },
                {
                    "name": "G2",
                    "midi": 43,
                    "time": 517.3031380000067,
                    "velocity": 0.5433070866141733,
                    "duration": 0.22471900000005007
                },
                {
                    "name": "G#2",
                    "midi": 44,
                    "time": 517.5278570000067,
                    "velocity": 0.5433070866141733,
                    "duration": 0.22471900000005007
                },
                {
                    "name": "F#2",
                    "midi": 42,
                    "time": 517.9772950000068,
                    "velocity": 0.5511811023622047,
                    "duration": 0.22471900000005007
                },
                {
                    "name": "F#3",
                    "midi": 54,
                    "time": 517.9772950000068,
                    "velocity": 0.5511811023622047,
                    "duration": 0.22471900000005007
                },
                {
                    "name": "F2",
                    "midi": 41,
                    "time": 518.2020140000069,
                    "velocity": 0.5511811023622047,
                    "duration": 0.22471900000005007
                },
                {
                    "name": "F3",
                    "midi": 53,
                    "time": 518.2020140000069,
                    "velocity": 0.5511811023622047,
                    "duration": 0.22471900000005007
                },
                {
                    "name": "C#2",
                    "midi": 37,
                    "time": 518.426733000007,
                    "velocity": 0.5275590551181102,
                    "duration": 0.1685392499999807
                },
                {
                    "name": "A2",
                    "midi": 45,
                    "time": 518.426733000007,
                    "velocity": 0.5275590551181102,
                    "duration": 0.1685392499999807
                },
                {
                    "name": "C#2",
                    "midi": 37,
                    "time": 518.6514520000069,
                    "velocity": 0.5354330708661418,
                    "duration": 0.1685392499999807
                },
                {
                    "name": "G#2",
                    "midi": 44,
                    "time": 518.6514520000069,
                    "velocity": 0.5354330708661418,
                    "duration": 0.1685392499999807
                },
                {
                    "name": "C#2",
                    "midi": 37,
                    "time": 518.8761710000068,
                    "velocity": 0.5511811023622047,
                    "duration": 0.1685392499999807
                },
                {
                    "name": "A2",
                    "midi": 45,
                    "time": 518.8761710000068,
                    "velocity": 0.5511811023622047,
                    "duration": 0.1685392499999807
                },
                {
                    "name": "C#2",
                    "midi": 37,
                    "time": 519.1008900000068,
                    "velocity": 0.5590551181102362,
                    "duration": 0.1685392499999807
                },
                {
                    "name": "G#2",
                    "midi": 44,
                    "time": 519.1008900000068,
                    "velocity": 0.5590551181102362,
                    "duration": 0.1685392499999807
                },
                {
                    "name": "C#2",
                    "midi": 37,
                    "time": 519.3256090000067,
                    "velocity": 0.5748031496062992,
                    "duration": 0.1685392499999807
                },
                {
                    "name": "A2",
                    "midi": 45,
                    "time": 519.3256090000067,
                    "velocity": 0.5748031496062992,
                    "duration": 0.1685392499999807
                },
                {
                    "name": "C#2",
                    "midi": 37,
                    "time": 519.5503280000066,
                    "velocity": 0.5826771653543307,
                    "duration": 0.1685392499999807
                },
                {
                    "name": "G#2",
                    "midi": 44,
                    "time": 519.5503280000066,
                    "velocity": 0.5826771653543307,
                    "duration": 0.1685392499999807
                },
                {
                    "name": "C2",
                    "midi": 36,
                    "time": 519.7750470000066,
                    "velocity": 0.6614173228346457,
                    "duration": 0.1685392499999807
                },
                {
                    "name": "A2",
                    "midi": 45,
                    "time": 519.7750470000066,
                    "velocity": 0.6614173228346457,
                    "duration": 0.1685392499999807
                },
                {
                    "name": "C2",
                    "midi": 36,
                    "time": 520.4492040000066,
                    "velocity": 0.6692913385826772,
                    "duration": 0.22471900000005007
                },
                {
                    "name": "G2",
                    "midi": 43,
                    "time": 520.4492040000066,
                    "velocity": 0.7952755905511811,
                    "duration": 0.22471900000005007
                },
                {
                    "name": "C3",
                    "midi": 48,
                    "time": 520.4492040000066,
                    "velocity": 0.7952755905511811,
                    "duration": 0.22471900000005007
                },
                {
                    "name": "F2",
                    "midi": 41,
                    "time": 521.1233610000066,
                    "velocity": 0.6692913385826772,
                    "duration": 0.22471900000005007
                },
                {
                    "name": "C3",
                    "midi": 48,
                    "time": 521.1233610000066,
                    "velocity": 0.7952755905511811,
                    "duration": 0.22471900000005007
                },
                {
                    "name": "F3",
                    "midi": 53,
                    "time": 521.1233610000066,
                    "velocity": 0.7952755905511811,
                    "duration": 0.22471900000005007
                },
                {
                    "name": "G#2",
                    "midi": 44,
                    "time": 521.7975180000067,
                    "velocity": 0.6692913385826772,
                    "duration": 0.2247189999999364
                },
                {
                    "name": "D#3",
                    "midi": 51,
                    "time": 521.7975180000067,
                    "velocity": 0.7952755905511811,
                    "duration": 0.2247189999999364
                },
                {
                    "name": "G#3",
                    "midi": 56,
                    "time": 521.7975180000067,
                    "velocity": 0.7952755905511811,
                    "duration": 0.2247189999999364
                },
                {
                    "name": "C#3",
                    "midi": 49,
                    "time": 522.4716750000066,
                    "velocity": 0.6692913385826772,
                    "duration": 0.6741569999999228
                },
                {
                    "name": "G#3",
                    "midi": 56,
                    "time": 522.4716750000066,
                    "velocity": 0.7952755905511811,
                    "duration": 0.6741569999999228
                },
                {
                    "name": "C#4",
                    "midi": 61,
                    "time": 522.4716750000066,
                    "velocity": 0.7952755905511811,
                    "duration": 0.6741569999999228
                },
                {
                    "name": "C#2",
                    "midi": 37,
                    "time": 523.8199890000066,
                    "velocity": 0.6692913385826772,
                    "duration": 0.6741570000000365
                },
                {
                    "name": "G#2",
                    "midi": 44,
                    "time": 523.8199890000066,
                    "velocity": 0.7874015748031497,
                    "duration": 0.6741570000000365
                },
                {
                    "name": "C#3",
                    "midi": 49,
                    "time": 523.8199890000066,
                    "velocity": 0.7874015748031497,
                    "duration": 0.6741570000000365
                },
                {
                    "name": "C#3",
                    "midi": 49,
                    "time": 524.9997637500067,
                    "velocity": 0.5433070866141733,
                    "duration": 0.1685392499999807
                },
                {
                    "name": "G#3",
                    "midi": 56,
                    "time": 525.0278536250066,
                    "velocity": 0.6456692913385826,
                    "duration": 0.14044937500000287
                },
                {
                    "name": "F4",
                    "midi": 65,
                    "time": 525.0559435000066,
                    "velocity": 0.6456692913385826,
                    "duration": 0.11235950000002504
                },
                {
                    "name": "C#1",
                    "midi": 25,
                    "time": 525.1683030000066,
                    "velocity": 0.7874015748031497,
                    "duration": 0.6741570000000365
                },
                {
                    "name": "C#2",
                    "midi": 37,
                    "time": 525.1683030000066,
                    "velocity": 0.8582677165354331,
                    "duration": 0.6741570000000365
                }
            ],
            "controlChanges": {
                "7": [
                    {
                        "number": 7,
                        "time": 0,
                        "value": 0.7874015748031497
                    }
                ],
                "10": [
                    {
                        "number": 10,
                        "time": 0,
                        "value": 0.5039370078740157
                    }
                ],
                "64": [
                    {
                        "number": 64,
                        "time": 0,
                        "value": 0
                    },
                    {
                        "number": 64,
                        "time": 2.763107370833334,
                        "value": 1
                    },
                    {
                        "number": 64,
                        "time": 5.393256000000001,
                        "value": 0
                    },
                    {
                        "number": 64,
                        "time": 8.169471979166671,
                        "value": 1
                    },
                    {
                        "number": 64,
                        "time": 10.786512000000005,
                        "value": 0
                    },
                    {
                        "number": 64,
                        "time": 11.56085622083334,
                        "value": 1
                    },
                    {
                        "number": 64,
                        "time": 12.587072987500008,
                        "value": 0
                    },
                    {
                        "number": 64,
                        "time": 18.95598397916669,
                        "value": 1
                    },
                    {
                        "number": 64,
                        "time": 21.584259950000025,
                        "value": 0
                    },
                    {
                        "number": 64,
                        "time": 24.368902891666703,
                        "value": 1
                    },
                    {
                        "number": 64,
                        "time": 26.96628000000004,
                        "value": 0
                    },
                    {
                        "number": 64,
                        "time": 27.64043700000004,
                        "value": 1
                    },
                    {
                        "number": 64,
                        "time": 28.764032000000043,
                        "value": 0
                    },
                    {
                        "number": 64,
                        "time": 32.419461066666706,
                        "value": 1
                    },
                    {
                        "number": 64,
                        "time": 34.3885613041667,
                        "value": 0
                    },
                    {
                        "number": 64,
                        "time": 35.05616400000003,
                        "value": 1
                    },
                    {
                        "number": 64,
                        "time": 35.73219365833336,
                        "value": 0
                    },
                    {
                        "number": 64,
                        "time": 36.40447800000002,
                        "value": 1
                    },
                    {
                        "number": 64,
                        "time": 37.08331664583336,
                        "value": 0
                    },
                    {
                        "number": 64,
                        "time": 37.81927137083335,
                        "value": 1
                    },
                    {
                        "number": 64,
                        "time": 39.77526300000002,
                        "value": 0
                    },
                    {
                        "number": 64,
                        "time": 43.18631015416664,
                        "value": 1
                    },
                    {
                        "number": 64,
                        "time": 43.82769563333329,
                        "value": 0
                    },
                    {
                        "number": 64,
                        "time": 43.868894116666624,
                        "value": 1
                    },
                    {
                        "number": 64,
                        "time": 44.498107316666605,
                        "value": 0
                    },
                    {
                        "number": 64,
                        "time": 44.55335073749994,
                        "value": 1
                    },
                    {
                        "number": 64,
                        "time": 45.17694596249993,
                        "value": 0
                    },
                    {
                        "number": 64,
                        "time": 45.29398710833326,
                        "value": 1
                    },
                    {
                        "number": 64,
                        "time": 45.850166633333245,
                        "value": 0
                    },
                    {
                        "number": 64,
                        "time": 45.92320030833324,
                        "value": 1
                    },
                    {
                        "number": 64,
                        "time": 46.524323633333225,
                        "value": 0
                    },
                    {
                        "number": 64,
                        "time": 46.59735730833322,
                        "value": 1
                    },
                    {
                        "number": 64,
                        "time": 47.20128962083321,
                        "value": 0
                    },
                    {
                        "number": 64,
                        "time": 47.28368658749987,
                        "value": 1
                    },
                    {
                        "number": 64,
                        "time": 47.87357396249986,
                        "value": 0
                    },
                    {
                        "number": 64,
                        "time": 47.921326749999864,
                        "value": 1
                    },
                    {
                        "number": 64,
                        "time": 48.54866729166651,
                        "value": 0
                    },
                    {
                        "number": 64,
                        "time": 48.63574590416651,
                        "value": 1
                    },
                    {
                        "number": 64,
                        "time": 49.227505937499835,
                        "value": 0
                    },
                    {
                        "number": 64,
                        "time": 49.27525872499984,
                        "value": 1
                    },
                    {
                        "number": 64,
                        "time": 49.897917620833155,
                        "value": 0
                    },
                    {
                        "number": 64,
                        "time": 50.013086108333155,
                        "value": 1
                    },
                    {
                        "number": 64,
                        "time": 50.573010949999805,
                        "value": 0
                    },
                    {
                        "number": 64,
                        "time": 50.6741344999998,
                        "value": 1
                    },
                    {
                        "number": 64,
                        "time": 51.24435896249979,
                        "value": 0
                    },
                    {
                        "number": 64,
                        "time": 51.34829149999979,
                        "value": 1
                    },
                    {
                        "number": 64,
                        "time": 51.91570697499977,
                        "value": 0
                    },
                    {
                        "number": 64,
                        "time": 52.01214887916644,
                        "value": 1
                    },
                    {
                        "number": 64,
                        "time": 52.593609291666425,
                        "value": 0
                    },
                    {
                        "number": 64,
                        "time": 52.703159804166425,
                        "value": 1
                    },
                    {
                        "number": 64,
                        "time": 53.26682996249975,
                        "value": 0
                    },
                    {
                        "number": 64,
                        "time": 53.38387110833308,
                        "value": 1
                    },
                    {
                        "number": 64,
                        "time": 53.9391143041664,
                        "value": 0
                    },
                    {
                        "number": 64,
                        "time": 54.044919499999736,
                        "value": 1
                    },
                    {
                        "number": 64,
                        "time": 55.291173620833035,
                        "value": 0
                    },
                    {
                        "number": 64,
                        "time": 55.38667919583303,
                        "value": 1
                    },
                    {
                        "number": 64,
                        "time": 55.96533062083302,
                        "value": 0
                    },
                    {
                        "number": 64,
                        "time": 56.07394480416636,
                        "value": 1
                    },
                    {
                        "number": 64,
                        "time": 56.63574230416635,
                        "value": 0
                    },
                    {
                        "number": 64,
                        "time": 56.71533028333302,
                        "value": 1
                    },
                    {
                        "number": 64,
                        "time": 57.303344999999666,
                        "value": 0
                    },
                    {
                        "number": 64,
                        "time": 57.44192171666633,
                        "value": 1
                    },
                    {
                        "number": 64,
                        "time": 57.98686529166631,
                        "value": 0
                    },
                    {
                        "number": 64,
                        "time": 58.05240833333298,
                        "value": 1
                    },
                    {
                        "number": 64,
                        "time": 58.66008596249963,
                        "value": 0
                    },
                    {
                        "number": 64,
                        "time": 58.732183308332964,
                        "value": 1
                    },
                    {
                        "number": 64,
                        "time": 59.333306633332946,
                        "value": 0
                    },
                    {
                        "number": 64,
                        "time": 59.41195828333294,
                        "value": 1
                    },
                    {
                        "number": 64,
                        "time": 60.00559097499959,
                        "value": 0
                    },
                    {
                        "number": 64,
                        "time": 60.099223891666256,
                        "value": 1
                    },
                    {
                        "number": 64,
                        "time": 60.682556962499575,
                        "value": 0
                    },
                    {
                        "number": 64,
                        "time": 60.779935195832905,
                        "value": 1
                    },
                    {
                        "number": 64,
                        "time": 62.03087096249954,
                        "value": 0
                    },
                    {
                        "number": 64,
                        "time": 62.108586283332876,
                        "value": 1
                    },
                    {
                        "number": 64,
                        "time": 63.37824863333284,
                        "value": 0
                    },
                    {
                        "number": 64,
                        "time": 63.463454587499506,
                        "value": 1
                    },
                    {
                        "number": 64,
                        "time": 64.05334196249949,
                        "value": 0
                    },
                    {
                        "number": 64,
                        "time": 64.17038310833283,
                        "value": 1
                    },
                    {
                        "number": 64,
                        "time": 64.72281731666615,
                        "value": 0
                    },
                    {
                        "number": 64,
                        "time": 64.78555137083282,
                        "value": 1
                    },
                    {
                        "number": 64,
                        "time": 66.07674929166612,
                        "value": 0
                    },
                    {
                        "number": 64,
                        "time": 66.18629980416613,
                        "value": 1
                    },
                    {
                        "number": 64,
                        "time": 67.41944531666608,
                        "value": 0
                    },
                    {
                        "number": 64,
                        "time": 67.50839658749942,
                        "value": 1
                    },
                    {
                        "number": 64,
                        "time": 68.77337729166605,
                        "value": 0
                    },
                    {
                        "number": 64,
                        "time": 68.82300273749938,
                        "value": 1
                    },
                    {
                        "number": 64,
                        "time": 69.44659796249935,
                        "value": 0
                    },
                    {
                        "number": 64,
                        "time": 69.50839568749936,
                        "value": 1
                    },
                    {
                        "number": 64,
                        "time": 70.11888230416601,
                        "value": 0
                    },
                    {
                        "number": 64,
                        "time": 70.23779610833267,
                        "value": 1
                    },
                    {
                        "number": 64,
                        "time": 70.79959360833267,
                        "value": 0
                    },
                    {
                        "number": 64,
                        "time": 70.885735891666,
                        "value": 1
                    },
                    {
                        "number": 64,
                        "time": 71.46906896249932,
                        "value": 0
                    },
                    {
                        "number": 64,
                        "time": 71.54022997916599,
                        "value": 1
                    },
                    {
                        "number": 64,
                        "time": 72.81738296249928,
                        "value": 0
                    },
                    {
                        "number": 64,
                        "time": 72.88386233333262,
                        "value": 1
                    },
                    {
                        "number": 64,
                        "time": 73.4906036333326,
                        "value": 0
                    },
                    {
                        "number": 64,
                        "time": 73.55333768749927,
                        "value": 1
                    },
                    {
                        "number": 64,
                        "time": 74.84266294999922,
                        "value": 0
                    },
                    {
                        "number": 64,
                        "time": 74.88479776249922,
                        "value": 1
                    },
                    {
                        "number": 64,
                        "time": 75.5140109624992,
                        "value": 0
                    },
                    {
                        "number": 64,
                        "time": 75.5786176749992,
                        "value": 1
                    },
                    {
                        "number": 64,
                        "time": 76.8641976208325,
                        "value": 0
                    },
                    {
                        "number": 64,
                        "time": 76.94659458749916,
                        "value": 1
                    },
                    {
                        "number": 64,
                        "time": 77.53648196249914,
                        "value": 0
                    },
                    {
                        "number": 64,
                        "time": 77.64041449999914,
                        "value": 1
                    },
                    {
                        "number": 64,
                        "time": 78.21251162083246,
                        "value": 0
                    },
                    {
                        "number": 64,
                        "time": 78.30239922083246,
                        "value": 1
                    },
                    {
                        "number": 64,
                        "time": 79.5589529624991,
                        "value": 0
                    },
                    {
                        "number": 64,
                        "time": 79.64322258749911,
                        "value": 1
                    },
                    {
                        "number": 64,
                        "time": 80.90913962083243,
                        "value": 0
                    },
                    {
                        "number": 64,
                        "time": 80.99809089166577,
                        "value": 1
                    },
                    {
                        "number": 64,
                        "time": 82.25745362083244,
                        "value": 0
                    },
                    {
                        "number": 64,
                        "time": 82.3482775499991,
                        "value": 1
                    },
                    {
                        "number": 64,
                        "time": 83.60295863333242,
                        "value": 0
                    },
                    {
                        "number": 64,
                        "time": 83.74153534999908,
                        "value": 1
                    },
                    {
                        "number": 64,
                        "time": 87.64040999999905,
                        "value": 0
                    },
                    {
                        "number": 64,
                        "time": 91.75183137083238,
                        "value": 1
                    },
                    {
                        "number": 64,
                        "time": 94.38947063333237,
                        "value": 0
                    },
                    {
                        "number": 64,
                        "time": 97.14508737083234,
                        "value": 1
                    },
                    {
                        "number": 64,
                        "time": 99.11231494999902,
                        "value": 0
                    },
                    {
                        "number": 64,
                        "time": 99.14602279999902,
                        "value": 1
                    },
                    {
                        "number": 64,
                        "time": 99.789280937499,
                        "value": 0
                    },
                    {
                        "number": 64,
                        "time": 100.449392999999,
                        "value": 1
                    },
                    {
                        "number": 64,
                        "time": 101.572987999999,
                        "value": 0
                    },
                    {
                        "number": 64,
                        "time": 107.92504506666563,
                        "value": 1
                    },
                    {
                        "number": 64,
                        "time": 110.57204762083228,
                        "value": 0
                    },
                    {
                        "number": 64,
                        "time": 113.3379639791656,
                        "value": 1
                    },
                    {
                        "number": 64,
                        "time": 115.2902102916656,
                        "value": 0
                    },
                    {
                        "number": 64,
                        "time": 115.33140877499893,
                        "value": 1
                    },
                    {
                        "number": 64,
                        "time": 115.96717627916559,
                        "value": 0
                    },
                    {
                        "number": 64,
                        "time": 116.62916099999892,
                        "value": 1
                    },
                    {
                        "number": 64,
                        "time": 117.75275599999891,
                        "value": 0
                    },
                    {
                        "number": 64,
                        "time": 121.46717380416574,
                        "value": 1
                    },
                    {
                        "number": 64,
                        "time": 123.37915796249904,
                        "value": 0
                    },
                    {
                        "number": 64,
                        "time": 124.04488799999903,
                        "value": 1
                    },
                    {
                        "number": 64,
                        "time": 124.72747196249902,
                        "value": 0
                    },
                    {
                        "number": 64,
                        "time": 126.79488676249899,
                        "value": 1
                    },
                    {
                        "number": 64,
                        "time": 128.7742866208323,
                        "value": 0
                    },
                    {
                        "number": 64,
                        "time": 132.18814276249896,
                        "value": 1
                    },
                    {
                        "number": 64,
                        "time": 132.81922862083226,
                        "value": 0
                    },
                    {
                        "number": 64,
                        "time": 132.87353571249892,
                        "value": 1
                    },
                    {
                        "number": 64,
                        "time": 133.49151296249892,
                        "value": 0
                    },
                    {
                        "number": 64,
                        "time": 133.55892866249891,
                        "value": 1
                    },
                    {
                        "number": 64,
                        "time": 134.16660629166554,
                        "value": 0
                    },
                    {
                        "number": 64,
                        "time": 134.23683097916555,
                        "value": 1
                    },
                    {
                        "number": 64,
                        "time": 134.8416996208322,
                        "value": 0
                    },
                    {
                        "number": 64,
                        "time": 134.88008911666554,
                        "value": 1
                    },
                    {
                        "number": 64,
                        "time": 135.51492029166553,
                        "value": 0
                    },
                    {
                        "number": 64,
                        "time": 135.60761687916553,
                        "value": 1
                    },
                    {
                        "number": 64,
                        "time": 136.1890772916655,
                        "value": 0
                    },
                    {
                        "number": 64,
                        "time": 136.2986278041655,
                        "value": 1
                    },
                    {
                        "number": 64,
                        "time": 136.86510694999885,
                        "value": 0
                    },
                    {
                        "number": 64,
                        "time": 136.9025601166655,
                        "value": 1
                    },
                    {
                        "number": 64,
                        "time": 137.5373912916655,
                        "value": 0
                    },
                    {
                        "number": 64,
                        "time": 137.61417028333216,
                        "value": 1
                    },
                    {
                        "number": 64,
                        "time": 138.20967563333215,
                        "value": 0
                    },
                    {
                        "number": 64,
                        "time": 138.2452561416655,
                        "value": 1
                    },
                    {
                        "number": 64,
                        "time": 138.8875779499988,
                        "value": 0
                    },
                    {
                        "number": 64,
                        "time": 138.97559289166549,
                        "value": 1
                    },
                    {
                        "number": 64,
                        "time": 139.56079862083214,
                        "value": 0
                    },
                    {
                        "number": 64,
                        "time": 139.64974989166546,
                        "value": 1
                    },
                    {
                        "number": 64,
                        "time": 140.2330829624988,
                        "value": 0
                    },
                    {
                        "number": 64,
                        "time": 140.35012410833212,
                        "value": 1
                    },
                    {
                        "number": 64,
                        "time": 140.91004894999878,
                        "value": 0
                    },
                    {
                        "number": 64,
                        "time": 140.9793373083321,
                        "value": 1
                    },
                    {
                        "number": 64,
                        "time": 141.5823332916654,
                        "value": 0
                    },
                    {
                        "number": 64,
                        "time": 141.70499241249874,
                        "value": 1
                    },
                    {
                        "number": 64,
                        "time": 142.2592992791654,
                        "value": 0
                    },
                    {
                        "number": 64,
                        "time": 142.3267149791654,
                        "value": 1
                    },
                    {
                        "number": 64,
                        "time": 142.93345627916537,
                        "value": 0
                    },
                    {
                        "number": 64,
                        "time": 143.04675210833204,
                        "value": 1
                    },
                    {
                        "number": 64,
                        "time": 144.279897620832,
                        "value": 0
                    },
                    {
                        "number": 64,
                        "time": 144.375403195832,
                        "value": 1
                    },
                    {
                        "number": 64,
                        "time": 145.62914794999864,
                        "value": 0
                    },
                    {
                        "number": 64,
                        "time": 145.70405428333197,
                        "value": 1
                    },
                    {
                        "number": 64,
                        "time": 146.97558929166527,
                        "value": 0
                    },
                    {
                        "number": 64,
                        "time": 147.03645068749861,
                        "value": 1
                    },
                    {
                        "number": 64,
                        "time": 147.64693730416525,
                        "value": 0
                    },
                    {
                        "number": 64,
                        "time": 147.7049897124986,
                        "value": 1
                    },
                    {
                        "number": 64,
                        "time": 148.32390329166523,
                        "value": 0
                    },
                    {
                        "number": 64,
                        "time": 148.38757367499858,
                        "value": 1
                    },
                    {
                        "number": 64,
                        "time": 148.9980602916652,
                        "value": 0
                    },
                    {
                        "number": 64,
                        "time": 149.08139358749855,
                        "value": 1
                    },
                    {
                        "number": 64,
                        "time": 149.6722172916652,
                        "value": 0
                    },
                    {
                        "number": 64,
                        "time": 149.7621048916652,
                        "value": 1
                    },
                    {
                        "number": 64,
                        "time": 151.02146762083183,
                        "value": 0
                    },
                    {
                        "number": 64,
                        "time": 151.11041889166515,
                        "value": 1
                    },
                    {
                        "number": 64,
                        "time": 151.69468829166513,
                        "value": 0
                    },
                    {
                        "number": 64,
                        "time": 151.74150474999846,
                        "value": 1
                    },
                    {
                        "number": 64,
                        "time": 152.36790896249846,
                        "value": 0
                    },
                    {
                        "number": 64,
                        "time": 152.43251567499846,
                        "value": 1
                    },
                    {
                        "number": 64,
                        "time": 153.04487494999844,
                        "value": 0
                    },
                    {
                        "number": 64,
                        "time": 153.1591071083318,
                        "value": 1
                    },
                    {
                        "number": 64,
                        "time": 153.72090460833178,
                        "value": 0
                    },
                    {
                        "number": 64,
                        "time": 153.76116676249845,
                        "value": 1
                    },
                    {
                        "number": 64,
                        "time": 155.06547329166506,
                        "value": 0
                    },
                    {
                        "number": 64,
                        "time": 155.1488065874984,
                        "value": 1
                    },
                    {
                        "number": 64,
                        "time": 156.41285096249837,
                        "value": 0
                    },
                    {
                        "number": 64,
                        "time": 156.50367489166504,
                        "value": 1
                    },
                    {
                        "number": 64,
                        "time": 157.76303762083168,
                        "value": 0
                    },
                    {
                        "number": 64,
                        "time": 157.81734471249834,
                        "value": 1
                    },
                    {
                        "number": 64,
                        "time": 158.43532196249834,
                        "value": 0
                    },
                    {
                        "number": 64,
                        "time": 158.50180133333166,
                        "value": 1
                    },
                    {
                        "number": 64,
                        "time": 159.10947896249832,
                        "value": 0
                    },
                    {
                        "number": 64,
                        "time": 159.20685719583165,
                        "value": 1
                    },
                    {
                        "number": 64,
                        "time": 159.7836359624983,
                        "value": 0
                    },
                    {
                        "number": 64,
                        "time": 159.86790558749829,
                        "value": 1
                    },
                    {
                        "number": 64,
                        "time": 160.46060194999828,
                        "value": 0
                    },
                    {
                        "number": 64,
                        "time": 160.5617254999983,
                        "value": 1
                    },
                    {
                        "number": 64,
                        "time": 161.80891594999827,
                        "value": 0
                    },
                    {
                        "number": 64,
                        "time": 161.9212754499983,
                        "value": 1
                    },
                    {
                        "number": 64,
                        "time": 162.4830729499983,
                        "value": 0
                    },
                    {
                        "number": 64,
                        "time": 162.55236130833163,
                        "value": 1
                    },
                    {
                        "number": 64,
                        "time": 163.8267053041649,
                        "value": 0
                    },
                    {
                        "number": 64,
                        "time": 163.88475771249824,
                        "value": 1
                    },
                    {
                        "number": 64,
                        "time": 164.50460762083156,
                        "value": 0
                    },
                    {
                        "number": 64,
                        "time": 164.59355889166488,
                        "value": 1
                    },
                    {
                        "number": 64,
                        "time": 165.85198529166485,
                        "value": 0
                    },
                    {
                        "number": 64,
                        "time": 165.94187289166484,
                        "value": 1
                    },
                    {
                        "number": 64,
                        "time": 166.51677899999817,
                        "value": 0
                    },
                    {
                        "number": 64,
                        "time": 166.58981267499817,
                        "value": 1
                    },
                    {
                        "number": 64,
                        "time": 167.19561764583148,
                        "value": 0
                    },
                    {
                        "number": 64,
                        "time": 167.27707828333146,
                        "value": 1
                    },
                    {
                        "number": 64,
                        "time": 168.54861329166476,
                        "value": 0
                    },
                    {
                        "number": 64,
                        "time": 168.63850089166476,
                        "value": 1
                    },
                    {
                        "number": 64,
                        "time": 169.89879994999808,
                        "value": 0
                    },
                    {
                        "number": 64,
                        "time": 169.98681489166475,
                        "value": 1
                    },
                    {
                        "number": 64,
                        "time": 171.2489866083314,
                        "value": 0
                    },
                    {
                        "number": 64,
                        "time": 171.34823749999805,
                        "value": 1
                    },
                    {
                        "number": 64,
                        "time": 172.59636427916467,
                        "value": 0
                    },
                    {
                        "number": 64,
                        "time": 172.7227687166647,
                        "value": 1
                    },
                    {
                        "number": 64,
                        "time": 176.62913399999803,
                        "value": 0
                    },
                    {
                        "number": 64,
                        "time": 188.82013974999794,
                        "value": 1
                    },
                    {
                        "number": 64,
                        "time": 190.99148708749792,
                        "value": 0
                    },
                    {
                        "number": 64,
                        "time": 205.74616209583118,
                        "value": 1
                    },
                    {
                        "number": 64,
                        "time": 207.78548702083114,
                        "value": 0
                    },
                    {
                        "number": 64,
                        "time": 218.48023876249752,
                        "value": 1
                    },
                    {
                        "number": 64,
                        "time": 219.10757930416415,
                        "value": 0
                    },
                    {
                        "number": 64,
                        "time": 219.21057551249748,
                        "value": 1
                    },
                    {
                        "number": 64,
                        "time": 219.78454529166413,
                        "value": 0
                    },
                    {
                        "number": 64,
                        "time": 220.50177343333078,
                        "value": 1
                    },
                    {
                        "number": 64,
                        "time": 221.12911397499744,
                        "value": 0
                    },
                    {
                        "number": 64,
                        "time": 221.84821477499742,
                        "value": 1
                    },
                    {
                        "number": 64,
                        "time": 222.48398227916405,
                        "value": 0
                    },
                    {
                        "number": 64,
                        "time": 223.1955924458307,
                        "value": 1
                    },
                    {
                        "number": 64,
                        "time": 224.05888793749736,
                        "value": 0
                    },
                    {
                        "number": 64,
                        "time": 224.6197491083307,
                        "value": 1
                    },
                    {
                        "number": 64,
                        "time": 225.17218331666402,
                        "value": 0
                    },
                    {
                        "number": 64,
                        "time": 225.22836306666403,
                        "value": 1
                    },
                    {
                        "number": 64,
                        "time": 225.851958291664,
                        "value": 0
                    },
                    {
                        "number": 64,
                        "time": 225.92873728333066,
                        "value": 1
                    },
                    {
                        "number": 64,
                        "time": 226.52986060833067,
                        "value": 0
                    },
                    {
                        "number": 64,
                        "time": 226.60289428333067,
                        "value": 1
                    },
                    {
                        "number": 64,
                        "time": 227.19559064583066,
                        "value": 0
                    },
                    {
                        "number": 64,
                        "time": 227.32293141249733,
                        "value": 1
                    },
                    {
                        "number": 64,
                        "time": 228.5504589499973,
                        "value": 0
                    },
                    {
                        "number": 64,
                        "time": 228.61412933333065,
                        "value": 1
                    },
                    {
                        "number": 64,
                        "time": 229.24615152083064,
                        "value": 0
                    },
                    {
                        "number": 64,
                        "time": 229.9409077624973,
                        "value": 1
                    },
                    {
                        "number": 64,
                        "time": 230.60195615416396,
                        "value": 0
                    },
                    {
                        "number": 64,
                        "time": 230.69371641249728,
                        "value": 1
                    },
                    {
                        "number": 64,
                        "time": 231.24240530416392,
                        "value": 0
                    },
                    {
                        "number": 64,
                        "time": 231.34165619583058,
                        "value": 1
                    },
                    {
                        "number": 64,
                        "time": 231.91749863333058,
                        "value": 0
                    },
                    {
                        "number": 64,
                        "time": 232.65064437083058,
                        "value": 1
                    },
                    {
                        "number": 64,
                        "time": 233.94090596249723,
                        "value": 0
                    },
                    {
                        "number": 64,
                        "time": 234.01862128333056,
                        "value": 1
                    },
                    {
                        "number": 64,
                        "time": 234.61225397499723,
                        "value": 0
                    },
                    {
                        "number": 64,
                        "time": 235.3538266749972,
                        "value": 1
                    },
                    {
                        "number": 64,
                        "time": 236.6562605458305,
                        "value": 0
                    },
                    {
                        "number": 64,
                        "time": 236.69933168749716,
                        "value": 1
                    },
                    {
                        "number": 64,
                        "time": 237.30326399999714,
                        "value": 0
                    },
                    {
                        "number": 64,
                        "time": 238.03079176249716,
                        "value": 1
                    },
                    {
                        "number": 64,
                        "time": 238.68528584999717,
                        "value": 0
                    },
                    {
                        "number": 64,
                        "time": 238.76393749999718,
                        "value": 1
                    },
                    {
                        "number": 64,
                        "time": 239.33135297499717,
                        "value": 0
                    },
                    {
                        "number": 64,
                        "time": 239.4006413333305,
                        "value": 1
                    },
                    {
                        "number": 64,
                        "time": 239.99989199999715,
                        "value": 0
                    },
                    {
                        "number": 64,
                        "time": 240.74708267499716,
                        "value": 1
                    },
                    {
                        "number": 64,
                        "time": 244.71899099999715,
                        "value": 0
                    },
                    {
                        "number": 64,
                        "time": 257.603816662497,
                        "value": 1
                    },
                    {
                        "number": 64,
                        "time": 259.755501087497,
                        "value": 0
                    },
                    {
                        "number": 64,
                        "time": 274.55324723749686,
                        "value": 1
                    },
                    {
                        "number": 64,
                        "time": 276.5495010208302,
                        "value": 0
                    },
                    {
                        "number": 64,
                        "time": 287.2442527624965,
                        "value": 1
                    },
                    {
                        "number": 64,
                        "time": 287.8762749499965,
                        "value": 0
                    },
                    {
                        "number": 64,
                        "time": 287.93807267499653,
                        "value": 1
                    },
                    {
                        "number": 64,
                        "time": 288.7760872791632,
                        "value": 0
                    },
                    {
                        "number": 64,
                        "time": 289.30324059999657,
                        "value": 1
                    },
                    {
                        "number": 64,
                        "time": 289.88750999999655,
                        "value": 0
                    },
                    {
                        "number": 64,
                        "time": 290.6337643458299,
                        "value": 1
                    },
                    {
                        "number": 64,
                        "time": 291.24799627916326,
                        "value": 0
                    },
                    {
                        "number": 64,
                        "time": 291.9502431541633,
                        "value": 1
                    },
                    {
                        "number": 64,
                        "time": 292.82102927916327,
                        "value": 0
                    },
                    {
                        "number": 64,
                        "time": 293.3509915874966,
                        "value": 1
                    },
                    {
                        "number": 64,
                        "time": 293.9324519999966,
                        "value": 0
                    },
                    {
                        "number": 64,
                        "time": 294.03170289166326,
                        "value": 1
                    },
                    {
                        "number": 64,
                        "time": 294.61503596249656,
                        "value": 0
                    },
                    {
                        "number": 64,
                        "time": 294.7320771083299,
                        "value": 1
                    },
                    {
                        "number": 64,
                        "time": 295.28732030416325,
                        "value": 0
                    },
                    {
                        "number": 64,
                        "time": 295.9605409749966,
                        "value": 0
                    },
                    {
                        "number": 64,
                        "time": 296.0934997166633,
                        "value": 1
                    },
                    {
                        "number": 64,
                        "time": 297.30979130416335,
                        "value": 0
                    },
                    {
                        "number": 64,
                        "time": 297.39406092916335,
                        "value": 1
                    },
                    {
                        "number": 64,
                        "time": 297.9830119749967,
                        "value": 0
                    },
                    {
                        "number": 64,
                        "time": 298.70492176249667,
                        "value": 1
                    },
                    {
                        "number": 64,
                        "time": 299.33319863333,
                        "value": 0
                    },
                    {
                        "number": 64,
                        "time": 299.3987416749967,
                        "value": 1
                    },
                    {
                        "number": 64,
                        "time": 299.9998649999967,
                        "value": 0
                    },
                    {
                        "number": 64,
                        "time": 300.11877880416336,
                        "value": 1
                    },
                    {
                        "number": 64,
                        "time": 300.6852579499967,
                        "value": 0
                    },
                    {
                        "number": 64,
                        "time": 300.75360997916334,
                        "value": 1
                    },
                    {
                        "number": 64,
                        "time": 301.35660596249664,
                        "value": 0
                    },
                    {
                        "number": 64,
                        "time": 301.4670928041633,
                        "value": 1
                    },
                    {
                        "number": 64,
                        "time": 302.70398363333004,
                        "value": 0
                    },
                    {
                        "number": 64,
                        "time": 302.8144704749967,
                        "value": 1
                    },
                    {
                        "number": 64,
                        "time": 303.38188594999673,
                        "value": 0
                    },
                    {
                        "number": 64,
                        "time": 304.11128637083004,
                        "value": 1
                    },
                    {
                        "number": 64,
                        "time": 305.3987389749967,
                        "value": 0
                    },
                    {
                        "number": 64,
                        "time": 305.4633456874967,
                        "value": 1
                    },
                    {
                        "number": 64,
                        "time": 306.0672779999967,
                        "value": 0
                    },
                    {
                        "number": 64,
                        "time": 306.82757728333,
                        "value": 1
                    },
                    {
                        "number": 64,
                        "time": 307.4249552916633,
                        "value": 0
                    },
                    {
                        "number": 64,
                        "time": 307.4951799791633,
                        "value": 1
                    },
                    {
                        "number": 64,
                        "time": 308.0981759624966,
                        "value": 0
                    },
                    {
                        "number": 64,
                        "time": 308.16465533332996,
                        "value": 1
                    },
                    {
                        "number": 64,
                        "time": 308.7639059999966,
                        "value": 0
                    },
                    {
                        "number": 64,
                        "time": 309.5504224999966,
                        "value": 1
                    },
                    {
                        "number": 64,
                        "time": 313.49611360832995,
                        "value": 0
                    },
                    {
                        "number": 64,
                        "time": 314.8959257124966,
                        "value": 1
                    },
                    {
                        "number": 64,
                        "time": 318.8762609999966,
                        "value": 0
                    },
                    {
                        "number": 64,
                        "time": 321.63749571249656,
                        "value": 1
                    },
                    {
                        "number": 64,
                        "time": 322.92307565832994,
                        "value": 0
                    },
                    {
                        "number": 64,
                        "time": 323.01764490416326,
                        "value": 1
                    },
                    {
                        "number": 64,
                        "time": 323.59535999999656,
                        "value": 0
                    },
                    {
                        "number": 64,
                        "time": 325.6815013833299,
                        "value": 1
                    },
                    {
                        "number": 64,
                        "time": 326.29198799999654,
                        "value": 0
                    },
                    {
                        "number": 64,
                        "time": 327.0035981666632,
                        "value": 1
                    },
                    {
                        "number": 64,
                        "time": 328.3144589999966,
                        "value": 0
                    },
                    {
                        "number": 64,
                        "time": 328.3949833083299,
                        "value": 1
                    },
                    {
                        "number": 64,
                        "time": 328.98861599999657,
                        "value": 0
                    },
                    {
                        "number": 64,
                        "time": 331.12344649999665,
                        "value": 1
                    },
                    {
                        "number": 64,
                        "time": 331.46614297499667,
                        "value": 0
                    },
                    {
                        "number": 64,
                        "time": 331.7929218541633,
                        "value": 1
                    },
                    {
                        "number": 64,
                        "time": 332.3678279624966,
                        "value": 0
                    },
                    {
                        "number": 64,
                        "time": 332.41089910416326,
                        "value": 1
                    },
                    {
                        "number": 64,
                        "time": 332.81632963332993,
                        "value": 0
                    },
                    {
                        "number": 64,
                        "time": 333.16183509582993,
                        "value": 1
                    },
                    {
                        "number": 64,
                        "time": 333.4970409374966,
                        "value": 0
                    },
                    {
                        "number": 64,
                        "time": 333.7723217124966,
                        "value": 1
                    },
                    {
                        "number": 64,
                        "time": 334.1702616083299,
                        "value": 0
                    },
                    {
                        "number": 64,
                        "time": 334.4680142833299,
                        "value": 1
                    },
                    {
                        "number": 64,
                        "time": 335.0719465958299,
                        "value": 0
                    },
                    {
                        "number": 64,
                        "time": 335.10752710416324,
                        "value": 1
                    },
                    {
                        "number": 64,
                        "time": 335.5120213041632,
                        "value": 0
                    },
                    {
                        "number": 64,
                        "time": 335.79479271249653,
                        "value": 1
                    },
                    {
                        "number": 64,
                        "time": 336.4108973041632,
                        "value": 0
                    },
                    {
                        "number": 64,
                        "time": 336.49048528332986,
                        "value": 1
                    },
                    {
                        "number": 64,
                        "time": 336.8622079624965,
                        "value": 0
                    },
                    {
                        "number": 64,
                        "time": 337.1431067124965,
                        "value": 1
                    },
                    {
                        "number": 64,
                        "time": 337.76014763332984,
                        "value": 0
                    },
                    {
                        "number": 64,
                        "time": 337.8387992833298,
                        "value": 1
                    },
                    {
                        "number": 64,
                        "time": 338.2114582916631,
                        "value": 0
                    },
                    {
                        "number": 64,
                        "time": 338.48018476249644,
                        "value": 1
                    },
                    {
                        "number": 64,
                        "time": 338.88936060832975,
                        "value": 0
                    },
                    {
                        "number": 64,
                        "time": 339.1356151791631,
                        "value": 1
                    },
                    {
                        "number": 64,
                        "time": 339.56070862082976,
                        "value": 0
                    },
                    {
                        "number": 64,
                        "time": 339.86127028332976,
                        "value": 1
                    },
                    {
                        "number": 64,
                        "time": 340.45677563332976,
                        "value": 0
                    },
                    {
                        "number": 64,
                        "time": 340.54010892916307,
                        "value": 1
                    },
                    {
                        "number": 64,
                        "time": 340.90808629166304,
                        "value": 0
                    },
                    {
                        "number": 64,
                        "time": 341.17681276249635,
                        "value": 1
                    },
                    {
                        "number": 64,
                        "time": 341.80602596249634,
                        "value": 0
                    },
                    {
                        "number": 64,
                        "time": 341.8865502708297,
                        "value": 1
                    },
                    {
                        "number": 64,
                        "time": 342.2554639624963,
                        "value": 0
                    },
                    {
                        "number": 64,
                        "time": 342.57943385416297,
                        "value": 1
                    },
                    {
                        "number": 64,
                        "time": 343.155276291663,
                        "value": 0
                    },
                    {
                        "number": 64,
                        "time": 343.23954591666296,
                        "value": 1
                    },
                    {
                        "number": 64,
                        "time": 343.6037779624963,
                        "value": 0
                    },
                    {
                        "number": 64,
                        "time": 343.90621228332964,
                        "value": 1
                    },
                    {
                        "number": 64,
                        "time": 344.50265396249625,
                        "value": 0
                    },
                    {
                        "number": 64,
                        "time": 344.5831782708296,
                        "value": 1
                    },
                    {
                        "number": 64,
                        "time": 344.9530282916629,
                        "value": 0
                    },
                    {
                        "number": 64,
                        "time": 345.3294326166629,
                        "value": 1
                    },
                    {
                        "number": 64,
                        "time": 345.84815897499624,
                        "value": 0
                    },
                    {
                        "number": 64,
                        "time": 345.9202563208296,
                        "value": 1
                    },
                    {
                        "number": 64,
                        "time": 346.29946963332964,
                        "value": 0
                    },
                    {
                        "number": 64,
                        "time": 346.54946952082963,
                        "value": 1
                    },
                    {
                        "number": 64,
                        "time": 346.9745629624963,
                        "value": 0
                    },
                    {
                        "number": 64,
                        "time": 347.964262891663,
                        "value": 1
                    },
                    {
                        "number": 64,
                        "time": 349.21707131666295,
                        "value": 0
                    },
                    {
                        "number": 64,
                        "time": 349.8874829999963,
                        "value": 1
                    },
                    {
                        "number": 64,
                        "time": 350.57287594999633,
                        "value": 0
                    },
                    {
                        "number": 64,
                        "time": 351.281677129163,
                        "value": 1
                    },
                    {
                        "number": 64,
                        "time": 351.9183809624963,
                        "value": 0
                    },
                    {
                        "number": 64,
                        "time": 352.67025328332966,
                        "value": 1
                    },
                    {
                        "number": 64,
                        "time": 354.6140726333297,
                        "value": 0
                    },
                    {
                        "number": 64,
                        "time": 355.3135105208297,
                        "value": 1
                    },
                    {
                        "number": 64,
                        "time": 355.9605139749964,
                        "value": 0
                    },
                    {
                        "number": 64,
                        "time": 356.1327985416631,
                        "value": 1
                    },
                    {
                        "number": 64,
                        "time": 356.6290529999964,
                        "value": 0
                    },
                    {
                        "number": 64,
                        "time": 356.6992776874964,
                        "value": 1
                    },
                    {
                        "number": 64,
                        "time": 357.30976430416314,
                        "value": 0
                    },
                    {
                        "number": 64,
                        "time": 357.4314870958298,
                        "value": 1
                    },
                    {
                        "number": 64,
                        "time": 357.7666929374965,
                        "value": 0
                    },
                    {
                        "number": 64,
                        "time": 357.86032585416314,
                        "value": 1
                    },
                    {
                        "number": 64,
                        "time": 357.9773669999965,
                        "value": 0
                    },
                    {
                        "number": 64,
                        "time": 358.02605611666314,
                        "value": 1
                    },
                    {
                        "number": 64,
                        "time": 358.65901463332983,
                        "value": 0
                    },
                    {
                        "number": 64,
                        "time": 358.76762881666315,
                        "value": 1
                    },
                    {
                        "number": 64,
                        "time": 359.32568099999645,
                        "value": 0
                    },
                    {
                        "number": 64,
                        "time": 359.39590568749645,
                        "value": 1
                    },
                    {
                        "number": 64,
                        "time": 360.0054559749965,
                        "value": 0
                    },
                    {
                        "number": 64,
                        "time": 360.1178154749965,
                        "value": 1
                    },
                    {
                        "number": 64,
                        "time": 360.45489397499654,
                        "value": 0
                    },
                    {
                        "number": 64,
                        "time": 360.5457179041632,
                        "value": 1
                    },
                    {
                        "number": 64,
                        "time": 360.6833582916632,
                        "value": 0
                    },
                    {
                        "number": 64,
                        "time": 360.7386017124965,
                        "value": 1
                    },
                    {
                        "number": 64,
                        "time": 364.0447799999964,
                        "value": 0
                    },
                    {
                        "number": 64,
                        "time": 366.11032214166323,
                        "value": 1
                    },
                    {
                        "number": 64,
                        "time": 366.74140799999657,
                        "value": 0
                    },
                    {
                        "number": 64,
                        "time": 366.9239921874966,
                        "value": 1
                    },
                    {
                        "number": 64,
                        "time": 367.20114562082995,
                        "value": 0
                    },
                    {
                        "number": 64,
                        "time": 367.2872879041633,
                        "value": 1
                    },
                    {
                        "number": 64,
                        "time": 367.4155649999966,
                        "value": 0
                    },
                    {
                        "number": 64,
                        "time": 367.4979619666633,
                        "value": 1
                    },
                    {
                        "number": 64,
                        "time": 368.08972199999664,
                        "value": 0
                    },
                    {
                        "number": 64,
                        "time": 368.2395346666633,
                        "value": 1
                    },
                    {
                        "number": 64,
                        "time": 368.5419689874966,
                        "value": 0
                    },
                    {
                        "number": 64,
                        "time": 368.6515194999966,
                        "value": 1
                    },
                    {
                        "number": 64,
                        "time": 368.7732422916633,
                        "value": 0
                    },
                    {
                        "number": 64,
                        "time": 368.8537665999966,
                        "value": 1
                    },
                    {
                        "number": 64,
                        "time": 369.4492719499966,
                        "value": 0
                    },
                    {
                        "number": 64,
                        "time": 369.55601347499663,
                        "value": 1
                    },
                    {
                        "number": 64,
                        "time": 369.8940283041633,
                        "value": 0
                    },
                    {
                        "number": 64,
                        "time": 370.0054514749967,
                        "value": 1
                    },
                    {
                        "number": 64,
                        "time": 370.1318559124967,
                        "value": 0
                    },
                    {
                        "number": 64,
                        "time": 370.23110680416335,
                        "value": 1
                    },
                    {
                        "number": 64,
                        "time": 370.7863499999967,
                        "value": 0
                    },
                    {
                        "number": 64,
                        "time": 370.8940278541633,
                        "value": 1
                    },
                    {
                        "number": 64,
                        "time": 371.25170559583,
                        "value": 0
                    },
                    {
                        "number": 64,
                        "time": 371.33222990416334,
                        "value": 1
                    },
                    {
                        "number": 64,
                        "time": 371.4633159874966,
                        "value": 0
                    },
                    {
                        "number": 64,
                        "time": 371.53541333333,
                        "value": 1
                    },
                    {
                        "number": 64,
                        "time": 371.92024462083003,
                        "value": 0
                    },
                    {
                        "number": 64,
                        "time": 371.9717427249967,
                        "value": 1
                    },
                    {
                        "number": 64,
                        "time": 372.14496362083,
                        "value": 0
                    },
                    {
                        "number": 64,
                        "time": 372.22080628333,
                        "value": 1
                    },
                    {
                        "number": 64,
                        "time": 372.5934652916633,
                        "value": 0
                    },
                    {
                        "number": 64,
                        "time": 372.64683605416326,
                        "value": 1
                    },
                    {
                        "number": 64,
                        "time": 372.8153753041633,
                        "value": 0
                    },
                    {
                        "number": 64,
                        "time": 372.9108808791633,
                        "value": 1
                    },
                    {
                        "number": 64,
                        "time": 373.26855862083005,
                        "value": 0
                    },
                    {
                        "number": 64,
                        "time": 373.2910305208301,
                        "value": 1
                    },
                    {
                        "number": 64,
                        "time": 373.48297799999676,
                        "value": 0
                    },
                    {
                        "number": 64,
                        "time": 373.5653749666634,
                        "value": 1
                    },
                    {
                        "number": 64,
                        "time": 373.94084296249673,
                        "value": 0
                    },
                    {
                        "number": 64,
                        "time": 374.0054496749967,
                        "value": 1
                    },
                    {
                        "number": 64,
                        "time": 374.1655619624967,
                        "value": 0
                    },
                    {
                        "number": 64,
                        "time": 374.24327728333003,
                        "value": 1
                    },
                    {
                        "number": 64,
                        "time": 374.61687262083007,
                        "value": 0
                    },
                    {
                        "number": 64,
                        "time": 374.6440261666634,
                        "value": 1
                    },
                    {
                        "number": 64,
                        "time": 374.8547002291634,
                        "value": 0
                    },
                    {
                        "number": 64,
                        "time": 374.9211795999968,
                        "value": 1
                    },
                    {
                        "number": 64,
                        "time": 375.2882206333301,
                        "value": 0
                    },
                    {
                        "number": 64,
                        "time": 375.3341007624968,
                        "value": 1
                    },
                    {
                        "number": 64,
                        "time": 375.5054489999968,
                        "value": 0
                    },
                    {
                        "number": 64,
                        "time": 375.5831643208301,
                        "value": 1
                    },
                    {
                        "number": 64,
                        "time": 375.9642502916635,
                        "value": 0
                    },
                    {
                        "number": 64,
                        "time": 376.00638510416354,
                        "value": 1
                    },
                    {
                        "number": 64,
                        "time": 376.18616030416354,
                        "value": 0
                    },
                    {
                        "number": 64,
                        "time": 376.2657482833302,
                        "value": 1
                    },
                    {
                        "number": 64,
                        "time": 376.64027994999685,
                        "value": 0
                    },
                    {
                        "number": 64,
                        "time": 376.71144096666353,
                        "value": 1
                    },
                    {
                        "number": 64,
                        "time": 376.8781075583302,
                        "value": 0
                    },
                    {
                        "number": 64,
                        "time": 376.9239876874969,
                        "value": 1
                    },
                    {
                        "number": 64,
                        "time": 377.31443694999695,
                        "value": 0
                    },
                    {
                        "number": 64,
                        "time": 377.35938074999694,
                        "value": 1
                    },
                    {
                        "number": 64,
                        "time": 377.5279199999969,
                        "value": 0
                    },
                    {
                        "number": 64,
                        "time": 377.64027949999695,
                        "value": 1
                    },
                    {
                        "number": 64,
                        "time": 377.9867212916636,
                        "value": 0
                    },
                    {
                        "number": 64,
                        "time": 378.0653729416636,
                        "value": 1
                    },
                    {
                        "number": 64,
                        "time": 378.21612193749695,
                        "value": 0
                    },
                    {
                        "number": 64,
                        "time": 378.2844739666636,
                        "value": 1
                    },
                    {
                        "number": 64,
                        "time": 378.6636872791637,
                        "value": 0
                    },
                    {
                        "number": 64,
                        "time": 378.707694749997,
                        "value": 1
                    },
                    {
                        "number": 64,
                        "time": 378.876233999997,
                        "value": 0
                    },
                    {
                        "number": 64,
                        "time": 379.0157470458303,
                        "value": 1
                    },
                    {
                        "number": 64,
                        "time": 379.3359716208303,
                        "value": 0
                    },
                    {
                        "number": 64,
                        "time": 379.4333498541637,
                        "value": 1
                    },
                    {
                        "number": 64,
                        "time": 379.558817962497,
                        "value": 0
                    },
                    {
                        "number": 64,
                        "time": 379.59627112916365,
                        "value": 1
                    },
                    {
                        "number": 64,
                        "time": 380.0120012791637,
                        "value": 0
                    },
                    {
                        "number": 64,
                        "time": 380.0372821666637,
                        "value": 1
                    },
                    {
                        "number": 64,
                        "time": 380.22454799999707,
                        "value": 0
                    },
                    {
                        "number": 64,
                        "time": 380.3369074999971,
                        "value": 1
                    },
                    {
                        "number": 64,
                        "time": 380.6805403041638,
                        "value": 0
                    },
                    {
                        "number": 64,
                        "time": 380.81162638749714,
                        "value": 1
                    },
                    {
                        "number": 64,
                        "time": 380.89870499999716,
                        "value": 0
                    },
                    {
                        "number": 64,
                        "time": 380.9679933583305,
                        "value": 1
                    },
                    {
                        "number": 64,
                        "time": 381.3565699624972,
                        "value": 0
                    },
                    {
                        "number": 64,
                        "time": 381.3949594583305,
                        "value": 1
                    },
                    {
                        "number": 64,
                        "time": 381.57286199999714,
                        "value": 0
                    },
                    {
                        "number": 64,
                        "time": 381.7339106166638,
                        "value": 1
                    },
                    {
                        "number": 64,
                        "time": 382.03540860833044,
                        "value": 0
                    },
                    {
                        "number": 64,
                        "time": 382.1084422833304,
                        "value": 1
                    },
                    {
                        "number": 64,
                        "time": 382.2517006458304,
                        "value": 0
                    },
                    {
                        "number": 64,
                        "time": 382.3266069791637,
                        "value": 1
                    },
                    {
                        "number": 64,
                        "time": 382.7076929499971,
                        "value": 0
                    },
                    {
                        "number": 64,
                        "time": 382.74982776249715,
                        "value": 1
                    },
                    {
                        "number": 64,
                        "time": 382.92117599999716,
                        "value": 0
                    },
                    {
                        "number": 64,
                        "time": 383.08971524999714,
                        "value": 1
                    },
                    {
                        "number": 64,
                        "time": 383.3781046333305,
                        "value": 0
                    },
                    {
                        "number": 64,
                        "time": 383.46705590416383,
                        "value": 1
                    },
                    {
                        "number": 64,
                        "time": 383.60844160833045,
                        "value": 0
                    },
                    {
                        "number": 64,
                        "time": 383.6515127499971,
                        "value": 1
                    },
                    {
                        "number": 64,
                        "time": 384.05787960833044,
                        "value": 0
                    },
                    {
                        "number": 64,
                        "time": 384.1009507499971,
                        "value": 1
                    },
                    {
                        "number": 64,
                        "time": 384.26948999999706,
                        "value": 0
                    },
                    {
                        "number": 64,
                        "time": 384.4520741874971,
                        "value": 1
                    },
                    {
                        "number": 64,
                        "time": 384.7320366083304,
                        "value": 0
                    },
                    {
                        "number": 64,
                        "time": 395.7769754583307,
                        "value": 1
                    },
                    {
                        "number": 64,
                        "time": 398.42678699999743,
                        "value": 0
                    },
                    {
                        "number": 64,
                        "time": 401.1702314583308,
                        "value": 1
                    },
                    {
                        "number": 64,
                        "time": 403.8247246458308,
                        "value": 0
                    },
                    {
                        "number": 64,
                        "time": 404.4941999999975,
                        "value": 1
                    },
                    {
                        "number": 64,
                        "time": 405.61779499999744,
                        "value": 0
                    },
                    {
                        "number": 64,
                        "time": 411.9960692833308,
                        "value": 1
                    },
                    {
                        "number": 64,
                        "time": 414.6121729749976,
                        "value": 0
                    },
                    {
                        "number": 64,
                        "time": 417.3565537624976,
                        "value": 1
                    },
                    {
                        "number": 64,
                        "time": 420.007301633331,
                        "value": 0
                    },
                    {
                        "number": 64,
                        "time": 420.67396799999767,
                        "value": 1
                    },
                    {
                        "number": 64,
                        "time": 421.79756299999764,
                        "value": 0
                    },
                    {
                        "number": 64,
                        "time": 425.518535108331,
                        "value": 1
                    },
                    {
                        "number": 64,
                        "time": 427.4211559749976,
                        "value": 0
                    },
                    {
                        "number": 64,
                        "time": 428.08969499999756,
                        "value": 1
                    },
                    {
                        "number": 64,
                        "time": 428.7638519999976,
                        "value": 0
                    },
                    {
                        "number": 64,
                        "time": 430.8462480666643,
                        "value": 1
                    },
                    {
                        "number": 64,
                        "time": 432.81534830416433,
                        "value": 0
                    },
                    {
                        "number": 64,
                        "time": 436.21984115416467,
                        "value": 1
                    },
                    {
                        "number": 64,
                        "time": 437.534447304165,
                        "value": 0
                    },
                    {
                        "number": 64,
                        "time": 437.618716929165,
                        "value": 1
                    },
                    {
                        "number": 64,
                        "time": 438.2057953166651,
                        "value": 0
                    },
                    {
                        "number": 64,
                        "time": 438.2750836749984,
                        "value": 1
                    },
                    {
                        "number": 64,
                        "time": 438.8836976333319,
                        "value": 0
                    },
                    {
                        "number": 64,
                        "time": 438.9408137124986,
                        "value": 1
                    },
                    {
                        "number": 64,
                        "time": 439.5587909624987,
                        "value": 0
                    },
                    {
                        "number": 64,
                        "time": 439.63088830833203,
                        "value": 1
                    },
                    {
                        "number": 64,
                        "time": 440.23575694999886,
                        "value": 0
                    },
                    {
                        "number": 64,
                        "time": 440.3237718916655,
                        "value": 1
                    },
                    {
                        "number": 64,
                        "time": 440.9052323041656,
                        "value": 0
                    },
                    {
                        "number": 64,
                        "time": 440.952048762499,
                        "value": 1
                    },
                    {
                        "number": 64,
                        "time": 441.5793893041658,
                        "value": 0
                    },
                    {
                        "number": 64,
                        "time": 441.65897728333243,
                        "value": 1
                    },
                    {
                        "number": 64,
                        "time": 442.2544826333326,
                        "value": 0
                    },
                    {
                        "number": 64,
                        "time": 442.2984901041659,
                        "value": 1
                    },
                    {
                        "number": 64,
                        "time": 442.9277033041661,
                        "value": 0
                    },
                    {
                        "number": 64,
                        "time": 442.9941826749994,
                        "value": 1
                    },
                    {
                        "number": 64,
                        "time": 443.6018603041662,
                        "value": 0
                    },
                    {
                        "number": 64,
                        "time": 443.6748939791662,
                        "value": 1
                    },
                    {
                        "number": 64,
                        "time": 444.2788262916663,
                        "value": 0
                    },
                    {
                        "number": 64,
                        "time": 444.3687138916663,
                        "value": 1
                    },
                    {
                        "number": 64,
                        "time": 444.9501743041664,
                        "value": 0
                    },
                    {
                        "number": 64,
                        "time": 445.05597949999975,
                        "value": 1
                    },
                    {
                        "number": 64,
                        "time": 445.62526763333324,
                        "value": 0
                    },
                    {
                        "number": 64,
                        "time": 445.7170278916666,
                        "value": 1
                    },
                    {
                        "number": 64,
                        "time": 446.30316995000004,
                        "value": 0
                    },
                    {
                        "number": 64,
                        "time": 446.3584133708334,
                        "value": 1
                    },
                    {
                        "number": 64,
                        "time": 446.97358163333354,
                        "value": 0
                    },
                    {
                        "number": 64,
                        "time": 447.0653418916669,
                        "value": 1
                    },
                    {
                        "number": 64,
                        "time": 448.32189563333384,
                        "value": 0
                    },
                    {
                        "number": 64,
                        "time": 448.4267645000005,
                        "value": 1
                    },
                    {
                        "number": 64,
                        "time": 449.6730186208341,
                        "value": 0
                    },
                    {
                        "number": 64,
                        "time": 449.71608976250076,
                        "value": 1
                    },
                    {
                        "number": 64,
                        "time": 451.0203962916677,
                        "value": 0
                    },
                    {
                        "number": 64,
                        "time": 451.070021737501,
                        "value": 1
                    },
                    {
                        "number": 64,
                        "time": 451.6936169625011,
                        "value": 0
                    },
                    {
                        "number": 64,
                        "time": 451.7441787375011,
                        "value": 1
                    },
                    {
                        "number": 64,
                        "time": 452.36871029166787,
                        "value": 0
                    },
                    {
                        "number": 64,
                        "time": 452.45859789166786,
                        "value": 1
                    },
                    {
                        "number": 64,
                        "time": 453.7114063166681,
                        "value": 0
                    },
                    {
                        "number": 64,
                        "time": 453.8200205000014,
                        "value": 1
                    },
                    {
                        "number": 64,
                        "time": 455.06533829166835,
                        "value": 0
                    },
                    {
                        "number": 64,
                        "time": 455.14867158750167,
                        "value": 1
                    },
                    {
                        "number": 64,
                        "time": 455.7366863041685,
                        "value": 0
                    },
                    {
                        "number": 64,
                        "time": 455.7797574458351,
                        "value": 1
                    },
                    {
                        "number": 64,
                        "time": 456.41271596250186,
                        "value": 0
                    },
                    {
                        "number": 64,
                        "time": 456.46421406666855,
                        "value": 1
                    },
                    {
                        "number": 64,
                        "time": 457.0850003041687,
                        "value": 0
                    },
                    {
                        "number": 64,
                        "time": 457.1580339791687,
                        "value": 1
                    },
                    {
                        "number": 64,
                        "time": 457.7600936333355,
                        "value": 0
                    },
                    {
                        "number": 64,
                        "time": 457.80597376250216,
                        "value": 1
                    },
                    {
                        "number": 64,
                        "time": 459.10653497500243,
                        "value": 0
                    },
                    {
                        "number": 64,
                        "time": 459.19361358750245,
                        "value": 1
                    },
                    {
                        "number": 64,
                        "time": 460.4567216333361,
                        "value": 0
                    },
                    {
                        "number": 64,
                        "time": 460.55503619583607,
                        "value": 1
                    },
                    {
                        "number": 64,
                        "time": 461.13181496250286,
                        "value": 0
                    },
                    {
                        "number": 64,
                        "time": 461.25541041250284,
                        "value": 1
                    },
                    {
                        "number": 64,
                        "time": 461.80784462083625,
                        "value": 0
                    },
                    {
                        "number": 64,
                        "time": 461.8883689291696,
                        "value": 1
                    },
                    {
                        "number": 64,
                        "time": 462.48012896250304,
                        "value": 0
                    },
                    {
                        "number": 64,
                        "time": 462.54192668750306,
                        "value": 1
                    },
                    {
                        "number": 64,
                        "time": 463.1608402666699,
                        "value": 0
                    },
                    {
                        "number": 64,
                        "time": 463.2057840666699,
                        "value": 1
                    },
                    {
                        "number": 64,
                        "time": 463.82844296250335,
                        "value": 0
                    },
                    {
                        "number": 64,
                        "time": 463.9258211958367,
                        "value": 1
                    },
                    {
                        "number": 64,
                        "time": 464.5035362916702,
                        "value": 0
                    },
                    {
                        "number": 64,
                        "time": 464.59342389167017,
                        "value": 1
                    },
                    {
                        "number": 64,
                        "time": 465.1767569625036,
                        "value": 0
                    },
                    {
                        "number": 64,
                        "time": 465.2544722833369,
                        "value": 1
                    },
                    {
                        "number": 64,
                        "time": 465.8509139625037,
                        "value": 0
                    },
                    {
                        "number": 64,
                        "time": 465.92301130833704,
                        "value": 1
                    },
                    {
                        "number": 64,
                        "time": 466.52226197500386,
                        "value": 0
                    },
                    {
                        "number": 64,
                        "time": 466.57001476250383,
                        "value": 1
                    },
                    {
                        "number": 64,
                        "time": 467.8733849625041,
                        "value": 0
                    },
                    {
                        "number": 64,
                        "time": 467.95578192917077,
                        "value": 1
                    },
                    {
                        "number": 64,
                        "time": 468.5466056333376,
                        "value": 0
                    },
                    {
                        "number": 64,
                        "time": 468.6055943708376,
                        "value": 1
                    },
                    {
                        "number": 64,
                        "time": 469.2263806083377,
                        "value": 0
                    },
                    {
                        "number": 64,
                        "time": 469.29379630833773,
                        "value": 1
                    },
                    {
                        "number": 64,
                        "time": 470.57094929167135,
                        "value": 0
                    },
                    {
                        "number": 64,
                        "time": 470.64211030833803,
                        "value": 1
                    },
                    {
                        "number": 64,
                        "time": 471.2432336333382,
                        "value": 0
                    },
                    {
                        "number": 64,
                        "time": 471.3415481958382,
                        "value": 1
                    },
                    {
                        "number": 64,
                        "time": 471.915517975005,
                        "value": 0
                    },
                    {
                        "number": 64,
                        "time": 472.022259500005,
                        "value": 1
                    },
                    {
                        "number": 64,
                        "time": 472.5915476333385,
                        "value": 0
                    },
                    {
                        "number": 64,
                        "time": 472.65896333333853,
                        "value": 1
                    },
                    {
                        "number": 64,
                        "time": 473.2657046333387,
                        "value": 0
                    },
                    {
                        "number": 64,
                        "time": 473.33312033333874,
                        "value": 1
                    },
                    {
                        "number": 64,
                        "time": 473.93892530417224,
                        "value": 0
                    },
                    {
                        "number": 64,
                        "time": 473.9913597375056,
                        "value": 1
                    },
                    {
                        "number": 64,
                        "time": 474.61589129167237,
                        "value": 0
                    },
                    {
                        "number": 64,
                        "time": 474.70858787917234,
                        "value": 1
                    },
                    {
                        "number": 64,
                        "time": 475.2863029750058,
                        "value": 0
                    },
                    {
                        "number": 64,
                        "time": 475.39304450000583,
                        "value": 1
                    },
                    {
                        "number": 64,
                        "time": 475.9642052916726,
                        "value": 0
                    },
                    {
                        "number": 64,
                        "time": 476.0344299791726,
                        "value": 1
                    },
                    {
                        "number": 64,
                        "time": 476.64585292500607,
                        "value": 0
                    },
                    {
                        "number": 64,
                        "time": 476.7151412833394,
                        "value": 1
                    },
                    {
                        "number": 64,
                        "time": 477.98480363333937,
                        "value": 0
                    },
                    {
                        "number": 64,
                        "time": 478.072818575006,
                        "value": 1
                    },
                    {
                        "number": 64,
                        "time": 479.3312449750061,
                        "value": 0
                    },
                    {
                        "number": 64,
                        "time": 479.4445408041728,
                        "value": 1
                    },
                    {
                        "number": 64,
                        "time": 480.67955897500616,
                        "value": 0
                    },
                    {
                        "number": 64,
                        "time": 480.7769372083395,
                        "value": 1
                    },
                    {
                        "number": 64,
                        "time": 481.9660752500062,
                        "value": 0
                    },
                    {
                        "number": 64,
                        "time": 483.6552130666729,
                        "value": 1
                    },
                    {
                        "number": 64,
                        "time": 484.05502562083956,
                        "value": 0
                    },
                    {
                        "number": 64,
                        "time": 484.78536237083955,
                        "value": 1
                    },
                    {
                        "number": 64,
                        "time": 485.4529650666729,
                        "value": 0
                    },
                    {
                        "number": 64,
                        "time": 486.3115789125062,
                        "value": 1
                    },
                    {
                        "number": 64,
                        "time": 486.74884463333956,
                        "value": 0
                    },
                    {
                        "number": 64,
                        "time": 487.4688817625062,
                        "value": 1
                    },
                    {
                        "number": 64,
                        "time": 487.6430389875062,
                        "value": 0
                    },
                    {
                        "number": 64,
                        "time": 487.92112875000623,
                        "value": 1
                    },
                    {
                        "number": 64,
                        "time": 488.3228139625062,
                        "value": 0
                    },
                    {
                        "number": 64,
                        "time": 488.58779511667285,
                        "value": 1
                    },
                    {
                        "number": 64,
                        "time": 488.99697096250617,
                        "value": 0
                    },
                    {
                        "number": 64,
                        "time": 489.23948021667286,
                        "value": 1
                    },
                    {
                        "number": 64,
                        "time": 489.6720642916728,
                        "value": 0
                    },
                    {
                        "number": 64,
                        "time": 489.9145735458395,
                        "value": 1
                    },
                    {
                        "number": 64,
                        "time": 490.35839357083955,
                        "value": 0
                    },
                    {
                        "number": 64,
                        "time": 490.5943485208395,
                        "value": 1
                    },
                    {
                        "number": 64,
                        "time": 491.0278689250062,
                        "value": 0
                    },
                    {
                        "number": 64,
                        "time": 491.31532197917284,
                        "value": 1
                    },
                    {
                        "number": 64,
                        "time": 491.6982806083395,
                        "value": 0
                    },
                    {
                        "number": 64,
                        "time": 491.9585801166728,
                        "value": 1
                    },
                    {
                        "number": 64,
                        "time": 492.3677559625061,
                        "value": 0
                    },
                    {
                        "number": 64,
                        "time": 492.59715660833945,
                        "value": 1
                    },
                    {
                        "number": 64,
                        "time": 493.09622005417276,
                        "value": 0
                    },
                    {
                        "number": 64,
                        "time": 495.50539500000605,
                        "value": 1
                    },
                    {
                        "number": 64,
                        "time": 496.95389622083934,
                        "value": 0
                    },
                    {
                        "number": 64,
                        "time": 500.8986510000059,
                        "value": 1
                    },
                    {
                        "number": 64,
                        "time": 502.3471522208392,
                        "value": 0
                    },
                    {
                        "number": 64,
                        "time": 509.0287971541723,
                        "value": 1
                    },
                    {
                        "number": 64,
                        "time": 509.6711189625056,
                        "value": 0
                    },
                    {
                        "number": 64,
                        "time": 509.7291713708389,
                        "value": 1
                    },
                    {
                        "number": 64,
                        "time": 510.34808495000556,
                        "value": 0
                    },
                    {
                        "number": 64,
                        "time": 510.4098826750056,
                        "value": 1
                    },
                    {
                        "number": 64,
                        "time": 511.01756030417226,
                        "value": 0
                    },
                    {
                        "number": 64,
                        "time": 511.7581966750056,
                        "value": 1
                    },
                    {
                        "number": 64,
                        "time": 512.3677469625057,
                        "value": 0
                    },
                    {
                        "number": 64,
                        "time": 512.4454622833391,
                        "value": 1
                    },
                    {
                        "number": 64,
                        "time": 513.0475219375058,
                        "value": 0
                    },
                    {
                        "number": 64,
                        "time": 513.1065106750059,
                        "value": 1
                    },
                    {
                        "number": 64,
                        "time": 513.7151246333393,
                        "value": 0
                    },
                    {
                        "number": 64,
                        "time": 519.8181181416733,
                        "value": 1
                    },
                    {
                        "number": 64,
                        "time": 520.4585672916733,
                        "value": 0
                    },
                    {
                        "number": 64,
                        "time": 520.58871704584,
                        "value": 1
                    },
                    {
                        "number": 64,
                        "time": 521.1327242916733,
                        "value": 0
                    },
                    {
                        "number": 64,
                        "time": 521.2844096166733,
                        "value": 1
                    },
                    {
                        "number": 64,
                        "time": 521.80500863334,
                        "value": 0
                    },
                    {
                        "number": 64,
                        "time": 521.99882877084,
                        "value": 1
                    },
                    {
                        "number": 64,
                        "time": 522.4819746208399,
                        "value": 0
                    },
                    {
                        "number": 64,
                        "time": 522.7216748875065,
                        "value": 1
                    },
                    {
                        "number": 64,
                        "time": 526.3293511666733,
                        "value": 0
                    }
                ],
                "91": [
                    {
                        "number": 91,
                        "time": 0,
                        "value": 1
                    },
                    {
                        "number": 91,
                        "time": 16.17976800000001,
                        "value": 1
                    },
                    {
                        "number": 91,
                        "time": 43.14604799999997,
                        "value": 1
                    },
                    {
                        "number": 91,
                        "time": 88.98872399999905,
                        "value": 1
                    },
                    {
                        "number": 91,
                        "time": 105.16849199999898,
                        "value": 1
                    },
                    {
                        "number": 91,
                        "time": 121.34825999999906,
                        "value": 1
                    },
                    {
                        "number": 91,
                        "time": 132.13477199999895,
                        "value": 1
                    },
                    {
                        "number": 91,
                        "time": 177.97744799999802,
                        "value": 1
                    },
                    {
                        "number": 91,
                        "time": 191.46058799999793,
                        "value": 1
                    },
                    {
                        "number": 91,
                        "time": 246.06730499999716,
                        "value": 1
                    },
                    {
                        "number": 91,
                        "time": 260.224601999997,
                        "value": 1
                    },
                    {
                        "number": 91,
                        "time": 331.0110869999966,
                        "value": 1
                    },
                    {
                        "number": 91,
                        "time": 393.0335309999973,
                        "value": 1
                    },
                    {
                        "number": 91,
                        "time": 409.21329899999745,
                        "value": 1
                    },
                    {
                        "number": 91,
                        "time": 425.3930669999977,
                        "value": 1
                    },
                    {
                        "number": 91,
                        "time": 436.179578999998,
                        "value": 1
                    }
                ]
            },
            "id": 2,
            "name": "Piano left",
            "instrumentNumber": 0,
            "instrument": "acoustic grand piano",
            "instrumentFamily": "piano",
            "channelNumber": 0,
            "isPercussion": false
        },
        {
            "startTime": 0,
            "duration": 0,
            "length": 0,
            "notes": [],
            "controlChanges": {},
            "id": 3,
            "name": "Chopin: Scherzo in Bb-, Op. 31"
        },
        {
            "startTime": 0,
            "duration": 0,
            "length": 0,
            "notes": [],
            "controlChanges": {},
            "id": 4,
            "name": "Copyright  1997 by Bernd Krger"
        },
        {
            "startTime": 0,
            "duration": 0,
            "length": 0,
            "notes": [],
            "controlChanges": {},
            "id": 5,
            "name": "http://www.piano-midi.de"
        },
        {
            "startTime": 0,
            "duration": 0,
            "length": 0,
            "notes": [],
            "controlChanges": {},
            "id": 6,
            "name": "Edition: 2014-02-24"
        }
    ]
}