{
    "header": {
        "PPQ": 480,
        "timeSignature": [
            3,
            4
        ],
        "bpm": 174.49012531299167,
        "name": "Chopin Mazurka Opus 33 Nr. 2"
    },
    "startTime": 0,
    "duration": 148.54708800000085,
    "tracks": [
        {
            "startTime": 0,
            "duration": 0,
            "length": 0,
            "notes": [],
            "controlChanges": {},
            "id": 0,
            "name": "Chopin Mazurka Opus 33 Nr. 2"
        },
        {
            "startTime": 0.6877179999999999,
            "duration": 148.54708800000085,
            "length": 1111,
            "notes": [
                {
                    "name": "A4",
                    "midi": 69,
                    "time": 0.6877179999999999,
                    "velocity": 0.6062992125984252,
                    "duration": 0.5157885000000001
                },
                {
                    "name": "F#4",
                    "midi": 66,
                    "time": 1.031577,
                    "velocity": 0.5354330708661418,
                    "duration": 0.34385900000000014
                },
                {
                    "name": "C#5",
                    "midi": 73,
                    "time": 1.2035065,
                    "velocity": 0.5511811023622047,
                    "duration": 0.17192950000000007
                },
                {
                    "name": "D5",
                    "midi": 74,
                    "time": 1.375436,
                    "velocity": 0.5590551181102362,
                    "duration": 0.17192950000000007
                },
                {
                    "name": "F#4",
                    "midi": 66,
                    "time": 1.375436,
                    "velocity": 0.47244094488188976,
                    "duration": 0.34385900000000014
                },
                {
                    "name": "E5",
                    "midi": 76,
                    "time": 1.5473655000000002,
                    "velocity": 0.5590551181102362,
                    "duration": 0.17192950000000007
                },
                {
                    "name": "F#5",
                    "midi": 78,
                    "time": 1.7192950000000002,
                    "velocity": 0.5669291338582677,
                    "duration": 0.17192950000000007
                },
                {
                    "name": "F#4",
                    "midi": 66,
                    "time": 1.7192950000000002,
                    "velocity": 0.48031496062992124,
                    "duration": 0.3438589999999997
                },
                {
                    "name": "G5",
                    "midi": 79,
                    "time": 1.8912245000000003,
                    "velocity": 0.5748031496062992,
                    "duration": 0.08596475000000003
                },
                {
                    "name": "F#5",
                    "midi": 78,
                    "time": 1.9771892500000003,
                    "velocity": 0.5511811023622047,
                    "duration": 0.042982374999999795
                },
                {
                    "name": "G5",
                    "midi": 79,
                    "time": 2.020171625,
                    "velocity": 0.5354330708661418,
                    "duration": 0.042982374999999795
                },
                {
                    "name": "F#5",
                    "midi": 78,
                    "time": 2.063154,
                    "velocity": 0.5984251968503937,
                    "duration": 0.34385900000000014
                },
                {
                    "name": "G4",
                    "midi": 67,
                    "time": 2.407013,
                    "velocity": 0.4881889763779528,
                    "duration": 0.34385900000000014
                },
                {
                    "name": "E5",
                    "midi": 76,
                    "time": 2.407013,
                    "velocity": 0.5826771653543307,
                    "duration": 0.17192950000000007
                },
                {
                    "name": "D5",
                    "midi": 74,
                    "time": 2.5789425,
                    "velocity": 0.5826771653543307,
                    "duration": 0.17192950000000007
                },
                {
                    "name": "G4",
                    "midi": 67,
                    "time": 2.750872,
                    "velocity": 0.4881889763779528,
                    "duration": 0.34385900000000014
                },
                {
                    "name": "C#5",
                    "midi": 73,
                    "time": 2.750872,
                    "velocity": 0.5748031496062992,
                    "duration": 0.17192950000000007
                },
                {
                    "name": "B4",
                    "midi": 71,
                    "time": 2.9228015000000003,
                    "velocity": 0.5669291338582677,
                    "duration": 0.17192950000000007
                },
                {
                    "name": "A4",
                    "midi": 69,
                    "time": 3.0947310000000003,
                    "velocity": 0.5826771653543307,
                    "duration": 0.17192950000000007
                },
                {
                    "name": "D5",
                    "midi": 74,
                    "time": 3.2666605000000004,
                    "velocity": 0.5511811023622047,
                    "duration": 0.17192950000000007
                },
                {
                    "name": "F#4",
                    "midi": 66,
                    "time": 3.4385900000000005,
                    "velocity": 0.4881889763779528,
                    "duration": 0.3438589999999997
                },
                {
                    "name": "D5",
                    "midi": 74,
                    "time": 3.4385900000000005,
                    "velocity": 0.5826771653543307,
                    "duration": 0.11461966666666656
                },
                {
                    "name": "E5",
                    "midi": 76,
                    "time": 3.553209666666667,
                    "velocity": 0.5511811023622047,
                    "duration": 0.11461966666666656
                },
                {
                    "name": "D5",
                    "midi": 74,
                    "time": 3.6678293333333336,
                    "velocity": 0.5511811023622047,
                    "duration": 0.11461966666666656
                },
                {
                    "name": "F#4",
                    "midi": 66,
                    "time": 3.782449,
                    "velocity": 0.4645669291338583,
                    "duration": 0.3438589999999997
                },
                {
                    "name": "C#5",
                    "midi": 73,
                    "time": 3.782449,
                    "velocity": 0.5511811023622047,
                    "duration": 0.17192950000000007
                },
                {
                    "name": "B4",
                    "midi": 71,
                    "time": 3.9543785000000002,
                    "velocity": 0.5511811023622047,
                    "duration": 0.17192949999999962
                },
                {
                    "name": "C#5",
                    "midi": 73,
                    "time": 4.126308,
                    "velocity": 0.5748031496062992,
                    "duration": 1.0315770000000004
                },
                {
                    "name": "E4",
                    "midi": 64,
                    "time": 4.470167,
                    "velocity": 0.3464566929133858,
                    "duration": 0.34385900000000014
                },
                {
                    "name": "A4",
                    "midi": 69,
                    "time": 4.470167,
                    "velocity": 0.41732283464566927,
                    "duration": 0.34385900000000014
                },
                {
                    "name": "G4",
                    "midi": 67,
                    "time": 4.814026,
                    "velocity": 0.44881889763779526,
                    "duration": 0.34385900000000014
                },
                {
                    "name": "A4",
                    "midi": 69,
                    "time": 4.814026,
                    "velocity": 0.5354330708661418,
                    "duration": 0.34385900000000014
                },
                {
                    "name": "A4",
                    "midi": 69,
                    "time": 5.157885,
                    "velocity": 0.5826771653543307,
                    "duration": 0.17192950000000007
                },
                {
                    "name": "C#5",
                    "midi": 73,
                    "time": 5.3298145,
                    "velocity": 0.5511811023622047,
                    "duration": 0.17192950000000007
                },
                {
                    "name": "D5",
                    "midi": 74,
                    "time": 5.501744,
                    "velocity": 0.5590551181102362,
                    "duration": 0.17192950000000007
                },
                {
                    "name": "F#4",
                    "midi": 66,
                    "time": 5.501744,
                    "velocity": 0.47244094488188976,
                    "duration": 0.34385900000000014
                },
                {
                    "name": "E5",
                    "midi": 76,
                    "time": 5.6736735000000005,
                    "velocity": 0.5590551181102362,
                    "duration": 0.17192950000000007
                },
                {
                    "name": "F#5",
                    "midi": 78,
                    "time": 5.8456030000000005,
                    "velocity": 0.5669291338582677,
                    "duration": 0.17192950000000007
                },
                {
                    "name": "F#4",
                    "midi": 66,
                    "time": 5.8456030000000005,
                    "velocity": 0.48031496062992124,
                    "duration": 0.34385900000000014
                },
                {
                    "name": "G5",
                    "midi": 79,
                    "time": 6.017532500000001,
                    "velocity": 0.5748031496062992,
                    "duration": 0.08596474999999959
                },
                {
                    "name": "F#5",
                    "midi": 78,
                    "time": 6.10349725,
                    "velocity": 0.5511811023622047,
                    "duration": 0.04298237500000024
                },
                {
                    "name": "G5",
                    "midi": 79,
                    "time": 6.1464796250000004,
                    "velocity": 0.5354330708661418,
                    "duration": 0.04298237500000024
                },
                {
                    "name": "F#5",
                    "midi": 78,
                    "time": 6.189462000000001,
                    "velocity": 0.5984251968503937,
                    "duration": 0.34385900000000014
                },
                {
                    "name": "G4",
                    "midi": 67,
                    "time": 6.533321000000001,
                    "velocity": 0.4881889763779528,
                    "duration": 0.34385900000000014
                },
                {
                    "name": "E5",
                    "midi": 76,
                    "time": 6.533321000000001,
                    "velocity": 0.5826771653543307,
                    "duration": 0.17192950000000007
                },
                {
                    "name": "D5",
                    "midi": 74,
                    "time": 6.705250500000001,
                    "velocity": 0.5826771653543307,
                    "duration": 0.17192950000000007
                },
                {
                    "name": "G4",
                    "midi": 67,
                    "time": 6.877180000000001,
                    "velocity": 0.4881889763779528,
                    "duration": 0.34385900000000014
                },
                {
                    "name": "C#5",
                    "midi": 73,
                    "time": 6.877180000000001,
                    "velocity": 0.5748031496062992,
                    "duration": 0.17192950000000007
                },
                {
                    "name": "B4",
                    "midi": 71,
                    "time": 7.049109500000001,
                    "velocity": 0.5669291338582677,
                    "duration": 0.17192950000000007
                },
                {
                    "name": "A4",
                    "midi": 69,
                    "time": 7.221039000000001,
                    "velocity": 0.5826771653543307,
                    "duration": 0.17192950000000007
                },
                {
                    "name": "C#5",
                    "midi": 73,
                    "time": 7.392968500000001,
                    "velocity": 0.5511811023622047,
                    "duration": 0.17192950000000007
                },
                {
                    "name": "G4",
                    "midi": 67,
                    "time": 7.564898000000001,
                    "velocity": 0.4881889763779528,
                    "duration": 0.343859000000001
                },
                {
                    "name": "C#5",
                    "midi": 73,
                    "time": 7.564898000000001,
                    "velocity": 0.5826771653543307,
                    "duration": 0.11461966666666701
                },
                {
                    "name": "D5",
                    "midi": 74,
                    "time": 7.679517666666668,
                    "velocity": 0.5511811023622047,
                    "duration": 0.11461966666666701
                },
                {
                    "name": "C#5",
                    "midi": 73,
                    "time": 7.794137333333335,
                    "velocity": 0.5511811023622047,
                    "duration": 0.11461966666666701
                },
                {
                    "name": "G4",
                    "midi": 67,
                    "time": 7.908757000000002,
                    "velocity": 0.4645669291338583,
                    "duration": 0.34385899999999925
                },
                {
                    "name": "B4",
                    "midi": 71,
                    "time": 7.908757000000002,
                    "velocity": 0.5511811023622047,
                    "duration": 0.17192950000000007
                },
                {
                    "name": "A4",
                    "midi": 69,
                    "time": 8.080686500000002,
                    "velocity": 0.5511811023622047,
                    "duration": 0.17192949999999918
                },
                {
                    "name": "D5",
                    "midi": 74,
                    "time": 8.252616000000002,
                    "velocity": 0.5748031496062992,
                    "duration": 1.0315770000000004
                },
                {
                    "name": "F#4",
                    "midi": 66,
                    "time": 8.596475000000002,
                    "velocity": 0.41732283464566927,
                    "duration": 0.34385900000000014
                },
                {
                    "name": "F#4",
                    "midi": 66,
                    "time": 8.940334000000002,
                    "velocity": 0.3700787401574803,
                    "duration": 0.6877179999999985
                },
                {
                    "name": "A4",
                    "midi": 69,
                    "time": 9.284193000000002,
                    "velocity": 0.31496062992125984,
                    "duration": 0.17192949999999918
                },
                {
                    "name": "C#5",
                    "midi": 73,
                    "time": 9.456122500000001,
                    "velocity": 0.30708661417322836,
                    "duration": 0.17192949999999918
                },
                {
                    "name": "D5",
                    "midi": 74,
                    "time": 9.628052,
                    "velocity": 0.30708661417322836,
                    "duration": 0.17192949999999918
                },
                {
                    "name": "F#4",
                    "midi": 66,
                    "time": 9.628052,
                    "velocity": 0.25984251968503935,
                    "duration": 0.34385899999999836
                },
                {
                    "name": "E5",
                    "midi": 76,
                    "time": 9.7999815,
                    "velocity": 0.30708661417322836,
                    "duration": 0.17192949999999918
                },
                {
                    "name": "F#5",
                    "midi": 78,
                    "time": 9.971910999999999,
                    "velocity": 0.31496062992125984,
                    "duration": 0.17192949999999918
                },
                {
                    "name": "F#4",
                    "midi": 66,
                    "time": 9.971910999999999,
                    "velocity": 0.25984251968503935,
                    "duration": 0.34385899999999836
                },
                {
                    "name": "G5",
                    "midi": 79,
                    "time": 10.143840499999998,
                    "velocity": 0.31496062992125984,
                    "duration": 0.08596475000000048
                },
                {
                    "name": "F#5",
                    "midi": 78,
                    "time": 10.229805249999998,
                    "velocity": 0.30708661417322836,
                    "duration": 0.04298237499999935
                },
                {
                    "name": "G5",
                    "midi": 79,
                    "time": 10.272787624999998,
                    "velocity": 0.29133858267716534,
                    "duration": 0.04298237499999935
                },
                {
                    "name": "F#5",
                    "midi": 78,
                    "time": 10.315769999999997,
                    "velocity": 0.33070866141732286,
                    "duration": 0.34385900000000014
                },
                {
                    "name": "G4",
                    "midi": 67,
                    "time": 10.659628999999997,
                    "velocity": 0.2677165354330709,
                    "duration": 0.34385899999999836
                },
                {
                    "name": "E5",
                    "midi": 76,
                    "time": 10.659628999999997,
                    "velocity": 0.31496062992125984,
                    "duration": 0.17192949999999918
                },
                {
                    "name": "D5",
                    "midi": 74,
                    "time": 10.831558499999996,
                    "velocity": 0.31496062992125984,
                    "duration": 0.17192949999999918
                },
                {
                    "name": "G4",
                    "midi": 67,
                    "time": 11.003487999999995,
                    "velocity": 0.2677165354330709,
                    "duration": 0.34385899999999836
                },
                {
                    "name": "C#5",
                    "midi": 73,
                    "time": 11.003487999999995,
                    "velocity": 0.31496062992125984,
                    "duration": 0.17192949999999918
                },
                {
                    "name": "B4",
                    "midi": 71,
                    "time": 11.175417499999995,
                    "velocity": 0.31496062992125984,
                    "duration": 0.17192949999999918
                },
                {
                    "name": "A4",
                    "midi": 69,
                    "time": 11.347346999999994,
                    "velocity": 0.31496062992125984,
                    "duration": 0.17192949999999918
                },
                {
                    "name": "D5",
                    "midi": 74,
                    "time": 11.519276499999993,
                    "velocity": 0.30708661417322836,
                    "duration": 0.17192949999999918
                },
                {
                    "name": "F#4",
                    "midi": 66,
                    "time": 11.691205999999992,
                    "velocity": 0.2677165354330709,
                    "duration": 0.34385899999999836
                },
                {
                    "name": "D5",
                    "midi": 74,
                    "time": 11.691205999999992,
                    "velocity": 0.31496062992125984,
                    "duration": 0.11461966666666612
                },
                {
                    "name": "E5",
                    "midi": 76,
                    "time": 11.805825666666658,
                    "velocity": 0.30708661417322836,
                    "duration": 0.11461966666666612
                },
                {
                    "name": "D5",
                    "midi": 74,
                    "time": 11.920445333333324,
                    "velocity": 0.30708661417322836,
                    "duration": 0.11461966666666612
                },
                {
                    "name": "F#4",
                    "midi": 66,
                    "time": 12.03506499999999,
                    "velocity": 0.25196850393700787,
                    "duration": 0.34385899999999836
                },
                {
                    "name": "C#5",
                    "midi": 73,
                    "time": 12.03506499999999,
                    "velocity": 0.30708661417322836,
                    "duration": 0.17192949999999918
                },
                {
                    "name": "B4",
                    "midi": 71,
                    "time": 12.20699449999999,
                    "velocity": 0.30708661417322836,
                    "duration": 0.17192949999999918
                },
                {
                    "name": "C#5",
                    "midi": 73,
                    "time": 12.378923999999989,
                    "velocity": 0.31496062992125984,
                    "duration": 1.0315770000000004
                },
                {
                    "name": "E4",
                    "midi": 64,
                    "time": 12.722782999999989,
                    "velocity": 0.1889763779527559,
                    "duration": 0.34385900000000014
                },
                {
                    "name": "A4",
                    "midi": 69,
                    "time": 12.722782999999989,
                    "velocity": 0.2283464566929134,
                    "duration": 0.34385900000000014
                },
                {
                    "name": "G4",
                    "midi": 67,
                    "time": 13.06664199999999,
                    "velocity": 0.2440944881889764,
                    "duration": 0.34385900000000014
                },
                {
                    "name": "A4",
                    "midi": 69,
                    "time": 13.06664199999999,
                    "velocity": 0.29133858267716534,
                    "duration": 0.34385900000000014
                },
                {
                    "name": "A4",
                    "midi": 69,
                    "time": 13.41050099999999,
                    "velocity": 0.31496062992125984,
                    "duration": 0.17192949999999918
                },
                {
                    "name": "C#5",
                    "midi": 73,
                    "time": 13.582430499999989,
                    "velocity": 0.30708661417322836,
                    "duration": 0.17192949999999918
                },
                {
                    "name": "D5",
                    "midi": 74,
                    "time": 13.754359999999988,
                    "velocity": 0.30708661417322836,
                    "duration": 0.17192949999999918
                },
                {
                    "name": "F#4",
                    "midi": 66,
                    "time": 13.754359999999988,
                    "velocity": 0.25984251968503935,
                    "duration": 0.34385899999999836
                },
                {
                    "name": "E5",
                    "midi": 76,
                    "time": 13.926289499999987,
                    "velocity": 0.30708661417322836,
                    "duration": 0.17192949999999918
                },
                {
                    "name": "F#5",
                    "midi": 78,
                    "time": 14.098218999999986,
                    "velocity": 0.31496062992125984,
                    "duration": 0.17192949999999918
                },
                {
                    "name": "F#4",
                    "midi": 66,
                    "time": 14.098218999999986,
                    "velocity": 0.25984251968503935,
                    "duration": 0.34385899999999836
                },
                {
                    "name": "G5",
                    "midi": 79,
                    "time": 14.270148499999985,
                    "velocity": 0.31496062992125984,
                    "duration": 0.08596475000000048
                },
                {
                    "name": "F#5",
                    "midi": 78,
                    "time": 14.356113249999986,
                    "velocity": 0.30708661417322836,
                    "duration": 0.04298237499999935
                },
                {
                    "name": "G5",
                    "midi": 79,
                    "time": 14.399095624999985,
                    "velocity": 0.29133858267716534,
                    "duration": 0.04298237499999935
                },
                {
                    "name": "F#5",
                    "midi": 78,
                    "time": 14.442077999999984,
                    "velocity": 0.33070866141732286,
                    "duration": 0.34385900000000014
                },
                {
                    "name": "G4",
                    "midi": 67,
                    "time": 14.785936999999985,
                    "velocity": 0.2677165354330709,
                    "duration": 0.34385899999999836
                },
                {
                    "name": "E5",
                    "midi": 76,
                    "time": 14.785936999999985,
                    "velocity": 0.31496062992125984,
                    "duration": 0.17192949999999918
                },
                {
                    "name": "D5",
                    "midi": 74,
                    "time": 14.957866499999984,
                    "velocity": 0.31496062992125984,
                    "duration": 0.17192949999999918
                },
                {
                    "name": "G4",
                    "midi": 67,
                    "time": 15.129795999999983,
                    "velocity": 0.2677165354330709,
                    "duration": 0.34385899999999836
                },
                {
                    "name": "C#5",
                    "midi": 73,
                    "time": 15.129795999999983,
                    "velocity": 0.31496062992125984,
                    "duration": 0.17192949999999918
                },
                {
                    "name": "B4",
                    "midi": 71,
                    "time": 15.301725499999982,
                    "velocity": 0.31496062992125984,
                    "duration": 0.17192949999999918
                },
                {
                    "name": "A4",
                    "midi": 69,
                    "time": 15.473654999999981,
                    "velocity": 0.31496062992125984,
                    "duration": 0.17192949999999918
                },
                {
                    "name": "C#5",
                    "midi": 73,
                    "time": 15.64558449999998,
                    "velocity": 0.30708661417322836,
                    "duration": 0.17192949999999918
                },
                {
                    "name": "G4",
                    "midi": 67,
                    "time": 15.81751399999998,
                    "velocity": 0.2677165354330709,
                    "duration": 0.34385900000000014
                },
                {
                    "name": "C#5",
                    "midi": 73,
                    "time": 15.81751399999998,
                    "velocity": 0.31496062992125984,
                    "duration": 0.11461966666666612
                },
                {
                    "name": "D5",
                    "midi": 74,
                    "time": 15.932133666666646,
                    "velocity": 0.30708661417322836,
                    "duration": 0.1146196666666679
                },
                {
                    "name": "C#5",
                    "midi": 73,
                    "time": 16.046753333333314,
                    "velocity": 0.30708661417322836,
                    "duration": 0.11461966666666612
                },
                {
                    "name": "G4",
                    "midi": 67,
                    "time": 16.16137299999998,
                    "velocity": 0.25196850393700787,
                    "duration": 0.3438590000000019
                },
                {
                    "name": "B4",
                    "midi": 71,
                    "time": 16.16137299999998,
                    "velocity": 0.30708661417322836,
                    "duration": 0.17192950000000096
                },
                {
                    "name": "A4",
                    "midi": 69,
                    "time": 16.33330249999998,
                    "velocity": 0.30708661417322836,
                    "duration": 0.17192950000000096
                },
                {
                    "name": "D5",
                    "midi": 74,
                    "time": 16.50523199999998,
                    "velocity": 0.31496062992125984,
                    "duration": 1.031576999999995
                },
                {
                    "name": "F#4",
                    "midi": 66,
                    "time": 16.84909099999998,
                    "velocity": 0.2283464566929134,
                    "duration": 0.34385899999999836
                },
                {
                    "name": "F#4",
                    "midi": 66,
                    "time": 17.19294999999998,
                    "velocity": 0.29133858267716534,
                    "duration": 0.34385899999999836
                },
                {
                    "name": "E4",
                    "midi": 64,
                    "time": 17.536808999999977,
                    "velocity": 0.5748031496062992,
                    "duration": 0.17192950000000096
                },
                {
                    "name": "G#4",
                    "midi": 68,
                    "time": 17.708738499999978,
                    "velocity": 0.5511811023622047,
                    "duration": 0.17192950000000096
                },
                {
                    "name": "A4",
                    "midi": 69,
                    "time": 17.88066799999998,
                    "velocity": 0.5590551181102362,
                    "duration": 0.17192950000000096
                },
                {
                    "name": "C#4",
                    "midi": 61,
                    "time": 17.88066799999998,
                    "velocity": 0.47244094488188976,
                    "duration": 0.3438590000000019
                },
                {
                    "name": "B4",
                    "midi": 71,
                    "time": 18.05259749999998,
                    "velocity": 0.5590551181102362,
                    "duration": 0.17192950000000096
                },
                {
                    "name": "C#5",
                    "midi": 73,
                    "time": 18.22452699999998,
                    "velocity": 0.5669291338582677,
                    "duration": 0.17192950000000096
                },
                {
                    "name": "C#4",
                    "midi": 61,
                    "time": 18.22452699999998,
                    "velocity": 0.48031496062992124,
                    "duration": 0.3438590000000019
                },
                {
                    "name": "D5",
                    "midi": 74,
                    "time": 18.39645649999998,
                    "velocity": 0.5748031496062992,
                    "duration": 0.0859647499999987
                },
                {
                    "name": "C#5",
                    "midi": 73,
                    "time": 18.48242124999998,
                    "velocity": 0.5511811023622047,
                    "duration": 0.04298237500000113
                },
                {
                    "name": "D5",
                    "midi": 74,
                    "time": 18.52540362499998,
                    "velocity": 0.5354330708661418,
                    "duration": 0.04298237500000113
                },
                {
                    "name": "C#5",
                    "midi": 73,
                    "time": 18.568385999999983,
                    "velocity": 0.5984251968503937,
                    "duration": 0.34385899999999836
                },
                {
                    "name": "D4",
                    "midi": 62,
                    "time": 18.91224499999998,
                    "velocity": 0.4881889763779528,
                    "duration": 0.3438590000000019
                },
                {
                    "name": "B4",
                    "midi": 71,
                    "time": 18.91224499999998,
                    "velocity": 0.5826771653543307,
                    "duration": 0.17192950000000096
                },
                {
                    "name": "A4",
                    "midi": 69,
                    "time": 19.084174499999982,
                    "velocity": 0.5826771653543307,
                    "duration": 0.17192950000000096
                },
                {
                    "name": "D4",
                    "midi": 62,
                    "time": 19.256103999999983,
                    "velocity": 0.4881889763779528,
                    "duration": 0.3438590000000019
                },
                {
                    "name": "G#4",
                    "midi": 68,
                    "time": 19.256103999999983,
                    "velocity": 0.5748031496062992,
                    "duration": 0.17192950000000096
                },
                {
                    "name": "F#4",
                    "midi": 66,
                    "time": 19.428033499999984,
                    "velocity": 0.5669291338582677,
                    "duration": 0.17192950000000096
                },
                {
                    "name": "E4",
                    "midi": 64,
                    "time": 19.599962999999985,
                    "velocity": 0.5826771653543307,
                    "duration": 0.17192950000000096
                },
                {
                    "name": "A4",
                    "midi": 69,
                    "time": 19.771892499999986,
                    "velocity": 0.5511811023622047,
                    "duration": 0.17192950000000096
                },
                {
                    "name": "C#4",
                    "midi": 61,
                    "time": 19.943821999999987,
                    "velocity": 0.4881889763779528,
                    "duration": 0.34385899999999836
                },
                {
                    "name": "A4",
                    "midi": 69,
                    "time": 19.943821999999987,
                    "velocity": 0.5826771653543307,
                    "duration": 0.11461966666666612
                },
                {
                    "name": "B4",
                    "midi": 71,
                    "time": 20.058441666666653,
                    "velocity": 0.5511811023622047,
                    "duration": 0.11461966666666612
                },
                {
                    "name": "A4",
                    "midi": 69,
                    "time": 20.17306133333332,
                    "velocity": 0.5511811023622047,
                    "duration": 0.11461966666666612
                },
                {
                    "name": "C#4",
                    "midi": 61,
                    "time": 20.287680999999985,
                    "velocity": 0.4645669291338583,
                    "duration": 0.3438590000000019
                },
                {
                    "name": "G#4",
                    "midi": 68,
                    "time": 20.287680999999985,
                    "velocity": 0.5511811023622047,
                    "duration": 0.17192950000000096
                },
                {
                    "name": "F#4",
                    "midi": 66,
                    "time": 20.459610499999986,
                    "velocity": 0.5511811023622047,
                    "duration": 0.17192950000000096
                },
                {
                    "name": "G#4",
                    "midi": 68,
                    "time": 20.631539999999987,
                    "velocity": 0.5748031496062992,
                    "duration": 1.031576999999995
                },
                {
                    "name": "B3",
                    "midi": 59,
                    "time": 20.975398999999985,
                    "velocity": 0.3464566929133858,
                    "duration": 0.34385899999999836
                },
                {
                    "name": "E4",
                    "midi": 64,
                    "time": 20.975398999999985,
                    "velocity": 0.41732283464566927,
                    "duration": 0.34385899999999836
                },
                {
                    "name": "D4",
                    "midi": 62,
                    "time": 21.319257999999984,
                    "velocity": 0.44881889763779526,
                    "duration": 0.34385899999999836
                },
                {
                    "name": "E4",
                    "midi": 64,
                    "time": 21.319257999999984,
                    "velocity": 0.5354330708661418,
                    "duration": 0.34385899999999836
                },
                {
                    "name": "E4",
                    "midi": 64,
                    "time": 21.663116999999982,
                    "velocity": 0.5826771653543307,
                    "duration": 0.17192950000000096
                },
                {
                    "name": "G#4",
                    "midi": 68,
                    "time": 21.835046499999983,
                    "velocity": 0.5511811023622047,
                    "duration": 0.17192950000000096
                },
                {
                    "name": "A4",
                    "midi": 69,
                    "time": 22.006975999999984,
                    "velocity": 0.5590551181102362,
                    "duration": 0.17192950000000096
                },
                {
                    "name": "C#4",
                    "midi": 61,
                    "time": 22.006975999999984,
                    "velocity": 0.47244094488188976,
                    "duration": 0.3438590000000019
                },
                {
                    "name": "B4",
                    "midi": 71,
                    "time": 22.178905499999985,
                    "velocity": 0.5590551181102362,
                    "duration": 0.17192950000000096
                },
                {
                    "name": "C#5",
                    "midi": 73,
                    "time": 22.350834999999986,
                    "velocity": 0.5669291338582677,
                    "duration": 0.17192950000000096
                },
                {
                    "name": "C#4",
                    "midi": 61,
                    "time": 22.350834999999986,
                    "velocity": 0.48031496062992124,
                    "duration": 0.3438590000000019
                },
                {
                    "name": "D5",
                    "midi": 74,
                    "time": 22.522764499999987,
                    "velocity": 0.5748031496062992,
                    "duration": 0.0859647499999987
                },
                {
                    "name": "C#5",
                    "midi": 73,
                    "time": 22.608729249999985,
                    "velocity": 0.5511811023622047,
                    "duration": 0.04298237500000113
                },
                {
                    "name": "D5",
                    "midi": 74,
                    "time": 22.651711624999987,
                    "velocity": 0.5354330708661418,
                    "duration": 0.04298237500000113
                },
                {
                    "name": "C#5",
                    "midi": 73,
                    "time": 22.694693999999988,
                    "velocity": 0.5984251968503937,
                    "duration": 0.34385899999999836
                },
                {
                    "name": "D4",
                    "midi": 62,
                    "time": 23.038552999999986,
                    "velocity": 0.4881889763779528,
                    "duration": 0.3438590000000019
                },
                {
                    "name": "B4",
                    "midi": 71,
                    "time": 23.038552999999986,
                    "velocity": 0.5826771653543307,
                    "duration": 0.17192950000000096
                },
                {
                    "name": "A4",
                    "midi": 69,
                    "time": 23.210482499999987,
                    "velocity": 0.5826771653543307,
                    "duration": 0.17192950000000096
                },
                {
                    "name": "D4",
                    "midi": 62,
                    "time": 23.382411999999988,
                    "velocity": 0.4881889763779528,
                    "duration": 0.3438590000000019
                },
                {
                    "name": "G#4",
                    "midi": 68,
                    "time": 23.382411999999988,
                    "velocity": 0.5748031496062992,
                    "duration": 0.17192950000000096
                },
                {
                    "name": "F#4",
                    "midi": 66,
                    "time": 23.55434149999999,
                    "velocity": 0.5669291338582677,
                    "duration": 0.17192950000000096
                },
                {
                    "name": "E4",
                    "midi": 64,
                    "time": 23.72627099999999,
                    "velocity": 0.5826771653543307,
                    "duration": 0.17192950000000096
                },
                {
                    "name": "G#4",
                    "midi": 68,
                    "time": 23.89820049999999,
                    "velocity": 0.5511811023622047,
                    "duration": 0.17192950000000096
                },
                {
                    "name": "D4",
                    "midi": 62,
                    "time": 24.070129999999992,
                    "velocity": 0.4881889763779528,
                    "duration": 0.34385899999999836
                },
                {
                    "name": "G#4",
                    "midi": 68,
                    "time": 24.070129999999992,
                    "velocity": 0.5826771653543307,
                    "duration": 0.11461966666666612
                },
                {
                    "name": "A4",
                    "midi": 69,
                    "time": 24.184749666666658,
                    "velocity": 0.5511811023622047,
                    "duration": 0.11461966666666612
                },
                {
                    "name": "G#4",
                    "midi": 68,
                    "time": 24.299369333333324,
                    "velocity": 0.5511811023622047,
                    "duration": 0.11461966666666612
                },
                {
                    "name": "D4",
                    "midi": 62,
                    "time": 24.41398899999999,
                    "velocity": 0.4645669291338583,
                    "duration": 0.3438590000000019
                },
                {
                    "name": "F#4",
                    "midi": 66,
                    "time": 24.41398899999999,
                    "velocity": 0.5511811023622047,
                    "duration": 0.17192950000000096
                },
                {
                    "name": "E4",
                    "midi": 64,
                    "time": 24.58591849999999,
                    "velocity": 0.5511811023622047,
                    "duration": 0.17192950000000096
                },
                {
                    "name": "A4",
                    "midi": 69,
                    "time": 24.757847999999992,
                    "velocity": 0.5748031496062992,
                    "duration": 1.031576999999995
                },
                {
                    "name": "C#4",
                    "midi": 61,
                    "time": 25.10170699999999,
                    "velocity": 0.41732283464566927,
                    "duration": 0.34385899999999836
                },
                {
                    "name": "C#4",
                    "midi": 61,
                    "time": 25.44556599999999,
                    "velocity": 0.3700787401574803,
                    "duration": 0.6877180000000003
                },
                {
                    "name": "E4",
                    "midi": 64,
                    "time": 25.789424999999987,
                    "velocity": 0.31496062992125984,
                    "duration": 0.17192950000000096
                },
                {
                    "name": "G#4",
                    "midi": 68,
                    "time": 25.961354499999988,
                    "velocity": 0.30708661417322836,
                    "duration": 0.17192950000000096
                },
                {
                    "name": "A4",
                    "midi": 69,
                    "time": 26.13328399999999,
                    "velocity": 0.30708661417322836,
                    "duration": 0.17192950000000096
                },
                {
                    "name": "C#4",
                    "midi": 61,
                    "time": 26.13328399999999,
                    "velocity": 0.25984251968503935,
                    "duration": 0.3438590000000019
                },
                {
                    "name": "B4",
                    "midi": 71,
                    "time": 26.30521349999999,
                    "velocity": 0.30708661417322836,
                    "duration": 0.17192950000000096
                },
                {
                    "name": "C#5",
                    "midi": 73,
                    "time": 26.47714299999999,
                    "velocity": 0.31496062992125984,
                    "duration": 0.17192950000000096
                },
                {
                    "name": "C#4",
                    "midi": 61,
                    "time": 26.47714299999999,
                    "velocity": 0.25984251968503935,
                    "duration": 0.3438590000000019
                },
                {
                    "name": "D5",
                    "midi": 74,
                    "time": 26.649072499999992,
                    "velocity": 0.31496062992125984,
                    "duration": 0.0859647499999987
                },
                {
                    "name": "C#5",
                    "midi": 73,
                    "time": 26.73503724999999,
                    "velocity": 0.30708661417322836,
                    "duration": 0.04298237500000113
                },
                {
                    "name": "D5",
                    "midi": 74,
                    "time": 26.778019624999992,
                    "velocity": 0.29133858267716534,
                    "duration": 0.04298237500000113
                },
                {
                    "name": "C#5",
                    "midi": 73,
                    "time": 26.821001999999993,
                    "velocity": 0.33070866141732286,
                    "duration": 0.34385899999999836
                },
                {
                    "name": "D4",
                    "midi": 62,
                    "time": 27.16486099999999,
                    "velocity": 0.2677165354330709,
                    "duration": 0.3438590000000019
                },
                {
                    "name": "B4",
                    "midi": 71,
                    "time": 27.16486099999999,
                    "velocity": 0.31496062992125984,
                    "duration": 0.17192950000000096
                },
                {
                    "name": "A4",
                    "midi": 69,
                    "time": 27.336790499999992,
                    "velocity": 0.31496062992125984,
                    "duration": 0.17192950000000096
                },
                {
                    "name": "D4",
                    "midi": 62,
                    "time": 27.508719999999993,
                    "velocity": 0.2677165354330709,
                    "duration": 0.3438590000000019
                },
                {
                    "name": "G#4",
                    "midi": 68,
                    "time": 27.508719999999993,
                    "velocity": 0.31496062992125984,
                    "duration": 0.17192950000000096
                },
                {
                    "name": "F#4",
                    "midi": 66,
                    "time": 27.680649499999994,
                    "velocity": 0.31496062992125984,
                    "duration": 0.17192950000000096
                },
                {
                    "name": "E4",
                    "midi": 64,
                    "time": 27.852578999999995,
                    "velocity": 0.31496062992125984,
                    "duration": 0.17192950000000096
                },
                {
                    "name": "A4",
                    "midi": 69,
                    "time": 28.024508499999996,
                    "velocity": 0.30708661417322836,
                    "duration": 0.17192950000000096
                },
                {
                    "name": "C#4",
                    "midi": 61,
                    "time": 28.196437999999997,
                    "velocity": 0.2677165354330709,
                    "duration": 0.34385899999999836
                },
                {
                    "name": "A4",
                    "midi": 69,
                    "time": 28.196437999999997,
                    "velocity": 0.31496062992125984,
                    "duration": 0.11461966666666612
                },
                {
                    "name": "B4",
                    "midi": 71,
                    "time": 28.311057666666663,
                    "velocity": 0.30708661417322836,
                    "duration": 0.11461966666666612
                },
                {
                    "name": "A4",
                    "midi": 69,
                    "time": 28.42567733333333,
                    "velocity": 0.30708661417322836,
                    "duration": 0.11461966666666612
                },
                {
                    "name": "C#4",
                    "midi": 61,
                    "time": 28.540296999999995,
                    "velocity": 0.25196850393700787,
                    "duration": 0.3438590000000019
                },
                {
                    "name": "G#4",
                    "midi": 68,
                    "time": 28.540296999999995,
                    "velocity": 0.30708661417322836,
                    "duration": 0.17192950000000096
                },
                {
                    "name": "F#4",
                    "midi": 66,
                    "time": 28.712226499999996,
                    "velocity": 0.30708661417322836,
                    "duration": 0.17192950000000096
                },
                {
                    "name": "G#4",
                    "midi": 68,
                    "time": 28.884155999999997,
                    "velocity": 0.31496062992125984,
                    "duration": 1.031576999999995
                },
                {
                    "name": "B3",
                    "midi": 59,
                    "time": 29.228014999999996,
                    "velocity": 0.1889763779527559,
                    "duration": 0.34385899999999836
                },
                {
                    "name": "E4",
                    "midi": 64,
                    "time": 29.228014999999996,
                    "velocity": 0.2283464566929134,
                    "duration": 0.34385899999999836
                },
                {
                    "name": "D4",
                    "midi": 62,
                    "time": 29.571873999999994,
                    "velocity": 0.2440944881889764,
                    "duration": 0.34385899999999836
                },
                {
                    "name": "E4",
                    "midi": 64,
                    "time": 29.571873999999994,
                    "velocity": 0.29133858267716534,
                    "duration": 0.34385899999999836
                },
                {
                    "name": "E4",
                    "midi": 64,
                    "time": 29.915732999999992,
                    "velocity": 0.31496062992125984,
                    "duration": 0.17192950000000096
                },
                {
                    "name": "G#4",
                    "midi": 68,
                    "time": 30.087662499999993,
                    "velocity": 0.30708661417322836,
                    "duration": 0.17192950000000096
                },
                {
                    "name": "A4",
                    "midi": 69,
                    "time": 30.259591999999994,
                    "velocity": 0.30708661417322836,
                    "duration": 0.17192950000000096
                },
                {
                    "name": "C#4",
                    "midi": 61,
                    "time": 30.259591999999994,
                    "velocity": 0.25984251968503935,
                    "duration": 0.3438590000000019
                },
                {
                    "name": "B4",
                    "midi": 71,
                    "time": 30.431521499999995,
                    "velocity": 0.30708661417322836,
                    "duration": 0.17192950000000096
                },
                {
                    "name": "C#5",
                    "midi": 73,
                    "time": 30.603450999999996,
                    "velocity": 0.31496062992125984,
                    "duration": 0.17192950000000096
                },
                {
                    "name": "C#4",
                    "midi": 61,
                    "time": 30.603450999999996,
                    "velocity": 0.25984251968503935,
                    "duration": 0.3438590000000019
                },
                {
                    "name": "D5",
                    "midi": 74,
                    "time": 30.775380499999997,
                    "velocity": 0.31496062992125984,
                    "duration": 0.0859647499999987
                },
                {
                    "name": "C#5",
                    "midi": 73,
                    "time": 30.861345249999996,
                    "velocity": 0.30708661417322836,
                    "duration": 0.04298237500000113
                },
                {
                    "name": "D5",
                    "midi": 74,
                    "time": 30.904327624999997,
                    "velocity": 0.29133858267716534,
                    "duration": 0.04298237500000113
                },
                {
                    "name": "C#5",
                    "midi": 73,
                    "time": 30.947309999999998,
                    "velocity": 0.33070866141732286,
                    "duration": 0.34385899999999836
                },
                {
                    "name": "D4",
                    "midi": 62,
                    "time": 31.291168999999996,
                    "velocity": 0.2677165354330709,
                    "duration": 0.3438590000000019
                },
                {
                    "name": "B4",
                    "midi": 71,
                    "time": 31.291168999999996,
                    "velocity": 0.31496062992125984,
                    "duration": 0.17192950000000096
                },
                {
                    "name": "A4",
                    "midi": 69,
                    "time": 31.463098499999997,
                    "velocity": 0.31496062992125984,
                    "duration": 0.17192950000000096
                },
                {
                    "name": "D4",
                    "midi": 62,
                    "time": 31.635028,
                    "velocity": 0.2677165354330709,
                    "duration": 0.3438590000000019
                },
                {
                    "name": "G#4",
                    "midi": 68,
                    "time": 31.635028,
                    "velocity": 0.31496062992125984,
                    "duration": 0.17192950000000096
                },
                {
                    "name": "F#4",
                    "midi": 66,
                    "time": 31.8069575,
                    "velocity": 0.31496062992125984,
                    "duration": 0.17192950000000096
                },
                {
                    "name": "E4",
                    "midi": 64,
                    "time": 31.978887,
                    "velocity": 0.31496062992125984,
                    "duration": 0.1719294999999974
                },
                {
                    "name": "G#4",
                    "midi": 68,
                    "time": 32.1508165,
                    "velocity": 0.30708661417322836,
                    "duration": 0.1719294999999974
                },
                {
                    "name": "D4",
                    "midi": 62,
                    "time": 32.322745999999995,
                    "velocity": 0.2677165354330709,
                    "duration": 0.343859000000009
                },
                {
                    "name": "G#4",
                    "midi": 68,
                    "time": 32.322745999999995,
                    "velocity": 0.31496062992125984,
                    "duration": 0.11461966666666967
                },
                {
                    "name": "A4",
                    "midi": 69,
                    "time": 32.437365666666665,
                    "velocity": 0.30708661417322836,
                    "duration": 0.11461966666666967
                },
                {
                    "name": "G#4",
                    "midi": 68,
                    "time": 32.551985333333334,
                    "velocity": 0.30708661417322836,
                    "duration": 0.11461966666666967
                },
                {
                    "name": "D4",
                    "midi": 62,
                    "time": 32.666605000000004,
                    "velocity": 0.25196850393700787,
                    "duration": 0.3438589999999948
                },
                {
                    "name": "F#4",
                    "midi": 66,
                    "time": 32.666605000000004,
                    "velocity": 0.30708661417322836,
                    "duration": 0.1719294999999974
                },
                {
                    "name": "E4",
                    "midi": 64,
                    "time": 32.8385345,
                    "velocity": 0.30708661417322836,
                    "duration": 0.1719294999999974
                },
                {
                    "name": "A4",
                    "midi": 69,
                    "time": 33.010464,
                    "velocity": 0.31496062992125984,
                    "duration": 1.2035065000000031
                },
                {
                    "name": "C#4",
                    "midi": 61,
                    "time": 33.354323,
                    "velocity": 0.29133858267716534,
                    "duration": 0.3438590000000019
                },
                {
                    "name": "G4",
                    "midi": 67,
                    "time": 33.698182,
                    "velocity": 0.5748031496062992,
                    "duration": 0.3438590000000019
                },
                {
                    "name": "C#4",
                    "midi": 61,
                    "time": 33.698182,
                    "velocity": 0.5748031496062992,
                    "duration": 0.3438590000000019
                },
                {
                    "name": "F#4",
                    "midi": 66,
                    "time": 34.042041000000005,
                    "velocity": 0.6141732283464567,
                    "duration": 0.3438589999999948
                },
                {
                    "name": "C#5",
                    "midi": 73,
                    "time": 34.2139705,
                    "velocity": 0.6299212598425197,
                    "duration": 0.1719294999999974
                },
                {
                    "name": "D5",
                    "midi": 74,
                    "time": 34.3859,
                    "velocity": 0.6377952755905512,
                    "duration": 0.1719294999999974
                },
                {
                    "name": "F#4",
                    "midi": 66,
                    "time": 34.3859,
                    "velocity": 0.5433070866141733,
                    "duration": 0.3438589999999948
                },
                {
                    "name": "E5",
                    "midi": 76,
                    "time": 34.5578295,
                    "velocity": 0.6377952755905512,
                    "duration": 0.1719294999999974
                },
                {
                    "name": "F#5",
                    "midi": 78,
                    "time": 34.729758999999994,
                    "velocity": 0.6456692913385826,
                    "duration": 0.1719294999999974
                },
                {
                    "name": "F#4",
                    "midi": 66,
                    "time": 34.729758999999994,
                    "velocity": 0.5511811023622047,
                    "duration": 0.3438590000000019
                },
                {
                    "name": "G5",
                    "midi": 79,
                    "time": 34.90168849999999,
                    "velocity": 0.6535433070866141,
                    "duration": 0.08596475000000225
                },
                {
                    "name": "F#5",
                    "midi": 78,
                    "time": 34.987653249999994,
                    "velocity": 0.6299212598425197,
                    "duration": 0.04298237500000113
                },
                {
                    "name": "G5",
                    "midi": 79,
                    "time": 35.030635624999995,
                    "velocity": 0.6141732283464567,
                    "duration": 0.04298237500000113
                },
                {
                    "name": "F#5",
                    "midi": 78,
                    "time": 35.073617999999996,
                    "velocity": 0.6850393700787402,
                    "duration": 0.3438590000000019
                },
                {
                    "name": "G4",
                    "midi": 67,
                    "time": 35.417477,
                    "velocity": 0.5590551181102362,
                    "duration": 0.3438589999999948
                },
                {
                    "name": "E5",
                    "midi": 76,
                    "time": 35.417477,
                    "velocity": 0.6692913385826772,
                    "duration": 0.1719294999999974
                },
                {
                    "name": "D5",
                    "midi": 74,
                    "time": 35.589406499999996,
                    "velocity": 0.6692913385826772,
                    "duration": 0.1719294999999974
                },
                {
                    "name": "G4",
                    "midi": 67,
                    "time": 35.76133599999999,
                    "velocity": 0.5590551181102362,
                    "duration": 0.3438589999999948
                },
                {
                    "name": "C#5",
                    "midi": 73,
                    "time": 35.76133599999999,
                    "velocity": 0.6535433070866141,
                    "duration": 0.1719294999999974
                },
                {
                    "name": "B4",
                    "midi": 71,
                    "time": 35.93326549999999,
                    "velocity": 0.6456692913385826,
                    "duration": 0.1719294999999974
                },
                {
                    "name": "A4",
                    "midi": 69,
                    "time": 36.10519499999999,
                    "velocity": 0.6692913385826772,
                    "duration": 0.1719294999999974
                },
                {
                    "name": "D5",
                    "midi": 74,
                    "time": 36.277124499999985,
                    "velocity": 0.6299212598425197,
                    "duration": 0.1719294999999974
                },
                {
                    "name": "F#4",
                    "midi": 66,
                    "time": 36.44905399999998,
                    "velocity": 0.5590551181102362,
                    "duration": 0.343859000000009
                },
                {
                    "name": "D5",
                    "midi": 74,
                    "time": 36.44905399999998,
                    "velocity": 0.6692913385826772,
                    "duration": 0.11461966666666967
                },
                {
                    "name": "E5",
                    "midi": 76,
                    "time": 36.56367366666665,
                    "velocity": 0.6299212598425197,
                    "duration": 0.11461966666666967
                },
                {
                    "name": "D5",
                    "midi": 74,
                    "time": 36.67829333333332,
                    "velocity": 0.6299212598425197,
                    "duration": 0.11461966666666967
                },
                {
                    "name": "F#4",
                    "midi": 66,
                    "time": 36.79291299999999,
                    "velocity": 0.5275590551181102,
                    "duration": 0.3438589999999948
                },
                {
                    "name": "C#5",
                    "midi": 73,
                    "time": 36.79291299999999,
                    "velocity": 0.6299212598425197,
                    "duration": 0.1719294999999974
                },
                {
                    "name": "B4",
                    "midi": 71,
                    "time": 36.96484249999999,
                    "velocity": 0.6299212598425197,
                    "duration": 0.1719294999999974
                },
                {
                    "name": "C#5",
                    "midi": 73,
                    "time": 37.136771999999986,
                    "velocity": 0.6535433070866141,
                    "duration": 1.0315770000000057
                },
                {
                    "name": "E4",
                    "midi": 64,
                    "time": 37.48063099999999,
                    "velocity": 0.3937007874015748,
                    "duration": 0.3438590000000019
                },
                {
                    "name": "A4",
                    "midi": 69,
                    "time": 37.48063099999999,
                    "velocity": 0.47244094488188976,
                    "duration": 0.3438590000000019
                },
                {
                    "name": "G4",
                    "midi": 67,
                    "time": 37.82448999999999,
                    "velocity": 0.5118110236220472,
                    "duration": 0.3438590000000019
                },
                {
                    "name": "A4",
                    "midi": 69,
                    "time": 37.82448999999999,
                    "velocity": 0.6141732283464567,
                    "duration": 0.3438590000000019
                },
                {
                    "name": "A4",
                    "midi": 69,
                    "time": 38.16834899999999,
                    "velocity": 0.6692913385826772,
                    "duration": 0.1719294999999974
                },
                {
                    "name": "C#5",
                    "midi": 73,
                    "time": 38.34027849999999,
                    "velocity": 0.6299212598425197,
                    "duration": 0.1719294999999974
                },
                {
                    "name": "D5",
                    "midi": 74,
                    "time": 38.51220799999999,
                    "velocity": 0.6377952755905512,
                    "duration": 0.1719294999999974
                },
                {
                    "name": "F#4",
                    "midi": 66,
                    "time": 38.51220799999999,
                    "velocity": 0.5433070866141733,
                    "duration": 0.3438589999999948
                },
                {
                    "name": "E5",
                    "midi": 76,
                    "time": 38.684137499999984,
                    "velocity": 0.6377952755905512,
                    "duration": 0.1719294999999974
                },
                {
                    "name": "F#5",
                    "midi": 78,
                    "time": 38.85606699999998,
                    "velocity": 0.6456692913385826,
                    "duration": 0.1719294999999974
                },
                {
                    "name": "F#4",
                    "midi": 66,
                    "time": 38.85606699999998,
                    "velocity": 0.5511811023622047,
                    "duration": 0.3438590000000019
                },
                {
                    "name": "G5",
                    "midi": 79,
                    "time": 39.02799649999998,
                    "velocity": 0.6535433070866141,
                    "duration": 0.08596475000000225
                },
                {
                    "name": "F#5",
                    "midi": 78,
                    "time": 39.11396124999998,
                    "velocity": 0.6299212598425197,
                    "duration": 0.04298237500000113
                },
                {
                    "name": "G5",
                    "midi": 79,
                    "time": 39.15694362499998,
                    "velocity": 0.6141732283464567,
                    "duration": 0.04298237500000113
                },
                {
                    "name": "F#5",
                    "midi": 78,
                    "time": 39.199925999999984,
                    "velocity": 0.6850393700787402,
                    "duration": 0.3438590000000019
                },
                {
                    "name": "G4",
                    "midi": 67,
                    "time": 39.543784999999986,
                    "velocity": 0.5590551181102362,
                    "duration": 0.3438589999999948
                },
                {
                    "name": "E5",
                    "midi": 76,
                    "time": 39.543784999999986,
                    "velocity": 0.6692913385826772,
                    "duration": 0.1719294999999974
                },
                {
                    "name": "D5",
                    "midi": 74,
                    "time": 39.71571449999998,
                    "velocity": 0.6692913385826772,
                    "duration": 0.1719294999999974
                },
                {
                    "name": "G4",
                    "midi": 67,
                    "time": 39.88764399999998,
                    "velocity": 0.5590551181102362,
                    "duration": 0.3438589999999948
                },
                {
                    "name": "C#5",
                    "midi": 73,
                    "time": 39.88764399999998,
                    "velocity": 0.6535433070866141,
                    "duration": 0.1719294999999974
                },
                {
                    "name": "B4",
                    "midi": 71,
                    "time": 40.05957349999998,
                    "velocity": 0.6456692913385826,
                    "duration": 0.1719294999999974
                },
                {
                    "name": "A4",
                    "midi": 69,
                    "time": 40.231502999999975,
                    "velocity": 0.6692913385826772,
                    "duration": 0.1719294999999974
                },
                {
                    "name": "C#5",
                    "midi": 73,
                    "time": 40.40343249999997,
                    "velocity": 0.6299212598425197,
                    "duration": 0.1719294999999974
                },
                {
                    "name": "G4",
                    "midi": 67,
                    "time": 40.57536199999997,
                    "velocity": 0.5590551181102362,
                    "duration": 0.343859000000009
                },
                {
                    "name": "C#5",
                    "midi": 73,
                    "time": 40.57536199999997,
                    "velocity": 0.6692913385826772,
                    "duration": 0.11461966666666967
                },
                {
                    "name": "D5",
                    "midi": 74,
                    "time": 40.68998166666664,
                    "velocity": 0.6299212598425197,
                    "duration": 0.11461966666666967
                },
                {
                    "name": "C#5",
                    "midi": 73,
                    "time": 40.80460133333331,
                    "velocity": 0.6299212598425197,
                    "duration": 0.11461966666666967
                },
                {
                    "name": "G4",
                    "midi": 67,
                    "time": 40.91922099999998,
                    "velocity": 0.5275590551181102,
                    "duration": 0.3438589999999948
                },
                {
                    "name": "B4",
                    "midi": 71,
                    "time": 40.91922099999998,
                    "velocity": 0.6299212598425197,
                    "duration": 0.1719294999999974
                },
                {
                    "name": "A4",
                    "midi": 69,
                    "time": 41.091150499999976,
                    "velocity": 0.6299212598425197,
                    "duration": 0.1719294999999974
                },
                {
                    "name": "D5",
                    "midi": 74,
                    "time": 41.263079999999974,
                    "velocity": 0.6535433070866141,
                    "duration": 1.0315770000000057
                },
                {
                    "name": "F#4",
                    "midi": 66,
                    "time": 41.606938999999976,
                    "velocity": 0.47244094488188976,
                    "duration": 0.3438590000000019
                },
                {
                    "name": "F#4",
                    "midi": 66,
                    "time": 41.95079799999998,
                    "velocity": 0.4251968503937008,
                    "duration": 0.6877179999999967
                },
                {
                    "name": "A4",
                    "midi": 69,
                    "time": 42.29465699999998,
                    "velocity": 0.31496062992125984,
                    "duration": 0.1719294999999974
                },
                {
                    "name": "C#5",
                    "midi": 73,
                    "time": 42.46658649999998,
                    "velocity": 0.30708661417322836,
                    "duration": 0.1719294999999974
                },
                {
                    "name": "D5",
                    "midi": 74,
                    "time": 42.638515999999974,
                    "velocity": 0.30708661417322836,
                    "duration": 0.1719294999999974
                },
                {
                    "name": "F#4",
                    "midi": 66,
                    "time": 42.638515999999974,
                    "velocity": 0.25984251968503935,
                    "duration": 0.3438589999999948
                },
                {
                    "name": "E5",
                    "midi": 76,
                    "time": 42.81044549999997,
                    "velocity": 0.30708661417322836,
                    "duration": 0.1719294999999974
                },
                {
                    "name": "F#5",
                    "midi": 78,
                    "time": 42.98237499999997,
                    "velocity": 0.31496062992125984,
                    "duration": 0.1719294999999974
                },
                {
                    "name": "F#4",
                    "midi": 66,
                    "time": 42.98237499999997,
                    "velocity": 0.25984251968503935,
                    "duration": 0.3438590000000019
                },
                {
                    "name": "G5",
                    "midi": 79,
                    "time": 43.15430449999997,
                    "velocity": 0.31496062992125984,
                    "duration": 0.08596475000000225
                },
                {
                    "name": "F#5",
                    "midi": 78,
                    "time": 43.24026924999997,
                    "velocity": 0.30708661417322836,
                    "duration": 0.04298237500000113
                },
                {
                    "name": "G5",
                    "midi": 79,
                    "time": 43.28325162499997,
                    "velocity": 0.29133858267716534,
                    "duration": 0.04298237500000113
                },
                {
                    "name": "F#5",
                    "midi": 78,
                    "time": 43.32623399999997,
                    "velocity": 0.33070866141732286,
                    "duration": 0.3438590000000019
                },
                {
                    "name": "G4",
                    "midi": 67,
                    "time": 43.67009299999997,
                    "velocity": 0.2677165354330709,
                    "duration": 0.3438589999999948
                },
                {
                    "name": "E5",
                    "midi": 76,
                    "time": 43.67009299999997,
                    "velocity": 0.31496062992125984,
                    "duration": 0.1719294999999974
                },
                {
                    "name": "D5",
                    "midi": 74,
                    "time": 43.84202249999997,
                    "velocity": 0.31496062992125984,
                    "duration": 0.1719294999999974
                },
                {
                    "name": "G4",
                    "midi": 67,
                    "time": 44.01395199999997,
                    "velocity": 0.2677165354330709,
                    "duration": 0.3438589999999948
                },
                {
                    "name": "C#5",
                    "midi": 73,
                    "time": 44.01395199999997,
                    "velocity": 0.31496062992125984,
                    "duration": 0.1719294999999974
                },
                {
                    "name": "B4",
                    "midi": 71,
                    "time": 44.185881499999965,
                    "velocity": 0.31496062992125984,
                    "duration": 0.1719294999999974
                },
                {
                    "name": "A4",
                    "midi": 69,
                    "time": 44.35781099999996,
                    "velocity": 0.31496062992125984,
                    "duration": 0.1719294999999974
                },
                {
                    "name": "D5",
                    "midi": 74,
                    "time": 44.52974049999996,
                    "velocity": 0.30708661417322836,
                    "duration": 0.1719294999999974
                },
                {
                    "name": "F#4",
                    "midi": 66,
                    "time": 44.70166999999996,
                    "velocity": 0.2677165354330709,
                    "duration": 0.343859000000009
                },
                {
                    "name": "D5",
                    "midi": 74,
                    "time": 44.70166999999996,
                    "velocity": 0.31496062992125984,
                    "duration": 0.11461966666666967
                },
                {
                    "name": "E5",
                    "midi": 76,
                    "time": 44.81628966666663,
                    "velocity": 0.30708661417322836,
                    "duration": 0.11461966666666967
                },
                {
                    "name": "D5",
                    "midi": 74,
                    "time": 44.9309093333333,
                    "velocity": 0.30708661417322836,
                    "duration": 0.11461966666666967
                },
                {
                    "name": "F#4",
                    "midi": 66,
                    "time": 45.045528999999966,
                    "velocity": 0.25196850393700787,
                    "duration": 0.3438589999999948
                },
                {
                    "name": "C#5",
                    "midi": 73,
                    "time": 45.045528999999966,
                    "velocity": 0.30708661417322836,
                    "duration": 0.1719294999999974
                },
                {
                    "name": "B4",
                    "midi": 71,
                    "time": 45.217458499999964,
                    "velocity": 0.30708661417322836,
                    "duration": 0.1719294999999974
                },
                {
                    "name": "C#5",
                    "midi": 73,
                    "time": 45.38938799999996,
                    "velocity": 0.31496062992125984,
                    "duration": 1.0315770000000057
                },
                {
                    "name": "E4",
                    "midi": 64,
                    "time": 45.73324699999996,
                    "velocity": 0.1889763779527559,
                    "duration": 0.3438590000000019
                },
                {
                    "name": "A4",
                    "midi": 69,
                    "time": 45.73324699999996,
                    "velocity": 0.2283464566929134,
                    "duration": 0.3438590000000019
                },
                {
                    "name": "G4",
                    "midi": 67,
                    "time": 46.077105999999965,
                    "velocity": 0.2440944881889764,
                    "duration": 0.3438590000000019
                },
                {
                    "name": "A4",
                    "midi": 69,
                    "time": 46.077105999999965,
                    "velocity": 0.29133858267716534,
                    "duration": 0.3438590000000019
                },
                {
                    "name": "A4",
                    "midi": 69,
                    "time": 46.42096499999997,
                    "velocity": 0.31496062992125984,
                    "duration": 0.1719294999999974
                },
                {
                    "name": "C#5",
                    "midi": 73,
                    "time": 46.592894499999964,
                    "velocity": 0.30708661417322836,
                    "duration": 0.1719294999999974
                },
                {
                    "name": "D5",
                    "midi": 74,
                    "time": 46.76482399999996,
                    "velocity": 0.30708661417322836,
                    "duration": 0.1719294999999974
                },
                {
                    "name": "F#4",
                    "midi": 66,
                    "time": 46.76482399999996,
                    "velocity": 0.25984251968503935,
                    "duration": 0.3438589999999948
                },
                {
                    "name": "E5",
                    "midi": 76,
                    "time": 46.93675349999996,
                    "velocity": 0.30708661417322836,
                    "duration": 0.1719294999999974
                },
                {
                    "name": "F#5",
                    "midi": 78,
                    "time": 47.10868299999996,
                    "velocity": 0.31496062992125984,
                    "duration": 0.1719294999999974
                },
                {
                    "name": "F#4",
                    "midi": 66,
                    "time": 47.10868299999996,
                    "velocity": 0.25984251968503935,
                    "duration": 0.3438590000000019
                },
                {
                    "name": "G5",
                    "midi": 79,
                    "time": 47.280612499999954,
                    "velocity": 0.31496062992125984,
                    "duration": 0.08596475000000225
                },
                {
                    "name": "F#5",
                    "midi": 78,
                    "time": 47.366577249999956,
                    "velocity": 0.30708661417322836,
                    "duration": 0.04298237500000113
                },
                {
                    "name": "G5",
                    "midi": 79,
                    "time": 47.40955962499996,
                    "velocity": 0.29133858267716534,
                    "duration": 0.04298237500000113
                },
                {
                    "name": "F#5",
                    "midi": 78,
                    "time": 47.45254199999996,
                    "velocity": 0.33070866141732286,
                    "duration": 0.3438590000000019
                },
                {
                    "name": "G4",
                    "midi": 67,
                    "time": 47.79640099999996,
                    "velocity": 0.2677165354330709,
                    "duration": 0.3438589999999948
                },
                {
                    "name": "E5",
                    "midi": 76,
                    "time": 47.79640099999996,
                    "velocity": 0.31496062992125984,
                    "duration": 0.1719294999999974
                },
                {
                    "name": "D5",
                    "midi": 74,
                    "time": 47.96833049999996,
                    "velocity": 0.31496062992125984,
                    "duration": 0.1719294999999974
                },
                {
                    "name": "G4",
                    "midi": 67,
                    "time": 48.140259999999955,
                    "velocity": 0.2677165354330709,
                    "duration": 0.3438589999999948
                },
                {
                    "name": "C#5",
                    "midi": 73,
                    "time": 48.140259999999955,
                    "velocity": 0.31496062992125984,
                    "duration": 0.1719294999999974
                },
                {
                    "name": "B4",
                    "midi": 71,
                    "time": 48.31218949999995,
                    "velocity": 0.31496062992125984,
                    "duration": 0.1719294999999974
                },
                {
                    "name": "A4",
                    "midi": 69,
                    "time": 48.48411899999995,
                    "velocity": 0.31496062992125984,
                    "duration": 0.1719294999999974
                },
                {
                    "name": "C#5",
                    "midi": 73,
                    "time": 48.65604849999995,
                    "velocity": 0.30708661417322836,
                    "duration": 0.1719294999999974
                },
                {
                    "name": "G4",
                    "midi": 67,
                    "time": 48.827977999999945,
                    "velocity": 0.2677165354330709,
                    "duration": 0.343859000000009
                },
                {
                    "name": "C#5",
                    "midi": 73,
                    "time": 48.827977999999945,
                    "velocity": 0.31496062992125984,
                    "duration": 0.11461966666666967
                },
                {
                    "name": "D5",
                    "midi": 74,
                    "time": 48.942597666666614,
                    "velocity": 0.30708661417322836,
                    "duration": 0.11461966666666967
                },
                {
                    "name": "C#5",
                    "midi": 73,
                    "time": 49.057217333333284,
                    "velocity": 0.30708661417322836,
                    "duration": 0.11461966666666967
                },
                {
                    "name": "G4",
                    "midi": 67,
                    "time": 49.171836999999954,
                    "velocity": 0.25196850393700787,
                    "duration": 0.3438589999999948
                },
                {
                    "name": "B4",
                    "midi": 71,
                    "time": 49.171836999999954,
                    "velocity": 0.30708661417322836,
                    "duration": 0.1719294999999974
                },
                {
                    "name": "A4",
                    "midi": 69,
                    "time": 49.34376649999995,
                    "velocity": 0.30708661417322836,
                    "duration": 0.1719294999999974
                },
                {
                    "name": "D5",
                    "midi": 74,
                    "time": 49.51569599999995,
                    "velocity": 0.31496062992125984,
                    "duration": 1.2894712500000054
                },
                {
                    "name": "F#4",
                    "midi": 66,
                    "time": 49.85955499999995,
                    "velocity": 0.2283464566929134,
                    "duration": 0.3438590000000019
                },
                {
                    "name": "F#4",
                    "midi": 66,
                    "time": 50.20341399999995,
                    "velocity": 0.29133858267716534,
                    "duration": 0.3438590000000019
                },
                {
                    "name": "F4",
                    "midi": 65,
                    "time": 50.547272999999954,
                    "velocity": 0.4251968503937008,
                    "duration": 0.6877180000000038
                },
                {
                    "name": "D5",
                    "midi": 74,
                    "time": 50.805167249999954,
                    "velocity": 0.4566929133858268,
                    "duration": 0.08596475000000225
                },
                {
                    "name": "D#5",
                    "midi": 75,
                    "time": 50.891131999999956,
                    "velocity": 0.4881889763779528,
                    "duration": 0.3438590000000019
                },
                {
                    "name": "A#4",
                    "midi": 70,
                    "time": 51.23499099999996,
                    "velocity": 0.33070866141732286,
                    "duration": 0.6877180000000038
                },
                {
                    "name": "E5",
                    "midi": 76,
                    "time": 51.23499099999996,
                    "velocity": 0.4330708661417323,
                    "duration": 0.3438590000000019
                },
                {
                    "name": "G5",
                    "midi": 79,
                    "time": 51.57884999999996,
                    "velocity": 0.5039370078740157,
                    "duration": 0.25789424999999966
                },
                {
                    "name": "F5",
                    "midi": 77,
                    "time": 51.83674424999996,
                    "velocity": 0.47244094488188976,
                    "duration": 0.08596475000000225
                },
                {
                    "name": "A4",
                    "midi": 69,
                    "time": 51.92270899999996,
                    "velocity": 0.3858267716535433,
                    "duration": 0.1719294999999974
                },
                {
                    "name": "C5",
                    "midi": 72,
                    "time": 51.92270899999996,
                    "velocity": 0.5039370078740157,
                    "duration": 0.3438589999999948
                },
                {
                    "name": "G4",
                    "midi": 67,
                    "time": 52.09463849999996,
                    "velocity": 0.3700787401574803,
                    "duration": 0.1719294999999974
                },
                {
                    "name": "F4",
                    "midi": 65,
                    "time": 52.26656799999996,
                    "velocity": 0.3779527559055118,
                    "duration": 0.6877180000000038
                },
                {
                    "name": "C5",
                    "midi": 72,
                    "time": 52.26656799999996,
                    "velocity": 0.44881889763779526,
                    "duration": 0.3438590000000019
                },
                {
                    "name": "D5",
                    "midi": 74,
                    "time": 52.61042699999996,
                    "velocity": 0.5039370078740157,
                    "duration": 0.25789424999999966
                },
                {
                    "name": "D5",
                    "midi": 74,
                    "time": 52.86832124999996,
                    "velocity": 0.5039370078740157,
                    "duration": 0.08596475000000225
                },
                {
                    "name": "F4",
                    "midi": 65,
                    "time": 52.95428599999996,
                    "velocity": 0.3937007874015748,
                    "duration": 0.3438590000000019
                },
                {
                    "name": "A#4",
                    "midi": 70,
                    "time": 52.95428599999996,
                    "velocity": 0.3937007874015748,
                    "duration": 0.3438590000000019
                },
                {
                    "name": "D#5",
                    "midi": 75,
                    "time": 52.95428599999996,
                    "velocity": 0.5433070866141733,
                    "duration": 0.3438590000000019
                },
                {
                    "name": "F4",
                    "midi": 65,
                    "time": 53.29814499999996,
                    "velocity": 0.4015748031496063,
                    "duration": 0.6877180000000038
                },
                {
                    "name": "A#4",
                    "midi": 70,
                    "time": 53.29814499999996,
                    "velocity": 0.4015748031496063,
                    "duration": 0.3438590000000019
                },
                {
                    "name": "E5",
                    "midi": 76,
                    "time": 53.29814499999996,
                    "velocity": 0.48031496062992124,
                    "duration": 0.3438590000000019
                },
                {
                    "name": "C5",
                    "midi": 72,
                    "time": 53.642003999999964,
                    "velocity": 0.4094488188976378,
                    "duration": 0.3438590000000019
                },
                {
                    "name": "G5",
                    "midi": 79,
                    "time": 53.642003999999964,
                    "velocity": 0.5590551181102362,
                    "duration": 0.25789424999999966
                },
                {
                    "name": "F5",
                    "midi": 77,
                    "time": 53.899898249999964,
                    "velocity": 0.5196850393700787,
                    "duration": 0.08596475000000225
                },
                {
                    "name": "F4",
                    "midi": 65,
                    "time": 53.985862999999966,
                    "velocity": 0.4645669291338583,
                    "duration": 0.3438590000000019
                },
                {
                    "name": "C5",
                    "midi": 72,
                    "time": 53.985862999999966,
                    "velocity": 0.5590551181102362,
                    "duration": 0.6877180000000038
                },
                {
                    "name": "A4",
                    "midi": 69,
                    "time": 54.32972199999997,
                    "velocity": 0.5275590551181102,
                    "duration": 0.3438590000000019
                },
                {
                    "name": "F5",
                    "midi": 77,
                    "time": 54.32972199999997,
                    "velocity": 0.6377952755905512,
                    "duration": 0.3438590000000019
                },
                {
                    "name": "E5",
                    "midi": 76,
                    "time": 54.67358099999997,
                    "velocity": 0.5748031496062992,
                    "duration": 0.1719294999999974
                },
                {
                    "name": "A#4",
                    "midi": 70,
                    "time": 54.67358099999997,
                    "velocity": 0.5433070866141733,
                    "duration": 0.1719294999999974
                },
                {
                    "name": "A#5",
                    "midi": 82,
                    "time": 54.67358099999997,
                    "velocity": 0.6771653543307087,
                    "duration": 0.1719294999999974
                },
                {
                    "name": "A#4",
                    "midi": 70,
                    "time": 54.93147524999997,
                    "velocity": 0.5196850393700787,
                    "duration": 0.08596475000000225
                },
                {
                    "name": "E5",
                    "midi": 76,
                    "time": 54.93147524999997,
                    "velocity": 0.5433070866141733,
                    "duration": 0.08596475000000225
                },
                {
                    "name": "A#5",
                    "midi": 82,
                    "time": 54.93147524999997,
                    "velocity": 0.6456692913385826,
                    "duration": 0.08596475000000225
                },
                {
                    "name": "A#4",
                    "midi": 70,
                    "time": 55.01743999999997,
                    "velocity": 0.5511811023622047,
                    "duration": 0.3438590000000019
                },
                {
                    "name": "E5",
                    "midi": 76,
                    "time": 55.01743999999997,
                    "velocity": 0.5669291338582677,
                    "duration": 0.3438590000000019
                },
                {
                    "name": "A#5",
                    "midi": 82,
                    "time": 55.01743999999997,
                    "velocity": 0.6692913385826772,
                    "duration": 0.3438590000000019
                },
                {
                    "name": "A#4",
                    "midi": 70,
                    "time": 55.361298999999974,
                    "velocity": 0.5511811023622047,
                    "duration": 0.3438590000000019
                },
                {
                    "name": "E5",
                    "midi": 76,
                    "time": 55.361298999999974,
                    "velocity": 0.5511811023622047,
                    "duration": 0.3438590000000019
                },
                {
                    "name": "A#5",
                    "midi": 82,
                    "time": 55.361298999999974,
                    "velocity": 0.6535433070866141,
                    "duration": 0.3438590000000019
                },
                {
                    "name": "F5",
                    "midi": 77,
                    "time": 55.705157999999976,
                    "velocity": 0.5748031496062992,
                    "duration": 0.1719294999999974
                },
                {
                    "name": "A#4",
                    "midi": 70,
                    "time": 55.705157999999976,
                    "velocity": 0.5748031496062992,
                    "duration": 0.1719294999999974
                },
                {
                    "name": "A#5",
                    "midi": 82,
                    "time": 55.705157999999976,
                    "velocity": 0.6771653543307087,
                    "duration": 0.1719294999999974
                },
                {
                    "name": "A#4",
                    "midi": 70,
                    "time": 55.963052249999976,
                    "velocity": 0.5433070866141733,
                    "duration": 0.08596475000000225
                },
                {
                    "name": "F5",
                    "midi": 77,
                    "time": 55.963052249999976,
                    "velocity": 0.5433070866141733,
                    "duration": 0.08596475000000225
                },
                {
                    "name": "A#5",
                    "midi": 82,
                    "time": 55.963052249999976,
                    "velocity": 0.6456692913385826,
                    "duration": 0.08596475000000225
                },
                {
                    "name": "A#4",
                    "midi": 70,
                    "time": 56.04901699999998,
                    "velocity": 0.5669291338582677,
                    "duration": 0.3438590000000019
                },
                {
                    "name": "F5",
                    "midi": 77,
                    "time": 56.04901699999998,
                    "velocity": 0.5669291338582677,
                    "duration": 0.3438590000000019
                },
                {
                    "name": "A#5",
                    "midi": 82,
                    "time": 56.04901699999998,
                    "velocity": 0.6692913385826772,
                    "duration": 0.3438590000000019
                },
                {
                    "name": "A4",
                    "midi": 69,
                    "time": 56.39287599999998,
                    "velocity": 0.5275590551181102,
                    "duration": 0.3438590000000019
                },
                {
                    "name": "F5",
                    "midi": 77,
                    "time": 56.39287599999998,
                    "velocity": 0.5511811023622047,
                    "duration": 0.3438590000000019
                },
                {
                    "name": "A5",
                    "midi": 81,
                    "time": 56.39287599999998,
                    "velocity": 0.6535433070866141,
                    "duration": 0.3438590000000019
                },
                {
                    "name": "E5",
                    "midi": 76,
                    "time": 56.73673499999998,
                    "velocity": 0.5039370078740157,
                    "duration": 0.1719294999999974
                },
                {
                    "name": "A#4",
                    "midi": 70,
                    "time": 56.73673499999998,
                    "velocity": 0.5039370078740157,
                    "duration": 0.1719294999999974
                },
                {
                    "name": "A5",
                    "midi": 81,
                    "time": 56.73673499999998,
                    "velocity": 0.6141732283464567,
                    "duration": 0.1719294999999974
                },
                {
                    "name": "A#4",
                    "midi": 70,
                    "time": 56.99462924999998,
                    "velocity": 0.48031496062992124,
                    "duration": 0.08596475000000225
                },
                {
                    "name": "E5",
                    "midi": 76,
                    "time": 56.99462924999998,
                    "velocity": 0.48031496062992124,
                    "duration": 0.08596475000000225
                },
                {
                    "name": "A5",
                    "midi": 81,
                    "time": 56.99462924999998,
                    "velocity": 0.5748031496062992,
                    "duration": 0.08596475000000225
                },
                {
                    "name": "A#4",
                    "midi": 70,
                    "time": 57.080593999999984,
                    "velocity": 0.49606299212598426,
                    "duration": 0.3438590000000019
                },
                {
                    "name": "E5",
                    "midi": 76,
                    "time": 57.080593999999984,
                    "velocity": 0.49606299212598426,
                    "duration": 0.3438590000000019
                },
                {
                    "name": "A5",
                    "midi": 81,
                    "time": 57.080593999999984,
                    "velocity": 0.5984251968503937,
                    "duration": 0.3438590000000019
                },
                {
                    "name": "A#4",
                    "midi": 70,
                    "time": 57.424452999999986,
                    "velocity": 0.47244094488188976,
                    "duration": 0.3438590000000019
                },
                {
                    "name": "E5",
                    "midi": 76,
                    "time": 57.424452999999986,
                    "velocity": 0.47244094488188976,
                    "duration": 0.3438590000000019
                },
                {
                    "name": "G5",
                    "midi": 79,
                    "time": 57.424452999999986,
                    "velocity": 0.5669291338582677,
                    "duration": 0.3438590000000019
                },
                {
                    "name": "D#5",
                    "midi": 75,
                    "time": 57.76831199999999,
                    "velocity": 0.4566929133858268,
                    "duration": 0.1719294999999974
                },
                {
                    "name": "A4",
                    "midi": 69,
                    "time": 57.76831199999999,
                    "velocity": 0.4566929133858268,
                    "duration": 0.1719294999999974
                },
                {
                    "name": "G5",
                    "midi": 79,
                    "time": 57.76831199999999,
                    "velocity": 0.5511811023622047,
                    "duration": 0.1719294999999974
                },
                {
                    "name": "A4",
                    "midi": 69,
                    "time": 58.02620624999999,
                    "velocity": 0.4094488188976378,
                    "duration": 0.08596475000000225
                },
                {
                    "name": "D#5",
                    "midi": 75,
                    "time": 58.02620624999999,
                    "velocity": 0.4094488188976378,
                    "duration": 0.08596475000000225
                },
                {
                    "name": "G5",
                    "midi": 79,
                    "time": 58.02620624999999,
                    "velocity": 0.4881889763779528,
                    "duration": 0.08596475000000225
                },
                {
                    "name": "A4",
                    "midi": 69,
                    "time": 58.11217099999999,
                    "velocity": 0.4251968503937008,
                    "duration": 0.3438590000000019
                },
                {
                    "name": "D#5",
                    "midi": 75,
                    "time": 58.11217099999999,
                    "velocity": 0.4251968503937008,
                    "duration": 0.3438590000000019
                },
                {
                    "name": "G5",
                    "midi": 79,
                    "time": 58.11217099999999,
                    "velocity": 0.5039370078740157,
                    "duration": 0.3438590000000019
                },
                {
                    "name": "A4",
                    "midi": 69,
                    "time": 58.45602999999999,
                    "velocity": 0.36220472440944884,
                    "duration": 0.3438590000000019
                },
                {
                    "name": "D#5",
                    "midi": 75,
                    "time": 58.45602999999999,
                    "velocity": 0.36220472440944884,
                    "duration": 0.3438590000000019
                },
                {
                    "name": "F5",
                    "midi": 77,
                    "time": 58.45602999999999,
                    "velocity": 0.4409448818897638,
                    "duration": 0.3438590000000019
                },
                {
                    "name": "D5",
                    "midi": 74,
                    "time": 58.79988899999999,
                    "velocity": 0.48031496062992124,
                    "duration": 0.25789424999999966
                },
                {
                    "name": "D5",
                    "midi": 74,
                    "time": 59.05778324999999,
                    "velocity": 0.4566929133858268,
                    "duration": 0.08596475000000225
                },
                {
                    "name": "F4",
                    "midi": 65,
                    "time": 59.143747999999995,
                    "velocity": 0.3543307086614173,
                    "duration": 0.3438590000000019
                },
                {
                    "name": "A#4",
                    "midi": 70,
                    "time": 59.143747999999995,
                    "velocity": 0.3543307086614173,
                    "duration": 0.3438590000000019
                },
                {
                    "name": "D#5",
                    "midi": 75,
                    "time": 59.143747999999995,
                    "velocity": 0.4881889763779528,
                    "duration": 0.3438590000000019
                },
                {
                    "name": "F4",
                    "midi": 65,
                    "time": 59.487607,
                    "velocity": 0.36220472440944884,
                    "duration": 0.3438590000000019
                },
                {
                    "name": "A#4",
                    "midi": 70,
                    "time": 59.487607,
                    "velocity": 0.36220472440944884,
                    "duration": 0.3438590000000019
                },
                {
                    "name": "E5",
                    "midi": 76,
                    "time": 59.487607,
                    "velocity": 0.4330708661417323,
                    "duration": 0.3438590000000019
                },
                {
                    "name": "F#5",
                    "midi": 78,
                    "time": 59.831466,
                    "velocity": 0.5039370078740157,
                    "duration": 0.25789424999999966
                },
                {
                    "name": "F5",
                    "midi": 77,
                    "time": 60.08936025,
                    "velocity": 0.47244094488188976,
                    "duration": 0.08596475000000225
                },
                {
                    "name": "F4",
                    "midi": 65,
                    "time": 60.175325,
                    "velocity": 0.41732283464566927,
                    "duration": 0.25789424999999966
                },
                {
                    "name": "C5",
                    "midi": 72,
                    "time": 60.175325,
                    "velocity": 0.5039370078740157,
                    "duration": 0.3438590000000019
                },
                {
                    "name": "F#4",
                    "midi": 66,
                    "time": 60.43321925,
                    "velocity": 0.3700787401574803,
                    "duration": 0.08596475000000225
                },
                {
                    "name": "F4",
                    "midi": 65,
                    "time": 60.519184,
                    "velocity": 0.3779527559055118,
                    "duration": 0.3438590000000019
                },
                {
                    "name": "C5",
                    "midi": 72,
                    "time": 60.519184,
                    "velocity": 0.44881889763779526,
                    "duration": 0.3438590000000019
                },
                {
                    "name": "C#5",
                    "midi": 73,
                    "time": 60.863043000000005,
                    "velocity": 0.5354330708661418,
                    "duration": 0.25789424999999966
                },
                {
                    "name": "C#5",
                    "midi": 73,
                    "time": 61.120937250000004,
                    "velocity": 0.5039370078740157,
                    "duration": 0.08596475000000225
                },
                {
                    "name": "F4",
                    "midi": 65,
                    "time": 61.20690200000001,
                    "velocity": 0.3937007874015748,
                    "duration": 0.3438590000000019
                },
                {
                    "name": "A#4",
                    "midi": 70,
                    "time": 61.20690200000001,
                    "velocity": 0.3937007874015748,
                    "duration": 0.3438590000000019
                },
                {
                    "name": "D#5",
                    "midi": 75,
                    "time": 61.20690200000001,
                    "velocity": 0.5433070866141733,
                    "duration": 0.3438590000000019
                },
                {
                    "name": "F4",
                    "midi": 65,
                    "time": 61.55076100000001,
                    "velocity": 0.3937007874015748,
                    "duration": 0.3438590000000019
                },
                {
                    "name": "A#4",
                    "midi": 70,
                    "time": 61.55076100000001,
                    "velocity": 0.3937007874015748,
                    "duration": 0.3438590000000019
                },
                {
                    "name": "E5",
                    "midi": 76,
                    "time": 61.55076100000001,
                    "velocity": 0.47244094488188976,
                    "duration": 0.3438590000000019
                },
                {
                    "name": "F#5",
                    "midi": 78,
                    "time": 61.89462000000001,
                    "velocity": 0.5826771653543307,
                    "duration": 0.25789424999999966
                },
                {
                    "name": "F5",
                    "midi": 77,
                    "time": 62.15251425000001,
                    "velocity": 0.5669291338582677,
                    "duration": 0.08596475000000225
                },
                {
                    "name": "C#5",
                    "midi": 73,
                    "time": 62.23847900000001,
                    "velocity": 0.4881889763779528,
                    "duration": 0.3438590000000019
                },
                {
                    "name": "G#4",
                    "midi": 68,
                    "time": 62.23847900000001,
                    "velocity": 0.4881889763779528,
                    "duration": 0.3438590000000019
                },
                {
                    "name": "G#5",
                    "midi": 80,
                    "time": 62.23847900000001,
                    "velocity": 0.5905511811023622,
                    "duration": 0.3438590000000019
                },
                {
                    "name": "C#5",
                    "midi": 73,
                    "time": 62.582338000000014,
                    "velocity": 0.5748031496062992,
                    "duration": 0.3438590000000019
                },
                {
                    "name": "C#6",
                    "midi": 85,
                    "time": 62.582338000000014,
                    "velocity": 0.7007874015748031,
                    "duration": 0.3438590000000019
                },
                {
                    "name": "C5",
                    "midi": 72,
                    "time": 62.926197000000016,
                    "velocity": 0.6299212598425197,
                    "duration": 0.1719294999999974
                },
                {
                    "name": "F#4",
                    "midi": 66,
                    "time": 62.926197000000016,
                    "velocity": 0.6299212598425197,
                    "duration": 0.1719294999999974
                },
                {
                    "name": "F#5",
                    "midi": 78,
                    "time": 62.926197000000016,
                    "velocity": 0.7401574803149606,
                    "duration": 0.1719294999999974
                },
                {
                    "name": "F#4",
                    "midi": 66,
                    "time": 63.184091250000016,
                    "velocity": 0.5905511811023622,
                    "duration": 0.08596475000000225
                },
                {
                    "name": "C5",
                    "midi": 72,
                    "time": 63.184091250000016,
                    "velocity": 0.5905511811023622,
                    "duration": 0.08596475000000225
                },
                {
                    "name": "F#5",
                    "midi": 78,
                    "time": 63.184091250000016,
                    "velocity": 0.7086614173228346,
                    "duration": 0.08596475000000225
                },
                {
                    "name": "F#4",
                    "midi": 66,
                    "time": 63.27005600000002,
                    "velocity": 0.6220472440944882,
                    "duration": 0.3438590000000019
                },
                {
                    "name": "C5",
                    "midi": 72,
                    "time": 63.27005600000002,
                    "velocity": 0.6220472440944882,
                    "duration": 0.3438590000000019
                },
                {
                    "name": "F#5",
                    "midi": 78,
                    "time": 63.27005600000002,
                    "velocity": 0.7322834645669292,
                    "duration": 0.3438590000000019
                },
                {
                    "name": "F#4",
                    "midi": 66,
                    "time": 63.61391500000002,
                    "velocity": 0.5905511811023622,
                    "duration": 0.3438590000000019
                },
                {
                    "name": "C5",
                    "midi": 72,
                    "time": 63.61391500000002,
                    "velocity": 0.5905511811023622,
                    "duration": 0.3438590000000019
                },
                {
                    "name": "F#5",
                    "midi": 78,
                    "time": 63.61391500000002,
                    "velocity": 0.7086614173228346,
                    "duration": 0.3438590000000019
                },
                {
                    "name": "C#5",
                    "midi": 73,
                    "time": 63.95777400000002,
                    "velocity": 0.6220472440944882,
                    "duration": 0.1719294999999974
                },
                {
                    "name": "F#4",
                    "midi": 66,
                    "time": 63.95777400000002,
                    "velocity": 0.6220472440944882,
                    "duration": 0.1719294999999974
                },
                {
                    "name": "F#5",
                    "midi": 78,
                    "time": 63.95777400000002,
                    "velocity": 0.7322834645669292,
                    "duration": 0.1719294999999974
                },
                {
                    "name": "F#4",
                    "midi": 66,
                    "time": 64.21566825000002,
                    "velocity": 0.5748031496062992,
                    "duration": 0.08596475000000225
                },
                {
                    "name": "C#5",
                    "midi": 73,
                    "time": 64.21566825000002,
                    "velocity": 0.5748031496062992,
                    "duration": 0.08596475000000225
                },
                {
                    "name": "F#5",
                    "midi": 78,
                    "time": 64.21566825000002,
                    "velocity": 0.6929133858267716,
                    "duration": 0.08596475000000225
                },
                {
                    "name": "F#4",
                    "midi": 66,
                    "time": 64.30163300000002,
                    "velocity": 0.6062992125984252,
                    "duration": 0.3438589999999948
                },
                {
                    "name": "C#5",
                    "midi": 73,
                    "time": 64.30163300000002,
                    "velocity": 0.6062992125984252,
                    "duration": 0.3438589999999948
                },
                {
                    "name": "F#5",
                    "midi": 78,
                    "time": 64.30163300000002,
                    "velocity": 0.7165354330708661,
                    "duration": 0.3438589999999948
                },
                {
                    "name": "F4",
                    "midi": 65,
                    "time": 64.64549200000002,
                    "velocity": 0.5748031496062992,
                    "duration": 0.3438589999999948
                },
                {
                    "name": "C#5",
                    "midi": 73,
                    "time": 64.64549200000002,
                    "velocity": 0.5748031496062992,
                    "duration": 0.3438589999999948
                },
                {
                    "name": "F5",
                    "midi": 77,
                    "time": 64.64549200000002,
                    "velocity": 0.6929133858267716,
                    "duration": 0.3438589999999948
                },
                {
                    "name": "C5",
                    "midi": 72,
                    "time": 64.98935100000001,
                    "velocity": 0.5275590551181102,
                    "duration": 0.1719295000000045
                },
                {
                    "name": "F#4",
                    "midi": 66,
                    "time": 64.98935100000001,
                    "velocity": 0.5275590551181102,
                    "duration": 0.1719295000000045
                },
                {
                    "name": "F5",
                    "midi": 77,
                    "time": 64.98935100000001,
                    "velocity": 0.6377952755905512,
                    "duration": 0.1719295000000045
                },
                {
                    "name": "F#4",
                    "midi": 66,
                    "time": 65.24724525000002,
                    "velocity": 0.49606299212598426,
                    "duration": 0.08596475000000225
                },
                {
                    "name": "C5",
                    "midi": 72,
                    "time": 65.24724525000002,
                    "velocity": 0.49606299212598426,
                    "duration": 0.08596475000000225
                },
                {
                    "name": "F5",
                    "midi": 77,
                    "time": 65.24724525000002,
                    "velocity": 0.5984251968503937,
                    "duration": 0.08596475000000225
                },
                {
                    "name": "F#4",
                    "midi": 66,
                    "time": 65.33321000000002,
                    "velocity": 0.4645669291338583,
                    "duration": 0.3438589999999948
                },
                {
                    "name": "C5",
                    "midi": 72,
                    "time": 65.33321000000002,
                    "velocity": 0.5118110236220472,
                    "duration": 0.3438589999999948
                },
                {
                    "name": "F5",
                    "midi": 77,
                    "time": 65.33321000000002,
                    "velocity": 0.6062992125984252,
                    "duration": 0.3438589999999948
                },
                {
                    "name": "F#4",
                    "midi": 66,
                    "time": 65.67706900000002,
                    "velocity": 0.49606299212598426,
                    "duration": 0.3438589999999948
                },
                {
                    "name": "C5",
                    "midi": 72,
                    "time": 65.67706900000002,
                    "velocity": 0.49606299212598426,
                    "duration": 0.3438589999999948
                },
                {
                    "name": "D#5",
                    "midi": 75,
                    "time": 65.67706900000002,
                    "velocity": 0.5826771653543307,
                    "duration": 0.3438589999999948
                },
                {
                    "name": "F#4",
                    "midi": 66,
                    "time": 66.02092800000001,
                    "velocity": 0.4645669291338583,
                    "duration": 0.1719295000000045
                },
                {
                    "name": "D#5",
                    "midi": 75,
                    "time": 66.02092800000001,
                    "velocity": 0.5669291338582677,
                    "duration": 0.1719295000000045
                },
                {
                    "name": "F#4",
                    "midi": 66,
                    "time": 66.27882225000002,
                    "velocity": 0.41732283464566927,
                    "duration": 0.08596475000000225
                },
                {
                    "name": "G#4",
                    "midi": 68,
                    "time": 66.27882225000002,
                    "velocity": 0.41732283464566927,
                    "duration": 0.08596475000000225
                },
                {
                    "name": "D#5",
                    "midi": 75,
                    "time": 66.27882225000002,
                    "velocity": 0.49606299212598426,
                    "duration": 0.08596475000000225
                },
                {
                    "name": "F#4",
                    "midi": 66,
                    "time": 66.36478700000002,
                    "velocity": 0.4330708661417323,
                    "duration": 0.3438589999999948
                },
                {
                    "name": "G#4",
                    "midi": 68,
                    "time": 66.36478700000002,
                    "velocity": 0.4330708661417323,
                    "duration": 0.6877179999999896
                },
                {
                    "name": "D#5",
                    "midi": 75,
                    "time": 66.36478700000002,
                    "velocity": 0.5118110236220472,
                    "duration": 0.3438589999999948
                },
                {
                    "name": "F4",
                    "midi": 65,
                    "time": 66.70864600000002,
                    "velocity": 0.36220472440944884,
                    "duration": 0.3438589999999948
                },
                {
                    "name": "C#5",
                    "midi": 73,
                    "time": 66.70864600000002,
                    "velocity": 0.4409448818897638,
                    "duration": 0.3438589999999948
                },
                {
                    "name": "G#4",
                    "midi": 68,
                    "time": 67.05250500000001,
                    "velocity": 0.4094488188976378,
                    "duration": 0.11461966666666967
                },
                {
                    "name": "D5",
                    "midi": 74,
                    "time": 67.05250500000001,
                    "velocity": 0.4881889763779528,
                    "duration": 0.11461966666666967
                },
                {
                    "name": "D4",
                    "midi": 62,
                    "time": 67.16712466666668,
                    "velocity": 0.4409448818897638,
                    "duration": 0.11461966666666967
                },
                {
                    "name": "G#4",
                    "midi": 68,
                    "time": 67.28174433333335,
                    "velocity": 0.3700787401574803,
                    "duration": 0.8023376666666593
                },
                {
                    "name": "D5",
                    "midi": 74,
                    "time": 67.28174433333335,
                    "velocity": 0.4409448818897638,
                    "duration": 0.4584786666666645
                },
                {
                    "name": "D4",
                    "midi": 62,
                    "time": 67.39636400000002,
                    "velocity": 0.5196850393700787,
                    "duration": 0.3438589999999948
                },
                {
                    "name": "D4",
                    "midi": 62,
                    "time": 67.74022300000001,
                    "velocity": 0.4566929133858268,
                    "duration": 0.3438589999999948
                },
                {
                    "name": "D5",
                    "midi": 74,
                    "time": 67.74022300000001,
                    "velocity": 0.49606299212598426,
                    "duration": 0.3438589999999948
                },
                {
                    "name": "A4",
                    "midi": 69,
                    "time": 68.08408200000001,
                    "velocity": 0.4409448818897638,
                    "duration": 0.11461966666666967
                },
                {
                    "name": "D5",
                    "midi": 74,
                    "time": 68.08408200000001,
                    "velocity": 0.5196850393700787,
                    "duration": 0.11461966666666967
                },
                {
                    "name": "D4",
                    "midi": 62,
                    "time": 68.19870166666668,
                    "velocity": 0.4645669291338583,
                    "duration": 0.11461966666666967
                },
                {
                    "name": "A4",
                    "midi": 69,
                    "time": 68.31332133333335,
                    "velocity": 0.3937007874015748,
                    "duration": 0.8023376666666735
                },
                {
                    "name": "D5",
                    "midi": 74,
                    "time": 68.31332133333335,
                    "velocity": 0.47244094488188976,
                    "duration": 0.630408166666669
                },
                {
                    "name": "D4",
                    "midi": 62,
                    "time": 68.42794100000002,
                    "velocity": 0.5511811023622047,
                    "duration": 0.5157884999999993
                },
                {
                    "name": "C#4",
                    "midi": 61,
                    "time": 68.94372950000002,
                    "velocity": 0.47244094488188976,
                    "duration": 0.1719295000000045
                },
                {
                    "name": "C#5",
                    "midi": 73,
                    "time": 68.94372950000002,
                    "velocity": 0.5039370078740157,
                    "duration": 0.1719295000000045
                },
                {
                    "name": "G#4",
                    "midi": 68,
                    "time": 69.11565900000002,
                    "velocity": 0.4645669291338583,
                    "duration": 0.11461966666666967
                },
                {
                    "name": "D5",
                    "midi": 74,
                    "time": 69.11565900000002,
                    "velocity": 0.5511811023622047,
                    "duration": 0.11461966666666967
                },
                {
                    "name": "D4",
                    "midi": 62,
                    "time": 69.23027866666669,
                    "velocity": 0.49606299212598426,
                    "duration": 0.11461966666666967
                },
                {
                    "name": "G#4",
                    "midi": 68,
                    "time": 69.34489833333336,
                    "velocity": 0.41732283464566927,
                    "duration": 0.8023376666666593
                },
                {
                    "name": "D5",
                    "midi": 74,
                    "time": 69.34489833333336,
                    "velocity": 0.49606299212598426,
                    "duration": 0.4584786666666645
                },
                {
                    "name": "D4",
                    "midi": 62,
                    "time": 69.45951800000003,
                    "velocity": 0.5826771653543307,
                    "duration": 0.3438589999999948
                },
                {
                    "name": "D4",
                    "midi": 62,
                    "time": 69.80337700000003,
                    "velocity": 0.5118110236220472,
                    "duration": 0.3438589999999948
                },
                {
                    "name": "D5",
                    "midi": 74,
                    "time": 69.80337700000003,
                    "velocity": 0.5511811023622047,
                    "duration": 0.3438589999999948
                },
                {
                    "name": "A4",
                    "midi": 69,
                    "time": 70.14723600000002,
                    "velocity": 0.4881889763779528,
                    "duration": 0.11461966666666967
                },
                {
                    "name": "D5",
                    "midi": 74,
                    "time": 70.14723600000002,
                    "velocity": 0.5826771653543307,
                    "duration": 0.11461966666666967
                },
                {
                    "name": "D4",
                    "midi": 62,
                    "time": 70.26185566666669,
                    "velocity": 0.5196850393700787,
                    "duration": 0.11461966666666967
                },
                {
                    "name": "A4",
                    "midi": 69,
                    "time": 70.37647533333336,
                    "velocity": 0.4409448818897638,
                    "duration": 0.8023376666666735
                },
                {
                    "name": "D5",
                    "midi": 74,
                    "time": 70.37647533333336,
                    "velocity": 0.5275590551181102,
                    "duration": 0.630408166666669
                },
                {
                    "name": "D4",
                    "midi": 62,
                    "time": 70.49109500000003,
                    "velocity": 0.6141732283464567,
                    "duration": 0.5157884999999993
                },
                {
                    "name": "C#4",
                    "midi": 61,
                    "time": 71.00688350000003,
                    "velocity": 0.5275590551181102,
                    "duration": 0.1719295000000045
                },
                {
                    "name": "C#5",
                    "midi": 73,
                    "time": 71.00688350000003,
                    "velocity": 0.5669291338582677,
                    "duration": 0.1719295000000045
                },
                {
                    "name": "G#4",
                    "midi": 68,
                    "time": 71.17881300000003,
                    "velocity": 0.5196850393700787,
                    "duration": 0.11461966666666967
                },
                {
                    "name": "D5",
                    "midi": 74,
                    "time": 71.17881300000003,
                    "velocity": 0.6141732283464567,
                    "duration": 0.11461966666666967
                },
                {
                    "name": "D4",
                    "midi": 62,
                    "time": 71.2934326666667,
                    "velocity": 0.5511811023622047,
                    "duration": 0.11461966666666967
                },
                {
                    "name": "G#4",
                    "midi": 68,
                    "time": 71.40805233333337,
                    "velocity": 0.4645669291338583,
                    "duration": 0.8023376666666593
                },
                {
                    "name": "D5",
                    "midi": 74,
                    "time": 71.40805233333337,
                    "velocity": 0.5511811023622047,
                    "duration": 0.4584786666666645
                },
                {
                    "name": "D4",
                    "midi": 62,
                    "time": 71.52267200000004,
                    "velocity": 0.6456692913385826,
                    "duration": 0.3438589999999948
                },
                {
                    "name": "D4",
                    "midi": 62,
                    "time": 71.86653100000004,
                    "velocity": 0.5511811023622047,
                    "duration": 0.3438589999999948
                },
                {
                    "name": "D5",
                    "midi": 74,
                    "time": 71.86653100000004,
                    "velocity": 0.5984251968503937,
                    "duration": 0.3438589999999948
                },
                {
                    "name": "A4",
                    "midi": 69,
                    "time": 72.21039000000003,
                    "velocity": 0.5196850393700787,
                    "duration": 0.11461966666666967
                },
                {
                    "name": "D5",
                    "midi": 74,
                    "time": 72.21039000000003,
                    "velocity": 0.6141732283464567,
                    "duration": 0.11461966666666967
                },
                {
                    "name": "D4",
                    "midi": 62,
                    "time": 72.3250096666667,
                    "velocity": 0.5511811023622047,
                    "duration": 0.11461966666666967
                },
                {
                    "name": "A4",
                    "midi": 69,
                    "time": 72.43962933333337,
                    "velocity": 0.4645669291338583,
                    "duration": 0.8023376666666735
                },
                {
                    "name": "D5",
                    "midi": 74,
                    "time": 72.43962933333337,
                    "velocity": 0.5511811023622047,
                    "duration": 0.630408166666669
                },
                {
                    "name": "D4",
                    "midi": 62,
                    "time": 72.55424900000004,
                    "velocity": 0.6456692913385826,
                    "duration": 0.5157884999999993
                },
                {
                    "name": "C#4",
                    "midi": 61,
                    "time": 73.07003750000004,
                    "velocity": 0.5354330708661418,
                    "duration": 0.1719295000000045
                },
                {
                    "name": "C#5",
                    "midi": 73,
                    "time": 73.07003750000004,
                    "velocity": 0.5748031496062992,
                    "duration": 0.1719295000000045
                },
                {
                    "name": "G#4",
                    "midi": 68,
                    "time": 73.24196700000005,
                    "velocity": 0.5196850393700787,
                    "duration": 0.11461966666666967
                },
                {
                    "name": "D5",
                    "midi": 74,
                    "time": 73.24196700000005,
                    "velocity": 0.6141732283464567,
                    "duration": 0.11461966666666967
                },
                {
                    "name": "D4",
                    "midi": 62,
                    "time": 73.35658666666671,
                    "velocity": 0.5511811023622047,
                    "duration": 0.11461966666666967
                },
                {
                    "name": "G#4",
                    "midi": 68,
                    "time": 73.47120633333338,
                    "velocity": 0.4645669291338583,
                    "duration": 0.8023376666666593
                },
                {
                    "name": "D5",
                    "midi": 74,
                    "time": 73.47120633333338,
                    "velocity": 0.5511811023622047,
                    "duration": 0.4584786666666645
                },
                {
                    "name": "D4",
                    "midi": 62,
                    "time": 73.58582600000005,
                    "velocity": 0.6456692913385826,
                    "duration": 0.3438589999999948
                },
                {
                    "name": "D4",
                    "midi": 62,
                    "time": 73.92968500000005,
                    "velocity": 0.5511811023622047,
                    "duration": 0.3438589999999948
                },
                {
                    "name": "D5",
                    "midi": 74,
                    "time": 73.92968500000005,
                    "velocity": 0.5984251968503937,
                    "duration": 0.3438589999999948
                },
                {
                    "name": "A4",
                    "midi": 69,
                    "time": 74.27354400000004,
                    "velocity": 0.5196850393700787,
                    "duration": 0.11461966666666967
                },
                {
                    "name": "D5",
                    "midi": 74,
                    "time": 74.27354400000004,
                    "velocity": 0.6141732283464567,
                    "duration": 0.11461966666666967
                },
                {
                    "name": "D4",
                    "midi": 62,
                    "time": 74.38816366666671,
                    "velocity": 0.5511811023622047,
                    "duration": 0.11461966666666967
                },
                {
                    "name": "A4",
                    "midi": 69,
                    "time": 74.50278333333338,
                    "velocity": 0.4645669291338583,
                    "duration": 0.8023376666666735
                },
                {
                    "name": "D5",
                    "midi": 74,
                    "time": 74.50278333333338,
                    "velocity": 0.5511811023622047,
                    "duration": 0.630408166666669
                },
                {
                    "name": "D4",
                    "midi": 62,
                    "time": 74.61740300000005,
                    "velocity": 0.6456692913385826,
                    "duration": 0.5157884999999993
                },
                {
                    "name": "C#4",
                    "midi": 61,
                    "time": 75.13319150000005,
                    "velocity": 0.5354330708661418,
                    "duration": 0.1719295000000045
                },
                {
                    "name": "C#5",
                    "midi": 73,
                    "time": 75.13319150000005,
                    "velocity": 0.5748031496062992,
                    "duration": 0.1719295000000045
                },
                {
                    "name": "G#4",
                    "midi": 68,
                    "time": 75.30512100000006,
                    "velocity": 0.4094488188976378,
                    "duration": 0.11461966666666967
                },
                {
                    "name": "D5",
                    "midi": 74,
                    "time": 75.30512100000006,
                    "velocity": 0.4881889763779528,
                    "duration": 0.11461966666666967
                },
                {
                    "name": "D4",
                    "midi": 62,
                    "time": 75.41974066666673,
                    "velocity": 0.4409448818897638,
                    "duration": 0.11461966666666967
                },
                {
                    "name": "G#4",
                    "midi": 68,
                    "time": 75.5343603333334,
                    "velocity": 0.3700787401574803,
                    "duration": 0.8023376666666593
                },
                {
                    "name": "D5",
                    "midi": 74,
                    "time": 75.5343603333334,
                    "velocity": 0.4409448818897638,
                    "duration": 0.4584786666666645
                },
                {
                    "name": "D4",
                    "midi": 62,
                    "time": 75.64898000000007,
                    "velocity": 0.5118110236220472,
                    "duration": 0.3438589999999948
                },
                {
                    "name": "D4",
                    "midi": 62,
                    "time": 75.99283900000006,
                    "velocity": 0.4409448818897638,
                    "duration": 0.3438589999999948
                },
                {
                    "name": "D5",
                    "midi": 74,
                    "time": 75.99283900000006,
                    "velocity": 0.48031496062992124,
                    "duration": 0.3438589999999948
                },
                {
                    "name": "A4",
                    "midi": 69,
                    "time": 76.33669800000006,
                    "velocity": 0.4251968503937008,
                    "duration": 0.11461966666666967
                },
                {
                    "name": "D5",
                    "midi": 74,
                    "time": 76.33669800000006,
                    "velocity": 0.49606299212598426,
                    "duration": 0.11461966666666967
                },
                {
                    "name": "D4",
                    "midi": 62,
                    "time": 76.45131766666672,
                    "velocity": 0.44881889763779526,
                    "duration": 0.11461966666666967
                },
                {
                    "name": "A4",
                    "midi": 69,
                    "time": 76.5659373333334,
                    "velocity": 0.3779527559055118,
                    "duration": 0.8023376666666735
                },
                {
                    "name": "D5",
                    "midi": 74,
                    "time": 76.5659373333334,
                    "velocity": 0.4566929133858268,
                    "duration": 0.630408166666669
                },
                {
                    "name": "D4",
                    "midi": 62,
                    "time": 76.68055700000006,
                    "velocity": 0.5354330708661418,
                    "duration": 0.5157884999999993
                },
                {
                    "name": "C#4",
                    "midi": 61,
                    "time": 77.19634550000006,
                    "velocity": 0.44881889763779526,
                    "duration": 0.1719295000000045
                },
                {
                    "name": "C#5",
                    "midi": 73,
                    "time": 77.19634550000006,
                    "velocity": 0.48031496062992124,
                    "duration": 0.1719295000000045
                },
                {
                    "name": "G#4",
                    "midi": 68,
                    "time": 77.36827500000007,
                    "velocity": 0.4409448818897638,
                    "duration": 0.11461966666666967
                },
                {
                    "name": "D5",
                    "midi": 74,
                    "time": 77.36827500000007,
                    "velocity": 0.5196850393700787,
                    "duration": 0.11461966666666967
                },
                {
                    "name": "D4",
                    "midi": 62,
                    "time": 77.48289466666674,
                    "velocity": 0.4645669291338583,
                    "duration": 0.11461966666666967
                },
                {
                    "name": "G#4",
                    "midi": 68,
                    "time": 77.59751433333341,
                    "velocity": 0.3937007874015748,
                    "duration": 0.8023376666666593
                },
                {
                    "name": "D5",
                    "midi": 74,
                    "time": 77.59751433333341,
                    "velocity": 0.4645669291338583,
                    "duration": 0.4584786666666645
                },
                {
                    "name": "D4",
                    "midi": 62,
                    "time": 77.71213400000008,
                    "velocity": 0.5433070866141733,
                    "duration": 0.3438589999999948
                },
                {
                    "name": "D4",
                    "midi": 62,
                    "time": 78.05599300000007,
                    "velocity": 0.47244094488188976,
                    "duration": 0.3438589999999948
                },
                {
                    "name": "D5",
                    "midi": 74,
                    "time": 78.05599300000007,
                    "velocity": 0.5118110236220472,
                    "duration": 0.3438589999999948
                },
                {
                    "name": "A4",
                    "midi": 69,
                    "time": 78.39985200000007,
                    "velocity": 0.44881889763779526,
                    "duration": 0.11461966666666967
                },
                {
                    "name": "D5",
                    "midi": 74,
                    "time": 78.39985200000007,
                    "velocity": 0.5275590551181102,
                    "duration": 0.11461966666666967
                },
                {
                    "name": "D4",
                    "midi": 62,
                    "time": 78.51447166666674,
                    "velocity": 0.47244094488188976,
                    "duration": 0.11461966666666967
                },
                {
                    "name": "A4",
                    "midi": 69,
                    "time": 78.6290913333334,
                    "velocity": 0.4015748031496063,
                    "duration": 0.8023376666666735
                },
                {
                    "name": "D5",
                    "midi": 74,
                    "time": 78.6290913333334,
                    "velocity": 0.48031496062992124,
                    "duration": 0.630408166666669
                },
                {
                    "name": "D4",
                    "midi": 62,
                    "time": 78.74371100000008,
                    "velocity": 0.5669291338582677,
                    "duration": 0.5157884999999993
                },
                {
                    "name": "C#4",
                    "midi": 61,
                    "time": 79.25949950000008,
                    "velocity": 0.47244094488188976,
                    "duration": 0.1719295000000045
                },
                {
                    "name": "C#5",
                    "midi": 73,
                    "time": 79.25949950000008,
                    "velocity": 0.5039370078740157,
                    "duration": 0.1719295000000045
                },
                {
                    "name": "G#4",
                    "midi": 68,
                    "time": 79.43142900000008,
                    "velocity": 0.4645669291338583,
                    "duration": 0.11461966666666967
                },
                {
                    "name": "D5",
                    "midi": 74,
                    "time": 79.43142900000008,
                    "velocity": 0.5511811023622047,
                    "duration": 0.11461966666666967
                },
                {
                    "name": "D4",
                    "midi": 62,
                    "time": 79.54604866666675,
                    "velocity": 0.49606299212598426,
                    "duration": 0.11461966666666967
                },
                {
                    "name": "G#4",
                    "midi": 68,
                    "time": 79.66066833333342,
                    "velocity": 0.41732283464566927,
                    "duration": 0.8023376666666593
                },
                {
                    "name": "D5",
                    "midi": 74,
                    "time": 79.66066833333342,
                    "velocity": 0.49606299212598426,
                    "duration": 0.4584786666666645
                },
                {
                    "name": "D4",
                    "midi": 62,
                    "time": 79.77528800000009,
                    "velocity": 0.5748031496062992,
                    "duration": 0.3438589999999948
                },
                {
                    "name": "D4",
                    "midi": 62,
                    "time": 80.11914700000008,
                    "velocity": 0.49606299212598426,
                    "duration": 0.3438589999999948
                },
                {
                    "name": "D5",
                    "midi": 74,
                    "time": 80.11914700000008,
                    "velocity": 0.5354330708661418,
                    "duration": 0.3438589999999948
                },
                {
                    "name": "A4",
                    "midi": 69,
                    "time": 80.46300600000008,
                    "velocity": 0.4645669291338583,
                    "duration": 0.11461966666666967
                },
                {
                    "name": "D5",
                    "midi": 74,
                    "time": 80.46300600000008,
                    "velocity": 0.5511811023622047,
                    "duration": 0.11461966666666967
                },
                {
                    "name": "D4",
                    "midi": 62,
                    "time": 80.57762566666675,
                    "velocity": 0.49606299212598426,
                    "duration": 0.11461966666666967
                },
                {
                    "name": "A4",
                    "midi": 69,
                    "time": 80.69224533333342,
                    "velocity": 0.41732283464566927,
                    "duration": 0.8023376666666735
                },
                {
                    "name": "D5",
                    "midi": 74,
                    "time": 80.69224533333342,
                    "velocity": 0.49606299212598426,
                    "duration": 0.630408166666669
                },
                {
                    "name": "D4",
                    "midi": 62,
                    "time": 80.80686500000009,
                    "velocity": 0.5748031496062992,
                    "duration": 0.5157884999999993
                },
                {
                    "name": "C#4",
                    "midi": 61,
                    "time": 81.32265350000009,
                    "velocity": 0.48031496062992124,
                    "duration": 0.1719295000000045
                },
                {
                    "name": "C#5",
                    "midi": 73,
                    "time": 81.32265350000009,
                    "velocity": 0.5118110236220472,
                    "duration": 0.1719295000000045
                },
                {
                    "name": "G#4",
                    "midi": 68,
                    "time": 81.49458300000009,
                    "velocity": 0.4645669291338583,
                    "duration": 0.11461966666666967
                },
                {
                    "name": "D5",
                    "midi": 74,
                    "time": 81.49458300000009,
                    "velocity": 0.5511811023622047,
                    "duration": 0.11461966666666967
                },
                {
                    "name": "D4",
                    "midi": 62,
                    "time": 81.60920266666676,
                    "velocity": 0.49606299212598426,
                    "duration": 0.11461966666666967
                },
                {
                    "name": "G#4",
                    "midi": 68,
                    "time": 81.72382233333343,
                    "velocity": 0.4094488188976378,
                    "duration": 0.8023376666666593
                },
                {
                    "name": "D5",
                    "midi": 74,
                    "time": 81.72382233333343,
                    "velocity": 0.4881889763779528,
                    "duration": 0.4584786666666645
                },
                {
                    "name": "D4",
                    "midi": 62,
                    "time": 81.8384420000001,
                    "velocity": 0.5669291338582677,
                    "duration": 0.3438589999999948
                },
                {
                    "name": "D4",
                    "midi": 62,
                    "time": 82.1823010000001,
                    "velocity": 0.4645669291338583,
                    "duration": 0.3438589999999948
                },
                {
                    "name": "D5",
                    "midi": 74,
                    "time": 82.1823010000001,
                    "velocity": 0.5039370078740157,
                    "duration": 0.3438589999999948
                },
                {
                    "name": "G4",
                    "midi": 67,
                    "time": 82.52616000000009,
                    "velocity": 0.4251968503937008,
                    "duration": 0.11461966666666967
                },
                {
                    "name": "D5",
                    "midi": 74,
                    "time": 82.52616000000009,
                    "velocity": 0.5039370078740157,
                    "duration": 0.11461966666666967
                },
                {
                    "name": "D4",
                    "midi": 62,
                    "time": 82.64077966666676,
                    "velocity": 0.44881889763779526,
                    "duration": 0.11461966666666967
                },
                {
                    "name": "G4",
                    "midi": 67,
                    "time": 82.75539933333343,
                    "velocity": 0.3700787401574803,
                    "duration": 0.8023376666666735
                },
                {
                    "name": "D5",
                    "midi": 74,
                    "time": 82.75539933333343,
                    "velocity": 0.4409448818897638,
                    "duration": 0.630408166666669
                },
                {
                    "name": "D4",
                    "midi": 62,
                    "time": 82.8700190000001,
                    "velocity": 0.5118110236220472,
                    "duration": 0.3438589999999948
                },
                {
                    "name": "C#4",
                    "midi": 61,
                    "time": 83.2138780000001,
                    "velocity": 0.41732283464566927,
                    "duration": 0.343859000000009
                },
                {
                    "name": "C#5",
                    "midi": 73,
                    "time": 83.3858075000001,
                    "velocity": 0.4409448818897638,
                    "duration": 0.1719295000000045
                },
                {
                    "name": "A4",
                    "midi": 69,
                    "time": 83.5577370000001,
                    "velocity": 0.5354330708661418,
                    "duration": 0.1719295000000045
                },
                {
                    "name": "C#5",
                    "midi": 73,
                    "time": 83.7296665000001,
                    "velocity": 0.5511811023622047,
                    "duration": 0.1719295000000045
                },
                {
                    "name": "D5",
                    "midi": 74,
                    "time": 83.90159600000011,
                    "velocity": 0.5590551181102362,
                    "duration": 0.1719295000000045
                },
                {
                    "name": "F#4",
                    "midi": 66,
                    "time": 83.90159600000011,
                    "velocity": 0.47244094488188976,
                    "duration": 0.343859000000009
                },
                {
                    "name": "E5",
                    "midi": 76,
                    "time": 84.07352550000012,
                    "velocity": 0.5590551181102362,
                    "duration": 0.1719295000000045
                },
                {
                    "name": "F#5",
                    "midi": 78,
                    "time": 84.24545500000012,
                    "velocity": 0.5669291338582677,
                    "duration": 0.1719295000000045
                },
                {
                    "name": "F#4",
                    "midi": 66,
                    "time": 84.24545500000012,
                    "velocity": 0.48031496062992124,
                    "duration": 0.3438589999999948
                },
                {
                    "name": "G5",
                    "midi": 79,
                    "time": 84.41738450000013,
                    "velocity": 0.5748031496062992,
                    "duration": 0.08596475000000225
                },
                {
                    "name": "F#5",
                    "midi": 78,
                    "time": 84.50334925000013,
                    "velocity": 0.5511811023622047,
                    "duration": 0.04298237499999402
                },
                {
                    "name": "G5",
                    "midi": 79,
                    "time": 84.54633162500012,
                    "velocity": 0.5354330708661418,
                    "duration": 0.04298237499999402
                },
                {
                    "name": "F#5",
                    "midi": 78,
                    "time": 84.58931400000012,
                    "velocity": 0.5984251968503937,
                    "duration": 0.3438589999999948
                },
                {
                    "name": "G4",
                    "midi": 67,
                    "time": 84.93317300000011,
                    "velocity": 0.4881889763779528,
                    "duration": 0.343859000000009
                },
                {
                    "name": "E5",
                    "midi": 76,
                    "time": 84.93317300000011,
                    "velocity": 0.5826771653543307,
                    "duration": 0.1719295000000045
                },
                {
                    "name": "D5",
                    "midi": 74,
                    "time": 85.10510250000011,
                    "velocity": 0.5826771653543307,
                    "duration": 0.1719295000000045
                },
                {
                    "name": "G4",
                    "midi": 67,
                    "time": 85.27703200000012,
                    "velocity": 0.4881889763779528,
                    "duration": 0.343859000000009
                },
                {
                    "name": "C#5",
                    "midi": 73,
                    "time": 85.27703200000012,
                    "velocity": 0.5748031496062992,
                    "duration": 0.1719295000000045
                },
                {
                    "name": "B4",
                    "midi": 71,
                    "time": 85.44896150000012,
                    "velocity": 0.5669291338582677,
                    "duration": 0.1719295000000045
                },
                {
                    "name": "A4",
                    "midi": 69,
                    "time": 85.62089100000013,
                    "velocity": 0.5826771653543307,
                    "duration": 0.1719295000000045
                },
                {
                    "name": "D5",
                    "midi": 74,
                    "time": 85.79282050000013,
                    "velocity": 0.5511811023622047,
                    "duration": 0.1719295000000045
                },
                {
                    "name": "F#4",
                    "midi": 66,
                    "time": 85.96475000000014,
                    "velocity": 0.4881889763779528,
                    "duration": 0.343859000000009
                },
                {
                    "name": "D5",
                    "midi": 74,
                    "time": 85.96475000000014,
                    "velocity": 0.5826771653543307,
                    "duration": 0.11461966666666967
                },
                {
                    "name": "E5",
                    "midi": 76,
                    "time": 86.0793696666668,
                    "velocity": 0.5511811023622047,
                    "duration": 0.11461966666666967
                },
                {
                    "name": "D5",
                    "midi": 74,
                    "time": 86.19398933333348,
                    "velocity": 0.5511811023622047,
                    "duration": 0.11461966666666967
                },
                {
                    "name": "F#4",
                    "midi": 66,
                    "time": 86.30860900000015,
                    "velocity": 0.4645669291338583,
                    "duration": 0.343859000000009
                },
                {
                    "name": "C#5",
                    "midi": 73,
                    "time": 86.30860900000015,
                    "velocity": 0.5511811023622047,
                    "duration": 0.1719295000000045
                },
                {
                    "name": "B4",
                    "midi": 71,
                    "time": 86.48053850000015,
                    "velocity": 0.5511811023622047,
                    "duration": 0.1719295000000045
                },
                {
                    "name": "C#5",
                    "midi": 73,
                    "time": 86.65246800000016,
                    "velocity": 0.5748031496062992,
                    "duration": 1.0315769999999844
                },
                {
                    "name": "E4",
                    "midi": 64,
                    "time": 86.99632700000015,
                    "velocity": 0.3464566929133858,
                    "duration": 0.3438589999999948
                },
                {
                    "name": "A4",
                    "midi": 69,
                    "time": 86.99632700000015,
                    "velocity": 0.41732283464566927,
                    "duration": 0.3438589999999948
                },
                {
                    "name": "G4",
                    "midi": 67,
                    "time": 87.34018600000014,
                    "velocity": 0.44881889763779526,
                    "duration": 0.3438589999999948
                },
                {
                    "name": "A4",
                    "midi": 69,
                    "time": 87.34018600000014,
                    "velocity": 0.5354330708661418,
                    "duration": 0.3438589999999948
                },
                {
                    "name": "A4",
                    "midi": 69,
                    "time": 87.68404500000014,
                    "velocity": 0.5826771653543307,
                    "duration": 0.1719295000000045
                },
                {
                    "name": "C#5",
                    "midi": 73,
                    "time": 87.85597450000014,
                    "velocity": 0.5511811023622047,
                    "duration": 0.1719295000000045
                },
                {
                    "name": "D5",
                    "midi": 74,
                    "time": 88.02790400000015,
                    "velocity": 0.5590551181102362,
                    "duration": 0.1719295000000045
                },
                {
                    "name": "F#4",
                    "midi": 66,
                    "time": 88.02790400000015,
                    "velocity": 0.47244094488188976,
                    "duration": 0.343859000000009
                },
                {
                    "name": "E5",
                    "midi": 76,
                    "time": 88.19983350000015,
                    "velocity": 0.5590551181102362,
                    "duration": 0.1719295000000045
                },
                {
                    "name": "F#5",
                    "midi": 78,
                    "time": 88.37176300000016,
                    "velocity": 0.5669291338582677,
                    "duration": 0.1719295000000045
                },
                {
                    "name": "F#4",
                    "midi": 66,
                    "time": 88.37176300000016,
                    "velocity": 0.48031496062992124,
                    "duration": 0.3438589999999948
                },
                {
                    "name": "G5",
                    "midi": 79,
                    "time": 88.54369250000016,
                    "velocity": 0.5748031496062992,
                    "duration": 0.08596475000000225
                },
                {
                    "name": "F#5",
                    "midi": 78,
                    "time": 88.62965725000016,
                    "velocity": 0.5511811023622047,
                    "duration": 0.04298237499999402
                },
                {
                    "name": "G5",
                    "midi": 79,
                    "time": 88.67263962500016,
                    "velocity": 0.5354330708661418,
                    "duration": 0.04298237499999402
                },
                {
                    "name": "F#5",
                    "midi": 78,
                    "time": 88.71562200000015,
                    "velocity": 0.5984251968503937,
                    "duration": 0.3438589999999948
                },
                {
                    "name": "G4",
                    "midi": 67,
                    "time": 89.05948100000015,
                    "velocity": 0.4881889763779528,
                    "duration": 0.343859000000009
                },
                {
                    "name": "E5",
                    "midi": 76,
                    "time": 89.05948100000015,
                    "velocity": 0.5826771653543307,
                    "duration": 0.1719295000000045
                },
                {
                    "name": "D5",
                    "midi": 74,
                    "time": 89.23141050000015,
                    "velocity": 0.5826771653543307,
                    "duration": 0.1719295000000045
                },
                {
                    "name": "G4",
                    "midi": 67,
                    "time": 89.40334000000016,
                    "velocity": 0.4881889763779528,
                    "duration": 0.343859000000009
                },
                {
                    "name": "C#5",
                    "midi": 73,
                    "time": 89.40334000000016,
                    "velocity": 0.5748031496062992,
                    "duration": 0.1719295000000045
                },
                {
                    "name": "B4",
                    "midi": 71,
                    "time": 89.57526950000016,
                    "velocity": 0.5669291338582677,
                    "duration": 0.1719295000000045
                },
                {
                    "name": "A4",
                    "midi": 69,
                    "time": 89.74719900000017,
                    "velocity": 0.5826771653543307,
                    "duration": 0.1719295000000045
                },
                {
                    "name": "C#5",
                    "midi": 73,
                    "time": 89.91912850000017,
                    "velocity": 0.5511811023622047,
                    "duration": 0.1719295000000045
                },
                {
                    "name": "G4",
                    "midi": 67,
                    "time": 90.09105800000017,
                    "velocity": 0.4881889763779528,
                    "duration": 0.343859000000009
                },
                {
                    "name": "C#5",
                    "midi": 73,
                    "time": 90.09105800000017,
                    "velocity": 0.5826771653543307,
                    "duration": 0.11461966666666967
                },
                {
                    "name": "D5",
                    "midi": 74,
                    "time": 90.20567766666684,
                    "velocity": 0.5511811023622047,
                    "duration": 0.11461966666666967
                },
                {
                    "name": "C#5",
                    "midi": 73,
                    "time": 90.32029733333351,
                    "velocity": 0.5511811023622047,
                    "duration": 0.11461966666666967
                },
                {
                    "name": "G4",
                    "midi": 67,
                    "time": 90.43491700000018,
                    "velocity": 0.4645669291338583,
                    "duration": 0.343859000000009
                },
                {
                    "name": "B4",
                    "midi": 71,
                    "time": 90.43491700000018,
                    "velocity": 0.5511811023622047,
                    "duration": 0.1719295000000045
                },
                {
                    "name": "A4",
                    "midi": 69,
                    "time": 90.60684650000019,
                    "velocity": 0.5511811023622047,
                    "duration": 0.1719295000000045
                },
                {
                    "name": "D5",
                    "midi": 74,
                    "time": 90.77877600000019,
                    "velocity": 0.5748031496062992,
                    "duration": 1.0315769999999844
                },
                {
                    "name": "F#4",
                    "midi": 66,
                    "time": 91.12263500000019,
                    "velocity": 0.41732283464566927,
                    "duration": 0.3438589999999948
                },
                {
                    "name": "F#4",
                    "midi": 66,
                    "time": 91.46649400000018,
                    "velocity": 0.3700787401574803,
                    "duration": 0.6877180000000038
                },
                {
                    "name": "A4",
                    "midi": 69,
                    "time": 91.81035300000018,
                    "velocity": 0.31496062992125984,
                    "duration": 0.1719295000000045
                },
                {
                    "name": "C#5",
                    "midi": 73,
                    "time": 91.98228250000018,
                    "velocity": 0.30708661417322836,
                    "duration": 0.1719295000000045
                },
                {
                    "name": "D5",
                    "midi": 74,
                    "time": 92.15421200000019,
                    "velocity": 0.30708661417322836,
                    "duration": 0.1719295000000045
                },
                {
                    "name": "F#4",
                    "midi": 66,
                    "time": 92.15421200000019,
                    "velocity": 0.25984251968503935,
                    "duration": 0.343859000000009
                },
                {
                    "name": "E5",
                    "midi": 76,
                    "time": 92.32614150000019,
                    "velocity": 0.30708661417322836,
                    "duration": 0.1719295000000045
                },
                {
                    "name": "F#5",
                    "midi": 78,
                    "time": 92.4980710000002,
                    "velocity": 0.31496062992125984,
                    "duration": 0.1719295000000045
                },
                {
                    "name": "F#4",
                    "midi": 66,
                    "time": 92.4980710000002,
                    "velocity": 0.25984251968503935,
                    "duration": 0.3438589999999948
                },
                {
                    "name": "G5",
                    "midi": 79,
                    "time": 92.6700005000002,
                    "velocity": 0.31496062992125984,
                    "duration": 0.08596475000000225
                },
                {
                    "name": "F#5",
                    "midi": 78,
                    "time": 92.7559652500002,
                    "velocity": 0.30708661417322836,
                    "duration": 0.04298237499999402
                },
                {
                    "name": "G5",
                    "midi": 79,
                    "time": 92.7989476250002,
                    "velocity": 0.29133858267716534,
                    "duration": 0.04298237499999402
                },
                {
                    "name": "F#5",
                    "midi": 78,
                    "time": 92.84193000000019,
                    "velocity": 0.33070866141732286,
                    "duration": 0.3438589999999948
                },
                {
                    "name": "G4",
                    "midi": 67,
                    "time": 93.18578900000018,
                    "velocity": 0.2677165354330709,
                    "duration": 0.343859000000009
                },
                {
                    "name": "E5",
                    "midi": 76,
                    "time": 93.18578900000018,
                    "velocity": 0.31496062992125984,
                    "duration": 0.1719295000000045
                },
                {
                    "name": "D5",
                    "midi": 74,
                    "time": 93.35771850000019,
                    "velocity": 0.31496062992125984,
                    "duration": 0.1719295000000045
                },
                {
                    "name": "G4",
                    "midi": 67,
                    "time": 93.5296480000002,
                    "velocity": 0.2677165354330709,
                    "duration": 0.343859000000009
                },
                {
                    "name": "C#5",
                    "midi": 73,
                    "time": 93.5296480000002,
                    "velocity": 0.31496062992125984,
                    "duration": 0.1719295000000045
                },
                {
                    "name": "B4",
                    "midi": 71,
                    "time": 93.7015775000002,
                    "velocity": 0.31496062992125984,
                    "duration": 0.1719295000000045
                },
                {
                    "name": "A4",
                    "midi": 69,
                    "time": 93.8735070000002,
                    "velocity": 0.31496062992125984,
                    "duration": 0.1719295000000045
                },
                {
                    "name": "D5",
                    "midi": 74,
                    "time": 94.0454365000002,
                    "velocity": 0.30708661417322836,
                    "duration": 0.1719295000000045
                },
                {
                    "name": "F#4",
                    "midi": 66,
                    "time": 94.21736600000021,
                    "velocity": 0.2677165354330709,
                    "duration": 0.343859000000009
                },
                {
                    "name": "D5",
                    "midi": 74,
                    "time": 94.21736600000021,
                    "velocity": 0.31496062992125984,
                    "duration": 0.11461966666666967
                },
                {
                    "name": "E5",
                    "midi": 76,
                    "time": 94.33198566666688,
                    "velocity": 0.30708661417322836,
                    "duration": 0.11461966666666967
                },
                {
                    "name": "D5",
                    "midi": 74,
                    "time": 94.44660533333355,
                    "velocity": 0.30708661417322836,
                    "duration": 0.11461966666666967
                },
                {
                    "name": "F#4",
                    "midi": 66,
                    "time": 94.56122500000022,
                    "velocity": 0.25196850393700787,
                    "duration": 0.343859000000009
                },
                {
                    "name": "C#5",
                    "midi": 73,
                    "time": 94.56122500000022,
                    "velocity": 0.30708661417322836,
                    "duration": 0.1719295000000045
                },
                {
                    "name": "B4",
                    "midi": 71,
                    "time": 94.73315450000023,
                    "velocity": 0.30708661417322836,
                    "duration": 0.1719295000000045
                },
                {
                    "name": "C#5",
                    "midi": 73,
                    "time": 94.90508400000023,
                    "velocity": 0.31496062992125984,
                    "duration": 1.0315769999999844
                },
                {
                    "name": "E4",
                    "midi": 64,
                    "time": 95.24894300000022,
                    "velocity": 0.1889763779527559,
                    "duration": 0.3438589999999948
                },
                {
                    "name": "A4",
                    "midi": 69,
                    "time": 95.24894300000022,
                    "velocity": 0.2283464566929134,
                    "duration": 0.3438589999999948
                },
                {
                    "name": "G4",
                    "midi": 67,
                    "time": 95.59280200000022,
                    "velocity": 0.2440944881889764,
                    "duration": 0.3438589999999948
                },
                {
                    "name": "A4",
                    "midi": 69,
                    "time": 95.59280200000022,
                    "velocity": 0.29133858267716534,
                    "duration": 0.3438589999999948
                },
                {
                    "name": "A4",
                    "midi": 69,
                    "time": 95.93666100000021,
                    "velocity": 0.31496062992125984,
                    "duration": 0.1719295000000045
                },
                {
                    "name": "C#5",
                    "midi": 73,
                    "time": 96.10859050000022,
                    "velocity": 0.30708661417322836,
                    "duration": 0.1719295000000045
                },
                {
                    "name": "D5",
                    "midi": 74,
                    "time": 96.28052000000022,
                    "velocity": 0.30708661417322836,
                    "duration": 0.1719295000000045
                },
                {
                    "name": "F#4",
                    "midi": 66,
                    "time": 96.28052000000022,
                    "velocity": 0.25984251968503935,
                    "duration": 0.343859000000009
                },
                {
                    "name": "E5",
                    "midi": 76,
                    "time": 96.45244950000023,
                    "velocity": 0.30708661417322836,
                    "duration": 0.1719295000000045
                },
                {
                    "name": "F#5",
                    "midi": 78,
                    "time": 96.62437900000023,
                    "velocity": 0.31496062992125984,
                    "duration": 0.1719295000000045
                },
                {
                    "name": "F#4",
                    "midi": 66,
                    "time": 96.62437900000023,
                    "velocity": 0.25984251968503935,
                    "duration": 0.3438589999999948
                },
                {
                    "name": "G5",
                    "midi": 79,
                    "time": 96.79630850000024,
                    "velocity": 0.31496062992125984,
                    "duration": 0.08596475000000225
                },
                {
                    "name": "F#5",
                    "midi": 78,
                    "time": 96.88227325000024,
                    "velocity": 0.30708661417322836,
                    "duration": 0.04298237499999402
                },
                {
                    "name": "G5",
                    "midi": 79,
                    "time": 96.92525562500023,
                    "velocity": 0.29133858267716534,
                    "duration": 0.04298237499999402
                },
                {
                    "name": "F#5",
                    "midi": 78,
                    "time": 96.96823800000023,
                    "velocity": 0.33070866141732286,
                    "duration": 0.3438589999999948
                },
                {
                    "name": "G4",
                    "midi": 67,
                    "time": 97.31209700000022,
                    "velocity": 0.2677165354330709,
                    "duration": 0.343859000000009
                },
                {
                    "name": "E5",
                    "midi": 76,
                    "time": 97.31209700000022,
                    "velocity": 0.31496062992125984,
                    "duration": 0.1719295000000045
                },
                {
                    "name": "D5",
                    "midi": 74,
                    "time": 97.48402650000023,
                    "velocity": 0.31496062992125984,
                    "duration": 0.1719295000000045
                },
                {
                    "name": "G4",
                    "midi": 67,
                    "time": 97.65595600000023,
                    "velocity": 0.2677165354330709,
                    "duration": 0.343859000000009
                },
                {
                    "name": "C#5",
                    "midi": 73,
                    "time": 97.65595600000023,
                    "velocity": 0.31496062992125984,
                    "duration": 0.1719295000000045
                },
                {
                    "name": "B4",
                    "midi": 71,
                    "time": 97.82788550000024,
                    "velocity": 0.31496062992125984,
                    "duration": 0.1719295000000045
                },
                {
                    "name": "A4",
                    "midi": 69,
                    "time": 97.99981500000024,
                    "velocity": 0.31496062992125984,
                    "duration": 0.1719295000000045
                },
                {
                    "name": "C#5",
                    "midi": 73,
                    "time": 98.17174450000024,
                    "velocity": 0.30708661417322836,
                    "duration": 0.1719295000000045
                },
                {
                    "name": "G4",
                    "midi": 67,
                    "time": 98.34367400000025,
                    "velocity": 0.2677165354330709,
                    "duration": 0.343859000000009
                },
                {
                    "name": "C#5",
                    "midi": 73,
                    "time": 98.34367400000025,
                    "velocity": 0.31496062992125984,
                    "duration": 0.11461966666666967
                },
                {
                    "name": "D5",
                    "midi": 74,
                    "time": 98.45829366666692,
                    "velocity": 0.30708661417322836,
                    "duration": 0.11461966666666967
                },
                {
                    "name": "C#5",
                    "midi": 73,
                    "time": 98.57291333333359,
                    "velocity": 0.30708661417322836,
                    "duration": 0.11461966666666967
                },
                {
                    "name": "G4",
                    "midi": 67,
                    "time": 98.68753300000026,
                    "velocity": 0.25196850393700787,
                    "duration": 0.343859000000009
                },
                {
                    "name": "B4",
                    "midi": 71,
                    "time": 98.68753300000026,
                    "velocity": 0.30708661417322836,
                    "duration": 0.1719295000000045
                },
                {
                    "name": "A4",
                    "midi": 69,
                    "time": 98.85946250000026,
                    "velocity": 0.30708661417322836,
                    "duration": 0.1719295000000045
                },
                {
                    "name": "D5",
                    "midi": 74,
                    "time": 99.03139200000027,
                    "velocity": 0.31496062992125984,
                    "duration": 1.0315769999999844
                },
                {
                    "name": "F#4",
                    "midi": 66,
                    "time": 99.37525100000026,
                    "velocity": 0.2283464566929134,
                    "duration": 0.3438589999999948
                },
                {
                    "name": "F#4",
                    "midi": 66,
                    "time": 99.71911000000026,
                    "velocity": 0.29133858267716534,
                    "duration": 0.3438589999999948
                },
                {
                    "name": "E4",
                    "midi": 64,
                    "time": 100.06296900000025,
                    "velocity": 0.5748031496062992,
                    "duration": 0.1719295000000045
                },
                {
                    "name": "G#4",
                    "midi": 68,
                    "time": 100.23489850000026,
                    "velocity": 0.5511811023622047,
                    "duration": 0.1719295000000045
                },
                {
                    "name": "A4",
                    "midi": 69,
                    "time": 100.40682800000026,
                    "velocity": 0.5590551181102362,
                    "duration": 0.1719295000000045
                },
                {
                    "name": "C#4",
                    "midi": 61,
                    "time": 100.40682800000026,
                    "velocity": 0.47244094488188976,
                    "duration": 0.343859000000009
                },
                {
                    "name": "B4",
                    "midi": 71,
                    "time": 100.57875750000026,
                    "velocity": 0.5590551181102362,
                    "duration": 0.1719295000000045
                },
                {
                    "name": "C#5",
                    "midi": 73,
                    "time": 100.75068700000027,
                    "velocity": 0.5669291338582677,
                    "duration": 0.1719295000000045
                },
                {
                    "name": "C#4",
                    "midi": 61,
                    "time": 100.75068700000027,
                    "velocity": 0.48031496062992124,
                    "duration": 0.3438589999999948
                },
                {
                    "name": "D5",
                    "midi": 74,
                    "time": 100.92261650000027,
                    "velocity": 0.5748031496062992,
                    "duration": 0.08596475000000225
                },
                {
                    "name": "C#5",
                    "midi": 73,
                    "time": 101.00858125000028,
                    "velocity": 0.5511811023622047,
                    "duration": 0.04298237499999402
                },
                {
                    "name": "D5",
                    "midi": 74,
                    "time": 101.05156362500027,
                    "velocity": 0.5354330708661418,
                    "duration": 0.04298237499999402
                },
                {
                    "name": "C#5",
                    "midi": 73,
                    "time": 101.09454600000026,
                    "velocity": 0.5984251968503937,
                    "duration": 0.3438589999999948
                },
                {
                    "name": "D4",
                    "midi": 62,
                    "time": 101.43840500000026,
                    "velocity": 0.4881889763779528,
                    "duration": 0.343859000000009
                },
                {
                    "name": "B4",
                    "midi": 71,
                    "time": 101.43840500000026,
                    "velocity": 0.5826771653543307,
                    "duration": 0.1719295000000045
                },
                {
                    "name": "A4",
                    "midi": 69,
                    "time": 101.61033450000026,
                    "velocity": 0.5826771653543307,
                    "duration": 0.1719295000000045
                },
                {
                    "name": "D4",
                    "midi": 62,
                    "time": 101.78226400000027,
                    "velocity": 0.4881889763779528,
                    "duration": 0.343859000000009
                },
                {
                    "name": "G#4",
                    "midi": 68,
                    "time": 101.78226400000027,
                    "velocity": 0.5748031496062992,
                    "duration": 0.1719295000000045
                },
                {
                    "name": "F#4",
                    "midi": 66,
                    "time": 101.95419350000027,
                    "velocity": 0.5669291338582677,
                    "duration": 0.1719295000000045
                },
                {
                    "name": "E4",
                    "midi": 64,
                    "time": 102.12612300000028,
                    "velocity": 0.5826771653543307,
                    "duration": 0.1719295000000045
                },
                {
                    "name": "A4",
                    "midi": 69,
                    "time": 102.29805250000028,
                    "velocity": 0.5511811023622047,
                    "duration": 0.1719295000000045
                },
                {
                    "name": "C#4",
                    "midi": 61,
                    "time": 102.46998200000029,
                    "velocity": 0.4881889763779528,
                    "duration": 0.343859000000009
                },
                {
                    "name": "A4",
                    "midi": 69,
                    "time": 102.46998200000029,
                    "velocity": 0.5826771653543307,
                    "duration": 0.11461966666666967
                },
                {
                    "name": "B4",
                    "midi": 71,
                    "time": 102.58460166666696,
                    "velocity": 0.5511811023622047,
                    "duration": 0.11461966666666967
                },
                {
                    "name": "A4",
                    "midi": 69,
                    "time": 102.69922133333363,
                    "velocity": 0.5511811023622047,
                    "duration": 0.11461966666666967
                },
                {
                    "name": "C#4",
                    "midi": 61,
                    "time": 102.8138410000003,
                    "velocity": 0.4645669291338583,
                    "duration": 0.343859000000009
                },
                {
                    "name": "G#4",
                    "midi": 68,
                    "time": 102.8138410000003,
                    "velocity": 0.5511811023622047,
                    "duration": 0.1719295000000045
                },
                {
                    "name": "F#4",
                    "midi": 66,
                    "time": 102.9857705000003,
                    "velocity": 0.5511811023622047,
                    "duration": 0.1719295000000045
                },
                {
                    "name": "G#4",
                    "midi": 68,
                    "time": 103.1577000000003,
                    "velocity": 0.5748031496062992,
                    "duration": 1.0315769999999844
                },
                {
                    "name": "B3",
                    "midi": 59,
                    "time": 103.5015590000003,
                    "velocity": 0.3464566929133858,
                    "duration": 0.3438589999999948
                },
                {
                    "name": "E4",
                    "midi": 64,
                    "time": 103.5015590000003,
                    "velocity": 0.41732283464566927,
                    "duration": 0.3438589999999948
                },
                {
                    "name": "D4",
                    "midi": 62,
                    "time": 103.8454180000003,
                    "velocity": 0.44881889763779526,
                    "duration": 0.3438589999999948
                },
                {
                    "name": "E4",
                    "midi": 64,
                    "time": 103.8454180000003,
                    "velocity": 0.5354330708661418,
                    "duration": 0.3438589999999948
                },
                {
                    "name": "E4",
                    "midi": 64,
                    "time": 104.18927700000029,
                    "velocity": 0.5826771653543307,
                    "duration": 0.1719295000000045
                },
                {
                    "name": "G#4",
                    "midi": 68,
                    "time": 104.36120650000029,
                    "velocity": 0.5511811023622047,
                    "duration": 0.1719295000000045
                },
                {
                    "name": "A4",
                    "midi": 69,
                    "time": 104.5331360000003,
                    "velocity": 0.5590551181102362,
                    "duration": 0.1719295000000045
                },
                {
                    "name": "C#4",
                    "midi": 61,
                    "time": 104.5331360000003,
                    "velocity": 0.47244094488188976,
                    "duration": 0.343859000000009
                },
                {
                    "name": "B4",
                    "midi": 71,
                    "time": 104.7050655000003,
                    "velocity": 0.5590551181102362,
                    "duration": 0.1719295000000045
                },
                {
                    "name": "C#5",
                    "midi": 73,
                    "time": 104.8769950000003,
                    "velocity": 0.5669291338582677,
                    "duration": 0.1719295000000045
                },
                {
                    "name": "C#4",
                    "midi": 61,
                    "time": 104.8769950000003,
                    "velocity": 0.48031496062992124,
                    "duration": 0.3438589999999948
                },
                {
                    "name": "D5",
                    "midi": 74,
                    "time": 105.04892450000031,
                    "velocity": 0.5748031496062992,
                    "duration": 0.08596475000000225
                },
                {
                    "name": "C#5",
                    "midi": 73,
                    "time": 105.13488925000031,
                    "velocity": 0.5511811023622047,
                    "duration": 0.04298237499999402
                },
                {
                    "name": "D5",
                    "midi": 74,
                    "time": 105.17787162500031,
                    "velocity": 0.5354330708661418,
                    "duration": 0.04298237499999402
                },
                {
                    "name": "C#5",
                    "midi": 73,
                    "time": 105.2208540000003,
                    "velocity": 0.5984251968503937,
                    "duration": 0.3438589999999948
                },
                {
                    "name": "D4",
                    "midi": 62,
                    "time": 105.5647130000003,
                    "velocity": 0.4881889763779528,
                    "duration": 0.343859000000009
                },
                {
                    "name": "B4",
                    "midi": 71,
                    "time": 105.5647130000003,
                    "velocity": 0.5826771653543307,
                    "duration": 0.1719295000000045
                },
                {
                    "name": "A4",
                    "midi": 69,
                    "time": 105.7366425000003,
                    "velocity": 0.5826771653543307,
                    "duration": 0.1719295000000045
                },
                {
                    "name": "D4",
                    "midi": 62,
                    "time": 105.9085720000003,
                    "velocity": 0.4881889763779528,
                    "duration": 0.343859000000009
                },
                {
                    "name": "G#4",
                    "midi": 68,
                    "time": 105.9085720000003,
                    "velocity": 0.5748031496062992,
                    "duration": 0.1719295000000045
                },
                {
                    "name": "F#4",
                    "midi": 66,
                    "time": 106.08050150000031,
                    "velocity": 0.5669291338582677,
                    "duration": 0.1719295000000045
                },
                {
                    "name": "E4",
                    "midi": 64,
                    "time": 106.25243100000031,
                    "velocity": 0.5826771653543307,
                    "duration": 0.1719295000000045
                },
                {
                    "name": "G#4",
                    "midi": 68,
                    "time": 106.42436050000032,
                    "velocity": 0.5511811023622047,
                    "duration": 0.1719295000000045
                },
                {
                    "name": "D4",
                    "midi": 62,
                    "time": 106.59629000000032,
                    "velocity": 0.4881889763779528,
                    "duration": 0.343859000000009
                },
                {
                    "name": "G#4",
                    "midi": 68,
                    "time": 106.59629000000032,
                    "velocity": 0.5826771653543307,
                    "duration": 0.11461966666666967
                },
                {
                    "name": "A4",
                    "midi": 69,
                    "time": 106.71090966666699,
                    "velocity": 0.5511811023622047,
                    "duration": 0.11461966666666967
                },
                {
                    "name": "G#4",
                    "midi": 68,
                    "time": 106.82552933333366,
                    "velocity": 0.5511811023622047,
                    "duration": 0.11461966666666967
                },
                {
                    "name": "D4",
                    "midi": 62,
                    "time": 106.94014900000033,
                    "velocity": 0.4645669291338583,
                    "duration": 0.343859000000009
                },
                {
                    "name": "F#4",
                    "midi": 66,
                    "time": 106.94014900000033,
                    "velocity": 0.5511811023622047,
                    "duration": 0.1719295000000045
                },
                {
                    "name": "E4",
                    "midi": 64,
                    "time": 107.11207850000034,
                    "velocity": 0.5511811023622047,
                    "duration": 0.1719295000000045
                },
                {
                    "name": "A4",
                    "midi": 69,
                    "time": 107.28400800000034,
                    "velocity": 0.5748031496062992,
                    "duration": 1.0315769999999844
                },
                {
                    "name": "C#4",
                    "midi": 61,
                    "time": 107.62786700000034,
                    "velocity": 0.41732283464566927,
                    "duration": 0.3438589999999948
                },
                {
                    "name": "C#4",
                    "midi": 61,
                    "time": 107.97172600000033,
                    "velocity": 0.3700787401574803,
                    "duration": 0.6877180000000038
                },
                {
                    "name": "E4",
                    "midi": 64,
                    "time": 108.31558500000033,
                    "velocity": 0.31496062992125984,
                    "duration": 0.1719295000000045
                },
                {
                    "name": "G#4",
                    "midi": 68,
                    "time": 108.48751450000033,
                    "velocity": 0.30708661417322836,
                    "duration": 0.1719295000000045
                },
                {
                    "name": "A4",
                    "midi": 69,
                    "time": 108.65944400000033,
                    "velocity": 0.30708661417322836,
                    "duration": 0.1719295000000045
                },
                {
                    "name": "C#4",
                    "midi": 61,
                    "time": 108.65944400000033,
                    "velocity": 0.25984251968503935,
                    "duration": 0.343859000000009
                },
                {
                    "name": "B4",
                    "midi": 71,
                    "time": 108.83137350000034,
                    "velocity": 0.30708661417322836,
                    "duration": 0.1719295000000045
                },
                {
                    "name": "C#5",
                    "midi": 73,
                    "time": 109.00330300000034,
                    "velocity": 0.31496062992125984,
                    "duration": 0.1719295000000045
                },
                {
                    "name": "C#4",
                    "midi": 61,
                    "time": 109.00330300000034,
                    "velocity": 0.25984251968503935,
                    "duration": 0.3438589999999948
                },
                {
                    "name": "D5",
                    "midi": 74,
                    "time": 109.17523250000035,
                    "velocity": 0.31496062992125984,
                    "duration": 0.08596475000000225
                },
                {
                    "name": "C#5",
                    "midi": 73,
                    "time": 109.26119725000035,
                    "velocity": 0.30708661417322836,
                    "duration": 0.04298237499999402
                },
                {
                    "name": "D5",
                    "midi": 74,
                    "time": 109.30417962500034,
                    "velocity": 0.29133858267716534,
                    "duration": 0.04298237499999402
                },
                {
                    "name": "C#5",
                    "midi": 73,
                    "time": 109.34716200000034,
                    "velocity": 0.33070866141732286,
                    "duration": 0.3438589999999948
                },
                {
                    "name": "D4",
                    "midi": 62,
                    "time": 109.69102100000033,
                    "velocity": 0.2677165354330709,
                    "duration": 0.343859000000009
                },
                {
                    "name": "B4",
                    "midi": 71,
                    "time": 109.69102100000033,
                    "velocity": 0.31496062992125984,
                    "duration": 0.1719295000000045
                },
                {
                    "name": "A4",
                    "midi": 69,
                    "time": 109.86295050000034,
                    "velocity": 0.31496062992125984,
                    "duration": 0.1719295000000045
                },
                {
                    "name": "D4",
                    "midi": 62,
                    "time": 110.03488000000034,
                    "velocity": 0.2677165354330709,
                    "duration": 0.343859000000009
                },
                {
                    "name": "G#4",
                    "midi": 68,
                    "time": 110.03488000000034,
                    "velocity": 0.31496062992125984,
                    "duration": 0.1719295000000045
                },
                {
                    "name": "F#4",
                    "midi": 66,
                    "time": 110.20680950000035,
                    "velocity": 0.31496062992125984,
                    "duration": 0.1719295000000045
                },
                {
                    "name": "E4",
                    "midi": 64,
                    "time": 110.37873900000035,
                    "velocity": 0.31496062992125984,
                    "duration": 0.1719295000000045
                },
                {
                    "name": "A4",
                    "midi": 69,
                    "time": 110.55066850000036,
                    "velocity": 0.30708661417322836,
                    "duration": 0.1719295000000045
                },
                {
                    "name": "C#4",
                    "midi": 61,
                    "time": 110.72259800000036,
                    "velocity": 0.2677165354330709,
                    "duration": 0.343859000000009
                },
                {
                    "name": "A4",
                    "midi": 69,
                    "time": 110.72259800000036,
                    "velocity": 0.31496062992125984,
                    "duration": 0.11461966666666967
                },
                {
                    "name": "B4",
                    "midi": 71,
                    "time": 110.83721766666703,
                    "velocity": 0.30708661417322836,
                    "duration": 0.11461966666666967
                },
                {
                    "name": "A4",
                    "midi": 69,
                    "time": 110.9518373333337,
                    "velocity": 0.30708661417322836,
                    "duration": 0.11461966666666967
                },
                {
                    "name": "C#4",
                    "midi": 61,
                    "time": 111.06645700000037,
                    "velocity": 0.25196850393700787,
                    "duration": 0.343859000000009
                },
                {
                    "name": "G#4",
                    "midi": 68,
                    "time": 111.06645700000037,
                    "velocity": 0.30708661417322836,
                    "duration": 0.1719295000000045
                },
                {
                    "name": "F#4",
                    "midi": 66,
                    "time": 111.23838650000037,
                    "velocity": 0.30708661417322836,
                    "duration": 0.1719295000000045
                },
                {
                    "name": "G#4",
                    "midi": 68,
                    "time": 111.41031600000038,
                    "velocity": 0.31496062992125984,
                    "duration": 1.0315769999999844
                },
                {
                    "name": "B3",
                    "midi": 59,
                    "time": 111.75417500000037,
                    "velocity": 0.1889763779527559,
                    "duration": 0.3438589999999948
                },
                {
                    "name": "E4",
                    "midi": 64,
                    "time": 111.75417500000037,
                    "velocity": 0.2283464566929134,
                    "duration": 0.3438589999999948
                },
                {
                    "name": "D4",
                    "midi": 62,
                    "time": 112.09803400000037,
                    "velocity": 0.2440944881889764,
                    "duration": 0.3438589999999948
                },
                {
                    "name": "E4",
                    "midi": 64,
                    "time": 112.09803400000037,
                    "velocity": 0.29133858267716534,
                    "duration": 0.3438589999999948
                },
                {
                    "name": "E4",
                    "midi": 64,
                    "time": 112.44189300000036,
                    "velocity": 0.31496062992125984,
                    "duration": 0.1719295000000045
                },
                {
                    "name": "G#4",
                    "midi": 68,
                    "time": 112.61382250000037,
                    "velocity": 0.30708661417322836,
                    "duration": 0.1719295000000045
                },
                {
                    "name": "A4",
                    "midi": 69,
                    "time": 112.78575200000037,
                    "velocity": 0.30708661417322836,
                    "duration": 0.1719295000000045
                },
                {
                    "name": "C#4",
                    "midi": 61,
                    "time": 112.78575200000037,
                    "velocity": 0.25984251968503935,
                    "duration": 0.343859000000009
                },
                {
                    "name": "B4",
                    "midi": 71,
                    "time": 112.95768150000038,
                    "velocity": 0.30708661417322836,
                    "duration": 0.1719295000000045
                },
                {
                    "name": "C#5",
                    "midi": 73,
                    "time": 113.12961100000038,
                    "velocity": 0.31496062992125984,
                    "duration": 0.1719295000000045
                },
                {
                    "name": "C#4",
                    "midi": 61,
                    "time": 113.12961100000038,
                    "velocity": 0.25984251968503935,
                    "duration": 0.3438589999999948
                },
                {
                    "name": "D5",
                    "midi": 74,
                    "time": 113.30154050000039,
                    "velocity": 0.31496062992125984,
                    "duration": 0.08596475000000225
                },
                {
                    "name": "C#5",
                    "midi": 73,
                    "time": 113.38750525000039,
                    "velocity": 0.30708661417322836,
                    "duration": 0.04298237499999402
                },
                {
                    "name": "D5",
                    "midi": 74,
                    "time": 113.43048762500038,
                    "velocity": 0.29133858267716534,
                    "duration": 0.04298237499999402
                },
                {
                    "name": "C#5",
                    "midi": 73,
                    "time": 113.47347000000038,
                    "velocity": 0.33070866141732286,
                    "duration": 0.3438589999999948
                },
                {
                    "name": "D4",
                    "midi": 62,
                    "time": 113.81732900000037,
                    "velocity": 0.2677165354330709,
                    "duration": 0.343859000000009
                },
                {
                    "name": "B4",
                    "midi": 71,
                    "time": 113.81732900000037,
                    "velocity": 0.31496062992125984,
                    "duration": 0.1719295000000045
                },
                {
                    "name": "A4",
                    "midi": 69,
                    "time": 113.98925850000037,
                    "velocity": 0.31496062992125984,
                    "duration": 0.1719295000000045
                },
                {
                    "name": "D4",
                    "midi": 62,
                    "time": 114.16118800000038,
                    "velocity": 0.2677165354330709,
                    "duration": 0.343859000000009
                },
                {
                    "name": "G#4",
                    "midi": 68,
                    "time": 114.16118800000038,
                    "velocity": 0.31496062992125984,
                    "duration": 0.1719295000000045
                },
                {
                    "name": "F#4",
                    "midi": 66,
                    "time": 114.33311750000038,
                    "velocity": 0.31496062992125984,
                    "duration": 0.1719295000000045
                },
                {
                    "name": "E4",
                    "midi": 64,
                    "time": 114.50504700000039,
                    "velocity": 0.31496062992125984,
                    "duration": 0.1719295000000045
                },
                {
                    "name": "G#4",
                    "midi": 68,
                    "time": 114.67697650000039,
                    "velocity": 0.30708661417322836,
                    "duration": 0.1719295000000045
                },
                {
                    "name": "D4",
                    "midi": 62,
                    "time": 114.8489060000004,
                    "velocity": 0.2677165354330709,
                    "duration": 0.343859000000009
                },
                {
                    "name": "G#4",
                    "midi": 68,
                    "time": 114.8489060000004,
                    "velocity": 0.31496062992125984,
                    "duration": 0.11461966666666967
                },
                {
                    "name": "A4",
                    "midi": 69,
                    "time": 114.96352566666707,
                    "velocity": 0.30708661417322836,
                    "duration": 0.11461966666666967
                },
                {
                    "name": "G#4",
                    "midi": 68,
                    "time": 115.07814533333374,
                    "velocity": 0.30708661417322836,
                    "duration": 0.11461966666666967
                },
                {
                    "name": "D4",
                    "midi": 62,
                    "time": 115.1927650000004,
                    "velocity": 0.25196850393700787,
                    "duration": 0.343859000000009
                },
                {
                    "name": "F#4",
                    "midi": 66,
                    "time": 115.1927650000004,
                    "velocity": 0.30708661417322836,
                    "duration": 0.1719295000000045
                },
                {
                    "name": "E4",
                    "midi": 64,
                    "time": 115.36469450000041,
                    "velocity": 0.30708661417322836,
                    "duration": 0.1719295000000045
                },
                {
                    "name": "A4",
                    "midi": 69,
                    "time": 115.53662400000042,
                    "velocity": 0.31496062992125984,
                    "duration": 1.203506499999989
                },
                {
                    "name": "C#4",
                    "midi": 61,
                    "time": 115.88048300000041,
                    "velocity": 0.29133858267716534,
                    "duration": 0.3438589999999948
                },
                {
                    "name": "G4",
                    "midi": 67,
                    "time": 116.2243420000004,
                    "velocity": 0.5748031496062992,
                    "duration": 0.3438589999999948
                },
                {
                    "name": "C#4",
                    "midi": 61,
                    "time": 116.2243420000004,
                    "velocity": 0.5748031496062992,
                    "duration": 0.3438589999999948
                },
                {
                    "name": "F#4",
                    "midi": 66,
                    "time": 116.5682010000004,
                    "velocity": 0.6141732283464567,
                    "duration": 0.343859000000009
                },
                {
                    "name": "C#5",
                    "midi": 73,
                    "time": 116.7401305000004,
                    "velocity": 0.6299212598425197,
                    "duration": 0.1719295000000045
                },
                {
                    "name": "D5",
                    "midi": 74,
                    "time": 116.91206000000041,
                    "velocity": 0.6377952755905512,
                    "duration": 0.1719295000000045
                },
                {
                    "name": "F#4",
                    "midi": 66,
                    "time": 116.91206000000041,
                    "velocity": 0.5433070866141733,
                    "duration": 0.343859000000009
                },
                {
                    "name": "E5",
                    "midi": 76,
                    "time": 117.08398950000041,
                    "velocity": 0.6377952755905512,
                    "duration": 0.1719295000000045
                },
                {
                    "name": "F#5",
                    "midi": 78,
                    "time": 117.25591900000042,
                    "velocity": 0.6456692913385826,
                    "duration": 0.1719295000000045
                },
                {
                    "name": "F#4",
                    "midi": 66,
                    "time": 117.25591900000042,
                    "velocity": 0.5511811023622047,
                    "duration": 0.3438589999999948
                },
                {
                    "name": "G5",
                    "midi": 79,
                    "time": 117.42784850000042,
                    "velocity": 0.6535433070866141,
                    "duration": 0.08596475000000225
                },
                {
                    "name": "F#5",
                    "midi": 78,
                    "time": 117.51381325000042,
                    "velocity": 0.6299212598425197,
                    "duration": 0.04298237499999402
                },
                {
                    "name": "G5",
                    "midi": 79,
                    "time": 117.55679562500042,
                    "velocity": 0.6141732283464567,
                    "duration": 0.04298237499999402
                },
                {
                    "name": "F#5",
                    "midi": 78,
                    "time": 117.59977800000041,
                    "velocity": 0.6850393700787402,
                    "duration": 0.3438589999999948
                },
                {
                    "name": "G4",
                    "midi": 67,
                    "time": 117.94363700000041,
                    "velocity": 0.5590551181102362,
                    "duration": 0.343859000000009
                },
                {
                    "name": "E5",
                    "midi": 76,
                    "time": 117.94363700000041,
                    "velocity": 0.6692913385826772,
                    "duration": 0.1719295000000045
                },
                {
                    "name": "D5",
                    "midi": 74,
                    "time": 118.11556650000041,
                    "velocity": 0.6692913385826772,
                    "duration": 0.1719295000000045
                },
                {
                    "name": "G4",
                    "midi": 67,
                    "time": 118.28749600000042,
                    "velocity": 0.5590551181102362,
                    "duration": 0.343859000000009
                },
                {
                    "name": "C#5",
                    "midi": 73,
                    "time": 118.28749600000042,
                    "velocity": 0.6535433070866141,
                    "duration": 0.1719295000000045
                },
                {
                    "name": "B4",
                    "midi": 71,
                    "time": 118.45942550000042,
                    "velocity": 0.6456692913385826,
                    "duration": 0.1719295000000045
                },
                {
                    "name": "A4",
                    "midi": 69,
                    "time": 118.63135500000043,
                    "velocity": 0.6692913385826772,
                    "duration": 0.1719295000000045
                },
                {
                    "name": "D5",
                    "midi": 74,
                    "time": 118.80328450000043,
                    "velocity": 0.6299212598425197,
                    "duration": 0.1719295000000045
                },
                {
                    "name": "F#4",
                    "midi": 66,
                    "time": 118.97521400000043,
                    "velocity": 0.5590551181102362,
                    "duration": 0.343859000000009
                },
                {
                    "name": "D5",
                    "midi": 74,
                    "time": 118.97521400000043,
                    "velocity": 0.6692913385826772,
                    "duration": 0.11461966666666967
                },
                {
                    "name": "E5",
                    "midi": 76,
                    "time": 119.0898336666671,
                    "velocity": 0.6299212598425197,
                    "duration": 0.11461966666666967
                },
                {
                    "name": "D5",
                    "midi": 74,
                    "time": 119.20445333333377,
                    "velocity": 0.6299212598425197,
                    "duration": 0.11461966666666967
                },
                {
                    "name": "F#4",
                    "midi": 66,
                    "time": 119.31907300000044,
                    "velocity": 0.5275590551181102,
                    "duration": 0.343859000000009
                },
                {
                    "name": "C#5",
                    "midi": 73,
                    "time": 119.31907300000044,
                    "velocity": 0.6299212598425197,
                    "duration": 0.1719295000000045
                },
                {
                    "name": "B4",
                    "midi": 71,
                    "time": 119.49100250000045,
                    "velocity": 0.6299212598425197,
                    "duration": 0.1719295000000045
                },
                {
                    "name": "C#5",
                    "midi": 73,
                    "time": 119.66293200000045,
                    "velocity": 0.6535433070866141,
                    "duration": 1.0315769999999844
                },
                {
                    "name": "E4",
                    "midi": 64,
                    "time": 120.00679100000045,
                    "velocity": 0.3937007874015748,
                    "duration": 0.3438589999999948
                },
                {
                    "name": "A4",
                    "midi": 69,
                    "time": 120.00679100000045,
                    "velocity": 0.47244094488188976,
                    "duration": 0.3438589999999948
                },
                {
                    "name": "G4",
                    "midi": 67,
                    "time": 120.35065000000044,
                    "velocity": 0.5118110236220472,
                    "duration": 0.3438589999999948
                },
                {
                    "name": "A4",
                    "midi": 69,
                    "time": 120.35065000000044,
                    "velocity": 0.6141732283464567,
                    "duration": 0.3438589999999948
                },
                {
                    "name": "A4",
                    "midi": 69,
                    "time": 120.69450900000044,
                    "velocity": 0.6692913385826772,
                    "duration": 0.1719295000000045
                },
                {
                    "name": "C#5",
                    "midi": 73,
                    "time": 120.86643850000044,
                    "velocity": 0.6299212598425197,
                    "duration": 0.1719295000000045
                },
                {
                    "name": "D5",
                    "midi": 74,
                    "time": 121.03836800000045,
                    "velocity": 0.6377952755905512,
                    "duration": 0.1719295000000045
                },
                {
                    "name": "F#4",
                    "midi": 66,
                    "time": 121.03836800000045,
                    "velocity": 0.5433070866141733,
                    "duration": 0.343859000000009
                },
                {
                    "name": "E5",
                    "midi": 76,
                    "time": 121.21029750000045,
                    "velocity": 0.6377952755905512,
                    "duration": 0.1719295000000045
                },
                {
                    "name": "F#5",
                    "midi": 78,
                    "time": 121.38222700000046,
                    "velocity": 0.6456692913385826,
                    "duration": 0.1719295000000045
                },
                {
                    "name": "F#4",
                    "midi": 66,
                    "time": 121.38222700000046,
                    "velocity": 0.5511811023622047,
                    "duration": 0.3438589999999948
                },
                {
                    "name": "G5",
                    "midi": 79,
                    "time": 121.55415650000046,
                    "velocity": 0.6535433070866141,
                    "duration": 0.08596475000000225
                },
                {
                    "name": "F#5",
                    "midi": 78,
                    "time": 121.64012125000046,
                    "velocity": 0.6299212598425197,
                    "duration": 0.04298237499999402
                },
                {
                    "name": "G5",
                    "midi": 79,
                    "time": 121.68310362500046,
                    "velocity": 0.6141732283464567,
                    "duration": 0.04298237499999402
                },
                {
                    "name": "F#5",
                    "midi": 78,
                    "time": 121.72608600000045,
                    "velocity": 0.6850393700787402,
                    "duration": 0.3438589999999948
                },
                {
                    "name": "G4",
                    "midi": 67,
                    "time": 122.06994500000044,
                    "velocity": 0.5590551181102362,
                    "duration": 0.343859000000009
                },
                {
                    "name": "E5",
                    "midi": 76,
                    "time": 122.06994500000044,
                    "velocity": 0.6692913385826772,
                    "duration": 0.1719295000000045
                },
                {
                    "name": "D5",
                    "midi": 74,
                    "time": 122.24187450000045,
                    "velocity": 0.6692913385826772,
                    "duration": 0.1719295000000045
                },
                {
                    "name": "G4",
                    "midi": 67,
                    "time": 122.41380400000045,
                    "velocity": 0.5590551181102362,
                    "duration": 0.343859000000009
                },
                {
                    "name": "C#5",
                    "midi": 73,
                    "time": 122.41380400000045,
                    "velocity": 0.6535433070866141,
                    "duration": 0.1719295000000045
                },
                {
                    "name": "B4",
                    "midi": 71,
                    "time": 122.58573350000046,
                    "velocity": 0.6456692913385826,
                    "duration": 0.1719295000000045
                },
                {
                    "name": "A4",
                    "midi": 69,
                    "time": 122.75766300000046,
                    "velocity": 0.6692913385826772,
                    "duration": 0.1719295000000045
                },
                {
                    "name": "C#5",
                    "midi": 73,
                    "time": 122.92959250000047,
                    "velocity": 0.6299212598425197,
                    "duration": 0.1719295000000045
                },
                {
                    "name": "G4",
                    "midi": 67,
                    "time": 123.10152200000047,
                    "velocity": 0.5590551181102362,
                    "duration": 0.343859000000009
                },
                {
                    "name": "C#5",
                    "midi": 73,
                    "time": 123.10152200000047,
                    "velocity": 0.6692913385826772,
                    "duration": 0.11461966666666967
                },
                {
                    "name": "D5",
                    "midi": 74,
                    "time": 123.21614166666714,
                    "velocity": 0.6299212598425197,
                    "duration": 0.11461966666666967
                },
                {
                    "name": "C#5",
                    "midi": 73,
                    "time": 123.33076133333381,
                    "velocity": 0.6299212598425197,
                    "duration": 0.11461966666666967
                },
                {
                    "name": "G4",
                    "midi": 67,
                    "time": 123.44538100000048,
                    "velocity": 0.5275590551181102,
                    "duration": 0.343859000000009
                },
                {
                    "name": "B4",
                    "midi": 71,
                    "time": 123.44538100000048,
                    "velocity": 0.6299212598425197,
                    "duration": 0.1719295000000045
                },
                {
                    "name": "A4",
                    "midi": 69,
                    "time": 123.61731050000049,
                    "velocity": 0.6299212598425197,
                    "duration": 0.1719295000000045
                },
                {
                    "name": "D5",
                    "midi": 74,
                    "time": 123.78924000000049,
                    "velocity": 0.6535433070866141,
                    "duration": 1.0315769999999844
                },
                {
                    "name": "F#4",
                    "midi": 66,
                    "time": 124.13309900000048,
                    "velocity": 0.47244094488188976,
                    "duration": 0.3438589999999948
                },
                {
                    "name": "F#4",
                    "midi": 66,
                    "time": 124.47695800000048,
                    "velocity": 0.4251968503937008,
                    "duration": 0.6877180000000038
                },
                {
                    "name": "A4",
                    "midi": 69,
                    "time": 124.82081700000047,
                    "velocity": 0.31496062992125984,
                    "duration": 0.1719295000000045
                },
                {
                    "name": "C#5",
                    "midi": 73,
                    "time": 124.99274650000048,
                    "velocity": 0.30708661417322836,
                    "duration": 0.1719295000000045
                },
                {
                    "name": "D5",
                    "midi": 74,
                    "time": 125.16467600000048,
                    "velocity": 0.30708661417322836,
                    "duration": 0.1719295000000045
                },
                {
                    "name": "F#4",
                    "midi": 66,
                    "time": 125.16467600000048,
                    "velocity": 0.25984251968503935,
                    "duration": 0.343859000000009
                },
                {
                    "name": "E5",
                    "midi": 76,
                    "time": 125.33660550000049,
                    "velocity": 0.30708661417322836,
                    "duration": 0.1719295000000045
                },
                {
                    "name": "F#5",
                    "midi": 78,
                    "time": 125.50853500000049,
                    "velocity": 0.31496062992125984,
                    "duration": 0.1719295000000045
                },
                {
                    "name": "F#4",
                    "midi": 66,
                    "time": 125.50853500000049,
                    "velocity": 0.25984251968503935,
                    "duration": 0.3438589999999948
                },
                {
                    "name": "G5",
                    "midi": 79,
                    "time": 125.6804645000005,
                    "velocity": 0.31496062992125984,
                    "duration": 0.08596475000000225
                },
                {
                    "name": "F#5",
                    "midi": 78,
                    "time": 125.7664292500005,
                    "velocity": 0.30708661417322836,
                    "duration": 0.04298237499999402
                },
                {
                    "name": "G5",
                    "midi": 79,
                    "time": 125.8094116250005,
                    "velocity": 0.29133858267716534,
                    "duration": 0.04298237499999402
                },
                {
                    "name": "F#5",
                    "midi": 78,
                    "time": 125.85239400000049,
                    "velocity": 0.33070866141732286,
                    "duration": 0.3438589999999948
                },
                {
                    "name": "G4",
                    "midi": 67,
                    "time": 126.19625300000048,
                    "velocity": 0.2677165354330709,
                    "duration": 0.343859000000009
                },
                {
                    "name": "E5",
                    "midi": 76,
                    "time": 126.19625300000048,
                    "velocity": 0.31496062992125984,
                    "duration": 0.1719295000000045
                },
                {
                    "name": "D5",
                    "midi": 74,
                    "time": 126.36818250000049,
                    "velocity": 0.31496062992125984,
                    "duration": 0.1719295000000045
                },
                {
                    "name": "G4",
                    "midi": 67,
                    "time": 126.54011200000049,
                    "velocity": 0.2677165354330709,
                    "duration": 0.343859000000009
                },
                {
                    "name": "C#5",
                    "midi": 73,
                    "time": 126.54011200000049,
                    "velocity": 0.31496062992125984,
                    "duration": 0.1719295000000045
                },
                {
                    "name": "B4",
                    "midi": 71,
                    "time": 126.7120415000005,
                    "velocity": 0.31496062992125984,
                    "duration": 0.1719295000000045
                },
                {
                    "name": "A4",
                    "midi": 69,
                    "time": 126.8839710000005,
                    "velocity": 0.31496062992125984,
                    "duration": 0.1719295000000045
                },
                {
                    "name": "D5",
                    "midi": 74,
                    "time": 127.0559005000005,
                    "velocity": 0.30708661417322836,
                    "duration": 0.1719295000000045
                },
                {
                    "name": "F#4",
                    "midi": 66,
                    "time": 127.22783000000051,
                    "velocity": 0.2677165354330709,
                    "duration": 0.343859000000009
                },
                {
                    "name": "D5",
                    "midi": 74,
                    "time": 127.22783000000051,
                    "velocity": 0.31496062992125984,
                    "duration": 0.11461966666666967
                },
                {
                    "name": "E5",
                    "midi": 76,
                    "time": 127.34244966666718,
                    "velocity": 0.30708661417322836,
                    "duration": 0.11461966666666967
                },
                {
                    "name": "D5",
                    "midi": 74,
                    "time": 127.45706933333385,
                    "velocity": 0.30708661417322836,
                    "duration": 0.11461966666666967
                },
                {
                    "name": "F#4",
                    "midi": 66,
                    "time": 127.57168900000052,
                    "velocity": 0.25196850393700787,
                    "duration": 0.343859000000009
                },
                {
                    "name": "C#5",
                    "midi": 73,
                    "time": 127.57168900000052,
                    "velocity": 0.30708661417322836,
                    "duration": 0.1719295000000045
                },
                {
                    "name": "B4",
                    "midi": 71,
                    "time": 127.74361850000052,
                    "velocity": 0.30708661417322836,
                    "duration": 0.1719295000000045
                },
                {
                    "name": "C#5",
                    "midi": 73,
                    "time": 127.91554800000053,
                    "velocity": 0.31496062992125984,
                    "duration": 1.0315770000000128
                },
                {
                    "name": "E4",
                    "midi": 64,
                    "time": 128.25940700000052,
                    "velocity": 0.1889763779527559,
                    "duration": 0.343859000000009
                },
                {
                    "name": "A4",
                    "midi": 69,
                    "time": 128.25940700000052,
                    "velocity": 0.2283464566929134,
                    "duration": 0.343859000000009
                },
                {
                    "name": "G4",
                    "midi": 67,
                    "time": 128.60326600000053,
                    "velocity": 0.2440944881889764,
                    "duration": 0.343859000000009
                },
                {
                    "name": "A4",
                    "midi": 69,
                    "time": 128.60326600000053,
                    "velocity": 0.29133858267716534,
                    "duration": 0.343859000000009
                },
                {
                    "name": "A4",
                    "midi": 69,
                    "time": 128.94712500000054,
                    "velocity": 0.31496062992125984,
                    "duration": 0.1719295000000045
                },
                {
                    "name": "C#5",
                    "midi": 73,
                    "time": 129.11905450000054,
                    "velocity": 0.30708661417322836,
                    "duration": 0.1719295000000045
                },
                {
                    "name": "D5",
                    "midi": 74,
                    "time": 129.29098400000055,
                    "velocity": 0.30708661417322836,
                    "duration": 0.1719295000000045
                },
                {
                    "name": "F#4",
                    "midi": 66,
                    "time": 129.29098400000055,
                    "velocity": 0.25984251968503935,
                    "duration": 0.343859000000009
                },
                {
                    "name": "E5",
                    "midi": 76,
                    "time": 129.46291350000055,
                    "velocity": 0.30708661417322836,
                    "duration": 0.1719295000000045
                },
                {
                    "name": "F#5",
                    "midi": 78,
                    "time": 129.63484300000056,
                    "velocity": 0.31496062992125984,
                    "duration": 0.1719295000000045
                },
                {
                    "name": "F#4",
                    "midi": 66,
                    "time": 129.63484300000056,
                    "velocity": 0.25984251968503935,
                    "duration": 0.343859000000009
                },
                {
                    "name": "G5",
                    "midi": 79,
                    "time": 129.80677250000056,
                    "velocity": 0.31496062992125984,
                    "duration": 0.08596474999998804
                },
                {
                    "name": "F#5",
                    "midi": 78,
                    "time": 129.89273725000055,
                    "velocity": 0.30708661417322836,
                    "duration": 0.04298237500000823
                },
                {
                    "name": "G5",
                    "midi": 79,
                    "time": 129.93571962500056,
                    "velocity": 0.29133858267716534,
                    "duration": 0.04298237500000823
                },
                {
                    "name": "F#5",
                    "midi": 78,
                    "time": 129.97870200000057,
                    "velocity": 0.33070866141732286,
                    "duration": 0.343859000000009
                },
                {
                    "name": "G4",
                    "midi": 67,
                    "time": 130.32256100000058,
                    "velocity": 0.2677165354330709,
                    "duration": 0.343859000000009
                },
                {
                    "name": "E5",
                    "midi": 76,
                    "time": 130.32256100000058,
                    "velocity": 0.31496062992125984,
                    "duration": 0.1719295000000045
                },
                {
                    "name": "D5",
                    "midi": 74,
                    "time": 130.49449050000058,
                    "velocity": 0.31496062992125984,
                    "duration": 0.1719295000000045
                },
                {
                    "name": "G4",
                    "midi": 67,
                    "time": 130.66642000000058,
                    "velocity": 0.2677165354330709,
                    "duration": 0.343859000000009
                },
                {
                    "name": "C#5",
                    "midi": 73,
                    "time": 130.66642000000058,
                    "velocity": 0.31496062992125984,
                    "duration": 0.1719295000000045
                },
                {
                    "name": "B4",
                    "midi": 71,
                    "time": 130.8383495000006,
                    "velocity": 0.31496062992125984,
                    "duration": 0.1719295000000045
                },
                {
                    "name": "A4",
                    "midi": 69,
                    "time": 131.0102790000006,
                    "velocity": 0.31496062992125984,
                    "duration": 0.1719295000000045
                },
                {
                    "name": "C#5",
                    "midi": 73,
                    "time": 131.1822085000006,
                    "velocity": 0.30708661417322836,
                    "duration": 0.1719295000000045
                },
                {
                    "name": "G4",
                    "midi": 67,
                    "time": 131.3541380000006,
                    "velocity": 0.2677165354330709,
                    "duration": 0.343859000000009
                },
                {
                    "name": "C#5",
                    "midi": 73,
                    "time": 131.3541380000006,
                    "velocity": 0.31496062992125984,
                    "duration": 0.11461966666666967
                },
                {
                    "name": "D5",
                    "midi": 74,
                    "time": 131.46875766666727,
                    "velocity": 0.30708661417322836,
                    "duration": 0.11461966666666967
                },
                {
                    "name": "C#5",
                    "midi": 73,
                    "time": 131.58337733333394,
                    "velocity": 0.30708661417322836,
                    "duration": 0.11461966666666967
                },
                {
                    "name": "G4",
                    "midi": 67,
                    "time": 131.6979970000006,
                    "velocity": 0.25196850393700787,
                    "duration": 0.343859000000009
                },
                {
                    "name": "B4",
                    "midi": 71,
                    "time": 131.6979970000006,
                    "velocity": 0.30708661417322836,
                    "duration": 0.1719295000000045
                },
                {
                    "name": "A4",
                    "midi": 69,
                    "time": 131.86992650000062,
                    "velocity": 0.30708661417322836,
                    "duration": 0.1719295000000045
                },
                {
                    "name": "D5",
                    "midi": 74,
                    "time": 132.04185600000062,
                    "velocity": 0.31496062992125984,
                    "duration": 1.031577000000027
                },
                {
                    "name": "F#4",
                    "midi": 66,
                    "time": 132.38571500000063,
                    "velocity": 0.2283464566929134,
                    "duration": 0.343859000000009
                },
                {
                    "name": "F#4",
                    "midi": 66,
                    "time": 132.72957400000064,
                    "velocity": 0.29133858267716534,
                    "duration": 0.343859000000009
                },
                {
                    "name": "D5",
                    "midi": 74,
                    "time": 133.07343300000065,
                    "velocity": 0.33858267716535434,
                    "duration": 1.031577000000027
                },
                {
                    "name": "F#4",
                    "midi": 66,
                    "time": 133.07343300000065,
                    "velocity": 0.3700787401574803,
                    "duration": 0.1719295000000045
                },
                {
                    "name": "A4",
                    "midi": 69,
                    "time": 133.24536250000065,
                    "velocity": 0.3543307086614173,
                    "duration": 0.1719295000000045
                },
                {
                    "name": "A4",
                    "midi": 69,
                    "time": 133.41729200000066,
                    "velocity": 0.3858267716535433,
                    "duration": 0.12894712499999628
                },
                {
                    "name": "B4",
                    "midi": 71,
                    "time": 133.54623912500065,
                    "velocity": 0.3228346456692913,
                    "duration": 0.04298237500000823
                },
                {
                    "name": "A4",
                    "midi": 69,
                    "time": 133.58922150000066,
                    "velocity": 0.36220472440944884,
                    "duration": 0.1719295000000045
                },
                {
                    "name": "G#4",
                    "midi": 68,
                    "time": 133.76115100000067,
                    "velocity": 0.36220472440944884,
                    "duration": 0.1719295000000045
                },
                {
                    "name": "E4",
                    "midi": 64,
                    "time": 133.93308050000067,
                    "velocity": 0.3543307086614173,
                    "duration": 0.1719295000000045
                },
                {
                    "name": "D5",
                    "midi": 74,
                    "time": 134.10501000000068,
                    "velocity": 0.3464566929133858,
                    "duration": 1.031577000000027
                },
                {
                    "name": "E4",
                    "midi": 64,
                    "time": 134.10501000000068,
                    "velocity": 0.3937007874015748,
                    "duration": 0.1719295000000045
                },
                {
                    "name": "G4",
                    "midi": 67,
                    "time": 134.27693950000068,
                    "velocity": 0.3700787401574803,
                    "duration": 0.1719295000000045
                },
                {
                    "name": "G4",
                    "midi": 67,
                    "time": 134.44886900000068,
                    "velocity": 0.4015748031496063,
                    "duration": 0.12894712499999628
                },
                {
                    "name": "A4",
                    "midi": 69,
                    "time": 134.57781612500068,
                    "velocity": 0.33858267716535434,
                    "duration": 0.04298237500000823
                },
                {
                    "name": "G4",
                    "midi": 67,
                    "time": 134.6207985000007,
                    "velocity": 0.3779527559055118,
                    "duration": 0.1719295000000045
                },
                {
                    "name": "F#4",
                    "midi": 66,
                    "time": 134.7927280000007,
                    "velocity": 0.3779527559055118,
                    "duration": 0.1719295000000045
                },
                {
                    "name": "D4",
                    "midi": 62,
                    "time": 134.9646575000007,
                    "velocity": 0.33858267716535434,
                    "duration": 0.1719295000000045
                },
                {
                    "name": "D5",
                    "midi": 74,
                    "time": 135.1365870000007,
                    "velocity": 0.3543307086614173,
                    "duration": 1.031577000000027
                },
                {
                    "name": "F#4",
                    "midi": 66,
                    "time": 135.1365870000007,
                    "velocity": 0.3937007874015748,
                    "duration": 0.1719295000000045
                },
                {
                    "name": "A4",
                    "midi": 69,
                    "time": 135.3085165000007,
                    "velocity": 0.3779527559055118,
                    "duration": 0.1719295000000045
                },
                {
                    "name": "A4",
                    "midi": 69,
                    "time": 135.4804460000007,
                    "velocity": 0.4094488188976378,
                    "duration": 0.12894712499999628
                },
                {
                    "name": "B4",
                    "midi": 71,
                    "time": 135.6093931250007,
                    "velocity": 0.3464566929133858,
                    "duration": 0.04298237500000823
                },
                {
                    "name": "A4",
                    "midi": 69,
                    "time": 135.65237550000072,
                    "velocity": 0.3779527559055118,
                    "duration": 0.1719295000000045
                },
                {
                    "name": "G#4",
                    "midi": 68,
                    "time": 135.82430500000072,
                    "velocity": 0.3779527559055118,
                    "duration": 0.1719295000000045
                },
                {
                    "name": "E4",
                    "midi": 64,
                    "time": 135.99623450000072,
                    "velocity": 0.3464566929133858,
                    "duration": 0.1719295000000045
                },
                {
                    "name": "D5",
                    "midi": 74,
                    "time": 136.16816400000073,
                    "velocity": 0.36220472440944884,
                    "duration": 1.031577000000027
                },
                {
                    "name": "E4",
                    "midi": 64,
                    "time": 136.16816400000073,
                    "velocity": 0.41732283464566927,
                    "duration": 0.1719295000000045
                },
                {
                    "name": "G4",
                    "midi": 67,
                    "time": 136.34009350000073,
                    "velocity": 0.3937007874015748,
                    "duration": 0.1719295000000045
                },
                {
                    "name": "G4",
                    "midi": 67,
                    "time": 136.51202300000074,
                    "velocity": 0.41732283464566927,
                    "duration": 0.12894712499999628
                },
                {
                    "name": "A4",
                    "midi": 69,
                    "time": 136.64097012500073,
                    "velocity": 0.36220472440944884,
                    "duration": 0.04298237500000823
                },
                {
                    "name": "G4",
                    "midi": 67,
                    "time": 136.68395250000074,
                    "velocity": 0.3937007874015748,
                    "duration": 0.1719295000000045
                },
                {
                    "name": "F#4",
                    "midi": 66,
                    "time": 136.85588200000075,
                    "velocity": 0.4015748031496063,
                    "duration": 0.1719295000000045
                },
                {
                    "name": "D4",
                    "midi": 62,
                    "time": 137.02781150000075,
                    "velocity": 0.3464566929133858,
                    "duration": 0.1719295000000045
                },
                {
                    "name": "A4",
                    "midi": 69,
                    "time": 137.19974100000076,
                    "velocity": 0.3779527559055118,
                    "duration": 1.031577000000027
                },
                {
                    "name": "D4",
                    "midi": 62,
                    "time": 137.19974100000076,
                    "velocity": 0.41732283464566927,
                    "duration": 0.1719295000000045
                },
                {
                    "name": "F#4",
                    "midi": 66,
                    "time": 137.37167050000076,
                    "velocity": 0.4015748031496063,
                    "duration": 0.1719295000000045
                },
                {
                    "name": "F#4",
                    "midi": 66,
                    "time": 137.54360000000077,
                    "velocity": 0.4330708661417323,
                    "duration": 0.12894712499999628
                },
                {
                    "name": "G4",
                    "midi": 67,
                    "time": 137.67254712500076,
                    "velocity": 0.36220472440944884,
                    "duration": 0.04298237500000823
                },
                {
                    "name": "F#4",
                    "midi": 66,
                    "time": 137.71552950000077,
                    "velocity": 0.4015748031496063,
                    "duration": 0.1719295000000045
                },
                {
                    "name": "E4",
                    "midi": 64,
                    "time": 137.88745900000077,
                    "velocity": 0.4015748031496063,
                    "duration": 0.1719295000000045
                },
                {
                    "name": "B3",
                    "midi": 59,
                    "time": 138.05938850000078,
                    "velocity": 0.36220472440944884,
                    "duration": 0.1719295000000045
                },
                {
                    "name": "A4",
                    "midi": 69,
                    "time": 138.23131800000078,
                    "velocity": 0.3779527559055118,
                    "duration": 1.031577000000027
                },
                {
                    "name": "C#4",
                    "midi": 61,
                    "time": 138.23131800000078,
                    "velocity": 0.4330708661417323,
                    "duration": 0.1719295000000045
                },
                {
                    "name": "E4",
                    "midi": 64,
                    "time": 138.4032475000008,
                    "velocity": 0.4094488188976378,
                    "duration": 0.1719295000000045
                },
                {
                    "name": "E4",
                    "midi": 64,
                    "time": 138.5751770000008,
                    "velocity": 0.4330708661417323,
                    "duration": 0.12894712499999628
                },
                {
                    "name": "F#4",
                    "midi": 66,
                    "time": 138.7041241250008,
                    "velocity": 0.3700787401574803,
                    "duration": 0.04298237500000823
                },
                {
                    "name": "E4",
                    "midi": 64,
                    "time": 138.7471065000008,
                    "velocity": 0.4094488188976378,
                    "duration": 0.1719295000000045
                },
                {
                    "name": "D4",
                    "midi": 62,
                    "time": 138.9190360000008,
                    "velocity": 0.4094488188976378,
                    "duration": 0.1719295000000045
                },
                {
                    "name": "A3",
                    "midi": 57,
                    "time": 139.0909655000008,
                    "velocity": 0.36220472440944884,
                    "duration": 0.1719295000000045
                },
                {
                    "name": "A4",
                    "midi": 69,
                    "time": 139.2628950000008,
                    "velocity": 0.3779527559055118,
                    "duration": 1.031577000000027
                },
                {
                    "name": "D4",
                    "midi": 62,
                    "time": 139.2628950000008,
                    "velocity": 0.41732283464566927,
                    "duration": 0.1719295000000045
                },
                {
                    "name": "F#4",
                    "midi": 66,
                    "time": 139.43482450000081,
                    "velocity": 0.4015748031496063,
                    "duration": 0.1719295000000045
                },
                {
                    "name": "F#4",
                    "midi": 66,
                    "time": 139.60675400000082,
                    "velocity": 0.4251968503937008,
                    "duration": 0.12894712499999628
                },
                {
                    "name": "G4",
                    "midi": 67,
                    "time": 139.73570112500082,
                    "velocity": 0.3543307086614173,
                    "duration": 0.04298237500000823
                },
                {
                    "name": "F#4",
                    "midi": 66,
                    "time": 139.77868350000082,
                    "velocity": 0.3937007874015748,
                    "duration": 0.1719295000000045
                },
                {
                    "name": "E4",
                    "midi": 64,
                    "time": 139.95061300000083,
                    "velocity": 0.3858267716535433,
                    "duration": 0.1719295000000045
                },
                {
                    "name": "B3",
                    "midi": 59,
                    "time": 140.12254250000083,
                    "velocity": 0.3543307086614173,
                    "duration": 0.1719295000000045
                },
                {
                    "name": "A4",
                    "midi": 69,
                    "time": 140.29447200000084,
                    "velocity": 0.36220472440944884,
                    "duration": 1.031577000000027
                },
                {
                    "name": "C#4",
                    "midi": 61,
                    "time": 140.29447200000084,
                    "velocity": 0.41732283464566927,
                    "duration": 0.1719295000000045
                },
                {
                    "name": "E4",
                    "midi": 64,
                    "time": 140.46640150000084,
                    "velocity": 0.3937007874015748,
                    "duration": 0.1719295000000045
                },
                {
                    "name": "E4",
                    "midi": 64,
                    "time": 140.63833100000085,
                    "velocity": 0.4094488188976378,
                    "duration": 0.12894712499999628
                },
                {
                    "name": "F#4",
                    "midi": 66,
                    "time": 140.76727812500084,
                    "velocity": 0.3543307086614173,
                    "duration": 0.04298237500000823
                },
                {
                    "name": "E4",
                    "midi": 64,
                    "time": 140.81026050000085,
                    "velocity": 0.3858267716535433,
                    "duration": 0.1719295000000045
                },
                {
                    "name": "D4",
                    "midi": 62,
                    "time": 140.98219000000086,
                    "velocity": 0.3858267716535433,
                    "duration": 0.1719295000000045
                },
                {
                    "name": "A3",
                    "midi": 57,
                    "time": 141.15411950000086,
                    "velocity": 0.3228346456692913,
                    "duration": 0.1719295000000045
                },
                {
                    "name": "D4",
                    "midi": 62,
                    "time": 141.32604900000086,
                    "velocity": 0.31496062992125984,
                    "duration": 1.031577000000027
                },
                {
                    "name": "F#3",
                    "midi": 54,
                    "time": 141.32604900000086,
                    "velocity": 0.3464566929133858,
                    "duration": 0.1719295000000045
                },
                {
                    "name": "A3",
                    "midi": 57,
                    "time": 141.49797850000087,
                    "velocity": 0.33070866141732286,
                    "duration": 0.1719295000000045
                },
                {
                    "name": "A3",
                    "midi": 57,
                    "time": 141.66990800000087,
                    "velocity": 0.3543307086614173,
                    "duration": 0.12894712499999628
                },
                {
                    "name": "B3",
                    "midi": 59,
                    "time": 141.79885512500087,
                    "velocity": 0.2992125984251969,
                    "duration": 0.04298237500000823
                },
                {
                    "name": "A3",
                    "midi": 57,
                    "time": 141.84183750000088,
                    "velocity": 0.3228346456692913,
                    "duration": 0.1719295000000045
                },
                {
                    "name": "G#3",
                    "midi": 56,
                    "time": 142.01376700000088,
                    "velocity": 0.3228346456692913,
                    "duration": 0.1719295000000045
                },
                {
                    "name": "E3",
                    "midi": 52,
                    "time": 142.1856965000009,
                    "velocity": 0.2755905511811024,
                    "duration": 0.1719295000000045
                },
                {
                    "name": "D4",
                    "midi": 62,
                    "time": 142.3576260000009,
                    "velocity": 0.30708661417322836,
                    "duration": 1.031577000000027
                },
                {
                    "name": "E3",
                    "midi": 52,
                    "time": 142.3576260000009,
                    "velocity": 0.3464566929133858,
                    "duration": 0.1719295000000045
                },
                {
                    "name": "G3",
                    "midi": 55,
                    "time": 142.5295555000009,
                    "velocity": 0.3228346456692913,
                    "duration": 0.1719295000000045
                },
                {
                    "name": "G3",
                    "midi": 55,
                    "time": 142.7014850000009,
                    "velocity": 0.3464566929133858,
                    "duration": 0.12894712499999628
                },
                {
                    "name": "A3",
                    "midi": 57,
                    "time": 142.8304321250009,
                    "velocity": 0.29133858267716534,
                    "duration": 0.04298237500000823
                },
                {
                    "name": "G3",
                    "midi": 55,
                    "time": 142.8734145000009,
                    "velocity": 0.3228346456692913,
                    "duration": 0.1719295000000045
                },
                {
                    "name": "F#3",
                    "midi": 54,
                    "time": 143.0453440000009,
                    "velocity": 0.31496062992125984,
                    "duration": 0.1719295000000045
                },
                {
                    "name": "D3",
                    "midi": 50,
                    "time": 143.2172735000009,
                    "velocity": 0.2677165354330709,
                    "duration": 0.1719295000000045
                },
                {
                    "name": "D4",
                    "midi": 62,
                    "time": 143.38920300000092,
                    "velocity": 0.25984251968503935,
                    "duration": 1.031577000000027
                },
                {
                    "name": "F#3",
                    "midi": 54,
                    "time": 143.38920300000092,
                    "velocity": 0.28346456692913385,
                    "duration": 0.1719295000000045
                },
                {
                    "name": "A3",
                    "midi": 57,
                    "time": 143.56113250000092,
                    "velocity": 0.2755905511811024,
                    "duration": 0.1719295000000045
                },
                {
                    "name": "A3",
                    "midi": 57,
                    "time": 143.73306200000093,
                    "velocity": 0.2992125984251969,
                    "duration": 0.12894712499999628
                },
                {
                    "name": "B3",
                    "midi": 59,
                    "time": 143.86200912500092,
                    "velocity": 0.2440944881889764,
                    "duration": 0.04298237500000823
                },
                {
                    "name": "A3",
                    "midi": 57,
                    "time": 143.90499150000093,
                    "velocity": 0.2677165354330709,
                    "duration": 0.1719295000000045
                },
                {
                    "name": "G#3",
                    "midi": 56,
                    "time": 144.07692100000094,
                    "velocity": 0.2677165354330709,
                    "duration": 0.1719295000000045
                },
                {
                    "name": "E3",
                    "midi": 52,
                    "time": 144.24885050000094,
                    "velocity": 0.23622047244094488,
                    "duration": 0.1719295000000045
                },
                {
                    "name": "D4",
                    "midi": 62,
                    "time": 144.42078000000095,
                    "velocity": 0.25196850393700787,
                    "duration": 1.031577000000027
                },
                {
                    "name": "E3",
                    "midi": 52,
                    "time": 144.42078000000095,
                    "velocity": 0.29133858267716534,
                    "duration": 0.1719295000000045
                },
                {
                    "name": "G3",
                    "midi": 55,
                    "time": 144.59270950000095,
                    "velocity": 0.2677165354330709,
                    "duration": 0.1719295000000045
                },
                {
                    "name": "G3",
                    "midi": 55,
                    "time": 144.76463900000095,
                    "velocity": 0.29133858267716534,
                    "duration": 0.12894712499999628
                },
                {
                    "name": "A3",
                    "midi": 57,
                    "time": 144.89358612500095,
                    "velocity": 0.2440944881889764,
                    "duration": 0.04298237500000823
                },
                {
                    "name": "G3",
                    "midi": 55,
                    "time": 144.93656850000096,
                    "velocity": 0.2677165354330709,
                    "duration": 0.1719295000000045
                },
                {
                    "name": "F#3",
                    "midi": 54,
                    "time": 145.10849800000096,
                    "velocity": 0.2677165354330709,
                    "duration": 0.1719295000000045
                },
                {
                    "name": "D3",
                    "midi": 50,
                    "time": 145.28042750000097,
                    "velocity": 0.23622047244094488,
                    "duration": 0.1719295000000045
                },
                {
                    "name": "D3",
                    "midi": 50,
                    "time": 145.45235700000097,
                    "velocity": 0.30708661417322836,
                    "duration": 0.343859000000009
                },
                {
                    "name": "A3",
                    "midi": 57,
                    "time": 145.45235700000097,
                    "velocity": 0.36220472440944884,
                    "duration": 0.343859000000009
                },
                {
                    "name": "D4",
                    "midi": 62,
                    "time": 145.79621600000098,
                    "velocity": 0.3228346456692913,
                    "duration": 0.343859000000009
                },
                {
                    "name": "A4",
                    "midi": 69,
                    "time": 145.79621600000098,
                    "velocity": 0.3858267716535433,
                    "duration": 0.343859000000009
                },
                {
                    "name": "D5",
                    "midi": 74,
                    "time": 146.140075000001,
                    "velocity": 0.3779527559055118,
                    "duration": 0.1719295000000045
                },
                {
                    "name": "A5",
                    "midi": 81,
                    "time": 146.312004500001,
                    "velocity": 0.3858267716535433,
                    "duration": 0.1719295000000045
                },
                {
                    "name": "D6",
                    "midi": 86,
                    "time": 146.483934000001,
                    "velocity": 0.4015748031496063,
                    "duration": 0.08596474999998804
                },
                {
                    "name": "F#6",
                    "midi": 90,
                    "time": 146.65586350000098,
                    "velocity": 0.41732283464566927,
                    "duration": 0.08596474999998804
                },
                {
                    "name": "G#6",
                    "midi": 92,
                    "time": 146.82779300000095,
                    "velocity": 0.4330708661417323,
                    "duration": 0.08596474999998804
                },
                {
                    "name": "A6",
                    "midi": 93,
                    "time": 146.99972250000093,
                    "velocity": 0.44881889763779526,
                    "duration": 0.08596474999998804
                },
                {
                    "name": "B6",
                    "midi": 95,
                    "time": 147.1716520000009,
                    "velocity": 0.4645669291338583,
                    "duration": 0.08596474999998804
                },
                {
                    "name": "C#7",
                    "midi": 97,
                    "time": 147.34358150000088,
                    "velocity": 0.4881889763779528,
                    "duration": 0.08596474999998804
                },
                {
                    "name": "D7",
                    "midi": 98,
                    "time": 147.51551100000086,
                    "velocity": 0.5039370078740157,
                    "duration": 1.0315769999999986
                }
            ],
            "controlChanges": {
                "7": [
                    {
                        "number": 7,
                        "time": 0,
                        "value": 0.7874015748031497
                    }
                ],
                "10": [
                    {
                        "number": 10,
                        "time": 0,
                        "value": 0.5039370078740157
                    }
                ],
                "91": [
                    {
                        "number": 91,
                        "time": 0,
                        "value": 1
                    }
                ]
            },
            "id": 1,
            "name": "Piano right",
            "instrumentNumber": 0,
            "instrument": "acoustic grand piano",
            "instrumentFamily": "piano",
            "channelNumber": 0,
            "isPercussion": false
        },
        {
            "startTime": 1.031577,
            "duration": 148.54708800000014,
            "length": 822,
            "notes": [
                {
                    "name": "D3",
                    "midi": 50,
                    "time": 1.031577,
                    "velocity": 0.4645669291338583,
                    "duration": 0.17192950000000007
                },
                {
                    "name": "D3",
                    "midi": 50,
                    "time": 1.375436,
                    "velocity": 0.4094488188976378,
                    "duration": 0.3438589999999999
                },
                {
                    "name": "A3",
                    "midi": 57,
                    "time": 1.375436,
                    "velocity": 0.4094488188976378,
                    "duration": 0.3438589999999999
                },
                {
                    "name": "D4",
                    "midi": 62,
                    "time": 1.375436,
                    "velocity": 0.4094488188976378,
                    "duration": 0.3438589999999999
                },
                {
                    "name": "D3",
                    "midi": 50,
                    "time": 1.719295,
                    "velocity": 0.4094488188976378,
                    "duration": 0.3438589999999999
                },
                {
                    "name": "A3",
                    "midi": 57,
                    "time": 1.719295,
                    "velocity": 0.4094488188976378,
                    "duration": 0.3438589999999999
                },
                {
                    "name": "D4",
                    "midi": 62,
                    "time": 1.719295,
                    "velocity": 0.4094488188976378,
                    "duration": 0.3438589999999999
                },
                {
                    "name": "A2",
                    "midi": 45,
                    "time": 2.063154,
                    "velocity": 0.4645669291338583,
                    "duration": 0.17192949999999962
                },
                {
                    "name": "E3",
                    "midi": 52,
                    "time": 2.4070129999999996,
                    "velocity": 0.4251968503937008,
                    "duration": 0.34385900000000014
                },
                {
                    "name": "A3",
                    "midi": 57,
                    "time": 2.4070129999999996,
                    "velocity": 0.4251968503937008,
                    "duration": 0.34385900000000014
                },
                {
                    "name": "C#4",
                    "midi": 61,
                    "time": 2.4070129999999996,
                    "velocity": 0.4251968503937008,
                    "duration": 0.34385900000000014
                },
                {
                    "name": "E3",
                    "midi": 52,
                    "time": 2.7508719999999998,
                    "velocity": 0.4251968503937008,
                    "duration": 0.3438589999999997
                },
                {
                    "name": "A3",
                    "midi": 57,
                    "time": 2.7508719999999998,
                    "velocity": 0.4251968503937008,
                    "duration": 0.3438589999999997
                },
                {
                    "name": "C#4",
                    "midi": 61,
                    "time": 2.7508719999999998,
                    "velocity": 0.4251968503937008,
                    "duration": 0.3438589999999997
                },
                {
                    "name": "D2",
                    "midi": 38,
                    "time": 3.0947309999999995,
                    "velocity": 0.4645669291338583,
                    "duration": 0.17192950000000007
                },
                {
                    "name": "D3",
                    "midi": 50,
                    "time": 3.4385899999999996,
                    "velocity": 0.4251968503937008,
                    "duration": 0.34385900000000014
                },
                {
                    "name": "A3",
                    "midi": 57,
                    "time": 3.4385899999999996,
                    "velocity": 0.4251968503937008,
                    "duration": 0.34385900000000014
                },
                {
                    "name": "D4",
                    "midi": 62,
                    "time": 3.4385899999999996,
                    "velocity": 0.4251968503937008,
                    "duration": 0.34385900000000014
                },
                {
                    "name": "D3",
                    "midi": 50,
                    "time": 3.7824489999999997,
                    "velocity": 0.4251968503937008,
                    "duration": 0.34385900000000014
                },
                {
                    "name": "A3",
                    "midi": 57,
                    "time": 3.7824489999999997,
                    "velocity": 0.4251968503937008,
                    "duration": 0.34385900000000014
                },
                {
                    "name": "D4",
                    "midi": 62,
                    "time": 3.7824489999999997,
                    "velocity": 0.4251968503937008,
                    "duration": 0.34385900000000014
                },
                {
                    "name": "A2",
                    "midi": 45,
                    "time": 4.126308,
                    "velocity": 0.4645669291338583,
                    "duration": 0.17192950000000007
                },
                {
                    "name": "A3",
                    "midi": 57,
                    "time": 4.470167,
                    "velocity": 0.33858267716535434,
                    "duration": 0.34385900000000014
                },
                {
                    "name": "A3",
                    "midi": 57,
                    "time": 4.814026,
                    "velocity": 0.4409448818897638,
                    "duration": 0.34385900000000014
                },
                {
                    "name": "E4",
                    "midi": 64,
                    "time": 4.814026,
                    "velocity": 0.4409448818897638,
                    "duration": 0.34385900000000014
                },
                {
                    "name": "D3",
                    "midi": 50,
                    "time": 5.157885,
                    "velocity": 0.4645669291338583,
                    "duration": 0.17192949999999918
                },
                {
                    "name": "A3",
                    "midi": 57,
                    "time": 5.5017439999999995,
                    "velocity": 0.4094488188976378,
                    "duration": 0.34385900000000014
                },
                {
                    "name": "D4",
                    "midi": 62,
                    "time": 5.5017439999999995,
                    "velocity": 0.4094488188976378,
                    "duration": 0.34385900000000014
                },
                {
                    "name": "D3",
                    "midi": 50,
                    "time": 5.845603,
                    "velocity": 0.4094488188976378,
                    "duration": 0.34385900000000014
                },
                {
                    "name": "A3",
                    "midi": 57,
                    "time": 5.845603,
                    "velocity": 0.4094488188976378,
                    "duration": 0.34385900000000014
                },
                {
                    "name": "D4",
                    "midi": 62,
                    "time": 5.845603,
                    "velocity": 0.4094488188976378,
                    "duration": 0.34385900000000014
                },
                {
                    "name": "G2",
                    "midi": 43,
                    "time": 6.189462,
                    "velocity": 0.4645669291338583,
                    "duration": 0.17192950000000007
                },
                {
                    "name": "B3",
                    "midi": 59,
                    "time": 6.533321,
                    "velocity": 0.4251968503937008,
                    "duration": 0.34385900000000014
                },
                {
                    "name": "E4",
                    "midi": 64,
                    "time": 6.533321,
                    "velocity": 0.4251968503937008,
                    "duration": 0.34385900000000014
                },
                {
                    "name": "E3",
                    "midi": 52,
                    "time": 6.87718,
                    "velocity": 0.4251968503937008,
                    "duration": 0.34385900000000014
                },
                {
                    "name": "B3",
                    "midi": 59,
                    "time": 6.87718,
                    "velocity": 0.4251968503937008,
                    "duration": 0.34385900000000014
                },
                {
                    "name": "E4",
                    "midi": 64,
                    "time": 6.87718,
                    "velocity": 0.4251968503937008,
                    "duration": 0.34385900000000014
                },
                {
                    "name": "A2",
                    "midi": 45,
                    "time": 7.221039,
                    "velocity": 0.4645669291338583,
                    "duration": 0.17192950000000007
                },
                {
                    "name": "A3",
                    "midi": 57,
                    "time": 7.564898,
                    "velocity": 0.4251968503937008,
                    "duration": 0.34385900000000014
                },
                {
                    "name": "E4",
                    "midi": 64,
                    "time": 7.564898,
                    "velocity": 0.4251968503937008,
                    "duration": 0.34385900000000014
                },
                {
                    "name": "A3",
                    "midi": 57,
                    "time": 7.9087570000000005,
                    "velocity": 0.4251968503937008,
                    "duration": 0.34385899999999925
                },
                {
                    "name": "E4",
                    "midi": 64,
                    "time": 7.9087570000000005,
                    "velocity": 0.4251968503937008,
                    "duration": 0.34385899999999925
                },
                {
                    "name": "D2",
                    "midi": 38,
                    "time": 8.252616,
                    "velocity": 0.4645669291338583,
                    "duration": 0.17192949999999918
                },
                {
                    "name": "D3",
                    "midi": 50,
                    "time": 8.596474999999998,
                    "velocity": 0.28346456692913385,
                    "duration": 0.34385900000000014
                },
                {
                    "name": "A3",
                    "midi": 57,
                    "time": 8.596474999999998,
                    "velocity": 0.28346456692913385,
                    "duration": 0.34385900000000014
                },
                {
                    "name": "D4",
                    "midi": 62,
                    "time": 8.596474999999998,
                    "velocity": 0.33858267716535434,
                    "duration": 0.34385900000000014
                },
                {
                    "name": "D3",
                    "midi": 50,
                    "time": 8.940333999999998,
                    "velocity": 0.30708661417322836,
                    "duration": 0.6877180000000003
                },
                {
                    "name": "A3",
                    "midi": 57,
                    "time": 8.940333999999998,
                    "velocity": 0.30708661417322836,
                    "duration": 0.6877180000000003
                },
                {
                    "name": "D4",
                    "midi": 62,
                    "time": 8.940333999999998,
                    "velocity": 0.30708661417322836,
                    "duration": 0.6877180000000003
                },
                {
                    "name": "D3",
                    "midi": 50,
                    "time": 9.628051999999999,
                    "velocity": 0.18110236220472442,
                    "duration": 0.34385900000000014
                },
                {
                    "name": "A3",
                    "midi": 57,
                    "time": 9.628051999999999,
                    "velocity": 0.18110236220472442,
                    "duration": 0.34385900000000014
                },
                {
                    "name": "D4",
                    "midi": 62,
                    "time": 9.628051999999999,
                    "velocity": 0.18110236220472442,
                    "duration": 0.34385900000000014
                },
                {
                    "name": "D3",
                    "midi": 50,
                    "time": 9.971910999999999,
                    "velocity": 0.18110236220472442,
                    "duration": 0.34385900000000014
                },
                {
                    "name": "A3",
                    "midi": 57,
                    "time": 9.971910999999999,
                    "velocity": 0.18110236220472442,
                    "duration": 0.34385900000000014
                },
                {
                    "name": "D4",
                    "midi": 62,
                    "time": 9.971910999999999,
                    "velocity": 0.18110236220472442,
                    "duration": 0.34385900000000014
                },
                {
                    "name": "A2",
                    "midi": 45,
                    "time": 10.315769999999999,
                    "velocity": 0.2125984251968504,
                    "duration": 0.17192949999999918
                },
                {
                    "name": "E3",
                    "midi": 52,
                    "time": 10.659628999999997,
                    "velocity": 0.1889763779527559,
                    "duration": 0.34385900000000014
                },
                {
                    "name": "A3",
                    "midi": 57,
                    "time": 10.659628999999997,
                    "velocity": 0.1889763779527559,
                    "duration": 0.34385900000000014
                },
                {
                    "name": "C#4",
                    "midi": 61,
                    "time": 10.659628999999997,
                    "velocity": 0.1889763779527559,
                    "duration": 0.34385900000000014
                },
                {
                    "name": "E3",
                    "midi": 52,
                    "time": 11.003487999999997,
                    "velocity": 0.1889763779527559,
                    "duration": 0.34385900000000014
                },
                {
                    "name": "A3",
                    "midi": 57,
                    "time": 11.003487999999997,
                    "velocity": 0.1889763779527559,
                    "duration": 0.34385900000000014
                },
                {
                    "name": "C#4",
                    "midi": 61,
                    "time": 11.003487999999997,
                    "velocity": 0.1889763779527559,
                    "duration": 0.34385900000000014
                },
                {
                    "name": "D2",
                    "midi": 38,
                    "time": 11.347346999999997,
                    "velocity": 0.2125984251968504,
                    "duration": 0.17192950000000096
                },
                {
                    "name": "D3",
                    "midi": 50,
                    "time": 11.691205999999998,
                    "velocity": 0.1889763779527559,
                    "duration": 0.34385900000000014
                },
                {
                    "name": "A3",
                    "midi": 57,
                    "time": 11.691205999999998,
                    "velocity": 0.1889763779527559,
                    "duration": 0.34385900000000014
                },
                {
                    "name": "D4",
                    "midi": 62,
                    "time": 11.691205999999998,
                    "velocity": 0.1889763779527559,
                    "duration": 0.34385900000000014
                },
                {
                    "name": "D3",
                    "midi": 50,
                    "time": 12.035064999999998,
                    "velocity": 0.1889763779527559,
                    "duration": 0.34385900000000014
                },
                {
                    "name": "A3",
                    "midi": 57,
                    "time": 12.035064999999998,
                    "velocity": 0.1889763779527559,
                    "duration": 0.34385900000000014
                },
                {
                    "name": "D4",
                    "midi": 62,
                    "time": 12.035064999999998,
                    "velocity": 0.1889763779527559,
                    "duration": 0.34385900000000014
                },
                {
                    "name": "A2",
                    "midi": 45,
                    "time": 12.378923999999998,
                    "velocity": 0.2125984251968504,
                    "duration": 0.17192949999999918
                },
                {
                    "name": "C#4",
                    "midi": 61,
                    "time": 12.722782999999996,
                    "velocity": 0.15748031496062992,
                    "duration": 0.34385900000000014
                },
                {
                    "name": "A3",
                    "midi": 57,
                    "time": 12.722782999999996,
                    "velocity": 0.15748031496062992,
                    "duration": 0.34385900000000014
                },
                {
                    "name": "A3",
                    "midi": 57,
                    "time": 13.066641999999996,
                    "velocity": 0.2047244094488189,
                    "duration": 0.6877179999999985
                },
                {
                    "name": "E4",
                    "midi": 64,
                    "time": 13.066641999999996,
                    "velocity": 0.2047244094488189,
                    "duration": 0.34385900000000014
                },
                {
                    "name": "D3",
                    "midi": 50,
                    "time": 13.410500999999996,
                    "velocity": 0.2125984251968504,
                    "duration": 0.34385899999999836
                },
                {
                    "name": "A3",
                    "midi": 57,
                    "time": 13.754359999999995,
                    "velocity": 0.18110236220472442,
                    "duration": 0.34385900000000014
                },
                {
                    "name": "D4",
                    "midi": 62,
                    "time": 13.754359999999995,
                    "velocity": 0.18110236220472442,
                    "duration": 0.34385900000000014
                },
                {
                    "name": "D3",
                    "midi": 50,
                    "time": 14.098218999999995,
                    "velocity": 0.18110236220472442,
                    "duration": 0.34385900000000014
                },
                {
                    "name": "A3",
                    "midi": 57,
                    "time": 14.098218999999995,
                    "velocity": 0.18110236220472442,
                    "duration": 0.34385900000000014
                },
                {
                    "name": "D4",
                    "midi": 62,
                    "time": 14.098218999999995,
                    "velocity": 0.18110236220472442,
                    "duration": 0.34385900000000014
                },
                {
                    "name": "G2",
                    "midi": 43,
                    "time": 14.442077999999995,
                    "velocity": 0.2125984251968504,
                    "duration": 0.17192949999999918
                },
                {
                    "name": "B3",
                    "midi": 59,
                    "time": 14.785936999999993,
                    "velocity": 0.1889763779527559,
                    "duration": 0.34385900000000014
                },
                {
                    "name": "E4",
                    "midi": 64,
                    "time": 14.785936999999993,
                    "velocity": 0.1889763779527559,
                    "duration": 0.34385900000000014
                },
                {
                    "name": "E3",
                    "midi": 52,
                    "time": 15.129795999999994,
                    "velocity": 0.1889763779527559,
                    "duration": 0.34385900000000014
                },
                {
                    "name": "B3",
                    "midi": 59,
                    "time": 15.129795999999994,
                    "velocity": 0.1889763779527559,
                    "duration": 0.34385900000000014
                },
                {
                    "name": "E4",
                    "midi": 64,
                    "time": 15.129795999999994,
                    "velocity": 0.1889763779527559,
                    "duration": 0.34385900000000014
                },
                {
                    "name": "A2",
                    "midi": 45,
                    "time": 15.473654999999994,
                    "velocity": 0.2125984251968504,
                    "duration": 0.17192949999999918
                },
                {
                    "name": "A3",
                    "midi": 57,
                    "time": 15.817513999999992,
                    "velocity": 0.1889763779527559,
                    "duration": 0.34385899999999836
                },
                {
                    "name": "E4",
                    "midi": 64,
                    "time": 15.817513999999992,
                    "velocity": 0.1889763779527559,
                    "duration": 0.34385899999999836
                },
                {
                    "name": "A3",
                    "midi": 57,
                    "time": 16.16137299999999,
                    "velocity": 0.1889763779527559,
                    "duration": 0.3438590000000019
                },
                {
                    "name": "E4",
                    "midi": 64,
                    "time": 16.16137299999999,
                    "velocity": 0.1889763779527559,
                    "duration": 0.3438590000000019
                },
                {
                    "name": "D2",
                    "midi": 38,
                    "time": 16.505231999999992,
                    "velocity": 0.2125984251968504,
                    "duration": 0.17192950000000096
                },
                {
                    "name": "D3",
                    "midi": 50,
                    "time": 16.849090999999994,
                    "velocity": 0.13385826771653545,
                    "duration": 0.34385899999999836
                },
                {
                    "name": "A3",
                    "midi": 57,
                    "time": 16.849090999999994,
                    "velocity": 0.13385826771653545,
                    "duration": 0.34385899999999836
                },
                {
                    "name": "D4",
                    "midi": 62,
                    "time": 16.849090999999994,
                    "velocity": 0.15748031496062992,
                    "duration": 0.34385899999999836
                },
                {
                    "name": "D3",
                    "midi": 50,
                    "time": 17.192949999999993,
                    "velocity": 0.2047244094488189,
                    "duration": 0.34385899999999836
                },
                {
                    "name": "A3",
                    "midi": 57,
                    "time": 17.192949999999993,
                    "velocity": 0.2047244094488189,
                    "duration": 0.34385899999999836
                },
                {
                    "name": "D4",
                    "midi": 62,
                    "time": 17.192949999999993,
                    "velocity": 0.2047244094488189,
                    "duration": 0.34385899999999836
                },
                {
                    "name": "A2",
                    "midi": 45,
                    "time": 17.53680899999999,
                    "velocity": 0.4645669291338583,
                    "duration": 0.17192950000000096
                },
                {
                    "name": "A2",
                    "midi": 45,
                    "time": 17.880667999999993,
                    "velocity": 0.4094488188976378,
                    "duration": 0.34385899999999836
                },
                {
                    "name": "E3",
                    "midi": 52,
                    "time": 17.880667999999993,
                    "velocity": 0.4094488188976378,
                    "duration": 0.34385899999999836
                },
                {
                    "name": "A3",
                    "midi": 57,
                    "time": 17.880667999999993,
                    "velocity": 0.4094488188976378,
                    "duration": 0.34385899999999836
                },
                {
                    "name": "A2",
                    "midi": 45,
                    "time": 18.22452699999999,
                    "velocity": 0.4094488188976378,
                    "duration": 0.34385899999999836
                },
                {
                    "name": "E3",
                    "midi": 52,
                    "time": 18.22452699999999,
                    "velocity": 0.4094488188976378,
                    "duration": 0.34385899999999836
                },
                {
                    "name": "A3",
                    "midi": 57,
                    "time": 18.22452699999999,
                    "velocity": 0.4094488188976378,
                    "duration": 0.34385899999999836
                },
                {
                    "name": "E2",
                    "midi": 40,
                    "time": 18.56838599999999,
                    "velocity": 0.4645669291338583,
                    "duration": 0.1719294999999974
                },
                {
                    "name": "E3",
                    "midi": 52,
                    "time": 18.912244999999988,
                    "velocity": 0.4251968503937008,
                    "duration": 0.34385899999999836
                },
                {
                    "name": "B3",
                    "midi": 59,
                    "time": 18.912244999999988,
                    "velocity": 0.4251968503937008,
                    "duration": 0.34385899999999836
                },
                {
                    "name": "E3",
                    "midi": 52,
                    "time": 19.256103999999986,
                    "velocity": 0.4251968503937008,
                    "duration": 0.3438590000000019
                },
                {
                    "name": "B3",
                    "midi": 59,
                    "time": 19.256103999999986,
                    "velocity": 0.4251968503937008,
                    "duration": 0.3438590000000019
                },
                {
                    "name": "A1",
                    "midi": 33,
                    "time": 19.59996299999999,
                    "velocity": 0.4645669291338583,
                    "duration": 0.1719294999999974
                },
                {
                    "name": "A2",
                    "midi": 45,
                    "time": 19.943821999999987,
                    "velocity": 0.4251968503937008,
                    "duration": 0.34385899999999836
                },
                {
                    "name": "E3",
                    "midi": 52,
                    "time": 19.943821999999987,
                    "velocity": 0.4251968503937008,
                    "duration": 0.34385899999999836
                },
                {
                    "name": "A3",
                    "midi": 57,
                    "time": 19.943821999999987,
                    "velocity": 0.4251968503937008,
                    "duration": 0.34385899999999836
                },
                {
                    "name": "A2",
                    "midi": 45,
                    "time": 20.287680999999985,
                    "velocity": 0.4251968503937008,
                    "duration": 0.3438590000000019
                },
                {
                    "name": "E3",
                    "midi": 52,
                    "time": 20.287680999999985,
                    "velocity": 0.4251968503937008,
                    "duration": 0.3438590000000019
                },
                {
                    "name": "A3",
                    "midi": 57,
                    "time": 20.287680999999985,
                    "velocity": 0.4251968503937008,
                    "duration": 0.3438590000000019
                },
                {
                    "name": "E2",
                    "midi": 40,
                    "time": 20.631539999999987,
                    "velocity": 0.4645669291338583,
                    "duration": 0.17192950000000096
                },
                {
                    "name": "E3",
                    "midi": 52,
                    "time": 20.97539899999999,
                    "velocity": 0.33858267716535434,
                    "duration": 0.34385899999999836
                },
                {
                    "name": "E3",
                    "midi": 52,
                    "time": 21.319257999999987,
                    "velocity": 0.4409448818897638,
                    "duration": 0.34385899999999836
                },
                {
                    "name": "B3",
                    "midi": 59,
                    "time": 21.319257999999987,
                    "velocity": 0.4409448818897638,
                    "duration": 0.34385899999999836
                },
                {
                    "name": "A2",
                    "midi": 45,
                    "time": 21.663116999999986,
                    "velocity": 0.4645669291338583,
                    "duration": 0.17192950000000096
                },
                {
                    "name": "E3",
                    "midi": 52,
                    "time": 22.006975999999987,
                    "velocity": 0.4094488188976378,
                    "duration": 0.34385899999999836
                },
                {
                    "name": "A3",
                    "midi": 57,
                    "time": 22.006975999999987,
                    "velocity": 0.4094488188976378,
                    "duration": 0.34385899999999836
                },
                {
                    "name": "A2",
                    "midi": 45,
                    "time": 22.350834999999986,
                    "velocity": 0.4094488188976378,
                    "duration": 0.34385899999999836
                },
                {
                    "name": "E3",
                    "midi": 52,
                    "time": 22.350834999999986,
                    "velocity": 0.4094488188976378,
                    "duration": 0.34385899999999836
                },
                {
                    "name": "A3",
                    "midi": 57,
                    "time": 22.350834999999986,
                    "velocity": 0.4094488188976378,
                    "duration": 0.34385899999999836
                },
                {
                    "name": "D2",
                    "midi": 38,
                    "time": 22.694693999999984,
                    "velocity": 0.4645669291338583,
                    "duration": 0.17192950000000096
                },
                {
                    "name": "F#3",
                    "midi": 54,
                    "time": 23.038552999999986,
                    "velocity": 0.4251968503937008,
                    "duration": 0.34385899999999836
                },
                {
                    "name": "B3",
                    "midi": 59,
                    "time": 23.038552999999986,
                    "velocity": 0.4251968503937008,
                    "duration": 0.34385899999999836
                },
                {
                    "name": "B2",
                    "midi": 47,
                    "time": 23.382411999999984,
                    "velocity": 0.4251968503937008,
                    "duration": 0.3438590000000019
                },
                {
                    "name": "F#3",
                    "midi": 54,
                    "time": 23.382411999999984,
                    "velocity": 0.4251968503937008,
                    "duration": 0.3438590000000019
                },
                {
                    "name": "B3",
                    "midi": 59,
                    "time": 23.382411999999984,
                    "velocity": 0.4251968503937008,
                    "duration": 0.3438590000000019
                },
                {
                    "name": "E2",
                    "midi": 40,
                    "time": 23.726270999999986,
                    "velocity": 0.4645669291338583,
                    "duration": 0.1719294999999974
                },
                {
                    "name": "E3",
                    "midi": 52,
                    "time": 24.070129999999985,
                    "velocity": 0.4251968503937008,
                    "duration": 0.34385899999999836
                },
                {
                    "name": "B3",
                    "midi": 59,
                    "time": 24.070129999999985,
                    "velocity": 0.4251968503937008,
                    "duration": 0.34385899999999836
                },
                {
                    "name": "E3",
                    "midi": 52,
                    "time": 24.413988999999983,
                    "velocity": 0.4251968503937008,
                    "duration": 0.3438590000000019
                },
                {
                    "name": "B3",
                    "midi": 59,
                    "time": 24.413988999999983,
                    "velocity": 0.4251968503937008,
                    "duration": 0.3438590000000019
                },
                {
                    "name": "A1",
                    "midi": 33,
                    "time": 24.757847999999985,
                    "velocity": 0.4645669291338583,
                    "duration": 0.17192950000000096
                },
                {
                    "name": "A2",
                    "midi": 45,
                    "time": 25.101706999999987,
                    "velocity": 0.28346456692913385,
                    "duration": 0.34385899999999836
                },
                {
                    "name": "E3",
                    "midi": 52,
                    "time": 25.101706999999987,
                    "velocity": 0.28346456692913385,
                    "duration": 0.34385899999999836
                },
                {
                    "name": "A3",
                    "midi": 57,
                    "time": 25.101706999999987,
                    "velocity": 0.33858267716535434,
                    "duration": 0.34385899999999836
                },
                {
                    "name": "A2",
                    "midi": 45,
                    "time": 25.445565999999985,
                    "velocity": 0.30708661417322836,
                    "duration": 0.6877180000000003
                },
                {
                    "name": "E3",
                    "midi": 52,
                    "time": 25.445565999999985,
                    "velocity": 0.30708661417322836,
                    "duration": 0.6877180000000003
                },
                {
                    "name": "A3",
                    "midi": 57,
                    "time": 25.445565999999985,
                    "velocity": 0.30708661417322836,
                    "duration": 0.6877180000000003
                },
                {
                    "name": "A2",
                    "midi": 45,
                    "time": 26.133283999999986,
                    "velocity": 0.18110236220472442,
                    "duration": 0.34385899999999836
                },
                {
                    "name": "E3",
                    "midi": 52,
                    "time": 26.133283999999986,
                    "velocity": 0.18110236220472442,
                    "duration": 0.34385899999999836
                },
                {
                    "name": "A3",
                    "midi": 57,
                    "time": 26.133283999999986,
                    "velocity": 0.18110236220472442,
                    "duration": 0.34385899999999836
                },
                {
                    "name": "A2",
                    "midi": 45,
                    "time": 26.477142999999984,
                    "velocity": 0.18110236220472442,
                    "duration": 0.34385899999999836
                },
                {
                    "name": "E3",
                    "midi": 52,
                    "time": 26.477142999999984,
                    "velocity": 0.18110236220472442,
                    "duration": 0.34385899999999836
                },
                {
                    "name": "A3",
                    "midi": 57,
                    "time": 26.477142999999984,
                    "velocity": 0.18110236220472442,
                    "duration": 0.34385899999999836
                },
                {
                    "name": "E2",
                    "midi": 40,
                    "time": 26.821001999999982,
                    "velocity": 0.2125984251968504,
                    "duration": 0.1719294999999974
                },
                {
                    "name": "E3",
                    "midi": 52,
                    "time": 27.16486099999998,
                    "velocity": 0.1889763779527559,
                    "duration": 0.34385899999999836
                },
                {
                    "name": "B3",
                    "midi": 59,
                    "time": 27.16486099999998,
                    "velocity": 0.1889763779527559,
                    "duration": 0.34385899999999836
                },
                {
                    "name": "E3",
                    "midi": 52,
                    "time": 27.50871999999998,
                    "velocity": 0.1889763779527559,
                    "duration": 0.3438590000000019
                },
                {
                    "name": "B3",
                    "midi": 59,
                    "time": 27.50871999999998,
                    "velocity": 0.1889763779527559,
                    "duration": 0.3438590000000019
                },
                {
                    "name": "A1",
                    "midi": 33,
                    "time": 27.85257899999998,
                    "velocity": 0.2125984251968504,
                    "duration": 0.17192950000000096
                },
                {
                    "name": "A2",
                    "midi": 45,
                    "time": 28.196437999999983,
                    "velocity": 0.1889763779527559,
                    "duration": 0.34385899999999836
                },
                {
                    "name": "E3",
                    "midi": 52,
                    "time": 28.196437999999983,
                    "velocity": 0.1889763779527559,
                    "duration": 0.34385899999999836
                },
                {
                    "name": "A3",
                    "midi": 57,
                    "time": 28.196437999999983,
                    "velocity": 0.1889763779527559,
                    "duration": 0.34385899999999836
                },
                {
                    "name": "A2",
                    "midi": 45,
                    "time": 28.54029699999998,
                    "velocity": 0.1889763779527559,
                    "duration": 0.3438590000000019
                },
                {
                    "name": "E3",
                    "midi": 52,
                    "time": 28.54029699999998,
                    "velocity": 0.1889763779527559,
                    "duration": 0.3438590000000019
                },
                {
                    "name": "A3",
                    "midi": 57,
                    "time": 28.54029699999998,
                    "velocity": 0.1889763779527559,
                    "duration": 0.3438590000000019
                },
                {
                    "name": "E2",
                    "midi": 40,
                    "time": 28.884155999999983,
                    "velocity": 0.2125984251968504,
                    "duration": 0.17192950000000096
                },
                {
                    "name": "E3",
                    "midi": 52,
                    "time": 29.228014999999985,
                    "velocity": 0.15748031496062992,
                    "duration": 0.34385899999999836
                },
                {
                    "name": "E3",
                    "midi": 52,
                    "time": 29.571873999999983,
                    "velocity": 0.2047244094488189,
                    "duration": 0.6877179999999967
                },
                {
                    "name": "B3",
                    "midi": 59,
                    "time": 29.571873999999983,
                    "velocity": 0.2047244094488189,
                    "duration": 0.34385899999999836
                },
                {
                    "name": "A2",
                    "midi": 45,
                    "time": 29.91573299999998,
                    "velocity": 0.2125984251968504,
                    "duration": 0.34385899999999836
                },
                {
                    "name": "E3",
                    "midi": 52,
                    "time": 30.25959199999998,
                    "velocity": 0.18110236220472442,
                    "duration": 0.34385899999999836
                },
                {
                    "name": "A3",
                    "midi": 57,
                    "time": 30.25959199999998,
                    "velocity": 0.18110236220472442,
                    "duration": 0.34385899999999836
                },
                {
                    "name": "A2",
                    "midi": 45,
                    "time": 30.60345099999998,
                    "velocity": 0.18110236220472442,
                    "duration": 0.34385899999999836
                },
                {
                    "name": "E3",
                    "midi": 52,
                    "time": 30.60345099999998,
                    "velocity": 0.18110236220472442,
                    "duration": 0.34385899999999836
                },
                {
                    "name": "A3",
                    "midi": 57,
                    "time": 30.60345099999998,
                    "velocity": 0.18110236220472442,
                    "duration": 0.34385899999999836
                },
                {
                    "name": "D2",
                    "midi": 38,
                    "time": 30.947309999999977,
                    "velocity": 0.2125984251968504,
                    "duration": 0.17192950000000096
                },
                {
                    "name": "F#3",
                    "midi": 54,
                    "time": 31.29116899999998,
                    "velocity": 0.1889763779527559,
                    "duration": 0.34385899999999836
                },
                {
                    "name": "B3",
                    "midi": 59,
                    "time": 31.29116899999998,
                    "velocity": 0.1889763779527559,
                    "duration": 0.34385899999999836
                },
                {
                    "name": "B2",
                    "midi": 47,
                    "time": 31.635027999999977,
                    "velocity": 0.1889763779527559,
                    "duration": 0.3438590000000019
                },
                {
                    "name": "F#3",
                    "midi": 54,
                    "time": 31.635027999999977,
                    "velocity": 0.1889763779527559,
                    "duration": 0.3438590000000019
                },
                {
                    "name": "B3",
                    "midi": 59,
                    "time": 31.635027999999977,
                    "velocity": 0.1889763779527559,
                    "duration": 0.3438590000000019
                },
                {
                    "name": "E2",
                    "midi": 40,
                    "time": 31.97888699999998,
                    "velocity": 0.2125984251968504,
                    "duration": 0.1719294999999974
                },
                {
                    "name": "E3",
                    "midi": 52,
                    "time": 32.322745999999974,
                    "velocity": 0.1889763779527559,
                    "duration": 0.3438590000000019
                },
                {
                    "name": "B3",
                    "midi": 59,
                    "time": 32.322745999999974,
                    "velocity": 0.1889763779527559,
                    "duration": 0.3438590000000019
                },
                {
                    "name": "E3",
                    "midi": 52,
                    "time": 32.666604999999976,
                    "velocity": 0.1889763779527559,
                    "duration": 0.3438589999999948
                },
                {
                    "name": "B3",
                    "midi": 59,
                    "time": 32.666604999999976,
                    "velocity": 0.1889763779527559,
                    "duration": 0.3438589999999948
                },
                {
                    "name": "A1",
                    "midi": 33,
                    "time": 33.01046399999997,
                    "velocity": 0.25196850393700787,
                    "duration": 0.1719294999999974
                },
                {
                    "name": "A3",
                    "midi": 57,
                    "time": 33.354322999999965,
                    "velocity": 0.1968503937007874,
                    "duration": 0.3438590000000019
                },
                {
                    "name": "E4",
                    "midi": 64,
                    "time": 33.354322999999965,
                    "velocity": 0.23622047244094488,
                    "duration": 0.3438590000000019
                },
                {
                    "name": "A3",
                    "midi": 57,
                    "time": 33.69818199999997,
                    "velocity": 0.47244094488188976,
                    "duration": 0.3438590000000019
                },
                {
                    "name": "E4",
                    "midi": 64,
                    "time": 33.69818199999997,
                    "velocity": 0.47244094488188976,
                    "duration": 0.3438590000000019
                },
                {
                    "name": "D3",
                    "midi": 50,
                    "time": 34.04204099999997,
                    "velocity": 0.5275590551181102,
                    "duration": 0.1719294999999974
                },
                {
                    "name": "D3",
                    "midi": 50,
                    "time": 34.385899999999964,
                    "velocity": 0.4645669291338583,
                    "duration": 0.3438590000000019
                },
                {
                    "name": "A3",
                    "midi": 57,
                    "time": 34.385899999999964,
                    "velocity": 0.4645669291338583,
                    "duration": 0.3438590000000019
                },
                {
                    "name": "D4",
                    "midi": 62,
                    "time": 34.385899999999964,
                    "velocity": 0.4645669291338583,
                    "duration": 0.3438590000000019
                },
                {
                    "name": "D3",
                    "midi": 50,
                    "time": 34.729758999999966,
                    "velocity": 0.4645669291338583,
                    "duration": 0.3438590000000019
                },
                {
                    "name": "A3",
                    "midi": 57,
                    "time": 34.729758999999966,
                    "velocity": 0.4645669291338583,
                    "duration": 0.3438590000000019
                },
                {
                    "name": "D4",
                    "midi": 62,
                    "time": 34.729758999999966,
                    "velocity": 0.4645669291338583,
                    "duration": 0.3438590000000019
                },
                {
                    "name": "A2",
                    "midi": 45,
                    "time": 35.07361799999997,
                    "velocity": 0.5275590551181102,
                    "duration": 0.1719295000000045
                },
                {
                    "name": "E3",
                    "midi": 52,
                    "time": 35.41747699999997,
                    "velocity": 0.4881889763779528,
                    "duration": 0.3438590000000019
                },
                {
                    "name": "A3",
                    "midi": 57,
                    "time": 35.41747699999997,
                    "velocity": 0.4881889763779528,
                    "duration": 0.3438590000000019
                },
                {
                    "name": "C#4",
                    "midi": 61,
                    "time": 35.41747699999997,
                    "velocity": 0.4881889763779528,
                    "duration": 0.3438590000000019
                },
                {
                    "name": "E3",
                    "midi": 52,
                    "time": 35.76133599999997,
                    "velocity": 0.4881889763779528,
                    "duration": 0.3438589999999948
                },
                {
                    "name": "A3",
                    "midi": 57,
                    "time": 35.76133599999997,
                    "velocity": 0.4881889763779528,
                    "duration": 0.3438589999999948
                },
                {
                    "name": "C#4",
                    "midi": 61,
                    "time": 35.76133599999997,
                    "velocity": 0.4881889763779528,
                    "duration": 0.3438589999999948
                },
                {
                    "name": "D2",
                    "midi": 38,
                    "time": 36.105194999999966,
                    "velocity": 0.5275590551181102,
                    "duration": 0.1719295000000045
                },
                {
                    "name": "D3",
                    "midi": 50,
                    "time": 36.44905399999997,
                    "velocity": 0.4881889763779528,
                    "duration": 0.3438590000000019
                },
                {
                    "name": "A3",
                    "midi": 57,
                    "time": 36.44905399999997,
                    "velocity": 0.4881889763779528,
                    "duration": 0.3438590000000019
                },
                {
                    "name": "D4",
                    "midi": 62,
                    "time": 36.44905399999997,
                    "velocity": 0.4881889763779528,
                    "duration": 0.3438590000000019
                },
                {
                    "name": "D3",
                    "midi": 50,
                    "time": 36.79291299999997,
                    "velocity": 0.4881889763779528,
                    "duration": 0.3438590000000019
                },
                {
                    "name": "A3",
                    "midi": 57,
                    "time": 36.79291299999997,
                    "velocity": 0.4881889763779528,
                    "duration": 0.3438590000000019
                },
                {
                    "name": "D4",
                    "midi": 62,
                    "time": 36.79291299999997,
                    "velocity": 0.4881889763779528,
                    "duration": 0.3438590000000019
                },
                {
                    "name": "A2",
                    "midi": 45,
                    "time": 37.13677199999997,
                    "velocity": 0.5275590551181102,
                    "duration": 0.1719295000000045
                },
                {
                    "name": "A3",
                    "midi": 57,
                    "time": 37.480630999999974,
                    "velocity": 0.3858267716535433,
                    "duration": 0.3438590000000019
                },
                {
                    "name": "A3",
                    "midi": 57,
                    "time": 37.824489999999976,
                    "velocity": 0.5039370078740157,
                    "duration": 0.3438590000000019
                },
                {
                    "name": "E4",
                    "midi": 64,
                    "time": 37.824489999999976,
                    "velocity": 0.5039370078740157,
                    "duration": 0.3438590000000019
                },
                {
                    "name": "D3",
                    "midi": 50,
                    "time": 38.16834899999998,
                    "velocity": 0.5275590551181102,
                    "duration": 0.1719295000000045
                },
                {
                    "name": "A3",
                    "midi": 57,
                    "time": 38.51220799999998,
                    "velocity": 0.4645669291338583,
                    "duration": 0.3438590000000019
                },
                {
                    "name": "D4",
                    "midi": 62,
                    "time": 38.51220799999998,
                    "velocity": 0.4645669291338583,
                    "duration": 0.3438590000000019
                },
                {
                    "name": "D3",
                    "midi": 50,
                    "time": 38.85606699999998,
                    "velocity": 0.4645669291338583,
                    "duration": 0.3438590000000019
                },
                {
                    "name": "A3",
                    "midi": 57,
                    "time": 38.85606699999998,
                    "velocity": 0.4645669291338583,
                    "duration": 0.3438590000000019
                },
                {
                    "name": "D4",
                    "midi": 62,
                    "time": 38.85606699999998,
                    "velocity": 0.4645669291338583,
                    "duration": 0.3438590000000019
                },
                {
                    "name": "G2",
                    "midi": 43,
                    "time": 39.199925999999984,
                    "velocity": 0.5275590551181102,
                    "duration": 0.1719295000000045
                },
                {
                    "name": "B3",
                    "midi": 59,
                    "time": 39.543784999999986,
                    "velocity": 0.4881889763779528,
                    "duration": 0.3438590000000019
                },
                {
                    "name": "E4",
                    "midi": 64,
                    "time": 39.543784999999986,
                    "velocity": 0.4881889763779528,
                    "duration": 0.3438590000000019
                },
                {
                    "name": "E3",
                    "midi": 52,
                    "time": 39.88764399999999,
                    "velocity": 0.4881889763779528,
                    "duration": 0.3438590000000019
                },
                {
                    "name": "B3",
                    "midi": 59,
                    "time": 39.88764399999999,
                    "velocity": 0.4881889763779528,
                    "duration": 0.3438590000000019
                },
                {
                    "name": "E4",
                    "midi": 64,
                    "time": 39.88764399999999,
                    "velocity": 0.4881889763779528,
                    "duration": 0.3438590000000019
                },
                {
                    "name": "A2",
                    "midi": 45,
                    "time": 40.23150299999999,
                    "velocity": 0.5275590551181102,
                    "duration": 0.1719295000000045
                },
                {
                    "name": "A3",
                    "midi": 57,
                    "time": 40.57536199999999,
                    "velocity": 0.4881889763779528,
                    "duration": 0.3438590000000019
                },
                {
                    "name": "E4",
                    "midi": 64,
                    "time": 40.57536199999999,
                    "velocity": 0.4881889763779528,
                    "duration": 0.3438590000000019
                },
                {
                    "name": "A3",
                    "midi": 57,
                    "time": 40.91922099999999,
                    "velocity": 0.4881889763779528,
                    "duration": 0.3438589999999948
                },
                {
                    "name": "E4",
                    "midi": 64,
                    "time": 40.91922099999999,
                    "velocity": 0.4881889763779528,
                    "duration": 0.3438589999999948
                },
                {
                    "name": "D2",
                    "midi": 38,
                    "time": 41.26307999999999,
                    "velocity": 0.5275590551181102,
                    "duration": 0.1719295000000045
                },
                {
                    "name": "D3",
                    "midi": 50,
                    "time": 41.60693899999999,
                    "velocity": 0.3228346456692913,
                    "duration": 0.3438590000000019
                },
                {
                    "name": "A3",
                    "midi": 57,
                    "time": 41.60693899999999,
                    "velocity": 0.3228346456692913,
                    "duration": 0.3438590000000019
                },
                {
                    "name": "D4",
                    "midi": 62,
                    "time": 41.60693899999999,
                    "velocity": 0.3858267716535433,
                    "duration": 0.3438590000000019
                },
                {
                    "name": "D3",
                    "midi": 50,
                    "time": 41.95079799999999,
                    "velocity": 0.3464566929133858,
                    "duration": 0.6877179999999967
                },
                {
                    "name": "A3",
                    "midi": 57,
                    "time": 41.95079799999999,
                    "velocity": 0.3464566929133858,
                    "duration": 0.6877179999999967
                },
                {
                    "name": "D4",
                    "midi": 62,
                    "time": 41.95079799999999,
                    "velocity": 0.3464566929133858,
                    "duration": 0.6877179999999967
                },
                {
                    "name": "D3",
                    "midi": 50,
                    "time": 42.63851599999999,
                    "velocity": 0.18110236220472442,
                    "duration": 0.3438590000000019
                },
                {
                    "name": "A3",
                    "midi": 57,
                    "time": 42.63851599999999,
                    "velocity": 0.18110236220472442,
                    "duration": 0.3438590000000019
                },
                {
                    "name": "D4",
                    "midi": 62,
                    "time": 42.63851599999999,
                    "velocity": 0.18110236220472442,
                    "duration": 0.3438590000000019
                },
                {
                    "name": "D3",
                    "midi": 50,
                    "time": 42.98237499999999,
                    "velocity": 0.18110236220472442,
                    "duration": 0.3438590000000019
                },
                {
                    "name": "A3",
                    "midi": 57,
                    "time": 42.98237499999999,
                    "velocity": 0.18110236220472442,
                    "duration": 0.3438590000000019
                },
                {
                    "name": "D4",
                    "midi": 62,
                    "time": 42.98237499999999,
                    "velocity": 0.18110236220472442,
                    "duration": 0.3438590000000019
                },
                {
                    "name": "A2",
                    "midi": 45,
                    "time": 43.32623399999999,
                    "velocity": 0.2125984251968504,
                    "duration": 0.1719294999999974
                },
                {
                    "name": "E3",
                    "midi": 52,
                    "time": 43.67009299999999,
                    "velocity": 0.1889763779527559,
                    "duration": 0.3438590000000019
                },
                {
                    "name": "A3",
                    "midi": 57,
                    "time": 43.67009299999999,
                    "velocity": 0.1889763779527559,
                    "duration": 0.3438590000000019
                },
                {
                    "name": "C#4",
                    "midi": 61,
                    "time": 43.67009299999999,
                    "velocity": 0.1889763779527559,
                    "duration": 0.3438590000000019
                },
                {
                    "name": "E3",
                    "midi": 52,
                    "time": 44.01395199999999,
                    "velocity": 0.1889763779527559,
                    "duration": 0.3438589999999948
                },
                {
                    "name": "A3",
                    "midi": 57,
                    "time": 44.01395199999999,
                    "velocity": 0.1889763779527559,
                    "duration": 0.3438589999999948
                },
                {
                    "name": "C#4",
                    "midi": 61,
                    "time": 44.01395199999999,
                    "velocity": 0.1889763779527559,
                    "duration": 0.3438589999999948
                },
                {
                    "name": "D2",
                    "midi": 38,
                    "time": 44.357810999999984,
                    "velocity": 0.2125984251968504,
                    "duration": 0.1719295000000045
                },
                {
                    "name": "D3",
                    "midi": 50,
                    "time": 44.701669999999986,
                    "velocity": 0.1889763779527559,
                    "duration": 0.3438590000000019
                },
                {
                    "name": "A3",
                    "midi": 57,
                    "time": 44.701669999999986,
                    "velocity": 0.1889763779527559,
                    "duration": 0.3438590000000019
                },
                {
                    "name": "D4",
                    "midi": 62,
                    "time": 44.701669999999986,
                    "velocity": 0.1889763779527559,
                    "duration": 0.3438590000000019
                },
                {
                    "name": "D3",
                    "midi": 50,
                    "time": 45.04552899999999,
                    "velocity": 0.1889763779527559,
                    "duration": 0.3438590000000019
                },
                {
                    "name": "A3",
                    "midi": 57,
                    "time": 45.04552899999999,
                    "velocity": 0.1889763779527559,
                    "duration": 0.3438590000000019
                },
                {
                    "name": "D4",
                    "midi": 62,
                    "time": 45.04552899999999,
                    "velocity": 0.1889763779527559,
                    "duration": 0.3438590000000019
                },
                {
                    "name": "A2",
                    "midi": 45,
                    "time": 45.38938799999999,
                    "velocity": 0.2125984251968504,
                    "duration": 0.1719295000000045
                },
                {
                    "name": "C#4",
                    "midi": 61,
                    "time": 45.73324699999999,
                    "velocity": 0.15748031496062992,
                    "duration": 0.3438590000000019
                },
                {
                    "name": "A3",
                    "midi": 57,
                    "time": 45.73324699999999,
                    "velocity": 0.15748031496062992,
                    "duration": 0.3438590000000019
                },
                {
                    "name": "A3",
                    "midi": 57,
                    "time": 46.07710599999999,
                    "velocity": 0.2047244094488189,
                    "duration": 0.6877180000000038
                },
                {
                    "name": "E4",
                    "midi": 64,
                    "time": 46.07710599999999,
                    "velocity": 0.2047244094488189,
                    "duration": 0.3438590000000019
                },
                {
                    "name": "D3",
                    "midi": 50,
                    "time": 46.420964999999995,
                    "velocity": 0.2125984251968504,
                    "duration": 0.3438590000000019
                },
                {
                    "name": "A3",
                    "midi": 57,
                    "time": 46.764824,
                    "velocity": 0.18110236220472442,
                    "duration": 0.3438590000000019
                },
                {
                    "name": "D4",
                    "midi": 62,
                    "time": 46.764824,
                    "velocity": 0.18110236220472442,
                    "duration": 0.3438590000000019
                },
                {
                    "name": "D3",
                    "midi": 50,
                    "time": 47.108683,
                    "velocity": 0.18110236220472442,
                    "duration": 0.3438590000000019
                },
                {
                    "name": "A3",
                    "midi": 57,
                    "time": 47.108683,
                    "velocity": 0.18110236220472442,
                    "duration": 0.3438590000000019
                },
                {
                    "name": "D4",
                    "midi": 62,
                    "time": 47.108683,
                    "velocity": 0.18110236220472442,
                    "duration": 0.3438590000000019
                },
                {
                    "name": "G2",
                    "midi": 43,
                    "time": 47.452542,
                    "velocity": 0.2125984251968504,
                    "duration": 0.1719295000000045
                },
                {
                    "name": "B3",
                    "midi": 59,
                    "time": 47.796401,
                    "velocity": 0.1889763779527559,
                    "duration": 0.3438590000000019
                },
                {
                    "name": "E4",
                    "midi": 64,
                    "time": 47.796401,
                    "velocity": 0.1889763779527559,
                    "duration": 0.3438590000000019
                },
                {
                    "name": "E3",
                    "midi": 52,
                    "time": 48.140260000000005,
                    "velocity": 0.1889763779527559,
                    "duration": 0.3438590000000019
                },
                {
                    "name": "B3",
                    "midi": 59,
                    "time": 48.140260000000005,
                    "velocity": 0.1889763779527559,
                    "duration": 0.3438590000000019
                },
                {
                    "name": "E4",
                    "midi": 64,
                    "time": 48.140260000000005,
                    "velocity": 0.1889763779527559,
                    "duration": 0.3438590000000019
                },
                {
                    "name": "A2",
                    "midi": 45,
                    "time": 48.48411900000001,
                    "velocity": 0.2125984251968504,
                    "duration": 0.1719295000000045
                },
                {
                    "name": "A3",
                    "midi": 57,
                    "time": 48.82797800000001,
                    "velocity": 0.1889763779527559,
                    "duration": 0.3438590000000019
                },
                {
                    "name": "E4",
                    "midi": 64,
                    "time": 48.82797800000001,
                    "velocity": 0.1889763779527559,
                    "duration": 0.3438590000000019
                },
                {
                    "name": "A3",
                    "midi": 57,
                    "time": 49.17183700000001,
                    "velocity": 0.1889763779527559,
                    "duration": 0.3438589999999948
                },
                {
                    "name": "E4",
                    "midi": 64,
                    "time": 49.17183700000001,
                    "velocity": 0.1889763779527559,
                    "duration": 0.3438589999999948
                },
                {
                    "name": "D2",
                    "midi": 38,
                    "time": 49.515696000000005,
                    "velocity": 0.2125984251968504,
                    "duration": 0.3438590000000019
                },
                {
                    "name": "D3",
                    "midi": 50,
                    "time": 49.85955500000001,
                    "velocity": 0.13385826771653545,
                    "duration": 0.3438590000000019
                },
                {
                    "name": "A3",
                    "midi": 57,
                    "time": 49.85955500000001,
                    "velocity": 0.13385826771653545,
                    "duration": 0.3438590000000019
                },
                {
                    "name": "D4",
                    "midi": 62,
                    "time": 49.85955500000001,
                    "velocity": 0.15748031496062992,
                    "duration": 0.3438590000000019
                },
                {
                    "name": "D3",
                    "midi": 50,
                    "time": 50.20341400000001,
                    "velocity": 0.2047244094488189,
                    "duration": 0.3438590000000019
                },
                {
                    "name": "A3",
                    "midi": 57,
                    "time": 50.20341400000001,
                    "velocity": 0.2047244094488189,
                    "duration": 0.3438590000000019
                },
                {
                    "name": "D4",
                    "midi": 62,
                    "time": 50.20341400000001,
                    "velocity": 0.2047244094488189,
                    "duration": 0.3438590000000019
                },
                {
                    "name": "A#2",
                    "midi": 46,
                    "time": 50.54727300000001,
                    "velocity": 0.3464566929133858,
                    "duration": 0.3438589999999948
                },
                {
                    "name": "D4",
                    "midi": 62,
                    "time": 50.891132000000006,
                    "velocity": 0.31496062992125984,
                    "duration": 0.3438590000000019
                },
                {
                    "name": "A#3",
                    "midi": 58,
                    "time": 50.891132000000006,
                    "velocity": 0.25984251968503935,
                    "duration": 0.3438590000000019
                },
                {
                    "name": "F3",
                    "midi": 53,
                    "time": 50.891132000000006,
                    "velocity": 0.25984251968503935,
                    "duration": 0.3438590000000019
                },
                {
                    "name": "F3",
                    "midi": 53,
                    "time": 51.23499100000001,
                    "velocity": 0.2677165354330709,
                    "duration": 0.3438590000000019
                },
                {
                    "name": "D4",
                    "midi": 62,
                    "time": 51.23499100000001,
                    "velocity": 0.3228346456692913,
                    "duration": 0.3438590000000019
                },
                {
                    "name": "A#3",
                    "midi": 58,
                    "time": 51.23499100000001,
                    "velocity": 0.2677165354330709,
                    "duration": 0.3438590000000019
                },
                {
                    "name": "F2",
                    "midi": 41,
                    "time": 51.57885000000001,
                    "velocity": 0.36220472440944884,
                    "duration": 0.343859000000009
                },
                {
                    "name": "D#4",
                    "midi": 63,
                    "time": 51.92270900000002,
                    "velocity": 0.33858267716535434,
                    "duration": 0.3438590000000019
                },
                {
                    "name": "C4",
                    "midi": 60,
                    "time": 51.92270900000002,
                    "velocity": 0.2755905511811024,
                    "duration": 0.3438590000000019
                },
                {
                    "name": "F3",
                    "midi": 53,
                    "time": 51.92270900000002,
                    "velocity": 0.2755905511811024,
                    "duration": 0.3438590000000019
                },
                {
                    "name": "D#4",
                    "midi": 63,
                    "time": 52.26656800000002,
                    "velocity": 0.3464566929133858,
                    "duration": 0.3438590000000019
                },
                {
                    "name": "C4",
                    "midi": 60,
                    "time": 52.26656800000002,
                    "velocity": 0.28346456692913385,
                    "duration": 0.3438590000000019
                },
                {
                    "name": "F3",
                    "midi": 53,
                    "time": 52.26656800000002,
                    "velocity": 0.28346456692913385,
                    "duration": 0.3438590000000019
                },
                {
                    "name": "A#2",
                    "midi": 46,
                    "time": 52.61042700000002,
                    "velocity": 0.3858267716535433,
                    "duration": 0.3438590000000019
                },
                {
                    "name": "D4",
                    "midi": 62,
                    "time": 52.954286000000025,
                    "velocity": 0.3543307086614173,
                    "duration": 0.3438590000000019
                },
                {
                    "name": "A#3",
                    "midi": 58,
                    "time": 52.954286000000025,
                    "velocity": 0.29133858267716534,
                    "duration": 0.3438590000000019
                },
                {
                    "name": "F3",
                    "midi": 53,
                    "time": 52.954286000000025,
                    "velocity": 0.29133858267716534,
                    "duration": 0.3438590000000019
                },
                {
                    "name": "F3",
                    "midi": 53,
                    "time": 53.29814500000003,
                    "velocity": 0.2992125984251969,
                    "duration": 0.3438589999999948
                },
                {
                    "name": "D4",
                    "midi": 62,
                    "time": 53.29814500000003,
                    "velocity": 0.36220472440944884,
                    "duration": 0.3438589999999948
                },
                {
                    "name": "A#3",
                    "midi": 58,
                    "time": 53.29814500000003,
                    "velocity": 0.2992125984251969,
                    "duration": 0.3438589999999948
                },
                {
                    "name": "A2",
                    "midi": 45,
                    "time": 53.64200400000002,
                    "velocity": 0.4015748031496063,
                    "duration": 0.6017532500000016
                },
                {
                    "name": "C4",
                    "midi": 60,
                    "time": 53.98586300000002,
                    "velocity": 0.3700787401574803,
                    "duration": 0.25789424999999966
                },
                {
                    "name": "G2",
                    "midi": 43,
                    "time": 54.24375725000002,
                    "velocity": 0.3779527559055118,
                    "duration": 0.08596475000000225
                },
                {
                    "name": "F2",
                    "midi": 41,
                    "time": 54.329722000000025,
                    "velocity": 0.4881889763779528,
                    "duration": 0.3438590000000019
                },
                {
                    "name": "C2",
                    "midi": 36,
                    "time": 54.67358100000003,
                    "velocity": 0.4330708661417323,
                    "duration": 0.3438590000000019
                },
                {
                    "name": "C3",
                    "midi": 48,
                    "time": 54.67358100000003,
                    "velocity": 0.5039370078740157,
                    "duration": 0.3438590000000019
                },
                {
                    "name": "G4",
                    "midi": 67,
                    "time": 55.01744000000003,
                    "velocity": 0.5039370078740157,
                    "duration": 0.3438590000000019
                },
                {
                    "name": "C4",
                    "midi": 60,
                    "time": 55.01744000000003,
                    "velocity": 0.4330708661417323,
                    "duration": 0.3438590000000019
                },
                {
                    "name": "F2",
                    "midi": 41,
                    "time": 55.70515800000003,
                    "velocity": 0.5039370078740157,
                    "duration": 0.1719294999999974
                },
                {
                    "name": "B3",
                    "midi": 59,
                    "time": 55.96305225000003,
                    "velocity": 0.5118110236220472,
                    "duration": 0.08596475000000225
                },
                {
                    "name": "C4",
                    "midi": 60,
                    "time": 56.049017000000035,
                    "velocity": 0.5669291338582677,
                    "duration": 0.25789424999999966
                },
                {
                    "name": "C#4",
                    "midi": 61,
                    "time": 56.306911250000034,
                    "velocity": 0.5354330708661418,
                    "duration": 0.08596475000000225
                },
                {
                    "name": "C4",
                    "midi": 60,
                    "time": 56.39287600000004,
                    "velocity": 0.5669291338582677,
                    "duration": 0.3438589999999948
                },
                {
                    "name": "C3",
                    "midi": 48,
                    "time": 56.73673500000003,
                    "velocity": 0.4566929133858268,
                    "duration": 0.1719294999999974
                },
                {
                    "name": "B3",
                    "midi": 59,
                    "time": 56.99462925000003,
                    "velocity": 0.4566929133858268,
                    "duration": 0.08596475000000225
                },
                {
                    "name": "C4",
                    "midi": 60,
                    "time": 57.08059400000003,
                    "velocity": 0.49606299212598426,
                    "duration": 0.25789424999999966
                },
                {
                    "name": "D4",
                    "midi": 62,
                    "time": 57.33848825000003,
                    "velocity": 0.4566929133858268,
                    "duration": 0.08596475000000225
                },
                {
                    "name": "C4",
                    "midi": 60,
                    "time": 57.424453000000035,
                    "velocity": 0.4881889763779528,
                    "duration": 0.3438589999999948
                },
                {
                    "name": "F3",
                    "midi": 53,
                    "time": 57.76831200000003,
                    "velocity": 0.4094488188976378,
                    "duration": 0.1719294999999974
                },
                {
                    "name": "B3",
                    "midi": 59,
                    "time": 58.02620625000003,
                    "velocity": 0.36220472440944884,
                    "duration": 0.08596475000000225
                },
                {
                    "name": "C4",
                    "midi": 60,
                    "time": 58.11217100000003,
                    "velocity": 0.4251968503937008,
                    "duration": 0.25789424999999966
                },
                {
                    "name": "E4",
                    "midi": 64,
                    "time": 58.37006525000003,
                    "velocity": 0.3543307086614173,
                    "duration": 0.08596475000000225
                },
                {
                    "name": "F4",
                    "midi": 65,
                    "time": 58.456030000000034,
                    "velocity": 0.3700787401574803,
                    "duration": 0.3438590000000019
                },
                {
                    "name": "A#2",
                    "midi": 46,
                    "time": 58.799889000000036,
                    "velocity": 0.3464566929133858,
                    "duration": 0.3438590000000019
                },
                {
                    "name": "D4",
                    "midi": 62,
                    "time": 59.14374800000004,
                    "velocity": 0.31496062992125984,
                    "duration": 0.3438590000000019
                },
                {
                    "name": "A#3",
                    "midi": 58,
                    "time": 59.14374800000004,
                    "velocity": 0.25984251968503935,
                    "duration": 0.3438590000000019
                },
                {
                    "name": "F3",
                    "midi": 53,
                    "time": 59.14374800000004,
                    "velocity": 0.25984251968503935,
                    "duration": 0.3438590000000019
                },
                {
                    "name": "F3",
                    "midi": 53,
                    "time": 59.48760700000004,
                    "velocity": 0.2677165354330709,
                    "duration": 0.3438589999999948
                },
                {
                    "name": "D4",
                    "midi": 62,
                    "time": 59.48760700000004,
                    "velocity": 0.3228346456692913,
                    "duration": 0.3438589999999948
                },
                {
                    "name": "A#3",
                    "midi": 58,
                    "time": 59.48760700000004,
                    "velocity": 0.2677165354330709,
                    "duration": 0.3438589999999948
                },
                {
                    "name": "A2",
                    "midi": 45,
                    "time": 59.831466000000034,
                    "velocity": 0.36220472440944884,
                    "duration": 0.3438589999999948
                },
                {
                    "name": "D#4",
                    "midi": 63,
                    "time": 60.17532500000003,
                    "velocity": 0.33858267716535434,
                    "duration": 0.3438590000000019
                },
                {
                    "name": "C4",
                    "midi": 60,
                    "time": 60.17532500000003,
                    "velocity": 0.2755905511811024,
                    "duration": 0.3438590000000019
                },
                {
                    "name": "F3",
                    "midi": 53,
                    "time": 60.17532500000003,
                    "velocity": 0.2755905511811024,
                    "duration": 0.3438590000000019
                },
                {
                    "name": "D#4",
                    "midi": 63,
                    "time": 60.51918400000003,
                    "velocity": 0.3464566929133858,
                    "duration": 0.3438590000000019
                },
                {
                    "name": "C4",
                    "midi": 60,
                    "time": 60.51918400000003,
                    "velocity": 0.28346456692913385,
                    "duration": 0.3438590000000019
                },
                {
                    "name": "F3",
                    "midi": 53,
                    "time": 60.51918400000003,
                    "velocity": 0.28346456692913385,
                    "duration": 0.3438590000000019
                },
                {
                    "name": "A#2",
                    "midi": 46,
                    "time": 60.86304300000003,
                    "velocity": 0.3858267716535433,
                    "duration": 0.3438590000000019
                },
                {
                    "name": "C#4",
                    "midi": 61,
                    "time": 61.206902000000035,
                    "velocity": 0.3543307086614173,
                    "duration": 0.3438590000000019
                },
                {
                    "name": "A#3",
                    "midi": 58,
                    "time": 61.206902000000035,
                    "velocity": 0.29133858267716534,
                    "duration": 0.3438590000000019
                },
                {
                    "name": "F3",
                    "midi": 53,
                    "time": 61.206902000000035,
                    "velocity": 0.29133858267716534,
                    "duration": 0.3438590000000019
                },
                {
                    "name": "F3",
                    "midi": 53,
                    "time": 61.55076100000004,
                    "velocity": 0.29133858267716534,
                    "duration": 0.3438589999999948
                },
                {
                    "name": "C#4",
                    "midi": 61,
                    "time": 61.55076100000004,
                    "velocity": 0.3543307086614173,
                    "duration": 0.3438589999999948
                },
                {
                    "name": "A#3",
                    "midi": 58,
                    "time": 61.55076100000004,
                    "velocity": 0.29133858267716534,
                    "duration": 0.3438589999999948
                },
                {
                    "name": "G#2",
                    "midi": 44,
                    "time": 61.89462000000003,
                    "velocity": 0.41732283464566927,
                    "duration": 0.3438590000000019
                },
                {
                    "name": "F3",
                    "midi": 53,
                    "time": 62.238479000000034,
                    "velocity": 0.36220472440944884,
                    "duration": 0.25789424999999966
                },
                {
                    "name": "G#3",
                    "midi": 56,
                    "time": 62.238479000000034,
                    "velocity": 0.36220472440944884,
                    "duration": 0.25789424999999966
                },
                {
                    "name": "F4",
                    "midi": 65,
                    "time": 62.238479000000034,
                    "velocity": 0.4251968503937008,
                    "duration": 0.25789424999999966
                },
                {
                    "name": "C#4",
                    "midi": 61,
                    "time": 62.238479000000034,
                    "velocity": 0.36220472440944884,
                    "duration": 0.25789424999999966
                },
                {
                    "name": "A#2",
                    "midi": 46,
                    "time": 62.49637325000003,
                    "velocity": 0.4251968503937008,
                    "duration": 0.08596475000000225
                },
                {
                    "name": "G#2",
                    "midi": 44,
                    "time": 62.582338000000036,
                    "velocity": 0.5275590551181102,
                    "duration": 0.3438590000000019
                },
                {
                    "name": "G#1",
                    "midi": 32,
                    "time": 62.92619700000004,
                    "velocity": 0.5511811023622047,
                    "duration": 0.3438590000000019
                },
                {
                    "name": "D#4",
                    "midi": 63,
                    "time": 63.27005600000004,
                    "velocity": 0.5511811023622047,
                    "duration": 0.3438590000000019
                },
                {
                    "name": "G#3",
                    "midi": 56,
                    "time": 63.27005600000004,
                    "velocity": 0.47244094488188976,
                    "duration": 0.3438590000000019
                },
                {
                    "name": "C#2",
                    "midi": 37,
                    "time": 63.95777400000004,
                    "velocity": 0.5433070866141733,
                    "duration": 0.1719295000000045
                },
                {
                    "name": "G3",
                    "midi": 55,
                    "time": 64.21566825000005,
                    "velocity": 0.5748031496062992,
                    "duration": 0.08596475000000225
                },
                {
                    "name": "G#3",
                    "midi": 56,
                    "time": 64.30163300000005,
                    "velocity": 0.6062992125984252,
                    "duration": 0.25789425000000676
                },
                {
                    "name": "A#3",
                    "midi": 58,
                    "time": 64.55952725000006,
                    "velocity": 0.5669291338582677,
                    "duration": 0.08596475000000225
                },
                {
                    "name": "G#3",
                    "midi": 56,
                    "time": 64.64549200000006,
                    "velocity": 0.5905511811023622,
                    "duration": 0.3438589999999948
                },
                {
                    "name": "G#2",
                    "midi": 44,
                    "time": 64.98935100000006,
                    "velocity": 0.47244094488188976,
                    "duration": 0.1719295000000045
                },
                {
                    "name": "G3",
                    "midi": 55,
                    "time": 65.24724525000006,
                    "velocity": 0.47244094488188976,
                    "duration": 0.08596475000000225
                },
                {
                    "name": "G#3",
                    "midi": 56,
                    "time": 65.33321000000007,
                    "velocity": 0.5118110236220472,
                    "duration": 0.25789425000000676
                },
                {
                    "name": "A3",
                    "midi": 57,
                    "time": 65.59110425000007,
                    "velocity": 0.49606299212598426,
                    "duration": 0.08596475000000225
                },
                {
                    "name": "G#3",
                    "midi": 56,
                    "time": 65.67706900000007,
                    "velocity": 0.5039370078740157,
                    "duration": 0.3438589999999948
                },
                {
                    "name": "C#3",
                    "midi": 49,
                    "time": 66.02092800000007,
                    "velocity": 0.41732283464566927,
                    "duration": 0.1719295000000045
                },
                {
                    "name": "G3",
                    "midi": 55,
                    "time": 66.27882225000008,
                    "velocity": 0.36220472440944884,
                    "duration": 0.08596475000000225
                },
                {
                    "name": "G#3",
                    "midi": 56,
                    "time": 66.36478700000008,
                    "velocity": 0.4330708661417323,
                    "duration": 0.25789425000000676
                },
                {
                    "name": "C4",
                    "midi": 60,
                    "time": 66.62268125000008,
                    "velocity": 0.3543307086614173,
                    "duration": 0.08596475000000225
                },
                {
                    "name": "C#4",
                    "midi": 61,
                    "time": 66.70864600000009,
                    "velocity": 0.3700787401574803,
                    "duration": 0.343859000000009
                },
                {
                    "name": "F2",
                    "midi": 41,
                    "time": 67.0525050000001,
                    "velocity": 0.31496062992125984,
                    "duration": 0.1719295000000045
                },
                {
                    "name": "B3",
                    "midi": 59,
                    "time": 67.3963640000001,
                    "velocity": 0.2755905511811024,
                    "duration": 0.3438589999999948
                },
                {
                    "name": "F3",
                    "midi": 53,
                    "time": 67.3963640000001,
                    "velocity": 0.2283464566929134,
                    "duration": 0.3438589999999948
                },
                {
                    "name": "F3",
                    "midi": 53,
                    "time": 67.7402230000001,
                    "velocity": 0.23622047244094488,
                    "duration": 0.3438589999999948
                },
                {
                    "name": "B3",
                    "midi": 59,
                    "time": 67.7402230000001,
                    "velocity": 0.28346456692913385,
                    "duration": 0.3438589999999948
                },
                {
                    "name": "F#2",
                    "midi": 42,
                    "time": 68.0840820000001,
                    "velocity": 0.33858267716535434,
                    "duration": 0.1719295000000045
                },
                {
                    "name": "A3",
                    "midi": 57,
                    "time": 68.4279410000001,
                    "velocity": 0.29133858267716534,
                    "duration": 0.3438589999999948
                },
                {
                    "name": "F#3",
                    "midi": 54,
                    "time": 68.4279410000001,
                    "velocity": 0.2440944881889764,
                    "duration": 0.3438589999999948
                },
                {
                    "name": "F#3",
                    "midi": 54,
                    "time": 68.7718000000001,
                    "velocity": 0.25196850393700787,
                    "duration": 0.3438589999999948
                },
                {
                    "name": "A3",
                    "midi": 57,
                    "time": 68.7718000000001,
                    "velocity": 0.2992125984251969,
                    "duration": 0.3438589999999948
                },
                {
                    "name": "F2",
                    "midi": 41,
                    "time": 69.1156590000001,
                    "velocity": 0.3543307086614173,
                    "duration": 0.1719294999999903
                },
                {
                    "name": "B3",
                    "midi": 59,
                    "time": 69.45951800000009,
                    "velocity": 0.31496062992125984,
                    "duration": 0.3438589999999948
                },
                {
                    "name": "F3",
                    "midi": 53,
                    "time": 69.45951800000009,
                    "velocity": 0.25984251968503935,
                    "duration": 0.3438589999999948
                },
                {
                    "name": "F3",
                    "midi": 53,
                    "time": 69.80337700000008,
                    "velocity": 0.2677165354330709,
                    "duration": 0.3438589999999948
                },
                {
                    "name": "B3",
                    "midi": 59,
                    "time": 69.80337700000008,
                    "velocity": 0.31496062992125984,
                    "duration": 0.3438589999999948
                },
                {
                    "name": "F#2",
                    "midi": 42,
                    "time": 70.14723600000008,
                    "velocity": 0.3779527559055118,
                    "duration": 0.1719295000000045
                },
                {
                    "name": "A3",
                    "midi": 57,
                    "time": 70.49109500000009,
                    "velocity": 0.33070866141732286,
                    "duration": 0.3438589999999948
                },
                {
                    "name": "F#3",
                    "midi": 54,
                    "time": 70.49109500000009,
                    "velocity": 0.2755905511811024,
                    "duration": 0.3438589999999948
                },
                {
                    "name": "F#3",
                    "midi": 54,
                    "time": 70.83495400000008,
                    "velocity": 0.28346456692913385,
                    "duration": 0.343859000000009
                },
                {
                    "name": "A3",
                    "midi": 57,
                    "time": 70.83495400000008,
                    "velocity": 0.33858267716535434,
                    "duration": 0.343859000000009
                },
                {
                    "name": "E2",
                    "midi": 40,
                    "time": 71.17881300000009,
                    "velocity": 0.4015748031496063,
                    "duration": 0.1719294999999903
                },
                {
                    "name": "B3",
                    "midi": 59,
                    "time": 71.52267200000009,
                    "velocity": 0.3464566929133858,
                    "duration": 0.3438589999999948
                },
                {
                    "name": "E3",
                    "midi": 52,
                    "time": 71.52267200000009,
                    "velocity": 0.29133858267716534,
                    "duration": 0.3438589999999948
                },
                {
                    "name": "E3",
                    "midi": 52,
                    "time": 71.86653100000008,
                    "velocity": 0.29133858267716534,
                    "duration": 0.3438589999999948
                },
                {
                    "name": "B3",
                    "midi": 59,
                    "time": 71.86653100000008,
                    "velocity": 0.3464566929133858,
                    "duration": 0.3438589999999948
                },
                {
                    "name": "A2",
                    "midi": 45,
                    "time": 72.21039000000007,
                    "velocity": 0.4015748031496063,
                    "duration": 0.1719295000000045
                },
                {
                    "name": "A3",
                    "midi": 57,
                    "time": 72.55424900000008,
                    "velocity": 0.3464566929133858,
                    "duration": 0.3438589999999948
                },
                {
                    "name": "E3",
                    "midi": 52,
                    "time": 72.55424900000008,
                    "velocity": 0.29133858267716534,
                    "duration": 0.3438589999999948
                },
                {
                    "name": "E3",
                    "midi": 52,
                    "time": 72.89810800000008,
                    "velocity": 0.29133858267716534,
                    "duration": 0.343859000000009
                },
                {
                    "name": "A3",
                    "midi": 57,
                    "time": 72.89810800000008,
                    "velocity": 0.3464566929133858,
                    "duration": 0.343859000000009
                },
                {
                    "name": "E2",
                    "midi": 40,
                    "time": 73.24196700000009,
                    "velocity": 0.4015748031496063,
                    "duration": 0.1719294999999903
                },
                {
                    "name": "B3",
                    "midi": 59,
                    "time": 73.58582600000008,
                    "velocity": 0.3464566929133858,
                    "duration": 0.3438589999999948
                },
                {
                    "name": "E3",
                    "midi": 52,
                    "time": 73.58582600000008,
                    "velocity": 0.29133858267716534,
                    "duration": 0.3438589999999948
                },
                {
                    "name": "E3",
                    "midi": 52,
                    "time": 73.92968500000008,
                    "velocity": 0.29133858267716534,
                    "duration": 0.3438589999999948
                },
                {
                    "name": "B3",
                    "midi": 59,
                    "time": 73.92968500000008,
                    "velocity": 0.3464566929133858,
                    "duration": 0.3438589999999948
                },
                {
                    "name": "A2",
                    "midi": 45,
                    "time": 74.27354400000007,
                    "velocity": 0.4015748031496063,
                    "duration": 0.1719295000000045
                },
                {
                    "name": "A3",
                    "midi": 57,
                    "time": 74.61740300000008,
                    "velocity": 0.3464566929133858,
                    "duration": 0.3438589999999948
                },
                {
                    "name": "E3",
                    "midi": 52,
                    "time": 74.61740300000008,
                    "velocity": 0.29133858267716534,
                    "duration": 0.3438589999999948
                },
                {
                    "name": "E3",
                    "midi": 52,
                    "time": 74.96126200000008,
                    "velocity": 0.29133858267716534,
                    "duration": 0.3438589999999948
                },
                {
                    "name": "A3",
                    "midi": 57,
                    "time": 74.96126200000008,
                    "velocity": 0.3464566929133858,
                    "duration": 0.3438589999999948
                },
                {
                    "name": "F2",
                    "midi": 41,
                    "time": 75.30512100000007,
                    "velocity": 0.31496062992125984,
                    "duration": 0.1719294999999903
                },
                {
                    "name": "B3",
                    "midi": 59,
                    "time": 75.64898000000007,
                    "velocity": 0.2755905511811024,
                    "duration": 0.3438589999999948
                },
                {
                    "name": "F3",
                    "midi": 53,
                    "time": 75.64898000000007,
                    "velocity": 0.2283464566929134,
                    "duration": 0.3438589999999948
                },
                {
                    "name": "F3",
                    "midi": 53,
                    "time": 75.99283900000006,
                    "velocity": 0.2283464566929134,
                    "duration": 0.3438589999999948
                },
                {
                    "name": "B3",
                    "midi": 59,
                    "time": 75.99283900000006,
                    "velocity": 0.2755905511811024,
                    "duration": 0.3438589999999948
                },
                {
                    "name": "F#2",
                    "midi": 42,
                    "time": 76.33669800000006,
                    "velocity": 0.3228346456692913,
                    "duration": 0.1719295000000045
                },
                {
                    "name": "A3",
                    "midi": 57,
                    "time": 76.68055700000006,
                    "velocity": 0.28346456692913385,
                    "duration": 0.3438589999999948
                },
                {
                    "name": "F#3",
                    "midi": 54,
                    "time": 76.68055700000006,
                    "velocity": 0.23622047244094488,
                    "duration": 0.3438589999999948
                },
                {
                    "name": "F#3",
                    "midi": 54,
                    "time": 77.02441600000006,
                    "velocity": 0.2440944881889764,
                    "duration": 0.343859000000009
                },
                {
                    "name": "A3",
                    "midi": 57,
                    "time": 77.02441600000006,
                    "velocity": 0.28346456692913385,
                    "duration": 0.343859000000009
                },
                {
                    "name": "F2",
                    "midi": 41,
                    "time": 77.36827500000007,
                    "velocity": 0.33858267716535434,
                    "duration": 0.1719294999999903
                },
                {
                    "name": "B3",
                    "midi": 59,
                    "time": 77.71213400000006,
                    "velocity": 0.29133858267716534,
                    "duration": 0.3438589999999948
                },
                {
                    "name": "F3",
                    "midi": 53,
                    "time": 77.71213400000006,
                    "velocity": 0.2440944881889764,
                    "duration": 0.3438589999999948
                },
                {
                    "name": "F3",
                    "midi": 53,
                    "time": 78.05599300000006,
                    "velocity": 0.2440944881889764,
                    "duration": 0.3438589999999948
                },
                {
                    "name": "B3",
                    "midi": 59,
                    "time": 78.05599300000006,
                    "velocity": 0.29133858267716534,
                    "duration": 0.3438589999999948
                },
                {
                    "name": "F#2",
                    "midi": 42,
                    "time": 78.39985200000005,
                    "velocity": 0.3464566929133858,
                    "duration": 0.1719295000000045
                },
                {
                    "name": "A3",
                    "midi": 57,
                    "time": 78.74371100000006,
                    "velocity": 0.2992125984251969,
                    "duration": 0.3438589999999948
                },
                {
                    "name": "F#3",
                    "midi": 54,
                    "time": 78.74371100000006,
                    "velocity": 0.25196850393700787,
                    "duration": 0.3438589999999948
                },
                {
                    "name": "F#3",
                    "midi": 54,
                    "time": 79.08757000000006,
                    "velocity": 0.25196850393700787,
                    "duration": 0.343859000000009
                },
                {
                    "name": "A3",
                    "midi": 57,
                    "time": 79.08757000000006,
                    "velocity": 0.30708661417322836,
                    "duration": 0.343859000000009
                },
                {
                    "name": "E2",
                    "midi": 40,
                    "time": 79.43142900000007,
                    "velocity": 0.3543307086614173,
                    "duration": 0.1719294999999903
                },
                {
                    "name": "B3",
                    "midi": 59,
                    "time": 79.77528800000006,
                    "velocity": 0.30708661417322836,
                    "duration": 0.3438589999999948
                },
                {
                    "name": "E3",
                    "midi": 52,
                    "time": 79.77528800000006,
                    "velocity": 0.25984251968503935,
                    "duration": 0.3438589999999948
                },
                {
                    "name": "E3",
                    "midi": 52,
                    "time": 80.11914700000005,
                    "velocity": 0.25984251968503935,
                    "duration": 0.3438589999999948
                },
                {
                    "name": "B3",
                    "midi": 59,
                    "time": 80.11914700000005,
                    "velocity": 0.30708661417322836,
                    "duration": 0.3438589999999948
                },
                {
                    "name": "A2",
                    "midi": 45,
                    "time": 80.46300600000005,
                    "velocity": 0.3543307086614173,
                    "duration": 0.1719295000000045
                },
                {
                    "name": "A3",
                    "midi": 57,
                    "time": 80.80686500000006,
                    "velocity": 0.30708661417322836,
                    "duration": 0.3438589999999948
                },
                {
                    "name": "E3",
                    "midi": 52,
                    "time": 80.80686500000006,
                    "velocity": 0.25984251968503935,
                    "duration": 0.3438589999999948
                },
                {
                    "name": "E3",
                    "midi": 52,
                    "time": 81.15072400000005,
                    "velocity": 0.25984251968503935,
                    "duration": 0.3438589999999948
                },
                {
                    "name": "A3",
                    "midi": 57,
                    "time": 81.15072400000005,
                    "velocity": 0.30708661417322836,
                    "duration": 0.3438589999999948
                },
                {
                    "name": "E2",
                    "midi": 40,
                    "time": 81.49458300000005,
                    "velocity": 0.3543307086614173,
                    "duration": 0.1719294999999903
                },
                {
                    "name": "B3",
                    "midi": 59,
                    "time": 81.83844200000004,
                    "velocity": 0.2992125984251969,
                    "duration": 0.3438589999999948
                },
                {
                    "name": "E3",
                    "midi": 52,
                    "time": 81.83844200000004,
                    "velocity": 0.25196850393700787,
                    "duration": 0.3438589999999948
                },
                {
                    "name": "E3",
                    "midi": 52,
                    "time": 82.18230100000004,
                    "velocity": 0.2440944881889764,
                    "duration": 0.3438589999999948
                },
                {
                    "name": "B3",
                    "midi": 59,
                    "time": 82.18230100000004,
                    "velocity": 0.28346456692913385,
                    "duration": 0.3438589999999948
                },
                {
                    "name": "A2",
                    "midi": 45,
                    "time": 82.52616000000003,
                    "velocity": 0.33070866141732286,
                    "duration": 0.1719295000000045
                },
                {
                    "name": "E4",
                    "midi": 64,
                    "time": 82.87001900000004,
                    "velocity": 0.2755905511811024,
                    "duration": 0.3438589999999948
                },
                {
                    "name": "A3",
                    "midi": 57,
                    "time": 82.87001900000004,
                    "velocity": 0.2283464566929134,
                    "duration": 0.3438589999999948
                },
                {
                    "name": "A3",
                    "midi": 57,
                    "time": 83.21387800000004,
                    "velocity": 0.2204724409448819,
                    "duration": 0.343859000000009
                },
                {
                    "name": "E4",
                    "midi": 64,
                    "time": 83.21387800000004,
                    "velocity": 0.2677165354330709,
                    "duration": 0.343859000000009
                },
                {
                    "name": "D3",
                    "midi": 50,
                    "time": 83.55773700000005,
                    "velocity": 0.4645669291338583,
                    "duration": 0.1719295000000045
                },
                {
                    "name": "D3",
                    "midi": 50,
                    "time": 83.90159600000005,
                    "velocity": 0.4094488188976378,
                    "duration": 0.3438589999999948
                },
                {
                    "name": "A3",
                    "midi": 57,
                    "time": 83.90159600000005,
                    "velocity": 0.4094488188976378,
                    "duration": 0.3438589999999948
                },
                {
                    "name": "D4",
                    "midi": 62,
                    "time": 83.90159600000005,
                    "velocity": 0.4094488188976378,
                    "duration": 0.3438589999999948
                },
                {
                    "name": "D3",
                    "midi": 50,
                    "time": 84.24545500000005,
                    "velocity": 0.4094488188976378,
                    "duration": 0.3438589999999948
                },
                {
                    "name": "A3",
                    "midi": 57,
                    "time": 84.24545500000005,
                    "velocity": 0.4094488188976378,
                    "duration": 0.3438589999999948
                },
                {
                    "name": "D4",
                    "midi": 62,
                    "time": 84.24545500000005,
                    "velocity": 0.4094488188976378,
                    "duration": 0.3438589999999948
                },
                {
                    "name": "A2",
                    "midi": 45,
                    "time": 84.58931400000004,
                    "velocity": 0.4645669291338583,
                    "duration": 0.1719295000000045
                },
                {
                    "name": "E3",
                    "midi": 52,
                    "time": 84.93317300000005,
                    "velocity": 0.4251968503937008,
                    "duration": 0.3438589999999948
                },
                {
                    "name": "A3",
                    "midi": 57,
                    "time": 84.93317300000005,
                    "velocity": 0.4251968503937008,
                    "duration": 0.3438589999999948
                },
                {
                    "name": "C#4",
                    "midi": 61,
                    "time": 84.93317300000005,
                    "velocity": 0.4251968503937008,
                    "duration": 0.3438589999999948
                },
                {
                    "name": "E3",
                    "midi": 52,
                    "time": 85.27703200000005,
                    "velocity": 0.4251968503937008,
                    "duration": 0.343859000000009
                },
                {
                    "name": "A3",
                    "midi": 57,
                    "time": 85.27703200000005,
                    "velocity": 0.4251968503937008,
                    "duration": 0.343859000000009
                },
                {
                    "name": "C#4",
                    "midi": 61,
                    "time": 85.27703200000005,
                    "velocity": 0.4251968503937008,
                    "duration": 0.343859000000009
                },
                {
                    "name": "D2",
                    "midi": 38,
                    "time": 85.62089100000006,
                    "velocity": 0.4645669291338583,
                    "duration": 0.1719295000000045
                },
                {
                    "name": "D3",
                    "midi": 50,
                    "time": 85.96475000000007,
                    "velocity": 0.4251968503937008,
                    "duration": 0.3438589999999948
                },
                {
                    "name": "A3",
                    "midi": 57,
                    "time": 85.96475000000007,
                    "velocity": 0.4251968503937008,
                    "duration": 0.3438589999999948
                },
                {
                    "name": "D4",
                    "midi": 62,
                    "time": 85.96475000000007,
                    "velocity": 0.4251968503937008,
                    "duration": 0.3438589999999948
                },
                {
                    "name": "D3",
                    "midi": 50,
                    "time": 86.30860900000006,
                    "velocity": 0.4251968503937008,
                    "duration": 0.3438589999999948
                },
                {
                    "name": "A3",
                    "midi": 57,
                    "time": 86.30860900000006,
                    "velocity": 0.4251968503937008,
                    "duration": 0.3438589999999948
                },
                {
                    "name": "D4",
                    "midi": 62,
                    "time": 86.30860900000006,
                    "velocity": 0.4251968503937008,
                    "duration": 0.3438589999999948
                },
                {
                    "name": "A2",
                    "midi": 45,
                    "time": 86.65246800000006,
                    "velocity": 0.4645669291338583,
                    "duration": 0.1719295000000045
                },
                {
                    "name": "A3",
                    "midi": 57,
                    "time": 86.99632700000006,
                    "velocity": 0.33858267716535434,
                    "duration": 0.3438589999999948
                },
                {
                    "name": "A3",
                    "midi": 57,
                    "time": 87.34018600000006,
                    "velocity": 0.4409448818897638,
                    "duration": 0.3438589999999948
                },
                {
                    "name": "E4",
                    "midi": 64,
                    "time": 87.34018600000006,
                    "velocity": 0.4409448818897638,
                    "duration": 0.3438589999999948
                },
                {
                    "name": "D3",
                    "midi": 50,
                    "time": 87.68404500000005,
                    "velocity": 0.4645669291338583,
                    "duration": 0.1719295000000045
                },
                {
                    "name": "A3",
                    "midi": 57,
                    "time": 88.02790400000006,
                    "velocity": 0.4094488188976378,
                    "duration": 0.3438589999999948
                },
                {
                    "name": "D4",
                    "midi": 62,
                    "time": 88.02790400000006,
                    "velocity": 0.4094488188976378,
                    "duration": 0.3438589999999948
                },
                {
                    "name": "D3",
                    "midi": 50,
                    "time": 88.37176300000006,
                    "velocity": 0.4094488188976378,
                    "duration": 0.3438589999999948
                },
                {
                    "name": "A3",
                    "midi": 57,
                    "time": 88.37176300000006,
                    "velocity": 0.4094488188976378,
                    "duration": 0.3438589999999948
                },
                {
                    "name": "D4",
                    "midi": 62,
                    "time": 88.37176300000006,
                    "velocity": 0.4094488188976378,
                    "duration": 0.3438589999999948
                },
                {
                    "name": "G2",
                    "midi": 43,
                    "time": 88.71562200000005,
                    "velocity": 0.4645669291338583,
                    "duration": 0.1719295000000045
                },
                {
                    "name": "B3",
                    "midi": 59,
                    "time": 89.05948100000006,
                    "velocity": 0.4251968503937008,
                    "duration": 0.3438589999999948
                },
                {
                    "name": "E4",
                    "midi": 64,
                    "time": 89.05948100000006,
                    "velocity": 0.4251968503937008,
                    "duration": 0.3438589999999948
                },
                {
                    "name": "E3",
                    "midi": 52,
                    "time": 89.40334000000006,
                    "velocity": 0.4251968503937008,
                    "duration": 0.3438589999999948
                },
                {
                    "name": "B3",
                    "midi": 59,
                    "time": 89.40334000000006,
                    "velocity": 0.4251968503937008,
                    "duration": 0.3438589999999948
                },
                {
                    "name": "E4",
                    "midi": 64,
                    "time": 89.40334000000006,
                    "velocity": 0.4251968503937008,
                    "duration": 0.3438589999999948
                },
                {
                    "name": "A2",
                    "midi": 45,
                    "time": 89.74719900000005,
                    "velocity": 0.4645669291338583,
                    "duration": 0.1719295000000045
                },
                {
                    "name": "A3",
                    "midi": 57,
                    "time": 90.09105800000006,
                    "velocity": 0.4251968503937008,
                    "duration": 0.3438589999999948
                },
                {
                    "name": "E4",
                    "midi": 64,
                    "time": 90.09105800000006,
                    "velocity": 0.4251968503937008,
                    "duration": 0.3438589999999948
                },
                {
                    "name": "A3",
                    "midi": 57,
                    "time": 90.43491700000006,
                    "velocity": 0.4251968503937008,
                    "duration": 0.3438589999999948
                },
                {
                    "name": "E4",
                    "midi": 64,
                    "time": 90.43491700000006,
                    "velocity": 0.4251968503937008,
                    "duration": 0.3438589999999948
                },
                {
                    "name": "D2",
                    "midi": 38,
                    "time": 90.77877600000005,
                    "velocity": 0.4645669291338583,
                    "duration": 0.1719295000000045
                },
                {
                    "name": "D3",
                    "midi": 50,
                    "time": 91.12263500000006,
                    "velocity": 0.28346456692913385,
                    "duration": 0.3438589999999948
                },
                {
                    "name": "A3",
                    "midi": 57,
                    "time": 91.12263500000006,
                    "velocity": 0.28346456692913385,
                    "duration": 0.3438589999999948
                },
                {
                    "name": "D4",
                    "midi": 62,
                    "time": 91.12263500000006,
                    "velocity": 0.33858267716535434,
                    "duration": 0.3438589999999948
                },
                {
                    "name": "D3",
                    "midi": 50,
                    "time": 91.46649400000005,
                    "velocity": 0.30708661417322836,
                    "duration": 0.6877180000000038
                },
                {
                    "name": "A3",
                    "midi": 57,
                    "time": 91.46649400000005,
                    "velocity": 0.30708661417322836,
                    "duration": 0.6877180000000038
                },
                {
                    "name": "D4",
                    "midi": 62,
                    "time": 91.46649400000005,
                    "velocity": 0.30708661417322836,
                    "duration": 0.6877180000000038
                },
                {
                    "name": "D3",
                    "midi": 50,
                    "time": 92.15421200000006,
                    "velocity": 0.18110236220472442,
                    "duration": 0.3438589999999948
                },
                {
                    "name": "A3",
                    "midi": 57,
                    "time": 92.15421200000006,
                    "velocity": 0.18110236220472442,
                    "duration": 0.3438589999999948
                },
                {
                    "name": "D4",
                    "midi": 62,
                    "time": 92.15421200000006,
                    "velocity": 0.18110236220472442,
                    "duration": 0.3438589999999948
                },
                {
                    "name": "D3",
                    "midi": 50,
                    "time": 92.49807100000005,
                    "velocity": 0.18110236220472442,
                    "duration": 0.3438589999999948
                },
                {
                    "name": "A3",
                    "midi": 57,
                    "time": 92.49807100000005,
                    "velocity": 0.18110236220472442,
                    "duration": 0.3438589999999948
                },
                {
                    "name": "D4",
                    "midi": 62,
                    "time": 92.49807100000005,
                    "velocity": 0.18110236220472442,
                    "duration": 0.3438589999999948
                },
                {
                    "name": "A2",
                    "midi": 45,
                    "time": 92.84193000000005,
                    "velocity": 0.2125984251968504,
                    "duration": 0.1719295000000045
                },
                {
                    "name": "E3",
                    "midi": 52,
                    "time": 93.18578900000006,
                    "velocity": 0.1889763779527559,
                    "duration": 0.3438589999999948
                },
                {
                    "name": "A3",
                    "midi": 57,
                    "time": 93.18578900000006,
                    "velocity": 0.1889763779527559,
                    "duration": 0.3438589999999948
                },
                {
                    "name": "C#4",
                    "midi": 61,
                    "time": 93.18578900000006,
                    "velocity": 0.1889763779527559,
                    "duration": 0.3438589999999948
                },
                {
                    "name": "E3",
                    "midi": 52,
                    "time": 93.52964800000005,
                    "velocity": 0.1889763779527559,
                    "duration": 0.343859000000009
                },
                {
                    "name": "A3",
                    "midi": 57,
                    "time": 93.52964800000005,
                    "velocity": 0.1889763779527559,
                    "duration": 0.343859000000009
                },
                {
                    "name": "C#4",
                    "midi": 61,
                    "time": 93.52964800000005,
                    "velocity": 0.1889763779527559,
                    "duration": 0.343859000000009
                },
                {
                    "name": "D2",
                    "midi": 38,
                    "time": 93.87350700000006,
                    "velocity": 0.2125984251968504,
                    "duration": 0.1719295000000045
                },
                {
                    "name": "D3",
                    "midi": 50,
                    "time": 94.21736600000007,
                    "velocity": 0.1889763779527559,
                    "duration": 0.3438589999999948
                },
                {
                    "name": "A3",
                    "midi": 57,
                    "time": 94.21736600000007,
                    "velocity": 0.1889763779527559,
                    "duration": 0.3438589999999948
                },
                {
                    "name": "D4",
                    "midi": 62,
                    "time": 94.21736600000007,
                    "velocity": 0.1889763779527559,
                    "duration": 0.3438589999999948
                },
                {
                    "name": "D3",
                    "midi": 50,
                    "time": 94.56122500000006,
                    "velocity": 0.1889763779527559,
                    "duration": 0.3438589999999948
                },
                {
                    "name": "A3",
                    "midi": 57,
                    "time": 94.56122500000006,
                    "velocity": 0.1889763779527559,
                    "duration": 0.3438589999999948
                },
                {
                    "name": "D4",
                    "midi": 62,
                    "time": 94.56122500000006,
                    "velocity": 0.1889763779527559,
                    "duration": 0.3438589999999948
                },
                {
                    "name": "A2",
                    "midi": 45,
                    "time": 94.90508400000006,
                    "velocity": 0.2125984251968504,
                    "duration": 0.1719294999999903
                },
                {
                    "name": "C#4",
                    "midi": 61,
                    "time": 95.24894300000005,
                    "velocity": 0.15748031496062992,
                    "duration": 0.3438589999999948
                },
                {
                    "name": "A3",
                    "midi": 57,
                    "time": 95.24894300000005,
                    "velocity": 0.15748031496062992,
                    "duration": 0.3438589999999948
                },
                {
                    "name": "A3",
                    "midi": 57,
                    "time": 95.59280200000005,
                    "velocity": 0.2047244094488189,
                    "duration": 0.6877180000000038
                },
                {
                    "name": "E4",
                    "midi": 64,
                    "time": 95.59280200000005,
                    "velocity": 0.2047244094488189,
                    "duration": 0.3438589999999948
                },
                {
                    "name": "D3",
                    "midi": 50,
                    "time": 95.93666100000004,
                    "velocity": 0.2125984251968504,
                    "duration": 0.343859000000009
                },
                {
                    "name": "A3",
                    "midi": 57,
                    "time": 96.28052000000005,
                    "velocity": 0.18110236220472442,
                    "duration": 0.3438589999999948
                },
                {
                    "name": "D4",
                    "midi": 62,
                    "time": 96.28052000000005,
                    "velocity": 0.18110236220472442,
                    "duration": 0.3438589999999948
                },
                {
                    "name": "D3",
                    "midi": 50,
                    "time": 96.62437900000005,
                    "velocity": 0.18110236220472442,
                    "duration": 0.3438589999999948
                },
                {
                    "name": "A3",
                    "midi": 57,
                    "time": 96.62437900000005,
                    "velocity": 0.18110236220472442,
                    "duration": 0.3438589999999948
                },
                {
                    "name": "D4",
                    "midi": 62,
                    "time": 96.62437900000005,
                    "velocity": 0.18110236220472442,
                    "duration": 0.3438589999999948
                },
                {
                    "name": "G2",
                    "midi": 43,
                    "time": 96.96823800000004,
                    "velocity": 0.2125984251968504,
                    "duration": 0.1719295000000045
                },
                {
                    "name": "B3",
                    "midi": 59,
                    "time": 97.31209700000005,
                    "velocity": 0.1889763779527559,
                    "duration": 0.3438589999999948
                },
                {
                    "name": "E4",
                    "midi": 64,
                    "time": 97.31209700000005,
                    "velocity": 0.1889763779527559,
                    "duration": 0.3438589999999948
                },
                {
                    "name": "E3",
                    "midi": 52,
                    "time": 97.65595600000005,
                    "velocity": 0.1889763779527559,
                    "duration": 0.343859000000009
                },
                {
                    "name": "B3",
                    "midi": 59,
                    "time": 97.65595600000005,
                    "velocity": 0.1889763779527559,
                    "duration": 0.343859000000009
                },
                {
                    "name": "E4",
                    "midi": 64,
                    "time": 97.65595600000005,
                    "velocity": 0.1889763779527559,
                    "duration": 0.343859000000009
                },
                {
                    "name": "A2",
                    "midi": 45,
                    "time": 97.99981500000005,
                    "velocity": 0.2125984251968504,
                    "duration": 0.1719295000000045
                },
                {
                    "name": "A3",
                    "midi": 57,
                    "time": 98.34367400000006,
                    "velocity": 0.1889763779527559,
                    "duration": 0.3438589999999948
                },
                {
                    "name": "E4",
                    "midi": 64,
                    "time": 98.34367400000006,
                    "velocity": 0.1889763779527559,
                    "duration": 0.3438589999999948
                },
                {
                    "name": "A3",
                    "midi": 57,
                    "time": 98.68753300000006,
                    "velocity": 0.1889763779527559,
                    "duration": 0.343859000000009
                },
                {
                    "name": "E4",
                    "midi": 64,
                    "time": 98.68753300000006,
                    "velocity": 0.1889763779527559,
                    "duration": 0.343859000000009
                },
                {
                    "name": "D2",
                    "midi": 38,
                    "time": 99.03139200000007,
                    "velocity": 0.2125984251968504,
                    "duration": 0.1719294999999903
                },
                {
                    "name": "D3",
                    "midi": 50,
                    "time": 99.37525100000006,
                    "velocity": 0.13385826771653545,
                    "duration": 0.3438589999999948
                },
                {
                    "name": "A3",
                    "midi": 57,
                    "time": 99.37525100000006,
                    "velocity": 0.13385826771653545,
                    "duration": 0.3438589999999948
                },
                {
                    "name": "D4",
                    "midi": 62,
                    "time": 99.37525100000006,
                    "velocity": 0.15748031496062992,
                    "duration": 0.3438589999999948
                },
                {
                    "name": "D3",
                    "midi": 50,
                    "time": 99.71911000000006,
                    "velocity": 0.2047244094488189,
                    "duration": 0.3438589999999948
                },
                {
                    "name": "A3",
                    "midi": 57,
                    "time": 99.71911000000006,
                    "velocity": 0.2047244094488189,
                    "duration": 0.3438589999999948
                },
                {
                    "name": "D4",
                    "midi": 62,
                    "time": 99.71911000000006,
                    "velocity": 0.2047244094488189,
                    "duration": 0.3438589999999948
                },
                {
                    "name": "A2",
                    "midi": 45,
                    "time": 100.06296900000005,
                    "velocity": 0.4645669291338583,
                    "duration": 0.1719294999999903
                },
                {
                    "name": "A2",
                    "midi": 45,
                    "time": 100.40682800000005,
                    "velocity": 0.4094488188976378,
                    "duration": 0.3438589999999948
                },
                {
                    "name": "E3",
                    "midi": 52,
                    "time": 100.40682800000005,
                    "velocity": 0.4094488188976378,
                    "duration": 0.3438589999999948
                },
                {
                    "name": "A3",
                    "midi": 57,
                    "time": 100.40682800000005,
                    "velocity": 0.4094488188976378,
                    "duration": 0.3438589999999948
                },
                {
                    "name": "A2",
                    "midi": 45,
                    "time": 100.75068700000004,
                    "velocity": 0.4094488188976378,
                    "duration": 0.3438589999999948
                },
                {
                    "name": "E3",
                    "midi": 52,
                    "time": 100.75068700000004,
                    "velocity": 0.4094488188976378,
                    "duration": 0.3438589999999948
                },
                {
                    "name": "A3",
                    "midi": 57,
                    "time": 100.75068700000004,
                    "velocity": 0.4094488188976378,
                    "duration": 0.3438589999999948
                },
                {
                    "name": "E2",
                    "midi": 40,
                    "time": 101.09454600000004,
                    "velocity": 0.4645669291338583,
                    "duration": 0.1719295000000045
                },
                {
                    "name": "E3",
                    "midi": 52,
                    "time": 101.43840500000005,
                    "velocity": 0.4251968503937008,
                    "duration": 0.3438589999999948
                },
                {
                    "name": "B3",
                    "midi": 59,
                    "time": 101.43840500000005,
                    "velocity": 0.4251968503937008,
                    "duration": 0.3438589999999948
                },
                {
                    "name": "E3",
                    "midi": 52,
                    "time": 101.78226400000004,
                    "velocity": 0.4251968503937008,
                    "duration": 0.343859000000009
                },
                {
                    "name": "B3",
                    "midi": 59,
                    "time": 101.78226400000004,
                    "velocity": 0.4251968503937008,
                    "duration": 0.343859000000009
                },
                {
                    "name": "A1",
                    "midi": 33,
                    "time": 102.12612300000005,
                    "velocity": 0.4645669291338583,
                    "duration": 0.1719295000000045
                },
                {
                    "name": "A2",
                    "midi": 45,
                    "time": 102.46998200000006,
                    "velocity": 0.4251968503937008,
                    "duration": 0.3438589999999948
                },
                {
                    "name": "E3",
                    "midi": 52,
                    "time": 102.46998200000006,
                    "velocity": 0.4251968503937008,
                    "duration": 0.3438589999999948
                },
                {
                    "name": "A3",
                    "midi": 57,
                    "time": 102.46998200000006,
                    "velocity": 0.4251968503937008,
                    "duration": 0.3438589999999948
                },
                {
                    "name": "A2",
                    "midi": 45,
                    "time": 102.81384100000005,
                    "velocity": 0.4251968503937008,
                    "duration": 0.343859000000009
                },
                {
                    "name": "E3",
                    "midi": 52,
                    "time": 102.81384100000005,
                    "velocity": 0.4251968503937008,
                    "duration": 0.343859000000009
                },
                {
                    "name": "A3",
                    "midi": 57,
                    "time": 102.81384100000005,
                    "velocity": 0.4251968503937008,
                    "duration": 0.343859000000009
                },
                {
                    "name": "E2",
                    "midi": 40,
                    "time": 103.15770000000006,
                    "velocity": 0.4645669291338583,
                    "duration": 0.1719295000000045
                },
                {
                    "name": "E3",
                    "midi": 52,
                    "time": 103.50155900000007,
                    "velocity": 0.33858267716535434,
                    "duration": 0.3438589999999948
                },
                {
                    "name": "E3",
                    "midi": 52,
                    "time": 103.84541800000007,
                    "velocity": 0.4409448818897638,
                    "duration": 0.3438589999999948
                },
                {
                    "name": "B3",
                    "midi": 59,
                    "time": 103.84541800000007,
                    "velocity": 0.4409448818897638,
                    "duration": 0.3438589999999948
                },
                {
                    "name": "A2",
                    "midi": 45,
                    "time": 104.18927700000006,
                    "velocity": 0.4645669291338583,
                    "duration": 0.1719294999999903
                },
                {
                    "name": "E3",
                    "midi": 52,
                    "time": 104.53313600000006,
                    "velocity": 0.4094488188976378,
                    "duration": 0.3438589999999948
                },
                {
                    "name": "A3",
                    "midi": 57,
                    "time": 104.53313600000006,
                    "velocity": 0.4094488188976378,
                    "duration": 0.3438589999999948
                },
                {
                    "name": "A2",
                    "midi": 45,
                    "time": 104.87699500000005,
                    "velocity": 0.4094488188976378,
                    "duration": 0.3438589999999948
                },
                {
                    "name": "E3",
                    "midi": 52,
                    "time": 104.87699500000005,
                    "velocity": 0.4094488188976378,
                    "duration": 0.3438589999999948
                },
                {
                    "name": "A3",
                    "midi": 57,
                    "time": 104.87699500000005,
                    "velocity": 0.4094488188976378,
                    "duration": 0.3438589999999948
                },
                {
                    "name": "D2",
                    "midi": 38,
                    "time": 105.22085400000005,
                    "velocity": 0.4645669291338583,
                    "duration": 0.1719295000000045
                },
                {
                    "name": "F#3",
                    "midi": 54,
                    "time": 105.56471300000005,
                    "velocity": 0.4251968503937008,
                    "duration": 0.3438589999999948
                },
                {
                    "name": "B3",
                    "midi": 59,
                    "time": 105.56471300000005,
                    "velocity": 0.4251968503937008,
                    "duration": 0.3438589999999948
                },
                {
                    "name": "B2",
                    "midi": 47,
                    "time": 105.90857200000005,
                    "velocity": 0.4251968503937008,
                    "duration": 0.343859000000009
                },
                {
                    "name": "F#3",
                    "midi": 54,
                    "time": 105.90857200000005,
                    "velocity": 0.4251968503937008,
                    "duration": 0.343859000000009
                },
                {
                    "name": "B3",
                    "midi": 59,
                    "time": 105.90857200000005,
                    "velocity": 0.4251968503937008,
                    "duration": 0.343859000000009
                },
                {
                    "name": "E2",
                    "midi": 40,
                    "time": 106.25243100000006,
                    "velocity": 0.4645669291338583,
                    "duration": 0.1719295000000045
                },
                {
                    "name": "E3",
                    "midi": 52,
                    "time": 106.59629000000007,
                    "velocity": 0.4251968503937008,
                    "duration": 0.3438589999999948
                },
                {
                    "name": "B3",
                    "midi": 59,
                    "time": 106.59629000000007,
                    "velocity": 0.4251968503937008,
                    "duration": 0.3438589999999948
                },
                {
                    "name": "E3",
                    "midi": 52,
                    "time": 106.94014900000006,
                    "velocity": 0.4251968503937008,
                    "duration": 0.3438589999999948
                },
                {
                    "name": "B3",
                    "midi": 59,
                    "time": 106.94014900000006,
                    "velocity": 0.4251968503937008,
                    "duration": 0.3438589999999948
                },
                {
                    "name": "A1",
                    "midi": 33,
                    "time": 107.28400800000006,
                    "velocity": 0.4645669291338583,
                    "duration": 0.1719294999999903
                },
                {
                    "name": "A2",
                    "midi": 45,
                    "time": 107.62786700000005,
                    "velocity": 0.28346456692913385,
                    "duration": 0.3438589999999948
                },
                {
                    "name": "E3",
                    "midi": 52,
                    "time": 107.62786700000005,
                    "velocity": 0.28346456692913385,
                    "duration": 0.3438589999999948
                },
                {
                    "name": "A3",
                    "midi": 57,
                    "time": 107.62786700000005,
                    "velocity": 0.33858267716535434,
                    "duration": 0.3438589999999948
                },
                {
                    "name": "A2",
                    "midi": 45,
                    "time": 107.97172600000005,
                    "velocity": 0.30708661417322836,
                    "duration": 0.6877180000000038
                },
                {
                    "name": "E3",
                    "midi": 52,
                    "time": 107.97172600000005,
                    "velocity": 0.30708661417322836,
                    "duration": 0.6877180000000038
                },
                {
                    "name": "A3",
                    "midi": 57,
                    "time": 107.97172600000005,
                    "velocity": 0.30708661417322836,
                    "duration": 0.6877180000000038
                },
                {
                    "name": "A2",
                    "midi": 45,
                    "time": 108.65944400000005,
                    "velocity": 0.18110236220472442,
                    "duration": 0.3438589999999948
                },
                {
                    "name": "E3",
                    "midi": 52,
                    "time": 108.65944400000005,
                    "velocity": 0.18110236220472442,
                    "duration": 0.3438589999999948
                },
                {
                    "name": "A3",
                    "midi": 57,
                    "time": 108.65944400000005,
                    "velocity": 0.18110236220472442,
                    "duration": 0.3438589999999948
                },
                {
                    "name": "A2",
                    "midi": 45,
                    "time": 109.00330300000005,
                    "velocity": 0.18110236220472442,
                    "duration": 0.3438589999999948
                },
                {
                    "name": "E3",
                    "midi": 52,
                    "time": 109.00330300000005,
                    "velocity": 0.18110236220472442,
                    "duration": 0.3438589999999948
                },
                {
                    "name": "A3",
                    "midi": 57,
                    "time": 109.00330300000005,
                    "velocity": 0.18110236220472442,
                    "duration": 0.3438589999999948
                },
                {
                    "name": "E2",
                    "midi": 40,
                    "time": 109.34716200000004,
                    "velocity": 0.2125984251968504,
                    "duration": 0.1719295000000045
                },
                {
                    "name": "E3",
                    "midi": 52,
                    "time": 109.69102100000005,
                    "velocity": 0.1889763779527559,
                    "duration": 0.3438589999999948
                },
                {
                    "name": "B3",
                    "midi": 59,
                    "time": 109.69102100000005,
                    "velocity": 0.1889763779527559,
                    "duration": 0.3438589999999948
                },
                {
                    "name": "E3",
                    "midi": 52,
                    "time": 110.03488000000004,
                    "velocity": 0.1889763779527559,
                    "duration": 0.3438589999999948
                },
                {
                    "name": "B3",
                    "midi": 59,
                    "time": 110.03488000000004,
                    "velocity": 0.1889763779527559,
                    "duration": 0.3438589999999948
                },
                {
                    "name": "A1",
                    "midi": 33,
                    "time": 110.37873900000004,
                    "velocity": 0.2125984251968504,
                    "duration": 0.1719295000000045
                },
                {
                    "name": "A2",
                    "midi": 45,
                    "time": 110.72259800000005,
                    "velocity": 0.1889763779527559,
                    "duration": 0.3438589999999948
                },
                {
                    "name": "E3",
                    "midi": 52,
                    "time": 110.72259800000005,
                    "velocity": 0.1889763779527559,
                    "duration": 0.3438589999999948
                },
                {
                    "name": "A3",
                    "midi": 57,
                    "time": 110.72259800000005,
                    "velocity": 0.1889763779527559,
                    "duration": 0.3438589999999948
                },
                {
                    "name": "A2",
                    "midi": 45,
                    "time": 111.06645700000004,
                    "velocity": 0.1889763779527559,
                    "duration": 0.343859000000009
                },
                {
                    "name": "E3",
                    "midi": 52,
                    "time": 111.06645700000004,
                    "velocity": 0.1889763779527559,
                    "duration": 0.343859000000009
                },
                {
                    "name": "A3",
                    "midi": 57,
                    "time": 111.06645700000004,
                    "velocity": 0.1889763779527559,
                    "duration": 0.343859000000009
                },
                {
                    "name": "E2",
                    "midi": 40,
                    "time": 111.41031600000005,
                    "velocity": 0.2125984251968504,
                    "duration": 0.1719294999999903
                },
                {
                    "name": "E3",
                    "midi": 52,
                    "time": 111.75417500000005,
                    "velocity": 0.15748031496062992,
                    "duration": 0.3438589999999948
                },
                {
                    "name": "E3",
                    "midi": 52,
                    "time": 112.09803400000004,
                    "velocity": 0.2047244094488189,
                    "duration": 0.6877179999999896
                },
                {
                    "name": "B3",
                    "midi": 59,
                    "time": 112.09803400000004,
                    "velocity": 0.2047244094488189,
                    "duration": 0.3438589999999948
                },
                {
                    "name": "A2",
                    "midi": 45,
                    "time": 112.44189300000004,
                    "velocity": 0.2125984251968504,
                    "duration": 0.3438589999999948
                },
                {
                    "name": "E3",
                    "midi": 52,
                    "time": 112.78575200000003,
                    "velocity": 0.18110236220472442,
                    "duration": 0.3438589999999948
                },
                {
                    "name": "A3",
                    "midi": 57,
                    "time": 112.78575200000003,
                    "velocity": 0.18110236220472442,
                    "duration": 0.3438589999999948
                },
                {
                    "name": "A2",
                    "midi": 45,
                    "time": 113.12961100000003,
                    "velocity": 0.18110236220472442,
                    "duration": 0.3438589999999948
                },
                {
                    "name": "E3",
                    "midi": 52,
                    "time": 113.12961100000003,
                    "velocity": 0.18110236220472442,
                    "duration": 0.3438589999999948
                },
                {
                    "name": "A3",
                    "midi": 57,
                    "time": 113.12961100000003,
                    "velocity": 0.18110236220472442,
                    "duration": 0.3438589999999948
                },
                {
                    "name": "D2",
                    "midi": 38,
                    "time": 113.47347000000002,
                    "velocity": 0.2125984251968504,
                    "duration": 0.1719295000000045
                },
                {
                    "name": "F#3",
                    "midi": 54,
                    "time": 113.81732900000003,
                    "velocity": 0.1889763779527559,
                    "duration": 0.3438589999999948
                },
                {
                    "name": "B3",
                    "midi": 59,
                    "time": 113.81732900000003,
                    "velocity": 0.1889763779527559,
                    "duration": 0.3438589999999948
                },
                {
                    "name": "B2",
                    "midi": 47,
                    "time": 114.16118800000002,
                    "velocity": 0.1889763779527559,
                    "duration": 0.343859000000009
                },
                {
                    "name": "F#3",
                    "midi": 54,
                    "time": 114.16118800000002,
                    "velocity": 0.1889763779527559,
                    "duration": 0.343859000000009
                },
                {
                    "name": "B3",
                    "midi": 59,
                    "time": 114.16118800000002,
                    "velocity": 0.1889763779527559,
                    "duration": 0.343859000000009
                },
                {
                    "name": "E2",
                    "midi": 40,
                    "time": 114.50504700000003,
                    "velocity": 0.2125984251968504,
                    "duration": 0.1719295000000045
                },
                {
                    "name": "E3",
                    "midi": 52,
                    "time": 114.84890600000004,
                    "velocity": 0.1889763779527559,
                    "duration": 0.3438589999999948
                },
                {
                    "name": "B3",
                    "midi": 59,
                    "time": 114.84890600000004,
                    "velocity": 0.1889763779527559,
                    "duration": 0.3438589999999948
                },
                {
                    "name": "E3",
                    "midi": 52,
                    "time": 115.19276500000004,
                    "velocity": 0.1889763779527559,
                    "duration": 0.343859000000009
                },
                {
                    "name": "B3",
                    "midi": 59,
                    "time": 115.19276500000004,
                    "velocity": 0.1889763779527559,
                    "duration": 0.343859000000009
                },
                {
                    "name": "A1",
                    "midi": 33,
                    "time": 115.53662400000005,
                    "velocity": 0.2125984251968504,
                    "duration": 0.1719294999999903
                },
                {
                    "name": "A3",
                    "midi": 57,
                    "time": 115.88048300000004,
                    "velocity": 0.16535433070866143,
                    "duration": 0.3438589999999948
                },
                {
                    "name": "E4",
                    "midi": 64,
                    "time": 115.88048300000004,
                    "velocity": 0.1968503937007874,
                    "duration": 0.3438589999999948
                },
                {
                    "name": "A3",
                    "midi": 57,
                    "time": 116.22434200000004,
                    "velocity": 0.47244094488188976,
                    "duration": 0.3438589999999948
                },
                {
                    "name": "E4",
                    "midi": 64,
                    "time": 116.22434200000004,
                    "velocity": 0.47244094488188976,
                    "duration": 0.3438589999999948
                },
                {
                    "name": "D3",
                    "midi": 50,
                    "time": 116.56820100000003,
                    "velocity": 0.5275590551181102,
                    "duration": 0.1719294999999903
                },
                {
                    "name": "D3",
                    "midi": 50,
                    "time": 116.91206000000003,
                    "velocity": 0.4645669291338583,
                    "duration": 0.3438589999999948
                },
                {
                    "name": "A3",
                    "midi": 57,
                    "time": 116.91206000000003,
                    "velocity": 0.4645669291338583,
                    "duration": 0.3438589999999948
                },
                {
                    "name": "D4",
                    "midi": 62,
                    "time": 116.91206000000003,
                    "velocity": 0.4645669291338583,
                    "duration": 0.3438589999999948
                },
                {
                    "name": "D3",
                    "midi": 50,
                    "time": 117.25591900000002,
                    "velocity": 0.4645669291338583,
                    "duration": 0.3438589999999948
                },
                {
                    "name": "A3",
                    "midi": 57,
                    "time": 117.25591900000002,
                    "velocity": 0.4645669291338583,
                    "duration": 0.3438589999999948
                },
                {
                    "name": "D4",
                    "midi": 62,
                    "time": 117.25591900000002,
                    "velocity": 0.4645669291338583,
                    "duration": 0.3438589999999948
                },
                {
                    "name": "A2",
                    "midi": 45,
                    "time": 117.59977800000001,
                    "velocity": 0.5275590551181102,
                    "duration": 0.1719294999999903
                },
                {
                    "name": "E3",
                    "midi": 52,
                    "time": 117.94363700000001,
                    "velocity": 0.4881889763779528,
                    "duration": 0.3438589999999948
                },
                {
                    "name": "A3",
                    "midi": 57,
                    "time": 117.94363700000001,
                    "velocity": 0.4881889763779528,
                    "duration": 0.3438589999999948
                },
                {
                    "name": "C#4",
                    "midi": 61,
                    "time": 117.94363700000001,
                    "velocity": 0.4881889763779528,
                    "duration": 0.3438589999999948
                },
                {
                    "name": "E3",
                    "midi": 52,
                    "time": 118.287496,
                    "velocity": 0.4881889763779528,
                    "duration": 0.3438589999999948
                },
                {
                    "name": "A3",
                    "midi": 57,
                    "time": 118.287496,
                    "velocity": 0.4881889763779528,
                    "duration": 0.3438589999999948
                },
                {
                    "name": "C#4",
                    "midi": 61,
                    "time": 118.287496,
                    "velocity": 0.4881889763779528,
                    "duration": 0.3438589999999948
                },
                {
                    "name": "D2",
                    "midi": 38,
                    "time": 118.631355,
                    "velocity": 0.5275590551181102,
                    "duration": 0.1719295000000045
                },
                {
                    "name": "D3",
                    "midi": 50,
                    "time": 118.97521400000001,
                    "velocity": 0.4881889763779528,
                    "duration": 0.3438589999999948
                },
                {
                    "name": "A3",
                    "midi": 57,
                    "time": 118.97521400000001,
                    "velocity": 0.4881889763779528,
                    "duration": 0.3438589999999948
                },
                {
                    "name": "D4",
                    "midi": 62,
                    "time": 118.97521400000001,
                    "velocity": 0.4881889763779528,
                    "duration": 0.3438589999999948
                },
                {
                    "name": "D3",
                    "midi": 50,
                    "time": 119.319073,
                    "velocity": 0.4881889763779528,
                    "duration": 0.343859000000009
                },
                {
                    "name": "A3",
                    "midi": 57,
                    "time": 119.319073,
                    "velocity": 0.4881889763779528,
                    "duration": 0.343859000000009
                },
                {
                    "name": "D4",
                    "midi": 62,
                    "time": 119.319073,
                    "velocity": 0.4881889763779528,
                    "duration": 0.343859000000009
                },
                {
                    "name": "A2",
                    "midi": 45,
                    "time": 119.66293200000001,
                    "velocity": 0.5275590551181102,
                    "duration": 0.1719294999999903
                },
                {
                    "name": "A3",
                    "midi": 57,
                    "time": 120.006791,
                    "velocity": 0.3858267716535433,
                    "duration": 0.3438589999999948
                },
                {
                    "name": "A3",
                    "midi": 57,
                    "time": 120.35065,
                    "velocity": 0.5039370078740157,
                    "duration": 0.3438589999999948
                },
                {
                    "name": "E4",
                    "midi": 64,
                    "time": 120.35065,
                    "velocity": 0.5039370078740157,
                    "duration": 0.3438589999999948
                },
                {
                    "name": "D3",
                    "midi": 50,
                    "time": 120.694509,
                    "velocity": 0.5275590551181102,
                    "duration": 0.1719295000000045
                },
                {
                    "name": "A3",
                    "midi": 57,
                    "time": 121.038368,
                    "velocity": 0.4645669291338583,
                    "duration": 0.3438589999999948
                },
                {
                    "name": "D4",
                    "midi": 62,
                    "time": 121.038368,
                    "velocity": 0.4645669291338583,
                    "duration": 0.3438589999999948
                },
                {
                    "name": "D3",
                    "midi": 50,
                    "time": 121.382227,
                    "velocity": 0.4645669291338583,
                    "duration": 0.3438589999999948
                },
                {
                    "name": "A3",
                    "midi": 57,
                    "time": 121.382227,
                    "velocity": 0.4645669291338583,
                    "duration": 0.3438589999999948
                },
                {
                    "name": "D4",
                    "midi": 62,
                    "time": 121.382227,
                    "velocity": 0.4645669291338583,
                    "duration": 0.3438589999999948
                },
                {
                    "name": "G2",
                    "midi": 43,
                    "time": 121.726086,
                    "velocity": 0.5275590551181102,
                    "duration": 0.1719294999999903
                },
                {
                    "name": "B3",
                    "midi": 59,
                    "time": 122.06994499999999,
                    "velocity": 0.4881889763779528,
                    "duration": 0.3438589999999948
                },
                {
                    "name": "E4",
                    "midi": 64,
                    "time": 122.06994499999999,
                    "velocity": 0.4881889763779528,
                    "duration": 0.3438589999999948
                },
                {
                    "name": "E3",
                    "midi": 52,
                    "time": 122.41380399999998,
                    "velocity": 0.4881889763779528,
                    "duration": 0.3438589999999948
                },
                {
                    "name": "B3",
                    "midi": 59,
                    "time": 122.41380399999998,
                    "velocity": 0.4881889763779528,
                    "duration": 0.3438589999999948
                },
                {
                    "name": "E4",
                    "midi": 64,
                    "time": 122.41380399999998,
                    "velocity": 0.4881889763779528,
                    "duration": 0.3438589999999948
                },
                {
                    "name": "A2",
                    "midi": 45,
                    "time": 122.75766299999998,
                    "velocity": 0.5275590551181102,
                    "duration": 0.1719295000000045
                },
                {
                    "name": "A3",
                    "midi": 57,
                    "time": 123.10152199999999,
                    "velocity": 0.4881889763779528,
                    "duration": 0.3438589999999948
                },
                {
                    "name": "E4",
                    "midi": 64,
                    "time": 123.10152199999999,
                    "velocity": 0.4881889763779528,
                    "duration": 0.3438589999999948
                },
                {
                    "name": "A3",
                    "midi": 57,
                    "time": 123.44538099999998,
                    "velocity": 0.4881889763779528,
                    "duration": 0.3438589999999948
                },
                {
                    "name": "E4",
                    "midi": 64,
                    "time": 123.44538099999998,
                    "velocity": 0.4881889763779528,
                    "duration": 0.3438589999999948
                },
                {
                    "name": "D2",
                    "midi": 38,
                    "time": 123.78923999999998,
                    "velocity": 0.5275590551181102,
                    "duration": 0.1719294999999903
                },
                {
                    "name": "D3",
                    "midi": 50,
                    "time": 124.13309899999997,
                    "velocity": 0.3228346456692913,
                    "duration": 0.3438589999999948
                },
                {
                    "name": "A3",
                    "midi": 57,
                    "time": 124.13309899999997,
                    "velocity": 0.3228346456692913,
                    "duration": 0.3438589999999948
                },
                {
                    "name": "D4",
                    "midi": 62,
                    "time": 124.13309899999997,
                    "velocity": 0.3858267716535433,
                    "duration": 0.3438589999999948
                },
                {
                    "name": "D3",
                    "midi": 50,
                    "time": 124.47695799999997,
                    "velocity": 0.3464566929133858,
                    "duration": 0.6877180000000038
                },
                {
                    "name": "A3",
                    "midi": 57,
                    "time": 124.47695799999997,
                    "velocity": 0.3464566929133858,
                    "duration": 0.6877180000000038
                },
                {
                    "name": "D4",
                    "midi": 62,
                    "time": 124.47695799999997,
                    "velocity": 0.3464566929133858,
                    "duration": 0.6877180000000038
                },
                {
                    "name": "D3",
                    "midi": 50,
                    "time": 125.16467599999997,
                    "velocity": 0.18110236220472442,
                    "duration": 0.3438589999999948
                },
                {
                    "name": "A3",
                    "midi": 57,
                    "time": 125.16467599999997,
                    "velocity": 0.18110236220472442,
                    "duration": 0.3438589999999948
                },
                {
                    "name": "D4",
                    "midi": 62,
                    "time": 125.16467599999997,
                    "velocity": 0.18110236220472442,
                    "duration": 0.3438589999999948
                },
                {
                    "name": "D3",
                    "midi": 50,
                    "time": 125.50853499999997,
                    "velocity": 0.18110236220472442,
                    "duration": 0.3438589999999948
                },
                {
                    "name": "A3",
                    "midi": 57,
                    "time": 125.50853499999997,
                    "velocity": 0.18110236220472442,
                    "duration": 0.3438589999999948
                },
                {
                    "name": "D4",
                    "midi": 62,
                    "time": 125.50853499999997,
                    "velocity": 0.18110236220472442,
                    "duration": 0.3438589999999948
                },
                {
                    "name": "A2",
                    "midi": 45,
                    "time": 125.85239399999996,
                    "velocity": 0.2125984251968504,
                    "duration": 0.1719295000000045
                },
                {
                    "name": "E3",
                    "midi": 52,
                    "time": 126.19625299999997,
                    "velocity": 0.1889763779527559,
                    "duration": 0.3438589999999948
                },
                {
                    "name": "A3",
                    "midi": 57,
                    "time": 126.19625299999997,
                    "velocity": 0.1889763779527559,
                    "duration": 0.3438589999999948
                },
                {
                    "name": "C#4",
                    "midi": 61,
                    "time": 126.19625299999997,
                    "velocity": 0.1889763779527559,
                    "duration": 0.3438589999999948
                },
                {
                    "name": "E3",
                    "midi": 52,
                    "time": 126.54011199999997,
                    "velocity": 0.1889763779527559,
                    "duration": 0.3438589999999948
                },
                {
                    "name": "A3",
                    "midi": 57,
                    "time": 126.54011199999997,
                    "velocity": 0.1889763779527559,
                    "duration": 0.3438589999999948
                },
                {
                    "name": "C#4",
                    "midi": 61,
                    "time": 126.54011199999997,
                    "velocity": 0.1889763779527559,
                    "duration": 0.3438589999999948
                },
                {
                    "name": "D2",
                    "midi": 38,
                    "time": 126.88397099999996,
                    "velocity": 0.2125984251968504,
                    "duration": 0.1719295000000045
                },
                {
                    "name": "D3",
                    "midi": 50,
                    "time": 127.22782999999997,
                    "velocity": 0.1889763779527559,
                    "duration": 0.3438589999999948
                },
                {
                    "name": "A3",
                    "midi": 57,
                    "time": 127.22782999999997,
                    "velocity": 0.1889763779527559,
                    "duration": 0.3438589999999948
                },
                {
                    "name": "D4",
                    "midi": 62,
                    "time": 127.22782999999997,
                    "velocity": 0.1889763779527559,
                    "duration": 0.3438589999999948
                },
                {
                    "name": "D3",
                    "midi": 50,
                    "time": 127.57168899999996,
                    "velocity": 0.1889763779527559,
                    "duration": 0.3438589999999948
                },
                {
                    "name": "A3",
                    "midi": 57,
                    "time": 127.57168899999996,
                    "velocity": 0.1889763779527559,
                    "duration": 0.3438589999999948
                },
                {
                    "name": "D4",
                    "midi": 62,
                    "time": 127.57168899999996,
                    "velocity": 0.1889763779527559,
                    "duration": 0.3438589999999948
                },
                {
                    "name": "A2",
                    "midi": 45,
                    "time": 127.91554799999996,
                    "velocity": 0.2125984251968504,
                    "duration": 0.17192950000001872
                },
                {
                    "name": "C#4",
                    "midi": 61,
                    "time": 128.25940699999998,
                    "velocity": 0.15748031496062992,
                    "duration": 0.343859000000009
                },
                {
                    "name": "A3",
                    "midi": 57,
                    "time": 128.25940699999998,
                    "velocity": 0.15748031496062992,
                    "duration": 0.343859000000009
                },
                {
                    "name": "A3",
                    "midi": 57,
                    "time": 128.603266,
                    "velocity": 0.2047244094488189,
                    "duration": 0.687718000000018
                },
                {
                    "name": "E4",
                    "midi": 64,
                    "time": 128.603266,
                    "velocity": 0.2047244094488189,
                    "duration": 0.343859000000009
                },
                {
                    "name": "D3",
                    "midi": 50,
                    "time": 128.947125,
                    "velocity": 0.2125984251968504,
                    "duration": 0.343859000000009
                },
                {
                    "name": "A3",
                    "midi": 57,
                    "time": 129.290984,
                    "velocity": 0.18110236220472442,
                    "duration": 0.343859000000009
                },
                {
                    "name": "D4",
                    "midi": 62,
                    "time": 129.290984,
                    "velocity": 0.18110236220472442,
                    "duration": 0.343859000000009
                },
                {
                    "name": "D3",
                    "midi": 50,
                    "time": 129.63484300000002,
                    "velocity": 0.18110236220472442,
                    "duration": 0.343859000000009
                },
                {
                    "name": "A3",
                    "midi": 57,
                    "time": 129.63484300000002,
                    "velocity": 0.18110236220472442,
                    "duration": 0.343859000000009
                },
                {
                    "name": "D4",
                    "midi": 62,
                    "time": 129.63484300000002,
                    "velocity": 0.18110236220472442,
                    "duration": 0.343859000000009
                },
                {
                    "name": "G2",
                    "midi": 43,
                    "time": 129.97870200000003,
                    "velocity": 0.2125984251968504,
                    "duration": 0.1719295000000045
                },
                {
                    "name": "B3",
                    "midi": 59,
                    "time": 130.32256100000004,
                    "velocity": 0.1889763779527559,
                    "duration": 0.343859000000009
                },
                {
                    "name": "E4",
                    "midi": 64,
                    "time": 130.32256100000004,
                    "velocity": 0.1889763779527559,
                    "duration": 0.343859000000009
                },
                {
                    "name": "E3",
                    "midi": 52,
                    "time": 130.66642000000004,
                    "velocity": 0.1889763779527559,
                    "duration": 0.343859000000009
                },
                {
                    "name": "B3",
                    "midi": 59,
                    "time": 130.66642000000004,
                    "velocity": 0.1889763779527559,
                    "duration": 0.343859000000009
                },
                {
                    "name": "E4",
                    "midi": 64,
                    "time": 130.66642000000004,
                    "velocity": 0.1889763779527559,
                    "duration": 0.343859000000009
                },
                {
                    "name": "A2",
                    "midi": 45,
                    "time": 131.01027900000005,
                    "velocity": 0.2125984251968504,
                    "duration": 0.1719295000000045
                },
                {
                    "name": "A3",
                    "midi": 57,
                    "time": 131.35413800000006,
                    "velocity": 0.1889763779527559,
                    "duration": 0.343859000000009
                },
                {
                    "name": "E4",
                    "midi": 64,
                    "time": 131.35413800000006,
                    "velocity": 0.1889763779527559,
                    "duration": 0.343859000000009
                },
                {
                    "name": "A3",
                    "midi": 57,
                    "time": 131.69799700000007,
                    "velocity": 0.1889763779527559,
                    "duration": 0.343859000000009
                },
                {
                    "name": "E4",
                    "midi": 64,
                    "time": 131.69799700000007,
                    "velocity": 0.1889763779527559,
                    "duration": 0.343859000000009
                },
                {
                    "name": "D2",
                    "midi": 38,
                    "time": 132.04185600000008,
                    "velocity": 0.2125984251968504,
                    "duration": 0.1719295000000045
                },
                {
                    "name": "D3",
                    "midi": 50,
                    "time": 132.3857150000001,
                    "velocity": 0.13385826771653545,
                    "duration": 0.343859000000009
                },
                {
                    "name": "A3",
                    "midi": 57,
                    "time": 132.3857150000001,
                    "velocity": 0.13385826771653545,
                    "duration": 0.343859000000009
                },
                {
                    "name": "D4",
                    "midi": 62,
                    "time": 132.3857150000001,
                    "velocity": 0.15748031496062992,
                    "duration": 0.343859000000009
                },
                {
                    "name": "D3",
                    "midi": 50,
                    "time": 132.7295740000001,
                    "velocity": 0.2047244094488189,
                    "duration": 0.343859000000009
                },
                {
                    "name": "A3",
                    "midi": 57,
                    "time": 132.7295740000001,
                    "velocity": 0.2047244094488189,
                    "duration": 0.343859000000009
                },
                {
                    "name": "D4",
                    "midi": 62,
                    "time": 132.7295740000001,
                    "velocity": 0.2047244094488189,
                    "duration": 0.343859000000009
                },
                {
                    "name": "D3",
                    "midi": 50,
                    "time": 133.0734330000001,
                    "velocity": 0.2047244094488189,
                    "duration": 0.343859000000009
                },
                {
                    "name": "A3",
                    "midi": 57,
                    "time": 133.0734330000001,
                    "velocity": 0.2440944881889764,
                    "duration": 0.343859000000009
                },
                {
                    "name": "C4",
                    "midi": 60,
                    "time": 133.41729200000012,
                    "velocity": 0.2125984251968504,
                    "duration": 0.3438589999999806
                },
                {
                    "name": "D3",
                    "midi": 50,
                    "time": 133.41729200000012,
                    "velocity": 0.18110236220472442,
                    "duration": 0.3438589999999806
                },
                {
                    "name": "D3",
                    "midi": 50,
                    "time": 133.7611510000001,
                    "velocity": 0.18110236220472442,
                    "duration": 0.343859000000009
                },
                {
                    "name": "B3",
                    "midi": 59,
                    "time": 133.7611510000001,
                    "velocity": 0.2204724409448819,
                    "duration": 0.343859000000009
                },
                {
                    "name": "D3",
                    "midi": 50,
                    "time": 134.1050100000001,
                    "velocity": 0.2047244094488189,
                    "duration": 0.343859000000009
                },
                {
                    "name": "G3",
                    "midi": 55,
                    "time": 134.1050100000001,
                    "velocity": 0.25196850393700787,
                    "duration": 0.343859000000009
                },
                {
                    "name": "A#3",
                    "midi": 58,
                    "time": 134.44886900000012,
                    "velocity": 0.2204724409448819,
                    "duration": 0.3438589999999806
                },
                {
                    "name": "D3",
                    "midi": 50,
                    "time": 134.44886900000012,
                    "velocity": 0.1889763779527559,
                    "duration": 0.3438589999999806
                },
                {
                    "name": "D3",
                    "midi": 50,
                    "time": 134.7927280000001,
                    "velocity": 0.1889763779527559,
                    "duration": 0.343859000000009
                },
                {
                    "name": "A3",
                    "midi": 57,
                    "time": 134.7927280000001,
                    "velocity": 0.2283464566929134,
                    "duration": 0.343859000000009
                },
                {
                    "name": "D3",
                    "midi": 50,
                    "time": 135.1365870000001,
                    "velocity": 0.2125984251968504,
                    "duration": 0.343859000000009
                },
                {
                    "name": "A3",
                    "midi": 57,
                    "time": 135.1365870000001,
                    "velocity": 0.25984251968503935,
                    "duration": 0.343859000000009
                },
                {
                    "name": "C4",
                    "midi": 60,
                    "time": 135.48044600000011,
                    "velocity": 0.2283464566929134,
                    "duration": 0.343859000000009
                },
                {
                    "name": "D3",
                    "midi": 50,
                    "time": 135.48044600000011,
                    "velocity": 0.1889763779527559,
                    "duration": 0.343859000000009
                },
                {
                    "name": "D3",
                    "midi": 50,
                    "time": 135.82430500000012,
                    "velocity": 0.1889763779527559,
                    "duration": 0.343859000000009
                },
                {
                    "name": "B3",
                    "midi": 59,
                    "time": 135.82430500000012,
                    "velocity": 0.2283464566929134,
                    "duration": 0.343859000000009
                },
                {
                    "name": "D3",
                    "midi": 50,
                    "time": 136.16816400000013,
                    "velocity": 0.2204724409448819,
                    "duration": 0.343859000000009
                },
                {
                    "name": "G3",
                    "midi": 55,
                    "time": 136.16816400000013,
                    "velocity": 0.25984251968503935,
                    "duration": 0.343859000000009
                },
                {
                    "name": "A#3",
                    "midi": 58,
                    "time": 136.51202300000014,
                    "velocity": 0.23622047244094488,
                    "duration": 0.3438589999999806
                },
                {
                    "name": "D3",
                    "midi": 50,
                    "time": 136.51202300000014,
                    "velocity": 0.1968503937007874,
                    "duration": 0.3438589999999806
                },
                {
                    "name": "D3",
                    "midi": 50,
                    "time": 136.85588200000012,
                    "velocity": 0.1968503937007874,
                    "duration": 0.3438589999999806
                },
                {
                    "name": "A3",
                    "midi": 57,
                    "time": 136.85588200000012,
                    "velocity": 0.23622047244094488,
                    "duration": 0.3438589999999806
                },
                {
                    "name": "D3",
                    "midi": 50,
                    "time": 137.1997410000001,
                    "velocity": 0.2283464566929134,
                    "duration": 0.343859000000009
                },
                {
                    "name": "F#3",
                    "midi": 54,
                    "time": 137.1997410000001,
                    "velocity": 0.2755905511811024,
                    "duration": 0.343859000000009
                },
                {
                    "name": "A3",
                    "midi": 57,
                    "time": 137.5436000000001,
                    "velocity": 0.2440944881889764,
                    "duration": 0.3438589999999806
                },
                {
                    "name": "D3",
                    "midi": 50,
                    "time": 137.5436000000001,
                    "velocity": 0.2047244094488189,
                    "duration": 0.3438589999999806
                },
                {
                    "name": "D3",
                    "midi": 50,
                    "time": 137.8874590000001,
                    "velocity": 0.2047244094488189,
                    "duration": 0.343859000000009
                },
                {
                    "name": "G#3",
                    "midi": 56,
                    "time": 137.8874590000001,
                    "velocity": 0.2440944881889764,
                    "duration": 0.343859000000009
                },
                {
                    "name": "D3",
                    "midi": 50,
                    "time": 138.2313180000001,
                    "velocity": 0.2283464566929134,
                    "duration": 0.343859000000009
                },
                {
                    "name": "E3",
                    "midi": 52,
                    "time": 138.2313180000001,
                    "velocity": 0.2755905511811024,
                    "duration": 0.343859000000009
                },
                {
                    "name": "G3",
                    "midi": 55,
                    "time": 138.5751770000001,
                    "velocity": 0.2440944881889764,
                    "duration": 0.3438589999999806
                },
                {
                    "name": "D3",
                    "midi": 50,
                    "time": 138.5751770000001,
                    "velocity": 0.2047244094488189,
                    "duration": 0.3438589999999806
                },
                {
                    "name": "D3",
                    "midi": 50,
                    "time": 138.9190360000001,
                    "velocity": 0.2047244094488189,
                    "duration": 0.343859000000009
                },
                {
                    "name": "F#3",
                    "midi": 54,
                    "time": 138.9190360000001,
                    "velocity": 0.2440944881889764,
                    "duration": 0.343859000000009
                },
                {
                    "name": "D3",
                    "midi": 50,
                    "time": 139.2628950000001,
                    "velocity": 0.2283464566929134,
                    "duration": 0.343859000000009
                },
                {
                    "name": "F#3",
                    "midi": 54,
                    "time": 139.2628950000001,
                    "velocity": 0.2755905511811024,
                    "duration": 0.343859000000009
                },
                {
                    "name": "A3",
                    "midi": 57,
                    "time": 139.6067540000001,
                    "velocity": 0.23622047244094488,
                    "duration": 0.343859000000009
                },
                {
                    "name": "D3",
                    "midi": 50,
                    "time": 139.6067540000001,
                    "velocity": 0.1968503937007874,
                    "duration": 0.343859000000009
                },
                {
                    "name": "D3",
                    "midi": 50,
                    "time": 139.95061300000012,
                    "velocity": 0.1968503937007874,
                    "duration": 0.343859000000009
                },
                {
                    "name": "G#3",
                    "midi": 56,
                    "time": 139.95061300000012,
                    "velocity": 0.23622047244094488,
                    "duration": 0.343859000000009
                },
                {
                    "name": "D3",
                    "midi": 50,
                    "time": 140.29447200000013,
                    "velocity": 0.2204724409448819,
                    "duration": 0.343859000000009
                },
                {
                    "name": "E3",
                    "midi": 52,
                    "time": 140.29447200000013,
                    "velocity": 0.25984251968503935,
                    "duration": 0.343859000000009
                },
                {
                    "name": "G3",
                    "midi": 55,
                    "time": 140.63833100000014,
                    "velocity": 0.2283464566929134,
                    "duration": 0.343859000000009
                },
                {
                    "name": "D3",
                    "midi": 50,
                    "time": 140.63833100000014,
                    "velocity": 0.1889763779527559,
                    "duration": 0.343859000000009
                },
                {
                    "name": "D3",
                    "midi": 50,
                    "time": 140.98219000000014,
                    "velocity": 0.1889763779527559,
                    "duration": 0.3438589999999806
                },
                {
                    "name": "F#3",
                    "midi": 54,
                    "time": 140.98219000000014,
                    "velocity": 0.2283464566929134,
                    "duration": 0.3438589999999806
                },
                {
                    "name": "D2",
                    "midi": 38,
                    "time": 141.32604900000013,
                    "velocity": 0.1889763779527559,
                    "duration": 0.343859000000009
                },
                {
                    "name": "A2",
                    "midi": 45,
                    "time": 141.32604900000013,
                    "velocity": 0.2283464566929134,
                    "duration": 0.343859000000009
                },
                {
                    "name": "C3",
                    "midi": 48,
                    "time": 141.66990800000013,
                    "velocity": 0.1968503937007874,
                    "duration": 0.3438589999999806
                },
                {
                    "name": "D2",
                    "midi": 38,
                    "time": 141.66990800000013,
                    "velocity": 0.16535433070866143,
                    "duration": 0.3438589999999806
                },
                {
                    "name": "D2",
                    "midi": 38,
                    "time": 142.01376700000012,
                    "velocity": 0.16535433070866143,
                    "duration": 0.343859000000009
                },
                {
                    "name": "B2",
                    "midi": 47,
                    "time": 142.01376700000012,
                    "velocity": 0.1889763779527559,
                    "duration": 0.343859000000009
                },
                {
                    "name": "D2",
                    "midi": 38,
                    "time": 142.35762600000012,
                    "velocity": 0.18110236220472442,
                    "duration": 0.343859000000009
                },
                {
                    "name": "G2",
                    "midi": 43,
                    "time": 142.35762600000012,
                    "velocity": 0.2204724409448819,
                    "duration": 0.343859000000009
                },
                {
                    "name": "A#2",
                    "midi": 46,
                    "time": 142.70148500000013,
                    "velocity": 0.1889763779527559,
                    "duration": 0.343859000000009
                },
                {
                    "name": "D2",
                    "midi": 38,
                    "time": 142.70148500000013,
                    "velocity": 0.15748031496062992,
                    "duration": 0.343859000000009
                },
                {
                    "name": "D2",
                    "midi": 38,
                    "time": 143.04534400000014,
                    "velocity": 0.15748031496062992,
                    "duration": 0.343859000000009
                },
                {
                    "name": "A2",
                    "midi": 45,
                    "time": 143.04534400000014,
                    "velocity": 0.1889763779527559,
                    "duration": 0.343859000000009
                },
                {
                    "name": "D2",
                    "midi": 38,
                    "time": 143.38920300000015,
                    "velocity": 0.15748031496062992,
                    "duration": 0.3438589999999806
                },
                {
                    "name": "A2",
                    "midi": 45,
                    "time": 143.38920300000015,
                    "velocity": 0.18110236220472442,
                    "duration": 0.3438589999999806
                },
                {
                    "name": "C3",
                    "midi": 48,
                    "time": 143.73306200000013,
                    "velocity": 0.15748031496062992,
                    "duration": 0.3438589999999806
                },
                {
                    "name": "D2",
                    "midi": 38,
                    "time": 143.73306200000013,
                    "velocity": 0.13385826771653545,
                    "duration": 0.3438589999999806
                },
                {
                    "name": "D2",
                    "midi": 38,
                    "time": 144.0769210000001,
                    "velocity": 0.13385826771653545,
                    "duration": 0.343859000000009
                },
                {
                    "name": "B2",
                    "midi": 47,
                    "time": 144.0769210000001,
                    "velocity": 0.15748031496062992,
                    "duration": 0.343859000000009
                },
                {
                    "name": "D2",
                    "midi": 38,
                    "time": 144.42078000000012,
                    "velocity": 0.14960629921259844,
                    "duration": 0.343859000000009
                },
                {
                    "name": "G2",
                    "midi": 43,
                    "time": 144.42078000000012,
                    "velocity": 0.1732283464566929,
                    "duration": 0.343859000000009
                },
                {
                    "name": "A#2",
                    "midi": 46,
                    "time": 144.76463900000013,
                    "velocity": 0.15748031496062992,
                    "duration": 0.343859000000009
                },
                {
                    "name": "D2",
                    "midi": 38,
                    "time": 144.76463900000013,
                    "velocity": 0.13385826771653545,
                    "duration": 0.343859000000009
                },
                {
                    "name": "D2",
                    "midi": 38,
                    "time": 145.10849800000014,
                    "velocity": 0.13385826771653545,
                    "duration": 0.343859000000009
                },
                {
                    "name": "A2",
                    "midi": 45,
                    "time": 145.10849800000014,
                    "velocity": 0.15748031496062992,
                    "duration": 0.343859000000009
                },
                {
                    "name": "D2",
                    "midi": 38,
                    "time": 145.45235700000015,
                    "velocity": 0.2047244094488189,
                    "duration": 0.3438589999999806
                },
                {
                    "name": "A2",
                    "midi": 45,
                    "time": 145.45235700000015,
                    "velocity": 0.2440944881889764,
                    "duration": 0.3438589999999806
                },
                {
                    "name": "D3",
                    "midi": 50,
                    "time": 145.79621600000013,
                    "velocity": 0.2204724409448819,
                    "duration": 0.343859000000009
                },
                {
                    "name": "A3",
                    "midi": 57,
                    "time": 145.79621600000013,
                    "velocity": 0.2677165354330709,
                    "duration": 0.343859000000009
                },
                {
                    "name": "D4",
                    "midi": 62,
                    "time": 146.14007500000014,
                    "velocity": 0.2204724409448819,
                    "duration": 2.4070130000000063
                },
                {
                    "name": "A4",
                    "midi": 69,
                    "time": 146.14007500000014,
                    "velocity": 0.2677165354330709,
                    "duration": 2.4070130000000063
                }
            ],
            "controlChanges": {
                "7": [
                    {
                        "number": 7,
                        "time": 0,
                        "value": 0.7874015748031497
                    }
                ],
                "10": [
                    {
                        "number": 10,
                        "time": 0,
                        "value": 0.5039370078740157
                    }
                ],
                "64": [
                    {
                        "number": 64,
                        "time": 0,
                        "value": 0
                    },
                    {
                        "number": 64,
                        "time": 0,
                        "value": 0
                    },
                    {
                        "number": 64,
                        "time": 1.0673956458333334,
                        "value": 1
                    },
                    {
                        "number": 64,
                        "time": 2.068884983333333,
                        "value": 0
                    },
                    {
                        "number": 64,
                        "time": 2.174191802083333,
                        "value": 1
                    },
                    {
                        "number": 64,
                        "time": 2.760901220833333,
                        "value": 0
                    },
                    {
                        "number": 64,
                        "time": 3.185710360416666,
                        "value": 1
                    },
                    {
                        "number": 64,
                        "time": 3.792478220833333,
                        "value": 0
                    },
                    {
                        "number": 64,
                        "time": 4.2681498375,
                        "value": 1
                    },
                    {
                        "number": 64,
                        "time": 5.1621832375,
                        "value": 0
                    },
                    {
                        "number": 64,
                        "time": 5.190838154166666,
                        "value": 1
                    },
                    {
                        "number": 64,
                        "time": 6.1951929833333335,
                        "value": 0
                    },
                    {
                        "number": 64,
                        "time": 6.3313038375,
                        "value": 1
                    },
                    {
                        "number": 64,
                        "time": 6.884343729166667,
                        "value": 0
                    },
                    {
                        "number": 64,
                        "time": 7.317032970833334,
                        "value": 1
                    },
                    {
                        "number": 64,
                        "time": 7.918786220833334,
                        "value": 0
                    },
                    {
                        "number": 64,
                        "time": 8.373683022916666,
                        "value": 1
                    },
                    {
                        "number": 64,
                        "time": 9.295654966666666,
                        "value": 0
                    },
                    {
                        "number": 64,
                        "time": 9.3572630375,
                        "value": 1
                    },
                    {
                        "number": 64,
                        "time": 10.321500983333332,
                        "value": 0
                    },
                    {
                        "number": 64,
                        "time": 10.477670279166665,
                        "value": 1
                    },
                    {
                        "number": 64,
                        "time": 11.01351722083333,
                        "value": 0
                    },
                    {
                        "number": 64,
                        "time": 11.423282529166665,
                        "value": 1
                    },
                    {
                        "number": 64,
                        "time": 12.042228729166665,
                        "value": 0
                    },
                    {
                        "number": 64,
                        "time": 12.53079505833333,
                        "value": 1
                    },
                    {
                        "number": 64,
                        "time": 13.41623198333333,
                        "value": 0
                    },
                    {
                        "number": 64,
                        "time": 13.476407308333329,
                        "value": 1
                    },
                    {
                        "number": 64,
                        "time": 14.447808983333328,
                        "value": 0
                    },
                    {
                        "number": 64,
                        "time": 14.603978279166661,
                        "value": 1
                    },
                    {
                        "number": 64,
                        "time": 15.136243356249993,
                        "value": 0
                    },
                    {
                        "number": 64,
                        "time": 15.574663581249993,
                        "value": 1
                    },
                    {
                        "number": 64,
                        "time": 16.16996947499999,
                        "value": 0
                    },
                    {
                        "number": 64,
                        "time": 16.667848652083325,
                        "value": 1
                    },
                    {
                        "number": 64,
                        "time": 17.541823610416657,
                        "value": 0
                    },
                    {
                        "number": 64,
                        "time": 17.584805985416658,
                        "value": 1
                    },
                    {
                        "number": 64,
                        "time": 18.575549729166656,
                        "value": 0
                    },
                    {
                        "number": 64,
                        "time": 18.715958820833322,
                        "value": 1
                    },
                    {
                        "number": 64,
                        "time": 19.264700474999987,
                        "value": 0
                    },
                    {
                        "number": 64,
                        "time": 19.685927749999987,
                        "value": 1
                    },
                    {
                        "number": 64,
                        "time": 20.29771022083332,
                        "value": 0
                    },
                    {
                        "number": 64,
                        "time": 20.813498720833323,
                        "value": 1
                    },
                    {
                        "number": 64,
                        "time": 21.670280729166652,
                        "value": 0
                    },
                    {
                        "number": 64,
                        "time": 21.734037918749987,
                        "value": 1
                    },
                    {
                        "number": 64,
                        "time": 22.702574102083318,
                        "value": 0
                    },
                    {
                        "number": 64,
                        "time": 22.834386718749986,
                        "value": 1
                    },
                    {
                        "number": 64,
                        "time": 23.391008474999985,
                        "value": 0
                    },
                    {
                        "number": 64,
                        "time": 23.812235749999985,
                        "value": 1
                    },
                    {
                        "number": 64,
                        "time": 24.424018220833318,
                        "value": 0
                    },
                    {
                        "number": 64,
                        "time": 24.90971905833332,
                        "value": 1
                    },
                    {
                        "number": 64,
                        "time": 25.800886966666653,
                        "value": 0
                    },
                    {
                        "number": 64,
                        "time": 25.862495037499986,
                        "value": 1
                    },
                    {
                        "number": 64,
                        "time": 26.826016610416648,
                        "value": 0
                    },
                    {
                        "number": 64,
                        "time": 26.932039802083313,
                        "value": 1
                    },
                    {
                        "number": 64,
                        "time": 27.518749220833314,
                        "value": 0
                    },
                    {
                        "number": 64,
                        "time": 27.95358758124998,
                        "value": 1
                    },
                    {
                        "number": 64,
                        "time": 28.547460729166648,
                        "value": 0
                    },
                    {
                        "number": 64,
                        "time": 29.04820539791665,
                        "value": 1
                    },
                    {
                        "number": 64,
                        "time": 29.92289672916665,
                        "value": 0
                    },
                    {
                        "number": 64,
                        "time": 29.981639308333314,
                        "value": 1
                    },
                    {
                        "number": 64,
                        "time": 30.954473729166644,
                        "value": 0
                    },
                    {
                        "number": 64,
                        "time": 31.102762922916643,
                        "value": 1
                    },
                    {
                        "number": 64,
                        "time": 31.644340847916645,
                        "value": 0
                    },
                    {
                        "number": 64,
                        "time": 32.07989558124998,
                        "value": 1
                    },
                    {
                        "number": 64,
                        "time": 32.67663422083331,
                        "value": 0
                    },
                    {
                        "number": 64,
                        "time": 33.1924227208333,
                        "value": 1
                    },
                    {
                        "number": 64,
                        "time": 34.0499211020833,
                        "value": 0
                    },
                    {
                        "number": 64,
                        "time": 34.090037985416636,
                        "value": 1
                    },
                    {
                        "number": 64,
                        "time": 35.07863261041663,
                        "value": 0
                    },
                    {
                        "number": 64,
                        "time": 35.2254890583333,
                        "value": 1
                    },
                    {
                        "number": 64,
                        "time": 35.7713652208333,
                        "value": 0
                    },
                    {
                        "number": 64,
                        "time": 36.1861451395833,
                        "value": 1
                    },
                    {
                        "number": 64,
                        "time": 36.80222584791664,
                        "value": 0
                    },
                    {
                        "number": 64,
                        "time": 37.25783902291664,
                        "value": 1
                    },
                    {
                        "number": 64,
                        "time": 38.174079983333314,
                        "value": 0
                    },
                    {
                        "number": 64,
                        "time": 38.22637520624998,
                        "value": 1
                    },
                    {
                        "number": 64,
                        "time": 39.20565698333332,
                        "value": 0
                    },
                    {
                        "number": 64,
                        "time": 39.36254265208332,
                        "value": 1
                    },
                    {
                        "number": 64,
                        "time": 39.89194223749999,
                        "value": 0
                    },
                    {
                        "number": 64,
                        "time": 40.312453139583326,
                        "value": 1
                    },
                    {
                        "number": 64,
                        "time": 40.92781747499999,
                        "value": 0
                    },
                    {
                        "number": 64,
                        "time": 41.38414702291666,
                        "value": 1
                    },
                    {
                        "number": 64,
                        "time": 42.30611896666666,
                        "value": 0
                    },
                    {
                        "number": 64,
                        "time": 42.340504866666656,
                        "value": 1
                    },
                    {
                        "number": 64,
                        "time": 43.334114102083326,
                        "value": 0
                    },
                    {
                        "number": 64,
                        "time": 43.43727180208332,
                        "value": 1
                    },
                    {
                        "number": 64,
                        "time": 44.02398122083332,
                        "value": 0
                    },
                    {
                        "number": 64,
                        "time": 44.44879036041665,
                        "value": 1
                    },
                    {
                        "number": 64,
                        "time": 45.05627459374999,
                        "value": 0
                    },
                    {
                        "number": 64,
                        "time": 45.54913916041666,
                        "value": 1
                    },
                    {
                        "number": 64,
                        "time": 46.42669598333333,
                        "value": 0
                    },
                    {
                        "number": 64,
                        "time": 46.48400581666667,
                        "value": 1
                    },
                    {
                        "number": 64,
                        "time": 47.460422102083335,
                        "value": 0
                    },
                    {
                        "number": 64,
                        "time": 47.604413058333336,
                        "value": 1
                    },
                    {
                        "number": 64,
                        "time": 48.15100559375001,
                        "value": 0
                    },
                    {
                        "number": 64,
                        "time": 48.575098360416675,
                        "value": 1
                    },
                    {
                        "number": 64,
                        "time": 49.18186622083334,
                        "value": 0
                    },
                    {
                        "number": 64,
                        "time": 49.74493533333334,
                        "value": 1
                    },
                    {
                        "number": 64,
                        "time": 50.554436729166675,
                        "value": 0
                    },
                    {
                        "number": 64,
                        "time": 50.63825236041667,
                        "value": 1
                    },
                    {
                        "number": 64,
                        "time": 51.584580983333346,
                        "value": 0
                    },
                    {
                        "number": 64,
                        "time": 51.68487319166668,
                        "value": 1
                    },
                    {
                        "number": 64,
                        "time": 52.61830710208336,
                        "value": 0
                    },
                    {
                        "number": 64,
                        "time": 52.70140636041669,
                        "value": 1
                    },
                    {
                        "number": 64,
                        "time": 53.30817422083336,
                        "value": 0
                    },
                    {
                        "number": 64,
                        "time": 53.763787395833354,
                        "value": 1
                    },
                    {
                        "number": 64,
                        "time": 54.68432659375003,
                        "value": 0
                    },
                    {
                        "number": 64,
                        "time": 54.77458958125003,
                        "value": 1
                    },
                    {
                        "number": 64,
                        "time": 55.73023105208337,
                        "value": 0
                    },
                    {
                        "number": 64,
                        "time": 55.80115197083337,
                        "value": 1
                    },
                    {
                        "number": 64,
                        "time": 56.401472475000034,
                        "value": 0
                    },
                    {
                        "number": 64,
                        "time": 56.832728970833365,
                        "value": 1
                    },
                    {
                        "number": 64,
                        "time": 57.43304947500003,
                        "value": 0
                    },
                    {
                        "number": 64,
                        "time": 57.864305970833364,
                        "value": 1
                    },
                    {
                        "number": 64,
                        "time": 58.4653428479167,
                        "value": 0
                    },
                    {
                        "number": 64,
                        "time": 58.890868360416704,
                        "value": 1
                    },
                    {
                        "number": 64,
                        "time": 59.50265083125004,
                        "value": 0
                    },
                    {
                        "number": 64,
                        "time": 59.92172898750003,
                        "value": 1
                    },
                    {
                        "number": 64,
                        "time": 60.8680576104167,
                        "value": 0
                    },
                    {
                        "number": 64,
                        "time": 60.9540223604167,
                        "value": 1
                    },
                    {
                        "number": 64,
                        "time": 61.56079022083337,
                        "value": 0
                    },
                    {
                        "number": 64,
                        "time": 62.0006431916667,
                        "value": 1
                    },
                    {
                        "number": 64,
                        "time": 62.93694259375004,
                        "value": 0
                    },
                    {
                        "number": 64,
                        "time": 63.02219097083337,
                        "value": 1
                    },
                    {
                        "number": 64,
                        "time": 63.98284705208338,
                        "value": 0
                    },
                    {
                        "number": 64,
                        "time": 64.05376797083338,
                        "value": 1
                    },
                    {
                        "number": 64,
                        "time": 64.6533721020834,
                        "value": 0
                    },
                    {
                        "number": 64,
                        "time": 65.08534497083339,
                        "value": 1
                    },
                    {
                        "number": 64,
                        "time": 65.6892473395834,
                        "value": 0
                    },
                    {
                        "number": 64,
                        "time": 66.1169219708334,
                        "value": 1
                    },
                    {
                        "number": 64,
                        "time": 66.72010796666676,
                        "value": 0
                    },
                    {
                        "number": 64,
                        "time": 67.0589523562501,
                        "value": 0
                    },
                    {
                        "number": 64,
                        "time": 67.14849897083343,
                        "value": 1
                    },
                    {
                        "number": 64,
                        "time": 68.08909661041676,
                        "value": 0
                    },
                    {
                        "number": 64,
                        "time": 68.16503213958343,
                        "value": 1
                    },
                    {
                        "number": 64,
                        "time": 68.95304234791676,
                        "value": 0
                    },
                    {
                        "number": 64,
                        "time": 69.16652147708342,
                        "value": 1
                    },
                    {
                        "number": 64,
                        "time": 70.15439972916674,
                        "value": 0
                    },
                    {
                        "number": 64,
                        "time": 70.23821536041675,
                        "value": 1
                    },
                    {
                        "number": 64,
                        "time": 71.01189811041675,
                        "value": 0
                    },
                    {
                        "number": 64,
                        "time": 71.22967547708342,
                        "value": 1
                    },
                    {
                        "number": 64,
                        "time": 72.21755372916674,
                        "value": 0
                    },
                    {
                        "number": 64,
                        "time": 72.29134013958341,
                        "value": 1
                    },
                    {
                        "number": 64,
                        "time": 73.07505211041675,
                        "value": 0
                    },
                    {
                        "number": 64,
                        "time": 73.29282947708342,
                        "value": 1
                    },
                    {
                        "number": 64,
                        "time": 74.28070772916674,
                        "value": 0
                    },
                    {
                        "number": 64,
                        "time": 74.35950875000007,
                        "value": 1
                    },
                    {
                        "number": 64,
                        "time": 75.13963885625007,
                        "value": 0
                    },
                    {
                        "number": 64,
                        "time": 75.3559834770834,
                        "value": 1
                    },
                    {
                        "number": 64,
                        "time": 76.34457810208339,
                        "value": 0
                    },
                    {
                        "number": 64,
                        "time": 76.42266275000006,
                        "value": 1
                    },
                    {
                        "number": 64,
                        "time": 77.20924021250006,
                        "value": 0
                    },
                    {
                        "number": 64,
                        "time": 77.4191374770834,
                        "value": 1
                    },
                    {
                        "number": 64,
                        "time": 78.40701572916672,
                        "value": 0
                    },
                    {
                        "number": 64,
                        "time": 78.48080213958339,
                        "value": 1
                    },
                    {
                        "number": 64,
                        "time": 79.2673796020834,
                        "value": 0
                    },
                    {
                        "number": 64,
                        "time": 79.4822914770834,
                        "value": 1
                    },
                    {
                        "number": 64,
                        "time": 80.47016972916671,
                        "value": 0
                    },
                    {
                        "number": 64,
                        "time": 80.56401458125005,
                        "value": 1
                    },
                    {
                        "number": 64,
                        "time": 81.32981722916672,
                        "value": 0
                    },
                    {
                        "number": 64,
                        "time": 81.54544547708338,
                        "value": 1
                    },
                    {
                        "number": 64,
                        "time": 82.53404010208337,
                        "value": 0
                    },
                    {
                        "number": 64,
                        "time": 82.6429287854167,
                        "value": 1
                    },
                    {
                        "number": 64,
                        "time": 83.39655309375004,
                        "value": 0
                    },
                    {
                        "number": 64,
                        "time": 83.62364330833338,
                        "value": 1
                    },
                    {
                        "number": 64,
                        "time": 84.59647772916671,
                        "value": 0
                    },
                    {
                        "number": 64,
                        "time": 84.70035180208338,
                        "value": 1
                    },
                    {
                        "number": 64,
                        "time": 85.28562847500005,
                        "value": 0
                    },
                    {
                        "number": 64,
                        "time": 85.6867973083334,
                        "value": 1
                    },
                    {
                        "number": 64,
                        "time": 86.32078733958339,
                        "value": 0
                    },
                    {
                        "number": 64,
                        "time": 86.81436827916673,
                        "value": 1
                    },
                    {
                        "number": 64,
                        "time": 87.68977598333339,
                        "value": 0
                    },
                    {
                        "number": 64,
                        "time": 87.76786063125006,
                        "value": 1
                    },
                    {
                        "number": 64,
                        "time": 88.72206935625006,
                        "value": 0
                    },
                    {
                        "number": 64,
                        "time": 88.85746383750006,
                        "value": 1
                    },
                    {
                        "number": 64,
                        "time": 89.41050372916672,
                        "value": 0
                    },
                    {
                        "number": 64,
                        "time": 89.83316375000005,
                        "value": 1
                    },
                    {
                        "number": 64,
                        "time": 90.44494622083339,
                        "value": 0
                    },
                    {
                        "number": 64,
                        "time": 90.95070550000005,
                        "value": 1
                    },
                    {
                        "number": 64,
                        "time": 91.82181496666672,
                        "value": 0
                    },
                    {
                        "number": 64,
                        "time": 91.88342303750005,
                        "value": 1
                    },
                    {
                        "number": 64,
                        "time": 92.85339196666672,
                        "value": 0
                    },
                    {
                        "number": 64,
                        "time": 92.99380105833339,
                        "value": 1
                    },
                    {
                        "number": 64,
                        "time": 93.54110996666672,
                        "value": 0
                    },
                    {
                        "number": 64,
                        "time": 93.94944252916673,
                        "value": 1
                    },
                    {
                        "number": 64,
                        "time": 94.57411971250006,
                        "value": 0
                    },
                    {
                        "number": 64,
                        "time": 95.02615102291672,
                        "value": 1
                    },
                    {
                        "number": 64,
                        "time": 95.94239198333338,
                        "value": 0
                    },
                    {
                        "number": 64,
                        "time": 96.00758191875005,
                        "value": 1
                    },
                    {
                        "number": 64,
                        "time": 96.9754017291667,
                        "value": 0
                    },
                    {
                        "number": 64,
                        "time": 97.07927580208337,
                        "value": 1
                    },
                    {
                        "number": 64,
                        "time": 97.66670159375005,
                        "value": 0
                    },
                    {
                        "number": 64,
                        "time": 98.09580897083339,
                        "value": 1
                    },
                    {
                        "number": 64,
                        "time": 98.69827859375006,
                        "value": 0
                    },
                    {
                        "number": 64,
                        "time": 99.15245902291673,
                        "value": 1
                    },
                    {
                        "number": 64,
                        "time": 100.07228184791671,
                        "value": 0
                    },
                    {
                        "number": 64,
                        "time": 100.12099520625004,
                        "value": 1
                    },
                    {
                        "number": 64,
                        "time": 101.10457522083337,
                        "value": 0
                    },
                    {
                        "number": 64,
                        "time": 101.20558380208337,
                        "value": 1
                    },
                    {
                        "number": 64,
                        "time": 101.79587508541671,
                        "value": 0
                    },
                    {
                        "number": 64,
                        "time": 102.22211697083338,
                        "value": 1
                    },
                    {
                        "number": 64,
                        "time": 102.82458659375006,
                        "value": 0
                    },
                    {
                        "number": 64,
                        "time": 103.31028743125006,
                        "value": 1
                    },
                    {
                        "number": 64,
                        "time": 104.19858984791672,
                        "value": 0
                    },
                    {
                        "number": 64,
                        "time": 104.25804880000005,
                        "value": 1
                    },
                    {
                        "number": 64,
                        "time": 105.22873410208338,
                        "value": 0
                    },
                    {
                        "number": 64,
                        "time": 105.36842682083338,
                        "value": 1
                    },
                    {
                        "number": 64,
                        "time": 105.91931759375005,
                        "value": 0
                    },
                    {
                        "number": 64,
                        "time": 106.33839575000006,
                        "value": 1
                    },
                    {
                        "number": 64,
                        "time": 106.9501782208334,
                        "value": 0
                    },
                    {
                        "number": 64,
                        "time": 107.43587905833338,
                        "value": 1
                    },
                    {
                        "number": 64,
                        "time": 108.32704696666671,
                        "value": 0
                    },
                    {
                        "number": 64,
                        "time": 108.38865503750004,
                        "value": 1
                    },
                    {
                        "number": 64,
                        "time": 109.3543257291667,
                        "value": 0
                    },
                    {
                        "number": 64,
                        "time": 109.45819980208337,
                        "value": 1
                    },
                    {
                        "number": 64,
                        "time": 110.04705833958337,
                        "value": 0
                    },
                    {
                        "number": 64,
                        "time": 110.49049317500004,
                        "value": 1
                    },
                    {
                        "number": 64,
                        "time": 111.07791896666672,
                        "value": 0
                    },
                    {
                        "number": 64,
                        "time": 111.56791804166672,
                        "value": 1
                    },
                    {
                        "number": 64,
                        "time": 112.4469076104167,
                        "value": 0
                    },
                    {
                        "number": 64,
                        "time": 112.49777008750003,
                        "value": 1
                    },
                    {
                        "number": 64,
                        "time": 113.47920098333336,
                        "value": 0
                    },
                    {
                        "number": 64,
                        "time": 113.58450780208335,
                        "value": 1
                    },
                    {
                        "number": 64,
                        "time": 114.16763535625003,
                        "value": 0
                    },
                    {
                        "number": 64,
                        "time": 114.58599713958337,
                        "value": 1
                    },
                    {
                        "number": 64,
                        "time": 115.20637608541671,
                        "value": 0
                    },
                    {
                        "number": 64,
                        "time": 115.65769102291671,
                        "value": 1
                    },
                    {
                        "number": 64,
                        "time": 116.57608110208336,
                        "value": 0
                    },
                    {
                        "number": 64,
                        "time": 116.62407808750002,
                        "value": 1
                    },
                    {
                        "number": 64,
                        "time": 117.60765810208335,
                        "value": 0
                    },
                    {
                        "number": 64,
                        "time": 117.75164905833334,
                        "value": 1
                    },
                    {
                        "number": 64,
                        "time": 118.29967433958333,
                        "value": 0
                    },
                    {
                        "number": 64,
                        "time": 118.73236358125,
                        "value": 1
                    },
                    {
                        "number": 64,
                        "time": 119.32766947500001,
                        "value": 0
                    },
                    {
                        "number": 64,
                        "time": 119.81480305833334,
                        "value": 1
                    },
                    {
                        "number": 64,
                        "time": 120.70453822083333,
                        "value": 0
                    },
                    {
                        "number": 64,
                        "time": 120.76542991875,
                        "value": 1
                    },
                    {
                        "number": 64,
                        "time": 121.73324972916666,
                        "value": 0
                    },
                    {
                        "number": 64,
                        "time": 121.87795705833332,
                        "value": 1
                    },
                    {
                        "number": 64,
                        "time": 122.42383322083332,
                        "value": 0
                    },
                    {
                        "number": 64,
                        "time": 122.84362774999998,
                        "value": 1
                    },
                    {
                        "number": 64,
                        "time": 123.45039561041665,
                        "value": 0
                    },
                    {
                        "number": 64,
                        "time": 123.91030702291664,
                        "value": 1
                    },
                    {
                        "number": 64,
                        "time": 124.83227896666664,
                        "value": 0
                    },
                    {
                        "number": 64,
                        "time": 124.89388703749997,
                        "value": 1
                    },
                    {
                        "number": 64,
                        "time": 125.86099047499997,
                        "value": 0
                    },
                    {
                        "number": 64,
                        "time": 125.96343180208329,
                        "value": 1
                    },
                    {
                        "number": 64,
                        "time": 126.5479921020833,
                        "value": 0
                    },
                    {
                        "number": 64,
                        "time": 126.98497958124996,
                        "value": 1
                    },
                    {
                        "number": 64,
                        "time": 127.5817182208333,
                        "value": 0
                    },
                    {
                        "number": 64,
                        "time": 128.03661502291664,
                        "value": 1
                    },
                    {
                        "number": 64,
                        "time": 128.95428872916668,
                        "value": 0
                    },
                    {
                        "number": 64,
                        "time": 129.03595524166667,
                        "value": 1
                    },
                    {
                        "number": 64,
                        "time": 129.98514935625002,
                        "value": 0
                    },
                    {
                        "number": 64,
                        "time": 130.08973980208336,
                        "value": 1
                    },
                    {
                        "number": 64,
                        "time": 130.67644922083338,
                        "value": 0
                    },
                    {
                        "number": 64,
                        "time": 131.10125836041672,
                        "value": 1
                    },
                    {
                        "number": 64,
                        "time": 131.70945896666674,
                        "value": 0
                    },
                    {
                        "number": 64,
                        "time": 132.20375627916675,
                        "value": 1
                    },
                    {
                        "number": 64,
                        "time": 133.0777312375001,
                        "value": 0
                    },
                    {
                        "number": 64,
                        "time": 133.1013715437501,
                        "value": 1
                    },
                    {
                        "number": 64,
                        "time": 133.42517210208345,
                        "value": 0
                    },
                    {
                        "number": 64,
                        "time": 133.4731690875001,
                        "value": 1
                    },
                    {
                        "number": 64,
                        "time": 133.76688198333343,
                        "value": 0
                    },
                    {
                        "number": 64,
                        "time": 134.15802159583345,
                        "value": 1
                    },
                    {
                        "number": 64,
                        "time": 134.4596145937501,
                        "value": 0
                    },
                    {
                        "number": 64,
                        "time": 134.51477530833344,
                        "value": 1
                    },
                    {
                        "number": 64,
                        "time": 134.80275722083343,
                        "value": 0
                    },
                    {
                        "number": 64,
                        "time": 135.18243486666677,
                        "value": 1
                    },
                    {
                        "number": 64,
                        "time": 135.48832610208345,
                        "value": 0
                    },
                    {
                        "number": 64,
                        "time": 135.52629386666678,
                        "value": 1
                    },
                    {
                        "number": 64,
                        "time": 135.83648333958345,
                        "value": 0
                    },
                    {
                        "number": 64,
                        "time": 136.2140118666668,
                        "value": 1
                    },
                    {
                        "number": 64,
                        "time": 136.52276859375013,
                        "value": 0
                    },
                    {
                        "number": 64,
                        "time": 136.56503459583345,
                        "value": 1
                    },
                    {
                        "number": 64,
                        "time": 136.85874749166678,
                        "value": 0
                    },
                    {
                        "number": 64,
                        "time": 137.23269415416678,
                        "value": 1
                    },
                    {
                        "number": 64,
                        "time": 137.55362922083344,
                        "value": 0
                    },
                    {
                        "number": 64,
                        "time": 137.5994770875001,
                        "value": 1
                    },
                    {
                        "number": 64,
                        "time": 137.89533910208343,
                        "value": 0
                    },
                    {
                        "number": 64,
                        "time": 138.27716586666676,
                        "value": 1
                    },
                    {
                        "number": 64,
                        "time": 138.58520622083344,
                        "value": 0
                    },
                    {
                        "number": 64,
                        "time": 138.62317398541677,
                        "value": 1
                    },
                    {
                        "number": 64,
                        "time": 138.92906522083342,
                        "value": 0
                    },
                    {
                        "number": 64,
                        "time": 139.27292422083343,
                        "value": 0
                    },
                    {
                        "number": 64,
                        "time": 139.3037282562501,
                        "value": 1
                    },
                    {
                        "number": 64,
                        "time": 139.61463410208344,
                        "value": 0
                    },
                    {
                        "number": 64,
                        "time": 139.64257264583344,
                        "value": 1
                    },
                    {
                        "number": 64,
                        "time": 139.95849310208345,
                        "value": 0
                    },
                    {
                        "number": 64,
                        "time": 140.33029064583346,
                        "value": 1
                    },
                    {
                        "number": 64,
                        "time": 140.6476438479168,
                        "value": 0
                    },
                    {
                        "number": 64,
                        "time": 140.6841788666668,
                        "value": 1
                    },
                    {
                        "number": 64,
                        "time": 140.99293559375013,
                        "value": 0
                    },
                    {
                        "number": 64,
                        "time": 141.36401676458345,
                        "value": 1
                    },
                    {
                        "number": 64,
                        "time": 141.68065359375012,
                        "value": 0
                    },
                    {
                        "number": 64,
                        "time": 142.40848847708347,
                        "value": 1
                    },
                    {
                        "number": 64,
                        "time": 142.7150960854168,
                        "value": 0
                    },
                    {
                        "number": 64,
                        "time": 143.4371999854168,
                        "value": 1
                    },
                    {
                        "number": 64,
                        "time": 143.74380759375012,
                        "value": 0
                    },
                    {
                        "number": 64,
                        "time": 144.4537331541668,
                        "value": 1
                    },
                    {
                        "number": 64,
                        "time": 144.77466822083346,
                        "value": 0
                    },
                    {
                        "number": 64,
                        "time": 145.49247388333347,
                        "value": 1
                    },
                    {
                        "number": 64,
                        "time": 149.57866500000014,
                        "value": 0
                    }
                ]
            },
            "id": 2,
            "name": "Piano left",
            "instrumentNumber": 0,
            "instrument": "acoustic grand piano",
            "instrumentFamily": "piano",
            "channelNumber": 0,
            "isPercussion": false
        },
        {
            "startTime": 0,
            "duration": 0,
            "length": 0,
            "notes": [],
            "controlChanges": {},
            "id": 3,
            "name": "Chopin:  Mazurka Op. 33 Nr. 2"
        },
        {
            "startTime": 0,
            "duration": 0,
            "length": 0,
            "notes": [],
            "controlChanges": {},
            "id": 4,
            "name": "Copyright  2003 by Bernd Krueger"
        },
        {
            "startTime": 0,
            "duration": 0,
            "length": 0,
            "notes": [],
            "controlChanges": {},
            "id": 5,
            "name": "http://www.piano-midi.de"
        },
        {
            "startTime": 0,
            "duration": 0,
            "length": 0,
            "notes": [],
            "controlChanges": {},
            "id": 6,
            "name": "Edition: 2014-02-25"
        },
        {
            "startTime": 0,
            "duration": 0,
            "length": 0,
            "notes": [],
            "controlChanges": {},
            "id": 7,
            "name": "Spur 7"
        }
    ]
}