{
    "header": {
        "PPQ": 480,
        "timeSignature": [
            6,
            8
        ],
        "bpm": 115.10990117814984,
        "name": "Chopin Prelude  No. 24, Opus 28"
    },
    "startTime": 0,
    "duration": 120.1460504999998,
    "tracks": [
        {
            "startTime": 0,
            "duration": 0,
            "length": 0,
            "notes": [],
            "controlChanges": {},
            "id": 0,
            "name": "Chopin Prelude  No. 24, Opus 28"
        },
        {
            "startTime": 3.127446,
            "duration": 120.1460504999998,
            "length": 644,
            "notes": [
                {
                    "name": "A4",
                    "midi": 69,
                    "time": 3.127446,
                    "velocity": 0.6220472440944882,
                    "duration": 0.5212409999999998
                },
                {
                    "name": "F4",
                    "midi": 65,
                    "time": 3.648687,
                    "velocity": 0.5748031496062992,
                    "duration": 0.2606204999999999
                },
                {
                    "name": "D4",
                    "midi": 62,
                    "time": 3.9093074999999997,
                    "velocity": 0.5511811023622047,
                    "duration": 1.5637230000000004
                },
                {
                    "name": "F4",
                    "midi": 65,
                    "time": 5.4730305,
                    "velocity": 0.5669291338582677,
                    "duration": 0.2606204999999999
                },
                {
                    "name": "A4",
                    "midi": 69,
                    "time": 5.733651,
                    "velocity": 0.6062992125984252,
                    "duration": 0.3909307499999999
                },
                {
                    "name": "D5",
                    "midi": 74,
                    "time": 6.12458175,
                    "velocity": 0.6141732283464567,
                    "duration": 0.13031024999999996
                },
                {
                    "name": "C5",
                    "midi": 72,
                    "time": 6.254892,
                    "velocity": 0.6062992125984252,
                    "duration": 1.4334127499999996
                },
                {
                    "name": "A#4",
                    "midi": 70,
                    "time": 7.6883047499999995,
                    "velocity": 0.5905511811023622,
                    "duration": 0.13031024999999996
                },
                {
                    "name": "A4",
                    "midi": 69,
                    "time": 7.818614999999999,
                    "velocity": 0.5511811023622047,
                    "duration": 0.7818614999999998
                },
                {
                    "name": "A4",
                    "midi": 69,
                    "time": 9.25202775,
                    "velocity": 0.6062992125984252,
                    "duration": 0.13031025000000085
                },
                {
                    "name": "A4",
                    "midi": 69,
                    "time": 9.382338,
                    "velocity": 0.6062992125984252,
                    "duration": 0.5212409999999998
                },
                {
                    "name": "F4",
                    "midi": 65,
                    "time": 10.033889250000001,
                    "velocity": 0.49606299212598426,
                    "duration": 0.04343674999999969
                },
                {
                    "name": "D4",
                    "midi": 62,
                    "time": 10.072982325000002,
                    "velocity": 0.49606299212598426,
                    "duration": 0.030405724999999606
                },
                {
                    "name": "E4",
                    "midi": 64,
                    "time": 10.103388050000001,
                    "velocity": 0.49606299212598426,
                    "duration": 0.030405724999999606
                },
                {
                    "name": "F4",
                    "midi": 65,
                    "time": 10.133793775000001,
                    "velocity": 0.49606299212598426,
                    "duration": 0.030405724999999606
                },
                {
                    "name": "E4",
                    "midi": 64,
                    "time": 10.1641995,
                    "velocity": 0.5669291338582677,
                    "duration": 0.2606204999999999
                },
                {
                    "name": "D4",
                    "midi": 62,
                    "time": 10.42482,
                    "velocity": 0.5669291338582677,
                    "duration": 0.2606204999999999
                },
                {
                    "name": "F4",
                    "midi": 65,
                    "time": 11.467302,
                    "velocity": 0.5511811023622047,
                    "duration": 0.2606204999999999
                },
                {
                    "name": "A4",
                    "midi": 69,
                    "time": 11.7279225,
                    "velocity": 0.5669291338582677,
                    "duration": 0.2606204999999999
                },
                {
                    "name": "D5",
                    "midi": 74,
                    "time": 11.988543,
                    "velocity": 0.5984251968503937,
                    "duration": 0.39093075000000077
                },
                {
                    "name": "F5",
                    "midi": 77,
                    "time": 12.37947375,
                    "velocity": 0.6062992125984252,
                    "duration": 0.13031025000000085
                },
                {
                    "name": "E5",
                    "midi": 76,
                    "time": 12.509784000000002,
                    "velocity": 0.6220472440944882,
                    "duration": 1.4334127500000005
                },
                {
                    "name": "D5",
                    "midi": 74,
                    "time": 13.943196750000002,
                    "velocity": 0.6220472440944882,
                    "duration": 0.13031025000000085
                },
                {
                    "name": "A4",
                    "midi": 69,
                    "time": 14.073507000000003,
                    "velocity": 0.6220472440944882,
                    "duration": 0.39093075000000077
                },
                {
                    "name": "A4",
                    "midi": 69,
                    "time": 14.464437750000004,
                    "velocity": 0.44881889763779526,
                    "duration": 0.06515512500000042
                },
                {
                    "name": "B4",
                    "midi": 71,
                    "time": 14.529592875000004,
                    "velocity": 0.44881889763779526,
                    "duration": 0.06515512500000042
                },
                {
                    "name": "C5",
                    "midi": 72,
                    "time": 14.594748000000004,
                    "velocity": 0.4566929133858268,
                    "duration": 0.06515512500000042
                },
                {
                    "name": "B4",
                    "midi": 71,
                    "time": 14.659903125000005,
                    "velocity": 0.4566929133858268,
                    "duration": 0.06515512500000042
                },
                {
                    "name": "C5",
                    "midi": 72,
                    "time": 14.725058250000005,
                    "velocity": 0.4645669291338583,
                    "duration": 0.06515512500000042
                },
                {
                    "name": "B4",
                    "midi": 71,
                    "time": 14.790213375000006,
                    "velocity": 0.4645669291338583,
                    "duration": 0.06515512500000042
                },
                {
                    "name": "C5",
                    "midi": 72,
                    "time": 14.855368500000006,
                    "velocity": 0.47244094488188976,
                    "duration": 0.06515512500000042
                },
                {
                    "name": "B4",
                    "midi": 71,
                    "time": 14.920523625000007,
                    "velocity": 0.47244094488188976,
                    "duration": 0.06515512500000042
                },
                {
                    "name": "C5",
                    "midi": 72,
                    "time": 14.985678750000007,
                    "velocity": 0.48031496062992124,
                    "duration": 0.06515512500000042
                },
                {
                    "name": "B4",
                    "midi": 71,
                    "time": 15.050833875000007,
                    "velocity": 0.48031496062992124,
                    "duration": 0.06515512500000042
                },
                {
                    "name": "C5",
                    "midi": 72,
                    "time": 15.115989000000008,
                    "velocity": 0.4881889763779528,
                    "duration": 0.06515512500000042
                },
                {
                    "name": "B4",
                    "midi": 71,
                    "time": 15.181144125000008,
                    "velocity": 0.4881889763779528,
                    "duration": 0.06515512500000042
                },
                {
                    "name": "C5",
                    "midi": 72,
                    "time": 15.246299250000009,
                    "velocity": 0.49606299212598426,
                    "duration": 0.06515512500000042
                },
                {
                    "name": "B4",
                    "midi": 71,
                    "time": 15.31145437500001,
                    "velocity": 0.49606299212598426,
                    "duration": 0.06515512500000042
                },
                {
                    "name": "C5",
                    "midi": 72,
                    "time": 15.37660950000001,
                    "velocity": 0.49606299212598426,
                    "duration": 0.06515512500000042
                },
                {
                    "name": "B4",
                    "midi": 71,
                    "time": 15.44176462500001,
                    "velocity": 0.49606299212598426,
                    "duration": 0.06515512500000042
                },
                {
                    "name": "A4",
                    "midi": 69,
                    "time": 15.50691975000001,
                    "velocity": 0.5039370078740157,
                    "duration": 0.06515512500000042
                },
                {
                    "name": "B4",
                    "midi": 71,
                    "time": 15.57207487500001,
                    "velocity": 0.5039370078740157,
                    "duration": 0.06515512500000042
                },
                {
                    "name": "C5",
                    "midi": 72,
                    "time": 15.637230000000011,
                    "velocity": 0.6220472440944882,
                    "duration": 0.7818614999999998
                },
                {
                    "name": "A#4",
                    "midi": 70,
                    "time": 16.41909150000001,
                    "velocity": 0.6141732283464567,
                    "duration": 0.5212409999999998
                },
                {
                    "name": "A4",
                    "midi": 69,
                    "time": 16.94033250000001,
                    "velocity": 0.5748031496062992,
                    "duration": 0.2606205000000017
                },
                {
                    "name": "G4",
                    "midi": 67,
                    "time": 17.200953000000013,
                    "velocity": 0.47244094488188976,
                    "duration": 0.06515512500000042
                },
                {
                    "name": "A4",
                    "midi": 69,
                    "time": 17.266108125000013,
                    "velocity": 0.48031496062992124,
                    "duration": 0.06515512500000042
                },
                {
                    "name": "G4",
                    "midi": 67,
                    "time": 17.331263250000013,
                    "velocity": 0.48031496062992124,
                    "duration": 0.06515512500000042
                },
                {
                    "name": "A4",
                    "midi": 69,
                    "time": 17.396418375000014,
                    "velocity": 0.4881889763779528,
                    "duration": 0.06515512500000042
                },
                {
                    "name": "G4",
                    "midi": 67,
                    "time": 17.461573500000014,
                    "velocity": 0.49606299212598426,
                    "duration": 0.06515512500000042
                },
                {
                    "name": "A4",
                    "midi": 69,
                    "time": 17.526728625000015,
                    "velocity": 0.49606299212598426,
                    "duration": 0.06515512500000042
                },
                {
                    "name": "G4",
                    "midi": 67,
                    "time": 17.591883750000015,
                    "velocity": 0.49606299212598426,
                    "duration": 0.06515512500000042
                },
                {
                    "name": "A4",
                    "midi": 69,
                    "time": 17.657038875000016,
                    "velocity": 0.5039370078740157,
                    "duration": 0.06515512500000042
                },
                {
                    "name": "G4",
                    "midi": 67,
                    "time": 17.722194000000016,
                    "velocity": 0.5039370078740157,
                    "duration": 0.06515512500000042
                },
                {
                    "name": "A4",
                    "midi": 69,
                    "time": 17.787349125000016,
                    "velocity": 0.5118110236220472,
                    "duration": 0.06515512500000042
                },
                {
                    "name": "F4",
                    "midi": 65,
                    "time": 17.852504250000017,
                    "velocity": 0.5196850393700787,
                    "duration": 0.06515512500000042
                },
                {
                    "name": "G4",
                    "midi": 67,
                    "time": 17.917659375000017,
                    "velocity": 0.5275590551181102,
                    "duration": 0.06515512500000042
                },
                {
                    "name": "A4",
                    "midi": 69,
                    "time": 17.982814500000018,
                    "velocity": 0.6141732283464567,
                    "duration": 0.5212409999999998
                },
                {
                    "name": "F4",
                    "midi": 65,
                    "time": 18.63436575000002,
                    "velocity": 0.6141732283464567,
                    "duration": 0.13031025000000085
                },
                {
                    "name": "C4",
                    "midi": 60,
                    "time": 18.76467600000002,
                    "velocity": 0.5669291338582677,
                    "duration": 1.5637229999999995
                },
                {
                    "name": "C4",
                    "midi": 60,
                    "time": 20.32839900000002,
                    "velocity": 0.5669291338582677,
                    "duration": 0.15637230000000102
                },
                {
                    "name": "D4",
                    "midi": 62,
                    "time": 20.48477130000002,
                    "velocity": 0.48031496062992124,
                    "duration": 0.05212410000000034
                },
                {
                    "name": "C4",
                    "midi": 60,
                    "time": 20.53689540000002,
                    "velocity": 0.4881889763779528,
                    "duration": 0.05212410000000034
                },
                {
                    "name": "B3",
                    "midi": 59,
                    "time": 20.58901950000002,
                    "velocity": 0.49606299212598426,
                    "duration": 0.05212410000000034
                },
                {
                    "name": "C4",
                    "midi": 60,
                    "time": 20.64114360000002,
                    "velocity": 0.49606299212598426,
                    "duration": 0.05212410000000034
                },
                {
                    "name": "D4",
                    "midi": 62,
                    "time": 20.69326770000002,
                    "velocity": 0.49606299212598426,
                    "duration": 0.05212410000000034
                },
                {
                    "name": "E4",
                    "midi": 64,
                    "time": 20.74539180000002,
                    "velocity": 0.5039370078740157,
                    "duration": 0.05212410000000034
                },
                {
                    "name": "F4",
                    "midi": 65,
                    "time": 20.797515900000022,
                    "velocity": 0.5039370078740157,
                    "duration": 0.05212410000000034
                },
                {
                    "name": "G4",
                    "midi": 67,
                    "time": 20.849640000000022,
                    "velocity": 0.5118110236220472,
                    "duration": 0.05212410000000034
                },
                {
                    "name": "A4",
                    "midi": 69,
                    "time": 20.901764100000022,
                    "velocity": 0.5196850393700787,
                    "duration": 0.05212410000000034
                },
                {
                    "name": "A#4",
                    "midi": 70,
                    "time": 20.953888200000023,
                    "velocity": 0.5196850393700787,
                    "duration": 0.05212410000000034
                },
                {
                    "name": "C5",
                    "midi": 72,
                    "time": 21.006012300000023,
                    "velocity": 0.5275590551181102,
                    "duration": 0.05212410000000034
                },
                {
                    "name": "D5",
                    "midi": 74,
                    "time": 21.058136400000024,
                    "velocity": 0.5354330708661418,
                    "duration": 0.05212410000000034
                },
                {
                    "name": "E5",
                    "midi": 76,
                    "time": 21.110260500000024,
                    "velocity": 0.5433070866141733,
                    "duration": 0.05212410000000034
                },
                {
                    "name": "F5",
                    "midi": 77,
                    "time": 21.162384600000024,
                    "velocity": 0.5433070866141733,
                    "duration": 0.05212410000000034
                },
                {
                    "name": "G5",
                    "midi": 79,
                    "time": 21.214508700000025,
                    "velocity": 0.5511811023622047,
                    "duration": 0.05212410000000034
                },
                {
                    "name": "A5",
                    "midi": 81,
                    "time": 21.266632800000025,
                    "velocity": 0.5590551181102362,
                    "duration": 0.05212410000000034
                },
                {
                    "name": "A#5",
                    "midi": 82,
                    "time": 21.318756900000025,
                    "velocity": 0.5590551181102362,
                    "duration": 0.05212410000000034
                },
                {
                    "name": "C6",
                    "midi": 84,
                    "time": 21.370881000000026,
                    "velocity": 0.5669291338582677,
                    "duration": 0.05212410000000034
                },
                {
                    "name": "D6",
                    "midi": 86,
                    "time": 21.423005100000026,
                    "velocity": 0.5669291338582677,
                    "duration": 0.05212410000000034
                },
                {
                    "name": "E6",
                    "midi": 88,
                    "time": 21.475129200000026,
                    "velocity": 0.5669291338582677,
                    "duration": 0.05212410000000034
                },
                {
                    "name": "F6",
                    "midi": 89,
                    "time": 21.527253300000027,
                    "velocity": 0.5748031496062992,
                    "duration": 0.05212410000000034
                },
                {
                    "name": "G6",
                    "midi": 91,
                    "time": 21.579377400000027,
                    "velocity": 0.5826771653543307,
                    "duration": 0.05212410000000034
                },
                {
                    "name": "A6",
                    "midi": 93,
                    "time": 21.631501500000027,
                    "velocity": 0.5905511811023622,
                    "duration": 0.05212410000000034
                },
                {
                    "name": "A#6",
                    "midi": 94,
                    "time": 21.683625600000028,
                    "velocity": 0.5905511811023622,
                    "duration": 0.05212410000000034
                },
                {
                    "name": "C7",
                    "midi": 96,
                    "time": 21.735749700000028,
                    "velocity": 0.5984251968503937,
                    "duration": 0.05212410000000034
                },
                {
                    "name": "D7",
                    "midi": 98,
                    "time": 21.78787380000003,
                    "velocity": 0.6062992125984252,
                    "duration": 0.05212410000000034
                },
                {
                    "name": "E7",
                    "midi": 100,
                    "time": 21.83999790000003,
                    "velocity": 0.6062992125984252,
                    "duration": 0.05212410000000034
                },
                {
                    "name": "F7",
                    "midi": 101,
                    "time": 21.89212200000003,
                    "velocity": 0.7086614173228346,
                    "duration": 0.5212409999999998
                },
                {
                    "name": "B4",
                    "midi": 71,
                    "time": 23.45584500000003,
                    "velocity": 0.5039370078740157,
                    "duration": 0.06515512500000042
                },
                {
                    "name": "C5",
                    "midi": 72,
                    "time": 23.52100012500003,
                    "velocity": 0.5039370078740157,
                    "duration": 0.06515512500000042
                },
                {
                    "name": "B4",
                    "midi": 71,
                    "time": 23.58615525000003,
                    "velocity": 0.5039370078740157,
                    "duration": 0.06515512500000042
                },
                {
                    "name": "C5",
                    "midi": 72,
                    "time": 23.65131037500003,
                    "velocity": 0.5039370078740157,
                    "duration": 0.06515512500000042
                },
                {
                    "name": "B4",
                    "midi": 71,
                    "time": 23.71646550000003,
                    "velocity": 0.5039370078740157,
                    "duration": 0.06515512500000042
                },
                {
                    "name": "C5",
                    "midi": 72,
                    "time": 23.78162062500003,
                    "velocity": 0.5039370078740157,
                    "duration": 0.06515512500000042
                },
                {
                    "name": "B4",
                    "midi": 71,
                    "time": 23.84677575000003,
                    "velocity": 0.5118110236220472,
                    "duration": 0.06515512500000042
                },
                {
                    "name": "C5",
                    "midi": 72,
                    "time": 23.91193087500003,
                    "velocity": 0.5118110236220472,
                    "duration": 0.06515512500000042
                },
                {
                    "name": "B4",
                    "midi": 71,
                    "time": 23.977086000000032,
                    "velocity": 0.5118110236220472,
                    "duration": 0.06515512500000042
                },
                {
                    "name": "C5",
                    "midi": 72,
                    "time": 24.042241125000032,
                    "velocity": 0.5118110236220472,
                    "duration": 0.06515512500000042
                },
                {
                    "name": "A4",
                    "midi": 69,
                    "time": 24.107396250000033,
                    "velocity": 0.5118110236220472,
                    "duration": 0.06515512500000042
                },
                {
                    "name": "B4",
                    "midi": 71,
                    "time": 24.172551375000033,
                    "velocity": 0.5118110236220472,
                    "duration": 0.06515512500000042
                },
                {
                    "name": "C5",
                    "midi": 72,
                    "time": 24.237706500000034,
                    "velocity": 0.6062992125984252,
                    "duration": 0.5212409999999998
                },
                {
                    "name": "A4",
                    "midi": 69,
                    "time": 24.889257750000034,
                    "velocity": 0.6062992125984252,
                    "duration": 0.13031025000000085
                },
                {
                    "name": "E4",
                    "midi": 64,
                    "time": 25.019568000000035,
                    "velocity": 0.5984251968503937,
                    "duration": 0.5212409999999998
                },
                {
                    "name": "F6",
                    "midi": 89,
                    "time": 25.540809000000035,
                    "velocity": 0.6850393700787402,
                    "duration": 0.2997135749999984
                },
                {
                    "name": "E6",
                    "midi": 88,
                    "time": 25.840522575000033,
                    "velocity": 0.5826771653543307,
                    "duration": 0.061897368749999515
                },
                {
                    "name": "C6",
                    "midi": 84,
                    "time": 25.902419943750033,
                    "velocity": 0.5748031496062992,
                    "duration": 0.061897368749999515
                },
                {
                    "name": "A5",
                    "midi": 81,
                    "time": 25.964317312500032,
                    "velocity": 0.5669291338582677,
                    "duration": 0.061897368749999515
                },
                {
                    "name": "F5",
                    "midi": 77,
                    "time": 26.026214681250032,
                    "velocity": 0.5669291338582677,
                    "duration": 0.061897368749999515
                },
                {
                    "name": "E5",
                    "midi": 76,
                    "time": 26.08811205000003,
                    "velocity": 0.5669291338582677,
                    "duration": 0.061897368749999515
                },
                {
                    "name": "C5",
                    "midi": 72,
                    "time": 26.15000941875003,
                    "velocity": 0.5669291338582677,
                    "duration": 0.061897368749999515
                },
                {
                    "name": "A4",
                    "midi": 69,
                    "time": 26.21190678750003,
                    "velocity": 0.5590551181102362,
                    "duration": 0.061897368749999515
                },
                {
                    "name": "F4",
                    "midi": 65,
                    "time": 26.27380415625003,
                    "velocity": 0.5511811023622047,
                    "duration": 0.061897368749999515
                },
                {
                    "name": "E4",
                    "midi": 64,
                    "time": 26.33570152500003,
                    "velocity": 0.5511811023622047,
                    "duration": 0.061897368749999515
                },
                {
                    "name": "C4",
                    "midi": 60,
                    "time": 26.39759889375003,
                    "velocity": 0.5433070866141733,
                    "duration": 0.061897368749999515
                },
                {
                    "name": "A3",
                    "midi": 57,
                    "time": 26.45949626250003,
                    "velocity": 0.5354330708661418,
                    "duration": 0.061897368749999515
                },
                {
                    "name": "F3",
                    "midi": 53,
                    "time": 26.521393631250028,
                    "velocity": 0.5354330708661418,
                    "duration": 0.061897368749999515
                },
                {
                    "name": "E3",
                    "midi": 52,
                    "time": 26.583291000000028,
                    "velocity": 0.6692913385826772,
                    "duration": 0.5212409999999998
                },
                {
                    "name": "E3",
                    "midi": 52,
                    "time": 27.104532000000027,
                    "velocity": 0.5039370078740157,
                    "duration": 0.10424820000000068
                },
                {
                    "name": "F3",
                    "midi": 53,
                    "time": 27.208780200000028,
                    "velocity": 0.5118110236220472,
                    "duration": 0.03474939999999904
                },
                {
                    "name": "E3",
                    "midi": 52,
                    "time": 27.243529600000027,
                    "velocity": 0.5196850393700787,
                    "duration": 0.03474939999999904
                },
                {
                    "name": "D#3",
                    "midi": 51,
                    "time": 27.278279000000026,
                    "velocity": 0.5275590551181102,
                    "duration": 0.03474939999999904
                },
                {
                    "name": "E3",
                    "midi": 52,
                    "time": 27.313028400000025,
                    "velocity": 0.5275590551181102,
                    "duration": 0.03474939999999904
                },
                {
                    "name": "F#3",
                    "midi": 54,
                    "time": 27.347777800000024,
                    "velocity": 0.5354330708661418,
                    "duration": 0.03474939999999904
                },
                {
                    "name": "G#3",
                    "midi": 56,
                    "time": 27.382527200000023,
                    "velocity": 0.5354330708661418,
                    "duration": 0.03474939999999904
                },
                {
                    "name": "A3",
                    "midi": 57,
                    "time": 27.417276600000022,
                    "velocity": 0.5354330708661418,
                    "duration": 0.03474939999999904
                },
                {
                    "name": "B3",
                    "midi": 59,
                    "time": 27.45202600000002,
                    "velocity": 0.5433070866141733,
                    "duration": 0.03474939999999904
                },
                {
                    "name": "C4",
                    "midi": 60,
                    "time": 27.48677540000002,
                    "velocity": 0.5433070866141733,
                    "duration": 0.03474939999999904
                },
                {
                    "name": "D4",
                    "midi": 62,
                    "time": 27.52152480000002,
                    "velocity": 0.5511811023622047,
                    "duration": 0.03474939999999904
                },
                {
                    "name": "E4",
                    "midi": 64,
                    "time": 27.55627420000002,
                    "velocity": 0.5511811023622047,
                    "duration": 0.03474939999999904
                },
                {
                    "name": "F#4",
                    "midi": 66,
                    "time": 27.591023600000018,
                    "velocity": 0.5590551181102362,
                    "duration": 0.03474939999999904
                },
                {
                    "name": "G#4",
                    "midi": 68,
                    "time": 27.625773000000017,
                    "velocity": 0.5590551181102362,
                    "duration": 0.03474939999999904
                },
                {
                    "name": "A4",
                    "midi": 69,
                    "time": 27.660522400000016,
                    "velocity": 0.5669291338582677,
                    "duration": 0.03474939999999904
                },
                {
                    "name": "B4",
                    "midi": 71,
                    "time": 27.695271800000015,
                    "velocity": 0.5669291338582677,
                    "duration": 0.03474939999999904
                },
                {
                    "name": "C5",
                    "midi": 72,
                    "time": 27.730021200000014,
                    "velocity": 0.5669291338582677,
                    "duration": 0.03474939999999904
                },
                {
                    "name": "D5",
                    "midi": 74,
                    "time": 27.764770600000013,
                    "velocity": 0.5669291338582677,
                    "duration": 0.03474939999999904
                },
                {
                    "name": "E5",
                    "midi": 76,
                    "time": 27.799520000000012,
                    "velocity": 0.5748031496062992,
                    "duration": 0.03474939999999904
                },
                {
                    "name": "F#5",
                    "midi": 78,
                    "time": 27.83426940000001,
                    "velocity": 0.5826771653543307,
                    "duration": 0.03474939999999904
                },
                {
                    "name": "G#5",
                    "midi": 80,
                    "time": 27.86901880000001,
                    "velocity": 0.5826771653543307,
                    "duration": 0.03474939999999904
                },
                {
                    "name": "A5",
                    "midi": 81,
                    "time": 27.90376820000001,
                    "velocity": 0.5905511811023622,
                    "duration": 0.03474939999999904
                },
                {
                    "name": "B5",
                    "midi": 83,
                    "time": 27.938517600000008,
                    "velocity": 0.5905511811023622,
                    "duration": 0.03474939999999904
                },
                {
                    "name": "C6",
                    "midi": 84,
                    "time": 27.973267000000007,
                    "velocity": 0.5984251968503937,
                    "duration": 0.03474939999999904
                },
                {
                    "name": "D6",
                    "midi": 86,
                    "time": 28.008016400000006,
                    "velocity": 0.5984251968503937,
                    "duration": 0.03474939999999904
                },
                {
                    "name": "E6",
                    "midi": 88,
                    "time": 28.042765800000005,
                    "velocity": 0.6062992125984252,
                    "duration": 0.03474939999999904
                },
                {
                    "name": "F#6",
                    "midi": 90,
                    "time": 28.077515200000004,
                    "velocity": 0.6062992125984252,
                    "duration": 0.03474939999999904
                },
                {
                    "name": "G#6",
                    "midi": 92,
                    "time": 28.112264600000003,
                    "velocity": 0.6141732283464567,
                    "duration": 0.03474939999999904
                },
                {
                    "name": "A6",
                    "midi": 93,
                    "time": 28.147014000000002,
                    "velocity": 0.6692913385826772,
                    "duration": 0.5212409999999998
                },
                {
                    "name": "E4",
                    "midi": 64,
                    "time": 31.27446,
                    "velocity": 0.6062992125984252,
                    "duration": 0.5212409999999998
                },
                {
                    "name": "C4",
                    "midi": 60,
                    "time": 31.795701,
                    "velocity": 0.5511811023622047,
                    "duration": 0.2606205000000017
                },
                {
                    "name": "A3",
                    "midi": 57,
                    "time": 32.0563215,
                    "velocity": 0.5275590551181102,
                    "duration": 1.563723000000003
                },
                {
                    "name": "C4",
                    "midi": 60,
                    "time": 33.620044500000006,
                    "velocity": 0.5669291338582677,
                    "duration": 0.2606205000000017
                },
                {
                    "name": "E4",
                    "midi": 64,
                    "time": 33.88066500000001,
                    "velocity": 0.6062992125984252,
                    "duration": 0.39093075000000255
                },
                {
                    "name": "A4",
                    "midi": 69,
                    "time": 34.27159575000001,
                    "velocity": 0.6141732283464567,
                    "duration": 0.13031025000000085
                },
                {
                    "name": "G4",
                    "midi": 67,
                    "time": 34.40190600000001,
                    "velocity": 0.6062992125984252,
                    "duration": 1.4334127500000022
                },
                {
                    "name": "F4",
                    "midi": 65,
                    "time": 35.83531875000001,
                    "velocity": 0.5905511811023622,
                    "duration": 0.13031025000000085
                },
                {
                    "name": "E4",
                    "midi": 64,
                    "time": 35.965629000000014,
                    "velocity": 0.5511811023622047,
                    "duration": 0.781861499999998
                },
                {
                    "name": "E4",
                    "midi": 64,
                    "time": 37.39904175000001,
                    "velocity": 0.6062992125984252,
                    "duration": 0.13031025000000085
                },
                {
                    "name": "E4",
                    "midi": 64,
                    "time": 37.52935200000001,
                    "velocity": 0.6062992125984252,
                    "duration": 0.5212410000000034
                },
                {
                    "name": "C4",
                    "midi": 60,
                    "time": 38.180903250000014,
                    "velocity": 0.49606299212598426,
                    "duration": 0.043436749999997915
                },
                {
                    "name": "A3",
                    "midi": 57,
                    "time": 38.21999632500001,
                    "velocity": 0.49606299212598426,
                    "duration": 0.030405725000001382
                },
                {
                    "name": "B3",
                    "midi": 59,
                    "time": 38.25040205000001,
                    "velocity": 0.49606299212598426,
                    "duration": 0.030405725000001382
                },
                {
                    "name": "C4",
                    "midi": 60,
                    "time": 38.280807775000014,
                    "velocity": 0.49606299212598426,
                    "duration": 0.030405725000001382
                },
                {
                    "name": "B3",
                    "midi": 59,
                    "time": 38.311213500000015,
                    "velocity": 0.5669291338582677,
                    "duration": 0.2606205000000017
                },
                {
                    "name": "A3",
                    "midi": 57,
                    "time": 38.57183400000002,
                    "velocity": 0.5669291338582677,
                    "duration": 0.2606205000000017
                },
                {
                    "name": "C4",
                    "midi": 60,
                    "time": 39.61431600000002,
                    "velocity": 0.5511811023622047,
                    "duration": 0.2606205000000017
                },
                {
                    "name": "E4",
                    "midi": 64,
                    "time": 39.87493650000002,
                    "velocity": 0.5669291338582677,
                    "duration": 0.2606205000000017
                },
                {
                    "name": "A4",
                    "midi": 69,
                    "time": 40.13555700000002,
                    "velocity": 0.5984251968503937,
                    "duration": 0.39093075000000255
                },
                {
                    "name": "C5",
                    "midi": 72,
                    "time": 40.52648775000002,
                    "velocity": 0.6062992125984252,
                    "duration": 0.13031025000000085
                },
                {
                    "name": "B4",
                    "midi": 71,
                    "time": 40.65679800000002,
                    "velocity": 0.6220472440944882,
                    "duration": 1.4334127500000022
                },
                {
                    "name": "A4",
                    "midi": 69,
                    "time": 42.090210750000026,
                    "velocity": 0.6220472440944882,
                    "duration": 0.13031025000000085
                },
                {
                    "name": "E4",
                    "midi": 64,
                    "time": 42.220521000000026,
                    "velocity": 0.6220472440944882,
                    "duration": 0.39093075000000255
                },
                {
                    "name": "E4",
                    "midi": 64,
                    "time": 42.61145175000003,
                    "velocity": 0.44881889763779526,
                    "duration": 0.06515512499999687
                },
                {
                    "name": "F#4",
                    "midi": 66,
                    "time": 42.676606875000026,
                    "velocity": 0.44881889763779526,
                    "duration": 0.06515512499999687
                },
                {
                    "name": "G4",
                    "midi": 67,
                    "time": 42.74176200000002,
                    "velocity": 0.4566929133858268,
                    "duration": 0.06515512499999687
                },
                {
                    "name": "F#4",
                    "midi": 66,
                    "time": 42.80691712500002,
                    "velocity": 0.4566929133858268,
                    "duration": 0.06515512499999687
                },
                {
                    "name": "G4",
                    "midi": 67,
                    "time": 42.872072250000016,
                    "velocity": 0.4645669291338583,
                    "duration": 0.06515512499999687
                },
                {
                    "name": "F#4",
                    "midi": 66,
                    "time": 42.93722737500001,
                    "velocity": 0.4645669291338583,
                    "duration": 0.06515512499999687
                },
                {
                    "name": "G4",
                    "midi": 67,
                    "time": 43.00238250000001,
                    "velocity": 0.47244094488188976,
                    "duration": 0.06515512499999687
                },
                {
                    "name": "F#4",
                    "midi": 66,
                    "time": 43.06753762500001,
                    "velocity": 0.47244094488188976,
                    "duration": 0.06515512499999687
                },
                {
                    "name": "G4",
                    "midi": 67,
                    "time": 43.132692750000004,
                    "velocity": 0.48031496062992124,
                    "duration": 0.06515512499999687
                },
                {
                    "name": "F#4",
                    "midi": 66,
                    "time": 43.197847875,
                    "velocity": 0.48031496062992124,
                    "duration": 0.06515512499999687
                },
                {
                    "name": "G4",
                    "midi": 67,
                    "time": 43.263003,
                    "velocity": 0.4881889763779528,
                    "duration": 0.06515512499999687
                },
                {
                    "name": "F#4",
                    "midi": 66,
                    "time": 43.328158124999995,
                    "velocity": 0.4881889763779528,
                    "duration": 0.06515512499999687
                },
                {
                    "name": "G4",
                    "midi": 67,
                    "time": 43.39331324999999,
                    "velocity": 0.49606299212598426,
                    "duration": 0.06515512499999687
                },
                {
                    "name": "F#4",
                    "midi": 66,
                    "time": 43.45846837499999,
                    "velocity": 0.49606299212598426,
                    "duration": 0.06515512499999687
                },
                {
                    "name": "G4",
                    "midi": 67,
                    "time": 43.523623499999985,
                    "velocity": 0.49606299212598426,
                    "duration": 0.06515512499999687
                },
                {
                    "name": "F#4",
                    "midi": 66,
                    "time": 43.58877862499998,
                    "velocity": 0.49606299212598426,
                    "duration": 0.06515512499999687
                },
                {
                    "name": "E4",
                    "midi": 64,
                    "time": 43.65393374999998,
                    "velocity": 0.5039370078740157,
                    "duration": 0.06515512499999687
                },
                {
                    "name": "F#4",
                    "midi": 66,
                    "time": 43.719088874999976,
                    "velocity": 0.5039370078740157,
                    "duration": 0.06515512499999687
                },
                {
                    "name": "G4",
                    "midi": 67,
                    "time": 43.78424399999997,
                    "velocity": 0.6220472440944882,
                    "duration": 0.781861499999998
                },
                {
                    "name": "F4",
                    "midi": 65,
                    "time": 44.56610549999997,
                    "velocity": 0.6141732283464567,
                    "duration": 0.5212410000000034
                },
                {
                    "name": "E4",
                    "midi": 64,
                    "time": 45.087346499999974,
                    "velocity": 0.6062992125984252,
                    "duration": 0.2606205000000017
                },
                {
                    "name": "D4",
                    "midi": 62,
                    "time": 45.347966999999976,
                    "velocity": 0.47244094488188976,
                    "duration": 0.06515512499999687
                },
                {
                    "name": "E4",
                    "midi": 64,
                    "time": 45.41312212499997,
                    "velocity": 0.48031496062992124,
                    "duration": 0.06515512499999687
                },
                {
                    "name": "D4",
                    "midi": 62,
                    "time": 45.47827724999997,
                    "velocity": 0.48031496062992124,
                    "duration": 0.06515512499999687
                },
                {
                    "name": "E4",
                    "midi": 64,
                    "time": 45.543432374999966,
                    "velocity": 0.4881889763779528,
                    "duration": 0.06515512499999687
                },
                {
                    "name": "D4",
                    "midi": 62,
                    "time": 45.60858749999996,
                    "velocity": 0.49606299212598426,
                    "duration": 0.06515512499999687
                },
                {
                    "name": "E4",
                    "midi": 64,
                    "time": 45.67374262499996,
                    "velocity": 0.49606299212598426,
                    "duration": 0.06515512499999687
                },
                {
                    "name": "D4",
                    "midi": 62,
                    "time": 45.73889774999996,
                    "velocity": 0.49606299212598426,
                    "duration": 0.06515512499999687
                },
                {
                    "name": "E4",
                    "midi": 64,
                    "time": 45.804052874999954,
                    "velocity": 0.5039370078740157,
                    "duration": 0.06515512499999687
                },
                {
                    "name": "D4",
                    "midi": 62,
                    "time": 45.86920799999995,
                    "velocity": 0.5039370078740157,
                    "duration": 0.06515512499999687
                },
                {
                    "name": "E4",
                    "midi": 64,
                    "time": 45.93436312499995,
                    "velocity": 0.5118110236220472,
                    "duration": 0.06515512499999687
                },
                {
                    "name": "C4",
                    "midi": 60,
                    "time": 45.999518249999944,
                    "velocity": 0.5196850393700787,
                    "duration": 0.06515512499999687
                },
                {
                    "name": "D4",
                    "midi": 62,
                    "time": 46.06467337499994,
                    "velocity": 0.5275590551181102,
                    "duration": 0.06515512499999687
                },
                {
                    "name": "E4",
                    "midi": 64,
                    "time": 46.12982849999994,
                    "velocity": 0.6141732283464567,
                    "duration": 0.5212410000000034
                },
                {
                    "name": "C4",
                    "midi": 60,
                    "time": 46.78137974999994,
                    "velocity": 0.6141732283464567,
                    "duration": 0.13031025000000085
                },
                {
                    "name": "G3",
                    "midi": 55,
                    "time": 46.91168999999994,
                    "velocity": 0.5669291338582677,
                    "duration": 1.563723000000003
                },
                {
                    "name": "G3",
                    "midi": 55,
                    "time": 48.475412999999946,
                    "velocity": 0.5669291338582677,
                    "duration": 0.15637230000000102
                },
                {
                    "name": "A3",
                    "midi": 57,
                    "time": 48.63178529999995,
                    "velocity": 0.48031496062992124,
                    "duration": 0.05212410000000034
                },
                {
                    "name": "G3",
                    "midi": 55,
                    "time": 48.68390939999995,
                    "velocity": 0.4881889763779528,
                    "duration": 0.05212410000000034
                },
                {
                    "name": "F#3",
                    "midi": 54,
                    "time": 48.73603349999995,
                    "velocity": 0.49606299212598426,
                    "duration": 0.05212410000000034
                },
                {
                    "name": "G3",
                    "midi": 55,
                    "time": 48.78815759999995,
                    "velocity": 0.49606299212598426,
                    "duration": 0.05212410000000034
                },
                {
                    "name": "A3",
                    "midi": 57,
                    "time": 48.84028169999995,
                    "velocity": 0.49606299212598426,
                    "duration": 0.05212410000000034
                },
                {
                    "name": "B3",
                    "midi": 59,
                    "time": 48.89240579999995,
                    "velocity": 0.5039370078740157,
                    "duration": 0.05212410000000034
                },
                {
                    "name": "C4",
                    "midi": 60,
                    "time": 48.94452989999995,
                    "velocity": 0.5039370078740157,
                    "duration": 0.05212410000000034
                },
                {
                    "name": "D4",
                    "midi": 62,
                    "time": 48.99665399999995,
                    "velocity": 0.5118110236220472,
                    "duration": 0.05212410000000034
                },
                {
                    "name": "E4",
                    "midi": 64,
                    "time": 49.04877809999995,
                    "velocity": 0.5196850393700787,
                    "duration": 0.05212410000000034
                },
                {
                    "name": "F4",
                    "midi": 65,
                    "time": 49.10090219999995,
                    "velocity": 0.5196850393700787,
                    "duration": 0.05212410000000034
                },
                {
                    "name": "G4",
                    "midi": 67,
                    "time": 49.15302629999995,
                    "velocity": 0.5275590551181102,
                    "duration": 0.05212410000000034
                },
                {
                    "name": "A4",
                    "midi": 69,
                    "time": 49.20515039999995,
                    "velocity": 0.5354330708661418,
                    "duration": 0.05212410000000034
                },
                {
                    "name": "B4",
                    "midi": 71,
                    "time": 49.25727449999995,
                    "velocity": 0.5433070866141733,
                    "duration": 0.05212410000000034
                },
                {
                    "name": "C5",
                    "midi": 72,
                    "time": 49.30939859999995,
                    "velocity": 0.5433070866141733,
                    "duration": 0.05212410000000034
                },
                {
                    "name": "D5",
                    "midi": 74,
                    "time": 49.36152269999995,
                    "velocity": 0.5511811023622047,
                    "duration": 0.05212410000000034
                },
                {
                    "name": "E5",
                    "midi": 76,
                    "time": 49.41364679999995,
                    "velocity": 0.5590551181102362,
                    "duration": 0.05212410000000034
                },
                {
                    "name": "F5",
                    "midi": 77,
                    "time": 49.46577089999995,
                    "velocity": 0.5590551181102362,
                    "duration": 0.05212410000000034
                },
                {
                    "name": "G5",
                    "midi": 79,
                    "time": 49.51789499999995,
                    "velocity": 0.5669291338582677,
                    "duration": 0.05212410000000034
                },
                {
                    "name": "A5",
                    "midi": 81,
                    "time": 49.57001909999995,
                    "velocity": 0.5669291338582677,
                    "duration": 0.05212410000000034
                },
                {
                    "name": "B5",
                    "midi": 83,
                    "time": 49.622143199999954,
                    "velocity": 0.5669291338582677,
                    "duration": 0.05212410000000034
                },
                {
                    "name": "C6",
                    "midi": 84,
                    "time": 49.674267299999954,
                    "velocity": 0.5748031496062992,
                    "duration": 0.05212410000000034
                },
                {
                    "name": "D6",
                    "midi": 86,
                    "time": 49.726391399999955,
                    "velocity": 0.5826771653543307,
                    "duration": 0.05212410000000034
                },
                {
                    "name": "E6",
                    "midi": 88,
                    "time": 49.778515499999955,
                    "velocity": 0.5905511811023622,
                    "duration": 0.05212410000000034
                },
                {
                    "name": "F6",
                    "midi": 89,
                    "time": 49.830639599999955,
                    "velocity": 0.5905511811023622,
                    "duration": 0.05212410000000034
                },
                {
                    "name": "G6",
                    "midi": 91,
                    "time": 49.882763699999956,
                    "velocity": 0.5984251968503937,
                    "duration": 0.05212410000000034
                },
                {
                    "name": "A6",
                    "midi": 93,
                    "time": 49.934887799999956,
                    "velocity": 0.6062992125984252,
                    "duration": 0.05212410000000034
                },
                {
                    "name": "B6",
                    "midi": 95,
                    "time": 49.987011899999956,
                    "velocity": 0.6062992125984252,
                    "duration": 0.05212410000000034
                },
                {
                    "name": "C7",
                    "midi": 96,
                    "time": 50.03913599999996,
                    "velocity": 0.7086614173228346,
                    "duration": 0.5212410000000034
                },
                {
                    "name": "F#4",
                    "midi": 66,
                    "time": 51.60285899999996,
                    "velocity": 0.5039370078740157,
                    "duration": 0.06515512499999687
                },
                {
                    "name": "G4",
                    "midi": 67,
                    "time": 51.66801412499996,
                    "velocity": 0.5039370078740157,
                    "duration": 0.06515512499999687
                },
                {
                    "name": "F#4",
                    "midi": 66,
                    "time": 51.73316924999995,
                    "velocity": 0.5039370078740157,
                    "duration": 0.06515512499999687
                },
                {
                    "name": "G4",
                    "midi": 67,
                    "time": 51.79832437499995,
                    "velocity": 0.5039370078740157,
                    "duration": 0.06515512499999687
                },
                {
                    "name": "F#4",
                    "midi": 66,
                    "time": 51.86347949999995,
                    "velocity": 0.5039370078740157,
                    "duration": 0.06515512499999687
                },
                {
                    "name": "G4",
                    "midi": 67,
                    "time": 51.928634624999944,
                    "velocity": 0.5039370078740157,
                    "duration": 0.06515512499999687
                },
                {
                    "name": "F#4",
                    "midi": 66,
                    "time": 51.99378974999994,
                    "velocity": 0.5118110236220472,
                    "duration": 0.06515512499999687
                },
                {
                    "name": "G4",
                    "midi": 67,
                    "time": 52.05894487499994,
                    "velocity": 0.5118110236220472,
                    "duration": 0.06515512499999687
                },
                {
                    "name": "F#4",
                    "midi": 66,
                    "time": 52.124099999999935,
                    "velocity": 0.5118110236220472,
                    "duration": 0.06515512499999687
                },
                {
                    "name": "G4",
                    "midi": 67,
                    "time": 52.18925512499993,
                    "velocity": 0.5118110236220472,
                    "duration": 0.06515512499999687
                },
                {
                    "name": "E4",
                    "midi": 64,
                    "time": 52.25441024999993,
                    "velocity": 0.5118110236220472,
                    "duration": 0.06515512499999687
                },
                {
                    "name": "F#4",
                    "midi": 66,
                    "time": 52.319565374999925,
                    "velocity": 0.5118110236220472,
                    "duration": 0.06515512499999687
                },
                {
                    "name": "G4",
                    "midi": 67,
                    "time": 52.38472049999992,
                    "velocity": 0.6062992125984252,
                    "duration": 0.5212410000000034
                },
                {
                    "name": "E4",
                    "midi": 64,
                    "time": 53.036271749999926,
                    "velocity": 0.6062992125984252,
                    "duration": 0.13031025000000085
                },
                {
                    "name": "B3",
                    "midi": 59,
                    "time": 53.16658199999993,
                    "velocity": 0.5984251968503937,
                    "duration": 0.5212410000000034
                },
                {
                    "name": "C6",
                    "midi": 84,
                    "time": 53.68782299999993,
                    "velocity": 0.6850393700787402,
                    "duration": 0.31274460000000204
                },
                {
                    "name": "B5",
                    "midi": 83,
                    "time": 54.00056759999993,
                    "velocity": 0.5826771653543307,
                    "duration": 0.060811450000002765
                },
                {
                    "name": "G5",
                    "midi": 79,
                    "time": 54.061379049999935,
                    "velocity": 0.5748031496062992,
                    "duration": 0.060811450000002765
                },
                {
                    "name": "E5",
                    "midi": 76,
                    "time": 54.12219049999994,
                    "velocity": 0.5669291338582677,
                    "duration": 0.060811450000002765
                },
                {
                    "name": "C5",
                    "midi": 72,
                    "time": 54.18300194999994,
                    "velocity": 0.5669291338582677,
                    "duration": 0.060811450000002765
                },
                {
                    "name": "B4",
                    "midi": 71,
                    "time": 54.243813399999944,
                    "velocity": 0.5669291338582677,
                    "duration": 0.060811450000002765
                },
                {
                    "name": "G4",
                    "midi": 67,
                    "time": 54.304624849999946,
                    "velocity": 0.5669291338582677,
                    "duration": 0.060811450000002765
                },
                {
                    "name": "E4",
                    "midi": 64,
                    "time": 54.36543629999995,
                    "velocity": 0.5590551181102362,
                    "duration": 0.060811450000002765
                },
                {
                    "name": "C4",
                    "midi": 60,
                    "time": 54.42624774999995,
                    "velocity": 0.5511811023622047,
                    "duration": 0.060811450000002765
                },
                {
                    "name": "B3",
                    "midi": 59,
                    "time": 54.487059199999955,
                    "velocity": 0.5511811023622047,
                    "duration": 0.060811450000002765
                },
                {
                    "name": "G3",
                    "midi": 55,
                    "time": 54.54787064999996,
                    "velocity": 0.5433070866141733,
                    "duration": 0.060811450000002765
                },
                {
                    "name": "E3",
                    "midi": 52,
                    "time": 54.60868209999996,
                    "velocity": 0.5354330708661418,
                    "duration": 0.060811450000002765
                },
                {
                    "name": "C3",
                    "midi": 48,
                    "time": 54.66949354999996,
                    "velocity": 0.5354330708661418,
                    "duration": 0.060811450000002765
                },
                {
                    "name": "B2",
                    "midi": 47,
                    "time": 54.730304999999966,
                    "velocity": 0.7086614173228346,
                    "duration": 0.8600476499999985
                },
                {
                    "name": "C3",
                    "midi": 48,
                    "time": 55.590352649999964,
                    "velocity": 0.47244094488188976,
                    "duration": 0.0390930749999967
                },
                {
                    "name": "D#3",
                    "midi": 51,
                    "time": 55.62944572499996,
                    "velocity": 0.4881889763779528,
                    "duration": 0.0390930749999967
                },
                {
                    "name": "F#3",
                    "midi": 54,
                    "time": 55.66853879999996,
                    "velocity": 0.49606299212598426,
                    "duration": 0.0390930749999967
                },
                {
                    "name": "A3",
                    "midi": 57,
                    "time": 55.707631874999954,
                    "velocity": 0.49606299212598426,
                    "duration": 0.0390930749999967
                },
                {
                    "name": "C4",
                    "midi": 60,
                    "time": 55.74672494999995,
                    "velocity": 0.5039370078740157,
                    "duration": 0.0390930749999967
                },
                {
                    "name": "D#4",
                    "midi": 63,
                    "time": 55.78581802499995,
                    "velocity": 0.5118110236220472,
                    "duration": 0.0390930749999967
                },
                {
                    "name": "F#4",
                    "midi": 66,
                    "time": 55.824911099999944,
                    "velocity": 0.5275590551181102,
                    "duration": 0.0390930749999967
                },
                {
                    "name": "A4",
                    "midi": 69,
                    "time": 55.86400417499994,
                    "velocity": 0.5354330708661418,
                    "duration": 0.0390930749999967
                },
                {
                    "name": "C5",
                    "midi": 72,
                    "time": 55.90309724999994,
                    "velocity": 0.5433070866141733,
                    "duration": 0.0390930749999967
                },
                {
                    "name": "D#5",
                    "midi": 75,
                    "time": 55.942190324999935,
                    "velocity": 0.5590551181102362,
                    "duration": 0.0390930749999967
                },
                {
                    "name": "F#5",
                    "midi": 78,
                    "time": 55.98128339999993,
                    "velocity": 0.5669291338582677,
                    "duration": 0.0390930749999967
                },
                {
                    "name": "A5",
                    "midi": 81,
                    "time": 56.02037647499993,
                    "velocity": 0.5669291338582677,
                    "duration": 0.0390930749999967
                },
                {
                    "name": "C6",
                    "midi": 84,
                    "time": 56.059469549999925,
                    "velocity": 0.5748031496062992,
                    "duration": 0.0390930749999967
                },
                {
                    "name": "D#6",
                    "midi": 87,
                    "time": 56.09856262499992,
                    "velocity": 0.5905511811023622,
                    "duration": 0.0390930749999967
                },
                {
                    "name": "F#6",
                    "midi": 90,
                    "time": 56.13765569999992,
                    "velocity": 0.5984251968503937,
                    "duration": 0.0390930749999967
                },
                {
                    "name": "A6",
                    "midi": 93,
                    "time": 56.176748774999915,
                    "velocity": 0.6062992125984252,
                    "duration": 0.0390930749999967
                },
                {
                    "name": "C7",
                    "midi": 96,
                    "time": 56.21584184999991,
                    "velocity": 0.6141732283464567,
                    "duration": 0.0390930749999967
                },
                {
                    "name": "D#7",
                    "midi": 99,
                    "time": 56.25493492499991,
                    "velocity": 0.6220472440944882,
                    "duration": 0.0390930749999967
                },
                {
                    "name": "E7",
                    "midi": 100,
                    "time": 56.294027999999905,
                    "velocity": 0.7086614173228346,
                    "duration": 0.5212410000000034
                },
                {
                    "name": "G4",
                    "midi": 67,
                    "time": 57.07588949999991,
                    "velocity": 0.6220472440944882,
                    "duration": 1.3031025000000014
                },
                {
                    "name": "G4",
                    "midi": 67,
                    "time": 58.37899199999991,
                    "velocity": 0.6141732283464567,
                    "duration": 0.17374699999999876
                },
                {
                    "name": "G4",
                    "midi": 67,
                    "time": 58.55273899999991,
                    "velocity": 0.5669291338582677,
                    "duration": 0.043436749999997915
                },
                {
                    "name": "A#4",
                    "midi": 70,
                    "time": 58.59617574999991,
                    "velocity": 0.5669291338582677,
                    "duration": 0.043436749999997915
                },
                {
                    "name": "G#4",
                    "midi": 68,
                    "time": 58.639612499999906,
                    "velocity": 0.6299212598425197,
                    "duration": 0.5212410000000034
                },
                {
                    "name": "G4",
                    "midi": 67,
                    "time": 59.29116374999991,
                    "velocity": 0.6141732283464567,
                    "duration": 0.13031025000000085
                },
                {
                    "name": "G4",
                    "midi": 67,
                    "time": 59.42147399999991,
                    "velocity": 0.6062992125984252,
                    "duration": 0.5212410000000034
                },
                {
                    "name": "D#4",
                    "midi": 63,
                    "time": 59.942714999999914,
                    "velocity": 0.6299212598425197,
                    "duration": 0.2606205000000017
                },
                {
                    "name": "C4",
                    "midi": 60,
                    "time": 60.203335499999916,
                    "velocity": 0.6141732283464567,
                    "duration": 1.563723000000003
                },
                {
                    "name": "D#4",
                    "midi": 63,
                    "time": 61.76705849999992,
                    "velocity": 0.5984251968503937,
                    "duration": 0.2606205000000017
                },
                {
                    "name": "G4",
                    "midi": 67,
                    "time": 62.02767899999992,
                    "velocity": 0.6141732283464567,
                    "duration": 0.39093075000000255
                },
                {
                    "name": "C5",
                    "midi": 72,
                    "time": 62.41860974999992,
                    "velocity": 0.6377952755905512,
                    "duration": 0.13031025000000085
                },
                {
                    "name": "A#4",
                    "midi": 70,
                    "time": 62.548919999999924,
                    "velocity": 0.6377952755905512,
                    "duration": 0.5212410000000034
                },
                {
                    "name": "G#4",
                    "midi": 68,
                    "time": 63.07016099999993,
                    "velocity": 0.6220472440944882,
                    "duration": 0.2606205000000017
                },
                {
                    "name": "D#4",
                    "midi": 63,
                    "time": 63.33078149999993,
                    "velocity": 0.6220472440944882,
                    "duration": 1.0815750750000035
                },
                {
                    "name": "G#4",
                    "midi": 68,
                    "time": 64.37326349999994,
                    "velocity": 0.6377952755905512,
                    "duration": 0.39093074999999544
                },
                {
                    "name": "G#4",
                    "midi": 68,
                    "time": 64.76419424999993,
                    "velocity": 0.6141732283464567,
                    "duration": 0.13031024999999374
                },
                {
                    "name": "G#4",
                    "midi": 68,
                    "time": 64.89450449999993,
                    "velocity": 0.5826771653543307,
                    "duration": 0.7818614999999625
                },
                {
                    "name": "F4",
                    "midi": 65,
                    "time": 65.02481474999992,
                    "velocity": 0.5984251968503937,
                    "duration": 0.13031024999999374
                },
                {
                    "name": "F#4",
                    "midi": 66,
                    "time": 65.15512499999991,
                    "velocity": 0.6141732283464567,
                    "duration": 0.13031024999999374
                },
                {
                    "name": "D#4",
                    "midi": 63,
                    "time": 65.2854352499999,
                    "velocity": 0.6299212598425197,
                    "duration": 0.13031024999999374
                },
                {
                    "name": "F#4",
                    "midi": 66,
                    "time": 65.4157454999999,
                    "velocity": 0.6377952755905512,
                    "duration": 0.13031024999999374
                },
                {
                    "name": "G#3",
                    "midi": 56,
                    "time": 65.5460557499999,
                    "velocity": 0.6456692913385826,
                    "duration": 0.13031024999999374
                },
                {
                    "name": "G#4",
                    "midi": 68,
                    "time": 65.67636599999989,
                    "velocity": 0.6614173228346457,
                    "duration": 0.5212410000000034
                },
                {
                    "name": "F4",
                    "midi": 65,
                    "time": 66.19760699999989,
                    "velocity": 0.6456692913385826,
                    "duration": 0.2606205000000017
                },
                {
                    "name": "C#4",
                    "midi": 61,
                    "time": 66.4582274999999,
                    "velocity": 0.6456692913385826,
                    "duration": 1.3031024999999943
                },
                {
                    "name": "F4",
                    "midi": 65,
                    "time": 67.76132999999989,
                    "velocity": 0.6062992125984252,
                    "duration": 0.2606205000000017
                },
                {
                    "name": "G#4",
                    "midi": 68,
                    "time": 68.02195049999989,
                    "velocity": 0.6220472440944882,
                    "duration": 0.2606205000000017
                },
                {
                    "name": "C#5",
                    "midi": 73,
                    "time": 68.28257099999989,
                    "velocity": 0.6377952755905512,
                    "duration": 0.39093074999999544
                },
                {
                    "name": "F5",
                    "midi": 77,
                    "time": 68.67350174999989,
                    "velocity": 0.6456692913385826,
                    "duration": 0.13031024999999374
                },
                {
                    "name": "D#5",
                    "midi": 75,
                    "time": 68.80381199999988,
                    "velocity": 0.6220472440944882,
                    "duration": 0.5212410000000034
                },
                {
                    "name": "C#5",
                    "midi": 73,
                    "time": 69.32505299999988,
                    "velocity": 0.6062992125984252,
                    "duration": 0.2606205000000017
                },
                {
                    "name": "G#4",
                    "midi": 68,
                    "time": 69.58567349999988,
                    "velocity": 0.5669291338582677,
                    "duration": 0.7818615000000051
                },
                {
                    "name": "F4",
                    "midi": 65,
                    "time": 70.8887759999999,
                    "velocity": 0.4251968503937008,
                    "duration": 0.2606205000000017
                },
                {
                    "name": "G#4",
                    "midi": 68,
                    "time": 71.1493964999999,
                    "velocity": 0.4409448818897638,
                    "duration": 0.2606205000000017
                },
                {
                    "name": "C#5",
                    "midi": 73,
                    "time": 71.4100169999999,
                    "velocity": 0.4566929133858268,
                    "duration": 0.39093074999999544
                },
                {
                    "name": "F5",
                    "midi": 77,
                    "time": 71.80094774999989,
                    "velocity": 0.48031496062992124,
                    "duration": 0.13031024999999374
                },
                {
                    "name": "D#5",
                    "midi": 75,
                    "time": 71.93125799999989,
                    "velocity": 0.47244094488188976,
                    "duration": 0.5212410000000034
                },
                {
                    "name": "C#5",
                    "midi": 73,
                    "time": 72.45249899999989,
                    "velocity": 0.4645669291338583,
                    "duration": 0.2606205000000017
                },
                {
                    "name": "A4",
                    "midi": 69,
                    "time": 72.71311949999989,
                    "velocity": 0.4094488188976378,
                    "duration": 1.0424820000000068
                },
                {
                    "name": "A4",
                    "midi": 69,
                    "time": 73.7556014999999,
                    "velocity": 0.47244094488188976,
                    "duration": 0.2606205000000017
                },
                {
                    "name": "A4",
                    "midi": 69,
                    "time": 74.0162219999999,
                    "velocity": 0.4566929133858268,
                    "duration": 0.2606205000000017
                },
                {
                    "name": "A4",
                    "midi": 69,
                    "time": 74.2768424999999,
                    "velocity": 0.4881889763779528,
                    "duration": 0.2606205000000017
                },
                {
                    "name": "F4",
                    "midi": 65,
                    "time": 74.5374629999999,
                    "velocity": 0.4330708661417323,
                    "duration": 0.2606205000000017
                },
                {
                    "name": "G4",
                    "midi": 67,
                    "time": 74.9283937499999,
                    "velocity": 0.4881889763779528,
                    "duration": 0.13031024999999374
                },
                {
                    "name": "A4",
                    "midi": 69,
                    "time": 75.05870399999989,
                    "velocity": 0.4881889763779528,
                    "duration": 1.8243434999999977
                },
                {
                    "name": "A4",
                    "midi": 69,
                    "time": 76.88304749999989,
                    "velocity": 0.4881889763779528,
                    "duration": 0.2606205000000017
                },
                {
                    "name": "A5",
                    "midi": 81,
                    "time": 76.88304749999989,
                    "velocity": 0.4881889763779528,
                    "duration": 0.2606205000000017
                },
                {
                    "name": "A5",
                    "midi": 81,
                    "time": 77.14366799999989,
                    "velocity": 0.5039370078740157,
                    "duration": 0.2606205000000017
                },
                {
                    "name": "A4",
                    "midi": 69,
                    "time": 77.14366799999989,
                    "velocity": 0.5039370078740157,
                    "duration": 0.2606205000000017
                },
                {
                    "name": "A4",
                    "midi": 69,
                    "time": 77.4042884999999,
                    "velocity": 0.5275590551181102,
                    "duration": 0.19546537499999772
                },
                {
                    "name": "A5",
                    "midi": 81,
                    "time": 77.4042884999999,
                    "velocity": 0.5275590551181102,
                    "duration": 0.19546537499999772
                },
                {
                    "name": "C6",
                    "midi": 84,
                    "time": 77.59975387499989,
                    "velocity": 0.47244094488188976,
                    "duration": 0.06515512500000398
                },
                {
                    "name": "C5",
                    "midi": 72,
                    "time": 77.59975387499989,
                    "velocity": 0.47244094488188976,
                    "duration": 0.06515512500000398
                },
                {
                    "name": "A#5",
                    "midi": 82,
                    "time": 77.6649089999999,
                    "velocity": 0.5196850393700787,
                    "duration": 0.39093074999999544
                },
                {
                    "name": "A#4",
                    "midi": 70,
                    "time": 77.6649089999999,
                    "velocity": 0.5196850393700787,
                    "duration": 0.39093074999999544
                },
                {
                    "name": "A4",
                    "midi": 69,
                    "time": 78.05583974999989,
                    "velocity": 0.5669291338582677,
                    "duration": 0.13031024999999374
                },
                {
                    "name": "A5",
                    "midi": 81,
                    "time": 78.05583974999989,
                    "velocity": 0.5669291338582677,
                    "duration": 0.13031024999999374
                },
                {
                    "name": "A4",
                    "midi": 69,
                    "time": 78.18614999999988,
                    "velocity": 0.5354330708661418,
                    "duration": 0.5212410000000034
                },
                {
                    "name": "A5",
                    "midi": 81,
                    "time": 78.18614999999988,
                    "velocity": 0.5354330708661418,
                    "duration": 0.5212410000000034
                },
                {
                    "name": "F4",
                    "midi": 65,
                    "time": 78.70739099999989,
                    "velocity": 0.5196850393700787,
                    "duration": 0.2606205000000017
                },
                {
                    "name": "F5",
                    "midi": 77,
                    "time": 78.70739099999989,
                    "velocity": 0.5196850393700787,
                    "duration": 0.2606205000000017
                },
                {
                    "name": "D5",
                    "midi": 74,
                    "time": 78.96801149999989,
                    "velocity": 0.5196850393700787,
                    "duration": 1.2596657499999964
                },
                {
                    "name": "D4",
                    "midi": 62,
                    "time": 78.96801149999989,
                    "velocity": 0.5196850393700787,
                    "duration": 1.2813841250000024
                },
                {
                    "name": "F4",
                    "midi": 65,
                    "time": 80.2711139999999,
                    "velocity": 0.5511811023622047,
                    "duration": 0.2606205000000017
                },
                {
                    "name": "F5",
                    "midi": 77,
                    "time": 80.2711139999999,
                    "velocity": 0.5511811023622047,
                    "duration": 0.2606205000000017
                },
                {
                    "name": "A5",
                    "midi": 81,
                    "time": 80.5317344999999,
                    "velocity": 0.5669291338582677,
                    "duration": 0.2606205000000017
                },
                {
                    "name": "A4",
                    "midi": 69,
                    "time": 80.5317344999999,
                    "velocity": 0.5669291338582677,
                    "duration": 0.2606205000000017
                },
                {
                    "name": "D6",
                    "midi": 86,
                    "time": 80.7923549999999,
                    "velocity": 0.5905511811023622,
                    "duration": 0.39093074999999544
                },
                {
                    "name": "D5",
                    "midi": 74,
                    "time": 80.7923549999999,
                    "velocity": 0.5905511811023622,
                    "duration": 0.39093074999999544
                },
                {
                    "name": "F6",
                    "midi": 89,
                    "time": 81.1832857499999,
                    "velocity": 0.6220472440944882,
                    "duration": 0.13031024999999374
                },
                {
                    "name": "F5",
                    "midi": 77,
                    "time": 81.1832857499999,
                    "velocity": 0.6220472440944882,
                    "duration": 0.13031024999999374
                },
                {
                    "name": "E6",
                    "midi": 88,
                    "time": 81.31359599999989,
                    "velocity": 0.6377952755905512,
                    "duration": 0.5212410000000034
                },
                {
                    "name": "E5",
                    "midi": 76,
                    "time": 81.31359599999989,
                    "velocity": 0.6377952755905512,
                    "duration": 0.5212410000000034
                },
                {
                    "name": "D6",
                    "midi": 86,
                    "time": 81.8348369999999,
                    "velocity": 0.5984251968503937,
                    "duration": 0.2606205000000017
                },
                {
                    "name": "D5",
                    "midi": 74,
                    "time": 81.8348369999999,
                    "velocity": 0.5984251968503937,
                    "duration": 0.2606205000000017
                },
                {
                    "name": "G4",
                    "midi": 67,
                    "time": 82.0954574999999,
                    "velocity": 0.6299212598425197,
                    "duration": 0.2606205000000017
                },
                {
                    "name": "G5",
                    "midi": 79,
                    "time": 82.0954574999999,
                    "velocity": 0.6299212598425197,
                    "duration": 0.2606205000000017
                },
                {
                    "name": "D6",
                    "midi": 86,
                    "time": 82.3560779999999,
                    "velocity": 0.6535433070866141,
                    "duration": 0.39093074999999544
                },
                {
                    "name": "D5",
                    "midi": 74,
                    "time": 82.3560779999999,
                    "velocity": 0.6535433070866141,
                    "duration": 0.39093074999999544
                },
                {
                    "name": "F6",
                    "midi": 89,
                    "time": 82.74700874999989,
                    "velocity": 0.6614173228346457,
                    "duration": 0.13031024999999374
                },
                {
                    "name": "F5",
                    "midi": 77,
                    "time": 82.74700874999989,
                    "velocity": 0.6614173228346457,
                    "duration": 0.13031024999999374
                },
                {
                    "name": "E5",
                    "midi": 76,
                    "time": 82.87731899999989,
                    "velocity": 0.6614173228346457,
                    "duration": 0.5212410000000034
                },
                {
                    "name": "E6",
                    "midi": 88,
                    "time": 82.87731899999989,
                    "velocity": 0.6614173228346457,
                    "duration": 0.5212410000000034
                },
                {
                    "name": "D6",
                    "midi": 86,
                    "time": 83.39855999999989,
                    "velocity": 0.6456692913385826,
                    "duration": 0.2606205000000017
                },
                {
                    "name": "D5",
                    "midi": 74,
                    "time": 83.39855999999989,
                    "velocity": 0.6456692913385826,
                    "duration": 0.2606205000000017
                },
                {
                    "name": "G#5",
                    "midi": 80,
                    "time": 83.65918049999989,
                    "velocity": 0.6141732283464567,
                    "duration": 0.2606205000000017
                },
                {
                    "name": "G#4",
                    "midi": 68,
                    "time": 83.65918049999989,
                    "velocity": 0.6141732283464567,
                    "duration": 0.2606205000000017
                },
                {
                    "name": "D5",
                    "midi": 74,
                    "time": 83.9198009999999,
                    "velocity": 0.6377952755905512,
                    "duration": 0.2606205000000017
                },
                {
                    "name": "D6",
                    "midi": 86,
                    "time": 83.9198009999999,
                    "velocity": 0.6377952755905512,
                    "duration": 0.2606205000000017
                },
                {
                    "name": "F6",
                    "midi": 89,
                    "time": 84.1804214999999,
                    "velocity": 0.6535433070866141,
                    "duration": 0.2606205000000017
                },
                {
                    "name": "F5",
                    "midi": 77,
                    "time": 84.1804214999999,
                    "velocity": 0.6535433070866141,
                    "duration": 0.2606205000000017
                },
                {
                    "name": "D7",
                    "midi": 98,
                    "time": 84.4410419999999,
                    "velocity": 0.5669291338582677,
                    "duration": 0.08687349999999583
                },
                {
                    "name": "F7",
                    "midi": 101,
                    "time": 84.4410419999999,
                    "velocity": 0.5669291338582677,
                    "duration": 0.08687349999999583
                },
                {
                    "name": "E7",
                    "midi": 100,
                    "time": 84.52791549999989,
                    "velocity": 0.5669291338582677,
                    "duration": 0.08687349999999583
                },
                {
                    "name": "C#7",
                    "midi": 97,
                    "time": 84.52791549999989,
                    "velocity": 0.5669291338582677,
                    "duration": 0.08687349999999583
                },
                {
                    "name": "C7",
                    "midi": 96,
                    "time": 84.61478899999989,
                    "velocity": 0.5669291338582677,
                    "duration": 0.08687349999999583
                },
                {
                    "name": "D#7",
                    "midi": 99,
                    "time": 84.61478899999989,
                    "velocity": 0.5669291338582677,
                    "duration": 0.08687349999999583
                },
                {
                    "name": "D7",
                    "midi": 98,
                    "time": 84.70166249999988,
                    "velocity": 0.5590551181102362,
                    "duration": 0.08687349999999583
                },
                {
                    "name": "B6",
                    "midi": 95,
                    "time": 84.70166249999988,
                    "velocity": 0.5590551181102362,
                    "duration": 0.08687349999999583
                },
                {
                    "name": "C#7",
                    "midi": 97,
                    "time": 84.78853599999988,
                    "velocity": 0.5590551181102362,
                    "duration": 0.08687349999999583
                },
                {
                    "name": "A#6",
                    "midi": 94,
                    "time": 84.78853599999988,
                    "velocity": 0.5590551181102362,
                    "duration": 0.08687349999999583
                },
                {
                    "name": "A6",
                    "midi": 93,
                    "time": 84.87540949999988,
                    "velocity": 0.5590551181102362,
                    "duration": 0.08687349999999583
                },
                {
                    "name": "C7",
                    "midi": 96,
                    "time": 84.87540949999988,
                    "velocity": 0.5590551181102362,
                    "duration": 0.08687349999999583
                },
                {
                    "name": "B6",
                    "midi": 95,
                    "time": 84.96228299999987,
                    "velocity": 0.5511811023622047,
                    "duration": 0.08687349999999583
                },
                {
                    "name": "G#6",
                    "midi": 92,
                    "time": 84.96228299999987,
                    "velocity": 0.5511811023622047,
                    "duration": 0.08687349999999583
                },
                {
                    "name": "G6",
                    "midi": 91,
                    "time": 85.04915649999987,
                    "velocity": 0.5511811023622047,
                    "duration": 0.08687349999999583
                },
                {
                    "name": "A#6",
                    "midi": 94,
                    "time": 85.04915649999987,
                    "velocity": 0.5511811023622047,
                    "duration": 0.08687349999999583
                },
                {
                    "name": "A6",
                    "midi": 93,
                    "time": 85.13602999999986,
                    "velocity": 0.5511811023622047,
                    "duration": 0.08687349999999583
                },
                {
                    "name": "F#6",
                    "midi": 90,
                    "time": 85.13602999999986,
                    "velocity": 0.5511811023622047,
                    "duration": 0.08687349999999583
                },
                {
                    "name": "G#6",
                    "midi": 92,
                    "time": 85.22290349999986,
                    "velocity": 0.5433070866141733,
                    "duration": 0.08687349999999583
                },
                {
                    "name": "F6",
                    "midi": 89,
                    "time": 85.22290349999986,
                    "velocity": 0.5433070866141733,
                    "duration": 0.08687349999999583
                },
                {
                    "name": "E6",
                    "midi": 88,
                    "time": 85.30977699999985,
                    "velocity": 0.5433070866141733,
                    "duration": 0.08687349999999583
                },
                {
                    "name": "G6",
                    "midi": 91,
                    "time": 85.30977699999985,
                    "velocity": 0.5433070866141733,
                    "duration": 0.08687349999999583
                },
                {
                    "name": "D#6",
                    "midi": 87,
                    "time": 85.39665049999985,
                    "velocity": 0.5433070866141733,
                    "duration": 0.08687349999999583
                },
                {
                    "name": "F#6",
                    "midi": 90,
                    "time": 85.39665049999985,
                    "velocity": 0.5433070866141733,
                    "duration": 0.08687349999999583
                },
                {
                    "name": "F6",
                    "midi": 89,
                    "time": 85.48352399999985,
                    "velocity": 0.5354330708661418,
                    "duration": 0.08687349999999583
                },
                {
                    "name": "D6",
                    "midi": 86,
                    "time": 85.48352399999985,
                    "velocity": 0.5354330708661418,
                    "duration": 0.08687349999999583
                },
                {
                    "name": "C#6",
                    "midi": 85,
                    "time": 85.57039749999984,
                    "velocity": 0.5354330708661418,
                    "duration": 0.08687349999999583
                },
                {
                    "name": "E6",
                    "midi": 88,
                    "time": 85.57039749999984,
                    "velocity": 0.5354330708661418,
                    "duration": 0.08687349999999583
                },
                {
                    "name": "C6",
                    "midi": 84,
                    "time": 85.65727099999984,
                    "velocity": 0.5354330708661418,
                    "duration": 0.08687349999999583
                },
                {
                    "name": "D#6",
                    "midi": 87,
                    "time": 85.65727099999984,
                    "velocity": 0.5354330708661418,
                    "duration": 0.08687349999999583
                },
                {
                    "name": "B5",
                    "midi": 83,
                    "time": 85.74414449999983,
                    "velocity": 0.5275590551181102,
                    "duration": 0.08687349999999583
                },
                {
                    "name": "D6",
                    "midi": 86,
                    "time": 85.74414449999983,
                    "velocity": 0.5275590551181102,
                    "duration": 0.08687349999999583
                },
                {
                    "name": "C#6",
                    "midi": 85,
                    "time": 85.83101799999983,
                    "velocity": 0.5275590551181102,
                    "duration": 0.08687349999999583
                },
                {
                    "name": "A#5",
                    "midi": 82,
                    "time": 85.83101799999983,
                    "velocity": 0.5275590551181102,
                    "duration": 0.08687349999999583
                },
                {
                    "name": "C6",
                    "midi": 84,
                    "time": 85.91789149999983,
                    "velocity": 0.5275590551181102,
                    "duration": 0.08687349999999583
                },
                {
                    "name": "A5",
                    "midi": 81,
                    "time": 85.91789149999983,
                    "velocity": 0.5275590551181102,
                    "duration": 0.08687349999999583
                },
                {
                    "name": "G#5",
                    "midi": 80,
                    "time": 86.00476499999982,
                    "velocity": 0.5196850393700787,
                    "duration": 0.08687349999999583
                },
                {
                    "name": "B5",
                    "midi": 83,
                    "time": 86.00476499999982,
                    "velocity": 0.5196850393700787,
                    "duration": 0.08687349999999583
                },
                {
                    "name": "A#5",
                    "midi": 82,
                    "time": 86.09163849999982,
                    "velocity": 0.5196850393700787,
                    "duration": 0.08687349999999583
                },
                {
                    "name": "G5",
                    "midi": 79,
                    "time": 86.09163849999982,
                    "velocity": 0.5196850393700787,
                    "duration": 0.08687349999999583
                },
                {
                    "name": "F#5",
                    "midi": 78,
                    "time": 86.17851199999981,
                    "velocity": 0.5196850393700787,
                    "duration": 0.08687349999999583
                },
                {
                    "name": "A5",
                    "midi": 81,
                    "time": 86.17851199999981,
                    "velocity": 0.5196850393700787,
                    "duration": 0.08687349999999583
                },
                {
                    "name": "G#5",
                    "midi": 80,
                    "time": 86.26538549999981,
                    "velocity": 0.5118110236220472,
                    "duration": 0.08687349999999583
                },
                {
                    "name": "F5",
                    "midi": 77,
                    "time": 86.26538549999981,
                    "velocity": 0.5118110236220472,
                    "duration": 0.08687349999999583
                },
                {
                    "name": "G5",
                    "midi": 79,
                    "time": 86.3522589999998,
                    "velocity": 0.5118110236220472,
                    "duration": 0.08687349999999583
                },
                {
                    "name": "E5",
                    "midi": 76,
                    "time": 86.3522589999998,
                    "velocity": 0.5118110236220472,
                    "duration": 0.08687349999999583
                },
                {
                    "name": "D#5",
                    "midi": 75,
                    "time": 86.4391324999998,
                    "velocity": 0.5118110236220472,
                    "duration": 0.08687349999999583
                },
                {
                    "name": "F#5",
                    "midi": 78,
                    "time": 86.4391324999998,
                    "velocity": 0.5118110236220472,
                    "duration": 0.08687349999999583
                },
                {
                    "name": "F5",
                    "midi": 77,
                    "time": 86.5260059999998,
                    "velocity": 0.5039370078740157,
                    "duration": 0.08687349999999583
                },
                {
                    "name": "D5",
                    "midi": 74,
                    "time": 86.5260059999998,
                    "velocity": 0.5039370078740157,
                    "duration": 0.08687349999999583
                },
                {
                    "name": "C#5",
                    "midi": 73,
                    "time": 86.61287949999979,
                    "velocity": 0.5039370078740157,
                    "duration": 0.08687349999999583
                },
                {
                    "name": "E5",
                    "midi": 76,
                    "time": 86.61287949999979,
                    "velocity": 0.5039370078740157,
                    "duration": 0.08687349999999583
                },
                {
                    "name": "D#5",
                    "midi": 75,
                    "time": 86.69975299999979,
                    "velocity": 0.5039370078740157,
                    "duration": 0.08687349999999583
                },
                {
                    "name": "C5",
                    "midi": 72,
                    "time": 86.69975299999979,
                    "velocity": 0.5039370078740157,
                    "duration": 0.08687349999999583
                },
                {
                    "name": "D5",
                    "midi": 74,
                    "time": 86.78662649999978,
                    "velocity": 0.5039370078740157,
                    "duration": 0.08687349999999583
                },
                {
                    "name": "B4",
                    "midi": 71,
                    "time": 86.78662649999978,
                    "velocity": 0.5039370078740157,
                    "duration": 0.08687349999999583
                },
                {
                    "name": "A#4",
                    "midi": 70,
                    "time": 86.87349999999978,
                    "velocity": 0.5039370078740157,
                    "duration": 0.08687349999999583
                },
                {
                    "name": "C#5",
                    "midi": 73,
                    "time": 86.87349999999978,
                    "velocity": 0.5039370078740157,
                    "duration": 0.08687349999999583
                },
                {
                    "name": "C5",
                    "midi": 72,
                    "time": 86.96037349999978,
                    "velocity": 0.5039370078740157,
                    "duration": 0.08687349999999583
                },
                {
                    "name": "A4",
                    "midi": 69,
                    "time": 86.96037349999978,
                    "velocity": 0.5039370078740157,
                    "duration": 0.08687349999999583
                },
                {
                    "name": "G#4",
                    "midi": 68,
                    "time": 87.04724699999977,
                    "velocity": 0.49606299212598426,
                    "duration": 0.08687349999999583
                },
                {
                    "name": "B4",
                    "midi": 71,
                    "time": 87.04724699999977,
                    "velocity": 0.49606299212598426,
                    "duration": 0.08687349999999583
                },
                {
                    "name": "A#4",
                    "midi": 70,
                    "time": 87.13412049999977,
                    "velocity": 0.49606299212598426,
                    "duration": 0.08687349999999583
                },
                {
                    "name": "G4",
                    "midi": 67,
                    "time": 87.13412049999977,
                    "velocity": 0.49606299212598426,
                    "duration": 0.08687349999999583
                },
                {
                    "name": "A4",
                    "midi": 69,
                    "time": 87.22099399999976,
                    "velocity": 0.49606299212598426,
                    "duration": 0.08687349999999583
                },
                {
                    "name": "F#4",
                    "midi": 66,
                    "time": 87.22099399999976,
                    "velocity": 0.49606299212598426,
                    "duration": 0.08687349999999583
                },
                {
                    "name": "F4",
                    "midi": 65,
                    "time": 87.30786749999976,
                    "velocity": 0.49606299212598426,
                    "duration": 0.08687349999999583
                },
                {
                    "name": "G#4",
                    "midi": 68,
                    "time": 87.30786749999976,
                    "velocity": 0.49606299212598426,
                    "duration": 0.08687349999999583
                },
                {
                    "name": "E4",
                    "midi": 64,
                    "time": 87.39474099999975,
                    "velocity": 0.49606299212598426,
                    "duration": 0.08687349999999583
                },
                {
                    "name": "G4",
                    "midi": 67,
                    "time": 87.39474099999975,
                    "velocity": 0.49606299212598426,
                    "duration": 0.08687349999999583
                },
                {
                    "name": "D4",
                    "midi": 62,
                    "time": 87.48161449999975,
                    "velocity": 0.49606299212598426,
                    "duration": 0.08687349999999583
                },
                {
                    "name": "G4",
                    "midi": 67,
                    "time": 87.48161449999975,
                    "velocity": 0.49606299212598426,
                    "duration": 0.08687349999999583
                },
                {
                    "name": "A3",
                    "midi": 57,
                    "time": 87.56848799999975,
                    "velocity": 0.6692913385826772,
                    "duration": 0.5212410000000034
                },
                {
                    "name": "A4",
                    "midi": 69,
                    "time": 88.22003924999974,
                    "velocity": 0.6535433070866141,
                    "duration": 0.13031024999999374
                },
                {
                    "name": "A4",
                    "midi": 69,
                    "time": 88.35034949999974,
                    "velocity": 0.6771653543307087,
                    "duration": 1.0424820000000068
                },
                {
                    "name": "G4",
                    "midi": 67,
                    "time": 89.39283149999974,
                    "velocity": 0.6377952755905512,
                    "duration": 0.39093074999999544
                },
                {
                    "name": "F4",
                    "midi": 65,
                    "time": 89.78376224999974,
                    "velocity": 0.6141732283464567,
                    "duration": 0.13031024999999374
                },
                {
                    "name": "E4",
                    "midi": 64,
                    "time": 89.91407249999973,
                    "velocity": 0.5984251968503937,
                    "duration": 0.13031024999999374
                },
                {
                    "name": "F4",
                    "midi": 65,
                    "time": 90.04438274999973,
                    "velocity": 0.6141732283464567,
                    "duration": 0.10859187500000189
                },
                {
                    "name": "E4",
                    "midi": 64,
                    "time": 90.15297462499973,
                    "velocity": 0.6141732283464567,
                    "duration": 0.10859187500000189
                },
                {
                    "name": "D4",
                    "midi": 62,
                    "time": 90.26156649999973,
                    "velocity": 0.6141732283464567,
                    "duration": 0.10859187500000189
                },
                {
                    "name": "E4",
                    "midi": 64,
                    "time": 90.37015837499973,
                    "velocity": 0.6141732283464567,
                    "duration": 0.10859187500000189
                },
                {
                    "name": "F4",
                    "midi": 65,
                    "time": 90.47875024999973,
                    "velocity": 0.6141732283464567,
                    "duration": 0.10859187500000189
                },
                {
                    "name": "D4",
                    "midi": 62,
                    "time": 90.58734212499974,
                    "velocity": 0.5748031496062992,
                    "duration": 0.10859187500000189
                },
                {
                    "name": "A4",
                    "midi": 69,
                    "time": 90.69593399999974,
                    "velocity": 0.6141732283464567,
                    "duration": 0.2606205000000017
                },
                {
                    "name": "A3",
                    "midi": 57,
                    "time": 90.69593399999974,
                    "velocity": 0.6141732283464567,
                    "duration": 0.2606205000000017
                },
                {
                    "name": "A5",
                    "midi": 81,
                    "time": 91.21717499999974,
                    "velocity": 0.6614173228346457,
                    "duration": 0.13031024999999374
                },
                {
                    "name": "A4",
                    "midi": 69,
                    "time": 91.21717499999974,
                    "velocity": 0.6614173228346457,
                    "duration": 0.13031024999999374
                },
                {
                    "name": "A6",
                    "midi": 93,
                    "time": 91.47779549999973,
                    "velocity": 0.6614173228346457,
                    "duration": 1.0424820000000068
                },
                {
                    "name": "A5",
                    "midi": 81,
                    "time": 91.47779549999973,
                    "velocity": 0.6614173228346457,
                    "duration": 1.0424820000000068
                },
                {
                    "name": "G6",
                    "midi": 91,
                    "time": 92.52027749999974,
                    "velocity": 0.6692913385826772,
                    "duration": 0.39093074999999544
                },
                {
                    "name": "G5",
                    "midi": 79,
                    "time": 92.52027749999974,
                    "velocity": 0.6692913385826772,
                    "duration": 0.39093074999999544
                },
                {
                    "name": "F6",
                    "midi": 89,
                    "time": 92.91120824999973,
                    "velocity": 0.6850393700787402,
                    "duration": 0.13031024999999374
                },
                {
                    "name": "F5",
                    "midi": 77,
                    "time": 92.91120824999973,
                    "velocity": 0.6850393700787402,
                    "duration": 0.13031024999999374
                },
                {
                    "name": "E6",
                    "midi": 88,
                    "time": 93.04151849999973,
                    "velocity": 0.6299212598425197,
                    "duration": 0.13031024999999374
                },
                {
                    "name": "E5",
                    "midi": 76,
                    "time": 93.04151849999973,
                    "velocity": 0.6299212598425197,
                    "duration": 0.13031024999999374
                },
                {
                    "name": "F6",
                    "midi": 89,
                    "time": 93.17182874999972,
                    "velocity": 0.6456692913385826,
                    "duration": 0.10859187500000189
                },
                {
                    "name": "F5",
                    "midi": 77,
                    "time": 93.17182874999972,
                    "velocity": 0.6456692913385826,
                    "duration": 0.10859187500000189
                },
                {
                    "name": "E6",
                    "midi": 88,
                    "time": 93.28042062499972,
                    "velocity": 0.6456692913385826,
                    "duration": 0.10859187500000189
                },
                {
                    "name": "E5",
                    "midi": 76,
                    "time": 93.28042062499972,
                    "velocity": 0.6456692913385826,
                    "duration": 0.10859187500000189
                },
                {
                    "name": "D6",
                    "midi": 86,
                    "time": 93.38901249999972,
                    "velocity": 0.6456692913385826,
                    "duration": 0.10859187500000189
                },
                {
                    "name": "D5",
                    "midi": 74,
                    "time": 93.38901249999972,
                    "velocity": 0.6456692913385826,
                    "duration": 0.10859187500000189
                },
                {
                    "name": "E6",
                    "midi": 88,
                    "time": 93.49760437499972,
                    "velocity": 0.6456692913385826,
                    "duration": 0.10859187500000189
                },
                {
                    "name": "E5",
                    "midi": 76,
                    "time": 93.49760437499972,
                    "velocity": 0.6456692913385826,
                    "duration": 0.10859187500000189
                },
                {
                    "name": "F6",
                    "midi": 89,
                    "time": 93.60619624999973,
                    "velocity": 0.6456692913385826,
                    "duration": 0.10859187500000189
                },
                {
                    "name": "F5",
                    "midi": 77,
                    "time": 93.60619624999973,
                    "velocity": 0.6456692913385826,
                    "duration": 0.10859187500000189
                },
                {
                    "name": "D6",
                    "midi": 86,
                    "time": 93.75822487499973,
                    "velocity": 0.6456692913385826,
                    "duration": 0.06515512500000398
                },
                {
                    "name": "D5",
                    "midi": 74,
                    "time": 93.75822487499973,
                    "velocity": 0.6456692913385826,
                    "duration": 0.06515512500000398
                },
                {
                    "name": "A#5",
                    "midi": 82,
                    "time": 93.82337999999973,
                    "velocity": 0.7007874015748031,
                    "duration": 0.2606205000000017
                },
                {
                    "name": "A#6",
                    "midi": 94,
                    "time": 93.82337999999973,
                    "velocity": 0.7007874015748031,
                    "duration": 0.2606205000000017
                },
                {
                    "name": "E6",
                    "midi": 88,
                    "time": 94.08400049999973,
                    "velocity": 0.6614173228346457,
                    "duration": 0.2606205000000017
                },
                {
                    "name": "E5",
                    "midi": 76,
                    "time": 94.08400049999973,
                    "velocity": 0.6614173228346457,
                    "duration": 0.2606205000000017
                },
                {
                    "name": "F5",
                    "midi": 77,
                    "time": 94.34462099999973,
                    "velocity": 0.6614173228346457,
                    "duration": 0.2606205000000017
                },
                {
                    "name": "F6",
                    "midi": 89,
                    "time": 94.34462099999973,
                    "velocity": 0.6614173228346457,
                    "duration": 0.2606205000000017
                },
                {
                    "name": "A6",
                    "midi": 93,
                    "time": 94.60524149999974,
                    "velocity": 0.6850393700787402,
                    "duration": 0.2606205000000017
                },
                {
                    "name": "A5",
                    "midi": 81,
                    "time": 94.60524149999974,
                    "velocity": 0.6850393700787402,
                    "duration": 0.2606205000000017
                },
                {
                    "name": "G6",
                    "midi": 91,
                    "time": 94.86586199999974,
                    "velocity": 0.6614173228346457,
                    "duration": 0.2606205000000017
                },
                {
                    "name": "G5",
                    "midi": 79,
                    "time": 94.86586199999974,
                    "velocity": 0.6614173228346457,
                    "duration": 0.2606205000000017
                },
                {
                    "name": "A#4",
                    "midi": 70,
                    "time": 95.12648249999974,
                    "velocity": 0.6614173228346457,
                    "duration": 0.2606205000000017
                },
                {
                    "name": "A#5",
                    "midi": 82,
                    "time": 95.12648249999974,
                    "velocity": 0.6614173228346457,
                    "duration": 0.2606205000000017
                },
                {
                    "name": "D5",
                    "midi": 74,
                    "time": 95.38710299999974,
                    "velocity": 0.6929133858267716,
                    "duration": 0.2606205000000017
                },
                {
                    "name": "D6",
                    "midi": 86,
                    "time": 95.38710299999974,
                    "velocity": 0.6929133858267716,
                    "duration": 0.2606205000000017
                },
                {
                    "name": "G5",
                    "midi": 79,
                    "time": 95.64772349999974,
                    "velocity": 0.6535433070866141,
                    "duration": 0.2606205000000017
                },
                {
                    "name": "G4",
                    "midi": 67,
                    "time": 95.64772349999974,
                    "velocity": 0.6535433070866141,
                    "duration": 0.2606205000000017
                },
                {
                    "name": "A4",
                    "midi": 69,
                    "time": 95.90834399999974,
                    "velocity": 0.6299212598425197,
                    "duration": 0.2606205000000017
                },
                {
                    "name": "A5",
                    "midi": 81,
                    "time": 95.90834399999974,
                    "velocity": 0.6299212598425197,
                    "duration": 0.2606205000000017
                },
                {
                    "name": "C5",
                    "midi": 72,
                    "time": 96.16896449999975,
                    "velocity": 0.6771653543307087,
                    "duration": 0.2606205000000017
                },
                {
                    "name": "C6",
                    "midi": 84,
                    "time": 96.16896449999975,
                    "velocity": 0.6771653543307087,
                    "duration": 0.2606205000000017
                },
                {
                    "name": "A#4",
                    "midi": 70,
                    "time": 96.42958499999975,
                    "velocity": 0.6456692913385826,
                    "duration": 0.2606205000000017
                },
                {
                    "name": "A#5",
                    "midi": 82,
                    "time": 96.42958499999975,
                    "velocity": 0.6456692913385826,
                    "duration": 0.2606205000000017
                },
                {
                    "name": "E4",
                    "midi": 64,
                    "time": 96.82051574999974,
                    "velocity": 0.6220472440944882,
                    "duration": 0.13031024999999374
                },
                {
                    "name": "E5",
                    "midi": 76,
                    "time": 96.82051574999974,
                    "velocity": 0.6220472440944882,
                    "duration": 0.13031024999999374
                },
                {
                    "name": "G5",
                    "midi": 79,
                    "time": 96.95082599999974,
                    "velocity": 0.6850393700787402,
                    "duration": 0.2606205000000017
                },
                {
                    "name": "G4",
                    "midi": 67,
                    "time": 96.95082599999974,
                    "velocity": 0.6850393700787402,
                    "duration": 0.2606205000000017
                },
                {
                    "name": "A#3",
                    "midi": 58,
                    "time": 97.21144649999974,
                    "velocity": 0.6377952755905512,
                    "duration": 0.2606205000000017
                },
                {
                    "name": "A#4",
                    "midi": 70,
                    "time": 97.21144649999974,
                    "velocity": 0.6377952755905512,
                    "duration": 0.2606205000000017
                },
                {
                    "name": "C4",
                    "midi": 60,
                    "time": 97.47206699999974,
                    "velocity": 0.6220472440944882,
                    "duration": 0.2606205000000017
                },
                {
                    "name": "C5",
                    "midi": 72,
                    "time": 97.47206699999974,
                    "velocity": 0.6220472440944882,
                    "duration": 0.2606205000000017
                },
                {
                    "name": "E4",
                    "midi": 64,
                    "time": 97.73268749999974,
                    "velocity": 0.6535433070866141,
                    "duration": 0.2606205000000017
                },
                {
                    "name": "E5",
                    "midi": 76,
                    "time": 97.73268749999974,
                    "velocity": 0.6535433070866141,
                    "duration": 0.2606205000000017
                },
                {
                    "name": "D4",
                    "midi": 62,
                    "time": 97.99330799999974,
                    "velocity": 0.6141732283464567,
                    "duration": 0.2606205000000017
                },
                {
                    "name": "D5",
                    "midi": 74,
                    "time": 97.99330799999974,
                    "velocity": 0.6141732283464567,
                    "duration": 0.2606205000000017
                },
                {
                    "name": "G4",
                    "midi": 67,
                    "time": 98.25392849999974,
                    "velocity": 0.6141732283464567,
                    "duration": 0.2606205000000017
                },
                {
                    "name": "G3",
                    "midi": 55,
                    "time": 98.25392849999974,
                    "velocity": 0.6141732283464567,
                    "duration": 0.2606205000000017
                },
                {
                    "name": "A#3",
                    "midi": 58,
                    "time": 98.51454899999975,
                    "velocity": 0.6771653543307087,
                    "duration": 0.7818615000000051
                },
                {
                    "name": "A#4",
                    "midi": 70,
                    "time": 98.51454899999975,
                    "velocity": 0.6771653543307087,
                    "duration": 0.7818615000000051
                },
                {
                    "name": "C#4",
                    "midi": 61,
                    "time": 99.29641049999975,
                    "velocity": 0.6614173228346457,
                    "duration": 0.7818615000000051
                },
                {
                    "name": "C#3",
                    "midi": 49,
                    "time": 99.29641049999975,
                    "velocity": 0.6614173228346457,
                    "duration": 0.7818615000000051
                },
                {
                    "name": "D3",
                    "midi": 50,
                    "time": 100.07827199999976,
                    "velocity": 0.6771653543307087,
                    "duration": 0.5212410000000034
                },
                {
                    "name": "D4",
                    "midi": 62,
                    "time": 100.07827199999976,
                    "velocity": 0.6771653543307087,
                    "duration": 0.5212410000000034
                },
                {
                    "name": "F6",
                    "midi": 89,
                    "time": 101.64199499999977,
                    "velocity": 0.7086614173228346,
                    "duration": 0.5212410000000034
                },
                {
                    "name": "F7",
                    "midi": 101,
                    "time": 101.64199499999977,
                    "velocity": 0.7086614173228346,
                    "duration": 0.6515512499999971
                },
                {
                    "name": "E7",
                    "midi": 100,
                    "time": 102.29354624999976,
                    "velocity": 0.6377952755905512,
                    "duration": 0.043436749999997915
                },
                {
                    "name": "D7",
                    "midi": 98,
                    "time": 102.33698299999976,
                    "velocity": 0.6299212598425197,
                    "duration": 0.043436749999997915
                },
                {
                    "name": "B6",
                    "midi": 95,
                    "time": 102.38041974999976,
                    "velocity": 0.6299212598425197,
                    "duration": 0.043436749999997915
                },
                {
                    "name": "G6",
                    "midi": 91,
                    "time": 102.42385649999976,
                    "velocity": 0.6220472440944882,
                    "duration": 0.043436749999997915
                },
                {
                    "name": "F6",
                    "midi": 89,
                    "time": 102.46729324999976,
                    "velocity": 0.6220472440944882,
                    "duration": 0.043436749999997915
                },
                {
                    "name": "E6",
                    "midi": 88,
                    "time": 102.51072999999975,
                    "velocity": 0.6141732283464567,
                    "duration": 0.043436749999997915
                },
                {
                    "name": "D6",
                    "midi": 86,
                    "time": 102.55416674999975,
                    "velocity": 0.6141732283464567,
                    "duration": 0.043436749999997915
                },
                {
                    "name": "B5",
                    "midi": 83,
                    "time": 102.59760349999975,
                    "velocity": 0.6062992125984252,
                    "duration": 0.043436749999997915
                },
                {
                    "name": "G5",
                    "midi": 79,
                    "time": 102.64104024999975,
                    "velocity": 0.6062992125984252,
                    "duration": 0.043436749999997915
                },
                {
                    "name": "F5",
                    "midi": 77,
                    "time": 102.68447699999975,
                    "velocity": 0.5984251968503937,
                    "duration": 0.043436749999997915
                },
                {
                    "name": "E5",
                    "midi": 76,
                    "time": 102.72791374999974,
                    "velocity": 0.5984251968503937,
                    "duration": 0.043436749999997915
                },
                {
                    "name": "D5",
                    "midi": 74,
                    "time": 102.77135049999974,
                    "velocity": 0.5905511811023622,
                    "duration": 0.043436749999997915
                },
                {
                    "name": "B4",
                    "midi": 71,
                    "time": 102.81478724999974,
                    "velocity": 0.5905511811023622,
                    "duration": 0.043436749999997915
                },
                {
                    "name": "G4",
                    "midi": 67,
                    "time": 102.85822399999974,
                    "velocity": 0.5905511811023622,
                    "duration": 0.043436749999997915
                },
                {
                    "name": "F4",
                    "midi": 65,
                    "time": 102.90166074999973,
                    "velocity": 0.5826771653543307,
                    "duration": 0.043436749999997915
                },
                {
                    "name": "E4",
                    "midi": 64,
                    "time": 102.94509749999973,
                    "velocity": 0.5826771653543307,
                    "duration": 0.043436749999997915
                },
                {
                    "name": "D4",
                    "midi": 62,
                    "time": 102.98853424999973,
                    "velocity": 0.5748031496062992,
                    "duration": 0.043436749999997915
                },
                {
                    "name": "B3",
                    "midi": 59,
                    "time": 103.03197099999973,
                    "velocity": 0.5748031496062992,
                    "duration": 0.043436749999997915
                },
                {
                    "name": "G3",
                    "midi": 55,
                    "time": 103.07540774999973,
                    "velocity": 0.5669291338582677,
                    "duration": 0.043436749999997915
                },
                {
                    "name": "F3",
                    "midi": 53,
                    "time": 103.11884449999972,
                    "velocity": 0.5669291338582677,
                    "duration": 0.043436749999997915
                },
                {
                    "name": "E3",
                    "midi": 52,
                    "time": 103.16228124999972,
                    "velocity": 0.5669291338582677,
                    "duration": 0.043436749999997915
                },
                {
                    "name": "D3",
                    "midi": 50,
                    "time": 103.20571799999972,
                    "velocity": 0.7086614173228346,
                    "duration": 1.0424820000000068
                },
                {
                    "name": "B3",
                    "midi": 59,
                    "time": 104.76944099999973,
                    "velocity": 0.5748031496062992,
                    "duration": 0.7818615000000051
                },
                {
                    "name": "F4",
                    "midi": 65,
                    "time": 104.76944099999973,
                    "velocity": 0.5748031496062992,
                    "duration": 1.5637230000000102
                },
                {
                    "name": "B4",
                    "midi": 71,
                    "time": 104.76944099999973,
                    "velocity": 0.5748031496062992,
                    "duration": 0.7818615000000051
                },
                {
                    "name": "A#3",
                    "midi": 58,
                    "time": 105.55130249999974,
                    "velocity": 0.5669291338582677,
                    "duration": 0.7818615000000051
                },
                {
                    "name": "A#4",
                    "midi": 70,
                    "time": 105.55130249999974,
                    "velocity": 0.5669291338582677,
                    "duration": 0.7818615000000051
                },
                {
                    "name": "A3",
                    "midi": 57,
                    "time": 106.33316399999974,
                    "velocity": 0.5433070866141733,
                    "duration": 0.5212410000000034
                },
                {
                    "name": "F4",
                    "midi": 65,
                    "time": 106.33316399999974,
                    "velocity": 0.5433070866141733,
                    "duration": 0.5212410000000034
                },
                {
                    "name": "A4",
                    "midi": 69,
                    "time": 106.33316399999974,
                    "velocity": 0.5433070866141733,
                    "duration": 0.5212410000000034
                },
                {
                    "name": "F6",
                    "midi": 89,
                    "time": 107.89688699999975,
                    "velocity": 0.7086614173228346,
                    "duration": 0.5212410000000034
                },
                {
                    "name": "F7",
                    "midi": 101,
                    "time": 107.89688699999975,
                    "velocity": 0.7086614173228346,
                    "duration": 0.6515512499999971
                },
                {
                    "name": "E7",
                    "midi": 100,
                    "time": 108.54843824999975,
                    "velocity": 0.6299212598425197,
                    "duration": 0.043436749999997915
                },
                {
                    "name": "D7",
                    "midi": 98,
                    "time": 108.59187499999975,
                    "velocity": 0.6220472440944882,
                    "duration": 0.043436749999997915
                },
                {
                    "name": "B6",
                    "midi": 95,
                    "time": 108.63531174999974,
                    "velocity": 0.6220472440944882,
                    "duration": 0.043436749999997915
                },
                {
                    "name": "G6",
                    "midi": 91,
                    "time": 108.67874849999974,
                    "velocity": 0.6141732283464567,
                    "duration": 0.043436749999997915
                },
                {
                    "name": "F6",
                    "midi": 89,
                    "time": 108.72218524999974,
                    "velocity": 0.6141732283464567,
                    "duration": 0.043436749999997915
                },
                {
                    "name": "E6",
                    "midi": 88,
                    "time": 108.76562199999974,
                    "velocity": 0.6141732283464567,
                    "duration": 0.043436749999997915
                },
                {
                    "name": "D6",
                    "midi": 86,
                    "time": 108.80905874999974,
                    "velocity": 0.6062992125984252,
                    "duration": 0.043436749999997915
                },
                {
                    "name": "B5",
                    "midi": 83,
                    "time": 108.85249549999973,
                    "velocity": 0.6062992125984252,
                    "duration": 0.043436749999997915
                },
                {
                    "name": "G5",
                    "midi": 79,
                    "time": 108.89593224999973,
                    "velocity": 0.5984251968503937,
                    "duration": 0.043436749999997915
                },
                {
                    "name": "F5",
                    "midi": 77,
                    "time": 108.93936899999973,
                    "velocity": 0.5984251968503937,
                    "duration": 0.043436749999997915
                },
                {
                    "name": "E5",
                    "midi": 76,
                    "time": 108.98280574999973,
                    "velocity": 0.5905511811023622,
                    "duration": 0.043436749999997915
                },
                {
                    "name": "D5",
                    "midi": 74,
                    "time": 109.02624249999973,
                    "velocity": 0.5905511811023622,
                    "duration": 0.043436749999997915
                },
                {
                    "name": "B4",
                    "midi": 71,
                    "time": 109.06967924999972,
                    "velocity": 0.5905511811023622,
                    "duration": 0.043436749999997915
                },
                {
                    "name": "G4",
                    "midi": 67,
                    "time": 109.11311599999972,
                    "velocity": 0.5826771653543307,
                    "duration": 0.043436749999997915
                },
                {
                    "name": "F4",
                    "midi": 65,
                    "time": 109.15655274999972,
                    "velocity": 0.5826771653543307,
                    "duration": 0.043436749999997915
                },
                {
                    "name": "E4",
                    "midi": 64,
                    "time": 109.19998949999972,
                    "velocity": 0.5748031496062992,
                    "duration": 0.043436749999997915
                },
                {
                    "name": "D4",
                    "midi": 62,
                    "time": 109.24342624999971,
                    "velocity": 0.5748031496062992,
                    "duration": 0.043436749999997915
                },
                {
                    "name": "B3",
                    "midi": 59,
                    "time": 109.28686299999971,
                    "velocity": 0.5748031496062992,
                    "duration": 0.043436749999997915
                },
                {
                    "name": "G3",
                    "midi": 55,
                    "time": 109.33029974999971,
                    "velocity": 0.5669291338582677,
                    "duration": 0.043436749999997915
                },
                {
                    "name": "F3",
                    "midi": 53,
                    "time": 109.37373649999971,
                    "velocity": 0.5669291338582677,
                    "duration": 0.043436749999997915
                },
                {
                    "name": "E3",
                    "midi": 52,
                    "time": 109.4171732499997,
                    "velocity": 0.5669291338582677,
                    "duration": 0.043436749999997915
                },
                {
                    "name": "D3",
                    "midi": 50,
                    "time": 109.4606099999997,
                    "velocity": 0.7086614173228346,
                    "duration": 1.0424820000000068
                },
                {
                    "name": "B4",
                    "midi": 71,
                    "time": 111.02433299999971,
                    "velocity": 0.5669291338582677,
                    "duration": 0.14116943749999677
                },
                {
                    "name": "B3",
                    "midi": 59,
                    "time": 111.02433299999971,
                    "velocity": 0.48031496062992124,
                    "duration": 0.14116943749999677
                },
                {
                    "name": "F4",
                    "midi": 65,
                    "time": 111.02433299999971,
                    "velocity": 0.48031496062992124,
                    "duration": 0.14116943749999677
                },
                {
                    "name": "B4",
                    "midi": 71,
                    "time": 111.18070529999972,
                    "velocity": 0.5748031496062992,
                    "duration": 0.14116943749999677
                },
                {
                    "name": "F4",
                    "midi": 65,
                    "time": 111.18070529999972,
                    "velocity": 0.4881889763779528,
                    "duration": 0.14116943749999677
                },
                {
                    "name": "B3",
                    "midi": 59,
                    "time": 111.18070529999972,
                    "velocity": 0.4881889763779528,
                    "duration": 0.14116943749999677
                },
                {
                    "name": "B4",
                    "midi": 71,
                    "time": 111.33707759999972,
                    "velocity": 0.5826771653543307,
                    "duration": 0.14116943749999677
                },
                {
                    "name": "F4",
                    "midi": 65,
                    "time": 111.33707759999972,
                    "velocity": 0.49606299212598426,
                    "duration": 0.14116943749999677
                },
                {
                    "name": "B3",
                    "midi": 59,
                    "time": 111.33707759999972,
                    "velocity": 0.49606299212598426,
                    "duration": 0.14116943749999677
                },
                {
                    "name": "B3",
                    "midi": 59,
                    "time": 111.49344989999972,
                    "velocity": 0.49606299212598426,
                    "duration": 0.14116943749999677
                },
                {
                    "name": "F4",
                    "midi": 65,
                    "time": 111.49344989999972,
                    "velocity": 0.49606299212598426,
                    "duration": 0.14116943749999677
                },
                {
                    "name": "B4",
                    "midi": 71,
                    "time": 111.49344989999972,
                    "velocity": 0.5905511811023622,
                    "duration": 0.14116943749999677
                },
                {
                    "name": "F4",
                    "midi": 65,
                    "time": 111.64982219999972,
                    "velocity": 0.5039370078740157,
                    "duration": 0.14116943749999677
                },
                {
                    "name": "B3",
                    "midi": 59,
                    "time": 111.64982219999972,
                    "velocity": 0.5039370078740157,
                    "duration": 0.14116943749999677
                },
                {
                    "name": "B4",
                    "midi": 71,
                    "time": 111.64982219999972,
                    "velocity": 0.5984251968503937,
                    "duration": 0.14116943749999677
                },
                {
                    "name": "A#4",
                    "midi": 70,
                    "time": 111.80619449999972,
                    "velocity": 0.6062992125984252,
                    "duration": 0.14116943749999677
                },
                {
                    "name": "A#3",
                    "midi": 58,
                    "time": 111.80619449999972,
                    "velocity": 0.5118110236220472,
                    "duration": 0.14116943749999677
                },
                {
                    "name": "F4",
                    "midi": 65,
                    "time": 111.80619449999972,
                    "velocity": 0.5118110236220472,
                    "duration": 0.14116943749999677
                },
                {
                    "name": "A#3",
                    "midi": 58,
                    "time": 111.96256679999972,
                    "velocity": 0.5275590551181102,
                    "duration": 0.14116943749999677
                },
                {
                    "name": "F4",
                    "midi": 65,
                    "time": 111.96256679999972,
                    "velocity": 0.5275590551181102,
                    "duration": 0.14116943749999677
                },
                {
                    "name": "A#4",
                    "midi": 70,
                    "time": 111.96256679999972,
                    "velocity": 0.6220472440944882,
                    "duration": 0.14116943749999677
                },
                {
                    "name": "A#4",
                    "midi": 70,
                    "time": 112.11893909999972,
                    "velocity": 0.6299212598425197,
                    "duration": 0.14116943749999677
                },
                {
                    "name": "A#3",
                    "midi": 58,
                    "time": 112.11893909999972,
                    "velocity": 0.5275590551181102,
                    "duration": 0.14116943749999677
                },
                {
                    "name": "F4",
                    "midi": 65,
                    "time": 112.11893909999972,
                    "velocity": 0.5275590551181102,
                    "duration": 0.14116943749999677
                },
                {
                    "name": "F4",
                    "midi": 65,
                    "time": 112.27531139999972,
                    "velocity": 0.5354330708661418,
                    "duration": 0.14116943749999677
                },
                {
                    "name": "A#4",
                    "midi": 70,
                    "time": 112.27531139999972,
                    "velocity": 0.6377952755905512,
                    "duration": 0.14116943749999677
                },
                {
                    "name": "A#3",
                    "midi": 58,
                    "time": 112.27531139999972,
                    "velocity": 0.5354330708661418,
                    "duration": 0.14116943749999677
                },
                {
                    "name": "F4",
                    "midi": 65,
                    "time": 112.43168369999972,
                    "velocity": 0.5354330708661418,
                    "duration": 0.14116943749999677
                },
                {
                    "name": "A#4",
                    "midi": 70,
                    "time": 112.43168369999972,
                    "velocity": 0.6377952755905512,
                    "duration": 0.14116943749999677
                },
                {
                    "name": "A#3",
                    "midi": 58,
                    "time": 112.43168369999972,
                    "velocity": 0.5354330708661418,
                    "duration": 0.14116943749999677
                },
                {
                    "name": "A3",
                    "midi": 57,
                    "time": 112.68578868749972,
                    "velocity": 0.6062992125984252,
                    "duration": 0.16288781250000284
                },
                {
                    "name": "F4",
                    "midi": 65,
                    "time": 112.71836624999972,
                    "velocity": 0.6377952755905512,
                    "duration": 0.13031025000000795
                },
                {
                    "name": "A4",
                    "midi": 69,
                    "time": 112.78352137499972,
                    "velocity": 0.6692913385826772,
                    "duration": 0.09773268749999886
                },
                {
                    "name": "D7",
                    "midi": 98,
                    "time": 113.36991749999972,
                    "velocity": 0.8031496062992126,
                    "duration": 0.7818615000000051
                },
                {
                    "name": "D6",
                    "midi": 86,
                    "time": 113.36991749999972,
                    "velocity": 0.7086614173228346,
                    "duration": 0.7818615000000051
                },
                {
                    "name": "A#6",
                    "midi": 94,
                    "time": 114.15177899999972,
                    "velocity": 0.6771653543307087,
                    "duration": 0.06515512500000398
                },
                {
                    "name": "A6",
                    "midi": 93,
                    "time": 114.21693412499972,
                    "velocity": 0.6771653543307087,
                    "duration": 0.06515512500000398
                },
                {
                    "name": "F6",
                    "midi": 89,
                    "time": 114.28208924999973,
                    "velocity": 0.6771653543307087,
                    "duration": 0.06515512500000398
                },
                {
                    "name": "D6",
                    "midi": 86,
                    "time": 114.34724437499973,
                    "velocity": 0.6692913385826772,
                    "duration": 0.06515512500000398
                },
                {
                    "name": "A#5",
                    "midi": 82,
                    "time": 114.41239949999974,
                    "velocity": 0.6692913385826772,
                    "duration": 0.06515512500000398
                },
                {
                    "name": "A5",
                    "midi": 81,
                    "time": 114.47755462499974,
                    "velocity": 0.6692913385826772,
                    "duration": 0.06515512500000398
                },
                {
                    "name": "F5",
                    "midi": 77,
                    "time": 114.54270974999974,
                    "velocity": 0.6614173228346457,
                    "duration": 0.06515512500000398
                },
                {
                    "name": "D5",
                    "midi": 74,
                    "time": 114.60786487499975,
                    "velocity": 0.6614173228346457,
                    "duration": 0.06515512500000398
                },
                {
                    "name": "A#4",
                    "midi": 70,
                    "time": 114.67301999999975,
                    "velocity": 0.6614173228346457,
                    "duration": 0.06515512500000398
                },
                {
                    "name": "A4",
                    "midi": 69,
                    "time": 114.73817512499976,
                    "velocity": 0.6535433070866141,
                    "duration": 0.06515512500000398
                },
                {
                    "name": "F4",
                    "midi": 65,
                    "time": 114.80333024999976,
                    "velocity": 0.6535433070866141,
                    "duration": 0.06515512500000398
                },
                {
                    "name": "D4",
                    "midi": 62,
                    "time": 114.86848537499976,
                    "velocity": 0.6535433070866141,
                    "duration": 0.06515512500000398
                },
                {
                    "name": "A#3",
                    "midi": 58,
                    "time": 114.93364049999977,
                    "velocity": 0.6456692913385826,
                    "duration": 0.06515512500000398
                },
                {
                    "name": "A3",
                    "midi": 57,
                    "time": 114.99879562499977,
                    "velocity": 0.6456692913385826,
                    "duration": 0.06515512500000398
                },
                {
                    "name": "F3",
                    "midi": 53,
                    "time": 115.06395074999978,
                    "velocity": 0.6456692913385826,
                    "duration": 0.06515512500000398
                },
                {
                    "name": "D3",
                    "midi": 50,
                    "time": 115.12910587499978,
                    "velocity": 0.6377952755905512,
                    "duration": 0.06515512500000398
                },
                {
                    "name": "A#2",
                    "midi": 46,
                    "time": 115.19426099999978,
                    "velocity": 0.6377952755905512,
                    "duration": 0.06515512500000398
                },
                {
                    "name": "A2",
                    "midi": 45,
                    "time": 115.25941612499979,
                    "velocity": 0.6377952755905512,
                    "duration": 0.06515512500000398
                },
                {
                    "name": "F2",
                    "midi": 41,
                    "time": 115.32457124999979,
                    "velocity": 0.6377952755905512,
                    "duration": 0.06515512500000398
                },
                {
                    "name": "D2",
                    "midi": 38,
                    "time": 115.3897263749998,
                    "velocity": 0.6377952755905512,
                    "duration": 0.06515512500000398
                },
                {
                    "name": "A#1",
                    "midi": 34,
                    "time": 115.4548814999998,
                    "velocity": 0.6377952755905512,
                    "duration": 0.06515512500000398
                },
                {
                    "name": "A1",
                    "midi": 33,
                    "time": 115.5200366249998,
                    "velocity": 0.6299212598425197,
                    "duration": 0.06515512500000398
                },
                {
                    "name": "F1",
                    "midi": 29,
                    "time": 115.58519174999981,
                    "velocity": 0.6299212598425197,
                    "duration": 0.06515512500000398
                },
                {
                    "name": "E1",
                    "midi": 28,
                    "time": 115.65034687499981,
                    "velocity": 0.6220472440944882,
                    "duration": 0.06515512500000398
                },
                {
                    "name": "D1",
                    "midi": 26,
                    "time": 115.71550199999982,
                    "velocity": 0.889763779527559,
                    "duration": 1.3031024999999943
                },
                {
                    "name": "D1",
                    "midi": 26,
                    "time": 117.27922499999981,
                    "velocity": 0.905511811023622,
                    "duration": 1.3031024999999943
                },
                {
                    "name": "D1",
                    "midi": 26,
                    "time": 118.84294799999981,
                    "velocity": 0.889763779527559,
                    "duration": 1.3031024999999943
                }
            ],
            "controlChanges": {
                "7": [
                    {
                        "number": 7,
                        "time": 0,
                        "value": 0.7874015748031497
                    }
                ],
                "10": [
                    {
                        "number": 10,
                        "time": 0,
                        "value": 0.5039370078740157
                    }
                ],
                "91": [
                    {
                        "number": 91,
                        "time": 0,
                        "value": 1
                    }
                ]
            },
            "id": 1,
            "name": "Piano right",
            "instrumentNumber": 0,
            "instrument": "acoustic grand piano",
            "instrumentFamily": "piano",
            "channelNumber": 0,
            "isPercussion": false
        },
        {
            "startTime": 0,
            "duration": 114.15177899999905,
            "length": 727,
            "notes": [
                {
                    "name": "D2",
                    "midi": 38,
                    "time": 0,
                    "velocity": 0.7244094488188977,
                    "duration": 0.13031025
                },
                {
                    "name": "A2",
                    "midi": 45,
                    "time": 0.13031025,
                    "velocity": 0.4409448818897638,
                    "duration": 0.521241
                },
                {
                    "name": "F3",
                    "midi": 53,
                    "time": 0.2606205,
                    "velocity": 0.4409448818897638,
                    "duration": 0.13031025000000002
                },
                {
                    "name": "D2",
                    "midi": 38,
                    "time": 0.39093075,
                    "velocity": 0.36220472440944884,
                    "duration": 0.13031024999999996
                },
                {
                    "name": "A3",
                    "midi": 57,
                    "time": 0.521241,
                    "velocity": 0.5433070866141733,
                    "duration": 0.2606204999999999
                },
                {
                    "name": "D2",
                    "midi": 38,
                    "time": 0.7818614999999999,
                    "velocity": 0.5905511811023622,
                    "duration": 0.13031024999999996
                },
                {
                    "name": "A2",
                    "midi": 45,
                    "time": 0.9121717499999998,
                    "velocity": 0.41732283464566927,
                    "duration": 0.521241
                },
                {
                    "name": "F3",
                    "midi": 53,
                    "time": 1.042482,
                    "velocity": 0.41732283464566927,
                    "duration": 0.13031024999999996
                },
                {
                    "name": "D2",
                    "midi": 38,
                    "time": 1.1727922499999999,
                    "velocity": 0.3779527559055118,
                    "duration": 0.13031024999999996
                },
                {
                    "name": "A3",
                    "midi": 57,
                    "time": 1.3031024999999998,
                    "velocity": 0.5118110236220472,
                    "duration": 0.2606204999999999
                },
                {
                    "name": "D2",
                    "midi": 38,
                    "time": 1.5637229999999998,
                    "velocity": 0.49606299212598426,
                    "duration": 0.13031024999999996
                },
                {
                    "name": "A2",
                    "midi": 45,
                    "time": 1.6940332499999997,
                    "velocity": 0.4015748031496063,
                    "duration": 0.5212410000000001
                },
                {
                    "name": "F3",
                    "midi": 53,
                    "time": 1.8243434999999997,
                    "velocity": 0.4015748031496063,
                    "duration": 0.13031024999999996
                },
                {
                    "name": "D2",
                    "midi": 38,
                    "time": 1.9546537499999996,
                    "velocity": 0.36220472440944884,
                    "duration": 0.13031025000000018
                },
                {
                    "name": "A3",
                    "midi": 57,
                    "time": 2.084964,
                    "velocity": 0.47244094488188976,
                    "duration": 0.2606204999999999
                },
                {
                    "name": "D2",
                    "midi": 38,
                    "time": 2.3455844999999997,
                    "velocity": 0.48031496062992124,
                    "duration": 0.13031024999999996
                },
                {
                    "name": "A2",
                    "midi": 45,
                    "time": 2.4758947499999997,
                    "velocity": 0.4094488188976378,
                    "duration": 0.5212409999999998
                },
                {
                    "name": "F3",
                    "midi": 53,
                    "time": 2.6062049999999997,
                    "velocity": 0.41732283464566927,
                    "duration": 0.13031024999999996
                },
                {
                    "name": "D2",
                    "midi": 38,
                    "time": 2.7365152499999996,
                    "velocity": 0.36220472440944884,
                    "duration": 0.13031024999999996
                },
                {
                    "name": "A3",
                    "midi": 57,
                    "time": 2.8668254999999996,
                    "velocity": 0.47244094488188976,
                    "duration": 0.2606204999999999
                },
                {
                    "name": "D2",
                    "midi": 38,
                    "time": 3.1274459999999995,
                    "velocity": 0.4330708661417323,
                    "duration": 0.13031024999999996
                },
                {
                    "name": "A2",
                    "midi": 45,
                    "time": 3.2577562499999995,
                    "velocity": 0.3779527559055118,
                    "duration": 0.5212409999999998
                },
                {
                    "name": "F3",
                    "midi": 53,
                    "time": 3.3880664999999994,
                    "velocity": 0.3700787401574803,
                    "duration": 0.13031024999999996
                },
                {
                    "name": "D2",
                    "midi": 38,
                    "time": 3.5183767499999994,
                    "velocity": 0.3228346456692913,
                    "duration": 0.13031024999999996
                },
                {
                    "name": "A3",
                    "midi": 57,
                    "time": 3.6486869999999993,
                    "velocity": 0.3937007874015748,
                    "duration": 0.2606204999999999
                },
                {
                    "name": "D2",
                    "midi": 38,
                    "time": 3.9093074999999993,
                    "velocity": 0.4251968503937008,
                    "duration": 0.1303102500000004
                },
                {
                    "name": "A2",
                    "midi": 45,
                    "time": 4.03961775,
                    "velocity": 0.3543307086614173,
                    "duration": 0.5212409999999998
                },
                {
                    "name": "F3",
                    "midi": 53,
                    "time": 4.169928,
                    "velocity": 0.3543307086614173,
                    "duration": 0.13031024999999996
                },
                {
                    "name": "D2",
                    "midi": 38,
                    "time": 4.30023825,
                    "velocity": 0.2992125984251969,
                    "duration": 0.13031024999999996
                },
                {
                    "name": "A3",
                    "midi": 57,
                    "time": 4.4305485,
                    "velocity": 0.41732283464566927,
                    "duration": 0.2606204999999999
                },
                {
                    "name": "D2",
                    "midi": 38,
                    "time": 4.6911689999999995,
                    "velocity": 0.4330708661417323,
                    "duration": 0.13031024999999996
                },
                {
                    "name": "A2",
                    "midi": 45,
                    "time": 4.821479249999999,
                    "velocity": 0.3543307086614173,
                    "duration": 0.5212409999999998
                },
                {
                    "name": "F3",
                    "midi": 53,
                    "time": 4.951789499999999,
                    "velocity": 0.36220472440944884,
                    "duration": 0.13031024999999996
                },
                {
                    "name": "D2",
                    "midi": 38,
                    "time": 5.082099749999999,
                    "velocity": 0.31496062992125984,
                    "duration": 0.13031024999999996
                },
                {
                    "name": "A3",
                    "midi": 57,
                    "time": 5.212409999999999,
                    "velocity": 0.41732283464566927,
                    "duration": 0.2606204999999999
                },
                {
                    "name": "D2",
                    "midi": 38,
                    "time": 5.473030499999999,
                    "velocity": 0.4251968503937008,
                    "duration": 0.13031024999999996
                },
                {
                    "name": "A2",
                    "midi": 45,
                    "time": 5.603340749999999,
                    "velocity": 0.3700787401574803,
                    "duration": 0.5212409999999998
                },
                {
                    "name": "F3",
                    "midi": 53,
                    "time": 5.733650999999999,
                    "velocity": 0.3700787401574803,
                    "duration": 0.13031024999999996
                },
                {
                    "name": "D2",
                    "midi": 38,
                    "time": 5.863961249999999,
                    "velocity": 0.33070866141732286,
                    "duration": 0.13031024999999996
                },
                {
                    "name": "A3",
                    "midi": 57,
                    "time": 5.994271499999999,
                    "velocity": 0.4409448818897638,
                    "duration": 0.2606204999999999
                },
                {
                    "name": "D2",
                    "midi": 38,
                    "time": 6.254891999999999,
                    "velocity": 0.44881889763779526,
                    "duration": 0.13031024999999996
                },
                {
                    "name": "A2",
                    "midi": 45,
                    "time": 6.385202249999999,
                    "velocity": 0.3858267716535433,
                    "duration": 0.5212409999999998
                },
                {
                    "name": "F3",
                    "midi": 53,
                    "time": 6.515512499999999,
                    "velocity": 0.3858267716535433,
                    "duration": 0.13031024999999996
                },
                {
                    "name": "D2",
                    "midi": 38,
                    "time": 6.645822749999999,
                    "velocity": 0.3464566929133858,
                    "duration": 0.13031024999999996
                },
                {
                    "name": "A3",
                    "midi": 57,
                    "time": 6.776132999999999,
                    "velocity": 0.4251968503937008,
                    "duration": 0.2606204999999999
                },
                {
                    "name": "D2",
                    "midi": 38,
                    "time": 7.036753499999999,
                    "velocity": 0.4409448818897638,
                    "duration": 0.13031024999999996
                },
                {
                    "name": "A2",
                    "midi": 45,
                    "time": 7.167063749999999,
                    "velocity": 0.3779527559055118,
                    "duration": 0.5212409999999998
                },
                {
                    "name": "F3",
                    "midi": 53,
                    "time": 7.297373999999999,
                    "velocity": 0.3858267716535433,
                    "duration": 0.13031024999999996
                },
                {
                    "name": "D2",
                    "midi": 38,
                    "time": 7.427684249999999,
                    "velocity": 0.33858267716535434,
                    "duration": 0.13031024999999996
                },
                {
                    "name": "A3",
                    "midi": 57,
                    "time": 7.557994499999999,
                    "velocity": 0.4251968503937008,
                    "duration": 0.2606204999999999
                },
                {
                    "name": "D2",
                    "midi": 38,
                    "time": 7.8186149999999985,
                    "velocity": 0.4251968503937008,
                    "duration": 0.13031024999999996
                },
                {
                    "name": "A2",
                    "midi": 45,
                    "time": 7.9489252499999985,
                    "velocity": 0.3779527559055118,
                    "duration": 0.5212410000000034
                },
                {
                    "name": "F3",
                    "midi": 53,
                    "time": 8.0792355,
                    "velocity": 0.3779527559055118,
                    "duration": 0.13031025000000085
                },
                {
                    "name": "D2",
                    "midi": 38,
                    "time": 8.20954575,
                    "velocity": 0.33858267716535434,
                    "duration": 0.13031025000000085
                },
                {
                    "name": "A3",
                    "midi": 57,
                    "time": 8.339856000000001,
                    "velocity": 0.4015748031496063,
                    "duration": 0.2606205000000017
                },
                {
                    "name": "D2",
                    "midi": 38,
                    "time": 8.600476500000003,
                    "velocity": 0.41732283464566927,
                    "duration": 0.13031025000000085
                },
                {
                    "name": "A2",
                    "midi": 45,
                    "time": 8.730786750000004,
                    "velocity": 0.3779527559055118,
                    "duration": 0.5212410000000034
                },
                {
                    "name": "F3",
                    "midi": 53,
                    "time": 8.861097000000004,
                    "velocity": 0.3779527559055118,
                    "duration": 0.13031025000000085
                },
                {
                    "name": "D2",
                    "midi": 38,
                    "time": 8.991407250000005,
                    "velocity": 0.33070866141732286,
                    "duration": 0.13031025000000085
                },
                {
                    "name": "A3",
                    "midi": 57,
                    "time": 9.121717500000006,
                    "velocity": 0.4015748031496063,
                    "duration": 0.2606205000000017
                },
                {
                    "name": "D2",
                    "midi": 38,
                    "time": 9.382338000000008,
                    "velocity": 0.44881889763779526,
                    "duration": 0.13031025000000085
                },
                {
                    "name": "A2",
                    "midi": 45,
                    "time": 9.512648250000009,
                    "velocity": 0.3700787401574803,
                    "duration": 0.5212410000000034
                },
                {
                    "name": "F3",
                    "midi": 53,
                    "time": 9.64295850000001,
                    "velocity": 0.3700787401574803,
                    "duration": 0.13031025000000085
                },
                {
                    "name": "D2",
                    "midi": 38,
                    "time": 9.77326875000001,
                    "velocity": 0.33070866141732286,
                    "duration": 0.13031025000000085
                },
                {
                    "name": "A3",
                    "midi": 57,
                    "time": 9.903579000000011,
                    "velocity": 0.4251968503937008,
                    "duration": 0.2606205000000017
                },
                {
                    "name": "D2",
                    "midi": 38,
                    "time": 10.164199500000013,
                    "velocity": 0.4251968503937008,
                    "duration": 0.13031025000000085
                },
                {
                    "name": "A2",
                    "midi": 45,
                    "time": 10.294509750000014,
                    "velocity": 0.3543307086614173,
                    "duration": 0.5212410000000034
                },
                {
                    "name": "F3",
                    "midi": 53,
                    "time": 10.424820000000015,
                    "velocity": 0.3543307086614173,
                    "duration": 0.13031025000000085
                },
                {
                    "name": "D2",
                    "midi": 38,
                    "time": 10.555130250000015,
                    "velocity": 0.3228346456692913,
                    "duration": 0.13031025000000085
                },
                {
                    "name": "A3",
                    "midi": 57,
                    "time": 10.685440500000016,
                    "velocity": 0.41732283464566927,
                    "duration": 0.2606205000000017
                },
                {
                    "name": "D2",
                    "midi": 38,
                    "time": 10.946061000000018,
                    "velocity": 0.4330708661417323,
                    "duration": 0.13031025000000085
                },
                {
                    "name": "A2",
                    "midi": 45,
                    "time": 11.076371250000019,
                    "velocity": 0.3543307086614173,
                    "duration": 0.5212410000000034
                },
                {
                    "name": "F3",
                    "midi": 53,
                    "time": 11.20668150000002,
                    "velocity": 0.3543307086614173,
                    "duration": 0.13031025000000085
                },
                {
                    "name": "D2",
                    "midi": 38,
                    "time": 11.33699175000002,
                    "velocity": 0.30708661417322836,
                    "duration": 0.13031025000000085
                },
                {
                    "name": "A3",
                    "midi": 57,
                    "time": 11.467302000000021,
                    "velocity": 0.41732283464566927,
                    "duration": 0.2606205000000017
                },
                {
                    "name": "D2",
                    "midi": 38,
                    "time": 11.727922500000023,
                    "velocity": 0.4251968503937008,
                    "duration": 0.13031025000000085
                },
                {
                    "name": "A2",
                    "midi": 45,
                    "time": 11.858232750000024,
                    "velocity": 0.36220472440944884,
                    "duration": 0.5212410000000034
                },
                {
                    "name": "F3",
                    "midi": 53,
                    "time": 11.988543000000025,
                    "velocity": 0.36220472440944884,
                    "duration": 0.13031025000000085
                },
                {
                    "name": "D2",
                    "midi": 38,
                    "time": 12.118853250000026,
                    "velocity": 0.31496062992125984,
                    "duration": 0.13031025000000085
                },
                {
                    "name": "A3",
                    "midi": 57,
                    "time": 12.249163500000027,
                    "velocity": 0.41732283464566927,
                    "duration": 0.2606205000000017
                },
                {
                    "name": "D2",
                    "midi": 38,
                    "time": 12.509784000000028,
                    "velocity": 0.4330708661417323,
                    "duration": 0.13031025000000085
                },
                {
                    "name": "A2",
                    "midi": 45,
                    "time": 12.640094250000029,
                    "velocity": 0.3700787401574803,
                    "duration": 0.5212410000000034
                },
                {
                    "name": "F3",
                    "midi": 53,
                    "time": 12.77040450000003,
                    "velocity": 0.3700787401574803,
                    "duration": 0.13031025000000085
                },
                {
                    "name": "D2",
                    "midi": 38,
                    "time": 12.90071475000003,
                    "velocity": 0.3228346456692913,
                    "duration": 0.13031025000000085
                },
                {
                    "name": "A3",
                    "midi": 57,
                    "time": 13.031025000000032,
                    "velocity": 0.41732283464566927,
                    "duration": 0.2606205000000017
                },
                {
                    "name": "D2",
                    "midi": 38,
                    "time": 13.291645500000033,
                    "velocity": 0.4251968503937008,
                    "duration": 0.13031025000000085
                },
                {
                    "name": "A2",
                    "midi": 45,
                    "time": 13.421955750000034,
                    "velocity": 0.3700787401574803,
                    "duration": 0.5212410000000034
                },
                {
                    "name": "F3",
                    "midi": 53,
                    "time": 13.552266000000035,
                    "velocity": 0.36220472440944884,
                    "duration": 0.13031025000000085
                },
                {
                    "name": "D2",
                    "midi": 38,
                    "time": 13.682576250000036,
                    "velocity": 0.33858267716535434,
                    "duration": 0.13031025000000085
                },
                {
                    "name": "A3",
                    "midi": 57,
                    "time": 13.812886500000037,
                    "velocity": 0.41732283464566927,
                    "duration": 0.2606205000000017
                },
                {
                    "name": "D2",
                    "midi": 38,
                    "time": 14.073507000000038,
                    "velocity": 0.4330708661417323,
                    "duration": 0.13031025000000085
                },
                {
                    "name": "A2",
                    "midi": 45,
                    "time": 14.20381725000004,
                    "velocity": 0.3700787401574803,
                    "duration": 0.5212410000000034
                },
                {
                    "name": "F3",
                    "midi": 53,
                    "time": 14.33412750000004,
                    "velocity": 0.3700787401574803,
                    "duration": 0.13031025000000085
                },
                {
                    "name": "D2",
                    "midi": 38,
                    "time": 14.464437750000041,
                    "velocity": 0.3464566929133858,
                    "duration": 0.13031025000000085
                },
                {
                    "name": "A3",
                    "midi": 57,
                    "time": 14.594748000000042,
                    "velocity": 0.41732283464566927,
                    "duration": 0.2606205000000017
                },
                {
                    "name": "D2",
                    "midi": 38,
                    "time": 14.855368500000043,
                    "velocity": 0.4251968503937008,
                    "duration": 0.13031025000000085
                },
                {
                    "name": "G2",
                    "midi": 43,
                    "time": 14.985678750000044,
                    "velocity": 0.36220472440944884,
                    "duration": 0.5212410000000034
                },
                {
                    "name": "F3",
                    "midi": 53,
                    "time": 15.115989000000045,
                    "velocity": 0.3700787401574803,
                    "duration": 0.13031025000000085
                },
                {
                    "name": "D2",
                    "midi": 38,
                    "time": 15.246299250000046,
                    "velocity": 0.33070866141732286,
                    "duration": 0.13031025000000085
                },
                {
                    "name": "G3",
                    "midi": 55,
                    "time": 15.376609500000047,
                    "velocity": 0.41732283464566927,
                    "duration": 0.2606205000000017
                },
                {
                    "name": "C2",
                    "midi": 36,
                    "time": 15.637230000000049,
                    "velocity": 0.4881889763779528,
                    "duration": 0.13031025000000085
                },
                {
                    "name": "A2",
                    "midi": 45,
                    "time": 15.76754025000005,
                    "velocity": 0.3779527559055118,
                    "duration": 0.5212410000000034
                },
                {
                    "name": "F3",
                    "midi": 53,
                    "time": 15.89785050000005,
                    "velocity": 0.3779527559055118,
                    "duration": 0.13031025000000085
                },
                {
                    "name": "C2",
                    "midi": 36,
                    "time": 16.02816075000005,
                    "velocity": 0.3464566929133858,
                    "duration": 0.13031025000000085
                },
                {
                    "name": "A3",
                    "midi": 57,
                    "time": 16.158471000000052,
                    "velocity": 0.4409448818897638,
                    "duration": 0.2606205000000017
                },
                {
                    "name": "C2",
                    "midi": 36,
                    "time": 16.419091500000054,
                    "velocity": 0.47244094488188976,
                    "duration": 0.13031025000000085
                },
                {
                    "name": "A2",
                    "midi": 45,
                    "time": 16.549401750000055,
                    "velocity": 0.3858267716535433,
                    "duration": 0.5212410000000034
                },
                {
                    "name": "F3",
                    "midi": 53,
                    "time": 16.679712000000055,
                    "velocity": 0.3858267716535433,
                    "duration": 0.13031025000000085
                },
                {
                    "name": "C2",
                    "midi": 36,
                    "time": 16.810022250000056,
                    "velocity": 0.3543307086614173,
                    "duration": 0.13031025000000085
                },
                {
                    "name": "A3",
                    "midi": 57,
                    "time": 16.940332500000057,
                    "velocity": 0.4330708661417323,
                    "duration": 0.2606205000000017
                },
                {
                    "name": "C2",
                    "midi": 36,
                    "time": 17.20095300000006,
                    "velocity": 0.4645669291338583,
                    "duration": 0.1303102499999973
                },
                {
                    "name": "G2",
                    "midi": 43,
                    "time": 17.331263250000056,
                    "velocity": 0.3779527559055118,
                    "duration": 0.13031025000000085
                },
                {
                    "name": "F3",
                    "midi": 53,
                    "time": 17.461573500000057,
                    "velocity": 0.3858267716535433,
                    "duration": 0.13031025000000085
                },
                {
                    "name": "C2",
                    "midi": 36,
                    "time": 17.591883750000058,
                    "velocity": 0.3543307086614173,
                    "duration": 0.13031025000000085
                },
                {
                    "name": "G3",
                    "midi": 55,
                    "time": 17.72219400000006,
                    "velocity": 0.49606299212598426,
                    "duration": 0.2606205000000017
                },
                {
                    "name": "C2",
                    "midi": 36,
                    "time": 17.98281450000006,
                    "velocity": 0.47244094488188976,
                    "duration": 0.13031025000000085
                },
                {
                    "name": "G2",
                    "midi": 43,
                    "time": 18.11312475000006,
                    "velocity": 0.3858267716535433,
                    "duration": 0.13031025000000085
                },
                {
                    "name": "F3",
                    "midi": 53,
                    "time": 18.243435000000062,
                    "velocity": 0.3858267716535433,
                    "duration": 0.13031025000000085
                },
                {
                    "name": "C2",
                    "midi": 36,
                    "time": 18.373745250000063,
                    "velocity": 0.33858267716535434,
                    "duration": 0.13031025000000085
                },
                {
                    "name": "G3",
                    "midi": 55,
                    "time": 18.504055500000064,
                    "velocity": 0.4881889763779528,
                    "duration": 0.2606205000000017
                },
                {
                    "name": "C2",
                    "midi": 36,
                    "time": 18.764676000000065,
                    "velocity": 0.49606299212598426,
                    "duration": 0.13031025000000085
                },
                {
                    "name": "A#2",
                    "midi": 46,
                    "time": 18.894986250000066,
                    "velocity": 0.3937007874015748,
                    "duration": 0.13031025000000085
                },
                {
                    "name": "F3",
                    "midi": 53,
                    "time": 19.025296500000067,
                    "velocity": 0.3937007874015748,
                    "duration": 0.13031025000000085
                },
                {
                    "name": "C2",
                    "midi": 36,
                    "time": 19.155606750000068,
                    "velocity": 0.3543307086614173,
                    "duration": 0.13031025000000085
                },
                {
                    "name": "G3",
                    "midi": 55,
                    "time": 19.28591700000007,
                    "velocity": 0.49606299212598426,
                    "duration": 0.2606205000000017
                },
                {
                    "name": "C2",
                    "midi": 36,
                    "time": 19.54653750000007,
                    "velocity": 0.49606299212598426,
                    "duration": 0.13031025000000085
                },
                {
                    "name": "A#2",
                    "midi": 46,
                    "time": 19.67684775000007,
                    "velocity": 0.3779527559055118,
                    "duration": 0.13031025000000085
                },
                {
                    "name": "F3",
                    "midi": 53,
                    "time": 19.807158000000072,
                    "velocity": 0.3779527559055118,
                    "duration": 0.13031025000000085
                },
                {
                    "name": "C2",
                    "midi": 36,
                    "time": 19.937468250000073,
                    "velocity": 0.33070866141732286,
                    "duration": 0.13031025000000085
                },
                {
                    "name": "G3",
                    "midi": 55,
                    "time": 20.067778500000074,
                    "velocity": 0.49606299212598426,
                    "duration": 0.2606205000000017
                },
                {
                    "name": "C2",
                    "midi": 36,
                    "time": 20.328399000000076,
                    "velocity": 0.48031496062992124,
                    "duration": 0.1303102499999973
                },
                {
                    "name": "A#2",
                    "midi": 46,
                    "time": 20.458709250000073,
                    "velocity": 0.4015748031496063,
                    "duration": 0.13031025000000085
                },
                {
                    "name": "E3",
                    "midi": 52,
                    "time": 20.589019500000074,
                    "velocity": 0.3937007874015748,
                    "duration": 0.13031025000000085
                },
                {
                    "name": "C2",
                    "midi": 36,
                    "time": 20.719329750000075,
                    "velocity": 0.3464566929133858,
                    "duration": 0.13031025000000085
                },
                {
                    "name": "G3",
                    "midi": 55,
                    "time": 20.849640000000075,
                    "velocity": 0.4409448818897638,
                    "duration": 0.2606205000000017
                },
                {
                    "name": "C2",
                    "midi": 36,
                    "time": 21.110260500000077,
                    "velocity": 0.48031496062992124,
                    "duration": 0.13031025000000085
                },
                {
                    "name": "A#2",
                    "midi": 46,
                    "time": 21.240570750000078,
                    "velocity": 0.3858267716535433,
                    "duration": 0.13031025000000085
                },
                {
                    "name": "E3",
                    "midi": 52,
                    "time": 21.37088100000008,
                    "velocity": 0.3858267716535433,
                    "duration": 0.13031025000000085
                },
                {
                    "name": "C2",
                    "midi": 36,
                    "time": 21.50119125000008,
                    "velocity": 0.3543307086614173,
                    "duration": 0.13031025000000085
                },
                {
                    "name": "G3",
                    "midi": 55,
                    "time": 21.63150150000008,
                    "velocity": 0.44881889763779526,
                    "duration": 0.2606205000000017
                },
                {
                    "name": "F2",
                    "midi": 41,
                    "time": 21.892122000000082,
                    "velocity": 0.5039370078740157,
                    "duration": 0.13031025000000085
                },
                {
                    "name": "C3",
                    "midi": 48,
                    "time": 22.022432250000083,
                    "velocity": 0.4094488188976378,
                    "duration": 0.13031025000000085
                },
                {
                    "name": "A3",
                    "midi": 57,
                    "time": 22.152742500000084,
                    "velocity": 0.4094488188976378,
                    "duration": 0.13031025000000085
                },
                {
                    "name": "F2",
                    "midi": 41,
                    "time": 22.283052750000085,
                    "velocity": 0.3543307086614173,
                    "duration": 0.13031025000000085
                },
                {
                    "name": "C4",
                    "midi": 60,
                    "time": 22.413363000000086,
                    "velocity": 0.4645669291338583,
                    "duration": 0.2606205000000017
                },
                {
                    "name": "F2",
                    "midi": 41,
                    "time": 22.673983500000087,
                    "velocity": 0.5039370078740157,
                    "duration": 0.13031025000000085
                },
                {
                    "name": "C3",
                    "midi": 48,
                    "time": 22.804293750000088,
                    "velocity": 0.4094488188976378,
                    "duration": 0.13031025000000085
                },
                {
                    "name": "A3",
                    "midi": 57,
                    "time": 22.93460400000009,
                    "velocity": 0.4094488188976378,
                    "duration": 0.13031025000000085
                },
                {
                    "name": "F2",
                    "midi": 41,
                    "time": 23.06491425000009,
                    "velocity": 0.3543307086614173,
                    "duration": 0.13031025000000085
                },
                {
                    "name": "C4",
                    "midi": 60,
                    "time": 23.19522450000009,
                    "velocity": 0.4645669291338583,
                    "duration": 0.2606205000000017
                },
                {
                    "name": "F2",
                    "midi": 41,
                    "time": 23.455845000000092,
                    "velocity": 0.5039370078740157,
                    "duration": 0.13031025000000085
                },
                {
                    "name": "D#3",
                    "midi": 51,
                    "time": 23.586155250000093,
                    "velocity": 0.4251968503937008,
                    "duration": 0.13031025000000085
                },
                {
                    "name": "A3",
                    "midi": 57,
                    "time": 23.716465500000094,
                    "velocity": 0.4251968503937008,
                    "duration": 0.13031025000000085
                },
                {
                    "name": "F2",
                    "midi": 41,
                    "time": 23.846775750000095,
                    "velocity": 0.36220472440944884,
                    "duration": 0.13031025000000085
                },
                {
                    "name": "B3",
                    "midi": 59,
                    "time": 23.977086000000096,
                    "velocity": 0.47244094488188976,
                    "duration": 0.2606205000000017
                },
                {
                    "name": "F2",
                    "midi": 41,
                    "time": 24.237706500000098,
                    "velocity": 0.5039370078740157,
                    "duration": 0.13031025000000085
                },
                {
                    "name": "B2",
                    "midi": 47,
                    "time": 24.3680167500001,
                    "velocity": 0.41732283464566927,
                    "duration": 0.13031025000000085
                },
                {
                    "name": "A3",
                    "midi": 57,
                    "time": 24.4983270000001,
                    "velocity": 0.41732283464566927,
                    "duration": 0.13031025000000085
                },
                {
                    "name": "F2",
                    "midi": 41,
                    "time": 24.6286372500001,
                    "velocity": 0.3543307086614173,
                    "duration": 0.13031025000000085
                },
                {
                    "name": "B3",
                    "midi": 59,
                    "time": 24.7589475000001,
                    "velocity": 0.4645669291338583,
                    "duration": 0.2606205000000017
                },
                {
                    "name": "E2",
                    "midi": 40,
                    "time": 25.019568000000103,
                    "velocity": 0.5039370078740157,
                    "duration": 0.1303102499999973
                },
                {
                    "name": "C3",
                    "midi": 48,
                    "time": 25.1498782500001,
                    "velocity": 0.4094488188976378,
                    "duration": 0.13031025000000085
                },
                {
                    "name": "A3",
                    "midi": 57,
                    "time": 25.2801885000001,
                    "velocity": 0.4094488188976378,
                    "duration": 0.13031025000000085
                },
                {
                    "name": "E2",
                    "midi": 40,
                    "time": 25.4104987500001,
                    "velocity": 0.3543307086614173,
                    "duration": 0.13031025000000085
                },
                {
                    "name": "C4",
                    "midi": 60,
                    "time": 25.540809000000102,
                    "velocity": 0.47244094488188976,
                    "duration": 0.2606205000000017
                },
                {
                    "name": "E2",
                    "midi": 40,
                    "time": 25.801429500000104,
                    "velocity": 0.5039370078740157,
                    "duration": 0.13031025000000085
                },
                {
                    "name": "C3",
                    "midi": 48,
                    "time": 25.931739750000105,
                    "velocity": 0.4251968503937008,
                    "duration": 0.13031025000000085
                },
                {
                    "name": "A3",
                    "midi": 57,
                    "time": 26.062050000000106,
                    "velocity": 0.4251968503937008,
                    "duration": 0.13031025000000085
                },
                {
                    "name": "E2",
                    "midi": 40,
                    "time": 26.192360250000107,
                    "velocity": 0.36220472440944884,
                    "duration": 0.13031025000000085
                },
                {
                    "name": "C4",
                    "midi": 60,
                    "time": 26.322670500000108,
                    "velocity": 0.48031496062992124,
                    "duration": 0.2606205000000017
                },
                {
                    "name": "E2",
                    "midi": 40,
                    "time": 26.58329100000011,
                    "velocity": 0.5039370078740157,
                    "duration": 0.13031025000000085
                },
                {
                    "name": "D3",
                    "midi": 50,
                    "time": 26.71360125000011,
                    "velocity": 0.4251968503937008,
                    "duration": 0.13031025000000085
                },
                {
                    "name": "G#3",
                    "midi": 56,
                    "time": 26.84391150000011,
                    "velocity": 0.4251968503937008,
                    "duration": 0.13031025000000085
                },
                {
                    "name": "E2",
                    "midi": 40,
                    "time": 26.974221750000112,
                    "velocity": 0.3858267716535433,
                    "duration": 0.13031025000000085
                },
                {
                    "name": "B3",
                    "midi": 59,
                    "time": 27.104532000000113,
                    "velocity": 0.47244094488188976,
                    "duration": 0.2606205000000017
                },
                {
                    "name": "E2",
                    "midi": 40,
                    "time": 27.365152500000114,
                    "velocity": 0.5039370078740157,
                    "duration": 0.13031025000000085
                },
                {
                    "name": "D3",
                    "midi": 50,
                    "time": 27.495462750000115,
                    "velocity": 0.41732283464566927,
                    "duration": 0.13031025000000085
                },
                {
                    "name": "G#3",
                    "midi": 56,
                    "time": 27.625773000000116,
                    "velocity": 0.41732283464566927,
                    "duration": 0.13031025000000085
                },
                {
                    "name": "E2",
                    "midi": 40,
                    "time": 27.756083250000117,
                    "velocity": 0.3700787401574803,
                    "duration": 0.13031025000000085
                },
                {
                    "name": "B3",
                    "midi": 59,
                    "time": 27.886393500000118,
                    "velocity": 0.5039370078740157,
                    "duration": 0.2606205000000017
                },
                {
                    "name": "A1",
                    "midi": 33,
                    "time": 28.14701400000012,
                    "velocity": 0.5275590551181102,
                    "duration": 0.13031025000000085
                },
                {
                    "name": "E2",
                    "midi": 40,
                    "time": 28.27732425000012,
                    "velocity": 0.41732283464566927,
                    "duration": 0.13031025000000085
                },
                {
                    "name": "C3",
                    "midi": 48,
                    "time": 28.40763450000012,
                    "velocity": 0.4251968503937008,
                    "duration": 0.13031025000000085
                },
                {
                    "name": "A1",
                    "midi": 33,
                    "time": 28.537944750000122,
                    "velocity": 0.3700787401574803,
                    "duration": 0.13031025000000085
                },
                {
                    "name": "E3",
                    "midi": 52,
                    "time": 28.668255000000123,
                    "velocity": 0.4645669291338583,
                    "duration": 0.2606205000000017
                },
                {
                    "name": "A1",
                    "midi": 33,
                    "time": 28.928875500000125,
                    "velocity": 0.5118110236220472,
                    "duration": 0.13031025000000085
                },
                {
                    "name": "E2",
                    "midi": 40,
                    "time": 29.059185750000125,
                    "velocity": 0.41732283464566927,
                    "duration": 0.13031025000000085
                },
                {
                    "name": "C3",
                    "midi": 48,
                    "time": 29.189496000000126,
                    "velocity": 0.41732283464566927,
                    "duration": 0.13031025000000085
                },
                {
                    "name": "A1",
                    "midi": 33,
                    "time": 29.319806250000127,
                    "velocity": 0.3700787401574803,
                    "duration": 0.13031025000000085
                },
                {
                    "name": "E3",
                    "midi": 52,
                    "time": 29.450116500000128,
                    "velocity": 0.4566929133858268,
                    "duration": 0.2606205000000017
                },
                {
                    "name": "A1",
                    "midi": 33,
                    "time": 29.71073700000013,
                    "velocity": 0.5039370078740157,
                    "duration": 0.13031025000000085
                },
                {
                    "name": "E2",
                    "midi": 40,
                    "time": 29.84104725000013,
                    "velocity": 0.3937007874015748,
                    "duration": 0.13031025000000085
                },
                {
                    "name": "C3",
                    "midi": 48,
                    "time": 29.97135750000013,
                    "velocity": 0.3937007874015748,
                    "duration": 0.13031025000000085
                },
                {
                    "name": "A1",
                    "midi": 33,
                    "time": 30.101667750000132,
                    "velocity": 0.3543307086614173,
                    "duration": 0.13031025000000085
                },
                {
                    "name": "E3",
                    "midi": 52,
                    "time": 30.231978000000133,
                    "velocity": 0.4645669291338583,
                    "duration": 0.2606205000000017
                },
                {
                    "name": "A1",
                    "midi": 33,
                    "time": 30.492598500000135,
                    "velocity": 0.5039370078740157,
                    "duration": 0.13031025000000085
                },
                {
                    "name": "E2",
                    "midi": 40,
                    "time": 30.622908750000136,
                    "velocity": 0.3779527559055118,
                    "duration": 0.13031025000000085
                },
                {
                    "name": "C3",
                    "midi": 48,
                    "time": 30.753219000000136,
                    "velocity": 0.3779527559055118,
                    "duration": 0.13031025000000085
                },
                {
                    "name": "A1",
                    "midi": 33,
                    "time": 30.883529250000137,
                    "velocity": 0.3543307086614173,
                    "duration": 0.13031025000000085
                },
                {
                    "name": "E3",
                    "midi": 52,
                    "time": 31.013839500000138,
                    "velocity": 0.4566929133858268,
                    "duration": 0.2606205000000017
                },
                {
                    "name": "A1",
                    "midi": 33,
                    "time": 31.27446000000014,
                    "velocity": 0.4330708661417323,
                    "duration": 0.13031025000000085
                },
                {
                    "name": "E2",
                    "midi": 40,
                    "time": 31.40477025000014,
                    "velocity": 0.36220472440944884,
                    "duration": 0.13031025000000085
                },
                {
                    "name": "C3",
                    "midi": 48,
                    "time": 31.53508050000014,
                    "velocity": 0.36220472440944884,
                    "duration": 0.13031025000000085
                },
                {
                    "name": "A1",
                    "midi": 33,
                    "time": 31.665390750000142,
                    "velocity": 0.31496062992125984,
                    "duration": 0.13031025000000085
                },
                {
                    "name": "E3",
                    "midi": 52,
                    "time": 31.795701000000143,
                    "velocity": 0.41732283464566927,
                    "duration": 0.2606205000000017
                },
                {
                    "name": "A1",
                    "midi": 33,
                    "time": 32.056321500000145,
                    "velocity": 0.4251968503937008,
                    "duration": 0.13031025000000085
                },
                {
                    "name": "E2",
                    "midi": 40,
                    "time": 32.186631750000146,
                    "velocity": 0.3543307086614173,
                    "duration": 0.13031025000000085
                },
                {
                    "name": "C3",
                    "midi": 48,
                    "time": 32.31694200000015,
                    "velocity": 0.36220472440944884,
                    "duration": 0.13031025000000085
                },
                {
                    "name": "A1",
                    "midi": 33,
                    "time": 32.44725225000015,
                    "velocity": 0.3228346456692913,
                    "duration": 0.13031025000000085
                },
                {
                    "name": "E3",
                    "midi": 52,
                    "time": 32.57756250000015,
                    "velocity": 0.41732283464566927,
                    "duration": 0.2606205000000017
                },
                {
                    "name": "A1",
                    "midi": 33,
                    "time": 32.83818300000015,
                    "velocity": 0.4330708661417323,
                    "duration": 0.13031025000000085
                },
                {
                    "name": "E2",
                    "midi": 40,
                    "time": 32.96849325000015,
                    "velocity": 0.36220472440944884,
                    "duration": 0.13031025000000085
                },
                {
                    "name": "C3",
                    "midi": 48,
                    "time": 33.09880350000015,
                    "velocity": 0.3700787401574803,
                    "duration": 0.13031025000000085
                },
                {
                    "name": "A1",
                    "midi": 33,
                    "time": 33.22911375000015,
                    "velocity": 0.3228346456692913,
                    "duration": 0.13031025000000085
                },
                {
                    "name": "E3",
                    "midi": 52,
                    "time": 33.35942400000015,
                    "velocity": 0.41732283464566927,
                    "duration": 0.2606205000000017
                },
                {
                    "name": "A1",
                    "midi": 33,
                    "time": 33.620044500000155,
                    "velocity": 0.4251968503937008,
                    "duration": 0.13031025000000085
                },
                {
                    "name": "E2",
                    "midi": 40,
                    "time": 33.750354750000156,
                    "velocity": 0.3779527559055118,
                    "duration": 0.13031025000000085
                },
                {
                    "name": "C3",
                    "midi": 48,
                    "time": 33.88066500000016,
                    "velocity": 0.3779527559055118,
                    "duration": 0.13031025000000085
                },
                {
                    "name": "A1",
                    "midi": 33,
                    "time": 34.01097525000016,
                    "velocity": 0.33858267716535434,
                    "duration": 0.13031025000000085
                },
                {
                    "name": "E3",
                    "midi": 52,
                    "time": 34.14128550000016,
                    "velocity": 0.4409448818897638,
                    "duration": 0.2606205000000017
                },
                {
                    "name": "A1",
                    "midi": 33,
                    "time": 34.40190600000016,
                    "velocity": 0.44881889763779526,
                    "duration": 0.13031025000000085
                },
                {
                    "name": "E2",
                    "midi": 40,
                    "time": 34.53221625000016,
                    "velocity": 0.3779527559055118,
                    "duration": 0.13031025000000085
                },
                {
                    "name": "C3",
                    "midi": 48,
                    "time": 34.66252650000016,
                    "velocity": 0.3779527559055118,
                    "duration": 0.13031025000000085
                },
                {
                    "name": "A1",
                    "midi": 33,
                    "time": 34.79283675000016,
                    "velocity": 0.33858267716535434,
                    "duration": 0.13031025000000085
                },
                {
                    "name": "E3",
                    "midi": 52,
                    "time": 34.923147000000164,
                    "velocity": 0.4251968503937008,
                    "duration": 0.2606205000000017
                },
                {
                    "name": "A1",
                    "midi": 33,
                    "time": 35.183767500000165,
                    "velocity": 0.4409448818897638,
                    "duration": 0.13031025000000085
                },
                {
                    "name": "E2",
                    "midi": 40,
                    "time": 35.314077750000166,
                    "velocity": 0.3779527559055118,
                    "duration": 0.13031025000000085
                },
                {
                    "name": "C3",
                    "midi": 48,
                    "time": 35.44438800000017,
                    "velocity": 0.3779527559055118,
                    "duration": 0.13031025000000085
                },
                {
                    "name": "A1",
                    "midi": 33,
                    "time": 35.57469825000017,
                    "velocity": 0.3464566929133858,
                    "duration": 0.13031025000000085
                },
                {
                    "name": "E3",
                    "midi": 52,
                    "time": 35.70500850000017,
                    "velocity": 0.4251968503937008,
                    "duration": 0.2606205000000017
                },
                {
                    "name": "A1",
                    "midi": 33,
                    "time": 35.96562900000017,
                    "velocity": 0.4251968503937008,
                    "duration": 0.13031025000000795
                },
                {
                    "name": "E2",
                    "midi": 40,
                    "time": 36.09593925000018,
                    "velocity": 0.3779527559055118,
                    "duration": 0.13031025000000085
                },
                {
                    "name": "C3",
                    "midi": 48,
                    "time": 36.22624950000018,
                    "velocity": 0.3779527559055118,
                    "duration": 0.13031025000000085
                },
                {
                    "name": "A1",
                    "midi": 33,
                    "time": 36.35655975000018,
                    "velocity": 0.33858267716535434,
                    "duration": 0.13031025000000085
                },
                {
                    "name": "E3",
                    "midi": 52,
                    "time": 36.48687000000018,
                    "velocity": 0.4015748031496063,
                    "duration": 0.2606205000000017
                },
                {
                    "name": "A1",
                    "midi": 33,
                    "time": 36.74749050000018,
                    "velocity": 0.41732283464566927,
                    "duration": 0.13031025000000085
                },
                {
                    "name": "E2",
                    "midi": 40,
                    "time": 36.87780075000018,
                    "velocity": 0.3700787401574803,
                    "duration": 0.13031025000000085
                },
                {
                    "name": "C3",
                    "midi": 48,
                    "time": 37.008111000000184,
                    "velocity": 0.3700787401574803,
                    "duration": 0.13031025000000085
                },
                {
                    "name": "A1",
                    "midi": 33,
                    "time": 37.138421250000185,
                    "velocity": 0.33858267716535434,
                    "duration": 0.13031025000000085
                },
                {
                    "name": "E3",
                    "midi": 52,
                    "time": 37.268731500000186,
                    "velocity": 0.4015748031496063,
                    "duration": 0.2606205000000017
                },
                {
                    "name": "A1",
                    "midi": 33,
                    "time": 37.52935200000019,
                    "velocity": 0.44881889763779526,
                    "duration": 0.13031025000000085
                },
                {
                    "name": "E2",
                    "midi": 40,
                    "time": 37.65966225000019,
                    "velocity": 0.3779527559055118,
                    "duration": 0.13031025000000085
                },
                {
                    "name": "C3",
                    "midi": 48,
                    "time": 37.78997250000019,
                    "velocity": 0.3779527559055118,
                    "duration": 0.13031025000000085
                },
                {
                    "name": "A1",
                    "midi": 33,
                    "time": 37.92028275000019,
                    "velocity": 0.3543307086614173,
                    "duration": 0.13031025000000085
                },
                {
                    "name": "E3",
                    "midi": 52,
                    "time": 38.05059300000019,
                    "velocity": 0.4251968503937008,
                    "duration": 0.2606205000000017
                },
                {
                    "name": "A1",
                    "midi": 33,
                    "time": 38.31121350000019,
                    "velocity": 0.4251968503937008,
                    "duration": 0.13031025000000085
                },
                {
                    "name": "E2",
                    "midi": 40,
                    "time": 38.441523750000194,
                    "velocity": 0.36220472440944884,
                    "duration": 0.13031025000000085
                },
                {
                    "name": "C3",
                    "midi": 48,
                    "time": 38.571834000000194,
                    "velocity": 0.3543307086614173,
                    "duration": 0.13031024999999374
                },
                {
                    "name": "A1",
                    "midi": 33,
                    "time": 38.70214425000019,
                    "velocity": 0.3228346456692913,
                    "duration": 0.13031025000000085
                },
                {
                    "name": "E3",
                    "midi": 52,
                    "time": 38.83245450000019,
                    "velocity": 0.41732283464566927,
                    "duration": 0.2606205000000017
                },
                {
                    "name": "A1",
                    "midi": 33,
                    "time": 39.09307500000019,
                    "velocity": 0.4330708661417323,
                    "duration": 0.13031025000000085
                },
                {
                    "name": "E2",
                    "midi": 40,
                    "time": 39.22338525000019,
                    "velocity": 0.3543307086614173,
                    "duration": 0.13031025000000085
                },
                {
                    "name": "C3",
                    "midi": 48,
                    "time": 39.35369550000019,
                    "velocity": 0.3543307086614173,
                    "duration": 0.13031025000000085
                },
                {
                    "name": "A1",
                    "midi": 33,
                    "time": 39.48400575000019,
                    "velocity": 0.30708661417322836,
                    "duration": 0.13031025000000085
                },
                {
                    "name": "E3",
                    "midi": 52,
                    "time": 39.614316000000194,
                    "velocity": 0.41732283464566927,
                    "duration": 0.2606205000000017
                },
                {
                    "name": "A1",
                    "midi": 33,
                    "time": 39.874936500000196,
                    "velocity": 0.4251968503937008,
                    "duration": 0.13031025000000085
                },
                {
                    "name": "E2",
                    "midi": 40,
                    "time": 40.0052467500002,
                    "velocity": 0.3700787401574803,
                    "duration": 0.13031025000000085
                },
                {
                    "name": "C3",
                    "midi": 48,
                    "time": 40.1355570000002,
                    "velocity": 0.3700787401574803,
                    "duration": 0.13031025000000085
                },
                {
                    "name": "A1",
                    "midi": 33,
                    "time": 40.2658672500002,
                    "velocity": 0.33070866141732286,
                    "duration": 0.13031025000000085
                },
                {
                    "name": "E3",
                    "midi": 52,
                    "time": 40.3961775000002,
                    "velocity": 0.41732283464566927,
                    "duration": 0.2606205000000017
                },
                {
                    "name": "A1",
                    "midi": 33,
                    "time": 40.6567980000002,
                    "velocity": 0.4330708661417323,
                    "duration": 0.13031025000000085
                },
                {
                    "name": "E2",
                    "midi": 40,
                    "time": 40.7871082500002,
                    "velocity": 0.36220472440944884,
                    "duration": 0.13031025000000085
                },
                {
                    "name": "C3",
                    "midi": 48,
                    "time": 40.9174185000002,
                    "velocity": 0.36220472440944884,
                    "duration": 0.13031025000000085
                },
                {
                    "name": "A1",
                    "midi": 33,
                    "time": 41.0477287500002,
                    "velocity": 0.33858267716535434,
                    "duration": 0.13031025000000085
                },
                {
                    "name": "E3",
                    "midi": 52,
                    "time": 41.178039000000204,
                    "velocity": 0.41732283464566927,
                    "duration": 0.2606205000000017
                },
                {
                    "name": "A1",
                    "midi": 33,
                    "time": 41.438659500000206,
                    "velocity": 0.4251968503937008,
                    "duration": 0.13031025000000085
                },
                {
                    "name": "E2",
                    "midi": 40,
                    "time": 41.56896975000021,
                    "velocity": 0.3779527559055118,
                    "duration": 0.13031025000000085
                },
                {
                    "name": "C3",
                    "midi": 48,
                    "time": 41.69928000000021,
                    "velocity": 0.3700787401574803,
                    "duration": 0.13031025000000085
                },
                {
                    "name": "A1",
                    "midi": 33,
                    "time": 41.82959025000021,
                    "velocity": 0.33070866141732286,
                    "duration": 0.13031025000000085
                },
                {
                    "name": "E3",
                    "midi": 52,
                    "time": 41.95990050000021,
                    "velocity": 0.41732283464566927,
                    "duration": 0.2606205000000017
                },
                {
                    "name": "A1",
                    "midi": 33,
                    "time": 42.22052100000021,
                    "velocity": 0.4330708661417323,
                    "duration": 0.13031025000000085
                },
                {
                    "name": "E2",
                    "midi": 40,
                    "time": 42.35083125000021,
                    "velocity": 0.3700787401574803,
                    "duration": 0.13031025000000085
                },
                {
                    "name": "C3",
                    "midi": 48,
                    "time": 42.48114150000021,
                    "velocity": 0.3700787401574803,
                    "duration": 0.13031025000000085
                },
                {
                    "name": "A1",
                    "midi": 33,
                    "time": 42.611451750000214,
                    "velocity": 0.3464566929133858,
                    "duration": 0.13031025000000085
                },
                {
                    "name": "E3",
                    "midi": 52,
                    "time": 42.741762000000215,
                    "velocity": 0.41732283464566927,
                    "duration": 0.2606205000000017
                },
                {
                    "name": "A1",
                    "midi": 33,
                    "time": 43.002382500000216,
                    "velocity": 0.4251968503937008,
                    "duration": 0.13031025000000085
                },
                {
                    "name": "D2",
                    "midi": 38,
                    "time": 43.13269275000022,
                    "velocity": 0.3700787401574803,
                    "duration": 0.13031025000000085
                },
                {
                    "name": "C3",
                    "midi": 48,
                    "time": 43.26300300000022,
                    "velocity": 0.3700787401574803,
                    "duration": 0.13031025000000085
                },
                {
                    "name": "A1",
                    "midi": 33,
                    "time": 43.39331325000022,
                    "velocity": 0.33070866141732286,
                    "duration": 0.13031025000000085
                },
                {
                    "name": "D3",
                    "midi": 50,
                    "time": 43.52362350000022,
                    "velocity": 0.41732283464566927,
                    "duration": 0.2606205000000017
                },
                {
                    "name": "G1",
                    "midi": 31,
                    "time": 43.78424400000022,
                    "velocity": 0.4881889763779528,
                    "duration": 0.13031024999999374
                },
                {
                    "name": "E2",
                    "midi": 40,
                    "time": 43.914554250000215,
                    "velocity": 0.3779527559055118,
                    "duration": 0.13031025000000085
                },
                {
                    "name": "C3",
                    "midi": 48,
                    "time": 44.044864500000216,
                    "velocity": 0.3779527559055118,
                    "duration": 0.13031025000000085
                },
                {
                    "name": "G1",
                    "midi": 31,
                    "time": 44.17517475000022,
                    "velocity": 0.33070866141732286,
                    "duration": 0.13031025000000085
                },
                {
                    "name": "E3",
                    "midi": 52,
                    "time": 44.30548500000022,
                    "velocity": 0.4409448818897638,
                    "duration": 0.2606205000000017
                },
                {
                    "name": "G1",
                    "midi": 31,
                    "time": 44.56610550000022,
                    "velocity": 0.47244094488188976,
                    "duration": 0.13031025000000085
                },
                {
                    "name": "E2",
                    "midi": 40,
                    "time": 44.69641575000022,
                    "velocity": 0.3937007874015748,
                    "duration": 0.13031025000000085
                },
                {
                    "name": "C3",
                    "midi": 48,
                    "time": 44.82672600000022,
                    "velocity": 0.3858267716535433,
                    "duration": 0.13031025000000085
                },
                {
                    "name": "G1",
                    "midi": 31,
                    "time": 44.95703625000022,
                    "velocity": 0.3464566929133858,
                    "duration": 0.13031025000000085
                },
                {
                    "name": "E3",
                    "midi": 52,
                    "time": 45.08734650000022,
                    "velocity": 0.4330708661417323,
                    "duration": 0.2606205000000017
                },
                {
                    "name": "G1",
                    "midi": 31,
                    "time": 45.347967000000224,
                    "velocity": 0.4645669291338583,
                    "duration": 0.13031025000000795
                },
                {
                    "name": "D2",
                    "midi": 38,
                    "time": 45.47827725000023,
                    "velocity": 0.3779527559055118,
                    "duration": 0.13031025000000085
                },
                {
                    "name": "C3",
                    "midi": 48,
                    "time": 45.60858750000023,
                    "velocity": 0.3779527559055118,
                    "duration": 0.13031025000000085
                },
                {
                    "name": "G1",
                    "midi": 31,
                    "time": 45.738897750000234,
                    "velocity": 0.3464566929133858,
                    "duration": 0.13031025000000085
                },
                {
                    "name": "D3",
                    "midi": 50,
                    "time": 45.869208000000235,
                    "velocity": 0.41732283464566927,
                    "duration": 0.2606205000000017
                },
                {
                    "name": "G1",
                    "midi": 31,
                    "time": 46.12982850000024,
                    "velocity": 0.47244094488188976,
                    "duration": 0.13031025000000795
                },
                {
                    "name": "D2",
                    "midi": 38,
                    "time": 46.260138750000245,
                    "velocity": 0.3937007874015748,
                    "duration": 0.13031025000000085
                },
                {
                    "name": "C3",
                    "midi": 48,
                    "time": 46.390449000000245,
                    "velocity": 0.3937007874015748,
                    "duration": 0.13031025000000085
                },
                {
                    "name": "G1",
                    "midi": 31,
                    "time": 46.520759250000246,
                    "velocity": 0.3464566929133858,
                    "duration": 0.13031025000000085
                },
                {
                    "name": "D3",
                    "midi": 50,
                    "time": 46.65106950000025,
                    "velocity": 0.4409448818897638,
                    "duration": 0.2606205000000017
                },
                {
                    "name": "G1",
                    "midi": 31,
                    "time": 46.91169000000025,
                    "velocity": 0.47244094488188976,
                    "duration": 0.13031025000000795
                },
                {
                    "name": "D2",
                    "midi": 38,
                    "time": 47.04200025000026,
                    "velocity": 0.3937007874015748,
                    "duration": 0.13031025000000085
                },
                {
                    "name": "C3",
                    "midi": 48,
                    "time": 47.17231050000026,
                    "velocity": 0.3858267716535433,
                    "duration": 0.13031025000000085
                },
                {
                    "name": "G1",
                    "midi": 31,
                    "time": 47.30262075000026,
                    "velocity": 0.3543307086614173,
                    "duration": 0.13031025000000085
                },
                {
                    "name": "D3",
                    "midi": 50,
                    "time": 47.43293100000026,
                    "velocity": 0.4330708661417323,
                    "duration": 0.2606205000000017
                },
                {
                    "name": "G1",
                    "midi": 31,
                    "time": 47.69355150000026,
                    "velocity": 0.47244094488188976,
                    "duration": 0.13031025000000085
                },
                {
                    "name": "D2",
                    "midi": 38,
                    "time": 47.82386175000026,
                    "velocity": 0.3937007874015748,
                    "duration": 0.13031025000000085
                },
                {
                    "name": "C3",
                    "midi": 48,
                    "time": 47.95417200000026,
                    "velocity": 0.3779527559055118,
                    "duration": 0.13031025000000085
                },
                {
                    "name": "G1",
                    "midi": 31,
                    "time": 48.08448225000026,
                    "velocity": 0.3464566929133858,
                    "duration": 0.13031025000000085
                },
                {
                    "name": "D3",
                    "midi": 50,
                    "time": 48.214792500000264,
                    "velocity": 0.4330708661417323,
                    "duration": 0.2606205000000017
                },
                {
                    "name": "G1",
                    "midi": 31,
                    "time": 48.475413000000266,
                    "velocity": 0.48031496062992124,
                    "duration": 0.13031025000000795
                },
                {
                    "name": "F2",
                    "midi": 41,
                    "time": 48.605723250000274,
                    "velocity": 0.4015748031496063,
                    "duration": 0.13031025000000085
                },
                {
                    "name": "B2",
                    "midi": 47,
                    "time": 48.736033500000275,
                    "velocity": 0.3937007874015748,
                    "duration": 0.13031025000000085
                },
                {
                    "name": "G1",
                    "midi": 31,
                    "time": 48.866343750000276,
                    "velocity": 0.3464566929133858,
                    "duration": 0.13031025000000085
                },
                {
                    "name": "D3",
                    "midi": 50,
                    "time": 48.99665400000028,
                    "velocity": 0.3937007874015748,
                    "duration": 0.2606205000000017
                },
                {
                    "name": "G1",
                    "midi": 31,
                    "time": 49.25727450000028,
                    "velocity": 0.48031496062992124,
                    "duration": 0.13031025000000085
                },
                {
                    "name": "F2",
                    "midi": 41,
                    "time": 49.38758475000028,
                    "velocity": 0.4094488188976378,
                    "duration": 0.13031025000000085
                },
                {
                    "name": "B2",
                    "midi": 47,
                    "time": 49.51789500000028,
                    "velocity": 0.4015748031496063,
                    "duration": 0.13031025000000085
                },
                {
                    "name": "G1",
                    "midi": 31,
                    "time": 49.64820525000028,
                    "velocity": 0.3543307086614173,
                    "duration": 0.13031025000000085
                },
                {
                    "name": "D3",
                    "midi": 50,
                    "time": 49.77851550000028,
                    "velocity": 0.44881889763779526,
                    "duration": 0.2606205000000017
                },
                {
                    "name": "C2",
                    "midi": 36,
                    "time": 50.03913600000028,
                    "velocity": 0.5039370078740157,
                    "duration": 0.13031025000000085
                },
                {
                    "name": "G2",
                    "midi": 43,
                    "time": 50.169446250000284,
                    "velocity": 0.4251968503937008,
                    "duration": 0.13031025000000085
                },
                {
                    "name": "E3",
                    "midi": 52,
                    "time": 50.299756500000285,
                    "velocity": 0.4094488188976378,
                    "duration": 0.13031025000000085
                },
                {
                    "name": "C2",
                    "midi": 36,
                    "time": 50.430066750000286,
                    "velocity": 0.3700787401574803,
                    "duration": 0.13031025000000085
                },
                {
                    "name": "G3",
                    "midi": 55,
                    "time": 50.56037700000029,
                    "velocity": 0.4645669291338583,
                    "duration": 0.2606205000000017
                },
                {
                    "name": "C2",
                    "midi": 36,
                    "time": 50.82099750000029,
                    "velocity": 0.5039370078740157,
                    "duration": 0.13031025000000085
                },
                {
                    "name": "G2",
                    "midi": 43,
                    "time": 50.95130775000029,
                    "velocity": 0.4015748031496063,
                    "duration": 0.13031025000000085
                },
                {
                    "name": "E3",
                    "midi": 52,
                    "time": 51.08161800000029,
                    "velocity": 0.4015748031496063,
                    "duration": 0.13031025000000085
                },
                {
                    "name": "C2",
                    "midi": 36,
                    "time": 51.21192825000029,
                    "velocity": 0.3543307086614173,
                    "duration": 0.13031025000000085
                },
                {
                    "name": "G3",
                    "midi": 55,
                    "time": 51.34223850000029,
                    "velocity": 0.4645669291338583,
                    "duration": 0.2606205000000017
                },
                {
                    "name": "C2",
                    "midi": 36,
                    "time": 51.602859000000294,
                    "velocity": 0.5039370078740157,
                    "duration": 0.13031025000000085
                },
                {
                    "name": "F#2",
                    "midi": 42,
                    "time": 51.733169250000294,
                    "velocity": 0.41732283464566927,
                    "duration": 0.13031025000000085
                },
                {
                    "name": "E3",
                    "midi": 52,
                    "time": 51.863479500000295,
                    "velocity": 0.41732283464566927,
                    "duration": 0.13031025000000085
                },
                {
                    "name": "C2",
                    "midi": 36,
                    "time": 51.993789750000296,
                    "velocity": 0.3700787401574803,
                    "duration": 0.13031025000000085
                },
                {
                    "name": "F#3",
                    "midi": 54,
                    "time": 52.1241000000003,
                    "velocity": 0.47244094488188976,
                    "duration": 0.2606205000000017
                },
                {
                    "name": "C2",
                    "midi": 36,
                    "time": 52.3847205000003,
                    "velocity": 0.5039370078740157,
                    "duration": 0.13031025000000085
                },
                {
                    "name": "F#2",
                    "midi": 42,
                    "time": 52.5150307500003,
                    "velocity": 0.4094488188976378,
                    "duration": 0.13031025000000085
                },
                {
                    "name": "E3",
                    "midi": 52,
                    "time": 52.6453410000003,
                    "velocity": 0.4094488188976378,
                    "duration": 0.13031025000000085
                },
                {
                    "name": "C2",
                    "midi": 36,
                    "time": 52.7756512500003,
                    "velocity": 0.3543307086614173,
                    "duration": 0.13031025000000085
                },
                {
                    "name": "F#3",
                    "midi": 54,
                    "time": 52.9059615000003,
                    "velocity": 0.4645669291338583,
                    "duration": 0.2606205000000017
                },
                {
                    "name": "B1",
                    "midi": 35,
                    "time": 53.166582000000304,
                    "velocity": 0.5039370078740157,
                    "duration": 0.13031025000000085
                },
                {
                    "name": "G2",
                    "midi": 43,
                    "time": 53.296892250000305,
                    "velocity": 0.4015748031496063,
                    "duration": 0.13031025000000085
                },
                {
                    "name": "E3",
                    "midi": 52,
                    "time": 53.427202500000305,
                    "velocity": 0.4015748031496063,
                    "duration": 0.13031025000000085
                },
                {
                    "name": "B1",
                    "midi": 35,
                    "time": 53.557512750000306,
                    "velocity": 0.3543307086614173,
                    "duration": 0.13031025000000085
                },
                {
                    "name": "G3",
                    "midi": 55,
                    "time": 53.68782300000031,
                    "velocity": 0.47244094488188976,
                    "duration": 0.2606205000000017
                },
                {
                    "name": "B1",
                    "midi": 35,
                    "time": 53.94844350000031,
                    "velocity": 0.5039370078740157,
                    "duration": 0.13031025000000085
                },
                {
                    "name": "G2",
                    "midi": 43,
                    "time": 54.07875375000031,
                    "velocity": 0.4251968503937008,
                    "duration": 0.13031025000000085
                },
                {
                    "name": "E3",
                    "midi": 52,
                    "time": 54.20906400000031,
                    "velocity": 0.4251968503937008,
                    "duration": 0.13031025000000085
                },
                {
                    "name": "B1",
                    "midi": 35,
                    "time": 54.33937425000031,
                    "velocity": 0.36220472440944884,
                    "duration": 0.13031025000000085
                },
                {
                    "name": "G3",
                    "midi": 55,
                    "time": 54.46968450000031,
                    "velocity": 0.48031496062992124,
                    "duration": 0.2606205000000017
                },
                {
                    "name": "B1",
                    "midi": 35,
                    "time": 54.730305000000314,
                    "velocity": 0.5039370078740157,
                    "duration": 0.13031025000000085
                },
                {
                    "name": "A2",
                    "midi": 45,
                    "time": 54.860615250000315,
                    "velocity": 0.4251968503937008,
                    "duration": 0.13031025000000085
                },
                {
                    "name": "D#3",
                    "midi": 51,
                    "time": 54.990925500000316,
                    "velocity": 0.4251968503937008,
                    "duration": 0.13031025000000085
                },
                {
                    "name": "B1",
                    "midi": 35,
                    "time": 55.12123575000032,
                    "velocity": 0.3779527559055118,
                    "duration": 0.13031025000000085
                },
                {
                    "name": "F#3",
                    "midi": 54,
                    "time": 55.25154600000032,
                    "velocity": 0.4645669291338583,
                    "duration": 0.2606205000000017
                },
                {
                    "name": "B1",
                    "midi": 35,
                    "time": 55.51216650000032,
                    "velocity": 0.5039370078740157,
                    "duration": 0.13031025000000085
                },
                {
                    "name": "A2",
                    "midi": 45,
                    "time": 55.64247675000032,
                    "velocity": 0.4330708661417323,
                    "duration": 0.13031025000000085
                },
                {
                    "name": "D#3",
                    "midi": 51,
                    "time": 55.77278700000032,
                    "velocity": 0.4330708661417323,
                    "duration": 0.13031025000000085
                },
                {
                    "name": "B1",
                    "midi": 35,
                    "time": 55.90309725000032,
                    "velocity": 0.3700787401574803,
                    "duration": 0.13031025000000085
                },
                {
                    "name": "F#3",
                    "midi": 54,
                    "time": 56.03340750000032,
                    "velocity": 0.48031496062992124,
                    "duration": 0.2606205000000017
                },
                {
                    "name": "E2",
                    "midi": 40,
                    "time": 56.294028000000324,
                    "velocity": 0.5039370078740157,
                    "duration": 0.13031025000000085
                },
                {
                    "name": "B2",
                    "midi": 47,
                    "time": 56.424338250000325,
                    "velocity": 0.4251968503937008,
                    "duration": 0.13031025000000085
                },
                {
                    "name": "G3",
                    "midi": 55,
                    "time": 56.554648500000326,
                    "velocity": 0.4251968503937008,
                    "duration": 0.13031025000000085
                },
                {
                    "name": "E2",
                    "midi": 40,
                    "time": 56.68495875000033,
                    "velocity": 0.3779527559055118,
                    "duration": 0.13031025000000085
                },
                {
                    "name": "B3",
                    "midi": 59,
                    "time": 56.81526900000033,
                    "velocity": 0.47244094488188976,
                    "duration": 0.2606205000000017
                },
                {
                    "name": "E2",
                    "midi": 40,
                    "time": 57.07588950000033,
                    "velocity": 0.4881889763779528,
                    "duration": 0.13031025000000085
                },
                {
                    "name": "B2",
                    "midi": 47,
                    "time": 57.20619975000033,
                    "velocity": 0.4094488188976378,
                    "duration": 0.13031025000000085
                },
                {
                    "name": "G3",
                    "midi": 55,
                    "time": 57.33651000000033,
                    "velocity": 0.4094488188976378,
                    "duration": 0.13031025000000085
                },
                {
                    "name": "E2",
                    "midi": 40,
                    "time": 57.46682025000033,
                    "velocity": 0.3543307086614173,
                    "duration": 0.13031025000000085
                },
                {
                    "name": "B3",
                    "midi": 59,
                    "time": 57.59713050000033,
                    "velocity": 0.4409448818897638,
                    "duration": 0.2606205000000017
                },
                {
                    "name": "D#2",
                    "midi": 39,
                    "time": 57.857751000000334,
                    "velocity": 0.48031496062992124,
                    "duration": 0.13031025000000085
                },
                {
                    "name": "B2",
                    "midi": 47,
                    "time": 57.988061250000335,
                    "velocity": 0.4015748031496063,
                    "duration": 0.13031025000000085
                },
                {
                    "name": "G3",
                    "midi": 55,
                    "time": 58.118371500000336,
                    "velocity": 0.4015748031496063,
                    "duration": 0.13031025000000085
                },
                {
                    "name": "D#2",
                    "midi": 39,
                    "time": 58.24868175000034,
                    "velocity": 0.3543307086614173,
                    "duration": 0.13031025000000085
                },
                {
                    "name": "B3",
                    "midi": 59,
                    "time": 58.37899200000034,
                    "velocity": 0.44881889763779526,
                    "duration": 0.2606205000000017
                },
                {
                    "name": "D2",
                    "midi": 38,
                    "time": 58.63961250000034,
                    "velocity": 0.48031496062992124,
                    "duration": 0.13031024999999374
                },
                {
                    "name": "B2",
                    "midi": 47,
                    "time": 58.76992275000033,
                    "velocity": 0.4094488188976378,
                    "duration": 0.13031025000000085
                },
                {
                    "name": "F3",
                    "midi": 53,
                    "time": 58.900233000000334,
                    "velocity": 0.4094488188976378,
                    "duration": 0.13031025000000085
                },
                {
                    "name": "D2",
                    "midi": 38,
                    "time": 59.030543250000335,
                    "velocity": 0.3543307086614173,
                    "duration": 0.13031025000000085
                },
                {
                    "name": "G3",
                    "midi": 55,
                    "time": 59.160853500000336,
                    "velocity": 0.44881889763779526,
                    "duration": 0.2606205000000017
                },
                {
                    "name": "C2",
                    "midi": 36,
                    "time": 59.42147400000034,
                    "velocity": 0.5039370078740157,
                    "duration": 0.13031025000000085
                },
                {
                    "name": "G2",
                    "midi": 43,
                    "time": 59.55178425000034,
                    "velocity": 0.4094488188976378,
                    "duration": 0.13031025000000085
                },
                {
                    "name": "D#3",
                    "midi": 51,
                    "time": 59.68209450000034,
                    "velocity": 0.4094488188976378,
                    "duration": 0.13031025000000085
                },
                {
                    "name": "C2",
                    "midi": 36,
                    "time": 59.81240475000034,
                    "velocity": 0.3543307086614173,
                    "duration": 0.13031025000000085
                },
                {
                    "name": "G3",
                    "midi": 55,
                    "time": 59.94271500000034,
                    "velocity": 0.44881889763779526,
                    "duration": 0.2606205000000017
                },
                {
                    "name": "C2",
                    "midi": 36,
                    "time": 60.20333550000034,
                    "velocity": 0.49606299212598426,
                    "duration": 0.13031025000000085
                },
                {
                    "name": "G2",
                    "midi": 43,
                    "time": 60.33364575000034,
                    "velocity": 0.41732283464566927,
                    "duration": 0.13031025000000085
                },
                {
                    "name": "D#3",
                    "midi": 51,
                    "time": 60.463956000000344,
                    "velocity": 0.41732283464566927,
                    "duration": 0.13031025000000085
                },
                {
                    "name": "C2",
                    "midi": 36,
                    "time": 60.594266250000345,
                    "velocity": 0.3543307086614173,
                    "duration": 0.13031025000000085
                },
                {
                    "name": "G3",
                    "midi": 55,
                    "time": 60.724576500000346,
                    "velocity": 0.48031496062992124,
                    "duration": 0.2606205000000017
                },
                {
                    "name": "C2",
                    "midi": 36,
                    "time": 60.98519700000035,
                    "velocity": 0.48031496062992124,
                    "duration": 0.13031025000000085
                },
                {
                    "name": "G2",
                    "midi": 43,
                    "time": 61.11550725000035,
                    "velocity": 0.4094488188976378,
                    "duration": 0.13031025000000085
                },
                {
                    "name": "D#3",
                    "midi": 51,
                    "time": 61.24581750000035,
                    "velocity": 0.4094488188976378,
                    "duration": 0.13031025000000085
                },
                {
                    "name": "C2",
                    "midi": 36,
                    "time": 61.37612775000035,
                    "velocity": 0.3543307086614173,
                    "duration": 0.13031025000000085
                },
                {
                    "name": "G3",
                    "midi": 55,
                    "time": 61.50643800000035,
                    "velocity": 0.44881889763779526,
                    "duration": 0.2606205000000017
                },
                {
                    "name": "C2",
                    "midi": 36,
                    "time": 61.76705850000035,
                    "velocity": 0.47244094488188976,
                    "duration": 0.13031025000000085
                },
                {
                    "name": "G2",
                    "midi": 43,
                    "time": 61.89736875000035,
                    "velocity": 0.4094488188976378,
                    "duration": 0.13031025000000085
                },
                {
                    "name": "D#3",
                    "midi": 51,
                    "time": 62.027679000000354,
                    "velocity": 0.4094488188976378,
                    "duration": 0.13031025000000085
                },
                {
                    "name": "C2",
                    "midi": 36,
                    "time": 62.157989250000355,
                    "velocity": 0.3464566929133858,
                    "duration": 0.13031025000000085
                },
                {
                    "name": "G3",
                    "midi": 55,
                    "time": 62.288299500000356,
                    "velocity": 0.4330708661417323,
                    "duration": 0.2606205000000017
                },
                {
                    "name": "C2",
                    "midi": 36,
                    "time": 62.54892000000036,
                    "velocity": 0.49606299212598426,
                    "duration": 0.13031025000000085
                },
                {
                    "name": "G#2",
                    "midi": 44,
                    "time": 62.67923025000036,
                    "velocity": 0.3858267716535433,
                    "duration": 0.13031025000000085
                },
                {
                    "name": "D#3",
                    "midi": 51,
                    "time": 62.80954050000036,
                    "velocity": 0.3858267716535433,
                    "duration": 0.13031025000000085
                },
                {
                    "name": "C2",
                    "midi": 36,
                    "time": 62.93985075000036,
                    "velocity": 0.3464566929133858,
                    "duration": 0.13031025000000085
                },
                {
                    "name": "G#3",
                    "midi": 56,
                    "time": 63.07016100000036,
                    "velocity": 0.4566929133858268,
                    "duration": 0.2606205000000017
                },
                {
                    "name": "C2",
                    "midi": 36,
                    "time": 63.33078150000036,
                    "velocity": 0.4881889763779528,
                    "duration": 0.13031025000000085
                },
                {
                    "name": "G#2",
                    "midi": 44,
                    "time": 63.461091750000364,
                    "velocity": 0.41732283464566927,
                    "duration": 0.13031025000000085
                },
                {
                    "name": "D#3",
                    "midi": 51,
                    "time": 63.591402000000365,
                    "velocity": 0.4015748031496063,
                    "duration": 0.13031025000000085
                },
                {
                    "name": "C2",
                    "midi": 36,
                    "time": 63.721712250000365,
                    "velocity": 0.3543307086614173,
                    "duration": 0.13031025000000085
                },
                {
                    "name": "G#3",
                    "midi": 56,
                    "time": 63.852022500000366,
                    "velocity": 0.44881889763779526,
                    "duration": 0.2606204999999946
                },
                {
                    "name": "C2",
                    "midi": 36,
                    "time": 64.11264300000036,
                    "velocity": 0.49606299212598426,
                    "duration": 0.13031024999999374
                },
                {
                    "name": "G#2",
                    "midi": 44,
                    "time": 64.24295325000035,
                    "velocity": 0.4015748031496063,
                    "duration": 0.13031024999999374
                },
                {
                    "name": "F#3",
                    "midi": 54,
                    "time": 64.37326350000035,
                    "velocity": 0.4015748031496063,
                    "duration": 0.13031024999999374
                },
                {
                    "name": "C2",
                    "midi": 36,
                    "time": 64.50357375000034,
                    "velocity": 0.3543307086614173,
                    "duration": 0.13031024999999374
                },
                {
                    "name": "G#3",
                    "midi": 56,
                    "time": 64.63388400000034,
                    "velocity": 0.4566929133858268,
                    "duration": 0.2606205000000017
                },
                {
                    "name": "C2",
                    "midi": 36,
                    "time": 64.89450450000034,
                    "velocity": 0.5039370078740157,
                    "duration": 0.13031024999999374
                },
                {
                    "name": "G#2",
                    "midi": 44,
                    "time": 65.02481475000033,
                    "velocity": 0.4094488188976378,
                    "duration": 0.13031024999999374
                },
                {
                    "name": "F#3",
                    "midi": 54,
                    "time": 65.15512500000033,
                    "velocity": 0.4094488188976378,
                    "duration": 0.13031024999999374
                },
                {
                    "name": "C2",
                    "midi": 36,
                    "time": 65.28543525000032,
                    "velocity": 0.3543307086614173,
                    "duration": 0.13031024999999374
                },
                {
                    "name": "G#3",
                    "midi": 56,
                    "time": 65.41574550000031,
                    "velocity": 0.4566929133858268,
                    "duration": 0.2606205000000017
                },
                {
                    "name": "C#2",
                    "midi": 37,
                    "time": 65.67636600000031,
                    "velocity": 0.5039370078740157,
                    "duration": 0.13031024999999374
                },
                {
                    "name": "G#2",
                    "midi": 44,
                    "time": 65.80667625000031,
                    "velocity": 0.4015748031496063,
                    "duration": 0.13031024999999374
                },
                {
                    "name": "F3",
                    "midi": 53,
                    "time": 65.9369865000003,
                    "velocity": 0.4094488188976378,
                    "duration": 0.13031024999999374
                },
                {
                    "name": "C#2",
                    "midi": 37,
                    "time": 66.0672967500003,
                    "velocity": 0.3543307086614173,
                    "duration": 0.13031024999999374
                },
                {
                    "name": "G#3",
                    "midi": 56,
                    "time": 66.19760700000029,
                    "velocity": 0.44881889763779526,
                    "duration": 0.2606205000000017
                },
                {
                    "name": "C#2",
                    "midi": 37,
                    "time": 66.45822750000029,
                    "velocity": 0.5039370078740157,
                    "duration": 0.13031024999999374
                },
                {
                    "name": "G#2",
                    "midi": 44,
                    "time": 66.58853775000028,
                    "velocity": 0.41732283464566927,
                    "duration": 0.13031024999999374
                },
                {
                    "name": "F3",
                    "midi": 53,
                    "time": 66.71884800000028,
                    "velocity": 0.4094488188976378,
                    "duration": 0.13031024999999374
                },
                {
                    "name": "C#2",
                    "midi": 37,
                    "time": 66.84915825000027,
                    "velocity": 0.36220472440944884,
                    "duration": 0.13031024999999374
                },
                {
                    "name": "G#3",
                    "midi": 56,
                    "time": 66.97946850000027,
                    "velocity": 0.4566929133858268,
                    "duration": 0.2606205000000017
                },
                {
                    "name": "C#2",
                    "midi": 37,
                    "time": 67.24008900000027,
                    "velocity": 0.49606299212598426,
                    "duration": 0.13031024999999374
                },
                {
                    "name": "G#2",
                    "midi": 44,
                    "time": 67.37039925000026,
                    "velocity": 0.41732283464566927,
                    "duration": 0.13031024999999374
                },
                {
                    "name": "F3",
                    "midi": 53,
                    "time": 67.50070950000026,
                    "velocity": 0.41732283464566927,
                    "duration": 0.13031024999999374
                },
                {
                    "name": "C#2",
                    "midi": 37,
                    "time": 67.63101975000025,
                    "velocity": 0.36220472440944884,
                    "duration": 0.13031024999999374
                },
                {
                    "name": "G#3",
                    "midi": 56,
                    "time": 67.76133000000024,
                    "velocity": 0.4645669291338583,
                    "duration": 0.2606205000000017
                },
                {
                    "name": "C#2",
                    "midi": 37,
                    "time": 68.02195050000024,
                    "velocity": 0.5039370078740157,
                    "duration": 0.13031024999999374
                },
                {
                    "name": "G#2",
                    "midi": 44,
                    "time": 68.15226075000024,
                    "velocity": 0.41732283464566927,
                    "duration": 0.13031024999999374
                },
                {
                    "name": "F3",
                    "midi": 53,
                    "time": 68.28257100000023,
                    "velocity": 0.41732283464566927,
                    "duration": 0.13031024999999374
                },
                {
                    "name": "C#2",
                    "midi": 37,
                    "time": 68.41288125000023,
                    "velocity": 0.3543307086614173,
                    "duration": 0.13031024999999374
                },
                {
                    "name": "G#3",
                    "midi": 56,
                    "time": 68.54319150000022,
                    "velocity": 0.4566929133858268,
                    "duration": 0.2606205000000017
                },
                {
                    "name": "C#2",
                    "midi": 37,
                    "time": 68.80381200000022,
                    "velocity": 0.4881889763779528,
                    "duration": 0.13031024999999374
                },
                {
                    "name": "G#2",
                    "midi": 44,
                    "time": 68.93412225000021,
                    "velocity": 0.4094488188976378,
                    "duration": 0.13031024999999374
                },
                {
                    "name": "F3",
                    "midi": 53,
                    "time": 69.06443250000021,
                    "velocity": 0.4094488188976378,
                    "duration": 0.13031024999999374
                },
                {
                    "name": "C#2",
                    "midi": 37,
                    "time": 69.1947427500002,
                    "velocity": 0.3543307086614173,
                    "duration": 0.13031024999999374
                },
                {
                    "name": "G#3",
                    "midi": 56,
                    "time": 69.3250530000002,
                    "velocity": 0.4645669291338583,
                    "duration": 0.2606205000000017
                },
                {
                    "name": "C#2",
                    "midi": 37,
                    "time": 69.5856735000002,
                    "velocity": 0.4409448818897638,
                    "duration": 0.13031024999999374
                },
                {
                    "name": "G#2",
                    "midi": 44,
                    "time": 69.71598375000019,
                    "velocity": 0.3858267716535433,
                    "duration": 0.13031024999999374
                },
                {
                    "name": "F3",
                    "midi": 53,
                    "time": 69.84629400000019,
                    "velocity": 0.36220472440944884,
                    "duration": 0.13031024999999374
                },
                {
                    "name": "C#2",
                    "midi": 37,
                    "time": 69.97660425000018,
                    "velocity": 0.33858267716535434,
                    "duration": 0.13031024999999374
                },
                {
                    "name": "G#3",
                    "midi": 56,
                    "time": 70.10691450000017,
                    "velocity": 0.3937007874015748,
                    "duration": 0.2606205000000017
                },
                {
                    "name": "C#2",
                    "midi": 37,
                    "time": 70.36753500000017,
                    "velocity": 0.3937007874015748,
                    "duration": 0.13031024999999374
                },
                {
                    "name": "G#2",
                    "midi": 44,
                    "time": 70.49784525000017,
                    "velocity": 0.2677165354330709,
                    "duration": 0.13031024999999374
                },
                {
                    "name": "F3",
                    "midi": 53,
                    "time": 70.62815550000016,
                    "velocity": 0.2755905511811024,
                    "duration": 0.13031024999999374
                },
                {
                    "name": "C#2",
                    "midi": 37,
                    "time": 70.75846575000016,
                    "velocity": 0.2283464566929134,
                    "duration": 0.13031024999999374
                },
                {
                    "name": "G#3",
                    "midi": 56,
                    "time": 70.88877600000015,
                    "velocity": 0.33070866141732286,
                    "duration": 0.2606205000000017
                },
                {
                    "name": "C#2",
                    "midi": 37,
                    "time": 71.14939650000015,
                    "velocity": 0.3779527559055118,
                    "duration": 0.13031024999999374
                },
                {
                    "name": "G#2",
                    "midi": 44,
                    "time": 71.27970675000014,
                    "velocity": 0.2677165354330709,
                    "duration": 0.13031024999999374
                },
                {
                    "name": "F3",
                    "midi": 53,
                    "time": 71.41001700000014,
                    "velocity": 0.2677165354330709,
                    "duration": 0.13031024999999374
                },
                {
                    "name": "C#2",
                    "midi": 37,
                    "time": 71.54032725000013,
                    "velocity": 0.2125984251968504,
                    "duration": 0.13031024999999374
                },
                {
                    "name": "G#3",
                    "midi": 56,
                    "time": 71.67063750000013,
                    "velocity": 0.33070866141732286,
                    "duration": 0.2606205000000017
                },
                {
                    "name": "C#2",
                    "midi": 37,
                    "time": 71.93125800000013,
                    "velocity": 0.33858267716535434,
                    "duration": 0.13031024999999374
                },
                {
                    "name": "A2",
                    "midi": 45,
                    "time": 72.06156825000012,
                    "velocity": 0.25196850393700787,
                    "duration": 0.13031024999999374
                },
                {
                    "name": "F3",
                    "midi": 53,
                    "time": 72.19187850000012,
                    "velocity": 0.25196850393700787,
                    "duration": 0.13031024999999374
                },
                {
                    "name": "C#2",
                    "midi": 37,
                    "time": 72.32218875000011,
                    "velocity": 0.2125984251968504,
                    "duration": 0.13031024999999374
                },
                {
                    "name": "A3",
                    "midi": 57,
                    "time": 72.4524990000001,
                    "velocity": 0.33070866141732286,
                    "duration": 0.2606205000000017
                },
                {
                    "name": "C#2",
                    "midi": 37,
                    "time": 72.7131195000001,
                    "velocity": 0.3464566929133858,
                    "duration": 0.13031024999999374
                },
                {
                    "name": "A2",
                    "midi": 45,
                    "time": 72.8434297500001,
                    "velocity": 0.25196850393700787,
                    "duration": 0.13031024999999374
                },
                {
                    "name": "F3",
                    "midi": 53,
                    "time": 72.97374000000009,
                    "velocity": 0.25196850393700787,
                    "duration": 0.13031024999999374
                },
                {
                    "name": "C#2",
                    "midi": 37,
                    "time": 73.10405025000009,
                    "velocity": 0.2125984251968504,
                    "duration": 0.13031024999999374
                },
                {
                    "name": "A3",
                    "midi": 57,
                    "time": 73.23436050000008,
                    "velocity": 0.3228346456692913,
                    "duration": 0.2606205000000017
                },
                {
                    "name": "C#2",
                    "midi": 37,
                    "time": 73.49498100000008,
                    "velocity": 0.36220472440944884,
                    "duration": 0.13031024999999374
                },
                {
                    "name": "A2",
                    "midi": 45,
                    "time": 73.62529125000007,
                    "velocity": 0.25984251968503935,
                    "duration": 0.13031024999999374
                },
                {
                    "name": "F3",
                    "midi": 53,
                    "time": 73.75560150000007,
                    "velocity": 0.25984251968503935,
                    "duration": 0.13031024999999374
                },
                {
                    "name": "C#2",
                    "midi": 37,
                    "time": 73.88591175000006,
                    "velocity": 0.2125984251968504,
                    "duration": 0.13031024999999374
                },
                {
                    "name": "A3",
                    "midi": 57,
                    "time": 74.01622200000006,
                    "velocity": 0.3228346456692913,
                    "duration": 0.2606205000000017
                },
                {
                    "name": "C#2",
                    "midi": 37,
                    "time": 74.27684250000006,
                    "velocity": 0.3543307086614173,
                    "duration": 0.13031024999999374
                },
                {
                    "name": "A2",
                    "midi": 45,
                    "time": 74.40715275000005,
                    "velocity": 0.25984251968503935,
                    "duration": 0.13031024999999374
                },
                {
                    "name": "F3",
                    "midi": 53,
                    "time": 74.53746300000005,
                    "velocity": 0.25984251968503935,
                    "duration": 0.13031024999999374
                },
                {
                    "name": "C#2",
                    "midi": 37,
                    "time": 74.66777325000004,
                    "velocity": 0.2204724409448819,
                    "duration": 0.13031024999999374
                },
                {
                    "name": "A3",
                    "midi": 57,
                    "time": 74.79808350000003,
                    "velocity": 0.3228346456692913,
                    "duration": 0.2606205000000017
                },
                {
                    "name": "C#2",
                    "midi": 37,
                    "time": 75.05870400000003,
                    "velocity": 0.3543307086614173,
                    "duration": 0.13031024999999374
                },
                {
                    "name": "A2",
                    "midi": 45,
                    "time": 75.18901425000003,
                    "velocity": 0.25984251968503935,
                    "duration": 0.13031024999999374
                },
                {
                    "name": "F3",
                    "midi": 53,
                    "time": 75.31932450000002,
                    "velocity": 0.25984251968503935,
                    "duration": 0.13031024999999374
                },
                {
                    "name": "C#2",
                    "midi": 37,
                    "time": 75.44963475000002,
                    "velocity": 0.2125984251968504,
                    "duration": 0.13031024999999374
                },
                {
                    "name": "A3",
                    "midi": 57,
                    "time": 75.57994500000001,
                    "velocity": 0.3228346456692913,
                    "duration": 0.2606205000000017
                },
                {
                    "name": "C#2",
                    "midi": 37,
                    "time": 75.84056550000001,
                    "velocity": 0.36220472440944884,
                    "duration": 0.13031024999999374
                },
                {
                    "name": "A2",
                    "midi": 45,
                    "time": 75.97087575,
                    "velocity": 0.2677165354330709,
                    "duration": 0.13031024999999374
                },
                {
                    "name": "F3",
                    "midi": 53,
                    "time": 76.101186,
                    "velocity": 0.25984251968503935,
                    "duration": 0.13031024999999374
                },
                {
                    "name": "C#2",
                    "midi": 37,
                    "time": 76.23149624999999,
                    "velocity": 0.2125984251968504,
                    "duration": 0.13031024999999374
                },
                {
                    "name": "A3",
                    "midi": 57,
                    "time": 76.36180649999999,
                    "velocity": 0.3228346456692913,
                    "duration": 0.2606205000000017
                },
                {
                    "name": "C#2",
                    "midi": 37,
                    "time": 76.62242699999999,
                    "velocity": 0.3543307086614173,
                    "duration": 0.13031024999999374
                },
                {
                    "name": "A2",
                    "midi": 45,
                    "time": 76.75273724999998,
                    "velocity": 0.25984251968503935,
                    "duration": 0.13031024999999374
                },
                {
                    "name": "F3",
                    "midi": 53,
                    "time": 76.88304749999998,
                    "velocity": 0.25984251968503935,
                    "duration": 0.13031024999999374
                },
                {
                    "name": "C#2",
                    "midi": 37,
                    "time": 77.01335774999997,
                    "velocity": 0.1968503937007874,
                    "duration": 0.13031024999999374
                },
                {
                    "name": "A3",
                    "midi": 57,
                    "time": 77.14366799999996,
                    "velocity": 0.31496062992125984,
                    "duration": 0.2606205000000017
                },
                {
                    "name": "C#2",
                    "midi": 37,
                    "time": 77.40428849999996,
                    "velocity": 0.3543307086614173,
                    "duration": 0.13031024999999374
                },
                {
                    "name": "A2",
                    "midi": 45,
                    "time": 77.53459874999996,
                    "velocity": 0.2755905511811024,
                    "duration": 0.13031024999999374
                },
                {
                    "name": "F3",
                    "midi": 53,
                    "time": 77.66490899999995,
                    "velocity": 0.25984251968503935,
                    "duration": 0.13031024999999374
                },
                {
                    "name": "C#2",
                    "midi": 37,
                    "time": 77.79521924999995,
                    "velocity": 0.2047244094488189,
                    "duration": 0.13031024999999374
                },
                {
                    "name": "A3",
                    "midi": 57,
                    "time": 77.92552949999994,
                    "velocity": 0.30708661417322836,
                    "duration": 0.2606205000000017
                },
                {
                    "name": "D2",
                    "midi": 38,
                    "time": 78.18614999999994,
                    "velocity": 0.48031496062992124,
                    "duration": 0.13031024999999374
                },
                {
                    "name": "A2",
                    "midi": 45,
                    "time": 78.31646024999993,
                    "velocity": 0.3543307086614173,
                    "duration": 0.13031024999999374
                },
                {
                    "name": "F3",
                    "midi": 53,
                    "time": 78.44677049999993,
                    "velocity": 0.3543307086614173,
                    "duration": 0.13031024999999374
                },
                {
                    "name": "D2",
                    "midi": 38,
                    "time": 78.57708074999992,
                    "velocity": 0.31496062992125984,
                    "duration": 0.13031024999999374
                },
                {
                    "name": "A3",
                    "midi": 57,
                    "time": 78.70739099999992,
                    "velocity": 0.4409448818897638,
                    "duration": 0.2606205000000017
                },
                {
                    "name": "D2",
                    "midi": 38,
                    "time": 78.96801149999992,
                    "velocity": 0.4409448818897638,
                    "duration": 0.13031024999999374
                },
                {
                    "name": "A2",
                    "midi": 45,
                    "time": 79.09832174999991,
                    "velocity": 0.3543307086614173,
                    "duration": 0.13031024999999374
                },
                {
                    "name": "F3",
                    "midi": 53,
                    "time": 79.2286319999999,
                    "velocity": 0.3543307086614173,
                    "duration": 0.13031024999999374
                },
                {
                    "name": "D2",
                    "midi": 38,
                    "time": 79.3589422499999,
                    "velocity": 0.30708661417322836,
                    "duration": 0.13031024999999374
                },
                {
                    "name": "A3",
                    "midi": 57,
                    "time": 79.48925249999989,
                    "velocity": 0.4330708661417323,
                    "duration": 0.2606205000000017
                },
                {
                    "name": "D2",
                    "midi": 38,
                    "time": 79.7498729999999,
                    "velocity": 0.5039370078740157,
                    "duration": 0.13031024999999374
                },
                {
                    "name": "A2",
                    "midi": 45,
                    "time": 79.88018324999989,
                    "velocity": 0.3543307086614173,
                    "duration": 0.13031024999999374
                },
                {
                    "name": "F3",
                    "midi": 53,
                    "time": 80.01049349999988,
                    "velocity": 0.3543307086614173,
                    "duration": 0.13031024999999374
                },
                {
                    "name": "D2",
                    "midi": 38,
                    "time": 80.14080374999988,
                    "velocity": 0.30708661417322836,
                    "duration": 0.13031024999999374
                },
                {
                    "name": "A3",
                    "midi": 57,
                    "time": 80.27111399999987,
                    "velocity": 0.44881889763779526,
                    "duration": 0.2606205000000017
                },
                {
                    "name": "D2",
                    "midi": 38,
                    "time": 80.53173449999987,
                    "velocity": 0.4645669291338583,
                    "duration": 0.13031024999999374
                },
                {
                    "name": "A2",
                    "midi": 45,
                    "time": 80.66204474999986,
                    "velocity": 0.3858267716535433,
                    "duration": 0.13031024999999374
                },
                {
                    "name": "F3",
                    "midi": 53,
                    "time": 80.79235499999986,
                    "velocity": 0.3700787401574803,
                    "duration": 0.13031024999999374
                },
                {
                    "name": "D2",
                    "midi": 38,
                    "time": 80.92266524999985,
                    "velocity": 0.33070866141732286,
                    "duration": 0.13031024999999374
                },
                {
                    "name": "A3",
                    "midi": 57,
                    "time": 81.05297549999985,
                    "velocity": 0.47244094488188976,
                    "duration": 0.2606205000000017
                },
                {
                    "name": "A#1",
                    "midi": 34,
                    "time": 81.31359599999985,
                    "velocity": 0.5039370078740157,
                    "duration": 0.13031025000000795
                },
                {
                    "name": "G2",
                    "midi": 43,
                    "time": 81.44390624999986,
                    "velocity": 0.4015748031496063,
                    "duration": 0.13031024999999374
                },
                {
                    "name": "D3",
                    "midi": 50,
                    "time": 81.57421649999985,
                    "velocity": 0.4015748031496063,
                    "duration": 0.13031024999999374
                },
                {
                    "name": "A#1",
                    "midi": 34,
                    "time": 81.70452674999984,
                    "velocity": 0.33858267716535434,
                    "duration": 0.13031024999999374
                },
                {
                    "name": "E3",
                    "midi": 52,
                    "time": 81.83483699999984,
                    "velocity": 0.49606299212598426,
                    "duration": 0.2606205000000017
                },
                {
                    "name": "A#1",
                    "midi": 34,
                    "time": 82.09545749999984,
                    "velocity": 0.5039370078740157,
                    "duration": 0.13031024999999374
                },
                {
                    "name": "G2",
                    "midi": 43,
                    "time": 82.22576774999983,
                    "velocity": 0.4094488188976378,
                    "duration": 0.13031024999999374
                },
                {
                    "name": "D3",
                    "midi": 50,
                    "time": 82.35607799999983,
                    "velocity": 0.4094488188976378,
                    "duration": 0.13031024999999374
                },
                {
                    "name": "A#1",
                    "midi": 34,
                    "time": 82.48638824999982,
                    "velocity": 0.3543307086614173,
                    "duration": 0.13031024999999374
                },
                {
                    "name": "E3",
                    "midi": 52,
                    "time": 82.61669849999981,
                    "velocity": 0.49606299212598426,
                    "duration": 0.2606205000000017
                },
                {
                    "name": "A#1",
                    "midi": 34,
                    "time": 82.87731899999982,
                    "velocity": 0.5669291338582677,
                    "duration": 0.13031024999999374
                },
                {
                    "name": "G#2",
                    "midi": 44,
                    "time": 83.00762924999981,
                    "velocity": 0.4645669291338583,
                    "duration": 0.13031024999999374
                },
                {
                    "name": "D3",
                    "midi": 50,
                    "time": 83.1379394999998,
                    "velocity": 0.4566929133858268,
                    "duration": 0.13031024999999374
                },
                {
                    "name": "A#1",
                    "midi": 34,
                    "time": 83.2682497499998,
                    "velocity": 0.3937007874015748,
                    "duration": 0.13031024999999374
                },
                {
                    "name": "F3",
                    "midi": 53,
                    "time": 83.39855999999979,
                    "velocity": 0.5039370078740157,
                    "duration": 0.2606205000000017
                },
                {
                    "name": "A#1",
                    "midi": 34,
                    "time": 83.65918049999979,
                    "velocity": 0.5590551181102362,
                    "duration": 0.13031024999999374
                },
                {
                    "name": "G#2",
                    "midi": 44,
                    "time": 83.78949074999979,
                    "velocity": 0.4566929133858268,
                    "duration": 0.13031024999999374
                },
                {
                    "name": "D3",
                    "midi": 50,
                    "time": 83.91980099999978,
                    "velocity": 0.4566929133858268,
                    "duration": 0.13031024999999374
                },
                {
                    "name": "A#1",
                    "midi": 34,
                    "time": 84.05011124999977,
                    "velocity": 0.4015748031496063,
                    "duration": 0.13031024999999374
                },
                {
                    "name": "F3",
                    "midi": 53,
                    "time": 84.18042149999977,
                    "velocity": 0.5039370078740157,
                    "duration": 0.2606205000000017
                },
                {
                    "name": "A#1",
                    "midi": 34,
                    "time": 84.44104199999977,
                    "velocity": 0.5669291338582677,
                    "duration": 0.13031024999999374
                },
                {
                    "name": "G#2",
                    "midi": 44,
                    "time": 84.57135224999976,
                    "velocity": 0.48031496062992124,
                    "duration": 0.13031024999999374
                },
                {
                    "name": "D3",
                    "midi": 50,
                    "time": 84.70166249999976,
                    "velocity": 0.48031496062992124,
                    "duration": 0.13031024999999374
                },
                {
                    "name": "A#1",
                    "midi": 34,
                    "time": 84.83197274999975,
                    "velocity": 0.4251968503937008,
                    "duration": 0.13031024999999374
                },
                {
                    "name": "F3",
                    "midi": 53,
                    "time": 84.96228299999974,
                    "velocity": 0.5039370078740157,
                    "duration": 0.2606205000000017
                },
                {
                    "name": "A#1",
                    "midi": 34,
                    "time": 85.22290349999975,
                    "velocity": 0.5511811023622047,
                    "duration": 0.13031024999999374
                },
                {
                    "name": "G#2",
                    "midi": 44,
                    "time": 85.35321374999974,
                    "velocity": 0.47244094488188976,
                    "duration": 0.13031024999999374
                },
                {
                    "name": "D3",
                    "midi": 50,
                    "time": 85.48352399999973,
                    "velocity": 0.47244094488188976,
                    "duration": 0.13031024999999374
                },
                {
                    "name": "A#1",
                    "midi": 34,
                    "time": 85.61383424999973,
                    "velocity": 0.41732283464566927,
                    "duration": 0.13031024999999374
                },
                {
                    "name": "F3",
                    "midi": 53,
                    "time": 85.74414449999972,
                    "velocity": 0.5039370078740157,
                    "duration": 0.2606205000000017
                },
                {
                    "name": "A#1",
                    "midi": 34,
                    "time": 86.00476499999972,
                    "velocity": 0.5354330708661418,
                    "duration": 0.13031024999999374
                },
                {
                    "name": "G#2",
                    "midi": 44,
                    "time": 86.13507524999972,
                    "velocity": 0.47244094488188976,
                    "duration": 0.13031024999999374
                },
                {
                    "name": "D3",
                    "midi": 50,
                    "time": 86.26538549999971,
                    "velocity": 0.47244094488188976,
                    "duration": 0.13031024999999374
                },
                {
                    "name": "A#1",
                    "midi": 34,
                    "time": 86.3956957499997,
                    "velocity": 0.4251968503937008,
                    "duration": 0.13031024999999374
                },
                {
                    "name": "F3",
                    "midi": 53,
                    "time": 86.5260059999997,
                    "velocity": 0.5039370078740157,
                    "duration": 0.2606205000000017
                },
                {
                    "name": "A#1",
                    "midi": 34,
                    "time": 86.7866264999997,
                    "velocity": 0.5275590551181102,
                    "duration": 0.13031024999999374
                },
                {
                    "name": "G#2",
                    "midi": 44,
                    "time": 86.91693674999969,
                    "velocity": 0.4566929133858268,
                    "duration": 0.13031024999999374
                },
                {
                    "name": "D3",
                    "midi": 50,
                    "time": 87.04724699999969,
                    "velocity": 0.4566929133858268,
                    "duration": 0.13031024999999374
                },
                {
                    "name": "A#1",
                    "midi": 34,
                    "time": 87.17755724999968,
                    "velocity": 0.4094488188976378,
                    "duration": 0.13031024999999374
                },
                {
                    "name": "F3",
                    "midi": 53,
                    "time": 87.30786749999967,
                    "velocity": 0.5039370078740157,
                    "duration": 0.2606205000000017
                },
                {
                    "name": "A1",
                    "midi": 33,
                    "time": 87.56848799999968,
                    "velocity": 0.5118110236220472,
                    "duration": 0.13031024999999374
                },
                {
                    "name": "F2",
                    "midi": 41,
                    "time": 87.69879824999967,
                    "velocity": 0.4251968503937008,
                    "duration": 0.13031024999999374
                },
                {
                    "name": "D3",
                    "midi": 50,
                    "time": 87.82910849999966,
                    "velocity": 0.4251968503937008,
                    "duration": 0.13031024999999374
                },
                {
                    "name": "A1",
                    "midi": 33,
                    "time": 87.95941874999966,
                    "velocity": 0.3779527559055118,
                    "duration": 0.13031024999999374
                },
                {
                    "name": "F3",
                    "midi": 53,
                    "time": 88.08972899999965,
                    "velocity": 0.4881889763779528,
                    "duration": 0.2606205000000017
                },
                {
                    "name": "A1",
                    "midi": 33,
                    "time": 88.35034949999965,
                    "velocity": 0.5196850393700787,
                    "duration": 0.13031024999999374
                },
                {
                    "name": "F2",
                    "midi": 41,
                    "time": 88.48065974999965,
                    "velocity": 0.4330708661417323,
                    "duration": 0.13031024999999374
                },
                {
                    "name": "D3",
                    "midi": 50,
                    "time": 88.61096999999964,
                    "velocity": 0.4330708661417323,
                    "duration": 0.13031024999999374
                },
                {
                    "name": "A1",
                    "midi": 33,
                    "time": 88.74128024999963,
                    "velocity": 0.3858267716535433,
                    "duration": 0.13031024999999374
                },
                {
                    "name": "F3",
                    "midi": 53,
                    "time": 88.87159049999963,
                    "velocity": 0.48031496062992124,
                    "duration": 0.2606205000000017
                },
                {
                    "name": "A1",
                    "midi": 33,
                    "time": 89.13221099999963,
                    "velocity": 0.5275590551181102,
                    "duration": 0.13031024999999374
                },
                {
                    "name": "F2",
                    "midi": 41,
                    "time": 89.26252124999962,
                    "velocity": 0.4330708661417323,
                    "duration": 0.13031024999999374
                },
                {
                    "name": "D3",
                    "midi": 50,
                    "time": 89.39283149999962,
                    "velocity": 0.4330708661417323,
                    "duration": 0.13031024999999374
                },
                {
                    "name": "A1",
                    "midi": 33,
                    "time": 89.52314174999961,
                    "velocity": 0.3937007874015748,
                    "duration": 0.13031024999999374
                },
                {
                    "name": "F3",
                    "midi": 53,
                    "time": 89.6534519999996,
                    "velocity": 0.49606299212598426,
                    "duration": 0.2606205000000017
                },
                {
                    "name": "A1",
                    "midi": 33,
                    "time": 89.9140724999996,
                    "velocity": 0.5196850393700787,
                    "duration": 0.13031024999999374
                },
                {
                    "name": "F2",
                    "midi": 41,
                    "time": 90.0443827499996,
                    "velocity": 0.4409448818897638,
                    "duration": 0.13031024999999374
                },
                {
                    "name": "D3",
                    "midi": 50,
                    "time": 90.17469299999959,
                    "velocity": 0.4409448818897638,
                    "duration": 0.13031024999999374
                },
                {
                    "name": "A1",
                    "midi": 33,
                    "time": 90.30500324999959,
                    "velocity": 0.3937007874015748,
                    "duration": 0.13031024999999374
                },
                {
                    "name": "F3",
                    "midi": 53,
                    "time": 90.43531349999958,
                    "velocity": 0.49606299212598426,
                    "duration": 0.2606205000000017
                },
                {
                    "name": "A1",
                    "midi": 33,
                    "time": 90.69593399999958,
                    "velocity": 0.5275590551181102,
                    "duration": 0.13031024999999374
                },
                {
                    "name": "F2",
                    "midi": 41,
                    "time": 90.82624424999958,
                    "velocity": 0.44881889763779526,
                    "duration": 0.13031024999999374
                },
                {
                    "name": "D3",
                    "midi": 50,
                    "time": 90.95655449999957,
                    "velocity": 0.44881889763779526,
                    "duration": 0.13031024999999374
                },
                {
                    "name": "A1",
                    "midi": 33,
                    "time": 91.08686474999956,
                    "velocity": 0.3858267716535433,
                    "duration": 0.13031024999999374
                },
                {
                    "name": "F3",
                    "midi": 53,
                    "time": 91.21717499999956,
                    "velocity": 0.48031496062992124,
                    "duration": 0.2606205000000017
                },
                {
                    "name": "A1",
                    "midi": 33,
                    "time": 91.47779549999956,
                    "velocity": 0.5275590551181102,
                    "duration": 0.13031024999999374
                },
                {
                    "name": "F2",
                    "midi": 41,
                    "time": 91.60810574999955,
                    "velocity": 0.4645669291338583,
                    "duration": 0.13031024999999374
                },
                {
                    "name": "D3",
                    "midi": 50,
                    "time": 91.73841599999955,
                    "velocity": 0.4645669291338583,
                    "duration": 0.13031024999999374
                },
                {
                    "name": "A1",
                    "midi": 33,
                    "time": 91.86872624999954,
                    "velocity": 0.4251968503937008,
                    "duration": 0.13031024999999374
                },
                {
                    "name": "F3",
                    "midi": 53,
                    "time": 91.99903649999953,
                    "velocity": 0.49606299212598426,
                    "duration": 0.2606205000000017
                },
                {
                    "name": "A1",
                    "midi": 33,
                    "time": 92.25965699999954,
                    "velocity": 0.5511811023622047,
                    "duration": 0.13031024999999374
                },
                {
                    "name": "F2",
                    "midi": 41,
                    "time": 92.38996724999953,
                    "velocity": 0.4645669291338583,
                    "duration": 0.13031024999999374
                },
                {
                    "name": "D3",
                    "midi": 50,
                    "time": 92.52027749999952,
                    "velocity": 0.4645669291338583,
                    "duration": 0.13031024999999374
                },
                {
                    "name": "A1",
                    "midi": 33,
                    "time": 92.65058774999952,
                    "velocity": 0.41732283464566927,
                    "duration": 0.13031024999999374
                },
                {
                    "name": "F3",
                    "midi": 53,
                    "time": 92.78089799999951,
                    "velocity": 0.5275590551181102,
                    "duration": 0.2606205000000017
                },
                {
                    "name": "A1",
                    "midi": 33,
                    "time": 93.04151849999951,
                    "velocity": 0.5590551181102362,
                    "duration": 0.13031024999999374
                },
                {
                    "name": "F2",
                    "midi": 41,
                    "time": 93.1718287499995,
                    "velocity": 0.4645669291338583,
                    "duration": 0.13031024999999374
                },
                {
                    "name": "D3",
                    "midi": 50,
                    "time": 93.3021389999995,
                    "velocity": 0.4645669291338583,
                    "duration": 0.13031024999999374
                },
                {
                    "name": "A1",
                    "midi": 33,
                    "time": 93.4324492499995,
                    "velocity": 0.4094488188976378,
                    "duration": 0.13031024999999374
                },
                {
                    "name": "F3",
                    "midi": 53,
                    "time": 93.56275949999949,
                    "velocity": 0.5275590551181102,
                    "duration": 0.2606205000000017
                },
                {
                    "name": "A1",
                    "midi": 33,
                    "time": 93.82337999999949,
                    "velocity": 0.5669291338582677,
                    "duration": 0.13031025000000795
                },
                {
                    "name": "G2",
                    "midi": 43,
                    "time": 93.9536902499995,
                    "velocity": 0.48031496062992124,
                    "duration": 0.13031024999999374
                },
                {
                    "name": "D3",
                    "midi": 50,
                    "time": 94.08400049999949,
                    "velocity": 0.48031496062992124,
                    "duration": 0.13031024999999374
                },
                {
                    "name": "A1",
                    "midi": 33,
                    "time": 94.21431074999948,
                    "velocity": 0.4251968503937008,
                    "duration": 0.13031024999999374
                },
                {
                    "name": "E3",
                    "midi": 52,
                    "time": 94.34462099999948,
                    "velocity": 0.5590551181102362,
                    "duration": 0.2606205000000017
                },
                {
                    "name": "A1",
                    "midi": 33,
                    "time": 94.60524149999948,
                    "velocity": 0.5669291338582677,
                    "duration": 0.13031024999999374
                },
                {
                    "name": "G2",
                    "midi": 43,
                    "time": 94.73555174999947,
                    "velocity": 0.4566929133858268,
                    "duration": 0.13031024999999374
                },
                {
                    "name": "D3",
                    "midi": 50,
                    "time": 94.86586199999947,
                    "velocity": 0.4566929133858268,
                    "duration": 0.13031024999999374
                },
                {
                    "name": "A1",
                    "midi": 33,
                    "time": 94.99617224999946,
                    "velocity": 0.4015748031496063,
                    "duration": 0.13031024999999374
                },
                {
                    "name": "E3",
                    "midi": 52,
                    "time": 95.12648249999945,
                    "velocity": 0.5511811023622047,
                    "duration": 0.2606205000000017
                },
                {
                    "name": "A1",
                    "midi": 33,
                    "time": 95.38710299999946,
                    "velocity": 0.5669291338582677,
                    "duration": 0.13031025000000795
                },
                {
                    "name": "G2",
                    "midi": 43,
                    "time": 95.51741324999946,
                    "velocity": 0.49606299212598426,
                    "duration": 0.13031024999999374
                },
                {
                    "name": "D3",
                    "midi": 50,
                    "time": 95.64772349999946,
                    "velocity": 0.49606299212598426,
                    "duration": 0.13031024999999374
                },
                {
                    "name": "A1",
                    "midi": 33,
                    "time": 95.77803374999945,
                    "velocity": 0.44881889763779526,
                    "duration": 0.13031024999999374
                },
                {
                    "name": "E3",
                    "midi": 52,
                    "time": 95.90834399999945,
                    "velocity": 0.5354330708661418,
                    "duration": 0.2606205000000017
                },
                {
                    "name": "A1",
                    "midi": 33,
                    "time": 96.16896449999945,
                    "velocity": 0.5590551181102362,
                    "duration": 0.13031024999999374
                },
                {
                    "name": "G2",
                    "midi": 43,
                    "time": 96.29927474999944,
                    "velocity": 0.49606299212598426,
                    "duration": 0.13031024999999374
                },
                {
                    "name": "D3",
                    "midi": 50,
                    "time": 96.42958499999943,
                    "velocity": 0.49606299212598426,
                    "duration": 0.13031024999999374
                },
                {
                    "name": "A1",
                    "midi": 33,
                    "time": 96.55989524999943,
                    "velocity": 0.4566929133858268,
                    "duration": 0.13031024999999374
                },
                {
                    "name": "E3",
                    "midi": 52,
                    "time": 96.69020549999942,
                    "velocity": 0.5196850393700787,
                    "duration": 0.2606205000000017
                },
                {
                    "name": "A1",
                    "midi": 33,
                    "time": 96.95082599999942,
                    "velocity": 0.5590551181102362,
                    "duration": 0.13031024999999374
                },
                {
                    "name": "G2",
                    "midi": 43,
                    "time": 97.08113624999942,
                    "velocity": 0.48031496062992124,
                    "duration": 0.13031024999999374
                },
                {
                    "name": "D3",
                    "midi": 50,
                    "time": 97.21144649999941,
                    "velocity": 0.48031496062992124,
                    "duration": 0.13031024999999374
                },
                {
                    "name": "A1",
                    "midi": 33,
                    "time": 97.3417567499994,
                    "velocity": 0.4409448818897638,
                    "duration": 0.13031024999999374
                },
                {
                    "name": "E3",
                    "midi": 52,
                    "time": 97.4720669999994,
                    "velocity": 0.5118110236220472,
                    "duration": 0.2606205000000017
                },
                {
                    "name": "A1",
                    "midi": 33,
                    "time": 97.7326874999994,
                    "velocity": 0.5511811023622047,
                    "duration": 0.13031024999999374
                },
                {
                    "name": "G2",
                    "midi": 43,
                    "time": 97.8629977499994,
                    "velocity": 0.47244094488188976,
                    "duration": 0.13031024999999374
                },
                {
                    "name": "D3",
                    "midi": 50,
                    "time": 97.99330799999939,
                    "velocity": 0.47244094488188976,
                    "duration": 0.13031024999999374
                },
                {
                    "name": "A1",
                    "midi": 33,
                    "time": 98.12361824999938,
                    "velocity": 0.4251968503937008,
                    "duration": 0.13031024999999374
                },
                {
                    "name": "E3",
                    "midi": 52,
                    "time": 98.25392849999938,
                    "velocity": 0.5196850393700787,
                    "duration": 0.2606205000000017
                },
                {
                    "name": "A1",
                    "midi": 33,
                    "time": 98.51454899999938,
                    "velocity": 0.5669291338582677,
                    "duration": 0.13031025000000795
                },
                {
                    "name": "G2",
                    "midi": 43,
                    "time": 98.64485924999939,
                    "velocity": 0.4645669291338583,
                    "duration": 0.13031024999999374
                },
                {
                    "name": "D3",
                    "midi": 50,
                    "time": 98.77516949999938,
                    "velocity": 0.47244094488188976,
                    "duration": 0.13031024999999374
                },
                {
                    "name": "A1",
                    "midi": 33,
                    "time": 98.90547974999937,
                    "velocity": 0.4251968503937008,
                    "duration": 0.13031024999999374
                },
                {
                    "name": "E3",
                    "midi": 52,
                    "time": 99.03578999999937,
                    "velocity": 0.5275590551181102,
                    "duration": 0.2606205000000017
                },
                {
                    "name": "A1",
                    "midi": 33,
                    "time": 99.29641049999937,
                    "velocity": 0.5590551181102362,
                    "duration": 0.13031025000000795
                },
                {
                    "name": "G2",
                    "midi": 43,
                    "time": 99.42672074999938,
                    "velocity": 0.48031496062992124,
                    "duration": 0.13031025000000795
                },
                {
                    "name": "A2",
                    "midi": 45,
                    "time": 99.55703099999938,
                    "velocity": 0.48031496062992124,
                    "duration": 0.13031024999999374
                },
                {
                    "name": "A1",
                    "midi": 33,
                    "time": 99.68734124999938,
                    "velocity": 0.4251968503937008,
                    "duration": 0.13031024999999374
                },
                {
                    "name": "E3",
                    "midi": 52,
                    "time": 99.81765149999937,
                    "velocity": 0.5118110236220472,
                    "duration": 0.2606205000000017
                },
                {
                    "name": "D2",
                    "midi": 38,
                    "time": 100.07827199999937,
                    "velocity": 0.5590551181102362,
                    "duration": 0.13031025000000795
                },
                {
                    "name": "A2",
                    "midi": 45,
                    "time": 100.20858224999938,
                    "velocity": 0.49606299212598426,
                    "duration": 0.13031024999999374
                },
                {
                    "name": "F3",
                    "midi": 53,
                    "time": 100.33889249999937,
                    "velocity": 0.4881889763779528,
                    "duration": 0.13031024999999374
                },
                {
                    "name": "D2",
                    "midi": 38,
                    "time": 100.46920274999937,
                    "velocity": 0.44881889763779526,
                    "duration": 0.13031024999999374
                },
                {
                    "name": "A3",
                    "midi": 57,
                    "time": 100.59951299999936,
                    "velocity": 0.5275590551181102,
                    "duration": 0.2606205000000017
                },
                {
                    "name": "D2",
                    "midi": 38,
                    "time": 100.86013349999936,
                    "velocity": 0.5354330708661418,
                    "duration": 0.13031024999999374
                },
                {
                    "name": "A2",
                    "midi": 45,
                    "time": 100.99044374999936,
                    "velocity": 0.4881889763779528,
                    "duration": 0.13031024999999374
                },
                {
                    "name": "F3",
                    "midi": 53,
                    "time": 101.12075399999935,
                    "velocity": 0.4881889763779528,
                    "duration": 0.13031024999999374
                },
                {
                    "name": "D2",
                    "midi": 38,
                    "time": 101.25106424999935,
                    "velocity": 0.4566929133858268,
                    "duration": 0.13031024999999374
                },
                {
                    "name": "A3",
                    "midi": 57,
                    "time": 101.38137449999934,
                    "velocity": 0.5196850393700787,
                    "duration": 0.2606205000000017
                },
                {
                    "name": "D2",
                    "midi": 38,
                    "time": 101.64199499999934,
                    "velocity": 0.5354330708661418,
                    "duration": 0.13031024999999374
                },
                {
                    "name": "G#2",
                    "midi": 44,
                    "time": 101.77230524999933,
                    "velocity": 0.4881889763779528,
                    "duration": 0.13031024999999374
                },
                {
                    "name": "F3",
                    "midi": 53,
                    "time": 101.90261549999933,
                    "velocity": 0.4881889763779528,
                    "duration": 0.13031024999999374
                },
                {
                    "name": "D2",
                    "midi": 38,
                    "time": 102.03292574999932,
                    "velocity": 0.4409448818897638,
                    "duration": 0.13031024999999374
                },
                {
                    "name": "G#3",
                    "midi": 56,
                    "time": 102.16323599999932,
                    "velocity": 0.5196850393700787,
                    "duration": 0.2606205000000017
                },
                {
                    "name": "D2",
                    "midi": 38,
                    "time": 102.42385649999932,
                    "velocity": 0.5354330708661418,
                    "duration": 0.13031024999999374
                },
                {
                    "name": "G#2",
                    "midi": 44,
                    "time": 102.55416674999931,
                    "velocity": 0.48031496062992124,
                    "duration": 0.13031024999999374
                },
                {
                    "name": "F3",
                    "midi": 53,
                    "time": 102.6844769999993,
                    "velocity": 0.48031496062992124,
                    "duration": 0.13031024999999374
                },
                {
                    "name": "D2",
                    "midi": 38,
                    "time": 102.8147872499993,
                    "velocity": 0.4409448818897638,
                    "duration": 0.13031024999999374
                },
                {
                    "name": "G#3",
                    "midi": 56,
                    "time": 102.94509749999929,
                    "velocity": 0.5118110236220472,
                    "duration": 0.2606205000000017
                },
                {
                    "name": "D2",
                    "midi": 38,
                    "time": 103.2057179999993,
                    "velocity": 0.5039370078740157,
                    "duration": 0.13031024999999374
                },
                {
                    "name": "A2",
                    "midi": 45,
                    "time": 103.33602824999929,
                    "velocity": 0.4094488188976378,
                    "duration": 0.13031024999999374
                },
                {
                    "name": "F3",
                    "midi": 53,
                    "time": 103.46633849999928,
                    "velocity": 0.4094488188976378,
                    "duration": 0.13031024999999374
                },
                {
                    "name": "D2",
                    "midi": 38,
                    "time": 103.59664874999928,
                    "velocity": 0.3543307086614173,
                    "duration": 0.13031024999999374
                },
                {
                    "name": "A3",
                    "midi": 57,
                    "time": 103.72695899999927,
                    "velocity": 0.4881889763779528,
                    "duration": 0.2606205000000017
                },
                {
                    "name": "D2",
                    "midi": 38,
                    "time": 103.98757949999927,
                    "velocity": 0.5039370078740157,
                    "duration": 0.13031024999999374
                },
                {
                    "name": "A2",
                    "midi": 45,
                    "time": 104.11788974999926,
                    "velocity": 0.41732283464566927,
                    "duration": 0.13031024999999374
                },
                {
                    "name": "F3",
                    "midi": 53,
                    "time": 104.24819999999926,
                    "velocity": 0.41732283464566927,
                    "duration": 0.13031024999999374
                },
                {
                    "name": "D2",
                    "midi": 38,
                    "time": 104.37851024999925,
                    "velocity": 0.36220472440944884,
                    "duration": 0.13031024999999374
                },
                {
                    "name": "A3",
                    "midi": 57,
                    "time": 104.50882049999925,
                    "velocity": 0.49606299212598426,
                    "duration": 0.2606205000000017
                },
                {
                    "name": "D2",
                    "midi": 38,
                    "time": 104.76944099999925,
                    "velocity": 0.48031496062992124,
                    "duration": 0.13031025000000795
                },
                {
                    "name": "G#2",
                    "midi": 44,
                    "time": 104.89975124999926,
                    "velocity": 0.4015748031496063,
                    "duration": 0.13031024999999374
                },
                {
                    "name": "F3",
                    "midi": 53,
                    "time": 105.03006149999925,
                    "velocity": 0.4015748031496063,
                    "duration": 0.13031024999999374
                },
                {
                    "name": "D2",
                    "midi": 38,
                    "time": 105.16037174999924,
                    "velocity": 0.36220472440944884,
                    "duration": 0.13031024999999374
                },
                {
                    "name": "G#3",
                    "midi": 56,
                    "time": 105.29068199999924,
                    "velocity": 0.4409448818897638,
                    "duration": 0.2606205000000017
                },
                {
                    "name": "D2",
                    "midi": 38,
                    "time": 105.55130249999924,
                    "velocity": 0.48031496062992124,
                    "duration": 0.13031024999999374
                },
                {
                    "name": "G#2",
                    "midi": 44,
                    "time": 105.68161274999923,
                    "velocity": 0.3858267716535433,
                    "duration": 0.13031024999999374
                },
                {
                    "name": "F3",
                    "midi": 53,
                    "time": 105.81192299999923,
                    "velocity": 0.3858267716535433,
                    "duration": 0.13031024999999374
                },
                {
                    "name": "D2",
                    "midi": 38,
                    "time": 105.94223324999922,
                    "velocity": 0.3464566929133858,
                    "duration": 0.13031024999999374
                },
                {
                    "name": "G#3",
                    "midi": 56,
                    "time": 106.07254349999921,
                    "velocity": 0.4409448818897638,
                    "duration": 0.2606205000000017
                },
                {
                    "name": "D2",
                    "midi": 38,
                    "time": 106.33316399999921,
                    "velocity": 0.48031496062992124,
                    "duration": 0.13031025000000795
                },
                {
                    "name": "A2",
                    "midi": 45,
                    "time": 106.46347424999922,
                    "velocity": 0.3858267716535433,
                    "duration": 0.13031024999999374
                },
                {
                    "name": "F3",
                    "midi": 53,
                    "time": 106.59378449999922,
                    "velocity": 0.3779527559055118,
                    "duration": 0.13031024999999374
                },
                {
                    "name": "D2",
                    "midi": 38,
                    "time": 106.72409474999921,
                    "velocity": 0.3228346456692913,
                    "duration": 0.13031024999999374
                },
                {
                    "name": "A3",
                    "midi": 57,
                    "time": 106.8544049999992,
                    "velocity": 0.4409448818897638,
                    "duration": 0.2606205000000017
                },
                {
                    "name": "D2",
                    "midi": 38,
                    "time": 107.1150254999992,
                    "velocity": 0.48031496062992124,
                    "duration": 0.13031024999999374
                },
                {
                    "name": "A2",
                    "midi": 45,
                    "time": 107.2453357499992,
                    "velocity": 0.3779527559055118,
                    "duration": 0.13031024999999374
                },
                {
                    "name": "F3",
                    "midi": 53,
                    "time": 107.3756459999992,
                    "velocity": 0.3779527559055118,
                    "duration": 0.13031024999999374
                },
                {
                    "name": "D2",
                    "midi": 38,
                    "time": 107.50595624999919,
                    "velocity": 0.3228346456692913,
                    "duration": 0.13031024999999374
                },
                {
                    "name": "A3",
                    "midi": 57,
                    "time": 107.63626649999918,
                    "velocity": 0.4409448818897638,
                    "duration": 0.2606205000000017
                },
                {
                    "name": "D2",
                    "midi": 38,
                    "time": 107.89688699999918,
                    "velocity": 0.5354330708661418,
                    "duration": 0.13031024999999374
                },
                {
                    "name": "G#2",
                    "midi": 44,
                    "time": 108.02719724999918,
                    "velocity": 0.4094488188976378,
                    "duration": 0.13031024999999374
                },
                {
                    "name": "F3",
                    "midi": 53,
                    "time": 108.15750749999917,
                    "velocity": 0.4094488188976378,
                    "duration": 0.13031024999999374
                },
                {
                    "name": "D2",
                    "midi": 38,
                    "time": 108.28781774999916,
                    "velocity": 0.3543307086614173,
                    "duration": 0.13031024999999374
                },
                {
                    "name": "G#3",
                    "midi": 56,
                    "time": 108.41812799999916,
                    "velocity": 0.48031496062992124,
                    "duration": 0.2606205000000017
                },
                {
                    "name": "D2",
                    "midi": 38,
                    "time": 108.67874849999916,
                    "velocity": 0.5039370078740157,
                    "duration": 0.13031024999999374
                },
                {
                    "name": "G#2",
                    "midi": 44,
                    "time": 108.80905874999915,
                    "velocity": 0.4094488188976378,
                    "duration": 0.13031024999999374
                },
                {
                    "name": "F3",
                    "midi": 53,
                    "time": 108.93936899999915,
                    "velocity": 0.4094488188976378,
                    "duration": 0.13031024999999374
                },
                {
                    "name": "D2",
                    "midi": 38,
                    "time": 109.06967924999914,
                    "velocity": 0.3543307086614173,
                    "duration": 0.13031024999999374
                },
                {
                    "name": "G#3",
                    "midi": 56,
                    "time": 109.19998949999913,
                    "velocity": 0.47244094488188976,
                    "duration": 0.2606205000000017
                },
                {
                    "name": "D2",
                    "midi": 38,
                    "time": 109.46060999999914,
                    "velocity": 0.5039370078740157,
                    "duration": 0.13031024999999374
                },
                {
                    "name": "A2",
                    "midi": 45,
                    "time": 109.59092024999913,
                    "velocity": 0.4094488188976378,
                    "duration": 0.13031024999999374
                },
                {
                    "name": "F3",
                    "midi": 53,
                    "time": 109.72123049999912,
                    "velocity": 0.4094488188976378,
                    "duration": 0.13031024999999374
                },
                {
                    "name": "D2",
                    "midi": 38,
                    "time": 109.85154074999912,
                    "velocity": 0.33070866141732286,
                    "duration": 0.13031024999999374
                },
                {
                    "name": "A3",
                    "midi": 57,
                    "time": 109.98185099999911,
                    "velocity": 0.47244094488188976,
                    "duration": 0.2606205000000017
                },
                {
                    "name": "D2",
                    "midi": 38,
                    "time": 110.24247149999911,
                    "velocity": 0.5196850393700787,
                    "duration": 0.13031024999999374
                },
                {
                    "name": "A2",
                    "midi": 45,
                    "time": 110.3727817499991,
                    "velocity": 0.4015748031496063,
                    "duration": 0.13031024999999374
                },
                {
                    "name": "F3",
                    "midi": 53,
                    "time": 110.5030919999991,
                    "velocity": 0.4015748031496063,
                    "duration": 0.13031024999999374
                },
                {
                    "name": "D2",
                    "midi": 38,
                    "time": 110.6334022499991,
                    "velocity": 0.33858267716535434,
                    "duration": 0.13031024999999374
                },
                {
                    "name": "A3",
                    "midi": 57,
                    "time": 110.76371249999909,
                    "velocity": 0.4881889763779528,
                    "duration": 0.2606205000000017
                },
                {
                    "name": "D2",
                    "midi": 38,
                    "time": 111.02433299999909,
                    "velocity": 0.5354330708661418,
                    "duration": 0.13031024999999374
                },
                {
                    "name": "G#2",
                    "midi": 44,
                    "time": 111.15464324999908,
                    "velocity": 0.4015748031496063,
                    "duration": 0.13031024999999374
                },
                {
                    "name": "F3",
                    "midi": 53,
                    "time": 111.28495349999908,
                    "velocity": 0.4015748031496063,
                    "duration": 0.13031024999999374
                },
                {
                    "name": "D2",
                    "midi": 38,
                    "time": 111.41526374999907,
                    "velocity": 0.3464566929133858,
                    "duration": 0.13031024999999374
                },
                {
                    "name": "G#3",
                    "midi": 56,
                    "time": 111.54557399999906,
                    "velocity": 0.48031496062992124,
                    "duration": 0.2606205000000017
                },
                {
                    "name": "D2",
                    "midi": 38,
                    "time": 111.80619449999907,
                    "velocity": 0.48031496062992124,
                    "duration": 0.13031025000000795
                },
                {
                    "name": "G#2",
                    "midi": 44,
                    "time": 111.93650474999907,
                    "velocity": 0.4015748031496063,
                    "duration": 0.13031024999999374
                },
                {
                    "name": "F3",
                    "midi": 53,
                    "time": 112.06681499999907,
                    "velocity": 0.4094488188976378,
                    "duration": 0.13031024999999374
                },
                {
                    "name": "D2",
                    "midi": 38,
                    "time": 112.19712524999906,
                    "velocity": 0.3543307086614173,
                    "duration": 0.13031024999999374
                },
                {
                    "name": "G#3",
                    "midi": 56,
                    "time": 112.32743549999905,
                    "velocity": 0.48031496062992124,
                    "duration": 0.2606205000000017
                },
                {
                    "name": "D2",
                    "midi": 38,
                    "time": 112.58805599999906,
                    "velocity": 0.3937007874015748,
                    "duration": 0.5212409999999892
                },
                {
                    "name": "A2",
                    "midi": 45,
                    "time": 112.62063356249905,
                    "velocity": 0.4094488188976378,
                    "duration": 0.2280429374999926
                },
                {
                    "name": "F3",
                    "midi": 53,
                    "time": 112.65321112499905,
                    "velocity": 0.4251968503937008,
                    "duration": 0.19546537499999772
                },
                {
                    "name": "A4",
                    "midi": 69,
                    "time": 113.36991749999905,
                    "velocity": 0.5354330708661418,
                    "duration": 0.7818615000000051
                },
                {
                    "name": "D5",
                    "midi": 74,
                    "time": 113.36991749999905,
                    "velocity": 0.6377952755905512,
                    "duration": 0.7818615000000051
                },
                {
                    "name": "F4",
                    "midi": 65,
                    "time": 113.36991749999905,
                    "velocity": 0.5354330708661418,
                    "duration": 0.7818615000000051
                },
                {
                    "name": "F5",
                    "midi": 77,
                    "time": 113.36991749999905,
                    "velocity": 0.6377952755905512,
                    "duration": 0.7818615000000051
                }
            ],
            "controlChanges": {
                "7": [
                    {
                        "number": 7,
                        "time": 0,
                        "value": 0.7874015748031497
                    }
                ],
                "10": [
                    {
                        "number": 10,
                        "time": 0,
                        "value": 0.5039370078740157
                    }
                ],
                "64": [
                    {
                        "number": 64,
                        "time": 0,
                        "value": 1
                    },
                    {
                        "number": 64,
                        "time": 6.262493431249999,
                        "value": 0
                    },
                    {
                        "number": 64,
                        "time": 6.315703449999999,
                        "value": 1
                    },
                    {
                        "number": 64,
                        "time": 7.827302349999998,
                        "value": 0
                    },
                    {
                        "number": 64,
                        "time": 7.888113799999998,
                        "value": 1
                    },
                    {
                        "number": 64,
                        "time": 12.516299512500028,
                        "value": 0
                    },
                    {
                        "number": 64,
                        "time": 12.65529711250003,
                        "value": 1
                    },
                    {
                        "number": 64,
                        "time": 14.868399525000044,
                        "value": 0
                    },
                    {
                        "number": 64,
                        "time": 14.902063006250044,
                        "value": 1
                    },
                    {
                        "number": 64,
                        "time": 15.65243286250005,
                        "value": 0
                    },
                    {
                        "number": 64,
                        "time": 15.752337387500049,
                        "value": 0.7637795275590551
                    },
                    {
                        "number": 64,
                        "time": 16.426692931250052,
                        "value": 0
                    },
                    {
                        "number": 64,
                        "time": 16.496191731250054,
                        "value": 0.7637795275590551
                    },
                    {
                        "number": 64,
                        "time": 17.209640350000058,
                        "value": 0.25196850393700787
                    },
                    {
                        "number": 64,
                        "time": 17.246561587500057,
                        "value": 0.7559055118110236
                    },
                    {
                        "number": 64,
                        "time": 18.764676000000065,
                        "value": 0.25196850393700787
                    },
                    {
                        "number": 64,
                        "time": 18.894986250000066,
                        "value": 0.7559055118110236
                    },
                    {
                        "number": 64,
                        "time": 20.334914512500074,
                        "value": 0.2440944881889764
                    },
                    {
                        "number": 64,
                        "time": 20.381609018750073,
                        "value": 0.7559055118110236
                    },
                    {
                        "number": 64,
                        "time": 21.892122000000082,
                        "value": 0.25196850393700787
                    },
                    {
                        "number": 64,
                        "time": 21.99202652500008,
                        "value": 0.7480314960629921
                    },
                    {
                        "number": 64,
                        "time": 23.466704187500092,
                        "value": 0.25196850393700787
                    },
                    {
                        "number": 64,
                        "time": 23.505797262500092,
                        "value": 0.7559055118110236
                    },
                    {
                        "number": 64,
                        "time": 24.250737525000098,
                        "value": 0
                    },
                    {
                        "number": 64,
                        "time": 24.299603868750097,
                        "value": 0.7637795275590551
                    },
                    {
                        "number": 64,
                        "time": 25.0271694312501,
                        "value": 0.25196850393700787
                    },
                    {
                        "number": 64,
                        "time": 25.0879808812501,
                        "value": 0.7480314960629921
                    },
                    {
                        "number": 64,
                        "time": 26.59523610625011,
                        "value": 0.25196850393700787
                    },
                    {
                        "number": 64,
                        "time": 26.62021223750011,
                        "value": 0.7559055118110236
                    },
                    {
                        "number": 64,
                        "time": 28.15027175625012,
                        "value": 0.25196850393700787
                    },
                    {
                        "number": 64,
                        "time": 28.23931709375012,
                        "value": 0.7480314960629921
                    },
                    {
                        "number": 64,
                        "time": 34.41167926875016,
                        "value": 0
                    },
                    {
                        "number": 64,
                        "time": 34.46271745000016,
                        "value": 1
                    },
                    {
                        "number": 64,
                        "time": 35.977574106250174,
                        "value": 0
                    },
                    {
                        "number": 64,
                        "time": 36.035127800000176,
                        "value": 1
                    },
                    {
                        "number": 64,
                        "time": 37.53695343125019,
                        "value": 0
                    },
                    {
                        "number": 64,
                        "time": 37.58799161250019,
                        "value": 1
                    },
                    {
                        "number": 64,
                        "time": 38.323158606250196,
                        "value": 0
                    },
                    {
                        "number": 64,
                        "time": 38.58595094375019,
                        "value": 1
                    },
                    {
                        "number": 64,
                        "time": 40.6600557562502,
                        "value": 0
                    },
                    {
                        "number": 64,
                        "time": 40.717609450000204,
                        "value": 1
                    },
                    {
                        "number": 64,
                        "time": 43.01649944375021,
                        "value": 0
                    },
                    {
                        "number": 64,
                        "time": 43.049077006250215,
                        "value": 1
                    },
                    {
                        "number": 64,
                        "time": 43.79944686250022,
                        "value": 0
                    },
                    {
                        "number": 64,
                        "time": 43.89935138750022,
                        "value": 0.7637795275590551
                    },
                    {
                        "number": 64,
                        "time": 45.35882618750023,
                        "value": 0.25196850393700787
                    },
                    {
                        "number": 64,
                        "time": 45.39357558750023,
                        "value": 0.7559055118110236
                    },
                    {
                        "number": 64,
                        "time": 46.14068768750024,
                        "value": 0
                    },
                    {
                        "number": 64,
                        "time": 46.17217933125024,
                        "value": 0.7637795275590551
                    },
                    {
                        "number": 64,
                        "time": 46.91820551250025,
                        "value": 0.25196850393700787
                    },
                    {
                        "number": 64,
                        "time": 47.00399309375025,
                        "value": 0.7559055118110236
                    },
                    {
                        "number": 64,
                        "time": 48.48301443125027,
                        "value": 0.2440944881889764
                    },
                    {
                        "number": 64,
                        "time": 48.51993566875027,
                        "value": 0.7559055118110236
                    },
                    {
                        "number": 64,
                        "time": 50.048909268750286,
                        "value": 0.25196850393700787
                    },
                    {
                        "number": 64,
                        "time": 50.123837662500286,
                        "value": 0.7480314960629921
                    },
                    {
                        "number": 64,
                        "time": 51.61697594375029,
                        "value": 0.25196850393700787
                    },
                    {
                        "number": 64,
                        "time": 51.679959231250294,
                        "value": 0.7559055118110236
                    },
                    {
                        "number": 64,
                        "time": 53.17744118750031,
                        "value": 0.25196850393700787
                    },
                    {
                        "number": 64,
                        "time": 53.219792018750304,
                        "value": 0.7480314960629921
                    },
                    {
                        "number": 64,
                        "time": 54.74116418750032,
                        "value": 0
                    },
                    {
                        "number": 64,
                        "time": 54.780257262500314,
                        "value": 0.7559055118110236
                    },
                    {
                        "number": 64,
                        "time": 56.30597310625033,
                        "value": 0.25196850393700787
                    },
                    {
                        "number": 64,
                        "time": 56.40587763125033,
                        "value": 0.7480314960629921
                    },
                    {
                        "number": 64,
                        "time": 57.861008756250335,
                        "value": 0.2440944881889764
                    },
                    {
                        "number": 64,
                        "time": 57.907703262500334,
                        "value": 0.7559055118110236
                    },
                    {
                        "number": 64,
                        "time": 58.652643525000336,
                        "value": 0.2440944881889764
                    },
                    {
                        "number": 64,
                        "time": 58.71671273125033,
                        "value": 0.7559055118110236
                    },
                    {
                        "number": 64,
                        "time": 59.43016135000034,
                        "value": 0.2440944881889764
                    },
                    {
                        "number": 64,
                        "time": 59.53332363125034,
                        "value": 0.7559055118110236
                    },
                    {
                        "number": 64,
                        "time": 62.55760735000036,
                        "value": 0.2440944881889764
                    },
                    {
                        "number": 64,
                        "time": 62.62384839375036,
                        "value": 0.7559055118110236
                    },
                    {
                        "number": 64,
                        "time": 65.67636600000031,
                        "value": 0.25196850393700787
                    },
                    {
                        "number": 64,
                        "time": 65.73174785625031,
                        "value": 0.7480314960629921
                    },
                    {
                        "number": 64,
                        "time": 71.93668759375012,
                        "value": 0.2440944881889764
                    },
                    {
                        "number": 64,
                        "time": 72.04310763125012,
                        "value": 0.7559055118110236
                    },
                    {
                        "number": 64,
                        "time": 75.06739135000004,
                        "value": 0
                    },
                    {
                        "number": 64,
                        "time": 75.13363239375003,
                        "value": 0.7559055118110236
                    },
                    {
                        "number": 64,
                        "time": 78.19809510624994,
                        "value": 0.2440944881889764
                    },
                    {
                        "number": 64,
                        "time": 78.36967026874993,
                        "value": 0.7559055118110236
                    },
                    {
                        "number": 64,
                        "time": 81.33097069999985,
                        "value": 0.25196850393700787
                    },
                    {
                        "number": 64,
                        "time": 81.45150768124985,
                        "value": 0.7559055118110236
                    },
                    {
                        "number": 64,
                        "time": 82.88383451249982,
                        "value": 0.2440944881889764
                    },
                    {
                        "number": 64,
                        "time": 82.95224739374981,
                        "value": 0.7480314960629921
                    },
                    {
                        "number": 64,
                        "time": 87.57608943124967,
                        "value": 0.25196850393700787
                    },
                    {
                        "number": 64,
                        "time": 87.74440683749967,
                        "value": 0.7559055118110236
                    },
                    {
                        "number": 64,
                        "time": 90.69810583749958,
                        "value": 0
                    },
                    {
                        "number": 64,
                        "time": 90.82624424999958,
                        "value": 1
                    },
                    {
                        "number": 64,
                        "time": 93.82772367499949,
                        "value": 0.25196850393700787
                    },
                    {
                        "number": 64,
                        "time": 93.9536902499995,
                        "value": 0.7559055118110236
                    },
                    {
                        "number": 64,
                        "time": 95.39796218749946,
                        "value": 0.25196850393700787
                    },
                    {
                        "number": 64,
                        "time": 95.47940609374946,
                        "value": 0.7559055118110236
                    },
                    {
                        "number": 64,
                        "time": 96.18525328124944,
                        "value": 0.2440944881889764
                    },
                    {
                        "number": 64,
                        "time": 96.27647045624944,
                        "value": 0.7480314960629921
                    },
                    {
                        "number": 64,
                        "time": 96.95842743124942,
                        "value": 0.2440944881889764
                    },
                    {
                        "number": 64,
                        "time": 97.05073052499942,
                        "value": 0.7559055118110236
                    },
                    {
                        "number": 64,
                        "time": 97.7424607687494,
                        "value": 0.23622047244094488
                    },
                    {
                        "number": 64,
                        "time": 97.8173891624994,
                        "value": 0.7559055118110236
                    },
                    {
                        "number": 64,
                        "time": 98.53735329374938,
                        "value": 0
                    },
                    {
                        "number": 64,
                        "time": 98.58404779999938,
                        "value": 0.7559055118110236
                    },
                    {
                        "number": 64,
                        "time": 99.31161336249937,
                        "value": 0.2440944881889764
                    },
                    {
                        "number": 64,
                        "time": 99.44192361249938,
                        "value": 0.7637795275590551
                    },
                    {
                        "number": 64,
                        "time": 100.08913118749938,
                        "value": 0.2440944881889764
                    },
                    {
                        "number": 64,
                        "time": 100.14777079999938,
                        "value": 0.7559055118110236
                    },
                    {
                        "number": 64,
                        "time": 101.65394010624934,
                        "value": 0.2440944881889764
                    },
                    {
                        "number": 64,
                        "time": 101.68543174999934,
                        "value": 0.7559055118110236
                    },
                    {
                        "number": 64,
                        "time": 103.21331943124929,
                        "value": 0.25196850393700787
                    },
                    {
                        "number": 64,
                        "time": 103.31322395624929,
                        "value": 0.7480314960629921
                    },
                    {
                        "number": 64,
                        "time": 104.77812834999925,
                        "value": 0.2440944881889764
                    },
                    {
                        "number": 64,
                        "time": 104.86825960624925,
                        "value": 0.7480314960629921
                    },
                    {
                        "number": 64,
                        "time": 105.56759128124924,
                        "value": 0.2440944881889764
                    },
                    {
                        "number": 64,
                        "time": 105.62623089374924,
                        "value": 0.7480314960629921
                    },
                    {
                        "number": 64,
                        "time": 106.34185134999922,
                        "value": 0.2440944881889764
                    },
                    {
                        "number": 64,
                        "time": 106.42546709374922,
                        "value": 0.7480314960629921
                    },
                    {
                        "number": 64,
                        "time": 107.91100394374918,
                        "value": 0.2440944881889764
                    },
                    {
                        "number": 64,
                        "time": 107.93706599374917,
                        "value": 0.7480314960629921
                    },
                    {
                        "number": 64,
                        "time": 109.46821143124913,
                        "value": 0.25984251968503935
                    },
                    {
                        "number": 64,
                        "time": 109.56811595624913,
                        "value": 0.7480314960629921
                    },
                    {
                        "number": 64,
                        "time": 111.03302034999909,
                        "value": 0.25196850393700787
                    },
                    {
                        "number": 64,
                        "time": 111.09708955624909,
                        "value": 0.7480314960629921
                    },
                    {
                        "number": 64,
                        "time": 111.82248328124906,
                        "value": 0.2440944881889764
                    },
                    {
                        "number": 64,
                        "time": 111.87134962499907,
                        "value": 0.7559055118110236
                    },
                    {
                        "number": 64,
                        "time": 112.59782926874905,
                        "value": 0.2440944881889764
                    },
                    {
                        "number": 64,
                        "time": 112.65755479999905,
                        "value": 0.7559055118110236
                    },
                    {
                        "number": 64,
                        "time": 115.71550199999905,
                        "value": 0
                    },
                    {
                        "number": 64,
                        "time": 115.87513205624904,
                        "value": 0.7559055118110236
                    },
                    {
                        "number": 64,
                        "time": 121.72497636249905,
                        "value": 0
                    }
                ]
            },
            "id": 2,
            "name": "Piano left",
            "instrumentNumber": 0,
            "instrument": "acoustic grand piano",
            "instrumentFamily": "piano",
            "channelNumber": 0,
            "isPercussion": false
        },
        {
            "startTime": 0,
            "duration": 0,
            "length": 0,
            "notes": [],
            "controlChanges": {},
            "id": 3,
            "name": "Chopin: Prelude No.24 in D Minor Op. 28"
        },
        {
            "startTime": 0,
            "duration": 0,
            "length": 0,
            "notes": [],
            "controlChanges": {},
            "id": 4,
            "name": "Copyright  2002 by Bernd Krueger"
        },
        {
            "startTime": 0,
            "duration": 0,
            "length": 0,
            "notes": [],
            "controlChanges": {},
            "id": 5,
            "name": "http://www.piano-midi.de"
        },
        {
            "startTime": 0,
            "duration": 0,
            "length": 0,
            "notes": [],
            "controlChanges": {},
            "id": 6,
            "name": "Edition: 2014-02-23"
        },
        {
            "startTime": 0,
            "duration": 0,
            "length": 0,
            "notes": [],
            "controlChanges": {},
            "id": 7,
            "name": "Spur 7"
        }
    ]
}